<?xml version="1.0" encoding="utf-8"?>
<!-- Generator: Adobe Illustrator 24.3.0, SVG Export Plug-In . SVG Version: 6.00 Build 0)  -->
<svg version="1.1" id="Ebene_1" xmlns="http://www.w3.org/2000/svg" xmlns:xlink="http://www.w3.org/1999/xlink" x="0px" y="0px"
	 viewBox="0 0 349.1 166" style="enable-background:new 0 0 349.1 166;" xml:space="preserve">
<style type="text/css">
	.st0{fill:#B1B1B1;}
	.st1{fill:#CC6600;}
	.st2{fill:#0066FF;}
	.st3{fill:#0099FF;}
	.st4{fill:#666666;}
	.st5{fill:#6699FF;}
	.st6{fill:none;stroke:#373535;stroke-width:0.5;stroke-miterlimit:5;}
	.st7{fill:none;stroke:#373535;stroke-width:0.25;stroke-miterlimit:5;}
	.st8{fill:none;stroke:#B1B1B1;stroke-width:0.5;stroke-miterlimit:5;}
	.st9{opacity:0.2;fill:#0099FF;enable-background:new    ;}
	.st10{fill:none;stroke:#0099FF;stroke-width:2.0007;stroke-miterlimit:10.0018;}
	.st11{fill:#438CCB;}
	.st12{fill:none;stroke:#FFFFFF;stroke-miterlimit:5;}
</style>
<path class="st0" d="M237.7,138.5l-0.4,0.9l-0.1,0.9v10.9c0.1,0.9,0.5,1.6,1.2,2.1l0.1,0.1l10.7,6.2l1,0.4l0.5,0l0.4-0.1l0.4-0.3
	l0.4-0.2l0.2-0.4l0.2-1.1v-9.2l0.1-0.7l0.7-1.3l0.5-0.4l9-5.2l0.8-0.7l0.2-0.4v-0.5l0.1-0.4l-0.1-0.4l-0.2-0.4l-0.8-0.7l-9.3-5.4
	l-1.3-0.5l-1.4-0.2l-1.5,0.2l-1.3,0.5l-9,5.2l-0.7,0.6L237.7,138.5 M249.9,136.7l-0.6-0.3l-0.4-0.4l-0.1-0.2l0.2-0.2l0.3-0.3
	l0.9-0.3h1l0.9,0.3l0.5,0.5l-0.1,0.2l-0.4,0.3l0,0l-0.7,0.3l-0.7,0.1L249.9,136.7 M258.7,25.7l-0.9-1.4l-1.2-1L256,23l-0.5-0.2
	l-0.6,0l-0.3,0.1l-0.2,0l-0.4,0.3l-0.3,0.4l-0.2,0.5l-0.1,0.6l-5.8,3.4c0.6,0.3,1.3,0.8,1.9,1.5c0.8,1,1.3,2,1.5,3.1l0.1,1.1l0,0.4
	l0.5-0.3l1.4,1.5c0.4-0.8,1.1-1.7,2.2-2.7c1.1-1,2-1.6,2.8-1.9c0.1-0.1,0.3-0.1,0.4-0.2l0.7,0l0.3-0.7l0.2-1l-0.2-1.5L258.7,25.7
	 M205.5,56.7c0.2,0.5,0.4,1,0.5,1.5l33.1-19.1l0.5,0.1L240,39l0.1-0.2l1.6-0.9l0.1-0.4c0.2-0.6,0.1-1.3-0.4-2.1
	c-0.5-0.8-1-1.3-1.6-1.4l-0.4,0l-1.6,0.9h-0.1l-0.4,0.2l-0.2,0.6l-33.1,19.1C204.6,55.3,205.1,55.9,205.5,56.7 M185.3,69.2l1.7-0.4
	l2.6-1.1l5.8-3.4l1.9-1.1l0.2-0.4l0.1-0.7l-0.3-0.8l-0.2-0.4l-0.4-0.5l-0.7-0.5l-0.5-0.2l-2,1.2l-6.2,3.6l-0.6,0.3l-0.8,0.3
	l-1.2,0.2l-25.2,1.3v3.9L185.3,69.2 M189.3,39.8l0.1,1.3l0.9,4.1l-0.1,0.1l-0.7,1.3l-0.4,1.5l0.1,1.4l2,9l0.5,1.2l0.4,0.4l0.6,0.2
	l0.2,0.1l0.1,0l0.2,0.1l-0.3-1.3h0l0.9-0.5v0l-0.1-0.2l-0.1-0.1l-0.2-0.4l-0.1-0.2v0l0-0.3l-1.3-5.7l0.4-0.9l0.6-0.8l0.7-0.7
	l0.7-0.5l0.2-0.1l0.7-0.3l0.8-0.1l0.8,0l0.5,0.2h0.2l0.7,0.2l1.2,5.1l0.4,0.6l1-0.6l0.7,0.2v0l-3.2-13.9l-0.1-0.2l-0.5-0.2l-6.3-1.5
	l-0.5,0l-0.5,0.1l-0.3,0.3c-0.3,0-0.5,0.2-0.7,0.4C189.5,39,189.4,39.3,189.3,39.8 M300.7,80.5l-0.8-2.1l-2.3-3.1l-31.5-33.8
	l0.1-0.4l-0.2-0.2h-0.1l-0.8-0.9c-0.1-0.2-0.3-0.3-0.4-0.5l-0.1-0.2l-0.4,0l-0.6,0.3l-0.7,0.5l-1.3,1.3l-0.3,0.6l-0.1,0.4l0.9,1
	l0.7,0.8l0.5-0.1L294.9,78l1.4,1.9l0.5,1c0.7,1.7,0.8,3.1,0.4,4.5c-0.1,0.2-0.1,0.3-0.2,0.5c-0.1,0.2-0.2,0.4-0.3,0.6l-0.5,0.7
	l-1.6,1.3l-10,5.8l0.3,0.2l0.8,0.8l0.6,1l0.2,1.1l0,0.4l10.2-5.9l1.5-1.2c1.4-1.2,2.3-2.7,2.8-4.6C301.5,84,301.4,82.2,300.7,80.5
	 M287.9,6.6L286,7.5l-20.8,12.1c0.6,0.2,1.1,0.7,1.5,1.4c0.4,0.7,0.6,1.4,0.5,1.9l21.1-12.1l1.6-0.7l1.9-0.3l2.3,0.1l8.2,1.1
	l0.7-3.8l-10.7-1.3L290,6.1L287.9,6.6z"/>
<path class="st1" d="M223.9,134.2l0.2-0.4l0.1-0.5l-0.1-0.5l-0.1-0.6l-0.6-1.1l-0.8-0.7l0,0l-0.9-0.2l-4.3,2.5l-0.3,0.1l-0.4,0.4
	l-0.2,1l0.1,0.7l0.3,0.7l0.5,0.6l0.5,0.4l0.4,0.2l0.8,0.2l0.4-0.1l0.3-0.3l2.2-1.2L223.9,134.2z"/>
<path class="st2" d="M230.5,130.5l-0.6-1.6l-2.9-3.7l-0.1-0.1l-0.6-0.4l-0.6-0.3l-1.6,0.1l-1.4,0.1l-2.8,1.6l-0.6,0.9v4l0.1,0.2
	l2.2-1.3l0.4,0l0.5,0.2l0,0l0.7,0.4l0.7,1l0.2,0.6l0,0.4l0.1,0.5l-0.1,0.5l-0.2,0.4l-2,1.2l0.9,1.2l1.2,0.7l3-0.3l2.8-1.6l0.6-0.9
	V130.5 M222.2,125.3l0.3,0l-0.6,0.3l-0.3-0.1L222.2,125.3 M228.1,128.9l0,0.3l-0.3-0.1l-0.4-0.4l-0.2-0.4l0.1-0.3l0.3,0.1l0.4,0.3
	L228.1,128.9 M229.1,131.9l0.2,0.1l0.1,0.4l-0.1,0.5l-0.2,0.3l-0.2-0.1l-0.1-0.4l0.1-0.5L229.1,131.9 M244.1,116.5l-0.7-0.2
	l-0.6,0.1l-1.1,0.7l-0.3-0.4l-1.2-0.7l-3,0.2l-2.8,1.6l1.6-0.1l0.9,0.1l1.1,0.5l1.1,0.8l0.1,0.1l0.9,1l0.3,0.3l1.2,1.5l0.6,1.6v1v1
	c0,0,0,0,0,0.1v0.1c0,1-0.3,1.8-0.9,2.3l-0.9,0.5l0.3,0l0.8-0.1l2.8-1.6l0.6-0.9v-2.9l1.3-0.7l0.3-0.4l0.2-0.5l0-0.2l0.7-0.4
	l0.2-0.5l0.1-0.5l0.3-1.3l-0.1-0.5l-0.2-0.6l-0.4-0.5l-0.4-0.3l-1.2-0.3l0,0c-0.2-0.1-0.3-0.2-0.5-0.2l-0.5,0L244.1,116.5
	 M244.9,117l0.8,0.6l0.6,0.9l0.5,1l0.1,1l-0.1-0.4l-0.3-0.9l-0.4-0.9l-0.6-0.8L244.9,117 M243.4,123.8l0.2-0.3l0.2,0l0.1,0.4
	l-0.1,0.5l-0.2,0.3l-0.2-0.1l-0.1-0.4L243.4,123.8 M236.8,116.9l0.3,0l-0.6,0.3l-0.3-0.1L236.8,116.9 M242,119.7l0.4,0.4l0.2,0.4
	l-0.1,0.3l-0.3-0.1l-0.4-0.3l0,0l-0.2-0.5l0.1-0.3L242,119.7z"/>
<path class="st3" d="M236,117.9l-0.7,0.1l-11.2,6.6l1.6-0.1l0.6,0.3l0.6,0.4l0.1,0.1l0,0l3,3.7l0.6,1.6v4l10.2-5.9l-0.3,0l0.9-0.5
	c0.6-0.6,0.8-1.4,0.9-2.3v-0.1c0,0,0,0,0-0.1v-1c-0.2-1.1-0.6-2.1-1.2-3.1l-0.7-1.1l-0.3-0.3l-0.9-1l-1.1-0.8L237,118L236,117.9z"/>
<path class="st4" d="M250.7,95.4C250.6,95.4,250.6,95.4,250.7,95.4c-2.7,0-4.2,0.8-4.6,2.4v0.4c0,0,0,0.1,0,0.1l-0.1,0.7l0,0.3
	c0.4,1.6,1.9,2.4,4.6,2.4c2.7,0,4.2-0.8,4.5-2.4l0-0.2l0-1.4C254.8,96.2,253.2,95.4,250.7,95.4 M250.7,97.5c0.9,0,1.6,0.2,2.2,0.7
	l0.5-0.1c-0.2,0.9-1.1,1.4-2.6,1.4c-1.6,0-2.5-0.4-2.8-1.2l0.6-0.2C249.1,97.7,249.8,97.5,250.7,97.5L250.7,97.5 M258.3,107.9
	c-0.5-0.4-1-0.7-1.5-0.9c-0.6-0.3-1.2-0.4-1.7-0.3l-0.5,1l-0.1,1.2v4l-1.4,0.8l-1.6-1l0-1.4l-0.8,0.1l-0.8-0.1l-0.6-0.2l-0.4-0.4
	l-0.1-0.5l0.1-0.4l0.4-0.4l0.6-0.2l0.8-0.1l0.9,0.1v-1.5l-1.4,0.3l-1.3,0.6l-0.7,0.5l-0.5,0.6l-0.3,0.6l-0.2,0.6v1.3l5.4,3.1
	l0.7-0.4v-0.3l1.4-0.8l4.3,2.5l1.1,0.5l1.1,0.1c0.3-0.4,0.5-0.9,0.6-1.6c0.1-0.6,0.1-1.2,0-1.7l-2.7-1.5v-0.3v-0.4l-0.4,0.1
	l-0.5-0.2l0.9-0.5l0.1-0.2v0l-0.6-0.3L258.3,107.9 M258.6,102.6L258.6,102.6l-0.3,0.2l-1.7,1c2.5,0.2,4.8,2.1,6.6,5.7
	c1.7,3.3,2.1,5.9,1,7.8l1.4-0.8h0l1.9-1.1c0.9-0.9,1.3-2.3,1.1-4c-0.2-1.6-0.7-3.2-1.7-4.9c-1-1.7-2.1-2.9-3.5-3.8
	c-1.3-0.8-2.4-1.1-3.6-0.8L258.6,102.6 M247.7,73.4l-0.2,0.1c-0.6,0.4-0.9,0.8-1,1.3l0,0.3v2.1l0,0.3c0.2,0.9,0.8,1.5,1.8,1.9
	c0,0,0.1,0,0.1,0v12.9c0.1,0.8,0.8,1.2,2.1,1.2c0,0,0.1,0,0.1,0c1.3,0,2-0.4,2-1.2V79.5c0.1,0,0.2-0.1,0.3-0.1
	c1.2-0.4,1.8-1.1,1.8-2.1v-2.1l0-0.2c0-0.3-0.3-0.7-0.7-1.2l-0.4-0.3c-0.8-0.6-1.8-0.9-3-0.9C249.5,72.5,248.5,72.8,247.7,73.4
	 M238.5,31.3l3.3-0.3l3.2,4v2.1v2.2l4.6-2.6V36l0.7-0.4l0.4-0.5l0.2-0.6l0-0.4l0-0.4l-0.1-1.1c-0.2-1.1-0.7-2.1-1.5-3.1
	c-0.6-0.7-1.2-1.3-1.9-1.5c-0.3-0.1-0.6-0.2-0.9-0.3l-0.8,0.1l-1.2,0.7l-1.4,0.1L238.5,31.3 M238.4,32.1l-0.3,0.1l-0.4,0.3l-0.3,0.5
	l-0.2,0.6l0,0.7l0.1,1l0.1-0.1l0.4-0.2h0.1l1.6-0.9l0.4,0c0.6,0.1,1.1,0.6,1.6,1.4c0.5,0.8,0.6,1.5,0.4,2.1l-0.1,0.4l-1.6,0.9
	L240,39l-0.4,0.2h-0.1l0.7,0.6l0.7,0.4l0.7,0.1l0.7-0.1l1.9-1.1l0.4-0.5l0.2-0.7l0.1-0.8l-0.1-1.1c-0.3-1.1-0.8-2.1-1.5-3.1
	c-0.8-1.1-1.8-1.7-2.8-1.8l-0.8,0.1L238.4,32.1 M259.2,23.5l-0.9-0.8l-0.9-0.6l-0.8-0.2l-0.8,0.1l-1.3,0.8l0.3-0.1l0.6,0L256,23
	l0.6,0.3l1.2,1l0.9,1.4l0.7,1.5l0.2,1.5l-0.2,1l-0.3,0.7l-0.7,0c-0.2,0-0.3,0.1-0.4,0.2c-0.8,0.3-1.8,1-2.8,1.9
	c-1.1,1-1.8,1.9-2.2,2.7c-0.1,0.1-0.1,0.2-0.2,0.3l-0.2,0.7l0.1,0.3l0.3,0.2l0.9,0.9l0,1l4.2,4.6l-0.1-2l1.4-1.5
	c-0.5,0.6-0.9,1.2-1.1,1.7l-0.1,0.7l0.1,0.3l0.3,0.2l1.3,1.4l0.3,0l0.8-0.2l1-0.5l-0.9-1l0.1-0.4l0.3-0.6l1.3-1.3l0.7-0.5l0.6-0.3
	l0.4,0l0.1,0.2c0.2,0.2,0.3,0.3,0.4,0.5l0.3,0.3l0.7-1.2l0.2-0.9l-0.1-0.3l-0.2-0.2H266l-1.3-1.4l-0.7,0.1c-1,0.4-2.1,1.1-3.3,2.1
	l0.8-0.9l3.5-1.8l-4.2-4.5l-0.6,0.3l-0.9-1.1l1.1-0.7l0.4-0.5l0.2-0.6l0.1-0.8l-0.1-1.1l-0.4-1.1l-0.6-1.1L259.2,23.5 M197.1,48.1
	l-0.8,0l-0.8,0.1l-0.7,0.3l-0.2,0.1l-0.7,0.5l-0.7,0.7l-0.6,0.8l-0.4,0.9l1.3,5.7l0,0.3l0.1,0.2l0.2,0.4l0.1,0.1l0.1,0.3v0l-0.9,0.5
	l1.3,0.3h0l-0.3-1.3l-0.1-0.1l-0.2-0.3l-0.1-0.2l-0.2-0.8l0.1,0.2l0.4,0.6l1.3-0.8l1.4,0.3l0.7,0.3c0.9,0.5,1.7,1.3,2.3,2.5
	c0.6,1.2,0.8,2.3,0.5,3.3l2.4-1.4h0l0.4-0.2l0.9-0.6c0.5-0.8,0.5-1.9,0-3.1c-0.5-1.2-1.2-2-2-2.5l-0.8-0.3l-1.3-0.3l-0.1-0.4
	l0.4-0.2l-0.4-0.6l-1.2-5.1l-0.7-0.2h-0.2L197.1,48.1 M284.9,94.3l-0.3-0.2l-0.1,0l-0.4,0c-0.7-0.6-1.4-0.9-2.1-1l-0.8,0.1l-1.2,0.7
	l-1.5,0.1l-4.6,2.6l3.2-0.3l3.3,4l0,2.1l-0.1-1.1c-0.2-1.1-0.7-2.1-1.5-3.1c-0.9-1.1-1.8-1.7-2.8-1.8l-0.8,0.1l-1.4,0.9l-0.3,0.1
	l-0.4,0.3l-0.3,0.5l-0.2,0.6l-0.1,0.7l0.3,1.5l0.7,1.6l1,1.4l1.2,1l0.6,0.3l0.6,0.1l0.6,0l0.2-0.1l1.2-0.7l0.3,0l0,0l1.2-0.1
	l4.6-2.6v-0.7l0.7-0.4l0.4-0.5l0.2-0.6l0.1-0.8l-0.1-1l0.1-0.4l0,0l0-0.4l-0.2-1.1l-0.6-1L284.9,94.3 M261.9,18.5l-1.2,0.7l-1.4,0.1
	l-4.6,2.6l3.2-0.3l3.2,4.1v4.3l4.6-2.6v-0.7l0.2-0.1l0.5-0.3l0.4-0.5l0.2-0.7l0.1-0.8l-0.1-1l0.2-0.4c0,0,0-0.1,0-0.1
	c0.1-0.6-0.1-1.2-0.5-1.9c-0.4-0.7-0.9-1.2-1.5-1.4c0,0-0.1,0-0.1,0l-0.3,0c-0.7-0.6-1.4-0.9-2.1-1L261.9,18.5z"/>
<path class="st5" d="M256.8,107c0.5,0.2,1,0.5,1.5,0.9l-0.1,2.3l0.6,0.3v0l-0.1,0.2l-0.9,0.5l0.5,0.2l0.4-0.1l1.4-0.8l0.3,0.2l0,0v0
	h0l-1.7,0.9v0.3l2.7,1.5c0.1,0.6,0.1,1.2,0,1.7c-0.1,0.7-0.3,1.2-0.6,1.6l-1.1-0.1l-1.1-0.5l-4.3-2.5l-1.4,0.8v0.3v1.6l5.1,2.9
	l0.9,0.3l0.8,0.1l0.7-0.1l0.5-0.2l2.4-1.5c0.2-0.3,0.4-0.5,0.6-0.8c1.1-2,0.8-4.6-1-7.8c-1.9-3.6-4.1-5.4-6.6-5.7
	c-0.1,0-0.1,0-0.2,0c0,0-0.1,0-0.1,0l-1,0.1l-1.4,0.8l-0.3,0.1l-0.6,0.3l-0.5,0.5l-0.4,0.6l-0.3,0.8l-0.2,0.8v1.5l0,2.1l0,1.4l1.6,1
	l1.4-0.8v-4l0.1-1.2l0.5-1C255.6,106.6,256.2,106.7,256.8,107 M261.9,100.5l-1,0.1l-1.3,0.8c-0.4,0.1-0.9,0.3-1.2,0.6l-0.7,1.1
	l0.6-0.3l0.3-0.2l0,0l0.7-0.6c0.2-0.1,0.3-0.1,0.5-0.1c1.1-0.3,2.3,0,3.6,0.8c1.3,0.8,2.5,2.1,3.5,3.8c1,1.7,1.6,3.3,1.7,4.9
	c0.2,1.7-0.2,3.1-1.1,4l-1.9,1.1h0l1.2-0.1c0,0,0.1,0,0.1,0c0.1,0,0.1-0.1,0.2-0.1l1.4-0.8l0.7-0.6c1.8-2,1.7-4.9-0.3-8.6
	c0-0.1-0.1-0.1-0.1-0.2C266.8,102.4,264.6,100.6,261.9,100.5 M201.1,53.6l-1,0.6l-0.4,0.2l0.1,0.4l1.3,0.3l0.8,0.3
	c0.9,0.5,1.6,1.4,2,2.5c0.5,1.3,0.5,2.3,0,3.1l-0.9,0.6l-0.4,0.2h0l0.7,0l0.5-0.2l0.2-0.2l1.4-0.8l0.4-0.7c0.2-0.6,0.2-1.2,0-1.9
	c-0.1-0.5-0.3-1-0.5-1.5c-0.4-0.8-0.9-1.5-1.4-1.9c-0.3-0.2-0.6-0.4-0.9-0.6l-0.7-0.3l-0.6-0.1v0L201.1,53.6 M193.1,59.2L193.1,59.2
	l0.3,1.3l0.1,0.4l2-1.2l0.5,0.2l0.7,0.5l0.4,0.5l0.2,0.4l0.3,0.8l-0.1,0.7l-0.2,0.4l-1.9,1.1l1,0.7l1,0.3l0.8-0.2l0.3-0.3l1.4-0.8
	l0.4-0.6c0,0,0,0,0,0c0.3-1,0.1-2.1-0.5-3.3c-0.6-1.2-1.4-2.1-2.3-2.5l-0.7-0.3l-1.4-0.3l-1.3,0.8l-0.1,0l0.1,0.5l0.3,1.3h0
	L193.1,59.2z"/>
<path id="Layer0_6_MEMBER_0_1_STROKES" class="st6" d="M252.1,136.4l0-0.3l-0.1-0.3l-0.7-0.4l-0.9-0.1l-0.8,0.2l-0.4,0.4l-0.1,0.3
	l0.1,0.2"/>
<path id="Layer0_6_MEMBER_1_1_STROKES" class="st6" d="M249.2,134.8l-0.4,0.4l-0.1,0.4l0.1,0.4l0.4,0.4l0.6,0.3l0.8,0.1l0.7-0.1
	l0.7-0.3l0.4-0.4l0.2-0.4l-0.2-0.4l-0.4-0.4l-0.7-0.3l-0.7-0.1l-0.8,0.1L249.2,134.8z"/>
<path id="Layer0_6_MEMBER_2_1_STROKES" class="st6" d="M253.4,131.9l-1.3-0.5l-1.4-0.2l-1.5,0.2l-1.3,0.5"/>
<path id="Layer0_6_MEMBER_3_1_STROKES" class="st6" d="M262.7,140.5l0.8-0.7l0.2-0.4l0.1-0.4l-0.1-0.4l-0.2-0.4l-0.8-0.7"/>
<path id="Layer0_6_MEMBER_4_1_STROKES" class="st6" d="M249.2,159.5l1,0.4l0.5,0l0.4-0.1l0.3-0.3l0.3-0.4l0.2-1.1"/>
<path id="Layer0_6_MEMBER_5_1_STROKES" class="st6" d="M251.6,159.5l0.3-0.3l0.2-0.4l0.2-1.1"/>
<path id="Layer0_6_MEMBER_6_1_STROKES" class="st6" d="M252.1,135.3l-0.9-0.3h-1l-0.9,0.3l-0.3,0.3l-0.2,0.2"/>
<path id="Layer0_6_MEMBER_7_1_STROKES" class="st6" d="M262.7,141l0.8-0.7l0.2-0.4l0.1-0.5"/>
<path id="Layer0_6_MEMBER_8_1_STROKES" class="st6" d="M253.7,145.7l-0.7,0.5l-0.6,0.8l-0.4,0.9l-0.1,0.9"/>
<path id="Layer0_6_MEMBER_9_1_STROKES" class="st6" d="M253.7,146.2l-0.5,0.4l-0.7,1.3l-0.1,0.7"/>
<path id="Layer0_6_MEMBER_10_1_STROKES" class="st6" d="M238.9,137.1l-0.7,0.6l-0.6,0.8l-0.4,0.9l-0.1,0.9"/>
<path id="Layer0_6_MEMBER_11_1_STROKES" class="st6" d="M242.3,127.8v-2"/>
<path id="Layer0_6_MEMBER_12_1_STROKES" class="st6" d="M241.5,116.8l3,3.8"/>
<path id="Layer0_6_MEMBER_13_1_STROKES" class="st6" d="M238.7,118.4l3,3.7"/>
<path id="Layer0_6_MEMBER_14_1_STROKES" class="st6" d="M237.3,116.3l3-0.2"/>
<path id="Layer0_6_MEMBER_15_1_STROKES" class="st6" d="M234.4,118l3-0.2"/>
<path id="Layer0_6_MEMBER_16_1_STROKES" class="st6" d="M227.2,137.1l2.8-1.6"/>
<path id="Layer0_6_MEMBER_17_1_STROKES" class="st6" d="M227.8,132.2l2.8-1.6"/>
<path id="Layer0_6_MEMBER_18_1_STROKES" class="st6" d="M227.8,136.2l2.8-1.6"/>
<path id="Layer0_6_MEMBER_19_1_STROKES" class="st6" d="M224.1,126.8l2.8-1.6"/>
<path id="Layer0_6_MEMBER_20_1_STROKES" class="st6" d="M227.2,130.6l2.8-1.6"/>
<path id="Layer0_6_MEMBER_21_1_STROKES" class="st6" d="M222.9,126.1l2.8-1.6"/>
<path id="Layer0_6_MEMBER_22_1_STROKES" class="st6" d="M219.9,126.4l2.8-1.6"/>
<path id="Layer0_6_MEMBER_23_1_STROKES" class="st6" d="M230.6,130.5l-0.6-1.6"/>
<path id="Layer0_6_MEMBER_24_1_STROKES" class="st6" d="M230,135.5l0.6-0.9"/>
<path id="Layer0_6_MEMBER_25_1_STROKES" class="st6" d="M226.4,124.8l-0.6-0.3"/>
<path id="Layer0_6_MEMBER_26_1_STROKES" class="st6" d="M227,125.2l-0.6-0.4"/>
<path id="Layer0_6_MEMBER_27_1_STROKES" class="st6" d="M223.5,137.1l0.6,0.3"/>
<path id="Layer0_6_MEMBER_28_1_STROKES" class="st6" d="M223.5,126.4l-0.6-0.3"/>
<path id="Layer0_6_MEMBER_29_1_STROKES" class="st6" d="M222.9,136.6l0.6,0.4"/>
<path id="Layer0_6_MEMBER_30_1_STROKES" class="st6" d="M219.3,131.3l0,0.2"/>
<path id="Layer0_6_MEMBER_31_1_STROKES" class="st6" d="M227.8,132.2l-0.6-1.6"/>
<path id="Layer0_6_MEMBER_32_1_STROKES" class="st6" d="M224.1,126.8l-0.6-0.4"/>
<path id="Layer0_6_MEMBER_33_1_STROKES" class="st6" d="M219.9,126.4l-0.6,0.9"/>
<path id="Layer0_6_MEMBER_34_1_STROKES" class="st6" d="M227.2,137.1l0.6-0.9"/>
<path id="Layer0_6_MEMBER_35_1_STROKES" class="st6" d="M224.1,137.4l3-0.3"/>
<path id="Layer0_6_MEMBER_36_1_STROKES" class="st6" d="M230.6,134.6v-4"/>
<path id="Layer0_6_MEMBER_37_1_STROKES" class="st6" d="M227.8,136.2v-4"/>
<path id="Layer0_6_MEMBER_38_1_STROKES" class="st6" d="M227,125.2l3,3.7"/>
<path id="Layer0_6_MEMBER_39_1_STROKES" class="st6" d="M224.1,126.8l3,3.8"/>
<path id="Layer0_6_MEMBER_40_1_STROKES" class="st6" d="M224.3,124.6l1.5-0.1"/>
<path id="Layer0_6_MEMBER_41_1_STROKES" class="st6" d="M222.7,124.7l1.5-0.1"/>
<path id="Layer0_6_MEMBER_42_1_STROKES" class="st6" d="M219.9,126.4l3-0.3"/>
<path id="Layer0_6_MEMBER_43_1_STROKES" class="st6" d="M219.3,131.3v-4"/>
<path id="Layer0_6_MEMBER_44_1_STROKES" class="st6" d="M221.9,135.4l1,1.3"/>
<path id="Layer0_6_MEMBER_45_1_STROKES" class="st6" d="M237.1,151v-10.7"/>
<path id="Layer0_6_MEMBER_46_1_STROKES" class="st6" d="M238.9,137.1l9-5.2"/>
<path id="Layer0_6_MEMBER_47_1_STROKES" class="st6" d="M253.7,146.2l9-5.2"/>
<path id="Layer0_6_MEMBER_48_1_STROKES" class="st6" d="M252.4,157.7v-9.2"/>
<path id="Layer0_6_MEMBER_49_1_STROKES" class="st6" d="M251.9,158v-9.2"/>
<path id="Layer0_6_MEMBER_50_1_STROKES" class="st6" d="M253.7,145.7l9-5.2"/>
<path id="Layer0_6_MEMBER_51_1_STROKES" class="st6" d="M238.5,153.4l10.7,6.2"/>
<path id="Layer0_6_MEMBER_52_1_STROKES" class="st6" d="M253.4,131.9l9.3,5.4"/>
<path id="Layer0_6_MEMBER_53_1_STROKES" class="st6" d="M252.6,135.8l-0.5-0.5"/>
<path id="Layer0_6_MEMBER_54_1_STROKES" class="st6" d="M284.4,94.2l10.1-5.9"/>
<path id="Layer0_6_MEMBER_55_1_STROKES" class="st6" d="M265.7,41.1l31.9,34.2"/>
<path id="Layer0_6_MEMBER_56_1_STROKES" class="st6" d="M286.5,97.7l10.3-5.9"/>
<path id="Layer0_6_MEMBER_57_1_STROKES" class="st6" d="M263.1,43.9L295,78.1"/>
<path id="Layer0_6_MEMBER_58_1_STROKES" class="st6" d="M242.3,40.1l1.4-0.8"/>
<path id="Layer0_6_MEMBER_59_1_STROKES" class="st6" d="M249.6,36l0.2-0.1"/>
<path id="Layer0_6_MEMBER_60_1_STROKES" class="st6" d="M244.6,28.5l1.2-0.7"/>
<path id="Layer0_6_MEMBER_61_1_STROKES" class="st6" d="M238.4,32.1l1.4-0.8"/>
<path id="Layer0_6_MEMBER_62_1_STROKES" class="st6" d="M237.9,34.9l1.6-0.9"/>
<path id="Layer0_6_MEMBER_63_1_STROKES" class="st6" d="M240.2,38.8l1.6-0.9"/>
<path id="Layer0_6_MEMBER_64_1_STROKES" class="st6" d="M260.6,19.2l1.2-0.7"/>
<path id="Layer0_6_MEMBER_65_1_STROKES" class="st6" d="M265.7,26.7l0.2-0.1"/>
<path id="Layer0_6_MEMBER_66_1_STROKES" class="st6" d="M259.2,30.5l0.6-0.4"/>
<path id="Layer0_6_MEMBER_67_1_STROKES" class="st6" d="M254.4,22.9l1.4-0.8"/>
<path id="Layer0_6_MEMBER_68_1_STROKES" class="st6" d="M267,23l21.2-12.2"/>
<path id="Layer0_6_MEMBER_69_1_STROKES" class="st6" d="M265.1,19.6L286,7.5"/>
<path id="Layer0_6_MEMBER_70_1_STROKES" class="st6" d="M264.6,36.3l1.3,1.4"/>
<path id="Layer0_6_MEMBER_71_1_STROKES" class="st6" d="M259.1,30.4l1,1.2"/>
<path id="Layer0_6_MEMBER_72_1_STROKES" class="st6" d="M258.6,42.7l1.3,1.4"/>
<path id="Layer0_6_MEMBER_73_1_STROKES" class="st6" d="M253,36.8l0.9,0.9"/>
<path id="Layer0_6_MEMBER_74_1_STROKES" class="st6" d="M264.7,39.5l1.2,1.3"/>
<path id="Layer0_6_MEMBER_75_1_STROKES" class="st6" d="M277.8,105.5l1.4-0.8"/>
<path id="Layer0_6_MEMBER_76_1_STROKES" class="st6" d="M285,101.4l0.2-0.1"/>
<path id="Layer0_6_MEMBER_77_1_STROKES" class="st6" d="M280.1,93.9l1.2-0.7"/>
<path id="Layer0_6_MEMBER_78_1_STROKES" class="st6" d="M273.8,97.5l1.4-0.8"/>
<path id="Layer0_6_MEMBER_79_1_STROKES" class="st6" d="M204.2,61.5l1.4-0.8"/>
<path id="Layer0_6_MEMBER_80_1_STROKES" class="st6" d="M198.6,64.8l1.4-0.8"/>
<path id="Layer0_6_MEMBER_81_1_STROKES" class="st6" d="M200.2,63.4l3.5-2"/>
<path id="Layer0_6_MEMBER_82_1_STROKES" class="st6" d="M247.4,28l7.3-4.3"/>
<path id="Layer0_6_MEMBER_83_1_STROKES" class="st6" d="M251.5,33.7l1.4,1.5"/>
<path id="Layer0_6_MEMBER_84_1_STROKES" class="st6" d="M256.8,29.4l1.2,1.2"/>
<path id="Layer0_6_MEMBER_85_1_STROKES" class="st6" d="M253,114l5.7-3.3"/>
<path id="Layer0_6_MEMBER_86_1_STROKES" class="st6" d="M224.1,133.7l0.3-0.2"/>
<path id="Layer0_6_MEMBER_87_1_STROKES" class="st6" d="M223.8,124.6l11.5-6.6"/>
<path id="Layer0_6_MEMBER_88_1_STROKES" class="st6" d="M241.7,119.7l0.3,0.7"/>
<path id="Layer0_6_MEMBER_89_1_STROKES" class="st6" d="M241.8,117.1l1.1-0.6"/>
<path id="Layer0_6_MEMBER_90_1_STROKES" class="st6" d="M245.2,123.3l0.9-0.5"/>
<path id="Layer0_6_MEMBER_91_1_STROKES" class="st6" d="M244.2,116.6l0.7-0.4"/>
<path id="Layer0_6_MEMBER_92_1_STROKES" class="st6" d="M246.9,121.5l0.8-0.4"/>
<path id="Layer0_6_MEMBER_93_1_STROKES" class="st6" d="M245.9,116.5l1.3,0.4"/>
<path id="Layer0_6_MEMBER_94_1_STROKES" class="st6" d="M230.6,134.5l10.2-5.9"/>
<path id="Layer0_6_MEMBER_95_1_STROKES" class="st6" d="M217.3,132.6l4.3-2.4"/>
<path id="Layer0_6_MEMBER_96_1_STROKES" class="st6" d="M227.2,128.1l0.3,0.7"/>
<path id="Layer0_6_MEMBER_97_1_STROKES" class="st6" d="M219.7,136.6l4.2-2.4"/>
<path id="Layer0_6_MEMBER_98_1_STROKES" class="st6" d="M252.1,113.6l0.4-0.2"/>
<path id="Layer0_6_MEMBER_99_1_STROKES" class="st6" d="M240.2,120.3l-1-1.1l-1.1-0.8"/>
<path id="Layer0_6_MEMBER_100_1_STROKES" class="st6" d="M240.8,128.7l0.7-0.4c0.7-0.8,1-1.9,0.8-3.4c-0.2-1.2-0.6-2.3-1.2-3.4
	l-0.9-1.3"/>
<path id="Layer0_6_MEMBER_101_1_STROKES" class="st6" d="M238.1,118.4l-1.1-0.5l-1-0.1"/>
<path id="Layer0_6_MEMBER_102_1_STROKES" class="st6" d="M246.1,122.8l0.4-0.2l0.3-0.4l0.2-0.5l0.1-0.6l-0.1-0.9l-0.3-0.9l-0.4-0.9
	l-0.6-0.8l-0.7-0.6l-0.7-0.4l-0.7-0.2l-0.6,0.1"/>
<path id="Layer0_6_MEMBER_103_1_STROKES" class="st6" d="M247,120.6l-0.1-1l-0.5-1l-0.6-0.9L245,117"/>
<path id="Layer0_6_MEMBER_104_1_STROKES" class="st6" d="M247.9,120l-0.1-0.7c-0.1-0.7-0.4-1.3-0.9-1.9c-0.5-0.6-1-1-1.6-1.2l-0.5,0
	"/>
<path id="Layer0_6_MEMBER_105_1_STROKES" class="st6" d="M247.7,121l0.2-0.5l0.1-0.5"/>
<path id="Layer0_6_MEMBER_106_1_STROKES" class="st6" d="M248.2,118.7l-0.1-0.5l-0.2-0.6l-0.4-0.5l-0.4-0.3"/>
<path id="Layer0_6_MEMBER_107_1_STROKES" class="st6" d="M216.4,134.2l0.1,0.7l0.3,0.7l0.5,0.6l0.5,0.4l0.5,0.2l0.5-0.1l0.3-0.4
	l0.1-0.6l-0.1-0.7l-0.3-0.7l-0.5-0.6l-0.5-0.4l-0.5-0.2l-0.5,0.1l-0.3,0.3L216.4,134.2z"/>
<path id="Layer0_6_MEMBER_108_1_STROKES" class="st6" d="M219.9,135.8l-0.1-0.8l-0.4-0.8l-0.5-0.8l-0.7-0.5l-0.7-0.2l-0.5,0.1
	l-0.4,0.4l-0.1,0.7"/>
<path id="Layer0_6_MEMBER_109_1_STROKES" class="st6" d="M219,137l0.4-0.1l0.3-0.3l0.1-0.4l0.1-0.5"/>
<path id="Layer0_6_MEMBER_110_1_STROKES" class="st6" d="M224.2,133.3l-0.2-1.1l-0.6-1.1l-0.8-0.7l-0.5-0.2l-0.4,0"/>
<path id="Layer0_6_MEMBER_111_1_STROKES" class="st6" d="M223.9,134.2l0.2-0.4l0.1-0.5"/>
<path id="Layer0_6_MEMBER_112_1_STROKES" class="st6" d="M224.2,133l-0.1-0.6l-0.2-0.6l-0.7-1"/>
<path id="Layer0_6_MEMBER_113_1_STROKES" class="st6" d="M217.8,133.9l-0.4-0.1l-0.3,0l-0.2,0.3l-0.1,0.4l0.1,0.5l0.5,0.9l0.4,0.3
	l0.4,0.1l0.3-0.1l0.2-0.2l0.1-0.4l-0.1-0.5l-0.5-0.9L217.8,133.9z"/>
<path id="Layer0_6_MEMBER_114_1_STROKES" class="st6" d="M237.2,116.9l-0.3,0l-0.6,0.2"/>
<path id="Layer0_6_MEMBER_115_1_STROKES" class="st6" d="M236.3,117.2h0.3l0.6-0.2"/>
<path id="Layer0_6_MEMBER_116_1_STROKES" class="st6" d="M241.8,119.7l-0.1,0.3l0.2,0.5l0.4,0.3l0.3,0.1l0.1-0.3l-0.2-0.4l-0.4-0.4
	L241.8,119.7z"/>
<path id="Layer0_6_MEMBER_117_1_STROKES" class="st6" d="M243.8,123.6l-0.2,0.3l-0.1,0.5l0.1,0.4l0.2,0.1l0.2-0.3l0.1-0.5l-0.1-0.4
	L243.8,123.6z"/>
<path id="Layer0_6_MEMBER_118_1_STROKES" class="st6" d="M222.6,125.3l-0.3,0l-0.6,0.2"/>
<path id="Layer0_6_MEMBER_119_1_STROKES" class="st6" d="M221.8,125.6h0.3l0.6-0.2"/>
<path id="Layer0_6_MEMBER_120_1_STROKES" class="st6" d="M228.2,129.2l0-0.3l-0.2-0.5l-0.4-0.3l-0.3-0.1l-0.1,0.3l0.2,0.4l0.4,0.4
	L228.2,129.2z"/>
<path id="Layer0_6_MEMBER_121_1_STROKES" class="st6" d="M229.2,133.2l0.2-0.3l0.1-0.5l-0.1-0.4l-0.2-0.1l-0.2,0.3l-0.1,0.5l0.1,0.4
	L229.2,133.2z"/>
<path id="Layer0_6_MEMBER_122_1_STROKES" class="st6" d="M265.5,116.6l1.2-0.2c1.5-0.7,2.3-2.1,2.2-4.1c0-1.8-0.6-3.8-1.8-5.8
	c-1.2-2.1-2.6-3.5-4.1-4.4c-1.8-1-3.3-1-4.7,0l-0.7,1"/>
<path id="Layer0_6_MEMBER_123_1_STROKES" class="st6" d="M268.5,115.4l0.7-0.6c1.8-2,1.7-4.9-0.3-8.6c-2-3.7-4.3-5.6-7-5.7l-1,0.1"
	/>
<path id="Layer0_6_MEMBER_124_1_STROKES" class="st6" d="M266.6,115.9l0.8-0.5c0.9-0.9,1.3-2.3,1.1-4c-0.2-1.6-0.7-3.2-1.7-4.9
	c-1-1.7-2.1-2.9-3.5-3.8c-1.4-0.9-2.8-1.2-4.1-0.7l-0.8,0.6"/>
<path id="Layer0_6_MEMBER_125_1_STROKES" class="st6" d="M257.4,119l0.9,0.4l0.9,0.3l0.8,0.1l0.7-0.1l0.7-0.2l0.6-0.4l0.5-0.5
	l0.4-0.7l0.3-0.8l0.2-1.9l-0.1-1l-0.6-2.2l-1-2.2l-1.4-2l-1.6-1.6l-0.9-0.6l-1.7-0.8l-0.8-0.1h-0.8l-0.7,0.2l-0.6,0.3l-0.5,0.5
	l-0.4,0.6l-0.3,0.8l-0.2,0.9l-0.1,1"/>
<path id="Layer0_6_MEMBER_126_1_STROKES" class="st6" d="M262.8,118.7l0.7-0.5c1.7-2.1,1.6-4.9-0.4-8.7c-1.9-3.7-4.3-5.6-6.9-5.7
	l-1,0.1"/>
<path id="Layer0_6_MEMBER_127_1_STROKES" class="st6" d="M257.4,117.1l1.2,0.5l1.1,0c1.1-0.3,1.7-1.1,1.8-2.4c0.1-1.1,0-2.2-0.5-3.3
	l-0.7-1.6l-1-1.4c-0.7-0.9-1.6-1.6-2.5-2c-1.2-0.5-2.2-0.4-3,0.4l-0.6,1l-0.2,1.3"/>
<path id="Layer0_6_MEMBER_128_1_STROKES" class="st6" d="M255.1,106.7l-0.5,1l-0.1,1.2"/>
<path id="Layer0_6_MEMBER_129_1_STROKES" class="st6" d="M258.8,116.3l1.1,0.5l1.1,0.1"/>
<path id="Layer0_6_MEMBER_130_1_STROKES" class="st6" d="M251.4,113.5l0.6,0.1l0.4-0.2"/>
<path id="Layer0_6_MEMBER_131_1_STROKES" class="st6" d="M252.2,115.3l0.4,0.2h0.4"/>
<path id="Layer0_6_MEMBER_132_1_STROKES" class="st6" d="M251.4,114.1l0.5,0.2h0.5l0.4-0.2l0.3-0.4"/>
<path id="Layer0_6_MEMBER_133_1_STROKES" class="st6" d="M251.5,107.8l-1.4,0.3l-1.3,0.6l-0.7,0.5l-0.5,0.6l-0.3,0.6l-0.2,0.6"/>
<path id="Layer0_6_MEMBER_134_1_STROKES" class="st6" d="M256.8,29.4l-0.5-0.6l-0.8-0.6l-1.5-0.6l-0.8-0.2l-0.7,4.7l-0.4,1.2
	l-0.3,0.5"/>
<path id="Layer0_6_MEMBER_135_1_STROKES" class="st6" d="M200.1,54.2l-0.4-0.6l-0.1-0.2"/>
<path id="Layer0_6_MEMBER_136_1_STROKES" class="st6" d="M194.4,57.5l-0.4-0.6l-0.1-0.2"/>
<path id="Layer0_6_MEMBER_137_1_STROKES" class="st6" d="M194.1,57.6l-0.4-0.6l-0.1-0.2"/>
<path id="Layer0_6_MEMBER_138_1_STROKES" class="st6" d="M203.7,61.4l0.3-0.3c0.5-0.8,0.5-1.9,0-3.1c-0.5-1.2-1.2-2-2-2.5l-0.8-0.3"
	/>
<path id="Layer0_6_MEMBER_139_1_STROKES" class="st6" d="M202.8,62h0.7l0.5-0.2l0.4-0.5l0.2-0.6l0.1-0.8l-0.1-0.9l-0.3-0.9l-0.5-1
	l-0.6-0.8l-0.7-0.7l-0.7-0.5l-0.7-0.3"/>
<path id="Layer0_6_MEMBER_140_1_STROKES" class="st6" d="M205.6,60.8l0.4-0.7c0.3-1,0.1-2.1-0.5-3.4c-0.6-1.2-1.4-2-2.3-2.5
	l-0.7-0.3"/>
<path id="Layer0_6_MEMBER_141_1_STROKES" class="st6" d="M200,64l0.3-0.6c0.3-1,0.2-2.1-0.5-3.4c-0.6-1.2-1.4-2.1-2.3-2.5l-0.7-0.3"
	/>
<path id="Layer0_6_MEMBER_142_1_STROKES" class="st6" d="M195.4,64.3l1,0.7l1,0.3l0.8-0.2l0.6-0.6l0.2-1l-0.1-1.2l-0.3-1l-0.4-0.9
	l-1.3-1.5l-0.8-0.5l-0.7-0.3"/>
<path id="Layer0_6_MEMBER_143_1_STROKES" class="st6" d="M194.6,48.7l-0.7,0.5l-0.7,0.7l-0.6,0.8l-0.4,0.9"/>
<path id="Layer0_6_MEMBER_144_1_STROKES" class="st6" d="M197.8,48.3l-0.7-0.2l-0.8,0l-0.8,0.1l-0.7,0.3"/>
<path id="Layer0_6_MEMBER_145_1_STROKES" class="st6" d="M198.5,48.5l-0.7-0.2l-0.8-0.1l-0.8,0.2l-0.8,0.3"/>
<path id="Layer0_6_MEMBER_146_1_STROKES" class="st6" d="M195.2,48.8l-0.7,0.5l-1.2,1.5l-0.5,0.9"/>
<path id="Layer0_6_MEMBER_147_1_STROKES" class="st6" d="M286.6,97.3l-0.2-1.1l-0.6-1l-0.8-0.8l-0.4-0.2l-0.4,0"/>
<path id="Layer0_6_MEMBER_148_1_STROKES" class="st6" d="M286.3,98.1l0.2-0.4l0.1-0.4"/>
<path id="Layer0_6_MEMBER_149_1_STROKES" class="st6" d="M272.8,98.4l-0.2,0.6l-0.1,0.7l0.3,1.5l0.7,1.6l1,1.4l1.2,1l0.6,0.3
	l0.6,0.1l0.6,0l0.5-0.2l0.4-0.3l0.3-0.5l0.2-0.6l0.1-0.7l-0.2-1.5l-0.7-1.6l-1-1.4l-1.2-1l-0.6-0.3l-0.6-0.1l-0.5,0l-0.5,0.2
	l-0.4,0.3L272.8,98.4z"/>
<path id="Layer0_6_MEMBER_150_1_STROKES" class="st6" d="M280.4,102.5l-0.1-1.1c-0.2-1.1-0.7-2.1-1.5-3.1c-0.9-1.1-1.8-1.7-2.8-1.8
	l-0.8,0.1"/>
<path id="Layer0_6_MEMBER_151_1_STROKES" class="st6" d="M279.2,104.7l0.5-0.3l0.4-0.5l0.2-0.6l0.1-0.8"/>
<path id="Layer0_6_MEMBER_152_1_STROKES" class="st6" d="M280.5,102.6v-2.1"/>
<path id="Layer0_6_MEMBER_153_1_STROKES" class="st6" d="M279,104.8l1.5-0.1"/>
<path id="Layer0_6_MEMBER_154_1_STROKES" class="st6" d="M192.2,51.6l0.7,0.1"/>
<path id="Layer0_6_MEMBER_155_1_STROKES" class="st6" d="M197.8,48.3l0.7,0.1"/>
<path id="Layer0_6_MEMBER_156_1_STROKES" class="st6" d="M194.4,59.5l1.3,0.3"/>
<path id="Layer0_6_MEMBER_157_1_STROKES" class="st6" d="M197.5,63l0.1-0.2"/>
<path id="Layer0_6_MEMBER_158_1_STROKES" class="st6" d="M197.6,62.1l-0.1-0.3"/>
<path id="Layer0_6_MEMBER_159_1_STROKES" class="st6" d="M197.4,61.3l-0.2-0.4"/>
<path id="Layer0_6_MEMBER_160_1_STROKES" class="st6" d="M196.8,60.4l-0.3-0.3"/>
<path id="Layer0_6_MEMBER_161_1_STROKES" class="st6" d="M196.1,59.9l-0.3-0.1"/>
<path id="Layer0_6_MEMBER_162_1_STROKES" class="st6" d="M194.4,59.5l0.2,0.8"/>
<path id="Layer0_6_MEMBER_163_1_STROKES" class="st6" d="M193.1,59.2l0.9-0.5"/>
<path id="Layer0_6_MEMBER_164_1_STROKES" class="st6" d="M193.1,59.2l0.4,1.7"/>
<path id="Layer0_6_MEMBER_165_1_STROKES" class="st6" d="M193.1,59.2l1.3,0.3"/>
<path id="Layer0_6_MEMBER_166_1_STROKES" class="st6" d="M194.1,58.9l0.2,0.1"/>
<path id="Layer0_6_MEMBER_167_1_STROKES" class="st6" d="M194,57.7l1.4-0.8"/>
<path id="Layer0_6_MEMBER_168_1_STROKES" class="st6" d="M194,57.7l0.4,1.8"/>
<path id="Layer0_6_MEMBER_169_1_STROKES" class="st6" d="M194,57.7l1.3,0.3"/>
<path id="Layer0_6_MEMBER_170_1_STROKES" class="st6" d="M195.4,56.9l1.4,0.3"/>
<path id="Layer0_6_MEMBER_171_1_STROKES" class="st6" d="M199.7,54.4l1.4-0.8l1.3,0.3"/>
<path id="Layer0_6_MEMBER_172_1_STROKES" class="st6" d="M199.7,54.4l1.4,0.3"/>
<path id="Layer0_6_MEMBER_173_1_STROKES" class="st6" d="M199.7,54.4l0.1,0.4l1.3,0.3"/>
<path id="Layer0_6_MEMBER_174_1_STROKES" class="st6" d="M193.6,56.8l0.2,0.7"/>
<path id="Layer0_6_MEMBER_175_1_STROKES" class="st6" d="M195.2,48.8l0.2-0.1"/>
<path id="Layer0_6_MEMBER_176_1_STROKES" class="st6" d="M192.8,51.7l1.1,4.9"/>
<path id="Layer0_6_MEMBER_177_1_STROKES" class="st6" d="M198.5,48.5l1.1,4.9"/>
<path id="Layer0_6_MEMBER_178_1_STROKES" class="st6" d="M194.6,48.7l0.2-0.1"/>
<path id="Layer0_6_MEMBER_179_1_STROKES" class="st6" d="M192.2,51.6l1.3,5.8"/>
<path id="Layer0_6_MEMBER_180_1_STROKES" class="st6" d="M250.9,34.1l0.6-0.3"/>
<path id="Layer0_6_MEMBER_181_1_STROKES" class="st6" d="M257.6,30.2L258,30"/>
<path id="Layer0_6_MEMBER_182_1_STROKES" class="st6" d="M247.1,112.3v-1.3"/>
<path id="Layer0_6_MEMBER_183_1_STROKES" class="st6" d="M258.7,110.7l0.1-0.2"/>
<path id="Layer0_6_MEMBER_184_1_STROKES" class="st6" d="M251.4,114.1l0.8,0.5"/>
<path id="Layer0_6_MEMBER_185_1_STROKES" class="st6" d="M257.9,111.3l0.5,0.1"/>
<path id="Layer0_6_MEMBER_186_1_STROKES" class="st6" d="M252.2,114.6l0.5,0.1"/>
<path id="Layer0_6_MEMBER_187_1_STROKES" class="st6" d="M258.8,111.3l-0.4,0.1"/>
<path id="Layer0_6_MEMBER_188_1_STROKES" class="st6" d="M253.1,114.7l-0.4,0"/>
<path id="Layer0_6_MEMBER_189_1_STROKES" class="st6" d="M247.1,112.3l5.2,3"/>
<path id="Layer0_6_MEMBER_190_1_STROKES" class="st6" d="M247.1,110.9l4.4,2.5"/>
<path id="Layer0_6_MEMBER_191_1_STROKES" class="st6" d="M253.1,113.8l1.4-0.8v-4"/>
<path id="Layer0_6_MEMBER_192_1_STROKES" class="st6" d="M253.1,113.8v-4.1"/>
<path id="Layer0_6_MEMBER_193_1_STROKES" class="st6" d="M251.5,112.8l1.6,1"/>
<path id="Layer0_6_MEMBER_194_1_STROKES" class="st6" d="M251.5,112.8v-4"/>
<path id="Layer0_6_MEMBER_195_1_STROKES" class="st6" d="M253.9,104.7l1.4-0.8"/>
<path id="Layer0_6_MEMBER_196_1_STROKES" class="st6" d="M261.1,119.6l1.7-0.9"/>
<path id="Layer0_6_MEMBER_197_1_STROKES" class="st6" d="M253.1,116.6l4.3,2.4"/>
<path id="Layer0_6_MEMBER_198_1_STROKES" class="st6" d="M253.1,114.7l1.4-0.8"/>
<path id="Layer0_6_MEMBER_199_1_STROKES" class="st6" d="M253.1,116.6v-1.9"/>
<path id="Layer0_6_MEMBER_200_1_STROKES" class="st6" d="M254.5,113.9l4.3,2.5"/>
<path id="Layer0_6_MEMBER_201_1_STROKES" class="st6" d="M253.1,114.7l4.3,2.4"/>
<path id="Layer0_6_MEMBER_202_1_STROKES" class="st6" d="M258.8,112l2.6,1.5"/>
<path id="Layer0_6_MEMBER_203_1_STROKES" class="st6" d="M264,117.4l2.6-1.5"/>
<path id="Layer0_6_MEMBER_204_1_STROKES" class="st6" d="M256.4,103.9l3.4-2"/>
<path id="Layer0_6_MEMBER_205_1_STROKES" class="st6" d="M258.3,110.2V108"/>
<path id="Layer0_6_MEMBER_206_1_STROKES" class="st6" d="M258.8,110.5l1.1-0.6"/>
<path id="Layer0_6_MEMBER_207_1_STROKES" class="st6" d="M258.8,110.5v-2.1"/>
<path id="Layer0_6_MEMBER_208_1_STROKES" class="st6" d="M258.3,110.2l0.5,0.3"/>
<path id="Layer0_6_MEMBER_209_1_STROKES" class="st6" d="M259.6,101.4l1.4-0.8"/>
<path id="Layer0_6_MEMBER_210_1_STROKES" class="st6" d="M266.8,116.3l1.7-0.9"/>
<path id="Layer0_6_MEMBER_211_1_STROKES" class="st6" d="M258.8,111.4l1.4-0.8"/>
<path id="Layer0_6_MEMBER_212_1_STROKES" class="st6" d="M258.8,112v-0.6"/>
<path id="Layer0_6_MEMBER_213_1_STROKES" class="st6" d="M260.2,110.6l0.3,0.2"/>
<path id="Layer0_6_MEMBER_214_1_STROKES" class="st6" d="M258.8,111.4l2.5,1.5"/>
<path id="Layer0_6_MEMBER_215_1_STROKES" class="st6" d="M224.2,133.3l0.1-0.3"/>
<path id="Layer0_6_MEMBER_216_1_STROKES" class="st6" d="M222.5,130.4l0.8,0.5"/>
<path id="Layer0_6_MEMBER_217_1_STROKES" class="st6" d="M221.6,130.1l0.8,0.2"/>
<path id="Layer0_6_MEMBER_218_1_STROKES" class="st6" d="M216.4,134.2l0.1-0.3"/>
<path id="Layer0_6_MEMBER_219_1_STROKES" class="st6" d="M218.3,136.8l0.8,0.2"/>
<path id="Layer0_6_MEMBER_220_1_STROKES" class="st6" d="M247.9,120l0.3-1.3"/>
<path id="Layer0_6_MEMBER_221_1_STROKES" class="st6" d="M247,121.1v-0.5"/>
<path id="Layer0_6_MEMBER_222_1_STROKES" class="st6" d="M235.9,117.8l-0.6,0.1"/>
<path id="Layer0_6_MEMBER_223_1_STROKES" class="st6" d="M241.7,128.7l2.8-1.6"/>
<path id="Layer0_6_MEMBER_224_1_STROKES" class="st6" d="M242.3,127.8l2.8-1.6"/>
<path id="Layer0_6_MEMBER_225_1_STROKES" class="st6" d="M242.3,123.8l2.8-1.6"/>
<path id="Layer0_6_MEMBER_226_1_STROKES" class="st6" d="M238.7,118.4l2.8-1.6"/>
<path id="Layer0_6_MEMBER_227_1_STROKES" class="st6" d="M241.7,122.2l2.8-1.6"/>
<path id="Layer0_6_MEMBER_228_1_STROKES" class="st6" d="M237.4,117.7l2.8-1.6"/>
<path id="Layer0_6_MEMBER_229_1_STROKES" class="st6" d="M234.4,118l2.8-1.6"/>
<path id="Layer0_6_MEMBER_230_1_STROKES" class="st6" d="M244.6,127.1l0.6-0.9"/>
<path id="Layer0_6_MEMBER_231_1_STROKES" class="st6" d="M241.5,116.8l-1.2-0.7"/>
<path id="Layer0_6_MEMBER_232_1_STROKES" class="st6" d="M245.2,122.1l-0.6-1.6"/>
<path id="Layer0_6_MEMBER_233_1_STROKES" class="st6" d="M241.7,128.7l0.6-0.9"/>
<path id="Layer0_6_MEMBER_234_1_STROKES" class="st6" d="M238.1,118l-0.6-0.3"/>
<path id="Layer0_6_MEMBER_235_1_STROKES" class="st6" d="M234.4,118l-0.6,0.9"/>
<path id="Layer0_6_MEMBER_236_1_STROKES" class="st6" d="M242.3,123.8l-0.6-1.6"/>
<path id="Layer0_6_MEMBER_237_1_STROKES" class="st6" d="M240.6,128.8l1.1-0.1"/>
<path id="Layer0_6_MEMBER_238_1_STROKES" class="st6" d="M245.2,126.2v-4"/>
<path id="Layer0_6_MEMBER_239_1_STROKES" class="st6" d="M242.3,125.8v-2"/>
<path id="Layer0_6_MEMBER_240_1_STROKES" class="st6" d="M286.5,99.1l-0.1-1.1c-0.2-1.1-0.7-2.1-1.5-3.1c-0.9-1.1-1.8-1.7-2.8-1.8
	l-0.8,0.1"/>
<path id="Layer0_6_MEMBER_241_1_STROKES" class="st6" d="M285.2,101.3l0.5-0.3l0.4-0.5l0.2-0.6l0.1-0.8"/>
<path id="Layer0_6_MEMBER_242_1_STROKES" class="st6" d="M264.7,39.5l-0.1-0.2l-0.4,0l-0.6,0.3l-0.7,0.5l-1.3,1.3l-0.3,0.6l-0.1,0.4
	"/>
<path id="Layer0_6_MEMBER_243_1_STROKES" class="st6" d="M262.6,44l0.2,0.2l0.5-0.1"/>
<path id="Layer0_6_MEMBER_244_1_STROKES" class="st6" d="M266.2,41.1l-0.2-0.2h-0.4l-0.6,0.3l-0.7,0.5l-1.2,1.3l-0.4,0.6l-0.1,0.5"
	/>
<path id="Layer0_6_MEMBER_245_1_STROKES" class="st6" d="M252.6,36.3l0.1,0.3l0.3,0.2"/>
<path id="Layer0_6_MEMBER_246_1_STROKES" class="st6" d="M259.1,30.4l-0.7,0.1c-0.9,0.2-2,0.9-3.3,2.1c-1.2,1.1-2,2.2-2.4,3.1
	l-0.2,0.7"/>
<path id="Layer0_6_MEMBER_247_1_STROKES" class="st6" d="M258.2,42.3l0.1,0.3l0.3,0.2"/>
<path id="Layer0_6_MEMBER_248_1_STROKES" class="st6" d="M264.6,36.3l-0.7,0.1c-1,0.4-2.1,1.1-3.3,2.1c-1.1,1.1-1.9,2.1-2.4,3.1
	l-0.1,0.7"/>
<path id="Layer0_6_MEMBER_249_1_STROKES" class="st6" d="M259.5,43.7l0.2,0.4l0.5,0.1l0.8-0.2l1-0.6"/>
<path id="Layer0_6_MEMBER_250_1_STROKES" class="st6" d="M265.4,40.2l0.7-1.2l0.2-0.9l-0.1-0.3l-0.2-0.2l-0.3,0l-0.9,0.3l-0.6,0.3
	l-1.3,0.9l-1.3,1.2l-1.1,1.3l-0.7,1.1l-0.2,0.9"/>
<path id="Layer0_6_MEMBER_251_1_STROKES" class="st6" d="M294.3,6.1l-2-0.2L290,6.1l-2.2,0.5L286,7.5"/>
<path id="Layer0_6_MEMBER_252_1_STROKES" class="st6" d="M185.3,69.2l1.7-0.4l2.6-1.1"/>
<path id="Layer0_6_MEMBER_253_1_STROKES" class="st6" d="M266.9,23.4l0.2-0.4c0.2-0.6,0-1.3-0.4-2.1c-0.4-0.8-1-1.3-1.6-1.5l-0.4,0"
	/>
<path id="Layer0_6_MEMBER_254_1_STROKES" class="st6" d="M259.6,28.7l-0.2-1.5l-0.7-1.5l-0.9-1.4l-1.2-1L256,23l-0.5-0.2l-0.6,0
	l-0.5,0.1l-0.4,0.3l-0.3,0.4l-0.2,0.5l-0.1,0.6"/>
<path id="Layer0_6_MEMBER_255_1_STROKES" class="st6" d="M259.1,30.5l0.4-0.7l0.2-1"/>
<path id="Layer0_6_MEMBER_256_1_STROKES" class="st6" d="M259.8,30.1l0.5-0.3l0.4-0.5l0.2-0.6l0.1-0.8l-0.1-1.1l-0.4-1.1l-0.6-1.1
	l-0.7-1l-0.9-0.8l-0.9-0.6l-0.8-0.2l-0.8,0.1"/>
<path id="Layer0_6_MEMBER_257_1_STROKES" class="st6" d="M267,24.4l-0.1-1.1c-0.2-1-0.7-2.1-1.5-3.1c-0.9-1.1-1.8-1.7-2.8-1.8
	l-0.8,0.1"/>
<path id="Layer0_6_MEMBER_258_1_STROKES" class="st6" d="M265.8,26.6l0.5-0.3l0.4-0.5l0.2-0.7l0.1-0.8"/>
<path id="Layer0_6_MEMBER_259_1_STROKES" class="st6" d="M241.8,37.9l0.1-0.4c0.2-0.6,0.1-1.3-0.4-2.1c-0.5-0.8-1-1.3-1.6-1.4
	l-0.4,0"/>
<path id="Layer0_6_MEMBER_260_1_STROKES" class="st6" d="M239.2,39.2l0.5,0L240,39l0.3-0.4l0.1-0.6l-0.1-0.8l-0.3-0.8l-0.5-0.7
	l-0.6-0.5l-0.6-0.3l-0.5,0l-0.4,0.2l-0.3,0.5"/>
<path id="Layer0_6_MEMBER_261_1_STROKES" class="st6" d="M251,33.7l-0.1-1.1c-0.2-1.1-0.7-2.1-1.5-3.1c-0.9-1.1-1.8-1.7-2.8-1.8
	l-0.8,0.1"/>
<path id="Layer0_6_MEMBER_262_1_STROKES" class="st6" d="M249.8,35.9l0.5-0.3l0.4-0.5l0.2-0.6l0.1-0.8"/>
<path id="Layer0_6_MEMBER_263_1_STROKES" class="st6" d="M245,37.1l-0.1-1.1c-0.3-1.1-0.8-2.1-1.5-3.1c-0.8-1.1-1.8-1.7-2.8-1.8
	l-0.8,0.1"/>
<path id="Layer0_6_MEMBER_264_1_STROKES" class="st6" d="M243.8,39.3l0.5-0.3l0.4-0.5l0.2-0.7l0.1-0.8"/>
<path id="Layer0_6_MEMBER_265_1_STROKES" class="st6" d="M239.5,39.2l0.7,0.5l0.7,0.4l0.7,0.1l0.7-0.1l0.5-0.3l0.4-0.5l0.3-0.6
	l0.1-0.8l-0.3-1.5l-0.7-1.6l-1-1.4l-1.2-1l-0.6-0.3l-0.6-0.1h-0.6l-0.5,0.2l-0.4,0.3l-0.3,0.5l-0.2,0.6l0,0.7"/>
<path id="Layer0_6_MEMBER_266_1_STROKES" class="st6" d="M296.2,87l0.5-0.7c0.9-1.6,1-3.4,0.1-5.5l-0.5-1"/>
<path id="Layer0_6_MEMBER_267_1_STROKES" class="st6" d="M296.7,91.8l1.5-1.2c1.4-1.2,2.3-2.7,2.8-4.6c0.4-1.9,0.3-3.7-0.3-5.4
	l-0.8-2.1l-2.3-3.1"/>
<path id="Layer0_6_MEMBER_268_1_STROKES" class="st6" d="M197.9,40.8l0.6-0.4l0.2-0.4l-0.2-0.3l-0.5-0.2"/>
<path id="Layer0_6_MEMBER_269_1_STROKES" class="st6" d="M197.6,39.6l0.3,0.1l0.2,0.2l0,0.2l-0.2,0.3l-0.4,0.2"/>
<path id="Layer0_6_MEMBER_270_1_STROKES" class="st6" d="M191.8,58.4l0.2,0.7l0.4,0.6l0.5,0.4l0.5,0.3"/>
<path id="Layer0_6_MEMBER_271_1_STROKES" class="st6" d="M191.3,58.3l0.5,1.2l0.4,0.4l0.5,0.3"/>
<path id="Layer0_6_MEMBER_272_1_STROKES" class="st6" d="M191.7,44.4l-1,0.8l-0.7,1.2l-0.4,1.5l0.1,1.4"/>
<path id="Layer0_6_MEMBER_273_1_STROKES" class="st6" d="M191.2,44.3l-1,0.9l-0.7,1.3l-0.4,1.5l0.1,1.4"/>
<path id="Layer0_6_MEMBER_274_1_STROKES" class="st6" d="M191.7,37.9l-0.5,0l-0.5,0.1"/>
<path id="Layer0_6_MEMBER_275_1_STROKES" class="st6" d="M191.2,38.2l-0.5,0c-0.4,0-0.8,0.2-1,0.5c-0.2,0.3-0.4,0.7-0.4,1.1l0.1,1.3
	"/>
<path id="Layer0_6_MEMBER_276_1_STROKES" class="st6" d="M249.6,110.3l-0.4,0.4l-0.1,0.3l0.1,0.2"/>
<path id="Layer0_6_MEMBER_277_1_STROKES" class="st6" d="M251.5,109.9l-0.3-0.1l-1,0l-0.9,0.3l-0.3,0.3l-0.2,0.2"/>
<path id="Layer0_6_MEMBER_278_1_STROKES" class="st6" d="M251.5,109.3l-0.8-0.1l-0.8,0.1l-0.6,0.2l-0.4,0.4l-0.1,0.4l0.1,0.5
	l0.4,0.4"/>
<path id="Layer0_6_MEMBER_279_1_STROKES" class="st6" d="M251.5,110.1l-1-0.1l-0.8,0.3"/>
<path id="Layer0_6_MEMBER_280_1_STROKES" class="st6" d="M249.2,111.2l0.6,0.2l0.8,0.1l0.8-0.1"/>
<path id="Layer0_6_MEMBER_281_1_STROKES" class="st6" d="M246.4,77.2l0,0.3c0.3,1.5,1.8,2.2,4.4,2.2c2.6-0.1,3.9-0.9,4.1-2.4"/>
<path id="Layer0_6_MEMBER_282_1_STROKES" class="st6" d="M247.7,73.4l-0.2,0.1c-0.6,0.4-0.9,0.8-1,1.3l0,0.3"/>
<path id="Layer0_6_MEMBER_283_1_STROKES" class="st6" d="M254.9,75.1l0-0.2c0-0.3-0.3-0.7-0.7-1.2"/>
<path id="Layer0_6_MEMBER_284_1_STROKES" class="st6" d="M248.4,77.5c1.5-0.5,3-0.5,4.5,0"/>
<path id="Layer0_6_MEMBER_285_1_STROKES" class="st6" d="M254.9,75.1l-0.2,0.2c-0.6,0.5-1.2,1.2-1.5,1.9l-0.1,0.3"/>
<path id="Layer0_6_MEMBER_286_1_STROKES" class="st6" d="M246.4,75.1l0.2,0.2c0.6,0.5,1.1,1.2,1.5,1.9l0.1,0.3"/>
<path id="Layer0_6_MEMBER_287_1_STROKES" class="st6" d="M246.1,99l0,0.3c0.4,1.6,1.9,2.4,4.6,2.4c2.7,0,4.2-0.8,4.5-2.4l0-0.2"/>
<path id="Layer0_6_MEMBER_288_1_STROKES" class="st6" d="M253.3,97.8c-0.2-0.9-1.1-1.4-2.6-1.4c-1.6,0-2.5,0.4-2.8,1.3l-0.1,0.3
	l0.1,0.3c0.3,0.9,1.3,1.3,2.8,1.2c1.6,0,2.4-0.5,2.6-1.4l0-0.2L253.3,97.8z"/>
<path id="Layer0_6_MEMBER_289_1_STROKES" class="st6" d="M255.2,99.1v-0.8"/>
<path id="Layer0_6_MEMBER_290_1_STROKES" class="st6" d="M246.1,99v-0.7"/>
<path id="Layer0_6_MEMBER_291_1_STROKES" class="st6" d="M254.9,75.1v2.1"/>
<path id="Layer0_6_MEMBER_292_1_STROKES" class="st6" d="M246.4,75.1v2.1"/>
<path id="Layer0_6_MEMBER_293_1_STROKES" class="st6" d="M248.3,77.5v1.8"/>
<path id="Layer0_6_MEMBER_294_1_STROKES" class="st6" d="M253,77.5v1.8"/>
<path id="Layer0_6_MEMBER_295_1_STROKES" class="st6" d="M294.1,9.9l9.5,1.2"/>
<path id="Layer0_6_MEMBER_296_1_STROKES" class="st6" d="M294.3,6.1l9.3,1.2"/>
<path id="Layer0_6_MEMBER_297_1_STROKES" class="st6" d="M158.6,70.5l11.9-0.6"/>
<path id="Layer0_6_MEMBER_298_1_STROKES" class="st6" d="M158.6,70.6l11.9-0.7"/>
<path id="Layer0_6_MEMBER_299_1_STROKES" class="st6" d="M158.6,66.6l26-1.4"/>
<path id="Layer0_6_MEMBER_300_1_STROKES" class="st6" d="M191.2,44.3l6.2-3.6"/>
<path id="Layer0_6_MEMBER_301_1_STROKES" class="st6" d="M189.3,49.3l2,9"/>
<path id="Layer0_6_MEMBER_302_1_STROKES" class="st6" d="M191.2,38.2l6.3,1.4"/>
<path id="Layer0_6_MEMBER_303_1_STROKES" class="st6" d="M189.4,41.1l0.9,4.1"/>
<path id="Layer0_6_MEMBER_304_1_STROKES" class="st6" d="M191.7,44.4l6.2-3.6"/>
<path id="Layer0_6_MEMBER_305_1_STROKES" class="st6" d="M189.8,49.5l2,8.9"/>
<path id="Layer0_6_MEMBER_306_1_STROKES" class="st6" d="M191.7,37.9l6.3,1.5"/>
<path id="Layer0_6_MEMBER_307_1_STROKES" class="st6" d="M190.3,38.2l0.4-0.3"/>
<path id="Layer0_6_MEMBER_308_1_STROKES" class="st6" d="M192.7,60.3l0.4,0.1"/>
<path id="Layer0_6_MEMBER_309_1_STROKES" class="st6" d="M198.6,39.7l3.2,14"/>
<path id="Layer0_6_MEMBER_310_1_STROKES" class="st6" d="M294.6,88.4l1.6-1.3"/>
<path id="Layer0_6_MEMBER_311_1_STROKES" class="st6" d="M294.8,77.9l1.4,2"/>
<path id="Layer0_6_MEMBER_312_1_STROKES" class="st6" d="M297,85.8l0.3-0.5"/>
<path id="Layer0_6_MEMBER_313_1_STROKES" class="st6" d="M237.1,34.3l0.1,1"/>
<path id="Layer0_6_MEMBER_314_1_STROKES" class="st6" d="M238.5,31.3l4.6-2.6"/>
<path id="Layer0_6_MEMBER_315_1_STROKES" class="st6" d="M241.8,31l4.6-2.6"/>
<path id="Layer0_6_MEMBER_316_1_STROKES" class="st6" d="M238.5,31.3l3.3-0.3"/>
<path id="Layer0_6_MEMBER_317_1_STROKES" class="st6" d="M243.1,28.6l3.2-0.3"/>
<path id="Layer0_6_MEMBER_318_1_STROKES" class="st6" d="M238.5,32v-0.7"/>
<path id="Layer0_6_MEMBER_319_1_STROKES" class="st6" d="M245,39.3l4.6-2.6"/>
<path id="Layer0_6_MEMBER_320_1_STROKES" class="st6" d="M243.6,39.5l1.4-0.2"/>
<path id="Layer0_6_MEMBER_321_1_STROKES" class="st6" d="M245,35l4.6-2.6"/>
<path id="Layer0_6_MEMBER_322_1_STROKES" class="st6" d="M245,37.2V35"/>
<path id="Layer0_6_MEMBER_323_1_STROKES" class="st6" d="M245,39.3v-2.1"/>
<path id="Layer0_6_MEMBER_324_1_STROKES" class="st6" d="M249.6,34.5v-2.1"/>
<path id="Layer0_6_MEMBER_325_1_STROKES" class="st6" d="M249.6,36.7v-2.2"/>
<path id="Layer0_6_MEMBER_326_1_STROKES" class="st6" d="M241.8,31l3.2,4"/>
<path id="Layer0_6_MEMBER_327_1_STROKES" class="st6" d="M246.4,28.3l3.3,4"/>
<path id="Layer0_6_MEMBER_328_1_STROKES" class="st6" d="M261,25.8l4.6-2.7"/>
<path id="Layer0_6_MEMBER_329_1_STROKES" class="st6" d="M257.8,21.7l4.6-2.6l3.3,4"/>
<path id="Layer0_6_MEMBER_330_1_STROKES" class="st6" d="M257.8,21.7l3.2,4.1"/>
<path id="Layer0_6_MEMBER_331_1_STROKES" class="st6" d="M261,30.1l4.6-2.6v-4.3"/>
<path id="Layer0_6_MEMBER_332_1_STROKES" class="st6" d="M261,27.9v-2.1"/>
<path id="Layer0_6_MEMBER_333_1_STROKES" class="st6" d="M261,30.1v-2.1"/>
<path id="Layer0_6_MEMBER_334_1_STROKES" class="st6" d="M259.6,30.2l1.4-0.1"/>
<path id="Layer0_6_MEMBER_335_1_STROKES" class="st6" d="M254.6,22l4.6-2.6"/>
<path id="Layer0_6_MEMBER_336_1_STROKES" class="st6" d="M254.6,22.7V22"/>
<path id="Layer0_6_MEMBER_337_1_STROKES" class="st6" d="M259.2,19.4l3.2-0.3"/>
<path id="Layer0_6_MEMBER_338_1_STROKES" class="st6" d="M254.6,22l3.2-0.3"/>
<path id="Layer0_6_MEMBER_339_1_STROKES" class="st6" d="M187.2,64.5l8.3-4.8"/>
<path id="Layer0_6_MEMBER_340_1_STROKES" class="st6" d="M204,54.8l33.8-19.5"/>
<path id="Layer0_6_MEMBER_341_1_STROKES" class="st6" d="M206,58.2l33.6-19.4"/>
<path id="Layer0_6_MEMBER_342_1_STROKES" class="st6" d="M189.6,67.7l7.7-4.5"/>
<path id="Layer0_6_MEMBER_343_1_STROKES" class="st6" d="M185.9,65.1l0.8-0.3l0.6-0.3"/>
<path id="Layer0_6_MEMBER_344_1_STROKES" class="st6" d="M184.7,65.3l1.2-0.2"/>
<path id="Layer0_6_MEMBER_345_1_STROKES" class="st6" d="M170.5,69.9l14.8-0.8"/>
<path id="Layer0_6_MEMBER_346_1_STROKES" class="st6" d="M291.8,9.8l0.2,0"/>
<path id="Layer0_6_MEMBER_347_1_STROKES" class="st6" d="M289.8,10.1l1.9-0.3"/>
<path id="Layer0_6_MEMBER_348_1_STROKES" class="st6" d="M288.2,10.8l1.6-0.7"/>
<path id="Layer0_6_MEMBER_349_1_STROKES" class="st6" d="M291.8,9.8l2.3,0.1"/>
<path id="Layer0_6_MEMBER_350_1_STROKES" class="st6" d="M253.8,36.8l4.2,4.6"/>
<path id="Layer0_6_MEMBER_351_1_STROKES" class="st6" d="M257.3,33l4.2,4.5"/>
<path id="Layer0_6_MEMBER_352_1_STROKES" class="st6" d="M258.1,41.3l3.4-3.8"/>
<path id="Layer0_6_MEMBER_353_1_STROKES" class="st6" d="M253.8,36.8l3.4-3.8"/>
<path id="Layer0_6_MEMBER_354_1_STROKES" class="st6" d="M253.9,38.8l4.2,4.6"/>
<path id="Layer0_6_MEMBER_355_1_STROKES" class="st6" d="M258.1,41.3l0.1,2"/>
<path id="Layer0_6_MEMBER_356_1_STROKES" class="st6" d="M253.8,36.8l0.1,2"/>
<path id="Layer0_6_MEMBER_357_1_STROKES" class="st6" d="M258.2,43.3l0.6-0.3"/>
<path id="Layer0_6_MEMBER_358_1_STROKES" class="st6" d="M260.8,31.2l4.2,4.5"/>
<path id="Layer0_6_MEMBER_359_1_STROKES" class="st6" d="M265,35.7l0.1,1"/>
<path id="Layer0_6_MEMBER_360_1_STROKES" class="st6" d="M261.5,37.5l3.5-1.8"/>
<path id="Layer0_6_MEMBER_361_1_STROKES" class="st6" d="M257.3,33l3.5-1.8"/>
<path id="Layer0_6_MEMBER_362_1_STROKES" class="st6" d="M266.1,41.5l0.1-0.4"/>
<path id="Layer0_6_MEMBER_363_1_STROKES" class="st6" d="M261.1,42.4l1.5,1.6"/>
<path id="Layer0_6_MEMBER_364_1_STROKES" class="st6" d="M274,96.7l4.6-2.6"/>
<path id="Layer0_6_MEMBER_365_1_STROKES" class="st6" d="M274,97.4v-0.7"/>
<path id="Layer0_6_MEMBER_366_1_STROKES" class="st6" d="M277.2,96.4l4.6-2.7"/>
<path id="Layer0_6_MEMBER_367_1_STROKES" class="st6" d="M278.6,94l3.2-0.3"/>
<path id="Layer0_6_MEMBER_368_1_STROKES" class="st6" d="M274,96.7l3.2-0.3"/>
<path id="Layer0_6_MEMBER_369_1_STROKES" class="st6" d="M280.5,100.4l4.6-2.7"/>
<path id="Layer0_6_MEMBER_370_1_STROKES" class="st6" d="M281.8,93.7l3.3,4"/>
<path id="Layer0_6_MEMBER_371_1_STROKES" class="st6" d="M277.2,96.4l3.3,4"/>
<path id="Layer0_6_MEMBER_372_1_STROKES" class="st6" d="M280.5,104.7l4.6-2.6"/>
<path id="Layer0_6_MEMBER_373_1_STROKES" class="st6" d="M285,99.9v-2.2"/>
<path id="Layer0_6_MEMBER_374_1_STROKES" class="st6" d="M285,102.1v-2.1"/>
<path id="Layer0_6_MEMBER_375_1_STROKES" class="st6" d="M280.5,104.7v-2.1"/>
<path id="Layer0_6_MEMBER_376_1_STROKES" class="st6" d="M252.7,92.3c-0.1,0.8-0.8,1.2-2.2,1.2c-1.3,0-2.1-0.4-2.1-1.2"/>
<path id="Layer0_6_MEMBER_377_1_STROKES" class="st6" d="M252.9,98.2c-0.5-0.4-1.3-0.6-2.2-0.7c-0.9,0-1.6,0.2-2.2,0.5l-0.2,0.1"/>
<path id="Layer0_6_MEMBER_378_1_STROKES" class="st6" d="M254,73.6l-0.3-0.2c-0.8-0.6-1.8-0.9-3-0.9c-1.3,0-2.3,0.2-3.1,0.8"/>
<path id="Layer0_6_MEMBER_379_1_STROKES" class="st6" d="M252.7,79.4v12.9"/>
<path id="Layer0_6_MEMBER_380_1_STROKES" class="st6" d="M248.4,79.3v13"/>
<path id="Layer0_6_MEMBER_381_1_STROKES" class="st6" d="M194,58.7l0-0.1l-0.1-0.2l-0.1-0.1"/>
<path id="Layer0_6_MEMBER_382_1_STROKES" class="st6" d="M193.5,57.4l0,0.2l0.1,0.2l0.2,0.4"/>
<path id="Layer0_6_MEMBER_383_1_STROKES" class="st6" d="M193.8,57.6l0.1,0.2l0.2,0.3"/>
<path id="Layer0_6_MEMBER_384_1_STROKES" class="st6" d="M194.2,58.2l-0.1-0.1"/>
<path id="Layer0_6_MEMBER_385_1_STROKES" class="st6" d="M237.1,151v0.2c0.1,0.9,0.5,1.6,1.2,2.1l0.1,0.1"/>
<path id="Layer0_6_MEMBER_386_1_STROKES" class="st6" d="M255.2,97.7c-0.4-1.5-2-2.3-4.6-2.3c-2.6,0-4.1,0.8-4.5,2.4v0.4
	c0.3,1.6,1.8,2.4,4.5,2.4c2.7,0,4.2-0.8,4.6-2.3V97.7z"/>
<path id="Layer0_6_MEMBER_387_1_STROKES" class="st7" d="M260.5,110.7l-4.3,2.4"/>
<path id="Layer0_6_MEMBER_388_1_STROKES" class="st7" d="M255.2,113.8l-1.1,0.6"/>
<path id="Layer0_6_MEMBER_389_1_STROKES" class="st7" d="M253,115l-4.3,2.4"/>
<path id="Layer0_6_MEMBER_390_1_STROKES" class="st7" d="M276.1,101.9l-2.7,1.5"/>
<path id="Layer0_6_MEMBER_391_1_STROKES" class="st7" d="M272.7,103.7l-0.7,0.4"/>
<path id="Layer0_6_MEMBER_392_1_STROKES" class="st7" d="M271.4,104.5l-2.6,1.5"/>
<path id="Layer0_6_MEMBER_393_1_STROKES" class="st7" d="M250.7,121v5.3"/>
<path id="Layer0_6_MEMBER_394_1_STROKES" class="st7" d="M250.7,127.6v1.3"/>
<path id="Layer0_6_MEMBER_395_1_STROKES" class="st7" d="M250.7,130.3v5.3"/>
<path id="Layer0_6_MEMBER_396_1_STROKES" class="st7" d="M250.7,101.7v3.3"/>
<path id="Layer0_6_MEMBER_397_1_STROKES" class="st7" d="M250.7,105.8v0.8"/>
<path id="Layer0_6_MEMBER_398_1_STROKES" class="st7" d="M250.7,107.5v3.3"/>
<path id="Layer0_6_MEMBER_399_1_STROKES" class="st7" d="M250.7,93.5v1.8"/>
<path id="Layer0_6_MEMBER_400_1_STROKES" class="st7" d="M250.7,95.8v0.5"/>
<path id="Layer0_6_MEMBER_401_1_STROKES" class="st7" d="M250.7,96.7v1.9"/>
<path id="Layer0_6_MEMBER_402_1_STROKES" class="st6" d="M252.7,90.9c-0.1,0.8-0.8,1.2-2.2,1.2c-1.3,0-2-0.4-2.1-1.2"/>
<path id="Layer0_6_MEMBER_403_1_STROKES" class="st6" d="M252.7,89.5c-0.1,0.8-0.8,1.2-2.1,1.2c-1.3,0-2.1-0.4-2.2-1.2"/>
<path id="Layer0_6_MEMBER_404_1_STROKES" class="st6" d="M252.7,87.9c-0.1,0.8-0.8,1.2-2.2,1.2c-1.3,0-2-0.4-2.1-1.2"/>
<path id="Layer0_6_MEMBER_405_1_STROKES" class="st6" d="M252.7,86.4c-0.1,0.8-0.8,1.2-2.1,1.2c-1.3,0-2.1-0.4-2.2-1.2"/>
<path id="Layer0_6_MEMBER_406_1_STROKES" class="st6" d="M252.7,85c-0.1,0.8-0.8,1.2-2.2,1.2c-1.3,0-2-0.4-2.1-1.2"/>
<path id="Layer0_6_MEMBER_407_1_STROKES" class="st6" d="M250.8,146.4l-12.2-7"/>
<path id="Layer0_7_MEMBER_0_1_STROKES" class="st8" d="M66.2,48.8l-7,4.8l-4.9,4.4L54,58.4"/>
<path id="Layer0_7_MEMBER_1_1_STROKES" class="st8" d="M74,80.9l4.3-1.4l4.1-1.8l2.6-1.9"/>
<path id="Layer0_7_MEMBER_2_1_STROKES" class="st8" d="M65.1,70.1l-10.1-0.2l-2.4-7"/>
<path id="Layer0_7_MEMBER_3_1_STROKES" class="st8" d="M62.7,82l-14.2-1.5L44.7,72l0-0.7l0.1-0.4l0.2-0.3l0.3-0.4"/>
<path id="Layer0_7_MEMBER_4_1_STROKES" class="st8" d="M54,58.4l-8.6,11.7l-5.4,8.3"/>
<path id="Layer0_7_MEMBER_5_1_STROKES" class="st8" d="M97.1,87l1.6-1.7l1.2-2.2l0.8-2.6c0.6-3.1,0.4-6.6-0.6-10.5
	c-0.9-3.5-2.3-6.7-4.1-9.8l-0.8-1.2"/>
<path id="Layer0_7_MEMBER_6_1_STROKES" class="st8" d="M106.4,81.6l1.6-1.7l1.2-2.2L110,75c0.6-3.3,0.4-7.1-0.8-11.3
	c-1.1-3.8-2.6-7.3-4.7-10.4l-0.2-0.3l-0.3-0.3c-0.9-0.8-1.8-1-2.6-0.7l-0.3,0.2"/>
<path id="Layer0_7_MEMBER_7_1_STROKES" class="st8" d="M95.6,55.3l-0.2,0.2c-0.5,0.4-0.7,0.9-0.7,1.6c0,0.6,0.1,1.2,0.5,1.8"/>
<path id="Layer0_7_MEMBER_8_1_STROKES" class="st8" d="M85.9,93.5l-0.4,0.3c-15.5,8.8-30.6,15.1-45.5,19l-0.4,0.1"/>
<path id="Layer0_7_MEMBER_9_1_STROKES" class="st8" d="M29.9,113.8c3.2,0.1,6.4-0.2,9.6-0.9"/>
<path id="Layer0_7_MEMBER_10_1_STROKES" class="st8" d="M27,110.9c0-4.1,1.6-9.6,4.7-16.5c1.7-3.8,4.3-9,8-15.5l0.2-0.4"/>
<path id="Layer0_7_MEMBER_11_1_STROKES" class="st8" d="M27,111.2l0,0.3v0.1l0,0c0,0,0,0.2,0.1,0.4v0.1l0,0v0l0,0.1v0.1l0.1,0.1v0.1
	l0,0v0l0,0.1l0.1,0.1v0l0.1,0.1l0,0.1l0,0v0l0.2,0.2c0.3,0.3,0.6,0.5,0.8,0.5l0,0h0l0,0h0.1l0,0H29l0,0h0.2l0,0c0.1,0,0.3,0,0.4,0
	h0.2"/>
<path id="Layer0_7_MEMBER_12_1_STROKES" class="st8" d="M53.8,58.7l-0.1,0.2c-0.7,1-1.1,2.3-1,3.8v0.3"/>
<path id="Layer0_7_MEMBER_13_1_STROKES" class="st8" d="M65.1,70.1l0.9,0c4.1,0.1,8.1-0.3,12.2-1.4l0.8-0.2"/>
<path id="Layer0_7_MEMBER_14_1_STROKES" class="st8" d="M62.7,82l0.7,0.1c3.3,0.3,6.6,0,9.9-0.9L74,81"/>
<path id="Layer0_7_MEMBER_15_1_STROKES" class="st8" d="M85.9,93.5l31.1-18"/>
<path id="Layer0_7_MEMBER_16_1_STROKES" class="st8" d="M95.6,55.3l5.3-3.1"/>
<path id="Layer0_7_MEMBER_17_1_STROKES" class="st8" d="M66.2,48.8l26-15.1"/>
<path id="Layer0_7_MEMBER_18_1_STROKES" class="st8" d="M80.1,68.2l1.3-0.1l3.6,7.5"/>
<path id="Layer0_7_MEMBER_19_1_STROKES" class="st8" d="M55.1,69.9l-6.6,10.6"/>
<path id="Layer0_7_MEMBER_20_1_STROKES" class="st8" d="M70.9,70l-3.4,12.1"/>
<path id="Layer0_7_MEMBER_21_1_STROKES" class="st8" d="M79,68.5l1.1-0.2"/>
<g>
	
		<ellipse transform="matrix(0.7071 -0.7071 0.7071 0.7071 -18.2948 201.1477)" class="st9" cx="233.7" cy="122.7" rx="30.8" ry="30.8"/>
	
		<ellipse transform="matrix(0.7071 -0.7071 0.7071 0.7071 -18.2948 201.1477)" class="st10" cx="233.7" cy="122.7" rx="30.8" ry="30.8"/>
</g>
<g>
	<path class="st11" d="M178,95.3c-22.9-11.7-46.2-17-69.8-16c0,0-0.1,0-0.1,0l-4.2,0.8l2.7,0.4c0,0,0,0,0.1,0
		c22,0.7,43.5,8.8,67.2,24.1c0.3,0.2,0.5,0.7,0.3,1l-1.7,3.6c-0.3,0.6,0.3,1.3,1,1.1l13-4.6c0.4-0.1,0.6-0.6,0.5-1l-4.6-13.1
		c-0.2-0.7-1.2-0.7-1.5-0.1L179,95C178.8,95.4,178.3,95.5,178,95.3z"/>
	<path id="Layer1_10_1_STROKES_8_" class="st12" d="M105.2,80.5c22,0.7,44.7,8.7,68.4,24c0.3,0.2,0.5,0.7,0.3,1l-1.7,3.6
		c-0.3,0.6,0.3,1.3,1,1.1l13-4.6c0.4-0.1,0.6-0.6,0.5-1l-4.6-13.1c-0.2-0.7-1.2-0.7-1.5-0.1l-1.7,3.5c-0.2,0.4-0.7,0.6-1.1,0.4
		c-22.8-11.5-46.2-16.9-69.8-15.9c0,0-0.1,0-0.1,0l-4.8,1.1C103.2,80.5,103.2,80.5,105.2,80.5z"/>
</g>
</svg>
