<?xml version="1.0" encoding="utf-8"?>
<!-- Generator: Adobe Illustrator 24.2.3, SVG Export Plug-In . SVG Version: 6.00 Build 0)  -->
<svg version="1.1" id="Ebene_1" xmlns="http://www.w3.org/2000/svg" xmlns:xlink="http://www.w3.org/1999/xlink" x="0px" y="0px"
	 viewBox="0 0 349.1 166" style="enable-background:new 0 0 349.1 166;" xml:space="preserve">
<style type="text/css">
	.st0{fill:none;stroke:#0099FF;stroke-width:0.25;stroke-miterlimit:5;}
	.st1{fill:#0099FF;}
	.st2{fill:none;stroke:#0099FF;stroke-width:0.55;stroke-miterlimit:5;}
	.st3{fill:none;stroke:#B1B1B1;stroke-width:0.55;stroke-miterlimit:5;}
	.st4{fill:none;stroke:#0099FF;stroke-width:2.1;stroke-miterlimit:5;}
	.st5{fill:none;stroke:#B1B1B1;stroke-width:0.55;stroke-miterlimit:59.9995;}
	.st6{fill:#2B2B2A;}
	.st7{fill:none;stroke:#B1B1B1;stroke-width:0.25;stroke-miterlimit:5;}
	.st8{fill:#CCCCCC;}
	.st9{fill:none;stroke:#2B2B2A;stroke-width:0.55;stroke-miterlimit:5;}
</style>
<path id="Layer1_2_MEMBER_0_1_STROKES" class="st0" d="M55.1,54.3L27.4,74.2"/>
<path class="st1" d="M22.7,69c-0.9,1.8-1.1,3.8-0.4,6c0.9,2.2,2.4,3.7,4.3,4.5c1.7,0.7,3.5,0.7,5.4,0c1.8-0.7,3.2-1.9,4-3.6
	c1-1.9,1-4,0.2-6.2c-1-2.1-2.4-3.5-4.3-4.2c-1.7-0.6-3.5-0.6-5.3,0.1C24.9,66.2,23.6,67.3,22.7,69z"/>
<path id="Layer1_2_MEMBER_1_1_STROKES" class="st2" d="M22.2,74.9c0.9,2.2,2.4,3.7,4.3,4.5c1.7,0.7,3.5,0.7,5.4,0
	c1.8-0.7,3.2-1.9,4-3.6c1-1.9,1-4,0.2-6.2c-1-2.1-2.4-3.5-4.3-4.2c-1.7-0.6-3.5-0.6-5.3,0.1c-1.8,0.7-3.1,1.9-4,3.5
	C21.7,70.7,21.6,72.7,22.2,74.9z"/>
<path id="Layer1_2_MEMBER_2_1_STROKES" class="st3" d="M86.4,63.3l-6.6,0.3 M85.5,89.5l-2-3.4l-3.7-4.3 M72.8,88.4l4.2-3.1l2.6,1.3
	l0.3,0.4v8.2l0.3,0.5l0.4,0.3l11.3,5.2l0.5,0.3l0.1,0.1l0.2,0.2v7.9l0.3,0.5l0.3,0.3l10.4,4.8l0.5,0.3l0.3,0.3v8l0.4,0.5l0.3,0.3
	l10.4,4.8l0.4,0.3l0.3,0.3v8.5 M75.5,86v-1.6 M79,96.5l0.8-0.6 M89.3,92.8l0.9,1.2l0.5,2.1 M74.6,90.6l4.5-3.3 M75.4,113.8l9.7-7.1
	 M79.6,119.4l8.7-6.3 M96.8,120.7l6.7-4.9 M91.2,111l1-0.8 M92.3,101.5l-4.2,3.1 M106.9,158.1l0.5,0.6l0.1-0.5 M91.7,133l12.1-8.8
	 M86.8,127.7l6.5-4.7 M87.3,131.3l22.1,26.5l0.3,2l0.8-0.6l-0.3-1.9l-0.1-0.4L88,130.3 M79.3,83l49.8,60l0.1,0.4l0.3,2.4l-0.8,0.6
	l-1.3-0.3v0.1l-16.7,12.1 M116.2,138.8l10.4,4.8l0.5,0.3l0.2,0.3l0.1,1.8 M128.7,146.4l-0.3-2.5L78.3,83.8 M133.4,146.8l-18.6,14.3
	 M110.3,156.3l16.1-11.6 M116.7,107l-10.2,8 M117.5,108.1l-10.1,7.9 M103.7,147.8l12.1-8.8 M99,142.2l16.3-11.9 M109.6,159.7l-2.2-1
	 M50.9,102.9l2.9-2.3 M63.4,98.7l0.8-0.6 M61.2,96.8l2.1-1.6 M69.2,90.9l1.2-0.9 M67.9,104.5l8.7-6.3 M85.3,128.8l-22.9-27.5
	 M61.5,98.3l24.8,29.9 M118.1,101.2L89.5,64.4 M118.9,100.1L90.3,63.3 M78.9,67.4l9,25.2 M79.8,67.1l9.1,25.5"/>
<path id="Layer1_2_MEMBER_3_1_STROKES" class="st4" d="M42.3,21.6L61.5,7.7"/>
<path id="Layer1_2_MEMBER_4_1_STROKES_1_" class="st3" d="M65.3,87l2-1.5 M59.1,91.7l4.2-3.1 M66.5,88.7l2.2-1.6 M59.7,93.7l4.9-3.6
	 M57.4,95.4l1.1-0.8 M57.8,91.9l0.2,0.6l6.1,17.3 M58,92.5L57.2,93 M58.2,90.4l6.7,19"/>
<path id="Layer1_2_MEMBER_5_1_STROKES_1_" class="st4" d="M42.3,21.6c-0.2,0.1-0.4,0.3-0.6,0.5c-0.8,0.8-1.1,1.9-1.1,3.2
	c0,1.3,0.5,2.5,1.3,3.7 M61.5,7.7c0.8-0.4,1.6-0.6,2.6-0.4S66,8,66.9,8.8c0.4,0.3,0.7,0.8,1.1,1.3"/>
<path id="Layer1_2_MEMBER_6_1_STROKES_1_" class="st3" d="M75.7,56v-1.9c0-0.3,0.1-0.6,0.3-0.8c0.3-0.4,0.7-0.5,1.3-0.5
	c0.5,0.1,1,0.3,1.5,0.7l0.1,0.1l0.2,0.3l4.9,2.8c0.8,0.3,1.6,0.8,2.4,1.5c0.4,0.3,0.6,0.6,0.9,0.9c0,0,0,0.1,0.1,0.1l2.9,3.7
	 M76.5,54.6c0.3-0.3,0.7-0.3,1.1,0l0,0l5.7,3.6c0.6,0.4,1.2,0.8,1.8,1.4c0.3,0.3,0.7,0.7,1,1.1l1.3,1.6 M77.2,54.9V56 M82.3,59.9
	l2.7,0.4 M88.3,63.4l0.5,0.7 M118.1,101.2c0.4,0.6,0.6,1.3,0.6,1.9 M118.4,104.8v0.4h0v0.1h0v0 M120.3,105.2c0.1,0.4,0,0.8-0.3,1.1
	l-0.3,0.3 M118.9,100.1c0.6,0.8,0.9,1.6,1,2.4 M78.3,83.8c-0.3-0.4-0.7-0.6-1.2-0.7c-0.4-0.1-0.8,0-1.1,0.2
	c-0.3,0.3-0.5,0.6-0.5,1.1 M69.8,83l2.8-0.7h0c0.1,0,0.2-0.1,0.2-0.1c0.2,0,0.4,0,0.7,0c0.3,0.1,0.7,0.4,0.9,0.7c0,0,0,0,0,0
	l0.8,0.8 M76.5,82.7c0.7-0.6,1.6-0.6,2.6,0.1c-1-1.2-2.1-2.1-3.5-2.6c-1.4-0.4-2.6-0.4-3.7,0.1l-2.7,1.6 M106.9,158.1
	c0-0.4-0.2-0.7-0.5-1.1c-0.3-0.2-0.5-0.4-0.8-0.4 M107.5,158.3c-0.1-0.8-0.5-1.5-1.2-2.1c-0.3-0.3-0.6-0.4-0.8-0.5 M114.8,161.2
	c-2.9,1.9-6.3,2.4-10.4,1.6 M50.8,102.9c-1,1.1-1.6,2.4-1.8,4c-0.2,1.6,0,3.2,0.6,4.9 M71.9,80.3l0.6-0.3c1-0.7,2.3-0.9,3.7-0.5
	c1.4,0.3,2.6,1.1,3.7,2.4"/>
<path id="Layer1_2_MEMBER_7_1_STROKES_1_" class="st4" d="M41.9,29c5.9,9.4,10.8,20.1,14.5,31.9c2.2,5.1,3.1,10.9,2.8,17.3
	c-0.3,6.4-1.8,12.9-4.5,19.4 M85,64.4c0.1,3.2-0.5,6.4-1.9,9.7 M67.9,10c6.1,10.1,11,21.2,14.6,33.2c1,4,1.8,8.3,2.4,12.9
	 M81.5,77.6c-0.7,1.2-1.4,2.3-2.3,3.4"/>
<path id="Layer1_2_MEMBER_8_1_STROKES_1_" class="st5" d="M119.9,102.4v0.8c0.2,0.1,0.3,0.2,0.3,0.3c0,0,0,0,0,0c0,0,0,0.1,0,0.1
	v1.6 M118.4,104.9v-1.2v0c0-0.1,0.1-0.2,0.3-0.3v-0.6 M118.9,106.1c0.1-0.1,0.1-0.2,0-0.3c-0.1-0.1-0.2-0.2-0.3-0.1 M118.2,105.3
	l-0.5,0.4l0.1,0.2l-0.6,0.5l0,0c-0.1,0.1-0.1,0.3-0.1,0.5c0,0.1,0.1,0.3,0.2,0.4c0.4,0.4,0.7,0.5,1,0.3l0,0l1.5-1.2 M119.9,103.3
	v0.1c0,0.2-0.2,0.4-0.6,0.4c-0.3,0-0.5,0-0.6-0.1c0,0-0.1-0.1-0.1-0.2v-0.1 M118.4,103.7c0.1,0.4,0.4,0.5,1,0.5
	c0.6,0,0.9-0.2,0.9-0.5 M117.6,107.8L117.6,107.8c-0.2,0.2-0.3,0.1-0.6-0.1c-0.2-0.3-0.2-0.5-0.1-0.8c-0.1,0-0.2,0.1-0.3,0.1
	c-0.2,0.2-0.2,0.4,0,0.8c0.3,0.3,0.5,0.4,0.8,0.2L117.6,107.8z M117.2,106.9c-0.1,0-0.2,0-0.3,0 M76.1,83.1l0.5-0.5 M90.2,94
	l-0.8,0.5L89,92.9l0.1-0.2l0.2,0.1L89,92.3 M88.2,93.1l0.3,0c0.3-0.1,0.4-0.3,0.4-0.5 M96,121.2c0,0.3-0.3,0.5-0.9,0.6
	c-0.3,0-0.5,0-0.7-0.1c-0.2-0.1-0.3-0.2-0.3-0.4v1.2l-0.1,0.3h0v0h0v0h0l-0.5,0.4l0.2,0.2l-0.6,0.5c-0.2,0.2-0.2,0.3-0.1,0.5
	c0,0.1,0.1,0.3,0.2,0.4c0.4,0.4,0.7,0.5,1.1,0.2l1.5-1.2l0.1-0.1c0.3-0.3,0.4-0.6,0.3-1L96,121.2z M96,121.2c0-0.1-0.1-0.3-0.4-0.3
	v0.3c0,0.2-0.2,0.2-0.6,0.2c-0.3,0-0.4,0-0.5-0.1c0,0-0.1-0.1-0.1-0.2v-0.1c-0.2,0.1-0.3,0.3-0.3,0.4 M65.8,80.8l28.8,36.9
	c0.6,0.8,0.9,1.6,1,2.4v0.8 M94.4,120.9v-0.5c-0.1-0.6-0.3-1.1-0.6-1.6l-29-37.2 M94.5,123.7c0.1-0.1,0.1-0.2,0-0.3
	c-0.1-0.2-0.2-0.2-0.3-0.1 M92.8,124.5c-0.1,0-0.1,0-0.2,0c-0.2,0.3-0.1,0.6,0.1,0.8c0.2,0.2,0.4,0.3,0.6,0.2l-0.1,0.2c0,0,0,0,0,0
	l-3.9,2.8l-5.4,5.1c0,0.2-0.1,0.4-0.3,0.5c0,0.3-0.2,0.5-0.4,0.5c-0.3,0-0.6-0.1-0.9-0.4c-0.4-0.3-0.5-0.6-0.5-1
	c0-0.2,0.2-0.4,0.4-0.4c0,0,0,0,0,0c0-0.2,0.1-0.3,0.2-0.3c0-0.5,0.1-0.8,0.4-0.9c0.3-0.1,0.6,0,0.9,0.3l4.7-4.4l4-2.9 M92.3,124.6
	c0.1,0,0.1-0.1,0.3-0.1 M92.3,124.6c-0.2,0.2-0.2,0.5,0.1,0.8c0.1,0.1,0.3,0.2,0.4,0.3c0.1,0,0.2,0,0.3,0 M84,130.8l-0.4-0.2
	l-0.7-0.1l-0.3,0l-0.3,0.2L82,131c0.4-0.3,1-0.3,1.7,0.2 M82,131C82,131,82,131,82,131c-0.5,0.4-0.7,0.9-0.4,1.7 M83.6,131.9
	l-0.6,0.5l-0.4,0.3c-0.3,0-0.5,0-0.6,0 M65.2,109.9l-0.1-0.3c0,0.1-0.1,0.2-0.5,0.3c-0.4,0.2-0.6,0.2-0.6,0l0.3,0.7c0,0,0.1,0,0.2,0
	c0.1,0,0.2,0,0.4-0.1c0-0.2,0-0.4,0.1-0.4c0.1-0.1,0.2-0.1,0.3,0v0l0,0l1.2,1.4l3,12l3.9,7.1l1.3,1.5l0.5,3.7c0,0.1,0,0.2,0,0.3l0,0
	c0.1,0,0.2-0.2,0.2-0.4L75,132l-1.3-1.5l-4-7.7 M75.2,136.1C75.2,136.1,75.2,136.1,75.2,136.1c-0.1,0.1-0.2,0.2-0.4,0.1
	c0.6,0.7,1.3,1.3,2,2c0.4-0.2,0.8-0.1,1.2,0.2c0.9,1,2,2,3.3,3.2c6.3,5.9,13.1,10.4,20.3,13.7l4,1.5 M105.4,155.6l-3.6-1.2
	c-7.9-3.7-15.1-8.7-21.7-14.8l-1.9-1.8c-0.5-0.2-1-0.2-1.3,0l-1.2-1.2 M106.9,158.2l-0.9-0.3c-1.2-0.4-2.2-0.7-3.2-1
	c-2.4-1-4.9-2.2-7.5-3.6c-5.6-3.8-11-8.1-16-12.8c-0.8-0.8-1.7-1.6-2.5-2.3 M85,132.8c0.3,0.7,0.3,1.3,0.1,1.7
	c0.5-0.4,0.5-1,0.2-1.9 M83.5,134.1c0-0.1,0-0.1,0-0.2l0.4-0.3 M83.8,134.2c0.2,0,0.4-0.1,0.5-0.3c0.1-0.2,0.1-0.4,0.1-0.6
	 M83.2,134.8c0.6,0.3,1.1,0.3,1.5,0.1c0.2-0.1,0.3-0.3,0.4-0.4 M82.3,132.5c0.2-0.1,0.4-0.1,0.8-0.1 M49.6,111.7
	c6.1,12,14.5,22.9,25.2,32.9c4.4,4,9,7.8,13.9,11.2c5.1,3.6,10.3,5.9,15.6,6.9 M51.2,110.7c5.8,11.9,14.1,22.8,24.7,32.6
	c4.8,4.5,10.1,8.6,15.8,12.4c6.4,4.2,12.7,6.3,18.7,6.5c-5.6-1.7-11.4-4-17.3-6.9c-5.6-3.7-10.9-7.9-15.9-12.5
	c-11-10.3-19.5-21.5-25.5-33.8 M130.1,143.8c0.9-0.2,1.7-0.2,2.4,0c0.7,0.2,1.1,0.5,1.3,1.1c0.2,0.6,0,1.3-0.5,2 M69.8,83l-0.6-1.1
	L68.5,82l-0.2,0.3l0,0.4l0.2-0.1c0.1,0,0.2,0,0.3,0l1.6,1.3c0.2,0.1,0.4,0.3,0.5,0.5c0.2,0.3,0.3,0.6,0.3,0.9c0,0.2-0.1,0.4-0.2,0.5
	l0.1-0.1l0.2-0.1c0.2-0.1,0.3-0.3,0.3-0.6c0-0.3-0.1-0.6-0.3-0.8c-0.1-0.2-0.3-0.4-0.5-0.6l-0.5-0.4 M71.8,85.2c0,0,0.1-0.1,0.1-0.1
	c0.1-0.1,0.2-0.3,0.2-0.5c0-0.3-0.1-0.6-0.3-0.9c-0.3-0.3-0.5-0.5-0.7-0.6 M71.8,84.8c0.1-0.3,0.1-0.6-0.2-1.1
	c-0.2-0.3-0.5-0.5-0.8-0.6 M71.7,82.8c0.2,0.1,0.4,0.3,0.6,0.6c0.2,0.3,0.3,0.6,0.3,0.9l1.3-0.9l0.2,0l0.5,0.1 M72.6,84.2
	c0,0.3-0.1,0.4-0.3,0.6l-0.3,0.3 M69.4,81.6l-0.6,0.1L68.5,82 M68.6,83.5c0.1-0.1,0.1-0.1,0-0.3c-0.1-0.1-0.2-0.2-0.3-0.1 M68,83
	c0-0.1,0.1-0.2,0.3-0.3c0.1,0,0.3,0,0.3,0.1l1.4,1.2c0,0,0,0,0,0 M70.2,86c0.1-0.3,0.1-0.6-0.2-1c-0.3-0.5-0.6-0.7-1-0.6 M70,84.1
	c-0.4-0.3-0.7-0.3-0.9,0l-0.3,0.2c0.2-0.1,0.4-0.1,0.7,0c0.3,0.1,0.5,0.4,0.7,0.7c0.4,0.6,0.4,1,0.2,1.3l0.5-0.4c0,0,0,0-0.1,0
	 M66.3,88.7c0-0.3-0.1-0.6-0.3-0.9c-0.2-0.3-0.4-0.5-0.7-0.6c-0.3-0.1-0.5-0.2-0.7,0l-0.4,0.3c0.2-0.1,0.4-0.1,0.7,0
	c0.3,0.1,0.5,0.4,0.7,0.7c0.2,0.3,0.3,0.6,0.3,0.9c0,0.2,0,0.3-0.1,0.5l0.3-0.2C66.2,89.2,66.3,89,66.3,88.7z M70.9,85.9L70.9,85.9
	 M63.3,88.2c0.2-0.1,0.4-0.1,0.7,0 M63.3,88.2C63.3,88.2,63.2,88.2,63.3,88.2c-0.2,0.1-0.2,0.3-0.3,0.4c0.1,0,0.2-0.1,0.3-0.2
	c0.1-0.1,0.3-0.1,0.6,0c0.2,0.1,0.4,0.3,0.6,0.5c0.1,0.3,0.2,0.5,0.2,0.8c0,0.3-0.1,0.4-0.3,0.5l-0.2,0.2c0.1,0,0.2,0,0.4-0.1
	c0,0,0.1-0.1,0.1-0.1c0.1-0.1,0.2-0.3,0.2-0.5c0-0.3-0.1-0.6-0.3-0.9c-0.2-0.3-0.4-0.5-0.7-0.6 M64.7,90.3l0.4-0.4
	c0.1-0.1,0.2-0.2,0.2-0.3c0-0.1,0.1-0.2,0-0.3c0-0.2-0.1-0.5-0.3-0.8c-0.2-0.3-0.4-0.5-0.7-0.6c0,0-0.1,0-0.1-0.1
	c-0.1,0-0.2-0.1-0.3-0.1c-0.1,0-0.2,0-0.3,0.1l0,0l-0.4,0.3 M65.4,89.6c0.2,0,0.3,0,0.3-0.1 M65.4,89.3c0.2-0.4,0.2-0.7-0.1-1
	c-0.3-0.5-0.6-0.6-1-0.5 M64.2,87.5L64,87.8 M58.3,99.4c0,0.4,0.2,0.7,0.4,1 M58.3,99.4c-0.1,0.1-0.2,0.3-0.2,0.5
	c0,0.3,0.1,0.5,0.3,0.8c0.2,0.2,0.4,0.4,0.6,0.5c0.2,0.1,0.4,0.1,0.6,0c-0.4-0.2-0.6-0.4-0.9-0.7 M59.6,98.1l-1.3-1.4
	c-0.7-0.6-1.5-1.1-2.4-1.5 M58.6,99.3l-0.2,0.1c0,0,0,0,0,0 M59,96.2l-0.9-0.1 M55.4,96.4c0.5,0.3,1.1,0.6,1.6,1l0.4,0.3l3.2,3.4
	 M55.5,96.1c0.5,0.2,1,0.5,1.7,1.1l0.4,0.3l3.3,3.4 M54.6,100.1c0.4,0.3,0.7,0.3,1,0.1l0.3-0.3l1.2-1l0.7,1.1l-1.2,1
	c-1.4-0.2-2.7-0.6-4.1-1.3 M58.3,114.1l0.3-0.2c0.1-0.1,0.2-0.3,0.2-0.6l-0.2-1.3l-0.9-1.3l-0.6-6.1l-1.8-3.5 M56.2,116.5l0.8-0.9
	c0,0,0.1,0,0.1,0l0.3-0.1c0,0,0,0,0,0c0.1-0.3,0-0.5,0-0.8l-0.1-0.7l0.1-0.1c0,0,0.1,0,0.1,0L54.9,101 M57.1,116.9
	c0.1,0.1,0.2,0.1,0.2,0.1c0.2-0.1,0.2-0.3,0.1-0.5c0-0.1-0.1-0.2-0.2-0.3c-0.1-0.1-0.2-0.1-0.2,0c-0.2,0.1-0.2,0.2-0.1,0.5
	C57,116.7,57,116.8,57.1,116.9z M65.1,104.8l-0.3,0.3l-0.2,0.2l-1.2-1.3 M64.8,105.1l-1.7-1.8 M59.6,104.3l6.1,12 M59.4,103.2
	c0,0.4,0.1,0.7,0.3,1.1 M59.5,102.6c-0.1,0.1-0.2,0.3-0.2,0.6 M59.5,102.6c0.1-0.1,0.1-0.2,0.2-0.2c0.2-0.1,0.4-0.2,0.5-0.1l0.8,0
	 M65.5,115.2l-5.6-10.8c-0.3-0.6-0.4-1.2-0.4-1.7 M59.5,101.1C59.6,101.1,59.6,101.1,59.5,101.1c0.2-0.1,0.2-0.3,0.2-0.5
	 M63.9,109.9L63.9,109.9c0.1,0,0.3-0.1,0.5-0.2c0.3-0.1,0.4-0.2,0.3-0.3 M65.2,110.1L65.2,110.1 M64.4,110.7l0.1,0.6l0.2,0l0.1,0
	c0.2-0.1,0.2-0.4,0-0.7v0c0,0,0,0,0,0 M64.5,111.3l-0.4,0.1c-0.2,0.1-0.2,0.4,0,0.6l1,0.9l0.1,0.3l0.3,0.7c0-0.1,0-0.1,0.1-0.2
	c0.1-0.1,0.2,0,0.3,0.1 M58.6,112l1.1,0.5c0,0,0,0,0,0c0,0,0.1,0,0.1,0c0.4,0.1,0.7,0.3,1.1,0.6c0.4,0.4,0.6,0.7,0.7,1.1
	c0.1,0.4,0.1,0.8-0.2,1l-0.3,0.2c-0.5,0.7-0.5,1.7,0,2.8c2.3,4,5,7.7,8.1,11.2 M57.5,113.9c0.1,0,0.2,0,0.3,0.1l0.1,0.7l0.2,0.4
	c0.3-0.1,0.6,0,0.8,0.3c0.1,0.3,0.1,0.5,0,0.7c0,0.1,0,0.2,0,0.3c0,0.2-0.1,0.4-0.2,0.5l0.1,1.5 M58,115.2l0,0.1
	c0.2,0.1,0.4,0.2,0.5,0.5c0.1,0.1,0.2,0.3,0.2,0.4 M57.1,115.6c0.3,0,0.5,0.2,0.7,0.5c0.1,0.1,0.2,0.3,0.2,0.5v2.2l0.4-0.3v-1.9
	c-0.1-0.2-0.1-0.4-0.3-0.5c-0.2-0.4-0.5-0.5-0.8-0.5 M57.8,119v-2.3 M68.4,126.1l-5.7-11c0.1,0.5,0,0.9-0.2,1.3
	c-0.1,0.1-0.3,0.2-0.5,0.3l-0.1,0.1l0,0c-0.3,0.3-0.3,0.6,0,1.2c2,3.4,4.3,6.7,7.1,9.8 M57.7,110.7l2.9,1.1 M65.2,110.1l0.5,2
	l0.7-0.6 M66.6,119.5l-9.4-17.9 M67,121.3l-10.3-19.7 M62.6,115.1l-5.5-10.5 M56.6,100.9l-0.7-1.1 M71.1,128.2l1.6,3.2l-0.2,0.2
	l-1.4-2.9 M71.5,131.4l-2-7.9 M72.9,134.1l0.4,0.3l0.9,0.7 M72.6,133.3l0.6-0.5 M71.1,133.1l-0.8-0.3 M70.1,133l0.6,0.5v0.4l0.6,0.3
	l0-0.6l0.2-0.4l0.8-0.5l0.3-0.2l1-1.3 M71.3,134.2l0.6-0.4l0-0.6 M72.8,133.8l1.4,1l-0.9-1.6 M73.7,131.4l-1.2,1 M65.5,113.8
	l4.8,18.6 M65.7,112.2l5.1,19.5 M59.4,116.7c2.8,5.1,6.2,9.9,10.3,14.5 M74.8,136.2c-0.6-0.6-1.1-1.2-1.5-1.8 M92.3,124.6
	C92.3,124.6,92.3,124.6,92.3,124.6"/>
<path id="Layer1_2_MEMBER_9_1_STROKES_1_" class="st5" d="M59.6,75.8l1,0.8c0.6,0.6,0.9,0.9,1,1.1l1.3,1.8l-0.6,0.3 M59.3,73.6
	c0.9,0.3,1.8,0.9,2.6,1.6c0.3,0.2,0.5,0.5,0.8,0.9l2.9,3.8l0.1,0.1c0.1,0.1,0.1,0.3,0,0.5c-0.1,0.2-0.2,0.4-0.4,0.5
	c-0.4,0.4-0.8,0.4-1.1,0.2l-0.5-0.6l-0.9,0.4c-0.2,0.2-0.4,0.1-0.6-0.3c-0.2-0.3-0.2-0.5,0-0.7l1-0.5 M75.7,56
	c0,0.3,0.3,0.4,0.8,0.4c0.5-0.1,0.7-0.2,0.8-0.5 M76,58.3c-0.1,0.1-0.1,0.3,0,0.5l1.4,1.8c0.1,0.1,0.2,0.1,0.2,0.3
	c0.1,0.2,0.2,0.4,0.3,0.7l0.4-0.4c0-0.1,0.1-0.1,0.1-0.2c0,0,0.1-0.1,0.1-0.1l0.2-0.1l0-0.1c0,0,0.1-0.1,0.1-0.1
	c0.1,0,0.3,0,0.4,0.1c0.2,0.1,0.4,0.2,0.6,0.5c0.1,0.1,0.2,0.3,0.3,0.4l0,0c0.1,0.2,0.3,0.3,0.5,0.3H81c0-0.4-0.1-0.8-0.4-1.2
	c-0.4-0.6-0.9-0.9-1.4-0.7c-0.3,0-0.8-0.1-1.3-0.4l-1.3-1l0,0l-0.2-0.1v0c0-0.1-0.1-0.1-0.1-0.2C76.2,58.2,76.1,58.2,76,58.3z
	 M75.7,58.1l0.2-0.1C75.8,58,75.8,58,75.7,58.1C75.7,58.1,75.7,58.1,75.7,58.1z M75.7,58.1c-0.1,0.1-0.1,0.3,0.1,0.5l1.7,2 M82.4,61
	c0-0.3-0.1-0.7-0.4-1.1c-0.2-0.3-0.4-0.5-0.8-0.7c-0.2-0.1-0.4-0.1-0.5-0.1c-0.1,0-0.1,0-0.2,0c-0.4,0-0.8-0.1-1.3-0.4l-1.5-1.2l0,0
	l0,0c-0.3-0.3-0.5-0.4-0.6-0.3L75.9,58c0.1,0,0.3,0.1,0.4,0.2c0.1,0,0.2,0.1,0.3,0.4 M81.6,61.4c-0.1-0.4-0.2-0.7-0.4-1
	c-0.4-0.6-0.9-0.9-1.3-0.8c0,0-0.1,0-0.1,0c-0.3,0-0.8-0.1-1.3-0.3l-1.3-1.1l0,0c-0.2-0.3-0.4-0.4-0.5-0.3c0,0,0,0,0,0h0l0.1,0
	 M63.3,9C69.5,19,74.4,30.1,78,42.2c0.9,3.5,1.6,7.2,2.1,11.1 M87.7,62.4l-0.3,0.1l-0.7,0.4h0c0,0-0.1,0.1-0.1,0.1
	c-0.1,0.1,0,0.3,0.2,0.5c0.2,0.3,0.4,0.3,0.5,0.3l0,0l0.9-0.4 M87.2,63.3c-0.1-0.1-0.2-0.2-0.3-0.1c-0.1,0-0.1,0.1,0,0.3
	c0.1,0.1,0.1,0.2,0.3,0.1C87.3,63.5,87.3,63.4,87.2,63.3z M88.8,64.1c0.3,0.2,0.6,0.1,1.1-0.2c0.2-0.1,0.3-0.3,0.4-0.5
	c0.1-0.2,0.1-0.4,0-0.5 M85.7,60.7l-0.5,0.3l0,0.3l-0.5,0.3 M85.1,60.9l0-0.9 M85.9,61.1l-0.5,0.3 M84.9,60.9l-0.8,0.6 M82.9,60.7
	l1.1,0.1l-0.8,0.6 M87.4,62.6l-0.7,0.1c-0.1,0.1-0.2,0.2-0.1,0.4 M78,61.6c0.2-0.1,0.4-0.1,0.7,0.1c0.3,0.2,0.5,0.4,0.6,0.7l0.6-0.5
	l-0.2-0.3c-0.2-0.3-0.4-0.4-0.6-0.5c-0.2-0.1-0.3-0.1-0.4,0l-0.3,0.2 M78.9,60.8l0.2-0.1 M87,62.3l-7.7,0.3c-0.1,0.1-0.2,0-0.3-0.2
	l0,0c-0.1-0.2-0.3-0.4-0.6-0.5c-0.3-0.2-0.5-0.2-0.7,0l-0.2,0.3c0.1-0.1,0.3-0.1,0.5,0c0.2,0.1,0.4,0.3,0.6,0.5
	c0.2,0.3,0.3,0.5,0.3,0.8c0,0.2,0,0.4-0.1,0.5l0.3-0.3l0.7-0.1 M78.8,63.9C78.8,63.9,78.8,63.9,78.8,63.9c-0.2,0.1-0.3,0.1-0.6,0
	c0,0,0,0,0,0c0,0-0.1,0-0.1,0c-0.2-0.1-0.4-0.2-0.5-0.4c-0.1-0.2-0.2-0.3-0.3-0.4c-0.1-0.1-0.1-0.3-0.1-0.4c0-0.2,0-0.4,0.2-0.5
	c0,0,0,0,0.1,0 M77.7,61.8l0.3-0.2c0,0,0,0,0.1-0.1 M78.3,63.7c-0.2,0.1-0.4,0.1-0.6-0.3c-0.3-0.3-0.3-0.5-0.1-0.6
	c0.2-0.2,0.4-0.1,0.6,0.3C78.4,63.4,78.5,63.6,78.3,63.7z M78.5,63.9c0.3-0.2,0.2-0.5-0.1-0.9c-0.3-0.4-0.6-0.6-0.9-0.4
	c-0.1,0.1-0.2,0.3-0.1,0.5c0.1,0.1,0.1,0.2,0.2,0.4c0.2,0.2,0.4,0.4,0.6,0.5C78.3,63.9,78.4,63.9,78.5,63.9z M78.6,65.6
	c-0.1,0.1-0.2,0.1-0.3,0c-0.1-0.1-0.1-0.2-0.1-0.3c0.1-0.1,0.2,0,0.3,0C78.6,65.5,78.6,65.6,78.6,65.6z M77.9,64.4
	c0,0.2-0.1,0.4-0.2,0.5l0.9,0c0.1-0.1,0.2-0.3,0.2-0.5 M78.1,66.1c0.1,0.1,0.3,0.1,0.7-0.1c0.5-0.2,0.7-0.3,0.6-0.5l0.2,0.5l0.1,0.3
	l0.1,0.3c0.1,0.2-0.1,0.4-0.6,0.5c-0.5,0.2-0.7,0.2-0.8,0L78.4,67l0,0v0l-0.1-0.3L78.1,66.1z M78.1,66.1L78.1,66.1L78.1,66.1
	L78.1,66.1z M79.5,65.6L79.5,65.6l-0.1,0l-0.4,0.3h-0.9l-0.4-1 M78.4,67L78.4,67 M80.1,63.8l0.8,1l0.7-0.4l0.6,0.1l0.9-0.5
	 M80.1,64.2l-0.8,0.3c-0.1,0.2-0.1,0.3-0.1,0.5l0.1,0.6 M79.5,65.6l1-0.6 M79.8,66.4c0.1,0.1-0.2,0.3-0.6,0.5
	c-0.4,0.2-0.6,0.2-0.7,0.1 M79.7,66.1c0,0.2-0.2,0.3-0.6,0.5s-0.7,0.1-0.8,0 M79.5,64.1c-0.1,0.1-0.1,0.3-0.2,0.4 M78.6,64.9
	l0.4,1.1 M86.9,62l-6.8,0.3 M86.5,61.8L81,62 M85,134.6l0.3-0.3 M81.8,132.9l0.4-0.4 M83.2,134.4l0.4-0.4 M78.9,141.7
	c0.4,0.4,0.6,0.7,0.4,0.9c-0.1,0.1-0.2,0.2-0.4,0.1c-0.2-0.1-0.4-0.2-0.5-0.3c-0.4-0.4-0.6-0.7-0.4-0.9
	C78.2,141.3,78.5,141.3,78.9,141.7z M91.3,152.2c0.2,0,0.3-0.1,0.3-0.3c0.1-0.3-0.1-0.6-0.6-0.8c-0.2-0.1-0.4-0.1-0.6-0.1
	c-0.2,0.1-0.3,0.1-0.4,0.3c-0.1,0.3,0.1,0.6,0.7,0.8C90.9,152.2,91.1,152.2,91.3,152.2z M103.7,158c0,0.3-0.3,0.4-0.9,0.4
	c-0.6-0.1-0.9-0.3-0.8-0.6c0-0.1,0.1-0.2,0.3-0.3c0.2-0.1,0.4-0.1,0.6-0.1s0.4,0.1,0.6,0.2C103.7,157.7,103.7,157.8,103.7,158z
	 M62.8,80.6c0.1,0,0.1-0.1,0-0.3c-0.1-0.1-0.1-0.2-0.3-0.1c-0.1,0.1,0,0.2,0,0.3C62.7,80.6,62.7,80.6,62.8,80.6z M53.8,110
	c0.3-0.1,0.3-0.5,0.1-1c-0.3-0.5-0.5-0.7-0.8-0.6c-0.3,0.1-0.3,0.5-0.1,1C53.2,110,53.5,110.2,53.8,110z M70,131.5l-0.1,0.2l0.3,0.7
	l0.4,0.3l0.4-0.1l-0.1-0.5c0.1-0.3,0.3-0.5,0.6-0.5c0,0,0.1,0,0.1,0c0.2-0.1,0.3,0,0.5,0.1l0.3,1 M68.9,131.8
	c0.2-0.2,0.1-0.5-0.3-0.9c-0.4-0.4-0.7-0.4-1-0.2c-0.2,0.2-0.1,0.5,0.3,0.9c0.2,0.1,0.4,0.2,0.5,0.3
	C68.7,131.9,68.8,131.9,68.9,131.8z M72.1,133.4c0.3,0.1,0.4,0.2,0.4,0.4c0,0,0,0.1,0,0.1v0.3h0c0.1,0.4-0.3,0.7-1.1,0.9
	c-0.3,0.1-0.6,0-0.8,0c-0.3-0.1-0.4-0.2-0.4-0.4l0-0.4c0-0.2,0.1-0.4,0.3-0.6 M71.4,132.3c0.1-0.2,0.1-0.3,0.3-0.3
	c0.2,0,0.3,0.1,0.3,0.3c0,0.2-0.1,0.3-0.3,0.3C71.5,132.7,71.4,132.6,71.4,132.3z M71.1,133.1l-0.1-0.5 M70.3,132.8l-0.1-0.4
	 M71.4,133.2l-0.3-1c0-0.3,0-0.5,0.2-0.6 M70.5,135.5C70.5,135.5,70.5,135.5,70.5,135.5l-0.1-0.4c0.1,0.3,0.5,0.4,1.2,0.3
	c0.3,0,0.6-0.1,0.8-0.3c0.2-0.2,0.3-0.3,0.3-0.5l0.1,0.5c0,0.4-0.3,0.6-1,0.8c-0.3,0.1-0.6,0-0.8,0
	C70.7,135.8,70.5,135.6,70.5,135.5z M74.2,134.8l0,0.3 M70.2,134.2c0.1,0.4,0.5,0.6,1.3,0.5c0.3-0.1,0.6-0.2,0.8-0.3
	c0.1-0.1,0.2-0.3,0.3-0.4 M69.9,131.8l-0.1,0.2l0.3,1 M79.5,65.6L79.5,65.6"/>
<path class="st6" d="M53.6,110.1h0.1c0.1,0,0.2-0.1,0.3-0.3c0.1-0.1,0.1-0.3,0-0.4c-0.1-0.5-0.3-0.8-0.7-1c-0.4-0.1-0.5,0.2-0.4,0.7
	S53.2,110,53.6,110.1z"/>
<path id="Layer1_2_MEMBER_10_1_STROKES_1_" class="st7" d="M53.7,110.1c0.1,0,0.2-0.1,0.3-0.3c0.1-0.1,0.1-0.3,0-0.4
	c-0.1-0.5-0.3-0.8-0.7-1c-0.4-0.1-0.5,0.2-0.4,0.7c0.1,0.5,0.3,0.8,0.7,0.9H53.7z"/>
<path class="st6" d="M67.9,130.6l-0.1,0c-0.3,0.2-0.3,0.4,0.1,0.8c0.3,0.4,0.6,0.5,0.9,0.4c0.4-0.1,0.4-0.4,0.1-0.8
	C68.5,130.7,68.2,130.6,67.9,130.6z"/>
<path id="Layer1_2_MEMBER_11_1_STROKES_1_" class="st7" d="M67.7,130.6c-0.3,0.2-0.3,0.4,0.1,0.8c0.3,0.4,0.6,0.5,0.9,0.4
	c0.4-0.1,0.4-0.4,0.1-0.8c-0.3-0.4-0.6-0.6-1-0.5L67.7,130.6z"/>
<path class="st6" d="M79.2,142.8L79.2,142.8c0.3-0.2,0.3-0.4,0.1-0.8c-0.1-0.1-0.2-0.3-0.5-0.4c-0.2-0.1-0.4-0.2-0.6-0.2
	c-0.4,0.1-0.4,0.4,0,0.8C78.5,142.7,78.8,142.8,79.2,142.8z"/>
<path id="Layer1_2_MEMBER_12_1_STROKES_1_" class="st7" d="M79.2,142.7c0.3-0.1,0.3-0.4,0-0.7c-0.1-0.1-0.2-0.3-0.5-0.4
	c-0.2-0.1-0.4-0.2-0.6-0.2c-0.4,0.1-0.4,0.4,0,0.8C78.5,142.6,78.8,142.8,79.2,142.7L79.2,142.7z"/>
<path class="st6" d="M91.5,152.2L91.5,152.2c0.2-0.2,0.2-0.3,0.1-0.5c-0.1-0.1-0.2-0.2-0.3-0.3c-0.4-0.3-0.8-0.3-1.1-0.2
	c-0.3,0.3-0.2,0.5,0.2,0.8C90.9,152.3,91.2,152.3,91.5,152.2z"/>
<path id="Layer1_2_MEMBER_13_1_STROKES_1_" class="st7" d="M91.6,152c0.1-0.1,0.1-0.2,0-0.4c-0.1-0.1-0.2-0.2-0.3-0.3
	c-0.4-0.3-0.8-0.3-1.1-0.2c-0.3,0.3-0.2,0.5,0.2,0.8C90.8,152.3,91.2,152.3,91.6,152L91.6,152z"/>
<path class="st6" d="M103.7,158.2L103.7,158.2c0.2-0.4,0-0.6-0.5-0.7c-0.4-0.1-0.8-0.1-1,0.1c-0.3,0.3-0.2,0.5,0.3,0.7
	C103,158.5,103.4,158.4,103.7,158.2z"/>
<path id="Layer1_2_MEMBER_14_1_STROKES_1_" class="st7" d="M103.7,158.1c0.1-0.3,0-0.5-0.5-0.6c-0.4-0.1-0.8-0.1-1,0.1
	c-0.3,0.3-0.2,0.5,0.3,0.7C102.9,158.4,103.3,158.4,103.7,158.1L103.7,158.1z"/>
<path d="M214.1,91.9l-2.3,0.6l-1.6,1.7l-0.6,2.2l0.1,0.7l0.4,1.4l1.5,0.5l1.1,1l0.5,1.6l-0.1,0.5l-0.3,1v0.1l2.6-4.7
	c1.1-2,1.3-4,0.5-6.2l-0.5-0.2L214.1,91.9 M259,92.1l-0.6,0.2v0.1c-0.2,0.5-0.3,1.1-0.3,1.7c-0.1,0.5-0.1,1-0.1,1.5
	c0.1,0.3,0.1,0.7,0.2,1l0.6,1.8c0.1,0,0.1,0.1,0.2,0.2l0.6,1.1l1.8,3l-0.2-0.5v-0.5l0.5-1.6l1-1l1.5-0.5l0.5-1.4l0.1-0.7l-0.6-2.2
	l-1.6-1.7l-2.3-0.6L259,92.1z"/>
<path class="st8" d="M264.2,98.5l-1.5,0.5l-1,1l-0.5,1.6v0.5l0.2,0.5l0.1,0.1l0.2,0.5l1.4,2.4l0.2,1.3l-0.6,1.9l-1.3,1.3l-1.9,0.5
	h-44.5L213,110l-1.3-1.3l-0.6-1.9l0.2-1.3l0.8-1.5l0.2-0.2l0.4-0.7l0.3-1l0.1-0.5l-0.5-1.6l-1.1-1l-1.5-0.5h-14.8v23H279v-23H264.2z
	"/>
<path class="st1" d="M263.5,73.5L262,72l-2.2-0.6l-1.7,0.3l-1.4,1l-1,1.4l-4.4,12.4l-1,1.4l-1.4,1l-1.7,0.4h-4.8V79.3l-1.2-1.8
	l-1,1.8l-1.1-1.8l-1,1.8l-1.1-1.8l-1,1.8l-1.1-1.8l-1,1.8l-1.1-1.8l-1,1.8l-0.2,10.1h-4.7l-1.8-0.4l-1.4-1l-0.8-1.4l-4.5-12.4
	l-1-1.5l-1.4-1l-1.8-0.3l-2.2,0.6l-1.5,1.5l-0.6,2.2l0.2,1l5.6,15.6c0.8,2.2,0.6,4.3-0.5,6.2l-2.6,4.7l-0.4,0.6l-0.2,0.2l-0.8,1.5
	l-0.2,1.3l0.6,1.9l1.3,1.3l1.8,0.5h44.5l1.9-0.5l1.3-1.3l0.6-1.9l-0.2-1.3l-1.4-2.4l-2-3.5l-0.6-1.1c-0.1-0.1-0.1-0.2-0.2-0.2
	l-0.6-1.8c-0.1-0.4-0.1-0.7-0.2-1c-0.1-0.5,0-1,0.1-1.5c0.1-0.6,0.2-1.1,0.3-1.7v-0.1l5.7-15.6l0.1-0.5v-0.6L263.5,73.5z"/>
<path id="Layer1_3_MEMBER_1_1_STROKES" class="st9" d="M264.2,98.6h14.8"/>
<path id="Layer1_3_MEMBER_2_1_STROKES" class="st9" d="M259,98.6l2.7,4.6"/>
<path id="Layer1_3_MEMBER_3_1_STROKES" class="st9" d="M258.4,92.4c-0.7,2.3-0.5,4.4,0.6,6.2"/>
<path id="Layer1_3_MEMBER_4_1_STROKES" class="st9" d="M258.4,92.4c-0.7,2.3-0.5,4.4,0.6,6.2"/>
<path id="Layer1_3_MEMBER_5_1_STROKES" class="st9" d="M264.2,98.6l0.5-1.4l0.1-0.7l-0.6-2.3l-1.6-1.6l-2.3-0.6l-1.2,0.1l-0.6,0.2"
	/>
<path id="Layer1_3_MEMBER_6_1_STROKES" class="st9" d="M264.2,98.6l0.5-1.4l0.1-0.7l-0.6-2.3l-1.6-1.6l-2.3-0.6l-1.2,0.1l-0.6,0.2"
	/>
<path id="Layer1_3_MEMBER_7_1_STROKES" class="st9" d="M264.2,98.6l-1.5,0.4l-1.1,1.1l-0.5,1.6l0.1,0.5l0.1,0.5l0.2,0.5"/>
<path id="Layer1_3_MEMBER_8_1_STROKES" class="st9" d="M264.2,98.6l-1.5,0.4l-1.1,1.1l-0.5,1.6l0.1,0.5l0.1,0.5l0.2,0.5"/>
<path id="Layer1_3_MEMBER_9_1_STROKES" class="st9" d="M215.5,98.6l-3.6,6.4"/>
<path id="Layer1_3_MEMBER_10_1_STROKES" class="st9" d="M215.5,98.6c1.1-2,1.3-4.1,0.5-6.3"/>
<path id="Layer1_3_MEMBER_11_1_STROKES" class="st9" d="M215.5,98.6c1.1-2,1.3-4.1,0.5-6.3"/>
<path id="Layer1_3_MEMBER_12_1_STROKES" class="st9" d="M216,92.3l-0.6-0.2l-1.3-0.1l-2.3,0.6l-1.6,1.6l-0.6,2.3l0.1,0.7l0.1,0.6
	l0.3,0.7"/>
<path id="Layer1_3_MEMBER_13_1_STROKES" class="st9" d="M216,92.3l-0.6-0.2l-1.3-0.1l-2.3,0.6l-1.6,1.6l-0.6,2.3l0.1,0.7l0.1,0.6
	l0.3,0.7"/>
<path id="Layer1_3_MEMBER_14_1_STROKES" class="st9" d="M212.8,103.2l0.2-0.5l0.1-0.5l0.1-0.5l-0.4-1.6l-1.1-1.1l-1.5-0.4"/>
<path id="Layer1_3_MEMBER_15_1_STROKES" class="st9" d="M212.8,103.2l0.2-0.5l0.1-0.5l0.1-0.5l-0.4-1.6l-1.1-1.1l-1.5-0.4"/>
<path id="Layer1_3_MEMBER_16_1_STROKES" class="st9" d="M279.1,98.6v23h-41.9"/>
<path id="Layer1_3_MEMBER_17_1_STROKES" class="st9" d="M210.2,98.6h-14.8v23h41.9"/>
<path id="Layer1_3_MEMBER_18_1_STROKES" class="st9" d="M212.8,103.2l-1,1.9"/>
<path id="Layer1_3_MEMBER_19_1_STROKES" class="st9" d="M262.7,105.1l-1-1.9"/>
<path id="Layer1_3_MEMBER_20_1_STROKES" class="st9" d="M215,110.6h44.5"/>
<path id="Layer1_3_MEMBER_21_1_STROKES" class="st9" d="M241.4,77.6l1.1,1.8"/>
<path id="Layer1_3_MEMBER_22_1_STROKES" class="st9" d="M241.4,77.6l-1,1.8"/>
<path id="Layer1_3_MEMBER_23_1_STROKES" class="st9" d="M233,77.6l1.1,1.8"/>
<path id="Layer1_3_MEMBER_24_1_STROKES" class="st9" d="M233,77.6l-1,1.8"/>
<path id="Layer1_3_MEMBER_25_1_STROKES" class="st9" d="M239.3,77.6l1.1,1.8"/>
<path id="Layer1_3_MEMBER_26_1_STROKES" class="st9" d="M239.3,77.6l-1,1.8"/>
<path id="Layer1_3_MEMBER_27_1_STROKES" class="st9" d="M235.1,77.6l1.1,1.8"/>
<path id="Layer1_3_MEMBER_28_1_STROKES" class="st9" d="M235.1,77.6l-1.1,1.8"/>
<path id="Layer1_3_MEMBER_29_1_STROKES" class="st9" d="M237.2,77.6l1.1,1.8"/>
<path id="Layer1_3_MEMBER_30_1_STROKES" class="st9" d="M237.2,77.6l-1,1.8"/>
<path id="Layer1_3_MEMBER_31_1_STROKES" class="st9" d="M231.8,89.4h-4.7"/>
<path id="Layer1_3_MEMBER_32_1_STROKES" class="st9" d="M247.4,89.4h-4.8"/>
<path id="Layer1_3_MEMBER_33_1_STROKES" class="st9" d="M231.8,89.4v-10"/>
<path id="Layer1_3_MEMBER_34_1_STROKES" class="st9" d="M242.6,89.4v-10"/>
<path id="Layer1_3_MEMBER_35_1_STROKES" class="st9" d="M210.5,77.2l5.5,15.2"/>
<path id="Layer1_3_MEMBER_36_1_STROKES" class="st9" d="M223.1,86.6l-4.5-12.3"/>
<path id="Layer1_3_MEMBER_37_1_STROKES" class="st9" d="M255.8,74.3l-4.4,12.3"/>
<path id="Layer1_3_MEMBER_38_1_STROKES" class="st9" d="M258.4,92.3l5.4-15.2"/>
<path id="Layer1_3_MEMBER_39_1_STROKES" class="st9" d="M262.7,105.1l-3.7-6.4"/>
<path id="Layer1_3_MEMBER_40_1_STROKES" class="st9" d="M215,110.6h44.5"/>
<path id="Layer1_3_MEMBER_41_1_STROKES" class="st9" d="M264.2,98.6l-1.5,0.4l-1.1,1.1l-0.5,1.6l0.1,0.5l0.1,0.5l0.2,0.5"/>
<path id="Layer1_3_MEMBER_42_1_STROKES" class="st9" d="M264.2,98.6l-1.5,0.4l-1.1,1.1l-0.5,1.6l0.1,0.5l0.1,0.5l0.2,0.5"/>
<path id="Layer1_3_MEMBER_43_1_STROKES" class="st9" d="M211.8,105.1l-0.3,0.6l-0.2,0.6l-0.1,0.6l0.6,1.9l1.3,1.3l1.9,0.5"/>
<path id="Layer1_3_MEMBER_44_1_STROKES" class="st9" d="M211.8,105.1l-0.3,0.6l-0.2,0.6l-0.1,0.6l0.6,1.9l1.3,1.3l1.9,0.5"/>
<path id="Layer1_3_MEMBER_45_1_STROKES" class="st9" d="M259.5,110.6l1.9-0.5l1.3-1.3l0.5-1.9l-0.2-1.3l-0.3-0.6"/>
<path id="Layer1_3_MEMBER_46_1_STROKES" class="st9" d="M259.5,110.6l1.9-0.5l1.3-1.3l0.5-1.9l-0.2-1.3l-0.3-0.6"/>
<path id="Layer1_3_MEMBER_47_1_STROKES" class="st9" d="M211.8,105.1l-0.3,0.6l-0.2,0.6l-0.1,0.6l0.6,1.9l1.3,1.3l1.9,0.5"/>
<path id="Layer1_3_MEMBER_48_1_STROKES" class="st9" d="M211.8,105.1l-0.3,0.6l-0.2,0.6l-0.1,0.6l0.6,1.9l1.3,1.3l1.9,0.5"/>
<path id="Layer1_3_MEMBER_49_1_STROKES" class="st9" d="M218.6,74.2l-0.9-1.5l-1.4-0.9l-1.7-0.4l-2.1,0.6l-1.5,1.5l-0.6,2.2l0.1,1
	l0.1,0.4"/>
<path id="Layer1_3_MEMBER_50_1_STROKES" class="st9" d="M218.6,74.2l-0.9-1.5l-1.4-0.9l-1.7-0.4l-2.1,0.6l-1.5,1.5l-0.6,2.2l0.1,1
	l0.1,0.4"/>
<path id="Layer1_3_MEMBER_51_1_STROKES" class="st9" d="M223.1,86.6L224,88l1.4,1l1.7,0.4"/>
<path id="Layer1_3_MEMBER_52_1_STROKES" class="st9" d="M223.1,86.6L224,88l1.4,1l1.7,0.4"/>
<path id="Layer1_3_MEMBER_53_1_STROKES" class="st9" d="M247.4,89.4L249,89l1.4-1l0.9-1.4"/>
<path id="Layer1_3_MEMBER_54_1_STROKES" class="st9" d="M247.4,89.4L249,89l1.4-1l0.9-1.4"/>
<path id="Layer1_3_MEMBER_55_1_STROKES" class="st9" d="M264,77.2l0.1-0.4l0.1-0.5v-0.5l-0.6-2.2l-1.5-1.5l-2.2-0.6l-1.7,0.4l-1.4,1
	l-0.9,1.5"/>
<path id="Layer1_3_MEMBER_56_1_STROKES" class="st9" d="M264,77.2l0.1-0.4l0.1-0.5v-0.5l-0.6-2.2l-1.5-1.5l-2.2-0.6l-1.7,0.4l-1.4,1
	l-0.9,1.5"/>
<path id="Layer1_3_MEMBER_57_1_STROKES" class="st9" d="M258.4,92.4c-0.7,2.3-0.5,4.4,0.6,6.2"/>
<path id="Layer1_3_MEMBER_58_1_STROKES" class="st9" d="M258.4,92.4c-0.7,2.3-0.5,4.4,0.6,6.2"/>
<path id="Layer1_3_MEMBER_59_1_STROKES" class="st9" d="M259.5,110.6l1.9-0.5l1.3-1.3l0.5-1.9l-0.2-1.3l-0.3-0.6"/>
<path id="Layer1_3_MEMBER_60_1_STROKES" class="st9" d="M259.5,110.6l1.9-0.5l1.3-1.3l0.5-1.9l-0.2-1.3l-0.3-0.6"/>
</svg>
