<?xml version="1.0" encoding="utf-8"?>
<!-- Generator: Adobe Illustrator 24.2.1, SVG Export Plug-In . SVG Version: 6.00 Build 0)  -->
<svg version="1.1" id="Ebene_1" xmlns="http://www.w3.org/2000/svg" xmlns:xlink="http://www.w3.org/1999/xlink" x="0px" y="0px"
	 viewBox="0 0 650 274" style="enable-background:new 0 0 650 274;" xml:space="preserve">
<style type="text/css">
	.st0{fill:none;stroke:#000000;stroke-width:0.25;stroke-linecap:square;stroke-linejoin:round;}
	.st1{fill:none;stroke:#000000;stroke-width:0.55;stroke-linecap:square;stroke-linejoin:round;}
	.st2{fill:#ED1C24;}
	.st3{fill:none;stroke:#231F20;stroke-width:0.55;stroke-miterlimit:6;}
	.st4{fill:#FF9900;fill-opacity:0.8;}
	.st5{fill:#CCCCCC;fill-opacity:0.8;}
	.st6{fill:#0099FF;fill-opacity:0.8;}
	.st7{fill:#0099FF;}
	.st8{fill:#999999;fill-opacity:0.8;}
	.st9{fill:#999999;}
	.st10{fill:#CCCCCC;}
	.st11{enable-background:new    ;}
	.st12{font-family:'Tahoma';}
	.st13{font-size:15px;}
</style>
<path id="Layer0_0_MEMBER_0_1_STROKES" class="st0" d="M54.2,67l123.3-19"/>
<path id="Layer0_0_MEMBER_1_1_STROKES" class="st0" d="M177.5,48l38.8,111.3"/>
<path id="Layer0_0_MEMBER_2_1_STROKES" class="st1" d="M150.8,137.2l-41,23.7"/>
<path id="Layer0_0_MEMBER_3_1_STROKES" class="st1" d="M150.3,101.6l3.9-2.2"/>
<path id="Layer0_0_MEMBER_4_1_STROKES" class="st1" d="M94.6,133.8l15.8-9.1"/>
<path id="Layer0_0_MEMBER_5_1_STROKES" class="st1" d="M110.4,124.6l0.4-0.4l0.2-0.1l0.2-0.2l1.1-1.5l0.4-0.8l0.3-1.3l0-0.4v-1
	l0-0.2v-0.3l0-0.1V118l0.2-1.3l0.2-0.4l0.9-1l0.2-0.1l0.2-0.2l0.1-0.1l0.1-0.1l1.5-1"/>
<path id="Layer0_0_MEMBER_6_1_STROKES" class="st1" d="M150.3,101.6l-19.4,6.2"/>
<path id="Layer0_0_MEMBER_7_1_STROKES" class="st1" d="M162,100.3l-11.1,6.4"/>
<path id="Layer0_0_MEMBER_8_1_STROKES" class="st1" d="M144.6,115.8l-13.8-7.9"/>
<path id="Layer0_0_MEMBER_9_1_STROKES" class="st1" d="M116.6,113.8l15.8,9"/>
<path id="Layer0_0_MEMBER_10_1_STROKES" class="st1" d="M160.8,98.5l-19.6,11.3"/>
<path id="Layer0_0_MEMBER_11_1_STROKES" class="st1" d="M150.9,106.6l-9.8,3.1"/>
<path id="Layer0_0_MEMBER_12_1_STROKES" class="st1" d="M150.3,101.7l1.5,1.8"/>
<path id="Layer0_0_MEMBER_13_1_STROKES" class="st1" d="M154.2,105l3.5,1"/>
<path id="Layer0_0_MEMBER_14_1_STROKES" class="st1" d="M159.9,109.9c0-1.7-0.7-3.1-2.1-4"/>
<path id="Layer0_0_MEMBER_15_1_STROKES" class="st1" d="M157.2,114.2c0.8-0.4,1.5-1,1.9-1.8c0.5-0.8,0.8-1.6,0.8-2.5"/>
<path id="Layer0_0_MEMBER_16_1_STROKES" class="st1" d="M133.4,129l-7.2,4.2"/>
<path id="Layer0_0_MEMBER_17_1_STROKES" class="st1" d="M118.4,126.5c-1.5-1.4-3.3-2-5.3-2c-1.3,0-2.6,0.3-3.8,1"/>
<path id="Layer0_0_MEMBER_18_1_STROKES" class="st1" d="M118.4,126.4l0.7,0.8l0.5,0.9l0.3,1l0.2,1"/>
<path id="Layer0_0_MEMBER_19_1_STROKES" class="st1" d="M120.1,130.1c0,1.1,0.4,2,1.1,2.7c0.8,0.7,1.7,1.1,2.8,1.1
	c0.8,0,1.5-0.2,2.2-0.6"/>
<path id="Layer0_0_MEMBER_20_1_STROKES" class="st1" d="M119.9,92.7l20.9,12"/>
<path id="Layer0_0_MEMBER_21_1_STROKES" class="st1" d="M109.9,88.9L36.5,51.3"/>
<path id="Layer0_0_MEMBER_22_1_STROKES" class="st1" d="M27.8,57.1l-0.6-0.4l-0.4-0.5l-0.1-0.3v-0.2"/>
<path id="Layer0_0_MEMBER_23_1_STROKES" class="st1" d="M153.6,138.3l-23-11.1"/>
<path id="Layer0_0_MEMBER_24_1_STROKES" class="st1" d="M177.4,125.8l-22.6-13.1"/>
<path id="Layer0_0_MEMBER_25_1_STROKES" class="st1" d="M182.6,130.7l67.8,43.5"/>
<path id="Layer0_0_MEMBER_26_1_STROKES" class="st1" d="M240.5,178.3l9.9-4.1"/>
<path id="Layer0_0_MEMBER_27_1_STROKES" class="st1" d="M237.9,177.7l0.3,0.2l0.4,0.1l0.9,0.2l0.9,0.1"/>
<path id="Layer0_0_MEMBER_28_1_STROKES" class="st1" d="M139.8,148.7l-0.2,0.2l-2.2,2.4l-0.7,1l-0.2,0.2l-0.8,1.4l-0.1,0.3l-0.1,0.2
	l-0.1,0.5v0.4l0.1,0.1l0.1,0.1v0.1l0.2,0.2l0.9,0.2h1l1.5-0.3l0.3-0.1l0.3,0l1.3-0.4l1.7-0.7l0.3-0.1"/>
<path id="Layer0_0_MEMBER_29_1_STROKES" class="st1" d="M157.9,135.5l-12.1,7.8l-5.6,4.9l-0.3,0.4"/>
<path id="Layer0_0_MEMBER_30_1_STROKES" class="st1" d="M144.9,159.7l0.2-0.1l0.4-0.2l0.6-0.2l1.1-0.5"/>
<path id="Layer0_0_MEMBER_31_1_STROKES" class="st1" d="M161.1,140l-0.1,0.2l-0.1,0.1l-0.1,0.2l-0.1,0.1v0.5l0.1,0.1v0.1l0.1,0.1
	l0.1,0.1l0.1,0.1l0.1,0v0.1l0.1,0.1l0.1,0"/>
<path id="Layer0_0_MEMBER_32_1_STROKES" class="st1" d="M147.3,158.6l16.6-8.9l0.6-0.2"/>
<path id="Layer0_0_MEMBER_33_1_STROKES" class="st1" d="M194.8,129.2l2.1-1.9l1.5-1.9l0.2-0.4l0.2-0.4l0.1-0.2l0.2-1.1V123l-0.1-0.3
	l-0.1-0.1l-0.1-0.1l-0.1-0.2l-0.1-0.2l-0.2-0.1l-0.3-0.3l-0.4-0.2"/>
<path id="Layer0_0_MEMBER_34_1_STROKES" class="st1" d="M143.1,154.4l0.3-0.1l0.3-0.4l0.1-0.5l0.1-0.5l-0.1-0.5l-0.4-1.4l-0.8-1.1
	l-0.4-0.5l-0.5-0.4l-0.5-0.2l-0.5-0.1l-0.5,0l-0.3,0.1"/>
<path id="Layer0_0_MEMBER_35_1_STROKES" class="st1" d="M142.2,155.7l1.2,0.8"/>
<path id="Layer0_0_MEMBER_36_1_STROKES" class="st1" d="M143.5,158.7l0.2,0.1h0.2l0.2-0.1l0.2-0.1l0.1-0.2v-0.8l-0.1-0.3l-0.2-0.3
	l-0.4-0.4l-0.2-0.2"/>
<path id="Layer0_0_MEMBER_37_1_STROKES" class="st1" d="M143.6,159.8l-2.9-1.8"/>
<path id="Layer0_0_MEMBER_38_1_STROKES" class="st1" d="M189.9,122l0.2,0.1l0.2,0.1l0.1,0.1l0.2,0.1l0.5,0.3l0.6,0.6l0.1,0.2
	l0.1,0.1l0.1,0.1l0.1,0.1l0.1,0.1l0.3,0.1l0.1,0h0.4l0.1,0h0.3l0.3,0l0.4-0.2l2.5-0.8l0.6-0.4l0.3-0.3l0.2-0.3l0.1-0.2v-0.4
	l-0.1-0.1l-0.1-0.1h-0.1l-0.2,0h-0.1l-0.2-0.1l-0.1,0h-0.2l-0.2,0h-1l-2.5,0.2l-0.6,0.2l-0.4,0.1l-0.3,0.1l-0.9,0.1l-0.4,0
	 M189.6,121.8l0.3,0.2l0.4-0.1 M189.6,121.8h-0.1l-0.9-0.3h-0.2l-0.2,0h-0.4 M189.9,122L189.9,122"/>
<path id="Layer0_0_MEMBER_39_1_STROKES" class="st1" d="M164.5,149.5l5-3"/>
<path id="Layer0_0_MEMBER_40_1_STROKES" class="st1" d="M238.2,177.9l-76.4-35.6"/>
<path id="Layer0_0_MEMBER_41_1_STROKES" class="st1" d="M182.6,130.7l-2.9,0.6l-4.6,1.8"/>
<path id="Layer0_0_MEMBER_42_1_STROKES" class="st1" d="M194.8,129.2l-6.2,4.5"/>
<path id="Layer0_0_MEMBER_43_1_STROKES" class="st1" d="M119.9,92.7l-7.6,1.9l-1.9,0.9"/>
<path id="Layer0_0_MEMBER_44_1_STROKES" class="st1" d="M95.7,104.9l17.7,12"/>
<path id="Layer0_0_MEMBER_45_1_STROKES" class="st1" d="M95.4,103.4L95.4,103.4l0,0.2l-0.1,0.1v0.3l0.1,0.1v0l0,0.1l0.1,0.1l0.2,0.5
	"/>
<path id="Layer0_0_MEMBER_46_1_STROKES" class="st1" d="M88.2,100.2L27.8,57.1"/>
<path id="Layer0_0_MEMBER_47_1_STROKES" class="st1" d="M143.1,154.4l0.3-0.1l0.3,0h0.4l0.3,0.1l0.9,0.4"/>
<path id="Layer0_0_MEMBER_48_1_STROKES" class="st1" d="M139.6,156.6l0.1,0.2l0.2,0.2l0.1,0.3l0.2,0.2l0.2,0.2l0.2,0.1"/>
<path id="Layer0_0_MEMBER_49_1_STROKES" class="st1" d="M74.2,110.8l-2.1,2.3l-0.9,1.2l-0.2,0.2l-0.2,0.2l-0.1,0.2l-0.2,0.2
	l-0.2,0.4l-0.3,0.9l-0.1,0.2l-0.1,0.2v0.4l0.1,0.2l0,0v0.1l0.2,0.1l0.1,0l0.1,0.1h0.2l0.2,0.1h0.4l0.3,0h0.3l0.7-0.1h0.4l0.8-0.2
	l0.4-0.1l1-0.3l2.3-0.9l0.2-0.1"/>
<path id="Layer0_0_MEMBER_50_1_STROKES" class="st1" d="M92.9,97.2L81,104.9l-1.4,1l-5.3,4.7"/>
<path id="Layer0_0_MEMBER_51_1_STROKES" class="st1" d="M79.3,121.8l2.2-1"/>
<path id="Layer0_0_MEMBER_52_1_STROKES" class="st1" d="M81.8,120.7l17.1-9.1"/>
<path id="Layer0_0_MEMBER_53_1_STROKES" class="st1" d="M129.1,91.3l2.1-1.9l1.6-1.9l0.4-0.8l0.1-0.2v-0.1l0.1-0.8l0.1-0.1v-0.5
	l-0.1-0.4l-0.1-0.1l0-0.2l-0.2-0.3l-0.2-0.2l-0.1-0.1l-0.2-0.1l-0.2-0.1l-0.3-0.1"/>
<path id="Layer0_0_MEMBER_54_1_STROKES" class="st1" d="M77.4,116.6l0.6-0.5l0.1-0.5l0.1-0.5l-0.1-0.6l-0.1-0.6l-0.6-1.3l-0.4-0.6
	l-0.5-0.5l-0.9-0.7l-0.5-0.1h-0.4l-0.4,0.1"/>
<path id="Layer0_0_MEMBER_55_1_STROKES" class="st1" d="M76.6,117.8l1.3,0.8"/>
<path id="Layer0_0_MEMBER_56_1_STROKES" class="st1" d="M78.1,120.9h0.4l0.2-0.1l0.1-0.2l0.1-0.2v-0.3l-0.1-0.3l-0.1-0.3l-0.3-0.5
	l-0.5-0.4"/>
<path id="Layer0_0_MEMBER_57_1_STROKES" class="st1" d="M78,121.9l-3-1.7"/>
<path id="Layer0_0_MEMBER_58_1_STROKES" class="st1" d="M123.4,83.7h0.2l0.1,0.1l0.2,0l0.1,0.1l0.3,0.1l0.3-0.1l1.3-0.1l0.7-0.1
	l0.6-0.2l1.4-0.2h2.7l0.4,0.1h0.1l0.1,0.1l0.1,0.1l0.1,0.1l0.1,0.1v0.1l-0.1,0.1l-0.1,0.3l-0.2,0.3l-0.2,0.1l-0.2,0.2l-0.3,0.1
	l-0.3,0.2l-1.7,0.6l-1.7,0.4h-0.3l-0.2-0.1l-0.2-0.2l-0.1,0l-0.1-0.1l-0.1-0.1l-0.1-0.2l-0.2-0.1l-0.2-0.3l-0.2-0.2l-0.1-0.1
	l-0.3-0.2l-0.2-0.1l-0.2-0.1l-0.2-0.1l-0.1-0.1l-0.2-0.1"/>
<path id="Layer0_0_MEMBER_59_1_STROKES" class="st1" d="M98.9,111.6l3.6-2"/>
<path id="Layer0_0_MEMBER_60_1_STROKES" class="st1" d="M129.1,91.3l-4.6,3.4"/>
<path id="Layer0_0_MEMBER_61_1_STROKES" class="st1" d="M77.4,116.5l0.4-0.1l0.3,0l0.4,0l1,0.4"/>
<path id="Layer0_0_MEMBER_62_1_STROKES" class="st1" d="M73.9,118.6L74,119l0.1,0.3l0.4,0.5l0.2,0.1l0.2,0.2"/>
<path id="Layer0_0_MEMBER_63_1_STROKES" class="st1" d="M244.9,175.2l-4.2-2.8"/>
<path id="Layer0_0_MEMBER_64_1_STROKES" class="st1" d="M240.8,172.4l3.1-0.5"/>
<path id="Layer0_0_MEMBER_65_1_STROKES" class="st1" d="M243.8,171.9l-63.2-40.6"/>
<path id="Layer0_0_MEMBER_66_1_STROKES" class="st1" d="M174.6,127.2L151,113.7"/>
<path id="Layer0_0_MEMBER_67_1_STROKES" class="st1" d="M154.8,112.7l-10.2,3.1"/>
<path id="Layer0_0_MEMBER_68_1_STROKES" class="st1" d="M163.1,137.9l-5.2-2.4"/>
<path id="Layer0_0_MEMBER_69_1_STROKES" class="st1" d="M98,100.9l-5.1-3.7"/>
<path id="Layer0_0_MEMBER_70_1_STROKES" class="st1" d="M137.1,105.9l-21.2-12.2"/>
<path id="Layer0_0_MEMBER_71_1_STROKES" class="st1" d="M226.2,158.7l-4.7,1.8"/>
<path id="Layer0_0_MEMBER_72_1_STROKES" class="st1" d="M221.5,160.5l-31.8-20.4"/>
<path id="Layer0_0_MEMBER_73_1_STROKES" class="st1" d="M189.7,140.1l2.7-1.1"/>
<path id="Layer0_0_MEMBER_74_1_STROKES" class="st1" d="M204.1,149.3l2.9-1.1"/>
<path id="Layer0_0_MEMBER_75_1_STROKES" class="st1" d="M130.6,127.2l-0.4-1.2l0.2-1.1l0.8-1.2l1.3-0.9"/>
<path id="Layer0_0_MEMBER_76_1_STROKES" class="st1" d="M175.1,133.1l-5.9-3.5"/>
<path id="Layer0_0_MEMBER_77_1_STROKES" class="st1" d="M161.2,139.9l1.9-2"/>
<path id="Layer0_0_MEMBER_78_1_STROKES" class="st1" d="M95.8,102.8l0.6-0.8l0.8-0.6l0.9-0.5"/>
<path id="Layer0_0_MEMBER_79_1_STROKES" class="st1" d="M104.1,91.7l6.4,3.7"/>
<path id="Layer0_0_MEMBER_80_1_STROKES" class="st1" d="M107.9,89.9L37.3,53.6"/>
<path id="Layer0_0_MEMBER_81_1_STROKES" class="st1" d="M37.3,53.6L34,55.1"/>
<path id="Layer0_0_MEMBER_82_1_STROKES" class="st1" d="M34,55.1l-3.4-1.7"/>
<path id="Layer0_0_MEMBER_83_1_STROKES" class="st1" d="M26.8,55.7l4.3-2.6l5.4-1.8"/>
<path id="Layer0_0_MEMBER_84_1_STROKES" class="st1" d="M57.5,62.2l-4.8,1.5"/>
<path id="Layer0_0_MEMBER_85_1_STROKES" class="st1" d="M52.7,63.7l35,17.9"/>
<path id="Layer0_0_MEMBER_86_1_STROKES" class="st1" d="M87.8,81.6l2.2-1"/>
<path id="Layer0_0_MEMBER_87_1_STROKES" class="st1" d="M69.4,72.2l2.6-0.8"/>
<path id="Layer0_0_MEMBER_88_1_STROKES" class="st1" d="M93,79.3l0.3,0.1l0.1,0"/>
<path id="Layer0_0_MEMBER_89_1_STROKES" class="st1" d="M196.6,139.1h0.5l0.2,0.1l0.2,0.1l0.1,0.1l0.2,0.2v0.2l-0.1,0.1"/>
<path id="Layer0_0_MEMBER_90_1_STROKES" class="st1" d="M220.8,154.9h0.2l0.1,0l0.2,0h0.3l0.3,0.1l0.1,0.1l0.1,0l0.1,0l0.1,0.1"/>
<path id="Layer0_0_MEMBER_91_1_STROKES" class="st1" d="M159.4,99.1l-1.1-0.3l-2.1-0.1l-1.8,0.6l-0.2,0.2"/>
<path id="Layer0_0_MEMBER_92_1_STROKES" class="st1" d="M172.4,122.6l0.4-1.3l0.2-2.6l-0.3-2.8l-2-5.9l-3.5-5.4l-2.1-2.2l-2.2-1.8
	l-0.6-0.3"/>
<path id="Layer0_0_MEMBER_93_1_STROKES" class="st1" d="M94.5,133.9c2.1-1.2,4.7-1,7.8,0.8c3,1.8,5.6,4.5,7.8,8.2
	c2.1,3.7,3.2,7.3,3.2,10.8c0,3.5-1.1,5.8-3.2,7.1s-4.7,1-7.8-0.8c-3-1.8-5.6-4.5-7.8-8.2c-2.1-3.7-3.2-7.4-3.2-10.9
	C91.3,137.5,92.4,135.1,94.5,133.9z"/>
<path id="Layer0_0_MEMBER_94_1_STROKES" class="st1" d="M162.1,100.4l0-0.2v-0.7l-0.1-0.2l-0.2-0.4l-0.1-0.1l-0.1-0.1l-0.1-0.1v0
	l0-0.1l-0.1,0l-0.1,0h-0.1"/>
<path id="Layer0_0_MEMBER_95_1_STROKES" class="st1" d="M135.1,133.8L135.1,133.8L135.1,133.8L135.1,133.8L135.1,133.8l0.1,0h0.1v0
	h0.1l0.1,0.1h0.1"/>
<path id="Layer0_0_MEMBER_96_1_STROKES" class="st1" d="M134.6,137.6h-0.3l-0.1,0h-0.1v-0.2h-0.1"/>
<path id="Layer0_0_MEMBER_97_1_STROKES" class="st1" d="M135.1,133.9l-0.3,0.1l-0.2,0.2l-0.3,0.1"/>
<path id="Layer0_0_MEMBER_98_1_STROKES" class="st1" d="M134.7,137.6l0.3-0.1l0.8-0.5"/>
<path id="Layer0_0_MEMBER_99_1_STROKES" class="st1" d="M134.1,137.1l-0.1-0.5l-0.3-1"/>
<path id="Layer0_0_MEMBER_100_1_STROKES" class="st1" d="M136.1,135.8l0-0.5l-0.5-1.4"/>
<path id="Layer0_0_MEMBER_101_1_STROKES" class="st1" d="M133.9,134.6L133.9,134.6l-0.1,0.1h0l-0.1,0v0.4l-0.1,0"/>
<path id="Layer0_0_MEMBER_102_1_STROKES" class="st1" d="M131.1,136.2h0.3v0h0.1v0.1"/>
<path id="Layer0_0_MEMBER_103_1_STROKES" class="st1" d="M130.2,139.9l-0.2-0.1v-0.1l0,0"/>
<path id="Layer0_0_MEMBER_104_1_STROKES" class="st1" d="M130.9,136.2l-0.2,0.1l-0.2,0.2l-0.3,0.1"/>
<path id="Layer0_0_MEMBER_105_1_STROKES" class="st1" d="M130.6,139.9l0.3-0.1l0.8-0.5"/>
<path id="Layer0_0_MEMBER_106_1_STROKES" class="st1" d="M130.1,139.4l-0.1-0.5l-0.4-1"/>
<path id="Layer0_0_MEMBER_107_1_STROKES" class="st1" d="M132.1,138.2l-0.1-0.5l-0.4-1.4"/>
<path id="Layer0_0_MEMBER_108_1_STROKES" class="st1" d="M129.8,137L129.8,137l0,0.2h-0.1l-0.1,0v0.1l-0.1,0.1v0.1"/>
<path id="Layer0_0_MEMBER_109_1_STROKES" class="st1" d="M127.2,138.5L127.2,138.5h0.1h0.1v0.1"/>
<path id="Layer0_0_MEMBER_110_1_STROKES" class="st1" d="M126.2,142.2L126.2,142.2L126.2,142.2l-0.1-0.1V142l-0.1-0.1v-0.1"/>
<path id="Layer0_0_MEMBER_111_1_STROKES" class="st1" d="M127,138.5l-0.2,0.1l-0.3,0.2l-0.3,0.1"/>
<path id="Layer0_0_MEMBER_112_1_STROKES" class="st1" d="M126.7,142.2l1-0.6"/>
<path id="Layer0_0_MEMBER_113_1_STROKES" class="st1" d="M126.1,141.7l-0.4-1.5"/>
<path id="Layer0_0_MEMBER_114_1_STROKES" class="st1" d="M128.1,140.5L128,140l-0.4-1.3"/>
<path id="Layer0_0_MEMBER_115_1_STROKES" class="st1" d="M125.8,139.3l0,0.1l-0.1,0v0.1l-0.1,0v0.1l-0.1,0.1"/>
<path id="Layer0_0_MEMBER_116_1_STROKES" class="st1" d="M128.1,140.7l0.1,0.1l-0.1,0.5l-0.1,0.1"/>
<path id="Layer0_0_MEMBER_117_1_STROKES" class="st1" d="M122.6,144.6h-0.2v0.1h0v-0.1h-0.2l-0.1-0.1v0h-0.1v-0.1"/>
<path id="Layer0_0_MEMBER_118_1_STROKES" class="st1" d="M122.9,140.8l-0.3,0.1l-0.2,0.2l-0.2,0.1"/>
<path id="Layer0_0_MEMBER_119_1_STROKES" class="st1" d="M122.6,144.5l0.3-0.1l0.2-0.2l0.5-0.3"/>
<path id="Layer0_0_MEMBER_120_1_STROKES" class="st1" d="M121.9,144.1l-0.3-1.5"/>
<path id="Layer0_0_MEMBER_121_1_STROKES" class="st1" d="M124,142.8l-0.1-0.5l-0.4-1.4"/>
<path id="Layer0_0_MEMBER_122_1_STROKES" class="st1" d="M121.6,141.9L121.6,141.9l0,0.1"/>
<path id="Layer0_0_MEMBER_123_1_STROKES" class="st1" d="M119,143.2L119,143.2h-0.1H119z"/>
<path id="Layer0_0_MEMBER_124_1_STROKES" class="st1" d="M118.2,146.9l-0.1-0.1v-0.1l-0.1,0v-0.1H118"/>
<path id="Layer0_0_MEMBER_125_1_STROKES" class="st1" d="M118.9,143.2l-0.2,0.1l-0.2,0.2l-0.3,0.2"/>
<path id="Layer0_0_MEMBER_126_1_STROKES" class="st1" d="M118.6,146.9l0.3-0.2l0.8-0.5"/>
<path id="Layer0_0_MEMBER_127_1_STROKES" class="st1" d="M118,146.4l-0.1-0.6l-0.3-1"/>
<path id="Layer0_0_MEMBER_128_1_STROKES" class="st1" d="M120,145.1l-0.1-0.5l-0.4-1.4"/>
<path id="Layer0_0_MEMBER_129_1_STROKES" class="st1" d="M117.8,143.9L117.8,143.9l-0.1,0.1h-0.1v0.1l-0.1,0v0.1l0,0"/>
<path id="Layer0_0_MEMBER_130_1_STROKES" class="st1" d="M140.1,133.9L140.1,133.9L140.1,133.9l0,0.1l0.1,0v0.1h0.1l0.1,0v0h0.3v0h0
	l0.1,0v0h-0.1"/>
<path id="Layer0_0_MEMBER_131_1_STROKES" class="st1" d="M140.6,134.2l0.6-0.3l0.4-0.4"/>
<path id="Layer0_0_MEMBER_132_1_STROKES" class="st1" d="M140,133.6l-0.4-1.5"/>
<path id="Layer0_0_MEMBER_133_1_STROKES" class="st1" d="M169.9,113.8L169.9,113.8l0.4-0.1v0.1h0.1v0h0v0.1"/>
<path id="Layer0_0_MEMBER_134_1_STROKES" class="st1" d="M169.5,117.5h-0.4v-0.1h0v-0.1H169v-0.1l-0.1,0v-0.1l-0.1,0"/>
<path id="Layer0_0_MEMBER_135_1_STROKES" class="st1" d="M169.8,113.8l-0.3,0.1l-0.6,0.4"/>
<path id="Layer0_0_MEMBER_136_1_STROKES" class="st1" d="M169.5,117.5l0.3-0.1l0.8-0.5"/>
<path id="Layer0_0_MEMBER_137_1_STROKES" class="st1" d="M168.9,117l-0.4-1.5"/>
<path id="Layer0_0_MEMBER_138_1_STROKES" class="st1" d="M170.9,115.8l-0.4-1.9"/>
<path id="Layer0_0_MEMBER_139_1_STROKES" class="st1" d="M168.7,114.5l-0.1,0.1l-0.1,0v0l0,0.1v0.1l-0.1,0"/>
<path id="Layer0_0_MEMBER_140_1_STROKES" class="st1" d="M166,116.1L166,116.1L166,116.1L166,116.1h0.2v0.1h0.1v0l0.1,0"/>
<path id="Layer0_0_MEMBER_141_1_STROKES" class="st1" d="M165.8,116.1l-0.3,0.1l-0.2,0.2l-0.4,0.2"/>
<path id="Layer0_0_MEMBER_142_1_STROKES" class="st1" d="M166.8,118.1l-0.5-1.9"/>
<path id="Layer0_0_MEMBER_143_1_STROKES" class="st1" d="M164.8,116.7l-0.1,0.1l-0.2,0.1l0,0.1v0l-0.1,0.1v0l-0.1,0v0.1l-0.1,0.1"/>
<path id="Layer0_0_MEMBER_144_1_STROKES" class="st1" d="M187.4,121.4l-18.2,8.3"/>
<path id="Layer0_0_MEMBER_145_1_STROKES" class="st1" d="M122.1,83.5l-18,8.2"/>
<path id="Layer0_0_MEMBER_146_1_STROKES" class="st1" d="M115.2,145.3L115.2,145.3L115.2,145.3L115.2,145.3L115.2,145.3l0.1,0h0.1
	l0.1,0h0.1l0.1,0.1h0"/>
<path id="Layer0_0_MEMBER_147_1_STROKES" class="st1" d="M114.8,149.1L114.8,149.1l-0.3,0.1v-0.1h-0.1v0h-0.1v-0.1h-0.1"/>
<path id="Layer0_0_MEMBER_148_1_STROKES" class="st1" d="M115.1,145.4l-0.3,0.1l-0.6,0.4"/>
<path id="Layer0_0_MEMBER_149_1_STROKES" class="st1" d="M114.8,149.1l0.3-0.1l0.8-0.5"/>
<path id="Layer0_0_MEMBER_150_1_STROKES" class="st1" d="M114.2,148.5l-0.1-0.5l-0.3-1"/>
<path id="Layer0_0_MEMBER_151_1_STROKES" class="st1" d="M116.2,147.3l-0.5-1.9"/>
<path id="Layer0_0_MEMBER_152_1_STROKES" class="st1" d="M113.9,146.2v0.1l-0.1,0.1v0h-0.1v0.5"/>
<path id="Layer0_0_MEMBER_153_1_STROKES" class="st1" d="M244.9,175.2l0.4,0.3l0.2,0.1l0.1,0.2l0.1,0.2"/>
<path class="st2" d="M54.8,64.2L49,67.5l5.7,2.8l5.7-3.3L54.8,64.2z"/>
<path id="Layer0_0_MEMBER_154_1_STROKES" class="st1" d="M54.8,64.2l5.7,2.8l-5.7,3.3L49,67.5L54.8,64.2z"/>
<path class="st2" d="M216.1,156.1l-6,2.7l5.4,3.4l6.1-2.7L216.1,156.1z"/>
<path id="Layer0_0_MEMBER_155_1_STROKES" class="st1" d="M216.1,156.1l5.4,3.3l-6.1,2.7l-5.4-3.4L216.1,156.1z"/>
<path class="st2" d="M176.2,35.6c-1.7,1.7-2.5,3.7-2.5,6.1s0.8,4.4,2.5,6.1c1.7,1.7,3.7,2.5,6.1,2.5c2.4,0,4.4-0.8,6.1-2.5
	c1.7-1.7,2.5-3.7,2.5-6.1c0-2.4-0.8-4.4-2.5-6.1c-1.7-1.7-3.7-2.5-6.1-2.5S177.9,33.9,176.2,35.6z"/>
<path id="Layer0_0_MEMBER_156_1_STROKES" class="st3" d="M173.7,41.7c0,2.4,0.8,4.4,2.5,6.1c1.7,1.7,3.7,2.5,6.1,2.5
	c2.4,0,4.4-0.8,6.1-2.5c1.7-1.7,2.5-3.7,2.5-6.1c0-2.4-0.8-4.4-2.5-6.1c-1.7-1.7-3.7-2.5-6.1-2.5s-4.4,0.8-6.1,2.5
	C174.5,37.3,173.7,39.3,173.7,41.7z"/>
<path class="st4" d="M566.4,192.8l-2,1l-1.8,2v0.1l-0.2,0.1l-0.2,0.3l-0.1,0.1l-0.2,0.1l-0.9,1.8v0.2l-0.1,0.4l-0.4,1l-0.1,0.4
	l-0.2,0.2v0l0,0.2l-0.1,0.6v0.4l0,0.4v0.6l0.2,0.9l0.1,0.2l0.1,0.4l0.1,0.1l0,0.2v0.1l0.8,0.8l0.7,0.3l0.3,0l0.1,0.1h0.3l0.2,0.1
	l1.8-0.5l0.4,0.2l0.1,0.1l0.3,0.2l2.2,0.5v1.1l0,0.4l0,0.5l-0.1,8.2l0.1,0.1h0l-0.3,8.3l4.4,2.2l0.1-0.6l0.5-9.9l-0.8,0.3l1.2-1.1
	l1.3-7.2l0.2-3.4l-0.3-2.6l-1.2-2.8l-1.1-1l0.2-0.9l-0.1-0.5l-0.4-1.4l-0.6-0.5l-0.8-0.4v-0.4l-0.5-1.5l-0.2-0.2v-0.1l-0.2-0.2
	l-0.9-0.5l-0.5-0.2l-1.2,0.1L566.4,192.8z"/>
<path class="st5" d="M534.5,110.2l-1.8-0.2l-1.1,0.5l-0.9,0.7l-1.5,1.8l-0.3,0.6l-1.1,2.8v2.3l1.1,1.6l1.2,0.8l1.8,0.2l0.9-0.6
	l0.5-0.2l0.9-0.7l0.9-1.3l0.6-0.5l0.6-1.4l0.2-0.5l0.2-0.5l0.3-1.1v0v-1l-0.2-0.8l-1-1.4h-0.1L534.5,110.2 M508.3,72.9l0.5,1.1
	l1.3,0.8L512,75l1.9-0.2l1.3-0.8l0.5-1.1l-0.5-1.1l-1.3-0.8l-1.9-0.2l-1.8,0.2l-1.3,0.8L508.3,72.9z"/>
<path class="st2" d="M518.3,156.8l1.1,4.4l1.3,1.6l2.3,1.2l4,2.1l1.4,0.1l1.2-0.9l0.1-0.1l14.8,8.1l-6.1,20.8l13.9,8.1l1.1,0.8
	l4.1-0.4h0.1l4.1,3.1l1.1,0.1l-0.2-0.2l-0.1-0.1l-0.2-0.1l-0.2-0.3V205l0-0.2l-0.1-0.1l-0.1-0.4l-0.1-0.2l-0.2-0.4V203v-0.6l0-0.4
	v-0.4v-0.4l0.1-0.1v-0.1l0-0.1v0l0.2-0.2l0.1-0.4l0.4-1l0.1-0.4v-0.2v-0.1l0.1-0.6l0.5-0.7l0.2-0.4l0.2-0.1l0.1-0.1l0.2-0.3l0.2-0.1
	V196l1.8-2l2-1l1.3-0.7v-0.1l-2.6-1V191l0.2-0.1l0.2-0.5v-0.2l0.1-0.2v-0.5l0.1-0.2l0.1-0.1V189l0.1-0.1v-0.1l0.1-0.1l0.1-0.1v-0.3
	l0.2-0.7v-0.4l0.5-1.1l0-0.3l0.5-1v-0.2l0.2-0.9l0.2-0.5l0.6-2l0-0.1v-0.2l0.3-1.1l0.1-0.5l0.2-0.4l0.1-0.4l0.1-0.3V178l0.1-0.1
	l0.1-0.7l0.4-1l0.2-0.3l0.2-0.5V175v-0.1l0-0.1l0.1-0.2l0-0.3v-0.1l0.3-0.8l0,0l0.1-0.2v-0.1v-0.2l0-0.3v-0.2l0.2-0.7v-1.1l-0.1-0.1
	h-0.1v-1.4l0.1-0.3v-0.3l-1.8-2.6l-32.3-18.8l-1.1-0.5h0l-0.1-0.1l0.1,0.1l0.4-0.4l0.1-0.3l0-0.1l0.1-0.1v-0.1h0l0.1-0.1l0.2-0.2
	l0.2-0.1l0.4-0.7l0.2-0.1v-0.2l0.2-0.5v-0.4l0.1-0.3l0.1-0.3l0.2-0.2l0.2-0.4v-0.1h-0.6l-0.2-0.1H538l-0.1-0.1v-0.1l-0.1-0.2
	l-0.2-0.1l-0.2-0.2l-0.1-0.1l-0.6-0.6h-0.1l-0.1-0.1l-2.4-0.7l-2.8,0.2l-2.3,0.5l-3,1.2v0.1l-0.2,0l-0.2,0.1l-0.9,0.7l-0.1,0.2v0.1
	l-0.1,0.1l-0.3,0.2l-0.2,0.3l-1,1l-0.3,0.2l-4.7,4.9v5.5l0.1,0.8v0.4l0.1,0.3V156.8z"/>
<path class="st6" d="M452.7,131.6L452.7,131.6l-2.7,1.4l-0.8-0.2l-5.7,3.2L421,149.3l-1.8-1l-3.3,2l-3.5-2.1l-1-0.4h-0.9l-0.8,0.3
	l-8.2,4.8l-0.9,0.9l-0.6,1l-0.2,1v3.3l1.1,2.3l1.3,0.9l1.3,0.6l3.9,0.6l-6.1,3.4l-0.9,1l-0.6,1l-0.1,0.9v3.4l1,2.2l0.6,0.5l1.3,0.8
	l4.6,0.9l1.8-0.2l3.5-1l11.6-6.3l2.7-3.8l0.3-1.5V162l-0.3-1.3l25.4-14.6l6-3.4l0.2-0.2l0.1-1.6l-0.1-1.4l-1.4-3.6l-1.3-1.8
	l-1.5-1.4L452.7,131.6z"/>
<path class="st7" d="M469.9,98.9l-1.4-0.9l-8.2,4.8l-0.1,3.9l-0.6-0.1l-1.1,0.6l-1.1,1.2l-0.5,1.4v0.6l-2.4,1.4l0.1,8.9
	c0,0.7,0,1.3,0,2l-7.9,4.9l-0.8,1.2l-0.5,1.4h0.1l-1.4,1.3l-0.5,1l-0.3,1.5v1.1l-0.1,0.6v0.6l5.7-3.2l0.8,0.2l2.6-1.4h0.1l1.5,0.9
	l1.5,1.4l1.3,1.8l1.4,3.6l0.1,1.4l-0.1,1.6l-0.2,0.2l-6,3.4l3,2l2.8,0.7l2.3-0.5l12.2-7.1l3.4,1.6l3.2,0.4l0.7-0.2l1.3,0.3l0.8,0.4
	l0.6,0.8l-0.1,0.1l-0.7,0.8v1.2l0.7,1.5l0.9,1.1l1.2,0.7l0.9-0.1l2.1-1.2l0.5,0.4l0.5,0.1l0.8-0.1l3.6-1.8l0.4,0.6l0.3,1.3l7.1,4.1
	l0,2.6l0.5,0.8l1,0.9l10.2,5.9v0l1.2,0.7l1.2,0.5h1.3l1.5,1l1,0l1.2-0.6l0.5-0.6l3.1,1.8l0.2-2.1l-2.3-1.2l-1.3-1.6l-1.1-4.4v-0.2
	l-0.1-0.3v-0.4l-0.1-0.8v-5.5l4.7-4.9l0.3-0.2l1-1l0.2-0.3l0.3-0.2l0.1-0.1v-0.1l0.1-0.2l0.9-0.7l0.2-0.1l0.2,0v-0.1l3-1.2l2.3-0.5
	l2.8-0.2l2.4,0.7l0.1,0.1h0.1l0.6,0.6l0.1,0.1l0.2,0.2l0.2,0.1l0.1,0.2v0.1l0.1,0.1h0.5l0.2,0.1l0.5-0.1h0.1l0.5-0.2l1.3-1.9v-2.9
	l-1.3-3.3l-0.9-1.5l-1.1-1.1l-1.2-0.9l-2.9-1.7l-1.9,2.1l-0.2-0.2l-0.7-0.6l-6.4-3.8l0.2-1.1l-0.2-1.9l0.1-1.4l-1.8-2.4l0-5.4
	l1.5-6.3l-0.2-3.2l-0.8-3.4l-1.5-3.2l-2.2-2.9l-2.6-2.5l-2.8-1.8l-5.2-1.1l-4.6-2.6l-2.8-3.3l-3.1-1.5h-0.2l-0.2,2.6l0.7,1.9
	l-9.3,5.2l-0.9,3.8l-3.5,1.9l-3.1,1.6l-2.9-3.2l-0.9-0.7l-0.5-0.2l-0.4-0.1l-0.4,0.2h-0.1L469.9,98.9z"/>
<path class="st8" d="M591.5,74.9L591.5,74.9l2.8-1.3l12.2-8.7l1.3-0.5l0.8,0.5l2-0.8l3.6-1.9l-4.2-1.9l-6.1,3.6h-1.2l-0.6-0.3
	l-8.9,6.4l-2.1,1L484.5,9.7l-2.7,1.8L591.5,74.9 M537.9,69.5l-7.3-2.4l-14.1-8.1l-5.9-5.2l-0.1-0.1c-0.1,0-0.1-0.1-0.1-0.1l-0.5-0.3
	l-0.3-0.3l-0.4-0.2l-0.3-0.2l-0.4-0.2l-1-0.1l-1.5,0.2l-3,1.8h-0.1l-1,1.3l-0.1,0.4l-0.2,0.4l0,1l0.2,1.3l-0.6,0.8v1.4l0.6,1.6
	l1.1,1.3l1.2,0.7l1.2-0.1l2.9,1.9l-2.8,6.2v0.2l-0.1,0.2l-0.2,5.6l1,2.1l1.2,1l1.3,0.5l3.7,0.6h0.4l0.3-0.1h0.3l0.3-0.1h0.2l7.2-1.4
	l7.1-1.4h0.9l1.8-0.2l0.4,0.6l0.1,0.1l6.1,2.8l0.9-0.4l3.4-2.1l0.9-1.4l0.2-1.4l-0.1-0.7l-1.3-3.8l-1.1-1.4l-1.7-1.6L537.9,69.5
	 M508.9,73.9l-0.5-1.1l0.5-1.1l1.3-0.8l1.8-0.2l1.9,0.2l1.3,0.8l0.5,1.1l-0.5,1.1l-1.3,0.8l-1.9,0.2l-1.8-0.2L508.9,73.9
	 M515.1,76.8l0.5-0.2l-0.3,0.2H515.1z"/>
<path class="st9" d="M528.1,86.4l-2.5-2.2l-3.8-2.2l-0.6-0.4l-7.2,1.4h-0.2l-0.3,0.1H513l-0.3,0.1h-0.4l-3.7-0.6l-1.3-0.5l-1.2-1
	l-1-2.1l0.2-5.6l0.1-0.2l-2.7-0.6h-1.5l-0.4,0.1h-0.2l-0.2,0h-0.4l-1,0.5l-0.6,0.2l-8,4.8l-2.1,1.9l-1.4,3.3l-0.4,3.9l-1.5,6.3
	l0,3.8l3.5-1.9l0.9-3.8l9.3-5.2l-0.7-1.9l0.2-2.6h0.2l3.1,1.5l2.8,3.3l4.6,2.6l5.2,1.1l2.8,1.8l2.6,2.5l2.2,2.9l1.5,3.2l0.8,3.4
	l0.2,3.2l-1.5,6.3l0,5.4l1.8,2.4l-0.1,1.4l0.2,1.9l-0.2,1.1l6.4,3.8l0.7,0.6l0.2,0.2l1.9-2.1l2.9,1.7l1.2,0.9l1.1,1.1l0.9,1.5
	l1.3,3.3v2.9l-1.3,1.9l3.1-1.8l1.3-1.9v-2.9l-1.2-3.4l-1-1.4l-1.1-1.2l-1.2-0.8l-4.7-2.7v-0.1l0.3-1.6l0-4.4l0.7-1.5l-0.6,0.5
	l-0.9,1.3l-0.9,0.7l-0.5,0.2l-0.9,0.6l-1.8-0.2l-1.2-0.8l-1.1-1.6v-2.3l1.1-2.8l0.3-0.6l1.5-1.8l0.9-0.7l1.1-0.5l1.8,0.2l1.3,0.8
	h0.1l1,1.4l0.2,0.8v-4.3l-1.9-4.1V101l-1.1-4.8l-2.2-4.8L528.1,86.4z"/>
<path class="st10" d="M530.9,67.6l7.3,2.4l1.1,0.6l1.7,1.6l1.1,1.4l1.3,3.8l0.1,0.7l-0.2,1.4l-0.9,1.4l-3.4,2.1l-0.9,0.4l-1.2-0.2
	l-2.4-1.2l-0.8,0.1l-1.2-0.7l-0.5-0.8l-0.1-0.1l-1.6-0.4h-0.6h-0.9l-7.1,1.4l0.6,0.4l3.8,2.2l2.5,2.2l3.8,5.1l2.2,4.8l1.1,4.8v4.4
	l1.9,4.1v4.3l0.1,0.4l-0.1,0.6v0l-0.3,1.1l-0.2,0.5l-0.2,0.5l-0.6,1.4l-0.7,1.5l0,4.4l-0.3,1.6v0.1l4.7,2.7l1.2,0.8l1.1,1.2l1,1.4
	l1.2,3.4v2.9l-1.3,1.9l-3.1,1.8l-0.5,0.2h-0.1l-0.5,0.1h0.6v0.1l-0.2,0.4l-0.2,0.2l-0.1,0.3l-0.1,0.3v0.4l-0.2,0.5v0.2l-0.2,0.1
	l-0.4,0.7l-0.2,0.1l-0.2,0.2l-0.1,0.1h0v0.1l-0.1,0.1l0,0.1l-0.1,0.3l-0.4,0.4l1.1,0.5l32.3,18.8l1.8,2.6v0.3l0.1,1.8v1.1v0.9
	l-0.2,0.6v0.1l-0.1,0.2l-0.4,1.2l-0.1,0.2l0,0.2v0.4l-0.2,0.5l-0.2,0.3l-0.4,1l-0.1,0.7l-0.1,0.1v0.2l-0.1,0.3l-0.1,0.4l-0.2,0.4
	l-0.1,0.5l-0.3,1.1v0.2l0,0.1l-0.6,2l-0.2,0.5l-0.2,0.9v0.2l-0.5,1h1.2c0.1,0,0.3,0.2,0.7,0.5h1.7c0.2,0.2,0.4,0.5,0.5,1h2.2
	l15.3,12.1h2.1l0.5-5l-0.8-7.5v-3.7l0.8-3.1l0.7-1.9l-0.8-26.9l0.4-1.9l0.8,0.4l0.2-2.6l-2.3-16.9l-0.3-6.3l0.5-16.8l0.3-2.6l1-0.6
	l0.7-1.5l-2.1-18.4l0.5-8.9v-0.1L482.1,12.2l-0.6,1.2l0,0.6l0.2,4l1.8,1.9l-1.8,0.5l1.6,50.1c-0.2,3.1,1.3,5.2,4.6,6.3v0.9h-0.8v2.1
	l-1.4,1.9c-0.4,0.2-0.6,0.8-0.5,1.7l1.5,3.9l0.4-3.9l1.4-3.3l2.1-1.9l8-4.8l0.6-0.2l1-0.5h0.4l0.2,0h0.2l0.4-0.1h1.5l2.7,0.6V73
	l2.8-6.2l-2.9-1.9l-1.2,0.1l-1.2-0.7l-1.1-1.3l-0.6-1.6v-1.4l0.6-0.8l-0.2-1.3l0-1l0.2-0.4l0.1-0.4l1-1.3h0.1l3-1.8l1.5-0.2l1,0.1
	l0.4,0.2l0.3,0.2l0.4,0.2l0.3,0.3l0.5,0.3c0,0.1,0.1,0.1,0.1,0.1l0.1,0.1l5.9,5.2L530.9,67.6z"/>
<path id="Layer0_1_MEMBER_1_MEMBER_0_1_STROKES" class="st1" d="M524.1,150.1l0.5,0.6v1l-0.4,1.1"/>
<path id="Layer0_1_MEMBER_1_MEMBER_1_1_STROKES" class="st1" d="M524.1,152.7l-0.8,1l-0.8,0.4l-0.7-0.1"/>
<path id="Layer0_1_MEMBER_1_MEMBER_2_1_STROKES" class="st1" d="M522.3,149h-0.8l-0.9,0.4l-0.7,0.9"/>
<path id="Layer0_1_MEMBER_1_MEMBER_3_1_STROKES" class="st1" d="M520,150.4l-0.4,1.1v1l0.4,0.6"/>
<path id="Layer0_1_MEMBER_1_MEMBER_4_1_STROKES" class="st1" d="M521.7,151.6l-0.4,1v0.9l0.5,0.6"/>
<path id="Layer0_1_MEMBER_1_MEMBER_5_1_STROKES" class="st1" d="M521.8,154.1l0.7,0.1l0.8-0.4l0.8-1"/>
<path id="Layer0_1_MEMBER_1_MEMBER_6_1_STROKES" class="st1" d="M524.1,152.7l0.4-1.1v-1l-0.5-0.6"/>
<path id="Layer0_1_MEMBER_1_MEMBER_7_1_STROKES" class="st1" d="M524.1,150.1l-0.5-0.1l-0.6,0.3l-0.7,0.6"/>
<path id="Layer0_1_MEMBER_1_MEMBER_8_1_STROKES" class="st1" d="M523.8,152l0.1-0.4l-0.1-0.4"/>
<path id="Layer0_1_MEMBER_1_MEMBER_9_1_STROKES" class="st1" d="M523.3,151.1l-0.5,0.2l-0.4,0.5"/>
<path id="Layer0_1_MEMBER_1_MEMBER_10_1_STROKES" class="st1" d="M522.4,151.8l-0.2,0.6v0.5l0.2,0.3"/>
<path id="Layer0_1_MEMBER_1_MEMBER_11_1_STROKES" class="st1" d="M522.6,153.2l0.4-0.1l0.4-0.2"/>
<path id="Layer0_1_MEMBER_1_MEMBER_12_1_STROKES" class="st1" d="M524.1,150.1l-1.8-1.1"/>
<path id="Layer0_1_MEMBER_1_MEMBER_13_1_STROKES" class="st1" d="M521.8,154.1L520,153"/>
<path id="Layer0_1_MEMBER_1_MEMBER_14_1_STROKES" class="st1" d="M538.2,141.9l0.4,0.6v1l-0.4,1.1"/>
<path id="Layer0_1_MEMBER_1_MEMBER_15_1_STROKES" class="st1" d="M538.2,144.6l-0.8,0.9l-0.8,0.5l-0.7-0.1"/>
<path id="Layer0_1_MEMBER_1_MEMBER_16_1_STROKES" class="st1" d="M536.4,140.9l-0.8-0.1l-0.9,0.4l-0.7,0.9"/>
<path id="Layer0_1_MEMBER_1_MEMBER_17_1_STROKES" class="st1" d="M534,142.2l-0.4,1.1l0.1,1l0.4,0.6"/>
<path id="Layer0_1_MEMBER_1_MEMBER_18_1_STROKES" class="st1" d="M535.8,143.4l-0.4,1.1v0.9l0.5,0.5"/>
<path id="Layer0_1_MEMBER_1_MEMBER_19_1_STROKES" class="st1" d="M535.9,145.9l0.7,0.1l0.8-0.5l0.8-0.9"/>
<path id="Layer0_1_MEMBER_1_MEMBER_20_1_STROKES" class="st1" d="M538.2,144.6l0.4-1.1v-1l-0.4-0.6"/>
<path id="Layer0_1_MEMBER_1_MEMBER_21_1_STROKES" class="st1" d="M538.2,141.9l-0.6-0.1l-0.6,0.3l-0.7,0.5"/>
<path id="Layer0_1_MEMBER_1_MEMBER_22_1_STROKES" class="st1" d="M537.9,143.8l0.1-0.4l-0.1-0.4"/>
<path id="Layer0_1_MEMBER_1_MEMBER_23_1_STROKES" class="st1" d="M537.7,143l-0.4-0.1l-0.4,0.2l-0.4,0.5"/>
<path id="Layer0_1_MEMBER_1_MEMBER_24_1_STROKES" class="st1" d="M536.5,143.6l-0.2,0.6v0.5l0.2,0.4"/>
<path id="Layer0_1_MEMBER_1_MEMBER_25_1_STROKES" class="st1" d="M536.7,145.1l0.4-0.1l0.3-0.3"/>
<path id="Layer0_1_MEMBER_1_MEMBER_26_1_STROKES" class="st1" d="M538.1,141.9l-1.8-1.1"/>
<path id="Layer0_1_MEMBER_1_MEMBER_27_1_STROKES" class="st1" d="M535.8,145.9l-1.9-1"/>
<path id="Layer0_1_MEMBER_1_MEMBER_28_1_STROKES" class="st1" d="M570.4,166l1.7,2.4l0.1,4l-1.7,4.4"/>
<path id="Layer0_1_MEMBER_1_MEMBER_29_1_STROKES" class="st1" d="M570.4,176.9l-3.1,3.8l-3.4,1.9l-3.1-0.2"/>
<path id="Layer0_1_MEMBER_1_MEMBER_30_1_STROKES" class="st1" d="M570.4,166l-3-0.3l-3.4,2l-3.1,3.7"/>
<path id="Layer0_1_MEMBER_1_MEMBER_31_1_STROKES" class="st1" d="M560.9,171.5l-1.7,4.4l0.1,3.9l1.7,2.6"/>
<path id="Layer0_1_MEMBER_1_MEMBER_32_1_STROKES" class="st1" d="M533.3,144.5l-3-0.2l-3.4,1.9l-3,3.8"/>
<path id="Layer0_1_MEMBER_1_MEMBER_33_1_STROKES" class="st1" d="M569.9,165.8l-3.3-0.4l-3.5,1.9L560,171"/>
<path id="Layer0_1_MEMBER_1_MEMBER_34_1_STROKES" class="st1" d="M560,171l-1.7,4.5l0.1,4l2,2.7"/>
<path id="Layer0_1_MEMBER_1_MEMBER_35_1_STROKES" class="st1" d="M559.7,172l-9.1,28.2"/>
<path id="Layer0_1_MEMBER_1_MEMBER_36_1_STROKES" class="st1" d="M571.9,172.8l-5.2,16.1"/>
<path id="Layer0_1_MEMBER_1_MEMBER_37_1_STROKES" class="st1" d="M570.3,165.9l-37.2-21.5"/>
<path id="Layer0_1_MEMBER_1_MEMBER_38_1_STROKES" class="st1" d="M544.5,172.8L523.8,161"/>
<path id="Layer0_1_MEMBER_1_MEMBER_39_1_STROKES" class="st1" d="M546.8,165.9l-8.5,28.1l12.2,7"/>
<path id="Layer0_1_MEMBER_1_MEMBER_40_1_STROKES" class="st1" d="M536.5,140.4l-6.2,0.9"/>
<path id="Layer0_1_MEMBER_1_MEMBER_41_1_STROKES" class="st1" d="M535.1,139.4l-6.2,1"/>
<path id="Layer0_1_MEMBER_1_MEMBER_42_1_STROKES" class="st1" d="M527.3,142.5l-7.3,7.1"/>
<path id="Layer0_1_MEMBER_1_MEMBER_43_1_STROKES" class="st1" d="M525.9,141.6l-7.4,7.1"/>
<path id="Layer0_1_MEMBER_1_MEMBER_44_1_STROKES" class="st1" d="M519.1,152.2l0.9,8"/>
<path id="Layer0_1_MEMBER_1_MEMBER_45_1_STROKES" class="st1" d="M517.7,151.2l0.9,8.2"/>
<path id="Layer0_1_MEMBER_1_MEMBER_46_1_STROKES" class="st1" d="M520,161.8l7.5,4.3"/>
<path id="Layer0_1_MEMBER_1_MEMBER_47_1_STROKES" class="st1" d="M529.6,165.3l0.4-0.9"/>
<path id="Layer0_1_MEMBER_1_MEMBER_48_1_STROKES" class="st1" d="M537.7,141.6V141l-0.4-0.5l-0.9-0.1"/>
<path id="Layer0_1_MEMBER_1_MEMBER_49_1_STROKES" class="st1" d="M536,139.6l-0.5-0.1h-0.4"/>
<path id="Layer0_1_MEMBER_1_MEMBER_50_1_STROKES" class="st1" d="M530.3,141.3l-2.1,0.6l-0.9,0.6"/>
<path id="Layer0_1_MEMBER_1_MEMBER_51_1_STROKES" class="st1" d="M529,140.5l-1.1,0.1l-1,0.4l-0.9,0.6"/>
<path id="Layer0_1_MEMBER_1_MEMBER_52_1_STROKES" class="st1" d="M520,149.6l-0.6,0.8l-0.2,0.9v0.9"/>
<path id="Layer0_1_MEMBER_1_MEMBER_53_1_STROKES" class="st1" d="M518.5,148.7l-0.6,0.9l-0.3,0.9v0.9"/>
<path id="Layer0_1_MEMBER_1_MEMBER_54_1_STROKES" class="st1" d="M520.1,160l0.2,1l0.4,0.9l0.8,0.7"/>
<path id="Layer0_1_MEMBER_1_MEMBER_55_1_STROKES" class="st1" d="M518.6,159.3l0.2,0.9l0.5,0.9l0.7,0.7"/>
<path id="Layer0_1_MEMBER_1_MEMBER_56_1_STROKES" class="st1" d="M527.5,166.1l0.9,0.1l0.8-0.4l0.5-0.6"/>
<path id="Layer0_1_MEMBER_1_MEMBER_57_1_STROKES" class="st1" d="M537.6,140.5l-1.9-1.1"/>
<path id="Layer0_1_MEMBER_1_MEMBER_58_1_STROKES" class="st1" d="M559.1,187.8l0.2,0.4v0.6l-0.2,0.7"/>
<path id="Layer0_1_MEMBER_1_MEMBER_59_1_STROKES" class="st1" d="M559.1,189.5l-0.5,0.5l-0.5,0.4l-0.4-0.1"/>
<path id="Layer0_1_MEMBER_1_MEMBER_60_1_STROKES" class="st1" d="M555.3,200.4l0.2,0.3v0.6l-0.2,0.7"/>
<path id="Layer0_1_MEMBER_1_MEMBER_61_1_STROKES" class="st1" d="M555.3,202l-0.5,0.5l-0.5,0.4l-0.4-0.1"/>
<path id="Layer0_1_MEMBER_1_MEMBER_62_1_STROKES" class="st1" d="M557.9,187.2h-0.4l-0.5,0.3l-0.4,0.6"/>
<path id="Layer0_1_MEMBER_1_MEMBER_63_1_STROKES" class="st1" d="M556.6,188l-0.2,0.6v0.6l0.2,0.4"/>
<path id="Layer0_1_MEMBER_1_MEMBER_64_1_STROKES" class="st1" d="M554.1,199.7l-0.4-0.1l-0.5,0.2l-0.5,0.6"/>
<path id="Layer0_1_MEMBER_1_MEMBER_65_1_STROKES" class="st1" d="M552.7,200.5l-0.1,0.6v0.6l0.1,0.4"/>
<path id="Layer0_1_MEMBER_1_MEMBER_66_1_STROKES" class="st1" d="M566,188.1l-0.4-0.1l-0.5,0.4l-0.4,0.5"/>
<path id="Layer0_1_MEMBER_1_MEMBER_67_1_STROKES" class="st1" d="M557.7,188.8l-0.3,0.6l0.1,0.6l0.3,0.4"/>
<path id="Layer0_1_MEMBER_1_MEMBER_68_1_STROKES" class="st1" d="M557.7,190.3l0.4,0.1l0.5-0.4l0.5-0.5"/>
<path id="Layer0_1_MEMBER_1_MEMBER_69_1_STROKES" class="st1" d="M559.1,189.5l0.2-0.7v-0.6l-0.2-0.4"/>
<path id="Layer0_1_MEMBER_1_MEMBER_70_1_STROKES" class="st1" d="M559.1,187.8h-0.4l-0.4,0.1l-0.4,0.4"/>
<path id="Layer0_1_MEMBER_1_MEMBER_71_1_STROKES" class="st1" d="M553.8,201.2l-0.2,0.6l0.1,0.5l0.2,0.4"/>
<path id="Layer0_1_MEMBER_1_MEMBER_72_1_STROKES" class="st1" d="M553.9,202.7l0.4,0.1l0.5-0.4l0.5-0.5"/>
<path id="Layer0_1_MEMBER_1_MEMBER_73_1_STROKES" class="st1" d="M555.3,202l0.2-0.7v-0.6l-0.2-0.3"/>
<path id="Layer0_1_MEMBER_1_MEMBER_74_1_STROKES" class="st1" d="M555.3,200.4l-0.4-0.1l-0.4,0.1l-0.5,0.3"/>
<path id="Layer0_1_MEMBER_1_MEMBER_75_1_STROKES" class="st1" d="M567.1,190.4l0.2-0.6v-0.6l-0.2-0.4"/>
<path id="Layer0_1_MEMBER_1_MEMBER_76_1_STROKES" class="st1" d="M567.1,188.8h-0.5l-0.5,0.3l-0.4,0.6"/>
<path id="Layer0_1_MEMBER_1_MEMBER_77_1_STROKES" class="st1" d="M558.6,188.5l-0.3,0.1l-0.3,0.3"/>
<path id="Layer0_1_MEMBER_1_MEMBER_78_1_STROKES" class="st1" d="M557.9,189.2v0.4"/>
<path id="Layer0_1_MEMBER_1_MEMBER_79_1_STROKES" class="st1" d="M554.7,201l-0.5,0.4"/>
<path id="Layer0_1_MEMBER_1_MEMBER_80_1_STROKES" class="st1" d="M554.2,201.3l-0.1,0.4"/>
<path id="Layer0_1_MEMBER_1_MEMBER_81_1_STROKES" class="st1" d="M566.6,189.3l-0.2,0.1l-0.3,0.3"/>
<path id="Layer0_1_MEMBER_1_MEMBER_82_1_STROKES" class="st1" d="M566.1,189.8l-0.1,0.4"/>
<path id="Layer0_1_MEMBER_1_MEMBER_83_1_STROKES" class="st1" d="M559.1,187.8l-1.1-0.6"/>
<path id="Layer0_1_MEMBER_1_MEMBER_84_1_STROKES" class="st1" d="M555.3,200.3l-1.1-0.6"/>
<path id="Layer0_1_MEMBER_1_MEMBER_85_1_STROKES" class="st1" d="M567.1,188.8l-1.1-0.6"/>
<path id="Layer0_1_MEMBER_1_MEMBER_86_1_STROKES" class="st1" d="M557.7,190.3l-1.1-0.6"/>
<path id="Layer0_1_MEMBER_1_MEMBER_87_1_STROKES" class="st1" d="M553.9,202.7l-1.1-0.6"/>
<path id="Layer0_1_MEMBER_1_MEMBER_88_1_STROKES" class="st1" d="M555.4,186.9l-4.3,13.8"/>
<path id="Layer0_1_MEMBER_1_MEMBER_89_1_STROKES" class="st1" d="M556.2,187.4l-4.3,13.9"/>
<path id="Layer0_1_MEMBER_1_MEMBER_90_1_STROKES" class="st1" d="M556.3,186.1l9.7,1"/>
<path id="Layer0_1_MEMBER_1_MEMBER_91_1_STROKES" class="st1" d="M557,186.7l9.3,1.1"/>
<path id="Layer0_1_MEMBER_1_MEMBER_92_1_STROKES" class="st1" d="M552.2,202.2l0.9,0.1"/>
<path id="Layer0_1_MEMBER_1_MEMBER_93_1_STROKES" class="st1" d="M554.9,202.5l4.6,0.6"/>
<path id="Layer0_1_MEMBER_1_MEMBER_94_1_STROKES" class="st1" d="M557.2,186.7h-0.4l-0.3,0.2l-0.3,0.4"/>
<path id="Layer0_1_MEMBER_1_MEMBER_95_1_STROKES" class="st1" d="M556.3,186.1l-0.4,0.1l-0.3,0.3l-0.3,0.5"/>
<path id="Layer0_1_MEMBER_1_MEMBER_96_1_STROKES" class="st1" d="M551.9,201.2v0.5l0.1,0.4l0.4,0.1"/>
<path id="Layer0_1_MEMBER_1_MEMBER_97_1_STROKES" class="st1" d="M551.1,200.7l-0.1,0.5l0.3,0.6l0.9,0.5"/>
<path id="Layer0_1_MEMBER_1_MEMBER_98_1_STROKES" class="st1" d="M566.3,187.7l0.4,0.1l0.1,0.3v0.4"/>
<path id="Layer0_1_MEMBER_1_MEMBER_99_1_STROKES" class="st1" d="M565.9,187.1l0.5,0.2l0.2,0.4l0.1,0.6"/>
<path id="Layer0_1_MEMBER_1_MEMBER_100_1_STROKES" class="st1" d="M556.2,201.8L556.2,201.8L556.2,201.8l-0.1-0.1l-0.1-0.1v-0.1
	l-0.1-0.1v-0.1l-0.2-0.2v-0.1l-0.1-0.1V201l-0.1-0.1l-0.1-0.1v-0.1l-0.1-0.1v-0.4l-0.1-0.1v-0.2l-0.1-0.1v-0.3l-0.1-0.1v-1.7
	l0.1-0.1v-0.1l0.1-0.1v-0.4l0.1-0.1v-0.6l0.1-0.1v-0.1l0.1-0.1v-0.1l0.1-0.1v-0.1l0.1-0.3v-0.1l0.1-0.1l0.1-0.1v-0.2l0.1-0.3
	l0.1-0.1v-0.1l0.1-0.1l0.1-0.1v-0.1l0.1-0.1v-0.1l0.1-0.3l0.1-0.1l0.1-0.1l0.1-0.1l0.1-0.3l0.1-0.1l0.1-0.1v-0.1l0.1-0.1l0.1-0.1
	l0.1-0.1l0.1-0.1l0.1-0.1l0.1-0.1v-0.1l0.1-0.1l0.1-0.1l0.1-0.1l0.2-0.2l0.1-0.1l0.4-0.4l0.1-0.1h0.1l0.1-0.1l0.1-0.1l0.1-0.1
	l0.1-0.1l0.1-0.1l0.1-0.1h0.1l0.1-0.1h0.1l0.1-0.1l0.1-0.1l0.1-0.1h0.1l0.1-0.1h0.1l0.1-0.1l0.1-0.1h0.1l0.1-0.1h0.4l0.1-0.1h0.1
	l0.1-0.1h0.1l0.1-0.1h1.1l0.1,0.1h0.1l0.1,0.1"/>
<path id="Layer0_1_MEMBER_1_MEMBER_101_1_STROKES" class="st1" d="M566.3,205.8l-1.7,0.5l-1.1-0.2l-0.5-0.3l-0.4-0.3l-0.4-0.4
	l-0.4-1.1l-0.2-1.4l0.4-2.4l0.3-0.9l1.2-2.5l1.1-1.4l1.3-1.2l1.3-0.9l1.3-0.4l1.2-0.1l0.5,0.1l0.9,0.6l0.4,0.4l0.5,1.1l0.1,0.6"/>
<path id="Layer0_1_MEMBER_1_MEMBER_102_1_STROKES" class="st1" d="M564.1,189.3l6.5,3.8"/>
<path id="Layer0_1_MEMBER_1_MEMBER_103_1_STROKES" class="st1" d="M556.5,202.1l6.4,3.7"/>
<path id="Layer0_1_MEMBER_1_MEMBER_104_1_STROKES" class="st1" d="M560,204l-0.3-0.3h-0.1l-0.1-0.1v-0.1l-0.2-0.2v-0.2l-0.1-0.1V203
	l-0.1-0.1v-0.1l-0.1-0.1v-0.1l-0.1-0.1v-0.1l-0.1-0.1v-0.2l-0.1-0.1v-0.3l-0.1-0.1V200l0.1-0.1v-0.1l0.1-0.1v-0.4l0.1-0.1V199
	l0.1-0.1v-0.3l0.1-0.1h0.1v-0.1l0.1-0.1V198l0.1-0.1v-0.1l0.1-0.3v-0.1l0.1-0.1l0.1-0.1v-0.1l0.2-0.4l0.1-0.1v-0.1l0.1-0.3v-0.1
	l0.1-0.1l0.1-0.1l0.1-0.3l0.1-0.1l0.1-0.1v-0.1h0.1l0.2-0.4l0.1-0.1l0.1-0.1h0.1l0.1-0.1v-0.1l0.1-0.1l0.1-0.1l0.1-0.1l0.4-0.4
	l0.1-0.1l0.1-0.1l0.1-0.1l0.3-0.3v-0.1l0.1-0.1l0.1-0.1l0.1-0.1l0.1-0.1l0.1-0.1v-0.1l0.1-0.1l0.1-0.1l0.1-0.1l0.1-0.1l0.1-0.1h0.1
	l0.3-0.1l0.1-0.1l0.1-0.1h0.1l0.1-0.1l0.3-0.1h0.1l0.1-0.1l0.1-0.1h0.2v-0.1h0.6V191h0.9l0.1,0.1"/>
<path id="Layer0_1_MEMBER_1_MEMBER_105_1_STROKES" class="st1" d="M557,202.2l-0.1-0.1V202h-0.1l-0.1-0.1v-0.1l-0.2-0.2v-0.3
	l-0.1-0.1v-0.1h-0.1V201l-0.1-0.1v-0.1l-0.1-0.1v-0.1l-0.1-0.1v-0.8l-0.1-0.1l0.1-0.1v-0.9l0.1-0.1v-0.3l0.1-0.1v-0.1l0.1-0.1v-0.3
	l0.1-0.1v-0.1l0.1-0.1v-0.4l0.1-0.1l0.1-0.1v-0.1l0.1-0.3v-0.1l0.1-0.1l0.1-0.1v-0.1l0.3-0.6v-0.1l0.1-0.1l0.1-0.1v-0.1l0.1-0.1
	l0.1-0.3l0.1-0.1l0.1-0.1v-0.1l0.1-0.1v-0.1l0.2-0.2l0.1-0.3h0.1l0.1-0.3l0.1-0.1l0.1-0.1l0.1-0.1l0.1-0.1l0.1-0.1l0.1-0.1l0.1-0.1
	l0.1-0.1l0.1-0.1l0.4-0.4v-0.1l0.2-0.2h0.1l0.1-0.1l0.1-0.1v-0.1l0.1-0.1l0.1-0.1l0.1-0.1l0.1-0.1h0.1l0.1-0.1l0.1-0.1l0.1-0.1
	l0.1-0.1h0.1l0.1-0.1l0.1-0.1h0.1l0.1-0.1l0.1-0.1h0.1l0.1-0.1h0.1l0.1-0.1h0.3l0.1-0.1h0.2l0.1-0.1h0.7l0.1,0.1h0.1l0.1,0.1h0.2
	v0.1h0.3"/>
<path id="Layer0_1_MEMBER_1_MEMBER_106_1_STROKES" class="st1" d="M563.5,204l-0.2-0.2v-0.1h-0.1v-0.2l-0.1-0.1v-0.1l-0.1-0.1v-0.1
	l-0.1-0.1V203L563,203v-0.1l-0.1-0.1V201l0.1-0.1v-0.3l0.1-0.1v-0.1l0.1-0.1v-0.2l0.1-0.1v-0.1l0.1-0.1v-0.4l0.1-0.1v-0.1l0.1-0.1
	V199l0.1-0.1v-0.1l0.1-0.1v-0.1l0.1-0.1h0.1v-0.1l0.1-0.1v-0.2l0.1-0.1l0.1-0.3l0.2-0.2l0.1-0.1l0.1-0.1V197l0.1-0.1l0.2-0.2
	l0.1-0.1l0.1-0.1h0.1l0.1-0.1v-0.1l0.1-0.1l0.1-0.1h0.1l0.1-0.1h0.1l0.1-0.1h0.1l0.1-0.1v-0.1l0.1-0.1v-0.1l0.1-0.1l0.1-0.1h0.1
	l0.1-0.1h0.1l0.1-0.1h0.1v-0.1l0.1-0.1h0.1l0.1-0.1h0.1v-0.1h0.1l0.1-0.1h0.1l0.1-0.1h0.1v-0.1h0.5l0.1-0.1h0.9l0.1,0.1h0.3v0.1h0.1
	l0.1,0.1"/>
<path id="Layer0_1_MEMBER_1_MEMBER_107_1_STROKES" class="st1" d="M569.9,194.6l2.7,1.6"/>
<path id="Layer0_1_MEMBER_1_MEMBER_108_1_STROKES" class="st1" d="M564,204.4l2.7,1.6"/>
<path id="Layer0_1_MEMBER_1_MEMBER_109_1_STROKES" class="st1" d="M567.6,206.3l-0.4-0.1l-0.4-0.2l-0.6-0.6l-0.2-0.4l-0.3-1
	l-0.1-0.5V203l0.4-1.9l0.9-2l1.3-1.6l1.1-0.9l0.4-0.3l1-0.4l0.6-0.1h0.4l0.8,0.3l0.6,0.6l0.4,0.9l0.1,1v0.6"/>
<path id="Layer0_1_MEMBER_1_MEMBER_110_1_STROKES" class="st1" d="M567.3,204.4l-0.3-0.4l-0.1-0.2l-0.1-0.6v-0.6l0.1-0.4v-0.4
	l0.4-1.1l0.2-0.4l0.1-0.4l0.4-0.6l0.4-0.2l0.2-0.4l0.9-0.6l0.6-0.3h1.2"/>
<path id="Layer0_1_MEMBER_1_MEMBER_111_1_STROKES" class="st1" d="M569.2,217.3l-0.1,8.1"/>
<path id="Layer0_1_MEMBER_1_MEMBER_112_1_STROKES" class="st1" d="M567.5,204.2l0.4,0.2l0.3,0.1l0.3,0.1l0.5,0.5l0.2,0.4l0.1,0.4
	v8.3"/>
<path id="Layer0_1_MEMBER_1_MEMBER_113_1_STROKES" class="st1" d="M570.8,217.7l-0.2,7.9"/>
<path id="Layer0_1_MEMBER_1_MEMBER_114_1_STROKES" class="st1" d="M567.3,201.5l0.6,0.3l1.1,0.6l0.4,0.4l0.8,1l0.2,0.5l0.4,2.9
	l-0.1,7.8"/>
<path id="Layer0_1_MEMBER_1_MEMBER_115_1_STROKES" class="st1" d="M572.5,217.7l-0.1,0.4l-0.4,8"/>
<path id="Layer0_1_MEMBER_1_MEMBER_116_1_STROKES" class="st1" d="M568.6,199.6l0.6,0.3l0.6,0.4l0.6,0.3l1,0.8l0.4,0.4l0.2,0.4
	l0.3,0.3l0.2,0.5l0.4,1.1l0.3,3.2l-0.5,7v0.8"/>
<path id="Layer0_1_MEMBER_1_MEMBER_117_1_STROKES" class="st1" d="M574.1,217.2l-0.5,9.8l-0.1,0.6"/>
<path id="Layer0_1_MEMBER_1_MEMBER_118_1_STROKES" class="st1" d="M570.8,197.8l2.7,1.7l1,1l0.6,0.9l0.6,1.9l0.3,2.7l-0.1,3.4
	l-1.2,4.7"/>
<path id="Layer0_1_MEMBER_1_MEMBER_119_1_STROKES" class="st1" d="M575.1,213.7l-0.1,0.1l-0.1,0.2l-0.1,0.2l-0.1,0.1l-0.1,0.2
	l-0.2,0.1l-0.3,0.1l-0.2,0.1l-0.3,0.1l-0.3,0.1l-1,0.2h-1.4l-0.4-0.1l-0.6-0.1l-0.3-0.1l-0.3-0.1l-0.1-0.1l-0.3-0.2"/>
<path id="Layer0_1_MEMBER_1_MEMBER_120_1_STROKES" class="st1" d="M574.4,217l-0.3,0.1l-0.2,0.1l-0.6,0.3l-1,0.2h-1l-1-0.2l-0.3-0.1
	l-0.3-0.1l-0.4-0.2l-0.3-0.2"/>
<path id="Layer0_1_MEMBER_1_MEMBER_121_1_STROKES" class="st1" d="M568.5,215.9v-2.3"/>
<path id="Layer0_1_MEMBER_1_MEMBER_122_1_STROKES" class="st1" d="M575.1,215.9v-2"/>
<path id="Layer0_1_MEMBER_1_MEMBER_123_1_STROKES" class="st1" d="M569.2,207.5l0.1,0.9v0.5"/>
<path id="Layer0_1_MEMBER_1_MEMBER_124_1_STROKES" class="st1" d="M522.1,154.5l-0.1,2.8l0.6,2.3l1.4,1.4"/>
<path id="Layer0_1_MEMBER_1_MEMBER_125_1_STROKES" class="st1" d="M591.6,75.2L481.8,11.8"/>
<path id="Layer0_1_MEMBER_1_MEMBER_126_1_STROKES" class="st1" d="M591.1,71.6L484.6,10l-2.7,1.8"/>
<path id="Layer0_1_MEMBER_1_MEMBER_127_1_STROKES" class="st1" d="M591.6,75.3l-0.5,8.8l0.5,6.2"/>
<path id="Layer0_1_MEMBER_1_MEMBER_128_1_STROKES" class="st1" d="M591.6,90.4l1.6,12.2l-0.6,1.5"/>
<path id="Layer0_1_MEMBER_1_MEMBER_129_1_STROKES" class="st1" d="M592.5,104.1l-1,0.6l-0.4,2.6l-0.1,5"/>
<path id="Layer0_1_MEMBER_1_MEMBER_130_1_STROKES" class="st1" d="M591.1,112.2l-0.4,11.8l0.4,6.3"/>
<path id="Layer0_1_MEMBER_1_MEMBER_131_1_STROKES" class="st1" d="M591.1,130.3l2.3,16.9l-0.1,2.6"/>
<path id="Layer0_1_MEMBER_1_MEMBER_132_1_STROKES" class="st1" d="M593.3,149.8l-0.9-0.4l-0.4,1.9l0.1,3.1"/>
<path id="Layer0_1_MEMBER_1_MEMBER_133_1_STROKES" class="st1" d="M592,154.4l0.5,19"/>
<path id="Layer0_1_MEMBER_1_MEMBER_134_1_STROKES" class="st1" d="M592.5,173.4l0.2,4.8l-0.7,1.9"/>
<path id="Layer0_1_MEMBER_1_MEMBER_135_1_STROKES" class="st1" d="M592,180.1l-0.8,3.1v3.7l0.6,3.6"/>
<path id="Layer0_1_MEMBER_1_MEMBER_136_1_STROKES" class="st1" d="M591.8,190.5l0.2,3.9l-0.4,5"/>
<path id="Layer0_1_MEMBER_1_MEMBER_137_1_STROKES" class="st1" d="M595.4,77.8l-0.4,3.6l-0.4,1.6l0.4,4.9"/>
<path id="Layer0_1_MEMBER_1_MEMBER_138_1_STROKES" class="st1" d="M595,87.8l1.5,12.4l-0.6,1.6"/>
<path id="Layer0_1_MEMBER_1_MEMBER_139_1_STROKES" class="st1" d="M595.9,101.8l-1,0.5l-0.4,2.7l-0.1,5"/>
<path id="Layer0_1_MEMBER_1_MEMBER_140_1_STROKES" class="st1" d="M594.5,110l-0.4,11.9l0.4,6.4"/>
<path id="Layer0_1_MEMBER_1_MEMBER_141_1_STROKES" class="st1" d="M594.5,128.3l2.2,17l-0.1,2.7"/>
<path id="Layer0_1_MEMBER_1_MEMBER_142_1_STROKES" class="st1" d="M596.6,147.9l-0.8-0.4l-0.4,1.9l0.1,3.1"/>
<path id="Layer0_1_MEMBER_1_MEMBER_143_1_STROKES" class="st1" d="M595.4,152.5l0.5,19.2"/>
<path id="Layer0_1_MEMBER_1_MEMBER_144_1_STROKES" class="st1" d="M595.9,171.7l0.2,4.8l-0.7,1.9"/>
<path id="Layer0_1_MEMBER_1_MEMBER_145_1_STROKES" class="st1" d="M595.4,178.4l-0.8,3.2v3.7l0.6,3.7"/>
<path id="Layer0_1_MEMBER_1_MEMBER_146_1_STROKES" class="st1" d="M595.2,189l0.3,2.7l-0.1,1.6l-0.1,0.5"/>
<path id="Layer0_1_MEMBER_1_MEMBER_147_1_STROKES" class="st1" d="M592,198.9l3.1-1.5l5.9-3.7"/>
<path id="Layer0_1_MEMBER_1_MEMBER_148_1_STROKES" class="st1" d="M601,193.7l6.9-5.2l1.1-0.1"/>
<path id="Layer0_1_MEMBER_1_MEMBER_149_1_STROKES" class="st1" d="M609,188.3l0.6,0.4l1.7-0.6l3-1.7"/>
<path id="Layer0_1_MEMBER_1_MEMBER_150_1_STROKES" class="st1" d="M591.8,75.3l2.6-1.4l0.9-0.7l3.2-2"/>
<path id="Layer0_1_MEMBER_1_MEMBER_151_1_STROKES" class="st1" d="M598.6,71.1l8-6l1.3-0.4"/>
<path id="Layer0_1_MEMBER_1_MEMBER_152_1_STROKES" class="st1" d="M607.9,64.7l0.8,0.4l2-0.8l3.6-1.9"/>
<path id="Layer0_1_MEMBER_1_MEMBER_153_1_STROKES" class="st1" d="M591.2,71.3l2.2-1l0.8-0.5l2.7-2"/>
<path id="Layer0_1_MEMBER_1_MEMBER_154_1_STROKES" class="st1" d="M596.8,67.8l5.5-3.9l0.6,0.3"/>
<path id="Layer0_1_MEMBER_1_MEMBER_155_1_STROKES" class="st1" d="M602.8,64.2h1.1l6.1-3.6"/>
<path id="Layer0_1_MEMBER_1_MEMBER_156_1_STROKES" class="st1" d="M595.6,193.6l2.2-1.1l3.2-2.4"/>
<path id="Layer0_1_MEMBER_1_MEMBER_157_1_STROKES" class="st1" d="M601,190.1l6.9-5.2l1.1-0.2"/>
<path id="Layer0_1_MEMBER_1_MEMBER_158_1_STROKES" class="st1" d="M609,184.7l0.6,0.4l4.7-2.4"/>
<path id="Layer0_1_MEMBER_1_MEMBER_159_1_STROKES" class="st1" d="M595.6,77.7l2.2-1.1l3.2-2.4"/>
<path id="Layer0_1_MEMBER_1_MEMBER_160_1_STROKES" class="st1" d="M601,74.1l6.9-5.2l1.1-0.1"/>
<path id="Layer0_1_MEMBER_1_MEMBER_161_1_STROKES" class="st1" d="M609,68.8l0.6,0.4l4.7-2.4"/>
<path id="Layer0_1_MEMBER_1_MEMBER_162_1_STROKES" class="st1" d="M597.1,145.8l18.8-10.9"/>
<path id="Layer0_1_MEMBER_1_MEMBER_163_1_STROKES" class="st1" d="M596.6,144l19.4-11.2"/>
<path id="Layer0_1_MEMBER_1_MEMBER_164_1_STROKES" class="st1" d="M481.7,11.8l-0.1,0.6l-0.3,0.6l-0.1,0.6"/>
<path id="Layer0_1_MEMBER_1_MEMBER_165_1_STROKES" class="st1" d="M481.3,13.7l0.1,4l1.8,1.9l-1.7,0.4l1.6,50.1"/>
<path id="Layer0_1_MEMBER_1_MEMBER_166_1_STROKES" class="st1" d="M484.7,145.6v-0.4"/>
<path id="Layer0_1_MEMBER_1_MEMBER_167_1_STROKES" class="st1" d="M506.4,52.4l-3.4,1.9"/>
<path id="Layer0_1_MEMBER_1_MEMBER_168_1_STROKES" class="st1" d="M513.6,60.9l-6.5-5.7"/>
<path id="Layer0_1_MEMBER_1_MEMBER_169_1_STROKES" class="st1" d="M516.6,59.2l-6-5.2"/>
<path id="Layer0_1_MEMBER_1_MEMBER_170_1_STROKES" class="st1" d="M537.2,109v5.4"/>
<path id="Layer0_1_MEMBER_1_MEMBER_171_1_STROKES" class="st1" d="M423.8,153.9l-1.4-2.2"/>
<path id="Layer0_1_MEMBER_1_MEMBER_172_1_STROKES" class="st1" d="M449.7,130.2l-1.7-0.4h-1.5l-1.3,0.4"/>
<path id="Layer0_1_MEMBER_1_MEMBER_173_1_STROKES" class="st1" d="M449.6,133.2l-1.1-0.3h-1.1l-0.9,0.3"/>
<path id="Layer0_1_MEMBER_1_MEMBER_174_1_STROKES" class="st1" d="M446.6,133.2l-0.6,0.5l-0.4,0.6l-0.3,0.7"/>
<path id="Layer0_1_MEMBER_1_MEMBER_175_1_STROKES" class="st1" d="M456.2,148.6l1,0.1l1.8-0.5"/>
<path id="Layer0_1_MEMBER_1_MEMBER_176_1_STROKES" class="st1" d="M447.6,126.8l-0.9,0.8l-0.9,1.1l-0.4,1.4"/>
<path id="Layer0_1_MEMBER_1_MEMBER_177_1_STROKES" class="st1" d="M452,146.5l2.8,1.7l2.7,0.7l2.4-0.5"/>
<path id="Layer0_1_MEMBER_1_MEMBER_178_1_STROKES" class="st1" d="M472,141.4l3.4,1.5l3.2,0.4l2.8-0.8"/>
<path id="Layer0_1_MEMBER_1_MEMBER_179_1_STROKES" class="st1" d="M463.4,111.2l-2,1.9l-1.4,3l-0.4,3.7"/>
<path id="Layer0_1_MEMBER_1_MEMBER_180_1_STROKES" class="st1" d="M501.8,83.2l-3.2-1.5l-2.9-0.5l-2.6,0.7"/>
<path id="Layer0_1_MEMBER_1_MEMBER_181_1_STROKES" class="st1" d="M493.2,81.9l-1.7,1.7l-1.1,2.4L490,89"/>
<path id="Layer0_1_MEMBER_1_MEMBER_182_1_STROKES" class="st1" d="M524.6,122.7v1.9l-0.1,0.9"/>
<path id="Layer0_1_MEMBER_1_MEMBER_183_1_STROKES" class="st1" d="M498.4,81.7l-0.1,0.8l-0.1,1.7"/>
<path id="Layer0_1_MEMBER_1_MEMBER_184_1_STROKES" class="st1" d="M524.2,107.2l-0.1-3.2l-0.8-3.4l-1.5-3.2"/>
<path id="Layer0_1_MEMBER_1_MEMBER_185_1_STROKES" class="st1" d="M521.8,97.3l-2.2-2.9l-2.5-2.5l-2.8-1.7"/>
<path id="Layer0_1_MEMBER_1_MEMBER_186_1_STROKES" class="st1" d="M490.7,77.7l-2.3,2.2l-1.4,3.3l-0.4,4"/>
<path id="Layer0_1_MEMBER_1_MEMBER_187_1_STROKES" class="st1" d="M527.9,124.7v2.8"/>
<path id="Layer0_1_MEMBER_1_MEMBER_188_1_STROKES" class="st1" d="M527.7,109.2l-0.1-4.3l-1.1-4.6l-2.1-4.4"/>
<path id="Layer0_1_MEMBER_1_MEMBER_189_1_STROKES" class="st1" d="M535.3,105.1v-4.4l-1.1-4.7l-2.2-4.7"/>
<path id="Layer0_1_MEMBER_1_MEMBER_190_1_STROKES" class="st1" d="M456.6,135.9l-1.3-1.8l-1.5-1.4l-1.6-1"/>
<path id="Layer0_1_MEMBER_1_MEMBER_191_1_STROKES" class="st1" d="M454.5,145l0.7,0.1l0.7-0.1l0.6-0.3"/>
<path id="Layer0_1_MEMBER_1_MEMBER_192_1_STROKES" class="st1" d="M530.2,121l-1.2-0.8"/>
<path id="Layer0_1_MEMBER_1_MEMBER_193_1_STROKES" class="st1" d="M536,111.1l-1.3-0.7"/>
<path id="Layer0_1_MEMBER_1_MEMBER_194_1_STROKES" class="st1" d="M469,107.9l-5.7,3.2"/>
<path id="Layer0_1_MEMBER_1_MEMBER_195_1_STROKES" class="st1" d="M487,139.2l-5.6,3.3"/>
<path id="Layer0_1_MEMBER_1_MEMBER_196_1_STROKES" class="st1" d="M534.3,81.9l2.4,1.1l1.1,0.1l0.9-0.4"/>
<path id="Layer0_1_MEMBER_1_MEMBER_197_1_STROKES" class="st1" d="M538.7,75.3l-1.1-1.6l-1.3-1.3l-1.4-0.9"/>
<path id="Layer0_1_MEMBER_1_MEMBER_198_1_STROKES" class="st1" d="M508.5,73.1l0.5-1.1l1.4-0.8l1.8-0.2"/>
<path id="Layer0_1_MEMBER_1_MEMBER_199_1_STROKES" class="st1" d="M512.2,71.1l1.9,0.2l1.4,0.8l0.5,1.1"/>
<path id="Layer0_1_MEMBER_1_MEMBER_200_1_STROKES" class="st1" d="M508.5,73.1l0.5,1.1l1.4,0.8l1.8,0.2"/>
<path id="Layer0_1_MEMBER_1_MEMBER_201_1_STROKES" class="st1" d="M512.2,75.2L514,75l1.4-0.8l0.5-1.1"/>
<path id="Layer0_1_MEMBER_1_MEMBER_202_1_STROKES" class="st1" d="M531.5,80.4l-1.5-0.5l-0.9-0.1"/>
<path id="Layer0_1_MEMBER_1_MEMBER_203_1_STROKES" class="st1" d="M528.8,79.8l-0.3,0.1h-0.4"/>
<path id="Layer0_1_MEMBER_1_MEMBER_204_1_STROKES" class="st1" d="M510.4,61.7l-0.1-0.4l-0.3-0.6"/>
<path id="Layer0_1_MEMBER_1_MEMBER_205_1_STROKES" class="st1" d="M505.6,72.4l-0.1,0.6"/>
<path id="Layer0_1_MEMBER_1_MEMBER_206_1_STROKES" class="st1" d="M465.2,102.2l-0.6,0.9v1.2l0.6,1.4l0.9,1.2l1.1,0.6l0.9-0.1
	l0.6-0.8v-1.3l-0.6-1.4l-0.9-1.2l-1.1-0.6L465.2,102.2z"/>
<path id="Layer0_1_MEMBER_1_MEMBER_207_1_STROKES" class="st1" d="M471.4,105.6l0.6-0.8v-1.2l-0.6-1.5"/>
<path id="Layer0_1_MEMBER_1_MEMBER_208_1_STROKES" class="st1" d="M471.4,102.1l-1-1.1l-1.1-0.6l-0.9,0.1"/>
<path id="Layer0_1_MEMBER_1_MEMBER_209_1_STROKES" class="st1" d="M469.7,99.8l-0.6-0.3l-0.5-0.1l-0.4,0.1"/>
<path id="Layer0_1_MEMBER_1_MEMBER_210_1_STROKES" class="st1" d="M468.2,99.6l-0.3,0.3l-0.3,0.4l-0.1,0.5"/>
<path id="Layer0_1_MEMBER_1_MEMBER_211_1_STROKES" class="st1" d="M478.1,94.8l-0.5-0.2l-0.4-0.1l-0.5,0.1"/>
<path id="Layer0_1_MEMBER_1_MEMBER_212_1_STROKES" class="st1" d="M465.2,102.2l3.2-1.8"/>
<path id="Layer0_1_MEMBER_1_MEMBER_213_1_STROKES" class="st1" d="M468.2,107.4l3.1-1.8"/>
<path id="Layer0_1_MEMBER_1_MEMBER_214_1_STROKES" class="st1" d="M482.6,111.8l-1.1,0.1l-0.5,0.9v1.2l0.5,1.4l1.1,1.2l1.1,0.6
	l1-0.1l0.5-0.8v-1.3l-0.5-1.4l-1-1.2L482.6,111.8z"/>
<path id="Layer0_1_MEMBER_1_MEMBER_215_1_STROKES" class="st1" d="M487.8,115.4l0.6-0.9v-1.2l-0.6-1.5"/>
<path id="Layer0_1_MEMBER_1_MEMBER_216_1_STROKES" class="st1" d="M487.8,111.8l-1-1.1l-1.1-0.6l-1,0.1"/>
<path id="Layer0_1_MEMBER_1_MEMBER_217_1_STROKES" class="st1" d="M481.5,111.9l3.2-1.8"/>
<path id="Layer0_1_MEMBER_1_MEMBER_218_1_STROKES" class="st1" d="M484.7,117.1l3.1-1.7"/>
<path id="Layer0_1_MEMBER_1_MEMBER_219_1_STROKES" class="st1" d="M489.1,132.3l-0.6,0.8v1.3l0.6,1.4l0.9,1.3l1.1,0.6l0.9-0.1
	l0.5-0.9l0.1-1.3l-0.6-1.4l-0.9-1.1l-1.1-0.6L489.1,132.3z"/>
<path id="Layer0_1_MEMBER_1_MEMBER_220_1_STROKES" class="st1" d="M495.3,135.8l0.6-0.8v-1.2l-0.6-1.5"/>
<path id="Layer0_1_MEMBER_1_MEMBER_221_1_STROKES" class="st1" d="M495.3,132.3l-1-1.1l-1.1-0.6l-1,0.1"/>
<path id="Layer0_1_MEMBER_1_MEMBER_222_1_STROKES" class="st1" d="M489.1,132.3l3.1-1.8"/>
<path id="Layer0_1_MEMBER_1_MEMBER_223_1_STROKES" class="st1" d="M492.1,137.6l3.2-1.8"/>
<path id="Layer0_1_MEMBER_1_MEMBER_224_1_STROKES" class="st1" d="M481.3,146.6l0.6,1.5l0.9,1.1l1.1,0.6l0.9-0.1l0.6-0.8v-1.3
	l-0.6-1.4l-0.9-1.2l-1.1-0.6l-0.9,0.1l-0.6,0.8V146.6z"/>
<path id="Layer0_1_MEMBER_1_MEMBER_225_1_STROKES" class="st1" d="M488,148.1l0.6-0.8V146l-0.6-1.4"/>
<path id="Layer0_1_MEMBER_1_MEMBER_226_1_STROKES" class="st1" d="M488,144.5l-0.9-1.2l-1.1-0.6l-0.9,0.1"/>
<path id="Layer0_1_MEMBER_1_MEMBER_227_1_STROKES" class="st1" d="M481.9,144.6l3.2-1.8"/>
<path id="Layer0_1_MEMBER_1_MEMBER_228_1_STROKES" class="st1" d="M485,149.9l3.1-1.8"/>
<path id="Layer0_1_MEMBER_1_MEMBER_229_1_STROKES" class="st1" d="M460.5,106.6l-1-0.1l-1.1,0.6l-1.1,1.3"/>
<path id="Layer0_1_MEMBER_1_MEMBER_230_1_STROKES" class="st1" d="M457.3,108.4l-0.5,1.4v1.3l0.6,0.8"/>
<path id="Layer0_1_MEMBER_1_MEMBER_231_1_STROKES" class="st1" d="M462.6,107.9l-0.9,0.1l-1,0.6l-0.9,1.1"/>
<path id="Layer0_1_MEMBER_1_MEMBER_232_1_STROKES" class="st1" d="M459.8,109.8l-0.6,1.4v1.3l0.6,0.9"/>
<path id="Layer0_1_MEMBER_1_MEMBER_233_1_STROKES" class="st1" d="M460.5,106.6l2.1,1.2"/>
<path id="Layer0_1_MEMBER_1_MEMBER_234_1_STROKES" class="st1" d="M457.4,111.9l2.4,1.4"/>
<path id="Layer0_1_MEMBER_1_MEMBER_235_1_STROKES" class="st1" d="M518.6,140.3l-1.1,0.6l-0.9,1.2l-0.6,1.4v1.2l0.6,0.9l0.9,0.1
	l1.1-0.6l1-1.3l0.6-1.4v-1.3l-0.6-0.8L518.6,140.3z"/>
<path id="Layer0_1_MEMBER_1_MEMBER_236_1_STROKES" class="st1" d="M517.3,139l-1-0.1l-1.1,0.6l-1,1.2"/>
<path id="Layer0_1_MEMBER_1_MEMBER_237_1_STROKES" class="st1" d="M514.2,140.7l-0.6,1.4l0.1,1.3l0.5,0.8"/>
<path id="Layer0_1_MEMBER_1_MEMBER_238_1_STROKES" class="st1" d="M516.6,145.7l-3.2-1.9"/>
<path id="Layer0_1_MEMBER_1_MEMBER_239_1_STROKES" class="st1" d="M519.6,140.4l-3.1-1.8"/>
<path id="Layer0_1_MEMBER_1_MEMBER_240_1_STROKES" class="st1" d="M531.4,137.4l0.9-0.1l1-0.6l0.8-1.1"/>
<path id="Layer0_1_MEMBER_1_MEMBER_241_1_STROKES" class="st1" d="M534.1,135.5l0.5-1.4v-1.2l-0.5-0.9"/>
<path id="Layer0_1_MEMBER_1_MEMBER_242_1_STROKES" class="st1" d="M534.1,132l-0.9-0.1l-1.1,0.6l-0.9,1.2"/>
<path id="Layer0_1_MEMBER_1_MEMBER_243_1_STROKES" class="st1" d="M531.8,130.6l-1.1-0.1l-1,0.6l-1,1.3"/>
<path id="Layer0_1_MEMBER_1_MEMBER_244_1_STROKES" class="st1" d="M534.1,132l-3.2-1.7"/>
<path id="Layer0_1_MEMBER_1_MEMBER_245_1_STROKES" class="st1" d="M517,162.3l-0.4,1.4l0.1,1.1l0.5,0.7"/>
<path id="Layer0_1_MEMBER_1_MEMBER_246_1_STROKES" class="st1" d="M517.1,165.5l1,0.1l1.1-0.6l0.9-1.2"/>
<path id="Layer0_1_MEMBER_1_MEMBER_247_1_STROKES" class="st1" d="M520.2,163.7l0.1-0.4l0.2-0.3l0.1-0.4"/>
<path id="Layer0_1_MEMBER_1_MEMBER_248_1_STROKES" class="st1" d="M514.6,160.8l-0.4,1.4v1.1l0.6,0.7"/>
<path id="Layer0_1_MEMBER_1_MEMBER_249_1_STROKES" class="st1" d="M517.1,165.5l-2.4-1.4"/>
<path id="Layer0_1_MEMBER_1_MEMBER_250_1_STROKES" class="st1" d="M476.8,94.7l-8.8,5.1"/>
<path id="Layer0_1_MEMBER_1_MEMBER_251_1_STROKES" class="st1" d="M537.9,141.9h0.6l0.6-0.1l0.6-0.2"/>
<path id="Layer0_1_MEMBER_1_MEMBER_252_1_STROKES" class="st1" d="M539.6,141.6l1.3-1.9v-2.9l-1.3-3.4"/>
<path id="Layer0_1_MEMBER_1_MEMBER_253_1_STROKES" class="st1" d="M539.6,133.4l-0.9-1.4l-1.1-1.1l-1.1-0.9"/>
<path id="Layer0_1_MEMBER_1_MEMBER_254_1_STROKES" class="st1" d="M542.7,139.8l1.3-1.9v-2.9l-1.2-3.4"/>
<path id="Layer0_1_MEMBER_1_MEMBER_255_1_STROKES" class="st1" d="M542.8,131.7l-0.9-1.4l-1.1-1.2l-1.2-0.9"/>
<path id="Layer0_1_MEMBER_1_MEMBER_256_1_STROKES" class="st1" d="M536.6,139.4l0.7,0.3l0.6,0.1l0.6-0.2"/>
<path id="Layer0_1_MEMBER_1_MEMBER_257_1_STROKES" class="st1" d="M538.6,139.6l0.7-1.1v-1.9l-0.7-2"/>
<path id="Layer0_1_MEMBER_1_MEMBER_258_1_STROKES" class="st1" d="M538.6,134.6l-1.4-1.7l-1.5-1l-1.4,0.1"/>
<path id="Layer0_1_MEMBER_1_MEMBER_259_1_STROKES" class="st1" d="M526.9,135.9l0.4-0.1l0.4-0.1"/>
<path id="Layer0_1_MEMBER_1_MEMBER_260_1_STROKES" class="st1" d="M518.6,122.7h0.4l0.7,0.3"/>
<path id="Layer0_1_MEMBER_1_MEMBER_261_1_STROKES" class="st1" d="M531.2,138.2l0.1,0.4l0.1,0.4l0.4,0.2"/>
<path id="Layer0_1_MEMBER_1_MEMBER_262_1_STROKES" class="st1" d="M532.1,139.3h0.4l0.4-0.1"/>
<path id="Layer0_1_MEMBER_1_MEMBER_263_1_STROKES" class="st1" d="M487,139.2l1.8-1.5l0.7-1.1"/>
<path id="Layer0_1_MEMBER_1_MEMBER_264_1_STROKES" class="st1" d="M510.4,104.4l0.3,0.5l0.9,1.1l1.4,1"/>
<path id="Layer0_1_MEMBER_1_MEMBER_265_1_STROKES" class="st1" d="M513.6,102.6l0.3,0.6l0.8,1.1l1.4,1"/>
<path id="Layer0_1_MEMBER_1_MEMBER_266_1_STROKES" class="st1" d="M491.3,93.7l-9.3,5"/>
<path id="Layer0_1_MEMBER_1_MEMBER_267_1_STROKES" class="st1" d="M459.9,111.6v5"/>
<path id="Layer0_1_MEMBER_1_MEMBER_268_1_STROKES" class="st1" d="M461.6,108.4l3.7-2.2"/>
<path id="Layer0_1_MEMBER_1_MEMBER_269_1_STROKES" class="st1" d="M459.9,115l-5.5-3.2"/>
<path id="Layer0_1_MEMBER_1_MEMBER_270_1_STROKES" class="st1" d="M465.1,105.6l-5-2.9"/>
<path id="Layer0_1_MEMBER_1_MEMBER_271_1_STROKES" class="st1" d="M469.6,98.8l-1.4-0.8"/>
<path id="Layer0_1_MEMBER_1_MEMBER_272_1_STROKES" class="st1" d="M454.5,111.8l2.2-1.4"/>
<path id="Layer0_1_MEMBER_1_MEMBER_273_1_STROKES" class="st1" d="M460.1,102.7l8.3-4.8"/>
<path id="Layer0_1_MEMBER_1_MEMBER_274_1_STROKES" class="st1" d="M454.5,111.8v10.8"/>
<path id="Layer0_1_MEMBER_1_MEMBER_275_1_STROKES" class="st1" d="M460.1,102.8v3.7"/>
<path id="Layer0_1_MEMBER_1_MEMBER_276_1_STROKES" class="st1" d="M461.7,112.6l-1.8-1.1l1.7-3.1l3.2,1.9"/>
<path id="Layer0_1_MEMBER_1_MEMBER_277_1_STROKES" class="st1" d="M500,153.2l-6.8-4"/>
<path id="Layer0_1_MEMBER_1_MEMBER_278_1_STROKES" class="st1" d="M493.1,149.1l-0.3-1.3l-0.4-0.6"/>
<path id="Layer0_1_MEMBER_1_MEMBER_279_1_STROKES" class="st1" d="M501.8,92.5l6.4-3.7"/>
<path id="Layer0_1_MEMBER_1_MEMBER_280_1_STROKES" class="st1" d="M489.7,91.5l12.6-7.3"/>
<path id="Layer0_1_MEMBER_1_MEMBER_281_1_STROKES" class="st1" d="M510.1,108.1l1.7-0.9"/>
<path id="Layer0_1_MEMBER_1_MEMBER_282_1_STROKES" class="st1" d="M514,101.1l5.6-3.2"/>
<path id="Layer0_1_MEMBER_1_MEMBER_283_1_STROKES" class="st1" d="M519.1,107.8l4.7-2.7"/>
<path id="Layer0_1_MEMBER_1_MEMBER_284_1_STROKES" class="st1" d="M522.1,124.1l2.4-1.4"/>
<path id="Layer0_1_MEMBER_1_MEMBER_285_1_STROKES" class="st1" d="M502.4,131.6l15.6-9"/>
<path id="Layer0_1_MEMBER_1_MEMBER_286_1_STROKES" class="st1" d="M504,126.7l8.9-5.1"/>
<path id="Layer0_1_MEMBER_1_MEMBER_287_1_STROKES" class="st1" d="M500.2,135.1l2.2-3.4"/>
<path id="Layer0_1_MEMBER_1_MEMBER_288_1_STROKES" class="st1" d="M517.4,162.3v-14.2"/>
<path id="Layer0_1_MEMBER_1_MEMBER_289_1_STROKES" class="st1" d="M511.9,141.8l-11.7-6.7"/>
<path id="Layer0_1_MEMBER_1_MEMBER_290_1_STROKES" class="st1" d="M513.4,137.9l-10.9-6.3"/>
<path id="Layer0_1_MEMBER_1_MEMBER_291_1_STROKES" class="st1" d="M529.8,128.8l-10.3-6"/>
<path id="Layer0_1_MEMBER_1_MEMBER_292_1_STROKES" class="st1" d="M519.1,107.8v14.9"/>
<path id="Layer0_1_MEMBER_1_MEMBER_293_1_STROKES" class="st1" d="M516.8,123.3l-2.9-1.7"/>
<path id="Layer0_1_MEMBER_1_MEMBER_294_1_STROKES" class="st1" d="M510.7,109l-1.4-0.8"/>
<path id="Layer0_1_MEMBER_1_MEMBER_295_1_STROKES" class="st1" d="M500.2,154.9v-19.7"/>
<path id="Layer0_1_MEMBER_1_MEMBER_296_1_STROKES" class="st1" d="M501.7,157.5l10.3,6"/>
<path id="Layer0_1_MEMBER_1_MEMBER_297_1_STROKES" class="st1" d="M511.9,141.8v3.3"/>
<path id="Layer0_1_MEMBER_1_MEMBER_298_1_STROKES" class="st1" d="M517.3,148.1l-5.4-3"/>
<path id="Layer0_1_MEMBER_1_MEMBER_299_1_STROKES" class="st1" d="M536.6,137.1l-2.4-1.4"/>
<path id="Layer0_1_MEMBER_1_MEMBER_300_1_STROKES" class="st1" d="M536.5,129.9l-2.8-1.6"/>
<path id="Layer0_1_MEMBER_1_MEMBER_301_1_STROKES" class="st1" d="M539.6,128.2l-4.6-2.7"/>
<path id="Layer0_1_MEMBER_1_MEMBER_302_1_STROKES" class="st1" d="M522.6,139.2l-5.3-3"/>
<path id="Layer0_1_MEMBER_1_MEMBER_303_1_STROKES" class="st1" d="M531.2,134.1l-5.3-3"/>
<path id="Layer0_1_MEMBER_1_MEMBER_304_1_STROKES" class="st1" d="M522.6,139.2v3"/>
<path id="Layer0_1_MEMBER_1_MEMBER_305_1_STROKES" class="st1" d="M531.2,134.1v4.1"/>
<path id="Layer0_1_MEMBER_1_MEMBER_306_1_STROKES" class="st1" d="M526.9,136.6v4.7"/>
<path id="Layer0_1_MEMBER_1_MEMBER_307_1_STROKES" class="st1" d="M528.2,135.9v4.7"/>
<path id="Layer0_1_MEMBER_1_MEMBER_308_1_STROKES" class="st1" d="M522.9,163.8v2.4"/>
<path id="Layer0_1_MEMBER_1_MEMBER_309_1_STROKES" class="st1" d="M519.9,164.4l2.9,1.7"/>
<path id="Layer0_1_MEMBER_1_MEMBER_310_1_STROKES" class="st1" d="M517.3,162.4l-5.4-3.2"/>
<path id="Layer0_1_MEMBER_1_MEMBER_311_1_STROKES" class="st1" d="M511.9,163.4v-4.2"/>
<path id="Layer0_1_MEMBER_1_MEMBER_312_1_STROKES" class="st1" d="M500.1,154.9l0.1,0.9l0.4,0.8l0.9,0.9"/>
<path id="Layer0_1_MEMBER_1_MEMBER_313_1_STROKES" class="st1" d="M517.4,148.1l3.4-2"/>
<path id="Layer0_1_MEMBER_1_MEMBER_314_1_STROKES" class="st1" d="M533,139.1l3.4-1.9"/>
<path id="Layer0_1_MEMBER_1_MEMBER_315_1_STROKES" class="st1" d="M539.1,141.9l3.5-2.1"/>
<path id="Layer0_1_MEMBER_1_MEMBER_316_1_STROKES" class="st1" d="M513.9,137.9l3.3-1.9"/>
<path id="Layer0_1_MEMBER_1_MEMBER_317_1_STROKES" class="st1" d="M525.9,131.1l4-2.3"/>
<path id="Layer0_1_MEMBER_1_MEMBER_318_1_STROKES" class="st1" d="M522.6,139.1l4.2-2.6"/>
<path id="Layer0_1_MEMBER_1_MEMBER_319_1_STROKES" class="st1" d="M531.1,134.1l-3,1.7"/>
<path id="Layer0_1_MEMBER_1_MEMBER_320_1_STROKES" class="st1" d="M511.9,163.4l1.2,0.7l1.1,0.4l1.2,0.1"/>
<path id="Layer0_1_MEMBER_1_MEMBER_321_1_STROKES" class="st1" d="M511.9,141.9l0.2-1.5l0.6-1.4l1.1-1.1"/>
<path id="Layer0_1_MEMBER_1_MEMBER_322_1_STROKES" class="st1" d="M522.6,142.2l-0.2,1.5l-0.6,1.4l-1.1,1.1"/>
<path id="Layer0_1_MEMBER_1_MEMBER_323_1_STROKES" class="st1" d="M529.8,128.8l1.1,0.7l0.6,0.6l0.4,0.6"/>
<path id="Layer0_1_MEMBER_1_MEMBER_324_1_STROKES" class="st1" d="M448,126.5l18.4-10.6"/>
<path id="Layer0_1_MEMBER_1_MEMBER_325_1_STROKES" class="st1" d="M460.5,148l18.3-10.6"/>
<path id="Layer0_1_MEMBER_1_MEMBER_326_1_STROKES" class="st1" d="M448.7,133.1l-28.1,16.2"/>
<path id="Layer0_1_MEMBER_1_MEMBER_327_1_STROKES" class="st1" d="M452.2,128.8l-2.4,1.4"/>
<path id="Layer0_1_MEMBER_1_MEMBER_328_1_STROKES" class="st1" d="M452.2,131.8l-2.4,1.4"/>
<path id="Layer0_1_MEMBER_1_MEMBER_329_1_STROKES" class="st1" d="M447.9,128.8l-2.7,1.6"/>
<path id="Layer0_1_MEMBER_1_MEMBER_330_1_STROKES" class="st1" d="M457.8,142.7l-31.1,17.9"/>
<path id="Layer0_1_MEMBER_1_MEMBER_331_1_STROKES" class="st1" d="M519,107.7l-8.3,1.4"/>
<path id="Layer0_1_MEMBER_1_MEMBER_332_1_STROKES" class="st1" d="M509.1,89.1l5,0.9"/>
<path id="Layer0_1_MEMBER_1_MEMBER_333_1_STROKES" class="st1" d="M509.1,85.1l5,0.9"/>
<path id="Layer0_1_MEMBER_1_MEMBER_334_1_STROKES" class="st1" d="M509,85l-4.5-2.6"/>
<path id="Layer0_1_MEMBER_1_MEMBER_335_1_STROKES" class="st1" d="M509.1,89.1l-4.6-2.7"/>
<path id="Layer0_1_MEMBER_1_MEMBER_336_1_STROKES" class="st1" d="M504.5,82.5l-2.7-3.3"/>
<path id="Layer0_1_MEMBER_1_MEMBER_337_1_STROKES" class="st1" d="M504.3,86.5l-2.6-3.3"/>
<path id="Layer0_1_MEMBER_1_MEMBER_338_1_STROKES" class="st1" d="M524.3,107.2l-1.4,6.4"/>
<path id="Layer0_1_MEMBER_1_MEMBER_339_1_STROKES" class="st1" d="M486.5,87.1l-1.4,6.3"/>
<path id="Layer0_1_MEMBER_1_MEMBER_340_1_STROKES" class="st1" d="M527.7,109.2l-1.4,6.3"/>
<path id="Layer0_1_MEMBER_1_MEMBER_341_1_STROKES" class="st1" d="M490,89.1l-1.4,6.3"/>
<path id="Layer0_1_MEMBER_1_MEMBER_342_1_STROKES" class="st1" d="M522.8,113.5v5.3"/>
<path id="Layer0_1_MEMBER_1_MEMBER_343_1_STROKES" class="st1" d="M485,93.4v3.7"/>
<path id="Layer0_1_MEMBER_1_MEMBER_344_1_STROKES" class="st1" d="M524.6,121.3v1.1"/>
<path id="Layer0_1_MEMBER_1_MEMBER_345_1_STROKES" class="st1" d="M527.9,123.3v1.3"/>
<path id="Layer0_1_MEMBER_1_MEMBER_346_1_STROKES" class="st1" d="M535.3,119.4v1"/>
<path id="Layer0_1_MEMBER_1_MEMBER_347_1_STROKES" class="st1" d="M526.4,115.5v5.4"/>
<path id="Layer0_1_MEMBER_1_MEMBER_348_1_STROKES" class="st1" d="M522.9,118.9l1.7,2.4"/>
<path id="Layer0_1_MEMBER_1_MEMBER_349_1_STROKES" class="st1" d="M526.3,120.8l1.7,2.5"/>
<path id="Layer0_1_MEMBER_1_MEMBER_350_1_STROKES" class="st1" d="M490.4,77.8l8.6-5"/>
<path id="Layer0_1_MEMBER_1_MEMBER_351_1_STROKES" class="st1" d="M498.2,84.3l0.6,2"/>
<path id="Layer0_1_MEMBER_1_MEMBER_352_1_STROKES" class="st1" d="M537.1,109.2l-1.8-3.9"/>
<path id="Layer0_1_MEMBER_1_MEMBER_353_1_STROKES" class="st1" d="M535.9,117.9l-0.6,1.5"/>
<path id="Layer0_1_MEMBER_1_MEMBER_354_1_STROKES" class="st1" d="M542.3,80.9l-3.4,1.9"/>
<path id="Layer0_1_MEMBER_1_MEMBER_355_1_STROKES" class="st1" d="M502,58.7l-0.6,0.9v1.4l0.6,1.6"/>
<path id="Layer0_1_MEMBER_1_MEMBER_356_1_STROKES" class="st1" d="M502,62.7L503,64l1.2,0.7l1.1-0.1"/>
<path id="Layer0_1_MEMBER_1_MEMBER_357_1_STROKES" class="st1" d="M504.6,57.1l1.1-0.1l1.2,0.7l1.1,1.4"/>
<path id="Layer0_1_MEMBER_1_MEMBER_358_1_STROKES" class="st1" d="M508,59.1l0.6,1.6v1.4l-0.6,0.9"/>
<path id="Layer0_1_MEMBER_1_MEMBER_359_1_STROKES" class="st1" d="M502,58.7l1.1-0.1l1.2,0.8l1.1,1.3"/>
<path id="Layer0_1_MEMBER_1_MEMBER_360_1_STROKES" class="st1" d="M505.3,60.6l0.6,1.7v1.4l-0.6,0.9"/>
<path id="Layer0_1_MEMBER_1_MEMBER_361_1_STROKES" class="st1" d="M502,58.6l2.7-1.5"/>
<path id="Layer0_1_MEMBER_1_MEMBER_362_1_STROKES" class="st1" d="M505.4,64.6l2.7-1.5"/>
<path id="Layer0_1_MEMBER_1_MEMBER_363_1_STROKES" class="st1" d="M505.4,64.7l2.9,1.9"/>
<path id="Layer0_1_MEMBER_1_MEMBER_364_1_STROKES" class="st1" d="M531.2,75.8l-0.6,0.9v1.4l0.6,1.7"/>
<path id="Layer0_1_MEMBER_1_MEMBER_365_1_STROKES" class="st1" d="M531.2,79.7l1.1,1.4l1.2,0.7l1.1-0.1"/>
<path id="Layer0_1_MEMBER_1_MEMBER_366_1_STROKES" class="st1" d="M533.8,74.1l1.1-0.1l1.2,0.7l1.1,1.4"/>
<path id="Layer0_1_MEMBER_1_MEMBER_367_1_STROKES" class="st1" d="M537.3,76.1l0.6,1.7v1.4l-0.6,0.9"/>
<path id="Layer0_1_MEMBER_1_MEMBER_368_1_STROKES" class="st1" d="M531.2,75.8l1.1-0.1l1.2,0.7l1.1,1.4"/>
<path id="Layer0_1_MEMBER_1_MEMBER_369_1_STROKES" class="st1" d="M534.6,77.7l0.6,1.6v1.5l-0.6,0.9"/>
<path id="Layer0_1_MEMBER_1_MEMBER_370_1_STROKES" class="st1" d="M531.2,75.7l2.7-1.6"/>
<path id="Layer0_1_MEMBER_1_MEMBER_371_1_STROKES" class="st1" d="M534.6,81.7l2.7-1.6"/>
<path id="Layer0_1_MEMBER_1_MEMBER_372_1_STROKES" class="st1" d="M505.3,73v5.6"/>
<path id="Layer0_1_MEMBER_1_MEMBER_373_1_STROKES" class="st1" d="M528.9,73.4v5.7"/>
<path id="Layer0_1_MEMBER_1_MEMBER_374_1_STROKES" class="st1" d="M505.4,72.6l4.8-10.2"/>
<path id="Layer0_1_MEMBER_1_MEMBER_375_1_STROKES" class="st1" d="M515.2,77.2l14.3-4.1"/>
<path id="Layer0_1_MEMBER_1_MEMBER_376_1_STROKES" class="st1" d="M528.4,79.9l-13.6,2.7"/>
<path id="Layer0_1_MEMBER_1_MEMBER_377_1_STROKES" class="st1" d="M513.7,60.9l14.1,8.3"/>
<path id="Layer0_1_MEMBER_1_MEMBER_378_1_STROKES" class="st1" d="M516.6,59.3l14.1,8.1"/>
<path id="Layer0_1_MEMBER_1_MEMBER_379_1_STROKES" class="st1" d="M527.8,69.1l7.1,2.4"/>
<path id="Layer0_1_MEMBER_1_MEMBER_380_1_STROKES" class="st1" d="M530.7,67.5l7.7,2.4"/>
<path id="Layer0_1_MEMBER_1_MEMBER_381_1_STROKES" class="st1" d="M513.6,60.9l2.9-1.7"/>
<path id="Layer0_1_MEMBER_1_MEMBER_382_1_STROKES" class="st1" d="M527.9,69l2.8-1.7"/>
<path id="Layer0_1_MEMBER_1_MEMBER_383_1_STROKES" class="st1" d="M529.3,73.1l1.7-0.4l0.9-0.1"/>
<path id="Layer0_1_MEMBER_1_MEMBER_384_1_STROKES" class="st1" d="M469.6,99.7l0.9,0.4l0.9,0.6l0.6,0.6"/>
<path id="Layer0_1_MEMBER_1_MEMBER_385_1_STROKES" class="st1" d="M472,101.3l0.9,1l3.2,2.9"/>
<path id="Layer0_1_MEMBER_1_MEMBER_386_1_STROKES" class="st1" d="M476,105.2l1.6,1.1l3.1,1.5"/>
<path id="Layer0_1_MEMBER_1_MEMBER_387_1_STROKES" class="st1" d="M480.7,107.9l1.8,0.6l2.4,0.1"/>
<path id="Layer0_1_MEMBER_1_MEMBER_388_1_STROKES" class="st1" d="M478.2,94.8l0.9,0.7l1.4,1.5"/>
<path id="Layer0_1_MEMBER_1_MEMBER_389_1_STROKES" class="st1" d="M480.4,97l2,2.2"/>
<path id="Layer0_1_MEMBER_1_MEMBER_390_1_STROKES" class="st1" d="M484.7,108.7l0.9,0.2l1.1,0.7l1.2,1.2"/>
<path id="Layer0_1_MEMBER_1_MEMBER_391_1_STROKES" class="st1" d="M488,110.8l0.9,1.6l0.5,1.4l0.1,1.1"/>
<path id="Layer0_1_MEMBER_1_MEMBER_392_1_STROKES" class="st1" d="M489.5,115l0.1,0.9l0.6,3.8"/>
<path id="Layer0_1_MEMBER_1_MEMBER_393_1_STROKES" class="st1" d="M490.2,119.7l1.2,4.3"/>
<path id="Layer0_1_MEMBER_1_MEMBER_394_1_STROKES" class="st1" d="M491.7,124.3l1.3,3.3"/>
<path id="Layer0_1_MEMBER_1_MEMBER_395_1_STROKES" class="st1" d="M493,127.6l0.5,0.9l1.1,1.7"/>
<path id="Layer0_1_MEMBER_1_MEMBER_396_1_STROKES" class="st1" d="M494.6,130.2l1.9,2.8l0.2,1.4"/>
<path id="Layer0_1_MEMBER_1_MEMBER_397_1_STROKES" class="st1" d="M496.8,134.4l-0.3,1.3l-0.6,1l-1.3,0.8"/>
<path id="Layer0_1_MEMBER_1_MEMBER_398_1_STROKES" class="st1" d="M503.5,126.7l0.8,0.9l0.4,0.9l0.1,1.1"/>
<path id="Layer0_1_MEMBER_1_MEMBER_399_1_STROKES" class="st1" d="M494.6,137.4l-1,0.6l-0.9,0.6l-0.7,1.1"/>
<path id="Layer0_1_MEMBER_1_MEMBER_400_1_STROKES" class="st1" d="M492,139.7l-0.9,1.4l-0.8,1.9l-0.4,2.1"/>
<path id="Layer0_1_MEMBER_1_MEMBER_401_1_STROKES" class="st1" d="M490,145.1l-0.1,1.9l-0.3,1.4l-0.6,0.7"/>
<path id="Layer0_1_MEMBER_1_MEMBER_402_1_STROKES" class="st1" d="M488.9,149.1l-0.8,0.1l-0.6-0.1l-0.4-0.4"/>
<path id="Layer0_1_MEMBER_1_MEMBER_403_1_STROKES" class="st1" d="M496.9,136.1l-1.8,1.2l-0.8,1.1"/>
<path id="Layer0_1_MEMBER_1_MEMBER_404_1_STROKES" class="st1" d="M494.3,138.4l-0.9,1.4l-0.7,1.9l-0.4,2"/>
<path id="Layer0_1_MEMBER_1_MEMBER_405_1_STROKES" class="st1" d="M492.3,143.8l-0.4,3.3l-0.6,0.7"/>
<path id="Layer0_1_MEMBER_1_MEMBER_406_1_STROKES" class="st1" d="M492.2,147.2l-3.3,1.9"/>
<path id="Layer0_1_MEMBER_1_MEMBER_407_1_STROKES" class="st1" d="M482,144.5l-0.6-0.7l-0.8-0.4l-1.3-0.2"/>
<path id="Layer0_1_MEMBER_1_MEMBER_408_1_STROKES" class="st1" d="M497.6,135.8l3.3-1.9"/>
<path id="Layer0_1_MEMBER_1_MEMBER_409_1_STROKES" class="st1" d="M452.2,128.8v2.9"/>
<path id="Layer0_1_MEMBER_1_MEMBER_410_1_STROKES" class="st1" d="M449.7,130.3v2.9"/>
<path id="Layer0_1_MEMBER_1_MEMBER_411_1_STROKES" class="st1" d="M422.4,151.8l-1.1-1.9l-2.5-1.4l-3.3,1.9l-3.7-2.2"/>
<path id="Layer0_1_MEMBER_1_MEMBER_412_1_STROKES" class="st1" d="M423.7,170.3l-12.3,6.6"/>
<path id="Layer0_1_MEMBER_1_MEMBER_413_1_STROKES" class="st1" d="M409.5,148.2l-8.3,4.8"/>
<path id="Layer0_1_MEMBER_1_MEMBER_414_1_STROKES" class="st1" d="M419.4,155l-7.2,4.1"/>
<path id="Layer0_1_MEMBER_1_MEMBER_415_1_STROKES" class="st1" d="M418.1,159.1l-5.9,3.4"/>
<path id="Layer0_1_MEMBER_1_MEMBER_416_1_STROKES" class="st1" d="M418.1,169.9l-6.6,3.6"/>
<path id="Layer0_1_MEMBER_1_MEMBER_417_1_STROKES" class="st1" d="M412,148.3l-0.9-0.4h-0.9l-0.8,0.4"/>
<path id="Layer0_1_MEMBER_1_MEMBER_418_1_STROKES" class="st1" d="M403.3,156l0.5,1.1l1.4,0.8l1.9,0.3"/>
<path id="Layer0_1_MEMBER_1_MEMBER_419_1_STROKES" class="st1" d="M407.1,158.1l1.9-0.3l1.4-0.8l0.6-1.1"/>
<path id="Layer0_1_MEMBER_1_MEMBER_420_1_STROKES" class="st1" d="M410.9,156l-0.6-1.1L409,154l-1.9-0.3"/>
<path id="Layer0_1_MEMBER_1_MEMBER_421_1_STROKES" class="st1" d="M407.1,153.7l-1.9,0.3l-1.4,0.8l-0.5,1.1"/>
<path id="Layer0_1_MEMBER_1_MEMBER_422_1_STROKES" class="st1" d="M401.2,153.2l-0.9,0.8l-0.6,1l-0.2,1"/>
<path id="Layer0_1_MEMBER_1_MEMBER_423_1_STROKES" class="st1" d="M407.1,160.3l1.9-0.1l1.7-0.4l1.5-0.6"/>
<path id="Layer0_1_MEMBER_1_MEMBER_424_1_STROKES" class="st1" d="M407.1,163.7l1.9-0.1l1.7-0.4l1.5-0.6"/>
<path id="Layer0_1_MEMBER_1_MEMBER_425_1_STROKES" class="st1" d="M418.1,170v-10.5"/>
<path id="Layer0_1_MEMBER_1_MEMBER_426_1_STROKES" class="st1" d="M399.5,159.3v-3.7"/>
<path id="Layer0_1_MEMBER_1_MEMBER_427_1_STROKES" class="st1" d="M419.9,155l-0.4-0.1"/>
<path id="Layer0_1_MEMBER_1_MEMBER_428_1_STROKES" class="st1" d="M406.8,163.7l-5.8,3.4"/>
<path id="Layer0_1_MEMBER_1_MEMBER_429_1_STROKES" class="st1" d="M403.1,169.9l0.5,1.1l1.4,0.8l1.9,0.3"/>
<path id="Layer0_1_MEMBER_1_MEMBER_430_1_STROKES" class="st1" d="M406.9,172.2l1.9-0.3l1.4-0.8l0.6-1.1"/>
<path id="Layer0_1_MEMBER_1_MEMBER_431_1_STROKES" class="st1" d="M410.7,169.9l-0.6-1.1l-1.4-0.8l-1.9-0.3"/>
<path id="Layer0_1_MEMBER_1_MEMBER_432_1_STROKES" class="st1" d="M406.9,167.8l-1.9,0.3l-1.4,0.8l-0.5,1.1"/>
<path id="Layer0_1_MEMBER_1_MEMBER_433_1_STROKES" class="st1" d="M401,167.2l-0.9,0.9l-0.6,1l-0.1,0.9"/>
<path id="Layer0_1_MEMBER_1_MEMBER_434_1_STROKES" class="st1" d="M406.9,174.4l1.8-0.1l1.8-0.4l1.6-0.6"/>
<path id="Layer0_1_MEMBER_1_MEMBER_435_1_STROKES" class="st1" d="M406.9,177.8l1.8-0.1l1.8-0.4l1.6-0.6"/>
<path id="Layer0_1_MEMBER_1_MEMBER_436_1_STROKES" class="st1" d="M399.3,173.3v-3.6"/>
<path id="Layer0_1_MEMBER_1_MEMBER_437_1_STROKES" class="st1" d="M418.1,169.9l-8-6.6"/>
<path id="Layer0_1_MEMBER_1_MEMBER_438_1_STROKES" class="st1" d="M505.4,73.3l1,2.2l1.3,0.9l1.3,0.6l0.6,0.1l3,0.4"/>
<path id="Layer0_1_MEMBER_1_MEMBER_439_1_STROKES" class="st1" d="M505.3,78.7l1,2.1l1.2,1l1.3,0.5l3.7,0.6"/>
<path id="Layer0_1_MEMBER_1_MEMBER_440_1_STROKES" class="st1" d="M538.7,82.8l1.2-1.7l0.2-1.4l-0.4-1.9l-1.1-2.5"/>
<path id="Layer0_1_MEMBER_1_MEMBER_441_1_STROKES" class="st1" d="M541.9,81l1.1-1.7l0.2-1.4l-0.1-0.6l-1.3-3.7"/>
<path id="Layer0_1_MEMBER_1_MEMBER_442_1_STROKES" class="st1" d="M501.8,58.7v-0.6l-0.1-0.5l0.1-0.5v-0.5l0.1-0.4l0.1-0.4l1-1.3"/>
<path id="Layer0_1_MEMBER_1_MEMBER_443_1_STROKES" class="st1" d="M506.1,52.6l1.5-0.2l1,0.1l0.4,0.2l0.3,0.3l0.4,0.1l0.3,0.4
	l0.4,0.3l0.7,0.6"/>
<path id="Layer0_1_MEMBER_1_MEMBER_444_1_STROKES" class="st1" d="M503,54.5l1.1-0.2h0.6l0.4,0.1l0.9,0.3l0.4,0.2l0.4,0.4l0.6,0.3"
	/>
<path id="Layer0_1_MEMBER_1_MEMBER_445_1_STROKES" class="st1" d="M501.7,79.2l-2.4-1.3l-1.7-0.7h-0.5l-3.2-0.4l-3.3,0.9"/>
<path id="Layer0_1_MEMBER_1_MEMBER_446_1_STROKES" class="st1" d="M505.3,72.8l-2.5-0.4h-1.5l-0.4,0.1h-0.3l-0.2,0.1h-0.4l-0.9,0.4
	l-0.8,0.2"/>
<path id="Layer0_1_MEMBER_1_MEMBER_447_1_STROKES" class="st1" d="M532.1,91.3l-3.8-5.1l-2.5-2.3l-3.8-2.2"/>
<path id="Layer0_1_MEMBER_1_MEMBER_448_1_STROKES" class="st1" d="M524.4,95.8l-2.5-3.7l-1.9-2.2l-0.9-0.8l-4.7-3"/>
<path id="Layer0_1_MEMBER_1_MEMBER_449_1_STROKES" class="st1" d="M481.4,121.6l-4.4-5.7l-1.4-1.4l-6.4-3.7l-5.9,0.5"/>
<path id="Layer0_1_MEMBER_1_MEMBER_450_1_STROKES" class="st1" d="M481.4,142.5l3.3-4.8l0.4-2l0.1-1.9l-0.1-1.9l-0.9-3.4l-2.9-6.9"
	/>
<path id="Layer0_1_MEMBER_1_MEMBER_451_1_STROKES" class="st1" d="M478.6,123.2l-3.9-4.9l-0.6-0.4l-3.9-2.1l-4,0.3"/>
<path id="Layer0_1_MEMBER_1_MEMBER_452_1_STROKES" class="st1" d="M478.6,137.6l2.3-3.3l0.3-1.4v-2.5l-0.6-2.4l-2-4.8"/>
<path id="Layer0_1_MEMBER_1_MEMBER_453_1_STROKES" class="st1" d="M420.4,172.2l2.6-3.7l0.4-1.6l-0.1-2.9l-0.6-2.7l-2.2-5.4"/>
<path id="Layer0_1_MEMBER_1_MEMBER_454_1_STROKES" class="st1" d="M423.8,170.3l2.6-3.8l0.3-1.5v-2.9l-0.6-2.7l-2.2-5.5"/>
<path id="Layer0_1_MEMBER_1_MEMBER_455_1_STROKES" class="st1" d="M456.5,144.6l1.4-2l0.1-1.6l-0.1-1.4l-1.4-3.7"/>
<path id="Layer0_1_MEMBER_1_MEMBER_456_1_STROKES" class="st1" d="M459,148.2l2.1-3l0.3-2.4l-0.3-2.2l-2.1-5.4"/>
<path id="Layer0_1_MEMBER_1_MEMBER_457_1_STROKES" class="st1" d="M459,135.2l-1.7-2.4l-0.8-1l-1.7-1.5l-2.4-1.5"/>
<path id="Layer0_1_MEMBER_1_MEMBER_458_1_STROKES" class="st1" d="M459.8,148.4l2.3-3.3l0.3-1.4l0.1-1.3l-0.4-2.4l-0.4-1.1l-1.9-4.8
	"/>
<path id="Layer0_1_MEMBER_1_MEMBER_459_1_STROKES" class="st1" d="M459.8,134.1l-3-3.9l-0.9-1l-0.6-0.4l-3.9-2.2l-3.9,0.4"/>
<path id="Layer0_1_MEMBER_1_MEMBER_460_1_STROKES" class="st1" d="M452.2,128.8l-0.6-0.2l-0.6-0.1l-0.2-0.1h-1.6l-1.3,0.4"/>
<path id="Layer0_1_MEMBER_1_MEMBER_461_1_STROKES" class="st1" d="M445.4,130.1l-1.4,1.4l-0.5,1l-0.3,1.5v1.1l-0.1,0.6v0.6"/>
<path id="Layer0_1_MEMBER_1_MEMBER_462_1_STROKES" class="st1" d="M399.5,159.3l1.1,2.3l1.3,0.9l0.6,0.4l0.7,0.3l3.9,0.6"/>
<path id="Layer0_1_MEMBER_1_MEMBER_463_1_STROKES" class="st1" d="M399.5,156l1.1,2.2l0.6,0.6l1.3,0.7l0.7,0.3l3.9,0.6"/>
<path id="Layer0_1_MEMBER_1_MEMBER_464_1_STROKES" class="st1" d="M399.3,169.9l1,2.3l1.3,0.9l0.6,0.4l1.4,0.4l3.2,0.4"/>
<path id="Layer0_1_MEMBER_1_MEMBER_465_1_STROKES" class="st1" d="M399.3,173.3l1,2.2l0.6,0.6l1.3,0.8l3,0.6l1.6,0.2"/>
<path id="Layer0_1_MEMBER_1_MEMBER_466_1_STROKES" class="st1" d="M530.4,121.1l-1.1-1.5l-0.1-1.2l0.1-1.2l0.1-0.5l0.9-2.2"/>
<path id="Layer0_1_MEMBER_1_MEMBER_467_1_STROKES" class="st1" d="M530.4,114.5l1.4-1.9l0.8-0.7l1-0.6l0.6-0.1l1.8,0.1"/>
<path id="Layer0_1_MEMBER_1_MEMBER_468_1_STROKES" class="st1" d="M536,111.1l1.1,1.5l0.2,1.2l-0.1,0.6l-0.3,1.1l-0.3,0.5l-0.1,0.5
	l-0.3,0.6l-0.2,0.6"/>
<path id="Layer0_1_MEMBER_1_MEMBER_469_1_STROKES" class="st1" d="M536,117.8l-0.6,0.7l-0.9,1.3l-0.9,0.6l-0.5,0.2l-0.9,0.5
	l-1.8-0.1"/>
<path id="Layer0_1_MEMBER_1_MEMBER_470_1_STROKES" class="st1" d="M529,113.7l0.4-0.6l0.4-0.4l0.3-0.4l0.8-0.9l0.9-0.7l1.1-0.4
	l1.8,0.1"/>
<path id="Layer0_1_MEMBER_1_MEMBER_471_1_STROKES" class="st1" d="M529,120.3l-1.1-1.6l-0.1-1.2l0.1-0.5v-0.6l1.1-2.7"/>
<path id="Layer0_1_MEMBER_1_MEMBER_472_1_STROKES" class="st1" d="M535.3,120.4l-0.1,3.4l-0.3,1.6l-0.6,1.7l-0.4,0.9l-2.1,2.4"/>
<path id="Layer0_1_MEMBER_1_MEMBER_473_1_STROKES" class="st1" d="M541.9,73.5l-1.1-1.4l-1.7-1.6l-1.1-0.6"/>
<path id="Layer0_1_MEMBER_1_MEMBER_474_1_STROKES" class="st1" d="M512.9,77.4h0.4l0.4-0.1h0.3l1.1-0.2h0.4l0.4-0.1"/>
<path id="Layer0_1_MEMBER_1_MEMBER_475_1_STROKES" class="st1" d="M512.5,82.9h0.4l0.4-0.1h0.3l0.4-0.1h0.3l1.1-0.2"/>
<path id="Layer0_1_MEMBER_1_MEMBER_476_1_STROKES" class="st1" d="M513.2,121.3v-2.5l-0.6-4.7l-1-3.7"/>
<path id="Layer0_1_MEMBER_1_MEMBER_477_1_STROKES" class="st1" d="M510.4,104.4l-5.5-6.9l-0.7-0.6l-0.9-0.6l-6-3.2l-6.1,0.6"/>
<path id="Layer0_1_MEMBER_1_MEMBER_478_1_STROKES" class="st1" d="M513.5,102.5l-4.7-5.8l-0.6-0.5l-5.8-3.4l-5.3,0.2"/>
<g>
	<text transform="matrix(1 0 0 1 430.8557 243.6102)" class="st11"><tspan x="0" y="0" class="st12 st13">OUTBOARD FLAP</tspan><tspan x="-17.6" y="18" class="st12 st13">ACTUATOR ASSEMBLY</tspan></text>
</g>
</svg>
