<?xml version="1.0" encoding="utf-8"?>
<!-- Generator: Adobe Illustrator 24.1.2, SVG Export Plug-In . SVG Version: 6.00 Build 0)  -->
<svg version="1.1" id="Ebene_1" xmlns="http://www.w3.org/2000/svg" xmlns:xlink="http://www.w3.org/1999/xlink" x="0px" y="0px"
	 viewBox="0 0 347 361" style="enable-background:new 0 0 347 361;" xml:space="preserve">
<style type="text/css">
	.st0{fill:#FF0000;}
	.st1{fill:#1D1D1C;}
	.st2{fill:#0099FF;}
	.st3{fill:#666666;}
	.st4{fill:none;stroke:#1D1D1C;stroke-width:0.5;stroke-miterlimit:5;}
	.st5{fill:none;stroke:#B1B1B1;stroke-width:0.5;stroke-miterlimit:5;}
	.st6{fill:none;stroke:#1D1D1C;stroke-width:0.45;stroke-miterlimit:5;}
	.st7{fill:none;stroke:#999999;stroke-miterlimit:5;}
	.st8{opacity:0.2;fill:#0099FF;enable-background:new    ;}
	.st9{fill:none;stroke:#0099FF;stroke-width:2.0001;stroke-miterlimit:10.0002;}
</style>
<path class="st0" d="M190,290l0.1,0.2L190,290L190,290 M190.5,290.6l0.1,0.1l0.3,0.1L190.5,290.6 M191.9,290.7v-0.1l-0.3,0.2
	L191.9,290.7 M191.9,290.6l0.3-0.3l0.3-0.5v-6.9l-2.6,3v4.2l0.1,0.3l0.1,0.1l0.3,0.3l0.5,0.3h0.5l0.2-0.1L191.9,290.6 M190.7,289.4
	L190.7,289.4l0.1-0.2h0.2l0.1-0.1h0.4l0.1,0.1h0.1v0.1l0.1,0.1v0.2l0.1,0.1v0.1h-0.1v0.2l-0.1,0.1h-0.1v0.1h-0.3V290h-0.2V290h-0.2
	v-0.1l-0.1-0.1V289.4 M190.7,289.3L190.7,289.3l-0.1,0.5l0.1,0.1v0.1h0.2v0.1h0.2v0.1h0.3V290h0.1l0.1-0.1v-0.2h0.1v-0.1l-0.1-0.1
	v-0.2l-0.1-0.1v-0.1h-0.1l-0.1-0.1H191l-0.1,0.1h-0.2V289.3 M194.3,289.6l0.1-0.5l-0.1,0.2V289.6l-0.1,0.1l-0.1,0.2l-0.1,0.3h-0.3
	l-0.4,0.3l0.7-0.2l0.1-0.3l0.1-0.2L194.3,289.6 M193.4,288.5L193.4,288.5l-0.4-0.1v1.1h0.4l0.3-0.2v-0.1h0.1v-0.5L193.4,288.5
	L193.4,288.5 M193.2,285l-0.2-0.7v4.2h0.4v0.1h0.1l0.3,0.2v0.5h-0.1v0.1l-0.3,0.2H193v0.1l-0.1,0.2l-0.1,0.1l-0.3,0.5l-0.6,0.1v0.1
	v0.1l1.3-0.3l0.4-0.3h0.3l0.1-0.3l0.1-0.2l0.1-0.1l0.1-0.3l0.1-0.2v-0.1v-1.3L193.2,285 M193,282.4l-0.4,0.4v6.9l-0.3,0.5l-0.3,0.3
	l0.6-0.1l0.3-0.5l0.1-0.1l0.1-0.2v-0.1v-1.1v-4.2V282.4 M193,282.4V282l-0.4,0.5v0.3L193,282.4 M193.6,281.6l-0.7,0.7v1.9l0.2,0.7
	l1.3,2.8v1.3l0.4-1.1l-0.2-0.8l-0.3-0.9l-0.3-0.5l-0.3-0.6l-0.1-0.5v-0.1V281.6 M193,282.4l0.7-0.7v-0.3L193,282V282.4 M191,284.3
	l-1,1.1v0.3l2.6-3v-0.3L191,284.3 M190.9,210.6l-0.8-0.1v40.9v0.9v6.6v4.9v0.1l2.5-2.8l-0.1-51.4L190.9,210.6 M193.7,199.2
	L193.7,199.2v3.9V199.2 M193.6,199.3l-0.7,0.3l0.1,60.8l0.6-0.7v-56.7L193.6,199.3 M193,199.1v0.5l0.7-0.3v-0.4l-1.5,0.3H193
	 M193,199.6l-0.4,0.3v9.8l0.1,51.4l0.5-0.6L193,199.6 M193.7,198.9L193.7,198.9l-0.1,0.4l0.1-0.1V198.9 M189.5,200.3l-0.3-0.8
	l0.1-8.3l-0.3,8.7l0.5,1.2l1.2-0.2l1.9-1v-0.3l-1.6,0.9l-1.3,0.2L189.5,200.3 M191.3,199.3L191.3,199.3l1.3,0.2v-0.1L191.3,199.3
	 M191.3,199.3l-0.3,0.1L191.3,199.3L191.3,199.3 M192.1,199.1h-0.3l-0.5,0.1l1.3,0.1v0.1h0.1l-0.1,0.1v0.3l0.4-0.3v-0.5H192.1
	 M191.7,199.1L191.7,199.1l-0.5,0.1L191.7,199.1 M185.4,187.1l-2.4-1.3v22l2.4,1.4V187.1 M192.6,184v-0.3l-1.9,1.8l-1.6,3.4l0.2,1.8
	V189l0.6-1.6l1.1-1.7L192.6,184 M194.2,182.1l-1.6,1.6v0.3l1.6-1.7V182.1 M192.1,179l-3.1,1.7l-0.2,0.4l-3.4,5.6v0.4v22.1l0.3,0.1
	h0.1l4.2,0.8h0.1v0.3l0.8,0.1l1.6-0.9v-9.8l-1.9,1l-1.2,0.2l-0.5-1.2l0.3-8.7v-0.5l-0.2-1.8l1.6-3.4l1.9-1.8l-0.2-4.6L192.1,179
	 M192.4,179.2v-0.5l-0.3,0.3L192.4,179.2 M186.3,179.7l2.5,1.5l0.2-0.4l3.1-1.7l-0.7-0.5l-0.7-0.3l-0.9-0.6L186.3,179.7
	 M186.5,179.3l-0.7,1.3l0.5-0.9l3.5-2v-0.3l-0.9,0.5L186.5,179.3 M185.8,180.5l-2.7,4.6v0.7l2.4,1.3v-0.4l3.4-5.6l-2.5-1.5
	L185.8,180.5 M194.4,175.4l-0.2,0.1v6.7v0.2l0.2-0.2V181V175.4 M191.4,175.6l-0.7-0.2v2.8l0.7,0.3V175.6 M190.2,175.2l-0.2-0.1v2.2
	l-0.2,0.1v0.3l0.9,0.6v-2.8L190.2,175.2 M190.4,174.9l-0.4-0.3v0.5l0.2,0.1l0.5,0.2l0.7,0.2v-0.4L190.4,174.9 M191.5,169.2v4v2h-0.1
	v0.4v2.9l0.7,0.5l0.3-0.3v-9.1L191.5,169.2 M194.4,172.3l-0.2,0.3v2.8l0.2-0.1V175V172.3 M192.6,169.6l-0.2,0.1v9.1v0.5l0.2,4.6
	l1.6-1.6v-6.7v-2.8v-4L192.6,169.6 M194.2,168.6l-1.1-0.5l-1.6,0.9v0.2l0.9,0.4l0.2-0.1L194.2,168.6 M190.9,169l-0.9-0.5v3.8v0.6
	l0.9,0.3V169 M191.5,168.8v0.3l1.6-0.9l1.1,0.5v4l0.2-0.3v-0.1v-1.8v-2.2l-1.1-0.5L191.5,168.8 M191,169L191,169l-0.1,4.2h0.1V169
	 M190,168.2v0.2l0.9,0.5h0.1v-0.5l1.3-0.6l-0.8-0.5L190,168.2 M190.1,168L190.1,168l-0.1,0.3l1.5-0.9l0.8,0.5l0.3-0.3l-0.9-0.6
	L190.1,168z"/>
<path class="st1" d="M148.5,281.7l-0.2-0.3l-0.3,0.7L148.5,281.7 M148.6,281.3l-0.3,0.1l0.2,0.3l0.3-0.1L148.6,281.3 M145.2,285
	l-0.2,0.1h0.5l1.3-0.7L145.2,285 M143.9,284.9l-0.2-0.3l-0.5-0.1L143.9,284.9 M144.4,285l-0.5-0.1l0.2,0.1H144.4 M142.1,284.6
	l-0.2-0.1l0.1,0.1l0.4-0.1H142.1 M146.8,273.6l-0.3,0.5l-0.2,0.2l-0.3,0.4l0.8-0.9V273.6 M142.3,274.7L142.3,274.7l-0.2-0.1
	L142.3,274.7 M142.7,246.5L142.7,246.5l-0.1,0.5v3.8v3.4v0.4v1.9v0.2l-0.1,0.1l-0.6,0.6l-0.1,0.4l-0.5,0.8v0.1v0.4v0.4v11.7v0.5v1.9
	l0.5,0.8l0.3,0.3h0.2v0.1l0.1,0.1l-0.1,3.2v1.1l-0.2,0.7l-0.3,1l-0.5,1.2l-0.1,0.1l-0.3,0.5l0.1,0.1l-0.1,0.3l0.1,0.1v0.1l0.9,1.3
	l0.2,0.1h0.3l0.1-0.1l0.4-0.1l0.1-0.1l0.3,0.2l0.5,0.1l0.2,0.3l0.5,0.1l0.6,0.1l0.2-0.1l1.6-0.6l0.6-0.8l0.5-1.4l0.1-0.1l0.3-0.7
	l0.3-0.1v-0.1l0.4-0.2l-1.8-2.8l-0.5,0.4l-0.6,0.3v-1.3l-0.1-2.8l0.1-0.2l0.3-0.4l0.2-0.2l0.3-0.5v-8.3v-6.1l-0.1-0.3v-0.2l-0.1-0.6
	l-0.5-1.3l-0.1-6.4l-0.1-3.8h-1.7H142.7z"/>
<path class="st2" d="M142.6,256.4h-0.1v0.3l0.1-0.1V256.4 M142.5,254.5v-0.4l-7.1,0.3l-13.7,0.4l-9,0.4L142.5,254.5 M142.5,254.1
	v0.4h0.1v-0.4H142.5 M141.3,258.1l-0.1,0.3v0.1l0.1,0.1v-0.1l0.5-0.8h-0.2l-0.1,0.3L141.3,258.1 M139,256.6l2.2,1.9v-0.1l0.1-0.3
	l0.2-0.1l0.1-0.3h0.2l0.1-0.4l0.6-0.6v-0.3L139,256.6 M146.1,244l-0.1,6.3l0.1,6.4V244 M142.6,246.9h-0.1v1.7v2.1h0.1V246.9
	 M146.2,227.8l-0.9,1l-1-0.9l-0.2,18.5h1.7l0.1,3.8l0.1-6.3v-2.1v-4.4v-8.9v-0.3l0.3-0.3L146.2,227.8 M147.7,228.6h0.1
	c0.4,0,0.6-0.1,0.6-0.3c0-0.2-0.1-0.3-0.3-0.3l-0.1-0.1c0.1,0.1,0.1,0.2,0.1,0.3C148.2,228.4,148,228.6,147.7,228.6 M147.9,227.8
	c-0.1,0-0.2,0-0.3,0c-0.5,0-0.7,0.1-0.7,0.4l0.2,0.1c0,0.1,0.2,0.2,0.5,0.3h0.1c0.3,0,0.5-0.1,0.5-0.4c0-0.1,0-0.2-0.1-0.3
	C148,227.9,148,227.9,147.9,227.8L147.9,227.8 M146.6,227.2l-0.1-0.2l-0.5-0.3c-0.5,0-0.8,0.2-0.7,0.6l1,0.5l0.1,0.1l0.5,0.2
	c0-0.3,0.2-0.4,0.7-0.4c0.1,0,0.2,0,0.3,0h-0.1L146.6,227.2 M142.5,206.9v-1.8h-0.1l-0.6,0.5L142.5,206.9 M175.7,185.4l0.8-1.3
	l-29.8,43.1l1.2,0.6l-1-0.6l7.5-11l3.3-4.8l10.8-15.5l0.3-0.5l4.9-7.1L175.7,185.4 M97.4,255.5c0.3,0.1,0.4,0.4,0.4,0.8l-0.3,0.7
	l-0.5,0.5l-0.1,0.2l-0.2,0.1l-2.7,0.1v0.1l2.9-0.1l0.1-0.2l0.2-0.1l0.1-0.1l0.3-0.3l16.8-0.4l4.2-0.1l3.2-0.1l2.8-0.1l14-0.3h0.1
	l0.4,0.3l3.5-0.1h0.1v-1.9h-0.1l-29.8,0.7L97.4,255.5l-0.7-0.8h-0.1l0.1,0.1l0.2,0.1l0.1,0.1L97.4,255.5 M97.2,255.8v-0.2l-0.3-0.6
	l-0.1-0.1l-0.2-0.1l-0.1-0.1l-2.6,0.1v3.2l2.7-0.1l0.2-0.1l0.1-0.2l0.4-0.8V256L97.2,255.8 M97.2,255.6v0.2l0.1,0.2v0.7l-0.4,0.8
	l0.5-0.5l0.3-0.7c0-0.4-0.1-0.7-0.4-0.8l-0.5-0.5L97.2,255.6 M93.9,220.8v2l12.5,7.2l14.7,8.5l1.6,0.9l1.3,0.7l1.9,1.1l0.8,0.5h0.1
	l1.3,0.8l4.8,2.8l3.8,2.2l5.6,3.1l0.1,0.2v-2.1L93.9,220.8 M99.1,221.7l-5.2-2.9v1.9l48.5,27.9v-1.7l-0.3-0.2l-2-1.2l-3.6-2.1l-7-4
	l-0.3-0.2l-3.2-1.7l-0.9-0.5l-13.4-7.8l-0.3-0.2h-0.1l-12-7L99.1,221.7 M93.9,187.3L93.9,187.3l26.6-15.2l-0.1-0.1L93.9,187.3
	 M93.9,185.4v1.9l26.6-15.3l-0.7-1.4L93.9,185.4 M93.9,183.2v2.2l25.8-14.8l-0.9-1.6l-4.7,2.6l-20.1,11.6H93.9 M93.9,144.6v2.6
	l1.9-1v-0.5L93.9,144.6 M97.8,140l-3.9-2.2v6.9l1.9,1.1v0.5v0.9v-0.9l-1.9,1v1.5l1.9-1.1l-1.9,1.1v2.5l3.9,2.2V140 M99.7,137.8v1.3
	l1.1-0.7L99.7,137.8 M93.9,136.5v1.3l3.9,2.2l1.2-0.6L93.9,136.5 M99.1,131.1l-5.1-2.9v8.3l5.1,2.9V131.1 M99.1,131.1l0.7-0.4
	l-5.8-3.3v0.8L99.1,131.1 M99.7,130.7l-0.7,0.4v8.3v1.9l0.7-0.3v-1.9v-1.3v-3.2v-2.1V130.7 M93.9,126.7v0.5l3.5,1.9l6.9-4l-6.7,3.7
	L93.9,126.7 M192.1,155.3l-0.3,0.2l-0.3,0.3l-0.1,0.4l0.2-0.3L192.1,155.3 M192.2,155.5v-0.3l-0.1,0.1l-0.4,0.7l0.3-0.3L192.2,155.5
	 M185.3,134.8l0.1-0.7l-0.1-0.1l-0.1,0.1l-0.1,0.7v0.1L185.3,134.8 M184.1,131.5L184.1,131.5l0.5,1.7l0.6,0.9l0.1-0.1l-0.5-0.7
	L184.1,131.5 M186.4,125.5l-2.2-5.8l-0.1,0.1l2.2,5.8L186.4,125.5 M182.9,116.1l-0.2-0.1l1.4,3.7l0.1-0.1L182.9,116.1 M203.2,104.3
	l-0.1-0.1L182.7,116l0.2,0.1L203.2,104.3 M141.6,159.6L141.6,159.6l43.5-24.8l0.1-0.7l-0.6-0.9l-43.6,25.2L141.6,159.6 M149.5,155.5
	l0.7-0.4l5.3-3.2l3.9-2.2l25.7-14.7v-0.1l-43.4,24.9l2.2,4.8l1.5,5l0.5,4.7v47.9l0.1-0.3V204v-15.1v-15.2l-0.5-4.7l-1.5-4.9
	l-2.2-4.4l3.3-1.8L149.5,155.5 M138.7,161.4l-0.9-1.3l-15.1,8.7l0.7,1.3L138.7,161.4 M128.2,167.7l3.1-1.7l7-4.1l0.3-0.1l0.5,0.3
	l-0.3-0.6l-15.3,8.7l18.3,35.4l0.6-0.5l-0.5,0.2l-6.4-12.2l-6.9-13.4l-0.3-0.5l-4.6-8.9L128.2,167.7 M137.8,153.8l-0.3,0.2l1.1,1.1
	l2.4,3.3l43.6-25.2l-0.5-1.7l-28.3,16.3l-3.7,2.1l-5.4,3.1l-3.4,2l-3.2,1.7l-0.1-0.1l-1.2-1.9L137.8,153.8 M148.3,147.6l3.8-2.2
	l30.6-17.7l0.1-0.1l0.9-0.5l2.6-1.5l0.1-0.1l-2.2-5.8l-51.9,29.7l2.8,2.1l2.4,2.6l0.3-0.2l-0.1-0.1l3.4-1.9l1.9-1.1L148.3,147.6
	 M123.5,166.5l-1.5,0.8l0.7,1.5l15.1-8.7l-0.9-1.4l-2.2,1.2l-3.4,1.9l-3.1,1.8L123.5,166.5 M122,167.2L122,167.2v0.1V167.2
	 M120.3,164l-0.1-0.2l3.2-1.9l4.7-2.7l6.1-3.6l-1.3-1.5l-3.5-2.5l-0.5-0.3l-11.6,6.9l4.6,8.9h0.1L120.3,164 M116.9,165.7l0.2-0.1
	l-3-5.6l-20.2,11.6v7.5L116.9,165.7 M100.8,144.6v7.1l-3,1.7l-3.9-2.2v20.4l20.2-11.6l-9.1-17.7L100.8,144.6 M100.8,143.3v-5
	l-1.1,0.7v1.9l-0.7,0.3v-1.9l-1.2,0.6v13.4l3-1.7v-7.1V143.3 M104.5,141.2l0.5,1l9.1,17.7l3,5.6l0.1-0.1l1.7,3.4l-0.1,0.1l0.9,1.6
	l0.7,1.4l0.1,0.1l0.1-0.1l3.2,6.1l4.8,9.1l3.6,6.9l6.6,12.6l2.5,4.7l1.2,2.5v-2.9L104.1,137l-2.5-1.5L104.5,141.2 M100.8,143.3
	l3.7-2.1l-2.9-5.6l-1.9-1v3.2l1.1,0.5V143.3 M104.5,141.2l-3.7,2.1v1.3l4.2-2.4L104.5,141.2 M112.5,137.9l-1.1-0.6l-13.9-8.1
	l-3.5-1.9v0.2l5.8,3.3v1.7l29.7,17.2l3.9,2.8l3.5,3.8l3,4.4l2.3,4.8l1.6,5l0.4,4.7v49.5l1.8-2.6v-47.9l-0.5-4.7l-1.5-5l-2.2-4.8
	l-0.1-0.1l-0.7-1.1l-2.4-3.3l-1.1-1.1l-2.4-2.6l-2.8-2.1l-0.9-0.7L112.5,137.9 M107.8,139.1l1.3,0.8l19.8,11.4l0.5,0.3l3.5,2.5
	l1.3,1.5l0.4-0.3l2.5,3.2l-0.3,0.2l0.9,1.4l0.9,1.3l0.3,0.6l0.5,0.3l0.1,0.3l1.3,2.6l1.2,4.4l0.5,4.1v16.6v14.7l-0.2,0.1v1.8v4.2
	v2.9l0.2,0.4v8.1v5v3.9v8.4v4.4v2.3h1.5l0.2-18.5l-0.9-2.2l0.7-1.1v-49.5l-0.4-4.7l-1.6-5l-2.3-4.8l-3-4.4l-3.5-3.8l-3.9-2.8
	l-29.7-17.2v2.1l1.9,1l2.5,1.5l3.1,1.7L107.8,139.1 M107.5,139.4l0.3-0.3l-0.6-0.3L107.5,139.4 M108.1,140.5l-0.5-1.1l-0.3-0.6
	l-3.1-1.7l38.4,74.1v-4.2l-0.7-1.3l-18.3-35.4l-0.7-1.3l-0.7-1.5l-0.1-0.1l-4.6-8.9L108.1,140.5 M109.1,139.9l-1,0.5l9.2,17.7
	l11.6-6.9L109.1,139.9 M108.1,140.5l1-0.5l-1.3-0.8l-0.3,0.3L108.1,140.5 M146.6,64.8l-15.2-8.9l-4.2-1.7l-5.2-0.7l-5.3,0.2
	l-5.2,1.3l-4.8,2.1l-4.2,3.2L85.5,84.7h0.1l16.7-24.2l4.2-3l4.9-2.2l5.2-1.3l5.3-0.2l5,0.8l4.4,1.7L146.6,64.8 M189.2,93.6l-6.7,3.8
	v7.1l-2.9,1.6l-4.7-2.8v-1.5l-62.4,36l18.8,10.8l0.9,0.7l51.9-29.7l-1.4-3.7l20.4-11.8l0.1,0.1l1.7,0.9l0.3,0.2l0.1-0.1l-0.1,0.5
	l-0.5,1.9v-0.1l4.4-2.4L189.2,93.6 M182.5,96v1.4l6.7-3.8l-1.3-0.7L182.5,96 M181.5,89.3v1.3l1,0.6V96l5.3-3.1L181.5,89.3
	 M181.5,90.5v1.2l1-0.6L181.5,90.5 M180.9,94.1v-1.9l-1.2,0.6v13.4l2.9-1.6v-7.1V96v-4.9l-1,0.6v1.9L180.9,94.1 M164,90.6l-3.8,2.2
	l-55.9,32.4l-6.9,4l13.9,8.1l66.3-38.4v-0.5L164,90.6 M160.2,92.5v0.2l3.8-2.2l13.6,7.8v0.5v1v-1l-66.3,38.4l1.1,0.6l62.4-36
	l0.2-0.1l2.6-1.5l-2.6,1.5l-0.2,0.1v1.5l4.7,2.8V92.7l-19.5-11.2l0.1,8.2V92.5 M160.2,81.5v0.1l19.5,11.2l1.2-0.6l-19.5-11.2
	L160.2,81.5L160.2,81.5 M161.2,73.6v2.2V77l0.3,0.1v3.7l-0.1,0.1l19.5,11.2v-7.2L161.2,73.6 M174.6,82l0.3,0.6l-0.3,0.5l-0.3,0.3
	h-0.1h-0.1h-0.1l-0.1-0.1h-0.2l-0.1-0.1h-0.1l-0.1-0.1v-0.1l-0.1-0.1v-0.1l-0.1-0.1v-0.4l0.1-0.1V82l0.5-0.1l0.4,0.1l0.1,0.1H174.6
	 M166.5,77.5l0.2,0.1l0.3,0.1l0.1,0.1l0.5,0.7l-0.2,0.4l-0.3,0.3h-0.3V79h-0.3v-0.1h-0.1l-0.1-0.2v-0.1l-0.1-0.1v-0.1l-0.1-0.1v-0.3
	l0.1-0.1v-0.2h0.1l0.1,0.1v-0.1L166.5,77.5 M166.3,78l-0.1-0.1h-0.1V78l-0.1,0.1v0.3l0.1,0.1v0.1l0.1,0.1v0.1l0.1,0.2h0.1V79h0.3
	v-0.1h-0.2l-0.1-0.1v-0.2l-0.2-0.1v-0.1h-0.1v-0.3L166.3,78L166.3,78 M167.1,77.8L167.1,77.8l-0.4-0.2L167.1,77.8 M166.7,77.6
	l-0.2-0.1l-0.3,0.3L166.7,77.6 M173.5,82L173.5,82l-0.1,0.1h0.1V82 M174.2,83.3L174.2,83.3L174.2,83.3L174.2,83.3 M173.7,83.1
	L173.7,83.1l0.1,0.1h0.2l-0.1-0.1h-0.1H173.7l0.1-0.1l-0.1-0.1v-0.1l-0.1-0.1v-0.5l0.1-0.1h-0.1h-0.1l-0.1,0.1v0.4l0.1,0.1v0.1
	l0.1,0.1V83L173.7,83.1 M174.2,83.3h-0.1H174l0.1,0.1L174.2,83.3L174.2,83.3 M174.3,82L174.3,82l-0.4-0.1l-0.5,0.1h0.1v0.1h0.1
	l0.4-0.2L174.3,82 M174.5,82l-0.1-0.1V82H174.5 M157.7,75.1l3.6,1.9v-1.3l-31.8-18.4l31.8,18.4v-2.2l0.4-0.2l-15.1-8.6l-15.3-8.5
	l-4.4-1.7l-5-0.8l-5.3,0.2l-5.2,1.3l-4.9,2.2l-4.2,3L85.5,84.7h2.3l16.1-23.3l3.8-2.6L112,57l4.7-1.2l4.6-0.2l4.4,0.7l3.7,1.6
	l-3.7-1.6l-4.4-0.7l-4.6,0.2L112,57l-4.3,1.9l-3.8,2.6L87.8,84.7h1.7l14.2-20.6l0.7-1.1l3.8-2.9l4.4-2l4.6-1.1l4.6-0.1l4.4,0.6
	l3.6,1.6l0.2,0.1L157.7,75.1 M162,73.3l4.5,2.6L162,73.3L162,73.3 M180.9,84.9l0.7-0.4l-3.6-2.1l-11.4-6.6l-4.5-2.6l-0.3,0.2
	l-0.1-0.1l-0.4,0.2L180.9,84.9 M181.5,85.4v-0.8l-0.7,0.4v7.2v1.9l0.7-0.5v-1.9v-1.2v-1.3v-1.4V85.4 M220.4,113.6l0.1,0.5l-0.7,3.9
	l-1.7,3.6L144.4,228l1,0.9l0.9-1l-1-0.5c0-0.4,0.2-0.6,0.7-0.6l0.5,0.3l0.1,0.2l29.8-43.1l6.7-9.6l0.1-0.1l3-4.2l2.2-3.2l3.8-5.4
	l0.6-1l3-4.4l0.3-0.4l1.5-2.2l20.5-29.6l0.2-0.3l0.3-0.5l1.7-3.6v-0.1l0.2-1.1l0.3-1.5l0.1-0.9L220.4,113.6 M215.1,109.1l-2-1.7
	l-3.9-2.2l-4.4,2.4v0.1l-2.2,8.3L215.1,109.1 M215.5,108.2l-3-2.4l-31.1-17.9v1.4l6.3,3.7l1.3,0.7l20,11.6l3.9,2.2l2,1.7l0.3-0.3
	l0.7,0.6l1.3,1.9L215.5,108.2 M219.7,110.3l-1.7-2.6l-0.5-0.7l-3.3-2.6l-1.9-1.1l-19.8-11.5l-1.3-0.7l-9.7-5.6v2.5l31.1,17.9l3,2.4
	l1.9,3.2l0.3,0.6l0.5,1.9l-0.5,3.6l-0.2,0.3l-1.1,2.4l-0.6,1.1l-20.2,29.4l-0.3,0.3l-3,4.1l-0.1,0.1v0.3l-0.2,0.2l-0.3,0.3l-0.2,0.3
	l-0.2,0.5l-0.3,0.3l-5.6,8.1l-2.1,3.2l-3,4.4l-6.8,9.7l-1.9,2.8l-8.4,12.1l-5.4,7.9l-3.4,4.9l-8.3,11.8v-0.3l-0.1,0.3l-1.8,2.6
	l-0.7,1.1l0.9,2.2l73.8-106.4l1.7-3.6l0.7-3.9l-0.1-0.5L219.7,110.3 M218.3,107.5l-0.3,0.2l1.7,2.6l0.7,3.3l0.5,2.2l-0.1,0.9
	l0.1-1.4l-1.1-5.4L218.3,107.5 M231.3,93.9l-0.7-1.7V69.6l-38.1,22.2l19.8,11.5l17.9-10.4l-17.9,10.4l1.9,1.1l3.3,2.6l0.5,0.7
	l0.3-0.2l-0.2-0.3l16.1-9.3v-0.6l-0.2-0.9l-0.7-0.7l-0.8-0.4L231.3,93.9 M230.9,69.5l-0.2,0.1v22.7l0.7,1.7l1.1,1.3l0.8,0.4l0.7,0.7
	l0.2,0.9v0.6l0.1-0.1v-0.9l-0.1-0.8l-0.7-0.7l-0.8-0.5l-1.1-1.2l-0.6-1.7V69.5 M234.2,67.5v-0.1v-1.1L191.3,91l1.3,0.7l38.1-22.2
	l0.2-0.1v-0.3L234.2,67.5 M220.4,58.2l-9,5l-33.5,19.2l3.6,2.1v0.8l9.7,5.6l42.9-24.8L220.4,58.2 M211.4,63.2l9-5l13.8,8v1.1
	l0.1-0.5v-1.1l-13.8-7.9L211.4,63.2z"/>
<path class="st3" d="M191.4,173.5h-0.5l-1.1-0.3l-1.1-0.6l-0.3-0.3l-0.3-0.2c-0.1,0-0.2,0-0.3,0.1c0,0.1,0,0.2,0,0.2l0.1,0.3l1,1.3
	l1,0.6l0.4,0.3l1,0.3V173.5 M191,173.2L191,173.2l-0.1,0.3h0.5v-0.3H191 M191.5,173.2h-0.1v0.3v1.7h0.1V173.2 M189.8,172.8v0.4
	l1.1,0.3v-0.3l-0.9-0.3L189.8,172.8 M189.8,173.2v-0.4l-0.9-0.5l-0.5-0.5c-0.3,0-0.5,0.1-0.5,0.4c0,0,0.1-0.1,0.3-0.1l0.3,0.2
	l0.3,0.3L189.8,173.2 M194.4,172.3L194.4,172.3l0.4-0.4l0.1-0.3l-0.4,0.5L194.4,172.3 M196.2,155.7l-0.3,0.5l0.6,0.8l0.1,0.4v0.9
	l0.2-0.4v-0.8L196.2,155.7 M195.8,156.1v0.1l0.3-0.5l-0.1-0.1L195.8,156.1 M195.2,160.2l-0.1,0.1v5.4l1.6,1.3l0.4,0.6l0.3,0.7
	l0.3,0.9l0.1,1.6l-0.5,1.7l0.2-0.3v-0.1l0.4-1.7l-0.1-1.5v-0.3l-0.3-0.7l-0.8-1.3l-1.6-1.3V160.2 M193.2,160.6l-0.4,0.1v4.3l1.6,1.1
	l0.9,1.5l0.3,1.3v0.6l-0.1,0.4l-0.3,0.9v0.1l-0.2,0.3l-0.1,0.2l-0.1,0.1l-0.1,0.3l-0.4,0.5v2.7l0.3-0.1l0.5-0.3l1.8-1.7l0.2-0.3
	l0.5-1.7l-0.1-1.6l-0.3-0.9l-0.3-0.7l-0.4-0.6l-1.6-1.3v-5.4l-0.8,0.3H193.2 M192.8,160.5v0.3l0.4-0.1h1l0.8-0.3l0.1-0.1V160
	l0.4-0.1l0.3-0.3l0.6-1.2v-0.9l-0.1-0.4l-0.6-0.8L192.8,160.5 M192.8,160.4L192.8,160.4l3-4.2v-0.1L192.8,160.4 M195.3,151v-0.3
	l-3,4.2v0.2L195.3,151 M195.3,151l0.3-0.3v-0.3l-0.3,0.3V151 M195.3,140.5l-0.2,0.2l0.2,9.9l0.3-0.3L195.3,140.5 M193.6,141.9
	l-1.3,0.5v12.4l3-4.2l-0.2-9.9L193.6,141.9 M198.9,132.7l-0.6-2.3l-0.3,0.3l0.7,2.4l-0.7,3.4l0.1-0.3L198.9,132.7 M193.8,134.3
	l-2.1-0.1l-0.8-0.9l-0.3-0.1l-1.4,2.4l-0.7,3.4l0.6,2l2.2,1.3l1.1-0.3v0.4l1.3-0.5l1.5-1.2l0.2-0.2v-0.3l1.1-0.9l0.3-0.5l1.3-2.4
	l0.7-3.4l-0.7-2.4l-1.8,2.2L193.8,134.3 M182.8,127.9l1.3,3.6l0.7,1.8l0.5,0.7l0.1-1.1l0.3-0.2l-2-5.4L182.8,127.9 M188.2,131.1
	l-0.5-1.5l-2.1,3.2l-0.3,0.2l-0.1,1.1l0.1,0.1l-0.1,0.7l-0.4,1.5l0.8,2.6v0.1l3.4,2l-0.6-2l0.7-3.4l1.4-2.4l-1-0.5L188.2,131.1
	 M183.7,127.4l-0.1-0.2l-0.9,0.5l0.1,0.3L183.7,127.4 M186.2,125.7l-2.6,1.5l0.1,0.2L186.2,125.7 M186.2,125.5l-0.1,0.1l-2.5,1.7
	l2,5.4l2.1-3.2L186.2,125.5 M184.9,117.5l-2-1.4l1.3,3.6l2.2,5.8l-0.2,0.1l1.5,4l0.5,1.5l1.3,1.5l1,0.5l0.3,0.1l-0.7-0.7l-5.4-15
	L184.9,117.5 M202.6,116.5L202.6,116.5l-2.8,10.6l0.1-0.3L202.6,116.5 M202.6,116.5l0.1-0.5L202.6,116.5L202.6,116.5 M204.8,107.7
	l0.5-1.9l-20.4,11.7l-0.1,0.1l5.4,15l0.7,0.7l0.8,0.9l2.1,0.1l2.5-1.4l1.8-2.2l0.3-0.3l-0.1-0.1l0.7-1.1l0.9-2l2.8-10.6l0.1-0.5
	L204.8,107.7 M193.7,127.2l1.3-1.4l1.3-0.2l0.5,1.3l-0.5,1.8l-1.3,1.5l-1.3,0.1l-0.7-1.1L193.7,127.2 M195,125.7l-1.3,1.4l-0.7,1.9
	l0.7,1.1l1.3-0.1l1.3-1.5l0.5-1.8l-0.5-1.3L195,125.7 M205,105.2l-1.7-0.9l-20.4,11.8l2,1.4l20.4-11.7l0.1-0.5l-0.1,0.1L205,105.2z"
	/>
<path id="Layer0_1_1_STROKES" class="st4" d="M211.4,63.3l9-5.1l13.8,8v1.1 M211.4,63.3l-33.5,19.2l3.6,2.1v0.8l9.7,5.6l42.9-24.8
	 M234.2,67.5l-0.2,0.3l-3.1,1.7 M234.2,97.9v0.4l-15.9,9.2 M220.8,116.7l-0.3,1.5l-0.2,1.2l-1.7,3.6l-0.3,0.5 M218.2,123.9
	l-20.5,29.6l-1.5,2.3 M196.5,158.3l-0.1,0.5l-0.7,1.1l-0.3,0.3l-0.2,0.1 M230.9,69.5l-0.2,0.1v22.7l0.7,1.7l1.1,1.3l0.8,0.4l0.7,0.7
	l0.2,0.9v0.6 M218.3,107.5l-0.3,0.2l1.7,2.6l0.7,3.3l0.5,2.2l-0.1,0.9 M218,107.7l-0.5-0.7l-3.3-2.6l-1.9-1.1l-19.8-11.5l-1.3-0.7
	 M181.5,85.4v2.5l31.1,17.9l3,2.4l1.9,3.2 M217.6,117.8l-1.1,2.4 M192.2,155.2v0.3l-0.2,0.2l-0.3,0.3l-0.2,0.3 M146.1,221.8
	l-0.1,0.3l-1.8,2.6l-0.7,1.1l0.9,2.2l73.8-106.4l1.7-3.6l0.7-3.9l-0.1-0.5 M202.6,116.5l12.7-7.4l-0.2-0.1 M199.7,127.2l-0.9,2
	l-0.5,1.2 M198.1,136.4l-1.3,2.4l-0.5,0.9l-0.9,0.8 M195.6,150.4l20.4-29.5l0.5-0.7 M215.1,109.1l-2-1.7l-3.9-2.2l-4.3,2.5l0,0
	l-2.2,8.3l-0.1,0.5h0.1 M217.5,111.4l0.3,1l0.3,1.9l-0.5,3.5 M217.8,112.4l-1.8-2.6l-0.7-0.6 M215.9,120.8l-0.1,0.4 M230.3,92.8
	l-17.9,10.4 M174.5,82l0.2,0.5l-0.1,0.5l-0.3,0.3 M174.2,83.3L174.2,83.3L174.2,83.3 M174.5,82l-0.1-0.1V82 M173.7,82.1L173.7,82.1
	h0.3l0.3-0.1 M174.1,83.3l0.1-0.1v-0.3v-0.3v-0.1l-0.2-0.2l-0.1-0.1v-0.1h-0.1l-0.1-0.1 M174.2,82.6L174.2,82.6l0.1,0.1l0.3-0.2
	 M174,82.3v-0.2 M174.2,83.3h-0.1l-0.1-0.1h-0.2l-0.1-0.1h-0.1l-0.1-0.1v-0.1l-0.1-0.1v-0.1l-0.1-0.1v-0.4l0.1-0.1V82l0.5-0.1
	l0.4,0.1 M174.2,83.3v-0.1 M174.1,83.3L174.1,83.3 M173.7,82.1h-0.1h-0.1 M174.2,82.9l0.1-0.1 M173.5,82.1V82h-0.1 M181.5,84.5
	l-0.7,0.4v7.2v1.9l0.7-0.5v-1.9v-1.2v-1.3v-1.4 M162,73.3l-0.1-0.1l-0.3,0.1l0.1,0.1 M177.9,82.5l-11.4-6.6l-4.5-2.6 M166.3,77.8
	l0.3-0.3l0.2,0.1l0.3,0.1l0.1,0.1 M166.7,79h-0.3v-0.1h-0.1l-0.1-0.2v-0.1l-0.1-0.1v-0.1l-0.1-0.1v-0.3l0.1-0.1v-0.2h0.1l0.1,0.1
	 M167.1,77.8l0.3,0.6l-0.1,0.5l-0.5,0.1h-0.1 M166.3,78h0.3v0.1l0.1,0.1v0.1l0.1,0.1v0.1h0.2l0.1,0.1l-0.3,0.1v0.2V79 M157.7,75.1
	l3.6,2.1V77v-1.3l-31.8-18.4 M161.2,75.7v-2.2l0.4-0.2l-15.1-8.6l-15.3-8.5l-4.4-1.7l-5-0.8l-5.3,0.2l-5.2,1.3l-4.9,2.2l-4.2,3
	L85.5,84.7 M87.8,84.7l16.1-23.3l3.8-2.6L112,57l4.7-1.2l4.6-0.2l4.4,0.7l3.7,1.6 M160.2,89.8l-0.3-8.3h0.1l1.1-0.6v-3.7
	 M161.4,80.9l-0.1-0.1 M160.2,81.6l-0.1-0.1 M166.7,79L166.7,79 M166.8,78.4v0.3 M160.2,92.5v-2.8 M160.2,81.6l19.5,11.2l1.2-0.6
	l-19.5-11.2 M160.2,92.7l3.8-2.2l13.6,7.8v0.5v1 M177.6,98.9l-66.3,38.4l1.1,0.6l62.4-36l0.2-0.1l2.6-1.5 M180.9,84.9l-19.6-11.4
	 M179.6,92.7v13.4l2.9-1.6v-7.1V96v-4.9l-1,0.6 M182.5,97.5l6.7-3.8l-1.3-0.7l-5.3,3.1 M187.8,92.9l-6.3-3.7 M182.5,91.1l-1-0.6
	 M157.7,75.1l-27.5-15.9l-0.2-0.1l-8.1-1.9l-4.7,0.3l-4.7,1.1l-4.4,1.9l-3.8,2.9l-0.5,0.8L89.5,84.7 M109.1,139.9l-1.3-0.8l-0.3,0.3
	l0.5,1.1L109.1,139.9l19.8,11.4l0.5,0.3l3.5,2.5l1.3,1.5 M136.9,158.8l0.9,1.4l0.9,1.3l0.3,0.6 M142.5,205.1v1.8v4.2v2.9
	 M144.2,246.5l0.2-18.5l1,0.9l0.9-1l-1-0.5c0-0.4,0.2-0.6,0.7-0.6l0.5,0.3l0.1,0.2l29.8-43.1l6.7-9.6 M183.2,174.3l3-4.2l2.2-3.2
	l3.8-5.4 M100.8,143.3v1.3l4.2-2.4l-0.5-1L100.8,143.3v-5l-1.1,0.7v1.9l-0.7,0.3v-1.9l-1.2,0.6v13.4l3-1.7v-7.1 M144.2,224.7v-49.5
	l-0.4-4.7l-1.6-5l-2.3-4.8l-3-4.4l-3.5-3.8l-3.9-2.8l-29.7-17.2v2.1l1.9,1l2.5,1.5l3.1,1.7l0.6,0.3 M107.2,138.8l0.3,0.6
	 M116.9,165.7l-23,13.3 M104.4,125.1l55.9-32.4 M117.1,165.6l1.7,3.2l0.1,0.1 M117.1,165.6l-3-5.6l-20.2,11.6 M134.3,155.7l0.1,0.1
	l1.5,1.6l0.9,1.3l0.1,0.1 M122,167.3l0.7,1.5l15.1-8.7 M123.5,162.2l4.7-2.7 M128.9,151.4l-11.6,6.9l4.6,8.9h0.1l1.5-0.9
	 M123.5,162.2l-3.2,1.8 M128.2,163.7l-4.7,2.6 M134.4,155.8l-6.3,3.7 M121.9,167.2l0.1,0.1 M105,142.2l9.1,17.7 M108.1,140.5
	l9.2,17.7 M148.5,147.7l-5.3,3l-1.9,1.1 M151.8,149.9l-5.2,3.1 M152.2,145.5l-3.7,2.2 M151.8,149.9l3.8-2.2 M152.2,145.5l30.5-17.5
	l-0.1-0.3 M186.2,125.5l-2.2-5.8l-51.9,29.7l2.8,2.1l2.4,2.6l0.3-0.2 M112.5,137.9l18.8,10.8l0.9,0.7 M136.8,158.7l-2.2,1.2
	l-3.3,1.9 M143.2,154.9l-3.2,1.9 M141.2,151.9l-3.4,1.9 M146.6,153l-3.4,1.9 M155.6,147.7l28.3-16.2l-1.3-3.6l0.1-0.1 M137.4,154
	l1.1,1.1l2.4,3.3l43.6-25.2l-0.5-1.7 M128.2,163.7l3.1-1.9 M139,162l0.1,0.3l1.6,3.3l1.2,4.4l0.5,3.6l0.1,0.5v16.2 M162.9,197.5
	l8.6-12.4 M140.9,158.5l0.7,1.1l0.1,0.1l43.4-24.9l0.1-0.7l-0.6-0.9 M141.7,159.7l2.2,4.8l1.5,5l0.5,4.7v47.9 M101.6,135.6l2.9,5.6
	 M184.1,119.7l-1.4-3.7l20.4-11.8l0.1,0.1l1.7,0.9 M205.3,105.8l-0.5,1.9 M182.9,116.1l2,1.4l20.4-11.7 M184.9,117.5l-0.1,0.1
	l5.4,15l0.7,0.7l0.8,0.9l2.1,0.1l2.5-1.4l1.8-2.2l0.3-0.3 M182.7,116l0.2,0.1 M193.7,127.2l-0.7,1.9l0.7,1.1l1.3-0.1l1.3-1.5
	l0.5-1.8l-0.5-1.3l-1.3,0.2L193.7,127.2z M184.2,119.6l-0.1,0.1 M183.5,127.2l0.1,0.2l2.5-1.7 M189.1,141l-0.6-2l0.7-3.4l1.4-2.4
	l-1-0.5l-1.3-1.5l-0.5-1.5l-2.1,3.2l-0.3,0.2l-0.1,1.1 M192.3,142.5l1.3-0.5l1.5-1.2l0.2-0.2 M182.8,127.9l0.9-0.5l2,5.4
	 M185.2,134.2l0.1-0.1 M183.9,131.5L183.9,131.5 M185.1,134.8v0.1l-0.3,1.3l0.9,2.6 M190.9,133.3l-0.3-0.1 M187.8,129.6l-1.5-4
	 M198.1,130.7l0.7,2.4l-0.7,3.4 M199.7,127.2l2.8-10.6 M179.6,106.1l-4.7-2.8v-1.5 M189.1,141l0.1,0.5l1.8,1.2l1.2-0.3h0.1
	 M192.3,154.9l3-4.2l-0.2-9.9 M195.6,150.4l-0.3,0.3v0.3 M185.7,139.6l3.5,1.9 M191.5,156.2L191.5,156.2l-0.5,0.9 M192.1,155.3
	l0.1-0.1v-12.6 M192.3,154.9l-0.1,0.3v0.1 M192.1,155.3l-0.4,0.7 M192.8,160.5l3-4.3v-0.1 M192.8,160.5l-0.6,0.9 M192.8,160.8
	l0.4-0.1h1l0.8-0.3l0.1-0.1 M196.5,158.3v-0.9l-0.1-0.4l-0.6-0.8l0.3-0.5 M185.3,165.1l-2.2,3.1l-3,4.4 M185.3,165.1l6.1-8.9
	 M190,168.2l-0.2,0.1l0.2,0.1 M190,168.2l1.5-0.9l0.8,0.5 M191,169l1.5-1l-0.2-0.1 M191,169L191,169l-0.1,4.2 M195.4,170.1v-0.7
	l-0.3-1.2l-0.3-0.5l-0.7-1l-1.6-1.2v-4.5l0.2-0.1 M195.1,171.3l-0.1,0.2l0,0.1l-0.2,0.3l-0.4,0.5 M197.1,172.9l0.2-0.3l0.5-1.7
	l-0.1-1.6l-0.3-0.9l-0.3-0.7l-0.4-0.6l-1.6-1.3v-5.4 M190,168.4l0.9,0.5 M191.5,169l1.6-0.9l1.1,0.5v4l0.2-0.3 M209.2,105.2
	l-20-11.6 M99.7,132.5v-1.7l-0.7,0.4v8.3l-5.1-2.9 M99.1,131.1l-5.1-2.9 M93.9,127.4l5.8,3.3 M93.9,127.2l3.5,1.9l6.9-4 M99.7,139.1
	v-1.3v-3.2 M97.8,140l-3.9-2.2 M93.9,147.2l1.9-1v-0.5l-1.9-1.1 M95.8,146.2v0.9 M95.8,147.6l-1.9,1.1 M97.8,153.4l-3.9-2.2
	 M93.9,185.4l25.8-14.8l-0.9-1.6 M114.2,171.6l-20.1,11.6 M93.9,187.3l26.6-15.3l-0.7-1.4 M120.6,172.1L120.6,172.1 M99.1,221.7
	l-5.2-2.9 M93.9,220.8l48.5,27.9v-1.7 M142.2,246.7l-2-1.2 M125.3,236.9l-13.4-7.8l-0.3-0.2 M106.4,230l-12.5-7.2 M97.4,255.5
	l-0.5-0.5l0.3,0.6v0.2l0.1,0.2v0.7l-0.4,0.8l0.5-0.5l0.3-0.7C97.8,255.9,97.6,255.7,97.4,255.5z M96.6,254.7l-2.6,0.1 M93.9,258
	l2.7-0.1l0.2-0.1l0.1-0.2 M96.9,255L96.9,255l-0.3-0.2l-0.1-0.1 M97.4,255.5l15.3-0.3 M97.2,257.6l14.7-0.3h2.3 M139,256.6l3.5-0.1
	h0.1 M142.6,254.5h-0.1l-29.8,0.7 M195,175.1L195,175.1l1.4-1.1l0.5-0.7l0.1-0.3 M195.1,171.3l0.1-0.3l0.3-0.8 M191.5,169.2l0.9,0.4
	l0.2-0.1l1.6-1 M191.5,169l-0.1,0.1l0.1,0.1 M187.8,172.1c0,0,0.1-0.1,0.3-0.1l0.3,0.2l0.3,0.3l1.1,0.6v-0.4 M191.4,175.2v-1.7h-0.5
	l-1.1-0.3 M189.8,172.1v0.7 M191.4,173.2v-4.1 M190.9,173.2v0.3 M191.4,175.2v0.4v2.9l0.7,0.5l0.3-0.3v-9.1 M187.8,172.1
	c-0.1,0.1-0.2,0.3-0.2,0.5l0.2,0.3l1.1,1.3l0.7,0.5l0.2,0.1l0.2,0.1l0.2,0.1l0.5,0.2l0.7,0.2 M189.8,177.3v0.3l0.9,0.6v-2.8
	 M189.8,177.3V175 M194.4,175.4l0.6-0.3 M189.5,200.3l1.7-0.9 M191.3,199.3h-0.3l0.5-0.3l2.2-0.3v0.1 M193.7,203.1v56.7
	 M190.1,263.8v-4.9l-0.1-6.4 M194.4,175.4l-0.2,0.1v6.7v0.2 M191.4,173.5v-0.3 M194.2,172.6v2.8 M185.4,209.2v0.5l-2.6-1.5v-22.5
	l0.3-0.5l2.7-4.6 M189.8,177.6l-3.5,2l2.5,1.5l0.2-0.4l3.1-1.7l0.3,0.2v-0.5 M185.8,180.5l0.5-0.9 M190.7,178.2l0.7,0.3
	 M194.2,182.1l-1.6,1.6v0.3 M192.6,183.8l-1.9,1.8l-1.6,3.4l0.2,1.8 M192.4,179.2l0.2,4.6 M189.8,172.1v-3.8 M183.1,185.8l2.4,1.3
	v-0.4l3.4-5.6 M192.1,199.1l-0.6-0.1 M192.6,199.5v-0.1l-1.3-0.1l-0.1,0.1 M192.6,199.6v0.3l0.4-0.3v-0.5h-0.9 M193.6,198.9v0.4
	l0.1-0.1 M191.7,199.1l-0.5,0.1 M190.1,210.4l0.8,0.1l1.6-0.9v-9.8l-1.9,1l-1.2,0.2l-0.5-1.2l0.3-8.7 M192.6,199.6L192.6,199.6
	 M193,199.6l0.7-0.3l0.1,3.8 M182.8,185.6l0.3,0.2 M171.5,185.1l1.9-2.7l6.7-9.7 M190,251.6v-41.2l-4.2-1.1 M146.1,237.5v4.4
	 M157.7,205l-3.4,4.8 M190,210.1v0.3l0.1,0.1 M185.4,187.1v22.1 M157.7,205l5.2-7.5 M128.6,187.6l3.4,6.7l6.5,12.7 M128.6,187.6
	l-4.8-9.1 M142.5,190.4v14.7 M141.8,205.6l0.7,1.3 M120.6,172.1l3.3,6.4 M141,211.4l1.5,3V214 M142.5,222.5v-8.1 M138.6,206.9
	l2.4,4.5 M146.8,228.2c0-0.3,0.2-0.4,0.7-0.4c0.1,0,0.2,0,0.3,0l-0.1,0l-1.2-0.6 M147.9,227.8L147.9,227.8c0.1,0.1,0.1,0.1,0.1,0.1
	 M147.8,228.6h-0.2c-0.5,0-0.7-0.1-0.7-0.4l-0.5-0.2 M146.1,228.6v8.9 M146.4,228l-0.1-0.1 M142.5,231.4v-3.9v-5 M129.6,239.3
	l-3.3-1.8 M142.5,239.8v-8.4 M148.1,227.9c0.1,0.1,0.1,0.2,0.1,0.3c0,0.3-0.1,0.4-0.4,0.4 M154.4,209.8l-8.3,12 M138.7,161.4
	l-15.3,8.7l18.3,35.4 M142.5,244.3v2.7 M142.5,248.7v2.1v3.4 M146,250.3l0.1-6.3v-2.1 M142.5,239.8v4.4 M140.2,245.5l-3.6-2.2
	 M133,245.3l-4.8-2.8l-1.4-0.8l-0.8-0.5 M136.6,243.4l-7.1-4.1 M136.8,247.5l-3.8-2.2 M138.8,256.6h0.2 M141.2,258.5v-0.1l0.1-0.3
	l0.2-0.1l0.1-0.3h0.2 M142.5,256.4v0.3 M138.8,256.6l-13.8,0.4l0.5,0.3l11.4,9.1 M141.2,258.5v0.3v0.1l0.1,0.3l0.1,0.2 M142.5,254.1
	v0.4 M146.8,258.8l0.1,0.2v0.1v6.1 M136.8,247.5l5.6,3.1 M126.3,237.5l-1-0.5 M124.1,240.2l1.9,1 M121.2,238.5l1.5,0.9l1.4,0.8
	 M121.3,257l-3.2,0.1 M114.6,257.2h-0.5 M121.3,257l3.6-0.1l-0.5-0.3 M118.1,257.2l-3.4,0.1 M142.1,274.6h0.2v0.1 M142.3,278v1.1
	 M140.9,283l0.1,0.1v0.1 M141.9,284.6l0.2,0.1h0.3 M143.2,284.6l0.5,0.1l0.2,0.3l0.5,0.1 M145,285.1l0.2-0.1l1.6-0.6 M148,282.1
	l0.3-0.7l0.3-0.1 M146,274.7l0.3-0.4l0.2-0.2l0.3-0.5v-8.3 M142.1,274.6l-0.5-0.3l-0.3-0.5v-3.1l-3.1-2.5 M142.1,279.7l-0.3,0.7v0.3
	 M141,283.2v0.1l0.2,0.3v0.2l0.1,0.2l0.1,0.1l0.2,0.3l0.2,0.1 M142.3,284.6h0.1v-0.1 M145,285.1h-0.3l-0.3-0.1 M142.3,274.7v3.3
	 M141.2,282.1l-0.2,0.1v0.2l-0.1,0.1v0.1v0.4 M141.3,282L141.3,282l-0.1,0.1 M142.5,291.8l1.7,0.9l1-0.5l0.5-0.6 M141.3,259.2v11.6
	 M190,251.6v0.3v0.7 M191,284.3l0.4-2.4v-0.3l0.1-0.5v-0.4l0.1-0.5 M193.6,281.3v0.3v2.8l0.1,0.5l0.3,0.7l0.3,0.5l0.3,0.8l0.2,0.7
	v0.1v1.2l-0.5,0.5 M191.9,290.7l-0.1,0.1h-0.1l-0.2,0.1h-0.5 M190.5,290.6l-0.3-0.3l-0.1-0.1v-0.1 M190,289.9v-4.2 M193,282v0.4v1.9
	l0.2,0.7l1.3,2.8v1.3 M192.6,282.8v-0.3 M193.4,288.5L193.4,288.5l-0.4-0.1v1.1h0.4l0.3-0.2v-0.1h0.1v-0.5L193.4,288.5L193.4,288.5z
	 M192.6,282.8v6.9l-0.3,0.5l-0.3,0.3l0.6-0.1l0.3-0.5l0.1-0.1l0.1-0.2v-0.1 M194.4,289.1L194.4,289.1l-0.1,0.3l-0.1,0.3l-0.1,0.1
	l-0.1,0.2l-0.1,0.3h-0.3l-0.4,0.3 M190.7,289.3L190.7,289.3l-0.1,0.5l0.1,0.1v0.1h0.2v0.1h0.2v0.1h0.3V290h0.1l0.1-0.1v-0.2h0.1
	v-0.1l-0.1-0.1v-0.2l-0.1-0.1v-0.1h-0.1l-0.1-0.1H191l-0.1,0.1h-0.2V289.3z M191.9,290.7v-0.1l-0.3,0.2 M190.1,290.2l-0.1-0.3
	 M190.9,290.8l-0.5-0.3 M193,284.3v4.2 M190,285.7v-0.3 M192.6,209.7l0.1,51.4 M193,199.6l0.1,60.8 M106.4,230l14.8,8.5 M104.1,137
	l38.4,74.1 M122.7,168.8l0.7,1.3 M114.2,171.6l4.6-2.8 M97.4,129.2l13.9,8.1 M100.8,138.3l-1.1-0.5 M192.6,91.7l38.1-22.2"/>
<path id="Layer0_1_2_STROKES" class="st5" d="M197.9,169.1l52.1-20 M254.2,148.2l0.2-0.1L254.2,148.2l-0.7,0.1h0.3l0.1-0.1H254.2z
	 M270.9,153l2.4-0.7l0.7-0.2l1.6-3.3l-0.7-0.1h-0.5l-0.9-0.3l-0.5-0.3l-0.3-0.3l-0.2-0.5l-0.1-2.7l0.3-0.3h-0.3v0.1h-0.1l-7.8,2.3
	l-0.2,0.1l-2.3,0.1l-0.3,0.1h-0.3l-0.3,0.1h-0.6l-0.3,0.1h-0.6l-0.4,0.1h-0.4l-4.3,0.8h-0.1 M253.5,148.3h-0.1l-0.1,0.1H253
	l-0.2,0.1h-0.3l-0.1,0.1h-0.2l-0.3,0.1h-0.1l-0.2,0.1l-0.3,0.5l0.1,0.3l0.1,0.1l0.2,0.3l0.4,0.3l0.3,0.1l1,0.4l0.4,0.1l0.5,0.2
	l3,0.5h0.7l8.7,1.1l2.4,0.1l0.9-0.2 M253.4,148.3h-0.1l-0.4,0.1h-0.3l-2,0.4 M197.5,172.3l12.5,7.3l45.6-17.5l1.1-0.7l1-0.3l0.9-0.5
	l2.4-1l0.6-0.1l0.5-0.3l2.8-1.1l0.6-0.4l1.3-0.5l-5,1.5l-2,0.3h-0.6l-0.3,0.1h-0.5l-0.3-0.1H258l-0.5-0.2l-0.3-0.1v-0.5l0.3-0.3
	l0.1-0.3l0.2-0.2l0.2-0.3l0.5-0.3l0.2-0.1l0.2-0.2l0.6-0.5l2.2-1.2l5.4-2.3 M268.5,134.9c-0.7,0.2-1.1,0.6-1.1,1.3
	c0,0.4,0.1,0.8,0.3,1.1c0.1,0.1,0.3,0.3,0.6,0.4l16.3,9.6l0.1,0.1c1.2,0.7,2.5,1,4.1,1c1,0,2-0.2,2.9-0.5l6-2.2l-22.7-13.4
	L268.5,134.9L268.5,134.9z M273.1,135.3h-0.3v0.1h-0.1v0.1h-0.1v0.1h-0.1v0.1h-0.1v0.1h-0.1v0.3h0.1v0.1h0.1v0.1h0.1v0.1l0.1,0.1
	h0.1l0.1,0.1h0.1l0.1,0.1h0.5v0.2h0.5v-0.2h0.3l0.1-0.1h0.2v-0.1h0.2v-0.1h0.1v-0.1h0.1v-0.1l0.1-0.1v-0.4H275v-0.1H275v-0.1h-0.1
	v-0.1h-0.2v-0.1h-0.3v-0.1h-0.5l-0.1-0.1h-0.3v0.1L273.1,135.3L273.1,135.3z M280.4,152h-0.5l-0.9,0.3l-0.5,0.1 M290.3,144.4h-0.1
	v-0.1h-0.4v-0.1h-0.9v0.1h-0.3l-0.1,0.1h-0.2v0.1h-0.1l-0.1,0.1h-0.1v0.2l-0.1,0.1v0.5h0.1v0.1h0.1l0.1,0.1v0.1h0.2l0.1,0.1h0.2
	l0.1,0.1h1.1l0.2-0.1h0.1v-0.1h0.1l0.1-0.1h0.1v-0.1h0.1v-0.1l0.2-0.2V145l-0.2-0.1v-0.2h-0.1v-0.1h-0.2V144.4z M273.9,152.2
	l-0.1,0.1v0.3v1.9v0.7v3l-3-1.8l-1.3,0.5l4.3,2.6v4.4l3.2,2.4l0.1-0.1l-2.4-1.9v-4.5l5,3l0.7-0.8l-5.8-3.4v-5.8l3.8-7.8l6,3.5
	l0.1,0.1c1.2,0.6,2.5,0.9,4.1,0.9c1,0,2-0.2,2.9-0.5l3.4-1.2l0.5-0.1c0.7,0,1,0.2,1,0.7v14.6v1.3v6.5c0,1.2-0.4,2.2-1.1,3
	c-0.3,0.3-0.6,0.5-0.9,0.7l1.3-0.5l0.9-1l0.8-1.7l0.1-0.7v-25 M272.5,144.3l0.1-0.1l0.9-0.9h1.9l-7.5-4.5l-0.2-0.2l-0.3-0.3
	l-0.1-0.3l0.3-0.7 M275.5,148.9l1.2-2.4l-0.1-0.6l-2.9,0.1l0.1,1.9 M275.5,143.3l2.2,1.3l-0.3,0.9l-0.7,1.1 M276.6,145.9l0.7-0.5
	 M272.5,144.3h0.1v-0.1 M272.2,144.6l1.5,1.3 M270.8,156.3l3-1.1 M267,157.3l0.1-0.1l0.5-0.1l1.5-0.9l1.4-0.6l3.3-0.9 M269.5,156.9
	l-0.6,0.2l0.5,3.6l1.1,1.9l0.9,0.7l0.4,0.7l4.9,2.7v-0.1l0.1-0.2 M210,179.7l35.4,20.8l22.2-25.3l0.2-0.1v-0.1h0.1l0.4-0.4l0.3-0.2
	l0.3-0.3l4.5-4.4l0.8-0.5l0.8-0.9l0.8-0.6l0.4-0.2l0.7-0.7 M287.8,156.3h0.5l0.1-0.1h1.3l0.1,0.1h0.4v0.1h0.1l0.1,0.1h0.1l0.1,0.1
	h0.1v0.1h0.2v0.1h0.1v0.1h0.1l0.1,0.1l0.5,0.6l0.1,0.1v0.1h0.1v0.2l0.1,0.2v0.1h0.1v0.3l0.1,0.1v0.6l-0.1,0.1v0.3l-0.1,0.1v0.1
	l-0.1,0.1v0.3l-0.1,0.1v0.3l-0.1,0.1v0.1h-0.1v0.1l-0.1,0.1v0.1l-0.1,0.1H291v0.2l-0.1,0.1v0.1l-0.1,0.1h-0.1v0.1l-0.2,0.2v0.1
	l-3.5,4.5l2.1-1.3l1.7-1.4l2.4-2.9l0.5-0.8l0.4-0.4l0.2-0.1h0.1l0.1-0.1h0.7 M284.6,158.3l-1.5,1.3l1.5,1.3l2.9-0.1l1.5-1.4
	l-1.5-1.3L284.6,158.3z M283.1,159.6l0.1,2.8l0.3,0.5l0.8,0.5l0.5,0.1l0.3,0.2h1.6l0.4-0.1l1.3-0.5l0.3-0.3l0.1-0.3l0.2-0.2
	l-0.1-2.9 M284.7,162.7l-0.1-1.7 M285,167.8l-0.7,0.7l-2.2,1.5l-3.8,6.3l-0.6,1.5v0.1l-0.1,0.3l-0.2,0.3v0.3l-0.2,0.7l0.1,0.3v0.3
	l0.1,0.1l0.3,0.2l0.2,0.1l0.3-0.1h0.2l0.9-0.5l0.1-0.1l0.2-0.1l5.2-5.9l0.9-1.7l0.1-0.3l0.9-1.4l2.8-3.5l1.1-1.5l0.1-1.4
	 M287.1,166.6l-1.5,1.6v0.1l-0.1,0.1v0.7 M296.5,164.5l-6,2.2l-0.8,0.1 M287.5,160.9l0.1,1.8 M280.5,162l1.4-1.9 M282.1,149.5v6.5
	 M273.2,152.4l0.6,0.3 M277.1,166.3l2.6-3.4 M293.2,161v0.4l-0.1,0.1v0.2l-0.1,0.1v0.1L293,162v0.1l-0.1,0.1v0.1l-0.1,0.1v0.1
	l-0.1,0.1v0.1l-0.1,0.1v0.1l-0.1,0.1v0.1h-0.1v0.1l-0.1,0.1v0.2h-0.1l-0.1,0.1v0.2h-0.1l-0.2,0.1v0.1l-0.1,0.1l-1.1,1.3l5.8-2.2
	 M255.6,162.2l13.3-5.1 M294.4,174.7c-0.6,0.3-1.3,0.5-2,0.5c-0.7,0-1.4-0.2-2-0.5l-4.6-2.7 M267.6,175.2L267.6,175.2l-0.1,0.3v0.3
	l0.1,0.3l0.2,0.2l0.3,0.1h1l1.4-0.3l1.2-0.5l5.4-2.8l0.8-0.5l0.9-0.3l3.3-1.7 M284.9,173.7l-1.8,2.6l-0.3,0.7l-0.3,0.5l-0.3,0.5
	l-2.8,4.2l-0.1,0.4l-0.5,0.8 M268.8,173.9l-0.1,0.3l-0.3,0.3l-0.1,0.1l-0.1,0.2l-0.3,0.1l-0.1,0.1 M278.4,184.1L258,207.8l0.4,0.3
	l10,8.4l8,9.1l5.8,9.3l3.6,9.8l1.6,9.8v16.3l29.4,17.3l4.8-1.5l13.7,7v4.3l0.1,2.6l3-1.7v9.5 M265.5,229.5c-0.4-1-1.1-1.9-2.2-2.6
	c-1-0.7-2-1.1-3.2-1.1c-1.2,0-2,0.4-2.4,1.1c-0.5,0.8-0.6,1.6-0.2,2.6c0.4,1.1,1,1.9,1.9,2.6c1.1,0.8,2.2,1.1,3.3,1.1
	c1.1,0,1.8-0.4,2.3-1.1C265.7,231.5,265.8,230.6,265.5,229.5z M194.4,181l19.8,11.8l3,1.7l31.7,18.6l9.6,7.7l7.7,8.1l5.9,8.4
	l2.2,4.7l1.5,3.8l0.3,0.4l1.8,8.9v48.1v5.1 M224,219l-0.5,0.7l-0.5,1.2l-0.1,0.8l-0.3,0.8v0.8l0.8,2.6l2.4-2.7l-0.2-0.8l0.1-1.7
	l0.5-1.5l0.7-1.2l1.1-1.1l-0.8,0.1l-1.4,0.5l-0.7,0.4L224,219z M225.8,223.3l2.2-2.5l0.9-0.4l1.1-0.1h0.6l1.3,0.1l0.6,0.2l2.6,1.1
	l2.1,1.9l0.8,1.1l0.9,2.2v1.7l-0.1,0.5l-0.8,1.4l-0.3,0.3l-0.2,0.3l4.4-5v-0.1l-0.8-1.8l-1.5-2.5l-3.1-2.7l-3.7-1.7l-3.8-0.5
	L228,217 M193.6,281.6l16.1-18.6l4.4-5.1l3.1-3.6l12-13.8l5.7-6.5l0.9-1.1l1.6-1.8 M223.4,226l-6.1,7.1l-3,3.4l-16.9,19.4l-19,21.8
	l3.4-3l2.8-1.5l1.4-0.4l1.1,0.3l0.7,0.9l0.3,1.7v0.5l-0.1,0.4v0.3l-0.2,1v0.5l-0.1,0.4v0.5l-0.2,0.4v0.1l-0.9,2.9l-0.4,0.9v0.1
	l-0.1,0.1v0.1l-0.1,0.1v0.1l-0.1,0.1v0.1h-0.1v0.2l-0.3,0.1l-0.8,1.3h0.1l0.1-0.3h0.1v-0.1h0.1l0.2-0.1h0.1v-0.1l0.3-0.2h0.1
	l0.1-0.1V285h0.1l0.1-0.1v-0.1l0.1-0.1h0.1l0.1-0.1v-0.1h0.1l0.1-0.1l3.6-4.2 M246.1,216.8c-0.5,0.7-0.6,1.6-0.2,2.7
	c0.4,1,1.1,1.8,2.1,2.6c1.1,0.7,2.1,1.1,3.2,1.1c1.1,0,1.9-0.4,2.4-1.1c0.5-0.7,0.6-1.6,0.3-2.6c-0.4-1.1-1.1-2-2.2-2.7
	c-0.9-0.8-2-1.1-3.2-1.1C247.5,215.6,246.7,216,246.1,216.8z M235.9,233l1.9,0.3l1.7-0.1l0.2-0.1l1.1-1.1l0.9-1.2l0.2-0.6l0.3-1.6
	v-0.8l-0.3-1.6 M235,234.2h1.7l2.4-0.7l0.4-0.3 M195,175.1l53.9,31.9l12.2,8.9l9.7,9.8l6.9,10.4l4.2,10.6l1.2,10.8v50.7
	 M245.4,200.4l12.6,7.4 M217.3,233v-38.5 M237.7,254.1l-2.1-0.4h-0.9l-1.4,0.5l23.3,13.6l-0.6-1.7l-0.5-0.8l-1.4-1.7l-1.6-1.1
	l-13.8-8.1L237.7,254.1z M214.2,258l-0.1,7.7l3.2,2v-13.2 M214.1,265.6l-4.4-2.6 M231.9,255.3l-0.6,1.5l-0.1,0.8l0.1,0.9l0.1,0.5
	l22.7,13.3l0.6-0.2l0.7-0.5l0.5-0.5l0.3-0.6l0.3-0.9l0.1-0.7l-24.2-14.2L231.9,255.3z M233.4,254.2l-0.3,0.1l-0.6,0.4 M231.5,259
	l0.4,1.3l1.1,1.7l1.7,1.4l0.6,0.4l0.3,0.1l0.2,0.1l12.5,7.5l1.9,0.7l2,0.4h0.9l0.9-0.3l0.2-0.1 M235.8,264.1l-0.5-0.3 M233.7,274.4
	c1,0.8,2.1,1.2,3.1,1.3c1.1,0,1.9-0.4,2.5-1.2c0.5-0.7,0.6-1.5,0.2-2.6c-0.3-1-1-1.9-2-2.7c-1-0.7-2.1-1.1-3.2-1.1
	c-1.1,0-1.9,0.4-2.4,1.1c-0.5,0.8-0.6,1.7-0.2,2.7C231.9,272.9,232.6,273.7,233.7,274.4z M253.8,283c-0.5,0.8-1.4,1.1-2.5,1.1
	c-1,0-2.1-0.4-3.2-1.1c-1-0.7-1.7-1.6-2-2.6c-0.4-1-0.3-1.9,0.2-2.7c0.6-0.7,1.4-1.1,2.5-1.1c1.1,0,2.2,0.4,3.1,1.1
	c1.1,0.8,1.7,1.7,2,2.8C254.3,281.6,254.2,282.4,253.8,283z M260.8,285v8.2l14.4,8.4l0.9,0.5v-9.2c0-1.1-0.5-2-1.6-2.6l-11.2-6.7
	l-0.3-0.1h-0.2l-0.3-0.1l-0.3,0.1H262l-0.4,0.2l-0.4,0.3l-0.1,0.3l-0.2,0.2v0.3L260.8,285z M260.8,293.2l-31.6-18.6l-12-7
	 M229.2,274.6v-34 M256.7,268.9v-1.1 M267.2,245.6c-0.3,0.5-0.3,1.1-0.1,1.8c0.2,0.6,0.6,1.2,1.3,1.7c0.6,0.5,1.3,0.7,2,0.7
	c0.8,0,1.3-0.2,1.7-0.7c0.3-0.5,0.3-1.1,0.1-1.7c-0.2-0.7-0.6-1.3-1.2-1.8c-0.7-0.4-1.4-0.7-2.2-0.7
	C268.1,244.9,267.6,245.1,267.2,245.6z M274.4,242l-10.4-6v8.7l-0.1,0.7l0.3,1.7l0.8,1.7l2.2,2l0.9,0.7l1.8,0.7l1,0.2l1.7,0.1
	l1.6-0.5l0.5-0.4l0.5-0.6l0.3-0.6l0.3-1.3v-3.4 M268.4,277.5c1,0.8,2.1,1.2,3.2,1.2c1.1,0,1.9-0.4,2.5-1.2c0.4-0.6,0.5-1.5,0.1-2.6
	c-0.3-1-0.9-1.9-2-2.7c-1.1-0.7-2.1-1-3.2-1c-1.2,0-2,0.3-2.5,0.9c-0.5,0.8-0.6,1.7-0.2,2.7C266.7,276,267.4,276.8,268.4,277.5z
	 M270.9,293.6l-0.3-0.1h-0.2l-0.1,0.1l-0.2,0.1H270l-0.2,0.3v0.1l-0.1,0.1v0.3l0.1,0.2v0.2l0.5,0.6l0.9,0.3h0.3l0.2-0.1l0.2-0.2
	l0.2-0.1v-0.1l0.1-0.2v-0.5l-0.3-0.5l-0.1-0.1l-0.7-0.5H270.9z M267,291.4l-0.5-0.5l-0.1-0.1h-0.1l-0.1-0.1h-0.5l-0.3,0.1h-0.1
	l-0.2,0.1l-0.1,0.1l-0.1,0.3v0.6l0.1,0.3l0.3,0.3l0.3,0.1l0.2,0.2l0.1,0.1h0.2l0.3,0.2l0.2-0.1h0.2l0.1-0.1l0.2-0.1l0.1-0.2l0.1-0.1
	V292l-0.1-0.1l-0.1-0.1L267,291.4z M335.3,297.9l-47.9,10.4v-4.2v-12.2v-4.9v-1.1v-15.1 M335.3,293.6l-6.7,1.5l-18.8,4l-1.3,0.3
	l-6,1.3l-15.2,3.4 M287.4,285.9l22.4,13.3 M287.4,291.8l15.2,8.9 M287.4,286.9l21.2,12.5 M210.4,298.8l64.9,2.8 M214.3,236.5v-43.6
	 M316.8,288.1l11.8,7.1 M326.2,308.3v-3l-5.8,3 M310.9,308.3l5.1-1.1l0.3-0.3l0.2-0.1l0.1-0.2l0.3-0.6v-0.7l-0.3-0.4l-0.3-0.3
	l-0.1-0.3l-0.6-0.2h-0.7l-10.4,2.4h-0.1l-0.1,0.1l-0.3,0.2l-0.2,0.1l-0.2,0.2l-0.1,0.3l-0.2,0.3v0.6 M298.2,308h-0.5l-1.1,0.3
	 M335.4,300.5l-9.2,4.8 M277.9,303.2l-1.8-1.1 M123.5,161.9v0.3 M128.2,159.5v-0.3 M123.5,162.2l0.1,4.1v0.2 M128.2,159.5l0.1,4.2
	 M142.9,150.7l0.2,0.1 M148.5,147.7l-0.2-0.1 M141.2,151.9l-0.2-0.1 M146.6,153l-3.4-2.2 M148.5,147.7l3.4,2.2 M152.2,145.5
	l-0.1-0.1 M152,149.9l-0.2-0.1 M155.6,147.7l-3.5-2.2 M134.7,160L134.7,160l-3.4-1.8v3.6 M143.3,155.1l-0.1-0.2 M141.2,151.9
	l1.3,1.6l0.7,1.1l0.1,0.3 M146.6,153L146.6,153 M155.7,147.9l-0.1-0.1 M131.3,161.8v0.1 M139.1,162.3l0.5,0.3 M128.2,163.7
	L128.2,163.7 M138.2,161.8l0.9,0.5 M142.5,190.4l0.2-0.1 M134.5,168.2c-0.4,0.5-0.4,1.1-0.2,1.8c0.2,0.6,0.7,1.2,1.4,1.7
	c0.7,0.5,1.4,0.7,2.2,0.7c0.7,0,1.2-0.2,1.5-0.7c0.3-0.5,0.4-1.1,0.1-1.7c-0.2-0.7-0.7-1.3-1.3-1.7c-0.7-0.5-1.4-0.7-2.2-0.7
	C135.4,167.6,134.9,167.8,134.5,168.2z M146.1,188.9l8.3-3.1v-28.4l-4.2-2.4 M149.5,155.5l1.5,0.8l1.1,0.8l0.5,0.5l1.1,1.7l0.1,1.1
	l-0.1,0.6l-0.8,1.3l-0.9,0.5l-1.3,0.1l-0.6-0.1l-1.2-0.3l-1.3-0.7l-1-0.9l-1.2-2.3l-0.2-0.8 M146.1,204l8.3-3.1l3.4-1.3l5.2-2
	 M171.5,185.1l-0.9-0.9l-1.9-1.1l-1.3-0.5l-2.2-0.4h-1.3l-0.3,0.1l-2.8,1.1l-6.4,2.5 M185.3,165.1l-25.9-15.5 M183.3,168.4l-0.2-0.1
	 M180.1,172.7l0.2,0.1 M185.4,165.2l-0.1-0.1 M188.4,166.9l1.7,1.1 M194.4,170.4L194.4,170.4l1-0.3 M183.1,168.2l-27.6-16.3
	 M160.8,183.4l0.3-1.5l0.6-1.3l0.5-0.7l1.1-1l0.2-0.1h-0.1l-0.8,0.1l-0.8,0.3l-1.4,0.7l-1.1,1l-0.9,1.2l-0.5,2.2v-24.8l-3.4-2.1
	 M129.6,239.4l-0.3-0.2 M111.6,228.9h-0.1 M99.4,221.9l-0.3-0.2 M93.9,230.3l3.9,2.2l8.6-2.6 M93.9,224l0.7-0.3 M98.6,239.7
	L98.6,239.7l0.1,0.2h0.1v0.1h0.1v0.1h0.2l0.1,0.1h0.4l0.1-0.1h0.1l0.1-0.1h0.1v-0.1h0.1v-0.2h0.1v-0.2h-0.1v-0.1H100v-0.1h-0.2v-0.1
	h-0.7l-0.1,0.1h-0.1l-0.1,0.1h-0.1v0.1h-0.1V239.7z M121.7,254.8l-3.8-2.4 M114.2,257.2l0.3-0.2l-0.1-0.1 M97.4,272.5l-0.3,0.7
	l-1.1,2.4l3-3.6l2.9-1.9l0.3-0.9v-2.2l-0.3-0.2l-6.3,3.7l1.2,0.7l0.1,0.1l0.3,0.2l0.2,0.3l0.1,0.1V272.5z M97.2,273.3l-3.2-1.7
	l1.7-0.9 M94.2,276.6l0.7,0.3l1.2-1.2 M93.9,284.1l0.5-0.3l3.6-2.1l2.6-1.5l0.4-0.2l0.6-0.4l-0.3-0.1l-0.3-0.3l-0.1-0.3v-6.7
	l0.1-0.2l0.2-0.4l0.1-0.3l0.3-0.3V271h0.1l0.2-0.4l0.1-0.3l0.1-0.1 M93.9,278.1l0.9-1.1 M195.4,170.1l0.1-0.1 M195.3,171l-0.1-0.1
	l-0.7-0.5 M190,172.3l-0.2-0.1 M194.8,174.9l0.3,0.2 M190,252.5l-0.7,0.8l-0.1,0.1l-28.7,30.8l3.5,6.3l0.7,1.7l4.6-5.2l1.2-0.8
	l1.3-1.4l1.9-2.2l1.1-0.9l3.6-3.9 M183.1,174.5l5.8,3.4 M186.2,170.1l3.6,2 M173.4,182.4l-1.8-1.4l-1.9-1.1l-5.7,2.2h-0.1l-0.3,0.1
	 M180.1,172.7l-22.4-13.1 M171.5,185.1l0.1,0.2 M173.5,182.5l-0.1-0.1 M175.7,185.4l1,1.7l0.6,3.4l-0.4,1.8l-0.1,0.5l-0.7,1.2
	l-1.1,0.9l-0.4,0.2l-1.1,0.6l-1.6,0.3l-1.7,0.1l-1.7-0.2 M157.7,211.4l0.1,21.1l1.8,1.1l18.6,10.9l0.2,0.1l4.3,2.6l7.3,4.4
	 M169.6,179.9L167,179l-1.9-0.3l-1.7,0.1 M162.9,197.5l0.3-0.1 M168.8,195.4l1.7-0.7l2.2-0.9l0.7-0.7c1-1.4,1.1-3,0.2-4.8
	 M170.5,194.7l2.5,0.4h0.9l0.6-0.1 M172.7,193.8l4.2-1.5 M157.7,232.6l-1.8-1.1l-9.8,6 M146.1,241.9l13.4-8.3 M157.7,205.3V205
	 M154.4,209.8v0.4 M157.7,205v-5.4 M131.2,165.9l0.3,3.2l0.3,0.9l1.9,2.4l1.6,1.1l0.9,0.5l1.9,0.5l0.9,0.1l1.8-0.3l0.6-0.3l0.9-0.5
	 M128.6,179.7l-0.3-0.5l-0.1-11.5 M132.1,194.2l0.1-0.1 M128.6,187.3v0.3 M138.6,206.9l0.2-0.1 M132.1,194.2l-3.8,1.4l-4.7,1.9
	l-29.6,11.2 M128.2,195.7l0.4-8.1 M123.9,178.4l-0.3,19.1 M135.5,193.1l7-2.7 M141.8,205.6l0.6-0.5 M123.9,178.4v-0.3 M141.3,211.5
	l-0.3-0.1l-6-3.2l-5.7,2.2v5.4l11.9,7l1.3-0.3 M135,208.2l3.6-1.3 M133.3,212.7v0.1l-0.1,0.1l0.1,0.2v0.2l0.2,0.3l0.5,0.5l0.5,0.3
	h0.7l0.1-0.1l0.1-0.1l0.2-0.1v-0.3l0.1-0.2v-0.2l-0.1-0.3l-0.3-0.3l-0.1-0.2l-0.7-0.4h-0.7l-0.2,0.1l-0.1,0.2L133.3,212.7z
	 M129.3,215.8l-1.1-0.7v-4.2l-28.8,11 M140.4,215.7l-0.3-0.1l-0.3-0.3l-0.3-0.1l-0.1-0.1l-0.2-0.1H139l-0.3,0.1h-0.1l-0.3,0.3
	l-0.1,0.1v0.1l-0.1,0.2l0.1,0.1v0.2l0.2,0.3l0.4,0.5l0.7,0.3h0.3l0.2-0.1h0.3l0.3-0.5v-0.3l-0.1-0.2v-0.1L140.4,215.7z M128.2,210.9
	l1.1-0.5 M149,227.4l5.3,3.1l0.1-2.2l-1.2-0.2l-0.7-0.2l-1.2-0.8l-1.1-1 M142.5,222.5l0.2-0.1 M142.5,231.4l0.2-0.1 M142.7,227.4
	l-0.2,0.1l-16.2,9.9 M142.5,231.4l-12.9,7.9 M142.5,239.8l0.2-0.1 M154.4,228.4v-12.2 M111.8,229.1l29.4-6.3 M154.4,200.9v8.9
	 M142.7,244.2l-0.2,0.1l-2.3,1.3 M136.6,243.4L136.6,243.4 M129.6,239.3v0.1 M135.4,254.4l-3-2.3l-1.4-0.8l-3.6-2.1l-7.2-4l-3.3-1.9
	l-19.1-10.8 M127.4,249.2l5.5-3.9h0 M126,241.2l-5.8,4 M131,251.3l5.7-3.8 M138.8,256.6l2.4,2.3l0.1,0.1 M138.4,256.3l0.3,0.3
	 M146.8,265.2l10.4,13l3.3,5.9 M136.6,243.4l5.8-3.6 M126.1,237.5h0.1 M122.7,239.4L122.7,239.4 M115.9,248.4h-0.8v0.2h-0.1
	l-0.1,0.1h-0.1v0.2h-0.1v0.3h0.1v0.1h0.1v0.1h0.1v0.1h1v-0.1h0.1l0.1-0.1h0.1v-0.1h0.1v-0.2h-0.1v-0.2h-0.2v-0.1h-0.2V248.4z
	 M118.3,251.8l2.9-1.8l-0.7-0.5l-0.1-0.1l-0.4-0.1l-0.1-0.1l-0.5-0.2l-0.2-0.2l-25.2-14.5 M116.9,243.3l5.8-3.9 M107.7,243.9
	L107.7,243.9l-0.5-0.1v0.1h-0.3v0.1h-0.2v0.1h-0.1v0.4h0.1v0.1h0.1v0.1h0.3v0.1h0.7l0.1-0.1h0.1l0.1-0.1h0.1v-0.1h0.1v-0.4h-0.1
	l-0.1-0.1H108l-0.1-0.1H107.7z M101.9,266.9l0.3-0.3l2.8-1.7l8.9-5.2h0.1v-0.1h0.1v-0.1h0.1v-0.1h0.1v-0.6h-0.1v-0.1h-0.1v-0.1H114
	v-0.1h-0.1L113,258l-1.1-0.8 M105,265v2.3l16.3-10.2 M118.1,257.2l-0.8,0.6h-0.1v0.1h-0.3v0.1h-1.3v-0.1h-0.1l-0.1-0.1h-0.1
	l-0.6-0.5 M114.2,257.2L113,258 M102.3,267.1v-0.5 M121.7,256.7l-0.4,0.3 M114.6,257.2l-0.2-0.2 M118.5,256.8l-0.4,0.4 M145.2,292.2
	l-2.5,3.2v0.1l-0.1,0.1h-0.1v0.1l-1.5,0.5l-1.3,0.1l-1.2-0.1l-1.4-0.5l-13.2-7.6l-0.1-0.1h-0.1l-0.2-0.1h-0.8l-0.1,0.1h-0.1
	l-1.1,0.7l-0.3,0.1H121v-0.5l0.1-0.1l2.9-3.8L105,273.8v3.8l-0.1,0.3l-0.1,0.1l-0.2,0.1l-0.1,0.1l-2.6,1.4h-0.4 M100.6,280.2
	l0.7,0.5L101,280 M101.3,280.7l2.2,1.2l5.3,3.1l11,6.9l1.7,0.9h0.1v0.1h0.1v0.1h0.1v0.1h0.1l0.2,0.2v0.1h0.2v0.2h0.1v0.1h0.1v0.3
	h0.1v0.1h0.1l0.1,0.1l5,8.6l2.4,4.3l0.8,1.3 M93.9,287.1l10.8,6.2l-3.2-5.6l-7.1-4 M105.5,298.3h0.7l0.3-0.1l0.3-0.3v-0.2h0.1v-0.6
	l-0.1-0.2l-0.1-0.5l-1.8-3 M103.6,281.9l7.6,13.3l0.4,0.3l0.1,0.1l0.2,0.1l0.1,0.2h0.7l7.2-4.2 M111.3,297.7l-0.5-0.3v-0.2h-0.1
	v-0.1h-0.1l-9.3-16.4 M128.8,308.3l-14.4-8.2V300h-0.1l-0.2-0.1h-0.1v-0.1l-0.2-0.1v-0.1l-0.1-0.1v-0.1l-0.1-0.1V299h-0.2v-0.3h-0.1
	V298h0.1v-0.2l-2.2,1.4 M113.8,297.8L113.8,297.8h-0.2H113.8z M110.9,299.7v0.5l0.2,0.3v0.8 M120,291.3l3.4-1.9h1.1 M122.8,294.1
	l-5.6,3.3l-0.2,0.2l-0.1,0.1v0.7l0.1,0.2l0.2,0.4l0.1,0.3l0.3,0.3l0.2,0.1l0.1,0.1l12.4,7.1 M114.3,294.5l-5.4-9.5 M113.8,297.7
	l8.1-4.7 M141.3,271.5v-0.5 M146,277.7l0.6,0.9 M148.5,281.7l2.8,4.6l1.3,2.2l2.8,4.6l4.2,9.4l7-4l0.7-0.4l-1.6-3.8l-1-2.2
	 M148.5,281.7l-0.2-0.3 M133.5,282.9l-0.2-0.1h-0.3l-0.1,0.1l-0.2,0.1l-0.1,0.3l-0.2,0.2v0.9l0.2,0.3l0.1,0.4l0.2,0.3l0.1,0.3
	l0.7,0.8l0.8,0.3h0.2l0.3-0.1l0.1-0.1l0.2-0.2l0.1-0.2v-0.9l-0.1-0.3l-0.2-0.4l-0.1-0.3l-0.3-0.3l-0.2-0.3l-0.5-0.5L133.5,282.9z
	 M125.5,295.1l3.6,2.1l2.4,1.3l3.2,1.9l0.1,0.1l0.3,0.1l0.1,0.1l0.1,0.2l0.1,0.1l0.3,0.5v0.5l0.1,0.1v3.9v2.2l-6.8-11.1
	 M136.6,301.9v-0.6 M135.4,300.1l0.5,0.1 M145.7,291.6l4.2-5.4 M145.8,292.6l1.1-0.7l4.4-5.6 M147.7,293.6l-0.5-0.3h-0.6l-0.1,0.2
	l-0.2,0.2l-0.1,0.3v0.7l0.1,0.4l0.2,0.3l0.1,0.3l0.3,0.3l0.1,0.2l0.3,0.3l0.5,0.3l0.5,0.1h0.3l0.1-0.1l0.3-0.3l0.1-0.3v-0.8
	l-0.4-0.9l-0.7-0.9L147.7,293.6z M143.2,301.1l3.8,5.5v-6.8l-0.1-0.2v-0.2l-0.1-0.5l-0.2-0.3l-0.2-0.1l-0.1-0.2l-0.5-0.3h-0.4
	l-7.7,2.5 M143.7,295.7l0.7-0.5l1.1-1.2l-0.1,2.3 M149.9,296.6v0.5l0.1,0.1l0.1,0.2v0.1h0.1v0.2h0.1v0.1l0.2,0.2v0.1l0.3,0.4
	 M151,308.3l3.1-2.8l0.8-0.9l0.2-0.5h0.1v-0.1l0.1-0.1v-0.1h0.1v-0.3l0.1-0.1v-0.1h0.1v-1.5l-4.3-2.5l-0.2,0.1l-0.3,0.5l-0.1,0.5
	v3.6l-0.1,0.5l-0.1,0.3l-0.5,0.9l-0.5,0.5l-2.3,1.1l-1.1,0.5l-2.7,0.5 M150.4,298.8l0.8,0.5 M148.5,298.9h0.9 M146.9,291.9l5.7-3.4
	 M136.1,268.4l-12.2,16.1 M105,267.2v6.6 M190,251.6L190,251.6l0.1-0.2 M190,251.8l0.1-0.2 M190.1,252.3l-0.1,0.2 M189.3,253.3
	l0.7-1.5 M180.9,257.2l-0.1,0.6v1.5l0.3,0.4h0.6l0.5-0.1l0.4-0.3l0.7-0.5l0.4-0.5l0.3-0.2l0.8-0.7l4.3-3.9 M182.3,259.5l0.1-0.1
	l0.3-0.2 M184.9,257.3l-1.2,1.3l-0.3,0.2 M197.3,255.8l-3.1-1.9 M182.7,247.2l-1.8,1.1l-1.2,0.4l-0.3,0.2l-0.6,0.2h-0.3l-0.3,0.1
	h-0.4l-0.6-0.2l-0.3-0.3l-0.1-0.4v-0.6l0.1-0.7l0.2-0.3l0.1-0.3l0.3-0.3l0.7-1.1l0.3-0.3 M171.8,284.7l2.2,1.9l3.8-0.3l1.7-2.1
	l-2-1.9l-3.7,0.1 M165.7,294.4l0.6-0.8h0.1v-0.1h0.1l0.1-0.1h0.1l0.1-0.1h0.1l0.2-0.1h0.3v-0.1h1.1v0.1h0.3v0.1h0.2l0.1,0.1h0.1v0.1
	h0.1v0.1h0.1v0.1h0.1l0.1,0.1h0.1l0.1,0.2h0.2v0.1h0.1v0.1l0.1,0.1h0.1v0.1h0.2l0.1,0.1h0.2l0.1,0.1h0.1l0.1,0.1h0.2l0.1,0.1h0.1
	l0.1,0.1h0.1l0.1,0.1h0.1v0.1h0.1v0.1h0.2v0.1h0.1v0.2h0.1v0.3l-0.1,0.1v0.2h-0.1v0.1l-0.3,0.3h-0.1v0.2l-4.2,2.6l-1.1-0.6
	 M168.4,299.8l0.3-0.1l0.3-0.3v-0.1l0.1-0.3v-0.2l-0.8,1.1L168.4,299.8z M171.8,284.7l0.3,4l0.5,0.7l0.9,0.5l0.5,0.2l1.3,0.1h0.6
	l1.3-0.1l0.6-0.2l1-0.6l0.5-0.7l0.1-0.5v-0.3l-0.3-3.4 M177.7,286.4l0.2,2.4 M174.6,302.1l5.2-5.8l2.4-1.5v-0.1l-0.1-0.1l-0.1-0.2
	v-0.3l0.2-0.5l1.4-1.6l0.5-0.7l0.3-1l0.1-0.9l-0.2-1l-0.2-0.3l-2.6,3v0.2h-0.1l-0.5,0.5h-0.1l-0.2,0.1h-0.1v0.1h-0.1l-0.1,0.1
	l-0.5,0.1l-0.1,0.1h-0.1l-0.1,0.1h-0.1v0.1h-0.1l-0.1,0.1h-0.2l-0.1,0.1h-0.1l-0.1,0.1h-0.3v0.1h-0.1l-0.1,0.1h-0.3L178,293h-0.3
	l-0.3,0.1H177l-0.1,0.1h-2.6l-0.1-0.1h-0.5l-0.2-0.1h-0.1l-0.1-0.1H173l-0.1-0.1h-0.1v-0.1h-0.3l-0.1-0.1h-0.1l-0.1-0.1H172v-0.1
	h-0.2v-0.1h-0.1l-0.1-0.1h-0.1v-0.1h-0.1l-0.1-0.1H171V292H171l-0.1-0.1h-0.1v-0.1h-0.1v-0.1h-0.1v-0.1h-0.1v-0.1h-0.1v-0.1
	l-0.2-0.2v-0.1h-0.1l-0.1-0.2v-0.2H170v-0.1l-0.1-0.1v-0.2h-0.1v-0.3l-0.1-0.1V289v-0.1l-0.1-0.1v-0.7v-0.4l0.1-0.1v-0.2l0.1-0.1
	v-0.2l0.1-0.1v-0.1l0.2-0.1v-0.1l0.3-0.3v-0.1l0.1-0.2 M173.9,286.7l0.1,2.4 M169.8,289L169.8,289l0.1,0.3l0.1,0.1v0.1l0.2,0.2v0.1
	h0.1l0.1,0.1v0.1l0.4,0.3 M169.6,288.1l0.1,0.8 M172.5,300.8h-1.2l-0.3-0.1l-0.5,0.1h-0.5l-0.5,0.1H169l-0.5,0.1 M176.2,308.3v-0.5
	l0.1-0.1V307l0.1-0.1v-0.3l0.1-0.2v-0.1l0.1-0.1V306l0.1-0.2v-0.1l0.1-0.2v-0.1l0.1-0.1v-0.1l0.1-0.1v-0.1l0.1-0.1v-0.1l0.1-0.1
	v-0.1l0.2-0.3l0.1-0.2V304l0.1-0.1v-0.1l0.2-0.1l0.1-0.2l0.1-0.1v-0.1l0.3-0.3V303l0.1-0.1l0.1-0.2l0.1-0.1v-0.1l0.6-0.7v-0.1
	l0.1-0.2h0.1l0.1-0.1v-0.1l0.1-0.1h0.1l0.4-0.3h0.1V301h0.1l0.1-0.1h0.1v-0.1l0.2-0.1h0.1l0.2-0.2h0.1l0.1-0.1h0.1l0.1-0.1h0.1
	l0.1-0.1h0.1l0.1-0.1h0.2l0.1-0.1l0.2-0.1h0.1l0.1-0.1h0.1l2.3-0.5l-1.4-1l-0.3-0.1h-0.5l0.3-0.1l-0.1-3l-0.1-0.5 M179.6,299.4
	l-0.5,0.2l-0.3,0.3l-0.8,0.6l-2.4,2.8h0.1v0.1h0.2l0.2,0.2v0.1l0.1,0.1v0.4l0.1,0.1l-0.1,0.1v0.7 M190,285.7l-1.3,1.3l-2.2,2.5
	l-0.3,0.3l-0.1,0.1h-0.1v0.1l-0.3,0.3v0.1l-0.2,0.1v0.1l-0.3,0.1v0.1l-0.1,0.1v0.2l-0.2,0.1l-0.1,0.2v0.1l-0.6,0.7l-1,1.7l-1.2,1.1
	 M193.6,281.6l-0.7,0.7l-0.4,0.4 M186.2,288.8v-2.2l-0.1-0.1v-0.1l-0.1-0.1l-0.1,0.1h-0.1v0.1l-1.6,1.7 M186.3,289.9v-0.1l0.3-0.2
	v-0.1l2.2-2.4 M184.5,289.4l0.1,1.9l-0.1,0.9v0.1 M182.4,298.2l0.2-0.2l0.8,0.3h0.7v0.1h0.5l1.3,0.7l1.9-0.5l0.1-0.1h0.1v-0.1
	l-0.1-0.1v-0.1h-0.2l-0.3-0.2l-0.1-0.1h-0.4l-0.1-0.1h-0.5 M182.4,298.2L182.4,298.2l0.3,0.1h0.7 M185.9,299.1L185.9,299.1l5.3,0.5
	 M185.9,299.1l-1.5,0.3 M188.7,298.2h1.1l1.7-0.5l2.2-0.1l0.6-0.1h0.6l0.7,0.1h0.7l1.3,0.1h0.3l0.3,0.1h0.3l0.3,0.1l0.5,0.1h0.1
	l0.1,0.1l0.3,0.1h0.3l0.3,0.1h-0.3l0.3,0.2l0.1,0.1l0.2,0.1l0.1,0.1v0.5l-0.1,0.1l-0.7,0.4h-0.3l-0.1,0.1l-2.6,0.1l-0.2,0.1h-0.9
	l0.3,0.1l0.7,0.2l0.2,0.2l0.7,0.1l0.3,0.2l0.3,0.1l0.3,0.2h0.2l0.7,0.3l0.5,0.3l0.2,0.2l0.3,0.1l2.5,1.7l0.3,0.3l0.4,0.3l0.4,0.5
	l0.8,0.5l0.5,0.4l0.1,0.3l0.2,0.1l0.1,0.3l0.3,1.1l-0.1,0.9 M191.9,300l2.2-0.1l1.5,0.2 M198.7,298l0.3,0.1h0.1l0.3,0.1l0.1,0
	l0.3,0.1l0.3,0.1h-4.5 M190,285.7l2.6-3 M152.8,271.9l25.4-27.4 M155.9,231.5l-1.6-0.9 M101.5,287.7l-3.5-6 M185.4,308.3l0.3-0.3
	l0.2-0.3l0.4-0.4l0.5-0.3h0.5l-0.8-0.8l-0.1-0.2l-1.3-1.2l-0.1-0.5l-0.2-0.5l-0.5-0.5l-1.1-0.5l-0.4-0.1l-0.5,0.1l-0.5,0.2l-0.4,0.3
	l-0.9,0.8l-0.8,1.1l-0.7,1.7L179,308 M181,308l0.1-0.4v-0.3l0.1-0.5l0.3-0.4l0.2-0.4l0.5-0.8l1.1-0.8l0.6-0.2h0.3l0.3,0.1l-0.5-0.1
	 M183.2,305.4l1.1,0.6h0.5 M184.1,307l-0.7-0.4l-0.5,0.8l0.7,0.3 M187.9,308.3v-0.6l-0.1-0.3l-0.2-0.1l-0.3-0.3 M177.2,308.3v-0.5
	 M170,305.6l0.7,2.8l4.9-5.1 M160.8,308.2l-0.1-0.5l-0.3-0.7l-0.1-0.5l-0.4-1.1l-0.3-0.5v-0.2h-0.1v-0.1h-0.1v-0.3h-0.1v-0.1
	l-0.3-0.3v-0.1H159v-0.1h-0.2v-0.1h-0.1l-1-0.5l-0.5,0.7v0.1h-0.1l-0.1,0.1v0.1h-0.1v0.1l-0.1,0.2v0.1l-0.1,0.2v0.1h-0.1v0.1
	l-0.1,0.1v0.1h-0.1v0.1l-0.9,1 M181.8,307.8l0.9,0.5 M147,307.3v-0.7 M138.8,303.3l3.4,5 M93.9,292.5l25.9,15.3l0.9,0.5
	 M119.4,308.3l0.5-0.5 M155.5,301.9l2.2,1.2 M136,306.1l-4.4-7.5 M118.7,297.7l9,5"/>
<path class="st2" d="M58.1,79l-4-2.3L31.3,89.8v-2.4l-4.1-2.5l-13.9,24.6l18,11v-7.3l26.8-15.6V79 M49.2,88.7l4.2-2.3l1-0.2l0.5,0.2
	l0.2,0.2l0.2,0.2l0.3,0.7l0.3,1.9l-0.3,2.2l-0.9,2.3L53.8,95l-0.5,0.5l-1,0.7l-3.1,1.8V88.7 M45.3,98.4l1.7-8.6l1.1-0.7l-2.2,10.8
	l-1.1,0.6l-2-6.7l-1.9,9l-1.1,0.6l-2.2-8l1-0.7l1.8,6.5l1.7-8.7l1.2-0.6L45.3,98.4 M37.3,95.5v1.1l-4.6,2.7v2.7l4.1-2.3v1.2
	l-4.1,2.3v4.2l-1.2,0.6v-9.4L37.3,95.5 M53.6,87.5h-0.4l-0.4,0.2l-2.6,1.4v7.2l2.6-1.6l0.8-0.9l0.8-1.5l0.2-1l-0.1-2.5l-0.2-0.7
	l-0.3-0.4L53.6,87.5z"/>
<path id="Layer0_2_MEMBER_1_1_STROKES" class="st6" d="M17.2,112.2l13.9-24.5v7.2l26.8-15.5v18.6"/>
<path id="Layer0_2_MEMBER_2_1_STROKES" class="st6" d="M31,87.6l-4-2.4l-13.9,24.6l18,11v-7.3l26.8-15.6 M57.9,79.3l-4-2.3
	L31.6,89.9"/>
<path class="st2" d="M234.5,196.8l-5.7-8.9c35.6-22.5,62.8-50.9,81.6-85.2c5.8-11,10.3-21.1,13.5-30.4c-2.9,7.8-7.2,16.2-12.8,25.3
	c-19.4,30.4-50.1,55.9-92,76.3l-5.9-8.6l-5.2,26.1L234.5,196.8z"/>
<path id="Layer0_3_1_STROKES" class="st7" d="M323.9,72.4c1.6-4.8,2.8-9.5,3.6-14 M228.8,187.9c35.6-22.5,62.8-50.9,81.6-85.2
	c5.8-11,10.3-21.1,13.5-30.4c-2.9,7.8-7.2,16.2-12.8,25.3c-19.4,30.4-50.1,55.9-92,76.3l-5.9-8.6l-5.2,26.1l26.5,5.3L228.8,187.9z"
	/>
<g>
	
		<ellipse transform="matrix(0.9239 -0.3827 0.3827 0.9239 -60.2229 87.7246)" class="st8" cx="190.4" cy="195.2" rx="30.8" ry="30.8"/>
	
		<ellipse transform="matrix(0.9239 -0.3827 0.3827 0.9239 -60.2229 87.7246)" class="st9" cx="190.4" cy="195.2" rx="30.8" ry="30.8"/>
</g>
</svg>
