<?xml version="1.0" encoding="utf-8"?>
<!-- Generator: Adobe Illustrator 24.1.2, SVG Export Plug-In . SVG Version: 6.00 Build 0)  -->
<svg version="1.1" id="Ebene_1" xmlns="http://www.w3.org/2000/svg" xmlns:xlink="http://www.w3.org/1999/xlink" x="0px" y="0px"
	 viewBox="0 0 347 361" style="enable-background:new 0 0 347 361;" xml:space="preserve">
<style type="text/css">
	.st0{fill:#FF9900;}
	.st1{fill:#666666;}
	.st2{fill:#FF9901;}
	.st3{fill:#0099FF;}
	.st4{fill:#FF0000;}
	.st5{fill:none;stroke:#1D1D1C;stroke-width:0.55;stroke-miterlimit:5;}
	.st6{fill:none;stroke:#1D1D1C;stroke-width:0.5;stroke-miterlimit:5;}
</style>
<path class="st0" d="M237.3,61.9c-0.4-0.2-0.8-0.2-1.4,0.2c-0.5,0.3-1,0.8-1.4,1.5c-0.4,0.7-0.6,1.3-0.6,2c0,0.7,0.2,1.1,0.6,1.4
	c0.4,0.2,0.9,0.2,1.4-0.2c0.5-0.3,1-0.9,1.4-1.6c0.4-0.6,0.6-1.3,0.6-2C238,62.6,237.7,62.2,237.3,61.9 M225.7,48.6
	c0.4-2,0.1-4.1-1-6.3c-1.2-2.4-2.9-4.1-5.1-5l-1.1-0.4l-1.1-0.2c-2.4-0.1-4.2,0.8-5.3,2.8c-1,1.9-1.1,4-0.4,6.4l0.3,0.6l-11.1,6.4
	l-0.1,11.6l11.8,6.9l7.1,10.5l0.4,0.2c0,0,0.1,0.1,0.1,0.1l0.1,0.1c0.4,0.2,0.5,0.6,0.5,1.2c0,0.7-0.2,1.3-0.6,2
	c-0.1,0.2-0.2,0.4-0.4,0.6l0.9,2.2l0.1,0.2l0.5,0.4l0.4,0.2l3.6,2.1c0,0,0.1,0,0.1,0c0.8,0.4,1.8,0.4,3-0.2l0.9-0.2
	c-0.1,0-0.1-0.1-0.2-0.1l-0.4-0.3l-1.1-0.6c-0.6-0.5-0.8-1.1-0.6-2c0.1-0.5,0.4-1,0.7-1.6c0.4-0.7,0.8-1.2,1.2-1.5
	c0.6-0.5,1.3-0.6,1.9-0.2l1.3,0.8c0.1,0,0.2,0.1,0.4,0.1c0.1,0.1,0.2,0.2,0.3,0.4l0.8-1.5l3.1-12.4l0.1-0.5v-4.8
	c-0.3,0.3-0.6,0.5-0.9,0.7c-0.6,0.4-1.2,0.4-1.7,0.1c-0.1,0-0.1-0.1-0.1-0.1c-0.4-0.3-0.5-0.8-0.5-1.4c0-0.8,0.2-1.6,0.7-2.4
	c0.5-0.8,1.1-1.4,1.7-1.8c0.6-0.4,1.1-0.4,1.6-0.2l-0.7-0.4l0-6.2L225.7,48.6 M224.3,53.7l0,0.3c0,0.1,0,0.2,0,0.2V53.7 M215.5,44.3
	c-0.2-0.6-0.3-1.2-0.4-1.8c0.5-1.1,1.4-1.5,2.7-1.1c1.2,0.4,2.1,1.2,2.8,2.3l0.6,1.2c0.2,0.4,0.3,0.9,0.4,1.3l-4.7-2.7L215.5,44.3
	 M222.2,73.7c-0.3-0.3-0.5-0.8-0.5-1.4c0-0.8,0.2-1.5,0.7-2.3c0.5-0.8,1.1-1.4,1.7-1.8c0.6-0.4,1.1-0.4,1.6-0.2c0,0,0.1,0,0.1,0.1
	c0.5,0.3,0.7,0.8,0.7,1.5c0,0.8-0.2,1.6-0.7,2.4c-0.5,0.8-1,1.4-1.7,1.8c-0.7,0.4-1.2,0.4-1.7,0.2C222.4,73.8,222.3,73.7,222.2,73.7
	 M223,70.2c-0.4,0.7-0.6,1.3-0.6,1.9c0,0.7,0.1,1.1,0.6,1.3c0.4,0.2,0.9,0.2,1.4-0.2c0.6-0.3,1.1-0.8,1.5-1.5c0.4-0.7,0.6-1.3,0.6-2
	c0-0.7-0.2-1.1-0.5-1.3c-0.4-0.2-0.9-0.1-1.5,0.2C223.8,69,223.4,69.5,223,70.2z"/>
<path class="st1" d="M129.6,262.1l-0.9-0.6l-13.9,8v10.2l6.9,3.9l13.9-8v-10.2L129.6,262.1 M240.5,69.5l-4,2.3l-3.1,12.4l-0.8,1.5
	c0.1,0.1,0.1,0.2,0.2,0.4l0.1,0.4v0l6.6,3.8l7.2-4.1l0-13L240.5,69.5z"/>
<path class="st2" d="M232.4,85.3c-0.1-0.1-0.2-0.1-0.4-0.1l-1.3-0.8c-0.6-0.3-1.3-0.2-1.9,0.2c-0.4,0.3-0.9,0.8-1.2,1.5
	c-0.3,0.6-0.6,1.1-0.7,1.6c-0.2,0.9,0,1.5,0.6,2l1.1,0.6v-0.6l-0.1-0.5l-0.1-0.4l-0.2-0.4l0.6-0.7l1-1.5l0.3-0.9h0.6l0.6-0.1
	c-0.1,0-0.2,0.1-0.3,0.1c-0.8,0.4-1.4,1-1.8,1.8l-0.4,0.9c-0.4,0.9-0.4,1.7-0.1,2.3c0.1,0.2,0.2,0.3,0.2,0.4c0.1,0,0.1,0.1,0.2,0.1
	l1.8-0.5c0,0,0-0.1,0-0.1c0.1,0,0.2-0.1,0.4-0.1c0.1,0,0.1-0.1,0.2-0.1c0.3-0.2,0.6-0.6,0.8-1c0.3-0.5,0.5-1,0.5-1.5
	c0-0.5-0.1-0.8-0.5-1c0,0-0.1-0.1-0.1-0.1l0.4-0.8C232.6,85.5,232.5,85.4,232.4,85.3z"/>
<path class="st3" d="M219.9,82.1c-0.4-0.1-0.8,0-1.2,0.2c-0.6,0.3-1,0.8-1.4,1.4c-0.4,0.7-0.6,1.3-0.6,2c0,0.5,0.1,0.8,0.4,1.1
	l-0.5,0.2h-0.7l-3.1-1.7l-0.3-0.6l-5.3-7.6l-9.7-5.6l-2.4,1.6l-5.5,3.8c-13.8,10-26.6,22.2-38.6,36.8c-11.1,13.5-21,28.4-29.5,44.5
	l-5.5,11.1c-7.8,16.7-13.4,33.3-16.9,49.9c-4,18.8-4.9,36.2-2.8,52.4l1.1,6.4l11.1,6.4c0.1,0.1,0.3,0.2,0.5,0.3
	c0.1,0.1,0.2,0.1,0.4,0.2l1.5,0.9l1.9-1.1l-0.6-3.5l2.6-1.5v-10.2l13.9-8l0.9,0.6l4.8-26.6l0.8-2.6c1.5-4.7,3.8-9.1,6.9-13.1
	c2.6-3.4,5.4-6.2,8.4-8.2l10.4-6v2.3l-10.3,5.9c-0.1,0.1-0.1,0.1-0.2,0.2c-1.1,0.8-2.1,1.8-3,3c-2,2.9-3.1,6.6-3.2,11.1l0.2,5
	c0.7,5.9,2.6,11.9,5.8,18c1.5,3,3.2,5.7,5.1,8.3l-0.4,0.1c-0.3,0.1-0.6,0.2-0.9,0.5c-0.1,0-0.2,0.1-0.2,0.1l-2.5-1.6
	c-0.7-0.4-1.5,0-2.2,1.2c-0.7,1.2-0.8,2.1-0.3,2.7l2.6,1.7c0,0.1-0.1,0.2-0.1,0.3c-0.3,1.2,0,2.2,0.8,2.8l2.4,1.4
	c0.2,0.1,0.5,0.2,0.8,0.2l0.5-0.2l4.5,2.7l1.4,4.5l-0.5,1.3l17.2,9.9l2-1.1v-0.3l2.5,1.4l1.5-0.9l1.6-2.1l15.1-8.7l1,0.6l2.4-1.4
	l14.1-18.6l-1.8-2.2l-0.2,0.1c2.1-4,2.9-8.7,2.5-14.1c-0.4-4.9-1.7-10.1-4.1-15.4c-2.2-5.1-5.1-9.8-8.5-14.1
	c-3.5-4.3-7.1-7.5-10.8-9.7l-0.5-0.4h0l-0.1-0.1v-7.1l-1-0.6V183l-1-0.6l-0.1,0.1v-56.2c0-0.3,0-0.5,0-0.8c0-0.8,0.1-1.5,0.2-2.2
	c0.5-4.8,2.2-9.7,5.1-14.8c3.1-5.4,6.8-9.5,11.1-12.3l12.1-7.1l-0.4-0.2l-0.5-0.4l-0.1-0.2l-0.9-2.2c0.1-0.2,0.2-0.4,0.4-0.6
	c0.4-0.7,0.6-1.3,0.6-2c0-0.6-0.2-1-0.5-1.2l-0.1-0.1C219.9,82.2,219.9,82.2,219.9,82.1 M218.8,82.8c0.5-0.3,0.9-0.3,1.2-0.2
	c0.3,0.2,0.5,0.6,0.5,1.1c0,0.5-0.2,1.1-0.5,1.7c-0.3,0.5-0.7,1-1.1,1.2c-0.5,0.2-0.9,0.3-1.2,0.1c-0.3-0.2-0.5-0.6-0.5-1.1
	c0-0.5,0.2-1.1,0.5-1.6C218,83.5,218.4,83,218.8,82.8 M170.5,231.6c-0.4,0.1-0.8,0.1-1.2-0.2c-0.4-0.3-0.7-0.7-0.9-1.2
	c-0.2-0.5-0.2-1-0.1-1.5c0.1-0.5,0.4-0.8,0.8-0.9c0.4-0.1,0.8-0.1,1.2,0.2c0.4,0.3,0.7,0.7,0.9,1.2c0.2,0.5,0.2,1,0.1,1.5
	C171.1,231.2,170.9,231.5,170.5,231.6 M174.3,223.3v-0.8c3.3,3,6.2,6.6,8.8,10.8c3.1,5.1,5.2,10.2,6.3,15.5l-0.8-0.6l-1.5-1.3
	c-3.2-3-6-6.7-8.3-10.9C176.7,231.9,175.1,227.6,174.3,223.3 M161,222.8c0,0.5-0.2,1-0.5,1.5c-0.3,0.5-0.6,0.8-1,1
	c-0.4,0.3-0.8,0.3-1,0.1c-0.3-0.2-0.4-0.5-0.4-0.9c0-0.5,0.1-1,0.4-1.5c0.3-0.5,0.6-0.8,1-1c0.4-0.2,0.8-0.3,1.1-0.1
	C160.8,222,161,222.3,161,222.8 M159.1,233.4c0.4-0.1,0.8,0,1.2,0.2c0.4,0.3,0.7,0.7,0.9,1.2c0.2,0.5,0.2,1,0.1,1.5
	c-0.2,0.5-0.4,0.8-0.8,1c-0.4,0.1-0.8,0.1-1.2-0.2c-0.4-0.3-0.7-0.7-0.9-1.2c-0.2-0.6-0.2-1.1-0.1-1.5S158.7,233.6,159.1,233.4
	 M174.8,242.6c-0.4-0.2-0.8-0.6-1.1-1.1c-0.3-0.5-0.4-1-0.4-1.5c0-0.4,0.1-0.7,0.4-0.9s0.6-0.1,1.1,0.1c0.4,0.2,0.7,0.6,1,1.1
	c0.3,0.5,0.4,0.9,0.4,1.4c0,0.5-0.1,0.8-0.4,1C175.5,242.9,175.2,242.8,174.8,242.6 M163.3,245.1c0.3-0.2,0.6-0.2,1.1,0
	c0.4,0.3,0.7,0.6,1,1.1c0.3,0.5,0.4,1,0.4,1.4c0,0.5-0.1,0.8-0.4,1c-0.3,0.2-0.6,0.1-1-0.1s-0.8-0.6-1.1-1.1s-0.4-1-0.4-1.4
	C162.8,245.5,163,245.2,163.3,245.1 M169.9,254.1c0.5,0,1,0.1,1.5,0.3c0.5,0.2,0.9,0.5,1.2,0.9c0.3,0.4,0.4,0.7,0.2,1.1
	c-0.1,0.3-0.4,0.5-0.9,0.5c-0.4,0-0.9-0.1-1.5-0.3c-0.5-0.2-0.9-0.6-1.1-1c-0.3-0.4-0.4-0.7-0.2-1
	C169.2,254.3,169.5,254.2,169.9,254.1 M203.2,218.8c0.4,0.2,0.7,0.6,1,1.1c0.3,0.5,0.5,1,0.5,1.4c0,0.5-0.1,0.8-0.4,1
	c-0.3,0.2-0.7,0.1-1.1-0.1c-0.4-0.2-0.8-0.6-1-1.1s-0.4-1-0.4-1.4c0-0.5,0.1-0.8,0.4-1S202.7,218.5,203.2,218.8 M209,229.8
	c0.4,0.3,0.7,0.7,0.9,1.2c0.2,0.6,0.2,1.1,0.1,1.5c-0.1,0.5-0.4,0.8-0.8,0.9c-0.4,0.1-0.8,0.1-1.2-0.2c-0.4-0.3-0.7-0.7-0.9-1.2
	c-0.2-0.5-0.2-1-0.1-1.5c0.2-0.5,0.4-0.8,0.8-1C208.2,229.4,208.6,229.5,209,229.8 M192.6,224.7c0.4,0.2,0.8,0.6,1,1.1
	c0.3,0.5,0.5,1,0.5,1.4c0,0.5-0.1,0.8-0.5,1c-0.3,0.2-0.6,0.1-1-0.1c-0.4-0.2-0.8-0.6-1-1.1s-0.4-1-0.4-1.5c0-0.5,0.1-0.8,0.4-0.9
	C191.9,224.4,192.2,224.4,192.6,224.7 M197,236.1c0.2-0.5,0.4-0.8,0.8-0.9c0.4-0.1,0.7-0.1,1.1,0.2c0.4,0.3,0.7,0.7,0.9,1.2
	c0.2,0.5,0.2,1,0.1,1.5c-0.1,0.5-0.4,0.8-0.8,1c-0.4,0.1-0.8,0.1-1.2-0.2c-0.4-0.3-0.7-0.7-0.9-1.2
	C196.9,237.1,196.9,236.6,197,236.1 M200,249c0-0.6,0.1-1,0.4-1.4c0.3-0.4,0.6-0.7,1-0.7s0.8,0.2,1.1,0.7c0.3,0.4,0.4,0.9,0.4,1.4
	c0,0.6-0.1,1.1-0.4,1.5c-0.3,0.4-0.6,0.6-1.1,0.6c-0.4,0-0.7-0.2-1-0.6C200.1,250.1,200,249.6,200,249 M213.5,243
	c0,0.5-0.1,1-0.4,1.4c-0.3,0.4-0.6,0.7-1.1,0.7c-0.4,0-0.8-0.2-1-0.7c-0.3-0.4-0.4-0.9-0.4-1.4c0-0.6,0.1-1.1,0.4-1.5
	c0.3-0.4,0.6-0.6,1-0.6c0.4,0,0.8,0.2,1.1,0.6C213.3,241.9,213.5,242.4,213.5,243 M211.3,255.7c-0.4,0.3-0.7,0.3-1,0.1
	c-0.3-0.2-0.5-0.5-0.5-1c0-0.5,0.1-0.9,0.5-1.4c0.3-0.5,0.6-0.8,1-1.1c0.4-0.2,0.7-0.3,1-0.1c0.3,0.2,0.4,0.5,0.4,1
	c0,0.5-0.1,0.9-0.4,1.4C212.1,255.1,211.7,255.5,211.3,255.7 M117.5,231.4c0.7-0.4,1.4-0.5,1.9-0.2s0.8,0.9,0.8,1.8
	c0,0.9-0.3,1.8-0.8,2.7c-0.5,0.9-1.1,1.6-1.9,2.1c-0.8,0.4-1.4,0.5-2,0.1c-0.5-0.3-0.8-0.9-0.8-1.8s0.3-1.8,0.8-2.7
	C116.1,232.5,116.7,231.9,117.5,231.4z"/>
<path class="st4" d="M220,82.6c-0.3-0.2-0.7-0.1-1.2,0.2c-0.4,0.3-0.8,0.7-1.2,1.2c-0.3,0.5-0.5,1.1-0.5,1.6c0,0.5,0.2,0.9,0.5,1.1
	c0.3,0.2,0.7,0.1,1.2-0.1c0.5-0.3,0.9-0.7,1.1-1.2c0.3-0.6,0.5-1.1,0.5-1.7C220.5,83.2,220.3,82.8,220,82.6 M219.9,82.1l-0.4-0.2
	l-7.1-10.5l-11.8-6.9l-6.1-3.5l-4.6,4.5l4.7,6.8l0.4,0.8l2.4-1.6l9.7,5.6l5.3,7.6l0.3,0.6l3.1,1.7h0.7l0.5-0.2
	c-0.2-0.3-0.4-0.6-0.4-1.1c0-0.6,0.2-1.3,0.6-2c0.4-0.6,0.8-1.1,1.4-1.4C219.1,82.1,219.5,82,219.9,82.1z"/>
<path id="Layer1_3_MEMBER_0_1_STROKES" class="st5" d="M200.6,53l19.7,11.3"/>
<path id="Layer1_3_MEMBER_1_1_STROKES" class="st5" d="M236.5,54.9l-16.3,9.4"/>
<path id="Layer1_3_MEMBER_2_1_STROKES" class="st5" d="M226.1,48.9l10.5,6"/>
<path id="Layer1_3_MEMBER_3_1_STROKES" class="st5" d="M216.9,43.6l4,2.3"/>
<path id="Layer1_3_MEMBER_4_1_STROKES" class="st5" d="M211.3,46.8l-10.6,6.1"/>
<path id="Layer1_3_MEMBER_5_1_STROKES" class="st5" d="M216.9,43.6l-1,0.6"/>
<path id="Layer1_3_MEMBER_6_1_STROKES" class="st5" d="M220.3,64.2v16.5"/>
<path id="Layer1_3_MEMBER_7_1_STROKES" class="st5" d="M200.6,52.9v11.5"/>
<path id="Layer1_3_MEMBER_8_1_STROKES" class="st5" d="M236.6,66.4v4.9"/>
<path id="Layer1_3_MEMBER_9_1_STROKES" class="st5" d="M236.6,54.9V61"/>
<path id="Layer1_3_MEMBER_10_1_STROKES" class="st5" d="M233,85.3l0.2-0.4l0.3-1.5"/>
<path id="Layer1_3_MEMBER_11_1_STROKES" class="st5" d="M224.4,90.4l0.1,0.2c0.9,1.1,2.1,1.3,3.8,0.5"/>
<path id="Layer1_3_MEMBER_12_1_STROKES" class="st5" d="M220.3,80.7l4.2,9.9"/>
<path id="Layer1_3_MEMBER_13_1_STROKES" class="st5" d="M233.4,83.8l3.2-12.5"/>
<path id="Layer1_3_MEMBER_14_1_STROKES" class="st5" d="M233.7,53.2l-16.3,9.3V78"/>
<path id="Layer1_3_MEMBER_15_1_STROKES" class="st5" d="M212,49.4l-8.8,5.1"/>
<path id="Layer1_3_MEMBER_16_1_STROKES" class="st5" d="M219.5,45.1l-2.5,1.4"/>
<path id="Layer1_3_MEMBER_17_1_STROKES" class="st5" d="M203.2,54.5v11.4"/>
<path id="Layer1_3_MEMBER_18_1_STROKES" class="st5" d="M224.7,67.4l-0.3-0.1c-1.2-0.3-2.3,0.5-3.3,2.4c-1,1.9-0.8,3.1,0.4,3.7"/>
<path id="Layer1_3_MEMBER_19_1_STROKES" class="st5" d="M225.8,71.9c0.5-0.8,0.7-1.6,0.7-2.4c0-0.7-0.2-1.3-0.7-1.5
	c-0.4-0.3-1-0.2-1.7,0.2c-0.7,0.4-1.2,1-1.7,1.8c-0.5,0.8-0.7,1.6-0.7,2.4c0,0.7,0.2,1.3,0.7,1.5c0.4,0.3,1,0.2,1.7-0.2
	C224.8,73.4,225.4,72.8,225.8,71.9z"/>
<path id="Layer1_3_MEMBER_20_1_STROKES" class="st5" d="M225.8,71.8c0.4-0.7,0.6-1.3,0.6-2c0-0.6-0.2-1.1-0.6-1.3
	c-0.4-0.2-0.9-0.2-1.4,0.2c-0.6,0.3-1,0.8-1.4,1.5c-0.4,0.7-0.6,1.4-0.6,2c0,0.7,0.2,1.1,0.6,1.3c0.4,0.2,0.9,0.2,1.4-0.2
	C224.9,73,225.4,72.5,225.8,71.8z"/>
<path id="Layer1_3_MEMBER_21_1_STROKES" class="st5" d="M224.7,67.4l1.2,0.6"/>
<path id="Layer1_3_MEMBER_22_1_STROKES" class="st5" d="M221.3,73.2l1.2,0.7"/>
<path id="Layer1_3_MEMBER_23_1_STROKES" class="st5" d="M236.3,60.8l-0.3-0.1c-1.3-0.3-2.4,0.5-3.3,2.4c-0.9,1.9-0.8,3.1,0.4,3.6"/>
<path id="Layer1_3_MEMBER_24_1_STROKES" class="st5" d="M237.4,61.5c-0.5-0.3-1-0.2-1.7,0.2c-0.7,0.4-1.2,1-1.7,1.8
	c-0.5,0.8-0.7,1.6-0.7,2.4c0,0.7,0.2,1.3,0.7,1.5c0.5,0.3,1,0.2,1.7-0.2c0.6-0.4,1.2-1,1.7-1.8c0.5-0.8,0.7-1.6,0.7-2.3
	C238.1,62.3,237.8,61.8,237.4,61.5z"/>
<path id="Layer1_3_MEMBER_25_1_STROKES" class="st5" d="M237.3,65.3c0.4-0.7,0.6-1.3,0.6-2c0-0.6-0.2-1.1-0.6-1.3
	c-0.4-0.2-0.9-0.2-1.4,0.2c-0.6,0.3-1,0.8-1.4,1.5c-0.4,0.7-0.6,1.3-0.6,2c0,0.7,0.2,1.1,0.6,1.3c0.4,0.2,0.9,0.2,1.4-0.1
	C236.4,66.5,236.9,66,237.3,65.3z"/>
<path id="Layer1_3_MEMBER_26_1_STROKES" class="st5" d="M236.3,60.8l1.2,0.7"/>
<path id="Layer1_3_MEMBER_27_1_STROKES" class="st5" d="M232.8,66.7l1.2,0.6"/>
<path id="Layer1_3_MEMBER_28_1_STROKES" class="st5" d="M232.9,86.8v-0.3l-0.1-0.4c-0.3-0.9-1-1.1-1.9-0.7c-0.8,0.4-1.4,1-1.8,1.7
	l-0.4,0.9c-0.4,0.9-0.4,1.7-0.1,2.3c0.4,0.7,1,0.8,2,0.3l0.4-0.2"/>
<path id="Layer1_3_MEMBER_29_1_STROKES" class="st5" d="M231.2,84.6l-0.1-0.3c-0.6-0.7-1.3-0.9-2.1-0.5c-0.7,0.4-1.4,1-2,2.1
	c-0.6,1-0.9,1.9-0.8,2.8c0,1,0.5,1.5,1.4,1.7h0.2"/>
<path id="Layer1_3_MEMBER_30_1_STROKES" class="st5" d="M230,83.5l-0.2-0.1c-1.3-0.3-2.4,0.5-3.5,2.4c-1,1.9-1,3.3,0,4l0.2,0.1"/>
<path id="Layer1_3_MEMBER_31_1_STROKES" class="st5" d="M230.7,84.5c-1.1-0.6-2.1,0-3.1,1.8c-1,1.7-1,2.9-0.1,3.6"/>
<path id="Layer1_3_MEMBER_32_1_STROKES" class="st5" d="M227.5,89.8l1.7,1"/>
<path id="Layer1_3_MEMBER_33_1_STROKES" class="st5" d="M230.7,84.5l1.6,1"/>
<path id="Layer1_3_MEMBER_34_1_STROKES" class="st5" d="M231.7,86.2c-0.7-0.2-1.4,0.3-2,1.4c-0.6,1.1-0.6,1.9,0,2.3"/>
<path id="Layer1_3_MEMBER_35_1_STROKES" class="st5" d="M232.4,89c0.3-0.5,0.4-1,0.4-1.5c0-0.5-0.1-0.8-0.4-1
	c-0.3-0.2-0.6-0.1-1.1,0.1c-0.4,0.3-0.8,0.6-1.1,1.1c-0.3,0.5-0.4,1-0.4,1.5c0,0.5,0.1,0.8,0.4,1c0.3,0.2,0.7,0.1,1.1-0.1
	C231.8,89.9,232.1,89.5,232.4,89z"/>
<path id="Layer1_3_MEMBER_36_1_STROKES" class="st5" d="M231.8,86.2l0.4,0.3"/>
<path id="Layer1_3_MEMBER_37_1_STROKES" class="st5" d="M229.7,89.9l0.5,0.3"/>
<path id="Layer1_3_MEMBER_38_1_STROKES" class="st5" d="M230,83.5l0.6,0.4"/>
<path id="Layer1_3_MEMBER_39_1_STROKES" class="st5" d="M226.4,89.8l0.5,0.3"/>
<path id="Layer1_3_MEMBER_40_1_STROKES" class="st5" d="M228.8,84.7l1.2,0.7"/>
<path id="Layer1_3_MEMBER_41_1_STROKES" class="st5" d="M226.9,87.9l1.2,0.7l0.7-0.7l1-1.6l0.3-0.9h0.6l0.6-0.1l0.6-0.2"/>
<path id="Layer1_3_MEMBER_42_1_STROKES" class="st5" d="M228.1,88.5l0.2,0.4l0.2,0.5l0.1,0.5v0.5"/>
<path id="Layer1_3_MEMBER_43_1_STROKES" class="st5" d="M225.5,91.4l-4.3-2.5"/>
<path id="Layer1_3_MEMBER_44_1_STROKES" class="st5" d="M212.8,53.9c0.1,1,0.7,1.9,1.8,2.5c1,0.6,2.3,0.8,3.8,0.9
	c1.5,0,2.8-0.2,3.9-0.8c1.2-0.6,1.8-1.4,2-2.4v-0.3"/>
<path id="Layer1_3_MEMBER_45_1_STROKES" class="st5" d="M218.7,53.4l0.6,0.1h1.1l1.1-0.2l1-0.4l0.9-0.6l0.4-0.5"/>
<path id="Layer1_3_MEMBER_46_1_STROKES" class="st5" d="M213.1,49.7l0.8,1l1.8,1.5"/>
<path id="Layer1_3_MEMBER_47_1_STROKES" class="st5" d="M224.6,51l0.4-0.5l0.4-1.1c0.7-2.3,0.4-4.7-0.8-7.1c-1.2-2.4-2.9-4.1-5.1-5
	l-1.2-0.4l-1.2-0.2c-2.4-0.1-4.2,0.8-5.3,2.9c-1,1.9-1.2,4-0.5,6.3l0.4,1.3l0.6,1.3"/>
<path id="Layer1_3_MEMBER_48_1_STROKES" class="st5" d="M215.2,42.6c0,1.2,0.4,2.5,1.1,3.8c0.7,1.3,1.6,2.2,2.7,2.9l0.6,0.4"/>
<path id="Layer1_3_MEMBER_49_1_STROKES" class="st5" d="M218.3,49.3l0.5,0.2c1.3,0.3,2.2-0.1,2.6-1.3c0.4-1,0.3-2.1-0.2-3.3
	l-0.6-1.3c-0.7-1.2-1.6-2-2.8-2.3c-1.3-0.4-2.3,0-2.8,1.4l-0.1,1.1"/>
<path id="Layer1_3_MEMBER_50_1_STROKES" class="st5" d="M224.3,54.4v-1.8"/>
<path id="Layer1_3_MEMBER_51_1_STROKES" class="st5" d="M212.8,53.9l0-4.2l-0.3-1.4"/>
<path id="Layer1_3_MEMBER_52_1_STROKES" class="st5" d="M224.3,52.6l0.1-0.7l0.2-0.7l0.4-0.6"/>
<path id="Layer1_3_MEMBER_53_1_STROKES" class="st5" d="M221.6,89.1l-12.1,7.1"/>
<path id="Layer1_3_MEMBER_54_1_STROKES" class="st5" d="M193.1,123.3v59.3"/>
<path id="Layer1_3_MEMBER_55_1_STROKES" class="st5" d="M219.1,81.7l-0.2-0.1c-1-0.3-1.9,0.4-2.7,2c-0.8,1.6-0.7,2.6,0.4,3"/>
<path id="Layer1_3_MEMBER_56_1_STROKES" class="st5" d="M220,85.5c0.4-0.7,0.6-1.3,0.6-2c0-0.6-0.2-1-0.6-1.3
	c-0.4-0.2-0.8-0.2-1.4,0.1c-0.6,0.3-1,0.8-1.4,1.5c-0.4,0.7-0.6,1.3-0.6,1.9c0,0.6,0.2,1.1,0.6,1.3c0.4,0.2,0.8,0.2,1.4-0.2
	C219.1,86.6,219.6,86.1,220,85.5z"/>
<path id="Layer1_3_MEMBER_57_1_STROKES" class="st5" d="M220,85.4c0.3-0.6,0.5-1.1,0.5-1.6c0-0.5-0.2-0.9-0.5-1.1
	c-0.3-0.2-0.7-0.1-1.2,0.1c-0.4,0.3-0.8,0.7-1.2,1.3c-0.3,0.6-0.5,1.1-0.5,1.6c0,0.5,0.2,0.9,0.5,1.1c0.3,0.2,0.7,0.1,1.2-0.1
	C219.3,86.4,219.6,85.9,220,85.4z"/>
<path id="Layer1_3_MEMBER_58_1_STROKES" class="st5" d="M219.1,81.7l0.9,0.5"/>
<path id="Layer1_3_MEMBER_59_1_STROKES" class="st5" d="M215.3,86.8l0.2,0.2l0.3,0.1l0.3,0l0.4,0l0.4-0.1"/>
<path id="Layer1_3_MEMBER_60_1_STROKES" class="st5" d="M215.3,86.8l-7.6-10.9"/>
<path id="Layer1_3_MEMBER_61_1_STROKES" class="st5" d="M219.6,81.8l-7.3-10.5"/>
<path id="Layer1_3_MEMBER_62_1_STROKES" class="st5" d="M212.5,71.4l-4.7,4.6"/>
<path id="Layer1_3_MEMBER_63_1_STROKES" class="st5" d="M189.9,65.6l17.8,10.2"/>
<path id="Layer1_3_MEMBER_64_1_STROKES" class="st5" d="M194.5,61l18,10.3"/>
<path id="Layer1_3_MEMBER_65_1_STROKES" class="st5" d="M212.4,84.9l-5.3-7.7"/>
<path id="Layer1_3_MEMBER_66_1_STROKES" class="st5" d="M193.9,69.7l13.2,7.5"/>
<path id="Layer1_3_MEMBER_67_1_STROKES" class="st5" d="M213.3,85.7l2.5,1.4"/>
<path id="Layer1_3_MEMBER_68_1_STROKES" class="st5" d="M194.6,72.4l-4.7-6.8"/>
<path id="Layer1_3_MEMBER_69_1_STROKES" class="st5" d="M194.5,61l-4.6,4.6"/>
<path id="Layer1_3_MEMBER_70_1_STROKES" class="st5" d="M167.6,201.7l-17.2,9.8"/>
<path id="Layer1_3_MEMBER_71_1_STROKES" class="st5" d="M186.3,191l-10.6,6.1"/>
<path id="Layer1_3_MEMBER_72_1_STROKES" class="st5" d="M153.1,209.9c-4,2.1-7.7,5.4-11.1,9.8c-3.1,4.1-5.4,8.5-6.9,13.2l-0.8,2.6
	l-4.8,26.6"/>
<path id="Layer1_3_MEMBER_73_1_STROKES" class="st5" d="M210.6,82.2l-4.4,2.9c-13.8,9.5-26.8,21.4-38.8,35.6
	c-11.2,13.2-21.1,27.7-29.7,43.7l-5.6,11c-7.9,16.5-13.7,33.1-17.3,49.6c-4.2,18.8-5.3,36.2-3.3,52.2l1.2,7.4"/>
<path id="Layer1_3_MEMBER_74_1_STROKES" class="st5" d="M209,80l-6.5,4.5c-13.8,10-26.7,22.2-38.7,36.7
	c-11.2,13.5-21,28.4-29.5,44.6l-5.5,11.1c-7.8,16.7-13.4,33.4-16.9,49.9c-4,18.8-4.9,36.3-2.8,52.4l1.1,6.4"/>
<path id="Layer1_3_MEMBER_75_1_STROKES" class="st5" d="M114.8,279.7l-2.4,1.4"/>
<path id="Layer1_3_MEMBER_76_1_STROKES" class="st5" d="M112.7,284.6l-1.9,1.1"/>
<path id="Layer1_3_MEMBER_77_1_STROKES" class="st5" d="M110.3,285.5l-13-7.5"/>
<path id="Layer1_3_MEMBER_78_1_STROKES" class="st5" d="M197.4,71.7l-8,5.4c-13.8,10-26.7,22.2-38.6,36.7
	c-11.2,13.5-21,28.4-29.5,44.5l-5.5,11.1c-7.8,16.7-13.4,33.3-16.9,49.9c-4,18.8-4.9,36.2-2.8,52.4l1.1,6.4"/>
<path id="Layer1_3_MEMBER_79_1_STROKES" class="st5" d="M188.3,129.8l-21.9,12.6"/>
<path id="Layer1_3_MEMBER_80_1_STROKES" class="st5" d="M188.3,145.9l-21.9,12.6"/>
<path id="Layer1_3_MEMBER_81_1_STROKES" class="st5" d="M188.3,129.8v16.1"/>
<path id="Layer1_3_MEMBER_82_1_STROKES" class="st5" d="M166.4,142.4v16.1"/>
<path id="Layer1_3_MEMBER_83_1_STROKES" class="st5" d="M212.1,94.7l-0.6,0.3c-5.1,2.8-9.5,7.4-13.1,13.6
	c-3.6,6.2-5.4,12.2-5.3,18.1l0.1,1.2"/>
<path id="Layer1_3_MEMBER_84_1_STROKES" class="st5" d="M187.3,145.2c0.2-0.3,0.3-0.6,0.3-0.9s-0.1-0.5-0.3-0.6
	c-0.2-0.1-0.4-0.1-0.6,0.1c-0.3,0.1-0.5,0.4-0.6,0.7c-0.2,0.3-0.3,0.6-0.3,0.9c0,0.3,0.1,0.5,0.3,0.6c0.2,0.1,0.4,0.1,0.6-0.1
	C187,145.7,187.2,145.5,187.3,145.2z"/>
<path id="Layer1_3_MEMBER_85_1_STROKES" class="st5" d="M187.3,133.1c0.2-0.3,0.3-0.6,0.3-0.9c0-0.3-0.1-0.5-0.3-0.6
	c-0.2-0.1-0.4-0.1-0.6,0.1c-0.3,0.1-0.5,0.4-0.6,0.7c-0.2,0.3-0.3,0.6-0.3,0.9s0.1,0.5,0.3,0.6c0.2,0.1,0.4,0.1,0.6-0.1
	C187,133.6,187.2,133.4,187.3,133.1z"/>
<path id="Layer1_3_MEMBER_86_1_STROKES" class="st5" d="M168.8,155.8c0.2-0.3,0.3-0.6,0.3-0.9c0-0.3-0.1-0.5-0.3-0.6
	c-0.2-0.1-0.4-0.1-0.6,0.1c-0.3,0.1-0.5,0.4-0.7,0.7c-0.2,0.3-0.3,0.6-0.3,0.9c0,0.3,0.1,0.5,0.3,0.6c0.2,0.1,0.4,0.1,0.7-0.1
	C168.4,156.4,168.6,156.2,168.8,155.8z"/>
<path id="Layer1_3_MEMBER_87_1_STROKES" class="st5" d="M168.8,143.7c0.2-0.3,0.3-0.6,0.3-0.9c0-0.3-0.1-0.5-0.3-0.6
	c-0.2-0.1-0.4-0.1-0.6,0.1c-0.3,0.1-0.5,0.4-0.7,0.7c-0.2,0.3-0.3,0.6-0.3,0.9c0,0.3,0.1,0.5,0.3,0.6c0.2,0.1,0.4,0.1,0.7-0.1
	C168.4,144.3,168.6,144,168.8,143.7z"/>
<path id="Layer1_3_MEMBER_88_1_STROKES" class="st5" d="M121.6,283.6l-6.8-3.9"/>
<path id="Layer1_3_MEMBER_89_1_STROKES" class="st5" d="M135.4,275.6l-13.9,8"/>
<path id="Layer1_3_MEMBER_90_1_STROKES" class="st5" d="M128.6,261.5l-13.9,8"/>
<path id="Layer1_3_MEMBER_91_1_STROKES" class="st5" d="M135.4,265.4l-6.8-3.9"/>
<path id="Layer1_3_MEMBER_92_1_STROKES" class="st5" d="M121.6,273.4l-6.8-3.9"/>
<path id="Layer1_3_MEMBER_93_1_STROKES" class="st5" d="M135.4,265.4l-13.9,8"/>
<path id="Layer1_3_MEMBER_94_1_STROKES" class="st5" d="M135.4,275.6v-10.2"/>
<path id="Layer1_3_MEMBER_95_1_STROKES" class="st5" d="M121.6,273.4v10.2"/>
<path id="Layer1_3_MEMBER_96_1_STROKES" class="st5" d="M114.8,279.7v-10.2"/>
<path id="Layer1_3_MEMBER_97_1_STROKES" class="st5" d="M126.5,276.9c0.4-0.7,0.6-1.4,0.6-2.1c0-0.7-0.2-1.1-0.6-1.3
	c-0.4-0.2-0.9-0.2-1.5,0.1c-0.6,0.3-1.1,0.9-1.5,1.6c-0.4,0.7-0.6,1.4-0.6,2.1c0,0.7,0.2,1.1,0.6,1.3c0.4,0.2,0.9,0.2,1.5-0.1
	C125.6,278.2,126.1,277.6,126.5,276.9z"/>
<path id="Layer1_3_MEMBER_98_1_STROKES" class="st5" d="M132,274.5c0.6-0.3,1.1-0.9,1.5-1.6c0.4-0.7,0.6-1.4,0.6-2.1
	c0-0.7-0.2-1.1-0.6-1.3c-0.4-0.2-0.9-0.2-1.5,0.1c-0.6,0.3-1,0.9-1.5,1.6c-0.4,0.7-0.6,1.4-0.6,2.1c0,0.7,0.2,1.1,0.6,1.3
	C130.9,274.8,131.4,274.8,132,274.5z"/>
<path id="Layer1_3_MEMBER_99_1_STROKES" class="st5" d="M216.8,253.8c2.1-4,3-8.6,2.6-14.1c-0.4-4.9-1.7-10.1-4.1-15.5
	c-2.2-5.1-5.1-9.8-8.6-14c-3.5-4.3-7.1-7.5-10.8-9.7l-0.7-0.4"/>
<path id="Layer1_3_MEMBER_100_1_STROKES" class="st5" d="M168.7,214.3l-7.8-4.5"/>
<path id="Layer1_3_MEMBER_101_1_STROKES" class="st5" d="M168.7,197.7v16.6"/>
<path id="Layer1_3_MEMBER_102_1_STROKES" class="st5" d="M160.9,209.8v-4.2"/>
<path id="Layer1_3_MEMBER_103_1_STROKES" class="st5" d="M175.6,193.7l-6.9,4"/>
<path id="Layer1_3_MEMBER_104_1_STROKES" class="st5" d="M167.7,197.1v5.1"/>
<path id="Layer1_3_MEMBER_105_1_STROKES" class="st5" d="M175.6,193.7v9.3"/>
<path id="Layer1_3_MEMBER_106_1_STROKES" class="st5" d="M168.7,197.7l-1-0.6"/>
<path id="Layer1_3_MEMBER_107_1_STROKES" class="st5" d="M174.6,193.2l-6.9,4"/>
<path id="Layer1_3_MEMBER_108_1_STROKES" class="st5" d="M175.6,193.7l-1-0.6"/>
<path id="Layer1_3_MEMBER_109_1_STROKES" class="st5" d="M167.7,202.2l-0.5-0.3"/>
<path id="Layer1_3_MEMBER_110_1_STROKES" class="st5" d="M162.9,204.7l0.3,0.2c0.5,0.3,1,0.8,1.4,1.4c0.4,0.6,0.6,1.3,0.7,1.9l0,0.4
	l0,0.4c-0.1,0.6-0.3,1-0.7,1.1c-0.4,0.1-0.8,0.1-1.3-0.2l-0.3-0.2"/>
<path id="Layer1_3_MEMBER_111_1_STROKES" class="st5" d="M161.1,206.1v-0.3l0.1-0.2"/>
<path id="Layer1_3_MEMBER_112_1_STROKES" class="st5" d="M165.3,203.5l0.1,0.1c1,0.6,1.6,1.6,2.1,3.2c0.4,1.6,0,2.6-1.2,2.8h-0.2"/>
<path id="Layer1_3_MEMBER_113_1_STROKES" class="st5" d="M166,203.3c0.8,0.5,1.5,1.5,1.9,2.8c0.5,1.4,0.3,2.4-0.4,3l-0.2,0.1"/>
<path id="Layer1_3_MEMBER_114_1_STROKES" class="st5" d="M164.5,203.8l0.4,0.2c0.8,0.4,1.5,1.2,1.9,2.4c0.5,1.3,0.4,2.2-0.3,2.7"/>
<path id="Layer1_3_MEMBER_115_1_STROKES" class="st5" d="M166.4,209.1l-1.6,0.9"/>
<path id="Layer1_3_MEMBER_116_1_STROKES" class="st5" d="M162.3,205.5c0.7-0.2,1.4,0.3,2,1.3c0.6,1.1,0.6,1.9,0,2.3"/>
<path id="Layer1_3_MEMBER_117_1_STROKES" class="st5" d="M163.7,209.5c-0.3,0.2-0.6,0.1-1-0.1c-0.4-0.2-0.8-0.6-1.1-1.1
	c-0.3-0.5-0.4-0.9-0.4-1.4c0-0.5,0.1-0.8,0.4-1c0.3-0.1,0.6-0.1,1.1,0.1c0.4,0.2,0.7,0.6,1,1.1c0.3,0.5,0.4,1,0.4,1.4
	C164.1,209,164,209.3,163.7,209.5z"/>
<path id="Layer1_3_MEMBER_118_1_STROKES" class="st5" d="M162.2,205.6l-0.4,0.3"/>
<path id="Layer1_3_MEMBER_119_1_STROKES" class="st5" d="M164.2,209.2l-0.5,0.3"/>
<path id="Layer1_3_MEMBER_120_1_STROKES" class="st5" d="M167.5,209.1l-0.5,0.3"/>
<path id="Layer1_3_MEMBER_121_1_STROKES" class="st5" d="M165.1,204.2l-1.1,0.6"/>
<path id="Layer1_3_MEMBER_122_1_STROKES" class="st5" d="M166.9,207.2l-1.1,0.6l-0.2,0.4l-0.2,0.9v0.5"/>
<path id="Layer1_3_MEMBER_123_1_STROKES" class="st5" d="M169.7,213.7l-1,0.6"/>
<path id="Layer1_3_MEMBER_124_1_STROKES" class="st5" d="M169.7,206.5v7.2"/>
<path id="Layer1_3_MEMBER_125_1_STROKES" class="st5" d="M170.5,207.1v7.4"/>
<path id="Layer1_3_MEMBER_126_1_STROKES" class="st5" d="M168.6,215.5c0.2,0.1,0.4,0.2,0.6,0.2c0.3,0,0.6-0.1,0.9-0.3
	c0.3-0.2,0.4-0.5,0.4-0.8"/>
<path id="Layer1_3_MEMBER_127_1_STROKES" class="st5" d="M169.8,213.6l-0.1,0.4c-0.1,0.2-0.2,0.3-0.4,0.3c-0.2,0.1-0.3,0-0.5-0.1"/>
<path id="Layer1_3_MEMBER_128_1_STROKES" class="st5" d="M176.6,203.6l-6.1,3.5"/>
<path id="Layer1_3_MEMBER_129_1_STROKES" class="st5" d="M170.6,207.1l-1-0.5"/>
<path id="Layer1_3_MEMBER_130_1_STROKES" class="st5" d="M175.6,203.1l-6,3.4"/>
<path id="Layer1_3_MEMBER_131_1_STROKES" class="st5" d="M176.6,203.6l-1-0.6"/>
<path id="Layer1_3_MEMBER_132_1_STROKES" class="st5" d="M176.6,203.6v7.4"/>
<path id="Layer1_3_MEMBER_133_1_STROKES" class="st5" d="M175.9,212l0.2-0.1l0.2-0.1l0.1-0.2l0.2-0.4l0-0.2"/>
<path id="Layer1_3_MEMBER_134_1_STROKES" class="st5" d="M176,212l-5.9,3.4"/>
<path id="Layer1_3_MEMBER_135_1_STROKES" class="st5" d="M164,204.8l0.3,0.8l0.4,0.8l0.5,0.7l0.6,0.6"/>
<path id="Layer1_3_MEMBER_136_1_STROKES" class="st5" d="M164,204.8l-0.7,0l-0.7-0.2"/>
<path id="Layer1_3_MEMBER_137_1_STROKES" class="st5" d="M187.3,187v14"/>
<path id="Layer1_3_MEMBER_138_1_STROKES" class="st5" d="M194.2,183l-6.9,3.9"/>
<path id="Layer1_3_MEMBER_139_1_STROKES" class="st5" d="M186.3,186.4v5.1"/>
<path id="Layer1_3_MEMBER_140_1_STROKES" class="st5" d="M194.2,183v9.3"/>
<path id="Layer1_3_MEMBER_141_1_STROKES" class="st5" d="M187.3,187l-1-0.5"/>
<path id="Layer1_3_MEMBER_142_1_STROKES" class="st5" d="M193.2,182.5l-6.9,4"/>
<path id="Layer1_3_MEMBER_143_1_STROKES" class="st5" d="M194.2,183l-1-0.6"/>
<path id="Layer1_3_MEMBER_144_1_STROKES" class="st5" d="M186.3,191.5l-0.5-0.3"/>
<path id="Layer1_3_MEMBER_145_1_STROKES" class="st5" d="M188.3,195.8v6.3"/>
<path id="Layer1_3_MEMBER_146_1_STROKES" class="st5" d="M189.1,196.5v6.5"/>
<path id="Layer1_3_MEMBER_147_1_STROKES" class="st5" d="M195.2,193l-6.1,3.5"/>
<path id="Layer1_3_MEMBER_148_1_STROKES" class="st5" d="M189.2,196.4l-1-0.5"/>
<path id="Layer1_3_MEMBER_149_1_STROKES" class="st5" d="M194.2,192.4l-5.9,3.4"/>
<path id="Layer1_3_MEMBER_150_1_STROKES" class="st5" d="M195.2,193l-1-0.6"/>
<path id="Layer1_3_MEMBER_151_1_STROKES" class="st5" d="M195.2,193v7.4"/>
<path id="Layer1_3_MEMBER_152_1_STROKES" class="st5" d="M194.5,201.4l0.2-0.1l0.3-0.3l0.2-0.4l0-0.2"/>
<path id="Layer1_3_MEMBER_153_1_STROKES" class="st5" d="M194.6,201.3L190,204"/>
<path id="Layer1_3_MEMBER_154_1_STROKES" class="st5" d="M174.6,271.2l0.5,0.2l1.8,0.3c4.7,0.4,8.2-1.2,10.6-4.8
	c2.1-3.1,3-7.1,2.7-11.9l-0.5-4.7c-1-5.7-3.2-11.3-6.5-16.8c-3.4-5.6-7.4-10-12-13.4l-1.9-1.3l-0.7-0.4"/>
<path id="Layer1_3_MEMBER_155_1_STROKES" class="st5" d="M198.8,266l12.9-7.4"/>
<path id="Layer1_3_MEMBER_156_1_STROKES" class="st5" d="M186.6,273l5.7-3.3"/>
<path id="Layer1_3_MEMBER_157_1_STROKES" class="st5" d="M150.3,213.9l10.6-6.1"/>
<path id="Layer1_3_MEMBER_158_1_STROKES" class="st5" d="M168.6,215.3v3.2"/>
<path id="Layer1_3_MEMBER_159_1_STROKES" class="st5" d="M159.2,212v3.2l5.5-3.2"/>
<path id="Layer1_3_MEMBER_160_1_STROKES" class="st5" d="M159.2,212l2.9-1.7"/>
<path id="Layer1_3_MEMBER_161_1_STROKES" class="st5" d="M183.6,192.7l0.4,0.5c1.8,2,2.8,4.3,3.2,6.7l0.1,1.1"/>
<path id="Layer1_3_MEMBER_162_1_STROKES" class="st5" d="M174.6,274.3l1.6,0.4l2,0.3c5.2,0.4,9.2-1.3,11.8-5.4c2.3-3.5,3.3-8,3-13.4
	l-0.6-5.2c-1.2-6.5-3.6-12.7-7.3-18.9c-3.8-6.2-8.3-11.2-13.5-15l-2.1-1.4l-0.5-0.3"/>
<path id="Layer1_3_MEMBER_163_1_STROKES" class="st5" d="M159.6,211.9l-0.4-0.1l-1.9-0.1c-4.2,0.1-7.5,1.9-9.8,5.3
	c-2,2.9-3,6.6-3.2,11.1l0.2,5c0.7,5.9,2.6,11.9,5.7,18c3.1,5.9,6.8,10.9,11.3,15.1l4.2,3.5"/>
<path id="Layer1_3_MEMBER_164_1_STROKES" class="st5" d="M188.8,219.6l-5.8-5.8l-4.2-3.1l-1.1-0.6"/>
<path id="Layer1_3_MEMBER_165_1_STROKES" class="st5" d="M177.6,209.6l-0.8,0.4"/>
<path id="Layer1_3_MEMBER_166_1_STROKES" class="st5" d="M183.8,205.9l-1.6,0.9"/>
<path id="Layer1_3_MEMBER_167_1_STROKES" class="st5" d="M177.6,210.1v-6.8"/>
<path id="Layer1_3_MEMBER_168_1_STROKES" class="st5" d="M179.4,204.3l-1.8-1"/>
<path id="Layer1_3_MEMBER_169_1_STROKES" class="st5" d="M179.4,204.3l9.3,13.2v2.2"/>
<path id="Layer1_3_MEMBER_170_1_STROKES" class="st5" d="M180.3,203.8l-1.8-1"/>
<path id="Layer1_3_MEMBER_171_1_STROKES" class="st5" d="M180.3,203.8l9.3,13.1v2.2"/>
<path id="Layer1_3_MEMBER_172_1_STROKES" class="st5" d="M177.6,203.3l0.8-0.5"/>
<path id="Layer1_3_MEMBER_173_1_STROKES" class="st5" d="M179.4,204.3l0.8-0.5"/>
<path id="Layer1_3_MEMBER_174_1_STROKES" class="st5" d="M188.8,217.5l0.9-0.5"/>
<path id="Layer1_3_MEMBER_175_1_STROKES" class="st5" d="M188.8,219.6l0.9-0.4"/>
<path id="Layer1_3_MEMBER_176_1_STROKES" class="st5" d="M195,215.9l-5.8-5.8l-5.3-3.7"/>
<path id="Layer1_3_MEMBER_177_1_STROKES" class="st5" d="M183.8,206.4v-6.8"/>
<path id="Layer1_3_MEMBER_178_1_STROKES" class="st5" d="M185.7,200.7l-1.8-1.1"/>
<path id="Layer1_3_MEMBER_179_1_STROKES" class="st5" d="M185.7,200.7l9.3,13.1v2.2"/>
<path id="Layer1_3_MEMBER_180_1_STROKES" class="st5" d="M186.5,200.2l-1.8-1.1"/>
<path id="Layer1_3_MEMBER_181_1_STROKES" class="st5" d="M186.5,200.2l9.3,13.1v2.2"/>
<path id="Layer1_3_MEMBER_182_1_STROKES" class="st5" d="M183.8,199.6l0.8-0.5"/>
<path id="Layer1_3_MEMBER_183_1_STROKES" class="st5" d="M185.7,200.7l0.8-0.5"/>
<path id="Layer1_3_MEMBER_184_1_STROKES" class="st5" d="M195,213.8l0.8-0.5"/>
<path id="Layer1_3_MEMBER_185_1_STROKES" class="st5" d="M195,215.9l0.9-0.4"/>
<path id="Layer1_3_MEMBER_186_1_STROKES" class="st5" d="M174.6,271.2v3.1"/>
<path id="Layer1_3_MEMBER_187_1_STROKES" class="st5" d="M165.7,266.8v2.9"/>
<path id="Layer1_3_MEMBER_188_1_STROKES" class="st5" d="M166.3,265.8l0.4,0.3"/>
<path id="Layer1_3_MEMBER_189_1_STROKES" class="st5" d="M176.1,270.6c3.1,0.7,5.8,0.4,8.1-0.8l1-0.6"/>
<path id="Layer1_3_MEMBER_190_1_STROKES" class="st5" d="M151.4,217.9l-0.5,0.5l-1,1.4c-1.5,2.4-2.2,5.5-2.4,9
	c-0.1,3,0.2,6.1,1.1,9.4l1.5,4.9c1.3,3.7,3.1,7.3,5.3,10.6c2.2,3.5,4.8,6.5,7.6,9.2l3.3,2.8"/>
<path id="Layer1_3_MEMBER_191_1_STROKES" class="st5" d="M165.7,266.8l1-0.7"/>
<path id="Layer1_3_MEMBER_192_1_STROKES" class="st5" d="M165.6,269.7l1.2-0.8"/>
<path id="Layer1_3_MEMBER_193_1_STROKES" class="st5" d="M166.8,266.1v2.8"/>
<path id="Layer1_3_MEMBER_194_1_STROKES" class="st5" d="M176.2,269.9l1.4,0.2c2.6,0.3,4.8-0.2,6.8-1.3c2-1.2,3.5-3,4.5-5.3l0.3-0.7
	"/>
<path id="Layer1_3_MEMBER_195_1_STROKES" class="st5" d="M157,215.7l-0.7,0.2l-1.4,0.6c-2.9,1.4-4.8,4-5.9,7.6
	c-0.9,2.9-1.1,6.2-0.6,9.9l0.8,4.6c1.1,4.5,2.9,8.8,5.3,13c2.5,4.2,5.3,7.9,8.7,11l3.2,2.7"/>
<path id="Layer1_3_MEMBER_196_1_STROKES" class="st5" d="M177.1,269.2l0.5,0.2l1.7,0.3l3.3-0.1l0.8-0.2"/>
<path id="Layer1_3_MEMBER_197_1_STROKES" class="st5" d="M159,215.2l-0.8,0.2l-1.4,0.5c-2.9,1.4-4.8,4-5.9,7.6
	c-0.9,2.9-1.1,6.2-0.6,9.9l0.8,4.7c1.1,4.4,2.9,8.8,5.3,13c2.4,4.2,5.3,7.9,8.7,11l2.7,2.3"/>
<path id="Layer1_3_MEMBER_198_1_STROKES" class="st5" d="M163.3,214.9l-2-0.1l-0.5,0.1"/>
<path id="Layer1_3_MEMBER_199_1_STROKES" class="st5" d="M166.4,265.9v-0.8l1.3-0.9l0.5-2.5"/>
<path id="Layer1_3_MEMBER_200_1_STROKES" class="st5" d="M168.1,262.2l0-0.2c0.1-0.4,0.3-0.8,0.7-1l0.2-0.1"/>
<path id="Layer1_3_MEMBER_201_1_STROKES" class="st5" d="M166.9,267.1l23.2-13.4"/>
<path id="Layer1_3_MEMBER_202_1_STROKES" class="st5" d="M175,271.2l1.1-0.7"/>
<path id="Layer1_3_MEMBER_203_1_STROKES" class="st5" d="M176.1,270.6v-0.8l1.3-0.9"/>
<path id="Layer1_3_MEMBER_204_1_STROKES" class="st5" d="M163.5,217l-0.9,0l-1.4,0.1c-3.2,0.6-5.5,2.4-7.1,5.4
	c-1.3,2.5-1.8,5.6-1.6,9.1l0.5,4.1c0.8,4.3,2.3,8.6,4.7,12.8c2.3,4.2,5.1,7.8,8.3,10.9l2.4,2.1"/>
<path id="Layer1_3_MEMBER_205_1_STROKES" class="st5" d="M163.3,216.9v-2l3.4-1.9"/>
<path id="Layer1_3_MEMBER_206_1_STROKES" class="st5" d="M163.3,216.9l4.8-2.6"/>
<path id="Layer1_3_MEMBER_207_1_STROKES" class="st5" d="M169.1,260.9l19.6-11.4"/>
<path id="Layer1_3_MEMBER_208_1_STROKES" class="st5" d="M174.3,223.3c0.8,4.3,2.3,8.6,4.7,12.9c2.3,4.2,5.1,7.8,8.3,10.8l1.4,1.3"
	/>
<path id="Layer1_3_MEMBER_209_1_STROKES" class="st5" d="M177.5,268.9l0.5-2.5"/>
<path id="Layer1_3_MEMBER_210_1_STROKES" class="st5" d="M178.2,265.8l0.4,0.1c4.6,0.9,7.9-0.6,9.9-4.3c1.7-3.2,2-7.1,1.1-11.7
	l-0.1-0.4"/>
<path id="Layer1_3_MEMBER_211_1_STROKES" class="st5" d="M178,266.7l0-0.2c0.1-0.4,0.3-0.7,0.7-1l10.7-6.2"/>
<path id="Layer1_3_MEMBER_212_1_STROKES" class="st5" d="M174.9,271.1l-2.7-0.8l-3.4-1.6l-1.7-1.1"/>
<path id="Layer1_3_MEMBER_213_1_STROKES" class="st5" d="M174.1,272.1l-2.1-0.6l-3.4-1.6l-1.8-1.2"/>
<path id="Layer1_3_MEMBER_214_1_STROKES" class="st5" d="M159.2,215h-1.3l-1.7,0.2c-3.4,0.7-5.9,2.8-7.5,6.2c-1.4,2.8-2,6.1-1.8,9.9
	l0.5,4.8c0.9,5.2,2.8,10.2,5.6,15.3c2.8,5,6.1,9.3,10.1,12.8l3,2.4"/>
<path id="Layer1_3_MEMBER_215_1_STROKES" class="st5" d="M171,274.1v8.7"/>
<path id="Layer1_3_MEMBER_216_1_STROKES" class="st5" d="M171.9,274.5v8.8"/>
<path id="Layer1_3_MEMBER_217_1_STROKES" class="st5" d="M169.8,273.4v8.6"/>
<path id="Layer1_3_MEMBER_218_1_STROKES" class="st5" d="M170.6,273.1v9.4"/>
<path id="Layer1_3_MEMBER_219_1_STROKES" class="st5" d="M171.9,274.5l0-0.2c0.3-0.7,0.8-0.9,1.6-0.8"/>
<path id="Layer1_3_MEMBER_220_1_STROKES" class="st5" d="M174.5,272.5c-0.3-0.3-0.8-0.4-1.3-0.4c-0.6,0-1.1,0.2-1.5,0.6
	c-0.4,0.4-0.6,0.9-0.7,1.5"/>
<path id="Layer1_3_MEMBER_221_1_STROKES" class="st5" d="M173.5,273.5l1.1,0.3"/>
<path id="Layer1_3_MEMBER_222_1_STROKES" class="st5" d="M170.6,273.1v-0.2c0-0.6-0.1-1.1-0.4-1.5c-0.3-0.5-0.7-0.8-1.2-1.1"/>
<path id="Layer1_3_MEMBER_223_1_STROKES" class="st5" d="M169,270.4l-2.4-1.4"/>
<path id="Layer1_3_MEMBER_224_1_STROKES" class="st5" d="M169.8,273.4v-0.2c-0.1-0.5-0.3-0.9-0.7-1.2l-0.2-0.1"/>
<path id="Layer1_3_MEMBER_225_1_STROKES" class="st6" d="M165.8,269.6l3.1,2.3"/>
<path id="Layer1_3_MEMBER_226_1_STROKES" class="st5" d="M161.3,277.2l17.2,9.9v-12.3"/>
<path id="Layer1_3_MEMBER_227_1_STROKES" class="st5" d="M163.9,268.7l-2.6,8.4"/>
<path id="Layer1_3_MEMBER_228_1_STROKES" class="st5" d="M180.5,285.9l-2,1.2"/>
<path id="Layer1_3_MEMBER_229_1_STROKES" class="st5" d="M180.5,285.9V275"/>
<path id="Layer1_3_MEMBER_230_1_STROKES" class="st5" d="M157.5,262.1l4,13.7"/>
<path id="Layer1_3_MEMBER_231_1_STROKES" class="st5" d="M191.2,270.5l0.8-0.5l2.6-2.4l0.9-1.3"/>
<path id="Layer1_3_MEMBER_232_1_STROKES" class="st5" d="M195.4,266.1l1.8,2.2L183.1,287"/>
<path id="Layer1_3_MEMBER_233_1_STROKES" class="st5" d="M180.6,285.6l2.5,1.4"/>
<path id="Layer1_3_MEMBER_234_1_STROKES" class="st5" d="M196.9,265.3l1.9,2.2l-14.1,18.6"/>
<path id="Layer1_3_MEMBER_235_1_STROKES" class="st5" d="M195.4,266.1l1.5-0.9"/>
<path id="Layer1_3_MEMBER_236_1_STROKES" class="st5" d="M198.7,267.5l-1.5,0.9"/>
<path id="Layer1_3_MEMBER_237_1_STROKES" class="st5" d="M184.6,286.1l-1.5,0.9"/>
<path id="Layer1_3_MEMBER_238_1_STROKES" class="st5" d="M211.7,258.6l1-0.8l1.2-1.3l0.9-1.3"/>
<path id="Layer1_3_MEMBER_239_1_STROKES" class="st5" d="M215.8,254.4l1.9,2.2l-14.1,18.6"/>
<path id="Layer1_3_MEMBER_240_1_STROKES" class="st5" d="M201.4,275.3l1,0.6"/>
<path id="Layer1_3_MEMBER_241_1_STROKES" class="st5" d="M217.1,253.7l1.8,2.2l-14.1,18.6"/>
<path id="Layer1_3_MEMBER_242_1_STROKES" class="st5" d="M214.6,255.1l2.4-1.4"/>
<path id="Layer1_3_MEMBER_243_1_STROKES" class="st5" d="M218.9,255.9l-1.3,0.7"/>
<path id="Layer1_3_MEMBER_244_1_STROKES" class="st5" d="M204.8,274.5l-2.4,1.4"/>
<path id="Layer1_3_MEMBER_245_1_STROKES" class="st5" d="M201.4,275.3v-10.8"/>
<path id="Layer1_3_MEMBER_246_1_STROKES" class="st5" d="M201.4,275.3l-15.1,8.7"/>
<path id="Layer1_3_MEMBER_247_1_STROKES" class="st5" d="M175.8,281.7c-0.3,0.2-0.6,0.1-1-0.1c-0.4-0.2-0.7-0.6-1-1.1
	c-0.3-0.5-0.4-1-0.4-1.4c0-0.4,0.1-0.8,0.4-0.9c0.3-0.2,0.6-0.1,1,0.1c0.4,0.2,0.7,0.6,1,1.1c0.3,0.5,0.4,1,0.4,1.4
	C176.3,281.2,176.1,281.5,175.8,281.7z"/>
<path id="Layer1_3_MEMBER_248_1_STROKES" class="st5" d="M157,261.7c-1,0.5-1.8,1.5-2.4,3c-0.6,1.6-0.5,2.8,0.4,3.5l0.2,0.1"/>
<path id="Layer1_3_MEMBER_249_1_STROKES" class="st5" d="M154.8,268l5.5,3.4"/>
<path id="Layer1_3_MEMBER_250_1_STROKES" class="st5" d="M156.5,261.3l-0.2,0.1l-0.5,0.4c-1,1-1.7,2.1-2.1,3.5l-0.1,0.6l0,0.6
	c0,0.6,0.1,1.1,0.4,1.5c0.3,0.5,0.7,0.7,1.3,0.8l0.5,0"/>
<path id="Layer1_3_MEMBER_251_1_STROKES" class="st5" d="M155.2,259.4l-0.3,0.1c-1.3,0.4-2.4,1.5-3.2,3.5c-0.9,2-0.8,3.4,0.4,4.3"/>
<path id="Layer1_3_MEMBER_252_1_STROKES" class="st5" d="M152.1,267.3l2.4,1.4"/>
<path id="Layer1_3_MEMBER_253_1_STROKES" class="st5" d="M154.1,260l1.7,1"/>
<path id="Layer1_3_MEMBER_254_1_STROKES" class="st5" d="M151.4,264.4l1.7,0.9"/>
<path id="Layer1_3_MEMBER_255_1_STROKES" class="st5" d="M155.7,261h0.6"/>
<path id="Layer1_3_MEMBER_256_1_STROKES" class="st5" d="M153,265.4l0.3,0.6l0.3,1.3v0.7"/>
<path id="Layer1_3_MEMBER_257_1_STROKES" class="st5" d="M153,265.4c1.2-1.3,2.1-2.8,2.7-4.4"/>
<path id="Layer1_3_MEMBER_258_1_STROKES" class="st5" d="M151.3,258.5c-0.7-0.4-1.5,0-2.2,1.2c-0.7,1.2-0.8,2.1-0.3,2.7"/>
<path id="Layer1_3_MEMBER_259_1_STROKES" class="st5" d="M148.9,262.6l2.3,1.5"/>
<path id="Layer1_3_MEMBER_260_1_STROKES" class="st5" d="M151.3,258.5l2.6,1.6"/>
<path id="Layer1_3_MEMBER_261_1_STROKES" class="st5" d="M152,259c-0.7-0.4-1.5,0-2.2,1.2c-0.7,1.2-0.8,2.1-0.3,2.7"/>
<path id="Layer1_3_MEMBER_262_1_STROKES" class="st5" d="M152.7,259.4c-0.7-0.4-1.5,0-2.2,1.2c-0.7,1.2-0.8,2.1-0.3,2.7"/>
<path id="Layer1_3_MEMBER_263_1_STROKES" class="st5" d="M153.4,259.9c-0.7-0.4-1.5,0-2.2,1.2c-0.7,1.2-0.8,2.1-0.3,2.7"/>
<path id="Layer1_3_MEMBER_264_1_STROKES" class="st5" d="M153.2,260.4l-0.2,0.1c-0.4,0.2-0.7,0.6-1.1,1.1s-0.5,1-0.6,1.4l0,0.3"/>
<path id="Layer1_3_MEMBER_265_1_STROKES" class="st5" d="M246.7,73.2l-6.3-3.7"/>
<path id="Layer1_3_MEMBER_266_1_STROKES" class="st5" d="M246.7,86.2l0-13"/>
<path id="Layer1_3_MEMBER_267_1_STROKES" class="st5" d="M239.6,90.3l-6.6-3.8"/>
<path id="Layer1_3_MEMBER_268_1_STROKES" class="st5" d="M239.5,77.3l-3.9-2.2"/>
<path id="Layer1_3_MEMBER_269_1_STROKES" class="st5" d="M239.6,90.3l0-13"/>
<path id="Layer1_3_MEMBER_270_1_STROKES" class="st5" d="M246.7,86.2l-7.2,4.1"/>
<path id="Layer1_3_MEMBER_271_1_STROKES" class="st5" d="M239.5,77.3l7.2-4.1"/>
<path id="Layer1_3_MEMBER_272_1_STROKES" class="st5" d="M244,76.5c0.3,0.2,0.5,0.6,0.5,1.1c0,0.5-0.2,1.1-0.5,1.7
	c-0.3,0.6-0.7,1-1.2,1.3c-0.5,0.3-0.9,0.3-1.2,0.1c-0.3-0.2-0.5-0.5-0.5-1.1c0-0.5,0.2-1.1,0.5-1.7c0.3-0.6,0.7-1,1.2-1.3
	C243.2,76.4,243.6,76.3,244,76.5z"/>
<path id="Layer1_3_MEMBER_273_1_STROKES" class="st5" d="M244,85.9c-0.3,0.6-0.7,1-1.2,1.3c-0.5,0.3-0.9,0.3-1.2,0.1
	c-0.3-0.2-0.5-0.6-0.5-1.1c0-0.6,0.2-1.1,0.5-1.7c0.3-0.6,0.7-1,1.2-1.3c0.4-0.3,0.8-0.3,1.2-0.1c0.3,0.2,0.5,0.6,0.5,1.1
	S244.3,85.4,244,85.9z"/>
<path id="Layer1_3_MEMBER_274_1_STROKES" class="st5" d="M236.4,71.8l4-2.3"/>
<path id="Layer1_3_MEMBER_275_1_STROKES" class="st5" d="M195.4,71.8l-1.5-2.1"/>
<path id="Layer1_3_MEMBER_276_1_STROKES" class="st5" d="M165.3,248.6c-0.3,0.2-0.6,0.1-1-0.1c-0.4-0.2-0.8-0.6-1.1-1.1
	c-0.3-0.5-0.4-1-0.4-1.4c0-0.4,0.1-0.8,0.4-0.9c0.3-0.2,0.6-0.1,1.1,0.1c0.4,0.2,0.7,0.6,1,1.1c0.3,0.5,0.4,1,0.4,1.4
	C165.7,248.2,165.6,248.5,165.3,248.6z"/>
<path id="Layer1_3_MEMBER_277_1_STROKES" class="st5" d="M175.8,242.7c-0.3,0.2-0.6,0.1-1-0.1c-0.4-0.2-0.7-0.6-1-1.1
	c-0.3-0.5-0.4-1-0.4-1.4c0-0.4,0.1-0.8,0.4-0.9c0.3-0.2,0.6-0.1,1,0.1c0.4,0.2,0.7,0.6,1,1.1c0.3,0.5,0.4,1,0.4,1.4
	C176.2,242.2,176.1,242.6,175.8,242.7z"/>
<path id="Layer1_3_MEMBER_278_1_STROKES" class="st5" d="M193.6,228.2c-0.3,0.2-0.6,0.1-1-0.1c-0.4-0.2-0.8-0.6-1.1-1.1
	s-0.4-1-0.4-1.4s0.1-0.8,0.4-1c0.3-0.2,0.7-0.1,1.1,0.1c0.4,0.2,0.7,0.6,1,1.1c0.3,0.5,0.4,1,0.4,1.4
	C194.1,227.7,193.9,228,193.6,228.2z"/>
<path id="Layer1_3_MEMBER_279_1_STROKES" class="st5" d="M204.2,222.2c-0.3,0.2-0.6,0.1-1-0.1c-0.4-0.2-0.8-0.6-1.1-1.1
	c-0.3-0.5-0.4-1-0.4-1.4c0-0.5,0.1-0.8,0.4-1c0.3-0.1,0.6-0.1,1,0.1c0.4,0.2,0.7,0.6,1,1.1c0.3,0.5,0.4,1,0.4,1.4
	C204.6,221.8,204.5,222.1,204.2,222.2z"/>
<path id="Layer1_3_MEMBER_280_1_STROKES" class="st5" d="M197,236.2c-0.1,0.5-0.1,1,0.1,1.5c0.2,0.5,0.5,0.9,0.9,1.2
	c0.4,0.3,0.8,0.4,1.2,0.2c0.4-0.1,0.6-0.4,0.8-0.9c0.1-0.5,0.1-1-0.1-1.5c-0.2-0.5-0.5-1-0.9-1.3c-0.4-0.3-0.8-0.4-1.2-0.2
	C197.4,235.4,197.1,235.7,197,236.2z"/>
<path id="Layer1_3_MEMBER_281_1_STROKES" class="st5" d="M209.2,233.5c0.4-0.1,0.6-0.5,0.8-0.9c0.1-0.5,0.1-1-0.1-1.5
	c-0.2-0.5-0.5-0.9-0.9-1.2c-0.4-0.3-0.8-0.4-1.2-0.2c-0.4,0.1-0.6,0.4-0.8,0.9c-0.1,0.5-0.1,1,0.1,1.5s0.5,1,0.9,1.3
	C208.4,233.5,208.8,233.6,209.2,233.5z"/>
<path id="Layer1_3_MEMBER_282_1_STROKES" class="st5" d="M158.4,235.9c0.2,0.5,0.5,0.9,0.9,1.2c0.4,0.3,0.8,0.4,1.2,0.2
	c0.4-0.1,0.6-0.5,0.8-0.9c0.1-0.5,0.1-1-0.1-1.5c-0.2-0.5-0.5-1-0.9-1.3c-0.4-0.3-0.8-0.4-1.2-0.2c-0.4,0.1-0.6,0.5-0.8,0.9
	C158.2,234.9,158.2,235.4,158.4,235.9z"/>
<path id="Layer1_3_MEMBER_283_1_STROKES" class="st5" d="M170.4,231.6c0.4-0.1,0.6-0.4,0.8-0.9c0.1-0.5,0.1-1-0.1-1.5
	c-0.2-0.5-0.5-1-0.9-1.3c-0.4-0.3-0.8-0.4-1.2-0.2c-0.4,0.1-0.6,0.5-0.8,0.9c-0.1,0.5-0.1,1,0.1,1.5c0.2,0.5,0.5,0.9,0.9,1.2
	C169.7,231.7,170.1,231.8,170.4,231.6z"/>
<path id="Layer1_3_MEMBER_284_1_STROKES" class="st5" d="M202.9,249.1c0-0.6-0.1-1.1-0.4-1.5c-0.3-0.4-0.7-0.6-1.1-0.6
	c-0.4,0-0.7,0.2-1,0.6c-0.3,0.4-0.4,0.9-0.4,1.5s0.1,1.1,0.4,1.5c0.3,0.4,0.6,0.6,1,0.6c0.4,0,0.8-0.2,1.1-0.6
	C202.7,250.1,202.9,249.6,202.9,249.1z"/>
<path id="Layer1_3_MEMBER_285_1_STROKES" class="st5" d="M213.4,243c0-0.6-0.1-1.1-0.4-1.5c-0.3-0.4-0.7-0.6-1.1-0.6s-0.7,0.2-1,0.6
	c-0.3,0.4-0.4,0.9-0.4,1.5c0,0.6,0.1,1,0.4,1.4c0.3,0.4,0.6,0.6,1,0.6s0.8-0.2,1.1-0.6C213.3,244.1,213.4,243.6,213.4,243z"/>
<path id="Layer1_3_MEMBER_286_1_STROKES" class="st5" d="M201.5,260.6c-0.3,0.5-0.6,0.9-1,1.1c-0.4,0.3-0.7,0.3-1,0.1
	c-0.3-0.1-0.4-0.5-0.4-1c0-0.5,0.1-1,0.4-1.4c0.3-0.5,0.6-0.8,1-1.1c0.4-0.2,0.7-0.3,1-0.1c0.3,0.2,0.4,0.5,0.4,1
	S201.8,260.1,201.5,260.6z"/>
<path id="Layer1_3_MEMBER_287_1_STROKES" class="st5" d="M212.3,254.7c-0.3,0.5-0.6,0.9-1,1.1c-0.4,0.3-0.7,0.3-1,0.1
	c-0.3-0.1-0.4-0.5-0.4-0.9s0.1-1,0.4-1.4c0.3-0.5,0.6-0.9,1-1.1c0.4-0.2,0.7-0.3,1-0.1c0.3,0.2,0.4,0.5,0.4,0.9
	C212.7,253.7,212.6,254.2,212.3,254.7z"/>
<path id="Layer1_3_MEMBER_288_1_STROKES" class="st5" d="M185.1,216.2c0.5,0.2,0.9,0.5,1.2,0.9c0.3,0.4,0.3,0.7,0.2,1
	c-0.1,0.3-0.4,0.5-0.9,0.5c-0.4,0-0.9-0.1-1.5-0.3c-0.5-0.2-0.9-0.5-1.2-0.9c-0.3-0.4-0.4-0.7-0.2-1c0.1-0.3,0.4-0.5,0.9-0.5
	C184.1,215.9,184.5,216,185.1,216.2z"/>
<path id="Layer1_3_MEMBER_289_1_STROKES" class="st5" d="M194.5,210.3l0.5,0.1c0.7,0.2,1.2,0.5,1.6,0.9l0.2,0.2l0.1,0.2
	c0.3,0.5,0.2,0.9-0.3,1.2l-0.4,0.1"/>
<path id="Layer1_3_MEMBER_290_1_STROKES" class="st5" d="M172.7,256.4c-0.1,0.3-0.4,0.5-0.9,0.5c-0.4,0-0.9-0.1-1.5-0.3
	c-0.5-0.2-0.9-0.5-1.2-0.9c-0.3-0.4-0.4-0.7-0.2-1c0.1-0.3,0.4-0.5,0.9-0.5c0.5,0,1,0.1,1.5,0.3c0.5,0.2,0.9,0.5,1.2,0.9
	C172.8,255.8,172.9,256.1,172.7,256.4z"/>
<path id="Layer1_3_MEMBER_291_1_STROKES" class="st5" d="M183.3,250.3c-0.1,0.3-0.4,0.5-0.9,0.5c-0.5,0-1-0.1-1.5-0.3
	s-0.9-0.5-1.2-0.9c-0.3-0.4-0.3-0.7-0.2-1c0.1-0.3,0.4-0.5,0.9-0.5c0.5,0,1,0.1,1.5,0.3c0.5,0.2,0.9,0.5,1.2,0.9
	C183.4,249.7,183.4,250,183.3,250.3z"/>
<path id="Layer1_3_MEMBER_292_1_STROKES" class="st5" d="M158.5,223c0.3-0.5,0.6-0.8,1-1.1c0.4-0.2,0.7-0.3,1-0.1
	c0.3,0.2,0.4,0.5,0.4,1c0,0.5-0.2,0.9-0.4,1.4c-0.3,0.5-0.6,0.9-1,1.1c-0.4,0.3-0.7,0.3-1,0.1c-0.3-0.2-0.4-0.5-0.4-1
	C158,224,158.2,223.5,158.5,223z"/>
<path id="Layer1_3_MEMBER_293_1_STROKES" class="st5" d="M189.6,83.3c0.6-0.2,1.2-0.4,1.5-0.7c0.4-0.3,0.6-0.6,0.5-0.9
	c-0.1-0.3-0.3-0.4-0.8-0.5c-0.5-0.1-1.1,0-1.7,0.1c-0.6,0.2-1.2,0.4-1.5,0.7c-0.4,0.3-0.6,0.6-0.5,0.9c0.1,0.3,0.4,0.4,0.9,0.5
	C188.4,83.5,189,83.5,189.6,83.3z"/>
<path id="Layer1_3_MEMBER_294_1_STROKES" class="st5" d="M187.7,85.2c0.2,0.6,1.1,0.7,2.5,0.4c1.5-0.4,2.2-0.9,2.1-1.6"/>
<path id="Layer1_3_MEMBER_295_1_STROKES" class="st5" d="M187.7,85.1l-0.5-2"/>
<path id="Layer1_3_MEMBER_296_1_STROKES" class="st5" d="M192.3,84.2l-0.6-2.3"/>
<path id="Layer1_3_MEMBER_297_1_STROKES" class="st5" d="M172.2,99.1c0.6-0.3,1.1-0.6,1.4-1c0.3-0.4,0.4-0.7,0.3-0.9
	c-0.1-0.3-0.4-0.4-0.9-0.4c-0.5,0-1,0.2-1.6,0.4c-0.6,0.3-1.1,0.6-1.4,1c-0.3,0.4-0.5,0.7-0.4,0.9c0.1,0.3,0.4,0.4,0.9,0.4
	C171,99.5,171.6,99.4,172.2,99.1z"/>
<path id="Layer1_3_MEMBER_298_1_STROKES" class="st5" d="M170.6,101.3c0.3,0.6,1.2,0.5,2.6-0.1c1.4-0.6,1.9-1.3,1.7-1.9"/>
<path id="Layer1_3_MEMBER_299_1_STROKES" class="st5" d="M170.6,101.2l-0.9-1.9"/>
<path id="Layer1_3_MEMBER_300_1_STROKES" class="st5" d="M175,99.5l-1-2.1"/>
<path id="Layer1_3_MEMBER_301_1_STROKES" class="st5" d="M159.6,112.3c-0.2-0.3-0.5-0.5-1.1-0.5c-0.5,0-1.1,0.2-1.6,0.5
	s-1,0.7-1.3,1.2c-0.3,0.5-0.3,0.9-0.1,1.2c0.2,0.3,0.5,0.5,1.1,0.5c0.5,0,1.1-0.2,1.6-0.5c0.5-0.3,0.9-0.7,1.2-1.2
	C159.8,113,159.8,112.6,159.6,112.3z"/>
<path id="Layer1_3_MEMBER_302_1_STROKES" class="st5" d="M156.7,116.6c0.5,0.7,1.3,0.7,2.5,0.1c1.2-0.6,1.7-1.4,1.6-2.2l-0.1-0.2"/>
<path id="Layer1_3_MEMBER_303_1_STROKES" class="st5" d="M156.9,116.8l-1.2-2"/>
<path id="Layer1_3_MEMBER_304_1_STROKES" class="st5" d="M160.8,114.2l-1.1-2"/>
<path id="Layer1_3_MEMBER_305_1_STROKES" class="st5" d="M144.7,132c0.5-0.4,0.8-0.9,1-1.3c0.2-0.5,0.1-0.9-0.1-1.2
	c-0.2-0.3-0.6-0.4-1.1-0.3c-0.5,0.1-1,0.3-1.5,0.7c-0.5,0.4-0.8,0.9-1,1.4c-0.2,0.5-0.1,0.9,0.1,1.2c0.2,0.3,0.6,0.4,1.1,0.3
	C143.7,132.7,144.2,132.4,144.7,132z"/>
<path id="Layer1_3_MEMBER_306_1_STROKES" class="st5" d="M143.5,134.2c0.6,0.6,1.4,0.5,2.5-0.4c1.1-0.9,1.5-1.7,1.2-2.4l-0.1-0.2"/>
<path id="Layer1_3_MEMBER_307_1_STROKES" class="st5" d="M143.7,134.3l-1.5-1.8"/>
<path id="Layer1_3_MEMBER_308_1_STROKES" class="st5" d="M147.1,131.2l-1.4-1.7"/>
<path id="Layer1_3_MEMBER_309_1_STROKES" class="st5" d="M132.3,151.1c0.3-0.5,0.5-1,0.5-1.5c0-0.5-0.2-0.9-0.5-1.2
	c-0.3-0.2-0.8-0.3-1.3-0.1c-0.5,0.2-0.9,0.5-1.3,1c-0.3,0.5-0.5,1-0.5,1.5c0,0.5,0.2,0.9,0.5,1.1c0.3,0.2,0.8,0.3,1.3,0.1
	C131.5,151.9,131.9,151.6,132.3,151.1z"/>
<path id="Layer1_3_MEMBER_310_1_STROKES" class="st5" d="M131.8,153.4c0.9,0.3,1.7-0.1,2.4-1.2c0.7-1.1,0.7-1.9-0.1-2.5"/>
<path id="Layer1_3_MEMBER_311_1_STROKES" class="st5" d="M131.6,153.3l-2-1.4"/>
<path id="Layer1_3_MEMBER_312_1_STROKES" class="st5" d="M134,149.7l-1.8-1.3"/>
<path id="Layer1_3_MEMBER_313_1_STROKES" class="st5" d="M121.5,171c0.3-0.5,0.3-1.1,0.3-1.6c-0.1-0.5-0.4-0.9-0.7-1
	c-0.4-0.2-0.8-0.1-1.3,0.1s-0.8,0.7-1.1,1.2c-0.2,0.6-0.3,1.1-0.2,1.6c0.1,0.5,0.3,0.9,0.7,1c0.4,0.2,0.8,0.1,1.3-0.1
	C120.9,171.9,121.2,171.5,121.5,171z"/>
<path id="Layer1_3_MEMBER_314_1_STROKES" class="st5" d="M121.4,173.3c0.9,0.1,1.7-0.4,2.1-1.5c0.5-1.2,0.3-2-0.5-2.5l-0.2-0.1"/>
<path id="Layer1_3_MEMBER_315_1_STROKES" class="st5" d="M121.2,173.2l-2.2-1"/>
<path id="Layer1_3_MEMBER_316_1_STROKES" class="st5" d="M123,169.3l-2-1"/>
<path id="Layer1_3_MEMBER_317_1_STROKES" class="st5" d="M112.8,193.7c0.1-0.6,0.1-1.1-0.1-1.6c-0.2-0.5-0.5-0.8-0.9-0.9
	c-0.4-0.1-0.8,0-1.2,0.4c-0.4,0.3-0.7,0.8-0.8,1.4c-0.1,0.6-0.1,1.1,0.1,1.6c0.2,0.5,0.5,0.7,0.9,0.8c0.4,0.1,0.8,0,1.2-0.4
	C112.4,194.8,112.7,194.3,112.8,193.7z"/>
<path id="Layer1_3_MEMBER_318_1_STROKES" class="st5" d="M113.2,196c0.9,0,1.5-0.7,1.8-1.9c0.2-1.3-0.1-2.1-1-2.3l-0.2,0"/>
<path id="Layer1_3_MEMBER_319_1_STROKES" class="st5" d="M113,196l-2.4-0.5"/>
<path id="Layer1_3_MEMBER_320_1_STROKES" class="st5" d="M114,191.8l-2.1-0.5"/>
<path id="Layer1_3_MEMBER_321_1_STROKES" class="st5" d="M105.6,215.4c0-0.6-0.1-1.1-0.4-1.5c-0.3-0.4-0.6-0.6-1.1-0.6
	c-0.4,0-0.8,0.2-1.1,0.6c-0.3,0.4-0.4,0.9-0.4,1.5c0,0.6,0.1,1.1,0.4,1.5c0.3,0.4,0.6,0.7,1.1,0.7c0.4,0,0.8-0.2,1.1-0.6
	C105.4,216.5,105.6,216,105.6,215.4z"/>
<path id="Layer1_3_MEMBER_322_1_STROKES" class="st5" d="M106.4,217.6c0.9-0.2,1.4-1,1.3-2.3c0-1.3-0.5-2-1.5-2h-0.2"/>
<path id="Layer1_3_MEMBER_323_1_STROKES" class="st5" d="M106.2,217.6l-2.4,0"/>
<path id="Layer1_3_MEMBER_324_1_STROKES" class="st5" d="M106.3,213.3l-2.2,0"/>
<path id="Layer1_3_MEMBER_325_1_STROKES" class="st5" d="M101.1,243.2c0.4-0.1,0.7-0.4,0.9-0.8c0.2-0.5,0.3-1,0.2-1.6
	c-0.1-0.6-0.4-1.1-0.7-1.4c-0.4-0.4-0.8-0.5-1.2-0.4c-0.4,0.1-0.7,0.4-0.9,0.8s-0.3,1-0.2,1.6c0.1,0.6,0.4,1,0.7,1.4
	C100.3,243.2,100.7,243.3,101.1,243.2z"/>
<path id="Layer1_3_MEMBER_326_1_STROKES" class="st5" d="M103.5,242.8c0.9-0.4,1.2-1.2,0.8-2.5c-0.3-1.3-1-1.8-1.9-1.7l-0.2,0"/>
<path id="Layer1_3_MEMBER_327_1_STROKES" class="st5" d="M103.3,242.8l-2.4,0.5"/>
<path id="Layer1_3_MEMBER_328_1_STROKES" class="st5" d="M102.4,238.6l-2.1,0.4"/>
<path id="Layer1_3_MEMBER_329_1_STROKES" class="st5" d="M98.6,267.5c-0.1,0.5,0,1,0.2,1.6c0.2,0.5,0.6,0.9,1,1.2
	c0.4,0.3,0.9,0.3,1.3,0.2c0.4-0.2,0.6-0.5,0.7-1c0.1-0.5,0.1-1-0.2-1.6c-0.2-0.6-0.6-1-1-1.2c-0.4-0.3-0.9-0.3-1.3-0.2
	C98.9,266.6,98.7,267,98.6,267.5z"/>
<path id="Layer1_3_MEMBER_330_1_STROKES" class="st5" d="M103.2,269.5c0.7-0.6,0.9-1.4,0.3-2.6c-0.6-1.2-1.3-1.6-2.2-1.3l-0.2,0.1"
	/>
<path id="Layer1_3_MEMBER_331_1_STROKES" class="st5" d="M103,269.6l-2.3,1"/>
<path id="Layer1_3_MEMBER_332_1_STROKES" class="st5" d="M101.3,265.6l-2.1,0.9"/>
<path id="Layer1_3_MEMBER_333_1_STROKES" class="st5" d="M219.6,86l0.9,2.2"/>
<path id="Layer1_3_MEMBER_334_1_STROKES" class="st5" d="M213.3,85.7l-0.2-0.1l-0.4-0.3l-0.3-0.3l-0.1-0.2"/>
<path id="Layer1_3_MEMBER_335_1_STROKES" class="st5" d="M220.5,88.2l0.1,0.2l0.2,0.2l0.4,0.3"/>
<path id="Layer1_3_MEMBER_336_1_STROKES" class="st5" d="M114.7,236.1c0,0.9,0.3,1.5,0.8,1.8c0.5,0.3,1.2,0.3,1.9-0.2
	c0.7-0.4,1.4-1.1,1.9-2.1c0.5-0.9,0.8-1.8,0.8-2.7c0-0.9-0.3-1.5-0.8-1.8c-0.5-0.3-1.2-0.2-1.9,0.2c-0.7,0.4-1.4,1.1-1.9,2
	C115,234.4,114.7,235.3,114.7,236.1z"/>
</svg>
