<?xml version="1.0" encoding="utf-8"?>
<!-- Generator: Adobe Illustrator 24.1.2, SVG Export Plug-In . SVG Version: 6.00 Build 0)  -->
<svg version="1.1" id="Ebene_1" xmlns="http://www.w3.org/2000/svg" xmlns:xlink="http://www.w3.org/1999/xlink" x="0px" y="0px"
	 viewBox="0 0 347 361" style="enable-background:new 0 0 347 361;" xml:space="preserve">
<style type="text/css">
	.st0{fill:none;stroke:#1D1D1C;stroke-width:0.45;stroke-miterlimit:5;}
	.st1{fill:none;stroke:#1D1D1C;stroke-width:0.2;stroke-miterlimit:5;}
	.st2{fill:none;stroke:#B1B1B1;stroke-width:0.45;stroke-miterlimit:60;}
	.st3{fill:#1D1D1C;}
	.st4{fill:#B1B1B1;}
	.st5{fill:none;stroke:#B1B1B1;stroke-width:0.5;stroke-miterlimit:5;}
	.st6{fill:none;stroke:#B1B1B1;stroke-width:0.45;stroke-miterlimit:5;}
	.st7{fill:none;stroke:#B1B1B1;stroke-width:0.25;stroke-miterlimit:5;}
	.st8{fill:none;stroke:#1D1D1C;stroke-width:0.45;stroke-miterlimit:60;}
	.st9{fill:none;stroke:#1D1D1C;stroke-width:0.25;stroke-miterlimit:5;}
	.st10{fill:none;stroke:#1D1D1C;stroke-width:0.3;stroke-miterlimit:5;}
	.st11{fill:#0099FF;}
	.st12{fill:none;stroke:#999999;stroke-miterlimit:5;}
	.st13{fill:#CCCCCC;}
	.st14{fill:#666666;}
	.st15{fill:#999999;}
	.st16{fill:none;stroke:#1D1D1C;stroke-width:0.5;stroke-miterlimit:5;}
</style>
<path id="Layer1_0_1_STROKES" class="st0" d="M164.5,76.4l-0.5,0.1l-0.4,0.1l-0.8,0.3l-0.4,0.2 M14,83V37 M49.5,83V35.7"/>
<path id="Layer1_1_1_STROKES" class="st1" d="M165,76.4v0.2l0.1,0.1h0.1v-0.1l0.1-0.1v-0.1l-0.1-0.1L165,76.4L165,76.4z"/>
<path id="Layer1_2_1_STROKES" class="st2" d="M202.3,16.3h-0.6h-0.2l-0.2,0.2l-0.1,0.2v0.4l0.1,0.1v0.2l-0.1,0.2v2.6h-2.6v0.6
	l-0.1-0.1l-0.5-0.3h-0.2l-0.3-0.1H197h-0.6l-0.7,0.2l-0.4,0.2l-0.4,0.5l-0.2,0.5l-0.2,0.7v1.2h-1.4l-1.8,2.2h-1.8v-1.5h-0.2v-0.2
	l-0.1-0.2l-0.1-0.1h-2.8l-7.1-6.9l-0.4-0.6v-4.2h-0.5v1.8v53.7h0.4v-1.1h3.9l0.1-0.1h0.1l0.1-0.1l0.1-0.1v-0.4h0.3v-1.4l0.1-0.1h0.1
	v-0.2l0.1-0.2l1.9-1.1l0.1-0.2l0.1-0.2v-7.7l-0.1-0.2l-0.1-0.2l-1.1-0.6l3.8-3.6l0.5-0.3l0.5-0.2l2.1-0.1h0.2l0.1-0.1h0.6v-2.5
	l0.2-0.2h1.1v1.8l-0.2,0.2l0,0v0.7h0.5v0.2l-0.1,0.1V50l0.1,0.2v0.2l0.1,0.1h0.5l0.2-0.1v-0.2v-0.1v-0.3v-0.1v-0.2h0.4v-0.7H195
	l-0.1-0.1l-0.1-0.1v-2.5h0.2v-1h1.6v-1.5V32v-1.6h-1.4v-0.9H194v-0.7h-1.6l-0.2-0.3v-0.7l0.8-0.3h5.1h0.2l0.2,0.2l0.1,0.1v0.7h2.9
	v-4.3h0.1v-1.4h1.1v-1.6l0.1-0.1L203,21v-0.4l-0.1-0.2l-0.1-0.1V20h-0.1v-2.6l-0.1-0.2V17l0.1-0.1v-0.4l-0.2-0.3L202.3,16.3z
	 M196.8,43.6h2.3l3.4,0.9l0.7,0.4l0.6,0.5l0.4,0.5v3.9h1.4v-4.1l0.1-0.1l0.2-0.1h0.3l0.1-0.1V30.1l-0.1-0.1h-0.5l-0.1-0.1v-4.1h-1.4
	v3.9l-0.4,0.5l-0.6,0.5l-0.7,0.4l-3.1,0.9l-2.6,0.1 M178.4,13.9h-4.2V8.8l-0.1-0.2H174l-0.1-0.1h-13.5l-0.2,0.1v0.1v1.2H157V8.8
	h-1.3v1.3h-1.1v6.3v6.9v2.4h-0.4V31v12.5V45h-6.1v27.1h9.9l3.6,4.3v1.8l-0.1,0.2l-0.1,0.3l-0.2,0.9v0.6l0.1,0.5l-0.2,0.1L161,81v0.2
	l0.1,0.1l0.2,0.2l0.3,0.2h0.2l0.6,0.6l0.4,0.3L164,83l0.4,0.1l0.1-0.1h0.5l1-0.4l0.7-0.4l0.4-0.6h0.1l0.2-0.1l0.1-0.1l0.2-0.3
	l0.1-0.2l-0.1-0.4l-0.1-0.1l0.1-0.5l0.1-0.1l0.2-0.1l0.1-0.1h0.5l0.2-0.1l0.1-0.1l0.1-0.1l0.1-0.1V79l-0.1-0.1l-0.1-0.1l-0.1-0.1
	l-0.3-0.1l-0.1,0.1l-0.2,0.1l-0.1,0.1L168,79l-0.1,0.1h-0.2l-0.1-0.1l-0.1-0.1l-0.1-0.1l0.2,0.8 M154.5,16.4h-10.6v-0.3l-0.1-0.1
	l-0.1-0.1h-1.6L142,16l-0.1,0.1v0.3h-0.8v0.4h-3.3v1.4h-5l-0.1,0.1v0.1v0.1h-4.4l-0.1,0.2v2.7l0.1,0.1v0.8h0.7v1.3h1.9v-1.1h0.2v0.1
	h2.1l0.6-0.9h1.1V23h1.3v-1.3h1.1l0.2,0.2h0.2v1.2h3.2v0.7l0.2,0.1v1.4l0.3,0.4l-0.1,0.8v0.2l0.3,0.4h2.1l0.2-0.4v-0.3v-0.7l0.3-0.4
	v-1.4l0.1-0.1v-0.5h9.8 M141.6,26.6h-0.3v0.2h-0.2v2.4h0.2v0.1h-0.8v3h-0.1v0.5h-2.1v0.6h-0.2h-0.2l-0.8,0.2h-0.2l-0.5,0.1l-2.5,0.5
	l-0.7,0.2h-0.4v-0.2h-0.1h-1.1v1.1h-0.5v-2.8h-3v2.8h0.2v0.2h-5.5v4.6v0.2h0.2h5.2v0.2h4.3v0.9h0.5l1.8,0.2h1.4l1.9-0.2v0.4h6.1v0.3
	h0.9v-1.4h1.4v1.9h0.3l0.1,0.1l0.4-0.1h0.3l0.4-0.1l0.1-0.2v-0.5h1.4v1.4h1.8v-1h0.2l0.2-0.1h0.8l0.2,0.2v0.9l0.1,0.2l0.1,0.1h0.9
	l0,0h0.2 M154.2,31.1h-0.2v0.2h-0.4l-1.2,0.8l-0.2,0.2l-0.1,0.2l-0.1,0.1v0.3h-0.2v-0.1l-0.1-0.4h-0.2v-1h-1.8v1.3h-2v-0.5h-0.1v-3
	H146v-2.5l-0.1-0.1l-0.2-0.1l-1.1-0.2h-0.4 M164.5,76.4l0.4,0.1l0.8,0.2l0.8,0.4l0.6,0.6l0.2,0.3v0.1v-1.7l5.8-6.8h3v3.8h1.7v-3.8
	h0.4l0.1-0.1v-0.1l0.1-0.1v-1.7 M167.8,78.7l-0.1-0.4l-0.2-0.2V78l0.2,0.2 M145.3,42.2v2.6h-2.4V45h-0.4l-0.1-0.1h-0.3v-0.1h-10.6
	v-0.2h-3.1l-0.8,0.1l-2.6-0.2l-1-0.2l-0.9-0.4L122,43h-3.7l0.6-1.3l-1.9-0.8l-0.6,1.6h-3.8l-0.6,0.2l-0.3,0.2l-0.4,0.5l-0.1,0.8
	l-0.5-0.1l-0.4-0.4v-3.9l2.3-1.2h3V28.2h3.2v-7.5h-18.4l0.1,5.1h5l-0.1,3.7l-2-0.1l-0.6-0.2l-0.9-0.2H99v-1l-0.1-0.1h-1.8L97.1,28v1
	h-0.8v-0.4l-0.9-0.1l0.3-1.4l0.1-0.1v-0.2h-0.1l-0.4-1.6L95.1,25l-0.3-0.2l-0.1-0.1h-0.1l-0.1-0.1l1.3-0.6v0.2l0.7-0.3l0,0l-0.6-1.4
	l-0.7,0.3l0.1,0.2l-1.8,0.9v0.3l-0.1,0.1l-0.1,0.1l-0.1,0.1H93h-1.9L91,24.6l-0.1,0.1l-0.1,0.2V25l-7.2,0.4h-0.2h-0.1v4.3h0.2
	l0.7,0.1v0.5l0,0l-0.4,0.4l-0.4,0.6l-0.3,0.5h-0.7v0.1v0.2l-1.5,0.6l-1.2,0.9l-0.2-0.2h-0.1V33h-0.9v0.8h-1.8L76.2,34l-0.1,0.1h-0.4
	h-0.1l-1.2-0.5h-0.1L74.1,34l-7.7-1.4l-0.3-0.1h-9.3v-0.1h-1v0.1h-5.2v-0.3h-1.3v0.3H49v-0.1h-0.9v0.1h-1.2l-0.5-0.1l-1.2-0.1
	l-3.4-1.1h-0.2l-0.2-0.1l-1.6-0.3l-7.5-0.1v-0.3l-0.1-0.1l-1-0.2h-2.8l-1.1,0.2l-0.1,0.1v0.3h-3.2L22,31l-0.7,0.3l-0.1,0.2l-0.4,0.1
	L20,32.2l-0.1,0.2l-0.2,0.2v-0.8l0.3-0.2l0.1-0.1v-0.2l0,0v-0.1l-0.5-0.3l0,0h-0.8l0,0l-0.5,0.3v0.1v0.2v0.1l0.3,0.2v2.4l-0.3,0.7
	l-0.4,1.4v0.5l0,0v0.3l-0.2,0.1l-1.1,0.4V38l0,0l0.1,0.1v0.2h0.1h-2.3h-0.1v-0.1h-0.3l0,0v-1.1h-0.5v44.4v1.6h0.5V82v-0.1h0.2l0,0
	h1.2v1.3h1.6l-2,1.8L15,85.1l-0.3,0.3v0.1v0.1v0.1v0.1h0.7l0.3-0.2l2.4-1.4l0.3-0.3v0.4h0.2v0.2h0.1v0.1l-0.1,0.1v0.8l0.1,0.1v0.1
	l0,0v0.1v0.1h-0.1v0.3v0.1v0.1v0.5V87h-0.2v0.5h0.4l0.1,0.3l0.4,0.6l0.3,0.4l0.3,0.2l0.3,0.1h0.3H21l0,0l0.2-0.1l0.1-0.1h1.5l20-1.5
	l0.8,0.8l0.3,0.2l1,0.4l1.6,0.4l2,0.2h0.8l0.3,0.1h1.7v-0.4l0.2,0.1l0.5,0.2h0.1v0.2h0.2v2.3h4.2v-0.8h8.6v-3.6h3l0.3-0.1l0.4-0.1
	l0.2-0.1h4.2v1.4h4.4V88l0.5,0.1l1.5,1.9l-0.5,0.4l0.7,0.8l0.2-0.1v3.7h0.2l0.2-0.4l0.1-0.1h1.2l1.1-0.2v1.2l0.2,0.3l0.2,0.1
	l0.4,0.1h0.6l0,0v0.4l0.1,0.1l0.1,0.2h3.2l0.2-0.1v0.1h0.7l0.1-0.1h0.2l0.2-0.1h0.3v-1.1l0.7,0.1h0.1l0.5,0.4v-0.1l0.1-0.1l0.1-0.1
	l0.1-0.2L91,95l0.2-0.4l0.2,0.2l0.4,0.1l0.4,0.1l0.4,0.1l0.8-0.1l0.4-0.1l0.3-0.1l0.4-0.2l0.1-0.1H95l0.1-0.1l0.2-0.2l0.1-0.1v-0.3
	l-0.1-0.1v-0.3l0.1-0.4l0.1-0.6l-0.1-0.7l3.3-0.8l0.2,0.2l0.2,0.1h0.1l0.2-0.1l0.2-0.1l0.4-0.6l2.8-0.8h2.6l0.2-0.1h0.2l0.6-0.2
	l0.8-0.4l0.9-0.1l0.5-0.8l0.2-0.6V87v-4.4l0.1-0.2L109,82l0.1-0.2l0.2-0.2l0.1-0.1v1.4V83v0.1l0.1,0.2l0.1,0.2l0.1,0.1l0.5,0.4
	l0.5,0.2l0.2,0.1l-1.9,1l0.1,0.4l38.9-9l-0.1-0.3l-2-0.1l-0.1-0.6l-2,0.4l-0.4-2.2h1.8v0.2h1.3v-0.3V43.1v-0.4 M148.1,45v-1.6h-0.8
	V43h-0.6 M146.8,73.8h0.6v-0.2h0.8v-1.5 M31.1,33.9h0.2l0.3,0.2l0.8,0.2l4.3,0.8h1.2l0.9,0.1v0.1v0.1l1,0.1l0.2,0.2h0.2v0.1
	l-0.4,0.4l-0.1,0.1v0.2l-0.2,0.2l-0.5,1.4v0.2l-0.2,0.1l-0.4,0.2L38.2,39l-0.2-0.2v0.4v0.2l0.1,0.2l0.1,0.2l0.2,0.2l0.7,0.3v0.4
	l0.1,0.1l0.2,0.1h0.2v0.8h-3.9l-8.3-3.6L26.9,38h-5v0.2h-0.2l0.1-0.1v-0.2l-0.2-0.1l-0.3-0.2v-0.8h-0.2l0.1-0.1l1.5-0.4l0.3-0.2
	l0.2-0.1l1.7-1.4h0.2v-0.1h0.2v-0.1h-0.1l0.4-0.4v-0.2l0.7-0.4h0.1l-0.1-0.1l0.2-0.1h0.1h0.5v0.3l0,0l0.1,0.1l1.1,0.2L31.1,33.9
	l1.1-0.3l0.1-0.1v-0.3h0.2h7l1.7,0.2l0.8,0.2l1.4,0.6l0.3,0.1l0.8,0.2l2,0.2h2.7v0.1h1.3v-0.1h0.9h14l0.5,0.1l6.6,1.3l-0.1,0.1
	L72.1,37l-1,3.1l0,0l-0.2,0.1l-0.2,0.3l-0.2,0.7l0.1,0.2l0.1,0.1l0.1,0.2l0.2,0.1l0.2,0.1h0.2h0.2l0.3-0.1l0.1-0.1H72l0.4,0.2v0.5
	v0.1l-0.1,0.1h-1.2l-0.1-0.2l-1.3-3l-0.6-0.7l-0.3-0.3l-0.6-0.6l-1.1-0.6L65.8,37H54.1v-0.2l-0.2-0.2l-0.7-0.3h-0.1h-0.5h-0.2
	l-0.8,0.3l-0.1,0.2V37H50l-0.1-0.1h-0.4v-0.1v-1.2h-0.2v0.2h-0.2V37v46v1.2h0.2v0.1h0.2v-1.2V83h0.4v-0.1h16.3l0.4-0.1l0.8-0.3
	l0.8-0.4l0.4-0.3l0.6-0.6l0.2-0.4l0.2-0.4l1.3-3.1l0.1-0.1l0.1-0.1H72 M43.7,34.4l-2.2-0.2L41.2,34H40h-0.1l-0.1,0.1L36.1,34
	l-3.8-0.8 M51.5,34.9v0.5l0,0v-0.1h-2.6v0.1l-6.3-0.3l-0.1,0.3h-0.1h-1l-0.1,0.1h-0.1v0.3h0.2l0.1,0.1l0,0l0.2,0.1v0.9l0.6-0.3
	l0.4-0.2h1.2l0,0l0.1-0.1H44l0.1-0.1l0.2-0.1h0.2l0.1,0.1l0,0l0.1,0.1l0.2,0.2l0.1,0.1v1.2l0.2-0.2l0.3,0.3l0.2,0.1l0.7,0.9V39
	l1.5-1.1l0.3-0.3l0.1-0.2v-0.2l0.2-0.1h0.4L49,37 M13.5,37v-3.5h-0.2v5.4l-0.7,0.4h-0.9v0.1h-0.6l-0.6-0.2l-0.1-0.3h-0.2v0.4H10
	v41.4h0.2v0.4h0.2l0.1-0.3l0.1-0.1l0,0l0.4-0.1h0.5v0.1h0.9l0.8,0.4l0.1,0.3 M26.9,82h-5v-0.1h-0.2h-0.5v1.3l0.2,0.1l0.2,0.1v0.1
	l0.1,0.1v0.1l-0.1,0.1v0.1L21.4,84h-0.6v0.3h-0.2v0.2h-0.1v0.1l0.1,0.1v0.8l-0.1,0.2v0.1v0.1l0,0v0.4v0.1v0.5V87h0.2v0.5h-0.1
	l0.2,0.2l0.2,0.1l0,0h0.4l0.1,0.1h1.6l19.7-1.5l-0.2-0.9v-0.6L41.5,85v0.1l-0.1,0.1v0.2v0.1l-0.2,0.4V86l-0.3,0.2l-0.2,0.1h-0.2
	l-0.2-0.1h-0.1L39.9,86l-0.1-0.2l-0.4-0.7V85l-0.1-0.1v-0.3l0.1-0.2l0.3-0.4l0.2-0.1l0,0v-0.5h-0.1V83l0.1-0.1l0,0v-0.2l-0.2,0.1
	v-0.6h-0.2l-0.9-0.3l-0.4-0.2l-0.1-0.1H38l0.1-0.1l-0.1-0.2L38,81.2v-0.1v-0.4v-0.1l0.2-0.3l0.2-0.1l0.1-0.1l0.2-0.1l0.1-0.1
	l0.8-0.3h0.2v-1.2h-4L27.5,82L26.9,82z M77.2,56L77.2,56L77.2,56l-0.1,0.3h0.1v0.1h0.1v0.1l0,0l0.1,0.1l0,0h0.1h0.2l0,0h0.1v-0.1
	l0,0v-0.1h0.1l0,0v-0.1V56l-0.1-0.2h-0.1h0h-0.2v0.1L77.2,56L77.2,56L77.2,56L77.2,56z M76.8,55.9L76.8,55.9v0.2v0.1v0.1v0.2
	l0.1,0.1l0.1,0.1h0.1l0,0l0.1,0.1l0.1,0.1h0.1l0.1,0.1l0,0l0.1-0.1h0.1h0.1l0.2-0.1l0.1-0.2l0.1-0.1l0,0l0.1-0.1v-0.1V56v-0.1v-0.1
	l-0.1,0l-0.1-0.1L78,55.5l-0.1-0.1h-0.1v-0.1h-0.5l-0.1,0.3h-0.1L77,55.7v0.1L76.8,55.9L76.8,55.9z M77.1,56.7L77.1,56.7 M77.1,56.8
	L77.1,56.8v0.3l0,0l-0.4,0.8V58h-0.1v0.1l0,0v0.1h-0.1v0.1h-0.2l0.5,0.1l0.1,0.1v-0.2l0,0v-0.2l0,0V58l0.3-0.9h0.1l0,0h0.1V57h0.1
	v-0.1h0.2 M76.8,58.5L76.8,58.5l0.2,0.1l0.2,0.2V59l0.2,0.3l0.1,0.3v0.5l-0.1,0.3v0.2l0,0.2L77.4,61l-0.1,0.1l-0.1,0.1l-0.3,0.2v0.2
	l0,0v0.2l0,0v0.1l0.3,0.9h0.1l0,0l0.1,0.1l0,0h0.1V63h0.1h0.2h0.1c0.3,0,0.4-0.1,0.4-0.3v-5.2c0-0.3-0.2-0.5-0.5-0.5h-0.1
	 M76.8,56.1v-0.2c0-0.3-0.1-0.4-0.4-0.4h-1.5c-0.3,0-0.4,0.1-0.4,0.4V56v0.3l-0.1,0.1v0.1l0,0l-0.1,0.1v0.1l0,0v0.1h-0.1v0.1h0.1V57
	l0.7,1.1v0.1h0.1v0.1h0l0,0h0.3l0.3-0.1h0.4l0.2,0.1 M77.8,55.4h0.5V56 M74.6,56L74.6,56l-0.1-0.2v-0.1l-0.1-0.1l-0.2-0.1h-0.1
	L74,55.4h-0.4l-0.1,0.1l-0.2,0.2h-0.1v0.1v0.1h-0.1v0.5l0.1,0.1l0,0v0.1l0.1,0.1v0.1h0.2l0.1,0.1h0.2l0.1,0.1h0.1l0.1-0.1h0.1h0.1
	h0.1h-0.2l0.2-0.2v-0.1 M73.5,56L73.5,56l-0.1,0.2v0.2h0.1v0.1l0.2,0.2l0,0h0.1h0.2l0,0H74v-0.1h0.1v-0.1h0.1l0,0l0,0v-0.1l0.1-0.1
	v-0.1h-0.2v-0.1L74,55.9l0,0v-0.1h-0.3v0.1L73.5,56L73.5,56L73.5,56L73.5,56L73.5,56z M73.8,57L73.8,57c-0.3,0-0.3,0.1-0.3,0.2v1
	v3.6v0.8c0,0.2,0.1,0.3,0.3,0.3h0.2h0.2l0.1-0.1l0,0l0,0h-0.1v0l0.7-1.2v-0.2v-0.1l-0.2-0.1l-0.3-0.4l-0.2-0.7v-0.3l0.2-0.5l0.1-0.2
	v-0.2l0.2-0.1l0.1-0.2l0.1-0.1l0,0v-0.3l-0.7-1.1V57l0,0l0,0h-0.1v-0.1H74v-0.1 M78.3,56.4v7.2V64v0.6h-0.6h-0.3h-3.5h-0.3h-1v-2.8
	v-3.6v-2.8h0.9 M75.2,58.8l-0.4,0.4l-0.1,0.1l-0.1,0.1l-0.1,0.2v0.1v0.1v0.4v0.2v0.1l0.1,0.2l0.1,0.1l0.1,0.1l0.1,0.1l0.1,0.2h0.1
	l0.1,0.1l0.2,0.1l0.1,0.1h0.2h0.4h0.2h0.2l0.1-0.1l0.1-0.1l0.2-0.1l0.1-0.1l0.2-0.2l0.1-0.1l0.1-0.1v-0.1l0.1-0.1l0.1-0.1v-0.3
	l-0.4-0.3v-0.2l-0.1-0.2v-0.1l-0.1-0.1L77,59.1L76.9,59l-0.2-0.1l0-0.1l-0.1-0.1l-0.2-0.1h-0.1h-0.7L75.2,58.8L75.2,58.8z
	 M75.5,58.3l-0.3,0.1L75,58.6 M74.8,58.6L74.8,58.6 M74.3,62.9l0.7-1.1v-0.1h0.1v-0.1h0.1l0,0h0.2l-0.2-0.1l-0.1,0L75,61.4l-0.1-0.1
	 M73.7,63L73.7,63l-0.2,0.1l-0.2,0.2l-0.1,0v0.1l-0.1,0.1v0.6h0.1v0.1l0,0l0.1,0.1l0.1,0.1h0.1l0.1,0.1h0.1v0.1 M73.5,63.5
	L73.5,63.5L73.5,63.5L73.5,63.5l-0.1,0.3l0.1,0.1V64l0,0v0.1h0.1l0,0h0.1v0.1H74v-0.1l0,0l0.2-0.2v-0.1h0.1v-0.1h-0.1v-0.1l0,0l0,0
	l-0.1-0.1H74l-0.1-0.1h-0.2h-0.1l0,0L73.5,63.5L73.5,63.5L73.5,63.5z M74,64.5L74,64.5l0.2-0.1l0.1-0.1l0.2-0.2l0,0V64l0.1-0.1v-0.4
	h-0.1v-0.1v-0.1l-0.2-0.2L74.2,63L74,62.9h-0.1l-0.1-0.1 M72.7,61.8h0.8 M73.3,58.2h-0.8 M76.8,58.5L76.8,58.5 M74.6,64
	c0,0.3,0.2,0.4,0.4,0.4h1.5c0.3,0,0.4-0.1,0.4-0.4v-0.2v-0.1v-0.1v-0.2l0.1-0.1v-0.1l0.1-0.1h0.1V63l0,0v-0.2l0,0l-0.4-0.9l0,0h-0.1
	v-0.1l0,0v-0.1h-0.1l-0.1-0.1l0,0h-0.3L76,61.7l-0.2-0.1h-0.1h-0.2 M76.8,61.4l-0.3,0.2h-0.2 M77.1,63.2L77.1,63.2 M77.1,63.2
	L77.1,63.2l0.2-0.2h0.2l0.1-0.1 M77.2,63.6v0.2h0.1v0.1h0.1V64l0,0h0.1v0.1h0.3l0.2-0.2v-0.1l0,0v-0.3l0,0l0,0l-0.1-0.1l0,0v-0.1
	h-0.1l0,0h-0.2h-0.1l0,0l-0.1,0.1l0,0v0.1L77.2,63.6z M78.3,63.6L78.3,63.6L78.3,63.6l-0.1-0.2l-0.1-0.1l-0.1-0.2H78L77.9,63h-0.1
	l0,0l-0.1-0.1 M74,55.4h3.4 M49,83h-0.5l-0.2-0.2v-0.2l-0.1-0.3l-0.2-0.2L46.4,81 M77.8,64.5L77.8,64.5l0.2-0.1v-0.1H78l0.2-0.2l0,0
	l0.1-0.1v-0.1 M76.8,63.8L76.8,63.8v0.3l0.1,0.1l0.1,0.1l0.1,0.1h0.1l0.1,0.1h0.1v0.1 M77.1,56.8L77.1,56.8 M74.8,58.6L74.8,58.6
	 M76.8,58.5L76.8,58.5 M77.1,63.2L77.1,63.2"/>
<path class="st3" d="M167.3,77.9l-0.2-0.3l-0.6-0.6l-0.9-0.4l-1.2-0.2l-0.3,0.1l-0.9,0.2l-0.8,0.4l-0.2,0.2v0.1l-0.9,1.1l0.1,2.1
	l-0.1,0.4l0.2,0.6l1.7,1.2l0.9,0.2h1l1-0.4l1.5-0.9l0.4-0.6l-0.1-1l0.2-0.3l-0.2-0.4l-0.1-0.4v-0.2l-0.2-0.2l-0.2-0.5L167.3,77.9z"
	/>
<path id="Layer1_5_1_STROKES" class="st2" d="M195.3,163.5c0.9,0.5,1.4,1.3,1.6,2.5l0.1,0.2l0.2,0.5l0.2,1.1v1.3l-0.2,1.4l-0.2,0.7
	l-1.1,2.8l-1.3,1.9l-1,1.1l-1,0.9l-1.1,0.7l-0.5,0.2l-1.1,0.2c-1.3,0.5-2.4,0.5-3.3,0l-0.9-0.5v0.3l0.6,1.2l0.8,0.9l0.5,0.3l0.5,0.2
	l0.4,0.1l0.2,0.1h0.6l0.8-0.1l0.5-0.1l0.7-0.2l0.1-0.1l1.2-0.6l0.1-0.1l0.7-0.4l0.4-0.3l1-0.8l0.7-0.7l0.2-0.2l0.8-1.1l-0.4-0.3
	l0.8-1.2l1.4-2.7l0.5,0.2l0.5-1.3l0.1-0.4l0.2-0.8v-0.1l0.2-1.2l0.1-0.6v-0.8l-0.1-1.4v-0.2l-0.2-0.7l-0.1-0.3l-0.6-0.8l-0.2-0.3
	l-0.1-0.2l-0.5-0.4l-0.5-0.3l-0.5-0.2l-0.6-0.1l-1.3-0.2l-0.6,0.2l-0.3,0.1L195.3,163.5z M199.3,165.2l2.9,1.5l-0.4-0.8l-0.3-0.4
	l-2.8-1.5 M197.6,163.1l3,1.7l0.5,0.3l0.4,0.3l0.6,0.2l3.7,2.1l0.4,0.4l0.1,0.1l0.3,0.4l0.3,0.6l0.1,0.2l0.2,0.4l0.1,0.4l0.4,0.2
	l0.4,0.3l0.4,0.4l0.6,1.6l0.1,1.4l-0.1,1.5l-0.6,2.4l-1.5,3.2l-2.1,2.7l-1.2,1l-1.2,0.8l-0.5,0.2l-0.7,0.2l-1.1,0.2h-0.5l-0.5-0.2
	l-0.4-0.2l-0.3,0.1l-0.5,0.1h-0.1h-0.6h-0.6l-0.2-0.1l-0.3-0.1l-0.6-0.2l-3.2-1.8l-0.7-0.6l0,0l-0.3-0.1l-0.6-0.2l-2.9-1.7
	 M199.7,166.4l2.9,1.6l-0.2-0.9l-0.2-0.5 M201.5,165.5L201.5,165.5l-0.1-0.1 M199.7,169.2l3,1.6l0.1-1.3l-3-1.6 M202.7,169.4
	l-0.1-0.8l-0.1-0.6 M196.9,166c0.1,0.5,0.1,1,0.1,1.5c0,2-0.6,4-1.8,6.2c-1.2,2.1-2.6,3.7-4.3,4.8c-0.4,0.2-0.7,0.4-1.1,0.6
	 M199.5,170.5l2.9,1.6V172l0.2-0.9v-0.3 M199.2,171.7l2.9,1.6l0.1-0.4l0.2-0.9 M201.2,174.4l-0.1,0.2l-1.4,2.7l-0.8,1.1l0.5,0.3
	l1,0.6l0.8-1.1l1.4-2.7v-0.2l-1-0.5L201.2,174.4l-2.4-1.3 M201.7,174.6l0.4-1.3 M206.3,168.1l-3.3-1.8l0.3,0.4l0.3,0.6l0.1,0.2
	l3.2,1.8 M202,165.5l0.9,0.8h0.1 M207.3,170.6l-3.2-1.7l0.1,1.3l0,0l3.2,1.8l-0.1-0.8V170.6l-0.1-0.5 M203.7,167.5l0.2,0.4l0.2,0.7
	v0.2 M204.2,170.2v0.8l-0.1,0.6l3.2,1.8l0.1-1.4 M204.2,171.6v0.3l-0.1,0.9v0.1l3.2,1.8l0,0l0.2-1v-0.3 M203.2,175.4l2.7,1.5
	l0.5,0.3l0.5-1.2l-3.2-1.8L203.2,175.4L203.2,175.4l-0.5-0.2 M206.9,176l0.3-1.2 M204,172.9l-0.3,1.2 M200.4,179.2l0.5,0.3l2.7,1.5
	l0.2-0.3l1.5-2.6l0.4-0.9l0.1-0.2 M203.7,181l0.5,0.3l-0.4,0.6l-0.5,0.5l-0.9,0.9l-0.6,0.6l-0.4,0.3l-1,0.7l-0.1,0.1l-1.2,0.6h-0.2
	l-0.4,0.1 M195.7,178.1l2.9,1.6l0.9-1 M192,183.8l0.9,0.3h0.2l1.2,0.1h0.2l1.2-0.3l0.1-0.1l1.3-0.6l0,0l1.1-0.8l1-0.9l0.7-0.7
	l0.1-0.2l0.9-1.1 M191.4,181.3l2.9,1.6l0.7-0.2l0.6-0.3l-2.9-1.7 M195.5,182.3l0.1-0.1l1-0.8l-2.9-1.7 M196.7,181.5l1-0.9l-2.9-1.6
	 M191.3,183.2l0.3,0.1l1.2,0.1h0.2l-3-1.7 M196.1,185.9l-3.2-1.8 M197.7,185.9l-3.2-1.8 M195.8,183.8l3.2,1.8 M200.3,184.9l-3.2-1.8
	 M201.4,184.1l-3.2-1.8 M199.2,181.5l3.2,1.8 M198.9,178.4l-2.4-1.4 M193,183.3l1.3-0.4 M197.7,180.6l0.9-0.9 M203.3,182.3l-3.2-1.8
	 M229.7,182.8c0.1,0.1,0.3,0.2,0.4,0.3l0.3,0.1L229.7,182.8l-0.8-0.4l0.6,0.7l0.5,0.9l0.3,1.1v1.2l-0.2,1.4l-0.9,2.9l-1.5,2.9
	l-2.1,2.4l-2.3,1.7l-1.1,0.5l-1.1,0.2l-1-0.1h-0.2l-0.7-0.2l1,0.6c1.2,0.7,2.7,0.5,4.4-0.6c1.7-1.1,3.2-2.7,4.5-4.9s1.9-4.3,2-6.3
	c0.1-1.8-0.3-3-1.2-3.8 M217.9,196.3l0.5,0.2l0.3,0.1h0.9l1-0.2l1-0.5l1-0.6l1.1-0.9l0.9-1.1l1.7-2.4l1.2-2.7l0.4-2.6l-0.1-1.2
	l-0.2-1l-0.4-0.8l-0.4-0.4l-0.1-0.2h-0.1l-0.3-0.2l-0.4-0.2l-0.9-0.2l-1,0.1l-1,0.3l-1,0.5l-1,0.8l-1,1l-1.8,2.4l-0.8,1.3l-1,2.7
	l-0.2,1.3v1.2l0.2,1.1l0.3,0.9l0.5,0.7L217.9,196.3L217.9,196.3 M218.4,196.5l0.4,0.4l0.8,0.3h0.9l1-0.2l1-0.4l1-0.7l2-1.9l1.7-2.5
	l1.2-2.7l0.4-2.6V185l-0.2-1l-0.4-0.8l-0.6-0.6l-0.7-0.4l0,0 M228.9,182.3l-0.8-0.5l-1-0.2l-0.8,0.1 M226.2,184.9l-0.3-0.6l-0.4-0.5
	l-0.5-0.2l-0.7-0.2l-0.7,0.1l-1.5,0.7l-1.5,1.3l-1.3,1.8l-0.6,1l-0.8,2l-0.2,1.9l0.4,1.5l0.4,0.6l0.5,0.3l0.6,0.2l0.7,0.1l0.6-0.3
	l0.8-0.3l0.6-0.4l-1.6-1c0,0,0,0-0.1,0c-0.4-0.2-0.6-0.6-0.4-1.1c0.2-0.4,0.5-0.6,0.8-0.6l-0.8-0.4l-0.2-0.2
	c-0.4-0.3-0.5-0.8-0.1-1.2c0.3-0.4,0.7-0.4,1-0.2l0.5,0.3v-0.1v-0.2v-0.1l0.1-0.1l-0.2-0.1h-0.1l-0.1-0.1l-0.1-0.1l-0.1-0.2v-0.2
	V188v-0.1v-0.2l0.4-0.4l0.2-0.1h0.1h0.2h0.1h0.2l0.8,0.4v-0.1l-0.1-0.2v-0.2l0.1-0.2l0.1-0.2l0.1-0.1l0.1-0.1l0.1-0.1l0.2-0.1h0.1
	h0.1h0.1h0.2l2.2,1.2l0.2-1.1l-0.1-0.8L226.2,184.9z M223,187.6v0.2l0.1,0.1l0.1,0.1l0.1,0.1l2.4,1.3l0.3-0.9l0.2-0.8 M231.5,183.8
	l-0.1-0.1l0.8,0.5c-0.1-0.1-0.3-0.2-0.5-0.3L231.5,183.8l0.1-0.1l1.3-0.4l1.2-0.2l1.7,1v0.7l0.1,1.1v0.1l1-0.3l1.2-0.2l1.7,0.9
	l-0.1,0.8v0.1l0.6,0.3l0.2,0.9l0.1,1h0.8l1.2-0.5l1.7,1l0.2,0.8l0.1,1.4l-0.2,2.8l8.3,4.8l0.3,0.3l0.3,0.1l0.5,0.3l4.5,2.7l0.3,0.3
	h0.3l0.3,0.2l0.3,0.2c0,0,0,0,0.1,0l10.8,6.2c0.7,0.6,1,1.5,0.9,2.9c0,0.7-0.2,1.5-0.5,2.2l3.3,1.9l0.1,0.2l0.1,0.2v0.3v0.3v0.3
	l-0.3,0.7l-0.2,0.2l1.1,0.7c0.2,0.2,0.3,0.4,0.2,0.8c0,0.4-0.1,0.8-0.3,1.2c-0.5,0.9-1,1.2-1.5,1.1l-5.7-3.2c-0.3,0.3-0.6,0.5-1,0.7
	c-1.2,0.7-2.2,0.9-3,0.4l-10.8-6.3l0,0l-0.5-0.4v-0.1l-0.6-0.2l-4.5-2.6l0,0l-0.5-0.4l0,0l0,0l-0.6-0.2l-4.3-2.5l-0.8,0.6l-1.5-0.9
	l-1-1.2l-3.2-1.9l0,0l-1.2,2.3l-0.5,1.3v0.1l-1,0.1h-1.1l-1.1-0.3 M232.2,184.3c0.9,0.8,1.3,2.1,1.2,3.8c-0.1,2.1-0.8,4.2-2.1,6.4
	c-1.3,2.2-2.8,3.8-4.5,4.9c-1.7,1-3.1,1.2-4.3,0.7l1.1,0.7l0.4,0.2c1.2,0.7,2.7,0.5,4.4-0.6c1.8-1.1,3.3-2.7,4.5-4.8
	c1.3-2.2,2-4.3,2-6.4c0.1-2-0.5-3.4-1.7-4.2l-0.5-0.2L232.2,184.3z M230.4,183.2l0.2,0.1c0.1,0.1,0.3,0.2,0.4,0.2l0.4,0.2
	 M220.3,198.7l1,0.6c1.2,0.7,2.7,0.4,4.4-0.6c1.7-1.1,3.2-2.7,4.5-4.8c1.3-2.2,2-4.3,2-6.3c0.1-1.8-0.4-3.1-1.3-3.9l-0.5-0.3
	 M221.6,189.5L221.6,189.5v0.2v0.2v0.1l0.1,0.2l0.2,0.2l0.4,0.2h0.1l0.1-0.1h0.2l0.1-0.1l0.2,0.1h0.1h0.2l1.5,0.9l0.5-0.8l0.1-0.3
	l-2.5-1.5l-0.1-0.1h-0.2h-0.1h-0.2h-0.2l-0.1,0.1l-0.1,0.1l-0.2,0.2 M222.3,190.4L222.3,190.4l-0.2,0.2v0.1L222,191v0.2v0.1l0.1,0.2
	 M222.1,191.7l0.1,0.1l0.1,0.1h0.2l1.2,0.7l0.4-0.3l0.8-1.1 M222.1,191.7l-0.7-0.4l-0.1-0.1c-0.1,0-0.2,0-0.3-0.1l0,0 M222.3,193.9
	l0.2-0.1l0.8-0.7l0.4-0.4 M217.9,196.3l0.1,0.4l0.5,0.8l0.7,0.6 M221.3,199.2l1.3,0.8 M226.6,205.7l1,0.4h0.1h1l1-0.2l0,0l0.5-1.3
	l1.4-2.5l1.9-2.2l1.1-0.8l1-0.5l1-0.4h0.9l0.9,0.2l-1.7-1l-0.8-0.2l-1,0.1l-1,0.3l-1,0.6l-1,0.8l-1,1l-1.7,2.4l-0.7,1.3L228,205v0.1
	l-1,0.2l-1.1-0.1l-1.1-0.4l-0.9-0.6l-0.8-0.8l-0.5-0.8l0.9-1.8 M225.4,190.2l0.4-0.8 M238.3,185.4v0.8v0.5l0.5-0.2l1.1,0.7
	 M234.2,183.1l-0.1,0.7l0.2,1.1l0.3,0.8l0.5,0.7l0.7,0.4h0.1l0.6,0.1l-0.2-0.3l-0.2-0.8 M236.5,187h0.1l1-0.1l0.8-0.2 M238.7,186.5
	l0.2,0.8l0.1,1.4l-0.3,3.2l-1.1,3.4l-1,1.9 M242.8,188.9l0.2,0.8l0.2,1.4l-0.3,3.2l-0.5,1.8l-1.5,3.4l-0.2,0.2l1.7,1l1-1.9l0.4-1.1
	l0.4-1.2l0.3-1.2l0.1-0.4 M240.8,189.4v0.4l-0.3,3.2l-0.5,1.7l-1.6,3.7 M240.8,199.7l-0.8-0.1h-0.9l-1,0.3l-1,0.6l-1,0.8l-2,2.1
	l-0.8,1.2l-1.1,2.7l1.7,1 M235.6,204.6l2.1-2.4l1-0.8l1-0.5l1-0.3l1-0.1l0.8,0.2 M243.9,197.7l0.9,0.5l1,1.2l1.5,0.9l-3-3.8
	 M245.7,199.5v0.4l-1.2,2.4l-1.7,2.4l-2,2.1l-1,0.8 M242.1,207.9l0.3-0.3l2-2.1l1.7-2.5l1.2-2.4l0.1-0.3 M253.2,200l0.1,0.2l0.3,0.7
	l0.1,0.7v0.9l-0.1,0.9l-0.6,2l-1.1,2l-1.4,1.7l-0.8,0.7l-0.8,0.5l-0.8,0.3l-0.7,0.2h-0.7 M252.7,214h0.7l0.7-0.1l0.8-0.4l1.6-1.1
	l1.4-1.7l1-2l0.4-1l0.3-2v-0.9l-0.2-0.8l-0.3-0.6l-0.1-0.1 M259.5,203.5l0.4,0.2c0.7,0.6,1,1.5,0.9,2.8s-0.5,2.7-1.4,4.2
	s-1.9,2.6-3.1,3.3c-1.1,0.7-2.1,0.9-3,0.4 M247.6,211.1c0.8,0.4,1.8,0.3,3-0.4s2.2-1.8,3.1-3.3c0.8-1.4,1.3-2.8,1.4-4.2
	c0.1-1.3-0.2-2.3-1-2.8 M271.2,215.1c-0.2,0.6-0.5,1.2-0.8,1.8l4,2.3 M270.3,216.8L270.3,216.8c-0.7,1.2-1.4,2-2.3,2.7 M232.2,207.3
	L232.2,207.3l-1,0.2l-1.2-0.1l-1-0.3l-0.9-0.6l-0.3-0.4 M280.4,229h-0.3l-0.3-0.1l-0.4-0.1l-0.3-0.2 M238.8,206.5l6-8.3
	 M185.6,178.5l-8.6-4.9l-0.9-0.5l-0.4-0.4l-0.3-0.4l-0.2-0.5l-0.4-1.2l-0.1-1.3v-2.4h-0.1l-2.7-1.7l-0.3-0.1l0,0l-0.2-0.1l-0.1-0.2
	l-0.4-0.4l-0.1-0.2l-0.1-0.6v-0.8l-0.1-0.2l-0.1-0.3l-0.5-0.4l-0.9-0.6l-1.3-0.6l-1.8-0.5l-2.9-0.5h-1.2l-3,0.3l-0.9,0.2l-3.8,2.1
	l-1.9,1.6l-1.3,1.7l-1.9,3.4l-0.9,2.3 M144.9,170.3l1-2.8l1.4-2.8l1.6-2.3l2.1-2.1l2.4-1.7l2.2-1.2l5.4-1.2l3.1-0.2l2.2,0.1l3.2,0.9
	l2.2,1l1,0.7l0.2-0.1l0.9-0.5l0.5-0.2h0.2h0.2l0.5,0.1l0.2,0.1l0,0l0.2,0.2l2.6,1.4l0.2,0.1l2.3-1.4l0.6-0.3l1.2-0.5l1.1-0.1
	l1.1,0.2l0.4,0.2l8.9,5 M186.6,165.4l0.2-1l0.3-2.3l-0.1-1.3l-0.4-1.2l-0.2-0.5l-0.3-0.5l-0.3-0.3l-0.4-0.3 M175.8,158.2
	c0.4,0.4,0.6,0.9,0.6,1.6c0,0.9-0.3,1.9-0.8,2.9s-1.2,1.7-2,2.2c-0.6,0.4-1.2,0.5-1.7,0.4 M172.7,158.9l0.1,0.1l0.6,0.2h0.2h0.5
	l0.3-0.1 M178.4,159.6c0.5,0.3,0.8,0.9,0.9,1.8c0,0.9-0.3,1.8-0.8,2.8s-1.2,1.7-2,2.2c-0.7,0.4-1.3,0.5-1.9,0.3 M174.7,166.8
	l0.8,0.4c0.6,0.3,1.2,0.2,2-0.2c0.8-0.5,1.4-1.2,2-2.2c0.5-1,0.8-1.9,0.8-2.8s-0.3-1.5-0.9-1.8l-0.8-0.5 M177,173.6l0.4,0.2l1.1,0.1
	l1.1-0.2l0.6-0.2l1.2-0.7l1.8-1.5l2-2.8 M171.3,164.1l-0.2-0.2l-0.2-0.3v-0.3l-0.1-0.5 M188.4,181.6l2.9,1.6 M217.9,196.3
	L217.9,196.3 M222.1,191.7L222.1,191.7"/>
<path class="st4" d="M283.6,229.3l0.1-0.1l0.3-0.2h-5.9l0.2,0.2l0.5,0.5l0.4,0.3l0,0l0.5,0.2h0.1l0.5,0.1h0.7l0.5-0.1h0.1l0.5-0.2
	h0.2l0.7-0.4L283.6,229.3z"/>
<path id="Layer1_6_1_STROKES" class="st5" d="M283.7,229.3l0.3-0.2h-5.9l0.2,0.2l0.5,0.5l0.4,0.3l0,0l0.5,0.2h0.1l0.5,0.1h0.7
	l0.5-0.1h0.1l0.5-0.2h0.2l0.7-0.4l0.6-0.4H283.7z"/>
<path class="st3" d="M279.3,228.8H278v0.1v0.1h1.9l-0.3-0.1h-0.1L279.3,228.8z"/>
<path id="Layer1_7_1_STROKES" class="st5" d="M278,228.8L278,228.8v0.2h1.9l-0.3-0.1h-0.1l-0.3-0.1H278z"/>
<path class="st3" d="M284.2,228.8h-2.7l-0.3,0.1h-0.1l-0.3,0.1h3.2v-0.1L284.2,228.8z"/>
<path id="Layer1_8_1_STROKES" class="st5" d="M281.5,228.8l-0.3,0.1h-0.1l-0.3,0.1h3.2v-0.1l0.2-0.1H281.5z"/>
<path class="st3" d="M279,228.6h-1.1l0.1,0.1v0.1h1.3l-0.1-0.1L279,228.6L279,228.6z"/>
<path id="Layer1_9_1_STROKES" class="st5" d="M277.9,228.6L277.9,228.6l0.1,0.2h1.3l-0.1-0.1h-0.1l-0.1-0.1H277.9z"/>
<path class="st3" d="M279.3,228.8h0.5l-0.1-0.1v-0.1h-0.5l0.1,0.1V228.8L279.3,228.8z"/>
<path id="Layer1_10_1_STROKES" class="st5" d="M279.7,228.8l-0.1-0.1v-0.1h-0.5l0.1,0.1h0.1l0.1,0.1H279.7z"/>
<path class="st3" d="M282,228.6l-0.3,0.2h2.6v-0.1l0.2-0.1H282z"/>
<path id="Layer1_11_1_STROKES" class="st5" d="M281.7,228.8h2.6v-0.1l0.2-0.1H282L281.7,228.8z"/>
<path class="st4" d="M280.1,219.8l-0.3,0.4l-0.2,0.2l-0.2,0.5l-0.1,0.2v0.1h-0.1l-0.6,1.2l-0.2,0.4l-0.1,0.2v0.2l-0.2,0.7v0.2
	l-0.2,0.6v0.2l-0.2,0.8v0.3v0.4v0.2v0.4v0.4v0.2v0.2l0.1,0.2v0.1v0.1l0.1,0.4h1.7l-0.1-0.2l-0.2-0.3V228v-0.1l-0.2-0.4v-0.2v-0.2
	v-0.2v-0.7v-0.4v-0.2v-0.1v-0.5l0.1-0.2v-0.2l0.6-1.8l0.1-0.2l0.1-0.2l0.8-1.2l0,0l0.1-0.1l0.4-0.7l0.2-0.2l0.4-0.4l0.2-0.2l0.1-0.1
	l0.1-0.1l0.2-0.2l0.2-0.1l0.3-0.3l0.1-0.1l0.1-0.1l0.5-0.3l0.4-0.2h0.2v-0.1h0.1l0.3-0.2h-2.8l-0.1,0.2l-0.1,0.1l-0.8,0.7l-0.2,0.3
	l-0.2,0.1l-0.2,0.2l-0.1,0.1v0.1L280.1,219.8z"/>
<path id="Layer1_12_1_STROKES" class="st5" d="M279.8,220.2l-0.2,0.2l-0.2,0.5l-0.1,0.2v0.1h-0.1l-0.6,1.2l-0.2,0.4l-0.1,0.2v0.2
	l-0.2,0.7v0.2l-0.2,0.6v0.2l-0.2,0.8v0.3v0.4v0.2v0.4v0.4v0.2v0.2l0.1,0.2v0.1v0.1l0.1,0.4h1.7l-0.1-0.2l-0.2-0.3V228v-0.1l-0.2-0.4
	v-0.2v-0.2v-0.2v-0.7v-0.4v-0.2v-0.1v-0.5l0.1-0.2v-0.2l0.6-1.8l0.1-0.2l0.1-0.2l0.8-1.2l0,0l0.1-0.1l0.4-0.7l0.2-0.2l0.4-0.4
	l0.2-0.2l0.1-0.1l0.1-0.1l0.2-0.2l0.2-0.1l0.3-0.3l0.1-0.1l0.1-0.1l0.5-0.3l0.4-0.2h0.2v-0.1h0.1l0.3-0.2h-2.8l-0.1,0.2l-0.1,0.1
	l-0.8,0.7l-0.2,0.3l-0.2,0.1l-0.2,0.2l-0.1,0.1v0.1l-0.2,0.2L279.8,220.2z"/>
<path class="st4" d="M286.3,218l0.1,0.1l0.3,0.6v0.1l0.2,0.7v0.1v0.1v1.3v0.2v0.1h-0.1l-0.1,0.7l-0.7,2l-0.1,0.2l-0.1,0.3l-0.8,1.2
	v0.1l-0.1,0.1l-0.5,0.6v0.1l-1.2,1.3l-0.3,0.2l-0.1,0.1l-0.1,0.1l-0.8,0.4h2.5l0.1-0.2l0.8-0.7l0.1-0.2l0.2-0.2l0.1-0.2v-0.1
	l0.1-0.2l0.4-0.4l0.1-0.2v-0.1l0.3-0.4v-0.2l0.1-0.1v0.1l0.2-0.5l0.2-0.2l0.8-2.2l0.2-0.6v-0.2l0.1-0.8l0.1-1.4l-0.1-0.2v-0.4V219
	v-0.3v-0.1l0,0l-0.1-0.3l-0.1-0.2v-0.1l-0.1-0.2h-1.7L286.3,218z"/>
<path id="Layer1_13_1_STROKES" class="st5" d="M286.4,218.1l0.3,0.6v0.1l0.2,0.7v0.1v0.1v1.3v0.2v0.1h-0.1l-0.1,0.7l-0.7,2l-0.1,0.2
	l-0.1,0.3l-0.8,1.2v0.1l-0.1,0.1l-0.5,0.6v0.1l-1.2,1.3l-0.3,0.2l-0.1,0.1l-0.1,0.1l-0.8,0.4h2.5l0.1-0.2l0.8-0.7l0.1-0.2l0.2-0.2
	l0.1-0.2v-0.1l0.1-0.2l0.4-0.4l0.1-0.2v-0.1l0.3-0.4v-0.2l0.1-0.1v0.1l0.2-0.5l0.2-0.2l0.8-2.2l0.2-0.6v-0.2l0.1-0.8l0.1-1.4
	l-0.1-0.2v-0.4V219v-0.3v-0.1l0,0l-0.1-0.3l-0.1-0.2v-0.1l-0.1-0.2h-1.7L286.4,218.1L286.4,218.1z"/>
<path class="st3" d="M285.9,217.8h-0.3H285.9L285.9,217.8L285.9,217.8z"/>
<path class="st3" d="M287.9,217.8h-1.8l0.1,0.1L287.9,217.8L287.9,217.8z"/>
<path class="st4" d="M282.4,217.5l-0.1,0.1l-0.2,0.1l-0.1,0.1h4v-0.1l-0.2-0.2l-0.1-0.1l-0.1-0.1h-2.9L282.4,217.5L282.4,217.5z"/>
<path class="st4" d="M286.1,217.7L286.1,217.7l1.8,0.1v-0.1l-0.1-0.1v-0.1l-0.2-0.2h-2.1l0.2,0.1l0,0l0.1,0.1v0.1L286.1,217.7z"/>
<path class="st4" d="M283.7,216.7l-1.1,0.7h5l-0.2-0.2v-0.1l-0.5-0.3l0,0l-0.5-0.2h-0.1l-0.5-0.1h-0.7l-0.5,0.1h-0.2L283.7,216.7z"
	/>
<path id="Layer1_19_1_STROKES" class="st6" d="M290.9,235.1h-0.4l-0.8-0.2l-0.2-0.2"/>
<path class="st4" d="M288.6,235.1l0.1,0.2l0.1,0.1l0.3,0.4l0.1,0.1l0.4,0.3l0.7,0.3l0.5,0.1h0.7l0.7-0.2l1.4-0.6l0.6-0.4l0.1-0.1
	l0.3-0.2C294.6,235.1,288.6,235.1,288.6,235.1z"/>
<path id="Layer1_20_1_STROKES" class="st5" d="M288.7,235.3L288.7,235.3l0.4,0.5l0.1,0.1l0.4,0.3l0.7,0.3l0.5,0.1h0.7l0.7-0.2
	l1.4-0.6l0.6-0.4l0.1-0.1l0.3-0.2h-5.9V235.3z"/>
<path class="st3" d="M289.8,234.9h-1.3l0.1,0.1v0.1h1.9l-0.3-0.1h-0.1L289.8,234.9L289.8,234.9z"/>
<path id="Layer1_21_1_STROKES" class="st5" d="M288.5,234.9L288.5,234.9l0.1,0.2h1.9l-0.3-0.1h-0.1l-0.3-0.1l0,0H288.5z"/>
<path class="st3" d="M294.8,234.9h-2.7H292l-0.3,0.1h-0.2l-0.3,0.1h3.2V235L294.8,234.9z"/>
<path id="Layer1_22_1_STROKES" class="st5" d="M292.1,234.9L292.1,234.9l-0.4,0.1h-0.2l-0.3,0.1h3.2V235l0.2-0.1H292.1z"/>
<path class="st3" d="M289.7,234.8l-0.1-0.1h-1.1v0.1v0.1L289.7,234.8L289.7,234.8L289.7,234.8z"/>
<path id="Layer1_23_1_STROKES" class="st5" d="M289.6,234.7h-1.1v0.1v0.1l1.3,0.1v-0.1l0,0L289.6,234.7z"/>
<path class="st3" d="M290.1,234.7h-0.5v0.1l0.1,0.1h0.1v0.1h0.4v-0.1l0,0L290.1,234.7z"/>
<path id="Layer1_24_1_STROKES" class="st5" d="M290.1,234.7h-0.5v0.1l0.1,0.1h0.1v0.1h0.4v-0.1l0,0L290.1,234.7z"/>
<path class="st3" d="M292.5,234.7l-0.2,0.1l0,0l-0.1,0.1h2.7l0.2-0.2H292.5z"/>
<path id="Layer1_25_1_STROKES" class="st5" d="M292.3,234.8L292.3,234.8l-0.2,0.1h2.7l0.2-0.2h-2.5L292.3,234.8z"/>
<path class="st4" d="M294.9,224.1l0.3-0.1h-2.9l-0.1,0.1l-0.2,0.1l-0.1,0.2l-0.8,0.7l-0.3,0.4l-0.1,0.2l-0.5,0.8l-0.1,0.1l-0.4,0.7
	l-0.1,0.1l-0.2,0.5l-0.2,0.4L289,229l-0.1,0.1v0.1l-0.1,0.3l-0.1,0.2l-0.2,0.6l-0.2,0.7v0.1v0.3l-0.1,0.5v0.1v0.1v1.2v0.2v0.4
	l0.1,0.1v0.3l0,0v0.1l0.2,0.4h1.6l-0.1-0.1l-0.2-0.4l0,0l-0.2-0.3v-0.1v-0.2v-0.1v-0.2V232l0.2-0.8v-0.1l0.2-0.7l0.1-0.2V230v-0.2
	l0.2-0.2l0.1-0.3l0.1-0.1v-0.1l0.3-0.7v-0.2l0.2-0.2l0.3-0.5v-0.1h0.1l0.5-0.7l0.2-0.2l0.4-0.5l0.2-0.2l0.1-0.1l0.2-0.2l0.2-0.2
	l0.3-0.2l0,0l0.1-0.1V225l0.5-0.3l0.5-0.2l0.1-0.1l0,0L294.9,224.1z"/>
<path id="Layer1_26_1_STROKES" class="st5" d="M295.3,224h-2.9l-0.1,0.1l-0.2,0.1l-0.1,0.2l-0.8,0.7l-0.3,0.4l-0.1,0.2l-0.5,0.8
	l-0.1,0.1l-0.4,0.7l-0.1,0.1l-0.2,0.5l-0.2,0.4l-0.2,0.7l-0.1,0.1v0.1l-0.1,0.3l-0.1,0.2l-0.2,0.6l-0.2,0.7v0.1v0.3l-0.1,0.5v0.1
	v0.1v1.2v0.2v0.4l0.1,0.1v0.3l0,0v0.1l0.2,0.4h1.6l-0.1-0.1l-0.2-0.4l0,0l-0.2-0.3v-0.1v-0.2v-0.1v-0.2V232l0.2-0.8v-0.1l0.2-0.7
	l0.1-0.2V230v-0.2l0.2-0.2l0.1-0.3l0.1-0.1v-0.1l0.3-0.7v-0.2l0.2-0.2l0.3-0.5v-0.1h0.1l0.5-0.7l0.2-0.2l0.4-0.5l0.2-0.2l0.1-0.1
	l0.2-0.2l0.2-0.2l0.3-0.2l0,0l0.1-0.1V225l0.5-0.3l0.5-0.2l0.1-0.1l0,0h0.1L295.3,224z"/>
<path class="st4" d="M298.8,224.9v-0.2l-0.1-0.3l-0.1-0.2v-0.1l0,0v-0.1h-1.7l0.1,0.1l0,0l0.2,0.3l0.2,0.3v0.1l0,0l0.2,0.4v0.2v0.1
	v0.2v0.4v0.2v0.5v0.2l0,0v0.1l-0.1,0.5v0.2l-0.3,0.9v0.1l-0.4,0.9l-0.1,0.2l-0.3,0.7l-0.1,0.1l-0.4,0.8l-0.1,0.1l-0.5,0.6l-0.6,0.7
	l-0.2,0.2l-0.1,0.1l-0.1,0.1l-0.2,0.2l-0.2,0.1l-0.3,0.3h-0.1l-0.1,0.1l-0.8,0.4h2.5l0.5-0.4l0.2-0.1l0.2-0.3l0.2-0.1l0.1-0.2
	l0.2-0.1v-0.1l0.5-0.7l0.1-0.1v-0.1l0.4-0.5v-0.1l0.1-0.1l0.4-0.8v-0.1l0.2-0.4l0.4-1.1v-0.3l0.1-0.1v-0.1l0.1-0.2V228v-0.2l0.2-0.8
	v-0.8v-0.1V226v-0.5v-0.3l-0.1-0.2v-0.2L298.8,224.9z"/>
<path id="Layer1_27_1_STROKES" class="st5" d="M298.8,224.7l-0.1-0.3l-0.1-0.2v-0.1l0,0V224h-1.7l0.1,0.1l0,0l0.2,0.3l0.2,0.3v0.1
	l0,0l0.2,0.4v0.2v0.1v0.2v0.4v0.2v0.5v0.2l0,0v0.1l-0.1,0.5v0.2l-0.3,0.9v0.1l-0.4,0.9l-0.1,0.2l-0.3,0.7l-0.1,0.1l-0.4,0.8
	l-0.1,0.1l-0.5,0.6l-0.6,0.7l-0.2,0.2l-0.1,0.1l-0.1,0.1l-0.2,0.2l-0.2,0.1l-0.3,0.3h-0.1l-0.1,0.1l-0.8,0.4h2.5l0.5-0.4l0.2-0.1
	l0.2-0.3l0.2-0.1l0.1-0.2l0.2-0.1v-0.1l0.5-0.7l0.1-0.1v-0.1l0.4-0.5v-0.1l0.1-0.1l0.4-0.8v-0.1l0.2-0.4l0.4-1.1v-0.3l0.1-0.1v-0.1
	l0.1-0.2V228v-0.2l0.2-0.8v-0.8v-0.1V226v-0.5v-0.3l-0.1-0.2v-0.2l-0.1-0.2L298.8,224.7L298.8,224.7z"/>
<path class="st3" d="M296.7,223.9L296.7,223.9l1.8,0.1l0,0v-0.1H296.7z"/>
<path class="st4" d="M296.3,223.7l-0.1-0.2l-0.2-0.1h-2.9l-0.1,0.1l-0.1,0.1l0,0l-0.2,0.2l-0.1,0.1h4l0,0L296.3,223.7z"/>
<path class="st4" d="M296.3,223.6L296.3,223.6l0.2,0.2l0.1,0.1h1.8h-0.1l-0.1-0.2v-0.1v-0.1l-0.1-0.1H296L296.3,223.6L296.3,223.6z"
	/>
<path class="st4" d="M296.9,222.6L296.9,222.6l-0.6-0.2h-0.7l-0.5,0.1l-0.8,0.2l-0.7,0.3l-0.1,0.1l-0.4,0.2h5l-0.3-0.3l-0.4-0.3
	l-0.1-0.1L296.9,222.6z"/>
<path id="Layer1_32_1_STROKES" class="st6" d="M224.9,204.7l1.7,1 M229,207.1l1.6,1 M229.8,205.9l-1.7-0.9"/>
<path id="Layer1_33_1_STROKES" class="st7" d="M207.7,180.7l0.6,0.3 M209.4,181.7l9.2,5.3 M219.7,187.7l0.6,0.3 M287.3,225.9
	l0.4,0.2 M288.4,226.5l5.7,3.2 M294.8,230.2l0.3,0.2 M276.3,219.6l0.4,0.2 M277.5,220.3l6.5,3.7 M284.7,224.4l0.4,0.2"/>
<path id="Layer1_34_1_STROKES" class="st8" d="M313.4,286.5l1.7-1.5l1.8-1.1l1.8-0.8l1.7-0.3l1.6,0.1l1.3,0.5l1.1,1l0.7,1.2v-0.9
	l0.2-1.7l-1.1-0.6c-1.6-0.9-3.6-0.9-5.8,0c-2.3,1-4.5,2.7-6.5,5.1l0.5,0.3L313.4,286.5z M325.2,282.9l4.5,2.6l0.7,0.6l0.8,0.8
	l0.6,1.1l0.5,1.2l0.3,2.9l-0.3,3.3l-0.5,1.8l-1.3,3.5l-2,3.4l-2.3,2.9l-1.3,1.2l-1.3,1.1l-2.8,1.6l-1.3,0.4l-1.3,0.2h-1.3l-1.1-0.2
	l-1-0.4l-3.1-1.8l-2.8-1.6l-0.9-0.8l-0.1-0.1c-1-1.3-1.5-3.1-1.5-5.4l0.1-1.7l0.6-3l1.3-3.5l0.4,0.3l1.9,1.3l0.1-0.3l1.2-2.2l1-1.4
	l1.2-1.3l-2-1.4 M308.8,293.1l-1.4,4l-0.3,2.2v1.1c0,1.6,0.3,3,0.9,4.1c0.1,0.1,0.1,0.2,0.2,0.3l1,1.1l1.2,0.8l1.5,0.3l1.6-0.1
	l1.7-0.6l1.8-0.9l1.8-1.3l2.6-2.9l-0.5-0.3l-1.8-1.2v0.1l-1.2,1.1l-1.8,1.2l0,0l-1.2,0.4l-0.6,0.1l0,0h-0.1h-0.9l-0.4-0.1l-0.5-0.2
	l-0.4-0.2l-0.4-0.4l-0.6-0.9l-0.3-1.1l-0.2-1.3l0.1-1.4l0.6-2.3l0.1-0.3l0,0l-0.4-0.2 M316,302.3l0.1-1.4l0.6-2.3l1-2.3l1.5-2.1
	l1.7-1.8l1.8-1.2v-0.6l-0.2-1.2l-0.5-1l-0.1-0.1l-0.3-0.1h-0.5l-1.2,0.2l-1.2,0.4l-1.8,1.2l-0.4,0.4l0.6,0.4l-2.2,2.6l-1.4,2.7
	l-0.6-0.4l-0.2,0.4l-0.5,1.5l-0.2,1.5v1.4l0.1,0.6l0.4,1.1l0.2,0.5 M312.9,295.8l-1.7-1 M326.2,284.9l0.2-0.1l0.3,0.1l0.4,0.3
	l0.3,0.4l0.2,0.6l0.1,0.5l-0.1,0.4l-0.2,0.2l-0.4-0.1l-0.3-0.2l-0.3-0.4l-0.3-0.6l-0.2-0.5v-0.4L326.2,284.9z M325.1,285.6
	L325.1,285.6c0.6,1.2,0.8,2.5,0.8,4.1l0.6,1.3l1.1,1.9l4.7,2.6 M321.8,288.3L321.8,288.3l-0.2-0.3l-0.8-0.6l-1-0.3h-0.5l-1.1,0.1
	l-1.2,0.4l-1.2,0.8l-1.2,1 M314.7,289.4l1.8,1 M322.4,289.5l-1.1,0.3l-0.6,0.3l-1.8,1.2l-0.6,0.5l-1.1,1.2l-1.4,2.1l-1.1,2.3
	l-0.2,0.8l-0.3,1.6l-0.1,1.4l0.1,1.2l0.1,0.5 M319,299.9l1.5-3l1.9-2.3l-0.2-0.1l0.1-0.2l0.2-0.8l0.2-1.5v-0.7 M320.8,301.1l3-5.6
	l-1.5-1 M325.9,289.6c0,0.6-0.1,1.3-0.2,1.9v0.1l-1.2,4.3l0.4,0.2l0.3-0.4l2.4-2.8 M324.9,296.2l2,1.2l-3.1,5.6l-2-1.2l-0.2,0.5
	l-1.2,3.5l4.6,2.7 M324.5,295.9L324.5,295.9l-0.7-0.4 M314.7,289.4l-0.4-0.2 M321.3,301.4L321.3,301.4l0.4,0.2 M320.3,305.6
	L320.3,305.6c-3.3,0.1-6.1,1.3-8.5,3.6 M315.3,308.2c0.4-0.1,0.7-0.1,1,0.1c0.3,0.1,0.5,0.2,0.5,0.4c0.1,0.4-0.4,0.7-1.3,0.9
	c-0.9,0.1-1.4,0-1.5-0.5c0-0.2,0.1-0.3,0.4-0.5C314.7,308.3,315,308.2,315.3,308.2z M309,306c0.2,0.2,0.5,0.4,0.8,0.6l0.5,0.2
	 M307.1,305.3l0.1,0.2l0.2,0.4l0.2,0.3l0.2,0.4 M314.7,289.4L314.7,289.4"/>
<path id="Layer1_35_1_STROKES" class="st9" d="M312.3,240.2l-11.3-6.4 M299.6,232.9l-0.7-0.4 M284.2,299l7.7-14.6 M292.9,282.6
	l0.9-1.7l1.3,0.8 M294.8,278.9l7.7-14.6 M303.4,262.4l0.9-1.8 M321.5,296.8l-1.2-0.7 M317.7,294.6L297.5,283 M305.3,258.8l7.7-14.6
	 M314,242.3l0.5-0.9l-0.8-0.4 M282.3,302.8l1-1.8 M272.7,321l-0.5,0.9l-0.7-0.4 M270,320.6l-11.6-6.7 M256.9,313.1l-0.7-0.4
	 M273.7,319.1l7.6-14.6"/>
<path id="Layer1_36_1_STROKES" class="st10" d="M177.3,149.1l6.5-3.4l61.5,35.2l8.3-10.7 M307.7,223.5l-1-7.4l-61.5-35.2"/>
<path class="st11" d="M157.8,92.9c1-3.8,2.2-7,3.5-9.7c-1.7,3.1-3.2,6.8-4.7,11.1c-4.6,13.6-5.4,27.9-2.6,43.2l-3.8,0.7l8.1,5.8
	l5.8-7.9l-3.9,0.6C155.2,120.3,154.4,105.7,157.8,92.9z"/>
<path id="Layer1_38_1_STROKES" class="st12" d="M161.3,83.2c-1.3,2.7-2.5,5.9-3.5,9.7c-3.3,12.9-2.6,27.5,2.4,43.8l3.9-0.6l-5.8,7.9
	l-8.1-5.8l3.8-0.7c-2.8-15.2-2-29.6,2.6-43.2C158,90,159.6,86.3,161.3,83.2c1-1.7,2-3.2,3-4.5"/>
<path class="st13" d="M252.2,310l-0.1,2.1l2.7,1.5v-5.2L252.2,310 M248.8,306.7l-0.4,1l0.2,0.2l3.6,2.1l2.6-1.6l-6-3.3l0.1,0.2
	L248.8,306.7 M247.8,303.2l0.3,0.2l0.6,0.8l0.2,0.9l6,3.3v5.2l-2.7-1.5l-4.7-2.8l-0.1,0.1l-0.5,0.5l8.6,5l0.4-0.2v-6.9L247.8,303.2
	 M239.7,298.4c-0.1,1.5-0.5,3.1-1.5,4.6c-0.9,1.5-1.9,2.6-3,3.4l17.4,10.2l2.9-1.6l-8.6-5l0.5-0.5l0.1-0.1l0.8-1.2l0.2-0.5l0.4-1
	l0.2-1.4l-0.1-0.2l-0.2-0.9l-0.6-0.8l-0.3-0.2l-6.9-3.9L239.7,298.4 M183.4,294.5l0.3,1.2l0.8,1v-2.2l0.3-1h-0.3L184,293l-0.3,0.4
	L183.4,294.5 M189.7,290.3v0.5l-0.1,0.1h1.2l1.9,0.2l1.8,0.5l1.4,0.8l0.9,1l0.3,1.1v2.1l0.3-0.4l0.1-0.1l0.3-0.5l0.1-0.5l0.2-0.8
	l-0.3-1.2L197,292l-1.4-0.9l-1.8-0.6l-2-0.4L189.7,290.3L189.7,290.3 M183.4,281.1l0.2-0.6l0.3-0.4l-2.3,1.3l-1.2,0.7l-0.9,0.5
	l-0.8,0.6l-0.3,1.1l0.2,1.5l0.6,1.5l1,1.4l1.2,1l1.1,0.4l0.6,0.5l0.4,0.7l0.1,0.7l0.2,0.8l0.1,0.1l0.5,0.5h0.3l0.2,0.1l4.6-2.6
	l0.1-0.1l-0.6-0.1l-0.6-0.5l-0.2-0.8l-0.1-0.7l-0.4-0.7l-0.6-0.5l-0.6-0.2l-0.6-0.3l-1.2-1.2l-0.9-1.5l-0.5-1.6l-0.1-0.8
	L183.4,281.1 M186.9,283l-0.6,0.3l0.4,0.7l0.8,0.9l0.9,0.6l0.8,0.2l0.3-0.1l0.2-0.1l0.2-0.1c0.3-0.2,0.6-0.5,0.8-0.9v-0.7l-1.1-0.6
	l-1.4-0.2L186.9,283 M186.5,282.2l-0.4,0.2l-0.6,0.4l0.3,0.8l0.6-0.2l0.6-0.3l1.4-0.1l1.4,0.2l1.1,0.6v-0.9l-0.7-0.6L189,282h-1.3
	L186.5,282.2 M186.3,280.2L186.3,280.2l-1.3,0.6l-0.2,0.1l-0.4,0.7l-0.1,1l0.3,1.1l0.6,1.1l0.8,1l0.9,0.6l0.9,0.1h0.1l1.5-0.8
	l-0.8-0.2l-0.9-0.6l-0.8-0.9l-0.4-0.7l-0.6,0.2l-0.3-0.8l0.6-0.4l-0.2-0.6l0.1-1L186.3,280.2 M189.9,280.2l-1.1-0.4
	c0.7,0.3,1.3,0.9,1.7,1.6c0.1,0.3,0.2,0.5,0.3,0.8v-0.3c0-0.4,0.2-0.6,0.7-0.6c0.4,0,0.6,0.2,0.6,0.6v6.2c0,0.4-0.2,0.6-0.6,0.6
	c-0.4,0-0.7-0.2-0.7-0.6v-3.7c-0.2,0.4-0.4,0.7-0.8,0.9l-0.2,0.1l0.1-0.1l-0.4,0.2l-0.3,0.1l-1.5,0.8h-0.1l-0.9-0.1l-0.9-0.6l-0.8-1
	l-0.6-1.1l-0.3-1.1l0.1-1l0.4-0.7l0.2-0.1l1.2-0.6l-0.6-0.2l-0.6-0.1h0.2l-0.5,0.1l-0.5,0.2l-0.3,0.4l-0.2,0.6l-0.1,0.6l0.1,0.8
	l0.5,1.6l0.9,1.5l1.2,1.2l0.6,0.3l0.6,0.2l0.6,0.5l0.4,0.7l0.1,0.7l0.2,0.8l0.6,0.5l0.6,0.1v-0.5V286v4.4h0.1h2.1l2,0.4l1.8,0.6
	l1.4,0.9l0.8,1.1l0.3,1.2v-7.1v-3.6l-0.6-1.2l-0.4-0.4l-0.8-0.6l-1.6-0.8l-1.9-0.4l-2.1-0.1L189.9,280.2 M193.8,282.7
	c0-0.4,0.2-0.6,0.7-0.6s0.7,0.2,0.7,0.6v6.2c0,0.4-0.2,0.6-0.7,0.6c-0.4,0-0.7-0.2-0.7-0.6V282.7 M196.6,284.1
	c0-0.4,0.2-0.7,0.6-0.7c0.3,0,0.5,0.2,0.5,0.7v6.2c0,0.4-0.2,0.6-0.5,0.6c-0.4,0-0.6-0.2-0.6-0.6V284.1 M188.8,279.8
	c-0.2-0.1-0.4-0.2-0.6-0.2c-0.5-0.1-0.9-0.1-1.2,0.1l-0.6,0.3l-0.1,0.1l-0.3,0.6l-0.1,1l0.2,0.6l0.4-0.2l1.2-0.2h1.3l1.1,0.4
	l0.7,0.6v-0.7c-0.1-0.3-0.2-0.5-0.3-0.8C190,280.7,189.5,280.1,188.8,279.8z"/>
<path class="st11" d="M238.3,303c0.9-1.5,1.4-3.1,1.5-4.6c0-0.1,0-0.1,0-0.2c0-1.6-0.5-2.6-1.5-3.2l-1.6-0.9l0.1,0.1
	c1,0.5,1.4,1.6,1.4,3.2v0.1c0,1.5-0.5,3.1-1.4,4.8c-1,1.6-2.1,2.8-3.4,3.6c-1.3,0.8-2.5,0.9-3.5,0.4l1.5,0.9c1,0.5,2.1,0.4,3.5-0.5
	c0.1-0.1,0.2-0.1,0.4-0.2C236.4,305.7,237.4,304.5,238.3,303 M230.3,290.4l-0.6-1c0.2,0.5,0.2,1.2,0.2,2c0,1.9-0.6,3.8-1.7,5.8
	c-1.1,2-2.5,3.4-4.1,4.4c-0.4,0.3-0.8,0.5-1.2,0.6l7,4c1,0.5,2.1,0.4,3.5-0.4c1.3-0.8,2.4-2,3.4-3.6c0.9-1.7,1.4-3.2,1.4-4.8v-0.1
	c0-1.6-0.5-2.7-1.4-3.2l-0.1-0.1L230.3,290.4 M228.7,288c-0.2-0.1-0.3-0.2-0.5-0.3l-0.5-0.2L228.7,288 M227.8,287.5l-0.9-0.6
	c0.8,0.7,1.2,1.9,1.2,3.5c0,1.8-0.6,3.7-1.7,5.7c-1.1,1.9-2.4,3.4-4,4.3c-1.5,0.9-2.8,1.1-3.9,0.6l1.6,1c0.8,0.5,1.8,0.5,2.9,0.1
	c0.4-0.1,0.8-0.3,1.2-0.6c1.6-0.9,3-2.4,4.1-4.4s1.7-3.9,1.7-5.8c0-0.8-0.1-1.5-0.2-2c-0.2-0.6-0.5-1.1-0.9-1.4L227.8,287.5
	 M226.8,287l-1.8-1c0.8,0.7,1.2,1.9,1.2,3.6c0,1.8-0.6,3.7-1.7,5.6c-1.2,2-2.5,3.4-4.1,4.3c-1.4,0.8-2.6,1.1-3.6,0.7l1.6,0.9
	c1.1,0.5,2.4,0.3,3.9-0.6c1.6-0.9,2.9-2.4,4-4.3c1.1-2,1.7-3.9,1.7-5.7C228.1,288.8,227.7,287.7,226.8,287 M206.6,301.5
	c0.3,0.3,0.7,0.5,1.1,0.6c0.1-0.1,0.3-0.2,0.4-0.4L206.6,301.5 M202.8,299.4c0.1-0.1,0.1-0.2,0.2-0.2c-0.4-0.1-0.7-0.1-1.1-0.2
	L202.8,299.4 M203.9,300.1l0.2,0.1l0.4,0.1c0.3-0.3,0.5-0.5,0.8-0.8c-0.7-0.1-1.5-0.2-2.2-0.3c-0.1,0.1-0.2,0.1-0.2,0.2L203.9,300.1
	 M205.9,301.2c0.2-0.2,0.4-0.4,0.6-0.6l-2.1-0.3l-0.4-0.1L205.9,301.2 M205.3,299.5c0.7,0.1,1.4,0.1,2.2,0.1
	c0.4-0.5,0.8-1.1,1.1-1.6c-0.7,0.1-1.4,0.1-2.2,0.2C206,298.6,205.7,299,205.3,299.5 M207.4,299.6c-0.7,0-1.5,0-2.2-0.1
	c-0.3,0.3-0.5,0.5-0.8,0.8l2.1,0.3C206.9,300.2,207.2,299.9,207.4,299.6 M201.6,295.3h-2.2l-0.9,1l2.1,0.4
	C200.9,296.2,201.2,295.8,201.6,295.3 M201.6,297.9l-0.5,0.6l0.9,0.5c0.4,0.1,0.7,0.1,1.1,0.2c0.4-0.3,0.7-0.7,1-1
	C203.2,298,202.4,298,201.6,297.9 M201,296.7h1.7l0.9-1.5l-2,0.1c-0.3,0.5-0.7,0.9-1.1,1.4H201 M201.6,297.9l0.8-0.8l0.3-0.4H201
	h-0.5c-0.3,0.3-0.6,0.6-0.9,0.9C200.3,297.6,201,297.8,201.6,297.9 M198.1,296.7l0.3-0.4l-0.9-0.1l-0.1,0.1L198.1,296.7
	 M199.6,297.5c-0.1,0-0.1,0-0.1,0l1.6,0.9l0.5-0.6C201,297.8,200.3,297.6,199.6,297.5 M198.1,296.7l1.1,0.7l0.3,0.1h0.1
	c0.3-0.3,0.6-0.5,0.9-0.9l-2.1-0.4L198.1,296.7 M199.3,295.3h-0.8l-0.7-0.1l-0.1,0.5l-0.3,0.5l0.9,0.1L199.3,295.3 M200.2,294
	l0.3-0.7c-0.5,0.3-1.1,0.5-1.6,0.8L200.2,294 M201.6,295.3c0.3-0.5,0.6-1.1,0.9-1.6l-1.9,0.3h-0.3l-0.9,1.4L201.6,295.3
	 M205.9,294.7l-2.4,0.5l-0.9,1.5h2.4C205.4,296,205.7,295.4,205.9,294.7 M205.1,298.1c-0.4,0-0.7,0-1.1,0c-0.3,0.4-0.6,0.7-1,1
	c0.7,0.1,1.5,0.2,2.2,0.3c0.4-0.4,0.8-0.9,1.1-1.3C205.9,298.1,205.5,298.1,205.1,298.1 M204.1,298.1c0.4-0.5,0.7-1,1-1.5h-2.4
	l-0.3,0.4l-0.8,0.8C202.4,298,203.2,298,204.1,298.1 M205.1,296.7c-0.3,0.5-0.6,1-1,1.5c0.3,0,0.7,0,1.1,0c0.4,0,0.8,0,1.2,0
	c0.4-0.6,0.7-1.2,0.9-1.8l-2,0.4h-0.2 M203.6,295.2l0.5-1.1l0.2-0.7l-1.8,0.4c-0.2,0.6-0.5,1.1-0.9,1.6L203.6,295.2 M205.9,294.7
	c0.2-0.7,0.3-1.4,0.4-2l-1.6,0.5l-0.5,0.1L204,294l-0.5,1.1L205.9,294.7 M207,294.5l-1.1,0.2c-0.2,0.7-0.5,1.3-0.9,2h0.2l2-0.4
	c0.3-0.7,0.4-1.4,0.6-2.1L207,294.5 M213.9,300.9c0.3-0.2,0.6-0.3,0.9-0.5l-1.5,0.2l-0.4,0.9C213.2,301.2,213.5,301.1,213.9,300.9
	 M215.9,299.5c0.1-0.1,0.2-0.2,0.4-0.3c0.7-0.6,1.4-1.2,2-1.9c-0.8,0.3-1.6,0.6-2.3,0.9l-0.2,1.5
	C215.8,299.6,215.8,299.5,215.9,299.5 M216.9,300.2l-0.7-0.4l0.2,0.1C216.5,300,216.7,300.1,216.9,300.2 M216.2,299.8l0.7,0.4
	c1,0.4,2.2,0.1,3.6-0.7c1.6-0.9,2.9-2.4,4.1-4.3c1.1-1.9,1.7-3.8,1.7-5.6c0-1.6-0.4-2.8-1.2-3.6l-1.1-0.5c-0.4,2.5-1.3,5.1-2.8,7.8
	c-0.9,1.5-1.9,2.9-2.9,4.1c-0.7,0.7-1.3,1.3-2,1.9h0.3l1.5-0.4l1.5-0.9l1.5-1.4l1.3-1.6l1.1-1.9l0.7-2l0.4-1.9l-0.1-1.8l-0.3-1.1
	l0.3,1.1l0.1,1.8l-0.4,1.9l-0.7,2l-1.1,1.9l-1.3,1.6l-1.5,1.4l-1.5,0.9l-1.5,0.4h-0.3c-0.1,0.1-0.3,0.2-0.4,0.3L216.2,299.8
	 M210.2,302.1l-2.1-0.4c-0.1,0.1-0.3,0.2-0.4,0.4c1.5,0.4,3.3,0.2,5.2-0.7l0.4-0.9l-2.1,0.2L210.2,302.1 M208,300.8h1
	c0.3-0.4,0.6-0.9,0.9-1.4c-0.8,0.1-1.5,0.1-2.3,0.1c-0.1,0-0.1,0-0.1,0c-0.3,0.3-0.6,0.7-0.9,1L208,300.8 M209,300.8
	c-0.3,0.3-0.6,0.7-0.9,1l2.1,0.4l0.9-1.4H209 M208.1,301.8c0.3-0.3,0.6-0.6,0.9-1h-1l-1.4-0.2c-0.2,0.2-0.4,0.4-0.6,0.6l0.5,0.3h0.1
	L208.1,301.8 M211.1,300.8l0.3-0.5l0.5-1.1c-0.7,0.1-1.4,0.2-2.1,0.2c-0.3,0.5-0.6,0.9-0.9,1.4H211.1 M211.4,300.3l-0.3,0.5l2.1-0.2
	l0.4-1l0.2-0.8c-0.6,0.2-1.3,0.3-1.9,0.4L211.4,300.3 M210.7,297.5c-0.8,0.2-1.5,0.3-2.2,0.4c-0.3,0.6-0.7,1.1-1.1,1.6h0.1
	c0.8,0,1.5,0,2.3-0.1C210.2,298.8,210.5,298.2,210.7,297.5 M212.2,298.7l0.4-1.6c-0.6,0.2-1.3,0.3-1.9,0.5c-0.2,0.7-0.5,1.3-0.9,1.9
	c0.7-0.1,1.4-0.1,2.1-0.2L212.2,298.7 M208.5,297.9c0.3-0.6,0.5-1.3,0.7-2l-1.9,0.4c-0.3,0.6-0.6,1.2-0.9,1.8
	C207.1,298,207.8,298,208.5,297.9 M209.5,295.9h-0.3c-0.2,0.7-0.4,1.3-0.7,2c0.7-0.1,1.5-0.2,2.2-0.4c0.2-0.7,0.3-1.4,0.4-2.2
	L209.5,295.9 M209.5,293.6l-1.7,0.6c-0.1,0.7-0.3,1.4-0.6,2.1l1.9-0.4C209.3,295.2,209.4,294.4,209.5,293.6 M211.2,294.3
	c0-0.4,0-0.8-0.1-1.2l-1.6,0.6c0,0.8-0.1,1.6-0.3,2.3h0.3l1.6-0.6C211.2,295,211.2,294.6,211.2,294.3 M212.8,295.2v-0.5l-1.6,0.6
	c-0.1,0.8-0.2,1.5-0.4,2.2c0.6-0.2,1.3-0.3,1.9-0.5v0L212.8,295.2 M215.9,298.2c-0.7,0.2-1.4,0.4-2.1,0.6l-0.2,0.8l-0.4,1l1.5-0.2
	c0.3-0.2,0.7-0.5,1-0.7L215.9,298.2 M214.1,297.8l0.1-1.4c-0.6,0.2-1.1,0.4-1.6,0.6l-0.4,1.6l-0.2,0.5c0.7-0.1,1.3-0.3,1.9-0.4
	L214.1,297.8 M214.3,296.4l-0.1,1.4l-0.2,1c0.7-0.2,1.4-0.4,2.1-0.6l0.1-1.1l-0.1-1.3C215.3,296,214.7,296.2,214.3,296.4 M208,292.4
	c0-0.1,0-0.2,0-0.4l-1.7,0.6c-0.1,0.7-0.2,1.4-0.4,2l1.1-0.2l0.8-0.3C207.9,293.6,208,293,208,292.4 M202.9,292.3l-1.1,0.2
	c-0.4,0.3-0.9,0.6-1.2,0.8l-0.3,0.7h0.3l1.9-0.3C202.6,293.2,202.7,292.7,202.9,292.3 M204.6,291.7l-0.1,0.6l-0.2,1l0.5-0.1l1.6-0.5
	c0-0.4,0.1-0.8,0.1-1.1c0-0.2,0-0.4,0-0.6L204.6,291.7 M204.6,291.7l-1.7,0.6c-0.1,0.5-0.3,0.9-0.4,1.4l1.8-0.4l0.2-1L204.6,291.7
	 M202.9,292.3c0-0.3,0.1-0.5,0.1-0.8c-0.4,0.3-0.8,0.6-1.2,0.9L202.9,292.3 M204.7,290.5l-0.1-0.6c-0.4,0.4-0.7,0.8-1.1,1.1
	c-0.2,0.2-0.3,0.3-0.5,0.5c-0.1,0.2-0.1,0.5-0.1,0.8l1.7-0.6L204.7,290.5 M210.9,275.3c0-3-0.9-5.2-2.7-6.4l-0.8-0.5
	c-0.1-0.1-0.2-0.1-0.2-0.1c-1.7-0.7-3.6-0.5-5.9,0.6H201c0.1,0.4,0.2,0.7,0.2,1.1v3.6l2.2,1.2l0.9,0.8l0.6,1.2l0.1,1.6l-0.2,1.8
	l-0.6,1.8l-0.9,1.8l-1.2,1.5l-1.4,1.1l-1.4,0.8l-1.1,0.2v7.1l-0.2,0.8l0.7,0.1h0.8l0.9-1.4H199c-0.2,0.1-0.4,0.1-0.6,0.2
	c0.2-0.1,0.4-0.1,0.6-0.2c0.5-0.2,1-0.5,1.6-0.8c0.4-0.2,0.8-0.5,1.2-0.8s0.8-0.6,1.2-0.9c0.2-0.2,0.3-0.3,0.5-0.5
	c0.4-0.3,0.7-0.7,1.1-1.1c1.2-1.3,2.3-2.8,3.2-4.5C209.9,282,210.9,278.6,210.9,275.3 M208.3,268.9c1.8,1.2,2.7,3.4,2.7,6.4
	c0,3.3-1,6.7-3.1,10.2c-1,1.7-2.1,3.1-3.2,4.5l0.1,0.6l-0.1,1.1l1.8-0.7c0-0.4-0.1-0.9-0.1-1.2c0.1,0.4,0.1,0.8,0.1,1.2l0.6-0.2
	l-0.6,0.2c0,0.2,0,0.4,0,0.6c0,0.4,0,0.8-0.1,1.1l1.7-0.6c0-0.5-0.1-1-0.2-1.4c0.1,0.4,0.1,0.9,0.2,1.4l0.8-0.3l-0.8,0.3
	c0,0.1,0,0.2,0,0.4c0,0.6-0.1,1.2-0.2,1.8l1.7-0.6c0-0.1,0-0.2,0-0.3c0-0.6-0.1-1.2-0.2-1.8c0.1,0.6,0.2,1.2,0.2,1.8
	c0,0.1,0,0.2,0,0.3l1.6-0.6c0-0.2-0.1-0.4-0.1-0.5c0,0.2,0.1,0.3,0.1,0.5c0,0.4,0.1,0.8,0.1,1.2c0,0.4,0,0.7-0.1,1l1.6-0.6l-0.1-1.3
	l0.1,1.3l0.7-0.2l-0.7,0.2v0.5l-0.1,1.8v0.1c0.5-0.2,1.1-0.4,1.6-0.6v-0.4l-0.1-1.8l0.1,1.8v0.4c0.5-0.2,1-0.4,1.7-0.6l-0.1-0.5
	l0.1,0.5l0.1,1.3l-0.1,1.1c0.8-0.3,1.5-0.6,2.3-0.9c1-1.2,2-2.6,2.9-4.1c1.5-2.6,2.4-5.2,2.8-7.8c0.1-0.8,0.2-1.6,0.2-2.5
	c0-3.3-1-5.5-3-6.7c-0.2-0.1-0.4-0.2-0.7-0.3L208.3,268.9 M208.3,268.9c-0.1-0.1-0.3-0.2-0.4-0.2c-0.1-0.1-0.3-0.1-0.4-0.2
	L208.3,268.9 M189.9,285.5l-0.1,0.1l-0.2,0.1L189.9,285.5 M190.8,282.2v0.7v0.9v0.7c0.1-0.2,0.2-0.4,0.2-0.8
	C191.1,283.2,191,282.7,190.8,282.2 M186.3,280.2l0.1-0.1L186.3,280.2L186.3,280.2 M197.5,278.1l-0.9-1.4l-8.8,0.3l-2.8-0.3
	l-2.2,2.9l-2.4,2.1l0.1,0.5l1.2-0.7c0.5-1.3,1.6-2.4,3.2-3.1c1.7-0.8,3.7-1.1,5.9-1.1c2.6,0,4.8,0.6,6.6,1.6
	c1.9,1.1,2.8,2.4,2.8,3.9c0,0.6-0.1,1.1-0.4,1.6l0.6-0.5l0.6-1.2l0.2-1.1l-2.5-2L197.5,278.1 M188.2,279.6l0.7-0.4l1.8-0.1l1.8,0.1
	l1.6,0.5l1.4,0.6l1,0.9l0.5,1l0.4,0.4l0.6,1.2v3.6l1.1-0.2l1.4-0.8l1.4-1.1l1.2-1.5l0.9-1.8l0.6-1.8l0.2-1.8l-0.1-1.6l-0.6-1.2
	l-0.9-0.8l-2.2-1.2v7.8l-0.2,1.1l-0.6,1.2l-0.6,0.5c-0.1,0.2-0.3,0.4-0.4,0.6c-0.2,0.3-0.5,0.6-0.9,0.9c0.4-0.3,0.7-0.6,0.9-0.9
	c0.2-0.2,0.3-0.4,0.4-0.6c0.3-0.5,0.4-1.1,0.4-1.6c0-1.5-0.9-2.8-2.8-3.9c-1.8-1.1-4.1-1.6-6.6-1.6c-2.2,0-4.2,0.4-5.9,1.1
	c-1.7,0.8-2.8,1.8-3.2,3.1l2.3-1.3l0.5-0.2l0.5-0.1h0.1c1.5-1,3.5-1.5,5.8-1.5c2,0,3.8,0.4,5.4,1.1c1.5,0.8,2.3,1.8,2.5,2.9l0.1,0.1
	v0.1l0.1,0.1v0.4l-0.1,0.1v0.1l-0.1,0.1l-0.1,0.3l0.1-0.3l0.1-0.1V283l0.1-0.1v-0.4l-0.1-0.1v-0.1l-0.1-0.1c-0.2-1.1-1-2.1-2.5-2.9
	s-3.3-1.1-5.4-1.1c-2.3,0-4.3,0.5-5.8,1.5l0.6,0.1l0.6,0.2l0.2-0.1l0.6-0.3C187.3,279.6,187.7,279.5,188.2,279.6 M183.4,266
	c-0.5,0.3-0.9,0.6-1.3,0.9c-1.1,0.9-1.7,2-1.8,3.2l0.1,11.6l2.4-2.1l2.2-2.9l-0.1-11.4C184.4,265.5,183.9,265.7,183.4,266
	 M190.7,264.2c-2.2,0-4.2,0.4-5.9,1.1l0.1,11.4l2.8,0.3l8.8-0.3l-0.1-11.6C194.8,264.4,192.9,264.1,190.7,264.2 M199.4,266.7
	c-0.4-0.3-0.8-0.6-1.2-0.9c-0.5-0.3-1.1-0.5-1.6-0.8l0.1,11.6l0.9,1.4l1.2,1.4l2.5,2v-7.8V270c0-0.4-0.1-0.8-0.2-1.1
	C200.8,268.1,200.2,267.3,199.4,266.7 M199.4,266.7v-0.1c0-1.4-0.9-2.5-2.6-3.5c-1.7-1-3.7-1.4-6.1-1.4s-4.4,0.5-6.1,1.5
	c-1.7,1-2.5,2.2-2.4,3.7c0.4-0.3,0.8-0.6,1.3-0.9s0.9-0.5,1.4-0.7c1.7-0.7,3.7-1.1,5.9-1.1c2.1,0,4.1,0.3,5.8,0.9
	c0.6,0.2,1.1,0.5,1.6,0.8C198.6,266.1,199,266.4,199.4,266.7z"/>
<path class="st14" d="M191.1,328.2l1.2,0.5l1.4,0.2l1.5-0.2l1.1-0.5l0.6-0.8l-0.4-0.8l-0.9-0.6l-1.2-0.3l-1.3,0.1l-1.2,0.4l-0.8,0.6
	l-0.9,0.5L191.1,328.2z"/>
<path class="st15" d="M190.8,290.9h-1.2l-4.6,2.6l-0.2-0.1l-0.3,1v2.2v29l0.3,0.9l0.9,0.7l1.4,0.4l1.6,0.1l1.4-0.4l0.1-0.1l0.9-0.5
	l0.8-0.6l1.2-0.4l1.3-0.1l1.2,0.3l0.9,0.6l0.4,0.8v-30.7v-2.1l-0.3-1.1l-0.9-1l-1.4-0.8l-1.8-0.5L190.8,290.9 M192.1,281.9
	c0-0.4-0.2-0.6-0.6-0.6c-0.4,0-0.7,0.2-0.7,0.6v0.3c0.2,0.5,0.2,1,0.2,1.5c0,0.3-0.1,0.6-0.2,0.8v3.7c0,0.4,0.2,0.6,0.7,0.6
	c0.4,0,0.6-0.2,0.6-0.6V281.9 M197.1,283.5c-0.4,0-0.6,0.2-0.6,0.7v6.2c0,0.4,0.2,0.6,0.6,0.6c0.3,0,0.5-0.2,0.5-0.6v-6.2
	C197.6,283.7,197.5,283.5,197.1,283.5 M194.4,282c-0.4,0-0.7,0.2-0.7,0.6v6.2c0,0.4,0.2,0.6,0.7,0.6s0.7-0.2,0.7-0.6v-6.2
	C195.1,282.2,194.9,282,194.4,282 M188.9,279.3l-0.7,0.4c0.2,0,0.4,0.1,0.6,0.2l1.1,0.4h0.8l2.1,0.1l1.9,0.4l1.6,0.8l0.8,0.6l-0.5-1
	l-1-0.9l-1.4-0.6l-1.6-0.5l-1.8-0.1L188.9,279.3z"/>
<path id="Layer1_40_1_STROKES" class="st16" d="M180.5,282.1l-0.1-0.5l-0.1-11.6c0-1.2,0.6-2.3,1.8-3.2c-0.1-1.5,0.7-2.7,2.4-3.7
	s3.7-1.5,6.1-1.5s4.4,0.4,6.1,1.4c1.7,1,2.6,2.1,2.6,3.5v0.1c0.8,0.7,1.4,1.4,1.6,2.2h0.4c2.2-1.1,4.2-1.3,5.9-0.6
	c0.1,0,0.1,0,0.2,0.1c0.1,0.1,0.3,0.1,0.4,0.2c0.1,0.1,0.3,0.1,0.4,0.2l12.2,7.1c0.3,0.1,0.5,0.2,0.7,0.3c2,1.2,3,3.4,3,6.7
	c0,0.8-0.1,1.6-0.2,2.5l1.1,0.5l1.8,1l0.9,0.6l0.5,0.2c0.1,0.1,0.3,0.2,0.5,0.3c0.4,0.3,0.7,0.8,0.9,1.4l0.6,1l6.3,3.6l1.6,0.9
	c1,0.6,1.5,1.6,1.5,3.2c0,0.1,0,0.2,0,0.2l1.2,0.9l6.9,3.9l8,4.7v6.9l-0.4,0.2l-2.9,1.6L235,306.2c-0.1,0.1-0.2,0.1-0.4,0.2
	c-1.3,0.8-2.5,1-3.5,0.5l-1.5-0.9l-7-4c-1.1,0.4-2,0.4-2.9-0.1l-1.6-1l-1.6-0.9c-0.2-0.1-0.3-0.1-0.5-0.2l-0.2-0.1l-0.3-0.2
	c-0.1,0-0.1,0.1-0.1,0.1c-0.3,0.2-0.7,0.5-1,0.7s-0.6,0.3-0.9,0.5c-0.3,0.2-0.7,0.4-1,0.5c-1.9,0.9-3.7,1.1-5.2,0.7
	c-0.4-0.1-0.8-0.3-1.1-0.6h-0.1l-0.5-0.3l-1.9-1l-0.2-0.1l-1.1-0.6L202,299l-0.9-0.5l-1.6-0.9l-0.3-0.1l-1.1-0.7l-0.8-0.4l-0.3,0.4
	v30.7l-0.6,0.8l-1.1,0.5l-1.5,0.2l-1.4-0.2l-1.2-0.5l-0.8-0.9l-0.1,0.1l-1.4,0.4l-1.6-0.1l-1.4-0.4l-0.9-0.7l-0.3-0.9v-29l-0.8-1
	l-0.3-1.2l0.3-1.2l0.3-0.4l-0.1-0.1l-0.2-0.8l-0.1-0.7l-0.4-0.7l-0.6-0.5l-1.1-0.4l-1.2-1l-1-1.4l-0.6-1.5l-0.2-1.5l0.3-1.1l0.8-0.6
	L180.5,282.1l1.2-0.7c0.5-1.3,1.6-2.4,3.2-3.1c1.7-0.8,3.7-1.1,5.9-1.1c2.6,0,4.8,0.6,6.6,1.6c1.9,1.1,2.8,2.4,2.8,3.9
	c0,0.6-0.1,1.1-0.4,1.6l0.6-0.5l0.6-1.2l0.2-1.1l-2.5-2l-1.2-1.4l-0.9-1.4l-8.8,0.3l-2.8-0.3l-2.2,2.9l-2.4,2.1 M199.4,266.7
	c-0.4-0.3-0.8-0.6-1.2-0.9c-0.5-0.3-1.1-0.5-1.6-0.8l0.1,11.6 M196.5,265.1c-1.7-0.6-3.6-0.9-5.8-0.9s-4.2,0.4-5.9,1.1l0.1,11.4
	 M184.9,265.3c-0.5,0.2-1,0.4-1.4,0.7c-0.5,0.3-0.9,0.6-1.3,0.9 M197,282.2l-0.5-1l-1-0.9l-1.4-0.6l-1.6-0.5l-1.8-0.1l-1.8,0.1
	l-0.7,0.4c0.2,0,0.4,0.1,0.6,0.2l1.1,0.4h0.8l2.1,0.1l1.9,0.4l1.6,0.8L197,282.2l0.4,0.4l0.6,1.2v3.6l1.1-0.2l1.4-0.8l1.4-1.1
	l1.2-1.5l0.9-1.8l0.6-1.8l0.2-1.8l-0.1-1.6l-0.6-1.2l-0.9-0.8l-2.2-1.2v7.8 M185.1,279.8c1.5-1,3.5-1.5,5.8-1.5c2,0,3.8,0.4,5.4,1.1
	c1.5,0.8,2.3,1.8,2.5,2.9l0.1,0.1v0.1l0.1,0.1v0.4l-0.1,0.1v0.1l-0.1,0.1l-0.1,0.3 M181.7,281.5l2.3-1.3l0.5-0.2l0.5-0.1h0.1
	l0.6,0.1l0.6,0.2l0.2-0.1l0.6-0.3c0.4-0.2,0.8-0.2,1.2-0.1 M186.4,280.1l-0.1,0.1l-0.3,0.6l-0.1,1l0.2,0.6l0.4-0.2l1.2-0.2h1.3
	l1.1,0.4l0.7,0.6v-0.7c-0.1-0.3-0.2-0.5-0.3-0.8c-0.4-0.7-1-1.3-1.7-1.6 M186.2,280.2L186.2,280.2 M186.1,282.4l-0.6,0.4l0.3,0.8
	l0.6-0.2l0.6-0.3l1.4-0.1l1.4,0.2l1.1,0.6v-0.9 M189.6,285.7l-0.3,0.1l-1.5,0.8h-0.1l-0.9-0.1l-0.9-0.6l-0.8-1l-0.6-1.1l-0.3-1.1
	l0.1-1l0.4-0.7l0.2-0.1l1.2-0.6 M184,280.2l-0.3,0.4l-0.2,0.6l-0.1,0.6l0.1,0.8l0.5,1.6l0.9,1.5l1.2,1.2l0.6,0.3l0.6,0.2l0.6,0.5
	l0.4,0.7l0.1,0.7l0.2,0.8l0.6,0.5l0.6,0.1v-0.5V286 M186.4,283.3l0.4,0.7l0.8,0.9l0.9,0.6l0.8,0.2 M193.8,282.7v6.2
	c0,0.4,0.2,0.6,0.7,0.6s0.7-0.2,0.7-0.6v-6.2c0-0.4-0.2-0.6-0.7-0.6C194,282,193.8,282.2,193.8,282.7z M196.6,284.1v6.2
	c0,0.4,0.2,0.6,0.6,0.6c0.3,0,0.5-0.2,0.5-0.6v-6.2c0-0.4-0.2-0.7-0.5-0.7C196.8,283.5,196.6,283.7,196.6,284.1z M190.8,282.2v-0.3
	c0-0.4,0.2-0.6,0.7-0.6c0.4,0,0.6,0.2,0.6,0.6v6.2c0,0.4-0.2,0.6-0.6,0.6c-0.4,0-0.7-0.2-0.7-0.6v-3.7c-0.2,0.4-0.4,0.7-0.8,0.9
	l-0.2,0.1l0.1-0.1l-0.4,0.2l0.2-0.1 M190.8,284.5c0.1-0.2,0.2-0.4,0.2-0.8c0-0.5,0-1-0.2-1.5 M190.8,283.8v0.7 M198.1,294.5
	l-0.3-1.2l-0.8-1.1l-1.4-0.9l-1.8-0.6l-2-0.4h-2.1h-0.1 M189.7,290.8L189.7,290.8l1.1,0.1l1.9,0.2l1.8,0.5l1.4,0.8l0.9,1l0.3,1.1
	v2.1 M208.3,268.9c1.8,1.2,2.7,3.4,2.7,6.4c0,3.3-1,6.7-3.1,10.2c-1,1.7-2.1,3.1-3.2,4.5l0.1,0.6l-0.1,1.1l1.8-0.7
	c0-0.4-0.1-0.9-0.1-1.2 M201.2,273.6V270c0-0.4-0.1-0.8-0.2-1.1 M198.5,285.9c0.4-0.3,0.7-0.6,0.9-0.9c0.2-0.2,0.3-0.4,0.4-0.6
	 M204.6,289.9c-0.4,0.4-0.7,0.8-1.1,1.1c-0.2,0.2-0.3,0.3-0.5,0.5c-0.1,0.2-0.1,0.5-0.1,0.8l1.7-0.6l-0.1,0.6l-0.2,1l0.5-0.1
	l1.6-0.5c0-0.4,0.1-0.8,0.1-1.1c0-0.2,0-0.4,0-0.6l0.6-0.2 M201.8,292.5c-0.4,0.3-0.9,0.6-1.2,0.8l-0.3,0.7h0.3l1.9-0.3
	c0.2-0.5,0.3-0.9,0.4-1.4L201.8,292.5c0.4-0.3,0.8-0.6,1.2-0.9 M207.8,290.7c0.1,0.4,0.1,0.9,0.2,1.4l0.8-0.3 M208,292.1l-1.7,0.6
	c-0.1,0.7-0.2,1.4-0.4,2l1.1-0.2l0.8-0.3c0.1-0.6,0.2-1.2,0.2-1.8C208,292.3,208,292.2,208,292.1z M207.5,268.4l0.8,0.5
	 M213.4,294.5l-0.7,0.2v0.5l-0.1,1.8v0.1c0.5-0.2,1.1-0.4,1.6-0.6v-0.4l-0.1-1.8 M214.1,297.8l-0.2,1c0.7-0.2,1.4-0.4,2.1-0.6
	l0.1-1.1l-0.1-1.3c-0.6,0.2-1.2,0.5-1.7,0.6L214.1,297.8z M215.9,295.3l0.1,0.5 M211,292.5c0,0.2,0.1,0.3,0.1,0.5
	c0,0.4,0.1,0.8,0.1,1.2c0,0.4,0,0.7-0.1,1l1.6-0.6l-0.1-1.3 M207.8,294.2c-0.1,0.7-0.3,1.4-0.6,2.1l1.9-0.4c0.2-0.7,0.3-1.5,0.3-2.3
	L207.8,294.2z M209.3,291.5c0.1,0.6,0.2,1.2,0.2,1.8c0,0.1,0,0.2,0,0.3l1.6-0.6 M209.2,296c-0.2,0.7-0.4,1.3-0.7,2
	c0.7-0.1,1.5-0.2,2.2-0.4c0.2-0.7,0.3-1.4,0.4-2.2l-1.6,0.6H209.2z M210.7,297.5c-0.2,0.7-0.5,1.3-0.9,1.9c0.7-0.1,1.4-0.1,2.1-0.2
	l0.2-0.5l0.4-1.6C212,297.2,211.4,297.3,210.7,297.5z M211.4,300.3l-0.3,0.5l2.1-0.2l0.4-1l0.2-0.8c-0.6,0.2-1.3,0.3-1.9,0.4
	L211.4,300.3z M206.6,301.5l1.5,0.2c0.3-0.3,0.6-0.6,0.9-1h-1l-1.4-0.2c-0.2,0.2-0.4,0.4-0.6,0.6 M209,300.8
	c0.3-0.4,0.6-0.9,0.9-1.4c-0.8,0.1-1.5,0.1-2.3,0.1c-0.1,0-0.1,0-0.1,0c-0.3,0.3-0.6,0.7-0.9,1l-2.1-0.3l-0.4-0.1 M208.1,301.8
	l2.1,0.4l0.9-1.4H209 M216.2,299.8l0.7,0.4c1,0.4,2.2,0.1,3.6-0.7c1.6-0.9,2.9-2.4,4.1-4.3c1.1-1.9,1.7-3.8,1.7-5.6
	c0-1.6-0.4-2.8-1.2-3.6 M224.1,286.3l0.3,1.1l0.1,1.8l-0.4,1.9l-0.7,2l-1.1,1.9l-1.3,1.6l-1.5,1.4l-1.5,0.9l-1.5,0.4h-0.3
	c-0.1,0.1-0.3,0.2-0.4,0.3 M212.9,301.4l0.4-0.9l1.5-0.2 M216.2,299.2c0.7-0.6,1.4-1.2,2-1.9c-0.8,0.3-1.6,0.6-2.3,0.9l-0.2,1.5
	 M204.3,293.3l-0.2,0.7l-0.5,1.1l2.4-0.5c-0.2,0.7-0.5,1.3-0.9,2h0.2l2-0.4c-0.3,0.6-0.6,1.2-0.9,1.8c0.7-0.1,1.5-0.1,2.2-0.2
	c-0.3,0.6-0.7,1.1-1.1,1.6c-0.7,0-1.5,0-2.2-0.1c-0.3,0.3-0.5,0.5-0.8,0.8 M205.1,296.7c-0.3,0.5-0.6,1-1,1.5c0.3,0,0.7,0,1.1,0
	c0.4,0,0.8,0,1.2,0c-0.3,0.5-0.6,0.9-1.1,1.3c-0.7-0.1-1.5-0.2-2.2-0.3c-0.1,0.1-0.2,0.1-0.2,0.2 M200.2,294l-0.9,1.4h2.2
	c0.3-0.5,0.6-1.1,0.9-1.6l1.8-0.4 M197.3,296.3l0.1-0.1l0.3-0.5l0.1-0.5l0.2-0.8v-7.1 M200.2,294H199c-0.2,0.1-0.4,0.1-0.6,0.2
	 M197.9,295.2l0.7,0.1h0.8l-0.9,1l2.1,0.4c0.4-0.4,0.7-0.9,1.1-1.4l2-0.1l-0.9,1.5h2.4 M199.5,297.5h0.1c0.3-0.3,0.6-0.5,0.9-0.9
	h0.5h1.7l-0.3,0.4l-0.8,0.8c0.8,0.1,1.6,0.2,2.4,0.2c-0.3,0.4-0.6,0.7-1,1c-0.4-0.1-0.7-0.1-1.1-0.2 M198.4,296.3l-0.3,0.4
	 M201.1,298.5l0.5-0.6c-0.7-0.1-1.3-0.2-2-0.4 M200.6,293.3c-0.5,0.3-1.1,0.5-1.6,0.8 M208.1,301.8c-0.1,0.1-0.3,0.2-0.4,0.4
	 M184.5,296.7v-2.2l0.3-1h-0.3L184,293 M184.8,293.5l0.2,0.1l4.6-2.6 M197,327.4l-0.4-0.8l-0.9-0.6l-1.2-0.3l-1.3,0.1l-1.2,0.4
	l-0.8,0.6l-0.9,0.5 M197.4,296.2l0.9,0.1 M222.9,302.2c0.4-0.1,0.8-0.3,1.2-0.6c1.6-0.9,3-2.4,4.1-4.4s1.7-3.9,1.7-5.8
	c0-0.8-0.1-1.5-0.2-2 M226.8,287c0.8,0.7,1.2,1.9,1.2,3.5c0,1.8-0.6,3.7-1.7,5.7c-1.1,1.9-2.4,3.4-4,4.3c-1.5,0.9-2.8,1.1-3.9,0.6
	 M227.8,287.5l1,0.5 M235.2,306.5c1.2-0.8,2.2-1.9,3-3.4c0.9-1.5,1.4-3.1,1.5-4.6 M247.8,303.2l0.3,0.2l0.6,0.8l0.2,0.9l6,3.3v5.2
	l-2.7-1.5l-4.7-2.8l-0.1,0.1l-0.5,0.5l8.6,5 M236.7,294.1L236.7,294.1c1,0.6,1.5,1.7,1.5,3.2v0.1c0,1.5-0.5,3.1-1.4,4.8
	c-1,1.6-2.1,2.8-3.4,3.6c-1.3,0.8-2.5,0.9-3.5,0.4 M252.2,312.2l0.1-2.1l-3.6-2.1l-0.2-0.2l-0.2,0.5l-0.8,1.2 M248.9,305.1l0.1,0.2
	l-0.2,1.4l-0.4,1 M252.2,310l2.6-1.6 M224,285.4c-0.4,2.5-1.3,5.1-2.8,7.8c-0.9,1.5-1.9,2.9-2.9,4.1"/>
<path class="st3" d="M268.4,160.2l1.7,0.5c-0.3,0.9-0.7,1.6-1.3,2.1s-1.4,0.7-2.3,0.7c-1.1,0-2.1-0.4-2.8-1.2s-1.1-1.8-1.1-3.2
	s0.4-2.5,1.1-3.3s1.7-1.2,2.9-1.2c1.1,0,1.9,0.3,2.6,0.9c0.4,0.4,0.7,0.9,0.9,1.6l-1.7,0.4c-0.1-0.4-0.3-0.8-0.6-1.1
	s-0.7-0.4-1.2-0.4c-0.6,0-1.2,0.2-1.5,0.7s-0.6,1.2-0.6,2.2c0,1.1,0.2,1.9,0.6,2.3s0.9,0.7,1.5,0.7c0.5,0,0.9-0.1,1.2-0.4
	S268.2,160.8,268.4,160.2z"/>
<path class="st3" d="M271.6,163.3v-8.6h1.7v3.4h3.4v-3.4h1.7v8.6h-1.7v-3.8h-3.4v3.8H271.6z"/>
<path class="st3" d="M280.2,163.3v-8.6h1.7v8.6H280.2z"/>
<path class="st3" d="M283.5,163.3v-8.6h2.8c1.1,0,1.7,0,2.1,0.1c0.5,0.1,0.9,0.4,1.2,0.8s0.5,1,0.5,1.7c0,0.5-0.1,1-0.3,1.3
	s-0.4,0.6-0.7,0.8s-0.6,0.3-0.9,0.4c-0.4,0.1-1,0.1-1.8,0.1h-1.1v3.2h-1.8V163.3z M285.3,156.2v2.4h0.9c0.7,0,1.1,0,1.4-0.1
	s0.4-0.2,0.5-0.4s0.2-0.4,0.2-0.7s-0.1-0.6-0.3-0.8s-0.4-0.3-0.7-0.4c-0.2,0-0.6-0.1-1.2-0.1h-0.8V156.2z"/>
<path class="st3" d="M262.9,169.1h3.2c0.7,0,1.3,0.1,1.6,0.2c0.5,0.1,0.9,0.4,1.3,0.8s0.6,0.8,0.8,1.4s0.3,1.2,0.3,2
	c0,0.7-0.1,1.3-0.3,1.8c-0.2,0.6-0.5,1.1-0.9,1.5c-0.3,0.3-0.7,0.5-1.2,0.7c-0.4,0.1-0.9,0.2-1.5,0.2h-3.3V169.1z M264.6,170.6v5.7
	h1.3c0.5,0,0.8,0,1-0.1c0.3-0.1,0.5-0.2,0.7-0.4s0.3-0.4,0.5-0.8s0.2-0.9,0.2-1.6s-0.1-1.2-0.2-1.5s-0.3-0.6-0.5-0.8
	s-0.5-0.3-0.8-0.4c-0.2-0.1-0.7-0.1-1.4-0.1L264.6,170.6L264.6,170.6z"/>
<path class="st3" d="M271.5,177.7v-8.6h6.4v1.5h-4.6v1.9h4.3v1.4h-4.3v2.3h4.8v1.4h-6.6V177.7z"/>
<path class="st3" d="M281.5,177.7v-7.1H279v-1.5h6.8v1.5h-2.5v7.1H281.5z"/>
<path class="st3" d="M286.9,177.7v-8.6h6.4v1.5h-4.6v1.9h4.3v1.4h-4.3v2.3h4.8v1.4h-6.6V177.7z"/>
<path class="st3" d="M300.4,174.6l1.7,0.5c-0.3,0.9-0.7,1.6-1.3,2.1s-1.4,0.7-2.3,0.7c-1.1,0-2.1-0.4-2.8-1.2s-1.1-1.8-1.1-3.2
	s0.4-2.5,1.1-3.3s1.7-1.2,2.9-1.2c1.1,0,1.9,0.3,2.6,0.9c0.4,0.4,0.7,0.9,0.9,1.6l-1.7,0.4c-0.1-0.4-0.3-0.8-0.6-1.1
	s-0.7-0.4-1.2-0.4c-0.6,0-1.2,0.2-1.5,0.7s-0.6,1.2-0.6,2.2c0,1.1,0.2,1.9,0.6,2.3s0.9,0.7,1.5,0.7c0.5,0,0.9-0.1,1.2-0.4
	S300.2,175.2,300.4,174.6z"/>
<path class="st3" d="M305.5,177.7v-7.1H303v-1.5h6.8v1.5h-2.5v7.1H305.5z"/>
<path class="st3" d="M310.3,173.5c0-0.9,0.1-1.6,0.4-2.2c0.2-0.4,0.5-0.8,0.8-1.2s0.7-0.6,1.1-0.8c0.5-0.2,1.2-0.3,1.9-0.3
	c1.3,0,2.3,0.4,3,1.2s1.1,1.9,1.1,3.3c0,1.4-0.4,2.5-1.1,3.3s-1.8,1.2-3,1.2c-1.3,0-2.3-0.4-3-1.2S310.3,174.8,310.3,173.5z
	 M312.1,173.4c0,1,0.2,1.7,0.7,2.2s1,0.8,1.7,0.8s1.3-0.2,1.7-0.7s0.7-1.2,0.7-2.2s-0.2-1.7-0.6-2.2s-1-0.7-1.7-0.7
	s-1.3,0.2-1.7,0.7S312.1,172.4,312.1,173.4z"/>
<path class="st3" d="M320,177.7v-8.6h3.7c0.9,0,1.6,0.1,2,0.2s0.7,0.4,1,0.8s0.4,0.8,0.4,1.4c0,0.6-0.2,1.2-0.6,1.6
	s-0.9,0.7-1.7,0.8c0.4,0.2,0.7,0.5,0.9,0.7s0.6,0.7,1,1.4l1,1.7h-2.1l-1.3-1.9c-0.4-0.7-0.8-1.1-0.9-1.3s-0.3-0.3-0.5-0.4
	s-0.5-0.1-0.9-0.1h-0.4v3.6H320V177.7z M321.7,172.8h1.3c0.8,0,1.4,0,1.6-0.1s0.4-0.2,0.5-0.4s0.2-0.4,0.2-0.6
	c0-0.3-0.1-0.5-0.2-0.7s-0.4-0.3-0.7-0.3c-0.1,0-0.6,0-1.3,0h-1.4V172.8z"/>
<path class="st3" d="M117.2,339.6h3.2c0.7,0,1.3,0.1,1.6,0.2c0.5,0.1,0.9,0.4,1.3,0.8s0.6,0.8,0.8,1.4s0.3,1.2,0.3,2
	c0,0.7-0.1,1.3-0.3,1.8c-0.2,0.6-0.5,1.1-0.9,1.5c-0.3,0.3-0.7,0.5-1.2,0.7c-0.4,0.1-0.9,0.2-1.5,0.2h-3.3V339.6z M119,341.1v5.7
	h1.3c0.5,0,0.8,0,1-0.1c0.3-0.1,0.5-0.2,0.7-0.4s0.3-0.4,0.5-0.8s0.2-0.9,0.2-1.6s-0.1-1.2-0.2-1.5s-0.3-0.6-0.5-0.8
	s-0.5-0.3-0.8-0.4c-0.2-0.1-0.7-0.1-1.4-0.1L119,341.1L119,341.1z"/>
<path class="st3" d="M125.9,348.2v-8.6h3.7c0.9,0,1.6,0.1,2,0.2s0.7,0.4,1,0.8s0.4,0.8,0.4,1.4s-0.2,1.2-0.6,1.6s-0.9,0.7-1.7,0.8
	c0.4,0.2,0.7,0.5,0.9,0.7s0.6,0.7,1,1.4l1,1.7h-2.1l-1.3-1.9c-0.4-0.7-0.8-1.1-0.9-1.3s-0.3-0.3-0.5-0.4s-0.5-0.1-0.9-0.1h-0.4v3.6
	L125.9,348.2L125.9,348.2z M127.6,343.3h1.3c0.8,0,1.4,0,1.6-0.1s0.4-0.2,0.5-0.4s0.2-0.4,0.2-0.6c0-0.3-0.1-0.5-0.2-0.7
	s-0.4-0.3-0.7-0.3c-0.1,0-0.6,0-1.3,0h-1.4V343.3z"/>
<path class="st3" d="M142.3,348.2h-1.9l-0.8-2h-3.4l-0.7,2h-1.8l3.3-8.6h1.8L142.3,348.2z M139.1,344.8l-1.2-3.2l-1.2,3.2H139.1z"/>
<path class="st3" d="M143.2,348.2v-8.6h1.7v8.6H143.2z"/>
<path class="st3" d="M146.6,348.2v-8.6h1.7l3.5,5.7v-5.7h1.6v8.6h-1.7l-3.5-5.6v5.6H146.6z"/>
<path class="st3" d="M158.6,348.2v-8.6h5.9v1.5h-4.2v2h3.6v1.5h-3.6v3.7h-1.7V348.2z"/>
<path class="st3" d="M165.8,348.2v-8.6h1.7v8.6H165.8z"/>
<path class="st3" d="M171.2,348.2v-7.1h-2.5v-1.5h6.8v1.5H173v7.1H171.2z"/>
<path class="st3" d="M178.5,348.2v-7.1H176v-1.5h6.8v1.5h-2.5v7.1H178.5z"/>
<path class="st3" d="M183.8,348.2v-8.6h1.7v8.6H183.8z"/>
<path class="st3" d="M187.2,348.2v-8.6h1.7l3.5,5.7v-5.7h1.6v8.6h-1.7l-3.5-5.6v5.6H187.2z"/>
<path class="st3" d="M199.9,345.1v-1.4h3.7v3.4c-0.4,0.4-0.9,0.7-1.6,0.9s-1.4,0.4-2.1,0.4c-0.9,0-1.7-0.2-2.3-0.6s-1.2-0.9-1.5-1.6
	s-0.5-1.5-0.5-2.3c0-0.9,0.2-1.7,0.6-2.4s0.9-1.2,1.6-1.6c0.6-0.3,1.2-0.4,2.1-0.4c1.1,0,1.9,0.2,2.5,0.7s1,1.1,1.2,1.9l-1.7,0.3
	c-0.1-0.4-0.3-0.8-0.7-1s-0.8-0.4-1.3-0.4c-0.8,0-1.4,0.2-1.8,0.7s-0.7,1.2-0.7,2.1c0,1,0.2,1.8,0.7,2.3s1,0.8,1.8,0.8
	c0.4,0,0.7-0.1,1.1-0.2s0.7-0.3,0.9-0.5v-1.1L199.9,345.1L199.9,345.1z"/>
<path class="st3" d="M211.3,350.7h-1.1c-0.6-0.9-1.1-1.8-1.4-2.8s-0.5-1.9-0.5-2.8c0-1.1,0.2-2.2,0.6-3.2c0.3-0.9,0.8-1.7,1.3-2.4
	h1.1c-0.5,1.2-0.9,2.2-1.1,3s-0.3,1.7-0.3,2.6c0,0.6,0.1,1.3,0.2,2s0.3,1.3,0.5,1.9C210.7,349.4,210.9,350,211.3,350.7z"/>
<path class="st3" d="M212.5,348.2v-8.6h2.8c1.1,0,1.7,0,2.1,0.1c0.5,0.1,0.9,0.4,1.2,0.8s0.5,1,0.5,1.7c0,0.5-0.1,1-0.3,1.3
	s-0.4,0.6-0.7,0.8s-0.6,0.3-0.9,0.4c-0.4,0.1-1,0.1-1.8,0.1h-1.1v3.2h-1.8V348.2z M214.3,341.1v2.4h0.9c0.7,0,1.1,0,1.4-0.1
	s0.4-0.2,0.5-0.4s0.2-0.4,0.2-0.7c0-0.3-0.1-0.6-0.3-0.8s-0.4-0.3-0.7-0.4c-0.2,0-0.6-0.1-1.2-0.1h-0.8V341.1z"/>
<path class="st3" d="M221.8,348.2l-2.1-8.6h1.8l1.3,5.9l1.6-5.9h2.1l1.5,6l1.3-6h1.7l-2.1,8.6h-1.8l-1.7-6.4l-1.7,6.4H221.8z"/>
<path class="st3" d="M237.4,345.1l1.7,0.5c-0.3,0.9-0.7,1.6-1.3,2.1s-1.4,0.7-2.3,0.7c-1.1,0-2.1-0.4-2.8-1.2s-1.1-1.8-1.1-3.2
	c0-1.4,0.4-2.5,1.1-3.3s1.7-1.2,2.9-1.2c1.1,0,1.9,0.3,2.6,0.9c0.4,0.4,0.7,0.9,0.9,1.6l-1.7,0.4c-0.1-0.4-0.3-0.8-0.6-1.1
	s-0.7-0.4-1.2-0.4c-0.6,0-1.2,0.2-1.5,0.7s-0.6,1.2-0.6,2.2c0,1.1,0.2,1.9,0.6,2.3s0.9,0.7,1.5,0.7c0.5,0,0.9-0.1,1.2-0.4
	S237.2,345.7,237.4,345.1z"/>
<path class="st3" d="M240.1,345.9l1.6-0.2c0.1,0.4,0.2,0.7,0.4,0.9s0.5,0.3,0.8,0.3s0.6-0.1,0.9-0.4s0.3-0.6,0.3-1s-0.1-0.7-0.3-1
	s-0.5-0.4-0.8-0.4c-0.2,0-0.5,0-0.8,0.1l0.2-1.3c0.4,0,0.8-0.1,1-0.3s0.4-0.5,0.4-0.8s-0.1-0.5-0.3-0.7s-0.4-0.3-0.7-0.3
	s-0.5,0.1-0.7,0.3s-0.3,0.5-0.4,0.9l-1.5-0.3c0.1-0.5,0.3-0.9,0.5-1.2s0.5-0.6,0.9-0.7s0.8-0.3,1.3-0.3c0.8,0,1.5,0.3,1.9,0.8
	c0.4,0.4,0.6,0.9,0.6,1.4c0,0.8-0.4,1.4-1.2,1.8c0.5,0.1,0.9,0.3,1.2,0.7s0.4,0.8,0.4,1.3c0,0.8-0.3,1.4-0.8,1.9s-1.2,0.8-2.1,0.8
	c-0.8,0-1.4-0.2-1.9-0.7S240.2,346.7,240.1,345.9z"/>
<path class="st3" d="M248.3,343.6c-0.4-0.2-0.7-0.4-0.9-0.7s-0.3-0.7-0.3-1c0-0.6,0.2-1.2,0.7-1.6s1.1-0.6,1.9-0.6
	c0.8,0,1.5,0.2,1.9,0.6s0.7,0.9,0.7,1.6c0,0.4-0.1,0.8-0.3,1.1s-0.5,0.5-0.9,0.7c0.5,0.2,0.8,0.5,1.1,0.8s0.4,0.8,0.4,1.3
	c0,0.8-0.3,1.4-0.8,1.9s-1.2,0.7-2,0.7s-1.4-0.2-2-0.6c-0.6-0.5-0.9-1.1-0.9-2c0-0.5,0.1-0.9,0.3-1.3S247.8,343.8,248.3,343.6z
	 M248.5,345.6c0,0.5,0.1,0.8,0.3,1.1s0.5,0.4,0.9,0.4c0.3,0,0.6-0.1,0.8-0.4s0.3-0.6,0.3-1.1c0-0.4-0.1-0.7-0.3-1s-0.5-0.4-0.9-0.4
	s-0.7,0.1-0.9,0.4S248.5,345.3,248.5,345.6z M248.6,341.9c0,0.3,0.1,0.6,0.3,0.8s0.4,0.3,0.7,0.3s0.6-0.1,0.8-0.3s0.3-0.4,0.3-0.8
	c0-0.3-0.1-0.6-0.3-0.7s-0.4-0.3-0.7-0.3s-0.6,0.1-0.8,0.3S248.6,341.6,248.6,341.9z"/>
<path class="st3" d="M257.7,348.2h-1.6V342c-0.6,0.6-1.3,1-2.1,1.2v-1.5c0.4-0.1,0.9-0.4,1.4-0.8s0.8-0.9,1-1.4h1.3L257.7,348.2
	L257.7,348.2z"/>
<path class="st3" d="M263.4,348.2v-1.7h-3.5V345l3.7-5.5h1.4v5.4h1.1v1.4H265v1.7h-1.6V348.2z M263.4,345v-2.9l-2,2.9H263.4z"/>
<path class="st3" d="M266.9,341.3v-1.5h5.6v1.2c-0.5,0.5-0.9,1.1-1.4,2s-0.8,1.8-1.1,2.7s-0.4,1.8-0.4,2.6H268
	c0-1.2,0.3-2.4,0.7-3.6s1.1-2.3,1.9-3.3h-3.7V341.3z"/>
<path class="st3" d="M273.4,350.7c0.3-0.7,0.6-1.2,0.7-1.6s0.3-0.8,0.4-1.3s0.2-0.9,0.3-1.4s0.1-0.9,0.1-1.3c0-0.9-0.1-1.8-0.3-2.6
	s-0.6-1.8-1.1-3h1.1c0.6,0.8,1,1.7,1.4,2.7s0.5,1.9,0.5,2.9c0,0.8-0.1,1.7-0.4,2.6c-0.3,1-0.8,2.1-1.4,3.1h-1.3V350.7z"/>
</svg>
