<?xml version="1.0" encoding="utf-8"?>
<!-- Generator: Adobe Illustrator 24.2.3, SVG Export Plug-In . SVG Version: 6.00 Build 0)  -->
<svg version="1.1" id="Ebene_1" xmlns="http://www.w3.org/2000/svg" xmlns:xlink="http://www.w3.org/1999/xlink" x="0px" y="0px"
	 viewBox="0 0 886 845" style="enable-background:new 0 0 886 845;" xml:space="preserve">
<path id="hg" style="fill:#333333;fill-opacity:0.902;" d="M847.9,672.8c0.7-14.4-5.1-32.1-17.4-53L517.2,52.2
	c-6.5-14.5-20.9-22.8-43.4-24.9H56.3C36.8,27.3,27,39.2,27,63v725.7c0,23.9,9.8,35.8,29.3,35.8h762.2c19.6,0,29.4-12,29.4-35.8
	V672.8z"/>
<path style="fill:#0066FF;" d="M591.5,687h-55v67.5h55V687 M399.6,625.1v-60.5h-55v60.5H399.6 M591.5,370.2h-55v67.5h55V370.2
	 M295.6,491.6v67.5h55v-64h-6v-3.5L295.6,491.6 M205.1,624.8v-128H100.8v128H205.1 M300.8,622.1h-55v128.5h55V622.1 M208.1,238.5
	V110.6H103.8v127.9H208.1 M150.5,240.2v67.5h55v-67.5L150.5,240.2 M398.5,302.2h-55v128.5h55V302.2 M640,631.5V493h-55v138.5H640z"
	/>
<path style="fill:#FF0000;" d="M399.6,625.6h-55v67.5h55V625.6 M344.6,491.6v3.5h6h49v-63.5h-55V491.6z"/>
<g>
	<polygon style="fill:#605D5C;stroke:#000000;stroke-width:0.25;stroke-miterlimit:5;" points="434.3,212.3 418.8,203.3 
		403.3,212.3 403.3,230.2 418.8,239.2 434.3,230.2 	"/>
	<path style="fill:#716F6E;stroke:#111621;stroke-width:0.25;stroke-miterlimit:10;" d="M433,221.3c0-7.8-6.3-14.2-14.2-14.2
		c-7.8,0-14.2,6.3-14.2,14.2c0,7.8,6.3,14.2,14.2,14.2C426.6,235.4,433,229.1,433,221.3"/>
	<path style="fill:#949393;stroke:#000000;stroke-width:0.25;stroke-miterlimit:10;" d="M418.8,232.3c6.1,0,11.1-5,11.1-11.1
		c0-6.1-5-11.1-11.2-11.1s-11.1,5-11.1,11.1C407.7,227.4,412.7,232.3,418.8,232.3z"/>
</g>
<g>
	<polygon style="fill:#605D5C;stroke:#000000;stroke-width:0.25;stroke-miterlimit:5;" points="339.3,212.3 323.8,203.3 
		308.2,212.3 308.2,230.2 323.8,239.2 339.3,230.2 	"/>
	<path style="fill:#716F6E;stroke:#000000;stroke-width:0.25;stroke-miterlimit:5;" d="M337.9,221.3c0-7.8-6.3-14.2-14.2-14.2
		s-14.2,6.3-14.2,14.2c0,7.8,6.3,14.2,14.2,14.2S337.9,229.1,337.9,221.3"/>
	<path style="fill:#949393;stroke:#000000;stroke-width:0.25;stroke-miterlimit:5;" d="M323.8,232.3c6.1,0,11.1-5,11.1-11.1
		c0-6.1-5-11.1-11.2-11.1s-11.1,5-11.1,11.1C312.6,227.4,317.6,232.3,323.8,232.3z"/>
</g>
<g>
	<polygon style="fill:#605D5C;stroke:#000000;stroke-width:0.5;stroke-miterlimit:5;" points="241.5,212.3 226,203.3 210.5,212.3 
		210.5,230.2 226,239.2 241.5,230.2 	"/>
	<path style="fill:#716F6E;stroke:#000000;stroke-width:0.5;stroke-miterlimit:5;" d="M240.2,221.3c0-7.8-6.3-14.2-14.2-14.2
		s-14.2,6.3-14.2,14.2c0,7.8,6.3,14.2,14.2,14.2S240.2,229.1,240.2,221.3"/>
	<path style="fill:#949393;stroke:#000000;stroke-width:0.5;stroke-miterlimit:5;" d="M226,232.3c6.1,0,11.1-5,11.1-11.1
		c0-6.1-5-11.1-11.2-11.1s-11.1,5-11.1,11.1C214.9,227.4,219.9,232.3,226,232.3z"/>
</g>
<g>
	<polygon style="fill:#605D5C;stroke:#000000;stroke-width:0.5;stroke-miterlimit:5;" points="193.5,277.6 178,268.7 162.5,277.6 
		162.5,295.6 178,304.5 193.5,295.6 	"/>
	<path style="fill:#716F6E;stroke:#000000;stroke-width:0.5;stroke-miterlimit:5;" d="M192.2,286.6c0-7.8-6.3-14.2-14.2-14.2
		s-14.2,6.3-14.2,14.2c0,7.8,6.3,14.2,14.2,14.2S192.2,294.4,192.2,286.6"/>
	<path style="fill:#949393;stroke:#000000;stroke-width:0.5;stroke-miterlimit:5;" d="M178,297.7c6.1,0,11.1-5,11.1-11.1
		c0-6.1-5-11.1-11.2-11.1s-11.1,5-11.1,11.1C166.9,292.7,171.9,297.7,178,297.7z"/>
</g>
<g>
	<polygon style="fill:#605D5C;stroke:#000000;stroke-width:0.5;stroke-miterlimit:5;" points="338,277.6 322.5,268.7 307,277.6 
		307,295.6 322.5,304.5 338,295.6 	"/>
	<path style="fill:#716F6E;stroke:#000000;stroke-width:0.5;stroke-miterlimit:5;" d="M336.7,286.6c0-7.8-6.3-14.2-14.2-14.2
		s-14.2,6.3-14.2,14.2c0,7.8,6.3,14.2,14.2,14.2S336.7,294.4,336.7,286.6"/>
	<path style="fill:#949393;stroke:#000000;stroke-width:0.5;stroke-miterlimit:5;" d="M322.5,297.7c6.1,0,11.1-5,11.1-11.1
		c0-6.1-5-11.1-11.2-11.1c-6.1,0-11.1,5-11.1,11.1C311.4,292.7,316.4,297.7,322.5,297.7z"/>
</g>
<g>
	<polygon style="fill:#605D5C;stroke:#000000;stroke-width:0.5;stroke-miterlimit:5;" points="192.8,212.3 177.2,203.3 161.7,212.3 
		161.7,230.2 177.2,239.2 192.8,230.2 	"/>
	<path style="fill:#716F6E;stroke:#000000;stroke-width:0.5;stroke-miterlimit:5;" d="M191.4,221.3c0-7.8-6.3-14.2-14.2-14.2
		s-14.2,6.3-14.2,14.2c0,7.8,6.3,14.2,14.2,14.2S191.4,229.1,191.4,221.3"/>
	<path style="fill:#949393;stroke:#000000;stroke-width:0.5;stroke-miterlimit:5;" d="M177.3,232.3c6.1,0,11.1-5,11.1-11.1
		c0-6.1-5-11.1-11.2-11.1s-11.1,5-11.1,11.1C166.1,227.4,171.1,232.3,177.3,232.3z"/>
</g>
<g>
	<polygon style="fill:#605D5C;stroke:#000000;stroke-width:0.5;stroke-miterlimit:5;" points="143.9,212.3 128.3,203.3 112.8,212.3 
		112.8,230.2 128.3,239.2 143.9,230.2 	"/>
	<path style="fill:#716F6E;stroke:#000000;stroke-width:0.5;stroke-miterlimit:5;" d="M142.5,221.3c0-7.8-6.3-14.2-14.2-14.2
		s-14.2,6.3-14.2,14.2c0,7.8,6.3,14.2,14.2,14.2S142.5,229.1,142.5,221.3"/>
	<path style="fill:#949393;stroke:#000000;stroke-width:0.5;stroke-miterlimit:5;" d="M128.3,232.3c6.1,0,11.1-5,11.1-11.1
		c0-6.1-5-11.1-11.2-11.1c-6.1,0-11.1,5-11.1,11.1C117.2,227.4,122.2,232.3,128.3,232.3z"/>
</g>
<g>
	<polygon style="fill:#605D5C;stroke:#000000;stroke-width:0.25;stroke-miterlimit:5;" points="434.7,343 419.2,334.1 403.6,343 
		403.6,361 419.2,369.9 434.7,361 	"/>
	<path style="fill:#716F6E;stroke:#111621;stroke-width:0.25;stroke-miterlimit:10;" d="M433.3,352c0-7.8-6.3-14.2-14.2-14.2
		S405,344.2,405,352c0,7.8,6.3,14.2,14.2,14.2S433.3,359.8,433.3,352"/>
	<path style="fill:#949393;stroke:#000000;stroke-width:0.25;stroke-miterlimit:10;" d="M419.2,363.1c6.1,0,11.1-5,11.1-11.1
		c0-6.1-5-11.1-11.2-11.1s-11.1,5-11.1,11.1C408,358.1,413,363.1,419.2,363.1z"/>
</g>
<g>
	<polygon style="fill:#605D5C;stroke:#000000;stroke-width:0.25;stroke-miterlimit:5;" points="386.3,343 370.8,334.1 355.2,343 
		355.2,361 370.8,369.9 386.3,361 	"/>
	<path style="fill:#716F6E;stroke:#111621;stroke-width:0.25;stroke-miterlimit:10;" d="M384.9,352c0-7.8-6.3-14.2-14.2-14.2
		c-7.8,0-14.2,6.3-14.2,14.2c0,7.8,6.3,14.2,14.2,14.2C378.6,366.2,384.9,359.8,384.9,352"/>
	<path style="fill:#949393;stroke:#000000;stroke-width:0.25;stroke-miterlimit:10;" d="M370.8,363.1c6.1,0,11.1-5,11.1-11.1
		c0-6.1-5-11.1-11.2-11.1s-11.1,5-11.1,11.1C359.6,358.1,364.6,363.1,370.8,363.1z"/>
</g>
<g>
	<polygon style="fill:#605D5C;stroke:#000000;stroke-width:0.25;stroke-miterlimit:5;" points="289.7,343 274.1,334.1 258.6,343 
		258.6,361 274.1,369.9 289.7,361 	"/>
	<path style="fill:#716F6E;stroke:#000000;stroke-width:0.25;stroke-miterlimit:5;" d="M288.3,352c0-7.8-6.3-14.2-14.2-14.2
		c-7.8,0-14.2,6.3-14.2,14.2c0,7.8,6.3,14.2,14.2,14.2C281.9,366.2,288.3,359.8,288.3,352"/>
	<path style="fill:#949393;stroke:#000000;stroke-width:0.25;stroke-miterlimit:5;" d="M274.1,363.1c6.1,0,11.1-5,11.1-11.1
		c0-6.1-5-11.1-11.2-11.1s-11.1,5-11.1,11.1C263,358.1,268,363.1,274.1,363.1z"/>
</g>
<g>
	<polygon style="fill:#605D5C;stroke:#000000;stroke-width:0.5;stroke-miterlimit:5;" points="241.9,343 226.4,334.1 210.8,343 
		210.8,361 226.4,369.9 241.9,361 	"/>
	<path style="fill:#716F6E;stroke:#000000;stroke-width:0.5;stroke-miterlimit:5;" d="M240.5,352c0-7.8-6.3-14.2-14.2-14.2
		c-7.8,0-14.2,6.3-14.2,14.2c0,7.8,6.3,14.2,14.2,14.2C234.2,366.2,240.5,359.8,240.5,352"/>
	<path style="fill:#949393;stroke:#000000;stroke-width:0.5;stroke-miterlimit:5;" d="M226.4,363.1c6.1,0,11.1-5,11.1-11.1
		c0-6.1-5-11.1-11.2-11.1c-6.1,0-11.1,5-11.1,11.1C215.2,358.1,220.2,363.1,226.4,363.1z"/>
</g>
<g>
	<polygon style="fill:#605D5C;stroke:#000000;stroke-width:0.5;stroke-miterlimit:5;" points="193.1,343 177.6,334.1 162.1,343 
		162.1,361 177.6,369.9 193.1,361 	"/>
	<path style="fill:#716F6E;stroke:#000000;stroke-width:0.5;stroke-miterlimit:5;" d="M191.8,352c0-7.8-6.3-14.2-14.2-14.2
		c-7.8,0-14.2,6.3-14.2,14.2c0,7.8,6.3,14.2,14.2,14.2C185.4,366.2,191.8,359.8,191.8,352"/>
	<path style="fill:#949393;stroke:#000000;stroke-width:0.5;stroke-miterlimit:5;" d="M177.6,363.1c6.1,0,11.1-5,11.1-11.1
		c0-6.1-5-11.1-11.2-11.1c-6.1,0-11.1,5-11.1,11.1C166.5,358.1,171.5,363.1,177.6,363.1z"/>
</g>
<g>
	<polygon style="fill:#605D5C;stroke:#000000;stroke-width:0.5;stroke-miterlimit:5;" points="144.2,343 128.7,334.1 113.2,343 
		113.2,361 128.7,369.9 144.2,361 	"/>
	<path style="fill:#716F6E;stroke:#000000;stroke-width:0.5;stroke-miterlimit:5;" d="M142.9,352c0-7.8-6.3-14.2-14.2-14.2
		s-14.2,6.3-14.2,14.2c0,7.8,6.3,14.2,14.2,14.2S142.9,359.8,142.9,352"/>
	<path style="fill:#949393;stroke:#000000;stroke-width:0.5;stroke-miterlimit:5;" d="M128.7,363.1c6.1,0,11.1-5,11.1-11.1
		c0-6.1-5-11.1-11.2-11.1s-11.1,5-11.1,11.1C117.6,358.1,122.6,363.1,128.7,363.1z"/>
</g>
<g>
	<polygon style="fill:#605D5C;stroke:#000000;stroke-width:0.25;stroke-miterlimit:5;" points="433.3,408.1 417.7,399.1 
		402.2,408.1 402.2,426 417.7,435 433.3,426 	"/>
	<path style="fill:#716F6E;stroke:#111621;stroke-width:0.25;stroke-miterlimit:10;" d="M431.9,417.1c0-7.8-6.3-14.2-14.2-14.2
		s-14.2,6.3-14.2,14.2c0,7.8,6.3,14.2,14.2,14.2S431.9,424.9,431.9,417.1"/>
	<path style="fill:#949393;stroke:#000000;stroke-width:0.25;stroke-miterlimit:10;" d="M417.8,428.1c6.1,0,11.1-5,11.1-11.1
		c0-6.1-5-11.1-11.2-11.1c-6.1,0-11.1,5-11.1,11.1C406.6,423.2,411.6,428.1,417.8,428.1z"/>
</g>
<g>
	<polygon style="fill:#605D5C;stroke:#000000;stroke-width:0.25;stroke-miterlimit:5;" points="580.3,408.1 564.8,399.1 
		549.3,408.1 549.3,426 564.8,435 580.3,426 	"/>
	<path style="fill:#716F6E;stroke:#111621;stroke-width:0.25;stroke-miterlimit:10;" d="M579,417.1c0-7.8-6.3-14.2-14.2-14.2
		c-7.8,0-14.2,6.3-14.2,14.2c0,7.8,6.3,14.2,14.2,14.2C572.6,431.2,579,424.9,579,417.1"/>
	<path style="fill:#949393;stroke:#000000;stroke-width:0.25;stroke-miterlimit:10;" d="M564.8,428.1c6.1,0,11.1-5,11.1-11.1
		c0-6.1-5-11.1-11.2-11.1c-6.1,0-11.1,5-11.1,11.1C553.7,423.2,558.7,428.1,564.8,428.1z"/>
</g>
<g>
	<polygon style="fill:#605D5C;stroke:#000000;stroke-width:0.25;stroke-miterlimit:5;" points="384.9,408.1 369.3,399.1 
		353.8,408.1 353.8,426 369.3,435 384.9,426 	"/>
	<path style="fill:#716F6E;stroke:#111621;stroke-width:0.25;stroke-miterlimit:10;" d="M383.5,417.1c0-7.8-6.3-14.2-14.2-14.2
		s-14.2,6.3-14.2,14.2c0,7.8,6.3,14.2,14.2,14.2S383.5,424.9,383.5,417.1"/>
	<path style="fill:#949393;stroke:#000000;stroke-width:0.25;stroke-miterlimit:10;" d="M369.3,428.1c6.1,0,11.1-5,11.1-11.1
		c0-6.1-5-11.1-11.2-11.1s-11.1,5-11.1,11.1C358.2,423.2,363.2,428.1,369.3,428.1z"/>
</g>
<g>
	<polygon style="fill:#605D5C;stroke:#000000;stroke-width:0.25;stroke-miterlimit:5;" points="338,408.1 322.5,399.1 307,408.1 
		307,426 322.5,435 338,426 	"/>
	<path style="fill:#716F6E;stroke:#111621;stroke-width:0.25;stroke-miterlimit:10;" d="M336.7,417.1c0-7.8-6.3-14.2-14.2-14.2
		s-14.2,6.3-14.2,14.2c0,7.8,6.3,14.2,14.2,14.2S336.7,424.9,336.7,417.1"/>
	<path style="fill:#949393;stroke:#000000;stroke-width:0.25;stroke-miterlimit:10;" d="M322.5,428.1c6.1,0,11.1-5,11.1-11.1
		c0-6.1-5-11.1-11.2-11.1c-6.1,0-11.1,5-11.1,11.1C311.4,423.2,316.4,428.1,322.5,428.1z"/>
</g>
<g>
	<polygon style="fill:#605D5C;stroke:#000000;stroke-width:0.25;stroke-miterlimit:5;" points="288.2,408.1 272.7,399.1 
		257.2,408.1 257.2,426 272.7,435 288.2,426 	"/>
	<path style="fill:#716F6E;stroke:#000000;stroke-width:0.25;stroke-miterlimit:5;" d="M286.9,417.1c0-7.8-6.3-14.2-14.2-14.2
		s-14.2,6.3-14.2,14.2c0,7.8,6.3,14.2,14.2,14.2S286.9,424.9,286.9,417.1"/>
	<path style="fill:#949393;stroke:#000000;stroke-width:0.25;stroke-miterlimit:5;" d="M272.7,428.1c6.1,0,11.1-5,11.1-11.1
		c0-6.1-5-11.1-11.2-11.1s-11.1,5-11.1,11.1C261.6,423.2,266.6,428.1,272.7,428.1z"/>
</g>
<g>
	<polygon style="fill:#605D5C;stroke:#000000;stroke-width:0.5;stroke-miterlimit:5;" points="240.5,408.1 224.9,399.1 209.4,408.1 
		209.4,426 224.9,435 240.5,426 	"/>
	<path style="fill:#716F6E;stroke:#000000;stroke-width:0.5;stroke-miterlimit:5;" d="M239.1,417.1c0-7.8-6.3-14.2-14.2-14.2
		c-7.8,0-14.2,6.3-14.2,14.2c0,7.8,6.3,14.2,14.2,14.2C232.8,431.2,239.1,424.9,239.1,417.1"/>
	<path style="fill:#949393;stroke:#000000;stroke-width:0.5;stroke-miterlimit:5;" d="M224.9,428.1c6.1,0,11.1-5,11.1-11.1
		c0-6.1-5-11.1-11.2-11.1s-11.1,5-11.1,11.1C213.8,423.2,218.8,428.1,224.9,428.1z"/>
</g>
<g>
	<polygon style="fill:#605D5C;stroke:#000000;stroke-width:0.5;stroke-miterlimit:5;" points="191.7,408.1 176.2,399.1 160.7,408.1 
		160.7,426 176.2,435 191.7,426 	"/>
	<path style="fill:#716F6E;stroke:#000000;stroke-width:0.5;stroke-miterlimit:5;" d="M190.4,417.1c0-7.8-6.3-14.2-14.2-14.2
		c-7.8,0-14.2,6.3-14.2,14.2c0,7.8,6.3,14.2,14.2,14.2C184,431.2,190.4,424.9,190.4,417.1"/>
	<path style="fill:#949393;stroke:#000000;stroke-width:0.5;stroke-miterlimit:5;" d="M176.2,428.1c6.1,0,11.1-5,11.1-11.1
		c0-6.1-5-11.1-11.2-11.1s-11.1,5-11.1,11.1C165.1,423.2,170,428.1,176.2,428.1z"/>
</g>
<g>
	<polygon style="fill:#605D5C;stroke:#000000;stroke-width:0.5;stroke-miterlimit:5;" points="142.8,408.1 127.3,399.1 111.7,408.1 
		111.7,426 127.3,435 142.8,426 	"/>
	<path style="fill:#716F6E;stroke:#000000;stroke-width:0.5;stroke-miterlimit:5;" d="M141.4,417.1c0-7.8-6.3-14.2-14.2-14.2
		s-14.2,6.3-14.2,14.2c0,7.8,6.3,14.2,14.2,14.2S141.4,424.9,141.4,417.1"/>
	<path style="fill:#949393;stroke:#000000;stroke-width:0.5;stroke-miterlimit:5;" d="M127.3,428.1c6.1,0,11.1-5,11.1-11.1
		c0-6.1-5-11.1-11.2-11.1c-6.1,0-11.1,5-11.1,11.1C116.1,423.2,121.1,428.1,127.3,428.1z"/>
</g>
<g>
	<polygon style="fill:#605D5C;stroke:#000000;stroke-width:0.25;stroke-miterlimit:5;" points="481.1,468.6 465.5,459.6 450,468.6 
		450,486.5 465.5,495.5 481.1,486.5 	"/>
	<path style="fill:#716F6E;stroke:#111621;stroke-width:0.25;stroke-miterlimit:10;" d="M479.7,477.6c0-7.8-6.3-14.2-14.2-14.2
		s-14.2,6.3-14.2,14.2c0,7.8,6.3,14.2,14.2,14.2S479.7,485.4,479.7,477.6"/>
	<path style="fill:#949393;stroke:#000000;stroke-width:0.25;stroke-miterlimit:10;" d="M465.6,488.6c6.1,0,11.1-5,11.1-11.1
		c0-6.1-5-11.1-11.2-11.1c-6.1,0-11.1,5-11.1,11.1C454.4,483.7,459.4,488.6,465.6,488.6z"/>
</g>
<g>
	<polygon style="fill:#605D5C;stroke:#000000;stroke-width:0.25;stroke-miterlimit:5;" points="385.7,468.6 370.1,459.6 
		354.6,468.6 354.6,486.5 370.1,495.5 385.7,486.5 	"/>
	<path style="fill:#716F6E;stroke:#111621;stroke-width:0.25;stroke-miterlimit:10;" d="M384.3,477.6c0-7.8-6.3-14.2-14.2-14.2
		s-14.2,6.3-14.2,14.2c0,7.8,6.3,14.2,14.2,14.2S384.3,485.4,384.3,477.6"/>
	<path style="fill:#949393;stroke:#000000;stroke-width:0.25;stroke-miterlimit:10;" d="M370.1,488.6c6.1,0,11.1-5,11.1-11.1
		c0-6.1-5-11.1-11.2-11.1s-11.1,5-11.1,11.1C359,483.7,364,488.6,370.1,488.6z"/>
</g>
<g>
	<polygon style="fill:#605D5C;stroke:#000000;stroke-width:0.25;stroke-miterlimit:5;" points="530.8,468.6 515.3,459.6 
		499.8,468.6 499.8,486.5 515.3,495.5 530.8,486.5 	"/>
	<path style="fill:#716F6E;stroke:#111621;stroke-width:0.25;stroke-miterlimit:10;" d="M529.5,477.6c0-7.8-6.3-14.2-14.2-14.2
		c-7.8,0-14.2,6.3-14.2,14.2c0,7.8,6.3,14.2,14.2,14.2C523.1,491.7,529.5,485.4,529.5,477.6"/>
	<path style="fill:#949393;stroke:#000000;stroke-width:0.25;stroke-miterlimit:10;" d="M515.3,488.6c6.1,0,11.1-5,11.1-11.1
		c0-6.1-5-11.1-11.2-11.1c-6.1,0-11.1,5-11.1,11.1C504.2,483.7,509.2,488.6,515.3,488.6z"/>
</g>
<g>
	<polygon style="fill:#605D5C;stroke:#000000;stroke-width:0.25;stroke-miterlimit:5;" points="289,468.6 273.5,459.6 258,468.6 
		258,486.5 273.5,495.5 289,486.5 	"/>
	<path style="fill:#716F6E;stroke:#000000;stroke-width:0.25;stroke-miterlimit:5;" d="M287.7,477.6c0-7.8-6.3-14.2-14.2-14.2
		s-14.2,6.3-14.2,14.2c0,7.8,6.3,14.2,14.2,14.2S287.7,485.4,287.7,477.6"/>
	<path style="fill:#949393;stroke:#000000;stroke-width:0.25;stroke-miterlimit:5;" d="M273.5,488.6c6.1,0,11.1-5,11.1-11.1
		c0-6.1-5-11.1-11.2-11.1s-11.1,5-11.1,11.1C262.4,483.7,267.4,488.6,273.5,488.6z"/>
</g>
<g>
	<polygon style="fill:#605D5C;stroke:#000000;stroke-width:0.5;stroke-miterlimit:5;" points="241.3,468.6 225.7,459.6 210.2,468.6 
		210.2,486.5 225.7,495.5 241.3,486.5 	"/>
	<path style="fill:#716F6E;stroke:#000000;stroke-width:0.5;stroke-miterlimit:5;" d="M239.9,477.6c0-7.8-6.3-14.2-14.2-14.2
		c-7.8,0-14.2,6.3-14.2,14.2c0,7.8,6.3,14.2,14.2,14.2C233.6,491.7,239.9,485.4,239.9,477.6"/>
	<path style="fill:#949393;stroke:#000000;stroke-width:0.5;stroke-miterlimit:5;" d="M225.7,488.6c6.1,0,11.1-5,11.1-11.1
		c0-6.1-5-11.1-11.2-11.1s-11.1,5-11.1,11.1C214.6,483.7,219.6,488.6,225.7,488.6z"/>
</g>
<g>
	<polygon style="fill:#605D5C;stroke:#000000;stroke-width:0.5;stroke-miterlimit:5;" points="192.5,468.6 177,459.6 161.5,468.6 
		161.5,486.5 177,495.5 192.5,486.5 	"/>
	<path style="fill:#716F6E;stroke:#000000;stroke-width:0.5;stroke-miterlimit:5;" d="M191.2,477.6c0-7.8-6.3-14.2-14.2-14.2
		c-7.8,0-14.2,6.3-14.2,14.2c0,7.8,6.3,14.2,14.2,14.2C184.8,491.7,191.2,485.4,191.2,477.6"/>
	<path style="fill:#949393;stroke:#000000;stroke-width:0.5;stroke-miterlimit:5;" d="M177,488.6c6.1,0,11.1-5,11.1-11.1
		c0-6.1-5-11.1-11.2-11.1s-11.1,5-11.1,11.1C165.9,483.7,170.8,488.6,177,488.6z"/>
</g>
<g>
	<polygon style="fill:#605D5C;stroke:#000000;stroke-width:0.5;stroke-miterlimit:5;" points="143.6,468.6 128.1,459.6 112.5,468.6 
		112.5,486.5 128.1,495.5 143.6,486.5 	"/>
	<path style="fill:#716F6E;stroke:#000000;stroke-width:0.5;stroke-miterlimit:5;" d="M142.2,477.6c0-7.8-6.3-14.2-14.2-14.2
		s-14.2,6.3-14.2,14.2c0,7.8,6.3,14.2,14.2,14.2S142.2,485.4,142.2,477.6"/>
	<path style="fill:#949393;stroke:#000000;stroke-width:0.5;stroke-miterlimit:5;" d="M128.1,488.6c6.1,0,11.1-5,11.1-11.1
		c0-6.1-5-11.1-11.2-11.1c-6.1,0-11.1,5-11.1,11.1C116.9,483.7,121.9,488.6,128.1,488.6z"/>
</g>
<g>
	<polygon style="fill:#605D5C;stroke:#000000;stroke-width:0.25;stroke-miterlimit:5;" points="481.9,532.5 466.4,523.6 
		450.8,532.5 450.8,550.5 466.4,559.4 481.9,550.5 	"/>
	<path style="fill:#716F6E;stroke:#111621;stroke-width:0.25;stroke-miterlimit:10;" d="M480.5,541.5c0-7.8-6.3-14.2-14.2-14.2
		s-14.2,6.3-14.2,14.2c0,7.8,6.3,14.2,14.2,14.2S480.5,549.3,480.5,541.5"/>
	<path style="fill:#949393;stroke:#000000;stroke-width:0.25;stroke-miterlimit:10;" d="M466.4,552.6c6.1,0,11.1-5,11.1-11.1
		c0-6.1-5-11.1-11.2-11.1s-11.1,5-11.1,11.1C455.2,547.6,460.2,552.6,466.4,552.6z"/>
</g>
<g>
	<polygon style="fill:#605D5C;stroke:#000000;stroke-width:0.25;stroke-miterlimit:5;" points="386.5,532.5 370.9,523.6 
		355.4,532.5 355.4,550.5 370.9,559.4 386.5,550.5 	"/>
	<path style="fill:#716F6E;stroke:#111621;stroke-width:0.25;stroke-miterlimit:10;" d="M385.1,541.5c0-7.8-6.3-14.2-14.2-14.2
		c-7.8,0-14.2,6.3-14.2,14.2c0,7.8,6.3,14.2,14.2,14.2C378.8,555.7,385.1,549.3,385.1,541.5"/>
	<path style="fill:#949393;stroke:#000000;stroke-width:0.25;stroke-miterlimit:10;" d="M371,552.6c6.1,0,11.1-5,11.1-11.1
		c0-6.1-5-11.1-11.2-11.1s-11.1,5-11.1,11.1C359.8,547.6,364.8,552.6,371,552.6z"/>
</g>
<g>
	<polygon style="fill:#605D5C;stroke:#000000;stroke-width:0.25;stroke-miterlimit:5;" points="433.3,532.5 417.7,523.6 
		402.2,532.5 402.2,550.5 417.7,559.4 433.3,550.5 	"/>
	<path style="fill:#716F6E;stroke:#111621;stroke-width:0.25;stroke-miterlimit:10;" d="M431.9,541.5c0-7.8-6.3-14.2-14.2-14.2
		s-14.2,6.3-14.2,14.2c0,7.8,6.3,14.2,14.2,14.2S431.9,549.3,431.9,541.5"/>
	<path style="fill:#949393;stroke:#000000;stroke-width:0.25;stroke-miterlimit:10;" d="M417.8,552.6c6.1,0,11.1-5,11.1-11.1
		c0-6.1-5-11.1-11.2-11.1c-6.1,0-11.1,5-11.1,11.1C406.6,547.6,411.6,552.6,417.8,552.6z"/>
</g>
<g>
	<polygon style="fill:#605D5C;stroke:#000000;stroke-width:0.25;stroke-miterlimit:5;" points="579,532.5 563.5,523.6 547.9,532.5 
		547.9,550.5 563.5,559.4 579,550.5 	"/>
	<path style="fill:#716F6E;stroke:#111621;stroke-width:0.25;stroke-miterlimit:10;" d="M577.6,541.5c0-7.8-6.3-14.2-14.2-14.2
		c-7.8,0-14.2,6.3-14.2,14.2c0,7.8,6.3,14.2,14.2,14.2C571.3,555.7,577.6,549.3,577.6,541.5"/>
	<path style="fill:#949393;stroke:#000000;stroke-width:0.25;stroke-miterlimit:10;" d="M563.5,552.6c6.1,0,11.1-5,11.1-11.1
		c0-6.1-5-11.1-11.2-11.1c-6.1,0-11.1,5-11.1,11.1C552.3,547.6,557.3,552.6,563.5,552.6z"/>
</g>
<g>
	<polygon style="fill:#605D5C;stroke:#000000;stroke-width:0.25;stroke-miterlimit:5;" points="628,532.5 612.5,523.6 597,532.5 
		597,550.5 612.5,559.4 628,550.5 	"/>
	<path style="fill:#716F6E;stroke:#111621;stroke-width:0.25;stroke-miterlimit:10;" d="M626.7,541.5c0-7.8-6.3-14.2-14.2-14.2
		c-7.8,0-14.2,6.3-14.2,14.2c0,7.8,6.3,14.2,14.2,14.2C620.3,555.7,626.7,549.3,626.7,541.5"/>
	<path style="fill:#949393;stroke:#000000;stroke-width:0.25;stroke-miterlimit:10;" d="M612.5,552.6c6.1,0,11.1-5,11.1-11.1
		c0-6.1-5-11.1-11.2-11.1c-6.1,0-11.1,5-11.1,11.1C601.4,547.6,606.4,552.6,612.5,552.6z"/>
</g>
<g>
	<polygon style="fill:#605D5C;stroke:#000000;stroke-width:0.25;stroke-miterlimit:5;" points="675.5,532.5 660,523.6 644.4,532.5 
		644.4,550.5 659.9,559.4 675.5,550.5 	"/>
	<path style="fill:#716F6E;stroke:#111621;stroke-width:0.25;stroke-miterlimit:10;" d="M674.1,541.5c0-7.8-6.3-14.2-14.2-14.2
		c-7.8,0-14.2,6.3-14.2,14.2c0,7.8,6.3,14.2,14.2,14.2C667.8,555.7,674.1,549.3,674.1,541.5"/>
	<path style="fill:#949393;stroke:#000000;stroke-width:0.25;stroke-miterlimit:10;" d="M660,552.6c6.1,0,11.1-5,11.1-11.1
		c0-6.1-5-11.1-11.2-11.1s-11.1,5-11.1,11.1C648.8,547.6,653.8,552.6,660,552.6z"/>
</g>
<g>
	<polygon style="fill:#605D5C;stroke:#000000;stroke-width:0.25;stroke-miterlimit:5;" points="338,532.5 322.5,523.6 307,532.5 
		307,550.5 322.5,559.4 338,550.5 	"/>
	<path style="fill:#716F6E;stroke:#111621;stroke-width:0.25;stroke-miterlimit:10;" d="M336.7,541.5c0-7.8-6.3-14.2-14.2-14.2
		s-14.2,6.3-14.2,14.2c0,7.8,6.3,14.2,14.2,14.2S336.7,549.3,336.7,541.5"/>
	<path style="fill:#949393;stroke:#000000;stroke-width:0.25;stroke-miterlimit:10;" d="M322.5,552.6c6.1,0,11.1-5,11.1-11.1
		c0-6.1-5-11.1-11.2-11.1c-6.1,0-11.1,5-11.1,11.1C311.4,547.6,316.4,552.6,322.5,552.6z"/>
</g>
<g>
	<polygon style="fill:#605D5C;stroke:#000000;stroke-width:0.25;stroke-miterlimit:5;" points="531.6,532.5 516.1,523.6 
		500.6,532.5 500.6,550.5 516.1,559.4 531.6,550.5 	"/>
	<path style="fill:#716F6E;stroke:#111621;stroke-width:0.25;stroke-miterlimit:10;" d="M530.3,541.5c0-7.8-6.3-14.2-14.2-14.2
		c-7.8,0-14.2,6.3-14.2,14.2c0,7.8,6.3,14.2,14.2,14.2C523.9,555.7,530.3,549.3,530.3,541.5"/>
	<path style="fill:#949393;stroke:#000000;stroke-width:0.25;stroke-miterlimit:10;" d="M516.1,552.6c6.1,0,11.1-5,11.1-11.1
		c0-6.1-5-11.1-11.2-11.1c-6.1,0-11.1,5-11.1,11.1C505,547.6,510,552.6,516.1,552.6z"/>
</g>
<g>
	<polygon style="fill:#605D5C;stroke:#000000;stroke-width:0.25;stroke-miterlimit:5;" points="289.9,532.5 274.3,523.6 
		258.8,532.5 258.8,550.5 274.3,559.4 289.9,550.5 	"/>
	<path style="fill:#716F6E;stroke:#000000;stroke-width:0.25;stroke-miterlimit:5;" d="M288.5,541.5c0-7.8-6.3-14.2-14.2-14.2
		c-7.8,0-14.2,6.3-14.2,14.2c0,7.8,6.3,14.2,14.2,14.2C282.1,555.7,288.5,549.3,288.5,541.5"/>
	<path style="fill:#949393;stroke:#000000;stroke-width:0.25;stroke-miterlimit:5;" d="M274.3,552.6c6.1,0,11.1-5,11.1-11.1
		c0-6.1-5-11.1-11.2-11.1s-11.1,5-11.1,11.1C263.2,547.6,268.2,552.6,274.3,552.6z"/>
</g>
<g>
	<polygon style="fill:#605D5C;stroke:#000000;stroke-width:0.5;stroke-miterlimit:5;" points="242.1,532.5 226.6,523.6 211,532.5 
		211,550.5 226.6,559.4 242.1,550.5 	"/>
	<path style="fill:#716F6E;stroke:#000000;stroke-width:0.5;stroke-miterlimit:5;" d="M240.7,541.5c0-7.8-6.3-14.2-14.2-14.2
		c-7.8,0-14.2,6.3-14.2,14.2c0,7.8,6.3,14.2,14.2,14.2C234.4,555.7,240.7,549.3,240.7,541.5"/>
	<path style="fill:#949393;stroke:#000000;stroke-width:0.5;stroke-miterlimit:5;" d="M226.6,552.6c6.1,0,11.1-5,11.1-11.1
		c0-6.1-5-11.1-11.2-11.1s-11.1,5-11.1,11.1C215.4,547.6,220.4,552.6,226.6,552.6z"/>
</g>
<g>
	<polygon style="fill:#605D5C;stroke:#000000;stroke-width:0.5;stroke-miterlimit:5;" points="193.3,532.5 177.8,523.6 162.3,532.5 
		162.3,550.5 177.8,559.4 193.3,550.5 	"/>
	<path style="fill:#716F6E;stroke:#000000;stroke-width:0.5;stroke-miterlimit:5;" d="M192,541.5c0-7.8-6.3-14.2-14.2-14.2
		c-7.8,0-14.2,6.3-14.2,14.2c0,7.8,6.3,14.2,14.2,14.2C185.6,555.7,192,549.3,192,541.5"/>
	<path style="fill:#949393;stroke:#000000;stroke-width:0.5;stroke-miterlimit:5;" d="M177.8,552.6c6.1,0,11.1-5,11.1-11.1
		c0-6.1-5-11.1-11.2-11.1s-11.1,5-11.1,11.1C166.7,547.6,171.7,552.6,177.8,552.6z"/>
</g>
<g>
	<polygon style="fill:#605D5C;stroke:#000000;stroke-width:0.5;stroke-miterlimit:5;" points="144.4,532.5 128.9,523.6 113.4,532.5 
		113.4,550.5 128.9,559.4 144.4,550.5 	"/>
	<path style="fill:#716F6E;stroke:#000000;stroke-width:0.5;stroke-miterlimit:5;" d="M143.1,541.5c0-7.8-6.3-14.2-14.2-14.2
		s-14.2,6.3-14.2,14.2c0,7.8,6.3,14.2,14.2,14.2S143.1,549.3,143.1,541.5"/>
	<path style="fill:#949393;stroke:#000000;stroke-width:0.5;stroke-miterlimit:5;" d="M128.9,552.6c6.1,0,11.1-5,11.1-11.1
		c0-6.1-5-11.1-11.2-11.1c-6.1,0-11.1,5-11.1,11.1C117.8,547.6,122.7,552.6,128.9,552.6z"/>
</g>
<g>
	<polygon style="fill:#605D5C;stroke:#000000;stroke-width:0.25;stroke-miterlimit:5;" points="481.6,597.6 466.1,588.7 
		450.6,597.6 450.6,615.6 466.1,624.5 481.6,615.6 	"/>
	<path style="fill:#716F6E;stroke:#111621;stroke-width:0.25;stroke-miterlimit:10;" d="M480.3,606.6c0-7.8-6.3-14.2-14.2-14.2
		s-14.2,6.3-14.2,14.2c0,7.8,6.3,14.2,14.2,14.2S480.3,614.4,480.3,606.6"/>
	<path style="fill:#949393;stroke:#000000;stroke-width:0.25;stroke-miterlimit:10;" d="M466.1,617.7c6.1,0,11.1-5,11.1-11.1
		c0-6.1-5-11.1-11.2-11.1c-6.1,0-11.1,5-11.1,11.1C455,612.7,460,617.7,466.1,617.7z"/>
</g>
<g>
	<polygon style="fill:#605D5C;stroke:#000000;stroke-width:0.25;stroke-miterlimit:5;" points="386.2,597.6 370.7,588.7 
		355.2,597.6 355.2,615.6 370.7,624.5 386.2,615.6 	"/>
	<path style="fill:#716F6E;stroke:#111621;stroke-width:0.25;stroke-miterlimit:10;" d="M384.9,606.6c0-7.8-6.3-14.2-14.2-14.2
		s-14.2,6.3-14.2,14.2c0,7.8,6.3,14.2,14.2,14.2S384.9,614.4,384.9,606.6"/>
	<path style="fill:#949393;stroke:#000000;stroke-width:0.25;stroke-miterlimit:10;" d="M370.7,617.7c6.1,0,11.1-5,11.1-11.1
		c0-6.1-5-11.1-11.2-11.1s-11.1,5-11.1,11.1C359.6,612.7,364.6,617.7,370.7,617.7z"/>
</g>
<g>
	<polygon style="fill:#605D5C;stroke:#000000;stroke-width:0.25;stroke-miterlimit:5;" points="433,597.6 417.5,588.7 401.9,597.6 
		401.9,615.6 417.5,624.5 433,615.6 	"/>
	<path style="fill:#716F6E;stroke:#111621;stroke-width:0.25;stroke-miterlimit:10;" d="M431.6,606.6c0-7.8-6.3-14.2-14.2-14.2
		c-7.8,0-14.2,6.3-14.2,14.2c0,7.8,6.3,14.2,14.2,14.2C425.3,620.8,431.6,614.4,431.6,606.6"/>
	<path style="fill:#949393;stroke:#000000;stroke-width:0.25;stroke-miterlimit:10;" d="M417.5,617.7c6.1,0,11.1-5,11.1-11.1
		c0-6.1-5-11.1-11.2-11.1s-11.1,5-11.1,11.1C406.3,612.7,411.3,617.7,417.5,617.7z"/>
</g>
<g>
	<polygon style="fill:#605D5C;stroke:#000000;stroke-width:0.25;stroke-miterlimit:5;" points="627.8,597.6 612.2,588.7 
		596.7,597.6 596.7,615.6 612.2,624.5 627.8,615.6 	"/>
	<path style="fill:#716F6E;stroke:#111621;stroke-width:0.25;stroke-miterlimit:10;" d="M626.4,606.6c0-7.8-6.3-14.2-14.2-14.2
		c-7.8,0-14.2,6.3-14.2,14.2c0,7.8,6.3,14.2,14.2,14.2C620.1,620.8,626.4,614.4,626.4,606.6"/>
	<path style="fill:#949393;stroke:#000000;stroke-width:0.25;stroke-miterlimit:10;" d="M612.3,617.7c6.1,0,11.1-5,11.1-11.1
		c0-6.1-5-11.1-11.2-11.1c-6.1,0-11.1,5-11.1,11.1C601.1,612.7,606.1,617.7,612.3,617.7z"/>
</g>
<g>
	<polygon style="fill:#605D5C;stroke:#000000;stroke-width:0.25;stroke-miterlimit:5;" points="675.2,597.6 659.7,588.7 
		644.2,597.6 644.2,615.6 659.7,624.5 675.2,615.6 	"/>
	<path style="fill:#716F6E;stroke:#111621;stroke-width:0.25;stroke-miterlimit:10;" d="M673.9,606.6c0-7.8-6.3-14.2-14.2-14.2
		s-14.2,6.3-14.2,14.2c0,7.8,6.3,14.2,14.2,14.2S673.9,614.4,673.9,606.6"/>
	<path style="fill:#949393;stroke:#000000;stroke-width:0.25;stroke-miterlimit:10;" d="M659.7,617.7c6.1,0,11.1-5,11.1-11.1
		c0-6.1-5-11.1-11.2-11.1c-6.1,0-11.1,5-11.1,11.1C648.6,612.7,653.6,617.7,659.7,617.7z"/>
</g>
<g>
	<polygon style="fill:#605D5C;stroke:#000000;stroke-width:0.25;stroke-miterlimit:5;" points="337.8,597.6 322.2,588.7 
		306.7,597.6 306.7,615.6 322.2,624.5 337.8,615.6 	"/>
	<path style="fill:#716F6E;stroke:#111621;stroke-width:0.25;stroke-miterlimit:10;" d="M336.4,606.6c0-7.8-6.3-14.2-14.2-14.2
		c-7.8,0-14.2,6.3-14.2,14.2c0,7.8,6.3,14.2,14.2,14.2C330.1,620.8,336.4,614.4,336.4,606.6"/>
	<path style="fill:#949393;stroke:#000000;stroke-width:0.25;stroke-miterlimit:10;" d="M322.3,617.7c6.1,0,11.1-5,11.1-11.1
		c0-6.1-5-11.1-11.2-11.1s-11.1,5-11.1,11.1C311.1,612.7,316.1,617.7,322.3,617.7z"/>
</g>
<g>
	<polygon style="fill:#605D5C;stroke:#000000;stroke-width:0.25;stroke-miterlimit:5;" points="531.4,597.6 515.9,588.7 
		500.3,597.6 500.3,615.6 515.9,624.5 531.4,615.6 	"/>
	<path style="fill:#716F6E;stroke:#111621;stroke-width:0.25;stroke-miterlimit:10;" d="M530,606.6c0-7.8-6.3-14.2-14.2-14.2
		c-7.8,0-14.2,6.3-14.2,14.2c0,7.8,6.3,14.2,14.2,14.2C523.7,620.8,530,614.4,530,606.6"/>
	<path style="fill:#949393;stroke:#000000;stroke-width:0.25;stroke-miterlimit:10;" d="M515.9,617.7c6.1,0,11.1-5,11.1-11.1
		c0-6.1-5-11.1-11.2-11.1c-6.1,0-11.1,5-11.1,11.1C504.7,612.7,509.7,617.7,515.9,617.7z"/>
</g>
<g>
	<polygon style="fill:#605D5C;stroke:#000000;stroke-width:0.25;stroke-miterlimit:5;" points="289.6,597.6 274.1,588.7 
		258.5,597.6 258.5,615.6 274.1,624.5 289.6,615.6 	"/>
	<path style="fill:#716F6E;stroke:#000000;stroke-width:0.25;stroke-miterlimit:5;" d="M288.2,606.6c0-7.8-6.3-14.2-14.2-14.2
		s-14.2,6.3-14.2,14.2c0,7.8,6.3,14.2,14.2,14.2S288.2,614.4,288.2,606.6"/>
	<path style="fill:#949393;stroke:#000000;stroke-width:0.25;stroke-miterlimit:5;" d="M274.1,617.7c6.1,0,11.1-5,11.1-11.1
		c0-6.1-5-11.1-11.2-11.1s-11.1,5-11.1,11.1C262.9,612.7,267.9,617.7,274.1,617.7z"/>
</g>
<g>
	<polygon style="fill:#605D5C;stroke:#000000;stroke-width:0.5;stroke-miterlimit:5;" points="241.8,597.6 226.3,588.7 210.8,597.6 
		210.8,615.6 226.3,624.5 241.8,615.6 	"/>
	<path style="fill:#716F6E;stroke:#000000;stroke-width:0.5;stroke-miterlimit:5;" d="M240.5,606.6c0-7.8-6.3-14.2-14.2-14.2
		s-14.2,6.3-14.2,14.2c0,7.8,6.3,14.2,14.2,14.2S240.5,614.4,240.5,606.6"/>
	<path style="fill:#949393;stroke:#000000;stroke-width:0.5;stroke-miterlimit:5;" d="M226.3,617.7c6.1,0,11.1-5,11.1-11.1
		c0-6.1-5-11.1-11.2-11.1s-11.1,5-11.1,11.1C215.2,612.7,220.2,617.7,226.3,617.7z"/>
</g>
<g>
	<polygon style="fill:#605D5C;stroke:#000000;stroke-width:0.5;stroke-miterlimit:5;" points="193.1,597.6 177.5,588.7 162,597.6 
		162,615.6 177.5,624.5 193.1,615.6 	"/>
	<path style="fill:#716F6E;stroke:#000000;stroke-width:0.5;stroke-miterlimit:5;" d="M191.7,606.6c0-7.8-6.3-14.2-14.2-14.2
		s-14.2,6.3-14.2,14.2c0,7.8,6.3,14.2,14.2,14.2S191.7,614.4,191.7,606.6"/>
	<path style="fill:#949393;stroke:#000000;stroke-width:0.5;stroke-miterlimit:5;" d="M177.6,617.7c6.1,0,11.1-5,11.1-11.1
		c0-6.1-5-11.1-11.2-11.1s-11.1,5-11.1,11.1C166.4,612.7,171.4,617.7,177.6,617.7z"/>
</g>
<g>
	<polygon style="fill:#605D5C;stroke:#000000;stroke-width:0.5;stroke-miterlimit:5;" points="144.2,597.6 128.6,588.7 113.1,597.6 
		113.1,615.6 128.6,624.5 144.2,615.6 	"/>
	<path style="fill:#716F6E;stroke:#000000;stroke-width:0.5;stroke-miterlimit:5;" d="M142.8,606.6c0-7.8-6.3-14.2-14.2-14.2
		s-14.2,6.3-14.2,14.2c0,7.8,6.3,14.2,14.2,14.2S142.8,614.4,142.8,606.6"/>
	<path style="fill:#949393;stroke:#000000;stroke-width:0.5;stroke-miterlimit:5;" d="M128.6,617.7c6.1,0,11.1-5,11.1-11.1
		c0-6.1-5-11.1-11.2-11.1c-6.1,0-11.1,5-11.1,11.1C117.5,612.7,122.5,617.7,128.6,617.7z"/>
</g>
<g>
	<polygon style="fill:#605D5C;stroke:#000000;stroke-width:0.25;stroke-miterlimit:5;" points="481.6,723.3 466.1,714.3 
		450.5,723.3 450.5,741.2 466.1,750.2 481.6,741.2 	"/>
	<path style="fill:#716F6E;stroke:#111621;stroke-width:0.25;stroke-miterlimit:10;" d="M480.2,732.3c0-7.8-6.3-14.2-14.2-14.2
		s-14.2,6.3-14.2,14.2c0,7.8,6.3,14.2,14.2,14.2S480.2,740.1,480.2,732.3"/>
	<path style="fill:#949393;stroke:#000000;stroke-width:0.25;stroke-miterlimit:10;" d="M466.1,743.3c6.1,0,11.1-5,11.1-11.1
		c0-6.1-5-11.1-11.2-11.1c-6.1,0-11.1,5-11.1,11.1C454.9,738.4,459.9,743.3,466.1,743.3z"/>
</g>
<g>
	<polygon style="fill:#605D5C;stroke:#000000;stroke-width:0.25;stroke-miterlimit:5;" points="386.2,723.3 370.6,714.3 
		355.1,723.3 355.1,741.2 370.6,750.2 386.2,741.2 	"/>
	<path style="fill:#716F6E;stroke:#111621;stroke-width:0.25;stroke-miterlimit:10;" d="M384.8,732.3c0-7.8-6.3-14.2-14.2-14.2
		s-14.2,6.3-14.2,14.2c0,7.8,6.3,14.2,14.2,14.2S384.8,740.1,384.8,732.3"/>
	<path style="fill:#949393;stroke:#000000;stroke-width:0.25;stroke-miterlimit:10;" d="M370.7,743.3c6.1,0,11.1-5,11.1-11.1
		c0-6.1-5-11.1-11.2-11.1c-6.1,0-11.1,5-11.1,11.1C359.5,738.4,364.5,743.3,370.7,743.3z"/>
</g>
<g>
	<polygon style="fill:#605D5C;stroke:#000000;stroke-width:0.25;stroke-miterlimit:5;" points="578.7,723.3 563.2,714.3 
		547.6,723.3 547.6,741.2 563.2,750.2 578.7,741.2 	"/>
	<path style="fill:#716F6E;stroke:#111621;stroke-width:0.25;stroke-miterlimit:10;" d="M577.3,732.3c0-7.8-6.3-14.2-14.2-14.2
		c-7.8,0-14.2,6.3-14.2,14.2c0,7.8,6.3,14.2,14.2,14.2C571,746.4,577.3,740.1,577.3,732.3"/>
	<path style="fill:#949393;stroke:#000000;stroke-width:0.25;stroke-miterlimit:10;" d="M563.2,743.3c6.1,0,11.1-5,11.1-11.1
		c0-6.1-5-11.1-11.2-11.1c-6.1,0-11.1,5-11.1,11.1C552,738.4,557,743.3,563.2,743.3z"/>
</g>
<g>
	<polygon style="fill:#605D5C;stroke:#000000;stroke-width:0.25;stroke-miterlimit:5;" points="675.2,723.3 659.6,714.3 
		644.1,723.3 644.1,741.2 659.6,750.2 675.2,741.2 	"/>
	<path style="fill:#716F6E;stroke:#111621;stroke-width:0.25;stroke-miterlimit:10;" d="M673.8,732.3c0-7.8-6.3-14.2-14.2-14.2
		c-7.8,0-14.2,6.3-14.2,14.2c0,7.8,6.3,14.2,14.2,14.2C667.5,746.4,673.8,740.1,673.8,732.3"/>
	<path style="fill:#949393;stroke:#000000;stroke-width:0.25;stroke-miterlimit:10;" d="M659.7,743.3c6.1,0,11.1-5,11.1-11.1
		c0-6.1-5-11.1-11.2-11.1c-6.1,0-11.1,5-11.1,11.1C648.5,738.4,653.5,743.3,659.7,743.3z"/>
</g>
<g>
	<polygon style="fill:#605D5C;stroke:#000000;stroke-width:0.25;stroke-miterlimit:5;" points="726.6,723.3 711.1,714.3 
		695.6,723.3 695.6,741.2 711.1,750.2 726.6,741.2 	"/>
	<path style="fill:#716F6E;stroke:#111621;stroke-width:0.25;stroke-miterlimit:10;" d="M725.3,732.3c0-7.8-6.3-14.2-14.2-14.2
		c-7.8,0-14.2,6.3-14.2,14.2c0,7.8,6.3,14.2,14.2,14.2C718.9,746.4,725.3,740.1,725.3,732.3"/>
	<path style="fill:#949393;stroke:#000000;stroke-width:0.25;stroke-miterlimit:10;" d="M711.1,743.3c6.1,0,11.1-5,11.1-11.1
		c0-6.1-5-11.1-11.2-11.1c-6.1,0-11.1,5-11.1,11.1C700,738.4,705,743.3,711.1,743.3z"/>
</g>
<g>
	<polygon style="fill:#605D5C;stroke:#000000;stroke-width:0.25;stroke-miterlimit:5;" points="820.8,723.3 805.2,714.3 
		789.7,723.3 789.7,741.2 805.2,750.2 820.8,741.2 	"/>
	<path style="fill:#716F6E;stroke:#111621;stroke-width:0.25;stroke-miterlimit:10;" d="M819.4,732.3c0-7.8-6.3-14.2-14.2-14.2
		c-7.8,0-14.2,6.3-14.2,14.2c0,7.8,6.3,14.2,14.2,14.2C813.1,746.4,819.4,740.1,819.4,732.3"/>
	<path style="fill:#949393;stroke:#000000;stroke-width:0.25;stroke-miterlimit:10;" d="M805.3,743.3c6.1,0,11.1-5,11.1-11.1
		c0-6.1-5-11.1-11.2-11.1c-6.1,0-11.1,5-11.1,11.1C794.1,738.4,799.1,743.3,805.3,743.3z"/>
</g>
<g>
	<polygon style="fill:#605D5C;stroke:#000000;stroke-width:0.25;stroke-miterlimit:5;" points="337.7,723.3 322.2,714.3 
		306.7,723.3 306.7,741.2 322.2,750.2 337.7,741.2 	"/>
	<path style="fill:#716F6E;stroke:#111621;stroke-width:0.25;stroke-miterlimit:10;" d="M336.4,732.3c0-7.8-6.3-14.2-14.2-14.2
		s-14.2,6.3-14.2,14.2c0,7.8,6.3,14.2,14.2,14.2S336.4,740.1,336.4,732.3"/>
	<path style="fill:#949393;stroke:#000000;stroke-width:0.25;stroke-miterlimit:10;" d="M322.2,743.3c6.1,0,11.1-5,11.1-11.1
		c0-6.1-5-11.1-11.2-11.1s-11.1,5-11.1,11.1C311.1,738.4,316.1,743.3,322.2,743.3z"/>
</g>
<g>
	<polygon style="fill:#605D5C;stroke:#000000;stroke-width:0.25;stroke-miterlimit:5;" points="289.5,723.3 274,714.3 258.5,723.3 
		258.5,741.2 274,750.2 289.5,741.2 	"/>
	<path style="fill:#716F6E;stroke:#000000;stroke-width:0.25;stroke-miterlimit:5;" d="M288.2,732.3c0-7.8-6.3-14.2-14.2-14.2
		s-14.2,6.3-14.2,14.2c0,7.8,6.3,14.2,14.2,14.2S288.2,740.1,288.2,732.3"/>
	<path style="fill:#949393;stroke:#000000;stroke-width:0.25;stroke-miterlimit:5;" d="M274,743.3c6.1,0,11.1-5,11.1-11.1
		c0-6.1-5-11.1-11.2-11.1s-11.1,5-11.1,11.1C262.9,738.4,267.9,743.3,274,743.3z"/>
</g>
<g>
	<polygon style="fill:#605D5C;stroke:#000000;stroke-width:0.5;stroke-miterlimit:5;" points="241.8,723.3 226.2,714.3 210.7,723.3 
		210.7,741.2 226.2,750.2 241.8,741.2 	"/>
	<path style="fill:#716F6E;stroke:#000000;stroke-width:0.5;stroke-miterlimit:5;" d="M240.4,732.3c0-7.8-6.3-14.2-14.2-14.2
		c-7.8,0-14.2,6.3-14.2,14.2c0,7.8,6.3,14.2,14.2,14.2C234.1,746.4,240.4,740.1,240.4,732.3"/>
	<path style="fill:#949393;stroke:#000000;stroke-width:0.5;stroke-miterlimit:5;" d="M226.3,743.3c6.1,0,11.1-5,11.1-11.1
		c0-6.1-5-11.1-11.2-11.1c-6.1,0-11.1,5-11.1,11.1C215.1,738.4,220.1,743.3,226.3,743.3z"/>
</g>
<g>
	<polygon style="fill:#605D5C;stroke:#000000;stroke-width:0.5;stroke-miterlimit:5;" points="193,723.3 177.5,714.3 162,723.3 
		162,741.2 177.5,750.2 193,741.2 	"/>
	<path style="fill:#716F6E;stroke:#000000;stroke-width:0.5;stroke-miterlimit:5;" d="M191.7,732.3c0-7.8-6.3-14.2-14.2-14.2
		c-7.8,0-14.2,6.3-14.2,14.2c0,7.8,6.3,14.2,14.2,14.2C185.3,746.4,191.7,740.1,191.7,732.3"/>
	<path style="fill:#949393;stroke:#000000;stroke-width:0.5;stroke-miterlimit:5;" d="M177.5,743.3c6.1,0,11.1-5,11.1-11.1
		c0-6.1-5-11.1-11.2-11.1c-6.1,0-11.1,5-11.1,11.1C166.4,738.4,171.4,743.3,177.5,743.3z"/>
</g>
<g>
	<polygon style="fill:#605D5C;stroke:#000000;stroke-width:0.5;stroke-miterlimit:5;" points="144.1,723.3 128.6,714.3 113,723.3 
		113,741.2 128.6,750.2 144.1,741.2 	"/>
	<path style="fill:#716F6E;stroke:#000000;stroke-width:0.5;stroke-miterlimit:5;" d="M142.7,732.3c0-7.8-6.3-14.2-14.2-14.2
		s-14.2,6.3-14.2,14.2c0,7.8,6.3,14.2,14.2,14.2S142.7,740.1,142.7,732.3"/>
	<path style="fill:#949393;stroke:#000000;stroke-width:0.5;stroke-miterlimit:5;" d="M128.6,743.3c6.1,0,11.1-5,11.1-11.1
		c0-6.1-5-11.1-11.2-11.1c-6.1,0-11.1,5-11.1,11.1C117.4,738.4,122.4,743.3,128.6,743.3z"/>
</g>
<g>
	<polygon style="fill:#605D5C;stroke:#000000;stroke-width:0.25;stroke-miterlimit:5;" points="481.9,660.3 466.4,651.3 
		450.8,660.3 450.8,678.2 466.4,687.2 481.9,678.2 	"/>
	<path style="fill:#716F6E;stroke:#111621;stroke-width:0.25;stroke-miterlimit:10;" d="M480.5,669.3c0-7.8-6.3-14.2-14.2-14.2
		c-7.8,0-14.2,6.3-14.2,14.2c0,7.8,6.3,14.2,14.2,14.2C474.2,683.4,480.5,677.1,480.5,669.3"/>
	<path style="fill:#949393;stroke:#000000;stroke-width:0.25;stroke-miterlimit:10;" d="M466.4,680.3c6.1,0,11.1-5,11.1-11.1
		c0-6.1-5-11.1-11.2-11.1s-11.1,5-11.1,11.1C455.2,675.4,460.2,680.3,466.4,680.3z"/>
</g>
<g>
	<polygon style="fill:#605D5C;stroke:#000000;stroke-width:0.25;stroke-miterlimit:5;" points="386.5,660.3 370.9,651.3 
		355.4,660.3 355.4,678.2 370.9,687.2 386.5,678.2 	"/>
	<path style="fill:#716F6E;stroke:#111621;stroke-width:0.25;stroke-miterlimit:10;" d="M385.1,669.3c0-7.8-6.3-14.2-14.2-14.2
		s-14.2,6.3-14.2,14.2c0,7.8,6.3,14.2,14.2,14.2S385.1,677.1,385.1,669.3"/>
	<path style="fill:#949393;stroke:#000000;stroke-width:0.25;stroke-miterlimit:10;" d="M371,680.3c6.1,0,11.1-5,11.1-11.1
		c0-6.1-5-11.1-11.2-11.1c-6.1,0-11.1,5-11.1,11.1C359.8,675.4,364.8,680.3,371,680.3z"/>
</g>
<g>
	<polygon style="fill:#605D5C;stroke:#000000;stroke-width:0.25;stroke-miterlimit:5;" points="628,660.3 612.5,651.3 597,660.3 
		597,678.2 612.5,687.2 628,678.2 	"/>
	<path style="fill:#716F6E;stroke:#111621;stroke-width:0.25;stroke-miterlimit:10;" d="M626.7,669.3c0-7.8-6.3-14.2-14.2-14.2
		c-7.8,0-14.2,6.3-14.2,14.2c0,7.8,6.3,14.2,14.2,14.2C620.3,683.4,626.7,677.1,626.7,669.3"/>
	<path style="fill:#949393;stroke:#000000;stroke-width:0.25;stroke-miterlimit:10;" d="M612.5,680.3c6.1,0,11.1-5,11.1-11.1
		c0-6.1-5-11.1-11.2-11.1c-6.1,0-11.1,5-11.1,11.1C601.4,675.4,606.4,680.3,612.5,680.3z"/>
</g>
<g>
	<polygon style="fill:#605D5C;stroke:#000000;stroke-width:0.25;stroke-miterlimit:5;" points="338,660.3 322.5,651.3 307,660.3 
		307,678.2 322.5,687.2 338,678.2 	"/>
	<path style="fill:#716F6E;stroke:#111621;stroke-width:0.25;stroke-miterlimit:10;" d="M336.7,669.3c0-7.8-6.3-14.2-14.2-14.2
		s-14.2,6.3-14.2,14.2c0,7.8,6.3,14.2,14.2,14.2S336.7,677.1,336.7,669.3"/>
	<path style="fill:#949393;stroke:#000000;stroke-width:0.25;stroke-miterlimit:10;" d="M322.5,680.3c6.1,0,11.1-5,11.1-11.1
		c0-6.1-5-11.1-11.2-11.1s-11.1,5-11.1,11.1C311.4,675.4,316.4,680.3,322.5,680.3z"/>
</g>
<g>
	<polygon style="fill:#605D5C;stroke:#000000;stroke-width:0.25;stroke-miterlimit:5;" points="289.8,660.3 274.3,651.3 
		258.8,660.3 258.8,678.2 274.3,687.2 289.8,678.2 	"/>
	<path style="fill:#716F6E;stroke:#000000;stroke-width:0.25;stroke-miterlimit:5;" d="M288.5,669.3c0-7.8-6.3-14.2-14.2-14.2
		s-14.2,6.3-14.2,14.2c0,7.8,6.3,14.2,14.2,14.2S288.5,677.1,288.5,669.3"/>
	<path style="fill:#949393;stroke:#000000;stroke-width:0.25;stroke-miterlimit:5;" d="M274.3,680.3c6.1,0,11.1-5,11.1-11.1
		c0-6.1-5-11.1-11.2-11.1c-6.1,0-11.1,5-11.1,11.1C263.2,675.4,268.2,680.3,274.3,680.3z"/>
</g>
<g>
	<polygon style="fill:#605D5C;stroke:#000000;stroke-width:0.5;stroke-miterlimit:5;" points="242.1,660.3 226.5,651.3 211,660.3 
		211,678.2 226.5,687.2 242.1,678.2 	"/>
	<path style="fill:#716F6E;stroke:#000000;stroke-width:0.5;stroke-miterlimit:5;" d="M240.7,669.3c0-7.8-6.3-14.2-14.2-14.2
		s-14.2,6.3-14.2,14.2c0,7.8,6.3,14.2,14.2,14.2S240.7,677.1,240.7,669.3"/>
	<path style="fill:#949393;stroke:#000000;stroke-width:0.5;stroke-miterlimit:5;" d="M226.6,680.3c6.1,0,11.1-5,11.1-11.1
		c0-6.1-5-11.1-11.2-11.1c-6.1,0-11.1,5-11.1,11.1C215.4,675.4,220.4,680.3,226.6,680.3z"/>
</g>
<g>
	<polygon style="fill:#605D5C;stroke:#000000;stroke-width:0.5;stroke-miterlimit:5;" points="193.3,660.3 177.8,651.3 162.3,660.3 
		162.3,678.2 177.8,687.2 193.3,678.2 	"/>
	<path style="fill:#716F6E;stroke:#000000;stroke-width:0.5;stroke-miterlimit:5;" d="M192,669.3c0-7.8-6.3-14.2-14.2-14.2
		s-14.2,6.3-14.2,14.2c0,7.8,6.3,14.2,14.2,14.2S192,677.1,192,669.3"/>
	<path style="fill:#949393;stroke:#000000;stroke-width:0.5;stroke-miterlimit:5;" d="M177.8,680.3c6.1,0,11.1-5,11.1-11.1
		c0-6.1-5-11.1-11.2-11.1c-6.1,0-11.1,5-11.1,11.1C166.7,675.4,171.7,680.3,177.8,680.3z"/>
</g>
<g>
	<polygon style="fill:#605D5C;stroke:#000000;stroke-width:0.5;stroke-miterlimit:5;" points="144.4,660.3 128.9,651.3 113.3,660.3 
		113.3,678.2 128.9,687.2 144.4,678.2 	"/>
	<path style="fill:#716F6E;stroke:#000000;stroke-width:0.5;stroke-miterlimit:5;" d="M143,669.3c0-7.8-6.3-14.2-14.2-14.2
		c-7.8,0-14.2,6.3-14.2,14.2c0,7.8,6.3,14.2,14.2,14.2C136.7,683.4,143,677.1,143,669.3"/>
	<path style="fill:#949393;stroke:#000000;stroke-width:0.5;stroke-miterlimit:5;" d="M128.9,680.3c6.1,0,11.1-5,11.1-11.1
		c0-6.1-5-11.1-11.2-11.1c-6.1,0-11.1,5-11.1,11.1C117.7,675.4,122.7,680.3,128.9,680.3z"/>
</g>
<g>
	<polygon style="fill:#605D5C;stroke:#000000;stroke-width:0.25;stroke-miterlimit:5;" points="289.5,149.3 273.9,140.4 
		258.4,149.3 258.4,167.3 273.9,176.2 289.5,167.3 	"/>
	<path style="fill:#716F6E;stroke:#000000;stroke-width:0.25;stroke-miterlimit:5;" d="M288.1,158.3c0-7.8-6.3-14.2-14.2-14.2
		s-14.2,6.3-14.2,14.2c0,7.8,6.3,14.2,14.2,14.2S288.1,166.1,288.1,158.3"/>
	<path style="fill:#949393;stroke:#000000;stroke-width:0.25;stroke-miterlimit:5;" d="M273.9,169.4c6.1,0,11.1-5,11.1-11.1
		c0-6.1-5-11.1-11.2-11.1c-6.1,0-11.1,5-11.1,11.1C262.8,164.4,267.8,169.4,273.9,169.4z"/>
</g>
<g>
	<polygon style="fill:#605D5C;stroke:#000000;stroke-width:0.25;stroke-miterlimit:5;" points="338.6,82.1 323.1,73.1 307.6,82.1 
		307.6,100 323.1,109 338.6,100 	"/>
	<path style="fill:#716F6E;stroke:#000000;stroke-width:0.25;stroke-miterlimit:5;" d="M337.3,91c0-7.8-6.3-14.2-14.2-14.2
		c-7.8,0-14.2,6.3-14.2,14.2c0,7.8,6.3,14.2,14.2,14.2C330.9,105.2,337.3,98.8,337.3,91"/>
	<path style="fill:#949393;stroke:#000000;stroke-width:0.25;stroke-miterlimit:5;" d="M323.1,102.1c6.1,0,11.1-5,11.1-11.1
		c0-6.1-5-11.1-11.2-11.1S312,84.9,312,91C312,97.1,317,102.1,323.1,102.1z"/>
</g>
<g>
	<polygon style="fill:#605D5C;stroke:#000000;stroke-width:0.25;stroke-miterlimit:5;" points="241.5,82.1 226,73.1 210.5,82.1 
		210.5,100 226,109 241.5,100 	"/>
	<path style="fill:#716F6E;stroke:#000000;stroke-width:0.25;stroke-miterlimit:5;" d="M240.2,91c0-7.8-6.3-14.2-14.2-14.2
		s-14.2,6.3-14.2,14.2c0,7.8,6.3,14.2,14.2,14.2S240.2,98.8,240.2,91"/>
	<path style="fill:#949393;stroke:#000000;stroke-width:0.25;stroke-miterlimit:5;" d="M226,102.1c6.1,0,11.1-5,11.1-11.1
		c0-6.1-5-11.1-11.2-11.1s-11.1,5-11.1,11.1C214.9,97.1,219.9,102.1,226,102.1z"/>
</g>
<g>
	<polygon style="fill:#605D5C;stroke:#000000;stroke-width:0.25;stroke-miterlimit:5;" points="193.2,82.1 177.7,73.1 162.1,82.1 
		162.1,100 177.6,109 193.2,100 	"/>
	<path style="fill:#716F6E;stroke:#000000;stroke-width:0.25;stroke-miterlimit:5;" d="M191.8,91c0-7.8-6.3-14.2-14.2-14.2
		s-14.2,6.3-14.2,14.2c0,7.8,6.3,14.2,14.2,14.2S191.8,98.8,191.8,91"/>
	<path style="fill:#949393;stroke:#000000;stroke-width:0.25;stroke-miterlimit:5;" d="M177.7,102.1c6.1,0,11.1-5,11.1-11.1
		c0-6.1-5-11.1-11.2-11.1s-11.1,5-11.1,11.1C166.5,97.1,171.5,102.1,177.7,102.1z"/>
</g>
<g>
	<polygon style="fill:#605D5C;stroke:#000000;stroke-width:0.5;stroke-miterlimit:5;" points="241.7,149.3 226.2,140.4 210.6,149.3 
		210.6,167.3 226.2,176.2 241.7,167.3 	"/>
	<path style="fill:#716F6E;stroke:#000000;stroke-width:0.5;stroke-miterlimit:5;" d="M240.3,158.3c0-7.8-6.3-14.2-14.2-14.2
		s-14.2,6.3-14.2,14.2c0,7.8,6.3,14.2,14.2,14.2S240.3,166.1,240.3,158.3"/>
	<path style="fill:#949393;stroke:#000000;stroke-width:0.5;stroke-miterlimit:5;" d="M226.2,169.4c6.1,0,11.1-5,11.1-11.1
		c0-6.1-5-11.1-11.2-11.1s-11.1,5-11.1,11.1C215,164.4,220,169.4,226.2,169.4z"/>
</g>
<g>
	<polygon style="fill:#605D5C;stroke:#000000;stroke-width:0.5;stroke-miterlimit:5;" points="192.9,149.3 177.4,140.4 161.9,149.3 
		161.9,167.3 177.4,176.2 192.9,167.3 	"/>
	<path style="fill:#716F6E;stroke:#000000;stroke-width:0.5;stroke-miterlimit:5;" d="M191.6,158.3c0-7.8-6.3-14.2-14.2-14.2
		s-14.2,6.3-14.2,14.2c0,7.8,6.3,14.2,14.2,14.2S191.6,166.1,191.6,158.3"/>
	<path style="fill:#949393;stroke:#000000;stroke-width:0.5;stroke-miterlimit:5;" d="M177.4,169.4c6.1,0,11.1-5,11.1-11.1
		c0-6.1-5-11.1-11.2-11.1s-11.1,5-11.1,11.1C166.3,164.4,171.3,169.4,177.4,169.4z"/>
</g>
<g>
	<polygon style="fill:#605D5C;stroke:#000000;stroke-width:0.5;stroke-miterlimit:5;" points="144,149.3 128.5,140.4 113,149.3 
		113,167.3 128.5,176.2 144,167.3 	"/>
	<path style="fill:#716F6E;stroke:#000000;stroke-width:0.5;stroke-miterlimit:5;" d="M142.7,158.3c0-7.8-6.3-14.2-14.2-14.2
		c-7.8,0-14.2,6.3-14.2,14.2c0,7.8,6.3,14.2,14.2,14.2C136.3,172.5,142.7,166.1,142.7,158.3"/>
	<path style="fill:#949393;stroke:#000000;stroke-width:0.5;stroke-miterlimit:5;" d="M128.5,169.4c6.1,0,11.1-5,11.1-11.1
		c0-6.1-5-11.1-11.2-11.1c-6.1,0-11.1,5-11.1,11.1C117.4,164.4,122.4,169.4,128.5,169.4z"/>
</g>
<g>
	<text transform="matrix(1 0 0 1 223.1997 95.4493)" style="fill:#FFFFFF; font-family:'ArialMT'; font-size:11.9518px;">5</text>
</g>
<g>
	<text transform="matrix(1 0 0 1 319.75 95.4493)" style="fill:#FFFFFF; font-family:'ArialMT'; font-size:11.9518px;">1</text>
</g>
<g>
	<text transform="matrix(1 0 0 1 170.1494 95.4493)" style="fill:#FFFFFF; font-family:'ArialMT'; font-size:11.9518px;">10</text>
</g>
<g>
	<text transform="matrix(1 0 0 1 125.6494 162.4991)" style="fill:#FFFFFF; font-family:'ArialMT'; font-size:11.9518px;">5</text>
</g>
<g>
	<text transform="matrix(1 0 0 1 174.5 162.4991)" style="fill:#FFFFFF; font-family:'ArialMT'; font-size:11.9518px;">5</text>
</g>
<g>
	<text transform="matrix(1 0 0 1 223.1997 162.4991)" style="fill:#FFFFFF; font-family:'ArialMT'; font-size:11.9518px;">2</text>
</g>
<g>
	<text transform="matrix(1 0 0 1 270.9497 162.4991)" style="fill:#FFFFFF; font-family:'ArialMT'; font-size:11.9518px;">3</text>
</g>
<g>
	<text transform="matrix(1 0 0 1 125.6494 225.4493)" style="fill:#FFFFFF; font-family:'ArialMT'; font-size:11.9518px;">5</text>
</g>
<g>
	<text transform="matrix(1 0 0 1 174.5 225.4493)" style="fill:#FFFFFF; font-family:'ArialMT'; font-size:11.9518px;">5</text>
</g>
<g>
	<text transform="matrix(1 0 0 1 223.1997 225.4493)" style="fill:#FFFFFF; font-family:'ArialMT'; font-size:11.9518px;">5</text>
</g>
<g>
	<text transform="matrix(1 0 0 1 416.1992 225.4493)" style="fill:#FFFFFF; font-family:'ArialMT'; font-size:11.9518px;">2</text>
</g>
<g>
	<text transform="matrix(1 0 0 1 320.7998 225.4493)" style="fill:#FFFFFF; font-family:'ArialMT'; font-size:11.9518px;">1</text>
</g>
<g>
	<text transform="matrix(1 0 0 1 318.75 290.7889)" style="fill:#FFFFFF; font-family:'ArialMT'; font-size:11.9518px;">1</text>
</g>
<g>
	<text transform="matrix(1 0 0 1 125.6494 356.1993)" style="fill:#FFFFFF; font-family:'ArialMT'; font-size:11.9518px;">2</text>
</g>
<g>
	<text transform="matrix(1 0 0 1 223.1997 356.1993)" style="fill:#FFFFFF; font-family:'ArialMT'; font-size:11.9518px;">5</text>
</g>
<g>
	<text transform="matrix(1 0 0 1 270.9497 356.1993)" style="fill:#FFFFFF; font-family:'ArialMT'; font-size:11.9518px;">1</text>
</g>
<g>
	<text transform="matrix(1 0 0 1 415.1992 356.1993)" style="fill:#FFFFFF; font-family:'ArialMT'; font-size:11.9518px;">5</text>
</g>
<g>
	<text transform="matrix(1 0 0 1 363.25 356.1993)" style="fill:#FFFFFF; font-family:'ArialMT'; font-size:11.9518px;">10</text>
</g>
<g>
	<text transform="matrix(1 0 0 1 171.25 356.1993)" style="fill:#FFFFFF; font-family:'ArialMT'; font-size:11.9518px;">10</text>
</g>
<g>
	<text transform="matrix(1 0 0 1 124.6494 421.2491)" style="fill:#FFFFFF; font-family:'ArialMT'; font-size:11.9518px;">2</text>
</g>
<g>
	<text transform="matrix(1 0 0 1 169.25 421.2491)" style="fill:#FFFFFF; font-family:'ArialMT'; font-size:11.9518px;">10</text>
</g>
<g>
	<text transform="matrix(1 0 0 1 222.1997 421.2491)" style="fill:#FFFFFF; font-family:'ArialMT'; font-size:11.9518px;">5</text>
</g>
<g>
	<text transform="matrix(1 0 0 1 265.6997 421.2491)" style="fill:#FFFFFF; font-family:'ArialMT'; font-size:11.9518px;">10</text>
</g>
<g>
	<text transform="matrix(1 0 0 1 318.75 421.2491)" style="fill:#FFFFFF; font-family:'ArialMT'; font-size:11.9518px;">1</text>
</g>
<g>
	<text transform="matrix(1 0 0 1 363.25 421.2491)" style="fill:#FFFFFF; font-family:'ArialMT'; font-size:11.9518px;">10</text>
</g>
<g>
	<text transform="matrix(1 0 0 1 414.1992 421.2491)" style="fill:#FFFFFF; font-family:'ArialMT'; font-size:11.9518px;">5</text>
</g>
<g>
	<text transform="matrix(1 0 0 1 121.3994 481.7491)" style="fill:#FFFFFF; font-family:'ArialMT'; font-size:11.9518px;">10</text>
</g>
<g>
	<text transform="matrix(1 0 0 1 170.25 481.7491)" style="fill:#FFFFFF; font-family:'ArialMT'; font-size:11.9518px;">10</text>
</g>
<g>
	<text transform="matrix(1 0 0 1 222.1997 481.7491)" style="fill:#FFFFFF; font-family:'ArialMT'; font-size:11.9518px;">5</text>
</g>
<g>
	<text transform="matrix(1 0 0 1 270.9497 481.7491)" style="fill:#FFFFFF; font-family:'ArialMT'; font-size:11.9518px;">2</text>
</g>
<g>
	<text transform="matrix(1 0 0 1 367.5 481.7491)" style="fill:#FFFFFF; font-family:'ArialMT'; font-size:11.9518px;">5</text>
</g>
<g>
	<text transform="matrix(1 0 0 1 125.6494 545.6994)" style="fill:#FFFFFF; font-family:'ArialMT'; font-size:11.9518px;">5</text>
</g>
<g>
	<text transform="matrix(1 0 0 1 174.5 545.6994)" style="fill:#FFFFFF; font-family:'ArialMT'; font-size:11.9518px;">5</text>
</g>
<g>
	<text transform="matrix(1 0 0 1 223.3496 545.6994)" style="fill:#FFFFFF; font-family:'ArialMT'; font-size:11.9518px;">2</text>
</g>
<g>
	<text transform="matrix(1 0 0 1 270.9497 545.6994)" style="fill:#FFFFFF; font-family:'ArialMT'; font-size:11.9518px;">2</text>
</g>
<g>
	<text transform="matrix(1 0 0 1 318.7998 545.6994)" style="fill:#FFFFFF; font-family:'ArialMT'; font-size:11.9518px;">3</text>
</g>
<g>
	<text transform="matrix(1 0 0 1 367.5 545.6994)" style="fill:#FFFFFF; font-family:'ArialMT'; font-size:11.9518px;">5</text>
</g>
<g>
	<text transform="matrix(1 0 0 1 414.1992 545.6994)" style="fill:#FFFFFF; font-family:'ArialMT'; font-size:11.9518px;">2</text>
</g>
<g>
	<text transform="matrix(1 0 0 1 463.0498 545.6994)" style="fill:#FFFFFF; font-family:'ArialMT'; font-size:11.9518px;">3</text>
</g>
<g>
	<text transform="matrix(1 0 0 1 512.75 545.6994)" style="fill:#FFFFFF; font-family:'ArialMT'; font-size:11.9518px;">5</text>
</g>
<g>
	<text transform="matrix(1 0 0 1 656.0498 545.6994)" style="fill:#FFFFFF; font-family:'ArialMT'; font-size:11.9518px;">5</text>
</g>
<g>
	<text transform="matrix(1 0 0 1 609.3496 545.6994)" style="fill:#FFFFFF; font-family:'ArialMT'; font-size:11.9518px;">3</text>
</g>
<g>
	<text transform="matrix(1 0 0 1 656.0498 610.7999)" style="fill:#FFFFFF; font-family:'ArialMT'; font-size:11.9518px;">5</text>
</g>
<g>
	<text transform="matrix(1 0 0 1 609.3496 610.7999)" style="fill:#FFFFFF; font-family:'ArialMT'; font-size:11.9518px;">3</text>
</g>
<g>
	<text transform="matrix(1 0 0 1 512.75 610.7999)" style="fill:#FFFFFF; font-family:'ArialMT'; font-size:11.9518px;">5</text>
</g>
<g>
	<text transform="matrix(1 0 0 1 463.0498 610.7999)" style="fill:#FFFFFF; font-family:'ArialMT'; font-size:11.9518px;">3</text>
</g>
<g>
	<text transform="matrix(1 0 0 1 414.1992 610.7999)" style="fill:#FFFFFF; font-family:'ArialMT'; font-size:11.9518px;">2</text>
</g>
<g>
	<text transform="matrix(1 0 0 1 367.5 610.7999)" style="fill:#FFFFFF; font-family:'ArialMT'; font-size:11.9518px;">5</text>
</g>
<g>
	<text transform="matrix(1 0 0 1 270.9497 610.7999)" style="fill:#FFFFFF; font-family:'ArialMT'; font-size:11.9518px;">3</text>
</g>
<g>
	<text transform="matrix(1 0 0 1 223.3496 610.7999)" style="fill:#FFFFFF; font-family:'ArialMT'; font-size:11.9518px;">2</text>
</g>
<g>
	<text transform="matrix(1 0 0 1 174.5 610.7999)" style="fill:#FFFFFF; font-family:'ArialMT'; font-size:11.9518px;">5</text>
</g>
<g>
	<text transform="matrix(1 0 0 1 125.6494 610.7999)" style="fill:#FFFFFF; font-family:'ArialMT'; font-size:11.9518px;">5</text>
</g>
<g>
	<text transform="matrix(1 0 0 1 121.3994 673.4493)" style="fill:#FFFFFF; font-family:'ArialMT'; font-size:11.9518px;">10</text>
</g>
<g>
	<text transform="matrix(1 0 0 1 174.5 673.4493)" style="fill:#FFFFFF; font-family:'ArialMT'; font-size:11.9518px;">5</text>
</g>
<g>
	<text transform="matrix(1 0 0 1 223.1997 673.4493)" style="fill:#FFFFFF; font-family:'ArialMT'; font-size:11.9518px;">5</text>
</g>
<g>
	<text transform="matrix(1 0 0 1 367.5 673.4493)" style="fill:#FFFFFF; font-family:'ArialMT'; font-size:11.9518px;">5</text>
</g>
<g>
	<text transform="matrix(1 0 0 1 463.0498 673.4493)" style="fill:#FFFFFF; font-family:'ArialMT'; font-size:11.9518px;">5</text>
</g>
<g>
	<text transform="matrix(1 0 0 1 174.5 736.4493)" style="fill:#FFFFFF; font-family:'ArialMT'; font-size:11.9518px;">1</text>
</g>
<g>
	<text transform="matrix(1 0 0 1 222.1997 736.4493)" style="fill:#FFFFFF; font-family:'ArialMT'; font-size:11.9518px;">1</text>
</g>
<g>
	<text transform="matrix(1 0 0 1 124.6494 736.4493)" style="fill:#FFFFFF; font-family:'ArialMT'; font-size:11.9518px;">5</text>
</g>
<g>
	<text transform="matrix(1 0 0 1 367.5 736.4493)" style="fill:#FFFFFF; font-family:'ArialMT'; font-size:11.9518px;">5</text>
</g>
<g>
	<text transform="matrix(1 0 0 1 462.0498 735.4493)" style="fill:#FFFFFF; font-family:'ArialMT'; font-size:11.9518px;">1</text>
</g>
<g>
	<text transform="matrix(1 0 0 1 802.3496 736.4493)" style="fill:#FFFFFF; font-family:'ArialMT'; font-size:11.9518px;">2</text>
</g>
<g>
	<text transform="matrix(1 0 0 1 555.1494 736.4493)" style="fill:#FFFFFF; font-family:'ArialMT'; font-size:11.9518px;">7,5</text>
</g>
<g>
	<text transform="matrix(1 0 0 1 313.3496 736.4493)" style="fill:#FFFFFF; font-family:'ArialMT'; font-size:11.9518px;">7,5</text>
</g>
<g>
	<text transform="matrix(1 0 0 1 314.3496 673.4493)" style="fill:#FFFFFF; font-family:'ArialMT'; font-size:11.9518px;">7,5</text>
</g>
<g>
	<text transform="matrix(1 0 0 1 314.3496 610.7999)" style="fill:#FFFFFF; font-family:'ArialMT'; font-size:11.9518px;">7,5</text>
</g>
<g>
	<text transform="matrix(1 0 0 1 556.1494 421.2491)" style="fill:#FFFFFF; font-family:'ArialMT'; font-size:11.9518px;">7,5</text>
</g>
<g>
	<text transform="matrix(1 0 0 1 170.1494 290.7889)" style="fill:#FFFFFF; font-family:'ArialMT'; font-size:11.9518px;">7,5</text>
</g>
<g>
	<text transform="matrix(1 0 0 1 560.0996 545.6993)" style="fill:#FFFFFF; font-family:'ArialMT'; font-size:11.9518px;">5</text>
</g>
<g>
	<text transform="matrix(1 0 0 1 655.7998 736.4493)" style="fill:#FFFFFF; font-family:'ArialMT'; font-size:11.9518px;">3</text>
</g>
<g>
	<text transform="matrix(1 0 0 1 704 736.4493)" style="fill:#FFFFFF; font-family:'ArialMT'; font-size:11.9518px;">15</text>
</g>
<g>
	<text transform="matrix(1 0 0 1 608.75 673.4493)" style="fill:#FFFFFF; font-family:'ArialMT'; font-size:11.9518px;">3</text>
</g>
<g>
	<text transform="matrix(1 0 0 1 462.4492 481.7491)" style="fill:#FFFFFF; font-family:'ArialMT'; font-size:11.9518px;">2</text>
</g>
<g>
	<text transform="matrix(1 0 0 1 511.1992 481.7491)" style="fill:#FFFFFF; font-family:'ArialMT'; font-size:11.9518px;">1</text>
</g>
<g>
	<text transform="matrix(1 0 0 1 270.6997 673.4493)" style="fill:#FFFFFF; font-family:'ArialMT'; font-size:11.9518px;">5</text>
</g>
<g>
	<text transform="matrix(1 0 0 1 266.6997 736.4493)" style="fill:#FFFFFF; font-family:'ArialMT'; font-size:11.9518px;">10</text>
</g>
<path style="fill:#DDDDDC;" d="M111.7,768.2v1.1h718.9v-1.1H111.7z"/>
<path style="fill:#DDDDDC;" d="M111.7,788.8v1h718.9v-1H111.7z"/>
<path style="fill:#DDDDDC;" d="M830.5,769.3h-1.1v19.5h1.1V769.3z"/>
<path style="fill:#DDDDDC;" d="M111.7,768.2h-1.1v21.6h1.1V768.2z"/>
<polygon style="fill:#DDDDDC;" points="836,676 749.2,676 748.2,676 747,676 747,740 749.2,740 749.2,678.2 836,678.2 "/>
<path style="fill:#DDDDDC;" d="M732.9,563.1V562H100.8v1.1H732.9z"/>
<path style="fill:#DDDDDC;" d="M100.8,371.9v2.1H631v-2.1H100.8z"/>
<path style="fill:#DDDDDC;" d="M495.5,179.6v-1.1H100.8v1.1H495.5z"/>
<path style="fill:#DDDDDC;" d="M203.8,693.4v2.1h44.4v-2.1H203.8z"/>
<path style="fill:#DDDDDC;" d="M248.2,693.4h-2.1v7.6h2.1V693.4z"/>
<path style="fill:#DDDDDC;" d="M107.3,693.4v1h50.9v-1H107.3z"/>
<path style="fill:#DDDDDC;" d="M107.3,693.4v7.6h1.1v-7.6H107.3z"/>
<path style="fill:#DDDDDC;" d="M67.2,75h-1.1v670.4h1.1V75z"/>
<path style="fill:#DDDDDC;" d="M43.3,72.8h-1.1v674.7h1.1V72.8z"/>
<path style="fill:#DDDDDC;" d="M67.2,747.5v-2.1h-25v2.1H67.2z"/>
<path style="fill:#DDDDDC;" d="M42.2,72.8V75h24.9v-2.1L42.2,72.8L42.2,72.8z"/>
<g>
	<text transform="matrix(1 0 0 1 118.1523 636.7286)" style="fill:#FFFFFF; font-family:'ArialMT'; font-size:9.7787px;">PFD</text>
</g>
<g>
	<text transform="matrix(1 0 0 1 125.4683 648.5363)" style="fill:#FFFFFF; font-family:'ArialMT'; font-size:9.7787px;">1</text>
</g>
<g>
	<text transform="matrix(1 0 0 1 163.9087 636.7286)" style="fill:#FFFFFF; font-family:'ArialMT'; font-size:9.7787px;">ESID</text>
</g>
<g>
	<text transform="matrix(1 0 0 1 170.2832 648.5363)" style="fill:#FFFFFF; font-family:'ArialMT'; font-size:9.7787px;">CP</text>
</g>
<g>
	<text transform="matrix(1 0 0 1 214.0605 636.7286)" style="fill:#FFFFFF; font-family:'ArialMT'; font-size:9.7787px;">EFIS</text>
</g>
<g>
	<text transform="matrix(1 0 0 1 214.0605 648.5363)" style="fill:#FFFFFF; font-family:'ArialMT'; font-size:9.7787px;">CP 1</text>
</g>
<g>
	<text transform="matrix(1 0 0 1 305.1621 636.7286)" style="fill:#FFFFFF; font-family:'ArialMT'; font-size:9.7787px;">AP AU</text>
</g>
<g>
	<text transform="matrix(1 0 0 1 307.7695 648.5363)" style="fill:#FFFFFF; font-family:'ArialMT'; font-size:9.7787px;">ROLL</text>
</g>
<g>
	<text transform="matrix(1 0 0 1 353.7744 646.5792)" style="fill:#FFFFFF; font-family:'ArialMT'; font-size:9.7787px;">SPM 1</text>
</g>
<g>
	<text transform="matrix(1 0 0 1 444.5156 646.5792)" style="fill:#FFFFFF; font-family:'ArialMT'; font-size:9.7787px;">WX RDR</text>
</g>
<g>
	<text transform="matrix(1 0 0 1 118.1523 444.2784)" style="fill:#FFFFFF; font-family:'ArialMT'; font-size:9.7787px;">PFD</text>
</g>
<g>
	<text transform="matrix(1 0 0 1 125.4683 456.0851)" style="fill:#FFFFFF; font-family:'ArialMT'; font-size:9.7787px;">2</text>
</g>
<g>
	<text transform="matrix(1 0 0 1 163.1709 451.8839)" style="fill:#FFFFFF; font-family:'ArialMT'; font-size:9.7787px;">ESID</text>
</g>
<g>
	<text transform="matrix(1 0 0 1 213.5605 444.2784)" style="fill:#FFFFFF; font-family:'ArialMT'; font-size:9.7787px;">EFIS</text>
</g>
<g>
	<text transform="matrix(1 0 0 1 213.5605 456.0851)" style="fill:#FFFFFF; font-family:'ArialMT'; font-size:9.7787px;">CP 2</text>
</g>
<g>
	<text transform="matrix(1 0 0 1 250.3096 444.2784)" style="fill:#FFFFFF; font-family:'ArialMT'; font-size:9.7787px;">VHF NAV</text>
</g>
<g>
	<text transform="matrix(1 0 0 1 271.1709 456.0851)" style="fill:#FFFFFF; font-family:'ArialMT'; font-size:9.7787px;">2</text>
</g>
<g>
	<text transform="matrix(1 0 0 1 359.8193 444.2784)" style="fill:#FFFFFF; font-family:'ArialMT'; font-size:9.7787px;">SPM</text>
</g>
<g>
	<text transform="matrix(1 0 0 1 367.7871 456.0851)" style="fill:#FFFFFF; font-family:'ArialMT'; font-size:9.7787px;">2</text>
</g>
<g>
	<text transform="matrix(1 0 0 1 172.8228 258.3424)" style="fill:#FFFFFF; font-family:'ArialMT'; font-size:8.6922px;">PA</text>
</g>
<g>
	<text transform="matrix(1 0 0 1 168.6216 267.3966)" style="fill:#FFFFFF; font-family:'ArialMT'; font-size:8.6922px;">AMP</text>
</g>
<g>
	<text transform="matrix(1 0 0 1 316.6777 249.2921)" style="fill:#FFFFFF; font-family:'ArialMT'; font-size:8.6922px;">AP</text>
</g>
<g>
	<text transform="matrix(1 0 0 1 300.5244 258.3468)" style="fill:#FFFFFF; font-family:'ArialMT'; font-size:8.6922px;">DISSENG</text>
</g>
<g>
	<text transform="matrix(1 0 0 1 309.5059 267.401)" style="fill:#FFFFFF; font-family:'ArialMT'; font-size:8.6922px;">ANN1</text>
</g>
<g>
	<text transform="matrix(1 0 0 1 649.1299 510.4786)" style="fill:#FFFFFF; font-family:'ArialMT'; font-size:9.7787px;">ATC</text>
</g>
<g>
	<text transform="matrix(1 0 0 1 656.2285 522.2863)" style="fill:#FFFFFF; font-family:'ArialMT'; font-size:9.7787px;">2</text>
</g>
<g>
	<text transform="matrix(1 0 0 1 113.8936 510.4786)" style="fill:#FFFFFF; font-family:'ArialMT'; font-size:9.7787px;">AHRS</text>
</g>
<g>
	<text transform="matrix(1 0 0 1 125.3379 522.2863)" style="fill:#FFFFFF; font-family:'ArialMT'; font-size:9.7787px;">1</text>
</g>
<g>
	<text transform="matrix(1 0 0 1 162.6436 510.4786)" style="fill:#FFFFFF; font-family:'ArialMT'; font-size:9.7787px;">AHRS</text>
</g>
<g>
	<text transform="matrix(1 0 0 1 164.8164 522.2863)" style="fill:#FFFFFF; font-family:'ArialMT'; font-size:9.7787px;">1 CP</text>
</g>
<g>
	<text transform="matrix(1 0 0 1 216.8555 510.4786)" style="fill:#FFFFFF; font-family:'ArialMT'; font-size:9.7787px;">OBS</text>
</g>
<g>
	<text transform="matrix(1 0 0 1 209.8291 522.2863)" style="fill:#FFFFFF; font-family:'ArialMT'; font-size:9.7787px;">AUDIO</text>
</g>
<g>
	<text transform="matrix(1 0 0 1 265.5767 510.4786)" style="fill:#FFFFFF; font-family:'ArialMT'; font-size:9.7787px;">PLT</text>
</g>
<g>
	<text transform="matrix(1 0 0 1 257.0293 522.2863)" style="fill:#FFFFFF; font-family:'ArialMT'; font-size:9.7787px;">AUDIO</text>
</g>
<g>
	<text transform="matrix(1 0 0 1 303.6064 509.4786)" style="fill:#FFFFFF; font-family:'ArialMT'; font-size:9.7787px;">ARCDU</text>
</g>
<g>
	<text transform="matrix(1 0 0 1 319.1807 521.2863)" style="fill:#FFFFFF; font-family:'ArialMT'; font-size:9.7787px;">1</text>
</g>
<g>
	<text transform="matrix(1 0 0 1 359.5801 519.2286)" style="fill:#FFFFFF; font-family:'ArialMT'; font-size:9.7787px;">CVR</text>
</g>
<g>
	<text transform="matrix(1 0 0 1 406.5576 510.4786)" style="fill:#FFFFFF; font-family:'ArialMT'; font-size:9.7787px;">DME</text>
</g>
<g>
	<text transform="matrix(1 0 0 1 415.1045 522.2863)" style="fill:#FFFFFF; font-family:'ArialMT'; font-size:9.7787px;">2</text>
</g>
<g>
	<text transform="matrix(1 0 0 1 600.8203 510.4786)" style="fill:#FFFFFF; font-family:'ArialMT'; font-size:9.7787px;">RAD</text>
</g>
<g>
	<text transform="matrix(1 0 0 1 596.6191 522.2863)" style="fill:#FFFFFF; font-family:'ArialMT'; font-size:9.7787px;">ALT 2</text>
</g>
<g>
	<text transform="matrix(1 0 0 1 504.1855 510.4786)" style="fill:#FFFFFF; font-family:'ArialMT'; font-size:9.7787px;">FMS</text>
</g>
<g>
	<text transform="matrix(1 0 0 1 512.0078 522.2863)" style="fill:#FFFFFF; font-family:'ArialMT'; font-size:9.7787px;">2</text>
</g>
<g>
	<text transform="matrix(1 0 0 1 455.957 510.4786)" style="fill:#FFFFFF; font-family:'ArialMT'; font-size:9.7787px;">ADF</text>
</g>
<g>
	<text transform="matrix(1 0 0 1 463.4902 522.2863)" style="fill:#FFFFFF; font-family:'ArialMT'; font-size:9.7787px;">2</text>
</g>
<g>
	<text transform="matrix(1 0 0 1 113.9434 192.0787)" style="fill:#FFFFFF; font-family:'ArialMT'; font-size:9.7787px;">AHRS</text>
</g>
<g>
	<text transform="matrix(1 0 0 1 125.3882 203.8859)" style="fill:#FFFFFF; font-family:'ArialMT'; font-size:9.7787px;">1</text>
</g>
<g>
	<defs>
		<rect id="SVGID_1_" x="159.9" y="179.4" width="35.6" height="29.4"/>
	</defs>
	<clipPath id="SVGID_2_">
		<use xlink:href="#SVGID_1_"  style="overflow:visible;"/>
	</clipPath>
	<g style="clip-path:url(#SVGID_2_);enable-background:new    ;">
		<text transform="matrix(1 0 0 1 162.8433 192.0787)" style="fill:#FFFFFF; font-family:'ArialMT'; font-size:9.7787px;">AHRS</text>
	</g>
</g>
<g>
	<text transform="matrix(1 0 0 1 165.0166 203.8859)" style="fill:#FFFFFF; font-family:'ArialMT'; font-size:9.7787px;">2 CP</text>
</g>
<g>
	<defs>
		<rect id="SVGID_3_" x="200.2" y="179.4" width="55.3" height="29.4"/>
	</defs>
	<clipPath id="SVGID_4_">
		<use xlink:href="#SVGID_3_"  style="overflow:visible;"/>
	</clipPath>
	<g style="clip-path:url(#SVGID_4_);enable-background:new    ;">
		<text transform="matrix(1 0 0 1 218.1675 192.0787)" style="fill:#FFFFFF; font-family:'ArialMT'; font-size:9.7787px;">PLT</text>
	</g>
</g>
<g>
	<text transform="matrix(1 0 0 1 203.1738 203.8859)" style="fill:#FFFFFF; font-family:'ArialMT'; font-size:9.7787px;">SPEAKER</text>
</g>
<g>
	<text transform="matrix(1 0 0 1 304.1797 190.9786)" style="fill:#FFFFFF; font-family:'ArialMT'; font-size:9.7787px;">CLOCK</text>
</g>
<g>
	<text transform="matrix(1 0 0 1 318.9561 202.7858)" style="fill:#FFFFFF; font-family:'ArialMT'; font-size:9.7787px;">1</text>
</g>
<g>
	<text transform="matrix(1 0 0 1 391.8262 192.0787)" style="fill:#FFFFFF; font-family:'ArialMT'; font-size:9.7787px;">FLT ATTD</text>
</g>
<g>
	<text transform="matrix(1 0 0 1 406.3135 203.8859)" style="fill:#FFFFFF; font-family:'ArialMT'; font-size:9.7787px;">ANN</text>
</g>
<g>
	<text transform="matrix(1 0 0 1 114.7935 127.129)" style="fill:#FFFFFF; font-family:'ArialMT'; font-size:9.7787px;">AHRS</text>
</g>
<g>
	<text transform="matrix(1 0 0 1 126.2383 138.9357)" style="fill:#FFFFFF; font-family:'ArialMT'; font-size:9.7787px;">2</text>
</g>
<g>
	<text transform="matrix(1 0 0 1 163.6436 127.129)" style="fill:#FFFFFF; font-family:'ArialMT'; font-size:9.7787px;">AHRS</text>
</g>
<g>
	<text transform="matrix(1 0 0 1 165.8164 138.9357)" style="fill:#FFFFFF; font-family:'ArialMT'; font-size:9.7787px;">2 CP</text>
</g>
<g>
	<text transform="matrix(1 0 0 1 209.6533 127.129)" style="fill:#FFFFFF; font-family:'ArialMT'; font-size:9.7787px;">COPLT</text>
</g>
<g>
	<text transform="matrix(1 0 0 1 208.9292 138.9357)" style="fill:#FFFFFF; font-family:'ArialMT'; font-size:9.7787px;">AUDIO</text>
</g>
<g>
	<text transform="matrix(1 0 0 1 255.4067 127.129)" style="fill:#FFFFFF; font-family:'ArialMT'; font-size:9.7787px;">ARCDU</text>
</g>
<g>
	<text transform="matrix(1 0 0 1 270.9805 138.9357)" style="fill:#FFFFFF; font-family:'ArialMT'; font-size:9.7787px;">2</text>
</g>
<g>
	<text transform="matrix(1 0 0 1 117.1455 320.4288)" style="fill:#FFFFFF; font-family:'ArialMT'; font-size:9.7787px;">ADU</text>
</g>
<g>
	<text transform="matrix(1 0 0 1 125.3301 332.236)" style="fill:#FFFFFF; font-family:'ArialMT'; font-size:9.7787px;">1</text>
</g>
<g>
	<text transform="matrix(1 0 0 1 165.2852 320.4288)" style="fill:#FFFFFF; font-family:'ArialMT'; font-size:9.7787px;">MFD</text>
</g>
<g>
	<text transform="matrix(1 0 0 1 173.6875 332.236)" style="fill:#FFFFFF; font-family:'ArialMT'; font-size:9.7787px;">1</text>
</g>
<g>
	<text transform="matrix(1 0 0 1 216.7402 320.4288)" style="fill:#FFFFFF; font-family:'ArialMT'; font-size:9.7787px;">ICP</text>
</g>
<g>
	<text transform="matrix(1 0 0 1 222.9697 332.236)" style="fill:#FFFFFF; font-family:'ArialMT'; font-size:9.7787px;">1</text>
</g>
<g>
	<text transform="matrix(1 0 0 1 244.4336 308.5787)" style="fill:#FFFFFF; font-family:'ArialMT'; font-size:9.7787px;">GND CREW</text>
</g>
<g>
	<text transform="matrix(1 0 0 1 247.1855 320.3859)" style="fill:#FFFFFF; font-family:'ArialMT'; font-size:9.7787px;">INPH ADV</text>
</g>
<g>
	<text transform="matrix(1 0 0 1 269.7856 332.1925)" style="fill:#FFFFFF; font-family:'ArialMT'; font-size:9.7787px;">LT</text>
</g>
<g>
	<text transform="matrix(1 0 0 1 401.1621 320.4288)" style="fill:#FFFFFF; font-family:'ArialMT'; font-size:9.7787px;">FG CP</text>
</g>
<g>
	<text transform="matrix(1 0 0 1 414.3457 332.236)" style="fill:#FFFFFF; font-family:'ArialMT'; font-size:9.7787px;">1</text>
</g>
<g>
	<text transform="matrix(1 0 0 1 345.6211 320.4288)" style="fill:#FFFFFF; font-family:'ArialMT'; font-size:9.7787px;">IOM/IOP</text>
</g>
<g>
	<text transform="matrix(1 0 0 1 352.1406 332.236)" style="fill:#FFFFFF; font-family:'ArialMT'; font-size:9.7787px;">FGM 1</text>
</g>
<g>
	<text transform="matrix(1 0 0 1 114.3936 574.9288)" style="fill:#FFFFFF; font-family:'ArialMT'; font-size:9.7787px;">AHRS</text>
</g>
<g>
	<text transform="matrix(1 0 0 1 125.8379 586.7355)" style="fill:#FFFFFF; font-family:'ArialMT'; font-size:9.7787px;">2</text>
</g>
<g>
	<text transform="matrix(1 0 0 1 162.6436 574.9288)" style="fill:#FFFFFF; font-family:'ArialMT'; font-size:9.7787px;">AHRS</text>
</g>
<g>
	<text transform="matrix(1 0 0 1 164.8164 586.7355)" style="fill:#FFFFFF; font-family:'ArialMT'; font-size:9.7787px;">2 CP</text>
</g>
<g>
	<text transform="matrix(1 0 0 1 209.8037 574.9288)" style="fill:#FFFFFF; font-family:'ArialMT'; font-size:9.7787px;">COPLT</text>
</g>
<g>
	<text transform="matrix(1 0 0 1 208.5439 586.7355)" style="fill:#FFFFFF; font-family:'ArialMT'; font-size:9.7787px;">AUDIO</text>
</g>
<g>
	<text transform="matrix(1 0 0 1 304.5244 585.4288)" style="fill:#FFFFFF; font-family:'ArialMT'; font-size:9.7787px;">YD AU</text>
</g>
<g>
	<text transform="matrix(1 0 0 1 346.2236 585.4288)" style="fill:#FFFFFF; font-family:'ArialMT'; font-size:9.7787px;">FDR/SCU</text>
</g>
<g>
	<text transform="matrix(1 0 0 1 254.9067 574.9288)" style="fill:#FFFFFF; font-family:'ArialMT'; font-size:9.7787px;">ARCDU</text>
</g>
<g>
	<text transform="matrix(1 0 0 1 270.4805 586.7355)" style="fill:#FFFFFF; font-family:'ArialMT'; font-size:9.7787px;">2</text>
</g>
<g>
	<text transform="matrix(1 0 0 1 406.0576 574.9288)" style="fill:#FFFFFF; font-family:'ArialMT'; font-size:9.7787px;">DME</text>
</g>
<g>
	<text transform="matrix(1 0 0 1 414.6045 586.7355)" style="fill:#FFFFFF; font-family:'ArialMT'; font-size:9.7787px;">1</text>
</g>
<g>
	<text transform="matrix(1 0 0 1 455.457 574.9288)" style="fill:#FFFFFF; font-family:'ArialMT'; font-size:9.7787px;">ADF</text>
</g>
<g>
	<text transform="matrix(1 0 0 1 462.9902 586.7355)" style="fill:#FFFFFF; font-family:'ArialMT'; font-size:9.7787px;">1</text>
</g>
<g>
	<text transform="matrix(1 0 0 1 503.6855 574.9288)" style="fill:#FFFFFF; font-family:'ArialMT'; font-size:9.7787px;">FMS</text>
</g>
<g>
	<text transform="matrix(1 0 0 1 511.5078 586.7355)" style="fill:#FFFFFF; font-family:'ArialMT'; font-size:9.7787px;">1</text>
</g>
<g>
	<text transform="matrix(1 0 0 1 600.7207 574.9288)" style="fill:#FFFFFF; font-family:'ArialMT'; font-size:9.7787px;">RAD</text>
</g>
<g>
	<text transform="matrix(1 0 0 1 596.5195 586.7355)" style="fill:#FFFFFF; font-family:'ArialMT'; font-size:9.7787px;">ALT 1</text>
</g>
<g>
	<text transform="matrix(1 0 0 1 649.1299 574.9288)" style="fill:#FFFFFF; font-family:'ArialMT'; font-size:9.7787px;">ATC</text>
</g>
<g>
	<text transform="matrix(1 0 0 1 656.2285 586.7355)" style="fill:#FFFFFF; font-family:'ArialMT'; font-size:9.7787px;">1</text>
</g>
<g>
	<text transform="matrix(1 0 0 1 115.0088 710.129)" style="fill:#FFFFFF; font-family:'ArialMT'; font-size:9.7787px;">SYST</text>
</g>
<g>
	<text transform="matrix(1 0 0 1 165.8125 710.129)" style="fill:#FFFFFF; font-family:'ArialMT'; font-size:9.7787px;">ANN</text>
</g>
<g>
	<text transform="matrix(1 0 0 1 202.5806 710.129)" style="fill:#FFFFFF; font-family:'ArialMT'; font-size:9.7787px;">LDG/FLP</text>
</g>
<g>
	<text transform="matrix(1 0 0 1 306.7119 699.629)" style="fill:#FFFFFF; font-family:'ArialMT'; font-size:9.7787px;">AP AU</text>
</g>
<g>
	<text transform="matrix(1 0 0 1 306.4219 711.4357)" style="fill:#FFFFFF; font-family:'ArialMT'; font-size:9.7787px;">PITCH</text>
</g>
<g>
	<text transform="matrix(1 0 0 1 356.3809 710.129)" style="fill:#FFFFFF; font-family:'ArialMT'; font-size:9.7787px;">TCAS</text>
</g>
<g>
	<text transform="matrix(1 0 0 1 449.0391 710.129)" style="fill:#FFFFFF; font-family:'ArialMT'; font-size:9.7787px;">WX CP</text>
</g>
<g>
	<text transform="matrix(1 0 0 1 547.1133 699.629)" style="fill:#FFFFFF; font-family:'ArialMT'; font-size:9.7787px;">STICK</text>
</g>
<g>
	<text transform="matrix(1 0 0 1 541.9707 711.4357)" style="fill:#FFFFFF; font-family:'ArialMT'; font-size:9.7787px;">PUSHER</text>
</g>
<g>
	<text transform="matrix(1 0 0 1 778.2002 689.129)" style="fill:#FFFFFF; font-family:'ArialMT'; font-size:9.7787px;">FLT ATTD</text>
</g>
<g>
	<text transform="matrix(1 0 0 1 782.1846 700.9357)" style="fill:#FFFFFF; font-family:'ArialMT'; font-size:9.7787px;">HANSET</text>
</g>
<g>
	<text transform="matrix(1 0 0 1 792.0352 712.7423)" style="fill:#FFFFFF; font-family:'ArialMT'; font-size:9.7787px;">PWR</text>
</g>
<g>
	<text transform="matrix(1 0 0 1 117.1455 384.9786)" style="fill:#FFFFFF; font-family:'ArialMT'; font-size:9.7787px;">ADU</text>
</g>
<g>
	<text transform="matrix(1 0 0 1 125.3301 396.7863)" style="fill:#FFFFFF; font-family:'ArialMT'; font-size:9.7787px;">2</text>
</g>
<g>
	<text transform="matrix(1 0 0 1 248.5371 384.9786)" style="fill:#FFFFFF; font-family:'ArialMT'; font-size:9.7787px;">VHF COM</text>
</g>
<g>
	<text transform="matrix(1 0 0 1 270.6299 396.7863)" style="fill:#FFFFFF; font-family:'ArialMT'; font-size:9.7787px;">2</text>
</g>
<g>
	<text transform="matrix(1 0 0 1 346.1211 384.9786)" style="fill:#FFFFFF; font-family:'ArialMT'; font-size:9.7787px;">IOM/IOP</text>
</g>
<g>
	<text transform="matrix(1 0 0 1 352.6406 396.7863)" style="fill:#FFFFFF; font-family:'ArialMT'; font-size:9.7787px;">FGM 2</text>
</g>
<g>
	<text transform="matrix(1 0 0 1 401.1621 384.9786)" style="fill:#FFFFFF; font-family:'ArialMT'; font-size:9.7787px;">FG CP</text>
</g>
<g>
	<text transform="matrix(1 0 0 1 414.3457 396.7863)" style="fill:#FFFFFF; font-family:'ArialMT'; font-size:9.7787px;">1</text>
</g>
<g>
	<text transform="matrix(1 0 0 1 546.0635 384.9786)" style="fill:#FFFFFF; font-family:'ArialMT'; font-size:9.7787px;">STICK</text>
</g>
<g>
	<text transform="matrix(1 0 0 1 540.9199 396.7863)" style="fill:#FFFFFF; font-family:'ArialMT'; font-size:9.7787px;">PUSHER</text>
</g>
<g>
	<text transform="matrix(1 0 0 1 165.7852 384.9786)" style="fill:#FFFFFF; font-family:'ArialMT'; font-size:9.7787px;">MFD</text>
</g>
<g>
	<text transform="matrix(1 0 0 1 174.1875 396.7863)" style="fill:#FFFFFF; font-family:'ArialMT'; font-size:9.7787px;">2</text>
</g>
<g>
	<text transform="matrix(1 0 0 1 216.7402 384.9786)" style="fill:#FFFFFF; font-family:'ArialMT'; font-size:9.7787px;">ICP</text>
</g>
<g>
	<text transform="matrix(1 0 0 1 222.9697 396.7863)" style="fill:#FFFFFF; font-family:'ArialMT'; font-size:9.7787px;">2</text>
</g>
<g>
	<text transform="matrix(1 0 0 1 304.917 384.9786)" style="fill:#FFFFFF; font-family:'ArialMT'; font-size:9.7787px;">CLOCK</text>
</g>
<g>
	<text transform="matrix(1 0 0 1 319.6934 396.7863)" style="fill:#FFFFFF; font-family:'ArialMT'; font-size:9.7787px;">2</text>
</g>
<g>
	<text transform="matrix(1 0 0 1 162.6997 698.2286)" style="fill:#FFFFFF; font-family:'ArialMT'; font-size:9.7787px;">EGPWS</text>
</g>
<g>
	<text transform="matrix(1 0 0 1 67.9326 118.0382)" style="fill:#FFFFFF; font-family:'ArialMT'; font-size:13.0383px;">RIGHT</text>
	<text transform="matrix(1 0 0 1 75.0502 130.2169)" style="fill:#FFFFFF; font-family:'ArialMT'; font-size:13.0383px;">ESS</text>
</g>
<g>
	<text transform="matrix(1 0 0 1 208.1445 60.129)" style="fill:#FFFFFF; font-family:'ArialMT'; font-size:9.7787px;">COPLT</text>
</g>
<g>
	<text transform="matrix(1 0 0 1 210.4 70.7703)" style="fill:#FFFFFF; font-family:'ArialMT'; font-size:9.7787px;">SPKR</text>
</g>
<g>
	<text transform="matrix(1 0 0 1 163.5 70.129)" style="fill:#FFFFFF; font-family:'ArialMT'; font-size:9.7787px;">ESID</text>
</g>
<g>
	<text transform="matrix(1 0 0 1 316.4278 53.5289)" style="fill:#FFFFFF; font-family:'ArialMT'; font-size:9.7787px;">AP</text>
</g>
<g>
	<text transform="matrix(1 0 0 1 302.1135 63.3356)" style="fill:#FFFFFF; font-family:'ArialMT'; font-size:9.7787px;">DISENG</text>
</g>
<g>
	<text transform="matrix(1 0 0 1 306.9648 72.425)" style="fill:#FFFFFF; font-family:'ArialMT'; font-size:9.7787px;">ANN 2</text>
</g>
<g>
	<text transform="matrix(1 0 0 1 548.5938 518.9288)" style="fill:#FFFFFF; font-family:'ArialMT'; font-size:9.7787px;">VDL4</text>
</g>
<g>
	<text transform="matrix(1 0 0 1 648.707 710.129)" style="fill:#FFFFFF; font-family:'ArialMT'; font-size:9.7787px;">HCP</text>
</g>
<g>
	<text transform="matrix(1 0 0 1 694.7812 710.129)" style="fill:#FFFFFF; font-family:'ArialMT'; font-size:9.7787px;">HGSC</text>
</g>
<g>
	<text transform="matrix(1 0 0 1 600.1387 646.5792)" style="fill:#FFFFFF; font-family:'ArialMT'; font-size:9.7787px;">IRS1</text>
</g>
<g>
	<text transform="matrix(1 0 0 1 454.3477 444.2784)" style="fill:#FFFFFF; font-family:'ArialMT'; font-size:9.7787px;">VHF</text>
</g>
<g>
	<text transform="matrix(1 0 0 1 450.7988 456.0851)" style="fill:#FFFFFF; font-family:'ArialMT'; font-size:9.7787px;">NAV3</text>
</g>
<g>
	<text transform="matrix(1 0 0 1 503.377 443.7784)" style="fill:#FFFFFF; font-family:'ArialMT'; font-size:9.7787px;">VHF</text>
</g>
<g>
	<text transform="matrix(1 0 0 1 490.4834 454.5851)" style="fill:#FFFFFF; font-family:'ArialMT'; font-size:9.7787px;">NAV3 CP</text>
</g>
<g>
	<text transform="matrix(1 0 0 1 71.7588 665.4884)" style="fill:#FFFFFF; font-family:'ArialMT'; font-size:13.0383px;">LEFT</text>
</g>
<g>
	<text transform="matrix(1 0 0 1 70.2373 678.7579)" style="fill:#FFFFFF; font-family:'ArialMT'; font-size:13.0383px;">MAIN</text>
</g>
<g>
	<text transform="matrix(1 0 0 1 68.417 468.3878)" style="fill:#FFFFFF; font-family:'ArialMT'; font-size:13.0383px;">RIGHT</text>
</g>
<g>
	<text transform="matrix(1 0 0 1 71.749 482.6583)" style="fill:#FFFFFF; font-family:'ArialMT'; font-size:13.0383px;">MAIN</text>
</g>
<g>
	<text transform="matrix(1 0 0 1 70.6528 286.7384)" style="fill:#FFFFFF; font-family:'ArialMT'; font-size:13.0383px;">LEFT</text>
</g>
<g>
	<text transform="matrix(1 0 0 1 73.9849 299.0079)" style="fill:#FFFFFF; font-family:'ArialMT'; font-size:13.0383px;">ESS</text>
</g>
<g>
	<text transform="matrix(1 0 0 1 44.3496 101.8844)" style="fill:#FFFFFF; font-family:'ArialMT'; font-size:17.3844px;">11</text>
</g>
<g>
	<text transform="matrix(1 0 0 1 44.3496 164.6344)" style="fill:#FFFFFF; font-family:'ArialMT'; font-size:17.3844px;">10</text>
</g>
<g>
	<text transform="matrix(1 0 0 1 49.75 228.5846)" style="fill:#FFFFFF; font-family:'ArialMT'; font-size:17.3844px;">9</text>
</g>
<g>
	<text transform="matrix(1 0 0 1 49.75 292.4845)" style="fill:#FFFFFF; font-family:'ArialMT'; font-size:17.3844px;">8</text>
</g>
<g>
	<text transform="matrix(1 0 0 1 49.75 356.3839)" style="fill:#FFFFFF; font-family:'ArialMT'; font-size:17.3844px;">7</text>
</g>
<g>
	<text transform="matrix(1 0 0 1 49.75 420.2843)" style="fill:#FFFFFF; font-family:'ArialMT'; font-size:17.3844px;">6</text>
</g>
<g>
	<text transform="matrix(1 0 0 1 48.6494 480.9347)" style="fill:#FFFFFF; font-family:'ArialMT'; font-size:17.3844px;">5</text>
</g>
<g>
	<text transform="matrix(1 0 0 1 49.75 548.0851)" style="fill:#FFFFFF; font-family:'ArialMT'; font-size:17.3844px;">4</text>
</g>
<g>
	<text transform="matrix(1 0 0 1 49.75 611.9845)" style="fill:#FFFFFF; font-family:'ArialMT'; font-size:17.3844px;">3</text>
</g>
<g>
	<text transform="matrix(1 0 0 1 49.75 671.4845)" style="fill:#FFFFFF; font-family:'ArialMT'; font-size:17.3844px;">2</text>
</g>
<g>
	<text transform="matrix(1 0 0 1 48.6494 736.5343)" style="fill:#FFFFFF; font-family:'ArialMT'; font-size:17.3844px;">1</text>
</g>
<g>
	<text transform="matrix(1 0 0 1 172.95 785.95)" style="fill:#FFFFFF; font-family:'ArialMT'; font-size:16px;">B</text>
</g>
<g>
	<text transform="matrix(1 0 0 1 221.45 785.95)" style="fill:#FFFFFF; font-family:'ArialMT'; font-size:16px;">C</text>
</g>
<g>
	<text transform="matrix(1 0 0 1 268.45 785.95)" style="fill:#FFFFFF; font-family:'ArialMT'; font-size:16px;">D</text>
</g>
<g>
	<text transform="matrix(1 0 0 1 317.45 785.95)" style="fill:#FFFFFF; font-family:'ArialMT'; font-size:16px;">E</text>
</g>
<g>
	<text transform="matrix(1 0 0 1 511.95 785.95)" style="fill:#FFFFFF; font-family:'ArialMT'; font-size:16px;">J</text>
</g>
<g>
	<text transform="matrix(1 0 0 1 559.95 785.95)" style="fill:#FFFFFF; font-family:'ArialMT'; font-size:16px;">K</text>
</g>
<g>
	<text transform="matrix(1 0 0 1 607.95 785.95)" style="fill:#FFFFFF; font-family:'ArialMT'; font-size:16px;">L</text>
</g>
<g>
	<text transform="matrix(1 0 0 1 653.95 785.95)" style="fill:#FFFFFF; font-family:'ArialMT'; font-size:16px;">M</text>
</g>
<g>
	<text transform="matrix(1 0 0 1 704.95 785.95)" style="fill:#FFFFFF; font-family:'ArialMT'; font-size:16px;">N</text>
</g>
<g>
	<defs>
		<rect id="SVGID_5_" x="755" y="768" width="13" height="23.3"/>
	</defs>
	<clipPath id="SVGID_6_">
		<use xlink:href="#SVGID_5_"  style="overflow:visible;"/>
	</clipPath>
	<g style="clip-path:url(#SVGID_6_);enable-background:new    ;">
		<text transform="matrix(1 0 0 1 756.95 785.95)" style="fill:#FFFFFF; font-family:'ArialMT'; font-size:16px;">P</text>
	</g>
</g>
<g>
	<defs>
		<rect id="SVGID_7_" x="797.5" y="768" width="15.5" height="23.3"/>
	</defs>
	<clipPath id="SVGID_8_">
		<use xlink:href="#SVGID_7_"  style="overflow:visible;"/>
	</clipPath>
	<g style="clip-path:url(#SVGID_8_);enable-background:new    ;">
		<text transform="matrix(1 0 0 1 799.45 785.95)" style="fill:#FFFFFF; font-family:'ArialMT'; font-size:16px;">Q</text>
	</g>
</g>
<g>
	<text transform="matrix(1 0 0 1 124 785.95)" style="fill:#FFFFFF; font-family:'ArialMT'; font-size:16px;">A</text>
</g>
<g>
	<text transform="matrix(1 0 0 1 365.95 785.95)" style="fill:#FFFFFF; font-family:'ArialMT'; font-size:16px;">F</text>
</g>
<g>
	<text transform="matrix(1 0 0 1 412.45 785.95)" style="fill:#FFFFFF; font-family:'ArialMT'; font-size:16px;">G</text>
</g>
<g>
	<text transform="matrix(1 0 0 1 461.45 785.95)" style="fill:#FFFFFF; font-family:'ArialMT'; font-size:16px;">H</text>
</g>
<g>
	<text transform="matrix(1 0 0 1 262.2988 636.7286)" style="fill:#FFFFFF; font-family:'ArialMT'; font-size:9.7787px;">VHF</text>
</g>
<g>
	<text transform="matrix(1 0 0 1 252.2305 648.5363)" style="fill:#FFFFFF; font-family:'ArialMT'; font-size:9.7787px;">CONT 3</text>
</g>
<g>
	<text transform="matrix(1 0 0 1 262.2988 699.7286)" style="fill:#FFFFFF; font-family:'ArialMT'; font-size:9.7787px;">VHF</text>
</g>
<g>
	<text transform="matrix(1 0 0 1 255.2729 711.5363)" style="fill:#FFFFFF; font-family:'ArialMT'; font-size:9.7787px;">COM 3</text>
</g>
<polygon style="fill:#DDDDDC;" points="453.3,434.4 453.3,433 444.5,433 444.5,433.1 444.5,434.4 444.5,458 444.5,459.2 
	444.5,459.4 453.3,459.4 453.3,458 445.9,458 445.9,434.4 "/>
<polygon style="fill:#DDDDDC;" points="495.3,434.4 495.3,433 486.5,433 486.5,433.1 486.5,434.4 486.5,458 486.5,459.2 
	486.5,459.4 495.3,459.4 495.3,458 487.9,458 487.9,434.4 "/>
<polygon style="fill:#DDDDDC;" points="532.5,434.4 532.5,433 541.3,433 541.3,433.1 541.3,434.4 541.3,458 541.3,459.2 
	541.3,459.4 532.5,459.4 532.5,458 539.9,458 539.9,434.4 "/>
<polygon style="fill:#DDDDDC;" points="475.5,434.4 475.5,433 484.3,433 484.3,433.1 484.3,434.4 484.3,458 484.3,459.2 
	484.3,459.4 475.5,459.4 475.5,458 482.9,458 482.9,434.4 "/>
<g>
	<polygon style="fill:#DDDDDC;" points="84.2,136.1 82.8,136.1 82.8,180.4 91.6,180.4 91.6,178.9 84.2,178.9 	"/>
	<polygon style="fill:#DDDDDC;" points="82.8,72.9 82.8,104.3 84.2,104.3 84.2,74.4 91.6,74.4 91.6,72.9 	"/>
</g>
<g>
	<polygon style="fill:#DDDDDC;" points="84.2,304.2 82.8,304.2 82.8,374.4 91.6,374.4 91.6,372.9 84.2,372.9 	"/>
	<polygon style="fill:#DDDDDC;" points="82.8,200.9 82.8,272.5 84.2,272.5 84.2,202.4 91.6,202.4 91.6,200.9 	"/>
</g>
<g>
	<polygon style="fill:#DDDDDC;" points="84.2,454.7 84.2,396.4 91.6,396.4 91.6,394.9 82.8,394.9 82.8,454.7 	"/>
	<polygon style="fill:#DDDDDC;" points="84.2,486.5 82.8,486.5 82.8,563.4 91.6,563.4 91.6,561.9 84.2,561.9 	"/>
</g>
<g>
	<polygon style="fill:#DDDDDC;" points="84.2,681.8 82.8,681.8 82.8,749.4 91.6,749.4 91.6,747.9 84.2,747.9 	"/>
	<polygon style="fill:#DDDDDC;" points="84.2,652 84.2,586.4 91.6,586.4 91.6,584.9 82.8,584.9 82.8,652 	"/>
</g>
</svg>
