<?xml version="1.0" encoding="utf-8"?>
<!-- Generator: Adobe Illustrator 24.1.2, SVG Export Plug-In . SVG Version: 6.00 Build 0)  -->
<svg version="1.1" id="Ebene_1" xmlns="http://www.w3.org/2000/svg" xmlns:xlink="http://www.w3.org/1999/xlink" x="0px" y="0px"
	 viewBox="0 0 483 35" style="enable-background:new 0 0 483 35;" xml:space="preserve">
<style type="text/css">
	.st0{fill:#333333;}
	.st1{fill:none;stroke:#000000;stroke-linecap:round;stroke-linejoin:round;}
	.st2{clip-path:url(#SVGID_2_);fill:#FF9933;}
	.st3{clip-path:url(#SVGID_4_);fill:#FF9933;}
</style>
<g transform="matrix( 1, 0, 0, 1, 0,0) ">
	<g>
		<g id="Layer0_0_MEMBER_5_MEMBER_0_FILL">
			<path class="st0" d="M63.8,31.5V4.4H4.3v27.1H63.8z"/>
		</g>
	</g>
	<g>
		<path id="Layer0_0_MEMBER_5_MEMBER_0_1_STROKES" class="st1" d="M63.8,31.5H4.3V4.4h59.5V31.5z"/>
	</g>
</g>
<g transform="matrix( 1, 0, 0, 1, 0,0) ">
	<g>
		<g id="Layer0_0_MEMBER_7_MEMBER_0_FILL">
			<path class="st0" d="M127.8,31.7V4.6H68.3v27.1H127.8z"/>
		</g>
	</g>
	<g>
		<path id="Layer0_0_MEMBER_7_MEMBER_0_1_STROKES" class="st1" d="M127.8,31.7H68.3V4.6h59.5V31.7z"/>
	</g>
</g>
<g>
	<defs>
		<rect id="SVGID_1_" x="12.9" y="11.3" width="42.7" height="13.1"/>
	</defs>
	<clipPath id="SVGID_2_">
		<use xlink:href="#SVGID_1_"  style="overflow:visible;"/>
	</clipPath>
	<path class="st2" d="M14.9,21.4v-6.2h1.3v5.2h3.2v1.1H14.9z"/>
	<path class="st2" d="M27.8,21.4h-1.4L25.9,20h-2.5l-0.5,1.4h-1.3l2.5-6.3h1.3L27.8,21.4z M25.5,18.9l-0.9-2.3l-0.9,2.3H25.5z"/>
	<path class="st2" d="M32.5,19.1l1.2,0.4c-0.2,0.7-0.5,1.2-0.9,1.5c-0.4,0.3-1,0.5-1.7,0.5c-0.8,0-1.5-0.3-2.1-0.9
		c-0.5-0.6-0.8-1.4-0.8-2.3c0-1,0.3-1.9,0.8-2.4c0.5-0.6,1.3-0.9,2.1-0.9c0.8,0,1.4,0.2,1.9,0.7c0.3,0.3,0.5,0.7,0.6,1.2l-1.3,0.3
		c-0.1-0.3-0.2-0.6-0.5-0.8c-0.2-0.2-0.5-0.3-0.9-0.3c-0.5,0-0.8,0.2-1.1,0.5s-0.4,0.9-0.4,1.6c0,0.8,0.1,1.4,0.4,1.7
		c0.3,0.3,0.7,0.5,1.1,0.5c0.3,0,0.6-0.1,0.9-0.3C32.3,19.9,32.4,19.5,32.5,19.1z"/>
	<path class="st2" d="M37.3,15.1h2.5c0.5,0,0.9,0,1.1,0.1c0.2,0,0.5,0.1,0.7,0.3s0.4,0.3,0.5,0.5c0.1,0.2,0.2,0.5,0.2,0.7
		c0,0.3-0.1,0.6-0.2,0.8c-0.2,0.2-0.4,0.4-0.6,0.6c0.4,0.1,0.7,0.3,0.9,0.6c0.2,0.3,0.3,0.6,0.3,0.9c0,0.3-0.1,0.6-0.2,0.8
		c-0.1,0.3-0.3,0.5-0.5,0.6s-0.5,0.3-0.9,0.3c-0.2,0-0.7,0-1.5,0h-2.1V15.1z M38.6,16.1v1.5h0.8c0.5,0,0.8,0,0.9,0
		c0.2,0,0.4-0.1,0.5-0.2c0.1-0.1,0.2-0.3,0.2-0.5c0-0.2-0.1-0.4-0.2-0.5c-0.1-0.1-0.3-0.2-0.5-0.2c-0.1,0-0.5,0-1.1,0H38.6z
		 M38.6,18.6v1.7h1.2c0.5,0,0.7,0,0.9,0c0.2,0,0.3-0.1,0.5-0.3c0.1-0.1,0.2-0.3,0.2-0.5c0-0.2,0-0.3-0.1-0.5s-0.2-0.2-0.4-0.3
		c-0.2-0.1-0.5-0.1-1.1-0.1H38.6z"/>
	<path class="st2" d="M43.7,15.1h1.3v3.4c0,0.5,0,0.9,0,1.1c0.1,0.3,0.2,0.5,0.4,0.6c0.2,0.2,0.5,0.2,0.8,0.2c0.4,0,0.6-0.1,0.8-0.2
		c0.2-0.1,0.3-0.3,0.3-0.5s0.1-0.6,0.1-1.1v-3.5h1.3v3.3c0,0.8,0,1.3-0.1,1.6c-0.1,0.3-0.2,0.6-0.4,0.8c-0.2,0.2-0.4,0.4-0.7,0.5
		c-0.3,0.1-0.7,0.2-1.2,0.2c-0.6,0-1.1-0.1-1.4-0.2c-0.3-0.1-0.6-0.3-0.7-0.5c-0.2-0.2-0.3-0.5-0.4-0.7c-0.1-0.4-0.1-0.9-0.1-1.6
		V15.1z"/>
	<path class="st2" d="M49.7,19.3l1.2-0.1c0.1,0.4,0.2,0.7,0.5,0.9c0.2,0.2,0.5,0.3,0.9,0.3c0.4,0,0.7-0.1,0.9-0.3
		c0.2-0.2,0.3-0.4,0.3-0.6c0-0.1,0-0.3-0.1-0.4c-0.1-0.1-0.2-0.2-0.5-0.3c-0.1-0.1-0.5-0.1-1-0.3c-0.7-0.2-1.2-0.4-1.4-0.6
		c-0.4-0.3-0.6-0.8-0.6-1.3c0-0.3,0.1-0.6,0.3-0.9s0.4-0.5,0.8-0.6c0.3-0.1,0.8-0.2,1.2-0.2c0.8,0,1.4,0.2,1.8,0.5s0.6,0.8,0.6,1.4
		l-1.3,0.1c-0.1-0.3-0.2-0.6-0.4-0.7S52.6,16,52.2,16c-0.4,0-0.7,0.1-0.9,0.2c-0.1,0.1-0.2,0.2-0.2,0.4c0,0.1,0.1,0.3,0.2,0.4
		c0.2,0.1,0.5,0.3,1.2,0.4c0.6,0.1,1.1,0.3,1.4,0.5c0.3,0.2,0.5,0.4,0.7,0.6c0.2,0.3,0.3,0.6,0.3,1c0,0.4-0.1,0.7-0.3,1
		c-0.2,0.3-0.5,0.5-0.9,0.7c-0.4,0.2-0.8,0.2-1.4,0.2c-0.8,0-1.4-0.2-1.8-0.6S49.8,20,49.7,19.3z"/>
</g>
<g>
	<defs>
		<rect id="SVGID_3_" x="76.1" y="11.3" width="44.1" height="13.1"/>
	</defs>
	<clipPath id="SVGID_4_">
		<use xlink:href="#SVGID_3_"  style="overflow:visible;"/>
	</clipPath>
	<path class="st3" d="M78.1,21.4v-6.3h2.7c0.7,0,1.2,0.1,1.5,0.2s0.5,0.3,0.7,0.6s0.3,0.6,0.3,1c0,0.5-0.1,0.9-0.4,1.2
		c-0.3,0.3-0.7,0.5-1.2,0.6c0.3,0.2,0.5,0.3,0.7,0.5c0.2,0.2,0.4,0.5,0.7,1l0.8,1.2h-1.5L81.3,20c-0.3-0.5-0.5-0.8-0.7-0.9
		c-0.1-0.1-0.2-0.2-0.4-0.3c-0.1,0-0.3-0.1-0.6-0.1h-0.3v2.6H78.1z M79.3,17.7h0.9c0.6,0,1,0,1.1-0.1c0.2-0.1,0.3-0.1,0.4-0.3
		s0.1-0.3,0.1-0.5c0-0.2-0.1-0.4-0.2-0.5c-0.1-0.1-0.3-0.2-0.5-0.2c-0.1,0-0.4,0-0.9,0h-1V17.7z"/>
	<path class="st3" d="M92.2,21.4h-1.4L90.3,20h-2.5l-0.5,1.4h-1.3l2.5-6.3h1.3L92.2,21.4z M89.9,18.9L89,16.6l-0.9,2.3H89.9z"/>
	<path class="st3" d="M96.9,19.1l1.2,0.4c-0.2,0.7-0.5,1.2-0.9,1.5c-0.4,0.3-1,0.5-1.7,0.5c-0.8,0-1.5-0.3-2.1-0.9
		c-0.5-0.6-0.8-1.4-0.8-2.3c0-1,0.3-1.9,0.8-2.4c0.5-0.6,1.3-0.9,2.1-0.9c0.8,0,1.4,0.2,1.9,0.7c0.3,0.3,0.5,0.7,0.6,1.2l-1.3,0.3
		c-0.1-0.3-0.2-0.6-0.5-0.8c-0.2-0.2-0.5-0.3-0.9-0.3c-0.5,0-0.8,0.2-1.1,0.5S94,17.4,94,18.2c0,0.8,0.1,1.4,0.4,1.7
		c0.3,0.3,0.7,0.5,1.1,0.5c0.3,0,0.6-0.1,0.9-0.3C96.6,19.9,96.8,19.5,96.9,19.1z"/>
	<path class="st3" d="M101.7,15.1h2.5c0.5,0,0.9,0,1.1,0.1c0.2,0,0.5,0.1,0.7,0.3s0.4,0.3,0.5,0.5c0.1,0.2,0.2,0.5,0.2,0.7
		c0,0.3-0.1,0.6-0.2,0.8c-0.2,0.2-0.4,0.4-0.6,0.6c0.4,0.1,0.7,0.3,0.9,0.6c0.2,0.3,0.3,0.6,0.3,0.9c0,0.3-0.1,0.6-0.2,0.8
		c-0.1,0.3-0.3,0.5-0.5,0.6s-0.5,0.3-0.9,0.3c-0.2,0-0.7,0-1.5,0h-2.1V15.1z M102.9,16.1v1.5h0.8c0.5,0,0.8,0,0.9,0
		c0.2,0,0.4-0.1,0.5-0.2c0.1-0.1,0.2-0.3,0.2-0.5c0-0.2-0.1-0.4-0.2-0.5c-0.1-0.1-0.3-0.2-0.5-0.2c-0.1,0-0.5,0-1.1,0H102.9z
		 M102.9,18.6v1.7h1.2c0.5,0,0.7,0,0.9,0c0.2,0,0.3-0.1,0.5-0.3c0.1-0.1,0.2-0.3,0.2-0.5c0-0.2,0-0.3-0.1-0.5s-0.2-0.2-0.4-0.3
		c-0.2-0.1-0.5-0.1-1.1-0.1H102.9z"/>
	<path class="st3" d="M108,15.1h1.3v3.4c0,0.5,0,0.9,0,1.1c0.1,0.3,0.2,0.5,0.4,0.6c0.2,0.2,0.5,0.2,0.8,0.2c0.4,0,0.6-0.1,0.8-0.2
		c0.2-0.1,0.3-0.3,0.3-0.5s0.1-0.6,0.1-1.1v-3.5h1.3v3.3c0,0.8,0,1.3-0.1,1.6c-0.1,0.3-0.2,0.6-0.4,0.8c-0.2,0.2-0.4,0.4-0.7,0.5
		c-0.3,0.1-0.7,0.2-1.2,0.2c-0.6,0-1.1-0.1-1.4-0.2c-0.3-0.1-0.6-0.3-0.7-0.5c-0.2-0.2-0.3-0.5-0.4-0.7c-0.1-0.4-0.1-0.9-0.1-1.6
		V15.1z"/>
	<path class="st3" d="M114.1,19.3l1.2-0.1c0.1,0.4,0.2,0.7,0.5,0.9c0.2,0.2,0.5,0.3,0.9,0.3c0.4,0,0.7-0.1,0.9-0.3
		c0.2-0.2,0.3-0.4,0.3-0.6c0-0.1,0-0.3-0.1-0.4c-0.1-0.1-0.2-0.2-0.5-0.3c-0.1-0.1-0.5-0.1-1-0.3c-0.7-0.2-1.2-0.4-1.4-0.6
		c-0.4-0.3-0.6-0.8-0.6-1.3c0-0.3,0.1-0.6,0.3-0.9s0.4-0.5,0.8-0.6c0.3-0.1,0.8-0.2,1.2-0.2c0.8,0,1.4,0.2,1.8,0.5s0.6,0.8,0.6,1.4
		l-1.3,0.1c-0.1-0.3-0.2-0.6-0.4-0.7s-0.4-0.2-0.8-0.2c-0.4,0-0.7,0.1-0.9,0.2c-0.1,0.1-0.2,0.2-0.2,0.4c0,0.1,0.1,0.3,0.2,0.4
		c0.2,0.1,0.5,0.3,1.2,0.4c0.6,0.1,1.1,0.3,1.4,0.5c0.3,0.2,0.5,0.4,0.7,0.6c0.2,0.3,0.3,0.6,0.3,1c0,0.4-0.1,0.7-0.3,1
		c-0.2,0.3-0.5,0.5-0.9,0.7c-0.4,0.2-0.8,0.2-1.4,0.2c-0.8,0-1.4-0.2-1.8-0.6S114.1,20,114.1,19.3z"/>
</g>
</svg>
