<svg version="1.1" id="Ebene_1" xmlns="http://www.w3.org/2000/svg" xmlns:xlink="http://www.w3.org/1999/xlink" x="0" y="0" viewBox="0 0 483 35" xml:space="preserve">
  <path d="M63.8 31.5V4.4H4.3v27.1h59.5z" fill="#333" id="Layer0_0_MEMBER_5_MEMBER_0_FILL"/>
  <path id="Layer0_0_MEMBER_5_MEMBER_0_1_STROKES" d="M63.8 31.5H4.3V4.4h59.5v27.1z" fill="none" stroke="#000" stroke-linecap="round" stroke-linejoin="round"/>
  <path d="M127.8 31.7V4.6H68.3v27.1h59.5z" fill="#333" id="Layer0_0_MEMBER_7_MEMBER_0_FILL"/>
  <path id="Layer0_0_MEMBER_7_MEMBER_0_1_STROKES" d="M127.8 31.7H68.3V4.6h59.5v27.1z" fill="none" stroke="#000" stroke-linecap="round" stroke-linejoin="round"/>
  <defs>
    <path id="SVGID_1_" d="M12.9 11.3h42.7v13.1H12.9z"/>
  </defs>
  <clipPath id="SVGID_2_">
    <use xlink:href="#SVGID_1_" overflow="visible"/>
  </clipPath>
  <path d="M14.9 21.4v-6.2h1.3v5.2h3.2v1.1h-4.5zm12.9 0h-1.4l-.5-1.4h-2.5l-.5 1.4h-1.3l2.5-6.3h1.3l2.4 6.3zm-2.3-2.5l-.9-2.3-.9 2.3h1.8zm7 .2l1.2.4c-.2.7-.5 1.2-.9 1.5-.4.3-1 .5-1.7.5-.8 0-1.5-.3-2.1-.9-.5-.6-.8-1.4-.8-2.3 0-1 .3-1.9.8-2.4.5-.6 1.3-.9 2.1-.9s1.4.2 1.9.7c.3.3.5.7.6 1.2l-1.3.3c-.1-.3-.2-.6-.5-.8-.2-.2-.5-.3-.9-.3-.5 0-.8.2-1.1.5s-.4.9-.4 1.6c0 .8.1 1.4.4 1.7.3.3.7.5 1.1.5.3 0 .6-.1.9-.3.5-.2.6-.6.7-1zm4.8-4h2.5c.5 0 .9 0 1.1.1.2 0 .5.1.7.3s.4.3.5.5c.1.2.2.5.2.7 0 .3-.1.6-.2.8l-.6.6c.4.1.7.3.9.6.2.3.3.6.3.9 0 .3-.1.6-.2.8-.1.3-.3.5-.5.6s-.5.3-.9.3h-3.6v-6.2zm1.3 1v1.5h1.7c.2 0 .4-.1.5-.2.1-.1.2-.3.2-.5s-.1-.4-.2-.5c-.1-.1-.3-.2-.5-.2h-1.7zm0 2.5v1.7h2.1c.2 0 .3-.1.5-.3.1-.1.2-.3.2-.5s0-.3-.1-.5-.2-.2-.4-.3c-.2-.1-.5-.1-1.1-.1h-1.2zm5.1-3.5H45v4.5c.1.3.2.5.4.6.2.2.5.2.8.2.4 0 .6-.1.8-.2.2-.1.3-.3.3-.5s.1-.6.1-1.1v-3.5h1.3v3.3c0 .8 0 1.3-.1 1.6-.1.3-.2.6-.4.8-.2.2-.4.4-.7.5-.3.1-.7.2-1.2.2-.6 0-1.1-.1-1.4-.2-.3-.1-.6-.3-.7-.5-.2-.2-.3-.5-.4-.7-.1-.4-.1-.9-.1-1.6v-3.4zm6 4.2l1.2-.1c.1.4.2.7.5.9.2.2.5.3.9.3s.7-.1.9-.3c.2-.2.3-.4.3-.6 0-.1 0-.3-.1-.4-.1-.1-.2-.2-.5-.3-.1-.1-.5-.1-1-.3-.7-.2-1.2-.4-1.4-.6-.4-.3-.6-.8-.6-1.3 0-.3.1-.6.3-.9s.4-.5.8-.6c.3-.1.8-.2 1.2-.2.8 0 1.4.2 1.8.5s.6.8.6 1.4l-1.3.1c-.1-.3-.2-.6-.4-.7s-.3-.2-.7-.2c-.4 0-.7.1-.9.2-.1.1-.2.2-.2.4 0 .1.1.3.2.4.2.1.5.3 1.2.4.6.1 1.1.3 1.4.5.3.2.5.4.7.6.2.3.3.6.3 1s-.1.7-.3 1c-.2.3-.5.5-.9.7-.4.2-.8.2-1.4.2-.8 0-1.4-.2-1.8-.6s-.7-.8-.8-1.5z" clip-path="url(#SVGID_2_)" fill="#f93"/>
  <defs>
    <path id="SVGID_3_" d="M76.1 11.3h44.1v13.1H76.1z"/>
  </defs>
  <clipPath id="SVGID_4_">
    <use xlink:href="#SVGID_3_" overflow="visible"/>
  </clipPath>
  <path d="M78.1 21.4v-6.3h2.7c.7 0 1.2.1 1.5.2s.5.3.7.6.3.6.3 1c0 .5-.1.9-.4 1.2-.3.3-.7.5-1.2.6.3.2.5.3.7.5.2.2.4.5.7 1l.8 1.2h-1.5L81.3 20c-.3-.5-.5-.8-.7-.9-.1-.1-.2-.2-.4-.3-.1 0-.3-.1-.6-.1h-.3v2.6h-1.2zm1.2-3.7h.9c.6 0 1 0 1.1-.1.2-.1.3-.1.4-.3s.1-.3.1-.5-.1-.4-.2-.5c-.1-.1-.3-.2-.5-.2h-1.9v1.6zm12.9 3.7h-1.4l-.5-1.4h-2.5l-.5 1.4H86l2.5-6.3h1.3l2.4 6.3zm-2.3-2.5l-.9-2.3-.9 2.3h1.8zm7 .2l1.2.4c-.2.7-.5 1.2-.9 1.5-.4.3-1 .5-1.7.5-.8 0-1.5-.3-2.1-.9-.5-.6-.8-1.4-.8-2.3 0-1 .3-1.9.8-2.4.5-.6 1.3-.9 2.1-.9s1.4.2 1.9.7c.3.3.5.7.6 1.2l-1.3.3c-.1-.3-.2-.6-.5-.8-.2-.2-.5-.3-.9-.3-.5 0-.8.2-1.1.5s-.2.8-.2 1.6.1 1.4.4 1.7c.3.3.7.5 1.1.5.3 0 .6-.1.9-.3.2-.2.4-.6.5-1zm4.8-4h2.5c.5 0 .9 0 1.1.1.2 0 .5.1.7.3s.4.3.5.5c.1.2.2.5.2.7 0 .3-.1.6-.2.8l-.6.6c.4.1.7.3.9.6.2.3.3.6.3.9 0 .3-.1.6-.2.8-.1.3-.3.5-.5.6s-.5.3-.9.3h-3.6v-6.2zm1.2 1v1.5h1.7c.2 0 .4-.1.5-.2.1-.1.2-.3.2-.5s-.1-.4-.2-.5c-.1-.1-.3-.2-.5-.2h-1.7zm0 2.5v1.7h2.1c.2 0 .3-.1.5-.3.1-.1.2-.3.2-.5s0-.3-.1-.5-.2-.2-.4-.3c-.2-.1-.5-.1-1.1-.1h-1.2zm5.1-3.5h1.3v4.5c.1.3.2.5.4.6.2.2.5.2.8.2.4 0 .6-.1.8-.2.2-.1.3-.3.3-.5s.1-.6.1-1.1v-3.5h1.3v3.3c0 .8 0 1.3-.1 1.6-.1.3-.2.6-.4.8-.2.2-.4.4-.7.5-.3.1-.7.2-1.2.2-.6 0-1.1-.1-1.4-.2-.3-.1-.6-.3-.7-.5-.2-.2-.3-.5-.4-.7-.1-.4-.1-.9-.1-1.6v-3.4zm6.1 4.2l1.2-.1c.1.4.2.7.5.9.2.2.5.3.9.3s.7-.1.9-.3c.2-.2.3-.4.3-.6 0-.1 0-.3-.1-.4-.1-.1-.2-.2-.5-.3-.1-.1-.5-.1-1-.3-.7-.2-1.2-.4-1.4-.6-.4-.3-.6-.8-.6-1.3 0-.3.1-.6.3-.9s.4-.5.8-.6c.3-.1.8-.2 1.2-.2.8 0 1.4.2 1.8.5s.6.8.6 1.4l-1.3.1c-.1-.3-.2-.6-.4-.7s-.4-.2-.8-.2-.7.1-.9.2c-.1.1-.2.2-.2.4 0 .1.1.3.2.4.2.1.5.3 1.2.4.6.1 1.1.3 1.4.5.3.2.5.4.7.6.2.3.3.6.3 1s-.1.7-.3 1c-.2.3-.5.5-.9.7-.4.2-.8.2-1.4.2-.8 0-1.4-.2-1.8-.6s-.7-.8-.7-1.5z" clip-path="url(#SVGID_4_)" fill="#f93"/>
</svg>
