<svg version="1.1" id="Ebene_1" xmlns="http://www.w3.org/2000/svg" xmlns:xlink="http://www.w3.org/1999/xlink" x="0" y="0" viewBox="0 0 293.6 209" xml:space="preserve">
  <path id="Layer0_0_1_STROKES" d="M50.3 8.4c-1.2 2.7-3.1 8.1-4.1 11.3-.7 2.4-1.4 5.1-2 8.2m-1.2 6v.2M24.8 164.7c0 .2-.1.3-.1.5m-1.7 6.1c-2.5 8.3-5.2 16.1-8.3 23.2-1 2.2-2 4.4-3 6.5M44.2 27.9c-.4 1.9-.8 3.9-1.2 6m0 .2c-.5 2.5-.9 5.2-1.3 8.1M27.1 155.3c-.7 3.2-1.5 6.4-2.4 9.5M41.6 42.3C40.3 50.9 39.1 61.2 38 73c-3 31.3-5.5 52.8-7.4 64.5-1 6.2-2.2 12.1-3.5 17.8m-2.4 9.9c-.6 2.1-1.1 4.1-1.7 6.1" fill="none" stroke="#fff" stroke-linecap="round" stroke-linejoin="round"/>
  <path id="Layer0_0_2_STROKES" d="M44.2 27.9h48.6c.5 0 1 .2 1.4.6.4.4.6.9.6 1.4v4H43m0 .2h52.1v130.6H24.8m-.1.5h69.9v4c0 .6-.2 1-.6 1.4-.4.4-.8.6-1.4.6H23M41.6 42.3h40.8c1.2 0 2.2.4 3.2 1.4.8.9 1.2 1.9 1.2 3.1v105.8c0 1.2-.4 2.2-1.2 3.1-.9.9-1.9 1.4-3.2 1.4h-52c-1.2 0-2.2-.5-3-1.4-.1-.1-.2-.2-.3-.4" fill="none" stroke="#797979" stroke-width=".55" stroke-miterlimit="6"/>
  <path id="Layer0_0_MEMBER_0_MEMBER_0_MEMBER_0_1_STROKES" d="M250.8 78.6h-20.2c-.7 0-1.1.3-1.1 1V112c0 .3.1.5.3.8.2.2.5.3.8.3h20.2c.3 0 .5-.1.8-.3s.3-.5.3-.8V79.7c0-.3-.1-.5-.3-.7-.2-.2-.5-.4-.8-.4z" fill="none" stroke="silver" stroke-width=".55" stroke-miterlimit="6"/>
  <path id="Layer0_0_MEMBER_0_MEMBER_0_MEMBER_1_1_STROKES" d="M235 78.8v34.5h11.3V78.8H235z" fill="none" stroke="silver" stroke-width=".55" stroke-miterlimit="6"/>
  <path id="Layer0_0_MEMBER_0_MEMBER_0_MEMBER_2_1_STROKES" d="M238.8 90.7c.5.5 1.2.8 1.9.8s1.3-.3 1.9-.8c.5-.5.8-1.2.8-1.9 0-.8-.3-1.4-.8-1.9s-1.2-.8-1.9-.8c-.8 0-1.4.3-1.9.8s-.8 1.2-.8 1.9.3 1.4.8 1.9z" fill="none" stroke="silver" stroke-width=".55" stroke-miterlimit="6"/>
  <path id="Layer0_0_MEMBER_0_MEMBER_0_MEMBER_3_1_STROKES" d="M240.7 105.5c.8 0 1.4-.3 1.9-.8s.8-1.2.8-1.9c0-.8-.3-1.4-.8-1.9s-1.2-.8-1.9-.8-1.3.3-1.9.8c-.5.5-.8 1.1-.8 1.9 0 .8.3 1.4.8 1.9s1.2.8 1.9.8z" fill="none" stroke="silver" stroke-width=".55" stroke-miterlimit="6"/>
  <path id="Layer0_0_MEMBER_0_MEMBER_1_MEMBER_0_1_STROKES" d="M168.5 161.7h-19.6v29.2h19.6v-29.2z" fill="none" stroke="silver" stroke-width=".55" stroke-miterlimit="6"/>
  <path id="Layer0_0_MEMBER_0_MEMBER_1_MEMBER_1_1_STROKES" d="M168.7 170.2h-19.2v12.4h19.2v-12.4z" fill="none" stroke="silver" stroke-width=".55" stroke-miterlimit="6"/>
  <path id="Layer0_0_MEMBER_0_MEMBER_1_MEMBER_2_1_STROKES" d="M164.4 178.4c.6 0 1.1-.2 1.4-.6.4-.4.6-.9.6-1.4 0-.5-.2-1-.6-1.4-.4-.4-.9-.6-1.4-.6-.5 0-1 .2-1.4.6-.4.4-.6.9-.6 1.4 0 .5.2 1 .6 1.4.4.4.8.6 1.4.6z" fill="none" stroke="silver" stroke-width=".55" stroke-miterlimit="6"/>
  <path id="Layer0_0_MEMBER_0_MEMBER_1_MEMBER_3_1_STROKES" d="M153.8 178.4c.5 0 1-.2 1.4-.6.4-.4.6-.9.6-1.4 0-.5-.2-1-.6-1.4-.4-.4-.8-.6-1.4-.6-.5 0-1 .2-1.4.6-.4.4-.6.9-.6 1.4 0 .6.2 1.1.6 1.4.4.4.9.6 1.4.6z" fill="none" stroke="silver" stroke-width=".55" stroke-miterlimit="6"/>
  <path id="Layer0_0_MEMBER_0_MEMBER_2_MEMBER_0_1_STROKES" d="M109.8 153.7v19.6H139v-19.6h-29.2z" fill="none" stroke="silver" stroke-width=".55" stroke-miterlimit="6"/>
  <path id="Layer0_0_MEMBER_0_MEMBER_2_MEMBER_1_1_STROKES" d="M130.5 173.5v-19.2h-12.4v19.2h12.4z" fill="none" stroke="silver" stroke-width=".55" stroke-miterlimit="6"/>
  <path id="Layer0_0_MEMBER_0_MEMBER_2_MEMBER_2_1_STROKES" d="M126.3 169.1c0-.5-.2-1-.6-1.4-.4-.4-.8-.6-1.4-.6-.5 0-1 .2-1.4.6-.4.4-.6.8-.6 1.4 0 .5.2 1 .6 1.4.4.4.9.6 1.4.6.5 0 1-.2 1.4-.6.4-.4.6-.8.6-1.4z" fill="none" stroke="silver" stroke-width=".55" stroke-miterlimit="6"/>
  <path id="Layer0_0_MEMBER_0_MEMBER_2_MEMBER_3_1_STROKES" d="M126.3 158.6c0-.5-.2-1-.6-1.4-.4-.4-.9-.6-1.4-.6-.5 0-1 .2-1.4.6-.4.4-.6.9-.6 1.4 0 .5.2 1 .6 1.4.4.4.8.6 1.4.6.5 0 1-.2 1.4-.6.4-.4.6-.9.6-1.4z" fill="none" stroke="silver" stroke-width=".55" stroke-miterlimit="6"/>
  <path id="Layer0_0_MEMBER_0_MEMBER_3_MEMBER_0_1_STROKES" d="M193.7 81.7v29.4h10.9V81.7h-10.9z" fill="none" stroke="silver" stroke-width=".55" stroke-miterlimit="6"/>
  <path id="Layer0_0_MEMBER_0_MEMBER_3_MEMBER_1_1_STROKES" d="M199.2 88.1c.6 0 1.2-.2 1.6-.6.4-.5.6-1 .6-1.6 0-.6-.2-1.2-.6-1.6-.5-.5-1-.7-1.6-.7-.6 0-1.2.2-1.6.7-.5.4-.7.9-.7 1.6 0 .6.2 1.2.7 1.6.4.4 1 .6 1.6.6z" fill="none" stroke="silver" stroke-width=".55" stroke-miterlimit="6"/>
  <path id="Layer0_0_MEMBER_0_MEMBER_3_MEMBER_2_1_STROKES" d="M194 88.5h10.4v-5.3H194v5.3z" fill="none" stroke="silver" stroke-width=".55" stroke-miterlimit="6"/>
  <path id="Layer0_0_MEMBER_0_MEMBER_3_MEMBER_3_1_STROKES" d="M194 109.5h10.5v-5.3H194v5.3z" fill="none" stroke="silver" stroke-width=".55" stroke-miterlimit="6"/>
  <path id="Layer0_0_MEMBER_0_MEMBER_3_MEMBER_4_1_STROKES" d="M199.3 109.1c.6 0 1.1-.2 1.6-.6.5-.5.7-1 .7-1.6 0-.6-.2-1.1-.7-1.6-.5-.5-1-.7-1.6-.7-.6 0-1.2.2-1.6.7-.5.5-.7 1-.7 1.6 0 .6.2 1.2.7 1.6.5.4 1 .6 1.6.6z" fill="none" stroke="silver" stroke-width=".55" stroke-miterlimit="6"/>
  <path id="Layer0_0_MEMBER_0_MEMBER_3_MEMBER_5_1_STROKES" d="M199.2 88.1c.6 0 1.2-.2 1.6-.6.4-.5.6-1 .6-1.6s-.2-1.2-.6-1.6c-.5-.5-1-.7-1.6-.7-.6 0-1.2.2-1.6.7-.5.4-.7.9-.7 1.6s.2 1.2.7 1.6c.4.4 1 .6 1.6.6z" fill="none" stroke="silver" stroke-width=".55" stroke-miterlimit="6"/>
  <path id="Layer0_0_MEMBER_0_MEMBER_4_MEMBER_0_1_STROKES" d="M183 62.4h10.9V33H183v29.4z" fill="none" stroke="silver" stroke-width=".55" stroke-miterlimit="6"/>
  <path id="Layer0_0_MEMBER_0_MEMBER_4_MEMBER_1_1_STROKES" d="M188.6 39.5c.6 0 1.1-.2 1.6-.7.5-.5.7-1 .7-1.6 0-.6-.2-1.2-.7-1.6-.5-.5-1-.7-1.6-.7-.6 0-1.2.2-1.6.7-.5.4-.7.9-.7 1.6 0 .6.2 1.1.7 1.6.4.5.9.7 1.6.7z" fill="none" stroke="silver" stroke-width=".55" stroke-miterlimit="6"/>
  <path id="Layer0_0_MEMBER_0_MEMBER_4_MEMBER_2_1_STROKES" d="M183.3 39.9h10.5v-5.3h-10.5v5.3z" fill="none" stroke="silver" stroke-width=".55" stroke-miterlimit="6"/>
  <path id="Layer0_0_MEMBER_0_MEMBER_4_MEMBER_3_1_STROKES" d="M183.3 60.9h10.5v-5.3h-10.5v5.3z" fill="none" stroke="silver" stroke-width=".55" stroke-miterlimit="6"/>
  <path id="Layer0_0_MEMBER_0_MEMBER_4_MEMBER_4_1_STROKES" d="M188.6 60.5c.6 0 1.2-.2 1.6-.6.4-.5.6-1 .6-1.6s-.2-1.2-.6-1.6c-.5-.5-1-.7-1.6-.7-.6 0-1.2.2-1.6.7-.5.4-.7.9-.7 1.6s.2 1.2.7 1.6c.5.4 1 .6 1.6.6z" fill="none" stroke="silver" stroke-width=".55" stroke-miterlimit="6"/>
  <path id="Layer0_0_MEMBER_0_MEMBER_4_MEMBER_5_1_STROKES" d="M188.5 39.5c.6 0 1.2-.2 1.6-.7.4-.5.6-1 .6-1.6 0-.6-.2-1.2-.6-1.6-.5-.5-1-.7-1.6-.7-.6 0-1.2.2-1.6.7-.5.4-.7.9-.7 1.6 0 .6.2 1.1.7 1.6.5.4 1 .7 1.6.7z" fill="none" stroke="silver" stroke-width=".55" stroke-miterlimit="6"/>
  <path id="Layer0_0_MEMBER_0_MEMBER_5_MEMBER_0_1_STROKES" d="M230.3 190.8h10.9v-29.4h-10.9v29.4z" fill="none" stroke="silver" stroke-width=".55" stroke-miterlimit="6"/>
  <path id="Layer0_0_MEMBER_0_MEMBER_5_MEMBER_1_1_STROKES" d="M235.8 167.9c.6 0 1.2-.2 1.6-.6.4-.5.6-1 .6-1.6 0-.6-.2-1.1-.6-1.6-.5-.5-1-.7-1.6-.7s-1.2.2-1.6.7c-.5.5-.7 1-.7 1.6 0 .6.2 1.2.7 1.6.5.4 1 .6 1.6.6z" fill="none" stroke="silver" stroke-width=".55" stroke-miterlimit="6"/>
  <path id="Layer0_0_MEMBER_0_MEMBER_5_MEMBER_2_1_STROKES" d="M230.6 168.2H241v-5.3h-10.4v5.3z" fill="none" stroke="silver" stroke-width=".55" stroke-miterlimit="6"/>
  <path id="Layer0_0_MEMBER_0_MEMBER_5_MEMBER_3_1_STROKES" d="M230.7 189.2h10.5v-5.3h-10.5v5.3z" fill="none" stroke="silver" stroke-width=".55" stroke-miterlimit="6"/>
  <path id="Layer0_0_MEMBER_0_MEMBER_5_MEMBER_4_1_STROKES" d="M235.9 188.9c.6 0 1.2-.2 1.6-.7.4-.5.6-1 .6-1.6 0-.6-.2-1.2-.6-1.6-.5-.5-1-.7-1.6-.7-.6 0-1.1.2-1.6.7-.5.4-.7.9-.7 1.6 0 .6.2 1.1.7 1.6.5.4 1 .7 1.6.7z" fill="none" stroke="silver" stroke-width=".55" stroke-miterlimit="6"/>
  <path id="Layer0_0_MEMBER_0_MEMBER_5_MEMBER_5_1_STROKES" d="M235.8 167.8c.6 0 1.2-.2 1.6-.6.4-.5.6-1 .6-1.6 0-.6-.2-1.1-.6-1.6-.5-.5-1-.7-1.6-.7s-1.2.2-1.6.7c-.5.5-.7 1-.7 1.6 0 .6.2 1.2.7 1.6.5.4 1 .6 1.6.6z" fill="none" stroke="silver" stroke-width=".55" stroke-miterlimit="6"/>
  <path id="Layer0_0_MEMBER_0_MEMBER_6_1_STROKES" d="M252 42.6h-98l-.4 73.7-2.3 1.9-16.8.3c-2.9-.8-4.3-1.9-4-3.3V79l3.2-2.7V56.6H121l-.3 75.1 9.7.3c-.1-1 .2-1.9.8-2.7.6-.8 1.6-1.2 2.8-1.3l16.5.1c1.7.4 2.6 1.4 2.8 3.1 0 1.4.5 2.3 1.3 2.8.5.3 1.5.5 3 .7l78.4-.2c2.1 0 3.2.8 3.2 2.5l.4 30.7c0 2.5-1.4 3.7-4.3 3.5l-10.8.1-.1 9.6 11 .3c8.3-.1 13.1-4.3 14.1-12.7l.2-41.7c-.1-2.9-1.8-4.2-5.2-4l-75.9.3c-2.3-.3-3.5-1.5-3.7-3.5l.1-18 87 .4-.1-11.7-86.9-.5.2-36.7H252c2.6-.1 3.9-1.9 3.9-5.3 0-3.6-1.3-5.3-3.9-5.2z" fill="none" stroke="silver" stroke-width=".55" stroke-miterlimit="6"/>
  <path id="Layer0_0_MEMBER_0_MEMBER_7_MEMBER_0_1_STROKES" d="M164.7 114.7h-10.9v29.4h10.9v-29.4z" fill="none" stroke="silver" stroke-width=".55" stroke-miterlimit="6"/>
  <path id="Layer0_0_MEMBER_0_MEMBER_7_MEMBER_1_1_STROKES" d="M159.3 116.7c-.6 0-1.1.2-1.6.7-.5.4-.7.9-.7 1.6 0 .6.2 1.2.7 1.6.5.4 1 .6 1.6.6.6 0 1.2-.2 1.6-.6.4-.5.6-1 .6-1.6 0-.6-.2-1.2-.6-1.6-.4-.5-.9-.7-1.6-.7z" fill="none" stroke="silver" stroke-width=".55" stroke-miterlimit="6"/>
  <path id="Layer0_0_MEMBER_0_MEMBER_7_MEMBER_2_1_STROKES" d="M164.6 116.2h-10.5v5.3h10.5v-5.3z" fill="none" stroke="silver" stroke-width=".55" stroke-miterlimit="6"/>
  <path id="Layer0_0_MEMBER_0_MEMBER_7_MEMBER_3_1_STROKES" d="M164.7 137.2h-10.5v5.3h10.5v-5.3z" fill="none" stroke="silver" stroke-width=".55" stroke-miterlimit="6"/>
  <path id="Layer0_0_MEMBER_0_MEMBER_7_MEMBER_4_1_STROKES" d="M159.5 137.7c-.6 0-1.2.2-1.6.7-.5.4-.7.9-.7 1.6 0 .6.2 1.1.7 1.6.4.5.9.7 1.6.7.6 0 1.1-.2 1.6-.7.5-.5.7-1 .7-1.6 0-.6-.2-1.2-.7-1.6-.5-.5-1.1-.7-1.6-.7z" fill="none" stroke="silver" stroke-width=".55" stroke-miterlimit="6"/>
  <path id="Layer0_0_MEMBER_0_MEMBER_7_MEMBER_5_1_STROKES" d="M159.3 116.6c-.6 0-1.2.2-1.6.7-.5.4-.7.9-.7 1.6 0 .6.2 1.2.7 1.6.4.4.9.6 1.6.6s1.2-.2 1.6-.6c.4-.5.6-1 .6-1.6 0-.6-.2-1.2-.6-1.6-.4-.4-.9-.7-1.6-.7z" fill="none" stroke="silver" stroke-width=".55" stroke-miterlimit="6"/>
  <defs>
    <path id="SVGID_1_" d="M149.5 32.9H170v17.5h-20.5z"/>
  </defs>
  <clipPath id="SVGID_2_">
    <use xlink:href="#SVGID_1_" overflow="visible"/>
  </clipPath>
  <g clip-path="url(#SVGID_2_)">
    <text transform="translate(151.99 45.021)" font-size="12.512" font-family="ArialMT" fill="#fff">
      K9
    </text>
  </g>
  <defs>
    <path id="SVGID_3_" d="M118.7 56.9h20.5v17.5h-20.5z"/>
  </defs>
  <clipPath id="SVGID_4_">
    <use xlink:href="#SVGID_3_" overflow="visible"/>
  </clipPath>
  <g clip-path="url(#SVGID_4_)">
    <text transform="translate(121.19 69.072)" font-size="12.512" font-family="ArialMT" fill="#fff">
      K5
    </text>
  </g>
  <defs>
    <path id="SVGID_5_" d="M162.6 82.1h20.5v17.5h-20.5z"/>
  </defs>
  <clipPath id="SVGID_6_">
    <use xlink:href="#SVGID_5_" overflow="visible"/>
  </clipPath>
  <g clip-path="url(#SVGID_6_)">
    <text transform="translate(165.14 94.271)" font-size="12.512" font-family="ArialMT" fill="#fff">
      K1
    </text>
  </g>
  <defs>
    <path id="SVGID_7_" d="M183.9 114.5h20.5V132h-20.5z"/>
  </defs>
  <clipPath id="SVGID_8_">
    <use xlink:href="#SVGID_7_" overflow="visible"/>
  </clipPath>
  <g clip-path="url(#SVGID_8_)">
    <text transform="translate(186.39 126.671)" font-size="12.512" font-family="ArialMT" fill="#fff">
      K7
    </text>
  </g>
  <defs>
    <path id="SVGID_9_" d="M116.9 132.8h27.4v17.5h-27.4z"/>
  </defs>
  <clipPath id="SVGID_10_">
    <use xlink:href="#SVGID_9_" overflow="visible"/>
  </clipPath>
  <g clip-path="url(#SVGID_10_)">
    <text transform="translate(119.39 144.97)" font-size="12.512" font-family="ArialMT" fill="#fff">
      K22
    </text>
  </g>
  <defs>
    <path id="SVGID_11_" d="M199.1 162h20.5v17.5h-20.5z"/>
  </defs>
  <clipPath id="SVGID_12_">
    <use xlink:href="#SVGID_11_" overflow="visible"/>
  </clipPath>
  <g clip-path="url(#SVGID_12_)">
    <text transform="translate(201.64 174.121)" font-size="12.512" font-family="ArialMT" fill="#fff">
      K3
    </text>
  </g>
  <path id="Layer0_0_MEMBER_7_1_STROKES" d="M14.7 194.5h257.1V10.8H49.4" fill="none" stroke="#797979" stroke-miterlimit="6"/>
  <path id="Layer0_0_MEMBER_7_2_STROKES" d="M49.4 10.8c-1.2 2.7-2.2 5.7-3.2 8.9-3.2 10.8-6 28.6-8.3 53.4-3 31.3-5.5 52.8-7.4 64.5-3.7 22.1-9 41.1-15.9 57M51.3 7c-.2.4-1.6 3.3-1.8 3.8M14.7 194.5c-1 2.2-2 4.4-3 6.5" fill="none" stroke="#666" stroke-linecap="round" stroke-linejoin="round"/>
  <path id="Layer0_0_MEMBER_8_1_STROKES" d="M121.4 17.1l-15.7 19.1v62H95.5V10.7h25.9v6.4z" fill="none" stroke="#797979" stroke-width=".55" stroke-miterlimit="6"/>
  <path id="Layer0_0_MEMBER_9_1_STROKES" d="M56.7 36.6c-.6 0-1.1.2-1.6.6-.4.5-.6 1-.6 1.6 0 .6.2 1.1.6 1.6.5.4 1 .6 1.6.6s1.1-.2 1.6-.6c.4-.5.6-1 .6-1.6 0-.6-.2-1.1-.6-1.6-.5-.4-1.1-.6-1.6-.6z" fill="none" stroke="#797979" stroke-width=".55" stroke-miterlimit="6"/>
  <path id="Layer0_0_MEMBER_10_1_STROKES" d="M90.1 41c.6 0 1.1-.2 1.6-.6.4-.5.6-1 .6-1.6 0-.6-.2-1.1-.6-1.6-.5-.4-1-.6-1.6-.6-.6 0-1.1.2-1.6.6-.4.5-.6 1-.6 1.6 0 .6.2 1.1.6 1.6.5.4 1 .6 1.6.6z" fill="none" stroke="#797979" stroke-width=".55" stroke-miterlimit="6"/>
  <path id="Layer0_0_MEMBER_11_1_STROKES" d="M90.1 81.7c.6 0 1.1-.2 1.6-.6.4-.5.6-1 .6-1.6 0-.6-.2-1.1-.6-1.6-.5-.4-1-.6-1.6-.6-.6 0-1.1.2-1.6.6-.4.5-.6 1-.6 1.6 0 .6.2 1.2.6 1.6.5.4 1 .6 1.6.6z" fill="none" stroke="#797979" stroke-width=".55" stroke-miterlimit="6"/>
  <path id="Layer0_0_MEMBER_12_1_STROKES" d="M90.1 121.8c.6 0 1.1-.2 1.6-.6.4-.5.6-1 .6-1.6 0-.6-.2-1.2-.6-1.6-.5-.5-1-.7-1.6-.7-.6 0-1.1.2-1.6.7-.4.4-.6.9-.6 1.6 0 .6.2 1.1.6 1.6.5.4 1 .6 1.6.6z" fill="none" stroke="#797979" stroke-width=".55" stroke-miterlimit="6"/>
  <path id="Layer0_0_MEMBER_13_1_STROKES" d="M90.1 162.3c.6 0 1.1-.2 1.6-.6.4-.5.6-1 .6-1.6 0-.6-.2-1.1-.6-1.6-.5-.4-1-.6-1.6-.6-.6 0-1.1.2-1.6.6-.4.5-.6 1-.6 1.6 0 .6.2 1.1.6 1.6.5.4 1 .6 1.6.6z" fill="none" stroke="#797979" stroke-width=".55" stroke-miterlimit="6"/>
  <path id="Layer0_0_MEMBER_14_1_STROKES" d="M55.1 162c.5.4 1 .6 1.6.6s1.1-.2 1.6-.6c.4-.5.6-1 .6-1.6 0-.6-.2-1.2-.6-1.6-.5-.5-1-.7-1.6-.7s-1.1.2-1.6.7c-.4.4-.6.9-.6 1.6 0 .6.2 1.1.6 1.6z" fill="none" stroke="#797979" stroke-width=".55" stroke-miterlimit="6"/>
  <path id="Layer0_0_MEMBER_15_1_STROKES" d="M95.1 107v87.5h18.7l-.1-15.8-8.6-9.7v-62h-10z" fill="none" stroke="#797979" stroke-width=".55" stroke-miterlimit="6"/>
  <path d="M221.8 161.8h-5.2v-6.9H201l.1 6.9h-5v11.3h-4.4v6.5h4.4v3.6h25.8v-3.6h4.6v-6.5h-4.6v-11.3z" fill="#eaeaea"/>
  <path id="Layer0_0_MEMBER_16_MEMBER_0_MEMBER_0_1_STROKES" d="M221.8 161.8v11.3h4.6v6.5h-4.6v3.6H196v-3.6h-4.4v-6.5h4.4v-11.3h5l-.1-6.9h15.7v6.9h5.2z" fill="none" stroke="#000" stroke-width="1" stroke-miterlimit="6"/>
  <path id="Layer0_0_MEMBER_16_MEMBER_0_MEMBER_1_1_STROKES" d="M222 181.8h-26.2" fill="none" stroke="#000" stroke-width="1" stroke-miterlimit="6"/>
  <path id="Layer0_0_MEMBER_16_MEMBER_0_MEMBER_2_1_STROKES" d="M221.8 161.9H196" fill="none" stroke="#000" stroke-width="1" stroke-miterlimit="6"/>
  <path id="Layer0_0_MEMBER_16_MEMBER_0_MEMBER_3_1_STROKES" d="M196 173.1v6.5" fill="none" stroke="#000" stroke-width="1" stroke-miterlimit="6"/>
  <path id="Layer0_0_MEMBER_16_MEMBER_0_MEMBER_4_1_STROKES" d="M221.8 173.1v6.5" fill="none" stroke="#000" stroke-width="1" stroke-miterlimit="6"/>
  <path d="M185.4 80.9h-5.2V74h-15.7v6.9h-5v11.3h-4.4v6.4h4.4v3.7h25.8v-3.6h4.5v-6.5h-4.5V80.9z" fill="#eaeaea"/>
  <path id="Layer0_0_MEMBER_16_MEMBER_1_MEMBER_0_1_STROKES" d="M185.4 80.8v11.3h4.5v6.5h-4.5v3.6h-25.8v-3.7h-4.4v-6.4h4.4V80.8h5v-6.9h15.7v6.9h5.1z" fill="none" stroke="#000" stroke-width="1" stroke-miterlimit="6"/>
  <path id="Layer0_0_MEMBER_16_MEMBER_1_MEMBER_1_1_STROKES" d="M185.6 100.9h-26.2" fill="none" stroke="#000" stroke-width="1" stroke-miterlimit="6"/>
  <path id="Layer0_0_MEMBER_16_MEMBER_1_MEMBER_2_1_STROKES" d="M185.3 80.9h-25.7" fill="none" stroke="#000" stroke-width="1" stroke-miterlimit="6"/>
  <path id="Layer0_0_MEMBER_16_MEMBER_1_MEMBER_3_1_STROKES" d="M159.6 92.2v6.4" fill="none" stroke="#000" stroke-width="1" stroke-miterlimit="6"/>
  <path id="Layer0_0_MEMBER_16_MEMBER_1_MEMBER_4_1_STROKES" d="M185.4 92.2v6.5" fill="none" stroke="#000" stroke-width="1" stroke-miterlimit="6"/>
  <path d="M206.5 113.9h-5.2V107h-15.7l.1 6.9h-5v11.3h-4.4v6.4h4.4v3.7h25.8v-3.6h4.6v-6.5h-4.6v-11.3z" fill="#eaeaea"/>
  <path id="Layer0_0_MEMBER_16_MEMBER_2_MEMBER_0_1_STROKES" d="M206.5 113.9v11.3h4.6v6.5h-4.6v3.6h-25.8v-3.7h-4.4v-6.4h4.4v-11.3h5l-.1-6.9h15.7v6.9h5.2z" fill="none" stroke="#000" stroke-width="1" stroke-miterlimit="6"/>
  <path id="Layer0_0_MEMBER_16_MEMBER_2_MEMBER_1_1_STROKES" d="M206.7 133.9h-26.2" fill="none" stroke="#000" stroke-width="1" stroke-miterlimit="6"/>
  <path id="Layer0_0_MEMBER_16_MEMBER_2_MEMBER_2_1_STROKES" d="M206.5 114h-25.8" fill="none" stroke="#000" stroke-width="1" stroke-miterlimit="6"/>
  <path id="Layer0_0_MEMBER_16_MEMBER_2_MEMBER_3_1_STROKES" d="M180.7 125.2v6.4" fill="none" stroke="#000" stroke-width="1" stroke-miterlimit="6"/>
  <path id="Layer0_0_MEMBER_16_MEMBER_2_MEMBER_4_1_STROKES" d="M206.5 125.2v6.5" fill="none" stroke="#000" stroke-width="1" stroke-miterlimit="6"/>
  <path d="M167 25.8h-15.7l.1 6.9h-5V44H142v6.4h4.4v3.7h25.8v-3.6h4.6V44h-4.6V32.7H167v-6.9z" fill="#eaeaea"/>
  <path id="Layer0_0_MEMBER_16_MEMBER_3_MEMBER_0_1_STROKES" d="M166.9 25.8v6.9h5.2V44h4.6v6.5h-4.6v3.6h-25.8v-3.7h-4.4V44h4.4V32.7h5l-.1-6.9h15.7z" fill="none" stroke="#000" stroke-width="1" stroke-miterlimit="6"/>
  <path id="Layer0_0_MEMBER_16_MEMBER_3_MEMBER_1_1_STROKES" d="M172.3 52.7h-26.2" fill="none" stroke="#000" stroke-width="1" stroke-miterlimit="6"/>
  <path id="Layer0_0_MEMBER_16_MEMBER_3_MEMBER_2_1_STROKES" d="M172 32.8h-25.7" fill="none" stroke="#000" stroke-width="1" stroke-miterlimit="6"/>
  <path id="Layer0_0_MEMBER_16_MEMBER_3_MEMBER_3_1_STROKES" d="M146.3 44v6.4" fill="none" stroke="#000" stroke-width="1" stroke-miterlimit="6"/>
  <path id="Layer0_0_MEMBER_16_MEMBER_3_MEMBER_4_1_STROKES" d="M172.1 44v6.5" fill="none" stroke="#000" stroke-width="1" stroke-miterlimit="6"/>
  <path d="M120.5 129.5h-3.6v25.8h3.6v4.4h6.5v-4.4h11.3v-5h6.9v-15.7h-6.9v-5.2H127V125h-6.5v4.5z" fill="#eaeaea"/>
  <path id="Layer0_0_MEMBER_16_MEMBER_4_MEMBER_0_1_STROKES" d="M120.4 129.5h-3.6v25.8h3.6v4.4h6.5v-4.4h11.3v-5h6.9v-15.7h-6.9v-5.2h-11.3V125h-6.5v4.5z" fill="none" stroke="#000" stroke-width="1" stroke-miterlimit="6"/>
  <path id="Layer0_0_MEMBER_16_MEMBER_4_MEMBER_1_1_STROKES" d="M118.2 129.3v26.2" fill="none" stroke="#000" stroke-width="1" stroke-miterlimit="6"/>
  <path id="Layer0_0_MEMBER_16_MEMBER_4_MEMBER_2_1_STROKES" d="M138.1 148.8v6.4" fill="none" stroke="#000" stroke-width="1" stroke-miterlimit="6"/>
  <path id="Layer0_0_MEMBER_16_MEMBER_4_MEMBER_3_1_STROKES" d="M126.9 155.3h-6.5" fill="none" stroke="#000" stroke-width="1" stroke-miterlimit="6"/>
  <path id="Layer0_0_MEMBER_16_MEMBER_4_MEMBER_4_1_STROKES" d="M126.9 129.5h-6.5" fill="none" stroke="#000" stroke-width="1" stroke-miterlimit="6"/>
  <path d="M138 58.9v-5.2h-11.3v-4.5h-6.5v4.6l-3.6-.1v25.8h3.7v4.3l6.4.1v-4.4H138v-5h6.9V58.9H138z" fill="#eaeaea"/>
  <path id="Layer0_0_MEMBER_16_MEMBER_5_MEMBER_0_1_STROKES" d="M137.9 53.7h-11.3v-4.5h-6.5v4.6l-3.6-.1v25.8h3.7v4.3l6.4.1v-4.4h11.3v-5h6.9V58.8h-6.9v-5.1z" fill="none" stroke="#000" stroke-width="1" stroke-miterlimit="6"/>
  <path id="Layer0_0_MEMBER_16_MEMBER_5_MEMBER_1_1_STROKES" d="M117.8 53.4v26.2" fill="none" stroke="#000" stroke-width="1" stroke-miterlimit="6"/>
  <path id="Layer0_0_MEMBER_16_MEMBER_5_MEMBER_2_1_STROKES" d="M137.8 53.8v25.8" fill="none" stroke="#000" stroke-width="1" stroke-miterlimit="6"/>
  <path id="Layer0_0_MEMBER_16_MEMBER_5_MEMBER_3_1_STROKES" d="M126.6 79.5h-6.4" fill="none" stroke="#000" stroke-width="1" stroke-miterlimit="6"/>
  <path id="Layer0_0_MEMBER_16_MEMBER_5_MEMBER_4_1_STROKES" d="M126.6 53.7l-6.5.1" fill="none" stroke="#000" stroke-width="1" stroke-miterlimit="6"/>
  <defs>
    <path id="SVGID_13_" d="M149.7 32h19.4v20.1h-19.4z"/>
  </defs>
  <clipPath id="SVGID_14_">
    <use xlink:href="#SVGID_13_" overflow="visible"/>
  </clipPath>
  <path d="M159.8 47.1h-1.6l-3.3-4.2-.5.6v3.6h-1.2V38h1.2v4.2l3.7-4.2h1.5l-3.8 4.1 4 5zm.2-6.2c0-.5.1-.9.2-1.3.2-.4.4-.7.6-1 .3-.3.6-.5.9-.6.4-.2.7-.2 1.1-.2.4 0 .8.1 1.1.2.3.1.6.3.9.6.3.3.6.8.7 1.3.2.5.3 1.2.3 2.1 0 .8-.1 1.5-.3 2.1-.2.7-.4 1.2-.7 1.7-.3.5-.8.8-1.3 1.1-.5.2-1.1.4-1.8.4h-.5c-.2 0-.4-.1-.5-.1V46h.1c.1.1.3.1.5.2s.4.1.7.1c.8 0 1.4-.3 1.9-.8s.7-1.3.8-2.3c-.3.2-.6.4-.9.5-.3.1-.6.2-1 .2-.3 0-.6 0-.9-.1-.3-.1-.6-.2-.8-.4-.3-.2-.6-.6-.7-.9s-.4-1-.4-1.6zm4.7.8c0-.6-.1-1.1-.2-1.5-.1-.4-.3-.7-.5-.9-.2-.2-.4-.3-.5-.4-.2-.1-.4-.1-.6-.1-.5 0-.9.2-1.2.5-.3.4-.4.9-.4 1.6 0 .4 0 .7.1.9s.3.5.5.6c.2.1.3.2.5.3s.4.1.6.1c.3 0 .5 0 .8-.1.3-.1.6-.2.8-.4v-.2c.1-.2.1-.3.1-.4z" clip-path="url(#SVGID_14_)" fill="red"/>
  <defs>
    <path id="SVGID_15_" d="M117.1 56.6h19.4v20.1h-19.4z"/>
  </defs>
  <clipPath id="SVGID_16_">
    <use xlink:href="#SVGID_15_" overflow="visible"/>
  </clipPath>
  <path d="M127.1 71.7h-1.6l-3.3-4.2-.5.6v3.6h-1.2v-9.1h1.2v4.2l3.7-4.2h1.5l-3.8 4.1 4 5zm6-2.9c0 .4-.1.8-.2 1.2s-.3.7-.6 1c-.3.3-.6.5-1 .7s-.8.2-1.3.2c-.4 0-.9 0-1.3-.1s-.8-.2-1.1-.4V70h.1c.1.1.2.1.4.2s.4.2.6.2c.2.1.5.2.7.2.2 0 .4.1.7.1.2 0 .5 0 .7-.1.2-.1.4-.2.6-.4.2-.2.3-.4.3-.6.1-.2.1-.5.1-.8 0-.3 0-.6-.1-.8-.1-.2-.2-.4-.4-.5-.2-.2-.4-.3-.6-.3-.3-.1-.5-.1-.9-.1-.3 0-.7 0-1 .1-.3.1-.6.1-.8.1v-4.7h5v1.1h-3.8v2.4h.8c.5 0 .9 0 1.2.1.3.1.6.2.9.5.3.2.5.5.7.9.2.2.3.6.3 1.2z" clip-path="url(#SVGID_16_)" fill="red"/>
  <defs>
    <path id="SVGID_17_" d="M162.5 81.1h19.4v20.1h-19.4z"/>
  </defs>
  <clipPath id="SVGID_18_">
    <use xlink:href="#SVGID_17_" overflow="visible"/>
  </clipPath>
  <path d="M172.5 96.1H171l-3.3-4.2-.5.6v3.6H166V87h1.2v4.2l3.7-4.2h1.5l-3.8 4.1 3.9 5zm5.7 0h-4.4v-.9h1.6v-6.1h-1.6v-.8c.6 0 1.1-.1 1.4-.3.3-.2.5-.5.5-1h.9v8.2h1.6v.9z" clip-path="url(#SVGID_18_)" fill="red"/>
  <defs>
    <path id="SVGID_19_" d="M183.5 114.1h19.4v20.1h-19.4z"/>
  </defs>
  <clipPath id="SVGID_20_">
    <use xlink:href="#SVGID_19_" overflow="visible"/>
  </clipPath>
  <path d="M193.5 129.2H192l-3.3-4.2-.5.6v3.6H187v-9.1h1.2v4.2l3.7-4.2h1.5l-3.8 4.1 3.9 5zm6.2-7.8l-3.9 7.7h-1.3l4.2-8H194V120h5.8v1.4z" clip-path="url(#SVGID_20_)" fill="red"/>
  <defs>
    <path id="SVGID_21_" d="M118.3 131.5h26.2v20.1h-26.2z"/>
  </defs>
  <clipPath id="SVGID_22_">
    <use xlink:href="#SVGID_21_" overflow="visible"/>
  </clipPath>
  <path d="M128.4 146.5h-1.6l-3.3-4.2-.5.6v3.6h-1.2v-9.1h1.2v4.2l3.7-4.2h1.5l-3.8 4.1 4 5zm6.1 0h-5.6v-1.3l1.1-1.1 1.1-1.1c.7-.8 1.2-1.4 1.4-1.8.3-.5.4-.9.4-1.4 0-.3 0-.5-.1-.7s-.2-.3-.3-.5c-.1-.1-.3-.2-.5-.3-.2-.1-.4-.1-.6-.1-.2 0-.4 0-.7.1-.2.1-.4.1-.6.2-.2.1-.3.2-.5.3-.2.1-.3.2-.4.2h-.1v-1.3c.3-.1.6-.2 1.1-.4s.9-.2 1.3-.2c.8 0 1.5.2 2 .7s.7 1.1.7 1.8c0 .4 0 .7-.1 1-.1.3-.2.6-.3.8-.2.3-.3.5-.5.8-.2.3-.4.5-.7.8l-1.3 1.3c-.5.4-.8.8-1.1 1.1h4.5v1.1zm6.8 0h-5.6v-1.3l1.1-1.1 1.1-1.1c.7-.8 1.2-1.4 1.4-1.8.3-.5.4-.9.4-1.4 0-.3 0-.5-.1-.7s-.2-.3-.3-.5c-.1-.1-.3-.2-.5-.3-.2-.1-.4-.1-.6-.1-.2 0-.4 0-.7.1-.2.1-.4.1-.6.2-.2.1-.3.2-.5.3-.2.1-.3.2-.4.2h-.1v-1.3c.3-.1.6-.2 1.1-.4s.9-.2 1.3-.2c.8 0 1.5.2 2 .7s.7 1.1.7 1.8c0 .4 0 .7-.1 1-.1.3-.2.6-.3.8-.2.3-.3.5-.5.8-.2.3-.4.5-.7.8l-1.3 1.3c-.5.4-.8.8-1.1 1.1h4.5v1.1z" clip-path="url(#SVGID_22_)" fill="red"/>
  <defs>
    <path id="SVGID_23_" d="M199.4 162.2h19.4v20.1h-19.4z"/>
  </defs>
  <clipPath id="SVGID_24_">
    <use xlink:href="#SVGID_23_" overflow="visible"/>
  </clipPath>
  <path d="M209.4 177.2h-1.6l-3.3-4.2-.5.6v3.6h-1.2v-9.1h1.2v4.2l3.7-4.2h1.5l-3.8 4.1 4 5zm3-8.2c-.2 0-.4 0-.7.1-.2.1-.4.1-.6.2-.2.1-.4.2-.5.3s-.3.2-.4.2h-.1v-1.3c.3-.1.6-.3 1.1-.4.5-.1.9-.2 1.3-.2s.8 0 1.1.1c.3.1.6.2.8.4.3.2.5.4.6.7.1.3.2.6.2 1 0 .5-.2.9-.5 1.3s-.7.6-1.2.7v.1c.2 0 .4.1.6.2s.4.2.6.4c.2.2.3.4.5.7s.2.6.2 1-.1.8-.2 1.1c-.1.3-.3.6-.6.9-.3.3-.6.5-1 .6-.4.1-.8.2-1.3.2s-.9-.1-1.4-.2-.8-.2-1.1-.4v-1.3h.1c.3.2.6.4 1 .5s.9.3 1.3.3c.2 0 .5 0 .7-.1.3-.1.5-.2.6-.4.2-.2.3-.4.4-.6.1-.2.1-.5.1-.8 0-.3 0-.6-.1-.8-.1-.2-.2-.4-.4-.5l-.6-.3c-.2 0-.5-.1-.8-.1h-.5v-1h.4c.5 0 1-.1 1.3-.4.3-.3.5-.6.5-1.1 0-.2 0-.4-.1-.6-.1-.2-.2-.3-.3-.4-.2-.1-.3-.2-.5-.2s-.3.1-.5.1z" clip-path="url(#SVGID_24_)" fill="red"/>
  <path d="M286.9 24.2l-13.1-13.4h-9.4v183.7h22.5V24.2z" fill="#fff"/>
  <path id="Layer0_0_MEMBER_23_1_STROKES" d="M273.7 10.7h-9.4v183.7h22.5V24.1l-13.1-13.4z" fill="none" stroke="#797979" stroke-width="1" stroke-miterlimit="6"/>
  <path d="M105.1 150.1c-.2 0-.5.1-.6.3-.2.2-.2.4-.2.6v15.4c0 .2.1.5.2.6.2.2.4.2.6.2h7c.2 0 .5-.1.6-.2.2-.2.2-.4.2-.6V151c0-.2-.1-.5-.2-.6-.2-.2-.4-.3-.6-.3h-7z" fill="#ccc"/>
  <path d="M105.8 144.8c-.2 0-.5.1-.6.2-.2.2-.2.4-.2.6v25.7c0 .2.1.5.2.6.2.2.4.2.6.2h4.9c.2 0 .5-.1.6-.2.2-.2.2-.4.2-.6v-25.7c0-.2-.1-.4-.2-.6-.2-.2-.4-.2-.6-.2h-4.9z" fill="#ccc"/>
  <path id="Layer0_0_MEMBER_24_MEMBER_0_MEMBER_1_1_STROKES" d="M109.7 169.7l-.2-.9-.5-.5" fill="none" stroke="#1a181b" stroke-width=".15" stroke-miterlimit="5"/>
  <path id="Layer0_0_MEMBER_24_MEMBER_0_MEMBER_2_1_STROKES" d="M107.4 168.1l-.2.1-.7.6-.2.9.2.9.2.2" fill="none" stroke="#1a181b" stroke-width=".15" stroke-miterlimit="5"/>
  <path id="Layer0_0_MEMBER_24_MEMBER_0_MEMBER_3_1_STROKES" d="M108.2 171.4l.6-.2.7-.6v-.1l.2-.8" fill="none" stroke="#1a181b" stroke-width=".15" stroke-miterlimit="5"/>
  <path id="Layer0_0_MEMBER_24_MEMBER_0_MEMBER_4_1_STROKES" d="M109.7 146.7l-.2-.9-.5-.6" fill="none" stroke="#1a181b" stroke-width=".15" stroke-miterlimit="5"/>
  <path id="Layer0_0_MEMBER_24_MEMBER_0_MEMBER_5_1_STROKES" d="M107.4 145.1l-.2.1-.7.7-.2.9.2.9.2.2" fill="none" stroke="#1a181b" stroke-width=".15" stroke-miterlimit="5"/>
  <path id="Layer0_0_MEMBER_24_MEMBER_0_MEMBER_6_1_STROKES" d="M108.2 148.4l.6-.2.7-.6v-.1l.2-.7" fill="none" stroke="#1a181b" stroke-width=".15" stroke-miterlimit="5"/>
  <path id="Layer0_0_MEMBER_24_MEMBER_0_MEMBER_7_1_STROKES" d="M109.2 169.7l-.2-.7-.6-.4h-.7l-.6.4-.3.7.3.7.6.4h.7l.6-.4.2-.7z" fill="none" stroke="#1a181b" stroke-width=".15" stroke-miterlimit="5"/>
  <path id="Layer0_0_MEMBER_24_MEMBER_0_MEMBER_8_1_STROKES" d="M107.7 147.9h.7l.6-.4.2-.7-.2-.8-.6-.5h-.7l-.6.5-.3.7.3.7.6.5z" fill="none" stroke="#1a181b" stroke-width=".15" stroke-miterlimit="5"/>
  <path id="Layer0_0_MEMBER_24_MEMBER_0_MEMBER_9_1_STROKES" d="M103.8 148.8h.8" fill="none" stroke="#1a181b" stroke-width=".15" stroke-miterlimit="5"/>
  <path id="Layer0_0_MEMBER_24_MEMBER_0_MEMBER_10_1_STROKES" d="M106.3 148.8h3.4" fill="none" stroke="#1a181b" stroke-width=".15" stroke-miterlimit="5"/>
  <path id="Layer0_0_MEMBER_24_MEMBER_0_MEMBER_11_1_STROKES" d="M111.4 148.8h.8" fill="none" stroke="#1a181b" stroke-width=".15" stroke-miterlimit="5"/>
  <path id="Layer0_0_MEMBER_24_MEMBER_0_MEMBER_12_1_STROKES" d="M103.8 167.6h.8" fill="none" stroke="#1a181b" stroke-width=".15" stroke-miterlimit="5"/>
  <path id="Layer0_0_MEMBER_24_MEMBER_0_MEMBER_13_1_STROKES" d="M106.3 167.6h3.4" fill="none" stroke="#1a181b" stroke-width=".15" stroke-miterlimit="5"/>
  <path id="Layer0_0_MEMBER_24_MEMBER_0_MEMBER_14_1_STROKES" d="M111.4 167.6h.8" fill="none" stroke="#1a181b" stroke-width=".15" stroke-miterlimit="5"/>
  <path id="Layer0_0_MEMBER_24_MEMBER_0_MEMBER_15_1_STROKES" d="M112.2 150v-1.2" fill="none" stroke="#1a181b" stroke-width=".15" stroke-miterlimit="5"/>
  <path id="Layer0_0_MEMBER_24_MEMBER_0_MEMBER_16_1_STROKES" d="M103.8 150v-1.2" fill="none" stroke="#1a181b" stroke-width=".15" stroke-miterlimit="5"/>
  <path id="Layer0_0_MEMBER_24_MEMBER_0_MEMBER_17_1_STROKES" d="M103.8 171.7l.3 1 .7.7 1 .3h4.5l1-.3.7-.7.2-1" fill="none" stroke="#1a181b" stroke-width=".15" stroke-miterlimit="5"/>
  <path id="Layer0_0_MEMBER_24_MEMBER_0_MEMBER_18_1_STROKES" d="M112.2 144.8l-.2-1-.7-.7-1-.2" fill="none" stroke="#1a181b" stroke-width=".15" stroke-miterlimit="5"/>
  <path id="Layer0_0_MEMBER_24_MEMBER_0_MEMBER_19_1_STROKES" d="M105.7 142.9h4.5" fill="none" stroke="#1a181b" stroke-width=".15" stroke-miterlimit="5"/>
  <path id="Layer0_0_MEMBER_24_MEMBER_0_MEMBER_20_1_STROKES" d="M105.7 142.9l-1 .2-.7.7-.3 1" fill="none" stroke="#1a181b" stroke-width=".15" stroke-miterlimit="5"/>
  <path id="Layer0_0_MEMBER_24_MEMBER_0_MEMBER_21_1_STROKES" d="M112.2 167.6v-1.2" fill="none" stroke="#1a181b" stroke-width=".15" stroke-miterlimit="5"/>
  <path id="Layer0_0_MEMBER_24_MEMBER_0_MEMBER_22_1_STROKES" d="M112.2 148.8v-4" fill="none" stroke="#1a181b" stroke-width=".15" stroke-miterlimit="5"/>
  <path id="Layer0_0_MEMBER_24_MEMBER_0_MEMBER_23_1_STROKES" d="M112.2 171.7v-4" fill="none" stroke="#1a181b" stroke-width=".15" stroke-miterlimit="5"/>
  <path id="Layer0_0_MEMBER_24_MEMBER_0_MEMBER_24_1_STROKES" d="M103.8 167.6v-1.2" fill="none" stroke="#1a181b" stroke-width=".15" stroke-miterlimit="5"/>
  <path id="Layer0_0_MEMBER_24_MEMBER_0_MEMBER_25_1_STROKES" d="M103.8 171.7v-4" fill="none" stroke="#1a181b" stroke-width=".15" stroke-miterlimit="5"/>
  <path id="Layer0_0_MEMBER_24_MEMBER_0_MEMBER_26_1_STROKES" d="M103.8 148.8v-4" fill="none" stroke="#1a181b" stroke-width=".15" stroke-miterlimit="5"/>
  <path id="Layer0_0_MEMBER_24_MEMBER_0_MEMBER_27_1_STROKES" d="M104.7 149.6h6.7" fill="none" stroke="#1a181b" stroke-width=".15" stroke-miterlimit="5"/>
  <path id="Layer0_0_MEMBER_24_MEMBER_0_MEMBER_28_1_STROKES" d="M104.7 166.9h6.7" fill="none" stroke="#1a181b" stroke-width=".15" stroke-miterlimit="5"/>
  <path id="Layer0_0_MEMBER_24_MEMBER_0_MEMBER_29_1_STROKES" d="M104.7 171.2l.2.5.5.2" fill="none" stroke="#1a181b" stroke-width=".15" stroke-miterlimit="5"/>
  <path id="Layer0_0_MEMBER_24_MEMBER_0_MEMBER_30_1_STROKES" d="M110.7 171.9l.5-.2.2-.5" fill="none" stroke="#1a181b" stroke-width=".15" stroke-miterlimit="5"/>
  <path id="Layer0_0_MEMBER_24_MEMBER_0_MEMBER_31_1_STROKES" d="M105.3 171.9h5.4" fill="none" stroke="#1a181b" stroke-width=".15" stroke-miterlimit="5"/>
  <path id="Layer0_0_MEMBER_24_MEMBER_0_MEMBER_32_1_STROKES" d="M111.4 171.2v-4.4" fill="none" stroke="#1a181b" stroke-width=".15" stroke-miterlimit="5"/>
  <path id="Layer0_0_MEMBER_24_MEMBER_0_MEMBER_33_1_STROKES" d="M104.7 171.2v-4.4" fill="none" stroke="#1a181b" stroke-width=".15" stroke-miterlimit="5"/>
  <path id="Layer0_0_MEMBER_24_MEMBER_0_MEMBER_34_1_STROKES" d="M104.7 167.4h6.7" fill="none" stroke="#1a181b" stroke-width=".15" stroke-miterlimit="5"/>
  <path id="Layer0_0_MEMBER_24_MEMBER_0_MEMBER_35_1_STROKES" d="M105.3 144.5l-.5.2-.2.5" fill="none" stroke="#1a181b" stroke-width=".15" stroke-miterlimit="5"/>
  <path id="Layer0_0_MEMBER_24_MEMBER_0_MEMBER_36_1_STROKES" d="M111.4 145.2l-.2-.5-.5-.2" fill="none" stroke="#1a181b" stroke-width=".15" stroke-miterlimit="5"/>
  <path id="Layer0_0_MEMBER_24_MEMBER_0_MEMBER_37_1_STROKES" d="M105.3 144.5h5.4" fill="none" stroke="#1a181b" stroke-width=".15" stroke-miterlimit="5"/>
  <path id="Layer0_0_MEMBER_24_MEMBER_0_MEMBER_38_1_STROKES" d="M111.4 149.6v-4.4" fill="none" stroke="#1a181b" stroke-width=".15" stroke-miterlimit="5"/>
  <path id="Layer0_0_MEMBER_24_MEMBER_0_MEMBER_39_1_STROKES" d="M104.7 149.6v-4.4" fill="none" stroke="#1a181b" stroke-width=".15" stroke-miterlimit="5"/>
  <path id="Layer0_0_MEMBER_24_MEMBER_0_MEMBER_40_1_STROKES" d="M104.7 149h6.7" fill="none" stroke="#1a181b" stroke-width=".15" stroke-miterlimit="5"/>
  <path id="Layer0_0_MEMBER_24_MEMBER_0_MEMBER_41_1_STROKES" d="M103.6 165.8v-15.2" fill="none" stroke="#1a181b" stroke-width=".15" stroke-miterlimit="5"/>
  <path id="Layer0_0_MEMBER_24_MEMBER_0_MEMBER_42_1_STROKES" d="M103.8 150.1l-.2.2v.3" fill="none" stroke="#1a181b" stroke-width=".15" stroke-miterlimit="5"/>
  <path id="Layer0_0_MEMBER_24_MEMBER_0_MEMBER_43_1_STROKES" d="M104.7 149.6l-.5.1-.4.4" fill="none" stroke="#1a181b" stroke-width=".15" stroke-miterlimit="5"/>
  <path id="Layer0_0_MEMBER_24_MEMBER_0_MEMBER_44_1_STROKES" d="M112.4 150.6v-.2l-.1-.3-.4-.4-.5-.1" fill="none" stroke="#1a181b" stroke-width=".15" stroke-miterlimit="5"/>
  <path id="Layer0_0_MEMBER_24_MEMBER_0_MEMBER_45_1_STROKES" d="M112.4 165.8v-15.2" fill="none" stroke="#1a181b" stroke-width=".15" stroke-miterlimit="5"/>
  <path id="Layer0_0_MEMBER_24_MEMBER_0_MEMBER_46_1_STROKES" d="M112.2 166.3l.1-.2v-.2" fill="none" stroke="#1a181b" stroke-width=".15" stroke-miterlimit="5"/>
  <path id="Layer0_0_MEMBER_24_MEMBER_0_MEMBER_47_1_STROKES" d="M111.4 166.9l.5-.2.4-.4" fill="none" stroke="#1a181b" stroke-width=".15" stroke-miterlimit="5"/>
  <path id="Layer0_0_MEMBER_24_MEMBER_0_MEMBER_48_1_STROKES" d="M103.6 165.8v.2l.2.2.4.4.5.2" fill="none" stroke="#1a181b" stroke-width=".15" stroke-miterlimit="5"/>
  <path d="M100.1 169.1v-21H65.7v21h34.4z" fill="#fff"/>
  <path id="Layer0_0_MEMBER_24_MEMBER_1_1_STROKES" d="M100.1 169.1H65.7v-21h34.4v21z" fill="none" stroke="#999" stroke-width="2" stroke-linecap="round" stroke-linejoin="round"/>
  <defs>
    <path id="SVGID_25_" d="M69.2 148h27.4v20.9H69.2z"/>
  </defs>
  <clipPath id="SVGID_26_">
    <use xlink:href="#SVGID_25_" overflow="visible"/>
  </clipPath>
  <path d="M80.1 164h-1.8l-3.2-4h-1.5v4h-1.4v-10.2h2.6c.6 0 1.1 0 1.5.1s.8.2 1.1.4c.4.2.6.5.8.9s.3.8.3 1.3c0 .7-.2 1.4-.6 1.9s-.9.9-1.5 1.1l3.7 4.5zm-2.9-7.3c0-.3-.1-.6-.2-.8-.1-.2-.3-.4-.5-.6-.2-.1-.4-.2-.7-.3-.3-.1-.6-.1-1-.1h-1.3v3.8h1.2c.4 0 .7 0 1-.1s.6-.2.8-.4c.2-.2.3-.4.4-.7s.3-.5.3-.8zm9.6 7.3h-5.9v-10.2h1.4v9h4.5v1.2zm6.6 0h-5v-1h1.8v-6.8h-1.8v-.9c.7 0 1.2-.1 1.5-.3.3-.2.5-.6.6-1.1h1.1v9.2h1.8v.9z" clip-path="url(#SVGID_26_)"/>
  <path id="Layer0_0_MEMBER_16_MEMBER_4_MEMBER_2_1_STROKES_1_" d="M138.2 129.3v6.8" fill="none" stroke="#000" stroke-width="1" stroke-miterlimit="6"/>
</svg>
