<?xml version="1.0" encoding="utf-8"?>
<!-- Generator: Adobe Illustrator 25.0.1, SVG Export Plug-In . SVG Version: 6.00 Build 0)  -->
<svg version="1.1" id="Ebene_1" xmlns="http://www.w3.org/2000/svg" xmlns:xlink="http://www.w3.org/1999/xlink" x="0px" y="0px"
	 viewBox="0 0 869 324" style="enable-background:new 0 0 869 324;" xml:space="preserve">
<path id="btn_k26_0_Layer1_0_MEMBER_0_1_STROKES_2_" style="fill:#999999;" d="M215.7,136.2h-5.4v6.5h-9.6v-6.5h-16.8v-7.5
	l-10.2,0.1l-0.1-23.2h10.3v-7.7h16.8V91h9.6v6.8h5.4V136.2z"/>
<path id="btn_k6_0_Layer1_0_MEMBER_0_1_STROKES_5_" style="fill:#999999;" d="M606.6,219l5.4,0l0-6.5l9.6-0.1l-0.1,6.5l16.8-0.1
	l0,7.5l10.2-0.2l0.1,23.3l-10.2,0.1l0,7.5l-16.8,0.2l0,6.7l-9.5,0.1l0-6.8l-5.4,0L606.6,219z"/>
<path id="btn_k21_0_Layer1_0_MEMBER_0_1_STROKES_2_" style="fill:#999999;" d="M265.3,154.4h-5.5v6.5h-9.6v-6.5h-16.8V147h-10.2
	v-23.3h10.2v-7.6h16.8v-6.8h9.7v6.8h5.5V154.4z"/>
<path id="btn_k2_0_Layer1_0_MEMBER_0_1_STROKES_14_" style="fill:#999999;" d="M658.2,65.6h23.2v10.3h7.7v16.8h6.8v9.6h-6.8v5.5
	h-38.3v-5.6h-6.5v-9.5h6.5V75.9h7.5L658.2,65.6z"/>
<path style="fill:#999999;" d="M131.1,195.6v16.8h-6.5v9.5h6.5v5.4h38.4l-0.1-5.4h6.8v-9.5h-6.7v-16.8h-7.7v-10.3h-23.3v10.3H131.1z
	"/>
<path id="btn_k2_0_Layer1_0_MEMBER_0_1_STROKES_13_" style="fill:#999999;" d="M708.6,186.2h23.2v10.3h7.7v16.8h6.8v9.6h-6.8v5.5
	h-38.3v-5.6h-6.5v-9.5h6.5v-16.8h7.5L708.6,186.2z"/>
<path id="btn_k6_0_Layer1_0_MEMBER_0_1_STROKES_4_" style="fill:#999999;" d="M264.2,226.5h-5.5v6.5h-9.6l0.1-6.5h-16.9V219
	l-10.2,0.1v-23.4h10.2v-7.5l16.9-0.1v-6.8h9.5v6.9h5.5V226.5z"/>
<path id="btn_k5_0_Layer1_0_1_STROKES_2_" style="fill:#999999;" d="M607.9,106.6h3.4v-6.8h9.6v6.8h16.8v7.7H648v23.3h-10.3v7.5h0
	h-16.8v6.5l-9.5-0.1V145h-5.5v-38.4L607.9,106.6v-0.5 M637.7,145v-7.5h0"/>
<path id="btn_k4_0_Layer1_0_MEMBER_0_1_STROKES_2_" style="fill:#999999;" d="M139.7,254.9v10.3h7.7V282h6.7v9.6h-6.7v5.4H109v-5.4
	h-6.5V282h6.5v-16.8h7.4V255L139.7,254.9z"/>
<path id="btn_k2_0_Layer1_0_MEMBER_0_1_STROKES_12_" style="fill:#999999;" d="M731.6,256.6h23.2v10.3h7.7v16.8h6.8v9.6h-6.8v5.5
	h-38.3v-5.6h-6.5v-9.5h6.5v-16.8h7.5L731.6,256.6z"/>
<path id="btn_k2_0_Layer1_0_MEMBER_0_1_STROKES_11_" style="fill:#999999;" d="M171.4,138.9h23.2v10.3h7.7V166h6.8v9.6h-6.8v5.5H164
	v-5.6h-6.5V166h6.5v-16.8h7.5L171.4,138.9z"/>
<path id="btn_k2_0_Layer1_0_MEMBER_0_1_STROKES_10_" style="fill:#999999;" d="M677.2,136.6h23.2v10.3h7.7v16.8h6.8v9.6h-6.8v5.5
	h-38.3v-5.6h-6.5v-9.5h6.5v-16.8h7.5L677.2,136.6z"/>
<path style="fill:#999999;" d="M267.8,244.6c0-1-0.5-1.5-1.5-1.5v-7h-10.7v7h-0.2c-1,0-1.5,0.5-1.5,1.5v23.5c0,1,0.5,1.5,1.5,1.5
	h0.2v7.8h10.7v-7.8c1,0,1.5-0.5,1.5-1.5V244.6z"/>
<path style="fill:#999999;" d="M284.8,244.6c0-1-0.5-1.5-1.5-1.5v-7h-10.8v7h-0.2c-1,0-1.5,0.5-1.5,1.5v23.5c0,1,0.5,1.5,1.5,1.5
	h0.2v7.8h10.8v-7.8c1,0,1.5-0.5,1.5-1.5V244.6z"/>
<path style="fill:#999999;" d="M601.6,245.7c0-1-0.5-1.5-1.5-1.5v-7h-10.8v7h-0.2c-1,0-1.5,0.5-1.5,1.5v23.5c0,1,0.5,1.5,1.5,1.5
	h0.2v7.8h10.8v-7.8c1,0,1.5-0.5,1.5-1.5V245.7z"/>
<path id="Layer16_2_MEMBER_0_MEMBER_0_MEMBER_0_1_STROKES" style="fill:none;stroke:#C0C0C0;stroke-width:0.55;stroke-miterlimit:5.9999;" d="
	M805.5,143.6h-30c-1.1,0-1.6,0.5-1.6,1.5v48c0,0.4,0.2,0.8,0.5,1.1c0.3,0.3,0.7,0.5,1.1,0.5h30c0.4,0,0.8-0.2,1.1-0.5
	c0.3-0.3,0.5-0.7,0.5-1.1v-48c0-0.4-0.2-0.8-0.5-1C806.4,143.8,806,143.6,805.5,143.6z"/>
<path id="Layer16_2_MEMBER_0_MEMBER_0_MEMBER_1_1_STROKES" style="fill:none;stroke:#C0C0C0;stroke-width:0.55;stroke-miterlimit:5.9999;" d="
	M782,143.9v51.3h16.7v-51.3H782z"/>
<path id="Layer16_2_MEMBER_0_MEMBER_0_MEMBER_2_1_STROKES" style="fill:none;stroke:#C0C0C0;stroke-width:0.55;stroke-miterlimit:5.9999;" d="
	M787.7,161.6c0.8,0.8,1.8,1.2,2.9,1.2c1.1,0,2-0.4,2.8-1.2s1.2-1.7,1.2-2.8c0-1.1-0.4-2.1-1.2-2.9c-0.8-0.8-1.7-1.2-2.8-1.2
	c-1.1,0-2.1,0.4-2.9,1.2c-0.8,0.8-1.2,1.8-1.2,2.9C786.5,159.8,786.9,160.8,787.7,161.6z"/>
<path id="Layer16_2_MEMBER_0_MEMBER_0_MEMBER_3_1_STROKES" style="fill:none;stroke:#C0C0C0;stroke-width:0.55;stroke-miterlimit:5.9999;" d="
	M790.5,183.5c1.1,0,2.1-0.4,2.9-1.1c0.8-0.8,1.2-1.8,1.2-2.9s-0.4-2.1-1.2-2.8c-0.8-0.8-1.8-1.2-2.9-1.2c-1.1,0-2,0.4-2.8,1.2
	c-0.8,0.7-1.2,1.7-1.2,2.8s0.4,2.1,1.2,2.9C788.5,183.2,789.4,183.5,790.5,183.5z"/>
<path id="Layer16_2_MEMBER_0_MEMBER_1_MEMBER_0_1_STROKES" style="fill:none;stroke:#C0C0C0;stroke-width:0.55;stroke-miterlimit:5.9999;" d="
	M683.3,267h-29.1v43.3h29.1V267z"/>
<path id="Layer16_2_MEMBER_0_MEMBER_1_MEMBER_1_1_STROKES" style="fill:none;stroke:#C0C0C0;stroke-width:0.55;stroke-miterlimit:5.9999;" d="
	M683.5,279.7H655v18.4h28.6V279.7z"/>
<path id="Layer16_2_MEMBER_0_MEMBER_1_MEMBER_2_1_STROKES" style="fill:none;stroke:#C0C0C0;stroke-width:0.55;stroke-miterlimit:5.9999;" d="
	M677.1,291.9c0.9,0,1.6-0.3,2.1-0.8c0.6-0.6,0.9-1.3,0.9-2.1c0-0.8-0.3-1.5-0.9-2.1c-0.6-0.6-1.3-0.8-2.1-0.8
	c-0.8,0-1.5,0.3-2.1,0.8c-0.6,0.6-0.9,1.3-0.9,2.1c0,0.8,0.3,1.5,0.9,2.1C675.6,291.6,676.3,291.9,677.1,291.9z"/>
<path id="Layer16_2_MEMBER_0_MEMBER_1_MEMBER_3_1_STROKES" style="fill:none;stroke:#C0C0C0;stroke-width:0.55;stroke-miterlimit:5.9999;" d="
	M661.4,291.9c0.8,0,1.5-0.3,2.1-0.8c0.6-0.6,0.9-1.3,0.9-2.1c0-0.8-0.3-1.5-0.9-2.1c-0.6-0.6-1.2-0.8-2.1-0.8
	c-0.8,0-1.5,0.3-2.1,0.8c-0.6,0.6-0.8,1.3-0.8,2.1c0,0.9,0.3,1.6,0.8,2.1C659.9,291.6,660.6,291.9,661.4,291.9z"/>
<path id="Layer16_2_MEMBER_0_MEMBER_2_MEMBER_0_1_STROKES_2_" style="fill:none;stroke:#C0C0C0;stroke-width:0.55;stroke-miterlimit:5.9999;" d="
	M606.5,255.1H596v29.1h43.4v-29.1"/>
<path id="Layer16_2_MEMBER_0_MEMBER_2_MEMBER_1_1_STROKES" style="fill:none;stroke:#C0C0C0;stroke-width:0.55;stroke-miterlimit:5.9999;" d="
	M626.7,284.5v-27l-5.2,0v6h-9v-6l-4.2,0v27H626.7z"/>
<path id="Layer16_2_MEMBER_0_MEMBER_2_MEMBER_2_1_STROKES" style="fill:none;stroke:#C0C0C0;stroke-width:0.55;stroke-miterlimit:5.9999;" d="
	M620.6,278.1c0-0.8-0.3-1.5-0.9-2.1c-0.6-0.6-1.2-0.9-2.1-0.9c-0.8,0-1.5,0.3-2.1,0.9c-0.6,0.6-0.9,1.2-0.9,2.1
	c0,0.8,0.3,1.5,0.9,2.1c0.6,0.6,1.3,0.8,2.1,0.8c0.8,0,1.5-0.3,2.1-0.8C620.3,279.6,620.6,278.9,620.6,278.1z"/>
<path id="Layer16_2_MEMBER_0_MEMBER_3_MEMBER_0_1_STROKES" style="fill:none;stroke:#C0C0C0;stroke-width:0.55;stroke-miterlimit:5.9999;" d="
	M720.6,148.1V186l11.9,0.5l-0.3,5.3h4.7v-43.7H720.6z"/>
<path id="Layer16_2_MEMBER_0_MEMBER_3_MEMBER_1_1_STROKES" style="fill:none;stroke:#C0C0C0;stroke-width:0.55;stroke-miterlimit:5.9999;" d="
	M728.8,157.7c0.9,0,1.7-0.3,2.4-0.9c0.6-0.7,0.9-1.5,0.9-2.4c0-0.9-0.3-1.7-0.9-2.3c-0.7-0.7-1.5-1-2.4-1c-0.9,0-1.7,0.3-2.3,1
	c-0.7,0.6-1,1.4-1,2.3c0,0.9,0.3,1.7,1,2.4C727.1,157.4,727.9,157.7,728.8,157.7z"/>
<path id="Layer16_2_MEMBER_0_MEMBER_3_MEMBER_2_1_STROKES" style="fill:none;stroke:#C0C0C0;stroke-width:0.55;stroke-miterlimit:5.9999;" d="
	M721.1,158.3h15.5v-7.9h-15.5V158.3z"/>
<path id="Layer16_2_MEMBER_0_MEMBER_3_MEMBER_3_1_STROKES_1_" style="fill:none;stroke:#C0C0C0;stroke-width:0.55;stroke-miterlimit:5.9999;" d="
	M731.9,189.5h4.9v-7.9h-15.6v4.4"/>
<path id="Layer16_2_MEMBER_0_MEMBER_3_MEMBER_4_1_STROKES_2_" style="fill:none;stroke:#C0C0C0;stroke-width:0.55;stroke-miterlimit:5.9999;" d="
	M730.1,188.7"/>
<path id="Layer16_2_MEMBER_0_MEMBER_3_MEMBER_4_1_STROKES_3_" style="fill:none;stroke:#C0C0C0;stroke-width:0.55;stroke-miterlimit:5.9999;" d="
	M732.4,185.5c0-0.9-0.3-1.7-1-2.3c-0.7-0.7-1.5-1-2.3-1c-0.9,0-1.7,0.3-2.3,1c-0.7,0.7-1,1.5-1,2.3"/>
<path id="Layer16_2_MEMBER_0_MEMBER_3_MEMBER_5_1_STROKES" style="fill:none;stroke:#C0C0C0;stroke-width:0.55;stroke-miterlimit:5.9999;" d="
	M728.8,157.7c0.9,0,1.7-0.3,2.4-0.9c0.6-0.7,0.9-1.5,0.9-2.4c0-0.9-0.3-1.7-0.9-2.3c-0.7-0.7-1.5-1-2.4-1c-0.9,0-1.7,0.3-2.3,1
	c-0.7,0.6-1,1.4-1,2.3c0,0.9,0.3,1.7,1,2.4C727.1,157.3,727.9,157.7,728.8,157.7z"/>
<path id="Layer16_2_MEMBER_0_MEMBER_4_MEMBER_0_1_STROKES" style="fill:none;stroke:#C0C0C0;stroke-width:0.55;stroke-miterlimit:5.9999;" d="
	M704.7,119.5H721V75.8h-16.3V119.5z"/>
<path id="Layer16_2_MEMBER_0_MEMBER_4_MEMBER_1_1_STROKES" style="fill:none;stroke:#C0C0C0;stroke-width:0.55;stroke-miterlimit:5.9999;" d="
	M713.1,85.5c0.9,0,1.7-0.3,2.3-1c0.7-0.7,1-1.5,1-2.3c0-0.9-0.3-1.7-1-2.3c-0.7-0.7-1.5-1-2.3-1c-0.9,0-1.7,0.3-2.3,1
	c-0.7,0.6-1,1.4-1,2.3c0,0.9,0.3,1.7,1,2.3C711.3,85.2,712.1,85.5,713.1,85.5z"/>
<path id="Layer16_2_MEMBER_0_MEMBER_4_MEMBER_2_1_STROKES" style="fill:none;stroke:#C0C0C0;stroke-width:0.55;stroke-miterlimit:5.9999;" d="
	M705.2,86h15.6v-7.9h-15.6V86z"/>
<path id="Layer16_2_MEMBER_0_MEMBER_4_MEMBER_3_1_STROKES" style="fill:none;stroke:#C0C0C0;stroke-width:0.55;stroke-miterlimit:5.9999;" d="
	M705.3,117.2h15.6v-7.9h-15.6V117.2z"/>
<path id="Layer16_2_MEMBER_0_MEMBER_4_MEMBER_4_1_STROKES" style="fill:none;stroke:#C0C0C0;stroke-width:0.55;stroke-miterlimit:5.9999;" d="
	M713.2,116.6c0.9,0,1.7-0.3,2.4-0.9c0.6-0.7,0.9-1.5,0.9-2.4s-0.3-1.7-0.9-2.3c-0.7-0.7-1.5-1-2.4-1c-0.9,0-1.7,0.3-2.3,1
	c-0.7,0.6-1,1.4-1,2.3s0.3,1.7,1,2.4C711.4,116.3,712.2,116.6,713.2,116.6z"/>
<path id="Layer16_2_MEMBER_0_MEMBER_4_MEMBER_5_1_STROKES" style="fill:none;stroke:#C0C0C0;stroke-width:0.55;stroke-miterlimit:5.9999;" d="
	M713,85.4c0.9,0,1.7-0.3,2.4-1c0.6-0.7,0.9-1.5,0.9-2.3c0-0.9-0.3-1.7-0.9-2.3c-0.7-0.7-1.5-1-2.4-1c-0.9,0-1.7,0.3-2.3,1
	c-0.7,0.6-1,1.4-1,2.3c0,0.9,0.3,1.7,1,2.3C711.3,85.1,712,85.4,713,85.4z"/>
<path id="Layer16_2_MEMBER_0_MEMBER_5_MEMBER_0_1_STROKES" style="fill:none;stroke:#C0C0C0;stroke-width:0.55;stroke-miterlimit:5.9999;" d="
	M775.1,310.3h16.3v-43.7h-16.3V310.3z"/>
<path id="Layer16_2_MEMBER_0_MEMBER_5_MEMBER_1_1_STROKES" style="fill:none;stroke:#C0C0C0;stroke-width:0.55;stroke-miterlimit:5.9999;" d="
	M783.3,276.2c0.9,0,1.7-0.3,2.4-0.9c0.6-0.7,0.9-1.5,0.9-2.4c0-0.9-0.3-1.7-0.9-2.3c-0.7-0.7-1.5-1-2.4-1s-1.7,0.3-2.3,1
	c-0.7,0.7-1,1.5-1,2.3c0,0.9,0.3,1.7,1,2.4C781.6,275.9,782.4,276.2,783.3,276.2z"/>
<path id="Layer16_2_MEMBER_0_MEMBER_5_MEMBER_2_1_STROKES" style="fill:none;stroke:#C0C0C0;stroke-width:0.55;stroke-miterlimit:5.9999;" d="
	M775.6,276.8h15.5v-7.9h-15.5V276.8z"/>
<path id="Layer16_2_MEMBER_0_MEMBER_5_MEMBER_3_1_STROKES" style="fill:none;stroke:#C0C0C0;stroke-width:0.55;stroke-miterlimit:5.9999;" d="
	M775.6,308h15.6V300h-15.6V308z"/>
<path id="Layer16_2_MEMBER_0_MEMBER_5_MEMBER_4_1_STROKES" style="fill:none;stroke:#C0C0C0;stroke-width:0.55;stroke-miterlimit:5.9999;" d="
	M783.4,307.4c0.9,0,1.7-0.3,2.4-1c0.6-0.7,0.9-1.5,0.9-2.3c0-0.9-0.3-1.7-0.9-2.3c-0.7-0.7-1.5-1-2.4-1c-0.9,0-1.7,0.3-2.3,1
	c-0.7,0.6-1,1.4-1,2.3c0,0.9,0.3,1.7,1,2.3C781.8,307.1,782.5,307.4,783.4,307.4z"/>
<path id="Layer16_2_MEMBER_0_MEMBER_5_MEMBER_5_1_STROKES" style="fill:none;stroke:#C0C0C0;stroke-width:0.55;stroke-miterlimit:5.9999;" d="
	M783.3,276.1c0.9,0,1.7-0.3,2.4-0.9c0.6-0.7,0.9-1.5,0.9-2.4c0-0.9-0.3-1.7-0.9-2.3c-0.7-0.7-1.5-1-2.4-1c-0.9,0-1.7,0.3-2.3,1
	c-0.7,0.7-1,1.5-1,2.3c0,0.9,0.3,1.7,1,2.4C781.6,275.8,782.4,276.1,783.3,276.1z"/>
<path id="Layer16_2_MEMBER_0_MEMBER_7_MEMBER_0_1_STROKES" style="fill:none;stroke:#C0C0C0;stroke-width:0.55;stroke-miterlimit:5.9999;" d="
	M677.7,197.3h-16.3V241h16.3V197.3z"/>
<path id="Layer16_2_MEMBER_0_MEMBER_7_MEMBER_1_1_STROKES" style="fill:none;stroke:#C0C0C0;stroke-width:0.55;stroke-miterlimit:5.9999;" d="
	M669.6,200.2c-0.9,0-1.7,0.3-2.3,1c-0.7,0.6-1,1.4-1,2.3c0,0.9,0.3,1.7,1,2.4c0.7,0.6,1.5,0.9,2.3,0.9c0.9,0,1.7-0.3,2.4-0.9
	c0.6-0.7,0.9-1.5,0.9-2.4c0-0.9-0.3-1.7-0.9-2.3C671.4,200.5,670.6,200.2,669.6,200.2z"/>
<path id="Layer16_2_MEMBER_0_MEMBER_7_MEMBER_2_1_STROKES" style="fill:none;stroke:#C0C0C0;stroke-width:0.55;stroke-miterlimit:5.9999;" d="
	M677.5,199.5h-15.6v7.9h15.6V199.5z"/>
<path id="Layer16_2_MEMBER_0_MEMBER_7_MEMBER_3_1_STROKES" style="fill:none;stroke:#C0C0C0;stroke-width:0.55;stroke-miterlimit:5.9999;" d="
	M677.6,230.7H662v7.9h15.6V230.7z"/>
<path id="Layer16_2_MEMBER_0_MEMBER_7_MEMBER_4_1_STROKES" style="fill:none;stroke:#C0C0C0;stroke-width:0.55;stroke-miterlimit:5.9999;" d="
	M669.8,231.4c-0.9,0-1.7,0.3-2.3,1c-0.7,0.6-1,1.4-1,2.3c0,0.9,0.3,1.7,1,2.3c0.6,0.7,1.4,1,2.3,1c0.9,0,1.7-0.3,2.3-1
	c0.7-0.7,1-1.5,1-2.3c0-0.9-0.3-1.7-1-2.3C671.5,231.7,670.7,231.4,669.8,231.4z"/>
<path id="Layer16_2_MEMBER_0_MEMBER_7_MEMBER_5_1_STROKES" style="fill:none;stroke:#C0C0C0;stroke-width:0.55;stroke-miterlimit:5.9999;" d="
	M669.6,200.1c-0.9,0-1.7,0.3-2.3,1c-0.7,0.6-1,1.4-1,2.3c0,0.9,0.3,1.7,1,2.4c0.6,0.6,1.4,0.9,2.3,0.9c0.9,0,1.7-0.3,2.4-0.9
	c0.6-0.7,0.9-1.5,0.9-2.4c0-0.9-0.3-1.7-0.9-2.3C671.4,200.4,670.6,200.1,669.6,200.1z"/>
<path style="fill:#FFFFFF;" d="M98.3,69.6c-0.4,0-0.8,0.2-1.1,0.5c-0.3,0.3-0.5,0.7-0.5,1.1v48c0,1.1,0.5,1.6,1.6,1.6h30
	c0.4,0,0.8-0.2,1.1-0.5c0.3-0.3,0.5-0.7,0.5-1.1v-48c0-0.4-0.2-0.8-0.5-1.1c-0.3-0.3-0.7-0.5-1.1-0.5H98.3z"/>
<path id="Layer16_2_MEMBER_1_MEMBER_0_MEMBER_0_1_STROKES" style="fill:none;stroke:#000000;stroke-width:0.55;stroke-miterlimit:5.9999;" d="
	M98.3,69.6h30c0.4,0,0.8,0.2,1.1,0.5c0.3,0.3,0.5,0.7,0.5,1.1v48c0,0.4-0.2,0.8-0.5,1.1c-0.3,0.3-0.7,0.5-1.1,0.5h-30
	c-1.1,0-1.6-0.5-1.6-1.6v-48c0-0.4,0.2-0.8,0.5-1.1C97.5,69.7,97.8,69.6,98.3,69.6z"/>
<path style="fill:#FFFFFF;" d="M121.8,70h-16.7v51.2h16.7V70z"/>
<path id="Layer16_2_MEMBER_1_MEMBER_0_MEMBER_1_1_STROKES" style="fill:none;stroke:#000000;stroke-width:0.55;stroke-miterlimit:5.9999;" d="
	M105.1,69.9v51.2h16.7V69.9H105.1z"/>
<path style="fill:#FFFFFF;" d="M110.4,87.6c0.7,0.8,1.7,1.2,2.8,1.2c1.1,0,2.1-0.4,2.9-1.2c0.7-0.8,1.1-1.8,1.1-2.9
	c0-1.1-0.4-2-1.1-2.8c-0.8-0.8-1.8-1.2-2.9-1.2c-1.1,0-2.1,0.4-2.8,1.2c-0.8,0.8-1.2,1.7-1.2,2.8C109.2,85.8,109.6,86.8,110.4,87.6z
	"/>
<path id="Layer16_2_MEMBER_1_MEMBER_0_MEMBER_2_1_STROKES" style="fill:none;stroke:#000000;stroke-width:0.55;stroke-miterlimit:5.9999;" d="
	M113.2,88.8c1.1,0,2.1-0.4,2.9-1.2c0.7-0.8,1.1-1.8,1.1-2.9c0-1.1-0.4-2-1.1-2.8c-0.8-0.8-1.8-1.2-2.9-1.2c-1.1,0-2.1,0.4-2.8,1.2
	c-0.8,0.8-1.2,1.7-1.2,2.8c0,1.1,0.4,2.1,1.2,2.9C111.2,88.4,112.1,88.8,113.2,88.8z"/>
<path style="fill:#FFFFFF;" d="M110.4,108.4c0.8,0.7,1.7,1.1,2.8,1.1c1.1,0,2.1-0.4,2.9-1.1c0.8-0.8,1.2-1.8,1.2-2.9
	c0-1.1-0.4-2.1-1.2-2.8c-0.8-0.8-1.8-1.2-2.9-1.2c-1.1,0-2,0.4-2.8,1.2c-0.8,0.7-1.2,1.7-1.2,2.8
	C109.2,106.7,109.6,107.6,110.4,108.4z"/>
<path id="Layer16_2_MEMBER_1_MEMBER_0_MEMBER_3_1_STROKES" style="fill:none;stroke:#000000;stroke-width:0.55;stroke-miterlimit:5.9999;" d="
	M113.2,109.5c1.1,0,2.1-0.4,2.9-1.1c0.8-0.8,1.2-1.8,1.2-2.9c0-1.1-0.4-2.1-1.2-2.8c-0.8-0.8-1.8-1.2-2.9-1.2c-1.1,0-2,0.4-2.8,1.2
	c-0.8,0.7-1.2,1.7-1.2,2.8c0,1.1,0.4,2.1,1.2,2.9C111.2,109.2,112.2,109.5,113.2,109.5z"/>
<path style="fill:#FFFFFF;" d="M66.4,141.1c-0.4,0-0.8,0.2-1,0.5c-0.3,0.3-0.5,0.7-0.5,1.1v48c0,1,0.5,1.5,1.5,1.5h30.1
	c1.1,0,1.6-0.5,1.6-1.5v-48c0-0.4-0.2-0.8-0.5-1.1c-0.3-0.3-0.7-0.5-1.1-0.5H66.4z"/>
<path id="Layer16_2_MEMBER_1_MEMBER_1_MEMBER_0_1_STROKES" style="fill:none;stroke:#000000;stroke-width:0.55;stroke-miterlimit:5.9999;" d="
	M66.4,141.1h30.1c0.4,0,0.8,0.2,1.1,0.5c0.3,0.3,0.5,0.7,0.5,1.1v48c0,1-0.5,1.5-1.6,1.5H66.4c-1,0-1.5-0.5-1.5-1.5v-48
	c0-0.4,0.2-0.8,0.5-1.1C65.6,141.3,66,141.1,66.4,141.1z"/>
<path style="fill:#FFFFFF;" d="M90,141.5H73.3v51.2H90V141.5z"/>
<path id="Layer16_2_MEMBER_1_MEMBER_1_MEMBER_1_1_STROKES" style="fill:none;stroke:#000000;stroke-width:0.55;stroke-miterlimit:5.9999;" d="
	M73.3,141.5v51.2H90v-51.2H73.3z"/>
<path style="fill:#FFFFFF;" d="M78.6,159.2c0.7,0.7,1.7,1.1,2.8,1.1c1.1,0,2.1-0.4,2.9-1.1c0.7-0.8,1.1-1.8,1.1-2.9
	c0-1.1-0.4-2.1-1.1-2.8c-0.8-0.8-1.8-1.2-2.9-1.2c-1.1,0-2.1,0.4-2.8,1.2c-0.8,0.7-1.2,1.7-1.2,2.8
	C77.4,157.4,77.8,158.4,78.6,159.2z"/>
<path id="Layer16_2_MEMBER_1_MEMBER_1_MEMBER_2_1_STROKES" style="fill:none;stroke:#000000;stroke-width:0.55;stroke-miterlimit:5.9999;" d="
	M81.5,160.3c1.1,0,2.1-0.4,2.9-1.1c0.7-0.8,1.1-1.8,1.1-2.9c0-1.1-0.4-2.1-1.1-2.8c-0.8-0.8-1.8-1.2-2.9-1.2c-1.1,0-2.1,0.4-2.8,1.2
	c-0.8,0.7-1.2,1.7-1.2,2.8c0,1.1,0.4,2.1,1.2,2.9C79.4,159.9,80.3,160.3,81.5,160.3z"/>
<path style="fill:#FFFFFF;" d="M78.6,180c0.7,0.7,1.7,1.1,2.8,1.1c1.1,0,2.1-0.4,2.9-1.1c0.7-0.8,1.1-1.8,1.1-2.9
	c0-1.1-0.4-2.1-1.1-2.8c-0.8-0.8-1.8-1.2-2.9-1.2c-1.1,0-2.1,0.4-2.8,1.2c-0.8,0.7-1.2,1.7-1.2,2.8C77.4,178.2,77.8,179.2,78.6,180z
	"/>
<path id="Layer16_2_MEMBER_1_MEMBER_1_MEMBER_3_1_STROKES" style="fill:none;stroke:#000000;stroke-width:0.55;stroke-miterlimit:5.9999;" d="
	M81.5,181.1c1.1,0,2.1-0.4,2.9-1.1c0.7-0.8,1.1-1.8,1.1-2.9c0-1.1-0.4-2.1-1.1-2.8c-0.8-0.8-1.8-1.2-2.9-1.2c-1.1,0-2.1,0.4-2.8,1.2
	c-0.8,0.7-1.2,1.7-1.2,2.8c0,1.1,0.4,2.1,1.2,2.9C79.4,180.7,80.3,181.1,81.5,181.1z"/>
<path style="fill:#FFFFFF;" d="M188.2,264.1v43.3h29.1v-43.3H188.2z"/>
<path id="Layer16_2_MEMBER_1_MEMBER_2_MEMBER_0_1_STROKES" style="fill:none;stroke:#000000;stroke-width:0.55;stroke-miterlimit:5.9999;" d="
	M188.2,307.4h29.1v-43.3h-29.1V307.4z"/>
<path style="fill:#FFFFFF;" d="M187.9,276.8v18.3h28.6v-18.3H187.9z"/>
<path id="Layer16_2_MEMBER_1_MEMBER_2_MEMBER_1_1_STROKES" style="fill:none;stroke:#000000;stroke-width:0.55;stroke-miterlimit:5.9999;" d="
	M188,295.1h28.6v-18.3H188V295.1z"/>
<path style="fill:#FFFFFF;" d="M192.2,288.1c0.6,0.6,1.2,0.8,2.1,0.8c0.9,0,1.6-0.3,2.1-0.8c0.6-0.6,0.9-1.3,0.9-2.1
	c0-0.8-0.3-1.5-0.9-2.1c-0.6-0.6-1.3-0.8-2.1-0.8c-0.8,0-1.5,0.3-2.1,0.8c-0.6,0.6-0.9,1.3-0.9,2.1
	C191.3,286.8,191.6,287.5,192.2,288.1z"/>
<path id="Layer16_2_MEMBER_1_MEMBER_2_MEMBER_2_1_STROKES" style="fill:none;stroke:#000000;stroke-width:0.55;stroke-miterlimit:5.9999;" d="
	M194.3,288.9c0.9,0,1.6-0.3,2.1-0.8c0.6-0.6,0.9-1.3,0.9-2.1s-0.3-1.5-0.9-2.1c-0.6-0.6-1.3-0.8-2.1-0.8c-0.8,0-1.5,0.3-2.1,0.8
	c-0.6,0.6-0.9,1.3-0.9,2.1s0.3,1.5,0.9,2.1C192.8,288.6,193.5,288.9,194.3,288.9z"/>
<path style="fill:#FFFFFF;" d="M208,288.1c0.6,0.6,1.2,0.8,2.1,0.8c0.9,0,1.6-0.3,2.1-0.8c0.6-0.6,0.8-1.3,0.8-2.1
	c0-0.8-0.3-1.5-0.8-2.1c-0.6-0.6-1.3-0.8-2.1-0.8c-0.8,0-1.5,0.3-2.1,0.8c-0.6,0.6-0.9,1.3-0.9,2.1
	C207.1,286.8,207.4,287.5,208,288.1z"/>
<path id="Layer16_2_MEMBER_1_MEMBER_2_MEMBER_3_1_STROKES" style="fill:none;stroke:#000000;stroke-width:0.55;stroke-miterlimit:5.9999;" d="
	M210.1,288.9c0.9,0,1.6-0.3,2.1-0.8c0.6-0.6,0.8-1.3,0.8-2.1c0-0.8-0.3-1.5-0.8-2.1c-0.6-0.6-1.3-0.8-2.1-0.8
	c-0.8,0-1.5,0.3-2.1,0.8c-0.6,0.6-0.9,1.3-0.9,2.1s0.3,1.5,0.9,2.1C208.6,288.6,209.3,288.9,210.1,288.9z"/>
<path id="Layer16_2_MEMBER_1_MEMBER_4_MEMBER_0_1_STROKES_2_" style="fill:none;stroke:#000000;stroke-width:0.55;stroke-miterlimit:5.9999;" d="
	M232.8,117.9h-3.6V88.7h43.3v29.1h-7.9"/>
<path id="Layer16_2_MEMBER_1_MEMBER_4_MEMBER_1_1_STROKES_2_" style="fill:none;stroke:#000000;stroke-width:0.55;stroke-miterlimit:5.9999;" d="
	M249.8,116.2h-7.9V89.6h18.4v26.6"/>
<path id="Layer16_2_MEMBER_1_MEMBER_4_MEMBER_2_1_STROKES_2_" style="fill:none;stroke:#000000;stroke-width:0.55;stroke-miterlimit:5.9999;" d="
	M249,113.9c-0.6-0.6-0.8-1.3-0.8-2.1c0-0.8,0.3-1.5,0.8-2.1c0.6-0.6,1.3-0.8,2.1-0.8c0.8,0,1.5,0.3,2.1,0.8"/>
<path style="fill:#FFFFFF;" d="M248.1,96c0,0.9,0.3,1.6,0.8,2.1c0.6,0.6,1.3,0.8,2.1,0.8c0.8,0,1.5-0.3,2.1-0.8
	c0.6-0.6,0.9-1.3,0.9-2.1s-0.3-1.5-0.9-2.1c-0.6-0.6-1.2-0.8-2.1-0.8c-0.8,0-1.5,0.3-2.1,0.8C248.4,94.5,248.1,95.2,248.1,96z"/>
<path id="Layer16_2_MEMBER_1_MEMBER_4_MEMBER_3_1_STROKES" style="fill:none;stroke:#000000;stroke-width:0.55;stroke-miterlimit:5.9999;" d="
	M248.1,96c0-0.8,0.3-1.5,0.8-2.1c0.6-0.6,1.3-0.8,2.1-0.8c0.8,0,1.5,0.3,2.1,0.8c0.6,0.6,0.9,1.3,0.9,2.1c0,0.8-0.3,1.5-0.9,2.1
	c-0.6,0.6-1.2,0.8-2.1,0.8c-0.8,0-1.5-0.3-2.1-0.8C248.4,97.6,248.1,96.9,248.1,96z"/>
<path style="fill:none;" d="M134,145.2v43.7h16.3v-43.7H134z"/>
<path id="Layer16_2_MEMBER_1_MEMBER_5_MEMBER_0_1_STROKES" style="fill:none;stroke:#000000;stroke-width:0.55;stroke-miterlimit:5.9999;" d="
	M134.1,188.9h4.3l0.2-3.4l11.8-0.1v-40.3h-16.3V188.9z"/>
<path style="fill:#FFFFFF;" d="M139.7,153.8c0.6,0.6,1.4,0.9,2.3,0.9s1.7-0.3,2.4-0.9c0.6-0.7,0.9-1.5,0.9-2.4
	c0-0.9-0.3-1.7-0.9-2.3c-0.7-0.7-1.5-1-2.4-1s-1.7,0.3-2.3,1c-0.7,0.6-1,1.4-1,2.3C138.7,152.4,139.1,153.2,139.7,153.8z"/>
<path id="Layer16_2_MEMBER_1_MEMBER_5_MEMBER_1_1_STROKES" style="fill:none;stroke:#000000;stroke-width:0.55;stroke-miterlimit:5.9999;" d="
	M142.1,154.8c0.9,0,1.7-0.3,2.4-0.9c0.6-0.7,0.9-1.5,0.9-2.4c0-0.9-0.3-1.7-0.9-2.3c-0.7-0.7-1.5-1-2.4-1c-0.9,0-1.7,0.3-2.3,1
	c-0.7,0.6-1,1.4-1,2.3c0,0.9,0.3,1.7,1,2.4C140.4,154.4,141.2,154.8,142.1,154.8z"/>
<path style="fill:#FFFFFF;" d="M149.9,155.3v-7.9h-15.6v7.9H149.9z"/>
<path id="Layer16_2_MEMBER_1_MEMBER_5_MEMBER_2_1_STROKES" style="fill:none;stroke:#000000;stroke-width:0.55;stroke-miterlimit:5.9999;" d="
	M149.9,147.4h-15.6v7.9h15.6V147.4z"/>
<path style="fill:#FFFFFF;" d="M134.1,177.6v7.9h15.6v-7.9H134.1z"/>
<path id="Layer16_2_MEMBER_1_MEMBER_5_MEMBER_3_1_STROKES" style="fill:none;stroke:#000000;stroke-width:0.55;stroke-miterlimit:5.9999;" d="
	M134.1,185.5h15.6v-7.9h-15.6V185.5z"/>
<path style="fill:#FFFFFF;" d="M139.7,185c0.6,0.7,1.4,1,2.3,1c0.9,0,1.7-0.3,2.4-1c0.6-0.7,0.9-1.5,0.9-2.4c0-0.9-0.3-1.7-0.9-2.3
	c-0.7-0.7-1.5-1-2.4-1c-0.9,0-1.7,0.3-2.3,1c-0.7,0.7-1,1.5-1,2.3C138.6,183.5,139,184.3,139.7,185z"/>
<path id="Layer16_2_MEMBER_1_MEMBER_5_MEMBER_4_1_STROKES" style="fill:none;stroke:#000000;stroke-width:0.55;stroke-miterlimit:5.9999;" d="
	M142,186c0.9,0,1.7-0.3,2.4-1c0.6-0.7,0.9-1.5,0.9-2.4c0-0.9-0.3-1.7-0.9-2.3c-0.7-0.7-1.5-1-2.4-1c-0.9,0-1.7,0.3-2.3,1
	c-0.7,0.7-1,1.5-1,2.3c0,0.9,0.3,1.7,1,2.4C140.3,185.6,141.1,186,142,186z"/>
<path style="fill:#FFFFFF;" d="M139.7,153.8c0.6,0.6,1.4,0.9,2.3,0.9c0.9,0,1.7-0.3,2.4-0.9c0.6-0.7,0.9-1.5,0.9-2.4
	c0-0.9-0.3-1.7-0.9-2.3c-0.7-0.7-1.5-1-2.4-1s-1.7,0.3-2.3,1c-0.7,0.6-1,1.4-1,2.3S139.1,153.1,139.7,153.8z"/>
<path id="Layer16_2_MEMBER_1_MEMBER_5_MEMBER_5_1_STROKES" style="fill:none;stroke:#000000;stroke-width:0.55;stroke-miterlimit:5.9999;" d="
	M142.1,154.7c0.9,0,1.7-0.3,2.4-0.9c0.6-0.7,0.9-1.5,0.9-2.4c0-0.9-0.3-1.7-0.9-2.3c-0.7-0.7-1.5-1-2.4-1c-0.9,0-1.7,0.3-2.3,1
	c-0.7,0.6-1,1.4-1,2.3c0,0.9,0.3,1.7,1,2.4C140.4,154.4,141.2,154.7,142.1,154.7z"/>
<path style="fill:#FFFFFF;" d="M154.7,73.4v43.7h16.3V73.4H154.7z"/>
<path id="Layer16_2_MEMBER_1_MEMBER_6_MEMBER_0_1_STROKES" style="fill:none;stroke:#000000;stroke-width:0.55;stroke-miterlimit:5.9999;" d="
	M154.7,117.1H171V73.4h-16.3V117.1z"/>
<path style="fill:#FFFFFF;" d="M160.4,82.1c0.6,0.6,1.4,0.9,2.3,0.9c0.9,0,1.7-0.3,2.4-0.9c0.6-0.7,0.9-1.5,0.9-2.4
	c0-0.9-0.3-1.7-0.9-2.3c-0.7-0.7-1.5-1-2.4-1c-0.9,0-1.7,0.3-2.3,1c-0.7,0.6-1,1.4-1,2.3C159.4,80.6,159.7,81.4,160.4,82.1z"/>
<path id="Layer16_2_MEMBER_1_MEMBER_6_MEMBER_1_1_STROKES" style="fill:none;stroke:#000000;stroke-width:0.55;stroke-miterlimit:5.9999;" d="
	M162.7,83c0.9,0,1.7-0.3,2.4-0.9c0.6-0.7,0.9-1.5,0.9-2.4s-0.3-1.7-0.9-2.3c-0.7-0.7-1.5-1-2.4-1c-0.9,0-1.7,0.3-2.3,1
	c-0.7,0.6-1,1.4-1,2.3s0.3,1.7,1,2.4C161,82.7,161.8,83,162.7,83z"/>
<path style="fill:#FFFFFF;" d="M155,75.7v7.9h15.5v-7.9H155z"/>
<path id="Layer16_2_MEMBER_1_MEMBER_6_MEMBER_2_1_STROKES" style="fill:none;stroke:#000000;stroke-width:0.55;stroke-miterlimit:5.9999;" d="
	M155,83.6h15.5v-7.9H155V83.6z"/>
<path style="fill:#FFFFFF;" d="M154.8,106.9v7.9h15.6v-7.9H154.8z"/>
<path id="Layer16_2_MEMBER_1_MEMBER_6_MEMBER_3_1_STROKES" style="fill:none;stroke:#000000;stroke-width:0.55;stroke-miterlimit:5.9999;" d="
	M154.8,114.8h15.6v-7.9h-15.6V114.8z"/>
<path style="fill:#FFFFFF;" d="M160.2,113.2c0.7,0.7,1.5,1,2.3,1c0.9,0,1.7-0.3,2.4-1c0.6-0.7,0.9-1.5,0.9-2.3
	c0-0.9-0.3-1.7-0.9-2.3c-0.7-0.7-1.5-1-2.4-1c-0.9,0-1.7,0.3-2.3,1c-0.7,0.6-1,1.4-1,2.3C159.2,111.7,159.5,112.5,160.2,113.2z"/>
<path id="Layer16_2_MEMBER_1_MEMBER_6_MEMBER_4_1_STROKES" style="fill:none;stroke:#000000;stroke-width:0.55;stroke-miterlimit:5.9999;" d="
	M162.5,114.2c0.9,0,1.7-0.3,2.4-1c0.6-0.7,0.9-1.5,0.9-2.3c0-0.9-0.3-1.7-0.9-2.3c-0.7-0.7-1.5-1-2.4-1c-0.9,0-1.7,0.3-2.3,1
	c-0.7,0.6-1,1.4-1,2.3c0,0.9,0.3,1.7,1,2.3C160.9,113.9,161.7,114.2,162.5,114.2z"/>
<path style="fill:#FFFFFF;" d="M160.4,82c0.6,0.6,1.4,0.9,2.3,0.9c0.9,0,1.7-0.3,2.4-0.9c0.6-0.7,0.9-1.5,0.9-2.4
	c0-0.9-0.3-1.7-0.9-2.3c-0.7-0.7-1.5-1-2.4-1c-0.9,0-1.7,0.3-2.3,1c-0.7,0.7-1,1.5-1,2.3C159.4,80.5,159.7,81.3,160.4,82z"/>
<path id="Layer16_2_MEMBER_1_MEMBER_6_MEMBER_5_1_STROKES" style="fill:none;stroke:#000000;stroke-width:0.55;stroke-miterlimit:5.9999;" d="
	M162.7,82.9c0.9,0,1.7-0.3,2.4-0.9c0.6-0.7,0.9-1.5,0.9-2.4c0-0.9-0.3-1.7-0.9-2.3c-0.7-0.7-1.5-1-2.4-1c-0.9,0-1.7,0.3-2.3,1
	c-0.7,0.7-1,1.5-1,2.3c0,0.9,0.3,1.7,1,2.4C161,82.6,161.8,82.9,162.7,82.9z"/>
<path style="fill:#FFFFFF;" d="M80.1,264.2v43.7h16.3v-43.7H80.1z"/>
<path id="Layer16_2_MEMBER_1_MEMBER_7_MEMBER_0_1_STROKES" style="fill:none;stroke:#000000;stroke-width:0.55;stroke-miterlimit:5.9999;" d="
	M80.1,307.9h16.3v-43.7H80.1V307.9z"/>
<path style="fill:#FFFFFF;" d="M85.8,272.9c0.6,0.6,1.4,0.9,2.3,0.9c0.9,0,1.7-0.3,2.4-0.9c0.6-0.7,0.9-1.5,0.9-2.4
	s-0.3-1.7-0.9-2.3c-0.7-0.7-1.5-1-2.4-1s-1.7,0.3-2.3,1c-0.7,0.6-1,1.4-1,2.3C84.8,271.4,85.2,272.2,85.8,272.9z"/>
<path id="Layer16_2_MEMBER_1_MEMBER_7_MEMBER_1_1_STROKES" style="fill:none;stroke:#000000;stroke-width:0.55;stroke-miterlimit:5.9999;" d="
	M88.2,273.8c0.9,0,1.7-0.3,2.4-0.9c0.6-0.7,0.9-1.5,0.9-2.4s-0.3-1.7-0.9-2.3c-0.7-0.7-1.5-1-2.4-1s-1.7,0.3-2.3,1
	c-0.7,0.6-1,1.4-1,2.3c0,0.9,0.3,1.7,1,2.4C86.5,273.5,87.2,273.8,88.2,273.8z"/>
<path style="fill:#FFFFFF;" d="M80.4,266.4v7.9h15.5v-7.9H80.4z"/>
<path id="Layer16_2_MEMBER_1_MEMBER_7_MEMBER_2_1_STROKES" style="fill:none;stroke:#000000;stroke-width:0.55;stroke-miterlimit:5.9999;" d="
	M80.4,274.3h15.5v-7.9H80.4V274.3z"/>
<path style="fill:#FFFFFF;" d="M80.2,297.6v7.9h15.6v-7.9H80.2z"/>
<path id="Layer16_2_MEMBER_1_MEMBER_7_MEMBER_3_1_STROKES" style="fill:none;stroke:#000000;stroke-width:0.55;stroke-miterlimit:5.9999;" d="
	M80.2,305.5h15.6v-7.9H80.2V305.5z"/>
<path style="fill:#FFFFFF;" d="M85.7,304c0.7,0.6,1.5,0.9,2.3,0.9c0.9,0,1.7-0.3,2.4-0.9c0.6-0.7,0.9-1.5,0.9-2.4
	c0-0.9-0.3-1.7-0.9-2.3c-0.7-0.7-1.5-1-2.4-1c-0.9,0-1.7,0.3-2.3,1c-0.7,0.7-1,1.5-1,2.3C84.6,302.5,85,303.3,85.7,304z"/>
<path id="Layer16_2_MEMBER_1_MEMBER_7_MEMBER_4_1_STROKES" style="fill:none;stroke:#000000;stroke-width:0.55;stroke-miterlimit:5.9999;" d="
	M88,304.9c0.9,0,1.7-0.3,2.4-0.9c0.6-0.7,0.9-1.5,0.9-2.4c0-0.9-0.3-1.7-0.9-2.3c-0.7-0.7-1.5-1-2.4-1c-0.9,0-1.7,0.3-2.3,1
	c-0.7,0.7-1,1.5-1,2.3c0,0.9,0.3,1.7,1,2.4C86.3,304.6,87.1,304.9,88,304.9z"/>
<path style="fill:#FFFFFF;" d="M85.8,272.8c0.6,0.6,1.4,0.9,2.3,0.9s1.7-0.3,2.4-0.9c0.6-0.7,0.9-1.5,0.9-2.4s-0.3-1.7-0.9-2.3
	c-0.7-0.7-1.5-1-2.4-1c-0.9,0-1.7,0.3-2.3,1c-0.7,0.6-1,1.4-1,2.3C84.8,271.3,85.2,272.1,85.8,272.8z"/>
<path id="Layer16_2_MEMBER_1_MEMBER_7_MEMBER_5_1_STROKES" style="fill:none;stroke:#000000;stroke-width:0.55;stroke-miterlimit:5.9999;" d="
	M88.2,273.7c0.9,0,1.7-0.3,2.4-0.9c0.6-0.7,0.9-1.5,0.9-2.4c0-0.9-0.3-1.7-0.9-2.3c-0.7-0.7-1.5-1-2.4-1c-0.9,0-1.7,0.3-2.3,1
	c-0.7,0.6-1,1.4-1,2.3c0,0.9,0.3,1.7,1,2.4C86.5,273.4,87.2,273.7,88.2,273.7z"/>
<path style="fill:none;" d="M163.8,157.8l-99,0.6l-0.3,17.4l92.9-0.3l21.2-0.1"/>
<path style="fill:none;" d="M182.6,157.6"/>
<path style="fill:none;" d="M194,181.2l0.1,20.8c-0.4,3.1-2.2,4.8-5.5,5.1l-112.8-0.4c-5-0.4-7.6,1.6-7.7,5.9l0.3,62
	c1.6,12.4,8.6,18.7,21,18.8l16.3-0.3v-14.3l-16.2-0.1c-4.2,0.2-6.4-1.5-6.4-5.2l0.6-45.7c0-2.4,1.6-3.5,4.7-3.5l103.2,0.3
	c4.9-0.2,9.4-2.6,13.5-7c4-4.4,5.9-8.8,5.9-13.5l0.2-21.9c0.3-2.5,1.7-4,4.3-4.6l21.4-0.2c3.8,0.2,5.6,1.9,5.4,4.9v38.2l2.4,4.7
	v19.4c0.2,4.5-1.3,7.2-4.5,8l-14-0.1v14.3l22-0.2c2.9-0.4,5.1-1.4,6.7-3.2c1.7-1.9,2.6-4.2,2.4-6.9l0.3-31.7l2.1-4.9v-40.5
	c0.5-1.9,2-3.1,4.5-3.5c2.2-0.4,3.4-1.2,3.5-2.6l0.1-7.8c-0.1-1.4-1.3-2.4-3.8-2.9c-2.5-0.6-3.9-1.9-4.1-4.1l-0.6-73.8l-18.9-0.1
	v71.2c0.4,2.1-1.6,3.8-6,5l-20.3-0.5l-3.4-2.9l-0.2-21.3L210.4,91l0-3.4H64.7c-3.9-0.1-5.8,2.5-5.8,7.7s1.9,7.8,5.8,7.9h118.4h10.5
	l0.2,32.7"/>
<path id="Layer16_2_MEMBER_1_MEMBER_8_1_STROKES_5_" style="fill:none;stroke:#000000;stroke-width:0.55;stroke-miterlimit:5.9999;" d="
	M260,158.5c0.2,2.2,1.6,3.5,4.1,4.1c2.5,0.5,3.8,1.5,3.8,2.9l-0.1,7.8c-0.1,1.4-1.2,2.2-3.5,2.6c-2.5,0.4-4,1.6-4.5,3.5v8.6"/>
<path id="Layer16_2_MEMBER_1_MEMBER_8_1_STROKES_4_" style="fill:none;stroke:#000000;stroke-width:0.55;stroke-miterlimit:5.9999;" d="
	M240.5,116.1V84.6l18.9,0.1l0.2,31.1"/>
<path id="Layer16_2_MEMBER_1_MEMBER_8_1_STROKES_7_" style="fill:none;stroke:#000000;stroke-width:0.55;stroke-miterlimit:5.9999;" d="
	M210.8,141.3l0.1,16.2l3.4,2.9l20.3,0.5c4.4-1.2,6.4-2.9,6-5v-1.9"/>
<path id="Layer16_2_MEMBER_1_MEMBER_8_1_STROKES_3_" style="fill:none;stroke:#000000;stroke-width:0.55;stroke-miterlimit:5.9999;" d="
	M183.1,103.2H64.7c-3.9-0.1-5.8-2.8-5.8-7.9c0-5.2,1.9-7.7,5.8-7.7h145.6l0,3.5"/>
<path id="Layer16_2_MEMBER_1_MEMBER_8_1_STROKES_2_" style="fill:none;stroke:#000000;stroke-width:0.55;stroke-miterlimit:5.9999;" d="
	M157.4,175.3l-92.9,0.3l0.3-17.4l99-0.6"/>
<path id="Layer16_2_MEMBER_1_MEMBER_8_1_STROKES_10_" style="fill:none;stroke:#000000;stroke-width:0.55;stroke-miterlimit:5.9999;" d="
	M169.1,207l19.5,0.1c3.3-0.4,5.1-2.1,5.5-5.1l-0.1-20.8"/>
<path id="Layer16_2_MEMBER_1_MEMBER_8_1_STROKES_6_" style="fill:none;stroke:#000000;stroke-width:0.55;stroke-miterlimit:5.9999;" d="
	M131,224.4l-42.6-0.1c-3.1,0-4.7,1.2-4.7,3.5l-0.6,45.7c0,3.7,2.1,5.5,6.4,5.2l16.2,0.1v3.3l-3.2-0.6v10l3.2-0.1v1.7l-16.3,0.3
	c-12.4-0.1-19.4-6.4-21-18.8l-0.3-62c0.1-4.3,2.6-6.3,7.7-5.9l55.2,0.2"/>
<path id="Layer16_2_MEMBER_1_MEMBER_8_1_STROKES_9_" style="fill:none;stroke:#000000;stroke-width:0.55;stroke-miterlimit:5.9999;" d="
	M242.3,187.8v-5.5c0.2-3-1.6-4.6-5.4-4.9l-21.4,0.2c-2.6,0.6-4,2.1-4.3,4.6l-0.2,21.9c0.1,4.6-1.9,9.1-5.9,13.5
	c-4,4.4-8.5,6.8-13.5,7l-22.2-0.1"/>
<path id="Layer16_2_MEMBER_12_1_STROKES" style="fill:none;stroke:#797979;stroke-width:1;stroke-miterlimit:5.9999;" d="
	M32.2,315.7h804.4v-273H32.2V315.7z"/>
<path id="Layer16_2_MEMBER_13_MEMBER_0_1_STROKES" style="fill:none;stroke:#797979;stroke-width:0.55;stroke-miterlimit:5.9999;" d="
	M613.2,52.2l-23.4,28.4v92.1h-15V42.7h38.5L613.2,52.2z"/>
<path id="Layer16_2_MEMBER_13_MEMBER_1_1_STROKES_1_" style="fill:none;stroke:#797979;stroke-width:0.55;stroke-miterlimit:5.9999;" d="
	M553.4,259.9h-75.3c-1.8,0-3.3-0.7-4.6-2c-1.3-1.3-2-2.9-2-4.7V96.2c0-1.8,0.7-3.4,2-4.7c1.2-1.3,2.8-2,4.6-2h77.2
	c1.8,0,3.4,0.7,4.7,2c1.2,1.3,1.9,2.9,1.9,4.7v146.5"/>
<path id="Layer16_2_MEMBER_13_MEMBER_2_1_STROKES_1_" style="fill:none;stroke:#797979;stroke-width:0.55;stroke-miterlimit:5.9999;" d="
	M574.1,77.4H460.8v194h113.3v0.6"/>
<path id="Layer16_2_MEMBER_13_MEMBER_3_1_STROKES" style="fill:none;stroke:#797979;stroke-width:0.55;stroke-miterlimit:5.9999;" d="
	M463.8,68.2h107c0.8,0,1.5,0.3,2.1,0.8c0.6,0.6,0.8,1.3,0.8,2.1v6H460.8v-6c0-0.8,0.3-1.5,0.8-2.1C462.3,68.4,463,68.2,463.8,68.2z"
	/>
<path id="Layer16_2_MEMBER_13_MEMBER_4_1_STROKES" style="fill:none;stroke:#797979;stroke-width:0.55;stroke-miterlimit:5.9999;" d="
	M460,78v192.3h-6c-0.8,0-1.5-0.5-2.1-1.5c-0.6-1-0.8-2.2-0.8-3.6V83c0-1.4,0.3-2.6,0.8-3.5c0.6-1,1.2-1.5,2.1-1.5H460z"/>
<path id="Layer16_2_MEMBER_13_MEMBER_5_1_STROKES" style="fill:none;stroke:#797979;stroke-width:0.55;stroke-miterlimit:5.9999;" d="
	M467.2,87.7c0.9,0,1.7-0.3,2.3-0.9c0.6-0.7,0.9-1.5,0.9-2.3c0-0.9-0.3-1.7-0.9-2.3c-0.7-0.6-1.5-0.9-2.3-0.9s-1.6,0.3-2.2,0.9
	c-0.6,0.7-0.9,1.5-0.9,2.3c0,0.9,0.3,1.7,0.9,2.3C465.6,87.4,466.3,87.7,467.2,87.7z"/>
<path id="Layer16_2_MEMBER_13_MEMBER_6_1_STROKES" style="fill:none;stroke:#797979;stroke-width:0.55;stroke-miterlimit:5.9999;" d="
	M517.1,81.1c-0.9,0-1.7,0.3-2.3,0.9c-0.6,0.7-0.9,1.5-0.9,2.3c0,0.9,0.3,1.7,0.9,2.3c0.7,0.6,1.5,0.9,2.3,0.9c0.9,0,1.7-0.3,2.3-0.9
	c0.6-0.7,0.9-1.5,0.9-2.3c0-0.9-0.3-1.7-0.9-2.3C518.7,81.5,517.9,81.1,517.1,81.1z"/>
<path id="Layer16_2_MEMBER_13_MEMBER_7_1_STROKES" style="fill:none;stroke:#797979;stroke-width:0.55;stroke-miterlimit:5.9999;" d="
	M566.8,87.7c0.9,0,1.7-0.3,2.3-0.9c0.6-0.7,0.9-1.5,0.9-2.3c0-0.9-0.3-1.7-0.9-2.3c-0.7-0.6-1.5-0.9-2.3-0.9c-0.9,0-1.7,0.3-2.3,0.9
	c-0.6,0.7-0.9,1.5-0.9,2.3c0,0.9,0.3,1.7,0.9,2.3C565.1,87.4,565.9,87.7,566.8,87.7z"/>
<path id="Layer16_2_MEMBER_13_MEMBER_8_1_STROKES" style="fill:none;stroke:#797979;stroke-width:0.55;stroke-miterlimit:5.9999;" d="
	M566.8,148.2c0.9,0,1.7-0.3,2.3-0.9c0.6-0.7,0.9-1.5,0.9-2.4c0-0.9-0.3-1.7-0.9-2.3c-0.7-0.6-1.5-0.9-2.3-0.9
	c-0.9,0-1.7,0.3-2.3,0.9c-0.6,0.7-0.9,1.5-0.9,2.3c0,0.9,0.3,1.7,0.9,2.4C565.1,147.9,565.9,148.2,566.8,148.2z"/>
<path id="Layer16_2_MEMBER_13_MEMBER_9_1_STROKES" style="fill:none;stroke:#797979;stroke-width:0.55;stroke-miterlimit:5.9999;" d="
	M566.8,207.8c0.9,0,1.7-0.3,2.3-0.9c0.6-0.7,0.9-1.5,0.9-2.3c0-0.9-0.3-1.7-0.9-2.3c-0.7-0.7-1.5-1-2.3-1c-0.9,0-1.7,0.3-2.3,1
	c-0.6,0.6-0.9,1.4-0.9,2.3c0,0.9,0.3,1.7,0.9,2.3C565.1,207.5,565.9,207.8,566.8,207.8z"/>
<path id="Layer16_2_MEMBER_13_MEMBER_11_1_STROKES" style="fill:none;stroke:#797979;stroke-width:0.55;stroke-miterlimit:5.9999;" d="
	M514.7,267.4c0.7,0.6,1.5,0.9,2.3,0.9c0.9,0,1.7-0.3,2.3-0.9c0.6-0.7,0.9-1.5,0.9-2.3c0-0.9-0.3-1.7-0.9-2.3c-0.7-0.7-1.5-1-2.3-1
	c-0.9,0-1.7,0.3-2.3,1c-0.6,0.6-0.9,1.4-0.9,2.3C513.8,266,514.1,266.7,514.7,267.4z"/>
<path id="Layer16_2_MEMBER_13_MEMBER_12_1_STROKES" style="fill:none;stroke:#797979;stroke-width:0.55;stroke-miterlimit:5.9999;" d="
	M467.2,268.4c0.9,0,1.7-0.3,2.3-0.9c0.6-0.7,0.9-1.5,0.9-2.3c0-0.9-0.3-1.7-0.9-2.3c-0.7-0.7-1.5-1-2.3-1s-1.6,0.3-2.2,1
	c-0.6,0.6-0.9,1.4-0.9,2.3c0,0.9,0.3,1.7,0.9,2.3C465.6,268,466.3,268.4,467.2,268.4z"/>
<path id="Layer16_2_MEMBER_13_MEMBER_13_1_STROKES" style="fill:none;stroke:#797979;stroke-width:0.55;stroke-miterlimit:5.9999;" d="
	M467.2,207.6c0.9,0,1.7-0.3,2.3-0.9c0.6-0.7,0.9-1.5,0.9-2.3c0-0.9-0.3-1.7-0.9-2.3c-0.7-0.6-1.5-0.9-2.3-0.9s-1.6,0.3-2.2,0.9
	c-0.6,0.6-0.9,1.4-0.9,2.3c0,0.9,0.3,1.7,0.9,2.3C465.6,207.3,466.3,207.6,467.2,207.6z"/>
<path id="Layer16_2_MEMBER_13_MEMBER_14_1_STROKES" style="fill:none;stroke:#797979;stroke-width:0.55;stroke-miterlimit:5.9999;" d="
	M467.2,148.5c0.9,0,1.7-0.3,2.3-0.9c0.6-0.7,0.9-1.5,0.9-2.3c0-0.9-0.3-1.7-0.9-2.3c-0.7-0.6-1.5-0.9-2.3-0.9s-1.6,0.3-2.2,0.9
	c-0.6,0.7-0.9,1.5-0.9,2.3c0,0.9,0.3,1.7,0.9,2.3C465.6,148.2,466.3,148.5,467.2,148.5z"/>
<path id="Layer16_2_MEMBER_13_MEMBER_15_1_STROKES" style="fill:none;stroke:#797979;stroke-width:0.55;stroke-miterlimit:5.9999;" d="
	M463.4,281.2h107c0.8,0,1.5-0.3,2.1-0.9c0.6-0.6,0.8-1.2,0.8-2.1v-6.1H460.5v6.1c0,0.8,0.3,1.5,0.8,2.1
	C461.9,280.9,462.6,281.2,463.4,281.2z"/>
<path id="Layer16_2_MEMBER_13_MEMBER_16_1_STROKES_1_" style="fill:none;stroke:#797979;stroke-width:0.55;stroke-miterlimit:5.9999;" d="
	M574.2,270.6v45.1h27.8l-0.1-23.4L591.2,280"/>
<path id="Layer16_2_MEMBER_13_MEMBER_16_1_STROKES_3_" style="fill:none;stroke:#797979;stroke-width:0.55;stroke-miterlimit:5.9999;" d="
	M589.3,233.9v-48.1h-15v56.9"/>
<path id="Layer16_2_MEMBER_14_MEMBER_0_1_STROKES" style="fill:none;stroke:#797979;stroke-width:0.55;stroke-miterlimit:5.9999;" d="
	M252.1,52.2l23.4,28.4v92.1h14.9V42.7H252L252.1,52.2z"/>
<path id="Layer16_2_MEMBER_14_MEMBER_1_1_STROKES_1_" style="fill:none;stroke:#797979;stroke-width:0.55;stroke-miterlimit:5.9999;" d="
	M318.9,259.9h68.3c1.8,0,3.3-0.7,4.6-2c1.3-1.3,2-2.9,2-4.7V96.2c0-1.8-0.7-3.4-2-4.7c-1.2-1.3-2.8-2-4.6-2h-77.2
	c-1.8,0-3.4,0.7-4.7,2c-1.2,1.3-1.9,2.9-1.9,4.7v145"/>
<path id="Layer16_2_MEMBER_14_MEMBER_2_1_STROKES_1_" style="fill:none;stroke:#797979;stroke-width:0.55;stroke-miterlimit:5.9999;" d="
	M291.2,271.4h113.3v-194H291.2"/>
<path id="Layer16_2_MEMBER_14_MEMBER_3_1_STROKES" style="fill:none;stroke:#797979;stroke-width:0.55;stroke-miterlimit:5.9999;" d="
	M401.5,68.2h-107c-0.8,0-1.5,0.3-2.1,0.8c-0.6,0.6-0.9,1.3-0.9,2.1v6h112.9v-6c0-0.8-0.3-1.5-0.9-2.1
	C403,68.4,402.3,68.2,401.5,68.2z"/>
<path id="Layer16_2_MEMBER_14_MEMBER_4_1_STROKES" style="fill:none;stroke:#797979;stroke-width:0.55;stroke-miterlimit:5.9999;" d="
	M405.3,78v192.3h5.9c0.8,0,1.5-0.5,2.1-1.5c0.6-1,0.8-2.2,0.8-3.6V83c0-1.4-0.3-2.6-0.8-3.5c-0.6-1-1.3-1.5-2.1-1.5H405.3z"/>
<path id="Layer16_2_MEMBER_14_MEMBER_5_1_STROKES" style="fill:none;stroke:#797979;stroke-width:0.55;stroke-miterlimit:5.9999;" d="
	M398.1,87.7c0.9,0,1.7-0.3,2.3-0.9c0.6-0.7,0.9-1.5,0.9-2.3c0-0.9-0.3-1.7-0.9-2.3c-0.7-0.6-1.5-0.9-2.3-0.9s-1.6,0.3-2.2,0.9
	c-0.6,0.7-0.9,1.5-0.9,2.3c0,0.9,0.3,1.7,0.9,2.3C396.4,87.4,397.2,87.7,398.1,87.7z"/>
<path id="Layer16_2_MEMBER_14_MEMBER_6_1_STROKES" style="fill:none;stroke:#797979;stroke-width:0.55;stroke-miterlimit:5.9999;" d="
	M348.2,87.7c0.9,0,1.7-0.3,2.3-0.9c0.6-0.7,0.9-1.5,0.9-2.3c0-0.9-0.3-1.7-0.9-2.3c-0.6-0.6-1.4-0.9-2.3-0.9c-0.9,0-1.6,0.3-2.2,0.9
	c-0.6,0.7-0.9,1.5-0.9,2.3c0,0.9,0.3,1.7,0.9,2.3C346.5,87.4,347.3,87.7,348.2,87.7z"/>
<path id="Layer16_2_MEMBER_14_MEMBER_7_1_STROKES" style="fill:none;stroke:#797979;stroke-width:0.55;stroke-miterlimit:5.9999;" d="
	M298.6,87.7c0.9,0,1.6-0.3,2.2-0.9c0.6-0.7,0.9-1.5,0.9-2.3c0-0.9-0.3-1.7-0.9-2.3c-0.6-0.6-1.4-0.9-2.2-0.9c-0.9,0-1.7,0.3-2.3,0.9
	c-0.6,0.7-0.9,1.5-0.9,2.3c0,0.9,0.3,1.7,0.9,2.3C296.9,87.4,297.7,87.7,298.6,87.7z"/>
<path id="Layer16_2_MEMBER_14_MEMBER_8_1_STROKES" style="fill:none;stroke:#797979;stroke-width:0.55;stroke-miterlimit:5.9999;" d="
	M298.6,148.2c0.9,0,1.6-0.3,2.2-0.9c0.6-0.7,0.9-1.5,0.9-2.4c0-0.9-0.3-1.7-0.9-2.3c-0.6-0.6-1.4-0.9-2.2-0.9
	c-0.9,0-1.7,0.3-2.3,0.9c-0.6,0.7-0.9,1.5-0.9,2.3c0,0.9,0.3,1.7,0.9,2.4C296.9,147.9,297.7,148.2,298.6,148.2z"/>
<path id="Layer16_2_MEMBER_14_MEMBER_9_1_STROKES" style="fill:none;stroke:#797979;stroke-width:0.55;stroke-miterlimit:5.9999;" d="
	M298.6,207.8c0.9,0,1.6-0.3,2.2-0.9c0.6-0.7,0.9-1.5,0.9-2.3c0-0.9-0.3-1.7-0.9-2.3c-0.6-0.7-1.4-1-2.2-1c-0.9,0-1.7,0.3-2.3,1
	c-0.6,0.6-0.9,1.4-0.9,2.3c0,0.9,0.3,1.7,0.9,2.3C296.9,207.5,297.7,207.8,298.6,207.8z"/>
<path id="Layer16_2_MEMBER_14_MEMBER_11_1_STROKES" style="fill:none;stroke:#797979;stroke-width:0.55;stroke-miterlimit:5.9999;" d="
	M348.2,268.4c0.9,0,1.7-0.3,2.3-0.9c0.6-0.7,0.9-1.5,0.9-2.3c0-0.9-0.3-1.7-0.9-2.3c-0.6-0.7-1.4-1-2.3-1c-0.9,0-1.6,0.3-2.2,1
	c-0.6,0.6-0.9,1.4-0.9,2.3c0,0.9,0.3,1.7,0.9,2.3C346.5,268,347.3,268.4,348.2,268.4z"/>
<path id="Layer16_2_MEMBER_14_MEMBER_12_1_STROKES" style="fill:none;stroke:#797979;stroke-width:0.55;stroke-miterlimit:5.9999;" d="
	M398.1,268.4c0.9,0,1.7-0.3,2.3-0.9c0.6-0.7,0.9-1.5,0.9-2.3c0-0.9-0.3-1.7-0.9-2.3c-0.7-0.7-1.5-1-2.3-1s-1.6,0.3-2.2,1
	c-0.6,0.6-0.9,1.4-0.9,2.3c0,0.9,0.3,1.7,0.9,2.3C396.4,268,397.2,268.4,398.1,268.4z"/>
<path id="Layer16_2_MEMBER_14_MEMBER_13_1_STROKES" style="fill:none;stroke:#797979;stroke-width:0.55;stroke-miterlimit:5.9999;" d="
	M398.1,207.6c0.9,0,1.7-0.3,2.3-0.9c0.6-0.7,0.9-1.5,0.9-2.3c0-0.9-0.3-1.7-0.9-2.3c-0.7-0.6-1.5-0.9-2.3-0.9s-1.6,0.3-2.2,0.9
	c-0.6,0.6-0.9,1.4-0.9,2.3c0,0.9,0.3,1.7,0.9,2.3C396.4,207.3,397.2,207.6,398.1,207.6z"/>
<path id="Layer16_2_MEMBER_14_MEMBER_14_1_STROKES" style="fill:none;stroke:#797979;stroke-width:0.55;stroke-miterlimit:5.9999;" d="
	M398.1,148.5c0.9,0,1.7-0.3,2.3-0.9c0.6-0.7,0.9-1.5,0.9-2.3c0-0.9-0.3-1.7-0.9-2.3c-0.7-0.6-1.5-0.9-2.3-0.9s-1.6,0.3-2.2,0.9
	c-0.6,0.7-0.9,1.5-0.9,2.3c0,0.9,0.3,1.7,0.9,2.3C396.4,148.2,397.2,148.5,398.1,148.5z"/>
<path id="Layer16_2_MEMBER_14_MEMBER_15_1_STROKES" style="fill:none;stroke:#797979;stroke-width:0.55;stroke-miterlimit:5.9999;" d="
	M291.9,272.2h112.9v6.1c0,0.8-0.3,1.5-0.9,2.1c-0.6,0.6-1.2,0.9-2.1,0.9h-107c-0.8,0-1.5-0.3-2.1-0.9c-0.6-0.6-0.8-1.2-0.8-2.1
	V272.2z"/>
<path id="Layer16_2_MEMBER_14_MEMBER_16_1_STROKES_2_" style="fill:none;stroke:#797979;stroke-width:0.55;stroke-miterlimit:5.9999;" d="
	M291.1,270.1v45.6h-27.8l0.1-23.4l12.7-14.5v-92h15v55.7"/>
<path id="Layer16_2_MEMBER_15_1_STROKES" style="fill:none;stroke:#797979;stroke-width:0.55;stroke-miterlimit:5.9999;" d="
	M419,43.9v270.6h16.2V43.9H419z"/>
<path id="Layer16_2_MEMBER_16_1_STROKES" style="fill:none;stroke:#797979;stroke-width:0.55;stroke-miterlimit:5.9999;" d="
	M688.3,42.5h38.5V11.5h-38.5V42.5z"/>
<path id="Layer16_2_MEMBER_17_1_STROKES" style="fill:none;stroke:#797979;stroke-width:0.55;stroke-miterlimit:5.9999;" d="
	M706.3,30.6c0.9,0,1.6-0.3,2.2-0.9c0.6-0.7,0.9-1.5,0.9-2.3s-0.3-1.7-0.9-2.3c-0.6-0.6-1.4-0.9-2.2-0.9c-0.9,0-1.7,0.3-2.3,0.9
	c-0.6,0.7-0.9,1.5-0.9,2.3s0.3,1.7,0.9,2.3C704.6,30.3,705.4,30.6,706.3,30.6z"/>
<path style="fill:#FFFFFF;" d="M29.5,42.8L10,62.6v253.2h33.4v-273H29.5z"/>
<path id="Layer16_2_MEMBER_20_1_STROKES" style="fill:none;stroke:#919191;stroke-width:1;stroke-miterlimit:5.9999;" d="M29.5,42.7
	h13.9v273H10V62.6L29.5,42.7z"/>
<path style="fill:#FFFFFF;" d="M859.1,62.7l-19.5-19.9h-13.9v273h33.4V62.7z"/>
<path id="Layer16_2_MEMBER_21_1_STROKES" style="fill:none;stroke:#797979;stroke-width:1;stroke-miterlimit:5.9999;" d="
	M839.5,42.7h-13.9v273h33.4V62.6L839.5,42.7z"/>
<path style="fill:#CCCCCC;" d="M256.2,244.1c-0.4,0-0.7,0.1-0.9,0.4c-0.2,0.2-0.4,0.6-0.4,0.9v23.1c0,0.4,0.1,0.7,0.4,0.9
	c0.2,0.2,0.6,0.4,0.9,0.4h10.5c0.4,0,0.7-0.1,0.9-0.4c0.2-0.2,0.4-0.6,0.4-0.9v-23.1c0-0.4-0.1-0.7-0.4-0.9
	c-0.2-0.3-0.6-0.4-0.9-0.4H256.2z"/>
<path style="fill:#CCCCCC;" d="M257.7,236.2c-0.4,0-0.7,0.1-0.9,0.4c-0.2,0.3-0.4,0.6-0.4,0.9V276c0,0.4,0.1,0.7,0.4,0.9
	c0.2,0.2,0.6,0.4,0.9,0.4h7.4c0.4,0,0.7-0.1,0.9-0.4c0.2-0.2,0.4-0.6,0.4-0.9v-38.5c0-0.3-0.1-0.6-0.4-0.9c-0.2-0.2-0.6-0.4-0.9-0.4
	H257.7z"/>
<path id="Layer9_0_MEMBER_2_1_STROKES" style="fill:none;stroke:#1A181B;stroke-width:0.15;stroke-miterlimit:4.9999;" d="
	M264.1,273.9l-0.3-1.3l-0.8-0.8"/>
<path id="Layer9_0_MEMBER_3_1_STROKES" style="fill:none;stroke:#1A181B;stroke-width:0.15;stroke-miterlimit:4.9999;" d="
	M260.6,271.6l-0.4,0.1l-1,0.9l-0.4,1.3l0.4,1.4l0.4,0.4"/>
<path id="Layer9_0_MEMBER_4_1_STROKES" style="fill:none;stroke:#1A181B;stroke-width:0.15;stroke-miterlimit:4.9999;" d="
	M261.8,276.5l0.9-0.2l1-0.9v-0.2l0.3-1.2"/>
<path id="Layer9_0_MEMBER_5_1_STROKES" style="fill:none;stroke:#1A181B;stroke-width:0.15;stroke-miterlimit:4.9999;" d="
	M264.1,239.6l-0.3-1.3l-0.8-0.9"/>
<path id="Layer9_0_MEMBER_6_1_STROKES" style="fill:none;stroke:#1A181B;stroke-width:0.15;stroke-miterlimit:4.9999;" d="
	M260.6,237.2l-0.4,0.1l-1,1l-0.4,1.3l0.4,1.3l0.4,0.4"/>
<path id="Layer9_0_MEMBER_7_1_STROKES" style="fill:none;stroke:#1A181B;stroke-width:0.15;stroke-miterlimit:4.9999;" d="
	M261.8,242.1l0.9-0.3l1-0.9v-0.2l0.3-1.1"/>
<path id="Layer9_0_MEMBER_8_1_STROKES" style="fill:none;stroke:#1A181B;stroke-width:0.15;stroke-miterlimit:4.9999;" d="
	M263.2,273.9l-0.3-1.1l-0.9-0.6h-1.1l-0.9,0.6l-0.4,1.1l0.4,1.1l0.9,0.6h1.1l0.9-0.6L263.2,273.9z"/>
<path id="Layer9_0_MEMBER_9_1_STROKES" style="fill:none;stroke:#1A181B;stroke-width:0.15;stroke-miterlimit:4.9999;" d="
	M260.9,241.3h1.1l0.9-0.6l0.3-1.1l-0.3-1.1l-0.9-0.7h-1.1l-0.9,0.7l-0.4,1.1l0.4,1.1L260.9,241.3z"/>
<path id="Layer9_0_MEMBER_10_1_STROKES" style="fill:none;stroke:#1A181B;stroke-width:0.15;stroke-miterlimit:4.9999;" d="
	M255.2,242.7h1.2"/>
<path id="Layer9_0_MEMBER_11_1_STROKES" style="fill:none;stroke:#1A181B;stroke-width:0.15;stroke-miterlimit:4.9999;" d="
	M259,242.7h5"/>
<path id="Layer9_0_MEMBER_12_1_STROKES" style="fill:none;stroke:#1A181B;stroke-width:0.15;stroke-miterlimit:4.9999;" d="
	M266.5,242.7h1.2"/>
<path id="Layer9_0_MEMBER_13_1_STROKES" style="fill:none;stroke:#1A181B;stroke-width:0.15;stroke-miterlimit:4.9999;" d="
	M255.2,270.8h1.2"/>
<path id="Layer9_0_MEMBER_14_1_STROKES" style="fill:none;stroke:#1A181B;stroke-width:0.15;stroke-miterlimit:4.9999;" d="
	M259,270.8h5"/>
<path id="Layer9_0_MEMBER_15_1_STROKES" style="fill:none;stroke:#1A181B;stroke-width:0.15;stroke-miterlimit:4.9999;" d="
	M266.5,270.8h1.2"/>
<path id="Layer9_0_MEMBER_16_1_STROKES" style="fill:none;stroke:#1A181B;stroke-width:0.15;stroke-miterlimit:4.9999;" d="
	M267.7,244.4v-1.7"/>
<path id="Layer9_0_MEMBER_17_1_STROKES" style="fill:none;stroke:#1A181B;stroke-width:0.15;stroke-miterlimit:4.9999;" d="
	M255.2,244.4v-1.7"/>
<path id="Layer9_0_MEMBER_18_1_STROKES" style="fill:none;stroke:#1A181B;stroke-width:0.15;stroke-miterlimit:4.9999;" d="
	M255.2,276.9l0.4,1.4l1,1.1l1.4,0.4h6.8l1.4-0.4l1.1-1.1l0.4-1.4"/>
<path id="Layer9_0_MEMBER_19_1_STROKES" style="fill:none;stroke:#1A181B;stroke-width:0.15;stroke-miterlimit:4.9999;" d="
	M267.7,236.7l-0.4-1.4l-1.1-1.1l-1.4-0.4"/>
<path id="Layer9_0_MEMBER_20_1_STROKES" style="fill:none;stroke:#1A181B;stroke-width:0.15;stroke-miterlimit:4.9999;" d="
	M258.1,233.8h6.8"/>
<path id="Layer9_0_MEMBER_21_1_STROKES" style="fill:none;stroke:#1A181B;stroke-width:0.15;stroke-miterlimit:4.9999;" d="
	M258.1,233.8l-1.4,0.4l-1,1.1l-0.4,1.4"/>
<path id="Layer9_0_MEMBER_22_1_STROKES" style="fill:none;stroke:#1A181B;stroke-width:0.15;stroke-miterlimit:4.9999;" d="
	M267.7,270.8v-1.7"/>
<path id="Layer9_0_MEMBER_23_1_STROKES" style="fill:none;stroke:#1A181B;stroke-width:0.15;stroke-miterlimit:4.9999;" d="
	M267.7,242.7v-6"/>
<path id="Layer9_0_MEMBER_24_1_STROKES" style="fill:none;stroke:#1A181B;stroke-width:0.15;stroke-miterlimit:4.9999;" d="
	M267.7,276.9v-6"/>
<path id="Layer9_0_MEMBER_25_1_STROKES" style="fill:none;stroke:#1A181B;stroke-width:0.15;stroke-miterlimit:4.9999;" d="
	M255.2,270.8v-1.7"/>
<path id="Layer9_0_MEMBER_26_1_STROKES" style="fill:none;stroke:#1A181B;stroke-width:0.15;stroke-miterlimit:4.9999;" d="
	M255.2,276.9v-6"/>
<path id="Layer9_0_MEMBER_27_1_STROKES" style="fill:none;stroke:#1A181B;stroke-width:0.15;stroke-miterlimit:4.9999;" d="
	M255.2,242.7v-6"/>
<path id="Layer9_0_MEMBER_28_1_STROKES" style="fill:none;stroke:#1A181B;stroke-width:0.15;stroke-miterlimit:4.9999;" d="
	M256.5,243.8h10"/>
<path id="Layer9_0_MEMBER_29_1_STROKES" style="fill:none;stroke:#1A181B;stroke-width:0.15;stroke-miterlimit:4.9999;" d="
	M256.5,269.7h10"/>
<path id="Layer9_0_MEMBER_30_1_STROKES" style="fill:none;stroke:#1A181B;stroke-width:0.15;stroke-miterlimit:4.9999;" d="
	M256.5,276.2l0.3,0.7l0.7,0.3"/>
<path id="Layer9_0_MEMBER_31_1_STROKES" style="fill:none;stroke:#1A181B;stroke-width:0.15;stroke-miterlimit:4.9999;" d="
	M265.5,277.2l0.7-0.3l0.3-0.7"/>
<path id="Layer9_0_MEMBER_32_1_STROKES" style="fill:none;stroke:#1A181B;stroke-width:0.15;stroke-miterlimit:4.9999;" d="
	M257.5,277.2h8"/>
<path id="Layer9_0_MEMBER_33_1_STROKES" style="fill:none;stroke:#1A181B;stroke-width:0.15;stroke-miterlimit:4.9999;" d="
	M266.5,276.2v-6.5"/>
<path id="Layer9_0_MEMBER_34_1_STROKES" style="fill:none;stroke:#1A181B;stroke-width:0.15;stroke-miterlimit:4.9999;" d="
	M256.5,276.2v-6.5"/>
<path id="Layer9_0_MEMBER_35_1_STROKES" style="fill:none;stroke:#1A181B;stroke-width:0.15;stroke-miterlimit:4.9999;" d="
	M256.5,270.5h10"/>
<path id="Layer9_0_MEMBER_36_1_STROKES" style="fill:none;stroke:#1A181B;stroke-width:0.15;stroke-miterlimit:4.9999;" d="
	M257.5,236.3l-0.7,0.2l-0.3,0.7"/>
<path id="Layer9_0_MEMBER_37_1_STROKES" style="fill:none;stroke:#1A181B;stroke-width:0.15;stroke-miterlimit:4.9999;" d="
	M266.5,237.3l-0.3-0.7l-0.7-0.2"/>
<path id="Layer9_0_MEMBER_38_1_STROKES" style="fill:none;stroke:#1A181B;stroke-width:0.15;stroke-miterlimit:4.9999;" d="
	M257.5,236.3h8"/>
<path id="Layer9_0_MEMBER_39_1_STROKES" style="fill:none;stroke:#1A181B;stroke-width:0.15;stroke-miterlimit:4.9999;" d="
	M266.5,243.8v-6.5"/>
<path id="Layer9_0_MEMBER_40_1_STROKES" style="fill:none;stroke:#1A181B;stroke-width:0.15;stroke-miterlimit:4.9999;" d="
	M256.5,243.8v-6.5"/>
<path id="Layer9_0_MEMBER_41_1_STROKES" style="fill:none;stroke:#1A181B;stroke-width:0.15;stroke-miterlimit:4.9999;" d="
	M256.5,243h10"/>
<path id="Layer9_0_MEMBER_42_1_STROKES" style="fill:none;stroke:#1A181B;stroke-width:0.15;stroke-miterlimit:4.9999;" d="
	M254.9,268.2v-22.8"/>
<path id="Layer9_0_MEMBER_43_1_STROKES" style="fill:none;stroke:#1A181B;stroke-width:0.15;stroke-miterlimit:4.9999;" d="
	M255.2,244.5l-0.2,0.4v0.4"/>
<path id="Layer9_0_MEMBER_44_1_STROKES" style="fill:none;stroke:#1A181B;stroke-width:0.15;stroke-miterlimit:4.9999;" d="
	M256.5,243.8l-0.7,0.2l-0.6,0.6"/>
<path id="Layer9_0_MEMBER_45_1_STROKES" style="fill:none;stroke:#1A181B;stroke-width:0.15;stroke-miterlimit:4.9999;" d="
	M268,245.4L268,245l-0.2-0.4l-0.6-0.6l-0.7-0.2"/>
<path id="Layer9_0_MEMBER_46_1_STROKES" style="fill:none;stroke:#1A181B;stroke-width:0.15;stroke-miterlimit:4.9999;" d="
	M268,268.2v-22.8"/>
<path id="Layer9_0_MEMBER_47_1_STROKES" style="fill:none;stroke:#1A181B;stroke-width:0.15;stroke-miterlimit:4.9999;" d="
	M267.8,268.9l0.2-0.4l0.1-0.4"/>
<path id="Layer9_0_MEMBER_48_1_STROKES" style="fill:none;stroke:#1A181B;stroke-width:0.15;stroke-miterlimit:4.9999;" d="
	M266.5,269.7l0.7-0.2l0.6-0.6"/>
<path id="Layer9_0_MEMBER_49_1_STROKES" style="fill:none;stroke:#1A181B;stroke-width:0.15;stroke-miterlimit:4.9999;" d="
	M254.9,268.2v0.4l0.2,0.4l0.6,0.6l0.7,0.2"/>
<path style="fill:#CCCCCC;" d="M589.5,245.3c-0.4,0-0.7,0.1-0.9,0.4c-0.2,0.3-0.4,0.6-0.4,1v23.1c0,0.4,0.1,0.7,0.4,0.9
	c0.3,0.2,0.6,0.4,0.9,0.4H600c0.4,0,0.7-0.1,1-0.4c0.2-0.3,0.4-0.6,0.4-0.9v-23.1c0-0.4-0.1-0.7-0.4-1c-0.3-0.3-0.6-0.4-1-0.4H589.5
	z"/>
<path style="fill:#CCCCCC;" d="M591,237.5c-0.4,0-0.7,0.1-1,0.4c-0.2,0.3-0.4,0.6-0.4,0.9v38.5c0,0.4,0.1,0.7,0.4,1
	c0.3,0.2,0.6,0.4,1,0.4h7.4c0.4,0,0.7-0.1,1-0.4c0.2-0.3,0.3-0.6,0.3-1v-38.5c0-0.3-0.1-0.6-0.3-0.9c-0.3-0.2-0.6-0.4-1-0.4H591z"/>
<path id="Layer9_1_MEMBER_1_1_STROKES" style="fill:none;stroke:#1A181B;stroke-width:0.15;stroke-miterlimit:4.9999;" d="
	M597.3,275.2l-0.3-1.3l-0.8-0.8"/>
<path id="Layer9_1_MEMBER_2_1_STROKES" style="fill:none;stroke:#1A181B;stroke-width:0.15;stroke-miterlimit:4.9999;" d="
	M593.9,272.8l-0.4,0.1l-1,0.9l-0.4,1.3l0.4,1.4l0.4,0.4"/>
<path id="Layer9_1_MEMBER_3_1_STROKES" style="fill:none;stroke:#1A181B;stroke-width:0.15;stroke-miterlimit:4.9999;" d="
	M595.1,277.7l0.9-0.2l1-0.9v-0.2l0.3-1.2"/>
<path id="Layer9_1_MEMBER_4_1_STROKES" style="fill:none;stroke:#1A181B;stroke-width:0.15;stroke-miterlimit:4.9999;" d="
	M597.3,240.8l-0.3-1.3l-0.8-0.9"/>
<path id="Layer9_1_MEMBER_5_1_STROKES" style="fill:none;stroke:#1A181B;stroke-width:0.15;stroke-miterlimit:4.9999;" d="
	M593.9,238.4l-0.4,0.1l-1,1l-0.4,1.3l0.4,1.3l0.4,0.4"/>
<path id="Layer9_1_MEMBER_6_1_STROKES" style="fill:none;stroke:#1A181B;stroke-width:0.15;stroke-miterlimit:4.9999;" d="
	M595.1,243.4l0.9-0.3l1-0.9V242l0.3-1.1"/>
<path id="Layer9_1_MEMBER_7_1_STROKES" style="fill:none;stroke:#1A181B;stroke-width:0.15;stroke-miterlimit:4.9999;" d="
	M596.5,275.2l-0.3-1.1l-0.9-0.6h-1.1l-0.9,0.6l-0.4,1.1l0.4,1.1l0.9,0.6h1.1l0.9-0.6L596.5,275.2z"/>
<path id="Layer9_1_MEMBER_8_1_STROKES" style="fill:none;stroke:#1A181B;stroke-width:0.15;stroke-miterlimit:4.9999;" d="
	M594.2,242.5h1.1l0.9-0.6l0.3-1.1l-0.3-1.1l-0.9-0.7h-1.1l-0.9,0.7l-0.4,1.1l0.4,1.1L594.2,242.5z"/>
<path id="Layer9_1_MEMBER_9_1_STROKES" style="fill:none;stroke:#1A181B;stroke-width:0.15;stroke-miterlimit:4.9999;" d="
	M588.5,243.9h1.2"/>
<path id="Layer9_1_MEMBER_10_1_STROKES" style="fill:none;stroke:#1A181B;stroke-width:0.15;stroke-miterlimit:4.9999;" d="
	M592.2,243.9h5"/>
<path id="Layer9_1_MEMBER_11_1_STROKES" style="fill:none;stroke:#1A181B;stroke-width:0.15;stroke-miterlimit:4.9999;" d="
	M599.8,243.9h1.2"/>
<path id="Layer9_1_MEMBER_12_1_STROKES" style="fill:none;stroke:#1A181B;stroke-width:0.15;stroke-miterlimit:4.9999;" d="
	M588.5,272.1h1.2"/>
<path id="Layer9_1_MEMBER_13_1_STROKES" style="fill:none;stroke:#1A181B;stroke-width:0.15;stroke-miterlimit:4.9999;" d="
	M592.2,272.1h5"/>
<path id="Layer9_1_MEMBER_14_1_STROKES" style="fill:none;stroke:#1A181B;stroke-width:0.15;stroke-miterlimit:4.9999;" d="
	M599.8,272.1h1.2"/>
<path id="Layer9_1_MEMBER_15_1_STROKES" style="fill:none;stroke:#1A181B;stroke-width:0.15;stroke-miterlimit:4.9999;" d="
	M601,245.7v-1.7"/>
<path id="Layer9_1_MEMBER_16_1_STROKES" style="fill:none;stroke:#1A181B;stroke-width:0.15;stroke-miterlimit:4.9999;" d="
	M588.5,245.7v-1.7"/>
<path id="Layer9_1_MEMBER_17_1_STROKES" style="fill:none;stroke:#1A181B;stroke-width:0.15;stroke-miterlimit:4.9999;" d="
	M588.5,278.1l0.4,1.4l1,1.1l1.4,0.4h6.8l1.4-0.4l1.1-1.1l0.4-1.4"/>
<path id="Layer9_1_MEMBER_18_1_STROKES" style="fill:none;stroke:#1A181B;stroke-width:0.15;stroke-miterlimit:4.9999;" d="
	M601,237.9l-0.4-1.4l-1.1-1.1l-1.4-0.4"/>
<path id="Layer9_1_MEMBER_19_1_STROKES" style="fill:none;stroke:#1A181B;stroke-width:0.15;stroke-miterlimit:4.9999;" d="
	M591.4,235.1h6.8"/>
<path id="Layer9_1_MEMBER_20_1_STROKES" style="fill:none;stroke:#1A181B;stroke-width:0.15;stroke-miterlimit:4.9999;" d="
	M591.4,235.1l-1.4,0.4l-1,1.1l-0.4,1.4"/>
<path id="Layer9_1_MEMBER_21_1_STROKES" style="fill:none;stroke:#1A181B;stroke-width:0.15;stroke-miterlimit:4.9999;" d="
	M601,272.1v-1.7"/>
<path id="Layer9_1_MEMBER_22_1_STROKES" style="fill:none;stroke:#1A181B;stroke-width:0.15;stroke-miterlimit:4.9999;" d="
	M601,243.9v-6"/>
<path id="Layer9_1_MEMBER_23_1_STROKES" style="fill:none;stroke:#1A181B;stroke-width:0.15;stroke-miterlimit:4.9999;" d="
	M601,278.1v-6"/>
<path id="Layer9_1_MEMBER_24_1_STROKES" style="fill:none;stroke:#1A181B;stroke-width:0.15;stroke-miterlimit:4.9999;" d="
	M588.5,272.1v-1.7"/>
<path id="Layer9_1_MEMBER_25_1_STROKES" style="fill:none;stroke:#1A181B;stroke-width:0.15;stroke-miterlimit:4.9999;" d="
	M588.5,278.1v-6"/>
<path id="Layer9_1_MEMBER_26_1_STROKES" style="fill:none;stroke:#1A181B;stroke-width:0.15;stroke-miterlimit:4.9999;" d="
	M588.5,243.9v-6"/>
<path id="Layer9_1_MEMBER_27_1_STROKES" style="fill:none;stroke:#1A181B;stroke-width:0.15;stroke-miterlimit:4.9999;" d="
	M589.8,245.1h10"/>
<path id="Layer9_1_MEMBER_28_1_STROKES" style="fill:none;stroke:#1A181B;stroke-width:0.15;stroke-miterlimit:4.9999;" d="
	M589.8,271h10"/>
<path id="Layer9_1_MEMBER_29_1_STROKES" style="fill:none;stroke:#1A181B;stroke-width:0.15;stroke-miterlimit:4.9999;" d="
	M589.8,277.5l0.3,0.7l0.7,0.3"/>
<path id="Layer9_1_MEMBER_30_1_STROKES" style="fill:none;stroke:#1A181B;stroke-width:0.15;stroke-miterlimit:4.9999;" d="
	M598.8,278.5l0.7-0.3l0.3-0.7"/>
<path id="Layer9_1_MEMBER_31_1_STROKES" style="fill:none;stroke:#1A181B;stroke-width:0.15;stroke-miterlimit:4.9999;" d="
	M590.8,278.5h8"/>
<path id="Layer9_1_MEMBER_32_1_STROKES" style="fill:none;stroke:#1A181B;stroke-width:0.15;stroke-miterlimit:4.9999;" d="
	M599.8,277.5V271"/>
<path id="Layer9_1_MEMBER_33_1_STROKES" style="fill:none;stroke:#1A181B;stroke-width:0.15;stroke-miterlimit:4.9999;" d="
	M589.8,277.5V271"/>
<path id="Layer9_1_MEMBER_34_1_STROKES" style="fill:none;stroke:#1A181B;stroke-width:0.15;stroke-miterlimit:4.9999;" d="
	M589.8,271.8h10"/>
<path id="Layer9_1_MEMBER_35_1_STROKES" style="fill:none;stroke:#1A181B;stroke-width:0.15;stroke-miterlimit:4.9999;" d="
	M590.8,237.5l-0.7,0.2l-0.3,0.7"/>
<path id="Layer9_1_MEMBER_36_1_STROKES" style="fill:none;stroke:#1A181B;stroke-width:0.15;stroke-miterlimit:4.9999;" d="
	M599.8,238.5l-0.3-0.7l-0.7-0.2"/>
<path id="Layer9_1_MEMBER_37_1_STROKES" style="fill:none;stroke:#1A181B;stroke-width:0.15;stroke-miterlimit:4.9999;" d="
	M590.8,237.5h8"/>
<path id="Layer9_1_MEMBER_38_1_STROKES" style="fill:none;stroke:#1A181B;stroke-width:0.15;stroke-miterlimit:4.9999;" d="
	M599.8,245.1v-6.5"/>
<path id="Layer9_1_MEMBER_39_1_STROKES" style="fill:none;stroke:#1A181B;stroke-width:0.15;stroke-miterlimit:4.9999;" d="
	M589.8,245.1v-6.5"/>
<path id="Layer9_1_MEMBER_40_1_STROKES" style="fill:none;stroke:#1A181B;stroke-width:0.15;stroke-miterlimit:4.9999;" d="
	M589.8,244.3h10"/>
<path id="Layer9_1_MEMBER_41_1_STROKES" style="fill:none;stroke:#1A181B;stroke-width:0.15;stroke-miterlimit:4.9999;" d="
	M588.2,269.4v-22.8"/>
<path id="Layer9_1_MEMBER_42_1_STROKES" style="fill:none;stroke:#1A181B;stroke-width:0.15;stroke-miterlimit:4.9999;" d="
	M588.5,245.8l-0.2,0.4v0.4"/>
<path id="Layer9_1_MEMBER_43_1_STROKES" style="fill:none;stroke:#1A181B;stroke-width:0.15;stroke-miterlimit:4.9999;" d="
	M589.8,245.1l-0.7,0.2l-0.6,0.6"/>
<path id="Layer9_1_MEMBER_44_1_STROKES" style="fill:none;stroke:#1A181B;stroke-width:0.15;stroke-miterlimit:4.9999;" d="
	M601.3,246.6l-0.1-0.4l-0.2-0.4l-0.6-0.6l-0.7-0.2"/>
<path id="Layer9_1_MEMBER_45_1_STROKES" style="fill:none;stroke:#1A181B;stroke-width:0.15;stroke-miterlimit:4.9999;" d="
	M601.3,269.4v-22.8"/>
<path id="Layer9_1_MEMBER_46_1_STROKES" style="fill:none;stroke:#1A181B;stroke-width:0.15;stroke-miterlimit:4.9999;" d="
	M601.1,270.2l0.2-0.4l0.1-0.4"/>
<path id="Layer9_1_MEMBER_47_1_STROKES" style="fill:none;stroke:#1A181B;stroke-width:0.15;stroke-miterlimit:4.9999;" d="
	M599.8,271l0.7-0.2l0.6-0.6"/>
<path id="Layer9_1_MEMBER_48_1_STROKES" style="fill:none;stroke:#1A181B;stroke-width:0.15;stroke-miterlimit:4.9999;" d="
	M588.2,269.4v0.4l0.2,0.4l0.6,0.6l0.7,0.2"/>
<path style="fill:#CCCCCC;" d="M284.1,245.5c0-0.4-0.1-0.7-0.4-1c-0.3-0.3-0.6-0.4-1-0.4h-10.5c-0.4,0-0.7,0.1-0.9,0.4
	c-0.2,0.3-0.4,0.6-0.4,1v23.1c0,0.4,0.1,0.7,0.4,0.9c0.3,0.2,0.6,0.4,0.9,0.4h10.5c0.4,0,0.7-0.1,1-0.4c0.2-0.3,0.4-0.6,0.4-0.9
	V245.5z"/>
<path style="fill:#CCCCCC;" d="M273.9,236.2c-0.4,0-0.7,0.1-1,0.4c-0.2,0.3-0.4,0.6-0.4,0.9V276c0,0.4,0.1,0.7,0.4,1
	c0.3,0.2,0.6,0.4,1,0.4h7.4c0.4,0,0.7-0.1,1-0.4c0.2-0.3,0.3-0.6,0.3-1v-38.5c0-0.3-0.1-0.6-0.3-0.9c-0.3-0.2-0.6-0.4-1-0.4H273.9z"
	/>
<path id="Layer9_2_MEMBER_1_1_STROKES" style="fill:none;stroke:#1A181B;stroke-width:0.15;stroke-miterlimit:4.9999;" d="
	M280.2,273.9l-0.3-1.3l-0.8-0.8"/>
<path id="Layer9_2_MEMBER_2_1_STROKES" style="fill:none;stroke:#1A181B;stroke-width:0.15;stroke-miterlimit:4.9999;" d="
	M276.7,271.6l-0.4,0.1l-1,0.9l-0.4,1.3l0.4,1.4l0.4,0.4"/>
<path id="Layer9_2_MEMBER_3_1_STROKES" style="fill:none;stroke:#1A181B;stroke-width:0.15;stroke-miterlimit:4.9999;" d="
	M278,276.5l0.9-0.2l1-0.9v-0.2l0.3-1.2"/>
<path id="Layer9_2_MEMBER_4_1_STROKES" style="fill:none;stroke:#1A181B;stroke-width:0.15;stroke-miterlimit:4.9999;" d="
	M280.2,239.6l-0.3-1.3l-0.8-0.9"/>
<path id="Layer9_2_MEMBER_5_1_STROKES" style="fill:none;stroke:#1A181B;stroke-width:0.15;stroke-miterlimit:4.9999;" d="
	M276.7,237.2l-0.4,0.1l-1,1l-0.4,1.3l0.4,1.3l0.4,0.4"/>
<path id="Layer9_2_MEMBER_6_1_STROKES" style="fill:none;stroke:#1A181B;stroke-width:0.15;stroke-miterlimit:4.9999;" d="
	M278,242.1l0.9-0.3l1-0.9v-0.2l0.3-1.1"/>
<path id="Layer9_2_MEMBER_7_1_STROKES" style="fill:none;stroke:#1A181B;stroke-width:0.15;stroke-miterlimit:4.9999;" d="
	M279.4,273.9l-0.3-1.1l-0.9-0.6h-1.1l-0.9,0.6l-0.4,1.1l0.4,1.1l0.9,0.6h1.1l0.9-0.6L279.4,273.9z"/>
<path id="Layer9_2_MEMBER_8_1_STROKES" style="fill:none;stroke:#1A181B;stroke-width:0.15;stroke-miterlimit:4.9999;" d="
	M277.1,241.3h1.1l0.9-0.6l0.3-1.1l-0.3-1.1l-0.9-0.7h-1.1l-0.9,0.7l-0.4,1.1l0.4,1.1L277.1,241.3z"/>
<path id="Layer9_2_MEMBER_9_1_STROKES" style="fill:none;stroke:#1A181B;stroke-width:0.15;stroke-miterlimit:4.9999;" d="
	M271.4,242.7h1.2"/>
<path id="Layer9_2_MEMBER_10_1_STROKES" style="fill:none;stroke:#1A181B;stroke-width:0.15;stroke-miterlimit:4.9999;" d="
	M275.1,242.7h5"/>
<path id="Layer9_2_MEMBER_11_1_STROKES" style="fill:none;stroke:#1A181B;stroke-width:0.15;stroke-miterlimit:4.9999;" d="
	M282.7,242.7h1.2"/>
<path id="Layer9_2_MEMBER_12_1_STROKES" style="fill:none;stroke:#1A181B;stroke-width:0.15;stroke-miterlimit:4.9999;" d="
	M271.4,270.8h1.2"/>
<path id="Layer9_2_MEMBER_13_1_STROKES" style="fill:none;stroke:#1A181B;stroke-width:0.15;stroke-miterlimit:4.9999;" d="
	M275.1,270.8h5"/>
<path id="Layer9_2_MEMBER_14_1_STROKES" style="fill:none;stroke:#1A181B;stroke-width:0.15;stroke-miterlimit:4.9999;" d="
	M282.7,270.8h1.2"/>
<path id="Layer9_2_MEMBER_15_1_STROKES" style="fill:none;stroke:#1A181B;stroke-width:0.15;stroke-miterlimit:4.9999;" d="
	M283.9,244.4v-1.7"/>
<path id="Layer9_2_MEMBER_16_1_STROKES" style="fill:none;stroke:#1A181B;stroke-width:0.15;stroke-miterlimit:4.9999;" d="
	M271.4,244.4v-1.7"/>
<path id="Layer9_2_MEMBER_17_1_STROKES" style="fill:none;stroke:#1A181B;stroke-width:0.15;stroke-miterlimit:4.9999;" d="
	M271.4,276.9l0.4,1.4l1,1.1l1.4,0.4h6.8l1.4-0.4l1.1-1.1l0.4-1.4"/>
<path id="Layer9_2_MEMBER_18_1_STROKES" style="fill:none;stroke:#1A181B;stroke-width:0.15;stroke-miterlimit:4.9999;" d="
	M283.9,236.7l-0.4-1.4l-1.1-1.1l-1.4-0.4"/>
<path id="Layer9_2_MEMBER_19_1_STROKES" style="fill:none;stroke:#1A181B;stroke-width:0.15;stroke-miterlimit:4.9999;" d="
	M274.2,233.8h6.8"/>
<path id="Layer9_2_MEMBER_20_1_STROKES" style="fill:none;stroke:#1A181B;stroke-width:0.15;stroke-miterlimit:4.9999;" d="
	M274.2,233.8l-1.4,0.4l-1,1.1l-0.4,1.4"/>
<path id="Layer9_2_MEMBER_21_1_STROKES" style="fill:none;stroke:#1A181B;stroke-width:0.15;stroke-miterlimit:4.9999;" d="
	M283.9,270.8v-1.7"/>
<path id="Layer9_2_MEMBER_22_1_STROKES" style="fill:none;stroke:#1A181B;stroke-width:0.15;stroke-miterlimit:4.9999;" d="
	M283.9,242.7v-6"/>
<path id="Layer9_2_MEMBER_23_1_STROKES" style="fill:none;stroke:#1A181B;stroke-width:0.15;stroke-miterlimit:4.9999;" d="
	M283.9,276.9v-6"/>
<path id="Layer9_2_MEMBER_24_1_STROKES" style="fill:none;stroke:#1A181B;stroke-width:0.15;stroke-miterlimit:4.9999;" d="
	M271.4,270.8v-1.7"/>
<path id="Layer9_2_MEMBER_25_1_STROKES" style="fill:none;stroke:#1A181B;stroke-width:0.15;stroke-miterlimit:4.9999;" d="
	M271.4,276.9v-6"/>
<path id="Layer9_2_MEMBER_26_1_STROKES" style="fill:none;stroke:#1A181B;stroke-width:0.15;stroke-miterlimit:4.9999;" d="
	M271.4,242.7v-6"/>
<path id="Layer9_2_MEMBER_27_1_STROKES" style="fill:none;stroke:#1A181B;stroke-width:0.15;stroke-miterlimit:4.9999;" d="
	M272.6,243.8h10"/>
<path id="Layer9_2_MEMBER_28_1_STROKES" style="fill:none;stroke:#1A181B;stroke-width:0.15;stroke-miterlimit:4.9999;" d="
	M272.6,269.7h10"/>
<path id="Layer9_2_MEMBER_29_1_STROKES" style="fill:none;stroke:#1A181B;stroke-width:0.15;stroke-miterlimit:4.9999;" d="
	M272.6,276.2l0.3,0.7l0.7,0.3"/>
<path id="Layer9_2_MEMBER_30_1_STROKES" style="fill:none;stroke:#1A181B;stroke-width:0.15;stroke-miterlimit:4.9999;" d="
	M281.6,277.2l0.7-0.3l0.3-0.7"/>
<path id="Layer9_2_MEMBER_31_1_STROKES" style="fill:none;stroke:#1A181B;stroke-width:0.15;stroke-miterlimit:4.9999;" d="
	M273.6,277.2h8"/>
<path id="Layer9_2_MEMBER_32_1_STROKES" style="fill:none;stroke:#1A181B;stroke-width:0.15;stroke-miterlimit:4.9999;" d="
	M282.6,276.2v-6.5"/>
<path id="Layer9_2_MEMBER_33_1_STROKES" style="fill:none;stroke:#1A181B;stroke-width:0.15;stroke-miterlimit:4.9999;" d="
	M272.6,276.2v-6.5"/>
<path id="Layer9_2_MEMBER_34_1_STROKES" style="fill:none;stroke:#1A181B;stroke-width:0.15;stroke-miterlimit:4.9999;" d="
	M272.6,270.5h10"/>
<path id="Layer9_2_MEMBER_35_1_STROKES" style="fill:none;stroke:#1A181B;stroke-width:0.15;stroke-miterlimit:4.9999;" d="
	M273.6,236.3l-0.7,0.2l-0.3,0.7"/>
<path id="Layer9_2_MEMBER_36_1_STROKES" style="fill:none;stroke:#1A181B;stroke-width:0.15;stroke-miterlimit:4.9999;" d="
	M282.6,237.3l-0.3-0.7l-0.7-0.2"/>
<path id="Layer9_2_MEMBER_37_1_STROKES" style="fill:none;stroke:#1A181B;stroke-width:0.15;stroke-miterlimit:4.9999;" d="
	M273.6,236.3h8"/>
<path id="Layer9_2_MEMBER_38_1_STROKES" style="fill:none;stroke:#1A181B;stroke-width:0.15;stroke-miterlimit:4.9999;" d="
	M282.6,243.8v-6.5"/>
<path id="Layer9_2_MEMBER_39_1_STROKES" style="fill:none;stroke:#1A181B;stroke-width:0.15;stroke-miterlimit:4.9999;" d="
	M272.6,243.8v-6.5"/>
<path id="Layer9_2_MEMBER_40_1_STROKES" style="fill:none;stroke:#1A181B;stroke-width:0.15;stroke-miterlimit:4.9999;" d="
	M272.6,243h10"/>
<path id="Layer9_2_MEMBER_41_1_STROKES" style="fill:none;stroke:#1A181B;stroke-width:0.15;stroke-miterlimit:4.9999;" d="
	M271.1,268.2v-22.8"/>
<path id="Layer9_2_MEMBER_42_1_STROKES" style="fill:none;stroke:#1A181B;stroke-width:0.15;stroke-miterlimit:4.9999;" d="
	M271.3,244.5l-0.2,0.4v0.4"/>
<path id="Layer9_2_MEMBER_43_1_STROKES" style="fill:none;stroke:#1A181B;stroke-width:0.15;stroke-miterlimit:4.9999;" d="
	M272.6,243.8l-0.7,0.2l-0.6,0.6"/>
<path id="Layer9_2_MEMBER_44_1_STROKES" style="fill:none;stroke:#1A181B;stroke-width:0.15;stroke-miterlimit:4.9999;" d="
	M284.2,245.4l-0.1-0.4l-0.2-0.4l-0.6-0.6l-0.7-0.2"/>
<path id="Layer9_2_MEMBER_45_1_STROKES" style="fill:none;stroke:#1A181B;stroke-width:0.15;stroke-miterlimit:5;" d="M284.1,268.2
	v-22.8"/>
<path id="Layer9_2_MEMBER_46_1_STROKES" style="fill:none;stroke:#1A181B;stroke-width:0.15;stroke-miterlimit:4.9999;" d="
	M283.9,268.9l0.2-0.4l0.1-0.4"/>
<path id="Layer9_2_MEMBER_47_1_STROKES" style="fill:none;stroke:#1A181B;stroke-width:0.15;stroke-miterlimit:4.9999;" d="
	M282.6,269.7l0.7-0.2l0.6-0.6"/>
<path id="Layer9_2_MEMBER_48_1_STROKES" style="fill:none;stroke:#1A181B;stroke-width:0.15;stroke-miterlimit:4.9999;" d="
	M271.1,268.2v0.4l0.2,0.4l0.6,0.6l0.7,0.2"/>
<g>
	<defs>
		<rect id="SVGID_1_" x="112.6" y="262.6" width="31.1" height="32.2"/>
	</defs>
	<clipPath id="SVGID_2_">
		<use xlink:href="#SVGID_1_"  style="overflow:visible;"/>
	</clipPath>
	<g style="clip-path:url(#SVGID_2_);enable-background:new    ;">
		<text transform="matrix(1 0 0 1 116.2961 286.8461)" style="fill:#FFFFFF; font-family:'ArialMT'; font-size:20.5525px;">K4</text>
	</g>
</g>
<text transform="matrix(1 0 0 1 31.5218 32.7626)" style="font-family:'Tahoma'; font-size:16px;">DC Contactor Box</text>
<path style="fill:none;stroke:#C0C0C0;stroke-width:0.55;stroke-miterlimit:5.9999;" d="M739.6,226.8l43.9-0.1
	c3.2,0,4.8,1.2,4.8,3.6l0.6,45.6c0,3.7-2.1,5.5-6.4,5.2l-16.1,0.2l0,2.5l3.2-0.3v10l-3.3-0.2l0,2.2l16.3,0.4
	c12.4-0.1,19.4-6.4,21-18.9l0.3-62c-0.2-4.3-2.7-6.3-7.7-5.9l-57.3,0.2"/>
<path style="fill:none;stroke:#C0C0C0;stroke-width:0.55;stroke-miterlimit:5.9999;" d="M661.6,107.6l-0.5,92l-3.4,2.9l-25,0.5
	c-4.4-1.1-6.4-2.8-6-5v-53.8l-6.2,0.3l1,7l-9-0.5l-0.3,61.6l9.3-0.1v7c-0.1-1.6,5.1,0.1,6-1c0.9-1.2,2.6-1.4,4.5-1.5l24.6,0.2
	c2.5,0.6,3.9,2.1,4.2,4.6c0.1,2.1,0.7,3.5,1.9,4.2c0.7,0.4,2.2,0.8,4.4,1l34.1-0.1"/>
<path style="fill:none;stroke:#C0C0C0;stroke-width:0.55;stroke-miterlimit:5.9999;" d="M688.8,105.6h118.5c3.9-0.1,5.8-2.8,5.8-7.9
	c0-5.2-1.9-7.7-5.8-7.7H689"/>
<line style="fill:none;stroke:#C0C0C0;stroke-width:0.55;stroke-miterlimit:5.9999;" x1="678.2" y1="136.4" x2="678.4" y2="107.8"/>
<polyline style="fill:none;stroke:#C0C0C0;stroke-width:0.55;stroke-miterlimit:5.9999;" points="707.8,177.8 807.4,178.2 
	807.2,160.8 707.4,160.2 "/>
<path style="fill:none;stroke:#C0C0C0;stroke-width:0.55;stroke-miterlimit:5.9999;" d="M700.7,209.5l-17.3,0.1
	c-3.4-0.5-5.3-2.2-5.5-5.2l0.2-25.2"/>
<path id="btn_k26_0_Layer1_0_MEMBER_0_1_STROKES_1_" style="fill:none;stroke:#000000;stroke-width:2;stroke-miterlimit:6;" d="
	M215.7,136.2h-5.4v6.5h-9.6v-6.5h-16.8v-7.5l-10.2,0.1l-0.1-23.2h10.3v-7.7h16.8V91h9.6v6.8h5.4V136.2z"/>
<path id="btn_k6_0_Layer1_0_MEMBER_0_1_STROKES_3_" style="fill:none;stroke:#000000;stroke-width:2;stroke-miterlimit:10;" d="
	M606.6,219l5.4,0l0-6.5l9.6-0.1l-0.1,6.5l16.8-0.1l0,7.5l10.2-0.2l0.1,23.3l-10.2,0.1l0,7.5l-16.8,0.2l0,6.7l-9.5,0.1l0-6.8l-5.4,0
	L606.6,219z"/>
<path id="btn_k21_0_Layer1_0_MEMBER_0_1_STROKES_1_" style="fill:none;stroke:#000000;stroke-width:2;stroke-miterlimit:10;" d="
	M265.3,154.4h-5.5v6.5h-9.6v-6.5h-16.8V147h-10.2v-23.3h10.2v-7.6h16.8v-6.8h9.7v6.8h5.5V154.4z"/>
<path id="btn_k2_0_Layer1_0_MEMBER_0_1_STROKES_9_" style="fill:none;stroke:#000000;stroke-width:2;stroke-miterlimit:10;" d="
	M658.2,65.6h23.2v10.3h7.7v16.8h6.8v9.6h-6.8v5.5h-38.3v-5.6h-6.5v-9.5h6.5V75.9h7.5L658.2,65.6z"/>
<path style="fill:none;stroke:#000000;stroke-width:2;stroke-miterlimit:10;" d="M131.1,195.6v16.8h-6.5v9.5h6.5v5.4h38.4l-0.1-5.4
	h6.8v-9.5h-6.7v-16.8h-7.7v-10.3h-23.3v10.3H131.1z"/>
<path id="btn_k2_0_Layer1_0_MEMBER_0_1_STROKES_8_" style="fill:none;stroke:#000000;stroke-width:2;stroke-miterlimit:10;" d="
	M708.6,186.2h23.2v10.3h7.7v16.8h6.8v9.6h-6.8v5.5h-38.3v-5.6h-6.5v-9.5h6.5v-16.8h7.5L708.6,186.2z"/>
<path id="btn_k6_0_Layer1_0_MEMBER_0_1_STROKES_2_" style="fill:none;stroke:#000000;stroke-width:2;stroke-miterlimit:10;" d="
	M264.2,226.5h-5.5v6.5h-9.6l0.1-6.5h-16.9V219l-10.2,0.1v-23.4h10.2v-7.5l16.9-0.1v-6.8h9.5v6.9h5.5V226.5z"/>
<path id="btn_k5_0_Layer1_0_1_STROKES_1_" style="fill:none;stroke:#000000;stroke-width:2;stroke-miterlimit:10;" d="M607.9,106.6
	h3.4v-6.8h9.6v6.8h16.8v7.7H648v23.3h-10.3v7.5h0h-16.8v6.5l-9.5-0.1V145h-5.5v-38.4L607.9,106.6v-0.5 M637.7,145v-7.5h0"/>
<path id="btn_k4_0_Layer1_0_MEMBER_0_1_STROKES_1_" style="fill:none;stroke:#000000;stroke-width:2;stroke-miterlimit:10;" d="
	M139.7,254.9v10.3h7.7V282h6.7v9.6h-6.7v5.4H109v-5.4h-6.5V282h6.5v-16.8h7.4V255L139.7,254.9z"/>
<path id="btn_k2_0_Layer1_0_MEMBER_0_1_STROKES_7_" style="fill:none;stroke:#000000;stroke-width:2;stroke-miterlimit:10;" d="
	M731.6,256.6h23.2v10.3h7.7v16.8h6.8v9.6h-6.8v5.5h-38.3v-5.6h-6.5v-9.5h6.5v-16.8h7.5L731.6,256.6z"/>
<path id="btn_k2_0_Layer1_0_MEMBER_0_1_STROKES_6_" style="fill:none;stroke:#000000;stroke-width:2;stroke-miterlimit:10;" d="
	M171.4,138.9h23.2v10.3h7.7V166h6.8v9.6h-6.8v5.5H164v-5.6h-6.5V166h6.5v-16.8h7.5L171.4,138.9z"/>
<path id="btn_k2_0_Layer1_0_MEMBER_0_1_STROKES_5_" style="fill:none;stroke:#000000;stroke-width:2;stroke-miterlimit:10;" d="
	M677.2,136.6h23.2v10.3h7.7v16.8h6.8v9.6h-6.8v5.5h-38.3v-5.6h-6.5v-9.5h6.5v-16.8h7.5L677.2,136.6z"/>
<path style="fill:none;stroke:#000000;stroke-width:2;stroke-miterlimit:10;" d="M267.8,244.6c0-1-0.5-1.5-1.5-1.5v-7h-10.7v7h-0.2
	c-1,0-1.5,0.5-1.5,1.5v23.5c0,1,0.5,1.5,1.5,1.5h0.2v7.8h10.7v-7.8c1,0,1.5-0.5,1.5-1.5V244.6z"/>
<path style="fill:none;stroke:#000000;stroke-width:2;stroke-miterlimit:10;" d="M284.8,244.6c0-1-0.5-1.5-1.5-1.5v-7h-10.8v7h-0.2
	c-1,0-1.5,0.5-1.5,1.5v23.5c0,1,0.5,1.5,1.5,1.5h0.2v7.8h10.8v-7.8c1,0,1.5-0.5,1.5-1.5V244.6z"/>
<path style="fill:none;stroke:#000000;stroke-width:2;stroke-miterlimit:10;" d="M601.6,245.7c0-1-0.5-1.5-1.5-1.5v-7h-10.8v7h-0.2
	c-1,0-1.5,0.5-1.5,1.5v23.5c0,1,0.5,1.5,1.5,1.5h0.2v7.8h10.8v-7.8c1,0,1.5-0.5,1.5-1.5V245.7z"/>
<text transform="matrix(1 0 0 1 609.5954 245.0961)" style="font-family:'ArialMT'; font-size:20.5525px;">K22</text>
<text transform="matrix(1 0 0 1 708.2966 219.0463)" style="font-family:'ArialMT'; font-size:20.5525px;">K7</text>
<text transform="matrix(1 0 0 1 677.4958 168.3461)" style="font-family:'ArialMT'; font-size:20.5525px;">K1</text>
<text transform="matrix(1 0 0 1 611.5954 133.496)" style="font-family:'ArialMT'; font-size:20.5525px;">K5</text>
<text transform="matrix(1 0 0 1 657.3962 97.6464)" style="font-family:'ArialMT'; font-size:20.5525px;">K9</text>
<text transform="matrix(1 0 0 1 731.946 290.1957)" style="font-family:'ArialMT'; font-size:20.5525px;">K3</text>
<text transform="matrix(1 0 0 1 559.9885 262.2058)" style="font-family:'MyriadPro-Regular'; font-size:16px;">RL1</text>
<text transform="matrix(1 0 0 1 289.0244 261.2082)" style="font-family:'MyriadPro-Regular'; font-size:16px;">RL2</text>
<text transform="matrix(1 0 0 1 225.8011 260.2082)" style="font-family:'MyriadPro-Regular'; font-size:16px;">RL3</text>
<text transform="matrix(1 0 0 1 116.2961 286.8461)" style="font-family:'ArialMT'; font-size:20.5525px;">K4</text>
<text transform="matrix(1 0 0 1 232.7961 216.0463)" style="font-family:'ArialMT'; font-size:20.5525px;">K6</text>
<text transform="matrix(1 0 0 1 138.2961 217.7465)" style="font-family:'ArialMT'; font-size:20.5525px;">K8</text>
<text transform="matrix(1 0 0 1 170.1457 170.7963)" style="font-family:'ArialMT'; font-size:20.5525px;">K2</text>
<text transform="matrix(1 0 0 1 226.5959 142.996)" style="font-family:'ArialMT'; font-size:20.5525px;">K21</text>
<text transform="matrix(1 0 0 1 175.7961 125.1464)" style="font-family:'ArialMT'; font-size:20.5525px;">K26</text>
</svg>
