<?xml version="1.0" encoding="utf-8"?>
<!-- Generator: Adobe Illustrator 25.0.1, SVG Export Plug-In . SVG Version: 6.00 Build 0)  -->
<svg version="1.1" id="Ebene_1" xmlns="http://www.w3.org/2000/svg" xmlns:xlink="http://www.w3.org/1999/xlink" x="0px" y="0px"
	 viewBox="0 0 293.6 209" style="enable-background:new 0 0 293.6 209;" xml:space="preserve">
<g>
	<path style="fill:#DA271E;" d="M153,24.5h-18.9v10.4H153V24.5z"/>
	<path style="fill:#DA271E;" d="M136.2,109.6L136.2,109.6l-0.4,0.1l-0.4,0.3l-0.5,0.5l-0.1,0.4v0.1l-0.1,0.1l-0.1,0.5v22.7l0.1,0.5
		l0.1,0.1v0.1l0.1,0.4l0.1,0.1l0.1,0.1l0.1,0.1h0.1l0.7,0.4h0.1l0.1,0.1l0.1,0.1h29.4l0.3-0.1l0.1-0.1h0.1l0.4-0.4l0.1-0.1h0.1
		l0.1-0.1v-0.1l0.1-0.1l0.3-0.4l0.1-0.8V112l-0.1-0.8l-0.3-0.4l-0.1-0.1v-0.1l-0.4-0.4l-0.4-0.3l-0.1-0.1l-0.1-0.1l-0.3-0.1h-0.1
		h-0.1h-28.7h-0.1h-0.1L136.2,109.6z"/>
	<path style="fill:#DA271E;" d="M147.8,157.3l-0.1,0.1v0.4l-0.1,0.1v22.4l0.1,0.1v0.4l0.1,0.1l0.1,0.1l0.1,0.1l0.1,0.1l0.4,0.7
		l0.1,0.1l0.1,0.1l0.1,0.1l0.3,0.1h0.1l0.5,0.1h0.1h0.3H179h0.4h0.1l0.4-0.1h0.1h0.1l0.1-0.1l0.1-0.1l0.1-0.1l0.1-0.1l0.1-0.3
		l0.1-0.1l0.1-0.1l0.1-0.1l0.1-0.1l0.1-0.1l0.1-0.7v-0.3l0.1-0.1v-22l-0.1-0.1v-0.3l-0.1-0.5l-0.3-0.5l-0.1-0.1l-0.1-0.1l-0.1-0.1
		l-0.1-0.1l-0.4-0.1h-0.1l-0.1-0.1l-0.5-0.1h-29.3l-0.7,0.1l-0.1,0.1h-0.1l-0.1,0.1l-0.1,0.1l-0.1,0.1l-0.1,0.1l-0.3,0.3l-0.1,0.3
		L147.8,157.3z"/>
	<path style="fill:#DA271E;" d="M153.3,63.8l-0.7-0.1h-29l-0.7,0.1l-0.5,0.3l-0.1,0.1v0.1l-0.1,0.1l-0.1,0.1l-0.1,0.1l-0.1,0.1
		l-0.1,0.1v0.3l-0.1,0.7v0.1v0.1v22.2v0.1v0.1l0.1,0.4l0.1,0.1l0.1,0.3l0.1,0.4l0.1,0.1l0.1,0.1l0.3,0.3l0.1,0.1l0.1,0.1l0.1,0.1
		l0.4,0.1l0.4,0.1h0.1l0.1,0.1h28.3l0.1-0.1h0.3l0.5-0.1l0.1-0.1h0.1l0.1-0.1l0.1-0.1l0.1-0.1l0.4-0.4l0.3-0.5l0.1-0.7V66l-0.1-0.7
		l-0.1-0.1l-0.1-0.1l-0.1-0.1l-0.1-0.1l-0.1-0.1v-0.1l-0.1-0.1l-0.1-0.1l-0.1-0.1l-0.4-0.1L153.3,63.8L153.3,63.8L153.3,63.8
		L153.3,63.8z"/>
	
		<path id="Layer2_6_MEMBER_4_1_STROKES" style="fill:none;stroke:#020203;stroke-width:0.45;stroke-linecap:round;stroke-linejoin:round;" d="
		M239.5,4H46.7l-2.6,2.6v198.6l2.6,2.7h192.7l2.6-2.7V6.7L239.5,4z M143.9,7.4L142.1,8l-0.8,1.9l0.8,1.9l1.8,0.7l1.6-0.7l1-1.9
		l-1-1.9L143.9,7.4z M149.7,10.4l0.4,0.1l0.8-0.1V9.7V9.2l-0.7-0.4l-0.4,0.3l-0.3,0.5L149.7,10.4z M148.2,9.7l-1.4-3.1l-3-1.1
		l-3.1,1.2l-1.4,3.1l1.4,3.1l3.1,1.4l3-1.4L148.2,9.7z M136.2,9.7l0.1,0.7l0.7,0.1l0.7-0.1V9.7V9.2L137,8.9l-0.7,0.3L136.2,9.7z
		 M135.4,9.7l0.7,1.1l1.1,0.4l1.2-0.4l0.7-1.1l-0.7-1.1l-1.2-0.4l-1.1,0.4L135.4,9.7z M137.8,9.7h0.4 M151,9.7h0.3 M69.8,9.1
		l-0.7,0.3L69,9.9l0.1,0.7l0.7,0.1l0.4-0.1l0.3-0.7l-0.3-0.5L69.8,9.1z M68.7,10.8l1.1,0.4l1.2-0.4l0.3-1.1l-0.3-1.1l-1.2-0.4
		l-1.1,0.4l-0.4,1.1L68.7,10.8z M74.1,9.7l0.7-1.9l1.6-0.4l1.9,0.4L79,9.7l-0.7,1.9l-1.9,0.7l-1.6-0.7L74.1,9.7z M73.7,12.9l2.9,1.4
		l3.1-1.4l1.5-3.1l-1.6-3l-3.1-1.1l-2.7,1.1l-1.4,3.1L73.7,12.9z M71.5,9.7h0.3 M70.6,9.7h0.3 M83.1,8.2l-1.2,0.4l-0.4,1.1l0.4,1.1
		l1.1,0.4l1.4-0.4l0.3-1.1l-0.3-1.1L83.1,8.2z M84.2,9.7h-0.3l-0.1,0.7l-0.7,0.1l-0.4-0.1l-0.3-0.7l0.3-0.5l0.4-0.3l0.5,0.3l0.1,0.5
		 M242.1,205.3h0.4"/>
	
		<path id="Layer2_6_MEMBER_5_1_STROKES" style="fill:none;stroke:#020203;stroke-width:0.45;stroke-linecap:round;stroke-linejoin:round;" d="
		M206.1,9.7l-0.7-1.1l-1.1-0.4l-1.1,0.4l-0.4,1.1l0.4,1.1l1.1,0.4l1.1-0.4L206.1,9.7z M204.3,9.1l-0.4,0.3l-0.4,0.5l0.4,0.7h0.4
		l0.5-0.1l0.1-0.7V9.2L204.3,9.1z M205.2,9.7h0.3 M217.7,9.1l-0.7,0.3l-0.1,0.5l0.1,0.7l0.7,0.1l0.4-0.1l0.4-0.7l-0.4-0.5L217.7,9.1
		z M218.6,9.7h0.3 M219.4,9.7L219,8.7l-1.1-0.4l-1.4,0.4l-0.1,1.1l0.1,1.1l1.4,0.4l1.1-0.4L219.4,9.7h0.4 M207.9,6.7l-1.4,3.1
		l1.4,3.1l3.1,1.4l3-1.4l1.2-3.1l-1.2-3.1l-3-1.1L207.9,6.7z M209.3,8l-0.7,1.9l0.7,1.9l1.9,0.7l1.8-0.7l0.4-1.9L213,8l-1.8-0.4
		L209.3,8z M215.3,9.7h0.4 M213.4,9.7h0.4 M149.2,10.8l1.1,0.4l1.4-0.4l0.4-1.1l-0.4-1.1l-1.4-0.4l-1.1,0.4l-0.4,1.1L149.2,10.8z
		 M152.1,9.7h0.4 M71.5,201.6l-0.3,1.1l-1.2,0.4l-1.1-0.4l-0.4-1.1l0.4-1.4l1.1-0.1l1.2,0.1L71.5,201.6h0.3 M70.6,201.6l-0.3,0.4
		l-0.4,0.3l-0.7-0.3l-0.1-0.4l0.1-0.7l0.7-0.1l0.4,0.1L70.6,201.6h0.3 M74.1,201.6l0.7-1.9l1.6-0.8l1.9,0.8l0.7,1.9l-0.7,1.8
		l-1.9,0.5l-1.6-0.5L74.1,201.6z M73.7,204.5l2.9,1.2l3.1-1.2l1.5-2.9l-1.5-3.3l-3.1-1.2l-2.9,1.2l-1.4,3.3L73.7,204.5z M83.9,201.6
		l-0.1,0.4l-0.5,0.3l-0.4-0.3l-0.3-0.4l0.3-0.7l0.4-0.1l0.5,0.1L83.9,201.6h0.3 M83.1,200.1l-1.1,0.1l-0.4,1.4l0.4,1.1l1.1,0.4
		l1.4-0.4l0.3-1.1l-0.3-1.4L83.1,200.1z"/>
	
		<path id="Layer2_6_MEMBER_6_1_STROKES" style="fill:none;stroke:#020203;stroke-width:0.45;stroke-linecap:round;stroke-linejoin:round;" d="
		M48.6,103.8l-0.7,1.9l0.7,1.6l1.8,0.7l1.9-0.7l0.4-1.6l-0.4-1.9l-1.9-0.7L48.6,103.8z M52.9,105.7h0.3 M146.9,198.3l1.4,3.3
		l-1.4,2.9l-3,1.2l-3.1-1.2l-1.4-2.9l1.4-3.3l3.1-1.2L146.9,198.3z M137.8,201.6v0.4l-0.7,0.3l-0.7-0.3l-0.1-0.4l0.1-0.7l0.7-0.1
		l0.7,0.1V201.6h0.4 M137.2,200.1l-1.1,0.1l-0.7,1.4l0.7,1.1l1.1,0.4l1.2-0.4l0.7-1.1l-0.7-1.4L137.2,200.1z M149.5,201.6l0.3,0.4
		l0.4,0.3l0.8-0.3v-0.4V201l-0.8-0.1l-0.4,0.1L149.5,201.6z M148.6,201.6l0.4,1.1l1.1,0.4l1.4-0.4l0.4-1.1l-0.4-1.4l-1.4-0.1
		l-1.1,0.1L148.6,201.6z M142.1,199.8l-0.8,1.9l0.8,1.8l1.8,0.5l1.6-0.5l1-1.8l-1-1.9l-1.6-0.8L142.1,199.8z M152.1,201.6h0.4
		 M151,201.6h0.3 M205.6,200.2l-1.1-0.1l-1.1,0.1l-0.4,1.4l0.4,1.1l1.1,0.4l1.1-0.4l0.7-1.1L205.6,200.2z M204.3,200.8l-0.4,0.1
		l-0.4,0.7l0.4,0.4l0.4,0.3l0.5-0.3l0.1-0.4l-0.1-0.7L204.3,200.8z M205.2,201.6h0.3 M215.6,201.6h-0.4l-1.2,2.9l-3,1.2l-3.1-1.2
		l-1.4-2.9l1.4-3.3l3.1-1.2l3,1.2l1.2,3.3 M216.2,201.6l0.1,1.1l1.4,0.4l1.1-0.4l0.4-1.1l-0.4-1.4l-1.1-0.1l-1.4,0.1L216.2,201.6z
		 M213.8,201.6h-0.4l-0.4,1.8l-1.8,0.5l-1.9-0.5l-0.7-1.8l0.7-1.9l1.9-0.8l1.8,0.8l0.4,1.9 M218.2,200.9l-0.4-0.1l-0.7,0.1l-0.1,0.7
		l0.1,0.4l0.7,0.3l0.4-0.3l0.4-0.4L218.2,200.9z M218.6,201.6h0.3 M219.4,201.6h0.4"/>
	
		<path id="Layer2_6_MEMBER_7_1_STROKES" style="fill:none;stroke:#020203;stroke-width:0.45;stroke-linecap:round;stroke-linejoin:round;" d="
		M52,29.7l-0.4,1.4l-1.1,0.1l-1.2-0.1l-0.4-1.5l0.4-1.1l1.1-0.4l1.1,0.4L52,29.7h0.4 M51.6,29.7h-0.3l-0.3,0.7l-0.4,0.1L50,30.4
		l-0.1-0.7l0.1-0.4l0.7-0.3l0.4,0.3l0.3,0.4 M55.2,36.3H55l-1.5,3.1l-3.1,1.1l-3.3-1.1l-0.8-3l1-3.3l3.3-1l3.1,1l1.4,3.3 M48.6,34.4
		l-0.7,1.9l0.7,1.9l1.9,0.4l1.9-0.4l0.4-1.9l-0.4-1.9l-2.1-0.5L48.6,34.4z M52.9,36.3h0.3 M50.4,41.2l-1.1,0.7L48.9,43l0.4,1.4
		l1.1,0.3l1.1-0.3l0.4-1.4l-0.4-1.1L50.4,41.2z M49.8,42.3l-0.1,0.5l0.1,0.5l0.5,0.3l0.4-0.1l0.3-0.5l-0.1-0.7L50.4,42L49.8,42.3z
		 M51.2,43h0.3 M52,43h0.4 M52,99.1l-0.4,1.1l-1.1,0.5l-1.1-0.5L49,99.1l0.4-1.2l1.1-0.4l1.1,0.4L52,99.1h0.4 M51.6,99.1h-0.3
		l-0.3,0.7h-0.5l-0.7-0.1L49.7,99l0.1-0.4l0.7-0.3l0.4,0.3l0.3,0.4 M47.2,102.5l-1,3.1l1,3l3.3,1.2l3.1-1.2l1.4-3l-1.4-3.1l-3.3-1.4
		L47.2,102.5z M55,105.7h0.1 M52.3,112.4h-0.4l-0.4,1.1l-1.1,0.4l-1.1-0.4l-0.4-1.1l0.4-1.1l1.1-0.5l1.1,0.5l0.4,1.1 M51.6,112.4
		h-0.3l-0.3,0.4l-0.4,0.3l-0.7-0.3l-0.1-0.4l0.1-0.7l0.7-0.1l0.4,0.1l0.3,0.7 M53.1,175h-0.4l-0.4,1.9l-1.9,0.8l-1.9-0.8l-0.7-1.9
		l0.7-1.5l1.9-0.7l1.9,0.7l0.4,1.5 M55.2,175H55l-1.4,3.3l-3.1,1.4l-3.3-1.4l-1-3.3l1-2.9l3.3-1.4l3.1,1.4L55,175"/>
	
		<path id="Layer2_6_MEMBER_8_1_STROKES" style="fill:none;stroke:#020203;stroke-width:0.45;stroke-linecap:round;stroke-linejoin:round;" d="
		M239.1,102.5l-3.3-1.4l-3,1.4l-1.2,3.1l1.2,3l3,1.2l3.3-1.2l1.2-3L239.1,102.5z M240.2,105.7h0.4 M44.1,23.6h-0.7l-1.8,1.4
		l-0.1,0.1v14.1l0.1,0.1l1.8,1.5h1.1 M44.1,143.6h-0.7l-1.8,1.5l-0.1,0.1v14.2l1.9,1.8h1.1 M52,168.3l-0.4,1.4l-1.1,0.4l-1.1-0.4
		l-0.4-1.4l0.4-1l1.1-0.7l1.1,0.7L52,168.3h0.4 M51.6,168.3h-0.3l-0.3,1H50l-0.1-1l0.1-0.4h1.1l0.3,0.4 M52.3,182h-0.4l-0.4,1
		l-1.1,0.7l-1.1-0.7l-0.4-1l0.4-1.4l1.1-0.4l1.1,0.4l0.4,1.4 M51.6,182h-0.3l-0.3,0.4H50l-0.1-0.4l0.1-1h1.1l0.3,1 M237.2,167.5
		l-1.4-0.7l-1.1,0.7l-0.4,1l0.4,1.4l1.1,0.4l1.4-0.4l0.1-1.4L237.2,167.5z M236.5,168.3l-0.1-0.4h-1.1l-0.3,0.4l0.3,1h1.1
		L236.5,168.3h0.3 M237.3,168.3h0.4 M239.1,172.2l-3.3-1.4l-3,1.4l-1.2,2.9l1.2,3.3l3,1.4l3.3-1.4l1.2-3.3L239.1,172.2z M240.2,175
		h0.4 M238.7,175h-0.3l-0.7,1.9l-1.9,0.8l-1.6-0.8l-0.7-1.9l0.7-1.5l1.6-0.7l1.9,0.7l0.7,1.5 M234.7,180.7l-0.4,1.4l0.4,1l1.1,0.7
		l1.4-0.7l0.1-1l-0.1-1.4l-1.4-0.4L234.7,180.7z M235,182l0.3,0.4h1.1l0.1-0.4l-0.1-1h-1.1L235,182z M236.5,182h0.3 M237.3,182h0.4"
		/>
	
		<path id="Layer2_6_MEMBER_9_1_STROKES" style="fill:none;stroke:#020203;stroke-width:0.45;stroke-linecap:round;stroke-linejoin:round;" d="
		M237.2,28.5l-1.4-0.4l-1.1,0.4l-0.4,1.1l0.4,1.5l1.1,0.1l1.4-0.1l0.1-1.5L237.2,28.5z M236.4,29.2l-0.5-0.3l-0.4,0.3l-0.3,0.4
		l0.3,0.7l0.4,0.1l0.5-0.1l0.1-0.7L236.4,29.2z M236.5,29.7h0.3 M237.3,29.7h0.4 M240.6,36.3h-0.4l-1.2,3.1l-3.3,1.1l-3-1.1
		l-1.2-3.1l1.2-3.3l3-1l3.3,1l1.2,3.3 M238.7,36.3h-0.3l-0.7,1.9l-1.9,0.4l-1.6-0.4l-0.7-1.9l0.7-1.9l1.6-0.7l1.9,0.7l0.7,1.9
		 M235.3,42.3l-0.3,0.5l0.3,0.5l0.4,0.1l0.5-0.1l0.1-0.5l-0.1-0.5l-0.5-0.4L235.3,42.3z M234.7,41.9l-0.4,1.1l0.4,1.4l1.1,0.3
		l1.4-0.3l0.1-1.4l-0.1-1.1l-1.4-0.7L234.7,41.9z M237.3,43h0.4 M236.5,43h0.3 M238.7,105.7h-0.3l-0.7,1.6l-1.9,0.7l-1.6-0.7
		l-0.7-1.6l0.7-1.9l1.6-0.7l1.9,0.7l0.7,1.9 M237.2,97.7l-1.4-0.4l-1.1,0.4l-0.4,1.2l0.4,1.1l1.1,0.5l1.4-0.5l0.1-1.1L237.2,97.7z
		 M236.4,98.4l-0.5-0.3l-0.4,0.3l-0.3,0.4l0.3,0.7l0.4,0.1l0.5-0.1l0.1-0.7L236.4,98.4z M237.3,99.1h0.4 M236.5,99.1h0.3
		 M235.3,111.7l-0.3,0.7l0.3,0.4l0.4,0.3l0.5-0.3l0.1-0.4l-0.1-0.7l-0.5-0.1L235.3,111.7z M234.7,111.3l-0.4,1.1l0.4,1.1l1.1,0.4
		l1.4-0.4l0.1-1.1l-0.1-1.1l-1.4-0.5L234.7,111.3z M237.3,112.4h0.4 M236.5,112.4h0.3 M242.1,64.1h8.1l0.5-0.3l0.3-0.4l-0.3-0.4
		l-0.5-0.4h-8.1 M242.1,58.5h8.1 M242.1,57.4h8.1"/>
	
		<path id="Layer2_6_MEMBER_10_1_STROKES" style="fill:none;stroke:#020203;stroke-width:0.45;stroke-linecap:round;stroke-linejoin:round;" d="
		M242.1,42h8.1l0.5-0.1l0.3-0.4l-0.3-0.4l-0.4-0.1l-0.1-0.1h-8.1 M242.1,47.7h8.1l0.5-0.1l0.3-0.7l-0.3-0.4l-0.5-0.4h-8.1
		 M242.1,52.9h8.6l0.3-0.4l-0.3-0.4l-0.5-0.3h-8.1 M250.2,58.5l0.5-0.1l0.3-0.5l-0.3-0.4h-0.4 M242.1,69.4h8.6l0.3-0.5l-0.3-0.7
		l-0.5-0.1h-8.1 M242.1,79.9h8.6l0.3-0.4l-0.3-0.4l-0.5-0.3h-8.1 M242.1,74.9h8.1l0.5-0.4l0.3-0.4l-0.3-0.5l-0.5-0.1h-8.1
		 M242.1,85.6h8.1l0.5-0.1l0.3-0.5l-0.3-0.5h-8.6 M242.1,89.5h8.1l0.5,0.4l0.3,0.4l-0.3,0.4l-0.5,0.1h-8.1 M242.1,101.7h8.1l0.5-0.1
		l0.3-0.5l-0.3-0.4l-0.4-0.1l-0.1-0.1h-8.1 M242.1,96.4h8.1l0.5-0.1l0.3-0.7l-0.3-0.4l-0.5-0.3h-8.1 M250.2,107l0.5-0.3l0.3-0.5
		l-0.3-0.5h-0.4"/>
	
		<path id="Layer2_6_MEMBER_11_1_STROKES" style="fill:none;stroke:#020203;stroke-width:0.45;stroke-linecap:round;stroke-linejoin:round;" d="
		M242.1,33.8l1.6,0.7l1.2-0.7l0.7-1.6l-0.7-1.6l-1.2-0.4l-1.6,0.4 M251.7,25.5h-0.1v14h0.1 M251.4,39.4l-1.2,1.4 M242.1,117.8h8.1
		l0.5-0.1l0.3-0.4l-0.3-0.5l-0.5-0.3h-8.1 M242.1,112.5h8.1l0.5-0.1l0.3-0.7l-0.3-0.4l-0.5-0.3h-8.1 M251.4,25.5l-1.9-1.8h-7.4
		 M242.1,107h8.1 M242.1,105.7h8.1 M242.1,121.5h8.1l0.5,0.3l0.3,0.5l-0.3,0.4l-0.5,0.4h-8.1 M242.1,128.4h8.6l0.3-0.7l-0.3-0.4
		l-0.5-0.4h-8.1 M242.1,139.3h8.1l0.5-0.3l0.3-0.3l-0.3-0.4l-0.5-0.3h-8.1 M242.1,134h8.1l0.5-0.3l0.3-0.4l-0.3-0.7h-8.6
		 M242.1,144.9h7.4h0.7l0.5-0.4l0.3-0.5l-0.3-0.4l-0.5-0.4h-8.1 M242.1,161.9h6.8l0.1-0.1l1.8-1.5V146l-1.4-1.1 M242.1,154.7
		l1.6,0.4l1.2-0.4l0.7-1.5l-0.7-1.6l-1.2-0.4l-1.6,0.4"/>
	
		<path id="Layer2_6_MEMBER_12_1_STROKES" style="fill:none;stroke:#020203;stroke-width:0.45;stroke-linecap:round;stroke-linejoin:round;" d="
		M104.9,145.9l-1.6,1.6l0.4-0.1l1.1-0.4h1.1l1.1,0.4l0.1,0.4l0.7,0.4l0.1,0.7v0.7l0.3,0.7v0.8l-0.3,0.4l-0.1,0.7l-0.7,1.1l-1.1,0.5
		l-0.4,0.1H105l-0.5-0.1l-0.4-0.3l-0.7-0.3l-0.1-0.4l-0.7-0.7l-0.1-0.7v-1.9l0-0.5l0.3-0.7l0.3-0.4l-0.7,0.7 M103.2,154.7l-0.4,0.1
		l-0.4-0.1l-0.7,0.1H101l-0.4-0.1l-1.1-1.1l-0.7-0.4l-0.1-1l-0.3-0.7v-2.3l0.4-0.7l0.3-0.7l0.4-0.7l0.7-0.1l1.4-0.7h0.5h1l-2.2,2.1
		 M103.1,147.5L103.1,147.5L103.1,147.5L103.1,147.5z M102.3,154.7l-1-0.3l-0.4-0.3l-0.7-1.1l-0.7-1.6l-0.1-0.8l0.1-0.7V149l0.3-0.7
		l0.7-0.7l0.1-0.7l0.7-0.1l0.7-0.7 M102,163.7h1.6l1.1,0.7h0.1l0.3,0.4l0.1,0.1l0.7,0.4l0.7,1.9v2.2l-0.1,0.7l-0.7,1.1l-1.9,1.6
		h-1.2l-0.4-0.3l-0.5,0.3l-0.7-0.3l-0.4-0.4l-0.7-0.1l-1-1.1l-0.7-1.5v-1.8l0.7-1.5l0.1-0.7l1.1-0.8l0.7-0.5h1.4l0.1-0.1L102,163.7z
		 M103.6,163.7l-1.1,0.7h0.5l0.4-0.3l0.7,0.3h0.1l0.4,0.4 M105.4,171.2l-0.5,0.1l-0.3,0.3l-0.7,0.3h-0.7l-1.2-0.7l-0.5-0.7l-0.1-0.3
		h-0.7v0.3l3,2.2 M101.3,170.3l-0.1-0.1l-0.3-0.7v-2.2l0.3-0.5l0.1-0.8l0.3-0.4l0.7-0.4l0.1-0.3l-1.8,1.4v4.2l-1.2,0.3l2.6,1.9
		 M102.4,164.6l0.1-0.1h-0.1V164.6z M100.6,166h-1.2v4.5 M101.8,163.8l-2.5,2.2"/>
	
		<path id="Layer2_6_MEMBER_13_1_STROKES" style="fill:none;stroke:#020203;stroke-width:0.45;stroke-linecap:round;stroke-linejoin:round;" d="
		M99,115h2.7 M167.8,111l-0.4-0.7l-0.8-0.4h-30.4l-1.1,0.4l-0.3,0.7h0.3 M166.6,136.3l0.8-0.4l0.4-1.1h0.3 M134.8,134.8l0.3,1.1
		l1.1,0.4 M116.2,129.1v-5.7 M106.2,147l-1.1-1.1l-0.1-0.1h-1.6 M106.9,153.3l-1.6,1.5h-1.6l-3-1.9v-4.5h1.6v4.1v0.4l2.7,1.9
		 M102.3,152.5l-1.6,0.4 M108,130.3h7 M106.9,131.5v15.7 M99,173.8h6.7 M97.7,116.2v56.2H98"/>
	
		<path id="Layer2_6_MEMBER_14_1_STROKES" style="fill:none;stroke:#020203;stroke-width:0.45;stroke-linecap:round;stroke-linejoin:round;" d="
		M134.8,134.8v-23.9h0.3 M166.6,136.3h-3.7l0.4,0.7l-0.4,0.8l-0.7,0.3l-0.7-0.3l-0.4-0.8l0.7-0.7h-3.3l0.5,0.7l-0.4,0.8l-0.7,0.3
		l-0.8-0.3l-0.5-0.8l0.5-0.7h-2.9l0.3,0.7l-0.3,0.8l-0.7,0.3l-0.8-0.3l-0.3-0.8l0.4-0.7h-2.7l0.1,0.7h0.4 M152.9,136.3h1.4
		 M157.3,136.3h1.4 M167.8,111V135h0.3 M161.8,136.3h1.2 M141.3,136.3h-1.4l-0.3,0.7l0.3,0.8l0.7,0.3l0.7-0.3l0.1-0.8L141.3,136.3h3
		h1.2h3l0.7-0.3l1,0.3h-1.8L148,137l0.4,0.8l0.7,0.3l1-0.3l0.1-0.8 M136.5,136.3h3.7 M144.1,136.3l-0.7,0.7l0.3,0.8l0.8,0.3l0.7-0.3
		l0.3-0.8l-0.3-0.7 M103.9,137.6h-0.3h-1.2l-0.4-0.3l-0.5,0.3l-0.7-0.4h-0.4l-0.7-0.4l-1-1.1L98,134v-1.6l0.7-1.6l0.1-0.7l1.1-0.8
		l1.4-0.5h0.7l0.1-0.1h1.4h0.3 M103.6,128.4l-3,2.3v4.2l0.3-0.1h0.4l-0.1-0.1l-0.3-0.7v-2.2l0.3-0.4l0.5-1.5l0.7-0.3l0.1-0.1
		l0.7-0.4h1.2l0.3,0.4l1.1,0.4l0.1,0.7l0.5,1.1v2.2l-0.1,0.7l-0.7,1.1l-0.5,0.1l-0.3,0.3l-0.7,0.3h-0.7l-1.2-0.7l-0.5-0.7l-0.1-0.3
		 M101.8,137.3l-2.6-1.9v-4.5l0.1-0.1l2.5-2.1 M103.6,137.6l-3-2.2v-0.1l-1.1,0.1h-0.1"/>
	
		<path id="Layer2_6_MEMBER_15_1_STROKES" style="fill:none;stroke:#020203;stroke-width:0.45;stroke-linecap:round;stroke-linejoin:round;" d="
		M224.9,19.9H103.1v2.2h0.7v1.1h-2.6v14.5H65.9 M101.3,23.2h-0.7v1.6h-0.3V27h0.3 M100.1,24.8h-2.5V27h2.5 M97.7,24.8h-0.4
		 M44.1,17.5h13.4h5.2v1.1V20h1.2h1.9h37.2 M62.7,18.5l-1.6,0.8l-0.8,1.5h0.4 M63.9,19.9v2.2h1.9v-2.2 M62.7,20.8v-1.1l-1,0.4
		L61.3,21L62.7,20.8L62.7,20.8z M63.9,22.1h-0.7v1.1h3.4H70h30.7 M57.6,20.8v-3.4 M67.2,24.7v2.1h2.1v-2.1H67.2h-0.7V23 M69.3,24.7
		H70V23 M69.3,26.7h0.3 M61.3,20.8v10.9h0.3 M60.2,20.8v10.9h1.1 M98,116.2h-0.3l0.7-1.1l0.7-0.1H98l-1.1,0.3l-0.3,1v56.2l0.1,1.1
		l1.1,0.4H99l-0.7-0.4l-0.7-1.1 M99.4,115h-0.3 M103.1,22.1H65.9 M114.7,130.3l1.1-0.5l0.4-0.7 M104.9,129.6l-1.4-1.1 M99.4,130.7
		h1.6 M103.6,137.6l1.9-1.6h0.3 M108,130.3l-1.1,0.1l-0.1,1.1 M99,173.8h0.3 M105.4,173.8l0.7-0.4l0.7-1.1 M60.2,31.8v158.6h0.4
		 M44.1,193.1h16"/>
	
		<path id="Layer2_6_MEMBER_16_1_STROKES" style="fill:none;stroke:#020203;stroke-width:0.45;stroke-linecap:round;stroke-linejoin:round;" d="
		M101.3,22.1v-2.2 M97.2,23.2v1.6h0.3 M60.2,20.8h-2.6 M65.9,23.2v14.5h0.4 M121.8,65.2h-0.3v24.1l0.3,0.7l1.1,0.7h3.8h1.4h2.7h1.5
		h3l0.7-0.4l0.4,0.4h3h1.6h2.9h1.4h3h1.5h3.4l0.8-0.7l0.5-0.7V65.2l-0.5-0.7l-0.8-0.5h-30.4l-1.1,0.5l-0.3,0.7 M128,90.6l0.4,0.7
		l-0.3,0.8l-0.7,0.1l-0.7-0.1l-0.5-0.8l0.5-0.7 M132.2,90.6l0.3,0.7l-0.3,0.8l-0.7,0.1l-0.7-0.1l-0.3-0.8l0.4-0.7 M135.2,90.6
		l-0.7,0.7l0.7,0.8l0.7,0.1l0.4-0.1l0.7-0.8l-0.7-0.7H135.2z M139.3,90.6l-0.3,0.7l0.3,0.8l0.7,0.1l0.8-0.1l0.3-0.8l-0.3-0.7
		 M143.9,90.6l-0.4,0.7l0.1,0.8l1.1,0.1l0.7-0.1l0.3-0.8l-0.4-0.7 M149.7,90.6l0.4,0.7l-0.4,0.8l-0.7,0.1l-0.7-0.1l-0.3-0.8l0.3-0.7
		 M148.2,157H148v23.9l0.3,1.1l1,0.4h30.1l1.1-0.4l0.4-1.1V157l-0.4-0.7l-1-0.4h-30.2l-1,0.4L148,157 M60.2,139.5h33.7v-12v-1.1
		H60.2 M96.9,127.4h-3.1 M180.8,181.1h0.4"/>
	
		<path id="Layer2_6_MEMBER_17_1_STROKES" style="fill:none;stroke:#020203;stroke-width:0.45;stroke-linecap:round;stroke-linejoin:round;" d="
		M60.2,120.6h17.5v-10.1H60.2 M60.2,114.7h1.6v1.5h-1.6 M77.8,110.5H78 M78,120.6h-0.3 M72.2,145.8v3.8h2.5v-3.8H72.2h-3.4v1.9H69
		 M72.2,149.6v2.5h2.5h1h1.4H78h0.8v-2.5H78h-1.1h-1.4h-1 M60.2,143.8h0.8h0.3 M60.2,156.7h0.8v-3.4v-1.5v-3.3v-0.8v-3.8
		 M62.4,148.5H62v0.5h2.7H65 M65,151.4h-0.3H62v0.4h0.4 M64.8,151.4V149 M62.2,151.4V149 M61.1,151.8h1.1 M62.2,148.5h-1.1
		 M61.1,156.7h0.3 M68.7,147.7v5.6H69 M98,156.7H80.8v-4.2l-2.7,0.4v3h-1.1h-1.4h-1h-2.5h-3.4v-2.5h-7.8 M61.1,147.7h7.8
		 M74.6,155.8v-3.8 M72.2,152.1v3.8 M74.6,145.8h1h1.4H78v2.7l2.7,0.3v-4.9h16.8 M78,148.5v1.1 M81,148.8h-0.3v3.7H81 M75.6,145.8
		v3.8 M77.1,149.6v-3.8 M60.2,161.2h33.7v1.1h3 M77.1,155.8v-3.8 M75.6,155.8v-3.8 M78,152.1v0.8 M96.9,173.1h-3.1v1.4H60.1
		 M60.2,179h1.1h0.3 M61.3,179v11.1h1.1h0.3 M61.6,190.4h-0.3l0.4,0.7l0.7,0.3V190 M61.3,190.1v0.3 M62.7,192.6h-0.3v0.4h0.3
		 M60.2,190.4l0.7,1.4l1.6,0.7v-1H225 M57.6,190.1v2.9h0.4 M60.2,193.1h2.2 M93.8,162.3v10.8 M93.8,138.2h3.1"/>
	
		<path id="Layer2_6_MEMBER_18_1_STROKES" style="fill:none;stroke:#020203;stroke-width:0.45;stroke-linecap:round;stroke-linejoin:round;" d="
		M129.8,181.1h-2.3V180h2.3V181.1z M130.7,179.6h-0.3v1.8h0.4h0.4 M87.5,174.5l17.2,8.3l18.7,2.3h0.3v-1.5v-1.5h3v-0.8h0.1v-1.8h3.4
		 M123.7,183.7h3v-1.5h0.1 M126.9,185.4v-0.3h-1.6v2.2h0.7h3v-2.2H127v-0.8h0.4v-0.7h-0.7 M130.9,183.7h2.7v-1.5h-2.7V183.7h-0.7
		v0.7h0.3h0.3 M130.3,184.4v0.8h1.6v2.2h-0.4v1.1h1.1v0.8h1v-5.5h0.3 M128.9,185.2h1.6 M130,183.7h-2.6 M130,184.4h-2.6
		 M130.3,181.3h-3.4 M130.9,181.3v0.8 M128.9,187.2h2.6 M123.7,185.2v4h1.5v-0.8h0.7v-1 M124,190h-0.3v1.5 M123.7,189.1v0.7
		l-15.7-1.6l-14.9-5.5L80,174.1 M131.5,188.3h-5.6 M133.9,182.2h-0.3 M133.9,189.1h-0.3v2.3h0.3 M132.5,189.1h-7.4 M74.9,155.8
		l1.1,5.5h0.3 M70.1,155.8l1.1,5.5h0.3 M70.6,139.5l-0.7,6.3 M75.4,139.5l-0.8,6.3 M84.2,179h-0.3l-0.1,0.8l-0.7,0.4l-0.7-0.4
		L82,179l0.4-0.7l0.7-0.4l0.7,0.4l0.1,0.7 M81.2,177.8l0.7-0.8l-0.7-0.8l-0.4-0.3l-0.7,0.3l-0.4,0.8l0.4,0.8l0.7,0.3L81.2,177.8z
		 M83.9,181.1l0.3,1l0.8,0.1l0.7-0.1l0.3-1l-0.3-0.7l-0.7-0.1l-0.8,0.1L83.9,181.1z M86,181.1h0.4 M88.2,182.8l-0.7-0.4l-0.7,0.4
		l-0.3,0.7l0.3,0.4l0.7,0.4l0.7-0.4l0.3-0.4L88.2,182.8z"/>
	
		<path id="Layer2_6_MEMBER_19_1_STROKES" style="fill:none;stroke:#020203;stroke-width:0.45;stroke-linecap:round;stroke-linejoin:round;" d="
		M124.8,161.2h-0.3v-1.9v-8.9v-1.6h24.2V143l1.9-1.9h1.1 M148.6,148.8v1.6h0.3 M148.6,155.8v-5.5h-24.2 M148.6,143.2h0.3
		 M99.4,174.2h8.6v-12.7h-1.2 M128.5,167.9l0.7,1.6h1.9l1.1-1.6l-1.1-1.6h-1.9L128.5,167.9z M133.3,167.9H133l-0.7,1.9l-1.9,0.7
		l-1.9-0.7l-0.7-1.9l0.7-1.9l1.9-0.7l1.9,0.7l0.7,1.9 M134.4,167.9H134l-1.1,2.6l-2.6,1.1l-3-1.1l-1.1-2.6l1.1-2.6l3-1.4l2.6,1.4
		l1.1,2.6 M148,165.6l-3-1.4l-2.9,0.7l-1.4,3l1.4,2.9l2.9,0.8l3-1.6h0.3 M148.2,174.2H108 M148.2,161.6H108 M124.6,159.2h8.2
		 M81.2,180.4l-0.4-0.1l-0.7,0.1l-0.4,0.7l0.4,1l0.7,0.1l0.4-0.1l0.7-1L81.2,180.4z M80,186.3l0.7,0.3l0.4-0.3l0.7-0.8l-0.7-0.8
		l-0.4-0.3l-0.7,0.3l-0.4,0.8L80,186.3z M83,182.4l-1.1,0.4l-0.1,0.7l0.1,0.4l1.1,0.4l0.7-0.4l0.1-0.4l-0.1-0.7L83,182.4z
		 M83.9,183.5h0.3 M84.2,186.5l0.8,0.1l0.7-0.1l0.3-0.8l-0.3-0.4l-0.7-0.5l-0.8,0.5l-0.3,0.4L84.2,186.5z M91,176.6l-0.1-0.7
		l-0.7-0.4l-0.7,0.3 M85.7,178.7l0.3,0.7l0.7,0.3h1.1 M88.4,180.7v0.7l0.4,0.7l0.7,0.1l0.7-0.4 M86,185.7h0.4 M89.3,186.7l0.8-0.1
		l0.3-0.8l-0.3-0.8l-0.8-0.1l-0.7,0.1l-0.1,0.8l0.1,0.8L89.3,186.7z M180,143.2h-0.3v1.9h0.3 M177.9,141.2l1.9,1.9"/>
	
		<path id="Layer2_6_MEMBER_20_1_STROKES" style="fill:none;stroke:#020203;stroke-width:0.45;stroke-linecap:round;stroke-linejoin:round;" d="
		M147.7,167.9h-0.3l-0.7,1.9l-1.9,0.7l-1.9-0.7l-0.7-1.9l0.7-1.9l1.9-0.7l1.9,0.7l0.7,1.9 M145.8,169.4l0.8-1.6l-0.8-1.6h-2.2
		l-0.7,1.6l0.7,1.6H145.8z"/>
	
		<path id="Layer2_6_MEMBER_21_1_STROKES" style="fill:none;stroke:#020203;stroke-width:0.45;stroke-linecap:round;stroke-linejoin:round;" d="
		M141.3,151h-0.4l2.2,3.8l-1.6,4.4l-4.2,1.9l-4-1.9l-1.6-4.4l2.2-3.8h7.3 M139.1,155.2l-0.4,1.5l-1.4,0.4l-1-0.4l-0.7-1.5l0.7-1.1
		l1-0.5l1.4,0.5L139.1,155.2h0.3 M132.5,159.2l4.7,2.3l5.1-2.3h6 M148,173.8h-6.3l-1.6-0.7l-0.4-1.5v-7.5l0.4-1.6l1.6-0.4h5.9
		 M124.8,174.2h-0.3v2.2h8.2l4.5-2.2l1.8,0.7h0.3l0.4,0.4l2.3,1.1h6.2 M124.6,176.4v5.7 M156.9,183.7h-0.3l-0.1,0.7l-1.1,0.4
		l-0.7-0.4l-0.1-0.7l0.1-0.7l0.7-0.1l1.1,0.1l0.1,0.7 M159.2,184.4l1,0.4l0.4-0.4l0.4-0.7l-0.4-0.7l-0.4-0.1l-1,0.1l-0.1,0.7
		L159.2,184.4z M163.6,183l-0.3,0.7l0.3,0.7l0.7,0.4l0.7-0.4l0.4-0.7l-0.4-0.7l-0.7-0.1L163.6,183z M169.3,183l-0.7-0.1l-0.4,0.1
		l-0.5,0.7l1.1,1.1l0.7-0.4l0.4-0.7L169.3,183z M140,164.2h-0.3 M133.6,185.2h6.6l2.5-3.1l-0.4-4.1l-2.6-2.6l-0.7-0.4l-3.8,0.3
		l-3,2.6v4.2h0.3 M139.8,171.6h0.3 M139.3,180.7h-0.3l-0.4,1.1l-1.4,0.4l-1-0.4l-0.7-1.1l0.7-1.4l1-0.4l1.4,0.4l0.4,1.4
		 M150.3,182.4v2.7h0.4 M133.6,185.9h16.7v-0.7h-10.1 M178.2,185.2h-0.1v-0.4l-8.6,1.1h-19.2 M133.6,190h35.7l14.5-2.2l13.4-5.2
		l11.6-8.2h0.3 M206.9,171.2h-0.3l-11.2,7.8l-12.5,5.1l-5.2,0.7v-2.6 M169.7,183.7h0.3"/>
	
		<path id="Layer2_6_MEMBER_22_1_STROKES" style="fill:none;stroke:#020203;stroke-width:0.45;stroke-linecap:round;stroke-linejoin:round;" d="
		M154.3,186.5v-0.8l-0.7-0.8h-0.7l-0.4,0.8v0.8h0.3 M158.8,186.3v-0.8l-0.4-0.5h-0.8l-0.5,0.5v1.1h0.4 M163.3,186.3l-0.4-0.8
		l-0.4-0.5l-1.4,0.5v0.8h0.4 M167.5,185.9l-0.1-0.7l-0.8-0.4l-1,0.4l-0.1,1.1 M221.4,163.8h-0.3v8.6h0.4 M221.2,163.8l-0.4-1.6
		l-1.8-0.4h-20.7 M180.8,173.8h6l1.8-0.7l0.7-1.5v-7.5l-0.7-1.6l-1.8-0.4h-6 M200.9,164.9l-2.6-1.1l-3,1.1l-1.2,3l1.2,2.9l3,1.1
		l2.6-1.1l1.4-2.9L200.9,164.9z M200.2,167.9l-1.1,1.6h-1.9l-0.7-1.6l0.7-1.6h1.9L200.2,167.9z M198.3,165.3l-1.9,0.7l-0.7,1.9
		l0.7,1.9l1.9,0.7l1.9-0.7l0.7-1.9l-0.7-1.9L198.3,165.3z M200.9,167.9h0.3 M185.3,166.3h-0.4l1,1.6l-1,1.6h-1.8l-1-1.6l1-1.6h1.9
		 M184.1,165.3l-1.9,0.7l-0.8,1.9l0.8,1.9l1.9,0.7l1.9-0.7l0.8-1.9L186,166L184.1,165.3z M181.2,170.1l2.6,1.6l3-0.8l1.2-2.9l-1.2-3
		l-3-0.7l-2.5,1.4 M172.3,183l-0.4,0.7l0.4,0.7l0.7,0.4l0.7-0.4l0.3-0.7l-0.3-0.7l-0.7-0.1L172.3,183z M171.8,185.7l-0.7-0.4h-0.8
		l-0.7,0.7 M180.8,174.5h21.8 M214.7,171.6l2.2-2.3l-0.4-3l-1.9-2.2l-3.1-0.3l-2.1,2.2h0.4 M219,174.5l1.8-0.5l0.4-1.5"/>
	
		<path id="Layer2_6_MEMBER_23_1_STROKES" style="fill:none;stroke:#020203;stroke-width:0.45;stroke-linecap:round;stroke-linejoin:round;" d="
		M60.2,190.1h-2.6 M218.6,152.1l-0.4,0.8l0.4,0.7l0.4,0.3l1-0.3l0.1-0.7l-0.1-0.8l-1-0.3L218.6,152.1z M207.9,152.2l-0.3,0.7
		l0.3,0.7l0.7,0.3l0.7-0.3l0.4-0.7l-0.4-0.7l-0.7-0.4L207.9,152.2z M220.1,152.7h0.3 M180.8,159.3h5.6 M191.7,135.2l2.2,13.8
		l4.8,13.1 M204.2,149v12.7 M188.2,141.9l6,21.6h0.3 M179.7,149h10.1 M179.7,150.7h10.4 M187.2,151h2.9 M215.1,171.6h-0.4l-4.8,2.3
		l-0.4,0.1l-0.1,0.1l-2.6-3l0.4-0.8l2.5-4.5h0.4 M192.8,180.4l-1.1-1.1h-1.4l-1.1,1.1l0.1,1.6h0.3 M191.7,185.2h2.9l1.6-2.2h0.3
		 M190.4,185.9h13.8v-0.7h-9.6 M204.2,178.3v6.8 M202,174.8l2.3,3.1h0.4 M199.4,176.8h-3.7l-4.8-2.3l-4.8,2.3h-5.2 M204.2,185.9v1.5
		h-19.3 M214.3,166.3h-0.3l0.7,1.6l-0.7,1.6h-1.9l-1.1-1.6l1.1-1.6h1.9 M215.6,167.9l-0.8,1.9l-1.9,0.7l-1.8-0.7l-0.7-1.9l0.7-1.9
		l1.8-0.7l1.9,0.7L215.6,167.9h0.1 M208.9,174.5h10.5 M242.5,193.7h-13.7h-4.5V193v-1.5v-1.1h1.1v-10.1h1.6V20.6 M224.3,191.5
		l0.8-0.3l0.1-0.4v-0.3h0.3 M225.4,190.6h0.3 M228.8,193.7v-3.3h-1.8v0.3l-0.8,1.6l-1.6,0.7h-0.1 M227.1,180.1v10.1 M209.9,174
		l-2.9-3.4"/>
	
		<path id="Layer2_6_MEMBER_24_1_STROKES" style="fill:none;stroke:#020203;stroke-width:0.45;stroke-linecap:round;stroke-linejoin:round;" d="
		M227.1,21.4h2.1v-3.7h-4.2v0.7l1.5,0.7l0.7,1.6 M227.3,39.4h-1.9V21.4H225V20l-0.4-0.1h0.4v-1.6 M225,19.9V20l0.4,0.1l0.1,0.4v0.7
		h0.4 M229.1,17.7h13.4 M126.8,19.9v14l3.1,3.7h27.9l3.7-3.4V19.9h0.3 M152.5,25.1v9H135v-9H152.5z M134.4,24.7v1.9v6.6v1.8h18.5
		v-1.6v-6.6v-1.9L134.4,24.7L134.4,24.7z M161.8,34.1h-0.3 M152.9,26.4h5.9h0.4 M157.9,29.7l-0.7-1.2l-1.2-0.5l-1.4,0.5l-0.4,1.2
		l0.4,1.5l1.4,0.4l1.2-0.4L157.9,29.7h-0.3l-0.5,1.1l-1.1,0.4l-1.4-0.4l-0.1-1.1l0.1-1.1l1.4-0.4l1.1,0.4l0.5,1.1 M157.3,29.7
		l-0.5-0.7h-1.1l-0.4,0.7l0.4,1.1h1.1L157.3,29.7z M157.9,29.7h0.3 M158.8,26.4V33h0.4 M152.9,33h5.9 M134.4,26.4h-5.7V33h5.7
		 M187.2,151l-1.9,3.4l0.7,4l3.3,2.5l4-0.4h0.3 M196.5,157.4V154l-1.5-2.7 M190.7,154l-1.1,0.8l-0.1,1.4l1.1,1.1l1.6,0.1l4-1.4
		 M186.1,159.3l3.4,2.2l3.7-0.4h0.3 M193.8,162.9l4.2-1.8h0.4 M194.2,167.5l0.1-3.8l4.1-1.6h0.3l2.7,2.7 M197.4,159.3h7.3
		 M193.5,161.9h-12.7"/>
	
		<path id="Layer2_6_MEMBER_25_1_STROKES" style="fill:none;stroke:#020203;stroke-width:0.45;stroke-linecap:round;stroke-linejoin:round;" d="
		M77.8,76.1v0.4h6 M81.2,80.8l0.4-0.4h0.3v-0.3l0.1-0.3v-1.2l-0.1-0.1l-0.3-0.1h-0.4v-0.4 M83.6,82h-2.9l-1.1,1.9h0.4 M77.8,76.4V86
		H78 M81.2,82.7l-0.7,1.2h0.4 M79.5,83.9h-0.1v-3.1 M85.3,78.4v7.8h0.3 M77.8,111h1.6H83h0.7v5.9H83h-1.8l-0.7,1.9H83l1.6-0.7
		l0.7-1.6h0.3 M77.8,118.7h1.6v-3.6H79l-0.3-0.3v-0.3h-0.1v-1.6l0.1-0.3v-0.4h0.7v-1.5 M79.4,112.5h0.7h1.6l0.3,0.4v0.3h0.1v1.4
		l-0.3,0.1v0.3h-0.3l-0.4,0.1h-1.1h-0.7 M80,112.5l0.3,0.4v0.3l0.1,0.3v1.1l-0.1,0.3l-0.3,0.3v0.1 M81.2,116.8h-0.4l-1.1,1.9h0.7
		 M83,111v5.9 M77.8,86.1H60.2 M133.3,29.7l-0.7-1.2l-1.2-0.7l-1.4,0.7l-0.4,1.2l0.4,1.5l1.4,0.4l1.2-0.4L133.3,29.7H133l-0.4,1.1
		l-1.1,0.4l-1.1-0.4l-0.7-1.1l0.7-1.1l1.1-0.4l1.1,0.4l0.4,1.1 M130.3,29.7l0.4,1.1h1.1l0.7-1.1l-0.7-0.7h-1.1L130.3,29.7z
		 M79.5,118.7h-0.1"/>
	
		<path id="Layer2_6_MEMBER_26_1_STROKES" style="fill:none;stroke:#020203;stroke-width:0.45;stroke-linecap:round;stroke-linejoin:round;" d="
		M175.3,116.8l0.7,1.6l-1.8-2.1l-0.5-0.3h0.3l0.3,0.3L175.3,116.8z M80.8,76.1l-0.7,0.4h-0.4L80.8,76.1H83h0.1h0.3h0.3l0.1,0.1
		l1.1,0.5l0.7,1.6l0.3,7.8h-0.3v-7.8l-1.1-1.4l0.7,1.4l-1.6-1.6l0.1,5.5h-0.1v-5.5l-0.3-0.7L83,76 M83.1,76.1L83.1,76.1l0.5,0.3
		l0.7,0.4l-0.4-0.4l-0.4-0.1 M84.6,77.1l-0.3-0.4l0.1,0.1L84.6,77.1z M83.6,76.4v0.3 M78.9,78.2h-0.3v0.1h-0.1v1.5l0.1,0.3v0.3h0.3
		l0.3,0.4h0.4l0.7-0.7v-0.3l0.1-0.1v-1.1l-0.1-0.3L80,78.2h-0.4l-0.3-0.3h-0.1L78.9,78.2z M79.5,77.9l-0.1-1.4v1.4H79.5H81 M83.1,82
		L83,76.4V82H83.1z M79.5,80.8H81 M60.2,81.7h0.4l-0.4-1.6h1.6v1.6h-1.2 M83,118.7h0.4l2.1-1.9l0.1-0.5H86l-0.5,0.5L85,118l-1.6,0.7
		 M60.2,76.1H78 M127.2,116.8l-0.4,1.6h0.1l2.1-2.3L127.2,116.8z M128.9,116.1h5.9 M168.1,119.6l-0.3,4.5l2.6,1.6l3-1.1l1.4-2.9
		l-1.4-2.9l-3-0.8l-2.6,1.6h0.3V119.6z M133.6,119.9l-1.9-0.7l-1.9,0.7l-0.7,1.9l0.7,1.9l1.9,0.8l1.9-0.8l1-1.9L133.6,119.9z
		 M134.8,119.6l-2.6-1.6l-3,1l-1.2,2.9l1.2,2.9l3,1.1l2.6-1.6h0.3L134.8,119.6z M133.6,121.8l-0.7-1.6H131l-1.2,1.6l1.1,1.5h1.9
		L133.6,121.8z M135.2,127.8h-5.9h-0.3l-1.9-0.7l-0.4-1.5v-7.1l0.1,7.1h-0.1l2.6,2.2 M167.8,127.8h5.9l2.1-1.8l0.1-0.5h0.3l-0.5,0.5
		l-0.5,1.1l-1.6,0.7"/>
	
		<path id="Layer2_6_MEMBER_27_1_STROKES" style="fill:none;stroke:#020203;stroke-width:0.45;stroke-linecap:round;stroke-linejoin:round;" d="
		M87.9,125.1v-10.7h0.3 M168.9,123.7l2.2,0.8l1.9-0.8l0.7-1.9l-0.7-1.9l-1.9-0.7l-2.2,0.7l-0.8,1.9L168.9,123.7z M137.2,139.3h-12.9
		v1.6h12.9V139.3v-2.9 M137.6,140.8h-0.4 M137.2,139.3h0.3 M124.8,129.1l-0.4,1.8h-0.1v1.9l1.2,0.4l0.7,1.2l-0.7,1.4l-1.2,0.4v2.6h4
		l1.9-3.7l-1.2-4.2l-3.7-1.9L124.8,129.1z M135.2,130.7h-5.9l-3.1-2.2l-1,0.3 M125.9,128.4l0.1,0.1l0.7-0.1H125.9z M124.3,138.6v0.5
		 M128.5,138.6h-0.3 M124.3,136v-3.4 M106.5,139.5l1.1-0.4l0.1-1.1v-7.7 M107.7,138h0.3 M106.9,143.8h1.2h0.3l2.2-0.8l0.8-1.8V130
		 M124.3,140.8v4.8l-1.6,5.7l-4.2,4.4l-5.5,1.1h-4.8v0.4h0.3 M106.9,153.3v3.7h1.2v-13.1 M120.3,154.4l0.4,0.7h0.8l0.5-0.7v-0.7
		l-0.5-0.5 M135.2,128.4h-8.5 M106.9,172.4V157 M173,121.8l-1.1,1.5H170l-1.1-1.5l1.1-1.6h1.9L173,121.8z M173.7,121.8h0.3
		 M176,118.4v7.1h0.3 M167.8,116.1h6.2"/>
	
		<path id="Layer2_6_MEMBER_28_1_STROKES" style="fill:none;stroke:#020203;stroke-width:0.45;stroke-linecap:round;stroke-linejoin:round;" d="
		M84.9,71.2l-1,0.3l-0.1,0.8l0.1,0.7l1,0.3l0.7-0.3l0.1-0.7l-0.1-0.8L84.9,71.2z M87.9,82h-0.7l-0.4,0.7v0.7l0.4,0.5h1.1 M85.7,72.3
		H86 M82.6,75.4l0.7-0.1l0.4-0.7v-0.8L83,73.4l-0.7,0.1 M79.3,84.2v2.1 M86.2,91.4v0.4l0.3,0.8l0.8,0.3l0.4-0.4H88 M60.2,94.5h4.5
		H65 M60.2,102h4.5v-6.6v-0.8 M64.8,102H65 M87.9,95.3l-0.4-0.1l-0.7,0.1l-0.3,1l0.3,0.4l0.7,0.4l0.4-0.4h0.3 M86.2,117l-0.3,0.7
		l0.4,0.7l0.7,0.3l0.5-0.3l0.5-0.7l-1.1-1.1L86.2,117z M88.2,117.7h0.3 M77.8,95.3H64.6 M101.3,114.7v-22 M84.2,119.9l0.4,0.8
		l0.7,0.3l0.4-0.3l0.7-0.8l-0.8-1 M86.2,121.4l-0.3,0.4l0.4,0.7l0.7,0.3l0.5-0.3l0.5-0.7l-0.5-0.4l-0.5-0.5L86.2,121.4z M86.2,124
		H86l-0.3,0.7l-0.7,0.4l-0.8-0.4l-0.3-0.7l0.3-0.8l0.8-0.4l0.7,0.4L86,124 M88.2,121.8h0.3 M88.4,126.3v-0.7l-0.7-0.4h-0.7l-0.4,0.4
		v0.7 M80.1,123.2l-0.5,1.5v0.1l0.7,0.4l0.7-0.4l0.4-0.7l-0.4-0.7l-0.7-0.4L80.1,123.2l0.7-1.8H81 M81.9,122.8l1.1,0.4l0.4-0.4
		l0.4-0.7l-0.4-0.8l-0.4-0.4l-1.1,0.4v0.8V122.8z M83.9,122.2h0.3 M74.3,126.1l1.9-5.2h0.3 M78.9,126.6l0.7-1.9l-0.1-0.5l0.1-0.7
		l0.5-0.3 M84.2,126.3l-0.3-0.7l-0.7-0.4l-0.7,0.4l-0.4,0.7h0.4 M81.6,124h0.3"/>
	
		<path id="Layer2_6_MEMBER_29_1_STROKES" style="fill:none;stroke:#020203;stroke-width:0.45;stroke-linecap:round;stroke-linejoin:round;" d="
		M87.1,50.1l2.6,16.3h0.4 M65.9,37.7l1.4,1.1H76h4.4h19.7l1.1-1.1 M79.3,92.5h-1.8v3.3l1,0.4l0.7-0.1 M80.4,38.6l2.2,37.5h0.3
		 M92.4,86.2l-0.8-8.1h0.3 M90.5,72.6l3.4-0.7h0.3 M92.7,91h-0.3L91,99.2l-3.1,7.5l-0.1,0.1l0.3-0.3h0.7l0.7,0.3h0.1l0.7,0.1
		l0.3,0.4l0.1,0.3l0.4,0.1l0.1,0.7l0.1,0.1v0.4l0.1,0.1l3.8-8.6l1.4-10.4 M64.8,100.9h4v-5.5 M88.2,103.5h-0.3l0.1,3.4 M79.3,105.9
		l-1.8-0.7v-4.5h-8.6 M77.5,95.8v4.9h0.3 M91.3,109.9l0.1-0.3L91.3,109.9L91.3,109.9l-2.7,4.2l-0.1,0.1l-0.3,0.1h-0.8l-1.6,2.2
		 M91.4,109.6l0.1-0.1v-0.1L91.4,109.6z M87.9,107h-0.3l-1.9,2.7H86 M88.4,114.3l0.1-0.4v-0.3l-0.1-0.4v-0.3l-0.3-0.4l-0.3-0.1
		l-0.3-0.3l-0.1-0.4l-0.5-0.1l-0.1-0.4L86,111h-0.3 M87.9,113.9h-0.3l-0.3,0.5h-0.5l-0.1-0.1H86l-0.3-0.4 M85.7,113.2l1.6,0.7
		l0.4-0.3l-0.4-1.1l-1.6-0.8 M78.4,76.4L76,38.6 M96.4,87.9L95,73.1h0.4 M116.2,119.9h-1.1v0.3l-0.4,0.4v1.6l0.5,0.4h0.5v-0.1h0.4
		v-0.3l0.1-0.4v-1.2l-0.1-0.4C116.2,120.2,116.2,119.9,116.2,119.9z M84.2,119.2l-0.3-0.7h0.3 M79.3,118.7l1.1,1.9l2.1,0.4l1.1-0.5
		l0.8-0.5h-1.8l-1.1-1.4 M78.9,118.7l0.7,1.9l2.2,0.7l1.5-0.8 M84.2,119.9l1.4-1.1v-1.9"/>
	
		<path id="Layer2_6_MEMBER_30_1_STROKES" style="fill:none;stroke:#020203;stroke-width:0.45;stroke-linecap:round;stroke-linejoin:round;" d="
		M108.3,114.3H108v0.3l0.7-0.1l-0.1-0.1l0.4,0.1l4-0.8h-3.7l-0.7-7.9l0.3,0.4h3.1l0.5-0.4h0.8l0.7-0.3h0.5l0.7-0.1h0.1l0.5-0.4v-0.1
		h0.4 M116.2,123.7h-0.4l-1.6,1.4l-0.3-0.1l-0.7,0.1l-0.7,0.4h-1.1h-0.7l-1.1-0.8l-0.7-1.1l-0.1-0.8l-0.3-0.7l-0.3-7.7l-1.1,0.1
		l-4.9-0.3l1.6-11.1l4.8,0.4h0.3 M108.8,114.4l0.3-0.1 M108.3,103.8l-1.4,10.9 M116.9,112.5h-0.4l-0.3,0.4h-0.1l-0.4,0.3h-0.5
		l-0.5,0.3H114l0.4,1.6l0.3,0.1l0.8,0.5l0.7,1.4v1.8 M113.9,113.5l-0.7,0.1 M115.8,104.6l0.7,7.8 M115.4,118.9h-0.1h-0.1h-1.8
		l-1.5,0.7l-0.4,1.6l0.4,1.5l1.5,0.8h1.8h0.4l-1.6-0.8l-0.1-1.5l0.1-1.6L115.4,118.9l1.6,0.7l0.4,1.6l-0.4,1.5l-1.6,0.8h0.3
		 M114.3,115l0.7,3.1l0.1,0.8 M115.3,122.4h0.1v-0.5l0.3-0.3v-0.1v-0.5l-0.3-0.1v-0.4l-0.1-0.3 M115.1,118.9l-1.8-0.8l-1.9,0.5
		l-1,2.7l1,2.7l1.9,0.4l1.8-0.8 M116.2,121.4h-0.4 M113.9,125l-2.2-0.3l-1.6-1.4l-0.7-1.5l1.1-3.4l2.2-1.1l2.2,0.7 M111.4,125.5
		l-0.4-0.4l-1.1-1.1l-0.4-0.4l-0.1-0.8l-0.1-0.7l-0.3-7.7"/>
	
		<path id="Layer2_6_MEMBER_31_1_STROKES" style="fill:none;stroke:#020203;stroke-width:0.45;stroke-linecap:round;stroke-linejoin:round;" d="
		M85.7,102.3l0.3,14h-0.3V102.3l-0.1-10.9h-1.2h-0.7l-0.1-0.4l-0.3-0.3l-0.4-0.1v-0.3l-0.3-0.4l-0.3-0.4V88l0.7-0.8v-0.3l0.4-0.4
		l0.3-0.3h0.4h7.8h0.4l0.5,0.3l0.1,0.4l0.7,0.7v0.1l4.5,0.5l5.3,3.4l3.3,5.6l0.1,6l-2.5-2.6l0.1,2.5L93,90.6l-0.7,0.7h-0.4h-6.3
		 M84.5,91.4l-0.4-5.2 M90.5,88.7l0.7,1.5l1.1-0.1v-0.1l-0.1-0.1h-0.7l0,0h-0.3L91,89.4V88l0.1-0.1v-0.3h0.7h0.4v0.1h0.4v-0.1
		L91,87.5L90.5,88.7z M91.9,91.4L91.6,91h-0.3l-0.4-0.3l-0.3-0.5v-0.4l-0.1-0.4v-1.8l0.7-1.1h0.1l0.7-0.3 M92.8,88.2l1.1,1.2
		l-0.1-1.6l-1.1-0.1L92.8,88.2l-0.4-0.5L92,87.5l0.4,2.2h0.1v0.1h0.1l0.1-0.1h0.3L92.8,88.2z M92.5,89.9l1.1,0.1l0.1-0.1h0.1v-0.4
		l0.7,0.7l2.7,0.4l4.2,2.9l2.6,4.5l0.1,2.7l-9.7-10.5l-1.1-0.1L93,90.6L92.5,89.9L92.5,89.9z M101.4,82.4l-0.1,7.5v-7.5
		C101.3,82.4,101.4,82.4,101.4,82.4z M108.3,115h-1.1l-2.6,1.1h0.3l-0.1,1.1l1.2,0.7l1,1.8l-0.8,1.6l0.1,0.1h-0.1l-0.1,0.3l-1.4,0.7
		l-0.1,0.1l0.3,0.1h-0.3l-0.4,0.1l-0.4,0.3l-0.4-0.1l-0.8,0.1l-1.9-1.1l-0.7-2.2l1.1-4.7h0.3l-1.4,4.7l0.5,0.3l-0.1-0.4l1.4-4.5
		l0.5-0.5h0.3l-1,0.5h0.1v0.1l2.1,0.4l1.4,0.1h-0.1l-1.1-0.1 M100.1,119.5l1.6-4.5l-0.3-0.1 M100.1,119.5l0.4,0.1l1.1-1.9l1.9-0.7
		v0.3l0.7-0.3l0.4,0.1v-1.1l2.3-1.1v-0.3h0.3l-0.3,0.3h0.3 M104.7,117.3L104.7,117.3L104.7,117.3L104.7,117.3z M103.2,119.6h0.4
		l-0.1-2.5l-1.2,0.7l-1,1.8l0.1,0.3l2.2,0.7v-1h1v-1.8l0.1,1.8h1.4 M104.6,119.6h0.1l0.1,1.4l1.1,0.3v0.1h-0.1l-1.4,0.8 M104.9,121
		v0.4h-0.3V121l-1-0.3l0.1,1.5l0.4,0.3l-0.4,0.3l-0.7,0.1l-1.9-0.5l-0.8-2.2l0.7,0.4l-0.4-0.7l1,0.3l0.4,1.1l1.9,1.1v0.1l0.3,0.1
		h0.1 M103.9,122.4l-1.6-0.8L102,121l-1-0.5l0.7,1.1l1.9,0.8H103.9L103.9,122.4z M104.6,119.6v1.2l0.3,0.1"/>
	
		<path id="Layer2_6_MEMBER_32_1_STROKES" style="fill:none;stroke:#020203;stroke-width:0.45;stroke-linecap:round;stroke-linejoin:round;" d="
		M83.1,86.9L83,86.2l-0.8-0.1l-0.3-0.3l-0.1-0.3h-1.5l-0.7,0.5h0.7l0.7,0.1l0.1,0.3l0.7,0.4l0.1,0.3l0.4,0.4V88 M81.9,85.6l2.1,0.7
		 M79.5,90.2h-0.1v-1.5h-0.7 M79.5,86.1l-0.4,0.1l-1.1,1l-0.3,0.4v2.2l0.3,0.1l0.4,0.7l0.1,0.1l0.7,0.3l0.4,0.4h0.7L81,91h0.1
		l0.7-0.3l0.1-0.4l0.4-0.4v-0.4h0.3 M79.4,87.2v1.6h1.4 M83.4,90.8H83L82.8,91l-1,0.7l-0.4,0.1h-1.1L80,91.7l-0.4-0.3 M81.6,94.5
		v0.4h-0.4L81,95.1v0.1l-0.3,0.3v1.4l0.3,0.1v0.3l0.1,0.4V98h0.4l0.3,0.1l0,0V98h0.4l0.3-0.3v-0.4l0.3-0.3v-1.9L82.6,95v-0.3h-0.3
		l-0.4-0.3H81.6z M88.2,91.4h-0.3V99l1.6,0.7h0.3 M85.7,97.2h1.4h0.3 M87.5,106.8h-0.3h-1.4v-3.3v-2.1l0.3-0.1l1.1-0.3v-1.4v-1v-1.6
		 M87.1,99.8l2.3-0.1v3.4h0.3 M87.9,99.1L87.5,99l-0.3-0.1 M87.1,101.2l0.3-0.1l0.4-0.1H88 M85.7,103.5l1.4-0.1l0.7-0.1v-2.5
		 M87.3,101l-0.3,0.1l0,0 M87.1,106.8v-1.1v-1.9v-0.4 M87.9,103.3l0.4,0.1l1.2-0.4 M88.2,105.7h-1.1 M88.2,103.5l-1.1,0.3
		 M85.3,91.4v24.8h0.3 M79.3,91v19.6"/>
	
		<path id="Layer2_6_MEMBER_33_1_STROKES" style="fill:none;stroke:#020203;stroke-width:0.45;stroke-linecap:round;stroke-linejoin:round;" d="
		M85.6,38.6l1.9,13.1l4,12.7h0.3 M154.5,70.4h6.3 M91.9,38.5l3,16.6l6.8,15.3h0.3 M121.6,70h-5.7l-1.6,0.8l-0.8,1.5h0.4 M119.5,77.3
		h-1.8l-0.7-1.6l0.7-1.6h1.8l1.1,1.6L119.5,77.3z M118.4,73.1l-1.8,0.7l-0.7,1.9l0.7,2.2l1.9,0.8l2.2-0.8l0.7-2.2l-0.7-1.9
		L118.4,73.1z M113.6,79.4h-0.3l1,1.5l1.6,0.8h6 M113.3,79.4v-7.1 M101.7,70.4l4,7.8l1.2-1.8l-0.1-1.9l-1.4-1.1l-1.9-0.1
		 M105.4,77.1l0.7-1.1l-0.7-1.6h-1.1 M106.5,79.1l1.6-2.3l-0.3-2.7l-2.1-1.8l-2.6,0.3 M109.2,105.9l-4.9-16.7l-8.1-15.7h0.3
		 M115.3,104.9l-0.1-0.5l-4.8-17.1l-4.5-8.9 M128.9,104.6h-0.3l2.2,4l-1.6,4.2l-3.8,1.9l-4.4-1.9l-1.5-4.2l2.2-4H128.9 M116.2,112.8
		h3.8l5.2,2.3l4.5-2.3h5.5 M126.9,109.1h-0.1l-0.5,1.1l-1.4,0.4l-1.1-0.4l-0.4-1.1l0.4-1.2l1.1-0.7l1.4,0.7l0.5,1.2 M115.1,115.2
		h10.1h10 M154.5,78.4l2.1,1.5l2.6-0.1l1.9-2.2V75l-1.9-2.2l-2.6-0.1l-1.9,1.5 M162.9,72.6v7.3 M135.6,102.5h-20.4 M115.1,104.3
		l20.9-0.1 M116.2,125.2l2.7-0.1l1.9-1.9v-3L119,118h-2.6 M116.6,123.2h1.6l1.1-1.6l-1.1-1.6h-1.1 M116.2,124.1h1.9l1.6-1.4v-2.2
		l-1.4-1.6h-2.2"/>
	
		<path id="Layer2_6_MEMBER_34_1_STROKES" style="fill:none;stroke:#020203;stroke-width:0.45;stroke-linecap:round;stroke-linejoin:round;" d="
		M162.9,72.6l-0.7-1.6l-1.6-0.5 M98.6,57.1v1.5 M111.4,65.2l1.5-0.5l0.4-1.2l-0.4-1.2l-1.5-0.4l-1.2,0.4l-0.7,1.1l0.7,1.2
		L111.4,65.2z M99.8,67.4h7l4.5,2.1l4.8-2.1h5.6 M107.2,67.4l4.2,1.6l4-1.6l1.6-4.2l-1.9-4.4h-7.3L106,63L107.2,67.4z M113.3,63.4
		h0.4 M101.3,69.7H122 M122.9,57.1h-17.8 M101.3,58.5h22 M108.3,83.2l4.1-0.4l3.7,1.9h5.5 M124.3,90.6v2.9v1.4h-11.4 M112.4,92.9
		h2.7l1.9-3.4l-0.7-4l-3.7-2.3l-3.8,0.4 M100.9,82.4h0.4 M101.3,93.5h0.7 M101.3,84.7h1.1 M111.3,90.2l1.2-0.4l0.7-1.1l-0.7-1.4
		l-1.2-0.4l-1.1,0.3 M104.6,93.5h1.2 M106.2,94.9H106 M104.2,103.3h-0.3v-5.9h0.4 M103.1,94.9h-1.6 M107.7,108.7l1-0.3 M107.7,107.9
		l1-0.3 M107.2,112.8l0.8-0.4l0.3-0.7l-0.7-1 M112.4,93.5h11.9 M108,82.4h13.5 M154.8,82h5.9l1.6-0.4l0.7-1.6 M158.8,74.6h-0.3
		l1.1,1.8l-1.1,1.5h-1.9l-0.8-1.5l0.8-1.8h1.9 M157.7,73.5l-1.9,1l-0.7,1.9l0.7,1.9l1.9,0.7l1.9-0.7l0.8-1.9l-0.8-1.9L157.7,73.5z
		 M160.3,76.4h0.3"/>
	
		<path id="Layer2_6_MEMBER_35_1_STROKES" style="fill:none;stroke:#020203;stroke-width:0.45;stroke-linecap:round;stroke-linejoin:round;" d="
		M184.2,22.2h-0.7v1.1h37.8h2.9v-1.1h-0.5h-37.2H184.2v-2.3 M186.4,22.2v-2.3 M223.5,22.2v-2.3h0.3 M221.2,23.3v14.9h0.4
		 M186.4,38.2h34.8 M81.6,98.1h-0.4v-1.4v-0.4l1.9,0.7 M82.6,97.2L81,96.8 M194.3,150.7h10.1 M193.8,149h10.5 M194.3,151h0.7"/>
	
		<path id="Layer2_6_MEMBER_36_1_STROKES" style="fill:none;stroke:#020203;stroke-width:0.45;stroke-linecap:round;stroke-linejoin:round;" d="
		M187.2,23.3v1.9h0.3h2.3h0.4v-1.9h0.3 M190.4,25.1h-0.3 M217.3,23.3v1.9h0.4h2.6h0.4v-1.9 M221.2,22.2v-2.3h0.4 M186.4,23.3v14.9
		l1.1,0.7h33.3l0.1-0.1l0.4-0.7h0.4 M217.7,25.1v2.2h2.6v-2.2 M220.3,27.4h0.4 M190.1,27.4h-0.4h-2.3v-2.2 M189.8,25.1v2.2
		 M175.3,127.4h7.1v-2.2h1.9h4.8h2.9v2.5h33.5V127h1.4 M227.2,133.7h-1.5v-0.4H192v1.6h-2.9h-4.8h-1.9v-2.7l0.4-0.1l-0.7-0.1
		l-0.4,0.1v-0.1l-1.6-0.1h-0.3v-2.9l-3,0.4l-2.2,0.7l-2.3,4.1l2.2,4.8h0.4 M225.7,133.3v-5.6 M189,135v-1.5h-0.4V133h-2.2v-2.7v-2.6
		h2.2V127h0.4v-1.9 M189,127v6.4h0.4 M192,127.7v5.6 M180.4,129.1h1v2.5h-0.8h-0.1v-2.2V129.1z M181.6,131.9v-3.8h-1.9v0.3v0.5
		 M182.7,127.4h-0.3v0.8h1.9v-3 M182.3,128.2h-0.7 M176.8,129.3l-1.9,0.4l-0.1,0.4l-1.2,0.4h-5.6 M184.5,132.2h-0.3v2.7 M188.6,133
		v-2.7h-2.2 M181.6,131.9l0.4,0.1 M182.7,132.1l1.5,0.1v-4 M188.6,130.3v-2.6 M179.7,128.4l-3,1 M180.5,131.5l-0.1-2.2 M165.1,140.8
		h20.8 M165.1,139.3h21.6"/>
	
		<path id="Layer2_6_MEMBER_37_1_STROKES" style="fill:none;stroke:#020203;stroke-width:0.45;stroke-linecap:round;stroke-linejoin:round;" d="
		M175.3,116.6h2.2h9.7 M165.1,136.3v4.5h0.4 M181.2,147.5l0.4,0.1h0.7l0.3-0.1h0.4v-0.4v-0.3h-0.4l-8.5,1.6l-9.9,0.3l-0.3,0.1h-0.7
		l-0.4-0.3h-0.1v-0.1l-0.4-0.3v-1.4l0.4-0.3v-0.4h0.4l0.3-0.1h0.7h9.9l5.5-1.1l0.7-0.1v-0.1l0.1-0.3l0.3-0.4h0.5v-0.1h0.3l0.3-0.3
		h0.7l0.4,0.3h0.1l0.4,0.1l0.3,0.5v0.4l0.3,0.1v0.3l0.1,0.5v0.1l4.4-4.8v-0.4l0.1-1.6l0.1-0.5l-2.2-0.1 M164.4,145.9l-0.3,0.1h-0.4
		l-0.1,0.4l-0.3,0.3v1.4l0.3,0.3v0.1h0.1l0.4,0.3 M188.6,140.8h2.6v-1.6h-2.3 M191.2,139.3v-4.2 M189.6,138.6h-0.7l0.4-3.7
		 M177.5,116.6v10.8h0.4 M180,134.5h-0.3l-0.4,1.4l-1.1,0.4l-1.4-0.4l-0.4-1.4l0.4-1.1l1.4-0.4l1.1,0.4l0.4,1.1 M174.5,139.1h7.5
		l2.2-4 M182.2,139.1h-0.3 M184.2,146l-0.1,0.4v0.3l-0.3,0.1v0.3h-0.7 M182.7,147v-0.8l-0.3-0.1v-0.1l-0.1-0.4v-0.3l-0.3-0.1
		l-0.3-0.4h-0.3l-1,0.1v0.1l-0.4,0.1 M183,147v-1.2l-0.4-0.4v-0.3l-0.3-0.1l-0.1-0.4l-0.5-0.5h-0.3 M180,145.4h-0.3l-0.1-0.4
		 M182.7,144.3h-0.3v-0.4h0.3V144.3h0.4v0.3h0.1v0.4l0.4,0.1v0.7h0.3v1.1h-0.3 M179.7,148.1v7.8h0.3"/>
	
		<path id="Layer2_6_MEMBER_38_1_STROKES" style="fill:none;stroke:#020203;stroke-width:0.45;stroke-linecap:round;stroke-linejoin:round;" d="
		M189.6,125.2v-11.1h0.3 M213.9,127.6l2.5-2.5v-2.2h-21.8v-6.7h27.6v-1.9v-0.7h-3.6v-2.9v-1.4h-1.4v-6.3h1.4v-1.6V99h3.7v-1h3v-9.6
		V69.7 M222.7,110.6h-0.4v1h3v-10.9h-3v0.7h0.4 M222.3,99.1v1.6 M225.3,98.1v2.6 M218.6,101.4h3.7v9.3h-3.7 M225.3,111.6h0.4
		 M218.6,103.1v6.3h0.3 M222.3,116.2h3v-1.9h-3 M222.3,111.6v1.9h0.4 M225.3,114.3v-2.6 M227.1,88.4h-1.9 M225.3,127.7v-4.8h-3v2.7
		v2.2h0.4 M222.3,125.5h-3.4v2.2 M216.7,125.1h-0.3 M217.2,133.3v2.7h1.8 M222.7,140.4h-0.4v0.7h3v-1.6v-0.7h-3v1.8h-3.4
		 M222.3,133.3v4.7v0.7 M218.8,138h3.4 M225.3,138.6v-5.5 M216.4,122.8h5.9 M227.2,141.9h-1.9v-0.7 M225.3,139.5h1.9 M193.5,116.6
		v11.1h0.4 M186.8,125.2v-1.1l-2.3,0.4l-1.5-1.6v-2.2l1.9-1.6l1.9,0.4l-0.1-1.2h-2.7l-2.2,1.8v3l1.6,1.9h0.3 M186.8,119.6v1.4v1.6
		l0.1-0.1h0.4 M186.8,124.1l-0.1-1.5l-0.4,0.7h-1.8l-1.1-1.5l1.1-1.5h1.9l0.4,0.7 M187.2,124.1h-0.4 M183,143.8l3.1-3.7l0.7-4.8
		 M181.9,144.3h0.7 M183,147l0.4-0.1h0.3 M186.8,118.4v-4.2"/>
	
		<path id="Layer2_6_MEMBER_39_1_STROKES" style="fill:none;stroke:#020203;stroke-width:0.45;stroke-linecap:round;stroke-linejoin:round;" d="
		M212.4,100.1h-0.3l-0.4,0.7L211,101l-0.7-0.3l-0.4-0.7l0.4-0.4L211,99l0.7,0.7l0.4,0.4 M151.2,140.8l0.1,5.3l0.1-0.3l1.4-0.5
		l1.1,0.4l0.3,0.1h0.1l0.1,0.4v-0.1v-4.9v-0.4H151.2z M167.5,145.4H167h-0.3v4.1h0.3h0.8h0.5v-4.1H167.5l-2.1-1.8l-3,0.3l-2.2,1.9
		h-4.5v0.4h5.2l1.5-1.8l2.3-0.4l2.2,1.4 M167,149.5l-2.2,1.5l-2.3-0.5l-1.5-1.9h-5.2v0.5h4.5l2.2,2.2h3l2.3-1.9 M155.3,147.3h-0.3
		l-0.5,1.2l0.1,5.5h-3.3v-5.5l0.1-0.1l-0.4-1.1l0.4-1.1 M154.5,148.5l-0.1,0.4l-1.4,0.7l-1.1-0.5l-0.3-0.1l-0.1-0.4l-0.1-0.1h-0.1
		 M154,145.8l-2.6,2.6l0.1,0.1 M151.9,148.9l2.6-2.7l0.5,1.1 M218.8,124h-0.3l-0.4,0.7l-0.8,0.4l-0.7-0.4l-0.3-0.7l0.3-0.7l0.7-0.4
		l0.8,0.4l0.4,0.7 M220.3,125.5l-0.4-0.4l-1,0.1l-0.4,0.8l0.3,1 M222,125.2h3.4 M214.5,127l0.7,0.4l1.1-0.4l0.1-0.7l-0.5-0.7h0.4
		 M218.8,133.3v7.3 M174.5,145.9l1.2-0.5l1.5,0.4h0.4v-4.5v-0.4h-3.4v0.4h0.3 M177.5,145.8h0.4 M178.2,141.2h-0.5 M174.1,145.9v-4.7
		h-19.6 M177.9,148.5h-0.4v5.5h-3.4v-5.5h0.3l0.4,0.1l0.1-0.1h0.4 M174.8,148.8l1.2,0.7l1.5-1"/>
	
		<path id="Layer2_6_MEMBER_40_1_STROKES" style="fill:none;stroke:#020203;stroke-width:0.45;stroke-linecap:round;stroke-linejoin:round;" d="
		M155.1,99.8l-0.4-0.4l-1.9-1.6h-3l-2.5,1.9 M147.3,103.1l2.5,2.2l3.1-0.4l2.2-2.3h0.3 M161.5,97.1h-3.1l-4.7,0.1l1.1,2.2
		 M158.2,97.1h-4.8l0.1,0.1 M155.1,102.5l-1.4,2.7h5.7 M153.8,105.4l-0.1,0.3h8.1 M141.5,95.1h19.8 M136.2,109.6h30.4 M153.6,105.7
		h-11.9 M153.6,97.1h-11.9 M167.5,145.4l-0.8-2.2l-0.1-0.1h-4.4l-0.1,0.1l-0.7,1.1l-0.1,0.1l-0.8,1.4 M169.2,145.9v-1.6l1.6-0.4
		l1.4,0.4v1.6 M162.2,143h-0.1l-0.1,0.1h-4.8l-0.7,0.4l-1.1,1.1h0.4 M161.5,150.4h-0.3l0.7,1.1l0.1,0.1l0.1,0.1h4.7l0.1-0.4l0.5-1.1
		l0.4-1 M167.4,150.4h1.8v-1.6 M156.6,145.8v-1.4l1.4-0.4l1.5,0.4h1.6 M159.9,145.8h-0.3v-1.4h-2.9 M155.1,149.6h-0.4l0.7,1.4
		l1.1,0.4h5.5 M161.2,150.4h-1.6h-2.9h-0.8V149 M159.6,149v1.4 M156.6,150.4V149h0.3 M156.9,146v2.5h0.4 M154.8,149.6l0.7-5.1
		 M159.2,146.4v2.1 M162.1,151.8h-7.3 M154.8,143h7.3 M160.3,149l0.7,1.4 M173,145.9l-0.4-1.4l-0.4-1.1l-1-0.3l-0.1-0.1h-4.5
		 M172,148.5v1.9h0.4v-1.9h0.4 M173,150.4h-0.4 M166.8,151.4h5.5l1.1-0.4l0.3-1.4h0.3 M174.5,143h-7.8 M174.5,151.8h-7.8 M172,150.4
		h-3 M172,144.3h-3"/>
	
		<path id="Layer2_6_MEMBER_41_1_STROKES" style="fill:none;stroke:#020203;stroke-width:0.45;stroke-linecap:round;stroke-linejoin:round;" d="
		M144.5,97.2l-1.1,0.3l-0.7,1.1h0.3 M141.5,102.5v1l0.7,1.4l1.1,0.4h5.5l-0.7-1.1h-1.6h-3h-0.7v-1.2h0.7h3h0.7h0.3 M143.6,104.3
		v-1.2 M147.3,103.1l0.8,1.2h0.3 M149.1,105.7l-0.1-0.1l-0.1-0.1 M146.6,104.3v-1.2 M148,102.5l1.8,2.1h3l1.8-2.1 M142.8,100.1h5.5
		 M142.8,99.7h4.8 M135.6,109.6V97.2h0.3 M141.5,103.5v4.4h-3.3v-5.6h0.4"/>
	
		<path id="Layer2_6_MEMBER_42_1_STROKES" style="fill:none;stroke:#020203;stroke-width:0.45;stroke-linecap:round;stroke-linejoin:round;" d="
		M180.4,109.6H180l-0.5,1l-1.4,0.5l-1.1-0.5l-0.5-1l0.5-1.4l1.1-0.4l1.4,0.4l0.5,1.4 M143.6,99.7v-1.4l1.6-0.4l1.4,0.4h1.8l0.7-1.1
		h-4.5 M154.3,99.8l-1.9-1.6l-2.7,0.1l-1.6,1.8 M149.1,97.2l0.1-0.1h0.3 M147.3,99.7l1.1-1.4 M146.6,98.1v1.4h0.3 M135.6,97.2
		l2.2-2.1h0.4v-0.3h3.3v4.8v0.1l0.1,0.4l0.4,1h0.1l0.4-1.6l0.1-1.1 M142.6,99.7l0.1,0.5h0.3 M141.5,99.8v0.4h0.1 M143.9,100.1v2.5
		h2.2v-2.2 M142.1,103.5h-0.4l0.5-2.3 M142.1,101.2l-0.5,1.6l-1.5,0.5l-1.1-0.4l-0.3-0.1l-0.1-0.7l-0.4-1l0.3-1.1l-0.1-5.1h0.4
		 M143,103.1h-0.3v-0.5h1.1 M146,102.5h2.2 M146.6,98.1h-3 M138.5,100.2l0.1-0.4l1.4-0.4l1.2,0.4h0.3 M141.5,99.8l-0.3-0.1l-2.7,2.5
		 M138.9,102.8l2.6-2.7 M167,98.1h-0.3v-1.1l-1.9-2.1h-0.4 M166.7,97.2h0.3 M161.8,102.8l0.3-0.1 M159.2,105.4l1.1-0.4l0.5-1.4h0.1
		v-1.1h0.4 M166.7,102v1.1h19.4 M166.7,103.1v1.6h19.7 M160.1,99.4h-0.3l-0.8-1.9l-1.1-0.3 M156.2,98.1h3.1l-1.5-0.4L156.2,98.1v1.4
		 M159.6,99.4h-0.4v-1.1 M159.2,102v2.3h0.4v-1.8h0.4 M154.3,104.3h1.8v-1.8h0.4 M159.9,104.3h-0.3 M156.2,104.3h3.1 M161.1,103.5
		v4.4h3.6v-5.6 M166.7,104.6v5.1h0.3"/>
	
		<path id="Layer2_6_MEMBER_43_1_STROKES" style="fill:none;stroke:#020203;stroke-width:0.45;stroke-linecap:round;stroke-linejoin:round;" d="
		M190.1,88.2h-0.4v-4.8l-4.2-0.4H185l1.9,9.2 M178.2,95.3l4.1-2.7l1.9-4.2 M183.1,87.9v-3.6h0.4 M185.3,82.7l-0.4-1.8 M181.3,104.9
		l2.5,3.8l-1.4,4.7l-4.2,1.8l-4.1-1.8l-1.4-4.7l2.3-3.8H181.3h0.3 M185.3,95.8h-0.4l1.8,16.6l0.1-0.1h1.9l0.3,0.1h0.4l-0.7-7.8
		l-1.1-8.8h0.3 M170.3,100.1h-0.4l-18.6,2.6l-1-0.1l-0.1-1.1l0.1-1.1l1.1-0.3l9.9-1.4v-4h3.3v3.7l0.3-0.1l4.7-0.5h0.4 M167.8,113.5
		h5.6l0.1,0.1l4.5,2.2l4.8-2.3h2.9v-0.5h0.1v-0.4h0.7 M185.9,113.5v1.1h0.4v-0.1h0.8l0.3-0.4h1.1l0.1,0.4h0.7l0.1,0.1h0.3v-1.4v-0.3
		l-0.3-0.4h-0.1 M185.9,114.3v0.3h0.1v0.3h0.4v0.1h0.8 M188.7,103.1h1.8 M189.8,113.2h0.4 M189.8,114.3v0.5h-0.3 M189.6,116.6h4.2
		 M179.4,97.5l5.5-3.7 M188.6,104.6h1.5 M164.7,98.4l-0.3,0.1v-0.1l-3.3,0.4 M163.3,103.3l-1.5-0.3l-0.1-0.1l-0.3-0.5h-0.1v1.2v4.4
		h3.3v-5.5L163.3,103.3z M164.4,102.5l0.4-1.4h0.3 M161.6,102.8l1.4-1.4h0.4 M161.4,102.3l-0.1-0.1l-0.1,0.1 M161,101.7l0.3,0.4
		l0.7-0.4 M160.3,102l0.5,1.6h0.1 M166.7,100.9v8.9h0.3 M173.7,148.5v1.1h0.3"/>
	
		<path id="Layer2_6_MEMBER_44_1_STROKES" style="fill:none;stroke:#020203;stroke-width:0.45;stroke-linecap:round;stroke-linejoin:round;" d="
		M178.5,95.3h-0.4l-6,1.8l0.1,0.1l0.1,0.3v0.4l0.3,0.4v1.4l6.8-2.1h0.3 M172,97.2l-0.1-0.1v-0.3h-1.1l-1.1,0.3l0.1,0.1h0.4l0.1,0.3
		v0.4l0.3,0.3l0.4,0.1v1.4l-0.4,0.1v0.4l-0.3,0.3l-0.1,0.3l1.5-0.5h0.3v-0.4h0.1l0.1-0.1v0.1l-0.1,0.1 M169.7,97.1l-0.5,0.1H169
		l-0.4,0.3v0.4h0.4l0.1-0.1l0.1-0.1h0.5l0.7,0.8v1.5h-0.1v0.4H170 M198.3,107.9h-0.4v0.7h0.4 M198,108.7h-1.2h-0.3v0.4h1.5
		L198,108.7L198,108.7z M196.8,108.7V108h1.2v-4.5h14.4v5.3h1.4h0.4 M195,116.2h-0.3l-0.3-3.7h0.5v-3.4h1.6 M198.3,109.1h-0.4v3.3
		h14.4v-3v-0.7H212 M200,116.2h-0.3v-3.7H195 M213.8,108.7v0.4h0.4 M212.4,109.4h2.7v3.1h0.7h0.4 M208.9,116.2h-0.3v9.6h0.3
		 M215.1,112.5h-5.2v3.7h0.4 M216.2,116.2h-0.4v-3.7 M209.9,112.5h-10.4 M154.5,70h15.2 M154.5,82.7h10.5h5.6 M169.2,92.5l1.6-3.8
		l-1.6-4l-4-1.6l-4,1.6l-1.5,4l1.5,3.8h0.4 M170.3,84.7l-5.2-2.1l-4.8,2.1 M169.7,97.1L169.7,97.1l-0.4-0.1l-0.1,0.1 M170.3,100.7
		h-1.1l-0.1-0.3 M208.4,125.8h-6.7l0.7,1.1h5.7L208.4,125.8z M208.2,127h0.3 M201.7,125.8v-9.6"/>
	
		<path id="Layer2_6_MEMBER_45_1_STROKES" style="fill:none;stroke:#020203;stroke-width:0.45;stroke-linecap:round;stroke-linejoin:round;" d="
		M185.9,84.3l0.8-0.1l0.7,0.5v0.7l-0.5,0.7l0.4,0.1l6.3,1.8h1.1 M196.9,92.3h0.3h3.7v-4.1 M197.4,92.3l1.9,0.4l1.4,0.4v-0.4h9.9h0.3
		 M199.1,92.5h-0.4l-1,3.8l2.2,0.5l0.1-0.7l0.3-0.1l-1.1-0.1l0.4-2.2l0.7,0.1v-1.1 M200.6,96.1l0.4,0.1l0.7,0.1v-2.5h-1.2
		 M201.3,92.3h-0.3 M170.3,84.7h0.4 M178.5,91.9h-0.4v1.8h0.4 M186.1,86.2h0.8 M183.1,99.4l2.5,0.8h0.4 M178.2,93.5v1.4h0.4
		 M200.9,96.2h-0.3l-0.8,3.6 M200.6,100.3l0.7-3.7h0.3v-0.4 M198.3,103.3l0.4-0.3l1.1-1.1h1.9v-3.7l-0.4,2.2 M201.7,96.6v1.5h0.3
		 M199.4,99.7l0.7-2.6 M201.7,103.3v-0.3h-3 M202,102h-0.3v1.1h0.3 M197.9,96.4l-1.9-0.5 M190.1,99.4h-0.4l-1.5,0.4 M187.9,97.1
		l1.9,0.4l0,0l1.6,0.4h0.4 M189.8,97.5v1.9 M186.8,88.2h6.8 M210.6,94h-0.3h-1.6v7.7h1.9l1.4,1.4h0.5 M210.2,92.5v1.4 M212.4,96.2
		h-0.3l-0.4,0.4l-0.7,0.4l-0.7-0.4l-0.4-0.4l0.4-1l0.7-0.1l0.7,0.1l0.4,1 M208.9,103.3v-0.3v-1.4 M212.1,103.3l-0.3-0.3h-3.1
		 M208.9,94h-7 M178.2,94.9h-25.7v-1.4v-3.3 M167.4,88.7H167l-0.3,1.1l-1.2,0.4l-1.4-0.4l-0.5-1.1l0.5-1.4l1.4-0.4l1.2,0.4l0.3,1.4
		 M161.1,92.5h8.2 M154.5,84.7h6 M152.3,93.5h25.7"/>
	
		<path id="Layer2_6_MEMBER_46_1_STROKES" style="fill:none;stroke:#020203;stroke-width:0.45;stroke-linecap:round;stroke-linejoin:round;" d="
		M213.2,88.4l-0.8,0.4l-0.3,0.4l0.3,0.7l0.8,0.4l0.8-0.4l0.3-0.7l-0.3-0.4L213.2,88.4z M212.4,87.3h-0.3l-0.4,0.7l-0.7,0.4l-0.7-0.4
		l-0.4-0.7l0.4-0.8l0.7-0.3l0.7,0.3l0.4,0.8 M212.1,91l-0.7-0.4h-0.7l-0.4,0.1 M211.9,94l0.5,0.8h0.8l0.4-0.4l0.4-0.7l-0.4-0.7
		l-0.5-0.1l-0.3-0.1 M218.8,93.8h-0.3l-0.4,0.7l-0.8,0.4l-0.7-0.4l-0.3-0.7l0.3-0.7l0.7-0.4l0.8,0.4l0.4,0.7 M220.3,95.3l-0.7-0.4
		l-0.8,0.4l-0.3,0.5l0.3,0.8l0.8,0.3l0.7-0.3l0.4-0.8L220.3,95.3z M217.3,97.2l-0.7,0.3l-0.3,0.8l0.3,0.5l0.7,0.4l0.8-0.4l0.4-0.5
		l-0.4-0.8L217.3,97.2z M218.6,98.1h0.3 M218.2,103.1l0.4-0.4l-0.4-1l-0.8-0.1l-0.7,0.1l-0.3,0.7l0.3,0.7l0.5,0.4h0.1 M216.2,95.8
		l-0.4-0.5l-0.7-0.4l-0.8,0.4l-0.3,0.5l0.3,0.8l0.8,0.3l0.7-0.3L216.2,95.8z M213,97.2l-0.7,0.3l-0.4,0.8l0.4,0.7l0.7,0.3l0.8-0.3
		l0.4-0.7l-0.4-0.8L213,97.2z M214.1,100.1l0.3,0.7l0.8,0.3l0.7-0.3l0.4-0.7l-0.4-0.4l-0.7-0.7l-0.8,0.7L214.1,100.1z M214.1,98.1
		h0.3 M208.9,99.1l0.7-0.1l0.4-0.7l-0.4-0.8l-0.5-0.1 M214.3,102.5l-0.3-1l-0.8-0.1l-0.8,0.1l-0.3,1l0.3,0.7l0.8,0.1l0.8-0.1
		L214.3,102.5z M216.7,104.6h-0.3l-0.1,0.7l-1.1,0.3l-0.7-0.3l-0.1-0.7l0.1-0.8l0.7-0.3l1.1,0.3l0.1,0.8"/>
	
		<path id="Layer2_6_MEMBER_47_1_STROKES" style="fill:none;stroke:#020203;stroke-width:0.45;stroke-linecap:round;stroke-linejoin:round;" d="
		M200.9,90.8h0.3V88h0.1v-2.2h0.5v-3.1h0.4 M207.3,87.6v-0.7h-4.1v0.7H207.3h0.7v-1.9h-1.1h-4.8v1.9h1.1 M200.9,92.5v-0.4h-0.3
		 M201.3,90.8h4V88h-3.7 M206.9,85.8v-3 M199.1,100.3h-0.4l-0.1,0.7l-0.7,0.3l-1-0.3l-0.1-0.7l0.1-0.7l1-0.4l0.7,0.4l0.1,0.7
		 M198,103.8h-0.7l-0.4,0.4v1.1l0.4,0.4h1.1 M215.1,88.4l0.7-0.4l0.4-0.7l-0.4-0.8l-0.7-0.3l-0.8,0.3l-0.3,0.8l0.3,0.7L215.1,88.4z
		 M205.2,87.9h3.7v1h1.4h0.3 M208.9,88.8v1.9h0.5v1.5h-0.3v0.4 M210.2,94h2.6v-2.9h-2.6V94V96h0.3 M215.1,90.6l-0.8,0.1l-0.3,0.7
		l0.3,0.8l0.8,0.1l0.7-0.1l0.4-0.8l-0.4-0.7L215.1,90.6z M218.8,89.3l-0.7-0.4l-0.8-0.4l-0.4,0.4l-0.4,0.7l0.4,0.8 M213,91h0.4
		 M213,94h0.4 M210.2,91v-2.2 M210.2,95.8h-1.4 M215.1,108l-0.8,0.4l-0.3,0.7l0.3,0.7l0.8,0.4l0.7-0.4l0.4-0.7l-0.4-0.7L215.1,108z
		 M217.2,105.9l-0.5,0.1l-0.3,0.8l0.3,0.5l0.5,0.4h0.1 M227.1,86.1h-6.8 M207.6,86.9h-0.4 M209.3,92.3h-8.2 M208.9,90.8h-3.7
		 M197.4,116.2v6.6h0.3"/>
	
		<path id="Layer2_6_MEMBER_48_1_STROKES" style="fill:none;stroke:#020203;stroke-width:0.45;stroke-linecap:round;stroke-linejoin:round;" d="
		M222.7,88.8v6H222v-7.7h0.7V88.8h1V69.7h0.3 M198.3,88.2h0.5l2.3-7.3 M201.3,88.2H199l-3.4,10.9l6,1.4h0.3 M191.7,125.2h-0.4
		l3-22.6l1.1-3.6L195,99 M197.6,79.1l-8.2,29.6 M187.2,92.3h5.9 M220.8,86.9v7.4h-1.9v-7.5h1.9V86.9z M225.4,96.4l-1.9-0.4v-7.1
		 M212.4,107.6h0.8l0.4-0.5v-0.8l-0.4-0.5h-0.5 M218.2,116.2v-0.8L218,115l-0.8-0.5l-0.7,1.1v0.8h0.3 M218.6,110.6l-0.5-0.1h-0.8
		l-0.5,0.4v0.7l0.5,0.7h0.8l0.5-0.3h0.3"/>
	
		<path id="Layer2_6_MEMBER_49_1_STROKES" style="fill:none;stroke:#020203;stroke-width:0.45;stroke-linecap:round;stroke-linejoin:round;" d="
		M210.8,39v8.2l2.2,8.2l4.2,7.1l4.8,8.9l1.6,9.9 M201.3,80.8l7.9-25h0.3 M221.2,69.7h4.2 M217.3,69.7h-0.5l1.4,3l1.6,8.6v0.4h4
		 M205.8,69.7h11.1l-8.6-17.2L206.9,39 M195,52.7l2.9-6.6V39h0.4 M197.9,79.7h-0.4l-0.1-0.5l-2.6-9.6h-0.5 M195.7,52.2L193.8,66
		l1.1,3.7h6l2.5-7.5l3.6-17.5 M201.5,69.7h-0.7l-3.4,9.6 M196,83.5l-4.2-10.4L190.7,62l4.4-23 M176.3,76.4l-1.4,2.7l-2.6,1.1
		l-2.6-1.1l-1.1-2.7l1.1-2.9l2.6-1l2.6,1L176.3,76.4h0.3 M174.9,76.4l-0.7,1.9l-1.9,0.7l-1.9-0.7l-0.7-1.9l0.7-1.9l1.9-1l1.9,1
		L174.9,76.4h0.4 M184.9,94v0.3h0.4l0.3-0.4h1.9l-0.3-2.2h0.3 M184.9,94.3l-0.4,0.1h-0.3v0.4h0.3 M188.6,94.5h-0.4v1.4v0.4h0.4
		l-0.4,0.1v0.4h-0.4 M188.2,94.5l-0.4-0.1h-0.3l-0.1-0.4 M184.2,94.9l0.3,1.9v-0.4h0.4L185,96h0.5l0.4-0.4h1.4l0.1,0.4h0.7
		 M184.5,96.6l0.4,0.3h0.7 M219.9,81.7v1v4.2 M220.9,92.5h-3.8v-3.4h1.9 M222,87.9h-1.1 M222,93.8h-1.1 M223.5,92.5h-0.8
		 M220.9,88.8H219 M219.9,82.7h-19.4"/>
	
		<path id="Layer2_6_MEMBER_50_1_STROKES" style="fill:none;stroke:#020203;stroke-width:0.45;stroke-linecap:round;stroke-linejoin:round;" d="
		M177.4,69.4h-0.3l4.5,10.4l0.3-0.1l0.3-0.3h0.1l0.3-0.3h1.6L179.4,68h0.3 M181.6,79.9L181.6,79.9h-0.3v0.3h-0.1l0.1,0.3h0.3
		 M181.6,82h0.3l0.3,0.4h0.3l-0.3-1.1l-0.3,0.3l-0.3,0.1V82l-0.3-1.6 M182.2,81.3h0.1l0.7-0.4h0.1l0.4-0.1h1.9v0.1h0.3l-0.5-1.5
		l-0.1-0.3h-0.7 M182.4,82.4l0.1,0.3h0.4 M185,79.4h0.4 M185.6,80.9v0.4h-0.3v0.3h-0.4 M168.9,77.6l1.6,5.5h4.2l-0.1-0.4l1.2-5.5
		h0.3 M171.5,74.6h1.9l0.7,1.9l-0.7,1.8h-1.9l-1.1-1.8L171.5,74.6z M174.8,83.2l0.1,1.6h3.1v-2.1h-3.4 M184.1,88.4l-0.1-0.4h-5.7
		l-2.9-1.9l-0.1-1.4h-0.3 M178.2,87.9v-3.1h0.4 M183.1,91.9h-5.1l-5.7-2.9l-1.6-5.7 M183.9,87.9l-1.4-5.2h-4.5 M183.1,99.4v-4h0.4
		 M133.9,58.5h-0.3h-2.7v-1.1h-1.1 M134.6,57.4h-1.1v1.1 M133,54.6v0.7h0.3 M138.2,54.4l-1.1,0.7 M138.2,57.1l18.6-4.5h0.4
		 M153.6,53.5v10.5h0.4 M126.9,55l1.4-1.1h0.1l-0.1-0.4h-1.6l-1.1,1.1 M122.6,63.8V57h0.3 M125.9,57.4l0.3-0.3 M128.9,56.5l-0.1,1.5
		 M130.9,54.6v0.7h0.4 M128.3,54.1l0.7,1.1 M130.3,59.8h5.6 M129.8,57.1h5.5 M130.7,57.4h2.7"/>
	
		<path id="Layer2_6_MEMBER_51_1_STROKES" style="fill:none;stroke:#020203;stroke-width:0.45;stroke-linecap:round;stroke-linejoin:round;" d="
		M143,52.7v0.5l1.6-0.4H143l1.6-0.5l1.1,0.4l10.3-2.5h0.4 M135.2,54.6H135h-5.2v-0.7h1v-1.4l1.6-0.5l1.2,0.5v1.4h1l1.9-2.1h3
		l2.2,1.6l1.6-0.4v0.4 M146.3,52.7l-0.5-0.1l-1.1,0.1H146.3z M142.1,57.4h-0.4l-0.1,0.1l-0.1,1h1.6v-2.3h0.4 M146.3,55.5v3.1h0.1
		v-1.5h0.3 M147.1,55l0.8,2.7h0.3v-1.1 M148.2,57.8v2.3h0.4 M141.4,58.5l-0.5,1.4h5.5l1-0.7l0.7-1.4 M146.9,58.5h-0.3 M148.6,57.4
		l0.3-0.3 M146.3,58.5H143 M134.8,54.6l1.5-1.9l2.7-0.5l2.1,1.5l0.3-0.1 M133.6,58.5h1.6l-0.7-1.1l1.1,1.1l1.4,1.2h3l1.8-2.1
		 M135.5,58.3l-0.4,0.1l1,1.6h4.8L141,60 M134.8,57.1l1.9,2.2h3l1.8-2.2 M141.3,53.7l-3,0.7 M151.2,56.5v5.6h-3.1V60h-7.4
		 M140.7,51.5h4.5 M153.6,56.1v7.8h0.4 M122.6,51.5l2.2-1.9h0.4v-0.4h3.3v0.4h19.8 M136.2,51.5h-4.8l-1.1,0.5l-0.5,0.5 M125.2,49.6
		h0.3 M128.5,56.5v5.6h-3.3v-5.6h0.3 M135.9,60.1h-5.3h-1.9 M130.9,58.5h-1.1v-1.1V57 M128.9,58.1l0.4,1.2l1.4,0.8 M129.8,57.4h0.3
		 M128.9,54.4h-0.3v-4.8 M125.2,54.6v-5.2 M128.9,51.1h19.6 M133.6,54.1h-2.7 M133.6,52.7h-2.7"/>
	
		<path id="Layer2_6_MEMBER_52_1_STROKES" style="fill:none;stroke:#020203;stroke-width:0.45;stroke-linecap:round;stroke-linejoin:round;" d="
		M180.4,69.7h10.8 M170.3,53.5h-0.4l4.8,5.7l7.8-4.5h0.4 M174.8,59.3l-3.1,1.9l-5.1,2.7 M186.8,88.2l-1.4-0.4l-1.1,0.4 M185.3,82.7
		h10.4 M187.5,63.5l-16.3,8.9l-0.1,0.1l-1.8-3.1h0.4 M149.1,38.2l2.6,2.6h0.4 M144.1,37.7l0.4,1.4h0.3 M151.2,49.6h0.4v-0.4h-3.3
		v3.1 M146.6,52.7l-0.4-0.7l-1.1-0.5 M146.9,57.1h-0.3v0.3l0.3,0.1h-5.2 M148.2,55v1.5l0.1,0.1v-0.1l2.5-2.2 M151.7,54.6l-2.6,2.3
		l0.7,0.4l1.5-0.1l0.3-0.7l0.4-1.1L151.7,54.6l-0.4-0.7h0.4v0.3h0.4 M148.6,57.4l0.3-0.1l-0.5-0.3v5.5h3.1l-0.1-5.6 M141.5,57.1h5.1
		 M133.6,52.7h1.6l1.1-1.6 M134.4,54.1l0.8-1.4 M141.7,53.7l-0.4-1h-0.4 M140.6,51.2l0.7,1.6h2.2 M166.7,51.1l0.1,0.1l0.1-0.1H166.7
		z M167,51.1l0.4-0.1h0.7l-2.2-1.4h-0.4l-0.8,0.5l-0.3,0.1l-0.7,0.7l-0.4,0.4l-0.4,0.5l-0.1,0.4v0.3l-0.4,0.5v0.7h0.4l0.1,0.1
		l1.6,1.5v-0.1l-0.3-0.4l0.3-0.3v-0.4v-0.3l1.4-2.1l0.7-0.3l0.1-0.3l0.1-0.1l1.2,1v-1.2 M164.7,54.4l1.1,0.7l0.1,0.1l1.6,1.4
		l4.1,4.8 M164.7,55.6h0.4l0.4-0.1l0.1-0.4h0.1 M153.6,50.8h-0.4l-1.1-1.4h-0.4v1.9h0.4 M152.1,54.6h-0.4l0,0 M168.1,52.2l1.9,1.4"
		/>
	
		<path id="Layer2_6_MEMBER_53_1_STROKES" style="fill:none;stroke:#020203;stroke-width:0.45;stroke-linecap:round;stroke-linejoin:round;" d="
		M186.4,60.4l-1.1,2.2l-2.2,1.1l-2.3-1.1l-1.1-2.2l1.1-2.3l2.3-1.1l2.2,1.1L186.4,60.4h0.4v-2.5l-4.1-3.1l-0.3-0.4l0.3-0.7l0.4-0.1
		l1,0.1l0.1,0.7h0.3 M182.7,57.6l0.4-0.3l0.7,0.4l1.2,0.5l1,2.1l-1,1.8l-1.1,0.4l-0.1,0.1v-0.1l-0.7,0.3H183h-0.4l0,0l-1.5-0.7
		l-0.7-1.8l0.7-2.1L182.7,57.6v5.2l0.4,0.1 M182.7,54.8l0.4,0.3l1-0.3l0.1-0.4 M179.7,56.5v-4.1h7v5.5l0.4,0.4l0.3,5.2 M173,57.1
		h6.3 M174.5,59.1h1.1 M168.1,63l1.6,2.5l3.4-1.6H173l-1.5-2.7 M174.5,63.4h-0.3l-0.8,0.4l-0.1,0.1 M168.3,69h-0.3l0.3,0.7h0.1
		l1.4-0.7l0.7-0.4l0.3-0.1l0.3-0.1l0.5-0.3l-1.4-1.6l-0.1-0.1l-1.6,0.8l0.1,0.1h0.1 M169.7,65.4l0.5,0.8h0.1 M171.8,68h0.3
		 M171.2,68.3l1.8,3.1h0.4 M183.9,62.6l-0.1,0.1v-5.1 M182.3,66.4l0.7,0.7h0.4l0.5-0.4l0.1-0.4l-0.1-0.5 M179.7,68l3.4,0.8l3.7-0.8
		v-7.7 M170,69l1.9,3.4h0.3 M170.7,68.6l1.9,3.4 M154.5,67.9h5.7l3.7,2.2l4-1.1l-0.1-0.4h-0.1l-4.1,0.4l-3.1-2.3l-0.7-3.7l1.9-3.4
		h7.1l0.1,0.1l1.5,2.1 M168.8,67.1l-0.4,0.1l-0.5,0.3l-0.1,0.1l0.4,0.7 M168.3,69.7l0.1,0.4 M168.8,67.1l-2.1-3.1l1.6,3.4 M154,57.1
		h14.4 M153.2,59.1H170"/>
	
		<path id="Layer2_6_MEMBER_54_1_STROKES" style="fill:none;stroke:#020203;stroke-width:0.45;stroke-linecap:round;stroke-linejoin:round;" d="
		M171.5,64.6l1.9,3.6h0.1l0.1-0.1l1.4-1l1.1-0.7l-1.4-2.5l-0.4,0.1l1.4,1.9l-1.1,0.4l-1.4-1.8l1.1-0.5 M171.5,69.4l1.9-1.4
		 M176.3,66.4H176 M175.1,67.1l1.6,2.5 M174.6,63.9l-0.4-0.7 M156.2,42.6l-0.3-0.3h-0.1L156.2,42.6L156,44l8.8,5.9 M156.2,49
		l-0.5-1.1l-1.6-1.2h-0.4l-0.1,0.4h-0.8l-1.9-1.4l-0.3-0.1v-1l0.3-0.1V44l0.1-0.4l0.3-0.4l0.7-0.5l0.1-0.3l0.4-0.4l0.4-0.4l0.3-0.4
		h0.4l0.1-0.1h0.4v0.1l1.8,1.2l-0.3,0.1h-0.4l-0.4,0.4l1.4,1 M152.7,47.1v-1.4l0.1-0.4l0.3-0.5l0.4-0.1l0.1-0.5l0.7-0.1l0.3-0.5
		l0.1-0.1 M155.6,48.1L155.6,48.1l0.3-0.1 M154,46.8l-1.4-1.1 M157.3,45.3h-0.4l1.9,2.3l0.3,2.6h0.1l0.1,0.1l3.3,2.6 M154.8,43.8
		l2.2,1.6 M146,37.7l-0.7,0.3l-0.4,0.7l-0.3,0.3l-0.1,0.4v0.3l-0.3,0.3l0.3,0.1v0.3 M151.7,40.8l-1.9,3.1h0.4 M156.6,50.1h-0.4v-0.3
		h0.4l0.1-0.3h0.7l0.3,0.3h0.4v0.3l0.3,0.1v0.3l0.1,0.4v0.1l-0.1,0.4V52h-0.3l-0.4,0.1h-0.3l-0.1,0.3l-0.3,0.1l1.4-0.1l0.7-2.1v-0.1
		l-2.2-1.2l-1.8,1.2 M159.2,50.3L159.2,50.3 M157,52.6l-0.8,0.1 M169.3,66.7l-1.8-3.4h0.3 M167,63.8l-0.4-1.6l-1.5-0.4l-1.4,0.8
		l-0.1,1.4l0.5,1.4l1.5,0.3l1.1-0.8h0.3"/>
	
		<path id="Layer2_6_MEMBER_55_1_STROKES" style="fill:none;stroke:#020203;stroke-width:0.45;stroke-linecap:round;stroke-linejoin:round;" d="
		M150,39.3l0.1-0.3v-0.8h-1.1l-0.1,0.3h-0.5l-0.1,0.4l-1,0.4l-0.1,0.7l-0.5,0.1l-0.1,0.7v0.3l-0.3,0.1V42h0.7l0.3-0.1"/>
	
		<path id="Layer2_6_MEMBER_56_1_STROKES" style="fill:none;stroke:#020203;stroke-width:0.45;stroke-linecap:round;stroke-linejoin:round;" d="
		M94.9,71.2l-1.8,2.6l0.1,0.3l0.3,0.4l0.1,0.1l2.1-1.9 M93.6,74.6l0.1,0.1v0.8l0.1,0.3l-0.1,0.4v0.3l-0.4,0l-4.8,4h-0.1l-0.3,0.4
		h-0.3l-0.3-0.4h-0.8l-0.1-0.3l-0.3-0.3v-0.1l-0.7-0.5v-1.4l0.3-0.3h0.4v-0.3h0.4l4.4-3.7h1.4l0.3,0.3h0.3 M88.2,79.9l-1.4-0.4
		l-0.1-1.2l1.1,0.4L88.2,79.9h0.5l0.3-0.1v-0.3l-0.3-0.4V79l-0.1-0.3v-0.3l-0.3-0.1l-0.5-0.7h-0.1l-0.5-0.3h-0.1l-0.4,0.3
		 M88.4,80.5l0.1-0.3v-0.3 M137.2,56.4l0.4,0.4h1.1 M98.7,63.8l4.1-6h0.3l8.3-1.2l17,0.1h0.7l0.4,0.4l12.5-1.6h0.4 M150.3,38.2
		l-0.7-0.7 M146.3,41.2l1.9,1.5 M144.5,40.3l1.6,1.9h0.3 M124.3,55.9l-12.9-0.7l-0.1-0.1l-9.9,2.3L98,62.8h0.3 M142.4,54.6L129.6,55
		l-0.3,0.1l-1.1-0.1l-5.5-0.1l-8.9-0.4l-9,1.1l-7.5,4.1h-0.4 M99,59.3l-0.4,0.4v0.4 M100.9,57.1h-2.2 M98.6,59.7l-1.6,1 M122.9,51.5
		h-0.3v3.4 M125.2,57.1l1.6,0.4l1.6-0.8 M128.1,54.9l0.7-0.4 M129.8,52.7l-0.4,2.3"/>
	<path style="fill:#201B18;" d="M137.8,27.7h-0.5v4h0.5v-1.4l0.7-0.7l1.4,2.1h0.7l-1.8-2.5l1.8-1.6h-0.7l-1.9,1.9L137.8,27.7
		 M142.8,27.7h-0.4c0,0.1-0.1,0.1-0.1,0.3l-0.3,0.3c-0.3,0.1-0.4,0.3-0.7,0.4V29c0.1,0,0.3-0.1,0.5-0.1l0.3-0.3h0.1v3.1h0.4
		L142.8,27.7 M146.7,27.8c-0.1-0.1-0.3-0.1-0.5-0.1l-0.1-0.1H144v4h0.5v-1.6h1.1c0.5,0,1-0.1,1.1-0.3c0.1-0.3,0.3-0.5,0.3-1
		c0-0.1,0-0.4-0.1-0.5C147,28.1,146.9,27.9,146.7,27.8 M146.6,28.4c0.1,0.1,0.1,0.3,0.1,0.4c0,0.3-0.1,0.4-0.1,0.5
		c0,0.1-0.4,0.1-0.7,0.1h-1.1v-1.4h1.5h0.1C146.3,28.2,146.5,28.2,146.6,28.4 M150,27.8c-0.1-0.1-0.4-0.1-0.7-0.1h-1.5v4h1.8
		l0.4-0.1l0.4-0.1l0.1-0.1l0.1-0.1c0.1-0.1,0.1-0.4,0.1-0.4c0-0.1-0.1-0.4-0.1-0.7c-0.1-0.3-0.4-0.3-0.5-0.3
		c0.1-0.1,0.4-0.3,0.4-0.4c0.1-0.1,0.1-0.4,0.1-0.5s-0.1-0.3-0.1-0.4C150.3,27.9,150.3,27.8,150,27.8 M149.7,28.2L149.7,28.2
		c0.1,0,0.3,0.1,0.4,0.1v0.1l0.1,0.1v0.1c0,0.1,0,0.1-0.1,0.3c0,0.1-0.1,0.1-0.3,0.1h-1.4v-1.1h1.2 M148.2,31.1v-1.4h1.1
		c0.3,0,0.4,0,0.5,0.1c0.1,0,0.1,0.1,0.3,0.1c0.1,0.1,0.1,0.3,0.1,0.4s0,0.1-0.1,0.3c0,0.1-0.1,0.1-0.1,0.1l-0.1,0.1h-0.3
		L148.2,31.1L148.2,31.1z"/>
	<path style="fill:#201B18;" d="M141.8,76.7c0.1-0.3,0.1-0.5,0.1-1c0-0.7-0.1-1.1-0.7-1.6c-0.4-0.4-1.1-0.7-1.8-0.7
		c-0.7,0-1.4,0.1-1.9,0.5c-0.4,0.4-0.7,1-0.7,1.6l1.1,0.1c0-0.4,0.1-0.8,0.4-1.1c0.3-0.3,0.7-0.4,1.1-0.4c0.4,0,0.7,0.1,1.1,0.4
		c0.3,0.3,0.4,0.7,0.4,1.1s-0.1,0.7-0.4,1.1s-0.8,1-1.6,1.6c-0.5,0.4-1.1,0.8-1.4,1.2c-0.3,0.4-0.5,0.7-0.7,1.1
		c-0.1,0.1-0.1,0.4-0.1,0.7h5.2v-1h-3.8c0.1-0.1,0.3-0.4,0.4-0.5l1.1-1.1c0.7-0.5,1.2-1.1,1.6-1.4C141.5,77.2,141.8,76.9,141.8,76.7
		 M147.1,73.5h-0.8l-3.7,5.1v1h3.4v1.9h1.1v-1.9h1.1v-1h-1.1L147.1,73.5 M146.2,78.6h-2.5l2.5-3.6V78.6 M131,81.5v-2.7l1.2-1.4
		l2.9,4h1.4l-3.4-4.8l3.3-3.1H135l-4,4v-4h-1.2v7.8L131,81.5L131,81.5z"/>
	<path style="fill:#201B18;" d="M148.6,118.9h-1.4l-4,4v-4h-1.1v7.9h1.1v-2.7l1.4-1.2l2.7,4h1.4l-3.4-4.7L148.6,118.9 M153,120
		c0.3,0.3,0.4,0.5,0.4,1.1c0,0.4-0.1,0.7-0.4,1.1c-0.4,0.4-1,1.1-1.6,1.6c-0.5,0.4-1.1,1-1.4,1.2c-0.3,0.4-0.5,0.7-0.7,1.1
		c-0.1,0.1-0.1,0.4-0.1,0.7h5.2v-1h-3.8c0.1-0.1,0.1-0.3,0.4-0.5l1.1-1.1c0.7-0.5,1.2-1.1,1.5-1.4c0.3-0.4,0.5-0.7,0.7-1.1
		c0.1-0.3,0.1-0.5,0.1-1c0-0.5-0.1-1.1-0.7-1.5c-0.4-0.4-1.1-0.7-1.8-0.7s-1.4,0.1-1.9,0.5c-0.4,0.4-0.7,1-0.7,1.8l1.1,0.1
		c0-0.4,0.1-0.8,0.4-1.1c0.3-0.3,0.7-0.4,1.1-0.4S152.7,119.9,153,120 M160.3,119.9v-0.8h-4l-0.8,4l0.8,0.1c0.1-0.3,0.4-0.4,0.7-0.5
		c0.1-0.1,0.4-0.3,0.8-0.1c0.4,0,1,0.1,1.2,0.5c0.3,0.4,0.4,0.7,0.4,1.4c0,0.5-0.1,1.1-0.4,1.4c-0.4,0.4-0.7,0.5-1.2,0.5
		c-0.4,0-0.7-0.1-1.1-0.4c-0.4-0.3-0.4-0.7-0.5-1.1h-1.1c0.1,0.7,0.3,1.2,0.7,1.6c0.4,0.4,1.1,0.5,1.8,0.5c0.8,0,1.6-0.3,2.1-0.8
		c0.4-0.5,0.5-1.2,0.5-1.9s-0.1-1.4-0.7-1.8c-0.4-0.4-1.1-0.7-1.8-0.7c-0.5,0-1.1,0.1-1.5,0.5l0.4-2.2h3.4L160.3,119.9L160.3,119.9z
		"/>
	<path style="fill:#201B18;" d="M173.8,166c-0.1-0.3-0.4-0.5-0.8-0.7c-0.4-0.1-0.7-0.3-1.1-0.3c-0.7,0-1.1,0.1-1.6,0.5
		c-0.4,0.4-0.7,0.8-0.8,1.5l1.1,0.1c0.1-0.4,0.1-0.8,0.4-1.1c0.3-0.3,0.5-0.4,1-0.4c0.4,0,0.7,0.1,1,0.4c0.1,0.1,0.4,0.5,0.4,0.8
		c0,0.4-0.1,0.8-0.4,1.1c-0.3,0.1-0.7,0.4-1.1,0.4h-0.1l-0.1,0.8l0.5-0.1h0.1c0.4,0,0.8,0.1,1.1,0.4s0.4,0.7,0.4,1.1
		c0,0.4-0.1,0.8-0.4,1.1c-0.3,0.3-0.7,0.4-1.1,0.4s-0.7-0.1-1-0.3c-0.3-0.3-0.4-0.7-0.5-1.2l-1.1,0.1c0.1,0.7,0.4,1.2,0.8,1.6
		c0.4,0.4,1.1,0.7,1.6,0.7c0.7,0,1.4-0.3,1.9-0.7c0.4-0.4,0.7-1.1,0.7-1.6c0-0.4-0.1-1-0.4-1.4c-0.3-0.4-0.7-0.5-1.1-0.7
		c0.4-0.1,0.7-0.4,0.8-0.7c0.1-0.3,0.3-0.5,0.3-0.8C174.1,166.7,174.1,166.3,173.8,166 M162.6,165.1h-1.4l-4,4v-4h-1.1v7.9h1.1v-2.7
		l1.4-1.4l2.7,4h1.4l-3.6-4.7L162.6,165.1 M168.1,168.1c0.1-0.3,0.1-0.5,0.1-1c0-0.5-0.1-1.1-0.7-1.6c-0.5-0.5-1.1-0.7-1.8-0.7
		c-0.7,0-1.4,0.1-1.8,0.5s-0.7,1-0.7,1.8l1.1,0.1c0-0.4,0.1-1,0.4-1.1c0.3-0.3,0.7-0.4,1.1-0.4s0.8,0.1,1.1,0.4s0.4,0.7,0.4,1.1
		c0,0.4-0.1,0.7-0.4,1.1c-0.3,0.4-0.8,1-1.8,1.6c-0.5,0.4-1.1,0.8-1.2,1.2c-0.3,0.4-0.5,0.7-0.7,1.1c-0.1,0.1-0.1,0.4-0.1,0.7h5.2
		v-1h-3.8l0.1-0.4l1.4-1.1c0.7-0.7,1.2-1.1,1.4-1.4C167.7,168.8,167.9,168.3,168.1,168.1z"/>
</g>
</svg>
