<?xml version="1.0" encoding="utf-8"?>
<!-- Generator: Adobe Illustrator 24.3.0, SVG Export Plug-In . SVG Version: 6.00 Build 0)  -->
<svg version="1.1" id="Ebene_1" xmlns="http://www.w3.org/2000/svg" xmlns:xlink="http://www.w3.org/1999/xlink" x="0px" y="0px"
	 viewBox="0 0 349.1 174.8" style="enable-background:new 0 0 349.1 174.8;" xml:space="preserve">
<style type="text/css">
	.st0{fill:#FFCC00;}
	.st1{fill:#FF9900;}
	.st2{fill:#0099FF;}
	.st3{fill:#666666;}
	.st4{fill:#B1B1B1;}
	.st5{fill:#996633;}
	.st6{fill:none;stroke:#373535;stroke-width:0.5;stroke-miterlimit:5;}
	.st7{fill:none;stroke:#373535;stroke-width:0.25;stroke-miterlimit:5;}
</style>
<path class="st0" d="M128.6,33.9l-0.3,0.1l-5.8,3.3l-1.9,0.8l-1.1,0.2l-2.3,0.2l-1.2-0.1l-2.2-0.4l-1.9-0.8l-7.1-4.1
	c-0.2-0.1-0.4-0.1-0.7,0c-0.1,0-0.1,0-0.2,0.1l-0.4-0.5l-0.2-0.2l-1.3-1.4l-0.2-0.1l-5.3-3L94,27.1h0l-3.6-2l-0.9,0.5l4,2.3l0,0
	l1.2,1l0.4,0.2c0,0.1,0,0.1,0.1,0.2c0,0,0.1,0.1,0.1,0.1l5.4,3.1l0.2,0.5l-1.1-0.3l-5.6-3.2l-2.5-1.1l-0.2,0.1l-3.6-2.1L86.9,27
	l4.1,2.3l0,0.1v0l1.4,1.1l0.1,0v0l0.6,0.5l5.7,3.3l2.5,0.6l1,0.4l0.5,0.2c0,0.3,0.2,0.6,0.4,0.7l6.7,3.9l2.7,1.1l3.1,0.6h3.3
	l3.1-0.6l1.4-0.5l6.6-3.7l0.3-0.2l0.1-0.2l0.1-0.2v-0.3l-0.1-0.2l-0.2-0.2l-0.2-0.2l-0.2-0.1l-0.3,0l0-0.2v-0.2l-0.1-0.3l-0.2-0.5
	l-0.2-0.2l-0.2-0.1H128.6 M67.3-0.7L54.1,6.9v12l15.5,8.9l13.2-7.6v-12L67.3-0.7 M75.6,13.8v2l-1.9,1.1v-2L75.6,13.8 M76.7,13.2
	l1.9-1.1v2l-1.9,1.1V13.2 M79.8,13.4v-2l1.9-1.1v2L79.8,13.4 M81.7,13.8v2l-1.9,1.1v-2L81.7,13.8 M81.7,17.3v2l-1.9,1.1v-2
	L81.7,17.3 M76.7,20.1l1.9-1.1v2l-1.9,1.1V20.1 M78.6,17.6l-1.9,1.1v-2l1.9-1.1V17.6 M73.7,18.4l1.9-1.1v2l-1.9,1.1V18.4 M70.7,18.7
	v-2l1.9-1.1v2L70.7,18.7 M70.7,25.6v-2l1.9-1.1v2L70.7,25.6 M73.7,23.9v-2l1.9-1.1v2L73.7,23.9 M70.7,20.1l1.9-1.1v2l-1.9,1.1V20.1
	 M171.3,34.5c-0.3-0.2-0.6-0.2-1,0l-13.5-7.8l-2.8-1.2l-3.4-0.6l-1.8-0.1l-3.4,0.3l-3.1,0.9l-8.8,5l-0.2,0.2l-0.2,0.2l-0.1,0.3
	l0.1,0.5l0.4,0.4l0.3,0.1l0.3,0l0,0.2l0,0.2v0.3l0.1,0.2l0.2,0.2l0.2,0.2l0.2,0.1h0.3l0.3-0.1l8.9-5.1l2.2-0.7l2.4-0.2l1.2,0
	l2.4,0.4l2,0.9l14.1,8.1c0,0.4,0.2,0.7,0.5,0.9l7.7,4.4c0-0.7,0.3-1.4,0.7-2.2c0.4-0.8,1-1.3,1.6-1.7L171.3,34.5z"/>
<path class="st1" d="M72.6,19.1l-1.9,1.1v2l1.9-1.1V19.1 M73.7,21.9v2l1.9-1.1v-2L73.7,21.9 M70.7,23.6v2l1.9-1.1v-2L70.7,23.6
	 M70.7,16.6v2l1.9-1.1v-2L70.7,16.6 M75.6,17.3l-1.9,1.1v2l1.9-1.1V17.3 M76.7,18.7l1.9-1.1v-2l-1.9,1.1V18.7 M78.6,19.1l-1.9,1.1v2
	l1.9-1.1V19.1 M81.7,19.3v-2l-1.9,1.1v2L81.7,19.3 M81.7,15.8v-2l-1.9,1.1v2L81.7,15.8 M79.8,11.4v2l1.9-1.1v-2L79.8,11.4
	 M78.6,12.1l-1.9,1.1v2l1.9-1.1V12.1 M75.6,15.8v-2l-1.9,1.1v2L75.6,15.8z"/>
<path class="st2" d="M193.7,44.1c-0.1,0.1-0.3,0.2-0.4,0.2l-2.1,0.2l-5.7-3.3c-0.3-0.2-0.6-0.2-0.9-0.1l-1-0.6
	c-0.1-0.4-0.3-0.6-0.6-0.8l-2-1.1c-0.5-0.3-1-0.2-1.7,0.2c-0.1,0-0.1,0.1-0.1,0.1c-0.6,0.4-1.2,1-1.6,1.7c-0.4,0.8-0.7,1.5-0.7,2.2
	c0,0.1,0,0.1,0,0.2c0,0.8,0.2,1.3,0.7,1.6l1.9,1.1c0,0,0.1,0.1,0.1,0.1l0.1,0.1l0.4,0.1h0.2l0.2,0l1.1,0.6c0.1,0.3,0.3,0.5,0.5,0.7
	l5.6,3.2l0.9,2.1c0,0.1,0,0.2,0,0.4c0,1.6,0.5,2.7,1.4,3.2l1.3,0.8l-0.3,0.5l-0.4,1.4l0,3.6l0.2,0.7l0.3,0.7l0.9,1.4l2.7-0.7l0,0.7
	c0,1.7,1.1,3.2,3.2,4.4c2.1,1.2,4.6,1.8,7.5,1.8h0c1.9,0,3.6-0.3,5.2-0.8c1.2-0.4,2.2-0.9,3.1-1.4c-0.3,0-0.5,0-0.8,0
	c0.5-0.2,1-0.3,1.5-0.5c0.6-0.3,1.2-0.6,1.7-0.9c0.6-0.4,1.2-0.7,1.7-1.1c1.8-1.5,2.7-3.1,2.7-5l0.1-2.2c0-0.5-0.1-1-0.2-1.4
	c-0.1-0.3-0.2-0.5-0.3-0.7l-0.3-0.7l-0.9-1.3l-1.3-1.2l-3.4-1.9l-4.3-1.1l-12.8-7.4C196.3,43.2,195.1,43.3,193.7,44.1z"/>
<path class="st3" d="M192.2,83.4l0,2.1c0,1,0.3,2,0.9,2.8c0.7,1,1.7,1.8,3,2.7c2.6,1.5,5.7,2.2,9.3,2.3c0.1,0,0.1,0,0.2,0
	c3.7,0,6.9-0.8,9.5-2.3c1.3-0.8,2.3-1.6,3-2.5c0.7-0.9,1-1.9,1-3v-2.1c0-1.1-0.3-2.1-1-3c-0.7-0.9-1.7-1.7-3-2.5
	c-0.8-0.4-1.5-0.8-2.4-1.1h0c0,0,0,0,0,0c-2.1-0.8-4.5-1.2-7.1-1.2c-0.1,0-0.1,0-0.2,0c-3.6,0-6.7,0.8-9.3,2.3
	C193.5,79.5,192.2,81.3,192.2,83.4 M205.6,82.1c1.3,0,2.5,0.2,3.5,0.7c1,0.4,1.8,1,2.2,1.8v0c-0.3,0.5-0.8,0.9-1.5,1.4
	c-1.2,0.7-2.6,1-4.2,1c-0.1,0-0.1,0-0.2,0c-1.5,0-2.9-0.4-4-1c-0.7-0.4-1.2-0.9-1.4-1.4h0l0,0c0.4-0.7,1.1-1.3,2.1-1.8
	c1-0.4,2.1-0.6,3.3-0.7C205.5,82.1,205.6,82.1,205.6,82.1z"/>
<path class="st4" d="M205.6,82.1c-0.1,0-0.1,0-0.2,0c-1.2,0-2.3,0.2-3.3,0.7c-1,0.4-1.7,1-2.1,1.8h0c0.3,0.5,0.7,1,1.4,1.4
	c1.1,0.6,2.4,0.9,4,1c0.1,0,0.1,0,0.2,0c1.6,0,3-0.3,4.2-1c0.7-0.4,1.2-0.9,1.5-1.4c-0.4-0.8-1.1-1.4-2.2-1.8
	C208.1,82.3,206.9,82.1,205.6,82.1 M295.1,115.4v-8.2l-24.4-14.1h-18.2l0.2-0.1h13.6l3.9-2.3V83l0.4-0.3h-0.4v-0.1l-0.1,0.1h-17.6
	l-24.7-14.3l-15,8.5h0c0.8,0.3,1.6,0.7,2.4,1.1c1.3,0.8,2.3,1.6,3,2.5c0.7,0.9,1,1.9,1,3v2.1c0,1.1-0.3,2.1-1,3
	c-0.7,0.9-1.6,1.7-3,2.5c-2.6,1.5-5.8,2.3-9.5,2.3c-0.1,0-0.1,0-0.2,0c-3.6,0-6.8-0.8-9.3-2.3c-1.4-0.8-2.4-1.7-3-2.7l-7.1,4.2
	h-18.1v8.2l3.9,2.3h-3.9l-44.9,25.9v8.2l24.8,14.3h3.9l-3.9,2.3v8.2h18.1l24.4,14.1L235,150h18.1v-8.2l-3.9-2.3h3.9L295.1,115.4
	 M220.7,118.9l0,2.1c0,2.4-1.5,4.4-4.4,6.1c-2.9,1.7-6.5,2.5-10.6,2.5c-4.1,0-7.7-0.8-10.6-2.5c-2.9-1.7-4.4-3.7-4.4-6.1v-2.1
	c0-1.5,0.7-2.9,2-4.3c1.3-1.3,3.1-2.4,5.5-3.2v-5.3l2.7-0.7l1.9-0.3l0.9,1.3l0.1,2.3l-0.9,0.1l-0.2,0v1.5c0.9-0.1,1.8-0.2,2.9-0.2
	c4.1,0,7.7,0.8,10.6,2.5C219.2,114.5,220.7,116.5,220.7,118.9z"/>
<path class="st5" d="M220.6,120.9l0-2.1c0-2.4-1.5-4.4-4.4-6.1c-2.9-1.7-6.5-2.5-10.6-2.5c-1.1,0-2,0.1-2.9,0.2v-1.5l0.2,0l0.9-0.1
	l-0.1-2.3l-0.9-1.3l-1.9,0.3l-2.7,0.7v5.3c-2.3,0.8-4.1,1.8-5.5,3.2c-1.3,1.4-2,2.8-2,4.3v2.1c0,2.4,1.5,4.4,4.4,6.1
	c2.9,1.7,6.4,2.5,10.6,2.5c4.1,0,7.7-0.8,10.6-2.5C219.2,125.4,220.6,123.3,220.6,120.9z"/>
<path id="Layer0_5_MEMBER_0_MEMBER_0_1_STROKES" class="st6" d="M104.9,33.3c-0.3-0.1-0.6-0.1-0.9,0.1c-0.3,0.2-0.6,0.5-0.9,0.9
	c-0.3,0.4-0.4,0.8-0.4,1.2c0,0.4,0.1,0.7,0.4,0.8"/>
<path id="Layer0_5_MEMBER_0_MEMBER_1_1_STROKES" class="st6" d="M220.7,118.9c0-2.4-1.5-4.4-4.4-6.1c-2.9-1.7-6.5-2.5-10.6-2.5
	c-1.1,0-2,0.1-2.9,0.2"/>
<path id="Layer0_5_MEMBER_0_MEMBER_2_1_STROKES" class="st6" d="M198.1,111.4c-2.3,0.8-4.1,1.8-5.5,3.2c-1.3,1.4-2,2.8-2,4.3
	c0,2.4,1.5,4.4,4.4,6.1c2.9,1.7,6.4,2.5,10.6,2.5c0.6,0,1.6-0.1,2.8-0.2"/>
<path id="Layer0_5_MEMBER_0_MEMBER_3_1_STROKES" class="st6" d="M213.5,126.3l2-0.9l1.8-1.1l1.4-1.2l1-1.3l0.7-1.4l0.2-1.4"/>
<path id="Layer0_5_MEMBER_0_MEMBER_4_1_STROKES" class="st6" d="M190.7,120.9c0,2.4,1.5,4.4,4.4,6.1c2.9,1.7,6.4,2.5,10.6,2.5
	c4.1,0,7.7-0.8,10.6-2.5c2.9-1.7,4.4-3.7,4.4-6.1"/>
<path id="Layer0_5_MEMBER_0_MEMBER_5_1_STROKES" class="st6" d="M220.7,120.9v-2"/>
<path id="Layer0_5_MEMBER_0_MEMBER_6_1_STROKES" class="st6" d="M190.7,120.9v-2"/>
<path id="Layer0_5_MEMBER_0_MEMBER_7_1_STROKES" class="st6" d="M211.4,118.9c0-0.9-0.6-1.7-1.7-2.4c-1.1-0.7-2.5-1-4.1-1
	c-1.6,0-2.9,0.3-4.1,1c-1.1,0.7-1.7,1.4-1.7,2.4c0,0.9,0.6,1.7,1.7,2.3c1.1,0.7,2.5,1,4.1,1l1.6-0.1"/>
<path id="Layer0_5_MEMBER_0_MEMBER_8_1_STROKES" class="st6" d="M211,120.2l0.4-0.8l0.1-0.5"/>
<path id="Layer0_5_MEMBER_0_MEMBER_9_1_STROKES" class="st6" d="M211.1,119.9c-0.4-0.7-1.1-1.3-2.1-1.7c-1-0.4-2.1-0.7-3.4-0.7
	c-1.2,0-2.4,0.2-3.4,0.7c-1,0.4-1.7,1-2.1,1.7"/>
<path id="Layer0_5_MEMBER_0_MEMBER_10_1_STROKES" class="st6" d="M202.6,124.8c0,0.2-0.1,0.4-0.4,0.5c-0.2,0.1-0.5,0.2-0.8,0.2
	s-0.6-0.1-0.9-0.2c-0.2-0.1-0.4-0.3-0.4-0.5c0-0.2,0.1-0.3,0.4-0.5c0.2-0.1,0.5-0.2,0.9-0.2s0.6,0.1,0.8,0.2
	C202.4,124.4,202.6,124.6,202.6,124.8z"/>
<path id="Layer0_5_MEMBER_0_MEMBER_11_1_STROKES" class="st6" d="M215.9,122c0.3,0,0.6-0.1,0.8-0.2c0.2-0.1,0.4-0.3,0.4-0.5
	c0-0.2-0.1-0.3-0.4-0.5c-0.2-0.1-0.5-0.2-0.8-0.2s-0.6,0.1-0.8,0.2c-0.2,0.1-0.4,0.3-0.4,0.5c0,0.2,0.1,0.4,0.4,0.5
	C215.3,122,215.5,122,215.9,122z"/>
<path id="Layer0_5_MEMBER_0_MEMBER_12_1_STROKES" class="st6" d="M209.9,113.7c0.3,0,0.6-0.1,0.8-0.2c0.2-0.1,0.4-0.3,0.4-0.5
	s-0.1-0.4-0.4-0.5c-0.2-0.1-0.5-0.2-0.8-0.2c-0.3,0-0.6,0.1-0.9,0.2c-0.2,0.2-0.4,0.3-0.4,0.5c0,0.2,0.1,0.4,0.4,0.5
	C209.3,113.6,209.6,113.7,209.9,113.7z"/>
<path id="Layer0_5_MEMBER_0_MEMBER_13_1_STROKES" class="st6" d="M195.5,117.1c-0.3,0-0.6-0.1-0.9-0.2c-0.2-0.1-0.4-0.3-0.4-0.5
	c0-0.2,0.1-0.4,0.4-0.5c0.2-0.1,0.5-0.2,0.9-0.2c0.3,0,0.6,0.1,0.8,0.2c0.2,0.2,0.4,0.3,0.4,0.5c0,0.2-0.1,0.4-0.4,0.5
	C196,117,195.8,117.1,195.5,117.1z"/>
<path id="Layer0_5_MEMBER_0_MEMBER_14_1_STROKES" class="st6" d="M202.8,108.8v2.1"/>
<path id="Layer0_5_MEMBER_0_MEMBER_15_1_STROKES" class="st6" d="M208.5,122.1v5.2"/>
<path id="Layer0_5_MEMBER_0_MEMBER_16_1_STROKES" class="st6" d="M213.5,126.2V121"/>
<path id="Layer0_5_MEMBER_0_MEMBER_17_1_STROKES" class="st6" d="M198.1,106.1v5.3"/>
<path id="Layer0_5_MEMBER_0_MEMBER_18_1_STROKES" class="st6" d="M202.8,105.1l-1.9,0.3l-2.7,0.7"/>
<path id="Layer0_5_MEMBER_0_MEMBER_19_1_STROKES" class="st6" d="M208.4,122.1l3.2-0.5l1.9-0.6"/>
<path id="Layer0_5_MEMBER_0_MEMBER_20_1_STROKES" class="st6" d="M208.5,127.4l-0.4-0.5"/>
<path id="Layer0_5_MEMBER_0_MEMBER_21_1_STROKES" class="st6" d="M198.5,112l-0.4-0.5"/>
<path id="Layer0_5_MEMBER_0_MEMBER_22_1_STROKES" class="st6" d="M202.8,111l-1.8,0.3l-2.5,0.7"/>
<path id="Layer0_5_MEMBER_0_MEMBER_23_1_STROKES" class="st6" d="M198.5,109.7v2.3"/>
<path id="Layer0_5_MEMBER_0_MEMBER_24_1_STROKES" class="st6" d="M208.1,124.5v2.3"/>
<path id="Layer0_5_MEMBER_0_MEMBER_25_1_STROKES" class="st6" d="M203.7,106.4l-2,0.2l-2.8,0.7"/>
<path id="Layer0_5_MEMBER_0_MEMBER_26_1_STROKES" class="st6" d="M207.6,120.8l2.1-0.3l2.9-0.8"/>
<path id="Layer0_5_MEMBER_0_MEMBER_27_1_STROKES" class="st6" d="M213.5,121l-0.9-1.3"/>
<path id="Layer0_5_MEMBER_0_MEMBER_28_1_STROKES" class="st6" d="M203.7,106.4l-0.9-1.3"/>
<path id="Layer0_5_MEMBER_0_MEMBER_29_1_STROKES" class="st6" d="M208.5,122.1l-0.9-1.4"/>
<path id="Layer0_5_MEMBER_0_MEMBER_30_1_STROKES" class="st6" d="M199,107.4l-0.9-1.3"/>
<path id="Layer0_5_MEMBER_0_MEMBER_31_1_STROKES" class="st6" d="M203.7,106.4l0.1,1.3l-1.7,0.2l-2.4,0.6"/>
<path id="Layer0_5_MEMBER_0_MEMBER_32_1_STROKES" class="st6" d="M203.8,108.8l-0.9,0.1l-3.2,0.7"/>
<path id="Layer0_5_MEMBER_0_MEMBER_33_1_STROKES" class="st6" d="M203.8,108.8v-1"/>
<path id="Layer0_5_MEMBER_0_MEMBER_34_1_STROKES" class="st6" d="M199.7,108.6l-0.7-1.1"/>
<path id="Layer0_5_MEMBER_0_MEMBER_35_1_STROKES" class="st6" d="M199.7,108.6v1l-1.2,0.1"/>
<path id="Layer0_5_MEMBER_0_MEMBER_36_1_STROKES" class="st6" d="M207.6,120.8l-0.4,0.9l0.1,1l0.8,1.9"/>
<path id="Layer0_5_MEMBER_0_MEMBER_37_1_STROKES" class="st6" d="M192.2,83.5c0,2.2,1.3,4,3.9,5.5c2.6,1.5,5.8,2.3,9.5,2.3
	c3.7,0,6.9-0.8,9.5-2.3c2.6-1.5,3.9-3.3,3.9-5.5c0-2.2-1.3-4-3.9-5.5c-2.6-1.5-5.8-2.3-9.5-2.3c-3.7,0-6.9,0.8-9.5,2.3
	C193.5,79.5,192.2,81.3,192.2,83.5z"/>
<path id="Layer0_5_MEMBER_0_MEMBER_38_1_STROKES" class="st6" d="M192.2,85.5c0,2.1,1.3,4,3.9,5.5c2.6,1.5,5.8,2.3,9.5,2.3
	c3.7,0,6.9-0.8,9.5-2.3c2.6-1.5,3.9-3.3,3.9-5.5"/>
<path id="Layer0_5_MEMBER_0_MEMBER_39_1_STROKES" class="st6" d="M219.1,85.5v-2.1"/>
<path id="Layer0_5_MEMBER_0_MEMBER_40_1_STROKES" class="st6" d="M192.2,85.5v-2.1"/>
<path id="Layer0_5_MEMBER_0_MEMBER_41_1_STROKES" class="st6" d="M211.6,83.5c0,0.9-0.6,1.7-1.7,2.4c-1.2,0.7-2.6,1-4.2,1
	c-1.6,0-3-0.3-4.2-1c-1.1-0.7-1.7-1.5-1.7-2.4c0-1,0.6-1.8,1.7-2.4c1.2-0.7,2.6-1,4.2-1c1.6,0,3,0.3,4.2,1
	C211,81.7,211.6,82.5,211.6,83.5z"/>
<path id="Layer0_5_MEMBER_0_MEMBER_42_1_STROKES" class="st6" d="M211.3,84.5c-0.4-0.7-1.1-1.3-2.1-1.8c-1-0.4-2.2-0.7-3.5-0.7
	c-1.3,0-2.5,0.2-3.5,0.7c-1,0.4-1.7,1-2.1,1.8"/>
<path id="Layer0_5_MEMBER_0_MEMBER_43_1_STROKES" class="st6" d="M220.5,58l-0.6-1.4l-0.9-1.3l-1.3-1.2l-3.4-1.9l-4.3-1.2"/>
<path id="Layer0_5_MEMBER_0_MEMBER_44_1_STROKES" class="st6" d="M191.9,56l-0.8,1.4l-0.4,1.4l0,1.4l0.5,1.4L192,63"/>
<path id="Layer0_5_MEMBER_0_MEMBER_45_1_STROKES" class="st6" d="M203.6,68l2.6,0l3.8-0.4"/>
<path id="Layer0_5_MEMBER_0_MEMBER_46_1_STROKES" class="st6" d="M190.7,61.6l0,0.8l0.2,0.7l0.3,0.7l0.9,1.4"/>
<path id="Layer0_5_MEMBER_0_MEMBER_47_1_STROKES" class="st6" d="M203.7,70.2l2,0.1c4.1,0,7.7-0.8,10.6-2.5c2.9-1.7,4.4-3.7,4.4-6.1
	"/>
<path id="Layer0_5_MEMBER_0_MEMBER_48_1_STROKES" class="st6" d="M220.7,61.6v-2.2"/>
<path id="Layer0_5_MEMBER_0_MEMBER_49_1_STROKES" class="st6" d="M190.7,61.6v-2.2"/>
<path id="Layer0_5_MEMBER_0_MEMBER_50_1_STROKES" class="st6" d="M198.5,65.7l2,0.6l3.3,0.5"/>
<path id="Layer0_5_MEMBER_0_MEMBER_51_1_STROKES" class="st6" d="M203.7,68v2.2"/>
<path id="Layer0_5_MEMBER_0_MEMBER_52_1_STROKES" class="st6" d="M203.7,68l0.2-1.2"/>
<path id="Layer0_5_MEMBER_0_MEMBER_53_1_STROKES" class="st6" d="M198.5,65.7v2.2l2,0.6l3.2,0.5"/>
<path id="Layer0_5_MEMBER_0_MEMBER_54_1_STROKES" class="st6" d="M196.1,61.9l0.6,0.7l0.7,0.6l1.8,1.1l1.1,0.4"/>
<path id="Layer0_5_MEMBER_0_MEMBER_55_1_STROKES" class="st6" d="M196.1,61.9L192,63"/>
<path id="Layer0_5_MEMBER_0_MEMBER_56_1_STROKES" class="st6" d="M198.5,65.7l1.8-1.1"/>
<path id="Layer0_5_MEMBER_0_MEMBER_57_1_STROKES" class="st6" d="M192,63v2.2"/>
<path id="Layer0_5_MEMBER_0_MEMBER_58_1_STROKES" class="st6" d="M196.1,64.2l0.8,0.8l1.6,1.1"/>
<path id="Layer0_5_MEMBER_0_MEMBER_59_1_STROKES" class="st6" d="M196.1,64.2l-4.1,1.1"/>
<path id="Layer0_5_MEMBER_0_MEMBER_60_1_STROKES" class="st6" d="M196.1,64.2v-2.3"/>
<path id="Layer0_5_MEMBER_0_MEMBER_61_1_STROKES" class="st6" d="M194.8,65.3c0,1.7,1.1,3.2,3.2,4.4c2.1,1.2,4.6,1.8,7.6,1.8
	c1.9,0,3.6-0.3,5.2-0.8c1.6-0.5,2.9-1.2,3.9-2.1"/>
<path id="Layer0_5_MEMBER_0_MEMBER_62_1_STROKES" class="st6" d="M195,64.5l0.4,0.8l0.5,0.7l0.7,0.7l1.8,1.2"/>
<path id="Layer0_5_MEMBER_0_MEMBER_63_1_STROKES" class="st6" d="M194.7,65.3v-0.7"/>
<path id="Layer0_5_MEMBER_0_MEMBER_64_1_STROKES" class="st6" d="M219.3,56.5c1,0.6,1.5,1.7,1.4,3.3c0,1.6-0.5,3.3-1.5,5
	c-1,1.7-2.2,3-3.6,3.8c-1.4,0.8-2.6,0.9-3.6,0.4c-1-0.6-1.5-1.7-1.5-3.3c0-1.6,0.5-3.3,1.5-5c1-1.7,2.2-2.9,3.6-3.7
	C217.1,56,218.3,55.9,219.3,56.5z"/>
<path id="Layer0_5_MEMBER_0_MEMBER_65_1_STROKES" class="st6" d="M197.1,43.7c-1-0.6-2.2-0.5-3.6,0.4c-1.4,0.8-2.6,2.1-3.6,3.8
	c-1,1.7-1.4,3.4-1.4,5c0,1.6,0.5,2.7,1.4,3.2"/>
<path id="Layer0_5_MEMBER_0_MEMBER_66_1_STROKES" class="st6" d="M190,56.1l1.3,0.8"/>
<path id="Layer0_5_MEMBER_0_MEMBER_67_1_STROKES" class="st6" d="M210.6,68l1.5,0.9"/>
<path id="Layer0_5_MEMBER_0_MEMBER_68_1_STROKES" class="st6" d="M197.1,43.7l22.2,12.8"/>
<path id="Layer0_5_MEMBER_0_MEMBER_69_1_STROKES" class="st6" d="M198.5,44.5c-1-0.6-2.2-0.5-3.6,0.4c-1.4,0.8-2.6,2.1-3.6,3.7
	c-1,1.7-1.5,3.4-1.5,5c0,1.6,0.5,2.7,1.4,3.3"/>
<path id="Layer0_5_MEMBER_0_MEMBER_70_1_STROKES" class="st6" d="M193,56.6l16.1,9.3"/>
<path id="Layer0_5_MEMBER_0_MEMBER_71_1_STROKES" class="st6" d="M190.3,44.1c-0.5-0.3-1-0.2-1.7,0.2c-0.7,0.4-1.2,1-1.7,1.8
	c-0.5,0.8-0.7,1.6-0.7,2.4c0,0.8,0.2,1.3,0.7,1.5"/>
<path id="Layer0_5_MEMBER_0_MEMBER_72_1_STROKES" class="st6" d="M185.4,41.3c-0.5-0.3-1-0.2-1.7,0.2c-0.7,0.4-1.2,1-1.7,1.8
	c-0.5,0.8-0.7,1.6-0.7,2.3c0,0.8,0.2,1.3,0.7,1.6"/>
<path id="Layer0_5_MEMBER_0_MEMBER_73_1_STROKES" class="st6" d="M182,47.2l5.7,3.3"/>
<path id="Layer0_5_MEMBER_0_MEMBER_74_1_STROKES" class="st6" d="M185.4,41.3l5.7,3.3"/>
<path id="Layer0_5_MEMBER_0_MEMBER_75_1_STROKES" class="st6" d="M191.1,44.5c-0.5-0.3-1-0.2-1.7,0.2c-0.7,0.4-1.2,0.9-1.7,1.8
	c-0.5,0.8-0.7,1.6-0.7,2.4c0,0.8,0.2,1.3,0.7,1.6"/>
<path id="Layer0_5_MEMBER_0_MEMBER_76_1_STROKES" class="st6" d="M191.1,44.5l2.1-0.2"/>
<path id="Layer0_5_MEMBER_0_MEMBER_77_1_STROKES" class="st6" d="M187.7,50.4l0.9,2.1"/>
<path id="Layer0_5_MEMBER_0_MEMBER_78_1_STROKES" class="st6" d="M180.9,38.6c-0.5-0.3-1-0.2-1.7,0.2c-0.7,0.4-1.2,1-1.7,1.8
	s-0.7,1.6-0.7,2.3c0,0.8,0.2,1.3,0.7,1.6"/>
<path id="Layer0_5_MEMBER_0_MEMBER_79_1_STROKES" class="st6" d="M179.5,45.7l0.2,0.1l0.4,0.1h0.2l0.2,0"/>
<path id="Layer0_5_MEMBER_0_MEMBER_80_1_STROKES" class="st6" d="M183.4,40.6c-0.1-0.4-0.3-0.6-0.6-0.8c-0.5-0.3-1-0.2-1.7,0.2
	c-0.7,0.4-1.2,1-1.7,1.8c-0.5,0.8-0.7,1.6-0.7,2.4c0,0.8,0.2,1.3,0.7,1.6"/>
<path id="Layer0_5_MEMBER_0_MEMBER_81_1_STROKES" class="st6" d="M180.9,38.6l2,1.1"/>
<path id="Layer0_5_MEMBER_0_MEMBER_82_1_STROKES" class="st6" d="M177.5,44.5l2,1.1"/>
<path id="Layer0_5_MEMBER_0_MEMBER_83_1_STROKES" class="st6" d="M183.5,40.6l1,0.6"/>
<path id="Layer0_5_MEMBER_0_MEMBER_84_1_STROKES" class="st6" d="M180.4,45.8l1.1,0.6"/>
<path id="Layer0_5_MEMBER_0_MEMBER_85_1_STROKES" class="st6" d="M171.3,34.5c-0.3-0.2-0.7-0.2-1.1,0.1c-0.4,0.3-0.8,0.7-1.1,1.2
	c-0.3,0.5-0.5,1.1-0.5,1.6c0,0.5,0.2,0.8,0.5,1"/>
<path id="Layer0_5_MEMBER_0_MEMBER_86_1_STROKES" class="st6" d="M171.4,34.4l7.7,4.4"/>
<path id="Layer0_5_MEMBER_0_MEMBER_87_1_STROKES" class="st6" d="M169.1,38.4l7.7,4.4"/>
<path id="Layer0_5_MEMBER_0_MEMBER_88_1_STROKES" class="st6" d="M190.2,167.7l-24.4-14.1"/>
<path id="Layer0_5_MEMBER_0_MEMBER_89_1_STROKES" class="st6" d="M147.7,143.2l-24.8-14.3"/>
<path id="Layer0_5_MEMBER_0_MEMBER_90_1_STROKES" class="st6" d="M165.8,153.7h-18.1"/>
<path id="Layer0_5_MEMBER_0_MEMBER_91_1_STROKES" class="st6" d="M147.7,143.2h18.1"/>
<path id="Layer0_5_MEMBER_0_MEMBER_92_1_STROKES" class="st6" d="M147.7,153.7l18.1-10.5"/>
<path id="Layer0_5_MEMBER_0_MEMBER_93_1_STROKES" class="st6" d="M190.2,167.7l44.8-25.9"/>
<path id="Layer0_5_MEMBER_0_MEMBER_94_1_STROKES" class="st6" d="M253.1,131.4l41.9-24.2"/>
<path id="Layer0_5_MEMBER_0_MEMBER_95_1_STROKES" class="st6" d="M235,141.8h18.1"/>
<path id="Layer0_5_MEMBER_0_MEMBER_96_1_STROKES" class="st6" d="M253.1,131.4H235"/>
<path id="Layer0_5_MEMBER_0_MEMBER_97_1_STROKES" class="st6" d="M253.1,141.8L235,131.4"/>
<path id="Layer0_5_MEMBER_0_MEMBER_98_1_STROKES" class="st6" d="M167.8,103l-44.9,25.9"/>
<path id="Layer0_5_MEMBER_0_MEMBER_99_1_STROKES" class="st6" d="M185.9,92.6l4.9-2.8"/>
<path id="Layer0_5_MEMBER_0_MEMBER_100_1_STROKES" class="st6" d="M215.8,75.3l12.1-7"/>
<path id="Layer0_5_MEMBER_0_MEMBER_101_1_STROKES" class="st6" d="M167.8,103h18.1"/>
<path id="Layer0_5_MEMBER_0_MEMBER_102_1_STROKES" class="st6" d="M185.9,92.6h-18.1"/>
<path id="Layer0_5_MEMBER_0_MEMBER_103_1_STROKES" class="st6" d="M185.9,103l-18.1-10.5"/>
<path id="Layer0_5_MEMBER_0_MEMBER_104_1_STROKES" class="st6" d="M295.1,107.2l-24.4-14.1"/>
<path id="Layer0_5_MEMBER_0_MEMBER_105_1_STROKES" class="st6" d="M252.6,82.7l-24.7-14.3"/>
<path id="Layer0_5_MEMBER_0_MEMBER_106_1_STROKES" class="st6" d="M270.7,93.1h-18.2"/>
<path id="Layer0_5_MEMBER_0_MEMBER_107_1_STROKES" class="st6" d="M252.6,82.7h18.2"/>
<path id="Layer0_5_MEMBER_0_MEMBER_108_1_STROKES" class="st6" d="M252.6,93.1l18.2-10.5"/>
<path id="Layer0_5_MEMBER_0_MEMBER_109_1_STROKES" class="st6" d="M190.2,175.9l-24.4-14.1"/>
<path id="Layer0_5_MEMBER_0_MEMBER_110_1_STROKES" class="st6" d="M147.7,151.4l-24.8-14.3"/>
<path id="Layer0_5_MEMBER_0_MEMBER_111_1_STROKES" class="st6" d="M165.8,161.8h-18.1"/>
<path id="Layer0_5_MEMBER_0_MEMBER_112_1_STROKES" class="st6" d="M147.7,151.4h3.9"/>
<path id="Layer0_5_MEMBER_0_MEMBER_113_1_STROKES" class="st6" d="M190.2,175.9L235,150"/>
<path id="Layer0_5_MEMBER_0_MEMBER_114_1_STROKES" class="st6" d="M253.1,139.5l41.9-24.2"/>
<path id="Layer0_5_MEMBER_0_MEMBER_115_1_STROKES" class="st6" d="M235,150h18.1"/>
<path id="Layer0_5_MEMBER_0_MEMBER_116_1_STROKES" class="st6" d="M253.1,139.5h-3.9"/>
<path id="Layer0_5_MEMBER_0_MEMBER_117_1_STROKES" class="st6" d="M171.7,103l-3.9-2.3"/>
<path id="Layer0_5_MEMBER_0_MEMBER_118_1_STROKES" class="st6" d="M266.8,93.1l3.9-2.3"/>
<path id="Layer0_5_MEMBER_0_MEMBER_119_1_STROKES" class="st6" d="M147.7,161.8v-8.2"/>
<path id="Layer0_5_MEMBER_0_MEMBER_120_1_STROKES" class="st6" d="M147.7,151.4v-8.2"/>
<path id="Layer0_5_MEMBER_0_MEMBER_121_1_STROKES" class="st6" d="M122.9,137.1v-8.2"/>
<path id="Layer0_5_MEMBER_0_MEMBER_122_1_STROKES" class="st6" d="M190.2,175.9v-8.2"/>
<path id="Layer0_5_MEMBER_0_MEMBER_123_1_STROKES" class="st6" d="M165.8,161.8v-8.2"/>
<path id="Layer0_5_MEMBER_0_MEMBER_124_1_STROKES" class="st6" d="M235,150v-8.2"/>
<path id="Layer0_5_MEMBER_0_MEMBER_125_1_STROKES" class="st6" d="M253.1,150v-8.2"/>
<path id="Layer0_5_MEMBER_0_MEMBER_126_1_STROKES" class="st6" d="M253.1,131.4v8.2"/>
<path id="Layer0_5_MEMBER_0_MEMBER_127_1_STROKES" class="st6" d="M295.1,107.2v8.2"/>
<path id="Layer0_5_MEMBER_0_MEMBER_128_1_STROKES" class="st6" d="M270.7,82.7v8.2"/>
<path id="Layer0_5_MEMBER_0_MEMBER_129_1_STROKES" class="st6" d="M167.8,100.8v-8.2"/>
<path id="Layer0_5_MEMBER_0_MEMBER_130_1_STROKES" class="st6" d="M96.2,27.8c-0.3-0.2-0.6,0-0.9,0.5c-0.1,0.2-0.2,0.4-0.2,0.6
	s0.1,0.4,0.2,0.4"/>
<path id="Layer0_5_MEMBER_0_MEMBER_131_1_STROKES" class="st6" d="M102.1,31.2l-5.9-3.4"/>
<path id="Layer0_5_MEMBER_0_MEMBER_132_1_STROKES" class="st6" d="M101.1,32.8l-5.9-3.3"/>
<path id="Layer0_5_MEMBER_0_MEMBER_133_1_STROKES" class="st6" d="M156.9,26.7l-2.8-1.2l-3.4-0.6l-1.8-0.1l-3.4,0.3l-3.1,0.9
	l-1.3,0.7"/>
<path id="Layer0_5_MEMBER_0_MEMBER_134_1_STROKES" class="st6" d="M156.9,26.7l13.5,7.8"/>
<path id="Layer0_5_MEMBER_0_MEMBER_135_1_STROKES" class="st6" d="M154.5,29.4l-2-0.9l-2.4-0.4l-1.2,0l-2.4,0.2l-2.2,0.7l-0.9,0.5"
	/>
<path id="Layer0_5_MEMBER_0_MEMBER_136_1_STROKES" class="st6" d="M154.5,29.4l14.1,8.1"/>
<path id="Layer0_5_MEMBER_0_MEMBER_137_1_STROKES" class="st6" d="M109.9,40.2l2.7,1.1l3.1,0.6h3.3l3.1-0.6l1.4-0.5l1.2-0.6"/>
<path id="Layer0_5_MEMBER_0_MEMBER_138_1_STROKES" class="st6" d="M143.3,29.4l-8,4.7"/>
<path id="Layer0_5_MEMBER_0_MEMBER_139_1_STROKES" class="st6" d="M130.1,37.1l-5.4,3.1"/>
<path id="Layer0_5_MEMBER_0_MEMBER_140_1_STROKES" class="st6" d="M112,37.4l1.9,0.8l2.2,0.4l1.2,0.1l2.3-0.2l1.1-0.2l1.9-0.8"/>
<path id="Layer0_5_MEMBER_0_MEMBER_141_1_STROKES" class="st6" d="M141,26.7l-7.5,4.3"/>
<path id="Layer0_5_MEMBER_0_MEMBER_142_1_STROKES" class="st6" d="M128.3,34l-5.8,3.4"/>
<path id="Layer0_5_MEMBER_0_MEMBER_143_1_STROKES" class="st6" d="M128.3,34l0.3-0.1h0.3l0.2,0.1l0.2,0.2l0.2,0.5l0.1,0.3v0.2l0,0.2
	l0.3,0l0.2,0.1l0.2,0.2l0.2,0.2l0.1,0.2v0.3l-0.1,0.2l-0.1,0.2l-0.3,0.2l-0.2,0.1l-0.2,0l-0.2-0.2l-0.1-0.5v-0.3l0.1-0.6l0.1-0.2"/>
<path id="Layer0_5_MEMBER_0_MEMBER_144_1_STROKES" class="st6" d="M134.1,31.1L134,31l-0.2,0l-0.3,0.1l-0.2,0.2l-0.2,0.2l-0.1,0.3
	l0.1,0.5l0.4,0.4l0.3,0.1l0.3,0l0.1-0.2v-0.3l0.1-0.3v-0.3l0-0.3L134.1,31.1z M135.3,34.1l-0.3,0.1h-0.3l-0.2-0.1l-0.2-0.2l-0.2-0.2
	l-0.1-0.2v-0.3l0-0.2l0-0.2"/>
<path id="Layer0_5_MEMBER_0_MEMBER_145_1_STROKES" class="st6" d="M87.1,26.2L87,26.2l-0.1,0.1l-0.1,0.2l0,0.2"/>
<path id="Layer0_5_MEMBER_0_MEMBER_146_1_STROKES" class="st6" d="M91.6,28.5l-0.2,0.1l-0.3,0.4L91,29.4v0.2"/>
<path id="Layer0_5_MEMBER_0_MEMBER_147_1_STROKES" class="st6" d="M91.4,28.6l-4.2-2.4"/>
<path id="Layer0_5_MEMBER_0_MEMBER_148_1_STROKES" class="st6" d="M91,29.3l-4.1-2.4"/>
<path id="Layer0_5_MEMBER_0_MEMBER_149_1_STROKES" class="st6" d="M93.3,29.3l-1.4-0.8"/>
<path id="Layer0_5_MEMBER_0_MEMBER_150_1_STROKES" class="st6" d="M92.6,30.6l-1.4-0.8"/>
<path id="Layer0_5_MEMBER_0_MEMBER_151_1_STROKES" class="st6" d="M93.7,29.3c-0.1-0.1-0.3-0.1-0.5,0c-0.2,0.1-0.4,0.3-0.5,0.5
	c-0.3,0.5-0.3,0.9,0,1.1"/>
<path id="Layer0_5_MEMBER_0_MEMBER_152_1_STROKES" class="st6" d="M99.5,32.6l-5.9-3.4"/>
<path id="Layer0_5_MEMBER_0_MEMBER_153_1_STROKES" class="st6" d="M98.6,34.3l-5.9-3.4"/>
<path id="Layer0_5_MEMBER_0_MEMBER_154_1_STROKES" class="st6" d="M89.7,24.7L89.7,24.7l-0.2,0.2"/>
<path id="Layer0_5_MEMBER_0_MEMBER_155_1_STROKES" class="st6" d="M94.2,27L94,27.1l-0.2,0.2l-0.2,0.2l-0.2,0.4v0.2"/>
<path id="Layer0_5_MEMBER_0_MEMBER_156_1_STROKES" class="st6" d="M94,27.1l-4.2-2.4"/>
<path id="Layer0_5_MEMBER_0_MEMBER_157_1_STROKES" class="st6" d="M93.5,27.9l-4.2-2.4"/>
<path id="Layer0_5_MEMBER_0_MEMBER_158_1_STROKES" class="st6" d="M95.9,27.8L94.5,27"/>
<path id="Layer0_5_MEMBER_0_MEMBER_159_1_STROKES" class="st6" d="M95.1,29.2l-1.4-0.8"/>
<path id="Layer0_5_MEMBER_0_MEMBER_160_1_STROKES" class="st6" d="M99.5,32.6l0.2,0.1l0.7,0.2l2,0.5l0.9,0.4"/>
<path id="Layer0_5_MEMBER_0_MEMBER_161_1_STROKES" class="st6" d="M102.1,31.2l0.2,0.1l1.3,1.4l0.7,0.5"/>
<path id="Layer0_5_MEMBER_0_MEMBER_162_1_STROKES" class="st6" d="M104.9,33.3l7.1,4.1"/>
<path id="Layer0_5_MEMBER_0_MEMBER_163_1_STROKES" class="st6" d="M98.6,34.3l0.2,0.1l2.5,0.6l1,0.4l0.5,0.2"/>
<path id="Layer0_5_MEMBER_0_MEMBER_164_1_STROKES" class="st6" d="M103.2,36.3l6.7,3.9"/>
<path id="Layer0_5_MEMBER_0_MEMBER_165_1_STROKES" class="st6" d="M70.7,18.7l1.9-1.1v-2l-1.9,1.1V18.7z"/>
<path id="Layer0_5_MEMBER_0_MEMBER_166_1_STROKES" class="st6" d="M73.7,16.9l1.9-1.1v-2l-1.9,1.1V16.9z"/>
<path id="Layer0_5_MEMBER_0_MEMBER_167_1_STROKES" class="st6" d="M76.7,15.2l1.9-1.1v-2l-1.9,1.1V15.2z"/>
<path id="Layer0_5_MEMBER_0_MEMBER_168_1_STROKES" class="st6" d="M79.8,13.4l1.9-1.1v-2l-1.9,1.1V13.4z"/>
<path id="Layer0_5_MEMBER_0_MEMBER_169_1_STROKES" class="st6" d="M70.7,22.1l1.9-1.1v-2l-1.9,1.1V22.1z"/>
<path id="Layer0_5_MEMBER_0_MEMBER_170_1_STROKES" class="st6" d="M73.7,20.4l1.9-1.1v-2l-1.9,1.1V20.4z"/>
<path id="Layer0_5_MEMBER_0_MEMBER_171_1_STROKES" class="st6" d="M76.7,18.7l1.9-1.1v-2l-1.9,1.1V18.7z"/>
<path id="Layer0_5_MEMBER_0_MEMBER_172_1_STROKES" class="st6" d="M79.8,16.9l1.9-1.1v-2l-1.9,1.1V16.9z"/>
<path id="Layer0_5_MEMBER_0_MEMBER_173_1_STROKES" class="st6" d="M70.7,25.6l1.9-1.1v-2l-1.9,1.1V25.6z"/>
<path id="Layer0_5_MEMBER_0_MEMBER_174_1_STROKES" class="st6" d="M73.7,23.9l1.9-1.1v-2l-1.9,1.1V23.9z"/>
<path id="Layer0_5_MEMBER_0_MEMBER_175_1_STROKES" class="st6" d="M76.7,22.1l1.9-1.1v-2l-1.9,1.1V22.1z"/>
<path id="Layer0_5_MEMBER_0_MEMBER_176_1_STROKES" class="st6" d="M79.8,20.4l1.9-1.1v-2l-1.9,1.1V20.4z"/>
<path id="Layer0_5_MEMBER_0_MEMBER_177_1_STROKES" class="st6" d="M82.8,20.1v-12l-13.2,7.7v11.9L82.8,20.1z"/>
<path id="Layer0_5_MEMBER_0_MEMBER_178_1_STROKES" class="st6" d="M67.3-0.7L54.1,6.9v12"/>
<path id="Layer0_5_MEMBER_0_MEMBER_179_1_STROKES" class="st6" d="M67.3-0.7l15.5,8.9"/>
<path id="Layer0_5_MEMBER_0_MEMBER_180_1_STROKES" class="st6" d="M54.1,18.9l15.5,8.9"/>
<path id="Layer0_5_MEMBER_0_MEMBER_181_1_STROKES" class="st6" d="M54.1,6.9l15.5,8.9"/>
<path id="Layer0_5_MEMBER_0_MEMBER_182_1_STROKES" class="st7" d="M205.4,122.2v-10.5"/>
<path id="Layer0_5_MEMBER_0_MEMBER_183_1_STROKES" class="st7" d="M205.4,109.1v-2.7"/>
<path id="Layer0_5_MEMBER_0_MEMBER_184_1_STROKES" class="st7" d="M205.4,103.8V93.3"/>
<path id="Layer0_5_MEMBER_0_MEMBER_185_1_STROKES" class="st7" d="M205.4,86.9v-5.6"/>
<path id="Layer0_5_MEMBER_0_MEMBER_186_1_STROKES" class="st7" d="M205.4,79.9v-1.4"/>
<path id="Layer0_5_MEMBER_0_MEMBER_187_1_STROKES" class="st7" d="M205.4,77.1v-5.6"/>
</svg>
