<?xml version="1.0" encoding="utf-8"?>
<!-- Generator: Adobe Illustrator 24.3.0, SVG Export Plug-In . SVG Version: 6.00 Build 0)  -->
<svg version="1.1" id="Ebene_1" xmlns="http://www.w3.org/2000/svg" xmlns:xlink="http://www.w3.org/1999/xlink" x="0px" y="0px"
	 viewBox="0 0 349.1 174.8" style="enable-background:new 0 0 349.1 174.8;" xml:space="preserve">
<style type="text/css">
	.st0{fill:#B1B1B1;}
	.st1{fill:#0099FF;}
	.st2{fill:#0033FF;}
	.st3{fill:#FFCC00;}
	.st4{fill:#00FFFF;}
	.st5{fill:none;stroke:#373535;stroke-width:0.5;stroke-miterlimit:5;}
	.st6{fill:none;stroke:#373535;stroke-width:0.25;stroke-miterlimit:5;}
</style>
<path class="st0" d="M232.5,135c-0.3-0.2-0.5-0.3-0.8-0.4c-0.1-0.1-0.2-0.1-0.3-0.1l-0.5-0.3c-3-1.8-6.7-1.4-11,1.1
	c-4.3,2.5-8,6.4-11,11.7c-3,5.3-4.6,10.4-4.6,15.4c0,5,1.5,8.3,4.5,10.1l0.6,0.3c0.1,0,0.1,0.1,0.2,0.1c0.2,0.2,0.4,0.3,0.7,0.5
	c3,1.8,6.7,1.4,11-1.1c4.3-2.5,8-6.4,11.1-11.7c3-5.3,4.6-10.4,4.6-15.4C237,140.2,235.5,136.8,232.5,135 M231.3,136.2l0,0.6
	l-0.3,0.8l-0.5,0.8l-0.3,0.3l-0.3,0.2l-0.2,0.1c0,0,0-0.1,0-0.1c0-0.5,0.1-1,0.4-1.5c0.3-0.5,0.6-0.9,1.1-1.1
	C231.2,136.2,231.2,136.2,231.3,136.2 M221.9,136.7v0.2l-0.2,0.8l-0.4,0.8l-0.6,0.7l-0.3,0.2l-0.2,0.1c0-0.1,0-0.1,0-0.2
	c0-0.5,0.1-1,0.4-1.5c0.3-0.5,0.6-0.9,1.1-1.1C221.8,136.7,221.9,136.7,221.9,136.7 M233.2,147c0-0.1,0-0.1,0-0.2
	c0-0.5,0.1-1,0.4-1.5c0.3-0.5,0.6-0.9,1.1-1.1c0.1,0,0.1-0.1,0.1-0.1l0,0.2l-0.2,0.8l-0.4,0.8l-0.5,0.7l-0.3,0.2L233.2,147
	 M211.8,147.5v0.2l0,0.4l-0.1,0.4l-0.4,0.8l-0.3,0.3l-0.6,0.6l-0.2,0.1c0,0,0-0.1,0-0.1c0-0.5,0.1-1,0.4-1.5
	c0.3-0.5,0.6-0.9,1.1-1.1C211.7,147.5,211.7,147.5,211.8,147.5 M208,160.7c0.1,0,0.1-0.1,0.1-0.1l0,0.3l0,0.3l-0.1,0.4l-0.4,0.8
	l-0.5,0.7l-0.3,0.2l-0.2,0.1c0-0.1,0-0.1,0-0.2c0-0.5,0.2-1,0.5-1.5C207.2,161.3,207.6,160.9,208,160.7 M211.6,169.6l-0.4,0.8
	l-0.6,0.7l-0.5,0.3c0-0.1,0-0.1,0-0.2c0-0.5,0.1-1,0.4-1.5c0.3-0.5,0.6-0.9,1.1-1.1c0,0,0.1,0,0.1,0l0,0.6L211.6,169.6 M231.2,157.9
	l-0.1,0.4l-0.4,0.8l-0.3,0.3l-0.6,0.5l-0.2,0.1c0,0,0-0.1,0-0.1c0-0.5,0.1-1,0.4-1.5c0.3-0.5,0.7-0.9,1.1-1.1c0.1,0,0.1,0,0.1,0v0.2
	L231.2,157.9 M219.9,169.2c0.3-0.5,0.6-0.9,1.1-1.1c0.1,0,0.1,0,0.1,0v0.2l0,0.3l-0.3,0.9l-0.2,0.3l-0.5,0.7l-0.3,0.2l-0.2,0.1
	c0-0.1,0-0.1,0-0.2C219.5,170.3,219.6,169.8,219.9,169.2z"/>
<path class="st1" d="M167.5,98.1l0.6,0.4l0.5,0.2l0.4,0l0.4-0.1l0.9-0.7l1.4-1.5L167.5,98.1 M203,138.9l2.2-5.1
	c1.6-4.5,2.4-8.9,2.4-13.2c0-7.1-2.2-11.9-6.5-14.4l-12.2-7c0,0,0,0.1,0,0.1l-4.6-2.6c-1-0.6-2.1-1-3.3-1.2l-1.3-0.2l0.2,0.3
	l0.5,0.9l1.2-0.1l1.5,0.3l1.4,0.6l1.1,1l0.7,1.3l0.3,1.7v6.7c0,0.2-0.1,0.3-0.2,0.4c-0.1,0.1-0.1,0.1-0.2,0.2
	c-0.3,0.2-0.6,0.2-1,0.2c-0.4,0-0.7-0.1-1-0.2c-0.3-0.2-0.4-0.3-0.3-0.5V101l-0.2-0.7l-0.3-0.7l-0.5-0.6l-0.8-0.4l-0.8-0.2l-0.7,0v0
	v5.7c0,0.2-0.1,0.3-0.2,0.4c-0.1,0.1-0.1,0.1-0.2,0.2c-0.3,0.2-0.6,0.2-1,0.2c-0.4,0-0.7-0.1-1-0.2c-0.3-0.2-0.4-0.3-0.4-0.5l0-4.2
	l0,0l-2.3,2.8l0,0l-1.7,1.4l-0.8,0.5l-0.8,0.3l-0.7,0.1l-0.7-0.1l-0.7-0.3l-6.5-3.8l-4.1,4.5c-2.5,2.7-4.7,5.8-6.7,9.1
	c-4.3,7.5-6.5,14.8-6.5,21.8c0,7.1,2.2,11.9,6.5,14.4l16.6,9.6c4.3,2.5,9.5,2,15.7-1.5c3.7-2.2,7.1-5.1,10.2-8.7l3.4-4.4
	c0.7-1.1,1.4-2.2,2.1-3.4C201.8,141.2,202.4,140,203,138.9 M178.3,129.9c0.3-0.5,0.6-0.9,1.1-1.1c0.4-0.3,0.8-0.3,1-0.1
	c0.3,0.2,0.4,0.5,0.4,1c0,0.5-0.1,1-0.4,1.5c-0.3,0.5-0.7,0.9-1.1,1.2c-0.4,0.2-0.8,0.3-1,0.1c-0.3-0.2-0.4-0.5-0.4-1
	C177.9,130.9,178,130.4,178.3,129.9 M198.9,117.5c0.4-0.3,0.8-0.3,1-0.1c0.3,0.2,0.4,0.5,0.4,1c0,0.5-0.2,1-0.5,1.5
	c-0.3,0.5-0.6,0.9-1,1.1c-0.4,0.2-0.8,0.3-1,0.1c-0.3-0.2-0.4-0.5-0.4-1c0-0.5,0.1-1,0.4-1.5C198.1,118.1,198.5,117.8,198.9,117.5
	 M199.7,113.8l0.6,0.3l-1.4-0.6C199.2,113.6,199.4,113.7,199.7,113.8 M198.9,138.7c0.4-0.3,0.8-0.3,1-0.1c0.3,0.2,0.4,0.5,0.4,1
	c0,0.5-0.1,1-0.4,1.5c-0.3,0.5-0.6,0.9-1,1.1c-0.4,0.2-0.8,0.3-1.1,0.1c-0.3-0.2-0.5-0.5-0.5-1c0-0.5,0.2-1,0.5-1.5
	C198.1,139.3,198.5,138.9,198.9,138.7 M179.4,149.9c0.4-0.3,0.8-0.3,1-0.1c0.3,0.2,0.4,0.5,0.4,1c0,0.5-0.1,1-0.4,1.5
	c-0.3,0.5-0.6,0.9-1,1.1c-0.4,0.2-0.8,0.3-1.1,0.1c-0.3-0.2-0.4-0.5-0.4-1c0-0.5,0.1-1,0.4-1.5S179,150.2,179.4,149.9 M176.5,96.1
	l-0.6,0l-0.6,0.2l-0.7,0.5l-0.7,0.7l-2.2,2.9l0,0l-0.3,0.3L171,101l-0.9,0.6h0l1.2,0.7l0.6,0.2h0.5l0.5-0.1l0.3-0.2l0.7-0.6l0,0
	l2.2-2.9l1-1.1l0,0l0.7-0.4l0,0l-0.3-0.4l-0.3-0.3l-0.4-0.2L176.5,96.1 M157.2,82.1l-2.2,6c-0.3,0.7-0.3,1.4-0.2,2
	c0.1,0.6,0.3,1,0.7,1.2l7.1,4l0.2-0.1c2.7-1.7,5.4-2.7,7.9-3.1c0.1,0,0.1,0,0.2,0c0.7-0.2,1.4-0.3,2.2-0.4l2-0.2c0.1,0,0.1,0,0.1,0
	h0.3c0.1,0,0.1,0,0.1,0l-13.8-8C160.5,82.7,158.9,82.2,157.2,82.1 M152.5,82.5c-3.9,0.9-7.8,3.1-11.8,6.5
	c-3.9,3.4-7.4,7.6-10.2,12.6c-4.3,7.5-6.5,14.8-6.5,21.9s2.2,11.9,6.5,14.4l13.5,7.8c-1.7-2.7-2.5-6.3-2.5-10.8
	c0-7.4,2.3-15,6.8-22.9c2.1-3.7,4.5-7,7.3-9.9l3.6-3.8l-6.8-3.9c-1-0.6-1.7-1.6-1.9-3.2c-0.2-1.5,0-3.2,0.7-5.1L152.5,82.5
	L152.5,82.5L152.5,82.5z"/>
<path class="st2" d="M180.4,149.8c-0.3-0.2-0.6-0.1-1,0.1c-0.4,0.2-0.8,0.6-1.1,1.1s-0.4,1-0.4,1.5c0,0.5,0.1,0.8,0.4,1
	c0.3,0.2,0.6,0.2,1.1-0.1c0.4-0.2,0.8-0.6,1-1.1c0.3-0.5,0.4-1,0.4-1.5C180.9,150.3,180.7,150,180.4,149.8 M200,138.5
	c-0.3-0.2-0.6-0.1-1,0.1c-0.4,0.2-0.8,0.6-1.1,1.1c-0.3,0.5-0.5,1-0.5,1.5c0,0.5,0.2,0.8,0.5,1c0.3,0.2,0.6,0.2,1.1-0.1
	c0.4-0.2,0.8-0.6,1-1.1c0.3-0.5,0.4-1,0.4-1.5C200.4,139.1,200.2,138.7,200,138.5 M200,117.4c-0.3-0.2-0.6-0.1-1,0.1
	c-0.4,0.2-0.8,0.6-1.1,1.1c-0.3,0.5-0.4,1-0.4,1.5c0,0.5,0.1,0.8,0.4,1c0.3,0.2,0.6,0.2,1-0.1c0.4-0.2,0.8-0.6,1-1.1
	c0.3-0.5,0.5-1,0.5-1.5C200.4,117.9,200.2,117.6,200,117.4 M179.4,128.8c-0.4,0.2-0.8,0.6-1.1,1.1c-0.3,0.5-0.4,1-0.4,1.5
	c0,0.5,0.1,0.8,0.4,1c0.3,0.2,0.6,0.2,1-0.1c0.4-0.3,0.8-0.6,1.1-1.2c0.3-0.5,0.4-1,0.4-1.5c0-0.5-0.1-0.8-0.4-1
	C180.2,128.5,179.8,128.5,179.4,128.8z"/>
<path class="st3" d="M176.6,93.5h-1l-1,0.3l-1.1,0.6l-1.7,1.9v0l-1.4,1.5l0,0l-0.9,0.7l-0.4,0.1l-0.4,0l-0.5-0.2l-0.6-0.4l-0.8,0.3
	c-0.6,0.3-1.2,0.7-1.7,1.2l-1.2,1.3l6.5,3.8l0.7,0.3l0.7,0.1l0.7-0.1l0.8-0.3l0.8-0.5l1.7-1.4l0,0l2.3-2.8l0,0l0,4.2
	c0,0.2,0.1,0.4,0.4,0.5c0.3,0.2,0.6,0.2,1,0.2c0.4,0,0.7-0.1,1-0.2c0.1-0.1,0.1-0.1,0.2-0.2c0.1-0.1,0.2-0.2,0.2-0.3v-5.8h0v0l0.7,0
	l0.8,0.2l0.8,0.4l0.5,0.6l0.3,0.7l0.2,0.7v6.7c0,0.2,0.1,0.4,0.3,0.5c0.3,0.2,0.6,0.2,1,0.2c0.4,0,0.7-0.1,1-0.2
	c0.1-0.1,0.1-0.1,0.2-0.2c0.1-0.1,0.2-0.2,0.2-0.3V101l-0.3-1.7l-0.7-1.3l-1.1-1l-1.4-0.6l-1.5-0.3l-1.2,0.1l-0.5-0.9l-0.3-0.3h0
	l-0.4-0.5l-0.8-0.6l-0.9-0.4L176.6,93.5 M175.9,96.1l0.6,0l0.5,0.1l0.4,0.2l0.3,0.3L178,97l0,0l-0.8,0.4l-1,1.1l-2.2,2.9l0,0
	l-0.7,0.6l-0.3,0.2l-0.5,0.1h-0.5l-0.6-0.2l-1.2-0.7l0.1,0h0l0.9-0.6l0.2-0.3l0.3-0.3l2.2-2.9l0,0l0.7-0.7l0.7-0.5L175.9,96.1
	 M163.2,62.5l-0.2,0l-0.2,0.1l-0.2-0.3l-0.3-0.2l-0.2,0h-0.2l-0.2,0.1l-0.2,0.2l-0.1,0.2l-0.4,1.2h-0.2l-0.2,0.1l-0.2-0.3l-0.2-0.1
	l-0.2-0.1l-0.2,0h-0.2l-0.2,0l-0.2,0.2l-0.1,0.2l-6.8,18.6h0l-1.4,3.7c-0.7,1.9-0.9,3.6-0.7,5.1c0.2,1.5,0.8,2.6,1.9,3.2l6.8,3.9
	l1.6-1.7c0.5-0.5,1.1-0.9,1.6-1.2c0.1,0,0.1-0.1,0.1-0.1l-7.1-3.9c-0.4-0.2-0.6-0.6-0.7-1.2c-0.1-0.6,0-1.3,0.2-2l9-24.6l0-0.2
	l0-0.2l-0.1-0.2l-0.1-0.1l-0.2-0.2L163.2,62.5 M171.7,42.2c0.6-1.7,0.8-3.2,0.6-4.5c-0.2-1.4-0.8-2.3-1.7-2.8l-8.3-4.8
	c0.2-1.2-0.1-2-0.8-2.4h-0.1l-1.9-1.1l-8-7.3l-0.3-0.3h0l-11.4-6.6c-0.1-1.4-0.7-2.5-1.6-3l-6.4-3.7c-0.1,0-0.1-0.1-0.2-0.1
	c-0.3-0.5-0.7-0.9-1.1-1.2L124.8,1c-0.7-0.4-1.6-0.5-2.6-0.2l1.1,0.9l-1.4-0.8c0.1-0.1,0.2-0.1,0.3-0.1l-0.1-0.1l-1.5,0.7l-0.3,0.2
	L120,1.4c-0.8-0.5-1.8-0.4-2.9,0.3c-1.1,0.7-2.1,1.7-2.9,3.1c-0.8,1.4-1.2,2.7-1.2,4.1c0,1.3,0.4,2.2,1.2,2.6l0.3,0.2l0-0.1l0.1,1.6
	l2,1.4l-1.9-1.1c0.3,1.2,0.8,2,1.6,2.4l5.7,3.3c0.4,0.2,0.9,0.3,1.5,0.3c0.1,0.1,0.2,0.1,0.2,0.2l5.9,3.4l0.5,0.3
	c0.9,0.6,2.1,0.5,3.4-0.1l11.4,6.6l0.5,0.2l10.3,3.2l1.9,1.1l0.1,0.1h0c0.6,0.4,1.4,0.2,2.4-0.5l5.8,3.3c0.7,0.4,1.2,1.2,1.4,2.3
	c0.1,1.1-0.1,2.3-0.5,3.7l-4.7,13l0.1-0.2l0.1-0.1l0.2,0l0.3,0.3l0.1,0.2l0.2,0.2l0.1,0.2l0,0.2l0.1,0.1l0.1,0.2l0.3,0.2l0.4,0.1
	l0.2-0.1l0.2-0.1l0.1-0.2l0.3-1l0.4,0.2l0.2-0.5l0.1,0.1l0.2,0.1l0.3,0.2h0.2l0.2,0l0.2-0.1l0.1-0.2L171.7,42.2 M118.8,15.7
	l-0.2-0.1l0,0L118.8,15.7z"/>
<path class="st4" d="M168.1,93L168.1,93l-5.2,2.1l-0.2,0.1h-0.1c0,0-0.1,0.1-0.1,0.1c-0.6,0.3-1.1,0.7-1.6,1.2l-1.6,1.7l-3.6,3.8
	c-2.7,2.9-5.2,6.2-7.3,9.9c-4.5,7.9-6.8,15.5-6.8,22.9c0,4.5,0.8,8.1,2.5,10.8c0,0,0,0.1,0,0.1c1.1,1.8,2.5,3.1,4.3,4.1l3,1.7
	c0.2,0.1,0.4,0.3,0.6,0.4l0,0c1.7,1,3.6,1.4,5.6,1.5l-4.5-2.6c-4.3-2.5-6.5-7.3-6.5-14.4c0-7.1,2.2-14.3,6.5-21.8
	c2-3.4,4.2-6.4,6.7-9.1l5.3-5.8c0.5-0.6,1.1-1,1.7-1.2l5-2.1l1.7-1.9l1.1-0.6l1-0.3h1l1,0.2l0.1,0l0.9,0.4l0.8,0.6l0.4,0.5h0
	c0,0,0.1,0,0.1,0l1.3,0.2c1.2,0.2,2.3,0.6,3.3,1.2l4.6,2.6c0,0,0-0.1,0-0.1c-1.1-1.8-2.5-3.1-4.1-3.9c-0.1,0-0.1-0.1-0.1-0.1
	l-3.6-2.1c-1.6-0.9-3.4-1.4-5.5-1.5c0,0-0.1,0-0.1,0h-0.3c0,0-0.1,0-0.1,0l-2,0.2c-0.7,0.1-1.4,0.2-2.2,0.4c-0.1,0-0.1,0-0.2,0
	C169.9,92.3,169,92.6,168.1,93z"/>
<path id="Layer7_5_MEMBER_0_MEMBER_0_1_STROKES" class="st5" d="M199.9,119.9c0.3-0.5,0.5-1,0.5-1.5c0-0.5-0.1-0.8-0.4-1
	c-0.3-0.2-0.6-0.1-1,0.1c-0.4,0.2-0.8,0.6-1.1,1.1c-0.3,0.5-0.4,1-0.4,1.5s0.1,0.8,0.4,1c0.3,0.2,0.6,0.2,1-0.1
	C199.2,120.8,199.6,120.4,199.9,119.9z"/>
<path id="Layer7_5_MEMBER_0_MEMBER_1_1_STROKES" class="st5" d="M180.4,131.2c-0.3,0.5-0.7,0.9-1.1,1.2c-0.4,0.2-0.8,0.3-1,0.1
	c-0.3-0.2-0.4-0.5-0.4-1c0-0.5,0.1-1,0.4-1.5c0.3-0.5,0.6-0.9,1.1-1.1c0.4-0.3,0.8-0.3,1-0.1c0.3,0.2,0.4,0.5,0.4,1
	C180.8,130.2,180.7,130.7,180.4,131.2z"/>
<path id="Layer7_5_MEMBER_0_MEMBER_2_1_STROKES" class="st5" d="M199.9,141.1c-0.3,0.5-0.6,0.9-1,1.1c-0.4,0.2-0.8,0.3-1.1,0.1
	c-0.3-0.2-0.5-0.5-0.5-1s0.2-1,0.5-1.5c0.3-0.5,0.6-0.9,1.1-1.1c0.4-0.3,0.8-0.3,1-0.1c0.3,0.2,0.4,0.5,0.4,1
	C200.3,140,200.2,140.5,199.9,141.1z"/>
<path id="Layer7_5_MEMBER_0_MEMBER_3_1_STROKES" class="st5" d="M180.4,152.3c0.3-0.5,0.4-1,0.4-1.5c0-0.5-0.1-0.8-0.4-1
	c-0.3-0.2-0.6-0.1-1,0.1c-0.4,0.2-0.8,0.6-1.1,1.1c-0.3,0.5-0.4,1-0.4,1.5c0,0.5,0.1,0.8,0.4,1c0.3,0.2,0.6,0.2,1.1-0.1
	C179.8,153.2,180.1,152.8,180.4,152.3z"/>
<path id="Layer7_5_MEMBER_0_MEMBER_4_1_STROKES" class="st5" d="M178,129.1c3.1-5.3,6.8-9.2,11.1-11.7c4.3-2.5,8-2.9,11-1.1
	c3,1.8,4.6,5.1,4.6,10.1c0,5-1.5,10.1-4.6,15.4c-3.1,5.3-6.7,9.1-11,11.7c-4.3,2.5-8,2.8-11.1,1.1c-3-1.8-4.6-5.1-4.6-10.1
	S175,134.4,178,129.1z"/>
<path id="Layer7_5_MEMBER_0_MEMBER_5_1_STROKES" class="st5" d="M177.1,156.2c3.4,1.4,7.3,0.8,11.7-2c4.5-2.8,8.3-6.9,11.4-12.3
	c3.3-5.8,5-11.3,5-16.8c0-5.4-1.7-9.1-5-11l-0.6-0.3"/>
<path id="Layer7_5_MEMBER_0_MEMBER_6_1_STROKES" class="st5" d="M199.6,113.9c-3.4-1.6-7.3-1-11.8,1.7c-4.5,2.7-8.4,6.9-11.6,12.4
	c-3.3,5.8-5,11.3-5,16.8s1.7,9.1,5,11c0.1,0.1,0.3,0.2,0.9,0.5"/>
<path id="Layer7_5_MEMBER_0_MEMBER_7_1_STROKES" class="st5" d="M198.9,113.4c-3.3-1.9-7.3-1.5-12,1.2c-4.7,2.7-8.7,7-12,12.7
	c-3.3,5.8-5,11.3-5,16.8c0,5.4,1.7,9.1,5,11"/>
<path id="Layer7_5_MEMBER_0_MEMBER_8_1_STROKES" class="st5" d="M174.9,155l1.3,0.7"/>
<path id="Layer7_5_MEMBER_0_MEMBER_9_1_STROKES" class="st5" d="M198.9,113.4l1.3,0.8"/>
<path id="Layer7_5_MEMBER_0_MEMBER_10_1_STROKES" class="st5" d="M200.7,106c-1.8-0.9-3.8-1.3-6-1.2c-2.2,0.1-4.5,0.7-7,1.8"/>
<path id="Layer7_5_MEMBER_0_MEMBER_11_1_STROKES" class="st5" d="M169.7,160.5c4.3,2.5,9.5,2,15.7-1.5c6.1-3.5,11.3-9,15.7-16.5
	c4.3-7.5,6.5-14.8,6.5-21.9c0-7.1-2.2-11.9-6.5-14.4l-0.3-0.2"/>
<path id="Layer7_5_MEMBER_0_MEMBER_12_1_STROKES" class="st5" d="M183.2,109.2c-5.3,3.6-9.8,8.7-13.5,15.1
	c-4.3,7.5-6.5,14.8-6.5,21.9c0,7.1,2.2,11.8,6.5,14.3"/>
<path id="Layer7_5_MEMBER_0_MEMBER_13_1_STROKES" class="st5" d="M186.9,111c5.6-3.2,10.3-3.7,14.2-1.4c3.9,2.3,5.9,6.6,5.9,13
	c0,6.4-2,13-5.9,19.9c-3.9,6.8-8.7,11.8-14.2,15c-5.6,3.2-10.3,3.7-14.2,1.4c-3.9-2.3-5.9-6.6-5.9-13c0-6.4,2-13,5.9-19.9
	C176.5,119.2,181.3,114.2,186.9,111z"/>
<path id="Layer7_5_MEMBER_0_MEMBER_14_1_STROKES" class="st5" d="M161.8,83.5c-1.4-0.8-2.9-1.3-4.7-1.4"/>
<path id="Layer7_5_MEMBER_0_MEMBER_15_1_STROKES" class="st5" d="M152.4,82.5c-3.9,0.9-7.8,3.1-11.8,6.5c-3.9,3.4-7.4,7.6-10.2,12.6
	c-4.3,7.5-6.5,14.8-6.5,21.9c0,7.1,2.2,11.9,6.5,14.4"/>
<path id="Layer7_5_MEMBER_0_MEMBER_16_1_STROKES" class="st5" d="M130.5,137.9l13.8,8"/>
<path id="Layer7_5_MEMBER_0_MEMBER_17_1_STROKES" class="st5" d="M153.1,150.9l16.6,9.6"/>
<path id="Layer7_5_MEMBER_0_MEMBER_18_1_STROKES" class="st5" d="M161.8,83.5l13.8,8"/>
<path id="Layer7_5_MEMBER_0_MEMBER_19_1_STROKES" class="st5" d="M184.4,96.6l16.6,9.6"/>
<path id="Layer7_5_MEMBER_0_MEMBER_20_1_STROKES" class="st5" d="M184.4,96.6c-1.4-0.8-3-1.3-4.7-1.4"/>
<path id="Layer7_5_MEMBER_0_MEMBER_21_1_STROKES" class="st5" d="M159.7,105.6c-2.5,2.7-4.7,5.8-6.7,9.1c-4.3,7.5-6.5,14.8-6.5,21.8
	c0,7.1,2.2,11.9,6.5,14.4"/>
<path id="Layer7_5_MEMBER_0_MEMBER_22_1_STROKES" class="st5" d="M171,92.1c-2.7,0.4-5.5,1.5-8.5,3.3"/>
<path id="Layer7_5_MEMBER_0_MEMBER_23_1_STROKES" class="st5" d="M159.3,63.8l0.1-0.2l0.2-0.2l0.2,0h0.2l0.2,0l0.2,0.1l0.2,0.1
	l0.2,0.3l0.2-0.1l0.2,0h0.2l0.2,0.1l0.2,0.1l0.1,0.2l0.1,0.2l0,0.2l-0.2,0.5l-0.1,0l-0.2,0l-0.2-0.1l-0.2-0.2l-0.5-0.8"/>
<path id="Layer7_5_MEMBER_0_MEMBER_24_1_STROKES" class="st5" d="M167.6,98.3l0.3,0.2"/>
<path id="Layer7_5_MEMBER_0_MEMBER_25_1_STROKES" class="st5" d="M166.1,99.3l4.5,2.6"/>
<path id="Layer7_5_MEMBER_0_MEMBER_26_1_STROKES" class="st5" d="M163.8,101.1l6.5,3.8"/>
<path id="Layer7_5_MEMBER_0_MEMBER_27_1_STROKES" class="st5" d="M162.2,56.9l0.4,0.2h0.2l0.2,0l0.2-0.1l0-0.2l-0.1-0.2l-0.2-0.2
	l-0.1-0.2l-0.3-0.3l-0.2,0l-0.1,0.1l-0.1,0.2l0,0.2v0.2L162.2,56.9z M164.6,57.1l-0.1,0.2l-0.2,0.1l-0.2,0.1l-0.4-0.1l-0.3-0.2
	l-0.1-0.2l-0.1-0.1"/>
<path id="Layer7_5_MEMBER_0_MEMBER_28_1_STROKES" class="st5" d="M161.4,62.6l0.1-0.2l0.2-0.2l0.2-0.1h0.2l0.2,0l0.3,0.2l0.2,0.3
	l0.2-0.1l0.2,0l0.4,0.1l0.2,0.2l0.1,0.1l0.1,0.2l0,0.2l0,0.2l-0.1,0.2l-0.2,0.1l-0.3-0.2l-0.3-0.3l-0.3-0.6"/>
<path id="Layer7_5_MEMBER_0_MEMBER_29_1_STROKES" class="st5" d="M166.7,55.8l-0.1,0.2l-0.2,0.1l-0.2,0h-0.2l-0.3-0.2l-0.2-0.1
	l-0.1-0.2l-0.1-0.2h0"/>
<path id="Layer7_5_MEMBER_0_MEMBER_30_1_STROKES" class="st5" d="M161.4,62.6l-0.4,1.2"/>
<path id="Layer7_5_MEMBER_0_MEMBER_31_1_STROKES" class="st5" d="M184,107.7V101"/>
<path id="Layer7_5_MEMBER_0_MEMBER_32_1_STROKES" class="st5" d="M186.7,107.7V101"/>
<path id="Layer7_5_MEMBER_0_MEMBER_33_1_STROKES" class="st5" d="M184,107.7c0,0.2,0.1,0.4,0.4,0.5c0.3,0.2,0.6,0.2,1,0.2
	c0.4,0,0.7-0.1,1-0.2c0.3-0.2,0.4-0.3,0.4-0.5"/>
<path id="Layer7_5_MEMBER_0_MEMBER_34_1_STROKES" class="st5" d="M180.7,104.3v-5.8"/>
<path id="Layer7_5_MEMBER_0_MEMBER_35_1_STROKES" class="st5" d="M178,104.3c0,0.2,0.1,0.4,0.4,0.5c0.3,0.2,0.6,0.2,1,0.2
	c0.4,0,0.7-0.1,1-0.2c0.3-0.2,0.4-0.3,0.4-0.5"/>
<path id="Layer7_5_MEMBER_0_MEMBER_36_1_STROKES" class="st5" d="M152,152c1.7,1,3.6,1.5,5.6,1.5"/>
<path id="Layer7_5_MEMBER_0_MEMBER_37_1_STROKES" class="st5" d="M184.5,95c-2.2-1.1-4.6-1.5-7.3-1.2"/>
<path id="Layer7_5_MEMBER_0_MEMBER_38_1_STROKES" class="st5" d="M189,99.2c-1.2-1.8-2.6-3.2-4.2-4.1l-0.3-0.2"/>
<path id="Layer7_5_MEMBER_0_MEMBER_39_1_STROKES" class="st5" d="M173.2,94.6l-1.4,0.5"/>
<path id="Layer7_5_MEMBER_0_MEMBER_40_1_STROKES" class="st5" d="M159.3,104.2c-2.7,2.9-5.2,6.2-7.3,9.9c-4.5,7.8-6.8,15.5-6.8,22.8
	c0,7.4,2.3,12.4,6.8,15.1"/>
<path id="Layer7_5_MEMBER_0_MEMBER_41_1_STROKES" class="st5" d="M148.4,149.9l3.6,2.1"/>
<path id="Layer7_5_MEMBER_0_MEMBER_42_1_STROKES" class="st5" d="M181.2,93.1l3.7,2.1"/>
<path id="Layer7_5_MEMBER_0_MEMBER_43_1_STROKES" class="st5" d="M178.1,104.3V100"/>
<path id="Layer7_5_MEMBER_0_MEMBER_44_1_STROKES" class="st5" d="M177.9,97l-0.2-0.3l-0.3-0.3l-0.4-0.2l-0.5-0.1l-0.6,0l-0.6,0.2
	l-0.7,0.5l-0.7,0.7l-2.2,2.9l-0.3,0.3L171,101l-0.3,0.2l-0.6,0.3"/>
<path id="Layer7_5_MEMBER_0_MEMBER_45_1_STROKES" class="st5" d="M184,101l-0.2-0.7l-0.3-0.7l-0.5-0.6l-0.8-0.4l-0.8-0.2l-0.9,0
	l-1,0.3l-1,0.7l-2.7,3.4l-1.7,1.5l-0.8,0.5l-0.8,0.3l-0.7,0.1l-0.7-0.1l-0.7-0.3"/>
<path id="Layer7_5_MEMBER_0_MEMBER_46_1_STROKES" class="st5" d="M186.7,101l-0.3-1.7l-0.7-1.3l-1.1-1l-1.4-0.6l-1.5-0.3l-1.6,0.1
	l-1.5,0.5l-1.4,0.8l-1.1,1.1l-2.2,2.9l-1,0.8l-0.5,0.1h-0.5l-0.6-0.2l-0.7-0.3"/>
<path id="Layer7_5_MEMBER_0_MEMBER_47_1_STROKES" class="st5" d="M180.4,96.2l-0.5-0.8l-0.7-0.7l-0.8-0.6l-0.9-0.4l-1-0.2h-1l-1,0.3
	l-1.1,0.6l-3.1,3.4l-0.9,0.7l-0.4,0.1l-0.4,0l-0.5-0.2l-0.5-0.3"/>
<path id="Layer7_5_MEMBER_0_MEMBER_48_1_STROKES" class="st5" d="M166.2,97.4c-0.6,0.2-1.1,0.6-1.7,1.3"/>
<path id="Layer7_5_MEMBER_0_MEMBER_49_1_STROKES" class="st5" d="M159.3,104.2l5.1-5.5"/>
<path id="Layer7_5_MEMBER_0_MEMBER_50_1_STROKES" class="st5" d="M171.8,95.2l-5.6,2.2"/>
<path id="Layer7_5_MEMBER_0_MEMBER_51_1_STROKES" class="st5" d="M181.2,93.1c-1.8-1-3.8-1.5-6-1.5c-2.2,0-4.6,0.5-7.1,1.5"/>
<path id="Layer7_5_MEMBER_0_MEMBER_52_1_STROKES" class="st5" d="M155.7,102.1c-2.7,2.9-5.2,6.2-7.3,9.9c-4.5,7.9-6.8,15.5-6.8,22.9
	c0,7.4,2.3,12.4,6.8,15"/>
<path id="Layer7_5_MEMBER_0_MEMBER_53_1_STROKES" class="st5" d="M162.6,95.3c-0.6,0.3-1.2,0.7-1.7,1.3"/>
<path id="Layer7_5_MEMBER_0_MEMBER_54_1_STROKES" class="st5" d="M155.7,102.1l5.1-5.5"/>
<path id="Layer7_5_MEMBER_0_MEMBER_55_1_STROKES" class="st5" d="M168.1,93l-5.5,2.3"/>
<path id="Layer7_5_MEMBER_0_MEMBER_56_1_STROKES" class="st5" d="M169.6,43.4c0.6-1.8,0.9-3.4,0.7-4.9c-0.2-1.4-0.8-2.5-1.8-3"/>
<path id="Layer7_5_MEMBER_0_MEMBER_57_1_STROKES" class="st5" d="M159.9,30.5l8.6,5"/>
<path id="Layer7_5_MEMBER_0_MEMBER_58_1_STROKES" class="st5" d="M164.6,57.1l5-13.7"/>
<path id="Layer7_5_MEMBER_0_MEMBER_59_1_STROKES" class="st5" d="M166.8,43.1c0.5-1.3,0.7-2.6,0.5-3.7c-0.2-1.1-0.6-1.9-1.4-2.3"/>
<path id="Layer7_5_MEMBER_0_MEMBER_60_1_STROKES" class="st5" d="M158.7,32.9l7.3,4.2"/>
<path id="Layer7_5_MEMBER_0_MEMBER_61_1_STROKES" class="st5" d="M162.1,56.1l4.8-13"/>
<path id="Layer7_5_MEMBER_0_MEMBER_62_1_STROKES" class="st5" d="M171.7,42.2c0.6-1.7,0.8-3.2,0.6-4.5c-0.2-1.4-0.8-2.3-1.7-2.8"/>
<path id="Layer7_5_MEMBER_0_MEMBER_63_1_STROKES" class="st5" d="M160.8,29.2l9.9,5.7"/>
<path id="Layer7_5_MEMBER_0_MEMBER_64_1_STROKES" class="st5" d="M166.7,55.8l5-13.6"/>
<path id="Layer7_5_MEMBER_0_MEMBER_65_1_STROKES" class="st5" d="M151.1,86.2c-0.7,1.9-0.9,3.6-0.7,5.1c0.2,1.5,0.8,2.6,1.9,3.2"/>
<path id="Layer7_5_MEMBER_0_MEMBER_66_1_STROKES" class="st5" d="M151.1,86.2l8.1-22.3"/>
<path id="Layer7_5_MEMBER_0_MEMBER_67_1_STROKES" class="st5" d="M152.3,94.5l6.6,3.8"/>
<path id="Layer7_5_MEMBER_0_MEMBER_68_1_STROKES" class="st5" d="M153.4,87.8c-0.4,1-0.5,1.9-0.3,2.7c0.1,0.8,0.4,1.4,1,1.7"/>
<path id="Layer7_5_MEMBER_0_MEMBER_69_1_STROKES" class="st5" d="M153.4,87.8l8.4-23.1"/>
<path id="Layer7_5_MEMBER_0_MEMBER_70_1_STROKES" class="st5" d="M154,92.3l6.6,3.8"/>
<path id="Layer7_5_MEMBER_0_MEMBER_71_1_STROKES" class="st5" d="M155,88.1c-0.3,0.7-0.3,1.4-0.2,2c0.1,0.6,0.3,1,0.7,1.2"/>
<path id="Layer7_5_MEMBER_0_MEMBER_72_1_STROKES" class="st5" d="M155,88.1l9-24.6"/>
<path id="Layer7_5_MEMBER_0_MEMBER_73_1_STROKES" class="st5" d="M155.4,91.3l6.7,3.9"/>
<path id="Layer7_5_MEMBER_0_MEMBER_74_1_STROKES" class="st5" d="M161.5,27.6c-0.5-0.3-1.1-0.2-1.9,0.2c-0.7,0.4-1.4,1.1-1.9,2.1
	c-0.5,0.9-0.8,1.8-0.8,2.7c0,0.9,0.3,1.5,0.8,1.7c0.6,0.4,1.4,0.2,2.4-0.5"/>
<path id="Layer7_5_MEMBER_0_MEMBER_75_1_STROKES" class="st5" d="M162.3,30.1c0.2-1.2-0.1-2-0.7-2.4"/>
<path id="Layer7_5_MEMBER_0_MEMBER_76_1_STROKES" class="st5" d="M160.8,28.9c-0.3-0.2-0.7-0.1-1.2,0.1c-0.5,0.3-0.9,0.7-1.2,1.3
	c-0.3,0.5-0.5,1.1-0.5,1.6c0,0.5,0.2,0.9,0.5,1.1"/>
<path id="Layer7_5_MEMBER_0_MEMBER_77_1_STROKES" class="st5" d="M159.6,26.5c-0.5-0.3-1.1-0.2-1.9,0.2c-0.7,0.4-1.4,1.1-1.9,2.1
	c-0.5,0.9-0.8,1.8-0.8,2.7c0,0.9,0.3,1.5,0.8,1.8"/>
<path id="Layer7_5_MEMBER_0_MEMBER_78_1_STROKES" class="st5" d="M159.6,26.5l1.9,1.1"/>
<path id="Layer7_5_MEMBER_0_MEMBER_79_1_STROKES" class="st5" d="M155.8,33.1l1.9,1.2"/>
<path id="Layer7_5_MEMBER_0_MEMBER_80_1_STROKES" class="st5" d="M151.2,18.9c-0.9-0.5-1.9-0.4-3.1,0.3c-1.2,0.7-2.2,1.8-3.1,3.3
	c-0.9,1.5-1.3,2.9-1.3,4.3c0,1.4,0.4,2.4,1.3,2.9l0.4,0.2"/>
<path id="Layer7_5_MEMBER_0_MEMBER_81_1_STROKES" class="st5" d="M151.6,19.2l-0.3-0.3"/>
<path id="Layer7_5_MEMBER_0_MEMBER_82_1_STROKES" class="st5" d="M137.3,10.8c-0.9-0.5-1.9-0.4-3.1,0.3c-1.2,0.7-2.2,1.8-3.1,3.3
	c-0.9,1.5-1.3,2.9-1.3,4.3c0,1.4,0.4,2.4,1.3,2.9"/>
<path id="Layer7_5_MEMBER_0_MEMBER_83_1_STROKES" class="st5" d="M137.3,10.8l14,8.1"/>
<path id="Layer7_5_MEMBER_0_MEMBER_84_1_STROKES" class="st5" d="M131,21.7l14,8.1"/>
<path id="Layer7_5_MEMBER_0_MEMBER_85_1_STROKES" class="st5" d="M138.2,9.3c-1.1-0.6-2.5-0.5-4,0.4c-1.6,0.9-2.9,2.3-4.1,4.3
	c-1.1,1.9-1.7,3.8-1.7,5.6c0,1.8,0.6,3.1,1.7,3.7c1,0.6,2.1,0.5,3.5-0.1"/>
<path id="Layer7_5_MEMBER_0_MEMBER_86_1_STROKES" class="st5" d="M139.8,12.3c-0.1-1.4-0.7-2.5-1.6-3"/>
<path id="Layer7_5_MEMBER_0_MEMBER_87_1_STROKES" class="st5" d="M131.8,5.6c-1.1-0.6-2.5-0.5-4,0.4c-1.5,0.9-2.9,2.3-4,4.3
	c-1.1,1.9-1.7,3.8-1.7,5.6c0,1.8,0.6,3.1,1.7,3.7"/>
<path id="Layer7_5_MEMBER_0_MEMBER_88_1_STROKES" class="st5" d="M131.8,5.6l6.4,3.7"/>
<path id="Layer7_5_MEMBER_0_MEMBER_89_1_STROKES" class="st5" d="M123.8,19.5l6.4,3.7"/>
<path id="Layer7_5_MEMBER_0_MEMBER_90_1_STROKES" class="st5" d="M151.6,19.2l8,7.4"/>
<path id="Layer7_5_MEMBER_0_MEMBER_91_1_STROKES" class="st5" d="M145.4,29.9l10.3,3.2"/>
<path id="Layer7_5_MEMBER_0_MEMBER_92_1_STROKES" class="st5" d="M130.5,4.3c-1.2-0.7-2.6-0.5-4.2,0.4c-1.7,1-3.1,2.5-4.3,4.5
	c-1.2,2-1.7,4-1.7,5.9c0,1.9,0.6,3.2,1.7,3.9c0.4,0.3,1,0.4,1.6,0.4"/>
<path id="Layer7_5_MEMBER_0_MEMBER_93_1_STROKES" class="st5" d="M131.6,5.5c-0.3-0.5-0.7-0.8-1.1-1.1"/>
<path id="Layer7_5_MEMBER_0_MEMBER_95_1_STROKES" class="st5" d="M119.8,2c-1.4,1-2.5,2.3-3.5,3.9c-1,1.8-1.5,3.4-1.7,5"/>
<path id="Layer7_5_MEMBER_0_MEMBER_96_1_STROKES" class="st5" d="M114.7,13.3c0.3,1.2,0.8,2,1.6,2.4"/>
<path id="Layer7_5_MEMBER_0_MEMBER_97_1_STROKES" class="st5" d="M124.8,1l5.7,3.3"/>
<path id="Layer7_5_MEMBER_0_MEMBER_98_1_STROKES" class="st5" d="M116.3,15.8L122,19"/>
<path id="Layer7_5_MEMBER_0_MEMBER_99_1_STROKES" class="st5" d="M128.6,5.6c-0.9-0.1-1.9,0.2-3,1c-1.1,0.8-2,1.8-2.8,3.1
	c-0.7,1.3-1.2,2.7-1.4,4c-0.1,1.3,0.1,2.3,0.6,3.1"/>
<path id="Layer7_5_MEMBER_0_MEMBER_100_1_STROKES" class="st5" d="M119.8,1.9l5.7,3.3"/>
<path id="Layer7_5_MEMBER_0_MEMBER_102_1_STROKES" class="st5" d="M126.1,3.3l0.1,0.1l0.2,0.1l0.2,0.3"/>
<path id="Layer7_5_MEMBER_0_MEMBER_103_1_STROKES" class="st5" d="M125.5,5.2L125.4,5l-0.1-0.3l-0.1-0.3l0-0.3l-0.1-0.3V3.7l0-0.2
	l0.1-0.2l0.1-0.2h0.1l0.1,0h0.2l0.2,0.1l0.1,0l0.1,0l-4.2-2.4"/>
<path id="Layer7_5_MEMBER_0_MEMBER_104_1_STROKES" class="st5" d="M114.6,10.9l5.7,3.3"/>
<path id="Layer7_5_MEMBER_0_MEMBER_105_1_STROKES" class="st5" d="M114.6,10.9l-0.2,0.9v0.7l0.1,0.3V13l0,0.1v0.1l0,0"/>
<path id="Layer7_5_MEMBER_0_MEMBER_106_1_STROKES" class="st5" d="M119.3,15.9l0.3,0.1h0.2l0.2,0"/>
<path id="Layer7_5_MEMBER_0_MEMBER_107_1_STROKES" class="st5" d="M120.3,14.3H120l-0.3,0l-0.8,0.2l-0.4,0.2l-0.2,0.2v0.3l0,0.1
	l0.1,0.1l0,0.1l0,0l0.2,0.1l-0.2-0.1l0,0l-3.9-2.3"/>
<path id="Layer7_5_MEMBER_0_MEMBER_108_1_STROKES" class="st5" d="M120,1.4c-0.8-0.5-1.8-0.4-2.9,0.3c-1.1,0.7-2.1,1.7-2.9,3.1
	c-0.8,1.4-1.2,2.7-1.2,4.1c0,1.3,0.4,2.2,1.2,2.6"/>
<path id="Layer7_5_MEMBER_0_MEMBER_110_1_STROKES" class="st5" d="M114.2,11.4l0.3,0.2"/>
<path id="Layer7_5_MEMBER_0_MEMBER_111_1_STROKES" class="st5" d="M232.2,138.6c0.3-0.5,0.4-1,0.4-1.5c0-0.5-0.1-0.8-0.4-1
	c-0.3-0.2-0.6-0.2-1,0.1c-0.4,0.3-0.8,0.6-1.1,1.1c-0.3,0.5-0.4,1-0.4,1.5c0,0.5,0.1,0.8,0.4,1c0.3,0.2,0.6,0.2,1.1-0.1
	C231.6,139.5,231.9,139.1,232.2,138.6z"/>
<path id="Layer7_5_MEMBER_0_MEMBER_112_1_STROKES" class="st5" d="M212.7,149.9c-0.3,0.5-0.6,0.9-1,1.1c-0.4,0.2-0.8,0.3-1.1,0.1
	c-0.3-0.2-0.4-0.5-0.4-1s0.1-1,0.4-1.5c0.3-0.5,0.6-0.9,1.1-1.1c0.4-0.3,0.8-0.3,1-0.1c0.3,0.2,0.4,0.5,0.4,1
	C213.1,148.9,213,149.4,212.7,149.9z"/>
<path id="Layer7_5_MEMBER_0_MEMBER_113_1_STROKES" class="st5" d="M232.2,159.7c-0.3,0.5-0.6,0.9-1,1.2c-0.4,0.2-0.8,0.3-1.1,0.1
	c-0.3-0.2-0.4-0.5-0.4-1c0-0.5,0.1-1,0.4-1.5c0.3-0.5,0.7-0.9,1.1-1.1c0.4-0.3,0.8-0.3,1-0.1c0.3,0.2,0.4,0.5,0.4,1
	C232.6,158.7,232.5,159.2,232.2,159.7z"/>
<path id="Layer7_5_MEMBER_0_MEMBER_114_1_STROKES" class="st5" d="M212.7,171c-0.3,0.5-0.6,0.9-1,1.1c-0.4,0.3-0.8,0.3-1.1,0.1
	c-0.3-0.2-0.4-0.5-0.4-1s0.1-1,0.4-1.5c0.3-0.5,0.6-0.9,1.1-1.1c0.4-0.3,0.8-0.3,1-0.1c0.3,0.2,0.4,0.5,0.4,1S213,170.5,212.7,171z"
	/>
<path id="Layer7_5_MEMBER_0_MEMBER_115_1_STROKES" class="st5" d="M205.8,163.2c0,5,1.5,8.4,4.6,10.1c3,1.8,6.7,1.4,11-1.1
	c4.3-2.5,8-6.4,11.1-11.7c3-5.3,4.6-10.4,4.6-15.4c0-5-1.5-8.4-4.5-10.1c-3-1.8-6.7-1.4-11,1.1c-4.3,2.5-8,6.4-11.1,11.7
	C207.3,153.1,205.8,158.2,205.8,163.2z"/>
<path id="Layer7_5_MEMBER_0_MEMBER_116_1_STROKES" class="st5" d="M220.7,137.9c0.3-0.5,0.6-0.9,1.1-1.1c0.4-0.2,0.8-0.3,1-0.1
	c0.3,0.2,0.4,0.5,0.4,1c0,0.5-0.1,1-0.4,1.5c-0.3,0.5-0.6,0.9-1,1.1c-0.4,0.2-0.8,0.3-1.1,0.1c-0.3-0.2-0.4-0.5-0.4-1
	C220.3,138.9,220.5,138.4,220.7,137.9z"/>
<path id="Layer7_5_MEMBER_0_MEMBER_117_1_STROKES" class="st5" d="M209,163c0.3-0.5,0.4-1,0.5-1.5c0-0.5-0.1-0.8-0.4-1
	c-0.3-0.2-0.7-0.1-1.1,0.1c-0.4,0.2-0.8,0.6-1,1.1c-0.3,0.5-0.5,1-0.5,1.5c0,0.5,0.1,0.8,0.4,1c0.3,0.2,0.6,0.1,1.1-0.1
	C208.4,163.9,208.8,163.5,209,163z"/>
<path id="Layer7_5_MEMBER_0_MEMBER_118_1_STROKES" class="st5" d="M235.8,146.6c0.3-0.5,0.5-1,0.5-1.5c0-0.5-0.2-0.8-0.5-1
	c-0.3-0.2-0.6-0.1-1,0.1c-0.4,0.2-0.8,0.6-1.1,1.1c-0.3,0.5-0.4,1-0.4,1.5c0,0.5,0.1,0.8,0.4,1c0.3,0.2,0.6,0.2,1.1-0.1
	C235.2,147.5,235.5,147.1,235.8,146.6z"/>
<path id="Layer7_5_MEMBER_0_MEMBER_119_1_STROKES" class="st5" d="M222,170.5c-0.3,0.5-0.6,0.9-1,1.1c-0.4,0.2-0.8,0.3-1.1,0.1
	c-0.3-0.2-0.4-0.5-0.4-1c0-0.5,0.1-1,0.4-1.5c0.3-0.5,0.6-0.9,1.1-1.1c0.4-0.3,0.8-0.3,1-0.1c0.3,0.2,0.5,0.5,0.5,1
	C222.5,169.5,222.3,170,222,170.5z"/>
<path id="Layer7_5_MEMBER_0_MEMBER_120_1_STROKES" class="st5" d="M166.7,98.5c-0.6,0.3-1.2,0.7-1.7,1.2"/>
<path id="Layer7_5_MEMBER_0_MEMBER_121_1_STROKES" class="st5" d="M159.7,105.6l5.3-5.8"/>
<path id="Layer7_5_MEMBER_0_MEMBER_122_1_STROKES" class="st5" d="M172.3,96.2l-5.6,2.3"/>
<path id="Layer7_5_MEMBER_0_MEMBER_123_1_STROKES" class="st5" d="M231.7,134.7l-0.7-0.5c-3-1.8-6.7-1.4-11,1.1
	c-4.3,2.5-8,6.4-11,11.7c-3,5.3-4.6,10.4-4.6,15.4c0,5,1.5,8.3,4.5,10.1l0.8,0.4"/>
<path id="Layer7_5_MEMBER_0_MEMBER_124_1_STROKES" class="st5" d="M229.6,139l0.2-0.1l0.3-0.2l0.3-0.3l0.5-0.8l0.3-0.8l0-0.4v-0.2"
	/>
<path id="Layer7_5_MEMBER_0_MEMBER_125_1_STROKES" class="st5" d="M210.1,150.2l0.2-0.1l0.6-0.6l0.3-0.3l0.4-0.8l0.1-0.4l0-0.4v-0.2
	"/>
<path id="Layer7_5_MEMBER_0_MEMBER_126_1_STROKES" class="st5" d="M229.6,160.1l0.2-0.1l0.6-0.5l0.3-0.3l0.4-0.8l0.1-0.4l0-0.4v-0.2
	"/>
<path id="Layer7_5_MEMBER_0_MEMBER_127_1_STROKES" class="st5" d="M210.1,171.4l0.5-0.3l0.6-0.7l0.4-0.8l0.1-0.4l0-0.7"/>
<path id="Layer7_5_MEMBER_0_MEMBER_128_1_STROKES" class="st5" d="M220.3,139.5l0.2-0.1l0.3-0.2l0.6-0.7l0.4-0.8l0.2-0.8v-0.2"/>
<path id="Layer7_5_MEMBER_0_MEMBER_129_1_STROKES" class="st5" d="M206.5,163.4l0.2-0.1l0.3-0.2l0.5-0.7l0.4-0.8l0.1-0.4l0-0.3
	l0-0.3"/>
<path id="Layer7_5_MEMBER_0_MEMBER_130_1_STROKES" class="st5" d="M233.2,147l0.2-0.1l0.3-0.2l0.5-0.7l0.4-0.8l0.2-0.8l0-0.2"/>
<path id="Layer7_5_MEMBER_0_MEMBER_131_1_STROKES" class="st5" d="M219.5,170.9l0.2-0.1l0.3-0.2l0.5-0.7l0.2-0.3l0.3-0.9l0-0.3V168"
	/>
<path id="Layer7_5_MEMBER_0_MEMBER_132_1_STROKES" class="st6" d="M160.6,63.8l0.9-2.6"/>
<path id="Layer7_5_MEMBER_0_MEMBER_133_1_STROKES" class="st6" d="M161.8,60.6l0.2-0.7"/>
<path id="Layer7_5_MEMBER_0_MEMBER_134_1_STROKES" class="st6" d="M162.2,59.3l0.9-2.6"/>
<path id="Layer7_5_MEMBER_0_MEMBER_135_1_STROKES" class="st6" d="M163.1,62.5l0.9-2.4"/>
<path id="Layer7_5_MEMBER_0_MEMBER_136_1_STROKES" class="st6" d="M164.1,59.5l0.2-0.6"/>
<path id="Layer7_5_MEMBER_0_MEMBER_137_1_STROKES" class="st6" d="M164.6,58.3l0.9-2.4"/>
</svg>
