<?xml version="1.0" encoding="utf-8"?>
<!-- Generator: Adobe Illustrator 24.1.2, SVG Export Plug-In . SVG Version: 6.00 Build 0)  -->
<svg version="1.1" id="Ebene_1" xmlns="http://www.w3.org/2000/svg" xmlns:xlink="http://www.w3.org/1999/xlink" x="0px" y="0px"
	 viewBox="0 0 348 161" style="enable-background:new 0 0 348 161;" xml:space="preserve">
<style type="text/css">
	.st0{fill:#009900;}
	.st1{fill:#B1B1B1;}
	.st2{fill:#0099FF;}
	.st3{fill:#0066CC;}
	.st4{fill:none;stroke:#000000;stroke-width:0.5;stroke-miterlimit:5;}
	.st5{fill:none;stroke:#000000;stroke-width:0.25;stroke-miterlimit:5;}
	.st6{fill:none;stroke:#000000;stroke-width:0.5;stroke-linecap:round;stroke-linejoin:round;}
</style>
<path d="M185.8,147.3l0.3-0.2c-0.3-0.7-0.4-1.4-0.3-1.9C185.5,145.7,185.5,146.4,185.8,147.3 M187.3,149c0.1,0,0.1,0.1,0.2,0.1
	c0.1,0.1,0.3,0.1,0.4,0.2c0.3,0,0.6-0.1,0.9-0.3c0,0,0,0,0.1-0.1c0.6-0.7,0.4-1.7-0.4-2.9c-0.9-1.4-1.7-1.8-2.5-1.4
	c-0.7,0.4-0.8,1.1-0.4,2.3c-0.4-1.1-0.2-1.8,0.5-2c0.8-0.3,1.5,0.2,2.2,1.4c0.7,1.2,0.7,2.1,0.1,2.5c-0.1,0.1-0.2,0.2-0.4,0.2
	c-0.3,0.1-0.6,0-1-0.3C187.1,148.9,187.2,148.9,187.3,149 M186.8,148.6l-0.2-0.2l-0.2-0.2c0.2,0.2,0.4,0.4,0.6,0.6
	C186.9,148.7,186.9,148.6,186.8,148.6 M186.2,148L186.2,148l0.3,0.4l0.3,0.2l0.2,0.1c0.3,0.2,0.6,0.3,0.9,0.2
	c-0.6-0.2-1.1-0.5-1.5-1.2l-0.3,0.2v0L186.2,148L186.2,148 M186.3,148L186.3,148L186.3,148c0,0,0,0.1,0,0.1c0,0,0,0,0,0
	C186.3,148.1,186.3,148.1,186.3,148 M159.3,124.4c-0.1-0.1-0.1-0.1-0.2-0.2v0c0,0,0,0,0,0C159.3,124.4,159.3,124.4,159.3,124.4
	 M158.9,123.9C159,124,159,124,158.9,123.9l0.2,0.3l0.2,0.2l0.1,0.1l0.2,0.1c0.3,0.2,0.6,0.3,0.9,0.2c-0.5-0.1-1-0.5-1.5-1.1
	l-0.3,0.2L158.9,123.9 M158.9,123.9l0,0.1c0.1,0.1,0.1,0.2,0.2,0.3v0v-0.1L158.9,123.9C159,124,159,124,158.9,123.9 M158.5,123.3
	l0.3-0.2c-0.4-0.7-0.5-1.3-0.3-1.9C158.2,121.7,158.2,122.4,158.5,123.3 M158.3,122.8c-0.4-1.1-0.2-1.8,0.5-2
	c0.8-0.2,1.5,0.2,2.2,1.4c0.6,1.2,0.7,2,0.1,2.5c-0.5,0.4-1,0.3-1.5-0.2c0.4,0.4,0.9,0.6,1.3,0.6h0.1c0.2,0,0.4-0.1,0.5-0.3
	c0,0,0.1-0.1,0.1-0.1c0.6-0.7,0.5-1.7-0.3-2.9c-0.9-1.3-1.7-1.8-2.4-1.4C158,120.8,157.9,121.6,158.3,122.8z"/>
<path class="st0" d="M176.5,156.7L176.5,156.7c0-0.3,0-0.6,0-0.8c-0.1,0.2-0.2,0.4-0.4,0.5c-0.1,0.1-0.3,0.1-0.5,0.1L176.5,156.7
	 M176.6,155.2c0,0.1,0,0.2,0,0.2c0-0.3,0.1-0.7,0.3-1c-0.3-0.3-0.6-0.7-0.8-1C176.4,154,176.6,154.6,176.6,155.2 M173.2,150.2
	c0,0.3-0.2,0.5-0.6,0.8c-0.4,0.2-0.8,0.3-1.4,0.3c-0.5,0-1-0.1-1.3-0.3c-0.4-0.2-0.6-0.4-0.6-0.7V150v-0.6c-0.2,0.2-0.4,0.5-0.4,0.8
	v0.1c0,0.4,0.3,0.7,0.7,0.9c0.4,0.3,1,0.4,1.6,0.4c0.6,0,1.2-0.1,1.6-0.4c0.4-0.3,0.7-0.6,0.7-0.9v0c0-0.3-0.1-0.6-0.3-0.8v0.5
	V150.2 M176,153.3c-0.2-0.4-0.4-0.9-0.5-1.4c-0.7-0.1-1.3-0.3-1.9-0.7v0.3c0.3-0.1,0.7,0.1,1.2,0.4
	C175.2,152.3,175.6,152.7,176,153.3 M177.7,150.6c0.5,0.2,0.8,0.6,1.1,1.1c0.3,0.6,0.4,1.1,0.4,1.6c0.2-0.5,0.1-1.1-0.2-1.7
	C178.6,150.9,178.2,150.6,177.7,150.6 M179,150.6l-0.4-0.2c0.3,0.1,0.6,0.4,0.9,0.9c0.2,0.4,0.3,0.7,0.3,1.1l0.1-0.3
	c0-0.3-0.1-0.6-0.3-0.9C179.4,150.9,179.2,150.7,179,150.6 M170.3,147.4c-0.1,0.1-0.1,0.2-0.1,0.3c0,0.2,0.1,0.3,0.3,0.5
	c0.2,0.1,0.5,0.2,0.8,0.2c0.3,0,0.5-0.1,0.8-0.2c0.2-0.1,0.3-0.3,0.3-0.5c0-0.1,0-0.1-0.1-0.2l-0.1-0.1h0c-0.2-0.2-0.5-0.3-0.9-0.3
	C170.9,147.1,170.5,147.2,170.3,147.4 M171.2,147.4c0.5,0,0.7,0.1,0.7,0.4c0,0.3-0.2,0.4-0.7,0.4c-0.5,0-0.7-0.1-0.7-0.4
	C170.5,147.5,170.7,147.4,171.2,147.4 M241.1,138.9c-0.3,0.6-0.5,1.1-0.5,1.7c0,0.6,0.2,0.9,0.5,1.1l0.5,0.3c0.3,0.2,0.6,0.2,1,0
	c0.4-0.2,0.7-0.5,1.1-0.9l0.2-0.5l-1.2-0.7l1.2,0.7l0.3-0.5c0.2-0.5,0.3-1,0.3-1.4c-0.1-0.4-0.3-0.7-0.6-0.9v0l-0.5-0.3
	c-0.3-0.1-0.7-0.1-1.2,0.2C241.8,137.9,241.5,138.3,241.1,138.9 M241.6,139.2c-0.5,0.9-0.6,1.7-0.4,2.3
	C240.9,140.9,241.1,140.1,241.6,139.2c0.6-0.9,1.2-1.4,1.9-1.5C242.7,137.8,242.1,138.3,241.6,139.2 M242.1,139.4
	c-0.2,0.4-0.3,0.7-0.3,1.1c0,0.3,0.1,0.5,0.3,0.6c0.2,0.2,0.5,0.1,0.8-0.1c-0.3,0.2-0.6,0.3-0.8,0.1c-0.2-0.1-0.3-0.3-0.3-0.6
	C241.8,140.2,241.9,139.8,242.1,139.4c0.2-0.3,0.4-0.6,0.7-0.8c0.3-0.1,0.6-0.1,0.7,0c0.2,0.1,0.3,0.3,0.3,0.7
	c0-0.4-0.1-0.6-0.3-0.7c-0.2-0.1-0.4-0.1-0.7,0C242.5,138.8,242.3,139.1,242.1,139.4 M251.7,146.5c0,0.4,0.1,0.7,0.3,0.8
	c0.1,0.1,0.3,0.1,0.6,0.1c0,0,0.1-0.1,0.2-0.1c0.4-0.2,0.7-0.5,1-1c0.3-0.5,0.4-0.9,0.4-1.3c0-0.1,0-0.2-0.1-0.2c0,0,0,0,0-0.1
	c-0.1-0.2-0.2-0.3-0.3-0.4c-0.2-0.2-0.5-0.1-0.9,0.1c-0.3,0.2-0.6,0.5-0.9,0.9C251.8,145.7,251.7,146.1,251.7,146.5 M251.5,146.2
	c0.2,0.4,0.3,0.8,0.3,1.4l0.8-0.3c-0.2,0-0.4,0-0.6-0.1c-0.2-0.1-0.3-0.4-0.3-0.8c0-0.4,0.1-0.8,0.3-1.2c0.2-0.4,0.5-0.7,0.9-0.9
	c0.4-0.2,0.7-0.3,0.9-0.1c0.1,0.1,0.2,0.2,0.3,0.4L254,144l-1.4,0.4L251.5,146.2 M248.9,142L248.9,142c-0.3-0.1-0.6,0-1,0.4
	C248.3,142,248.6,141.9,248.9,142l-0.5-0.2h0c0,0,0,0-0.1,0c-0.2-0.1-0.3,0-0.5,0.1c-0.2,0.1-0.5,0.3-0.6,0.7
	c-0.1,0.3-0.2,0.6-0.3,0.8c0,0.3,0.1,0.4,0.3,0.5l0.5,0.3c-0.2-0.2-0.3-0.4-0.2-0.8c-0.1,0.4,0,0.6,0.2,0.8l0.4,0.3
	c-0.2-0.1-0.3-0.3-0.2-0.6c0-0.3,0.1-0.6,0.3-0.8c0.2-0.3,0.4-0.5,0.6-0.7c0.2-0.1,0.4-0.1,0.5-0.1L248.9,142 M250.3,145.5
	c0,0.1,0,0.1,0,0.2c0,0.4,0.1,0.8,0.3,1.2l1.2,0.7c0-0.6-0.2-1-0.3-1.4L250.3,145.5 M251.3,143.7l-1,1.8l1.2,0.7l1-1.8L251.3,143.7
	 M251.6,143.6l-0.3,0.1l1.2,0.7l1.4-0.4l-1.2-0.7L251.6,143.6 M251.3,143.7l0.3-0.1l-2.3-1.3c-0.1,0-0.3,0-0.5,0.1
	c-0.2,0.2-0.4,0.4-0.6,0.7c-0.2,0.3-0.3,0.5-0.3,0.8c0,0.2,0.1,0.4,0.2,0.6l2.2,1.2c0-0.1,0-0.1,0-0.2L251.3,143.7 M247.6,141.3
	c-0.2-0.1-0.4-0.1-0.6,0c-0.2,0.2-0.5,0.4-0.6,0.7c-0.2,0.3-0.2,0.6-0.2,0.8c0,0.3,0.1,0.5,0.2,0.6l0.4,0.3
	c-0.2-0.2-0.3-0.4-0.2-0.8c-0.1,0.4,0,0.6,0.2,0.8l0.5,0.2c-0.2-0.1-0.3-0.3-0.3-0.5c0-0.3,0.1-0.5,0.3-0.8c0.2-0.3,0.4-0.6,0.6-0.7
	c0.2-0.1,0.3-0.1,0.5-0.1l-0.4-0.2c-0.3-0.2-0.6-0.1-0.9,0.3c0.3-0.4,0.6-0.5,0.9-0.3L247.6,141.3 M151.7,127.6
	c-0.4-0.7-0.8-1.1-1.3-1.1c0.4,0.2,0.8,0.6,1.1,1.1c0.3,0.6,0.5,1.1,0.4,1.6C152.2,128.8,152.1,128.3,151.7,127.6 M151.7,126.6
	l-0.5-0.2c0.4,0.2,0.7,0.5,1,1c0.2,0.4,0.3,0.8,0.4,1.2l0-0.3c0.1-0.3,0-0.7-0.2-1C152.2,126.9,151.9,126.7,151.7,126.6
	 M149.3,132.7L149.3,132.7c0-0.3,0-0.6,0-0.8c-0.1,0.2-0.2,0.4-0.4,0.5c-0.1,0.1-0.3,0.1-0.4,0.1L149.3,132.7 M145.8,127.9
	c0.1-0.1,0.2-0.2,0.3-0.3c0.4-0.2,0.8-0.2,1.3,0.2c0.5,0.3,1,0.8,1.3,1.5c0.4,0.6,0.6,1.3,0.6,1.9c0,0.1,0,0.2,0,0.2
	c0.1-0.3,0.2-0.7,0.3-1c-0.7-0.7-1.2-1.6-1.5-2.5c-0.8-0.1-1.4-0.4-2-0.8L145.8,127.9 M244.1,73.4l1.1-1.8l-1.2-0.7l-1,1.8
	L244.1,73.4 M244.4,74.2c0.1,0.2,0.1,0.4,0.1,0.7l0.8-0.3c-0.2,0-0.5,0-0.7-0.1C244.6,74.5,244.5,74.4,244.4,74.2 M243,72.8
	c0,0,0,0.1,0,0.2c0,0.4,0.1,0.8,0.3,1.3l1.2,0.7c0-0.2,0-0.5-0.1-0.7l0-0.1c-0.1-0.2-0.2-0.5-0.3-0.7L243,72.8 M242.1,69.6
	L242.1,69.6L242.1,69.6L242.1,69.6 M239.9,69.8c-0.2,0.3-0.2,0.6-0.3,0.9c0,0.2,0.1,0.4,0.2,0.5l0.4,0.2c-0.1-0.1-0.1-0.3-0.1-0.6
	c0,0.3,0,0.5,0.1,0.6l0.6,0.3c-0.2-0.1-0.2-0.3-0.2-0.5c0-0.3,0.1-0.6,0.3-0.9c0.2-0.3,0.4-0.5,0.6-0.7c0.2-0.1,0.4-0.1,0.6-0.1
	l-0.4-0.2c-0.3-0.2-0.6-0.1-0.9,0.3c0.3-0.4,0.6-0.5,0.9-0.3l-0.5-0.3c-0.2,0-0.4,0-0.6,0.1C240.3,69.2,240.1,69.5,239.9,69.8
	 M240.2,68.5L240.2,68.5c-0.1-0.1-0.3-0.1-0.6,0c-0.2,0.1-0.4,0.3-0.6,0.7c-0.2,0.3-0.3,0.5-0.3,0.8c0,0.3,0.1,0.5,0.2,0.6l0.5,0.2
	c-0.2-0.1-0.3-0.4-0.3-0.8c0,0.4,0,0.7,0.3,0.8l0.4,0.2c-0.1-0.1-0.2-0.3-0.2-0.5c0-0.3,0.1-0.6,0.3-0.9c0.2-0.3,0.4-0.5,0.6-0.7
	c0.2-0.1,0.4-0.1,0.6-0.1l-0.4-0.2c-0.3-0.1-0.6,0-0.9,0.3c0.3-0.3,0.6-0.4,0.9-0.3L240.2,68.5 M244.2,70.9l-0.2,0l1.2,0.7l1.4-0.4
	l-1.2-0.7L244.2,70.9 M244,70.9l0.2,0l-2.1-1.3l0-0.1c-0.2,0-0.4,0-0.6,0.1c-0.2,0.2-0.4,0.4-0.6,0.7c-0.2,0.3-0.2,0.6-0.3,0.9
	c0,0.2,0.1,0.4,0.2,0.5l2.2,1.3c0-0.1,0-0.1,0-0.2L244,70.9 M246.8,71.9l-0.2-0.7l-1.4,0.4l-1.1,1.8c0.1,0.2,0.2,0.4,0.3,0.7
	c0-0.1,0-0.3,0-0.4c0-0.4,0.1-0.8,0.3-1.2c0.2-0.4,0.5-0.8,0.9-0.9c0.3-0.2,0.6-0.2,0.9-0.1C246.6,71.6,246.7,71.7,246.8,71.9
	 M246.8,72.2l0-0.3c-0.1-0.2-0.2-0.3-0.3-0.4c-0.3-0.1-0.6-0.1-0.9,0.1c-0.4,0.2-0.6,0.5-0.9,0.9c-0.2,0.4-0.3,0.8-0.3,1.2
	c0,0.1,0,0.2,0,0.4l0,0.1c0.1,0.2,0.1,0.3,0.2,0.3c0.2,0.1,0.4,0.1,0.7,0.1l0.2-0.1c0.4-0.2,0.7-0.5,1-1
	C246.8,73,246.9,72.6,246.8,72.2 M201.6,98.7L201.6,98.7L201.6,98.7L201.6,98.7 M201,98.5v0.7l0.6-0.4L201,98.5 M220.6,127.1v0.1
	l0,0.1C220.7,127.2,220.7,127.2,220.6,127.1 M216.2,129.5c0.1,0.1,0.2,0.2,0.3,0.4c0.2,0.3,0.3,0.7,0.4,1c0-0.3-0.1-0.6-0.3-1
	C216.4,129.7,216.3,129.6,216.2,129.5 M216.8,130.9c0,0,0,0.1,0,0.2c0,0.4-0.1,0.6-0.3,0.7c-0.2,0.1-0.5,0.1-0.8-0.1
	c-0.3-0.2-0.6-0.5-0.8-0.8l-0.2,0.1c0.2,0.4,0.5,0.8,0.8,1c0.4,0.2,0.7,0.2,0.9,0.1c0.2-0.1,0.4-0.4,0.4-0.9
	C216.9,131.1,216.8,131,216.8,130.9 M214.7,130.9L214.7,130.9l0.3-0.1c-0.2-0.4-0.3-0.8-0.3-1.1c0-0.4,0.1-0.6,0.3-0.7
	c0.2-0.1,0.5,0,0.8,0.1c0.1,0.1,0.2,0.2,0.4,0.3c-0.2-0.2-0.4-0.3-0.6-0.5c-0.4-0.2-0.7-0.2-0.9-0.1c-0.2,0.1-0.4,0.4-0.3,0.8
	C214.3,130,214.4,130.5,214.7,130.9 M217,91.4c0-0.4-0.2-0.8-0.4-1.3c0.2,0.4,0.3,0.7,0.3,1.1c0,0.4-0.1,0.6-0.2,0.7
	c-0.2,0.1-0.5,0.1-0.8-0.1c-0.3-0.2-0.6-0.5-0.8-0.9l-0.2,0.2c0.2,0.4,0.5,0.8,0.9,1c0.4,0.3,0.7,0.3,0.9,0.2
	C216.9,92.2,217,91.9,217,91.4 M214.4,89.8c0,0.5,0.2,0.9,0.4,1.4L215,91l0,0c-0.2-0.4-0.3-0.7-0.3-1.1c0-0.4,0.1-0.6,0.3-0.7
	c0.2-0.1,0.5-0.1,0.8,0.1c0.2,0.1,0.4,0.3,0.5,0.5c-0.2-0.3-0.4-0.5-0.6-0.6c-0.4-0.2-0.6-0.3-0.9-0.1
	C214.5,89.1,214.4,89.4,214.4,89.8 M235,64.9c-0.4,0.3-0.8,0.7-1.2,1.3c-0.3,0.6-0.5,1.2-0.5,1.7c0,0.5,0.2,0.9,0.5,1.1h0l0.5,0.3
	c0.3,0.1,0.6,0.1,1,0c0.4-0.2,0.8-0.5,1.1-0.9l0.3-0.5l-1.2-0.7l1.2,0.7l0.2-0.5c0.2-0.5,0.3-1,0.3-1.4c0-0.4-0.2-0.8-0.5-0.9
	l-0.5-0.3C235.8,64.6,235.4,64.6,235,64.9 M235.1,65.4c-0.3,0.2-0.6,0.6-0.8,1c-0.5,0.9-0.7,1.6-0.5,2.3c-0.2-0.7-0.1-1.4,0.5-2.3
	C234.5,66,234.8,65.7,235.1,65.4c0.4-0.3,0.7-0.5,1-0.5C235.8,65,235.4,65.1,235.1,65.4 M236.2,65.9c-0.2-0.1-0.5-0.1-0.7,0.1
	c-0.3,0.1-0.6,0.4-0.8,0.7c-0.2,0.4-0.3,0.7-0.3,1c0,0.4,0.1,0.6,0.3,0.7c0.2,0.1,0.5,0.1,0.8-0.1c-0.3,0.2-0.6,0.2-0.8,0.1
	c-0.2-0.1-0.3-0.3-0.3-0.7c0-0.3,0.1-0.7,0.3-1c0.2-0.4,0.5-0.6,0.8-0.7C235.8,65.8,236,65.8,236.2,65.9c0.2,0.1,0.3,0.3,0.3,0.7
	C236.5,66.2,236.4,66,236.2,65.9z"/>
<path class="st1" d="M173.6,151v-0.8c0,0.3-0.3,0.6-0.7,0.9c-0.4,0.3-1,0.4-1.6,0.4c-0.6,0-1.2-0.1-1.6-0.4
	c-0.4-0.3-0.7-0.6-0.7-0.9v4.8c0,0.8,0.3,1.5,0.9,2.1c0.6,0.6,1.2,0.8,2,0.8c0.5,0,1-0.1,1.4-0.4l1.5-0.8l0.3-0.3h0
	c0-0.2,0.1-0.3,0.1-0.3c0.1-0.6-0.1-1.2-0.5-2c-0.3-0.5-0.7-0.9-1.1-1.2v0.5l0.1,0.4l-0.1-0.4v-0.5v-0.4v-0.9v-0.3V151 M172.8,153.6
	c0-0.1,0.1-0.1,0.3-0.1c0.4,0,0.6,0.2,0.6,0.6v0.4c0,0.2,0.1,0.3,0.3,0.3h0.2l0.4-0.2l0.1,0c0.2,0,0.3,0.1,0.3,0.3v1
	c0,0.3-0.2,0.6-0.5,0.8l-1.8,1.1c-0.2,0.1-0.4,0.1-0.5,0.1c-0.3,0-0.5-0.1-0.7-0.3c-0.2-0.2-0.3-0.4-0.3-0.7v-1.6
	c0-0.4,0.2-0.7,0.6-1L172.8,153.6 M173,153.5c-0.1,0-0.2,0-0.3,0.1l-1.1,0.6c-0.4,0.3-0.6,0.6-0.6,1v1.6c0,0.3,0.1,0.5,0.3,0.7
	c0.2,0.2,0.4,0.3,0.7,0.3c0.1,0,0.3,0,0.5-0.1l1.8-1.1c0.3-0.2,0.4-0.5,0.5-0.8v-1c0-0.2-0.1-0.3-0.3-0.3l-0.1,0l-0.4,0.2h-0.2
	c-0.2,0-0.3-0.1-0.3-0.3v-0.4C173.6,153.7,173.4,153.5,173,153.5 M173.2,149.9c0,0.2-0.2,0.4-0.6,0.6c-0.4,0.2-0.9,0.4-1.4,0.4
	s-1-0.1-1.4-0.4c-0.3-0.2-0.5-0.3-0.6-0.6v0.3c0,0.3,0.2,0.5,0.6,0.7c0.4,0.2,0.8,0.3,1.3,0.3c0.6,0,1-0.1,1.4-0.3
	c0.4-0.2,0.6-0.5,0.6-0.8V149.9 M176,153.3L176,153.3l0.1,0.1c0.2,0.4,0.5,0.7,0.8,1l1.1-0.7c-0.1-0.4-0.3-0.8-0.6-1.3
	c-0.3-0.5-0.6-0.9-0.8-1.2l-1.2,0.7C175.6,152.5,175.8,152.9,176,153.3 M175.6,153.5c-0.3-0.4-0.6-0.8-0.9-1
	c-0.4-0.2-0.7-0.2-0.9-0.1l-0.2,0.1v0.4c0.4,0.3,0.8,0.7,1.1,1.2c0.4,0.8,0.6,1.4,0.5,2l0.5-0.4c0.2-0.1,0.3-0.4,0.3-0.8
	C176,154.4,175.9,154,175.6,153.5 M174.7,152.5c0.4,0.2,0.7,0.6,0.9,1c0.2,0.4,0.4,0.9,0.4,1.3c0,0.4-0.1,0.7-0.3,0.8l-0.5,0.4
	c0,0.1-0.1,0.2-0.1,0.3l0.6,0.2c0.2,0,0.3,0,0.5-0.1c0.2-0.1,0.3-0.3,0.4-0.5c0.1-0.2,0.1-0.3,0.1-0.4c0-0.1,0-0.1,0-0.2
	c0-0.6-0.2-1.2-0.6-1.8l0-0.1l0,0c-0.4-0.6-0.8-1.1-1.2-1.4c-0.5-0.3-0.9-0.4-1.2-0.4v0.9l0.2-0.1
	C174,152.3,174.3,152.3,174.7,152.5 M176.7,151.3l-0.5-0.3h0c-0.5-0.3-1-0.4-1.6-0.5l-1,0.5v0.3c0.6,0.4,1.2,0.6,1.9,0.7
	L176.7,151.3 M177.7,156.1c0.2-0.6,0.4-1.1,0.4-1.6v-0.1v-0.6l-1.1,0.7c-0.2,0.3-0.2,0.6-0.3,1c0,0.1,0,0.3-0.1,0.4
	c0,0.2,0,0.5,0,0.8L177.7,156.1 M178.7,153.4c0-0.4-0.1-0.9-0.4-1.3c-0.3-0.5-0.6-0.8-1-1.1c-0.3-0.2-0.6-0.3-0.9-0.1h-0.1l-0.2,0.1
	h0c0.4-0.1,0.7,0,1.2,0.4c-0.4-0.4-0.8-0.5-1.2-0.4l0.5,0.3c0.2,0.2,0.5,0.6,0.8,1.2c0.3,0.5,0.5,0.9,0.6,1.3v0.6
	c0.4-0.3,0.4-0.8,0.2-1.5c0.2,0.6,0.1,1.1-0.2,1.5v0.1l0.2-0.1h0.1C178.6,154.1,178.7,153.8,178.7,153.4 M178.4,150.4l-0.7,0
	l-0.2,0.1h-0.6l-0.3,0.2c0.3-0.2,0.7-0.1,1.2,0.3c-0.5-0.4-0.9-0.5-1.2-0.3l-0.2,0.2c0.2-0.2,0.5-0.1,0.9,0.1c0.4,0.2,0.7,0.6,1,1.1
	c0.2,0.4,0.4,0.9,0.4,1.3c0,0.4-0.1,0.7-0.3,0.9l0.2-0.1l0.1-0.1c0,0,0,0,0.1,0c0,0,0-0.1,0.1-0.1c0.2-0.3,0.2-0.7,0.1-1.4
	c0.2,0.7,0.2,1.1-0.1,1.4c0.2-0.1,0.4-0.3,0.5-0.5c0,0,0-0.1,0-0.1c0-0.5-0.1-1.1-0.4-1.6c-0.3-0.5-0.7-0.9-1.1-1.1
	c0.4,0,0.9,0.4,1.3,1c0.3,0.6,0.4,1.2,0.2,1.7c0,0,0,0.1,0,0.1l0.1-0.1l0.4-0.5l0-0.3c0-0.4-0.1-0.7-0.3-1.1
	C179.1,150.9,178.8,150.6,178.4,150.4L178.4,150.4 M169.3,149.2v0.2v0.6c0,0.2,0.2,0.4,0.6,0.6c0.4,0.2,0.8,0.4,1.4,0.4
	s1-0.1,1.4-0.4c0.4-0.2,0.6-0.4,0.6-0.6v-0.5c0,0.2-0.2,0.4-0.6,0.6c-0.4,0.2-0.8,0.3-1.4,0.3c-0.5,0-1-0.1-1.3-0.3
	C169.5,149.7,169.3,149.5,169.3,149.2 M170.1,149.4c-0.3-0.2-0.5-0.5-0.5-0.7l0-0.2c-0.2,0.2-0.3,0.4-0.3,0.6v0.1
	c0,0.3,0.2,0.6,0.6,0.8c0.4,0.2,0.8,0.3,1.3,0.3c0.6,0,1-0.1,1.4-0.3c0.4-0.2,0.5-0.4,0.6-0.6v-0.3l-0.4-0.6l0,0.2
	c0,0.2-0.2,0.5-0.5,0.7c-0.3,0.2-0.7,0.3-1.2,0.3C170.8,149.7,170.4,149.6,170.1,149.4 M170.1,149c-0.3-0.2-0.5-0.4-0.5-0.6v0.1
	l0,0.2c0,0.2,0.2,0.5,0.5,0.7c0.3,0.2,0.7,0.3,1.1,0.3c0.5,0,0.9-0.1,1.2-0.3c0.3-0.2,0.5-0.5,0.5-0.7l0-0.2c0,0.2-0.2,0.3-0.4,0.5
	c-0.3,0.2-0.7,0.3-1.2,0.3S170.4,149.2,170.1,149 M170.1,147.8c0-0.1,0-0.2,0.1-0.3l-0.4,0.4l-0.3,0.6c0,0.2,0.2,0.4,0.5,0.6
	c0.3,0.2,0.7,0.3,1.2,0.3s0.8-0.1,1.2-0.3c0.3-0.2,0.4-0.3,0.4-0.5v-0.2l-0.3-0.5l-0.3-0.2c0,0.1,0.1,0.1,0.1,0.2
	c0,0.2-0.1,0.3-0.3,0.5c-0.2,0.1-0.5,0.2-0.8,0.2c-0.3,0-0.5-0.1-0.8-0.2C170.3,148.1,170.1,148,170.1,147.8 M171.9,147.8
	c0-0.3-0.2-0.4-0.7-0.4c-0.5,0-0.7,0.1-0.7,0.4c0,0.3,0.2,0.4,0.7,0.4C171.7,148.2,171.9,148,171.9,147.8 M142.4,125.3l-0.1-0.2
	l-0.1-0.2c0,0.2-0.4,0.4-1.1,0.8c-0.8,0.4-1.2,0.4-1.3,0.2l0.1,0.3l0.1,0.2c0.1,0.2,0.5,0.1,1.3-0.2c0.3-0.2,0.6-0.3,0.8-0.5
	C142.3,125.5,142.4,125.4,142.4,125.3 M143.3,126.3l-0.1-0.4l-0.2-0.2c0.1,0.3-0.3,0.7-1.4,1.2c-1,0.4-1.6,0.6-1.7,0.4l0,0.2
	l0.2,0.3c0,0.1,0.2,0.2,0.6,0.1c0.4-0.1,0.7-0.2,1.1-0.4C142.9,126.9,143.4,126.5,143.3,126.3 M142.8,125.1c0,0.1-0.1,0.3-0.3,0.6
	c-0.3,0.2-0.7,0.4-1.1,0.6c-0.4,0.2-0.8,0.3-1.2,0.4c-0.3,0-0.5,0-0.6-0.1l0.3,0.6c0.2,0.2,0.7,0.1,1.7-0.4c1-0.5,1.5-0.9,1.4-1.2
	L142.8,125.1 M142.5,125.7c0.2-0.2,0.4-0.4,0.3-0.6h0c0-0.1-0.2-0.1-0.5,0l0.1,0.2c0,0.1,0,0.2-0.2,0.4c-0.2,0.1-0.5,0.3-0.8,0.5
	c-0.8,0.3-1.3,0.4-1.3,0.2l-0.1-0.2c-0.2,0.2-0.3,0.3-0.3,0.4v0c0.1,0.1,0.3,0.1,0.6,0.1c0.4-0.1,0.8-0.2,1.2-0.4
	C141.8,126.1,142.2,125.9,142.5,125.7 M141.7,124.6c-0.1-0.1-0.5,0-1,0.2c-0.5,0.2-0.8,0.3-0.8,0.5v0v0c0.1,0.2,0.4,0.1,1-0.1
	C141.5,125,141.8,124.7,141.7,124.6 M142.2,124.8c0-0.1,0-0.1,0-0.1l-0.4-0.1c0,0.2-0.2,0.4-0.8,0.7c-0.6,0.2-1,0.3-1,0.1v0
	l-0.1,0.4c0,0,0,0.1,0,0.1c0.1,0.2,0.5,0.2,1.3-0.2C141.8,125.3,142.1,125,142.2,124.8 M151.1,126.4h-0.6l-0.2,0.1c0,0,0.1,0,0.1,0
	c0.5,0,0.9,0.4,1.3,1.1c0.4,0.6,0.4,1.2,0.2,1.6c0,0,0,0.1,0,0.1l0.1,0l0.3-0.5l0.1-0.3c0-0.4-0.1-0.8-0.4-1.2
	C151.9,126.9,151.5,126.6,151.1,126.4 M149.3,132.7l1.1-0.7c0.2-0.5,0.3-1.1,0.3-1.6v-0.1v-0.6l-1.1,0.6c-0.1,0.4-0.2,0.7-0.3,1
	c0,0.1,0,0.2-0.1,0.4C149.2,132.1,149.3,132.4,149.3,132.7 M146.6,128.6c-0.1,0-0.3-0.1-0.4-0.2c-0.2-0.1-0.5,0-0.7,0.1l-0.5,0.3
	l0.2,0.5l-0.2-0.5l-1.3-2.7c0,0.2-0.1,0.4-0.4,0.6c-0.3,0.3-0.8,0.5-1.4,0.8c-0.6,0.2-1.1,0.4-1.5,0.5c-0.4,0.1-0.6,0.1-0.7,0
	l2.3,4.9c0.2,0.4,0.4,0.7,0.8,1c0.4,0.2,0.8,0.4,1.2,0.4c0.4,0,0.7-0.1,1.1-0.3l2.6-1.6c0.2-0.1,0.3-0.3,0.3-0.6c0-0.1,0-0.2,0-0.4
	c0-0.5-0.2-1-0.5-1.6C147.4,129.3,147.1,128.9,146.6,128.6 M146.3,128.5c0.1,0.1,0.2,0.1,0.4,0.2c0.4,0.2,0.8,0.6,1.1,1.2
	c0.3,0.6,0.5,1.1,0.5,1.6c0,0.2,0,0.3,0,0.4l0.2,0v-0.1c0.3-0.1,0.4-0.4,0.4-0.8c0-0.4-0.2-0.9-0.5-1.3c-0.2-0.5-0.5-0.8-0.9-1.1
	c-0.4-0.2-0.7-0.2-0.9-0.1L146.3,128.5 M146.1,127.6c-0.1,0.1-0.2,0.2-0.3,0.3c-0.1,0.1-0.1,0.3-0.2,0.4c0,0.1,0,0.1,0,0.2
	c0.2-0.1,0.4-0.1,0.7-0.1l0.2-0.1c0.2-0.1,0.6-0.1,0.9,0.1c0.3,0.2,0.6,0.6,0.9,1.1c0.3,0.5,0.4,0.9,0.5,1.3c0,0.4-0.1,0.7-0.4,0.8
	v0.1l-0.2,0c0,0.3-0.1,0.5-0.3,0.6c0.1,0,0.2,0.1,0.3,0.1l0.2,0.1c0.2,0,0.3,0,0.4-0.1c0.2-0.1,0.4-0.3,0.4-0.5
	c0-0.2,0.1-0.3,0.1-0.4c0-0.1,0-0.1,0-0.2c0-0.6-0.2-1.3-0.6-1.9c-0.4-0.7-0.8-1.2-1.3-1.5C146.9,127.5,146.4,127.4,146.1,127.6
	 M143.7,126.1L143.7,126.1c0-0.2-0.2-0.2-0.5-0.2l0.1,0.4c0.1,0.2-0.4,0.6-1.4,1.1c-0.4,0.2-0.8,0.3-1.1,0.4c-0.4,0.1-0.6,0-0.6-0.1
	l-0.2-0.3c-0.2,0.2-0.3,0.4-0.3,0.5c0,0,0,0,0.1,0c0.1,0.1,0.3,0.1,0.7,0c0.4-0.1,1-0.2,1.5-0.5c0.6-0.3,1-0.5,1.4-0.8
	C143.7,126.4,143.8,126.2,143.7,126.1L143.7,126.1 M148.9,127c-0.5-0.3-1-0.4-1.6-0.5l-1.1,0.7c0.6,0.4,1.3,0.7,2,0.8l1.2-0.6
	L148.9,127 M150.1,128.4c-0.2-0.4-0.5-0.7-0.8-1.2l-1.2,0.6c0.2,1,0.7,1.8,1.5,2.5l1.1-0.6C150.6,129.2,150.4,128.8,150.1,128.4
	 M149.1,126.8c0.3-0.1,0.6,0,1,0.2c0.4,0.2,0.7,0.6,0.9,1c0.3,0.4,0.4,0.9,0.4,1.3c0,0.4-0.1,0.7-0.4,0.9l0.2-0.1c0,0,0,0,0.1-0.1h0
	c0,0,0,0,0,0c0.4-0.2,0.4-0.7,0.2-1.5c0.2,0.7,0.2,1.2-0.2,1.5l0.1,0h0.1c0.2-0.1,0.3-0.3,0.4-0.6v0c0,0,0-0.1,0-0.1
	c0.1-0.4-0.1-1-0.4-1.6c-0.3-0.6-0.7-0.9-1.1-1.1c0,0-0.1,0-0.1,0h-0.7l-0.2,0.2c0.3-0.2,0.7,0,1.2,0.3c-0.5-0.4-0.9-0.5-1.2-0.3
	l0,0h0L149.1,126.8 M150.1,127c-0.4-0.2-0.7-0.3-1-0.2l-0.2,0.1c0.3-0.1,0.7,0,1.1,0.4c-0.4-0.4-0.8-0.5-1.1-0.4l0.5,0.3
	c0.3,0.4,0.6,0.8,0.8,1.2c0.3,0.4,0.5,0.8,0.6,1.3v0.6c0.4-0.3,0.4-0.8,0.2-1.5c0.2,0.7,0.2,1.2-0.2,1.5v0.1l0.2-0.2h0.1
	c0.2-0.2,0.4-0.5,0.4-0.9c0-0.4-0.1-0.9-0.4-1.3C150.7,127.6,150.4,127.2,150.1,127z"/>
<path class="st2" d="M203.4,117.3l-0.5-0.3l0,0c-0.2,0.5-0.5,0.7-0.9,0.8c0,0.1,0.1,0.1,0.2,0.2c0.2,0.1,0.4,0.1,0.6,0
	C203.1,117.8,203.3,117.6,203.4,117.3 M201.6,112.8v0.7l7.5-0.9v-0.6L201.6,112.8 M201.6,113.5v-0.7l-0.7-0.3v0.7L201.6,113.5
	 M203.4,115.8c-0.1-0.1-0.2-0.1-0.3-0.1c0.2,0.4,0.1,0.8-0.2,1.2l0.5,0.3c0.2-0.3,0.3-0.6,0.3-0.9
	C203.7,116.1,203.6,115.9,203.4,115.8 M201.6,98.8L201.6,98.8l-0.7,0.4v13.4l8-4.6l-8,4.6l0.7,0.3l7.5-0.9V97.8L201.6,98.8
	 M202.7,103.1c0.1-0.1,0.2-0.1,0.3-0.1c0.1,0,0.2,0,0.3,0c0.2,0.1,0.3,0.3,0.2,0.6c0,0.3-0.1,0.6-0.3,0.8c-0.1,0.3-0.3,0.5-0.6,0.7
	c-0.3,0.1-0.5,0.1-0.7,0c-0.1,0-0.1-0.1-0.1-0.1c0-0.1-0.1-0.2-0.1-0.4c0-0.3,0.1-0.6,0.2-0.9C202.3,103.4,202.5,103.2,202.7,103.1
	 M203,103c0.2,0.3,0.1,0.7-0.2,1.2c-0.2,0.4-0.5,0.7-0.9,0.8c0,0,0.1,0.1,0.1,0.1c0.2,0.1,0.4,0.1,0.7,0c0.2-0.1,0.4-0.4,0.6-0.7
	c0.2-0.3,0.3-0.5,0.3-0.8c0-0.3-0.1-0.5-0.2-0.6C203.3,103,203.1,103,203,103 M203.1,97.9l-1.4,0.8v0l7.5-1v-0.7L203.1,97.9
	 M201.6,98.1v0.7l1.4-0.8L201.6,98.1 M201,99.1l-0.5,0.3v20.7l0.1,0.3l0.5,0.2c-0.1-0.1-0.2-0.2-0.2-0.4v-5.1v5.1
	c0,0.2,0.1,0.3,0.2,0.4l0.4,0.1l0.1,0l3.9-2.2l-2.1-1.2c-0.1,0.3-0.3,0.5-0.6,0.7c-0.2,0.1-0.5,0.1-0.6,0c-0.1,0-0.1-0.1-0.2-0.2
	c-0.1-0.1-0.1-0.2-0.1-0.4c0-0.3,0.1-0.5,0.3-0.8c0.2-0.3,0.4-0.5,0.6-0.7c0.1-0.1,0.2-0.1,0.3-0.1c0.1,0,0.2,0,0.3,0.1
	c0.2,0.1,0.3,0.3,0.3,0.5c0,0.3-0.1,0.6-0.3,0.9l2.1,1.2l3.6-2.1v-3.8l-7.5,0.9l-0.7-0.3v0.7v-0.7v-0.7V99.1 M201,97.7v0.7l0.6,0.3
	l0,0v-0.7L201,97.7 M220.7,127.3c0,0.6-0.1,1-0.4,1.3l1.3-0.8L220.7,127.3 M223.3,128.8v-2l-1.7,1L223.3,128.8 M218.2,128.4v4.1
	c0,0.8-0.2,1.4-0.7,1.7l5-3c0.5-0.4,0.7-0.8,0.7-1.4v-0.2v-0.9l-1.7-1l-1.3,0.8c-0.1,0-0.1,0.1-0.2,0.1
	C219.5,128.9,218.9,128.8,218.2,128.4 M213.5,131.7c0.1,0.1,0.1,0.3,0.2,0.4c0.6,0.9,1.2,1.6,1.9,2c0.7,0.4,1.4,0.5,1.8,0.2h0.1
	c0.5-0.3,0.7-0.9,0.7-1.7v-4.1l-5.3-3.1v4.1C212.9,130.2,213.1,130.9,213.5,131.7l1.3-0.7h-0.1c-0.3-0.5-0.4-0.9-0.4-1.3
	c0-0.4,0.1-0.7,0.3-0.8c0.2-0.1,0.5-0.1,0.9,0.1c0.2,0.1,0.4,0.3,0.6,0.5l0.1,0.2c0.1,0.1,0.2,0.2,0.3,0.4c0.2,0.3,0.3,0.7,0.3,1
	c0,0.1,0,0.2,0,0.3c0,0.4-0.1,0.7-0.4,0.9c-0.2,0.1-0.5,0.1-0.9-0.1c-0.4-0.2-0.6-0.6-0.8-1L213.5,131.7 M213.3,92v-2.3l-3.6,2
	c-0.4,0.3-0.6,0.8-0.6,1.3v1.4L213.3,92 M215.7,89.3c-0.3-0.2-0.6-0.2-0.8-0.1c-0.2,0.1-0.3,0.3-0.3,0.7c0,0.4,0.1,0.7,0.3,1.1l0,0
	l0.7-0.4L215,91c0.2,0.4,0.5,0.7,0.8,0.9c0.3,0.2,0.6,0.2,0.8,0.1c0.2-0.1,0.3-0.3,0.2-0.7c0-0.4-0.1-0.7-0.3-1.1c0,0,0,0,0,0
	l-0.1-0.2c0,0,0-0.1-0.1-0.1l-0.1-0.1C216.1,89.5,215.9,89.4,215.7,89.3 M214.2,87.5L214.2,87.5l-0.1,0c-0.5,0.3-0.8,0.8-0.7,1.6
	v0.5V92l1.5-0.8c-0.3-0.4-0.4-0.9-0.4-1.4c0-0.4,0.1-0.7,0.4-0.8c0.2-0.2,0.5-0.1,0.9,0.1c0.2,0.1,0.4,0.4,0.6,0.6l0.1,0.1
	c0,0,0,0.1,0.1,0.1l0.1,0.2c0,0,0,0,0,0c0.3,0.4,0.4,0.9,0.4,1.3c0,0.4-0.1,0.7-0.3,0.9c-0.2,0.2-0.6,0.1-0.9-0.2
	c-0.4-0.2-0.7-0.6-0.9-1l-1.5,0.8v0.5l4.9,2.9v-3.4c0-0.8-0.2-1.6-0.7-2.4c-0.5-0.8-1.1-1.4-1.7-1.8
	C215.2,87.3,214.7,87.2,214.2,87.5 M221.8,86c-0.3-0.3-0.5-0.5-0.8-0.6c-0.5-0.3-1.1-0.4-1.7-0.4c-0.6,0-1.2,0.2-1.7,0.5l-3.5,2
	c0.4-0.2,1-0.2,1.6,0.2c0.7,0.4,1.3,1,1.7,1.8c0.5,0.8,0.7,1.6,0.7,2.4v3.4l4.5-2.6v-4.3C222.8,87.4,222.5,86.6,221.8,86
	 M231.4,92.5c-0.3-1.1-0.8-1.9-1.7-2.5l-7.5-4.3c-0.3-0.2-0.6-0.3-1-0.3H221v0c0.2,0.1,0.5,0.3,0.8,0.6c0.6,0.7,1,1.5,1,2.4v4.3
	l-4.5,2.6l-4.9-2.9V92l-4.2,2.4v2.8v0.7v14.1v0.6v3.8v4.2c0,0.8,0.2,1.5,0.7,2.3c0.5,0.8,1.1,1.4,1.7,1.8l1.4,0.7l5.3,3.1
	c0.7,0.4,1.3,0.4,1.8,0.2c0.1,0,0.1-0.1,0.2-0.1c0.3-0.3,0.4-0.7,0.4-1.3l0-0.1l-7.7-4.5l7.7,4.5v-0.1l0-28.4l-0.1-0.5
	c-0.4-1-0.9-1.7-1.7-2.1l-2.8-1.6l2.8,1.6c0.7,0.4,1.3,1.1,1.7,2.1l0.1,0.5l0,28.4c0,0.1,0,0.2,0,0.2l0.9,0.5l1.7-1l7.5-4.2
	c0.5-0.3,0.7-0.8,0.7-1.4l0-0.2V92.5 M222.2,96.6l6.9-4L222.2,96.6 M210,121.1l1.5,0.8L210,121.1 M220.4,78.2
	c-0.4-0.2-0.9-0.2-1.4,0.1l-16.5,9.5c-0.4,0.2-0.7,0.6-1,1c-0.3,0.5-0.4,1-0.4,1.5v7.4l8-4.7l-8,4.7l0.7,0.3l1.4-0.2l1.3-0.8
	l-1.3,0.8l6.1-0.8v-2.8v-1.4c0-0.5,0.2-1,0.6-1.3l3.6-2v-0.5c0-0.8,0.2-1.4,0.7-1.6h0.1l0,0l3.5-2c0.5-0.3,1.1-0.5,1.7-0.5
	c0.6,0,1.2,0.1,1.7,0.4v0v-1.5v-4.1C221,79,220.8,78.5,220.4,78.2 M218.1,83.1c-0.2,0.1-0.4,0.1-0.6,0c-0.1,0-0.1-0.1-0.1-0.2
	c0-0.1-0.1-0.2-0.1-0.4c0-0.3,0.1-0.6,0.2-0.9c0.2-0.3,0.4-0.5,0.6-0.7c0.1,0,0.3,0,0.4,0c0.1,0,0.2,0,0.2,0
	c0.2,0.1,0.3,0.2,0.3,0.5c0,0.3-0.1,0.6-0.2,0.9l1.1,0.6l-1.1-0.6h0C218.6,82.7,218.4,83,218.1,83.1 M203.9,90.9
	c0,0.3-0.1,0.6-0.3,0.8c-0.2,0.3-0.4,0.5-0.6,0.7c-0.3,0.1-0.5,0.2-0.7,0.1c-0.1,0-0.1-0.1-0.1-0.2c-0.1-0.1-0.1-0.2-0.1-0.3
	c0-0.3,0.1-0.6,0.2-0.9c0.2-0.3,0.4-0.5,0.7-0.6c0.1-0.1,0.2-0.1,0.3-0.1c0.1,0,0.2,0,0.3,0.1C203.8,90.4,203.9,90.6,203.9,90.9
	 M207.6,95.3l-1.6,0.9L207.6,95.3 M220.3,83.3l0.4,0.3L220.3,83.3 M203.6,91.7c0.2-0.3,0.3-0.5,0.3-0.8c0-0.3-0.1-0.5-0.3-0.6
	c-0.1-0.1-0.2-0.1-0.3-0.1c0.1,0.3,0.1,0.7-0.2,1.2c-0.3,0.4-0.6,0.7-0.9,0.8c0,0.1,0.1,0.2,0.1,0.2c0.2,0.1,0.4,0.1,0.7-0.1
	C203.2,92.2,203.4,92,203.6,91.7 M218.7,81c-0.1,0-0.1,0-0.2,0c0.1,0.3,0.1,0.7-0.2,1.2l0.5,0.2c0.2-0.3,0.2-0.6,0.2-0.9
	C219,81.3,218.9,81.1,218.7,81 M218.3,82.2L218.3,82.2c-0.2,0.4-0.5,0.7-0.9,0.8c0,0.1,0.1,0.1,0.1,0.2c0.2,0.1,0.4,0.1,0.6,0
	c0.3-0.2,0.5-0.4,0.6-0.7h0L218.3,82.2 M218.9,78.3c0.5-0.3,1-0.3,1.4-0.1l-0.5-0.3c-0.4-0.2-0.9-0.2-1.4,0L202,87.4
	c-0.4,0.2-0.8,0.6-1,1.1c-0.3,0.5-0.4,1-0.5,1.5v9.4l0.5-0.3v-0.7v-0.7v-7.4c0-0.5,0.1-1,0.4-1.5c0.3-0.4,0.6-0.8,1-1L218.9,78.3z"
	/>
<path class="st3" d="M216.8,131.1c0-0.1,0-0.2,0-0.2c0-0.3-0.2-0.6-0.4-1c-0.1-0.2-0.2-0.3-0.3-0.4l-0.1-0.2
	c-0.2-0.1-0.3-0.2-0.4-0.3c-0.3-0.2-0.6-0.2-0.8-0.1c-0.2,0.1-0.3,0.4-0.3,0.7c0,0.4,0.1,0.8,0.3,1.1l0.6-0.4l-0.6,0.4
	c0.2,0.4,0.5,0.7,0.8,0.8c0.3,0.2,0.6,0.2,0.8,0.1C216.7,131.7,216.8,131.4,216.8,131.1z"/>
<path id="Layer0_5_1_STROKES" class="st4" d="M153.9,2.6l7.9,9.8l0.3-0.2l1.6,1l0.1,0l0.1,0.1l1.7,1l1.1,4.3l8,10.1 M161.8,12.3
	l1.6,2l0.7,0.4l1.5-0.5 M163.9,13.3l-0.2-0.1 M164.1,14.8l0.2,0.8l2.4,2.9 M163.4,14.4l0.9,1.2 M177.4,38.7l0.1,0.1h0.1l6.4,3.7
	c0.4,0.2,0.8,0.6,1,1c0.3,0.4,0.4,0.9,0.4,1.4v1.9l0.9,0.5 M166.9,47.8l-8.8,5.1l1.2-0.4l0.4,0.2l1.1,2.3l9.2-5.3L166.9,47.8
	l6.5-3.8 M182.4,44.4l-9.5,5.4 M176,41.6l0.2-0.3 M168.4,34.1l0.5-2.6 M137.5,2.6l25.6,31.9l3.7-2.1 M178.1,54.1l3.4-1.9
	 M177.9,66.2l3.9-2.2 M169.9,54.1v-4.3 M159.6,52.8l-2,1.1l2,4.2l1.8-1.1l0.2,0l-0.9-1.9 M161.4,57l0.6,1.3 M155.7,55.9l1.5,3.2
	l2.3-1 M168.2,80.5l1.7-1.1v-4V54.1 M168.2,80.5l-7.9,4.7l1.1,8.4l1.1,0l0.7,1.2l0.5,4.1l-2,1.2l-2.7-0.1l-0.7-1.2l-0.5-4.1l1.5-0.8
	L155.3,63 M184.4,67.1l-10.7,6.2l-3.8,2.2 M185.5,59.1v-6.5 M236.1,64.9c-0.3,0-0.6,0.2-1,0.5c-0.3,0.2-0.6,0.6-0.8,1
	c-0.5,0.9-0.7,1.6-0.5,2.3 M236.9,67.3c0.2-0.5,0.3-1,0.3-1.4c0-0.4-0.2-0.8-0.5-0.9l-0.5-0.3c-0.4-0.2-0.8-0.1-1.2,0.1
	c-0.4,0.3-0.8,0.7-1.2,1.3c-0.3,0.6-0.5,1.2-0.5,1.7c0,0.5,0.2,0.9,0.5,1.1h0l0.5,0.3c0.3,0.1,0.6,0.1,1,0c0.4-0.2,0.8-0.5,1.1-0.9
	 M236.5,66.6c0-0.4-0.1-0.6-0.3-0.7c-0.2-0.1-0.5-0.1-0.7,0.1c-0.3,0.1-0.6,0.4-0.8,0.7c-0.2,0.4-0.3,0.7-0.3,1
	c0,0.4,0.1,0.6,0.3,0.7c0.2,0.1,0.5,0.1,0.8-0.1 M218.3,82.2c0.3-0.5,0.3-0.9,0.2-1.2c-0.1,0-0.3,0-0.4,0c-0.2,0.1-0.4,0.4-0.6,0.7
	c-0.1,0.3-0.2,0.6-0.2,0.9c0,0.1,0,0.3,0.1,0.4C217.8,82.9,218.1,82.6,218.3,82.2L218.3,82.2z M218.8,82.5c0.2-0.3,0.2-0.6,0.2-0.9
	c0-0.3-0.1-0.5-0.3-0.5c-0.1,0-0.1,0-0.2,0 M218.8,82.5L218.8,82.5c-0.2,0.3-0.4,0.5-0.7,0.7c-0.2,0.1-0.4,0.1-0.6,0
	c-0.1,0-0.1-0.1-0.1-0.2 M201,98.5v-0.7v-7.4c0-0.5,0.1-1,0.4-1.5c0.3-0.4,0.6-0.8,1-1l16.5-9.5c0.5-0.3,1-0.3,1.4-0.1l-0.5-0.3
	c-0.4-0.2-0.9-0.2-1.4,0L202,87.4c-0.4,0.2-0.8,0.6-1,1.1c-0.3,0.5-0.4,1-0.5,1.5v9.4 M201,99.1v-0.7l0.6,0.3 M201.6,98.7v-0.7
	l-0.7-0.3l8-4.7 M221,85.4v-1.5v-4.1c0-0.7-0.2-1.2-0.7-1.5 M246.8,71.9l0,0.3c0,0.4-0.1,0.9-0.3,1.3c-0.3,0.5-0.6,0.8-1,1l-0.2,0.1
	l-0.8,0.3l-1.2-0.7c-0.2-0.4-0.3-0.8-0.3-1.3l-2.2-1.3l-0.6-0.3l-0.4-0.2l-0.4-0.2l-0.5-0.2c-0.2-0.1-0.2-0.3-0.2-0.6
	c0-0.3,0.1-0.5,0.3-0.8c0.2-0.3,0.4-0.6,0.6-0.7c0.3-0.2,0.5-0.2,0.6-0.1v0l0.5,0.2l0.4,0.2l0.5,0.3l0.4,0.2l0,0v0l2.1,1.3l1.2-0.4
	l1.2,0.7L246.8,71.9c-0.1-0.2-0.2-0.3-0.3-0.4c-0.3-0.1-0.6-0.1-0.9,0.1c-0.4,0.2-0.6,0.5-0.9,0.9c-0.2,0.4-0.3,0.8-0.3,1.2
	c0,0.1,0,0.2,0,0.4l0,0.1c0.1,0.2,0.1,0.3,0.2,0.3c0.2,0.1,0.4,0.1,0.7,0.1 M243,72.9c0-0.1,0-0.1,0-0.2l1-1.8l0.2,0 M239.2,70.1
	c0,0.4,0,0.7,0.3,0.8 M241.1,69c-0.2,0-0.4,0-0.6,0.1c-0.2,0.2-0.5,0.4-0.6,0.7c-0.2,0.3-0.2,0.6-0.3,0.9c0,0.2,0.1,0.4,0.2,0.5
	 M242.1,69.6L242.1,69.6c-0.2-0.1-0.4-0.1-0.7,0c-0.2,0.2-0.4,0.4-0.6,0.7c-0.2,0.3-0.2,0.6-0.3,0.9c0,0.2,0.1,0.4,0.2,0.5
	 M241.6,69.3c-0.3-0.2-0.6-0.1-0.9,0.3 M240.7,68.7c-0.3-0.1-0.6,0-0.9,0.3 M244.5,74.9c0-0.2,0-0.5-0.1-0.7 M246.6,71.2l-1.4,0.4
	l-1.1,1.8c0.1,0.2,0.2,0.4,0.3,0.7 M243,72.8l1.2,0.7 M240.1,70.7c0,0.3,0,0.5,0.1,0.6 M245.2,71.6l-1.2-0.7 M123.2,42.1l6.4,7.9
	 M155.6,56.2l0.6,1.3l0.6,1.3l0.2,0.1l0.1,0.1 M156.9,60.5l-1-2.7l-0.5-1.2 M154.2,59.5l0.6,1.7 M156.2,57.6l-0.3,0.2 M123.2,46.6
	l5.1,6.3 M123.2,43.6l5.6,6.9 M151,130.2c0.2-0.2,0.4-0.5,0.4-0.9c0-0.4-0.1-0.9-0.4-1.3c-0.2-0.4-0.5-0.8-0.9-1
	c-0.4-0.2-0.7-0.3-1-0.2l-0.2,0.1c0.3-0.1,0.7,0,1.1,0.4 M149.1,126.8l0.3-0.1h0l0,0l0.2-0.2h0.7l0.2-0.1h0.6l0.5,0.2
	c0.3,0.1,0.5,0.3,0.6,0.6c0.2,0.3,0.3,0.7,0.2,1l0,0.3l-0.1,0.3l-0.3,0.5l-0.1,0v0c-0.1,0.3-0.2,0.5-0.4,0.6h-0.1l-0.1,0
	c0,0,0,0,0,0h0c0,0,0,0.1-0.1,0.1l-0.2,0.1h-0.1l-0.2,0.2c0,0.5-0.1,1-0.3,1.6l-1.1,0.7h-0.1l-0.9-0.1l-0.2-0.1
	c-0.1,0-0.2-0.1-0.3-0.1l-2.6,1.6c-0.4,0.2-0.7,0.3-1.1,0.3c-0.4,0-0.9-0.1-1.2-0.4c-0.4-0.3-0.6-0.6-0.8-1l-2.3-4.9c0,0,0,0-0.1,0
	c0-0.2,0.1-0.3,0.3-0.5l0-0.2l-0.3-0.6v0c0-0.1,0.1-0.2,0.3-0.4l-0.1-0.3c0,0,0-0.1,0-0.1l0.1-0.4v0c0-0.2,0.3-0.3,0.8-0.5
	c0.6-0.3,0.9-0.3,1-0.2l0.4,0.1c0,0,0,0.1,0,0.1l0.1,0.2c0.3-0.1,0.5-0.1,0.5,0h0l0.2,0.6l0.2,0.2c0.3,0,0.5,0,0.5,0.1v0l0,0
	l1.3,2.7l0.5-0.3c0-0.1,0-0.2,0-0.2c0.1-0.1,0.1-0.2,0.2-0.4l0.3-0.8l1.1-0.7c0.6,0.1,1.1,0.3,1.6,0.5l0.5,0.3
	c0.3,0.4,0.6,0.8,0.8,1.2c0.3,0.4,0.5,0.8,0.6,1.3v0.6c0.4-0.3,0.4-0.8,0.2-1.5 M149.4,127.3l-1.2,0.6c0.2,1,0.7,1.8,1.5,2.5
	l1.1-0.6 M149.3,131.5c0-0.1,0-0.1,0-0.2c0-0.6-0.2-1.3-0.6-1.9c-0.4-0.7-0.8-1.2-1.3-1.5c-0.5-0.3-0.9-0.4-1.3-0.2
	c-0.1,0.1-0.2,0.2-0.3,0.3 M146.5,128.3l-0.2,0.1c0.1,0.1,0.2,0.1,0.4,0.2c0.4,0.2,0.8,0.6,1.1,1.2c0.3,0.6,0.5,1.1,0.5,1.6
	c0,0.2,0,0.3,0,0.4l0.2,0v-0.1c0.3-0.1,0.4-0.4,0.4-0.8c0-0.4-0.2-0.9-0.5-1.3c-0.2-0.5-0.5-0.8-0.9-1.1
	C147.1,128.3,146.8,128.2,146.5,128.3z M145.6,128.5c0.2-0.1,0.4-0.1,0.7-0.1 M148.2,131.8c0,0.3-0.1,0.5-0.3,0.6 M149.3,131.9
	c0,0.2,0,0.5,0.1,0.8 M148.4,132.5c0.2,0,0.3,0,0.4-0.1c0.2-0.1,0.4-0.3,0.4-0.5c0-0.2,0.1-0.3,0.1-0.4c0.1-0.3,0.2-0.7,0.3-1
	 M145.3,129.3l-0.2-0.5 M146.1,127.1c0.6,0.4,1.3,0.7,2,0.8 M150.5,126.5c0.5,0,0.9,0.4,1.3,1.1c0.4,0.6,0.4,1.2,0.2,1.6
	c0,0,0,0.1,0,0.1 M152,129.2c0.1-0.4-0.1-1-0.4-1.6c-0.3-0.6-0.7-0.9-1.1-1.1c0,0-0.1,0-0.1,0 M151.1,126.4c0.4,0.2,0.7,0.5,1,1
	c0.2,0.4,0.3,0.8,0.4,1.2 M150.8,130.3L150.8,130.3 M151.4,130c0.4-0.2,0.4-0.7,0.2-1.5 M149.4,126.7c0.3-0.2,0.7,0,1.2,0.3
	 M139.6,126.6c0.1,0.1,0.3,0.1,0.6,0.1c0.4-0.1,0.8-0.2,1.2-0.4c0.5-0.2,0.8-0.4,1.1-0.6c0.2-0.2,0.4-0.4,0.3-0.6 M143.2,125.9
	l0.1,0.4c0.1,0.2-0.4,0.6-1.4,1.1c-0.4,0.2-0.8,0.3-1.1,0.4c-0.4,0.1-0.6,0-0.6-0.1l-0.2-0.3 M139.9,126.2l0.1,0.2
	c0.1,0.2,0.5,0.1,1.3-0.2c0.3-0.2,0.6-0.3,0.8-0.5c0.2-0.2,0.2-0.3,0.2-0.4l-0.1-0.2 M139.7,127.9c0.1,0.1,0.3,0.1,0.7,0
	c0.4-0.1,1-0.2,1.5-0.5c0.6-0.3,1-0.5,1.4-0.8c0.3-0.2,0.5-0.4,0.4-0.6 M139.9,127.2c0.2,0.2,0.7,0.1,1.7-0.4c1-0.5,1.5-0.9,1.4-1.2
	 M141.7,124.6c0,0.2-0.2,0.4-0.8,0.7c-0.6,0.2-1,0.3-1,0.1v0 M139.8,125.8c0.1,0.2,0.5,0.2,1.3-0.2c0.7-0.4,1.1-0.6,1.1-0.8
	 M123.2,97.1l15.1-8.7 M223.3,126.8l7.5-4.2c0.5-0.3,0.7-0.8,0.7-1.4l0-0.2V92.5c-0.3-1.1-0.8-1.9-1.7-2.5l-7.5-4.3
	c-0.3-0.2-0.6-0.3-1-0.3H221v0c0.2,0.1,0.5,0.3,0.8,0.6c0.6,0.7,1,1.5,1,2.4v4.3l-4.5,2.6l-4.9-2.9V92 M209.2,94.4v2.8v0.7v14.1v0.6
	v3.8v4.2c0,0.8,0.2,1.5,0.7,2.3c0.5,0.8,1.1,1.4,1.7,1.8l1.4,0.7l5.3,3.1c0.7,0.4,1.3,0.4,1.8,0.2c0.1,0,0.1-0.1,0.2-0.1
	c0.3-0.3,0.4-0.7,0.4-1.3 M221,85.4c-0.5-0.3-1.1-0.4-1.7-0.4c-0.6,0-1.2,0.2-1.7,0.5l-3.4,2.1c0.4-0.2,1-0.2,1.6,0.2
	c0.7,0.4,1.3,1,1.7,1.8c0.5,0.8,0.7,1.6,0.7,2.4v3.4 M214.2,87.5L214.2,87.5l-0.2,0c-0.5,0.3-0.8,0.8-0.7,1.6v0.5V92 M214.8,91.1
	c-0.3-0.4-0.4-0.9-0.4-1.4c0-0.4,0.1-0.7,0.4-0.8c0.2-0.2,0.5-0.1,0.9,0.1c0.2,0.1,0.4,0.4,0.6,0.6l0.1,0.1c0,0,0,0.1,0.1,0.1
	l0.1,0.2c0,0,0,0,0,0c0.3,0.4,0.4,0.9,0.4,1.3c0,0.4-0.1,0.7-0.3,0.9c-0.2,0.2-0.6,0.1-0.9-0.2C215.4,91.9,215.1,91.6,214.8,91.1z
	 M215,91L215,91c-0.3-0.4-0.4-0.8-0.4-1.1c0-0.4,0.1-0.6,0.3-0.7c0.2-0.1,0.5-0.1,0.8,0.1c0.2,0.1,0.4,0.3,0.5,0.5 M215,91
	c0.2,0.4,0.5,0.7,0.8,0.9c0.3,0.2,0.6,0.2,0.8,0.1c0.2-0.1,0.3-0.3,0.2-0.7c0-0.4-0.1-0.7-0.3-1.1 M220.6,127.1l0-28.4l-0.1-0.5
	c-0.4-1-0.9-1.7-1.7-2.1l-2.8-1.6 M222.2,96.6l6.9-4 M213.5,131.7c0.1,0.1,0.1,0.3,0.2,0.4c0.6,0.9,1.2,1.6,1.9,2
	c0.7,0.4,1.4,0.5,1.8,0.2h0.1c0.5-0.3,0.7-0.9,0.7-1.7v-4.1 M212.9,125.3v4.1c0,0.7,0.2,1.5,0.6,2.2 M214.7,130.9L214.7,130.9
	c-0.3-0.5-0.5-0.9-0.5-1.3c0-0.4,0.1-0.7,0.3-0.8c0.2-0.1,0.5-0.1,0.9,0.1c0.2,0.1,0.4,0.3,0.6,0.5l0.1,0.2c0.1,0.1,0.2,0.2,0.3,0.4
	c0.2,0.3,0.3,0.7,0.3,1c0,0.1,0,0.2,0,0.3c0,0.4-0.1,0.7-0.4,0.9c-0.2,0.1-0.5,0.1-0.9-0.1C215.2,131.7,214.9,131.4,214.7,130.9z
	 M214.9,130.8c-0.2-0.4-0.3-0.8-0.3-1.1c0-0.4,0.1-0.6,0.3-0.7c0.2-0.1,0.5,0,0.8,0.1c0.1,0.1,0.2,0.2,0.4,0.3 M214.9,130.8
	c0.2,0.4,0.5,0.7,0.8,0.8c0.3,0.2,0.6,0.2,0.8,0.1c0.2-0.1,0.3-0.3,0.3-0.7c0-0.1,0-0.2,0-0.2c0-0.3-0.2-0.6-0.4-1
	c-0.1-0.2-0.2-0.3-0.3-0.4 M223.3,128.8v-2l-1.7,1 M220.7,127.3c0,0,0-0.1,0-0.2L220.7,127.3 M221.6,127.7l-1.3,0.8 M217.5,134.2
	l5-3c0.5-0.4,0.7-0.8,0.7-1.4 M223.3,129.6v-0.9 M248,141.5l0.4,0.2c0,0,0,0,0.1,0h0l0.4,0.2h0l0.3,0.2l2.3,1.3l1.2-0.3l1.2,0.7
	l0.2,0.7c0,0,0,0,0,0.1c0,0,0.1,0.1,0.1,0.2c0,0.4-0.1,0.8-0.4,1.3c-0.3,0.5-0.6,0.8-1,1c-0.1,0-0.2,0.1-0.2,0.1l-0.8,0.3l-1.2-0.7
	c-0.2-0.4-0.3-0.8-0.3-1.2l-2.2-1.2l-0.4-0.3l-0.5-0.3l-0.5-0.2l-0.4-0.3c-0.2-0.2-0.2-0.4-0.2-0.6c0-0.2,0.1-0.5,0.2-0.8
	c0.2-0.3,0.4-0.5,0.6-0.7c0.2-0.1,0.4-0.1,0.6,0L248,141.5c-0.3-0.2-0.6-0.1-0.9,0.3 M244.3,140.1c0.2-0.5,0.3-1,0.3-1.4
	c-0.1-0.4-0.3-0.7-0.6-0.9v0l-0.5-0.3c-0.3-0.1-0.7-0.1-1.2,0.2c-0.4,0.3-0.8,0.7-1.2,1.3c-0.3,0.6-0.5,1.1-0.5,1.7
	c0,0.6,0.2,0.9,0.5,1.1l0.5,0.3c0.3,0.2,0.6,0.2,1,0c0.4-0.2,0.7-0.5,1.1-0.9 M243.4,137.7c-0.7,0.1-1.3,0.6-1.9,1.5
	c-0.5,0.9-0.6,1.7-0.4,2.3 M243.9,139.3c0-0.4-0.1-0.6-0.3-0.7c-0.2-0.1-0.4-0.1-0.7,0c-0.3,0.2-0.5,0.4-0.7,0.8
	c-0.2,0.4-0.3,0.7-0.3,1.1c0,0.3,0.1,0.5,0.3,0.6c0.2,0.2,0.5,0.1,0.8-0.1 M250.3,145.7c0-0.1,0-0.1,0-0.2l1-1.8l0.3-0.1
	 M248.4,141.8c-0.2-0.1-0.3,0-0.5,0.1c-0.2,0.1-0.5,0.3-0.6,0.7c-0.1,0.3-0.2,0.6-0.3,0.8c0,0.3,0.1,0.4,0.3,0.5 M249.3,142.2
	c-0.1,0-0.3,0-0.5,0.1c-0.2,0.2-0.4,0.4-0.6,0.7c-0.2,0.3-0.3,0.5-0.3,0.8c0,0.2,0.1,0.4,0.2,0.6 M246.5,142.9
	c-0.1,0.4,0,0.6,0.2,0.8 M247.5,143.4c-0.1,0.4,0,0.6,0.2,0.8 M251.8,147.6c0-0.6-0.2-1-0.3-1.4l-1.2-0.7 M254.1,144.7
	c-0.1-0.2-0.2-0.3-0.3-0.4c-0.2-0.2-0.5-0.1-0.9,0.1c-0.3,0.2-0.6,0.5-0.9,0.9c-0.2,0.4-0.3,0.8-0.3,1.2c0,0.4,0.1,0.7,0.3,0.8
	c0.1,0.1,0.3,0.1,0.6,0.1 M248.9,142c-0.2-0.1-0.6,0-0.9,0.4 M251.3,143.7l1.2,0.7l1.4-0.4 M251.5,146.2l1-1.8 M203.2,90.3
	c0.1,0,0.2,0,0.3,0.1c0.2,0.1,0.3,0.3,0.3,0.6c0,0.3-0.1,0.6-0.3,0.8c-0.2,0.3-0.4,0.5-0.6,0.7c-0.3,0.1-0.5,0.2-0.7,0.1
	c-0.1,0-0.1-0.1-0.1-0.2c-0.1-0.1-0.1-0.2-0.1-0.3c0-0.3,0.1-0.6,0.2-0.9c0.2-0.3,0.4-0.5,0.7-0.6C203.1,90.3,203.2,90.3,203.2,90.3
	c0.1,0.3,0.1,0.7-0.2,1.2c-0.3,0.4-0.6,0.7-0.9,0.8 M201.6,98.1l1.4-0.2 M201.6,98.7L201.6,98.7l7.5-0.9 M201.6,98.8L201.6,98.8
	 M201,99.1v13.4l8-4.6 M213.3,89.6l-3.6,2c-0.4,0.3-0.6,0.8-0.6,1.3v1.4 M209.2,97.1l-6.1,0.8 M203,103c-0.1,0-0.2,0-0.3,0.1
	c-0.2,0.1-0.5,0.3-0.7,0.6c-0.2,0.3-0.2,0.6-0.2,0.9c0,0.2,0,0.3,0.1,0.4c0.4-0.1,0.7-0.4,0.9-0.8C203.1,103.7,203.2,103.3,203,103
	c0.1,0,0.2,0,0.3,0c0.2,0.1,0.3,0.3,0.2,0.6c0,0.3-0.1,0.6-0.3,0.8c-0.1,0.3-0.3,0.5-0.6,0.7c-0.3,0.1-0.5,0.1-0.7,0
	c-0.1,0-0.1-0.1-0.1-0.1 M201,114v-0.7v-0.7l0.7,0.3l7.5-0.9 M203.1,115.8c0.1,0,0.2,0,0.3,0.1c0.2,0.1,0.3,0.3,0.3,0.5
	c0,0.3-0.1,0.6-0.3,0.9 M205.6,118.5l3.6-2.1 M202,117.8c-0.1-0.1-0.1-0.2-0.1-0.4c0-0.3,0.1-0.5,0.3-0.8c0.2-0.3,0.4-0.5,0.6-0.7
	c0.1-0.1,0.2-0.1,0.3-0.1c0.2,0.4,0.1,0.8-0.2,1.2 M203.4,117.3c-0.1,0.3-0.3,0.5-0.6,0.7c-0.2,0.1-0.5,0.1-0.6,0
	c-0.1,0-0.1-0.1-0.2-0.2c0.4,0,0.7-0.3,0.9-0.8l0,0 M201,113.2l0.7,0.3v-0.7 M209.2,112.6l-7.5,0.9 M163.1,94.8l-1.9,1.1l0.5,4.1
	 M161.5,94.9l-0.2-1.4 M159.2,93.7l0.2,1.4 M158.9,99.9l-0.5-4l-0.7-1.3 M161.1,95.9l-2.7-0.1 M159.5,124.6c0.6,0.5,1.1,0.5,1.5,0.2
	c0.6-0.5,0.5-1.4-0.1-2.5c-0.7-1.2-1.5-1.7-2.2-1.4c-0.7,0.2-0.8,0.9-0.5,2l0.2,0.5c-0.4-0.9-0.4-1.6,0-2.1c-0.2,0.6,0,1.2,0.3,1.9
	l-0.3,0.2 M158.9,123.9l-0.1-0.1l0.3-0.2c0.4,0.6,0.9,1,1.5,1.1c-0.3,0-0.6,0-0.9-0.2l-0.2-0.1l-0.1-0.1l-0.2-0.2v0.1
	c0,0,0.1,0.1,0.2,0.2l0.1,0.1c0,0,0.1,0.1,0.1,0.1c0.4,0.4,0.9,0.6,1.3,0.6h0.1c0.2,0,0.4-0.1,0.5-0.3c0,0,0.1-0.1,0.1-0.1
	c0.6-0.7,0.5-1.7-0.3-2.9c-0.9-1.3-1.7-1.8-2.4-1.4c-0.7,0.3-0.9,1.1-0.4,2.3 M159.2,124.2L159,124c0,0,0,0,0-0.1 M159.3,124.4
	c0,0-0.1-0.1-0.1-0.1c0,0,0,0,0,0v0 M170.3,147.4c-0.1,0.1-0.1,0.2-0.1,0.3c0,0.2,0.1,0.3,0.3,0.5c0.2,0.1,0.5,0.2,0.8,0.2
	c0.3,0,0.5-0.1,0.8-0.2c0.2-0.1,0.3-0.3,0.3-0.5c0-0.1,0-0.1-0.1-0.2l-0.1-0.1h0c-0.2-0.2-0.5-0.3-0.9-0.3
	C170.9,147.1,170.5,147.2,170.3,147.4l-0.4,0.4l-0.3,0.6c0,0.2,0.2,0.4,0.5,0.6c0.3,0.2,0.7,0.3,1.2,0.3s0.8-0.1,1.2-0.3
	c0.3-0.2,0.4-0.3,0.4-0.5v-0.2l-0.3-0.5l-0.3-0.2 M169.6,148.5l0,0.2c0,0.2,0.2,0.5,0.5,0.7c0.3,0.2,0.7,0.3,1.1,0.3
	c0.5,0,0.9-0.1,1.2-0.3c0.3-0.2,0.5-0.5,0.5-0.7l0-0.2l0.4,0.6v0.3c0.2,0.2,0.3,0.5,0.3,0.8v0v0.8l1-0.5c0.6,0.1,1.1,0.2,1.6,0.5
	l0.2-0.1h0.1l0.2-0.2l0.3-0.2h0.6l0.2-0.1l0.7,0l0.1,0l0.4,0.2c0.2,0.1,0.4,0.3,0.6,0.6c0.2,0.3,0.3,0.6,0.3,0.9l-0.1,0.3l0,0.3
	l-0.4,0.5l-0.1,0.1c-0.1,0.2-0.2,0.4-0.5,0.5c0,0,0,0.1-0.1,0.1c0,0,0,0-0.1,0l-0.1,0.1l-0.2,0.1h-0.1l-0.2,0.1
	c0,0.5-0.1,1.1-0.4,1.6l-1.1,0.6h0l-0.9-0.1l-0.6-0.2h0l-0.3,0.3l-1.5,0.8c-0.4,0.3-0.9,0.4-1.4,0.4c-0.8,0-1.5-0.3-2-0.8
	c-0.6-0.6-0.9-1.3-0.9-2.1v-4.8v-0.1c0-0.3,0.1-0.6,0.4-0.8v-0.2v-0.1C169.3,148.9,169.4,148.7,169.6,148.5v-0.1 M171.9,147.8
	c0,0.3-0.2,0.4-0.7,0.4c-0.5,0-0.7-0.1-0.7-0.4c0-0.3,0.2-0.4,0.7-0.4C171.7,147.4,171.9,147.5,171.9,147.8z M201.7,120.7l3.9-2.2
	 M201.1,120.6c-0.1-0.1-0.2-0.2-0.2-0.4v-5.1 M200.5,99.4v20.7l0.1,0.3l0.5,0.2l0.4,0.1 M185.8,147.3l-0.2-0.5
	c-0.4-1.2-0.3-2,0.4-2.3c0.8-0.4,1.6,0.1,2.5,1.4c0.8,1.2,0.9,2.2,0.4,2.9c0,0,0,0-0.1,0.1c-0.3,0.3-0.6,0.4-0.9,0.3
	c-0.1,0-0.2-0.1-0.4-0.2c-0.1,0-0.1-0.1-0.2-0.1c-0.1-0.1-0.2-0.1-0.3-0.2 M186.4,148.2C186.3,148.2,186.3,148.2,186.4,148.2
	C186.3,148.1,186.3,148.1,186.4,148.2c-0.1-0.1-0.1-0.1-0.1-0.2v0l-0.1-0.1v0l0.3-0.2c0.4,0.6,0.9,1,1.5,1.2c-0.3,0-0.6,0-0.9-0.2
	l-0.2-0.1l-0.3-0.2l0.2,0.2c0.1,0.1,0.2,0.1,0.2,0.2c0.3,0.2,0.7,0.3,1,0.3c0.2,0,0.3-0.1,0.4-0.2c0.6-0.5,0.6-1.3-0.1-2.5
	c-0.7-1.2-1.4-1.7-2.2-1.4c-0.7,0.2-0.8,0.9-0.5,2 M186.3,148L186.3,148L186.3,148l-0.1-0.1 M186.4,148.2l0.2,0.2l-0.3-0.3
	 M185.8,147.3c-0.3-0.9-0.3-1.6,0-2.1c-0.2,0.6-0.1,1.2,0.3,1.9L185.8,147.3z M179.3,153.3c0-0.5-0.1-1.1-0.4-1.6
	c-0.3-0.5-0.7-0.9-1.1-1.1c0.4,0,0.9,0.4,1.3,1C179.4,152.2,179.4,152.8,179.3,153.3c0,0,0,0.1,0,0.1 M178.3,154.3
	c0.2-0.2,0.3-0.5,0.3-0.9c0-0.4-0.1-0.9-0.4-1.3c-0.3-0.5-0.6-0.8-1-1.1c-0.3-0.2-0.6-0.3-0.9-0.1 M178.8,153.9
	c0.2-0.3,0.2-0.7,0.1-1.4 M179.8,152.5c0-0.4-0.1-0.7-0.3-1.1c-0.3-0.5-0.6-0.8-0.9-0.9 M178,154.4v-0.1v-0.6l-1.1,0.7
	c-0.2,0.3-0.2,0.6-0.3,1c0,0.1,0,0.3-0.1,0.4c0,0.2,0,0.5,0,0.8 M178,154.3c0.4-0.3,0.4-0.8,0.2-1.5 M175.5,152l1.2-0.7l-0.5-0.3h0
	 M177.3,151.4c-0.4-0.4-0.8-0.5-1.2-0.4 M173.6,151.6v0.9l0.2-0.1c0.2-0.1,0.5-0.1,0.9,0.1c0.4,0.2,0.7,0.6,0.9,1
	c0.2,0.4,0.4,0.9,0.4,1.3c0,0.4-0.1,0.7-0.3,0.8l-0.5,0.4c0,0.1-0.1,0.2-0.1,0.3 M176,153.3L176,153.3l0.1,0.1
	c0.2,0.4,0.5,0.7,0.8,1 M178,153.8c-0.1-0.4-0.3-0.8-0.6-1.3c-0.3-0.5-0.6-0.9-0.8-1.2 M175.5,152c0.2,0.5,0.3,0.9,0.5,1.4
	c-0.4-0.6-0.8-1.1-1.2-1.4c-0.5-0.3-0.9-0.4-1.2-0.4v-0.3V151 M169.3,150c0,0.2,0.2,0.4,0.6,0.6c0.4,0.2,0.8,0.4,1.4,0.4
	s1-0.1,1.4-0.4c0.4-0.2,0.6-0.4,0.6-0.6v-0.5c0,0.2-0.2,0.4-0.6,0.6c-0.4,0.2-0.8,0.3-1.4,0.3c-0.5,0-1-0.1-1.3-0.3
	c-0.4-0.2-0.6-0.5-0.6-0.8 M173.2,149.9v0.3c0,0.3-0.2,0.5-0.6,0.8c-0.4,0.2-0.8,0.3-1.4,0.3c-0.5,0-1-0.1-1.3-0.3
	c-0.4-0.2-0.6-0.4-0.6-0.7V150v-0.6 M168.9,150.3c0,0.4,0.3,0.7,0.7,0.9c0.4,0.3,1,0.4,1.6,0.4c0.6,0,1.2-0.1,1.6-0.4
	c0.4-0.3,0.7-0.6,0.7-0.9 M172.8,153.6l-1.1,0.6c-0.4,0.3-0.6,0.6-0.6,1v1.6c0,0.3,0.1,0.5,0.3,0.7c0.2,0.2,0.4,0.3,0.7,0.3
	c0.1,0,0.3,0,0.5-0.1l1.8-1.1c0.3-0.2,0.4-0.5,0.5-0.8v-1c0-0.2-0.1-0.3-0.3-0.3l-0.1,0l-0.4,0.2h-0.2c-0.2,0-0.3-0.1-0.3-0.3v-0.4
	c0-0.4-0.2-0.6-0.6-0.6C172.9,153.5,172.8,153.6,172.8,153.6z M173.7,153.8l-0.1-0.4v-0.5v-0.4 M176.6,155.4c0-0.1,0-0.1,0-0.2
	c0-0.6-0.2-1.2-0.6-1.8 M175.2,156.1c0.1-0.6-0.1-1.2-0.5-2c-0.3-0.5-0.7-0.9-1.1-1.2 M175.6,156.6c0.2,0,0.3,0,0.5-0.1
	c0.2-0.1,0.3-0.3,0.4-0.5 M173.6,151.3c0.6,0.4,1.2,0.6,1.9,0.7 M177.9,151c-0.5-0.4-0.9-0.5-1.2-0.3 M160.3,85.1l-2.8-22.4
	 M146.3,2.6L167,28.4 M147.5,2.6l20.4,25.3 M139.4,63.4l34.1-19.7 M167.6,33.3l-32.8,18.9 M134.3,55l32.7-19 M163.1,34.5L134,51.3
	 M139.2,63.8L158,52.9 M149.8,74.7v15.8 M157.7,60.3l-0.6-1.3 M157.6,53.9l-1.3,0.6"/>
<path id="Layer0_5_2_STROKES" class="st5" d="M174.8,57l1.4,0.8 M167.9,52.9l2,1.1l3.5,2.1 M168.2,80.5l0.2,0.1 M159.8,75.7l5.7,3.3
	 M167,79.8l1.2,0.7 M167.5,69.7l1.7,0.9 M177.5,75.4l-3.8-2.1l-2.9-1.7 M159.2,64.9l6.6,3.9 M193,67.4l11.2,6.5 M205.6,74.7l1.4,0.8
	 M190.2,65.8l1.4,0.8 M177.6,58.6l11.2,6.5 M227.6,62.6l0.9,0.5 M236.7,67.8l-1.2-0.7 M229.5,63.7l3.8,2.2 M222.9,73.5v-2.3
	 M218.1,82.1l0.2,0.1l0.5,0.2 M200.5,99.4l0.5-0.3 M201.6,98.8L201.6,98.8 M218.8,82.5l1.1,0.6 M236.9,67.9l0.2,0.2 M237.4,68.2
	l1,0.6 M222.9,69v-9.1l3.8,2.2 M208.4,76.4l5.6,3.2 M154.9,89.3l0.6,0.3 M151.8,87.4l2.5,1.4 M154.5,125.9l-0.3,0.1 M155.8,125.2
	l-1.1,0.6 M154,126.3l-1,0.6 M213.3,92l-4.2,2.4 M220.7,127.3L220.7,127.3l-7.8-4.6 M221,83.8l1.8,1v-9.1 M213.3,92l1.5-0.8L215,91
	l0.7-0.4 M225.9,130.2l1.5,0.8 M213.5,131.7l1.3-0.7l0.2-0.1l0.6-0.4 M221.6,127.7l1.7,1l1.2,0.7 M220.7,127.3l0.9,0.5 M242.8,139.9
	l1.2,0.7l0.4,0.2 M244.7,141l1.1,0.6 M228.8,131.9l11.5,6.7 M204.4,97.1l-1.3,0.8l-1.4,0.8 M201.6,98.8l-0.6,0.4 M207.6,95.3
	l-1.6,0.9 M189.8,105.5l-1.6,0.9 M190.1,109.5l1.7,0.9 M188.4,108.6l-1.9-1.1l-12.8,7.3 M205.6,118.5l-2.1-1.2l-0.5-0.3
	 M193.4,111.5l6.7,3.9 M200.5,99.4l-9,5.2 M171.7,98.9l1.7,1 M163.4,94.2l6.7,3.8 M162.4,121.4l6.2-3.6h0.3 M158.5,123.6l0.3-0.2
	 M159.1,123.3l1.3-0.7 M183.1,149.2l-1.1,0.6 M205.6,118.5l3,1.7 M210,121.1l1.5,0.8 M186.4,147.3l1.3-0.7 M185.8,147.7l0.3-0.2
	 M196.3,141.6l-1.2,0.7 M193.9,143l-4.8,2.8 M209.6,133.9l-1.2,0.7 M207.1,135.3l-9.6,5.6 M184.2,148.5l1.2-0.7 M175.1,100.9
	l11.4,6.6 M172.1,115.8l-1.6,0.9 M181.8,150l-0.3,0.1 M181.3,150.3l-1,0.6 M213.5,131.7l-2.7,1.6 M156.9,124.5l1.3-0.7 M220.3,83.3
	l0.4,0.3 M169.8,81.5l5.8,3.3 M156.1,89.9l2.5,1.4"/>
<path id="Layer0_5_3_STROKES" class="st6" d="M236.4,68.3l0.3-0.5l0.2-0.5 M223.3,129.8v-0.2 M243.7,141.1l0.2-0.5l0.3-0.5
	 M201.6,120.7l0.1,0"/>
<path id="Layer0_5_MEMBER_0_1_STROKES" class="st4" d="M150.6,90.8l7.6-4.4"/>
<path d="M176.3,85.4c-1.3,2.3-1.3,3.9,0,4.8c1.1,0.8,2.3,0.3,3.7-1.3c-1.2,1.4-2.3,1.8-3.2,0.9c-1-0.9-0.9-2.4,0.3-4.4
	c1.2-1.9,2.4-2.6,3.7-2.2c1.2,0.4,1.4,1.8,0.4,4l0.2-0.3c1-2.6,0.7-4.1-0.9-4.4C178.9,82.2,177.5,83.2,176.3,85.4z"/>
<path id="Layer0_5_MEMBER_2_1_STROKES" class="st4" d="M180.5,88.2l-0.6,0.7c-1.4,1.6-2.6,2.1-3.7,1.3c-1.2-0.9-1.2-2.5,0-4.8
	c1.3-2.3,2.7-3.3,4.2-2.9c1.4,0.4,1.7,1.7,0.9,3.9l-0.3,0.8 M181.4,86.4c0.6-1.7,0.4-2.8-0.7-3.2c-1.2-0.4-2.4,0.3-3.7,2.2
	c-1.2,2-1.3,3.5-0.3,4.4c0.9,0.8,2,0.5,3.2-0.9"/>
<path id="Layer0_5_MEMBER_3_1_STROKES" class="st5" d="M183.7,89.5l-2.1-1.2 M181.1,87.9l-0.5-0.3 M180,87.3L178,86"/>
<path d="M180.6,86.9l0.5,0.3c0.3-0.6,0.4-1.2,0.4-1.7c0-0.7-0.2-1.3-0.5-1.7c0.2,0.4,0.2,1,0.1,1.6C181,85.9,180.8,86.4,180.6,86.9z
	"/>
<path id="Layer0_5_MEMBER_5_1_STROKES" class="st4" d="M181.1,87.2c0.3-0.6,0.4-1.2,0.4-1.7c0-0.7-0.2-1.3-0.5-1.7
	c0.2,0.4,0.2,1,0.1,1.6c-0.1,0.6-0.3,1.1-0.5,1.5L181.1,87.2z"/>
<path d="M180.5,88.1l-0.5-0.3c-0.7,1.1-1.6,1.7-2.5,2C178.5,90,179.5,89.4,180.5,88.1z"/>
<path id="Layer0_5_MEMBER_7_1_STROKES" class="st4" d="M180,87.8c-0.7,1.1-1.6,1.7-2.5,2c1.1,0.2,2.1-0.4,3.1-1.7L180,87.8z"/>
<path d="M183.2,77.7l0.1-0.2c1-2.6,0.7-4.1-0.8-4.4c-1.5-0.2-2.9,0.7-4.1,2.9c-1.2,2.3-1.2,3.9,0,4.8c1.2,0.9,2.7,0.2,4.3-2
	c-1.5,2-2.8,2.5-3.8,1.6c-1-0.9-0.9-2.4,0.3-4.4c1.2-1.9,2.4-2.6,3.6-2.1C183.9,74.4,184,75.7,183.2,77.7z"/>
<path id="Layer0_5_MEMBER_9_1_STROKES" class="st4" d="M183.1,77.9l0.3-0.8c0.6-1.7,0.4-2.8-0.7-3.2c-1.2-0.5-2.4,0.2-3.6,2.1
	c-1.2,2-1.3,3.5-0.3,4.4c1,0.9,2.3,0.4,3.8-1.6c-1.6,2.2-3,2.9-4.3,2c-1.2-0.8-1.2-2.4,0-4.8c1.3-2.3,2.7-3.3,4.2-2.8
	c1.4,0.4,1.7,1.7,0.9,3.9"/>
<path id="Layer0_5_MEMBER_10_1_STROKES" class="st5" d="M185.6,80.2l-2.1-1.2 M183.1,78.6l-0.5-0.3 M182,78l-2-1.3"/>
<path d="M182.5,77.6L183,78c0.3-0.6,0.4-1.2,0.4-1.7c0-0.7-0.1-1.3-0.5-1.7C183.3,75.4,183.2,76.4,182.5,77.6z"/>
<path id="Layer0_5_MEMBER_12_1_STROKES" class="st4" d="M183.1,78c0.3-0.6,0.4-1.2,0.4-1.7c0-0.7-0.1-1.3-0.5-1.7
	c0.3,0.9,0.2,1.9-0.4,3.1L183.1,78z"/>
<path d="M182.5,78.9l-0.5-0.3c-0.7,1.1-1.6,1.7-2.5,1.9c0.5,0.1,1.1,0,1.7-0.4C181.7,79.8,182.1,79.4,182.5,78.9z"/>
<path id="Layer0_5_MEMBER_14_1_STROKES" class="st4" d="M182,78.6c-0.7,1.1-1.6,1.7-2.5,1.9c0.5,0.1,1.1,0,1.7-0.4
	c0.5-0.3,0.9-0.7,1.3-1.2L182,78.6z"/>
<path id="Layer0_5_MEMBER_15_1_STROKES" class="st4" d="M185.6,64.8v-0.6"/>
<path id="Layer0_5_MEMBER_16_1_STROKES" class="st4" d="M180.3,52.4c0.7-0.4,1.3-1,1.8-1.8c0.2-0.3,0.3-0.6,0.4-0.9"/>
<path id="Layer0_5_MEMBER_17_1_STROKES" class="st4" d="M185.6,46.9c-1.4,0.4-2.4,1.4-3.1,2.8"/>
<path id="Layer0_5_MEMBER_18_1_STROKES" class="st4" d="M181.6,52.3c0.4-0.2,0.8-0.6,1-1.1c0.2-0.2,0.3-0.5,0.3-0.8"/>
<path id="Layer0_5_MEMBER_19_1_STROKES" class="st4" d="M185.5,52.7l0.8-1.1"/>
<path id="Layer0_5_MEMBER_20_1_STROKES" class="st4" d="M185.4,50.5c-0.3,0.4-0.5,0.6-0.8,0.4c-0.2-0.1-0.2-0.4,0-0.9
	c0.1-0.2,0.2-0.3,0.4-0.4c0.2-0.1,0.3-0.1,0.4,0C185.6,49.8,185.6,50,185.4,50.5z"/>
<path id="Layer0_5_MEMBER_21_1_STROKES" class="st4" d="M185,59.3l1.3,0.4"/>
<path id="Layer0_5_MEMBER_22_1_STROKES" class="st4" d="M185.5,52.7c-0.3,0.4-0.6,0.8-0.8,1.2c-0.6,1.1-0.9,2.2-0.9,3.2
	c0,1.1,0.3,1.8,0.9,2.1l0.3,0.1"/>
<path id="Layer0_5_MEMBER_23_1_STROKES" class="st4" d="M185.4,62.5c-0.3,0.4-0.5,0.6-0.8,0.4c-0.1,0-0.1-0.2-0.1-0.3
	c0-0.2,0-0.4,0.1-0.5c0.2-0.4,0.5-0.5,0.8-0.4c0.1,0.1,0.2,0.2,0.2,0.4C185.5,62.2,185.5,62.3,185.4,62.5z"/>
<path id="Layer0_5_MEMBER_24_1_STROKES" class="st4" d="M183.1,64.3c-0.1-0.2-0.2-0.3-0.3-0.3c-0.2-0.1-0.5-0.1-0.9,0.1"/>
<path id="Layer0_5_MEMBER_25_1_STROKES" class="st4" d="M183.1,64.3c0.1,0.2,0.3,0.4,0.4,0.5c0.4,0.2,0.9,0.2,1.5-0.1
	c0.6-0.3,1-0.8,1.4-1.5c0.4-0.7,0.6-1.4,0.6-2c0-0.6-0.2-1.1-0.6-1.3"/>
<path id="Layer0_5_MEMBER_26_1_STROKES" class="st4" d="M178,66.3c-0.6,0.5-1,1.2-1.3,2"/>
<path id="Layer0_5_MEMBER_27_1_STROKES" class="st4" d="M172.8,70.6l0.4,0.2"/>
<path id="Layer0_5_MEMBER_28_1_STROKES" class="st4" d="M174.3,65.9c-0.4,0.4-0.8,0.8-1.1,1.3c-0.4,0.8-0.6,1.5-0.6,2.2
	c0,0.7,0.2,1.2,0.6,1.4c0.4,0.2,1,0.2,1.6-0.2c0.6-0.4,1.2-0.9,1.6-1.7l0.4-0.8"/>
<path id="Layer0_5_MEMBER_29_1_STROKES" class="st4" d="M173.9,65.6c-0.4,0.3-0.7,0.7-1.1,1.3c-0.4,0.8-0.6,1.5-0.6,2.2
	s0.2,1.2,0.6,1.4"/>
<path id="Layer0_5_MEMBER_30_1_STROKES" class="st4" d="M173.8,65.6c0.3-0.4,0.6-0.8,0.9-1.3c0.6-1,0.9-2,1-3c0-1-0.2-1.7-0.7-2.1"
	/>
<path id="Layer0_5_MEMBER_31_1_STROKES" class="st4" d="M174.3,65.9c0.3-0.3,0.6-0.8,0.9-1.3c0.6-1.1,1-2.2,1-3.2c0-1-0.3-1.7-1-2.1
	c-0.3-0.2-0.7-0.3-1.2-0.2"/>
<path id="Layer0_5_MEMBER_32_1_STROKES" class="st4" d="M177,54.1l0.2,0.2c0.2,0.2,0.6,0.1,1-0.1"/>
<path id="Layer0_5_MEMBER_33_1_STROKES" class="st4" d="M176.2,53.2L176,53c-0.5-0.3-1-0.2-1.7,0.2c-0.6,0.4-1.2,1-1.6,1.7
	s-0.7,1.5-0.7,2.3s0.2,1.2,0.7,1.5l0.2,0.1"/>
<path id="Layer0_5_MEMBER_34_1_STROKES" class="st4" d="M177,54.1c-0.1-0.4-0.3-0.7-0.6-0.8c-0.4-0.2-1-0.2-1.6,0.2
	c-0.6,0.4-1.2,1-1.6,1.7c-0.4,0.8-0.7,1.6-0.7,2.3c0,0.7,0.2,1.2,0.7,1.5c0.2,0.1,0.5,0.2,0.9,0.1"/>
<path id="Layer0_5_MEMBER_35_1_STROKES" class="st4" d="M186.3,51.6l0.3-0.5c0.4-0.8,0.7-1.5,0.7-2.2c0-0.7-0.2-1.2-0.7-1.4
	c-0.4-0.2-1-0.2-1.6,0.2c-0.6,0.4-1.2,0.9-1.6,1.7c-0.2,0.3-0.4,0.7-0.5,1.1"/>
<path id="Layer0_5_MEMBER_36_1_STROKES" class="st4" d="M175.2,68.3c-0.1,0.2-0.2,0.3-0.4,0.4s-0.3,0.1-0.4,0
	c-0.1,0-0.1-0.2-0.1-0.3s0-0.4,0.1-0.5c0.1-0.2,0.2-0.3,0.4-0.4c0.2-0.1,0.3-0.1,0.4,0c0.1,0,0.2,0.2,0.2,0.3
	C175.4,68,175.3,68.1,175.2,68.3z"/>
<path id="Layer0_5_MEMBER_37_1_STROKES" class="st4" d="M175.1,56.4c-0.3,0.4-0.5,0.5-0.8,0.4c-0.1-0.1-0.2-0.2-0.1-0.4
	c0-0.2,0.1-0.4,0.2-0.5c0.2-0.4,0.5-0.5,0.7-0.4C175.4,55.6,175.4,55.9,175.1,56.4z"/>
<path id="Layer0_5_MEMBER_38_1_STROKES" class="st4" d="M179.9,56.4c-0.7,0.4-1.3,1-1.7,1.8c-0.5,0.8-0.7,1.7-0.7,2.4
	c0,0.8,0.2,1.3,0.7,1.6c0.5,0.3,1.1,0.2,1.7-0.2c0.7-0.4,1.3-1,1.7-1.8c0.5-0.8,0.7-1.7,0.7-2.4c0-0.8-0.2-1.3-0.7-1.6
	C181.2,55.9,180.6,56,179.9,56.4z"/>
<path id="Layer0_5_MEMBER_39_1_STROKES" class="st4" d="M181.4,56.5c0.4,0.2,0.6,0.7,0.6,1.4c0,0.7-0.2,1.5-0.7,2.2
	c-0.4,0.8-1,1.3-1.6,1.7c-0.6,0.3-1.1,0.4-1.6,0.1c-0.4-0.2-0.6-0.7-0.6-1.4c0-0.7,0.2-1.5,0.6-2.2c0.4-0.8,1-1.3,1.6-1.6
	C180.4,56.3,181,56.2,181.4,56.5z"/>
<path id="Layer0_5_MEMBER_40_1_STROKES" class="st4" d="M168.4,53.3c-0.1,0.2-0.3,0.4-0.4,0.5c-0.2,0.1-0.3,0.1-0.4,0.1
	c-0.1-0.1-0.2-0.2-0.2-0.4c0-0.2,0.1-0.4,0.2-0.6c0.1-0.2,0.3-0.3,0.4-0.4c0.2-0.1,0.3-0.1,0.4-0.1c0.1,0.1,0.2,0.2,0.2,0.4
	C168.6,52.9,168.5,53.1,168.4,53.3z"/>
<path id="Layer0_5_MEMBER_41_1_STROKES" class="st4" d="M152.3,87.7c0.1-0.2,0.2-0.4,0.2-0.6c0-0.2-0.1-0.3-0.2-0.4
	c-0.1-0.1-0.3-0.1-0.4,0c-0.2,0.1-0.3,0.3-0.4,0.5c-0.1,0.2-0.2,0.4-0.2,0.6c0,0.2,0.1,0.3,0.2,0.4C151.7,88.4,152,88.2,152.3,87.7z
	"/>
<path id="Layer0_5_MEMBER_42_1_STROKES" class="st4" d="M168.5,78.5c-0.3,0.5-0.6,0.7-0.9,0.5c-0.3-0.2-0.3-0.5,0-1
	c0.3-0.5,0.6-0.7,0.9-0.5C168.7,77.6,168.7,78,168.5,78.5z"/>
<path id="Layer0_5_MEMBER_43_1_STROKES" class="st4" d="M152.4,75.1c-0.1,0.2-0.3,0.4-0.4,0.5c-0.2,0.1-0.3,0.1-0.4,0
	c-0.3-0.2-0.3-0.5,0-1c0.1-0.2,0.3-0.3,0.4-0.4c0.2-0.1,0.3-0.1,0.4-0.1C152.7,74.3,152.7,74.6,152.4,75.1z"/>
<path id="Layer0_5_MEMBER_44_1_STROKES" class="st4" d="M158.4,69.5c0.6,0,1.2-0.3,1.9-0.8c0.6-0.5,1.2-1.2,1.7-2
	c0.6-1.1,0.9-2.1,0.9-3.1c0-1-0.3-1.7-0.9-2.1c-0.6-0.3-1.3-0.3-2.1,0.2c-0.8,0.5-1.6,1.2-2.2,2.2"/>
<path id="Layer0_5_MEMBER_45_1_STROKES" class="st4" d="M159.6,79.1c1-0.4,1.8-1.2,2.6-2.5c0.6-1.1,0.9-2.1,0.9-3.1
	c0-1-0.3-1.7-0.9-2c-0.4-0.2-1-0.3-1.6-0.1c-0.6,0.2-1.2,0.6-1.8,1.2"/>
<path id="Layer0_5_MEMBER_46_1_STROKES" class="st4" d="M153.6,61.2l3.1-7.4"/>
<path id="Layer0_5_MEMBER_47_1_STROKES" class="st4" d="M153.6,61.2c-0.4,0.8-0.7,1.8-0.9,2.8"/>
<path id="Layer0_5_MEMBER_48_1_STROKES" class="st4" d="M159.4,94.6c-0.1,0.2-0.2,0.3-0.1,0.4c0,0.2,0.2,0.3,0.4,0.4
	c0.2,0.1,0.5,0.1,0.9,0.1s0.6-0.1,0.9-0.3c0.2-0.2,0.4-0.3,0.3-0.5c0-0.1-0.1-0.2-0.2-0.3"/>
<path id="Layer0_5_MEMBER_49_1_STROKES" class="st4" d="M149.9,90.3c0,0.2,0.1,0.4,0.2,0.5c0.2,0.1,0.4,0.1,0.5,0"/>
<path id="Layer0_5_MEMBER_50_1_STROKES" class="st4" d="M149.9,90.6l0.1,0.3"/>
<path id="Layer0_5_MEMBER_51_1_STROKES" class="st4" d="M150.1,90.9l-9.9-3.6"/>
<path id="Layer0_5_MEMBER_52_1_STROKES" class="st4" d="M145.9,81.8c3.6-4.7,5.8-10.6,6.8-17.7"/>
<path id="Layer0_5_MEMBER_53_1_STROKES" class="st4" d="M138.4,88.5l2.8-1.8l2.5-2.2"/>
<path id="Layer0_5_MEMBER_54_1_STROKES" class="st4" d="M157.5,62.8l-0.5-2.2"/>
<path id="Layer0_5_MEMBER_55_1_STROKES" class="st4" d="M155.3,63l-0.4-1.7"/>
<path id="Layer0_5_MEMBER_56_1_STROKES" class="st4" d="M180.3,52.4l-2.7,1.4"/>
<path id="Layer0_5_MEMBER_57_1_STROKES" class="st4" d="M184.5,67.2c0.7-0.6,1.1-1.4,1.1-2.3"/>
<path id="Layer0_5_MEMBER_58_1_STROKES" class="st4" d="M157.8,60.4c0.2,0.1,0.9-0.1,2.3-0.8c1.3-0.6,2-1,2-1.2"/>
<path id="Layer0_5_MEMBER_59_1_STROKES" class="st4" d="M173.5,44.2c1.1-0.7,2-1.5,2.7-2.4"/>
<path id="Layer0_5_MEMBER_60_1_STROKES" class="st4" d="M166.9,18.7c0.1-0.9,0-1.9-0.3-2.9c-0.4-1-0.9-1.7-1.5-2.3
	c-0.7-0.6-1.4-0.9-2-0.8"/>
<path id="Layer0_5_MEMBER_61_1_STROKES" class="st4" d="M160.8,11.2l-3.2-6.6"/>
<path id="Layer0_5_MEMBER_62_1_STROKES" class="st4" d="M167.2,36.1c0.9-0.6,1.4-1.4,1.4-2.5"/>
<path id="Layer0_5_MEMBER_63_1_STROKES" class="st4" d="M166.9,32.5c0.3-0.1,0.5-0.3,0.6-0.5c0.3-0.4,0.4-1,0.4-1.6
	c-0.1-0.6-0.4-1.3-0.8-1.8"/>
<path id="Layer0_5_MEMBER_64_1_STROKES" class="st4" d="M167.7,33.4l0.5-0.4c0.6-0.6,1-1.4,0.9-2.3c0-1-0.4-1.9-1.1-2.7"/>
<path id="Layer0_5_MEMBER_65_1_STROKES" class="st4" d="M173.7,43.8c1.1-0.6,2-1.4,2.6-2.3c1.3-1.7,1.8-3.8,1.5-6.2
	c-0.3-2.3-1.2-4.6-2.9-6.7"/>
<path id="Layer0_5_MEMBER_66_1_STROKES" class="st4" d="M129.7,50.1c0.3,0.4,0.8,0.8,1.3,1.1c0.6,0.3,1.1,0.5,1.7,0.5
	c0.6,0,1.1-0.1,1.4-0.3"/>
<path id="Layer0_5_MEMBER_67_1_STROKES" class="st4" d="M128.9,50.6c0.3,0.4,0.7,0.8,1.2,1.1c0.8,0.6,1.7,0.9,2.5,1s1.7,0,2.3-0.4"
	/>
<path id="Layer0_5_MEMBER_68_1_STROKES" class="st4" d="M122.2,59.3c0.9,1.1,2,2.2,3.2,3.1c2.2,1.6,4.6,2.5,7.1,2.8
	c2.5,0.3,4.8-0.1,6.7-1.2"/>
<path id="Layer0_5_MEMBER_69_1_STROKES" class="st4" d="M122.5,59c0.8,1,1.7,1.9,2.8,2.7c2.3,1.7,4.7,2.8,7.3,3.1
	c2.6,0.4,4.9,0,6.9-1.2"/>
<path id="Layer0_5_MEMBER_70_1_STROKES" class="st4" d="M128.4,53.1c0.8,1.1,1.8,1.8,3,2.2c1.1,0.4,2.1,0.3,3-0.2"/>
</svg>
