<?xml version="1.0" encoding="utf-8"?>
<!-- Generator: Adobe Illustrator 24.1.2, SVG Export Plug-In . SVG Version: 6.00 Build 0)  -->
<svg version="1.1" id="Ebene_1" xmlns="http://www.w3.org/2000/svg" xmlns:xlink="http://www.w3.org/1999/xlink" x="0px" y="0px"
	 viewBox="0 0 348 161" style="enable-background:new 0 0 348 161;" xml:space="preserve">
<style type="text/css">
	.st0{fill:#0099FF;}
	.st1{fill:#009900;}
	.st2{fill:#FF0000;}
	.st3{fill:#B1B1B1;}
	.st4{fill:none;stroke:#000000;stroke-width:0.5;stroke-miterlimit:5;}
	.st5{fill:none;stroke:#000000;stroke-width:0.25;stroke-miterlimit:5;}
	.st6{fill:none;stroke:#000000;stroke-width:0.45;stroke-linecap:round;stroke-linejoin:round;}
</style>
<path class="st0" d="M102.1,157.9c-0.4-0.3-0.8-0.8-1.2-1.4c-0.4-0.6-0.6-1.2-0.8-1.8c-2.6,1.5-5.4,2.9-8.2,4.1l4.6,2.1L102.1,157.9
	 M101.7,144.2v0.2c0,0,0-0.1,0.1-0.1L101.7,144.2 M107.6,146.5c0.1,0.1,0.2,0.1,0.2,0.2c0.1,0.2,0.2,0.5,0.2,0.9
	c0,0.6-0.2,1.3-0.5,1.9l-0.6,0.8l0.4,0.3l-1.8,0.9c-0.2,0.2-0.3,0.4-0.3,0.7c0,0.4,0.1,0.9,0.4,1.3c0.3,0.5,0.6,0.8,1,1.1
	c0.3,0.2,0.7,0.2,1,0.1l0.1-0.2l1.4-0.8v0.8c0,0.3-0.1,0.6-0.1,0.8c0.6-0.6,1-1.3,1.3-2.1l0.3-0.2l2.8-1.5l15.1-7.7l-4-2.3
	l-13.9,7.3l-1.5,0.8v-2.9l-0.6-0.6L107.6,146.5L107.6,146.5 M105.3,144.4c-0.3,0-0.5,0-0.7,0.1c0.2,0.1,0.4,0.1,0.7,0.1
	c0.2,0,0.4,0,0.6-0.1C105.7,144.4,105.5,144.4,105.3,144.4 M119.1,138.5l-0.5-0.2v0.6C118.8,138.7,118.9,138.6,119.1,138.5
	 M200.5,105.5L200.5,105.5c-0.8,1.9-1.2,3.9-1.2,5.8c0,0.7,0.1,1.6,0.3,2.6v0.1c1.6,1.5,3.5,2.8,5.6,4.1l1.7,0.7
	c-0.6-0.6-1.3-1.2-2-1.7l-0.1-0.1c0,0-0.1-0.1-0.1-0.1c1,0.6,2.3,0.8,4,0.8c1.2,0,2.1-0.3,2.9-0.8c0.2-0.1,0.4-0.3,0.5-0.5l-0.4,2.9
	c0,0.2,0.2,0.3,0.6,0.4l-0.1,0.8c-0.4,0-0.6,0.1-0.6,0.2l-0.6,4.6c0,0.2,0.3,0.3,0.9,0.4c-0.5,4.1-2.3,7.6-5.4,10.4
	c-3.2,2.8-6.8,4.1-11,4.1l-54.5-2.3c-4.6,0-9,0.8-13.2,2.5l4.3,2.5c2.9-0.9,5.9-1.4,9.1-1.4l54.6,2.4c5,0,9.5-1.7,13.3-5.1
	c3.7-3.3,5.9-7.5,6.4-12.5l0.1-0.2c0.5,0,0.8-0.1,0.8-0.3l0.5-4.6c0,0,0.1-0.1,0.1-0.1c0-0.1-0.2-0.2-0.6-0.3l0.1-0.7
	c0.4,0,0.6-0.1,0.6-0.3l0.4-2.9c0.2-1.7,0-3.2-0.6-4.6c-0.5-1-1.1-1.8-2-2.3c-0.2-0.2-0.4-0.3-0.8-0.3l-0.2-0.1
	c0.5,0,0.7-0.4,0.7-1.1c0-0.4,0-0.8,0-1.2c0.1,0.4,0.2,0.8,0.2,1.2l-0.1-2.2c-0.3-0.2-0.6-0.5-0.8-0.8c-0.5-0.6-1.1-1.1-1.8-1.4
	h-0.1c-0.9-0.8-1.9-1.5-3-2.1l-1.8-0.7C204.6,102.2,202.4,103.6,200.5,105.5 M205.4,109.5l-0.3,1.1c0,0.9,0.1,1.7,0.5,2.4
	c0.4,0.7,0.9,1.2,1.6,1.4h0l0.2,0.1c-0.9,0-1.6-0.6-2-1.7c-0.2-0.8-0.4-1.6-0.4-2.6c0-0.5,0.1-1,0.4-1.4c0.2-0.3,0.7-0.8,1.4-1.6
	h0.4C206.4,107.7,205.8,108.5,205.4,109.5 M202.6,109.8c0,0.3,0,0.6,0.1,1c0,1.3,0,2.3,0.1,2.9c-0.4-1-0.5-1.9-0.4-2.9
	c0-0.2,0-0.3,0.1-0.4C202.5,110.2,202.6,110,202.6,109.8 M211,103.7c0.3,0.1,0.5,0.2,0.8,0.4c-0.7-0.3-1.6-0.5-2.6-0.5
	c-0.8,0-1.6,0.1-2.2,0.4C208.3,103.3,209.7,103.2,211,103.7 M209.3,114.6c0.1-0.1,0.1-0.1,0.2-0.1l0.2,0.1H209.3z"/>
<path class="st1" d="M113.3,153.1c0.3-0.6,0.4-1.1,0.1-1.5l-2.8,1.5l1.3,0.8C112.4,154,112.8,153.7,113.3,153.1 M110.2,144.8
	c-0.1-0.1-0.2-0.3-0.3-0.4c-0.3-0.6-0.8-1.1-1.3-1.4l-0.7-0.4c-0.7-0.4-1.6-0.6-2.6-0.6c-1,0-1.9,0.2-2.7,0.6
	c-0.6,0.5-0.9,1-0.9,1.6l0.1,0.1c-0.1,0.1-0.1,0.1-0.1,0.1h-0.1c-0.1,0.2-0.1,0.3-0.1,0.4c0,0.8,0.5,1.4,1.4,1.8
	c-0.1,0.1-0.1,0.2-0.1,0.3c-0.3,0.5-0.5,0.9-0.5,1.4c0,0.4,0.1,0.7,0.3,0.9c0,0,0.1,0,0.2,0l1.6,1.1l-3.6,2.1
	c-0.5,0.3-0.8,0.9-0.8,1.7c0,0.2,0,0.4,0.1,0.6c0.1,0.6,0.4,1.2,0.8,1.8c0.4,0.6,0.8,1.1,1.2,1.4c0.2,0.2,0.4,0.3,0.6,0.4
	c0.7,0.4,1.3,0.4,1.8,0.2l3.8-2.2l0.1-0.1c0.3-0.1,0.5-0.4,0.6-0.8c0.1-0.2,0.1-0.4,0.1-0.8v-0.8l-1.4,0.8l-0.1,0.2
	c-0.3,0.1-0.6,0.1-1-0.1c-0.4-0.2-0.7-0.6-1-1.1c-0.3-0.4-0.4-0.9-0.4-1.3c0-0.3,0.1-0.5,0.3-0.7l1.8-0.9l-0.4-0.3l0.6-0.8
	c0.3-0.7,0.5-1.3,0.5-1.9c0-0.4-0.1-0.7-0.2-0.9c-0.1-0.1-0.2-0.2-0.2-0.2l-0.1-0.1l0.9-0.2l0.6,0.6v2.9l1.5-0.8l-0.1-2.6
	C110.5,145.8,110.4,145.3,110.2,144.8 M105.9,144.5c0.1,0.1,0.2,0.2,0.2,0.3c0,0.4-0.3,0.6-0.8,0.6c-0.6,0-0.9-0.2-0.9-0.6
	c0-0.1,0.1-0.2,0.2-0.3c0.2-0.1,0.4-0.1,0.7-0.1C105.5,144.4,105.7,144.4,105.9,144.5 M106.1,144.8c0-0.1-0.1-0.2-0.2-0.3
	c-0.2,0.1-0.4,0.1-0.6,0.1c-0.3,0-0.5,0-0.7-0.1c-0.1,0.1-0.2,0.2-0.2,0.3c0,0.4,0.3,0.6,0.9,0.6
	C105.8,145.4,106.1,145.2,106.1,144.8z"/>
<path class="st2" d="M189.8,97l-1.3-0.5c-1.6,0.2-3,0.7-4.4,1.5l-1.2-0.5l-1.1-0.1l-1.3,0.1c-0.9,0-1.6,0.6-2.1,1.9
	c-0.2,0.6-0.3,1.1-0.2,1.6c0,0.5,0.2,0.9,0.6,1.2l0.7,0.8l1,0.8l1.1,0.4l0.1,0h0.1c0.4,1.6,1.2,2.9,2.4,4.1l1.4,0.4
	c1.6,0.6,3.3,0.2,5-1.3l-0.1-0.1c-0.1,0-0.1,0-0.2-0.1l1.3,0.4c0.1,0,0.1,0,0.1,0.1h0.1c0.6,0.2,1.2,0.2,1.9-0.1
	c0.5-0.1,0.9-0.3,1.3-0.6c0.4-0.3,0.6-0.8,0.8-1.2h-0.1l-1.5-0.6l1.5,0.6h0.1c0.1,0,0.1,0,0.1-0.1c0.3-1.1,0.2-2.1-0.5-2.9
	c-0.3-0.6-0.8-1.1-1.4-1.2l-1.2-0.6C192.4,99,191.5,97.6,189.8,97z"/>
<path class="st3" d="M145.5,76.4c-0.2-0.2-0.4-0.2-0.6-0.2l-0.3-0.1c-1.1-0.3-2.2-0.1-3.3,0.6c-1.2,0.7-2.1,1.8-2.7,3.3
	c-0.5,1.5-0.5,2.9-0.1,4.3c0.4,1.3,1.2,2.2,2.2,2.6l0.1,0.1h0.1c0.3,0.1,0.5,0.2,0.8,0.2c0.9,0.1,1.8-0.1,2.8-0.7
	c1.2-0.8,2-1.9,2.6-3.3c0-0.1,0-0.1,0.1-0.1c0.5-1.5,0.5-2.9,0.1-4.2C146.9,77.6,146.3,76.8,145.5,76.4 M141.8,77.9
	c0.8-0.5,1.7-0.6,2.6-0.3c0.8,0.3,1.4,0.9,1.7,1.9c0.3,1,0.3,2.1-0.1,3.1s-1,1.9-1.9,2.5c-0.9,0.5-1.8,0.6-2.7,0.3
	c-0.8-0.3-1.4-0.9-1.7-1.8c-0.3-1.1-0.2-2.1,0.1-3.2C140.3,79.2,140.9,78.4,141.8,77.9 M143.3,84.1c0.7-0.4,1.2-1.1,1.5-2l-1.5-0.4
	c-0.3,0.6-0.7,1.1-1.2,1.6c-0.5,0.5-1.1,0.8-1.7,0.8c0.2,0.1,0.4,0.3,0.8,0.4C141.9,84.6,142.6,84.5,143.3,84.1 M139.8,82.8
	c-0.3-0.7-0.3-1.6,0-2.5c-0.4,1-0.4,2.1-0.1,3.2c0.3,0.9,0.9,1.5,1.7,1.8c0.9,0.3,1.8,0.2,2.7-0.3c0.9-0.6,1.5-1.4,1.9-2.5l-1.1-0.4
	c-0.3,0.9-0.8,1.6-1.5,2c-0.8,0.4-1.5,0.5-2.1,0.3c-0.3-0.2-0.6-0.3-0.8-0.4c-0.2-0.2-0.4-0.5-0.5-0.8
	C139.9,83.1,139.9,82.9,139.8,82.8 M144.9,79.6c-0.2-0.8-0.7-1.3-1.3-1.6c-0.2,0-0.4,0-0.6,0c0.8,0.9,0.9,2.1,0.4,3.5
	c0,0,0,0.1,0,0.1l1.5,0.4C145.2,81.2,145.2,80.4,144.9,79.6 M141.9,78.2c-0.1,0-0.3,0.1-0.4,0.2c-0.7,0.5-1.2,1.1-1.6,1.9
	c-0.3,0.9-0.3,1.7,0,2.5c0,0.2,0.1,0.3,0.1,0.4c0.9-0.4,1.5-1.1,1.9-2.2C142.3,79.9,142.3,79,141.9,78.2 M142.9,78
	c-0.3-0.1-0.7,0-1.1,0.1c0.4,0.8,0.4,1.8,0,2.8c-0.4,1.1-1,1.8-1.9,2.2c0.1,0.3,0.3,0.6,0.5,0.8c0.6,0,1.2-0.2,1.7-0.8
	c0.5-0.4,0.9-1,1.2-1.6l-0.4-0.2l0.4,0.2c0-0.1,0-0.1,0-0.1C143.9,80.1,143.7,78.9,142.9,78 M141.9,78.2c0.4-0.2,0.7-0.2,1.1-0.1
	c0.2,0,0.4,0,0.6,0c0.7,0.3,1.1,0.8,1.3,1.6c0.3,0.8,0.3,1.6,0,2.5l1.1,0.4c0.4-1.1,0.4-2.1,0.1-3.1c-0.3-0.9-0.9-1.6-1.7-1.9
	c-0.9-0.3-1.8-0.2-2.6,0.3c-0.9,0.5-1.6,1.4-2,2.4c0.4-0.8,0.9-1.5,1.6-1.9C141.6,78.3,141.8,78.2,141.9,78.2 M141.7,72.2
	c-1.7-0.6-3.5-0.4-5.3,0.7c-1.9,1.1-3.2,2.7-4,4.9c-0.8,2.2-0.8,4.3-0.1,6.2c0.7,2,1.9,3.3,3.8,4c1.9,0.7,3.8,0.3,5.7-1
	c-0.2,0-0.5-0.1-0.8-0.2h-0.1l-0.1-0.1l-3-0.9c-0.3,0-0.4,0.1-0.5,0.1c0.1-0.1,0.3-0.1,0.5-0.1l3,0.9c-1.1-0.4-1.8-1.2-2.2-2.6
	c-0.5-1.4-0.4-2.8,0.1-4.3c0.6-1.5,1.5-2.6,2.7-3.3c1.1-0.7,2.2-0.9,3.3-0.6l-2.1-0.8c-0.6-0.1-1-0.5-1.2-1c0.2,0.5,0.6,0.9,1.2,1
	l2.1,0.8l0.3,0.1c0.2,0,0.4,0.1,0.6,0.2C144.8,74.2,143.5,72.8,141.7,72.2 M138.7,75.9c-1.1,0.8-1.9,1.8-2.3,3.1
	c-0.6,1.7-0.6,3.3,0,4.7c-0.6-1.4-0.6-3,0-4.7C136.8,77.8,137.6,76.7,138.7,75.9z"/>
<path id="Layer0_5_1_STROKES" class="st4" d="M156.9,28.6l8.8-0.6l0.6-0.2l0.2-0.2l0.2-0.3l0.1-0.1l-0.8,0.1 M166.4,26.2l1.9-1.1
	 M166.7,27.3l0.1-0.3l0-0.6 M148.1,10.7l0.7-0.1l-0.3-0.2L148.1,10.7z M157.3,10.6l-2,1.1 M154.7,11.3l-0.4,0.3 M142.9,14.8
	l-0.6-0.4l-0.6,0.2l-1.6-1 M144.6,16.4l0.4,0.2l0.3,0.5l0.4,0.4l3.4,2 M145.8,9.6v2.6l-0.2,0l-0.5,0.3l-1.6-1 M140.2,13.1l2.1,1.2
	 M157.5,15.3l1.2-0.7l0.8-0.5 M159.8,24.2l1.4,0.8l2.3-1.3l-7.9-4.7l-2.3,1.4l3.5,2l0.5-0.3 M164.3,22.8l0.6-0.5l-1.3-1.6v3
	 M163.5,20.7v-1.1l-1.7-0.9l-6.2-3.7V19 M161.9,18.7l-3.2-4.1 M154.1,11.2l-2.1,1.2h-0.1l0,0.1l-3.1-1.9 M153.8,14.1l-0.4-0.2
	l-0.6-0.4 M155.1,16.1l-0.6-0.3l1.1-0.7 M153.4,12.6v1.3 M149.6,19.4l0.8,0.5 M152,19.6l0.7,0.5 M154.7,22.9l-0.4,0.2 M153.4,24.2
	v-3.8 M153.2,14.4l-3.3-2 M151.8,17.9l-3.4-2 M154.1,35l-1.7,0.3 M154.4,31.3l-2.6,0.2 M157.1,27.9l0.4-0.2 M157.5,26.8l2-1.2
	 M151.3,19.9v5.5 M156.8,22.4l-1.5,0.8 M145.6,12.3l-1.6-0.9 M146.3,42.5l-2.2,5.2l-0.3,0.9l-0.1,0.8 M145.5,76.4
	c-0.7-2.1-2-3.5-3.9-4.2c-1.7-0.6-3.5-0.4-5.3,0.7c-1.9,1.1-3.2,2.7-4,4.9c-0.8,2.2-0.8,4.3-0.1,6.2c0.7,2,1.9,3.3,3.8,4
	c1.9,0.7,3.8,0.3,5.7-1c-0.2,0-0.5-0.1-0.8-0.2h-0.1l-0.1-0.1l-3-0.9c-0.3,0-0.4,0.1-0.5,0.1 M141.4,74.2c0.2,0.5,0.6,0.9,1.2,1
	l2.1,0.8l0.3,0.1c0.2,0,0.4,0.1,0.6,0.2c0.8,0.4,1.4,1.2,1.8,2.3c0.4,1.3,0.4,2.8-0.1,4.2 M146,82.6c0.4-1.1,0.4-2.1,0.1-3.1
	c-0.3-0.9-0.9-1.6-1.7-1.9c-0.9-0.3-1.8-0.2-2.6,0.3c-0.9,0.5-1.6,1.4-2,2.4c0.4-0.8,0.9-1.5,1.6-1.9c0.2-0.1,0.3-0.2,0.4-0.2
	c0.4-0.2,0.7-0.2,1.1-0.1c0.2,0,0.4,0,0.6,0c0.7,0.3,1.1,0.8,1.3,1.6c0.3,0.8,0.3,1.6,0,2.5 M146,82.6c-0.4,1.1-1,1.9-1.9,2.5
	c-0.9,0.5-1.8,0.6-2.7,0.3c-0.8-0.3-1.4-0.9-1.7-1.8c-0.3-1.1-0.2-2.1,0.1-3.2c-0.3,0.9-0.3,1.7,0,2.5c0,0.2,0.1,0.3,0.1,0.4
	c0.9-0.4,1.5-1.1,1.9-2.2c0.4-1,0.4-2,0-2.8 M140.9,86.7c-1.1-0.4-1.8-1.2-2.2-2.6c-0.5-1.4-0.4-2.8,0.1-4.3
	c0.6-1.5,1.5-2.6,2.7-3.3c1.1-0.7,2.2-0.9,3.3-0.6 M138.7,75.9c-1.1,0.8-1.9,1.8-2.3,3.1c-0.6,1.7-0.6,3.3,0,4.7 M144.8,82.1
	c-0.3,0.9-0.8,1.6-1.5,2c-0.8,0.4-1.5,0.5-2.1,0.3c-0.3-0.2-0.6-0.3-0.8-0.4c-0.2-0.2-0.4-0.5-0.5-0.8 M140.5,84
	c0.6,0,1.2-0.2,1.7-0.8c0.5-0.4,0.9-1,1.2-1.6c0-0.1,0-0.1,0-0.1c0.5-1.4,0.4-2.6-0.4-3.5 M147.2,82.9c0,0-0.1,0-0.1,0.1
	c-0.6,1.5-1.4,2.6-2.6,3.3c-1,0.5-1.9,0.8-2.8,0.7 M123.6,104.3c0.3,0.5,0.8,0.8,1.4,0.9l-0.7-1c-0.3-0.3-0.3-0.8-0.1-1.2
	c0.1-0.5,0.4-0.9,0.8-1.2c0.5-0.4,1-0.5,1.6-0.4c0.4,0,0.8,0.2,1.1,0.6l0.6,0.9c0.2-0.6,0.1-1.2-0.3-1.6c-0.1-0.1-0.2-0.2-0.2-0.2
	c-0.4-0.4-0.8-0.6-1.3-0.6c-0.7-0.1-1.4,0.1-2,0.6c-0.6,0.4-1,1-1.2,1.7c-0.1,0.5-0.1,1,0.1,1.5
	C123.5,104.1,123.6,104.2,123.6,104.3z M127.9,100.9c-0.4-0.6-0.9-0.9-1.5-0.9c-0.7-0.1-1.4,0.1-2,0.6c-0.7,0.5-1.1,1-1.2,1.6
	c-0.2,0.7-0.1,1.3,0.3,1.8 M125,105.2c0.1-0.1,0.1-0.1,0.1,0c-0.1-0.3-0.1-0.6-0.1-1c0.1-0.5,0.5-0.9,1-1.2c0.5-0.3,0.9-0.4,1.4-0.4
	c0.4,0,0.7,0.1,0.9,0.3c0,0,0-0.1,0-0.1l0.3,0.4c0.3,0.4,0.3,0.8,0.2,1.3c-0.1,0.5-0.4,0.9-0.9,1.2c-0.4,0.3-0.9,0.4-1.4,0.4
	c-0.5,0-0.8-0.2-1.1-0.6l-0.1-0.1l0,0L125,105.2z M125.2,105.2c0,0.1,0,0.2,0.1,0.3 M128.7,103.1L128.7,103.1
	c-0.1-0.1-0.2-0.2-0.3-0.3 M212.2,50.6c-10.4,0.7-16,4.7-16.8,12.1c-0.7,6.7,2.4,13.5,9.2,20.5 M161.4,30.6l4.9-2.8 M166.2,21.6
	l-1.4,0.8 M50.4,72.1c7.3-5.4,13.7-12.7,19.1-21.7c2.9-4.8,5.2-9.9,7.1-15.2 M50.2,72.8c7.5-5.5,14-12.9,19.6-22.2
	c3-5.1,5.4-10.3,7.2-15.6 M104.6,144.5c-0.1,0.1-0.2,0.2-0.2,0.3c0,0.4,0.3,0.6,0.9,0.6c0.5,0,0.8-0.2,0.8-0.6
	c0-0.1-0.1-0.2-0.2-0.3c-0.2,0.1-0.4,0.1-0.6,0.1C105,144.6,104.8,144.6,104.6,144.5c0.2-0.1,0.4-0.1,0.7-0.1c0.2,0,0.4,0,0.6,0.1"
	/>
<path id="Layer0_5_2_STROKES" class="st5" d="M147.2,82.9l0.7,0.3 M144.8,82.1l1.1,0.4 M142.9,81.4l0.4,0.2l1.5,0.4 M152,86.7v-2.1
	l-3.2-1.1 M163.3,94.3l2.3,0.9 M152,87.8v-0.6 M161.1,93.5l-9.1-3.2v-2.1 M195.6,105.9L195.6,105.9l-1.6-0.6 M198.9,107.1l-1.8-0.5
	 M196.6,106.4l-0.4-0.2 M167.9,96l9.1,3.3"/>
<path id="Layer0_5_3_STROKES" class="st6" d="M91.9,158.7l4.6,2.1"/>
<path id="Layer0_5_MEMBER_0_1_STROKES" class="st4" d="M149.6,39.3c-1.5,0.2-2.6,1.2-3.4,3"/>
<path id="Layer0_5_MEMBER_1_1_STROKES" class="st4" d="M159.1,47.1c0.4-0.1,0.7-0.3,0.9-0.8c0.2-0.5,0.3-1,0.2-1.5
	c-0.1-0.5-0.3-1-0.7-1.3c-0.3-0.3-0.7-0.5-1.1-0.4c-0.4,0.1-0.7,0.3-1,0.7c-0.2,0.5-0.3,1-0.2,1.5c0.1,0.6,0.3,1,0.7,1.4
	C158.3,47.1,158.7,47.2,159.1,47.1z"/>
<path id="Layer0_5_MEMBER_2_1_STROKES" class="st4" d="M160.7,51.7c-0.4,0.1-0.8-0.1-1.2-0.4c-0.4-0.4-0.7-0.9-0.7-1.5
	c-0.1-0.6-0.1-1.1,0.2-1.5c0.2-0.5,0.6-0.8,1-0.8c0.4-0.1,0.8,0.1,1.2,0.5c0.4,0.3,0.6,0.8,0.7,1.4c0.1,0.6,0.1,1.1-0.2,1.5
	C161.4,51.3,161.1,51.6,160.7,51.7z"/>
<path id="Layer0_5_MEMBER_3_1_STROKES" class="st4" d="M155.9,22.8c-0.6-0.3-1-0.3-1.3-0.1c-0.4,0.2-0.6,0.7-0.6,1.3
	c0,0.6,0.2,1.2,0.6,1.9c0.4,0.6,0.9,1.1,1.4,1.5c0.5,0.3,1,0.3,1.4,0.1c0.4-0.3,0.6-0.7,0.6-1.2"/>
<path id="Layer0_5_MEMBER_4_1_STROKES" class="st4" d="M153.3,24.1c0,0.7,0.2,1.4,0.7,2.3c0.4,0.6,0.8,1.1,1.3,1.5
	c0.5,0.4,1,0.5,1.4,0.5"/>
<path id="Layer0_5_MEMBER_5_1_STROKES" class="st4" d="M162.6,24.2c0.1,0.6,0.3,1.1,0.6,1.5c0.4,0.7,0.8,1.2,1.4,1.5
	c0.5,0.3,1,0.3,1.4,0.1"/>
<path id="Layer0_5_MEMBER_6_1_STROKES" class="st4" d="M154.2,23c-0.4,0.2-0.5,0.7-0.5,1.3c0,0.6,0.2,1.2,0.6,1.9
	c0.4,0.6,0.8,1.1,1.4,1.5c0.5,0.3,1,0.3,1.4,0.1"/>
<path id="Layer0_5_MEMBER_7_1_STROKES" class="st4" d="M148.3,27.1l0.2-8"/>
<path id="Layer0_5_MEMBER_8_1_STROKES" class="st4" d="M144.7,26.1c0.2-1.7,0.2-3.6,0.2-5.9l-0.1-3.7"/>
<path id="Layer0_5_MEMBER_9_1_STROKES" class="st4" d="M145.1,25.9l0.2-8.9"/>
<path id="Layer0_5_MEMBER_10_1_STROKES" class="st4" d="M150.7,34.6c0.6,0.3,1.2,0.4,1.7,0.4h0.3"/>
<path id="Layer0_5_MEMBER_11_1_STROKES" class="st4" d="M149.7,34.4c0.6,0.5,1.4,0.7,2.4,0.7"/>
<path id="Layer0_5_MEMBER_12_1_STROKES" class="st4" d="M161.7,34.3l1.1-0.3"/>
<path id="Layer0_5_MEMBER_13_1_STROKES" class="st4" d="M162,34.1l-8,0.8"/>
<path id="Layer0_5_MEMBER_14_1_STROKES" class="st4" d="M161.7,34.3l-8.1,0.7"/>
<path id="Layer0_5_MEMBER_15_1_STROKES" class="st4" d="M160.8,30.7l0.5-0.2"/>
<path id="Layer0_5_MEMBER_16_1_STROKES" class="st4" d="M160.8,30.7l-6.5,0.5"/>
<path id="Layer0_5_MEMBER_17_1_STROKES" class="st4" d="M164.8,22.3c-0.2-0.2-0.4-0.2-0.7-0.2l-0.5,0.1"/>
<path id="Layer0_5_MEMBER_18_1_STROKES" class="st4" d="M164.2,22.6c-0.3,0.2-0.4,0.5-0.4,1c0,0.4,0.2,0.9,0.5,1.4
	c0.3,0.5,0.6,0.8,1,1.1c0.4,0.2,0.7,0.3,1,0.1"/>
<path id="Layer0_5_MEMBER_19_1_STROKES" class="st4" d="M163,23.9c0,0.4,0.2,0.9,0.6,1.5c0.4,0.6,0.9,1.1,1.4,1.5
	c0.5,0.3,1,0.3,1.4,0.1c0.4-0.3,0.6-0.7,0.6-1.2"/>
<path id="Layer0_5_MEMBER_20_1_STROKES" class="st4" d="M155.4,23.2c-0.3,0.2-0.4,0.5-0.4,1c0,0.5,0.1,0.9,0.4,1.4
	c0.3,0.5,0.7,0.8,1.1,1.1c0.4,0.2,0.8,0.3,1,0.1"/>
<path id="Layer0_5_MEMBER_21_1_STROKES" class="st4" d="M159.4,25.5c0.3-0.2,0.4-0.5,0.4-1c0-0.5-0.2-0.9-0.5-1.4
	c-0.3-0.5-0.6-0.8-1-1.1c-0.4-0.2-0.7-0.3-1-0.1c-0.3,0.2-0.4,0.5-0.4,1c0,0.4,0.2,0.9,0.5,1.4c0.3,0.5,0.6,0.8,1,1.1
	C158.8,25.6,159.1,25.7,159.4,25.5z"/>
<path id="Layer0_5_MEMBER_22_1_STROKES" class="st4" d="M168.2,25c-0.3,0.2-0.6,0.1-1-0.1c-0.4-0.2-0.8-0.6-1.1-1.1
	c-0.3-0.5-0.4-1-0.4-1.5c0-0.5,0.1-0.8,0.4-1c0.3-0.2,0.6-0.1,1,0.1c0.4,0.2,0.8,0.6,1,1.1c0.3,0.5,0.5,1,0.5,1.5
	C168.6,24.6,168.5,24.9,168.2,25z"/>
<path id="Layer0_5_MEMBER_23_1_STROKES" class="st4" d="M162,34.1c0.4,0,0.7-0.1,1-0.3c0.8-0.4,1.3-1,1.5-2c0.2-1,0.2-2-0.2-3.2"/>
<path id="Layer0_5_MEMBER_24_1_STROKES" class="st4" d="M144.7,26.1c-0.2,2.1,0.6,4.1,2.4,6.1c0.8,0.9,1.7,1.7,2.6,2.3"/>
<path id="Layer0_5_MEMBER_25_1_STROKES" class="st4" d="M145.1,25.9c-0.2,2,0.6,4,2.4,6c1,1.2,2.1,2.1,3.3,2.7"/>
<path id="Layer0_5_MEMBER_26_1_STROKES" class="st4" d="M148.3,27c-0.1,0.8,0.1,1.6,0.7,2.5c0.5,0.9,1.2,1.5,2,1.8"/>
<path id="Layer0_5_MEMBER_27_1_STROKES" class="st4" d="M151.3,25.3c0,0.8,0.2,1.5,0.7,2.3c0.4,0.6,0.8,1.1,1.3,1.5
	c0.5,0.4,1,0.5,1.4,0.5"/>
<path id="Layer0_5_MEMBER_28_1_STROKES" class="st4" d="M154.8,29.6l8.8-0.6"/>
<path id="Layer0_5_MEMBER_29_1_STROKES" class="st4" d="M186.3,45c2.1-8.1,2.9-16.1,2.1-23.7c-0.8-7.7-2.9-14.8-6.4-21.3"/>
<path id="Layer0_5_MEMBER_30_1_STROKES" class="st4" d="M179.2,43.1c1.9-7.2,2.5-14.2,1.9-21c-0.6-6.8-2.4-13-5.5-18.6"/>
<path id="Layer0_5_MEMBER_32_1_STROKES" class="st4" d="M157.5,16c0.4-0.3,0.6-0.7,0.6-1.1"/>
<path id="Layer0_5_MEMBER_33_1_STROKES" class="st4" d="M153.1,14.3c-0.3-0.8-0.8-1.4-1.4-1.9"/>
<path id="Layer0_5_MEMBER_34_1_STROKES" class="st4" d="M148.4,10.3c0.3,0.7,0.7,1.4,1.4,1.9"/>
<path id="Layer0_5_MEMBER_35_1_STROKES" class="st4" d="M149.7,12.2c-0.8,1-1.3,2.2-1.4,3.5"/>
<path id="Layer0_5_MEMBER_36_1_STROKES" class="st4" d="M148.4,15.7c-1.1,0.2-2,0.8-2.8,1.6"/>
<path id="Layer0_5_MEMBER_37_1_STROKES" class="st4" d="M149,19.4c1.2-0.3,2.1-0.8,2.8-1.6"/>
<path id="Layer0_5_MEMBER_38_1_STROKES" class="st4" d="M145,16.6c0.5,0.3,1.1,0.2,1.7-0.2c0.6-0.4,1.2-1,1.7-1.7
	c0.5-0.8,0.7-1.6,0.7-2.3s-0.2-1.3-0.7-1.6"/>
<path id="Layer0_5_MEMBER_39_1_STROKES" class="st4" d="M142.8,14.6c0.4,0.2,0.8,0.2,1.4-0.1c0.5-0.3,1-0.8,1.4-1.5
	c0.4-0.6,0.6-1.3,0.6-1.9c0-0.6-0.1-1-0.5-1.3"/>
<path id="Layer0_5_MEMBER_40_1_STROKES" class="st4" d="M140,10.2c-0.5,0.4-0.7,1-0.7,1.7"/>
<path id="Layer0_5_MEMBER_41_1_STROKES" class="st4" d="M139.2,12l0.5,0.6"/>
<path id="Layer0_5_MEMBER_42_1_STROKES" class="st4" d="M139.7,12.6l0.4,0.3"/>
<path id="Layer0_5_MEMBER_46_1_STROKES" class="st4" d="M138.7,11.2c0,0.5,0.1,0.9,0.4,1.3c0.2,0.4,0.5,0.7,0.9,1"/>
<path id="Layer0_5_MEMBER_47_1_STROKES" class="st4" d="M143.9,14.8c-0.1,0.7,0.1,1.2,0.6,1.5c0.5,0.3,1,0.3,1.7-0.1
	c0.6-0.4,1.2-1,1.7-1.8c0.5-0.8,0.7-1.6,0.7-2.3c0-0.8-0.2-1.3-0.6-1.6c-0.5-0.2-1-0.2-1.6,0.2"/>
<path id="Layer0_5_MEMBER_48_1_STROKES" class="st4" d="M150.3,19.7c0.5,0.3,1,0.2,1.6-0.2c0.6-0.4,1.2-1,1.7-1.7
	c0.5-0.8,0.7-1.6,0.7-2.3c0-0.8-0.2-1.3-0.6-1.5"/>
<path id="Layer0_5_MEMBER_49_1_STROKES" class="st4" d="M152.7,19.9c0.3,0.2,0.7,0.2,1.1-0.1c0.5-0.3,0.8-0.7,1.2-1.2
	c0.3-0.5,0.5-1.1,0.5-1.6c0-0.5-0.2-0.9-0.5-1.1"/>
<path id="Layer0_5_MEMBER_50_1_STROKES" class="st4" d="M154.2,11.5c-0.4,0.2-0.5,0.6-0.5,1.2s0.2,1.3,0.6,1.9
	c0,0.1,0.2,0.3,0.5,0.7"/>
<path id="Layer0_5_MEMBER_51_1_STROKES" class="st4" d="M155.3,11c-0.5-0.2-0.9-0.2-1.2,0.1c-0.5,0.2-0.7,0.7-0.7,1.4"/>
<path id="Layer0_5_MEMBER_52_1_STROKES" class="st4" d="M155.9,11.2c-0.6-0.3-1-0.3-1.3-0.1c-0.4,0.2-0.6,0.7-0.6,1.3
	c0,0.6,0.2,1.2,0.6,1.9l0.6,0.7"/>
<path id="Layer0_5_MEMBER_53_1_STROKES" class="st4" d="M155.4,11.6c-0.3,0.2-0.4,0.5-0.4,1s0.1,0.9,0.4,1.4
	c0.3,0.5,0.7,0.8,1.1,1.1c0.4,0.2,0.8,0.3,1,0.1"/>
<path id="Layer0_5_MEMBER_54_1_STROKES" class="st4" d="M159.4,13.9c-0.3,0.2-0.6,0.2-1-0.1c-0.4-0.3-0.8-0.6-1-1.1
	c-0.3-0.5-0.5-1-0.5-1.4c0-0.5,0.1-0.8,0.4-1s0.6-0.1,1,0.1c0.4,0.2,0.7,0.6,1,1.1c0.3,0.5,0.5,1,0.5,1.4
	C159.8,13.4,159.7,13.7,159.4,13.9z"/>
<path id="Layer0_5_MEMBER_55_1_STROKES" class="st4" d="M151.8,17.8c0.8-1,1.3-2.2,1.4-3.5"/>
<path id="Layer0_5_MEMBER_56_1_STROKES" class="st4" d="M189.5,97.1c1.7,0.7,2.6,2,2.9,4.1l1.2,0.6c0.6,0.2,1,0.6,1.4,1.2
	c0.7,0.8,0.8,1.8,0.4,2.9c0,0.1,0,0.1,0,0.1c-0.2,0.5-0.5,0.9-0.9,1.2c-0.4,0.4-0.9,0.6-1.3,0.6c-0.6,0.3-1.2,0.4-1.9,0.2h0
	c-0.1,0-0.1-0.1-0.1-0.1l-1.2-0.4l0.1,0.1c-1.6,1.5-3.3,1.9-4.9,1.2l-1.3-0.4c-1.2-1.1-2-2.5-2.5-4.1h0l-0.1-0.1l-1-0.3l-1-0.9
	l-0.7-0.8c-0.3-0.3-0.5-0.7-0.6-1.2c0-0.5,0-1.1,0.2-1.6c0.4-1.2,1.1-1.8,2.1-1.9l1.3-0.1l1.1,0.1l0.9,0.4l0.4,0.1
	c1.3-0.8,2.8-1.4,4.4-1.6L189.5,97.1l-4.6,1.8l-0.9,2.5c0.5-1.3,1.3-2.2,2.3-2.9c1.2-0.7,2.4-0.9,3.5-0.4c1.3,0.5,2.1,1.5,2.4,3.2
	h0.2 M184,101.3l-0.3,0.8c-0.4,1.3-0.5,2.5-0.2,3.7c0.2,0.3,0.3,0.6,0.5,0.9c0,0.1,0,0.1,0,0.2h0c0.4,0.7,1,1.2,1.8,1.5
	c1.3,0.5,2.6,0.2,3.9-0.8l-0.2-0.1l-1-0.3c-0.5-0.3-0.9-0.7-1.2-1.2l-0.6-0.3c-0.5-0.2-0.9-0.6-1.1-1.2c-0.2-0.6-0.1-1.3,0.1-2
	c0.3-0.7,0.7-1.2,1.2-1.6c0.6-0.4,1.1-0.4,1.7-0.2l0.5,0.2c0.6-0.3,1.1-0.3,1.6-0.1l1.2,0.4l0.1,0.1 M194.8,104.6
	c-0.1-0.4-0.3-0.6-0.5-0.6c-0.3-0.2-0.6-0.1-0.9,0.1s-0.5,0.5-0.6,0.9c-0.2,0.4-0.2,0.8-0.1,1.1c0.1,0.3,0.3,0.5,0.6,0.6
	c0.3,0.2,0.6,0.1,0.9-0.1 M191.8,102.5c-0.6,0.4-1,0.9-1.3,1.5c-0.2,0.7-0.3,1.4-0.1,2.1c0.2,0.6,0.6,1.1,1.1,1.2l0.9,0.4
	c-0.5-0.3-0.9-0.7-1.2-1.4c-0.2-0.6-0.2-1.3,0.1-2.1c0.3-0.7,0.8-1.2,1.4-1.6c0.4-0.3,0.9-0.4,1.4-0.3l-0.8-0.2
	C192.9,102.1,192.4,102.2,191.8,102.5z M192.1,106.3c0.2,0.5,0.5,0.9,0.9,1c0.4,0.1,0.8,0.1,1.2-0.1c0.4-0.4,0.8-0.8,1-1.2
	c0.2-0.6,0.2-1.2,0.1-1.7c-0.2-0.5-0.5-0.8-0.9-1c-0.6-0.2-1.1-0.1-1.5,0.4 M194.9,103l-0.6-0.3l-0.2-0.1c0,0,0.1,0,0.1,0.1l0.1,0.1
	 M189.2,100.7c-0.1,0.1-0.3,0.1-0.4,0.2c-0.7,0.4-1.2,1.1-1.6,1.9c-0.4,0.8-0.4,1.7-0.1,2.5c0,0.2,0,0.3,0.1,0.4 M191.1,107.9
	c-0.6-0.3-1-0.8-1.1-1.5c-0.3-0.8-0.3-1.6,0.1-2.4c0.3-0.9,0.8-1.5,1.5-1.9c0.7-0.5,1.4-0.6,2.1-0.3 M189.9,107.5l-0.1-0.1
	 M189.5,107.4c-0.3-0.2-0.6-0.5-0.8-0.9c-0.3-0.5-0.4-1.1-0.4-1.7 M192.4,107.8L192.4,107.8c0.4,0,0.6,0,0.8,0 M192,101.1
	c-0.8-0.3-1.6,0-2.4,0.8 M181.4,97.5c-0.5,0.1-1,0.3-1.4,0.7c-0.5,0.4-0.8,1-1.1,1.7c-0.4,1.3-0.3,2.4,0.2,3.2 M183.8,98.1l-0.1,0.1
	l-0.2,0.1v0.1l1.4,0.4 M183.3,98c-0.9-0.3-1.8-0.1-2.6,0.8 M184,101.3c-0.1,0.1-0.2,0.2-0.2,0.3c-0.1,0.1-0.1,0.2-0.1,0.4l-1.1,2.5
	c0.5,0.7,0.9,1.4,1.4,2.1 M179.5,101.9c0.1,1.2,0.6,2,1.6,2.4l0,0.1 M182.6,104.5l-1.4-0.6v0.2v0.2 M183.7,98.2
	c-0.6-0.1-1.2,0.1-1.7,0.6c-0.6,0.4-1,1-1.3,1.7c-0.2,0.7-0.3,1.4-0.2,2c0.1,0.7,0.4,1.2,0.8,1.6 M185.1,108.9
	c-0.3-0.7-0.7-1.4-1.1-2.1 M181.2,104c0-2.2,0.8-4.1,2.3-5.6"/>
<path id="Layer0_5_MEMBER_57_1_STROKES" class="st4" d="M161.6,49.8l1.2,0.7c0.1-0.1,0.1-0.1,0.1-0.1c0.4-0.2,0.8-0.2,1.2,0l0.6,0.3
	l0.1-0.1l0.4,0.3l1.2,0.8l1.8,1.1l0.8,0.6c0,0,0.1,0.1,0.2,0.2c0.2,0.2,0.3,0.5,0.3,1l0.4,0.2c2.8-13.8,2.8-26,0-36.6
	c-2.8-10.5-8-18-15.7-22.5c-1.6-0.9-3.2-1.7-4.7-2.3 M149.4,39.5h0.9l0.9,0.2l0.4,0.1l0.1,0.6c0.2,0.6,0.5,0.9,0.9,0.8
	c0.2-0.1,0.3-0.2,0.4-0.4l1.5,1.8l0.9-0.1c0.1,0,0.2,0,0.4,0c0.8,0,1.5,0.3,1.9,1l0.5-0.1 M157.6,43.4l-0.3,0.1l-0.9,0.1
	c-0.5,0-0.8,0.3-1,0.8c-0.2,0.4-0.3,0.9-0.2,1.5c0.1,0.5,0.4,1,0.8,1.3c0.3,0.3,0.7,0.4,1.1,0.3l-0.6,0.2l-0.2,0.6l1.5-0.2L158,48
	l0.5-0.2h0.1l0.5-0.4l-0.4-0.1l-1.7,0.2 M155.3,42.3c-0.3,0.1-0.5,0.1-0.7,0.2c-0.1,0-0.2,0.1-0.2,0.2c-0.4,0.3-0.7,0.6-0.9,1.1
	l-1.9,4.5l-0.3,1.2l-0.8,5.2c0,0.3,0,0.8,0,1.5c0.2,1,0.6,1.8,1.3,2.3c0.6,0.6,1.2,0.8,1.9,0.7c0.9-0.1,1.5-0.6,1.8-1.4l0.1-0.3
	l-0.4,0.1c-0.3,0.5-0.7,0.8-1.2,0.9h0c-0.1,0-0.2,0-0.3,0h-0.1c-0.5,0.1-1.1,0-1.6-0.4c-0.4-0.5-0.7-1.1-0.9-1.8
	c-0.1-0.8-0.1-1.4,0.2-2.1c0.3-0.6,0.7-0.9,1.2-0.9h0.1h0.1c0,0,0.1-0.1,0.2-0.2c0.5-0.1,1,0,1.5,0.4l0.8,0h0c0.4-0.1,0.8,0,1.1,0.3
	c0.2,0.1,0.4,0.3,0.4,0.6l0.5-1.3l-0.8-0.2l-0.2-0.2l-1.4,0.3 M157.3,43.5c-0.5-0.5-0.9-0.7-1.4-0.6l-0.2,0.1
	c-0.5,0.1-0.9,0.5-1.1,1c-0.3,0.6-0.4,1.3-0.2,2c0.2,1.1,0.6,1.8,1.3,2.2c0.1,0.1,0.2,0.1,0.2,0.1h0.2 M154.7,42.6l-0.2-0.2
	l-1.2,0.2c-0.8,0.2-1.4,0.7-1.8,1.6l-0.9,2.2l-1,2.3l-0.3,1.1l-0.5,3.9l-0.2,1.3c0,0.5,0,1,0,1.5c0.2,1,0.6,1.7,1.2,2.3
	c0.6,0.6,1.2,0.8,1.9,0.8h0.1l2-0.3l-0.8,1.6c-0.9,1.8-2.2,2.8-3.9,3c-0.1,0-0.2,0-0.3,0.1c-0.1,0-0.3,0-0.5,0
	c-0.6,0-1.1-0.1-1.6-0.3c-1.3-0.5-2.3-1.5-3.1-2.9c-0.3-0.6-0.5-1.2-0.6-1.9c-0.4-1.4-0.5-2.8-0.3-4.1 M155.6,43h-0.2
	c-0.6,0.1-1,0.5-1.3,1.1s-0.4,1.3-0.2,2c0.2,1.2,0.8,1.9,1.7,2.1 M153.2,42.6l-3.1,0.6c-0.7,0.2-1.2,0.6-1.5,1.4l-1.8,4.4l-1.2,6.7
	l0,0.9c0,0.9,0.3,1.7,0.8,2.4c0.5,0.6,1.1,1,1.7,1.2h0.4l3.2-0.6 M148.8,53.7l0.5-4.6l1.3-2.8 M155.9,48.3l-1.4,0.3 M156.5,52.6
	l-1.2-0.9l0.1-0.6l2.4-0.4l0.6,0.4l0,0.2l0.6,0.5l0.9,0.4L160,52h0.2l-0.1,0.2l0.3,0.2l0.1,0.3l-0.1,0.3l-0.1,0.2l-1,0.2l1.3,0.8
	l0.3,0.2l0.1,0.2c0.3,0,0.6,0,0.9-0.2c0.4-0.2,0.8-0.6,1.1-1.1c0.3-0.5,0.4-1,0.4-1.5c0.1-0.3,0-0.7-0.2-1l-0.4-0.1 M158,48
	l-0.4,1.6l-0.1,0.2l-0.2,0.1l-2.2,0.4l0.1-0.2l0.2-1.3l2.3-0.6 M153.7,58.4c-0.4,0-0.8-0.2-1.1-0.5c-0.5-0.5-0.8-1.1-1-1.8
	c-0.2-0.8-0.1-1.4,0.2-2.1c0.2-0.5,0.6-0.8,0.9-0.9 M154.6,53.4l-1.1,0.2c-0.4,0.1-0.7,0.4-0.9,0.8c-0.2,0.5-0.3,1-0.2,1.5
	c0.1,0.6,0.4,1.1,0.8,1.3c0.4,0.4,0.8,0.5,1.1,0.4l1.1-0.1 M155.4,53.3c-0.5,0-0.8,0.3-1,0.7c-0.2,0.5-0.3,1-0.2,1.6
	c0.1,0.5,0.4,0.9,0.8,1.2c0.3,0.3,0.6,0.4,0.9,0.5c0,0.1,0.1,0.1,0.2,0h0.1c0.4-0.1,0.6-0.4,0.9-0.8c0.3-0.5,0.3-1,0.1-1.5
	c0-0.3-0.1-0.6-0.2-0.8 M155.9,57.3l-0.1,0.1 M165.2,50.9l-0.2-0.1L165.2,50.9v0.2l0,0l1,0.7c-0.3,0.3-0.5,0.8-0.6,1.2
	c0,0,0,0,0,0.1v0.2c-0.1,0.3-0.2,0.6-0.2,1v0.4l0.1,0l2.8,1.8v-0.1c0.6-0.7,0.9-1.6,0.9-2.6l0-0.4 M165.6,53.1
	c0-0.3,0.1-0.6,0.1-0.8c0-0.6-0.2-1-0.5-1.2 M165,50.8l-0.3-0.2 M89.3,28.2c-1.1,9.4-4.4,18.8-10,28.3c-3.2,5.2-6.6,9.7-10.1,13.5
	l0.6,1.2c0.4,0.7,0.3,1.4-0.2,2.3l1.6,2.9c0,0,0.1,0.1,0.1,0.1c0.3,0.4,0.3,0.9,0,1.5l0.9,1.6v0.1c0.1,0.3,0.1,0.6-0.1,1.1
	l17.4,32.1c0.3,0.6,0.6,1.2,1.1,1.8l1.3-1.4c-0.3-0.4-0.4-0.7-0.4-0.9l7.9-9.7c0-0.1,0-0.1,0.1-0.1c0.1-0.2,0.7-0.1,1.6,0.4v-0.4
	l0.9-0.9l0.1-0.1c0-0.1,0.1-0.1,0.1-0.1l0.1,0.1l0.5-0.5c-0.1-0.1-0.1-0.2,0-0.3l0.5-0.8l-0.2-0.4l1.5-1.8c0.2-0.2,0.5-0.4,0.8-0.6
	h0.1c0.2-0.1,0.4-0.2,0.6-0.2c0.2,0,0.4,0,0.7,0c0.4,0,0.8,0.1,1.2,0.3l2.8,1.6c0.3,0.2,0.5,0.5,0.5,0.9c0.7-0.3,1.3-0.4,1.8-0.2
	l0.5-0.1l0.9,0.5l3.2-4.3c0.8-1,1.9-1.8,3.2-2.4c1.7-0.7,3.3-0.8,4.8-0.3c1.6,0.4,2.6,1.3,3.2,2.6v0.1l4.7,11.1
	c0.5,1.3,0.5,2.7,0,4.2c-0.3,0.8-0.6,1.2-0.8,1.3l0.1,0.5c0,0.3-0.1,0.6-0.2,0.9l0.1,0.1l0,0c0.2,0.4,0.3,0.9,0.2,1.4
	c-0.1,0.5-0.4,0.9-0.9,1.2c-0.4,0.4-0.9,0.6-1.5,0.6c-0.5-0.1-0.9-0.3-1.1-0.7c-0.1,0-0.1-0.1-0.2-0.1l-0.1-0.1l-9.9,0.3
	c-0.2,0.2-0.3,0.3-0.5,0.4c-0.5,0.3-1,0.5-1.5,0.5c-0.5,0-0.8-0.2-1.1-0.6v-0.1l-0.1-0.2c-0.7,0.1-1.2-0.1-1.7-0.3h-1.8
	c-2.1-0.1-3.6-0.9-4.6-2.4c-0.5-0.4-0.8-1-0.9-1.8c-0.1-0.8-0.1-1.7,0.2-2.6c0.2-1,0.6-1.9,1.3-2.6v-0.1l1-1.1v-0.1
	c-0.5-0.2-0.7-0.8-0.8-1.6c-0.4,0.2-0.7,0.2-0.9,0l-0.4,0.2h-0.2l-0.2,0.2c0,0.1-0.1,0.1-0.3,0.1l-0.5,0.6c0.1,0.1,0.1,0.2,0.1,0.2
	l-0.2,0.5l-0.8,1.1c0.6,0.6,0.9,1,0.8,1.2l-8,9.9c-0.1,0.2-0.4,0.1-0.9-0.1l-2.2,2.4c0.3,0.3,0.6,0.6,1,0.9c2.6,2.5,5,4.3,7.1,5.4
	l17.9,10.2c2.1-1.7,4.1-3.6,6.1-5.5c7.8-7.4,14.9-15.9,21.2-25.6c1.2-1.9,2.4-3.8,3.6-5.8c1.6-2.6,3-5.2,4.3-7.8
	c1.4-2.8,2.8-5.6,4.2-8.5c3.6-8.1,6.3-16.2,8.3-24.5l-1.6-0.9c-0.5,0.2-0.9,0.3-1.2,0.2l-3-1.7l-0.9-0.7l-0.8-0.6
	c0.2,0.2,0.6,0.1,1.1-0.2c0.6-0.3,1.1-0.8,1.4-1.5c0.4-0.7,0.6-1.3,0.7-1.9c0-0.6-0.2-1.1-0.5-1.4 M164.7,50.6l0.2,0.2 M162.9,50.4
	c0.1,0.1,0.2,0.2,0.2,0.2l0.4,0.2c0.4,0.2,0.6,0.6,0.6,1.1c-0.1,0.5-0.2,1.1-0.6,1.7c-0.3,0.5-0.7,0.9-1.2,1.2
	c-0.4,0.3-0.8,0.3-1.2,0l-0.3-0.3c-0.1,0-0.2,0-0.3-0.1c0,0.5,0.2,0.8,0.5,0.9l0,0.1h0.1l0.1,0h0.1 M162.2,55.9
	c0.4,0.2,0.9,0.2,1.4-0.1c0.1-0.1,0.2-0.2,0.3-0.2c0.1-0.1,0.2-0.2,0.3-0.2c0.3-0.3,0.6-0.7,0.8-1.1c0.3-0.4,0.4-0.7,0.6-0.9
	 M165.5,54.8c-0.5,0.1-0.9,0.3-1.2,0.6 M159.9,52.1l-0.1,0.1l-0.8-0.4l-0.8-0.5h-0.6l-2.3,0.4 M158.4,51.2h-0.1 M159.3,53.3l-0.4,0
	l-0.5,0l-0.9-0.4 M160.6,54.3c0,0,0-0.1,0-0.2 M159.8,52.6l0.6,0.4 M163.9,55.6c-0.3,0.3-0.6,0.6-0.8,1 M155.1,50l2.2-0.2
	 M114.4,100l2.6,1.5c0.1,0.2,0.3,0.4,0.4,0.6l3.2-4.4c0.3-0.4,0.6-0.7,0.9-0.9c0.6-0.4,1.3-0.6,2.1-0.6c0.7,0,1.3,0.3,1.8,0.9
	l1.5,2.1l0.1,0.1v0.1l1,1.2l0.9,2l1.5,0.8l1.4,2l-2.2-1.3l1.2,3.2l1.1-1.4 M126.9,99.1c-0.4-0.5-0.8-0.7-1.3-0.8
	c-0.2-0.1-0.3-0.1-0.5-0.1c-0.8,0-1.6,0.2-2.3,0.8c-0.3,0.2-0.6,0.4-0.9,0.8l-2.8,3.6c0.2,0.3,0.3,0.6,0.2,1.1v0.1l0.8,0.4
	c0.3,0.2,0.5,0.6,0.5,1.1c0,0.5-0.2,1.1-0.5,1.7c-0.3,0.5-0.7,0.9-1.2,1.1c-0.4,0.3-0.8,0.3-1.2,0.1l-0.6-0.3l1.2,1.5l3.1-3.9
	l-1.2-1.5l2.9-3.6c0.3-0.3,0.6-0.6,0.8-0.8c0.7-0.5,1.4-0.8,2.3-0.8c0.8,0.1,1.4,0.3,1.8,0.8 M114.4,116c-0.1-0.1-0.3-0.2-0.4-0.4
	l-1.1-1.5c0,0,0-0.1,0-0.2v-0.1l-1.5-1.9c-0.3-0.4-0.5-0.9-0.4-1.6c0.1-0.7,0.3-1.2,0.8-1.6l1-1.1l-1.9-1.2l-0.6-0.8
	c0.4,0.2,0.9,0.2,1.4-0.1c0.1-0.1,0.1-0.1,0.1-0.1c0.1-0.1,0.2-0.1,0.3-0.2c0.6-0.4,1.1-0.9,1.4-1.6c0.1-0.3,0.3-0.5,0.4-0.8
	c0-0.1,0.1-0.2,0.1-0.3c0.2-0.5,0.2-0.9,0.2-1.3c0-0.4,0-0.7-0.1-1c-0.2-0.2-0.3-0.4-0.4-0.6l-0.6-0.2c0.5,0.3,0.7,0.8,0.7,1.6
	c0,0.8-0.2,1.5-0.8,2.2c-0.5,0.8-1.1,1.4-1.8,1.8c-0.5,0.3-1,0.4-1.4,0.3l-1,1.2h-0.1c-0.8,1.1-1.3,2.2-1.5,3.4
	c-0.2,1.2,0,2.3,0.7,3.3 M114,100.4c0.2,0.3,0.5,0.6,0.8,0.9l3.3,2.1c0-0.3-0.2-0.6-0.4-0.9c-0.1-0.2-0.2-0.3-0.4-0.4 M113.5,99.5
	c0,0.1,0.1,0.2,0.1,0.3 M113,99.6L113,99.6 M107.4,104l-2.1-1.4v-0.2L105,102l1.4-1.9c0.2-0.1,0.5-0.3,1-0.6
	c0.6-0.1,1.1-0.1,1.4,0.1l0.4,0.2l1.4,0.8l0.2,0.3l0.1,0.3l-2,2.5l-0.3,0.1H108 M108.9,103.7c0.1,0,0.3-0.1,0.5-0.2
	c0.5-0.3,0.9-0.8,1.3-1.5c0.4-0.6,0.6-1.2,0.6-1.8c0-0.2,0-0.3,0-0.4 M113.8,103.1c-0.2,0.5-0.3,1.1-0.3,1.7v0l3.4,2.1
	c0.7-0.9,1.1-2.1,1.2-3.6 M114.8,101.3c-0.4,0.4-0.7,0.9-0.9,1.4 M110.7,100.9l-1.6-1.1c-0.2,0-0.3,0-0.4,0
	c-0.5-0.3-1.1-0.2-1.7,0.3l-0.5,0.5l-1.4,1.8 M108.8,99.8c0-0.1-0.1-0.1-0.1-0.2 M106.4,104.8v0.1c-0.3,0.2-0.8,0-1.5-0.5v0
	c0.4,0.2,0.6,0.4,0.8,0.5c0.4,0.2,0.7,0.2,0.7,0.1h0.1 M109.6,105.4c0,0.1,0.1,0.1,0.2,0.1 M111.5,105.7c-0.4,0.2-0.7,0.5-0.8,0.8
	 M116.9,106.9c-0.3,0.2-0.5,0.4-0.8,0.7c-0.5,0.3-1,0.6-1.6,0.8l0.4,0.2l0.3,0.2c0.5,0.3,1.1,0.2,1.7-0.2c0.7-0.4,1.2-0.9,1.6-1.7
	c0.5-0.8,0.7-1.6,0.8-2.3 M112.7,107.7l1.4,0.9c0.2-0.1,0.3-0.1,0.4-0.2 M115,108.6l-1.8,2.2c-0.4,0.5-0.6,1.1-0.8,1.7
	c0,0.5,0.1,0.9,0.4,1.3 M113.5,104.8c-0.6,0.2-1.1,0.4-1.5,0.6 M105.7,105c0.2,0.2,0.4,0.4,0.6,0.6 M119.2,103.4
	c-0.2-0.1-0.3-0.3-0.4-0.4l-1-0.5 M113.9,115.5c-0.3-0.5-0.4-1-0.4-1.6c0.1-0.6,0.3-1.2,0.8-1.7l2.9-3.6v0.1 M102.1,101.6
	L102.1,101.6l-0.1,0.1c0,0.3,0.2,0.6,0.7,1.1c0.1,0.1,0.2,0.2,0.4,0.4c-0.8-0.7-1.1-1.1-0.9-1.3l0.1-0.2 M101.1,103l0.7-0.9l0.1-0.4
	 M102.7,102.7c-0.3-0.2-0.6-0.4-0.8-0.6 M104.8,104.4c-0.1,0-0.1-0.1-0.2-0.1c-0.1-0.1-0.2-0.2-0.2-0.2l-0.1,0
	c-0.1-0.1-0.2-0.2-0.3-0.3c-0.3-0.2-0.6-0.5-0.8-0.7c0.3,0.3,0.6,0.7,0.9,1.1C104.3,104.2,104.6,104.3,104.8,104.4 M102.8,101
	c0.1,0.4,0.7,1,1.8,1.8c1,0.8,1.8,1.3,2.2,1.4 M99.4,102.7c0,0.2,0.2,0.6,0.7,1.1c0.5,0.6,1.2,1.3,2.1,2.1c0.9,0.7,1.8,1.3,2.6,1.7
	c0.8,0.4,1.3,0.5,1.4,0.3 M104,104.2l-0.9,1.1c0.6,0.7,1.4,1.2,2.2,1.3v0.1 M103.2,105.2c-0.9-0.5-1.6-1.2-2.1-2.2 M103.3,100
	l2.1-2.8 M91.9,113.3c0,0.1,0.1,0.2,0.3,0.3c0.6,0.7,1.3,1.4,2.2,2.1c1,0.8,1.8,1.4,2.6,1.8c0.1,0,0.2,0.1,0.4,0.2 M68.3,133.3
	c7.1-3.8,13.9-9.3,20.4-16.5c-0.6-0.8-1.1-1.7-1.6-2.6L69.8,82c-0.4-0.1-0.7-0.3-0.8-0.6l-1-1.7c-0.6-0.1-1-0.4-1.2-0.8l-0.1-0.1
	L66,77.7l-2,2.1l0.4,0.8c0.2,0.3,0.2,0.6-0.1,1.1c-0.2,0.4-0.5,0.8-1.1,1.1c-0.5,0.3-1,0.4-1.5,0.2c-0.5,0-0.8-0.2-0.9-0.5v-0.1
	l-0.6-1c-1.3,0.3-2.2,0-2.6-0.9l-0.2-0.6c-3.8,2.3-7.4,3.9-10.7,4.8 M88.7,116.8c1.2,1.8,2.8,3.6,4.6,5.4c0.3,0.2,0.5,0.4,0.8,0.6
	c2.5,2.5,5.1,4.4,7.7,5.9l17,9.8l5.4,3.1l4,2.4l24.1,13.7 M90.6,114.7c1.2,1.8,2.7,3.6,4.5,5.4 M118.6,112.8l0.8,1.1
	c0.1-0.6,0-1.1-0.3-1.6c-0.1-0.1-0.2-0.2-0.3-0.3c-0.3-0.3-0.7-0.4-1.3-0.4c-0.7,0-1.4,0.2-2,0.6c-0.6,0.5-1,1-1.2,1.7
	c-0.1,0.5-0.1,0.9,0.1,1.3c0,0.2,0.1,0.3,0.2,0.4c0.3,0.4,0.8,0.7,1.5,0.8l-0.8-0.9v-0.1c-0.3-0.3-0.4-0.7-0.2-1.2
	c0.1-0.5,0.4-0.9,0.8-1.2c0.5-0.4,1-0.5,1.5-0.5C117.9,112.3,118.3,112.5,118.6,112.8z M116.2,116.5c-0.2-0.3-0.3-0.7-0.2-1.1
	c0.1-0.6,0.4-1,0.9-1.3c0.4-0.3,0.9-0.5,1.5-0.4c0.4,0,0.8,0.2,1.1,0.6l-0.2-0.4 M116,116.3L116,116.3 M119.5,114.2
	c0.2,0.4,0.3,0.8,0.2,1.3c-0.1,0.3-0.2,0.6-0.4,0.8 M118.7,111.9c-0.4-0.5-0.9-0.8-1.6-0.8c-0.6,0-1.3,0.2-1.9,0.6
	c-0.6,0.5-1,1-1.2,1.7c-0.2,0.7-0.1,1.2,0.3,1.6 M129.5,104l-0.7-1.5 M120.2,104.8l7.8,4.6l1.2,1.7l-0.1,0.1
	c0.6-0.2,1.1-0.3,1.6-0.3c0.5,0.1,0.9,0.4,1.2,0.9c0.1,0,0.2,0.1,0.3,0.2c0.3,0.5,0.4,1,0.2,1.6l0.1,0.2 M130.8,107.2l1.9,4.7v0.4
	 M132.5,113.6l-0.7-0.9c-0.2-0.4-0.6-0.6-1.2-0.6c-0.5,0-1,0.1-1.4,0.5c-0.4,0.3-0.7,0.7-0.9,1.2c-0.1,0.5-0.1,0.9,0.2,1.2l0.6,1
	h0.1c-0.1-0.3-0.1-0.6,0-0.9c0.2-0.5,0.5-0.9,0.9-1.3c0.5-0.3,1-0.5,1.5-0.5C132.1,113.3,132.3,113.4,132.5,113.6L132.5,113.6z
	 M132.5,113.6c0.1,0.1,0.2,0.1,0.3,0.2 M129.1,111.2l-0.6,0.8l0.2-0.1c0.6-0.4,1.3-0.6,1.9-0.6c0.6,0.1,1,0.2,1.4,0.6 M129.3,116
	L129.3,116c-0.7-0.2-1.2-0.4-1.5-0.8c0-0.1-0.1-0.2-0.1-0.3c-0.2-0.3-0.4-0.7-0.4-1.1l0.2-0.2c0.1-0.3,0.2-0.5,0.4-0.8l-1.8,2.1
	l-7.8-4.7 M128.5,111.9l-0.6,0.9 M127.4,113.6c-0.1,0.4,0,0.9,0.2,1.4 M121.4,106.3l7.8,4.7 M202.8,38.6c-2.2-0.4-4.7,0-7.5,1.1
	c-2.8,1.1-5.4,2.8-7.9,5c-0.2,0.2-0.6,0.5-1,1c0.1,0.1,0.1,0.2,0.1,0.3l-3.1,11.5l0,0.1c-0.2,0.4-0.7,0.7-1.6,0.7l-1.9,8
	c-0.1,0.9-0.2,1.9-0.2,2.9c0,4.3,1.2,8.2,3.8,11.7 M186.4,45.8c-0.1-0.4-0.4-0.8-0.9-1.2c-0.7-0.5-1.7-0.8-2.8-1.1
	c-1.2-0.3-2.2-0.4-3-0.4c-0.9,0.1-1.4,0.3-1.5,0.8L175,55.5c0.1-0.4,0.6-0.7,1.6-0.8c0.9-0.1,1.9,0,3,0.3c1.1,0.3,2,0.7,2.8,1.2
	c0.7,0.5,1,0.9,0.9,1.3 M168.9,53.3l0.2,0.2l-2.7-1.8 M169.4,54.5L169.4,54.5c0,0.7-0.2,1.4-0.6,2c-0.4,0.6-0.9,1.1-1.4,1.4
	c-0.1,0.1-0.2,0.1-0.2,0.2 M181.7,58.4c-0.1,0-0.2,0-0.3,0l0.2-0.8l-0.4-0.3l-0.6-0.5l-1-0.4l-0.2,1.1l0.4,0.4l0.6,0.3v0
	c0.1,0,0.2,0,0.3,0.1l0.6,0.2l-0.2,0.5l-0.3,0.4l-0.1,0.1c0.1,0.1,0,0.3-0.1,0.6l0.4,0.2l-0.5,1.9c-0.1,0.4-0.4,0.7-0.8,0.8
	l-0.3,0.7c-0.8,0.7-1.7,0.8-2.6,0.3l-0.6-0.4l-0.5-0.1l-0.9-0.8l-0.2-0.1l-0.1-0.1c-0.1,0-0.2-0.1-0.2-0.2c-0.1-0.1-0.1-0.2-0.1-0.3
	l-5.3-3.2 M178.9,57.7c-0.3-0.1-0.6-0.2-0.9-0.2l2.1,0.6C179.8,58,179.4,57.8,178.9,57.7z M180.3,58.2l-0.2-0.1
	c0.1,0.1,0.1,0.2,0.2,0.2c0.4,0.2,0.6,0.5,0.4,0.7v0.5l-0.2,0.1c0.1,0,0.1,0,0.2,0 M181.2,57.3c0.2-0.6-0.4-1.1-1.8-1.5
	c-0.6-0.1-1.2-0.2-1.7-0.2c-0.4,0-0.6,0.2-0.7,0.5h1.2l1.2,0.3 M176.9,56.2l0,0.2l-0.4,0.6v0.2v0.6l0.4-0.6l0.3-1.1L176.9,56.2z
	 M178,57.5h-0.2c0,0-0.1,0-0.2,0h-0.2c-0.5,0-0.8,0.1-1,0.3v0.1v0.4l-0.1-0.2l0.1-0.2l-0.2,0.2l0.4,0.4c0.4-0.3,1.1-0.2,2.1,0.1
	c0.6,0.2,1.1,0.4,1.5,0.6c0.2,0.1,0.3,0.2,0.3,0.4 M176.6,58.5c-0.1,0-0.2,0-0.2,0.1h0.1C176.5,58.6,176.6,58.6,176.6,58.5
	c0.2,0.1,0.4,0.1,0.4,0.2l0.1,0.1l0.9,0.6l0.9-0.3l1.7,1.2 M176.8,57.2l0.9,0.3 M177.1,58.7c0.2,0.2,0.4,0.5,0.4,1
	c0,0.6-0.2,1.1-0.5,1.6c-0.4,0.6-0.8,1-1.2,1.2c-0.4,0.2-0.7,0.3-0.9,0.2l1.4,0.8 M179.8,63.1h-0.1c-0.1,0-0.2,0-0.2,0l-0.4,0.1
	h-0.1l-0.3-0.2l-1.5-0.7V62l0.2-0.2l0.5-1.2l0.1-1.2l0.1-0.2 M174.2,62.2l0.4,0.3c0.3,0,0.6-0.1,0.9-0.2c0.5-0.2,0.9-0.5,1.1-1
	c0.3-0.6,0.4-1.1,0.4-1.5c0-0.4-0.1-0.7-0.3-1l-0.4-0.2 M181.1,59.1c-0.1-0.4-0.2-0.6-0.5-0.8 M178,57.5h1.3 M176.8,58.7
	c-0.1-0.1-0.1-0.1-0.2-0.2 M176.4,58.6l-6.5-3.8 M175,55.5c-0.1,0.5,0.3,1.1,1.4,1.7 M179.4,63.1c-0.1,0-0.2,0-0.4,0l-0.1,0.1
	 M177.8,60.7l-0.4,1.3l-0.1-0.2 M178.6,63l0.4,0.1 M174.7,62.8L174.7,62.8L174.7,62.8 M174.7,62.8l0.1,0.1 M174.6,62.5
	c-0.1,0-0.2,0-0.2,0 M208.7,102.1c-1.9,1.9-4.1,3.3-6.7,4.1c0.2,0.8,0.2,1.7,0.2,2.6c0,0.6,0,1.1-0.1,1.6c0.1-0.6,0.2-1.2,0.4-1.9
	c0.7-1.9,1.9-3.3,3.5-4.2c1.6-1,3.1-1.2,4.7-0.6c0.3,0.1,0.6,0.2,1,0.4C210.8,103.4,209.8,102.7,208.7,102.1l-1.8-0.6
	c-2.6,0.8-4.8,2.2-6.6,4.1h0.1l1.7,0.6 M202.2,110.4c0,0.1-0.1,0.2-0.1,0.4c-0.1,1.1,0,2.2,0.4,3.2c0.4,1.1,0.9,1.9,1.7,2.6l0.1,0.1
	c0,0.1,0.1,0.2,0.3,0.3l0,0c0.4,0.2,0.8,0.4,1.1,0.6c1,0.3,2,0.4,3.1,0.1c0.2,0,0.3,0,0.4-0.1c0.5-0.2,1-0.4,1.4-0.7
	c0.4-0.3,0.8-0.6,1.2-0.9c0-0.1,0-0.3-0.1-0.5c0-0.4,0-0.7-0.1-0.9l-0.2-0.1c-0.6,0.2-1.2,0.2-1.7,0.1h0c-0.1,0-0.1,0-0.1-0.1
	c-0.2,0-0.3-0.1-0.4-0.1c-0.8,0.3-1.5,0.3-2.1,0.1l-0.2-0.1h-0.1c-0.7-0.3-1.2-0.7-1.5-1.4c-0.4-0.8-0.5-1.6-0.5-2.5l0.3-1
	c0.4-1,1-1.8,1.8-2.4c0.8-0.5,1.7-0.6,2.6-0.4l0,0.1l0.2,0.1c0.7,0.2,1.2,0.7,1.6,1.4l0.4,0.2h0.1c0.6,0.1,1,0.5,1.3,1.1l0.5,0.2
	c0.3,0,0.6,0.1,0.8,0.3c0.1-0.5,0.1-1,0-1.5c-0.1-0.9-0.4-1.7-0.9-2.4c-0.2-0.5-0.5-0.9-0.9-1.2c-0.3-0.4-0.6-0.6-1-0.8
	 M209.3,117.6l-2.6,1.2l-1.8-0.7c-2.1-1.2-3.9-2.6-5.6-4.1v-0.1c-0.2-1-0.3-1.9-0.3-2.6c0-1.9,0.4-3.8,1.3-5.8 M199.3,114l1.8,0.5
	c0.5-1.2,0.9-2.4,1-3.7 M204.2,116.6c-1-0.7-2-1.4-3.1-2.1 M206.7,118.8c-0.7-0.6-1.4-1.2-2.1-1.7 M209.6,106.8
	c-0.8-0.1-1.5,0-2.4,0.4c-0.8,0.6-1.4,1.4-1.9,2.4c-0.4,1.1-0.4,2.1,0,3c0.3,0.9,0.8,1.5,1.5,1.9 M211.4,108.3l-1.8-0.7
	c-0.7-0.3-1.4-0.2-2.1,0.3c-0.7,0.4-1.2,1-1.5,1.9s-0.3,1.7,0,2.5c0.3,0.8,0.7,1.3,1.4,1.6l1.9,0.6c-0.4-0.4-0.8-0.8-1-1.4
	c-0.3-0.8-0.3-1.6,0-2.4c0.3-0.9,0.8-1.5,1.6-1.9c0.6-0.4,1.3-0.5,2-0.2 M213.3,109.6l-1.5-0.6c-0.5-0.2-1.1-0.1-1.6,0.2
	c-0.6,0.4-1,0.9-1.2,1.6c-0.3,0.7-0.3,1.4-0.1,2c0.3,0.6,0.7,1,1.2,1.2l1.5,0.6 M212.7,104.9c0.6,0.4,1.1,0.9,1.6,1.4l0.1,2.2
	 M209.6,114.6l0.1,0.1 M214.5,110.1c0.9,0.5,1.5,1.3,2,2.3c0.6,1.3,0.9,2.9,0.6,4.6l-0.4,2.9c0,0.2-0.2,0.3-0.6,0.3l0,0.7
	c0.4,0.1,0.5,0.2,0.5,0.3c0,0,0,0.1,0,0.2l-0.5,4.5c0,0.2-0.3,0.3-0.9,0.3l0,0.2c-0.6,5-2.7,9.2-6.5,12.6c-3.8,3.4-8.2,5.1-13.2,5.1
	l-54.6-2.4c-3.2,0-6.3,0.4-9.1,1.3l22.5,12.9 M121.1,136.7l6.3,3.7c4.2-1.7,8.7-2.6,13.3-2.6l54.5,2.4c4.2,0,7.9-1.4,11-4.2
	c3.1-2.8,4.9-6.3,5.4-10.4c-0.5-0.2-0.8-0.3-0.8-0.4l0.5-4.7c0-0.1,0.2-0.2,0.7-0.2l0.1-0.8c-0.3-0.1-0.5-0.2-0.6-0.4l0.3-2.9
	c0.1-0.1,0.1-0.2,0.1-0.3 M212,119.6c0.4,0.1,1.1,0.2,2,0.3c1,0.1,1.7,0.2,2.1,0.2 M211.9,120.4v0.3c-0.1,0.1,0.6,0.3,2,0.4
	c1.4,0.2,2.1,0.2,2.1,0v-0.3 M211.3,120.5c0,0.3,0.9,0.6,2.7,0.8c1.5,0.1,2.3,0.1,2.6,0 M215.2,126.1c-0.4,0-1.1-0.1-1.9-0.2
	c-0.8,0-1.4-0.1-1.8-0.2 M166.1,58.2c0.9-0.3,1.6-0.9,2.1-1.7 M58.9,70.5l0.2-0.2c0-0.8,0.3-1.7,0.9-2.6c0.6-0.8,1.4-1.5,2.4-2.1
	c1.4-0.7,2.8-1,4.1-0.9c1,0.1,1.8,0.4,2.4,1.1c-0.5-1-1.4-1.6-2.7-1.7c-1.3-0.1-2.6,0.2-3.9,0.8c-1.2,0.7-2.1,1.6-2.8,2.6
	C58.8,68.6,58.7,69.6,58.9,70.5l-0.8,0.9l0,0.4c0,0.1,0,0.3,0,0.4l-1.6,1.6c-1.1,1.1-1.3,2.2-0.8,3.1l1.7,3.1h0.1
	c-0.1-0.1-0.1-0.3-0.1-0.4c-0.7-1-0.5-2,0.6-3.1l5.4-5.7c0.4-0.4,0.8-0.7,1.3-1c0.9-0.4,1.8-0.6,2.8-0.6c0.6,0.1,1.1,0.3,1.4,0.6
	c0-0.1,0.1-0.2,0.1-0.2l-1.3-2.4c-0.4-0.7-1-1-1.9-1.1c-0.9,0-1.8,0.2-2.8,0.6c-0.5,0.3-0.9,0.7-1.2,1.1L59,70.4 M62.4,78.2
	c0.5,0,0.8,0.2,1,0.5l0.5,0.9c0-0.1,0.1-0.2,0.1-0.3c0.1-0.4,0.1-0.8-0.1-1.2c-0.1-0.1-0.2-0.2-0.2-0.3c-0.3-0.3-0.7-0.5-1.1-0.5
	c-0.7-0.1-1.3,0.1-1.9,0.5c-0.7,0.3-1.2,0.8-1.5,1.4c-0.2,0.5-0.2,0.9-0.2,1.2c0,0.2,0,0.3,0.1,0.4c0.1,0.3,0.4,0.6,0.9,0.7
	c0.1,0,0.2,0,0.3,0l-0.4-0.7c-0.2-0.4-0.2-0.8,0.1-1.2c0.2-0.4,0.5-0.7,1-1C61.4,78.2,61.9,78.1,62.4,78.2z M63.8,79.6l0.1,0.2
	 M59.9,81.5c-0.8-0.1-1.3-0.4-1.6-0.9c-0.3-0.6-0.3-1.2,0.1-1.9c0.4-0.7,1-1.2,1.8-1.7c0.7-0.4,1.5-0.6,2.3-0.5c0.8,0,1.3,0.4,1.6,1
	c0.3,0.5,0.3,1.1-0.1,1.8 M63.6,77.8c-0.2-0.5-0.6-0.8-1.2-0.9c-0.7-0.1-1.4,0.1-2.1,0.5c-0.7,0.4-1.1,0.9-1.4,1.4
	c-0.3,0.5-0.3,1.1,0,1.6 M69.8,71.2c-0.3-0.6-0.9-1-1.9-1.1s-1.8,0.1-2.8,0.6c-0.5,0.3-0.9,0.6-1.4,0.9l-5.4,5.6
	c-0.7,0.8-1.1,1.6-1.1,2.2 M60.8,82.5c-0.2-0.4-0.2-0.8,0-1.2c0.2-0.4,0.5-0.7,1-1s1-0.4,1.5-0.4c0.4,0.1,0.8,0.3,1,0.7 M57.5,80.1
	c0,0.2,0.1,0.4,0.1,0.6 M66,77.7l-1.8-3.4c-0.2-0.4-0.2-0.9,0.1-1.5c0.3-0.5,0.7-0.9,1.3-1.4c0.7-0.3,1.3-0.4,1.9-0.4
	c0.6,0.1,1.1,0.4,1.4,0.8l0.8,1.7 M68.8,65.8L68.8,65.8C69,66,69,66.1,69,66.3l0.1,0.1c0.5,0.9,0.4,2-0.1,3.2l0.3,0.5
	c-0.2-0.2-0.3-0.3-0.4-0.3 M66.7,78.9c-0.2-0.4-0.2-0.9,0.1-1.4c0.3-0.6,0.8-1,1.3-1.3c0.7-0.4,1.3-0.5,2-0.4
	c0.5,0.1,0.9,0.3,1.2,0.6 M72.2,79.6c-0.2-0.2-0.5-0.4-0.9-0.4c-0.4,0-0.9,0.1-1.4,0.3c-0.5,0.3-0.8,0.6-0.9,1
	c-0.2,0.4-0.2,0.7-0.1,1 M69.8,82l-0.4-0.8c-0.2-0.5,0.1-1,0.8-1.5c0.3-0.2,0.7-0.3,1-0.2c0.3,0,0.5,0.2,0.7,0.4l0.4,0.9 M68,79.8
	l-0.6-1.1c-0.1-0.3-0.1-0.7,0.1-1.1s0.5-0.7,0.9-1c0.5-0.2,0.9-0.3,1.4-0.2c0.4,0,0.7,0.2,0.9,0.4l0.7,1.2 M72.8,140.3l2.8-1.4
	l4.4-1.3c0.7-0.1,1.4-0.2,2-0.2c1,0,1.9,0.2,2.6,0.7c0.7,0.4,1.1,0.9,1.1,1.5l-0.5,3.9l-0.1,0.4l3.1-2.1c0.8-0.5,1.2-1.2,1.3-2v0
	c0-0.1,0-0.2,0.1-0.2v-0.2c0-0.8-0.5-1.6-1.5-2.4c-0.2,0.1-0.4,0.1-0.7,0.1c-0.6,0-0.9-0.2-0.9-0.5c0-0.1,0.1-0.3,0.3-0.4
	c-1.4-0.6-2.9-0.9-4.4-0.9c-1.8-0.1-3.3,0-4.4,0.4c-1.9,1.3-3.9,2.4-5.8,3.5 M74.5,142.7l0.6-0.3l0.1-0.1l0.6-0.1
	c0.1,0,0.2-0.1,0.2-0.1c0.8-0.2,1.7-0.4,2.5-0.7l1-0.2c0.2-0.1,0.4-0.1,0.6-0.1l0.6-0.1c0.4,0,0.7,0,1,0.1c0.9,0.2,1.8,0.5,2.5,0.9
	c0.6,0.4,0.9,0.9,0.9,1.4 M75.9,142.3l-0.8,0.1 M85.1,143.9l-0.3,2.2v0c0,0.4-0.3,0.7-0.7,0.9l-1.1,0.6l-0.3,1.6v0.1
	c-0.1,0.3-0.4,0.5-0.8,0.6c-0.4,0.1-0.9,0.2-1.4,0.2c-0.6-0.1-1-0.3-1.4-0.5c0,0-0.1,0-0.1-0.1c-0.1,0-0.1-0.1-0.1-0.1
	c-0.2-0.2-0.3-0.4-0.3-0.5v-0.1c0,0,0-0.1,0.1-0.1v-0.1l0.2-1.7c-0.4-0.4-0.7-0.7-0.7-1c0-0.1,0.1-0.2,0.2-0.2l0-0.2v0
	c0-0.4,0.3-0.7,0.9-0.8c0.5-0.2,1.2-0.2,1.9-0.2c0.7,0.1,1.4,0.3,1.9,0.6c0.6,0.3,0.8,0.7,0.6,1.1v0c0,0.1,0,0.3,0,0.5
	c0,0.3-0.3,0.6-0.8,0.8v0.2 M79.1,146.8v-0.6c0.1-0.2,0.3-0.4,0.8-0.5c0.4-0.2,0.9-0.2,1.4-0.2c0.5,0.1,1,0.3,1.4,0.5
	c0.4,0.3,0.6,0.6,0.5,0.9l-0.1,0.4 M83.9,146c-0.1-0.2-0.4-0.4-0.6-0.6c-0.5-0.3-1.1-0.5-1.9-0.6c-0.8-0.1-1.4-0.1-2.1,0.1
	c-0.3,0.1-0.6,0.3-0.8,0.4 M84.8,146c0.1-0.5-0.2-0.9-0.9-1.3c-0.6-0.4-1.4-0.7-2.4-0.9c-0.8-0.1-1.6-0.1-2.3,0.1l-3.3,0.9
	 M82.8,149.1c0-0.3-0.1-0.5-0.5-0.7c-0.4-0.2-0.8-0.3-1.4-0.4c-0.6-0.1-1.1,0-1.5,0.1c-0.4,0.1-0.6,0.2-0.6,0.4 M78.9,148.6
	l-0.1,0.2 M91.6,158.8c2.9-1.1,5.7-2.5,8.3-4.1c-0.1-0.2-0.1-0.4-0.1-0.7c0-0.8,0.3-1.3,0.8-1.6l3.6-2.1l-1.6-1l-0.1,0
	c-0.1,0-0.1,0-0.2,0c-4.4,2.1-8.6,3.8-12.8,4.8c-1.9,0.5-3.8,0.9-5.8,1.1c-2.5,0.3-4.7,0.4-6.7,0.4 M127.4,140.4l4.3,2.4
	 M102.4,149.2c-0.2-0.2-0.3-0.5-0.3-0.9c0-0.4,0.1-0.9,0.4-1.3c0-0.1,0-0.2,0.1-0.3c-0.9-0.4-1.4-1-1.4-1.8c0-0.2,0-0.3,0.1-0.4h0.1
	v-0.2c-0.1-0.6,0.2-1.2,0.9-1.7c0.8-0.4,1.7-0.6,2.7-0.6c1,0,1.9,0.2,2.6,0.6l0.7,0.5c0.5,0.4,1,0.8,1.3,1.4
	c0.1,0.1,0.2,0.3,0.3,0.4c2.6-1.7,5-3.4,7.2-5.1c0.5-0.3,0.9-0.6,1.2-0.9c0.2-0.1,0.3-0.2,0.4-0.4 M101.4,144.2L101.4,144.2
	c0.2-0.3,0.5-0.6,0.9-0.9c0.7-0.4,1.6-0.6,2.6-0.6s1.9,0.2,2.6,0.6l0.7,0.5c0.2,0.2,0.5,0.5,0.9,0.9c0.2,0.4,0.4,0.8,0.4,1.2
	l0.1,3.4l0.7-0.3l-0.1-2.7c0-0.5-0.1-0.9-0.3-1.4 M104.2,150.3l0.2-0.1l0.1-0.1c0.3-0.2,0.8-0.3,1.4-0.1l0.6-0.8
	c0.2-0.5,0.4-1,0.4-1.4c0-0.5-0.1-0.8-0.4-0.9l-0.5-0.3l-1.4-0.9c0.3,0.2,0.4,0.5,0.4,0.9c0,0.5-0.2,0.9-0.4,1.4
	c-0.3,0.4-0.6,0.8-1.1,1.1c-0.4,0.2-0.7,0.2-0.9,0.1 M105.8,150c0.1,0.1,0.3,0.2,0.4,0.2l0.4,0.2l0.6-0.8c0.3-0.6,0.5-1.3,0.5-1.9
	c0-0.4-0.1-0.7-0.2-0.9c-0.1-0.1-0.1-0.2-0.2-0.2l-0.1-0.1c-0.4-0.2-0.8-0.1-1.2,0.1 M107.5,146.8L107.5,146.8L107.5,146.8
	c0.4,0.2,0.6,0.6,0.6,1.2c0,0.6-0.2,1.3-0.6,1.9l-0.5,0.8l1.2-0.5l-0.1-3.9l-0.9,0.2 M108.2,146.2l0.7,0.6v3l0.8-0.4 M113,153.2
	c0.3-0.6,0.4-1.1,0.1-1.5l-2.8,1.5l1.3,0.9C112.1,154.1,112.5,153.8,113,153.2z M108.9,149.8l-0.6,0.3 M107.1,150.6l-0.1,0.2
	l-1.8,0.9c-0.2,0.2-0.3,0.4-0.3,0.7c0,0.4,0.1,0.9,0.4,1.4c0.3,0.4,0.6,0.8,1.1,1c0.3,0.2,0.6,0.2,0.9,0.1l0.1-0.2l1.4-0.7l1.1-0.6
	l0.3-0.1 M106.6,150.5l0.4,0.3 M104.4,150.2c-0.4,0.3-0.6,0.8-0.6,1.6c0,0.7,0.3,1.6,0.8,2.4c0.5,0.8,1.1,1.4,1.8,1.8
	c0.6,0.4,1.2,0.5,1.7,0.2l0.1-0.1c0.3-0.1,0.5-0.4,0.6-0.8c0-0.2,0.1-0.4,0.1-0.8v-0.8 M108.7,155.4c0.6-0.6,1-1.3,1.2-2.1
	 M124.2,141.7l-13.9,7.4 M101.4,144.5c0-0.1,0-0.1,0.1-0.2 M102.7,146.7c0.2-0.3,0.5-0.6,0.8-0.9c0.4-0.2,0.8-0.2,1.1-0.1 M88,137
	v-0.4c1.2,0.8,1.7,1.7,1.5,2.8 M89.5,139.5l-0.1,0.3 M99.9,154.7c0.1,0.6,0.4,1.2,0.8,1.8c0.3,0.6,0.7,1.1,1.2,1.4
	c0.2,0.1,0.4,0.3,0.6,0.4c0.7,0.4,1.3,0.4,1.8,0.1l3.8-2.2 M96.2,160.9l5.7-2.9 M113.1,151.7l15.2-7.6 M78,135.7
	c5.3-3.6,10.4-8.1,15.4-13.4 M86.7,135.7v0.4"/>
</svg>
