<?xml version="1.0" encoding="utf-8"?>
<!-- Generator: Adobe Illustrator 24.1.2, SVG Export Plug-In . SVG Version: 6.00 Build 0)  -->
<svg version="1.1" id="Ebene_1" xmlns="http://www.w3.org/2000/svg" xmlns:xlink="http://www.w3.org/1999/xlink" x="0px" y="0px"
	 viewBox="0 0 348 161" style="enable-background:new 0 0 348 161;" xml:space="preserve">
<style type="text/css">
	.st0{fill:#CCCCCC;}
	.st1{fill:#0099FF;}
	.st2{fill:#999999;}
	.st3{fill:none;stroke:#2B2B2A;stroke-width:0.55;stroke-miterlimit:5;}
	.st4{fill:none;stroke:#2B2B2A;stroke-width:0.3;stroke-miterlimit:5;}
	.st5{fill:none;stroke:#2B2B2A;stroke-width:0.25;stroke-miterlimit:5;}
	.st6{fill:none;stroke:#B1B1B1;stroke-width:0.55;stroke-miterlimit:5;}
	.st7{fill:none;stroke:#2B2B2A;stroke-width:0.2;stroke-miterlimit:5;}
	.st8{fill:none;stroke:#FF9900;stroke-linecap:round;stroke-linejoin:round;}
	.st9{font-family:'ArialMT';}
	.st10{font-size:14px;}
</style>
<path class="st0" d="M202.4,24.1l-2.2-2.5c-2.9-3.4-6.6-6.5-11.1-9.2l-1.6-0.9l-0.2-0.1l-1-0.6l-1.2-0.4h-0.8
	c-1,0.1-1.8,0.7-2.5,1.9c-0.3,0.5-0.8,1.5-1.4,3l-1.6,4.8c-0.3,1.2-0.5,2.1-0.4,2.5c0.1,0.4,0.3,1.1,0.7,2.1v0.9l-0.5,1.3l-2,3.2
	c-1.1,1.9-1.2,3.2-0.4,3.9c0.4,0.4,1.2,0.9,2.3,1.5c0,0,0.1,0,0.1,0c0.1,0,0.1,0.1,0.2,0.1c0.1,0,0.2,0.1,0.3,0.1l0.1,0.1
	c0.1,0,0.3,0.1,0.4,0.1l0.1,0.1l0.8,1l0.2,1.5c0,0.5-0.2,1.8-0.7,3.9c-0.4,1.5-0.4,2.8,0.1,3.8l0.3,0.9l0.4,0.8l0.6,0.5l1.2,0.7
	c0.3,0.3,0.7,0.4,1,0.4c0.7,0.1,1.7-0.2,2.8-0.8l3-2l0.6-0.6c1.1-1.4,2.3-2.5,3.6-3.2c2.3-1.3,3.6-2.1,4-2.4l1-1.1l0.6-1.4l0.3-1.6
	l0.1-2.6l0.2-0.8l0.3-0.4l0.5-0.4l0.2-0.1L201,32l2.7-3c1.2-1.5,1.6-2.6,1.2-3.2C203.9,25.3,203.1,24.7,202.4,24.1 M190.1,30.5
	L190.1,30.5c-0.6,1.1-1.4,1.7-2.3,1.9c-0.4-0.8-0.3-1.8,0.5-3c0.7-1.2,1.5-1.8,2.2-1.8C190.9,28.4,190.8,29.4,190.1,30.5z"/>
<path class="st1" d="M112.1,104.4c0,0-0.1,0.1-0.1,0.1c-2.6,1.8-3.8,4.7-3.7,8.6c0.1,3.6,1.2,7.4,3.4,11.4c2.2,4,4.8,7.1,7.9,9.3
	c3.4,2.4,6.5,3.2,9.5,2.2l0.5-0.2c0.2-0.1,0.3-0.2,0.5-0.4l1.9-0.9l0.5-0.4h0.1l2.1-1.2c2.7-1.8,4-4.8,3.9-8.8
	c-0.1-3.6-1.2-7.4-3.4-11.4c-2.2-4-4.8-7.1-7.9-9.2c-3.4-2.4-6.6-3.2-9.6-2.2L112.1,104.4 M183.7,76.2c-1.5-1.6-3-2.9-4.7-3.9
	c-3.4-2.1-6.5-2.4-9.4-1.1l-31.5,18.2c1.8,0.2,3.6,0.9,5.6,2.2c3.4,2.2,6.4,5.6,9,9.9c2.5,4.4,3.9,8.7,4.1,12.8
	c0.1,2.7-0.3,4.9-1.3,6.8l33-19.2c2.3-2.1,3.3-5.3,2.9-9.4c-0.2-1.6-0.5-3.1-0.9-4.7l17.3-10.1c1.7-1.3,1.8-3.3,0.4-6.1l15.8-9.2
	l-1.5-0.6v-2L206.5,69c-1.7-2.3-3.5-3.2-5.4-2.8l-0.4,0.1L183.7,76.2z"/>
<path class="st2" d="M127.4,75.7l-1.9-1.1c-0.1-0.1-0.2-0.1-0.2-0.1c-2.8-1.4-5.7-0.2-8.9,3.4c-3,3.5-4.5,6.9-4.3,10.1l-0.1,0.4
	l0.1,16.1c0,0,0.1-0.1,0.1-0.1l5.6-3.2c3-0.9,6.2-0.2,9.6,2.2c3.1,2.2,5.7,5.3,7.9,9.2c2.2,4,3.3,7.8,3.4,11.5
	c0.1,4-1.2,6.9-3.9,8.8l-2.1,1.2l0.7,0l1.1-0.1l1.1-0.3l16.6-9.4l0.4-0.3c1.2-0.8,2.1-1.8,2.8-3.1c1-1.8,1.4-4,1.3-6.8
	c-0.2-4.1-1.6-8.3-4.1-12.8c-2.6-4.4-5.6-7.7-9-9.9c-1.9-1.2-3.8-1.9-5.6-2.1c-1.7-0.2-3.4,0-4.9,0.8l-0.4,0.4l-3,1.7l-0.1-12.3
	C129.4,77.8,128.7,76.4,127.4,75.7 M122.1,82.9c-0.1,0.7-0.3,1.4-0.8,2.1s-0.9,1.2-1.6,1.6l-0.3,0.4c-0.3-0.7-0.1-1.6,0.5-2.9
	c0.7-1.3,1.4-2,2.3-2.1L122.1,82.9z"/>
<path class="st0" d="M241.4,27.7c-0.1,0-0.1,0.1-0.2,0.1c-0.2,0.1-0.4,0.2-0.6,0.3c-1.6,1.2-2.7,3.1-3.2,5.6l-0.2,1.4l0.1,32.5
	c0.1,1.9,0.6,3.3,1.8,4.2l2.7,1.6l0.1,0.1c1.2,0.7,2.6,0.6,4.3-0.1l0.4-0.1l0.4-0.2c1.8-1,3.4-2.4,4.9-4.4c0.4-0.6,0.8-1.2,1.2-1.8
	c0.7-1.3,1.3-2.7,1.7-4.1l0.2-0.6c1,0.2,1.9,0.3,2.9,0.3c1.2,0,2.2-0.3,3.1-0.8c0.4-0.2,0.7-0.4,1-0.7l15.5-8.9l0.4-0.3
	c2.7-2.1,3.9-5.4,3.6-9.8c-0.2-4-1.6-8.1-4.1-12.4c-2.5-4.3-5.4-7.5-8.7-9.8c-3.7-2.4-7.1-3-10.2-1.8L241.4,27.7 M256.4,38.5
	c-0.4-0.1-0.7,0-0.9,0.1l-0.1-5.2c0.5,0.5,0.9,1,1.4,1.5c1.9,2.3,3.5,4.9,4.8,7.7l1.2,3.6l-2.5-2.9l-2.7-4.2c-0.3-0.2-0.6-0.4-1-0.6
	L256.4,38.5L256.4,38.5 M247.9,61.5c0,0.7-0.3,1.4-0.7,2.1c-0.4,0.7-1,1.3-1.5,1.6l-0.5,0.2c-0.2-0.7,0-1.5,0.6-2.6
	c0.6-1.2,1.3-1.9,2.1-2.1V61.5z"/>
<path id="Layer0_5_MEMBER_4_1_STROKES" class="st3" d="M129.7,135.6l-0.5,0.2c-3,0.9-6.2,0.2-9.6-2.2c-3.1-2.2-5.7-5.3-7.9-9.3
	c-2.2-4-3.4-7.8-3.5-11.4c-0.1-4,1.2-6.9,3.8-8.7"/>
<path id="Layer0_5_MEMBER_5_1_STROKES" class="st3" d="M187.6,102.2l-32.2,18.6"/>
<path id="Layer0_5_MEMBER_6_1_STROKES" class="st3" d="M138,89.2L169.5,71"/>
<path id="Layer0_5_MEMBER_7_1_STROKES" class="st3" d="M190.3,87.6l17-9.8"/>
<path id="Layer0_5_MEMBER_8_1_STROKES" class="st3" d="M183.6,76l17-9.9"/>
<path id="Layer0_5_MEMBER_9_1_STROKES" class="st3" d="M208,71.4l15.9-9.1"/>
<path id="Layer0_5_MEMBER_10_1_STROKES" class="st3" d="M206.4,68.8l15.9-9.2"/>
<path id="Layer0_5_MEMBER_11_1_STROKES" class="st4" d="M115.3,100.7l0.8-0.8l0.9-0.6l0.4-0.2"/>
<path id="Layer0_5_MEMBER_12_1_STROKES" class="st4" d="M137,132.8l-0.4,0.3l-1,0.5l-1.1,0.3l-1.1,0.2l-0.8-0.1"/>
<path id="Layer0_5_MEMBER_13_1_STROKES" class="st3" d="M117,99.3l15.6-8.9"/>
<path id="Layer0_5_MEMBER_14_1_STROKES" class="st4" d="M136.6,133.1l15.6-8.9"/>
<path id="Layer0_5_MEMBER_15_1_STROKES" class="st3" d="M131.5,134.6l1-0.6"/>
<path id="Layer0_5_MEMBER_16_1_STROKES" class="st3" d="M112.2,104.2l0.5-0.2c3-0.9,6.2-0.2,9.5,2.2c3.1,2.2,5.7,5.3,7.9,9.3
	c2.2,4,3.4,7.8,3.5,11.4c0.1,4-1.2,6.9-3.8,8.7"/>
<path id="Layer0_5_MEMBER_17_1_STROKES" class="st3" d="M112.7,103.9l4.5-2.6"/>
<path id="Layer0_5_MEMBER_18_1_STROKES" class="st3" d="M130.2,135.4l4.5-2.6"/>
<path id="Layer0_5_MEMBER_19_1_STROKES" class="st3" d="M117.2,101.3l0.5-0.2c3-0.9,6.2-0.2,9.5,2.2c3.1,2.2,5.7,5.3,7.9,9.2
	c2.2,4,3.3,7.8,3.4,11.4c0.1,4-1.1,6.9-3.8,8.7"/>
<path id="Layer0_5_MEMBER_20_1_STROKES" class="st4" d="M117.3,99.2l0.4-0.3c3.2-1.5,6.7-1.1,10.5,1.4c3.4,2.2,6.4,5.5,9,9.9
	c2.5,4.4,3.9,8.7,4.1,12.8c0.2,4.5-1.1,7.8-4,9.8l-0.3,0.1"/>
<path id="Layer0_5_MEMBER_21_1_STROKES" class="st4" d="M132.6,90.4l0.5-0.3c3.2-1.5,6.7-1.1,10.5,1.3c3.4,2.2,6.4,5.6,9,9.9
	c2.5,4.4,3.9,8.7,4.1,12.8c0.2,4.5-1.2,7.8-4.1,9.8l-0.3,0.2"/>
<path id="Layer0_5_MEMBER_22_1_STROKES" class="st3" d="M187.6,102.2l0.9-0.6c2.3-2.1,3.2-5.3,2.8-9.4c-0.4-3.8-1.7-7.6-4.1-11.5
	c-2.4-3.9-5.1-6.8-8.2-8.7c-3.4-2.1-6.5-2.4-9.4-1"/>
<path id="Layer0_5_MEMBER_23_1_STROKES" class="st3" d="M207.3,77.7l0.4-0.1c1.9-1.5,1.8-3.9-0.1-7.2c-2-3.4-4.1-4.8-6.5-4.2
	l-0.3,0.1"/>
<path id="Layer0_5_MEMBER_24_1_STROKES" class="st4" d="M240.6,49.2l1.6,2.6c2,3.2,4.4,5.8,7.3,7.8c2.8,1.9,5.5,2.8,8,2.7
	c2.7-0.1,4.6-1.3,5.8-3.6c1.4-2.6,1.6-6.3,0.8-11.1l-1.7-5.2c-1.4-3.1-3.1-5.8-5.2-8.3c-2.4-2.8-4.9-4.8-7.7-6.1l-2.6-0.9
	c-2.5-0.6-4.6-0.2-6.3,1c-1.6,1.2-2.7,3.1-3.2,5.6l-0.2,1.4v2.7"/>
<path id="Layer0_5_MEMBER_25_1_STROKES" class="st4" d="M241.3,48.6l1.5,2.7c1.8,3,4.1,5.4,6.8,7.2c2.6,1.8,5.1,2.6,7.4,2.5
	c2.5-0.1,4.3-1.2,5.4-3.4c1.3-2.4,1.5-5.8,0.7-10.2l-1.6-4.8c-1.2-2.8-2.8-5.4-4.8-7.7c-2.2-2.5-4.5-4.4-7-5.6l-2.5-0.8
	c-2.3-0.5-4.3-0.2-5.8,0.9c-1.5,1.1-2.5,2.8-3,5.2l-0.2,1.3v2.9"/>
<path id="Layer0_5_MEMBER_26_1_STROKES" class="st4" d="M260.7,61.5l16.5-9.5l0.5-0.3c2.7-2.1,3.8-5.4,3.5-9.8
	c-0.2-4-1.6-8.1-4-12.4c-2.5-4.3-5.4-7.5-8.7-9.8c-3.7-2.4-7.1-3-10.2-1.8l-17,9.8"/>
<path id="Layer0_5_MEMBER_27_1_STROKES" class="st4" d="M254.7,62.2l-0.2,0.5c-0.5,2.1-1.5,4.1-2.8,5.9c-1.4,2-3.1,3.4-4.9,4.4
	l-0.4,0.2l-0.4,0.1c-1.8,0.7-3.3,0.7-4.5-0.1c-1.2-0.8-1.9-2.1-2.1-4.1v-0.4l0-0.4v-9"/>
<path id="Layer0_5_MEMBER_28_1_STROKES" class="st4" d="M239.4,59.3v-9.8"/>
<path id="Layer0_5_MEMBER_29_1_STROKES" class="st5" d="M248.8,60.7c-1.1-0.2-2.1,0.5-2.9,2.1c-0.9,1.6-0.9,2.7-0.1,3.5l0.1,0.1
	l0.2,0.1c1.1,0.3,2.1-0.3,3-1.8c0.9-1.5,1-2.7,0.4-3.6l-0.2-0.2l-0.1-0.1L248.8,60.7z"/>
<path id="Layer0_5_MEMBER_30_1_STROKES" class="st5" d="M245.7,65.2c0.6-0.3,1.1-0.9,1.5-1.6c0.4-0.7,0.7-1.4,0.7-2.1l0-0.2"/>
<path id="Layer0_5_MEMBER_31_1_STROKES" class="st3" d="M239.7,72.2l2.1,1.2"/>
<path id="Layer0_5_MEMBER_32_1_STROKES" class="st4" d="M240.4,72.6l-0.2-0.2c-1-1-1.6-2.4-1.8-4.2l0-9.5"/>
<path id="Layer0_5_MEMBER_33_1_STROKES" class="st4" d="M239.3,72l-0.2-0.2c-1.1-0.9-1.7-2.3-1.8-4.2l0-9.5"/>
<path id="Layer0_5_MEMBER_34_1_STROKES" class="st4" d="M238.3,58.7V38.4"/>
<path id="Layer0_5_MEMBER_35_1_STROKES" class="st4" d="M237.2,58.1V37.8"/>
<path id="Layer0_5_MEMBER_36_1_STROKES" class="st4" d="M240.5,49.1L240.5,49.1L240.5,49.1l-0.2,0l0-0.1h-0.3l-0.1,0.1h-0.1v0h-0.1
	v0.1h-0.1l0,0.1v0h-0.1"/>
<path id="Layer0_5_MEMBER_37_1_STROKES" class="st4" d="M241.3,48.6c-0.6-0.5-1.2-0.8-1.8-0.7c-0.6,0.1-1,0.6-1.1,1.4"/>
<path id="Layer0_5_MEMBER_38_1_STROKES" class="st4" d="M255.4,38.6l-16.5,9.5"/>
<path id="Layer0_5_MEMBER_39_1_STROKES" class="st4" d="M257.6,39.1c-0.3-0.2-0.6-0.4-1-0.6h-0.1l0,0c-0.4-0.1-0.7,0-1,0.1"/>
<path id="Layer0_5_MEMBER_40_1_STROKES" class="st4" d="M257.7,39.2l2.6,4.1l2.5,3"/>
<path id="Layer0_5_MEMBER_41_1_STROKES" class="st4" d="M255.3,38.7v-5.3"/>
<path id="Layer0_5_MEMBER_42_1_STROKES" class="st6" d="M278.3,74.8c1.4,1.4,1.4,3.5-0.2,6.3c-1.5,2.8-3.3,4.1-5.2,3.8l-0.4-0.1
	l-0.5-0.4l-0.2-0.2c-1.2-1.5-1-3.7,0.7-6.4c1.7-2.8,3.5-3.9,5.3-3.3L278.3,74.8z"/>
<path id="Layer0_5_MEMBER_43_1_STROKES" class="st6" d="M276.4,77l0.1,0.1l0.2,0.1c0.7,0.7,0.7,1.8,0,3.2c-0.8,1.4-1.7,2.1-2.7,2
	l-0.2-0.1l-0.1-0.1l-0.2-0.1l-0.1-0.1c-0.7-0.8-0.6-1.8,0.3-3.2C274.6,77.2,275.5,76.7,276.4,77z"/>
<path id="Layer0_5_MEMBER_44_1_STROKES" class="st6" d="M272.3,84.6l-1.2-0.7c-1.6-1.3-1.6-3.4,0.1-6.4c1.7-3,3.5-4.2,5.5-3.6
	l0.1,0.1l1.2,0.7"/>
<path id="Layer0_5_MEMBER_45_1_STROKES" class="st6" d="M276,76.9c0.4,0.8,0.2,1.8-0.5,2.9c-0.6,1.1-1.4,1.7-2.2,1.9"/>
<path id="Layer0_5_MEMBER_46_1_STROKES" class="st5" d="M181.3,48.6l-0.5-0.5l-0.5-0.8l-0.3-0.9c-0.4-1-0.4-2.3-0.1-3.8
	c0.5-2.1,0.7-3.3,0.7-3.8l-0.2-1.5l-0.8-1.1c-1.8-0.8-2.9-1.5-3.4-2c-0.8-0.8-0.7-2.1,0.4-3.9l2-3.2l0.5-1.3v-0.9
	c-0.4-1-0.6-1.7-0.7-2.1c-0.1-0.5,0-1.3,0.4-2.5l1.6-4.8c0.6-1.4,1.1-2.4,1.4-3c0.7-1.2,1.6-1.8,2.5-1.9h0.8l1.2,0.3l1,0.5"/>
<path id="Layer0_5_MEMBER_47_1_STROKES" class="st5" d="M179.8,20.7c0.7-2.2,1.3-3.9,1.8-5.2c1-2.4,2-3.8,3.1-4.2l0.6-0.1h0.9
	l1.2,0.3l1.6,0.8c4.5,2.7,8.2,5.8,11.1,9.2l2.2,2.5c0.7,0.6,1.5,1.2,2.4,1.8c0.4,0.6,0,1.7-1.2,3.2l-2.7,3l-0.3,0.2l-0.2,0.2
	l-0.5,0.4l-0.3,0.4l-0.2,0.8l-0.1,2.6l-0.3,1.6l-0.6,1.4l-1,1.2c-0.4,0.3-1.7,1-4,2.3c-1.3,0.8-2.5,1.8-3.6,3.2l-0.6,0.7l-3,2
	c-1.1,0.6-2,0.9-2.8,0.8c-0.8-0.1-1.5-0.7-2-1.8l-0.7-2.1c0-0.1,0.3-1.9,0.9-5.4c0.4-2.2-0.3-3.6-2-4.4l-1.2-0.5l-1-0.7l-0.6-1
	l0.1-1.4l1.8-3.3c0.9-1.5,1.4-2.5,1.4-2.9c0.1-0.5-0.1-1.4-0.6-2.9v-1L179.8,20.7z"/>
<path id="Layer0_5_MEMBER_48_1_STROKES" class="st5" d="M181.3,48.6l1.2,0.7"/>
<path id="Layer0_5_MEMBER_49_1_STROKES" class="st5" d="M188.2,32.8l-0.1-0.1l-0.1-0.1c-0.6-0.8-0.5-1.9,0.4-3.3
	c0.9-1.4,1.8-2,2.7-1.7l0.2,0.1l0.1,0.1c0.7,0.7,0.7,1.8-0.1,3.2c-0.8,1.4-1.7,2.1-2.7,1.9L188.2,32.8z"/>
<path id="Layer0_5_MEMBER_50_1_STROKES" class="st5" d="M190.6,27.6c0.3,0.8,0.2,1.8-0.5,2.9c-0.6,1.1-1.4,1.7-2.2,1.9"/>
<path id="Layer0_5_MEMBER_51_1_STROKES" class="st6" d="M211.1,49.2l-0.5-0.3l-0.2-0.2c-1.3-1.5-1.1-3.6,0.6-6.4
	c1.7-2.8,3.4-3.9,5.4-3.3l0.3,0.1l0.2,0.2c1.4,1.3,1.4,3.4-0.1,6.2c-1.5,2.8-3.3,4.1-5.2,3.8L211.1,49.2z"/>
<path id="Layer0_5_MEMBER_52_1_STROKES" class="st6" d="M215.1,41.5l0.1,0.1l0.1,0.1c0.7,0.7,0.7,1.8-0.1,3.2
	c-0.8,1.4-1.6,2.1-2.6,1.9l-0.3-0.1l-0.1-0.1l-0.1-0.2c-0.6-0.8-0.5-1.8,0.4-3.2C213.2,41.7,214.1,41.2,215.1,41.5z"/>
<path id="Layer0_5_MEMBER_53_1_STROKES" class="st6" d="M210.9,49.1l-1.2-0.7c-1.6-1.3-1.6-3.5,0.1-6.5c1.7-3,3.5-4.2,5.5-3.6
	l0.2,0.1l1.2,0.7"/>
<path id="Layer0_5_MEMBER_54_1_STROKES" class="st6" d="M214.6,41.4c0.3,0.8,0.2,1.8-0.4,2.9c-0.7,1.1-1.4,1.7-2.3,1.8"/>
<path id="Layer0_5_MEMBER_55_1_STROKES" class="st7" d="M247.8,63.8l7.8,4.5"/>
<path id="Layer0_5_MEMBER_56_1_STROKES" class="st7" d="M258.1,69.8l2.6,1.5"/>
<path id="Layer0_5_MEMBER_57_1_STROKES" class="st7" d="M263.3,72.8l7.8,4.5"/>
<path id="Layer0_5_MEMBER_58_1_STROKES" class="st7" d="M213.8,44.2l7.8,4.5"/>
<path id="Layer0_5_MEMBER_59_1_STROKES" class="st7" d="M224.2,50.2l2.6,1.6"/>
<path id="Layer0_5_MEMBER_60_1_STROKES" class="st7" d="M229.4,53.2l7.8,4.5"/>
<path id="Layer0_5_MEMBER_61_1_STROKES" class="st7" d="M189.7,30.3l6.7,3.9"/>
<path id="Layer0_5_MEMBER_62_1_STROKES" class="st7" d="M198.6,35.4l2.2,1.3"/>
<path id="Layer0_5_MEMBER_63_1_STROKES" class="st7" d="M203.1,38l6.6,3.8"/>
<path id="Layer0_5_MEMBER_64_1_STROKES" class="st7" d="M275.3,79.7l5.4,3.1"/>
<path id="Layer0_5_MEMBER_65_1_STROKES" class="st7" d="M282.4,83.8l1.8,1"/>
<path id="Layer0_5_MEMBER_66_1_STROKES" class="st7" d="M286,85.9l5.3,3.1"/>
<path id="Layer0_5_MEMBER_67_1_STROKES" class="st3" d="M129.6,92.1V80.6"/>
<path id="Layer0_5_MEMBER_68_1_STROKES" class="st3" d="M114.2,100V89.5"/>
<path id="Layer0_5_MEMBER_69_1_STROKES" class="st3" d="M129.6,80.6l0-0.8c-0.2-2.1-1-3.6-2.4-4.2c-1.4-0.7-3-0.6-4.9,0.4l-0.4,0.2
	l-0.4,0.2c-1.9,1.2-3.6,3-5,5.4c-1.4,2.3-2.1,4.6-2.3,6.9l0,0.9"/>
<path id="Layer0_5_MEMBER_70_1_STROKES" class="st3" d="M113.2,103.6V88.9"/>
<path id="Layer0_5_MEMBER_71_1_STROKES" class="st3" d="M125.8,74.7c-2.9-0.8-5.8,0.5-8.6,4.1c-2.7,3.3-4,6.5-4,9.6v0.4"/>
<path id="Layer0_5_MEMBER_72_1_STROKES" class="st3" d="M111.9,104.2V88.3"/>
<path id="Layer0_5_MEMBER_73_1_STROKES" class="st3" d="M125.6,74.7l-0.2-0.1c-2.8-1.6-5.9-0.5-9.1,3.2c-3,3.5-4.5,6.9-4.4,10.1
	l0,0.5"/>
<path id="Layer0_5_MEMBER_74_1_STROKES" class="st3" d="M125.2,74.3l2.2,1.2"/>
<path id="Layer0_5_MEMBER_75_1_STROKES" class="st3" d="M114.3,100.5L114.3,100.5L114.3,100.5l0.1,0.1v0.1h0.1v0.1l0.2,0.2"/>
<path id="Layer0_5_MEMBER_76_1_STROKES" class="st3" d="M123.2,82.1l-0.1,0l-0.2-0.1c-1.1-0.2-2.1,0.6-2.9,2.1
	c-0.9,1.6-0.9,2.8-0.1,3.5l0.3,0.2c1.1,0.3,2.1-0.3,3-1.9c0.9-1.5,1-2.7,0.3-3.6l-0.1-0.1L123.2,82.1z"/>
<path id="Layer0_5_MEMBER_77_1_STROKES" class="st3" d="M119.8,86.5c0.6-0.4,1.1-0.9,1.6-1.6c0.4-0.7,0.7-1.4,0.8-2.1v-0.2"/>
<path id="Layer0_5_MEMBER_78_1_STROKES" class="st3" d="M120.6,110.9l-0.1-0.1l-0.1-0.1c-0.8-0.1-1,0.4-0.8,1.4
	c0.2,0.9,0.6,1.5,1.2,1.8l0.1,0.1l0.1,0.1c0.8,0.1,1.1-0.3,0.9-1.3c-0.2-1-0.6-1.6-1.1-1.8l-0.1-0.1L120.6,110.9z"/>
<path id="Layer0_5_MEMBER_79_1_STROKES" class="st3" d="M115.9,115.1V115c0.1-0.7-0.2-1.4-0.9-2.1c-0.7-0.7-1.2-0.7-1.6-0.1
	l-0.1,0.1v0.1l0,0.2v0.1c-0.1,0.7,0.3,1.3,1,2c0.7,0.7,1.2,0.6,1.5-0.1L115.9,115.1z"/>
<path id="Layer0_5_MEMBER_80_1_STROKES" class="st3" d="M115.8,122.5c-0.3,0.6-0.2,1.2,0.3,2l0.2,0.2l0.1,0.1l0.1,0.1
	c0.9,0.7,1.4,0.7,1.6,0c0.2-0.7,0.1-1.4-0.5-2l-0.1-0.2l-0.1-0.1C116.7,122,116.2,121.9,115.8,122.5z"/>
<path id="Layer0_5_MEMBER_81_1_STROKES" class="st3" d="M125.5,129.8l0.1-0.1l0.1-0.1c0.4-0.5,0.3-1.1-0.2-2
	c-0.5-0.9-1.1-1.3-1.7-1.1l-0.1,0l-0.1,0.1c-0.5,0.4-0.5,1.1,0,1.9c0.5,0.9,1,1.3,1.6,1.2l0.1-0.1H125.5z"/>
<path id="Layer0_5_MEMBER_82_1_STROKES" class="st3" d="M128,120.9c-0.3-0.8-0.8-1.3-1.5-1.4c-0.7-0.1-0.9,0.4-0.8,1.4l0.1,0.3
	c0.2,0.8,0.7,1.3,1.4,1.5c0.8,0.2,1.1-0.2,1-1.2l-0.1-0.5L128,120.9z"/>
<path id="Layer0_5_MEMBER_83_1_STROKES" class="st6" d="M294.2,87.3l16.3,9.3"/>
<path id="Layer0_5_MEMBER_84_1_STROKES" class="st6" d="M291.1,92.2l16.5,9.4"/>
<path id="Layer0_5_MEMBER_85_1_STROKES" class="st6" d="M301.5,91.5c-0.9-0.4-1.9,0.1-2.8,1.4c-0.9,1.4-1,2.5-0.5,3.3"/>
<path id="Layer0_5_MEMBER_86_1_STROKES" class="st6" d="M299.5,90.4c-0.9-0.5-1.9,0-2.8,1.5c-0.9,1.5-1,2.6-0.2,3.4"/>
<path id="Layer0_5_MEMBER_87_1_STROKES" class="st6" d="M297.6,89.2c-0.9-0.5-1.9,0.1-2.8,1.6c-0.9,1.5-1,2.6-0.2,3.4"/>
<path id="Layer0_5_MEMBER_88_1_STROKES" class="st6" d="M295.9,88.3l-0.2-0.2c-1-0.4-2,0.1-2.8,1.6c-0.9,1.5-1,2.6-0.2,3.3"/>
<path id="Layer0_5_MEMBER_89_1_STROKES" class="st6" d="M294,87.2c-0.9-0.2-1.8,0.3-2.6,1.6c-0.8,1.3-1,2.4-0.4,3.2"/>
<path id="Layer0_5_MEMBER_90_1_STROKES" class="st6" d="M313.4,98.6l-1.2,0.6"/>
<path id="Layer0_5_MEMBER_91_1_STROKES" class="st6" d="M310.1,102.2l0,1.2"/>
<path id="Layer0_5_MEMBER_92_1_STROKES" class="st6" d="M312.6,103.1l-0.6,0.9l1.2-0.8l0.5-0.9"/>
<path id="Layer0_5_MEMBER_93_1_STROKES" class="st6" d="M314.7,100.9l0.1-1"/>
<path id="Layer0_5_MEMBER_94_1_STROKES" class="st6" d="M313.8,102.4l-1.1-0.6"/>
<path id="Layer0_5_MEMBER_95_1_STROKES" class="st6" d="M312.6,103.1l-1.2-0.9"/>
<path id="Layer0_5_MEMBER_96_1_STROKES" class="st6" d="M314.7,100.9l-0.3-0.1"/>
<path id="Layer0_5_MEMBER_97_1_STROKES" class="st6" d="M314,101l-1.3-0.6"/>
<path id="Layer0_5_MEMBER_98_1_STROKES" class="st6" d="M312.7,101.5l-0.9,0.4l-0.8,0.2h-0.8"/>
<path id="Layer0_5_MEMBER_99_1_STROKES" class="st6" d="M312.6,103.1l-0.9,0.2l-0.8,0.1l-0.8-0.1"/>
<path id="Layer0_5_MEMBER_100_1_STROKES" class="st6" d="M314.1,100.9c0.4-0.2,0.6-0.5,0.7-0.9"/>
<path id="Layer0_5_MEMBER_101_1_STROKES" class="st6" d="M314.6,101.1c-0.1,0.4-0.4,0.8-0.7,1.2"/>
<path id="Layer0_5_MEMBER_102_1_STROKES" class="st6" d="M314,101l-0.1-0.9l-0.2-0.8l-0.3-0.7"/>
<path id="Layer0_5_MEMBER_103_1_STROKES" class="st6" d="M312.7,101.5l-0.1-0.8l-0.3-1.4"/>
<path id="Layer0_5_MEMBER_104_1_STROKES" class="st6" d="M313.3,96.2l-0.4-0.2c-1.6-0.3-3.1,0.6-4.4,2.9c-1.4,2.3-1.5,4-0.5,5.3
	l0.3,0.2"/>
<path id="Layer0_5_MEMBER_105_1_STROKES" class="st6" d="M314.5,96.8l0.1,0.2c0.9,1.8,0.8,3.5-0.1,5.2c-1,1.7-2.5,2.6-4.5,2.8h-0.3
	l-1.3-0.8"/>
<path id="Layer0_5_MEMBER_106_1_STROKES" class="st6" d="M314.5,96.8l-1.2-0.7"/>
<path id="Layer0_5_MEMBER_107_1_STROKES" class="st6" d="M314.5,96.9l-0.3-0.1c-1.6-0.4-3,0.6-4.4,2.9c-1.4,2.3-1.5,4.1-0.4,5.3
	l0.3,0.2"/>
<path id="Layer0_7_MEMBER_1_1_STROKES" class="st8" d="M41.7,30.8h84v27.8h-84V30.8z"/>
<text transform="matrix(1 0 0 1 53.9927 50.4466)" class="st9 st10">2600-P26</text>
</svg>
