<?xml version="1.0" encoding="utf-8"?>
<!-- Generator: Adobe Illustrator 24.1.2, SVG Export Plug-In . SVG Version: 6.00 Build 0)  -->
<svg version="1.1" id="Ebene_1" xmlns="http://www.w3.org/2000/svg" xmlns:xlink="http://www.w3.org/1999/xlink" x="0px" y="0px"
	 viewBox="0 0 348 161" style="enable-background:new 0 0 348 161;" xml:space="preserve">
<style type="text/css">
	.st0{fill:#0099FF;}
	.st1{fill:none;stroke:#000000;stroke-width:0.5;stroke-miterlimit:5;}
	.st2{fill:none;stroke:#000000;stroke-width:0.25;stroke-miterlimit:5;}
</style>
<path class="st0" d="M184.5,111.9c-1-1.9-2.1-3.9-3.2-5.8c-2.2-3.8-4.7-7.6-7.3-11.2l-9-3.2l0.2,1.1l0.2,1.4l0.1,0.1
	c2.6,9.9,7.8,18.4,15.5,25.5l8.8,3.2C188.1,119.3,186.4,115.6,184.5,111.9 M220.6,114.6c-0.3-0.2-0.6-0.3-0.9-0.4
	c-3.8,3.1-8,5.2-12.4,6.1c-4.5,0.9-8.7,0.6-12.8-0.9c-4.2-1.5-7.5-4-10-7.5c1.9,3.7,3.6,7.4,5.2,11.2c5.3,2,10.7,2.2,16.3,0.7
	c5.6-1.5,10.8-4.5,15.5-9.1L220.6,114.6 M219.7,114.2c0-0.1,0-0.1,0.1-0.1l-1.1-0.4C219.1,113.9,219.4,114,219.7,114.2 M248.2,82.7
	l-4.8-1.7c-3.5-1.3-7.1-0.8-10.7,1.6c-3.6,2.2-6.2,5.6-7.9,10.1c-1.7,4.5-2,8.7-0.7,12.8c1.2,4.1,3.5,6.8,6.9,8.1l5.4,2.1
	c-3.1-1.4-5.3-4-6.6-7.9c-1.3-4.2-1.1-8.5,0.6-12.9c1.7-4.5,4.3-8,8-10.3C241.8,82.5,245,81.9,248.2,82.7 M253.1,85.6
	c-1.1-1-2.4-1.8-3.8-2.4l-1.1-0.5c-3.2-0.8-6.4-0.2-9.8,1.8c-3.7,2.3-6.3,5.8-8,10.3c-1.7,4.5-1.9,8.8-0.6,12.9
	c1.3,3.9,3.5,6.5,6.6,7.9c0.2,0.1,0.5,0.1,0.7,0.2c1.2,0.5,2.7,0.7,4.4,0.6c3.1-0.2,5.9-1.5,8.5-3.7c2.4-2.2,4.3-4.9,5.6-8.1
	l-0.5-0.2c-1.4,3.3-3.4,5.8-6.1,7.5c-2.9,1.8-5.7,2.1-8.5,1c-2.8-1-4.7-3.1-5.7-6.3c1,3.2,2.9,5.3,5.7,6.3c2.8,1.1,5.6,0.7,8.5-1
	c2.7-1.7,4.7-4.2,6.1-7.5l-9.8-3.4l9.8,3.4c0-0.2,0-0.3,0.1-0.4c1.4-3.5,1.5-6.9,0.5-10.2c-1-3.2-2.9-5.3-5.8-6.4
	c-3.2-1.3-6.5-0.6-9.9,2.2c3.4-2.7,6.7-3.4,9.9-2.2c2.8,1,4.7,3.2,5.8,6.4c1,3.3,0.9,6.7-0.5,10.2c-0.1,0.1-0.1,0.3-0.1,0.4l0.5,0.2
	c0-0.2,0-0.4,0.1-0.6c1.3-3.5,1.7-6.9,1.2-10.3C256.5,90.4,255.2,87.6,253.1,85.6 M252.5,95.9c-0.6-2.2-1.9-3.6-3.8-4.4
	c-1.8-0.7-3.8-0.4-5.8,0.8c-2,1.2-3.4,3-4.3,5.4c-0.9,2.5-1,4.8-0.4,7c0.7,2.2,2,3.7,4,4.3c2,0.8,3.9,0.5,5.8-0.8
	c-1.9,1.3-3.8,1.6-5.8,0.8c-1.9-0.6-3.3-2.1-4-4.3c-0.7-2.2-0.6-4.6,0.4-7c0.9-2.4,2.3-4.2,4.3-5.4c2-1.3,3.9-1.5,5.8-0.8
	C250.6,92.2,251.9,93.7,252.5,95.9 M249.2,83c-0.3-0.1-0.6-0.2-0.9-0.3l1.1,0.5C249.3,83.1,249.2,83,249.2,83 M244.5,76.9h-0.1
	c-4.2-1.4-8.4-0.8-12.9,2c-4.5,2.8-7.8,7-9.9,12.6c-2.1,5.6-2.3,10.9-0.8,15.9c1.5,5,4.4,8.4,8.6,10.2c0.1,0,0.1,0,0.2,0.1
	c3.8,1.2,7.7,0.8,11.9-1.3c-1.8,0.1-3.2-0.1-4.4-0.6c-0.2-0.1-0.5-0.2-0.7-0.2l-5.4-2.1c-3.4-1.3-5.8-4.1-6.9-8.1
	c-1.3-4.1-1-8.3,0.7-12.8c1.7-4.5,4.3-7.8,7.9-10.1c3.6-2.3,7.2-2.8,10.7-1.6l4.8,1.7c0.3,0.1,0.6,0.2,0.9,0.3
	c0.1,0,0.1,0.1,0.2,0.2c1.4,0.6,2.6,1.4,3.8,2.4C251.5,81.4,248.6,78.5,244.5,76.9 M203.7,85c2.1-5.7,5.4-9.9,9.9-12.7
	c0.9-0.6,1.8-1,2.6-1.3l-3.1-1.1c-3.4-1.3-7-0.8-10.8,1.4c-3.7,2.3-6.4,5.7-8.2,10.3c-1.6,4.2-1.9,8.3-0.8,12.3
	c1.1,4,3.2,6.8,6.3,8.4l4.4,1.7c-0.4-0.9-0.8-1.9-1.1-2.9C201.4,96,201.7,90.6,203.7,85 M213.7,72.3c-4.5,2.8-7.9,7-9.9,12.7
	c-2.1,5.7-2.3,11.1-0.7,16.2c0.3,1,0.7,2,1.1,2.9c1.7,3.5,4.2,5.9,7.8,7.2l6.9,2.5c-2.2-1.3-4-3.2-5.4-5.6
	c-1.8-3.1-2.6-6.7-2.5-10.9c-0.1,4.2,0.7,7.8,2.5,10.9c1.4,2.5,3.2,4.3,5.4,5.6l1.1,0.4l9.7,3.6c-4.2-1.8-7.1-5.2-8.6-10.2
	c-1.6-5-1.3-10.3,0.8-15.9c2.1-5.6,5.4-9.8,9.9-12.6c4.4-2.8,8.7-3.5,12.9-2l-7.8-2.9l-1.6-0.6l-0.8-0.3c-2.3-0.5-4.6-0.4-7.1,0.3
	c-3.1,0.9-6,2.6-8.5,5.2c2.5-2.6,5.4-4.3,8.5-5.2c2.4-0.7,4.8-0.8,7.1-0.3l-7.1-2.8c-3.6-1.3-7.2-1.1-10.8,0.6
	C215.5,71.3,214.6,71.7,213.7,72.3 M219.6,53.1c3.9,1.5,7.2,4.1,9.9,7.6c2.7,3.5,4.5,7.8,5.5,12.8l1.6,0.6c-0.6-6.4-2.6-12-5.8-16.8
	c-3.2-4.7-7.3-8-12.4-9.9l-29.6,10.9l-15,36.6l0.2,0.2c2.6,3.7,5.1,7.4,7.3,11.2c-0.4-1-0.8-2-1.1-3.1c-2.5-8.3-2.1-17.1,1.4-26.2
	c3.4-9.2,8.9-16.1,16.3-20.8C205.3,51.4,212.5,50.4,219.6,53.1 M229.5,60.6c-2.7-3.5-6.1-6-9.9-7.6c-7-2.6-14.3-1.6-21.8,3
	c-7.4,4.6-12.9,11.6-16.3,20.8c-3.4,9.2-3.9,17.9-1.4,26.2c0.3,1.1,0.7,2.1,1.1,3.1c1.1,1.9,2.2,3.8,3.2,5.8c2.5,3.5,5.9,6,10,7.5
	c4.1,1.5,8.3,1.8,12.8,0.9c4.4-1,8.5-3,12.4-6.1c-0.3-0.1-0.6-0.3-0.9-0.5l-6.9-2.5c-3.5-1.3-6.1-3.7-7.8-7.2l-4.4-1.7
	c-3.2-1.6-5.3-4.4-6.3-8.4c-1-4-0.8-8.1,0.8-12.3c1.8-4.6,4.5-8,8.2-10.3c3.8-2.3,7.4-2.8,10.8-1.4l3.1,1.1
	c3.6-1.7,7.2-1.9,10.8-0.6l7.1,2.8l0.8,0.3C234.1,68.4,232.2,64.2,229.5,60.6 M157,54.8c2.9-2.5,5.9-3.9,9.1-4.4l-8.1,0.9
	c-3,0.2-5.8,1.4-8.2,3.6c-2.6,2.2-4.5,5.1-5.8,8.5c-1.3,3.4-1.7,6.8-1.2,10.2c0.5,3.3,1.7,6.1,3.6,8.2l5.1,5.1
	c-1.8-2.4-2.9-5.3-3.4-8.6c-0.6-4.2-0.1-8.4,1.5-12.6C151.3,61.2,153.8,57.6,157,54.8 M188.8,58.2l-9-3.1c-4.6,5-8.2,10.6-10.8,16.8
	c-2.6,6.4-3.9,12.9-4.1,19.8v0.1l9,3.2l-0.2-0.2L188.8,58.2 M179.8,55.1l1.1-0.7c-4-0.2-7.8,1.1-11.4,3.9c-3.6,2.9-6.2,6.6-7.9,11.3
	c-1.6,4.3-2.1,8.6-1.4,12.9c0.6,4.3,2.3,7.7,5.1,10.3l-0.2-1.1v-0.1c0.2-6.8,1.5-13.4,4.1-19.8C171.6,65.7,175.1,60.1,179.8,55.1
	 M181.3,54.1l-0.4,0.4l-1.1,0.7l9,3.1l29.6-10.9l-9-3.4C199.5,45.3,190.1,48.7,181.3,54.1 M181.3,54.1l-2.8-1.1
	c-2.6-0.9-5.4-0.9-8.4,0c-3.1,0.9-5.9,2.6-8.5,5.2c2.6-2.6,5.4-4.3,8.5-5.2c3-0.9,5.8-0.9,8.4,0l-5.4-2l-5.9-0.9l-1.2,0.2
	c-3.2,0.5-6.2,2-9.1,4.4c-3.3,2.8-5.7,6.4-7.3,10.8c-1.5,4.1-2,8.3-1.5,12.6c0.5,3.4,1.6,6.2,3.4,8.6l1.4,1.4l4.7,3.2l6.2,2.4
	c-2.8-1.2-5.1-3.2-6.9-5.9c-1.8-2.8-2.8-6-3-9.7c0.2,3.7,1.2,6.9,3,9.7c1.8,2.7,4.1,4.7,6.9,5.9l1.4,0.5l-0.2-1.4
	c-2.7-2.6-4.4-6-5.1-10.3c-0.6-4.2-0.2-8.5,1.4-12.9c1.7-4.7,4.3-8.5,7.9-11.3c3.6-2.9,7.4-4.2,11.4-3.9L181.3,54.1z"/>
<path id="Layer0_5_1_STROKES" class="st1" d="M255.7,104.7c-1.3,3.2-3.2,5.9-5.6,8.1c-2.6,2.2-5.4,3.5-8.5,3.7
	c-4.2,2.1-8.1,2.5-11.9,1.3c-0.1-0.1-0.1-0.1-0.2-0.1l-9.7-3.6c-0.1,0-0.1,0-0.1,0.1c0.3,0.1,0.6,0.2,0.9,0.4l0.9,0.2
	c-4.7,4.6-9.9,7.6-15.5,9.1c-5.6,1.5-11,1.3-16.3-0.7l-8.8-3.2c-7.7-7.1-12.8-15.6-15.5-25.5l-0.1-0.1l-1.4-0.5l-6.2-2.4l-4.7-3.2
	l-1.4-1.4l-5.1-5.1c-1.9-2.1-3.1-4.8-3.6-8.2c-0.5-3.4-0.1-6.8,1.2-10.2c1.3-3.4,3.2-6.3,5.8-8.5c2.5-2.2,5.2-3.4,8.2-3.6l8.1-0.9
	l1.2-0.2l5.9,0.9l5.4,2l2.8,1.1c8.8-5.4,18.1-8.7,28.1-10.1l9,3.4c5,1.9,9.2,5.2,12.4,9.9c3.3,4.8,5.2,10.4,5.8,16.8l7.8,2.9h0.1
	c4.2,1.6,7,4.5,8.6,8.6c2.1,2.1,3.4,4.8,4,8.2c0.5,3.4,0.1,6.8-1.2,10.3C255.8,104.3,255.7,104.5,255.7,104.7z M181.3,54.1l-0.4,0.4
	l-1.1,0.7l9,3.1l29.6-10.9 M166.1,50.3c-3.2,0.5-6.2,2-9.1,4.4c-3.3,2.8-5.7,6.4-7.3,10.8c-1.5,4.1-2,8.3-1.5,12.6
	c0.5,3.4,1.6,6.2,3.4,8.6 M178.6,53c-2.6-0.9-5.4-0.9-8.4,0c-3.1,0.9-5.9,2.6-8.5,5.2 M180.9,54.4c-4-0.2-7.8,1.1-11.4,3.9
	c-3.6,2.9-6.2,6.6-7.9,11.3c-1.6,4.3-2.1,8.6-1.4,12.9c0.6,4.3,2.3,7.7,5.1,10.3l-0.2-1.1v-0.1c0.2-6.8,1.5-13.4,4.1-19.8
	c2.5-6.2,6.1-11.8,10.8-16.8 M219.6,53.1c-7-2.6-14.3-1.6-21.8,3c-7.4,4.6-12.9,11.6-16.3,20.8c-3.4,9.2-3.9,17.9-1.4,26.2
	c0.3,1.1,0.7,2.1,1.1,3.1c1.1,1.9,2.2,3.8,3.2,5.8c2.5,3.5,5.9,6,10,7.5c4.1,1.5,8.3,1.8,12.8,0.9c4.4-1,8.5-3,12.4-6.1
	c-0.3-0.1-0.6-0.3-0.9-0.5l-6.9-2.5c-3.5-1.3-6.1-3.7-7.8-7.2l-4.4-1.7c-3.2-1.6-5.3-4.4-6.3-8.4c-1-4-0.8-8.1,0.8-12.3
	c1.8-4.6,4.5-8,8.2-10.3c3.8-2.3,7.4-2.8,10.8-1.4l3.1,1.1c3.6-1.7,7.2-1.9,10.8-0.6l7.1,2.8l0.8,0.3c-1-5-2.8-9.3-5.5-12.8
	C226.8,57.1,223.5,54.6,219.6,53.1z M216.3,70.9c-0.9,0.3-1.8,0.8-2.6,1.3c-4.5,2.8-7.9,7-9.9,12.7c-2.1,5.7-2.3,11.1-0.7,16.2
	c0.3,1,0.7,2,1.1,2.9 M235,73.5l1.6,0.6 M234.2,73.1c-2.3-0.5-4.6-0.4-7.1,0.3c-3.1,0.9-6,2.6-8.5,5.2 M241.6,116.5
	c-1.8,0.1-3.2-0.1-4.4-0.6c-0.2-0.1-0.5-0.2-0.7-0.2l-5.4-2.1c-3.4-1.3-5.8-4.1-6.9-8.1c-1.3-4.1-1-8.3,0.7-12.8
	c1.7-4.5,4.3-7.8,7.9-10.1c3.6-2.3,7.2-2.8,10.7-1.6l4.8,1.7c0.3,0.1,0.6,0.2,0.9,0.3c0.1,0,0.1,0.1,0.2,0.2
	c1.4,0.6,2.6,1.4,3.8,2.4 M249.4,83.2l-1.1-0.5c-3.2-0.8-6.4-0.2-9.8,1.8c-3.7,2.3-6.3,5.8-8,10.3c-1.7,4.5-1.9,8.8-0.6,12.9
	c1.3,3.9,3.5,6.5,6.6,7.9 M255.3,104.5c0-0.2,0-0.3,0.1-0.4c1.4-3.5,1.5-6.9,0.5-10.2c-1-3.2-2.9-5.3-5.8-6.4
	c-3.2-1.3-6.5-0.6-9.9,2.2 M244.4,76.9c-4.2-1.4-8.4-0.8-12.9,2c-4.5,2.8-7.8,7-9.9,12.6c-2.1,5.6-2.3,10.9-0.8,15.9
	c1.5,5,4.4,8.4,8.6,10.2 M252.5,95.9c-0.6-2.2-1.9-3.6-3.8-4.4c-1.8-0.7-3.8-0.4-5.8,0.8c-2,1.2-3.4,3-4.3,5.4c-0.9,2.5-1,4.8-0.4,7
	c0.7,2.2,2,3.7,4,4.3c2,0.8,3.9,0.5,5.8-0.8 M255.3,104.5c-1.4,3.3-3.4,5.8-6.1,7.5c-2.9,1.8-5.7,2.1-8.5,1c-2.8-1-4.7-3.1-5.7-6.3
	 M210.8,97.2c-0.1,4.2,0.7,7.8,2.5,10.9c1.4,2.5,3.2,4.3,5.4,5.6l1.1,0.4 M165.2,92.9l0.2,1.4 M164.9,91.8l9,3.2l-0.2-0.2l15-36.6
	 M181.2,106.2c-2.2-3.8-4.7-7.6-7.3-11.2 M189.7,123.2c-1.6-3.8-3.4-7.6-5.2-11.2 M164,93.8c-2.8-1.2-5.1-3.2-6.9-5.9
	c-1.8-2.8-2.8-6-3-9.7"/>
<path id="Layer0_5_2_STROKES" class="st2" d="M255.7,104.7l1.1,0.4 M77.2,40.8l58.3,20.9 M276.7,112.3l-11.4-4.1 M262.6,107.1
	l-2.9-0.9 M255.7,104.7l-0.5-0.2l-9.8-3.4"/>
</svg>
