<?xml version="1.0" encoding="iso-8859-1"?>
<!-- Generator: Adobe Illustrator 25.0.1, SVG Export Plug-In . SVG Version: 6.00 Build 0)  -->
<svg version="1.1" id="Ebene_1" xmlns="http://www.w3.org/2000/svg" xmlns:xlink="http://www.w3.org/1999/xlink" x="0px" y="0px"
	 viewBox="0 0 447 576" style="enable-background:new 0 0 447 576;" xml:space="preserve">
<g id="clp-hintergrund">
	<path style="fill:#676767;" d="M441.2,8.1H6.8v563.2h434.4V8.1z"/>
	<path style="fill:#020203;" d="M14,282.2c-2.8,2.8-3.9,6.1-3.9,9.4c0,3.9,1.1,6.6,3.3,8.8l18.7-18.7c-2.2-2.2-5.5-3.9-8.8-3.9
		C20,278.4,16.7,280,14,282.2L14,282.2z"/>
	<path style="fill:#9A9999;" d="M32.7,282.2L14,300.4l0.6,0.6c2.2,2.2,5.5,3.9,9.4,3.9s6.6-1.1,9.4-3.9c2.2-2.2,3.9-5.5,3.9-9.4
		C36.6,287.7,35.5,285,32.7,282.2L32.7,282.2z"/>
	<path style="fill:#676767;" d="M12.3,291.6c0,3.3,1.1,6.1,3.3,8.3s5,3.3,8.3,3.3s5.5-1.1,7.7-3.3c2.2-2.2,3.3-5,3.3-8.3
		s-1.1-5.5-3.3-8.3c-2.2-2.2-5-3.3-7.7-3.3c-3.3,0-6.1,1.1-8.3,3.3S12.3,288.3,12.3,291.6z"/>
	<path style="fill:#343434;" d="M33.8,293.2v-3.3H12.9v3.3H33.8z"/>
	<path style="fill:#020203;" d="M9.6,527.8c-2.8,2.8-3.9,6.1-3.9,9.4c0,3.9,1.1,6.6,3.3,8.8l18.7-18.7c-2.2-2.2-5.5-3.9-8.8-3.9
		C15.6,524.5,12.3,525.6,9.6,527.8L9.6,527.8z"/>
	<path style="fill:#9A9999;" d="M28.3,528.3C28.3,528.3,28.3,527.8,28.3,528.3L9.6,546.5l0.6,0.6c2.2,2.2,5.5,3.9,9.4,3.9
		s6.6-1.1,9.4-3.9c2.2-2.2,3.9-5.5,3.9-9.4C32.2,533.8,31.1,530.5,28.3,528.3L28.3,528.3z"/>
	<path style="fill:#676767;" d="M7.9,537.1c0,3.3,1.1,6.1,3.3,8.3c2.2,2.2,5,3.3,8.3,3.3s5.5-1.1,7.7-3.3s3.3-5,3.3-8.3
		s-1.1-5.5-3.3-8.3s-5-3.3-7.7-3.3c-3.3,0-6.1,1.1-8.3,3.3C9,531.6,7.9,534.4,7.9,537.1z"/>
	<path style="fill:#343434;" d="M29.4,539.3v-3.9H8.5v3.3L29.4,539.3L29.4,539.3z"/>
	<path style="fill:#020203;" d="M412,282.8c-2.8,2.8-3.9,6.1-3.9,9.4c0,3.9,1.1,6.6,3.3,8.8l18.7-18.7c-2.2-2.2-5.5-3.9-8.8-3.9
		C418.1,278.9,414.8,280.6,412,282.8L412,282.8z"/>
	<path style="fill:#9A9999;" d="M430.7,282.8L412,300.9l0.6,0.6c2.2,2.2,5.5,3.9,9.4,3.9s6.6-1.1,9.4-3.9c2.2-2.2,3.9-5.5,3.9-9.4
		C434.6,288.3,433.5,285.5,430.7,282.8L430.7,282.8z"/>
	<path style="fill:#676767;" d="M410.4,292.1c0,3.3,1.1,6.1,3.3,8.3s5,3.3,8.3,3.3s5.5-1.1,7.7-3.3c2.2-2.2,3.3-5,3.3-8.3
		s-1.1-5.5-3.3-8.3c-2.2-2.2-5-3.3-7.7-3.3c-3.3,0-6.1,1.1-8.3,3.3C411.5,286.1,410.4,288.8,410.4,292.1z"/>
	<path style="fill:#343434;" d="M431.8,293.8v-3.3h-20.9v3.3H431.8z"/>
	<path style="fill:#020203;" d="M409.8,532.2c-2.8,2.8-3.9,6.1-3.9,9.4c0,3.9,1.1,6.6,3.3,8.8l18.7-18.7c-2.2-2.2-5.5-3.9-8.8-3.9
		C415.3,528.9,412,530,409.8,532.2L409.8,532.2z"/>
	<path style="fill:#9A9999;" d="M428.5,532.7C428.5,532.7,428,532.2,428.5,532.7l-18.7,18.2l0.6,0.6c2.2,2.2,5.5,3.9,9.4,3.9
		s6.6-1.1,9.4-3.9c2.2-2.2,3.9-5.5,3.9-9.4C431.8,538.2,430.7,534.9,428.5,532.7L428.5,532.7z"/>
	<path style="fill:#676767;" d="M407.6,541.5c0,3.3,1.1,6.1,3.3,8.3c2.2,2.2,5,3.3,8.3,3.3s5.5-1.1,7.7-3.3s3.3-5,3.3-8.3
		s-1.1-5.5-3.3-8.3s-5-3.3-7.7-3.3c-3.3,0-6.1,1.1-8.3,3.3C408.7,536,407.6,538.8,407.6,541.5z"/>
	<path style="fill:#343434;" d="M429.6,543.7v-3.3h-20.9v3.3H429.6z"/>
	
		<path id="panel_accp_0_Layer0_0_MEMBER_39_MEMBER_0_1_STROKES" style="fill:none;stroke:#343434;stroke-width:0.75;stroke-linecap:round;stroke-linejoin:round;" d="
		M404.3,564.6v-25.9c0-8.3,4.4-12.1,12.1-12.1h16"/>
	
		<path id="panel_accp_0_Layer0_0_MEMBER_39_MEMBER_1_1_STROKES" style="fill:none;stroke:#9A9999;stroke-width:0.75;stroke-linecap:round;stroke-linejoin:round;" d="
		M13.4,63.7h13.2c8.3,0,12.1-4.4,12.1-12.1V16.4"/>
	
		<path id="panel_accp_0_Layer0_0_MEMBER_39_MEMBER_2_1_STROKES" style="fill:none;stroke:#343434;stroke-width:0.75;stroke-linecap:round;stroke-linejoin:round;" d="
		M404.3,16.3v35.2c0,8.3,4.4,12.1,12.1,12.1h16"/>
	
		<path id="panel_accp_0_Layer0_0_MEMBER_39_MEMBER_3_1_STROKES" style="fill:none;stroke:#343434;stroke-width:0.75;stroke-linecap:round;stroke-linejoin:round;" d="
		M40.4,531.1c0-8.3-4.4-12.1-12.1-12.1H13.4"/>
	
		<path id="panel_accp_0_Layer0_0_MEMBER_39_MEMBER_3_2_STROKES" style="fill:none;stroke:#9A9999;stroke-width:0.75;stroke-linecap:round;stroke-linejoin:round;" d="
		M40.4,562.4v-31.9"/>
	
		<path id="panel_accp_0_Layer0_0_MEMBER_39_MEMBER_4_1_STROKES" style="fill:none;stroke:#9A9999;stroke-width:0.75;stroke-linecap:round;stroke-linejoin:round;" d="
		M12.3,516.2V311.9"/>
	
		<path id="panel_accp_0_Layer0_0_MEMBER_39_MEMBER_5_1_STROKES" style="fill:none;stroke:#343434;stroke-width:0.75;stroke-linecap:round;stroke-linejoin:round;" d="
		M434.1,525.6V309.7"/>
	
		<path id="panel_accp_0_Layer0_0_MEMBER_39_MEMBER_6_1_STROKES" style="fill:none;stroke:#9A9999;stroke-width:0.75;stroke-linecap:round;stroke-linejoin:round;" d="
		M41,15.8h362.3"/>
	
		<path id="panel_accp_0_Layer0_0_MEMBER_39_MEMBER_7_1_STROKES" style="fill:none;stroke:#343434;stroke-width:0.75;stroke-linecap:round;stroke-linejoin:round;" d="
		M41.5,564.6h361.2"/>
	
		<path id="panel_accp_0_Layer0_0_MEMBER_39_MEMBER_8_1_STROKES" style="fill:none;stroke:#343434;stroke-width:0.75;stroke-linecap:round;stroke-linejoin:round;" d="
		M434.1,273.4V64.2"/>
	
		<path id="panel_accp_0_Layer0_0_MEMBER_39_MEMBER_9_1_STROKES" style="fill:none;stroke:#9A9999;stroke-width:0.75;stroke-linecap:round;stroke-linejoin:round;" d="
		M11.8,273.4V63.1"/>
	<path style="fill:#343434;" d="M420.3,275.6h14.3v-1.7h-16c-5,0-9.4,1.7-13.2,5c-3.9,3.9-5.5,7.7-5.5,12.7c0,5.5,1.7,9.9,5.5,13.2
		c3.3,3.3,7.2,5,11.6,5v0.6h17.1v-1.7h-16c-4.4,0-7.7-2.2-11-5c-3.3-3.3-5-7.2-5-11.6s1.7-8.8,5-11.6
		C411.5,277.3,415.3,275.6,420.3,275.6L420.3,275.6z"/>
	<path style="fill:#9A9999;" d="M10.1,274v2.2h12.1c0.6,0,1.7-0.6,2.2-0.6H25c4.4,0,8.3,1.7,11.6,5c3.3,3.3,5,7.2,5,11.6
		c0,5-1.7,8.8-5,11.6c-3.3,3.3-6.6,5-11,5v0.6h-16v1.7h17.1c4.4-0.6,8.3-2.2,11.6-5.5c3.9-3.3,5.5-7.7,5.5-13.2s-1.7-9.4-5.5-13.2
		c-3.9-3.3-8.3-5.5-13.2-5.5c-0.6,0-1.7,0-2.2,0.6L10.1,274L10.1,274z"/>
	<path style="fill:#020203;" d="M12.9,32.3C10.1,35.1,9,38.4,9,41.7c0,3.9,1.1,6.6,3.3,8.8L31,31.8c-2.2-2.2-5.5-3.9-8.8-3.9
		C18.9,29,15.6,30.1,12.9,32.3L12.9,32.3z"/>
	<path style="fill:#9A9999;" d="M31.6,32.8C31.6,32.8,31.6,32.3,31.6,32.8L12.9,51l0.6,0.6c2.2,2.2,5.5,3.9,9.4,3.9s6.6-1.1,9.4-3.9
		c2.2-2.2,3.9-5.5,3.9-9.4C35.5,38.3,34.4,35,31.6,32.8L31.6,32.8z"/>
	<path style="fill:#676767;" d="M11.2,41.6c0,3.3,1.1,6.1,3.3,8.3c2.2,2.2,5,3.3,8.3,3.3s5.5-1.1,7.7-3.3s3.3-5,3.3-8.3
		s-1.1-5.5-3.3-8.3c-2.2-2.2-5-3.3-7.7-3.3c-3.3,0-6.1,1.1-8.3,3.3C12.3,36.1,11.2,38.9,11.2,41.6z"/>
	<path style="fill:#343434;" d="M32.7,43.8v-3.9H11.8v3.3L32.7,43.8z"/>
	<path style="fill:#020203;" d="M410.9,32.8c-2.8,2.8-3.9,6.1-3.9,9.4c0,3.9,1.1,6.6,3.3,8.8L429,32.3c-2.2-2.2-5.5-3.9-8.8-3.9
		C417,29.5,413.7,30.6,410.9,32.8L410.9,32.8z"/>
	<path style="fill:#9A9999;" d="M429.6,33.4C429.6,33.4,429.6,32.8,429.6,33.4l-18.7,18.2l0.6,0.6c2.2,2.2,5.5,3.9,9.4,3.9
		s6.6-1.1,9.4-3.9c2.2-2.2,3.9-5.5,3.9-9.4C433.5,38.9,432.4,35.6,429.6,33.4L429.6,33.4z"/>
	<path style="fill:#676767;" d="M409.3,42.2c0,3.3,1.1,6.1,3.3,8.3s5,3.3,8.3,3.3s5.5-1.1,7.7-3.3s3.3-5,3.3-8.3s-1.1-5.5-3.3-8.3
		c-2.2-2.2-5-3.3-7.7-3.3c-3.3,0-6.1,1.1-8.3,3.3C410.4,36.7,409.3,39.4,409.3,42.2z"/>
	<path style="fill:#343434;" d="M430.7,44.4v-3.3h-20.9v3.3H430.7z"/>
	<text transform="matrix(1 0 0 1 130.1547 47.1215)" style="fill:#FFFFFF; font-family:'ArialMT'; font-size:19.7913px;">AIR CONDITIONING</text>
	<g transform="matrix( 0.7373504638671875, 0, 0, 0.7373504638671875, 348.4,19.35) ">
		<g transform="matrix( 1, 0, 0, 1, 0,0) ">
			<g>
				<g id="info2_0_Layer1_0_MEMBER_0_MEMBER_0_FILL_4_">
					<path style="fill:#FFFFFF;stroke:#456584;stroke-width:0.2719;stroke-miterlimit:1.185;" d="M-444.7,58
						c6.8,7,15.1,10.4,24.8,10.4c9.7,0,18.1-3.6,24.8-10.4c6.8-6.8,10.4-15.1,10.4-24.8c0-9.7-3.4-17.8-10.4-24.8S-410.2-2-419.9-2
						s-17.8,3.4-24.8,10.4c-7,6.8-10.4,15.1-10.4,24.8S-451.7,51-444.7,58z"/>
				</g>
			</g>
		</g>
		<path style="fill:#456584;" d="M-400.9,34.6c-2.5-0.9-7.9,3.8-10.6,6.5c-0.5,0.5-0.5-1.1-0.5-2.9c0-0.2,0-0.2,0-0.5v-0.5
			c0-1.6,0-3.2,0-4.3V30c6.3-1.4,11.3-7,11.3-14c0-7.9-6.3-14.2-14.2-14.2c-7.9,0-14.2,6.3-14.2,14.2c0,3.8,1.4,7.5,4.1,9.9
			c-0.2,0.5-0.5,0.9-0.5,1.6v7l-1.1,0.2v-6.1c0-1.6-1.1-2.9-2.7-2.9h-0.5c-1.6,0-3.2,1.4-3.2,2.9v7.2l-1.1,0.2v-2.9
			c0-1.6-0.7-2.9-2.3-2.9h-0.5c-1.6,0-3.6,1.4-3.6,2.9v0.2v2v1.4l-1.1,10.2c-0.9,2.7-1.4,9.3,8.1,15.1c0,0,5.4,2.7,12.2-2
			c3.6-2.7,9.5-8.4,14.2-13.1l2.9-3.2c2.3-2.5,3.8-4.3,4.3-4.7C-398.9,37.5-399.1,35-400.9,34.6z M-414.2,13.3h-0.5
			c-1.6,0-3.6,1.4-3.6,2.9v3.4c-1.1-0.9-1.4-2-1.4-3.6c0-2.7,2.3-4.7,5-4.7s4.7,2.3,4.7,4.7c0,1.6-0.9,2.9-2,3.8V16
			C-412,14.7-412.7,13.3-414.2,13.3z M-412,21.5c2-1.1,2.9-2.9,2.9-5.2c0-3.2-2.7-5.9-5.9-5.9c-3.2,0-5.9,2.7-5.9,5.9
			c0,2,1.4,3.8,2.5,5v3.6c-3.2-1.4-5.6-4.5-5.6-8.4c0-5,4.1-9,9-9c5,0,9,4.1,9,9c0,3.8-2,7.2-6.1,8.6L-412,21.5L-412,21.5z
			 M-414.7,3.2c7.2,0,13.1,5.9,13.1,13.1c0,6.3-4.1,11.5-10.4,12.9V26c4.3-1.4,7.2-5.2,7.2-9.7c0-5.6-4.5-10.2-10.2-10.2
			s-10.2,4.5-10.2,10.2c0,4.5,2.5,8.1,6.8,9.5V29c0,0,0-0.2-1.1-0.2v-0.9c0-1.6-1.1-2.9-2.7-2.9h-0.5c-0.7,0-1.4,0.2-1.8,0.7
			c-2.3-2.5-3.6-5.6-3.6-9.3C-428,9.1-422.1,3.2-414.7,3.2z M-419.4,34.1v-4.3c1.1,0,1.1,0.2,1.1,0.2v3.8L-419.4,34.1z"/>
	</g>
</g>
<path id="clp-fltcomp-temp-selec" style="fill:none;" d="M412.4,417.8h-105c-2.3,0-4.1,1.9-4.1,4.1v21.7c0,2.3,1.9,4.1,4.1,4.1h9
	c-4.2,7.3-6.6,15.8-6.6,24.9c0,14.1,5.9,26.9,15.3,36h-4.2c-2.3,0-4.1,1.9-4.1,4.1v24.7c0,2.3,1.9,4.1,4.1,4.1h78
	c2.2,0,4.1-1.8,4.1-4.1v-24.7c0-2.3-1.9-4.1-4.1-4.1h-4.2c9.4-9.1,15.3-21.9,15.3-36c0-9-2.4-17.5-6.6-24.9h9c2.2,0,4.1-1.8,4.1-4.1
	v-21.7C416.5,419.6,414.6,417.8,412.4,417.8z"/>
<path id="clp-cabin-temp-selec" style="fill:none;" d="M160.1,417.8h-105c-2.3,0-4.1,1.9-4.1,4.1v21.7c0,2.3,1.9,4.1,4.1,4.1h9
	c-4.2,7.3-6.6,15.8-6.6,24.9c0,14.1,5.9,26.9,15.3,36h-4.2c-2.3,0-4.1,1.9-4.1,4.1v24.7c0,2.3,1.9,4.1,4.1,4.1h78
	c2.2,0,4.1-1.8,4.1-4.1v-24.7c0-2.3-1.9-4.1-4.1-4.1h-4.2c9.4-9.1,15.3-21.9,15.3-36c0-9-2.4-17.5-6.6-24.9h9c2.2,0,4.1-1.8,4.1-4.1
	v-21.7C164.2,419.6,162.3,417.8,160.1,417.8z"/>
<circle id="clp-flt-comp-sw" style="fill:none;" cx="288.7" cy="387.9" r="36.9"/>
<circle id="clp-cab-pack-sw" style="fill:none;" cx="154.7" cy="387.9" r="36.9"/>
<path id="clp-bleed-cont-selec" style="fill:none;" d="M410.8,195.3h-23.5c-11.9-12.7-28.8-20.7-47.5-20.7s-35.7,8-47.5,20.7h-23.5
	c-2.3,0-4.1,1.9-4.1,4.1v24.7c0,2.3,1.9,4.1,4.1,4.1h7c-0.7,3.7-1,7.5-1,11.4c0,35.9,29.1,65,65,65s65-29.1,65-65
	c0-3.9-0.4-7.7-1-11.4h7c2.2,0,4.1-1.8,4.1-4.1v-24.7C414.9,197.1,413,195.3,410.8,195.3z"/>
<path id="clp-duct-temp-gauge-select" style="fill:none;" d="M293.1,303.1h-10.8v-7.9c0-2.3-1.9-4.1-4.1-4.1h-9.1
	c-7-19.2-25.5-32.9-47.1-32.9c-21.9,0-40.5,14.1-47.4,33.7H156c-2.3,0-4.1,1.9-4.1,4.1v8.8h-4.4c-2.3,0-4.1,1.9-4.1,4.1v24.7
	c0,2.3,1.9,4.1,4.1,4.1h34c9.1,12.6,23.9,20.7,40.6,20.7c17.5,0,32.8-8.9,41.8-22.5h29.2c2.2,0,4.1-1.8,4.1-4.1v-24.7
	C297.2,304.9,295.3,303.1,293.1,303.1z"/>
<circle id="clp-duct-temp-gauge" style="fill:none;" cx="112.4" cy="247.5" r="63.2"/>
<path id="clp-bleed-sw" style="fill:none;" d="M372.1,115.1c0-19.2-15.5-34.7-34.7-34.7c-14.8,0-27.5,9.3-32.4,22.4h-51.8
	c-5-13.1-17.6-22.4-32.4-22.4c-19.2,0-34.7,15.5-34.7,34.7c0,11.7,5.8,22,14.7,28.3v21.3c0,2.3,1.9,4.1,4.1,4.1h147
	c2.2,0,4.1-1.8,4.1-4.1v-20.2C365.6,138.4,372.1,127.5,372.1,115.1z M248.7,135.7h60.8c0,0.1,0.1,0.1,0.1,0.2h-61.1
	C248.6,135.8,248.6,135.8,248.7,135.7z"/>
<path id="clp-rec-sw" style="fill:none;" d="M162.7,99.3h-26.1c-5.8-11.2-17.4-18.9-30.9-18.9C86.5,80.4,71,95.9,71,115.1
	c0,7.8,2.6,15,6.9,20.8h-4.5c-2.3,0-4.1,1.9-4.1,4.1v24.7c0,2.3,1.9,4.1,4.1,4.1h65c2.2,0,4.1-1.8,4.1-4.1V140
	c0-2.3-1.9-4.1-4.1-4.1h-4.9c0.9-1.2,1.7-2.4,2.4-3.7h26.7c2.2,0,4.1-1.8,4.1-4.1v-24.7C166.8,101.1,164.9,99.3,162.7,99.3z"/>
<g id="clp-system">
	<path style="fill:#DDDDDC;" d="M288.7,390.1c0-2.8-1.7-5.5-4.4-7.7c-2.2,2.2-3.3,4.4-3.3,7.7c0,2.8,1.1,5,3.3,7.2
		C287.6,395.1,288.7,392.3,288.7,390.1z"/>
	<path style="fill:#343434;" d="M276.6,402.2c3.3,3.9,7.7,5.5,12.7,5.5s9.4-1.7,13.2-5.5c3.3-3.3,5-7.2,5-12.1c0-5-1.7-9.4-5-13.2
		c-3.9-3.3-8.3-5-13.2-5s-9.4,1.7-12.7,5c-3.9,3.9-5.5,8.3-5.5,13.2C271.1,394.5,273.3,398.9,276.6,402.2z"/>
	<path style="fill:#343434;" d="M277.7,390.1c0,3.3,1.1,6.1,3.9,8.3c2.2,2.2,5,3.9,8.3,3.9s6.1-1.1,8.3-3.9c2.2-2.2,3.3-5,3.3-8.3
		s-1.1-6.1-3.3-8.3c-2.2-2.2-5-3.3-8.3-3.3s-6.1,1.1-8.3,3.3C278.8,384.1,277.7,386.8,277.7,390.1z"/>
	<path style="fill:#CDCCCC;" d="M289.3,400.6c3.3,0,6.1-1.1,8.3-3.3c2.2-2.2,3.3-5,3.3-8.3s-1.1-6.1-3.3-7.7c-2.2-2.2-5-3.3-8.3-3.3
		s-6.1,1.1-7.7,3.3c-2.2,2.2-3.3,5-3.3,7.7c0,3.3,1.1,6.1,3.3,8.3C283.8,399.5,286.5,400.6,289.3,400.6z"/>
	<path style="fill:#676767;" d="M288.7,373.1h1.7c1.7,0,3.3-1.1,5-1.7c1.1-1.1,1.7-1.7,2.2-2.8c0-0.6,0.6-1.1,0.6-1.7
		c0-1.7-1.1-3.3-2.8-5c-1.1-1.1-2.8-1.7-5-1.7h-1.7c-2.8,0-4.4,0.6-6.6,2.2c-1.7,1.1-2.8,2.8-2.8,5v1.7c0.6,1.1,1.1,2.2,2.8,3.3
		c0.6,0.6,1.7,1.1,2.2,1.1C286,372.5,287.1,373.1,288.7,373.1L288.7,373.1z"/>
	<path style="fill:#9A9999;" d="M282.7,389l2.2,2.8l3.9,1.1l3.3-0.6l2.8-2.8l2.8-22c-0.6,1.1-1.1,2.2-2.2,2.8
		c-1.1,1.1-2.8,1.7-5,1.7h-1.7c-1.7,0-2.8,0-3.9-0.6c-1.1,0-1.7-0.6-2.2-1.1c-1.1-1.1-2.2-2.2-2.8-3.3L282.7,389L282.7,389z"/>
	
		<path id="SCHALTER_4_0_Layer0_0_MEMBER_2_MEMBER_0_MEMBER_0_1_STROKES_3_" style="fill:none;stroke:#231F20;stroke-width:0.113;stroke-miterlimit:2.261;" d="
		M297.5,369.2c0.6-3.3-0.6-6.1-2.2-7.7c-1.7-1.7-3.9-2.8-6.6-2.8c-6.6,0-9.4,3.3-8.8,10.5"/>
	
		<path id="SCHALTER_4_0_Layer0_0_MEMBER_2_MEMBER_0_MEMBER_1_1_STROKES_3_" style="fill:none;stroke:#231F20;stroke-width:0.113;stroke-miterlimit:2.261;" d="
		M282.7,388.5c0,1.7,1.1,2.8,2.2,3.9c1.1,1.1,2.2,1.1,3.9,1.1c1.7,0,2.8-0.6,3.9-1.7c1.1-1.1,1.7-2.2,2.2-3.9"/>
	
		<path id="SCHALTER_4_0_Layer0_0_MEMBER_2_MEMBER_0_MEMBER_2_1_STROKES_3_" style="fill:none;stroke:#231F20;stroke-width:0.113;stroke-miterlimit:2.261;" d="
		M297.5,369.2l-2.8,18.7"/>
	
		<path id="SCHALTER_4_0_Layer0_0_MEMBER_2_MEMBER_0_MEMBER_3_1_STROKES_3_" style="fill:none;stroke:#231F20;stroke-width:0.113;stroke-miterlimit:2.261;" d="
		M282.7,388.5l-2.8-18.7"/>
	
		<path id="SCHALTER_4_0_Layer0_0_MEMBER_2_MEMBER_1_1_STROKES_3_" style="fill:none;stroke:#231F20;stroke-width:0.113;stroke-miterlimit:2.261;" d="
		M293.7,363.7c-1.7-2.2-4.4-2.8-7.2-1.7s-4.4,2.8-4.4,5.5"/>
	<path style="fill:#DDDDDC;" d="M154.4,390.1c0-2.8-1.7-5.5-4.4-7.7c-2.2,2.2-3.3,4.4-3.3,7.7c0,2.8,1.1,5,3.3,7.2
		C153.3,395.1,154.4,392.3,154.4,390.1z"/>
	<path style="fill:#343434;" d="M142.3,402.2c3.3,3.9,7.7,5.5,12.7,5.5s9.4-1.7,13.2-5.5c3.3-3.3,5-7.2,5-12.1c0-5-1.7-9.4-5-13.2
		c-3.9-3.3-8.3-5-13.2-5s-9.4,1.7-12.7,5c-3.9,3.9-5.5,8.3-5.5,13.2C136.8,394.5,139,398.9,142.3,402.2z"/>
	<path style="fill:#343434;" d="M143.4,390.1c0,3.3,1.1,6.1,3.9,8.3c2.2,2.2,5,3.9,8.3,3.9s6.1-1.1,8.3-3.9c2.2-2.2,3.3-5,3.3-8.3
		s-1.1-6.1-3.3-8.3s-5-3.3-8.3-3.3s-6.1,1.1-8.3,3.3C144.5,384.1,143.4,386.8,143.4,390.1z"/>
	<path style="fill:#CDCCCC;" d="M154.9,400.6c3.3,0,6.1-1.1,8.3-3.3s3.3-5,3.3-8.3s-1.1-6.1-3.3-7.7c-2.2-2.2-5-3.3-8.3-3.3
		s-6.1,1.1-7.7,3.3c-2.2,2.2-3.3,5-3.3,7.7c0,3.3,1.1,6.1,3.3,8.3S152.2,400.6,154.9,400.6z"/>
	<path style="fill:#676767;" d="M154.4,373.1h1.7c1.7,0,3.3-1.1,5-1.7c1.1-1.1,1.7-1.7,2.2-2.8c0-0.6,0.6-1.1,0.6-1.7
		c0-1.7-1.1-3.3-2.8-5c-1.1-1.1-2.8-1.7-5-1.7h-1.7c-2.8,0-4.4,0.6-6.6,2.2c-1.7,1.1-2.8,2.8-2.8,5v1.7c0.6,1.1,1.1,2.2,2.8,3.3
		c0.6,0.6,1.7,1.1,2.2,1.1C151.6,372.5,152.7,373.1,154.4,373.1L154.4,373.1z"/>
	<path style="fill:#9A9999;" d="M148.3,389l2.2,2.8l3.9,1.1l3.3-0.6l2.8-2.8l2.8-22c-0.6,1.1-1.1,2.2-2.2,2.8
		c-1.1,1.1-2.8,1.7-5,1.7h-1.7c-1.7,0-2.8,0-3.9-0.6c-1.1,0-1.7-0.6-2.2-1.1c-1.1-1.1-2.2-2.2-2.8-3.3L148.3,389L148.3,389z"/>
	
		<path id="SCHALTER_4_0_Layer0_0_MEMBER_2_MEMBER_0_MEMBER_0_1_STROKES_4_" style="fill:none;stroke:#231F20;stroke-width:0.113;stroke-miterlimit:2.261;" d="
		M163.2,369.2c0.6-3.3-0.6-6.1-2.2-7.7c-1.7-1.7-3.9-2.8-6.6-2.8c-6.6,0-9.4,3.3-8.8,10.5"/>
	
		<path id="SCHALTER_4_0_Layer0_0_MEMBER_2_MEMBER_0_MEMBER_1_1_STROKES_4_" style="fill:none;stroke:#231F20;stroke-width:0.113;stroke-miterlimit:2.261;" d="
		M148.3,388.5c0,1.7,1.1,2.8,2.2,3.9c1.1,1.1,2.2,1.1,3.9,1.1s2.8-0.6,3.9-1.7c1.1-1.1,1.7-2.2,2.2-3.9"/>
	
		<path id="SCHALTER_4_0_Layer0_0_MEMBER_2_MEMBER_0_MEMBER_2_1_STROKES_4_" style="fill:none;stroke:#231F20;stroke-width:0.113;stroke-miterlimit:2.261;" d="
		M163.2,369.2l-2.8,18.7"/>
	
		<path id="SCHALTER_4_0_Layer0_0_MEMBER_2_MEMBER_0_MEMBER_3_1_STROKES_4_" style="fill:none;stroke:#231F20;stroke-width:0.113;stroke-miterlimit:2.261;" d="
		M148.3,388.5l-2.8-18.7"/>
	
		<path id="SCHALTER_4_0_Layer0_0_MEMBER_2_MEMBER_1_1_STROKES_4_" style="fill:none;stroke:#231F20;stroke-width:0.113;stroke-miterlimit:2.261;" d="
		M159.3,363.7c-1.7-2.2-4.4-2.8-7.2-1.7s-4.4,2.8-4.4,5.5"/>
	<path style="fill:#DDDDDC;" d="M105.9,115.4c0,2.8,1.7,5.5,4.4,7.7c2.2-2.2,3.3-4.4,3.3-7.7c0-2.8-1.1-5-3.3-7.2
		C107,110.5,105.9,113.2,105.9,115.4z"/>
	<path style="fill:#343434;" d="M118,103.3c-3.3-3.9-7.7-5.5-12.7-5.5s-9.4,1.7-13.2,5.5c-3.3,3.3-5,7.2-5,12.1c0,5,1.7,9.4,5,13.2
		c3.9,3.3,8.3,5,13.2,5s9.4-1.7,12.7-5c3.9-3.9,5.5-8.3,5.5-13.2C123.5,111,121.3,106.6,118,103.3z"/>
	<path style="fill:#343434;" d="M116.9,115.4c0-3.3-1.1-6.1-3.9-8.3c-2.2-2.2-5-3.9-8.3-3.9s-6.1,1.1-8.3,3.9
		c-2.2,2.2-3.3,5-3.3,8.3s1.1,6.1,3.3,8.3s5,3.3,8.3,3.3s6.1-1.1,8.3-3.3C115.8,121.5,116.9,118.7,116.9,115.4z"/>
	<path style="fill:#CDCCCC;" d="M105.4,104.9c-3.3,0-6.1,1.1-8.3,3.3c-2.2,2.2-3.3,5-3.3,8.3s1.1,6.1,3.3,7.7c2.2,2.2,5,3.3,8.3,3.3
		s6.1-1.1,7.7-3.3c2.2-2.2,3.3-5,3.3-7.7c0-3.3-1.1-6.1-3.3-8.3S108.1,104.9,105.4,104.9z"/>
	
		<path id="SCHALTER_3_0_Layer0_0_1_STROKES_22_" style="fill:none;stroke:#343434;stroke-width:0.4522;stroke-linecap:round;stroke-linejoin:round;stroke-miterlimit:1.8088;" d="
		M103.7,108.8c5.5,0.6,8.8,4.4,9.9,10.5"/>
	<path style="fill:#DDDDDC;" d="M337.7,115.4c0,2.8,1.7,5.5,4.4,7.7c2.2-2.2,3.3-4.4,3.3-7.7c0-2.8-1.1-5-3.3-7.2
		C338.8,110.5,337.7,113.2,337.7,115.4z"/>
	<path style="fill:#343434;" d="M349.8,103.3c-3.3-3.9-7.7-5.5-12.7-5.5s-9.4,1.7-13.2,5.5c-3.3,3.3-5,7.2-5,12.1
		c0,5,1.7,9.4,5,13.2c3.9,3.3,8.3,5,13.2,5s9.4-1.7,12.7-5c3.9-3.9,5.5-8.3,5.5-13.2C355.3,111,353.1,106.6,349.8,103.3z"/>
	<path style="fill:#343434;" d="M348.7,115.4c0-3.3-1.1-6.1-3.9-8.3c-2.2-2.2-5-3.9-8.3-3.9s-6.1,1.1-8.3,3.9
		c-2.2,2.2-3.3,5-3.3,8.3s1.1,6.1,3.3,8.3s5,3.3,8.3,3.3s6.1-1.1,8.3-3.3C347.6,121.5,348.7,118.7,348.7,115.4z"/>
	<path style="fill:#CDCCCC;" d="M337.2,104.9c-3.3,0-6.1,1.1-8.3,3.3c-2.2,2.2-3.3,5-3.3,8.3s1.1,6.1,3.3,7.7c2.2,2.2,5,3.3,8.3,3.3
		s6.1-1.1,7.7-3.3c2.2-2.2,3.3-5,3.3-7.7c0-3.3-1.1-6.1-3.3-8.3C342.7,106,339.9,104.9,337.2,104.9z"/>
	
		<path id="SCHALTER_3_0_Layer0_0_1_STROKES_23_" style="fill:none;stroke:#343434;stroke-width:0.4522;stroke-linecap:round;stroke-linejoin:round;stroke-miterlimit:1.8088;" d="
		M335.5,108.8c5.5,0.6,8.8,4.4,9.9,10.5"/>
	<path style="fill:#DDDDDC;" d="M221,115.4c0,2.8,1.7,5.5,4.4,7.7c2.2-2.2,3.3-4.4,3.3-7.7c0-2.8-1.1-5-3.3-7.2
		C222.6,110.5,221,113.2,221,115.4z"/>
	<path style="fill:#343434;" d="M233.1,103.3c-3.3-3.9-7.7-5.5-12.7-5.5s-9.4,1.7-13.2,5.5c-3.3,3.3-5,7.2-5,12.1
		c0,5,1.7,9.4,5,13.2c3.9,3.3,8.3,5,13.2,5s9.4-1.7,12.7-5c3.9-3.9,5.5-8.3,5.5-13.2C238.6,111,237,106.6,233.1,103.3z"/>
	<path style="fill:#343434;" d="M232.6,115.4c0-3.3-1.1-6.1-3.9-8.3c-2.2-2.2-5-3.9-8.3-3.9s-6.1,1.1-8.3,3.9
		c-2.2,2.2-3.3,5-3.3,8.3s1.1,6.1,3.3,8.3s5,3.3,8.3,3.3s6.1-1.1,8.3-3.3S232.6,118.7,232.6,115.4z"/>
	<path style="fill:#CDCCCC;" d="M220.4,104.9c-3.3,0-6.1,1.1-8.3,3.3c-2.2,2.2-3.3,5-3.3,8.3s1.1,6.1,3.3,7.7c2.2,2.2,5,3.3,8.3,3.3
		s6.1-1.1,7.7-3.3c2.2-2.2,3.3-5,3.3-7.7c0-3.3-1.1-6.1-3.3-8.3C226.5,106,223.7,104.9,220.4,104.9z"/>
	
		<path id="SCHALTER_3_0_Layer0_0_1_STROKES_24_" style="fill:none;stroke:#343434;stroke-width:0.4522;stroke-linecap:round;stroke-linejoin:round;stroke-miterlimit:1.8088;" d="
		M218.8,108.8c5.5,0.6,8.8,4.4,9.9,10.5"/>
	<path style="fill:#343434;" d="M339.9,202.9c-10.5,0-19.3,3.9-26.4,11c-7.2,7.2-11,16-11,26.4s3.9,19.3,11,26.4s16,11,26.4,11
		c10.5,0,19.3-3.9,26.4-11s11-16,11-26.4s-3.9-19.3-11-26.4C358.6,206.8,349.8,202.9,339.9,202.9z"/>
	<path style="fill:#676767;" d="M326.1,251.4c-1.1-2.8-1.7-5.5-1.7-8.8s0.6-6.6,1.7-9.4l7.7-25.3c-2.2,3.9-5,8.8-8.3,14.9
		c-3.9,7.2-5.5,13.2-6.1,18.2c0,7.7,2.8,18.2,8.8,31.9c0.6,1.1,1.1,1.7,2.2,2.2c0.6,0.6,1.7,0.6,2.8,0.6h3.9c-2.2,0-4.4-0.6-6.1-0.6
		L326.1,251.4 M355.9,258c2.2-6.1,3.3-11,3.9-16c-1.7-6.1-4.4-12.7-8.3-19.8c-2.8-5.5-5-9.4-6.6-12.7l7.2,24.8
		c1.1,2.8,2.2,6.1,2.2,9.4c0,2.8-0.6,6.1-1.7,8.8l-5.5,23.1c-2.2,0.6-3.9,0.6-6.1,0.6h6.6c2.2-0.6,3.3-1.7,3.3-3.9
		C353.1,265.7,354.8,260.7,355.9,258z"/>
	
		<path id="SCHALTER_7_0_Layer0_0_MEMBER_1_1_STROKES_8_" style="fill:none;stroke:#231F20;stroke-width:0.2261;stroke-miterlimit:2.261;" d="
		M344.9,209l7.2,24.8c1.1,2.8,2.2,6.1,2.2,9.4c0,2.8-0.6,6.1-1.7,8.8l-5.5,23.1c-2.2,0.6-3.9,0.6-6.1,0.6h-2.8 M334.4,207.9l1.1-3.9
		h7.7l1.7,4.4v0.6 M334.4,207.9l-7.7,25.3c-1.1,2.8-1.7,6.1-1.7,9.4s0.6,6.1,1.7,8.8l5.5,23.1c2.2,0.6,3.9,0.6,6.1,0.6"/>
	<path style="fill:#FFFFFF;" d="M341.6,251.9V204h-3.9v47.9H341.6z"/>
	<path style="fill:#343434;" d="M202.8,326.3c5,5.5,11.6,8.3,18.7,8.3s13.8-2.8,18.7-8.3c5-5,7.7-11,7.7-18.2h-54
		C195.1,315.3,197.3,321.3,202.8,326.3z"/>
	<path style="fill:#CDCCCC;" d="M248.5,307.5c0-7.2-2.8-13.8-7.7-18.7c-5.5-5-11.6-7.7-18.7-7.7s-13.8,2.8-18.7,7.7
		c-5.5,5.5-8.3,11.6-8.3,18.7v0.6L248.5,307.5C248,308.1,248,308.1,248.5,307.5L248.5,307.5z"/>
	<path style="fill:#020203;" d="M205,291c-4.4,4.4-6.6,9.9-6.6,16.5s2.2,12.1,6.6,17.1c5,5,10.5,7.2,17.1,6.6
		c6.6,0,12.1-2.2,16.5-6.6c4.4-4.4,7.2-10.5,7.2-17.1s-2.2-12.1-7.2-16.5c-4.4-4.4-9.9-7.2-16.5-7.2S210,286.6,205,291z"/>
	<path style="fill:#9A9999;" d="M240.8,307.5c0-5-1.7-9.4-5.5-13.2c-3.9-3.9-8.3-5.5-13.2-5.5s-9.9,2.2-13.2,5.5
		c-3.9,3.9-5.5,8.3-5.5,13.2c0,5.5,2.2,9.9,5.5,13.8c3.9,3.9,8.3,5.5,13.2,5.5c5.5,0,9.9-1.7,13.2-5.5
		C239.2,317.5,240.8,313.1,240.8,307.5z"/>
	<path style="fill:#020203;" d="M204.5,305.9c-0.6,0.6-1.1,1.7-1.1,2.2c0,1.1,0.6,2.2,1.1,2.8c0.6,0.6,1.7,1.1,2.8,1.1
		c1.1,0,1.7,0,2.8-1.1c0.6-0.6,1.1-1.7,1.1-2.8c0-1.1-0.6-1.7-1.1-2.2c-0.6-0.6-1.7-1.1-2.8-1.1C206.1,304.8,205,304.8,204.5,305.9z
		"/>
	
		<path id="BUTTON_TURN_5_0_Layer0_2_1_STROKES_4_" style="fill:none;stroke:#020203;stroke-width:0.4522;stroke-linecap:round;stroke-linejoin:round;stroke-miterlimit:1.8089;" d="
		M203.4,308.1c0-1.1,0.6-1.7,1.1-2.2c0.6-0.6,1.7-1.1,2.8-1.1c1.1,0,1.7,0.6,2.8,1.1c0.6,0.6,1.1,1.7,1.1,2.2c0,1.1-0.6,2.2-1.1,2.8
		c-0.6,0.6-1.7,1.1-2.8,1.1c-1.1,0-1.7,0-2.8-1.1C203.9,310.3,203.4,309.2,203.4,308.1z"/>
	<path style="fill:#343434;" d="M386.7,471.6c0-7.2-2.8-13.2-7.7-18.7l-38,38c5,5,11.6,7.2,18.7,7.2s13.8-2.2,19.3-7.7
		C384.5,485.4,386.7,479.3,386.7,471.6L386.7,471.6z"/>
	<path style="fill:#CDCCCC;" d="M379.5,452.9C379.5,452.9,379,452.9,379.5,452.9c-5.5-5.5-11.6-8.3-19.3-8.3s-13.8,2.8-19.3,7.7
		c-5.5,5-7.7,11.6-7.7,18.7c0,7.7,2.8,13.8,7.7,19.3l0.6,0.6L379.5,452.9z"/>
	<path style="fill:#020203;" d="M360.3,447.9c-6.6,0-12.1,2.2-16.5,6.6c-4.4,5-6.6,10.5-6.6,17.1s2.2,12.1,6.6,16.5
		c5,5,10.5,7.2,16.5,7.2c6.6,0,12.1-2.2,17.1-7.2c5-4.4,7.2-9.9,7.2-16.5s-2.2-12.1-7.2-17.1C372.4,450.1,366.9,447.9,360.3,447.9z"
		/>
	<path style="fill:#9A9999;" d="M374,458.4c-3.9-3.9-8.3-5.5-13.2-5.5s-9.9,1.7-13.8,5.5c-3.9,3.9-5.5,8.3-5.5,13.2
		c0,5,1.7,9.9,5.5,13.2c3.9,3.9,8.3,5.5,13.8,5.5s9.9-1.7,13.2-5.5c3.9-3.9,5.5-8.3,5.5-13.2S377.9,461.7,374,458.4z"/>
	<path style="fill:#FFFFFF;" d="M361.4,468.3l1.1-19.8h-2.8l-1.1,19.8H361.4z"/>
	<path style="fill:#343434;" d="M132.4,471.6c0-7.2-2.8-13.2-7.7-18.7l-38,38c5,5,11.6,7.2,18.7,7.2s13.8-2.2,19.3-7.7
		C129.6,485.4,132.4,479.3,132.4,471.6L132.4,471.6z"/>
	<path style="fill:#CDCCCC;" d="M124.6,452.9c-5.5-5.5-11.6-8.3-19.3-8.3s-13.8,2.8-19.3,7.7c-5.5,5-7.7,11.6-7.7,18.7
		c0,7.7,2.8,13.8,7.7,19.3l0.6,0.6L124.6,452.9z"/>
	<path style="fill:#020203;" d="M105.4,447.9c-6.6,0-12.1,2.2-16.5,6.6c-4.4,5-6.6,10.5-6.6,17.1s2.2,12.1,6.6,16.5
		c5,5,10.5,7.2,16.5,7.2c6.6,0,12.1-2.2,17.1-7.2c5-4.4,7.2-9.9,7.2-16.5s-2.2-12.1-7.2-17.1C118,450.1,112,447.9,105.4,447.9z"/>
	<path style="fill:#9A9999;" d="M119.1,458.4c-3.9-3.9-8.3-5.5-13.2-5.5s-9.9,1.7-13.8,5.5c-3.9,3.9-5.5,8.3-5.5,13.2
		c0,5,1.7,9.9,5.5,13.2c3.9,3.9,8.3,5.5,13.8,5.5s9.9-1.7,13.2-5.5c3.9-3.9,5.5-8.3,5.5-13.2S123,461.7,119.1,458.4z"/>
	<path style="fill:#FFFFFF;" d="M106.5,468.3l1.1-19.8h-2.8l-1.1,19.8H106.5z"/>
	
		<path id="panel_accp_0_Layer0_0_MEMBER_42_MEMBER_0_1_STROKES" style="fill:none;stroke:#FFFFFF;stroke-width:0.4;stroke-miterlimit:5;" d="
		M347.6,440.2c-6.6,2.8-11.6,6.6-15.4,12.7c-3.9,5.5-6.1,12.1-6.1,19.3s2.2,13.2,6.1,19.3c3.9,5.5,9.4,9.9,15.4,12.1 M368.5,504.1
		c0.6,0,1.1-0.6,1.1-0.6c6.6-2.2,12.1-6.1,16.5-11.6c4.4-6.1,6.6-12.7,6.6-20.4c0-7.2-2.2-13.8-6.6-19.8c-4.4-6.1-9.9-9.9-16.5-12.1
		"/>
	
		<path id="panel_accp_0_Layer0_0_MEMBER_43_MEMBER_0_1_STROKES" style="fill:none;stroke:#FFFFFF;stroke-width:0.4;stroke-miterlimit:5;" d="
		M93.8,440.2c-6.6,2.8-11.6,6.6-15.4,12.7c-3.9,5.5-6.1,12.1-6.1,19.3s2.2,13.2,6.1,19.3c3.9,5.5,9.4,9.9,15.4,12.1 M114.7,504.1
		c0.6,0,1.1-0.6,1.1-0.6c6.6-2.2,12.1-6.1,16.5-11.6c4.4-6.1,6.6-12.7,6.6-20.4c0-7.2-2.2-13.8-6.6-19.8c-4.4-6.1-9.9-9.9-16.5-12.1
		"/>
	<path style="fill:#FFFFFF;" d="M118.6,496.4l-7.2,8.8l11,3.9L118.6,496.4z"/>
	<path id="panel_accp_0_Layer0_0_MEMBER_44_1_STROKES" style="fill:none;stroke:#FFFFFF;stroke-width:0.4;stroke-miterlimit:5;" d="
		M176.9,284.4l11.6,6.6 M176.9,284.4l-6.1-3.3 M194.6,294.9L188,291"/>
	
		<path id="panel_accp_0_Layer0_0_MEMBER_53_1_STROKES" style="fill:none;stroke:#FFFFFF;stroke-width:0.5;stroke-linecap:round;stroke-linejoin:round;" d="
		M135.7,288.8c2.2-1.7,3.9-3.3,6.1-5.5c9.4-9.4,13.8-20.9,13.8-34.1s-4.4-24.2-13.8-33.6c-9.4-9.4-20.9-14.3-33.6-14.3
		c-13.2,0-24.8,5-34.1,14.3c-9.4,9.4-13.8,20.4-13.8,33.6s4.4,24.8,13.8,34.1c9.4,9.4,20.9,14.3,34.1,14.3c9.9,0,17.6-1.7,23.1-5.5
		L135.7,288.8"/>
	<path style="fill:#72B62B;" d="M79,223.3c-6.6,6.6-10.5,14.9-11.6,24.2l6.6,1.1c0.6-8.3,3.9-14.9,9.9-20.9
		c6.6-6.6,14.3-9.9,24.2-9.9s17.1,3.3,24.2,9.9c6.6,6.6,9.9,14.3,9.9,24.2c0,9.4-3.3,17.1-9.9,23.7c-1.1,1.1-2.8,2.2-3.9,3.9
		l4.4,6.1c1.7-1.1,3.3-2.8,4.4-4.4c8.3-8.3,12.1-17.6,12.1-29.2s-3.9-20.9-12.1-28.6c-7.7-8.3-17.6-12.1-28.6-12.1
		C96.6,211.2,87.2,215.1,79,223.3L79,223.3z"/>
	<path style="fill:#F4E600;" d="M74.5,248.1c0-2.2,0-3.9,0.6-6.1l-6.1-2.2c-0.6,2.2-1.1,4.4-1.7,7.2L74.5,248.1 M149.4,254.1h-7.2
		c-0.6,8.3-3.9,15.4-10.5,21.5c-1.1,1.1-2.2,2.2-3.9,3.3l4.4,6.1c1.7-1.1,3.3-2.8,4.4-4.4C145,274,148.9,264.6,149.4,254.1
		L149.4,254.1z"/>
	
		<path id="panel_accp_0_Layer0_0_MEMBER_53_MEMBER_2_MEMBER_0_1_STROKES" style="fill:none;stroke:#231F20;stroke-width:0.4;stroke-miterlimit:5;" d="
		M108.7,187h8.8l-5.5-0.6C110.9,187,109.8,187,108.7,187z M108.7,187c-15.4,0.6-29.2,6.6-40.2,17.6c-12.1,12.1-18.2,26.4-18.2,43.5
		s6.1,31.4,18.2,43.5c12.1,12.1,26.4,18.2,43.5,18.2s31.4-6.1,43.5-18.2s18.2-26.4,18.2-43.5v-53.4c-0.6-1.7-0.6-2.8-0.6-3.3v-1.1
		l-0.6-0.6l-0.6-0.6l-0.6-0.6l-1.1-0.6h-5.5c-19.3,0-35.2-0.6-46.8-0.6 M56.9,249.2c0,14.3,5,26.4,14.9,36.3s22,14.9,36.3,14.9
		s26.4-5,36.3-14.9c9.9-9.9,14.9-22,14.9-36.3s-5-26.4-14.9-36.3s-22-14.9-36.3-14.9s-26.4,5-36.3,14.9
		C61.9,223.3,56.9,235.4,56.9,249.2z M67.9,246.4c1.7-9.9,6.1-18.2,13.2-24.8c7.7-6.6,16.5-9.9,26.4-9.9c11,0,20.9,3.9,28.6,11.6
		c7.7,7.7,11.6,17.6,11.6,28.6c0,6.6-1.7,12.7-4.4,18.2c-2.8,5.5-7.2,10.5-12.1,14.3 M74,247.5c0.6-4.4,1.7-7.7,3.3-11.6
		c1.7-3.9,4.4-7.2,7.7-9.9c6.1-5.5,13.8-8.3,22-8.3c9.4,0,17.6,3.3,23.7,9.9c6.6,6.6,9.9,14.9,9.9,23.7c0,5.5-1.1,10.5-3.9,15.4
		c-2.8,5-6.1,8.8-10.5,12.1l4.4,12.7"/>
	
		<path id="panel_accp_0_Layer0_0_MEMBER_53_MEMBER_2_MEMBER_0_2_STROKES" style="fill:none;stroke:#FFFFFF;stroke-width:0.4;stroke-miterlimit:5;" d="
		M62.4,245.9l5.5,1.1l6.1,1.1"/>
	
		<path id="panel_accp_0_Layer0_0_MEMBER_53_MEMBER_2_MEMBER_1_1_STROKES" style="fill:none;stroke:#FFFFFF;stroke-width:0.4;stroke-miterlimit:5;" d="
		M132.9,229.4l6.6-6.1 M121.9,222.2l8.3-16 M90,222.8l-8.8-14.3 M104.8,217.8l-0.6-9.4 M78.4,234.9l-7.7-4.4 M69.6,241.5l5.5,1.7
		 M109.2,297.1v-8.3 M138.4,266.8l11,6.6 M141.7,254.7h7.7 M139,240.4l12.7-5.5"/>
	
		<path id="panel_accp_0_Layer0_0_MEMBER_53_MEMBER_2_MEMBER_2_1_STROKES" style="fill:none;stroke:#231F20;stroke-width:0.4;stroke-miterlimit:5;" d="
		M132.9,286.1l-1.7,5 M130.2,282.2l-1.1,2.8"/>
	<path style="fill:#FFFFFF;" d="M111.4,244.2l-16-29.2l5,32.5L111.4,244.2L111.4,244.2z"/>
	<path style="fill:#343434;" d="M118,249.2c-1.1-2.8-2.8-4.4-5.5-5.5c-2.2-1.1-5-1.1-7.7-0.6c-2.8,1.1-5,2.8-5.5,5.5
		c-1.1,2.8-1.7,5.5-0.6,7.7c1.1,2.8,2.8,4.4,5.5,6.1c2.8,1.1,5,1.1,7.7,0c2.8-1.1,5-2.8,5.5-5.5C119.1,254.7,119.1,251.9,118,249.2z
		"/>
	<text transform="matrix(1 0 0 1 134.559 121.1243)" style="fill:#FFFFFF; font-family:'ArialMT'; font-size:13.6924px;">OFF</text>
	<text transform="matrix(1 0 0 1 264.998 126.1635)" style="fill:#FFFFFF; font-family:'ArialMT'; font-size:13.6924px;">OFF</text>
	<text transform="matrix(1 0 0 1 216.0375 157.7376)" style="fill:#FFFFFF; font-family:'ArialMT'; font-size:13.6924px;">1</text>
	<text transform="matrix(1 0 0 1 333.3026 157.7376)" style="fill:#FFFFFF; font-family:'ArialMT'; font-size:13.6924px;">2</text>
	<text transform="matrix(1 0 0 1 257.33 157.7376)" style="fill:#FFFFFF; font-family:'ArialMT'; font-size:13.6924px;">BLEED</text>
	<text transform="matrix(1 0 0 1 81.7074 157.7376)" style="fill:#FFFFFF; font-family:'ArialMT'; font-size:13.6924px;">RECIRC</text>
	<text transform="matrix(1 0 0 1 315.6855 198.4759)" style="fill:#FFFFFF; font-family:'ArialMT'; font-size:13.6924px;">NORM</text>
	<text transform="matrix(1 0 0 1 272.4687 215.8187)" style="fill:#FFFFFF; font-family:'ArialMT'; font-size:13.6924px;">MIN</text>
	<text transform="matrix(1 0 0 1 373.7675 215.5423)" style="fill:#FFFFFF; font-family:'ArialMT'; font-size:13.6924px;">MAX</text>
	<text transform="matrix(1 0 0 1 318.162 299.2239)" style="fill:#FFFFFF; font-family:'ArialMT'; font-size:13.6924px;">BLEED</text>
	<text transform="matrix(1 0 0 1 198.8842 278.1273)" style="fill:#FFFFFF; font-family:'ArialMT'; font-size:13.6924px;">CABIN</text>
	<text transform="matrix(1 0 0 1 253.7675 310.786)" style="fill:#FFFFFF; font-family:'ArialMT'; font-size:13.6924px;">FC</text>
	<text transform="matrix(1 0 0 1 160.4887 310.786)" style="fill:#FFFFFF; font-family:'ArialMT'; font-size:13.6924px;">CAB</text>
	<text transform="matrix(1 0 0 1 149.1645 327.3446)" style="fill:#FFFFFF; font-family:'ArialMT'; font-size:13.6924px;">DUCT</text>
	<text transform="matrix(1 0 0 1 253.7675 327.3446)" style="fill:#FFFFFF; font-family:'ArialMT'; font-size:13.6924px;">DUCT</text>
	<text transform="matrix(1 0 0 1 195.1225 352.4559)" style="fill:#FFFFFF; font-family:'ArialMT'; font-size:13.6924px;">GAUGE</text>
	<text transform="matrix(1 0 0 1 207.016 382.9052)" style="fill:#FFFFFF; font-family:'ArialMT'; font-size:13.6924px;">OFF</text>
	<text transform="matrix(1 0 0 1 205.1537 399.4619)" style="fill:#FFFFFF; font-family:'ArialMT'; font-size:13.6924px;">MAN</text>
	<text transform="matrix(1 0 0 1 201.1635 416.0164)" style="fill:#FFFFFF; font-family:'ArialMT'; font-size:13.6924px;">AUTO</text>
	<text transform="matrix(1 0 0 1 198.1801 432.575)" style="fill:#FFFFFF; font-family:'ArialMT'; font-size:13.6924px;">PACKS</text>
	<text transform="matrix(1 0 0 1 55.2807 436.9598)" style="fill:#FFFFFF; font-family:'ArialMT'; font-size:13.6924px;">COOL</text>
	<text transform="matrix(1 0 0 1 112.2611 437.5086)" style="fill:#FFFFFF; font-family:'ArialMT'; font-size:13.6924px;">WARM</text>
	<text transform="matrix(1 0 0 1 306.244 436.9598)" style="fill:#FFFFFF; font-family:'ArialMT'; font-size:13.6924px;">COOL</text>
	<text transform="matrix(1 0 0 1 363.2187 437.5086)" style="fill:#FFFFFF; font-family:'ArialMT'; font-size:13.6924px;">WARM</text>
	<text transform="matrix(1 0 0 1 212.642 530.7254)" style="fill:#FFFFFF; font-family:'ArialMT'; font-size:13.6924px;">TEMP</text>
	<text transform="matrix(1 0 0 1 197.7055 547.2821)" style="fill:#FFFFFF; font-family:'ArialMT'; font-size:13.6924px;">CONTROL</text>
	<text transform="matrix(1 0 0 1 84.185 531.5516)" style="fill:#FFFFFF; font-family:'ArialMT'; font-size:13.6924px;">CABIN</text>
	<text transform="matrix(1 0 0 1 50.3256 508.7059)" style="fill:#FFFFFF; font-family:'ArialMT'; font-size:13.6924px;">F/A</text>
	<text transform="matrix(1 0 0 1 325.3202 531.829)" style="fill:#FFFFFF; font-family:'ArialMT'; font-size:13.6924px;">FLT COMP</text>
	<path style="fill:#FFFFFF;" d="M86.7,507.9l11.6-2.8l-6.6-8.8L86.7,507.9z M371.8,495.8l-6.6,8.8l11,3.3L371.8,495.8L371.8,495.8z
		 M339.9,507.4l11.6-2.2l-6.1-9.4L339.9,507.4L339.9,507.4z M167.6,278.9l3.9,7.7l2.8-4.4l2.2-3.3L167.6,278.9z M196.8,296v-0.6
		l-4.4-7.2l-2.2,4.4l-2.2,3.9L196.8,296z"/>
	<text transform="matrix(1 0 0 1 126.7025 247.8441)" style="fill:#FFFFFF; font-family:'ArialMT'; font-size:10.7047px;">60</text>
	<text transform="matrix(1 0 0 1 125.1996 268.4095)" style="fill:#FFFFFF; font-family:'ArialMT'; font-size:10.7047px;">80</text>
	<text transform="matrix(1 0 0 1 113.9408 233.4339)" style="fill:#FFFFFF; font-family:'ArialMT'; font-size:10.7047px;">40</text>
	<text transform="matrix(1 0 0 1 89.6889 235.7855)" style="fill:#FFFFFF; font-family:'ArialMT'; font-size:10.7047px;">20</text>
	<text transform="matrix(1 0 0 1 76.56 256.806)" style="fill:#FFFFFF; font-family:'ArialMT'; font-size:16.8041px;">0</text>
	<text transform="matrix(1 0 0 1 70.6967 269.3685)" style="fill:#FFFFFF; font-family:'ArialMT'; font-size:10.7047px;">DUCT</text>
	<text transform="matrix(1 0 0 1 70.6967 279.9222)" style="fill:#FFFFFF; font-family:'ArialMT'; font-size:10.7047px;">TEMP</text>
	<text transform="matrix(1 0 0 1 100.4428 288.4564)" style="fill:#FFFFFF; font-family:'ArialMT'; font-size:10.7047px;">100</text>
	<path style="fill:#E52521;" d="M128.5,278.4l-2.2,1.1l4.4,12.7h1.7l2.2-2.2v-1.1L128.5,278.4L128.5,278.4z"/>
</g>
</svg>
