<svg id="eng-wiring" xmlns="http://www.w3.org/2000/svg" xmlns:xlink="http://www.w3.org/1999/xlink" viewBox="0 0 978 513.1">
  <style>
    .st0{fill:none;stroke:#2b2b2b;stroke-width:.25}.st0,.st1,.st2{stroke-miterlimit:5}.st1{fill:none;stroke:#2b2b2b;stroke-width:.55}.st2{stroke-width:2}.st2,.st3,.st4{fill:none;stroke:#2b2b2b}.st3{stroke-linecap:round;stroke-width:2;stroke-miterlimit:5}.st4{stroke-width:.25;stroke-miterlimit:4.9999}.st5{fill-rule:evenodd;clip-rule:evenodd}.st5,.st6{fill:#fff}.st7{fill:#868686}.st8{fill:#b1b1b1}.st9{stroke:#2b2b2b;stroke-width:.75;stroke-miterlimit:10}.st10,.st11,.st9{fill:#d8ebfa}.st11{stroke:#448ecc;stroke-width:.75;stroke-miterlimit:10}.st12{clip-path:url(#SVGID_2_);enable-background:new}.st13{fill:#020203}.st14{font-family:&apos;Arial-BoldMT&apos;}.st15{font-size:14px}.st16{clip-path:url(#SVGID_4_);enable-background:new}.st17{fill:#089eda}.st18{font-size:18px}.st19{fill:#448ecc;stroke-width:2;stroke-miterlimit:10}.st19,.st20{stroke:#2b2b2b}.st20,.st21{stroke-miterlimit:10}.st20,.st21{fill:none;stroke-width:.75}.st21{stroke:#448ecc}.st22{font-family:&apos;Tahoma&apos;}.st23{fill:none;stroke:#1b181c;stroke-width:.2;stroke-miterlimit:6.92}.st24,.st25{fill:none;stroke-width:.5;stroke-linecap:round}.st24{stroke-linejoin:round;stroke:#020203;stroke-miterlimit:3}.st25{stroke:#1b181c;stroke-miterlimit:6.92}.st26{font-family:&apos;Tahoma-Bold&apos;}.st27{font-size:14.0336px}.st28{fill-rule:evenodd;clip-rule:evenodd;fill:#020203}.st29{fill:none;stroke:#1b181c;stroke-width:.5;stroke-miterlimit:10}
  </style>
  <g id="clp-hintergrund">
    <path id="Layer11_14_MEMBER_0_1_STROKES_3_" class="st0" d="M323 223.4c-9.2.1-18.1 1.2-26.7 3.4"/>
    <path id="Layer11_14_MEMBER_1_1_STROKES_2_" class="st0" d="M288.8 229.1c-9.8 3.3-19 8-27.4 13.9"/>
    <path id="Layer11_14_MEMBER_2_1_STROKES_2_" class="st0" d="M255.2 247.8c-8 6.6-14.9 14.2-20.7 22.7"/>
    <path id="Layer11_14_MEMBER_3_1_STROKES_2_" class="st0" d="M230.4 277.1c-5.2 8.9-8.9 18.4-11.3 28.4"/>
    <path id="Layer11_14_MEMBER_4_1_STROKES_2_" class="st0" d="M217.6 313.2c-1 5.9-1.5 11.6-1.5 17.3l.1 1.2"/>
    <path id="Layer11_14_MEMBER_5_1_STROKES_2_" class="st0" d="M323 220.1c-14.9 0-29.2 2.9-42.9 8.7-13.2 5.6-24.9 13.5-35 23.7-10.2 10.2-18 21.8-23.6 35-5.8 13.7-8.6 28-8.6 42.9v1.3"/>
    <path id="Layer11_14_MEMBER_6_1_STROKES_2_" class="st0" d="M216.2 331.8v13"/>
    <path id="Layer11_14_MEMBER_7_1_STROKES_2_" class="st0" d="M216.2 352.4V385"/>
    <path id="Layer11_14_MEMBER_8_1_STROKES_2_" class="st0" d="M216.2 392.6l.1 31.9"/>
    <path id="Layer11_14_MEMBER_9_1_STROKES_2_" class="st0" d="M216.3 432.4v8.4"/>
    <path id="Layer11_14_MEMBER_10_1_STROKES_2_" class="st0" d="M212.8 331.9l.1 110.4"/>
    <path id="Layer11_14_MEMBER_11_1_STROKES_2_" class="st0" d="M322.9 223.5h4"/>
    <path id="Layer11_14_MEMBER_12_1_STROKES_2_" class="st0" d="M335.1 223.5h30.7"/>
    <path id="Layer11_14_MEMBER_13_1_STROKES_2_" class="st0" d="M377.4 223.5h43.7"/>
    <path id="Layer11_14_MEMBER_14_1_STROKES_2_" class="st0" d="M323.1 220h31.8"/>
    <path id="Layer11_14_MEMBER_15_1_STROKES_2_" class="st0" d="M354.9 220.1c.3 0 1 .1 1.8.4 1 .2 1.7.4 2.1.4l80.8.1"/>
    <path id="Layer11_14_MEMBER_16_1_STROKES_2_" class="st1" d="M335.1 221.3v4.5"/>
    <path id="Layer11_14_MEMBER_17_1_STROKES_2_" class="st1" d="M327.2 221.3v4.5"/>
    <path id="Layer11_14_MEMBER_18_1_STROKES_2_" class="st1" d="M339.8 220.1v1.2"/>
    <path id="Layer11_14_MEMBER_19_1_STROKES_2_" class="st1" d="M322.4 221.3h17.4"/>
    <path id="Layer11_14_MEMBER_20_1_STROKES_2_" class="st1" d="M327.2 225.9h7.9"/>
    <path id="Layer11_14_MEMBER_21_1_STROKES_2_" class="st1" d="M322.3 220.1v1.3"/>
    <path id="Layer11_14_MEMBER_22_1_STROKES_2_" class="st1" d="M295.9 225.1l1.2 4.3"/>
    <path id="Layer11_14_MEMBER_23_1_STROKES_2_" class="st1" d="M288.3 227.3l1.2 4.3"/>
    <path id="Layer11_14_MEMBER_24_1_STROKES_2_" class="st1" d="M300 222.6l.4 1.2"/>
    <path id="Layer11_14_MEMBER_25_1_STROKES_2_" class="st1" d="M283.8 228.6l16.6-4.8"/>
    <path id="Layer11_14_MEMBER_26_1_STROKES_2_" class="st1" d="M289.6 231.6l7.5-2.2"/>
    <path id="Layer11_14_MEMBER_27_1_STROKES_2_" class="st1" d="M283.4 227.4l.4 1.2"/>
    <path id="Layer11_14_MEMBER_28_1_STROKES_2_" class="st1" d="M260.3 241.6l2.6 3.5"/>
    <path id="Layer11_14_MEMBER_29_1_STROKES_2_" class="st1" d="M254.1 246.3l2.6 3.6"/>
    <path id="Layer11_14_MEMBER_30_1_STROKES_2_" class="st1" d="M263.3 237.8l.7 1"/>
    <path id="Layer11_14_MEMBER_31_1_STROKES_2_" class="st1" d="M250.3 249.2l13.8-10.4"/>
    <path id="Layer11_14_MEMBER_32_1_STROKES_2_" class="st1" d="M256.7 249.8l6.2-4.7"/>
    <path id="Layer11_14_MEMBER_33_1_STROKES_2_" class="st1" d="M249.5 248.2l.8 1"/>
    <path id="Layer11_14_MEMBER_34_1_STROKES_2_" class="st1" d="M233 269.6l3.8 2.3"/>
    <path id="Layer11_14_MEMBER_35_1_STROKES_2_" class="st1" d="M229 276.2l3.9 2.3"/>
    <path id="Layer11_14_MEMBER_36_1_STROKES_2_" class="st1" d="M234.3 265l1.1.7"/>
    <path id="Layer11_14_MEMBER_37_1_STROKES_2_" class="st1" d="M226.6 280.4l8.9-14.7"/>
    <path id="Layer11_14_MEMBER_38_1_STROKES_2_" class="st1" d="M232.8 278.6l4-6.7"/>
    <path id="Layer11_14_MEMBER_39_1_STROKES_2_" class="st1" d="M225.5 279.8l1.1.7"/>
    <path id="Layer11_14_MEMBER_40_1_STROKES_2_" class="st1" d="M217.2 305.2l4.4.8"/>
    <path id="Layer11_14_MEMBER_41_1_STROKES_2_" class="st1" d="M215.8 313l4.4.8"/>
    <path id="Layer11_14_MEMBER_42_1_STROKES_2_" class="st1" d="M217 300.4l1.2.3"/>
    <path id="Layer11_14_MEMBER_43_1_STROKES_2_" class="st1" d="M214.9 317.6l3.3-16.9"/>
    <path id="Layer11_14_MEMBER_44_1_STROKES_2_" class="st1" d="M220.2 313.8l1.5-7.7"/>
    <path id="Layer11_14_MEMBER_45_1_STROKES_2_" class="st1" d="M213.6 317.4l1.3.3"/>
    <path id="Layer11_14_MEMBER_46_1_STROKES_2_" class="st1" d="M213.9 344.6h4.5"/>
    <path id="Layer11_14_MEMBER_47_1_STROKES_2_" class="st1" d="M213.9 352.5h4.5"/>
    <path id="Layer11_14_MEMBER_48_1_STROKES_2_" class="st1" d="M212.7 339.9h1.2"/>
    <path id="Layer11_14_MEMBER_49_1_STROKES_2_" class="st1" d="M213.9 357.1v-17.3"/>
    <path id="Layer11_14_MEMBER_50_1_STROKES_2_" class="st1" d="M218.4 352.5v-7.8"/>
    <path id="Layer11_14_MEMBER_51_1_STROKES_2_" class="st1" d="M212.7 357.1h1.3"/>
    <path id="Layer11_14_MEMBER_52_1_STROKES_2_" class="st1" d="M213.9 384.9h4.5"/>
    <path id="Layer11_14_MEMBER_53_1_STROKES_2_" class="st1" d="M213.9 392.6h4.5"/>
    <path id="Layer11_14_MEMBER_54_1_STROKES_2_" class="st1" d="M212.6 380.1h1.3"/>
    <path id="Layer11_14_MEMBER_55_1_STROKES_2_" class="st1" d="M213.9 397.5v-17.3"/>
    <path id="Layer11_14_MEMBER_56_1_STROKES_2_" class="st1" d="M218.3 392.6v-7.8"/>
    <path id="Layer11_14_MEMBER_57_1_STROKES_2_" class="st1" d="M212.6 397.5h1.3"/>
    <path id="Layer11_14_MEMBER_58_1_STROKES_2_" class="st1" d="M214.1 424.6h4.5"/>
    <path id="Layer11_14_MEMBER_59_1_STROKES_2_" class="st1" d="M214.1 432.4h4.5"/>
    <path id="Layer11_14_MEMBER_60_1_STROKES_2_" class="st1" d="M212.8 419.9h1.3"/>
    <path id="Layer11_14_MEMBER_61_1_STROKES_2_" class="st1" d="M214.1 437.1v-17.3"/>
    <path id="Layer11_14_MEMBER_62_1_STROKES_2_" class="st1" d="M218.5 432.4v-7.8"/>
    <path id="Layer11_14_MEMBER_63_1_STROKES_2_" class="st1" d="M212.8 437.1h1.3"/>
    <path id="Layer11_14_MEMBER_64_1_STROKES_2_" class="st2" d="M300.6 262.4c0-2.6-.7-5.1-2.1-7.3s-3.3-3.9-5.7-5"/>
    <path id="Layer11_14_MEMBER_65_1_STROKES_2_" class="st2" d="M281.6 250.1c-2.4 1.1-4.3 2.8-5.7 5-1.4 2.2-2.1 4.6-2.1 7.3 0 3.7 1.3 6.9 4 9.5 2.6 2.6 5.7 4 9.5 4 3.7 0 6.9-1.3 9.5-4 2.6-2.6 4-5.7 4-9.5"/>
    <path id="Layer11_14_MEMBER_66_1_STROKES_2_" class="st2" d="M341.7 254c0-2.1-.6-4.2-1.7-6-1.1-1.9-2.7-3.3-4.6-4.3"/>
    <path id="Layer11_14_MEMBER_67_1_STROKES_2_" class="st2" d="M324.7 243.7c-2 1-3.5 2.4-4.6 4.3-1.1 1.9-1.7 3.9-1.7 6 0 3.2 1.1 5.9 3.4 8.2 2.3 2.2 5 3.4 8.2 3.4s6-1.1 8.3-3.4c2.2-2.3 3.4-5 3.4-8.2"/>
    <path id="Layer11_14_MEMBER_68_1_STROKES_2_" class="st2" d="M281.6 250.1h11.1"/>
    <path id="Layer11_14_MEMBER_69_1_STROKES_2_" class="st2" d="M324.7 243.7h10.7"/>
    <path id="Layer11_14_MEMBER_70_1_STROKES_2_" class="st2" d="M270.3 301.5c0-1.8-.4-3.5-1.3-5s-2.1-2.7-3.7-3.6"/>
    <path id="Layer11_14_MEMBER_71_1_STROKES_2_" class="st2" d="M255.9 293c-1.6.9-2.8 2.1-3.7 3.6-.9 1.5-1.3 3.2-1.3 5 0 2.7 1 5 2.9 6.8 1.9 1.9 4.2 2.9 6.9 2.9s5-1 6.8-2.9c1.9-1.9 2.9-4.1 2.9-6.8"/>
    <path id="Layer11_14_MEMBER_72_1_STROKES_2_" class="st2" d="M255.9 293h9.4"/>
    <path id="Layer11_14_MEMBER_73_1_STROKES_2_" class="st0" d="M369.7 300.1c.8 0 1.4-.3 1.9-.8s.8-1.2.8-1.9"/>
    <path id="Layer11_14_MEMBER_74_1_STROKES_2_" class="st0" d="M374.8 228.3l-.6-.1c-.5 0-1 .2-1.4.6-.4.4-.6.9-.6 1.4s.2 1 .6 1.4"/>
    <path id="Layer11_14_MEMBER_75_1_STROKES_2_" class="st0" d="M359.1 288.2c0-.7-.2-1.3-.7-1.8s-1.1-.7-1.8-.7"/>
    <path id="Layer11_14_MEMBER_76_1_STROKES_2_" class="st0" d="M302.6 285.8h74.9m-151.7 0H268"/>
    <path id="Layer11_14_MEMBER_77_1_STROKES_2_" class="st0" d="M356.6 335.5c.7 0 1.3-.2 1.8-.7.5-.4.7-1 .7-1.7"/>
    <path id="Layer11_14_MEMBER_78_1_STROKES_2_" class="st0" d="M359.1 333v-19.5"/>
    <path id="Layer11_14_MEMBER_79_1_STROKES_2_" class="st0" d="M216.4 335.5h537.1"/>
    <path id="Layer11_14_MEMBER_80_1_STROKES_2_" class="st0" d="M385.6 290.8c-3.5 3.5-5.2 7.7-5.2 12.7 0 4.9 1.7 9.1 5.2 12.6s7.7 5.2 12.6 5.2 9.1-1.7 12.6-5.2 5.2-7.7 5.2-12.6-1.7-9.2-5.2-12.7-7.7-5.2-12.6-5.2-9.2 1.6-12.6 5.2z"/>
    <path id="Layer11_14_MEMBER_81_1_STROKES_2_" class="st0" d="M397.9 282.8c-5.7.1-10.5 2.1-14.5 6.2-4 4-5.9 8.8-5.9 14.5s2 10.5 5.9 14.6c4 4.1 8.8 6.1 14.5 6.2"/>
    <path id="Layer11_14_MEMBER_82_1_STROKES_2_" class="st0" d="M398.2 324.1c6.6 0 12.2-2 16.6-6.1 4.3-4 6.4-8.8 6.4-14.7 0-5.7-2.3-10.5-6.9-14.6-4.5-4.1-9.9-6.1-16.1-6.1"/>
    <path id="Layer11_14_MEMBER_83_1_STROKES_2_" class="st0" d="M421.2 303.4V221"/>
    <path id="Layer11_14_MEMBER_84_1_STROKES_2_" class="st0" d="M369.8 255.6c1 0 1.9-.3 2.6-1 .8-.7 1.3-1.5 1.5-2.5"/>
    <path id="Layer11_14_MEMBER_85_1_STROKES_2_" class="st0" d="M377.4 229.3c0-1.5-.5-2.7-1.5-3.6"/>
    <path id="Layer11_14_MEMBER_86_1_STROKES_2_" class="st0" d="M377.4 229.3l-3.5 22.8"/>
    <path id="Layer11_14_MEMBER_87_1_STROKES_2_" class="st0" d="M357.5 227.2v10.6"/>
    <path id="Layer11_14_MEMBER_88_1_STROKES_2_" class="st0" d="M361.5 255.6h8.4"/>
    <path id="Layer11_14_MEMBER_89_1_STROKES_2_" class="st0" d="M359.4 253.7c.1.5.3 1 .7 1.4.4.3.9.5 1.4.5"/>
    <path id="Layer11_14_MEMBER_90_1_STROKES_2_" class="st0" d="M357.5 237.8l1.9 15.9"/>
    <path id="Layer11_14_MEMBER_91_1_STROKES_2_" class="st0" d="M360.8 224.3c-.7 0-1.2.4-1.4 1.2"/>
    <path id="Layer11_14_MEMBER_92_1_STROKES_2_" class="st0" d="M359.2 226.7l.2-1.2"/>
    <path id="Layer11_14_MEMBER_93_1_STROKES_2_" class="st0" d="M360.8 224.3h4.8"/>
    <path id="Layer11_14_MEMBER_94_1_STROKES_2_" class="st0" d="M358.5 227.2c.3 0 .6-.2.7-.5"/>
    <path id="Layer11_14_MEMBER_95_1_STROKES_2_" class="st0" d="M357.5 227.2h1"/>
    <path id="Layer11_14_MEMBER_96_1_STROKES_2_" class="st0" d="M375.7 292.6c0-1.1-.4-2-1.2-2.8-.7-.8-1.6-1.2-2.7-1.2"/>
    <path id="Layer11_14_MEMBER_97_1_STROKES_2_" class="st0" d="M359.1 288.8h12.8"/>
    <path id="Layer11_14_MEMBER_98_1_STROKES_2_" class="st0" d="M371.9 332.1c1.1 0 2-.4 2.7-1.2.8-.8 1.2-1.7 1.2-2.8"/>
    <path id="Layer11_14_MEMBER_99_1_STROKES_2_" class="st0" d="M371.9 332.1h-12.8"/>
    <path id="Layer11_14_MEMBER_100_1_STROKES_2_" class="st0" d="M375.7 292.6v35.5"/>
    <path id="Layer11_14_MEMBER_101_1_STROKES_2_" class="st0" d="M359.1 288.2v25.2"/>
    <path id="Layer11_14_MEMBER_102_1_STROKES_2_" class="st0" d="M377.4 302.9V221"/>
    <path id="Layer11_14_MEMBER_103_1_STROKES_2_" class="st0" d="M370.2 229c-.3-.3-.7-.5-1.2-.5s-.9.2-1.2.5c-.3.3-.5.7-.5 1.2s.2.9.5 1.2.8.5 1.2.5c.4 0 .8-.2 1.2-.5.3-.3.5-.7.5-1.2"/>
    <path id="Layer11_14_MEMBER_104_1_STROKES_2_" class="st0" d="M371.1 235.4c0-.5-.2-1-.6-1.4s-.9-.6-1.4-.6-1 .2-1.4.6c-.4.4-.6.9-.6 1.4s.2 1 .6 1.4.9.6 1.4.6 1-.2 1.4-.6c.4-.4.6-.9.6-1.4z"/>
    <path id="Layer11_14_MEMBER_105_1_STROKES_2_" class="st0" d="M369.1 227.6c-.7 0-1.3.3-1.8.8s-.8 1.1-.8 1.8"/>
    <path id="Layer11_14_MEMBER_106_1_STROKES_2_" class="st0" d="M366.4 230.2v5.2"/>
    <path id="Layer11_14_MEMBER_107_1_STROKES_2_" class="st0" d="M367.1 235.4h-.7"/>
    <path id="Layer11_14_MEMBER_108_1_STROKES_2_" class="st0" d="M369.2 227.6h5.6"/>
    <path id="Layer11_14_MEMBER_109_1_STROKES_2_" class="st0" d="M370.7 233.8l1.5 1.5"/>
    <path id="Layer11_14_MEMBER_110_1_STROKES_2_" class="st0" d="M372.7 231.8l1.5 1.5"/>
    <path id="Layer11_14_MEMBER_111_1_STROKES_2_" class="st0" d="M372.2 235.3l2-2"/>
    <path id="Layer11_14_MEMBER_112_1_STROKES_2_" class="st0" d="M376.3 230.2c0-.9-.5-1.6-1.4-1.9"/>
    <path id="Layer11_14_MEMBER_113_1_STROKES_2_" class="st0" d="M373 231.6c.4.4.9.6 1.4.6s1-.2 1.4-.6c.4-.4.6-.9.6-1.4"/>
    <path id="Layer11_14_MEMBER_114_1_STROKES_2_" class="st0" d="M374.8 227.6v.7"/>
    <path id="Layer11_14_MEMBER_115_1_STROKES_2_" class="st0" d="M365.9 238.1h5.8"/>
    <path id="Layer11_14_MEMBER_116_1_STROKES_2_" class="st0" d="M365.9 238.1v14.4"/>
    <path id="Layer11_14_MEMBER_117_1_STROKES_2_" class="st0" d="M371.7 238.1v14.6"/>
    <path id="Layer11_14_MEMBER_118_1_STROKES_2_" class="st0" d="M365.9 246.3h5.8"/>
    <path id="Layer11_14_MEMBER_119_1_STROKES_2_" class="st0" d="M370.8 242.5c0-.5-.2-.9-.5-1.2-.4-.3-.8-.5-1.3-.5s-.9.2-1.2.5c-.3.3-.5.8-.5 1.2s.2.9.5 1.3c.3.3.8.5 1.2.5.5 0 1-.2 1.3-.5s.5-.7.5-1.3z"/>
    <path id="Layer11_14_MEMBER_120_1_STROKES_2_" class="st0" d="M368.1 253.5c.2.2.6.3 1 .3.3 0 .6-.1 1-.3"/>
    <path id="Layer11_14_MEMBER_121_1_STROKES_2_" class="st0" d="M368.1 253.6l-2.2-1.1"/>
    <path id="Layer11_14_MEMBER_122_1_STROKES_2_" class="st0" d="M368.1 253.6l-2.2-1.1"/>
    <path id="Layer11_14_MEMBER_123_1_STROKES_2_" class="st0" d="M370 253.5l1.8-.8"/>
    <path id="Layer11_14_MEMBER_124_1_STROKES_2_" class="st0" d="M424.3 238.1h5.9"/>
    <path id="Layer11_14_MEMBER_125_1_STROKES_2_" class="st0" d="M424.3 238.1v14.4"/>
    <path id="Layer11_14_MEMBER_126_1_STROKES_2_" class="st0" d="M430.2 238.1v14.6"/>
    <path id="Layer11_14_MEMBER_127_1_STROKES_2_" class="st0" d="M424.3 246.3h5.9"/>
    <path id="Layer11_14_MEMBER_128_1_STROKES_2_" class="st0" d="M428.7 243.8c.3-.3.5-.8.5-1.3s-.2-.9-.5-1.2c-.4-.3-.8-.5-1.3-.5s-.9.2-1.2.5c-.3.3-.5.8-.5 1.2s.2.9.5 1.3c.3.3.8.5 1.2.5.5 0 1-.1 1.3-.5z"/>
    <path id="Layer11_14_MEMBER_129_1_STROKES_2_" class="st0" d="M426.5 253.5c.2.2.6.3 1 .3.2 0 .6-.1 1-.3"/>
    <path id="Layer11_14_MEMBER_130_1_STROKES_2_" class="st0" d="M426.5 253.6l-2.3-1.1"/>
    <path id="Layer11_14_MEMBER_131_1_STROKES_2_" class="st0" d="M426.5 253.6l-2.3-1.1"/>
    <path id="Layer11_14_MEMBER_132_1_STROKES_2_" class="st0" d="M428.4 253.5l1.8-.8"/>
    <path id="Layer11_14_MEMBER_133_1_STROKES_2_" class="st0" d="M424.3 238.1h5.9"/>
    <path id="Layer11_14_MEMBER_134_1_STROKES_2_" class="st0" d="M424.3 238.1v14.4"/>
    <path id="Layer11_14_MEMBER_135_1_STROKES_2_" class="st0" d="M430.2 238.1v14.6"/>
    <path id="Layer11_14_MEMBER_136_1_STROKES_2_" class="st0" d="M424.3 246.3h5.9"/>
    <path id="Layer11_14_MEMBER_137_1_STROKES_2_" class="st0" d="M428.7 243.8c.3-.3.5-.8.5-1.3s-.2-.9-.5-1.2c-.4-.3-.8-.5-1.3-.5s-.9.2-1.2.5c-.3.3-.5.8-.5 1.2s.2.9.5 1.3c.3.3.8.5 1.2.5.5 0 1-.1 1.3-.5z"/>
    <path id="Layer11_14_MEMBER_138_1_STROKES_2_" class="st0" d="M426.5 253.5c.2.2.6.3 1 .3.2 0 .6-.1 1-.3"/>
    <path id="Layer11_14_MEMBER_139_1_STROKES_2_" class="st0" d="M426.5 253.6l-2.3-1.1"/>
    <path id="Layer11_14_MEMBER_140_1_STROKES_2_" class="st0" d="M426.5 253.6l-2.3-1.1"/>
    <path id="Layer11_14_MEMBER_141_1_STROKES_2_" class="st0" d="M428.4 253.5l1.8-.8"/>
    <path id="Layer11_14_MEMBER_142_1_STROKES_2_" class="st0" d="M423.2 233.4v-5.9"/>
    <path id="Layer11_14_MEMBER_143_1_STROKES_2_" class="st0" d="M423.2 233.4h14.4"/>
    <path id="Layer11_14_MEMBER_144_1_STROKES_2_" class="st0" d="M423.2 227.5h14.6"/>
    <path id="Layer11_14_MEMBER_145_1_STROKES_2_" class="st0" d="M431.3 233.4v-5.9"/>
    <path id="Layer11_14_MEMBER_146_1_STROKES_2_" class="st0" d="M428.9 231.5c.3-.4.5-.8.5-1.3s-.2-.9-.5-1.2-.8-.5-1.2-.5-.9.2-1.2.5c-.3.3-.5.8-.5 1.2 0 .5.2 1 .5 1.3s.8.5 1.2.5.8-.1 1.2-.5z"/>
    <path id="Layer11_14_MEMBER_147_1_STROKES_2_" class="st0" d="M438.8 230.2c0-.3-.1-.7-.2-1"/>
    <path id="Layer11_14_MEMBER_148_1_STROKES_2_" class="st0" d="M438.5 231.2c.1-.3.2-.6.2-1"/>
    <path id="Layer11_14_MEMBER_149_1_STROKES_2_" class="st0" d="M438.5 231.2l-1 2.3"/>
    <path id="Layer11_14_MEMBER_150_1_STROKES_2_" class="st0" d="M438.5 231.2l-1 2.3"/>
    <path id="Layer11_14_MEMBER_151_1_STROKES_2_" class="st0" d="M438.5 229.2l-.8-1.7"/>
    <path id="Layer11_14_MEMBER_152_1_STROKES_2_" class="st0" d="M359.3 220.8v1"/>
    <path id="Layer11_14_MEMBER_153_1_STROKES_2_" class="st0" d="M376.2 220.9v3.7"/>
    <path id="Layer11_14_MEMBER_154_1_STROKES_2_" class="st0" d="M376.3 224.6h-8.4"/>
    <path id="Layer11_14_MEMBER_155_1_STROKES_2_" class="st0" d="M367.9 224.6l-5.2-2.8"/>
    <path id="Layer11_14_MEMBER_156_1_STROKES_2_" class="st0" d="M359.4 221.8h3.3"/>
    <path id="Layer11_14_MEMBER_157_1_STROKES_2_" class="st0" d="M439.4 220.9v.9"/>
    <path id="Layer11_14_MEMBER_158_1_STROKES_2_" class="st0" d="M422.6 220.9v3.9"/>
    <path id="Layer11_14_MEMBER_159_1_STROKES_2_" class="st0" d="M422.6 224.8h8.2"/>
    <path id="Layer11_14_MEMBER_160_1_STROKES_2_" class="st0" d="M430.8 224.8l5.3-3"/>
    <path id="Layer11_14_MEMBER_161_1_STROKES_2_" class="st0" d="M439.3 221.8H436"/>
    <path id="Layer11_14_MEMBER_162_1_STROKES_2_" class="st0" d="M425.7 304.5l5.5 2.1"/>
    <path id="Layer11_14_MEMBER_163_1_STROKES_2_" class="st0" d="M425.6 304.5l-5.1 13.4"/>
    <path id="Layer11_14_MEMBER_164_1_STROKES_2_" class="st0" d="M431.1 306.5l-5.2 13.6"/>
    <path id="Layer11_14_MEMBER_165_1_STROKES_2_" class="st0" d="M422.8 312.1l5.5 2.1"/>
    <path id="Layer11_14_MEMBER_166_1_STROKES_2_" class="st0" d="M428.8 309.8c0-.5-.2-.9-.5-1.2-.4-.3-.8-.5-1.3-.5s-.9.2-1.2.5c-.3.3-.5.8-.5 1.2s.2.9.5 1.2c.3.3.8.5 1.2.5.5 0 1-.2 1.3-.5.3-.4.5-.8.5-1.2z"/>
    <path id="Layer11_14_MEMBER_167_1_STROKES_2_" class="st0" d="M422.2 319.6c.4.5.9.7 1.5.7"/>
    <path id="Layer11_14_MEMBER_168_1_STROKES_2_" class="st0" d="M422.2 319.6l-1.7-1.8"/>
    <path id="Layer11_14_MEMBER_169_1_STROKES_2_" class="st0" d="M422.2 319.6l-1.7-1.8"/>
    <path id="Layer11_14_MEMBER_170_1_STROKES_2_" class="st0" d="M424 320.2l1.9-.1"/>
    <path id="Layer11_14_MEMBER_171_1_STROKES_2_" class="st0" d="M422.2 319.6l-1.7-1.8"/>
    <path id="Layer11_14_MEMBER_172_1_STROKES_2_" class="st0" d="M372.2 304.9l-5.8.7"/>
    <path id="Layer11_14_MEMBER_173_1_STROKES_2_" class="st0" d="M372.3 304.9l1.8 14.3"/>
    <path id="Layer11_14_MEMBER_174_1_STROKES_2_" class="st0" d="M366.4 305.6l1.8 14.4"/>
    <path id="Layer11_14_MEMBER_175_1_STROKES_2_" class="st0" d="M373.3 313l-5.8.7"/>
    <path id="Layer11_14_MEMBER_176_1_STROKES_2_" class="st0" d="M369.7 311.5c.5 0 .9-.2 1.2-.5.3-.3.5-.8.5-1.2 0-.5-.2-.9-.5-1.2-.3-.3-.8-.5-1.2-.5-.5 0-.9.2-1.2.5-.3.3-.5.8-.5 1.2 0 .5.2.9.5 1.2.3.2.7.5 1.2.5z"/>
    <path id="Layer11_14_MEMBER_177_1_STROKES_2_" class="st0" d="M370 320.6c.2.1.5.1.8.1.5 0 .9-.1 1.1-.4"/>
    <path id="Layer11_14_MEMBER_178_1_STROKES_2_" class="st0" d="M371.9 320.5l2.1-1.3"/>
    <path id="Layer11_14_MEMBER_179_1_STROKES_2_" class="st0" d="M371.9 320.5l2.1-1.3"/>
    <path id="Layer11_14_MEMBER_180_1_STROKES_2_" class="st0" d="M370 320.6l-1.8-.6"/>
    <path id="Layer11_14_MEMBER_181_1_STROKES_2_" class="st0" d="M372.2 304.9l-5.8.7"/>
    <path id="Layer11_14_MEMBER_182_1_STROKES_2_" class="st0" d="M371.9 320.5l2.1-1.3"/>
    <path id="Layer11_14_MEMBER_183_1_STROKES_2_" class="st0" d="M372.4 297.5c0-.7-.3-1.4-.8-1.9s-1.1-.8-1.9-.8a2.732 2.732 0 0 0-2.7 2.7c0 .7.3 1.4.8 1.9s1.1.8 1.8.8"/>
    <path id="Layer11_14_MEMBER_184_1_STROKES_2_" class="st0" d="M372.3 292.1c0-.7-.2-1.3-.7-1.8s-1.1-.7-1.8-.7c-.6 0-1.2.2-1.7.7s-.7 1.1-.7 1.7"/>
    <path id="Layer11_14_MEMBER_185_1_STROKES_2_" class="st0" d="M372.3 292.1l.1 5.4"/>
    <path id="Layer11_14_MEMBER_186_1_STROKES_2_" class="st0" d="M364.2 295.1c-.7 0-1.2.2-1.7.7s-.7 1.1-.7 1.8c0 .6.2 1.2.7 1.7.4.4 1 .7 1.7.7"/>
    <path id="Layer11_14_MEMBER_187_1_STROKES_2_" class="st0" d="M369.6 300.1l-5.4-.2"/>
    <path id="Layer11_14_MEMBER_188_1_STROKES_2_" class="st0" d="M364.5 295.1c.8 0 1.5-.3 2.1-.9s.9-1.4.9-2.2"/>
    <path id="Layer11_14_MEMBER_189_1_STROKES_2_" class="st0" d="M424.3 297.5c0 .8.3 1.4.8 1.9s1.2.8 1.9.8"/>
    <path id="Layer11_14_MEMBER_190_1_STROKES_2_" class="st0" d="M429.7 297.5c0-.7-.3-1.3-.8-1.8s-1.2-.8-1.9-.8-1.4.3-1.9.8-.8 1.1-.8 1.8"/>
    <path id="Layer11_14_MEMBER_191_1_STROKES_2_" class="st0" d="M427 300.1c.7 0 1.4-.3 1.9-.8s.7-1.2.7-1.9"/>
    <path id="Layer11_14_MEMBER_192_1_STROKES_2_" class="st0" d="M429.2 292.1c0-.7-.2-1.3-.7-1.8-.4-.4-1-.7-1.7-.7s-1.2.2-1.7.7-.7 1.1-.7 1.8"/>
    <path id="Layer11_14_MEMBER_193_1_STROKES_2_" class="st0" d="M424.3 292.1l-.1 5.3"/>
    <path id="Layer11_14_MEMBER_194_1_STROKES_2_" class="st0" d="M434.9 297.6c0-.7-.2-1.2-.7-1.7s-1.1-.7-1.8-.7"/>
    <path id="Layer11_14_MEMBER_195_1_STROKES_2_" class="st0" d="M432.5 300c.6 0 1.2-.2 1.6-.7.5-.5.7-1.1.7-1.7"/>
    <path id="Layer11_14_MEMBER_196_1_STROKES_2_" class="st0" d="M427 300.1l5.5-.2"/>
    <path id="Layer11_14_MEMBER_197_1_STROKES_2_" class="st0" d="M429.2 292.1c0 .8.3 1.5.9 2.1s1.4.9 2.2.9"/>
    <path id="Layer11_14_MEMBER_198_1_STROKES_2_" class="st0" d="M370.9 269.8c0-.5-.2-.9-.6-1.3-.3-.3-.8-.5-1.2-.5-.5 0-.9.2-1.3.5-.3.4-.5.8-.5 1.3s.2 1 .5 1.3c.4.3.8.5 1.3.5s.9-.2 1.2-.5c.4-.5.6-.9.6-1.3z"/>
    <path id="Layer11_14_MEMBER_199_1_STROKES_2_" class="st0" d="M367.5 275.8c.3.7.8 1 1.6 1s1.3-.3 1.6-1"/>
    <path id="Layer11_14_MEMBER_200_1_STROKES_2_" class="st0" d="M366 273h6.2"/>
    <path id="Layer11_14_MEMBER_201_1_STROKES_2_" class="st0" d="M367.5 275.8l-1.3-2.9"/>
    <path id="Layer11_14_MEMBER_202_1_STROKES_2_" class="st0" d="M370.7 275.9l1.5-2.9"/>
    <path id="Layer11_14_MEMBER_203_1_STROKES_2_" class="st0" d="M370.7 264c-.3-.6-.8-1-1.6-1s-1.3.3-1.6 1"/>
    <path id="Layer11_14_MEMBER_204_1_STROKES_2_" class="st0" d="M366 266.9h6.2"/>
    <path id="Layer11_14_MEMBER_205_1_STROKES_2_" class="st0" d="M367.5 264l-1.3 2.9"/>
    <path id="Layer11_14_MEMBER_206_1_STROKES_2_" class="st0" d="M370.7 264l1.5 2.9"/>
    <path id="Layer11_14_MEMBER_207_1_STROKES_2_" class="st0" d="M366.1 266.9v6"/>
    <path id="Layer11_14_MEMBER_208_1_STROKES_2_" class="st0" d="M372.2 266.9v6"/>
    <path id="Layer11_14_MEMBER_209_1_STROKES_2_" class="st0" d="M428.9 271c.3-.3.5-.8.5-1.3s-.2-.9-.5-1.3c-.3-.3-.8-.5-1.3-.5s-.9.2-1.3.5c-.3.4-.5.8-.5 1.3s.2 1 .5 1.3c.4.3.8.5 1.3.5.6 0 1 0 1.3-.5z"/>
    <path id="Layer11_14_MEMBER_210_1_STROKES_2_" class="st0" d="M426 275.8c.3.7.9 1 1.7 1 .7 0 1.2-.3 1.6-1"/>
    <path id="Layer11_14_MEMBER_211_1_STROKES_2_" class="st0" d="M424.6 273h6.2"/>
    <path id="Layer11_14_MEMBER_212_1_STROKES_2_" class="st0" d="M426 275.8l-1.3-2.9"/>
    <path id="Layer11_14_MEMBER_213_1_STROKES_2_" class="st0" d="M429.3 275.9l1.5-2.9"/>
    <path id="Layer11_14_MEMBER_214_1_STROKES_2_" class="st0" d="M429.3 264c-.4-.6-.9-1-1.6-1-.8 0-1.4.3-1.7 1"/>
    <path id="Layer11_14_MEMBER_215_1_STROKES_2_" class="st0" d="M424.6 266.9h6.2"/>
    <path id="Layer11_14_MEMBER_216_1_STROKES_2_" class="st0" d="M426 264l-1.3 2.9"/>
    <path id="Layer11_14_MEMBER_217_1_STROKES_2_" class="st0" d="M429.3 264l1.5 2.9"/>
    <path id="Layer11_14_MEMBER_218_1_STROKES_2_" class="st0" d="M424.7 266.9v6"/>
    <path id="Layer11_14_MEMBER_219_1_STROKES_2_" class="st0" d="M430.7 266.9v6"/>
    <path id="Layer11_14_MEMBER_220_1_STROKES_2_" class="st0" d="M412.9 277.4c0-.5-.2-.9-.5-1.2-.4-.4-.8-.6-1.3-.6s-.9.2-1.3.6c-.3.3-.5.8-.5 1.2 0 .5.2 1 .5 1.3.4.3.8.5 1.3.5s1-.2 1.3-.5c.3-.5.5-.8.5-1.3z"/>
    <path id="Layer11_14_MEMBER_221_1_STROKES_2_" class="st0" d="M418.2 277.2c0-.7-.3-1.3-1-1.6"/>
    <path id="Layer11_14_MEMBER_222_1_STROKES_2_" class="st0" d="M417.1 278.9c.7-.3 1-.8 1-1.6"/>
    <path id="Layer11_14_MEMBER_223_1_STROKES_2_" class="st0" d="M414.3 280.4v-6.2"/>
    <path id="Layer11_14_MEMBER_224_1_STROKES_2_" class="st0" d="M417.1 278.9l-2.9 1.3"/>
    <path id="Layer11_14_MEMBER_225_1_STROKES_2_" class="st0" d="M417.2 275.6l-2.9-1.5"/>
    <path id="Layer11_14_MEMBER_226_1_STROKES_2_" class="st0" d="M405.3 275.6c-.6.3-1 .9-1 1.6 0 .8.3 1.3 1 1.6"/>
    <path id="Layer11_14_MEMBER_227_1_STROKES_2_" class="st0" d="M408.3 280.4v-6.2"/>
    <path id="Layer11_14_MEMBER_228_1_STROKES_2_" class="st0" d="M405.4 278.9l2.8 1.3"/>
    <path id="Layer11_14_MEMBER_229_1_STROKES_2_" class="st0" d="M405.3 275.6l2.9-1.5"/>
    <path id="Layer11_14_MEMBER_230_1_STROKES_2_" class="st0" d="M408.3 280.2h6"/>
    <path id="Layer11_14_MEMBER_231_1_STROKES_2_" class="st0" d="M408.3 274.1h6"/>
    <path id="Layer11_14_MEMBER_232_1_STROKES_2_" class="st0" d="M387.2 277.4c0-.5-.2-.9-.5-1.2-.4-.4-.8-.6-1.3-.6s-.9.2-1.3.6c-.3.3-.5.8-.5 1.2 0 .5.2 1 .5 1.3.4.3.8.5 1.3.5s1-.2 1.3-.5.5-.8.5-1.3z"/>
    <path id="Layer11_14_MEMBER_233_1_STROKES_2_" class="st0" d="M392.5 277.2c0-.7-.3-1.3-1-1.6"/>
    <path id="Layer11_14_MEMBER_234_1_STROKES_2_" class="st0" d="M391.4 278.9c.7-.3 1-.8 1-1.6"/>
    <path id="Layer11_14_MEMBER_235_1_STROKES_2_" class="st0" d="M388.6 280.4v-6.2"/>
    <path id="Layer11_14_MEMBER_236_1_STROKES_2_" class="st0" d="M391.4 278.9l-2.8 1.3"/>
    <path id="Layer11_14_MEMBER_237_1_STROKES_2_" class="st0" d="M391.5 275.6l-2.9-1.5"/>
    <path id="Layer11_14_MEMBER_238_1_STROKES_2_" class="st0" d="M379.6 275.6c-.6.3-1 .9-1 1.6 0 .8.3 1.3 1 1.6"/>
    <path id="Layer11_14_MEMBER_239_1_STROKES_2_" class="st0" d="M382.6 280.4v-6.2"/>
    <path id="Layer11_14_MEMBER_240_1_STROKES_2_" class="st0" d="M379.7 278.9l2.9 1.3"/>
    <path id="Layer11_14_MEMBER_241_1_STROKES_2_" class="st0" d="M379.6 275.6l2.9-1.5"/>
    <path id="Layer11_14_MEMBER_242_1_STROKES_2_" class="st0" d="M382.6 280.2h6"/>
    <path id="Layer11_14_MEMBER_243_1_STROKES_2_" class="st0" d="M382.6 274.1h6"/>
    <path id="Layer11_14_MEMBER_244_1_STROKES_2_" class="st0" d="M412.9 330c0-.5-.2-.9-.5-1.3-.3-.3-.8-.5-1.3-.5s-.9.2-1.3.5c-.3.4-.5.8-.5 1.3s.2 1 .5 1.3c.4.3.8.5 1.3.5s1-.2 1.3-.5c.3-.4.5-.8.5-1.3z"/>
    <path id="Layer11_14_MEMBER_245_1_STROKES_2_" class="st0" d="M418.2 330c0-.8-.3-1.4-1-1.7"/>
    <path id="Layer11_14_MEMBER_246_1_STROKES_2_" class="st0" d="M417.2 331.6c.6-.4 1-.9 1-1.6"/>
    <path id="Layer11_14_MEMBER_247_1_STROKES_2_" class="st0" d="M414.3 327v6.2"/>
    <path id="Layer11_14_MEMBER_248_1_STROKES_2_" class="st0" d="M417.1 328.4l-2.9-1.3"/>
    <path id="Layer11_14_MEMBER_249_1_STROKES_2_" class="st0" d="M417.2 331.6l-2.9 1.5"/>
    <path id="Layer11_14_MEMBER_250_1_STROKES_2_" class="st0" d="M405.4 328.4c-.7.3-1 .9-1 1.7 0 .7.3 1.2 1 1.6"/>
    <path id="Layer11_14_MEMBER_251_1_STROKES_2_" class="st0" d="M408.3 327v6.2"/>
    <path id="Layer11_14_MEMBER_252_1_STROKES_2_" class="st0" d="M405.4 328.4l2.8-1.3"/>
    <path id="Layer11_14_MEMBER_253_1_STROKES_2_" class="st0" d="M405.3 331.6l2.9 1.5"/>
    <path id="Layer11_14_MEMBER_254_1_STROKES_2_" class="st0" d="M408.3 327h6"/>
    <path id="Layer11_14_MEMBER_255_1_STROKES_2_" class="st0" d="M408.3 333h6"/>
    <path id="Layer11_14_MEMBER_256_1_STROKES_2_" class="st0" d="M387.2 330c0-.5-.2-.9-.5-1.3-.3-.3-.8-.5-1.3-.5s-.9.2-1.3.5c-.3.4-.5.8-.5 1.3s.2 1 .5 1.3c.4.3.8.5 1.3.5s1-.2 1.3-.5c.4-.4.5-.8.5-1.3z"/>
    <path id="Layer11_14_MEMBER_257_1_STROKES_2_" class="st0" d="M392.5 330c0-.8-.3-1.4-1-1.7"/>
    <path id="Layer11_14_MEMBER_258_1_STROKES_2_" class="st0" d="M391.5 331.6c.6-.4 1-.9 1-1.6"/>
    <path id="Layer11_14_MEMBER_259_1_STROKES_2_" class="st0" d="M388.6 327v6.2"/>
    <path id="Layer11_14_MEMBER_260_1_STROKES_2_" class="st0" d="M391.4 328.4l-2.8-1.3"/>
    <path id="Layer11_14_MEMBER_261_1_STROKES_2_" class="st0" d="M391.5 331.6l-2.9 1.5"/>
    <path id="Layer11_14_MEMBER_262_1_STROKES_2_" class="st0" d="M379.7 328.4c-.7.3-1 .9-1 1.7 0 .7.3 1.2 1 1.6"/>
    <path id="Layer11_14_MEMBER_263_1_STROKES_2_" class="st0" d="M382.6 327v6.2"/>
    <path id="Layer11_14_MEMBER_264_1_STROKES_2_" class="st0" d="M379.7 328.4l2.9-1.3"/>
    <path id="Layer11_14_MEMBER_265_1_STROKES_2_" class="st0" d="M379.6 331.6l2.9 1.5"/>
    <path id="Layer11_14_MEMBER_266_1_STROKES_2_" class="st0" d="M382.6 327h6"/>
    <path id="Layer11_14_MEMBER_267_1_STROKES_2_" class="st0" d="M382.6 333h6"/>
    <path id="Layer11_14_MEMBER_268_1_STROKES_2_" class="st0" d="M753.3 330.4c0-5.7-.4-11.4-1.3-17.1"/>
    <path id="Layer11_14_MEMBER_269_1_STROKES_2_" class="st0" d="M750.4 305.6c-2.4-10.1-6.2-19.6-11.4-28.5"/>
    <path id="Layer11_14_MEMBER_270_1_STROKES_2_" class="st0" d="M735 270.5c-5.8-8.5-12.7-16-20.7-22.7"/>
    <path id="Layer11_14_MEMBER_271_1_STROKES_2_" class="st0" d="M708.1 243c-8.4-6-17.5-10.6-27.5-14"/>
    <path id="Layer11_14_MEMBER_272_1_STROKES_2_" class="st0" d="M673 226.7c-8.8-2.2-17.7-3.4-26.5-3.4"/>
    <path id="Layer11_14_MEMBER_273_1_STROKES_2_" class="st0" d="M753.3 331.6v-1.3"/>
    <path id="Layer11_14_MEMBER_274_1_STROKES_2_" class="st0" d="M756.6 330.4c0-14.9-2.9-29.2-8.6-42.9-5.6-13.2-13.4-24.9-23.6-35-10.2-10.2-21.8-18.1-35-23.7-13.6-5.8-27.9-8.7-42.9-8.7"/>
    <path id="Layer11_14_MEMBER_275_1_STROKES_2_" class="st0" d="M756.6 331.6v-1.3"/>
    <path id="Layer11_14_MEMBER_276_1_STROKES_2_" class="st0" d="M753.3 331.6v13"/>
    <path id="Layer11_14_MEMBER_277_1_STROKES_2_" class="st0" d="M753.3 352.5V385"/>
    <path id="Layer11_14_MEMBER_278_1_STROKES_2_" class="st0" d="M753.3 392.9l-.1 31.9"/>
    <path id="Layer11_14_MEMBER_279_1_STROKES_2_" class="st0" d="M756.6 331.6l-.1 106.1"/>
    <path id="Layer11_14_MEMBER_280_1_STROKES_2_" class="st0" d="M646.6 223.3h-4.4"/>
    <path id="Layer11_14_MEMBER_281_1_STROKES_2_" class="st0" d="M634.3 223.3h-30.6"/>
    <path id="Layer11_14_MEMBER_282_1_STROKES_2_" class="st0" d="M646.4 219.9h-31.8"/>
    <path id="Layer11_14_MEMBER_283_1_STROKES_2_" class="st2" d="M695.4 263.6c0-2.6-.7-5.1-2.1-7.3-1.4-2.2-3.3-3.9-5.7-5"/>
    <path id="Layer11_14_MEMBER_284_1_STROKES_2_" class="st2" d="M676.4 251.4c-2.4 1.1-4.3 2.8-5.7 5-1.4 2.2-2.1 4.6-2.1 7.3 0 3.7 1.3 6.9 4 9.5 2.6 2.6 5.7 4 9.5 4 3.7 0 6.9-1.3 9.5-4 2.6-2.6 4-5.7 4-9.5"/>
    <path id="Layer11_14_MEMBER_285_1_STROKES_2_" class="st2" d="M651.1 253.9c0-2.1-.6-4.2-1.7-6-1.1-1.9-2.6-3.3-4.5-4.3"/>
    <path id="Layer11_14_MEMBER_286_1_STROKES_2_" class="st2" d="M634.1 243.6c-2 1-3.5 2.4-4.6 4.3-1.1 1.9-1.7 3.9-1.7 6 0 3.2 1.1 5.9 3.4 8.2 2.2 2.2 5 3.4 8.2 3.4 3.2 0 5.9-1.1 8.2-3.4 2.2-2.3 3.4-5 3.4-8.2"/>
    <path id="Layer11_14_MEMBER_287_1_STROKES_2_" class="st2" d="M718.6 301.4c0-1.8-.4-3.4-1.3-4.9-.9-1.6-2.2-2.8-3.7-3.6"/>
    <path id="Layer11_14_MEMBER_288_1_STROKES_2_" class="st2" d="M704.2 292.9c-1.5.8-2.7 2-3.7 3.6-.9 1.5-1.3 3.2-1.3 4.9 0 2.7 1 5 2.9 6.9s4.1 2.9 6.8 2.9 5-1 6.9-2.9 2.9-4.2 2.9-6.9"/>
    <path id="Layer11_14_MEMBER_289_1_STROKES_2_" class="st2" d="M687.5 251.4h-11.1"/>
    <path id="Layer11_14_MEMBER_290_1_STROKES_2_" class="st2" d="M644.7 243.6h-10.6"/>
    <path id="Layer11_14_MEMBER_291_1_STROKES_2_" class="st2" d="M713.6 292.9h-9.4"/>
    <path id="Layer11_14_MEMBER_292_1_STROKES_2_" class="st0" d="M592.2 223.6h-43.7"/>
    <path id="Layer11_14_MEMBER_293_1_STROKES_2_" class="st0" d="M536.6 223.6h-47.9"/>
    <path id="Layer11_14_MEMBER_294_1_STROKES_2_" class="st0" d="M480.8 223.6h-48"/>
    <path id="Layer11_14_MEMBER_295_1_STROKES_2_" class="st0" d="M597.3 297.6c0 .7.3 1.4.8 1.9s1.1.8 1.8.8"/>
    <path id="Layer11_14_MEMBER_296_1_STROKES_2_" class="st0" d="M597.4 230.4c0-.5-.2-1-.6-1.4-.4-.4-.9-.6-1.4-.6l-.5.1"/>
    <path id="Layer11_14_MEMBER_297_1_STROKES_2_" class="st0" d="M596.8 231.7c.4-.4.6-.9.6-1.4"/>
    <path id="Layer11_14_MEMBER_298_1_STROKES_2_" class="st0" d="M663.4 286h-71.2m151.9 0h-45.4"/>
    <path id="Layer11_14_MEMBER_299_1_STROKES_2_" class="st0" d="M558.9 291c-3.5 3.5-5.2 7.7-5.2 12.6s1.7 9.1 5.2 12.6 7.7 5.2 12.6 5.2 9.1-1.7 12.6-5.2 5.2-7.7 5.2-12.6-1.7-9.1-5.2-12.6-7.7-5.2-12.6-5.2c-4.8 0-9 1.7-12.6 5.2z"/>
    <path id="Layer11_14_MEMBER_300_1_STROKES_2_" class="st0" d="M592.3 303.6c0-5.6-2-10.5-6-14.5s-8.8-6.1-14.4-6.2"/>
    <path id="Layer11_14_MEMBER_301_1_STROKES_2_" class="st0" d="M571.8 324.2c5.7 0 10.5-2.1 14.4-6.2 4-4.1 6-8.9 6-14.6"/>
    <path id="Layer11_14_MEMBER_302_1_STROKES_2_" class="st0" d="M571.5 324.2c-6.6 0-12.2-2-16.6-6.1-4.3-4-6.4-8.8-6.4-14.7 0-5.7 2.3-10.5 6.8-14.6s9.9-6.1 16.2-6.1"/>
    <path id="Layer11_14_MEMBER_303_1_STROKES_2_" class="st0" d="M548.5 303.6v-82.4"/>
    <path id="Layer11_14_MEMBER_304_1_STROKES_2_" class="st0" d="M595.8 252.3c.2 1 .7 1.8 1.4 2.5.8.6 1.7 1 2.7 1"/>
    <path id="Layer11_14_MEMBER_305_1_STROKES_2_" class="st0" d="M593.8 225.7c-1.1 1-1.6 2.2-1.6 3.7"/>
    <path id="Layer11_14_MEMBER_306_1_STROKES_2_" class="st0" d="M592.2 229.5l3.6 22.8"/>
    <path id="Layer11_14_MEMBER_307_1_STROKES_2_" class="st0" d="M612.1 227.3v10.6"/>
    <path id="Layer11_14_MEMBER_308_1_STROKES_2_" class="st0" d="M608.3 255.7h-8.4"/>
    <path id="Layer11_14_MEMBER_309_1_STROKES_2_" class="st0" d="M608.1 255.7c.5 0 1-.2 1.5-.6.4-.3.7-.8.7-1.3"/>
    <path id="Layer11_14_MEMBER_310_1_STROKES_2_" class="st0" d="M612.1 237.9l-1.8 15.9"/>
    <path id="Layer11_14_MEMBER_311_1_STROKES_2_" class="st0" d="M610.3 225.6c-.2-.8-.7-1.2-1.4-1.2"/>
    <path id="Layer11_14_MEMBER_312_1_STROKES_2_" class="st0" d="M610.5 226.8l-.2-1.2"/>
    <path id="Layer11_14_MEMBER_313_1_STROKES_2_" class="st0" d="M608.9 224.4h-4.8"/>
    <path id="Layer11_14_MEMBER_314_1_STROKES_2_" class="st0" d="M610.5 226.8c.1.3.3.5.7.5"/>
    <path id="Layer11_14_MEMBER_315_1_STROKES_2_" class="st0" d="M612.1 227.3h-1"/>
    <path id="Layer11_14_MEMBER_316_1_STROKES_2_" class="st0" d="M592.2 303v-81.9"/>
    <path id="Layer11_14_MEMBER_317_1_STROKES_2_" class="st0" d="M602.3 230.4c0-.5-.2-.9-.5-1.2-.3-.3-.7-.5-1.2-.5s-.9.2-1.2.5"/>
    <path id="Layer11_14_MEMBER_318_1_STROKES_2_" class="st0" d="M598.9 230.4c0 .5.2.9.5 1.2.3.3.7.5 1.2.5s.9-.2 1.2-.5c.3-.3.5-.7.5-1.2"/>
    <path id="Layer11_14_MEMBER_319_1_STROKES_2_" class="st0" d="M602.5 235.5c0-.5-.2-1-.6-1.4s-.9-.6-1.4-.6-1 .2-1.4.6c-.4.4-.6.9-.6 1.4s.2 1 .6 1.4c.4.4.9.6 1.4.6s1-.2 1.4-.6c.4-.4.6-.9.6-1.4z"/>
    <path id="Layer11_14_MEMBER_320_1_STROKES_2_" class="st0" d="M603.3 230.4c0-.7-.2-1.3-.7-1.8s-1.2-.8-1.9-.8"/>
    <path id="Layer11_14_MEMBER_321_1_STROKES_2_" class="st0" d="M603.3 230.4v5.2"/>
    <path id="Layer11_14_MEMBER_322_1_STROKES_2_" class="st0" d="M602.6 235.6h.7"/>
    <path id="Layer11_14_MEMBER_323_1_STROKES_2_" class="st0" d="M600.5 227.7h-5.6"/>
    <path id="Layer11_14_MEMBER_324_1_STROKES_2_" class="st0" d="M599 233.9l-1.5 1.5"/>
    <path id="Layer11_14_MEMBER_325_1_STROKES_2_" class="st0" d="M597 232l-1.5 1.5"/>
    <path id="Layer11_14_MEMBER_326_1_STROKES_2_" class="st0" d="M597.5 235.4l-2-2"/>
    <path id="Layer11_14_MEMBER_327_1_STROKES_2_" class="st0" d="M594.8 228.4c-.9.3-1.4 1-1.4 1.9 0 .5.2 1 .6 1.4s.9.6 1.4.6 1-.2 1.4-.6"/>
    <path id="Layer11_14_MEMBER_328_1_STROKES_2_" class="st0" d="M594.9 227.7v.7"/>
    <path id="Layer11_14_MEMBER_329_1_STROKES_2_" class="st0" d="M603.8 238.3h-5.9"/>
    <path id="Layer11_14_MEMBER_330_1_STROKES_2_" class="st0" d="M603.9 238.3v14.4"/>
    <path id="Layer11_14_MEMBER_331_1_STROKES_2_" class="st0" d="M597.9 238.3v14.5"/>
    <path id="Layer11_14_MEMBER_332_1_STROKES_2_" class="st0" d="M603.8 246.4h-5.9"/>
    <path id="Layer11_14_MEMBER_333_1_STROKES_2_" class="st0" d="M602.5 242.7c0-.5-.2-.9-.5-1.2-.3-.3-.8-.5-1.3-.5s-.9.2-1.2.5c-.3.3-.5.8-.5 1.2 0 .5.2.9.5 1.2.3.3.8.5 1.2.5.5 0 .9-.2 1.3-.5.3-.3.5-.7.5-1.2z"/>
    <path id="Layer11_14_MEMBER_334_1_STROKES_2_" class="st0" d="M599.7 253.7c.3.1.6.2 1 .2s.7-.1 1-.2"/>
    <path id="Layer11_14_MEMBER_335_1_STROKES_2_" class="st0" d="M601.6 253.7l2.3-1"/>
    <path id="Layer11_14_MEMBER_336_1_STROKES_2_" class="st0" d="M601.6 253.7l2.3-1"/>
    <path id="Layer11_14_MEMBER_337_1_STROKES_2_" class="st0" d="M599.7 253.7l-1.8-.8"/>
    <path id="Layer11_14_MEMBER_338_1_STROKES_2_" class="st0" d="M545.4 238.3h-5.9"/>
    <path id="Layer11_14_MEMBER_339_1_STROKES_2_" class="st0" d="M545.4 238.3v14.4"/>
    <path id="Layer11_14_MEMBER_340_1_STROKES_2_" class="st0" d="M539.5 238.3v14.5"/>
    <path id="Layer11_14_MEMBER_341_1_STROKES_2_" class="st0" d="M545.4 246.4h-5.9"/>
    <path id="Layer11_14_MEMBER_342_1_STROKES_2_" class="st0" d="M544 242.7c0-.5-.2-.9-.5-1.2-.3-.3-.8-.5-1.3-.5s-.9.2-1.2.5c-.3.3-.5.8-.5 1.2 0 .5.2.9.5 1.2.3.3.8.5 1.2.5.5 0 .9-.2 1.3-.5.3-.3.5-.7.5-1.2z"/>
    <path id="Layer11_14_MEMBER_343_1_STROKES_2_" class="st0" d="M541.3 253.7c.3.1.6.2 1 .2s.7-.1 1-.2"/>
    <path id="Layer11_14_MEMBER_344_1_STROKES_2_" class="st0" d="M543.2 253.7l2.2-1"/>
    <path id="Layer11_14_MEMBER_345_1_STROKES_2_" class="st0" d="M543.2 253.7l2.2-1"/>
    <path id="Layer11_14_MEMBER_346_1_STROKES_2_" class="st0" d="M541.2 253.7l-1.7-.8"/>
    <path id="Layer11_14_MEMBER_347_1_STROKES_2_" class="st0" d="M545.4 238.3h-5.9"/>
    <path id="Layer11_14_MEMBER_348_1_STROKES_2_" class="st0" d="M545.4 238.3v14.4"/>
    <path id="Layer11_14_MEMBER_349_1_STROKES_2_" class="st0" d="M539.5 238.3v14.5"/>
    <path id="Layer11_14_MEMBER_350_1_STROKES_2_" class="st0" d="M545.4 246.4h-5.9"/>
    <path id="Layer11_14_MEMBER_351_1_STROKES_2_" class="st0" d="M544 242.7c0-.5-.2-.9-.5-1.2-.3-.3-.8-.5-1.3-.5s-.9.2-1.2.5c-.3.3-.5.8-.5 1.2 0 .5.2.9.5 1.2.3.3.8.5 1.2.5.5 0 .9-.2 1.3-.5.3-.3.5-.7.5-1.2z"/>
    <path id="Layer11_14_MEMBER_352_1_STROKES_2_" class="st0" d="M541.3 253.7c.3.1.6.2 1 .2s.7-.1 1-.2"/>
    <path id="Layer11_14_MEMBER_353_1_STROKES_2_" class="st0" d="M543.2 253.7l2.2-1"/>
    <path id="Layer11_14_MEMBER_354_1_STROKES_2_" class="st0" d="M543.2 253.7l2.2-1"/>
    <path id="Layer11_14_MEMBER_355_1_STROKES_2_" class="st0" d="M541.2 253.7l-1.7-.8"/>
    <path id="Layer11_14_MEMBER_356_1_STROKES_2_" class="st0" d="M546.6 233.5v-5.9"/>
    <path id="Layer11_14_MEMBER_357_1_STROKES_2_" class="st0" d="M546.6 233.5h-14.4"/>
    <path id="Layer11_14_MEMBER_358_1_STROKES_2_" class="st0" d="M546.6 227.6H532"/>
    <path id="Layer11_14_MEMBER_359_1_STROKES_2_" class="st0" d="M538.4 233.5v-5.9"/>
    <path id="Layer11_14_MEMBER_360_1_STROKES_2_" class="st0" d="M543.8 230.4c0-.5-.2-.9-.5-1.2-.3-.3-.8-.5-1.2-.5s-.9.2-1.2.5c-.3.3-.5.8-.5 1.2s.2.9.5 1.2c.3.3.8.5 1.2.5s.9-.2 1.2-.5c.3-.3.5-.7.5-1.2z"/>
    <path id="Layer11_14_MEMBER_361_1_STROKES_2_" class="st0" d="M531.2 229.3c-.2.5-.3.8-.3 1s.1.6.3 1"/>
    <path id="Layer11_14_MEMBER_362_1_STROKES_2_" class="st0" d="M531.1 231.3l1.1 2.2"/>
    <path id="Layer11_14_MEMBER_363_1_STROKES_2_" class="st0" d="M531.1 231.3l1.1 2.2"/>
    <path id="Layer11_14_MEMBER_364_1_STROKES_2_" class="st0" d="M531.2 229.3l.8-1.7"/>
    <path id="Layer11_14_MEMBER_365_1_STROKES_2_" class="st0" d="M610.4 221v1"/>
    <path id="Layer11_14_MEMBER_366_1_STROKES_2_" class="st0" d="M593.5 221v3.7"/>
    <path id="Layer11_14_MEMBER_367_1_STROKES_2_" class="st0" d="M593.5 224.7h8.4"/>
    <path id="Layer11_14_MEMBER_368_1_STROKES_2_" class="st0" d="M601.8 224.7l5.2-2.9"/>
    <path id="Layer11_14_MEMBER_369_1_STROKES_2_" class="st0" d="M610.3 221.9h-3.4"/>
    <path id="Layer11_14_MEMBER_370_1_STROKES_2_" class="st0" d="M530.3 221v1"/>
    <path id="Layer11_14_MEMBER_371_1_STROKES_2_" class="st0" d="M547.1 221v3.9"/>
    <path id="Layer11_14_MEMBER_372_1_STROKES_2_" class="st0" d="M547.1 224.9h-8.3"/>
    <path id="Layer11_14_MEMBER_373_1_STROKES_2_" class="st0" d="M538.9 224.9l-5.3-2.9"/>
    <path id="Layer11_14_MEMBER_374_1_STROKES_2_" class="st0" d="M530.3 221.9h3.4"/>
    <path id="Layer11_14_MEMBER_375_1_STROKES_2_" class="st0" d="M544 304.6l-5.5 2.1"/>
    <path id="Layer11_14_MEMBER_376_1_STROKES_2_" class="st0" d="M544 304.5l5.2 13.5"/>
    <path id="Layer11_14_MEMBER_377_1_STROKES_2_" class="st0" d="M538.5 306.6l5.3 13.6"/>
    <path id="Layer11_14_MEMBER_378_1_STROKES_2_" class="st0" d="M546.9 312.1l-5.5 2.1"/>
    <path id="Layer11_14_MEMBER_379_1_STROKES_2_" class="st0" d="M544.5 309.9c0-.5-.2-.9-.5-1.2-.3-.3-.8-.5-1.2-.5-.5 0-.9.2-1.3.5-.3.3-.5.8-.5 1.2 0 .5.2 1 .5 1.3.4.3.8.5 1.3.5s.9-.2 1.2-.5c.3-.4.5-.8.5-1.3z"/>
    <path id="Layer11_14_MEMBER_380_1_STROKES_2_" class="st0" d="M546 320.4c.6 0 1.1-.2 1.5-.7"/>
    <path id="Layer11_14_MEMBER_381_1_STROKES_2_" class="st0" d="M547.5 319.8l1.7-1.8"/>
    <path id="Layer11_14_MEMBER_382_1_STROKES_2_" class="st0" d="M547.5 319.8l1.7-1.8"/>
    <path id="Layer11_14_MEMBER_383_1_STROKES_2_" class="st0" d="M545.6 320.4l-1.8-.1"/>
    <path id="Layer11_14_MEMBER_384_1_STROKES_2_" class="st0" d="M547.5 319.8l1.7-1.8"/>
    <path id="Layer11_14_MEMBER_385_1_STROKES_2_" class="st0" d="M597.4 305l5.9.7"/>
    <path id="Layer11_14_MEMBER_386_1_STROKES_2_" class="st0" d="M597.4 305l-1.8 14.3"/>
    <path id="Layer11_14_MEMBER_387_1_STROKES_2_" class="st0" d="M603.3 305.6l-1.8 14.5"/>
    <path id="Layer11_14_MEMBER_388_1_STROKES_2_" class="st0" d="M596.5 313.1l5.8.7"/>
    <path id="Layer11_14_MEMBER_389_1_STROKES_2_" class="st0" d="M601.8 309.8c0-.5-.2-.9-.5-1.2-.3-.3-.8-.5-1.2-.5-.5 0-.9.2-1.2.5-.3.3-.5.8-.5 1.2s.2.9.5 1.2c.3.3.8.5 1.2.5.5 0 .9-.2 1.2-.5.3-.3.5-.8.5-1.2z"/>
    <path id="Layer11_14_MEMBER_390_1_STROKES_2_" class="st0" d="M597.7 320.6c.4.2.8.4 1.2.4l.8-.1"/>
    <path id="Layer11_14_MEMBER_391_1_STROKES_2_" class="st0" d="M597.7 320.6l-2.1-1.3"/>
    <path id="Layer11_14_MEMBER_392_1_STROKES_2_" class="st0" d="M597.7 320.6l-2.1-1.3"/>
    <path id="Layer11_14_MEMBER_393_1_STROKES_2_" class="st0" d="M599.7 320.8l1.8-.6"/>
    <path id="Layer11_14_MEMBER_394_1_STROKES_2_" class="st0" d="M597.4 305l5.9.7"/>
    <path id="Layer11_14_MEMBER_395_1_STROKES_2_" class="st0" d="M597.7 320.6l-2.1-1.3"/>
    <path id="Layer11_14_MEMBER_396_1_STROKES_2_" class="st0" d="M602.7 297.6c0-.8-.3-1.4-.8-1.9s-1.1-.8-1.9-.8c-.7 0-1.3.3-1.8.8s-.8 1.1-.8 1.9"/>
    <path id="Layer11_14_MEMBER_397_1_STROKES_2_" class="st0" d="M600.1 300.4c.7 0 1.3-.3 1.8-.8s.7-1.2.7-1.9"/>
    <path id="Layer11_14_MEMBER_398_1_STROKES_2_" class="st0" d="M602.2 292.1c0-.7-.3-1.2-.7-1.7-.5-.5-1.1-.7-1.8-.7-.6 0-1.2.2-1.7.7s-.7 1.1-.7 1.7"/>
    <path id="Layer11_14_MEMBER_399_1_STROKES_2_" class="st0" d="M597.3 292.1v5.4"/>
    <path id="Layer11_14_MEMBER_400_1_STROKES_2_" class="st0" d="M607.9 297.6c0-.7-.2-1.3-.7-1.8-.4-.5-1-.7-1.7-.7"/>
    <path id="Layer11_14_MEMBER_401_1_STROKES_2_" class="st0" d="M605.5 300.1c.6 0 1.2-.3 1.7-.7.4-.5.7-1.1.7-1.7"/>
    <path id="Layer11_14_MEMBER_402_1_STROKES_2_" class="st0" d="M600.1 300.4l5.4-.2"/>
    <path id="Layer11_14_MEMBER_403_1_STROKES_2_" class="st0" d="M602.2 292.1c0 .8.3 1.5.9 2.1.6.6 1.3.9 2.1.9"/>
    <path id="Layer11_14_MEMBER_404_1_STROKES_2_" class="st0" d="M542.6 300.4c.8 0 1.5-.3 2-.8s.7-1.2.7-1.9-.2-1.4-.7-1.9-1.2-.8-1.9-.8c-.8 0-1.4.3-1.9.8s-.8 1.2-.8 1.9.2 1.4.7 1.9c.6.4 1.2.6 1.9.8z"/>
    <path id="Layer11_14_MEMBER_405_1_STROKES_2_" class="st0" d="M545.4 292.2c0-.7-.2-1.3-.7-1.8-.4-.5-1-.7-1.7-.7s-1.3.2-1.8.7c-.4.4-.7 1-.7 1.7"/>
    <path id="Layer11_14_MEMBER_406_1_STROKES_2_" class="st0" d="M545.4 292.1v5.4"/>
    <path id="Layer11_14_MEMBER_407_1_STROKES_2_" class="st0" d="M537.2 295.2c-.6 0-1.2.2-1.7.7s-.7 1.1-.7 1.7.2 1.2.7 1.7c.4.4 1 .7 1.7.7"/>
    <path id="Layer11_14_MEMBER_408_1_STROKES_2_" class="st0" d="M542.6 300.4l-5.4-.2"/>
    <path id="Layer11_14_MEMBER_409_1_STROKES_2_" class="st0" d="M537.5 295.2c.8 0 1.5-.3 2.1-.9s.9-1.3.9-2.1"/>
    <path id="Layer11_14_MEMBER_410_1_STROKES_2_" class="st0" d="M602.5 270c0-.5-.2-.9-.5-1.3-.3-.3-.8-.5-1.3-.5s-.9.2-1.2.5c-.4.4-.6.8-.6 1.3s.2.9.6 1.2c.3.4.8.6 1.2.6s.9-.2 1.3-.6c.3-.3.5-.7.5-1.2z"/>
    <path id="Layer11_14_MEMBER_411_1_STROKES_2_" class="st0" d="M598.9 276c.4.6.9 1 1.6 1 .8 0 1.3-.3 1.7-1"/>
    <path id="Layer11_14_MEMBER_412_1_STROKES_2_" class="st0" d="M603.6 273h-6.2"/>
    <path id="Layer11_14_MEMBER_413_1_STROKES_2_" class="st0" d="M602.2 276l1.3-2.9"/>
    <path id="Layer11_14_MEMBER_414_1_STROKES_2_" class="st0" d="M598.9 276l-1.5-2.9"/>
    <path id="Layer11_14_MEMBER_415_1_STROKES_2_" class="st0" d="M602.2 264.1c-.3-.7-.9-1-1.7-1-.7 0-1.2.3-1.6 1"/>
    <path id="Layer11_14_MEMBER_416_1_STROKES_2_" class="st0" d="M603.6 267h-6.2"/>
    <path id="Layer11_14_MEMBER_417_1_STROKES_2_" class="st0" d="M602.2 264.1l1.3 2.8"/>
    <path id="Layer11_14_MEMBER_418_1_STROKES_2_" class="st0" d="M598.9 264.1l-1.5 2.9"/>
    <path id="Layer11_14_MEMBER_419_1_STROKES_2_" class="st0" d="M603.6 267v6.1"/>
    <path id="Layer11_14_MEMBER_420_1_STROKES_2_" class="st0" d="M597.6 267v6"/>
    <path id="Layer11_14_MEMBER_421_1_STROKES_2_" class="st0" d="M543.9 270c0-.5-.2-.9-.5-1.3-.3-.3-.8-.5-1.3-.5s-.9.2-1.3.5c-.3.4-.5.8-.5 1.3s.2.9.5 1.2c.4.4.8.6 1.3.6s.9-.2 1.3-.6c.3-.3.5-.7.5-1.2z"/>
    <path id="Layer11_14_MEMBER_422_1_STROKES_2_" class="st0" d="M540.4 276c.4.6.9 1 1.6 1 .8 0 1.3-.3 1.7-1"/>
    <path id="Layer11_14_MEMBER_423_1_STROKES_2_" class="st0" d="M545.1 273h-6.2"/>
    <path id="Layer11_14_MEMBER_424_1_STROKES_2_" class="st0" d="M543.7 276l1.3-2.9"/>
    <path id="Layer11_14_MEMBER_425_1_STROKES_2_" class="st0" d="M540.4 276l-1.5-2.9"/>
    <path id="Layer11_14_MEMBER_426_1_STROKES_2_" class="st0" d="M543.7 264.1c-.3-.7-.9-1-1.7-1-.7 0-1.2.3-1.6 1"/>
    <path id="Layer11_14_MEMBER_427_1_STROKES_2_" class="st0" d="M545.1 267h-6.2"/>
    <path id="Layer11_14_MEMBER_428_1_STROKES_2_" class="st0" d="M543.7 264.1l1.3 2.8"/>
    <path id="Layer11_14_MEMBER_429_1_STROKES_2_" class="st0" d="M540.4 264.1l-1.5 2.9"/>
    <path id="Layer11_14_MEMBER_430_1_STROKES_2_" class="st0" d="M545 267v6.1"/>
    <path id="Layer11_14_MEMBER_431_1_STROKES_2_" class="st0" d="M538.9 267v6"/>
    <path id="Layer11_14_MEMBER_432_1_STROKES_2_" class="st0" d="M560.5 277.5c0-.5-.2-.9-.5-1.3-.3-.3-.8-.5-1.3-.5s-.9.2-1.3.5c-.3.4-.5.8-.5 1.3s.2.9.5 1.2c.4.4.8.6 1.3.6s.9-.2 1.3-.6c.3-.3.5-.7.5-1.2z"/>
    <path id="Layer11_14_MEMBER_433_1_STROKES_2_" class="st0" d="M552.5 275.6c-.6.4-1 .9-1 1.6 0 .8.3 1.4 1 1.7"/>
    <path id="Layer11_14_MEMBER_434_1_STROKES_2_" class="st0" d="M555.4 280.4v-6.2"/>
    <path id="Layer11_14_MEMBER_435_1_STROKES_2_" class="st0" d="M552.6 279l2.8 1.3"/>
    <path id="Layer11_14_MEMBER_436_1_STROKES_2_" class="st0" d="M552.5 275.6l2.9-1.5"/>
    <path id="Layer11_14_MEMBER_437_1_STROKES_2_" class="st0" d="M565.3 277.4c0-.7-.3-1.2-1-1.6"/>
    <path id="Layer11_14_MEMBER_438_1_STROKES_2_" class="st0" d="M564.3 279c.7-.3 1-.9 1-1.7"/>
    <path id="Layer11_14_MEMBER_439_1_STROKES_2_" class="st0" d="M561.4 280.4v-6.2"/>
    <path id="Layer11_14_MEMBER_440_1_STROKES_2_" class="st0" d="M564.3 279l-2.9 1.3"/>
    <path id="Layer11_14_MEMBER_441_1_STROKES_2_" class="st0" d="M564.4 275.6l-2.9-1.5"/>
    <path id="Layer11_14_MEMBER_442_1_STROKES_2_" class="st0" d="M561.4 280.4h-6"/>
    <path id="Layer11_14_MEMBER_443_1_STROKES_2_" class="st0" d="M561.4 274.2h-6"/>
    <path id="Layer11_14_MEMBER_444_1_STROKES_2_" class="st0" d="M586.1 277.5c0-.5-.2-.9-.5-1.3-.3-.3-.8-.5-1.3-.5s-.9.2-1.3.5c-.3.4-.5.8-.5 1.3s.2.9.5 1.2c.4.4.8.6 1.3.6s.9-.2 1.3-.6c.4-.3.5-.7.5-1.2z"/>
    <path id="Layer11_14_MEMBER_445_1_STROKES_2_" class="st0" d="M578.1 275.6c-.6.4-1 .9-1 1.6 0 .8.4 1.3 1.1 1.7"/>
    <path id="Layer11_14_MEMBER_446_1_STROKES_2_" class="st0" d="M581.1 280.4v-6.2"/>
    <path id="Layer11_14_MEMBER_447_1_STROKES_2_" class="st0" d="M578.3 279l2.8 1.3"/>
    <path id="Layer11_14_MEMBER_448_1_STROKES_2_" class="st0" d="M578.1 275.6l3-1.5"/>
    <path id="Layer11_14_MEMBER_449_1_STROKES_2_" class="st0" d="M591 277.4c0-.7-.3-1.2-1-1.6"/>
    <path id="Layer11_14_MEMBER_450_1_STROKES_2_" class="st0" d="M589.9 279c.7-.3 1.1-.9 1.1-1.7"/>
    <path id="Layer11_14_MEMBER_451_1_STROKES_2_" class="st0" d="M587.1 280.4v-6.2"/>
    <path id="Layer11_14_MEMBER_452_1_STROKES_2_" class="st0" d="M589.9 279l-2.8 1.3"/>
    <path id="Layer11_14_MEMBER_453_1_STROKES_2_" class="st0" d="M590.1 275.6l-3-1.5"/>
    <path id="Layer11_14_MEMBER_454_1_STROKES_2_" class="st0" d="M587.2 280.4h-6.1"/>
    <path id="Layer11_14_MEMBER_455_1_STROKES_2_" class="st0" d="M587.2 274.2h-6"/>
    <path id="Layer11_14_MEMBER_456_1_STROKES_2_" class="st0" d="M560.5 330c0-.5-.2-.9-.5-1.3-.3-.3-.8-.5-1.3-.5s-.9.2-1.3.5c-.3.4-.5.8-.5 1.3s.2 1 .5 1.3c.4.3.8.5 1.3.5s1-.2 1.3-.5c.3-.3.5-.7.5-1.3z"/>
    <path id="Layer11_14_MEMBER_457_1_STROKES_2_" class="st0" d="M552.6 328.5c-.7.3-1 .8-1 1.6s.3 1.3 1 1.6"/>
    <path id="Layer11_14_MEMBER_458_1_STROKES_2_" class="st0" d="M555.4 327v6.2"/>
    <path id="Layer11_14_MEMBER_459_1_STROKES_2_" class="st0" d="M552.6 328.5l2.8-1.3"/>
    <path id="Layer11_14_MEMBER_460_1_STROKES_2_" class="st0" d="M552.5 331.6l2.9 1.5"/>
    <path id="Layer11_14_MEMBER_461_1_STROKES_2_" class="st0" d="M565.3 330.1c0-.7-.3-1.3-1-1.6"/>
    <path id="Layer11_14_MEMBER_462_1_STROKES_2_" class="st0" d="M564.4 331.6c.6-.3 1-.8 1-1.6"/>
    <path id="Layer11_14_MEMBER_463_1_STROKES_2_" class="st0" d="M561.4 327v6.2"/>
    <path id="Layer11_14_MEMBER_464_1_STROKES_2_" class="st0" d="M564.3 328.5l-2.9-1.3"/>
    <path id="Layer11_14_MEMBER_465_1_STROKES_2_" class="st0" d="M564.4 331.6l-2.9 1.5"/>
    <path id="Layer11_14_MEMBER_466_1_STROKES_2_" class="st0" d="M561.4 327.1h-6"/>
    <path id="Layer11_14_MEMBER_467_1_STROKES_2_" class="st0" d="M561.4 333.1h-6"/>
    <path id="Layer11_14_MEMBER_468_1_STROKES_2_" class="st0" d="M586.1 330c0-.5-.2-.9-.5-1.3-.3-.3-.8-.5-1.3-.5s-.9.2-1.3.5c-.3.4-.5.8-.5 1.3s.2 1 .5 1.3c.4.3.8.5 1.3.5s1-.2 1.3-.5c.4-.3.5-.7.5-1.3z"/>
    <path id="Layer11_14_MEMBER_469_1_STROKES_2_" class="st0" d="M578.3 328.5c-.7.3-1.1.9-1.1 1.6 0 .8.3 1.3 1 1.6"/>
    <path id="Layer11_14_MEMBER_470_1_STROKES_2_" class="st0" d="M581.1 327v6.2"/>
    <path id="Layer11_14_MEMBER_471_1_STROKES_2_" class="st0" d="M578.3 328.5l2.8-1.3"/>
    <path id="Layer11_14_MEMBER_472_1_STROKES_2_" class="st0" d="M578.1 331.6l3 1.5"/>
    <path id="Layer11_14_MEMBER_473_1_STROKES_2_" class="st0" d="M591 330.1c0-.7-.4-1.3-1.1-1.6"/>
    <path id="Layer11_14_MEMBER_474_1_STROKES_2_" class="st0" d="M590.1 331.6c.6-.3 1-.8 1-1.6"/>
    <path id="Layer11_14_MEMBER_475_1_STROKES_2_" class="st0" d="M587.1 327v6.2"/>
    <path id="Layer11_14_MEMBER_476_1_STROKES_2_" class="st0" d="M589.9 328.5l-2.8-1.3"/>
    <path id="Layer11_14_MEMBER_477_1_STROKES_2_" class="st0" d="M590.1 331.6l-3 1.5"/>
    <path id="Layer11_14_MEMBER_478_1_STROKES_2_" class="st0" d="M587.2 327.1h-6.1"/>
    <path id="Layer11_14_MEMBER_479_1_STROKES_2_" class="st0" d="M587.2 333.1h-6"/>
    <path id="Layer11_14_MEMBER_480_1_STROKES_2_" class="st0" d="M614.6 219.9c-.3 0-1 .1-1.8.4-1 .3-1.7.4-2.1.4l-171.3.2"/>
    <path id="Layer11_14_MEMBER_481_1_STROKES_2_" class="st0" d="M683.5 320.5c0-3-1.1-5.5-3.2-7.5-2.1-2.1-4.6-3.2-7.5-3.2-2 0-3.8.5-5.4 1.5-1.7 1-3 2.4-4 4.1"/>
    <path id="Layer11_14_MEMBER_482_1_STROKES_2_" class="st0" d="M663.4 325.6c1 1.7 2.3 3.1 4 4.1 1.7 1 3.5 1.5 5.4 1.5 3 0 5.5-1.1 7.5-3.2 2.1-2.1 3.2-4.6 3.2-7.5"/>
    <path id="Layer11_14_MEMBER_483_1_STROKES_2_" class="st0" d="M663.4 315.4v10.3"/>
    <path id="Layer11_14_MEMBER_484_1_STROKES_2_" class="st0" d="M662.2 315.4c-.9-1.7-2.2-3.1-4-4.1-1.7-1-3.5-1.5-5.4-1.5-3 0-5.5 1.1-7.5 3.2-2.1 2.1-3.2 4.6-3.2 7.5 0 3 1.1 5.5 3.2 7.5 2.1 2.1 4.6 3.2 7.5 3.2 2 0 3.8-.5 5.4-1.5 1.7-1 3-2.4 4-4.1"/>
    <path id="Layer11_14_MEMBER_485_1_STROKES_2_" class="st0" d="M662.2 315.4v10.3"/>
    <path id="Layer11_14_MEMBER_486_1_STROKES_2_" class="st0" d="M688.6 333.8h-51.7V307h51.7v26.8z"/>
    <path id="Layer11_14_MEMBER_487_1_STROKES_2_" class="st0" d="M646.6 223.3h-4.4"/>
    <path id="Layer11_14_MEMBER_488_1_STROKES_2_" class="st1" d="M634.3 221.3v4.5"/>
    <path id="Layer11_14_MEMBER_489_1_STROKES_2_" class="st1" d="M642.2 221.3v4.5"/>
    <path id="Layer11_14_MEMBER_490_1_STROKES_2_" class="st1" d="M629.6 220.1v1.2"/>
    <path id="Layer11_14_MEMBER_491_1_STROKES_2_" class="st1" d="M646.9 221.3h-17.4"/>
    <path id="Layer11_14_MEMBER_492_1_STROKES_2_" class="st1" d="M642.2 225.9h-7.9"/>
    <path id="Layer11_14_MEMBER_493_1_STROKES_2_" class="st1" d="M647 220.1v1.3"/>
    <path id="Layer11_14_MEMBER_494_1_STROKES_2_" class="st1" d="M476 220.8v1.3"/>
    <path id="Layer11_14_MEMBER_495_1_STROKES_2_" class="st1" d="M493.5 220.8v1.3"/>
    <path id="Layer11_14_MEMBER_496_1_STROKES_2_" class="st0" d="M322.9 223.5h4"/>
    <path id="Layer11_14_MEMBER_497_1_STROKES_2_" class="st1" d="M335.1 221.3v4.5"/>
    <path id="Layer11_14_MEMBER_498_1_STROKES_2_" class="st1" d="M327.2 221.3v4.5"/>
    <path id="Layer11_14_MEMBER_499_1_STROKES_2_" class="st1" d="M339.8 220.1v1.2"/>
    <path id="Layer11_14_MEMBER_500_1_STROKES_2_" class="st1" d="M322.4 221.3h17.4"/>
    <path id="Layer11_14_MEMBER_501_1_STROKES_2_" class="st1" d="M327.2 225.9h7.9"/>
    <path id="Layer11_14_MEMBER_502_1_STROKES_2_" class="st1" d="M322.3 220.1v1.3"/>
    <path id="Layer11_14_MEMBER_503_1_STROKES_2_" class="st1" d="M295.9 225.1l1.2 4.3"/>
    <path id="Layer11_14_MEMBER_504_1_STROKES_2_" class="st1" d="M288.3 227.3l1.2 4.3"/>
    <path id="Layer11_14_MEMBER_505_1_STROKES_2_" class="st1" d="M300 222.6l.4 1.2"/>
    <path id="Layer11_14_MEMBER_506_1_STROKES_2_" class="st1" d="M283.8 228.6l16.6-4.8"/>
    <path id="Layer11_14_MEMBER_507_1_STROKES_2_" class="st1" d="M289.6 231.6l7.5-2.2"/>
    <path id="Layer11_14_MEMBER_508_1_STROKES_2_" class="st1" d="M283.4 227.4l.4 1.2"/>
    <path id="Layer11_14_MEMBER_509_1_STROKES_2_" class="st1" d="M260.3 241.6l2.6 3.5"/>
    <path id="Layer11_14_MEMBER_510_1_STROKES_2_" class="st1" d="M254.1 246.3l2.6 3.6"/>
    <path id="Layer11_14_MEMBER_511_1_STROKES_2_" class="st1" d="M263.3 237.8l.7 1"/>
    <path id="Layer11_14_MEMBER_512_1_STROKES_2_" class="st1" d="M250.3 249.2l13.8-10.4"/>
    <path id="Layer11_14_MEMBER_513_1_STROKES_2_" class="st1" d="M256.7 249.8l6.2-4.7"/>
    <path id="Layer11_14_MEMBER_514_1_STROKES_2_" class="st1" d="M249.5 248.2l.8 1"/>
    <path id="Layer11_14_MEMBER_515_1_STROKES_2_" class="st1" d="M233 269.6l3.8 2.3"/>
    <path id="Layer11_14_MEMBER_516_1_STROKES_2_" class="st1" d="M229 276.2l3.9 2.3"/>
    <path id="Layer11_14_MEMBER_517_1_STROKES_2_" class="st1" d="M234.3 265l1.1.7"/>
    <path id="Layer11_14_MEMBER_518_1_STROKES_2_" class="st1" d="M226.6 280.4l8.9-14.7"/>
    <path id="Layer11_14_MEMBER_519_1_STROKES_2_" class="st1" d="M232.8 278.6l4-6.7"/>
    <path id="Layer11_14_MEMBER_520_1_STROKES_2_" class="st1" d="M225.5 279.8l1.1.7"/>
    <path id="Layer11_14_MEMBER_521_1_STROKES_2_" class="st1" d="M217.2 305.2l4.4.8"/>
    <path id="Layer11_14_MEMBER_522_1_STROKES_2_" class="st1" d="M215.8 313l4.4.8"/>
    <path id="Layer11_14_MEMBER_523_1_STROKES_2_" class="st1" d="M217 300.4l1.2.3"/>
    <path id="Layer11_14_MEMBER_524_1_STROKES_2_" class="st1" d="M214.9 317.6l3.3-16.9"/>
    <path id="Layer11_14_MEMBER_525_1_STROKES_2_" class="st1" d="M220.2 313.8l1.5-7.7"/>
    <path id="Layer11_14_MEMBER_526_1_STROKES_2_" class="st1" d="M213.6 317.4l1.3.3"/>
    <path id="Layer11_14_MEMBER_527_1_STROKES_2_" class="st1" d="M213.9 344.6h4.5"/>
    <path id="Layer11_14_MEMBER_528_1_STROKES_2_" class="st1" d="M213.9 352.5h4.5"/>
    <path id="Layer11_14_MEMBER_529_1_STROKES_2_" class="st1" d="M212.7 339.9h1.2"/>
    <path id="Layer11_14_MEMBER_530_1_STROKES_2_" class="st1" d="M213.9 357.1v-17.3"/>
    <path id="Layer11_14_MEMBER_531_1_STROKES_2_" class="st1" d="M218.4 352.5v-7.8"/>
    <path id="Layer11_14_MEMBER_532_1_STROKES_2_" class="st1" d="M212.7 357.1h1.3"/>
    <path id="Layer11_14_MEMBER_533_1_STROKES_2_" class="st1" d="M213.9 384.9h4.5"/>
    <path id="Layer11_14_MEMBER_534_1_STROKES_2_" class="st1" d="M213.9 392.6h4.5"/>
    <path id="Layer11_14_MEMBER_535_1_STROKES_2_" class="st1" d="M212.6 380.1h1.3"/>
    <path id="Layer11_14_MEMBER_536_1_STROKES_2_" class="st1" d="M213.9 397.5v-17.3"/>
    <path id="Layer11_14_MEMBER_537_1_STROKES_2_" class="st1" d="M218.3 392.6v-7.8"/>
    <path id="Layer11_14_MEMBER_538_1_STROKES_2_" class="st1" d="M212.6 397.5h1.3"/>
    <path id="Layer11_14_MEMBER_539_1_STROKES_2_" class="st1" d="M214.1 424.6h4.5"/>
    <path id="Layer11_14_MEMBER_540_1_STROKES_2_" class="st1" d="M214.1 432.4h4.5"/>
    <path id="Layer11_14_MEMBER_541_1_STROKES_2_" class="st1" d="M212.8 419.9h1.3"/>
    <path id="Layer11_14_MEMBER_542_1_STROKES_2_" class="st1" d="M214.1 437.1v-17.3"/>
    <path id="Layer11_14_MEMBER_543_1_STROKES_2_" class="st1" d="M218.5 432.4v-7.8"/>
    <path id="Layer11_14_MEMBER_544_1_STROKES_2_" class="st1" d="M212.8 437.1h1.3"/>
    <path id="Layer11_14_MEMBER_545_1_STROKES_2_" class="st1" d="M480.8 222.1v4.5"/>
    <path id="Layer11_14_MEMBER_546_1_STROKES_2_" class="st1" d="M488.7 222.1v4.5"/>
    <path id="Layer11_14_MEMBER_547_1_STROKES_2_" class="st1" d="M493.4 222.1H476"/>
    <path id="Layer11_14_MEMBER_548_1_STROKES_2_" class="st1" d="M488.7 226.6h-7.9"/>
    <path id="Layer11_14_MEMBER_549_1_STROKES_2_" class="st1" d="M673.5 225.1l-1.2 4.3"/>
    <path id="Layer11_14_MEMBER_550_1_STROKES_2_" class="st1" d="M681 227.3l-1.2 4.3"/>
    <path id="Layer11_14_MEMBER_551_1_STROKES_2_" class="st1" d="M669.3 222.6l-.3 1.2"/>
    <path id="Layer11_14_MEMBER_552_1_STROKES_2_" class="st1" d="M685.6 228.6l-16.6-4.8"/>
    <path id="Layer11_14_MEMBER_553_1_STROKES_2_" class="st1" d="M679.8 231.6l-7.5-2.2"/>
    <path id="Layer11_14_MEMBER_554_1_STROKES_2_" class="st1" d="M686 227.4l-.4 1.2"/>
    <path id="Layer11_14_MEMBER_555_1_STROKES_2_" class="st1" d="M709 241.6l-2.6 3.5"/>
    <path id="Layer11_14_MEMBER_556_1_STROKES_2_" class="st1" d="M715.3 246.3l-2.7 3.6"/>
    <path id="Layer11_14_MEMBER_557_1_STROKES_2_" class="st1" d="M706 237.8l-.7 1"/>
    <path id="Layer11_14_MEMBER_558_1_STROKES_2_" class="st1" d="M719.1 249.2l-13.8-10.4"/>
    <path id="Layer11_14_MEMBER_559_1_STROKES_2_" class="st1" d="M712.6 249.8l-6.2-4.7"/>
    <path id="Layer11_14_MEMBER_560_1_STROKES_2_" class="st1" d="M719.9 248.2l-.8 1"/>
    <path id="Layer11_14_MEMBER_561_1_STROKES_2_" class="st1" d="M736.3 269.6l-3.8 2.3"/>
    <path id="Layer11_14_MEMBER_562_1_STROKES_2_" class="st1" d="M740.4 276.2l-3.8 2.3"/>
    <path id="Layer11_14_MEMBER_563_1_STROKES_2_" class="st1" d="M735 265l-1.1.7"/>
    <path id="Layer11_14_MEMBER_564_1_STROKES_2_" class="st1" d="M742.8 280.4l-8.9-14.7"/>
    <path id="Layer11_14_MEMBER_565_1_STROKES_2_" class="st1" d="M736.6 278.6l-4-6.7"/>
    <path id="Layer11_14_MEMBER_566_1_STROKES_2_" class="st1" d="M743.9 279.8l-1.1.7"/>
    <path id="Layer11_14_MEMBER_567_1_STROKES_2_" class="st1" d="M752.1 305.2l-4.4.8"/>
    <path id="Layer11_14_MEMBER_568_1_STROKES_2_" class="st1" d="M753.6 313l-4.4.8"/>
    <path id="Layer11_14_MEMBER_569_1_STROKES_2_" class="st1" d="M752.5 300.4l-1.2.3"/>
    <path id="Layer11_14_MEMBER_570_1_STROKES_2_" class="st1" d="M754.4 317.6l-3.2-16.9"/>
    <path id="Layer11_14_MEMBER_571_1_STROKES_2_" class="st1" d="M749.2 313.8l-1.5-7.7"/>
    <path id="Layer11_14_MEMBER_572_1_STROKES_2_" class="st1" d="M755.8 317.4l-1.3.3"/>
    <path id="Layer11_14_MEMBER_573_1_STROKES_2_" class="st1" d="M755.4 344.6h-4.5"/>
    <path id="Layer11_14_MEMBER_574_1_STROKES_2_" class="st1" d="M755.4 352.5h-4.5"/>
    <path id="Layer11_14_MEMBER_575_1_STROKES_2_" class="st1" d="M756.6 339.9h-1.2"/>
    <path id="Layer11_14_MEMBER_576_1_STROKES_2_" class="st1" d="M755.4 357.1v-17.3"/>
    <path id="Layer11_14_MEMBER_577_1_STROKES_2_" class="st1" d="M750.9 352.5v-7.8"/>
    <path id="Layer11_14_MEMBER_578_1_STROKES_2_" class="st1" d="M756.6 357.1h-1.2"/>
    <path id="Layer11_14_MEMBER_579_1_STROKES_2_" class="st1" d="M755.5 384.9h-4.4"/>
    <path id="Layer11_14_MEMBER_580_1_STROKES_2_" class="st1" d="M755.5 392.6H751"/>
    <path id="Layer11_14_MEMBER_581_1_STROKES_2_" class="st1" d="M756.8 380.1h-1.3"/>
    <path id="Layer11_14_MEMBER_582_1_STROKES_2_" class="st1" d="M755.5 397.5v-17.3"/>
    <path id="Layer11_14_MEMBER_583_1_STROKES_2_" class="st1" d="M751.1 392.6v-7.8"/>
    <path id="Layer11_14_MEMBER_584_1_STROKES_2_" class="st1" d="M756.8 397.5h-1.3"/>
    <path id="Layer11_14_MEMBER_585_1_STROKES_2_" class="st1" d="M755.3 424.6h-4.4"/>
    <path id="Layer11_14_MEMBER_586_1_STROKES_2_" class="st1" d="M755.3 432.4h-4.5"/>
    <path id="Layer11_14_MEMBER_587_1_STROKES_2_" class="st1" d="M756.6 419.9h-1.3"/>
    <path id="Layer11_14_MEMBER_588_1_STROKES_2_" class="st1" d="M755.3 437.1v-17.3"/>
    <path id="Layer11_14_MEMBER_589_1_STROKES_2_" class="st1" d="M750.9 432.4v-7.8"/>
    <path id="Layer11_14_MEMBER_590_1_STROKES_2_" class="st1" d="M756.6 437.1h-1.3"/>
    <path id="Layer11_14_MEMBER_591_1_STROKES_2_" class="st2" d="M277.6 358.4c0-1.8-.4-3.5-1.3-5s-2.2-2.7-3.7-3.6"/>
    <path id="Layer11_14_MEMBER_592_1_STROKES_2_" class="st2" d="M263.1 349.8c-1.6.9-2.8 2.1-3.7 3.6-.9 1.5-1.3 3.2-1.3 5 0 2.7 1 5 2.9 6.8 1.9 1.9 4.1 2.9 6.8 2.9s5-1 6.9-2.9 2.9-4.1 2.9-6.8"/>
    <path id="Layer11_14_MEMBER_593_1_STROKES_2_" class="st2" d="M263.1 349.8h9.4"/>
    <path id="Layer11_14_MEMBER_594_1_STROKES_2_" class="st3" d="M350.3 359.2c0-1.8-.4-3.5-1.3-5s-2.1-2.7-3.7-3.5"/>
    <path id="Layer11_14_MEMBER_595_1_STROKES_2_" class="st3" d="M336 350.8c-1.6.8-2.8 2-3.7 3.5-.9 1.5-1.3 3.2-1.3 5 0 2.7 1 5 2.9 6.9s4.2 2.9 6.9 2.9 5-1 6.8-2.9c1.9-1.9 2.9-4.2 2.9-6.9"/>
    <path id="Layer11_14_MEMBER_596_1_STROKES_2_" class="st3" d="M336 350.8h9.4"/>
    <path id="Layer11_14_MEMBER_597_1_STROKES_2_" class="st4" d="M216 438l540.2-.2"/>
    <path id="Layer11_14_MEMBER_598_1_STROKES_2_" class="st2" d="M718.7 363.6c0-1.8-.4-3.5-1.3-5s-2.2-2.7-3.7-3.5"/>
    <path id="Layer11_14_MEMBER_599_1_STROKES_2_" class="st2" d="M704.3 355.1c-1.6.8-2.8 2-3.7 3.5s-1.3 3.2-1.3 5c0 2.7 1 5 2.9 6.9s4.1 2.9 6.8 2.9 5-1 6.9-2.9 2.9-4.2 2.9-6.9"/>
    <path id="Layer11_14_MEMBER_600_1_STROKES_2_" class="st2" d="M704.3 355.1h9.4"/>
    <path id="Layer11_14_MEMBER_601_1_STROKES_2_" class="st2" d="M351.3 412.1c0-1.8-.5-3.4-1.4-5-.9-1.5-2.1-2.7-3.7-3.5"/>
    <path id="Layer11_14_MEMBER_602_1_STROKES_2_" class="st2" d="M336.9 403.6c-1.6.8-2.8 2-3.7 3.5-.9 1.6-1.4 3.2-1.4 5 0 2.7 1 5 2.9 6.9s4.2 2.9 6.9 2.9 5-1 6.9-2.9 2.9-4.2 2.9-6.9"/>
    <path id="Layer11_14_MEMBER_603_1_STROKES_2_" class="st2" d="M336.9 403.6h9.4"/>
    <path id="Layer11_14_MEMBER_604_1_STROKES_2_" class="st2" d="M696.7 411.6c0-1.8-.5-3.4-1.4-5-.9-1.5-2.1-2.7-3.7-3.6"/>
    <path id="Layer11_14_MEMBER_605_1_STROKES_2_" class="st2" d="M682.2 403.1c-1.6.9-2.8 2.1-3.7 3.6-.9 1.6-1.4 3.2-1.4 5 0 2.7 1 5 2.9 6.8 1.9 1.9 4.2 2.9 6.9 2.9s5-1 6.9-2.9 2.9-4.1 2.9-6.8"/>
    <path id="Layer11_14_MEMBER_606_1_STROKES_2_" class="st2" d="M682.2 403.1h9.4"/>
    <path id="Layer11_14_MEMBER_607_1_STROKES_2_" class="st2" d="M654 412.5c0-1.4-.4-2.8-1.1-4-.7-1.3-1.7-2.2-3-2.9"/>
    <path id="Layer11_14_MEMBER_608_1_STROKES_2_" class="st2" d="M642.3 405.6c-1.2.7-2.2 1.6-3 2.9-.7 1.3-1.1 2.6-1.1 4 0 2.1.8 4 2.3 5.6 1.6 1.6 3.4 2.3 5.6 2.3s4-.8 5.6-2.3c1.6-1.6 2.3-3.4 2.3-5.6"/>
    <path id="Layer11_14_MEMBER_609_1_STROKES_2_" class="st2" d="M642.3 405.6h7.6"/>
    <path class="st5" d="M543.6 241.6h73.7c4.5-7.7 12.8-12.8 22.4-12.8 14.3 0 25.9 11.6 25.9 25.9 0 14.3-11.6 25.9-25.9 25.9-10 0-18.7-5.7-23-14h-73.1c-2.4 0-4.4-2-4.5-4.5v-16c0-2.5 2-4.5 4.5-4.5zm70.3 109.5h71.5c4.3-8.3 13-13.9 23-13.9 14.3 0 25.9 11.6 25.9 25.9S722.7 389 708.4 389c-9.6 0-17.9-5.2-22.4-12.9h-72.1c-2.4 0-4.4-2-4.5-4.5v-16c0-2.5 2-4.5 4.5-4.5zm-61.7 49.5h68.6c4.2-8.7 13.1-14.7 23.4-14.7 14.3 0 25.9 11.6 25.9 25.9s-11.7 26-26 26c-9.3 0-17.4-4.9-22-12.1h-70c-2.4 0-4.4-2-4.5-4.5v-16c.1-2.6 2.1-4.6 4.6-4.6zm-310.6-2.1h76.2c4.5-7.5 12.8-12.6 22.2-12.6 14.3 0 25.9 11.6 25.9 25.9s-11.6 25.9-25.9 25.9c-10.1 0-18.9-5.8-23.1-14.3h-75.3c-2.4 0-4.4-2-4.5-4.5v-16c0-2.4 2-4.4 4.5-4.4zm18.7-123.9c10.1 0 18.9 5.8 23.2 14.3h64.9c2.5 0 4.5 2 4.5 4.5v16c0 2.5-2 4.5-4.5 4.5h-65.8c-4.5 7.5-12.8 12.5-22.2 12.5-14.3 0-25.9-11.6-25.9-25.9s11.5-25.9 25.8-25.9zm69.4-46.6c10.1 0 18.8 5.7 23.1 14.1h73.6c2.5 0 4.5 2 4.5 4.5v16c0 2.5-2 4.5-4.5 4.5H352c-4.5 7.6-12.8 12.7-22.3 12.7-14.3 0-25.9-11.6-25.9-25.9 0-14.2 11.5-25.9 25.9-25.9zm11.1 105.5c9.3 0 17.4 4.9 22 12.2h82.6c2.5 0 4.5 2 4.5 4.5v16c0 2.5-2 4.5-4.5 4.5h-81.3c-4.2 8.7-13.1 14.6-23.3 14.6-14.3 0-25.9-11.6-25.9-25.9s11.6-25.9 25.9-25.9z"/>
    <path class="st5" d="M220.5 367.6H242c-.7-2.4-1.1-4.8-1.1-7.4 0-14.3 11.6-25.9 25.9-25.9s25.9 11.6 25.9 25.9c0 2.6-.4 5.1-1.1 7.4h20.3c2.5 0 4.5 2 4.5 4.5v16c0 2.5-2 4.5-4.5 4.5h-91.5c-2.4 0-4.4-2-4.5-4.5v-16c.1-2.5 2.1-4.5 4.6-4.5z"/>
    <path class="st6" d="M710.4 275.2c-12.8 0-23.5 9.2-25.8 21.3h-61.4c-2.4 0-4.4 2-4.4 4.4V317c0 2.4 2 4.4 4.4 4.4h70.3c4.6 3.8 10.5 6.2 16.9 6.2 14.5 0 26.2-11.7 26.2-26.2s-11.7-26.2-26.2-26.2z"/>
    <path class="st6" d="M751.1 221.1h-77.8c-2.4 0-4.4 2-4.4 4.4v15.2c-7.6 4.6-12.6 12.9-12.6 22.4 0 14.5 11.7 26.2 26.2 26.2s26.2-11.7 26.2-26.2c0-6.5-2.4-12.4-6.3-17H751c2.4 0 4.4-2 4.4-4.4v-16.1c.2-2.5-1.8-4.5-4.3-4.5zm2 204.9h-44.6c2.9-4.2 4.6-9.4 4.6-14.9 0-14.5-11.7-26.2-26.2-26.2s-26.2 11.7-26.2 26.2c0 8.4 4 16 10.2 20.8v14.7c0 2.4 2 4.4 4.4 4.4h77.8c2.4 0 4.4-2 4.4-4.4v-16.1c.1-2.5-1.9-4.5-4.4-4.5zM297.4 240v-16.6c0-2.4-2-4.4-4.4-4.4h-77.8c-2.4 0-4.4 2-4.4 4.4v16.1c0 2.4 2 4.4 4.4 4.4h55.4c-5.8 4.8-9.5 12.1-9.5 20.2 0 14.5 11.7 26.2 26.2 26.2s26.2-11.7 26.2-26.2c0-10.8-6.6-20.1-16.1-24.1z"/>
    <path class="st7" d="M83.1 117h33.3v45.4H83.1z"/>
    <path class="st8" d="M83.1 117v45.4h33.3V117H83.1zm10 10.5c0-1.1.9-1.9 1.9-1.9h9.6c1.1 0 1.9.9 1.9 1.9v16.7c0 1.1-.9 1.9-1.9 1.9H95c-1.1 0-1.9-.9-1.9-1.9v-16.7zm17.3 32.6c0 .6-.5 1.1-1.1 1.1H90.8c-.6 0-1.1-.5-1.1-1.1v-5.8c0-.6.5-1.1 1.1-1.1h18.5c.6 0 1.1.5 1.1 1.1v5.8zM863.1 117v45.4h33.3V117h-33.3zm10 10.5c0-1.1.9-1.9 1.9-1.9h9.6c1.1 0 1.9.9 1.9 1.9v16.7c0 1.1-.9 1.9-1.9 1.9H875c-1.1 0-1.9-.9-1.9-1.9v-16.7zm17.3 32.6c0 .6-.5 1.1-1.1 1.1h-18.5c-.6 0-1.1-.5-1.1-1.1v-5.8c0-.6.5-1.1 1.1-1.1h18.5c.6 0 1.1.5 1.1 1.1v5.8z"/>
    <path class="st7" d="M863.1 117h33.3v45.4h-33.3z"/>
  </g>
  <path id="clp-511-hl" class="st9" d="M552.2 400.6h68.6c4.2-8.7 13.1-14.7 23.4-14.7 14.3 0 25.9 11.6 25.9 25.9s-11.7 26-26 26c-9.3 0-17.4-4.9-22-12.1h-70c-2.4 0-4.4-2-4.5-4.5v-16c.1-2.6 2.1-4.6 4.6-4.6z"/>
  <g id="clp-510">
    <path id="clp-510-hl" class="st9" d="M241.6 398.5h76.2c4.5-7.5 12.8-12.6 22.2-12.6 14.3 0 25.9 11.6 25.9 25.9s-11.6 25.9-25.9 25.9c-10.1 0-18.9-5.8-23.1-14.3h-75.3c-2.4 0-4.4-2-4.5-4.5v-16c0-2.4 2-4.4 4.5-4.4z"/>
  </g>
  <g id="clp-509">
    <path id="clp-509-hl" class="st9" d="M753.1 426h-44.6c2.9-4.2 4.6-9.4 4.6-14.9 0-14.5-11.7-26.2-26.2-26.2s-26.2 11.7-26.2 26.2c0 8.4 4 16 10.2 20.8v14.7c0 2.4 2 4.4 4.4 4.4h77.8c2.4 0 4.4-2 4.4-4.4v-16.1c.1-2.5-1.9-4.5-4.4-4.5z"/>
  </g>
  <g id="clp-508">
    <path id="clp-508-hl" class="st9" d="M340.8 333.5c9.3 0 17.4 4.9 22 12.2h82.6c2.5 0 4.5 2 4.5 4.5v16c0 2.5-2 4.5-4.5 4.5h-81.3c-4.2 8.7-13.1 14.6-23.3 14.6-14.3 0-25.9-11.6-25.9-25.9s11.6-25.9 25.9-25.9z"/>
  </g>
  <g id="clp-507">
    <path id="clp-507-hl" class="st9" d="M613.9 351.1h71.5c4.3-8.3 13-13.9 23-13.9 14.3 0 25.9 11.6 25.9 25.9S722.7 389 708.4 389c-9.6 0-17.9-5.2-22.4-12.9h-72.1c-2.4 0-4.4-2-4.5-4.5v-16c0-2.5 2-4.5 4.5-4.5z"/>
  </g>
  <g id="clp-506">
    <path id="clp-506-hl" class="st9" d="M220.5 367.6H242c-.7-2.4-1.1-4.8-1.1-7.4 0-14.3 11.6-25.9 25.9-25.9s25.9 11.6 25.9 25.9c0 2.6-.4 5.1-1.1 7.4h20.3c2.5 0 4.5 2 4.5 4.5v16c0 2.5-2 4.5-4.5 4.5h-91.5c-2.4 0-4.4-2-4.5-4.5v-16c.1-2.5 2.1-4.5 4.6-4.5z"/>
  </g>
  <g id="clp-505">
    <path id="clp-505-hl" class="st9" d="M710.4 275.2c-12.8 0-23.5 9.2-25.8 21.3h-61.4c-2.4 0-4.4 2-4.4 4.4V317c0 2.4 2 4.4 4.4 4.4h70.3c4.6 3.8 10.5 6.2 16.9 6.2 14.5 0 26.2-11.7 26.2-26.2s-11.7-26.2-26.2-26.2z"/>
  </g>
  <g id="clp-504">
    <path id="clp-504-hl" class="st9" d="M260.3 274.6c10.1 0 18.9 5.8 23.2 14.3h64.9c2.5 0 4.5 2 4.5 4.5v16c0 2.5-2 4.5-4.5 4.5h-65.8c-4.5 7.5-12.8 12.5-22.2 12.5-14.3 0-25.9-11.6-25.9-25.9s11.5-25.9 25.8-25.9z"/>
  </g>
  <g id="clp-503">
    <path id="clp-503-hl" class="st9" d="M543.6 241.6h73.7c4.5-7.7 12.8-12.8 22.4-12.8 14.3 0 25.9 11.6 25.9 25.9 0 14.3-11.6 25.9-25.9 25.9-10 0-18.7-5.7-23-14h-73.1c-2.4 0-4.4-2-4.5-4.5v-16c0-2.5 2-4.5 4.5-4.5z"/>
  </g>
  <g id="clp-502">
    <path id="clp-502-hl" class="st9" d="M329.7 228c10.1 0 18.8 5.7 23.1 14.1h73.6c2.5 0 4.5 2 4.5 4.5v16c0 2.5-2 4.5-4.5 4.5H352c-4.5 7.6-12.8 12.7-22.3 12.7-14.3 0-25.9-11.6-25.9-25.9 0-14.2 11.5-25.9 25.9-25.9z"/>
  </g>
  <g id="clp-501">
    <path id="clp-501-hl" class="st9" d="M751.1 221.1h-77.8c-2.4 0-4.4 2-4.4 4.4v15.2c-7.6 4.6-12.6 12.9-12.6 22.4 0 14.5 11.7 26.2 26.2 26.2s26.2-11.7 26.2-26.2c0-6.5-2.4-12.4-6.3-17H751c2.4 0 4.4-2 4.4-4.4v-16.1c.2-2.5-1.8-4.5-4.3-4.5z"/>
  </g>
  <g id="clp-500">
    <path id="clp-500-hl" class="st9" d="M297.4 240v-16.6c0-2.4-2-4.4-4.4-4.4h-77.8c-2.4 0-4.4 2-4.4 4.4v16.1c0 2.4 2 4.4 4.4 4.4h55.4c-5.8 4.8-9.5 12.1-9.5 20.2 0 14.5 11.7 26.2 26.2 26.2s26.2-11.7 26.2-26.2c0-10.8-6.6-20.1-16.1-24.1z"/>
  </g>
  <g id="clp-412et">
    <path id="clp-412et-hl" class="st10" d="M69.8 176.9H23.6c-1.6 0-2.9-1.3-2.9-2.9v-17.6c0-1.6 1.3-2.9 2.9-2.9h46.3c1.6 0 2.9 1.3 2.9 2.9V174c0 1.6-1.4 2.9-3 2.9zm40.6-16.8v-5.8c0-.6-.5-1.1-1.1-1.1H90.8c-.6 0-1.1.5-1.1 1.1v5.8c0 .6.5 1.1 1.1 1.1h18.5c.6 0 1.1-.5 1.1-1.1z"/>
  </g>
  <g id="clp-412dt">
    <path id="clp-412dt-hl" class="st10" d="M70.6 121.2H24.3c-1.6 0-2.9-1.3-2.9-2.9v-17.6c0-1.6 1.3-2.9 2.9-2.9h46.3c1.6 0 2.9 1.3 2.9 2.9v17.6c0 1.6-1.3 2.9-2.9 2.9zm36 23v-16.7c0-1.1-.9-1.9-1.9-1.9H95c-1.1 0-1.9.9-1.9 1.9v16.7c0 1.1.9 1.9 1.9 1.9h9.6c1.1.1 2-.8 2-1.9z"/>
  </g>
  <g id="clp-412ct">
    <path id="clp-412ct-hl" class="st10" d="M178.7 143.9h-46.3c-1.6 0-2.9-1.3-2.9-2.9v-17.6c0-1.6 1.3-2.9 2.9-2.9h46.3c1.6 0 2.9 1.3 2.9 2.9V141c.1 1.6-1.3 2.9-2.9 2.9zM83.1 117v45.4h33.3V117H83.1zm10 10.5c0-1.1.9-1.9 1.9-1.9h9.6c1.1 0 1.9.9 1.9 1.9v16.7c0 1.1-.9 1.9-1.9 1.9H95c-1.1 0-1.9-.9-1.9-1.9v-16.7zm17.3 32.6c0 .6-.5 1.1-1.1 1.1H90.8c-.6 0-1.1-.5-1.1-1.1v-5.8c0-.6.5-1.1 1.1-1.1h18.5c.6 0 1.1.5 1.1 1.1v5.8z"/>
  </g>
  <g id="clp-422et">
    <path id="clp-422et-hl" class="st10" d="M849.8 176.9h-46.2c-1.6 0-2.9-1.3-2.9-2.9v-17.6c0-1.6 1.3-2.9 2.9-2.9h46.3c1.6 0 2.9 1.3 2.9 2.9V174c0 1.6-1.4 2.9-3 2.9zm40.6-16.8v-5.8c0-.6-.5-1.1-1.1-1.1h-18.5c-.6 0-1.1.5-1.1 1.1v5.8c0 .6.5 1.1 1.1 1.1h18.5c.6 0 1.1-.5 1.1-1.1z"/>
  </g>
  <g id="clp-422dt">
    <path id="clp-422dt-hl" class="st10" d="M850.6 121.2h-46.3c-1.6 0-2.9-1.3-2.9-2.9v-17.6c0-1.6 1.3-2.9 2.9-2.9h46.3c1.6 0 2.9 1.3 2.9 2.9v17.6c0 1.6-1.3 2.9-2.9 2.9zm36 23v-16.7c0-1.1-.9-1.9-1.9-1.9H875c-1.1 0-1.9.9-1.9 1.9v16.7c0 1.1.9 1.9 1.9 1.9h9.6c1.1.1 2-.8 2-1.9z"/>
  </g>
  <g id="clp-422ct">
    <path id="clp-422ct-hl" class="st10" d="M958.7 143.9h-46.3c-1.6 0-2.9-1.3-2.9-2.9v-17.6c0-1.6 1.3-2.9 2.9-2.9h46.3c1.6 0 2.9 1.3 2.9 2.9V141c.1 1.6-1.3 2.9-2.9 2.9zM863.1 117v45.4h33.3V117h-33.3zm10 10.5c0-1.1.9-1.9 1.9-1.9h9.6c1.1 0 1.9.9 1.9 1.9v16.7c0 1.1-.9 1.9-1.9 1.9H875c-1.1 0-1.9-.9-1.9-1.9v-16.7zm17.3 32.6c0 .6-.5 1.1-1.1 1.1h-18.5c-.6 0-1.1-.5-1.1-1.1v-5.8c0-.6.5-1.1 1.1-1.1h18.5c.6 0 1.1.5 1.1 1.1v5.8z"/>
  </g>
  <g id="clp-system">
    <path class="st11" d="M562.3 214.2h-123c-3.2 0-5.9-2.6-5.9-5.9v-35.7c0-3.2 2.6-5.9 5.9-5.9h123c3.2 0 5.9 2.6 5.9 5.9v35.7c.1 3.3-2.7 5.9-5.9 5.9z"/>
    <defs>
      <path id="SVGID_1_" d="M443.6 171.5h114.5v39.8H443.6z"/>
    </defs>
    <clipPath id="SVGID_2_">
      <use xlink:href="#SVGID_1_" overflow="visible"/>
    </clipPath>
    <g class="st12">
      <text transform="translate(445.734 187.598)" class="st13 st14 st15">
        VIEW LOOKING
      </text>
    </g>
    <defs>
      <path id="SVGID_3_" d="M443.6 171.5h114.5v39.8H443.6z"/>
    </defs>
    <clipPath id="SVGID_4_">
      <use xlink:href="#SVGID_3_" overflow="visible"/>
    </clipPath>
    <g class="st16">
      <text transform="translate(487.784 206.498)" class="st13 st14 st15">
        AFT
      </text>
    </g>
    <path class="st17" d="M588.8 208.2l19.1-16.8c.6-.5.6-1.5 0-2l-19.1-16.7c-.9-.8-2.2-.1-2.2 1v3.6c0 .7-.6 1.3-1.3 1.3h-13.7c-.7 0-1.3.6-1.3 1.3v20.9c0 .7.6 1.3 1.3 1.3h13.7c.7 0 1.3.6 1.3 1.3v3.6c0 1.3 1.3 1.9 2.2 1.2z"/>
    <text transform="translate(571.834 197.52)" class="st6 st14 st18">
      RH
    </text>
    <path class="st17" d="M416.3 202.2h14.1c.6 0 1.1-.5 1.1-1.1v-21.2c0-.6-.5-1.1-1.1-1.1h-14.1c-.6 0-1.1-.5-1.1-1.1v-4.3c0-1-1.1-1.5-1.9-.9l-19.6 17.1c-.5.5-.5 1.3 0 1.7l19.6 17.2c.7.6 1.9.1 1.9-.9v-4.3c-.1-.6.4-1.1 1.1-1.1z"/>
    <text transform="translate(404.283 197.518)" class="st6 st14 st18">
      LH
    </text>
    <text transform="translate(218.85 236.35)" class="st13 st14 st15">
      P500/P600
    </text>
    <text transform="translate(353.855 259.054)" class="st13 st14 st15">
      P502/P602
    </text>
    <text transform="translate(279.552 306.025)" class="st13 st14 st15">
      P504/P604
    </text>
    <text transform="translate(619.028 367.802)" class="st13 st14 st15">
      P507/P607
    </text>
    <text transform="translate(680.822 443.832)" class="st13 st14 st15">
      P509/P609
    </text>
    <text transform="translate(558.135 418.402)" class="st13 st14 st15">
      P511/P611
    </text>
    <text transform="translate(674.5 238.066)" class="st13 st14 st15">
      J501/J601
    </text>
    <text transform="translate(549.539 258.698)" class="st13 st14 st15">
      J503/J603
    </text>
    <text transform="translate(624.054 313.08)" class="st13 st14 st15">
      J505/J605
    </text>
    <text transform="translate(234.416 385.852)" class="st13 st14 st15">
      J506/J606
    </text>
    <text transform="translate(368.1 363.37)" class="st13 st14 st15">
      J508/J608
    </text>
    <text transform="translate(249.879 415.401)" class="st13 st14 st15">
      J510/J610
    </text>
    <path id="punkte" class="st19" d="M346.3 402.4h-9.4c-1.5.8-2.8 2-3.6 3.5-.9 1.6-1.4 3.2-1.4 5 0 2.7 1 5 2.9 6.9s4.2 2.9 6.9 2.9 5-1 6.9-2.9 2.9-4.3 2.9-6.9c0-1.8-.5-3.4-1.4-5-1.1-1.5-2.3-2.8-3.8-3.5m-1-52.8h-9.4c-1.5.8-2.8 2-3.7 3.5-.9 1.5-1.3 3.2-1.3 5 0 2.7 1 5 2.9 6.9s4.2 2.9 6.9 2.9 5-1 6.8-2.9c1.9-1.9 2.9-4.2 2.9-6.9 0-1.8-.5-3.5-1.4-5s-2.1-2.7-3.7-3.5m336.9 53.3c-1.6.9-2.8 2.1-3.7 3.6-.9 1.6-1.4 3.2-1.4 5 0 2.7 1 5 2.9 6.9s4.2 2.9 6.9 2.9 5-1 6.9-2.9 2.9-4.2 2.9-6.9c0-1.8-.5-3.4-1.4-5-.9-1.5-2.1-2.7-3.7-3.6h-9.4m-35.5 16.3c2.2 0 4-.8 5.6-2.4s2.4-3.4 2.4-5.6c0-1.4-.4-2.8-1.1-4-.7-1.3-1.7-2.2-3-2.9h-7.7c-1.2.7-2.2 1.6-3 2.9-.7 1.3-1.1 2.6-1.1 4 0 2.1.8 4 2.4 5.6 1.5 1.7 3.3 2.4 5.5 2.4M705 354c-1.6.8-2.8 2-3.7 3.5s-1.3 3.2-1.3 5c0 2.7 1 5 2.9 6.9s4.2 2.9 6.9 2.9 5-1 6.9-2.9 2.9-4.2 2.9-6.9c0-1.8-.4-3.5-1.3-5s-2.2-2.7-3.8-3.5H705m-432.7-5.5h-9.4c-1.6.9-2.8 2.1-3.7 3.6-.9 1.5-1.3 3.2-1.3 5 0 2.7 1 5 2.9 6.9s4.2 2.9 6.9 2.9 5-1 6.9-2.9 2.9-4.2 2.9-6.9c0-1.8-.4-3.4-1.3-5-1.1-1.5-2.3-2.7-3.9-3.6m-2.2-48.4c0-1.8-.4-3.5-1.3-5s-2.1-2.7-3.7-3.6h-9.4c-1.6.9-2.8 2.1-3.8 3.6-.9 1.5-1.3 3.2-1.3 5 0 2.7 1 5 2.9 6.8 1.9 1.9 4.2 2.9 6.9 2.9s5-1 6.9-2.9c1.9-1.8 2.8-4.1 2.8-6.8m438.8 11c2.7 0 5-1 6.9-2.9s2.9-4.2 2.9-6.9c0-1.8-.4-3.4-1.3-4.9-.9-1.5-2.2-2.7-3.7-3.6h-9.4c-1.5.8-2.7 2-3.6 3.6-.9 1.5-1.4 3.2-1.4 4.9 0 2.7 1 5 2.9 6.9 1.7 1.9 4 2.9 6.7 2.9m-12.8-49c0-2.6-.7-5.1-2.1-7.3s-3.3-3.9-5.7-5h-11.2c-2.4 1.1-4.3 2.8-5.7 5s-2.1 4.6-2.1 7.3c0 3.7 1.3 6.9 4 9.5 2.6 2.6 5.7 3.9 9.4 3.9s6.9-1.3 9.5-3.9 3.9-5.6 3.9-9.5m-50.7-20h-10.7c-2 1-3.5 2.4-4.6 4.3-1.1 1.9-1.7 3.9-1.7 6 0 3.2 1.1 5.9 3.4 8.2 2.2 2.3 5 3.4 8.2 3.4 3.2 0 5.9-1.1 8.2-3.4 2.3-2.3 3.4-5 3.4-8.2 0-2.1-.6-4.2-1.7-6-1-1.9-2.6-3.3-4.5-4.3M292.9 250h-11.2c-2.4 1.1-4.3 2.8-5.7 5-1.4 2.2-2.1 4.6-2.1 7.3 0 3.7 1.3 6.9 3.9 9.5s5.8 3.9 9.5 3.9 6.9-1.3 9.5-3.9c2.6-2.6 3.9-5.8 3.9-9.5 0-2.6-.7-5.1-2.1-7.3-1.4-2.2-3.3-3.9-5.7-5m45.3 10.8c2.3-2.3 3.4-5 3.4-8.2 0-2.1-.6-4.1-1.7-6s-2.6-3.4-4.6-4.4h-10.7c-2 1-3.5 2.4-4.6 4.4-1.1 1.8-1.7 3.8-1.7 6 0 3.2 1.1 5.9 3.4 8.2 2.3 2.3 5 3.4 8.2 3.4 3.3-.1 6-1.2 8.3-3.4z"/>
    <path class="st20" d="M543.6 241.6h73.7c4.5-7.7 12.8-12.8 22.4-12.8 14.3 0 25.9 11.6 25.9 25.9 0 14.3-11.6 25.9-25.9 25.9-10 0-18.7-5.7-23-14h-73.1c-2.4 0-4.4-2-4.5-4.5v-16c0-2.5 2-4.5 4.5-4.5zm70.3 109.5h71.5c4.3-8.3 13-13.9 23-13.9 14.3 0 25.9 11.6 25.9 25.9S722.7 389 708.4 389c-9.6 0-17.9-5.2-22.4-12.9h-72.1c-2.4 0-4.4-2-4.5-4.5v-16c0-2.5 2-4.5 4.5-4.5zm-61.7 49.5h68.6c4.2-8.7 13.1-14.7 23.4-14.7 14.3 0 25.9 11.6 25.9 25.9s-11.7 26-26 26c-9.3 0-17.4-4.9-22-12.1h-70c-2.4 0-4.4-2-4.5-4.5v-16c.1-2.6 2.1-4.6 4.6-4.6zm-310.6-2.1h76.2c4.5-7.5 12.8-12.6 22.2-12.6 14.3 0 25.9 11.6 25.9 25.9s-11.6 25.9-25.9 25.9c-10.1 0-18.9-5.8-23.1-14.3h-75.3c-2.4 0-4.4-2-4.5-4.5v-16c0-2.4 2-4.4 4.5-4.4zm18.7-123.9c10.1 0 18.9 5.8 23.2 14.3h64.9c2.5 0 4.5 2 4.5 4.5v16c0 2.5-2 4.5-4.5 4.5h-65.8c-4.5 7.5-12.8 12.5-22.2 12.5-14.3 0-25.9-11.6-25.9-25.9s11.5-25.9 25.8-25.9zm69.4-46.6c10.1 0 18.8 5.7 23.1 14.1h73.6c2.5 0 4.5 2 4.5 4.5v16c0 2.5-2 4.5-4.5 4.5H352c-4.5 7.6-12.8 12.7-22.3 12.7-14.3 0-25.9-11.6-25.9-25.9 0-14.2 11.5-25.9 25.9-25.9zm11.1 105.5c9.3 0 17.4 4.9 22 12.2h82.6c2.5 0 4.5 2 4.5 4.5v16c0 2.5-2 4.5-4.5 4.5h-81.3c-4.2 8.7-13.1 14.6-23.3 14.6-14.3 0-25.9-11.6-25.9-25.9s11.6-25.9 25.9-25.9z"/>
    <path class="st20" d="M220.5 367.6H242c-.7-2.4-1.1-4.8-1.1-7.4 0-14.3 11.6-25.9 25.9-25.9s25.9 11.6 25.9 25.9c0 2.6-.4 5.1-1.1 7.4h20.3c2.5 0 4.5 2 4.5 4.5v16c0 2.5-2 4.5-4.5 4.5h-91.5c-2.4 0-4.4-2-4.5-4.5v-16c.1-2.5 2.1-4.5 4.6-4.5zm489.9-92.4c-12.8 0-23.5 9.2-25.8 21.3h-61.4c-2.4 0-4.4 2-4.4 4.4V317c0 2.4 2 4.4 4.4 4.4h70.3c4.6 3.8 10.5 6.2 16.9 6.2 14.5 0 26.2-11.7 26.2-26.2s-11.7-26.2-26.2-26.2zm-413-35.2v-16.6c0-2.4-2-4.4-4.4-4.4h-77.8c-2.4 0-4.4 2-4.4 4.4v16.1c0 2.4 2 4.4 4.4 4.4h55.4c-5.8 4.8-9.5 12.1-9.5 20.2 0 14.5 11.7 26.2 26.2 26.2s26.2-11.7 26.2-26.2c0-10.8-6.6-20.1-16.1-24.1zm455.7 186h-44.6c2.9-4.2 4.6-9.4 4.6-14.9 0-14.5-11.7-26.2-26.2-26.2s-26.2 11.7-26.2 26.2c0 8.4 4 16 10.2 20.8v14.7c0 2.4 2 4.4 4.4 4.4h77.8c2.4 0 4.4-2 4.4-4.4v-16.1c.1-2.5-1.9-4.5-4.4-4.5z"/>
    <path class="st20" d="M751.1 221.1h-77.8c-2.4 0-4.4 2-4.4 4.4v15.2c-7.6 4.6-12.6 12.9-12.6 22.4 0 14.5 11.7 26.2 26.2 26.2s26.2-11.7 26.2-26.2c0-6.5-2.4-12.4-6.3-17H751c2.4 0 4.4-2 4.4-4.4v-16.1c.2-2.5-1.8-4.5-4.3-4.5z"/>
    <g id="loc">
      <path class="st21" d="M178.7 143.9h-46.3c-1.6 0-2.9-1.3-2.9-2.9v-17.6c0-1.6 1.3-2.9 2.9-2.9h46.3c1.6 0 2.9 1.3 2.9 2.9V141c.1 1.6-1.3 2.9-2.9 2.9zM70.6 121.2H24.3c-1.6 0-2.9-1.3-2.9-2.9v-17.6c0-1.6 1.3-2.9 2.9-2.9h46.3c1.6 0 2.9 1.3 2.9 2.9v17.6c0 1.6-1.3 2.9-2.9 2.9zm-.8 55.7H23.6c-1.6 0-2.9-1.3-2.9-2.9v-17.6c0-1.6 1.3-2.9 2.9-2.9h46.3c1.6 0 2.9 1.3 2.9 2.9V174c0 1.6-1.4 2.9-3 2.9z"/>
      <text transform="translate(135.278 137.072)" class="st13 st22 st15">
        412CT
      </text>
      <path class="st23" d="M99.3 140.5l-25.8-30.9m56.1 21.9L112 139"/>
      <text transform="translate(27.316 114.016)" class="st13 st22 st15">
        412DT
      </text>
      <path class="st23" d="M103.3 157.2l-.8.1m.1 0l-29.1 7.9"/>
      <text transform="translate(27.404 170.78)" class="st13 st22 st15">
        412ET
      </text>
      <path class="st24" d="M115.9 272.2c-.1.2-.1.4-.1.6-.1.3-.1.7-.1 1.1-.2 1.3-.5 2.9-.9 4.7-.1.2-.1.4-.1.6l-.1.6-.1.7H99.8v52.2m14.6-52.3l-9.1 39.1c-.3 1.5-.9 3.3-1.7 5.7-.8 2.1-1.5 3.9-2.1 5.4-.7 1.5-1.1 2.1-1.3 2.1l-.1-.1m16.2-63.2c.1-.9.1-1.7.1-2.5v-28.8h-.1m-31.5 40.5c-.5-2.5-.8-4.4-1.1-5.7-.3-2.1-.6-3.9-.6-5.5m2.4 13h14.3m-15-1.8c.1.6.3 1.2.4 1.9l9.1 39.2c.4 1.7 1 3.6 1.7 5.7.8 2.1 1.5 3.9 2.1 5.4s1.1 2.1 1.3 2.1l.1-.1m16.4-60.6c.1-1 .3-1.9.3-2.8m-16.4-84.7l16.7 22.3v-44.6l-16.7 22.3zM96.4 117H83.1v45.4h33.3V117h-13.3V79h-6.7v38h6.7m-20 45.4V207l16.7-22.3-16.7-22.3zm25.7 57.4c.4 0 .7-.1.9-.4.1-.1.1-.2.2-.3l.3-.6v-7c0-.1 0-.1-.1-.1-.1-.3-.2-.6-.4-.8-.3-.3-.6-.4-.9-.4H91.5m-1.6 1c0 .1-.1.1-.1.3v6.8c0 .3.1.5.1.7m1.2.8h17.7m-17.7 0c-.4 0-.7-.2-1-.5-.1-.1-.1-.2-.2-.3m0-7.8c.1-.2.1-.4.3-.6.3-.3.6-.4 1-.5h.3m24.9-3v31.1m0-31.1H83.1v31.1h33.2m-33.2 0v29.2M116.4 69v.6c.1 2.9.1 6.1 0 9.5v38m-.3-53.8c.1 1.5.3 3.6.3 5.2m-33.3.5c0-.6.1-1.2.1-2.3.1-1.2.3-3.7.4-4.8m-.5 55.1V79c-.1-3.4-.1-6.5 0-9.3v-.8m33.3 10.2h-13.3m-6.7 0H83.1"/>
      <path class="st25" d="M115.6 273.9c.1-.6.2-1.2.3-1.7m-1.4 7.5c-.1.2-.1.5-.1.7m1.9-42.2v30.4c0 .3-.1.6-.1.8m-33.1-2v1.2c.3 3 .8 6.3 1.7 10m.4 1.8h.3M103.1 117h-6.7M110 219.1c-.1.1-.1.1-.2.3-.3.3-.6.4-.9.5-.1 0-.3.1-.4.1h-17c-.1 0-.3 0-.4-.1m19.1-8.6c.1.2.1.3.1.6v6.2c0 .4-.1.8-.3 1m.2-7.8c-.1-.3-.2-.5-.4-.7-.3-.3-.8-.6-1.2-.6m-17.1.1c-.5 0-.9.2-1.2.6-.1.1-.3.3-.3.6m0 7.7c.1.1.1.2.3.3.3.3.6.4 1 .5M90 219c-.1-.3-.3-.6-.3-.9v-6.2c0-.3.1-.5.1-.7m26.6-142.8v.6m-4.4-7.1c-6.5-.3-13.7-.3-21.6 0h-6.7c.6-11.6 2.5-20.7 5.6-27.3 3.7-6.6 7.5-9.6 11.1-9.3 3.3.3 7.3 4.3 9.8 9.3 1.3 2.8 4.8 16.8 5.9 27.3H112c1.4.1 2.8.1 4.1.3 0 .3.1.8.1 1.1m-15.8-1.4v17.2"/>
      <text transform="translate(12.406 214.945)" class="st13 st26 st27">
        LH ENG
      </text>
      <text transform="translate(24.506 231.745)" class="st13 st26 st27">
        TOP
      </text>
      <circle class="st28" cx="102.6" cy="157.2" r="1"/>
      <circle class="st28" cx="99.3" cy="140.5" r="1"/>
      <circle class="st28" cx="112" cy="139" r="1"/>
      <path class="st29" d="M83.1 117v45.4h33.3V117H83.1zm10 10.5c0-1.1.9-1.9 1.9-1.9h9.6c1.1 0 1.9.9 1.9 1.9v16.7c0 1.1-.9 1.9-1.9 1.9H95c-1.1 0-1.9-.9-1.9-1.9v-16.7zm17.3 32.6c0 .6-.5 1.1-1.1 1.1H90.8c-.6 0-1.1-.5-1.1-1.1v-5.8c0-.6.5-1.1 1.1-1.1h18.5c.6 0 1.1.5 1.1 1.1v5.8z"/>
    </g>
    <g id="loc-rh">
      <path class="st21" d="M958.7 143.9h-46.3c-1.6 0-2.9-1.3-2.9-2.9v-17.6c0-1.6 1.3-2.9 2.9-2.9h46.3c1.6 0 2.9 1.3 2.9 2.9V141c.1 1.6-1.3 2.9-2.9 2.9zm-108.1-22.7h-46.3c-1.6 0-2.9-1.3-2.9-2.9v-17.6c0-1.6 1.3-2.9 2.9-2.9h46.3c1.6 0 2.9 1.3 2.9 2.9v17.6c0 1.6-1.3 2.9-2.9 2.9zm-.8 55.7h-46.2c-1.6 0-2.9-1.3-2.9-2.9v-17.6c0-1.6 1.3-2.9 2.9-2.9h46.3c1.6 0 2.9 1.3 2.9 2.9V174c0 1.6-1.4 2.9-3 2.9z"/>
      <text transform="translate(915.278 137.072)" class="st13 st22 st15">
        422CT
      </text>
      <path class="st23" d="M879.3 140.5l-25.8-30.9m56.1 21.9L892 139"/>
      <text transform="translate(807.316 114.016)" class="st13 st22 st15">
        422DT
      </text>
      <path class="st23" d="M883.3 157.2l-.8.1m.1 0l-29.1 7.9"/>
      <text transform="translate(807.404 170.78)" class="st13 st22 st15">
        422ET
      </text>
      <path class="st24" d="M895.9 272.2c-.1.2-.1.4-.1.6-.1.3-.1.7-.1 1.1-.2 1.3-.5 2.9-.9 4.7-.1.2-.1.4-.1.6l-.1.6-.1.7h-14.7v52.2m14.6-52.3l-9.1 39.1c-.3 1.5-.9 3.3-1.7 5.7-.8 2.1-1.5 3.9-2.1 5.4-.7 1.5-1.1 2.1-1.3 2.1l-.1-.1m16.2-63.2c.1-.9.1-1.7.1-2.5v-28.8h-.1m-31.5 40.5c-.5-2.5-.8-4.4-1.1-5.7-.3-2.1-.6-3.9-.6-5.5m2.4 13h14.3m-15-1.8c.1.6.3 1.2.4 1.9l9.1 39.2c.4 1.7 1 3.6 1.7 5.7.8 2.1 1.5 3.9 2.1 5.4.6 1.5 1.1 2.1 1.3 2.1l.1-.1m16.4-60.6c.1-1 .3-1.9.3-2.8m-16.4-84.7l16.7 22.3v-44.6l-16.7 22.3zm-3.4-67.7h-13.3v45.4h33.3V117h-13.3V79h-6.7v38h6.7m-20 45.4V207l16.7-22.3-16.7-22.3zm25.7 57.4c.4 0 .7-.1.9-.4.1-.1.1-.2.2-.3l.3-.6v-7c0-.1 0-.1-.1-.1-.1-.3-.2-.6-.4-.8-.3-.3-.6-.4-.9-.4h-17.3m-1.6 1c0 .1-.1.1-.1.3v6.8c0 .3.1.5.1.7m1.2.8h17.7m-17.7 0c-.4 0-.7-.2-1-.5-.1-.1-.1-.2-.2-.3m0-7.8c.1-.2.1-.4.3-.6.3-.3.6-.4 1-.5h.3m24.9-3v31.1m0-31.1h-33.3v31.1h33.2m-33.2 0v29.2M896.4 69v.6c.1 2.9.1 6.1 0 9.5v38m-.3-53.8c.1 1.5.3 3.6.3 5.2m-33.3.5c0-.6.1-1.2.1-2.3.1-1.2.3-3.7.4-4.8m-.5 55.1V79c-.1-3.4-.1-6.5 0-9.3v-.8m33.3 10.2h-13.3m-6.7 0h-13.3"/>
      <path class="st25" d="M895.6 273.9c.1-.6.2-1.2.3-1.7m-1.4 7.5c-.1.2-.1.5-.1.7m1.9-42.2v30.4c0 .3-.1.6-.1.8m-33.1-2v1.2c.3 3 .8 6.3 1.7 10m.4 1.8h.3M883.1 117h-6.7M890 219.1c-.1.1-.1.1-.2.3-.3.3-.6.4-.9.5-.1 0-.3.1-.4.1h-17c-.1 0-.3 0-.4-.1m19.1-8.6c.1.2.1.3.1.6v6.2c0 .4-.1.8-.3 1m.2-7.8c-.1-.3-.2-.5-.4-.7-.3-.3-.8-.6-1.2-.6m-17.1.1c-.5 0-.9.2-1.2.6-.1.1-.3.3-.3.6m0 7.7c.1.1.1.2.3.3.3.3.6.4 1 .5m-1.3-.8c-.1-.3-.3-.6-.3-.9v-6.2c0-.3.1-.5.1-.7m26.6-142.8v.6m-4.4-7.1c-6.5-.3-13.7-.3-21.6 0h-6.7c.6-11.6 2.5-20.7 5.6-27.3 3.7-6.6 7.5-9.6 11.1-9.3 3.3.3 7.3 4.3 9.8 9.3 1.3 2.8 4.8 16.8 5.9 27.3H892c1.4.1 2.8.1 4.1.3 0 .3.1.8.1 1.1m-15.8-1.4v17.2"/>
      <text transform="translate(905.406 214.945)" class="st13 st26 st27">
        RH ENG
      </text>
      <text transform="translate(917.506 231.745)" class="st13 st26 st27">
        TOP
      </text>
      <circle class="st28" cx="882.6" cy="157.2" r="1"/>
      <circle class="st28" cx="879.3" cy="140.5" r="1"/>
      <circle class="st28" cx="892" cy="139" r="1"/>
      <path class="st29" d="M863.1 117v45.4h33.3V117h-33.3zm10 10.5c0-1.1.9-1.9 1.9-1.9h9.6c1.1 0 1.9.9 1.9 1.9v16.7c0 1.1-.9 1.9-1.9 1.9H875c-1.1 0-1.9-.9-1.9-1.9v-16.7zm17.3 32.6c0 .6-.5 1.1-1.1 1.1h-18.5c-.6 0-1.1-.5-1.1-1.1v-5.8c0-.6.5-1.1 1.1-1.1h18.5c.6 0 1.1.5 1.1 1.1v5.8z"/>
    </g>
  </g>
</svg>
