<?xml version="1.0" encoding="utf-8"?>
<!-- Generator: Adobe Illustrator 24.3.0, SVG Export Plug-In . SVG Version: 6.00 Build 0)  -->
<svg version="1.1" id="Ebene_1" xmlns="http://www.w3.org/2000/svg" xmlns:xlink="http://www.w3.org/1999/xlink" x="0px" y="0px"
	 viewBox="0 0 481.5 241.3" style="enable-background:new 0 0 481.5 241.3;" xml:space="preserve">
<style type="text/css">
	.st0{fill:none;stroke:#000000;stroke-width:0.45;stroke-linecap:round;stroke-linejoin:round;}
	.st1{fill:#448ECC;}
	.st2{fill:#020203;}
	.st3{font-family:'Tahoma';}
	.st4{font-size:14px;}
	.st5{fill:#FFFFFF;}
	.st6{fill:#E30613;stroke:#030304;stroke-width:0.5;stroke-miterlimit:10;}
	.st7{fill:#F1E42B;stroke:#030304;stroke-width:0.5;stroke-miterlimit:10;}
</style>
<path id="Layer0_6_1_STROKES" class="st0" d="M388.2,173.3V21.5L384,5.1 M449.7,73l-1.3-0.2v19.1l2.3,1.4l-6,3.4V117l8.4,4.9
	l-5.2,8.4l-1.9,11l0.4,9.3l4,8.8l-61.9-0.6 M389.1,64.9l59.2,7.9 M361.9,5.1l-4.2,16.3v41.6h-74.8V16.2l-11.3-1l-16.7,4.9l-14.2-3.9
	h-13l-10.6,8l-15.2-3.5l-14.6-1.5v43.8h-74.9V21.5l-3.4-12.6 M357.7,173.9l1.4,6.4l7.3,26.1l3.6,9.2l1.7,2.7l1.1,0.8l1.2-0.8
	l1.6-2.7l3.7-9.2l1.9-6l7-26.5 M112.3,173.3v-14.3h74.9v68.2l9.6-2.5l8-5.5h4.1l8.5,6.6l6.5,1.9l6.6-4l9.1-1l9.1,8l9.1,1.6l5.1-3.6
	l17.2,2.6l2.7-0.8v-71.4h74.8v14.3 M373.2,219.2l-0.3-0.2l-0.3,0.2 M85,8.9l-3.2,12.6v151.8 M81.6,158.7l-62,0.6l4-8.8l0.5-9.3
	l-2-11l-5.1-8.4l8.3-4.9V96.8l-6-3.4l2.5-1.4V72.9L20.3,73 M21.7,72.6v0.3l59.1-7.9 M81.8,173.9l5.1,20.1l5.6,17.6l3.4,6.6l1.1,0.8
	l1.2-0.8l1.6-2.7l3.7-9.2l8.8-32.5 M97.3,219.2l-0.2-0.1l-0.2,0.1"/>
<path class="st1" d="M86.1,125.5l-0.8-1.5l-2.2,4.4l5,0.4l-0.9-1.4l4.2-2.2l-1-1.9L86.1,125.5 M109.2,105.5l-0.7,1.6l-4.3-2.1
	l-0.9,1.9l4.3,2.1l-0.8,1.5l4.9-0.7L109.2,105.5 M107.5,75.3l-0.8,1.6l4.9-0.7l-2.6-4.3l-0.7,1.6l-4.3-2.1l-0.9,2L107.5,75.3
	 M91.3,85.5l-1-1.9l-4.2,2.3l-0.8-1.5L83,88.8l5,0.5l-0.9-1.5L91.3,85.5 M91.2,59.8l-4.1-2.4l0.9-1.4l-5,0.3l2.2,4.5l0.8-1.5
	l4.1,2.4L91.2,59.8 M96.2,48.2l1-1.8L93.1,44l0.9-1.4l-5,0.3l2.2,4.4l0.8-1.5L96.2,48.2 M106.7,12.4l-2.7,4.1h1.6v4.8h2.1v-4.8h1.7
	L106.7,12.4 M93.6,32.6l4.1,2.4l1-1.8l-4.1-2.4l0.8-1.4l-5,0.3l2.2,4.5L93.6,32.6z"/>
<path class="st1" d="M365.4,104.9l-4.3,2.1l-0.7-1.5l-2.5,4.3l4.9,0.7l-0.8-1.6l4.3-2.1L365.4,104.9 M360.4,71.9l-2.5,4.3l4.9,0.7
	l-0.8-1.6l4.3-2.1l-0.9-1.9l-4.3,2.1L360.4,71.9 M364.5,21.2v-4.8h1.7l-2.8-4.1l-2.7,4.1h1.7v4.8H364.5 M386.9,128.2l-2.3-4.4
	l-0.8,1.5l-4.2-2.3l-1.1,1.9l4.2,2.2l-0.9,1.4L386.9,128.2 M384.3,85.9l-4.2-2.3l-1.1,1.9l4.2,2.3l-0.9,1.4l5-0.4l-2.2-4.4
	L384.3,85.9 M384.3,58.9l0.8,1.4l2.2-4.4l-5-0.4l0.8,1.5l-4.1,2.4l1.1,1.8L384.3,58.9 M378.4,45.9l0.8,1.4l2.2-4.4l-5-0.4l0.9,1.5
	l-4.1,2.4l1.1,1.8L378.4,45.9 M371.7,32.6l1,1.9l4.1-2.4l0.8,1.4l2.2-4.4l-4.9-0.3l0.8,1.5L371.7,32.6z"/>
<g>
	<text transform="matrix(1 0 0 1 396.0793 54.0527)" class="st2 st3 st4">Right Nacelle</text>
</g>
<g>
	<text transform="matrix(1 0 0 1 5.5793 53.7027)" class="st2 st3 st4">Left Nacelle</text>
</g>
<path class="st1" d="M172.2,168.1c-0.1,0.4-0.3,0.7-0.7,0.9l-9.3,5.3l5.4,9.3l9.2-5.4c0.4-0.2,0.8-0.2,1.2-0.1
	c0.4,0.1,0.8,0.4,1,0.8l2.2,3.9c0.2,0.4,0.5,0.6,0.7,0.6c0.2-0.1,0.4-0.3,0.5-0.7l4.7-15.3c0.1-0.4,0.1-0.8-0.1-1.2
	c-0.2-0.3-0.5-0.6-1-0.7l-15.6-3.5c-0.4-0.1-0.7-0.1-0.8,0.2c-0.2,0.2-0.1,0.5,0.1,0.8l2.2,3.9C172.3,167.2,172.4,167.6,172.2,168.1
	z"/>
<path class="st5" d="M74,205.9h41.6v-41.6H74V205.9z"/>
<g>
	<text transform="matrix(1 0 0 1 67.7473 182.3992)" class="st2 st3 st4">FWD and AFT</text>
	<text transform="matrix(1 0 0 1 54.6473 196.8992)" class="st2 st3 st4">Extinguisher Bottle</text>
</g>
<path class="st6" d="M377.8,85.3l1.3-2.4l-4.6-2.4l0-15c0,0,0-0.3,0-0.7l4.7-2.4l-1.3-2.4l-3.7,1.9c-0.1-1.1-0.4-2.2-0.8-2.8
	c-1.3-1.9-3.8-4.5-5-7.5l4.2-2.2l-1.3-2.4l-3.6,1.9l-1.4-10.3l4.8-2.5l-1.3-2.4l-3.9,2l-0.9-6.9l0-6.2l-3.3-0.1l-0.1,6.6l2.7,21.7
	c0.9,4,2.8,6.4,5.1,9.1c1.3,1.8,1.4,4,1.4,5.7v2.7l-4.5,2.3l1.3,2.4l3.2-1.7v30.5l-4.5,2.3l1.3,2.4l3.3-1.7v29.8H237.8l0,22h-12.5
	l-0.2-0.4l-5.7,0l-0.6,3.3l6.3-0.1l0.3-0.5h12.5l0,24.7h-12.4l-0.3-0.4l-4.8-0.1l-1,3.3l5.7,0l0.3-0.4h15.8l0-48.1h133.3l0-14.8
	l3.3,1.7l1.3-2.4l-4.5-2.3l0-36.5L377.8,85.3z"/>
<path class="st7" d="M99.1,134.7v-29.8l3.3,1.7l1.3-2.4l-4.5-2.3V71.3l3.2,1.7l1.3-2.4l-4.5-2.3v-2.7c0-1.7,0.2-3.8,1.4-5.7
	c2.3-2.7,4.2-5.2,5.1-9.1l2.7-21.7l-0.1-6.6l-3.3,0.1l0,6.2l-0.9,6.9l-3.9-2l-1.3,2.4l4.8,2.5l-1.4,10.3L98.7,47l-1.3,2.4l4.2,2.2
	c-1.2,3-3.7,5.6-5,7.5c-0.4,0.7-0.6,1.7-0.8,2.8L92.3,60L91,62.5l4.7,2.4c0,0.4,0,0.7,0,0.7l0,15l-4.6,2.4l1.3,2.4l3.4-1.7l0,36.5
	l-4.5,2.3l1.3,2.4l3.3-1.7l0,14.8h133.3l0,11.1h-3.7l-0.4-0.4l-6.5,0l1.1,3.3h5.5l0.2-0.4h3.8l0,24.5h-3.8l-0.2-0.4l-6.3,0l1,3.3
	l5.2-0.1l0.2-0.4h7.2l0-43.9H99.1z"/>
<g>
	<g>
		<path d="M225.1,148.4h-6.8c-0.3,0-0.5,0.3-0.5,0.6v2.7c0,0.3,0.2,0.6,0.5,0.6h6.8c0.3,0,0.5-0.3,0.5-0.6V149
			C225.6,148.7,225.3,148.4,225.1,148.4z M225.1,151.2c0,0.3-0.2,0.6-0.5,0.6h-5.9c-0.3,0-0.5-0.3-0.5-0.6v-1.8
			c0-0.3,0.2-0.6,0.5-0.6h5.9c0.3,0,0.5,0.3,0.5,0.6V151.2z"/>
		<path d="M225.1,156h-6.8c-0.3,0-0.5,0.3-0.5,0.6v2.7c0,0.3,0.2,0.6,0.5,0.6h6.8c0.3,0,0.5-0.3,0.5-0.6v-2.7
			C225.6,156.3,225.3,156,225.1,156z M225.1,158.8c0,0.3-0.2,0.6-0.5,0.6h-5.9c-0.3,0-0.5-0.3-0.5-0.6V157c0-0.3,0.2-0.6,0.5-0.6
			h5.9c0.3,0,0.5,0.3,0.5,0.6V158.8z"/>
	</g>
	<g>
		<circle cx="208.6" cy="154.1" r="12"/>
		<circle class="st1" cx="208.6" cy="154.1" r="11"/>
	</g>
</g>
<g>
	<g>
		<path d="M225.1,175.4h-6.8c-0.3,0-0.5,0.3-0.5,0.6v2.7c0,0.3,0.2,0.6,0.5,0.6h6.8c0.3,0,0.5-0.3,0.5-0.6V176
			C225.6,175.7,225.3,175.4,225.1,175.4z M225.1,178.2c0,0.3-0.2,0.6-0.5,0.6h-5.9c-0.3,0-0.5-0.3-0.5-0.6v-1.8
			c0-0.3,0.2-0.6,0.5-0.6h5.9c0.3,0,0.5,0.3,0.5,0.6V178.2z"/>
		<path d="M225.1,183h-6.8c-0.3,0-0.5,0.3-0.5,0.6v2.7c0,0.3,0.2,0.6,0.5,0.6h6.8c0.3,0,0.5-0.3,0.5-0.6v-2.7
			C225.6,183.3,225.3,183,225.1,183z M225.1,185.8c0,0.3-0.2,0.6-0.5,0.6h-5.9c-0.3,0-0.5-0.3-0.5-0.6V184c0-0.3,0.2-0.6,0.5-0.6
			h5.9c0.3,0,0.5,0.3,0.5,0.6V185.8z"/>
	</g>
	<g>
		<circle cx="208.6" cy="181.1" r="12"/>
		<circle class="st1" cx="208.6" cy="181.1" r="11"/>
	</g>
</g>
</svg>
