<?xml version="1.0" encoding="iso-8859-1"?>
<!-- Generator: Adobe Illustrator 25.0.0, SVG Export Plug-In . SVG Version: 6.00 Build 0)  -->
<svg version="1.1" id="Ebene_1" xmlns="http://www.w3.org/2000/svg" xmlns:xlink="http://www.w3.org/1999/xlink" x="0px" y="0px"
	 width="565.6px" height="493.1px" viewBox="0 0 565.6 493.1" style="enable-background:new 0 0 565.6 493.1;" xml:space="preserve"
	>
<path id="clp-hintergrund" style="fill:#020203;" d="M314,429.5H61.4c-6.6,0-12.4-5.3-12.4-12.4V70.8c0-6.6,5.3-12.4,12.4-12.4H314
	c6.6,0,12.4,5.3,12.4,12.4v346.3C326.3,424.2,320.6,429.5,314,429.5L314,429.5z"/>
<rect id="clp-hyd-qty-ind_1_" x="246.2" y="329.5" style="fill:none;" width="76.6" height="94.1"/>
<rect id="clp-hyd-px-ind_1_" x="124.7" y="329.9" style="fill:none;" width="118.5" height="94.1"/>
<ellipse id="clp-flap-ind_1_" transform="matrix(0.9756 -0.2195 0.2195 0.9756 -76.092 28.0961)" style="fill:none;" cx="88.4" cy="356.5" rx="35.2" ry="35.2"/>
<rect id="clp-hyd-qty-ind" x="246.2" y="329.5" style="fill:none;" width="76.6" height="94.1"/>
<rect id="clp-hyd-px-ind" x="124.7" y="329.9" style="fill:none;" width="118.5" height="94.1"/>
<ellipse id="clp-flap-ind" transform="matrix(0.962 -0.2731 0.2731 0.962 -94.004 37.6982)" style="fill:none;" cx="88.4" cy="356.5" rx="35.2" ry="35.2"/>
<path id="clp-fuel-qty-total" style="fill:none;" d="M224.7,252.4h-64.4c-3.1,0-5.7-2.6-5.7-5.7v-22.3c0-3.1,2.6-5.7,5.7-5.7h64.4
	c3.1,0,5.7,2.6,5.7,5.7v22.3C230.4,249.8,227.8,252.4,224.7,252.4z"/>
<path id="clp-fuel-pump-sw" style="fill:none;" d="M224.8,212h-73.4c-3.1,0-5.7-2.6-5.7-5.7V184c0-3.1,2.6-5.7,5.7-5.7h73.4
	c3.1,0,5.7,2.6,5.7,5.7v22.3C230.5,209.4,228,212,224.8,212z"/>
<path id="clp-fuel-tank-temp" style="fill:none;" d="M128,252.9H63.6c-3.1,0-5.7-2.6-5.7-5.7v-11.3c0-3.1,2.6-5.7,5.7-5.7H128
	c3.1,0,5.7,2.6,5.7,5.7v11.3C133.7,250.3,131.2,252.9,128,252.9z"/>
<circle id="clp-fuel-qty2" style="fill:none;" cx="278.4" cy="185.2" r="43.9"/>
<circle id="clp-fuel-qty" style="fill:none;" cx="96.1" cy="185.6" r="43.9"/>
<path id="clp-fuel-sov2" style="fill:none;" d="M299.6,131h-43.4c-3.1,0-5.7-2.6-5.7-5.7V82c0-3.1,2.6-5.7,5.7-5.7h43.4
	c3.1,0,5.7,2.6,5.7,5.7v43.3C305.3,128.5,302.7,131,299.6,131z"/>
<path id="clp-fuel-sov" style="fill:none;" d="M120.9,124.9V81.6c0-3.1-2.6-5.7-5.7-5.7H71.8c-3.1,0-5.7,2.6-5.7,5.7v43.3
	c0,3.1,2.6,5.7,5.7,5.7h43.4C118.3,130.6,120.9,128,120.9,124.9z"/>
<circle id="clp-aux-pump-sw2" style="fill:none;" cx="212.9" cy="144.8" r="15.3"/>
<path id="clp-aux-pump-sw" style="fill:none;" d="M178.5,144.8c0,8.4-6.8,15.3-15.3,15.3c-8.4,0-15.3-6.8-15.3-15.3
	s6.8-15.3,15.3-15.3S178.5,136.4,178.5,144.8z"/>
<g id="clp-system">
	<path d="M351.4,9.1H23.6l-9.1,10v459.8l10,9.1h327.8l9.1-9.1V19.1L351.4,9.1z M332.6,457.5h-290v-419h290V457.5z"/>
	<path style="fill:#343434;" d="M65.2,61.8h247.7c0.4,0,0.8,0,1.1,0.1l37.6-52.3H23.8V9.1l-9.1,10v459.8l41.2-57.4
		c-2.1-2.1-3.4-5.1-3.4-8.4V74.5c0-3.4,1.5-6.6,3.9-8.9C58.5,63.3,61.6,61.8,65.2,61.8z"/>
	
		<path id="cockpit_display_0_Layer0_0_MEMBER_0_MEMBER_0_MEMBER_0_MEMBER_0_MEMBER_0_1_STROKES_2_" style="fill:none;stroke:#9A9999;stroke-width:0.185;stroke-linecap:round;stroke-linejoin:round;stroke-miterlimit:1.234;" d="
		M351.4,9.1H23.6l-9.1,10v459.8l10,9.1h327.8l9.1-9.1V19.1L351.4,9.1z"/>
	
		<path id="cockpit_display_0_Layer0_0_MEMBER_0_MEMBER_0_MEMBER_0_MEMBER_1_1_STROKES_2_" style="fill:none;stroke:#030304;stroke-width:0.185;stroke-linecap:round;stroke-linejoin:round;stroke-miterlimit:1.234;" d="
		M348.9,10.9H26.4l-9.1,10v455.9l9.5,9.1h322.6l9.1-9.1V20.4L348.9,10.9L348.9,10.9z"/>
	<path style="fill:#676767;" d="M348.9,10.4H26.4l-9.1,10v455.9l9.5,9.1h322.6l9.1-9.1V20.4h0.4L348.9,10.4L348.9,10.4z
		 M324.4,413.1c0,6.9-5.6,12.1-12.1,12.1H64.6c-6.5,0-12.1-5.2-12.1-12.1V74.5c0-6.5,5.2-12.1,12.1-12.1h247.7
		c6.5,0,12.1,5.2,12.1,12.1V413.1z"/>
	<path style="fill:#343434;" d="M319.2,53.7H57.7c-6.5,0-11.7,5.2-11.7,11.7v355.5c0,6.5,3.3,11.8,11.7,11.7h261.5
		c6.5,0,11.7-5.2,11.7-11.7V65.4C330.9,58.9,325.7,53.7,319.2,53.7z M324.4,413.1c0,6.9-5.6,12.1-12.1,12.1H64.6
		c-6.5,0-12.1-5.2-12.1-12.1V74.5c0-6.5,5.2-12.1,12.1-12.1h247.7c6.5,0,12.1,5.2,12.1,12.1V413.1L324.4,413.1z"/>
	<path style="fill:#989999;" d="M325.2,55l-6.8,9.1c3.5,2.1,5.9,5.9,5.9,10.4v338.6c0,6.9-5.6,12.1-12.1,12.1H64.6
		c-4.9,0-9.3-2.9-11.2-7.4l-5.8,10.1c2.1,3.8,5.2,5.8,7.9,5.5h269.6c3,0,5.6-2.6,5.6-5.6V60.7C330.9,57.6,328.3,55,325.2,55z"/>
	<path style="fill:#343434;" d="M308.7,11.3h-15.2v7.8c0,4.3,2.2,6.5,6.9,6.9h1.3c4.8,0,6.9-2.6,6.9-6.9L308.7,11.3L308.7,11.3z"/>
	
		<path id="cockpit_display_0_Layer0_0_MEMBER_1_MEMBER_0_MEMBER_1_1_STROKES_2_" style="fill:none;stroke:#020203;stroke-width:0.309;stroke-linecap:round;stroke-linejoin:round;stroke-miterlimit:1.234;" d="
		M300.4,26.5c-4.8,0-6.9-2.6-6.9-6.9v-7.9"/>
	
		<path id="cockpit_display_0_Layer0_0_MEMBER_1_MEMBER_0_MEMBER_1_2_STROKES_2_" style="fill:none;stroke:#9A9999;stroke-width:0.309;stroke-linecap:round;stroke-linejoin:round;stroke-miterlimit:1.234;" d="
		M300.4,26.5h1.3c4.8,0,6.9-2.6,6.9-6.9v-7.9"/>
	<path style="fill:#020203;" d="M295.2,17.8c0,1.7,0.4,3,1.7,3.9c1.3,0.9,2.6,1.7,3.9,1.7c1.7,0,3-0.4,3.9-1.7
		c0.9-1.3,1.7-2.6,1.7-3.9c0-1.7-0.4-3-1.7-3.9c-1.3-1.3-2.6-1.7-3.9-1.7c-1.7,0-3,0.4-3.9,1.7C295.7,15.2,295.2,16.5,295.2,17.8z"
		/>
	<path style="fill:#343434;" d="M296.1,19.5l5.2,3.9l5.2-3.9l-1.7-6.1h-6.5L296.1,19.5z"/>
	<path style="fill:#343434;" d="M297.4,21.7l6.5,0.9l2.6-6.1l-4.8-4.3l-5.6,3L297.4,21.7z"/>
	<path style="fill:#020203;" d="M303.5,15.6c-0.9-0.4-1.3-0.9-2.2-0.9s-1.7,0.4-2.2,0.9c-0.9,0.9-0.9,1.3-0.9,2.2
		c0,0.9,0.4,1.7,0.9,2.2c0.4,0.9,1.3,0.9,2.2,0.9s1.7-0.4,2.2-0.9c0.9-0.4,0.9-1.3,0.9-2.2S303.9,16.1,303.5,15.6z"/>
	<path style="fill:#343434;" d="M74.9,25.6c4.8,0,6.9-2.6,6.9-6.9v-7.4H66.6v7.8c0,4.3,2.2,6.5,6.9,6.9h1.3L74.9,25.6z"/>
	
		<path id="cockpit_display_0_Layer0_0_MEMBER_1_MEMBER_1_MEMBER_1_1_STROKES_2_" style="fill:none;stroke:#9A9999;stroke-width:0.309;stroke-linecap:round;stroke-linejoin:round;stroke-miterlimit:1.234;" d="
		M73.6,26.5h1.3c4.8,0,6.9-2.6,6.9-6.9v-7.9"/>
	
		<path id="cockpit_display_0_Layer0_0_MEMBER_1_MEMBER_1_MEMBER_1_2_STROKES_2_" style="fill:none;stroke:#020203;stroke-width:0.309;stroke-linecap:round;stroke-linejoin:round;stroke-miterlimit:1.234;" d="
		M73.6,26.5c-4.8,0-6.9-2.6-6.9-6.9v-7.9"/>
	<path style="fill:#020203;" d="M80,17.8c0-1.7-0.4-3-1.7-3.9c-1.3-1.3-2.6-1.7-3.9-1.7c-1.7,0-3,0.4-3.9,1.7
		c-1.3,1.3-1.7,2.6-1.7,3.9c0,1.7,0.4,3,1.7,3.9s2.6,1.7,3.9,1.7c1.7,0,3-0.4,3.9-1.7C79.2,20.4,80,19.5,80,17.8z"/>
	<path style="fill:#343434;" d="M69.2,19.5l5.2,3.9l5.2-3.9l-1.7-6.1h-6.5L69.2,19.5z"/>
	<path style="fill:#343434;" d="M70.5,21.7l6.5,0.9l2.6-6.1l-4.8-4.3l-5.6,3L70.5,21.7z"/>
	<path style="fill:#020203;" d="M76.6,15.6c-0.9-0.4-1.3-0.9-2.2-0.9c-0.9,0-1.7,0.4-2.2,0.9c-0.9,0.9-0.9,1.3-0.9,2.2
		c0,0.9,0.4,1.7,0.9,2.2c0.4,0.9,1.3,0.9,2.2,0.9c0.9,0,1.7-0.4,2.2-0.9c0.9-0.4,0.9-1.3,0.9-2.2S77.5,16.1,76.6,15.6z"/>
	<path style="fill:#343434;" d="M301.7,470.7h-1.3c-4.8,0-6.9,2.6-6.9,6.9v7.8h15.2v-7.8C308.7,473.3,306.5,471.1,301.7,470.7
		L301.7,470.7z"/>
	
		<path id="cockpit_display_0_Layer0_0_MEMBER_1_MEMBER_2_MEMBER_1_1_STROKES_2_" style="fill:none;stroke:#020203;stroke-width:0.309;stroke-linecap:round;stroke-linejoin:round;stroke-miterlimit:1.234;" d="
		M293.5,485v-7.8c0-3,0.9-4.8,3-6.1c0.9-0.4,2.2-0.9,3-0.9h2.2c1.7,0,3,0.4,4.3,0.9c0.4,0.4,0.9,0.4,0.9,0.9"/>
	
		<path id="cockpit_display_0_Layer0_0_MEMBER_1_MEMBER_2_MEMBER_1_2_STROKES_2_" style="fill:none;stroke:#9A9999;stroke-width:0.309;stroke-linecap:round;stroke-linejoin:round;stroke-miterlimit:1.234;" d="
		M306.9,472c1.3,1.3,1.7,2.6,1.7,5.2v7.8"/>
	<path style="fill:#020203;" d="M297,474.6c-1.3,1.3-1.7,2.6-1.7,3.9c0,1.7,0.4,3,1.7,3.9c1.3,1.3,2.6,1.7,3.9,1.7
		c1.7,0,3-0.4,3.9-1.7c1.3-1.3,1.7-2.6,1.7-3.9c0-1.7-0.4-3-1.7-3.9c-1.3-0.9-2.6-1.7-3.9-1.7S297.8,473.3,297,474.6z"/>
	<path style="fill:#343434;" d="M301.3,473.3l-5.2,3.9l1.7,6.1h6.5l1.7-6.1L301.3,473.3z"/>
	<path style="fill:#343434;" d="M303.9,474.2l-6.5,0.9l-1.3,6.1l5.6,3l4.8-4.3L303.9,474.2z"/>
	<path style="fill:#020203;" d="M300.9,481.9c0.9,0,1.7-0.4,2.2-0.9c0.9-0.9,0.9-1.3,0.9-2.2s-0.4-1.7-0.9-2.2
		c-0.9-0.9-1.3-0.9-2.2-0.9c-0.9,0-1.7,0.4-2.2,0.9c-0.9,0.4-0.9,1.3-0.9,2.2s0.4,1.7,0.9,2.2C299.6,481.5,300,481.9,300.9,481.9z"
		/>
	<path style="fill:#343434;" d="M74.9,470.7h-1.3c-4.8,0-6.9,2.6-6.9,6.9v7.8h15.2v-7.8C81.8,473.3,79.6,471.1,74.9,470.7z"/>
	
		<path id="cockpit_display_0_Layer0_0_MEMBER_1_MEMBER_3_MEMBER_1_1_STROKES_2_" style="fill:none;stroke:#020203;stroke-width:0.309;stroke-linecap:round;stroke-linejoin:round;stroke-miterlimit:1.234;" d="
		M66.6,485v-7.8c0-3,0.9-4.8,3-6.1c0.9-0.4,2.2-0.9,3-0.9h2.2c1.7,0,3,0.4,4.3,0.9c0.4,0.4,0.9,0.4,0.9,0.9"/>
	
		<path id="cockpit_display_0_Layer0_0_MEMBER_1_MEMBER_3_MEMBER_1_2_STROKES_2_" style="fill:none;stroke:#9A9999;stroke-width:0.309;stroke-linecap:round;stroke-linejoin:round;stroke-miterlimit:1.234;" d="
		M80,472c1.3,1.3,1.7,2.6,1.7,5.2v7.8"/>
	<path style="fill:#020203;" d="M78.3,482.8c1.3-1.3,1.7-2.6,1.7-3.9c0-1.7-0.4-3-1.7-3.9c-1.3-0.9-2.6-1.7-3.9-1.7
		c-1.7,0-3,0.4-3.9,1.7c-0.9,1.3-1.7,2.6-1.7,3.9c0,1.7,0.4,3,1.7,3.9c1.3,1.3,2.6,1.7,3.9,1.7S77,483.7,78.3,482.8z"/>
	<path style="fill:#343434;" d="M74.4,473.3l-5.2,3.9l1.7,6.1h6.5l1.7-6.1L74.4,473.3z"/>
	<path style="fill:#343434;" d="M77,474.2l-6.5,0.9l-1.3,6.1l5.6,3l4.8-4.3L77,474.2z"/>
	<path style="fill:#020203;" d="M74.4,481.9c0.9,0,1.7-0.4,2.2-0.9c0.9-0.9,0.9-1.3,0.9-2.2s-0.4-1.7-0.9-2.2
		c-0.9-0.9-1.3-0.9-2.2-0.9c-0.9,0-1.7,0.4-2.2,0.9c-0.9,0.4-0.9,1.3-0.9,2.2s0.4,1.7,0.9,2.2S73.1,481.9,74.4,481.9z"/>
	<path style="fill:#CDCCCC;" d="M312.1,456.8c0.9,0.9,2.2,1.7,3.9,1.7c1.3,0,2.6-0.4,3.9-1.7c0.9-0.9,1.7-2.2,1.7-3.9
		c0-1.7-0.4-2.6-1.7-3.9c-0.9-0.9-2.2-1.7-3.9-1.7c-1.3,0-2.6,0.4-3.9,1.7c-0.9,0.9-1.7,2.2-1.7,3.9
		C310.4,454.7,311.3,456,312.1,456.8z M58.8,456.8c0.9,0.9,2.2,1.7,3.9,1.7c1.3,0,2.6-0.4,3.9-1.7c0.9-0.9,1.7-2.2,1.7-3.9
		c0-1.7-0.4-2.6-1.7-3.9c-0.9-0.9-2.2-1.7-3.9-1.7c-1.3,0-2.6,0.4-3.9,1.7c-0.9,0.9-1.7,2.2-1.7,3.9C57.1,454.7,58,456,58.8,456.8z"
		/>
	<g id="ind">
		<g>
			
				<path id="display_eng_0_Layer1_0_MEMBER_1_1_STROKES_2_" style="fill:none;stroke:#FFFFFF;stroke-width:1.1827;stroke-miterlimit:11.8267;" d="
				M130,350.1V341h23.2 M310.6,340.9h9.4v9.2 M239.1,350.2V341h-24.8 M252.3,350.1V341h11.5 M61,323.1h258.1"/>
			<g>
				<text transform="matrix(1 0 0 1 60.4575 350.5167)" style="fill:#FFFFFF; font-family:'ArialMT'; font-size:9.0999px;">FLAP</text>
			</g>
			<g>
				<text transform="matrix(1 0 0 1 60.0796 358.9005)" style="fill:#438CCB; font-family:'ArialMT'; font-size:8.0027px;">DEG</text>
			</g>
			<g>
				<text transform="matrix(1 0 0 1 75.1382 378.0743)" style="fill:#FFFFFF; font-family:'ArialMT'; font-size:7.7446px;">35</text>
			</g>
			<g>
				<text transform="matrix(1 0 0 1 99.9038 350.5831)" style="fill:#FFFFFF; font-family:'ArialMT'; font-size:7.7446px;">10</text>
			</g>
			<g>
				<text transform="matrix(1 0 0 1 95.7573 342.4083)" style="fill:#FFFFFF; font-family:'ArialMT'; font-size:7.7446px;">5</text>
			</g>
			<g>
				<text transform="matrix(1 0 0 1 85.5649 340.2765)" style="fill:#FFFFFF; font-family:'ArialMT'; font-size:7.7446px;">0</text>
			</g>
			<g>
				<text transform="matrix(1 0 0 1 129.1694 359.4923)" style="fill:#FFFFFF; font-family:'ArialMT'; font-size:8.0027px;">PK</text>
				<text transform="matrix(1 0 0 1 129.1694 366.5919)" style="fill:#FFFFFF; font-family:'ArialMT'; font-size:8.0027px;">BRK</text>
			</g>
			<g>
				<text transform="matrix(1 0 0 1 150.6167 367.9073)" style="fill:#FFFFFF; font-family:'ArialMT'; font-size:8.0027px;">STBY</text>
			</g>
			<g>
				<text transform="matrix(1 0 0 1 233.6865 373.7413)" style="fill:#FFFFFF; font-family:'ArialMT'; font-size:9.0999px;">4</text>
			</g>
			<g>
				<text transform="matrix(1 0 0 1 233.6865 397.0851)" style="fill:#FFFFFF; font-family:'ArialMT'; font-size:9.0999px;">2</text>
			</g>
			<g>
				<text transform="matrix(1 0 0 1 233.6865 420.545)" style="fill:#FFFFFF; font-family:'ArialMT'; font-size:9.0999px;">0</text>
			</g>
			<g>
				<text transform="matrix(1 0 0 1 161.5288 340.4454)" style="fill:#FFFFFF; font-family:'ArialMT'; font-size:9.0999px;">HYD PRESS</text>
				<text transform="matrix(1 0 0 1 163.0132 348.8361)" style="fill:#438CCB; font-family:'ArialMT'; font-size:9.0999px;">PSI x 1000</text>
			</g>
			<g>
				<text transform="matrix(1 0 0 1 268.459 340.4454)" style="fill:#FFFFFF; font-family:'ArialMT'; font-size:9.0999px;">HYD QTY</text>
				<text transform="matrix(1 0 0 1 270.2656 348.8361)" style="fill:#438CCB; font-family:'ArialMT'; font-size:9.0999px;">% x 100</text>
			</g>
			<g>
				<text transform="matrix(1 0 0 1 180.3647 365.7384)" style="fill:#FFFFFF; font-family:'ArialMT'; font-size:9.0354px;">1</text>
			</g>
			<g>
				<text transform="matrix(1 0 0 1 202.999 365.7384)" style="fill:#FFFFFF; font-family:'ArialMT'; font-size:9.0354px;">2</text>
			</g>
			<g>
				<text transform="matrix(1 0 0 1 225.3936 365.7384)" style="fill:#FFFFFF; font-family:'ArialMT'; font-size:9.0354px;">3</text>
			</g>
			<g>
				<text transform="matrix(1 0 0 1 257.8604 365.7384)" style="fill:#FFFFFF; font-family:'ArialMT'; font-size:9.0354px;">1</text>
			</g>
			<g>
				<text transform="matrix(1 0 0 1 280.4912 365.7384)" style="fill:#FFFFFF; font-family:'ArialMT'; font-size:9.0354px;">2</text>
			</g>
			<g>
				<text transform="matrix(1 0 0 1 302.7646 365.7384)" style="fill:#FFFFFF; font-family:'ArialMT'; font-size:9.0354px;">3</text>
			</g>
			
				<path id="display_eng_0_Layer1_0_MEMBER_1_MEMBER_19_1_STROKES_2_" style="fill:none;stroke:#FFFFFF;stroke-width:1.1827;stroke-miterlimit:11.8267;" d="
				M142.4,370.2h-3.1v11.6h3.1 M142.4,393.6h-3.1v11.6h3.1 M139.4,393.6v-11.7 M142.4,417.3h-3.1v-12.1"/>
			
				<path id="display_eng_0_Layer1_0_MEMBER_1_MEMBER_20_1_STROKES_2_" style="fill:none;stroke:#FFFFFF;stroke-width:1.1827;stroke-miterlimit:11.8267;" d="
				M163.9,370h-3.1v11.6h3.1 M160.8,381.6v11.7h3.1 M160.8,393.3v11.6h3.1 M163.9,417h-3.1v-12.1"/>
			
				<path id="display_eng_0_Layer1_0_MEMBER_1_MEMBER_21_1_STROKES_2_" style="fill:none;stroke:#FFFFFF;stroke-width:1.1827;stroke-miterlimit:11.8267;" d="
				M185.9,370h-3.1v11.6h3.1 M182.8,381.6v11.7h3.1 M182.8,393.3v11.6h3.1 M185.9,417h-3.1v-12.1"/>
			
				<path id="display_eng_0_Layer1_0_MEMBER_1_MEMBER_22_1_STROKES_2_" style="fill:none;stroke:#FFFFFF;stroke-width:1.1827;stroke-miterlimit:11.8267;" d="
				M208.6,370.2h-3.1v11.6h3.1 M205.5,381.8v11.7h3.1 M205.5,393.6v11.6h3.1 M208.6,417.3h-3.1v-12.1"/>
			
				<path id="display_eng_0_Layer1_0_MEMBER_1_MEMBER_23_1_STROKES_2_" style="fill:none;stroke:#FFFFFF;stroke-width:1.1827;stroke-miterlimit:11.8267;" d="
				M230.8,370.2h-3.1v11.6h3.1 M227.8,381.8v11.7h3.1 M227.8,393.6v11.6h3.1 M230.8,417.3h-3.1v-12.1"/>
			
				<path id="display_eng_0_Layer1_0_MEMBER_1_MEMBER_24_1_STROKES_2_" style="fill:none;stroke:#FFFFFF;stroke-width:1.1827;stroke-miterlimit:11.8267;" d="
				M265.3,370.2h-3.1v11.6h3.1 M262.2,381.8v11.7h3.1 M262.2,393.6v11.6h3.1 M265.3,417.3h-3.1v-12.1"/>
			
				<path id="display_eng_0_Layer1_0_MEMBER_1_MEMBER_25_1_STROKES_2_" style="fill:none;stroke:#FFFFFF;stroke-width:1.1827;stroke-miterlimit:11.8267;" d="
				M286.9,370.2h-3.1v11.6h3.1 M283.8,381.8v11.7h3.1 M283.8,393.6v11.6h3.1 M286.9,417.3h-3.1v-12.1"/>
			
				<path id="display_eng_0_Layer1_0_MEMBER_1_MEMBER_26_1_STROKES_2_" style="fill:none;stroke:#FFFFFF;stroke-width:1.1827;stroke-miterlimit:11.8267;" d="
				M308.2,370h-3.1v11.6h3.1 M305.1,381.6v11.7h3.1 M305.1,393.3v11.6h3.1 M308.2,417h-3.1v-12.1"/>
			<path style="fill:#FFFFFF;" d="M297.2,365.2v5.7h8.2L297.2,365.2z"/>
			<path style="fill:#FFFFFF;" d="M276,370.9h8.2l-8.2-5.7V370.9z"/>
			<path style="fill:#FFFFFF;" d="M254.6,370.9h8.2l-8.2-5.7L254.6,370.9L254.6,370.9z"/>
			<path style="fill:#FFFFFF;" d="M218.5,414.4v5.3h5.2l4-2.8l-4-2.5H218.5z"/>
			<path style="fill:#FFFFFF;" d="M201.4,379.1h-5.2v5.3h5.2l4-2.8L201.4,379.1z"/>
			<path style="fill:#FFFFFF;" d="M173.6,379.1v5.3h5.2l4-2.8l-4-2.5H173.6z"/>
			<path style="fill:#FFFFFF;" d="M151.7,379.1v5.3h5.2l4-2.8l-4-2.5H151.7z"/>
			<path style="fill:#FFFFFF;" d="M129.6,379.1v5.3h5.2l4-2.8l-4-2.5H129.6z"/>
			
				<path id="display_eng_0_Layer1_0_MEMBER_1_MEMBER_35_1_STROKES_2_" style="fill:none;stroke:#FFFFFF;stroke-width:1.1827;stroke-miterlimit:11.8267;" d="
				M90.3,352.2c-0.8-0.5-1.7-0.8-2.6-0.9s-1.8,0.1-2.6,0.5c-1.3,0.7-2.1,1.7-2.5,3s-0.3,2.6,0.4,3.9c0.6,1.2,1.6,2,3,2.4
				c1.3,0.5,2.5,0.4,3.8-0.4c0.9-0.5,1.7-1.2,2.1-2.1c0.5-0.9,0.6-2,0.5-3.1"/>
			<path style="fill:#FFFFFF;" d="M91.4,354.2c0.2,0.3,0.4,1,0.7,2l13.2-7l3.9-4.6l-5.9,0.7l-13.4,7.1
				C90.7,353.2,91.2,353.8,91.4,354.2z"/>
			<g>
				<text transform="matrix(1 0 0 1 103.4575 359.9464)" style="fill:#FFFFFF; font-family:'ArialMT'; font-size:7.7446px;">15</text>
			</g>
			
				<path id="display_eng_0_Layer1_0_MEMBER_1_MEMBER_37_1_STROKES_2_" style="fill:none;stroke:#FFFFFF;stroke-width:1.1827;stroke-miterlimit:11.8267;" d="
				M108.9,341.4c0.6,0.7,1.1,1.5,1.5,2.4l3.3-2c-1.3-2.2-3-4.3-5-6.4c-1.9-1.9-3.9-3.5-6-4.7l-2,3.3c0.7,0.4,1.4,0.8,2.1,1.3
				 M113.6,354.6v1.7c0,0.3,0,0.6,0,0.7h3.8c0-0.2,0-0.5,0-0.7c0-5.3-1.2-10.1-3.7-14.5 M111.6,346.2c-0.4-0.8-0.8-1.6-1.2-2.4
				 M102.7,330.6c-4.4-2.5-9.4-3.8-14.8-3.8v3.8H90 M98.6,332.9c0.7,0.3,1.4,0.7,2.1,1.1 M87.9,330.6c-1.3,0-2.2,0-2.8,0.1
				 M80.9,381.6c-2.4-0.7-4.5-1.7-6.5-2.8l-1.8,2.7c4.7,2.8,9.8,4.3,15.3,4.3c8.1,0,15.1-2.9,20.9-8.6c5.6-5.5,8.5-12.2,8.6-20.1
				 M68.9,374.2c1.7,1.8,3.5,3.3,5.6,4.5 M113.6,356.9c0,0.9,0,1.9-0.1,2.7"/>
		</g>
	</g>
	<g transform="matrix( 0.7373504638671875, 0, 0, 0.7373504638671875, 348.4,19.35) ">
		<g transform="matrix( 1, 0, 0, 1, 0,0) ">
			<g>
				<g id="info2_0_Layer1_0_MEMBER_0_MEMBER_0_FILL_3_">
					<path style="fill:#FFFFFF;stroke:#446483;stroke-width:0.109;stroke-miterlimit:2.1796;" d="M-458.7,37.7
						c6.8,7,15.1,10.4,24.8,10.4c9.7,0,18.1-3.6,24.8-10.4c6.7-6.8,10.4-15.1,10.4-24.8S-402-5-409-12c-7-7-15.1-10.4-24.8-10.4
						c-9.7,0-17.8,3.4-24.8,10.4c-7,6.8-10.4,15.1-10.4,24.8S-465.7,30.7-458.7,37.7z"/>
				</g>
			</g>
		</g>
		<path style="fill:#446483;" d="M-414.9,14.2c-2.5-0.9-7.9,3.8-10.6,6.5c-0.5,0.5-0.5-1.1-0.5-2.9c0-0.2,0-0.2,0-0.5v-0.5
			c0-1.6,0-3.2,0-4.3V9.7c6.3-1.4,11.3-7,11.3-14c0-7.9-6.3-14.2-14.2-14.2s-14.2,6.3-14.2,14.2c0,3.8,1.4,7.5,4.1,9.9
			c-0.2,0.5-0.5,0.9-0.5,1.6v7l-1.1,0.2V8.3c0-1.6-1.1-2.9-2.7-2.9h-0.5c-1.6,0-3.2,1.4-3.2,2.9v7.2l-1.1,0.2v-2.9
			c0-1.6-0.7-2.9-2.3-2.9h-0.5c-1.6,0-3.6,1.4-3.6,2.9V13v2v1.4l-1.1,10.2c-0.9,2.7-1.4,9.3,8.1,15.1c0,0,5.4,2.7,12.2-2
			c3.6-2.7,9.5-8.4,14.2-13.1l2.9-3.2c2.3-2.5,3.8-4.3,4.3-4.7C-412.9,17.2-413.1,14.7-414.9,14.2z M-428.2-7h-0.5
			c-1.6,0-3.6,1.4-3.6,2.9v3.4c-1.1-0.9-1.4-2-1.4-3.6c0-2.7,2.3-4.7,5-4.7s4.7,2.3,4.7,4.7c0,1.6-0.9,2.9-2,3.8v-3.8
			C-426-5.7-426.6-7-428.2-7z M-426,1.1c2-1.1,2.9-2.9,2.9-5.2c0-3.2-2.7-5.9-5.9-5.9c-3.2,0-5.9,2.7-5.9,5.9c0,2,1.4,3.8,2.5,5v3.6
			c-3.2-1.4-5.6-4.5-5.6-8.4c0-5,4.1-9,9-9c5,0,9,4.1,9,9c0,3.8-2,7.2-6.1,8.6L-426,1.1L-426,1.1z M-428.7-17.2
			c7.2,0,13.1,5.9,13.1,13.1c0,6.3-4.1,11.5-10.4,12.9V5.6c4.3-1.4,7.2-5.2,7.2-9.7c0-5.6-4.5-10.2-10.2-10.2
			c-5.6,0-10.2,4.5-10.2,10.2c0,4.5,2.5,8.1,6.8,9.5v3.2c0,0,0-0.2-1.1-0.2v-1c0-1.6-1.1-2.9-2.7-2.9h-0.5c-0.7,0-1.4,0.2-1.8,0.7
			c-2.3-2.5-3.6-5.6-3.6-9.3C-442-11.3-436.1-17.2-428.7-17.2z M-433.4,13.8V9.5c1.1,0,1.1,0.2,1.1,0.2v3.8L-433.4,13.8z"/>
	</g>
	<path style="fill:#99FF33;" d="M174.7,203.3v-11.5h-21.8v11.5H174.7z"/>
	<path style="fill:#FFFFFF;" d="M74.4,165.4l-7.1-3.1l4.4,6.1l22.7,18.8l2.7-2.9L74.4,165.4z"/>
	
		<path id="display_eng_0_Layer1_0_MEMBER_1_MEMBER_0_1_STROKES_1_" style="fill:none;stroke:#FFFFFF;stroke-width:1.1827;stroke-linecap:round;stroke-linejoin:round;stroke-miterlimit:9.4613;" d="
		M124.5,212c-0.3,0.3-0.6,0.5-0.9,0.8c-3.4,3.4-7.2,6.1-11.4,7.9c-4.9,2.2-10.1,3.3-15.9,3.3c-5.6,0-10.6-1-15.3-3
		c-4.3-1.9-8.4-4.6-12-8.3l-0.1-0.1c-3.6-3.6-6.3-7.6-8.2-12c-2-4.6-3-9.7-3-15.2v-0.1c0-5.9,1.1-11.3,3.4-16.1
		c1.9-4,4.4-7.6,7.7-11c0.5-0.5,0.9-0.9,1.4-1.4c3.8-3.4,8.1-6,12.6-7.5c4.1-1.5,8.5-2.3,13.2-2.3h0.1c5.1,0,9.8,0.8,14.1,2.6
		c4.5,1.8,8.8,4.5,12.6,8.3c0.1,0.1,0.3,0.3,0.4,0.4c7.5,7.4,11.3,16.4,11.4,26.9c0,0.1,0,0.2,0,0.3
		C134.8,195.8,131.4,204.5,124.5,212"/>
	
		<path id="display_eng_0_Layer1_0_MEMBER_1_MEMBER_0_2_STROKES_1_" style="fill:none;stroke:#FFFFFF;stroke-width:1.1827;stroke-miterlimit:11.8266;" d="
		M124.5,211.9L124.5,211.9l-0.1-0.1l-2-1.7 M72.9,159.1l-2.4-2.2 M83.1,149.4c0.1,0.3,0.2,0.6,0.4,1c0.3,0.8,0.8,1.9,1.4,3.1
		 M96.4,147.2v3 M110.5,149.7c-0.1,0.1-0.2,0.3-0.3,0.6c-0.3,0.7-0.8,1.9-1.5,3.4 M121,159.8l2.2-1.9 M57.8,185.6h2.7 M134.8,185.3
		H132 M131.4,170.8l-3.4,1.7 M124.4,211.9l0.1,0.1 M131.6,200.5l-3.5-1.5 M61.3,169.4l4.2,1.9 M82.7,217l-1.7,4 M71.2,210.7l-2.3,2
		 M112.2,220.9l-1.9-3.8 M60.8,200.7l4-2"/>
	<path style="fill:#FFFFFF;" d="M256.6,165.4l-7.1-3.1l4.4,6.1l22.7,18.8l2.7-2.9L256.6,165.4z"/>
	
		<path id="display_eng_0_Layer1_0_MEMBER_1_MEMBER_23_1_STROKES_1_" style="fill:none;stroke:#FFFFFF;stroke-width:1.1827;stroke-miterlimit:11.8266;" d="
		M306.7,211.9L306.7,211.9l-0.1-0.1l-2-1.7 M303.2,159.8l2.2-1.9 M278.6,147.2v3 M292.7,149.7c-0.1,0.1-0.2,0.3-0.3,0.6
		c-0.3,0.7-0.8,1.9-1.5,3.4 M255.1,159.1l-2.4-2.2 M265.3,149.4c0.1,0.3,0.2,0.6,0.4,1c0.3,0.8,0.8,1.9,1.4,3.1 M240,185.6h2.7
		 M243.5,169.4l4.2,1.9 M264.9,217l-1.7,4 M253.4,210.7l-2.3,2 M243,200.7l4-2 M317,185.3h-2.8 M313.6,170.8l-3.4,1.7 M294.4,220.9
		l-1.9-3.8 M306.6,211.9l0.1,0.1 M313.8,200.5l-3.5-1.5"/>
	
		<path id="display_eng_0_Layer1_0_MEMBER_1_MEMBER_23_2_STROKES_1_" style="fill:none;stroke:#FFFFFF;stroke-width:1.1827;stroke-linecap:round;stroke-linejoin:round;stroke-miterlimit:9.4613;" d="
		M306.7,212c-0.3,0.3-0.6,0.5-0.9,0.8c-3.4,3.4-7.2,6.1-11.4,7.9c-4.9,2.2-10.1,3.3-15.9,3.3c-5.6,0-10.6-1-15.3-3
		c-4.3-1.9-8.4-4.6-12-8.3l-0.1-0.1c-3.6-3.6-6.3-7.6-8.2-12c-2-4.6-3-9.7-3-15.2v-0.1c0-5.9,1.1-11.3,3.4-16.1
		c1.9-4,4.4-7.6,7.7-11c0.5-0.5,0.9-0.9,1.4-1.4c3.8-3.4,8.1-6,12.6-7.5c4.1-1.5,8.5-2.3,13.2-2.3h0.1c5.1,0,9.8,0.8,14.1,2.6
		c4.5,1.8,8.8,4.5,12.6,8.3c0.1,0.1,0.3,0.3,0.4,0.4c7.5,7.4,11.3,16.4,11.4,26.9c0,0.1,0,0.2,0,0.3
		C317,195.8,313.6,204.5,306.7,212"/>
	
		<path id="display_eng_0_Layer1_0_MEMBER_1_MEMBER_25_MEMBER_0_1_STROKES_1_" style="fill:none;stroke:#FFFFFF;stroke-width:1.1827;stroke-miterlimit:11.8267;" d="
		M174.7,203.3v-11.5h-21.8v11.5H174.7z"/>
	
		<path id="display_eng_0_Layer1_0_MEMBER_1_MEMBER_27_1_STROKES_1_" style="fill:none;stroke:#FFFFFF;stroke-width:1.1827;stroke-miterlimit:11.8267;" d="
		M163.8,135.9c-2.5,0-4.5,0.8-6.2,2.6c-1.8,1.8-2.6,3.9-2.6,6.3s0.8,4.4,2.6,6.2s3.8,2.6,6.2,2.6c2.5,0,4.5-0.8,6.3-2.6
		s2.6-3.8,2.6-6.2c0-2.5-0.8-4.5-2.6-6.3C168.5,136.7,166.4,135.9,163.8,135.9z"/>
	
		<path id="display_eng_0_Layer1_0_MEMBER_1_MEMBER_31_1_STROKES_1_" style="fill:none;stroke:#FFFFFF;stroke-width:1.1827;stroke-miterlimit:11.8266;" d="
		M206.3,138.5c-1.8,1.8-2.6,3.8-2.6,6.3s0.8,4.5,2.6,6.3s3.8,2.6,6.3,2.6s4.5-0.8,6.3-2.6s2.6-3.8,2.6-6.3s-0.8-4.5-2.6-6.3
		s-3.8-2.6-6.3-2.6C210.2,135.9,208,136.7,206.3,138.5z"/>
	
		<path id="display_eng_0_Layer1_0_MEMBER_1_MEMBER_33_1_STROKES_1_" style="fill:none;stroke:#FFFFFF;stroke-width:1.1827;stroke-miterlimit:11.8266;" d="
		M201.6,203.3h21.7v-11.5h-21.7V203.3z"/>
	
		<path id="display_eng_0_Layer1_0_MEMBER_1_MEMBER_63_1_STROKES_1_" style="fill:none;stroke:#FFFFFF;stroke-width:1.1827;stroke-miterlimit:11.8267;" d="
		M115.1,108.1H72.8v15.5h42.3L115.1,108.1l0-15.2H72.8v15.3"/>
	<path style="fill:#99FF33;" d="M114.6,108V92.9H73.2V108H114.6z"/>
	
		<path id="display_eng_0_Layer1_0_MEMBER_1_MEMBER_64_1_STROKES_1_" style="fill:none;stroke:#FFFFFF;stroke-width:1.1827;stroke-miterlimit:11.8266;" d="
		M256.8,123.5h42.3v-15.4h-42.3V123.5z M299.1,108.1V92.8h-42.3v15.4"/>
	<path style="fill:#99FF33;" d="M163.6,155.1c2.8,0,5.1-0.9,6.9-2.9c2-1.9,2.9-4.2,2.9-6.9s-0.9-5-2.9-6.9c-1.9-1.9-4.2-2.8-6.9-2.8
		s-5,0.9-6.9,2.8c-1.9,2-2.8,4.2-2.8,6.9c0,2.8,0.9,5.1,2.8,6.9C158.5,154.2,160.9,155.1,163.6,155.1z"/>
	<text transform="matrix(1 0 0 1 161.6445 104.4668)" style="fill:#FFFFFF; font-family:'ArialMT'; font-size:7.9795px;">TRANSFER SW</text>
	<text transform="matrix(1 0 0 1 80.9863 88.2168)" style="fill:#FFFFFF; font-family:'ArialMT'; font-size:9.3093px;">VALVE</text>
	<text transform="matrix(1 0 0 1 263.9863 88.2168)" style="fill:#FFFFFF; font-family:'ArialMT'; font-size:9.3093px;">VALVE</text>
	<text transform="matrix(1 0 0 1 259.6426 103.9691)" style="fill:#FFFFFF; font-family:'ArialMT'; font-size:9px;">CLOSED</text>
	<text transform="matrix(1 0 0 1 78.7422 104.6851)" style="font-family:'ArialMT'; font-size:10.6393px;">OPEN</text>
	<text transform="matrix(1 0 0 1 178.1704 119.457)" style="fill:#FFFFFF; font-family:'ArialMT'; font-size:10.6393px;">OFF</text>
	<text transform="matrix(1 0 0 1 132.6377 115.1567)" style="fill:#FFFFFF; font-family:'ArialMT'; font-size:8.2455px;">TO </text>
	<text transform="matrix(1 0 0 1 126.2377 125.0567)" style="fill:#FFFFFF; font-family:'ArialMT'; font-size:8.2455px;">TANK2</text>
	<text transform="matrix(1 0 0 1 228.6377 115.1567)" style="fill:#FFFFFF; font-family:'ArialMT'; font-size:8.2455px;">TO </text>
	<text transform="matrix(1 0 0 1 222.2377 125.0567)" style="fill:#FFFFFF; font-family:'ArialMT'; font-size:8.2455px;">TANK2</text>
	<text transform="matrix(1 0 0 1 149.7837 167.9707)" style="fill:#FFFFFF; font-family:'ArialMT'; font-size:8.2452px;">TANK 1</text>
	<text transform="matrix(1 0 0 1 142.6837 175.9707)" style="fill:#FFFFFF; font-family:'ArialMT'; font-size:8.2452px;">AUX PUMP</text>
	<text transform="matrix(1 0 0 1 197.7837 167.9707)" style="fill:#FFFFFF; font-family:'ArialMT'; font-size:8.2452px;">TANK 2</text>
	<text transform="matrix(1 0 0 1 190.6837 175.9707)" style="fill:#FFFFFF; font-family:'ArialMT'; font-size:8.2452px;">AUX PUMP</text>
	<text transform="matrix(1 0 0 1 160.3843 232.1943)" style="fill:#FFFFFF; font-family:'ArialMT'; font-size:10.5728px;">TOTAL FUEL</text>
	<text transform="matrix(1 0 0 1 168.5029 245.2568)" style="fill:#FFFFFF; font-family:'ArialMT'; font-size:10.5728px;">4820 </text>
	<text transform="matrix(1 0 0 1 193.8765 245.1821)" style="fill:#0099FF; font-family:'ArialMT'; font-size:9.3759px;">LBS</text>
	<text transform="matrix(1 0 0 1 64.9336 244.2847)" style="fill:#FFFFFF; font-family:'ArialMT'; font-size:9.3093px;">TANK</text>
	<text transform="matrix(1 0 0 1 94.1113 243.6738)" style="fill:#FFFFFF; font-family:'ArialMT'; font-size:9.3093px;">+19</text>
	<text transform="matrix(1 0 0 1 114.1333 244.1299)" style="fill:#0099FF; font-family:'ArialMT'; font-size:9.3759px;">&#xB0;C</text>
	<text transform="matrix(1 0 0 1 86.4175 203.4985)" style="fill:#0099FF; font-family:'ArialMT'; font-size:7.979px;">x1000</text>
	<text transform="matrix(1 0 0 1 90.5405 196.5166)" style="fill:#0099FF; font-family:'ArialMT'; font-size:7.979px;">LBS</text>
	<text transform="matrix(1 0 0 1 267.4175 203.4985)" style="fill:#0099FF; font-family:'ArialMT'; font-size:7.979px;">x1000</text>
	<text transform="matrix(1 0 0 1 271.5405 196.5166)" style="fill:#0099FF; font-family:'ArialMT'; font-size:7.979px;">LBS</text>
	<text transform="matrix(1 0 0 1 269.0557 180.3335)" style="fill:#FFFFFF; font-family:'ArialMT'; font-size:9.3753px;">QTY</text>
	<text transform="matrix(1 0 0 1 87.0557 180.3335)" style="fill:#FFFFFF; font-family:'ArialMT'; font-size:9.3753px;">QTY</text>
	<path style="fill:none;stroke:#8FCEFF;stroke-width:3;stroke-miterlimit:10;" d="M327,441.9H50c-6.6,0-12-5.4-12-12v-105
		c0-6.6,5.4-12,12-12h277c6.6,0,12,5.4,12,12v105C339,436.5,333.6,441.9,327,441.9z"/>
	<line style="fill:none;stroke:#8FCEFF;stroke-width:2;stroke-miterlimit:10;" x1="339" y1="375.8" x2="373.1" y2="375.8"/>
	<path style="fill:#D7EBFF;stroke:#0099FF;stroke-width:0.75;stroke-miterlimit:10;" d="M545.2,398.2h-168c-2.2,0-4.1-1.8-4.1-4.1
		v-36.7c0-2.2,1.8-4.1,4.1-4.1h168c2.2,0,4.1,1.8,4.1,4.1v36.7C549.3,396.4,547.4,398.2,545.2,398.2z"/>
	<text transform="matrix(1 0 0 1 382.358 373.6743)" style="font-family:'MyriadPro-Regular'; font-size:20px;">Permanent System</text>
	<text transform="matrix(1 0 0 1 382.358 392.6743)" style="font-family:'MyriadPro-Regular'; font-size:20px;">Data Area</text>
	<text transform="matrix(1 0 0 1 203.4185 201.2095)" style="fill:#FFFFFF; font-family:'ArialMT'; font-size:9px;">OFF</text>
	<text transform="matrix(1 0 0 1 156.4365 201.2095)" style="font-family:'ArialMT'; font-size:9.3759px;">ON</text>
	<text transform="matrix(1 0 0 1 157.8945 188.9692)" style="fill:#FFFFFF; font-family:'ArialMT'; font-size:8.2455px;">SW</text>
	<text transform="matrix(1 0 0 1 205.8945 188.9692)" style="fill:#FFFFFF; font-family:'ArialMT'; font-size:8.2455px;">SW</text>
	<rect x="161.2" y="67.5" style="fill:none;stroke:#FFFFFF;stroke-miterlimit:10;" width="54.1" height="22.6"/>
	<text transform="matrix(1 0 0 1 174.2876 83.1084)" style="fill:#FFFFFF; font-family:'ArialMT'; font-size:11.7697px;">FUEL</text>
	<g style="enable-background:new    ;">
		<text transform="matrix(1 0 0 1 301.7881 178.3)" style="fill:#FFFFFF; font-family:'ArialMT'; font-size:9.5225px;">5</text>
	</g>
	<g style="enable-background:new    ;">
		<text transform="matrix(1 0 0 1 301.4268 200.1016)" style="fill:#FFFFFF; font-family:'ArialMT'; font-size:9.5225px;">6</text>
	</g>
	<g style="enable-background:new    ;">
		<text transform="matrix(1 0 0 1 286.6689 216.3413)" style="fill:#FFFFFF; font-family:'ArialMT'; font-size:9.5225px;">7</text>
	</g>
	<g style="enable-background:new    ;">
		<text transform="matrix(1 0 0 1 264.4 215.0946)" style="fill:#FFFFFF; font-family:'ArialMT'; font-size:9.5225px;">0</text>
	</g>
	<g style="enable-background:new    ;">
		<text transform="matrix(1 0 0 1 248.0288 199.7)" style="fill:#FFFFFF; font-family:'ArialMT'; font-size:9.5225px;">1</text>
	</g>
	<g style="enable-background:new    ;">
		<text transform="matrix(1 0 0 1 249.0571 176.1191)" style="fill:#FFFFFF; font-family:'ArialMT'; font-size:9.5225px;">2</text>
	</g>
	<g style="enable-background:new    ;">
		<text transform="matrix(1 0 0 1 265.751 162.6548)" style="fill:#FFFFFF; font-family:'ArialMT'; font-size:9.5225px;">3</text>
	</g>
	<g style="enable-background:new    ;">
		<text transform="matrix(1 0 0 1 285.4326 162.5308)" style="fill:#FFFFFF; font-family:'ArialMT'; font-size:9.5225px;">4</text>
	</g>
	<g style="enable-background:new    ;">
		<text transform="matrix(1 0 0 1 120.5466 178.5525)" style="fill:#FFFFFF; font-family:'ArialMT'; font-size:9.5225px;">5</text>
	</g>
	<g style="enable-background:new    ;">
		<text transform="matrix(1 0 0 1 120.1852 200.354)" style="fill:#FFFFFF; font-family:'ArialMT'; font-size:9.5225px;">6</text>
	</g>
	<g style="enable-background:new    ;">
		<text transform="matrix(1 0 0 1 105.4274 216.5938)" style="fill:#FFFFFF; font-family:'ArialMT'; font-size:9.5225px;">7</text>
	</g>
	<g style="enable-background:new    ;">
		<text transform="matrix(1 0 0 1 83.1585 215.3471)" style="fill:#FFFFFF; font-family:'ArialMT'; font-size:9.5225px;">0</text>
	</g>
	<g style="enable-background:new    ;">
		<text transform="matrix(1 0 0 1 66.7873 199.9525)" style="fill:#FFFFFF; font-family:'ArialMT'; font-size:9.5225px;">1</text>
	</g>
	<g style="enable-background:new    ;">
		<text transform="matrix(1 0 0 1 67.8156 176.3716)" style="fill:#FFFFFF; font-family:'ArialMT'; font-size:9.5225px;">2</text>
	</g>
	<g style="enable-background:new    ;">
		<text transform="matrix(1 0 0 1 84.5095 162.9073)" style="fill:#FFFFFF; font-family:'ArialMT'; font-size:9.5225px;">3</text>
	</g>
	<g style="enable-background:new    ;">
		<text transform="matrix(1 0 0 1 104.1911 162.7832)" style="fill:#FFFFFF; font-family:'ArialMT'; font-size:9.5225px;">4</text>
	</g>
</g>
</svg>
