<?xml version="1.0" encoding="utf-8"?>
<!-- Generator: Adobe Illustrator 24.1.2, SVG Export Plug-In . SVG Version: 6.00 Build 0)  -->
<svg version="1.1" id="Ebene_1" xmlns="http://www.w3.org/2000/svg" xmlns:xlink="http://www.w3.org/1999/xlink" x="0px" y="0px"
	 viewBox="0 0 165.7 46.4" style="enable-background:new 0 0 165.7 46.4;" xml:space="preserve">
<style type="text/css">
	.st0{fill:#343434;}
	.st1{fill:none;stroke:#020203;stroke-linecap:round;stroke-linejoin:round;}
	.st2{clip-path:url(#SVGID_2_);fill:#F49838;}
</style>
<path class="st0" d="M109,38.1V11H49.5v27.1H109z"/>
<path id="Layer0_6_MEMBER_0_MEMBER_0_1_STROKES" class="st1" d="M109,38.1H49.5V11H109V38.1z"/>
<g>
	<defs>
		<rect id="SVGID_1_" x="54.7" y="10.6" width="49.1" height="28.1"/>
	</defs>
	<clipPath id="SVGID_2_">
		<use xlink:href="#SVGID_1_"  style="overflow:visible;"/>
	</clipPath>
	<path class="st2" d="M57.5,22.6v-7.2h4.9v1.2H59v1.7h3v1.2h-3v3H57.5z"/>
	<path class="st2" d="M63.6,15.5h1.4v3.9c0,0.6,0,1,0.1,1.2c0.1,0.3,0.2,0.5,0.4,0.7c0.2,0.2,0.6,0.3,1,0.3c0.4,0,0.7-0.1,0.9-0.3
		c0.2-0.2,0.3-0.4,0.4-0.6s0.1-0.6,0.1-1.2v-4h1.4v3.8c0,0.9,0,1.5-0.1,1.8S69,21.7,68.8,22s-0.5,0.4-0.8,0.6
		c-0.4,0.1-0.8,0.2-1.4,0.2c-0.7,0-1.2-0.1-1.6-0.2c-0.4-0.2-0.6-0.4-0.8-0.6c-0.2-0.3-0.3-0.5-0.4-0.8c-0.1-0.4-0.1-1-0.1-1.8V15.5
		z"/>
	<path class="st2" d="M70.8,22.6v-7.2h5.3v1.2h-3.9v1.6h3.6v1.2h-3.6v1.9h4v1.2H70.8z"/>
	<path class="st2" d="M77.6,22.6v-7.1H79v5.9h3.6v1.2H77.6z"/>
	<path class="st2" d="M83.6,22.6v-7.2H85v7.2H83.6z"/>
	<path class="st2" d="M86.4,22.6v-7.2h1.4l2.9,4.8v-4.8h1.3v7.2h-1.5L87.8,18v4.7H86.4z"/>
	<path class="st2" d="M97,20v-1.2h3.1v2.9c-0.3,0.3-0.7,0.6-1.3,0.8c-0.6,0.2-1.2,0.3-1.7,0.3c-0.7,0-1.4-0.2-2-0.5
		c-0.6-0.3-1-0.8-1.3-1.3c-0.3-0.6-0.4-1.2-0.4-1.9c0-0.7,0.2-1.4,0.5-2s0.8-1,1.4-1.3c0.5-0.2,1-0.4,1.7-0.4c0.9,0,1.6,0.2,2.1,0.6
		c0.5,0.4,0.8,0.9,1,1.5l-1.4,0.3c-0.1-0.4-0.3-0.6-0.6-0.8c-0.3-0.2-0.6-0.3-1-0.3c-0.6,0-1.1,0.2-1.5,0.6c-0.4,0.4-0.6,1-0.6,1.8
		c0,0.8,0.2,1.5,0.6,1.9c0.4,0.4,0.9,0.6,1.5,0.6c0.3,0,0.6-0.1,0.9-0.2c0.3-0.1,0.6-0.3,0.8-0.4V20H97z"/>
	<path class="st2" d="M72,31.2c0-0.7,0.1-1.3,0.3-1.8c0.2-0.4,0.4-0.7,0.7-1s0.6-0.5,0.9-0.6c0.4-0.2,1-0.3,1.5-0.3
		c1.1,0,1.9,0.3,2.5,1S79,30,79,31.1c0,1.2-0.3,2.1-0.9,2.7c-0.6,0.7-1.5,1-2.5,1c-1.1,0-1.9-0.3-2.5-1C72.3,33.2,72,32.3,72,31.2z
		 M73.5,31.1c0,0.8,0.2,1.4,0.6,1.8c0.4,0.4,0.8,0.6,1.4,0.6s1-0.2,1.4-0.6c0.4-0.4,0.6-1,0.6-1.9c0-0.8-0.2-1.4-0.5-1.8
		s-0.8-0.6-1.4-0.6s-1.1,0.2-1.4,0.6C73.7,29.7,73.5,30.3,73.5,31.1z"/>
	<path class="st2" d="M80.1,34.7v-7.2h1.4l2.9,4.8v-4.8h1.3v7.2h-1.5L81.4,30v4.7H80.1z"/>
</g>
</svg>
