<?xml version="1.0" encoding="utf-8"?>
<!-- Generator: Adobe Illustrator 24.1.2, SVG Export Plug-In . SVG Version: 6.00 Build 0)  -->
<svg version="1.1" id="Ebene_1" xmlns="http://www.w3.org/2000/svg" xmlns:xlink="http://www.w3.org/1999/xlink" x="0px" y="0px"
	 viewBox="0 0 273.1 203" style="enable-background:new 0 0 273.1 203;" xml:space="preserve">
<style type="text/css">
	.st0{fill:#CCCCCC;}
	.st1{fill:#009FDE;}
	.st2{fill:none;stroke:#000000;stroke-width:0.5;stroke-miterlimit:5;}
	.st3{font-family:'Tahoma';}
	.st4{font-size:16px;}
	.st5{opacity:0.2;fill:#0099FF;enable-background:new    ;}
	.st6{fill:none;stroke:#0099FF;stroke-width:2.0002;stroke-miterlimit:10.0005;}
</style>
<path class="st0" d="M126.4,12.3l-1.1,0.3l-0.8,0.6l-0.6,1.2l-6.7,3.9l-9.8-5.6l-2.5-0.2l-1.2,0.5l-27,15.5L76.1,29l0.1,1l-0.1,5.4
	l-1.7-0.3l-3.6,1.4l-1.6,0.1l-1.7,0.8l-1.3,1.3l-2.1,1.5l-0.7,0.4c-0.5,0.3-0.8,0.5-0.8,0.7l-1.1,0.3l-1.9,0.1L58.2,42l-1.5,1.1
	l-1.1,1.4l-1.3,1.1l-1.6,0.9l-4.5,1.2l-1.3,0.9l-0.1,1.8l0.1,1.7l0.5,2l0,1.7L46.1,61l0.3,3.8c0.1-0.1,0,0.4-0.1,1.3
	c-0.1,0.5-0.1,1-0.2,1.5v2.2l0.4,1.5l-0.7,1.1l-2.6,0.8l-2.1,1.7l-1.7,0.2l0,1.1l67.2,38.7l1.7-0.3l5.5-1.9l2.7-1.4v-0.7l38.2-21.7
	l3.1,1.7l0.9,0l1.2-0.5l11.5-6.5l0.9-1.1l0.4-1v-3.3l6.1-3.5l0.5,0.4l4.2-2.5c2.1-1.8,3.1-2.8,3-2.9l0.1-2.1l-6.1-3.5L180.4,51
	l-0.2-0.9l-0.6-0.6l-37.1-21.4l-0.1-8.2l-0.3-1l-1.1-1.1l-7.5-4.3l-1.2-0.5l-1.6-0.3l-2.1-0.1l-1-0.3H126.4z"/>
<path class="st1" d="M132.9,96.8l-0.7-0.1l-1-0.1l-1.3,0.5l-0.6,0.6l-0.3,2.4l-1.7-1l-0.3-4l-0.6-0.9l-0.7-0.4l-0.8,0l-3.9,2.1
	l-0.8,0.7l-0.5,0.8l-0.4,1l0,5.1l4.3,2.5l5.9,1l0.1,1.1l0.4,0.4l0.7,0.2l0,1.7l0.3,0.3l0.7,0.1l0.6-0.1l0.6-0.4l0-1.5l1.1-0.9
	l0.2-0.8l0.8-0.3l0.8-0.6l0.7-0.9l0.3-0.9l-0.4-1.3l-0.6-0.6l-1-0.6l-0.3-4.3l-0.8-0.6L132.9,96.8z"/>
<path id="Layer0_2_MEMBER_0_MEMBER_0_MEMBER_2_MEMBER_0_1_STROKES" class="st2" d="M130.1,14.5V17"/>
<path id="Layer0_2_MEMBER_0_MEMBER_0_MEMBER_2_MEMBER_1_1_STROKES" class="st2" d="M124.1,14.2v3.1"/>
<path id="Layer0_2_MEMBER_0_MEMBER_0_MEMBER_2_MEMBER_2_1_STROKES" class="st2" d="M142.4,38V20.1"/>
<path id="Layer0_2_MEMBER_0_MEMBER_0_MEMBER_2_MEMBER_3_1_STROKES" class="st2" d="M143.4,38.4v0.3"/>
<path id="Layer0_2_MEMBER_0_MEMBER_0_MEMBER_2_MEMBER_4_1_STROKES" class="st2" d="M129.4,12.6h0.2l2.8,0.4l1.2,0.5"/>
<path id="Layer0_2_MEMBER_0_MEMBER_0_MEMBER_2_MEMBER_5_1_STROKES" class="st2" d="M118.2,17.8l5.6-3.3"/>
<path id="Layer0_2_MEMBER_0_MEMBER_0_MEMBER_2_MEMBER_6_1_STROKES" class="st2" d="M133.5,26.6l-1.2,0.5l-1.4,0.3l-1.4,0.1l-1.5-0.1
	l-0.7-0.2"/>
<path id="Layer0_2_MEMBER_0_MEMBER_0_MEMBER_2_MEMBER_7_1_STROKES" class="st2" d="M140.8,22.4l-7.3,4.2"/>
<path id="Layer0_2_MEMBER_0_MEMBER_0_MEMBER_2_MEMBER_8_1_STROKES" class="st2" d="M140.8,17.8l0.9,0.7l0.6,0.8l0.2,0.8l-0.2,0.8
	l-0.5,0.8l-0.9,0.7"/>
<path id="Layer0_2_MEMBER_0_MEMBER_0_MEMBER_2_MEMBER_9_1_STROKES" class="st2" d="M133.5,13.6l7.3,4.2"/>
<path id="Layer0_2_MEMBER_0_MEMBER_0_MEMBER_2_MEMBER_10_1_STROKES" class="st2" d="M133.5,44.5l7.3-4.2"/>
<path id="Layer0_2_MEMBER_0_MEMBER_0_MEMBER_2_MEMBER_11_1_STROKES" class="st2" d="M126.9,45l1.1,0.3l1.5,0.1l1.4-0.1l1.4-0.3
	l1.2-0.5"/>
<path id="Layer0_2_MEMBER_0_MEMBER_0_MEMBER_2_MEMBER_12_1_STROKES" class="st2" d="M140.8,40.3l0.9-0.7l0.6-0.8l0.2-0.8"/>
<path id="Layer0_2_MEMBER_0_MEMBER_0_MEMBER_2_MEMBER_13_1_STROKES" class="st2" d="M127.3,12.3l1,0.2l0.8,0.4l0.6,0.5l0.3,0.6
	l-0.1,0.6l-0.4,0.5l-0.7,0.4l-1,0.3l-1,0.1l-1-0.2l-0.8-0.4l-0.6-0.5l-0.3-0.6l0.1-0.6l0.4-0.5l0.8-0.4l0.9-0.3L127.3,12.3z"/>
<path id="Layer0_2_MEMBER_0_MEMBER_0_MEMBER_2_MEMBER_14_1_STROKES" class="st2" d="M124.1,17.3l0.3,0.6l0.6,0.5l0.8,0.3l1,0.2l1,0
	l1-0.3l0.7-0.4l0.4-0.6l0.1-0.6"/>
<path id="Layer0_2_MEMBER_0_MEMBER_0_MEMBER_2_MEMBER_15_1_STROKES" class="st2" d="M122.5,16.5l1.6-0.9"/>
<path id="Layer0_2_MEMBER_0_MEMBER_0_MEMBER_2_MEMBER_16_1_STROKES" class="st2" d="M123.7,19.2l-1.2-2.6"/>
<path id="Layer0_2_MEMBER_0_MEMBER_0_MEMBER_2_MEMBER_17_1_STROKES" class="st2" d="M128.3,19.9l-4.5-0.7"/>
<path id="Layer0_2_MEMBER_0_MEMBER_0_MEMBER_2_MEMBER_18_1_STROKES" class="st2" d="M131.6,17.9l-3.4,1.9"/>
<path id="Layer0_2_MEMBER_0_MEMBER_0_MEMBER_2_MEMBER_19_1_STROKES" class="st2" d="M130.4,15.3l1.2,2.6"/>
<path id="Layer0_2_MEMBER_0_MEMBER_0_MEMBER_2_MEMBER_20_1_STROKES" class="st2" d="M130.1,15.2l0.3,0.1"/>
<path id="Layer0_2_MEMBER_0_MEMBER_0_MEMBER_2_MEMBER_21_1_STROKES" class="st2" d="M123.7,20.1l-1.2-2.6"/>
<path id="Layer0_2_MEMBER_0_MEMBER_0_MEMBER_2_MEMBER_22_1_STROKES" class="st2" d="M128.3,20.9l-4.5-0.7"/>
<path id="Layer0_2_MEMBER_0_MEMBER_0_MEMBER_2_MEMBER_23_1_STROKES" class="st2" d="M131.6,18.9l-3.4,1.9"/>
<path id="Layer0_2_MEMBER_0_MEMBER_0_MEMBER_2_MEMBER_24_1_STROKES" class="st2" d="M122.5,16.5v1"/>
<path id="Layer0_2_MEMBER_0_MEMBER_0_MEMBER_2_MEMBER_25_1_STROKES" class="st2" d="M123.7,19.2v1"/>
<path id="Layer0_2_MEMBER_0_MEMBER_0_MEMBER_2_MEMBER_26_1_STROKES" class="st2" d="M128.3,19.9v1"/>
<path id="Layer0_2_MEMBER_0_MEMBER_0_MEMBER_2_MEMBER_27_1_STROKES" class="st2" d="M131.6,17.9v1"/>
<path id="Layer0_2_MEMBER_0_MEMBER_0_MEMBER_2_MEMBER_28_1_STROKES" class="st2" d="M154.5,37.7L96.2,71.4"/>
<path id="Layer0_2_MEMBER_0_MEMBER_0_MEMBER_2_MEMBER_29_1_STROKES" class="st2" d="M96.2,72.1l58.3-33.6v-0.7"/>
<path id="Layer0_2_MEMBER_0_MEMBER_0_MEMBER_2_MEMBER_30_1_STROKES" class="st2" d="M96.2,71.4v0.7"/>
<path id="Layer0_2_MEMBER_0_MEMBER_0_MEMBER_2_MEMBER_31_1_STROKES" class="st2" d="M142.9,31.1l11.6,6.7"/>
<path id="Layer0_2_MEMBER_0_MEMBER_0_MEMBER_2_MEMBER_32_1_STROKES" class="st2" d="M67.1,54.6l8.3-4.8"/>
<path id="Layer0_2_MEMBER_0_MEMBER_0_MEMBER_2_MEMBER_33_1_STROKES" class="st2" d="M67.1,55.3v-0.7"/>
<path id="Layer0_2_MEMBER_0_MEMBER_0_MEMBER_2_MEMBER_34_1_STROKES" class="st2" d="M96.2,71.4L67.1,54.6"/>
<path id="Layer0_2_MEMBER_0_MEMBER_0_MEMBER_2_MEMBER_35_1_STROKES" class="st2" d="M67.1,55.3l29.1,16.8"/>
<path id="Layer0_2_MEMBER_0_MEMBER_0_MEMBER_2_MEMBER_36_1_STROKES" class="st2" d="M143.4,37.7l-1-0.6"/>
<path id="Layer0_2_MEMBER_0_MEMBER_0_MEMBER_2_MEMBER_37_1_STROKES" class="st2" d="M142.5,37.9l0.9,0.5v-0.7"/>
<path id="Layer0_2_MEMBER_0_MEMBER_0_MEMBER_2_MEMBER_38_1_STROKES" class="st2" d="M127,45.4l1.6,0.9h1.8l13.1-7.6l0-1"/>
<path id="Layer0_2_MEMBER_0_MEMBER_0_MEMBER_2_MEMBER_39_1_STROKES" class="st2" d="M102,66.8l0.2,0"/>
<path id="Layer0_2_MEMBER_0_MEMBER_0_MEMBER_2_MEMBER_40_1_STROKES" class="st2" d="M102.8,66.8l0.2-0.2l-0.1-0.3l-0.3-0.2l-0.4,0
	l-0.4,0.1l-0.2,0.2l0.1,0.3l0.3,0.2l0.4,0L102.8,66.8z"/>
<path id="Layer0_2_MEMBER_0_MEMBER_0_MEMBER_2_MEMBER_41_1_STROKES" class="st2" d="M146.6,41.1l-0.3-0.2h-0.4l-0.4,0.1l-0.2,0.2
	l0.1,0.2l0.3,0.2l0.4,0l0.4-0.1l0.2-0.2L146.6,41.1z"/>
<path id="Layer0_2_MEMBER_0_MEMBER_0_MEMBER_2_MEMBER_42_1_STROKES" class="st2" d="M131.1,50l0.2,0"/>
<path id="Layer0_2_MEMBER_0_MEMBER_0_MEMBER_2_MEMBER_43_1_STROKES" class="st2" d="M130.8,49.8l0.3,0.2l0.4,0l0.4-0.1l0.2-0.2
	l0-0.3l-0.3-0.2l-0.4,0l-0.4,0.1l-0.2,0.2L130.8,49.8z"/>
<path id="Layer0_2_MEMBER_0_MEMBER_0_MEMBER_2_MEMBER_44_1_STROKES" class="st2" d="M75.9,50.7l-0.4,0l-0.4,0.1L74.9,51l0.1,0.2
	l0.3,0.2l0.4,0l0.2-0.1"/>
<path id="Layer0_2_MEMBER_0_MEMBER_0_MEMBER_2_MEMBER_45_1_STROKES" class="st2" d="M92.2,68.2l0.2-0.1"/>
<path id="Layer0_2_MEMBER_0_MEMBER_0_MEMBER_2_MEMBER_46_1_STROKES" class="st2" d="M93.1,68.2l0.2-0.2l-0.1-0.3l-0.3-0.2l-0.4,0
	l-0.4,0.1l-0.2,0.2L92,68l0.3,0.2l0.4,0L93.1,68.2z"/>
<path id="Layer0_2_MEMBER_0_MEMBER_0_MEMBER_2_MEMBER_47_1_STROKES" class="st2" d="M83.8,63.3l0.2-0.1"/>
<path id="Layer0_2_MEMBER_0_MEMBER_0_MEMBER_2_MEMBER_48_1_STROKES" class="st2" d="M84.2,63.4l0.4-0.1l0.2-0.2l-0.1-0.3l-0.3-0.2
	L84,62.6l-0.4,0.1l-0.2,0.2l0,0.3l0.3,0.2L84.2,63.4z"/>
<path id="Layer0_2_MEMBER_0_MEMBER_0_MEMBER_2_MEMBER_49_1_STROKES" class="st2" d="M72.9,57L73,57"/>
<path id="Layer0_2_MEMBER_0_MEMBER_0_MEMBER_2_MEMBER_50_1_STROKES" class="st2" d="M72.7,56.4l-0.2,0.2l0,0.3l0.3,0.2l0.4,0
	l0.4-0.1l0.2-0.2l-0.1-0.2l-0.3-0.2H73L72.7,56.4z"/>
<path id="Layer0_2_MEMBER_0_MEMBER_0_MEMBER_2_MEMBER_51_1_STROKES" class="st2" d="M148.1,36l0.2,0"/>
<path id="Layer0_2_MEMBER_0_MEMBER_0_MEMBER_2_MEMBER_52_1_STROKES" class="st2" d="M148.9,35.9l0.2-0.3l-0.1-0.3
	c-0.5-0.4-0.9-0.4-1.2,0c-0.4,0.4-0.1,0.6,0.7,0.6L148.9,35.9z"/>
<path id="Layer0_2_MEMBER_0_MEMBER_0_MEMBER_2_MEMBER_53_1_STROKES" class="st2" d="M76.1,29.3V53"/>
<path id="Layer0_2_MEMBER_0_MEMBER_0_MEMBER_2_MEMBER_54_1_STROKES" class="st2" d="M95.9,65.3l-0.5-0.2"/>
<path id="Layer0_2_MEMBER_0_MEMBER_0_MEMBER_2_MEMBER_55_1_STROKES" class="st2" d="M96.3,65.3l-0.4-0.1"/>
<path id="Layer0_2_MEMBER_0_MEMBER_0_MEMBER_2_MEMBER_56_1_STROKES" class="st2" d="M96.7,65.3l-0.4,0.1"/>
<path id="Layer0_2_MEMBER_0_MEMBER_0_MEMBER_2_MEMBER_57_1_STROKES" class="st2" d="M96.7,65.3l0.5-0.2"/>
<path id="Layer0_2_MEMBER_0_MEMBER_0_MEMBER_2_MEMBER_58_1_STROKES" class="st2" d="M95.4,65.1L76.9,54.4"/>
<path id="Layer0_2_MEMBER_0_MEMBER_0_MEMBER_2_MEMBER_59_1_STROKES" class="st2" d="M125.7,48.7L97.1,65.1"/>
<path id="Layer0_2_MEMBER_0_MEMBER_0_MEMBER_2_MEMBER_60_1_STROKES" class="st2" d="M126.5,24v23.2"/>
<path id="Layer0_2_MEMBER_0_MEMBER_0_MEMBER_2_MEMBER_61_1_STROKES" class="st2" d="M76.1,53.4L76.1,53"/>
<path id="Layer0_2_MEMBER_0_MEMBER_0_MEMBER_2_MEMBER_62_1_STROKES" class="st2" d="M76.5,54.1l-0.3-0.3l-0.1-0.4"/>
<path id="Layer0_2_MEMBER_0_MEMBER_0_MEMBER_2_MEMBER_63_1_STROKES" class="st2" d="M76.5,54.1l0.4,0.3"/>
<path id="Layer0_2_MEMBER_0_MEMBER_0_MEMBER_2_MEMBER_64_1_STROKES" class="st2" d="M126,48.3l-0.4,0.4"/>
<path id="Layer0_2_MEMBER_0_MEMBER_0_MEMBER_2_MEMBER_65_1_STROKES" class="st2" d="M126,48.3l0.3-0.3"/>
<path id="Layer0_2_MEMBER_0_MEMBER_0_MEMBER_2_MEMBER_66_1_STROKES" class="st2" d="M126.4,47.6l-0.1,0.4"/>
<path id="Layer0_2_MEMBER_0_MEMBER_0_MEMBER_2_MEMBER_67_1_STROKES" class="st2" d="M126.4,47.6l0.1-0.4"/>
<path id="Layer0_2_MEMBER_0_MEMBER_0_MEMBER_2_MEMBER_68_1_STROKES" class="st2" d="M95.9,41.6l-0.5-0.2"/>
<path id="Layer0_2_MEMBER_0_MEMBER_0_MEMBER_2_MEMBER_69_1_STROKES" class="st2" d="M96.3,41.7l-0.4-0.1"/>
<path id="Layer0_2_MEMBER_0_MEMBER_0_MEMBER_2_MEMBER_70_1_STROKES" class="st2" d="M96.7,41.6l-0.4,0.1"/>
<path id="Layer0_2_MEMBER_0_MEMBER_0_MEMBER_2_MEMBER_71_1_STROKES" class="st2" d="M96.7,41.6l0.5-0.2"/>
<path id="Layer0_2_MEMBER_0_MEMBER_0_MEMBER_2_MEMBER_72_1_STROKES" class="st2" d="M95.4,41.4L76.9,30.8"/>
<path id="Layer0_2_MEMBER_0_MEMBER_0_MEMBER_2_MEMBER_73_1_STROKES" class="st2" d="M126,24.8L97.1,41.4"/>
<path id="Layer0_2_MEMBER_0_MEMBER_0_MEMBER_2_MEMBER_74_1_STROKES" class="st2" d="M76.1,29.7l-0.1-0.4"/>
<path id="Layer0_2_MEMBER_0_MEMBER_0_MEMBER_2_MEMBER_75_1_STROKES" class="st2" d="M76.5,30.4l-0.3-0.4l-0.1-0.3"/>
<path id="Layer0_2_MEMBER_0_MEMBER_0_MEMBER_2_MEMBER_76_1_STROKES" class="st2" d="M76.5,30.4l0.4,0.3"/>
<path id="Layer0_2_MEMBER_0_MEMBER_0_MEMBER_2_MEMBER_77_1_STROKES" class="st2" d="M125.9,23.2L108,12.9"/>
<path id="Layer0_2_MEMBER_0_MEMBER_0_MEMBER_2_MEMBER_78_1_STROKES" class="st2" d="M76.1,29.2c0,0,0-0.1,0.1-0.2V29l0.1-0.1v0l0,0
	v0h0v0l0.1-0.1c0.1-0.1,0.3-0.2,0.5-0.4h0v0L103.5,13"/>
<path id="Layer0_2_MEMBER_0_MEMBER_0_MEMBER_2_MEMBER_79_1_STROKES" class="st2" d="M107.9,12.8c-0.6-0.3-1.3-0.4-2.1-0.4
	c-0.8,0-1.5,0.2-2.1,0.5"/>
<path id="Layer0_2_MEMBER_0_MEMBER_0_MEMBER_2_MEMBER_80_1_STROKES" class="st2" d="M126,23.2c0.3,0.2,0.5,0.4,0.5,0.7v0.1
	c0,0.1,0,0.2-0.1,0.3v0.1l-0.1,0.1v0l-0.2,0.2"/>
<path id="Layer0_2_MEMBER_0_MEMBER_0_MEMBER_2_MEMBER_81_1_STROKES" class="st2" d="M117.9,84.5l60.3-34.8"/>
<path id="Layer0_2_MEMBER_0_MEMBER_0_MEMBER_2_MEMBER_82_1_STROKES" class="st2" d="M180.4,50.9v20"/>
<path id="Layer0_2_MEMBER_0_MEMBER_0_MEMBER_2_MEMBER_83_1_STROKES" class="st2" d="M115.5,88.4v20.5"/>
<path id="Layer0_2_MEMBER_0_MEMBER_0_MEMBER_2_MEMBER_84_1_STROKES" class="st2" d="M179.1,75.1l4.2-2.4"/>
<path id="Layer0_2_MEMBER_0_MEMBER_0_MEMBER_2_MEMBER_85_1_STROKES" class="st2" d="M114.4,112.5l2.1-1.2"/>
<path id="Layer0_2_MEMBER_0_MEMBER_0_MEMBER_2_MEMBER_86_1_STROKES" class="st2" d="M178.2,49.7c0.6-0.3,1.1-0.3,1.5-0.1
	c0.4,0.2,0.6,0.7,0.7,1.3"/>
<path id="Layer0_2_MEMBER_0_MEMBER_0_MEMBER_2_MEMBER_87_1_STROKES" class="st2" d="M115.5,88.3c0.1-0.8,0.4-1.5,0.8-2.1
	c0.5-0.7,1-1.3,1.6-1.7"/>
<path id="Layer0_2_MEMBER_0_MEMBER_0_MEMBER_2_MEMBER_88_1_STROKES" class="st2" d="M114.1,111.4c0.8-0.7,1.3-1.5,1.4-2.5"/>
<path id="Layer0_2_MEMBER_0_MEMBER_0_MEMBER_2_MEMBER_89_1_STROKES" class="st2" d="M180.4,71c0.1,0.5,0.3,0.9,0.6,1.1
	c0.4,0.2,0.8,0.2,1.3,0"/>
<path id="Layer0_2_MEMBER_0_MEMBER_0_MEMBER_2_MEMBER_90_1_STROKES" class="st2" d="M114,111.4l-0.2,0.1c-2.5,1.3-4.9,2.1-7.1,2.3
	l-0.2,0"/>
<path id="Layer0_2_MEMBER_0_MEMBER_0_MEMBER_2_MEMBER_91_1_STROKES" class="st2" d="M114.4,112.5l-0.2,0.1c-2.7,1.2-5.2,2-7.6,2.3"
	/>
<path id="Layer0_2_MEMBER_0_MEMBER_0_MEMBER_2_MEMBER_92_1_STROKES" class="st2" d="M182.4,71.9c1.7-1,3-2.4,4.1-4.2"/>
<path id="Layer0_2_MEMBER_0_MEMBER_0_MEMBER_2_MEMBER_93_1_STROKES" class="st2" d="M183.3,72.7l0.1-0.1c1-0.7,2.1-1.7,3-2.9
	l0.1-0.1"/>
<path id="Layer0_2_MEMBER_0_MEMBER_0_MEMBER_2_MEMBER_94_1_STROKES" class="st2" d="M118.5,85.5l59.8-34.5"/>
<path id="Layer0_2_MEMBER_0_MEMBER_0_MEMBER_2_MEMBER_95_1_STROKES" class="st2" d="M179.1,51.2v23.9"/>
<path id="Layer0_2_MEMBER_0_MEMBER_0_MEMBER_2_MEMBER_96_1_STROKES" class="st2" d="M178.3,50.9L178.3,50.9L178.3,50.9l0.3-0.1h0
	l0,0h0.1l0,0h0.1v0h0.1v0h0v0h0v0h0v0l0.1,0.2"/>
<path id="Layer0_2_MEMBER_0_MEMBER_0_MEMBER_2_MEMBER_97_1_STROKES" class="st2" d="M116.5,89v22.3"/>
<path id="Layer0_2_MEMBER_0_MEMBER_0_MEMBER_2_MEMBER_98_1_STROKES" class="st2" d="M118.3,85.5c-0.5,0.4-1,1-1.3,1.6
	c-0.3,0.7-0.5,1.3-0.6,2"/>
<path id="Layer0_2_MEMBER_0_MEMBER_0_MEMBER_2_MEMBER_99_1_STROKES" class="st2" d="M106.6,113.9v1"/>
<path id="Layer0_2_MEMBER_0_MEMBER_0_MEMBER_2_MEMBER_100_1_STROKES" class="st2" d="M186.6,67.7v2"/>
<path id="Layer0_2_MEMBER_0_MEMBER_0_MEMBER_2_MEMBER_101_1_STROKES" class="st2" d="M173.2,77.9l5.5-3.2"/>
<path id="Layer0_2_MEMBER_0_MEMBER_0_MEMBER_2_MEMBER_102_1_STROKES" class="st2" d="M135.3,99.8l18.8-10.9"/>
<path id="Layer0_2_MEMBER_0_MEMBER_0_MEMBER_2_MEMBER_103_1_STROKES" class="st2" d="M116.9,110.4l7.4-4.3"/>
<path id="Layer0_2_MEMBER_0_MEMBER_0_MEMBER_2_MEMBER_104_1_STROKES" class="st2" d="M178.8,74.7V51.4"/>
<path id="Layer0_2_MEMBER_0_MEMBER_0_MEMBER_2_MEMBER_105_1_STROKES" class="st2" d="M179.7,49.6l-36.9-21.3"/>
<path id="Layer0_2_MEMBER_0_MEMBER_0_MEMBER_2_MEMBER_106_1_STROKES" class="st2" d="M186.6,67.7l-6-3.5"/>
<path id="Layer0_2_MEMBER_0_MEMBER_0_MEMBER_2_MEMBER_107_1_STROKES" class="st2" d="M106.6,113.9L39.4,75.1"/>
<path id="Layer0_2_MEMBER_0_MEMBER_0_MEMBER_2_MEMBER_108_1_STROKES" class="st2" d="M106.6,114.9L39.2,76"/>
<path id="Layer0_2_MEMBER_0_MEMBER_0_MEMBER_2_MEMBER_109_1_STROKES" class="st2" d="M112.4,86.3L47.5,48.8"/>
<path id="Layer0_2_MEMBER_0_MEMBER_0_MEMBER_2_MEMBER_110_1_STROKES" class="st2" d="M112.8,109.9L46.4,71.5"/>
<path id="Layer0_2_MEMBER_0_MEMBER_0_MEMBER_2_MEMBER_111_1_STROKES" class="st2" d="M137.8,78.8l-0.3-0.3l-0.4-0.3
	c-1.8-0.8-3.6,0.1-5.4,2.7c-1.8,2.6-2.2,4.7-1.3,6.5l0.3,0.4l0.3,0.3c1.7,1.2,3.5,0.5,5.4-2c1.9-2.5,2.5-4.6,1.9-6.5l-0.2-0.5
	L137.8,78.8z"/>
<path id="Layer0_2_MEMBER_0_MEMBER_0_MEMBER_2_MEMBER_112_1_STROKES" class="st2" d="M135.6,83c-0.3-0.2-0.7,0-1,0.5
	c-0.3,0.5-0.3,0.9,0,1.2"/>
<path id="Layer0_2_MEMBER_0_MEMBER_0_MEMBER_2_MEMBER_113_1_STROKES" class="st2" d="M135.9,83.1c-0.3,0-0.6,0.2-0.9,0.6
	c-0.3,0.5-0.3,0.8-0.1,1.1l0.1,0.1l0.1,0c0.3,0.1,0.6-0.1,0.9-0.5c0.3-0.4,0.3-0.8,0.2-1.1l-0.1-0.1L135.9,83.1z"/>
<path id="Layer0_2_MEMBER_0_MEMBER_0_MEMBER_2_MEMBER_114_1_STROKES" class="st2" d="M135.6,83l0.4,0.2"/>
<path id="Layer0_2_MEMBER_0_MEMBER_0_MEMBER_2_MEMBER_115_1_STROKES" class="st2" d="M134.6,84.7l0.4,0.2"/>
<path id="Layer0_2_MEMBER_0_MEMBER_0_MEMBER_2_MEMBER_116_1_STROKES" class="st2" d="M167.7,65.6v-6.8L146,71.3v20l6.1-3.5"/>
<path id="Layer0_2_MEMBER_0_MEMBER_0_MEMBER_2_MEMBER_117_1_STROKES" class="st2" d="M153.3,69.4l-2.5,1.5"/>
<path id="Layer0_2_MEMBER_0_MEMBER_0_MEMBER_2_MEMBER_118_1_STROKES" class="st2" d="M162.8,63.9l-2,1.2"/>
<path id="Layer0_2_MEMBER_0_MEMBER_0_MEMBER_2_MEMBER_119_1_STROKES" class="st2" d="M149.2,73.6v11.5"/>
<path id="Layer0_2_MEMBER_0_MEMBER_0_MEMBER_2_MEMBER_120_1_STROKES" class="st2" d="M162.8,63.9c0.6-0.2,1-0.2,1.3,0.1"/>
<path id="Layer0_2_MEMBER_0_MEMBER_0_MEMBER_2_MEMBER_121_1_STROKES" class="st2" d="M149.7,85.9L149.7,85.9l-0.1-0.1l0,0l-0.1,0
	l-0.2-0.5"/>
<path id="Layer0_2_MEMBER_0_MEMBER_0_MEMBER_2_MEMBER_122_1_STROKES" class="st2" d="M149.2,73.6c0-0.5,0.2-1,0.5-1.5
	c0.3-0.5,0.6-0.9,1-1.2"/>
<path id="Layer0_2_MEMBER_0_MEMBER_0_MEMBER_2_MEMBER_123_1_STROKES" class="st2" d="M171.2,68.2c0.5,0,0.8,0.2,1,0.6"/>
<path id="Layer0_2_MEMBER_0_MEMBER_0_MEMBER_2_MEMBER_124_1_STROKES" class="st2" d="M158.2,90.6c-0.3,0.1-0.5,0-0.7-0.2"/>
<path id="Layer0_2_MEMBER_0_MEMBER_0_MEMBER_2_MEMBER_125_1_STROKES" class="st2" d="M164.1,63.9l7.6,4.4"/>
<path id="Layer0_2_MEMBER_0_MEMBER_0_MEMBER_2_MEMBER_126_1_STROKES" class="st2" d="M149.9,86l7.7,4.5"/>
<path id="Layer0_2_MEMBER_0_MEMBER_0_MEMBER_2_MEMBER_127_1_STROKES" class="st2" d="M162.7,74.9l-2.4,1.4"/>
<path id="Layer0_2_MEMBER_0_MEMBER_0_MEMBER_2_MEMBER_128_1_STROKES" class="st2" d="M172.7,81.3V70.8"/>
<path id="Layer0_2_MEMBER_0_MEMBER_0_MEMBER_2_MEMBER_129_1_STROKES" class="st2" d="M160.5,89.9l10.8-6.2"/>
<path id="Layer0_2_MEMBER_0_MEMBER_0_MEMBER_2_MEMBER_130_1_STROKES" class="st2" d="M158.9,78.8v10.4"/>
<path id="Layer0_2_MEMBER_0_MEMBER_0_MEMBER_2_MEMBER_131_1_STROKES" class="st2" d="M171.9,69.9c0.5,0.1,0.7,0.4,0.8,0.9"/>
<path id="Layer0_2_MEMBER_0_MEMBER_0_MEMBER_2_MEMBER_132_1_STROKES" class="st2" d="M172.7,81.2c0,1-0.5,1.9-1.3,2.5"/>
<path id="Layer0_2_MEMBER_0_MEMBER_0_MEMBER_2_MEMBER_133_1_STROKES" class="st2" d="M160.5,89.9c-0.4,0.2-0.7,0.2-1,0.1
	c-0.3-0.1-0.5-0.4-0.6-0.8"/>
<path id="Layer0_2_MEMBER_0_MEMBER_0_MEMBER_2_MEMBER_134_1_STROKES" class="st2" d="M158.9,78.7c0.1-1,0.5-1.8,1.3-2.4"/>
<path id="Layer0_2_MEMBER_0_MEMBER_0_MEMBER_2_MEMBER_135_1_STROKES" class="st2" d="M172.2,68.9c0.3,0.5,0.5,1.1,0.5,1.9"/>
<path id="Layer0_2_MEMBER_0_MEMBER_0_MEMBER_2_MEMBER_136_1_STROKES" class="st2" d="M158,90.6L158,90.6c0.4,0,0.8,0,1.1-0.1l0,0
	h0.1c0.4-0.1,0.8-0.3,1.2-0.5"/>
<path id="Layer0_2_MEMBER_0_MEMBER_0_MEMBER_2_MEMBER_137_1_STROKES" class="st2" d="M160.2,83c-0.1,0-0.2,0-0.3,0
	c-0.1,0.1-0.1,0.1-0.2,0.2l-0.1,0.1c-0.2,0.3-0.2,0.5-0.2,0.7V84l0,0.1l0,0c0.2,0.1,0.4,0.1,0.6-0.2c0.2-0.3,0.3-0.5,0.2-0.8l0-0.1
	l0,0L160.2,83L160.2,83z"/>
<path id="Layer0_2_MEMBER_0_MEMBER_0_MEMBER_2_MEMBER_138_1_STROKES" class="st2" d="M171.2,77.4L171.2,77.4
	c0.2,0.1,0.3,0.1,0.5-0.1l0.1-0.1c0.2-0.2,0.2-0.4,0.2-0.7v-0.1l0,0v-0.1l0,0l-0.1,0c-0.2-0.1-0.4,0-0.6,0.3
	C171.1,76.8,171.1,77.1,171.2,77.4L171.2,77.4z"/>
<path id="Layer0_2_MEMBER_0_MEMBER_0_MEMBER_2_MEMBER_139_1_STROKES" class="st2" d="M153.3,69.4l11.6,6.7l6.9-4"/>
<path id="Layer0_2_MEMBER_0_MEMBER_0_MEMBER_2_MEMBER_140_1_STROKES" class="st2" d="M164.9,76.1v-3"/>
<path id="Layer0_2_MEMBER_0_MEMBER_0_MEMBER_2_MEMBER_141_1_STROKES" class="st2" d="M171.8,72.1v-3"/>
<path id="Layer0_2_MEMBER_0_MEMBER_0_MEMBER_2_MEMBER_142_1_STROKES" class="st2" d="M165.9,71.2l4.9-2.8"/>
<path id="Layer0_2_MEMBER_0_MEMBER_0_MEMBER_2_MEMBER_143_1_STROKES" class="st2" d="M164.9,73c0.1-0.8,0.4-1.4,1.1-1.8"/>
<path id="Layer0_2_MEMBER_0_MEMBER_0_MEMBER_2_MEMBER_144_1_STROKES" class="st2" d="M171.8,69c0-0.2-0.1-0.4-0.3-0.5l-0.1-0.1h-0.1
	v0h-0.2l0,0h-0.1"/>
<path id="Layer0_2_MEMBER_0_MEMBER_0_MEMBER_2_MEMBER_145_1_STROKES" class="st2" d="M153.3,69.3V69h0l0.1-0.3v0l0,0v0
	c0.1-0.3,0.3-0.4,0.4-0.6l0,0l5.5-3.2"/>
<path id="Layer0_2_MEMBER_0_MEMBER_0_MEMBER_2_MEMBER_146_1_STROKES" class="st2" d="M171.3,68.4l-11.5-3.5"/>
<path id="Layer0_2_MEMBER_0_MEMBER_0_MEMBER_2_MEMBER_147_1_STROKES" class="st2" d="M125,93.7l-3.5,2"/>
<path id="Layer0_2_MEMBER_0_MEMBER_0_MEMBER_2_MEMBER_148_1_STROKES" class="st2" d="M119.8,103.5v-4.5"/>
<path id="Layer0_2_MEMBER_0_MEMBER_0_MEMBER_2_MEMBER_149_1_STROKES" class="st2" d="M126.3,93.7c-0.3-0.2-0.7-0.2-1.3,0"/>
<path id="Layer0_2_MEMBER_0_MEMBER_0_MEMBER_2_MEMBER_150_1_STROKES" class="st2" d="M121.4,95.8c-0.5,0.3-0.8,0.8-1.2,1.4
	c-0.3,0.6-0.5,1.2-0.5,1.7"/>
<path id="Layer0_2_MEMBER_0_MEMBER_0_MEMBER_2_MEMBER_151_1_STROKES" class="st2" d="M127.5,98.9v-3.7"/>
<path id="Layer0_2_MEMBER_0_MEMBER_0_MEMBER_2_MEMBER_152_1_STROKES" class="st2" d="M125.4,93.9l-3.5,2.1"/>
<path id="Layer0_2_MEMBER_0_MEMBER_0_MEMBER_2_MEMBER_153_1_STROKES" class="st2" d="M120.1,103.2v-4"/>
<path id="Layer0_2_MEMBER_0_MEMBER_0_MEMBER_2_MEMBER_154_1_STROKES" class="st2" d="M127.5,95.1c-0.1-0.5-0.3-0.9-0.7-1.2
	c-0.4-0.3-0.8-0.3-1.3-0.1"/>
<path id="Layer0_2_MEMBER_0_MEMBER_0_MEMBER_2_MEMBER_155_1_STROKES" class="st2" d="M121.8,96c-0.5,0.3-0.8,0.8-1.2,1.4
	c-0.3,0.6-0.5,1.2-0.5,1.7"/>
<path id="Layer0_2_MEMBER_0_MEMBER_0_MEMBER_2_MEMBER_156_1_STROKES" class="st2" d="M119.8,103.5l4.3,2.5"/>
<path id="Layer0_2_MEMBER_0_MEMBER_0_MEMBER_2_MEMBER_157_1_STROKES" class="st2" d="M127.5,98.9l1.9,1.1"/>
<path id="Layer0_2_MEMBER_0_MEMBER_0_MEMBER_2_MEMBER_158_1_STROKES" class="st2" d="M127.5,98.9l-7.3,4.2l4,2.3"/>
<path id="Layer0_2_MEMBER_0_MEMBER_0_MEMBER_2_MEMBER_159_1_STROKES" class="st2" d="M126.4,93.7l0.3,0.2"/>
<path id="Layer0_2_MEMBER_0_MEMBER_0_MEMBER_2_MEMBER_160_1_STROKES" class="st2" d="M124.1,105.5l8.3,1.4"/>
<path id="Layer0_2_MEMBER_0_MEMBER_0_MEMBER_2_MEMBER_161_1_STROKES" class="st2" d="M124.1,106l8.3,1.4h0.3c1,0,1.9-0.3,2.8-0.7
	c1.1-0.5,1.6-1.2,1.7-2.1"/>
<path id="Layer0_2_MEMBER_0_MEMBER_0_MEMBER_2_MEMBER_162_1_STROKES" class="st2" d="M132.5,106.9l0.3,0c1.8,0,3.1-0.5,4-1.7
	c0.9-1.2,0.5-2.4-1.4-3.4"/>
<path id="Layer0_2_MEMBER_0_MEMBER_0_MEMBER_2_MEMBER_163_1_STROKES" class="st2" d="M137.2,104.2v0.4"/>
<path id="Layer0_2_MEMBER_0_MEMBER_0_MEMBER_2_MEMBER_164_1_STROKES" class="st2" d="M129.3,102.9c-0.1,0.2-0.1,0.4-0.1,0.5
	c0,0.5,0.3,0.9,0.9,1.3c0.6,0.3,1.3,0.5,2.2,0.5c0.9,0,1.6-0.2,2.2-0.5c0.6-0.4,0.9-0.8,0.9-1.3l-0.1-0.5"/>
<path id="Layer0_2_MEMBER_0_MEMBER_0_MEMBER_2_MEMBER_165_1_STROKES" class="st2" d="M133.8,105.3l-0.3-0.1c-0.8-0.1-1.6-0.1-2.4,0
	l-0.3,0.1"/>
<path id="Layer0_2_MEMBER_0_MEMBER_0_MEMBER_2_MEMBER_166_1_STROKES" class="st2" d="M135.4,104.1l-0.2,0.1
	c-0.4,0.1-0.8,0.5-1.3,0.9l-0.1,0.2"/>
<path id="Layer0_2_MEMBER_0_MEMBER_0_MEMBER_2_MEMBER_167_1_STROKES" class="st2" d="M130.8,105.3l-0.1-0.2
	c-0.4-0.4-0.8-0.8-1.3-0.9"/>
<path id="Layer0_2_MEMBER_0_MEMBER_0_MEMBER_2_MEMBER_168_1_STROKES" class="st2" d="M129.2,104.1c0,0.5,0.3,0.9,0.9,1.3
	c0.6,0.4,1.3,0.5,2.2,0.5c0.8,0,1.6-0.2,2.2-0.5c0.6-0.4,0.9-0.8,0.9-1.3"/>
<path id="Layer0_2_MEMBER_0_MEMBER_0_MEMBER_2_MEMBER_169_1_STROKES" class="st2" d="M129.2,103.3v0.7"/>
<path id="Layer0_2_MEMBER_0_MEMBER_0_MEMBER_2_MEMBER_170_1_STROKES" class="st2" d="M130.8,105.3v0.3"/>
<path id="Layer0_2_MEMBER_0_MEMBER_0_MEMBER_2_MEMBER_171_1_STROKES" class="st2" d="M133.8,105.3v0.3"/>
<path id="Layer0_2_MEMBER_0_MEMBER_0_MEMBER_2_MEMBER_172_1_STROKES" class="st2" d="M135.4,103.3v0.8"/>
<path id="Layer0_2_MEMBER_0_MEMBER_0_MEMBER_2_MEMBER_173_1_STROKES" class="st2" d="M129.4,102.9c0.1,1.1,1.1,1.7,2.9,1.6
	c1.9,0,2.8-0.6,2.9-1.7"/>
<path id="Layer0_2_MEMBER_0_MEMBER_0_MEMBER_2_MEMBER_174_1_STROKES" class="st2" d="M133,96.6c-1.5-0.2-2.6,0.1-3.2,0.8l-0.2,0.2
	l-0.1,0.2c-0.3,1,0.4,1.7,1.9,1.9c1.5,0.3,2.6,0.1,3.3-0.6l0.2-0.2l0.2-0.2l0.1-0.2l0.1-0.2C135.3,97.4,134.5,96.8,133,96.6z"/>
<path id="Layer0_2_MEMBER_0_MEMBER_0_MEMBER_2_MEMBER_175_1_STROKES" class="st2" d="M129.4,98.2v4.5"/>
<path id="Layer0_2_MEMBER_0_MEMBER_0_MEMBER_2_MEMBER_176_1_STROKES" class="st2" d="M135.2,102.8v-4.6"/>
<path id="Layer0_2_MEMBER_0_MEMBER_0_MEMBER_2_MEMBER_177_1_STROKES" class="st2" d="M130,107.6c0.1,0.9,1,1.3,2.4,1.3
	c1.4,0,2.2-0.5,2.2-1.4"/>
<path id="Layer0_2_MEMBER_0_MEMBER_0_MEMBER_2_MEMBER_178_1_STROKES" class="st2" d="M134.6,107.5v-0.4"/>
<path id="Layer0_2_MEMBER_0_MEMBER_0_MEMBER_2_MEMBER_179_1_STROKES" class="st2" d="M130,107.5V107"/>
<path id="Layer0_2_MEMBER_0_MEMBER_0_MEMBER_2_MEMBER_180_1_STROKES" class="st2" d="M131.2,110.3c0,0.4,0.4,0.6,1.1,0.6
	c0.7,0,1-0.2,1.1-0.6"/>
<path id="Layer0_2_MEMBER_0_MEMBER_0_MEMBER_2_MEMBER_181_1_STROKES" class="st2" d="M131.2,110.3v-1.5"/>
<path id="Layer0_2_MEMBER_0_MEMBER_0_MEMBER_2_MEMBER_182_1_STROKES" class="st2" d="M133.4,110.3v-1.5"/>
<path id="Layer0_2_MEMBER_0_MEMBER_0_MEMBER_2_MEMBER_183_1_STROKES" class="st2" d="M39.4,74.9l1,0.1c0.5,0.1,0.9,0,1.2-0.3
	c0.3-0.4,0.6-0.8,0.8-1l0.4-0.3l0.5-0.3c0.5-0.1,1.1-0.3,1.7-0.4c0.5-0.2,0.9-0.6,1.2-1.2l0.1-0.2l0-0.1l-0.1-0.1l-0.3-0.6L46,70.2
	c-0.1-0.5-0.2-1.2,0-2.3c0.2-1.3,0.2-2.1,0.2-2.4l0-2c-0.1-1.3-0.1-2.3,0-3c0.1-0.9,0.4-1.8,0.8-2.9l0.3-0.8l0.1-0.9L47.3,54
	c-0.2-0.9-0.3-1.4-0.4-1.6c-0.1-0.6-0.1-1.2-0.1-1.7l0-0.7c-0.1-0.5-0.1-0.8-0.1-1c0-0.4,0.1-0.6,0.5-0.8l2-0.6
	c0.4-0.1,1.1-0.3,2.1-0.6c0.8-0.3,1.5-0.5,2-0.7l0.9-0.5l0.8-0.7c0.8-1.1,1.5-1.9,1.9-2.3c0.8-0.7,1.7-1.1,2.8-1.1l1.9-0.1l1.1-0.3
	l1.3-0.7c0.2-0.1,1.1-0.9,2.8-2.3c1.2-1,2.2-1.6,2.9-1.6l0.9-0.1c0.5-0.1,1.1-0.3,2-0.7c0.9-0.4,1.5-0.6,1.9-0.7l0.6,0l0.2,0"/>
<text transform="matrix(1 0 0 1 67 160.8898)"><tspan x="0" y="0" class="st3 st4">REFUEL/DEFUEL SERVICE</tspan><tspan x="0" y="19.2" class="st3 st4">LIGHT SWITCH </tspan></text>
<g>
	<ellipse class="st5" cx="125.9" cy="104.6" rx="30.8" ry="30.8"/>
	<ellipse class="st6" cx="125.9" cy="104.6" rx="30.8" ry="30.8"/>
</g>
</svg>
