<?xml version="1.0" encoding="iso-8859-1"?>
<!-- Generator: Adobe Illustrator 24.3.0, SVG Export Plug-In . SVG Version: 6.00 Build 0)  -->
<svg version="1.1" id="hyd-sys-2" xmlns="http://www.w3.org/2000/svg" xmlns:xlink="http://www.w3.org/1999/xlink" x="0px" y="0px"
	 viewBox="0 0 1275.6 575.4" style="enable-background:new 0 0 1275.6 575.4;" xml:space="preserve">
<style type="text/css">
	.st0{fill:none;}
	.st1{fill:#FFFFFF;}
	.st2{fill:#1F1A17;}
	.st3{fill:#CC0000;}
	.st4{fill:#0033CC;}
	.st5{fill:none;stroke:#000000;stroke-linecap:round;stroke-linejoin:round;}
	.st6{fill:#FF9900;}
	.st7{fill:none;stroke:#000000;stroke-width:0.2;stroke-linecap:round;stroke-linejoin:round;}
	.st8{fill:none;stroke:#CC0000;stroke-width:0.2;stroke-linecap:round;stroke-linejoin:round;}
	.st9{fill:#808080;}
	.st10{fill:none;stroke:#0033CC;stroke-width:0.2;stroke-linecap:round;stroke-linejoin:round;}
	.st11{fill:#993366;}
	.st12{fill:#FFFFFF;stroke:#000000;stroke-linecap:round;stroke-linejoin:round;}
	.st13{fill:#0099FF;fill-opacity:0.298;}
	.st14{fill:#999999;fill-opacity:0.298;}
	.st15{fill:#666666;fill-opacity:0.298;}
	.st16{fill:#CCCCCC;fill-opacity:0.298;}
	.st17{fill:#B3E1FF;}
	.st18{fill:none;stroke:#000000;stroke-width:2;stroke-linecap:round;stroke-linejoin:round;}
	.st19{fill:#E68383;}
	.st20{fill:#FFFF00;}
	.st21{fill:#D29900;}
	.st22{font-family:'ArialMT';}
	.st23{font-size:12px;}
	.st24{font-size:11px;}
	.st25{font-size:13px;}
	.st26{font-size:9px;}
	.st27{font-family:'MyriadPro-Regular';}
	.st28{font-size:12.9px;}
	.st29{fill:#C0C0C0;stroke:#000000;stroke-miterlimit:10;}
	.st30{fill:#C0C0C0;}
	.st31{font-size:15px;}
</style>
<g id="clp-hyd-ptu-px-sw" transform="matrix( 1, 0, 0, 1, 11.55,7.7) ">
	<g id="clp-hyd-ptu-px-sw-hl">
		<g id="Layer1_11_FILL_1_">
			<path class="st0" d="M903.6,195.2v-18.5c0-4.7-2.3-7-7-7h-81c-4.7,0-7,2.3-7,7v18.5c0,4.7,2.3,7,7,7h81
				C901.3,202.2,903.6,199.8,903.6,195.2z"/>
		</g>
	</g>
</g>
<g id="clp-hyd-filter-manif">
	<rect id="clp-hyd-filter-manif-hl" x="353.1" y="79.5" class="st0" width="174.2" height="212.4"/>
</g>
<g id="clp-park-brake-handpump">
	<path id="clp-park-brake-handpump-hl" class="st0" d="M996.2,6.4h-31.5c-4.7,0.1-7,2.4-7,7v7.7L933.7,6c-4-2.4-7.2-1.7-9.7,2.2
		l-2.4,3.8c-2.5,4-1.8,7.1,2.2,9.7l5.6,3.6c-7,4.8-11.6,12.8-11.6,21.9c0,14.6,11.9,26.5,26.5,26.5s26.5-11.9,26.5-26.5
		c0-0.4,0-0.8,0-1.3h25.3c4.7,0,7-2.3,7-7V13.4C1003.2,8.7,1001,6.4,996.2,6.4z"/>
</g>
<g id="clp-hyd-park-px-transd" transform="matrix( 1, 0, 0, 1, 12.55,6.7) ">
	<g id="clp-hyd-park-px-transd-hl">
		<g id="Layer1_19_FILL_1_">
			<path class="st0" d="M978.3,305.8v43.5c0,4.7,2.3,7,7,7h31.5c4.7,0,7-2.3,7-7v-43.5c0-4.7-2.3-7-7-7h-31.5
				C980.6,298.9,978.3,301.1,978.3,305.8z"/>
		</g>
	</g>
</g>
<g id="clp-hyd-reserv-rh">
	<path id="clp-hyd-reserv-rh-hl" class="st0" d="M668.5,401.7h-13v-58.9c0-4.7-2.3-7-7-7h-18v-10.7c0-4.7-2.3-7-7-7h-67
		c-4.7,0-7,2.3-7,7v17.4c0,0.1,0,0.2,0,0.3v10.1h-78.2c-4.7,0-7,2.3-7,7v32.5c0,4.7,2.3,7,7,7h21.2v35.9c0,4.7,2.3,7,7,7h99
		c4.7,0,7-2.3,7-7v-1.1h63c4.7,0,7-2.3,7-7v-18.5C675.5,404.1,673.1,401.7,668.5,401.7z"/>
</g>
<g id="clp-hyd-isol-vlv-rh">
	<path id="clp-hyd-isol-vlv-rh-hl" class="st0" d="M917.7,52.3h-64c-4.7,0-7,2.3-7,7v15.5c0,4.7,2.3,7,7,7h11.7v7.4c2.7,1,4,3.3,4,7
		v19.9c0,3.7-1.3,6-4,7v22.1c0,4.7,2.3,7,7,7h25.5c4.7,0,7-2.3,7-7v-22.7c-1.9-1.2-2.9-3.3-2.9-6.4v-20c0-3.1,1-5.2,2.9-6.4v-7.9
		h12.8c4.7,0,7-2.3,7-7V59.3C924.7,54.6,922.3,52.3,917.7,52.3z"/>
</g>
<g id="clp-hyd-isol-vlv-sw-rh">
	<path id="clp-hyd-isol-vlv-sw-rh-hl" class="st0" d="M967.8,115.6V97.1c0-4.7-2.3-7-7-7h-51c-4.7,0-7,2.3-7,7v18.5c0,4.7,2.3,7,7,7
		h51C965.5,122.6,967.8,120.2,967.8,115.6z M868.8,115.6V97.1c0-4.7-2.3-7-7-7h-51c-4.7,0-7,2.3-7,7v18.5c0,4.7,2.3,7,7,7h51
		C866.5,122.6,868.8,120.2,868.8,115.6z"/>
</g>
<g id="clp-eng-hyd-pump" transform="matrix( 1, 0, 0, 1, -2.5,-267.95) ">
	<g id="clp-eng-hyd-pump-hl">
		<g id="Layer1_3_FILL">
			<path class="st0" d="M237.7,332.7h-39.3c-4.7,0-7,2.3-7,7v39.2c0,4.7,2.3,7,7,7h39.2c4.7,0,7-2.3,7-7v-39.2
				C244.7,335,242.4,332.7,237.7,332.7z"/>
		</g>
	</g>
</g>
<g id="clp-hyd-firew-sov" transform="matrix( 1, 0, 0, 1, -4.05,-372.7) ">
	<g id="clp-hyd-firew-sov-hl">
		<g id="Layer1_4_FILL">
			<path class="st0" d="M194.8,667.3c-4.7,0-7,2.3-7,7v36.5c0,4.7,2.3,7,7,7h94c4.7,0,7-2.3,7-7v-36.5c0-4.7-2.3-7-7-7H194.8z"/>
		</g>
	</g>
</g>
<g id="clp-hyd-heatexch" transform="matrix( 1, 0, 0, 1, 0,0) ">
	<g id="clp-hyd-heatexch-hl">
		<g id="Layer1_5_FILL">
			<path class="st0" d="M763.2,49c-0.2-4.3-2.5-6.5-7-6.5h-76c-4.5,0-6.8,2.2-7,6.5c0,0.6,0,1.2,0,1.8v9.7l-2-2
				c-3.3-3.3-6.6-3.3-9.9,0L636,83.7c-3.3,3.3-3.3,6.6,0,9.9l25.2,25.2c3.3,3.3,6.6,3.3,9.9,0l25.2-25.2c3.3-3.3,3.3-6.6,0-9.9
				l-3.7-3.7h63.5c4.7,0,7-2.3,7-7V50.7C763.2,50.1,763.2,49.6,763.2,49z"/>
		</g>
	</g>
</g>
<g id="clp-hyd-heatexch-bvlv" transform="matrix( 1, 0, 0, 1, 0,0) ">
	<g id="clp-hyd-heatexch-bvlv-hl">
		<g id="Layer1_6_FILL">
			<path class="st0" d="M619.3,71.1h19.6c4.7,0,7-2.3,7-7V46.5c0-4.7-2.3-7-7-7H560c-4.7,0-7,2.3-7,7v17.6c0,4.7,2.3,7,7,7h19.6
				c-1,1.2-1.5,2.8-1.5,5v28.7c0,4.7,2.3,7,7,7h28.7c4.7,0,7-2.3,7-7V76.1C620.8,73.9,620.3,72.3,619.3,71.1z"/>
		</g>
	</g>
</g>
<g id="clp-eng-hyd-warn-sw" transform="matrix( 1, 0, 0, 1, 11.55,7.7) ">
	<g id="clp-eng-hyd-warn-sw-hl">
		<g id="Layer1_11_FILL">
			<path class="st0" d="M340.2,152.2v-18.5c0-4.7-2.3-7-7-7h-73c-4.7,0-7,2.3-7,7v18.5c0,4.7,2.3,7,7,7h73
				C337.9,159.2,340.2,156.9,340.2,152.2z"/>
		</g>
	</g>
</g>
<g id="clp-hyd-px-transd-edp" transform="matrix( 1, 0, 0, 1, 12.55,6.7) ">
	<g id="clp-hyd-px-transd-edp-hl">
		<g id="Layer1_19_FILL">
			<path class="st0" d="M515.7,135.5V179c0,4.7,2.3,7,7,7h31.5c4.7,0,7-2.3,7-7v-43.5c0-4.7-2.3-7-7-7h-31.5
				C518,128.6,515.7,130.9,515.7,135.5z"/>
		</g>
	</g>
</g>
<g id="clp-hyd-ecol-bottles" transform="matrix( 1, 0, 0, 1, 0,0) ">
	<g id="clp-hyd-ecol-bottles-hl">
		<g id="Layer1_14_FILL_1_">
			<path class="st0" d="M600.6,512v-17.5c0-4.7-2.3-7-7-7h-47.5c-4.7,0-7,2.3-7,7v66c0,4.7,2.3,7,7,7h47.5c4.7,0,7-2.3,7-7V546h53
				c4.7,0,7-2.3,7-7v-20c0-4.7-2.3-7-7-7H600.6z"/>
		</g>
	</g>
</g>
<g id="clp-sys-rudder-elev">
	<rect id="clp-sys-rudder-elev-hl" x="661.4" y="343.9" class="st0" width="103.6" height="48.2"/>
</g>
<g id="clp-sys-spoiler-gear">
	<rect id="clp-sys-spoiler-gear-hl" x="839.1" y="356.2" class="st0" width="115.9" height="56.3"/>
</g>
<g id="clp-sys-emrg-brake">
	<rect id="clp-sys-emrg-brake-hl" x="967.4" y="366.1" class="st0" width="85.5" height="40.8"/>
</g>
<g id="clp-hyd-brake-accu">
	<path id="clp-hyd-brake-accu-hl" class="st0" d="M1057.2,257.8h-17.1V208c0-13.5-11.1-24.6-24.6-24.6h-3.3
		c-13.5,0-24.6,11.1-24.6,24.6v56c0,0.2,0,0.3,0,0.5c0,0.1,0,0.1,0,0.2v16.5c0,4.7,2.3,7,7,7h62.5c4.7,0,7-2.3,7-7v-16.5
		C1064.2,260,1061.9,257.8,1057.2,257.8z"/>
</g>
<g id="clp-hyd-ptu">
	<path id="clp-hyd-ptu-hl" class="st0" d="M905.1,263.8h-43h-24.4h-35.2c-13.8,0-25,11.3-25,25l0,0c0,0.1,0,0.3,0,0.4h-5.3
		c-4.7,0-7,2.3-7,7v18.5c0,4.7,2.3,7,7,7h57c4.7,0,7-2.4,7-7v-0.9h1.6h24.4h43c6.1,0,11.1-5,11.1-11.1v-27.8
		C916.2,268.8,911.2,263.8,905.1,263.8z"/>
</g>
<g id="clp-hyd-case-drain-edp2">
	<path id="clp-hyd-case-drain-edp2-hl" class="st0" d="M289,76.8h-34.5c-4.7,0-7,2.3-7,7v15c0,4.6,2.2,6.9,6.7,7v14c0,4.7,2.3,7,7,7
		h20.5c4.6,0,7-2.3,7-7v-14h0.3c4.6,0,7-2.3,7-7v-15C296,79.1,293.7,76.8,289,76.8z"/>
</g>
<g id="clp-system">
	<path class="st1" d="M586.4,77.5v26.8H612V77.5H586.4z"/>
	<path class="st2" d="M612.4,93.9h-1v9.9h-24.3l-0.1-9.9h-1v10.7h0.1v0.1l0,0l0,0h0.1v0.1l0,0v0.1h0.1l0,0h25.6v-0.1h0.1v-0.1h0.1
		l0,0l0,0v-0.1l0,0v-0.1l0.1-0.1V93.9 M587,87.8v-9.9h24.3v9.8h1V77.2h-0.1v-0.1l0,0V77l0,0l0,0h-0.1l0,0l0,0l-0.1-0.1h-25.6V77
		h-0.1v0.1l0,0l0,0h-0.1v0.1l0,0v0.1h-0.1v10.5C586.1,87.8,587,87.8,587,87.8z"/>
	<path class="st3" d="M578.2,129.2H571v168.9h-46.4v72.4h7.1v-65.2h46.5L578.2,129.2L578.2,129.2z"/>
	<path class="st4" d="M815.8,306.2h-7.1v157.2h7.1V306.2z"/>
	<path id="Layer0_0_1_STROKES" class="st5" d="M298.9,473v92H186v-92H298.9z"/>
	<path class="st6" d="M755.3,159.6v-7.1H600.1v7.1H755.3z"/>
	<path class="st6" d="M790,46.2h-7.2v113.4h7.2V46.2z"/>
	<path class="st1" d="M554.9,431.2h31.2v-26h-31.2V431.2z"/>
	<path d="M555.8,406.2h-0.9v25h0.9V406.2 M555.8,405.3h-0.9v0.9L555.8,405.3 M555.8,406.2v-0.9l-0.9,0.9H555.8 M586.1,406.2v-0.9
		h-30.4v0.9H586.1 M587,432.1v-26.8h-0.9v0.9v25h-30.4h-0.9v0.9H587z"/>
	<path id="Layer0_5_1_STROKES" class="st7" d="M554.9,431.2v0.9H587v-26.8h-0.9v0.9v25h-30.4H554.9v-25v-0.9h0.9h30.4 M555.8,405.3
		l-0.9,0.9h0.9V405.3z M586.1,406.2h-30.4v25"/>
	<path class="st1" d="M573.6,418.7l1.8-1.8v-3.5l-5.4-2.7l-3.5,1.8l-1,0.9l-0.9,1.8l1.9,3.6l3.5,0.9L573.6,418.7z"/>
	<path d="M567.4,412.2V406h-11.6v13.4L567.4,412.2z"/>
	<path d="M574.5,405.3v6.2l11.6,7.2v-13.4L574.5,405.3L574.5,405.3z"/>
	<path class="st2" d="M574.6,411.5l-0.2-0.2l-0.2-0.2l-1-0.8l-1-0.4l-1.1-0.2h-0.2l-0.3-0.1l-0.2,0.1H570l-1,0.2l-1,0.4l-1,0.8
		l-0.2,0.2l-0.1,0.2l-0.2,0.2l-0.4,0.6l-0.1,0.2l-0.1,0.2l-0.4,0.8l-0.2,1v1.2l0.2,1l0.4,0.8l0.1,0.2l0.1,0.2l0.4,0.7l0.2,0.1
		l0.1,0.2l0.2,0.2l0.8,0.6l0.2,0.2l1,0.4h0.2l0.3,0.1h0.2h0.2l0.3,0.1h0.5l0.2-0.1h0.3h0.2l0.3-0.1h0.2l1-0.4l1-0.8l0.2-0.2l0.6-0.5
		l0.9-2l0.1-0.5v-0.2l0.1-0.2v-0.6l-0.1-0.3v-0.2l-0.1-0.5l-0.4-1l-0.3-0.6l-0.2-0.2l-0.2-0.2L574.6,411.5z"/>
	<path class="st2" d="M577,418.9l-0.4-1l-14.4,5.4l0,0v0.1h-0.1l0,0H562v0.1l0,0l0,0h-0.1v0.1l0,0v0.4l0,0v0.1h0.1l0,0l0,0v0.1l0,0
		l0,0h0.1l0,0h0.1l11.6,3.2l-10.9,3.2l0.3,1l12.6-3.7h0.1l0,0h0.1v-0.1l0,0l0,0l0,0v-0.1h0.1v-0.1l0,0v-0.4v-0.1l0,0H576V427l0,0
		l0,0l0,0l0,0h-0.1h-0.1l-11.8-3.2L577,418.9z"/>
	<path d="M528.2,292.8V79.5H353.1v213.2L528.2,292.8 M527.2,80.3v211.5H353.9V80.3H527.2z"/>
	<path class="st3" d="M224.3,129.2h7.2v-20.5h-7.2V129.2z"/>
	<path id="Layer0_12_1_STROKES" class="st8" d="M231.5,129.2h-7.2v-20.5h7.2V129.2z"/>
	<path class="st3" d="M377.1,146.8H353v7.1h24.1V146.8z"/>
	<path class="st3" d="M377.1,131.6H370V153h7.1V131.6z"/>
	<path class="st6" d="M602.3,103.8h-7.1v213.1h7.1V103.8z"/>
	<path class="st3" d="M871.7,132.1v-7.2l-458.8,0.8v7.1L871.7,132.1 M900.5,124.8v7.2l25.2-0.1v-7.2L900.5,124.8z"/>
	<path class="st3" d="M528.2,154.2v-7.1h-22.5v7.1H528.2z"/>
	<path class="st3" d="M510.3,154.2V129h-7.1v25.2H510.3z"/>
	<path class="st3" d="M437.9,129.2h-7.2v89.4h7.2V129.2z"/>
	<path class="st3" d="M432.6,209.7v-7.1h-80.4v7.1H432.6z"/>
	<path id="Layer0_20_1_STROKES" class="st8" d="M432.6,209.7h-80.4v-7.1h80.4V209.7z"/>
	<path class="st3" d="M705.1,131.2H698v212.7h7.1V131.2z"/>
	<path class="st3" d="M984.7,157.9h-7.1v208.3h7.1V157.9z"/>
	<path class="st3" d="M925.8,131.1h-7.2v225.1h7.2V131.1z"/>
	<path class="st3" d="M815.8,128.3h-7.1V214h7.1V128.3z"/>
	<path id="Layer0_24_1_STROKES" class="st8" d="M815.8,128.3V214h-7.1v-85.7H815.8z"/>
	<path class="st3" d="M815.8,214.1h-7.1v59h7.1V214.1z"/>
	<path id="Layer0_25_1_STROKES" class="st8" d="M815.8,214.1v59h-7.1v-59H815.8z"/>
	<path class="st3" d="M390.6,132.8v-7.1H224.3v7.1H390.6z"/>
	<path class="st3" d="M983,44.3h-25.4v7.2H983V44.3z"/>
	<path class="st3" d="M984.7,44.3h-7.1v113.5h7.1V44.3z"/>
	<path class="st3" d="M941.8,187v-7.1h-20.5v7.1H941.8z"/>
	<path class="st3" d="M963.3,179.9v7.1l20.5-0.3v-7.1L963.3,179.9z"/>
	<path class="st3" d="M983,188.1v7.1h32.8v-7.1H983z"/>
	<path class="st3" d="M1015.8,202.1v-11.6h-7.1v11.6H1015.8z"/>
	<path class="st3" d="M979.5,347.2v7.2h21.5v-7.2H979.5z"/>
	<path class="st9" d="M634.5,349h-75v54.5h75V349z"/>
	<path d="M635.4,349h-0.9v0.9v53.6h-74.1h-0.9v0.9h75.9V349 M560.4,349v0.9h74.1V349H560.4 M560.4,350h-0.9v53.6h0.9V350 M560.4,349
		l-0.9,0.9h0.9V349 M560.4,349h-0.9v0.9L560.4,349z"/>
	<path id="Layer0_44_1_STROKES" class="st7" d="M559.5,349h0.9h74.1h0.9v55.4h-75.9v-0.9V350V349z M560.4,349l-0.9,0.9h0.9V349z
		 M634.5,349v0.9v53.6h-74.1h-0.9 M634.5,350h-74.1v53.6"/>
	<path d="M513,370.5v0.9h46.5v-0.9H513 M512,371.4h1v-0.9L512,371.4 M512,371.4v13.4h1v-13.4H512 M512,384.8v0.9h48.3v-15.2h-0.9
		v0.9v13.4H513L512,384.8 M513,370.5h-1v0.9L513,370.5z"/>
	<path id="Layer0_45_1_STROKES" class="st7" d="M513,370.5h46.5h0.9v15.2H512v-0.9v-13.4v-0.9L513,370.5v0.9h46.5v-0.9 M513,371.4
		v13.4h46.5v-13.4 M513,384.8h-1 M513,370.5l-1,0.9h1"/>
	<path d="M634.5,350h-13.4v53.6h13.4V350z"/>
	<path d="M634.5,350.9H622v52.7h12.5V350.9 M635.4,350h-0.9v0.9v52.7H622h-0.9v0.9h14.3L635.4,350 M621.1,350.9l0.9-0.9h-0.9V350.9
		 M622,350v0.9h12.5V350H622 M622,350.9h-0.9v52.7h0.9V350.9 M621.1,350.9h0.9V350L621.1,350.9z"/>
	<path id="Layer0_47_1_STROKES" class="st7" d="M621.1,350.9h0.9V350L621.1,350.9V350h0.9h12.5h0.9v54.5h-14.3v-0.9L621.1,350.9
		L621.1,350.9z M622,350.9h12.5V350 M621.1,403.5h0.9v-52.7 M622,403.5h12.5v-52.7"/>
	<path d="M512,375v7.1h121.6V375H512z"/>
	<path d="M513,375v6.2h120.6V375H513 M513,381.2h-1v0.9h122.5v-8h-0.9v0.9v6.2H513 M513,374.1v0.9h120.6v-0.9H513 M513,375h-1v6.2h1
		V375 M513,374.1l-1,0.9h1V374.1 M513,374.1h-1v0.9L513,374.1z"/>
	<path id="Layer0_49_1_STROKES" class="st7" d="M513,374.1h-1v0.9L513,374.1h120.6h0.9v8H512v-0.9V375h1V374.1z M512,381.2h1V375
		h120.6v-0.9 M633.6,375v6.2H513"/>
	<path class="st1" d="M326.2,190.9v29.5H353v-29.5H326.2z"/>
	<path class="st1" d="M339.6,208.8l1.8-2.7l-1.8-3.6l-2.7-1.8l-3.6,1.8l-1.8,3.6l1.8,2.7l3.6,1.8L339.6,208.8z"/>
	<path class="st1" d="M326.2,243.6v29.5H353v-29.5H326.2z"/>
	<path class="st4" d="M545.1,262.4v-7.2L353,254.4v7.1L545.1,262.4z"/>
	<path class="st1" d="M449.5,240.1v-25.9h-31.3v25.9H449.5z"/>
	<path d="M419.2,215.1h-0.9v25h0.9V215.1 M419.2,214.1l-0.9,0.9h0.9V214.1 M418.2,214.1v0.9l0.9-0.9H418.2 M449.5,215.1v-0.9h-30.3
		v0.9H449.5 M450.5,214.1h-0.9v0.9v25h-30.3h-0.9v0.9h32.2v-26.8L450.5,214.1L450.5,214.1z"/>
	<path id="Layer0_55_1_STROKES" class="st7" d="M450.5,240.9h-32.2V240v-25v-0.9h0.9h30.3h0.9v26.8L450.5,240.9L450.5,240.9z
		 M449.5,215.1v25h-30.3h-0.9 M449.5,214.1v0.9h-30.3v25 M419.2,214.1l-0.9,0.9h0.9V214.1z"/>
	<path class="st1" d="M433.4,219.5l-3.6,1.8l-0.9,0.9L428,224l1.8,3.6l3.6,0.9l3.6-0.9l1.8-1.8v-3.6L433.4,219.5z"/>
	<path d="M430.8,221.1v-6.2h-11.6v13.4L430.8,221.1z"/>
	<path d="M437.9,220.4l11.6,7.2v-13.4h-11.6V220.4z"/>
	<path class="st6" d="M658.6,94.4H613v7.2h45.6V94.4z"/>
	<path class="st6" d="M613,79.2v7.2h45.6v-7.2H613z"/>
	<path class="st4" d="M546,255.2h-7.1v104.6h7.1V255.2z"/>
	<path class="st4" d="M538.9,355.3v7.2h21.5v-7.2H538.9z"/>
	<path class="st4" d="M437.9,404.5h-7.2v61.6h7.2V404.5z"/>
	<path class="st4" d="M430.8,460.8v7.1h385v-7.1H430.8z"/>
	<path class="st4" d="M706,392.1h-7.1v72.5h7.1V392.1z"/>
	<path class="st4" d="M437.9,240.9h-7.2V408h7.2V240.9z"/>
	<path class="st6" d="M546,310.6v7.1h56.2v-7.1H546z"/>
	<path class="st4" d="M463,440.2h-7.2v23.2h7.2V440.2z"/>
	<path class="st3" d="M838.2,197.1V190h-27.7v7.1H838.2z"/>
	<path id="Layer0_94_1_STROKES" class="st8" d="M838.2,197.1h-27.7V190h27.7V197.1z"/>
	<path class="st6" d="M761.5,284.8v7.1h35.8v-7.1H761.5z"/>
	<path d="M900.8,86.3h-1v1.1v54.2H873h-0.9v1.1h28.6V86.3 M873,86.3v1.1h26.8v-1.1H873 M873,87.4h-0.9v54.2h0.9V87.4 M873,86.3
		l-0.9,1.1h0.9V86.3 M873,86.3h-0.9v1.1L873,86.3z"/>
	<path class="st6" d="M775,152.5v7.1h15v-7.1H775z"/>
	<path class="st6" d="M930.8,51.5v-7.2h-148v7.2H930.8z"/>
	<path class="st3" d="M891.2,278.7h7.1v-23.1h-7.1V278.7z"/>
	<path id="Layer0_115_1_STROKES" class="st8" d="M898.3,278.7h-7.1v-23.1h7.1V278.7z"/>
	<path class="st4" d="M898.8,322.7v-7.2h-85.6v7.2H898.8z"/>
	<path id="Layer0_116_1_STROKES" class="st10" d="M898.8,322.7h-85.6v-7.2h85.6V322.7z"/>
	<path class="st4" d="M892,301.2v21.4h7.1v-21.4H892z"/>
	<path id="Layer0_117_1_STROKES" class="st10" d="M892,322.6v-21.4h7.1v21.4H892z"/>
	<path class="st3" d="M437.9,178.4h-7.2v41.1h7.2V178.4z"/>
	<path id="Layer0_126_1_STROKES" class="st8" d="M437.9,178.4v41.1h-7.2v-41.1H437.9z"/>
	<path class="st4" d="M984.8,427.3v-7.1H809.6v7.1H984.8z"/>
	<path d="M539.8,413.4h-0.9v10.7h0.9V413.4 M538.9,413.4l0.9-0.9h-0.9V413.4 M539.8,412.5l-0.9,0.9h0.9V412.5 M555,413.4v-0.9h-15.2
		v0.9H555 M555.9,425v-12.5H555v0.9v10.7h-15.2h-0.9v0.9H555.9z"/>
	<path id="Layer0_131_1_STROKES" class="st7" d="M538.9,424.1v0.9h17v-12.5H555v0.9v10.7h-15.2H538.9v-10.7v-0.9h0.9H555
		 M539.8,412.5l-0.9,0.9h0.9V412.5z M539.8,424.1v-10.7H555"/>
	<path d="M538.9,428.6h0.9V408h-0.9V428.6z"/>
	<path id="Layer0_132_1_STROKES" class="st7" d="M539.8,428.6h-0.9V408h0.9V428.6z"/>
	<path d="M829,286.4h-0.9v6.2h0.9V286.4 M828.1,286.4l0.9-0.9h-0.9V286.4 M829,285.5l-0.9,0.9h0.9V285.5 M838.8,286.4v-0.9H829v0.9
		H838.8 M839.7,293.5v-8h-0.9v0.9v6.2H829h-0.9v0.9H839.7z"/>
	<path id="Layer0_135_1_STROKES" class="st7" d="M828.1,292.6v0.9h11.6v-8h-0.9v0.9v6.2H829H828.1v-6.2v-0.9h0.9h9.8 M829,285.5
		l-0.9,0.9h0.9V285.5z M838.8,286.4H829v6.2"/>
	<path class="st2" d="M429.4,221.1l-0.1,0.2l-0.1,0.2L429,222v0.2l-0.1,0.2l-0.1,0.8v1.2l0.1,0.8l0.1,0.2v0.2l0.2,0.5l0.1,0.2
		l0.1,0.2l0.4,0.6l0.2,0.2l0.1,0.2l0.2,0.2l1.1,0.8l0.9,0.4l1.1,0.2h0.3l0.2,0.1l0.4-0.1h0.2l1-0.2l1-0.4l1.1-0.8l0.2-0.2l0.3-0.4
		l0.2-0.2l0.6-1.1v-0.2l0.2-0.5l0.1-0.6v-0.2V224v-0.6v-0.2V223l-0.1-0.5l-0.2-0.5v-0.2l-0.6-1.2l-0.2-0.2l-0.1-0.2l-0.4-0.4
		l-1.1-0.8l-1-0.4l-0.2-0.1l-0.2-0.1l-0.2-0.1h-0.3l-0.2-0.1h-0.6l-0.3,0.1h-0.2l-0.2,0.1l-0.2,0.1l-0.3,0.1l-0.9,0.4l-1.1,0.8
		l-0.6,0.6L429.4,221.1z"/>
	<path class="st2" d="M440.5,227.8l-0.4-1l-14.3,5.4h-0.1v0.1h-0.1l-0.1,0.1h-0.1v0.1l0,0v0.1h-0.1v0.4h0.1l0,0v0.1v0.1h0.1v0.1h0.1
		v0.1h0.1l0,0l11.6,3.2l-10.9,3.2l0.3,1l12.6-3.7l0,0V237h0.1v-0.1l0,0v-0.1h0.1v-0.1l0,0v-0.1l0,0v-0.4l0,0v-0.1l0,0V236l-0.1-0.1
		l0,0v-0.1h-0.1l0,0l0,0l-11.8-3.2L440.5,227.8z"/>
	<path class="st2" d="M607.1,80.8c-2.4-1.9-5.1-2.9-8.1-2.9s-5.7,1-8,2.9c-2.4,1.9-3.9,4.2-4.6,7.1h25.2
		C610.9,85,609.4,82.7,607.1,80.8z"/>
	<path class="st2" d="M591,100.9c2.4,1.9,5,2.9,8,2.9c3.1,0,5.8-1,8.1-2.9s3.8-4.2,4.5-7.1h-25.2C587.1,96.7,588.6,99,591,100.9z"/>
	<path class="st6" d="M756.7,157.4l-0.7-1.8l-0.5-2.3l-7,1l0.3,1.8l1,3.2l1.5,2.8l1,1.2l2.2,2.2l2.4,1.6l2.7,1l2.8,0.5h4.2l2.8-0.7
		l2.6-1.1l2.5-1.4l2.2-1.9l2-2.3l0.8-1.2l1.4-2.9l0.9-3.1l-7-1.4l-0.2,1.1l-0.7,1.9l-0.5,0.8l-2.4,2.8l-1.4,1L768,161l-3.2,0.8h-1.6
		l-0.8-0.1l-2.2-0.8l-1.8-1.3L756.7,157.4z"/>
	<path id="Layer0_158_1_STROKES" class="st5" d="M327.1,190.3v31.2H353v-31.2H327.1z"/>
	<path class="st1" d="M338.8,201h-3.6l-2.7,5.4l1.8,3.6l0.9,0.9l1.8,0.9l3.6-1.8l0.9-3.6l-0.9-3.6L338.8,201z"/>
	<path class="st11" d="M334.1,209.1h-6.2V221h13.4L334.1,209.1z"/>
	<path class="st11" d="M340.6,189.9h-13.4v11.9h6.3L340.6,189.9z"/>
	<path class="st11" d="M339.8,201.1l-0.4-0.2l-0.8-0.3l-1.4-0.2h-0.6l-1.3,0.2l-0.8,0.3l-1.4,0.8l-0.1,0.2l-0.2,0.2l-0.6,0.8
		l-0.2,0.4l-0.3,0.8l-0.1,0.2l-0.1,0.2l-0.1,0.3v0.2l-0.1,0.4v0.5l0.1,0.3v0.2l0.1,0.3l0.1,0.2l0.1,0.2l0.6,1.2l0.6,0.8l0.2,0.2
		l0.1,0.2l0.4,0.3l0.8,0.5l1,0.4l1.3,0.2h0.6l1.4-0.2l0.9-0.4l1.1-0.8l0.4-0.4l0.6-0.8l0.6-1.2l0.2-1v-0.3l0.1-0.2l-0.1-0.2V205
		l-0.2-1.1l-0.4-0.9l-0.8-1.1l-0.4-0.4L339.8,201.1z"/>
	<path class="st11" d="M340.8,199.4l-1,0.4l5.4,14.3v0.1h0.1v0.2h0.1v0.1h0.1l0,0h0.1v0.1l0,0l0.1,0.1h0.1l0.1,0.1h0.1l0.1-0.1h0.1
		v-0.1h0.1l0.1-0.1v-0.1h0.1v-0.1l0,0v-0.1l3.2-11.5l3.2,10.9l1-0.3l-3.7-12.6v-0.1h-0.1v-0.1H350v-0.1h-0.1l0,0h-0.1l-0.1-0.1h-0.1
		v-0.1h-0.2l-0.1,0.1h-0.1l-0.1,0.1H349l0,0h-0.1v0.1l-0.1,0.1v0.1l0,0v0.1l-3.2,11.8L340.8,199.4z"/>
	<path class="st1" d="M326.7,242.7V274h25.9v-31.3H326.7z"/>
	<path id="Layer0_165_1_STROKES" class="st5" d="M326.7,241.9h26.8V274h-26.8V241.9z"/>
	<path class="st1" d="M340.1,255.2l-1.8-1.8h-3.6l-2.7,5.4l1.8,3.5l0.9,0.9l1.8,0.9l3.6-1.8l0.9-3.5L340.1,255.2z"/>
	<path class="st11" d="M333.6,261.5h-6.2v12h13.4L333.6,261.5z"/>
	<path class="st11" d="M340.1,242.4h-13.4v12h6.2L340.1,242.4z"/>
	<path class="st11" d="M339.4,253.6l-0.2-0.1l-0.2-0.1l-0.8-0.3l-1.1-0.2H336l-1.1,0.2l-0.8,0.3l-0.2,0.1l-0.2,0.1l-0.6,0.4
		l-0.2,0.2l-0.2,0.2l-0.2,0.2l-0.8,1.1l-0.4,1l-0.2,1v0.3l-0.1,0.2l0.1,0.3v0.2l0.2,1.1l0.4,1l0.8,1.1l0.2,0.1l0.2,0.2l0.2,0.2
		l0.2,0.2l0.2,0.1l1.7,0.8l0.6,0.1h0.2l0.3,0.1h0.6l0.2-0.1h0.3l0.5-0.1l1-0.4l0.9-0.5l0.2-0.2l0.2-0.2l0.2-0.2l0.2-0.1l0.8-1.1
		l0.4-1l0.1-0.2l0.1-0.2l0.1-0.2v-0.3l0.1-0.2V258l-0.1-0.3v-0.2l-0.1-0.2l-0.1-0.3l-0.1-0.2l-0.4-1l-0.8-1.1L340,254L339.4,253.6z"
		/>
	<path class="st11" d="M340.3,251.9l-0.9,0.3l5.3,14.3l0,0l0.1,0.1v0.1h0.1l0,0h0.1v0.1l0,0h0.1v0.1h0.1h0.1h0.2l0,0h0.1l0.1-0.1
		h0.1l0,0h0.1v-0.1l0,0l0,0h0.1v-0.1l3.2-11.6l3.2,10.9l1-0.2l-3.8-12.6V253l-0.2-0.2l0,0v-0.1H349l-0.1,0.1l0,0v0.1h-0.1h-0.1v0.1
		h-0.1v0.1h-0.1v0.1l-3.2,11.8L340.3,251.9z"/>
	<path class="st1" d="M279.1,438.4v25.9h31.2v-25.9H279.1z"/>
	<path id="Layer0_172_1_STROKES" class="st5" d="M279.1,437.5v26.8h32.1v-26.8H279.1z"/>
	<path class="st1" d="M299.6,452.7l-1.8-1.8l-3.6-0.9l-3.6,0.9l-1.8,3.6l0.9,1.8l0.9,0.9l3.6,1.8l5.3-2.7L299.6,452.7L299.6,452.7z"
		/>
	<path class="st11" d="M279.5,450.2v13.4h12v-6.2L279.5,450.2z"/>
	<path class="st11" d="M298.7,458v6.2h12v-13.4L298.7,458z"/>
	<path class="st11" d="M298.7,450.6l-0.2-0.2l-1-0.8l-1-0.4l-0.2-0.1l-0.2-0.1h-0.3h-0.2h-0.3h-0.6h-0.2H294h-0.3l-0.2,0.1l-0.3,0.1
		l-1,0.4l-1.1,0.8l-0.2,0.2l-0.2,0.1l-0.7,0.9l-0.2,0.4l-0.3,0.8l-0.1,0.2l-0.1,0.2l-0.1,0.3v0.2v0.2v0.6v0.3v0.2l0.1,0.3l0.1,0.3
		l0.1,0.2l0.3,0.8l0.2,0.4l0.7,0.8l0.2,0.2l0.2,0.2l0.8,0.6l0.5,0.2l0.8,0.3l1.1,0.2h0.2l0.3,0.1l0.2-0.1h0.3l1.1-0.2l0.8-0.3
		l0.5-0.2l0.8-0.6l0.4-0.4l0.9-1.2l0.3-0.8l0.2-1.1v-0.3l0.1-0.2l-0.1-0.3v-0.2l-0.2-1l-0.4-1l-0.8-1.1H298.7z"/>
	<path class="st11" d="M286.3,445.3L286.3,445.3l-0.1,0.1l0,0l0,0l-0.1,0.1l0,0l0,0v0.1H286v0.2h0.1v0.1l0,0l0,0h0.1v0.1l0,0l0,0
		h0.1l0.1,0.1l0,0l0.1,0.1h0.1l14.3,5.3l0.3-0.9l-13-4.9l11.8-3.2h0.1h0.1l0,0l0.2-0.1v-0.1h0.1v-0.1l0,0V442l0,0v-0.1l-0.1-0.1l0,0
		h-0.1l0,0l0,0v-0.1h-0.1l0,0h-0.1l-12.6-3.7l-0.2,1l10.7,3L286.3,445.3L286.3,445.3L286.3,445.3z"/>
	<path class="st2" d="M195.4,329.1c1.9,2.3,4.3,3.8,7.2,4.4v-25.2c-2.9,0.7-5.3,2.2-7.2,4.5c-1.9,2.4-2.8,5.1-2.8,8.1
		C192.6,324,193.6,326.7,195.4,329.1z"/>
	<path class="st2" d="M208.5,333.5c2.9-0.7,5.3-2.1,7.2-4.4c1.9-2.4,2.9-5.1,2.9-8.1s-1-5.7-2.9-8.1c-1.9-2.3-4.3-3.8-7.2-4.5V333.5
		z"/>
	<path class="st2" d="M202.5,308.6v-1H192l0,0h-0.1v0.1h-0.1l0,0l0,0l0,0h-0.1v0.1h-0.1v0.1l0,0v25.6v0.1v0.1h0.1l0,0h0.1v0.1h0.1
		l0,0h0.1v0.1h10.6v-1l-9.9-0.1v-24.2L202.5,308.6 M219.3,307.7L219.3,307.7L219.3,307.7l-0.2-0.1l0,0h-10.5v1.1l9.9-0.1v24.3h-9.9
		v1h10.6l0,0h0.1v-0.1h0.1l0,0l0,0v-0.1l0,0v-0.1l0,0L219.3,307.7L219.3,307.7L219.3,307.7L219.3,307.7l0.1-0.1L219.3,307.7z"/>
	<path class="st1" d="M967.2,190.2v-11.6h-27.7v11.6H967.2z"/>
	<path d="M966.3,190.2v-0.9h-26.8v0.9H966.3 M967.2,189.3l-0.9,0.9h0.9V189.3 M967.2,189.3h-0.9v0.9L967.2,189.3 M967.2,178.6h-0.9
		v10.8h0.9V178.6 M967.2,177.7h-28.6v12.5h0.9v-0.9v-10.8h26.8h0.9L967.2,177.7L967.2,177.7z"/>
	<path id="Layer0_182_1_STROKES" class="st7" d="M967.2,178.6v-0.9h-28.6v12.5h0.9v-0.9v-10.8h26.8L967.2,178.6v10.7v0.9h-0.9h-26.8
		 M966.3,178.6v10.8h0.9l-0.9,0.9v-0.9h-26.8"/>
	<path class="st2" d="M959.2,188l5.3-4.1l-5.3-4.1v1.8h-17.9v4.5h17.9V188z"/>
	<path class="st1" d="M975.2,162h11.6v-27.7h-11.6V162z"/>
	<path d="M975.2,161.1l1,0.9v-0.9H975.2 M976.2,162l-1-0.9v0.9H976.2 M986.8,162v-0.9h-10.7v0.9H986.8 M976.2,134.3h-1v26.8h1V134.3
		 M987.7,133.4h-12.5v0.9h1h10.7v26.8v0.9h0.9v-28.6L987.7,133.4L987.7,133.4z"/>
	<path id="Layer0_185_1_STROKES" class="st7" d="M986.8,162h0.9v-28.6h-12.5v0.9h1h10.7v26.8v0.9h-10.7h-1v-0.9v-26.8 M976.2,162
		l-1-0.9h1v-26.8 M976.2,162v-0.9h10.7"/>
	<path class="st2" d="M981.5,159.2l4.1-5.2h-1.8v-17.9h-4.5V154h-1.8L981.5,159.2z"/>
	<path class="st1" d="M415.6,123.3h-27.7V135h27.7V123.3z"/>
	<path d="M414.7,123.3h-26.8v0.9h26.8V123.3 M414.7,124.2h0.9l-0.9-0.9V124.2 M414.7,124.2v10.7h0.9v-10.7H414.7 M387.9,123.3H387
		v12.5h28.6v-0.9h-0.9h-26.8v-10.7L387.9,123.3 M415.6,123.3h-0.9l0.9,0.9V123.3z"/>
	<path id="Layer0_188_1_STROKES" class="st7" d="M415.6,123.3v0.9v10.7v0.9H387v-12.5h0.9h26.8H415.6z M414.7,134.9h-26.8v-10.7
		v-0.9 M414.7,134.9v-10.7h-26.8 M415.6,134.9h-0.9 M415.6,124.2l-0.9-0.9v0.9H415.6z"/>
	<path class="st2" d="M407.6,133.6l5.2-4.1l-5.2-4.1v1.8h-17.9v4.5h17.9V133.6z"/>
	<path class="st1" d="M453.2,444.2h11.6v-27.8h-11.6V444.2z"/>
	<path d="M453.2,443.3l0.8,0.9v-0.9H453.2 M453.2,443.3v0.9h0.8L453.2,443.3 M464.8,443.3H454v0.9h10.8V443.3 M454,416.5h-0.8v26.8
		h0.8V416.5 M465.7,444.2v-28.6h-12.5v0.9h0.8h10.8v26.8v0.9L465.7,444.2L465.7,444.2z"/>
	<path id="Layer0_191_1_STROKES" class="st7" d="M465.7,444.2h-0.9H454h-0.8v-0.9v-26.8v-0.9h12.5V444.2z M454,416.5v26.8h10.8
		v-26.8H454h-0.8 M464.8,443.3v0.9 M454,444.2v-0.9h-0.8L454,444.2z"/>
	<path class="st2" d="M457.2,436.1h-1.9l4.1,5.3l4-5.3h-1.9v-17.9h-4.4L457.2,436.1L457.2,436.1z"/>
	<path class="st6" d="M594.1,88.6l-1.5-0.7l-2.3-0.7l-5.4-0.6l-0.1,7.1l3.4,0.3l2.2,0.7l1.8,1.1l0.6,0.6l0.8,1l0.9,1.9l0.5,1.8
		l0.2,3.2h7.1l-0.2-3.3l-0.6-3l-1.4-3.4l-1.4-2.2l-2.5-2.4L594.1,88.6z"/>
	<path class="st1" d="M513.5,364.7L513.5,364.7l-12.9-0.1l-0.1,0.1h-0.2h-0.1h-0.1H500l0,0v0.3h-0.1l0,0l-0.1,0.2l0,0h-0.1v0.1v0.1
		v0.1h-0.1v23.1h0.1v0.2l0,0v0.1h0.1v0.1l0,0l0,0l0,0l0.1,0.1l0,0h0.1l0.1,0.1l0,0l0.1,0.1h0.1h0.1h0.1v0.1h13l0.1-0.1h0.1l0,0h0.1
		l0.1-0.1l0,0h0.1v-0.1l0,0h0.1V389l0,0l0,0l0,0l0.1-0.1v0.1l0,0l0,0l0.1-0.1v-23.4h-0.1v-0.1l0,0v-0.1h-0.1v-0.1l0,0l0,0V365H514
		l0,0l0,0l-0.1-0.1l0,0l-0.1-0.1h-0.1l0,0L513.5,364.7L513.5,364.7z"/>
	<path id="Layer0_264_1_STROKES" class="st5" d="M513.5,364.6h-12.8l-0.1,0.1h-0.2h-0.1h-0.1h-0.1l0,0L500,365h-0.1l0,0l-0.1,0.2
		l0,0h-0.1v0.1v0.1v0.1h-0.1v23.1h0.1v0.2l0,0v0.1h0.1v0.1l0,0l0,0l0,0l0.1,0.1l0,0h0.1l0.1,0.1l0,0l0.1,0.1h0.1h0.1h0.1v0.1h13
		l0.1-0.1h0.1l0,0h0.1l0.1-0.1l0,0h0.1v-0.1l0,0h0.1V389l0,0l0,0l0,0l0.1-0.1v0.1l0,0l0,0l0.1-0.1v-23.4h-0.1v-0.1l0,0v-0.1h-0.1
		v-0.1l0,0l0,0V365H514l0,0l0,0l-0.1-0.1l0,0l-0.1-0.1h-0.1l0,0L513.5,364.6L513.5,364.6z"/>
	<path class="st4" d="M977.7,406.2V427h7.1v-20.8H977.7z"/>
	<path class="st4" d="M918.6,412.4V427h7.2v-14.6H918.6z"/>
	<g>
		<path id="Layer0_268_1_STROKES" class="st12" d="M1002.9,345.4L1002.9,345.4l-0.1,0.1l-0.2,0.2v0.1l0,0l0,0l0,0v0.1l0,0v0.1v0.1
			v10l0,0v0.1v0.1l0,0v0.1l0,0l0.1,0.1l0,0v0.1l0,0l0,0l0,0l0,0l0.1,0.1l0,0l0,0h0.1v0.1h21v-0.1h0.1l0,0l0,0v-0.1l0,0l0.2-0.2v-0.1
			l0,0l0,0h0.1v-0.1l0,0v-0.1l0,0V346l0,0v-0.1l-0.1-0.1l0,0v-0.1l0,0l0,0v-0.1l0,0l0,0h-0.1l0,0v-0.1l0,0l0,0l0,0l-0.1-0.1l0,0l0,0
			h-20.7l0,0L1002.9,345.4L1002.9,345.4L1002.9,345.4L1002.9,345.4L1002.9,345.4z"/>
		<path id="Layer0_269_1_STROKES" class="st12" d="M1032,347.5l-0.1-0.1v-0.1h-0.1l0,0l-0.1-0.1h-0.1l-0.1-0.1h-5.8h-0.1l0,0v0.1
			l0,0l-0.1,0.1l0,0l-0.1,0.1l0,0h-0.1v0.1l0,0l0,0v0.1v0.1l0,0v6.7l0,0v0.1v0.1l0,0l0,0l0,0l0.1,0.1l0,0l0,0v0.1l0,0l0,0l0.1,0.1
			l0,0l0,0h0.1v0.1h0.1l0,0h5.6h0.1h0.1v-0.1h0.1h0.1l0,0v-0.1l0,0l0,0l0.2-0.1v-0.1l0.1-0.1v-0.1l0,0v-0.2h0.1V348l-0.1-0.1v-0.2
			l0,0L1032,347.5L1032,347.5L1032,347.5z"/>
		<path id="Layer0_270_1_STROKES" class="st12" d="M998.9,347L998.9,347l-0.1,0.1l-0.1,0.1l0,0l0,0h-0.1l0,0v0.1l-0.1,0.1l0,0l0,0
			v0.1h-0.1v0.1l0,0v6.7l0,0v0.1h0.1v0.1l0.1,0.1v0.1l0.2,0.2l0,0l0,0h0.1v0.1h0.1l0,0h3h0.1h0.1v-0.1h0.1l0,0l0,0l0.3-0.3l0,0l0,0
			v-0.1h0.1v-0.1l0,0v-6.7l0,0v-0.1h-0.1v-0.1l0,0v-0.1l0,0l0,0v-0.1l0,0h-0.1l0,0l0,0l-0.1-0.1l0,0l-0.1-0.1l0,0h-0.1L998.9,347
			L998.9,347L998.9,347z"/>
	</g>
	<path class="st1" d="M910.5,276.4h-31.3v25.9h31.3V276.4z"/>
	<path d="M910.5,276.4v0.9v25h-30.4h-0.9v0.9h32.2v-26.8H910.5 M880.2,277.2h-0.9v25h0.9V277.2 M879.2,277.2h0.9v-0.9L879.2,277.2
		 M910.5,276.4h-30.4v0.9h30.4V276.4 M879.2,276.4v0.9l0.9-0.9H879.2z"/>
	<path id="Layer0_274_MEMBER_1_1_STROKES" class="st7" d="M910.5,276.4h0.9v26.8h-32.2v-0.9v-25v-0.9h0.9H910.5v0.9v25h-30.4h-0.9
		 M910.5,277.2h-30.4v25 M879.2,277.2h0.9v-0.9L879.2,277.2z"/>
	<path class="st1" d="M890,284.4l-0.9,1.8l1.8,3.6l3.6,0.9l3.6-0.9l1.8-1.8v-3.6l-5.4-2.6l-3.6,1.8L890,284.4z"/>
	<path d="M880.2,277v13.4l11.6-7.1V277H880.2z"/>
	<path d="M910.5,276.4h-11.6v6.2l11.6,7.1V276.4z"/>
	<path class="st2" d="M889.8,284.2v0.2l-0.1,0.3l-0.2,0.8v1.1l0.2,0.8l0.1,0.2v0.3l0.2,0.5l0.5,0.9l0.2,0.2l0.5,0.6l0.2,0.1l0.2,0.2
		l0.2,0.2l0.2,0.1l0.2,0.2l0.7,0.3l0.6,0.2l0.5,0.1h0.2h0.3h0.5h0.2h0.3l0.5-0.1l1.2-0.5l0.2-0.2l0.2-0.1l0.2-0.2l0.2-0.2l0.2-0.1
		l0.3-0.4l0.2-0.2l0.2-0.2l0.2-0.5l0.1-0.2l0.1-0.2l0.1-0.2l0.1-0.2v-0.3l0.1-0.2l0.2-0.8v-1.1l-0.2-0.8l-0.1-0.3v-0.2l0.5-0.3
		l-0.1-0.2l-0.1-0.2l-0.2-0.4l-0.1-0.2l-0.2-0.2l-0.3-0.4l-0.2-0.1l-0.2-0.2l-0.4-0.3l-0.8-0.4l-0.8-0.3l-1-0.2h-1.1l-1.1,0.2
		l-0.7,0.3l-1.6,1.1l-0.1,0.2l-0.2,0.2l-0.5,0.6l-0.1,0.2l-0.2,0.2L889.8,284.2z"/>
	<path class="st2" d="M886.4,294.5L886.4,294.5L886.4,294.5l-0.1,0.1l0,0v0.1v0.3v0.1l0,0l0,0v0.1h0.1l0,0l0,0l0,0v0.1l0,0l11.5,3.2
		l-10.8,3.1l0.3,1l12.6-3.7h0.1l0,0l0,0v-0.1h0.1v-0.1l0,0l0,0l0,0v-0.3l0,0v-0.1l0,0l0,0h-0.1v-0.1l0,0l0,0l0,0v-0.1l-11.8-3.2
		l13-4.9l-0.3-1l-14.5,5.4L886.4,294.5L886.4,294.5L886.4,294.5L886.4,294.5L886.4,294.5z"/>
	<path class="st1" d="M806,152.6v27.6h11.6v-27.6H806z"/>
	<path d="M807,153.4h-1v26.8h0.9L807,153.4 M806,153.4l0.9-0.8H806V153.4 M807,152.6l-0.9,0.8h0.9V152.6 M817.7,153.4v-0.8H807v0.8
		H817.7 M818.5,152.6h-0.9v0.8v26.8H807h-1v0.9h12.5V152.6z"/>
	<path id="Layer0_275_MEMBER_1_1_STROKES" class="st7" d="M806,180.2v0.9h12.5v-28.6h-0.9v0.8v26.8H807h-1v-26.8v-0.8h0.9h10.7
		 M807,153.4v-0.8l-0.9,0.8H807h10.7 M807,180.2v-26.8"/>
	<path class="st2" d="M810.1,178.4h4.5v-17.9h1.9l-4.1-5.3l-4.1,5.3h1.9v17.9H810.1z"/>
	<path class="st3" d="M898.2,262.7v-7.2H816v7.2H898.2z"/>
	<path id="Layer0_276_1_STROKES" class="st8" d="M898.2,262.7H816v-7.2h82.2V262.7z"/>
	<path class="st13" d="M586.3,494.9h-1v5.4h1V494.9z"/>
	<path class="st14" d="M585.2,494.9h-32.1v5.4h32.1V494.9z"/>
	<path id="Layer0_279_1_STROKES" class="st5" d="M585.2,500.3h-32.1v-5.4h32.1V500.3z"/>
	<path class="st15" d="M546.8,552.5c0,4.5,2.2,6.8,6.6,7h31.1c4.4-0.2,6.5-2.5,6.5-7v-9.2h-44.2L546.8,552.5L546.8,552.5z"/>
	<path class="st16" d="M546.8,507.3v36H591v-36c0-3.8-1.6-6.1-4.8-6.8c-0.6-0.2-1.2-0.3-1.8-0.2h-31.1c-0.4,0-0.7,0-1.1,0.1
		C548.7,500.9,546.8,503.2,546.8,507.3z"/>
	<path id="Layer0_279_MEMBER_0_1_STROKES" class="st5" d="M591,543.3v-36c0-3.8-1.6-6.1-4.8-6.8c-0.6-0.2-1.2-0.3-1.8-0.2h-31.1
		c-0.4,0-0.7,0-1.1,0.1c-3.7,0.5-5.5,2.8-5.5,6.9v36 M591,543.3v9.2c0,4.5-2.2,6.8-6.5,7h-31.1c-4.4-0.2-6.6-2.5-6.6-7v-9.2"/>
	<path class="st17" d="M1022.2,249.5v-13.1h-19.9v13.1c0,2.7,1,5.1,2.9,7s4.3,2.9,7,2.9l0,0c2.7,0,5.1-1,7-2.9
		C1021.2,254.6,1022.2,252.3,1022.2,249.5z"/>
	<path class="st3" d="M1005.2,201.1c-1.9,1.9-2.9,4.3-2.9,7v28.2h19.9v-28.2c0-2.7-1-5.1-2.9-7s-4.3-2.9-7-2.9l0,0
		C1009.5,198.2,1007.2,199.2,1005.2,201.1z"/>
	<path id="Layer0_283_1_STROKES" class="st5" d="M1002.3,236.4v-28.2c0-2.7,1-5.1,2.9-7s4.3-2.9,7-2.9l0,0c2.7,0,5.1,1,7,2.9
		s2.9,4.3,2.9,7v28.2v13.1c0,2.7-1,5.1-2.9,7s-4.3,2.9-7,2.9l0,0c-2.7,0-5.1-1-7-2.9s-2.9-4.3-2.9-7V236.4h19.9"/>
	<path d="M1017.2,245.8l-4.7-9.4l-4.6,9.4H1017.2z"/>
	<path id="Layer0_285_MEMBER_0_MEMBER_0_1_STROKES" class="st5" d="M765,343.9v48.2H661.4v-48.2H765z"/>
	<path id="Layer0_286_1_STROKES" class="st5" d="M955,356.2v56.3H839.1v-56.3H955z"/>
	<path id="Layer0_287_1_STROKES" class="st5" d="M1053,366.1v40.8h-85.5v-40.8H1053z"/>
	<path d="M196.7,72.5v37.6h37.6V72.5H196.7 M197.5,109.2V73.4h35.8v35.8H197.5z"/>
	<path class="st1" d="M197.5,73.4v35.8h35.8V73.4H197.5z"/>
	<path class="st1" d="M197.5,73.4v35.8h35.8V73.4H197.5z"/>
	<path id="Layer0_288_MEMBER_0_MEMBER_1_1_STROKES" class="st7" d="M196.7,73.4h0.8v-0.9L196.7,73.4z M196.7,73.4v-0.9h0.8h35.8h0.9
		v37.6h-37.5v-0.9V73.4z M197.5,109.1h-0.8 M197.5,73.4v35.8h35.8V73.4H197.5z M233.3,72.5v0.9"/>
	<path class="st1" d="M202.3,78.1c-3.5,3.5-5.3,7.8-5.3,12.7c0,5,1.8,9.2,5.3,12.7s7.8,5.3,12.7,5.3c5,0,9.2-1.8,12.7-5.3
		s5.3-7.8,5.3-12.7c0-5-1.8-9.2-5.3-12.7s-7.8-5.3-12.7-5.3S205.8,74.6,202.3,78.1z"/>
	<path id="Layer0_288_MEMBER_1_1_STROKES" class="st5" d="M233,90.9c0,5-1.8,9.2-5.3,12.7s-7.8,5.3-12.7,5.3c-5,0-9.2-1.8-12.7-5.3
		s-5.3-7.8-5.3-12.7c0-5,1.8-9.2,5.3-12.7s7.8-5.3,12.7-5.3s9.2,1.8,12.7,5.3C231.3,81.7,233,85.9,233,90.9z"/>
	<path class="st6" d="M683.8,90.7l-20.2-20.2l-20.2,20.2l20.2,20.2L683.8,90.7z"/>
	<path id="Layer0_290_1_STROKES" class="st18" d="M663.6,70.6l20.2,20.2L663.6,111l-20.2-20.2L663.6,70.6z"/>
	<path class="st19" d="M477.2,394.6L477.2,394.6l-39.3-0.1v7H456v14.4h6.9v-14.4h97.5v-6.9H477.2 M209.4,109.4h-6.9v291.9h5.8v0.2
		h83.3v35.9h6.9v-35.9h132l0,0h0.3v-7H209.4V109.4z"/>
	<path class="st20" d="M574.3,431.9h-6.9V521h6.9V431.9 M567.1,404v7.8l1-0.6l1.2-0.5l1.3-0.2h0.2h0.4h0.3h0.3l1.4,0.2l1.1,0.4
		l0.4,0.3V404H567.1z"/>
	<path id="Layer0_292_1_STROKES" class="st5" d="M574.3,431.9V521 M567.4,521v-89.1"/>
	<path class="st4" d="M197.9,497.9v9.5h19.9v-9.5H197.9z"/>
	<path d="M197.9,497.9v10.4h20.9v-10.4H197.9 M198.9,507.4v-8.5h18.9v8.5H198.9z"/>
	<path id="Layer0_294_MEMBER_0_MEMBER_1_1_STROKES" class="st7" d="M197.9,498.8v8.5h1v-8.5H197.9v-1h1h18.9h1v10.4h-20.9v-0.9
		 M197.9,498.8l1-1v1h18.9v-1 M198.9,507.4h18.9v-8.5"/>
	<path class="st3" d="M197.9,483.6v9.5h19.9v-9.5H197.9z"/>
	<path d="M197.9,483.6v10.5h20.9v-10.5H197.9 M198.9,493.1v-8.5h18.9v8.5H198.9z"/>
	<path id="Layer0_296_MEMBER_0_MEMBER_1_1_STROKES" class="st7" d="M197.9,484.6h1v-1L197.9,484.6v-1h1h18.9h1v10.5h-20.9v-1V484.6z
		 M197.9,493.1h1v-8.5h18.9v-1 M217.8,484.6v8.5h-18.9"/>
	<path d="M197.9,528.2v10.5h20.9v-10.5H197.9 M198.9,537.6v-8.5h18.9v8.5H198.9z"/>
	<path class="st20" d="M198.9,529.1v8.5h18.9v-8.5H198.9z"/>
	<path id="Layer0_297_MEMBER_0_MEMBER_2_1_STROKES" class="st7" d="M197.9,529.1l1-1h-1V529.1h1v-1h18.9h1v10.5h-20.9v-1V529.1z
		 M217.8,528.2v1v8.5h-18.9h-1 M198.9,537.6v-8.5h18.9"/>
	<path d="M230.2,484.8c-0.3-0.2-0.7-0.4-1.1-0.5l-0.9-0.1h-3.8v8.9h1.2v-3.6h2.2c1.2,0,2.1-0.3,2.6-0.8c0.5-0.6,0.7-1.3,0.7-1.9
		c0-0.4-0.1-0.8-0.3-1.2C230.7,485.2,230.5,485,230.2,484.8 M229.7,485.9c0.2,0.3,0.3,0.6,0.3,1c0,0.5-0.2,0.8-0.5,1.2
		c-0.4,0.3-0.9,0.4-1.6,0.4h-2.2v-3.1h2.6l0.7,0.1C229.3,485.4,229.5,485.6,229.7,485.9 M237.1,487.4c-0.6,0.6-0.9,1.5-0.9,2.5
		s0.3,1.8,0.9,2.4c0.6,0.6,1.3,0.8,2.2,0.8c0.7,0,1.3-0.2,1.8-0.5c0.5-0.4,0.8-0.9,1-1.5L241,491c-0.1,0.5-0.4,0.8-0.6,1
		c-0.4,0.2-0.8,0.3-1,0.3c-0.5,0-0.9-0.2-1.3-0.5c-0.4-0.4-0.6-1-0.6-1.7h4.8v-0.2c0-1.1-0.3-1.9-0.8-2.5s-1.2-0.9-2.1-0.9
		C238.3,486.6,237.6,486.9,237.1,487.4 M237.5,489.3c0-0.5,0.2-1,0.5-1.4c0.4-0.3,0.8-0.5,1.2-0.5c0.6,0,1.1,0.2,1.4,0.7
		c0.2,0.3,0.3,0.7,0.3,1.2L237.5,489.3 M234.9,486.6c-0.3,0-0.5,0.1-0.6,0.2c-0.2,0.1-0.4,0.4-0.7,0.9v-1h-1v6.4h1.1v-3.4
		c0-0.4,0-0.8,0.1-1.2c0.2-0.3,0.3-0.5,0.5-0.6s0.4-0.2,0.6-0.2c0.3,0,0.6,0.1,0.8,0.2l0.4-1C235.7,486.7,235.3,486.6,234.9,486.6
		 M246.9,486.7c-0.5-0.1-0.9-0.2-1.3-0.2h-0.2l-0.7,0.1L244,487l-0.5,0.6l-0.2,0.8c0,0.4,0.1,0.7,0.2,0.8c0.2,0.3,0.4,0.5,0.7,0.7
		l2.6,0.8l0.1,0.1c0.2,0.3,0.3,0.5,0.3,0.6c0,0.3-0.1,0.5-0.3,0.7c-0.3,0.2-0.7,0.3-1.2,0.3s-0.9-0.1-1.1-0.4
		c-0.2-0.2-0.4-0.5-0.5-0.9l-1,0.1c0.1,0.7,0.4,1.2,0.9,1.5c0.4,0.3,1.1,0.5,1.9,0.5c0.6,0,1-0.1,1.3-0.2c0.4-0.1,0.7-0.3,1-0.8
		c0.2-0.3,0.3-0.6,0.3-1c0-0.3-0.1-0.6-0.2-1c-0.3-0.3-0.5-0.5-0.7-0.5l-2.6-0.8l-0.1-0.1c-0.2-0.1-0.3-0.1-0.3-0.2l-0.1-0.4
		c0-0.2,0.1-0.3,0.3-0.5c0.3-0.2,0.6-0.2,1.1-0.2c0.4,0,0.7,0.1,1,0.2c0.2,0.3,0.3,0.5,0.4,0.8l1-0.1c-0.1-0.4-0.2-0.8-0.4-1
		C247.6,487.1,247.3,486.9,246.9,486.7 M254.2,488.4c-0.1-0.5-0.2-0.8-0.3-1s-0.4-0.4-0.9-0.6c-0.3-0.1-0.7-0.2-1.3-0.2h-0.2
		l-0.7,0.1L250,487l-0.5,0.6l-0.1,0.8c0,0.4,0.1,0.7,0.2,0.9c0.1,0.2,0.4,0.4,0.7,0.6l2.6,0.8l0.1,0.2c0.2,0.2,0.3,0.4,0.3,0.6
		c0,0.3-0.1,0.5-0.4,0.7c-0.2,0.2-0.6,0.3-1.1,0.3c-0.4,0-0.8-0.1-1.2-0.3c-0.2-0.2-0.4-0.5-0.4-1l-1.1,0.1c0.1,0.7,0.4,1.2,0.9,1.5
		s1.1,0.5,1.9,0.5c0.4,0,0.9-0.1,1.4-0.2c0.4-0.1,0.7-0.4,0.9-0.8c0.2-0.3,0.4-0.7,0.4-1.1c0-0.3-0.1-0.6-0.3-0.9
		c-0.2-0.2-0.4-0.4-0.7-0.6l-2.6-0.8l-0.1-0.1c-0.2,0-0.3-0.1-0.4-0.2l-0.1-0.3c0-0.2,0.1-0.4,0.3-0.6s0.6-0.3,1.1-0.2
		c0.5,0,0.8,0.1,1,0.2c0.2,0.2,0.3,0.4,0.4,0.8L254.2,488.4 M261,486.7h-1v3.4c0,0.6-0.1,1-0.2,1.2c-0.1,0.3-0.3,0.5-0.6,0.7
		c-0.3,0.2-0.6,0.2-0.9,0.2s-0.6-0.1-0.9-0.2c-0.2-0.2-0.3-0.4-0.4-0.7v-0.2v-4.5h-1.1v4.8v0.2c0.1,0.3,0.2,0.6,0.3,0.8
		c0.1,0.1,0.3,0.3,0.8,0.5l1,0.1c0.9,0,1.6-0.3,2-1v0.9h1L261,486.7 M267.2,487.4c-0.5,0.6-0.8,1.4-0.8,2.5c0,1,0.3,1.8,0.8,2.4
		c0.6,0.6,1.3,0.8,2.2,0.8c0.6,0,1.2-0.2,1.8-0.5c0.5-0.4,0.8-0.9,0.9-1.5L271,491c-0.1,0.5-0.4,0.8-0.7,1c-0.3,0.2-0.6,0.3-1,0.3
		c-0.6,0-1-0.2-1.4-0.5c-0.3-0.4-0.5-1-0.6-1.7h4.8v-0.2c0-1.1-0.3-1.9-0.8-2.5s-1.2-0.9-2-0.9C268.5,486.6,267.7,486.9,267.2,487.4
		 M267.6,489.3c0-0.5,0.2-1,0.6-1.4c0.4-0.3,0.8-0.5,1.3-0.5s1,0.2,1.3,0.7c0.2,0.2,0.3,0.6,0.4,1.2L267.6,489.3 M264.3,486.8
		l-0.4,0.3l-0.3,0.5v-1h-1v6.4h1.1v-3.4c0-0.4,0.1-0.8,0.2-1.2l0.4-0.6l0.6-0.2c0.3,0,0.6,0.1,0.8,0.2l0.4-1
		c-0.3-0.2-0.7-0.3-1.2-0.3C264.7,486.6,264.4,486.6,264.3,486.8z"/>
	<path d="M240.2,500.3v1.6h-0.8v0.8h0.8v3.7c0,0.6,0.1,1.1,0.2,1.2c0.1,0.2,0.2,0.4,0.4,0.5c0.3,0.2,0.6,0.2,0.9,0.2h0.3l0.5-0.1
		l-0.1-1h-0.2h-0.5h-0.1l-0.2-0.4v-4.2h1.1v-0.8h-1.1v-2.2L240.2,500.3 M235.9,501.7c-0.9,0-1.6,0.3-2.2,1c-0.5,0.5-0.8,1.3-0.8,2.5
		c0,1.1,0.3,1.9,0.8,2.5c0.6,0.6,1.3,0.9,2.2,0.9c0.7,0,1.3-0.2,1.8-0.5c0.4-0.4,0.7-0.9,1-1.5l-1.1-0.2c-0.2,0.5-0.4,0.8-0.6,1.1
		c-0.3,0.2-0.6,0.3-1,0.2c-0.5,0-1-0.2-1.4-0.6s-0.6-0.9-0.6-1.5h4.8v-0.3c0-1.1-0.3-1.9-0.8-2.5C237.4,502,236.7,501.7,235.9,501.7
		 M234.6,503.1c0.4-0.3,0.8-0.5,1.3-0.5s1,0.2,1.4,0.7c0.2,0.3,0.3,0.7,0.4,1.2h-3.5C234.1,503.9,234.3,503.5,234.6,503.1
		 M225.6,504.3h2l0.6,0.2l0.5,0.5v0.1l2,3.1h1.5l-1.5-2.4c-0.3-0.5-0.7-0.9-1-1.2c-0.1-0.2-0.4-0.3-0.7-0.4c0.8-0.1,1.4-0.4,1.9-0.9
		c0.4-0.4,0.6-0.9,0.6-1.5s-0.1-1-0.3-1.3c-0.3-0.4-0.6-0.7-1-0.8c-0.4-0.2-1-0.3-1.8-0.2h-3.9v8.8h1.1L225.6,504.3 M225.6,503.4v-3
		h2.8c0.7,0,1.2,0.2,1.4,0.5c0.3,0.2,0.5,0.5,0.5,1c0,0.2-0.1,0.5-0.2,0.8c-0.1,0.3-0.3,0.5-0.6,0.5c-0.3,0.1-0.7,0.2-1.2,0.2H225.6
		 M258.5,501.9c-0.2-0.2-0.5-0.3-1-0.2c-0.9,0-1.6,0.4-2.1,1.1v-0.9h-1v6.4h1v-3.5c0-0.8,0.2-1.4,0.5-1.7c0.4-0.3,0.8-0.5,1.2-0.5
		c0.3,0,0.5,0.1,0.8,0.2c0.2,0.1,0.4,0.3,0.5,0.5s0.1,0.5,0.1,1v3.9h1.1v-4.4l-0.1-0.3v-0.3c-0.1-0.4-0.2-0.7-0.4-0.8
		C259.1,502.2,258.8,502.1,258.5,501.9 M252.7,501.7c-0.2,0-0.5,0.1-0.8,0.2l-0.3,0.3l-0.4,0.6v-1h-1v6.4h1.1v-3.3
		c0-0.5,0.1-0.9,0.1-1.2c0.1-0.3,0.2-0.5,0.4-0.6c0.2-0.2,0.5-0.2,0.7-0.2c0.3,0,0.5,0.1,0.8,0.2l0.4-1
		C253.5,501.8,253.1,501.7,252.7,501.7 M247.6,501.9v3.4c0,0.5,0,1-0.1,1.3s-0.3,0.5-0.6,0.7s-0.7,0.3-1,0.2c-0.3,0-0.5-0.1-0.8-0.2
		c-0.2-0.2-0.4-0.4-0.5-0.7v-0.2v-4.5h-1.1v4.8v0.2c0.1,0.4,0.3,0.7,0.4,0.8c0.1,0.1,0.4,0.3,0.8,0.5c0.5,0.2,0.9,0.2,1.1,0.2
		c0.8,0,1.5-0.4,2-1.1v0.9h1v-6.4h-1.2C247.6,501.8,247.6,501.9,247.6,501.9z"/>
	<path d="M225.6,517.2c0.2-0.5,0.6-1,1-1.3s1-0.5,1.7-0.5c0.6,0,1.1,0.2,1.5,0.5s0.7,0.7,0.9,1.4l1.1-0.2c-0.3-0.8-0.7-1.5-1.2-1.9
		c-0.6-0.4-1.4-0.6-2.2-0.6s-1.5,0.2-2.1,0.5s-1.1,0.8-1.4,1.5c-0.4,0.7-0.6,1.5-0.6,2.4s0.2,1.7,0.5,2.4s0.7,1.3,1.3,1.6
		c0.6,0.4,1.3,0.6,2.3,0.6c0.9,0,1.6-0.2,2.4-0.8c0.6-0.5,1-1.2,1.3-2.2l-1.2-0.2c-0.2,0.7-0.5,1.3-0.9,1.7c-0.5,0.4-1,0.6-1.6,0.6
		c-0.5,0-1-0.1-1.5-0.4c-0.5-0.3-0.8-0.7-1.1-1.3c-0.2-0.5-0.3-1.2-0.3-2C225.3,518.5,225.4,517.9,225.6,517.2 M238,517.6
		c-0.1-0.2-0.4-0.4-0.8-0.5c-0.4-0.1-0.8-0.2-1.3-0.2c-0.6,0-1.1,0.1-1.5,0.2c-0.4,0.1-0.7,0.3-1,0.6s-0.4,0.7-0.4,1.1l1,0.1
		c0.1-0.5,0.3-0.8,0.6-0.9c0.3-0.2,0.6-0.3,1.1-0.3c0.6,0,1,0.1,1.2,0.4c0.2,0.1,0.4,0.4,0.4,0.9v0.3l-2.9,0.5
		c-0.2,0-0.5,0.1-0.8,0.3c-0.2,0.2-0.4,0.4-0.5,0.6c-0.1,0.2-0.2,0.5-0.2,0.9c0,0.5,0.2,0.9,0.5,1.3c0.4,0.3,1,0.5,1.6,0.5
		c0.3,0,0.7-0.1,1.2-0.2c0.4-0.2,0.8-0.4,1.1-0.8l0.2,0.8h1.1l-0.2-0.5l-0.1-0.5v-3.5l-0.1-0.3v-0.3
		C238.3,518,238.2,517.7,238,517.6 M237.3,520.2v0.5c0,0.4,0,0.8-0.1,1.1c-0.2,0.3-0.5,0.6-0.8,0.7c-0.3,0.2-0.6,0.2-1,0.2
		c-0.5,0-0.8-0.1-1-0.2c-0.2-0.1-0.4-0.4-0.4-0.7c0-0.2,0.1-0.4,0.2-0.6l0.2-0.1l0.1-0.2h0.1c0.1-0.1,0.4-0.1,0.9-0.2
		C236.2,520.5,236.8,520.4,237.3,520.2 M273.6,517.1c-0.4-0.1-0.9-0.2-1.4-0.2c-0.6,0-1,0.1-1.4,0.2c-0.4,0.1-0.8,0.3-1,0.6
		s-0.4,0.6-0.5,1.1l1.1,0.1c0.1-0.5,0.3-0.8,0.5-0.9c0.3-0.2,0.6-0.3,1.1-0.3c0.6,0,1,0.1,1.2,0.4c0.2,0.1,0.4,0.4,0.4,0.9v0.2
		l-0.1,0.1l-2.9,0.5c-0.3,0-0.5,0.1-0.8,0.3l-0.6,0.6c-0.1,0.2-0.2,0.5-0.2,0.9c0,0.5,0.2,0.9,0.5,1.3c0.4,0.3,1,0.5,1.6,0.5
		c0.3,0,0.7-0.1,1.2-0.2c0.4-0.2,0.8-0.4,1.1-0.8l0.2,0.8h1.1l-0.3-0.8v-0.2v-3.5v-0.3v-0.3l-0.4-0.7
		C274.1,517.4,273.9,517.2,273.6,517.1 M271.9,520.6c0.7-0.1,1.2-0.2,1.7-0.5v0.5c0,0.4,0,0.8-0.1,1.1c-0.2,0.3-0.4,0.5-0.7,0.7
		c-0.3,0.2-0.6,0.2-1.1,0.2s-0.8-0.1-0.9-0.2c-0.2-0.1-0.4-0.4-0.4-0.7c0-0.2,0-0.4,0.1-0.6l0,0c0.2-0.2,0.3-0.3,0.4-0.3
		S271.3,520.7,271.9,520.6 M267.1,517.1c-0.2,0.1-0.4,0.4-0.8,1v-1h-0.9v6.4h1.1v-3.3c0-0.4,0.1-0.9,0.2-1.2s0.2-0.5,0.4-0.6
		c0.1-0.1,0.3-0.2,0.6-0.2c0.3,0,0.6,0.1,0.8,0.2l0.4-1c-0.4-0.2-0.8-0.4-1.2-0.4C267.6,516.9,267.3,517,267.1,517.1 M283.2,517.1
		c-0.4-0.1-0.7-0.2-1-0.2c-0.9,0-1.6,0.4-2.1,1.1v-1h-0.9v6.4h1v-3.5c0-0.8,0.2-1.3,0.5-1.6s0.7-0.5,1.2-0.5c0.3,0,0.5,0.1,0.8,0.2
		c0.2,0.1,0.4,0.3,0.4,0.5l0.1,0.4l0.1,0.2v4.2h1.1V519l-0.1-0.3v-0.4c-0.1-0.3-0.2-0.6-0.3-0.8
		C283.9,517.5,283.6,517.4,283.2,517.1 M277.5,514.6h-1.1v1.2h1.1V514.6 M277.5,517h-1.1v6.4h1.1V517 M251,517.8
		c-0.6-0.6-1.3-0.9-2.1-0.9c-0.9,0-1.6,0.3-2.1,0.9c-0.6,0.6-0.9,1.5-0.9,2.5s0.3,1.8,0.9,2.4c0.6,0.6,1.3,0.9,2.2,0.9
		c0.8,0,1.4-0.2,1.8-0.5c0.5-0.4,0.8-0.9,1-1.5l-1.1-0.1c-0.2,0.4-0.4,0.8-0.6,1c-0.3,0.2-0.7,0.3-1,0.3c-0.5,0-1-0.2-1.4-0.6
		c-0.4-0.4-0.6-0.9-0.6-1.5h4.8v-0.4C251.7,519.1,251.5,518.3,251,517.8 M250.2,518.4c0.2,0.3,0.3,0.7,0.4,1.2h-3.5
		c0-0.5,0.2-0.9,0.5-1.3c0.3-0.3,0.8-0.5,1.2-0.5C249.4,517.8,249.9,518,250.2,518.4 M244.4,517.7c-0.2-0.3-0.5-0.5-0.9-0.6
		c-0.7-0.1-1.1-0.2-1.3-0.2c-0.3,0-0.6,0-0.9,0.2c-0.4,0.1-0.6,0.2-0.8,0.3c-0.3,0.2-0.4,0.4-0.4,0.7c-0.2,0.2-0.2,0.4-0.2,0.8
		c0,0.3,0.1,0.6,0.2,0.8c0.2,0.2,0.4,0.4,0.7,0.6l0.7,0.3l0.9,0.2h0.4l0.7,0.2h0.1c0.2,0.1,0.4,0.3,0.4,0.6c0,0.1-0.1,0.4-0.4,0.7
		c-0.2,0.2-0.6,0.3-1.1,0.3c-0.4,0-0.8-0.1-1.1-0.3c-0.3-0.3-0.5-0.6-0.5-1l-1,0.2c0.1,0.7,0.4,1.2,0.8,1.5c0.4,0.4,1.1,0.5,1.9,0.5
		c0.5,0,0.9-0.1,1.4-0.3c0.3-0.1,0.6-0.4,0.9-0.7c0.2-0.3,0.4-0.7,0.4-1c0-0.4-0.1-0.7-0.3-1s-0.4-0.5-0.7-0.6l-2.5-0.8L241,519
		c-0.1-0.1-0.1-0.2-0.1-0.4s0.1-0.4,0.3-0.6c0.2-0.2,0.5-0.2,1.1-0.2c0.4,0,0.8,0.1,1,0.3c0.2,0.1,0.4,0.4,0.5,0.8l1-0.2
		C244.6,518.2,244.5,517.9,244.4,517.7 M263.6,516.9c-0.2-0.5-0.5-1-1-1.5c-0.5-0.3-0.9-0.5-1.3-0.6c-0.3-0.1-0.9-0.2-1.6-0.2h-3
		v8.8h3.5l1-0.1c0.4-0.1,0.8-0.2,1.1-0.5s0.6-0.5,0.8-0.8c0.2-0.2,0.4-0.7,0.6-1.3c0.1-0.4,0.2-1,0.2-1.8
		C263.9,518.2,263.8,517.5,263.6,516.9 M259.7,515.7c0.7,0,1.2,0,1.5,0.2c0.4,0.1,0.7,0.4,1.1,1c0.3,0.4,0.4,1.1,0.4,2.1
		c0,0.8-0.1,1.3-0.2,1.7c-0.1,0.5-0.4,0.8-0.6,1.2l-0.8,0.5c-0.3,0.1-0.8,0.1-1.4,0.1h-1.9v-6.7L259.7,515.7L259.7,515.7z"/>
	<path d="M245.2,532.2h-1.1v6.5h1.1V532.2 M249.7,533l0.8,0.1c0.2,0.1,0.4,0.3,0.5,0.6c0.1,0.1,0.1,0.4,0.1,0.9v4h1.1v-4.8v-0.2
		c0-0.1-0.2-0.4-0.4-0.8c-0.2-0.2-0.4-0.4-0.7-0.5l-1.1-0.2c-0.9,0-1.5,0.4-2,1v-1h-1v6.5h1v-3.5c0-0.8,0.2-1.4,0.5-1.7
		C248.8,533.2,249.2,533,249.7,533 M236.2,533.4l0.4-1c-0.3-0.2-0.7-0.3-1.1-0.3c-0.3,0-0.6,0.1-0.7,0.2c-0.2,0.1-0.4,0.4-0.6,0.9
		v-1h-1v6.5h1.1v-3.4c0-0.4,0-0.9,0.1-1.2c0.1-0.2,0.2-0.4,0.4-0.6c0.1-0.1,0.4-0.2,0.6-0.2C235.8,533.2,236.1,533.3,236.2,533.4
		 M242.5,533.5c0-0.2-0.1-0.5-0.4-0.8l-0.6-0.5h-0.1c-0.3-0.1-0.8-0.2-1.3-0.2c-0.6,0-1.1,0.1-1.5,0.2c-0.5,0.2-0.8,0.4-0.9,0.7
		c-0.2,0.2-0.4,0.6-0.5,1l1,0.1c0.2-0.5,0.4-0.8,0.5-1c0.3-0.2,0.7-0.3,1.1-0.2c0.5,0,0.9,0.1,1.2,0.4c0.2,0.2,0.4,0.5,0.4,1v0.2
		c-0.3,0.2-0.9,0.3-1.9,0.4l-1,0.2l-0.8,0.3c-0.3,0.2-0.5,0.4-0.6,0.7c-0.2,0.4-0.2,0.7-0.2,0.8c0,0.5,0.2,0.9,0.6,1.3
		c0.4,0.3,0.9,0.5,1.6,0.5c0.5,0,0.9-0.1,1.2-0.2c0.3,0,0.7-0.3,1.2-0.7l0.2,0.7v0.1h1.1l-0.1-0.4l-0.2-0.6V533.5L242.5,533.5
		 M238.7,536l0.5-0.2h0.5c0.9-0.1,1.5-0.2,1.8-0.4v0.4c0,0.5-0.1,0.9-0.2,1.1c-0.1,0.4-0.4,0.6-0.8,0.8s-0.8,0.3-1.1,0.3
		c-0.4,0-0.7-0.1-0.9-0.4c-0.2-0.1-0.4-0.3-0.4-0.7l0.1-0.2v-0.1l0.1-0.2L238.7,536 M229.1,529.8l-1.1-0.1h-3.5v8.8h3.2
		c0.5,0,1,0,1.4-0.2c0.4-0.1,0.8-0.2,1-0.4l0.8-0.8c0.3-0.4,0.5-0.9,0.6-1.4c0.2-0.4,0.2-1,0.2-1.7c0-0.9-0.1-1.6-0.3-2.1
		c-0.3-0.7-0.7-1.2-1.1-1.5C229.9,530.2,229.5,530,229.1,529.8 M229,531c0.4,0.2,0.8,0.5,1.1,1s0.5,1.2,0.5,2.1c0,0.4-0.1,1-0.2,1.8
		c-0.1,0.4-0.4,0.8-0.6,1.1c-0.2,0.2-0.4,0.4-0.8,0.5c-0.3,0.1-0.8,0.2-1.4,0.2h-1.9V531h1.9C228.3,530.8,228.8,530.9,229,531
		 M245.2,529.8h-1.1v1.2h1.1V529.8z"/>
	<path d="M251.3,550.6c0,1,0.3,1.9,0.9,2.5c0.6,0.5,1.3,0.8,2.1,0.8c0.5,0,1-0.1,1.5-0.3c0.5-0.3,0.9-0.7,1.1-1.1
		c0.2-0.6,0.4-1.2,0.4-1.9c0-1-0.3-1.8-0.9-2.4c-0.6-0.6-1.3-0.8-2.1-0.8s-1.5,0.3-2,0.8C251.6,548.5,251.3,549.4,251.3,550.6
		 M253,552.4c-0.4-0.4-0.5-1-0.5-1.8s0.2-1.4,0.5-1.8c0.4-0.4,0.9-0.6,1.4-0.6c0.6,0,1,0.2,1.4,0.7c0.3,0.3,0.5,0.9,0.5,1.8
		c0,0.9-0.2,1.5-0.5,1.9s-0.8,0.6-1.4,0.6C253.8,553,253.4,552.8,253,552.4 M245.8,547.4H245v0.8h0.8v4.1l0.1,0.3v0.3v0.2
		c0.2,0.3,0.4,0.4,0.5,0.5c0.3,0.1,0.6,0.2,0.9,0.2h0.6h0.2l-0.1-1h-0.2h-0.1h-0.1l-0.4-0.1c-0.1-0.1-0.1-0.2-0.1-0.2H247v-4.2h1
		v-0.8h-1.1v-2.2l-1.1,0.6L245.8,547.4 M250.1,547.4H249v6.4h1.1V547.4 M250.1,546.2V545H249v1.2H250.1 M263.8,548.9L263.8,548.9
		c0-0.3-0.1-0.6-0.4-0.9c-0.1-0.3-0.4-0.5-0.7-0.5c-0.2-0.2-0.6-0.2-1.1-0.2c-0.9,0-1.5,0.3-2,1v-0.9h-1v6.4h1.1v-3.5
		c0-0.8,0.2-1.3,0.5-1.7c0.4-0.3,0.8-0.5,1.2-0.5s0.6,0.1,0.8,0.2c0.2,0.1,0.4,0.2,0.5,0.5v0.5l0.1,0.2v4.2h1.1L263.8,548.9
		 M242,547.2c-0.6,0-1.1,0.1-1.5,0.4c-0.4,0.2-0.7,0.6-1.1,1.2c-0.2,0.5-0.3,1.1-0.3,1.8c0,1.1,0.3,1.9,0.8,2.5
		c0.6,0.5,1.3,0.8,2.1,0.8s1.4-0.2,1.8-0.6c0.5-0.5,0.8-1,0.9-1.7l-1-0.2c-0.1,0.6-0.3,1-0.5,1.2c-0.3,0.3-0.7,0.4-1.1,0.4
		c-0.5,0-0.9-0.2-1.2-0.6c-0.4-0.4-0.5-1-0.5-1.8s0.2-1.4,0.5-1.8c0.3-0.4,0.7-0.6,1.3-0.6c0.4,0,0.7,0.1,0.9,0.3
		c0.3,0.2,0.4,0.5,0.5,1l1-0.1c-0.1-0.7-0.4-1.2-0.8-1.5C243.3,547.4,242.8,547.3,242,547.2 M232.6,552.4c0.1,0.3,0.2,0.6,0.4,0.8
		c0.2,0.3,0.4,0.5,0.8,0.5c0.4,0.1,0.7,0.2,1,0.2c0.9,0,1.5-0.3,2-1v0.9h1v-6.4h-1.1v3.4c0,0.6,0,1-0.1,1.2
		c-0.1,0.3-0.3,0.5-0.6,0.8c-0.3,0.1-0.6,0.2-0.9,0.2s-0.6-0.1-0.8-0.2c-0.2-0.2-0.4-0.4-0.4-0.7l-0.1-0.2v-4.5h-1.1v4.8
		L232.6,552.4 M230.4,546c-0.2-0.4-0.6-0.7-1.1-0.9c-0.4-0.2-1-0.3-1.7-0.3c-0.6,0-1.2,0.1-1.6,0.3c-0.4,0.1-0.7,0.4-1.1,0.9
		c-0.3,0.4-0.4,0.8-0.4,1.2s0.1,0.8,0.4,1.1c0.3,0.4,0.6,0.6,0.9,0.8l3.3,1c0.4,0.2,0.7,0.4,0.8,0.5c0.2,0.1,0.2,0.3,0.2,0.7
		c0,0.3-0.1,0.6-0.3,0.8c-0.1,0.2-0.4,0.3-0.8,0.5c-0.5,0.1-0.9,0.2-1.2,0.2c-0.5,0-0.9-0.1-1.3-0.2c-0.4-0.2-0.7-0.5-0.9-0.7
		c-0.2-0.3-0.3-0.7-0.3-1.1l-1.1,0.2c0,0.6,0.2,1.1,0.5,1.5c0.2,0.4,0.6,0.8,1.2,1c0.6,0.2,1.2,0.3,2,0.3c0.7,0,1.3-0.1,1.7-0.3
		c0.5-0.3,0.9-0.6,1.2-1s0.4-0.8,0.4-1.3c0-0.4-0.1-0.8-0.4-1.2c-0.3-0.4-0.7-0.7-1.1-0.9s-1-0.4-2-0.6c-0.9-0.2-1.5-0.4-1.8-0.6
		c-0.2-0.2-0.4-0.5-0.4-0.9c0-0.3,0.2-0.6,0.5-0.8c0.3-0.3,0.8-0.4,1.6-0.4c0.7,0,1.2,0.1,1.5,0.5c0.4,0.3,0.6,0.7,0.6,1.2h1.1
		C230.7,546.9,230.6,546.4,230.4,546z"/>
	<path d="M197.9,543.3v10.5h20.9v-10.5H197.9 M198.9,552.8v-8.5h18.9v8.5H198.9z"/>
	<path class="st19" d="M198.9,544.3v8.5h18.9v-8.5H198.9z"/>
	<path id="Layer0_303_MEMBER_0_MEMBER_2_1_STROKES" class="st7" d="M198.9,544.3h18.9v-1h-18.9V544.3v8.5h18.9v-8.5 M217.8,543.3h1
		v10.5h-20.9v-1v-8.5v-1h1l-1,1h1 M197.9,552.8h1"/>
	<path class="st6" d="M197.9,513v9.5h19.9V513H197.9z"/>
	<path d="M197.9,513v10.4h20.9V513H197.9 M198.9,522.5v-8.6h18.9v8.6H198.9z"/>
	<path id="Layer0_305_MEMBER_0_MEMBER_1_1_STROKES" class="st7" d="M198.9,513.9h18.9V513h-18.9V513.9v8.6h18.9v-8.6 M198.9,513h-1
		v0.9L198.9,513z M198.9,513.9h-1v8.6h1 M217.8,513h1v10.4h-20.9v-0.9"/>
	<path class="st6" d="M768.7,11.9h-7.2v277.2h7.2V11.9z"/>
	<path class="st6" d="M430.8,92.9V45.3h-7.1v47.6C423.7,92.9,430.8,92.9,430.8,92.9z"/>
	<path class="st6" d="M768.7,17.6v-7.1H424.4v7.1H768.7z"/>
	<path class="st21" d="M341.6,92.7v-7.1H234v7.1H341.6z"/>
	<path class="st21" d="M543.4,39.3v-7.1h-209v7.1H543.4z"/>
	<path class="st21" d="M543.5,32.3h-7.1v58.6h7.1V32.3z"/>
	<path class="st1" d="M546.1,47.5h-11.6v27.8h11.6V47.5z"/>
	<path d="M546.1,74.3l-0.9,1h0.9V74.3 M545.2,74.3v1l0.9-1H545.2 M545.2,75.3v-1h-10.7v1H545.2 M546.1,47.5h-0.9v26.8h0.9V47.5
		 M546.1,47.5v-0.9h-12.5v28.7h0.9v-1V47.5h10.7H546.1z"/>
	<path id="Layer0_312_MEMBER_0_MEMBER_1_1_STROKES" class="st7" d="M546.1,47.5v-0.9h-12.5v28.7h0.9v-1V47.5h10.7H546.1v26.8v1h-0.9
		h-10.7 M545.2,75.3v-1h-10.7 M545.2,74.3h0.9l-0.9,1 M545.2,74.3V47.5"/>
	<path class="st2" d="M542.1,49.4h-4.5v17.8h-1.9l4.1,5.3l4.1-5.3H542L542.1,49.4L542.1,49.4z"/>
	<path class="st21" d="M341.4,33.2h-7.1v56.9h7.1V33.2z"/>
	<path class="st6" d="M433.8,23l-2.3-2l-1.2-0.8l-2.9-1.4l-3.1-0.9l-1.4,7l1.1,0.2l1.9,0.7l0.8,0.4l2.8,2.4l1,1.5l0.8,1.5l0.8,3.3
		v1.6l-0.1,0.8l-0.8,2.2l-1.3,1.8l-2,1.5l-1.8,0.7l-2.3,0.5l1,7l1.8-0.3l3.2-1l2.8-1.5l1.2-1L436,45l1.6-2.4l1-2.7l0.5-2.8v-4.2
		l-0.6-2.7l-1.1-2.6l-1.4-2.5L433.8,23z"/>
	<path class="st6" d="M430,24.7V10.5h-7.1v14.2H430z"/>
	<path class="st6" d="M586.2,93.9v-7.2l-161.6-0.8V93L586.2,93.9z"/>
	<path class="st1" d="M524.7,94.4V82.9H497v11.5H524.7z"/>
	<path d="M524.7,94.4h-1H497V83.7v-0.8h-1v12.5h28.7V94.4 M523.8,82.9l1,0.8v-0.8H523.8 M523.8,83.7v-0.8H497v0.8H523.8 M523.8,83.7
		h1l-1-0.8V83.7 M524.7,83.7h-1v10.7h1V83.7z"/>
	<path class="st2" d="M522,89.1l-5.3-4.2v1.9h-17.9v4.4h17.9V93L522,89.1z"/>
	<text transform="matrix(1 0 0 1 571.8501 51.4251)" class="st22 st23">THERMAL</text>
	<text transform="matrix(1 0 0 1 555.4501 65.8251)" class="st22 st23">BYPASS VALVE</text>
	<text transform="matrix(1 0 0 1 680.2488 58.6249)" class="st22 st23">FUEL/OIL</text>
	<text transform="matrix(1 0 0 1 680.2488 73.025)" class="st22 st23">EXCHANGER</text>
	<text transform="matrix(1 0 0 1 851.925 65.7001)" class="st22 st23">ISOLATION</text>
	<text transform="matrix(1 0 0 1 864.6251 79.1001)" class="st22 st23">VALVE</text>
	<text transform="matrix(1 0 0 1 529.2998 169.5001)" class="st22 st24">PRESS.</text>
	<text transform="matrix(1 0 0 1 529.2998 183.9)" class="st22 st24">TX</text>
	<text transform="matrix(1 0 0 1 297.438 254.2999)" class="st22 st23">FILL</text>
	<text transform="matrix(1 0 0 1 282.7837 268.7)" class="st22 st23">CONN.</text>
	<text transform="matrix(1 0 0 1 963.2998 23.7751)" class="st22 st23">HAND</text>
	<text transform="matrix(1 0 0 1 963.2998 38.1751)" class="st22 st23">PUMP</text>
	<text transform="matrix(1 0 0 1 559.2654 331.3877)" class="st22 st23">TEMP.</text>
	<text transform="matrix(1 0 0 1 559.2654 345.7877)" class="st22 st23">SW.</text>
	<text transform="matrix(1 0 0 1 593.3398 422.3635)" class="st22 st25">RESERVOIR</text>
	<text transform="matrix(1 0 0 1 468.1104 373.3125)" class="st22 st23">QTY</text>
	<text transform="matrix(1 0 0 1 477.4104 387.7125)" class="st22 st23">TX</text>
	<text transform="matrix(1 0 0 1 500.5303 411.2126)" class="st22 st26">RELIEF/</text>
	<text transform="matrix(1 0 0 1 502.5303 420.2126)" class="st22 st26">BLEED </text>
	<text transform="matrix(1 0 0 1 498.0303 429.2126)" class="st22 st26">SAMPLE</text>
	<text transform="matrix(1 0 0 1 505.5303 438.2126)" class="st22 st26">VALVE</text>
	<text transform="matrix(1 0 0 1 597.1999 525.775)" class="st22 st23">ECOLOGY</text>
	<text transform="matrix(1 0 0 1 597.1999 540.175)" class="st22 st23">BOTTLE</text>
	<text transform="matrix(1 0 0 1 991.3002 269.5751)" class="st22 st26">BRAKE</text>
	<text transform="matrix(1 0 0 1 991.3002 280.3751)" class="st22 st26">ACCUMULATOR</text>
	<text transform="matrix(1 0 0 1 996.05 324.9)" class="st27 st23">PRESS.</text>
	<text transform="matrix(1 0 0 1 996.05 339.3)" class="st27 st23">TX</text>
	<text transform="matrix(1 0 0 1 842.9551 373.3121)" class="st27 st23">OUTB. FLIGHT SPOILE</text>
	<text transform="matrix(1 0 0 1 857.7551 387.7121)" class="st27 st23">LANDING GEAR</text>
	<text transform="matrix(1 0 0 1 844.1551 402.1121)" class="st27 st23">STEERING ASSEMBLY</text>
	<text transform="matrix(1 0 0 1 668.002 357.7499)" class="st27 st23">UPPER RUDDER &amp; </text>
	<text transform="matrix(1 0 0 1 683.002 372.1499)" class="st27 st23">L/R CENTER </text>
	<text transform="matrix(1 0 0 1 671.602 386.5499)" class="st27 st23">ELEVATOR PCU&#x2019;s</text>
	<text transform="matrix(1 0 0 1 979.243 382.4962)" class="st27 st23">EMERGENCY</text>
	<text transform="matrix(1 0 0 1 994.343 396.8962)" class="st27 st23">BRAKE</text>
	<text transform="matrix(1 0 0 1 223.4501 310.0749)" class="st22 st23">FIREWALL</text>
	<text transform="matrix(1 0 0 1 223.4501 324.4748)" class="st22 st23">SHUTOFF</text>
	<text transform="matrix(1 0 0 1 223.4501 338.8748)" class="st22 st23">VALVE</text>
	<text transform="matrix(1 0 0 1 292.734 203.3752)" class="st22 st23">GND</text>
	<text transform="matrix(1 0 0 1 280.734 217.7752)" class="st22 st23">CONN.</text>
	<text transform="matrix(1 0 0 1 361.5501 95.5035)" class="st22 st23">FILTER</text>
	<text transform="matrix(1 0 0 1 361.5501 109.9035)" class="st22 st23">MANIFOLD</text>
	<text transform="matrix(1 0 0 1 269.808 147.2)" class="st22 st28">PRESS.</text>
	<text transform="matrix(1 0 0 1 292.7612 162.7)" class="st22 st28">SW.</text>
	<text transform="matrix(1 0 0 1 863.3746 192.1)" class="st22 st28">PRESS.</text>
	<text transform="matrix(1 0 0 1 863.3746 207.6)" class="st22 st28">SW.</text>
	<circle class="st1" cx="944.3" cy="47.4" r="13.9"/>
	<path d="M944.3,33.1c-7.9,0-14.3,6.4-14.3,14.3s6.4,14.3,14.3,14.3s14.3-6.4,14.3-14.3S952.2,33.1,944.3,33.1z M944.3,60.6
		c-7.3,0-13.2-5.9-13.2-13.2s5.9-13.2,13.2-13.2s13.2,5.9,13.2,13.2S951.6,60.6,944.3,60.6z"/>
	<path d="M944,47.4l-10.9-5.5v10.9L944,47.4z"/>
	<path id="Layer0_108_1_STROKES_1_" class="st7" d="M944,47.4l-10.9,5.4V41.9L944,47.4z"/>
	<rect x="942.2" y="23.9" width="1" height="9.6"/>
	<rect x="945.5" y="26.2" width="1" height="7.6"/>
	<rect x="942.3" y="11" transform="matrix(0.5436 -0.8394 0.8394 0.5436 410.3112 802.2731)" width="1" height="25.7"/>
	<circle cx="932.2" cy="17" r="4"/>
	<text transform="matrix(1 0 0 1 315.7599 440.2)" class="st22 st23">GROUND</text>
	<text transform="matrix(1 0 0 1 315.7599 454.2)" class="st22 st23">RETURN</text>
	<text transform="matrix(1 0 0 1 315.7599 468.2)" class="st22 st23">CONN.</text>
	<ellipse class="st1" cx="812.8" cy="289.4" rx="18.1" ry="17.2"/>
	<path d="M794.3,289.4c0,9.8,8.3,17.7,18.5,17.7s18.5-7.9,18.5-17.7c0-9.8-8.3-17.7-18.5-17.7C802.6,271.7,794.3,279.6,794.3,289.4z
		 M830,289.4c0,9-7.7,16.3-17.1,16.3c-9.4,0-17.1-7.3-17.1-16.3s7.7-16.3,17.1-16.3S830,280.4,830,289.4z"/>
	<path d="M812.9,273.4l-7.1,13.5h14.1L812.9,273.4z"/>
	<path id="Layer0_108_1_STROKES_3_" class="st7" d="M812.9,273.4l7,13.5h-14.1L812.9,273.4z"/>
	<ellipse class="st1" cx="854.8" cy="289.4" rx="18.1" ry="17.2"/>
	<path d="M854.8,307.1c10.2,0,18.5-7.9,18.5-17.7c0-9.8-8.3-17.7-18.5-17.7s-18.5,7.9-18.5,17.7S844.6,307.1,854.8,307.1z
		 M854.8,305.7c-9.4,0-17.1-7.3-17.1-16.3s7.7-16.3,17.1-16.3c9.4,0,17.1,7.3,17.1,16.3C872,298.4,864.3,305.7,854.8,305.7z"/>
	<path d="M861.9,276h-14.1l7.1,13.5L861.9,276z"/>
	<path id="Layer0_108_1_STROKES_4_" class="st7" d="M847.8,276h14.1l-7,13.5L847.8,276z"/>
	<text transform="matrix(1 0 0 1 771.5493 310.6)" class="st22 st28">PTU</text>
	<text transform="matrix(1 0 0 1 452.7935 209.575)" class="st22 st23">PRESSURE</text>
	<text transform="matrix(1 0 0 1 452.7935 223.9749)" class="st22 st23">RELIEF</text>
	<text transform="matrix(1 0 0 1 452.7935 238.375)" class="st22 st23">VALVE</text>
	<path class="st29" d="M488.3,253.9h4.7c3.4,0,6.1,2.8,6.1,6.1v22.4c0,3.4-2.8,6.1-6.1,6.1h-9c-3.4,0-6.1-2.8-6.1-6.1V260
		c0-3.4,2.8-6.1,6.1-6.1H488.3"/>
	<path class="st30" d="M503.3,265v-14.4h-30.7V265H503.3z"/>
	<path d="M504.3,265.9v-15.3h-31.7v15.3H504.3 M503.3,251.5V265h-29.7v-13.5H503.3z"/>
	<path class="st29" d="M467.9,126h4.7c3.4,0,6.1,2.8,6.1,6.1v22.4c0,3.4-2.8,6.1-6.1,6.1h-9c-3.4,0-6.1-2.8-6.1-6.1v-22.4
		c0-3.4,2.8-6.1,6.1-6.1L467.9,126"/>
	<path class="st30" d="M483,137v-14.4h-30.7V137H483z"/>
	<path d="M484,137.9v-15.3h-31.7v15.3H484 M483,123.5V137h-29.7v-13.5H483z"/>
	<path class="st29" d="M472.4,85.9h4.7c3.4,0,6.1,2.8,6.1,6.1v22.4c0,3.4-2.8,6.1-6.1,6.1h-9c-3.4,0-6.1-2.8-6.1-6.1V92
		c0-3.4,2.8-6.1,6.1-6.1H472.4"/>
	<path class="st30" d="M487.4,96.9V82.5h-30.7v14.4H487.4z"/>
	<path d="M488.4,97.8V82.5h-31.7v15.3H488.4 M487.4,83.4v13.5h-29.7V83.4H487.4z"/>
	<path class="st29" d="M271.8,85.5h4.7c3.4,0,6.1,2.8,6.1,6.1V114c0,3.4-2.8,6.1-6.1,6.1h-9c-3.4,0-6.1-2.8-6.1-6.1V91.6
		c0-3.4,2.8-6.1,6.1-6.1H271.8"/>
	<path class="st30" d="M286.8,96.5V82.1h-30.7v14.4H286.8z"/>
	<path d="M287.8,97.4V82.1h-31.7v15.3H287.8 M286.8,83v13.5h-29.7V83H286.8z"/>
	<text transform="matrix(1 0 0 1 199.9579 97.1252)" class="st22 st31">EDP</text>
	<g>
		<g transform="matrix( 1, 0, 0, 1, -130.15,-220.55) ">
			<g>
				<g id="Layer0_39_MEMBER_0_MEMBER_0_FILL">
					<path d="M1026.5,357.6l-19.1-19.1l-1,1l19.1,19.1L1026.5,357.6z"/>
				</g>
			</g>
		</g>
		<g transform="matrix( 1, 0, 0, 1, -130.15,-220.55) ">
			<g>
				<g id="Layer0_40_MEMBER_0_MEMBER_0_FILL">
					<path d="M1007.4,358.6l19.1-19.1l-0.9-1l-19.1,19.1L1007.4,358.6z"/>
				</g>
			</g>
		</g>
	</g>
	<circle class="st5" cx="886.4" cy="127.9" r="13.8"/>
	<g>
		<g>
			<path id="Layer0_268_1_STROKES_1_" class="st12" d="M829,187.9L829,187.9L829,187.9l-0.3,0.2v0.1l0,0l0,0h-0.1v0.1l0,0v0.1
				l-0.1,0.1v10h0.1v0.1v0.1l0,0l0.1,0.1l0,0l0.1,0.1l0,0l0.1,0.1l0,0l0,0h0.1l0,0l0.1,0.1h0.1l0,0h0.1v0.1h21v-0.1h0.1l0,0h0.1V199
				l0,0l0.2-0.2v0.2l0,0l0,0h0.1v-0.1h0.1v-0.1l0,0v-10.2l0,0v-0.1l-0.1-0.1l0,0v-0.1l0,0h-0.1v-0.1l0,0h-0.1h-0.1l0,0v-0.1h-0.1
				l0,0h-0.1l-0.1-0.1h-0.1H850h-20.7l0,0L829,187.9L829,187.9L829,187.9L829,187.9L829,187.9z"/>
			<path id="Layer0_269_1_STROKES_1_" class="st12" d="M858.1,189.9l-0.1-0.1v-0.1h-0.1l0,0l-0.2-0.1h-0.1l-0.1-0.1h-5.8h-0.1l0,0
				l-0.1,0.1l0,0l-0.1,0.1l0,0l-0.2,0.1l0,0h-0.1v0.1l0,0l0,0L851,190v0.1l0,0v6.7l0,0v0.1l0.1,0.1l0,0l0,0l0,0l0.1,0.1l0,0h0.1v0.1
				l0,0h0.1l0.1,0.1h0.1l0,0h0.1v0.1h0.1l0,0h5.6h0.1h0.1v-0.1h0.1h0.1h0.1v-0.1l0,0h0.1l0.2-0.1V197l0.1-0.1v-0.1l0,0v-0.2h0.1
				v-6.4l-0.1-0.1v-0.2l0,0H858.1L858.1,189.9L858.1,189.9z"/>
			<path id="Layer0_270_1_STROKES_1_" class="st12" d="M825,189.5L825,189.5L825,189.5l-0.2,0.2h-0.1l0,0h-0.1l0,0v0.1l-0.1,0.1l0,0
				h-0.1v0.1h-0.1v0.1l0,0v6.7l0,0v0.1h0.1v0.1l0.1,0.1v0.1l0.2,0.2h0.1l0,0h0.1l0.1,0.1h0.1l0,0h3h0.1h0.2v-0.1h0.1l0,0l0,0
				l0.3-0.3l0,0l0,0V197h0.1l0,0h0.1v-6.7h-0.1v-0.1h-0.1V190l0,0v-0.1h-0.1l0,0v-0.1h-0.1h-0.1l0,0l0,0l-0.1-0.1h-0.1l-0.1-0.1l0,0
				h-0.1L825,189.5L825,189.5L825,189.5z"/>
		</g>
		<text transform="matrix(1 0 0 1 833.225 197.15)" class="st27 st24">P</text>
	</g>
	<g>
		<g>
			<path id="Layer0_268_1_STROKES_2_" class="st12" d="M348.8,144.6L348.8,144.6L348.8,144.6l-0.1-0.1h-0.2l0,0h-20.7l0,0h-0.1
				l-0.1,0.1l0,0l0,0l0,0v0.1l0,0h-0.1l0,0l0,0v0.1l0,0l0,0v0.1l0,0l-0.1,0.1v0.1l0,0v10.2l0,0v0.1l0,0v0.1h0.1l0,0l0,0v0.1l0.2,0.2
				l0,0v0.1l0,0l0,0h0.1v0.1h21v-0.1h0.1l0,0l0,0l0.1-0.1l0,0l0,0l0,0l0,0v-0.1l0,0l0.1-0.1l0,0v-0.1l0,0v-0.1v-0.1l0,0v-10v-0.1
				v-0.1l0,0V145l0,0l0,0l0,0v-0.1L348.8,144.6L348.8,144.6L348.8,144.6L348.8,144.6z"/>
			<path id="Layer0_269_1_STROKES_2_" class="st12" d="M319.8,146.7L319.8,146.7v0.1l0,0v0.2l-0.1,0.1v6.4h0.1v0.2l0,0v0.1l0.1,0.1
				v0.1l0.2,0.1l0,0l0,0v0.1l0,0h0.1h0.1v0.1h0.1h0.1h5.6l0,0h0.1v-0.1h0.1l0,0l0,0l0.1-0.1l0,0l0,0V154l0,0l0,0l0.1-0.1l0,0l0,0
				l0,0v-0.1v-0.1l0,0V147l0,0v-0.1v-0.1l0,0l0,0v-0.1h-0.1l0,0l-0.1-0.1l0,0l-0.1-0.1l0,0v-0.1l0,0h-0.1h-5.8l-0.1,0.1h-0.1
				l-0.1,0.1l0,0h-0.1v0.1L319.8,146.7L319.8,146.7z"/>
			<path id="Layer0_270_1_STROKES_2_" class="st12" d="M352.8,146.2L352.8,146.2h-3.2h-0.1l0,0l-0.1,0.1l0,0l-0.1,0.1l0,0l0,0h-0.1
				l0,0v0.1l0,0l0,0v0.1l0,0v0.1h-0.1v0.1l0,0v6.7l0,0v0.1h0.1v0.1l0,0l0,0l0.3,0.3l0,0l0,0h0.1v0.1h0.1h0.1h3l0,0h0.1V154h0.1l0,0
				l0,0l0.2-0.2v0.2l0.1-0.1v-0.1h0.1v-0.1l0,0V147l0,0v-0.1h-0.1v-0.1l0,0l0,0l-0.1-0.1v-0.1l0,0h-0.1l0,0l0,0l-0.1-0.1l0,0
				L352.8,146.2L352.8,146.2z"/>
		</g>
		<text transform="matrix(1 0 0 1 339.6247 153.85)" class="st27 st24">P</text>
	</g>
	<g>
		<g>
			<path id="Layer0_268_1_STROKES_3_" class="st12" d="M532.8,145L532.8,145l-0.1,0.1l-0.2,0.2v0.1l0,0l0,0l0,0v0.1l0,0v0.1v0.1v10
				l0,0v0.1v0.1l0,0v0.1l0,0l0.1,0.1l0,0v0.1l0,0l0,0l0,0l0,0l0.1,0.1l0,0l0,0h0.1v0.1h21v-0.1h0.1l0,0l0,0v-0.1l0,0l0.2-0.2v-0.1
				l0,0l0,0h0.1v0.1l0,0v-0.1l0,0v-10.2l0,0v-0.1l-0.1-0.1l0,0v-0.1l0,0l0,0v-0.1l0,0l0,0H554l0,0V145l0,0l0,0l0,0l-0.1-0.1h-0.1
				l0,0h-20.7l0,0H533L532.8,145L532.8,145L532.8,145L532.8,145z"/>
			<path id="Layer0_269_1_STROKES_3_" class="st12" d="M561.9,147.1l-0.1-0.1v-0.1h-0.1l0,0l-0.1-0.1h-0.1l-0.1-0.1h-5.8h-0.1l0,0
				v0.1l0,0l-0.1,0.1l0,0l-0.1,0.1l0,0H555v0.1l0,0l0,0v0.1v0.1l0,0v6.7l0,0v0.1v0.1l0,0l0,0l0,0l0.1,0.1l0,0l0,0v0.1l0,0l0,0
				l0.1,0.1l0,0l0,0h0.1v0.1h0.1l0,0h5.6h0.1h0.1v-0.1h0.1h0.1l0,0v-0.1l0,0l0,0l0.2-0.1v-0.1l0.1-0.1V154l0,0l0,0h0.1v-6.4
				l-0.1-0.1v-0.2l0,0L561.9,147.1L561.9,147.1L561.9,147.1z"/>
			<path id="Layer0_270_1_STROKES_3_" class="st12" d="M528.8,146.6L528.8,146.6l-0.1,0.1l-0.1,0.1l0,0l0,0h-0.1l0,0v0.1l-0.1,0.1
				l0,0l0,0v0.1h-0.1v0.1l0,0v6.7l0,0v0.1h0.1v0.1l0.1,0.1v0.1l0.2,0.2l0,0l0,0h0.1v0.1h0.1l0,0h3h0.1h0.1v-0.1h0.1l0,0l0,0l0.3-0.3
				l0,0l0,0v-0.1h0.1V154l0,0v-6.7l0,0v-0.1h-0.1v-0.1l0,0V147l0,0l0,0v-0.1l0,0h-0.1l0,0l0,0l-0.1-0.1l0,0l-0.1-0.1l0,0h-0.1
				L528.8,146.6L528.8,146.6L528.8,146.6z"/>
		</g>
		<text transform="matrix(1 0 0 1 537.05 154.25)" class="st27 st24">P</text>
	</g>
	<g>
		<g>
			<path id="Layer0_268_1_STROKES_4_" class="st12" d="M906.2,100.1L906.2,100.1L906.2,100.1l-0.3,0.3v0.1h-0.1l0,0l0,0v0.1h-0.1
				v0.1v0.1v10l0,0v0.1l0.1,0.1l0,0v0.1l0,0l0.1,0.1l0,0v0.1h0.1l0,0l0,0h0.1l0.1,0.1l0,0l0,0h0.1l0.1,0.1h20.9l0.1-0.1h0.1h0.1l0,0
				v-0.1h0.1l0.2-0.2V111h0.1l0,0h0.1v-0.1l0,0v-0.1h0.1v-10.2h-0.1v-0.1l-0.1-0.1l0,0l-0.1-0.1l0,0l0,0l-0.1-0.1l0,0l0,0h-0.1h-0.1
				v-0.1l0,0h-0.1l0,0l-0.1-0.1h-0.2l0,0h-20.7h-0.1L906.2,100.1L906.2,100.1L906.2,100.1L906.2,100.1L906.2,100.1z"/>
			<path id="Layer0_269_1_STROKES_4_" class="st12" d="M935.3,102.1L935.3,102.1L935.3,102.1l-0.2-0.1H935l-0.1-0.1h-0.1l-0.1-0.1
				h-5.8h-0.1h-0.1v0.1h-0.1l-0.1,0.1h-0.1l-0.1,0.1l0,0h-0.1v0.1h-0.1l0,0v0.1v0.1H928v6.7h0.1v0.1v0.1l0,0h0.1l0,0l0.1,0.1l0,0
				l0,0l0.1,0.1l0,0l0,0l0.1,0.1l0,0l0,0h0.1l0.1,0.1h0.1h0.1h5.6h0.1h0.1v-0.1h0.1h0.1l0,0l0.1-0.1l0,0l0,0l0.2-0.1v-0.1l0.1-0.1
				v-0.1h0.1v-0.2h0.1v-6.4l-0.1-0.1L935.3,102.1L935.3,102.1L935.3,102.1L935.3,102.1L935.3,102.1z"/>
			<path id="Layer0_270_1_STROKES_4_" class="st12" d="M902.2,101.7L902.2,101.7L902.2,101.7l-0.2,0.2l0,0l0,0h-0.1h-0.1v0.1
				l-0.1,0.1l0,0l0,0v0.1h-0.1v0.1h-0.1v6.7h0.1v0.1h0.1v0.1l0.1,0.1v0.1l0.2,0.2l0,0h0.1h0.1v0.1h0.1h0.1h3h0.1h0.1l0.1-0.1h0.1
				l0,0h0.1l0.3-0.3l0,0h0.1v-0.1h0.1v-0.1l0,0v-6.7l0,0v-0.1h-0.1v-0.1h-0.1v-0.1l0,0h-0.1V102l0,0H906l0,0h-0.1l-0.1-0.1l0,0
				l-0.1-0.1h-0.1h-0.1L902.2,101.7L902.2,101.7L902.2,101.7z"/>
		</g>
		<text transform="matrix(1 0 0 1 910.4 109.308)" class="st27 st24">P</text>
	</g>
	<g>
		<g>
			<path id="Layer0_268_1_STROKES_5_" class="st12" d="M867.7,100.1L867.7,100.1L867.7,100.1L867.7,100.1l-0.3-0.1l0,0h-20.7l0,0
				h-0.1l-0.1,0.1l0,0l0,0l0,0v0.1l0,0h-0.1l0,0l0,0v0.1l0,0l0,0v0.1l0,0l-0.1,0.1v0.1l0,0v10.2l0,0v0.1l0,0v0.1h0.1l0,0l0,0v0.1
				l0.2,0.2l0,0v0.1l0,0l0,0h0.1v0.1h21v-0.1h0.1l0,0l0,0l0.1-0.1l0,0l0,0l0,0l0,0v-0.1l0,0l0.1-0.1l0,0V111l0,0v-0.1v-0.1l0,0v-10
				v-0.1v-0.1l0,0v-0.1l0,0l0,0l0,0v-0.1L867.7,100.1L867.7,100.1L867.7,100.1L867.7,100.1z"/>
			<path id="Layer0_269_1_STROKES_5_" class="st12" d="M838.7,102.2L838.7,102.2L838.7,102.2L838.7,102.2v0.3l-0.1,0.1v6.4h0.1v0.2
				l0,0v0.1l0.1,0.1v0.1l0.2,0.1l0,0l0,0v0.1l0,0h0.1h0.1v0.1h0.1h0.1h5.6l0,0h0.1v-0.1h0.1l0,0l0,0l0.1-0.1l0,0l0,0v-0.1l0,0l0,0
				l0.1-0.1l0,0l0,0l0,0v-0.1v-0.1l0,0v-6.7l0,0v-0.1v-0.1l0,0l0,0v-0.1h-0.1l0,0l-0.1-0.1l0,0l-0.1-0.1l0,0v-0.1l0,0H845h-5.8
				l-0.1,0.1H839l-0.1,0.1l0,0h-0.1v0.1L838.7,102.2L838.7,102.2z"/>
			<path id="Layer0_270_1_STROKES_5_" class="st12" d="M871.7,101.7L871.7,101.7h-3.2h-0.1l0,0l-0.1,0.1l0,0l-0.1,0.1l0,0l0,0H868
				l0,0v0.1l0,0l0,0v0.1l0,0v0.1h-0.1v0.1l0,0v6.7l0,0v0.1h0.1v0.1l0,0l0,0l0.3,0.3l0,0l0,0h0.1v0.1h0.1h0.1h3l0,0h0.1v-0.1h0.1l0,0
				l0,0l0.2-0.2v-0.1l0.1-0.1V109h0.1v-0.1l0,0v-6.7l0,0v-0.1h-0.1V102l0,0l0,0l-0.1-0.1v0.1l0,0l0,0l0,0l0,0l-0.1-0.1l0,0
				L871.7,101.7L871.7,101.7z"/>
		</g>
		<text transform="matrix(1 0 0 1 858.5497 109.3081)" class="st27 st24">P</text>
	</g>
	<text transform="matrix(1 0 0 1 942.1926 101.9169)" class="st22 st24">PX</text>
	<text transform="matrix(1 0 0 1 942.1926 115.9169)" class="st22 st24">SW</text>
	<text transform="matrix(1 0 0 1 813.1503 101.9168)" class="st22 st24">PX</text>
	<text transform="matrix(1 0 0 1 813.1503 115.9168)" class="st22 st24">SW</text>
	<g>
		<path class="st12" d="M622.4,328.8v15.1c0,0.7-0.6,1.3-1.3,1.3h-6.8c-0.7,0-1.3-0.6-1.3-1.3v-15.1c0-0.7,0.6-1.3,1.3-1.3h6.8
			C621.8,327.4,622.4,328,622.4,328.8z"/>
		<path class="st12" d="M621,322.3v3.8c0,0.5-0.4,0.9-0.9,0.9h-4.7c-0.5,0-0.9-0.4-0.9-0.9v-3.8c0-0.5,0.4-0.9,0.9-0.9h4.7
			C620.5,321.4,621,321.8,621,322.3z"/>
		<path class="st12" d="M619.9,345.8v2.4c0,0.3-0.3,0.6-0.6,0.6H616c-0.3,0-0.6-0.3-0.6-0.6v-2.4c0-0.3,0.3-0.6,0.6-0.6h3.4
			C619.7,345.2,619.9,345.5,619.9,345.8z"/>
	</g>
	<text transform="matrix(1 0 0 1 614.7872 340.3349)" class="st27 st23">T</text>
	<g>
		<path class="st12" d="M606.4,328.8v15.1c0,0.7-0.6,1.3-1.3,1.3h-6.8c-0.7,0-1.3-0.6-1.3-1.3v-15.1c0-0.7,0.6-1.3,1.3-1.3h6.8
			C605.8,327.4,606.4,328,606.4,328.8z"/>
		<path class="st12" d="M605,322.3v3.8c0,0.5-0.4,0.9-0.9,0.9h-4.7c-0.5,0-0.9-0.4-0.9-0.9v-3.8c0-0.5,0.4-0.9,0.9-0.9h4.7
			C604.6,321.4,605,321.8,605,322.3z"/>
		<path class="st12" d="M604,345.8v2.4c0,0.3-0.3,0.6-0.6,0.6H600c-0.3,0-0.6-0.3-0.6-0.6v-2.4c0-0.3,0.3-0.6,0.6-0.6h3.4
			C603.7,345.2,604,345.5,604,345.8z"/>
	</g>
	<text transform="matrix(1 0 0 1 598.9707 340.3351)" class="st27 st23">T</text>
</g>
</svg>
