<?xml version="1.0" encoding="utf-8"?>
<!-- Generator: Adobe Illustrator 25.0.0, SVG Export Plug-In . SVG Version: 6.00 Build 0)  -->
<svg version="1.1" id="Ebene_1" xmlns="http://www.w3.org/2000/svg" xmlns:xlink="http://www.w3.org/1999/xlink" x="0px" y="0px"
	 viewBox="0 0 257.4 296.6" style="enable-background:new 0 0 257.4 296.6;" xml:space="preserve">
<g id="clp-hintergrund">
	<path style="fill:#676767;" d="M191.9,6.5H78.3v285.6h113.6V6.5z"/>
	
		<path id="panel_icp_0_Layer0_0_MEMBER_0_MEMBER_6_1_STROKES_3_" style="fill:none;stroke:#000000;stroke-width:0.6;stroke-linecap:round;stroke-linejoin:round;" d="
		M78.3,7v285.6h113.6V7H78.3z"/>
	
		<path id="panel_icp_0_Layer0_0_MEMBER_0_MEMBER_6_MEMBER_4_1_STROKES_3_" style="fill:none;stroke:#000000;stroke-width:0.6;stroke-linecap:round;stroke-linejoin:round;" d="
		M80,196.5h110.6 M80,99.1h110.6"/>
	<path d="M113.9,22.8c1.7-1.7,2.6-3.9,2.6-6s-0.9-4.3-2.1-6L102,23.2c1.7,1.3,3.4,2.1,6,2.6C110.5,25.4,112.6,24.1,113.9,22.8
		L113.9,22.8z"/>
	<path style="fill:#989898;" d="M101.9,22.4C101.9,22.8,101.9,22.8,101.9,22.4l12.4-12c-1.7-1.7-3.4-2.6-6-2.6s-4.3,0.9-6,2.6
		s-2.6,3.9-2.6,6C99.3,19,100.2,20.7,101.9,22.4L101.9,22.4z"/>
	<path style="fill:#676767;" d="M113.5,11.2c-1.3-1.3-3.4-2.1-5.6-2.1c-2.1,0-3.9,0.9-5.1,2.1c-1.3,1.3-2.1,3-2.1,5.1
		s0.9,3.9,2.1,5.1c1.3,1.3,3,2.1,5.1,2.1s3.9-0.9,5.6-2.1c1.3-1.3,2.1-3,2.1-5.1S114.8,12.5,113.5,11.2z"/>
	<path style="fill:#333333;" d="M101,17.7h13.7v-2.1H101V17.7z"/>
	<path d="M169.7,22.8c1.7-1.7,2.6-3.9,2.6-6s-0.9-4.3-2.1-6l-12.4,12.4c1.7,1.3,3.4,2.1,6,2.6C166.2,25.4,168.4,24.1,169.7,22.8
		L169.7,22.8z"/>
	<path style="fill:#989898;" d="M157.6,22.4C157.6,22.8,157.6,22.8,157.6,22.4l12.4-12c-1.7-1.7-3.4-2.6-6-2.6s-4.3,0.9-6,2.6
		s-2.6,3.9-2.6,6C155.1,19,155.9,20.7,157.6,22.4L157.6,22.4z"/>
	<path style="fill:#676767;" d="M169.2,11.2c-1.3-1.3-3.4-2.1-5.6-2.1c-2.1,0-3.9,0.9-5.1,2.1c-1.3,1.3-2.1,3-2.1,5.1
		s0.9,3.9,2.1,5.1c1.3,1.3,3,2.1,5.1,2.1s3.9-0.9,5.6-2.1c1.3-1.3,2.1-3,2.1-5.1S170.5,12.5,169.2,11.2z"/>
	<path style="fill:#333333;" d="M156.8,17.7h13.7v-2.1h-13.7V17.7z"/>
	<path d="M113.1,288.2c1.7-1.7,2.6-3.9,2.6-6s-0.9-4.3-2.1-6L101,288.7c1.7,1.3,3.4,2.1,6,2.6C109.6,290.8,111.8,289.5,113.1,288.2
		L113.1,288.2z"/>
	<path style="fill:#989898;" d="M101,287.8C101,288.2,101,288.2,101,287.8l12.4-12c-1.7-1.7-3.4-2.6-6-2.6s-4.3,0.9-6,2.6
		s-2.6,3.9-2.6,6C98.5,284.4,99.3,286.1,101,287.8L101,287.8z"/>
	<path style="fill:#676767;" d="M112.6,276.6c-1.3-1.3-3.4-2.1-5.6-2.1c-2.1,0-3.9,0.9-5.1,2.1c-1.3,1.3-2.1,3-2.1,5.1
		s0.9,3.9,2.1,5.1c1.3,1.3,3,2.1,5.1,2.1s3.9-0.9,5.6-2.1c1.3-1.3,2.1-3,2.1-5.1C114.8,280.1,113.9,277.9,112.6,276.6z"/>
	<path style="fill:#333333;" d="M100.2,283.1h13.7V281h-13.7V283.1z"/>
	<path d="M169.2,288.2c1.7-1.7,2.6-3.9,2.6-6s-0.9-4.3-2.1-6l-12.4,12.4c1.7,1.3,3.4,2.1,6,2.6C165.4,290.8,167.5,289.5,169.2,288.2
		L169.2,288.2z"/>
	<path style="fill:#989898;" d="M156.8,287.8C156.8,288.2,157.2,288.2,156.8,287.8l12.4-12c-1.7-1.7-3.4-2.6-6-2.6s-4.3,0.9-6,2.6
		s-2.6,3.9-2.6,6C154.2,284.4,155.1,286.1,156.8,287.8L156.8,287.8z"/>
	<path style="fill:#676767;" d="M168.4,276.6c-1.3-1.3-3.4-2.1-5.6-2.1s-3.9,0.9-5.1,2.1c-1.3,1.3-2.1,3-2.1,5.1s0.9,3.9,2.1,5.1
		c1.3,1.3,3,2.1,5.1,2.1s3.9-0.9,5.6-2.1c1.3-1.3,2.1-3,2.1-5.1C170.5,280.1,170.1,277.9,168.4,276.6z"/>
	<path style="fill:#333333;" d="M156.4,283.1h13.7V281h-13.7V283.1z"/>
	<path style="fill:none;stroke:#000000;stroke-width:0.6;stroke-linecap:round;stroke-linejoin:round;" d="M119.1,8.2v7.6
		c0,6.2-5.1,11.3-11.3,11.3h0c-6.2,0-11.3-5.1-11.3-11.3V8.2"/>
	<path style="fill:none;stroke:#000000;stroke-width:0.6;stroke-linecap:round;stroke-linejoin:round;" d="M175.1,8.2v7.6
		c0,6.2-5.1,11.3-11.3,11.3h0c-6.2,0-11.3-5.1-11.3-11.3V8.2"/>
	
		<line style="fill:none;stroke:#000000;stroke-width:0.6;stroke-linecap:round;stroke-linejoin:round;" x1="119.1" y1="8.2" x2="152.6" y2="8.2"/>
	<path style="fill:none;stroke:#000000;stroke-width:0.6;stroke-linecap:round;stroke-linejoin:round;" d="M119.1,290.1v-7.6
		c0-6.2-5.1-11.3-11.3-11.3h0c-6.2,0-11.3,5.1-11.3,11.3v7.6"/>
	<path style="fill:none;stroke:#000000;stroke-width:0.6;stroke-linecap:round;stroke-linejoin:round;" d="M175.1,290.1v-7.6
		c0-6.2-5.1-11.3-11.3-11.3h0c-6.2,0-11.3,5.1-11.3,11.3v7.6"/>
	
		<line style="fill:none;stroke:#000000;stroke-width:0.6;stroke-linecap:round;stroke-linejoin:round;" x1="119.1" y1="290.1" x2="152.6" y2="290.1"/>
	<polyline style="fill:none;stroke:#000000;stroke-width:0.6;stroke-linecap:round;stroke-linejoin:round;" points="96.6,8.2 
		80,8.2 80,290.1 96.6,290.1 	"/>
	
		<line style="fill:none;stroke:#000000;stroke-width:0.6;stroke-linecap:round;stroke-linejoin:round;" x1="152.6" y1="8.2" x2="119.1" y2="8.2"/>
	<polyline style="fill:none;stroke:#000000;stroke-width:0.6;stroke-linecap:round;stroke-linejoin:round;" points="175.1,290.1 
		190.6,290.1 190.6,8.2 175.1,8.2 	"/>
</g>
<path id="clp-dh-mda-set" style="fill:none;" d="M172.2,209.2h-20.8c-4.4-2.3-9.4-3.5-14.7-3.5s-10.3,1.3-14.7,3.5h-14.8
	c-1.5,0-2.7,1.2-2.7,2.7v11.2c0,1.3,0.9,2.4,2.2,2.6c-1.6,3.8-2.5,8-2.5,12.5c0,17.9,14.5,32.5,32.5,32.5s32.5-14.5,32.5-32.5
	c0-4.4-0.9-8.6-2.5-12.4h5.5c1.5,0,2.7-1.2,2.7-2.7v-11.2C174.9,210.4,173.7,209.2,172.2,209.2z"/>
<path id="clp-baro-set" style="fill:none;" d="M135.8,121.9L135.8,121.9c-16.6,0-30.1,13.6-30.1,30.1v3.8v2.7v22.6
	c0,1.4,1.1,2.5,2.5,2.5h27.6h0h27.6c1.4,0,2.5-1.1,2.5-2.5v-22.6v-2.7V152C166,135.5,152.4,121.9,135.8,121.9z"/>
<circle id="clp-speed-bug-rot" style="fill:none;" cx="163" cy="70" r="25.6"/>
<path id="clp-sel-pb" style="fill:none;" d="M132.1,85.1H95.2c-2.1,0-3.8-1.7-3.8-3.8V56.9c0-2.1,1.7-3.8,3.8-3.8h36.9
	c2.1,0,3.8,1.7,3.8,3.8v24.5C135.8,83.4,134.1,85.1,132.1,85.1z"/>
<g id="clp-system">
	<g>
		<g>
			<defs>
				<rect id="SVGID_1_" x="104" y="62.3" width="18.4" height="13.7"/>
			</defs>
			<clipPath id="SVGID_2_">
				<use xlink:href="#SVGID_1_"  style="overflow:visible;"/>
			</clipPath>
			<g style="clip-path:url(#SVGID_2_);enable-background:new    ;">
				<text transform="matrix(1 0 0 1 105.9958 72.2538)" style="fill:#FFFFFF; font-family:'ArialMT'; font-size:8.2739px;">SEL</text>
			</g>
		</g>
	</g>
	<path style="fill:#989898;" d="M128.1,61c0-1.3-0.4-1.7-0.9-1.7H99.8c-0.9,0-0.9,0.4-0.9,1.7v15c0,1.3,0.4,1.7,0.9,1.7h27.4
		c0.9,0,0.9-0.4,0.9-1.7V61z"/>
	
		<path id="BUTTON_7_0_Layer0_0_1_STROKES_3_" style="fill:none;stroke:#000000;stroke-width:0.25;stroke-linecap:round;stroke-linejoin:round;" d="
		M128.1,61c0-1.3-0.4-1.7-0.9-1.7H99.8c-0.9,0-0.9,0.4-0.9,1.7v15c0,1.3,0.4,1.7,0.9,1.7h27.4c0.9,0,0.9-0.4,0.9-1.7V61z"/>
	<path style="fill:#333333;" d="M126.8,61h-27v14.6h27V61z"/>
	
		<path id="BUTTON_7_0_Layer0_0_MEMBER_0_1_STROKES_3_" style="fill:none;stroke:#000000;stroke-width:0.25;stroke-linecap:round;stroke-linejoin:round;" d="
		M99.8,61h27v14.6h-27V61z"/>
	<path style="fill:#333333;" d="M158.5,238.5c0-6-2.1-11.1-6.4-15.4l-31.7,32.2c4.3,4.3,9.4,6,15.9,6c6,0,11.6-2.1,15.9-6.4
		C156.4,250.5,158.5,244.9,158.5,238.5L158.5,238.5z"/>
	<path style="fill:#CCCBCB;" d="M152.1,223.1C152.1,223.1,152.1,222.6,152.1,223.1c-4.7-4.7-9.9-6.9-15.9-6.9
		c-2.1,0-3.9,0.4-5.6,0.9c0,0.4,0.4,1.3,0.4,1.7c0,1.7-0.9,3.4-2.1,4.7c-1.3,1.3-3,2.1-4.7,2.1s-3-0.4-4.7-1.7
		c-3.9,4.3-5.6,9-5.6,15c0,6.4,2.1,11.6,6.4,15.9l0.4,0.4L152.1,223.1z"/>
	<path d="M156.4,238.5c0-5.6-2.1-10.3-6-14.1c-3.9-3.9-8.6-5.6-14.1-5.6c-1.7,0-3.4,0.4-5.1,0.9c0,1.7-0.9,3-2.1,4.3
		c-1.3,1.3-3,2.1-4.7,2.1c-0.9,0-1.7-0.4-2.6-0.9c-3.4,3.9-5.1,8.6-5.1,13.7c0,5.6,1.7,9.9,5.6,13.7c3.9,3.9,8.6,6,14.1,6
		c5.6,0,10.3-2.1,14.1-6C154.6,248.8,156.4,244.1,156.4,238.5L156.4,238.5z"/>
	<path style="fill:#989898;" d="M136.6,222.6c-4.3,0-8.1,1.7-11.6,4.7c-3,3-4.7,6.9-4.7,11.1c0,4.3,1.7,8.1,4.7,11.1
		c3,3,6.9,4.7,11.6,4.7c4.3,0,8.1-1.7,11.1-4.7s4.7-6.9,4.7-11.1c0-4.3-1.7-8.1-4.7-11.1C144.8,224.3,140.9,222.6,136.6,222.6z"/>
	<path style="fill:#333333;" d="M153.8,151c0-4.7-1.7-9-5.1-12.9l-26.2,26.2c3.4,3.4,7.7,5.1,12.9,4.7c5.1,0,9.4-1.7,12.9-5.1
		C152.1,160.5,153.8,156.2,153.8,151L153.8,151z"/>
	<path style="fill:#CCCBCB;" d="M148.2,138.2C148.2,138.2,148.2,137.7,148.2,138.2c-3.9-3.9-8.1-5.6-12.9-5.6
		c-5.1,0-9.4,2.1-12.9,5.6c-3.4,3.4-5.6,7.7-5.6,12.9c0,5.1,1.7,9.4,5.1,12.9l0.4,0.4L148.2,138.2z"/>
	<path d="M123.8,139c-3,3.4-4.7,7.3-4.7,11.6s1.7,8.1,4.7,11.1c3.4,3.4,7.3,4.7,11.6,4.7c4.7,0,8.6-1.7,11.6-4.7
		c3.4-3,4.7-6.9,4.7-11.1c0-4.7-1.7-8.6-4.7-11.6c-3.4-3-7.3-4.7-11.6-4.7S127.2,136,123.8,139z"/>
	<path style="fill:#989898;" d="M135.3,137.7c-3.4,0-6.9,1.3-9.4,3.9c-2.6,2.6-3.9,5.6-3.9,9s1.3,6.9,3.9,9c2.6,2.6,5.6,3.9,9.4,3.9
		s6.9-1.3,9-3.9c2.6-2.6,3.9-5.6,3.9-9s-1.3-6.9-3.9-9C142.2,139,139.2,137.7,135.3,137.7z"/>
	<path style="fill:#333333;" d="M177.4,69.6c0-3.9-1.3-7.3-4.3-10.3l-21.4,21.4c3,3,6.4,4.3,10.7,3.9c4.3,0,7.7-1.3,10.7-4.3
		C176.1,77.3,177.4,73.8,177.4,69.6z"/>
	<path style="fill:#CCCBCB;" d="M173.1,58.8c-3-3-6.4-4.7-10.7-4.7s-7.7,1.7-10.7,4.7s-4.7,6.4-4.7,10.7s1.3,7.7,4.3,10.7l0.4,0.4
		L173.1,58.8z"/>
	<path d="M152.9,59.7c-2.6,2.6-3.9,6-3.9,9.9s1.3,6.9,3.9,9.4c2.6,2.6,6,3.9,9.4,3.9c3.9,0,6.9-1.3,9.9-3.9c2.6-2.6,3.9-5.6,3.9-9.4
		s-1.3-6.9-3.9-9.9c-2.6-2.6-6-3.9-9.9-3.9C158.5,55.8,155.5,57.1,152.9,59.7z"/>
	<path style="fill:#989898;" d="M162.4,58.4c-3,0-5.6,1.3-7.7,3.4c-2.1,2.1-3,4.7-3,7.7s0.9,5.6,3,7.7s4.7,3.4,7.7,3.4
		s5.6-1.3,7.7-3.4c2.1-2.1,3.4-4.7,3.4-7.7s-1.3-5.6-3.4-7.7S165.4,58.4,162.4,58.4z"/>
	<text transform="matrix(1 0 0 1 102.4099 42.1796)" style="fill:#FFFFFF; font-family:'ArialMT'; font-size:9.3998px;">SPEED BUGS</text>
	<text transform="matrix(1 0 0 1 102.0329 72.6942)" style="fill:#FFFFFF; font-family:'ArialMT'; font-size:11.7498px;">SEL</text>
	<text transform="matrix(1 0 0 1 115.8122 114.4159)" style="fill:#FFFFFF; font-family:'ArialMT'; font-size:8.2739px;">BARO SET</text>
	<path style="fill:#676767;" d="M171.7,223.1H153c-0.7,0-1.3-0.6-1.3-1.3v-8.2c0-0.7,0.6-1.3,1.3-1.3h18.8c0.7,0,1.3,0.6,1.3,1.3
		v8.2C173,222.5,172.4,223.1,171.7,223.1z"/>
	<path style="fill:#676767;" d="M126.1,223.1h-18.8c-0.7,0-1.3-0.6-1.3-1.3v-8.2c0-0.7,0.6-1.3,1.3-1.3h18.8c0.7,0,1.3,0.6,1.3,1.3
		v8.2C127.4,222.5,126.8,223.1,126.1,223.1z"/>
	<text transform="matrix(1 0 0 1 152.8532 220.7128)" style="fill:#FFFFFF; font-family:'ArialMT'; font-size:8.2739px;">MDA</text>
	<text transform="matrix(1 0 0 1 108.9353 220.7128)" style="fill:#FFFFFF; font-family:'ArialMT'; font-size:8.2739px;">DH</text>
	<path style="fill:#676767;" d="M163.4,179.3h-54.8c-0.7,0-1.3-0.6-1.3-1.3v-6.2c0-0.7,0.6-1.3,1.3-1.3h54.8c0.7,0,1.3,0.6,1.3,1.3
		v6.2C164.7,178.7,164.1,179.3,163.4,179.3z"/>
	<text transform="matrix(1 0 0 1 108.236 177.7587)" style="fill:#FFFFFF; font-family:'ArialMT'; font-size:8.2739px;">PUSH TO STD</text>
</g>
<g transform="matrix( 0.7373504638671875, 0, 0, 0.7373504638671875, 348.4,19.35) ">
	<g transform="matrix( 1, 0, 0, 1, 0,0) ">
		<g>
			<g id="info2_0_Layer1_0_MEMBER_0_MEMBER_0_FILL_4_">
				<path style="fill:#FFFFFF;stroke:#446483;stroke-width:0.2005;stroke-miterlimit:4.0089;" d="M-408.5,47.4
					c6.8,7,15.1,10.4,24.8,10.4c9.7,0,18.1-3.6,24.8-10.4c6.8-6.8,10.4-15.1,10.4-24.8s-3.4-17.8-10.4-24.8
					c-7-7-15.1-10.4-24.8-10.4c-9.7,0-17.8,3.4-24.8,10.4c-7,6.8-10.4,15.1-10.4,24.8C-418.9,32.3-415.5,40.4-408.5,47.4z"/>
			</g>
		</g>
	</g>
	<path style="fill:#446483;" d="M-364.7,24c-2.5-0.9-7.9,3.8-10.6,6.5c-0.5,0.5-0.5-1.1-0.5-2.9c0-0.2,0-0.2,0-0.5v-0.5
		c0-1.6,0-3.2,0-4.3v-2.9c6.3-1.4,11.3-7,11.3-14c0-7.9-6.3-14.2-14.2-14.2s-14.2,6.3-14.2,14.2c0,3.8,1.4,7.5,4.1,9.9
		c-0.2,0.5-0.5,0.9-0.5,1.6v7l-1.1,0.2V18c0-1.6-1.1-2.9-2.7-2.9h-0.5c-1.6,0-3.2,1.4-3.2,2.9v7.2l-1.1,0.2v-2.9
		c0-1.6-0.7-2.9-2.3-2.9h-0.5c-1.6,0-3.6,1.4-3.6,2.9v0.2v2v1.4l-1.1,10.2c-0.9,2.7-1.4,9.3,8.1,15.1c0,0,5.4,2.7,12.2-2
		c3.6-2.7,9.5-8.4,14.2-13.1l2.9-3.2c2.3-2.5,3.8-4.3,4.3-4.7C-362.7,26.9-362.9,24.4-364.7,24z M-378,2.7h-0.5
		c-1.6,0-3.6,1.4-3.6,2.9V9c-1.1-0.9-1.4-2-1.4-3.6c0-2.7,2.3-4.7,5-4.7s4.7,2.3,4.7,4.7c0,1.6-0.9,2.9-2,3.8V5.4
		C-375.8,4.1-376.5,2.7-378,2.7z M-375.8,10.9c2-1.1,2.9-2.9,2.9-5.2c0-3.2-2.7-5.9-5.9-5.9c-3.2,0-5.9,2.7-5.9,5.9
		c0,2,1.4,3.8,2.5,5v3.6c-3.2-1.4-5.6-4.5-5.6-8.4c0-5,4.1-9,9-9c5,0,9,4.1,9,9c0,3.8-2,7.2-6.1,8.6L-375.8,10.9L-375.8,10.9z
		 M-378.5-7.4c7.2,0,13.1,5.9,13.1,13.1c0,6.3-4.1,11.5-10.4,12.9v-3.2c4.3-1.4,7.2-5.2,7.2-9.7c0-5.6-4.5-10.2-10.2-10.2
		S-389,0-389,5.7c0,4.5,2.5,8.1,6.8,9.5v3.2c0,0,0-0.2-1.1-0.2v-0.9c0-1.6-1.1-2.9-2.7-2.9h-0.5c-0.7,0-1.4,0.2-1.8,0.7
		c-2.3-2.5-3.6-5.6-3.6-9.3C-391.8-1.5-385.9-7.4-378.5-7.4z M-383.2,23.5v-4.3c1.1,0,1.1,0.2,1.1,0.2v3.8L-383.2,23.5z"/>
</g>
</svg>
