<svg id="elevator" xmlns="http://www.w3.org/2000/svg" viewBox="0 0 1291 637.8">
  <style>
    .st0{fill:none}.st1{fill:#00a0c6}.st2,.st3{fill:#b1b1b1;stroke:#868686;stroke-width:.2;stroke-miterlimit:10}.st3{fill:none}.st4{fill:red}.st5{fill:#868686}.st6,.st7{fill:#b1b1b1;stroke:red;stroke-width:.5;stroke-miterlimit:10}.st7{stroke:#00a0c6}.st10,.st8,.st9{fill:none;stroke:#000}.st8{stroke-linecap:round;stroke-linejoin:round;stroke-width:.25}.st10,.st9{stroke-width:.2}.st9{stroke-miterlimit:4.9999}.st10{stroke-miterlimit:5}.st11{fill:#fff}.st12{fill:none;stroke-width:.25}.st12,.st13{stroke:red;stroke-miterlimit:4.9999}.st13,.st14{fill:none}.st14,.st15,.st16,.st17,.st18{stroke-miterlimit:4.9999}.st13,.st14,.st15{stroke-width:.2}.st14{stroke:#00a0c6}.st15{fill:red;stroke:red}.st16{stroke:#00a0c6;stroke-width:.25}.st16,.st17,.st18,.st19{fill:none}.st17,.st18{stroke:#008837;stroke-width:.5}.st18{stroke-width:.2}.st19{stroke:red;stroke-width:.55;stroke-miterlimit:5.9999}.st20,.st21{fill:none;stroke:#b1b1b1;stroke-width:.4;stroke-miterlimit:59.999}.st21{stroke-miterlimit:4.9999}.st22{stroke:#008837;stroke-width:.5;stroke-miterlimit:10}.st22,.st23{fill:#b1b1b1}.st24{fill:none;stroke:#00a0c6}.st24,.st25,.st26{stroke-width:.2;stroke-miterlimit:10}.st25{stroke-linecap:round;stroke-linejoin:round;fill:none;stroke:#00a0c6}.st26{fill:#008837;stroke:#008837}.st27{fill:none;stroke:#000;stroke-width:.5}.st27,.st28,.st29{stroke-miterlimit:10}.st28{fill:#b1b1b1;stroke-width:.5;stroke:#000}.st29{stroke:red}.st30{font-family:&apos;ArialMT&apos;}.st31{font-size:19px}.st32{fill:none;stroke:#000;stroke-width:.25;stroke-miterlimit:10}.st33{fill:#868686;stroke:red;stroke-width:.55;stroke-miterlimit:5.9997}.st34{fill:#1d1d1b}.st35,.st36,.st37{fill:#868686;stroke:#1caed0;stroke-width:.55;stroke-miterlimit:5.9996}.st36,.st37{stroke:#008837}.st37{fill:#008837;stroke-width:.2;stroke-miterlimit:4.9999}.st38{fill:#1caed0}.st39{fill:#00a0c6;stroke:#b1b1b1;stroke-width:.25;stroke-miterlimit:10}
  </style>
  <g id="clp-pitch-feel-trim-frame">
    <path id="clp-pitch-feel-trim-frame-hl" class="st0" d="M1122.8 259H913.2c-2.5 0-4.5-2-4.5-4.5v-18c0-2.5 2-4.5 4.5-4.5h209.5c2.5 0 4.5 2 4.5 4.5v18c0 2.5-2 4.5-4.4 4.5z"/>
  </g>
  <g id="clp-stick-pusher">
    <path id="clp-stick-pusher-hl" class="st0" d="M599.6 563.5H486c-2.5 0-4.5-2-4.5-4.5v-18c0-2.5 2-4.5 4.5-4.5h113.5c2.5 0 4.5 2 4.5 4.5v18c0 2.5-2 4.5-4.4 4.5z"/>
  </g>
  <g id="clp-elev-fwd-quad">
    <path id="clp-elev-fwd-quad-hl" class="st0" d="M674 607.6H437.4c-2.5 0-4.5-2-4.5-4.5v-18c0-2.5 2-4.5 4.5-4.5h236.5c2.5 0 4.5 2 4.5 4.5v18c0 2.5-2 4.5-4.4 4.5z"/>
  </g>
  <g id="clp-elev-autop-servo">
    <path id="clp-elev-autop-servo-hl" class="st0" d="M678.5 203.3H467.9c-2.5 0-4.5-2-4.5-4.5v-18c0-2.5 2-4.5 4.5-4.5h210.5c2.5 0 4.5 2 4.5 4.5v18c0 2.5-2 4.5-4.4 4.5z"/>
  </g>
  <g id="clp-elev-pcu">
    <path id="clp-elev-pcu-hl" class="st0" d="M1048 213.5H917.4c-2.5 0-4.5-2-4.5-4.5v-18c0-2.5 2-4.5 4.5-4.5h130.5c2.5 0 4.5 2 4.5 4.5v18c0 2.5-2 4.5-4.4 4.5zM743.7 105.3H610.1c-2.5 0-4.5-2-4.5-4.5v-18c0-2.5 2-4.5 4.5-4.5h133.5c2.5 0 4.5 2 4.5 4.5v18c0 2.5-2 4.5-4.4 4.5z"/>
  </g>
  <g id="clp-elevator">
    <path id="clp-elevator-hl" class="st0" d="M993.2 77.4h-85.6c-2.5 0-4.5-2-4.5-4.5v-18c0-2.5 2-4.5 4.5-4.5h85.5c2.5 0 4.5 2 4.5 4.5v18c0 2.5-2 4.5-4.4 4.5z"/>
  </g>
  <g id="clp-elev-aft-quad">
    <path id="clp-elev-aft-quad-hl" class="st0" d="M757 151.9H568.4c-2.5 0-4.5-2-4.5-4.5v-18c0-2.5 2-4.5 4.5-4.5h188.5c2.5 0 4.5 2 4.5 4.5v18c0 2.5-2 4.5-4.4 4.5z"/>
  </g>
  <g id="clp-system">
    <path class="st1" d="M310.4 571.5s-.3-.2-.5-.2c-.2-.1-.4-.1-.7.1-.3.1-.5.3-.7.6s-.3.6-.3.8.1.4.2.5l2.6 1.4 1.9-1.9-2.5-1.3z"/>
    <path class="st2" d="M846.5 161.5h-.5l-.2-.1-.1.2-.1.2h.1l-.4.5-.1.5-.2.2-.1.1h-.3v.2l-.1.1-.2.1-.2.7-.1.1h-.8l-.1.1-1.3.2-.2-.1-.1-.1v-.2l-.1-.1-.1-.1h-.3l-.4-.2-.2.1-.2-.1-.1-.1-.7-.4-.1-.2-.1-.2v-.1l-.2-.1-.3.1-.3-.2h-.4l-.1-.2-.2-.1v-.1h-.2l-.2-.2-.1-.1.2-.3.1-.4-.2-.1-.1-.1-1-.1-.1-.1v-.3l.1-.5.1-.1-1.3-.8 1-3.8 1-.1h.6l.3-.9.1-.3-.2-.1-.1-.1v-.2l.1-.2.2-.1h.4l-.4-.3-.2.1h-.2l-.1-.1-.1-.2-.1-.1.1-.2.1-.2.2-.1.8-1.1.1-.2.3-.1 1.4-.4.2-.2h.3l.1-.1.1-.2.1.1.1.1-.1.2 1.9-.3.1-.1h.6l-.1.3h.1l.4-.1.3.2v.2l1.2.7.3-.1v.1l-.1.3h.1l.5-.1.2.1v.3l2.2 1.2z"/>
    <path class="st3" d="M843.1 151.4l.1-.2m.1.3l.2-.1m2.7.3l.3-.2m-2.5-1.1l.2-.2m.1 0h.1m-5 3.6h.2m2.1 1.3h1.5m-4-1.3h.2m2 1.3h.3m-1.5-2.6l.3.2m1.9 1.1l.9.5m-4.3-.6l.1.1m2.1 1.2l.1.1m2.9-4.9h.1m2.2 1.8h.1m0 0v-.1m-2.3-1.2s.1-.1 0 0m0-.5l.1.1m1.8 1.7l.1-.1m-2.3-1.2l.1-.1m2.5 1.3v-.1m-.3.3l.2-.1m-6.5 2.7l.2-.1m-2.4-1.2l.2-.1m6.1-2.5l.2-.1m2.2.9h.1m-.3.1h.1m-2.1-1.4h.1m-.3.1h.1m.1.2h.1m1.8 1.1h.1m-2.7 2.6l.2.1m.2-4h.1m2.1 1.6v.1m-2.2-1.4v.1m-3.9-.1l.2-.1m2 1.4l.3-.1m-1.9-.8l.3-.1m1.9 1.3h.3m-3.1-1.6l.6.4m1.6.9l.6.3m-.6-.6l.1.1m-.9 0l.1.1m-.2 0l.1-.1m2.3 1.3v.1m-.1-.1h.1m-2.5-1.2h.1m-1.1.4l.9-.3m1.4 1.6l1.1-.5m-5.3.2h.1m2.1 1.3l.3.2m-2.6-1.5l.4.2m1.9 1.4l.3-.1m-2.5-1.2l.3-.1m1.9 1.4h.1m-2.3-1.3h.1m1.7 1l.1.1m-2.3-1.4l.1.1m1.3-.2h.2m2 1.3l.3-.1m-2.3-1.2l.5-.1m1.8 1.3h1.5m-3.3.3l.1-.1m-2.3-1.2l.1-.1m2.5 1.5l.1-.2m-2.3-1.1v-.2m1.9 1.4h.1m-2.3-1.3h.1m.2.2h.1m2.7 1.7l.1-.2m-2.3-1v-.3m1.8 1.7l.4-.2m-2.6-1l.4-.2m1.8.9v-.1m-2.3-1.2l.1-.1m1.5 1.2v-.1m-2.2-1.2v-.1m6.6-3.1v-.1m-3.3 5h.1m-2.3-1.3h.1m7.5-2.4h.1m-2.4-1.3h.1m-3.1 5l.2-.1m-2.4-1.2l.2-.1m7.4-2.3v.1m-6.6 3.2v-.1m-2.2-1.2v-.1m2.2 1.8l.1.1m-2.3-1.4l.1.1m2.3-1.5c0-.1.1-.1.2-.2m2 1.4c0-.1.1-.1.2-.2m-4.5-.6l.1-.2m2.1 1.5l.1-.2m-2.2-1.3l.6.4m1.6.9l.7.4m-1.3-1.3l.4-.6m1.8 1.8l.4-.6m-4.9-1.3l.7-.9m1.6 2.2l.6-.9m-2.7-.3l.6-.9m1.6 2.2l.6-.9m-2.2-1.3l1.2.6m1.2.7l1 .6m-1.2-.6h.1m-1.8.3l.7-1m1.5 2.2l.7-.9m6.4-.6l.3.2m-.9.5h.4m-.3-.6l.5-.1m-4.5 1.3l.2-.1m-.5-.1h.3m.4.1l2.4-.4m-1.5-.8h.1m.1 0l.9.2m.1 0l.3.2m.1.1v.3m-2.9.3l.4.1m-1.6 7.6l3.7-.6m-4 .8l.4-.1m-.5-1v-.1m4.5.1l.2-2.8m-4.7 2.7l.6-2.1m-.7 2.3v-.1m4.6.7v-.3m-1.6.7c.4-.1.8.1.8-.5m-.8.5l.1-.4m1.1-.4c0-.2.1-.4.3-.3m-.8-.3l.4-.1m-.4.1l.6.3m-.2-.4l.2.1m-.1.1l.4.2m-1 0l.1-.3m-.1.3l.3.1m0 0l.3.2m-.4.3l.3.1m-1.2-1.8l.3.2m-.1.2l.1-.2m-.1.3l.6.4m-1.3-.5l.3.1m1.5.4l.3-2.8m-4.2 3l4.5-4.9m-4.3 5.5l4.2-4.7m.1 1.3l.1-1.3m-1.5 5.7l.4-.6m-1.6-2.2s.3 0 .3-.1m-.4.4l.1-.3m.6.3h.4m-.8-.4c.1 0 .4.2.5.2m-.2.5l.1-.3m-.7 0l.3.2m.5 2.2l.1-.4m-.1.5h.5m-.5-.6v-.3m-2.4-7.7v-.1m-.1 2l1.1-.6m.4 6.7l.9-.1m-1.1 0l.2.1.1-.2m-1.8-1.3l4.2-4.6m-2.9.2l.5-.6m-.8 1.4l1.3-1.4m.5 1.6l.1-1.2m.7.7l.2-.9m-4.2 5.2l.7-2.3m0 0l.8-2.8m-2.3 6.8l.2-.6m-.2.6l1.2-.1m0 0c0-.1.1-.3.1-.4m.1-5.9l.2.1m3.9-.9l.3-1.2m-2.7 1.1l2.3.2m1.3-.6l.6-.8m0 0v-.1m-3.2-.4l.8.2m.2.1l.1.1m-1.5 9.2l.1.1m-3.2-.9h.1m1.8-7.8l.3-.1m-.4 0h.2m-.3.8l.2-.7m-1.6.7l.6.3m-1 5.8l1.5-5.3m-4.2 6.2c0 .1 2.1.3 2.2.3l.2-.7m-2.3.5l.2-.9m2.1.5l1.6-5.8m1.3-2.6l.1.1m-4.5 3.9l1.1-.1m-5.7 1.8l1-3.8m3.4 7.9l.1-.3m-2.3-1l.1-.3m2.2 1.3h.1m-2.3-1.3h.1m2 1.6h.1m.3-.3h.1m-.2.3l.1-.4m-2.4-.9l.1-.4m2 1.8v-.2m0 .2v.1m-2.2-1.4v-.2m0 .2v.1m3.2 1.3l.4-1m-2.7-.2l.1-.2m1.8 1.4l.3-1m-2.6-.2l.2-.5m1.5 1.4l.2-.8m-2.4-.5l.2-.6m2.7 1.8l.2-.6m-.9 1h.2m-2.4-1.3l.2.1m2.8.9h.1m-3.2-1.2l.1.1m2.1 1.2l.1.1m.4.3l.2.1m-2.4-1.4l.2.1m2.3.7h.1m-.1 0v-.1m-2.2-1.2v.1m0-.1v-.1m0 .2h.1m1.8 1.6v.1m0-.1v-.1m-2.2-1.2v.1m0-.1v-.1m2.1.7l.2.2m-2.5-1.5l.3.2m2.4 1.3l.1.1m0 0v-.1m0 0h.1m-.5.4l.1-.4m-2.3-.9l.1-.4m5.5-11.7l.4-.1m0 .3l.4-.1m-.8-.1l.3.2m-1.1-.1l.6-.1m-2.1.4l1.3-.3m.7-.2h.6m0 .4c0 .1.6-.1.6-.1m-1.9.2l1.2-.2m-2.3.4l.9-.1m1.5.5c0 .1.4-.2.4-.2m-1.6 1l.3-.2m.2-.2l.6-.4m-3 1.5l.1-.3m-.3-1.7l.3.3m-.3-.3l.1.3m.2 0l.2.2m-.5-.5c.3-.4.3-.6.7-.2m-.4.5l.4-.5m0 0l.2.3m1.8-.7v.1m.6.3l.1.8m1.9.2l.3-.1m0 .3l.5-.1m-.8-.1l.2.2m-2.6.1l2.1-.3m-.1-.1l.6-.1m0 .5c0 .1.6-.1.6-.1m-2.9.4l2.2-.4m.1.8c0 .1.4-.2.4-.2m-1.6 1l1.1-.8m-2.8 1.7c.1-.1 1-.5 1.1-.6m-1.3.4l.1-.3m-.3-1.7l.4.2m-.4-.2l.2.2m.2 0l.1.3m-.5-.5c.3-.4.3-.5.7-.2m-.3.4l.3-.4m0 0l.2.2m1.8-.6v.1m.7.3v.7m-4.9-1.9l.1-.2m-.3.1l.1-.2m0 0l.1-.2m.1.4l.1-.2m2 1.5l.1-.1m-.2 0l.1-.1m-3.5 12l.2.1m1.1.5h.2m2.8.3v-.1m0 0h.1m.5-2.3v.1m0 .1v-.1m-2.8.5v-.2m-.4 1.6l.1-.5m-.1-.1l.1.1m1.4-1v-.1m0 0l.1-.1m.7-12.2s0-.1 0 0m2.2 1.3c0-.1 0-.1 0 0m0 0v-.1m-6.9 11.5l.1-.5m-.7.4l.3.2.2-.6m2.3 1.8l.2-.6m-.4.6l.2-.7m-2-.6v-.1m0 0l.1-.4m-.3.5l.2.1m5-12.6h.1m.3 13.1v-.4m0 0l.2-.4m-.4.4h.2m-3.2 1.1v-.1m0 .2l.1-.1m2.8-2.3l.3.2m-1.6.3l.1-.5m-.5 1.9l.1-.3m1.4.9l.5-2.1m-.3 1.4l.2-.1m-3.3.6h.2m.2-1.4l1.5-.2m-1.5 1.1l1.5-.2m3.3-11.9l.1.1m-6.2 11.4l.1.1m-.1-.1l.2-.5m-4.4-1.9l.1-.4m0 .8l1 .1m.4.3l.8.8m1.3-1.1l.1.1m-2.4 0l1.9.3m5.3-10.3l.5.3m-.5-.4l.3-.1m.5 1.6h.2m0 0l.3-.1m-2.5-1.2h.2m-5.3 2.1l.1-.1m5.2-1.8l.2.1m.1-.6l.9.5m-2.2.2h.1m1.4 7.8l.2.1m-.5.3h.1m-1.1-1v-.2m-.3.3h.2m1.3-.7l.2-1.7m.3.2l.1-.8m3.3-2.6l.1-.2m-.5-.4l.3-.1m-1-.3l.5.3m-.5-.3l.4-.1m.2.1l.4.2m-.3 5.4l1.3-4.7m-2.2 2.4h.1m-4.1 3l.9-3.1m.3-.3l2.8.4m-4.1.5l.4-.2m.7-.6h.1m0 0l.1-.1m-.9.5l.4-.2m-.4.4v-.1m-.4.3l.1-.2m5.2-.9v.1m.1-.2l.2-.4m.1.5l.1-.4m-.4.6h.1m-.1.1h.1m-.2.3h.1m.2-.1v-.1m-3.7-1.1l2.6-.3m-.3 1.4l.4-1.3m-.3 1.4h.2m1.5-1.5v-.1m-1.3 0l1.2-.1m-7.8.8v-.1m8.2-1.3v-.2m-.6.7l.2-.6m0 0l.4-.1m-2.2-1.2h.1m-.9.9l.1-.4m.2-.1l1.5.8m-.9-1.2l2.1 1.2"/>
    <path class="st3" d="M845.8 152.7l1.6.9m-3.8-2.2l.1-.4m3.7 2.6l.2-.6m-3.6 1.4c0-.1.1-.1 0 0m-3.6.2l.2-.1m4.3-3.6c.2 0 .4.2.6.2m1.9 2.5h.2m.3 0l.3.2m-3.8-3.3l1.2.7m-3.4 4.5l.4-.6m3.8 2.7l.1-.9m-2.3-.4v-.2m-1.9-.6l.3.2m-2.5-1.4l.2.1m4.3 5.6h.4m-2.3-1.3l.4.2m1.7.6l.4-1.4m-2.6.2l.2.1m3.2 2.9l.5-.1m-2.6-1.6l.1-.2m2 1.9l.1-.2m-2-1.8h.2m0 0v-.2m.1-1.5l.1-1.1m-1.8 2.2s0-.1.1-.1m1 1.1h.2m-1.9-4l.1-.2m-2.3-1.1l.1-.2m2.8 3.4l2-2.2m-.2 1.1l.1-.9m-2.4-.4v-.3m1.8 4.5l.6.4m-2.1-1.4h.2m.6-4.3l.1-.1m-3.4.3l.1-.2m3.6 0v.1m-3.7.1l.2-.1m6.1-2.4l.1-.1m.1 0l.1-.2m-.1-.1l.1.1m-.4.1v-.1m0 .1l.1.1m-2.2-1.2l.1-.1m0 0l.1-.2m-.3.2v-.1m2.5 1.5l.1.1m-7.9 3.7l.7.4m-1.3-.8l.6.3m1.5 1l.4.2m-1.1 4.2c.1 0 .2 0 .2-.1m-1.2.2l1.1-3.8m-2.3 3.2v.1m2.8-5.5v.1m-2.1-1.3v.1m1.6 7.2l.1-.2m.5-5.8v.1m-2.4-1.5v.1m1.5 7.3l.1-.2m-.1.3s0-.1 0 0m-2-.3l.2.1m1.8.1h.2m-.6 0v.1m-1.6-.7c.1.1.1 0 0 0m1.2 1.3l.1-.4m.1.5s.1-.5.2-.5m-.4-.4l1-.1m.5-3.8l.1-.4m-2-.7l.1-.4m-2.1 4.1l2.4 1.4m-3.6-2.2l1.2.7m3.8-3l.2.1m-4 3l1 1.1m.9-5.3l.2.1m1.3 1.5l.1-.4m-1.4-.3l1.3.8m-3.6-2.1l2.2 1.3m-.5-.4l.1-.4m1.8 1.5l.5-.1m-2.4-1l.5-.1m1.5.9l.5-.1m-2.4-1l.5-.1m.7 1.2l.1-.4m-3.1-1.3l1-.1m.1.7l.1-.4m1.8 1.5l.6.3m-2.5-1.4l.6.3m1.4.5l.6.3m.8-2.2l.2.1m-2.4-1.4l.2.1m-1.3 2l.6.3m1.3.8h.3m.4 4.2l1.1-3.8m-3.7-1.5h.3m2.4 1.3l.2-.6m-.2-.2l.2-.6m-2.6 0l.4-1.3m.2 1.6l.2-.6m1.9 1.7l.4-1.3m-2.5-.6l.2-.7m-.8 1.3l.2-.6m1.7 1.7l.2-.6m-.9 6.7h.3m-1.5-.6l.2.1m.5-.2h.2m-.3.5l.5-.1m.9-.1h.2m-1.8 0c0 .1.1.1.1.2m2.7.3l.9-.1m.2.9l1.1-.1m-2.4-.2l1.2-.2m-1.3.7l.5-.1m.9.8l1.3-.2m-2.5-.6l.3.2m2.5.3l.5-.1m-.7.2c0-.1 0-.1 0 0m-3.6-12.1l.2-.4m2 1.7l.3-.4m-3.9-1.7l.3-.4m1.9 1.7l.3-.4m-.5 2.2l.4-.1m-2.6-1.2h.4m1.9 1.4l.3-.1m-2.5-1.2l.2-.1m2-1.8l1.3-.6m-.9 4h.2m-2.4-1.3h.2m3.8-.8l1.4-.6M841 151l.4-.2m2.1 3.5h.1m-.4-2l.5-.2m-4.7-1.3l1.4-.4m.9 1.6l1.3-.3m-1.2-.9h.3m2.1 1.3h.1m0 0l.1.1m-.3-.1h.1m-4.5 1h.2m2 1.3h.2m.3-3.4l.3.7m1.9.6l.4.6m-1.4 2.2l.3-.1m-5.3-2.3l.1-1.1m2.2 1.4v-.1m-.1 1.1l.1-.8m-1-.1l.1-.8m2.1 2.1l.1-.8m.1-1.7l.1-.9m2.1 2.4l.1-1.1m-4.8 1.5l.2-.6m2.1 1.9l.2-.7m-4.4-1.4l.1.1m1.1.6l.2.1m2.1 1.2l.1.1m5.1-3h.1m-6.1 2.5h.1m-2.3-1.3h.1m3.6-2.4h.1m2.2-.1h.1m-3.7 4.7h.1m-2.3-1.3h.1m5.7-2l.1.1m-2.1 1.9l.2.1m-2.4-1.3h.2m.2 1.3l.7.4m2.8-1.6l.3.3m-6-.4l.7.4m3 1l.5-.1m-2.7-1.2l.5-.1m-1 .2l.6-.9m1.6 2.2l.6-.9m-.8 1.8l1 .6m-2.4-1.4l.2.1m-1-.6l.7.4m.8 6.2l1.7-4.7m-2.7.1l.5-1.4m0 0l.2-.1m2 1.4l.2-.1m3.6-2.3h.1m1.6 1.1h.1m-.9.7h.1m0 0l.1-.1m-.6 0c.1 0 .1-.1.2-.2m-4.8 5.8c.1 0 .1-.1.1-.1m-.2.1l.1-.1m0 0v-.1m-.3.3l.2-.1m4.7-5.2l.1-.1m-1.7 6.1c.1 0 .1.1.1.1m-1.7-7.6c.1-.1.2-.1.2-.1m.5.1s0-.1 0 0m0 0v.1m-.3.4s0-.1 0 0m1.2 7.1h.1m-.1-2.1v-.9m.2-1.5v-.4m-.4.8l.1-1m-.3 2.8l.1-.3m-.7.7h.3m-1.8.2h.1m0 1.4s0-.1.1-.2m-.1.2v.1m2.7-1.4v-.1m-3 1.8h.1m.2-.3l.1.1m.1.1c.4-.1 3.3-.5 3.6-.5m.4-.1c.1-.2.8-3 .9-3.4m-1-4.1c.1 0 .1 0 0 0m0-.4s.1 0 0 0m.1 0v.1m-.5-.3h.1m-1.1-.2h.1m2.9.2l.1-.2m-.2.7l.1-.3m.5.6v-.1m-.1 0h.1m-.8 1.1h.1m0 0s0-.1 0 0m-.8.6h.1m0 0l.1-.1m-.5 0v.1m0 0h.1m.3-1.4c0-.1.1-.1.1-.2m-3 .8v-.2m-.1.5l.1-.2m0 0v-.1m2.8-.6v-.1m.9 1.6h.1m0 0l.1-.1m-.4 0v.1m0-.1l.1-.1m-.1.2h.1m0-.3h.1m-.1.1v-.1m.3.1v-.1m-.1 0h.1m-.3-.2c0 .1 0 .1 0 0m.2.1h.1m0 0v-.1m0 0l.1-.1m-.4 0v-.1m0 0h.1m-5 .9s0-.1 0 0m.6-.4l.1-.1m-.1.2v-.1m3.8-3.2l.1.1m-.1.3v.1m-.7-.8c.1 0 .1 0 .2.1m1.1 1.3h.1m-11.6 7c-.1-.1-.1-.2 0-.2m-.1.4c-.1 0-.1.1 0 .2m.7-5.5h.5m2.1.8c.1 0 .7.1.4.2m-1.8-1c.3-.1-.3-.3-.4-.2m1.8 1c-.3.1.3.3.4.2m-2.3-1.2c-.3.1.3.3.4.2m1.8 1.7c-.1 0-.5 0-.5-.2m-1.4-.9c-.1 0-.5 0-.5-.2m.2 6.1c-.2.1-.3.3-.2.5m1.9 1.1c-.3-.2-.3-1 .2-.8m-.4.2s0 .1 0 0m-.4-.6c0 .1 0 .3-.2.4m-.6.1c.2.1.3-.2.2-.4m1.8.7c-.2.1-.3.3-.2.5m1.2 0c.1.2.1.4-.1.4m-.4-.4c.1.2 0 .5-.2.4m1.6 0c.1.1.2.3.2.4 0 .2-.2.5-.4.4-.4-.3-.3-1 .2-.8m2.6-.4c.1 0 .1-.1.1-.1m-3.3-.5c.1-.2.2-.3.4-.2m-.3 1.4s0 .1 0 0m.1-.6c.5.2.6-.6.2-.8m3-.3c.1 0 .1.2.1.2m-1.1-12.5c0 .1-.1.1-.1.2m2.2 1.2s0-.1.1-.1m-5.8 12.1c-.1.4.3.2.4 0m-2.7-1.2c-.1.4.3.2.4 0m2 1.3c0-.1.1-.2.1-.1m-2.3-1.2c0-.1.1-.2.1-.1m2.1 1.4c0 .1.1 0 .1-.1m-2.2-1.3c0 .1-.1.2-.1.1m1.7 1c0 .1 0 .2.1.3m-2.2-1.3c-.1 0-.1-.2-.1-.3m3.6-11.6c0-.1-.1-.1-.2-.2m.2-.1c-.1-.1-.1-.1 0 0m.1.1c0-.1-.1-.1-.2-.1m3.1.1s.1 0 0 0m-3.6.8v-.1m3.1-.9c0-.1.1 0 0 0m.8.4v.1m-1.2 1s-.1 0 0 0m.1.1c0-.1-.1-.1-.2-.2m.2.2s0 .1 0 0m0-.3s-.1 0 0 0m.2.2c0-.1-.1-.1-.2-.2m2.3.1c-.1 0-.1 0 0 0m-2.2.5c0 .1 0 .1 0 0m-.6 2.2c-.1 0-.1-.1 0-.2m-.1-1.6v-.1m3.1-1h.1m.7.4v.1m-2.8 1.6s0 .1.1.1m-.5 1.5c0 .2.3 0 .3-.1m-5.8-2.1c-.1-.1-.1 0-.1.1m2.2 1.3c0-.1.1-.2.1-.1m-2.3-1.2c.1.1.1 0 .1-.1m2.1 1.4c.1.1.1 0 .1-.1m1.9-2.1c0-.1.2-.2.2-.1m2 1.6c.1.3.4-.4.1-.3 0 .1-.1.2-.1.3m-6.7-.9c-.1.2-.2.4-.1.6m2.4.7c-.1.2-.2.4-.1.6m-2-1.8c-.3.4-.1.9.4.4m1.7 1.4c.1.2.4 0 .5-.1m-.4-.4c-.1.1-.1.2-.1.3m-1-.9c-.1.2-.2.4-.1.6m2.3.6c-.1.2-.2.4-.1.6m-1.9-1.8c-.1.1-.1.2-.1.4s.1.3.3.2m2 .7c-.1.1-.1.2-.1.3 0 .2.1.4.3.3m2.7-1.6c.3.1.5-.3.4-.5m-3.8 2.3c0 .1.1 0 .1-.1m-2.4-1.2c0 .1.1 0 .1-.1m1.9 1.6c-.1-.2 0-.4.1-.5m-2.3-.8c-.1-.2 0-.4.1-.5m1.9 1c-.1.1-.3.5-.1.6m-2.1-1.9c-.1.1-.3.5-.1.6m5.5.8c0-.1.2-.4.3-.1m-2.3.4c-.3-.1 0-.6.2-.6m-2.4-.7c-.3-.1 0-.6.2-.6m.4-1.3c.1-.2.2-.3.4-.4m-2.5.7c-.2.1-.4.4-.3.6m2.5.7c-.2.1-.4.4-.3.6m2.5-.9c.1-.2.2-.3.4-.4m-3.5-2c-.2.1-.4.2-.5.4m2.2 1.2c.1-.1.2-.3.4-.3"/>
    <path class="st3" d="M843.5 155c.2 0 .3-.2.4-.4 0-.1 0-.3-.1-.3m-1.9-3.3s.1 0 0 0m-.3-.1h.2m2.1 1.3c.1 0 .3 0 .3.1m-3.5 3c0-.1.1-.2.1-.1m-2.4-1.2c0-.1.1-.2.1-.1m2.2 1.1c-.1.1-.1.2-.2.3-.1.1 0 .3.2.3m-2.3-1.9c-.2.1-.3.6 0 .5m1.6 1c-.1-.2 0-.4.1-.5m-2.3-.8c-.1-.2 0-.4.1-.5m3.5 1.5c0-.1.2-.4.3-.1m-2.5-1.2c0-.1.2-.4.3-.1m1.9 1.4c.1.2.3 0 .3-.1m-2.5-1.2c0 .2.3 0 .3-.1m1.7 1.5c-.2-.2 0-.6.3-.6m-2.2-1.3c-.2 0-.5.4-.3.6m.7 7.5c.2-.1.4-.3.5-.5m.9 1.1l.3-.6m5.5-6c.1-.2.3-.5.6-.5m-6 6.7c.1-.2.2-.3.3-.5m-.3.5c-.2.2-.4.6-.1.8m-.3-.4c.1-.3.3-.6.6-.8m3.1-5.4c.1-.1.2-.1.2 0m-.1 7.1s-.1.2 0 .2m0-.2c.1 0 .1.1 0 .1"/>
    <path class="st3" d="M844.7 162.8c-.1.3.1.5.4.2.2-.2.2-.4.2-.6m-3.1-1.6s-.1.1-.2 0m4.7-4.9c.1-.1.1-.2 0-.3m-4.7 6.3c-.3.4-.8.4-.6-.2.1-.2.2-.3.3-.5.1-.1.1-.2.2-.4"/>
    <path class="st3" d="M841.9 161.7c-.1-.3-.4.1-.2.2.1 0 .2-.1.2-.2m5.3-6.3c.1-.2.3-.5.6-.5m-3.4-.6c-.1 0-.1.1-.1.2m-.2.7c-.1 0-.1-.1 0-.2m4-.5c.1-.1.2-.1.2.1m-5 .9c.1 0 .1 0 .1.1m.3-.4c.2-.2.4-.5.3-.7m4.5-1.6c-.1 0-.4-.1-.3 0m.3 0c.2.2-.2.1-.3 0m-1.7-.9c.1 0 .5.1.3 0m1.2 1.1c.1.1.1.2 0 .2m-3.7-2.6c.1 0 .4.1.3 0m2 6c.1-.1.2-.1.2 0m-6.1.6c.3-.1.2-.3 0-.4m-.5-1.4c-.1 0-.1.1 0 .1m-2.2-1.4c-.1 0-.1.1 0 .1m2.2 1.3c.1.1.5.2.3 0m-2.2-1.3c.2.2-.3.1-.3 0m2.2.9c0-.2.1-.4.3-.4m-2.4-.8c0-.2.1-.4.3-.4m1.9 1.7c0-.2.1-.4.3-.4m-2.7-1c0-.2.1-.4.3-.4m-2 7.4c-.1-.1-.2-.2-.2-.3m2.5 1.2c.1.1.1.2-.1.2m.2-.4c.1 0 .1-.1.1-.2m-2.3-1.1c.1 0 .1-.1 0-.2m-.2.6c.1 0 .1-.1 0-.2m2.2 1.6c.1.1.2.1.3-.1m-.2 0c-.1-.1-.1-.2.1-.2m0-.2c-.1-.1-.1-.2 0-.2"/>
    <path transform="rotate(-60.053 828.197 94.661)" class="st4" d="M827.9 66.1h.6v57.1h-.6z"/>
    <path class="st5" d="M823.3 80.5l-.4-.3-1 1.1-.6-.4c-.6-.4-1.1-.3-1.5.2l-6.2 6.8c-.4.5-.4 1.2.1 1.7l3.2 2.2c.5.4 1.2.4 1.7-.1l6.1-6.8c.4-.5.6-1.2.1-1.6l-.6-.4 1.1-1.1-.5-.4 2.7-3-1.2-1.1-3 3.2zm-8-4.8l-.4-.3-1 1.1-.6-.4c-.6-.4-1.1-.3-1.5.2l-6.2 6.8c-.4.5-.4 1.2.1 1.7l3.2 2.2c.5.4 1.2.4 1.7-.1l6.1-6.8c.4-.5.6-1.2.1-1.6l-.6-.4 1.1-1.1-.5-.4 2.7-3-1.2-1.1-3 3.2zm-8.1-4.4l-.4-.3-1 1.1-.6-.4c-.6-.4-1.1-.3-1.5.2l-6.2 6.8c-.4.5-.4 1.2.1 1.7l3.2 2.2c.5.4 1.2.4 1.7-.1l6.1-6.8c.4-.5.6-1.2.1-1.6l-.6-.4 1.1-1.1-.5-.4 2.7-3-1.2-1.1-3 3.2z"/>
    <path transform="rotate(-60.053 881.745 125.631)" class="st1" d="M881.4 97.1h.6v57.1h-.6z"/>
    <path class="st5" d="M912.1 133.3l-.4-.2-.9 1.2-.7-.3c-.6-.3-1.1-.2-1.5.3l-5.5 7.4c-.4.5-.3 1.3.2 1.7l3.4 1.8c.5.4 1.3.3 1.7-.2l5.4-7.4c.4-.5.4-1.3-.1-1.6l-.6-.4 1-1.2-.5-.3 2.4-3.2-1.3-1-2.6 3.4zm-8-4.4l-.4-.2-.9 1.2-.7-.3c-.6-.3-1.1-.2-1.5.3l-5.5 7.4c-.4.5-.3 1.3.2 1.7l3.4 1.8c.5.4 1.3.3 1.7-.2l5.4-7.4c.4-.5.4-1.3-.1-1.6l-.6-.4 1-1.2-.5-.3 2.4-3.2-1.3-1-2.6 3.4zm-8.3-3.9l-.4-.2-.9 1.2-.7-.3c-.6-.3-1.1-.2-1.5.3l-5.5 7.4c-.4.5-.3 1.3.2 1.7l3.4 1.8c.5.4 1.3.3 1.7-.2l5.4-7.4c.4-.5.4-1.3-.1-1.6l-.6-.4 1-1.2-.5-.3 2.4-3.2-1.3-1-2.6 3.4z"/>
    <path id="Layer8_255_1_STROKES_30_" class="st6" d="M821.7 168.9c-.5-.3-.7-.8-.7-1.6s.2-1.7.7-2.5 1.1-1.4 1.8-1.8c.7-.4 1.3-.5 1.8-.2s.7.8.7 1.7c0 .7-.2 1.6-.7 2.4-.5.8-1.1 1.4-1.8 1.8-.6.4-1.3.4-1.8.2z"/>
    <path id="Layer8_255_1_STROKES_29_" d="M823.1 166.8c-.1-.1-.2-.2-.2-.5 0-.2.1-.5.2-.7.1-.2.3-.4.5-.5s.4-.1.5 0 .2.2.2.5c0 .2-.1.5-.2.7s-.3.4-.5.5h-.5z"/>
    <path id="Layer8_255_1_STROKES_34_" class="st6" d="M822.8 169.9c-.5-.3-.7-.8-.7-1.6s.2-1.7.7-2.5 1.1-1.4 1.8-1.8c.7-.4 1.3-.5 1.8-.2s.7.8.7 1.7c0 .7-.2 1.6-.7 2.4-.5.8-1.1 1.4-1.8 1.8-.7.4-1.3.4-1.8.2z"/>
    <path id="Layer8_255_1_STROKES_33_" d="M824.1 167.8c-.1-.1-.2-.2-.2-.5 0-.2.1-.5.2-.7s.3-.4.5-.5.4-.1.5 0 .2.2.2.5c0 .2-.1.5-.2.7s-.3.4-.5.5h-.5z"/>
    <path id="Layer8_255_1_STROKES_32_" class="st7" d="M826.4 171.5c-.5-.3-.7-.8-.7-1.6s.2-1.7.7-2.5 1.1-1.4 1.8-1.8c.7-.4 1.3-.5 1.8-.2s.7.8.7 1.7c0 .7-.2 1.6-.7 2.4-.5.8-1.1 1.4-1.8 1.8-.6.4-1.3.4-1.8.2z"/>
    <path id="Layer8_255_1_STROKES_31_" d="M827.8 169.4c-.1-.1-.2-.2-.2-.5 0-.2.1-.5.2-.7.1-.2.3-.4.5-.5s.4-.1.5 0 .2.2.2.5c0 .2-.1.5-.2.7s-.3.4-.5.5-.4.1-.5 0z"/>
    <path id="Layer8_255_1_STROKES_42_" class="st7" d="M827.8 172.1c-.5-.3-.7-.8-.7-1.6s.2-1.7.7-2.5 1.1-1.4 1.8-1.8 1.3-.5 1.8-.2.7.8.7 1.7c0 .7-.2 1.6-.7 2.4s-1.1 1.4-1.8 1.8c-.7.4-1.3.4-1.8.2z"/>
    <path id="Layer8_255_1_STROKES_41_" d="M829.2 170c-.1-.1-.2-.2-.2-.5 0-.2.1-.5.2-.7s.3-.4.5-.5.4-.1.5 0 .2.2.2.5c0 .2-.1.5-.2.7s-.3.4-.5.5h-.5z"/>
    <path id="Layer8_0_1_STROKES" class="st8" d="M840 134.1l-78.5 4.5"/>
    <path class="st4" d="M790.1 50l-8.3 4.3 67.9 39.3 8.5-4.2L790.1 50z"/>
    <path id="Layer8_0_MEMBER_1_1_STROKES" class="st9" d="M903 64.4l-19.5 42.5"/>
    <path id="Layer8_0_MEMBER_2_1_STROKES" class="st9" d="M843.2 84.3l59.7-19.9"/>
    <path id="Layer8_0_MEMBER_3_1_STROKES" class="st9" d="M912.6 201.8l-6-58.8"/>
    <path id="Layer8_0_MEMBER_4_1_STROKES" class="st9" d="M912.6 201.8l-14.1-63.5"/>
    <path id="Layer8_0_MEMBER_5_1_STROKES" class="st9" d="M890 134.4l22.6 67.5"/>
    <path id="Layer8_0_MEMBER_6_1_STROKES" class="st9" d="M747.6 92.8l59.7-7.9"/>
    <path id="Layer8_0_MEMBER_7_1_STROKES" class="st9" d="M747.6 92.8l52.8-13"/>
    <path id="Layer8_0_MEMBER_8_1_STROKES" class="st10" d="M747.6 92.8l68.1-3.2"/>
    <path id="Layer8_0_MEMBER_10_1_STROKES" class="st9" d="M821.7 154.3l-139.2 35.9"/>
    <path id="Layer8_0_MEMBER_11_1_STROKES" class="st9" d="M312.4 574.2l168.9-24.1"/>
    <path id="Layer8_0_MEMBER_12_1_STROKES" class="st9" d="M302.7 581.7l130.2 11.7"/>
    <path class="st11" d="M294.6 575.6l-14.8 3-.2.2 15-3v-.2z"/>
    <path id="Layer8_0_MEMBER_83_1_STROKES" class="st12" d="M822.6 163.9l17.8-30.8"/>
    <path id="Layer8_0_MEMBER_86_1_STROKES" class="st13" d="M807.5 258.5l13.6-90.4"/>
    <path id="Layer8_0_MEMBER_87_1_STROKES" class="st14" d="M820.7 267.4l5.4-96.5"/>
    <path id="Layer8_0_MEMBER_88_1_STROKES" class="st9" d="M301.1 580.9c-.1.5-.1.9 0 1.4"/>
    <path id="Layer8_0_MEMBER_89_1_STROKES" class="st9" d="M302.3 579.4c-.3.1-.6.5-.9 1"/>
    <path id="Layer8_0_MEMBER_90_1_STROKES" class="st9" d="M303.6 579.3c-.2-.1-.5-.2-.7-.1"/>
    <path id="Layer8_0_MEMBER_91_1_STROKES" class="st9" d="M303.8 581.6c.4-.5.4-1.1.2-1.7"/>
    <path id="Layer8_0_MEMBER_92_1_STROKES" class="st9" d="M302.9 582.7c.4-.2.6-.5.7-.7"/>
    <path id="Layer8_0_MEMBER_93_1_STROKES" class="st9" d="M303.5 582.4l-.6.5"/>
    <path id="Layer8_0_MEMBER_96_1_STROKES" class="st9" d="M302.8 579.1l.5-.4"/>
    <path id="Layer8_0_MEMBER_97_1_STROKES" class="st9" d="M301.8 579.7l.5-.3"/>
    <path id="Layer8_0_MEMBER_103_1_STROKES" class="st15" d="M294.6 568.8l-3.9 6.2"/>
    <path id="Layer8_0_MEMBER_104_1_STROKES" class="st13" d="M295.4 571.4l-.9 6.6"/>
    <path class="st4" d="M295 570.3c.7.4 1.1.2 1.4-.5.2-.2.2-.5.2-.9-.1-.3-.2-.5-.5-.6-.6-.3-1.1-.1-1.5.5-.2.7-.1 1.2.4 1.5z"/>
    <path id="Layer8_0_MEMBER_105_1_STROKES" class="st9" d="M296.4 569.8c.2-.2.2-.5.2-.9-.1-.3-.2-.5-.5-.6-.6-.3-1.1-.1-1.5.5-.3.7-.2 1.2.4 1.5.6.4 1.1.3 1.4-.5z"/>
    <path class="st1" d="M308.4 577.6c.6.3 1.1.1 1.5-.5.4-.7.3-1.2-.3-1.6-.6-.3-1.1-.1-1.5.5-.3.6-.2 1.1.3 1.6z"/>
    <path id="Layer8_0_MEMBER_108_1_STROKES" class="st9" d="M309.9 577.1c.4-.7.3-1.2-.3-1.6-.6-.3-1.1-.1-1.5.5-.4.7-.3 1.2.3 1.6.6.3 1.1.1 1.5-.5z"/>
    <path id="Layer8_0_MEMBER_109_1_STROKES" class="st13" d="M296.7 569.9l446.9-257.5"/>
    <path id="Layer8_0_MEMBER_110_1_STROKES" class="st13" d="M743.7 312.4l63.5-51.7"/>
    <path id="Layer8_0_MEMBER_113_1_STROKES" class="st16" d="M302.6 578.3l4.9-.9"/>
    <path id="Layer8_0_MEMBER_115_1_STROKES" class="st16" d="M303.7 582.8l5.3-4.9"/>
    <path id="Layer8_0_MEMBER_116_1_STROKES" class="st14" d="M309.5 577.4l444.4-257.6"/>
    <path id="Layer8_0_MEMBER_117_1_STROKES" class="st14" d="M757.1 318.2l60.3-49.4"/>
    <path id="Layer8_0_MEMBER_369_1_STROKES" class="st9" d="M887.2 114.7l-.3.5"/>
    <path id="Layer8_0_MEMBER_372_1_STROKES" class="st9" d="M887.4 114.7l.1-.5"/>
    <path id="Layer8_0_MEMBER_373_1_STROKES" class="st9" d="M887.4 114.1l.2-.5"/>
    <path id="Layer8_0_MEMBER_374_1_STROKES" class="st9" d="M888.6 112.8l.6.3"/>
    <path id="Layer8_0_MEMBER_375_1_STROKES" class="st9" d="M887.5 112.1l.5.3"/>
    <path id="Layer8_0_MEMBER_376_1_STROKES" class="st9" d="M887.6 112l1.6.9"/>
    <path id="Layer8_0_MEMBER_377_1_STROKES" class="st9" d="M887.7 114.5l.7-1.6"/>
    <path id="Layer8_0_MEMBER_378_1_STROKES" class="st9" d="M887.4 114.3l.7-1.6"/>
    <path id="Layer8_0_MEMBER_379_1_STROKES" class="st9" d="M887.7 114.5l.6-1.8"/>
    <path id="Layer8_0_MEMBER_380_1_STROKES" class="st9" d="M887.5 114.4l.7-1.8"/>
    <path id="Layer8_0_MEMBER_387_1_STROKES" class="st17" d="M828 155.7l19.4-16"/>
    <path id="Layer8_0_MEMBER_388_1_STROKES" class="st17" d="M843 134.9l-16.8 18.5"/>
    <path id="Layer8_0_MEMBER_465_1_STROKES" class="st20" d="M858 89.5l-68-39.4c-2.9 1.4-5.7 2.8-8.3 4.3l67.9 39.3 8.4-4.2zm0 0l24.6-12.4v13.7l-10 7.2 75.6 43.7-7.2 5.2c-3.9 2.8-8.2 5.5-12.9 8-1.6.9-3.1 1.6-4.6 2.1h-1.4L872 135l-14.4 74.4c-2.1 2.3-5.2 5.1-9.2 8.4-1.3 1-2.6 2.1-4.1 3.2-1.7 1.3-3.5 2.6-5.3 3.9-4.9 3.5-10.1 7-15.8 10.5-9.9 6.3-18.9 11.3-27 15.2-8 3.9-13.1 5.6-15.3 5.1l-41 21.4-135.2 78M849.5 93.7l-6.1 2.9-20.1 11.9c-.5.3-.9.6-1.4 1-5.9 4.1-9.8 8.1-11.7 11.9-1.8 3.6-1.5 6.4.8 8.4s5.8 2.6 10.6 1.9c.2 0 .4-.1.6-.1 5-.9 10.2-3.2 15.5-6.9m.5-7.6c-.6.4-.8.9-.7 1.6.1.8.5 1.3 1.2 1.5l18.9 8.3 7.3 3.2 7.1 3.1m-50-25.3l-57.6-43.8c5.1-4 10.9-7.8 17.3-11.3M871 97l1.7 1m68.4 48.9l-76.7-44.4M707.1 363.3c1.1-4.5.9-9.8-.5-15.9-1.3-5.4-3.2-10.4-5.8-15.1-.6-1-1.4-1.7-2.5-2.1-1-.4-2-.3-2.8 0-.1.1-.3.1-.4.2l-6.6 3.8c-1 .5-1.5 1.4-1.5 2.7-.1 1.1.2 2.2.8 3.1 2.5 4.7 4.4 9.5 5.6 14.6 1.3 5.7 1.6 11 .7 15.7M469 342c1.7.8 3.6 1.3 5.8 1.3 2.2 0 4.1-.5 5.7-1.4l11.3-4.4 12.4-2.5 51.1 29.3 24-7.7 62.1-35.8 67.6-36.7 83.8-68.6c.2-.1.4-.2.6-.1l28.7-83.7m-306.6 208l11.2-8.1c6.5-5.4 9.9-9.8 10.2-13 .5-1.3.4-2.5-.3-3.8-.7-1.2-1.7-1.9-3-2.2.2.2.3.6.3 1-.1.7-.4 1.3-.9 1.8-1.2 1.3-4.1 2.5-8.8 3.7-1.9.7-3.3.5-4.2-.6-1.6-1.9-2.7-2.9-3.1-3.2-.9-.6-1.8-1.1-2.6-1.5-.5-.2-.9-.4-1.3-.5-1.3-.4-2.7-.6-4.4-.6-2.6.4-4.7.8-6.4 1.3-1.6.5-3.7 1.4-6.1 2.4-5.9 2.4-12 5.2-18.5 8.5-5.2 2.6-10.6 5.5-16.2 8.7m72.3-21.1c-.2-.2-.5-.3-.8-.3-3-.5-6.1-.5-9.5.2-4.6.8-7.6 1.2-8.9 1.4m51.2 171.8c-1.2-.5-2.1-.8-2.6-.9-.8-.2-1.6-.2-2.4 0-.1 0-.2.1-.4.1-2 1.1-5.1 2.2-9.4 3.3-5.4 1.3-8.4 1-9-.7-.7-3 2.7-8.3 10.2-15.9 4.8-5.4 11.3-10.9 19.3-16.5 3.5-2.4 8.3-5.5 14.4-9.4l-5.4-2.6-220 127.3c-7.8 4.8-15.6 9.1-23.4 13-19.7 10-38.8 17.4-57.1 22.1l-5.1.9-10 .5c-1.3-.2-2.3-.8-3.1-1.7-.7-.7-1.1-1.6-1.2-2.5v-.8c-.1-4.6 1.8-11.7 5.7-21.5 4.3-10.3 10-21.3 17.3-33.2 1.3-2.1 2.9-4.6 4.8-7.5l.6-.9c.6-.9 1.2-1.8 1.8-2.8 3.2-5.7 7-10.9 11.4-15.5 4.9-5.2 10.4-9.7 16.7-13.5l163.7-94.5c4.3-3.3 6.5-7.7 6.5-13.4 0-5.3 1.9-8.9 5.6-11m61.5 45.4l-2.5 1.5h-.4l-.1.1h-.1v-.1h-.3l-.1-.1v-.1l-.1-.1h-.1l-.1-.1v-.2l-.1-.1v-.2l-.1-.1v.1l-.1-.5-.1-1-.7-2.4m29.4 13l-42.1-20.3c-3.9-1.3-7.9-1.3-12 0m-134.1-25.1c.1.8.5 1.6 1 2.4s1.1 1.3 1.7 1.6l.2.1 7 4.1c1 .4 2.6.1 4.7-.8 1.1-.5 2.6-1.2 4.4-2.1 13-6.3 26.9-13.7 41.6-22.2l7.2-4.1m-14.8-17.4c-1.2 1.8-1.2 3.5-.2 5.2l43.4 29.5m-55.1-44.8c-2.2 1.4-4.3 2.7-6.2 3.9-3.9 2.5-7.1 4.5-9.4 6-6.2 3.9-11.2 7.5-15 10.8-2.2 1.9-4 3.5-5.3 4.6-2.1 1.9-3.6 3.4-4.5 4.5 2.7-1.9 5.5-.4 8.2 4.4 2.7 4.6 2.7 7.7 0 9.2 1.4-.3 2.9 0 4.5.8m63.5 82.9l1.2 4.4c.3 1 0 1.8-.8 2.5l-1.8 1.2-.7.3h.1l-.1.1h-.2l-.1.1h-.5l-.1-.1h-.1v-.1h-.2v-.1l-.1-.1v-.1c-.1-.4-.2-.7-.3-.9l-.9-3.5c-.2-1.4.3-2.5 1.4-3.1l.4-.3 1.4-.7.1-.1h.3l.1-.1m-.4.3l.2-.1m7 2.1l-1-3.5c-.1-1.3.3-2.2 1.3-2.9l1.4-.8.6-.3v-.1h.2l.1-.1h.6v.1h.1l.2.2v.1h.1l1.3 4.5c.2 1.1-.1 1.9-.9 2.6l-2.5 1.5h.1l-.5.1h-.1l-.1.1-.1-.1h-.2c-.1-.1-.2-.2-.4-.3M430.5 498l.2.2h.1v.1h.1v.1l.1.1v.1l1.2 4.3c.2 1.1-.1 1.9-.9 2.6l-2.4 1.4h-.1l-.1.1h-.1l-.3.1-.3-.1h-.1l-.1-.1h-.1v-.1h-.1v-.1l-.1-.1v-.1h-.1v-.2l-1.1-4.3c0-.9.1-1.4.2-1.6l.1-.1v-.2l.3-.3.1-.2.1-.1c.3-.2.5-.4.7-.5l.5-.3.6-.5.6-.3.1-.1h.2l.1-.1h.6v.3zm-.9.1l.2-.1m8.6 3.5c-.5.2-.8.2-1 0l-.2-.2v-.1h-.1v-.1l-.1-.1v-.1l-.1-.1v-.2l-1-4.1v-.9c0-.3.1-.5.2-.7.3-.5.7-1 1.3-1.4l.4-.3 1.4-.7h.2l.1-.1h.1l.1-.1h.3l.1.1h.2v.1h.1v.1h.1l.1.1v.1l.1.1 1 3.2.2 1.3c.2.4.2.9 0 1.4s-.5.9-.9 1.2l-1 .7-1.6.8m-17.7 2.1l.3.1.2.3.1.1 1 3.3.2 1.2c.3 1.1 0 1.9-.9 2.6l-1.8 1.2-.7.3-.1.1h-.3l-.1.1h-.2v-.1h-.2l-.1-.1h-.1v-.2h-.1v-.1l-.1-.1v-.1l-.3-1-.1-1-.7-2.4v-.8l.1-.1v-.1c.1-.1.1-.4.2-.7.2-.5.6-.9 1.1-1.3l1.2-.8.7-.3v-.1h.3v-.1l.4.1zm-10.3 5.6h.2m-.2 0l-1.7 1c-.1.1-.2.1-.3.2-.3.3-.7.7-1 1.2-.1.2-.2.7-.2 1.6l1 3.9v.3l.1.1v.2h.1v.2h.1v.1l.1.1h.1v.1h.2v.1h.3l.5-.2 2.5-1.5c.7-.8 1-1.6.9-2.5l-.3-1.3-1-3.2v-.1h-.1v-.1l-.1-.1v-.1h-.2v-.1h-.2l-.1-.1h-.3v.1h-.3v.1m.1-.1l-.2.1m47.1-18.8l-.2.1h-.1l-.1.1h-.3c-.1 0-.2 0-.3-.1h-.1l-.1-.1h-.1v-.1l-.2-.2v-.1l-.1-.1v-.2l-.1-.1v-.2l-.1-.5-.1-1-.7-2.4c0-.8.1-1.3.3-1.5l.5-.8c.4-.3.6-.5.7-.6l1.7-1 .7-.2h.1l.1.1h.1l.2.2h.1v.1h.1v.2l1 3.2.3 1.3c.1.4.1.9 0 1.4-.2.5-.4.8-.8 1.1l-1.1.8-1.4.6m-.1 0zm-10.9 4.1v.5l.1.2v.1l.1.1v.2l.5.5h.3l.1.1v-.2h.4l.1-.1.7-.4 1.8-1.1c.9-.7 1.2-1.5.9-2.6l-.2-1.2-1-3.3h-.3v-.1l-.1-.1v-.1h-.3v-.1h-.2v-.1h-.3l-.1.1-.1.1-.2.1-.7.3-.6.4-.4.2c-.6.5-1 1-1.3 1.4-.2.4-.3.9-.3 1.6l1.1 3.5m2.4-7.5h-.2v.1m84.5-48.8l.6-.5 1.4-.7.1-.1h.4l.1-.1h.1l.1.1h.3v.1h.1v.1h.1v.1h.1v.2h.1l1.2 4.4m-1 2.6l-2.5 1.5h-.2l-.1.1h-.5l-.1-.1h-.2v-.1l-.3-.3v-.2h-.1l.1-.4v-.4l-1-3.4m2.3 4.8l.2-.1-.2.1m121.8-18.6l-12.5 3.3-5.3 2.5c-1.5.8-3.2 1.3-5.2 1.3-1.9.1-3.6-.2-5.3-.7m230.7-210c-3.7 9.3-9 17.8-15.8 25.5l-93.7 92c-7.5 7.8-16.1 14.3-25.6 19.4l-86.9 50.2 6.1 3.7c4.7-2.3 9.3-4.3 13.7-6.1 3.6-1.6 7.6-2.9 12.1-3.7 1.8 0 3.2.2 4.3.6.4.1.9.3 1.4.6 1.2-.2 4.1-.6 8.9-1.5 3.3-.6 6.5-.7 9.5-.2.3 0 .5.1.7.3 1.3.3 2.3 1.1 3 2.3.7 1.1.9 2.4.5 3.8-.4 3.4-3.9 7.8-10.3 13l-14.9 11m2.5-28.8c.8.4 1.6.9 2.5 1.5.7.4 1.8 1.4 3.2 3.2.8 1 2.2 1.2 4.2.6 3-.9 4.5-1.4 4.7-1.4 2.1-.7 3.4-1.5 4.1-2.3.5-.5.9-1.1 1-1.8 0-.5-.1-.9-.5-1.2m-105.1-24.6c-.5 1.6-.2 2.8.8 3.6l47.5 27.3M552 490.3c.1.6.5 1.3 1.1 2.1s1.1 1.3 1.7 1.4l7 4.1c1 .4 2.6.1 4.7-.8 1.1-.5 2.6-1.2 4.4-2.1 15.1-7.4 29-14.8 41.6-22.2l12.2-7.2m-20-16.3c-.8 1.2-1.1 2.4-1 3.4.3.9.5 1.5.7 1.7.3.3.8.6 1.5.9h.1l185.6 86.3c1.5.8 3.3 1.1 5.5 1l24.2-9.8-164.5-105.5m-104.6 44.2l.4-.4c2.7-1.9 5.5-.4 8.2 4.4 2.7 4.7 2.7 7.7-.1 9.2m-2.2 3.3l3.1 1.8c1.4.7 2.2 2 2.4 3.8.1 1.8-.7 2.4-2.4 1.6m31.4-53.9c-2.5 1.6-4.9 3-7 4.4m56.5-31.2c-6.7 3.2-13.7 6.9-21.1 11.1m-66-61.4l-22.9 7.3m261.1-156.2c.1 0 .2 0 .3.1.3.1.5.4.5.8L781 255.6m-39.8 88.2l.5-4.8-.2-5.3-2.6-11.3-.5-1c-.6-.9-1.4-1.5-2.4-1.9-1.2-.4-2.3-.3-3.1.2l-14.4 8.3-.4.3-.7.9-.3.5-.2 1.4.2 1.4.6 1.3.1.1c1.3 3 2.3 6.3 3 10 .8 4 1 7.4.6 10.3m127-136.5l16.6-85.9m-7.4-3.2L839 224.8M427.3 353.1L280.1 248.5c-1.7-1-2.5-2.1-2.4-3.5l16.8-14 183.1 93.8M393.1 379l-.4.4c-3 3.3-5.1 5.6-6.2 7-2.9 3.7-4.3 6.6-4.1 8.7.4 2 3.3 2.3 8.9 1 4.3-1.1 7.6-2.2 9.7-3.3.1 0 .2-.1.4-.1m.7 10.4c1.8.8 2.5.3 2.4-1.5-.2-1.9-1-3.1-2.4-3.8l-3.3-1.9m-10.4 151c1-5.3.6-11.3-1.3-18.1-1.8-6.2-4.3-11.7-7.6-16.6-.6-1-1.4-1.7-2.5-2.1-1-.4-1.9-.3-2.7 0-.1.1-.3.1-.4.2l-8.8 5c-.8.6-1.3 1.4-1.4 2.4v1.4l.4 1.4.4.6h.1c3.2 4.7 5.7 10.1 7.4 16.3 1.9 6.7 2.3 12.6 1.4 17.7m27.6-40.5l-1.4.7-.4.3c-.1.1-.2.1-.3.2-.3.3-.7.7-1 1.2l-.1.2v.3l-.1.1v.2l-.1.9 1.2 4.3c0 .1.1.2.3.5v.1h.2v.1h.4c.3 0 .5 0 .5-.1h-.1l.1-.1 2.4-1.4c.9-.7 1.2-1.5.9-2.6l-.2-1.2-1-3.3v-.1h-.1v-.1h-.1v-.1h-.1v-.2h-.3v-.1h-.2l-.1.1h-.3l-.1.1zm-50.3 19.7l-9.1 1.5c-4.1 1.2-8.4 2-12.8 2.4l-5.3 19c3.5-.2 6.8-.9 10-2 7.1-1.9 13.5-4.8 19.4-8.5l1.7-1.1m-25.7-7.3c-1.9.2-3.8.2-5.8.2l-19-.4-10.2 16.5 22.2 2.4c1.6.2 3.3.3 4.9.3.9 0 1.8 0 2.7-.1m-19.6-19l-3.7-11c-.2-2.6.4-4.8 1.7-6.7m-13.8 19.1c-.2.6-.4 1.1-.3 1.8l5.9 13.2m239.1-110"/>
    <path id="Layer8_0_MEMBER_466_1_STROKES" class="st21" d="M537.8 441.9c.4 1.1.1 2-.9 2.6m-3.4-6.4c-.4.2-.8.7-1.4 1.4v.2l-.1.2v.1l-.1.1v1m-5.5 1.5l.4.3v.1h.1v.1l1 3.2.2 1.3c.3 1 0 1.9-.8 2.5l-1.8 1.2-.9.4-.1.1h-.5v-.1h-.2v-.1h-.1l-.5-.9v-.3l-1-3.6.1-.9v-.4l.1-.1v-.1l.1-.2c.2-.4.6-.8 1-1.2l2-1.1h.1l.1-.1h.1l.1-.1h.5zm-9 5.9l1 3.3.2 1.2c.3 1 0 1.9-.8 2.6l-1.1.7-1.3.6-.1.1h-.2v.1h-.7v-.1h-.1l-.3-.3v-.1l-.1-.1-.1-.4-.1-.1v-.4l-1-3.5c-.1-1.5.4-2.5 1.5-3.1l.4-.3 1.4-.6.2-.2h.8v.1h.1v.1h.1v.1h.1l.1.3zm-12.4 6l-.4.3c-1.1.6-1.7 1.6-1.5 3l1 3.6v.5l.1.1v.2l.2.2v.2h.1l.3.3h.6v-.1h.1l.2-.1-.1.1 2.5-1.5c.9-.6 1.2-1.5.9-2.6l-1.2-4.4h-.1v-.1h-.1v-.2h-.1v-.1h-.1l-.1-.1h-.3v-.1h-.1l-.1.1h-.3l-.1.1h-.1l-1.3.6zm10.4 2.4l-.2.1m-19 2.6l-1.4.8c-1 .7-1.4 1.6-1.3 2.9l.7 2.4.2 1.2c0 .1 0 .3.1.5v.2l.1.1v.2h.1v.1l.1.1v.1h.1v.1h.1l.1.1h.1v.1h.5l.1-.1h.1l.1-.1.7-.3 1.8-1.1c.8-.7 1.1-1.6.8-2.6l-.2-1.2-1-3.1v-.1h-.1v-.1l-.1-.1v-.1h-.1l-.1-.1h-.1v-.1h-.5l-.9.2zm-7.5 5.3l.1.2 1.2 4.4c.4.9.1 1.8-.8 2.5l-1.8 1.2-.7.3-.5.1h-.3v-.1h-.2v-.1h-.1l-.1-.1h-.1v-.2l-.1-.1h-.1v-.3l-.1-.1v-.3l-1-3.6c-.1-1.4.4-2.4 1.5-3l.4-.3 1.4-.7.2-.1h.1l.1-.1h.2l.4.1h.1v.1h.1l.1.2zm-1.3-.2l.2-.1M682 352l.2.1h.3v.1l.2.2h.1v.2h.1v.1l1 3.1.2 1.2c.2.5.2 1 0 1.4-.2.5-.4.9-.8 1.2l-2.4 1.4-.5.3h-.4l-.1-.1h-.1l-.2-.2h-.1v-.1l-.1-.1v-.1h-.1v-.1l-1.1-4.3c-.2-1.3.2-2.3 1.2-2.9l1.4-.8 1.2-.6zm-10.1 5.7l.2-.1-.2.1zm0 0l-1.4.7-.4.3-.1.1-.2.1-.1.1-.2.1-.1.1-.1.2-.2.1v.1l-.1.2-.2.2v.1l-.1.2c-.1.2-.2.7-.2 1.5l.9 3.6c0 .3.1.6.3.9.1.1.2.2.2.3l.3.2h.5l.1-.1h.1v-.1l.7-.3 1.8-1.2c.4-.4.7-.7.8-1.1.2-.4.2-.8.1-1.4l-.3-1.3-1-3.2v-.1l-.1-.1v-.1h-.1l-.2-.2h-.1l-.1-.1h-.3l-.4.1m-1.8 1.3l.3-.2m-6.7 4.8l1.3 4.6c.2.9 0 1.8-.8 2.5l-1.8 1.2-.7.4h-.1l-.1.1h-.6v-.1h-.2v-.1l-.3-.3v-.2l-.1-.1v-.1l-.1-.1v-.1l-.1-.5-.1-1-.7-2.4v-.8l.1-.1v-.3l.1-.2v-.1l.1-.2c.2-.5.5-.8 1-1.2.1-.1.2-.1.3-.2l.4-.3 1.4-.7h.1l.1-.1h.1l.1-.1h.5v.1h.1l.1.1h.1l-.2.3zm42.6 1.7l-10.8 6.2h-.5m-42-2.3l-1.7 1-.1.1-.2.1-.2.2-.2.1-.1.2-.5.7c-.1.3-.2.8-.2 1.6l.7 2.4.2 1.2c0 .3.1.5.2.6v.2h.1v.2h.1v.1l.4.2c.1.1.2.1.5.1l.1-.1h.2l.2-.1 1.3-.6 1.2-.8c.9-.6 1.2-1.4.8-2.5l-1.3-4.4-.1-.1v-.1l-.2-.2h-.1l-.1-.1h-.8v.1h-.2v-.1zm-8.9 5.4c.2 0 .4 0 .4.1h.2l.2.2v.1h.1v.1l1.3 4.4c.3 1.1 0 2-.9 2.6l-1.7 1.2-.6.3h-1l-.1-.1h-.1v-.1l-.1-.1v-.1h-.1v-.1l-.1-.1v-.3h-.1v-.4l-.1-.1-.2-1.3-.7-2.4c0-.5 0-.8.1-.9.1-.3.1-.5.1-.7l.5-.8.3-.3h.1l.2-.1 1.9-1.2.4.1zm-9.1 5.9l.2.2v.1l1 3.2.2 1.2c.3 1.1 0 2-.8 2.6l-1.8 1.1-.6.3-.1.1-.5.1h-.2v-.1l-.3-.2-.1-.1h-.1v-.1l-.1-.3-.1-.1v-.2l-.1-.1v-.4l-.9-3.5v-.9c0-.1.1-.4.2-.7l.1-.1.1-.2.1-.1.1-.2.2-.2c.1-.2.2-.3.4-.5l2-1.1.5-.2h.4l.1.1h.1v.3zm16.3-10.3l-.3.2m1.2 7.7l.2-.1m-40.9 17.4l.1-.9c.1-.2.1-.4.2-.7.3-.7.7-1.1 1.3-1.4l.4-.3 1.4-.7.1-.1h.1l.1-.1h.6v.1h.1v.1h.1v.1h.1l1.4 4.6c.3 1.1 0 2-.9 2.6m4.6-8.9l.7 2.4.1 1 .1.5v.2l.1.1v.2h.1v.2l.1.1v.1h.1v.1h.1v.1h.2v.1h.1c.3 0 .5-.1.8-.2l.7-.3 1.8-1.1c.8-.8 1.1-1.6.9-2.6l-1.3-4.5-.3-.3v-.1h-.9l-.1.1-1.4.7-.4.3c-.5.3-1 .8-1.3 1.3-.2.3-.2.9-.2 1.6zm237.5-165.9c.9-1.4 1.4-3.1 1.4-4.9 0-3.1-1.3-5.6-3.8-7.5m-134 143.9l.9.1.1-.1h.1l16.8-9.7v-.1h.1l.1-.1h.1v-.1h.1v-.1h.1v-.1M373.3 555.3c-.1.5.1.8.4 1.1.4.2.8.2 1.2 0l12.2-7 .9-1.2.3-.6.2-.6m-37.8-12.7l4.1 11.3"/>
    <path class="st1" d="M871.1 96.9l-7.8 4.9 77.8 44.8 7.3-5-77.3-44.7z"/>
    <path id="Layer8_0_MEMBER_475_1_STROKES" class="st14" d="M821.6 265.1l5.6-93.8"/>
    <path id="Layer8_0_MEMBER_476_1_STROKES" class="st14" d="M756.1 319.7l64.1-51.5"/>
    <path id="Layer8_0_MEMBER_477_1_STROKES" class="st14" d="M310.8 578.4l445.3-258.7"/>
    <path id="Layer8_0_MEMBER_479_1_STROKES" class="st13" d="M823.1 165.7l20.9-27.5"/>
    <path id="Layer8_0_MEMBER_480_1_STROKES" class="st13" d="M743.3 311.4l63.5-51.7"/>
    <path id="Layer8_0_MEMBER_481_1_STROKES" class="st13" d="M296 568l446.9-256.4"/>
    <path id="Layer8_0_MEMBER_482_1_STROKES" class="st13" d="M808.8 258.3L822 169"/>
    <path id="Layer8_255_1_STROKES_5_" class="st7" d="M307.9 578.2c-.2-.2-.4-.4-.4-.8s.1-.8.4-1.2c.2-.4.5-.7.9-.9s.6-.2.9-.1c.2.2.4.4.4.8s-.1.8-.4 1.2c-.2.4-.5.7-.9.9-.3.2-.6.2-.9.1z"/>
    <path id="Layer8_255_1_STROKES_4_" d="M308.6 577.2c-.1 0-.1-.1-.1-.2s0-.2.1-.3l.3-.3c.1-.1.2-.1.3 0 .1 0 .1.1.1.2s0 .2-.1.3l-.3.3h-.3z"/>
    <path id="Layer8_255_1_STROKES_2_" class="st7" d="M308.6 580.1c-.2-.2-.4-.4-.4-.8s.1-.8.4-1.2c.2-.4.5-.7.9-.9s.6-.2.9-.1c.2.2.4.4.4.8s-.1.8-.4 1.2c-.2.4-.5.7-.9.9-.3.2-.7.2-.9.1z"/>
    <path id="Layer8_255_1_STROKES_1_" d="M309.3 579c-.1 0-.1-.1-.1-.2s0-.2.1-.3l.3-.3c.1-.1.2-.1.3 0 .1 0 .1.1.1.2s0 .2-.1.3l-.3.3c-.2.1-.3.1-.3 0z"/>
    <path id="Layer8_255_1_STROKES_10_" class="st6" d="M294.5 570.9c-.2-.2-.4-.4-.4-.8s.1-.8.4-1.2c.2-.4.5-.7.9-.9s.6-.2.9-.1c.2.2.4.4.4.8s-.1.8-.4 1.2c-.2.4-.5.7-.9.9-.3.2-.7.2-.9.1z"/>
    <path id="Layer8_255_1_STROKES_9_" d="M295.2 569.9c-.1 0-.1-.1-.1-.2s0-.2.1-.3l.3-.3c.1-.1.2-.1.3 0 .1 0 .1.1.1.2s0 .2-.1.3l-.3.3h-.3z"/>
    <path id="Layer8_255_1_STROKES_12_" class="st6" d="M295.6 572.5c-.2-.2-.4-.4-.4-.8s.1-.8.4-1.2.5-.7.9-.9.6-.2.9-.1.4.4.4.8-.1.8-.4 1.2-.5.7-.9.9c-.3.2-.6.2-.9.1z"/>
    <path id="Layer8_255_1_STROKES_11_" d="M296.3 571.4c-.1 0-.1-.1-.1-.2s0-.2.1-.3l.3-.3c.1-.1.2-.1.3 0s.1.1.1.2 0 .2-.1.3l-.3.3c-.1.1-.2.1-.3 0z"/>
    <path id="Layer8_255_1_STROKES_6_" class="st22" d="M311.1 575.4c-.2-.2-.4-.4-.4-.8s.1-.8.4-1.2c.2-.4.5-.7.9-.9s.6-.2.9-.1c.2.2.4.4.4.8s-.1.8-.4 1.2c-.2.4-.5.7-.9.9-.3.2-.6.2-.9.1z"/>
    <path id="Layer8_255_1_STROKES_3_" d="M311.8 574.4c-.1 0-.1-.1-.1-.2s0-.2.1-.3l.3-.3c.1-.1.2-.1.3 0 .1 0 .1.1.1.2s0 .2-.1.3l-.3.3h-.3z"/>
    <path id="Layer8_255_1_STROKES_14_" class="st6" d="M741.3 312.2c-.4-.3-.6-.6-.6-1.2s.2-1.3.6-1.9c.4-.6.8-1.1 1.4-1.4.6-.3 1-.4 1.4-.1s.6.6.6 1.3c0 .6-.2 1.2-.6 1.9s-.8 1.1-1.4 1.4c-.5.2-1 .2-1.4 0z"/>
    <path id="Layer8_255_1_STROKES_13_" d="M742.4 310.5c-.1-.1-.2-.2-.2-.4s.1-.4.2-.6c.1-.2.2-.3.4-.4s.3-.1.4 0c.1.1.2.2.2.4s-.1.4-.2.5c-.1.2-.2.3-.4.4-.2.2-.3.2-.4.1z"/>
    <path id="Layer8_255_1_STROKES_16_" class="st6" d="M742 313.1c-.4-.3-.6-.6-.6-1.2s.2-1.3.6-1.9c.4-.6.8-1.1 1.4-1.4.6-.3 1-.4 1.4-.1s.6.6.6 1.3c0 .6-.2 1.2-.6 1.9s-.8 1.1-1.4 1.4c-.5.2-1 .2-1.4 0z"/>
    <path id="Layer8_255_1_STROKES_15_" d="M743 311.5c-.1-.1-.2-.2-.2-.4s.1-.4.2-.6c.1-.2.2-.3.4-.4s.3-.1.4 0c.1.1.2.2.2.4s-.1.4-.2.5c-.1.2-.2.3-.4.4-.1.1-.2.1-.4.1z"/>
    <path id="Layer8_255_1_STROKES_18_" class="st7" d="M753.4 319.6c-.4-.3-.6-.6-.6-1.2s.2-1.3.6-1.9.8-1.1 1.4-1.4c.6-.3 1-.4 1.4-.1s.6.6.6 1.3c0 .6-.2 1.2-.6 1.9s-.8 1.1-1.4 1.4c-.5.2-1 .2-1.4 0z"/>
    <path id="Layer8_255_1_STROKES_17_" d="M754.4 318c-.1-.1-.2-.2-.2-.4s.1-.4.2-.6c.1-.2.2-.3.4-.4s.3-.1.4 0c.1.1.2.2.2.4s-.1.4-.2.5c-.1.2-.2.3-.4.4-.1.2-.3.2-.4.1z"/>
    <path id="Layer8_255_1_STROKES_20_" class="st7" d="M754.6 320.1c-.4-.3-.6-.6-.6-1.2s.2-1.3.6-1.9.8-1.1 1.4-1.4c.6-.3 1-.4 1.4-.1s.6.6.6 1.3c0 .6-.2 1.2-.6 1.9s-.8 1.1-1.4 1.4c-.5.2-1 .2-1.4 0z"/>
    <path id="Layer8_255_1_STROKES_19_" d="M755.7 318.4c-.1-.1-.2-.2-.2-.4s.1-.4.2-.6.2-.3.4-.4.3-.1.4 0c.1.1.2.2.2.4s-.1.4-.2.5c-.1.2-.2.3-.4.4-.1.2-.3.2-.4.1z"/>
    <path id="Layer8_255_1_STROKES_22_" class="st7" d="M816.5 268.8c-.5-.3-.7-.8-.7-1.6s.2-1.7.7-2.5 1.1-1.4 1.8-1.8 1.3-.5 1.8-.2.7.8.7 1.7c0 .7-.2 1.6-.7 2.4s-1.1 1.4-1.8 1.8c-.7.4-1.3.4-1.8.2z"/>
    <path id="Layer8_255_1_STROKES_21_" d="M817.8 266.7c-.1-.1-.2-.2-.2-.5 0-.2.1-.5.2-.7.1-.2.3-.4.5-.5s.4-.1.5 0 .2.2.2.5c0 .2-.1.5-.2.7s-.3.4-.5.5c-.1.1-.3.1-.5 0z"/>
    <path id="Layer8_255_1_STROKES_24_" class="st7" d="M818 269.1c-.5-.3-.7-.8-.7-1.6s.2-1.7.7-2.5 1.1-1.4 1.8-1.8 1.3-.5 1.8-.2.7.8.7 1.7c0 .7-.2 1.6-.7 2.4s-1.1 1.4-1.8 1.8-1.4.4-1.8.2z"/>
    <path id="Layer8_255_1_STROKES_23_" d="M819.3 267c-.1-.1-.2-.2-.2-.5 0-.2.1-.5.2-.7.1-.2.3-.4.5-.5s.4-.1.5 0 .2.2.2.5c0 .2-.1.5-.2.7-.1.2-.3.4-.5.5h-.5z"/>
    <path id="Layer8_255_1_STROKES_26_" class="st6" d="M803.4 261.3c-.5-.3-.7-.8-.7-1.6s.2-1.7.7-2.5 1.1-1.4 1.8-1.8c.7-.4 1.3-.5 1.8-.2s.7.8.7 1.7c0 .7-.2 1.6-.7 2.4s-1.1 1.4-1.8 1.8c-.6.5-1.3.5-1.8.2z"/>
    <path id="Layer8_255_1_STROKES_25_" d="M804.8 259.2c-.1-.1-.2-.2-.2-.5 0-.2.1-.5.2-.7.1-.2.3-.4.5-.5s.4-.1.5 0 .2.2.2.5c0 .2-.1.5-.2.7-.1.2-.3.4-.5.5-.2.1-.4.1-.5 0z"/>
    <path id="Layer8_255_1_STROKES_28_" class="st6" d="M805 262.1c-.5-.3-.7-.8-.7-1.6s.2-1.7.7-2.5 1.1-1.4 1.8-1.8 1.3-.5 1.8-.2.7.8.7 1.7c0 .7-.2 1.6-.7 2.4s-1.1 1.4-1.8 1.8-1.3.4-1.8.2z"/>
    <path id="Layer8_255_1_STROKES_27_" d="M806.3 260c-.1-.1-.2-.2-.2-.5 0-.2.1-.5.2-.7.1-.2.3-.4.5-.5s.4-.1.5 0 .2.2.2.5c0 .2-.1.5-.2.7-.1.2-.3.4-.5.5h-.5z"/>
    <path class="st23" d="M826.7 151.2l1.7 3.5-3.7 4.2-4.1-1-3.3-3.8 3.7-1.5.8-1 1.1.2 2.4-.9z"/>
    <path class="st24" d="M824.7 158.9l-4.1-1"/>
    <path class="st25" d="M828.2 155l-3.5 3.9-2.5-2.5-.8-.8-4.1-1.5 8-3.2 1.4.3zm-6.8.6l5.3-4.4m-9.4 2.9l3.3 3.8"/>
    <path class="st26" d="M828.2 153.5l-2-.6v.1c-.2 0-.4 0-.6.2-.4.2-.7.5-.9.9s-.4.8-.4 1.2.1.6.4.8c.1 0 .2.1.3.1l1.4.4c.2.1.6.1.9-.1.4-.2.7-.5.9-.9s.4-.8.4-1.2c-.1-.5-.2-.8-.4-.9z"/>
    <path id="Layer8_255_1_STROKES_47_" class="st27" d="M824.5 155.9c-.2-.2-.4-.4-.4-.8s.1-.8.4-1.2c.2-.4.5-.7.9-.9s.7-.2.9-.1"/>
    <path id="Layer8_255_1_STROKES_44_" class="st28" d="M826.4 156.5c-.2-.2-.4-.4-.4-.8s.1-.8.4-1.2c.2-.4.5-.7.9-.9s.7-.2.9-.1c.2.2.4.4.4.8s-.1.8-.4 1.2c-.2.4-.5.7-.9.9-.4.2-.7.2-.9.1z"/>
    <path id="Layer8_255_1_STROKES_43_" d="M827.1 155.4c-.1 0-.1-.1-.1-.2s0-.2.1-.4.2-.2.3-.3.2-.1.3 0c.1 0 .1.1.1.2s0 .2-.1.3l-.3.3c-.2.2-.3.2-.3.1z"/>
    <path class="st25" d="M821 152.6l.8-1m1.1.2l-1.1-.2"/>
    <path id="Layer8_255_1_STROKES_36_" class="st6" d="M840.2 137.1s-1.9 1.6-2 1.5c-.2-.4-.2-.8-.2-1.3 0-1.3.4-2.6 1.2-3.9.8-1.3 1.7-2.2 2.8-2.8.1-.1.2-.1.4-.2.1-.1.3 2.4.3 2.4l1.1.6s2-1.9 2.1-1.4c0 .3.1.6.1.9 0 1.2-.4 2.5-1.2 3.7-.7 1.2-1.6 2.1-2.7 2.7l-.1-2-1.8-.2z"/>
    <path id="Layer8_255_1_STROKES_35_" class="st29" d="M841.3 136.5c-.2-.1-.3-.4-.3-.7 0-.4.1-.7.3-1.1.2-.4.5-.6.8-.8s.6-.2.8-.1c.2.1.3.4.3.7s-.1.7-.3 1.1c-.2.4-.5.6-.8.8-.3.2-.6.2-.8.1z"/>
    <path id="Layer8_255_1_STROKES_40_" class="st6" d="M840.6 137.5c-.4-.3-.6-.6-.6-1.2s.2-1.3.6-1.9c.4-.6.8-1.1 1.4-1.4s1-.4 1.4-.1c.4.3.6.6.6 1.3 0 .6-.2 1.2-.6 1.9-.4.6-.8 1.1-1.4 1.4-.5.2-1 .2-1.4 0z"/>
    <path id="Layer8_255_1_STROKES_39_" d="M841.7 135.9c-.1-.1-.2-.2-.2-.4s.1-.4.2-.6c.1-.2.2-.3.4-.4.2-.1.3-.1.4 0 .1.1.2.2.2.4s-.1.4-.2.5c-.1.2-.2.3-.4.4-.1.2-.3.2-.4.1z"/>
    <path id="Layer8_255_1_STROKES_51_" class="st7" d="M844.1 138.6s-1.9 1.6-2 1.5c-.2-.4-.2-.8-.2-1.3 0-1.3.4-2.6 1.2-3.9.8-1.3 1.7-2.2 2.8-2.8.1-.1.2-.1.4-.2.1-.1.3 2.4.3 2.4l1.1.6s2-1.9 2.1-1.4c0 .3.1.6.1.9 0 1.2-.4 2.5-1.2 3.7-.7 1.2-1.6 2.1-2.7 2.7l-.1-2-1.8-.2z"/>
    <path id="Layer8_255_1_STROKES_50_" d="M845.2 138c-.2-.1-.3-.4-.3-.7 0-.4.1-.7.3-1.1.2-.4.5-.6.8-.8s.6-.2.8-.1c.2.1.3.4.3.7s-.1.7-.3 1.1c-.2.4-.5.6-.8.8-.3.2-.6.2-.8.1z"/>
    <path id="Layer8_255_1_STROKES_49_" class="st7" d="M844.5 139c-.4-.3-.6-.6-.6-1.2s.2-1.3.6-1.9c.4-.6.8-1.1 1.4-1.4s1-.4 1.4-.1c.4.3.6.6.6 1.3 0 .6-.2 1.2-.6 1.9-.4.6-.8 1.1-1.4 1.4-.5.2-1 .2-1.4 0z"/>
    <path id="Layer8_255_1_STROKES_48_" d="M845.6 137.4c-.1-.1-.2-.2-.2-.4s.1-.4.2-.6c.1-.2.2-.3.4-.4.2-.1.3-.1.4 0 .1.1.2.2.2.4s-.1.4-.2.5c-.1.2-.2.3-.4.4-.1.2-.3.2-.4.1z"/>
    <path class="st1" d="M843.2 134.6l13.2-22.3.6.3-13.2 22.3z"/>
    <path class="st4" d="M839.6 132.6l13.2-22.1.5.3-13.1 22z"/>
    <ellipse class="st1" cx="857.2" cy="112" rx="1.4" ry="1.4"/>
    <ellipse class="st1" cx="889.3" cy="130.1" rx="1.4" ry="1.4"/>
    <ellipse class="st1" cx="897.1" cy="134.4" rx="1.4" ry="1.4"/>
    <ellipse class="st1" cx="905" cy="139.1" rx="1.4" ry="1.4"/>
    <ellipse class="st4" cx="853.2" cy="109.7" rx="1.4" ry="1.4"/>
    <ellipse class="st4" cx="820" cy="89.9" rx="1.4" ry="1.4"/>
    <ellipse class="st4" cx="812" cy="85" rx="1.4" ry="1.4"/>
    <ellipse class="st4" cx="804" cy="80.6" rx="1.4" ry="1.4"/>
    <text transform="translate(615.663 98.706)" class="st30 st31">
      Elevator PCUs
    </text>
    <text transform="translate(909.965 70.215)" class="st30 st31">
      Elevators
    </text>
    <text transform="translate(919.497 206.62)" class="st30 st31">
      Elevator PCUs
    </text>
    <text transform="translate(915.729 252.67)" class="st30 st31">
      Pitch Feel and Trim Unit
    </text>
    <text transform="translate(571.77 145.153)" class="st30 st31">
      Elevator Aft Quadrant
    </text>
    <text transform="translate(472.119 195.918)" class="st30 st31">
      Elevator Autopilot Servo
    </text>
    <text transform="translate(487.083 556.501)" class="st30 st31">
      Stick Pusher
    </text>
    <text transform="translate(439.31 601.175)" class="st30 st31">
      Elevator Forward Quadrant
    </text>
    <path id="Layer8_0_MEMBER_82_1_STROKES" class="st16" d="M827.8 165.9l14.9-30.3"/>
    <path id="Layer8_0_MEMBER_478_1_STROKES" class="st16" d="M828.8 166.8l19.8-28.3"/>
    <path id="Layer8_255_1_STROKES_45_" d="M843.4 135.5c-.1-.1-.2-.2-.2-.4s.1-.4.2-.6c.1-.2.2-.3.4-.4.2-.1.3-.1.4 0 .1.1.2.2.2.4s-.1.4-.2.5c-.1.2-.2.3-.4.4-.2.1-.3.1-.4.1z"/>
    <path id="Layer8_255_1_STROKES_46_" d="M839.3 133.5c-.1-.1-.2-.2-.2-.4s.1-.4.2-.6c.1-.2.2-.3.4-.4.2-.1.3-.1.4 0 .1.1.2.2.2.4s-.1.4-.2.5c-.1.2-.2.3-.4.4-.1.1-.2.1-.4.1z"/>
    <path class="st32" d="M1048 213.5H917.4c-2.5 0-4.5-2-4.5-4.5v-18c0-2.5 2-4.5 4.5-4.5h130.5c2.5 0 4.5 2 4.5 4.5v18c0 2.5-2 4.5-4.4 4.5zm74.8 45.5H913.2c-2.5 0-4.5-2-4.5-4.5v-18c0-2.5 2-4.5 4.5-4.5h209.5c2.5 0 4.5 2 4.5 4.5v18c0 2.5-2 4.5-4.4 4.5zM599.6 563.5H486c-2.5 0-4.5-2-4.5-4.5v-18c0-2.5 2-4.5 4.5-4.5h113.5c2.5 0 4.5 2 4.5 4.5v18c0 2.5-2 4.5-4.4 4.5zm74.4 44.1H437.4c-2.5 0-4.5-2-4.5-4.5v-18c0-2.5 2-4.5 4.5-4.5h236.5c2.5 0 4.5 2 4.5 4.5v18c0 2.5-2 4.5-4.4 4.5zm4.5-404.3H467.9c-2.5 0-4.5-2-4.5-4.5v-18c0-2.5 2-4.5 4.5-4.5h210.5c2.5 0 4.5 2 4.5 4.5v18c0 2.5-2 4.5-4.4 4.5zm65.2-98H610.1c-2.5 0-4.5-2-4.5-4.5v-18c0-2.5 2-4.5 4.5-4.5h133.5c2.5 0 4.5 2 4.5 4.5v18c0 2.5-2 4.5-4.4 4.5zm249.5-27.9h-85.6c-2.5 0-4.5-2-4.5-4.5v-18c0-2.5 2-4.5 4.5-4.5h85.5c2.5 0 4.5 2 4.5 4.5v18c0 2.5-2 4.5-4.4 4.5zM757 151.9H568.4c-2.5 0-4.5-2-4.5-4.5v-18c0-2.5 2-4.5 4.5-4.5h188.5c2.5 0 4.5 2 4.5 4.5v18c0 2.5-2 4.5-4.4 4.5zm87.8 7.8l63.9 85.8"/>
    <ellipse transform="rotate(-51.822 292.205 577.062)" class="st33" cx="292.2" cy="577.1" rx="3.3" ry="2.4"/>
    <ellipse transform="rotate(-51.822 292.382 577.041)" class="st34" cx="292.4" cy="577" rx=".8" ry=".6"/>
    <ellipse transform="rotate(-52.179 302.15 581.167)" class="st35" cx="302.2" cy="581.2" rx="3.3" ry="2.4"/>
    <ellipse transform="rotate(-52.179 302.267 581.225)" class="st34" cx="302.3" cy="581.2" rx=".8" ry=".6"/>
    <ellipse transform="rotate(-52.179 302.16 581.224)" class="st36" cx="302.2" cy="581.2" rx="2.1" ry="1.6"/>
    <ellipse transform="rotate(-52.179 302.256 581.233)" class="st34" cx="302.3" cy="581.2" rx=".5" ry=".4"/>
    <path id="Layer8_0_MEMBER_94_1_STROKES" class="st37" d="M312.8 574.7l-9.8 7.9"/>
    <path id="Layer8_0_MEMBER_95_1_STROKES" class="st18" d="M302.1 579.5l9.7-6.8"/>
    <path class="st38" d="M303 565.4c-.2-.1-.4 0-.4.3l.1.8-2.1-1.1-2.4-1 .3-1.2c-.1-.3-.2-.5-.5-.4-.3-.1-.6 0-.8.2l.1 1.3 2.2 2.5-.1 10-11.9-5.3.1-10.2 2.3.3.6-.3v-1.5c-.2-.2-.4-.3-.7-.2-.2-.1-.4 0-.4.3l.1.8-2.1-1.1-2.4-1 .3-1.2c-.1-.3-.2-.5-.5-.4-.3-.1-.6 0-.8.2l.1 1.3 2.2 2.5-.1 11.1 1.1.5.5.2-1.2 4.9.5-.1.1-.1 2.8 1.1v-.6l-2.7-.8 1.7-3.8 9.6 4.4-1.3 5.1.4.2.1-.2 1.8.6v-.2l-1.7-.6 1.9-4.4.4.2.2-11.3 2.3.3.6-.3v-1.5c.2-.2 0-.3-.3-.3z"/>
    <path id="Layer8_255_1_STROKES_7_" class="st39" d="M286.9 578.1c-.1-.1-.1-.2-.1-.3 0-.2 0-.3.1-.5s.2-.3.4-.4.3-.1.4 0 .1.2.1.3 0 .3-.1.5-.2.3-.4.4h-.4z"/>
    <path id="Layer8_255_1_STROKES_37_" class="st39" d="M297.9 583.5c-.1-.1-.1-.2-.1-.3 0-.2 0-.3.1-.5s.2-.3.4-.4c.1-.1.3-.1.4 0s.1.2.1.3 0 .3-.1.5-.2.3-.4.4c-.2.1-.3.1-.4 0z"/>
  </g>
</svg>
