<?xml version="1.0" encoding="iso-8859-1"?>
<!-- Generator: Adobe Illustrator 25.0.0, SVG Export Plug-In . SVG Version: 6.00 Build 0)  -->
<svg version="1.1" id="elevator" xmlns="http://www.w3.org/2000/svg" xmlns:xlink="http://www.w3.org/1999/xlink" x="0px" y="0px"
	 width="874px" height="637.8px" viewBox="0 0 874 637.8" style="enable-background:new 0 0 874 637.8;" xml:space="preserve">
<g id="clp-pitch-feel-trim-frame">
	<path id="clp-pitch-feel-trim-frame-hl" style="fill:none;" d="M866.8,259H657.2c-2.5,0-4.5-2-4.5-4.5v-18c0-2.5,2-4.5,4.5-4.5
		h209.5c2.5,0,4.5,2,4.5,4.5v18C871.2,257,869.2,259,866.8,259L866.8,259z"/>
</g>
<g id="clp-stick-pusher">
	<path id="clp-stick-pusher-hl" style="fill:none;" d="M343.6,563.5H230c-2.5,0-4.5-2-4.5-4.5v-18c0-2.5,2-4.5,4.5-4.5h113.5
		c2.5,0,4.5,2,4.5,4.5v18C348,561.5,346,563.5,343.6,563.5z"/>
</g>
<g id="clp-elev-fwd-quad">
	<path id="clp-elev-fwd-quad-hl" style="fill:none;" d="M418,607.6H181.4c-2.5,0-4.5-2-4.5-4.5v-18c0-2.5,2-4.5,4.5-4.5h236.5
		c2.5,0,4.5,2,4.5,4.5v18C422.4,605.6,420.4,607.6,418,607.6z"/>
</g>
<g id="clp-elev-autop-servo">
	<path id="clp-elev-autop-servo-hl" style="fill:none;" d="M422.5,203.3H211.9c-2.5,0-4.5-2-4.5-4.5v-18c0-2.5,2-4.5,4.5-4.5h210.5
		c2.5,0,4.5,2,4.5,4.5v18C426.9,201.3,424.9,203.3,422.5,203.3z"/>
</g>
<g id="clp-elev-pcu">
	<path id="clp-elev-pcu-hl" style="fill:none;" d="M792,213.5H661.4c-2.5,0-4.5-2-4.5-4.5v-18c0-2.5,2-4.5,4.5-4.5h130.5
		c2.5,0,4.5,2,4.5,4.5v18C796.4,211.5,794.4,213.5,792,213.5z M487.7,105.3H354.1c-2.5,0-4.5-2-4.5-4.5v-18c0-2.5,2-4.5,4.5-4.5
		h133.5c2.5,0,4.5,2,4.5,4.5v18C492.1,103.3,490.1,105.3,487.7,105.3L487.7,105.3z"/>
</g>
<g id="clp-elevator">
	<path id="clp-elevator-hl" style="fill:none;" d="M737.2,77.4h-85.6c-2.5,0-4.5-2-4.5-4.5v-18c0-2.5,2-4.5,4.5-4.5h85.5
		c2.5,0,4.5,2,4.5,4.5v18C741.6,75.4,739.6,77.4,737.2,77.4z"/>
</g>
<g id="clp-elev-aft-quad">
	<path id="clp-elev-aft-quad-hl" style="fill:none;" d="M501,151.9H312.4c-2.5,0-4.5-2-4.5-4.5v-18c0-2.5,2-4.5,4.5-4.5h188.5
		c2.5,0,4.5,2,4.5,4.5v18C505.4,149.9,503.4,151.9,501,151.9z"/>
</g>
<g id="clp-system">
	<path style="fill:#00A0C6;" d="M54.4,571.5c0,0-0.3-0.2-0.5-0.2c-0.2-0.1-0.4-0.1-0.7,0.1c-0.3,0.1-0.5,0.3-0.7,0.6
		s-0.3,0.6-0.3,0.8s0.1,0.4,0.2,0.5l2.6,1.4l1.9-1.9L54.4,571.5L54.4,571.5z"/>
	<path style="fill:#B1B1B1;stroke:#868686;stroke-width:0.2;stroke-miterlimit:10;" d="M590.5,161.5H590l-0.2-0.1l-0.1,0.2l-0.1,0.2
		h0.1l-0.4,0.5l-0.1,0.5L589,163l-0.1,0.1h-0.3v0.2l-0.1,0.1l-0.2,0.1l-0.2,0.7l-0.1,0.1h-0.8l-0.1,0.1l-1.3,0.2l-0.2-0.1l-0.1-0.1
		v-0.2l-0.1-0.1l-0.1-0.1H585l-0.4-0.2l-0.2,0.1l-0.2-0.1l-0.1-0.1l-0.7-0.4l-0.1-0.2l-0.1-0.2v-0.1l-0.2-0.1l-0.3,0.1l-0.3-0.2H582
		l-0.1-0.2l-0.2-0.1v-0.1h-0.2l-0.2-0.2l-0.1-0.1l0.2-0.3l0.1-0.4l-0.2-0.1l-0.1-0.1l-1-0.1l-0.1-0.1v-0.3l0.1-0.5l0.1-0.1l-1.3-0.8
		l1-3.8l1-0.1h0.6l0.3-0.9l0.1-0.3l-0.2-0.1l-0.1-0.1v-0.2l0.1-0.2l0.2-0.1h0.4L582,153l-0.2,0.1h-0.2l-0.1-0.1l-0.1-0.2l-0.1-0.1
		l0.1-0.2l0.1-0.2l0.2-0.1l0.8-1.1l0.1-0.2l0.3-0.1l1.4-0.4l0.2-0.2h0.3l0.1-0.1l0.1-0.2l0.1,0.1l0.1,0.1l-0.1,0.2l1.9-0.3l0.1-0.1
		h0.6l-0.1,0.3h0.1l0.4-0.1l0.3,0.2v0.2l1.2,0.7l0.3-0.1v0.1l-0.1,0.3h0.1l0.5-0.1l0.2,0.1v0.3l2.2,1.2L590.5,161.5z"/>
	<path style="fill:none;stroke:#868686;stroke-width:0.2;stroke-miterlimit:10;" d="M587.1,151.4l0.1-0.2 M587.3,151.5l0.2-0.1
		 M590.2,151.7l0.3-0.2 M588,150.4l0.2-0.2 M588.3,150.2L588.3,150.2 M583.4,153.8h0.2 M585.7,155.1h1.5 M583.2,153.8h0.2
		 M585.4,155.1h0.3 M584.2,152.5l0.3,0.2 M586.4,153.8l0.9,0.5 M583,153.7l0.1,0.1 M585.2,155l0.1,0.1 M588.2,150.2L588.2,150.2
		 M590.5,152L590.5,152 M590.6,152v-0.1 M588.3,150.7C588.3,150.7,588.4,150.6,588.3,150.7 M588.3,150.2l0.1,0.1 M590.2,152l0.1-0.1
		 M588,150.7l0.1-0.1 M590.6,151.9v-0.1 M590.3,152.1l0.2-0.1 M584,154.7l0.2-0.1 M581.8,153.4l0.2-0.1 M588.1,150.8l0.2-0.1
		 M590.5,151.6L590.5,151.6 M590.3,151.7L590.3,151.7 M588.3,150.3L588.3,150.3 M588.1,150.4L588.1,150.4 M588.3,150.6L588.3,150.6
		 M590.2,151.7L590.2,151.7 M587.6,154.3l0.2,0.1 M588,150.4L588,150.4 M590.2,152v0.1 M588,150.7v0.1 M584.1,150.7l0.2-0.1
		 M586.3,152l0.3-0.1 M584.7,151.1l0.3-0.1 M586.9,152.3h0.3 M584.1,150.7l0.6,0.4 M586.3,152l0.6,0.3 M586.3,151.7l0.1,0.1
		 M585.5,151.8l0.1,0.1 M585.4,151.9l0.1-0.1 M587.8,153.1v0.1 M587.7,153.1L587.7,153.1 M585.3,151.9L585.3,151.9 M584.3,152.3
		l0.9-0.3 M586.6,153.6l1.1-0.5 M582.4,153.3L582.4,153.3 M584.6,154.6l0.3,0.2 M582.3,153.3l0.4,0.2 M584.6,154.9l0.3-0.1
		 M582.4,153.6l0.3-0.1 M584.6,154.9L584.6,154.9 M582.4,153.6L582.4,153.6 M584.2,154.6l0.1,0.1 M582,153.3l0.1,0.1 M583.4,153.2
		h0.2 M585.6,154.5l0.3-0.1 M583.6,153.2l0.5-0.1 M585.9,154.4h1.5 M584.1,154.7l0.1-0.1 M581.9,153.4l0.1-0.1 M584.5,154.8l0.1-0.2
		 M582.3,153.5v-0.2 M584.2,154.7L584.2,154.7 M582,153.4L582,153.4 M582.3,153.6L582.3,153.6 M585.1,155.3l0.1-0.2 M582.9,154.1
		v-0.3 M584.7,155.5l0.4-0.2 M582.5,154.3l0.4-0.2 M584.7,155v-0.1 M582.4,153.7l0.1-0.1 M584,154.8v-0.1 M581.8,153.5v-0.1
		 M588.4,150.3v-0.1 M585.1,155.2L585.1,155.2 M582.9,153.9L582.9,153.9 M590.5,151.5L590.5,151.5 M588.2,150.2L588.2,150.2
		 M585.2,155.2l0.2-0.1 M583,153.9l0.2-0.1 M590.6,151.5v0.1 M584,154.8v-0.1 M581.8,153.5v-0.1 M584,155.2l0.1,0.1 M581.8,153.9
		l0.1,0.1 M584.2,152.5c0-0.1,0.1-0.1,0.2-0.2 M586.4,153.7c0-0.1,0.1-0.1,0.2-0.2 M582.1,152.9l0.1-0.2 M584.3,154.2l0.1-0.2
		 M582.2,152.7l0.6,0.4 M584.4,154l0.7,0.4 M583.8,153.1l0.4-0.6 M586,154.3l0.4-0.6 M581.5,152.4l0.7-0.9 M583.8,153.7l0.6-0.9
		 M581.7,152.5l0.6-0.9 M583.9,153.8l0.6-0.9 M582.3,151.6l1.2,0.6 M584.7,152.9l1,0.6 M584.5,152.9L584.5,152.9 M582.8,153.2l0.7-1
		 M585,154.4l0.7-0.9 M592.1,152.9l0.3,0.2 M591.5,153.6h0.4 M591.6,153l0.5-0.1 M587.6,154.2l0.2-0.1 M587.3,154h0.3 M588,154.1
		l2.4-0.4 M588.9,152.9L588.9,152.9 M589.1,152.9l0.9,0.2 M590.1,153.1l0.3,0.2 M590.5,153.4v0.3 M587.6,154l0.4,0.1 M586.4,161.7
		l3.7-0.6 M586.1,161.9l0.4-0.1 M586,160.8v-0.1 M590.5,160.8l0.2-2.8 M586,160.7l0.6-2.1 M585.9,160.9v-0.1 M590.5,161.5v-0.3
		 M588.9,161.9c0.4-0.1,0.8,0.1,0.8-0.5 M588.9,161.9l0.1-0.4 M590.1,161.1c0-0.2,0.1-0.4,0.3-0.3 M589.6,160.5l0.4-0.1
		 M589.6,160.5l0.6,0.3 M590,160.4l0.2,0.1 M590.1,160.6l0.4,0.2 M589.5,160.8l0.1-0.3 M589.5,160.8l0.3,0.1 M589.8,160.9l0.3,0.2
		 M589.7,161.4l0.3,0.1 M588.8,159.7l0.3,0.2 M589,160.1l0.1-0.2 M589,160.2l0.6,0.4 M588.3,160.1l0.3,0.1 M590.1,160.6l0.3-2.8
		 M586.2,160.8l4.5-4.9 M586.4,161.4l4.2-4.7 M590.7,158l0.1-1.3 M589.3,162.4l0.4-0.6 M588.1,159.6c0,0,0.3,0,0.3-0.1 M588,159.9
		l0.1-0.3 M588.7,159.9h0.4 M588.3,159.5c0.1,0,0.4,0.2,0.5,0.2 M588.6,160.2l0.1-0.3 M588,159.9l0.3,0.2 M588.8,162.3l0.1-0.4
		 M588.8,162.4h0.5 M588.8,161.8v-0.3 M586.4,153.8v-0.1 M586.3,155.7l1.1-0.6 M587.8,161.8l0.9-0.1 M587.6,161.7l0.2,0.1l0.1-0.2
		 M586.1,160.3l4.2-4.6 M587.4,155.9l0.5-0.6 M587.1,156.7l1.3-1.4 M588.9,156.9l0.1-1.2 M589.7,156.4l0.2-0.9 M585.7,160.7l0.7-2.3
		 M586.4,158.4l0.8-2.8 M584.9,162.4l0.2-0.6 M584.9,162.4l1.2-0.1 M586.1,162.3c0-0.1,0.1-0.3,0.1-0.4 M586.3,156l0.2,0.1
		 M590.4,155.2l0.3-1.2 M588,155.1l2.3,0.2 M591.6,154.7l0.6-0.8 M592.2,153.9v-0.1 M589,153.4l0.8,0.2 M590,153.7l0.1,0.1
		 M588.6,163l0.1,0.1 M585.5,162.2L585.5,162.2 M587.4,154.4l0.3-0.1 M587.3,154.3h0.2 M587.2,155.1l0.2-0.7 M585.8,155.1l0.6,0.3
		 M585.4,161.2l1.5-5.3 M582.7,162.1c0,0.1,2.1,0.3,2.2,0.3l0.2-0.7 M582.8,162.2l0.2-0.9 M585.1,161.8l1.6-5.8 M588,153.4l0.1,0.1
		 M583.6,157.4l1.1-0.1 M579,159.1l1-3.8 M583.4,163.2l0.1-0.3 M581.2,161.9l0.1-0.3 M583.5,162.9L583.5,162.9 M581.3,161.6
		L581.3,161.6 M583.4,163.2L583.4,163.2 M583.8,162.9L583.8,162.9 M583.7,163.2l0.1-0.4 M581.4,161.9l0.1-0.4 M583.5,163.3v-0.2
		 M583.5,163.3v0.1 M581.3,162v-0.2 M581.3,162v0.1 M584.5,163.4l0.4-1 M582.2,162.2l0.1-0.2 M584.1,163.4l0.3-1 M581.8,162.2
		l0.2-0.5 M583.5,163.1l0.2-0.8 M581.3,161.8l0.2-0.6 M584.2,163l0.2-0.6 M583.5,163.4h0.2 M581.3,162.1l0.2,0.1 M584.3,163.1
		L584.3,163.1 M581.2,161.9l0.1,0.1 M583.4,163.2l0.1,0.1 M583.9,163.6l0.2,0.1 M581.7,162.3l0.2,0.1 M584.2,163.1L584.2,163.1
		 M584.2,163.1V163 M582,161.8v0.1 M582,161.8v-0.1 M582,161.9L582,161.9 M583.9,163.5v0.1 M583.9,163.5v-0.1 M581.7,162.2v0.1
		 M581.7,162.2v-0.1 M583.8,162.8l0.2,0.2 M581.5,161.5l0.3,0.2 M584.2,163l0.1,0.1 M584.3,163.1V163 M584.3,163L584.3,163
		 M583.9,163.4l0.1-0.4 M581.7,162.1l0.1-0.4 M587.3,150l0.4-0.1 M587.7,150.2l0.4-0.1 M587.3,150l0.3,0.2 M586.5,150.1l0.6-0.1
		 M585,150.4l1.3-0.3 M587,149.9h0.6 M587.6,150.3c0,0.1,0.6-0.1,0.6-0.1 M586.3,150.4l1.2-0.2 M585.2,150.6l0.9-0.1 M587.6,151
		c0,0.1,0.4-0.2,0.4-0.2 M586.4,151.8l0.3-0.2 M586.9,151.4l0.6-0.4 M584.5,152.5l0.1-0.3 M584.3,150.5l0.3,0.3 M584.3,150.5
		l0.1,0.3 M584.6,150.8l0.2,0.2 M584.3,150.5c0.3-0.4,0.3-0.6,0.7-0.2 M584.6,150.8l0.4-0.5 M585,150.3l0.2,0.3 M587,149.9v0.1
		 M587.6,150.3l0.1,0.8 M589.6,151.3l0.3-0.1 M589.9,151.5l0.5-0.1 M589.6,151.3l0.2,0.2 M587.2,151.6l2.1-0.3 M589.2,151.2l0.6-0.1
		 M589.8,151.6c0,0.1,0.6-0.1,0.6-0.1 M587.5,151.9l2.2-0.4 M589.8,152.3c0,0.1,0.4-0.2,0.4-0.2 M588.6,153.1l1.1-0.8 M586.9,154
		c0.1-0.1,1-0.5,1.1-0.6 M586.7,153.8l0.1-0.3 M586.5,151.8l0.4,0.2 M586.5,151.8l0.2,0.2 M586.9,152l0.1,0.3 M586.5,151.8
		c0.3-0.4,0.3-0.5,0.7-0.2 M586.9,152l0.3-0.4 M587.2,151.6l0.2,0.2 M589.2,151.2v0.1 M589.9,151.6v0.7 M585,150.4l0.1-0.2
		 M584.8,150.3l0.1-0.2 M584.9,150.1l0.1-0.2 M585.1,150.3l0.1-0.2 M587.2,151.6l0.1-0.1 M587.1,151.5l0.1-0.1 M583.7,163.4l0.2,0.1
		 M585,164h0.2 M588,164.3v-0.1 M588,164.2L588,164.2 M588.6,161.9v0.1 M588.6,162.1V162 M585.8,162.5v-0.2 M585.4,163.9l0.1-0.5
		 M585.4,163.3l0.1,0.1 M586.9,162.4v-0.1 M586.9,162.3l0.1-0.1 M587.7,150C587.7,150,587.7,149.9,587.7,150 M589.9,151.3
		C589.9,151.2,589.9,151.2,589.9,151.3 M589.9,151.3v-0.1 M583,162.7l0.1-0.5 M582.4,162.6l0.3,0.2l0.2-0.6 M585.2,164l0.2-0.6
		 M585,164l0.2-0.7 M583.2,162.7v-0.1 M583.2,162.6l0.1-0.4 M583,162.7l0.2,0.1 M588.2,150.2L588.2,150.2 M588.6,163.3v-0.4
		 M588.6,162.9l0.2-0.4 M588.4,162.9h0.2 M585.4,164v-0.1 M585.4,164.1l0.1-0.1 M588.3,161.7l0.3,0.2 M587,162.2l0.1-0.5
		 M586.6,163.6l0.1-0.3 M588.1,164.2l0.5-2.1 M588.3,163.5l0.2-0.1 M585.2,164h0.2 M585.6,162.6l1.5-0.2 M585.6,163.5l1.5-0.2
		 M590.4,151.4l0.1,0.1 M584.3,162.9l0.1,0.1 M584.3,162.9l0.2-0.5 M580.1,160.5l0.1-0.4 M580.2,160.9l1,0.1 M581.6,161.3l0.8,0.8
		 M583.7,161l0.1,0.1 M581.4,161.1l1.9,0.3 M588.6,151.1l0.5,0.3 M588.6,151l0.3-0.1 M589.4,152.5h0.2 M589.6,152.5l0.3-0.1
		 M587.4,151.2h0.2 M582.3,153.3l0.1-0.1 M587.6,151.4l0.2,0.1 M587.9,150.9l0.9,0.5 M586.6,151.6L586.6,151.6 M588.1,159.4l0.2,0.1
		 M587.8,159.8L587.8,159.8 M586.8,158.8v-0.2 M586.5,158.9h0.2 M588,158.2l0.2-1.7 M588.5,156.7l0.1-0.8 M591.9,153.3l0.1-0.2
		 M591.5,152.7l0.3-0.1 M590.8,152.3l0.5,0.3 M590.8,152.3l0.4-0.1 M591.4,152.3l0.4,0.2 M591.5,157.9l1.3-4.7 M590.6,155.6
		L590.6,155.6 M586.6,158.6l0.9-3.1 M587.8,155.2l2.8,0.4 M586.5,156.1l0.4-0.2 M587.6,155.3L587.6,155.3 M587.7,155.3l0.1-0.1
		 M586.9,155.7l0.4-0.2 M586.9,155.9v-0.1 M586.5,156.1l0.1-0.2 M591.8,155v0.1 M591.9,154.9l0.2-0.4 M592.2,155l0.1-0.4
		 M591.9,155.2L591.9,155.2 M591.9,155.3L591.9,155.3 M591.8,155.6L591.8,155.6 M592.1,155.5v-0.1 M588.4,154.3l2.6-0.3
		 M590.7,155.4l0.4-1.3 M590.8,155.5h0.2 M592.5,154v-0.1 M591.2,153.9l1.2-0.1 M584.6,154.6v-0.1 M592.8,153.2V153 M592.2,153.7
		l0.2-0.6 M592.4,153.1l0.4-0.1 M590.6,151.8L590.6,151.8 M589.8,152.7l0.1-0.4 M590.1,152.2l1.5,0.8 M590.7,151.8l2.1,1.2"/>
	<path style="fill:none;stroke:#868686;stroke-width:0.2;stroke-miterlimit:10;" d="M589.8,152.7l1.6,0.9 M587.6,151.4l0.1-0.4
		 M591.4,153.6l0.2-0.6 M588,154.4C588,154.3,588.1,154.3,588,154.4 M584.4,154.6l0.2-0.1 M588.9,150.9c0.2,0,0.4,0.2,0.6,0.2
		 M591.4,153.6h0.2 M591.9,153.6l0.3,0.2 M588.4,150.5l1.2,0.7 M586.2,155.7l0.4-0.6 M590.4,157.8l0.1-0.9 M588.2,156.5v-0.2
		 M586.3,155.7l0.3,0.2 M584.1,154.5l0.2,0.1 M588.6,160.2h0.4 M586.7,158.9l0.4,0.2 M588.8,159.7l0.4-1.4 M586.6,158.5l0.2,0.1
		 M590,161.5l0.5-0.1 M587.9,159.8l0.1-0.2 M590,161.5l0.1-0.2 M588.1,159.5h0.2 M588.3,159.5v-0.2 M588.4,157.8l0.1-1.1
		 M586.7,158.9c0,0,0-0.1,0.1-0.1 M587.8,159.9h0.2 M586.1,155.9l0.1-0.2 M583.9,154.6l0.1-0.2 M586.8,157.8l2-2.2 M588.6,156.7
		l0.1-0.9 M586.3,155.4v-0.3 M588.1,159.6l0.6,0.4 M586.6,158.6h0.2 M587.4,154.3l0.1-0.1 M584.1,154.5l0.1-0.2 M587.8,154.3v0.1
		 M584.1,154.5l0.2-0.1 M590.4,152l0.1-0.1 M590.6,151.9l0.1-0.2 M590.6,151.6l0.1,0.1 M590.3,151.8v-0.1 M590.3,151.8l0.1,0.1
		 M588.2,150.7l0.1-0.1 M588.3,150.6l0.1-0.2 M588.1,150.6v-0.1 M590.6,152l0.1,0.1 M582.8,155.8l0.7,0.4 M582.2,155.4l0.6,0.3
		 M584.3,156.7l0.4,0.2 M583.6,161.1c0.1,0,0.2,0,0.2-0.1 M582.6,161.2l1.1-3.8 M581.4,160.6v0.1 M584.2,155.2v0.1 M582.1,154v0.1
		 M583.7,161.3l0.1-0.2 M584.3,155.3v0.1 M581.9,153.9v0.1 M583.4,161.3l0.1-0.2 M583.4,161.4C583.4,161.4,583.4,161.3,583.4,161.4
		 M581.4,161.1l0.2,0.1 M583.4,161.3h0.2 M583,161.3v0.1 M581.4,160.7C581.5,160.8,581.5,160.7,581.4,160.7 M582.6,162l0.1-0.4
		 M582.8,162.1c0,0,0.1-0.5,0.2-0.5 M582.6,161.2l1-0.1 M584.1,157.3l0.1-0.4 M582.2,156.2l0.1-0.4 M580.2,159.9l2.4,1.4 M579,159.1
		l1.2,0.7 M584,156.8l0.2,0.1 M580.2,159.9l1,1.1 M582.1,155.7l0.2,0.1 M583.6,157.3l0.1-0.4 M582.3,156.6l1.3,0.8 M580,155.3
		l2.2,1.3 M581.7,156.2l0.1-0.4 M583.6,157.3l0.5-0.1 M581.7,156.2l0.5-0.1 M583.7,157l0.5-0.1 M581.8,155.9l0.5-0.1 M583,157
		l0.1-0.4 M580,155.3l1-0.1 M581.1,155.9l0.1-0.4 M583,157l0.6,0.3 M581.1,155.9l0.6,0.3 M583.1,156.7l0.6,0.3 M584.5,154.8l0.2,0.1
		 M582.3,153.5l0.2,0.1 M581.2,155.6l0.6,0.3 M583.1,156.7h0.3 M583.8,160.9l1.1-3.8 M581.2,155.6h0.3 M583.9,156.9l0.2-0.6
		 M583.9,156.1l0.2-0.6 M581.5,155.5l0.4-1.3 M582.1,155.8l0.2-0.6 M584.2,156.9l0.4-1.3 M582.1,155l0.2-0.7 M581.5,155.6l0.2-0.6
		 M583.4,156.7l0.2-0.6 M582.7,162.8h0.3 M581.5,162.2l0.2,0.1 M582.2,162.1h0.2 M582.1,162.6l0.5-0.1 M583.5,162.4h0.2
		 M581.9,162.4c0,0.1,0.1,0.1,0.1,0.2 M584.7,162.9l0.9-0.1 M585.8,163.7l1.1-0.1 M584.5,163.4l1.2-0.2 M584.4,163.9l0.5-0.1
		 M585.8,164.6l1.3-0.2 M584.6,163.8l0.3,0.2 M587.4,164.3l0.5-0.1 M587.2,164.4C587.2,164.3,587.2,164.3,587.2,164.4 M583.6,152.3
		l0.2-0.4 M585.8,153.6l0.3-0.4 M582.2,151.5l0.3-0.4 M584.4,152.8l0.3-0.4 M584.2,154.6l0.4-0.1 M582,153.3h0.4 M584.3,154.7
		l0.3-0.1 M582.1,153.4l0.2-0.1 M584.3,151.5l1.3-0.6 M584.7,154.9h0.2 M582.5,153.6h0.2 M586.5,152.8l1.4-0.6 M585,151l0.4-0.2
		 M587.5,154.3L587.5,154.3 M587.2,152.3l0.5-0.2 M583,150.8l1.4-0.4 M585.3,152l1.3-0.3 M585.4,150.8h0.3 M587.8,152.1L587.8,152.1
		 M587.9,152.1l0.1,0.1 M587.7,152.1L587.7,152.1 M583.3,153.1h0.2 M585.5,154.4h0.2 M586,151l0.3,0.7 M588.2,152.3l0.4,0.6
		 M587.2,155.1l0.3-0.1 M582.2,152.7l0.1-1.1 M584.5,153v-0.1 M584.4,154l0.1-0.8 M583.5,153.1l0.1-0.8 M585.7,154.4l0.1-0.8
		 M585.9,151.9l0.1-0.9 M588.1,153.4l0.1-1.1 M583.4,153.8l0.2-0.6 M585.7,155.1l0.2-0.7 M581.5,153l0.1,0.1 M582.7,153.7l0.2,0.1
		 M585,155l0.1,0.1 M590.2,152.1L590.2,152.1 M584.2,154.6L584.2,154.6 M582,153.3L582,153.3 M585.7,150.9L585.7,150.9 M588,150.8
		L588,150.8 M584.4,155.5L584.4,155.5 M582.2,154.2L582.2,154.2 M588,152.2l0.1,0.1 M586,154.2l0.2,0.1 M583.8,153h0.2 M584.2,154.3
		l0.7,0.4 M587.7,153.1l0.3,0.3 M582,153l0.7,0.4 M585.7,154.4l0.5-0.1 M583.5,153.1l0.5-0.1 M583,153.2l0.6-0.9 M585.2,154.5
		l0.6-0.9 M585,155.4l1,0.6 M583.6,154.6l0.2,0.1 M582.8,154.1l0.7,0.4 M584.3,160.7l1.7-4.7 M583.3,156.1l0.5-1.4 M583.8,154.7
		l0.2-0.1 M586,156l0.2-0.1 M589.8,153.6L589.8,153.6 M591.5,154.7L591.5,154.7 M590.7,155.4L590.7,155.4 M590.8,155.4l0.1-0.1
		 M590.3,155.3c0.1,0,0.1-0.1,0.2-0.2 M585.7,160.9c0.1,0,0.1-0.1,0.1-0.1 M585.6,160.9l0.1-0.1 M585.7,160.8v-0.1 M585.4,161
		l0.2-0.1 M590.3,155.7l0.1-0.1 M588.7,161.7c0.1,0,0.1,0.1,0.1,0.1 M587.1,154.2c0.1-0.1,0.2-0.1,0.2-0.1 M587.8,154.2
		C587.8,154.2,587.8,154.1,587.8,154.2 M587.8,154.2v0.1 M587.5,154.7C587.5,154.7,587.5,154.6,587.5,154.7 M588.7,161.8
		L588.7,161.8 M588.7,159.7v-0.9 M588.9,157.3v-0.4 M588.5,157.7l0.1-1 M588.3,159.5l0.1-0.3 M587.7,159.9h0.3 M586.2,160.1
		L586.2,160.1 M586.3,161.5c0,0,0-0.1,0.1-0.2 M586.3,161.5v0.1 M589,160.2v-0.1 M586,161.9L586,161.9 M586.3,161.6l0.1,0.1
		 M586.5,161.8c0.4-0.1,3.3-0.5,3.6-0.5 M590.5,161.2c0.1-0.2,0.8-3,0.9-3.4 M590.4,153.7C590.5,153.7,590.5,153.7,590.4,153.7
		 M590.4,153.3C590.4,153.3,590.5,153.3,590.4,153.3 M590.5,153.3v0.1 M590,153.1L590,153.1 M589,152.9L589,152.9 M592,153.1
		l0.1-0.2 M591.9,153.6l0.1-0.3 M592.5,153.9v-0.1 M592.4,153.8L592.4,153.8 M591.7,154.9L591.7,154.9 M591.8,154.9
		C591.8,154.9,591.8,154.8,591.8,154.9 M591,155.5L591,155.5 M591.1,155.5l0.1-0.1 M590.7,155.4v0.1 M590.7,155.5L590.7,155.5
		 M591.1,154.1c0-0.1,0.1-0.1,0.1-0.2 M588.2,154.7v-0.2 M588.1,155l0.1-0.2 M588.2,154.8v-0.1 M591,154.1V154 M591.9,155.6
		L591.9,155.6 M592,155.6l0.1-0.1 M591.7,155.5v0.1 M591.7,155.5l0.1-0.1 M591.7,155.6L591.7,155.6 M591.8,155.3L591.8,155.3
		 M591.8,155.4v-0.1 M592.1,155.4v-0.1 M592,155.3L592,155.3 M591.8,155.1C591.8,155.2,591.8,155.2,591.8,155.1 M592,155.2
		L592,155.2 M592.1,155.2v-0.1 M592.1,155.1l0.1-0.1 M591.8,155v-0.1 M591.8,154.9L591.8,154.9 M586.9,155.8
		C586.9,155.8,586.9,155.7,586.9,155.8 M587.5,155.4l0.1-0.1 M587.5,155.5v-0.1 M591.3,152.2l0.1,0.1 M591.3,152.6v0.1 M590.6,151.9
		c0.1,0,0.1,0,0.2,0.1 M591.9,153.3L591.9,153.3 M580.4,160.3c-0.1-0.1-0.1-0.2,0-0.2 M580.3,160.5c-0.1,0-0.1,0.1,0,0.2 M581,155.2
		h0.5 M583.6,156c0.1,0,0.7,0.1,0.4,0.2 M582.2,155.2c0.3-0.1-0.3-0.3-0.4-0.2 M583.6,156c-0.3,0.1,0.3,0.3,0.4,0.2 M581.7,155
		c-0.3,0.1,0.3,0.3,0.4,0.2 M583.9,156.9c-0.1,0-0.5,0-0.5-0.2 M582,155.8c-0.1,0-0.5,0-0.5-0.2 M581.7,161.7
		c-0.2,0.1-0.3,0.3-0.2,0.5 M583.4,163.3c-0.3-0.2-0.3-1,0.2-0.8 M583.2,162.7C583.2,162.7,583.2,162.8,583.2,162.7 M582.8,162.1
		c0,0.1,0,0.3-0.2,0.4 M582,162.6c0.2,0.1,0.3-0.2,0.2-0.4 M584,162.9c-0.2,0.1-0.3,0.3-0.2,0.5 M585,163.4c0.1,0.2,0.1,0.4-0.1,0.4
		 M584.5,163.4c0.1,0.2,0,0.5-0.2,0.4 M585.9,163.8c0.1,0.1,0.2,0.3,0.2,0.4c0,0.2-0.2,0.5-0.4,0.4
		C585.3,164.3,585.4,163.6,585.9,163.8 M588.5,163.4c0.1,0,0.1-0.1,0.1-0.1 M585.3,162.8c0.1-0.2,0.2-0.3,0.4-0.2 M585.4,164
		C585.4,164,585.4,164.1,585.4,164 M585.5,163.4c0.5,0.2,0.6-0.6,0.2-0.8 M588.7,162.3c0.1,0,0.1,0.2,0.1,0.2 M587.7,150
		c0,0.1-0.1,0.1-0.1,0.2 M589.8,151.4c0,0,0-0.1,0.1-0.1 M584.1,163.4c-0.1,0.4,0.3,0.2,0.4,0 M581.8,162.2c-0.1,0.4,0.3,0.2,0.4,0
		 M584.2,163.5c0-0.1,0.1-0.2,0.1-0.1 M582,162.2c0-0.1,0.1-0.2,0.1-0.1 M584.2,163.5c0,0.1,0.1,0,0.1-0.1 M582.1,162.1
		c0,0.1-0.1,0.2-0.1,0.1 M583.7,163.2c0,0.1,0,0.2,0.1,0.3 M581.6,162.2c-0.1,0-0.1-0.2-0.1-0.3 M585.1,150.3c0-0.1-0.1-0.1-0.2-0.2
		 M585.1,150C585,149.9,585,149.9,585.1,150 M585.2,150.1c0-0.1-0.1-0.1-0.2-0.1 M588.1,150.1C588.1,150.1,588.2,150.1,588.1,150.1
		 M584.5,150.9v-0.1 M587.6,149.9C587.6,149.8,587.7,149.9,587.6,149.9 M588.4,150.3v0.1 M587.2,151.4
		C587.2,151.4,587.1,151.4,587.2,151.4 M587.3,151.5c0-0.1-0.1-0.1-0.2-0.2 M587.3,151.5C587.3,151.5,587.3,151.6,587.3,151.5
		 M587.3,151.2C587.3,151.2,587.2,151.2,587.3,151.2 M587.5,151.4c0-0.1-0.1-0.1-0.2-0.2 M589.6,151.3
		C589.5,151.3,589.5,151.3,589.6,151.3 M587.4,151.8C587.4,151.9,587.4,151.9,587.4,151.8 M586.8,154c-0.1,0-0.1-0.1,0-0.2
		 M586.7,152.2v-0.1 M589.8,151.1L589.8,151.1 M590.6,151.5v0.1 M587.8,153.2c0,0,0,0.1,0.1,0.1 M587.4,154.8c0,0.2,0.3,0,0.3-0.1
		 M581.9,152.6c-0.1-0.1-0.1,0-0.1,0.1 M584,154c0-0.1,0.1-0.2,0.1-0.1 M581.8,152.7c0.1,0.1,0.1,0,0.1-0.1 M584,154
		c0.1,0.1,0.1,0,0.1-0.1 M586,151.8c0-0.1,0.2-0.2,0.2-0.1 M588.2,153.3c0.1,0.3,0.4-0.4,0.1-0.3
		C588.3,153.1,588.2,153.2,588.2,153.3 M581.5,152.4c-0.1,0.2-0.2,0.4-0.1,0.6 M583.8,153.7c-0.1,0.2-0.2,0.4-0.1,0.6 M581.7,152.5
		c-0.3,0.4-0.1,0.9,0.4,0.4 M583.8,154.3c0.1,0.2,0.4,0,0.5-0.1 M583.9,153.8c-0.1,0.1-0.1,0.2-0.1,0.3 M582.8,153.2
		c-0.1,0.2-0.2,0.4-0.1,0.6 M585,154.4c-0.1,0.2-0.2,0.4-0.1,0.6 M583,153.2c-0.1,0.1-0.1,0.2-0.1,0.4s0.1,0.3,0.3,0.2 M585.2,154.5
		c-0.1,0.1-0.1,0.2-0.1,0.3c0,0.2,0.1,0.4,0.3,0.3 M588.1,153.5c0.3,0.1,0.5-0.3,0.4-0.5 M584.7,155.3c0,0.1,0.1,0,0.1-0.1
		 M582.4,154c0,0.1,0.1,0,0.1-0.1 M584.4,155.5c-0.1-0.2,0-0.4,0.1-0.5 M582.2,154.2c-0.1-0.2,0-0.4,0.1-0.5 M584.2,154.7
		c-0.1,0.1-0.3,0.5-0.1,0.6 M582,153.4c-0.1,0.1-0.3,0.5-0.1,0.6 M587.4,154.8c0-0.1,0.2-0.4,0.3-0.1 M585.4,155.1
		c-0.3-0.1,0-0.6,0.2-0.6 M583.2,153.8c-0.3-0.1,0-0.6,0.2-0.6 M583.8,151.9c0.1-0.2,0.2-0.3,0.4-0.4 M581.7,152.2
		c-0.2,0.1-0.4,0.4-0.3,0.6 M583.9,153.5c-0.2,0.1-0.4,0.4-0.3,0.6 M586.1,153.2c0.1-0.2,0.2-0.3,0.4-0.4 M583,150.8
		c-0.2,0.1-0.4,0.2-0.5,0.4 M584.7,152.4c0.1-0.1,0.2-0.3,0.4-0.3"/>
	<path style="fill:none;stroke:#868686;stroke-width:0.2;stroke-miterlimit:10;" d="M587.5,155c0.2,0,0.3-0.2,0.4-0.4
		c0-0.1,0-0.3-0.1-0.3 M585.9,151C585.9,151,586,151,585.9,151 M585.6,150.9h0.2 M587.9,152.2c0.1,0,0.3,0,0.3,0.1 M584.7,155.3
		c0-0.1,0.1-0.2,0.1-0.1 M582.4,154c0-0.1,0.1-0.2,0.1-0.1 M584.7,155c-0.1,0.1-0.1,0.2-0.2,0.3c-0.1,0.1,0,0.3,0.2,0.3
		 M582.4,153.7c-0.2,0.1-0.3,0.6,0,0.5 M584,155.2c-0.1-0.2,0-0.4,0.1-0.5 M581.8,153.9c-0.1-0.2,0-0.4,0.1-0.5 M585.4,154.9
		c0-0.1,0.2-0.4,0.3-0.1 M583.2,153.6c0-0.1,0.2-0.4,0.3-0.1 M585.4,154.9c0.1,0.2,0.3,0,0.3-0.1 M583.2,153.6c0,0.2,0.3,0,0.3-0.1
		 M585.2,155c-0.2-0.2,0-0.6,0.3-0.6 M583.3,153.1c-0.2,0-0.5,0.4-0.3,0.6 M583.7,161.2c0.2-0.1,0.4-0.3,0.5-0.5 M585.1,161.8
		l0.3-0.6 M590.9,155.2c0.1-0.2,0.3-0.5,0.6-0.5 M585.5,161.4c0.1-0.2,0.2-0.3,0.3-0.5 M585.5,161.4c-0.2,0.2-0.4,0.6-0.1,0.8
		 M585.1,161.8c0.1-0.3,0.3-0.6,0.6-0.8 M588.8,155.6c0.1-0.1,0.2-0.1,0.2,0 M588.9,162.7c0,0-0.1,0.2,0,0.2 M588.9,162.7
		c0.1,0,0.1,0.1,0,0.1"/>
	<path style="fill:none;stroke:#868686;stroke-width:0.2;stroke-miterlimit:10;" d="M588.7,162.8c-0.1,0.3,0.1,0.5,0.4,0.2
		c0.2-0.2,0.2-0.4,0.2-0.6 M586.2,160.8c0,0-0.1,0.1-0.2,0 M590.7,155.9c0.1-0.1,0.1-0.2,0-0.3 M586,161.9c-0.3,0.4-0.8,0.4-0.6-0.2
		c0.1-0.2,0.2-0.3,0.3-0.5c0.1-0.1,0.1-0.2,0.2-0.4"/>
	<path style="fill:none;stroke:#868686;stroke-width:0.2;stroke-miterlimit:10;" d="M585.9,161.7c-0.1-0.3-0.4,0.1-0.2,0.2
		C585.8,161.9,585.9,161.8,585.9,161.7 M591.2,155.4c0.1-0.2,0.3-0.5,0.6-0.5 M588.4,154.3c-0.1,0-0.1,0.1-0.1,0.2 M588.1,155.2
		c-0.1,0-0.1-0.1,0-0.2 M592.1,154.5c0.1-0.1,0.2-0.1,0.2,0.1 M587.3,155.5c0.1,0,0.1,0,0.1,0.1 M587.7,155.2
		c0.2-0.2,0.4-0.5,0.3-0.7 M592.5,152.9c-0.1,0-0.4-0.1-0.3,0 M592.5,152.9c0.2,0.2-0.2,0.1-0.3,0 M590.5,152c0.1,0,0.5,0.1,0.3,0
		 M592,153.1c0.1,0.1,0.1,0.2,0,0.2 M588.3,150.7c0.1,0,0.4,0.1,0.3,0 M590.6,156.7c0.1-0.1,0.2-0.1,0.2,0 M584.7,157.3
		c0.3-0.1,0.2-0.3,0-0.4 M584.2,155.5c-0.1,0-0.1,0.1,0,0.1 M582,154.2c-0.1,0-0.1,0.1,0,0.1 M584.2,155.6c0.1,0.1,0.5,0.2,0.3,0
		 M582.3,154.3c0.2,0.2-0.3,0.1-0.3,0 M584.2,155.2c0-0.2,0.1-0.4,0.3-0.4 M582.1,154c0-0.2,0.1-0.4,0.3-0.4 M584.3,155.3
		c0-0.2,0.1-0.4,0.3-0.4 M581.9,153.9c0-0.2,0.1-0.4,0.3-0.4 M580.2,160.9c-0.1-0.1-0.2-0.2-0.2-0.3 M582.5,161.8
		c0.1,0.1,0.1,0.2-0.1,0.2 M582.6,161.6c0.1,0,0.1-0.1,0.1-0.2 M580.4,160.3c0.1,0,0.1-0.1,0-0.2 M580.2,160.7c0.1,0,0.1-0.1,0-0.2
		 M582.4,162.1c0.1,0.1,0.2,0.1,0.3-0.1 M582.5,162c-0.1-0.1-0.1-0.2,0.1-0.2 M582.6,161.6c-0.1-0.1-0.1-0.2,0-0.2"/>
	<path style="fill:#FF0000;" d="M547.3,80.7l0.3-0.5l49.5,28.5l-0.3,0.5L547.3,80.7z"/>
	<path style="fill:#868686;" d="M567.3,80.5l-0.4-0.3l-1,1.1l-0.6-0.4c-0.6-0.4-1.1-0.3-1.5,0.2l-6.2,6.8c-0.4,0.5-0.4,1.2,0.1,1.7
		l3.2,2.2c0.5,0.4,1.2,0.4,1.7-0.1l6.1-6.8c0.4-0.5,0.6-1.2,0.1-1.6l-0.6-0.4l1.1-1.1l-0.5-0.4l2.7-3l-1.2-1.1L567.3,80.5
		L567.3,80.5z M559.3,75.7l-0.4-0.3l-1,1.1l-0.6-0.4c-0.6-0.4-1.1-0.3-1.5,0.2l-6.2,6.8c-0.4,0.5-0.4,1.2,0.1,1.7l3.2,2.2
		c0.5,0.4,1.2,0.4,1.7-0.1l6.1-6.8c0.4-0.5,0.6-1.2,0.1-1.6l-0.6-0.4l1.1-1.1l-0.5-0.4l2.7-3l-1.2-1.1L559.3,75.7L559.3,75.7z
		 M551.2,71.3l-0.4-0.3l-1,1.1l-0.6-0.4c-0.6-0.4-1.1-0.3-1.5,0.2l-6.2,6.8c-0.4,0.5-0.4,1.2,0.1,1.7l3.2,2.2
		c0.5,0.4,1.2,0.4,1.7-0.1l6.1-6.8c0.4-0.5,0.6-1.2,0.1-1.6l-0.6-0.4l1.1-1.1l-0.5-0.4l2.7-3l-1.2-1.1L551.2,71.3L551.2,71.3z"/>
	<path style="fill:#00A0C6;" d="M600.9,111.7l0.3-0.5l49.5,28.5l-0.3,0.5L600.9,111.7z"/>
	<path style="fill:#868686;" d="M656.1,133.3l-0.4-0.2l-0.9,1.2l-0.7-0.3c-0.6-0.3-1.1-0.2-1.5,0.3l-5.5,7.4
		c-0.4,0.5-0.3,1.3,0.2,1.7l3.4,1.8c0.5,0.4,1.3,0.3,1.7-0.2l5.4-7.4c0.4-0.5,0.4-1.3-0.1-1.6l-0.6-0.4l1-1.2l-0.5-0.3l2.4-3.2
		l-1.3-1L656.1,133.3L656.1,133.3z M648.1,128.9l-0.4-0.2l-0.9,1.2l-0.7-0.3c-0.6-0.3-1.1-0.2-1.5,0.3l-5.5,7.4
		c-0.4,0.5-0.3,1.3,0.2,1.7l3.4,1.8c0.5,0.4,1.3,0.3,1.7-0.2l5.4-7.4c0.4-0.5,0.4-1.3-0.1-1.6l-0.6-0.4l1-1.2l-0.5-0.3l2.4-3.2
		l-1.3-1L648.1,128.9L648.1,128.9z M639.8,125l-0.4-0.2l-0.9,1.2l-0.7-0.3c-0.6-0.3-1.1-0.2-1.5,0.3l-5.5,7.4
		c-0.4,0.5-0.3,1.3,0.2,1.7l3.4,1.8c0.5,0.4,1.3,0.3,1.7-0.2l5.4-7.4c0.4-0.5,0.4-1.3-0.1-1.6l-0.6-0.4l1-1.2l-0.5-0.3l2.4-3.2
		l-1.3-1L639.8,125L639.8,125z"/>
	<path id="Layer8_255_1_STROKES_30_" style="fill:#B1B1B1;stroke:#FF0000;stroke-width:0.5;stroke-miterlimit:10;" d="M565.7,168.9
		c-0.5-0.3-0.7-0.8-0.7-1.6s0.2-1.7,0.7-2.5s1.1-1.4,1.8-1.8c0.7-0.4,1.3-0.5,1.8-0.2s0.7,0.8,0.7,1.7c0,0.7-0.2,1.6-0.7,2.4
		c-0.5,0.8-1.1,1.4-1.8,1.8C566.9,169.1,566.2,169.1,565.7,168.9L565.7,168.9z"/>
	<path id="Layer8_255_1_STROKES_29_" d="M567.1,166.8c-0.1-0.1-0.2-0.2-0.2-0.5c0-0.2,0.1-0.5,0.2-0.7c0.1-0.2,0.3-0.4,0.5-0.5
		s0.4-0.1,0.5,0s0.2,0.2,0.2,0.5c0,0.2-0.1,0.5-0.2,0.7s-0.3,0.4-0.5,0.5H567.1z"/>
	<path id="Layer8_255_1_STROKES_34_" style="fill:#B1B1B1;stroke:#FF0000;stroke-width:0.5;stroke-miterlimit:10;" d="M566.8,169.9
		c-0.5-0.3-0.7-0.8-0.7-1.6s0.2-1.7,0.7-2.5s1.1-1.4,1.8-1.8c0.7-0.4,1.3-0.5,1.8-0.2s0.7,0.8,0.7,1.7c0,0.7-0.2,1.6-0.7,2.4
		c-0.5,0.8-1.1,1.4-1.8,1.8C567.9,170.1,567.3,170.1,566.8,169.9L566.8,169.9z"/>
	<path id="Layer8_255_1_STROKES_33_" d="M568.1,167.8c-0.1-0.1-0.2-0.2-0.2-0.5c0-0.2,0.1-0.5,0.2-0.7s0.3-0.4,0.5-0.5
		s0.4-0.1,0.5,0s0.2,0.2,0.2,0.5c0,0.2-0.1,0.5-0.2,0.7s-0.3,0.4-0.5,0.5H568.1z"/>
	<path id="Layer8_255_1_STROKES_32_" style="fill:#B1B1B1;stroke:#00A0C6;stroke-width:0.5;stroke-miterlimit:10;" d="M570.4,171.5
		c-0.5-0.3-0.7-0.8-0.7-1.6s0.2-1.7,0.7-2.5s1.1-1.4,1.8-1.8c0.7-0.4,1.3-0.5,1.8-0.2s0.7,0.8,0.7,1.7c0,0.7-0.2,1.6-0.7,2.4
		c-0.5,0.8-1.1,1.4-1.8,1.8C571.6,171.7,570.9,171.7,570.4,171.5L570.4,171.5z"/>
	<path id="Layer8_255_1_STROKES_31_" d="M571.8,169.4c-0.1-0.1-0.2-0.2-0.2-0.5c0-0.2,0.1-0.5,0.2-0.7c0.1-0.2,0.3-0.4,0.5-0.5
		s0.4-0.1,0.5,0s0.2,0.2,0.2,0.5c0,0.2-0.1,0.5-0.2,0.7s-0.3,0.4-0.5,0.5S571.9,169.5,571.8,169.4z"/>
	<path id="Layer8_255_1_STROKES_42_" style="fill:#B1B1B1;stroke:#00A0C6;stroke-width:0.5;stroke-miterlimit:10;" d="M571.8,172.1
		c-0.5-0.3-0.7-0.8-0.7-1.6s0.2-1.7,0.7-2.5s1.1-1.4,1.8-1.8s1.3-0.5,1.8-0.2s0.7,0.8,0.7,1.7c0,0.7-0.2,1.6-0.7,2.4
		s-1.1,1.4-1.8,1.8C572.9,172.3,572.3,172.3,571.8,172.1L571.8,172.1z"/>
	<path id="Layer8_255_1_STROKES_41_" d="M573.2,170c-0.1-0.1-0.2-0.2-0.2-0.5c0-0.2,0.1-0.5,0.2-0.7s0.3-0.4,0.5-0.5s0.4-0.1,0.5,0
		s0.2,0.2,0.2,0.5c0,0.2-0.1,0.5-0.2,0.7s-0.3,0.4-0.5,0.5H573.2z"/>
	
		<path id="Layer8_0_1_STROKES" style="fill:none;stroke:#000000;stroke-width:0.25;stroke-linecap:round;stroke-linejoin:round;" d="
		M584,134.1l-78.5,4.5"/>
	<path style="fill:#FF0000;" d="M534.1,50l-8.3,4.3l67.9,39.3l8.5-4.2L534.1,50z"/>
	<path id="Layer8_0_MEMBER_1_1_STROKES" style="fill:none;stroke:#000000;stroke-width:0.2;stroke-miterlimit:4.9999;" d="M647,64.4
		l-19.5,42.5"/>
	<path id="Layer8_0_MEMBER_2_1_STROKES" style="fill:none;stroke:#000000;stroke-width:0.2;stroke-miterlimit:4.9999;" d="
		M587.2,84.3l59.7-19.9"/>
	<path id="Layer8_0_MEMBER_3_1_STROKES" style="fill:none;stroke:#000000;stroke-width:0.2;stroke-miterlimit:4.9999;" d="
		M656.6,201.8l-6-58.8"/>
	<path id="Layer8_0_MEMBER_4_1_STROKES" style="fill:none;stroke:#000000;stroke-width:0.2;stroke-miterlimit:4.9999;" d="
		M656.6,201.8l-14.1-63.5"/>
	<path id="Layer8_0_MEMBER_5_1_STROKES" style="fill:none;stroke:#000000;stroke-width:0.2;stroke-miterlimit:4.9999;" d="
		M634,134.4l22.6,67.5"/>
	<path id="Layer8_0_MEMBER_6_1_STROKES" style="fill:none;stroke:#000000;stroke-width:0.2;stroke-miterlimit:4.9999;" d="
		M491.6,92.8l59.7-7.9"/>
	<path id="Layer8_0_MEMBER_7_1_STROKES" style="fill:none;stroke:#000000;stroke-width:0.2;stroke-miterlimit:4.9999;" d="
		M491.6,92.8l52.8-13"/>
	<path id="Layer8_0_MEMBER_8_1_STROKES" style="fill:none;stroke:#000000;stroke-width:0.2;stroke-miterlimit:5;" d="M491.6,92.8
		l68.1-3.2"/>
	<path id="Layer8_0_MEMBER_10_1_STROKES" style="fill:none;stroke:#000000;stroke-width:0.2;stroke-miterlimit:4.9999;" d="
		M565.7,154.3l-139.2,35.9"/>
	<path id="Layer8_0_MEMBER_11_1_STROKES" style="fill:none;stroke:#000000;stroke-width:0.2;stroke-miterlimit:4.9999;" d="
		M56.4,574.2l168.9-24.1"/>
	<path id="Layer8_0_MEMBER_12_1_STROKES" style="fill:none;stroke:#000000;stroke-width:0.2;stroke-miterlimit:4.9999;" d="
		M46.7,581.7l130.2,11.7"/>
	<path style="fill:#FFFFFF;" d="M38.6,575.6l-14.8,3l-0.2,0.2l15-3V575.6z"/>
	<path id="Layer8_0_MEMBER_83_1_STROKES" style="fill:none;stroke:#FF0000;stroke-width:0.25;stroke-miterlimit:4.9999;" d="
		M566.6,163.9l17.8-30.8"/>
	<path id="Layer8_0_MEMBER_86_1_STROKES" style="fill:none;stroke:#FF0000;stroke-width:0.2;stroke-miterlimit:4.9999;" d="
		M551.5,258.5l13.6-90.4"/>
	<path id="Layer8_0_MEMBER_87_1_STROKES" style="fill:none;stroke:#00A0C6;stroke-width:0.2;stroke-miterlimit:4.9999;" d="
		M564.7,267.4l5.4-96.5"/>
	<path id="Layer8_0_MEMBER_88_1_STROKES" style="fill:none;stroke:#000000;stroke-width:0.2;stroke-miterlimit:4.9999;" d="
		M45.1,580.9c-0.1,0.5-0.1,0.9,0,1.4"/>
	<path id="Layer8_0_MEMBER_89_1_STROKES" style="fill:none;stroke:#000000;stroke-width:0.2;stroke-miterlimit:4.9999;" d="
		M46.3,579.4c-0.3,0.1-0.6,0.5-0.9,1"/>
	<path id="Layer8_0_MEMBER_90_1_STROKES" style="fill:none;stroke:#000000;stroke-width:0.2;stroke-miterlimit:4.9999;" d="
		M47.6,579.3c-0.2-0.1-0.5-0.2-0.7-0.1"/>
	<path id="Layer8_0_MEMBER_91_1_STROKES" style="fill:none;stroke:#000000;stroke-width:0.2;stroke-miterlimit:4.9999;" d="
		M47.8,581.6c0.4-0.5,0.4-1.1,0.2-1.7"/>
	<path id="Layer8_0_MEMBER_92_1_STROKES" style="fill:none;stroke:#000000;stroke-width:0.2;stroke-miterlimit:4.9999;" d="
		M46.9,582.7c0.4-0.2,0.6-0.5,0.7-0.7"/>
	<path id="Layer8_0_MEMBER_93_1_STROKES" style="fill:none;stroke:#000000;stroke-width:0.2;stroke-miterlimit:4.9999;" d="
		M47.5,582.4l-0.6,0.5"/>
	<path id="Layer8_0_MEMBER_96_1_STROKES" style="fill:none;stroke:#000000;stroke-width:0.2;stroke-miterlimit:4.9999;" d="
		M46.8,579.1l0.5-0.4"/>
	<path id="Layer8_0_MEMBER_97_1_STROKES" style="fill:none;stroke:#000000;stroke-width:0.2;stroke-miterlimit:4.9999;" d="
		M45.8,579.7l0.5-0.3"/>
	<path id="Layer8_0_MEMBER_103_1_STROKES" style="fill:#FF0000;stroke:#FF0000;stroke-width:0.2;stroke-miterlimit:4.9999;" d="
		M38.6,568.8l-3.9,6.2"/>
	<path id="Layer8_0_MEMBER_104_1_STROKES" style="fill:none;stroke:#FF0000;stroke-width:0.2;stroke-miterlimit:4.9999;" d="
		M39.4,571.4l-0.9,6.6"/>
	<path style="fill:#FF0000;" d="M39,570.3c0.7,0.4,1.1,0.2,1.4-0.5c0.2-0.2,0.2-0.5,0.2-0.9c-0.1-0.3-0.2-0.5-0.5-0.6
		c-0.6-0.3-1.1-0.1-1.5,0.5C38.4,569.5,38.5,570,39,570.3z"/>
	<path id="Layer8_0_MEMBER_105_1_STROKES" style="fill:none;stroke:#000000;stroke-width:0.2;stroke-miterlimit:4.9999;" d="
		M40.4,569.8c0.2-0.2,0.2-0.5,0.2-0.9c-0.1-0.3-0.2-0.5-0.5-0.6c-0.6-0.3-1.1-0.1-1.5,0.5c-0.3,0.7-0.2,1.2,0.4,1.5
		C39.6,570.7,40.1,570.6,40.4,569.8z"/>
	<path style="fill:#00A0C6;" d="M52.4,577.6c0.6,0.3,1.1,0.1,1.5-0.5c0.4-0.7,0.3-1.2-0.3-1.6c-0.6-0.3-1.1-0.1-1.5,0.5
		C51.8,576.6,51.9,577.1,52.4,577.6z"/>
	<path id="Layer8_0_MEMBER_108_1_STROKES" style="fill:none;stroke:#000000;stroke-width:0.2;stroke-miterlimit:4.9999;" d="
		M53.9,577.1c0.4-0.7,0.3-1.2-0.3-1.6c-0.6-0.3-1.1-0.1-1.5,0.5c-0.4,0.7-0.3,1.2,0.3,1.6C53,577.9,53.5,577.7,53.9,577.1z"/>
	<path id="Layer8_0_MEMBER_109_1_STROKES" style="fill:none;stroke:#FF0000;stroke-width:0.2;stroke-miterlimit:4.9999;" d="
		M40.7,569.9l446.9-257.5"/>
	<path id="Layer8_0_MEMBER_110_1_STROKES" style="fill:none;stroke:#FF0000;stroke-width:0.2;stroke-miterlimit:4.9999;" d="
		M487.7,312.4l63.5-51.7"/>
	<path id="Layer8_0_MEMBER_113_1_STROKES" style="fill:none;stroke:#00A0C6;stroke-width:0.25;stroke-miterlimit:4.9999;" d="
		M46.6,578.3l4.9-0.9"/>
	<path id="Layer8_0_MEMBER_115_1_STROKES" style="fill:none;stroke:#00A0C6;stroke-width:0.25;stroke-miterlimit:4.9999;" d="
		M47.7,582.8l5.3-4.9"/>
	<path id="Layer8_0_MEMBER_116_1_STROKES" style="fill:none;stroke:#00A0C6;stroke-width:0.2;stroke-miterlimit:4.9999;" d="
		M53.5,577.4l444.4-257.6"/>
	<path id="Layer8_0_MEMBER_117_1_STROKES" style="fill:none;stroke:#00A0C6;stroke-width:0.2;stroke-miterlimit:4.9999;" d="
		M501.1,318.2l60.3-49.4"/>
	<path id="Layer8_0_MEMBER_369_1_STROKES" style="fill:none;stroke:#000000;stroke-width:0.2;stroke-miterlimit:4.9999;" d="
		M631.2,114.7l-0.3,0.5"/>
	<path id="Layer8_0_MEMBER_372_1_STROKES" style="fill:none;stroke:#000000;stroke-width:0.2;stroke-miterlimit:4.9999;" d="
		M631.4,114.7l0.1-0.5"/>
	<path id="Layer8_0_MEMBER_373_1_STROKES" style="fill:none;stroke:#000000;stroke-width:0.2;stroke-miterlimit:4.9999;" d="
		M631.4,114.1l0.2-0.5"/>
	<path id="Layer8_0_MEMBER_374_1_STROKES" style="fill:none;stroke:#000000;stroke-width:0.2;stroke-miterlimit:4.9999;" d="
		M632.6,112.8l0.6,0.3"/>
	<path id="Layer8_0_MEMBER_375_1_STROKES" style="fill:none;stroke:#000000;stroke-width:0.2;stroke-miterlimit:4.9999;" d="
		M631.5,112.1l0.5,0.3"/>
	<path id="Layer8_0_MEMBER_376_1_STROKES" style="fill:none;stroke:#000000;stroke-width:0.2;stroke-miterlimit:4.9999;" d="
		M631.6,112l1.6,0.9"/>
	<path id="Layer8_0_MEMBER_377_1_STROKES" style="fill:none;stroke:#000000;stroke-width:0.2;stroke-miterlimit:4.9999;" d="
		M631.7,114.5l0.7-1.6"/>
	<path id="Layer8_0_MEMBER_378_1_STROKES" style="fill:none;stroke:#000000;stroke-width:0.2;stroke-miterlimit:4.9999;" d="
		M631.4,114.3l0.7-1.6"/>
	<path id="Layer8_0_MEMBER_379_1_STROKES" style="fill:none;stroke:#000000;stroke-width:0.2;stroke-miterlimit:4.9999;" d="
		M631.7,114.5l0.6-1.8"/>
	<path id="Layer8_0_MEMBER_380_1_STROKES" style="fill:none;stroke:#000000;stroke-width:0.2;stroke-miterlimit:4.9999;" d="
		M631.5,114.4l0.7-1.8"/>
	<path id="Layer8_0_MEMBER_387_1_STROKES" style="fill:none;stroke:#008837;stroke-width:0.5;stroke-miterlimit:4.9999;" d="
		M572,155.7l19.4-16"/>
	<path id="Layer8_0_MEMBER_388_1_STROKES" style="fill:none;stroke:#008837;stroke-width:0.5;stroke-miterlimit:4.9999;" d="
		M587,134.9l-16.8,18.5"/>
	<path id="Layer8_0_MEMBER_465_1_STROKES" style="fill:none;stroke:#B1B1B1;stroke-width:0.4;stroke-miterlimit:59.999;" d="
		M602,89.5l-68-39.4c-2.9,1.4-5.7,2.8-8.3,4.3l67.9,39.3L602,89.5L602,89.5z M602,89.5l24.6-12.4v13.7l-10,7.2l75.6,43.7l-7.2,5.2
		c-3.9,2.8-8.2,5.5-12.9,8c-1.6,0.9-3.1,1.6-4.6,2.1h-1.4L616,135l-14.4,74.4c-2.1,2.3-5.2,5.1-9.2,8.4c-1.3,1-2.6,2.1-4.1,3.2
		c-1.7,1.3-3.5,2.6-5.3,3.9c-4.9,3.5-10.1,7-15.8,10.5c-9.9,6.3-18.9,11.3-27,15.2c-8,3.9-13.1,5.6-15.3,5.1l-41,21.4l-135.2,78
		 M593.5,93.7l-6.1,2.9l-20.1,11.9c-0.5,0.3-0.9,0.6-1.4,1c-5.9,4.1-9.8,8.1-11.7,11.9c-1.8,3.6-1.5,6.4,0.8,8.4
		c2.3,2,5.8,2.6,10.6,1.9c0.2,0,0.4-0.1,0.6-0.1c5-0.9,10.2-3.2,15.5-6.9 M582.2,117.1c-0.6,0.4-0.8,0.9-0.7,1.6
		c0.1,0.8,0.5,1.3,1.2,1.5l18.9,8.3l7.3,3.2l7.1,3.1 M566,109.5l-57.6-43.8c5.1-4,10.9-7.8,17.3-11.3 M615,97l1.7,1 M685.1,146.9
		l-76.7-44.4 M451.1,363.3c1.1-4.5,0.9-9.8-0.5-15.9c-1.3-5.4-3.2-10.4-5.8-15.1c-0.6-1-1.4-1.7-2.5-2.1c-1-0.4-2-0.3-2.8,0
		c-0.1,0.1-0.3,0.1-0.4,0.2l-6.6,3.8c-1,0.5-1.5,1.4-1.5,2.7c-0.1,1.1,0.2,2.2,0.8,3.1c2.5,4.7,4.4,9.5,5.6,14.6
		c1.3,5.7,1.6,11,0.7,15.7 M213,342c1.7,0.8,3.6,1.3,5.8,1.3c2.2,0,4.1-0.5,5.7-1.4l11.3-4.4l12.4-2.5l51.1,29.3l24-7.7l62.1-35.8
		l67.6-36.7l83.8-68.6c0.2-0.1,0.4-0.2,0.6-0.1l28.7-83.7 M259.5,339.7l11.2-8.1c6.5-5.4,9.9-9.8,10.2-13c0.5-1.3,0.4-2.5-0.3-3.8
		c-0.7-1.2-1.7-1.9-3-2.2c0.2,0.2,0.3,0.6,0.3,1c-0.1,0.7-0.4,1.3-0.9,1.8c-1.2,1.3-4.1,2.5-8.8,3.7c-1.9,0.7-3.3,0.5-4.2-0.6
		c-1.6-1.9-2.7-2.9-3.1-3.2c-0.9-0.6-1.8-1.1-2.6-1.5c-0.5-0.2-0.9-0.4-1.3-0.5c-1.3-0.4-2.7-0.6-4.4-0.6c-2.6,0.4-4.7,0.8-6.4,1.3
		c-1.6,0.5-3.7,1.4-6.1,2.4c-5.9,2.4-12,5.2-18.5,8.5c-5.2,2.6-10.6,5.5-16.2,8.7 M277.7,312.5c-0.2-0.2-0.5-0.3-0.8-0.3
		c-3-0.5-6.1-0.5-9.5,0.2c-4.6,0.8-7.6,1.2-8.9,1.4 M309.7,485.6c-1.2-0.5-2.1-0.8-2.6-0.9c-0.8-0.2-1.6-0.2-2.4,0
		c-0.1,0-0.2,0.1-0.4,0.1c-2,1.1-5.1,2.2-9.4,3.3c-5.4,1.3-8.4,1-9-0.7c-0.7-3,2.7-8.3,10.2-15.9c4.8-5.4,11.3-10.9,19.3-16.5
		c3.5-2.4,8.3-5.5,14.4-9.4l-5.4-2.6l-220,127.3c-7.8,4.8-15.6,9.1-23.4,13c-19.7,10-38.8,17.4-57.1,22.1l-5.1,0.9l-10,0.5
		c-1.3-0.2-2.3-0.8-3.1-1.7c-0.7-0.7-1.1-1.6-1.2-2.5v-0.8c-0.1-4.6,1.8-11.7,5.7-21.5c4.3-10.3,10-21.3,17.3-33.2
		c1.3-2.1,2.9-4.6,4.8-7.5l0.6-0.9c0.6-0.9,1.2-1.8,1.8-2.8c3.2-5.7,7-10.9,11.4-15.5c4.9-5.2,10.4-9.7,16.7-13.5l163.7-94.5
		c4.3-3.3,6.5-7.7,6.5-13.4c0-5.3,1.9-8.9,5.6-11 M300.1,433.4l-2.5,1.5h-0.4l-0.1,0.1H297v-0.1h-0.3l-0.1-0.1v-0.1l-0.1-0.1h-0.1
		l-0.1-0.1v-0.2l-0.1-0.1V434l-0.1-0.1v0.1l-0.1-0.5l-0.1-1l-0.7-2.4 M324.6,443.1l-42.1-20.3c-3.9-1.3-7.9-1.3-12,0 M136.4,397.7
		c0.1,0.8,0.5,1.6,1,2.4s1.1,1.3,1.7,1.6l0.2,0.1l7,4.1c1,0.4,2.6,0.1,4.7-0.8c1.1-0.5,2.6-1.2,4.4-2.1c13-6.3,26.9-13.7,41.6-22.2
		l7.2-4.1 M189.4,359.3c-1.2,1.8-1.2,3.5-0.2,5.2l43.4,29.5 M177.5,349.2c-2.2,1.4-4.3,2.7-6.2,3.9c-3.9,2.5-7.1,4.5-9.4,6
		c-6.2,3.9-11.2,7.5-15,10.8c-2.2,1.9-4,3.5-5.3,4.6c-2.1,1.9-3.6,3.4-4.5,4.5c2.7-1.9,5.5-0.4,8.2,4.4c2.7,4.6,2.7,7.7,0,9.2
		c1.4-0.3,2.9,0,4.5,0.8 M213.3,476.3l1.2,4.4c0.3,1,0,1.8-0.8,2.5l-1.8,1.2l-0.7,0.3h0.1l-0.1,0.1H211l-0.1,0.1h-0.5l-0.1-0.1h-0.1
		v-0.1H210v-0.1l-0.1-0.1v-0.1c-0.1-0.4-0.2-0.7-0.3-0.9l-0.9-3.5c-0.2-1.4,0.3-2.5,1.4-3.1l0.4-0.3l1.4-0.7l0.1-0.1h0.3l0.1-0.1
		 M212,476l0.2-0.1 M219.2,478l-1-3.5c-0.1-1.3,0.3-2.2,1.3-2.9l1.4-0.8l0.6-0.3v-0.1h0.2l0.1-0.1h0.6v0.1h0.1l0.2,0.2v0.1h0.1
		l1.3,4.5c0.2,1.1-0.1,1.9-0.9,2.6l-2.5,1.5h0.1l-0.5,0.1h-0.1l-0.1,0.1l-0.1-0.1h-0.2c-0.1-0.1-0.2-0.2-0.4-0.3 M174.5,498l0.2,0.2
		h0.1v0.1h0.1v0.1l0.1,0.1v0.1l1.2,4.3c0.2,1.1-0.1,1.9-0.9,2.6l-2.4,1.4h-0.1l-0.1,0.1h-0.1l-0.3,0.1L172,507h-0.1l-0.1-0.1h-0.1
		v-0.1h-0.1v-0.1l-0.1-0.1v-0.1h-0.1v-0.2l-1.1-4.3c0-0.9,0.1-1.4,0.2-1.6l0.1-0.1v-0.2l0.3-0.3l0.1-0.2l0.1-0.1
		c0.3-0.2,0.5-0.4,0.7-0.5l0.5-0.3l0.6-0.5l0.6-0.3l0.1-0.1h0.2l0.1-0.1h0.6L174.5,498L174.5,498z M173.6,498.1l0.2-0.1
		 M182.4,501.5c-0.5,0.2-0.8,0.2-1,0l-0.2-0.2v-0.1h-0.1v-0.1L181,501v-0.1l-0.1-0.1v-0.2l-1-4.1v-0.9c0-0.3,0.1-0.5,0.2-0.7
		c0.3-0.5,0.7-1,1.3-1.4l0.4-0.3l1.4-0.7h0.2l0.1-0.1h0.1l0.1-0.1h0.3l0.1,0.1h0.2v0.1h0.1v0.1h0.1l0.1,0.1v0.1l0.1,0.1l1,3.2
		l0.2,1.3c0.2,0.4,0.2,0.9,0,1.4s-0.5,0.9-0.9,1.2l-1,0.7L182.4,501.5 M164.7,503.6l0.3,0.1l0.2,0.3l0.1,0.1l1,3.3l0.2,1.2
		c0.3,1.1,0,1.9-0.9,2.6l-1.8,1.2l-0.7,0.3l-0.1,0.1h-0.3l-0.1,0.1h-0.2v-0.1h-0.2l-0.1-0.1H162v-0.2h-0.1v-0.1l-0.1-0.1v-0.1
		l-0.3-1l-0.1-1l-0.7-2.4V507l0.1-0.1v-0.1c0.1-0.1,0.1-0.4,0.2-0.7c0.2-0.5,0.6-0.9,1.1-1.3l1.2-0.8l0.7-0.3v-0.1h0.3v-0.1
		L164.7,503.6L164.7,503.6z M154.4,509.2h0.2 M154.4,509.2l-1.7,1c-0.1,0.1-0.2,0.1-0.3,0.2c-0.3,0.3-0.7,0.7-1,1.2
		c-0.1,0.2-0.2,0.7-0.2,1.6l1,3.9v0.3l0.1,0.1v0.2h0.1v0.2h0.1v0.1l0.1,0.1h0.1v0.1h0.2v0.1h0.3l0.5-0.2l2.5-1.5
		c0.7-0.8,1-1.6,0.9-2.5l-0.3-1.3l-1-3.2v-0.1h-0.1v-0.1l-0.1-0.1v-0.1h-0.2v-0.1h-0.2l-0.1-0.1h-0.3v0.1h-0.3v0.1 M154.6,509.1
		l-0.2,0.1 M201.5,490.4l-0.2,0.1h-0.1l-0.1,0.1h-0.3c-0.1,0-0.2,0-0.3-0.1h-0.1l-0.1-0.1h-0.1v-0.1l-0.2-0.2V490l-0.1-0.1v-0.2
		l-0.1-0.1v-0.2l-0.1-0.5l-0.1-1l-0.7-2.4c0-0.8,0.1-1.3,0.3-1.5l0.5-0.8c0.4-0.3,0.6-0.5,0.7-0.6l1.7-1l0.7-0.2h0.1l0.1,0.1h0.1
		l0.2,0.2h0.1v0.1h0.1v0.2l1,3.2l0.3,1.3c0.1,0.4,0.1,0.9,0,1.4c-0.2,0.5-0.4,0.8-0.8,1.1l-1.1,0.8L201.5,490.4L201.5,490.4z
		 M190.5,494.5v0.5l0.1,0.2v0.1l0.1,0.1v0.2l0.5,0.5h0.3l0.1,0.1V496h0.4l0.1-0.1l0.7-0.4l1.8-1.1c0.9-0.7,1.2-1.5,0.9-2.6l-0.2-1.2
		l-1-3.3H194v-0.1l-0.1-0.1V487h-0.3v-0.1h-0.2v-0.1h-0.3l-0.1,0.1l-0.1,0.1l-0.2,0.1l-0.7,0.3l-0.6,0.4L191,488
		c-0.6,0.5-1,1-1.3,1.4c-0.2,0.4-0.3,0.9-0.3,1.6L190.5,494.5 M192.9,487h-0.2v0.1 M277.2,438.3l0.6-0.5l1.4-0.7l0.1-0.1h0.4
		l0.1-0.1h0.1l0.1,0.1h0.3v0.1h0.1v0.1h0.1v0.1h0.1v0.2h0.1l1.2,4.4 M280.9,444.5l-2.5,1.5h-0.2l-0.1,0.1h-0.5l-0.1-0.1h-0.2v-0.1
		l-0.3-0.3v-0.2h-0.1l0.1-0.4v-0.4l-1-3.4 M278.3,446l0.2-0.1L278.3,446 M400.1,427.4l-12.5,3.3l-5.3,2.5c-1.5,0.8-3.2,1.3-5.2,1.3
		c-1.9,0.1-3.6-0.2-5.3-0.7 M602.5,223.8c-3.7,9.3-9,17.8-15.8,25.5l-93.7,92c-7.5,7.8-16.1,14.3-25.6,19.4l-86.9,50.2l6.1,3.7
		c4.7-2.3,9.3-4.3,13.7-6.1c3.6-1.6,7.6-2.9,12.1-3.7c1.8,0,3.2,0.2,4.3,0.6c0.4,0.1,0.9,0.3,1.4,0.6c1.2-0.2,4.1-0.6,8.9-1.5
		c3.3-0.6,6.5-0.7,9.5-0.2c0.3,0,0.5,0.1,0.7,0.3c1.3,0.3,2.3,1.1,3,2.3c0.7,1.1,0.9,2.4,0.5,3.8c-0.4,3.4-3.9,7.8-10.3,13l-14.9,11
		 M418,405.9c0.8,0.4,1.6,0.9,2.5,1.5c0.7,0.4,1.8,1.4,3.2,3.2c0.8,1,2.2,1.2,4.2,0.6c3-0.9,4.5-1.4,4.7-1.4
		c2.1-0.7,3.4-1.5,4.1-2.3c0.5-0.5,0.9-1.1,1-1.8c0-0.5-0.1-0.9-0.5-1.2 M332.1,379.9c-0.5,1.6-0.2,2.8,0.8,3.6l47.5,27.3
		 M296,490.3c0.1,0.6,0.5,1.3,1.1,2.1s1.1,1.3,1.7,1.4l7,4.1c1,0.4,2.6,0.1,4.7-0.8c1.1-0.5,2.6-1.2,4.4-2.1
		c15.1-7.4,29-14.8,41.6-22.2l12.2-7.2 M348.7,449.3c-0.8,1.2-1.1,2.4-1,3.4c0.3,0.9,0.5,1.5,0.7,1.7c0.3,0.3,0.8,0.6,1.5,0.9h0.1
		l185.6,86.3c1.5,0.8,3.3,1.1,5.5,1l24.2-9.8L400.8,427.3 M296.2,471.5l0.4-0.4c2.7-1.9,5.5-0.4,8.2,4.4c2.7,4.7,2.7,7.7-0.1,9.2
		 M302.5,488l3.1,1.8c1.4,0.7,2.2,2,2.4,3.8c0.1,1.8-0.7,2.4-2.4,1.6 M337,441.3c-2.5,1.6-4.9,3-7,4.4 M386.5,414.5
		c-6.7,3.2-13.7,6.9-21.1,11.1 M299.4,364.2l-22.9,7.3 M537.6,215.3c0.1,0,0.2,0,0.3,0.1c0.3,0.1,0.5,0.4,0.5,0.8L525,255.6
		 M485.2,343.8l0.5-4.8l-0.2-5.3l-2.6-11.3l-0.5-1c-0.6-0.9-1.4-1.5-2.4-1.9c-1.2-0.4-2.3-0.3-3.1,0.2l-14.4,8.3l-0.4,0.3l-0.7,0.9
		l-0.3,0.5l-0.2,1.4l0.2,1.4l0.6,1.3l0.1,0.1c1.3,3,2.3,6.3,3,10c0.8,4,1,7.4,0.6,10.3 M592.4,217.7l16.6-85.9 M601.6,128.6
		L583,224.8 M171.3,353.1L24.1,248.5c-1.7-1-2.5-2.1-2.4-3.5l16.8-14l183.1,93.8 M137.1,379l-0.4,0.4c-3,3.3-5.1,5.6-6.2,7
		c-2.9,3.7-4.3,6.6-4.1,8.7c0.4,2,3.3,2.3,8.9,1c4.3-1.1,7.6-2.2,9.7-3.3c0.1,0,0.2-0.1,0.4-0.1 M146.1,403.1
		c1.8,0.8,2.5,0.3,2.4-1.5c-0.2-1.9-1-3.1-2.4-3.8l-3.3-1.9 M132.4,546.9c1-5.3,0.6-11.3-1.3-18.1c-1.8-6.2-4.3-11.7-7.6-16.6
		c-0.6-1-1.4-1.7-2.5-2.1c-1-0.4-1.9-0.3-2.7,0c-0.1,0.1-0.3,0.1-0.4,0.2l-8.8,5c-0.8,0.6-1.3,1.4-1.4,2.4v1.4l0.4,1.4l0.4,0.6h0.1
		c3.2,4.7,5.7,10.1,7.4,16.3c1.9,6.7,2.3,12.6,1.4,17.7 M145,514.6l-1.4,0.7l-0.4,0.3c-0.1,0.1-0.2,0.1-0.3,0.2
		c-0.3,0.3-0.7,0.7-1,1.2l-0.1,0.2v0.3l-0.1,0.1v0.2l-0.1,0.9l1.2,4.3c0,0.1,0.1,0.2,0.3,0.5v0.1h0.2v0.1h0.4c0.3,0,0.5,0,0.5-0.1
		h-0.1l0.1-0.1l2.4-1.4c0.9-0.7,1.2-1.5,0.9-2.6l-0.2-1.2l-1-3.3v-0.1h-0.1v-0.1h-0.1v-0.1H146v-0.2h-0.3v-0.1h-0.2l-0.1,0.1
		L145,514.6L145,514.6L145,514.6z M94.7,534.3l-9.1,1.5c-4.1,1.2-8.4,2-12.8,2.4l-5.3,19c3.5-0.2,6.8-0.9,10-2
		c7.1-1.9,13.5-4.8,19.4-8.5l1.7-1.1 M72.9,538.3c-1.9,0.2-3.8,0.2-5.8,0.2l-19-0.4l-10.2,16.5l22.2,2.4c1.6,0.2,3.3,0.3,4.9,0.3
		c0.9,0,1.8,0,2.7-0.1 M48.1,538.2l-3.7-11c-0.2-2.6,0.4-4.8,1.7-6.7 M32.3,539.6c-0.2,0.6-0.4,1.1-0.3,1.8l5.9,13.2"/>
	<path id="Layer8_0_MEMBER_466_1_STROKES" style="fill:none;stroke:#B1B1B1;stroke-width:0.4;stroke-miterlimit:4.9999;" d="
		M281.8,441.9c0.4,1.1,0.1,2-0.9,2.6 M277.5,438.1c-0.4,0.2-0.8,0.7-1.4,1.4v0.2l-0.1,0.2v0.1l-0.1,0.1v1 M270.4,442.6l0.4,0.3v0.1
		h0.1v0.1l1,3.2l0.2,1.3c0.3,1,0,1.9-0.8,2.5l-1.8,1.2l-0.9,0.4l-0.1,0.1H268v-0.1h-0.2v-0.1h-0.1l-0.5-0.9v-0.3l-1-3.6l0.1-0.9
		v-0.4l0.1-0.1v-0.1l0.1-0.2c0.2-0.4,0.6-0.8,1-1.2l2-1.1h0.1l0.1-0.1h0.1l0.1-0.1L270.4,442.6L270.4,442.6z M261.4,448.5l1,3.3
		l0.2,1.2c0.3,1,0,1.9-0.8,2.6l-1.1,0.7l-1.3,0.6l-0.1,0.1h-0.2v0.1h-0.7V457h-0.1l-0.3-0.3v-0.1l-0.1-0.1l-0.1-0.4l-0.1-0.1v-0.4
		l-1-3.5c-0.1-1.5,0.4-2.5,1.5-3.1l0.4-0.3l1.4-0.6l0.2-0.2h0.8v0.1h0.1v0.1h0.1v0.1h0.1L261.4,448.5L261.4,448.5z M249,454.5
		l-0.4,0.3c-1.1,0.6-1.7,1.6-1.5,3l1,3.6v0.5l0.1,0.1v0.2l0.2,0.2v0.2h0.1l0.3,0.3h0.6v-0.1h0.1l0.2-0.1l-0.1,0.1l2.5-1.5
		c0.9-0.6,1.2-1.5,0.9-2.6l-1.2-4.4h-0.1v-0.1h-0.1V454h-0.1v-0.1h-0.1l-0.1-0.1H251v-0.1h-0.1l-0.1,0.1h-0.3l-0.1,0.1h-0.1
		L249,454.5z M259.4,456.9l-0.2,0.1 M240.2,459.6l-1.4,0.8c-1,0.7-1.4,1.6-1.3,2.9l0.7,2.4l0.2,1.2c0,0.1,0,0.3,0.1,0.5v0.2l0.1,0.1
		v0.2h0.1v0.1l0.1,0.1v0.1h0.1v0.1h0.1l0.1,0.1h0.1v0.1h0.5l0.1-0.1h0.1l0.1-0.1l0.7-0.3l1.8-1.1c0.8-0.7,1.1-1.6,0.8-2.6l-0.2-1.2
		l-1-3.1v-0.1H242v-0.1l-0.1-0.1v-0.1h-0.1l-0.1-0.1h-0.1v-0.1h-0.5L240.2,459.6L240.2,459.6z M232.7,464.9l0.1,0.2l1.2,4.4
		c0.4,0.9,0.1,1.8-0.8,2.5l-1.8,1.2l-0.7,0.3l-0.5,0.1h-0.3v-0.1h-0.2v-0.1h-0.1l-0.1-0.1h-0.1v-0.2l-0.1-0.1h-0.1v-0.3l-0.1-0.1
		v-0.3l-1-3.6c-0.1-1.4,0.4-2.4,1.5-3l0.4-0.3l1.4-0.7l0.2-0.1h0.1l0.1-0.1h0.2l0.4,0.1h0.1v0.1h0.1L232.7,464.9L232.7,464.9z
		 M231.4,464.7l0.2-0.1 M426,352l0.2,0.1h0.3v0.1l0.2,0.2h0.1v0.2h0.1v0.1l1,3.1l0.2,1.2c0.2,0.5,0.2,1,0,1.4
		c-0.2,0.5-0.4,0.9-0.8,1.2l-2.4,1.4l-0.5,0.3H424l-0.1-0.1h-0.1l-0.2-0.2h-0.1v-0.1l-0.1-0.1v-0.1h-0.1v-0.1l-1.1-4.3
		c-0.2-1.3,0.2-2.3,1.2-2.9l1.4-0.8L426,352L426,352z M415.9,357.7l0.2-0.1L415.9,357.7z M415.9,357.7l-1.4,0.7l-0.4,0.3l-0.1,0.1
		l-0.2,0.1l-0.1,0.1l-0.2,0.1l-0.1,0.1l-0.1,0.2l-0.2,0.1v0.1l-0.1,0.2l-0.2,0.2v0.1l-0.1,0.2c-0.1,0.2-0.2,0.7-0.2,1.5l0.9,3.6
		c0,0.3,0.1,0.6,0.3,0.9c0.1,0.1,0.2,0.2,0.2,0.3l0.3,0.2h0.5l0.1-0.1h0.1v-0.1l0.7-0.3l1.8-1.2c0.4-0.4,0.7-0.7,0.8-1.1
		c0.2-0.4,0.2-0.8,0.1-1.4l-0.3-1.3l-1-3.2V358l-0.1-0.1v-0.1h-0.1l-0.2-0.2h-0.1l-0.1-0.1h-0.3l-0.4,0.1 M413.9,358.9l0.3-0.2
		 M407.5,363.5l1.3,4.6c0.2,0.9,0,1.8-0.8,2.5l-1.8,1.2l-0.7,0.4h-0.1l-0.1,0.1h-0.6v-0.1h-0.2v-0.1l-0.3-0.3v-0.2l-0.1-0.1v-0.1
		l-0.1-0.1v-0.1l-0.1-0.5l-0.1-1l-0.7-2.4v-0.8l0.1-0.1v-0.3l0.1-0.2v-0.1l0.1-0.2c0.2-0.5,0.5-0.8,1-1.2c0.1-0.1,0.2-0.1,0.3-0.2
		l0.4-0.3l1.4-0.7h0.1l0.1-0.1h0.1l0.1-0.1h0.5v0.1h0.1l0.1,0.1h0.1L407.5,363.5L407.5,363.5z M450.1,365.2l-10.8,6.2h-0.5
		 M396.8,369.1l-1.7,1l-0.1,0.1l-0.2,0.1l-0.2,0.2l-0.2,0.1l-0.1,0.2l-0.5,0.7c-0.1,0.3-0.2,0.8-0.2,1.6l0.7,2.4l0.2,1.2
		c0,0.3,0.1,0.5,0.2,0.6v0.2h0.1v0.2h0.1v0.1l0.4,0.2c0.1,0.1,0.2,0.1,0.5,0.1l0.1-0.1h0.2l0.2-0.1l1.3-0.6l1.2-0.8
		c0.9-0.6,1.2-1.4,0.8-2.5l-1.3-4.4l-0.1-0.1v-0.1l-0.2-0.2h-0.1l-0.1-0.1H397v0.1h-0.2L396.8,369.1L396.8,369.1z M387.9,374.5
		c0.2,0,0.4,0,0.4,0.1h0.2l0.2,0.2v0.1h0.1v0.1l1.3,4.4c0.3,1.1,0,2-0.9,2.6l-1.7,1.2l-0.6,0.3h-1l-0.1-0.1h-0.1v-0.1l-0.1-0.1v-0.1
		h-0.1V383l-0.1-0.1v-0.3h-0.1v-0.4l-0.1-0.1l-0.2-1.3l-0.7-2.4c0-0.5,0-0.8,0.1-0.9c0.1-0.3,0.1-0.5,0.1-0.7l0.5-0.8l0.3-0.3h0.1
		l0.2-0.1l1.9-1.2L387.9,374.5L387.9,374.5z M378.8,380.4l0.2,0.2v0.1l1,3.2l0.2,1.2c0.3,1.1,0,2-0.8,2.6l-1.8,1.1l-0.6,0.3
		l-0.1,0.1l-0.5,0.1h-0.2v-0.1l-0.3-0.2l-0.1-0.1h-0.1v-0.1l-0.1-0.3l-0.1-0.1v-0.2l-0.1-0.1v-0.4l-0.9-3.5v-0.9
		c0-0.1,0.1-0.4,0.2-0.7l0.1-0.1l0.1-0.2l0.1-0.1l0.1-0.2l0.2-0.2c0.1-0.2,0.2-0.3,0.4-0.5l2-1.1l0.5-0.2h0.4l0.1,0.1h0.1
		L378.8,380.4L378.8,380.4z M395.1,370.1l-0.3,0.2 M396,378l0.2-0.1 M355.3,395.3l0.1-0.9c0.1-0.2,0.1-0.4,0.2-0.7
		c0.3-0.7,0.7-1.1,1.3-1.4l0.4-0.3l1.4-0.7l0.1-0.1h0.1l0.1-0.1h0.6v0.1h0.1v0.1h0.1v0.1h0.1l1.4,4.6c0.3,1.1,0,2-0.9,2.6
		 M365,389.7l0.7,2.4l0.1,1l0.1,0.5v0.2l0.1,0.1v0.2h0.1v0.2l0.1,0.1v0.1h0.1v0.1h0.1v0.1h0.2v0.1h0.1c0.3,0,0.5-0.1,0.8-0.2
		l0.7-0.3l1.8-1.1c0.8-0.8,1.1-1.6,0.9-2.6l-1.3-4.5l-0.3-0.3v-0.1h-0.9l-0.1,0.1l-1.4,0.7l-0.4,0.3c-0.5,0.3-1,0.8-1.3,1.3
		C365,388.4,365,389,365,389.7L365,389.7z M602.5,223.8c0.9-1.4,1.4-3.1,1.4-4.9c0-3.1-1.3-5.6-3.8-7.5 M466.1,355.3l0.9,0.1
		l0.1-0.1h0.1l16.8-9.7v-0.1h0.1l0.1-0.1h0.1v-0.1h0.1v-0.1h0.1v-0.1 M117.3,555.3c-0.1,0.5,0.1,0.8,0.4,1.1c0.4,0.2,0.8,0.2,1.2,0
		l12.2-7l0.9-1.2l0.3-0.6l0.2-0.6 M94.7,534.3l4.1,11.3"/>
	<path style="fill:#00A0C6;" d="M615.1,96.9l-7.8,4.9l77.8,44.8l7.3-5C692.4,141.6,615.1,96.9,615.1,96.9z"/>
	<path id="Layer8_0_MEMBER_475_1_STROKES" style="fill:none;stroke:#00A0C6;stroke-width:0.2;stroke-miterlimit:4.9999;" d="
		M565.6,265.1l5.6-93.8"/>
	<path id="Layer8_0_MEMBER_476_1_STROKES" style="fill:none;stroke:#00A0C6;stroke-width:0.2;stroke-miterlimit:4.9999;" d="
		M500.1,319.7l64.1-51.5"/>
	<path id="Layer8_0_MEMBER_477_1_STROKES" style="fill:none;stroke:#00A0C6;stroke-width:0.2;stroke-miterlimit:4.9999;" d="
		M54.8,578.4l445.3-258.7"/>
	<path id="Layer8_0_MEMBER_479_1_STROKES" style="fill:none;stroke:#FF0000;stroke-width:0.2;stroke-miterlimit:4.9999;" d="
		M567.1,165.7l20.9-27.5"/>
	<path id="Layer8_0_MEMBER_480_1_STROKES" style="fill:none;stroke:#FF0000;stroke-width:0.2;stroke-miterlimit:4.9999;" d="
		M487.3,311.4l63.5-51.7"/>
	<path id="Layer8_0_MEMBER_481_1_STROKES" style="fill:none;stroke:#FF0000;stroke-width:0.2;stroke-miterlimit:4.9999;" d="M40,568
		l446.9-256.4"/>
	<path id="Layer8_0_MEMBER_482_1_STROKES" style="fill:none;stroke:#FF0000;stroke-width:0.2;stroke-miterlimit:4.9999;" d="
		M552.8,258.3L566,169"/>
	<path id="Layer8_255_1_STROKES_5_" style="fill:#B1B1B1;stroke:#00A0C6;stroke-width:0.5;stroke-miterlimit:10;" d="M51.9,578.2
		c-0.2-0.2-0.4-0.4-0.4-0.8s0.1-0.8,0.4-1.2c0.2-0.4,0.5-0.7,0.9-0.9s0.6-0.2,0.9-0.1c0.2,0.2,0.4,0.4,0.4,0.8s-0.1,0.8-0.4,1.2
		c-0.2,0.4-0.5,0.7-0.9,0.9C52.5,578.3,52.2,578.3,51.9,578.2z"/>
	<path id="Layer8_255_1_STROKES_4_" d="M52.6,577.2c-0.1,0-0.1-0.1-0.1-0.2s0-0.2,0.1-0.3l0.3-0.3c0.1-0.1,0.2-0.1,0.3,0
		c0.1,0,0.1,0.1,0.1,0.2s0,0.2-0.1,0.3l-0.3,0.3H52.6z"/>
	<path id="Layer8_255_1_STROKES_2_" style="fill:#B1B1B1;stroke:#00A0C6;stroke-width:0.5;stroke-miterlimit:10;" d="M52.6,580.1
		c-0.2-0.2-0.4-0.4-0.4-0.8s0.1-0.8,0.4-1.2c0.2-0.4,0.5-0.7,0.9-0.9s0.6-0.2,0.9-0.1c0.2,0.2,0.4,0.4,0.4,0.8s-0.1,0.8-0.4,1.2
		c-0.2,0.4-0.5,0.7-0.9,0.9C53.2,580.2,52.8,580.2,52.6,580.1z"/>
	<path id="Layer8_255_1_STROKES_1_" d="M53.3,579c-0.1,0-0.1-0.1-0.1-0.2s0-0.2,0.1-0.3l0.3-0.3c0.1-0.1,0.2-0.1,0.3,0
		c0.1,0,0.1,0.1,0.1,0.2s0,0.2-0.1,0.3l-0.3,0.3C53.4,579.1,53.3,579.1,53.3,579z"/>
	<path id="Layer8_255_1_STROKES_10_" style="fill:#B1B1B1;stroke:#FF0000;stroke-width:0.5;stroke-miterlimit:10;" d="M38.5,570.9
		c-0.2-0.2-0.4-0.4-0.4-0.8s0.1-0.8,0.4-1.2c0.2-0.4,0.5-0.7,0.9-0.9s0.6-0.2,0.9-0.1c0.2,0.2,0.4,0.4,0.4,0.8s-0.1,0.8-0.4,1.2
		c-0.2,0.4-0.5,0.7-0.9,0.9C39.1,571,38.7,571,38.5,570.9z"/>
	<path id="Layer8_255_1_STROKES_9_" d="M39.2,569.9c-0.1,0-0.1-0.1-0.1-0.2s0-0.2,0.1-0.3l0.3-0.3c0.1-0.1,0.2-0.1,0.3,0
		c0.1,0,0.1,0.1,0.1,0.2s0,0.2-0.1,0.3l-0.3,0.3H39.2z"/>
	<path id="Layer8_255_1_STROKES_12_" style="fill:#B1B1B1;stroke:#FF0000;stroke-width:0.5;stroke-miterlimit:10;" d="M39.6,572.5
		c-0.2-0.2-0.4-0.4-0.4-0.8s0.1-0.8,0.4-1.2s0.5-0.7,0.9-0.9s0.6-0.2,0.9-0.1s0.4,0.4,0.4,0.8s-0.1,0.8-0.4,1.2s-0.5,0.7-0.9,0.9
		C40.2,572.6,39.9,572.6,39.6,572.5z"/>
	<path id="Layer8_255_1_STROKES_11_" d="M40.3,571.4c-0.1,0-0.1-0.1-0.1-0.2s0-0.2,0.1-0.3l0.3-0.3c0.1-0.1,0.2-0.1,0.3,0
		s0.1,0.1,0.1,0.2s0,0.2-0.1,0.3l-0.3,0.3C40.5,571.5,40.4,571.5,40.3,571.4z"/>
	<path id="Layer8_255_1_STROKES_6_" style="fill:#B1B1B1;stroke:#008837;stroke-width:0.5;stroke-miterlimit:10;" d="M55.1,575.4
		c-0.2-0.2-0.4-0.4-0.4-0.8s0.1-0.8,0.4-1.2c0.2-0.4,0.5-0.7,0.9-0.9s0.6-0.2,0.9-0.1c0.2,0.2,0.4,0.4,0.4,0.8s-0.1,0.8-0.4,1.2
		c-0.2,0.4-0.5,0.7-0.9,0.9C55.7,575.5,55.4,575.5,55.1,575.4z"/>
	<path id="Layer8_255_1_STROKES_3_" d="M55.8,574.4c-0.1,0-0.1-0.1-0.1-0.2s0-0.2,0.1-0.3l0.3-0.3c0.1-0.1,0.2-0.1,0.3,0
		c0.1,0,0.1,0.1,0.1,0.2s0,0.2-0.1,0.3l-0.3,0.3H55.8z"/>
	<path id="Layer8_255_1_STROKES_14_" style="fill:#B1B1B1;stroke:#FF0000;stroke-width:0.5;stroke-miterlimit:10;" d="M485.3,312.2
		c-0.4-0.3-0.6-0.6-0.6-1.2s0.2-1.3,0.6-1.9c0.4-0.6,0.8-1.1,1.4-1.4c0.6-0.3,1-0.4,1.4-0.1s0.6,0.6,0.6,1.3c0,0.6-0.2,1.2-0.6,1.9
		s-0.8,1.1-1.4,1.4C486.2,312.4,485.7,312.4,485.3,312.2L485.3,312.2z"/>
	<path id="Layer8_255_1_STROKES_13_" d="M486.4,310.5c-0.1-0.1-0.2-0.2-0.2-0.4s0.1-0.4,0.2-0.6c0.1-0.2,0.2-0.3,0.4-0.4
		s0.3-0.1,0.4,0c0.1,0.1,0.2,0.2,0.2,0.4s-0.1,0.4-0.2,0.5c-0.1,0.2-0.2,0.3-0.4,0.4C486.6,310.6,486.5,310.6,486.4,310.5z"/>
	<path id="Layer8_255_1_STROKES_16_" style="fill:#B1B1B1;stroke:#FF0000;stroke-width:0.5;stroke-miterlimit:10;" d="M486,313.1
		c-0.4-0.3-0.6-0.6-0.6-1.2s0.2-1.3,0.6-1.9c0.4-0.6,0.8-1.1,1.4-1.4c0.6-0.3,1-0.4,1.4-0.1s0.6,0.6,0.6,1.3c0,0.6-0.2,1.2-0.6,1.9
		s-0.8,1.1-1.4,1.4C486.9,313.3,486.4,313.3,486,313.1L486,313.1z"/>
	<path id="Layer8_255_1_STROKES_15_" d="M487,311.5c-0.1-0.1-0.2-0.2-0.2-0.4s0.1-0.4,0.2-0.6c0.1-0.2,0.2-0.3,0.4-0.4
		s0.3-0.1,0.4,0c0.1,0.1,0.2,0.2,0.2,0.4s-0.1,0.4-0.2,0.5c-0.1,0.2-0.2,0.3-0.4,0.4C487.3,311.5,487.2,311.5,487,311.5z"/>
	<path id="Layer8_255_1_STROKES_18_" style="fill:#B1B1B1;stroke:#00A0C6;stroke-width:0.5;stroke-miterlimit:10;" d="M497.4,319.6
		c-0.4-0.3-0.6-0.6-0.6-1.2s0.2-1.3,0.6-1.9s0.8-1.1,1.4-1.4c0.6-0.3,1-0.4,1.4-0.1s0.6,0.6,0.6,1.3c0,0.6-0.2,1.2-0.6,1.9
		s-0.8,1.1-1.4,1.4C498.3,319.8,497.8,319.8,497.4,319.6L497.4,319.6z"/>
	<path id="Layer8_255_1_STROKES_17_" d="M498.4,318c-0.1-0.1-0.2-0.2-0.2-0.4s0.1-0.4,0.2-0.6c0.1-0.2,0.2-0.3,0.4-0.4
		s0.3-0.1,0.4,0c0.1,0.1,0.2,0.2,0.2,0.4s-0.1,0.4-0.2,0.5c-0.1,0.2-0.2,0.3-0.4,0.4C498.7,318.1,498.5,318.1,498.4,318z"/>
	<path id="Layer8_255_1_STROKES_20_" style="fill:#B1B1B1;stroke:#00A0C6;stroke-width:0.5;stroke-miterlimit:10;" d="M498.6,320.1
		c-0.4-0.3-0.6-0.6-0.6-1.2s0.2-1.3,0.6-1.9s0.8-1.1,1.4-1.4c0.6-0.3,1-0.4,1.4-0.1s0.6,0.6,0.6,1.3c0,0.6-0.2,1.2-0.6,1.9
		s-0.8,1.1-1.4,1.4C499.5,320.3,499,320.3,498.6,320.1L498.6,320.1z"/>
	<path id="Layer8_255_1_STROKES_19_" d="M499.7,318.4c-0.1-0.1-0.2-0.2-0.2-0.4s0.1-0.4,0.2-0.6s0.2-0.3,0.4-0.4s0.3-0.1,0.4,0
		c0.1,0.1,0.2,0.2,0.2,0.4s-0.1,0.4-0.2,0.5c-0.1,0.2-0.2,0.3-0.4,0.4C500,318.5,499.8,318.5,499.7,318.4z"/>
	<path id="Layer8_255_1_STROKES_22_" style="fill:#B1B1B1;stroke:#00A0C6;stroke-width:0.5;stroke-miterlimit:10;" d="M560.5,268.8
		c-0.5-0.3-0.7-0.8-0.7-1.6s0.2-1.7,0.7-2.5s1.1-1.4,1.8-1.8s1.3-0.5,1.8-0.2s0.7,0.8,0.7,1.7c0,0.7-0.2,1.6-0.7,2.4
		s-1.1,1.4-1.8,1.8S561,269,560.5,268.8z"/>
	<path id="Layer8_255_1_STROKES_21_" d="M561.8,266.7c-0.1-0.1-0.2-0.2-0.2-0.5c0-0.2,0.1-0.5,0.2-0.7c0.1-0.2,0.3-0.4,0.5-0.5
		s0.4-0.1,0.5,0s0.2,0.2,0.2,0.5c0,0.2-0.1,0.5-0.2,0.7s-0.3,0.4-0.5,0.5C562.2,266.8,562,266.8,561.8,266.7z"/>
	<path id="Layer8_255_1_STROKES_24_" style="fill:#B1B1B1;stroke:#00A0C6;stroke-width:0.5;stroke-miterlimit:10;" d="M562,269.1
		c-0.5-0.3-0.7-0.8-0.7-1.6s0.2-1.7,0.7-2.5s1.1-1.4,1.8-1.8s1.3-0.5,1.8-0.2s0.7,0.8,0.7,1.7c0,0.7-0.2,1.6-0.7,2.4
		s-1.1,1.4-1.8,1.8S562.4,269.3,562,269.1z"/>
	<path id="Layer8_255_1_STROKES_23_" d="M563.3,267c-0.1-0.1-0.2-0.2-0.2-0.5c0-0.2,0.1-0.5,0.2-0.7c0.1-0.2,0.3-0.4,0.5-0.5
		s0.4-0.1,0.5,0s0.2,0.2,0.2,0.5c0,0.2-0.1,0.5-0.2,0.7c-0.1,0.2-0.3,0.4-0.5,0.5H563.3z"/>
	<path id="Layer8_255_1_STROKES_26_" style="fill:#B1B1B1;stroke:#FF0000;stroke-width:0.5;stroke-miterlimit:10;" d="M547.4,261.3
		c-0.5-0.3-0.7-0.8-0.7-1.6s0.2-1.7,0.7-2.5s1.1-1.4,1.8-1.8c0.7-0.4,1.3-0.5,1.8-0.2s0.7,0.8,0.7,1.7c0,0.7-0.2,1.6-0.7,2.4
		s-1.1,1.4-1.8,1.8C548.6,261.6,547.9,261.6,547.4,261.3z"/>
	<path id="Layer8_255_1_STROKES_25_" d="M548.8,259.2c-0.1-0.1-0.2-0.2-0.2-0.5c0-0.2,0.1-0.5,0.2-0.7c0.1-0.2,0.3-0.4,0.5-0.5
		s0.4-0.1,0.5,0s0.2,0.2,0.2,0.5c0,0.2-0.1,0.5-0.2,0.7c-0.1,0.2-0.3,0.4-0.5,0.5S548.9,259.3,548.8,259.2z"/>
	<path id="Layer8_255_1_STROKES_28_" style="fill:#B1B1B1;stroke:#FF0000;stroke-width:0.5;stroke-miterlimit:10;" d="M549,262.1
		c-0.5-0.3-0.7-0.8-0.7-1.6s0.2-1.7,0.7-2.5s1.1-1.4,1.8-1.8s1.3-0.5,1.8-0.2s0.7,0.8,0.7,1.7c0,0.7-0.2,1.6-0.7,2.4
		s-1.1,1.4-1.8,1.8S549.5,262.3,549,262.1z"/>
	<path id="Layer8_255_1_STROKES_27_" d="M550.3,260c-0.1-0.1-0.2-0.2-0.2-0.5c0-0.2,0.1-0.5,0.2-0.7c0.1-0.2,0.3-0.4,0.5-0.5
		s0.4-0.1,0.5,0s0.2,0.2,0.2,0.5c0,0.2-0.1,0.5-0.2,0.7c-0.1,0.2-0.3,0.4-0.5,0.5H550.3z"/>
	<path style="fill:#B1B1B1;" d="M570.7,151.2l1.7,3.5l-3.7,4.2l-4.1-1l-3.3-3.8l3.7-1.5l0.8-1l1.1,0.2l2.4-0.9L570.7,151.2z"/>
	<path style="fill:none;stroke:#00A0C6;stroke-width:0.2;stroke-miterlimit:10;" d="M568.7,158.9l-4.1-1"/>
	<path style="fill:none;stroke:#00A0C6;stroke-width:0.2;stroke-linecap:round;stroke-linejoin:round;stroke-miterlimit:10;" d="
		M572.2,155l-3.5,3.9l-2.5-2.5l-0.8-0.8l-4.1-1.5l8-3.2l1.4,0.3L572.2,155z M565.4,155.6l5.3-4.4 M561.3,154.1l3.3,3.8"/>
	<path style="fill:#008837;stroke:#008837;stroke-width:0.2;stroke-miterlimit:10;" d="M572.2,153.5l-2-0.6v0.1
		c-0.2,0-0.4,0-0.6,0.2c-0.4,0.2-0.7,0.5-0.9,0.9s-0.4,0.8-0.4,1.2s0.1,0.6,0.4,0.8c0.1,0,0.2,0.1,0.3,0.1l1.4,0.4
		c0.2,0.1,0.6,0.1,0.9-0.1c0.4-0.2,0.7-0.5,0.9-0.9s0.4-0.8,0.4-1.2C572.5,153.9,572.4,153.6,572.2,153.5L572.2,153.5z"/>
	<path id="Layer8_255_1_STROKES_47_" style="fill:none;stroke:#000000;stroke-width:0.5;stroke-miterlimit:10;" d="M568.5,155.9
		c-0.2-0.2-0.4-0.4-0.4-0.8s0.1-0.8,0.4-1.2c0.2-0.4,0.5-0.7,0.9-0.9s0.7-0.2,0.9-0.1"/>
	<path id="Layer8_255_1_STROKES_44_" style="fill:#B1B1B1;stroke:#000000;stroke-width:0.5;stroke-miterlimit:10;" d="M570.4,156.5
		c-0.2-0.2-0.4-0.4-0.4-0.8s0.1-0.8,0.4-1.2c0.2-0.4,0.5-0.7,0.9-0.9s0.7-0.2,0.9-0.1c0.2,0.2,0.4,0.4,0.4,0.8s-0.1,0.8-0.4,1.2
		c-0.2,0.4-0.5,0.7-0.9,0.9S570.6,156.6,570.4,156.5z"/>
	<path id="Layer8_255_1_STROKES_43_" d="M571.1,155.4c-0.1,0-0.1-0.1-0.1-0.2s0-0.2,0.1-0.4s0.2-0.2,0.3-0.3s0.2-0.1,0.3,0
		c0.1,0,0.1,0.1,0.1,0.2s0,0.2-0.1,0.3l-0.3,0.3C571.2,155.5,571.1,155.5,571.1,155.4L571.1,155.4z"/>
	<path style="fill:none;stroke:#00A0C6;stroke-width:0.2;stroke-linecap:round;stroke-linejoin:round;stroke-miterlimit:10;" d="
		M565,152.6l0.8-1 M566.9,151.8l-1.1-0.2"/>
	<path id="Layer8_255_1_STROKES_36_" style="fill:#B1B1B1;stroke:#FF0000;stroke-width:0.5;stroke-miterlimit:10;" d="M584.2,137.1
		c0,0-1.9,1.6-2,1.5c-0.2-0.4-0.2-0.8-0.2-1.3c0-1.3,0.4-2.6,1.2-3.9c0.8-1.3,1.7-2.2,2.8-2.8c0.1-0.1,0.2-0.1,0.4-0.2
		c0.1-0.1,0.3,2.4,0.3,2.4l1.1,0.6c0,0,2-1.9,2.1-1.4c0,0.3,0.1,0.6,0.1,0.9c0,1.2-0.4,2.5-1.2,3.7c-0.7,1.2-1.6,2.1-2.7,2.7l-0.1-2
		L584.2,137.1L584.2,137.1z"/>
	<path id="Layer8_255_1_STROKES_35_" style="stroke:#FF0000;stroke-miterlimit:10;" d="M585.3,136.5c-0.2-0.1-0.3-0.4-0.3-0.7
		c0-0.4,0.1-0.7,0.3-1.1c0.2-0.4,0.5-0.6,0.8-0.8s0.6-0.2,0.8-0.1c0.2,0.1,0.3,0.4,0.3,0.7s-0.1,0.7-0.3,1.1
		c-0.2,0.4-0.5,0.6-0.8,0.8S585.5,136.6,585.3,136.5z"/>
	<path id="Layer8_255_1_STROKES_40_" style="fill:#B1B1B1;stroke:#FF0000;stroke-width:0.5;stroke-miterlimit:10;" d="M584.6,137.5
		c-0.4-0.3-0.6-0.6-0.6-1.2s0.2-1.3,0.6-1.9c0.4-0.6,0.8-1.1,1.4-1.4s1-0.4,1.4-0.1c0.4,0.3,0.6,0.6,0.6,1.3c0,0.6-0.2,1.2-0.6,1.9
		c-0.4,0.6-0.8,1.1-1.4,1.4C585.5,137.7,585,137.7,584.6,137.5z"/>
	<path id="Layer8_255_1_STROKES_39_" d="M585.7,135.9c-0.1-0.1-0.2-0.2-0.2-0.4s0.1-0.4,0.2-0.6c0.1-0.2,0.2-0.3,0.4-0.4
		c0.2-0.1,0.3-0.1,0.4,0c0.1,0.1,0.2,0.2,0.2,0.4s-0.1,0.4-0.2,0.5c-0.1,0.2-0.2,0.3-0.4,0.4C586,136,585.8,136,585.7,135.9z"/>
	<path id="Layer8_255_1_STROKES_51_" style="fill:#B1B1B1;stroke:#00A0C6;stroke-width:0.5;stroke-miterlimit:10;" d="M588.1,138.6
		c0,0-1.9,1.6-2,1.5c-0.2-0.4-0.2-0.8-0.2-1.3c0-1.3,0.4-2.6,1.2-3.9c0.8-1.3,1.7-2.2,2.8-2.8c0.1-0.1,0.2-0.1,0.4-0.2
		c0.1-0.1,0.3,2.4,0.3,2.4l1.1,0.6c0,0,2-1.9,2.1-1.4c0,0.3,0.1,0.6,0.1,0.9c0,1.2-0.4,2.5-1.2,3.7c-0.7,1.2-1.6,2.1-2.7,2.7l-0.1-2
		L588.1,138.6L588.1,138.6z"/>
	<path id="Layer8_255_1_STROKES_50_" d="M589.2,138c-0.2-0.1-0.3-0.4-0.3-0.7c0-0.4,0.1-0.7,0.3-1.1c0.2-0.4,0.5-0.6,0.8-0.8
		s0.6-0.2,0.8-0.1c0.2,0.1,0.3,0.4,0.3,0.7s-0.1,0.7-0.3,1.1c-0.2,0.4-0.5,0.6-0.8,0.8S589.4,138.1,589.2,138z"/>
	<path id="Layer8_255_1_STROKES_49_" style="fill:#B1B1B1;stroke:#00A0C6;stroke-width:0.5;stroke-miterlimit:10;" d="M588.5,139
		c-0.4-0.3-0.6-0.6-0.6-1.2s0.2-1.3,0.6-1.9c0.4-0.6,0.8-1.1,1.4-1.4s1-0.4,1.4-0.1c0.4,0.3,0.6,0.6,0.6,1.3c0,0.6-0.2,1.2-0.6,1.9
		c-0.4,0.6-0.8,1.1-1.4,1.4C589.4,139.2,588.9,139.2,588.5,139z"/>
	<path id="Layer8_255_1_STROKES_48_" d="M589.6,137.4c-0.1-0.1-0.2-0.2-0.2-0.4s0.1-0.4,0.2-0.6c0.1-0.2,0.2-0.3,0.4-0.4
		c0.2-0.1,0.3-0.1,0.4,0c0.1,0.1,0.2,0.2,0.2,0.4s-0.1,0.4-0.2,0.5c-0.1,0.2-0.2,0.3-0.4,0.4C589.9,137.5,589.7,137.5,589.6,137.4z"
		/>
	<path style="fill:#00A0C6;" d="M587.2,134.6l13.2-22.3l0.6,0.3l-13.2,22.3L587.2,134.6z"/>
	<path style="fill:#FF0000;" d="M583.6,132.6l13.2-22.1l0.5,0.3l-13.1,22L583.6,132.6z"/>
	<ellipse style="fill:#00A0C6;" cx="601.2" cy="112" rx="1.4" ry="1.4"/>
	<ellipse style="fill:#00A0C6;" cx="633.3" cy="130.1" rx="1.4" ry="1.4"/>
	<ellipse style="fill:#00A0C6;" cx="641.1" cy="134.4" rx="1.4" ry="1.4"/>
	<ellipse style="fill:#00A0C6;" cx="649" cy="139.1" rx="1.4" ry="1.4"/>
	<ellipse style="fill:#FF0000;" cx="597.2" cy="109.7" rx="1.4" ry="1.4"/>
	<ellipse style="fill:#FF0000;" cx="564" cy="89.9" rx="1.4" ry="1.4"/>
	<ellipse style="fill:#FF0000;" cx="556" cy="85" rx="1.4" ry="1.4"/>
	<ellipse style="fill:#FF0000;" cx="548" cy="80.6" rx="1.4" ry="1.4"/>
	<text transform="matrix(1 0 0 1 359.663 98.706)" style="font-family:'ArialMT'; font-size:19px;">Elevator PCUs</text>
	<text transform="matrix(1 0 0 1 653.965 70.215)" style="font-family:'ArialMT'; font-size:19px;">Elevators</text>
	<text transform="matrix(1 0 0 1 663.497 206.62)" style="font-family:'ArialMT'; font-size:19px;">Elevator PCUs</text>
	<text transform="matrix(1 0 0 1 659.729 252.67)" style="font-family:'ArialMT'; font-size:19px;">Pitch Feel and Trim Unit</text>
	<text transform="matrix(1 0 0 1 315.77 145.153)" style="font-family:'ArialMT'; font-size:19px;">Elevator Aft Quadrant</text>
	<text transform="matrix(1 0 0 1 216.119 195.918)" style="font-family:'ArialMT'; font-size:19px;">Elevator Autopilot Servo</text>
	<text transform="matrix(1 0 0 1 231.083 556.501)" style="font-family:'ArialMT'; font-size:19px;">Stick Pusher</text>
	<text transform="matrix(1 0 0 1 183.31 601.175)" style="font-family:'ArialMT'; font-size:19px;">Elevator Forward Quadrant</text>
	<path id="Layer8_0_MEMBER_82_1_STROKES" style="fill:none;stroke:#00A0C6;stroke-width:0.25;stroke-miterlimit:4.9999;" d="
		M571.8,165.9l14.9-30.3"/>
	<path id="Layer8_0_MEMBER_478_1_STROKES" style="fill:none;stroke:#00A0C6;stroke-width:0.25;stroke-miterlimit:4.9999;" d="
		M572.8,166.8l19.8-28.3"/>
	<path id="Layer8_255_1_STROKES_45_" d="M587.4,135.5c-0.1-0.1-0.2-0.2-0.2-0.4s0.1-0.4,0.2-0.6c0.1-0.2,0.2-0.3,0.4-0.4
		c0.2-0.1,0.3-0.1,0.4,0c0.1,0.1,0.2,0.2,0.2,0.4s-0.1,0.4-0.2,0.5c-0.1,0.2-0.2,0.3-0.4,0.4C587.6,135.5,587.5,135.5,587.4,135.5z"
		/>
	<path id="Layer8_255_1_STROKES_46_" d="M583.3,133.5c-0.1-0.1-0.2-0.2-0.2-0.4s0.1-0.4,0.2-0.6c0.1-0.2,0.2-0.3,0.4-0.4
		c0.2-0.1,0.3-0.1,0.4,0c0.1,0.1,0.2,0.2,0.2,0.4s-0.1,0.4-0.2,0.5c-0.1,0.2-0.2,0.3-0.4,0.4C583.6,133.5,583.5,133.5,583.3,133.5z"
		/>
	<path style="fill:none;stroke:#000000;stroke-width:0.25;stroke-miterlimit:10;" d="M792,213.5H661.4c-2.5,0-4.5-2-4.5-4.5v-18
		c0-2.5,2-4.5,4.5-4.5h130.5c2.5,0,4.5,2,4.5,4.5v18C796.4,211.5,794.4,213.5,792,213.5z M866.8,259H657.2c-2.5,0-4.5-2-4.5-4.5v-18
		c0-2.5,2-4.5,4.5-4.5h209.5c2.5,0,4.5,2,4.5,4.5v18C871.2,257,869.2,259,866.8,259L866.8,259z M343.6,563.5H230
		c-2.5,0-4.5-2-4.5-4.5v-18c0-2.5,2-4.5,4.5-4.5h113.5c2.5,0,4.5,2,4.5,4.5v18C348,561.5,346,563.5,343.6,563.5z M418,607.6H181.4
		c-2.5,0-4.5-2-4.5-4.5v-18c0-2.5,2-4.5,4.5-4.5h236.5c2.5,0,4.5,2,4.5,4.5v18C422.4,605.6,420.4,607.6,418,607.6z M422.5,203.3
		H211.9c-2.5,0-4.5-2-4.5-4.5v-18c0-2.5,2-4.5,4.5-4.5h210.5c2.5,0,4.5,2,4.5,4.5v18C426.9,201.3,424.9,203.3,422.5,203.3z
		 M487.7,105.3H354.1c-2.5,0-4.5-2-4.5-4.5v-18c0-2.5,2-4.5,4.5-4.5h133.5c2.5,0,4.5,2,4.5,4.5v18
		C492.1,103.3,490.1,105.3,487.7,105.3L487.7,105.3z M737.2,77.4h-85.6c-2.5,0-4.5-2-4.5-4.5v-18c0-2.5,2-4.5,4.5-4.5h85.5
		c2.5,0,4.5,2,4.5,4.5v18C741.6,75.4,739.6,77.4,737.2,77.4z M501,151.9H312.4c-2.5,0-4.5-2-4.5-4.5v-18c0-2.5,2-4.5,4.5-4.5h188.5
		c2.5,0,4.5,2,4.5,4.5v18C505.4,149.9,503.4,151.9,501,151.9z M588.8,159.7l63.9,85.8"/>
	
		<ellipse transform="matrix(0.6181 -0.7861 0.7861 0.6181 -439.81 248.8682)" style="fill:#868686;stroke:#FF0000;stroke-width:0.55;stroke-miterlimit:5.9997;" cx="36.2" cy="577.1" rx="3.3" ry="2.4"/>
	
		<ellipse transform="matrix(0.6181 -0.7861 0.7861 0.6181 -439.6916 248.9361)" style="fill:#1D1D1B;" cx="36.4" cy="577" rx="0.8" ry="0.6"/>
	
		<ellipse transform="matrix(0.6132 -0.7899 0.7899 0.6132 -441.1933 261.29)" style="fill:#868686;stroke:#1CAED0;stroke-width:0.55;stroke-miterlimit:5.9996;" cx="46.2" cy="581.1" rx="3.3" ry="2.4"/>
	
		<ellipse transform="matrix(0.6132 -0.7899 0.7899 0.6132 -441.1982 261.3519)" style="fill:#1D1D1B;" cx="46.3" cy="581.2" rx="0.8" ry="0.6"/>
	
		<ellipse transform="matrix(0.6132 -0.7899 0.7899 0.6132 -441.2329 261.2691)" style="fill:#868686;stroke:#008837;stroke-width:0.55;stroke-miterlimit:5.9996;" cx="46.2" cy="581.2" rx="2.1" ry="1.6"/>
	
		<ellipse transform="matrix(0.6132 -0.7899 0.7899 0.6132 -441.1978 261.3414)" style="fill:#1D1D1B;" cx="46.3" cy="581.2" rx="0.5" ry="0.4"/>
	<path id="Layer8_0_MEMBER_94_1_STROKES" style="fill:#008837;stroke:#008837;stroke-width:0.2;stroke-miterlimit:4.9999;" d="
		M56.8,574.7l-9.8,7.9"/>
	<path id="Layer8_0_MEMBER_95_1_STROKES" style="fill:none;stroke:#008837;stroke-width:0.2;stroke-miterlimit:4.9999;" d="
		M46.1,579.5l9.7-6.8"/>
	<path style="fill:#1CAED0;" d="M47,565.4c-0.2-0.1-0.4,0-0.4,0.3l0.1,0.8l-2.1-1.1l-2.4-1l0.3-1.2c-0.1-0.3-0.2-0.5-0.5-0.4
		c-0.3-0.1-0.6,0-0.8,0.2l0.1,1.3l2.2,2.5l-0.1,10l-11.9-5.3l0.1-10.2l2.3,0.3l0.6-0.3v-1.5c-0.2-0.2-0.4-0.3-0.7-0.2
		c-0.2-0.1-0.4,0-0.4,0.3l0.1,0.8l-2.1-1.1l-2.4-1l0.3-1.2c-0.1-0.3-0.2-0.5-0.5-0.4c-0.3-0.1-0.6,0-0.8,0.2l0.1,1.3l2.2,2.5
		l-0.1,11.1l1.1,0.5l0.5,0.2l-1.2,4.9l0.5-0.1l0.1-0.1l2.8,1.1V578l-2.7-0.8l1.7-3.8l9.6,4.4l-1.3,5.1l0.4,0.2l0.1-0.2l1.8,0.6v-0.2
		l-1.7-0.6l1.9-4.4l0.4,0.2l0.2-11.3l2.3,0.3l0.6-0.3v-1.5C47.5,565.5,47.3,565.4,47,565.4L47,565.4z"/>
	<path id="Layer8_255_1_STROKES_7_" style="fill:#00A0C6;stroke:#B1B1B1;stroke-width:0.25;stroke-miterlimit:10;" d="M30.9,578.1
		c-0.1-0.1-0.1-0.2-0.1-0.3c0-0.2,0-0.3,0.1-0.5s0.2-0.3,0.4-0.4s0.3-0.1,0.4,0s0.1,0.2,0.1,0.3s0,0.3-0.1,0.5s-0.2,0.3-0.4,0.4
		H30.9z"/>
	<path id="Layer8_255_1_STROKES_37_" style="fill:#00A0C6;stroke:#B1B1B1;stroke-width:0.25;stroke-miterlimit:10;" d="M41.9,583.5
		c-0.1-0.1-0.1-0.2-0.1-0.3c0-0.2,0-0.3,0.1-0.5s0.2-0.3,0.4-0.4c0.1-0.1,0.3-0.1,0.4,0s0.1,0.2,0.1,0.3s0,0.3-0.1,0.5
		s-0.2,0.3-0.4,0.4C42.1,583.6,42,583.6,41.9,583.5z"/>
</g>
</svg>
