<?xml version="1.0" encoding="utf-8"?>
<!-- Generator: Adobe Illustrator 25.0.0, SVG Export Plug-In . SVG Version: 6.00 Build 0)  -->
<svg version="1.1" id="Ebene_1" xmlns="http://www.w3.org/2000/svg" xmlns:xlink="http://www.w3.org/1999/xlink" x="0px" y="0px"
	 viewBox="0 0 42.1 34.2" style="enable-background:new 0 0 42.1 34.2;" xml:space="preserve">
<g id="yes">
	<g>
		<path style="fill:#211C19;" d="M8.1,2.4c-1.8,0-2.7,1.2-2.7,3.7V29c0,2.5,0.9,3.7,2.7,3.7h26.5c1.8,0,2.7-1.2,2.7-3.7V6.1
			c0-2.5-0.9-3.7-2.7-3.7H8.1z"/>
		<path style="fill:#737271;" d="M36.5,3.2c-0.7-0.8-1.3-0.8-2.5-0.8H8C6.2,2.4,5.3,3.6,5.3,6v22.5c0,1.1,0,2.2,0.6,3.1
			c0.6,0.9,1.5,1,2.1,0.5L36.6,5C37.1,4.4,36.9,3.6,36.5,3.2z"/>
		<path style="fill:#383431;" d="M36.8,28.8V6.7c0-2.4-0.9-3.6-2.6-3.6H8.7C7,3.1,6.2,4.3,6.2,6.7v22.1c0,2.3,0.9,3.5,2.5,3.5h25.5
			C36,32.3,36.8,31.2,36.8,28.8z"/>
	</g>
	<path style="fill:#FFFFFF;" d="M17.3,12.4h-1.7l-2.3,4l-2.2-4H8.9l3.3,5.7v4.1h1.9v-4.1L17.3,12.4 M25.5,15.2
		c0,0.4,0.1,0.8,0.2,1.2c0.1,0.2,0.4,0.5,0.7,0.9l1.5,0.5l1.9,0.5l0.6,0.2l0.2,0.2l0.2,0.1l0.1,0.2l0.1,0.3v0.2c0,0.4-0.2,0.7-0.5,1
		c-0.5,0.2-1,0.3-1.5,0.3c-1.3,0-2.1-0.5-2.5-1.5l-1.7,0.4c0.3,0.8,0.8,1.5,1.5,1.9c0.8,0.4,1.7,0.5,2.6,0.5c1.1,0,2.1-0.3,2.8-0.9
		c0.7-0.5,1.1-1.3,1.1-2.2c0-0.6-0.2-1.1-0.5-1.6c-0.4-0.5-1-0.9-2-1l-1.7-0.5c-0.9-0.2-1.3-0.6-1.3-1.2c0-0.3,0.2-0.6,0.5-0.9
		c0.4-0.2,0.8-0.3,1.2-0.3c0.9,0,1.5,0.4,1.8,1.2l1.8-0.5c-0.2-0.7-0.6-1.2-1.3-1.5c-0.7-0.4-1.5-0.5-2.2-0.5c-1,0-1.9,0.2-2.6,0.7
		C25.9,13.6,25.5,14.3,25.5,15.2 M23.5,18v-1.4h-3.7v-2.7h4.5v-1.5H18v9.8h6.5v-1.5h-4.7V18H23.5z"/>
</g>
</svg>
