<?xml version="1.0" encoding="utf-8"?>
<!-- Generator: Adobe Illustrator 25.0.0, SVG Export Plug-In . SVG Version: 6.00 Build 0)  -->
<svg version="1.1" id="Ebene_1" xmlns="http://www.w3.org/2000/svg" xmlns:xlink="http://www.w3.org/1999/xlink" x="0px" y="0px"
	 viewBox="0 0 42.1 34.2" style="enable-background:new 0 0 42.1 34.2;" xml:space="preserve">
<g id="menu">
	<g>
		<path style="fill:#211C19;" d="M7.9,2.5c-1.8,0-2.7,1.2-2.7,3.7v22.9c0,2.5,0.9,3.7,2.7,3.7h26.5c1.8,0,2.7-1.2,2.7-3.7V6.2
			c0-2.5-0.9-3.7-2.7-3.7L7.9,2.5L7.9,2.5z"/>
		<path style="fill:#737271;" d="M36.3,3.3c-0.7-0.8-1.3-0.8-2.5-0.8h-26C6,2.5,5.1,3.7,5.1,6.1v22.5c0,1.1,0,2.2,0.6,3.1
			c0.6,0.9,1.5,1,2.1,0.5L36.4,5.1C36.9,4.5,36.7,3.7,36.3,3.3z"/>
		<path style="fill:#383431;" d="M36.6,28.9V6.8c0-2.4-0.9-3.7-2.6-3.7H8.5C6.8,3.1,6,4.3,6,6.8v22.1c0,2.3,0.9,3.5,2.5,3.5H34
			C35.8,32.4,36.6,31.3,36.6,28.9z"/>
	</g>
	<path style="fill:#FFFFFF;" d="M15,14.4h-2l-1.5,4.7L10,14.4H8v7.2h1v-6.3l2.1,6.3h0.6l2-6.3v6.3H15V14.4 M21.2,14.4h-4.6v7.2h4.7
		v-1.1h-3.5v-2h2.8v-1h-2.8v-2h3.3v-1.1 M30.7,14.4h-1.3v4.7c0,0.6,0.1,1.1,0.2,1.5c0.2,0.3,0.5,0.6,0.8,0.9
		c0.3,0.2,0.8,0.3,1.5,0.3c0.6,0,1.1-0.1,1.5-0.4l0.8-0.8l0.2-1v-5.1h-1v4.7c0,0.6-0.1,1-0.3,1.2c-0.4,0.2-0.7,0.3-1,0.3
		c-0.4,0-0.7-0.1-0.9-0.3c-0.3-0.2-0.5-0.6-0.5-1.2L30.7,14.4 M23.5,16.3l0.1,0.2l0.1,0.1v0.1l0.1,0.1l0.1,0.1V17l2.8,4.6h1.2v-7.2
		h-1.1v5.1l-0.4-0.7l-0.1-0.1v-0.1l-2.5-4.2h-1.4v7.2h1v-5.3L23.5,16.3L23.5,16.3z"/>
</g>
</svg>
