<?xml version="1.0" encoding="utf-8"?>
<!-- Generator: Adobe Illustrator 24.2.3, SVG Export Plug-In . SVG Version: 6.00 Build 0)  -->
<svg version="1.1" id="Ebene_1" xmlns="http://www.w3.org/2000/svg" xmlns:xlink="http://www.w3.org/1999/xlink" x="0px" y="0px"
	 viewBox="0 0 503 274" style="enable-background:new 0 0 503 274;" xml:space="preserve">
<style type="text/css">
	.st0{fill:none;stroke:#B1B1B1;stroke-width:0.55;stroke-miterlimit:5;}
	.st1{fill:none;stroke:#1D1D1B;stroke-width:0.25;stroke-miterlimit:5;}
	.st2{fill:#FF9900;}
	.st3{fill:none;stroke:#2B2B2A;stroke-width:0.55;stroke-miterlimit:5;}
	.st4{fill:#0099FF;}
	.st5{fill:none;stroke:#0099FF;stroke-width:0.55;stroke-miterlimit:5;}
	.st6{fill:none;stroke:#2B2B2A;stroke-width:0.55;stroke-miterlimit:60;}
	.st7{fill:#009900;}
	.st8{fill:#CCCCCC;}
	.st9{fill:none;stroke:#2B2B2A;stroke-width:0.25;stroke-miterlimit:5;}
	.st10{fill:none;stroke:#2B2B2A;stroke-width:0.2;stroke-miterlimit:5;}
	.st11{fill:none;stroke:#2B2B2A;stroke-width:0.3;stroke-miterlimit:5;}
	.st12{fill:#999999;}
	.st13{opacity:0.2;fill:#0099FF;enable-background:new    ;}
	.st14{fill:none;stroke:#0099FF;stroke-width:1;stroke-miterlimit:10.0015;}
	.st15{fill:none;stroke:#FFFFFF;stroke-miterlimit:5;}
</style>
<path id="Layer7_1_1_STROKES" class="st0" d="M193.3,186.7l-0.2,0.1"/>
<path id="Layer7_1_MEMBER_0_1_STROKES" class="st1" d="M255,250.7l128.1-123.5l16-16.4l10.7-12l9.6-12.8l7.6-11.7l5.5-9.8
	c2-3.9,3.5-6.8,4.5-8.8c1.8-3.5,2.9-6.6,3.4-9.1l0.2-3.5c0-2.3-0.4-4.4-1.3-6.4c-0.8-1.8-2-3.6-3.6-5.5l-1.4-1.6"/>
<path id="Layer7_1_MEMBER_1_1_STROKES" class="st1" d="M217.9,150.5l81.2-40.7h0.3l0.1,0.1l0.1,0h1.6l1.6-0.2
	c5.7-1.5,11.7-3.6,17.8-6.2c4.1-1.8,9.8-4.6,16.9-8.3l13.8-7.5c12.7-7.2,25-14.8,37-22.9l8.5-5.7c7.3-5.1,13.3-9.4,18.1-13.1
	c6.6-5.1,12.3-9.8,16.9-14.3l4.7-4.6"/>
<path id="Layer7_1_MEMBER_2_1_STROKES" class="st1" d="M299.4,109.9l23.7-70.6v-0.1l0-0.1V39l0-0.1l-0.2-0.2l-0.9-0.5l-0.6-0.2h-0.7
	l-109.3,88.8"/>
<path id="Layer7_1_MEMBER_3_1_STROKES" class="st1" d="M217.9,150.5l-0.9-9.2c-0.2-3.2-0.5-5.6-0.8-7.3c-0.5-3-1.3-5.3-2.5-6.8
	l-0.6-0.3l-0.5-0.1l-0.5,0l-0.5,0.2l-0.4,0.4l-0.5,0.5l-2.7,19.1"/>
<path id="Layer7_1_MEMBER_4_1_STROKES" class="st1" d="M192.5,148l13.9-7.3"/>
<path id="Layer7_1_MEMBER_5_1_STROKES" class="st1" d="M436.6,27.1l7.5-38.9"/>
<path id="Layer7_1_MEMBER_6_1_STROKES" class="st1" d="M321.9,37.6l17.9-52.4"/>
<path id="Layer7_1_MEMBER_7_1_STROKES" class="st1" d="M187.5,151.1l-2.4,2.6l-2.1,3l-1.7,3.4l-1.3,3.8c-2.5,9.1-2,19.6,1.3,31.4
	c2.9,10.3,7.4,19.9,13.4,28.8l7,9.2c6.7,8,14.2,14,22.5,18c10.5,5.1,19.6,5.4,27.3,0.8l2.7-2l2.4-2.5l2-3l1.6-3.4
	c3.4-8.4,3.8-18.6,1.2-30.4c-2.2-10-6-19.6-11.5-28.6l-6.6-9.7c-6.3-8.5-13.7-15.3-22.1-20.3c-10.5-6.3-19.9-7.8-28.3-4.5l-3.1,1.6
	L187.5,151.1z"/>
<path class="st2" d="M277.2,176l0,4.5l2.1,0l-0.1-4.5H277.2 M337.5,127.3l2.7,3.6l1.6-1.2l-2.8-3.6L337.5,127.3z"/>
<path id="Layer7_1_MEMBER_8_1_STROKES" class="st3" d="M192.1,180.7l-1.5,0.8 M198.1,181l-0.1,0.9 M197,180h0.6 M186,183.8l0.9-0.1
	 M195,185.7l-1.7,1 M190.8,188.2l-2.9,1.8l-2.4,1.2 M182.5,186.2l1.1-1"/>
<path class="st4" d="M182,187c-0.1,0.6,0.1,1.4,0.7,2.4c0.8,1.5,1.8,2,2.8,1.8c0.1,0,0.1-0.1,0.1-0.1l4.1-2.3l0,0l5.1-2.9
	c0.7-0.6,0.8-1.4,0.4-2.4l2.7-1.6l0.2-0.6l0,0V181l-0.1-0.1v-0.1l-0.1-0.2l0-0.1c-0.3-0.5-0.6-0.7-1-0.6l-2.8,1.6
	c-0.7-0.8-1.4-1-2.4-0.8l-4.9,2.9c-0.3,0-0.6,0-1,0.2l-2.4,1.4L182,187z"/>
<path id="Layer7_1_MEMBER_8_MEMBER_1_1_STROKES" class="st3" d="M185.5,191.2c-1,0.3-1.9-0.3-2.8-1.8c-0.9-1.5-0.9-2.6-0.2-3.2"/>
<path id="Layer7_1_MEMBER_8_MEMBER_2_1_STROKES" class="st3" d="M194.9,185.8l-5.2,3"/>
<path id="Layer7_1_MEMBER_8_MEMBER_3_1_STROKES" class="st3" d="M186.9,183.7l5.1-3"/>
<path id="Layer7_1_MEMBER_8_MEMBER_4_1_STROKES" class="st3" d="M195.2,183.4l2.8-1.5"/>
<path id="Layer7_1_MEMBER_8_MEMBER_5_1_STROKES" class="st3" d="M194.2,181.5l2.8-1.5"/>
<path id="Layer7_1_MEMBER_8_MEMBER_6_1_STROKES" class="st3" d="M183.5,185.3l2.5-1.4"/>
<path id="Layer7_1_MEMBER_8_MEMBER_7_1_STROKES" class="st3" d="M186.7,190.8l2.5-1.5"/>
<path id="Layer7_1_MEMBER_8_MEMBER_8_1_STROKES" class="st3" d="M182.8,186c1-0.3,1.9,0.3,2.8,1.9c0.9,1.6,0.8,2.7-0.1,3.2"/>
<path id="Layer7_1_MEMBER_8_MEMBER_9_1_STROKES" class="st3" d="M182.8,186l0.7-0.4"/>
<path id="Layer7_1_MEMBER_8_MEMBER_10_1_STROKES" class="st3" d="M185.6,191.1l0.8-0.4"/>
<path id="Layer7_1_MEMBER_8_MEMBER_11_1_STROKES" class="st3" d="M183.6,185.2c1.1-0.5,2.1,0.1,3.1,1.8c1,1.7,1,2.9,0,3.6"/>
<path id="Layer7_1_MEMBER_8_MEMBER_12_1_STROKES" class="st3" d="M186.1,183.8c1.1-0.5,2.2,0.1,3.2,1.9s1,2.9,0,3.6"/>
<path id="Layer7_1_MEMBER_8_MEMBER_13_1_STROKES" class="st3" d="M195,185.7c0.8-0.7,0.7-1.8-0.1-3.2s-1.8-2-2.8-1.8"/>
<path id="Layer7_1_MEMBER_8_MEMBER_14_1_STROKES" class="st5" d="M304.4,132.2l4.7-2.5"/>
<path id="Layer7_1_MEMBER_8_MEMBER_15_1_STROKES" class="st5" d="M266.1,152.6l34.4-18.2"/>
<path id="Layer7_1_MEMBER_8_MEMBER_16_1_STROKES" class="st5" d="M230.1,171.8l32.1-17"/>
<path id="Layer7_1_MEMBER_8_MEMBER_17_1_STROKES" class="st5" d="M218.4,178l7.7-4.1"/>
<path id="Layer7_1_MEMBER_8_MEMBER_18_1_STROKES" class="st5" d="M210.2,179c1.8,0.2,3,0.3,3.7,0.3c1.1,0,2.3-0.3,3.5-0.9l0.9-0.4"
	/>
<path id="Layer7_1_MEMBER_8_MEMBER_19_1_STROKES" class="st5" d="M198.1,180.6l1-0.4c1.8-0.9,3.7-1.3,5.9-1.4"/>
<path id="Layer7_1_MEMBER_8_MEMBER_20_1_STROKES" class="st5" d="M284.5,204.7l-5.5,4.8"/>
<path id="Layer7_1_MEMBER_8_MEMBER_21_1_STROKES" class="st5" d="M302.6,188.8l-14.7,12.9"/>
<path id="Layer7_1_MEMBER_8_MEMBER_22_1_STROKES" class="st5" d="M340.5,155.5l-15.6,13.7"/>
<path id="Layer7_1_MEMBER_8_MEMBER_23_1_STROKES" class="st5" d="M345.6,151l-1.8,1.6"/>
<path id="Layer7_1_MEMBER_8_MEMBER_24_1_STROKES" class="st5" d="M311.6,125.1l-0.2,1.2"/>
<path id="Layer7_1_MEMBER_8_MEMBER_25_1_STROKES" class="st5" d="M317.1,117.1l-0.6,0.3c-1.2,0.7-2.3,1.7-3.2,3.1l-0.1,0.2"/>
<path id="Layer7_1_MEMBER_8_MEMBER_26_1_STROKES" class="st5" d="M328.7,118.5l-0.3-0.2c-2.1-1.1-4.1-1.8-6-2l-0.8,0"/>
<path id="Layer7_1_MEMBER_8_MEMBER_27_1_STROKES" class="st5" d="M338.2,126.7l-0.5-0.6c-1.5-1.8-3.2-3.5-5-4.9l-0.3-0.3"/>
<path id="Layer7_1_MEMBER_8_MEMBER_28_1_STROKES" class="st5" d="M345.8,141.1c-1.1-3.5-2.6-6.9-4.5-10l-0.5-0.7"/>
<path id="Layer7_1_MEMBER_8_MEMBER_29_1_STROKES" class="st5" d="M347,147.2l-0.2-1.5"/>
<path id="Layer7_1_MEMBER_8_MEMBER_30_1_STROKES" class="st5" d="M278.9,209.5c-0.8,0.6-1.5,0.7-2.1,0.4c-0.6-0.3-0.9-1-0.8-2"/>
<path id="Layer7_1_MEMBER_8_MEMBER_31_1_STROKES" class="st5" d="M347.1,147.4c0.2,0.6,0.2,1.2-0.1,1.9c-0.3,0.7-0.7,1.3-1.2,1.7"/>
<path id="Layer7_1_MEMBER_8_MEMBER_32_1_STROKES" class="st3" d="M271.6,158.3L270,157"/>
<path id="Layer7_1_MEMBER_8_MEMBER_33_1_STROKES" class="st5" d="M278.2,176l-0.2-2.4c-0.3-2.4-0.6-4.3-1-5.6
	c-0.5-2-1.2-3.8-2.1-5.3l-0.5-0.8"/>
<path id="Layer7_1_MEMBER_8_MEMBER_34_1_STROKES" class="st5" d="M276.9,199.3l1.5-18.8"/>
<path id="Layer7_1_MEMBER_8_MEMBER_35_1_STROKES" class="st5" d="M275.9,207.8l0.4-4"/>
<path class="st2" d="M225.1,173.1L225.1,173.1L225.1,173.1L225.1,173.1 M226.1,174.9L226.1,174.9c0.3-0.3,0.3-0.7,0-1.2
	c-0.3-0.4-0.6-0.6-0.9-0.6l-0.1,0l-0.1,0.1c-0.3,0.2-0.3,0.6,0,1.1c0.3,0.5,0.6,0.7,0.9,0.7L226.1,174.9L226.1,174.9 M230.1,171.7
	v-0.1l-0.1-0.1c-0.3-0.4-0.6-0.6-0.9-0.6h-0.1L229,171l-3.8,2.1c0.3,0,0.6,0.2,0.9,0.6c0.3,0.5,0.3,0.9,0.1,1.1l-0.1,0v0.1l3.9-2.2
	l0.1-0.1v0h0.1v-0.1h0.1v-0.2C230.2,172,230.1,171.8,230.1,171.7z"/>
<path id="Layer7_1_MEMBER_8_MEMBER_36_1_STROKES" class="st3" d="M226.1,175l3.9-2.2l0.1-0.1v0h0.1v-0.1h0.1v-0.2
	c0-0.3-0.1-0.4-0.2-0.5v-0.1l-0.1-0.1c-0.3-0.4-0.6-0.6-0.9-0.6h-0.1L229,171l-3.8,2.1c0.3,0,0.6,0.2,0.9,0.6
	c0.3,0.5,0.3,0.9,0.1,1.1L226.1,175L226.1,175h-0.1c-0.3,0.1-0.6-0.2-0.9-0.7c-0.3-0.5-0.3-0.9,0-1.1l0.1-0.1l0.1,0h0.1l-0.1,0"/>
<path class="st2" d="M205.2,177.7h-0.1c-0.3,0.1-0.5,0.4-0.6,0.9c0,0.6,0.1,1,0.4,1.1h0.2c0.3-0.1,0.5-0.5,0.5-1
	S205.5,177.8,205.2,177.7 M209.8,178L209.8,178l-4.6-0.2c0.3,0.1,0.5,0.4,0.5,1s-0.2,0.9-0.5,1l4.4,0.2h0.1v-0.1h0.1v0h0.1v-0.1h0.1
	v0h0.1v-0.1h0.1l0,0v-0.1l0.1,0v-0.1l0.1,0v-0.1l0.1-0.1v-0.6l-0.2-0.4L209.8,178L209.8,178z"/>
<path id="Layer7_1_MEMBER_8_MEMBER_37_1_STROKES" class="st3" d="M205.2,179.8l4.4,0.2h0.1v-0.1h0.1v0h0.1v-0.1h0.1v0h0.1v-0.1h0.1
	l0,0v-0.1l0.1,0v-0.1l0.1,0v-0.1l0.1-0.1v-0.6l-0.2-0.4l-0.2-0.2h-0.1v-0.1l-4.6-0.2c0.3,0.1,0.5,0.4,0.5,1S205.5,179.6,205.2,179.8
	h-0.2c-0.3-0.1-0.5-0.5-0.4-1.1c0.1-0.6,0.3-0.9,0.6-0.9h0.1"/>
<path class="st2" d="M300.4,135.4L300.4,135.4l0.1,0L300.4,135.4 M299.4,133.6L299.4,133.6c-0.3,0.3-0.3,0.6,0,1.1
	c0.3,0.5,0.6,0.7,0.9,0.7h0.1l0-0.1l0.1,0c0.2-0.3,0.2-0.7-0.1-1.1C300.1,133.7,299.8,133.5,299.4,133.6L299.4,133.6 M304.2,131.9
	l-0.1-0.1c-0.1-0.2-0.2-0.3-0.3-0.3v0h-0.1c0,0-0.1-0.1-0.4-0.1h-0.1l-4,2.2h0c0.4-0.1,0.7,0.1,1,0.6c0.3,0.5,0.3,0.9,0.1,1.1
	l3.9-2.1v0h0l0-0.1v0l0.1-0.1v0h0v-0.1c0,0,0.1-0.1,0.1-0.1c0-0.1,0-0.2-0.1-0.2l0,0v-0.1C304.5,132.2,304.4,132.1,304.2,131.9
	L304.2,131.9z"/>
<path id="Layer7_1_MEMBER_8_MEMBER_38_1_STROKES" class="st3" d="M300.5,135.4l3.9-2.1v0h0l0-0.1v0l0.1-0.1v0h0v-0.1
	c0,0,0.1-0.1,0.1-0.1c0-0.1,0-0.2-0.1-0.2l0,0v-0.1c0-0.2-0.1-0.3-0.2-0.4v-0.1l-0.1-0.1c-0.1-0.2-0.2-0.3-0.3-0.3v0h-0.1
	c0,0-0.1-0.1-0.4-0.1h-0.1l-4,2.2h0c0.4-0.1,0.7,0.1,1,0.6C300.7,134.7,300.7,135.1,300.5,135.4L300.5,135.4l-0.1,0l0,0.1h-0.1
	c-0.4,0-0.7-0.2-0.9-0.7c-0.3-0.5-0.3-0.9,0-1.1l0,0 M300.5,135.4l-0.1,0"/>
<path class="st2" d="M262,154.5c-0.3-0.5-0.6-0.7-0.9-0.7l-0.1,0.1l0,0.1c-0.3,0.2-0.3,0.6,0,1.1c0.3,0.5,0.6,0.7,1,0.7h0.1l0.1-0.1
	v0C262.4,155.4,262.4,155,262,154.5 M261.2,153.8C261.1,153.8,261.1,153.8,261.2,153.8l-0.1,0.1L261.2,153.8 M265.4,151.8
	L265.4,151.8l-0.2,0l0-0.1h-0.1l-0.1,0.1h0l-3.8,2.1c0.3,0,0.6,0.2,0.9,0.7c0.3,0.5,0.3,0.9,0.1,1.1v0l-0.1,0.1l3.9-2.2h0l0.1-0.1v0
	l0.1-0.1v-0.1l0-0.1v-0.2l0,0v-0.1c0-0.1,0-0.1-0.1-0.2v-0.1l0,0v-0.1h0v0l0,0v-0.1l-0.1,0l-0.1-0.1h0v0l0-0.1h0l-0.1-0.1
	L265.4,151.8L265.4,151.8L265.4,151.8z"/>
<path id="Layer7_1_MEMBER_8_MEMBER_39_1_STROKES" class="st3" d="M262,155.7l3.9-2.2h0l0.1-0.1v0l0.1-0.1v-0.1l0-0.1v-0.2l0,0v-0.1
	c0-0.1,0-0.1-0.1-0.2v-0.1l0,0v-0.1h0v0l0,0v-0.1l-0.1,0l-0.1-0.1h0v0l0-0.1h0l-0.1-0.1h0v0h-0.1v0h-0.2l0-0.1h-0.1l-0.1,0.1h0
	l-3.8,2.1c0.3,0,0.6,0.2,0.9,0.7c0.3,0.5,0.3,0.9,0.1,1.1L262,155.7L262,155.7L262,155.7c-0.5,0.1-0.8-0.2-1-0.7
	c-0.3-0.5-0.3-0.9,0-1.1l0-0.1l0.1,0c0,0,0,0,0.1,0l-0.1,0.1"/>
<path class="st2" d="M284.4,204.6L284.4,204.6l-0.1-0.1c-0.4-0.3-0.7-0.4-0.9-0.4l-0.2,0.2v0c-0.2,0.3-0.1,0.6,0.2,0.9l0,0.1l0.1,0
	c0.3,0.3,0.6,0.5,0.9,0.5h0.1l0.1,0h0l0,0v-0.1l0.1,0C284.8,205.3,284.7,205,284.4,204.6 M286.6,201.1L286.6,201.1l-3.3,2.9
	c0.3,0,0.6,0.1,0.9,0.4l0.1,0l0,0.1c0.3,0.4,0.4,0.7,0.3,0.9l-0.1,0v0.1l3.3-3v-0.1h0v0l0.1,0v-0.4l-0.1,0V202l0,0v-0.1l-0.1,0
	l-0.1-0.2l-0.2-0.2c-0.2-0.2-0.4-0.3-0.5-0.3h0l0-0.1L286.6,201.1L286.6,201.1z"/>
<path id="Layer7_1_MEMBER_8_MEMBER_40_1_STROKES" class="st3" d="M284.6,205.7l3.3-3v-0.1h0v0l0.1,0v-0.4l-0.1,0V202l0,0v-0.1
	l-0.1,0l-0.1-0.2l-0.2-0.2c-0.2-0.2-0.4-0.3-0.5-0.3h0l0-0.1h-0.4v0.1h0l-3.3,2.9c0.3,0,0.6,0.1,0.9,0.4l0.1,0l0,0.1
	c0.3,0.4,0.4,0.7,0.3,0.9l-0.1,0V205.7L284.6,205.7L284.6,205.7l-0.1,0.1h-0.1c-0.3,0-0.6-0.1-0.9-0.5l-0.1,0l0-0.1
	c-0.3-0.3-0.4-0.6-0.2-0.9v0l0.2-0.2"/>
<path class="st2" d="M339.4,155.1l-0.1,0.1c-0.2,0.3-0.1,0.7,0.2,1.1s0.7,0.6,1,0.5l0,0h0.1l0-0.1v0l0.1-0.1c0.1-0.3,0-0.6-0.3-0.9
	l0-0.1l-0.1-0.1c-0.1-0.1-0.3-0.2-0.4-0.3C339.7,155.1,339.5,155,339.4,155.1L339.4,155.1 M342.7,152.1L342.7,152.1l-3.3,3h0.1
	c0.1-0.1,0.3,0,0.5,0c0.2,0.1,0.3,0.2,0.4,0.3l0.1,0.1l0,0.1c0.3,0.3,0.4,0.6,0.3,0.9l-0.1,0.1v0l3.3-3h0v0l0-0.1v-0.1l0.1-0.1v-0.1
	l-0.1,0V153l0,0v-0.1l-0.1-0.1v0l-0.1-0.1v-0.1l-0.2-0.2h0l-0.1,0v0h-0.1l0-0.1h0l-0.1,0h-0.1l0-0.1h-0.2l0,0.1H342.7z"/>
<path id="Layer7_1_MEMBER_8_MEMBER_41_1_STROKES" class="st3" d="M340.8,156.6l3.3-3h0v0l0-0.1v-0.1l0.1-0.1v-0.1l-0.1,0V153l0,0
	v-0.1l-0.1-0.1v0l-0.1-0.1v-0.1l-0.2-0.2h0l-0.1,0v0h-0.1l0-0.1h0l-0.1,0h-0.1l0-0.1h-0.2l0,0.1h-0.1v0l-3.3,3h0.1
	c0.1-0.1,0.3,0,0.5,0c0.2,0.1,0.3,0.2,0.4,0.3l0.1,0.1l0,0.1c0.3,0.3,0.4,0.6,0.3,0.9L340.8,156.6L340.8,156.6L340.8,156.6l-0.1,0.1
	l0,0c-0.3,0.1-0.7,0-1-0.5s-0.5-0.8-0.2-1.1l0.1-0.1"/>
<path class="st2" d="M275.8,198.6v0.1c0.1,0.3,0.4,0.5,1,0.6c0.6,0,0.9-0.1,1-0.5v-0.1c0-0.3-0.3-0.5-0.9-0.6
	c-0.6-0.1-0.9,0-1.1,0.4L275.8,198.6L275.8,198.6 M275.8,198.8v-0.1l-0.5,4.5v0.2l0.1,0v0l0.2,0.2h0.1v0.1h0.1l0,0h0.1l0.1,0h0.1
	l0.1,0h0.7l0,0h0.1l0,0h0.1l0,0h0l0.1-0.1v0h0.1v-0.1h0v-0.1l0.5-4.4c-0.1,0.3-0.5,0.5-1,0.5C276.2,199.3,275.9,199.1,275.8,198.8z"
	/>
<path id="Layer7_1_MEMBER_8_MEMBER_42_1_STROKES" class="st3" d="M277.9,198.9c-0.1,0.3-0.5,0.5-1,0.5c-0.6-0.1-0.9-0.3-1-0.6v-0.1
	l-0.5,4.5v0.2l0.1,0v0l0.2,0.2h0.1v0.1h0.1l0,0h0.1l0.1,0h0.1l0.1,0h0.7l0,0h0.1l0,0h0.1l0,0h0l0.1-0.1v0h0.1v-0.1h0v-0.1
	L277.9,198.9v-0.1c0-0.3-0.3-0.5-0.9-0.6c-0.6-0.1-0.9,0-1.1,0.4v0l-0.1,0.1"/>
<path class="st2" d="M275.5,161.5c-0.2-0.2-0.6-0.1-1,0.2l-0.1,0.1c-0.3,0.3-0.4,0.6-0.4,0.9v0.1l0.2,0.1h0c0.3,0.1,0.6,0,1-0.4l0,0
	l0.1-0.1c0.3-0.3,0.4-0.6,0.3-0.9L275.5,161.5 M271,158.9L271,158.9l0,0.1l0,0v0.1l0,0.1v0.3h0v0.1h0v0l3,3.2v-0.1
	c-0.1-0.3,0-0.6,0.4-0.9l0.1-0.1c0.4-0.3,0.8-0.4,1-0.2l-3-3.2v0h0l0-0.1h-0.1v0H272v0h-0.1c-0.2,0.1-0.4,0.2-0.5,0.3h-0.1v0
	l-0.2,0.2v0L271,158.9L271,158.9z"/>
<path id="Layer7_1_MEMBER_8_MEMBER_43_1_STROKES" class="st3" d="M274,162.9l-3-3.2v0h0v-0.1h0v-0.3l0-0.1V159l0,0v0l0-0.1v0
	l0.1-0.1v0l0.2-0.2v0h0.1c0.1-0.1,0.3-0.2,0.5-0.3h0.1v0h0.2v0h0.1l0,0.1h0v0l3,3.2l0.2,0.1c0.1,0.3,0,0.5-0.3,0.9l-0.1,0.1l0,0
	c-0.4,0.3-0.8,0.5-1,0.4h0L274,162.9L274,162.9c-0.1-0.4,0-0.7,0.4-1l0.1-0.1c0.4-0.3,0.8-0.4,1-0.2"/>
<path id="Layer7_1_MEMBER_8_MEMBER_44_1_STROKES" class="st3" d="M277.2,176l0.1,4.5"/>
<path id="Layer7_1_MEMBER_8_MEMBER_45_1_STROKES" class="st3" d="M279.4,180.5l0-4.5"/>
<path id="Layer7_1_MEMBER_8_MEMBER_46_1_STROKES" class="st3" d="M277.3,180.5l2,0"/>
<path id="Layer7_1_MEMBER_8_MEMBER_47_1_STROKES" class="st3" d="M277.2,176h2.1"/>
<path class="st2" d="M332.4,122L332.4,122l-0.1-0.1L332.4,122 M333.6,120.5L333.6,120.5l0-0.1h-0.2c-0.1-0.1-0.3,0-0.5,0.1
	c-0.2,0.1-0.3,0.2-0.3,0.3l-0.2,0.2c-0.2,0.5-0.2,0.9-0.1,1l0.1,0.1l0.1,0.1h0.1c0.3,0,0.6-0.2,0.9-0.6l0-0.1l0.1-0.1
	C333.8,121,333.8,120.7,333.6,120.5 M329.4,117.8L329.4,117.8L329.4,117.8l-0.1,0.1h-0.1l-0.4,0.4h-0.1v0.1l-0.1,0.1v0l-0.1,0.2v0
	l-0.1,0v0.2l0,0v0.2l0,0v0.1l0.1,0.1v0h0v0h0l3.6,2.4c-0.1-0.1,0-0.5,0.1-1l0.2-0.2c0.1-0.1,0.2-0.2,0.3-0.3
	c0.2-0.1,0.4-0.2,0.5-0.1h0.2l-3.8-2.5h-0.1v-0.1H329.4z"/>
<path id="Layer7_1_MEMBER_8_MEMBER_48_1_STROKES" class="st3" d="M332.2,122l-3.6-2.4h0v0h0v0l-0.1-0.1v-0.1l0,0V119l0,0v-0.2l0.1,0
	v0l0.1-0.2v0l0.1-0.1v-0.1h0.1l0.4-0.4h0.1v0h0l0-0.1h0.4v0.1h0.1l3.8,2.5l0,0v0.1c0.2,0.2,0.1,0.5,0,0.9l-0.1,0.1l0,0.1
	c-0.3,0.4-0.6,0.6-0.9,0.6h-0.1l-0.1-0.1h0L332.2,122c-0.1-0.1,0-0.5,0.1-1l0.2-0.2c0.1-0.1,0.2-0.2,0.3-0.3
	c0.2-0.1,0.4-0.2,0.5-0.1h0.2 M332.4,122l-0.1-0.1"/>
<path class="st2" d="M314.4,120.5L314.4,120.5c-0.2,0.4-0.6,0.4-1.1,0.2c-0.5-0.2-0.8-0.5-0.8-0.9v-0.1l-1.6,4.2v0l-0.1,0v0.1l0.1,0
	v0.1h0v0.1l0,0v0.1h0.1v0l0.5,0.4h0l0.1,0h0.1c0.1,0.1,0.3,0.1,0.6,0.1h0.1l0.4-0.2v-0.1L314.4,120.5 M314.4,120.5L314.4,120.5
	c0-0.4-0.2-0.7-0.7-0.9c-0.5-0.2-0.9-0.2-1.1,0l-0.1,0.1v0.1c0,0.4,0.3,0.6,0.8,0.9C313.7,120.9,314.1,120.8,314.4,120.5
	L314.4,120.5z"/>
<path id="Layer7_1_MEMBER_8_MEMBER_49_1_STROKES" class="st3" d="M314.4,120.5L314.4,120.5c0-0.4-0.2-0.7-0.7-0.9
	c-0.5-0.2-0.9-0.2-1.1,0l-0.1,0.1v0.1c0,0.4,0.3,0.6,0.8,0.9C313.7,120.9,314.1,120.8,314.4,120.5L314.4,120.5l-1.6,4.2v0.1
	l-0.4,0.2h-0.1c-0.3,0-0.5,0-0.6-0.1h-0.1l-0.1,0h0l-0.5-0.4v0h-0.1v-0.1l0,0v-0.1h0v-0.1l-0.1,0V124l0.1,0v0l1.6-4.2"/>
<path class="st2" d="M346.9,140.6v0.1c0,0.3-0.3,0.5-0.8,0.6h-0.2c-0.5,0.1-0.8,0-0.9-0.2l-0.1-0.1v0l0-0.1l0.8,4.5v0.1l0,0v0h0.1
	v0.1l0,0h0.1v0.1h0v0h0.1v0h0.2l0,0.1h0.4l0-0.1h0.2l0.5-0.2h0l0.2-0.2v-0.1l0,0V145L346.9,140.6 M346.9,140.8v-0.1v-0.1
	c-0.1-0.3-0.5-0.5-1-0.4c-0.6,0.1-0.9,0.3-1,0.6v0.1l0,0.1v0l0.1,0.1c0.1,0.2,0.4,0.3,0.9,0.2h0.2
	C346.6,141.2,346.9,141,346.9,140.8z"/>
<path id="Layer7_1_MEMBER_8_MEMBER_50_1_STROKES" class="st3" d="M344.9,140.9l0,0.1v0l0.1,0.1c0.1,0.2,0.4,0.3,0.9,0.2h0.2
	c0.5-0.1,0.8-0.3,0.8-0.6v-0.1v-0.1c-0.1-0.3-0.5-0.5-1-0.4c-0.6,0.1-0.9,0.3-1,0.6V140.9l0.8,4.5v0.1l0,0v0h0.1v0.1l0,0h0.1v0.1h0
	v0h0.1v0h0.2l0,0.1h0.4l0-0.1h0.2l0.5-0.2h0l0.2-0.2v-0.1l0,0V145l-0.7-4.4"/>
<path id="Layer7_1_MEMBER_8_MEMBER_51_1_STROKES" class="st3" d="M337.5,127.3l2.7,3.6"/>
<path id="Layer7_1_MEMBER_8_MEMBER_52_1_STROKES" class="st3" d="M341.8,129.7l-2.8-3.6"/>
<path id="Layer7_1_MEMBER_8_MEMBER_53_1_STROKES" class="st3" d="M337.5,127.3l1.6-1.2"/>
<path id="Layer7_1_MEMBER_8_MEMBER_54_1_STROKES" class="st3" d="M340.1,130.9l1.7-1.2"/>
<path class="st2" d="M322.3,117.3L322.3,117.3L322.3,117.3L322.3,117.3 M322,115.3L322,115.3l-4.4,0.7l-0.1,0h0l-0.1,0h0v0.1h0v0.1
	h-0.1v0c0,0.1,0,0.2-0.1,0.4l0,0v0.1c0.1,0.5,0.2,0.8,0.4,1v0h0v0.1h0.1v0h0v0.1h0.1l0,0h0.1l4.4-0.8l0,0c-0.3,0-0.5-0.3-0.6-0.8
	v-0.2c-0.1-0.4,0-0.7,0.2-0.9l0-0.1H322 M322.8,116.2c-0.1-0.6-0.3-0.9-0.7-1h-0.1l-0.1,0h-0.1l0,0.1c-0.2,0.2-0.3,0.5-0.2,0.9v0.2
	c0.2,0.5,0.4,0.8,0.6,0.8l0,0h0.1h0C322.7,117.1,322.9,116.8,322.8,116.2z"/>
<path id="Layer7_1_MEMBER_8_MEMBER_55_1_STROKES" class="st6" d="M322.4,117.2L322.4,117.2c0.4-0.1,0.5-0.5,0.5-1
	c-0.1-0.6-0.3-0.9-0.7-1h-0.1l-0.1,0h-0.1l0,0.1c-0.2,0.2-0.3,0.5-0.2,0.9v0.2c0.2,0.5,0.4,0.8,0.6,0.8H322.4L322.4,117.2
	L322.4,117.2 M322.3,117.3l-4.4,0.7h-0.1l0,0h-0.1v-0.1h0v0h-0.1v-0.1h0v0c-0.2-0.2-0.3-0.5-0.4-1v-0.1l0,0c0.1-0.2,0.1-0.3,0.1-0.4
	v0h0.1v-0.1h0V116h0l0.1,0h0l0.1,0l4.5-0.7 M322.3,117.3L322.3,117.3"/>
<path id="Layer7_1_MEMBER_8_MEMBER_56_1_STROKES" class="st5" d="M311.3,126.5l-0.2,0.8v0l-0.5,0.9l-0.1,0.1c-0.3,0.5-0.7,1-1.2,1.5
	"/>
<path class="st2" d="M301.9,187.9l-0.1,0.1c-0.2,0.3-0.1,0.6,0.2,1.1c0.4,0.4,0.8,0.6,1.1,0.4l0.1-0.1c0.2-0.3,0-0.7-0.4-1.1
	C302.5,187.9,302.2,187.7,301.9,187.9 M306.6,186.3v-0.4l-0.3-0.5h0v-0.1l-0.2-0.2h0L306,185v0h-0.1l-0.1-0.1h-0.1l-0.1,0
	c-0.2-0.1-0.3,0-0.4,0h-0.1l-3.3,3c0.3-0.2,0.6,0,1,0.4c0.4,0.4,0.5,0.8,0.4,1.1l3.2-2.9h0.1v-0.1h0L306.6,186.3L306.6,186.3z"/>
<path id="Layer7_1_MEMBER_8_MEMBER_57_1_STROKES" class="st3" d="M303.2,189.4l3.2-2.9h0.1v-0.1h0v0l0-0.1v-0.4l-0.3-0.5h0v-0.1
	l-0.2-0.2h0L306,185v0h-0.1l-0.1-0.1h-0.1l-0.1,0c-0.2-0.1-0.3,0-0.4,0h-0.1l-3.3,3c0.3-0.2,0.6,0,1,0.4
	C303.3,188.7,303.4,189.1,303.2,189.4l-0.1,0.1c-0.3,0.1-0.7,0-1.1-0.4c-0.4-0.5-0.5-0.8-0.2-1.1l0.1-0.1"/>
<path class="st2" d="M323.8,168.8l-3.3,3c0.3-0.1,0.7,0,1,0.4c0.4,0.4,0.5,0.8,0.4,1.1l3.3-3v0h0.1v-0.1h0v-0.4h0v-0.1l-0.1,0v-0.1
	h0c-0.1-0.2-0.1-0.2-0.1-0.2l-0.1-0.1v0h0l-0.1-0.1v0h0l-0.1-0.1h0l-0.1-0.1h-0.1l0,0h-0.1C324.1,168.6,323.9,168.6,323.8,168.8
	L323.8,168.8L323.8,168.8 M320.5,171.8l-0.1,0.1c-0.2,0.3-0.1,0.7,0.3,1.1c0.4,0.4,0.7,0.6,1,0.4l0.1,0h0l0.1-0.1
	c0.2-0.3,0.1-0.7-0.4-1.1C321.1,171.8,320.8,171.6,320.5,171.8z"/>
<path id="Layer7_1_MEMBER_8_MEMBER_58_1_STROKES" class="st3" d="M320.5,171.8l-0.1,0.1c-0.2,0.3-0.1,0.7,0.3,1.1
	c0.4,0.4,0.7,0.6,1,0.4l0.1,0h0l0.1-0.1c0.2-0.3,0.1-0.7-0.4-1.1C321.1,171.8,320.8,171.6,320.5,171.8l3.3-3v0h0.1
	c0.1-0.1,0.3-0.1,0.4,0h0.1l0,0h0.1l0.1,0.1h0l0.1,0.1h0v0l0.1,0.1h0v0l0.1,0.1c0,0,0.1,0.1,0.1,0.2h0v0.1l0.1,0v0.1h0v0.4h0v0.1
	h-0.1v0l-3.3,3"/>
<path id="Layer7_1_MEMBER_8_MEMBER_59_1_STROKES" class="st5" d="M320.9,172.5l-14.6,12.8"/>
<path id="Layer7_1_MEMBER_8_MEMBER_60_1_STROKES" class="st3" d="M198.2,181.5v-0.2l0-0.1V181l-0.1-0.1v-0.1l-0.1-0.2l-0.1,0
	c-0.3-0.5-0.6-0.7-0.9-0.6"/>
<path class="st7" d="M395.9,225.1v-3.7c-0.1-0.5-0.6-0.7-1.4-0.8c-0.7,0-1.1,0.2-1.3,0.5c-0.1,0-0.1,0.1-0.1,0.1v3.7
	c0,0.2,0.2,0.4,0.5,0.5c0.2,0.1,0.5,0.2,0.8,0.2h0.2C395.3,225.8,395.7,225.5,395.9,225.1z"/>
<path class="st4" d="M439,195.1l-0.5-0.1l-0.7,0l-0.5,0.2l-9.7,5.7l-0.7-0.5c-1.1-0.5-2.3-0.8-3.6-1c-0.7-0.1-1.4-0.1-2.1-0.1
	c-2.1,0-4,0.5-5.6,1.3l-0.3,0.2l-0.2,0.2c-1.4,0.9-2.2,2-2.2,3.2c0,0.1,0,0.1,0,0.2l0,1l0,0.2c0.1,1.2,0.8,2.2,2.2,3.1l3.2,1.9
	c-0.2,0.2-0.3,0.4-0.5,0.6l-1,0.7l-7.9-4.5c-0.5-0.1-1,0-1.5,0.3c-0.5,0.3-0.9,0.7-1.2,1.2l-0.1,0.2l-1.2-0.7c0,0-0.1,0-0.1,0
	c0-0.1-0.1-0.1-0.2-0.1h0c-0.2,0-0.3,0-0.4,0.2h0l0,0.1c-0.3,0.3-0.5,0.6-0.5,1l-0.1,0.9c-0.2,1.1-0.7,2.3-1.3,3.5
	c-0.9,1.5-2,2.5-3.2,3.2l-0.3,0.2l-4.8-2.7h-0.5v0l-0.2,0.1l-14.2,8.2v1l17.3,10l13.9-8h0.8l0.2,0.6l0.2,0.5c0.4,0.9,1,1.5,1.9,1.7
	c0.8,0.2,1.7,0.1,2.5-0.4l1.1-0.5c1-0.7,2-1.7,2.8-2.9c0.2-0.3,0.3-0.5,0.5-0.8c0.5-0.9,1-1.9,1.2-2.8l0.5-1.5l0.9,1.9
	c0,0.1,0.1,0.1,0.2,0.2c0,0.1,0.1,0.1,0.1,0.2l0.1,0.1l0.3,0.2l0.2,0c0.2,0,0.3,0,0.4,0c0.2,0,0.3,0,0.5-0.1l1-0.1l3.7,2.1
	c0.1,0.1,0.3,0.2,0.5,0.2c0.4,0.2,0.9,0.3,1.5,0.2c1.1-0.1,2.2-0.6,3.2-1.5l0.3-0.3v1.5l4.9-2.7l-0.5,0.4l0.4,0.4l7.8,4.5
	c2.1,1.3,4.9,1.7,8.3,1.1c3.7-0.6,5.8-2.1,6.2-4.5l-0.1-0.2l0.1-0.4c0-0.1,0-0.3,0-0.5c0,0,0-0.1,0-0.2c0-1.2-0.7-2.2-2-3.1
	l-0.2-0.2l-7.3-4.2l-0.2-0.2l3.8-2.2v-6.5c0-0.3-0.2-0.6-0.4-1v0l0,0l-0.3-0.4c0,0-0.1-0.1-0.2-0.1c-0.1-0.1-0.2-0.2-0.2-0.2
	L439,195.1 M419.2,203.5l0.2-0.1l0.1-0.2c0.4-0.2,0.8-0.4,1.4-0.5c0.5-0.1,1,0,1.4,0.1l0.5,0.5l-1.8,1.1l-0.5,0.5v0.1l-0.1,0v0.1
	l-0.6-0.1C418.9,204.7,418.7,204.1,419.2,203.5 M451.8,223.7c-1.2-0.4-1.4-1.1-0.6-1.9l0.5-0.3l0.2-0.1c0.9-0.4,1.9-0.4,3,0.1
	c1.1,0.5,1.2,1.2,0.3,2l-0.3,0.2C454,224.2,453,224.2,451.8,223.7 M396,221.4L396,221.4v3.7c-0.1,0.4-0.6,0.7-1.4,0.7h-0.1
	c-0.3,0-0.6-0.1-0.8-0.2c-0.3-0.1-0.5-0.3-0.5-0.5v-3.7c0-0.1,0.1-0.1,0.1-0.1c0.2-0.4,0.6-0.5,1.3-0.5
	C395.4,220.7,395.9,220.9,396,221.4z"/>
<path class="st8" d="M451.8,223.7c1.2,0.5,2.1,0.5,3,0l0.3-0.2c0.9-0.8,0.8-1.4-0.3-2c-1.1-0.5-2.1-0.5-3-0.1l-0.2,0.1l-0.4,0.3
	C450.4,222.6,450.6,223.3,451.8,223.7 M419.3,203.5l-0.1,0.1c-0.5,0.6-0.4,1.2,0.4,1.7l0.7,0.1v-0.1l0,0v-0.1l0.6-0.5l1.8-1.1
	l-0.5-0.5c-0.5-0.1-1-0.1-1.5-0.1c-0.5,0.1-1,0.2-1.3,0.5L419.3,203.5 M440.2,193l-0.9-0.5l-1.1-0.5c-2-0.8-4.6-1-7.7-0.8l-3.9,0.5
	l-4,1c-2,0.8-3.6,1.4-4.6,1.8c-1.9,0.7-3.5,1.2-4.8,1.3l-3.2,0.2c-1.5,0.1-2.7,0.9-3.8,2.2c-1,1.3-1.5,2.7-1.6,4.2l-0.1,2.8l0.6,3
	l1.1,0.7l0.1-0.2c0.3-0.5,0.7-0.9,1.1-1.2c0.5-0.4,1-0.5,1.5-0.3l8,4.5l0.9-0.7c0.2-0.2,0.4-0.5,0.5-0.6l-3.2-1.9
	c-1.4-0.9-2.2-1.9-2.2-3.1l0-0.2l0-1c0,0,0-0.1,0-0.2c0.1-1.2,0.8-2.3,2.2-3.2l0.2-0.2l0.3-0.2c1.6-0.8,3.5-1.3,5.7-1.3
	c0.7,0,1.4,0,2,0.1c1.3,0.2,2.5,0.5,3.6,1l0.7,0.5l9.8-5.7l0.5-0.2l0.7,0l0.4,0.1l15.9,9.2c0,0,0.1,0.1,0.2,0.2
	c0.1,0.1,0.2,0.1,0.2,0.1l0.3,0.4v0l0,0c0.2,0.4,0.3,0.7,0.3,1v6.5l-3.8,2.2l7.5,4.4l0.2,0.2c1.3,0.9,2,2,2,3.1c0,0.1,0,0.1,0,0.2
	c0,0.2,0,0.3,0,0.5l0,0.4l0,0.2c-0.4,2.4-2.4,3.9-6.1,4.5c-3.4,0.6-6.2,0.2-8.4-1.1l-7.8-4.5l-0.4-0.4l0.5-0.4l-4.9,2.7v-1.5
	l-0.3,0.3c-1.1,0.9-2.2,1.4-3.2,1.5c-0.6,0.1-1.1,0-1.5-0.2c-0.1-0.1-0.3-0.2-0.4-0.2l-3.8-2.1l-1,0.1c-0.2,0.1-0.3,0.1-0.5,0.1
	c-0.1,0-0.3,0-0.5,0l-0.1,0l-0.3-0.2l-0.1-0.1c-0.1-0.1-0.1-0.2-0.1-0.2c-0.1-0.1-0.1-0.2-0.2-0.2l-0.9-1.9l-0.6,1.5
	c-0.3,1-0.7,1.9-1.2,2.8l3.1,3.9c3.1,3.2,7.7,5.4,13.7,6.6l3.5,0.4c1.6,0.3,4.5,0.1,8.7-0.4c3.6-0.5,6.5-0.4,8.6,0.4l1.8,0.5
	l1.7,0.1l1.5-0.4l1.1-1l0.8-1.4l0.8-3.5l0.3-3.4c0.1-1.6,0-3.4-0.2-5.6c-0.2-1.2-0.5-3.1-0.9-5.7l-0.1-0.6l-0.2-0.5
	c-0.4-1.2-0.7-2.1-1-2.8c-0.4-1.1-0.8-2-1.1-2.7L461,206c-0.3-0.3-0.7-0.6-1.3-1c-0.6-0.4-1.1-0.7-1.4-1l-1.4-1.8
	c-0.9-1.2-1.5-1.8-1.6-2c-0.5-0.7-1.1-1.2-1.8-1.7l-0.4-0.2l-5.5-2.2c-1.7-0.6-3-1.1-3.9-1.4C442.3,194.2,441.1,193.6,440.2,193z"/>
<path class="st4" d="M406.2,164c0.1-0.3,0.3-0.6,0.5-0.9c0.2-0.3,0.4-0.6,0.5-0.9l-8.5-4.9c-0.2,0-0.4,0.1-0.5,0.3
	c-0.1,0.2-0.1,0.4,0.1,0.6c-0.2,0-0.4,0.1-0.6,0.3c-0.2,0.3-0.1,0.5,0.1,0.8L406.2,164 M453.2,190.5L453.2,190.5L453.2,190.5
	c0.1-0.3,0.1-0.5,0-0.5c0.2,0,0.4,0,0.5-0.2c0.2-0.3,0.2-0.5,0-0.7l0,0l-16.1-9.3c-0.2-0.1-0.5-0.1-0.6,0.1
	c-0.1,0.1-0.3,0.3-0.5,0.6c-0.3,0.7-0.3,1.1,0.2,1.2l16,9.2C452.9,190.8,453.1,190.7,453.2,190.5z"/>
<path class="st2" d="M410,159.3c-0.2,0.1-0.3,0.3-0.5,0.4c-0.8,0.6-1.6,1.5-2.3,2.5c-0.2,0.3-0.4,0.6-0.6,0.9
	c-0.2,0.3-0.3,0.6-0.5,0.9c-0.7,1.4-1,2.7-1.1,3.9c-0.1,1.7,0.4,3,1.4,3.8l4,2.3c0.1,0.1,0.3,0.2,0.5,0.3c0.5,0.2,1,0.3,1.8,0.3
	l1-0.2l13.8,8c0.2,0.9,0.6,1.7,1.3,2.2l4.5,2.5c0.7,0.4,1.5,0.5,2.3,0.2c1.3-0.3,2.6-1.3,4-2.8l0.8-0.9l-3.6-2.1
	c-0.4-0.1-0.5-0.5-0.2-1.2c0.1-0.3,0.3-0.5,0.4-0.6c0.2-0.2,0.5-0.3,0.7-0.2l3.8,2.2l0.5-1c0.6-2,0.8-3.6,0.4-4.9
	c-0.2-0.9-0.7-1.5-1.4-1.9l-4.4-2.5c-0.8-0.3-1.6-0.3-2.5,0l-14-8l-0.1-0.4l-0.2-0.5c-0.3-0.6-0.7-1-1.2-1.3
	c-0.1-0.1-0.2-0.1-0.3-0.2l-4.2-2.4C412.8,158.2,411.5,158.4,410,159.3z"/>
<path id="Layer7_2_MEMBER_5_1_STROKES" class="st9" d="M447.5,226.4l-7.5-4.4"/>
<path id="Layer7_2_MEMBER_6_1_STROKES" class="st9" d="M447.2,227.2l0.3,0.2c2.1,1.3,4.9,1.6,8.3,1.1c3.7-0.6,5.7-2.1,6.1-4.5l0-0.2
	"/>
<path id="Layer7_2_MEMBER_7_1_STROKES" class="st9" d="M447.2,227.2l-7-4.1"/>
<path id="Layer7_2_MEMBER_8_1_STROKES" class="st9" d="M439.7,222l-4.8,2.8"/>
<path id="Layer7_2_MEMBER_9_1_STROKES" class="st9" d="M415.4,208.8l-0.3-0.2c-1.4-0.9-2.2-1.9-2.2-3.1l0-0.2"/>
<path id="Layer7_2_MEMBER_10_1_STROKES" class="st9" d="M415.4,208.8l2.5,1.5"/>
<path id="Layer7_2_MEMBER_11_1_STROKES" class="st9" d="M417.5,211.6l0.3-0.4c1.2-1.5,2-3.2,2.4-5"/>
<path id="Layer7_2_MEMBER_12_1_STROKES" class="st9" d="M428.5,220.7l0.7,1.9l0.2,0.4c0.5,0.7,1.1,1,1.9,1.1c0.7,0,1.4-0.2,2.2-0.6
	l0.9-0.6c0.9-0.7,1.6-1.5,2.2-2.6c0.6-1,1.1-2.1,1.3-3.1l0.1-0.6"/>
<path id="Layer7_2_MEMBER_13_1_STROKES" class="st9" d="M412,225.5l0.1,0.4c0.3,0.9,0.8,1.5,1.6,1.7c0.7,0.2,1.5,0.1,2.4-0.3
	l0.9-0.5c1-0.7,1.9-1.7,2.6-2.9c0.8-1.2,1.2-2.5,1.4-3.7l0.1-0.6"/>
<path id="Layer7_2_MEMBER_14_1_STROKES" class="st9" d="M424.8,218.6c-0.6,0.4-0.9,1-1,1.9c-0.1,0.9,0.3,1.2,1.1,0.9l0.2-0.2
	c0.6-0.3,1-0.9,1.1-1.8c0.1-0.9-0.2-1.3-1-1.1l-0.1,0.1l-0.1,0.1L424.8,218.6L424.8,218.6z"/>
<path id="Layer7_2_MEMBER_15_1_STROKES" class="st9" d="M427.8,221.6l0.7,1.7c0.6,1.2,1.5,1.8,2.8,1.7c1.1-0.1,2.2-0.6,3.2-1.5
	l0.3-0.3"/>
<path id="Layer7_2_MEMBER_16_1_STROKES" class="st9" d="M411.2,226.3l0.1,0.4l0.2,0.5c0.4,0.9,1,1.5,1.9,1.7
	c0.8,0.2,1.6,0.1,2.6-0.4l1.1-0.6c1-0.7,1.9-1.7,2.8-2.8c0.8-1.2,1.3-2.4,1.7-3.6l0.3-1.2"/>
<path id="Layer7_2_MEMBER_17_1_STROKES" class="st9" d="M423.1,222l-1-2.1"/>
<path id="Layer7_2_MEMBER_18_1_STROKES" class="st9" d="M423.8,221.2l-1.3-2.6"/>
<path id="Layer7_2_MEMBER_19_1_STROKES" class="st9" d="M426.7,222.3l-2.5,0.3"/>
<path id="Layer7_2_MEMBER_20_1_STROKES" class="st9" d="M427.5,221.6l-0.9,0.7"/>
<path id="Layer7_2_MEMBER_21_1_STROKES" class="st9" d="M456,212.6v-6.4"/>
<path id="Layer7_2_MEMBER_22_1_STROKES" class="st9" d="M456,212.6l-3.6,2.1"/>
<path id="Layer7_2_MEMBER_23_1_STROKES" class="st9" d="M421.6,205.7l15.7,9.1"/>
<path id="Layer7_2_MEMBER_24_1_STROKES" class="st9" d="M454.9,204.3l-15.9-9.2"/>
<path id="Layer7_2_MEMBER_25_1_STROKES" class="st9" d="M437.4,195.2l-16.3,9.4"/>
<path id="Layer7_2_MEMBER_26_1_STROKES" class="st9" d="M454.5,205.8l-15.4,8.9"/>
<path id="Layer7_2_MEMBER_27_1_STROKES" class="st9" d="M434.9,224.8v-2.5"/>
<path id="Layer7_2_MEMBER_28_1_STROKES" class="st9" d="M459.4,219.1l-7-4.1"/>
<path id="Layer7_2_MEMBER_29_1_STROKES" class="st9" d="M451.3,221.9c-0.8,0.8-0.6,1.5,0.6,1.9c1.2,0.5,2.1,0.4,3,0l0.3-0.2
	c0.9-0.8,0.8-1.4-0.3-2c-1.1-0.5-2.1-0.6-3-0.1l-0.2,0.1L451.3,221.9z"/>
<path id="Layer7_2_MEMBER_30_1_STROKES" class="st9" d="M447.2,226.2l0.6,0.3c1.7,0.8,3.6,1.2,5.7,1.2c2.2,0,4-0.5,5.6-1.3l0.6-0.3
	c1.4-0.9,2.2-2,2.2-3.2c0.1-1.2-0.6-2.4-2-3.3l-0.2-0.2l-0.3-0.2"/>
<path id="Layer7_2_MEMBER_31_1_STROKES" class="st9" d="M419.9,205.4l-0.2-0.1c-0.8-0.5-1-1.1-0.4-1.7l0.2-0.1l0.1-0.1
	c0.4-0.2,0.8-0.4,1.4-0.5c0.5-0.1,1,0,1.5,0.1l0.4,0.1"/>
<path id="Layer7_2_MEMBER_32_1_STROKES" class="st9" d="M415.4,207.9l-0.6-0.4c-1.4-1-2-2.1-2-3.3c0.1-1.2,0.8-2.3,2.2-3.2l0.3-0.2
	l0.3-0.2c1.6-0.9,3.5-1.3,5.6-1.3c2.1,0,4,0.3,5.7,1.1l0.6,0.3"/>
<path id="Layer7_2_MEMBER_33_1_STROKES" class="st9" d="M415.4,207.9l3.1,1.7"/>
<path id="Layer7_2_MEMBER_34_1_STROKES" class="st9" d="M379.1,223v1"/>
<path id="Layer7_2_MEMBER_35_1_STROKES" class="st9" d="M379.1,223l17.4,10v1"/>
<path id="Layer7_2_MEMBER_36_1_STROKES" class="st9" d="M379.1,224l17.4,10l13.9-8"/>
<path id="Layer7_2_MEMBER_38_1_STROKES" class="st9" d="M422.5,218.5c-0.2-0.2-0.4-0.2-0.7,0l-0.1,0.1h0l-0.3,0.4l-0.1,0.1l-0.2,0.5
	"/>
<path id="Layer7_2_MEMBER_39_1_STROKES" class="st9" d="M426.7,221.3l-2.2,0.3"/>
<path id="Layer7_2_MEMBER_40_1_STROKES" class="st9" d="M427.6,220.6l-0.9,0.7"/>
<path id="Layer7_2_MEMBER_42_1_STROKES" class="st9" d="M428.5,220.6L428.5,220.6L428.5,220.6L428.5,220.6l-0.1-0.1h0l0,0h0l0,0
	h-0.1v0H428v0h-0.1l0,0h-0.1v0h-0.1l-0.1,0.1l0,0"/>
<path id="Layer7_2_MEMBER_43_1_STROKES" class="st9" d="M396.4,233l14.2-8.2"/>
<path id="Layer7_2_MEMBER_44_1_STROKES" class="st9" d="M411.1,226.1L411.1,226.1L411.1,226.1L411.1,226.1L411,226v0h0l0,0h0l0,0
	h-0.1l0,0h-0.1l0,0h-0.1l0,0"/>
<path id="Layer7_2_MEMBER_45_1_STROKES" class="st9" d="M411.9,225.3l-0.1-0.3l0,0v0c-0.1-0.1-0.1-0.2-0.2-0.2l0,0h0
	c-0.1-0.1-0.2-0.1-0.4-0.1c-0.2,0-0.3,0.1-0.4,0.1"/>
<path id="Layer7_2_MEMBER_46_1_STROKES" class="st9" d="M398.8,217.3l0.3-0.2c1.2-0.7,2.3-1.8,3.1-3.2c0.9-1.4,1.4-2.8,1.5-4.2"/>
<path id="Layer7_2_MEMBER_47_1_STROKES" class="st9" d="M409,207.3c-0.5-0.1-1,0-1.5,0.3c-0.5,0.3-0.8,0.7-1.1,1.2l-0.1,0.2"/>
<path id="Layer7_2_MEMBER_48_1_STROKES" class="st9" d="M405.1,208.4c-0.1-0.1-0.2-0.1-0.3-0.1h0c-0.2,0-0.3,0-0.4,0.2h0l-0.1,0.1
	c-0.4,0.3-0.5,0.7-0.6,1"/>
<path id="Layer7_2_MEMBER_49_1_STROKES" class="st9" d="M379.1,223l14.3-8.2"/>
<path id="Layer7_2_MEMBER_50_1_STROKES" class="st9" d="M394,214.6h-0.3l0,0h-0.1l0,0l-0.2,0.1"/>
<path id="Layer7_2_MEMBER_51_1_STROKES" class="st9" d="M411.6,224.7l-17.4-10"/>
<path id="Layer7_2_MEMBER_52_1_STROKES" class="st9" d="M422.3,218.3l-17.4-10"/>
<path id="Layer7_2_MEMBER_53_1_STROKES" class="st9" d="M426.5,217.4l-17.4-10"/>
<path id="Layer7_2_MEMBER_54_1_STROKES" class="st9" d="M429.8,224.8l-3.4-2"/>
<path id="Layer7_2_MEMBER_55_1_STROKES" class="st9" d="M428.3,220.5l-0.8-0.5"/>
<path id="Layer7_2_MEMBER_56_1_STROKES" class="st9" d="M456,206.1c0-0.3-0.1-0.6-0.3-1l0,0v0l0,0l-0.3-0.4l0,0c0,0-0.1-0.1-0.2-0.2
	c-0.1-0.1-0.2-0.1-0.2-0.1"/>
<path id="Layer7_2_MEMBER_57_1_STROKES" class="st9" d="M438.7,195l-0.7,0l0,0h-0.2l0,0h-0.1l0,0"/>
<path id="Layer7_2_MEMBER_58_1_STROKES" class="st9" d="M412.8,205.3v-1"/>
<path id="Layer7_2_MEMBER_59_1_STROKES" class="st9" d="M413.3,209.8c-0.5-0.1-1,0-1.5,0.3c-0.4,0.3-0.8,0.7-1.1,1.2l-0.1,0.2"/>
<path id="Layer7_2_MEMBER_60_1_STROKES" class="st9" d="M421.9,214.8c-0.5-0.1-1,0-1.5,0.3c-0.5,0.3-0.8,0.7-1.1,1.2l-0.1,0.2"/>
<path id="Layer7_2_MEMBER_61_1_STROKES" class="st9" d="M462,223.6v-1"/>
<path id="Layer7_2_MEMBER_62_1_STROKES" class="st9" d="M452.3,214.8v0.2h0"/>
<path id="Layer7_2_MEMBER_63_1_STROKES" class="st9" d="M450.9,215.7l-10.2,5.9"/>
<path id="Layer7_2_MEMBER_64_1_STROKES" class="st9" d="M439.3,222.5l0.4,0.4l0.3,0.2"/>
<path id="Layer7_2_MEMBER_65_1_STROKES" class="st9" d="M394.7,220.8c-0.6,0-1,0.1-1.1,0.5v0.2c0.1,0.4,0.5,0.5,1.1,0.5
	c0.6,0,0.9-0.2,1-0.6v-0.1C395.6,221,395.3,220.8,394.7,220.8z"/>
<path id="Layer7_2_MEMBER_66_1_STROKES" class="st9" d="M393.2,221.6v3.6c0,0.2,0.2,0.4,0.5,0.6c0.2,0.1,0.5,0.2,0.8,0.2l0.1,0h0.1
	c0.8,0,1.3-0.3,1.4-0.7"/>
<path id="Layer7_2_MEMBER_67_1_STROKES" class="st9" d="M393.2,223.9c0.1,0.5,0.6,0.8,1.4,0.8c0.9,0,1.4-0.3,1.4-0.8"/>
<path id="Layer7_2_MEMBER_68_1_STROKES" class="st9" d="M393.2,222.8c0.1,0.5,0.6,0.8,1.4,0.8c0.9,0,1.4-0.3,1.4-0.8"/>
<path id="Layer7_2_MEMBER_69_1_STROKES" class="st9" d="M396.1,221.6v3.6"/>
<path id="Layer7_2_MEMBER_70_1_STROKES" class="st9" d="M394.7,220.8c-0.8,0-1.3,0.2-1.4,0.7v0.2l0,0.1c0.2,0.4,0.7,0.7,1.5,0.7
	c0.8,0,1.2-0.3,1.3-0.8v-0.1l0-0.1C395.9,221,395.5,220.8,394.7,220.8z"/>
<path id="Layer7_2_MEMBER_71_1_STROKES" class="st9" d="M438.7,215.1l-0.2,0.3h0v0l0,0c-0.2,0.3-0.3,0.6-0.3,0.9"/>
<path id="Layer7_2_MEMBER_72_1_STROKES" class="st9" d="M420.8,204.8L420.8,204.8L420.8,204.8L420.8,204.8l-0.1,0.1l-0.2,0.3l0,0v0
	l-0.1,0.1v0.1l-0.1,0.1v0l0,0v0.1l0,0v0l-0.1,0.3"/>
<path id="Layer7_2_MEMBER_73_1_STROKES" class="st9" d="M421.4,224.4l0.4,0.6l1.6,1.8c3.2,3.2,7.7,5.4,13.7,6.6l3.6,0.4
	c1.6,0.3,4.5,0.1,8.7-0.4c3.7-0.5,6.5-0.3,8.6,0.4l1.8,0.5l1.6,0.2l1.5-0.5l1.2-1l0.7-1.4l0.5-1.7l0.6-4.1c0.1-1.6,0.1-3.4-0.2-5.6
	c-0.1-1.1-0.4-3-0.9-5.7l-0.1-0.6l-0.2-0.5c-0.4-1.2-0.7-2.1-1-2.8c-0.4-1.1-0.8-2-1.2-2.7l-0.5-0.9l-0.7-0.9
	c-0.2-0.3-0.7-0.6-1.3-1c-0.6-0.4-1.1-0.7-1.3-1l-1.5-1.8c-0.9-1.2-1.4-1.8-1.5-1.9c-0.6-0.7-1.2-1.2-1.8-1.7l-0.4-0.2l-5.5-2.2
	c-1.7-0.6-3-1-3.9-1.4c-1.5-0.6-2.7-1.2-3.6-1.8l-0.9-0.6l-1.1-0.5c-2.1-0.8-4.6-1-7.7-0.7l-3.9,0.5l-4.1,1.1
	c-2,0.8-3.6,1.4-4.6,1.8c-1.9,0.7-3.5,1.2-4.8,1.3l-3.3,0.2c-1.5,0.1-2.7,0.8-3.8,2.2c-1,1.2-1.5,2.6-1.7,4.2l-0.1,1.5l0.2,1.4
	l0.4,1.2l0.2,0.3"/>
<path id="Layer7_2_MEMBER_74_1_STROKES" class="st9" d="M404.5,203.9l0,1.5l0.2,1.4l0.2,0.6"/>
<path id="Layer7_2_MEMBER_75_1_STROKES" class="st9" d="M420.9,225.1l2.5,3c3.1,3.2,7.7,5.4,13.7,6.6l3.6,0.4
	c1.6,0.3,4.5,0.1,8.7-0.4c3.7-0.5,6.5-0.3,8.6,0.4l1.8,0.5l1.7,0.2l1.5-0.4l1.2-1.1l0.8-1.4l0.8-3.6"/>
<path id="Layer7_2_MEMBER_76_1_STROKES" class="st9" d="M465.8,225.9l-0.3,3.4"/>
<path id="Layer7_2_MEMBER_77_1_STROKES" class="st9" d="M438.4,203.8L438.4,203.8c0.2,0.5,0.7,0.7,1.5,0.7c0.8,0,1.3-0.3,1.3-0.7
	v-0.2c-0.1-0.5-0.6-0.7-1.4-0.7c-0.8,0-1.3,0.2-1.4,0.7l0,0.1V203.8z"/>
<path id="Layer7_2_MEMBER_78_1_STROKES" class="st3" d="M434.1,171.5l-16-9.3l-0.1,0c-1-0.2-2.1,0.1-3.3,0.9c-1,0.8-1.9,1.8-2.7,3.2
	c-0.7,1.4-1.2,2.6-1.2,3.9c-0.1,1.4,0.3,2.4,1.2,3.1l15.7,9.1"/>
<path id="Layer7_2_MEMBER_79_1_STROKES" class="st3" d="M441.5,181.9l0.4-1c0.6-2,0.8-3.6,0.4-4.9c-0.3-1.1-1-1.8-2-2.1
	c-1-0.3-2.1-0.1-3.2,0.6c-1.3,0.7-2.4,1.8-3.4,3.4l-0.7,1.3c-0.8,1.6-1.2,3.1-1.2,4.6c0,1.4,0.4,2.4,1.1,3.1
	c0.7,0.7,1.7,0.9,2.8,0.7c1.3-0.4,2.6-1.3,4-2.8l0.7-0.9"/>
<path id="Layer7_2_MEMBER_80_1_STROKES" class="st9" d="M437.8,179.8c-0.4-0.2-0.8,0.1-1.1,0.7c-0.3,0.6-0.3,1,0.2,1.2"/>
<path id="Layer7_2_MEMBER_81_1_STROKES" class="st3" d="M441,174.1l-4.4-2.6c-1.2-0.5-2.6-0.2-4,0.7c-1.3,0.9-2.4,2.1-3.4,3.8
	c-1,1.7-1.5,3.3-1.6,4.8c-0.1,1.7,0.4,3,1.4,3.8l0.2,0.1l4.3,2.5"/>
<path id="Layer7_2_MEMBER_82_1_STROKES" class="st3" d="M420.1,163.4l-0.1-0.4l-0.2-0.5c-0.9-1.8-2.4-2.2-4.4-1.2
	c-1.7,0.8-3,2-4,3.6l-0.7,1.3c-1,1.6-1.4,3.4-1.2,5.3c0.2,2.2,1.3,3.3,3.3,3.2l1-0.2"/>
<path id="Layer7_2_MEMBER_83_1_STROKES" class="st3" d="M418.7,161.3l-4.5-2.6c-1.2-0.5-2.6-0.2-4,0.7c-1.3,0.9-2.4,2.1-3.4,3.8
	c-1,1.7-1.5,3.3-1.6,4.8c-0.1,1.7,0.4,3,1.4,3.8l4.4,2.6"/>
<path id="Layer7_2_MEMBER_84_1_STROKES" class="st9" d="M407.4,162.3l-8.4-4.9"/>
<path id="Layer7_2_MEMBER_85_1_STROKES" class="st9" d="M453.8,189.1l-16-9.3"/>
<path id="Layer7_2_MEMBER_86_1_STROKES" class="st9" d="M406.4,164.1l-8.2-4.7"/>
<path id="Layer7_2_MEMBER_87_1_STROKES" class="st9" d="M452.8,190.9l-16-9.2"/>
<path id="Layer7_2_MEMBER_88_1_STROKES" class="st9" d="M426.4,217.4c-1-0.4-1.9,0.2-2.7,1.6c-0.9,1.4-1,2.5-0.4,3.3l0.1,0.1
	l0.3,0.2l0.2,0.1c1,0.2,1.9-0.4,2.7-1.8c0.8-1.4,0.9-2.5,0.2-3.2L426.4,217.4z"/>
<path id="Layer7_2_MEMBER_89_1_STROKES" class="st9" d="M453.8,189.1L453.8,189.1L453.8,189.1c-0.3-0.1-0.6-0.1-0.7,0.2
	c-0.2,0.2-0.1,0.5,0.1,0.7l0,0.1h0c0.2,0.1,0.5,0.1,0.7-0.2C454.1,189.6,454.1,189.3,453.8,189.1L453.8,189.1z"/>
<path id="Layer7_2_MEMBER_90_1_STROKES" class="st9" d="M452.9,190.9c0.2,0,0.3-0.1,0.4-0.3l0-0.1l0,0c0-0.2,0-0.4-0.1-0.5"/>
<path id="Layer7_2_MEMBER_91_1_STROKES" class="st9" d="M398.7,158.3L398.7,158.3c-0.3-0.1-0.6,0-0.7,0.3c-0.2,0.3-0.1,0.5,0.1,0.7
	l0.1,0.1l0,0h0.1c0.3,0.1,0.5-0.1,0.6-0.4C399.1,158.7,399,158.5,398.7,158.3L398.7,158.3z"/>
<path id="Layer7_2_MEMBER_92_1_STROKES" class="st9" d="M398.9,157.4c-0.2,0-0.4,0.1-0.5,0.3s-0.1,0.4,0.2,0.6"/>
<path id="Layer7_2_MEMBER_93_1_STROKES" class="st10" d="M423.4,213.5v-5.6"/>
<path id="Layer7_2_MEMBER_94_1_STROKES" class="st10" d="M423.4,206v-1.9"/>
<path id="Layer7_2_MEMBER_95_1_STROKES" class="st10" d="M423.4,202.3v-11.2"/>
<path id="Layer7_2_MEMBER_96_1_STROKES" class="st10" d="M423.4,189.3v-1.8"/>
<path id="Layer7_2_MEMBER_97_1_STROKES" class="st10" d="M423.4,185.6V180"/>
<path id="Layer7_2_MEMBER_98_1_STROKES" class="st9" d="M397,223.4l-1.3-0.7"/>
<path id="Layer7_2_MEMBER_99_1_STROKES" class="st9" d="M393.4,221.3l-1.2-0.7"/>
<path id="Layer7_2_MEMBER_100_1_STROKES" class="st9" d="M442.3,205.1l-1.4-0.8"/>
<path id="Layer7_2_MEMBER_101_1_STROKES" class="st9" d="M438.9,203.1l-1.3-0.8"/>
<path id="Layer7_2_MEMBER_102_1_STROKES" class="st3" d="M437.1,179.9l-0.8-4.8"/>
<path id="Layer7_2_MEMBER_103_1_STROKES" class="st3" d="M431.4,173.2l-17.1-9.8"/>
<path id="Layer7_2_MEMBER_104_1_STROKES" class="st3" d="M414,162.3l-4.3-2.5"/>
<path id="Layer7_2_MEMBER_105_1_STROKES" class="st3" d="M436.3,175.1l-4.2-2.4"/>
<path id="Layer7_2_MEMBER_106_1_STROKES" class="st11" d="M414.3,163.5l-0.2-1.2"/>
<path class="st8" d="M91.5,108.6l-1.7-0.9l-0.7-0.2h-0.5c-0.6,0.1-1.1,0.5-1.5,1.2c-0.2,0.3-0.5,0.9-0.9,1.8l-0.9,2.8
	c-0.2,0.7-0.3,1.2-0.2,1.5c0,0.2,0.2,0.7,0.4,1.2v0.5l-0.3,0.8l-1.2,1.9c-0.6,1.1-0.7,1.9-0.2,2.3c0.2,0.2,0.7,0.5,1.4,0.9l0,0
	c0,0,0.1,0,0.1,0c0.1,0,0.1,0.1,0.2,0.1l0.1,0.1c0.1,0,0.1,0.1,0.2,0.1h0l0.5,0.6l0.1,0.9c0,0.3-0.1,1.1-0.4,2.3
	c-0.2,0.9-0.2,1.7,0,2.3l0.2,0.5l0.3,0.5l0.3,0.3l0.7,0.4c0.2,0.1,0.4,0.2,0.6,0.2c0.4,0.1,1-0.1,1.6-0.5l1.8-1.1l0.4-0.4
	c0.6-0.8,1.3-1.5,2.1-2c1.4-0.8,2.2-1.2,2.4-1.4l0.6-0.7l0.4-0.8l0.1-0.9l0.1-1.6l0.1-0.5l0.1-0.2l0.6-0.5l1.6-1.8
	c0.7-0.9,1-1.5,0.8-1.8c-0.6-0.4-1.1-0.7-1.5-1.1l-1.3-1.5C96.4,112.1,94.2,110.2,91.5,108.6 M92.1,119.4c-0.4,0.6-0.8,1-1.4,1.1
	c-0.3-0.4-0.2-1,0.3-1.8c0.4-0.7,0.9-1,1.4-1C92.6,118.2,92.6,118.7,92.1,119.4z"/>
<path class="st4" d="M59.6,168.2c-1.3-2.4-2.9-4.2-4.7-5.5c-2-1.4-3.9-1.9-5.7-1.3l-3.3,1.9c0,0-0.1,0-0.1,0
	c-1.5,1.1-2.2,2.8-2.1,5.2c0,2.1,0.7,4.4,2,6.8c1.3,2.4,2.9,4.2,4.7,5.5c2,1.5,3.9,1.9,5.7,1.3l0.3-0.1c0.1-0.1,0.2-0.1,0.3-0.2
	l1.1-0.5L58,181h0.1l1.2-0.8c1.6-1.1,2.4-2.8,2.2-5.2C61.5,172.9,60.8,170.6,59.6,168.2 M101.9,142.3c-1-1.4-2.1-1.9-3.2-1.6l-0.2,0
	l-10.1,5.8c-0.9-0.9-1.8-1.7-2.8-2.3c-2-1.2-3.9-1.4-5.6-0.6l-18.7,10.8c1,0.1,2.1,0.6,3.3,1.3c2,1.3,3.8,3.3,5.3,5.9
	c1.5,2.6,2.3,5.2,2.4,7.6c0.1,1.6-0.1,2.9-0.8,4l19.7-11.4c1.4-1.3,1.9-3.1,1.7-5.6c-0.1-0.9-0.3-1.9-0.6-2.8l10.3-6
	c1-0.8,1-2,0.2-3.7l9.4-5.5l-0.9-0.3v-1.2L101.9,142.3z"/>
<path class="st12" d="M72.3,169.1c-0.1-2.4-0.9-4.9-2.4-7.5c-1.5-2.6-3.3-4.6-5.4-6c-1.1-0.7-2.2-1.1-3.3-1.2c-1-0.1-2,0-2.9,0.5
	L58,155l-1.8,1l-0.1-7.3c-0.1-1.2-0.6-2-1.3-2.5l-1.1-0.7c-0.1,0-0.1-0.1-0.1-0.1c-1.7-0.8-3.4-0.1-5.2,2c-1.8,2.1-2.7,4.1-2.6,6
	l-0.1,0.3l0.1,9.5l0.1,0l3.3-1.9c1.8-0.6,3.7-0.1,5.7,1.4c1.8,1.3,3.3,3.1,4.6,5.5c1.3,2.4,2,4.6,2.1,6.8c0.1,2.4-0.7,4.1-2.3,5.2
	l-1.2,0.7l0.4,0l1.3-0.2l9.9-5.6l0.2-0.2c0.7-0.5,1.3-1.1,1.6-1.8C72.1,172,72.4,170.7,72.3,169.1 M51.9,150l-0.1,0.5
	c0,0.4-0.2,0.9-0.4,1.2c-0.3,0.4-0.6,0.8-0.9,1l-0.2,0.3c-0.2-0.4-0.1-1,0.4-1.7C50.9,150.5,51.4,150.1,51.9,150z"/>
<path class="st8" d="M144.1,132c1.6-1.3,2.3-3.2,2.1-5.8c-0.1-2.4-0.9-4.9-2.4-7.4c-1.5-2.5-3.2-4.4-5.2-5.8c-2.2-1.5-4.2-1.8-6-1.1
	l-10,5.8c0,0-0.1,0.1-0.1,0.1c-0.1,0-0.2,0.1-0.4,0.2c-1,0.7-1.6,1.8-1.9,3.3l-0.1,0.9v19.3c0.1,1.1,0.4,2,1.1,2.5l1.6,0.9l0.1,0.1
	c0.7,0.4,1.5,0.4,2.5-0.1l0.2,0l0.2-0.1c1.1-0.6,2-1.4,2.9-2.6c0.3-0.4,0.5-0.7,0.8-1.1c0.4-0.8,0.7-1.6,0.9-2.5l0.1-0.3
	c0.6,0.1,1.1,0.2,1.7,0.2c0.7,0,1.3-0.2,1.9-0.5c0.2-0.1,0.4-0.2,0.6-0.4L144.1,132 M130.9,121.1c0.3,0.3,0.6,0.6,0.9,0.9
	c1.2,1.4,2.1,2.9,2.9,4.5l0.7,2.2l-1.4-1.8l-1.6-2.5c-0.2-0.1-0.4-0.2-0.6-0.3h-0.1c-0.2,0-0.4,0-0.5,0L130.9,121.1 M126.5,137.4
	v0.4c0,0.4-0.2,0.8-0.4,1.2c-0.3,0.4-0.6,0.8-1,1l-0.2,0.2c-0.1-0.4,0-0.9,0.4-1.5C125.6,138,126,137.5,126.5,137.4z"/>
<path id="Layer7_3_MEMBER_4_1_STROKES" class="st3" d="M56.5,181.9l-0.3,0.1c-1.8,0.6-3.7,0.1-5.7-1.3c-1.8-1.3-3.4-3.1-4.7-5.5
	s-2-4.6-2-6.8c-0.1-2.4,0.7-4.1,2.3-5.2"/>
<path id="Layer7_3_MEMBER_5_1_STROKES" class="st3" d="M90.9,162l-19.1,11"/>
<path id="Layer7_3_MEMBER_6_1_STROKES" class="st3" d="M61.5,154.3l18.7-10.8"/>
<path id="Layer7_3_MEMBER_7_1_STROKES" class="st3" d="M92.5,153.3l10.1-5.9"/>
<path id="Layer7_3_MEMBER_8_1_STROKES" class="st3" d="M88.6,146.4l10.1-5.9"/>
<path id="Layer7_3_MEMBER_9_1_STROKES" class="st3" d="M103.1,143.7l9.4-5.4"/>
<path id="Layer7_3_MEMBER_10_1_STROKES" class="st3" d="M102.1,142.2l9.5-5.5"/>
<path id="Layer7_3_MEMBER_11_1_STROKES" class="st11" d="M48,161.1l0.5-0.5l0.5-0.4l0.2-0.1"/>
<path id="Layer7_3_MEMBER_12_1_STROKES" class="st11" d="M60.9,180.2l-0.3,0.2l-0.6,0.3l-0.7,0.2l-0.7,0.1l-0.4,0"/>
<path id="Layer7_3_MEMBER_13_1_STROKES" class="st3" d="M49,160.3l9.3-5.3"/>
<path id="Layer7_3_MEMBER_14_1_STROKES" class="st11" d="M60.6,180.3l9.3-5.3"/>
<path id="Layer7_3_MEMBER_15_1_STROKES" class="st3" d="M57.6,181.2l0.6-0.4"/>
<path id="Layer7_3_MEMBER_16_1_STROKES" class="st3" d="M46.1,163.2l0.3-0.1c1.8-0.6,3.7-0.1,5.7,1.3c1.8,1.3,3.4,3.1,4.7,5.5
	c1.3,2.4,2,4.6,2,6.8c0.1,2.4-0.7,4.1-2.3,5.2"/>
<path id="Layer7_3_MEMBER_17_1_STROKES" class="st3" d="M46.4,163l2.7-1.6"/>
<path id="Layer7_3_MEMBER_18_1_STROKES" class="st3" d="M56.8,181.7l2.7-1.6"/>
<path id="Layer7_3_MEMBER_19_1_STROKES" class="st3" d="M49.1,161.4l0.3-0.1c1.8-0.6,3.7-0.1,5.7,1.3c1.8,1.3,3.4,3.1,4.7,5.5
	c1.3,2.4,2,4.6,2,6.8c0.1,2.4-0.7,4.1-2.2,5.2"/>
<path id="Layer7_3_MEMBER_20_1_STROKES" class="st11" d="M49.2,160.2l0.3-0.2c1.9-0.9,4-0.6,6.2,0.8c2,1.3,3.8,3.3,5.3,5.9
	c1.5,2.6,2.3,5.2,2.4,7.6c0.1,2.7-0.7,4.6-2.4,5.8l-0.2,0.1"/>
<path id="Layer7_3_MEMBER_21_1_STROKES" class="st11" d="M58.3,155l0.3-0.2c1.9-0.9,4-0.6,6.2,0.8c2,1.3,3.8,3.3,5.3,5.9
	c1.5,2.6,2.3,5.2,2.4,7.6c0.1,2.7-0.7,4.6-2.4,5.8l-0.2,0.1"/>
<path id="Layer7_3_MEMBER_22_1_STROKES" class="st3" d="M90.9,162l0.5-0.3c1.4-1.3,1.9-3.1,1.7-5.6c-0.2-2.2-1-4.5-2.4-6.8
	c-1.4-2.3-3.1-4-4.9-5.2c-2-1.2-3.9-1.4-5.6-0.6"/>
<path id="Layer7_3_MEMBER_23_1_STROKES" class="st3" d="M102.6,147.4l0.2-0.1c1.1-0.9,1.1-2.3-0.1-4.3c-1.2-2-2.5-2.8-3.8-2.5
	l-0.2,0.1"/>
<path id="Layer7_3_MEMBER_24_1_STROKES" class="st11" d="M122.4,130.5l1,1.6c1.2,1.9,2.6,3.5,4.3,4.6c1.7,1.1,3.3,1.6,4.8,1.6
	c1.6-0.1,2.7-0.8,3.4-2.2c0.8-1.5,1-3.7,0.4-6.6l-1-3.1c-0.8-1.8-1.8-3.5-3.1-4.9c-1.4-1.6-2.9-2.8-4.5-3.6l-1.6-0.6
	c-1.5-0.3-2.7-0.1-3.7,0.6c-1,0.7-1.6,1.8-1.9,3.3l-0.1,0.8v1.6"/>
<path id="Layer7_3_MEMBER_25_1_STROKES" class="st11" d="M122.8,130.2l0.9,1.6c1.1,1.8,2.4,3.2,4,4.2c1.6,1,3,1.5,4.4,1.5
	c1.5-0.1,2.5-0.7,3.2-2c0.8-1.4,0.9-3.5,0.4-6.1l-1-2.9c-0.7-1.7-1.7-3.2-2.8-4.6c-1.3-1.5-2.7-2.6-4.2-3.3l-1.5-0.5
	c-1.4-0.3-2.5-0.1-3.5,0.6c-0.9,0.7-1.5,1.7-1.8,3.1l-0.1,0.8v1.7"/>
<path id="Layer7_3_MEMBER_26_1_STROKES" class="st11" d="M134.3,137.8l9.8-5.6l0.3-0.2c1.6-1.3,2.3-3.2,2.1-5.8
	c-0.1-2.4-0.9-4.8-2.4-7.4c-1.5-2.5-3.2-4.5-5.2-5.8c-2.2-1.4-4.2-1.8-6.1-1.1l-10.1,5.8"/>
<path id="Layer7_3_MEMBER_27_1_STROKES" class="st11" d="M130.8,138.2l-0.1,0.3c-0.3,1.2-0.9,2.4-1.7,3.5c-0.9,1.2-1.8,2-2.9,2.6
	l-0.2,0.1l-0.2,0.1c-1,0.4-1.9,0.4-2.7-0.1c-0.7-0.5-1.1-1.3-1.2-2.4v-0.3l0-0.2v-5.4"/>
<path id="Layer7_3_MEMBER_28_1_STROKES" class="st11" d="M121.7,136.5v-5.8"/>
<path id="Layer7_3_MEMBER_29_1_STROKES" class="st9" d="M127.6,137.5L127.6,137.5l-0.3-0.1c-0.7-0.1-1.2,0.3-1.8,1.3
	c-0.5,0.9-0.5,1.6-0.1,2l0.1,0.1l0.1,0.1c0.6,0.2,1.2-0.2,1.8-1.1C128,138.8,128.1,138.1,127.6,137.5L127.6,137.5z"/>
<path id="Layer7_3_MEMBER_30_1_STROKES" class="st9" d="M125.4,140c0.4-0.2,0.7-0.5,0.9-1c0.3-0.4,0.4-0.8,0.4-1.2l0-0.1"/>
<path id="Layer7_3_MEMBER_31_1_STROKES" class="st3" d="M121.9,144.2l1.2,0.7"/>
<path id="Layer7_3_MEMBER_32_1_STROKES" class="st11" d="M122.3,144.4l-0.1-0.1c-0.6-0.6-1-1.4-1-2.5l0-5.6"/>
<path id="Layer7_3_MEMBER_33_1_STROKES" class="st11" d="M121.6,144l-0.1-0.1c-0.7-0.6-1-1.4-1-2.5l0-5.6"/>
<path id="Layer7_3_MEMBER_34_1_STROKES" class="st11" d="M121.1,136.1v-12"/>
<path id="Layer7_3_MEMBER_35_1_STROKES" class="st11" d="M120.4,135.8v-12"/>
<path id="Layer7_3_MEMBER_36_1_STROKES" class="st11" d="M122.3,130.5L122.3,130.5L122.3,130.5l-0.1-0.1H122l0,0h-0.1v0h-0.1v0h0
	l0,0v0"/>
<path id="Layer7_3_MEMBER_37_1_STROKES" class="st11" d="M122.8,130.1c-0.4-0.3-0.7-0.4-1.1-0.4c-0.4,0.1-0.6,0.3-0.7,0.8"/>
<path id="Layer7_3_MEMBER_38_1_STROKES" class="st11" d="M131.2,124.2l-9.8,5.6"/>
<path id="Layer7_3_MEMBER_39_1_STROKES" class="st11" d="M132.5,124.5c-0.2-0.1-0.4-0.3-0.6-0.4h-0.1l0,0c-0.2,0-0.4,0-0.6,0.1"/>
<path id="Layer7_3_MEMBER_40_1_STROKES" class="st11" d="M132.6,124.6l1.5,2.4l1.5,1.8"/>
<path id="Layer7_3_MEMBER_41_1_STROKES" class="st11" d="M131.2,124.3v-3.1"/>
<path id="Layer7_3_MEMBER_42_1_STROKES" class="st0" d="M144.8,145.7c0.9,0.8,0.8,2.1-0.1,3.7c-0.9,1.7-1.9,2.4-3.1,2.2l-0.2-0.1
	l-0.3-0.2l-0.1-0.1c-0.7-0.9-0.6-2.2,0.4-3.8c1-1.6,2-2.3,3.2-2L144.8,145.7z"/>
<path id="Layer7_3_MEMBER_43_1_STROKES" class="st0" d="M143.7,147L143.7,147l0.2,0.1c0.4,0.4,0.4,1,0,1.9c-0.5,0.9-1,1.2-1.6,1.2
	l-0.1,0l-0.1-0.1L142,150l-0.1-0.1c-0.4-0.5-0.3-1.1,0.2-1.9C142.6,147.2,143.1,146.8,143.7,147z"/>
<path id="Layer7_3_MEMBER_44_1_STROKES" class="st0" d="M141.2,151.5l-0.7-0.4c-1-0.8-1-2,0.1-3.8s2.1-2.5,3.3-2.1l0.1,0l0.7,0.4"/>
<path id="Layer7_3_MEMBER_45_1_STROKES" class="st0" d="M143.4,147c0.2,0.5,0.1,1-0.3,1.7c-0.4,0.7-0.8,1-1.3,1.1"/>
<path id="Layer7_3_MEMBER_46_1_STROKES" class="st9" d="M87.2,130.2l-0.3-0.3l-0.3-0.5l-0.2-0.6c-0.2-0.6-0.2-1.3,0-2.3
	c0.3-1.2,0.4-2,0.4-2.3l-0.1-0.9l-0.5-0.6c-1.1-0.5-1.8-0.9-2-1.2c-0.5-0.5-0.4-1.2,0.2-2.3l1.2-1.9l0.3-0.8V116
	c-0.2-0.6-0.4-1-0.4-1.2c-0.1-0.3,0-0.8,0.2-1.5l1-2.8c0.4-0.9,0.6-1.4,0.8-1.8c0.4-0.7,0.9-1.1,1.5-1.1h0.5l0.7,0.2l0.6,0.3"/>
<path id="Layer7_3_MEMBER_47_1_STROKES" class="st9" d="M86.3,113.6c0.4-1.3,0.8-2.3,1.1-3.1c0.6-1.4,1.2-2.3,1.9-2.5l0.4-0.1h0.5
	l0.7,0.2l1,0.5c2.7,1.6,4.9,3.5,6.6,5.5l1.3,1.5c0.4,0.4,0.9,0.7,1.5,1.1c0.2,0.4,0,1-0.7,1.9l-1.6,1.8l-0.2,0.1l-0.1,0.1l-0.3,0.2
	l-0.2,0.2l-0.1,0.4l-0.1,1.6l-0.2,0.9l-0.4,0.8l-0.6,0.7c-0.2,0.2-1,0.6-2.4,1.4c-0.8,0.5-1.5,1.1-2.1,1.9l-0.4,0.4l-1.8,1.2
	c-0.7,0.4-1.2,0.5-1.6,0.5c-0.5-0.1-0.9-0.4-1.2-1.1l-0.4-1.2c0-0.1,0.1-1.1,0.5-3.2c0.2-1.3-0.2-2.1-1.2-2.6l-0.7-0.3l-0.6-0.4
	l-0.4-0.6l0.1-0.8l1.1-2c0.6-0.9,0.8-1.5,0.9-1.8c0-0.3-0.1-0.8-0.4-1.7v-0.6L86.3,113.6z"/>
<path id="Layer7_3_MEMBER_48_1_STROKES" class="st9" d="M87.2,130.2l0.7,0.4"/>
<path id="Layer7_3_MEMBER_49_1_STROKES" class="st9" d="M91.3,120.8L91.3,120.8l-0.1-0.1c-0.4-0.5-0.3-1.1,0.2-2
	c0.5-0.9,1-1.2,1.6-1l0.1,0l0.1,0.1c0.4,0.4,0.4,1-0.1,1.9c-0.5,0.9-1,1.2-1.6,1.1L91.3,120.8z"/>
<path id="Layer7_3_MEMBER_50_1_STROKES" class="st9" d="M92.7,117.7c0.2,0.5,0.1,1-0.3,1.7c-0.4,0.7-0.8,1-1.3,1.1"/>
<path id="Layer7_3_MEMBER_51_1_STROKES" class="st0" d="M104.9,130.5l-0.3-0.2l-0.1-0.1c-0.8-0.9-0.6-2.2,0.4-3.8c1-1.6,2-2.3,3.2-2
	l0.2,0.1l0.1,0.1c0.9,0.8,0.8,2-0.1,3.7c-0.9,1.7-2,2.4-3.1,2.2L104.9,130.5z"/>
<path id="Layer7_3_MEMBER_52_1_STROKES" class="st0" d="M107.3,126L107.3,126c0.5,0.5,0.5,1.1,0,2c-0.5,0.9-1,1.2-1.6,1.1l-0.2-0.1
	l-0.1-0.1l-0.1-0.1c-0.4-0.5-0.3-1.1,0.2-1.9C106.1,126.1,106.7,125.8,107.3,126L107.3,126z"/>
<path id="Layer7_3_MEMBER_53_1_STROKES" class="st0" d="M104.8,130.4l-0.7-0.4c-1-0.8-0.9-2.1,0.1-3.9c1-1.8,2.1-2.5,3.3-2.1l0.1,0
	l0.7,0.4"/>
<path id="Layer7_3_MEMBER_54_1_STROKES" class="st0" d="M107,125.9c0.2,0.5,0.1,1.1-0.3,1.7c-0.4,0.7-0.9,1-1.4,1.1"/>
<path id="Layer7_3_MEMBER_55_1_STROKES" class="st10" d="M126.7,139.2l4.6,2.7"/>
<path id="Layer7_3_MEMBER_56_1_STROKES" class="st10" d="M132.8,142.7l1.5,0.9"/>
<path id="Layer7_3_MEMBER_57_1_STROKES" class="st10" d="M135.9,144.5l4.6,2.7"/>
<path id="Layer7_3_MEMBER_58_1_STROKES" class="st10" d="M106.5,127.5l4.6,2.7"/>
<path id="Layer7_3_MEMBER_59_1_STROKES" class="st10" d="M112.7,131.1l1.6,0.9"/>
<path id="Layer7_3_MEMBER_60_1_STROKES" class="st10" d="M115.8,132.9l4.6,2.7"/>
<path id="Layer7_3_MEMBER_61_1_STROKES" class="st10" d="M92.2,119.3l4,2.3"/>
<path id="Layer7_3_MEMBER_62_1_STROKES" class="st10" d="M97.5,122.3l1.3,0.8"/>
<path id="Layer7_3_MEMBER_63_1_STROKES" class="st10" d="M100.2,123.9l4,2.3"/>
<path id="Layer7_3_MEMBER_64_1_STROKES" class="st10" d="M143,148.6l3.2,1.8"/>
<path id="Layer7_3_MEMBER_65_1_STROKES" class="st10" d="M147.3,151.1l1.1,0.6"/>
<path id="Layer7_3_MEMBER_66_1_STROKES" class="st10" d="M149.4,152.3l3.2,1.8"/>
<path id="Layer7_3_MEMBER_67_1_STROKES" class="st3" d="M56.5,156v-6.8"/>
<path id="Layer7_3_MEMBER_68_1_STROKES" class="st3" d="M47.3,160.7v-6.2"/>
<path id="Layer7_3_MEMBER_69_1_STROKES" class="st3" d="M56.5,149.2l0-0.5c-0.1-1.3-0.6-2.1-1.4-2.5c-0.8-0.4-1.8-0.4-2.9,0.2
	l-0.2,0.1l-0.2,0.1c-1.1,0.7-2.1,1.8-3,3.2c-0.8,1.4-1.3,2.7-1.4,4.1l0,0.5"/>
<path id="Layer7_3_MEMBER_70_1_STROKES" class="st3" d="M46.7,162.8v-8.8"/>
<path id="Layer7_3_MEMBER_71_1_STROKES" class="st3" d="M54.2,145.7c-1.7-0.5-3.4,0.3-5.1,2.4c-1.6,2-2.4,3.9-2.4,5.7v0.3"/>
<path id="Layer7_3_MEMBER_72_1_STROKES" class="st3" d="M46,163.2v-9.5"/>
<path id="Layer7_3_MEMBER_73_1_STROKES" class="st3" d="M54.1,145.6l-0.1-0.1c-1.7-1-3.5-0.3-5.4,1.9c-1.8,2.1-2.6,4.1-2.6,6l0,0.3"
	/>
<path id="Layer7_3_MEMBER_74_1_STROKES" class="st3" d="M53.9,145.4l1.3,0.7"/>
<path id="Layer7_3_MEMBER_75_1_STROKES" class="st3" d="M47.5,161.1l0.1,0.1"/>
<path id="Layer7_3_MEMBER_76_1_STROKES" class="st3" d="M52.7,150L52.7,150l-0.2-0.1c-0.7-0.1-1.2,0.3-1.7,1.3
	c-0.5,1-0.6,1.6-0.1,2.1l0.2,0.1c0.6,0.2,1.2-0.2,1.8-1.1c0.6-0.9,0.6-1.6,0.2-2.1L52.7,150L52.7,150z"/>
<path id="Layer7_3_MEMBER_77_1_STROKES" class="st3" d="M50.6,152.7c0.4-0.2,0.7-0.5,0.9-1c0.3-0.4,0.4-0.8,0.4-1.2v-0.1"/>
<path id="Layer7_3_MEMBER_78_1_STROKES" class="st3" d="M51.1,167.2L51.1,167.2l-0.1-0.1c-0.5,0-0.6,0.2-0.5,0.8
	c0.1,0.6,0.4,0.9,0.7,1.1l0.1,0.1l0.1,0c0.5,0.1,0.7-0.2,0.6-0.8c-0.1-0.6-0.3-0.9-0.7-1.1L51.1,167.2L51.1,167.2z"/>
<path id="Layer7_3_MEMBER_79_1_STROKES" class="st3" d="M48.4,169.7L48.4,169.7c0.1-0.5-0.1-0.9-0.5-1.3c-0.4-0.4-0.7-0.4-1-0.1
	l0,0.1v0.1l0,0.1v0.1c0,0.4,0.2,0.8,0.6,1.2C47.8,170.2,48.1,170.2,48.4,169.7L48.4,169.7z"/>
<path id="Layer7_3_MEMBER_80_1_STROKES" class="st3" d="M48.3,174c-0.2,0.3-0.1,0.7,0.2,1.2l0.1,0.1l0.1,0.1l0.1,0.1
	c0.5,0.4,0.8,0.4,1,0c0.1-0.4,0-0.8-0.3-1.2l-0.1-0.1l-0.1-0.1C48.8,173.7,48.5,173.7,48.3,174z"/>
<path id="Layer7_3_MEMBER_81_1_STROKES" class="st3" d="M54,178.4L54,178.4l0.1-0.1c0.2-0.3,0.2-0.7-0.1-1.2c-0.3-0.5-0.6-0.8-1-0.7
	l-0.1,0l-0.1,0.1c-0.3,0.2-0.3,0.6,0,1.2c0.3,0.5,0.6,0.8,1,0.7L54,178.4L54,178.4z"/>
<path id="Layer7_3_MEMBER_82_1_STROKES" class="st3" d="M55.5,173.1c-0.2-0.5-0.5-0.8-0.9-0.8c-0.4-0.1-0.6,0.2-0.4,0.9l0.1,0.2
	c0.1,0.5,0.4,0.8,0.9,0.9c0.5,0.1,0.6-0.1,0.6-0.7L55.5,173.1L55.5,173.1z"/>
<path id="Layer7_3_MEMBER_83_1_STROKES" class="st0" d="M154.2,153.1l9.7,5.6"/>
<path id="Layer7_3_MEMBER_84_1_STROKES" class="st0" d="M152.4,156.1l9.8,5.6"/>
<path id="Layer7_3_MEMBER_85_1_STROKES" class="st0" d="M158.6,155.6c-0.6-0.2-1.1,0-1.6,0.9c-0.5,0.8-0.6,1.5-0.3,2"/>
<path id="Layer7_3_MEMBER_86_1_STROKES" class="st0" d="M157.4,155c-0.6-0.3-1.1,0-1.7,0.9c-0.5,0.9-0.6,1.6-0.1,2"/>
<path id="Layer7_3_MEMBER_87_1_STROKES" class="st0" d="M156.3,154.3c-0.6-0.3-1.1,0-1.7,0.9c-0.5,0.9-0.6,1.6-0.1,2"/>
<path id="Layer7_3_MEMBER_88_1_STROKES" class="st0" d="M155.3,153.7l-0.1-0.1c-0.6-0.3-1.2,0.1-1.7,1c-0.5,0.9-0.6,1.6-0.1,2"/>
<path id="Layer7_3_MEMBER_89_1_STROKES" class="st0" d="M154.1,153.1c-0.6-0.1-1.1,0.2-1.5,1c-0.5,0.8-0.6,1.4-0.2,1.9"/>
<path id="Layer7_3_MEMBER_90_1_STROKES" class="st0" d="M165.6,159.9l-0.7,0.4"/>
<path id="Layer7_3_MEMBER_91_1_STROKES" class="st0" d="M163.7,162l0,0.7"/>
<path id="Layer7_3_MEMBER_92_1_STROKES" class="st0" d="M165.2,162.5l-0.4,0.6l0.7-0.5l0.3-0.5"/>
<path id="Layer7_3_MEMBER_93_1_STROKES" class="st0" d="M166.4,161.2l0.1-0.6"/>
<path id="Layer7_3_MEMBER_94_1_STROKES" class="st0" d="M165.9,162.1l-0.7-0.4"/>
<path id="Layer7_3_MEMBER_95_1_STROKES" class="st0" d="M165.2,162.5l-0.7-0.5"/>
<path id="Layer7_3_MEMBER_96_1_STROKES" class="st0" d="M166.4,161.2l-0.2-0.1"/>
<path id="Layer7_3_MEMBER_97_1_STROKES" class="st0" d="M166,161.3l-0.8-0.4"/>
<path id="Layer7_3_MEMBER_98_1_STROKES" class="st0" d="M165.2,161.6l-0.5,0.3l-0.5,0.1h-0.5"/>
<path id="Layer7_3_MEMBER_99_1_STROKES" class="st0" d="M165.2,162.5l-0.5,0.1l-0.5,0l-0.4,0"/>
<path id="Layer7_3_MEMBER_100_1_STROKES" class="st0" d="M166.1,161.2c0.2-0.1,0.4-0.3,0.4-0.6"/>
<path id="Layer7_3_MEMBER_101_1_STROKES" class="st0" d="M166.4,161.3c-0.1,0.3-0.2,0.5-0.4,0.7"/>
<path id="Layer7_3_MEMBER_102_1_STROKES" class="st0" d="M166,161.3l-0.1-0.5l-0.1-0.4l-0.2-0.4"/>
<path id="Layer7_3_MEMBER_103_1_STROKES" class="st0" d="M165.2,161.6l-0.1-0.5l-0.2-0.9"/>
<path id="Layer7_3_MEMBER_104_1_STROKES" class="st0" d="M165.6,158.4l-0.2-0.1c-1-0.2-1.8,0.4-2.6,1.7c-0.8,1.3-0.9,2.4-0.3,3.1
	l0.2,0.1"/>
<path id="Layer7_3_MEMBER_105_1_STROKES" class="st0" d="M166.3,158.8l0.1,0.1c0.5,1,0.5,2.1-0.1,3.1c-0.6,1-1.5,1.6-2.6,1.7h-0.2
	l-0.8-0.4"/>
<path id="Layer7_3_MEMBER_106_1_STROKES" class="st0" d="M166.3,158.8l-0.7-0.4"/>
<path id="Layer7_3_MEMBER_107_1_STROKES" class="st0" d="M166.3,158.8l-0.2-0.1c-0.9-0.2-1.8,0.4-2.6,1.7c-0.8,1.4-0.9,2.4-0.3,3.1
	l0.2,0.1"/>
<g>
	<ellipse class="st13" cx="321.7" cy="170.9" rx="10.1" ry="10.1"/>
	<ellipse class="st14" cx="321.7" cy="170.9" rx="10.1" ry="10.1"/>
</g>
<g>
	<ellipse class="st13" cx="190.7" cy="185.2" rx="13" ry="13"/>
	<ellipse class="st14" cx="190.7" cy="185.2" rx="13" ry="13"/>
</g>
<g>
	<path class="st4" d="M332.8,169.6l-3.2,1.4l2.2-0.2c17.5-3.5,35.9-1.1,57.5,6.6l-1.1,5.2l11.2-7.2l-7.2-11.2l-1.1,5.2
		C370.7,164.2,351.3,164.4,332.8,169.6z"/>
	<path id="Layer1_10_1_STROKES_3_" class="st15" d="M330.7,171c17.5-3.5,36.9-1.5,58.5,6.3l-1.1,5.2l11.2-7.2L392,164l-1.1,5.2
		c-20.1-4.9-39.6-4.9-58.2,0.4l-5.5,2.1C327.3,171.7,327.3,171.7,330.7,171z"/>
</g>
<g>
	<path class="st4" d="M174.5,185.2l3.8-0.9l-2.4-0.2c-19.6,0.5-39-5.5-60.9-18l2.2-5.4l-13.4,5.7l5.7,13.4l2.2-5.4
		C132.6,183.9,153.6,187.4,174.5,185.2z"/>
	<path id="Layer1_10_1_STROKES_7_" class="st15" d="M177.1,184.1c-19.6,0.5-40.1-5.4-62-17.8l2.2-5.4l-13.4,5.7l5.7,13.4l2.2-5.4
		c20.8,9.1,41.9,12.8,62.9,10.6l6.3-1.3C181,183.9,181,183.9,177.1,184.1z"/>
</g>
</svg>
