<?xml version="1.0" encoding="utf-8"?>
<!-- Generator: Adobe Illustrator 24.3.0, SVG Export Plug-In . SVG Version: 6.00 Build 0)  -->
<svg version="1.1" id="Ebene_1" xmlns="http://www.w3.org/2000/svg" xmlns:xlink="http://www.w3.org/1999/xlink" x="0px" y="0px"
	 viewBox="0 0 219.9 479.4" style="enable-background:new 0 0 219.9 479.4;" xml:space="preserve">
<style type="text/css">
	.st0{opacity:0.2;fill:#448ECC;enable-background:new    ;}
	.st1{fill:none;stroke:#448ECC;stroke-width:1;stroke-miterlimit:10.0017;}
	.st2{fill:none;stroke:#000000;stroke-width:0.51;stroke-miterlimit:5;}
	.st3{fill:none;stroke:#000000;stroke-width:0.26;stroke-miterlimit:5;}
	.st4{fill:none;stroke:#000000;stroke-width:0.51;stroke-linecap:round;stroke-miterlimit:5;}
	.st5{fill:#E52521;}
	.st6{fill:#E52521;stroke:#000000;stroke-width:0.51;stroke-miterlimit:5;}
	.st7{fill:#E52521;stroke:#000000;stroke-width:0.51;stroke-linecap:round;stroke-miterlimit:5;}
	.st8{fill:none;stroke:#000000;stroke-width:0.25;stroke-miterlimit:5;}
	.st9{fill:#020203;}
	.st10{font-family:'ArialMT';}
	.st11{font-size:14px;}
	.st12{fill:#448ECC;}
	.st13{fill:none;stroke:#FFFFFF;stroke-miterlimit:5;}
	.st14{fill:#FFCC07;}
	.st15{fill:#868686;}
	.st16{fill:#868686;stroke:#000000;stroke-width:0.53;stroke-linecap:round;stroke-miterlimit:5;}
	.st17{fill:none;stroke:#000000;stroke-width:0.53;stroke-linecap:round;stroke-miterlimit:5;}
	.st18{fill:#B2B2B2;stroke:#000000;stroke-width:0.53;stroke-linecap:round;stroke-miterlimit:5;}
	.st19{fill:#96CBEF;}
	.st20{fill:none;stroke:#000000;stroke-width:0.53;stroke-miterlimit:5;}
	.st21{fill:none;stroke:#000000;stroke-width:0.53;stroke-miterlimit:10;}
	.st22{fill:#B2B2B2;stroke:#000000;stroke-width:0.5;stroke-linecap:round;stroke-linejoin:round;stroke-miterlimit:5;}
	.st23{fill:none;stroke:#000000;stroke-width:0.75;stroke-miterlimit:10;}
</style>
<g>
	<g>
		<ellipse class="st0" cx="146" cy="70" rx="16.6" ry="16.6"/>
		<ellipse class="st1" cx="146" cy="70" rx="16.6" ry="16.6"/>
	</g>
	<g>
		<g>
			<path class="st2" d="M125.9,8.8c4.7-1.2,8.4-1.6,13.5-1.1s9.7,1.7,16,4.8c6.3,3.2,14.3,9.2,19.2,14.9c4.8,5.7,8.2,9.6,11.3,14.8
				c2.7,4.6,5.3,8.5,5.9,12.1c0.5,3.4-1.5,8.7-6.5,9.3 M107.9,74.8l77.4-11.3 M78.5,47.5c0.5,0.4,4.3,4.4,5.1,5.3 M83.6,52.8
				c2.8,3.1,7.2,9.3,9.7,11.8c1.5,1.5,3.4,3.9,5.5,5.1 M45.3,32.5c1.8,0.3,4,0.7,6.8,1.3c4.5,0.9,8.6,2.6,12.7,4.4
				c4.1,1.9,10.4,6,13.8,9.3 M44.9,30.9l0.3,1.7 M44.9,30.9c1.8,0.3,4,0.7,6.8,1.3c4.5,0.9,8.6,2.6,12.7,4.4
				c4.1,1.9,10.3,5.8,13.7,9c3.4,3.2,7.7,7.5,10.1,11c2.3,3.2,7,10,9.6,12.4c2.6,2.4,6.1,5.8,10,5.9 M44.9,30.9
				c-1.8-0.2-0.9-0.9,0.6-1.3 M45.5,29.6l80.3-20.8"/>
			<path class="st2" d="M48,40.5L47.4,40 M51.2,41.5l-3.2-1 M58.3,37.7l0.3-0.6 M54.3,38.4L53.6,36 M56.3,38.3l0.9-1.5 M54.3,38.4
				l2-0.1 M49.9,35.4c1.8,0.3,4,0.7,6.8,1.3c4.5,0.9,8.5,2.6,12.7,4.4c0.8,0.4,1.6,0.8,2.5,1.3 M49.3,33.3l0.6,2.1 M54.5,38.6
				l0.2-0.3 M54,38.8l0.5-0.1 M56.6,39.3l1-1.4 M56.6,39.3l0.4-0.1 M55.4,39.6l0.5-0.1 M54,38.8l1.4,0.8 M45.6,41L45,40.5 M50,42.4
				c0.3,0.1,0.5,0.1,0.7,0c0.1,0,0.2-0.1,0.2-0.2 M50,42.4L45.6,41 M54.2,44.6l2.8-5.4 M53.7,44.9c0.1,0,0.1,0,0.2-0.1
				s0.2-0.2,0.3-0.3 M50.2,45.7c0.3,0.1,0.5,0.1,0.7-0.1c0.1,0,0.2-0.1,0.2-0.2 M50.9,42.1l3.1-3.4 M51,45.4l4.4-5.8 M43.1,43.5
				L41,41.7 M50.1,45.7L43,43.5 M50.6,45.7l3.2-0.8 M111.6,121.1L78.3,96.8 M111.5,121.2l-0.5,5.9 M111.4,121.1
				c-5.5,2.7-13,6.4-20,9.8c-6.7,3.2-13.7,6.6-22.5,9.8 M31.9,153.4c0.3-0.1,0.6-0.1,0.9-0.2c1.2-0.3,3.7-1,4.9-1.4 M68.7,140.7
				l-31,11.1 M164.3,95.8L125,130.9 M74.4,163.7c18.9-10.3,38.9-22.9,50.6-32.8 M74.3,163.8l-38.4,19.8 M46.3,40.2
				c-4.2,0.8-8.7,2.5-10.2,4.6s-3.1,5-2.7,8c0.4,3.1,3.2,11.9,4.2,18s2.7,21.6,2.9,26s0.4,12.4,0.2,19.7c-0.2,7.3-1.1,14.6-2.2,19.3
				c-0.5,2.3-2.2,7.4-3.1,10 M35.4,145.8c-0.8,1.9-1.3,3.2-1.8,4.3s-1.2,2-1.7,3.5c-0.6,1.5-0.2,3.1,0.6,3.6
				c1.2,0.7,2.9,0.4,4.1,0.1c1.2-0.3,3.7-1,4.9-1.5 M134.3,70.9c0,4.2,0,11.2-0.3,14.2s-1,11.9-2,16.4s-2.5,8.7-5.2,12.7
				s-6.2,8.3-11.7,10.9c-5.5,2.7-13,6.4-20,9.8c-6.8,3.2-13.7,6.6-22.5,9.8 M72.5,144.7l-31,11.1 M58.3,37.7l-2,0.5"/>
			<path class="st3" d="M45,41.6l-1.9,1.9 M47.3,42.3l0.7,2.6 M53.6,40.2l1,0.3 M51.9,42.2l1.2,0.4 M50.4,43.2l0.3,2.5"/>
			<path class="st2" d="M71.4,45.2c-0.6,0.3-0.5,1.6,0.2,2.8s1.8,1.9,2.4,1.6 M68,41.2v1.1 M71.5,43.2v1 M68,42.3l0.6,0.7 M70.2,44
				l1.2,0.2 M69.8,44.9l0.5-0.9 M69.8,44.9l-1.2,0.4 M67.6,44.1V45 M67.6,45c0,0.2,0.3,0.3,0.7,0.3c0.1,0,0.3,0,0.4-0.1 M68.2,43.7
				l-0.4,0.1 M68.7,42.8c0,0.4-0.2,0.7-0.4,0.8 M68.6,41.4v1.4"/>
			<path class="st3" d="M73.4,48.9c0.4-0.2,0.3-1-0.1-1.8c-0.5-0.8-1.1-1.2-1.5-1"/>
			<line class="st2" x1="46.7" y1="32.7" x2="46.7" y2="33.5"/>
			<line class="st2" x1="48.4" y1="33.1" x2="48.4" y2="33.6"/>
			<path class="st2" d="M46.7,33.5L46.7,33.5c0,0.2,0.4,0.4,0.9,0.4s0.9-0.1,0.9-0.3"/>
			<path class="st2" d="M48.4,33.6C48.4,33.6,48.4,33.5,48.4,33.6"/>
			<path class="st2" d="M74.9,49.2c0.4,0.5,0.9,0.6,1.5,0.4c0.6-0.2,1.8-0.9,2.7-1.4"/>
			<line class="st2" x1="73.9" y1="49.6" x2="75.1" y2="48.9"/>
			<line class="st2" x1="71.4" y1="45.2" x2="72.6" y2="44.5"/>
			<path class="st2" d="M75.1,48.9c0.6-0.3,0.5-1.6-0.2-2.8s-1.7-1.9-2.4-1.6l0,0"/>
			<path class="st2" d="M78.3,89.2V48.7 M78.3,96.8v-7.9 M78.2,96.8l-11.4,2.8 M66.8,99.6L40.7,106 M51.7,38.8l-5.4,1.4"/>
		</g>
		<g>
			<g>
				<line class="st2" x1="138.7" y1="46.3" x2="140.6" y2="42.6"/>
				<line class="st2" x1="135.4" y1="44.8" x2="138" y2="39.7"/>
				<line class="st2" x1="139.8" y1="44.2" x2="142.2" y2="47.2"/>
				<line class="st2" x1="131.7" y1="45.9" x2="133.8" y2="48.5"/>
				<line class="st2" x1="131.7" y1="45.9" x2="132.7" y2="44"/>
				<line class="st2" x1="140.3" y1="43.1" x2="146.5" y2="43"/>
				<line class="st2" x1="124.5" y1="47.3" x2="132.1" y2="45.2"/>
				<line class="st2" x1="132.6" y1="44.1" x2="136.2" y2="48.3"/>
				<line class="st2" x1="139.6" y1="46.7" x2="138.9" y2="47.7"/>
				<line class="st2" x1="134.6" y1="44.4" x2="134" y2="45.2"/>
				<path class="st2" d="M138,48.2c0.4-0.1,0.7-0.3,0.9-0.5"/>
				<path class="st2" d="M135.8,47.9L135.8,47.9c0.6,0.3,1.1,0.4,1.6,0.4"/>
				<path class="st2" d="M134,45.2l-0.1,0.1c0,0.1-0.1,0.2-0.1,0.2"/>
				<path class="st2" d="M136,43.8c-0.6,0-1.1,0.2-1.4,0.6"/>
				<path class="st2" d="M139.6,46.7c0.2-0.4,0-0.9-0.4-1.4"/>
				<path class="st2" d="M135.4,44.8C135.4,44.8,135.4,44.9,135.4,44.8c-0.3,0.6,0.3,1.3,1.2,1.7s1.8,0.3,2.1-0.2"/>
				<line class="st2" x1="127.4" y1="49" x2="138.8" y2="48.1"/>
				<line class="st2" x1="135.4" y1="43" x2="136.4" y2="43"/>
				<line class="st2" x1="124.8" y1="45.9" x2="134.6" y2="43.1"/>
				<path class="st2" d="M138.8,48.1c0.2,0,0.5-0.1,0.7-0.1"/>
				<path class="st2" d="M135.4,43c-0.3,0-0.5,0.1-0.8,0.1"/>
				<path class="st4" d="M148,45.2c0.8-0.4-0.4-1.9-1.5-2.2"/>
				<path class="st2" d="M124.8,45.9c-0.4,0.1-0.6,0.3-0.7,0.6c-0.3,0.7,0.4,1.7,1.7,2.2c0.5,0.2,1.1,0.3,1.6,0.3"/>
				<line class="st4" x1="139.5" y1="48" x2="147.9" y2="45.2"/>
			</g>
			<g>
				<path class="st5" d="M150,40.9l-8.4,2.8l-11.9,1c-2.6-0.1-4.5-2.4-2.5-3.1l10.1-2.8h11.2C149.8,38.9,150.6,40.4,150,40.9z"/>
				<g>
					<path class="st6" d="M140.2,35.6"/>
					<line class="st2" x1="138.6" y1="38.8" x2="148.6" y2="38.8"/>
					<path class="st6" d="M138.4,44.1"/>
					<line class="st2" x1="129.8" y1="44.7" x2="141" y2="43.9"/>
					<line class="st2" x1="137.7" y1="38.8" x2="138.6" y2="38.8"/>
					<line class="st2" x1="127.2" y1="41.6" x2="136.9" y2="38.9"/>
					<path class="st6" d="M141,43.9c0.2,0,0.5-0.1,0.7-0.1"/>
					<path class="st6" d="M137.7,38.8c-0.3,0-0.5,0.1-0.8,0.1"/>
					<path class="st7" d="M150,40.9c0.8-0.4-0.5-2.1-1.5-2.1"/>
					<path class="st6" d="M127.2,41.6c-0.4,0.1-0.6,0.3-0.7,0.6c-0.3,0.7,0.4,1.7,1.6,2.2c0.5,0.2,1.1,0.3,1.6,0.3"/>
					<line class="st4" x1="141.6" y1="43.8" x2="149.9" y2="41"/>
				</g>
			</g>
			<polygon class="st8" points="135.1,42.8 131.2,43.6 130.1,41.9 134,41.2 			"/>
			<polyline class="st8" points="134.2,41.4 136.1,41 136.9,42.1 134.9,42.5 			"/>
		</g>
	</g>
	<text transform="matrix(1 0 0 1 29.8222 410.5892)" class="st9 st10 st11">Lock handle lever assambly</text>
	<text transform="matrix(1 0 0 1 32.1222 425.5892)" class="st9 st10 st11">(located in the lower center</text>
	<text transform="matrix(1 0 0 1 52.4222 440.5892)" class="st9 st10 st11">position of the door) </text>
	<path class="st12" d="M109.4,179.8C52.4,179.8,6.2,226,6.2,283s46.2,103.2,103.2,103.2S212.6,340,212.6,283
		C212.6,226,166.4,179.8,109.4,179.8z M109.4,380.3c-53.7,0-97.3-43.5-97.3-97.3c0-53.7,43.5-97.3,97.3-97.3
		c53.7,0,97.3,43.5,97.3,97.3C206.7,336.7,163.1,380.3,109.4,380.3z"/>
	<g>
		<path class="st12" d="M92.4,204.6l-7.2-1c-1.3-0.2-2.2,1.3-1.4,2.4l15.8,20.9c0.5,0.7,1.4,0.8,2.1,0.3l20.8-15.8
			c1.1-0.8,0.6-2.5-0.7-2.7l-7.4-1c-0.7-0.1-1.3-0.7-1.3-1.5c0.4-53.3,9.9-95.6,31.5-131.1c0,0,0-0.1,0.1-0.1l2.2-4.7l-5.7,5.9
			c-0.1,0.1-0.1,0.1-0.2,0.2c-26,36.2-41.9,78.5-47.1,126.9C93.9,204.2,93.2,204.7,92.4,204.6z"/>
		<path id="Layer1_10_1_STROKES_1_" class="st13" d="M148,69.7l-6.7,6.4l-0.1,0.1c-26.1,36.4-41.8,79-47.2,126.8
			c-0.1,0.8-0.8,1.4-1.7,1.3l-7.2-1c-1.3-0.2-2.2,1.3-1.4,2.4l15.8,20.9c0.5,0.7,1.4,0.8,2.1,0.3l20.8-15.8c1.1-0.8,0.6-2.5-0.7-2.7
			l-7.4-1c-0.7-0.1-1.3-0.7-1.3-1.5c0.4-53.3,11.3-97.5,32.9-133C148,69.7,148,69.7,148,69.7z"/>
	</g>
	<g>
		<polygon class="st14" points="101.3,270.8 49.1,260.6 50.6,257.6 51.5,254.2 113.8,266.6 112.6,272.2 105.2,274.1 103.3,271.8 		
			"/>
		<path class="st15" d="M146.2,298.4l-29-4c0.6-1,2.1-1.9,3.8-2.6l1,0.6l1.6,0.5l1.8,0.3l2.3-0.1l15.1-2.8
			C146.6,289.3,150.7,295,146.2,298.4z"/>
		<path class="st15" d="M89.6,296.5h-1.8l0.2,21.6l-36.3-12.3l1.6-0.6l9.3,2.8v-2.5l16,5.4l1.2,0.4l1.3-0.1l1.3-1.3l2.1-6l0.3-1.5
			l0.4-5.6l-0.3-27.9l2.7,0.5l1.8,0.3l0,0l5.5,1l9.1,7.4l-1.9,20.1c-0.2,1.1,0,3,1,3.9l14.3,12.5l-2.7,1.6c-2.1,1-4.1,0.8-5.9-1.2
			l-7.8-10.6l-5.5-7l-2.4-0.8L89.6,296.5z"/>
		<polygon class="st15" points="203.9,294.5 188,284.9 186.9,284.7 185.7,284.8 160.6,292.1 159.3,292.2 158.3,292 157.1,291.1 
			156.4,289.8 155.6,287.1 156.5,286.8 157.8,290.4 158.7,291.1 159.4,291.2 160.4,291.1 185.3,283.8 186.9,283.7 187.9,283.7 
			164.6,270.6 139.2,258 127.5,252.9 110.1,245.9 87.4,238 87.5,260.2 84.8,259.7 84.5,258.5 83.6,257.7 83.5,241 82.9,239.6 
			81.9,238.8 62,233.1 62,230.7 54.9,228.8 42.7,226.1 43,224.9 71.6,231.9 94.6,239 106.6,243.3 120.5,248.6 141,257.5 
			156.3,264.9 171.2,272.8 188.9,282.8 204.9,292.6 		"/>
		<g>
			<path class="st16" d="M180.5,292.9c-0.6,0.1-1.1-0.1-1.7-0.5l-10.9,3c-0.2,0.7-0.6,1.2-1.2,1.5c-0.5,0.1-0.9-0.1-1.1-0.6
				l-1.3-4.4c-0.1-0.5,0.1-0.9,0.6-1.1l13.8-4c0.5-0.1,0.9,0.1,1.1,0.6l1.3,4.4C181.2,292.3,180.9,292.7,180.5,292.9z"/>
			<path class="st17" d="M109.6,274.6c1.3-0.5,1.9-2,1.4-3.3s-2-1.9-3.3-1.4s-1.9,2-1.4,3.3C106.9,274.5,108.3,275.1,109.6,274.6
				 M121.1,280.8L121.1,280.8 M100.9,270.8l-51.8-10.2 M112.5,273l1.3-6.4 M105.2,274.1c-0.8-1.7-2.4-3-4.3-3.3 M110.2,275.9
				c1.2-0.5,2.1-1.6,2.4-2.9 M105.2,274.1c1,1.8,3.1,2.5,5,1.8 M113.8,266.6l-62.3-12.4 M85.1,296.1l-0.2-27.2 M51.6,305.8l0.8,0.2
				l0.8,0.2l0.8,0.3l0.8,0.2l0.8,0.2l0.8,0.3l0.8,0.3l0.8,0.2l0.8,0.2l0.8,0.3l0.8,0.3l0.8,0.3l0.8,0.3l0.8,0.3l0.8,0.3l0.8,0.3
				l0.8,0.3l0.8,0.3l0.8,0.3l0.8,0.3l0.8,0.3l0.8,0.3l0.8,0.3l0.8,0.3l0.8,0.3l0.8,0.3l0.8,0.3l0.8,0.3l0.8,0.3l0.8,0.3l0.8,0.3
				l0.8,0.3l0.8,0.3l0.8,0.3l0.8,0.3l0.8,0.3l0.8,0.3l0.8,0.3l0.8,0.3l0.8,0.3l0.8,0.3l0.8,0.3l1.6,0.6l0.8,0.3l1.6,0.6l0.8,0.3
				l0.8,0.3l0.8,0.3l0.8,0.3l0.8,0.3l1.6,0.7l0.8,0.3l0.8,0.3l0.8,0.3l0.8,0.3l0.8,0.3l0.8,0.3l0.8,0.3l0.8,0.4l0.8,0.3l0.8,0.4
				l0.8,0.3l0.8,0.4l0.8,0.4l0.8,0.3l0.8,0.4l0.8,0.4l0.8,0.4 M156.1,285.3l-0.9,0.3 M156.5,286.8l-0.9,0.3 M89.6,296.5l-0.2-26.8
				 M95.5,271.2l-0.6-0.4 M96.5,298.4l-0.9-0.9l-1.1-0.7l-0.9-0.3l-1-0.1h-4.1 M91.1,270.1h-2.9h-0.6 M88.4,296.5h-0.6 M84.1,305.1
				l0.7-2.7 M81.1,311.1l0.7-0.5l0.5-0.8v-0.1v-0.1 M79.4,311.2l0.8,0.1l0.9-0.2 M82.4,309.7L84,305 M87.7,273.4H85 M87.5,257.6
				h-3.9 M84.8,259.7l-0.3-1.2l-0.9-0.9 M84.7,302.4l0.4-6.3 M83.5,241l-0.4-1.3l-1.1-0.9l-0.2-0.1 M83.6,257.7L83.5,241 M62.6,308
				v-2.5 M62,233.1v-2.5 M155.5,283.3l-0.9,0.3 M156.4,289.8l0.7,1.3l1.2,0.9l1,0.2l1.1-0.1 M189,284.3l-0.3-0.2l-0.3-0.1l-1.5-0.4
				l-1.6,0.2 M188.5,285.2l-0.2-0.1L188,285l-1.2-0.3l-1.3,0.1 M157.3,289.5l0.5,0.9l0.9,0.6l0.7,0.2l0.8-0.1 M185.3,283.8
				l-25.1,7.3 M185.6,284.8l-25.1,7.3 M203.9,294.5l-15.3-9.3 M157.3,289.5l-0.9-3.1 M156.2,285.5l-0.7-2.2 M203.9,294.5l1-2
				 M204.3,293.7l-15.3-9.3 M156.4,289.8l-0.9-3.1 M155.2,285.8l-0.6-2.2 M42.7,226.1l0.8,0.2l0.9,0.2l0.9,0.2l0.9,0.2l0.9,0.2
				l0.9,0.2l0.9,0.2l0.8,0.2l0.9,0.2l0.9,0.2l0.9,0.2l0.9,0.2l0.8,0.2l0.9,0.2l0.9,0.2l0.9,0.2l0.9,0.2l0.9,0.2l0.9,0.2l0.9,0.2
				l0.9,0.2l0.9,0.2l0.9,0.2l0.8,0.2l0.9,0.2l0.9,0.2l0.9,0.2l0.9,0.2l0.9,0.2l0.9,0.2l0.8,0.2l0.9,0.2l0.9,0.2l0.8,0.2l0.9,0.2
				l0.9,0.2l0.8,0.2l0.9,0.2l0.8,0.2l0.9,0.3l0.8,0.2l0.9,0.3l0.9,0.2l0.9,0.3l0.9,0.3l0.9,0.3l0.8,0.3l0.9,0.3l0.9,0.3l0.8,0.3
				l0.9,0.3l0.8,0.3l0.9,0.3l0.8,0.3l0.9,0.3l0.8,0.3l0.8,0.3l0.9,0.3l0.9,0.3l0.8,0.3l0.8,0.3l0.8,0.3l0.8,0.3l0.8,0.3l0.9,0.3
				l0.8,0.3l0.8,0.3l0.8,0.3l0.9,0.3l0.8,0.3l0.8,0.3l0.8,0.3l0.9,0.3l0.8,0.3l0.8,0.3l0.8,0.3l0.8,0.3l0.8,0.3l0.8,0.3l0.9,0.3
				l0.8,0.3l0.8,0.3l0.8,0.3l0.8,0.3l0.8,0.3l0.8,0.3l0.8,0.3l0.8,0.3l0.8,0.3l0.8,0.3l0.8,0.3l0.8,0.3l0.8,0.3l0.8,0.3l0.8,0.4
				l0.8,0.3l0.8,0.3l0.8,0.4l0.8,0.3l0.8,0.4l0.8,0.4l0.8,0.3l0.8,0.4l0.8,0.4l0.8,0.4l0.8,0.3l0.8,0.4l0.8,0.4l0.8,0.4l0.8,0.3
				l0.8,0.4l0.8,0.4l0.8,0.4l1.6,0.8l0.8,0.4l0.8,0.4l0.8,0.4l0.8,0.4l0.8,0.4l0.8,0.4l0.8,0.4l0.8,0.4l0.8,0.4l0.8,0.4l0.8,0.4
				l0.8,0.4l0.8,0.4l0.8,0.4l0.8,0.4l0.8,0.4l0.8,0.4l0.8,0.4l0.8,0.4l0.8,0.4l0.8,0.4l0.8,0.4l0.8,0.4l0.8,0.4l0.8,0.4l0.8,0.4
				l0.8,0.4l0.8,0.4l0.9,0.5l0.9,0.5l0.9,0.5l0.9,0.5l0.9,0.5l1.7,0.9l0.8,0.5l0.9,0.5l0.9,0.5l0.8,0.5l0.9,0.5l0.9,0.5l1.7,0.9
				l0.9,0.5l0.8,0.5l0.9,0.5l0.8,0.5l0.8,0.5l0.9,0.5l0.8,0.5l0.8,0.5l0.9,0.5l1.7,1l1.7,1l1.7,1l1.7,1l1.7,1l1.7,1l1.7,1l1.7,1
				l1.6,1l1.7,1l1.7,1l1.7,1l1.7,1.1 M62,233.1l1,0.3l1,0.3l1,0.3l1,0.2l1,0.3l1,0.3l1,0.3l1,0.3l1,0.3l1,0.3l1,0.3l1,0.3l1,0.3
				l1,0.3l1,0.3l1,0.3l1,0.3l1,0.3l1,0.3l1,0.3 M62.5,305.5l0.9,0.3l0.8,0.2l0.8,0.3l0.9,0.3l0.8,0.3l0.8,0.3l0.9,0.3l0.8,0.3
				l0.8,0.3l0.8,0.3l0.8,0.3l0.8,0.3l0.8,0.3l0.8,0.3l0.8,0.3l0.8,0.3l0.8,0.3l0.8,0.3l0.8,0.3l0.8,0.3 M53.2,305.2l1.1,0.3l1.1,0.3
				l1.1,0.3l1.1,0.3l1.1,0.3l1.1,0.3l1.1,0.3l1.1,0.3l1.1,0.3l1.1,0.4l1.1,0.3l1.1,0.4l1.1,0.3l1.1,0.4l1.1,0.4l1.1,0.4l1.1,0.4
				l1.1,0.4l1.1,0.4l1.1,0.4l1.1,0.4l1.1,0.4l1.1,0.4l1.1,0.4l1.1,0.4l1.1,0.4l1.1,0.4l1.1,0.4l1.1,0.4l1.1,0.4l1.1,0.4l1.1,0.4
				 M88,318.1l-0.4-48.7 M87.5,260.2L87.3,238 M43,224.9l0.9,0.2l0.9,0.2l0.9,0.2l0.9,0.2l1.7,0.4l0.8,0.2l0.9,0.2l0.9,0.2l0.8,0.2
				l0.9,0.2l0.9,0.2l0.9,0.2l0.9,0.2l0.9,0.2l0.9,0.2l0.7,0.2l0.9,0.2l0.9,0.2l0.9,0.2l0.9,0.2l0.9,0.2l0.9,0.2l0.9,0.2l0.9,0.2
				l0.9,0.2l0.9,0.2l0.9,0.2l0.9,0.3l0.8,0.2l0.9,0.2l0.8,0.3l0.9,0.2l0.8,0.3l0.9,0.2l0.9,0.2l0.9,0.2l0.8,0.3l0.9,0.3l0.8,0.3
				l0.9,0.3l0.9,0.2l0.9,0.3l0.8,0.3l0.9,0.3l0.8,0.2l0.9,0.3l0.9,0.3l0.9,0.3l0.9,0.3l0.8,0.3l0.9,0.3l0.8,0.3l0.9,0.3l0.8,0.3
				l0.9,0.3l0.8,0.3l0.8,0.3l0.9,0.3l0.8,0.3l0.8,0.3l0.8,0.3l0.8,0.3l0.8,0.3l0.8,0.3l0.8,0.3l0.8,0.3l0.8,0.3l0.8,0.3l0.8,0.3
				l0.8,0.3l0.8,0.3l0.9,0.3l1.7,0.6l0.8,0.3l0.8,0.3l0.9,0.3l0.8,0.3l0.8,0.3l0.8,0.3l0.8,0.3l0.8,0.3l0.8,0.3l0.8,0.3l0.8,0.3
				l0.8,0.3l0.8,0.3l0.8,0.3l0.8,0.3l0.8,0.3l0.8,0.3l0.8,0.3l0.8,0.3l0.8,0.3l0.8,0.3l0.8,0.4l0.8,0.3l0.8,0.4l0.8,0.3l2.5,1.1
				l0.8,0.4l0.8,0.3l1.7,0.7l0.8,0.4l0.8,0.4l0.8,0.4l0.8,0.4l0.8,0.4l0.8,0.4l0.8,0.4l0.8,0.4l0.8,0.4l0.8,0.4l0.8,0.4l1.6,0.8
				l0.8,0.4l0.8,0.4l0.8,0.4l1.6,0.8l0.8,0.4l0.8,0.4l0.8,0.4l0.8,0.4l0.8,0.4l0.8,0.4l0.8,0.4l0.8,0.4l0.8,0.4l0.8,0.4l0.8,0.4
				l0.8,0.4l0.8,0.4l0.8,0.4l0.8,0.4l0.8,0.4l0.8,0.4l0.8,0.4l1.1,0.6l1.1,0.6l1.1,0.6l1.1,0.6l1.1,0.6l1.1,0.6l1.1,0.6l1.1,0.6
				l1.1,0.6l1.1,0.6l1.1,0.6l1.1,0.6l1.1,0.6l1,0.6l1.1,0.6l1.1,0.6l1,0.6l1.1,0.6l1.1,0.6l1.1,0.6l1,0.6l1.1,0.6l1.1,0.6l1.1,0.6
				l1.1,0.6l1,0.6l1.1,0.6l1,0.7l1.1,0.6l1,0.6l1,0.6l1,0.6l1.1,0.6l1,0.6l1.1,0.6l1,0.6l1,0.7l1,0.6l1.1,0.7l1,0.7 M113.7,286
				L113.7,286"/>
		</g>
		<path class="st18" d="M181.2,294.4l-2.4-2c-0.5-0.6-0.2-1.2,0.2-1.9c0.5-1-0.5-2-1.2-1.8l-6.6,1.9l-4.6,1.4c-0.7,0.2-1,1.5,0,2.1
			c0.8,0.4,1.3,0.8,1.2,1.5l-0.9,3c-0.2,0.7-0.3,1.4,0.1,2.1c0.6,0.9,1.8,1.2,2.7,0.6c0.5-0.4,0.8-1,1-1.6l0.6-2
			c0.2-0.6,1.1-0.6,1.4-0.1l0.1,0.3l0.7,2.3h0.1l0,0l0.9-0.3l0.5-0.1l0,0l1.5-0.4l-0.7-2.6c0-0.7,0.7-1.1,1.2-0.7l1.6,1.3
			c0.5,0.4,1.1,0.8,1.7,0.8c1.1,0,2-0.9,2-2C182.2,295.4,181.8,294.9,181.2,294.4z"/>
		<circle class="st5" cx="108.7" cy="272.2" r="3.9"/>
		<g>
			<path class="st19" d="M146.9,327.2c-0.7-0.5-1.4-0.7-2.2-0.8l-27.9-26c-3.4-3.5,0.8-8.9,4.5-8.8l6.1,1.1l1.5,0.3
				c2.1,0.2,2.9-1.8,1.8-3.5l-2.9-5.4l-0.9-2.2l-0.2-1.7l-7-3l-15.4,18.4c-1.7,1.9-1.4,4.9-0.1,6.2l35.1,30.2l0.2-0.2
				c0.2,1.3,0.9,2.6,2,3.4c2.2,1.5,5.2,1,6.7-1.2S149.1,328.7,146.9,327.2z"/>
			<g>
				<path class="st20" d="M104.2,295.6c-0.5,0.6-0.9,1.3-1.1,2.1c-0.4,1.7,0.3,3.6,1.6,4.7"/>
				<path class="st20" d="M126.6,280.1c0,1,0.3,2.1,0.8,3"/>
				<path class="st20" d="M128.7,292.9c0.5,0.1,1.1,0,1.5-0.3"/>
				<path class="st20" d="M131,291.7c0.1-0.1,0.1-0.3,0.1-0.4c0.1-0.5,0-1-0.2-1.4"/>
				<line class="st20" x1="129" y1="291.6" x2="129" y2="291.6"/>
				<path class="st20" d="M129.9,290.7c-0.1-0.3-0.3-0.5-0.6-0.6c-0.4-0.1-0.8,0.2-0.9,0.6s0.2,0.8,0.6,0.9"/>
				<line class="st20" x1="127.4" y1="283.1" x2="131" y2="289.9"/>
				<path class="st20" d="M143.1,336c2.6,0.6,5.2-1.1,5.8-3.8c0.6-2.6-1.1-5.2-3.8-5.8c-2.6-0.6-5.2,1.1-5.8,3.8
					S140.5,335.4,143.1,336"/>
				<line class="st20" x1="139.4" y1="332.2" x2="122.5" y2="317.6"/>
				<line class="st20" x1="122.7" y1="317.8" x2="104.8" y2="302.4"/>
				<line class="st20" x1="116.7" y1="280.6" x2="119.6" y2="277.1"/>
				<line class="st20" x1="116.3" y1="294.7" x2="117" y2="293.7"/>
				<line class="st20" x1="119.9" y1="291.7" x2="119.9" y2="291.7"/>
				<line class="st20" x1="117.3" y1="293.3" x2="117" y2="293.7"/>
				<line class="st20" x1="104.2" y1="295.5" x2="116.7" y2="280.6"/>
				<line class="st20" x1="136.8" y1="319" x2="117.1" y2="300.6"/>
				<line class="st20" x1="123.4" y1="291.9" x2="128.4" y2="285.1"/>
				<line class="st20" x1="144.7" y1="326.4" x2="136.8" y2="319"/>
				<path class="st20" d="M107.4,300.9c1.2,0.3,2.4-0.5,2.7-1.7c0.3-1.2-0.5-2.4-1.7-2.7c-1.2-0.3-2.4,0.5-2.7,1.7
					C105.4,299.4,106.2,300.6,107.4,300.9"/>
				<line class="st20" x1="145" y1="331.1" x2="145.8" y2="331.2"/>
				<path class="st20" d="M144.6,330.5c-0.1,0.3,0.1,0.6,0.4,0.6"/>
				<line class="st20" x1="144.6" y1="330.5" x2="144.8" y2="329.6"/>
				<path class="st20" d="M143.4,330.7c0.3,0.1,0.6-0.1,0.6-0.4"/>
				<line class="st20" x1="144.9" y1="331.6" x2="145.7" y2="331.8"/>
				<path class="st20" d="M144.9,331.6c-0.3-0.1-0.6,0.1-0.6,0.4"/>
				<line class="st20" x1="142.6" y1="330.6" x2="143.4" y2="330.7"/>
				<line class="st20" x1="144" y1="330.3" x2="144.2" y2="329.5"/>
				<line class="st20" x1="143.5" y1="332.8" x2="143.7" y2="331.9"/>
				<line class="st20" x1="142.5" y1="331.1" x2="143.3" y2="331.3"/>
				<path class="st20" d="M143.7,331.9c0.1-0.3-0.1-0.6-0.4-0.6"/>
				<line class="st20" x1="144.1" y1="332.9" x2="144.3" y2="332"/>
				<polyline class="st20" points="143.8,332.8 143.9,332.9 144,332.9 144,332.9 144.1,332.9 				"/>
				<path class="st20" d="M145.7,331.8c0-0.1,0.1-0.2,0.1-0.3c0-0.1,0-0.2,0-0.3"/>
				<path class="st20" d="M144.8,329.6c-0.1,0-0.2-0.1-0.3-0.1s-0.2,0-0.3,0"/>
				<path class="st20" d="M142.6,330.6c0,0.1-0.1,0.2-0.1,0.3c0,0.1,0,0.2,0,0.3"/>
				<polyline class="st20" points="143.5,332.8 143.6,332.8 143.6,332.8 143.7,332.8 143.8,332.8 				"/>
				<path class="st20" d="M143.5,334.3c1.7,0.4,3.4-0.7,3.7-2.4c0.4-1.7-0.7-3.4-2.4-3.7c-1.7-0.4-3.4,0.7-3.7,2.4
					C140.7,332.2,141.8,333.9,143.5,334.3"/>
				<line class="st20" x1="122.2" y1="291.7" x2="128.7" y2="293"/>
				<path class="st20" d="M122.2,291.7c-0.8-0.2-1.6-0.1-2.3,0.1"/>
				<path class="st20" d="M119.9,291.7c-0.7,0.2-2.2,1.2-2.7,1.8"/>
				<path class="st20" d="M116.3,294.7c-0.3,0.5-0.5,1-0.6,1.5c-0.3,1.6,0.2,3.3,1.4,4.4"/>
				<path class="st20" d="M131,291.7c-0.1,0.3-0.4,0.7-0.8,0.9"/>
			</g>
		</g>
		<g>
			<path class="st5" d="M156.1,299.8c-0.8,0-1.6,0.2-2.3,0.6l-37.7-5.5c-4.8-0.9-4.4-7.8-1.3-9.8l5.7-2.5l1.4-0.7
				c1.8-1,1.4-3.1-0.5-3.9l-5.5-2.7l-2-1.3l-1.2-1.3h-0.2c0-0.1,0-0.3,0-0.4c0-2.1-1.7-3.9-3.9-3.9c-2.1,0-3.9,1.7-3.9,3.9
				c0,0.7,0.2,1.3,0.5,1.9h-0.1l-2.2,23.9c-0.3,2.5,1.7,4.8,3.5,5.2l46,4.9v-0.3c0.9,1,2.2,1.6,3.6,1.6c2.7,0,4.8-2.2,4.8-4.8
				C161,302,158.8,299.8,156.1,299.8z"/>
			<g>
				<path class="st20" d="M103.1,298c-0.1,0.8,0,1.6,0.3,2.4c0.7,1.7,2.2,2.8,4,2.9"/>
				<path class="st20" d="M112.7,272.6c0.6,0.8,1.4,1.5,2.4,2"/>
				<path class="st20" d="M121.7,282c0.5-0.2,0.9-0.6,1.1-1.1"/>
				<path class="st20" d="M122.9,279.7c0-0.1-0.1-0.3-0.1-0.4c-0.2-0.5-0.5-0.8-1-1.1"/>
				<line class="st20" x1="121.2" y1="280.7" x2="121.2" y2="280.7"/>
				<path class="st20" d="M121.4,279.5c-0.2-0.2-0.5-0.3-0.8-0.1c-0.4,0.2-0.6,0.6-0.4,1s0.6,0.6,1,0.4"/>
				<line class="st20" x1="115" y1="274.6" x2="121.8" y2="278.1"/>
				<path class="st20" d="M158,309.1c2.5-1,3.7-3.9,2.6-6.4c-1-2.5-3.9-3.7-6.4-2.6c-2.5,1-3.7,3.9-2.6,6.4
					C152.7,309,155.5,310.2,158,309.1"/>
				<line class="st20" x1="152.8" y1="308.2" x2="130.6" y2="305.8"/>
				<line class="st20" x1="130.9" y1="305.8" x2="107.4" y2="303.3"/>
				<line class="st20" x1="104.8" y1="278.6" x2="105.3" y2="274.1"/>
				<line class="st20" x1="112.5" y1="290.4" x2="112.5" y2="289.3"/>
				<line class="st20" x1="113.7" y1="285.9" x2="113.7" y2="285.9"/>
				<line class="st20" x1="112.6" y1="288.7" x2="112.5" y2="289.3"/>
				<line class="st20" x1="103.1" y1="298" x2="104.8" y2="278.6"/>
				<line class="st20" x1="143.2" y1="298.8" x2="116.6" y2="294.9"/>
				<line class="st20" x1="116.7" y1="284.1" x2="117" y2="275.6"/>
				<line class="st20" x1="153.9" y1="300.4" x2="143.2" y2="298.8"/>
				<path class="st20" d="M108.7,300.6c1.2-0.5,1.7-1.8,1.2-3s-1.8-1.7-3-1.2s-1.7,1.8-1.2,3S107.6,301.1,108.7,300.6"/>
				<line class="st20" x1="156.8" y1="304.1" x2="157.6" y2="303.7"/>
				<path class="st20" d="M156.1,303.8c0.1,0.3,0.4,0.4,0.7,0.3"/>
				<line class="st20" x1="156.1" y1="303.8" x2="155.8" y2="303"/>
				<path class="st20" d="M155.3,304.7c0.3-0.1,0.4-0.4,0.3-0.7"/>
				<line class="st20" x1="157" y1="304.6" x2="157.8" y2="304.3"/>
				<path class="st20" d="M157,304.6c-0.3,0.1-0.4,0.4-0.3,0.7"/>
				<line class="st20" x1="154.5" y1="305" x2="155.3" y2="304.7"/>
				<line class="st20" x1="155.6" y1="304" x2="155.3" y2="303.2"/>
				<line class="st20" x1="156.5" y1="306.3" x2="156.2" y2="305.5"/>
				<line class="st20" x1="154.7" y1="305.5" x2="155.5" y2="305.2"/>
				<path class="st20" d="M156.2,305.5c-0.1-0.3-0.4-0.4-0.7-0.3"/>
				<line class="st20" x1="157.1" y1="306.1" x2="156.7" y2="305.3"/>
				<polyline class="st20" points="156.8,306.2 156.9,306.2 157,306.1 157,306.1 157.1,306.1 				"/>
				<path class="st20" d="M157.8,304.3c0-0.1-0.1-0.2-0.1-0.3c0-0.1-0.1-0.2-0.1-0.3"/>
				<path class="st20" d="M155.8,303c-0.1,0-0.2,0.1-0.3,0.1s-0.2,0.1-0.3,0.1"/>
				<path class="st20" d="M154.5,305c0,0.1,0.1,0.2,0.1,0.3c0,0.1,0.1,0.2,0.1,0.3"/>
				<polyline class="st20" points="156.5,306.3 156.6,306.3 156.7,306.3 156.7,306.2 156.8,306.2 				"/>
				<path class="st20" d="M157.4,307.5c1.6-0.7,2.4-2.5,1.7-4.1s-2.5-2.4-4.1-1.7s-2.4,2.5-1.7,4.1
					C153.9,307.4,155.8,308.2,157.4,307.5"/>
				<line class="st20" x1="115.6" y1="284.6" x2="121.7" y2="282"/>
				<path class="st20" d="M115.7,284.6c-0.7,0.3-1.4,0.8-1.9,1.4"/>
				<path class="st20" d="M113.8,285.9c-0.5,0.6-1.2,2.2-1.2,3"/>
				<path class="st20" d="M112.5,290.4c0,0.6,0.1,1.1,0.4,1.6c0.6,1.5,2,2.6,3.7,2.8"/>
				<path class="st20" d="M122.9,279.7c0.1,0.3,0.1,0.8-0.2,1.2"/>
			</g>
			<path class="st21" d="M105.2,274.4c0-0.4-0.5-0.9-0.4-2.3c0-2.1,1.7-3.9,3.9-3.9c2.1,0,3.9,1.7,3.9,3.9c0,0.4,0.3,0.8,0.6,1"/>
		</g>
		<g>
			<path class="st17" d="M112,311.7l-0.3-0.8 M112.9,314l-0.3-0.8 M111.1,313.3l0.8-0.3 M112.6,313.3c-0.1-0.3-0.4-0.4-0.7-0.3
				 M113.4,313.8l-0.3-0.8 M113.2,314L113.2,314h0.2h0.1l0,0 M114.2,312c0-0.1-0.1-0.2-0.1-0.3c0-0.1-0.1-0.2-0.1-0.3 M112.2,310.8
				c-0.1,0-0.2,0.1-0.3,0.1c-0.1,0-0.2,0.1-0.3,0.1 M110.9,312.8c0,0.1,0.1,0.2,0.1,0.3c0,0.1,0.1,0.2,0.1,0.3 M112.9,314L112.9,314
				L112.9,314h0.2h0.1 M113.8,315.3c1.6-0.7,2.4-2.5,1.7-4.1c-0.7-1.6-2.5-2.4-4.1-1.7c-1.6,0.7-2.4,2.5-1.7,4.1
				C110.3,315.2,112.1,316,113.8,315.3 M145.8,298.7c2-1.1,2.9-3.6,2-5.7c-0.8-2-2.9-3.1-5-2.7 M144.2,294.2l0.8-0.3 M143.6,293.9
				c0.1,0.3,0.4,0.4,0.7,0.3 M143.6,293.9l-0.3-0.8 M142.7,294.8c0.3-0.1,0.4-0.4,0.3-0.7 M144.5,294.7l0.8-0.3 M144.5,294.7
				c-0.3,0.1-0.4,0.4-0.3,0.7 M141.9,295.1l0.8-0.3 M143,294.1l-0.3-0.8 M144,296.4l-0.3-0.8 M142.2,295.7l0.8-0.3 M143.6,295.6
				c-0.1-0.3-0.4-0.4-0.7-0.3 M144.5,296.2l-0.3-0.8 M144.2,296.3h0.1h0.1h0.1h0.1 M145.2,294.4c0-0.1-0.1-0.2-0.1-0.3
				s-0.1-0.2-0.1-0.3 M143.2,293.1c-0.1,0-0.2,0.1-0.3,0.1s-0.2,0.1-0.3,0.1 M142,295.1c0,0.1,0.1,0.2,0.1,0.3
				c0,0.1,0.1,0.2,0.1,0.3 M144,296.4L144,296.4h0.1h0.1h0.1 M144.8,297.7c1.6-0.7,2.4-2.5,1.7-4.1s-2.5-2.4-4.1-1.7
				s-2.4,2.5-1.7,4.1C141.3,297.6,143.2,298.3,144.8,297.7 M119.7,290.9l-24.2-19.8 M153.8,300.4l-7.7-1.1 M108.6,300.7
				c1.2-0.5,1.7-1.8,1.2-3s-1.8-1.7-3-1.2s-1.7,1.8-1.2,3C106.1,300.6,107.5,301.2,108.6,300.7 M156,285.8c0.9-0.4,1.3-1.3,0.9-2.2
				c-0.4-0.9-1.3-1.3-2.2-0.9c-0.2,0.1-0.5,0.3-0.6,0.5 M154.3,285.6c0.5,0.3,1.1,0.4,1.6,0.2 M154.3,285.6
				c-0.1-0.1-0.2-0.1-0.3-0.1c-0.2,0.1-0.2,0.3-0.2,0.4c0,0,0,0.1,0.1,0.1 M124.8,280.6c0.2-0.1,0.3-0.2,0.5-0.3 M123.7,280.8
				c0.4,0,0.8,0,1.1-0.2 M124.6,280c0.5-0.2,0.9-0.7,0.9-1.2 M123.8,280.1c0.3,0,0.5,0,0.8-0.1 M121.3,279.8l2.5,0.3 M121.2,280.5
				l2.5,0.3 M125.9,280.7l0.9-1.9 M126.6,280.9l-0.9,1.9 M125,282.6l0.5-3.8 M126.2,278.8c0-0.1,0-0.1,0-0.2
				c-0.1-0.2-0.3-0.2-0.4-0.2s-0.2,0.1-0.2,0.3 M125.5,282.9c0.1,0,0.2-0.1,0.2-0.3 M125,282.6c0,0.1,0,0.1,0,0.2
				c0.1,0.2,0.3,0.2,0.4,0.2 M125.7,282.7l0.5-3.8 M127.5,279c0-0.1,0-0.1,0-0.2c-0.1-0.2-0.3-0.2-0.4-0.2s-0.2,0.1-0.2,0.3
				 M127.3,280.8l0.9-1.9 M127.9,281l-0.9,1.9 M126.4,282.7l0.5-3.8 M127.5,279c0-0.1,0-0.1,0-0.2c-0.1-0.2-0.3-0.2-0.4-0.2
				s-0.2,0.1-0.2,0.3 M126.8,283.1c0.1,0,0.2-0.1,0.2-0.3 M126.4,282.7c0,0.1,0,0.1,0,0.2c0.1,0.2,0.3,0.2,0.4,0.2 M127,282.8
				l0.5-3.9 M128.6,281l0.9-1.9 M129.2,281.2l-0.9,1.9 M127.7,282.9l0.5-3.8 M128.8,279.1c0-0.1,0-0.1,0-0.2
				c-0.1-0.2-0.3-0.2-0.4-0.2c-0.1,0-0.2,0.1-0.2,0.3 M128.1,283.2c0.1,0,0.2-0.1,0.2-0.3 M127.7,282.9c0,0.1,0,0.1,0,0.2
				c0.1,0.2,0.3,0.2,0.4,0.2 M128.4,283l0.5-3.8 M129.9,281.2l0.9-1.9 M130.6,281.3l-0.9,1.9 M129,283.1l0.5-3.8 M130.1,279.3
				c0-0.1,0-0.1,0-0.2c-0.1-0.2-0.3-0.2-0.4-0.2c-0.1,0-0.2,0.1-0.2,0.3 M129.5,283.4c0.1,0,0.2-0.1,0.2-0.3 M129,283.1
				c0,0.1,0,0.1,0,0.2c0.1,0.2,0.3,0.2,0.4,0.2 M129.7,283.1l0.5-3.9 M131.5,279.4c0-0.1,0-0.1,0-0.2c-0.1-0.2-0.3-0.2-0.4-0.2
				c-0.1,0-0.2,0.1-0.2,0.3 M131.2,281.3l0.9-1.9 M131.9,281.5l-0.9,1.9 M130.3,283.2l0.5-3.8 M131.5,279.4c0-0.1,0-0.1,0-0.2
				c-0.1-0.2-0.3-0.2-0.4-0.2c-0.1,0-0.2,0.1-0.2,0.3 M130.8,283.5c0.1,0,0.2-0.1,0.2-0.3 M130.4,283.2c0,0.1,0,0.1,0,0.2
				c0.1,0.2,0.3,0.2,0.4,0.2 M131,283.3l0.5-3.8 M132.6,281.5l0.9-1.9 M133.2,281.7l-0.9,1.9 M131.7,283.4l0.5-3.8 M132.8,279.6
				c0-0.1,0-0.1,0-0.2c-0.1-0.2-0.3-0.2-0.4-0.2c-0.1,0-0.2,0.1-0.2,0.3 M132.1,283.7c0.1,0,0.2-0.1,0.2-0.3 M131.7,283.4
				c0,0.1,0,0.1,0,0.2c0.1,0.2,0.3,0.2,0.4,0.2 M132.3,283.5l0.5-3.8 M133.9,281.6l0.9-1.9 M134.6,281.8l-0.9,1.9 M133,283.5
				l0.5-3.8 M134.1,279.8c0-0.1,0-0.1,0-0.2c-0.1-0.2-0.3-0.2-0.4-0.2c-0.1,0-0.2,0.1-0.2,0.3 M133.5,283.9c0.1,0,0.2-0.1,0.2-0.3
				 M133,283.5c0,0.1,0,0.1,0,0.2c0.1,0.2,0.3,0.2,0.4,0.2 M133.7,283.6l0.5-3.9 M135.4,279.9c0-0.1,0-0.1,0-0.2
				c-0.1-0.2-0.3-0.2-0.4-0.2c-0.1,0-0.2,0.1-0.2,0.3 M135.2,281.8l0.9-1.9 M135.9,282l-0.9,1.9 M134.3,283.7l0.5-3.8 M135.4,279.9
				c0-0.1,0-0.1,0-0.2c-0.1-0.2-0.3-0.2-0.4-0.2c-0.1,0-0.2,0.1-0.2,0.3 M134.8,284c0.1,0,0.2-0.1,0.2-0.3 M134.3,283.7
				c0,0.1,0,0.1,0,0.2c0.1,0.2,0.3,0.2,0.4,0.2 M135,283.8l0.5-3.9 M136.6,281.9l0.9-1.9 M137.2,282.1l-0.9,1.9 M135.7,283.8
				l0.5-3.8 M136.8,280.1c0-0.1,0-0.1,0-0.2c-0.1-0.2-0.3-0.2-0.4-0.2c-0.1,0-0.2,0.1-0.2,0.3 M136.1,284.2c0.1,0,0.2-0.1,0.2-0.3
				 M135.7,283.8c0,0.1,0,0.1,0,0.2c0.1,0.2,0.3,0.2,0.4,0.2 M136.3,283.9l0.5-3.8 M138.1,280.2c0-0.1,0-0.1,0-0.2
				c-0.1-0.2-0.3-0.2-0.4-0.2c-0.1,0-0.2,0.1-0.2,0.3 M137.9,282.1l0.9-1.9 M138.5,282.3l-0.9,1.9 M137,284l0.5-3.8 M138.1,280.2
				c0-0.1,0-0.1,0-0.2c-0.1-0.2-0.3-0.2-0.4-0.2c-0.1,0-0.2,0.1-0.2,0.3 M137.4,284.3c0.1,0,0.2-0.1,0.2-0.3 M137,284
				c0,0.1,0,0.1,0,0.2c0.1,0.2,0.3,0.2,0.4,0.2 M137.6,284.1l0.5-3.8 M139.2,282.3l0.9-1.9 M139.9,282.5l-0.9,1.9 M138.3,284.2
				l0.5-3.8 M139.4,280.4c0-0.1,0-0.1,0-0.2c-0.1-0.2-0.3-0.2-0.4-0.2c-0.1,0-0.2,0.1-0.2,0.3 M138.8,284.5c0.1,0,0.2-0.1,0.2-0.3
				 M138.3,284.2c0,0.1,0,0.1,0,0.2c0.1,0.2,0.3,0.2,0.4,0.2 M139,284.2l0.5-3.9 M140.5,282.4l0.9-1.9 M141.2,282.6l-0.9,1.9
				 M139.6,284.3l0.4-3.9 M140.8,280.5c0-0.1,0-0.1,0-0.2c-0.1-0.2-0.3-0.2-0.4-0.2c-0.1,0-0.2,0.1-0.2,0.3 M140.1,284.7
				c0.1,0,0.2-0.1,0.2-0.3 M139.6,284.3c0,0.1,0,0.1,0,0.2c0.1,0.2,0.3,0.2,0.4,0.2 M140.3,284.4l0.5-3.8 M142.1,280.7
				c0-0.1,0-0.1,0-0.2c-0.1-0.2-0.3-0.2-0.4-0.2c-0.1,0-0.2,0.1-0.2,0.3 M141.9,282.6l0.9-1.9 M142.5,282.8l-0.9,1.9 M141,284.5
				l0.5-3.8 M142.1,280.7c0-0.1,0-0.1,0-0.2c-0.1-0.2-0.3-0.2-0.4-0.2c-0.1,0-0.2,0.1-0.2,0.3 M141.4,284.8c0.1,0,0.2-0.1,0.2-0.3
				 M141,284.5c0,0.1,0,0.1,0,0.2c0.1,0.2,0.3,0.2,0.4,0.2 M141.6,284.6l0.5-3.9 M143.2,282.7l0.9-1.9 M143.8,282.9l-0.9,1.9
				 M142.3,284.6l0.5-3.8 M143.4,280.9c0-0.1,0-0.1,0-0.2c-0.1-0.2-0.3-0.2-0.4-0.2c-0.1,0-0.2,0.1-0.2,0.3 M142.8,285
				c0.1,0,0.2-0.1,0.2-0.3 M142.3,284.7c0,0.1,0,0.1,0,0.2c0.1,0.2,0.3,0.2,0.4,0.2 M143,284.7l0.5-3.8 M144.5,282.9l0.9-1.9
				 M145.2,283.1l-0.9,1.9 M143.6,284.8l0.5-3.9 M144.7,281c0-0.1,0-0.1,0-0.2c-0.1-0.2-0.3-0.2-0.4-0.2c-0.1,0-0.2,0.1-0.2,0.3
				 M144.1,285.1c0.1,0,0.2-0.1,0.2-0.3 M143.6,284.8c0,0.1,0,0.1,0,0.2c0.1,0.2,0.3,0.2,0.4,0.2 M144.3,284.9l0.5-3.9 M146.1,281.2
				c0-0.1,0-0.1,0-0.2c-0.1-0.2-0.3-0.2-0.4-0.2c-0.1,0-0.2,0.1-0.2,0.3 M145.9,283.1l0.9-1.9 M146.5,283.2l-0.9,1.9 M144.9,285
				l0.5-3.8 M146.1,281.2c0-0.1,0-0.1,0-0.2c-0.1-0.2-0.3-0.2-0.4-0.2c-0.1,0-0.2,0.1-0.2,0.3 M145.4,285.3c0.1,0,0.2-0.1,0.2-0.3
				 M145,285c0,0.1,0,0.1,0,0.2c0.1,0.2,0.3,0.2,0.4,0.2 M145.6,285l0.5-3.9 M147.2,283.2l0.9-1.9 M147.8,283.4l-0.9,1.9
				 M146.3,285.1l0.5-3.8 M147.4,281.3c0-0.1,0-0.1,0-0.2c-0.1-0.2-0.3-0.2-0.4-0.2c-0.1,0-0.2,0.1-0.2,0.3 M146.7,285.5
				c0.1,0,0.2-0.1,0.2-0.3 M146.3,285.1c0,0.1,0,0.1,0,0.2c0.1,0.2,0.3,0.2,0.4,0.2 M146.9,285.2l0.5-3.8 M148.5,283.4l0.9-1.9
				 M149.2,283.6l-0.9,1.9 M147.6,285.3l0.5-3.8 M148.7,281.5c0-0.1,0-0.1,0-0.2c-0.1-0.2-0.3-0.2-0.4-0.2c-0.1,0-0.2,0.1-0.2,0.3
				 M148.1,285.6c0.1,0,0.2-0.1,0.2-0.3 M147.6,285.3c0,0.1,0,0.1,0,0.2c0.1,0.2,0.3,0.2,0.4,0.2 M148.3,285.4l0.5-3.8 M150,281.7
				c0-0.1,0-0.1,0-0.2c-0.1-0.2-0.3-0.2-0.4-0.2c-0.1,0-0.2,0.1-0.2,0.3 M149.8,283.5l0.9-1.9 M150.5,283.7l-0.9,1.9 M148.9,285.4
				l0.5-3.8 M150,281.7c0-0.1,0-0.1,0-0.2c-0.1-0.2-0.3-0.2-0.4-0.2c-0.1,0-0.2,0.1-0.2,0.3 M149.4,285.8c0.1,0,0.2-0.1,0.2-0.3
				 M148.9,285.4c0,0.1,0,0.1,0,0.2c0.1,0.2,0.3,0.2,0.4,0.2 M149.6,285.5l0.5-3.9 M151.2,283.7l0.9-1.9 M151.8,283.9l-0.9,1.9
				 M150.3,285.6l0.5-3.8 M151.4,281.8c0-0.1,0-0.1,0-0.2c-0.1-0.2-0.3-0.2-0.4-0.2c-0.1,0-0.2,0.1-0.2,0.3 M150.7,285.9
				c0.1,0,0.2-0.1,0.2-0.3 M150.3,285.6c0,0.1,0,0.1,0,0.2c0.1,0.2,0.3,0.2,0.4,0.2 M150.9,285.7l0.5-3.8 M152.5,284l1.1-1.2
				 M152.6,284.9c-0.2,0.2-0.3,0.5-0.3,0.7 M152.6,284.9l1.4-1.7 M152.7,282l-0.5,3.8 M151.6,285.8l0.5-3.8 M152.7,282
				c0-0.1,0-0.1,0-0.2c-0.1-0.2-0.3-0.2-0.4-0.2c-0.1,0-0.2,0.1-0.2,0.3 M152,286.1c0.1,0,0.2-0.1,0.2-0.3 M151.6,285.8
				c0,0.1,0,0.1,0,0.2c0.1,0.2,0.3,0.2,0.4,0.2 M121.3,279.8c-0.1,0-0.1,0-0.2,0c-0.2,0.1-0.2,0.3-0.2,0.4s0.1,0.2,0.3,0.2
				 M156.2,286.4c1.2-0.5,1.7-1.9,1.3-3s-1.9-1.7-3-1.3c-0.3,0.1-0.6,0.4-0.9,0.6 M153.8,286c0.7,0.5,1.6,0.7,2.4,0.4"/>
			<path class="st17" d="M156.7,304.1l0.8-0.3 M156.1,303.9c0.1,0.3,0.4,0.4,0.7,0.3 M156.1,303.9l-0.3-0.8 M155.2,304.8
				c0.3-0.1,0.4-0.4,0.3-0.7 M156.9,304.7l0.8-0.3 M157,304.7c-0.3,0.1-0.4,0.4-0.3,0.7 M154.4,305.1l0.8-0.3 M155.5,304.1l-0.3-0.8
				 M156.5,306.4l-0.3-0.8 M154.7,305.6l0.8-0.3 M156.1,305.6c-0.1-0.3-0.4-0.4-0.7-0.3 M157,306.1l-0.3-0.8 M156.7,306.3h0.1l0,0
				h0.1l0,0 M157.7,304.3c0-0.1-0.1-0.2-0.1-0.3s-0.1-0.2-0.1-0.3 M155.7,303.1c-0.1,0-0.2,0.1-0.3,0.1s-0.2,0.1-0.3,0.1
				 M154.5,305.1c0,0.1,0.1,0.2,0.1,0.3c0,0.1,0.1,0.2,0.1,0.3 M156.5,306.4L156.5,306.4h0.1h0.1h0.1 M157.3,307.6
				c1.6-0.7,2.4-2.5,1.7-4.1s-2.5-2.4-4.1-1.7s-2.4,2.5-1.7,4.1C153.8,307.5,155.7,308.3,157.3,307.6 M115.6,284.7l6.1-2.6
				 M115.6,284.7c-0.7,0.3-1.4,0.8-1.9,1.4 M113.1,286.8c-0.4,0.7-0.6,1.4-0.7,2.2 M112.5,290.5c0,0.6,0.1,1.1,0.4,1.6
				c0.6,1.5,2,2.6,3.7,2.8 M96.5,298.4l12.4,16.7 M127.6,292.9l15.2-2.6 M119.6,290.8c2.3,1.8,5.2,2.6,8.1,2.1 M114.8,316.4
				l31.1-17.6 M114.3,316.6c0.2-0.1,0.3-0.2,0.5-0.2 M108.9,315.1c1.2,1.7,3.5,2.3,5.4,1.5 M113.2,311.8l0.8-0.3 M112.5,311.5
				c0.1,0.3,0.4,0.4,0.7,0.3 M112.5,311.5l-0.3-0.8 M111.7,312.4c0.3-0.1,0.4-0.4,0.3-0.7 M113.4,312.3l0.8-0.3 M113.4,312.4
				c-0.3,0.1-0.4,0.4-0.3,0.7 M110.9,312.8l0.8-0.3"/>
		</g>
		<path class="st12" d="M164.4,319.4l-6.6-1.3c-1.2,7.1-4.5,13.5-9,18.6l5.1,4.4C159.2,335.1,163,327.6,164.4,319.4z"/>
		<polygon class="st12" points="169,320.3 153.5,317.4 162.7,311.2 		"/>
		<path class="st17" d="M50.1,251c4.5,5.4-4.1,8.6-0.4,15.6"/>
		<path class="st22" d="M180.8,295.9L180.8,295.9l-5-4.4c-0.4-0.3-0.9-0.4-1.3-0.3l-0.2,0.1l0,0h-0.1l-0.4,0l0,0l-3.2,0.9
			c-0.4,0.1-0.8,0.5-0.9,0.9l-1.9,6.4l0,0c0,0.1,0,0.2,0,0.3c0.1,0.4,0.6,0.7,1,0.6c0.3-0.1,0.5-0.3,0.5-0.6l0,0v-0.1l0,0l0.7-2.5
			c0-0.1,0.1-0.2,0.1-0.3c0.2-0.4,0.5-0.6,0.8-0.7l4.3-1.3l0,0l0.8-0.2c0.5-0.1,1,0,1.4,0.4l1.9,1.8l0,0l0.1,0.1l0,0
			c0.2,0.2,0.5,0.3,0.8,0.2c0.4-0.1,0.7-0.6,0.6-1C180.9,296,180.8,296,180.8,295.9z"/>
		<rect x="126.7" y="306.9" class="st15" width="1.1" height="0.9"/>
		<circle class="st23" cx="108.6" cy="271.9" r="1.7"/>
	</g>
</g>
</svg>
