<?xml version="1.0" encoding="utf-8"?>
<!-- Generator: Adobe Illustrator 24.3.0, SVG Export Plug-In . SVG Version: 6.00 Build 0)  -->
<svg version="1.1" id="Ebene_1" xmlns="http://www.w3.org/2000/svg" xmlns:xlink="http://www.w3.org/1999/xlink" x="0px" y="0px"
	 viewBox="0 0 587.3 327.8" style="enable-background:new 0 0 587.3 327.8;" xml:space="preserve">
<style type="text/css">
	.st0{fill:#0099FF;}
	.st1{fill:#B1B1B1;}
	.st2{fill:none;stroke:#000000;stroke-width:0.54;stroke-miterlimit:5;}
	.st3{font-family:'Helvetica-Bold';}
	.st4{font-size:14px;}
	.st5{fill-rule:evenodd;clip-rule:evenodd;}
	.st6{fill:#FF0000;stroke:#000000;stroke-width:0.25;stroke-miterlimit:10;}
	.st7{fill:none;stroke:#000000;stroke-width:0.25;stroke-miterlimit:10;}
	.st8{fill-rule:evenodd;clip-rule:evenodd;stroke:#000000;stroke-width:0.25;stroke-miterlimit:10;}
	.st9{opacity:0.2;fill:#0099FF;enable-background:new    ;}
	.st10{fill:none;stroke:#0099FF;stroke-width:1;stroke-miterlimit:10.0018;}
	.st11{fill:#B1B1B1;stroke:#1D1D1B;stroke-miterlimit:10;}
	.st12{fill:#B1B1B1;stroke:#1D1D1B;stroke-width:0.75;stroke-miterlimit:10;}
	.st13{stroke:#1D1D1B;stroke-width:0.25;stroke-miterlimit:10;}
	.st14{fill:none;stroke:#FFFFFF;stroke-miterlimit:5;}
</style>
<path class="st0" d="M261,162.1l-0.9,3.6l-1.7,3.2l-1.9,2.7l-2.1,2.7l-2.2,1.6l-0.6,1.8l-1.2,2.4l-1.7,2.7l-2.4,3.2l-2.2,1.8
	l-2.6,1.5l-2.6,1.2l-3.1,0.6l0.1,0.6l-3.8,5.3l-8.7,5.3l-6,8.5l-4.2,2.5l-1.5,2.1l-2.5,1.8l-2.8,1l-3.3,0.2l-2.5-0.3l-9,12.8
	c-1.3,1.5-2.1,4.1-2.3,8.2l0,57.1c-1.7,4.8-10.7,4.6-12.2,0l0.1-58.7c0.6-6.1,2.2-10.5,4.5-13.5l9-12.9l-1.7-3.5l-0.6-2.9l0.2-3.2
	l1.2-2.4l-0.6-2.8l7-9.9l-1.3-8.4l3.8-5.3l3.1-1.9l-3.9-4.8l7.2-15.2l0.9-1.9l0.2-1.8l1.8-3.1l1.5-1.4l13.2-7.6l3.2-1.5l3.3-0.7
	l3.1-0.2l3.5,0.1l3.7,0.7l2.8,0.9l1.5-1.1l2.2-0.6l2.5,0.2l2.7,1.5l1.9,1.9l1.2,2.2l0.6,2.6l-0.5,1.4l1.2,1.4l1.8,2.5l2,3.5l1.6,3.9
	l0.7,4.7L261,162.1z"/>
<polygon class="st1" points="207.3,144.5 205.9,147 206,149.2 205,151.1 205.7,152.7 207.5,155.1 220.4,171.2 224.6,174.4 
	229.2,176.7 232.1,177.8 234.7,178.5 238.3,179.2 241.8,179.2 245.6,178.7 244.4,180.1 242.7,181.5 240.6,182.7 238,183.7 
	234.9,184.3 231.6,184.4 228.1,183.8 224.2,182.5 221.2,181 218.6,179 215.4,176.1 203.3,161.1 202.8,160.7 200.5,163.6 199.9,163 
	197.7,165.9 196.2,163 196.3,160.8 194.4,159.1 191.4,162.3 187.3,164.6 115.4,123.1 115.4,61.3 167.8,31.1 176,35.8 176,88.2 
	171.9,95.2 166,98.6 188.9,128.6 190.7,128.3 193.3,128.3 "/>
<g transform="matrix( 10.989639282226562, 0, 0, 1.1654052734375, 721.75,53.15) ">
</g>
<line class="st2" x1="517.8" y1="258.1" x2="476.1" y2="234.1"/>
<line class="st2" x1="370.2" y1="240.2" x2="459.3" y2="291.7"/>
<polyline class="st2" points="459.4,67.9 459.4,67.9 445.9,64.3 432.8,62.7 420.4,62.9 408.7,65.1 397.9,69 388,74.9 379.3,82.4 
	371.7,91.7 365.4,102.5 360.5,114.8 356.9,128.3 354.8,143.1 354.2,158.9 355,175.5 357.3,192.7 360.9,210.4 366,228.4 370.2,240.2 
	"/>
<line class="st2" x1="459.4" y1="291.6" x2="459.4" y2="67.9"/>
<line class="st2" x1="560.3" y1="233.6" x2="459.5" y2="291.8"/>
<line class="st2" x1="516.6" y1="89.9" x2="516.6" y2="35.7"/>
<line class="st2" x1="558" y1="12.9" x2="560.1" y2="11.6"/>
<line class="st2" x1="527.8" y1="28.7" x2="527.8" y2="252.4"/>
<line class="st2" x1="556.7" y1="46.3" x2="556.7" y2="13.6"/>
<line class="st2" x1="556.7" y1="73.5" x2="556.7" y2="50.1"/>
<line class="st2" x1="556.7" y1="104.5" x2="556.7" y2="76.9"/>
<line class="st2" x1="556.7" y1="136.1" x2="556.7" y2="108"/>
<line class="st2" x1="556.7" y1="172.1" x2="556.7" y2="139.6"/>
<line class="st2" x1="556.7" y1="202.5" x2="556.7" y2="175.2"/>
<line class="st2" x1="556.7" y1="232.6" x2="556.7" y2="205.6"/>
<line class="st2" x1="556.7" y1="13.6" x2="558.1" y2="12.8"/>
<line class="st2" x1="517.8" y1="34.5" x2="517.8" y2="258.2"/>
<polyline class="st2" points="464.1,289.1 464.1,66.2 463.8,66.4 "/>
<polyline class="st2" points="556.7,104.5 544.7,111.4 544.7,95.1 556.7,88.2 556.7,104.5 "/>
<line class="st2" x1="556.7" y1="46.3" x2="528" y2="62.9"/>
<line class="st2" x1="554.5" y1="89.6" x2="554.5" y2="104"/>
<line class="st2" x1="556.7" y1="102.7" x2="544.7" y2="109.6"/>
<line class="st2" x1="547.1" y1="93.8" x2="547.1" y2="108.2"/>
<polyline class="st2" points="549,102.5 549.4,100.9 550.5,99.6 551.7,99.1 552.5,99.8 552.5,101.2 551.7,102.8 550.5,103.8 
	549.4,103.6 549,102.5 "/>
<line class="st2" x1="554.5" y1="92" x2="547.1" y2="96.3"/>
<line class="st2" x1="556.7" y1="73.5" x2="528" y2="90.1"/>
<line class="st2" x1="556.7" y1="76.5" x2="528" y2="93.1"/>
<line class="st2" x1="556.7" y1="104.9" x2="528" y2="121.4"/>
<line class="st2" x1="556.7" y1="107.9" x2="528" y2="124.4"/>
<line class="st2" x1="556.7" y1="136.2" x2="528" y2="152.8"/>
<line class="st2" x1="556.7" y1="139.2" x2="528" y2="155.8"/>
<line class="st2" x1="556.7" y1="172.1" x2="528" y2="188.7"/>
<line class="st2" x1="556.7" y1="175.1" x2="528" y2="191.6"/>
<line class="st2" x1="556.7" y1="202.7" x2="528" y2="219.3"/>
<line class="st2" x1="556.7" y1="205.7" x2="528" y2="222.3"/>
<line class="st2" x1="556.7" y1="232.6" x2="528" y2="249.1"/>
<line class="st2" x1="560.2" y1="233.6" x2="560.2" y2="11.6"/>
<line class="st2" x1="516.6" y1="89.9" x2="464.3" y2="120.1"/>
<line class="st2" x1="518.3" y1="102.5" x2="464.4" y2="133.6"/>
<line class="st2" x1="525.5" y1="30" x2="525.5" y2="253.7"/>
<line class="st2" x1="527.8" y1="28.7" x2="516.5" y2="35.2"/>
<line class="st2" x1="516.6" y1="87.8" x2="464.3" y2="118"/>
<line class="st2" x1="435.2" y1="47.6" x2="488.2" y2="17"/>
<polyline class="st2" points="556.7,13.6 555.1,13 541.6,9.5 528.6,7.8 516.1,8.1 504.4,10.2 493.6,14.2 488.4,17.2 "/>
<polyline class="st2" points="560.2,11.6 558.6,11 545.1,7.4 532.1,5.8 519.7,6 508,8.1 497.1,12.1 491.9,15.2 "/>
<polyline class="st2" points="527.8,28.7 526.2,28.1 512.7,24.6 499.7,22.9 487.3,23.1 475.5,25.2 472.2,26.5 "/>
<line class="st2" x1="388" y1="74.9" x2="437" y2="46.6"/>
<polyline class="st2" points="516.3,35.3 514.7,34.7 501.2,31.2 488.2,29.5 475.8,29.8 464.1,31.9 461.1,33 "/>
<line class="st2" x1="516.6" y1="87.8" x2="448.5" y2="48.6"/>
<polyline class="st2" points="464,66.2 462.5,65.6 448.9,62.1 435.9,60.5 423.5,60.7 411.8,62.8 406,65 "/>
<line class="st2" x1="459.4" y1="67.9" x2="464.1" y2="66.2"/>
<line class="st2" x1="544.7" y1="95.1" x2="534.6" y2="89.3"/>
<line class="st2" x1="556.7" y1="88.2" x2="546.6" y2="82.3"/>
<line class="st2" x1="556.7" y1="46.3" x2="545.3" y2="39.7"/>
<line class="st2" x1="556.7" y1="73.5" x2="541.5" y2="64.8"/>
<line class="st2" x1="556.7" y1="50.1" x2="528" y2="66.7"/>
<line class="st2" x1="556.7" y1="136.2" x2="540.9" y2="127.1"/>
<line class="st2" x1="556.7" y1="172.1" x2="532.1" y2="157.9"/>
<line class="st2" x1="556.7" y1="202.7" x2="535.5" y2="190.5"/>
<line class="st2" x1="556.7" y1="232.6" x2="535.5" y2="220.3"/>
<line class="st2" x1="544.7" y1="111.4" x2="527.8" y2="101.7"/>
<text transform="matrix(1 0 0 1 355.0038 306.2264)"><tspan x="0" y="0" class="st3 st4">AVIONICS RACK ELECTRICAL</tspan><tspan x="51" y="16.8" class="st3 st4">INSTALLATION</tspan></text>
<g>
	<path class="st2" d="M196.3,160.8l0,0.1c-0.3,1.8,0.4,3.6,1.5,4.9l0.1,0.1l2.1-3"/>
	<path class="st2" d="M211.1,177c1.8,2.3,4,4.3,6.4,6c11.4,8,25.9,7.3,32.2-1.8c1.1-1.6,1.9-3.3,2.4-5.2"/>
	<path class="st2" d="M209,179.9c1.8,2.3,4,4.3,6.4,6c11.4,8,25.9,7.3,32.2-1.8c0,0,0,0,0,0"/>
	<line class="st2" x1="211.1" y1="177" x2="211.1" y2="177"/>
	<line class="st2" x1="209" y1="179.9" x2="209" y2="179.9"/>
	<line class="st2" x1="211.1" y1="177" x2="211.1" y2="177"/>
	<line class="st2" x1="209" y1="179.9" x2="209" y2="179.9"/>
	<line class="st2" x1="211.1" y1="177" x2="211.1" y2="177"/>
	<line class="st2" x1="209" y1="179.9" x2="209" y2="179.9"/>
	<polyline class="st2" points="211,176.9 211,176.9 211,176.9 211.1,176.9 211.1,176.9 211.1,177 	"/>
	<polyline class="st2" points="208.9,179.9 208.9,179.9 208.9,179.9 209,179.9 209,179.9 209,179.9 	"/>
	<line class="st2" x1="211" y1="176.9" x2="199.9" y2="163"/>
	<line class="st2" x1="208.9" y1="179.9" x2="197.8" y2="166"/>
	<path class="st2" d="M214.5,175c1.5,1.8,3.2,3.5,5.2,4.9c9.1,6.4,20.6,5.9,25.9-1.1"/>
	<path class="st2" d="M218,175.4c-0.6,0.8-1.9,0.9-2.9,0.2c-1-0.7-1.4-2-0.8-2.8c0.6-0.8,1.9-0.9,2.9-0.2
		C218.2,173.4,218.6,174.6,218,175.4z"/>
	<line class="st2" x1="214.5" y1="175" x2="214.5" y2="175"/>
	<polyline class="st2" points="214.4,174.9 214.4,175 214.5,175 	"/>
	<line class="st2" x1="214.4" y1="174.9" x2="203.3" y2="161.1"/>
	<line class="st2" x1="217" y1="147.7" x2="214.5" y2="149.1"/>
	<path class="st2" d="M205.9,147c-0.1,0.7-0.1,1.5,0,2.2"/>
	<path class="st2" d="M204.9,150.7l0.1-0.2c0.3-0.4,0.5-0.7,0.8-1.1l0.1-0.2"/>
	<path class="st2" d="M204.9,150.7c0.2,1.1,0.7,2.1,1.5,3.1"/>
	<line class="st2" x1="208.5" y1="150.8" x2="206.4" y2="153.8"/>
	<path class="st2" d="M207.7,143.8c-1.3,1.9-1,4.7,0.8,7"/>
	<path class="st2" d="M209.2,142.5c-0.6,0.3-1.1,0.8-1.5,1.3"/>
	<path class="st2" d="M206.7,145.3c-0.1,0.1-0.2,0.3-0.3,0.4c-0.1,0.1-0.1,0.2-0.2,0.4"/>
	<path class="st2" d="M205.7,146.8L205.7,146.8c0.2-0.2,0.3-0.5,0.4-0.6l0.1-0.1"/>
	<path class="st2" d="M217.6,167.7l1.9,2.1c8.6,9.1,25.3,13.7,35.2,4l1.6-1.9"/>
	<line class="st2" x1="206.4" y1="153.8" x2="217.6" y2="167.7"/>
	<line class="st2" x1="214.5" y1="149.1" x2="217" y2="147.7"/>
	<line class="st2" x1="208.5" y1="150.8" x2="219.7" y2="164.7"/>
	<path class="st2" d="M258.4,168.9l1.3-2.2c3.8-8,0.7-17.2-4.8-23.6l-0.8-0.8"/>
	<path class="st2" d="M242,134.2l-2.8-0.9c-4.7-1.3-9.9-1.3-14.5,0.5l-2.3,1.1"/>
	<path class="st2" d="M219.7,164.7l1.9,2.2c8.6,9.1,25.3,13.7,35.2,4l1.6-1.9"/>
	<path class="st2" d="M222.5,134.9c0,0-0.1,0-0.2,0.1c-0.1,0.1-0.2,0.1-0.2,0.1"/>
	<line class="st2" x1="222.1" y1="135.1" x2="209.2" y2="142.5"/>
	<polyline class="st2" points="217.8,153.2 213.5,147.9 217.5,145.6 	"/>
	<path class="st2" d="M204.8,142.5c0.4,0.5,0.9,0.9,1.4,1.3c0.4,0.3,0.7,0.5,1.1,0.6"/>
	<path class="st2" d="M203,143.5c0.6,0.7,1.3,1.3,2,1.9c0.4,0.3,0.8,0.5,1.2,0.7"/>
	<line class="st2" x1="207.5" y1="155.1" x2="203.3" y2="161.1"/>
	<line class="st2" x1="206.9" y1="154.4" x2="200.5" y2="163.6"/>
	<line class="st2" x1="205" y1="151.1" x2="197.7" y2="161.6"/>
	<path class="st2" d="M205.1,146.2c0.2,0.2,0.4,0.5,0.7,0.7c0.1,0,0.1,0.1,0.2,0.1"/>
	<line class="st2" x1="203" y1="143.5" x2="205.1" y2="146.2"/>
	<line class="st2" x1="194.4" y1="159.1" x2="194.8" y2="159.5"/>
	<line class="st2" x1="203.4" y1="147.2" x2="201.2" y2="144.6"/>
	<path class="st2" d="M203.3,147.2c0.4,0.5,0.9,1,1.4,1.3c0.4,0.3,0.8,0.5,1.2,0.7"/>
	<path class="st2" d="M194.8,159.5c0.4,0.5,0.9,0.9,1.4,1.3c0.5,0.3,1,0.6,1.5,0.8"/>
	<polyline class="st5" points="204.8,142.5 204.8,142.5 204.7,142.5 204.7,142.6 204.8,142.6 204.8,142.5 	"/>
	<polyline class="st2" points="204.8,142.5 204.8,142.5 204.7,142.5 204.7,142.6 204.8,142.6 204.8,142.5 	"/>
	<polyline class="st2" points="184.8,131 184.8,131 184.8,131 184.7,131 184.7,131 184.7,131 	"/>
	<line class="st2" x1="193.3" y1="128.3" x2="189.8" y2="130.3"/>
	<path class="st2" d="M193.3,128.3c-1.6-0.3-3.1-0.2-4.4,0.3"/>
	<line class="st2" x1="197.2" y1="139.6" x2="201.2" y2="144.6"/>
	<line class="st2" x1="204.8" y1="142.5" x2="193.3" y2="128.3"/>
	<line class="st2" x1="247.6" y1="184.2" x2="249.7" y2="181.2"/>
	<line class="st2" x1="207.7" y1="143.8" x2="206.7" y2="145.3"/>
	<path class="st2" d="M258.4,168.9l-0.2,0.3c-0.5,0.8-1.1,1.6-1.7,2.4l-0.2,0.3"/>
	<line class="st2" x1="184.8" y1="131" x2="184.7" y2="131"/>
	<line class="st2" x1="206" y1="217.5" x2="217.3" y2="210.9"/>
	<line class="st2" x1="191.9" y1="210.2" x2="206" y2="217.5"/>
	<line class="st2" x1="189" y1="196.4" x2="191.9" y2="210.2"/>
	<line class="st2" x1="196" y1="186.5" x2="196.1" y2="186.4"/>
	<line class="st2" x1="198.8" y1="200.3" x2="196" y2="186.5"/>
	<line class="st2" x1="213" y1="207.6" x2="198.8" y2="200.3"/>
	<line class="st2" x1="216.5" y1="205.6" x2="213" y2="207.6"/>
	<path class="st2" d="M197.5,192.7c0.5,3.7,2.9,7.4,6.5,9.9c3.7,2.6,8.1,3.6,11.9,2.7"/>
	<line class="st2" x1="196" y1="186.5" x2="189" y2="196.4"/>
	<line class="st2" x1="198.8" y1="200.3" x2="191.9" y2="210.2"/>
	<line class="st2" x1="213" y1="207.6" x2="206" y2="217.5"/>
	<line class="st2" x1="223.3" y1="202.4" x2="217.3" y2="210.9"/>
	<path class="st2" d="M189.6,199.2c-3.1,4.9-0.8,12.2,5.2,16.4c6.2,4.4,14,3.9,17.4-0.9c0,0,0,0,0,0"/>
	<polyline class="st5" points="189,240.5 189,240.4 189,240.4 189,240.5 189,240.5 189,240.5 189,240.5 	"/>
	<polyline class="st2" points="189,240.5 189,240.4 189,240.4 189,240.5 189,240.5 189,240.5 189,240.5 	"/>
	<path class="st2" d="M189,296.3l-0.2,0.9c-1.8,3.5-10,3.4-11.7,0l-0.2-0.9"/>
	<polyline class="st2" points="181.4,224.1 181.4,224.1 181.4,224.1 	"/>
	<line class="st2" x1="189" y1="240.5" x2="189" y2="240.5"/>
	<line class="st2" x1="212.2" y1="214.6" x2="213.1" y2="213.4"/>
	<path class="st2" d="M189,296.3v-1.9c0-6.9,0-13.7,0-20.6v-33.3"/>
	<path class="st2" d="M176.9,240.5v28c0,8.2,0,16.4,0,24.7v3.1"/>
	<path class="st2" d="M189,240.5l0-1.3c0.1-2.8,0.6-5.1,1.9-7.6l0.4-0.6"/>
	<path class="st2" d="M181.4,224.1l-0.9,1.4c-2.3,4-3.4,8.6-3.6,13.2l0,1.9"/>
	<path class="st2" d="M181.4,224.1l1.2-1.7c2.3-3.2,4.5-6.4,6.7-9.6l1.1-1.6"/>
	<path class="st2" d="M200.4,218.2l-0.8,1.2c-2.2,3.2-4.4,6.4-6.7,9.5l-1.5,2.2"/>
	<path class="st2" d="M234.2,147.8c-0.5,2.1,0.7,4.5,2.8,6c2.2,1.5,4.9,1.8,6.7,0.6"/>
	<path class="st2" d="M234.2,146.3l-0.3,0.4c-3.4,5.9,6.5,12.8,10.9,7.7l0.3-0.4"/>
	<path class="st2" d="M235,144c-1.8,2.6-0.6,6.6,2.7,8.9c3.3,2.3,7.5,2.1,9.3-0.5c0,0,0,0,0,0"/>
	<path class="st2" d="M253.5,143.2c1.8-2.6,0.6-6.6-2.7-9c-3.3-2.3-7.5-2.1-9.3,0.5c0,0,0,0,0,0c-1.8,2.6-0.6,6.6,2.7,9
		C247.5,146.1,251.7,145.9,253.5,143.2C253.5,143.2,253.5,143.2,253.5,143.2"/>
	<path class="st2" d="M253,141.8c1.5-2.2,0.5-5.5-2.2-7.4c-2.7-1.9-6.2-1.7-7.7,0.4c-1.5,2.2-0.5,5.5,2.2,7.4
		C248,144.2,251.5,144,253,141.8z"/>
	<path class="st2" d="M224.5,200.3c0.9-0.6,1.6-1.2,1.5-1.3c-0.1-0.1-0.9,0.2-1.8,0.8c-0.9,0.6-1.6,1.2-1.5,1.3
		C222.8,201.2,223.6,200.9,224.5,200.3z"/>
	<path class="st2" d="M214.4,200.7c-0.2,0.3-1.2,0.2-2.3-0.4c-1.1-0.5-1.9-1.3-1.7-1.6c0.2-0.3,1.2-0.2,2.3,0.4
		C213.8,199.6,214.6,200.3,214.4,200.7z"/>
	<path class="st2" d="M198.3,183.7c0.3,0,0.4-1,0.2-2.1c-0.2-1.1-0.5-2-0.8-1.9c-0.3,0-0.4,1-0.2,2.1
		C197.6,182.9,198,183.8,198.3,183.7z"/>
	<path class="st2" d="M200.2,179l-0.2-0.8c-0.4-1.6-0.8-3.1-1.3-4.7l-0.2-0.8l0.7-0.5l0.7-0.5l0.7-0.4l0.7-0.5l0.1-0.1"/>
	<path class="st2" d="M202.1,171.5c-1.4,2.1-2.1,4.7-2,7.5"/>
	<path class="st2" d="M208.8,193.7l-0.8-0.4c-1.7-0.7-3.3-1.4-5-2.1l-0.9-0.3l-0.1-0.9c-0.2-1.8-0.5-3.5-0.8-5.2l-0.2-0.8"/>
	<path class="st2" d="M201.1,183.8c1.4,3.8,4.1,7.3,7.7,9.9"/>
	<path class="st2" d="M225.7,197.4l-0.6,0.4c-1.2,0.8-2.5,1.5-3.6,2.3l-0.6,0.4l-0.7-0.5c-1.4-0.9-2.9-1.8-4.4-2.6l-0.7-0.4"/>
	<path class="st2" d="M215,196.9c3.7,1.2,7.4,1.4,10.7,0.5"/>
	<path class="st2" d="M208.7,202.1l0.9,0.5c2.1,1,4.1,1.9,6.2,2.8l1.2,0.5l1.9-1c3.6-1.9,7.4-4.1,10.8-6.2l2.2-1.4"/>
	<path class="st2" d="M194.7,178l0.1,1c0.2,1.8,0.5,3.6,0.8,5.4l0.1,0.9"/>
	<path class="st2" d="M235.8,191.8l-0.5,0.3c-1,0.5-2.2,1.1-3.2,1.7l-0.5,0.3"/>
	<path class="st2" d="M231.5,194c0.4-0.5,0.9-0.9,1.2-1.5c0.2-0.4,0.5-0.7,0.7-1.1"/>
	<polyline class="st2" points="235.7,191.2 235.7,191.3 235.8,191.8 	"/>
	<path class="st2" d="M198.5,196.2l1,0.7c1.9,1.2,3.7,2.3,5.6,3.3l0.9,0.5"/>
	<path class="st2" d="M196.7,189.7l0.2,0.9c0.4,1.6,0.8,3.2,1.3,4.8l0.2,0.8"/>
	<line class="st2" x1="232" y1="197.1" x2="235.8" y2="191.8"/>
	<line class="st2" x1="217.2" y1="205.6" x2="220.9" y2="200.4"/>
	<line class="st2" x1="231.5" y1="194" x2="225.7" y2="197.4"/>
	<line class="st2" x1="206" y1="200.7" x2="208.7" y2="202.1"/>
	<line class="st2" x1="198.5" y1="196.2" x2="202.2" y2="190.9"/>
	<line class="st2" x1="215" y1="196.9" x2="208.8" y2="193.7"/>
	<line class="st2" x1="195.8" y1="185.3" x2="196.7" y2="189.7"/>
	<line class="st2" x1="194.7" y1="178" x2="198.5" y2="172.7"/>
	<line class="st2" x1="201.1" y1="183.8" x2="200.2" y2="179"/>
	<path class="st2" d="M246.4,168.9c0.9-0.6,1.5-1.1,1.4-1.3c-0.1-0.1-0.9,0.2-1.8,0.8c-0.9,0.6-1.5,1.1-1.4,1.3
		C244.7,169.9,245.5,169.5,246.4,168.9z"/>
	<path class="st2" d="M236.4,169.4c0.2-0.3-0.6-1-1.7-1.6c-1.1-0.5-2.1-0.7-2.3-0.4c-0.2,0.3,0.6,1,1.7,1.6
		C235.3,169.5,236.3,169.7,236.4,169.4z"/>
	<path class="st2" d="M220.3,152.4c-0.3,0-0.6-0.9-0.8-2c-0.2-1.1-0.1-2,0.2-2.1c0.3,0,0.6,0.9,0.8,2
		C220.6,151.4,220.6,152.4,220.3,152.4z"/>
	<path class="st2" d="M217.9,153.7l-0.2-0.9c-0.3-1.8-0.6-3.5-0.8-5.3l-0.1-0.9"/>
	<path class="st2" d="M226.6,168.5l-0.8-0.4c-6.8-4.4-4.6-1.3-6.7-8.6l-0.2-0.8"/>
	<path class="st2" d="M243.5,172.2l-0.6,0.3c-5.4,3-3.2,2-9.4-0.4l-0.8-0.4"/>
	<line class="st2" x1="254.1" y1="142.3" x2="254.1" y2="142.3"/>
	<path class="st2" d="M257.8,160.5l-0.4-2.7c-0.6-4.5-1.5-8.9-2.7-13.2l-0.6-2.3"/>
	<path class="st2" d="M242.9,169.1l2.2-1.4c3.5-2.2,7.1-4.3,10.8-6.2l1.9-1"/>
	<path class="st2" d="M235.1,164.5l0.9,0.5c2,1.1,3.9,2.2,5.8,3.4l1.1,0.7"/>
	<path class="st2" d="M254.4,160.9c3.3-4.7,2.8-11.3-1.3-17"/>
	<path class="st2" d="M235.1,164.5c7.5,3.3,15.4,1.8,19.2-3.6c0,0,0,0,0,0"/>
	<path class="st2" d="M235.5,132.6l-0.7,0.4c-1.3,0.7-2.7,1.4-4,2.1l-0.7,0.4"/>
	<path class="st2" d="M241.2,135.1l-0.6-0.3c-1.4-0.6-2.9-1.3-4.3-1.9l-0.8-0.3"/>
	<path class="st2" d="M241.1,135.4c-3.9-1.1-7.7-1.1-11,0.2"/>
	<path class="st2" d="M220.6,141.3l0.2,0.8c0.5,1.6,0.9,3.2,1.3,4.8l0.2,0.8"/>
	<path class="st2" d="M226.5,137.6l-0.7,0.4c-1.5,0.9-2.9,1.8-4.4,2.7l-0.8,0.5"/>
	<path class="st2" d="M226.4,137.6c-0.8,0.7-1.5,1.4-2.1,2.2c-1.6,2.2-2.3,4.9-2.1,7.9"/>
	<path class="st2" d="M254,165.8l-0.6,0.4c-1.1,0.8-2.4,1.5-3.6,2.2l-0.6,0.4"/>
	<path class="st2" d="M224.3,159.5l1.1,0.5c2.1,0.8,4,1.8,6.1,2.7l0.9,0.4"/>
	<path class="st2" d="M223.2,152.1l0.2,0.9c0.3,1.8,0.6,3.7,0.8,5.5l0.1,1"/>
	<path class="st2" d="M223.2,152.1c1.4,3.9,4.2,7.5,7.9,10.1c0.4,0.3,0.9,0.6,1.3,0.9"/>
	<line class="st2" x1="257.8" y1="160.5" x2="254" y2="165.8"/>
	<line class="st2" x1="249.3" y1="168.8" x2="243.5" y2="172.2"/>
	<line class="st2" x1="242.9" y1="169.1" x2="239.1" y2="174.4"/>
	<line class="st2" x1="232.8" y1="171.7" x2="226.6" y2="168.5"/>
	<line class="st2" x1="224.3" y1="159.5" x2="220.5" y2="164.8"/>
	<line class="st2" x1="232.4" y1="163.1" x2="235.1" y2="164.5"/>
	<line class="st2" x1="218.9" y1="158.6" x2="217.9" y2="153.7"/>
	<line class="st2" x1="220.6" y1="141.3" x2="216.8" y2="146.6"/>
	<line class="st2" x1="222.3" y1="147.7" x2="223.2" y2="152.1"/>
	<line class="st2" x1="230.1" y1="135.5" x2="226.5" y2="137.6"/>
	<line class="st2" x1="241.5" y1="134.8" x2="235.1" y2="144"/>
	<line class="st2" x1="247.1" y1="152.4" x2="253.5" y2="143.2"/>
	<line class="st2" x1="217.4" y1="150.6" x2="216.6" y2="151.7"/>
	<line class="st2" x1="197.1" y1="156.2" x2="201.7" y2="148"/>
	<line class="st2" x1="197.6" y1="150.4" x2="201.7" y2="148"/>
	<line class="st2" x1="197.6" y1="150.4" x2="193" y2="158.6"/>
	<line class="st2" x1="201.7" y1="148" x2="201.7" y2="145.4"/>
	<line class="st2" x1="197.6" y1="147.8" x2="201.7" y2="145.4"/>
	<line class="st2" x1="197.6" y1="147.8" x2="197.6" y2="150.4"/>
	<line class="st2" x1="201.7" y1="145.4" x2="197.1" y2="139.3"/>
	<line class="st2" x1="193" y1="141.7" x2="197.6" y2="147.8"/>
	<line class="st2" x1="176" y1="88.2" x2="171.9" y2="95.2"/>
	<line class="st2" x1="176" y1="35.8" x2="176" y2="88.2"/>
	<line class="st2" x1="171.9" y1="33.4" x2="176" y2="35.8"/>
	<line class="st2" x1="123.6" y1="61.3" x2="171.9" y2="33.4"/>
	<line class="st2" x1="171.9" y1="95.2" x2="166" y2="98.6"/>
	<polyline class="st5" points="171.9,33.4 171.9,33.4 171.9,33.4 171.9,33.5 171.9,33.5 171.9,33.4 171.9,33.4 	"/>
	<polyline class="st2" points="171.9,33.4 171.9,33.4 171.9,33.4 171.9,33.5 171.9,33.5 171.9,33.4 171.9,33.4 	"/>
	<line class="st2" x1="167.8" y1="31.1" x2="171.9" y2="33.4"/>
	<line class="st2" x1="144.5" y1="78.1" x2="193" y2="141.7"/>
	<line class="st2" x1="148.6" y1="75.8" x2="197.1" y2="139.3"/>
	<line class="st2" x1="148.6" y1="75.8" x2="144.5" y2="78.1"/>
	<line class="st2" x1="193" y1="158.6" x2="187.3" y2="164.6"/>
	<line class="st2" x1="191.4" y1="162.3" x2="187.3" y2="164.6"/>
	<line class="st2" x1="197.1" y1="156.2" x2="191.4" y2="162.3"/>
	<line class="st2" x1="123.6" y1="61.3" x2="148.6" y2="75.8"/>
	<line class="st2" x1="115.4" y1="123.1" x2="187.3" y2="164.6"/>
	<line class="st2" x1="115.4" y1="61.3" x2="144.5" y2="78.1"/>
	<polyline class="st2" points="115.4,123.1 115.4,61.3 167.8,31.1 	"/>
	<line class="st2" x1="179.5" y1="139.4" x2="174.2" y2="142.3"/>
	<path class="st2" d="M174.2,142.3C174.1,142.3,174.1,142.3,174.2,142.3c-0.7,0.5-0.9,1.5-0.4,2.4"/>
	<polyline class="st2" points="174.2,142.3 174.1,142.3 174.1,142.3 	"/>
	<line class="st2" x1="180.8" y1="138.6" x2="179.5" y2="139.4"/>
	<polyline class="st2" points="180.8,138.6 175.5,141.5 174.2,142.3 	"/>
	<path class="st2" d="M193.2,152.8c0.5-0.3,0.5-1.3,0-2.2c0,0,0,0,0,0"/>
	<path class="st2" d="M190.5,154.4c0.5-0.3,0.5-1.3,0-2.2c0,0,0,0,0,0"/>
	<line class="st2" x1="190.5" y1="154.4" x2="190.5" y2="154.4"/>
	<line class="st2" x1="190.5" y1="154.4" x2="186.2" y2="156.7"/>
	<line class="st2" x1="186.2" y1="144.8" x2="190.5" y2="152.1"/>
	<line class="st2" x1="186.2" y1="156.7" x2="186.2" y2="144.8"/>
	<path class="st2" d="M180.9,154.6c-1.3,0.7-3.3-0.5-4.6-2.7c-1.3-2.2-1.3-4.6,0-5.4c1.3-0.7,3.3,0.5,4.6,2.7
		C182.2,151.4,182.2,153.8,180.9,154.6z"/>
	<line class="st2" x1="174.6" y1="146.2" x2="173.8" y2="144.7"/>
	<polyline class="st2" points="193.2,150.6 188.9,143.2 186.2,144.8 	"/>
	<polyline class="st2" points="179.5,139.4 174.6,142.2 182.7,146.8 	"/>
	<line class="st2" x1="186.2" y1="144.8" x2="182.7" y2="146.8"/>
	<line class="st2" x1="180.8" y1="138.6" x2="188.9" y2="143.2"/>
	<line class="st2" x1="174.6" y1="154.1" x2="174.6" y2="142.2"/>
	<line class="st2" x1="182.7" y1="146.8" x2="182.7" y2="158.7"/>
	<polyline class="st2" points="186.2,156.7 182.7,158.7 174.6,154.1 	"/>
	<line class="st2" x1="190.5" y1="154.4" x2="193.2" y2="152.8"/>
</g>
<g>
	<path class="st6" d="M494.5,228.1l0.1,0.4l0.2,0.4l0.2,0.3l0.2,0.3l0.2,0.2l0.1,0.2l0.1,0.3l0.2,0.3l0.3,0.3l0.2,0.2l0.3,0.2
		l0.3,0.1l0.3,0.1l0,0.1l0.4,0.6l1,0.6l0.7,0.9l0.5,0.3l0.2,0.2l0.3,0.2l0.3,0.1l0.4,0l0.3,0l1,1.4c0.1,0.2,0.2,0.4,0.3,0.9l0,6.2
		c0.2,0.5,1.2,0.5,1.3,0l0-6.4c-0.1-0.7-0.2-1.2-0.5-1.5l-1-1.4l0.2-0.4l0.1-0.3l0-0.4l-0.1-0.3l0.1-0.3l-0.8-1.1l0.1-0.9l-0.4-0.6
		L501,229l0.4-0.5l-0.8-1.7l-0.1-0.2l0-0.2l-0.2-0.3l-0.2-0.1l-1.4-0.8l-0.3-0.2l-0.4-0.1l-0.3,0l-0.4,0l-0.4,0.1l-0.3,0.1l-0.2-0.1
		l-0.2-0.1l-0.3,0l-0.3,0.2l-0.2,0.2l-0.1,0.2l-0.1,0.3l0.1,0.2l-0.1,0.2l-0.2,0.3l-0.2,0.4l-0.2,0.4l-0.1,0.5L494.5,228.1z"/>
	<polygon class="st6" points="500.3,226.2 500.5,226.4 500.5,226.7 500.6,226.9 500.5,227.1 500.3,227.3 498.9,229.1 498.4,229.5 
		497.9,229.7 497.6,229.8 497.3,229.9 496.9,230 496.6,230 496.2,229.9 496.3,230.1 496.5,230.2 496.7,230.4 497,230.5 497.3,230.5 
		497.7,230.5 498.1,230.5 498.5,230.3 498.8,230.2 499.1,229.9 499.5,229.6 500.8,228 500.8,228 501.1,228.3 501.1,228.2 
		501.4,228.5 501.5,228.2 501.5,228 501.7,227.8 502.1,228.1 502.5,228.4 510.4,223.8 510.4,217.1 504.7,213.8 503.8,214.3 
		503.8,220 504.2,220.8 504.9,221.2 502.4,224.4 502.2,224.4 501.9,224.4 	"/>
	<g>
		<path class="st7" d="M501.5,228L501.5,228c0,0.2,0,0.4-0.2,0.6l0,0l-0.2-0.3"/>
		<path class="st7" d="M499.9,229.7c-0.2,0.2-0.4,0.5-0.7,0.7c-1.3,0.9-2.8,0.8-3.5-0.2c-0.1-0.2-0.2-0.4-0.3-0.6"/>
		<path class="st7" d="M500.2,230.1c-0.2,0.2-0.4,0.5-0.7,0.7c-1.3,0.9-2.8,0.8-3.5-0.2c0,0,0,0,0,0"/>
		<line class="st7" x1="499.9" y1="229.7" x2="499.9" y2="229.7"/>
		<line class="st7" x1="500.2" y1="230.1" x2="500.2" y2="230.1"/>
		<line class="st7" x1="499.9" y1="229.7" x2="499.9" y2="229.7"/>
		<line class="st7" x1="500.2" y1="230.1" x2="500.2" y2="230.1"/>
		<line class="st7" x1="499.9" y1="229.7" x2="499.9" y2="229.7"/>
		<line class="st7" x1="500.2" y1="230.1" x2="500.2" y2="230.1"/>
		<polyline class="st7" points="499.9,229.7 499.9,229.7 499.9,229.7 499.9,229.7 499.9,229.7 499.9,229.7 		"/>
		<polyline class="st7" points="500.2,230 500.2,230 500.2,230 500.2,230 500.2,230.1 500.2,230.1 		"/>
		<line class="st7" x1="499.9" y1="229.7" x2="501.1" y2="228.2"/>
		<line class="st7" x1="500.2" y1="230" x2="501.4" y2="228.5"/>
		<path class="st7" d="M499.6,229.5c-0.2,0.2-0.4,0.4-0.6,0.5c-1,0.7-2.3,0.6-2.8-0.1"/>
		<path class="st7" d="M499.2,229.6c0.1,0.1,0.2,0.1,0.3,0c0.1-0.1,0.2-0.2,0.1-0.3c-0.1-0.1-0.2-0.1-0.3,0S499.1,229.5,499.2,229.6
			z"/>
		<line class="st7" x1="499.6" y1="229.5" x2="499.6" y2="229.5"/>
		<polyline class="st7" points="499.6,229.5 499.6,229.5 499.6,229.5 		"/>
		<line class="st7" x1="499.6" y1="229.5" x2="500.8" y2="228"/>
		<line class="st7" x1="499.3" y1="226.5" x2="499.5" y2="226.7"/>
		<path class="st7" d="M500.5,226.4c0,0.1,0,0.2,0,0.2"/>
		<path class="st7" d="M500.6,226.9L500.6,226.9c0-0.1-0.1-0.1-0.1-0.1l0,0"/>
		<path class="st7" d="M500.6,226.9c0,0.1-0.1,0.2-0.2,0.3"/>
		<line class="st7" x1="500.2" y1="226.9" x2="500.4" y2="227.2"/>
		<path class="st7" d="M500.3,226.1c0.1,0.2,0.1,0.5-0.1,0.8"/>
		<path class="st7" d="M500.1,226c0.1,0,0.1,0.1,0.2,0.1"/>
		<path class="st7" d="M500.4,226.3C500.4,226.3,500.4,226.3,500.4,226.3C500.4,226.3,500.5,226.3,500.4,226.3"/>
		<path class="st7" d="M500.5,226.4L500.5,226.4C500.5,226.4,500.5,226.4,500.5,226.4L500.5,226.4"/>
		<path class="st7" d="M499.2,228.7L499,229c-0.9,1-2.8,1.5-3.8,0.4l-0.2-0.2"/>
		<line class="st7" x1="500.4" y1="227.2" x2="499.2" y2="228.7"/>
		<line class="st7" x1="499.5" y1="226.7" x2="499.3" y2="226.5"/>
		<line class="st7" x1="500.2" y1="226.9" x2="499" y2="228.4"/>
		<path class="st7" d="M494.8,228.9l-0.1-0.2c-0.4-0.9-0.1-1.9,0.5-2.6l0.1-0.1"/>
		<path class="st7" d="M496.5,225.1l0.3-0.1c0.5-0.1,1.1-0.1,1.6,0l0.3,0.1"/>
		<path class="st7" d="M499,228.4l-0.2,0.2c-0.9,1-2.8,1.5-3.8,0.4l-0.2-0.2"/>
		<path class="st7" d="M498.7,225.1C498.7,225.1,498.7,225.1,498.7,225.1C498.7,225.1,498.7,225.1,498.7,225.1"/>
		<line class="st7" x1="498.7" y1="225.1" x2="500.1" y2="226"/>
		<polyline class="st7" points="499.2,227.1 499.7,226.6 499.2,226.3 		"/>
		<path class="st7" d="M500.6,226c0,0.1-0.1,0.1-0.2,0.1c0,0-0.1,0.1-0.1,0.1"/>
		<path class="st7" d="M500.8,226.1c-0.1,0.1-0.1,0.1-0.2,0.2c0,0-0.1,0.1-0.1,0.1"/>
		<line class="st7" x1="500.3" y1="227.3" x2="500.8" y2="228"/>
		<line class="st7" x1="500.4" y1="227.3" x2="501.1" y2="228.3"/>
		<line class="st7" x1="500.6" y1="226.9" x2="501.4" y2="228"/>
		<path class="st7" d="M500.6,226.4C500.6,226.4,500.5,226.4,500.6,226.4C500.5,226.4,500.5,226.4,500.6,226.4"/>
		<line class="st7" x1="500.8" y1="226.1" x2="500.6" y2="226.4"/>
		<line class="st7" x1="501.7" y1="227.8" x2="501.7" y2="227.8"/>
		<line class="st7" x1="500.8" y1="226.5" x2="501" y2="226.2"/>
		<path class="st7" d="M500.8,226.5c0,0.1-0.1,0.1-0.2,0.1c0,0-0.1,0.1-0.1,0.1"/>
		<path class="st7" d="M501.7,227.8c0,0.1-0.1,0.1-0.2,0.1c-0.1,0-0.1,0.1-0.2,0.1"/>
		<polyline class="st8" points="500.6,226 500.6,226 500.6,226 500.6,226 500.6,226 500.6,226 		"/>
		<polyline class="st7" points="500.6,226 500.6,226 500.6,226 500.6,226 500.6,226 500.6,226 		"/>
		<polyline class="st7" points="502.8,224.7 502.8,224.7 502.8,224.7 502.8,224.7 502.8,224.7 502.8,224.7 		"/>
		<line class="st7" x1="501.9" y1="224.4" x2="502.3" y2="224.6"/>
		<path class="st7" d="M501.9,224.4c0.2,0,0.3,0,0.5,0"/>
		<line class="st7" x1="501.4" y1="225.6" x2="501" y2="226.2"/>
		<line class="st7" x1="500.6" y1="226" x2="501.9" y2="224.4"/>
		<line class="st7" x1="495.9" y1="230.5" x2="495.7" y2="230.2"/>
		<line class="st7" x1="500.3" y1="226.1" x2="500.4" y2="226.3"/>
		<path class="st7" d="M494.8,228.9L494.8,228.9c0.1,0.1,0.1,0.2,0.2,0.3l0,0"/>
		<line class="st7" x1="502.8" y1="224.7" x2="502.8" y2="224.7"/>
		<line class="st7" x1="500.5" y1="234.2" x2="499.2" y2="233.4"/>
		<line class="st7" x1="502" y1="233.4" x2="500.5" y2="234.2"/>
		<line class="st7" x1="502.3" y1="231.9" x2="502" y2="233.4"/>
		<line class="st7" x1="501.6" y1="230.8" x2="501.6" y2="230.8"/>
		<line class="st7" x1="501.3" y1="232.3" x2="501.6" y2="230.8"/>
		<line class="st7" x1="499.7" y1="233.1" x2="501.3" y2="232.3"/>
		<line class="st7" x1="499.3" y1="232.9" x2="499.7" y2="233.1"/>
		<path class="st7" d="M501.4,231.5c-0.1,0.4-0.3,0.8-0.7,1.1c-0.4,0.3-0.9,0.4-1.3,0.3"/>
		<line class="st7" x1="501.6" y1="230.8" x2="502.3" y2="231.9"/>
		<line class="st7" x1="501.3" y1="232.3" x2="502" y2="233.4"/>
		<line class="st7" x1="499.7" y1="233.1" x2="500.5" y2="234.2"/>
		<line class="st7" x1="498.6" y1="232.5" x2="499.2" y2="233.4"/>
		<path class="st7" d="M502.3,232.2c0.3,0.5,0.1,1.3-0.6,1.8c-0.7,0.5-1.5,0.4-1.9-0.1c0,0,0,0,0,0"/>
		<polyline class="st8" points="502.3,236.7 502.3,236.7 502.3,236.7 502.3,236.7 502.3,236.7 502.3,236.7 502.3,236.7 		"/>
		<polyline class="st7" points="502.3,236.7 502.3,236.7 502.3,236.7 502.3,236.7 502.3,236.7 502.3,236.7 502.3,236.7 		"/>
		<path class="st7" d="M502.3,242.8l0,0.1c0.2,0.4,1.1,0.4,1.3,0l0-0.1"/>
		<polyline class="st7" points="503.2,234.9 503.2,234.9 503.2,234.9 		"/>
		<line class="st7" x1="502.3" y1="236.7" x2="502.3" y2="236.7"/>
		<line class="st7" x1="499.8" y1="233.9" x2="499.7" y2="233.7"/>
		<path class="st7" d="M502.3,242.8v-0.2c0-0.8,0-1.5,0-2.3v-3.6"/>
		<path class="st7" d="M503.7,236.7v3.1c0,0.9,0,1.8,0,2.7v0.3"/>
		<path class="st7" d="M502.3,236.7l0-0.1c0-0.3-0.1-0.6-0.2-0.8l0-0.1"/>
		<path class="st7" d="M503.2,234.9l0.1,0.1c0.3,0.4,0.4,0.9,0.4,1.4l0,0.2"/>
		<path class="st7" d="M503.2,234.9l-0.1-0.2c-0.2-0.3-0.5-0.7-0.7-1l-0.1-0.2"/>
		<path class="st7" d="M501.1,234.2l0.1,0.1c0.2,0.3,0.5,0.7,0.7,1l0.2,0.2"/>
		<path class="st7" d="M497.4,226.5c0.1,0.2-0.1,0.5-0.3,0.7c-0.2,0.2-0.5,0.2-0.7,0.1"/>
		<path class="st7" d="M497.4,226.4L497.4,226.4c0.4,0.7-0.7,1.4-1.2,0.9l0,0"/>
		<path class="st7" d="M497.3,226.1c0.2,0.3,0.1,0.7-0.3,1c-0.4,0.3-0.8,0.2-1-0.1c0,0,0,0,0,0"/>
		<path class="st7" d="M495.3,226c-0.2-0.3-0.1-0.7,0.3-1c0.4-0.3,0.8-0.2,1,0.1c0,0,0,0,0,0c0.2,0.3,0.1,0.7-0.3,1
			C495.9,226.4,495.5,226.3,495.3,226C495.3,226,495.3,226,495.3,226"/>
		<path class="st7" d="M495.3,225.9c-0.2-0.2-0.1-0.6,0.2-0.8c0.3-0.2,0.7-0.2,0.8,0c0.2,0.2,0.1,0.6-0.2,0.8
			C495.9,226.1,495.5,226.1,495.3,225.9z"/>
		<path class="st7" d="M498.5,232.3c-0.1-0.1-0.2-0.1-0.2-0.1C498.3,232.1,498.4,232.2,498.5,232.3c0.1,0,0.2,0.1,0.2,0.1
			C498.6,232.4,498.6,232.3,498.5,232.3z"/>
		<path class="st7" d="M499.6,232.3c0,0,0.1,0,0.3,0c0.1-0.1,0.2-0.1,0.2-0.2c0,0-0.1,0-0.3,0C499.6,232.2,499.5,232.3,499.6,232.3z
			"/>
		<path class="st7" d="M501.3,230.5c0,0,0-0.1,0-0.2c0-0.1,0.1-0.2,0.1-0.2c0,0,0,0.1,0,0.2S501.4,230.5,501.3,230.5z"/>
		<path class="st7" d="M501.1,229.9L501.1,229.9c0.1-0.3,0.1-0.4,0.2-0.6l0-0.1l-0.1-0.1l-0.1-0.1l-0.1,0l-0.1,0l0,0"/>
		<path class="st7" d="M500.9,229.1c0.2,0.2,0.2,0.5,0.2,0.8"/>
		<path class="st7" d="M500.2,231.6L500.2,231.6c0.3-0.1,0.4-0.2,0.6-0.3l0.1,0l0-0.1c0-0.2,0.1-0.4,0.1-0.6l0-0.1"/>
		<path class="st7" d="M501,230.5c-0.2,0.4-0.5,0.8-0.8,1.1"/>
		<path class="st7" d="M498.3,232L498.3,232c0.2,0.1,0.3,0.2,0.5,0.3l0.1,0l0.1-0.1c0.2-0.1,0.3-0.2,0.5-0.3l0.1,0"/>
		<path class="st7" d="M499.5,231.9c-0.4,0.1-0.8,0.2-1.2,0"/>
		<path class="st7" d="M500.2,232.5l-0.1,0c-0.2,0.1-0.4,0.2-0.7,0.3l-0.1,0l-0.2-0.1c-0.4-0.2-0.8-0.4-1.2-0.7l-0.2-0.2"/>
		<path class="st7" d="M501.7,229.8l0,0.1c0,0.2-0.1,0.4-0.1,0.6l0,0.1"/>
		<path class="st7" d="M497.2,231.4L497.2,231.4c0.2,0.1,0.3,0.1,0.4,0.2l0.1,0"/>
		<path class="st7" d="M497.7,231.6c0,0-0.1-0.1-0.1-0.2c0,0-0.1-0.1-0.1-0.1"/>
		<polyline class="st7" points="497.2,231.3 497.2,231.3 497.2,231.4 		"/>
		<path class="st7" d="M501.3,231.8l-0.1,0.1c-0.2,0.1-0.4,0.3-0.6,0.4l-0.1,0.1"/>
		<path class="st7" d="M501.5,231.1L501.5,231.1c-0.1,0.3-0.1,0.4-0.2,0.6l0,0.1"/>
		<line class="st7" x1="497.6" y1="231.9" x2="497.2" y2="231.4"/>
		<line class="st7" x1="499.3" y1="232.9" x2="498.9" y2="232.3"/>
		<line class="st7" x1="497.7" y1="231.6" x2="498.3" y2="232"/>
		<line class="st7" x1="500.5" y1="232.3" x2="500.2" y2="232.5"/>
		<line class="st7" x1="501.3" y1="231.8" x2="500.9" y2="231.3"/>
		<line class="st7" x1="499.5" y1="231.9" x2="500.2" y2="231.6"/>
		<line class="st7" x1="501.6" y1="230.6" x2="501.5" y2="231.1"/>
		<line class="st7" x1="501.7" y1="229.8" x2="501.3" y2="229.3"/>
		<line class="st7" x1="501" y1="230.5" x2="501.1" y2="229.9"/>
		<path class="st7" d="M496.1,228.9c-0.1-0.1-0.2-0.1-0.2-0.1C495.9,228.7,496,228.7,496.1,228.9c0.1,0,0.2,0.1,0.2,0.1
			C496.2,229,496.2,228.9,496.1,228.9z"/>
		<path class="st7" d="M497.1,228.9c0,0,0.1-0.1,0.2-0.2c0.1-0.1,0.2-0.1,0.3,0c0,0-0.1,0.1-0.2,0.2
			C497.3,228.9,497.2,228.9,497.1,228.9z"/>
		<path class="st7" d="M498.9,227c0,0,0.1-0.1,0.1-0.2c0-0.1,0-0.2,0-0.2c0,0-0.1,0.1-0.1,0.2C498.9,226.9,498.9,227,498.9,227z"/>
		<path class="st7" d="M499.2,227.2L499.2,227.2c0-0.3,0.1-0.5,0.1-0.7l0-0.1"/>
		<path class="st7" d="M498.2,228.8L498.2,228.8c0.8-0.5,0.6-0.2,0.8-1l0-0.1"/>
		<path class="st7" d="M496.4,229.2L496.4,229.2c0.7,0.4,0.4,0.2,1.1,0l0.1,0"/>
		<line class="st7" x1="495.2" y1="225.9" x2="495.2" y2="225.9"/>
		<path class="st7" d="M494.8,227.9l0-0.3c0.1-0.5,0.2-1,0.3-1.4l0.1-0.3"/>
		<path class="st7" d="M496.4,228.9l-0.2-0.2c-0.4-0.2-0.8-0.5-1.2-0.7l-0.2-0.1"/>
		<path class="st7" d="M497.3,228.4l-0.1,0.1c-0.2,0.1-0.4,0.2-0.6,0.4l-0.1,0.1"/>
		<path class="st7" d="M495.2,228c-0.4-0.5-0.3-1.2,0.1-1.9"/>
		<path class="st7" d="M497.3,228.4c-0.8,0.4-1.7,0.2-2.1-0.4c0,0,0,0,0,0"/>
		<path class="st7" d="M497.3,224.9L497.3,224.9c0.2,0.1,0.4,0.2,0.5,0.3l0.1,0"/>
		<path class="st7" d="M496.6,225.2L496.6,225.2c0.2-0.1,0.4-0.2,0.5-0.2l0.1,0"/>
		<path class="st7" d="M496.6,225.2c0.4-0.1,0.8-0.1,1.2,0"/>
		<path class="st7" d="M498.9,225.8L498.9,225.8c-0.1,0.3-0.1,0.4-0.2,0.6l0,0.1"/>
		<path class="st7" d="M498.2,225.4L498.2,225.4c0.2,0.1,0.4,0.2,0.6,0.3l0.1,0.1"/>
		<path class="st7" d="M498.2,225.4c0.1,0.1,0.2,0.2,0.2,0.2c0.2,0.2,0.3,0.5,0.2,0.9"/>
		<path class="st7" d="M495.2,228.5L495.2,228.5c0.2,0.1,0.3,0.2,0.5,0.3l0.1,0"/>
		<path class="st7" d="M498.5,227.8l-0.1,0c-0.2,0.1-0.4,0.2-0.7,0.3l-0.1,0"/>
		<path class="st7" d="M498.6,227L498.6,227c-0.1,0.3-0.1,0.5-0.1,0.7l0,0.1"/>
		<path class="st7" d="M498.6,227c-0.2,0.4-0.5,0.8-0.9,1.1c0,0-0.1,0.1-0.1,0.1"/>
		<line class="st7" x1="494.8" y1="227.9" x2="495.2" y2="228.5"/>
		<line class="st7" x1="495.7" y1="228.8" x2="496.4" y2="229.2"/>
		<line class="st7" x1="496.4" y1="228.9" x2="496.9" y2="229.5"/>
		<line class="st7" x1="497.6" y1="229.2" x2="498.2" y2="228.8"/>
		<line class="st7" x1="498.5" y1="227.8" x2="498.9" y2="228.4"/>
		<line class="st7" x1="497.6" y1="228.2" x2="497.3" y2="228.4"/>
		<line class="st7" x1="499.1" y1="227.7" x2="499.2" y2="227.2"/>
		<line class="st7" x1="498.9" y1="225.8" x2="499.3" y2="226.4"/>
		<line class="st7" x1="498.7" y1="226.5" x2="498.6" y2="227"/>
		<line class="st7" x1="497.8" y1="225.2" x2="498.2" y2="225.4"/>
		<line class="st7" x1="496.6" y1="225.1" x2="497.3" y2="226.1"/>
		<line class="st7" x1="496" y1="227" x2="495.3" y2="226"/>
		<line class="st7" x1="499.2" y1="226.8" x2="499.3" y2="227"/>
		<line class="st7" x1="501.5" y1="227.5" x2="501" y2="226.6"/>
		<line class="st7" x1="501.4" y1="226.8" x2="501" y2="226.6"/>
		<line class="st7" x1="501.4" y1="226.8" x2="501.9" y2="227.7"/>
		<line class="st7" x1="501" y1="226.6" x2="501" y2="226.3"/>
		<line class="st7" x1="501.4" y1="226.5" x2="501" y2="226.3"/>
		<line class="st7" x1="501.4" y1="226.5" x2="501.4" y2="226.8"/>
		<line class="st7" x1="501" y1="226.3" x2="501.5" y2="225.6"/>
		<line class="st7" x1="501.9" y1="225.9" x2="501.4" y2="226.5"/>
		<line class="st7" x1="503.8" y1="220" x2="504.2" y2="220.8"/>
		<line class="st7" x1="503.8" y1="214.3" x2="503.8" y2="220"/>
		<line class="st7" x1="504.2" y1="214" x2="503.8" y2="214.3"/>
		<line class="st7" x1="509.5" y1="217.1" x2="504.2" y2="214"/>
		<line class="st7" x1="504.2" y1="220.8" x2="504.9" y2="221.2"/>
		<polyline class="st8" points="504.2,214 504.2,214 504.2,214 504.2,214 504.2,214 504.2,214 504.2,214 		"/>
		<polyline class="st7" points="504.2,214 504.2,214 504.2,214 504.2,214 504.2,214 504.2,214 504.2,214 		"/>
		<line class="st7" x1="504.7" y1="213.8" x2="504.2" y2="214"/>
		<line class="st7" x1="507.2" y1="218.9" x2="501.9" y2="225.9"/>
		<line class="st7" x1="506.8" y1="218.7" x2="501.5" y2="225.6"/>
		<line class="st7" x1="506.8" y1="218.7" x2="507.2" y2="218.9"/>
		<line class="st7" x1="501.9" y1="227.7" x2="502.5" y2="228.4"/>
		<line class="st7" x1="502.1" y1="228.1" x2="502.5" y2="228.4"/>
		<line class="st7" x1="501.5" y1="227.5" x2="502.1" y2="228.1"/>
		<line class="st7" x1="509.5" y1="217.1" x2="506.8" y2="218.7"/>
		<line class="st7" x1="510.4" y1="223.8" x2="502.5" y2="228.4"/>
		<line class="st7" x1="510.4" y1="217.1" x2="507.2" y2="218.9"/>
		<polyline class="st7" points="510.4,223.8 510.4,217.1 504.7,213.8 		"/>
		<line class="st7" x1="503.4" y1="225.6" x2="504" y2="225.9"/>
		<path class="st7" d="M504,225.9C504,225.9,504,225.9,504,225.9c0.1,0,0.1,0.2,0,0.3"/>
		<polyline class="st7" points="504,225.9 504,225.9 504,225.9 		"/>
		<line class="st7" x1="503.2" y1="225.5" x2="503.4" y2="225.6"/>
		<polyline class="st7" points="503.2,225.5 503.8,225.8 504,225.9 		"/>
		<path class="st7" d="M501.9,227.1c-0.1,0-0.1-0.1,0-0.2c0,0,0,0,0,0"/>
		<path class="st7" d="M502.2,227.3c-0.1,0-0.1-0.1,0-0.2c0,0,0,0,0,0"/>
		<line class="st7" x1="502.2" y1="227.3" x2="502.2" y2="227.3"/>
		<line class="st7" x1="502.2" y1="227.3" x2="502.7" y2="227.5"/>
		<line class="st7" x1="502.7" y1="226.2" x2="502.2" y2="227"/>
		<line class="st7" x1="502.7" y1="227.5" x2="502.7" y2="226.2"/>
		<path class="st7" d="M503.2,227.3c0.1,0.1,0.4-0.1,0.5-0.3c0.1-0.2,0.1-0.5,0-0.6c-0.1-0.1-0.4,0.1-0.5,0.3
			C503.1,226.9,503.1,227.2,503.2,227.3z"/>
		<line class="st7" x1="503.9" y1="226.4" x2="504" y2="226.2"/>
		<polyline class="st7" points="501.9,226.8 502.4,226 502.7,226.2 		"/>
		<polyline class="st7" points="503.4,225.6 503.9,225.9 503,226.4 		"/>
		<line class="st7" x1="502.7" y1="226.2" x2="503" y2="226.4"/>
		<line class="st7" x1="503.2" y1="225.5" x2="502.4" y2="226"/>
		<line class="st7" x1="503.9" y1="227.2" x2="503.9" y2="225.9"/>
		<line class="st7" x1="503" y1="226.4" x2="503" y2="227.7"/>
		<polyline class="st7" points="502.7,227.5 503,227.7 503.9,227.2 		"/>
		<line class="st7" x1="502.2" y1="227.3" x2="501.9" y2="227.1"/>
	</g>
</g>
<g>
	
		<ellipse transform="matrix(0.7071 -0.7071 0.7071 0.7071 -16.1983 419.673)" class="st9" cx="498.5" cy="229.4" rx="21.8" ry="21.8"/>
	
		<ellipse transform="matrix(0.7071 -0.7071 0.7071 0.7071 -16.1983 419.673)" class="st10" cx="498.5" cy="229.4" rx="21.8" ry="21.8"/>
</g>
<polygon class="st11" points="464.4,133.6 476.2,127.1 484.2,142.9 484.2,267.4 464.2,228 "/>
<polygon class="st12" points="482.8,149.5 479,141.9 479,136.7 482.8,144.3 "/>
<polygon class="st13" points="482.6,149.4 480.9,145.5 480.8,140.5 482.6,144.2 "/>
<polygon class="st12" points="482.8,256.5 479,248.9 479,243.7 482.8,251.3 "/>
<polygon class="st13" points="482.6,256.4 480.9,252.5 480.8,247.5 482.6,251.2 "/>
<line class="st2" x1="517.8" y1="252.1" x2="484.2" y2="232.6"/>
<g>
	<path class="st0" d="M324.3,186.4l-0.3-8.1c-0.1-1.5-1.9-2.1-2.9-1.1l-19.7,21.2c-0.6,0.7-0.6,1.7,0.1,2.3l21.2,19.7
		c1.1,1,2.8,0.2,2.8-1.3l-0.3-8.2c0-0.8,0.6-1.6,1.4-1.7c58.1-9.8,105.9-7.4,148.7,9.4c0,0,0.1,0,0.1,0l5.5,1.6l-7.5-5.1
		c-0.1,0-0.1-0.1-0.2-0.1c-44.4-21.4-93.4-30.6-147-27.1C325.1,188,324.3,187.3,324.3,186.4z"/>
	<path id="Layer1_10_1_STROKES_9_" class="st14" d="M481.7,221.2l-8.3-6c-0.1,0-0.1-0.1-0.2-0.1c-44.6-21.5-93.9-30.4-147-27.3
		c-0.9,0.1-1.7-0.6-1.7-1.6l-0.3-8.1c-0.1-1.5-1.9-2.1-2.9-1.1l-19.7,21.2c-0.6,0.7-0.6,1.7,0.1,2.3l21.2,19.7
		c1.1,1,2.8,0.2,2.8-1.3l-0.3-8.2c0-0.8,0.6-1.6,1.4-1.7c58.1-9.7,108.3-6.2,151.1,10.5C481.7,221.2,481.7,221.2,481.7,221.2z"/>
</g>
</svg>
