<?xml version="1.0" encoding="iso-8859-1"?>
<!-- Generator: Adobe Illustrator 25.0.0, SVG Export Plug-In . SVG Version: 6.00 Build 0)  -->
<svg version="1.1" id="Ebene_1" xmlns="http://www.w3.org/2000/svg" xmlns:xlink="http://www.w3.org/1999/xlink" x="0px" y="0px"
	 viewBox="0 0 414 370" style="enable-background:new 0 0 414 370;" xml:space="preserve">
<path style="fill:#1D1D1B;stroke:#989898;stroke-width:0.3781;stroke-linecap:round;stroke-linejoin:round;stroke-miterlimit:2.5209;" d="
	M256.1,365H12c-2.8,0-5-2.3-5-5V30.1c0-2.8,2.3-5,5-5h244c2.8,0,5,2.3,5,5V360C261.1,362.7,258.8,365,256.1,365z"/>
<line style="fill:none;stroke:#FFFFFF;stroke-width:0.52;stroke-miterlimit:5;" x1="66.4" y1="137.6" x2="122.4" y2="133.2"/>
<line style="fill:none;stroke:#FFFFFF;stroke-width:0.52;stroke-miterlimit:5;" x1="206.3" y1="137.6" x2="150.9" y2="133.2"/>
<line style="fill:none;stroke:#FFFFFF;stroke-width:0.52;stroke-miterlimit:5;" x1="151" y1="151.8" x2="206.3" y2="151.8"/>
<line style="fill:none;stroke:#FFFFFF;stroke-width:0.52;stroke-miterlimit:5;" x1="66.4" y1="151.8" x2="122.4" y2="151.8"/>
<line style="fill:none;stroke:#FFFFFF;stroke-width:0.52;stroke-miterlimit:5;" x1="156.2" y1="89.1" x2="165.2" y2="89.1"/>
<line style="fill:none;stroke:#FFFFFF;stroke-width:0.52;stroke-miterlimit:5;" x1="156.2" y1="109.9" x2="165.2" y2="109.9"/>
<line style="fill:none;stroke:#FFFFFF;stroke-width:0.52;stroke-miterlimit:5;" x1="156.2" y1="179.7" x2="165.2" y2="179.7"/>
<line style="fill:none;stroke:#FFFFFF;stroke-width:0.52;stroke-miterlimit:5;" x1="108.3" y1="88.8" x2="117.4" y2="88.8"/>
<polyline style="fill:#E20613;" points="122.4,82.1 122.4,96.2 131.1,96.2 131.1,82.1 122.4,82.1 "/>
<rect x="142.2" y="82.1" style="fill:#E20613;" width="8.8" height="14.1"/>
<rect x="142.5" y="102.4" style="fill:#E20613;" width="8.4" height="13.9"/>
<rect x="122.1" y="173.3" style="fill:#E20613;" width="8.8" height="14"/>
<line style="fill:none;stroke:#FFFFFF;stroke-width:0.52;stroke-linecap:round;stroke-linejoin:round;stroke-miterlimit:5;" x1="122.4" y1="80.6" x2="122.5" y2="218.4"/>
<line style="fill:none;stroke:#FFFFFF;stroke-width:0.52;stroke-miterlimit:5;" x1="150.9" y1="220.1" x2="150.9" y2="80.6"/>
<path style="fill:none;stroke:#FFFFFF;stroke-width:0.52;stroke-linecap:round;stroke-linejoin:round;stroke-miterlimit:5;" d="
	M151,80.7c-2.2-21.6-8-35.2-14.3-35.2s-12,13.5-14.2,35.1"/>
<text transform="matrix(1 0 0 1 82.092 92.3352)" style="fill:#F5F5F5; font-family:'ArialMT'; font-size:11px;">PAX</text>
<text transform="matrix(1 0 0 1 169.2827 93.3353)" style="fill:#F5F5F5; font-family:'ArialMT'; font-size:11px;">BAGGAGE</text>
<text transform="matrix(1 0 0 1 169.2829 183.9062)" style="fill:#F5F5F5; font-family:'ArialMT'; font-size:11px;">SERVICE</text>
<text transform="matrix(1 0 0 1 169.2831 114.1572)" style="fill:#F5F5F5; font-family:'ArialMT'; font-size:11px;">EMERG</text>
<text transform="matrix(1 0 0 1 169.2831 127.3572)" style="fill:#F5F5F5; font-family:'ArialMT'; font-size:11px;">EXIT</text>
<g>
	<g>
		<g>
			<defs>
				<rect id="SVGID_1_" x="11.6" y="284.2" width="23.4" height="15.1"/>
			</defs>
			<clipPath id="SVGID_2_">
				<use xlink:href="#SVGID_1_"  style="overflow:visible;"/>
			</clipPath>
			<g style="clip-path:url(#SVGID_2_);enable-background:new    ;">
				<text transform="matrix(1 0 0 1 14.0929 295.1465)" style="fill:#FFFFFF; font-family:'ArialMT'; font-size:8.4959px;">FLAP</text>
			</g>
		</g>
	</g>
</g>
<g>
	<g>
		<g>
			<defs>
				<rect id="SVGID_3_" x="11.4" y="293.2" width="19.3" height="13.9"/>
			</defs>
			<clipPath id="SVGID_4_">
				<use xlink:href="#SVGID_3_"  style="overflow:visible;"/>
			</clipPath>
			<g style="clip-path:url(#SVGID_4_);enable-background:new    ;">
				<text transform="matrix(1 0 0 1 13.7409 302.9727)" style="fill:#438CCB; font-family:'ArialMT'; font-size:7.4716px;">DEG</text>
			</g>
		</g>
	</g>
</g>
<g>
	<g>
		<g>
			<defs>
				<rect id="SVGID_5_" x="25.4" y="311.2" width="12.9" height="13.5"/>
			</defs>
			<clipPath id="SVGID_6_">
				<use xlink:href="#SVGID_5_"  style="overflow:visible;"/>
			</clipPath>
			<g style="clip-path:url(#SVGID_6_);enable-background:new    ;">
				<text transform="matrix(1 0 0 1 27.8014 320.8741)" style="fill:#FFFFFF; font-family:'ArialMT'; font-size:7.2306px;">35</text>
			</g>
		</g>
	</g>
</g>
<g>
	<g>
		<g>
			<defs>
				<rect id="SVGID_7_" x="48.5" y="285.6" width="12.9" height="13.5"/>
			</defs>
			<clipPath id="SVGID_8_">
				<use xlink:href="#SVGID_7_"  style="overflow:visible;"/>
			</clipPath>
			<g style="clip-path:url(#SVGID_8_);enable-background:new    ;">
				<text transform="matrix(1 0 0 1 50.9205 295.209)" style="fill:#FFFFFF; font-family:'ArialMT'; font-size:7.2306px;">10</text>
			</g>
		</g>
	</g>
</g>
<g>
	<g>
		<g>
			<defs>
				<rect id="SVGID_9_" x="44.7" y="277.9" width="12.3" height="13.5"/>
			</defs>
			<clipPath id="SVGID_10_">
				<use xlink:href="#SVGID_9_"  style="overflow:visible;"/>
			</clipPath>
			<g style="clip-path:url(#SVGID_10_);enable-background:new    ;">
				<text transform="matrix(1 0 0 1 47.0495 287.5762)" style="fill:#FFFFFF; font-family:'ArialMT'; font-size:7.2306px;">5</text>
			</g>
		</g>
	</g>
</g>
<g>
	<g>
		<g>
			<defs>
				<rect id="SVGID_11_" x="35.2" y="275.9" width="12.3" height="13.5"/>
			</defs>
			<clipPath id="SVGID_12_">
				<use xlink:href="#SVGID_11_"  style="overflow:visible;"/>
			</clipPath>
			<g style="clip-path:url(#SVGID_12_);enable-background:new    ;">
				<text transform="matrix(1 0 0 1 37.5348 285.5831)" style="fill:#FFFFFF; font-family:'ArialMT'; font-size:7.2306px;">0</text>
			</g>
		</g>
	</g>
</g>
<g>
	<g>
		<g>
			<defs>
				<rect id="SVGID_13_" x="75.9" y="293.6" width="18.5" height="20.4"/>
			</defs>
			<clipPath id="SVGID_14_">
				<use xlink:href="#SVGID_13_"  style="overflow:visible;"/>
			</clipPath>
			<g style="clip-path:url(#SVGID_14_);enable-background:new    ;">
				<text transform="matrix(1 0 0 1 78.2467 303.5255)" style="fill:#FFFFFF; font-family:'ArialMT'; font-size:7.4716px;">PK</text>
			</g>
		</g>
	</g>
	<g>
		<g>
			<defs>
				<rect id="SVGID_15_" x="75.9" y="293.6" width="18.5" height="20.4"/>
			</defs>
			<clipPath id="SVGID_16_">
				<use xlink:href="#SVGID_15_"  style="overflow:visible;"/>
			</clipPath>
			<g style="clip-path:url(#SVGID_16_);enable-background:new    ;">
				<text transform="matrix(1 0 0 1 78.2467 310.1534)" style="fill:#FFFFFF; font-family:'ArialMT'; font-size:7.4716px;">BRK</text>
			</g>
		</g>
	</g>
</g>
<g>
	<g>
		<g>
			<defs>
				<rect id="SVGID_17_" x="95.9" y="301.5" width="22.2" height="13.9"/>
			</defs>
			<clipPath id="SVGID_18_">
				<use xlink:href="#SVGID_17_"  style="overflow:visible;"/>
			</clipPath>
			<g style="clip-path:url(#SVGID_18_);enable-background:new    ;">
				<text transform="matrix(1 0 0 1 98.2682 311.3809)" style="fill:#FFFFFF; font-family:'ArialMT'; font-size:7.4716px;">STBY</text>
			</g>
		</g>
	</g>
</g>
<g>
	<g>
		<g>
			<defs>
				<rect id="SVGID_19_" x="172" y="305.9" width="12.3" height="15.1"/>
			</defs>
			<clipPath id="SVGID_20_">
				<use xlink:href="#SVGID_19_"  style="overflow:visible;"/>
			</clipPath>
			<g style="clip-path:url(#SVGID_20_);enable-background:new    ;">
				<text transform="matrix(1 0 0 1 175.8258 316.8301)" style="fill:#FFFFFF; font-family:'ArialMT'; font-size:8.4959px;">4</text>
			</g>
		</g>
	</g>
</g>
<g>
	<g>
		<g>
			<defs>
				<rect id="SVGID_21_" x="172" y="327.7" width="12.3" height="15.1"/>
			</defs>
			<clipPath id="SVGID_22_">
				<use xlink:href="#SVGID_21_"  style="overflow:visible;"/>
			</clipPath>
			<g style="clip-path:url(#SVGID_22_);enable-background:new    ;">
				<text transform="matrix(1 0 0 1 175.8258 338.6221)" style="fill:#FFFFFF; font-family:'ArialMT'; font-size:8.4959px;">2</text>
			</g>
		</g>
	</g>
</g>
<g>
	<g>
		<g>
			<defs>
				<rect id="SVGID_23_" x="172" y="349.5" width="12.3" height="15.1"/>
			</defs>
			<clipPath id="SVGID_24_">
				<use xlink:href="#SVGID_23_"  style="overflow:visible;"/>
			</clipPath>
			<g style="clip-path:url(#SVGID_24_);enable-background:new    ;">
				<text transform="matrix(1 0 0 1 175.8258 360.5274)" style="fill:#FFFFFF; font-family:'ArialMT'; font-size:8.4959px;">0</text>
			</g>
		</g>
	</g>
</g>
<g>
	<g>
		<g>
			<defs>
				<rect id="SVGID_25_" x="122.1" y="298.5" width="12.3" height="15.1"/>
			</defs>
			<clipPath id="SVGID_26_">
				<use xlink:href="#SVGID_25_"  style="overflow:visible;"/>
			</clipPath>
			<g style="clip-path:url(#SVGID_26_);enable-background:new    ;">
				<text transform="matrix(1 0 0 1 126.0436 309.3565)" style="fill:#FFFFFF; font-family:'ArialMT'; font-size:8.4358px;">1</text>
			</g>
		</g>
	</g>
</g>
<g>
	<g>
		<g>
			<defs>
				<rect id="SVGID_27_" x="143.4" y="298.5" width="12.3" height="15.1"/>
			</defs>
			<clipPath id="SVGID_28_">
				<use xlink:href="#SVGID_27_"  style="overflow:visible;"/>
			</clipPath>
			<g style="clip-path:url(#SVGID_28_);enable-background:new    ;">
				<text transform="matrix(1 0 0 1 147.1725 309.3565)" style="fill:#FFFFFF; font-family:'ArialMT'; font-size:8.4358px;">2</text>
			</g>
		</g>
	</g>
</g>
<g>
	<g>
		<g>
			<defs>
				<rect id="SVGID_29_" x="164.2" y="298.5" width="12.3" height="15.1"/>
			</defs>
			<clipPath id="SVGID_30_">
				<use xlink:href="#SVGID_29_"  style="overflow:visible;"/>
			</clipPath>
			<g style="clip-path:url(#SVGID_30_);enable-background:new    ;">
				<text transform="matrix(1 0 0 1 168.0807 309.3565)" style="fill:#FFFFFF; font-family:'ArialMT'; font-size:8.4358px;">3</text>
			</g>
		</g>
	</g>
</g>
<g>
	<g>
		<g>
			<defs>
				<rect id="SVGID_31_" x="194.6" y="298.5" width="12.3" height="15.1"/>
			</defs>
			<clipPath id="SVGID_32_">
				<use xlink:href="#SVGID_31_"  style="overflow:visible;"/>
			</clipPath>
			<g style="clip-path:url(#SVGID_32_);enable-background:new    ;">
				<text transform="matrix(1 0 0 1 198.3932 309.3565)" style="fill:#FFFFFF; font-family:'ArialMT'; font-size:8.4358px;">1</text>
			</g>
		</g>
	</g>
</g>
<g>
	<g>
		<g>
			<defs>
				<rect id="SVGID_33_" x="215.6" y="298.5" width="12.3" height="15.1"/>
			</defs>
			<clipPath id="SVGID_34_">
				<use xlink:href="#SVGID_33_"  style="overflow:visible;"/>
			</clipPath>
			<g style="clip-path:url(#SVGID_34_);enable-background:new    ;">
				<text transform="matrix(1 0 0 1 219.5221 309.3565)" style="fill:#FFFFFF; font-family:'ArialMT'; font-size:8.4358px;">2</text>
			</g>
		</g>
	</g>
</g>
<g>
	<g>
		<g>
			<defs>
				<rect id="SVGID_35_" x="236.5" y="298.5" width="12.3" height="15.1"/>
			</defs>
			<clipPath id="SVGID_36_">
				<use xlink:href="#SVGID_35_"  style="overflow:visible;"/>
			</clipPath>
			<g style="clip-path:url(#SVGID_36_);enable-background:new    ;">
				<text transform="matrix(1 0 0 1 240.3199 309.3565)" style="fill:#FFFFFF; font-family:'ArialMT'; font-size:8.4358px;">3</text>
			</g>
		</g>
	</g>
</g>
<path id="display_eng_0_Layer1_0_MEMBER_1_MEMBER_44_1_STROKES" style="fill:none;stroke:#FFFFFF;stroke-width:0.5573;stroke-miterlimit:5.5726;" d="
	M90.6,313.6h-2.8v10.9h2.8 M90.6,335.2h-2.8v10.9h2.8 M87.8,335.2v-10.9 M90.6,357.5h-2.8v-11.3"/>
<path id="display_eng_0_Layer1_0_MEMBER_1_MEMBER_45_1_STROKES" style="fill:none;stroke:#FFFFFF;stroke-width:0.5573;stroke-miterlimit:5.5726;" d="
	M110.6,313.4h-2.8v10.9h2.8 M110.6,357.3h-2.8V346v-11v-10.9 M107.8,346h2.8 M110.6,335h-2.8"/>
<path id="display_eng_0_Layer1_0_MEMBER_1_MEMBER_46_1_STROKES" style="fill:none;stroke:#FFFFFF;stroke-width:0.5573;stroke-miterlimit:5.5726;" d="
	M131.3,313.4h-2.8v10.9h2.8 M131.3,357.3h-2.8V346v-11v-10.9 M128.3,346h2.8 M131.3,335h-2.8"/>
<path id="display_eng_0_Layer1_0_MEMBER_1_MEMBER_47_1_STROKES" style="fill:none;stroke:#FFFFFF;stroke-width:0.5573;stroke-miterlimit:5.5726;" d="
	M152.3,313.6h-2.8v10.9h2.8 M152.3,335.2h-2.8v10.9h2.8 M149.5,335.2v-10.9 M152.3,357.5h-2.8v-11.3"/>
<path id="display_eng_0_Layer1_0_MEMBER_1_MEMBER_48_1_STROKES" style="fill:none;stroke:#FFFFFF;stroke-width:0.5573;stroke-miterlimit:5.5726;" d="
	M173.1,313.6h-2.8v10.9h2.8 M173.1,335.2h-2.8v10.9h2.8 M170.4,335.2v-10.9 M173.1,357.5h-2.8v-11.3"/>
<path id="display_eng_0_Layer1_0_MEMBER_1_MEMBER_49_1_STROKES" style="fill:none;stroke:#FFFFFF;stroke-width:0.5573;stroke-miterlimit:5.5726;" d="
	M205.3,313.6h-2.8v10.9h2.8 M205.3,335.2h-2.8v10.9h2.8 M202.5,335.2v-10.9 M205.3,357.5h-2.8v-11.3"/>
<path id="display_eng_0_Layer1_0_MEMBER_1_MEMBER_50_1_STROKES" style="fill:none;stroke:#FFFFFF;stroke-width:0.5573;stroke-miterlimit:5.5726;" d="
	M225.6,313.6h-2.8v10.9h2.8 M225.6,335.2h-2.8v10.9h2.8 M222.6,335.2v-10.9 M225.6,357.5h-2.8v-11.3"/>
<path id="display_eng_0_Layer1_0_MEMBER_1_MEMBER_51_1_STROKES" style="fill:none;stroke:#FFFFFF;stroke-width:0.5573;stroke-miterlimit:5.5726;" d="
	M245.4,313.4h-2.8v10.9h2.8 M245.4,357.3h-2.8V346v-11v-10.9 M242.6,346h2.8 M245.4,335h-2.8"/>
<path style="fill:#FFFFFF;" d="M235.1,308.8v5.4h7.5L235.1,308.8z"/>
<path style="fill:#FFFFFF;" d="M215.2,314.2h7.5l-7.5-5.4V314.2z"/>
<path style="fill:#FFFFFF;" d="M195.4,314.2h7.5l-7.5-5.4V314.2z"/>
<path style="fill:#FFFFFF;" d="M161.6,354.7v5h5l3.8-2.6l-3.8-2.4H161.6z"/>
<path style="fill:#FFFFFF;" d="M145.7,321.7h-5v5h5l3.8-2.6L145.7,321.7z"/>
<path style="fill:#FFFFFF;" d="M119.7,321.7v5h5l3.8-2.6l-3.8-2.4H119.7z"/>
<path style="fill:#FFFFFF;" d="M99.3,321.7v5h5l3.8-2.6l-3.8-2.4H99.3z"/>
<path style="fill:#FFFFFF;" d="M78.6,321.7v5h5l3.8-2.6l-3.8-2.4H78.6z"/>
<path id="display_eng_0_Layer1_0_MEMBER_1_MEMBER_60_1_STROKES" style="fill:none;stroke:#FFFFFF;stroke-width:0.5573;stroke-miterlimit:5.5726;" d="
	M41.9,296.7c-0.8-0.4-1.6-0.8-2.4-0.8c-0.8,0-1.8,0-2.4,0.4c-1.2,0.6-2,1.6-2.4,2.8c-0.4,1.2-0.2,2.4,0.4,3.6s1.6,1.8,2.8,2.2
	c1.2,0.4,2.4,0.4,3.6-0.4c0.8-0.4,1.6-1.2,2-2s0.6-1.8,0.4-2.8"/>
<path style="fill:#FFFFFF;" d="M42.9,298.5c0.2,0.2,0.4,1,0.6,1.8l12.3-6.6l3.6-4.4l-5.6,0.6l-12.5,6.6
	C42.3,297.7,42.7,298.3,42.9,298.5z"/>
<g>
	<g>
		<g>
			<defs>
				<rect id="SVGID_37_" x="51.9" y="294.4" width="12.9" height="13.5"/>
			</defs>
			<clipPath id="SVGID_38_">
				<use xlink:href="#SVGID_37_"  style="overflow:visible;"/>
			</clipPath>
			<g style="clip-path:url(#SVGID_38_);enable-background:new    ;">
				<text transform="matrix(1 0 0 1 54.2409 303.9473)" style="fill:#FFFFFF; font-family:'ArialMT'; font-size:7.2306px;">15</text>
			</g>
		</g>
	</g>
</g>
<path id="display_eng_0_Layer1_0_MEMBER_1_MEMBER_62_1_STROKES" style="fill:none;stroke:#FFFFFF;stroke-width:0.5573;stroke-miterlimit:5.5726;" d="
	M59.4,286.6c0.6,0.6,1,1.4,1.4,2.2L64,287c-1.2-2-2.8-4-4.6-6c-1.8-1.8-3.6-3.2-5.6-4.4l-1.8,3.2c0.6,0.4,1.4,0.8,2,1.2 M63.6,303.7
	c0-0.8,0.2-1.6,0.2-2.6c0-0.2,0-0.4,0-0.6v-1.6 M33.2,324.1c-2.2-0.6-4.2-1.6-6.2-2.6l-1.6,2.6c4.4,2.6,9.1,4,14.3,4
	c7.5,0,14.1-2.8,19.5-8.1c5.2-5.2,7.9-11.5,8.1-18.9h-3.6 M64,287c2.4,4,3.4,8.5,3.4,13.5c0,0.2,0,0.4,0,0.6 M61.8,291
	c-0.4-0.8-0.8-1.4-1.2-2.2 M37.2,276.7c0.6,0,1.4-0.2,2.6-0.2v-3.6c5.2,0,9.7,1.2,13.9,3.6 M51.7,279.7c-0.6-0.4-1.4-0.8-2-1
	 M41.7,276.5h-2 M27.2,321.6c-2-1.2-3.6-2.6-5.2-4.2"/>
<path id="display_eng_0_Layer1_0_MEMBER_1_1_STROKES_1_" style="fill:none;stroke:#FFFFFF;stroke-width:0.5573;stroke-miterlimit:5.5726;" d="
	M79,294.8v-8.5h21.6 M247.6,286.2h8.7v8.5 M193.2,294.8v-8.5h10.7 M180.9,294.8v-8.5h-23 M14.7,269.5h241"/>
<text transform="matrix(1 0 0 1 104.9196 284.9395)" style="fill:#FFFFFF; font-family:'ArialMT'; font-size:8.4959px;">HYD PRESS</text>
<text transform="matrix(1 0 0 1 108.7196 295.1395)" style="fill:#438CCB; font-family:'ArialMT'; font-size:8.4959px;">PSI x 1000</text>
<text transform="matrix(1 0 0 1 207.4772 284.626)" style="fill:#FFFFFF; font-family:'ArialMT'; font-size:8.4959px;">HYD QTY</text>
<text transform="matrix(1 0 0 1 208.6772 294.826)" style="fill:#438CCB; font-family:'ArialMT'; font-size:8.4959px;">% x 1000</text>
<polyline style="fill:none;stroke:#008D36;stroke-linecap:round;stroke-linejoin:round;stroke-miterlimit:5;" points="142.1,173.6 
	142.1,187 150.5,187 150.5,173.6 142.1,173.6 "/>
<polyline style="fill:none;stroke:#008D36;stroke-linecap:round;stroke-linejoin:round;stroke-miterlimit:5;" points="122.9,193.1 
	122.9,206.5 131.3,206.5 131.3,193.1 122.9,193.1 "/>
<polyline style="fill:none;stroke:#FFFFFF;stroke-miterlimit:5;" points="13.5,31 13.5,42.7 57.2,42.7 57.2,31 13.5,31 "/>
<text transform="matrix(1 0 0 1 19.7658 39.9171)" style="fill:#FFFFFF; font-family:'Helvetica'; font-size:8.6078px;">DOORS</text>
<line style="fill:none;stroke:#FFFFFF;stroke-width:0.52;stroke-miterlimit:5;" x1="108.3" y1="178.8" x2="117.4" y2="178.8"/>
<text transform="matrix(1 0 0 1 82.092 182.3352)" style="fill:#F5F5F5; font-family:'ArialMT'; font-size:11px;">PAX</text>
<line style="fill:none;stroke:#FFFFFF;stroke-width:0.52;stroke-miterlimit:5;" x1="108.3" y1="198.8" x2="117.4" y2="198.8"/>
<text transform="matrix(1 0 0 1 50.092 202.3352)" style="fill:#F5F5F5; font-family:'ArialMT'; font-size:11px;">BAGGAGE</text>
<text transform="matrix(1 0 0 1 74.3403 16.5107)" style="fill:#1D1D1B; font-family:'ArialMT'; font-size:14px;">Doors System Page.</text>
<path style="fill:#D7EBFF;stroke:#0099FF;stroke-miterlimit:10;" d="M406.3,62.6h-155c-2.3,0-4.1,1.9-4.1,4.1v14L232,88.3l15.2,7.9
	v15.1c0,2.3,1.9,4.1,4.1,4.1h155c2.2,0,4.1-1.8,4.1-4.1V66.6C410.4,64.4,408.5,62.6,406.3,62.6z"/>
<path style="fill:#D7EBFF;stroke:#0099FF;stroke-miterlimit:10;" d="M406.3,150.6h-155c-2.3,0-4.1,1.9-4.1,4.1v18l-15.2,7.6
	l15.2,7.9v19.1c0,2.3,1.9,4.1,4.1,4.1h155c2.2,0,4.1-1.8,4.1-4.1v-52.7C410.4,152.4,408.5,150.6,406.3,150.6z"/>
<text transform="matrix(1 0 0 1 254.485 84.0157)" style="fill:#1D1D1B; font-family:'ArialMT'; font-size:14px;">An open door is shown</text>
<text transform="matrix(1 0 0 1 254.485 100.8157)" style="fill:#1D1D1B; font-family:'ArialMT'; font-size:14px;">as a red filled rectangle.</text>
<text transform="matrix(1 0 0 1 254.7756 167.9209)" style="fill:#1D1D1B; font-family:'ArialMT'; font-size:14px;">A closed and locked</text>
<text transform="matrix(1 0 0 1 254.7756 184.7209)" style="fill:#1D1D1B; font-family:'ArialMT'; font-size:14px;">door is shown as green </text>
<text transform="matrix(1 0 0 1 254.7756 201.5209)" style="fill:#1D1D1B; font-family:'ArialMT'; font-size:14px;">empty rectangle. </text>
<path style="fill:none;stroke:#0099FF;stroke-miterlimit:10;" d="M227.4,99.5h-86.8c-2.3,0-4.1-1.8-4.1-4.1V82.6
	c0-2.3,1.8-4.1,4.1-4.1h86.8c2.3,0,4.1,1.8,4.1,4.1v12.8C231.5,97.7,229.7,99.5,227.4,99.5z"/>
<path style="fill:none;stroke:#0099FF;stroke-miterlimit:10;" d="M227.4,190.5h-86.8c-2.3,0-4.1-1.8-4.1-4.1v-12.8
	c0-2.3,1.8-4.1,4.1-4.1h86.8c2.3,0,4.1,1.8,4.1,4.1v12.8C231.5,188.7,229.7,190.5,227.4,190.5z"/>
</svg>
