<?xml version="1.0" encoding="utf-8"?>
<!-- Generator: Adobe Illustrator 24.3.0, SVG Export Plug-In . SVG Version: 6.00 Build 0)  -->
<svg version="1.1" id="Ebene_1" xmlns="http://www.w3.org/2000/svg" xmlns:xlink="http://www.w3.org/1999/xlink" x="0px" y="0px"
	 viewBox="0 0 294.3 453.9" style="enable-background:new 0 0 294.3 453.9;" xml:space="preserve">
<style type="text/css">
	.st0{fill:#D7EBFF;stroke:#0099FF;stroke-width:0.75;stroke-miterlimit:10;}
	.st1{fill:none;stroke:#000000;stroke-width:0.53;stroke-miterlimit:5;}
	.st2{fill:#F29100;}
	.st3{fill:#009EE2;}
	.st4{fill-rule:evenodd;clip-rule:evenodd;fill:#FFFFFF;}
	.st5{fill:#E20613;}
	.st6{fill:#E20613;stroke:#000000;stroke-width:0.53;stroke-miterlimit:5;}
	.st7{fill:#020203;}
	.st8{font-family:'Arial-BoldMT';}
	.st9{font-size:12px;}
	.st10{enable-background:new    ;}
	.st11{fill:#E30613;}
	.st12{fill:#2B4B9B;}
	.st13{fill:#0099FF;}
	.st14{fill:#FF0000;}
	.st15{fill:none;stroke:#000000;stroke-width:0.53;stroke-linecap:round;stroke-linejoin:round;stroke-miterlimit:5;}
	.st16{fill:none;stroke:#000000;stroke-width:0.53;stroke-linecap:round;stroke-linejoin:round;stroke-miterlimit:4.9998;}
	.st17{fill:none;stroke:#FFFFFF;stroke-miterlimit:5;}
	.st18{fill:#089EDA;}
	.st19{fill:none;stroke:#1D1D1D;stroke-width:0.35;stroke-linejoin:bevel;stroke-miterlimit:3.9999;}
	.st20{fill:none;stroke:#1D1D1D;stroke-width:0.6;stroke-linejoin:bevel;stroke-miterlimit:3.9999;}
</style>
<path class="st0" d="M271.9,155.4h-102c-2.2,0-4.1-1.8-4.1-4.1v-24.7c0-2.2,1.8-4.1,4.1-4.1h102c2.2,0,4.1,1.8,4.1,4.1v24.7
	C276,153.6,274.1,155.4,271.9,155.4z"/>
<circle class="st1" cx="115.5" cy="325.5" r="11"/>
<g>
	<path class="st2" d="M96.8,283.9l-7.6-4.5v-1.2l9,5.2l0.7,0.4l0.6,0.8l0.5,1c0.4,1.4,0.5,2.8-0.8,4.7c-2.2,1.6-4.1,1.6-5.8,0.5
		l-0.2-0.4l0.3-0.5c1.9,1,3.6,1,5.2-0.7C100.2,286.2,98.6,285,96.8,283.9z"/>
	<path class="st3" d="M94.6,309.7l-2.5,5.6l-4,0.6l-5.1-13l-6-30.3c-1.4-9.1,10.9-11.7,13.3-2.5l-0.1,2.1l-0.5,1.4l-0.6,3.6
		l-0.1,2.3v1.5l0.3,2L94.6,309.7z"/>
	<g>
		<path class="st1" d="M86.8,271l-1.6-2.7H82l-1.6,2.7l1.6,2.7h3.2L86.8,271 M85.8,271c0,1.2-1,2.3-2.2,2.3s-2.2-1-2.2-2.3
			c0-1.2,1-2.3,2.2-2.3S85.8,269.7,85.8,271z M83.6,266.9c-2.3,0-4.1,1.8-4.1,4.1s1.8,4.1,4.1,4.1 M83.6,275.1L83.6,275.1
			c2.3,0,4.1-1.8,4.1-4.1c0-2.3-1.8-4.1-4.1-4.1 M85.6,270c-0.4-0.8-1.2-1.2-2-1.2c-0.9,0-1.7,0.5-2,1.3 M81.8,274.7l0.3,0.1
			l0.3,0.1l0.4,0.1l0.4,0.1h0.4 M87.5,269.8c-0.5-1.7-2.1-2.9-3.9-2.9c-2,0-3.8,1.5-4.1,3.5 M83.6,275.1h0.5l0.5-0.1l0.5-0.1
			l0.4-0.2l0.4-0.2 M77,271c0,3.7,3,6.7,6.7,6.7s6.7-3,6.7-6.7 M90.3,271c0-3.7-3-6.7-6.7-6.7s-6.7,3-6.7,6.7 M93.2,290.6
			c0,0.2,0.1,0.3,0.2,0.4 M93.9,290.2c-0.1,0-0.2-0.1-0.2-0.1c-0.3,0-0.5,0.2-0.5,0.5 M89.1,279.4l8.4,5 M89.2,278.3l9,5.2
			 M93.4,291c0.7,0.5,1.6,0.8,2.5,0.8c2.4,0,4.4-2,4.4-4.4 M100.3,287.4c0-1.6-0.8-3-2.2-3.8 M92.4,287.4c0,1.9,1.5,3.4,3.4,3.4
			s3.4-1.5,3.4-3.4 M99.2,287.4c0-1.9-1.5-3.4-3.4-3.4s-3.4,1.5-3.4,3.4 M94.6,309.7l-2.5,5.6 M88.2,315.9c1.3-0.1,2.7-0.3,4-0.6
			 M84.2,288.1l5.4,27.7 M85.2,286.5l4.7-0.9 M77.1,272.6l6,30.3l5.1,13 M89.4,282.9l5.2,26.8 M89.4,282.9l-0.3-2.9l0.1-2.9l0.3-2.2
			l0.5-2.1 M84.2,288.1v-0.2v-0.2l0.2-0.5l0.3-0.4l0.3-0.2l0.3-0.1 M76,259.7l1.3-0.1l1.2,0.1l1,0.3l0.8,0.5l0.6,0.7l0.2,0.9
			l-0.2,1.1l-0.6,1.4l-1.1,1.7 M109.3,252.1l5.1,20.6l0.3,1.2l0.3,1.2l0.3,1.1l0.3,1l0.3,0.9l0.3,0.8l0.3,0.6l0.3,0.4l0.3,0.3
			l0.7,0.4l0.6,0.4l0.5,0.4l0.4,0.5l0.3,0.5l0.2,0.5l0.2,0.6l0.2,0.7l0.2,0.7 M120.3,284.8l2,8.1 M91.9,295.5l30.4-2.7 M66.7,259.6
			l4.6,37.7l10.5-0.9 M90.3,269.8l0.4,1.2l0.3,1l0.3,0.8l0.3,0.7l0.4,0.7l0.6,0.7l0.8,0.8l1.1,1l1.6,1.2l1.6,1.2L99,280l1,0.8
			l0.8,0.7l0.6,0.7l0.5,0.7l0.4,0.9l0.4,1l0.4,1.3l0.5,1.3l0.7,1.1l0.9,0.9l1,0.7l1,0.5l1.1,0.4l1.1,0.4l1.1,0.3l1.1,0.3 M76,259.7
			l-8.9,1.6 M109.7,253.7l-20.8,3.7 M109.3,252.1l-42.6,7.5 M87.5,265.4l-0.7-0.6l-0.6-0.7l-0.5-0.8l-0.3-0.9l-0.1-0.9l0.1-0.8
			l0.3-0.8l0.4-0.7l0.5-0.6l0.6-0.5l0.8-0.4l0.9-0.2 M111.7,292.1l10.2-0.9 M71.1,295.7l10.3-0.9 M61.4,243l0.8,7.9l0.9,8.6l0.9,8.6
			l0.8,7.9l0.4,3.5l0.3,3l0.3,2.5l0.2,1.9l1.5,11.9l1.6,11.7l1.7,11.6l1.8,11.4l1.9,11.2l1.5,8.4 M72.5,352.9l-1.4-8L69,332.6
			l-2-12.5l-1.8-12.7l-1.7-12.9l-1.6-13.2l-0.2-2l-0.3-2.6l-0.3-3.2l-0.4-3.6l-0.8-8.2l-0.9-8.9l-0.9-8.9v-0.3 M74.1,352.9l-1.4-8
			l-1.9-11.2L69,322.3l-1.7-11.5L65.8,299l-1.5-12l-0.2-1.8l-0.3-2.5l-0.3-3l-0.4-3.5l-0.8-7.9l-0.9-8.6l-0.9-8.6l-0.8-7.9
			 M119.4,236.9l0.4,4.2l0.7,6.6l0.6,5.9l0.3,2.4l0.2,2l0.2,1.4l0.1,0.8l0.5,3.4l0.6,3l0.6,3l0.8,3.3l1,4l1.4,5.1l0.1,0.6l0.1,0.5
			l0.2,0.6l0.2,0.6l0.4,1.5l0.5,1.5l0.5,1.6l0.6,1.6l0.6,1.6l0.6,1.7l0.6,1.7l0.7,1.8l1.2,3.2l1.3,3.4l1.3,3.6l1.3,3.8l1.2,4.1
			l1.2,4.3l1.1,4.6l1,4.8l0.5,2.8l0.7,4.3l0.9,5.5l0.7,4.3"/>
		<polyline class="st4" points="57.9,243.5 59.9,243 61.9,242.5 63.9,242 65.9,241.5 67.8,240.9 69.5,240.5 71,240.2 72.3,239.9 
			73.3,239.8 75.1,239.9 77.2,240.4 79.5,241 82.2,241.6 85.3,242.2 88.8,242.7 92.8,242.8 97.4,242.6 102.5,241.9 104.1,241.5 
			105.9,240.9 107.7,240.2 109.7,239.5 111.6,238.8 113.6,238.1 115.6,237.5 117.5,237.1 119.4,236.9 		"/>
		<path class="st1" d="M72.5,352.9l2.8,0.1l2.9,0.1l3,0.2l3,0.2l2.9,0.3l2.7,0.2l2.4,0.2l2,0.1l1.6,0.1l2.8-0.2l3.2-0.5l3.4-0.7
			l3.6-0.9l3.6-1l3.6-1l3.4-1l3.1-1l2.7-0.8l1.2-0.3l1.6-0.2l1.9-0.2l2.2-0.1l2.4-0.1l2.5-0.1l2.5-0.1l2.5-0.1l2.3-0.1 M57.9,243.5
			l2-0.5l2-0.5l2-0.5l2-0.5l1.9-0.5l1.7-0.4l1.5-0.4l1.3-0.2l1-0.1l1.8,0.1l2.1,0.4l2.4,0.6l2.7,0.7l3.1,0.6l3.5,0.4l4,0.2l4.5-0.2
			l5.1-0.7l1.6-0.4l1.8-0.6l1.9-0.6l1.9-0.7l2-0.7l2-0.7l2-0.6l1.9-0.4l1.9-0.2"/>
	</g>
	<g>
		<path class="st5" d="M106.4,331.8l6.5-29.7c2.8-10.4,17.2-6.6,14.9,3.5l-6.5,29.7l-6.1,12c-1.8,3.1-7.6,2.6-8.4-1.8L106.4,331.8z"
			/>
		<path class="st6" d="M118.8,310.9c4.1,0.9,8.2-1.7,9.1-5.8c0.9-4.1-1.7-8.2-5.8-9.1c-4.1-0.9-8.2,1.7-9.1,5.8
			C112.1,305.9,114.7,310,118.8,310.9"/>
		<line class="st1" x1="106.9" y1="344.8" x2="106.4" y2="332"/>
		<line class="st1" x1="121.6" y1="333.9" x2="121.3" y2="335.2"/>
		<path class="st6" d="M108.7,332.5c-1-0.2-1.9,0.4-2.1,1.4c0,0.2,0,0.3,0,0.5"/>
		<line class="st1" x1="115.6" y1="346.7" x2="121.3" y2="335.2"/>
		<line class="st1" x1="119.1" y1="334.7" x2="108.7" y2="332.5"/>
		<path class="st6" d="M120.3,337.3c0.1-0.1,0.1-0.3,0.1-0.4c0.2-1-0.4-1.9-1.4-2.1"/>
		<line class="st1" x1="114" y1="307.5" x2="108.6" y2="332.5"/>
		<line class="st1" x1="124.6" y1="309.8" x2="119.2" y2="334.8"/>
		<path class="st6" d="M114.7,330c2.5,0.6,5.1-1.1,5.6-3.6c0.6-2.5-1.1-5.1-3.6-5.6c-2.5-0.6-5.1,1.1-5.6,3.6
			C110.5,326.9,112.1,329.4,114.7,330"/>
		<path class="st6" d="M109.7,344.9c-0.1-1,0.5-1.9,1.5-2s1.9,0.5,2,1.5s-0.5,1.9-1.5,2C110.8,346.6,109.9,345.9,109.7,344.9z"/>
		<path class="st6" d="M106.9,344.8c0.1,2,1.4,3.7,3.2,4.2c2.1,0.7,4.5-0.3,5.5-2.3"/>
		<line class="st1" x1="112.9" y1="302.1" x2="106.4" y2="332"/>
		<polyline class="st6" points="127.9,305.1 121.6,333.9 121.3,335.2 		"/>
	</g>
</g>
<g>
	<text transform="matrix(1 0 0 1 177.8693 134.856)" class="st7 st8 st9">handle is in the </text>
	<text transform="matrix(1 0 0 1 170.8693 148.356)" class="st10"><tspan x="0" y="0" class="st11 st8 st9">“closed”</tspan><tspan x="50" y="0" class="st12 st8 st9"> </tspan></text>
	<text transform="matrix(1 0 0 1 224.2189 148.356)" class="st7 st8 st9">position</text>
</g>
<path class="st13" d="M96.4,226.6c-39.8,0-72.1,32.3-72.1,72.1s32.3,72.1,72.1,72.1s72.1-32.3,72.1-72.1S136.2,226.6,96.4,226.6z
	 M96.4,367.1c-37.8,0-68.4-30.6-68.4-68.4s30.6-68.4,68.4-68.4s68.4,30.6,68.4,68.4S134.2,367.1,96.4,367.1z"/>
<g>
	<path class="st14" d="M50.3,99.4l6.1,3.4l1.4,0.9c3,5.6,5.8,7.4,9,5.6l1.4,0.4l6.9,3.8c2.5,0.5,2.3-3.6-0.6-5.6l-6.3-3.7l-1.5-1.2
		c-3.2-5.3-6-6.7-8.3-5l-1.1-0.1l-1.1-0.6l-5.9-3.4C47.9,92.8,47.3,96.7,50.3,99.4z"/>
	<g>
		<polyline class="st1" points="115.4,51.4 115.4,51.3 115.5,51.3 115.5,51.3 115.6,51.3 115.6,51.2 115.6,51.2 115.6,51.1 
			115.7,51.1 115.7,51 115.7,51 115.7,50.9 115.7,50.9 115.7,50.6 115.7,50.6 115.7,50.5 115.7,50.5 115.7,50.4 115.6,50.4 
			115.6,50.3 115.6,50.3 115.6,50.2 115.6,50.2 115.6,50.1 115.5,50.1 115.5,50 115.5,50 115.4,50 115.4,49.9 		"/>
		<polyline class="st1" points="114.4,51.8 114.4,51.8 114.5,51.8 114.5,51.8 114.6,51.7 114.6,51.7 114.7,51.6 114.7,51.6 
			114.7,51.6 114.7,51.5 114.8,51.5 114.8,51.4 114.8,51.4 114.8,51.3 114.8,51.1 114.8,51 114.8,51 114.8,50.9 114.8,50.9 
			114.8,50.8 114.7,50.8 114.7,50.7 114.7,50.7 114.7,50.6 114.7,50.6 114.6,50.5 114.6,50.5 114.6,50.4 114.6,50.4 114.5,50.3 		
			"/>
		<polyline class="st1" points="103.9,78.6 103.9,78.6 104,78.6 104,78.5 104.1,78.5 104.1,78.5 104.1,78.4 104.2,78.4 104.2,78.3 
			104.2,78.3 104.2,78.2 104.3,78.2 104.3,78.1 104.3,78 104.3,78 104.3,77.9 104.3,77.9 104.3,77.8 104.3,77.7 104.2,77.7 
			104.2,77.6 104.2,77.6 104.2,77.5 104.2,77.5 104.2,77.4 104.1,77.4 104.1,77.3 104.1,77.3 104.1,77.2 104,77.2 104,77.1 		"/>
		<polyline class="st1" points="103,79 103,79 103.1,79 103.1,79 103.2,78.9 103.2,78.9 103.2,78.9 103.3,78.8 103.3,78.8 
			103.3,78.7 103.3,78.7 103.4,78.6 103.4,78.6 103.4,78.2 103.4,78.2 103.4,78.1 103.3,78.1 103.3,78 103.3,78 103.3,77.9 
			103.3,77.9 103.3,77.8 103.2,77.8 103.2,77.7 103.2,77.7 103.2,77.6 103.1,77.6 103.1,77.5 		"/>
		<polyline class="st1" points="112.4,52.1 112.1,52.8 111.7,53.5 111,54.9 110.7,55.6 110.4,56.3 110,57 109.7,57.8 109.4,58.4 
			109.1,59.2 108.7,59.9 108.4,60.6 108.1,61.3 107.8,62 107.5,62.7 107.2,63.5 106.9,64.1 106.5,64.9 106.3,65.6 106,66.4 
			105.7,67 105.4,67.8 105.1,68.5 104.8,69.3 104.5,70 104.2,70.7 103.9,71.4 103.7,72.2 103.4,72.9 103.1,73.6 102.9,74.3 
			102.6,75.1 		"/>
		<polyline class="st1" points="98.8,167.9 98.1,165.7 97.6,163.6 97.3,161.6 96.8,159.3 		"/>
		<polyline class="st1" points="101.1,79.3 100.9,79.9 100.7,80.6 100.5,81.2 100.3,81.9 100.1,82.5 99.9,83.1 99.7,83.7 99.5,84.4 
			99.3,85 99.1,85.7 98.9,86.3 98.7,87 98.5,87.6 98.3,88.3 98.2,88.9 98,89.6 97.8,90.2 97.6,90.9 97.4,91.5 97.3,92.2 97.1,92.8 
			96.9,93.5 96.8,94.1 96.6,94.8 96.4,95.4 96.3,96.1 96.1,96.8 96,97.4 95.8,98.1 95.7,98.8 95.5,99.4 95.4,100.1 		"/>
		<polyline class="st1" points="94.3,148.5 94.1,147.5 93.7,146.5 93.3,145.4 92.9,144.5 92.6,143.5 92.5,142.8 		"/>
		<polyline class="st1" points="94.3,148.5 94.4,148.8 94.4,149.1 94.5,149.3 94.5,149.6 94.6,149.9 94.6,150.1 94.7,150.4 
			94.7,150.7 94.8,150.9 94.8,151.2 94.9,151.5 94.9,151.7 95,152 95.1,152.3 95.1,152.5 95.2,152.8 95.2,153.1 95.3,153.3 
			95.3,153.6 95.4,153.9 95.5,154.1 95.5,154.4 95.6,154.6 95.6,154.9 95.7,155.2 95.8,155.4 95.9,155.7 95.9,156 96,156.2 
			96.1,156.5 96.1,156.7 96.2,157 		"/>
		<polyline class="st1" points="61.7,152 61.7,152.1 61.7,152.2 61.8,152.3 61.9,152.4 61.9,152.5 62,152.6 62.1,152.7 62.1,152.8 
			62.2,152.9 62.2,153 62.3,153.1 62.4,153.2 62.5,153.2 62.5,153.3 62.6,153.4 62.7,153.5 62.8,153.6 62.8,153.7 62.9,153.7 
			63,153.8 63.1,153.9 63.2,154 63.3,154.1 63.3,154.1 63.4,154.2 63.5,154.3 63.6,154.3 63.7,154.4 63.8,154.5 63.9,154.5 
			64,154.6 64.1,154.7 		"/>
		<polyline class="st1" points="78.5,163 78.6,163 78.7,163.1 78.8,163.1 78.8,163.1 78.9,163.2 78.9,163.2 79,163.2 79,163.2 
			79.1,163.2 79.2,163.3 79.2,163.3 79.3,163.3 79.5,163.3 79.5,163.3 79.6,163.2 79.7,163.2 79.7,163.2 79.7,163.1 79.8,163.1 
			79.8,163 79.8,162.7 79.8,162.7 79.8,162.6 79.7,162.6 79.7,162.5 79.7,162.4 		"/>
		<polyline class="st1" points="61.8,148.1 61.7,148 61.7,148 61.6,148 61.5,147.9 61.4,147.9 61.4,147.9 61.3,147.8 61.3,147.8 
			61.2,147.8 61.1,147.8 61.1,147.8 60.9,147.8 60.8,147.8 60.7,147.8 60.7,147.8 60.6,147.9 60.6,147.9 60.5,148 60.5,148 
			60.5,148.1 60.5,148.2 60.5,148.4 60.5,148.5 60.5,148.5 60.5,148.6 60.5,148.6 60.5,148.7 		"/>
		<polyline class="st1" points="78.6,159.2 78.5,159 78.5,158.9 78.4,158.8 78.4,158.7 78.3,158.6 78.3,158.5 78.2,158.4 
			78.2,158.3 78.1,158.2 78,158.1 78,158 77.9,157.9 77.8,157.9 77.8,157.8 77.7,157.7 77.6,157.6 77.5,157.5 77.5,157.4 
			77.4,157.3 77.3,157.3 77.2,157.2 77.2,157.1 77.1,157 77,156.9 76.9,156.9 76.8,156.8 76.7,156.7 76.6,156.6 76.5,156.6 
			76.4,156.5 76.3,156.5 76.2,156.4 		"/>
		<polyline class="st1" points="96.8,159.3 96.8,159.3 96.9,159.3 96.9,159.3 96.9,159.2 97,159.2 97,159.1 97,159.1 97,159 
			97.1,159 97.1,158.9 97.1,158.8 97.1,158.8 97.1,158.6 97.1,158.6 97.1,158.4 97,158.4 97,158.3 97,158.3 97,158.2 97,158.2 
			97,158.1 96.9,158.1 96.9,158 96.9,158 96.9,157.9 96.9,157.9 96.8,157.9 		"/>
		<polyline class="st1" points="95.8,159.8 95.9,159.7 95.9,159.7 96,159.7 96,159.6 96.1,159.6 96.1,159.6 96.1,159.5 96.1,159.5 
			96.2,159.4 96.2,159.4 96.2,159.3 96.2,159.3 96.2,159.2 96.2,159 96.2,159 96.2,158.9 96.2,158.9 96.2,158.8 96.2,158.8 
			96.1,158.7 96.1,158.7 96.1,158.6 96.1,158.6 96.1,158.5 96,158.5 96,158.4 96,158.4 96,158.3 95.9,158.3 		"/>
		<polyline class="st1" points="92.2,158 92.3,158 92.3,157.9 92.4,157.9 92.4,157.8 92.5,157.7 92.6,157.6 92.7,157.5 92.7,157.5 
			92.8,157.4 92.9,157.3 92.9,157.3 93,157.2 93,157.1 93,157.1 93.1,157 93.1,156.9 93.2,156.8 93.2,156.8 93.3,156.7 93.3,156.6 
			93.4,156.5 93.4,156.5 93.4,156.4 93.5,156.3 93.5,156.2 93.5,156.2 93.6,156.1 93.6,156 93.6,155.9 93.7,155.8 93.7,155.7 		"/>
		<polyline class="st1" points="93,158.5 93.1,158.4 93.1,158.4 93.2,158.3 93.2,158.3 93.3,158.2 93.4,158.2 93.4,158.1 
			93.5,158.1 93.5,158 93.6,157.9 93.6,157.9 93.7,157.8 93.7,157.8 93.7,157.7 93.8,157.6 93.8,157.6 93.9,157.5 93.9,157.4 
			94,157.4 94,157.3 94,157.2 94.1,157.2 94.1,157.1 94.1,157 94.2,157 94.2,156.9 94.3,156.8 94.3,156.7 94.3,156.7 94.4,156.6 
			94.4,156.5 94.4,156.4 		"/>
		<polyline class="st1" points="94.1,159.6 94.1,159.5 94.1,159.5 94,159.4 94,159.4 94,159.4 93.9,159.4 93.9,159.4 93.9,159.4 
			93.8,159.3 93.8,159.3 93.8,159.3 93.7,159.3 93.7,159.3 93.6,159.3 93.6,159.4 93.5,159.4 93.5,159.4 93.5,159.4 93.4,159.4 
			93.4,159.4 93.4,159.4 93.3,159.5 93.3,159.5 93.2,159.5 93.2,159.5 93.2,159.5 93.2,159.6 93.1,159.6 93.1,159.6 		"/>
		<polyline class="st1" points="91.7,156.8 91.7,156.8 91.7,156.7 91.7,156.7 91.8,156.7 91.8,156.7 91.8,156.6 91.8,156.6 
			91.8,156.6 91.8,156.6 91.9,156.5 91.9,156.5 91.9,156.5 91.9,156.5 91.9,156.4 91.9,156.4 92,156.4 		"/>
		<polyline class="st1" points="92.7,155.7 92.7,155.7 92.7,155.7 92.6,155.7 92.6,155.7 92.5,155.8 92.5,155.8 92.4,155.8 
			92.4,155.9 92.3,155.9 92.3,156 92.2,156 92.2,156.1 92.1,156.1 92.1,156.2 92.1,156.2 92,156.3 92,156.3 92,156.4 		"/>
		<polyline class="st1" points="93.8,134 93.9,133.9 93.9,133.9 94,133.9 94,133.8 94,133.8 94.1,133.8 94.1,133.7 94.1,133.7 
			94.1,133.6 94.1,133.6 94.1,133.1 94.1,133.1 94.1,133 94.1,133 94.1,132.9 94.1,132.9 94.1,132.8 94,132.8 94,132.7 94,132.7 
			94,132.6 93.9,132.6 93.9,132.6 93.9,132.5 		"/>
		<polyline class="st1" points="92.9,134.4 92.9,134.4 93,134.4 93,134.3 93,134.3 93.1,134.3 93.1,134.2 93.2,134.2 93.2,134.2 
			93.2,134.1 93.2,134.1 93.2,134 93.3,133.9 93.3,133.6 93.2,133.5 93.2,133.5 93.2,133.4 93.2,133.3 93.2,133.3 93.2,133.3 
			93.1,133.2 93.1,133.1 93.1,133.1 93.1,133 93,133 93,133 93,132.9 		"/>
		<polyline class="st1" points="97,103.8 97,103.8 97.1,103.8 97.1,103.8 97.1,103.7 97.2,103.7 97.2,103.6 97.2,103.6 97.3,103.5 
			97.3,103.5 97.3,103.4 97.3,103 97.3,102.9 97.3,102.9 97.2,102.8 97.2,102.8 97.2,102.8 97.2,102.7 97.2,102.6 97.1,102.6 
			97.1,102.6 97.1,102.5 97.1,102.5 97,102.4 97,102.4 		"/>
		<polyline class="st1" points="96,104.3 96,104.3 96.1,104.2 96.1,104.2 96.2,104.2 96.2,104.2 96.3,104.1 96.3,104.1 96.3,104 
			96.3,104 96.4,103.9 96.4,103.9 96.4,103.8 96.4,103.8 96.4,103.7 96.4,103.5 96.4,103.5 96.4,103.4 96.4,103.3 96.4,103.3 
			96.3,103.2 96.3,103.2 96.3,103.1 96.3,103.1 96.3,103 96.2,103 96.2,102.9 96.2,102.9 96.2,102.8 96.1,102.8 		"/>
		<polyline class="st1" points="116.1,44.8 116.2,44.4 116.4,44.1 116.6,43.7 116.7,43.3 116.9,42.9 117,42.5 117.1,42.2 
			117.2,41.8 117.3,41.4 117.4,41 117.4,40.6 117.5,40.1 117.5,39.8 117.5,39.3 117.5,38.9 117.4,38.5 117.4,38.1 117.3,37.7 
			117.2,37.3 117.1,36.9 117,36.6 116.8,36.2 116.7,35.8 116.5,35.5 116.3,35.1 116,34.8 115.8,34.5 115.5,34.1 115.2,33.9 
			114.9,33.6 114.6,33.4 114.3,33.1 		"/>
		<polyline class="st1" points="77.1,11.6 76.7,11.4 76.3,11.3 75.9,11.1 75.5,11 75.1,10.9 74.7,10.8 74.3,10.8 73.4,10.8 73,10.9 
			72.6,10.9 72.1,11 71.8,11.1 71.3,11.3 71,11.4 70.5,11.6 70.2,11.8 69.8,12 69.5,12.2 69.1,12.4 68.8,12.7 68.4,13 68.1,13.2 
			67.8,13.5 67.5,13.8 67.2,14.2 67,14.5 66.7,14.8 66.5,15.2 66.2,15.5 66,15.9 65.8,16.3 		"/>
		<polyline class="st1" points="78.9,164.2 79,164.2 79.1,164.3 79.2,164.3 79.3,164.4 79.4,164.4 79.5,164.5 79.6,164.5 
			79.7,164.5 79.8,164.6 79.9,164.6 80,164.6 80.1,164.7 80.2,164.7 80.3,164.7 80.4,164.7 80.6,164.7 80.7,164.6 80.8,164.6 
			80.9,164.5 80.9,164.4 81,164.4 81,164.3 81.1,164.1 81.1,164 81.1,163.7 81.1,163.6 81,163.5 81,163.4 81,163.3 81,163.1 		"/>
		<polyline class="st1" points="60.4,151.3 60.5,151.5 60.6,151.6 60.7,151.8 60.8,152 60.8,152.2 60.9,152.3 61,152.5 61.1,152.7 
			61.3,152.8 61.4,153 61.5,153.1 61.6,153.3 61.7,153.4 61.8,153.6 62,153.7 62.1,153.9 62.2,154 62.4,154.2 62.5,154.3 
			62.6,154.4 62.8,154.6 62.9,154.7 63,154.8 63.2,154.9 63.3,155.1 63.5,155.2 63.7,155.3 63.8,155.4 64,155.5 64.1,155.6 
			64.3,155.7 64.4,155.8 		"/>
		<polyline class="st1" points="61.4,147 61.3,146.9 61.2,146.8 61.1,146.8 61,146.8 60.9,146.7 60.8,146.7 60.7,146.6 60.6,146.6 
			60.5,146.5 60.3,146.5 60.2,146.5 60.1,146.5 60,146.5 59.8,146.5 59.7,146.5 59.6,146.5 59.5,146.5 59.4,146.6 59.3,146.7 
			59.3,146.8 59.2,146.9 59.2,147 59.2,147.1 59.2,147.3 59.2,147.4 59.2,147.6 59.2,147.7 59.2,147.8 59.3,147.9 59.3,148 		"/>
		<polyline class="st1" points="79.8,159.8 79.7,159.7 79.7,159.5 79.6,159.3 79.5,159.1 79.4,159 79.3,158.8 79.2,158.6 
			79.1,158.5 79,158.3 78.9,158.2 78.8,158 78.7,157.9 78.5,157.7 78.4,157.5 78.3,157.4 78.2,157.3 78,157.1 77.9,157 77.8,156.8 
			77.6,156.7 77.5,156.6 77.3,156.4 77.2,156.3 77.1,156.2 76.9,156.1 76.8,155.9 76.6,155.8 76.5,155.7 76.3,155.6 76.1,155.5 
			76,155.4 75.8,155.3 		"/>
		<polyline class="st1" points="104.2,188.8 104.3,188.7 104.4,188.5 104.4,188.5 104.4,188.5 104.4,188.4 104.5,188.4 104.5,188.2 
			104.4,188.2 104.4,188.1 104.4,188.1 104.4,188.1 104.4,188 104.4,188 104.4,187.9 104.4,187.9 104.3,187.8 104.3,187.8 
			104.3,187.8 104.3,187.7 104.2,187.7 104.2,187.6 104.2,187.6 104.2,187.6 104.2,187.5 104.1,187.5 104.1,187.5 104.1,187.4 
			104.1,187.4 104.1,187.4 		"/>
		<polyline class="st1" points="53.6,158 53.8,158.3 54.1,158.6 54.3,158.9 54.6,159.2 54.9,159.5 55.2,159.8 55.5,160 55.8,160.3 
			56.1,160.6 56.4,160.9 56.7,161.1 57,161.4 57.3,161.6 57.6,161.9 57.9,162.1 58.2,162.4 58.5,162.7 58.8,162.9 59.2,163.1 
			59.5,163.4 59.8,163.6 60.1,163.9 60.4,164.1 60.8,164.3 61.1,164.6 61.5,164.8 61.8,165 62.1,165.2 62.5,165.5 62.8,165.7 
			63.1,165.9 63.5,166.1 		"/>
		<polyline class="st1" points="100.5,187.5 100.6,187.5 100.8,187.6 100.9,187.7 101.1,187.8 101.2,187.8 101.4,187.9 101.5,188 
			101.7,188.1 101.8,188.2 102,188.2 102.1,188.3 102.3,188.4 102.4,188.4 102.6,188.5 102.8,188.6 102.9,188.6 103.1,188.7 
			103.3,188.7 103.4,188.8 103.6,188.8 103.8,188.8 103.9,188.8 104.1,188.8 104.2,188.7 		"/>
		<polyline class="st1" points="116.1,44.8 113.9,48.7 111.7,53.1 109.8,57.1 107.7,61.6 106,65.7 104.1,70.2 102.5,74.4 100.8,79 
			99.3,83.2 97.9,87.9 96.6,92.2 95.4,96.9 94.3,101.3 93.3,106 92.5,110.5 91.7,115.3 91.1,119.7 90.6,124.6 90.3,129.1 
			90.1,133.9 90.1,135.3 90.1,136.9 90.1,140 90.2,143.3 90.5,147.8 91.1,152.6 91.8,157.1 92.8,161.8 93.9,166.2 95.4,170.8 
			97,175 99.1,179.4 101.3,183.3 104.1,187.4 		"/>
		<line class="st1" x1="114.5" y1="51.8" x2="115.4" y2="51.4"/>
		<line class="st1" x1="115.4" y1="49.9" x2="114.2" y2="48.2"/>
		<line class="st1" x1="114.4" y1="51.8" x2="112.2" y2="52.1"/>
		<line class="st1" x1="114.5" y1="50.3" x2="113.7" y2="49.2"/>
		<line class="st1" x1="103.1" y1="79" x2="104" y2="78.6"/>
		<line class="st1" x1="104" y1="77.1" x2="102.3" y2="74.8"/>
		<line class="st1" x1="100.8" y1="79.4" x2="100.7" y2="79.3"/>
		<line class="st1" x1="103" y1="79" x2="100.8" y2="79.4"/>
		<line class="st1" x1="103.1" y1="77.5" x2="101.9" y2="75.9"/>
		<line class="st1" x1="103" y1="177.7" x2="102.7" y2="183.7"/>
		<line class="st1" x1="102.4" y1="183.8" x2="102.7" y2="183.7"/>
		<line class="st1" x1="102.4" y1="183.8" x2="102" y2="184.3"/>
		<line class="st1" x1="61.7" y1="152" x2="60.5" y2="148.7"/>
		<line class="st1" x1="79.7" y1="162.4" x2="78.6" y2="159.1"/>
		<line class="st1" x1="78.5" y1="163" x2="64.1" y2="154.7"/>
		<line class="st1" x1="76.2" y1="156.4" x2="61.8" y2="148.1"/>
		<line class="st1" x1="92" y1="158.2" x2="92.2" y2="158"/>
		<line class="st1" x1="95.9" y1="159.7" x2="96.8" y2="159.3"/>
		<polyline class="st1" points="96.8,157.9 94.9,155.1 94.5,154.9 		"/>
		<line class="st1" x1="94" y1="155.5" x2="93.8" y2="155.4"/>
		<line class="st1" x1="93.6" y1="160.1" x2="93.3" y2="160"/>
		<line class="st1" x1="95.8" y1="159.8" x2="93.6" y2="160.1"/>
		<line class="st1" x1="95.9" y1="158.3" x2="94" y2="155.5"/>
		<line class="st1" x1="92.4" y1="160.2" x2="93.1" y2="159.6"/>
		<line class="st1" x1="92.2" y1="159.2" x2="93" y2="158.5"/>
		<line class="st1" x1="93.3" y1="160" x2="93.1" y2="160.1"/>
		<line class="st1" x1="92.5" y1="160.6" x2="93.1" y2="160.1"/>
		<line class="st1" x1="94.5" y1="154.9" x2="92.7" y2="155.7"/>
		<line class="st1" x1="90.7" y1="134.7" x2="90.4" y2="134.6"/>
		<line class="st1" x1="92.9" y1="134.4" x2="93.8" y2="133.9"/>
		<polyline class="st1" points="93.9,132.5 91.9,129.7 91.5,129.5 		"/>
		<line class="st1" x1="91.1" y1="130.1" x2="90.9" y2="130.1"/>
		<line class="st1" x1="92.9" y1="134.4" x2="90.7" y2="134.7"/>
		<line class="st1" x1="93" y1="132.9" x2="91.1" y2="130.1"/>
		<line class="st1" x1="90.4" y1="134.6" x2="90.1" y2="134.7"/>
		<line class="st1" x1="91.5" y1="129.5" x2="90.2" y2="130.1"/>
		<line class="st1" x1="96.1" y1="104.2" x2="97" y2="103.8"/>
		<polyline class="st1" points="96.1,104.3 93.8,104.6 93.6,104.5 		"/>
		<line class="st1" x1="95.1" y1="99.6" x2="94.7" y2="99.4"/>
		<line class="st1" x1="97" y1="102.4" x2="95.1" y2="99.6"/>
		<line class="st1" x1="96.1" y1="102.8" x2="94.5" y2="100.5"/>
		<line class="st1" x1="114.3" y1="33.1" x2="77.1" y2="11.6"/>
		<line class="st1" x1="78.9" y1="164.2" x2="64.4" y2="155.8"/>
		<line class="st1" x1="59.3" y1="148" x2="60.4" y2="151.3"/>
		<line class="st1" x1="75.8" y1="155.3" x2="61.4" y2="147"/>
		<line class="st1" x1="79.8" y1="159.8" x2="81" y2="163.1"/>
		<line class="st1" x1="100.5" y1="187.4" x2="63.5" y2="166.1"/>
		<path class="st1" d="M100.3,127.1L100.3,127.1L100.3,127.1L100.3,127.1l-0.1,0.2v0.1l0,0v0.2l0,0l0,0l0,0l0,0l0,0l0,0l0,0l0,0
			 M100.9,127.4L100.9,127.4L100.9,127.4L100.9,127.4L100.9,127.4L100.9,127.4L100.9,127.4L100.9,127.4L100.9,127.4L100.9,127.4
			L100.9,127.4L100.9,127.4L100.9,127.4L100.9,127.4L100.9,127.4L100.9,127.4L100.9,127.4L100.9,127.4L100.9,127.4L100.9,127.4
			L100.9,127.4 M100.9,127v0.4 M100.8,131.3L100.8,131.3l0.2,0.1h0.1h0.1h0.1h0.1h0.1l0.1-0.1l0.1-0.1l0.1-0.1l0.1-0.1v-0.1v-0.1
			v-0.1v-0.2v-0.1v-0.1v-0.1v-0.1V130l-0.1-0.1v-0.1l-0.1-0.1l-0.1-0.1l-0.1-0.1h-0.1l-0.1-0.1h-0.1l-0.1-0.1l-0.1-0.1h-0.1
			 M101.2,130.5L101.2,130.5l-0.1,0.1l0,0H101l0,0h-0.1v-0.1l-0.1-0.1l0,0v-0.1l0,0V130v-0.1l0,0h0.1h0.1h0.1h0.1l0,0h0.1v0.1l0,0
			v0.1v0.1l0,0L101.2,130.5L101.2,130.5 M102.3,131L102.3,131l0.2-0.1l0.1-0.1v-0.1v-0.1v-0.1v-0.1v-0.3V130v-0.1v-0.1v-0.1v-0.1
			v-0.1v-0.1v-0.1v-0.1v-0.1l-0.1-0.1h-0.1v-0.1l-0.1-0.1h-0.1l-0.1-0.1l-0.1-0.1h-0.1 M99.9,130.8l0.2-2.2 M99.9,128.3l-0.2-0.1
			 M102.3,131l-0.9,0.4 M100.8,131.3l-0.9-0.5 M101,129.1l-0.9-0.6 M101.9,128.7l-1.5-0.9 M102.5,153.7l-0.1-0.1l-0.1-0.1l-0.1-0.1
			l-0.1-0.1l-0.1-0.1l-0.1-0.1 M103.7,153L103.7,153v0.1l0,0l0,0l0,0l0,0v0.1l0,0v0.1l0,0l0,0l0,0l0,0l0,0h0.1l0,0 M102.7,156.2
			L102.7,156.2L102.7,156.2L102.7,156.2L102.7,156.2L102.7,156.2l-0.1-0.1l0,0l0,0l0,0 M102.7,156.3L102.7,156.3L102.7,156.3
			L102.7,156.3v-0.1l0,0 M102.9,154.2V154l0,0l0,0l0,0l0,0l0,0l0,0l0,0l0,0 M102.3,155.9L102.3,155.9L102.3,155.9l-0.1-0.1H102l0,0
			h-0.1l0,0l0,0h-0.1l0,0l0,0l0,0l0,0l0,0l0,0 M100.9,157.2L100.9,157.2v0.1v0.1l0,0l0,0l0,0l0,0l0,0l0,0l0,0l0,0l0,0l0,0
			 M100.9,157.1v-0.5v-0.1v-0.2v-0.1v-0.1V156v-0.1v-0.1v-0.1v-0.1v-0.1v-0.1v-0.1v-0.1v-0.1V155l-0.1-0.1v-0.1l-0.1-0.1v-0.1
			l-0.1-0.1v-0.1l-0.1-0.1l-0.1-0.1l-0.1-0.1l-0.1-0.1l-0.1-0.1 M100.8,152.3L100.8,152.3L100.8,152.3h-0.2h-0.1v0.1h-0.1l-0.1,0.1
			v0.1l-0.1,0.1l-0.1,0.1l-0.1,0.1l0,0v0.1l-0.1,0.1l0,0l0,0v0.1v0.1v0.1v0.1v0.1v0.1v0.1v0.1l0,0v0.1v0.1v0.1v0.1 M100.8,152.3
			L100.8,152.3L100.8,152.3L100.8,152.3L100.8,152.3L100.8,152.3L100.8,152.3L100.8,152.3L100.8,152.3L100.8,152.3L100.8,152.3
			L100.8,152.3L100.8,152.3L100.8,152.3L100.8,152.3L100.8,152.3L100.8,152.3L100.8,152.3L100.8,152.3l0.1-0.1h0.1l0.1-0.1V152v-0.1
			v-0.1v-0.1 M102.7,150.8L102.7,150.8L102.7,150.8L102.7,150.8h-0.2l0,0h-0.1l0,0l0,0h-0.1l0,0h-0.1l0,0h-0.1l0,0l0,0l0,0H102l0,0
			l0,0h-0.1l0,0l0,0l0,0l0,0l0,0l0,0l0,0h-0.1l0,0l0,0l0,0l0,0 M105.1,156.6L105.1,156.6l0.1-0.1l0.1-0.1l0.1-0.1l0.1-0.1v-0.1V156
			v-0.1v-0.1v-0.4v-0.1v-0.1v-0.1V155v-0.1v-0.1v-0.1v-0.1v-0.1v-0.1l-0.1-0.1v-0.1l-0.1-0.1l-0.1-0.1l-0.1-0.1H105h-0.1l-0.1-0.1
			h-0.1 M103.6,156.9L103.6,156.9l0.2,0.1h0.1h0.2h0.1h0.1l0.1-0.1l0.1-0.1l0.1-0.1v-0.1v-0.1v-0.1v-0.1v-0.2V156v-0.1v-0.1v-0.1
			v-0.1l-0.1-0.1v-0.1l-0.1-0.1l-0.1-0.1v-0.1l-0.1-0.1l-0.1-0.1l-0.1-0.1l-0.1-0.1h-0.1l-0.1-0.1 M103.5,155.9L103.5,155.9
			l-0.1-0.1v-0.2l0,0v-0.1h0.1h0.1l0,0h0.1h0.1v0.1h0.1l0,0v0.1v0.1v0.1v0.1v0.1v0.1v0.1l-0.1,0.1h-0.1h-0.1h-0.1l-0.1-0.1l-0.1-0.1
			v-0.1L103.5,155.9L103.5,155.9 M103.1,152.7L103.1,152.7L103.1,152.7v0.1v0.1v0.2l0,0l0,0l0,0l0,0l0,0l0,0l0,0l0,0l0,0 M104,153.9
			L104,153.9L104,153.9L104,153.9L104,153.9L104,153.9l0.1-0.1l0,0v-0.1l0,0 M101.4,157.8L101.4,157.8L101.4,157.8h0.3h0.1h0.1h0.1
			l0,0h0.1h0.1l0,0v-0.1l0,0h0.1l0.1-0.1l0,0v-0.1l0,0v-0.1l0,0v-0.1l0,0v-0.1 M102.8,156.4L102.8,156.4L102.8,156.4L102.8,156.4
			l-0.1,0.1l0,0l0,0v0.1l0,0l0,0l0,0v0.1l0,0l0,0l0,0v0.1 M102.9,154.2l-0.2,2.2 M102.3,155.9l0.2,0.1 M102.7,156.4l0.9,0.5
			 M102.5,153.7l0.2,0.1 M102.9,154.2l0.9,0.5 M104.1,153.7v0.3 M103.2,153.4l1.5,0.9 M103.1,151l-0.4-0.2 M101.4,157.8l-0.4-0.2
			 M104.2,157l0.9-0.4 M103.2,151.3l0.4,1.7 M111.4,71.6L111.4,71.6L111.4,71.6L111.4,71.6v0.2l0,0V72l0,0l0,0v0.1l0,0l0,0l0,0v0.1
			 M111.2,72.7L111.2,72.7L111.2,72.7L111.2,72.7L111.2,72.7L111.2,72.7L111.2,72.7L111.2,72.7L111.2,72.7l0.1-0.2l0,0l0,0l0,0l0,0
			l0,0l0,0 M110.3,71.5L110.3,71.5L110.3,71.5L110.3,71.5L110.3,71.5L110.3,71.5v0.2l0,0v0.1l0,0V72l0,0l0,0l0,0l0,0l0,0l0,0l0,0
			 M109.5,74.7L109.5,74.7L109.5,74.7h-0.3l0,0l0,0l0,0h-0.1l0,0l0,0l0,0H109l0,0l0,0l0,0 M109,72.1L109,72.1l0.2,0.2l0.1,0.1
			l0.1,0.1l0.1,0.1l0.1,0.1 M109.9,75L109.9,75L109.9,75L109.9,75L109.9,75L109.9,75L109.9,75L109.9,75L109.9,75 M110,75.1L110,75.1
			L110,75.1L110,75.1L110,75.1L110,75.1L110,75.1 M110.1,73L110.1,73L110.1,73L110.1,73L110.1,73L110.1,73L110.1,73L110.1,73
			L110.1,73L110.1,73L110.1,73L110.1,73 M108.3,76.2L108.3,76.2L108.3,76.2L108.3,76.2L108.3,76.2L108.3,76.2L108.3,76.2L108.3,76.2
			L108.3,76.2L108.3,76.2L108.3,76.2 M111,70.3L111,70.3L111,70.3L111,70.3L111,70.3L111,70.3h-0.2l0,0l0,0l0,0l0,0l0,0l0,0
			 M110.3,70.4L110.3,70.4L110.3,70.4h0.2l0,0l0,0l0,0l0,0 M109.7,69.8L109.7,69.8L109.7,69.8l-0.3-0.1l0,0 M107.4,76.3L107.4,76.3
			L107.4,76.3L107.4,76.3l0.2,0.1h0.1h0.1h0.1h0.1h0.1l0,0 M108.4,76.1L108.4,76.1L108.4,76.1L108.4,76.1L108.4,76.1h-0.2l0,0h-0.1
			H108l0,0h-0.1 M108.9,76.5L108.9,76.5L108.9,76.5h0.2h0.1l0,0h0.1h0.1l0,0h0.1l0,0h0.1h0.1l0.1-0.1l0,0l0,0v-0.1l0,0l0,0v-0.1l0,0
			l0,0v-0.1l0,0l0,0 M112.4,75.4L112.4,75.4L112.4,75.4l0.2-0.2l0.1-0.1V75v-0.1v-0.1v-0.1v-0.1v-0.3v-0.1v-0.1V74v-0.1v-0.1v-0.1
			l-0.1-0.1v-0.1v-0.1l-0.1-0.1v-0.1l-0.1-0.1l-0.1-0.1l-0.1-0.1l-0.1-0.1l-0.1-0.1l-0.1-0.1h-0.1l-0.1-0.1 M110.9,75.7L110.9,75.7
			h0.2h0.1h0.1h0.1h0.1h0.1h0.1l0.1-0.1l0.1-0.1v-0.1v-0.1v-0.1v-0.1V75v-0.1v-0.1v-0.1v-0.1v-0.1v-0.1l-0.1-0.1v-0.1v-0.1l-0.1-0.1
			l-0.1-0.1l-0.1-0.1l-0.1-0.1l-0.1-0.1l-0.1-0.1l-0.1-0.1H111 M111,74.3L111,74.3L111,74.3L111,74.3l0.1,0.2v0.1v0.1v0.2l0,0V75
			l0,0H111l0,0h-0.1h-0.1l-0.1-0.1l0,0h-0.1v-0.1v-0.1v-0.1v-0.2v-0.1l0,0h0.1h0.1H111L111,74.3L111,74.3 M111.3,72.8l0.1-0.5
			 M110.1,73l-0.2,2.2 M109.5,74.8l0.2,0.1 M109.9,75.7l0.1-0.4 M111.4,70.5l-0.4-0.2 M110.1,70l-0.4-0.2 M109.7,72.6l0.2,0.1
			 M108.8,76.5l-0.3-0.2 M107.4,76.3l-0.4-0.2 M111.4,71.6l0.1-0.3 M112.4,75.4l-0.9,0.4 M110.4,72.2l1.5,0.9 M110.1,73l0.9,0.5
			 M109.9,75.2l0.9,0.5 M123.8,43.9L123.8,43.9L123.8,43.9L123.8,43.9L123.8,43.9l-0.1,0.2v0.4l0,0l0,0l0,0l0,0l0,0l0,0l0,0l0,0l0,0
			 M122,44.1L122,44.1L122,44.1L122,44.1L122,44.1L122,44.1l-0.1,0.2l0,0v0.1l0,0l0,0l0,0l0,0l0,0l0,0l0,0l0,0l0,0 M121.7,45
			L121.7,45l-0.2-0.1l-0.1-0.1l-0.1-0.1l-0.1-0.1l-0.1-0.1 M121.9,45.6L121.9,45.6L121.9,45.6L121.9,45.6L121.9,45.6L121.9,45.6
			L121.9,45.6L121.9,45.6l0.1-0.2l0,0l0,0l0,0l0,0l-0.1-0.1l0,0 M124.1,48L124.1,48L124.1,48l0.2-0.1l0.1-0.1l0,0v-0.1v-0.1v-0.1
			v-0.1v-0.3V47v0v-0.1v-0.1v-0.1l-0.1-0.1v-0.1l-0.1-0.1l-0.1-0.1v-0.1l-0.1-0.1V46l-0.1-0.1h-0.1l-0.1-0.1l-0.1-0.1h-0.1h-0.1
			h-0.1 M122.5,48.4L122.5,48.4l0.2,0.1h0.1h0.1h0.1h0.1h0.1l0.1-0.1l0.1-0.1l0.1-0.1l0.1-0.1V48v-0.1v-0.1v-0.1v-0.1v-0.1v-0.1
			v-0.1l-0.1-0.1v-0.1V47v-0.1l-0.1-0.1l-0.1-0.1l-0.1-0.1l-0.1-0.1l-0.1-0.1l-0.1-0.1l-0.1-0.1h-0.1l-0.1-0.1 M122.4,46.9
			L122.4,46.9L122.4,46.9L122.4,46.9l-0.1,0.2v0.1v0.1v0.1v0.1l0,0l0.1,0.1h0.1l0.1,0.1v0.1h0.1h0.1h0.1v-0.1l0,0v-0.1l0,0v-0.1
			v-0.1l0,0v-0.1l-0.1-0.1v-0.1l0,0l-0.1-0.1h-0.1L122.4,46.9L122.4,46.9L122.4,46.9 M123.4,42.6L123.4,42.6L123.4,42.6L123.4,42.6
			L123.4,42.6l-0.3-0.1l0,0l0,0l0,0l0,0l0,0l0,0 M122.4,42.7L122.4,42.7L122.4,42.7h0.2h0.1h0.1l0,0h0.1h0.1l0,0l0,0l0,0l0,0l0,0
			 M119.7,48.6L119.7,48.6L119.7,48.6v-0.2l0,0v-0.1l0,0v-0.1l0,0l0,0l0,0l0,0l0,0l0,0l0,0 M119.7,48.7L119.7,48.7L119.7,48.7
			L119.7,48.7L119.7,48.7L119.7,48.7L119.7,48.7L119.7,48.7L119.7,48.7L119.7,48.7L119.7,48.7L119.7,48.7L119.7,48.7L119.7,48.7
			L119.7,48.7 M120.1,48.9L120.1,48.9L120.1,48.9v0.2l0,0l0,0l0,0l0.1,0.1l0,0h0.1l0,0h0.2h0.1h0.1h0.1h0.1l0,0h0.1v-0.1h0.1l0,0
			l0,0l0,0h0.1l0,0l0,0l0,0V49l0,0l0,0 M120.1,48.8L120.1,48.8L120.1,48.8v-0.2v-0.1l0,0v-0.1l0,0l0,0l0,0l0,0l0,0l0,0l0,0l0,0l0,0
			l0,0l0,0l0,0l0,0l0,0l0,0H120l0,0h-0.1l0,0l0,0h-0.2 M119,47.7L119,47.7L119,47.7L119,47.7L119,47.7L119,47.7L119,47.7L119,47.7
			L119,47.7l0.2,0.1 M123.8,43.8L123.8,43.8 M121.8,45.7l-0.2,2.2 M121.8,45.7L121.8,45.7 M121.7,45l0.2,0.1 M123.6,45.7l0.4-0.8
			 M123.5,45.7L123.5,45.7 M121.3,48.6l0.3-0.7 M123,45.4l0.9-0.6 M123.7,42.8l-0.4-0.2 M121.8,42.2l0.4,0.2 M118.8,47.7l0.4,0.2
			 M124,44.8L124,44.8 M120.3,49.2l-0.4-0.2 M123.2,48.4l0.9-0.4 M123.6,45.8l-1.6-0.9 M122.5,48.4l-0.9-0.5 M122.7,46.2l-0.9-0.5
			 M109.9,178.8l-0.2-0.3l-0.2-0.3l-0.2-0.3l-0.2-0.3l-0.2-0.3l-0.2-0.3l-0.2-0.3l-0.2-0.3l-0.2-0.4l-0.2-0.3l-0.2-0.4l-0.2-0.3
			l-0.2-0.4l-0.2-0.3l-0.2-0.4l-0.2-0.3l-0.2-0.3l-0.2-0.4l-0.2-0.3l-0.2-0.3l-0.2-0.4l-0.2-0.3l-0.2-0.4l-0.1-0.3l-0.2-0.4
			l-0.2-0.3l-0.2-0.4l-0.1-0.3l-0.1-0.4l-0.2-0.3l-0.2-0.4l-0.1-0.4l0,0l-0.1-0.2v-0.2v-0.1v-0.2v-0.2v-0.2v-0.1v-0.2l-0.1-0.2
			l-0.1-0.1h-0.1l-0.2-0.1l-0.1-0.1h-0.1L103,166l-0.1-0.1l-0.1-0.1l-0.1-0.1l-0.1-0.3l-0.1-0.3l-0.1-0.3l-0.1-0.3l-0.1-0.3
			l-0.1-0.3l-0.1-0.3l-0.1-0.3l-0.1-0.3l-0.1-0.3l-0.1-0.3l-0.1-0.3l-0.1-0.4l-0.1-0.3l-0.1-0.3l-0.1-0.3l-0.1-0.3l-0.1-0.3
			l-0.1-0.3l-0.1-0.3l-0.1-0.3l-0.1-0.3l-0.1-0.3l-0.1-0.3l-0.1-0.4l-0.1-0.3l-0.1-0.3l-0.1-0.3l-0.1-0.3l-0.1-0.3l-0.1-0.3
			l-0.1-0.3v-0.2v-0.3l0.1-0.3v-0.2l0.1-0.2v-0.2l-0.2-0.3 M96.7,143.4l0.3,2.7l0.7,4.5l0.9,4.8l1.1,4.3l1.5,4.6l1.6,4.2l2,4.4
			l2.1,3.9l2.7,4 M122,38.8l-2.1,3.9l-2.2,4.3l-2,4l-2,4.4l-1.8,4.1l-1.8,4.5l-1.6,4.2l-1.7,4.6l-1.4,4.2l-1.4,4.6l-1.3,4.3
			l-0.3,1.3 M163.8,84.1l-0.1,0.3l-0.3,0.7l-0.3,0.7 M172,67.6l-2.1,3.9l-0.2,0.5 M160.4,92.1l-0.2,0.4L160,93l-1.6,4.2l-1.7,4.6
			l-1.5,4.3l-1.5,4.6l-1.3,4.3l-1.2,4.7l-1.1,4.4l-1,4.8l-0.9,4.4l-0.8,4.8l-0.6,4.3 M145.9,164.9v0.6l0.1,0.6l0.2,2.9l0.2,3.1
			 M146.8,175.8l0.7,4.3l0.9,4.6l1.1,4.4l1.5,4.6l1.6,4.2l2,4.4l2.2,4l2.7,4 M158.9,212.1l0.1,0.1h0.2h0.2h0.2h0.2h0.2h0.2l0.1-0.1
			V212v-0.2v-0.2l-0.1-0.2l-0.1-0.1l-0.1-0.2l-0.1-0.1l-0.1-0.1l-0.1-0.1l-0.1-0.1l-0.1-0.1l-0.1-0.1 M109.6,180.8l0.6,0.8l0.7,0.8
			l0.7,0.7l0.8,0.8l0.8,0.7l0.9,0.7l0.8,0.6l0.9,0.7l0.9,0.6l0.9,0.6l0.9,0.6l1,0.6 M156.7,210.4L156.7,210.4l0.2,0.1l0.1,0.1h0.1
			l0.1,0.1l0.1,0.1h0.1h0.1l0.1,0.1h0.1l0.2,0.1h0.1l0.1,0.1h0.1h0.1h0.1h0.1l0.1,0.1h0.1l0.2,0.1h0.1h0.1h0.1l0.1,0.1h0.1h0.1h0.1
			h0.1h0.1h0.1h0.1h0.1h0.2 M173.3,63.8v-0.2v-0.2v-0.5v-0.5v-0.9l-0.1-0.4l-0.1-0.4l-0.1-0.4l-0.1-0.4l-0.1-0.4l-0.2-0.4l-0.2-0.4
			l-0.2-0.4l-0.2-0.4l-0.3-0.4l-0.2-0.3l-0.3-0.3l-0.3-0.3l-0.4-0.3l-0.3-0.2l-0.4-0.2 M133.1,34.5l-0.4-0.2l-0.4-0.2l-0.4-0.1
			l-0.4-0.1l-0.4-0.1l-0.4-0.1h-0.4h-0.5h-0.4h-0.5l-0.4,0.1l-0.4,0.1l-0.4,0.1l-0.4,0.1l-0.4,0.2l-0.4,0.2l-0.4,0.2l-0.4,0.2
			l-0.4,0.2l-0.4,0.2l-0.4,0.3l-0.3,0.3l-0.3,0.3l-0.3,0.3l-0.3,0.3l-0.3,0.4l-0.2,0.3l-0.3,0.4l-0.2,0.4l-0.2,0.4 M127.8,35.6
			l-0.1,0.2l-0.1,0.2l-0.1,0.2l-0.1,0.2l-0.1,0.2l-0.1,0.2l-0.1,0.2l-0.1,0.3l-0.1,0.2l-0.2,0.2l-0.1,0.2l-0.1,0.2l-0.1,0.2
			l-0.1,0.2l-0.1,0.2l-0.1,0.2l-0.1,0.2l-0.1,0.2l-0.1,0.2l-0.1,0.2l-0.1,0.2l-0.1,0.3l-0.1,0.2l-0.1,0.2l-0.1,0.2l-0.1,0.2
			l-0.1,0.2l-0.1,0.2l-0.1,0.2l-0.1,0.2l-0.1,0.2 M113,66.6l-0.1,0.2l-0.1,0.3l-0.1,0.2l-0.1,0.2l-0.1,0.3l-0.1,0.3l-0.1,0.2
			l-0.1,0.3l-0.1,0.2L112,69l-0.1,0.3l-0.2,0.5l-0.1,0.2l-0.1,0.2l-0.1,0.2 M109.5,76.4l-0.2,0.6l-0.2,0.6l-0.2,0.6l-0.2,0.6
			l-0.2,0.6l-0.2,0.6l-0.2,0.6l-0.2,0.6l-0.2,0.6l-0.2,0.6l-0.2,0.6l-0.2,0.6l-0.2,0.6l-0.2,0.6l-0.1,0.6l-0.1,0.5 M102.4,148.3
			L102.4,148.3v0.2v0.1v0.1v0.1v0.1v0.1v0.1v0.1v0.1v0.1v0.1v0.1v0.1v0.1v0.1v0.1v0.1v0.1v0.1v0.1l0,0v0.1v0.1v0.1v0.1v0.1v0.1v0.1
			v0.1v0.1v0.1 M120.7,179.5h0.3l31.5,18.2 M118.9,185.7l-1.2-0.8l-1.1-0.8l-1.1-0.9l-1-0.9l-1.1-0.9l-0.9-1l-1-1l-0.8-1.1
			 M168,56.1l0.6,0.3l0.5,0.3l0.5,0.4l0.5,0.4l0.5,0.4l0.5,0.4l0.5,0.5l0.4,0.4l0.4,0.5l0.4,0.5l0.4,0.5l0.3,0.5 M135.8,37.5
			l-1.1-0.6l-1.3-0.6l-1.2-0.5l-1.4-0.3l-1.3-0.1l-1.4,0.1l-1.3,0.3l-1.2,0.6l-1,0.8l-1,1l-0.8,1l-0.7,1.2 M103.1,87.4l0.1-0.2
			l0.1-0.2l0.1-0.2l0.1-0.3l0.1-0.2v-0.2l0.1-0.2l0.1-0.3l0.1-0.2l0.1-0.2l0.1-0.2l0.1-0.2l0.1-0.2L104,84v-0.2l0.1-0.3l0.1-0.2
			l0.1-0.2l0.1-0.2l0.1-0.2l0.1-0.2l0.1-0.3l0.1-0.2l0.1-0.2l0.1-0.2l0.1-0.2v-0.1l0.1-0.1v-0.1l0.1-0.2l0.1-0.1l0.1-0.2l0.1-0.2
			l0.1-0.2l0.1-0.2l0.1-0.1v-0.1l0.1-0.1v-0.3l0,0v-0.1v-0.1v-0.3v-0.2v-0.2v-0.2v-0.2l0.1-0.2l0,0l0.1-0.3l0.1-0.2l0.1-0.2l0.1-0.2
			l0.1-0.2l0.1-0.2l0.1-0.3l0.1-0.2l0.1-0.2l0.1-0.2l0.1-0.2l0.1-0.2l0.1-0.3l0.1-0.2l0.1-0.2l0.1-0.2l0.1-0.2l0.1-0.2l0.1-0.2
			l0.1-0.2l0.1-0.2l0.1-0.2l0.1-0.2l0.1-0.2l0.1-0.2l0.1-0.2l0.1-0.3l0.1-0.2l0.1-0.3l0.1-0.2l0.1-0.2l0.1-0.2v-0.1v-0.1l0.1-0.1
			v-0.1l0.2-0.4l0.2-0.2l0.1-0.2v-0.1l0.1-0.2l0.1-0.1v-0.1l0.1-0.2V69v-1v-0.1v-0.2v-0.2l0.1-0.2v-0.2l0.1-0.2l0,0l0.1-0.3l0.1-0.3
			l0.2-0.3l0.1-0.4l0.1-0.4l0.1-0.3l0.1-0.4l0.1-0.3l0.1-0.4l0.1-0.3l0.1-0.4l0.1-0.3l0.2-0.4l0.1-0.3l0.2-0.4l0.1-0.3l0.2-0.4
			l0.1-0.3l0.2-0.3l0.1-0.3l0.2-0.4l0.1-0.3L113,59l0.1-0.3l0.2-0.4l0.2-0.3l0.1-0.3l0.1-0.3l0.1-0.4l0.2-0.3l0.1-0.4l0.2-0.3
			l0.1-0.2l0.1-0.2l0.1-0.2l0.1-0.2l0.1-0.2l0.1-0.2l0.1-0.1l0.1-0.1v-0.1l0.1-0.1l0.1-0.2v-0.1v-0.2v-0.1v-0.2v-0.1v-0.1v-0.2V53
			l0.1-0.2l0.1-0.2l0.1-0.3l0.2-0.4l0.2-0.4l0.2-0.4l0.1-0.4l0.2-0.4l0.2-0.4l0.2-0.4l0.2-0.4l0.2-0.4l0.2-0.4l0.2-0.4L118,48
			l0.2-0.4l0.2-0.4l0.2-0.4l0.2-0.4L119,46l0.2-0.4l0.2-0.4l0.2-0.4l0.2-0.4L120,44l0.2-0.4l0.2-0.4l0.2-0.4l0.2-0.4L121,42l0.2-0.4
			l0.2-0.4l0.2-0.3l0.2-0.4l0.2-0.4 M99.5,153.3L99.5,153.3l-0.2-0.1l-0.1-0.1V153l-0.1-0.1l-0.1-0.1l-0.1-0.2l-0.1-0.4l-0.1-0.3
			l-0.1-0.4l-0.1-0.3l-0.1-0.4l-0.1-0.3l-0.1-0.4l-0.1-0.3v-0.4l-0.1-0.3l-0.1-0.4l-0.1-0.4v-0.4l-0.1-0.3l-0.1-0.4l-0.1-0.3
			l-0.1-0.4v-0.3v-0.4l-0.1-0.3v-0.4v-0.3l-0.1-0.4v-0.3l-0.1-0.4v-0.3l0,0 M99.5,153.3L99.5,153.3L99.5,153.3 M120.6,49.2l-0.1,0.2
			l-0.1,0.3l-0.1,0.3l-0.1,0.3l-0.1,0.2l-0.1,0.3l-0.1,0.2l-0.1,0.3l-0.1,0.2l-0.1,0.3l-0.1,0.3l-0.1,0.3l-0.1,0.3l-0.1,0.2
			l-0.1,0.3l-0.1,0.3l-0.1,0.2l-0.1,0.3l-0.1,0.3l-0.1,0.3l-0.1,0.3l-0.1,0.3l-0.1,0.2l-0.1,0.3l-0.1,0.2l-0.1,0.3l-0.1,0.2
			l-0.1,0.3l-0.1,0.3l-0.1,0.3l-0.1,0.3l-0.1,0.3 M100.6,131.2v0.7v0.3v0.3v0.3v0.3v0.3v0.3v0.3v0.3v0.3v0.3v0.1 M104.6,156.9
			l0.1,0.2l0.1,0.3l0.1,0.2l0.1,0.3l0.1,0.2l0.1,0.2l0.1,0.3l0.1,0.3l0.1,0.2l0.1,0.3l0.1,0.2l0.1,0.3l0.1,0.2l0.1,0.3l0.1,0.2
			l0.1,0.3l0.1,0.2l0.1,0.3l0.1,0.2l0.1,0.3l0.1,0.2l0.1,0.3l0.1,0.2l0.1,0.3l0.1,0.2l0.1,0.3l0.1,0.2l0.1,0.3l0.1,0.2l0.1,0.2
			l0.1,0.3l0.1,0.2 M113.6,175.4l0.1,0.1l0.1,0.2l0.2,0.2l0.1,0.2l0.1,0.2l0.1,0.2l0.2,0.2l0.1,0.2l0.1,0.2l0.1,0.2l0.2,0.2l0.1,0.2
			l0.1,0.2l0.2,0.2l0.2,0.2l0.1,0.2l0.2,0.2l0.2,0.2l0.2,0.2l0.2,0.2l0.1,0.2l0.2,0.2l0.2,0.2l0.2,0.2l0.3,0.3l0.2,0.2l0.1,0.1
			l-0.1-0.1 M104.5,183.8l72.8,42.1 M156.7,210.4L119.6,189 M170,55.8l-7.8-4.5 M162.2,51.3l-29.4-17 M122.5,190.6l0.4-0.6
			 M158.1,208.3L119,185.7 M168.1,55.3l-3.4-1.9 M164.7,53.4L136,36.8 M122.2,40.4l-0.9-0.4 M167.9,56.1l0.2-1.4 M135.9,37.5
			l-0.1,0.1 M135.9,37.5l0.2-1.3 M121.3,40.1l0.3,0.2l0.3,0.2 M109,180l0.9-1.1 M109.8,178.8v0.1 M109.8,178.7l0.6-0.6 M123.8,188.7
			L123.8,188.7 M110.3,178l0.4,0.2 M122.4,190.6l1.4-1.9 M155.4,207l-1.4,1.9 M99.1,148.9L99.1,148.9L99.1,148.9 M102.2,141.2
			l1.2,1.2l0.1,0.1l0.1,0.1l2.3,1.4h0.1l0,0v0.1v0.1l0,0l0,0v1.2v0.1v0.1v0.1v0.1v0.1l0,0v0.1l-0.1,0.1l0,0h-0.1l-0.1,0.1v0.1h-0.1
			h-0.1l-0.1,0.1l-0.1,0.1l-0.1,0.1l-0.1,0.1l-0.7,0.4h-0.2h-0.1H104h-0.1l-0.2,0.1l-0.1,0.1l-0.1,0.1l-0.1,0.1l-0.1,0.1l0,0
			l-0.8,0.4h-0.1h-0.1h-0.1l-0.1,0.1l-0.2,0.1l-0.2,0.1l-0.2,0.2l-0.2,0.2l0,0l0,0l0,0l0,0h-0.1l0,0l-1.1-0.6l-0.6,0.4l0,0l0,0l0,0
			l0,0l0,0l0,0h-0.1l0,0l0,0l0,0h-0.1l0,0l0,0l0,0 M113.3,60l2.1,1.2h0.1l0.4-0.1h0.1l0.9-0.4h0.1h0.1h0.1h0.1h0.1l0.1,0.1
			 M112.8,65.5l1.5,0.2 M116,65.2l0.1-0.7l0.1-0.4l0.1-0.8v-0.2l-0.1-0.1l0,0l-1.1-0.6 M111.8,63.4l2.1,1.2h0.1l0.1-0.1l0.1-0.1
			l0.7-0.4 M112.8,65.5l-0.6-0.3 M118.2,60.8l-0.6-0.8l-0.1-0.2l-0.1-0.1l-0.1-0.1l-0.1-0.1l-0.1-0.1l-0.1-0.1l-0.3-0.6v-0.6v-0.2
			l-0.1-0.1l-0.1-0.1l-0.1-0.1l-0.2-0.1L115,57h-0.1l0,0h-0.1h-0.1l0,0h-0.1l0,0l0,0l0,0l0,0 M111.6,64v0.2l0.7,2l0.1,0.1l0.1,0.1
			l0.3,0.2h0.1l0,0h0.2h0.1l0,0l0,0h0.1l0,0l0.9-0.5l0.2-0.2l0,0l0.7,0.1l0.2,0.1l0.1-0.1h0.3l0.1,0.1l0,0h0.1h0.1h0.1l0,0l1.7-1
			v-0.7l0,0l0,0l0,0l0,0l0,0l0,0v-0.3l0,0l0,0l0,0l0,0l0,0l0,0l0,0l0,0l0,0l0,0V64l0,0l0,0l0,0v-0.1l0,0l0,0l0,0l0,0l0,0v-0.7
			l-0.1-0.2v-0.2v-0.2v-0.1l0.1-0.1v-0.7"/>
		<path class="st1" d="M103.5,100.9L103.5,100.9l-0.2,0.2l-0.1,0.1l-0.1,0.1l-0.1,0.1l-0.1,0.1h-0.1h-0.1l0,0h-0.1l0,0l0,0l0,0h-0.1
			l0,0h-0.1l0,0h-0.1h-0.2l-0.1,0.1l-0.2,0.1l-0.1,0.1l-0.2,0.1l-0.1,0.2l0,0l0,0l0,0l0,0l0,0l0,0l0,0l0,0l0,0l0,0l0,0l0,0l0,0l0,0
			l0,0l0,0l0,0l0,0l0,0l0,0l0,0l0,0l0,0l0,0l0,0h-0.1l0,0h-0.1l0,0l0,0l0,0l0,0l0,0l0,0l0,0 M101.9,97.4l0.2,0.2l0.2,0.1l0,0l0,0
			l0,0l0,0l0,0l0,0l0,0l0,0l0,0 M103,98.9L103,98.9 M103.8,101.1L103.8,101.1L103.8,101.1L103.8,101.1L103.8,101.1L103.8,101.1
			L103.8,101.1L103.8,101.1L103.8,101.1L103.8,101.1L103.8,101.1L103.8,101.1h0.2l0,0h0.1l0,0h0.1l0,0l0,0l0,0l0,0l0,0l0,0h0.1l0,0
			l0,0l0,0l0,0l0,0l0,0l0,0l0,0l0,0l0,0l0,0l0,0l0,0l0,0l0,0l0,0l0,0l0,0l0,0V101l0,0v-0.4l0,0v-0.1l0,0V100l0,0l0,0l0,0l0,0l0,0
			l0,0l0,0l0,0l0,0l0,0l0,0l0,0l0,0l0,0l0,0l0,0l0,0l0,0l0,0l0,0l0,0l0,0l0,0l0,0l0,0l0,0l0,0l0,0l0,0l0,0l0,0l0,0l0,0l0,0l0,0l0,0
			l0,0l0,0l0,0l0,0l0,0l0,0l0,0l0,0l0,0l0,0l0,0l0,0l0,0l0,0l0,0l0,0l0,0l0,0l0,0l0,0 M104,100.3L104,100.3L104,100.3L104,100.3
			L104,100.3L104,100.3L104,100.3L104,100.3L104,100.3L104,100.3L104,100.3L104,100.3L104,100.3l0.1-0.3l0,0l0,0l0,0l0,0l0,0l0,0
			l0,0l0,0l0,0l0,0l0,0l0,0l0,0l0,0l0,0l0,0l0,0l0,0l0,0l0,0l0,0l0,0l0,0l0,0l0,0l0,0l0,0l0,0l0,0l0,0l0,0H104l0,0l0,0 M104.3,95.4
			L104.3,95.4L104.3,95.4l0.1,0.2v0.1V96v0.1v0.1v0.1v0.1l-0.1,0.2v0.1v0.1l-0.1,0.2l-0.1,0.1V97v0.1v0.1l0,0v0.1v0.1l0.1,0.1
			l0.1,0.2l0.1,0.1l0,0l0,0v0.1l0,0V98l0,0v0.1 M105.3,100.7L105.3,100.7L105.3,100.7L105.3,100.7L105.3,100.7L105.3,100.7
			L105.3,100.7L105.3,100.7L105.3,100.7L105.3,100.7L105.3,100.7L105.3,100.7L105.3,100.7L105.3,100.7L105.3,100.7L105.3,100.7
			L105.3,100.7L105.3,100.7L105.3,100.7L105.3,100.7L105.3,100.7L105.3,100.7L105.3,100.7L105.3,100.7L105.3,100.7L105.3,100.7
			L105.3,100.7L105.3,100.7l0.1-0.2l0,0v-0.1l0,0v-0.3V100l-0.1-0.2v-0.2l-0.1-0.1l-0.1-0.2l-0.1-0.1l-0.1-0.1l-0.1-0.1l-0.1-0.1
			l0,0l0,0l0,0l0,0l0,0l0,0l0,0l0,0l0,0 M103.1,98.3v-0.2L103,98l-0.1-0.1 M103.2,96.9L103.2,96.9v0.2v0.1v0.1v0.1v0.1l0.1,0.2
			 M100.3,102.1L100.3,102.1l-0.1-0.2v-0.1v-0.1v-0.2v-0.1v-0.1l0.1-0.3l0.1-0.3l0.1-0.3l0.1-0.3l0.1-0.3l0.1-0.3l0.1-0.3l0.1-0.3
			v-0.3l0.1-0.3V98v-0.3v-0.3v-0.3v-0.3v-0.3 M104,95.2L104,95.2L104,95.2L104,95.2L104,95.2h-0.2l0,0l0,0l0,0l0,0l0,0l0,0h-0.1l0,0
			l0,0l0,0 M102.6,95.6h0.3l0,0h0.1h0.1l0,0l0,0h0.1h0.1h0.1l0,0h0.1h0.1 M102.2,95.3L102.2,95.3L102.2,95.3L102.2,95.3L102.2,95.3
			H102h-0.1h-0.1l-0.1,0.1l-0.1,0.1l-0.1,0.1l-0.1,0.1l-0.1,0.1l-0.1,0.1V96l-0.1,0.1l-0.1,0.1v0.1v0.1v0.1 M105.3,100.7l-0.9,0.4
			 M103.1,98.3l-0.2,2.2l0.9,0.5 M103.1,98.3l0.9,0.5 M102.6,97.9l0.2,0.1 M103.3,97.6l1.5,0.9 M102.2,95.3l0.4,0.2 M104.3,95.4
			l-0.4-0.2 M100.7,102.3l-0.4-0.2 M103.1,87.3l-0.4,1.3l-0.3,1.1l-0.3,1.1l-0.2,0.9l-0.2,1l-0.2,1l-0.2,1l-0.2,1l-0.2,1.1l-0.2,1.1
			l-0.2,1l-0.2,1.1l-0.2,1l-0.2,1l-0.2,1l-0.2,1l-0.2,1.1l-0.2,1l-0.2,1.1l-0.2,1.1l-0.2,1.1l-0.1,1l-0.1,1l-0.1,1l-0.1,1l-0.1,1.1
			l-0.1,1.1l-0.1,1.1l-0.1,0.6 M109.5,76.3L109.5,76.3 M106.6,85.7l-0.3,1.1v0.1V87v0.1v0.1v0.1l-0.1,0.2v0.1v0.1v0.1V88v0.1v0.1
			v0.2v0.1v0.1v0.1v0.1v0.1l-0.1,0.1v0.1v0.1v0.1v0.1v0.1v0.1v0.2l-0.1,0.3v0.1v0.1v0.1v0.1v0.1v0.1v0.1l-0.1,0.1V91v0.1v0.1v0.1
			v0.1v0.2v0.1v0.1v0.1v0.2v0.1v0.1v0.1v0.1v0.1v0.1v0.1v0.1V93v0.1v0.1v0.1v0.1v0.1v0.1v0.2v0.1V94 M103,101.4v0.2v0.1v0.2v0.2v0.2
			v0.2v0.2v0.2v0.2v0.1v0.2v0.2v0.2v0.2v0.2v0.2v0.2v0.2v0.1v0.1v0.2v0.2v0.2v0.2v0.2v0.2v0.2v0.1v0.2v0.2v0.2v0.2v0.2v0.2v0.2v0.2
			v0.2v0.1v0.2v0.1v0.2v0.2v0.2v0.2v0.2v0.1v0.1v0.2v0.2v0.2v0.1v0.2v0.2v0.2v0.2v0.2v0.2v0.1v0.2v0.2v0.2v0.2v0.2v0.2v0.1v0.2v0.2
			v0.2v0.2v0.2v0.2v0.2v0.3v0.2v0.2v0.2v0.2v0.1v0.2v0.2v0.1v0.2v0.2v0.2v0.2v0.2v0.2v0.2v0.2v0.1v0.1v0.2v0.2v0.2v0.2 M104.5,117.6
			c-0.5,2.9-0.8,5.9-0.9,8.9 M98.9,134.6c0.6,0.3,1.3,0.5,2,0.5c0.1,0,0.2,0,0.3,0 M92.6,117.6c2.5,0.6,5.1,0.9,7.7,0.9
			c1,0,2,0,3-0.1 M102.1,117.7L102.1,117.7L102.1,117.7v0.2h0.1l0.1,0.1h0.1h0.1l0.1,0.1h0.1h0.1h0.1h0.1h0.1h0.1h0.2h0.1h0.1h0.1
			h0.1l0.2-0.1l0.1-0.1h0.1h0.1h0.1l0,0l0.1-0.1v-0.1v-0.1v-0.1v-0.1v-0.1l0,0v-0.1l0,0h-0.1v-0.1h-0.1l-0.1-0.1h-0.1H104h-0.1h-0.1
			h-0.1h-0.1h-0.1h-0.2h-0.1H103h-0.1h-0.1h-0.1l-0.1,0.1h-0.1l-0.1,0.1h-0.1l-0.1,0.1h-0.1v0.1v0.1L102.1,117.7L102.1,117.7
			L102.1,117.7 M98.5,135.2c0.3,0,0.5,0.1,0.8,0.1c0.5,0,0.9-0.1,1.3-0.2 M99.7,126.9l2.5,0.1 M98.4,136.4l2.7,0.1 M92.8,116.2
			c2.5,0.6,5.1,0.8,7.6,0.8c1,0,2,0,3-0.1 M92.5,142.8c2.6,0.5,5.3,0.8,8,0.8 M101.8,141.4c0,0.5,0,1,0,1.5 M102.2,135.7
			c-0.3,1.9-0.4,3.8-0.4,5.6 M99.8,135.9L99.8,135.9v0.1v0.1l0,0h0.1l0.1,0.1l0.1,0.1h0.1h0.1l0.1,0.1h0.1h0.1h0.1h0.4h0.1h0.1h0.1
			h0.1h0.1h0.1h0.1h0.1h0.1l0.1-0.1h0.1v-0.1v-0.1V136v-0.1v-0.1v-0.1l0,0v-0.1l-0.1-0.1l0,0l-0.1-0.1h-0.1h-0.1h-0.1h-0.1h-0.1
			h-0.1h-0.2h-0.1H101h-0.1h-0.1h-0.1h-0.1h-0.1h-0.1l-0.1,0.1h-0.1l-0.1,0.1l-0.1,0.1l-0.1,0.1v0.1v0.1L99.8,135.9L99.8,135.9
			 M102.2,127.1h0.2h0.1h0.1h0.1h0.1l0.1-0.1h0.1h0.1h0.1l0.1-0.1l0.1-0.1l0.1-0.1l0.1-0.1v-0.1v-0.1v-0.1 M100.5,143.6L100.5,143.6
			h0.2h0.1h0.1h0.1h0.1h0.1h0.1h0.1h0.1l0.1-0.1l0.1-0.1h0.1l0.1-0.1l0.1-0.1v-0.1l0,0 M99.7,126.9l-0.5,4.8l-0.1,0.7l-0.1,0.7v0.9
			l-0.1,0.7 M102.3,87.3l-0.4,1.3l-0.3,1.1l-0.3,1l-0.2,0.9l-0.2,1l-0.2,1l-0.2,1l-0.2,1l-0.2,1l-0.2,1.1l-0.2,1l-0.2,1.1l-0.2,0.9
			l-0.2,1l-0.2,1l-0.2,1l-0.2,1l-0.2,1.1L98,107l-0.2,1.1l-0.2,1.1l-0.1,1l-0.1,1l-0.1,1l-0.1,1l-0.1,1.1l-0.1,1l-0.1,1.1l-0.1,0.6
			 M110.6,170L110.6,170v-0.1l0,0h-0.1l0,0l0,0 M103.2,151.3L103.2,151.3v-0.1l0,0v-0.1l0,0h-0.1 M111.5,71.3L111.5,71.3L111.5,71.3
			L111.5,71.3L111.5,71.3L111.5,71.3l0.1-0.3l0,0l0,0l0,0v-0.1l0,0l0,0l0,0v-0.1l0,0l0,0l0,0l0,0l0,0 M110.3,70.2L110.3,70.2
			L110.3,70.2l0.1,0.2l0,0h0.1l0,0 M110.3,70.2L110.3,70.2L110.3,70.2l-0.1-0.2h-0.1H110h-0.1 M146,154.8v-0.9l0.1-1.1l0.1-1.3
			l0.1-1.5l0.1-1.6l0.1-1.6l0.2-1.6l0.1-1.5l0.2-1.3 M163.7,84.4l0.5-1.2l0.6-1.3l0.6-1.4l0.7-1.4l0.7-1.5l0.8-1.5l0.8-1.5l0.8-1.5
			l0.8-1.5 M122.3,42.6L122.3,42.6L122.3,42.6L122.3,42.6l-0.2-0.1H122 M122.3,42.6L122.3,42.6L122.3,42.6L122.3,42.6L122.3,42.6
			L122.3,42.6L122.3,42.6L122.3,42.6L122.3,42.6L122.3,42.6L122.3,42.6L122.3,42.6 M123.8,43.8L123.8,43.8L123.8,43.8L123.8,43.8
			L123.8,43.8L123.8,43.8L123.8,43.8L123.8,43.8v-0.2l0,0l0,0v-0.2v-0.1l0,0l0,0l0,0v-0.1l0,0v-0.1l0,0l0,0h-0.1h-0.1 M160.4,92.1
			l0.2-0.7l0.2-0.7l0.3-0.7l0.3-0.7l0.3-0.7l0.3-0.7l0.3-0.7l0.3-0.7l0.4-0.7 M120.9,179.5L120.9,179.5L120.9,179.5L120.9,179.5
			h-0.2h-0.1h-0.1h-0.2h-0.1h-0.1l0,0H120h-0.1l-0.1,0.1l-0.2,0.2l-0.3,0.3l-0.2,0.2l-0.2,0.1h-0.1h-0.1h-0.1h-0.1h-0.1l0,0l0,0l0,0
			h-0.1h-0.1h-0.1H118h-0.1h-0.1h-0.1h-0.1l0,0l0,0h-0.1h-0.1 M99.8,170.8l-0.9-2.9 M102.2,175.5L102.2,175.5L102.2,175.5l0.1-0.1
			v-0.1l0,0v-0.1l0,0v-0.1l0,0V175v-0.2l0,0v-0.1l0,0v-0.1l0,0v-0.1l0,0v-0.1l0,0l0,0v-0.1l0,0v-0.1l0,0l0,0l0,0h-0.1 M101.2,176
			L101.2,176L101.2,176L101.2,176l0.2-0.1l0,0v-0.1l0,0l0,0v-0.1l0,0v-0.1l0,0v-0.2l0,0v-0.1v-0.1v-0.1l0,0l0,0V175l0,0v-0.1l0,0
			l0,0h-0.1l0,0l0,0l-0.1-0.1v-0.1 M97.5,174.7L97.5,174.7l0.1-0.1l0.1-0.1l0.1-0.1v-0.1l0.1-0.1v-0.1L98,174l0.1-0.1v-0.1L98,174
			l0.1-0.1v-0.1l0.1-0.1v-0.1v-0.1v-0.1v-0.1v-0.1v-0.1l0.1-0.1v-0.1v-0.1v-0.1v-0.1v-0.1v-0.1v-0.1v-0.1v-0.1V172v-0.1 M98.3,175.1
			L98.3,175.1l0.1-0.1l0.1-0.1l0.1-0.1l0.1-0.1h0.1l0.1-0.1v-0.1l0.1-0.1v-0.1v-0.1v-0.1l0,0V174v-0.1v-0.1v-0.1v-0.1l0.1-0.1v-0.1
			v-0.1v-0.1v-0.1V173v-0.1v-0.1v-0.1v-0.1v-0.1l0,0v-0.1 M99.5,176L99.5,176L99.5,176L99.5,176l-0.1-0.1l0,0l0,0h-0.1l0,0l0,0l0,0
			l0,0h-0.1h-0.1l0,0l0,0H99l0,0l0,0l0,0l0,0l0,0l0,0l0,0l0,0l0,0l0,0l0,0l0,0h-0.1l0,0 M96.8,173.5L96.8,173.5L96.8,173.5
			L96.8,173.5l0.1-0.1l0,0v-0.1l0,0l0,0l0,0l0,0l0,0l0,0l0,0l0,0l0,0 M97.7,172.3L97.7,172.3L97.7,172.3L97.7,172.3L97.7,172.3
			l-0.2,0.1h-0.1h-0.1l0,0l0,0v0.1l0,0l-0.1,0.1h-0.1v0.1v0.1l0,0l0,0v0.1 M97.3,174.9l0.2-0.2 M101.3,176l0.9-0.5 M102,174.1
			l-2.2-2.5l-0.4-0.2 M99,172l-0.1-0.1 M99,176.6l-0.2-0.1 M101.2,176l-2.2,0.6 M101.2,174.5L99,172 M97.9,176.9l0.6-0.7
			 M97.6,175.9l0.7-0.8 M98.8,176.5l-0.2,0.1 M98,177.2l0.5-0.6 M99.4,171.3l-1.7,1 M110,172.5l-0.1-0.1l-0.1-0.1l-0.1-0.1h-0.1
			l-0.1-0.1l-0.1-0.1 M111.1,171.7L111.1,171.7L111.1,171.7l0.1,0.1l0,0v0.1l0,0l0,0l0,0v0.1h0.1l0,0l0,0l0,0l0,0h0.1l0,0
			 M110.3,174.9L110.3,174.9L110.3,174.9L110.3,174.9L110.3,174.9L110.3,174.9l-0.1-0.1l0,0l0,0 M110.3,175L110.3,175L110.3,175
			L110.3,175l-0.1-0.1l0,0 M110.4,172.9v-0.1l0,0l0,0l0,0l0,0l0,0l0,0l0,0l0,0l0,0 M109.9,174.6L109.9,174.6L109.9,174.6
			L109.9,174.6L109.9,174.6L109.9,174.6h-0.2l0,0h-0.1l0,0l0,0h-0.1l0,0h-0.1l0,0l0,0h-0.1l0,0 M108.5,176L108.5,176v0.2l0,0l0,0
			l0,0l0,0l0,0l0,0l0,0l0,0l0,0l0,0l0,0 M108.5,175.9v-0.1v-0.1v-0.1v-0.1v-0.1v-0.1v-0.1v-0.1V175v-0.1v-0.1v-0.1v-0.1v-0.1v-0.1
			v-0.1v-0.1l-0.1-0.1V174v-0.1l-0.1-0.1l-0.1-0.1v-0.1l-0.1-0.1l-0.1-0.1l-0.1-0.1l-0.1-0.1v-0.1l-0.1-0.1l-0.1-0.1l-0.1-0.1
			l-0.1-0.1 M108.2,171.1L108.2,171.1L108.2,171.1H108l0,0h-0.1h-0.1l-0.1,0.1l0,0h-0.1v0.1l0,0v0.1l0,0v0.1l0,0v0.1l0,0v0.1l0,0
			v0.1v0.1l0,0v0.1v0.2v0.1v0.1v0.1v0.1l0,0 M108.2,171.1L108.2,171.1L108.2,171.1l0.1-0.1h0.1l0,0l0,0l0,0l0,0l0,0l0,0l0,0l0,0l0,0
			l0,0l0,0l0,0l0,0l0,0v-0.1v-0.1v-0.1v-0.1l0.1-0.1v-0.1v-0.1 M110,169.6L110,169.6L110,169.6L110,169.6h-0.2l0,0h-0.1l0,0h-0.1
			l0,0l0,0l0,0h-0.1l0,0l0,0l0,0l0,0l0,0v0.1l0,0l0,0v0.1l0,0l0,0v0.1l0,0l0,0l0,0l0,0l0,0l0,0l0,0 M112.8,175.1L112.8,175.1
			l0.2-0.2l0.1-0.1v-0.1v-0.1v-0.1v-0.1V174v-0.1v-0.1v-0.1v-0.1v-0.1v-0.1v-0.1l-0.1-0.1v-0.1l0,0l-0.1-0.1l-0.1-0.1l-0.1-0.1
			l-0.1-0.1l-0.1-0.1l-0.1-0.1h-0.1h-0.1l-0.1-0.1 M111.3,175.5L111.3,175.5h0.2h0.1h0.2h0.1l0.1-0.1l0.1-0.1h0.1v-0.1l0.1-0.1V175
			v-0.1v-0.3v-0.1v-0.1v-0.1v-0.1l-0.1-0.1l-0.1-0.1v-0.1l-0.1-0.1l-0.1-0.1l-0.1-0.1v-0.1l-0.1-0.1l-0.1-0.1l-0.1-0.1h-0.1
			l-0.1-0.1 M111.1,174.6L111.1,174.6v-0.2l0,0v-0.1v-0.1l0,0l0.1-0.1h0.1h0.1h0.1l0.1,0.1h0.1l0,0l0.1,0.1v0.1v0.1v0.1v0.1v0.1v0.1
			v0.1h-0.1h-0.1h-0.1h-0.1h-0.1h-0.1v-0.1L111.1,174.6L111.1,174.6 M110.5,171.4L110.5,171.4L110.5,171.4v0.4l0,0l0,0l0,0l0,0l0,0
			l0,0v0.1l0,0l0,0 M111.5,172.5L111.5,172.5L111.5,172.5L111.5,172.5L111.5,172.5L111.5,172.5L111.5,172.5L111.5,172.5l0.1-0.1l0,0
			l0,0l0,0l0,0l0,0 M109.1,176.6L109.1,176.6L109.1,176.6h0.3h0.1h0.1h0.1h0.1h0.1l0,0v-0.1l0,0h0.1v-0.1l0,0v-0.1l0,0l0,0v-0.1
			v-0.1V176v-0.1l0,0 M110.4,175.1L110.4,175.1L110.4,175.1l-0.1,0.1l0,0l0,0v0.1l0,0l0,0v0.1l0,0v0.1l0,0l0,0l0,0v0.1 M110.4,172.9
			l-0.1,2.2 M109.9,174.6l0.2,0.1 M110.3,175.1l0.9,0.5 M110,172.5l0.2,0.1 M110.4,172.9l1,0.5 M111.6,172.3l0.1,0.3 M110.6,172.1
			l1.6,0.8 M110.4,169.7l-0.4-0.2 M109.1,176.6l-0.4-0.2 M111.9,175.6l0.9-0.5 M110.6,170l0.6,1.7 M171.9,67.6
			c0.6-1.2,1-2.5,1.3-3.8 M109.5,168.9l-0.3-0.5l-1.6-3.4 M102.9,175.8l0.1,0.2l0.1,0.8v0.8 M146.8,175.8l-0.2-1.2l-0.1-1.2
			l-0.1-1.2 M98.8,147.7l1.3,0.8 M102.8,145.3L102.8,145.3L102.8,145.3l-0.1-0.1h-0.1h-0.1h-0.1l-0.1-0.1l-0.1-0.1h-0.1l-0.1-0.1
			l-0.1-0.1l-0.1-0.1l-0.1-0.1l-0.1-0.1h-0.1l-0.1-0.1l-0.7-0.9 M104.7,144.2L104.7,144.2L104.7,144.2l-0.1-0.1l0,0l0,0l0,0h-0.1
			l-0.1-0.1h-0.1l-0.1-0.1l-0.1-0.1l-0.1-0.1h-0.1l-0.1-0.1l-0.1-0.1l-0.1-0.1l-0.1-0.1l-0.1-0.1l-1.4-1.8 M98.4,145.1l2.6,1.5l0,0
			h0.5l4-2.3 M146,154.8l-0.1,4.5l0.1,5.7 M99.7,128.2L99.7,128.2 M101.4,128.2v0.2l0,0 M100.1,128.6L100.1,128.6L100.1,128.6v-0.1
			l0,0l0,0l0,0l0,0l0,0l0,0l0,0l0,0l0,0 M99.9,130.8L99.9,130.8l-0.1,0.1l-0.1,0.1h-0.1v0.1h-0.1l-0.1,0.1l-0.1,0.1v0.1l-0.1,0.1
			l-0.1,0.1l0,0l0,0v0.1v0.1"/>
		<polyline class="st1" points="65.7,16.4 63.6,20.3 61.5,24.7 59.5,28.7 57.5,33.1 55.7,37.2 53.9,41.6 52.3,45.8 50.6,50.3 
			49.2,54.6 47.8,59.2 46.5,63.4 45.3,68.1 44.2,72.5 43.2,77.2 42.4,81.6 41.6,86.3 41,90.8 40.5,95.6 40.2,100 40,104.8 40,106.4 
			39.9,108.1 40,111 40.1,114.1 40.4,118.6 40.9,123.4 41.6,127.8 42.5,132.5 43.6,136.9 45.1,141.5 46.7,145.6 48.7,150 
			50.8,153.9 53.5,158 		"/>
		<polyline class="st1" points="92.2,128.6 92.3,126.8 92.3,125 92.3,123.4 92.4,121.8 92.4,120.3 92.5,119 92.6,117.9 92.7,117 
			92.7,116.3 		"/>
		<polyline class="st1" points="94.5,104.5 94.3,105.2 94.2,106.1 94.1,106.8 93.9,107.6 93.8,108.4 93.7,109.2 93.6,109.9 
			93.4,110.8 93.3,111.5 93.2,112.3 93.1,113.1 93,113.9 92.9,114.7 92.8,115.5 92.7,116.2 92.7,116.3 		"/>
		<polyline class="st1" points="92.5,142.8 92.4,142.2 92.4,141.6 92.3,140.9 92.3,140.2 92.3,139.4 92.3,138.5 92.3,137.6 
			92.2,136.7 92.2,135.7 		"/>
	</g>
	<g>
		<polyline class="st15" points="59,97.6 58.9,97.7 58.8,97.7 58.7,97.8 58.6,97.9 58.5,98 		"/>
		<path class="st15" d="M58.4,104.6c0.2,0.4,0.4,0.8,0.6,1.2c1.9,3.4,5,5.2,6.9,4c0.2-0.1,0.5-0.3,0.5-0.3"/>
		<polyline class="st15" points="66,101.6 65.4,100.7 64.8,99.9 64,99.1 63.3,98.5 62.5,97.9 61.7,97.6 61,97.4 60.3,97.3 
			59.6,97.4 59,97.6 		"/>
		<path class="st15" d="M56.3,97.3c1,0.6,1.9,0.9,2.3,0.7"/>
		<path class="st15" d="M69.1,110.1c-0.9-0.5-2.1-0.9-2.7-0.6"/>
		<polyline class="st15" points="75,113.4 75.2,113.5 75.4,113.6 75.6,113.6 75.8,113.6 76,113.6 76.2,113.5 76.3,113.4 76.5,113.3 
			76.6,113.2 76.7,113 76.8,112.8 76.9,112.6 76.9,112.4 76.9,112.1 76.9,111.9 76.9,111.6 76.9,111.3 76.8,111 76.7,110.8 
			76.6,110.5 76.4,109.9 76.2,109.6 76.1,109.4 75.9,109.1 75.7,108.8 75.5,108.6 75.3,108.4 75.1,108.2 74.8,108.1 74.6,107.9 
			74.6,107.9 		"/>
		<polyline class="st15" points="50.4,94 50.2,93.9 50,93.8 49.8,93.8 49.5,93.8 49.4,93.8 49.2,93.8 49,93.9 48.8,94 48.7,94.1 
			48.6,94.3 48.5,94.4 48.4,94.6 48.4,94.9 48.3,95.1 48.3,95.6 48.3,95.9 48.4,96.2 48.5,96.4 48.5,96.7 48.8,97.3 48.9,97.6 
			49.1,97.9 49.3,98.1 49.4,98.4 49.7,98.6 49.9,98.8 50.1,99 50.3,99.2 50.5,99.4 50.7,99.5 		"/>
		<line class="st15" x1="74.7" y1="108" x2="69.1" y2="104.7"/>
		<line class="st15" x1="56.3" y1="97.3" x2="50.4" y2="94"/>
		<path class="st15" d="M66,101.6c0.5,1.1,1.6,2.3,3.1,3.1"/>
		<path class="st15" d="M58.4,104.6c-0.3-0.7-1-1.4-2.1-1.9"/>
		<line class="st15" x1="75" y1="113.5" x2="69.1" y2="110.1"/>
		<line class="st15" x1="56.3" y1="102.7" x2="50.7" y2="99.5"/>
		<line class="st15" x1="77.3" y1="103.5" x2="71.7" y2="100.3"/>
		<line class="st15" x1="77.3" y1="106.3" x2="77.3" y2="103.5"/>
		<line class="st15" x1="71.7" y1="103.2" x2="71.7" y2="100.3"/>
		<line class="st15" x1="58.5" y1="95.6" x2="58.5" y2="92.6"/>
		<line class="st15" x1="53" y1="92.3" x2="53" y2="89.5"/>
		<line class="st15" x1="58.5" y1="92.6" x2="53" y2="89.5"/>
		<line class="st15" x1="77.4" y1="106.4" x2="71.7" y2="103.2"/>
		<line class="st15" x1="59" y1="95.8" x2="53.1" y2="92.4"/>
		<polyline class="st15" points="68.7,100.1 69,100.5 69.2,100.7 69.2,100.9 69.4,101 69.5,101.1 69.6,101.2 69.7,101.4 69.8,101.5 
			69.9,101.6 70,101.7 70.2,102 70.5,102.2 70.7,102.4 70.8,102.5 71,102.6 71.1,102.7 71.2,102.8 71.4,102.9 71.5,103 71.6,103.1 
			71.8,103.2 		"/>
	</g>
	<path class="st1" d="M71.7,103.2c-4.2-3.1-5.1-9.2-10.5-6.8"/>
	<path class="st15" d="M61.2,96.4c-0.8,0.2-1.4-0.2-2.2-0.7"/>
	<path class="st15" d="M53.1,92.4c-0.9-0.5-2-0.4-2.3,1.4"/>
	<path class="st15" d="M77.3,106.3c2.8,1.8,3.2,6.4,0.3,5.6"/>
	
		<ellipse transform="matrix(0.9965 -8.309484e-02 8.309484e-02 0.9965 -6.5401 6.049)" class="st16" cx="69.4" cy="81.6" rx="5.3" ry="6.9"/>
	<path class="st1" d="M68.1,75.6c-1.1,1.4-1.8,2.7-1.7,4.1"/>
	<path class="st1" d="M68.4,86c0.4,0.7,1.1,1.3,2.1,1.9"/>
	<line class="st1" x1="71.9" y1="78.6" x2="69.7" y2="80.1"/>
	<line class="st1" x1="68.6" y1="80.8" x2="67.6" y2="81.5"/>
	<line class="st1" x1="73.2" y1="81.4" x2="70.9" y2="83"/>
	<line class="st1" x1="69.9" y1="83.7" x2="68.9" y2="84.3"/>
	<polyline class="st1" points="73.2,79.6 71.9,80.5 67.9,83.2 	"/>
</g>
<path class="st0" d="M263.9,409.2h-117c-2.2,0-4.1-1.8-4.1-4.1v-24.7c0-2.2,1.8-4.1,4.1-4.1h117c2.2,0,4.1,1.8,4.1,4.1v24.7
	C268,407.4,266.1,409.2,263.9,409.2z"/>
<g>
	<text transform="matrix(1 0 0 1 149.2492 389.7833)" class="st7 st8 st9">Latch arm assembly</text>
	<text transform="matrix(1 0 0 1 156.4992 403.2832)" class="st10"><tspan x="0" y="0" class="st7 st8 st9">position is</tspan><tspan x="60" y="0" class="st11 st8 st9"> 90° up</tspan></text>
</g>
<path class="st0" d="M253.7,314.2h-78c-2.2,0-4.1-1.8-4.1-4.1v-24.7c0-2.2,1.8-4.1,4.1-4.1h78c2.2,0,4.1,1.8,4.1,4.1v24.7
	C257.8,312.4,255.9,314.2,253.7,314.2z"/>
<g>
	<text transform="matrix(1 0 0 1 179.4731 293.9874)" class="st7 st8 st9">Interloc cam </text>
	<text transform="matrix(1 0 0 1 179.4731 307.4874)" class="st7 st8 st9">assambly</text>
</g>
<g>
	<path class="st13" d="M109.4,272.7l0.4-4.1c0.1-0.7-0.7-1.1-1.2-0.5L98.7,279c-0.3,0.3-0.4,0.9-0.1,1.2l7.9,9.7
		c0.4,0.5,1.2,0.1,1.3-0.7l0.4-4.2c0-0.4,0.3-0.8,0.7-0.9c25.8-5.5,46.3-4.8,63.7,3.3c0,0,0,0,0.1,0l2.3,0.7l-2.9-2.5
		c0,0-0.1,0-0.1-0.1c-17.8-10.4-38.4-14.5-61.8-12.2C109.7,273.5,109.4,273.1,109.4,272.7z"/>
	<path id="Layer1_10_1_STROKES_1_" class="st17" d="M175.2,288.7l-3.2-3c0,0,0,0-0.1,0c-17.9-10.4-38.6-14.4-61.8-12.3
		c-0.4,0-0.7-0.3-0.6-0.8l0.4-4.1c0.1-0.7-0.7-1.1-1.2-0.5l-9.9,10.9c-0.3,0.3-0.4,0.9-0.1,1.2l7.9,9.7c0.4,0.5,1.2,0.1,1.3-0.7
		l0.4-4.2c0-0.4,0.3-0.8,0.7-0.9c25.8-5.5,47.3-4.2,64.7,3.8C175.2,288.7,175.2,288.7,175.2,288.7z"/>
</g>
<g>
	<path class="st13" d="M133,329.2l2.4-2.3c0.4-0.4,0.1-1-0.5-0.9l-11.8,1.5c-0.4,0-0.7,0.3-0.7,0.7l-0.2,10.1c0,0.5,0.7,0.7,1.1,0.3
		l2.4-2.3c0.2-0.2,0.6-0.3,0.9-0.2c18.8,10.1,31,21.3,37.5,35.4l0,0l1,1.6l-0.5-3V370c-5.5-15.7-16-29-31.7-39.9
		C132.8,329.9,132.8,329.5,133,329.2z"/>
	<path id="Layer1_10_1_STROKES_2_" class="st17" d="M165.2,373.5l-0.4-3.5c0,0,0,0,0-0.1c-5.6-15.8-16.2-29.1-31.6-39.9
		c-0.3-0.2-0.3-0.6,0-0.8l2.4-2.3c0.4-0.4,0.1-1-0.5-0.9l-11.8,1.5c-0.4,0-0.7,0.3-0.7,0.7l-0.2,10.1c0,0.5,0.7,0.7,1.1,0.3l2.4-2.3
		c0.2-0.2,0.6-0.3,0.9-0.2c18.8,10.1,31.3,22.1,37.8,36.2C165.2,373.5,165.2,373.5,165.2,373.5z"/>
</g>
<g>
	<path class="st13" d="M151.8,123.7C124.5,106.3,96.9,99,69,101.2h-0.1l-5,1.4l3.2,0.5h0.1c26,0.5,51.5,12.2,79.7,35
		c0.4,0.3,0.6,1,0.4,1.5l-2,5.5c-0.4,1,0.4,2,1.2,1.6l15.3-7.5c0.5-0.2,0.7-0.9,0.6-1.6l-5.7-20c-0.3-1-1.4-1.1-1.7-0.1l-1.9,5.4
		C152.8,123.8,152.2,124,151.8,123.7z"/>
	<path id="Layer1_10_1_STROKES_8_" class="st17" d="M65.6,103.1c26,0.5,53,12.1,81.2,34.9c0.4,0.3,0.6,1,0.4,1.5l-2,5.5
		c-0.4,1,0.4,2,1.2,1.6l15.3-7.5c0.5-0.2,0.7-0.9,0.6-1.6l-5.7-20c-0.3-1-1.4-1.1-1.7-0.1l-1.9,5.4c-0.2,0.6-0.8,0.9-1.2,0.6
		c-27.1-17-54.8-24.6-82.7-22.4H69l-5.6,1.8C63.2,103.1,63.2,103.1,65.6,103.1z"/>
</g>
<g>
	<path class="st18" d="M115.5,222.9c-1.2-20.8-7.2-39.2-17.5-55.2l-0.1-0.1l-2.3-2.6l0.9,2c0,0,0,0.1,0.1,0.1
		c8.5,15.6,11.8,33.9,10.8,56.6c0,0.3-0.3,0.6-0.6,0.6l-3.2,0.3c-0.6,0-0.8,0.7-0.4,1.1l8.6,7.2c0.3,0.2,0.7,0.2,0.9-0.1l7.2-8.6
		c0.4-0.4,0.1-1.1-0.5-1l-3.1,0.3C115.9,223.5,115.5,223.3,115.5,222.9z"/>
	<path id="Layer1_10_1_STROKES_3_" class="st17" d="M95.9,166.1c8.5,15.6,12.3,34.7,11.4,57.5c0,0.3-0.3,0.6-0.6,0.6l-3.2,0.3
		c-0.6,0-0.8,0.7-0.4,1.1l8.6,7.2c0.3,0.2,0.7,0.2,0.9-0.1l7.2-8.6c0.4-0.4,0.1-1.1-0.5-1l-3.1,0.3c-0.4,0-0.6-0.2-0.7-0.6
		c-1.4-20.6-7.2-39.1-17.6-55.2l-0.1-0.1l-2.7-2.9C95.2,164.7,95.2,164.7,95.9,166.1z"/>
</g>
<g>
	<path class="st13" d="M223.9,44.2l-14.7,12.6l14.7,29l3.9-1.9v-6.1l19,10.6l3.9-1.6V65.4l-22.9-13V42.3L223.9,44.2 M240.2,68.9
		l0.3,0.4l0.3,0.1l0.4,0.4l1,1.5l0.7,2.2v0.9l0.2,1.2l-0.2,0.9V77l-0.2,0.3v0.5l-0.1,0.4l-0.4,0.3l-0.1,0.4h-0.2l-0.4,0.1h-0.8
		l-1.5-0.7l-2.5-1.5v-9.9L240.2,68.9 M234,65.5l1.7,0.8l-2.2,8.7l-1.5-0.8l-1.2-8.4l-1.2,7.2l-1.5-0.8L226,60.9l1.6,0.9l1.3,7.9
		l1.1-6.5l1.7,1l1,7.7L234,65.5 M225.2,64.5v1.7l-3.3-1.9v4.3l-1.5-0.8V57.7l5.3,3v1.7l-3.8-2.2v2.4L225.2,64.5 M241,72l-0.3-0.7
		l-0.4-0.3l-0.1-0.2l-0.2-0.2l-1.9-1.2v6.5l1.7,1.1h0.8l0.5-0.5l0.2-0.6v-2.7L241,72z"/>
	<path id="Layer7_6_MEMBER_1_1_STROKES_2_" class="st19" d="M246.9,88.4V67.2l-22.9-13"/>
	<path id="Layer7_6_MEMBER_2_1_STROKES_2_" class="st20" d="M224,44.1l-14.7,12.6L224,85.8 M224,75.7l22.9,12.7l3.9-1.6"/>
	<path id="Layer7_6_MEMBER_3_1_STROKES_2_" class="st19" d="M224,54.2V44.1 M224,85.9V75.7"/>
	<path id="Layer7_6_MEMBER_4_1_STROKES_2_" class="st20" d="M250.8,86.7V65.3"/>
	<path id="Layer7_6_MEMBER_5_1_STROKES_2_" class="st19" d="M246.9,67.2l3.9-1.9"/>
	<path id="Layer7_6_MEMBER_6_1_STROKES_2_" class="st20" d="M227.9,52.3l22.9,13"/>
	<path id="Layer7_6_MEMBER_7_1_STROKES_2_" class="st19" d="M224,54.3l3.9-1.9"/>
	<path id="Layer7_6_MEMBER_8_1_STROKES_2_" class="st20" d="M224,44.2l3.9-1.9v10.1 M224,85.8l3.9-1.9v-6"/>
</g>
</svg>
