<?xml version="1.0" encoding="iso-8859-1"?>
<!-- Generator: Adobe Illustrator 24.3.0, SVG Export Plug-In . SVG Version: 6.00 Build 0)  -->
<svg version="1.1" id="Ebene_1" xmlns="http://www.w3.org/2000/svg" xmlns:xlink="http://www.w3.org/1999/xlink" x="0px" y="0px"
	 viewBox="0 0 42.5 28.3" style="enable-background:new 0 0 42.5 28.3;" xml:space="preserve">
<style type="text/css">
	.st0{fill:#686867;}
	.st1{fill:#707173;}
	.st2{fill:#333333;}
	.st3{fill:#3E3E40;}
	.st4{fill:#FFFFFF;}
	.st5{font-family:'ArialMT';}
	.st6{font-size:5.0941px;}
</style>
<g>
	<rect x="8.3" y="1.2" class="st0" width="26" height="26"/>
	<path d="M31.9,4.7H12v18.9h19.9V4.7z"/>
	<path class="st1" d="M28.8,5.5H14.9c-0.7,0-1.2,0.3-1.7,0.9c-0.5,0.5-0.7,1.3-0.7,2.1v12.1L31.2,8.5c0-0.8-0.3-1.6-0.7-2.1
		C30,5.8,29.5,5.5,28.8,5.5z"/>
	<path class="st2" d="M12.4,20.3c0,0.8,0.3,1.5,0.7,2c0.5,0.5,1.1,0.9,1.7,0.9h13.9c0.7,0,1.2-0.3,1.7-0.9c0.5-0.5,0.7-1.2,0.7-2
		V8.2L12.4,20.3z"/>
	<path class="st3" d="M30.3,8.7c0-0.8-0.3-1.3-0.7-1.9C29.2,6.3,28.7,6,28,6H15.3c-0.5,0-1.1,0.3-1.5,0.8s-0.7,1.1-0.7,1.9v11.1
		c0,0.8,0.3,1.5,0.7,1.9c0.4,0.5,0.9,0.8,1.5,0.8H28c0.7,0,1.2-0.3,1.6-0.8c0.4-0.5,0.7-1.2,0.7-1.9V8.7z"/>
	<text transform="matrix(1 0 0 1 16.8642 16.421)" class="st4 st5 st6">MCL</text>
</g>
</svg>
