<?xml version="1.0" encoding="utf-8"?>
<!-- Generator: Adobe Illustrator 25.0.0, SVG Export Plug-In . SVG Version: 6.00 Build 0)  -->
<svg version="1.1" id="Ebene_1" xmlns="http://www.w3.org/2000/svg" xmlns:xlink="http://www.w3.org/1999/xlink" x="0px" y="0px"
	 viewBox="0 0 470.9 215.9" style="enable-background:new 0 0 470.9 215.9;" xml:space="preserve">
<g id="clp-hintergrund">
	<path style="fill:#666666;" d="M459.7,212.7V15.5h-447v197.2H459.7z"/>
	<path d="M19.5,38.2c-2.8,2.8-4,6.2-4,9.6c0,4,1.1,6.8,3.4,9.1l19.3-19.3c-2.3-2.3-5.7-4-9.1-4C25.2,34.2,21.8,35.9,19.5,38.2
		L19.5,38.2z"/>
	<path style="fill:#999999;" d="M38.8,38.2C38.8,38.2,38.2,38.2,38.8,38.2L19.5,56.9l0.6,0.6c2.3,2.3,5.7,4,9.6,4s6.8-1.1,9.6-4
		c2.3-2.3,4-5.7,4-9.6C42.2,43.8,41,41,38.8,38.2L38.8,38.2z"/>
	<path style="fill:#666666;" d="M17.2,47.8c0,3.4,1.1,6.2,3.4,8.5s5.1,3.4,8.5,3.4s5.7-1.1,7.9-3.4c2.3-2.3,3.4-5.1,3.4-8.5
		s-1.1-5.7-3.4-8.5c-2.3-2.3-5.1-3.4-7.9-3.4c-3.4,0-6.2,1.1-8.5,3.4C18.4,41.6,17.2,44.4,17.2,47.8z"/>
	<path style="fill:#333333;" d="M39.9,49.5v-3.4H18.4v3.4H39.9z"/>
	<path d="M20.1,172.4c-2.8,2.8-4,6.2-4,9.6c0,4,1.1,6.8,3.4,9.1l19.3-19.3c-2.3-2.3-5.7-4-9.1-4C25.7,168.5,22.3,170.2,20.1,172.4
		L20.1,172.4z"/>
	<path style="fill:#999999;" d="M39.3,172.4C39.3,172.4,38.8,172.4,39.3,172.4L20,191.1l0.6,0.6c2.3,2.3,5.7,4,9.6,4s6.8-1.1,9.6-4
		c2.3-2.3,4-5.7,4-9.6C42.7,178.1,41.6,175.3,39.3,172.4L39.3,172.4z"/>
	<path style="fill:#666666;" d="M17.8,182.1c0,3.4,1.1,6.2,3.4,8.5s5.1,3.4,8.5,3.4s5.7-1.1,7.9-3.4c2.3-2.3,3.4-5.1,3.4-8.5
		s-1.1-5.7-3.4-8.5c-2.3-2.3-5.1-3.4-7.9-3.4c-3.4,0-6.2,1.1-8.5,3.4C18.9,175.8,17.8,178.7,17.8,182.1z"/>
	<path style="fill:#333333;" d="M40.5,183.8v-3.4H18.9v3.4H40.5z"/>
	<path d="M431.4,38.2c-2.8,2.8-4,6.2-4,9.6c0,4,1.1,6.8,3.4,9.1l19.3-19.3c-2.3-2.3-5.7-4-9.1-4C437.6,34.2,434.2,35.9,431.4,38.2
		L431.4,38.2z"/>
	<path style="fill:#999999;" d="M450.7,38.2l-19.3,18.7l0.6,0.6c2.3,2.3,5.7,4,9.6,4c4,0,6.8-1.1,9.6-4c2.3-2.3,4-5.7,4-9.6
		C454.6,43.8,453.5,41,450.7,38.2L450.7,38.2z"/>
	<path style="fill:#666666;" d="M429.7,47.8c0,3.4,1.1,6.2,3.4,8.5s5.1,3.4,8.5,3.4s5.7-1.1,7.9-3.4c2.3-2.3,3.4-5.1,3.4-8.5
		s-1.1-5.7-3.4-8.5c-2.3-2.3-5.1-3.4-7.9-3.4c-3.4,0-6.2,1.1-8.5,3.4C430.8,41.6,429.7,44.4,429.7,47.8z"/>
	<path style="fill:#333333;" d="M451.8,49.5v-3.4h-21.5v3.4H451.8z"/>
	<path d="M431.4,177c-2.8,2.8-4,6.2-4,9.6c0,4,1.1,6.8,3.4,9.1l19.3-19.3c-2.3-2.3-5.7-4-9.1-4C437.6,173,434.2,174.7,431.4,177
		L431.4,177z"/>
	<path style="fill:#999999;" d="M450.7,177l-19.3,18.7l0.6,0.6c2.3,2.3,5.7,4,9.6,4c4,0,6.8-1.1,9.6-4c2.3-2.3,4-5.7,4-9.6
		C454.6,182.6,453.5,179.8,450.7,177L450.7,177z"/>
	<path style="fill:#666666;" d="M429.7,186.6c0,3.4,1.1,6.2,3.4,8.5s5.1,3.4,8.5,3.4s5.7-1.1,7.9-3.4c2.3-2.3,3.4-5.1,3.4-8.5
		s-1.1-5.7-3.4-8.5c-2.3-2.3-5.1-3.4-7.9-3.4c-3.4,0-6.2,1.1-8.5,3.4C430.8,180.4,429.7,183.2,429.7,186.6z"/>
	<path style="fill:#333333;" d="M451.8,188.3v-3.4h-21.5v3.4H451.8z"/>
	
		<path id="panel_cpc_0_Layer0_0_MEMBER_44_MEMBER_0_1_STROKES" style="fill:none;stroke:#333333;stroke-width:0.75;stroke-linecap:round;stroke-linejoin:round;" d="
		M424.6,208.7v-26.6c0-8.5,4.5-12.5,12.5-12.5h16.4"/>
	
		<path id="panel_cpc_0_Layer0_0_MEMBER_44_MEMBER_1_1_STROKES" style="fill:none;stroke:#999999;stroke-width:0.75;stroke-linecap:round;stroke-linejoin:round;" d="
		M18.9,67.6h13.6C41,67.6,45,63.1,45,55.2V18.9"/>
	
		<path id="panel_cpc_0_Layer0_0_MEMBER_44_MEMBER_2_1_STROKES" style="fill:none;stroke:#333333;stroke-width:0.75;stroke-linecap:round;stroke-linejoin:round;" d="
		M424.6,18.3v36.3c0,8.5,4.5,12.5,12.5,12.5h16.4"/>
	
		<path id="panel_cpc_0_Layer0_0_MEMBER_44_MEMBER_3_1_STROKES" style="fill:none;stroke:#333333;stroke-width:0.75;stroke-linecap:round;stroke-linejoin:round;" d="
		M45,175.8c0-8.5-4.5-12.5-12.5-12.5H17.2"/>
	
		<path id="panel_cpc_0_Layer0_0_MEMBER_44_MEMBER_3_2_STROKES" style="fill:none;stroke:#999999;stroke-width:0.75;stroke-linecap:round;stroke-linejoin:round;" d="
		M45,208.7v-32.9"/>
	
		<path id="panel_cpc_0_Layer0_0_MEMBER_44_MEMBER_4_1_STROKES" style="fill:none;stroke:#999999;stroke-width:0.75;stroke-linecap:round;stroke-linejoin:round;" d="
		M17.2,162.8V68.2"/>
	
		<path id="panel_cpc_0_Layer0_0_MEMBER_44_MEMBER_5_1_STROKES" style="fill:none;stroke:#333333;stroke-width:0.75;stroke-linecap:round;stroke-linejoin:round;" d="
		M454.1,166.8V68.2"/>
	
		<path id="panel_cpc_0_Layer0_0_MEMBER_44_MEMBER_6_1_STROKES" style="fill:none;stroke:#999999;stroke-width:0.75;stroke-linecap:round;stroke-linejoin:round;" d="
		M45.6,18.9h376.8"/>
	
		<path id="panel_cpc_0_Layer0_0_MEMBER_44_MEMBER_7_1_STROKES" style="fill:none;stroke:#333333;stroke-width:0.75;stroke-linecap:round;stroke-linejoin:round;" d="
		M45.6,208.7h376.8"/>
	<text transform="matrix(1 0 0 1 286.0911 43.5004)" style="fill:#FFFFFF; font-family:'ArialMT'; font-size:14.2192px;">CABIN ALTITUDE</text>
	<g transform="matrix( 0.7373504638671875, 0, 0, 0.7373504638671875, 348.4,19.35) ">
		<g transform="matrix( 1, 0, 0, 1, 0,0) ">
			<g>
				<g id="info2_0_Layer1_0_MEMBER_0_MEMBER_0_FILL_4_">
					<path style="fill:#FFFFFF;stroke:#446483;stroke-width:0.5;stroke-miterlimit:2.956;" d="M-436,61.2c6.8,7,15.1,10.4,24.8,10.4
						c9.7,0,18.1-3.6,24.8-10.4c6.8-6.8,10.4-15.1,10.4-24.8s-3.4-17.8-10.4-24.8s-15.1-10.4-24.8-10.4c-9.7,0-17.8,3.4-24.8,10.4
						c-7,6.8-10.4,15.1-10.4,24.8S-443,54.2-436,61.2z"/>
				</g>
			</g>
		</g>
		<path style="fill:#446483;" d="M-392.2,37.8c-2.5-0.9-7.9,3.8-10.6,6.5c-0.5,0.5-0.5-1.1-0.5-2.9c0-0.2,0-0.2,0-0.5v-0.5
			c0-1.6,0-3.2,0-4.3v-2.9c6.3-1.4,11.3-7,11.3-14c0-7.9-6.3-14.2-14.2-14.2c-7.9,0-14.2,6.3-14.2,14.2c0,3.8,1.4,7.5,4.1,9.9
			c-0.2,0.5-0.5,0.9-0.5,1.6v7l-1.1,0.2v-6.1c0-1.6-1.1-2.9-2.7-2.9h-0.5c-1.6,0-3.2,1.4-3.2,2.9V39l-1.1,0.2v-2.9
			c0-1.6-0.7-2.9-2.3-2.9h-0.5c-1.6,0-3.6,1.4-3.6,2.9v0.2v2v1.4l-1.1,10.2c-0.9,2.7-1.4,9.3,8.1,15.1c0,0,5.4,2.7,12.2-2
			c3.6-2.7,9.5-8.4,14.2-13.1l2.9-3.2c2.3-2.5,3.8-4.3,4.3-4.7C-390.2,40.7-390.4,38.2-392.2,37.8z M-405.5,16.5h-0.5
			c-1.6,0-3.6,1.4-3.6,2.9v3.4c-1.1-0.9-1.4-2-1.4-3.6c0-2.7,2.3-4.7,5-4.7s4.7,2.3,4.7,4.7c0,1.6-0.9,2.9-2,3.8v-3.8
			C-403.3,17.9-404,16.5-405.5,16.5z M-403.3,24.7c2-1.1,2.9-2.9,2.9-5.2c0-3.2-2.7-5.9-5.9-5.9c-3.2,0-5.9,2.7-5.9,5.9
			c0,2,1.4,3.8,2.5,5v3.6c-3.2-1.4-5.6-4.5-5.6-8.4c0-5,4.1-9,9-9c5,0,9,4.1,9,9c0,3.8-2,7.2-6.1,8.6L-403.3,24.7L-403.3,24.7z
			 M-406,6.4c7.2,0,13.1,5.9,13.1,13.1c0,6.3-4.1,11.5-10.4,12.9v-3.2c4.3-1.4,7.2-5.2,7.2-9.7c0-5.6-4.5-10.2-10.2-10.2
			s-10.2,4.5-10.2,10.2c0,4.5,2.5,8.1,6.8,9.5v3.2c0,0,0-0.2-1.1-0.2v-0.9c0-1.6-1.1-2.9-2.7-2.9h-0.5c-0.7,0-1.4,0.2-1.8,0.7
			c-2.3-2.5-3.6-5.6-3.6-9.3C-419.3,12.3-413.4,6.4-406,6.4z M-410.7,37.3V33c1.1,0,1.1,0.2,1.1,0.2V37L-410.7,37.3z"/>
	</g>
</g>
<path id="clp-man-diff-sw" style="fill:none;" d="M299.3,207.7H166.5c-2.3,0-4.2-1.9-4.2-4.2v-27c0-2.3,1.9-4.2,4.2-4.2h132.9
	c2.3,0,4.2,1.9,4.2,4.2v27C303.5,205.8,301.6,207.7,299.3,207.7z"/>
<path id="clp-ldg-rotary-knob" style="fill:none;" d="M137.7,187.3H83.9c-1.6-8.2-8.8-14.5-17.5-14.5c-9.9,0-17.8,8-17.8,17.8
	c0,9.9,8,17.8,17.8,17.8c1.6,0,3.2-0.2,4.7-0.6v0.3c0,1.9,1.6,3.5,3.5,3.5h63.1c1.9,0,3.5-1.6,3.5-3.5v-17.3
	C141.2,188.9,139.6,187.3,137.7,187.3z"/>
<path id="clp-fwd-valve-sw" style="fill:none;" d="M439.5,92.2h-9.8c-9.2-21.4-30.4-36.4-55.1-36.4c-11.6,0-22.5,3.3-31.7,9
	c-0.8-1.2-2.1-2-3.6-2h-24.2c-2.4,0-4.3,1.9-4.3,4.3v13.4c0,2.4,1.9,4.3,4.3,4.3h8.1c-5.5,9-8.6,19.6-8.6,30.9
	c0,13.5,4.4,25.9,11.9,35.9h-5.8c-2.4,0-4.3,1.9-4.3,4.3v13.4c0,2.4,1.9,4.3,4.3,4.3h22.9v27c0,2.4,1.9,4.3,4.3,4.3h56.2
	c2.4,0,4.3-1.9,4.3-4.3v-35.4c15.8-10.8,26.1-28.9,26.1-49.5c0-0.6,0-1.1,0-1.7h5c2.4,0,4.3-1.9,4.3-4.3V96.4
	C443.8,94.1,441.9,92.2,439.5,92.2z"/>
<path id="clp-rear-valve-sw" style="fill:none;" d="M302,72.7h-37.1c-2.2,0-3.9,1.8-3.9,3.9v24.6h-9.2c-2.4,0-4.3,1.9-4.3,4.3v13.4
	c0,2.4,1.9,4.3,4.3,4.3h9.2v23.2c0,2.2,1.8,3.9,3.9,3.9H302c2.2,0,3.9-1.8,3.9-3.9V76.7C305.9,74.5,304.2,72.7,302,72.7z"/>
<path id="clp-fault-lt" style="fill:none;" d="M241.2,161.5H199c-2.9,0-5.2-2.3-5.2-5.2V70.7c0-2.9,2.3-5.2,5.2-5.2h42.3
	c2.9,0,5.2,2.3,5.2,5.2v85.6C246.4,159.2,244.1,161.5,241.2,161.5z"/>
<path id="clp-ldg-alt-ind" style="fill:none;" d="M155.5,56.3v-25c0-2.5-2-4.5-4.5-4.5H87c-2.5,0-4.5,2-4.5,4.5v25
	c-19.7,12.2-32.8,34-32.8,58.9c0,38.3,31,69.3,69.3,69.3s69.3-31,69.3-69.3C188.4,90.3,175.2,68.5,155.5,56.3z"/>
<g id="clp-system">
	<path d="M276.2,112.9c0,4.5,1.1,8.5,2.8,11.9c1.7,3.4,4,5.1,6.8,5.1s5.1-1.7,6.2-5.1c1.7-3.4,2.8-7.4,2.8-11.9
		c0-5.1-1.1-9.1-2.8-12.5c-1.7-3.4-4-5.1-6.2-5.1c-2.8,0-5.1,1.7-6.8,5.1C277.3,103.9,276.2,107.8,276.2,112.9z"/>
	<path id="panel_cpc_0_Layer0_0_MEMBER_1_1_STROKES" style="fill:none;stroke:#666666;stroke-width:0.4;stroke-miterlimit:5;" d="
		M279,124.8c-1.7-3.4-2.8-7.4-2.8-11.9c0-5.1,1.1-9.1,2.8-12.5c1.7-3.4,4-5.1,6.8-5.1s5.1,1.7,6.2,5.1c1.7,3.4,2.8,7.4,2.8,12.5
		c0,4.5-1.1,8.5-2.8,11.9c-1.7,3.4-4,5.1-6.2,5.1C283,129.9,280.7,128.2,279,124.8z"/>
	<path d="M262,184.9c0-2.3-2.8-4.5-9.1-6.2c-5.7-1.7-13-2.3-21.5-2.3s-15.9,0.6-21.5,2.3c-6.2,1.7-9.1,4-9.1,6.2s2.8,4,9.1,5.7
		c5.7,1.7,13,2.3,21.5,2.3s15.9-0.6,21.5-2.3C259.2,189.4,262,187.2,262,184.9z"/>
	<path id="panel_cpc_0_Layer0_0_MEMBER_2_1_STROKES" style="fill:none;stroke:#666666;stroke-width:0.4;stroke-miterlimit:5;" d="
		M252.9,190.6c-5.7,1.7-13,2.3-21.5,2.3s-15.9-0.6-21.5-2.3c-6.2-1.7-9.1-3.4-9.1-5.7s2.8-4.5,9.1-6.2c5.7-1.7,13-2.3,21.5-2.3
		s15.9,0.6,21.5,2.3c6.2,1.7,9.1,4,9.1,6.2S259.2,189.4,252.9,190.6z"/>
	<path style="fill:#FFFFFF;" d="M424.6,117.5h-2.8c-0.6,11.3-5.1,21-13.6,29.5c-9.1,9.1-19.8,13.6-32.9,13.6
		c-11.9,0-22.1-4-30.6-11.3v2.8H343c9.1,7.9,19.8,11.9,31.7,11.9c13.6,0,25.5-4.5,34.6-14.7C418.9,140.1,423.5,129.9,424.6,117.5
		 M408.2,80.7h3.4l-1.7-1.7c-9.6-9.6-21.5-14.2-34.6-14.2c-13.6,0-25.5,4.5-35.1,14.2c-2.8,2.8-5.1,6.2-7.4,9.1h3.4
		c1.7-2.3,4-5.1,6.2-7.4c9.1-9.1,20.4-13.6,33.4-13.6C388.9,67.1,399.1,72.2,408.2,80.7L408.2,80.7z"/>
	<path style="fill:#FFFFFF;" d="M339.1,77.8l-6.8,9.6l4.5,3.4l6.8-9.6L339.1,77.8z M337.4,149.8l9.1,7.4l3.4-4.5l-9.1-7.4
		L337.4,149.8z M404.8,80.7l10.2,5.7l-6.2-9.6L404.8,80.7L404.8,80.7z M76.2,189.4l1.7,3.4v-3.4H76.2 M77.9,192.8l2.3-3.4h-1.7v0.6
		L77.9,192.8z"/>
	<path id="panel_cpc_0_Layer0_0_MEMBER_31_1_STROKES" style="fill:none;stroke:#FFFFFF;stroke-width:0.4;stroke-miterlimit:5;" d="
		M77.9,189.4c0-2.8-1.1-5.1-3.4-7.4c-2.3-2.3-5.1-3.4-7.9-3.4c-3.4,0-5.7,1.1-7.9,3.4c-2.3,2.3-3.4,5.1-3.4,7.9 M77.9,189.4h1.7
		l-2.3,3.4l-1.7-3.4H77.9z M77.9,189.4v3.4"/>
	<path style="fill:#FFFFFF;" d="M80.1,189.4h-4.5l2.3,4L80.1,189.4z"/>
	<path id="panel_cpc_0_Layer0_0_MEMBER_32_1_STROKES" style="fill:none;stroke:#FFFFFF;stroke-width:0.4;stroke-miterlimit:5;" d="
		M80.1,189.4l-2.3,3.4l-2.3-4L80.1,189.4L80.1,189.4z"/>
	<path id="panel_cpc_0_Layer0_0_MEMBER_33_1_STROKES" style="fill:none;stroke:#231F20;stroke-width:0.4;stroke-miterlimit:5;" d="
		M54.6,192.3l2.3-3.4h-4L54.6,192.3L54.6,192.3z"/>
	<path style="fill:#FFFFFF;" d="M52.4,188.3l1.7,2.8l0.6,0.6l2.3-3.4L52.4,188.3L52.4,188.3z"/>
	<path id="panel_cpc_0_Layer0_0_MEMBER_34_1_STROKES" style="fill:none;stroke:#FFFFFF;stroke-width:0.4;stroke-miterlimit:5;" d="
		M52.4,188.3h4l-2.3,3.4l-0.6-0.6L52.4,188.3z"/>
	<path d="M237.6,147.5V80.1c0-4-1.7-6.2-5.1-6.2h-24.4c-3.4,0-5.1,2.3-5.1,6.2v67.4c0,4,1.7,5.7,5.1,5.7h24.4
		C235.4,153.2,237.6,151.5,237.6,147.5z"/>
	<path style="fill:#DDDDDC;" d="M232,184.9c0,1.1,0.6,2.8,2.3,3.4c1.1-1.1,1.7-2.3,1.7-3.4c0-1.1-0.6-2.3-1.7-3.4
		C232.5,182.6,232,183.8,232,184.9z"/>
	<path style="fill:#333333;" d="M237.6,179.2c-1.7-1.7-4-2.8-6.2-2.8c-2.3,0-4.5,1.1-6.2,2.8s-2.3,3.4-2.3,6.2
		c0,2.3,0.6,4.5,2.3,6.2s4,2.3,6.2,2.3c2.3,0,4.5-0.6,6.2-2.3s2.8-4,2.8-6.2C240.5,182.6,239.3,180.4,237.6,179.2z"/>
	<path style="fill:#333333;" d="M237.1,184.9c0-1.7-0.6-2.8-1.7-4c-1.1-1.1-2.3-1.7-4-1.7s-2.8,0.6-4,1.7s-1.7,2.3-1.7,4
		s0.6,2.8,1.7,4c1.1,1.1,2.8,1.7,4,1.7c1.1,0,2.8-0.6,4-1.7C236.5,187.7,237.1,186.6,237.1,184.9z"/>
	<path style="fill:#CCCCCC;" d="M231.4,179.8c-1.7,0-2.8,0.6-4,1.7s-1.7,2.3-1.7,4s0.6,2.8,1.7,4c1.1,1.1,2.3,1.7,4,1.7
		s2.8-0.6,4-1.7c1.1-1.1,1.7-2.3,1.7-4s-0.6-2.8-1.7-4C234.2,180.4,233.1,179.8,231.4,179.8z"/>
	
		<path id="SCHALTER_3_0_Layer0_0_1_STROKES_17_" style="fill:none;stroke:#333333;stroke-width:0.2152;stroke-linecap:round;stroke-linejoin:round;stroke-miterlimit:10;" d="
		M230.8,181.5c2.8,0.6,4.5,2.3,5.1,5.1"/>
	<path style="fill:#DDDDDC;" d="M286.4,112.4c0,1.1,0.6,2.8,2.3,3.4c1.1-1.1,1.7-2.3,1.7-3.4s-0.6-2.3-1.7-3.4
		C286.9,110.1,286.4,111.2,286.4,112.4z"/>
	<path style="fill:#333333;" d="M292,106.7c-1.7-1.7-4-2.8-6.2-2.8s-4.5,1.1-6.2,2.8c-1.7,1.7-2.3,3.4-2.3,6.2
		c0,2.3,0.6,4.5,2.3,6.2c1.7,1.7,4,2.3,6.2,2.3s4.5-0.6,6.2-2.3c1.7-1.7,2.8-4,2.8-6.2C294.9,110.1,293.7,107.8,292,106.7z"/>
	<path style="fill:#333333;" d="M291.5,112.4c0-1.7-0.6-2.8-1.7-4c-1.1-1.1-2.3-1.7-4-1.7s-2.8,0.6-4,1.7c-1.1,1.1-1.7,2.3-1.7,4
		s0.6,2.8,1.7,4c1.1,1.1,2.8,1.7,4,1.7s2.8-0.6,4-1.7C290.9,115.2,291.5,114.1,291.5,112.4z"/>
	<path style="fill:#CCCCCC;" d="M285.8,107.3c-1.7,0-2.8,0.6-4,1.7c-1.1,1.1-1.7,2.3-1.7,4s0.6,2.8,1.7,4c1.1,1.1,2.3,1.7,4,1.7
		s2.8-0.6,4-1.7c1.1-1.1,1.7-2.3,1.7-4s-0.6-2.8-1.7-4C288.6,107.8,287.5,107.3,285.8,107.3z"/>
	
		<path id="SCHALTER_3_0_Layer0_0_1_STROKES_18_" style="fill:none;stroke:#333333;stroke-width:0.2152;stroke-linecap:round;stroke-linejoin:round;stroke-miterlimit:10;" d="
		M285.2,109c2.8,0.6,4.5,2.3,5.1,5.1"/>
	<path style="fill:#333333;" d="M344.2,88.6c-6.8,7.9-10.2,17.6-9.1,27.8s5.1,19.3,13,26.1s17.6,10.2,27.8,9.1
		c10.2-1.1,19.3-5.1,26.1-13c6.8-7.9,10.2-17,9.1-27.8c-0.6-10.8-5.1-19.3-13-26.1c-7.9-6.8-17.6-10.2-27.8-9.1
		C360,76.1,351,80.7,344.2,88.6z"/>
	<path style="fill:#666666;" d="M373.1,131.6c-2.8-1.1-5.7-2.3-7.9-4.5c-2.8-2.3-4.5-5.1-6.2-7.9L344.3,96c1.7,4,3.4,9.6,5.7,16.4
		c2.8,7.4,6.2,13,9.6,17c6.2,5.1,16.4,10.2,30.6,14.2h3.4c0.6-0.6,1.7-1.1,2.3-1.7l2.8-3.4L394,143L373.1,131.6 M397.4,112.4
		c-3.4-5.7-6.2-10.2-10.2-13.6c-5.7-2.8-12.5-5.1-21-6.8c-6.2-1.7-10.8-2.8-14.2-3.4l23.8,10.8c3.4,1.1,6.2,2.3,8.5,4.5
		c2.3,1.7,4,4.5,5.7,7.4l14.2,19.8c-1.1,1.7-2.3,3.4-4,5.1l3.4-4c0.6-0.6,1.1-1.1,1.1-1.7c1.1-1.7,0.6-3.4-1.1-5.1
		C401.9,119.7,399.1,115.2,397.4,112.4z"/>
	
		<path id="SCHALTER_7_0_Layer0_0_MEMBER_1_1_STROKES_7_" style="fill:none;stroke:#231F20;stroke-width:0.2257;stroke-miterlimit:2.2573;" d="
		M352.1,88l23.8,10.8c3.4,1.1,6.2,2.3,8.5,4.5c2.3,1.7,4,4.5,5.7,7.4l14.2,19.8l-3.4,5.1l-1.7,2.3 M344.2,95.9l-2.3-4
		c0.6-1.1,1.7-2.3,2.3-3.4c1.1-1.1,1.7-2.3,2.8-2.8l4.5,2.3h0.6 M344.2,95.9l14.7,23.2c1.7,2.8,3.4,5.7,6.2,7.9
		c2.3,2.3,5.1,3.4,7.9,4.5l21.5,11.3c1.7-1.1,3.4-2.8,4.5-4.5"/>
	<path style="fill:#FFFFFF;" d="M383.3,119.7l-37.4-32.3l-2.3,2.8l37.4,32.3L383.3,119.7z"/>
	<path style="fill:#333333;" d="M73.9,191.1c0-2.3-0.6-4-2.3-5.1l-10.8,10.8c1.7,1.1,3.4,2.3,5.1,2.3c2.3,0,4-0.6,5.7-2.3
		C73.3,195.1,73.9,193.4,73.9,191.1z"/>
	<path style="fill:#CCCCCC;" d="M72.2,186c-1.7-1.7-3.4-2.3-5.7-2.3c-2.3,0-4,0.6-5.7,2.3s-2.3,3.4-2.3,5.1c0,2.3,0.6,4,2.3,5.7
		L72.2,186z"/>
	<path d="M66.5,184.3c-1.7,0-3.4,0.6-4.5,1.7c-1.1,1.1-1.7,2.8-1.7,5.1c0,1.7,0.6,3.4,1.7,4.5c1.1,1.1,2.8,2.3,4.5,2.3
		s3.4-0.6,5.1-2.3c1.1-1.1,2.3-2.8,2.3-4.5s-0.6-3.4-2.3-5.1C69.9,185.5,68.2,184.3,66.5,184.3z"/>
	<path style="fill:#999999;" d="M70.5,187.7c-1.1-1.1-2.3-1.7-4-1.7s-2.8,0.6-4,1.7c-1.1,1.1-1.7,2.3-1.7,4s0.6,2.8,1.7,4
		c1.1,1.1,2.3,1.7,4,1.7s2.8-0.6,4-1.7c1.1-1.1,1.7-2.3,1.7-4S71.6,188.9,70.5,187.7z"/>
	<text transform="matrix(1 0 0 1 90.6199 43.8813)" style="fill:#FFFFFF; font-family:'ArialMT'; font-size:14.2192px;">LDG ALT</text>
	<text transform="matrix(1 0 0 1 265.9563 88.7299)" style="fill:#FFFFFF; font-family:'ArialMT'; font-size:11.273px;">DUMP</text>
	<text transform="matrix(1 0 0 1 250.5926 115.6283)" style="fill:#FFFFFF; font-family:'ArialMT'; font-size:11.273px;">MAN</text>
	<text transform="matrix(1 0 0 1 267.679 145.9823)" style="fill:#FFFFFF; font-family:'ArialMT'; font-size:11.273px;">AUTO</text>
	<text transform="matrix(1 0 0 1 266.263 187.5937)" style="fill:#FFFFFF; font-family:'ArialMT'; font-size:9.8634px;">DECR</text>
	<text transform="matrix(1 0 0 1 165.4197 187.5937)" style="fill:#FFFFFF; font-family:'ArialMT'; font-size:9.8634px;">INCR</text>
	<text transform="matrix(1 0 0 1 205.2644 203.748)" style="fill:#FFFFFF; font-family:'ArialMT'; font-size:9.8634px;">MAN DIFF</text>
	<text transform="matrix(1 0 0 1 365.0891 183.3984)" style="fill:#FFFFFF; font-family:'ArialMT'; font-size:11.273px;">FWD</text>
	<text transform="matrix(1 0 0 1 347.1907 198.914)" style="fill:#FFFFFF; font-family:'ArialMT'; font-size:11.273px;">OUTFLOW</text>
	<text transform="matrix(1 0 0 1 413.8509 107.0307)" style="fill:#FFFFFF; font-family:'ArialMT'; font-size:9.9597px;">INCR</text>
	<text transform="matrix(1 0 0 1 316.3255 76.7856)" style="fill:#FFFFFF; font-family:'ArialMT'; font-size:8.4543px;">CLSD</text>
	<text transform="matrix(1 0 0 1 324.6126 166.4394)" style="fill:#FFFFFF; font-family:'ArialMT'; font-size:8.4543px;">OPN</text>
	<text transform="matrix(1 0 0 1 216.6922 89.1772)" style="fill:#FF6600; font-family:'ArialMT'; font-size:11.5291px;">F</text>
	<text transform="matrix(1 0 0 1 216.1765 103.142)" style="fill:#FF6600; font-family:'ArialMT'; font-size:11.5291px;">A</text>
	<text transform="matrix(1 0 0 1 215.7957 117.102)" style="fill:#FF6600; font-family:'ArialMT'; font-size:11.5291px;">U</text>
	<text transform="matrix(1 0 0 1 216.8172 131.0619)" style="fill:#FF6600; font-family:'ArialMT'; font-size:11.5291px;">L</text>
	<text transform="matrix(1 0 0 1 216.3064 145.0292)" style="fill:#FF6600; font-family:'ArialMT'; font-size:11.5291px;">T</text>
	<text transform="matrix(1 0 0 1 89.7703 204.1054)" style="fill:#FFFFFF; font-family:'ArialMT'; font-size:11.273px;">LDG ALT</text>
	<text transform="matrix(1 0 0 1 76.7391 206.7304)" style="fill:#FFFFFF; font-family:'ArialMT'; font-size:17.2934px;">+</text>
	
		<path id="panel_cpc_0_Layer0_0_MEMBER_17_1_STROKES_1_" style="fill:none;stroke:#FFFFFF;stroke-width:0.25;stroke-miterlimit:15.7458;" d="
		M166.8,83.5l-5.1,2.8 M151,68.2l-2.8,4.5 M131.1,59.7l-1.1,5.1 M139.1,68.2l5.1-11.3 M164.6,71l-8.5,8.5 M174.8,103.9l-6.2,1.7
		 M162.3,141.8l5.1,3.4 M168.5,124.8l5.7,1.1 M166.3,95.9l11.3-4.5 M169.7,115.2h12.5 M177.6,139l-11.3-4.5 M119.8,51.8v12.5
		 M84.1,79.5l-9.1-9 M110.2,65.4l-1.1-5.7 M92,73.9l-4-5.7 M96,56.9l5.1,11.9 M56.3,115.2h13 M71.1,124.8l-6.2,1.1 M78.4,142.4
		l-5.1,4 M73.3,134.5l-11.9,5.1 M101.1,161.1l-4.5,11.3 M119.8,177.5V165 M109.6,163.9l-1.1,5.7 M92.6,156.6l-3.4,4.5 M144.2,172.4
		l-5.1-11.3 M148.1,155.4l3.4,5.1 M129.4,163.4l1.1,6.2 M154.9,150.3l8.5,8.5 M75.6,159.4l9.1-9.1"/>
	<path style="fill:#FFFFFF;" d="M125.5,107.3L119.8,75l-5.7,32.3H125.5z"/>
	<path style="fill:#333333;" d="M126.6,107.3c-2.3-1.7-4.5-2.8-7.4-2.8c-2.8,0-5.1,1.1-7.4,3.4s-2.8,4.5-2.8,7.4
		c0,2.8,1.1,5.1,2.8,6.8c2.3,2.3,4.5,2.8,7.4,2.8c2.8,0,5.1-1.1,6.8-2.8c2.3-2.3,2.8-4.5,2.8-7.4
		C129.4,111.8,128.9,109.5,126.6,107.3L126.6,107.3z"/>
	<path style="fill:#FFFFFF;" d="M119.8,64.2c-14.7,0-27.8,6.2-36.8,16.4l1.7,1.7c8.5-9.6,21-15.3,35.1-15.3
		c26.6,0,47.6,21.5,47.6,47.6s-21.5,47.6-47.6,47.6c-26.6,0-47.6-21.5-47.6-47.6h-2.8c0,27.8,22.7,50.4,50.4,50.4
		s50.4-22.7,50.4-50.4S147.6,64.2,119.8,64.2z"/>
	<text transform="matrix(1 0 0 1 59.1082 101.227)" style="fill:#FFFFFF; font-family:'ArialMT'; font-size:8.1643px;">FT X</text>
	<text transform="matrix(1 0 0 1 59.1082 110.8598)" style="fill:#FFFFFF; font-family:'ArialMT'; font-size:8.1643px;">1000</text>
	<text transform="matrix(1 0 0 1 89.2205 93.0932)" style="fill:#FFFFFF; font-family:'ArialMT'; font-size:16.6996px;">2</text>
	<text transform="matrix(1 0 0 1 143.0496 93.0932)" style="fill:#FFFFFF; font-family:'ArialMT'; font-size:16.6996px;">2</text>
	<text transform="matrix(1 0 0 1 155.0672 123.1987)" style="fill:#FFFFFF; font-family:'ArialMT'; font-size:16.6996px;">4</text>
	<text transform="matrix(1 0 0 1 143.2586 149.5116)" style="fill:#FFFFFF; font-family:'ArialMT'; font-size:16.6996px;">6</text>
	<text transform="matrix(1 0 0 1 115.7654 160.6386)" style="fill:#FFFFFF; font-family:'ArialMT'; font-size:16.6996px;">8</text>
	<text transform="matrix(1 0 0 1 115.3797 83.2846)" style="fill:#FFFFFF; font-family:'ArialMT'; font-size:16.6996px;">0</text>
	<text transform="matrix(1 0 0 1 75.8484 121.726)" style="fill:#FFFFFF; font-family:'ArialMT'; font-size:8.1643px;">14</text>
	<text transform="matrix(1 0 0 1 80.3767 136.1733)" style="fill:#FFFFFF; font-family:'ArialMT'; font-size:8.1643px;">12</text>
	<text transform="matrix(1 0 0 1 89.2205 148.4452)" style="fill:#FFFFFF; font-family:'ArialMT'; font-size:8.1643px;">10</text>
</g>
</svg>
