<?xml version="1.0" encoding="utf-8"?>
<!-- Generator: Adobe Illustrator 24.3.0, SVG Export Plug-In . SVG Version: 6.00 Build 0)  -->
<svg version="1.1" id="Ebene_1" xmlns="http://www.w3.org/2000/svg" xmlns:xlink="http://www.w3.org/1999/xlink" x="0px" y="0px"
	 viewBox="0 0 349.1 174.8" style="enable-background:new 0 0 349.1 174.8;" xml:space="preserve">
<style type="text/css">
	.st0{fill:#FF0000;}
	.st1{fill:none;stroke:#B1B1B1;stroke-width:0.55;stroke-linecap:round;stroke-linejoin:round;}
	.st2{fill:none;stroke:#000000;stroke-width:0.55;stroke-linecap:round;stroke-linejoin:round;}
	.st3{fill:none;stroke:#000000;stroke-width:0.45;stroke-linecap:round;stroke-linejoin:round;}
	.st4{fill:#0099FF;}
	.st5{fill:#0066FF;}
	.st6{fill:#CCCCCC;}
	.st7{fill:#999999;}
	.st8{font-family:'ArialMT';}
	.st9{font-size:14px;}
	.st10{fill:none;stroke:#FF9900;stroke-linecap:round;stroke-linejoin:round;}
</style>
<path class="st0" d="M59.1,74.6v0.1L59,75.1l0,0l-0.6,0.4v0.1l0.1,0.4V76L57.7,80v3.6v1.4l0.6,3.4l1.7,0.9h0.1l0.5-0.1h0.2l1.1-0.6
	l0.4,0.2l0.3-0.1l-0.1-13.5l-1.1-0.7l-1.2-0.7l-0.6,0.4L59.1,74.6z"/>
<path d="M58.3,73.4h-0.2v0.1H58h0l-0.2,0.1v0.1h-0.1V74l0.1,0.1h0.1v0.1H58l0,0.1h0.3v-0.1h0l0.1-0.1h0.1v0l0-0.1V74l0.1-0.1v-0.1
	l-0.1-0.1l0-0.1v0h-0.1v-0.1L58.3,73.4L58.3,73.4L58.3,73.4L58.3,73.4z"/>
<path id="Layer3_3_1_STROKES" class="st1" d="M66.3,12.6l-0.2,0l-0.2,0H66.3z M65.5,12.1l0.2-0.1h0.5 M65.3,15.9v-0.8l-8.1-1.4
	l-4-0.1L47.6,14L44,14.8l-6.6,2.7l-1.3,0.8l1.5-0.8l6.9-2.4l7.4-0.8l6,0.4l7.8,1.7l0.6-0.3 M36.1,18.4l-1.6,0.8l-4.3,3.2L25.4,28
	l-1.1,1.6l-3.6,7.1L18.2,45l-0.9,4.5l-0.8,12.1l0.5,7.8l1.1,8.1l3.2,13.9l5,14.1l1.9,1.1l0.2,0.1l0.2,0.2l0.2,0.5l0,0.2v3.8
	L66.3,133V16.5l-0.5-0.1 M66.3,16.5l1.3-0.7l-0.8-0.2v-3.1 M65.3,15.1v-2.7 M66.3,133l1.3-0.8v-0.4l-0.3,0.2V98.4l0.3-0.2v-0.8v-8.2
	V15.7 M67.6,131.9l9.3-5.4l3.3-5.7v-15.1l-4.7-12.1l-7.9,4.6V131.9z M75.5,93.6l-0.8-0.3l-7.2,4.1 M74.7,93.3l-7.2-4.1"/>
<path id="Layer3_3_2_STROKES" class="st2" d="M62.2,72.8l-0.6-0.6l-3.2-1.9l0.1,1.7l1.2,0.8l2.9,1.6v-0.1l-0.1-0.8L62.2,72.8z
	 M53.2,68.6l1,0.6v-0.1L53.2,68.6L53.2,68.6L53,68.7l0.7,0.4l0.3,0.2l0.2-0.1v1.1v0.1l0.1-0.1v-1.2l-0.1,0 M55.3,69.7V70l0.2-0.6
	l0.2-0.1l-0.2,0.1l-0.1,0.1L55.3,69.7z M55.7,69.2l0.1-0.1l0.2,0l0.2,0l0.5,0.3l1.5,0.9 M62.6,94.3l0.1-0.3l-4.8-2.8l-0.6-0.4
	l-0.4-0.7l-0.3-0.8v-6.5V71.1l-1.1,0.6l-0.2,0.1v18.3l0.2,0.8l0.8,0.9l0.3,0.2l5,2.8l0.3,0.1l0.2-0.1l0.2-0.1l0.2-0.2L62.6,94.3z
	 M55.3,71.8V70 M54.2,70.3L54,70.4l-0.5-0.2 M53,69.6v0.3l0.3,0.2 M54,70.4v-1l-0.3-0.3 M54,69.4v-0.1 M56.9,69.4v1.4l-1.4,0.9
	 M57.7,80v3.6v1.4l0.6,3.4l1.7,0.9 M59.7,74.3v-1.6 M53.3,68.6l1.1,0.5 M53,68.7v0.5 M58.4,75.5v0.3l0.1,0.1 M57.7,80l0.7-4.1
	 M57.7,83.5l-1.1-0.7 M62.6,74.4v0.8v0.1 M62.6,75.2l-1.1-0.6 M59,75.1l0.1-0.4 M62.7,88.8V94"/>
<path id="Layer3_3_3_STROKES" class="st3" d="M58.1,73.5L58.1,73.5 M58.3,73.5L58.3,73.5"/>
<path class="st4" d="M204.9,76l-0.5,0.5l-0.4,1l0.7,0.2l4.1,2.4l-4.8-2.7l-2,0.9l-0.7,0.7l-0.5,0.9l-2.8,15.2l0,0.9l0.1,0.3
	l-0.1,29.8l3,14.7l0.8,0.9l8.5,4.9l1.3,6l-0.7,0.6l-0.2,0.7l0.3,7.7l0,0.6l0.1,0.1l0.1,2.6l0.4,1.1l0.4,0.6l1.7,1.1h0.5l2.5-1.9
	l0.7-3.5l0.2-0.4v-0.6l0.2-1.1l0.1-0.2v-0.6l-0.1,0l0.1-0.7l0.2-0.4v-0.6l-0.1-0.1l0.1-0.9l0.2-0.6l-0.1-0.3l0.5-5.3v0l0.2-2.5v-0.2
	l0.3-1.3l0.3-0.2l8-4.6l1.4,0.3l-0.9-0.5h0l0.5-0.6l0.1-0.7V81.4l-0.1-0.8l-0.9-1.6l-0.6-0.5l-12.6-7.2l-0.6-0.2l-0.6,0.1l-2.2,1.2
	L204.9,76z"/>
<path class="st5" d="M220.4,36.8c-2.6,1.7-5.2,3.4-7.7,5.2l-8,5.3l-0.3,0.4l-0.2,0.4l-0.2,0.4l-0.1,11.7L204,61l0.3,0.5l0.2,0.3
	l0.5,0.4l5.9,3.4l0,6.8l2.2-1.2l0.6-0.1l0.6,0.2l12.6,7.2l0.6,0.5l0.9,1.6l0.1,0.8V140l-0.1,0.7l-0.5,0.6h0l0.9,0.5l3.6,2.2l1.1,0.3
	l13.8-1l1.4-0.9v0l0.3-2.6V120l-2.6-1.5l2.6,1.4v-16.4c0-14.8,0-29.7,0-44.6v-8.8l-0.1-2.3l-0.6-1.8l-0.4-0.6L227,33.1l-0.7-0.2
	l-0.4,0.1l-5.3,3.6C220.5,36.6,220.4,36.7,220.4,36.8 M207.9,58.6l0.4,0.3v0.4l-0.5-0.2v-0.5L207.9,58.6 M212.7,61.8l-0.4-0.2v-0.4
	l0.1-0.1l0.3,0.1l0.2,1L212.7,61.8 M216.2,63.8v-0.4l0.4,0.2l0.1,0.2v0.1l-0.1,0.1L216.2,63.8 M216.9,63.8l0.2,0.1l0.1,0.2v0.4
	l-0.4-0.2L216.9,63.8L216.9,63.8 M221.8,66.7v0.2l-0.1,0l-0.3-0.2v-0.3L221.8,66.7L221.8,66.7z"/>
<path class="st6" d="M250.6,20.7l-3.9,2v21.9l0.5,0.3l0.6,0.5l0.4,0.6l0.5,1l0.1,0.8v2.3v8.8c0,14.9,0,29.7,0,44.6v16.4l1.9,1.1
	l0.2,0.1c0.2,0.1,0.3,0.2,0.5,0.3l18.3,10.5l4-2V34.1L250.6,20.7 M249.6,50.3c0-0.3,0.1-0.6,0.4-0.7c0.2-0.1,0.4-0.1,0.7,0.1
	c0.3,0.2,0.5,0.5,0.8,0.8c0.2,0.4,0.3,0.8,0.3,1.1c0,0.3-0.1,0.6-0.3,0.7c-0.2,0.1-0.4,0.1-0.8,0c-0.3-0.2-0.5-0.5-0.7-0.8
	C249.7,51,249.6,50.6,249.6,50.3 M265.5,60.6c-0.3-0.1-0.6-0.4-0.8-0.7c-0.2-0.4-0.3-0.8-0.3-1.1c0-0.3,0.1-0.5,0.3-0.6
	c0.2-0.2,0.5-0.2,0.8,0c0.2,0.1,0.4,0.3,0.5,0.5c0,0,0,0.1,0.1,0.1c0.1,0,0.1,0.1,0.2,0.2c0.1,0.4,0.2,0.8,0.2,1.1
	c0,0.3-0.1,0.6-0.2,0.6C266,60.8,265.7,60.8,265.5,60.6 M249.9,114.6c-0.2-0.4-0.4-0.8-0.4-1.1c0-0.3,0.1-0.6,0.4-0.6
	c0.2-0.2,0.4-0.2,0.7,0c0.3,0.2,0.5,0.4,0.8,0.8c0.2,0.4,0.3,0.7,0.3,1.1c0,0.3-0.1,0.6-0.3,0.7c-0.2,0.1-0.4,0.1-0.8-0.1
	C250.4,115.1,250.1,114.9,249.9,114.6z"/>
<path class="st7" d="M293.8,29.1c0,0,0-0.1,0-0.1l-1.5-3.3c0,0-0.1-0.1-0.1-0.2c-0.1-0.1-0.1-0.2-0.2-0.3c-0.7-1.1-1.6-2-2.7-2.8
	l-32-18.7c-0.5-0.2-1-0.4-1.5-0.4l-1.5,0.1c0,0,0,0-0.1,0c-0.7,0.1-1.3,0.4-1.9,0.9L251,5.8l-0.4,1.4v13.5l23.2,13.4V130l-4,2
	l-18.3-10.5c-0.2-0.1-0.4-0.2-0.5-0.3l-0.2-0.1l-0.4-0.2l0.2,7.6c0,1.6,0.4,3,1.2,4.3c0.8,1.3,1.9,2.3,3.2,3.1l31.9,18.7
	c0.8,0.6,1.7,0.8,2.7,0.8c1.2,0,2.3-0.4,3.2-1.2c0.9-0.8,1.4-1.8,1.5-3V32.6C294.3,31.4,294.1,30.3,293.8,29.1 M275,37.7
	c-0.1,0-0.3,0-0.4,0c-0.2-0.1-0.3-0.3-0.4-0.5c-0.2-0.2-0.2-0.4-0.2-0.6c0-0.2,0.1-0.4,0.2-0.5c0.1,0,0.2,0,0.4,0.1
	c0.2,0.1,0.3,0.2,0.4,0.4c0.1,0.2,0.1,0.5,0.1,0.7C275.1,37.5,275.1,37.7,275,37.7 M289.4,46.1c-0.2-0.1-0.3-0.2-0.5-0.4
	c-0.1-0.2-0.2-0.4-0.2-0.6c0-0.2,0.1-0.4,0.2-0.5c0.2-0.1,0.3,0,0.5,0.1c0.1,0.1,0.3,0.3,0.4,0.5c0.1,0.2,0.2,0.4,0.2,0.6
	c0,0.2-0.1,0.3-0.2,0.4C289.7,46.3,289.6,46.3,289.4,46.1 M274.2,100.4c-0.2-0.2-0.2-0.5-0.2-0.7c0-0.2,0.1-0.3,0.2-0.4
	c0.1,0,0.2,0,0.4,0.1c0.2,0.1,0.3,0.3,0.4,0.5c0.1,0.2,0.1,0.4,0.1,0.6c0,0.2,0,0.3-0.1,0.4c-0.1,0-0.3,0-0.4-0.1
	C274.4,100.7,274.3,100.6,274.2,100.4z"/>
<path id="Layer3_4_MEMBER_1_MEMBER_0_1_STROKES" class="st2" d="M226.8,74.2l0.8-0.2"/>
<path id="Layer3_4_MEMBER_1_MEMBER_1_1_STROKES" class="st2" d="M226.8,74.2h-0.6"/>
<path id="Layer3_4_MEMBER_1_MEMBER_2_1_STROKES" class="st2" d="M225.8,74.1l0.4,0.1"/>
<path id="Layer3_4_MEMBER_1_MEMBER_3_1_STROKES" class="st2" d="M225.8,74.1l-0.6-0.2"/>
<path id="Layer3_4_MEMBER_1_MEMBER_4_1_STROKES" class="st2" d="M227.6,74l4-2"/>
<path id="Layer3_4_MEMBER_1_MEMBER_5_1_STROKES" class="st2" d="M204.9,62.2L225.2,74"/>
<path id="Layer3_4_MEMBER_1_MEMBER_6_1_STROKES" class="st2" d="M216.1,60l0.2-0.4"/>
<path id="Layer3_4_MEMBER_1_MEMBER_7_1_STROKES" class="st2" d="M212,57.5l0.2-0.3"/>
<path id="Layer3_4_MEMBER_1_MEMBER_8_1_STROKES" class="st2" d="M212.2,58l-0.2-0.4"/>
<path id="Layer3_4_MEMBER_1_MEMBER_9_1_STROKES" class="st2" d="M208.1,55.6l-0.2-0.4"/>
<path id="Layer3_4_MEMBER_1_MEMBER_10_1_STROKES" class="st2" d="M204.9,47.2L225.8,33"/>
<path id="Layer3_4_MEMBER_1_MEMBER_11_1_STROKES" class="st2" d="M204.7,47.4l-0.4,0.4"/>
<path id="Layer3_4_MEMBER_1_MEMBER_12_1_STROKES" class="st2" d="M204.1,48.1l0.2-0.4"/>
<path id="Layer3_4_MEMBER_1_MEMBER_13_1_STROKES" class="st2" d="M204.1,48.1l-0.2,0.4l-0.1,0.6"/>
<path id="Layer3_4_MEMBER_1_MEMBER_14_1_STROKES" class="st2" d="M203.8,60.2v-11"/>
<path id="Layer3_4_MEMBER_1_MEMBER_15_1_STROKES" class="st2" d="M198,95.7l2.9-15.7"/>
<path id="Layer3_4_MEMBER_1_MEMBER_16_1_STROKES" class="st2" d="M201.1,79.4l-0.2,0.6"/>
<path id="Layer3_4_MEMBER_1_MEMBER_17_1_STROKES" class="st2" d="M201.6,78.6l-0.3,0.5"/>
<path id="Layer3_4_MEMBER_1_MEMBER_18_1_STROKES" class="st2" d="M201.6,78.6l0.6-0.3"/>
<path id="Layer3_4_MEMBER_1_MEMBER_19_1_STROKES" class="st2" d="M204,61l-0.2-0.8"/>
<path id="Layer3_4_MEMBER_1_MEMBER_20_1_STROKES" class="st2" d="M204,61l0.3,0.5"/>
<path id="Layer3_4_MEMBER_1_MEMBER_21_1_STROKES" class="st2" d="M204.4,61.8l-0.2-0.3"/>
<path id="Layer3_4_MEMBER_1_MEMBER_22_1_STROKES" class="st2" d="M204.4,61.8l0.5,0.4"/>
<path id="Layer3_4_MEMBER_1_MEMBER_23_1_STROKES" class="st2" d="M198.7,97.1l-0.3-0.3"/>
<path id="Layer3_4_MEMBER_1_MEMBER_24_1_STROKES" class="st2" d="M198.2,96.6l-0.2-0.5"/>
<path id="Layer3_4_MEMBER_1_MEMBER_25_1_STROKES" class="st2" d="M198,96.6v29.7"/>
<path id="Layer3_4_MEMBER_1_MEMBER_26_1_STROKES" class="st2" d="M204.9,76l8.2-4.8"/>
<path id="Layer3_4_MEMBER_1_MEMBER_27_1_STROKES" class="st2" d="M210.9,71.1V67"/>
<path id="Layer3_4_MEMBER_1_MEMBER_28_1_STROKES" class="st2" d="M198,126.5l2.9,13.7"/>
<path id="Layer3_4_MEMBER_1_MEMBER_29_1_STROKES" class="st2" d="M214.7,148.8l0.7-0.1l0.5-0.4"/>
<path id="Layer3_4_MEMBER_1_MEMBER_30_1_STROKES" class="st2" d="M213.8,148.7l0.6,0.2l0.4-0.1"/>
<path id="Layer3_4_MEMBER_1_MEMBER_31_1_STROKES" class="st2" d="M213.8,148.7l-0.6-0.4"/>
<path id="Layer3_4_MEMBER_1_MEMBER_32_1_STROKES" class="st2" d="M215.9,148.3l0.8-0.6"/>
<path id="Layer3_4_MEMBER_1_MEMBER_33_1_STROKES" class="st2" d="M201.8,141.9l11.3,6.5"/>
<path id="Layer3_4_MEMBER_1_MEMBER_34_1_STROKES" class="st2" d="M217.1,147.4l10.7-6.2"/>
<path id="Layer3_4_MEMBER_1_MEMBER_35_1_STROKES" class="st2" d="M213,148.3l1.2,5.3"/>
<path id="Layer3_4_MEMBER_1_MEMBER_36_1_STROKES" class="st2" d="M210.3,146.8l1.6,7.4"/>
<path id="Layer3_4_MEMBER_1_MEMBER_37_1_STROKES" class="st2" d="M201.6,141.6l0.3,0.2"/>
<path id="Layer3_4_MEMBER_1_MEMBER_38_1_STROKES" class="st2" d="M201,140.9l-0.2-0.6"/>
<path id="Layer3_4_MEMBER_1_MEMBER_39_1_STROKES" class="st2" d="M232.9,144.2l0.5,0.2"/>
<path id="Layer3_4_MEMBER_1_MEMBER_40_1_STROKES" class="st2" d="M232.9,144.2l-0.6-0.1l-4.6-2.7"/>
<path id="Layer3_4_MEMBER_1_MEMBER_41_1_STROKES" class="st2" d="M211,163.3l0.2,1.8l0.2,0.7"/>
<path id="Layer3_4_MEMBER_1_MEMBER_42_1_STROKES" class="st2" d="M211.5,166.2l0.4,0.6"/>
<path id="Layer3_4_MEMBER_1_MEMBER_43_1_STROKES" class="st2" d="M211.3,165.8l0.2,0.4"/>
<path id="Layer3_4_MEMBER_1_MEMBER_44_1_STROKES" class="st2" d="M216.3,166.4l0.2-0.4l0.4-1.6"/>
<path id="Layer3_4_MEMBER_1_MEMBER_45_1_STROKES" class="st2" d="M221.1,62.5L221,62l-0.3-0.2"/>
<path id="Layer3_4_MEMBER_1_MEMBER_46_1_STROKES" class="st2" d="M217,60.2l-0.1-0.4"/>
<path id="Layer3_4_MEMBER_1_MEMBER_47_1_STROKES" class="st2" d="M213,57.8l-0.1-0.4l-0.3-0.3"/>
<path id="Layer3_4_MEMBER_1_MEMBER_48_1_STROKES" class="st2" d="M209,55.5l-0.1-0.4l-0.4-0.4"/>
<path id="Layer3_4_MEMBER_1_MEMBER_49_1_STROKES" class="st2" d="M228.4,140V81.4"/>
<path id="Layer3_4_MEMBER_1_MEMBER_50_1_STROKES" class="st2" d="M226.8,78.5l-12.6-7.2l-0.6-0.2l-0.6,0.1"/>
<path id="Layer3_4_MEMBER_1_MEMBER_51_1_STROKES" class="st2" d="M228.4,81.4l-0.1-0.8l-0.9-1.6l-0.6-0.5"/>
<path id="Layer3_4_MEMBER_1_MEMBER_52_1_STROKES" class="st2" d="M227.8,141.2l0.4-0.5l0.1-0.7"/>
<path id="Layer3_4_MEMBER_1_MEMBER_53_1_STROKES" class="st2" d="M211.9,154.1l0.3,0.5l0.6,0.1l0.7-0.1l0.5-0.5l0.1-0.5"/>
<path id="Layer3_4_MEMBER_1_MEMBER_54_1_STROKES" class="st2" d="M210.7,154.1l0,0.5l0.4,0.5l0.5,0.4l0.8,0.1h0.7l0.8-0.2l0.7-0.4
	l0.4-0.5l0.3-0.6l-0.1-0.6l-0.4-0.6l-0.8-0.2"/>
<path id="Layer3_4_MEMBER_1_MEMBER_55_1_STROKES" class="st2" d="M211.5,152.8l-0.6,0.6l-0.2,0.7"/>
<path id="Layer3_4_MEMBER_1_MEMBER_56_1_STROKES" class="st2" d="M215.5,155.5l-0.1-1.7"/>
<path id="Layer3_4_MEMBER_1_MEMBER_57_1_STROKES" class="st2" d="M210.7,154.1l0,1.2"/>
<path id="Layer3_4_MEMBER_1_MEMBER_58_1_STROKES" class="st2" d="M215.5,157.2v-1.6"/>
<path id="Layer3_4_MEMBER_1_MEMBER_59_1_STROKES" class="st2" d="M210.7,155.3v1.6"/>
<path id="Layer3_4_MEMBER_1_MEMBER_60_1_STROKES" class="st2" d="M218.7,147.3v0.6l-1.2,12.9l-0.7,3.6"/>
<path id="Layer3_4_MEMBER_1_MEMBER_61_1_STROKES" class="st2" d="M215.8,164.5l-0.3-7.4"/>
<path id="Layer3_4_MEMBER_1_MEMBER_62_1_STROKES" class="st2" d="M210.7,156.9l0.2,6.3"/>
<path id="Layer3_4_MEMBER_1_MEMBER_63_1_STROKES" class="st2" d="M213.8,150.8l0-1.2"/>
<path id="Layer3_4_MEMBER_1_MEMBER_64_1_STROKES" class="st2" d="M248.9,141.9V47.7"/>
<path id="Layer3_4_MEMBER_1_MEMBER_65_1_STROKES" class="st2" d="M225.8,33l0.4-0.1l0.7,0.2l20.3,11.7l0.6,0.5l0.9,1.6l0.1,0.8"/>
<path id="Layer3_4_MEMBER_1_MEMBER_66_1_STROKES" class="st2" d="M220.1,66.6l-0.4-0.4v-0.4"/>
<path id="Layer3_4_MEMBER_1_MEMBER_67_1_STROKES" class="st2" d="M220.2,65.7l0.3,0.7l0.3-0.4v0.9"/>
<path id="Layer3_4_MEMBER_1_MEMBER_68_1_STROKES" class="st2" d="M221.2,67.2l-0.4-0.3v-0.4"/>
<path id="Layer3_4_MEMBER_1_MEMBER_69_1_STROKES" class="st2" d="M221.4,67.3v-0.6v-0.3l0.3,0.3l0.1,0.1v0.2l-0.1,0l-0.3-0.2"/>
<path id="Layer3_4_MEMBER_1_MEMBER_70_1_STROKES" class="st2" d="M216.2,64.2v-0.5v-0.4l0.4,0.2l0.1,0.2v0.1l-0.1,0.1l-0.4-0.2"/>
<path id="Layer3_4_MEMBER_1_MEMBER_71_1_STROKES" class="st2" d="M216.8,64.5v-0.7h0.1l0.2,0.1l0.1,0.2v0.8"/>
<path id="Layer3_4_MEMBER_1_MEMBER_72_1_STROKES" class="st2" d="M216.8,64.2l0.4,0.2"/>
<path id="Layer3_4_MEMBER_1_MEMBER_73_1_STROKES" class="st2" d="M211.6,61.5v-0.7"/>
<path id="Layer3_4_MEMBER_1_MEMBER_74_1_STROKES" class="st2" d="M212.2,61.9v-0.8l0.1-0.1l0.3,0.1l0.1,0.2v0.8"/>
<path id="Layer3_4_MEMBER_1_MEMBER_75_1_STROKES" class="st2" d="M212.2,61.5l0.4,0.2"/>
<path id="Layer3_4_MEMBER_1_MEMBER_76_1_STROKES" class="st2" d="M212.8,61.3v0.9l0.4,0.3"/>
<path id="Layer3_4_MEMBER_1_MEMBER_77_1_STROKES" class="st2" d="M213.4,61.6v0.9l0.4,0.2"/>
<path id="Layer3_4_MEMBER_1_MEMBER_78_1_STROKES" class="st2" d="M207.7,59.4v-0.8l0.2,0l0.4,0.3v0.8"/>
<path id="Layer3_4_MEMBER_1_MEMBER_79_1_STROKES" class="st2" d="M207.7,59.1l0.5,0.2"/>
<path id="Layer3_4_MEMBER_1_MEMBER_80_1_STROKES" class="st2" d="M208.5,59.9V59"/>
<path id="Layer3_4_MEMBER_1_MEMBER_81_1_STROKES" class="st2" d="M208.3,58.8l0.5,0.3"/>
<path id="Layer3_4_MEMBER_1_MEMBER_82_1_STROKES" class="st2" d="M209.1,60.2v-0.9"/>
<path id="Layer3_4_MEMBER_1_MEMBER_83_1_STROKES" class="st2" d="M208.9,59.1l0.4,0.2"/>
<path id="Layer3_4_MEMBER_1_MEMBER_84_1_STROKES" class="st2" d="M213.2,86.1l-11.3-6.5"/>
<path id="Layer3_4_MEMBER_1_MEMBER_85_1_STROKES" class="st2" d="M228.4,60.7l19.3-13"/>
<path id="Layer3_4_MEMBER_1_MEMBER_86_1_STROKES" class="st2" d="M218.7,84.4l5.3-3.1"/>
<path id="Layer3_4_MEMBER_1_MEMBER_87_1_STROKES" class="st2" d="M225.2,60.9c0.2,0.1,0.4,0.2,0.7,0.3s0.5,0.1,0.8,0.1
	c0.4,0,0.7,0,0.9-0.1c0.3-0.1,0.5-0.3,0.8-0.4"/>
<path id="Layer3_4_MEMBER_1_MEMBER_88_1_STROKES" class="st3" d="M233.5,73c0-0.3-0.2-0.5-0.4-0.7c-0.3-0.2-0.6-0.3-0.9-0.3
	c-0.2,0-0.3,0-0.6,0"/>
<path id="Layer3_4_MEMBER_1_MEMBER_89_1_STROKES" class="st3" d="M233.5,73c0-0.3-0.2-0.5-0.4-0.7c-0.3-0.2-0.6-0.3-0.9-0.3
	c-0.2,0-0.3,0-0.6,0"/>
<path id="Layer3_4_MEMBER_1_MEMBER_90_1_STROKES" class="st3" d="M233.5,73c0-0.3-0.2-0.5-0.4-0.7c-0.3-0.2-0.6-0.3-0.9-0.3
	c-0.2,0-0.3,0-0.6,0"/>
<path id="Layer3_4_MEMBER_1_MEMBER_91_1_STROKES" class="st2" d="M210.8,155.3l0.1,0.6l0.3,0.4l0.6,0.3l0.8,0.2h0.8l0.8-0.2l0.7-0.5
	l0.4-0.4l0.2-0.5l-0.1-0.6"/>
<path id="Layer3_4_MEMBER_1_MEMBER_92_1_STROKES" class="st2" d="M210.8,157l0.1,0.5l0.3,0.4l0.6,0.4l0.8,0.2h0.8l0.8-0.2l0.7-0.4
	l0.4-0.5l0.2-0.6l-0.1-0.6"/>
<path id="Layer3_4_MEMBER_1_MEMBER_93_1_STROKES" class="st2" d="M210.9,158.5l0.1,0.5l0.4,0.4l0.6,0.3l0.7,0.2l0.9,0l0.7-0.2
	l0.7-0.4l0.5-0.5l0.2-0.5l-0.1-0.7"/>
<path id="Layer3_4_MEMBER_1_MEMBER_94_1_STROKES" class="st2" d="M210.9,160.1l0.1,0.6l0.4,0.4l0.6,0.3l0.7,0.2h0.9l0.7-0.2l0.7-0.4
	l0.5-0.5l0.2-0.4l-0.1-0.7"/>
<path id="Layer3_4_MEMBER_1_MEMBER_95_1_STROKES" class="st2" d="M210.9,161.7l0.1,0.6l0.4,0.4l1.3,0.6l0.9-0.1l0.7-0.2l0.7-0.4
	l0.5-0.5l0.2-0.5l-0.1-0.6"/>
<path id="Layer3_4_MEMBER_1_MEMBER_96_1_STROKES" class="st2" d="M211.1,164.4l0.2,0.5l0.5,0.3l0.7,0.1l0.6-0.1l0.8-0.2l0.7-0.5
	l0.5-0.6l0.3-0.7v-0.6l-0.3-0.5"/>
<path id="Layer3_4_MEMBER_1_MEMBER_97_1_STROKES" class="st2" d="M212,166.6l0.4,0.3l0.4,0.1l1.4-0.4l0.6-0.6l0.5-0.6l0.2-0.8V164"
	/>
<path id="Layer3_4_MEMBER_1_MEMBER_98_1_STROKES" class="st2" d="M213,167.7l0.5,0.2h0.5l0.6-0.4l0.5-0.5l0.4-0.7l0.2-0.8v-0.8"/>
<path id="Layer3_4_MEMBER_1_MEMBER_99_1_STROKES" class="st2" d="M215.3,167l0.6-0.2l0.4-0.4l0.2-0.7l0-0.7l-0.2-0.8l-0.3-0.6"/>
<path id="Layer3_4_MEMBER_1_MEMBER_100_1_STROKES" class="st2" d="M216.7,164.2l0.2-0.4v-0.7l-0.7-1.1"/>
<path id="Layer3_4_MEMBER_1_MEMBER_101_1_STROKES" class="st2" d="M217.1,162.6l0.3-0.5v-0.6l-0.4-0.6l-0.5-0.5l-0.4-0.3"/>
<path id="Layer3_4_MEMBER_1_MEMBER_102_1_STROKES" class="st2" d="M217.4,160.6l0.3-0.5v-0.6l-0.3-0.6l-0.5-0.6l-0.6-0.4"/>
<path id="Layer3_4_MEMBER_1_MEMBER_103_1_STROKES" class="st2" d="M217.7,158.8l0.2-0.5v-0.6l-0.8-1.1l-1.1-0.5"/>
<path id="Layer3_4_MEMBER_1_MEMBER_104_1_STROKES" class="st2" d="M217.9,156.6l0.2-0.6l-0.2-0.5l-0.4-0.5l-1.3-0.8"/>
<path id="Layer3_4_MEMBER_1_MEMBER_105_1_STROKES" class="st2" d="M218.1,154.7v-0.6l-0.2-0.5l-0.5-0.4l-0.7-0.4l-0.7-0.1"/>
<path id="Layer3_4_MEMBER_1_MEMBER_106_1_STROKES" class="st2" d="M218.3,152.8v-0.5l-0.2-0.5l-0.5-0.4l-0.7-0.4l-0.7-0.1l-0.8,0
	l-0.8,0.2l-0.5,0.4"/>
<path id="Layer3_4_MEMBER_1_MEMBER_107_1_STROKES" class="st2" d="M218.5,151l0-0.6l-0.2-0.5l-0.4-0.5l-0.7-0.3l-0.9-0.2h-0.7
	l-1.4,0.6l-0.3,0.5l-0.1,0.6"/>
<path id="Layer3_4_MEMBER_1_MEMBER_108_1_STROKES" class="st2" d="M217.1,145.9V87.4"/>
<path id="Layer3_4_MEMBER_1_MEMBER_109_1_STROKES" class="st2" d="M218.1,145V86.2"/>
<path id="Layer3_4_MEMBER_1_MEMBER_110_1_STROKES" class="st2" d="M203.4,77.6l-1.2,0.6"/>
<path id="Layer3_4_MEMBER_1_MEMBER_111_1_STROKES" class="st2" d="M215.9,84.7l-1.1,0.6"/>
<path id="Layer3_4_MEMBER_1_MEMBER_112_1_STROKES" class="st2" d="M217.1,87.1c0-0.6-0.1-1.1-0.4-1.7c-0.3-0.5-0.7-0.9-1.1-1.3"/>
<path id="Layer3_4_MEMBER_1_MEMBER_113_1_STROKES" class="st2" d="M217.1,145.9v0.6l-0.4,1.2"/>
<path id="Layer3_4_MEMBER_1_MEMBER_114_1_STROKES" class="st2" d="M218.1,145l-0.3,1.5l-0.4,0.7l-0.4,0.4l-0.3,0.3"/>
<path id="Layer3_4_MEMBER_1_MEMBER_115_1_STROKES" class="st2" d="M215.7,84.1l-11-6.4l-0.7-0.2l-0.5,0.2"/>
<path id="Layer3_4_MEMBER_1_MEMBER_116_1_STROKES" class="st2" d="M218.1,86.6c0-0.5-0.1-1.1-0.4-1.6c-0.3-0.6-0.6-1-1-1.4"/>
<path id="Layer3_4_MEMBER_1_MEMBER_117_1_STROKES" class="st2" d="M204.9,76l-0.5,0.6l-0.3,0.7"/>
<path id="Layer3_4_MEMBER_1_MEMBER_118_1_STROKES" class="st2" d="M216.6,83.6l-11-6.4l-0.6-0.2l-0.5,0.1"/>
<path id="Layer3_4_MEMBER_1_MEMBER_119_1_STROKES" class="st2" d="M223.8,125.6v-23.4"/>
<path id="Layer3_4_MEMBER_1_MEMBER_120_1_STROKES" class="st2" d="M211.5,72.9l12.7,7.4"/>
<path id="Layer3_4_MEMBER_1_MEMBER_121_1_STROKES" class="st2" d="M220.5,98.2l1.8-0.9"/>
<path id="Layer3_4_MEMBER_1_MEMBER_122_1_STROKES" class="st2" d="M220.2,103.2l3-1.8"/>
<path id="Layer3_4_MEMBER_1_MEMBER_123_1_STROKES" class="st2" d="M220.4,128.5l2.7-1.6"/>
<path id="Layer3_4_MEMBER_1_MEMBER_124_1_STROKES" class="st2" d="M219.6,129.5l0.4,3"/>
<path id="Layer3_4_MEMBER_1_MEMBER_125_1_STROKES" class="st2" d="M222.9,96l2.1-13.9"/>
<path id="Layer3_4_MEMBER_1_MEMBER_126_1_STROKES" class="st2" d="M225,82c0-0.4,0-0.7-0.1-1.1c-0.2-0.3-0.4-0.5-0.7-0.7"/>
<path id="Layer3_4_MEMBER_1_MEMBER_127_1_STROKES" class="st2" d="M211.5,72.9l-0.5-0.2h-0.5l-0.7,0.3"/>
<path id="Layer3_4_MEMBER_1_MEMBER_128_1_STROKES" class="st2" d="M222.9,96.3l-0.4,0.6l-0.6,0.5"/>
<path id="Layer3_4_MEMBER_1_MEMBER_129_1_STROKES" class="st2" d="M220.5,98.2l-0.4,0.4l-0.1,0.4"/>
<path id="Layer3_4_MEMBER_1_MEMBER_130_1_STROKES" class="st2" d="M219.9,99.3l-0.5,3.4"/>
<path id="Layer3_4_MEMBER_1_MEMBER_131_1_STROKES" class="st2" d="M223.8,125.6l-0.1,0.5l-0.4,0.6"/>
<path id="Layer3_4_MEMBER_1_MEMBER_132_1_STROKES" class="st2" d="M219.8,132.5c0,0.2,0.1,0.4,0.2,0.5c0.1,0.1,0.2,0.1,0.5,0.1"/>
<path id="Layer3_4_MEMBER_1_MEMBER_133_1_STROKES" class="st2" d="M223,132.5l2.1,9.5"/>
<path id="Layer3_4_MEMBER_1_MEMBER_134_1_STROKES" class="st2" d="M220.8,133.1l1.4-0.8"/>
<path id="Layer3_4_MEMBER_1_MEMBER_135_1_STROKES" class="st2" d="M224.4,125.2V102"/>
<path id="Layer3_4_MEMBER_1_MEMBER_136_1_STROKES" class="st2" d="M221.3,97.8l0.6-0.4"/>
<path id="Layer3_4_MEMBER_1_MEMBER_137_1_STROKES" class="st2" d="M221,102.8l2.6-1.6"/>
<path id="Layer3_4_MEMBER_1_MEMBER_138_1_STROKES" class="st2" d="M220.5,129l0.3,3.1"/>
<path id="Layer3_4_MEMBER_1_MEMBER_139_1_STROKES" class="st2" d="M221.3,97.8l-0.4,0.3l-0.2,0.6"/>
<path id="Layer3_4_MEMBER_1_MEMBER_140_1_STROKES" class="st2" d="M220.7,98.7l-0.5,3.4"/>
<path id="Layer3_4_MEMBER_1_MEMBER_141_1_STROKES" class="st2" d="M224.2,125.6l-0.3,0.5"/>
<path id="Layer3_4_MEMBER_1_MEMBER_142_1_STROKES" class="st2" d="M220.7,132.1c0,0.2,0.1,0.3,0.2,0.4c0.1,0.1,0.2,0.2,0.4,0.2"/>
<path id="Layer3_4_MEMBER_1_MEMBER_143_1_STROKES" class="st2" d="M221.1,128l2.4-1.4"/>
<path id="Layer3_4_MEMBER_1_MEMBER_144_1_STROKES" class="st2" d="M246.7,22.7l23.1,13.4"/>
<path id="Layer3_4_MEMBER_1_MEMBER_145_1_STROKES" class="st2" d="M269.8,132V36.1"/>
<path id="Layer3_4_MEMBER_1_MEMBER_146_1_STROKES" class="st2" d="M233.4,144.3l13.6-0.9"/>
<path id="Layer3_4_MEMBER_1_MEMBER_147_1_STROKES" class="st2" d="M247.1,143.4c0.4,0,0.8-0.2,1.1-0.5c0.4-0.3,0.6-0.6,0.7-1.1"/>
<path id="Layer3_4_MEMBER_1_MEMBER_148_1_STROKES" class="st2" d="M259.7,126.3l10.1,5.8"/>
<path id="Layer3_4_MEMBER_1_MEMBER_149_1_STROKES" class="st2" d="M250.4,120.7l8.9,5.2"/>
<path id="Layer3_4_MEMBER_1_MEMBER_150_1_STROKES" class="st2" d="M246.7,42.4V22.7"/>
<path id="Layer3_4_MEMBER_1_MEMBER_151_1_STROKES" class="st2" d="M250.6,20.7l23.2,13.4"/>
<path id="Layer3_4_MEMBER_1_MEMBER_152_1_STROKES" class="st2" d="M250.6,20.7l-3.9,2"/>
<path id="Layer3_4_MEMBER_1_MEMBER_153_1_STROKES" class="st2" d="M273.8,34.1l-4,2"/>
<path id="Layer3_4_MEMBER_1_MEMBER_154_1_STROKES" class="st2" d="M273.8,130l-4,2"/>
<path id="Layer3_4_MEMBER_1_MEMBER_155_1_STROKES" class="st2" d="M265.1,58.8c0-0.2,0.1-0.3,0.2-0.4c0.1,0,0.3,0,0.5,0.1
	c0.2,0.1,0.3,0.2,0.4,0.4c0.1,0.2,0.1,0.4,0.1,0.6c0,0.2,0,0.3-0.1,0.4c-0.1,0.1-0.2,0.1-0.4,0c-0.2-0.1-0.4-0.3-0.5-0.5
	C265.1,59.2,265.1,59,265.1,58.8z"/>
<path id="Layer3_4_MEMBER_1_MEMBER_156_1_STROKES" class="st2" d="M264.4,58.8c0-0.3,0.1-0.5,0.3-0.6c0.2-0.2,0.5-0.2,0.8,0
	c0.3,0.2,0.5,0.5,0.8,0.8c0.1,0.4,0.2,0.8,0.2,1.1c0,0.3-0.1,0.6-0.2,0.6c-0.2,0.1-0.5,0.1-0.8-0.1c-0.3-0.1-0.6-0.4-0.8-0.7
	C264.5,59.5,264.4,59.1,264.4,58.8z"/>
<path id="Layer3_4_MEMBER_1_MEMBER_157_1_STROKES" class="st2" d="M250.9,51.4c0.2,0.1,0.3,0.1,0.4,0.1c0.1,0,0.2-0.2,0.2-0.4
	c0-0.2-0.1-0.5-0.2-0.6c-0.1-0.2-0.3-0.3-0.4-0.5c-0.2-0.1-0.3-0.1-0.4-0.1c-0.2,0-0.2,0.2-0.2,0.4c0,0.2,0.1,0.4,0.2,0.6
	C250.6,51.1,250.7,51.3,250.9,51.4z"/>
<path id="Layer3_4_MEMBER_1_MEMBER_158_1_STROKES" class="st2" d="M249.9,49.5c0.2-0.1,0.4-0.1,0.7,0.1c0.3,0.2,0.5,0.5,0.8,0.8
	c0.2,0.4,0.3,0.8,0.3,1.1c0,0.3-0.1,0.6-0.3,0.7c-0.2,0.1-0.4,0.1-0.8,0c-0.3-0.2-0.5-0.5-0.7-0.8c-0.2-0.4-0.4-0.8-0.4-1.1
	C249.6,49.9,249.7,49.7,249.9,49.5z"/>
<path id="Layer3_4_MEMBER_1_MEMBER_159_1_STROKES" class="st2" d="M265.6,123c0.2,0.2,0.4,0.3,0.6,0.2c0.1,0,0.1-0.2,0.1-0.4
	c0-0.2,0-0.3-0.1-0.6c-0.1-0.2-0.2-0.4-0.4-0.5c-0.2-0.1-0.4-0.1-0.5-0.1c-0.1,0.1-0.2,0.2-0.2,0.4c0,0.1,0,0.3,0,0.5"/>
<path id="Layer3_4_MEMBER_1_MEMBER_160_1_STROKES" class="st2" d="M264.9,123.3c0.2,0.3,0.5,0.5,0.7,0.6c0.3,0.1,0.5,0.1,0.6,0
	c0.1-0.1,0.2-0.3,0.2-0.6c0-0.4-0.1-0.7-0.2-1.1c-0.2-0.3-0.5-0.6-0.8-0.8c-0.3-0.2-0.6-0.2-0.8-0.1c-0.2,0.1-0.3,0.3-0.3,0.6
	c-0.1,0.3,0,0.5,0.1,0.8"/>
<path id="Layer3_4_MEMBER_1_MEMBER_161_1_STROKES" class="st2" d="M250.9,114.6c0.2,0.1,0.3,0.1,0.4,0c0.1-0.1,0.2-0.2,0.2-0.4
	c0-0.2-0.1-0.5-0.2-0.7c-0.1-0.2-0.3-0.3-0.4-0.4c-0.2-0.1-0.3-0.1-0.4-0.1c-0.2,0-0.2,0.2-0.2,0.4c0,0.2,0.1,0.4,0.2,0.6
	C250.6,114.3,250.7,114.5,250.9,114.6z"/>
<path id="Layer3_4_MEMBER_1_MEMBER_162_1_STROKES" class="st2" d="M250.6,115.3c-0.3-0.2-0.5-0.4-0.7-0.7c-0.2-0.4-0.4-0.8-0.4-1.1
	c0-0.3,0.1-0.6,0.4-0.6c0.2-0.2,0.4-0.2,0.7,0c0.3,0.2,0.5,0.4,0.8,0.8c0.2,0.4,0.3,0.7,0.3,1.1c0,0.3-0.1,0.6-0.3,0.7
	C251.3,115.5,251,115.5,250.6,115.3z"/>
<path id="Layer3_4_MEMBER_1_MEMBER_163_1_STROKES" class="st2" d="M273.8,130V34.1"/>
<path id="Layer3_4_MEMBER_1_MEMBER_164_1_STROKES" class="st2" d="M258.7,9l26.9,15.7"/>
<path id="Layer3_4_MEMBER_1_MEMBER_165_1_STROKES" class="st2" d="M257.2,132.1l27.1,15.8"/>
<path id="Layer3_4_MEMBER_1_MEMBER_166_1_STROKES" class="st2" d="M290.5,145.1V34.9"/>
<path id="Layer3_4_MEMBER_1_MEMBER_167_1_STROKES" class="st2" d="M258.8,9.1c-0.7-0.4-1.4-0.6-2.1-0.6c-0.9,0-1.7,0.3-2.4,0.8
	c-0.7,0.6-1.2,1.3-1.4,2.1"/>
<path id="Layer3_4_MEMBER_1_MEMBER_168_1_STROKES" class="st2" d="M290.6,33.9c0-1.8-0.4-3.5-1.2-5.1c-0.8-1.6-2-2.9-3.5-3.9"/>
<path id="Layer3_4_MEMBER_1_MEMBER_169_1_STROKES" class="st2" d="M290.5,35l0.1-1.1"/>
<path id="Layer3_4_MEMBER_1_MEMBER_170_1_STROKES" class="st2" d="M252.9,124.8l-0.1,0.6c0,1.3,0.3,2.6,0.9,3.8
	c0.8,1.1,1.7,2,2.9,2.7"/>
<path id="Layer3_4_MEMBER_1_MEMBER_171_1_STROKES" class="st2" d="M284.2,147.9c0.6,0.5,1.4,0.8,2.3,0.8c1,0,1.9-0.3,2.7-1
	c0.7-0.7,1.1-1.6,1.2-2.6"/>
<path id="Layer3_4_MEMBER_1_MEMBER_172_1_STROKES" class="st2" d="M252.9,19.2v-7.7"/>
<path id="Layer3_4_MEMBER_1_MEMBER_173_1_STROKES" class="st2" d="M257.5,3.9L288.6,22"/>
<path id="Layer3_4_MEMBER_1_MEMBER_174_1_STROKES" class="st2" d="M257.3,137.2l29.6,17.4"/>
<path id="Layer3_4_MEMBER_1_MEMBER_175_1_STROKES" class="st2" d="M255,135.9l1.3,0.7"/>
<path id="Layer3_4_MEMBER_1_MEMBER_176_1_STROKES" class="st2" d="M294.3,151.2V33.8"/>
<path id="Layer3_4_MEMBER_1_MEMBER_177_1_STROKES" class="st2" d="M250.6,18.9V6.7"/>
<path id="Layer3_4_MEMBER_1_MEMBER_178_1_STROKES" class="st2" d="M257.6,3.9c-0.8-0.4-1.6-0.6-2.4-0.6c-1,0-2,0.3-2.8,1
	c-0.9,0.7-1.5,1.5-1.7,2.4"/>
<path id="Layer3_4_MEMBER_1_MEMBER_179_1_STROKES" class="st2" d="M294.3,32.6c0-2.1-0.5-4.1-1.4-5.9c-0.9-1.8-2.3-3.3-4-4.5"/>
<path id="Layer3_4_MEMBER_1_MEMBER_180_1_STROKES" class="st2" d="M294.3,34l0.1-1.4"/>
<path id="Layer3_4_MEMBER_1_MEMBER_181_1_STROKES" class="st2" d="M250.6,127.8v0.6c0,1.6,0.4,3,1.2,4.3c0.8,1.3,1.9,2.3,3.2,3.1"/>
<path id="Layer3_4_MEMBER_1_MEMBER_182_1_STROKES" class="st2" d="M287,154.6c0.8,0.6,1.7,0.8,2.7,0.8c1.2,0,2.3-0.4,3.2-1.2
	c0.9-0.8,1.4-1.8,1.5-2.9"/>
<path id="Layer3_4_MEMBER_1_MEMBER_183_1_STROKES" class="st2" d="M289.4,46.1c-0.2-0.1-0.3-0.2-0.5-0.4c-0.1-0.2-0.2-0.4-0.2-0.6
	c0-0.2,0.1-0.4,0.2-0.5c0.2-0.1,0.3,0,0.5,0.1c0.1,0.1,0.3,0.3,0.4,0.5c0.1,0.2,0.2,0.4,0.2,0.6c0,0.2-0.1,0.3-0.2,0.4
	C289.7,46.3,289.6,46.3,289.4,46.1z"/>
<path id="Layer3_4_MEMBER_1_MEMBER_184_1_STROKES" class="st2" d="M273.9,36.6c0-0.2,0.1-0.4,0.2-0.5c0.1,0,0.2,0,0.4,0.1
	c0.2,0.1,0.3,0.2,0.4,0.4c0.1,0.2,0.1,0.5,0.1,0.7c0,0.2,0,0.3-0.1,0.4c-0.1,0-0.3,0-0.4,0c-0.2-0.1-0.3-0.3-0.4-0.5
	C274,37,273.9,36.8,273.9,36.6z"/>
<path id="Layer3_4_MEMBER_1_MEMBER_185_1_STROKES" class="st2" d="M289.2,109.2c0.2,0.3,0.4,0.4,0.6,0.3c0.1-0.1,0.2-0.2,0.2-0.4
	c0-0.2-0.1-0.5-0.2-0.6c-0.1-0.2-0.3-0.4-0.4-0.5c-0.2-0.1-0.3-0.1-0.5-0.1c-0.2,0.2-0.2,0.5-0.1,0.8"/>
<path id="Layer3_4_MEMBER_1_MEMBER_186_1_STROKES" class="st2" d="M274.6,100.8c-0.2-0.1-0.3-0.2-0.4-0.4c-0.2-0.2-0.2-0.5-0.2-0.7
	c0-0.2,0.1-0.3,0.2-0.4c0.1,0,0.2,0,0.4,0.1c0.2,0.1,0.3,0.3,0.4,0.5c0.1,0.2,0.1,0.4,0.1,0.6c0,0.2,0,0.3-0.1,0.4
	C274.9,101,274.8,100.9,274.6,100.8z"/>
<path id="Layer3_4_MEMBER_1_MEMBER_187_1_STROKES" class="st2" d="M275.2,129.9l14,8.1"/>
<path id="Layer3_4_MEMBER_1_MEMBER_188_1_STROKES" class="st2" d="M250.6,127.8v-4.7"/>
<path id="Layer3_4_MEMBER_1_MEMBER_189_1_STROKES" class="st2" d="M263.8,26.8V14.9"/>
<path id="Layer3_4_MEMBER_1_MEMBER_190_1_STROKES" class="st2" d="M257,126.3l-2.8,1.6"/>
<path id="Layer3_4_MEMBER_1_MEMBER_191_1_STROKES" class="st2" d="M210.3,102.8l2.9-15.7"/>
<path id="Layer3_4_MEMBER_1_MEMBER_192_1_STROKES" class="st2" d="M209.6,103.2l0.8,0.5"/>
<path id="Layer3_4_MEMBER_1_MEMBER_193_1_STROKES" class="st2" d="M210.3,103.5v29.8"/>
<path id="Layer3_4_MEMBER_1_MEMBER_194_1_STROKES" class="st2" d="M210.3,133.6l2.9,13.7"/>
<path id="Layer3_4_MEMBER_1_MEMBER_195_1_STROKES" class="st2" d="M209.9,103.6L198.5,97"/>
<path id="Layer3_4_MEMBER_1_MEMBER_196_1_STROKES" class="st2" d="M209.6,133.2l-11.3-6.5"/>
<path id="Layer3_4_MEMBER_1_MEMBER_197_1_STROKES" class="st2" d="M224.9,60.8l-19.9-11.6"/>
<path id="Layer3_4_MEMBER_1_MEMBER_198_1_STROKES" class="st2" d="M226.6,73V62"/>
<path id="Layer3_4_MEMBER_1_MEMBER_199_1_STROKES" class="st2" d="M233.7,143.9V73.4"/>
<g>
	<text transform="matrix(1 0 0 1 41.1875 161.7398)" class="st8 st9">2330-HS2-P1</text>
</g>
<path id="Layer3_5_MEMBER_1_1_STROKES" class="st10" d="M134,171.4H32.4v-27.8H134V171.4z"/>
</svg>
