<?xml version="1.0" encoding="utf-8"?>
<!-- Generator: Adobe Illustrator 24.3.0, SVG Export Plug-In . SVG Version: 6.00 Build 0)  -->
<svg version="1.1" id="Ebene_1" xmlns="http://www.w3.org/2000/svg" xmlns:xlink="http://www.w3.org/1999/xlink" x="0px" y="0px"
	 viewBox="0 0 349.1 174.8" style="enable-background:new 0 0 349.1 174.8;" xml:space="preserve">
<style type="text/css">
	.st0{fill:#B1B1B1;}
	.st1{fill:#0099FF;}
	.st2{fill:#0033FF;}
	.st3{fill:none;stroke:#373535;stroke-width:0.55;stroke-miterlimit:5;}
	.st4{fill:none;stroke:#373535;stroke-width:0.55;stroke-miterlimit:59.9994;}
	.st5{fill:none;stroke:#373535;stroke-width:0.25;stroke-miterlimit:5;}
	.st6{fill:none;stroke:#373535;stroke-width:0.25;stroke-miterlimit:59.9994;}
</style>
<path class="st0" d="M236.2,87.6l0.9-1l4.1-6.2l0,0l-0.8-1.2h0l-0.8-1.3l-132.1,87.2h0l-0.8,1.3l-1.6,0.1l-0.3,0.3l-0.2,0.3
	l-0.1,0.1l-0.3,0.2l-0.3,0.1l-0.4,0.1h-0.2l-0.1,0.1l-0.2,0.4l-0.3,0.7l-0.2,0.3l-0.3,0.3h0l-0.1,0.1l-0.1,0.1l-0.2,0.3l0,0.1
	l-0.1,0.1l-0.1,0.3v0.1l2.4,3.6h0l0,0v0.1h0.1v0h0v0.1h0.1v0h0v0h0.1v0h0.1v0h0.3v0h0.1L236.2,87.6 M264.1,3l-1,0.8l-5,2.5l-3.5,1.2
	l-4.1,0.8l-1.2,0.6l-0.9,0.9l-1.5,3.2l-0.9,1l-1.4,0.9l-6.2,2.3l-1.9,1l-7.3,5.7l-0.9,1.1l-0.4,0.8l-0.2,0.7l-0.1,0.6l-0.2,0.6
	l-0.5,0.6l-1.1,0.5l-5.3,0.9l-1.2,0.5l-0.6,0.5l-0.9,1.8l-0.6,0.7l-4.4,2.9l-2.9,1.3l-0.9,0.1l-0.7-0.1l-0.6-0.2l-0.6,0l-0.7,0.2
	l-0.7,0.6l-1.7,2.9l-0.9,1l-1.3,0.8l-7,3l-1,0.7l-2.7,2.9l-1,0.8l-1,0.6l-3.4,1.3l-1.2,0.8l-1.3,1.3l-3.2,4.5l-0.9,0.9l-0.8,0.3
	h-0.6l-1.3-0.2l-0.8,0.2l-1,0.5l-4.4,3l-0.7,0.2l-1.1,0.1l-0.6,0.1l-0.8,0.3l-1.1,1l-4.7,5l-1.3,1l-1,0.3l-2.5-0.3l-0.8,0.3
	l-0.7,0.6l-1.3,2.8l-0.7,0.8l-0.8,0.5l-0.9,0.4l-2.5,0.6l-1,0.4l-1.3,0.8l-3.6,3.2L142,82l-1.2,0.3l-0.9,0l-0.5,0.1l-1.8,0.8h0
	L132.6,97l1,1.3l1.5-4.2L265.9,7.9v0l0.1-0.1v-1l-1.2-1.1l0.5-4.8l-0.6,1.6L264.1,3z"/>
<path class="st1" d="M269.1,10.8l-3.3-1.9v-1v0L135.1,94.1l-1.5,4.2l-0.2,0.6l0,0v0l0,0v0l0,0v0.1h0l0,0v0l0,0v0l-0.1,0.1l0,0.1h0
	l0,0v0l-0.2,0.3h-0.1l0,0.1h0v0h-0.1l-0.1,0.1h-0.1l-25.2,14.3l-0.5,0.4l-0.9,0.9l-1.1,1.5l-0.1,0.1l-0.2,0.3l-0.1,0.2l-0.1,0.1
	l-0.7,2l-0.3,1.4l-0.3,2.2l-0.1,25.7l0,0.2v0.1l0,0.2v0.3l0,0.3v0.1l-0.1,0.3v0.1l-0.3,1.6l0,0.1l0,0.3l-0.1,0.1l-0.2,0.6l-0.1,0.1
	v0.1l-0.3,0.5v0.1l-0.1,0.1v0.1l-4.5,6.9l-0.1,0.6v0.1l0.1,0.1v0.1h0v0.1l0,0v0.1h0v0.1l0,0l1.7,2.4l2,1.7l131.8-87l4.1-6.1l0-0.1
	l0.1-0.1l-1.7-2.4h0l0.3-0.8l0.1-0.1L236,70l0-0.1l0.1-0.2l0.7-2.1v-0.1l0.1-0.1l0-0.3l0.1-0.2l0.1-0.9l0.1-0.2v-0.3l0.1-0.3V65
	l0-0.3v-0.2l0.1-0.4v-0.5l0-0.1l0-24.5l0-0.2v-0.4l0-0.2v-0.6l0.2-1.3l0.1-0.2l0.3-1.5l27.8-18.3l0.4-3.2L269.1,10.8 M224.6,69.3
	l0.2,0.3l0.1,0.1l0.5,0.8l0.3,0.6l0,0.1l0.1,0.1l0.2,0.7l0.1,0.6v0.1l0,0.2v0.6l0,0.1v0.2l-0.3,1.3l-0.1,0.1l-0.3,0.6l-0.1,0.1
	l-0.6,0.8l-0.5,0.6l-7.4,6.2l-0.2,0.1l-0.1,0h-0.2h-0.1l-0.7-0.3l-0.8-0.6l-0.4-0.4l-0.8-1.3l-0.4-1.3l0-0.8l0.2-0.5l6.2-5.2l0,0
	l-3.5-3l0,0l0-0.1l-0.1-0.1v-0.1l0-0.2v-0.4l0.1-0.6l0.1-0.1l0.2-0.5l0.2-0.3l0-0.1l0.8-1.3l0.1-0.1l0.3-0.3l0.1-0.1l0.1-0.1
	l0.2-0.1l0.5-0.3l0.4-0.2h0.1h0.3l0.2,0.1l0,0L224.6,69.3 M152.1,93.7l0.8-0.8l1.2-0.9l0.2-0.1l0.2-0.1l0.8-0.4l0.2-0.1l0.8-0.4
	l1.9-0.7L159,90h0.1h0l0.2,0h0.1h0.2l0.1,0h0.2l0.6,0.8l0.2,0.5l0,0.1l-0.1,0.3l-0.1,0.2l-0.3,0.4l-0.9,0.9l1.5,3.9l4.5,1.3h0.1
	l0.1,0l0.1,0.2l0,0.1l0.1,0.1l0,0.1l0.2,0.7v0.1l0,0.1v0.6l0,0.1v0.1l0,0.4v0.1l-0.1,0.5l-0.1,0.2l-0.1,0.6l-0.4,1.2l-0.1,0.1l0,0.1
	l-0.3,0.5l-0.3,0.3h-0.1l-0.1,0.1h-0.1l-0.1,0.1l-0.1,0H164l-0.1,0h0h-0.1l-0.1,0h0l-4.1-1.2l-0.4-0.1l-0.2-0.1H159l-0.1-0.1l-0.1,0
	l-0.1,0l-0.6-0.4l-0.1-0.1L158,103l-0.1-0.1l-0.1,0l-0.1-0.1l-0.1-0.1l-0.1,0l-0.1-0.1l-0.2-0.1l-0.1-0.1l-0.1,0L157,102l-0.1,0
	l-0.1-0.1l-0.2-0.3l-0.1,0l-0.3-0.5l-0.1-0.1l-0.2-0.4l0-0.1l-0.2-0.3l-0.1-0.3l-1.7-4.1l-0.9,0.2h-0.5h-0.1l-0.3-0.1l-0.1-0.1
	l-0.1-0.1l-0.4-1l0-0.6L152.1,93.7 M102.4,156.5l-0.1,0.1l0.2-0.3l0.1-0.2l0,0.1l-0.1,0.1L102.4,156.5z"/>
<path class="st2" d="M153,92.9l-0.8,0.8l-0.4,0.5l0,0.6l0.4,1l0.1,0.1l0.1,0.1l0.3,0.1h0.5l0.9-0.2l0.1,0l2,4.8l0.2,0.4l0.1,0.1
	l0.3,0.5l0.1,0l0.2,0.3l0.1,0.1l0.1,0l0.2,0.3l0.1,0l0.1,0.1l0.1,0.1l0.1,0.1l0.1,0.1l0.1,0.1l0.1,0l0.1,0.1l0.1,0.1l0.1,0l0.1,0.1
	l0.2,0.1l0.5,0.3l5,1.6h0l0.1,0h0l0.1,0h0.1l0.1,0l0.1-0.1h0.1l0.1-0.1h0.1l0.3-0.3l0.3-0.5l0-0.1l0.1-0.1l0.4-1.2l0.1-0.6l0.1-0.2
	l0.1-0.5v-0.1l0-0.4v-0.1l0-0.1v-0.6l0-0.1v-0.1l-0.2-0.7l0-0.1l-0.1-0.1l0-0.1l-0.1-0.2l-0.1,0h-0.1l-4.5-1.3l-1.5-3.9l0.9-0.9
	l0.3-0.4l0.1-0.2l0.1-0.3l0-0.1l-0.2-0.5l-0.6-0.8h-0.2l-0.1,0h-0.2l-0.2,0h-0.1h0l-0.7,0.1l-1.9,0.7l-0.8,0.4l-0.2,0.1l-0.8,0.4
	l-0.2,0.1l-0.2,0.1L153,92.9 M224.8,69.6l-0.2-0.3l-4.8-4.1l0,0l-0.2-0.1h-0.3l-0.4,0.2l-0.5,0.3l-0.2,0.1l-0.1,0.1l-0.1,0.1
	l-0.3,0.3l-0.1,0.1l-0.7,1l-0.1,0.1l-0.1,0.1l0,0.1l-0.2,0.3l-0.2,0.6l-0.1,0.6v0.4l0,0.2v0.1l0.1,0.1l0,0.1l0,0l3.5,3l0,0l-6.2,5.2
	l-0.2,0.5l0,0.8l0.4,1.3l0.8,1.3l0.4,0.4l0.8,0.6l0.7,0.3h0.2l0.1,0l0.2-0.1l7.4-6.2l0.5-0.6l0.6-0.8l0.1-0.1l0.3-0.6l0.1-0.1
	l0.3-1.3v-0.2l0-0.1v-0.6l0-0.2v-0.1l-0.1-0.6l-0.2-0.7l-0.1-0.1l0-0.1l-0.3-0.6l-0.5-0.8L224.8,69.6 M220.1,72.9L220.1,72.9
	L220.1,72.9l0,0.1H220v0l-0.1,0l0,0h0L220.1,72.9L220.1,72.9z"/>
<path id="Layer6_5_MEMBER_0_1_STROKES" class="st3" d="M160.2,103.9l3.6,1h0l0.1,0l0.1,0l0,0l0.1,0l0.1-0.1l0,0l0.1-0.1l0.1,0l0-0.1
	l0.2-0.2l0-0.1l0.1-0.2l0-0.1l0.1-0.1l0-0.1l0.1-0.1l0-0.1l0.1-0.1l0.1-0.3l0.1-0.1l0.1-0.4l0.1-0.3l0-0.2l0-0.2l0-0.2l0.1-0.5V101
	l0-0.3v-0.2l0-0.1v-0.6l0-0.1v-0.1l-0.2-0.7l0-0.1l0-0.1l0-0.1l-0.1-0.2l-0.1-0.1h-0.1l-4.9-1.4h-0.1l0,0h0v0H160l0,0h0v0h0l0,0h0
	l0,0h0v0h0l0,0h0l0-0.1h0v0h0v0h0l-0.1-0.1h0"/>
<path id="Layer6_5_MEMBER_1_1_STROKES" class="st4" d="M220.2,72.7L220.2,72.7L220.2,72.7l-0.1,0.1l0,0l0,0.1l0,0l0,0l0,0l0,0l0,0
	l0,0h0l0,0l-6,5.1l0.1-0.1l0.1-0.1l0.2,0l0.1,0h0.2l0.2,0.1l0.2,0.1l0.2,0.1l0.2,0.1l0.8,0.7l0.5,0.7l0.4,0.8l0.2,0.5l0.2,0.8l0,0.4
	v0.2l0,0.2l0,0.2l-0.1,0.2l-0.1,0.1l-0.1,0.1l7.3-6.1l0.4-0.4l0.1-0.1l0.2-0.2l0.3-0.4l0.1-0.1l0.1-0.1l0.2-0.4l0-0.1l0.1-0.1
	l0.2-0.7l0-0.3l0-0.2l0-0.1v-0.2l0-0.2v-0.6l0-0.2v-0.1l-0.1-0.6l-0.2-0.7l-0.1-0.1l0-0.2l-0.3-0.6l-0.5-0.8l-0.1-0.1l-0.2-0.3
	l-4.8-4.1l0-0.1l-0.2-0.1h-0.3L219,65l-0.1,0.1l-0.1,0l-0.5,0.3l-0.2,0.2l-0.1,0.1l-0.1,0.1l-0.3,0.3l-0.1,0.1l-0.4,0.5l-0.1,0.1
	l-0.1,0.1l-0.1,0.3l-0.1,0.1l-0.1,0.1l0,0.1l-0.1,0.3l-0.2,0.5l0,0.1l-0.1,0.6v0.4l0,0.2v0.1l0,0.1l0,0.2l0,0l3.5,3l0,0l0.2-0.2
	 M220,72.8L220,72.8L220,72.8l0.1-0.1l0,0l0-0.1l0-0.1l0-0.1l0-0.1l0,0l0-0.1l0-0.1l0-0.1l0,0v-0.1l0,0l0-0.1v0l0-0.1l0,0v0l0-0.1
	v-0.1l0,0v-0.1l0-0.1v-0.3l0-0.1v-0.2l0,0V71 M213.7,78.2L213.7,78.2l-0.2,0.4l0,0.2l0,0.2v0.2l0,0.4l0.1,0.5l0.3,0.8l0.1,0.3l0.6,1
	l0.4,0.4l0.4,0.4l0.4,0.3l0.4,0.2l0.3,0.1h0.1l0.1,0l0.1-0.1l0.1-0.1 M220,72.8L220,72.8 M220.2,72.7L220.2,72.7"/>
<path id="Layer6_5_MEMBER_2_1_STROKES" class="st5" d="M215.8,79.6l0.3,0.4l0.3,0.5l0.4,1l0.1,0.8v0.1l0,0.2l0,0.1l0,0.1l0,0l0,0.1
	h-0.1l-0.1,0h-0.1l-0.1,0l-0.3-0.1l-0.1-0.1l-0.5-0.4l-0.5-0.6l-0.6-1l-0.3-0.7l-0.1-0.4l-0.1-0.4v-0.3l0-0.1l0-0.2l0-0.1l0-0.1l0,0
	h0l0.1,0h0.1l0.2,0.1l0.5,0.3l0.5,0.5L215.8,79.6z"/>
<path id="Layer6_5_MEMBER_3_1_STROKES" class="st3" d="M108.3,166.1l-0.8-1.2"/>
<path id="Layer6_5_MEMBER_4_1_STROKES" class="st3" d="M101,166.8l132.1-87.1"/>
<path id="Layer6_5_MEMBER_5_1_STROKES" class="st3" d="M105.2,160.5l132.1-87.1"/>
<path id="Layer6_5_MEMBER_6_1_STROKES" class="st3" d="M105.2,160.5l-0.3,0.5l-3.8,5.8"/>
<path id="Layer6_5_MEMBER_7_1_STROKES" class="st3" d="M151.7,94.7l0.4,1"/>
<path id="Layer6_5_MEMBER_8_1_STROKES" class="st3" d="M160.1,90.1l-0.1-0.1l-0.1,0l-0.1-0.1l-0.1,0h-0.1l-0.1,0h-0.2l-0.1,0H159
	l-0.6,0.1l-1.9,0.7l-0.4,0.2l-0.4,0.2l-0.2,0.1l-0.2,0.1l-0.6,0.3l-0.2,0.1l-0.2,0.1l-1.2,0.9l-0.9,0.8l-0.4,0.5l0,0.1l0,0.1v0.1"/>
<path id="Layer6_5_MEMBER_9_1_STROKES" class="st3" d="M160.5,91.2l-0.4-1"/>
<path id="Layer6_5_MEMBER_10_1_STROKES" class="st3" d="M159.3,93.1l0.4-0.3l0.4-0.5l0.3-0.4l0.1-0.2l0.1-0.3l0-0.1l-0.1-0.1
	l-0.1-0.1l-0.1-0.1l-0.4-0.1l-0.6,0.1l-1,0.2l-1.6,0.6l-2.8,1.6l-0.6,0.5l-0.7,0.7l-0.3,0.4l-0.1,0.2l0,0.2l0,0.2l0,0.1l0.1,0.1
	l0.1,0.1l0.2,0.1l0.2,0.1h0.5l0.9-0.2"/>
<path id="Layer6_5_MEMBER_11_1_STROKES" class="st3" d="M155.8,99.9l0.1,0.3l0.2,0.3l0,0.1l0.2,0.3l0.1,0.1l0.3,0.4l0.1,0.1l0.2,0.3
	l0.1,0.1l0.1,0.1l0.2,0.2l0.1,0.1l0.1,0.1l0.1,0.1l0.1,0.1l0.1,0.1l0.1,0.1l0.1,0.1l0.1,0.1l0.1,0.1l0.1,0.1l0.1,0.1l0.1,0.1
	l0.1,0.1l0.1,0.1l0.2,0.1l0.1,0.1l0.3,0.2l0.1,0l0.1,0.1l0.1,0.1l0.1,0l0.2,0.1l0.3,0.1"/>
<path id="Layer6_5_MEMBER_12_1_STROKES" class="st3" d="M153.8,95l1.8,4.6"/>
<path id="Layer6_5_MEMBER_13_1_STROKES" class="st3" d="M158.6,92.2h-0.1l-0.1,0h-0.1l-0.1,0h-0.2l-0.1,0l-0.2,0l-0.4,0.1l-0.1,0.1
	l-0.1,0l-0.1,0.1l-0.1,0l-0.1,0.1l-0.1,0l-0.1,0.1l-0.1,0.1l-0.1,0.1l-0.6,0.3l-0.3,0.2l-0.1,0.1l-0.2,0.2l-0.2,0.2l-0.1,0.1
	l-0.2,0.2l-0.1,0.1l-0.1,0.1l-0.1,0.1l-0.1,0.1l-0.1,0.1l-0.1,0.1l-0.1,0.2"/>
<path id="Layer6_5_MEMBER_14_1_STROKES" class="st3" d="M160.7,97.1l-1.9-4.7"/>
<path id="Layer6_5_MEMBER_15_1_STROKES" class="st3" d="M134.3,103l132.3-87.3"/>
<path id="Layer6_5_MEMBER_16_1_STROKES" class="st3" d="M103.5,158l30.7-20.3"/>
<path id="Layer6_5_MEMBER_17_1_STROKES" class="st3" d="M134.2,137.7l80.9-53.3"/>
<path id="Layer6_5_MEMBER_18_1_STROKES" class="st3" d="M223.6,78.7l12-7.9"/>
<path id="Layer6_5_MEMBER_19_1_STROKES" class="st3" d="M104.3,159.2l30-19.8"/>
<path id="Layer6_5_MEMBER_20_1_STROKES" class="st3" d="M134.3,139.4l102.1-67.3"/>
<path id="Layer6_5_MEMBER_21_1_STROKES" class="st3" d="M135.2,94L267.3,6.8"/>
<path id="Layer6_5_MEMBER_22_1_STROKES" class="st3" d="M136,95L268.1,7.8"/>
<path id="Layer6_5_MEMBER_23_1_STROKES" class="st3" d="M137.3,96.4L269.4,9.2"/>
<path id="Layer6_5_MEMBER_24_1_STROKES" class="st3" d="M100.1,165.6h-0.2v0h-0.1v0h0l0,0h0l0,0h0v0h0"/>
<path id="Layer6_5_MEMBER_25_1_STROKES" class="st3" d="M97.6,162.5L97.6,162.5L97.6,162.5L97.6,162.5L97.6,162.5l0-0.1h0v0h0v-0.1
	l0,0v0l0,0v-0.1h0v-0.1l0,0v0l0,0V162l0,0v-0.3h0"/>
<path id="Layer6_5_MEMBER_26_1_STROKES" class="st3" d="M104.3,159.3l-0.1,0.2l-0.1,0.3l-3.8,5.7"/>
<path id="Layer6_5_MEMBER_27_1_STROKES" class="st3" d="M97.4,161.4l4.2-6.3"/>
<path id="Layer6_5_MEMBER_28_1_STROKES" class="st3" d="M101,166.8l-0.9-1.2"/>
<path id="Layer6_5_MEMBER_29_1_STROKES" class="st3" d="M99.5,165.4l-1.9-2.8"/>
<path id="Layer6_5_MEMBER_30_1_STROKES" class="st3" d="M105.2,160.5l-1.7-2.4"/>
<path id="Layer6_5_MEMBER_31_1_STROKES" class="st3" d="M101.7,155l0.3-0.5l0-0.1l0.1-0.1l0-0.1l0.2-0.6l0-0.1l0-0.1l0-0.1l0-0.1
	l0-0.1l0-0.1l0-0.1l0-0.1l0-0.3l0-0.1l0.3-1.6v-0.1l0-0.3v-0.1l0-0.3v-0.3l0-0.2v-0.1l0-0.2v-0.6l0-0.1v-9.8"/>
<path id="Layer6_5_MEMBER_32_1_STROKES" class="st3" d="M103.1,138.6l0.1-15.2l0.1-1.1l0.1-0.7l0-0.2l0-0.2l0.3-1.4l0.1-0.2l0-0.2
	l0.1-0.2l0-0.2l0.5-1.2l0.1-0.2l0.1-0.2l0.2-0.3l0.1-0.2l0.5-0.7l0.6-0.8l0.3-0.3l0.6-0.5l0.5-0.3l25.2-14.3l0,0h0l0,0h0l0,0l0,0
	l0,0h0v0h0l0-0.1h0v0h0l0.2-0.2v0l0,0h0v0l0-0.1v0l0-0.1v0l0-0.1v0l0,0v0h0V99l0,0v0l0,0v0l0,0v-0.1l0,0l1.7-4.9"/>
<path id="Layer6_5_MEMBER_33_1_STROKES" class="st3" d="M137.3,96.4l-2.1-2.4l3.4-9.6"/>
<path id="Layer6_5_MEMBER_34_1_STROKES" class="st3" d="M99.6,163.9l-1.1-1.6"/>
<path id="Layer6_5_MEMBER_35_1_STROKES" class="st3" d="M137.3,96.4l-1.7,4.9v0l0,0.1l0,0l0,0.1v0l0,0.1v0l0,0l0,0.1v0l0,0.1l0,0
	l0,0.1v0l0,0.1l0,0.1l0,0v0l0,0l0,0.1l-0.1,0.1l0,0.1v0l-0.1,0.1l0,0.1h0l0,0.1l-0.3,0.3h0l0,0l-0.1,0.1h0l0,0l0,0l0,0.1l-0.1,0l0,0
	h0l0,0.1h0l-24.9,14.2l-0.1,0.1l-0.1,0.1l-0.1,0.1l-0.4,0.3l-0.1,0.1l-0.1,0.1l-0.2,0.2l-0.6,0.7l-0.3,0.3l-0.1,0.1l-0.2,0.2
	l-0.6,1.1l0,0.2l-0.1,0.1l0,0.2l-0.1,0.3l-0.1,0.3l-0.1,0.2l0,0.2l-0.3,1l0,0.3l0,0.2l-0.1,1v0.2l0,0.2v0.2l0,0.2v0.2l0,0.2l0,14.3"
	/>
<path id="Layer6_5_MEMBER_36_1_STROKES" class="st3" d="M105.3,140.1l0,10.3l0,0.2v0.3l0,0.2v0.2l0,0.2v0.2l0,0.3v0.2l-0.3,1.7
	l0,0.2l0,0.3l0,0.1l-0.1,0.4l0,0.1l-0.1,0.3l0,0.1l-0.4,1.1l-0.1,0.2L104,157l-0.1,0.1l-0.1,0.3l-0.1,0.1l0,0.1l-0.1,0.1l-0.1,0.2
	l-0.1,0.2l-0.1,0.2l-0.1,0.1l0,0.1l-3.5,5.3"/>
<path id="Layer6_5_MEMBER_37_1_STROKES" class="st3" d="M133.8,100.7L133.8,100.7L133.8,100.7L133.8,100.7l-0.1,0.1v0h0l-0.1,0.1h0
	v0l0,0h0l0,0h0l0,0.1h0l-0.1,0.1h0"/>
<path id="Layer6_5_MEMBER_38_1_STROKES" class="st3" d="M104.1,125.5v-0.7l0-0.2v-0.4l0.1-0.8v-0.2l0.2-1l0-0.2l0-0.2l0.4-1.5l0-0.2
	l0.5-1.2l0.2-0.3l0.1-0.3l0.1-0.1l0.1-0.2l1-1.4l0.8-0.7l0.7-0.5"/>
<path id="Layer6_5_MEMBER_39_1_STROKES" class="st3" d="M104,148.7v0.6l0,0.2v0.4l0,0.2v0.2l0,0.2v0.2l0,0.4l0,0.3v0.2l-0.2,1.1
	l0,0.2l-0.1,0.4l0,0.1l0,0.3l0,0.1l0,0.1l-0.1,0.3l0,0.1l-0.1,0.4l0,0.1l-0.3,0.8l-0.2,0.4l-0.1,0.1l-0.1,0.2l-0.1,0.1l0,0.1
	l-0.2,0.3"/>
<path id="Layer6_5_MEMBER_40_1_STROKES" class="st3" d="M134.3,99.8L136,95"/>
<path id="Layer6_5_MEMBER_41_1_STROKES" class="st3" d="M108.3,115.4l24.9-14.2"/>
<path id="Layer6_5_MEMBER_42_1_STROKES" class="st3" d="M104,148.7l0-9.5"/>
<path id="Layer6_5_MEMBER_43_1_STROKES" class="st3" d="M104,139.2l0-13.7"/>
<path id="Layer6_5_MEMBER_44_1_STROKES" class="st3" d="M98.5,162.3l3.5-5.2"/>
<path id="Layer6_5_MEMBER_45_1_STROKES" class="st5" d="M103.3,171.2l-1.3-1.9 M109.1,167.3l-0.8-1.2"/>
<path id="Layer6_5_MEMBER_46_1_STROKES" class="st4" d="M107.4,165l-0.3,0.5l-0.1,0.1l-3.7,5.6l0.8,1.2l3.7-5.6l0.1-0.1l0.1-0.1
	l0.1-0.1l0.1-0.1l0.1-0.1l0.1-0.1L240.4,79 M108.3,166.2L108.3,166.2"/>
<path id="Layer6_5_MEMBER_47_1_STROKES" class="st5" d="M104.4,174.4l132.1-87.1"/>
<path id="Layer6_5_MEMBER_48_1_STROKES" class="st3" d="M107.5,164.8l132-87.1"/>
<path id="Layer6_5_MEMBER_49_1_STROKES" class="st6" d="M241.2,80.2l-132.1,87.1l0,0l-0.1,0.1l-0.1,0.1l-0.1,0.1l-0.1,0.1l-0.1,0.1
	l-0.1,0.1l-4.2,6.3h0v0h0v0h0 M103.9,174.1L103.9,174.1L103.9,174.1L103.9,174.1l-0.1-0.1h0v0l-2.4-3.6v0l0-0.1l0.1-0.3l0.1-0.1
	l0-0.1l0.2-0.3l0.1-0.1l0.1-0.1l0.1-0.1l0.1-0.1l0.2-0.2l0.2-0.3l0.1-0.2l0.2-0.5l0.1-0.2l0.1-0.2l0.1-0.1l0.1,0h0.1l0.3-0.1
	l0.2-0.1l0.2-0.1l0.2-0.1l0.3-0.2l0.1-0.1l0.2-0.3l0.1-0.1l0.2-0.1l0.3-0.1l1.4-0.1 M104.5,174.3L104.5,174.3L104.5,174.3l-0.3,0v0
	h0l0,0h0v0h0v0h0v0h0l0,0h0l0-0.1 M103.9,174.1L103.9,174.1L103.9,174.1L103.9,174.1L103.9,174.1L103.9,174.1L103.9,174.1l-0.1-0.1
	l0,0 M103.8,174L103.8,174 M103.9,174.1L103.9,174.1 M103.8,174L103.8,174"/>
<path id="Layer6_5_MEMBER_50_1_STROKES" class="st3" d="M240.4,79l-0.8-1.2"/>
<path id="Layer6_5_MEMBER_51_1_STROKES" class="st3" d="M237.2,73.3l-0.1,0.1l0,0.1l-4,6"/>
<path id="Layer6_5_MEMBER_52_1_STROKES" class="st3" d="M237.2,73.3l-1.7-2.4"/>
<path id="Layer6_5_MEMBER_53_1_STROKES" class="st3" d="M238.1,34.5l-0.3,1l-0.1,0.5l0,0.2l-0.2,1.3v0.2l0,0.2V38l0,0.2v0.4l0,0.2
	v7.2"/>
<path id="Layer6_5_MEMBER_54_1_STROKES" class="st3" d="M237.4,46.1l0,17.3l0,0.2V64l0,0.3v0.2l0,0.3V65l0,0.3v0.2l0,0.2l0,0.2
	l-0.1,0.9l0,0.2l0,0.3l0,0.2l0,0.1l0,0.2l0,0.1l-0.1,0.4l0,0.1l-0.4,1.2l-0.1,0.2l0,0.1L236,70l0,0.1l-0.3,0.7"/>
<path id="Layer6_5_MEMBER_55_1_STROKES" class="st5" d="M240.4,79l0.8,1.2l0,0.1l-0.3,0.6l-4.2,6.4l0,0l0,0h0v0"/>
<path id="Layer6_5_MEMBER_56_1_STROKES" class="st3" d="M137.1,83.1l2.2-0.9l0.5-0.1l0.9,0l0.5-0.1l0.6-0.2l0.8-0.5l3.6-3.1l1.3-0.8
	l1-0.4l2.5-0.6l0.9-0.3l0.9-0.5l0.6-0.8l1.3-2.8l0.7-0.7l0.8-0.3l2.5,0.2l1.1-0.3l1.3-1l4.7-5l1.1-1l0.8-0.3l0.6-0.1l1.1-0.1
	l0.7-0.2l4.4-3l1-0.5l0.8-0.2l1.3,0.2h0.6l0.8-0.3l0.9-0.8l3.2-4.6l1.3-1.3l1.2-0.8l3.4-1.3l1-0.6l0.9-0.8l2.7-2.9l1-0.7l2.5-1.2
	l4.4-1.7l1.3-0.8l0.9-1l1.7-2.9l0.6-0.6l0.7-0.2l0.6,0.1l0.6,0.2l0.7,0.1l0.9-0.1l2.9-1.3l4.4-2.9l0.6-0.7l0.6-1.2l0.3-0.6l0.6-0.6
	l1.2-0.5l5.3-0.9l1.1-0.5l0.5-0.6l0.2-0.6l0.1-0.6l0.2-0.7l0.4-0.8l0.9-1.1l7.3-5.7l1.9-1l6.2-2.3l1.4-0.9l0.9-1l1.5-3.2l0.9-0.9
	l1.2-0.6l4.2-0.7l3.4-1.2l5-2.5l1-0.7l0.5-0.7l0.3-0.6l0.4-1.1l0.4-0.6"/>
<path id="Layer6_5_MEMBER_57_1_STROKES" class="st3" d="M138.6,84.3l-1.1-1.3"/>
<path id="Layer6_5_MEMBER_58_1_STROKES" class="st3" d="M138.6,84.3l1.7-0.8l0.5-0.2l0.5-0.1l1.5-0.1l0.6-0.2l0.8-0.5l3.6-3.2l1-0.6
	l1.4-0.6l3.4-1l0.9-0.5l0.6-0.8l1.3-2.7l0.7-0.7l0.8-0.3l2.5,0.2l1-0.3l1.3-1l4.7-5.1l1.1-1l0.7-0.4l0.6-0.1l1.1-0.1l0.8-0.3
	l3.2-2.2l2.2-1.3l0.8-0.2l1.3,0.2l0.6,0l0.8-0.3l0.9-0.8l3.2-4.6l1.3-1.2l1.3-0.8l3.4-1.3l1.1-0.6l1.7-1.6l1.3-1.5l1.2-1l1.9-1.1
	l5.5-2.2l1.3-0.8l0.9-1l1.6-2.9l0.7-0.6l0.7-0.2l0.6,0.1l1.3,0.3l0.9-0.1l2.9-1.3l4.4-2.9l0.6-0.7l0.3-0.6l0.2-0.6l0.4-0.6l0.6-0.6
	l1.2-0.4l5.3-0.9l1.1-0.5l0.5-0.6l0.2-0.6l0.1-0.6l0.2-0.7l0.4-0.8l0.9-1.1l3.1-2.6l4.1-3.1l1.9-1L246,16l1.4-0.9l0.9-1.1l1.6-3.2
	l0.9-0.9l1.2-0.6l1.3-0.3l2.9-0.4l1.6-0.5l6.8-3.3l1-0.8"/>
<path id="Layer6_5_MEMBER_59_1_STROKES" class="st3" d="M132.5,96.9l4.9-13.9"/>
<path id="Layer6_5_MEMBER_60_1_STROKES" class="st3" d="M133.6,98.2l-1.1-1.3"/>
</svg>
