<?xml version="1.0" encoding="utf-8"?>
<!-- Generator: Adobe Illustrator 24.3.0, SVG Export Plug-In . SVG Version: 6.00 Build 0)  -->
<svg version="1.1" id="Ebene_1" xmlns="http://www.w3.org/2000/svg" xmlns:xlink="http://www.w3.org/1999/xlink" x="0px" y="0px"
	 viewBox="0 0 349.1 174.8" style="enable-background:new 0 0 349.1 174.8;" xml:space="preserve">
<style type="text/css">
	.st0{fill:#0499FF;}
	.st1{fill:#B1B1B1;}
	.st2{fill:none;stroke:#373535;stroke-width:0.55;stroke-miterlimit:5;}
	.st3{fill:none;stroke:#373535;stroke-width:0.75;stroke-miterlimit:10;}
	.st4{fill:#0033FF;}
</style>
<g>
	<path class="st0" d="M220.9,119.7l-94.9,54.7l-0.8-1c-10.8-60.3-3.9-98.3,18.3-117.1l93.7-54.1C215.6,30.1,208.8,68.4,220.9,119.7z
		"/>
	<path class="st1" d="M176.9,34.1l-0.8-1l-0.1-0.2l-4.6-0.4l-20.6,11.9l-1.6,1.9l-1.2,2.3l-1.5,5.9l31-17.9l-0.4-2.3L176.9,34.1
		 M141.7,58.1l0.1-0.1v0h0l0-0.1l0.1,0v0l0.1-0.1l0-0.1l0.1,0v0l0.1-0.1l-7.6,4.3l-3,3.2v0l-0.1,0.1l0,0.1l-0.1,0.1v0l-0.1,0
		l-0.1,0.1v0l-0.1,0l0,0.1v0.1l-0.1,0.1l0,0.1l0,0l-0.3,0.4l-0.2,0.4l0.2,0.4l0.3,0.4l6.3-3.6l0,0l0.3-0.4l0.1-0.1l0.1-0.1l0.1-0.1
		h0.1V63l0.1-0.1l0-0.1l0,0h0l0.1-0.2v0l0-0.1l0.1,0l0-0.1v-0.1l0.1-0.1l0-0.1l0.1,0v0l0.1-0.2v0l0.1,0l0-0.1l0.1,0v0l0,0l0.2-0.2
		l0.1-0.1v-0.1l0.1,0l0.1-0.1l0.1-0.2l0.1-0.1l0.1-0.1l0.1-0.1l0-0.1l0.1-0.1l0.1-0.2l0.2-0.2l0-0.1l0.1,0l0.1-0.2l0.3-0.3l0-0.1
		L141,59l0.5-0.5l0.1-0.1l0.2-0.2L141.7,58.1 M135.8,63.1L135.8,63.1l0.1,0v0h0v0h0l0-0.1h0.1l0,0v0h0l0,0h0v0h0.1v-0.1h0l0.1,0h0
		l0,0h0.1l0.1,0h0.2v0h0v0.1h0v0.1h0v0l-0.1,0v0h0v0l0,0.1h0v0h-0.1v0h0v0h0v0.1h0v0h0l-0.1,0v0h-0.1v0h0l-0.1,0.1h0v0h0l0,0h0
		l-0.1,0h0v0h0l0,0.1h-0.1v0h-0.1l0,0h-0.1v0h-0.2l0,0v-0.1h0v-0.1h0.1v0h0v0h0v-0.1l0.1-0.1h0.1v0h0L135.8,63.1L135.8,63.1
		L135.8,63.1L135.8,63.1 M219,7.5l-4.5-0.3L193.9,19l-1.6,1.9l-1.2,2.3l-1.6,6.2l0.1,0.3l30.9-17.9l-0.4-2.8l-0.9-1.2L219,7.5
		 M234.8,6.3l-0.1,0.1l-0.6,0.8l-0.1,0.2l-0.3,0.4l-0.1,0.1v0.1l-0.2,0.2v0l-0.1,0.1L233,8.5v0l-0.1,0.1l0,0.1l6.1-3.5l0.6-0.9
		l0.1-0.1v0l0,0l0.1,0l0.1-0.1v0h0l0-0.1l0.1-0.1v0l0,0l0-0.1l0.1,0l0.1-0.1l0-0.1l0.1-0.1V3.2l0,0l0.1-0.2l0.1-0.1l0-0.1l0.1-0.1
		l0.3-0.3l0.1-0.1l0.1-0.1l0.3-0.4l0.1-0.1l0-0.1l0.2-0.1l0.2-0.3l0-0.1l0.1-0.1l0.1-0.1l0.1-0.1v0l-0.1-0.1l-0.2-0.2L242,0L241.9,0
		l-4.4,2.5l0.2,0.3l0.1,0.1l-0.2,0.2v0l-0.1,0l-0.1,0.1l0,0.1l0,0h-0.1l0,0.1l-0.1,0.1l0,0.1l-0.2,0.2l-0.1,0.1L236.7,4l0,0l0,0.1
		l-1.2,1.4l-0.2,0.3l-0.3,0.3L234.8,6.3 M238.5,4.1L238.5,4.1L238.5,4.1l-0.1,0.1h0v0l0,0h0v0h0v0.1h-0.1v0h0l-0.1,0.1v0h-0.1l0,0.1
		h0l-0.1,0.1h-0.1l-0.1,0.1h0l-0.1,0h0l0,0h0l0,0h-0.1l0,0h0V5h-0.2l0,0h-0.1v0h0V4.9l0,0v0h0.1V4.7h0v0h0v0l0.1-0.1h0v0l0.1-0.1
		h0.1l0-0.1h0v0l0,0h0l0.1-0.1h0.1v0h0.1v0h0.1l0,0h0v0h0.1l0-0.1h0.1l0,0h0.2L238.5,4.1L238.5,4.1z"/>
	<path id="Layer6_3_MEMBER_0_MEMBER_0_1_STROKES" class="st2" d="M189.4,29.4l1.6-6.2l1.2-2.3l1.6-1.9l20-11.5l0.7-0.3l1.5,0l3,0.3
		l0.2,0.2l0.9,1.2l0.1,0.5l0,0.3l0.2,1.3l0.1,0.3l0,0.5 M220.2,8.9l0.1,0.7 M210.6,17.2l0.7-6.5l2.9-1.7l-0.6,6.8 M205.9,19.9
		l0.7-6.6l2.9-1.6l-0.6,6.5 M196.5,25.4l0.6-6.6l2.9-1.7l-0.6,6.5 M201,22.7l0.7-6.5l2.9-1.7l-0.6,6.5 M191.3,28.4l1.3-5.1l1.3-2.3
		l1.6-1.9L216,7.2 M146.4,54.6l1.5-6.1l1.2-2.3l1.6-1.9l0.2-0.1l20.3-11.7l0.2-0.1l1.5,0l3.1,0.3l0.1,0.2l0.8,1l0.2,0.3l0.3,2.2
		 M148.2,53.6l1.2-4.9l1.3-2.3l1.6-1.9l0.2-0.1l20.3-11.7l0.1-0.1 M167.6,42.1l0.6-6.1l2.9-1.6l-0.5,6.1 M162.9,44.9l0.6-6.1
		l2.9-1.7l-0.6,6.1 M158,47.7l0.6-6.1l2.9-1.6l-0.6,6.1 M153.4,50.6l0.6-6.4l0.5-0.2l2.5-1.4l-0.6,6.4"/>
	<path id="Layer6_3_MEMBER_0_MEMBER_1_1_STROKES" class="st2" d="M237.7,2.9L144,57.1l-0.3-0.4l-0.2-0.3l-0.1-0.1l0.3-0.2l93.5-53.9
		l0.1,0.1l0.2,0.3L237.7,2.9L237.7,2.9z M237.6,2.8c-23.7,25.1-28.1,71.4-16.8,116.9 M125.9,174.4l94.9-54.7"/>
	<path id="Layer6_3_MEMBER_0_MEMBER_2_1_STROKES" class="st2" d="M237.8,4.2L237.8,4.2L237.8,4.2l-0.2,0.1h0l0,0v0h0l0,0h0l-0.1,0.1
		v0h0l-0.1,0.1v0h0v0h0v0h0v0l0,0V5h0v0h0.1l0,0h0.2v0h0l0,0h0l0,0h0l0,0h0l0,0h0l0.1-0.1h0l0.1-0.1h0l0,0h0v0l0.1-0.1h0v0h0v0h0v0
		h0l0,0v0h0v0h0V4.1h0V4h-0.2l0,0h-0.1l0,0h0v0h0l0,0L237.8,4.2L237.8,4.2L237.8,4.2z M237.5,2.5l4.4-2.5l0.1,0.1l0.2,0.3l0.2,0.3
		l0.1,0.1v0l-0.1,0.1L242.2,1l-0.1,0.1l0,0.1L242,1.3l-0.1,0.2l-0.2,0.2l0,0.1l-0.1,0.1l-0.3,0.4l-0.1,0.1l0,0.1L241,2.5l-0.1,0.2
		l-0.1,0.1l0,0.1L240.6,3l-0.1,0.2l0,0v0l-0.1,0.1l0,0.1l0,0l0,0.1l-0.1,0l0,0.1l0,0v0l-0.1,0.1l0,0.1h0v0l0,0.1l-0.1,0l0,0v0
		l-0.1,0.1L239,5.2l-6.1,3.6 M236.6,4.1l5.8-3.3 M137.3,63.9l-0.5,0.3l-5.8,3.4l-0.1-0.1l-0.2-0.3l-0.3-0.4l0.1-0.1l0.2-0.3l0.2-0.3
		L131,66l0,0l0-0.1l0.1-0.1v0l0-0.1l0.1,0v0l0,0l0-0.1l0.1,0v0l0,0l0-0.1l0.1-0.1v0l0.1-0.1l0.1-0.2h0l0.1-0.1l0.2-0.3l0.1-0.1
		l0.3-0.4l0-0.1l0.1-0.1l0.1-0.2l0.3-0.3l0-0.1l0.3-0.4l0.1-0.1l0.1-0.2 M131,67.6l0.5-0.8l0,0l0-0.1l0.1-0.1v0l0.1,0l0-0.1v0l0,0
		l0.1,0l0-0.1v0l0,0l0-0.1l0.2-0.2l0-0.1l0.1-0.1v0l0.2-0.2l0.1-0.2l0.1,0l0-0.1l0.2-0.1l0.2-0.3l0.1,0l0.3-0.4l0.1-0.1l0-0.1
		l0.2-0.2l0.1-0.2l0.1-0.1l0-0.1l0.1-0.1l0.1-0.2l0,0v0h0v0l-0.3-0.4l-0.2-0.3l-0.1-0.1l8.5-4.9 M136,63L136,63L136,63L136,63
		l-0.1,0.1v0h-0.1v0h0v0h0v0h0v0h0l-0.1,0.1v0h0v0h0v0h0v0.1h0v0.1l0,0h0.2v0h0.1l0,0h0.1v0h0.1l0,0h0v0h0l0,0h0l0,0h0v0h0l0,0h0v0
		h0.1v0l0,0h0v0h0v0h0v0h0v0h0v0h0l0,0v0h0v0l0,0v0h0v0h0v-0.1h0v0h-0.2l0,0h-0.1l0,0h0l0,0h0v0h-0.1v0h0l0,0L136,63L136,63L136,63
		L136,63z M134.5,63.1l6.1-3.5"/>
	<path class="st2" d="M144,57.1c-22.5,19.8-28.3,59.1-18,117.3"/>
	<path class="st2" d="M143.2,56.1c-22.5,19.8-28.3,59.1-18,117.3"/>
</g>
<path class="st3" d="M163.8,64.9c-1.1-7.5-12-0.1-14.7,1.7c-5.5,3.7-10.4,9-12.8,15.3c-4.1,13.1-12.7,37.8,10.5,21.3
	C159.2,95.3,163,78.8,163.8,64.9z"/>
<path class="st4" d="M160.5,61.1c-1.5-0.4-6.3,2.1-6.3,2.1c-0.1,3.5,0.4,9.6-5.2,16.7c-6.9,8.6-15.6,11.2-15.6,11.2
	c-0.9,4.3-5.2,15.3,1.1,17.3c3.9,0.5,7.8-2.5,11-4.4c11.8-6.5,16.3-20.8,18.1-33.3c0.3-3,1.7-8.6-2.4-9.2 M200.4,36.8
	c0,0,0,1.2-0.1,2.1c-0.1,2.3-0.5,4.1-1.1,6.3c-1.6,6.9-7.5,12.9-13.5,16.6c-1.8,1.1-4,2.2-6.2,2.6c-1,4.4-2.3,9.3-2.1,13.8
	c2.2,11.2,23.5-6.7,25.5-12.1c4-8.4,7-18.9,6.8-28.2C208.8,33.6,203.2,35.3,200.4,36.8z"/>
<path class="st3" d="M209.9,38.1c-1.1-6.4-9.5-1.2-12.1,0.1c-10.4,6-15.7,14.7-18.4,26.9c-6.2,22.7,3.1,19.6,17.6,8.3
	C206.3,64.5,209.4,50.6,209.9,38.1z"/>
<path class="st2" d="M200.4,37.1c-0.2,12.5-7,21.8-20.8,27.7"/>
<path class="st2" d="M154.3,63.8c-0.2,12.5-7,21.8-20.8,27.7"/>
</svg>
