<?xml version="1.0" encoding="iso-8859-1"?>
<!-- Generator: Adobe Illustrator 25.0.1, SVG Export Plug-In . SVG Version: 6.00 Build 0)  -->
<svg version="1.1" id="Ebene_1" xmlns="http://www.w3.org/2000/svg" xmlns:xlink="http://www.w3.org/1999/xlink" x="0px" y="0px"
	 viewBox="0 0 216.2 90.3" style="enable-background:new 0 0 216.2 90.3;" xml:space="preserve">
<g>
	<path style="fill-rule:evenodd;clip-rule:evenodd;fill:#14AEBB;" d="M8.9,17.3c3.8-3.8,8.5-5.7,14-5.7c5.5,0,10.2,1.9,14.1,5.7
		c3.9,3.9,5.9,8.6,5.9,14.2c0,4.1-1,7.7-3.1,10.8c-0.5,0.7-1.1,1.4-1.7,2.1c-0.3,0.3-0.7,0.7-1,1c-3.8,3.9-8.5,5.9-14.1,5.9
		c-5.6,0-10.3-2-14-5.9C5,41.5,3,36.9,3,31.5C3,26,5,21.2,8.9,17.3z M6.9,39.5l21.2-25.7c-1.6-0.5-3.3-0.7-5.2-0.7
		c-5,0-9.3,1.8-12.9,5.4c-3.6,3.7-5.4,8-5.4,13.1c0,5.1,1.8,9.4,5.4,12.9c3.6,3.6,7.9,5.4,12.9,5.4c5,0,9.4-1.8,13.1-5.4
		c3.5-3.6,5.3-7.9,5.3-12.9c0-5-1.8-9.3-5.3-13.1c-2.4-2.2-4.9-3.7-7.6-4.6L27.8,15c-3.7,9.5-5.1,15.4-4.2,17.6
		c1,3.3,6.1,5.4,15.3,6.3L6.9,39.5z M213.2,52.4V59c-1-1.2-3.3-1.7-7-1.6c-3.9,0.1-5.9,1.2-5.9,3.1l0.1,18.2h-9.1V53.8
		c0.7-0.9,2.2-1.6,4.5-2c2-0.4,4.3-0.5,7.1-0.5C208.9,51.3,212.3,51.7,213.2,52.4z M183.2,52.1v26.5h-9V52.1H183.2z M183.2,43.5v6.9
		h-9.3v-6.9H183.2z M165.4,56.2c0.4,1.2,0.7,4.1,0.7,8.7v11c-1.9,2.8-6.4,4-13.6,3.6c-3.2-0.1-5.8-0.8-7.8-1.9
		c-2.3-1.2-3.4-3-3.3-5.2c0.1-3.2,0.7-5.4,1.8-6.7c0.7-0.9,2.2-1.8,4.6-2.8l1.1-0.3c1.6-0.7,3.8-1.2,6.5-1.7l1.4-0.3
		c0.7-0.4,1-1.1,0.7-2.1c-0.3-0.9-0.9-1.4-1.8-1.5c-3-0.2-5.4-0.2-7.2,0.1c-2,0.3-4,1.1-6.3,2.3l-0.1-6.3c1-0.7,2.8-1.1,5.4-1.3
		c1.8-0.3,3.7-0.4,5.7-0.4c3.9,0,6.8,0.5,8.8,1.4C163.9,53.6,165,54.8,165.4,56.2z M149.3,72.1c0.4,1.6,1.5,2.4,3.2,2.6
		c1.6,0.1,2.9-0.3,3.9-1.2c0.9-0.6,1.4-1.3,1.4-2.1v-6.1c-0.7,0.2-1.8,0.6-3.5,1.2c-2,0.7-3.2,1.1-3.4,1.3
		C149.4,69,148.9,70.4,149.3,72.1z M136.6,52.3l-9.5,12.9l9.8,13.4l-11.4,0.1l-5.1-7.9l-5.4,7.9h-10.2l10.5-13l-9.9-13.5h11.7
		l4.2,7.5l5-7.5L136.6,52.3z M101,52.1v22.8c0,1.6-1.4,2.8-4.2,3.8c-2.6,0.9-5.7,1.4-9.3,1.4c-3.8,0-7-0.4-9.5-1.2
		c-2.8-1-4.2-2.5-4.2-4.4l-0.2-2.6V52l8.2,0.1v18.1c0,2.1,1.3,3.4,3.9,3.9c1.3,0.2,3.3,0.2,5.8,0h0.4v-22H101z M53.2,46.3v24
		c0.1,1.7,1.3,2.5,3.8,2.5h14.2v6.4L53,79.8c-3.4,0.1-5.7-0.2-7-0.8c-1.6-0.8-2.4-2.3-2.5-4.5l-0.1-28.2H53.2z"/>
</g>
</svg>
