<svg version="1.1" id="Ebene_1" xmlns="http://www.w3.org/2000/svg" x="0" y="0" viewBox="0 0 70.6 10.8" xml:space="preserve">
  <style>
    .st0{fill:#29285b}
  </style>
  <switch>
    <g>
      <g transform="translate(661.8 809.55) scale(.1333)">
        <path class="st0" d="M-4554.9-6053.3l10.2 4.9-14.9 37.1h28.6l16.7-42h-40.6z" id="Layer6_3_MEMBER_3_MEMBER_0_FILL_1_"/>
      </g>
      <g transform="translate(661.8 809.55) scale(.1333)">
        <path class="st0" d="M-4563-6048.8c-1.1-2.9-3.4-4.4-6.8-4.5h-65.2l11.6 5.6-14.6 36.3h29l5.5-13.9h25.8c3.2 0 6.2-1.5 9.1-4.4 2.5-2.6 4.4-5.8 5.5-9.6 1.1-3.7 1.1-6.9.1-9.5m-26.7 4.7c1.8.6 2.4 2 1.6 4.3-1 2.7-2.1 4.4-3.6 5-1.1.5-3.8.7-8.1.7l4.1-10.2c3.1-.2 5.1-.1 6 .2z" id="Layer6_3_MEMBER_3_MEMBER_1_FILL_1_"/>
      </g>
      <g transform="translate(661.8 809.55) scale(.1333)">
        <path class="st0" d="M-4882.9-6042.7c-4.5-7.3-12.1-11.3-22.9-11.9h-38l7.9 3.8c-6.5 2.1-11.5 6.1-15 11.9-3.7 6.1-4.2 11.9-1.5 17.6 2.3 3.5 5.4 6.2 9.4 8 3.2 1.5 7.2 2.5 12 3 20.4 1.8 35.7-3 45.7-14.4 1.8-2.8 2.9-5.8 3.4-8.8.7-3.5.3-6.5-1-9.2m-28.6-1.4c.8.5 1.4 1.3 1.8 2.2.6 1.4.6 3.6 0 6.5-.6 2.8-1.6 5.5-3.1 8.2-3.7 6.7-7.4 9-11.1 6.8-1.8-.9-2.8-2.7-2.9-5.4-.1-2.4.5-5.1 1.8-8.1 1.2-2.9 2.8-5.4 4.7-7.5 2.1-2.2 4.1-3.4 6.1-3.4.8-.2 1.8.1 2.7.7z" id="Layer6_3_MEMBER_3_MEMBER_2_FILL_1_"/>
      </g>
      <g transform="translate(661.8 809.55) scale(.1333)">
        <path class="st0" d="M-4824.5-6011.4l3.9-9.6h-21.7l12.8-32.4h-42.4l11.2 5.5-14.5 36.5h50.7z" id="Layer6_3_MEMBER_3_MEMBER_3_FILL_1_"/>
      </g>
      <g transform="translate(661.8 809.55) scale(.1333)">
        <path class="st0" d="M-4773.5-6038.2l-6.9-15.1h-38.4l11.5 5.6 8.3 18.9-7 17.4h28.6l6-15.2 32.2-26.8h-30.6l8.9 4.3-12.6 10.9z" id="Layer6_3_MEMBER_3_MEMBER_4_FILL_1_"/>
      </g>
      <g transform="translate(661.8 809.55) scale(.1333)">
        <path class="st0" d="M-4686.6-6053.3l10.9 5.2-12.6 9.5-4.4-14.8h-41.8l11 5.3-14.6 36.7h28.6l5.9-15.1 4.6 15.1 17.4-15-6 15h28.4l16.6-42h-44z" id="Layer6_3_MEMBER_3_MEMBER_5_FILL_1_"/>
      </g>
      <g transform="translate(661.8 809.55) scale(.1333)">
        <path class="st0" d="M-4448.3-6042.9l3.1-7.9c-5.5-2.8-12.8-4.4-21.8-4.5-7.6-.2-14.4.5-20.2 2h-13.4l5.9 2.9c-5.7 2-10.1 5.2-13.1 9.6-4.2 6.2-3.3 13 2.6 20.2 5.5 4.9 12.9 7.8 22.3 8.6 9 .7 17-.6 24-4l4-10c-1.8 1.2-4.5 2.1-8.1 2.9-3.9.8-7.5 1.1-10.9.7-8.9-.9-11.7-5.5-8.4-13.8 2.2-5.4 7.3-8.8 15.4-10.2 7.9-1.5 14.1-.3 18.6 3.5z" id="Layer6_3_MEMBER_3_MEMBER_6_FILL_1_"/>
      </g>
    </g>
  </switch>
</svg>
