<?xml version="1.0" encoding="iso-8859-1"?>
<!-- Generator: Adobe Illustrator 25.0.0, SVG Export Plug-In . SVG Version: 6.00 Build 0)  -->
<svg version="1.1" id="Ebene_1" xmlns="http://www.w3.org/2000/svg" xmlns:xlink="http://www.w3.org/1999/xlink" x="0px" y="0px"
	 viewBox="0 0 322.3 409.4" style="enable-background:new 0 0 322.3 409.4;" xml:space="preserve">
<path id="clp-hintergrund" d="M304.5,402.2H37.7c-2,0-3.6-1.6-3.6-3.6V38.3c0-2,1.6-3.6,3.6-3.6h266.8c2,0,3.6,1.6,3.6,3.6v360.3
	C308.1,400.6,306.5,402.2,304.5,402.2z"/>
<g transform="matrix( 0.7373504638671875, 0, 0, 0.7373504638671875, 348.4,19.35) ">
	<g transform="matrix( 1, 0, 0, 1, 0,0) ">
		<g>
			<g id="info2_0_Layer1_0_MEMBER_0_MEMBER_0_FILL_3_">
				<path style="fill:#FFFFFF;stroke:#446483;stroke-width:0.2719;stroke-miterlimit:5.4369;" d="M-459.6,39.5
					c6.8,7,15.1,10.4,24.8,10.4c9.7,0,18.1-3.6,24.8-10.4s10.4-15.1,10.4-24.8s-3.4-17.8-10.4-24.8s-15.1-10.4-24.8-10.4
					c-9.7,0-17.8,3.4-24.8,10.4C-466.6-3.4-470,5-470,14.7S-466.6,32.5-459.6,39.5z"/>
			</g>
		</g>
	</g>
	<path style="fill:#446483;" d="M-415.8,16c-2.5-0.9-7.9,3.8-10.6,6.5c-0.5,0.5-0.5-1.1-0.5-2.9c0-0.2,0-0.2,0-0.5v-0.5
		c0-1.6,0-3.2,0-4.3v-2.9c6.3-1.4,11.3-7,11.3-14c0-7.9-6.3-14.2-14.2-14.2S-444-10.4-444-2.5c0,3.8,1.4,7.5,4.1,9.9
		c-0.2,0.5-0.5,0.9-0.5,1.6v7l-1.1,0.2v-6.1c0-1.6-1.1-2.9-2.7-2.9h-0.5c-1.6,0-3.2,1.4-3.2,2.9v7.2l-1.1,0.2v-2.9
		c0-1.6-0.7-2.9-2.3-2.9h-0.5c-1.6,0-3.6,1.4-3.6,2.9v0.2v2v1.4l-1.1,10.2c-0.9,2.7-1.4,9.3,8.1,15.1c0,0,5.4,2.7,12.2-2
		c3.6-2.7,9.5-8.4,14.2-13.1l2.9-3.2c2.3-2.5,3.8-4.3,4.3-4.7C-413.7,19-414,16.5-415.8,16z M-429.1-5.2h-0.5
		c-1.6,0-3.6,1.4-3.6,2.9v3.4c-1.1-0.9-1.4-2-1.4-3.6c0-2.7,2.3-4.7,5-4.7c2.7,0,4.7,2.3,4.7,4.7c0,1.6-0.9,2.9-2,3.8v-3.8
		C-426.8-3.8-427.5-5.2-429.1-5.2z M-426.8,2.9c2-1.1,2.9-2.9,2.9-5.2c0-3.2-2.7-5.9-5.9-5.9c-3.2,0-5.9,2.7-5.9,5.9
		c0,2,1.4,3.8,2.5,5v3.6c-3.2-1.4-5.6-4.5-5.6-8.4c0-5,4.1-9,9-9c5,0,9,4.1,9,9c0,3.8-2,7.2-6.1,8.6L-426.8,2.9L-426.8,2.9z
		 M-429.6-15.4c7.2,0,13.1,5.9,13.1,13.1c0,6.3-4.1,11.5-10.4,12.9V7.5c4.3-1.4,7.2-5.2,7.2-9.7c0-5.6-4.5-10.2-10.2-10.2
		c-5.6,0-10.2,4.5-10.2,10.2c0,4.5,2.5,8.1,6.8,9.5v3.2c0,0,0-0.2-1.1-0.2V9.3c0-1.6-1.1-2.9-2.7-2.9h-0.5c-0.7,0-1.4,0.2-1.8,0.7
		c-2.3-2.5-3.6-5.6-3.6-9.3C-442.9-9.5-437-15.4-429.6-15.4z M-434.3,15.6v-4.3c1.1,0,1.1,0.2,1.1,0.2v3.8L-434.3,15.6z"/>
</g>
<path id="clp-fault-rh-ind" style="fill:none;" d="M304.2,401.8h-50.1c-2,0-3.7-1.7-3.7-3.7v-5.3c0-2,1.7-3.7,3.7-3.7h50.1
	c2,0,3.7,1.7,3.7,3.7v5.3C307.9,400.1,306.2,401.8,304.2,401.8z"/>
<path id="clp-pp-ind" style="fill:none;" d="M210.1,400.7H132c-2,0-3.7-1.7-3.7-3.7v-5.3c0-2,1.7-3.7,3.7-3.7h78.1
	c2,0,3.7,1.7,3.7,3.7v5.3C213.8,399,212.2,400.7,210.1,400.7z"/>
<path id="clp-ref-speed-ind" style="fill:none;" d="M210.7,386h-80.1c-2,0-3.7-1.7-3.7-3.7V377c0-2,1.7-3.7,3.7-3.7h80.1
	c2,0,3.7,1.7,3.7,3.7v5.3C214.4,384.4,212.7,386,210.7,386z"/>
<path id="clp-ice-ind" style="fill:none;" d="M208.2,372.4h-75.1c-2,0-3.7-1.7-3.7-3.7v-5.3c0-2,1.7-3.7,3.7-3.7h75.1
	c2,0,3.7,1.7,3.7,3.7v5.3C211.9,370.7,210.2,372.4,208.2,372.4z"/>
<path id="clp-sat-ind" style="fill:none;" d="M196.4,353.2h-54.1c-2,0-3.7-1.7-3.7-3.7v-5.3c0-2,1.7-3.7,3.7-3.7h54.1
	c2,0,3.7,1.7,3.7,3.7v5.3C200.1,351.6,198.5,353.2,196.4,353.2z"/>
<path id="clp-fuel-inl-temp-ind" style="fill:none;" d="M206.9,338.8h-75.1c-2,0-3.7-1.7-3.7-3.7v-5.3c0-2,1.7-3.7,3.7-3.7h75.1
	c2,0,3.7,1.7,3.7,3.7v5.3C210.6,337.1,209,338.8,206.9,338.8z"/>
<path id="clp-fuel-lbs-ind" style="fill:none;" d="M210.2,326.9h-78.1c-2,0-3.7-1.7-3.7-3.7v-5.3c0-2,1.7-3.7,3.7-3.7h78.1
	c2,0,3.7,1.7,3.7,3.7v5.3C213.9,325.2,212.2,326.9,210.2,326.9z"/>
<path id="clp-balance-ind" style="fill:none;" d="M198.2,299.8h-55.1c-2,0-3.7-1.7-3.7-3.7v-5.3c0-2,1.7-3.7,3.7-3.7h55.1
	c2,0,3.7,1.7,3.7,3.7v5.3C201.9,298.1,200.2,299.8,198.2,299.8z"/>
<path id="clp-itt-ind" style="fill:none;" d="M214.3,230c-7,0-13.6,2.2-18.9,6h-52.2c-5.3-3.8-11.9-6-18.9-6
	c-18.1,0-32.8,14.7-32.8,32.8c0,18.1,14.7,32.8,32.8,32.8c10,0,19-4.5,25-11.6h40c6,7.1,15,11.6,25,11.6c18.1,0,32.8-14.7,32.8-32.8
	C247.1,244.7,232.4,230,214.3,230z"/>
<path id="clp-prop-ind" style="fill:none;" d="M215.1,159.7c-4.7,0-9.1,1-13.2,2.8h-63.7c-4-1.8-8.5-2.8-13.2-2.8
	c-18.1,0-32.8,14.7-32.8,32.8s14.7,32.8,32.8,32.8c7.5,0,14.4-2.5,19.9-6.8H195c5.5,4.2,12.4,6.8,19.9,6.8
	c18.1,0,32.8-14.7,32.8-32.8S233.2,159.7,215.1,159.7z"/>
<path id="clp-af-arm-ind" style="fill:none;" d="M196.9,162h-55.1c-2,0-3.7-1.7-3.7-3.7V153c0-2,1.7-3.7,3.7-3.7h55.1
	c2,0,3.7,1.7,3.7,3.7v5.3C200.6,160.3,199,162,196.9,162z"/>
<path id="clp-tq-ind" style="fill:none;" d="M214.9,62.6c-5.9,0-11.5,1.3-16.6,3.5h-57.9c-5.1-2.3-10.7-3.5-16.6-3.5
	c-22.4,0-40.6,18.2-40.6,40.6s18.2,40.6,40.6,40.6c11.8,0,22.4-5,29.8-13h31.5c7.4,8,18,13,29.8,13c22.4,0,40.6-18.2,40.6-40.6
	S237.3,62.6,214.9,62.6z"/>
<path id="clp-uptrim-ind" style="fill:none;" d="M196.9,56.2h-55.1c-2,0-3.7-1.7-3.7-3.7v-7.3c0-2,1.7-3.7,3.7-3.7h55.1
	c2,0,3.7,1.7,3.7,3.7v7.3C200.6,54.5,199,56.2,196.9,56.2z"/>
<path id="clp-fault-lh-ind" style="fill:none;" d="M88.1,401.8H38c-2,0-3.7-1.7-3.7-3.7v-5.3c0-2,1.7-3.7,3.7-3.7h50.1
	c2,0,3.7,1.7,3.7,3.7v5.3C91.7,400.1,90.1,401.8,88.1,401.8z"/>
<path id="clp-oil-ind" style="fill:none;" d="M119.4,369.2H44.3c-2,0-3.7-1.7-3.7-3.7v-58.3c0-2,1.7-3.7,3.7-3.7h75.1
	c2,0,3.7,1.7,3.7,3.7v58.3C123.1,367.5,121.4,369.2,119.4,369.2z M305.6,365.5v-58.3c0-2-1.7-3.7-3.7-3.7h-75.1
	c-2,0-3.7,1.7-3.7,3.7v58.3c0,2,1.7,3.7,3.7,3.7h75.1C303.9,369.2,305.6,367.5,305.6,365.5z"/>
<path id="clp-nl-ind" style="fill:none;" d="M73.4,287h-34c-2,0-3.7-1.7-3.7-3.7V253c0-2,1.7-3.7,3.7-3.7h34.1c2,0,3.7,1.7,3.7,3.7
	v30.3C77.1,285.4,75.5,287,73.4,287z M306.1,283.4V253c0-2-1.7-3.7-3.7-3.7h-34.1c-2,0-3.7,1.7-3.7,3.7v30.3c0,2,1.7,3.7,3.7,3.7
	h34.1C304.5,287,306.1,285.4,306.1,283.4z"/>
<path id="clp-ff-ind" style="fill:none;" d="M73.4,236h-34c-2,0-3.7-1.7-3.7-3.7V202c0-2,1.7-3.7,3.7-3.7h34.1c2,0,3.7,1.7,3.7,3.7
	v30.3C77.1,234.4,75.5,236,73.4,236z M306.1,232.4V202c0-2-1.7-3.7-3.7-3.7h-34.1c-2,0-3.7,1.7-3.7,3.7v30.3c0,2,1.7,3.7,3.7,3.7
	h34.1C304.5,236,306.1,234.4,306.1,232.4z"/>
<path id="clp-osg-test-ind" style="fill:none;" d="M88.4,198h-49c-2,0-3.7-1.7-3.7-3.7V176c0-2,1.7-3.7,3.7-3.7h49.1
	c2,0,3.7,1.7,3.7,3.7v18.3C92.1,196.4,90.5,198,88.4,198z M306.1,194.4V176c0-2-1.7-3.7-3.7-3.7h-49.1c-2,0-3.7,1.7-3.7,3.7v18.3
	c0,2,1.7,3.7,3.7,3.7h49.1C304.5,198,306.1,196.4,306.1,194.4z"/>
<path id="clp-nh-ind" style="fill:none;" d="M91.8,150.6c0,14.2-11.5,25.6-25.6,25.6c-14.2,0-25.6-11.5-25.6-25.6c0-0.4,0-0.7,0-1.1
	c0-0.1,0-0.2,0-0.3V108c0-2,1.7-3.7,3.7-3.7H79c2,0,3.7,1.7,3.7,3.7v23.1C88.2,135.8,91.8,142.8,91.8,150.6z M246.5,150.6
	c0,14.2,11.5,25.6,25.6,25.6c14.2,0,25.6-11.5,25.6-25.6c0-0.4,0-0.7,0-1.1c0-0.1,0-0.2,0-0.3V108c0-2-1.7-3.7-3.7-3.7h-34.8
	c-2,0-3.7,1.7-3.7,3.7v23.1C250,135.8,246.5,142.8,246.5,150.6z"/>
<path id="clp-bleed-ind" style="fill:none;" d="M299.1,94h-35.8c-2,0-3.7-1.7-3.7-3.7V81c0-2,1.7-3.7,3.7-3.7h35.8
	c2,0,3.7,1.7,3.7,3.7v9.3C302.7,92.3,301.1,94,299.1,94z M84.7,90.3V81c0-2-1.7-3.7-3.7-3.7H45.2c-2,0-3.7,1.7-3.7,3.7v9.3
	c0,2,1.7,3.7,3.7,3.7H81C83.1,94,84.7,92.3,84.7,90.3z"/>
<path id="clp-mcr-ind" style="fill:none;" d="M81.1,76H45.2c-2,0-3.7-1.7-3.7-3.7V52c0-2,1.7-3.7,3.7-3.7H81c2,0,3.7,1.7,3.7,3.7
	v20.3C84.7,74.3,83.1,76,81.1,76z M302.7,72.3V52c0-2-1.7-3.7-3.7-3.7h-35.8c-2,0-3.7,1.7-3.7,3.7v20.3c0,2,1.7,3.7,3.7,3.7H299
	C301.1,76,302.7,74.3,302.7,72.3z"/>
<path id="clp-check-ed-ind" style="fill:none;" d="M199.4,149h-60.1c-2,0-3.7-1.7-3.7-3.7V140c0-2,1.7-3.7,3.7-3.7h60.1
	c2,0,3.7,1.7,3.7,3.7v5.3C203.1,147.4,201.5,149,199.4,149z"/>
<g id="clp-system">
	<g>
		<path id="clp-tq-ind_1_" d="M215,65.2c-5.5,0-10.8,1.2-15.6,3.3H140c-4.8-2.2-10-3.3-15.6-3.3c-21,0-38.1,17.1-38.1,38.1
			s17.1,38.1,38.1,38.1c11.1,0,21-4.7,28-12.2H187c6.9,7.5,16.9,12.2,28,12.2c21,0,38.1-17.1,38.1-38.1S236.1,65.2,215,65.2z"/>
		<path id="abd" d="M215.1,162c-4.4,0-8.5,0.9-12.3,2.6h-65.5c-3.7-1.7-7.9-2.6-12.3-2.6c-16.9,0-30.6,13.7-30.6,30.6
			s13.7,30.6,30.6,30.6c7,0,13.4-2.3,18.6-6.4h52.8c5.1,3.9,11.6,6.4,18.6,6.4c16.9,0,30.6-13.7,30.6-30.6S232,162,215.1,162z"/>
		<path id="abd_1_" d="M214.9,232.4c-6.6,0-12.8,2.1-17.7,5.6h-54.9c-5-3.6-11.2-5.6-17.7-5.6c-17,0-30.8,13.8-30.8,30.8
			s13.8,30.8,30.8,30.8c9.4,0,17.8-4.2,23.4-10.9h43.5c5.6,6.7,14.1,10.9,23.4,10.9c17,0,30.8-13.8,30.8-30.8
			S231.9,232.4,214.9,232.4z"/>
		<path id="abd_2_" d="M299.9,367.5h-71.1c-1.9,0-3.5-1.6-3.5-3.5v-55.2c0-1.9,1.6-3.5,3.5-3.5h71.1c1.9,0,3.5,1.6,3.5,3.5V364
			C303.4,365.9,301.8,367.5,299.9,367.5z"/>
		<path id="abd_3_" d="M117.4,367.5H46.3c-1.9,0-3.5-1.6-3.5-3.5v-55.2c0-1.9,1.6-3.5,3.5-3.5h71.1c1.9,0,3.5,1.6,3.5,3.5V364
			C120.9,365.9,119.3,367.5,117.4,367.5z"/>
		<path d="M88.6,150.4c0,12.7-10.3,22.9-22.9,22.9c-12.7,0-22.9-10.3-22.9-22.9c0-0.4,0-0.6,0-1c0-0.1,0-0.2,0-0.3v-38.8
			c0-1.8,1.5-3.3,3.3-3.3h31c1.8,0,3.3,1.5,3.3,3.3V133C85.4,137.2,88.6,143.4,88.6,150.4z"/>
		<path d="M257.7,133v-22.7c0-1.8,1.5-3.3,3.3-3.3h31c1.8,0,3.3,1.5,3.3,3.3v38.9c0,0.1,0,0.2,0,0.3c0,0.4,0,0.6,0,1
			c0,12.6-10.2,22.9-22.9,22.9c-12.6,0-22.9-10.2-22.9-22.9C249.6,143.4,252.8,137.2,257.7,133z"/>
		<path d="M79.2,74.7H47.1c-1.8,0-3.3-1.5-3.3-3.3V53.3c0-1.8,1.5-3.3,3.3-3.3h32.1c1.8,0,3.3,1.5,3.3,3.3v18.2
			C82.4,73.2,81,74.7,79.2,74.7z"/>
		<path d="M297.2,74.7H265c-1.8,0-3.3-1.5-3.3-3.3V53.3c0-1.8,1.5-3.3,3.3-3.3h32.1c1.8,0,3.3,1.5,3.3,3.3v18.2
			C300.4,73.2,299,74.7,297.2,74.7z"/>
		<path d="M303.6,193.1v-15.9c0-1.7-1.5-3.2-3.2-3.2h-46c-1.8,0-3.2,1.5-3.2,3.2V193c0,1.7,1.5,3.2,3.2,3.2h46
			C302.2,196.2,303.6,194.9,303.6,193.1z"/>
		<path d="M90.2,193.1v-15.9c0-1.7-1.5-3.2-3.2-3.2H41c-1.8,0-3.2,1.5-3.2,3.2V193c0,1.7,1.5,3.2,3.2,3.2h46
			C88.8,196.2,90.2,194.9,90.2,193.1z"/>
		<path d="M71.7,234.4H40.6c-1.8,0-3.4-1.6-3.4-3.4v-27.7c0-1.8,1.6-3.4,3.4-3.4h31.2c1.8,0,3.4,1.6,3.4,3.4V231
			C75.1,232.9,73.6,234.4,71.7,234.4z"/>
		<path d="M300.9,234.4h-31.1c-1.8,0-3.4-1.6-3.4-3.4v-27.7c0-1.8,1.6-3.4,3.4-3.4H301c1.8,0,3.4,1.6,3.4,3.4V231
			C304.2,233,302.8,234.4,300.9,234.4z"/>
		<path d="M300.9,285.4h-31.1c-1.8,0-3.4-1.6-3.4-3.4v-27.7c0-1.8,1.6-3.4,3.4-3.4H301c1.8,0,3.4,1.6,3.4,3.4V282
			C304.2,283.9,302.8,285.4,300.9,285.4z"/>
		<path d="M71.7,285.4H40.6c-1.8,0-3.4-1.6-3.4-3.4v-27.7c0-1.8,1.6-3.4,3.4-3.4h31.2c1.8,0,3.4,1.6,3.4,3.4V282
			C75.1,283.9,73.6,285.4,71.7,285.4z"/>
	</g>
	<g>
		<text transform="matrix(1 0 0 1 51.4287 58.5777)" style="fill:#FFFFFF; font-family:'ArialMT'; font-size:9.8153px;">MCR</text>
		<text transform="matrix(1 0 0 1 49.9287 70.5777)" style="fill:#FFFFFF; font-family:'ArialMT'; font-size:12.6197px;">75</text>
		<text transform="matrix(1 0 0 1 64.0287 70.5777)" style="fill:#3DBFEF; font-family:'ArialMT'; font-size:12.6197px;">%</text>
		<text transform="matrix(1 0 0 1 48.7056 89.1817)" style="fill:#FFFFFF; font-family:'ArialMT'; font-size:9.8153px;">BLEED</text>
		<text transform="matrix(1 0 0 1 55.6191 114.0088)" style="fill:#FFFFFF; font-family:'ArialMT'; font-size:9.8153px;">NH</text>
		<text transform="matrix(1 0 0 1 47.4191 125.8088)" style="fill:#3DBFEF; font-family:'ArialMT'; font-size:9.8153px;">%RPM</text>
		<text transform="matrix(1 0 0 1 269.1274 114.0088)" style="fill:#FFFFFF; font-family:'ArialMT'; font-size:9.8153px;">NH</text>
		<text transform="matrix(1 0 0 1 260.9274 125.8088)" style="fill:#3DBFEF; font-family:'ArialMT'; font-size:9.8153px;">%RPM</text>
		<text transform="matrix(1 0 0 1 39.7705 182.3594)" style="fill:#FFFFFF; font-family:'ArialMT'; font-size:9.8153px;">OSG TEST</text>
		<text transform="matrix(1 0 0 1 47.6705 194.1594)" style="fill:#FFFFFF; font-family:'ArialMT'; font-size:9.8153px;">IN PRG</text>
		<text transform="matrix(1 0 0 1 251.5562 182.3594)" style="fill:#FFFFFF; font-family:'ArialMT'; font-size:9.8153px;">OSG TEST</text>
		<text transform="matrix(1 0 0 1 259.4562 194.1594)" style="fill:#FFFFFF; font-family:'ArialMT'; font-size:9.8153px;">IN PRG</text>
		<text transform="matrix(1 0 0 1 50.4609 208.6807)" style="fill:#FFFFFF; font-family:'ArialMT'; font-size:9.8153px;">FF</text>
		<text transform="matrix(1 0 0 1 46.3609 219.3807)" style="fill:#3DBFEF; font-family:'ArialMT'; font-size:9.8153px;">PPH</text>
		<text transform="matrix(1 0 0 1 42.4609 230.0807)" style="fill:#FFFFFF; font-family:'ArialMT'; font-size:12.6197px;">1020</text>
		<text transform="matrix(1 0 0 1 279.6636 208.6807)" style="fill:#FFFFFF; font-family:'ArialMT'; font-size:9.8153px;">FF</text>
		<text transform="matrix(1 0 0 1 275.5636 219.3807)" style="fill:#3DBFEF; font-family:'ArialMT'; font-size:9.8153px;">PPH</text>
		<text transform="matrix(1 0 0 1 271.6636 230.0807)" style="fill:#FFFFFF; font-family:'ArialMT'; font-size:12.6197px;">1020</text>
		<text transform="matrix(1 0 0 1 48.4712 260.4405)" style="fill:#FFFFFF; font-family:'ArialMT'; font-size:9.8153px;">NL</text>
		<text transform="matrix(1 0 0 1 39.4712 272.2405)" style="fill:#3DBFEF; font-family:'ArialMT'; font-size:9.8153px;">%RPM</text>
		<text transform="matrix(1 0 0 1 49.2712 284.0405)" style="fill:#FFFFFF; font-family:'ArialMT'; font-size:9.8153px;">74</text>
		<text transform="matrix(1 0 0 1 277.3701 260.4405)" style="fill:#FFFFFF; font-family:'ArialMT'; font-size:9.8153px;">NL</text>
		<text transform="matrix(1 0 0 1 268.3701 272.2405)" style="fill:#3DBFEF; font-family:'ArialMT'; font-size:9.8153px;">%RPM</text>
		<text transform="matrix(1 0 0 1 278.1701 284.0405)" style="fill:#FFFFFF; font-family:'ArialMT'; font-size:9.8153px;">74</text>
		<text transform="matrix(1 0 0 1 40.5884 399.4922)" style="fill:#FFFFFF; font-family:'ArialMT'; font-size:9.8153px;">IOP1 FAIL</text>
		<text transform="matrix(1 0 0 1 256.0054 399.1328)" style="fill:#FFFFFF; font-family:'ArialMT'; font-size:9.8153px;">FANS FAIL</text>
		<g>
			<text transform="matrix(1 0 0 1 71.3882 315.2061)" style="fill:#FFFFFF; font-family:'ArialMT'; font-size:9.8153px;">OIL</text>
			<g>
				<text transform="matrix(1 0 0 1 45.0952 320.5528)" style="fill:#3DBFEF; font-family:'ArialMT'; font-size:9.8153px;">&#xB0;C</text>
				<text transform="matrix(1 0 0 1 45.0952 332.3528)" style="fill:#FFFFFF; font-family:'ArialMT'; font-size:9.8153px;">50</text>
				<text transform="matrix(1 0 0 1 101.604 320.5528)" style="fill:#3DBFEF; font-family:'ArialMT'; font-size:9.8153px;">PSI</text>
				<text transform="matrix(1 0 0 1 101.604 332.3528)" style="fill:#FFFFFF; font-family:'ArialMT'; font-size:9.8153px;">55</text>
			</g>
			<g>
				<g>
					<g>
						<path style="fill:#FFFFFF;" d="M75.5,362.2c-9-1.7-15.8-9.6-15.8-19.1s6.8-17.4,15.9-19.1l-0.7-2.9c-10.4,2-18.2,11.1-18.2,22
							s7.8,20,18.1,22L75.5,362.2z"/>
						<path style="fill:#FFFFFF;" d="M83.4,321.1l-0.7,2.9c9,1.7,15.9,9.6,15.9,19.1s-6.8,17.4-15.8,19.1l0.7,2.9
							c10.3-2,18.1-11.1,18.1-22S93.8,323.1,83.4,321.1z"/>
					</g>
					<path style="fill:#FFEC00;" d="M69.3,359.9c-2.7-1.6-5.2-4.1-6.8-6.8l-2.5,1.7c1.9,3.2,4.7,5.9,7.9,7.8L69.3,359.9z"/>
					<path style="fill:#E42320;" d="M70.9,359.2l-1.2-0.7l-3.1,5l1.2,0.7L70.9,359.2z"/>
					<g>
						<path style="fill:#66B22E;" d="M62.5,353.1c-1.8-2.9-2.8-6.3-2.8-10c0-7,3.8-13.1,9.3-16.5l-1.7-2.6c-6.4,4-10.7,11-10.7,19.1
							c0,4.3,1.2,8.3,3.3,11.7L62.5,353.1z"/>
					</g>
					<path style="fill:#E42320;" d="M69,328.1l1.2-0.9l-3.3-4.9l-1.2,0.9L69,328.1z"/>
					<path style="fill:#66B22E;" d="M97.2,329.8l-2.6,1.6c2.5,3.2,3.9,7.2,4,11.6h3C101.5,338,99.9,333.4,97.2,329.8z"/>
					<path style="fill:#FFEC00;" d="M94.6,331.3l2.6-1.6c-3.2-4.5-8.3-7.6-13.8-8.7l-0.7,2.9C87.3,324.9,91.8,327.6,94.6,331.3z"/>
					<path style="fill:#FFEC00;" d="M98.6,342.9c0.1,6.2-3,11.9-7.1,15.3l1.7,2.5c4.9-3.9,8.4-10.1,8.4-17.8H98.6z"/>
					<path style="fill:#E42320;" d="M90.7,357.2l-1.1,1.1l4.1,4.3l1.1-1.1L90.7,357.2z"/>
				</g>
				<g>
					<path style="fill:#FFFFFF;" d="M97.3,338.5h-5.1l-10.3,2.4l0.6,0.4l0.4,0.9l0.2,1.1v0.6l10.3-2.6L97.3,338.5z"/>
					<path style="fill:#FFFFFF;" d="M76.1,341.7l0.2-0.2H66l-5.1,1.5l5.1,1.9h10.1C75.7,343.8,75.7,342.8,76.1,341.7z"/>
					<g>
						<circle style="fill:#FFFFFF;" cx="79.4" cy="343.5" r="4.2"/>
						<circle style="fill:#1D1D1B;" cx="79.4" cy="343.5" r="3.4"/>
					</g>
				</g>
			</g>
		</g>
		<g>
			<text transform="matrix(1 0 0 1 255.3638 315.2061)" style="fill:#FFFFFF; font-family:'ArialMT'; font-size:9.8153px;">OIL</text>
			<g>
				<text transform="matrix(1 0 0 1 229.0698 320.5528)" style="fill:#3DBFEF; font-family:'ArialMT'; font-size:9.8153px;">&#xB0;C</text>
				<text transform="matrix(1 0 0 1 229.0698 332.3528)" style="fill:#FFFFFF; font-family:'ArialMT'; font-size:9.8153px;">50</text>
				<text transform="matrix(1 0 0 1 285.5801 320.5528)" style="fill:#3DBFEF; font-family:'ArialMT'; font-size:9.8153px;">PSI</text>
				<text transform="matrix(1 0 0 1 285.5801 332.3528)" style="fill:#FFFFFF; font-family:'ArialMT'; font-size:9.8153px;">55</text>
			</g>
			<g>
				<g>
					<g>
						<path style="fill:#FFFFFF;" d="M259.4,362.2c-9-1.7-15.8-9.6-15.8-19.1s6.8-17.4,15.9-19.1l-0.7-2.9
							c-10.4,2-18.2,11.1-18.2,22s7.8,20,18.1,22L259.4,362.2z"/>
						<path style="fill:#FFFFFF;" d="M267.4,321.1l-0.7,2.9c9,1.7,15.9,9.6,15.9,19.1s-6.8,17.4-15.8,19.1l0.7,2.9
							c10.3-2,18.1-11.1,18.1-22S277.7,323.1,267.4,321.1z"/>
					</g>
					<path style="fill:#FFEC00;" d="M253.3,359.9c-2.7-1.6-5.2-4.1-6.8-6.8l-2.5,1.7c1.9,3.2,4.7,5.9,7.9,7.8L253.3,359.9z"/>
					<path style="fill:#E42320;" d="M254.8,359.2l-1.2-0.7l-3.1,5l1.2,0.7L254.8,359.2z"/>
					<g>
						<path style="fill:#66B22E;" d="M246.4,353.1c-1.8-2.9-2.8-6.3-2.8-10c0-7,3.8-13.1,9.3-16.5l-1.7-2.6
							c-6.4,4-10.7,11-10.7,19.1c0,4.3,1.2,8.3,3.3,11.7L246.4,353.1z"/>
					</g>
					<path style="fill:#E42320;" d="M253,328.1l1.2-0.9l-3.3-4.9l-1.2,0.9L253,328.1z"/>
					<path style="fill:#66B22E;" d="M281.1,329.8l-2.6,1.6c2.5,3.2,3.9,7.2,4,11.6h3C285.5,338,283.9,333.4,281.1,329.8z"/>
					<path style="fill:#FFEC00;" d="M278.5,331.3l2.6-1.6c-3.2-4.5-8.3-7.6-13.8-8.7l-0.7,2.9C271.3,324.9,275.8,327.6,278.5,331.3z
						"/>
					<path style="fill:#FFEC00;" d="M282.5,342.9c0.1,6.2-3,11.9-7.1,15.3l1.7,2.5c4.9-3.9,8.4-10.1,8.4-17.8H282.5z"/>
					<path style="fill:#E42320;" d="M274.7,357.2l-1.1,1.1l4.1,4.3l1.1-1.1L274.7,357.2z"/>
				</g>
				<g>
					<path style="fill:#FFFFFF;" d="M281.3,338.5h-5.1l-10.3,2.4l0.6,0.4l0.4,0.9l0.2,1.1v0.6l10.3-2.6L281.3,338.5z"/>
					<path style="fill:#FFFFFF;" d="M260.1,341.7l0.2-0.2H250l-5.1,1.5l5.1,1.9h10.1C259.6,343.8,259.6,342.8,260.1,341.7z"/>
					<g>
						<circle style="fill:#FFFFFF;" cx="263.4" cy="343.5" r="4.2"/>
						<circle style="fill:#1D1D1B;" cx="263.4" cy="343.5" r="3.4"/>
					</g>
				</g>
			</g>
		</g>
		<g>
			<text transform="matrix(1 0 0 1 160.2876 78.7573)" style="fill:#FFFFFF; font-family:'ArialMT'; font-size:9.8153px;">TRQ</text>
			<text transform="matrix(1 0 0 1 166.2876 90.5573)" style="fill:#3DBFEF; font-family:'ArialMT'; font-size:9.8153px;">%</text>
			<text transform="matrix(1 0 0 1 149.1489 52.8877)" style="fill:#FFFFFF; font-family:'ArialMT'; font-size:11.2174px;">UPTRIM</text>
			<text transform="matrix(1 0 0 1 139.8306 145.9912)" style="fill:#FFFFFF; font-family:'ArialMT'; font-size:9.8153px;">[ CHECK ED ]</text>
			<text transform="matrix(1 0 0 1 156.7358 174.7735)" style="fill:#FFFFFF; font-family:'ArialMT'; font-size:9.8153px;">PROP</text>
			<text transform="matrix(1 0 0 1 159.7358 186.5735)" style="fill:#3DBFEF; font-family:'ArialMT'; font-size:9.8153px;">RPM</text>
			<text transform="matrix(1 0 0 1 142.2788 296.5381)" style="fill:#FFFFFF; font-family:'ArialMT'; font-size:9.8153px;">[ BALANCE ]</text>
			<text transform="matrix(1 0 0 1 163.3755 247.0967)" style="fill:#FFFFFF; font-family:'ArialMT'; font-size:9.8153px;">ITT</text>
			<text transform="matrix(1 0 0 1 163.3755 258.8967)" style="fill:#3DBFEF; font-family:'ArialMT'; font-size:9.8153px;">&#xB0;C</text>
			<text transform="matrix(1 0 0 1 131.481 398.6231)" style="fill:#FFFFFF; font-family:'ArialMT'; font-size:11.2174px;">POWERPLANT</text>
			<text transform="matrix(1 0 0 1 129.8784 382.6162)" style="fill:#FFFFFF; font-family:'ArialMT'; font-size:9.1141px;">[INCR REF SPEED]</text>
			<text transform="matrix(1 0 0 1 134.6509 369.5225)" style="fill:#FFFFFF; font-family:'ArialMT'; font-size:9.8153px;">ICE DETECTED</text>
			<text transform="matrix(1 0 0 1 158.2769 310.833)" style="fill:#FFFFFF; font-family:'ArialMT'; font-size:9.8153px;">FUEL</text>
			<text transform="matrix(1 0 0 1 131.7573 323.335)" style="fill:#FFFFFF; font-family:'ArialMT'; font-size:9.8153px;">2050</text>
			<text transform="matrix(1 0 0 1 131.7573 335.135)" style="fill:#FFFFFF; font-family:'ArialMT'; font-size:9.8153px;">+22</text>
			<text transform="matrix(1 0 0 1 161.3687 323.6153)" style="fill:#3DBFEF; font-family:'ArialMT'; font-size:9.8153px;">LBS</text>
			<text transform="matrix(1 0 0 1 161.3687 335.4153)" style="fill:#3DBFEF; font-family:'ArialMT'; font-size:9.8153px;">&#xB0;C</text>
			<text transform="matrix(1 0 0 1 189.2446 323.3145)" style="fill:#FFFFFF; font-family:'ArialMT'; font-size:9.8153px;">2050</text>
			<text transform="matrix(1 0 0 1 189.2446 335.1145)" style="fill:#FFFFFF; font-family:'ArialMT'; font-size:9.8153px;">+22</text>
			<text transform="matrix(1 0 0 1 143.5015 350.0772)" style="fill:#FFFFFF; font-family:'ArialMT'; font-size:9.8153px;">SAT  - 27 </text>
			<text transform="matrix(1 0 0 1 187.7015 350.0772)" style="fill:#3DBFEF; font-family:'ArialMT'; font-size:9.8153px;">&#xB0;C</text>
			<g>
				<text transform="matrix(1 0 0 1 113.1167 288)" style="fill:#FFFFFF; font-family:'ArialMT'; font-size:12.6197px;">755</text>
				<g>
					<g>
						<path style="fill:#FFFFFF;" d="M99.1,273c-1.2-3.1-1.9-6.5-1.9-10c0-14.9,12.1-27,27-27s27,12.1,27,27
							c0,8.1-3.6,15.4-9.3,20.4l2.3,2.5c6.4-5.6,10.5-13.8,10.5-22.9c0-16.8-13.6-30.4-30.4-30.4S93.7,246.2,93.7,263
							c0,4.1,0.8,7.9,2.3,11.5L99.1,273z"/>
					</g>
					<g>
						<path style="fill:#66B22E;" d="M151.1,263c0,0.3,0,0.6,0,0.9h3.4c0-0.3,0-0.6,0-0.9c0-16.8-13.6-30.4-30.4-30.4
							c-11.2,0-20.9,6-26.2,15l2.8,2.1c4.6-8.1,13.4-13.6,23.4-13.6C139,236,151.1,248.1,151.1,263z"/>
					</g>
					<rect x="151" y="262.2" style="fill:#E20613;" width="6.8" height="1.7"/>
				</g>
				<path style="fill:#FFFFFF;" d="M122.7,260.7l2.1,2.1l16.7-16l1.9-3.9l-0.2-0.2l-3.9,1.9L122.7,260.7z"/>
			</g>
			<g>
				<text transform="matrix(1 0 0 1 118.7534 121.7012)" style="fill:#FFFFFF; font-family:'ArialMT'; font-size:12.6197px;">75</text>
				<g>
					<g>
						<path style="fill:#FFFFFF;" d="M155.6,105.1c-0.2,5-1.6,9.7-3.9,13.8l3.5,1.9c2.6-4.7,4.2-10,4.4-15.6h-4V105.1z"/>
						<path style="fill:#66B22E;" d="M92.9,103.6c0-17.3,14-31.4,31.4-31.4s31.4,14,31.4,31.4c0,0.1,0,0.2,0,0.3h4
							c0-0.1,0-0.2,0-0.3c0-19.5-15.8-35.4-35.4-35.4s-35.4,15.9-35.4,35.4c0,4.8,1,9.4,2.7,13.6l3.7-1.5
							C93.8,112,92.9,107.9,92.9,103.6z"/>
					</g>
					<path style="fill:#E8E241;" d="M160.9,104.5l-6.3,0.4c0-2-0.3-4.3-0.8-6.6l6.4-0.8C160.7,99.7,160.9,102.1,160.9,104.5z"/>
					<rect x="154.6" y="103.6" style="fill:#E52053;" width="8.1" height="1.9"/>
				</g>
				<path style="fill:#FFFFFF;" d="M128.4,65.6h-8.3l4.3,6L128.4,65.6z"/>
				<path style="fill:#FFFFFF;" d="M123.9,71.9l-1.5,4.7v26.7h3.6V76.7l-1.5-4.7L123.9,71.9L123.9,71.9z"/>
			</g>
			<g>
				<text transform="matrix(1 0 0 1 209.314 121.7012)" style="fill:#FFFFFF; font-family:'ArialMT'; font-size:12.6197px;">75</text>
				<g>
					<g>
						<path style="fill:#FFFFFF;" d="M246.1,105.1c-0.2,5-1.6,9.7-3.9,13.8l3.5,1.9c2.6-4.7,4.2-10,4.4-15.6h-4V105.1z"/>
						<path style="fill:#66B22E;" d="M183.5,103.6c0-17.3,14-31.4,31.4-31.4s31.4,14,31.4,31.4c0,0.1,0,0.2,0,0.3h4
							c0-0.1,0-0.2,0-0.3c0-19.5-15.8-35.4-35.4-35.4s-35.4,15.8-35.4,35.4c0,4.8,1,9.4,2.7,13.6l3.7-1.5
							C184.3,112,183.5,107.9,183.5,103.6z"/>
					</g>
					<path style="fill:#E8E241;" d="M251.5,104.5l-6.3,0.4c0-2-0.3-4.3-0.8-6.6l6.4-0.8C251.3,99.7,251.5,102.1,251.5,104.5z"/>
					<rect x="245.1" y="103.6" style="fill:#E52053;" width="8.1" height="1.9"/>
				</g>
				<path style="fill:#FFFFFF;" d="M219,65.6h-8.3l4.3,6L219,65.6z"/>
				<path style="fill:#FFFFFF;" d="M214.5,71.9l-1.5,4.7v26.7h3.6V76.7l-1.5-4.7L214.5,71.9L214.5,71.9z"/>
			</g>
			<g>
				<text transform="matrix(1 0 0 1 109.6909 214.0166)" style="fill:#FFFFFF; font-family:'ArialMT'; font-size:12.6197px;">1020</text>
				<g>
					<g>
						<path style="fill:#FFFFFF;" d="M151.1,193.8c-0.2,4.2-1.4,8.2-3.3,11.7l3,1.6c2.2-4,3.5-8.5,3.7-13.3H151.1z"/>
						<path style="fill:#66B22E;" d="M97.8,192.5c0-14.7,11.9-26.7,26.7-26.7s26.7,11.9,26.7,26.7c0,0.1,0,0.2,0,0.3h3.4
							c0-0.1,0-0.2,0-0.3c0-16.6-13.5-30.1-30.1-30.1s-30.1,13.5-30.1,30.1c0,4.1,0.8,8,2.3,11.5l3.1-1.3
							C98.5,199.6,97.8,196.1,97.8,192.5z"/>
					</g>
					<path style="fill:#E8E241;" d="M155.7,193.2l-5.4,0.3c0-1.7-0.3-3.6-0.6-5.6l5.5-0.7C155.5,189.1,155.7,191.2,155.7,193.2z"/>
					<rect x="150.3" y="192.5" style="fill:#E52053;" width="6.9" height="1.6"/>
					<g>
						<path style="fill:#FFFFFF;" d="M130.9,163.1c-2.1-0.4-4.2-0.7-6.4-0.7c-16.6,0-30.1,13.5-30.1,30.1c0,4.1,0.8,8,2.3,11.5
							l3.1-1.3c-1.3-3.2-2-6.6-2-10.2c0-14.7,11.9-26.7,26.7-26.7c1.8,0,3.5,0.2,5.2,0.5L130.9,163.1z"/>
					</g>
				</g>
				<path style="fill:#FFFFFF;" d="M150.4,184.9l-4.3-0.4l-22.7,5.1l0.6,3l22.7-5.1l3.6-2.1v-0.5H150.4z"/>
			</g>
			<g>
				<text transform="matrix(1 0 0 1 200.2524 214.0166)" style="fill:#FFFFFF; font-family:'ArialMT'; font-size:12.6197px;">1020</text>
				<g>
					<g>
						<path style="fill:#FFFFFF;" d="M241.7,193.8c-0.2,4.2-1.4,8.2-3.3,11.7l3,1.6c2.2-4,3.5-8.5,3.7-13.3H241.7z"/>
						<path style="fill:#66B22E;" d="M188.4,192.5c0-14.7,11.9-26.7,26.7-26.7s26.7,11.9,26.7,26.7c0,0.1,0,0.2,0,0.3h3.4
							c0-0.1,0-0.2,0-0.3c0-16.6-13.5-30.1-30.1-30.1S185,175.9,185,192.5c0,4.1,0.8,8,2.3,11.5l3.1-1.3
							C189.1,199.6,188.4,196.1,188.4,192.5z"/>
					</g>
					<path style="fill:#E8E241;" d="M246.2,193.2l-5.4,0.3c0-1.7-0.3-3.6-0.6-5.6l5.5-0.7C246.1,189.1,246.2,191.2,246.2,193.2z"/>
					<rect x="240.8" y="192.5" style="fill:#E52053;" width="6.9" height="1.6"/>
					<g>
						<path style="fill:#FFFFFF;" d="M221.4,163.1c-2.1-0.4-4.2-0.7-6.4-0.7c-16.6,0-30.1,13.5-30.1,30.1c0,4.1,0.8,8,2.3,11.5
							l3.1-1.3c-1.3-3.2-2-6.6-2-10.2c0-14.7,11.9-26.7,26.7-26.7c1.8,0,3.5,0.2,5.2,0.5L221.4,163.1z"/>
					</g>
				</g>
				<path style="fill:#FFFFFF;" d="M241,184.9l-4.3-0.4l-22.7,5.1l0.6,3l22.7-5.1l3.6-2.1L241,184.9L241,184.9z"/>
			</g>
			<g>
				<text transform="matrix(1 0 0 1 203.6792 288)" style="fill:#FFFFFF; font-family:'ArialMT'; font-size:12.6197px;">755</text>
				<g>
					<g>
						<path style="fill:#FFFFFF;" d="M189.6,273c-1.2-3.1-1.9-6.5-1.9-10c0-14.9,12.1-27,27-27s27,12.1,27,27
							c0,8.1-3.6,15.4-9.3,20.4l2.3,2.5c6.4-5.6,10.5-13.8,10.5-22.9c0-16.8-13.6-30.4-30.4-30.4s-30.4,13.6-30.4,30.4
							c0,4.1,0.8,7.9,2.3,11.5L189.6,273z"/>
					</g>
					<g>
						<path style="fill:#66B22E;" d="M241.6,263c0,0.3,0,0.6,0,0.9h3.4c0-0.3,0-0.6,0-0.9c0-16.8-13.6-30.4-30.4-30.4
							c-11.2,0-20.9,6-26.2,15l2.8,2.1c4.6-8.1,13.4-13.6,23.4-13.6C229.6,236,241.6,248.1,241.6,263z"/>
					</g>
					<rect x="241.6" y="262.2" style="fill:#E20613;" width="6.8" height="1.7"/>
				</g>
				<path style="fill:#FFFFFF;" d="M213.3,260.7l2.1,2.1l16.7-16l1.9-3.9l-0.2-0.2l-3.9,1.9L213.3,260.7z"/>
			</g>
		</g>
		<g>
			<text transform="matrix(1 0 0 1 259.644 167.7764)" style="fill:#FFFFFF; font-family:'ArialMT'; font-size:12.6197px;">92.3</text>
			<g>
				<g>
					<g>
						<path style="fill:#66B22E;" d="M251.8,151.3c0-11.1,9-20.1,20.1-20.1c11.1,0,20.1,9,20.1,20.1c0,0.1,0,0.1,0,0.2h2.6
							c0-0.1,0-0.1,0-0.2c0-12.5-10.2-22.7-22.7-22.7c-12.5,0-22.7,10.2-22.7,22.7c0,3.1,0.6,6,1.7,8.7l2.4-1
							C252.4,156.6,251.8,154,251.8,151.3z"/>
						<path style="fill:#FFFFFF;" d="M291.7,147.6c1.1,5.8-0.7,10.9-2.2,13.5l2.3,1.2c1.7-3,3.7-9.3,2.4-15.3L291.7,147.6z"/>
					</g>
					
						<rect x="290.5" y="145.3" transform="matrix(0.9763 -0.2164 0.2164 0.9763 -24.658 67.1061)" style="fill:#E52053;" width="7.2" height="1.7"/>
					<g>
						<path style="fill:#FFFFFF;" d="M276.7,129.1c-1.5-0.3-3.2-0.5-4.8-0.5c-12.5,0-22.7,10.2-22.7,22.7c0,3.1,0.6,6,1.7,8.7l2.4-1
							c-1-2.4-1.5-5-1.5-7.7c0-11.1,9-20.1,20.1-20.1c1.3,0,2.6,0.1,3.9,0.4L276.7,129.1z"/>
					</g>
				</g>
				<path style="fill:#FFFFFF;" d="M291.4,145.6l-3.2-0.3l-17.1,3.9l0.5,2.3l17.1-3.9l2.7-1.6V145.6z"/>
			</g>
		</g>
		<g>
			<text transform="matrix(1 0 0 1 53.5552 167.7764)" style="fill:#FFFFFF; font-family:'ArialMT'; font-size:12.6197px;">92.3</text>
			<g>
				<g>
					<g>
						<path style="fill:#66B22E;" d="M45.7,151.3c0-11.1,9-20.1,20.1-20.1s20.1,9,20.1,20.1c0,0.1,0,0.1,0,0.2h2.6
							c0-0.1,0-0.1,0-0.2c0-12.5-10.2-22.7-22.7-22.7s-22.7,10.2-22.7,22.7c0,3.1,0.6,6,1.7,8.7l2.4-1
							C46.3,156.6,45.7,154,45.7,151.3z"/>
						<path style="fill:#FFFFFF;" d="M85.6,147.6c1.1,5.8-0.7,10.9-2.2,13.5l2.3,1.2c1.7-3,3.7-9.3,2.4-15.3L85.6,147.6z"/>
					</g>
					
						<rect x="84.4" y="145.3" transform="matrix(0.9763 -0.2164 0.2164 0.9763 -29.5415 22.5062)" style="fill:#E52053;" width="7.2" height="1.7"/>
					<g>
						<path style="fill:#FFFFFF;" d="M70.6,129.1c-1.5-0.3-3.2-0.5-4.8-0.5c-12.5,0-22.7,10.2-22.7,22.7c0,3.1,0.6,6,1.7,8.7l2.4-1
							c-1-2.4-1.5-5-1.5-7.7c0-11.1,9-20.1,20.1-20.1c1.3,0,2.6,0.1,3.9,0.4L70.6,129.1z"/>
					</g>
				</g>
				<path style="fill:#FFFFFF;" d="M85.3,145.6l-3.2-0.3L65,149.1l0.5,2.3l17.1-3.9l2.7-1.6V145.6z"/>
			</g>
		</g>
		<text transform="matrix(1 0 0 1 269.4287 58.5777)" style="fill:#FFFFFF; font-family:'ArialMT'; font-size:9.8153px;">MCR</text>
		<text transform="matrix(1 0 0 1 267.9287 70.5777)" style="fill:#FFFFFF; font-family:'ArialMT'; font-size:12.6197px;">75</text>
		<text transform="matrix(1 0 0 1 282.0287 70.5777)" style="fill:#3DBFEF; font-family:'ArialMT'; font-size:12.6197px;">%</text>
		<text transform="matrix(1 0 0 1 264.7056 89.1817)" style="fill:#FFFFFF; font-family:'ArialMT'; font-size:9.8153px;">BLEED</text>
		<text transform="matrix(1 0 0 1 148.9487 159.6624)" style="fill:#FFFFFF; font-family:'ArialMT'; font-size:9.8153px;">A/F ARM</text>
	</g>
</g>
</svg>
