<?xml version="1.0" encoding="utf-8"?>
<!-- Generator: Adobe Illustrator 24.1.0, SVG Export Plug-In . SVG Version: 6.00 Build 0)  -->
<svg version="1.1" id="Ebene_1" xmlns="http://www.w3.org/2000/svg" xmlns:xlink="http://www.w3.org/1999/xlink" x="0px" y="0px"
	 viewBox="0 0 349.1 161" style="enable-background:new 0 0 349.1 161;" xml:space="preserve">
<style type="text/css">
	.st0{fill:#999999;}
	.st1{fill:#FFFFFF;}
	.st2{fill:none;stroke:#000000;stroke-width:0.55;stroke-linecap:round;stroke-linejoin:round;}
	.st3{fill:#0099FF;}
	.st4{fill:none;stroke:#000000;stroke-width:0.7;stroke-linecap:round;stroke-linejoin:round;}
	.st5{fill:none;stroke:#000000;stroke-width:0.25;stroke-linecap:round;stroke-linejoin:round;}
	.st6{fill:none;stroke:#FFFFFF;stroke-width:0.85;stroke-linecap:round;stroke-linejoin:round;}
	.st7{fill:none;stroke:#FF9900;stroke-linecap:round;stroke-linejoin:round;}
	.st8{font-family:'ArialMT';}
	.st9{font-size:14px;}
</style>
<g>
	<path class="st0" d="M161.6,110.3L161.6,110.3l-0.1,0.2l-0.1,0.2l-0.3,0.2l-0.2,0.2l-0.2,0.1l-0.1,0.1l-2.9,1.4l-0.1-0.1l-0.3-0.2
		h-0.4l-0.2,0.1l-1.5,0.9l-0.1,0.1v0.1l-0.7,1.2l-2,1.1l-0.2,0.2l0.4,0.7L152,118l0.5,0.9l2.1-1l3.2-1l1-0.6l3-0.7l2-0.7l0.4,0.2
		l0.7,0.3l0.3,0.2h0.9l0.3-0.2l0,0l0.3-0.2l0.7,0.3h0.4l0.7-0.1l4.6-2.7l0.9-1.4l-0.1-2.1l-0.9-2.3l-1.6-2l-1.8-1l-1.6,0.2l-4.3,2.5
		l-0.3,0.2l-0.5,0.6l-0.2,0.6l0,0l-0.1,0.5l0,0l-0.8,0.7l-0.1,0.7L161.6,110.3z"/>
	<path class="st1" d="M199.2,88.5L199.2,88.5h-0.1l-0.1-0.1l-0.1-0.1h-0.1l-0.1-0.1l0,0h-0.1v-0.1h-0.1h-0.1l-0.1-0.1l0,0v-0.1H198
		l-3.2-1.8l-0.3-0.2l-0.3-0.2l-0.3-0.1l-0.6-0.5l-0.2-0.3v-0.2v1l0.1,0.1l0.2,0.1l0.1,0.2l0.2,0.1l0.2,0.2l4.3,2.5v0.1h0.1l0.1,0.1
		h0.1l0,0l0.1,0.1l0,0h0.1l0.1,0.1h0.1l0,0l0.1,0.1h0.1l33,19.1h0.1l0.1,0.1l0,0l0.1,0.1l0.2,0.1l0.1,0.1l0,0l3.2,1.8l1.7,0.7
		l0.6,0.1h0.3h0.8h0.3l0.3-0.1h0.3l0.3-0.2l1.5-0.6l0.4-0.3l2.5-1.4h0.1l0,0l0.1-0.1l0.1-0.1h0.1l0.1-0.1l0,0l0.1-0.1l0.1-0.1h0.1
		l0,0l0.1-0.1l28.4-16.4l0,0h0.1l0.1-0.1l0,0h0.1l0.1-0.1l0,0l0.1-0.1h0.1l0.1-0.1l0,0l0,0h0.1l0.1-0.1l0.3-0.1l0.3-0.2l0.3-0.1
		l0.7-0.6l0.2-0.1L277,90l0.2-0.2l0.1-0.2l0.2-0.1l0.1-0.2l0.2-0.7l-0.1-0.9v0.2v0.2l-0.4,0.7l-0.2,0.2l-0.2,0.1l-0.4,0.4l-1.7,1
		l-0.1,0.1l0,0l-0.1,0.1h-0.1l0,0h-0.1l-0.1,0.1h-0.1l0,0l-0.1,0.1H274V91h-0.1l0,0L246,107.6l0,0h-0.1l-0.1,0.1h-0.1l-0.1,0.1h-0.1
		l0,0l-0.1,0.1h-0.1l0,0l-0.1,0.1l0,0h-0.1v0.1H245l-4.4,2.3l-0.9,0.3l-0.6,0.1h-0.3l-0.8-0.1l-0.6-0.2l-1.4-0.6l-3.2-1.8h-0.1
		l-0.1-0.1l0,0l-0.1-0.1h-0.1l-0.1-0.1h-0.1v-0.1L199.2,88.5z"/>
	<path id="Layer2_1_MEMBER_2_1_STROKES" class="st2" d="M199.1,88.5L199.1,88.5l-0.2-0.1l-0.1-0.1h-0.1l-0.1-0.1l0,0h-0.1v-0.1h-0.1
		h-0.1l-0.1-0.1l0,0v-0.1H198l-3.2-1.8l-0.3-0.2l-0.3-0.2l-0.3-0.1l-0.6-0.5l-0.2-0.3v-0.2v1l0.1,0.1l0.2,0.1l0.1,0.2l0.2,0.1
		l0.2,0.2l4.3,2.5v0.1h0.1l0.1,0.1h0.1l0,0l0.1,0.1l0,0h0.1l0.1,0.1h0.1l0,0l0.1,0.1h0.1l33,19.1h0.1l0.1,0.1l0,0l0.1,0.1l0.2,0.1
		l0.1,0.1l0,0l3.2,1.8l1.7,0.7l0.6,0.1h1.4l0.3-0.1h0.3l0.3-0.2l1.5-0.6l0.4-0.3l2.5-1.4h0.1l0,0l0.1-0.1l0.1-0.1h0.1l0.1-0.1l0,0
		l0.1-0.1l0.1-0.1h0.1l0,0l0.1-0.1l28.4-16.4l0,0h0.1l0.1-0.1l0,0h0.1l0.1-0.1l0,0l0.1-0.1h0.1l0.1-0.1l0,0l0,0h0.1l0.1-0.1l0.3-0.1
		l0.3-0.2l0.3-0.1l0.7-0.6l0.2-0.1L277,90l0.2-0.2l0.1-0.2l0.2-0.1l0.1-0.2l0.2-0.7l-0.1-0.9v0.2v0.2l-0.4,0.7l-0.2,0.2l-0.2,0.1
		l-0.4,0.4l-1.7,1l-0.1,0.1l0,0l-0.1,0.1h-0.1l0,0h-0.1l-0.1,0.1h-0.1l0,0l-0.1,0.1H274V91h-0.1l0,0L246,107.6l0,0h-0.1l-0.1,0.1
		h-0.1l-0.1,0.1h-0.1l0,0l-0.1,0.1h-0.1l0,0l-0.1,0.1l0,0h-0.1v0.1H245l-4.4,2.3l-0.9,0.3l-0.6,0.1h-0.3l-0.8-0.1l-0.6-0.2l-1.4-0.6
		l-3.2-1.8h-0.1l-0.1-0.1l0,0l-0.1-0.1h-0.1l-0.1-0.1h-0.1v-0.1L199.1,88.5L199.1,88.5z"/>
	<path class="st1" d="M244.3,104.9h0.3l0.8,0.3l0.2,0.2l0.1,0.1l0.1,0.2v0.2v-0.6l-0.1-0.4l-0.5-0.3l-0.8-0.1l-0.8,0.2l-0.4,0.6v0.6
		l0.1-0.2l0.3-0.3L244.3,104.9z"/>
	<path id="Layer2_1_MEMBER_4_1_STROKES" class="st2" d="M243.2,105.8v-0.2V105l0.4-0.6l0.8-0.2l0.8,0.1l0.5,0.3l0.1,0.4v0.6v-0.2
		l-0.1-0.2l-0.1-0.1l-0.2-0.2l-0.8-0.3h-0.3l-0.8,0.3l-0.3,0.3l-0.1,0.2"/>
	<path class="st1" d="M230.3,65.3L230.3,65.3l-0.2-0.1H230h-0.2h-0.5h-0.1h-0.1l-0.1,0.1h-0.1l-0.2,0.1l-0.1,0.1h-0.1l-0.1,0.1l0,0
		l-0.1,0.1v0.1l-0.1,0.1l0,0l0.1,0.9v-0.1v-0.1l0.1-0.1l0.2-0.2h0.1l0.1-0.1l0.1-0.1h0.1h0.1l0.2-0.1h0.8l0.1,0.1h0.1h0.1l0.1,0.1
		l0.1,0.1h0.1l0.1,0.1v0.1h0.1l0.1,0.2v-0.9v-0.1v-0.1h-0.1l-0.1-0.1h-0.1v-0.1h-0.1L230.3,65.3z"/>
	<path id="Layer2_1_MEMBER_6_1_STROKES" class="st2" d="M230.3,65.3L230.3,65.3l-0.2-0.1H230h-0.2h-0.5h-0.1h-0.1l-0.1,0.1h-0.1
		l-0.2,0.1l-0.1,0.1h-0.1l-0.1,0.1l0,0l-0.1,0.1v0.1l-0.1,0.1l0,0l0.1,0.9v-0.1v-0.1l0.1-0.1l0.2-0.2h0.1l0.1-0.1l0.1-0.1h0.1h0.1
		l0.2-0.1h0.8l0.1,0.1h0.1h0.1l0.1,0.1l0.1,0.1h0.1l0.1,0.1v0.1h0.1l0.1,0.2v-0.9v-0.1v-0.1h-0.1l-0.1-0.1h-0.1v-0.1h-0.1
		L230.3,65.3z"/>
	<path class="st3" d="M233,61.6l-1.7,0.2l-1.5,0.6l-36.2,21.4l0.3,1.6l38.4,22.1l0.2,0.2l3.8,2.1l1.2,0.6l1.2,0.3h0.5l1.3-0.2
		l0.7-0.3l4.7-2.5l0.3-0.1l29-16.8l0.3-0.2l1.3-0.7l0.5-0.4l0.5-0.5l0.2-0.3l0.2-0.4l0.1-0.4L278,87l-0.6-0.8l-2.1-1.5l-0.3-0.2
		l-0.3-0.1l-39-22.4l-0.2-0.1h-0.2L233,61.6 M230.2,65.3l0.5,0.3l0.2,0.4l-0.2,0.4l-0.5,0.3l-0.6,0.1l-0.7-0.1l-0.5-0.3l-0.2-0.4
		l0.2-0.4l0.5-0.3l0.7-0.1L230.2,65.3 M204.4,81.1l-0.2,0.4l-0.5,0.2l-0.7,0.1l-0.6-0.1l-0.5-0.2l-0.2-0.4l0.2-0.3l0.5-0.3l0.6-0.1
		l0.7,0.1l0.5,0.3L204.4,81.1 M271.7,89.1l0.3,0.2l0.2,0.3v0.2V90l-0.1,0.2l-0.2,0.2l-0.3,0.1l-0.6,0.1l-0.7-0.1l-0.5-0.3l-0.1-0.2
		l-0.1-0.2l0.1-0.2l0.1-0.2l0.5-0.2l0.4-0.1h0.6h0.2H271.7 M245.8,105.1v0.2l-0.1,0.2l-0.3,0.2l-0.6,0.2h-0.7l-0.4-0.1l-0.3-0.2
		l-0.2-0.2l-0.1-0.1v-0.4l0.2-0.2l0.5-0.3l0.7-0.1h0.3l0.2,0.1h0.3l0.3,0.2l0.2,0.2L245.8,105.1z"/>
	<path id="Layer2_1_MEMBER_8_1_STROKES" class="st2" d="M229.8,62.4l-36.2,21.4l0.3,1.6l38.4,22.1l0.2,0.2l3.8,2.1l1.2,0.6l1.2,0.3
		h0.5l1.3-0.2l0.7-0.3l4.1-2.1l0.6-0.4l0.3-0.1l28.4-16.4l0.3-0.2l0.3-0.2l0.3-0.2l1.3-0.7l0.5-0.4l0.5-0.5l0.2-0.3l0.2-0.4l0.1-0.4
		L278,87l-0.6-0.8l-2.1-1.5l-0.3-0.2l-0.3-0.1l-39-22.4l-0.2-0.1h-0.2l-2.3-0.3l-1.7,0.2L229.8,62.4z M230.2,65.3l0.5,0.3l0.2,0.4
		l-0.2,0.4l-0.5,0.3l-0.6,0.1l-0.7-0.1l-0.5-0.3l-0.2-0.4l0.2-0.4l0.5-0.3l0.7-0.1L230.2,65.3z M204.4,81.1l-0.2,0.4l-0.5,0.2
		l-0.7,0.1l-0.6-0.1l-0.5-0.2l-0.2-0.4l0.2-0.3l0.5-0.3l0.6-0.1l0.7,0.1l0.5,0.3L204.4,81.1z M272,89.3l0.2,0.3v0.2V90l-0.1,0.2
		l-0.2,0.2l-0.3,0.1l-0.6,0.1l-0.7-0.1l-0.5-0.3l-0.1-0.2l-0.1-0.2l0.1-0.2l0.1-0.2l0.5-0.2l0.4-0.1h0.6h0.2l0.2,0.1L272,89.3z
		 M245.8,105.3l-0.1,0.2l-0.3,0.2l-0.6,0.2h-0.7l-0.4-0.1l-0.3-0.2l-0.2-0.2l-0.1-0.1v-0.4l0.2-0.2l0.5-0.3l0.7-0.1h0.3l0.2,0.1h0.3
		l0.3,0.2l0.2,0.2l0.1,0.2L245.8,105.3L245.8,105.3z"/>
	<path id="Layer2_1_MEMBER_9_1_STROKES" class="st2" d="M244.5,103.4l1.3,0.3l0.5,0.3l0.2,0.2l0.3,0.4v0.2l-0.1,0.3l-0.1,0.2
		l-0.4,0.4l-0.3,0.1l-0.2,0.1l-0.4,0.2l-1,0.1l-1-0.1l-0.9-0.4l-0.3-0.4l-0.1-0.2v-0.2v-0.3l0.2-0.3l0.3-0.2l0.2-0.1l0.2-0.1
		l0.2-0.1l0.4-0.1L244.5,103.4z"/>
	<path id="Layer2_1_MEMBER_10_1_STROKES" class="st2" d="M242.2,105.1l0.2-0.4l0.3-0.3l0.5-0.3"/>
	<path id="Layer2_1_MEMBER_11_1_STROKES" class="st2" d="M243.1,104.1l0.4-0.1l0.9-0.1"/>
	<path id="Layer2_1_MEMBER_12_1_STROKES" class="st2" d="M244.5,103.9l1.4,0.2"/>
	<path id="Layer2_1_MEMBER_13_1_STROKES" class="st2" d="M245.9,104.1l0.5,0.3l0.3,0.3l0.2,0.4"/>
	<path class="st1" d="M228.7,110.9l48.3-28l-37-21.3l-48.3,27.9L228.7,110.9z"/>
	<path id="Layer2_1_MEMBER_15_1_STROKES" class="st2" d="M276.9,82.9l-37-21.3l-48.3,27.9l37,21.4L276.9,82.9z"/>
	<path class="st3" d="M228.6,66.8l-37-21.4v44.1l36.9,21.4L228.6,66.8z"/>
	<path id="Layer2_1_MEMBER_17_1_STROKES" class="st2" d="M228.6,66.8l-37-21.4v44.1l36.9,21.4L228.6,66.8z"/>
	<path id="Layer2_1_MEMBER_18_1_STROKES" class="st2" d="M225.9,68.4l-31.4-18.1v40.9l31.4,18.2V68.4z"/>
	<path class="st3" d="M276.9,38.8l-48.3,28v44.1l48.3-28V38.8z"/>
	<path id="Layer2_1_MEMBER_20_1_STROKES" class="st2" d="M228.6,66.8v44.1l48.3-28V38.8L228.6,66.8z"/>
	<path id="Layer2_1_MEMBER_21_1_STROKES" class="st2" d="M240.4,63.2v37.6l33.8-19.6V43.5L240.4,63.2z"/>
	<path class="st3" d="M228.6,66.8l48.3-28l-37-21.3l-48.3,27.9L228.6,66.8z"/>
	<path id="Layer2_1_MEMBER_23_1_STROKES" class="st2" d="M240,17.5l-48.3,27.9l37,21.4l48.3-28L240,17.5z"/>
	<path id="Layer2_1_MEMBER_24_1_STROKES" class="st2" d="M240,27.1l-10.6,6.1l20.3,11.7l10.5-6.1L240,27.1z"/>
	<path id="Layer2_1_MEMBER_25_1_STROKES" class="st2" d="M240,20.7l-42.8,24.7l31.4,18.2l42.8-24.8L240,20.7z"/>
	<path class="st3" d="M207.6,81.1l0.1-0.1l0.1-0.1l0.1-0.2l0.3-0.3l0.2-0.1l-4.6,2.5l-0.1,0.1l-0.1,0.1l-0.3,0.3v0.1l-0.1,0.1v0.1
		l-0.1,0.2V84l-0.1,0.2v0.2v0.2l-0.1,0.2v0.4l0.1,0.2v0.4l0.1,0.2v0.2l0.1,0.2v0.2l0.1,0.5l0.1,0.2l0.1,0.3l0.3,0.6l0.2,0.2l0.3,0.5
		l0.3,0.4l0.2,0.2l0.2,0.3l0.2,0.1l0.5,0.6l0.2,0.1l0.2,0.2l0.1,0.2l1.3,0.7h0.2l0.2,0.1l0.3,0.1h0.1h0.2h0.3h0.2h0.2l0.1-0.1h0.1
		l4.4-2.4l-0.2,0.1h-0.9l-0.2-0.1h-0.2l-0.1-0.1H212l-0.7-0.4l-0.4-0.3l-0.2-0.1l-0.2-0.2l-0.1-0.2l-0.2-0.2l-0.2-0.2l-0.2-0.1
		l-0.1-0.2l-0.8-1l-0.5-0.9l-0.1-0.2l-0.3-0.7v-0.3l-0.2-0.5v-0.2l-0.1-0.2v-0.2V83l-0.1-0.2v-0.7l0.1-0.2v-0.2v-0.2l0.1-0.2v-0.2
		H207.6z"/>
	<path id="Layer2_1_MEMBER_27_1_STROKES" class="st2" d="M207.7,81l-0.1,0.1l-0.1,0.1v0.2l-0.1,0.2v0.2V82l-0.1,0.2v0.7l0.1,0.2v0.2
		v0.2l0.1,0.2v0.2l0.2,0.5v0.3l0.3,0.7l0.1,0.2l0.5,0.9l0.8,1l0.1,0.2l0.2,0.1l0.2,0.2l0.2,0.2l0.1,0.2l0.2,0.2l0.2,0.1L211,89
		l0.7,0.4h0.2l0.1,0.1h0.2l0.2,0.1h0.9l0.2-0.1l0.2-0.1l-0.1,0.1h-0.1l-4.4,2.4H209l-0.1,0.1h-0.2h-0.2h-0.3H208h0l-0.3-0.1
		l-0.2-0.1h-0.2l-1.3-0.7l-0.1-0.2l-0.2-0.2l-0.2-0.1L205,90l-0.2-0.1l-0.2-0.3l-0.2-0.2l-0.3-0.4l-0.3-0.5l-0.2-0.2l-0.3-0.6
		l-0.1-0.3l-0.1-0.2l-0.1-0.5v-0.2l-0.1-0.2v-0.2l-0.1-0.2v-0.4l-0.1-0.2v-0.4l0.1-0.2v-0.2v-0.2l0.1-0.2v-0.2l0.1-0.2v-0.1l0.1-0.1
		v-0.1l0.3-0.3l0.1-0.1l0.1-0.1l4.6-2.5l-0.2,0.1l-0.3,0.3L207.7,81L207.7,81z"/>
	<path class="st3" d="M204.9,82.1l0.2,0.1h0.2l0.2,0.1h0.2l0.8,0.4l0.4,0.3l0.3,0.1l0.2,0.2l0.2,0.1l0.6,0.6l0.7,0.8l0.1,0.3
		l0.4,0.5l0.3,0.5l0.4,0.7l0.2,0.3l0.4,1l0.1,0.5l0.1,0.2v0.3v0.2l0.1,0.2v0.9l-0.1,0.2v0.2V91l-0.1,0.2v0.2l-0.2,0.3l-0.1,0.1
		l-0.1,0.1l-0.2,0.1l-0.1,0.1l-0.3,0.2l4.4-2.4h0.2l0.1-0.1l0.2-0.3l0.1-0.1l0.1-0.1l0.2-0.5v-0.2l0.1-0.2v-0.2l0.1-0.2v-1l-0.1-0.2
		v-0.2l-0.1-0.2l-0.1-0.7l-0.4-1l-0.1-0.3l-0.1-0.2l-0.1-0.3l-0.2-0.2l-0.3-0.5l-0.4-0.5l-0.2-0.3l-0.7-0.8l-0.3-0.2l-0.1-0.2
		l-0.2-0.1l-0.2-0.2l-0.2-0.1l-0.2-0.2l-0.3-0.1l-0.2-0.1L210,80h-0.2l-0.2-0.1h-0.2l-0.2-0.1h-0.7l-0.2,0.1h-0.1L208,80h-0.2
		l-4.4,2.4h0.2l0.5-0.2h0.8V82.1z"/>
	<path id="Layer2_1_MEMBER_29_1_STROKES" class="st2" d="M205.1,82.1h0.2l0.2,0.1h0.2l0.8,0.4l0.4,0.3l0.3,0.1l0.2,0.2l0.2,0.1
		l0.6,0.6l0.7,0.8L209,85l0.4,0.5l0.3,0.5l0.4,0.7l0.2,0.3l0.4,1l0.1,0.5l0.1,0.2V89v0.2l0.1,0.2v0.9l-0.1,0.2v0.2v0.2l-0.1,0.2v0.2
		l-0.2,0.3l-0.1,0.1l-0.1,0.1l-0.2,0.1l-0.1,0.1l-0.3,0.2l4.4-2.4h0.2l0.1-0.1l0.2-0.3l0.1-0.1l0.1-0.1l0.2-0.5v-0.2l0.1-0.2v-0.2
		l0.1-0.2V87l-0.1-0.2v-0.2l-0.1-0.2l-0.1-0.7l-0.4-1l-0.1-0.3l-0.1-0.2l-0.1-0.3l-0.2-0.2l-0.3-0.5l-0.4-0.5l-0.2-0.3l-0.7-0.8
		l-0.3-0.2l-0.1-0.2l-0.2-0.1l-0.2-0.2l-0.2-0.1l-0.2-0.2l-0.3-0.1l-0.2-0.1L210,80h-0.2l-0.2-0.1h-0.2l-0.2-0.1h-0.7l-0.2,0.1h-0.1
		L208,80h-0.2l-4.4,2.4h0.2l0.5-0.2h0.7L205.1,82.1z"/>
	<path class="st1" d="M206.6,82.8l-0.7-0.4l-0.4-0.2l-1-0.2l-0.6,0.1l-0.5,0.2l-0.5,0.6l-0.2,0.4l-0.2,0.7v0.9l0.1,1l0.5,1.5l0.5,1
		l1.1,1.5l1.2,1.2l0.4,0.3l0.3,0.1l0.3,0.2l1.2,0.5h0.6l0.6-0.1l0.5-0.2l0.4-0.3l0.3-0.4l0.2-0.5l0.1-1v-0.6l-0.2-1.2l-0.8-2
		l-0.4-0.6l-1.4-1.7L206.6,82.8 M205.8,82.8l0.6,0.3l1.7,1.3l1.6,2.3l0.6,1.6l0.1,0.9v0.9l-0.1,0.6l-0.3,0.5l-0.4,0.4l-0.6,0.2h-0.6
		l-0.6-0.1l-0.7-0.3l-0.7-0.5l-0.7-0.6l-1.2-1.4l-1.1-2.3l-0.3-1.9l0.1-0.6l0.2-0.5l0.1-0.2l0.4-0.4l0.5-0.2l0.5-0.1L205.8,82.8z"/>
	<path id="Layer2_1_MEMBER_31_1_STROKES" class="st2" d="M205.8,82.8l-1.1-0.2l-0.5,0.1l-0.5,0.2l-0.4,0.4l-0.1,0.2L203,84l-0.1,0.6
		l0.3,1.9l1.1,2.3l1.2,1.4l0.7,0.6l0.7,0.5l0.7,0.3l0.6,0.1h0.6l0.6-0.2l0.4-0.4l0.3-0.5l0.1-0.6v-0.9l-0.1-0.9l-0.6-1.6l-1.6-2.3
		l-1.7-1.3L205.8,82.8z M205.9,82.4l-0.4-0.2l-1-0.2l-0.6,0.1l-0.5,0.2l-0.5,0.6l-0.2,0.4l-0.2,0.7v0.9l0.1,1l0.5,1.5l0.5,1l1.5,1.9
		l1.2,1l0.6,0.4l1.2,0.5h0.6l0.6-0.1l0.5-0.2l0.4-0.3l0.3-0.4l0.2-0.5l0.1-1v-0.6l-0.2-1.2l-0.8-2l-0.4-0.6l-1.4-1.7l-0.5-0.4
		L205.9,82.4z"/>
	<path class="st1" d="M208.5,78.6l0.2-0.3v-0.6l-0.3-0.6l-0.5-0.6l-0.3-0.2l-0.4-0.1l-0.7,0.4l-0.2,0.3V77l0.3-0.3h0.5l0.6,0.6
		l0.2,0.4V78v0.3l-0.1,0.2l-0.2,0.1l-0.4,0.1l0.4,0.1l0.2-0.1L208.5,78.6z"/>
	<path id="Layer2_1_MEMBER_33_1_STROKES" class="st2" d="M208.7,78.3l-0.2,0.3l-0.6,0.3l-0.2,0.1l-0.4-0.1l0.4-0.1l0.2-0.1l0.1-0.2
		v-0.3v-0.3l-0.2-0.4l-0.6-0.6h-0.5l-0.3,0.3v-0.1l0.2-0.3l0.7-0.4l0.4,0.1l0.3,0.2l0.5,0.6l0.3,0.6L208.7,78.3L208.7,78.3z"/>
	<path class="st1" d="M207,76.8L207,76.8L207,76.8l-0.2-0.1l0,0v-0.1h-0.2l-0.1,0.1h-0.1l0,0h-0.1v0.1h-0.1l0,0v0.1h-0.1V77v0.1v0.3
		v0.1v0.1h0.1v0.1v0.1l0,0l0.1,0.1V78l0,0l0,0v0.1h0.1v0.1l0,0l0.1,0.1l0,0l0.1,0.1l0,0l0.1,0.1l0,0l0,0v0.1h0.1v0.1h0.1h0.1
		l0.1,0.1h0.1l0,0h0.1l0.1,0.1h0.2v-0.1h0.1l0,0h0.1v-0.1l0,0h0.1v-0.1l0,0v-0.3l0,0l0,0v-0.1V78v-0.1v-0.2h-0.1v-0.1v-0.1h-0.1l0,0
		v-0.1h-0.1v-0.1v-0.1h-0.1v-0.1l0,0h-0.1V77l-0.1-0.1l0,0h-0.1v-0.1l0,0L207,76.8L207,76.8z"/>
	<path id="Layer2_1_MEMBER_35_1_STROKES" class="st2" d="M207,76.8L207,76.8L207,76.8l0.2,0.1l0,0V77h0.1l0,0l0.1,0.1v0.1h0.1l0,0
		v0.1h0.1v0.1v0.1h0.1v0.1l0,0h0.1v0.1v0.1h0.1V78v0.1v0.2v0.1l0,0l0,0v0.3l0,0v0.1h-0.1l0,0v0.1h-0.1l0,0h-0.1V79h-0.2l-0.1-0.1
		h-0.1l0,0h-0.1l-0.1-0.1l0,0h-0.1v-0.1h-0.1v-0.1l0,0l0,0l-0.1-0.1l0,0l-0.1-0.1l0,0l-0.1-0.1l0,0v-0.1h-0.1v-0.1l0,0l0,0V78
		l-0.1-0.1l0,0v-0.1v-0.1h-0.1v-0.1v-0.1v-0.3v-0.1V77h0.1v-0.1l0,0h0.1v-0.1h0.1l0,0h0.1l0.1-0.1h0.2v0.1l0,0H207L207,76.8z
		 M206.6,78.4L206.6,78.4"/>
	<path class="st1" d="M216,81.2l-0.4-0.2l-0.3-0.1l-0.7,0.3l-0.1,0.2l-0.2,0.4l0.4-0.3h0.5l0.6,0.7l0.2,0.4v0.3v0.3l-0.1,0.2
		l-0.6,0.1h0.2l0.2,0.1l0.3-0.1l0.6-0.3l0.2-0.3v-0.6l-0.3-0.6l-0.2-0.3L216,81.2z"/>
	<path id="Layer2_1_MEMBER_37_1_STROKES" class="st2" d="M215.7,81l0.4,0.2l0.3,0.3l0.2,0.3l0.3,0.6V83l-0.2,0.3l-0.6,0.3l-0.3,0.1
		l-0.2-0.1h-0.2l0.6-0.1l0.1-0.2V83v-0.3l-0.2-0.4l-0.6-0.7h-0.5l-0.4,0.3l0.2-0.4l0.1-0.2l0.7-0.3L215.7,81z"/>
	<path class="st1" d="M214.9,81.3h-0.3v0.1h-0.1l0,0v0.1h-0.1l0,0l0,0h-0.1v0.2v0.1v0.3v0.1v0.2l0.1,0.1v0.1l0,0v0.1h0.1v0.1l0,0
		v0.1h0.1V83l0.1,0.1v0.1l0.1,0.1l0,0l0.1,0.1v0.1h0.1v0.1h0.1l0,0h0.1h0.1v0.1l0,0l0,0h0.4h0.1l0,0v-0.1h0.1l0,0l0,0l0.1-0.1l0,0
		l0,0v-0.6l0,0v-0.1h-0.1v-0.1v-0.1v-0.1h-0.1l0,0v-0.1l-0.1-0.1l0,0V82h-0.1v-0.1l0,0h-0.1v-0.1h-0.1v-0.1h-0.1l0,0v-0.1l0,0h-0.1
		l0,0h-0.1v-0.1H215l0,0L214.9,81.3L214.9,81.3z"/>
	<path id="Layer2_1_MEMBER_39_1_STROKES" class="st2" d="M214.6,81.3h0.3v0.1h0.1l0,0h0.1v0.1h0.1l0,0h0.1l0,0v0.1l0,0h0.1v0.1h0.1
		v0.1h0.1l0,0v0.1h0.1V82l0,0l0.1,0.1v0.1l0,0h0.1v0.1v0.1v0.1h0.1v0.1l0,0v0.6l0,0l0,0l-0.1,0.1l0,0l0,0h-0.1v0.1l0,0h-0.1h-0.4
		l0,0l0,0v-0.1h-0.1h-0.1l0,0H215v-0.1h-0.1v-0.1l-0.1-0.1l0,0l-0.1-0.1v-0.1l-0.1-0.1v-0.1h-0.1v-0.1l0,0v-0.1h-0.1v-0.1l0,0v-0.1
		l-0.1-0.1v-0.2v-0.1v-0.3v-0.1v-0.2h0.1l0,0l0,0L214.6,81.3l-0.1-0.2l0,0L214.6,81.3L214.6,81.3z M214.8,83.1L214.8,83.1
		L214.8,83.1L214.8,83.1z"/>
	<path class="st1" d="M214.4,90.9v0.2l0.4-0.3h0.5l0.7,0.6l0.2,0.7v0.4l-0.1,0.1l-0.2,0.1h-0.4h0.2l0.2,0.1l0.2-0.1l0.7-0.3l0.1-0.2
		v-0.3v-0.4l-0.1-0.3l-0.2-0.3l-0.5-0.6l-0.3-0.2h-0.4l-0.7,0.3l-0.1,0.1L214.4,90.9z"/>
	<path id="Layer2_1_MEMBER_41_1_STROKES" class="st2" d="M214.5,90.7l0.1-0.1l0.7-0.3h0.4l0.3,0.2l0.5,0.6l0.2,0.3l0.1,0.3v0.4v0.3
		l-0.1,0.2l-0.7,0.3l-0.2,0.1l-0.2-0.1h-0.2h0.4l0.2-0.1l0.1-0.1v-0.4l-0.2-0.7l-0.7-0.6h-0.5l-0.4,0.3v-0.2L214.5,90.7z"/>
	<path class="st1" d="M214.4,90.8L214.4,90.8L214.4,90.8L214.4,90.8l-0.1,0.2v0.5l0.1,0.1l0,0l0,0v0.1l0.1,0.1v0.1l0,0V92l0,0h0.1
		v0.1l0.1,0.1l0,0v0.1h0.1l0,0l-0.1-0.1l0.2,0.1l0,0v0.1h0.1v0.1h0.1l0,0l0.1,0.1l0,0h0.1l0,0l0,0h0.1l0.1,0.1h0.3v-0.1h0.1l0,0h0.1
		l0,0v-0.1h0.1v-0.1v-0.1v-0.1v-0.3v-0.1v-0.2v-0.1v-0.1H216v-0.1l0,0v-0.1h-0.1v-0.1h-0.1V91l0,0l-0.1-0.1l0,0l0,0v-0.1h-0.1v-0.1
		h-0.1v-0.1h-0.1l0,0l0,0v-0.1h-0.1l-0.1-0.1h-0.1l0,0H215v-0.1h-0.2v0.1h-0.1h-0.1L214.4,90.8L214.4,90.8L214.4,90.8L214.4,90.8z"
		/>
	<path id="Layer2_1_MEMBER_43_1_STROKES" class="st2" d="M214.4,90.8L214.4,90.8L214.4,90.8L214.4,90.8l0.1-0.2l0,0h0.1h0.1v-0.1
		h0.2v0.1h0.1l0,0h0.1l0.1,0.1h0.1v0.1l0,0l0,0h0.1v0.1h0.1V91h0.1v0.1l0,0l0,0l0.1,0.1l0,0v0.1h0.1v0.1h0.1v0.1l0,0v0.1h0.1v0.1
		v0.1V92v0.1v0.3v0.1v0.1v0.1h-0.1v0.1l0,0h-0.1l0,0h-0.1v0.1h-0.3l-0.1-0.1h-0.1l0,0l0,0h-0.1l0,0l-0.1-0.1l0,0h-0.1v-0.1h-0.1
		v-0.1l0,0l-0.2-0.1v-0.1l0,0l-0.1-0.1v-0.1h-0.1l0,0V92l0,0v-0.1l-0.1-0.1v-0.1l0,0l0,0l-0.1-0.1V91L214.4,90.8L214.4,90.8
		L214.4,90.8z M214.8,92.3L214.8,92.3L214.8,92.3L214.8,92.3z"/>
	<path class="st1" d="M198.5,90l-0.3-0.6l-0.5-0.6l-0.4-0.2l-0.3-0.1l-0.7,0.4l-0.1,0.2l-0.2,0.2v0.2l0.4-0.3h0.5l0.6,0.7l0.2,0.5
		l0.1,0.3l-0.1,0.3l-0.1,0.1l-0.2,0.1l-0.3,0.1l0.3,0.1h0.3l0.6-0.3l0.1-0.3L198.5,90L198.5,90z"/>
	<path id="Layer2_1_MEMBER_45_1_STROKES" class="st2" d="M198.5,90v0.6l-0.1,0.3l-0.6,0.3h-0.3l-0.3-0.1l0.3-0.1l0.2-0.1l0.1-0.1
		l0.1-0.3l-0.1-0.3l-0.2-0.5L197,89h-0.5l-0.4,0.3v-0.2l0.2-0.2l0.1-0.2l0.7-0.4l0.3,0.1l0.4,0.2l0.5,0.6L198.5,90z"/>
	<path class="st1" d="M196.6,89L196.6,89h-0.2l0,0h-0.1v0.1l0,0h-0.1l0,0v0.1h-0.1v0.1l0,0v0.2H196v0.1l0.1,0.1v0.2V90l0,0h0.1v0.1
		v0.1l0.1,0.1l0,0v0.1l0,0l0,0l0.1,0.1v0.1h0.1l0.1,0.2l0,0h0.1l0,0v0.1h0.1V91h0.1l0,0h0.1v0.1h0.1l0,0h0.4l0,0h0.1V91h0.1v0
		l0.1-0.1v-0.6l-0.1-0.1v-0.1V90l-0.1-0.1v-0.1v-0.1h-0.1v-0.1h-0.1v-0.1l0,0v-0.1h-0.1v-0.1h-0.1v-0.1l0,0h-0.1l-0.1-0.1l0,0
		l-0.1-0.1l0,0h-0.1L196.6,89L196.6,89L196.6,89L196.6,89z"/>
	<path id="Layer2_1_MEMBER_47_1_STROKES" class="st2" d="M196.9,89.1L196.9,89.1l0.1,0.1l0.1,0.1h0.1l0,0v0.1h0.1v0.1h0.1v0.1l0,0
		v0.1h0.1v0.1h0.1v0.1V90l0.1,0.1v0.1v0.1l0.1,0.1V91l-0.1,0.1v0.1h-0.1v0.1h-0.1l0,0h-0.4l0,0H197v-0.1h-0.1l0,0h-0.1v-0.1h-0.1V91
		l0,0h-0.1l0,0l-0.1-0.2v0.1l0,0v-0.1h-0.1v-0.1l-0.1-0.1l0,0l0,0v-0.1l0,0l-0.1-0.1v-0.1V90h-0.1l0,0v-0.1v-0.2l-0.1-0.1v-0.1h0.1
		v-0.2l0,0v-0.1h0.1v-0.1l0,0h0.1l0,0V89h0.1l0,0h0.2l0,0h0.1v0.1L196.9,89.1L196.9,89.1L196.9,89.1z"/>
	<path class="st1" d="M222.5,103.3l-0.6,0.4l-0.2,0.1l-0.1,0.3v0.2l0.4-0.3h0.5l0.6,0.7l0.2,0.4v0.3v0.3l-0.1,0.1l-0.2,0.1l-0.4,0.1
		l0.4,0.1l0.2-0.1l0.4-0.2l0.3-0.1l0.1-0.9l-0.6-0.9L222.5,103.3z"/>
	<path id="Layer2_1_MEMBER_49_1_STROKES" class="st2" d="M222.5,103.3l0.9,0.4l0.6,0.9l-0.1,0.9l-0.3,0.1l-0.4,0.2l-0.2,0.1
		l-0.4-0.1l0.4-0.1l0.2-0.1l0.1-0.1v-0.3v-0.3l-0.2-0.4l-0.6-0.7H222l-0.4,0.3V104l0.1-0.3l0.2-0.1L222.5,103.3z"/>
	<path class="st1" d="M223,104.5L223,104.5l-0.1-0.1v-0.1l-0.1-0.1v-0.1h-0.1V104l0,0h-0.1l0,0l-0.1-0.1h-0.1v-0.1l0,0l0,0h-0.1
		l-0.1-0.1h-0.1l0,0h-0.2l0,0h-0.1l-0.1,0.1l0,0l0,0l-0.1,0.1v0.1l0,0v0.6v0.1v0.1v0.1l0,0h0.1v0.1v0.1h0.1v0.1l0,0h0.1v0.1l0,0
		l0.1,0.1v0.1l0,0l0,0l0.1,0.1l0,0h0.1v0.1h0.1l0,0l0.1,0.1h0.1v0.1h0.1h0.5h0.1v-0.1l0,0v-0.1h0.1l0,0v-0.1v-0.1h0.1v-0.2l-0.1-0.1
		V105l0,0v-0.1h-0.1v-0.1v-0.1L223,104.5L223,104.5L223,104.5z"/>
	<path id="Layer2_1_MEMBER_51_1_STROKES" class="st2" d="M223,104.5L223,104.5L223,104.5l0.1,0.1v0.1v0.1h0.1v0.1l0,0v0.2l0.1,0.1
		v0.2h-0.1v0.1v0.1l0,0h-0.1v0.1l0,0v0.1H223h-0.5h-0.1v-0.1h-0.1l-0.1-0.1l0,0h-0.1v-0.1H222l0,0l-0.1-0.1l0,0l0,0v-0.1l-0.1-0.1
		l0,0v-0.1h-0.1l0,0V105h-0.1v-0.1v-0.1h-0.1l0,0v-0.1v-0.1v-0.1V104l0,0v-0.1l0.1-0.1l0,0l0,0l0.1-0.1h0.1l0,0h0.2l0,0h0.1l0.1,0.1
		h0.1l0,0l0,0v0.1h0.1l0.1,0.1l0,0h0.1l0,0v0.1h0.1v0.1l0.1,0.1v0.1L223,104.5L223,104.5z"/>
	<path id="Layer2_1_MEMBER_52_1_STROKES" class="st2" d="M236.4,134.8l73.4-42.7"/>
	<path id="Layer2_1_MEMBER_53_1_STROKES" class="st2" d="M236.5,134.7v1.6l73.2-42.7"/>
	<path id="Layer2_1_MEMBER_54_1_STROKES" class="st2" d="M236.5,136.3l-84-48.5"/>
	<path id="Layer2_1_MEMBER_55_1_STROKES" class="st2" d="M236.5,134.8l-84.3-48.7"/>
	<path id="Layer2_1_MEMBER_56_1_STROKES" class="st4" d="M168.1,104l1.6-0.2l1.8,1l1.6,2"/>
	<path id="Layer2_1_MEMBER_57_1_STROKES" class="st4" d="M173.1,106.7l0.9,2.3l0.1,2.1l-0.9,1.4"/>
	<path id="Layer2_1_MEMBER_58_1_STROKES" class="st4" d="M166.6,114.9l0.7,0.3h0.4l0.7-0.1l0.3-0.2l0.5-0.5l0.2-0.4l0.1-0.4l0.1-0.9
		l-0.1-1.1l-0.1-0.6l-0.4-1.1l-0.6-1.1l-0.7-1l-1.3-1.1l-0.9-0.5l-0.8-0.2h-0.4l-0.6,0.3l-0.3,0.2l-0.5,0.6l-0.2,0.4v0.6"/>
	<path id="Layer2_1_MEMBER_59_1_STROKES" class="st4" d="M168.1,104l-4.3,2.5"/>
	<path id="Layer2_1_MEMBER_60_1_STROKES" class="st4" d="M173.2,112.5l-4.3,2.5"/>
	<path id="Layer2_1_MEMBER_61_1_STROKES" class="st4" d="M165.6,105.4l1.6-0.2l1.8,1l1.6,1.9"/>
	<path id="Layer2_1_MEMBER_62_1_STROKES" class="st4" d="M170.6,108.2l0.9,2.4v2l-0.9,1.4"/>
	<path id="Layer2_1_MEMBER_63_1_STROKES" class="st4" d="M167.3,104.4l1.6-0.2l1.8,1l1.6,2"/>
	<path id="Layer2_1_MEMBER_64_1_STROKES" class="st4" d="M172.3,107.2l1,2.3v2.1l-0.9,1.3"/>
	<path id="Layer2_1_MEMBER_65_1_STROKES" class="st4" d="M164.2,107.6l1.1-0.2l1.4,0.7l1.3,1.5"/>
	<path id="Layer2_1_MEMBER_66_1_STROKES" class="st4" d="M168,109.5l0.7,1.8l0.1,1.7l-0.6,1.1"/>
	<path id="Layer2_1_MEMBER_67_1_STROKES" class="st4" d="M164.2,107.6l-1.8,1"/>
	<path id="Layer2_1_MEMBER_68_1_STROKES" class="st4" d="M168.2,114.1l-1.8,1.1"/>
	<path id="Layer2_1_MEMBER_69_1_STROKES" class="st4" d="M164.2,114.8l0.3,0.2l0.4,0.1l0.3,0.2h0.9l0.3-0.2l0.2-0.2l0.4-0.5l0.2-0.6
		v-0.7l-0.2-0.8l-0.5-1.3l-0.5-0.8l-0.6-0.7l-0.3-0.3l-1-0.6h-0.4l-0.3-0.1H163l-0.6,0.2l-0.6,0.6l-0.1,0.4v0.4"/>
	<path id="Layer2_1_MEMBER_70_1_STROKES" class="st4" d="M165.2,114.3h0.3l0.3-0.2h0.1l0.2-0.3l0.1-0.2v-0.1v-0.9v-0.3l-0.4-1
		l-0.2-0.3l-0.1-0.2l-0.7-0.7l-0.6-0.4l-0.2-0.1h-0.2l-0.2-0.1h-0.1l-0.2,0.1h-0.2l-0.1,0.1l-0.2,0.2l-0.1,0.1l-0.1,0.2"/>
	<path id="Layer2_1_MEMBER_71_1_STROKES" class="st4" d="M156.3,113.5l-4,2.3l-0.2,0.2"/>
	<path id="Layer2_1_MEMBER_72_1_STROKES" class="st4" d="M164,109.9l-1,0.6l-5,2.2"/>
	<path id="Layer2_1_MEMBER_73_1_STROKES" class="st4" d="M157,114.1l-4.3,2.5l-0.2,0.2"/>
	<path id="Layer2_1_MEMBER_74_1_STROKES" class="st4" d="M164.9,110.4l-3.6,1.8l-0.6,0.2l-2.1,0.9"/>
	<path id="Layer2_1_MEMBER_75_1_STROKES" class="st4" d="M157.1,114.4l-1.5,0.6l-2.6,1.4l-0.4,0.3l-0.2,0.1"/>
	<path id="Layer2_1_MEMBER_76_1_STROKES" class="st4" d="M165.5,111.1l-1.1,0.6l-0.5,0.3l-1.1,0.5l-3.8,1.3"/>
	<path id="Layer2_1_MEMBER_77_1_STROKES" class="st4" d="M157.5,115.1l-0.4,0.2l-1.1,0.4l-3.7,2l-0.2,0.1"/>
	<path id="Layer2_1_MEMBER_78_1_STROKES" class="st4" d="M166,111.9l-3.3,1.7l-3.4,1"/>
	<path id="Layer2_1_MEMBER_79_1_STROKES" class="st4" d="M157.7,115.6l-5.3,2.3l-0.2,0.1"/>
	<path id="Layer2_1_MEMBER_80_1_STROKES" class="st4" d="M166.1,112.6l-3.9,1.9l-2.7,0.6h-0.2"/>
	<path id="Layer2_1_MEMBER_81_1_STROKES" class="st4" d="M157.7,116.2l-0.3,0.1l-5,2.4"/>
	<path id="Layer2_1_MEMBER_82_1_STROKES" class="st4" d="M166.2,113.5l-2.4,1.3l-2,0.7l-2.5,0.4"/>
	<path id="Layer2_1_MEMBER_83_1_STROKES" class="st4" d="M157.8,116.8l0.1-0.1v-0.1v-0.2l0.1-0.3v-0.2l-0.1-0.2v-0.2v-0.2l-0.6-1.2
		l-0.6-0.6l-0.1-0.1l-0.2-0.1h-0.2l-0.1-0.1H156h-0.2h-0.1l-0.1,0.1h-0.1l-0.2,0.1l-0.1,0.1v0.1l-0.1,0.2v0.2v0.2"/>
	<path id="Layer2_1_MEMBER_84_1_STROKES" class="st4" d="M159,116.1v-0.2l0.1-0.1v-0.1l0.1-0.2v-0.4v-0.2l-0.2-0.4v-0.2l-0.1-0.2
		l-0.1-0.3l-0.1-0.2l-0.1-0.2l-0.1-0.2l-0.3-0.3l-0.2-0.1l-0.1-0.2l-0.2-0.1l-0.1-0.1l-0.3-0.2h-0.4l-0.2,0.1"/>
	<path id="Layer2_1_MEMBER_85_1_STROKES" class="st4" d="M156.6,112.4l-1.3,0.8"/>
	<path id="Layer2_1_MEMBER_86_1_STROKES" class="st4" d="M158.8,116.2l-1.1,0.6"/>
	<path id="Layer2_1_MEMBER_87_1_STROKES" class="st4" d="M161.8,109.8l-0.1,0.1v0.1l-0.1,0.1v0.1l-0.1,0.1l-0.1,0.2l-0.3,0.2
		l-0.2,0.2l-0.2,0.1l-0.1,0.1l-0.1,0.1l-0.2,0.1"/>
	<path id="Layer2_1_MEMBER_88_1_STROKES" class="st4" d="M160.2,111.4l-1.1,0.6"/>
	<path id="Layer2_1_MEMBER_89_1_STROKES" class="st5" d="M208.2,86.5l-3.6,2.2"/>
	<path id="Layer2_1_MEMBER_90_1_STROKES" class="st5" d="M202.8,89.8l-1.3,0.7"/>
	<path id="Layer2_1_MEMBER_91_1_STROKES" class="st5" d="M199.8,91.5l-6.3,3.7"/>
	<path id="Layer2_1_MEMBER_92_1_STROKES" class="st5" d="M191.8,96.1l-1.9,1"/>
	<path id="Layer2_1_MEMBER_93_1_STROKES" class="st5" d="M188,98.3l-5.5,3.2"/>
	<path id="Layer2_1_MEMBER_94_1_STROKES" class="st5" d="M180.9,102.4l-1.3,0.7"/>
	<path id="Layer2_1_MEMBER_95_1_STROKES" class="st5" d="M178.2,103.9l-5.3,3"/>
	<path id="Layer2_1_MEMBER_96_1_STROKES" class="st6" d="M205.5,88.5l-8.5,4.9"/>
	<path id="Layer2_1_MEMBER_97_1_STROKES" class="st6" d="M181.6,102.1l-2.8,1.8"/>
	<path id="Layer2_2_MEMBER_1_1_STROKES" class="st7" d="M41,93.3V65.6h84v27.8L41,93.3L41,93.3z"/>
</g>
<text transform="matrix(1 0 0 1 58.6414 84.5275)" class="st8 st9">4900-P4</text>
</svg>
