<?xml version="1.0" encoding="utf-8"?>
<!-- Generator: Adobe Illustrator 24.1.2, SVG Export Plug-In . SVG Version: 6.00 Build 0)  -->
<svg version="1.1" id="Ebene_1" xmlns="http://www.w3.org/2000/svg" xmlns:xlink="http://www.w3.org/1999/xlink" x="0px" y="0px"
	 viewBox="0 0 349.1 161" style="enable-background:new 0 0 349.1 161;" xml:space="preserve">
<style type="text/css">
	.st0{fill:#FF9900;}
	.st1{fill:#0099FF;}
	.st2{fill:none;stroke:#000000;stroke-width:0.6;stroke-linecap:round;stroke-linejoin:round;}
	.st3{fill:none;stroke:#000000;stroke-width:0.25;stroke-linecap:round;stroke-linejoin:round;}
</style>
<g id="unit-fuel-qty-comp">
	<path class="st0" d="M293,158.9l1.1-2h2.5l-0.3-0.3l1.7-1.7l-8.8-6.3v-1.4l-0.3-0.3l-3.9-2h-0.3l-1.1-1.7l-3.1-3.8l0,0l-2.8-2.4
		l-0.6-3.8l-0.6-1.1l-0.6-0.6l-0.6-0.3h-0.3l-0.6-0.3V130l-0.6-1.7l-0.6-0.8l-1.1-1.1l-9.7-5.7l-0.8-0.3h-0.8h-2l-2,0.8l-2.5,2.5
		l-2.5,3.5l-1.1,2.5l-0.8,2.5l-0.3,2.5v2.4l0.3,0.8l0.3,0.8l1.1,1.4l10.5,6l0.8,0.3l0.8,0.3h0.8l2-0.6l0.3-0.3h0.3l0.6,0.3l0.6,0.3
		h0.6h1.4l0.6-0.3h0.3h0.3h0.8h0.8l0.3,0.3h0.6l6.6,3.9l0.3,1.1l0.6,1.4l3.9,2.5h0.3l0.8-0.3l0.3-0.3l1.1-0.3l5.5,3.1L293,158.9
		 M292.3,125.8l2-0.6l0.3-0.3l0,0l1.1-0.8l-6.3-4.2l-0.6-1.7l-0.3-0.3h-0.3l-2.5-1.4l-5.2-5.5l-1.1-1.4v0.8l-0.3-1.1l0,0v-1.1v-0.6
		l-0.3-0.6l-0.6-0.8l-0.8-0.6l-0.3-1.4l-0.3-0.6l-0.3-0.6l-0.6-0.6l-8.8-5.2h-2.4l-1.4,0.8l-1.7,1.1l-2.8,3.1l-1.4,3.1l-0.3,1.1
		l-0.3,2v1.7l0.6,1.4l0.3,0.6l0.6,0.3l8.3,4.9l0.6,0.3h1.4h0.8l0.8-0.3l0.3-0.3l0.3,0.3l0,0l0.3,0.3h0.6h3.9l0.3,0.3h0.3l0.3,0.3
		l2.5,1.1l0.8,0.6l1.1,1.7v0.3l0.3,0.6l2.8,1.7h0.3h0.6h0.3l0.3-0.3l1.7,0.3l3.8,2.4v-1.7L292.3,125.8z"/>
	<path class="st1" d="M252.5,95.8l0.3-1.4l0.3-1.4l-0.3-1.1l-0.3-1.1V66L145.6,4.1L91.4,35.5v55.9l4.2,2.5l-1.4,0.8l0.3,3.5L92,99.6
		v1.4l0.3,1.7l6,3.5l2.8,0.3l2.8-1.7h0.8l71.6,41.3l0.6,0.6l-2.4,1.4v1.1l0.3,1.4l6,3.5l2.8,0.3l2.5-1.4h5.7l2.5-1.4l3.1,2
		l54.2-31.4V96 M199.4,83.9L199.4,83.9C199.1,84.2,199.1,84.2,199.4,83.9L199.4,83.9L199.4,83.9 M150.3,48.9L150.3,48.9L150.3,48.9
		h-1.1H150.3 M101,100.4L101,100.4L101,100.4L101,100.4v0.6l-0.3,0.3l0,0v0.3l-0.3,0.3H100h-0.3l0,0h-0.3h-0.3h-0.8l0,0H98v-0.3
		h-0.3h-0.3l0,0l-0.3-0.3l0,0l0,0l0,0V101v-0.3l0,0v-0.3l0,0l0,0h0.3l0,0l0.3-0.3H98h0.3h0.3l0,0h0.8h0.3h0.3l0,0h0.3L101,100.4
		L101,100.4L101,100.4L101,100.4L101,100.4L101,100.4L101,100.4 M244.2,123.3L244.2,123.3v0.6V123.3 M182.3,147.5L182.3,147.5h0.6
		l0.3,0.3h0.3h0.3l0,0h0.3l0,0v0.3l0,0l0,0v0.3v0.3v0.3l0,0l0,0v0.3l0,0h-0.3l0,0h-0.3h-0.3h-0.3h-0.3l0,0h-0.3h-0.8h-0.3l0,0h-0.3
		l0,0h-0.3h-0.3l0,0h-0.3l0,0v-0.5l0,0l0,0v-0.3v-0.3v-0.3l0,0l0,0v-0.3l0,0h0.3l0,0h0.3h0.3l0,0h0.3h0.3L182.3,147.5L182.3,147.5
		 M211.3,142.1L211.3,142.1L211.3,142.1L211.3,142.1z"/>
	<path id="Layer3_6_MEMBER_2_MEMBER_0_1_STROKES_1_" class="st2" d="M252.5,66L145.6,4.1L91.4,35.5"/>
	<path id="Layer3_6_MEMBER_2_MEMBER_1_1_STROKES_1_" class="st2" d="M198.2,97.1L91.2,35.2"/>
	<path id="Layer3_6_MEMBER_2_MEMBER_2_1_STROKES_1_" class="st2" d="M252.5,66l-54.2,31.4V153L91.4,91.4"/>
	<path id="Layer3_6_MEMBER_2_MEMBER_3_1_STROKES_1_" class="st2" d="M252.5,121.9l-54.2,31.4"/>
	<path id="Layer3_6_MEMBER_2_MEMBER_4_1_STROKES_1_" class="st2" d="M252.5,97.1v24.8"/>
	<path id="Layer3_6_MEMBER_2_MEMBER_5_1_STROKES_1_" class="st2" d="M252.5,66v23.7"/>
	<path id="Layer3_6_MEMBER_2_MEMBER_6_1_STROKES_1_" class="st2" d="M91.2,35.4v55.9"/>
	<path id="Layer3_6_MEMBER_2_MEMBER_7_1_STROKES_1_" class="st2" d="M242.7,84.2l-1.4-0.3h-0.6l-2.8,1.1l-1.7,1.4l-1.4,1.7l-1.4,2.8
		l-0.6,2.4l-0.3,1.4l0.3,1.1l0.3,0.8l0.3,0.3l0.6,0.8l0.3,0.3"/>
	<path id="Layer3_6_MEMBER_2_MEMBER_8_1_STROKES_1_" class="st2" d="M218.7,97.2l-0.6-0.3l-0.6-0.3l-0.6-0.3h-1.1l-1.4,0.3l-2,1.1
		l-2.8,2.5l-1.7,2.5l-1.1,2.8l-0.3,0.8l-0.6,2.5v1.7v0.8l0.3,1.4l0.8,1.1l0.3,0.3l0.6,0.3"/>
	<path id="Layer3_6_MEMBER_2_MEMBER_9_1_STROKES_1_" class="st2" d="M248.4,89.1h-0.6l-1.1,0.6l-1.7,1.4l-2,2.5l-0.3,0.6l-0.3,0.8
		l-0.8,3.8v1.1l0.3,1.1l0.3,0.6l0.6,0.8l0.3,0.3l0.3,0.3l0.8,0.3h1.1l1.7-0.3l0.6-0.3l1.7-1.1l1.7-1.7l1.1-2l0.6-1.4l0.6-2l0.3-1.4
		l-0.3-1.1l-0.6-1.7l-0.6-0.6l-1.1-0.6h-0.6h-1.1L248.4,89.1L248.4,89.1z"/>
	<path id="Layer3_6_MEMBER_2_MEMBER_10_1_STROKES_1_" class="st2" d="M228.5,103.8l-0.8-1.1l-0.8-0.8l-1.1-0.6h-1.1h-0.6l-0.8,0.3
		l-1.4,0.6l-1.4,0.8l-2.5,2.8l-2.5,4.6l-0.6,1.7l-0.3,2.5l0.3,2.4l0.6,1.1l0.8,0.8l0.6,0.3l1.1,0.3h0.6h0.6l1.4-0.3l2.4-1.1l0.8-0.6
		l2-2l1.7-2.5l1.1-2.5l0.8-3.8v-1.7L228.5,103.8z"/>
	<path id="Layer3_6_MEMBER_2_MEMBER_11_1_STROKES_1_" class="st2" d="M178.5,66.5l-2.4-15.7"/>
	<path id="Layer3_6_MEMBER_2_MEMBER_12_1_STROKES_1_" class="st2" d="M192.8,45.1l-11.6-6.9"/>
	<path id="Layer3_6_MEMBER_2_MEMBER_13_1_STROKES_1_" class="st2" d="M179.9,38.2l-2.5,1.7"/>
	<path id="Layer3_6_MEMBER_2_MEMBER_14_1_STROKES_1_" class="st2" d="M188.7,47.5l-11.5-6.6"/>
	<path id="Layer3_6_MEMBER_2_MEMBER_15_1_STROKES_1_" class="st2" d="M190.3,47.5l2.5-1.7"/>
	<path id="Layer3_6_MEMBER_2_MEMBER_16_1_STROKES_1_" class="st2" d="M148.9,19.7L171.9,33"/>
	<path id="Layer3_6_MEMBER_2_MEMBER_17_1_STROKES_1_" class="st2" d="M172.3,34l-3.8,2"/>
	<path id="Layer3_6_MEMBER_2_MEMBER_18_1_STROKES_1_" class="st2" d="M143.7,22.5l23.4,13.3"/>
	<path id="Layer3_6_MEMBER_2_MEMBER_19_1_STROKES_1_" class="st2" d="M147.5,19.7l-3.8,2"/>
	<path id="Layer3_6_MEMBER_2_MEMBER_20_1_STROKES_1_" class="st2" d="M138.7,27.7L162.1,41"/>
	<path id="Layer3_6_MEMBER_2_MEMBER_21_1_STROKES_1_" class="st2" d="M162.1,42.3l-11.1,6.6"/>
	<path id="Layer3_6_MEMBER_2_MEMBER_22_1_STROKES_1_" class="st2" d="M136.6,27.7l-11.5,6.6"/>
	<path id="Layer3_6_MEMBER_2_MEMBER_23_1_STROKES_1_" class="st2" d="M125.2,35.4l23.1,13.3"/>
	<path id="Layer3_6_MEMBER_2_MEMBER_24_1_STROKES_1_" class="st2" d="M193.9,150.6l-1.4,0.8"/>
	<path id="Layer3_6_MEMBER_2_MEMBER_25_1_STROKES_1_" class="st2" d="M186.9,151.2l5.7,0.3"/>
	<path id="Layer3_6_MEMBER_2_MEMBER_26_1_STROKES_1_" class="st2" d="M186.9,151.2l-2.5,1.4"/>
	<path id="Layer3_6_MEMBER_2_MEMBER_27_1_STROKES_1_" class="st2" d="M181.4,152.3l2.8,0.3"/>
	<path id="Layer3_6_MEMBER_2_MEMBER_28_1_STROKES_1_" class="st2" d="M182.3,147.5L182.3,147.5h-0.6h-0.3H181l0,0h-0.3l0,0l0,0h-0.3
		l0,0v0.3l0,0l0,0v0.3v0.3v0.3l0,0l0,0v0.3l0,0h0.3l0,0h0.3h0.3l0,0h0.3l0,0h0.3h0.8h0.3l0,0h0.3h0.3h0.3h0.3l0,0h0.3l0,0v-0.3l0,0
		l0,0v-0.3v-0.3v-0.3l0,0l0,0v-0.3l0,0h-0.3l0,0H184h-0.3l-0.3-0.3h-0.3L182.3,147.5z"/>
	<path id="Layer3_6_MEMBER_2_MEMBER_29_1_STROKES_1_" class="st2" d="M177.9,145.7l-3.1,1.7"/>
	<path id="Layer3_6_MEMBER_2_MEMBER_30_1_STROKES_1_" class="st2" d="M175.4,148.9l-0.3-1.4"/>
	<path id="Layer3_6_MEMBER_2_MEMBER_31_1_STROKES_1_" class="st2" d="M181.4,152.3l-6-3.5"/>
	<path id="Layer3_6_MEMBER_2_MEMBER_32_1_STROKES_1_" class="st2" d="M184.2,152.6v1.1"/>
	<path id="Layer3_6_MEMBER_2_MEMBER_33_1_STROKES_1_" class="st2" d="M195,151.2l-2.5,1.4"/>
	<path id="Layer3_6_MEMBER_2_MEMBER_34_1_STROKES_1_" class="st2" d="M186.9,152.6h5.7"/>
	<path id="Layer3_6_MEMBER_2_MEMBER_35_1_STROKES_1_" class="st2" d="M186.9,152.6l-2.5,1.4"/>
	<path id="Layer3_6_MEMBER_2_MEMBER_36_1_STROKES_1_" class="st2" d="M181.4,153.7l2.8,0.3"/>
	<path id="Layer3_6_MEMBER_2_MEMBER_37_1_STROKES_1_" class="st2" d="M175.4,150.3l-0.3-1.4"/>
	<path id="Layer3_6_MEMBER_2_MEMBER_38_1_STROKES_1_" class="st2" d="M181.4,153.7l-6-3.5"/>
	<path id="Layer3_6_MEMBER_2_MEMBER_39_1_STROKES_1_" class="st2" d="M95.5,93.9l-1.4,0.8"/>
	<path id="Layer3_6_MEMBER_2_MEMBER_40_1_STROKES_1_" class="st2" d="M94.7,97.9l-0.3-3.5"/>
	<path id="Layer3_6_MEMBER_2_MEMBER_41_1_STROKES_1_" class="st2" d="M94.7,97.9l-2.5,1.4"/>
	<path id="Layer3_6_MEMBER_2_MEMBER_42_1_STROKES_1_" class="st2" d="M92.3,101L92,99.3"/>
	<path id="Layer3_6_MEMBER_2_MEMBER_43_1_STROKES_1_" class="st2" d="M101,100.4L101,100.4L101,100.4L101,100.4L101,100.4v0.6
		l-0.3,0.3l0,0v0.3l-0.3,0.3H100h-0.3l0,0h-0.3h-0.3h-0.8l0,0H98v-0.3h-0.3h-0.3l0,0l-0.3-0.3l0,0l0,0l0,0V101v-0.3l0,0v-0.3l0,0
		l0,0h0.3l0,0l0.3-0.3H98h0.3h0.3l0,0h0.8h0.3h0.3l0,0h0.3L101,100.4L101,100.4L101,100.4L101,100.4L101,100.4L101,100.4z"/>
	<path id="Layer3_6_MEMBER_2_MEMBER_44_1_STROKES_1_" class="st2" d="M104.1,103l-2.8,1.7"/>
	<path id="Layer3_6_MEMBER_2_MEMBER_45_1_STROKES_1_" class="st2" d="M98.3,104.5l2.8,0.3"/>
	<path id="Layer3_6_MEMBER_2_MEMBER_46_1_STROKES_1_" class="st2" d="M92.3,101l6,3.5"/>
	<path id="Layer3_6_MEMBER_2_MEMBER_47_1_STROKES_1_" class="st2" d="M104.6,103L104.6,103"/>
	<path id="Layer3_6_MEMBER_2_MEMBER_48_1_STROKES_1_" class="st2" d="M91.9,99.6v1.4"/>
	<path id="Layer3_6_MEMBER_2_MEMBER_49_1_STROKES_1_" class="st2" d="M92.3,102.4l-0.3-1.7"/>
	<path id="Layer3_6_MEMBER_2_MEMBER_50_1_STROKES_1_" class="st2" d="M104.1,104.5l-2.8,1.7"/>
	<path id="Layer3_6_MEMBER_2_MEMBER_51_1_STROKES_1_" class="st2" d="M98.3,105.9l2.8,0.3"/>
	<path id="Layer3_6_MEMBER_2_MEMBER_52_1_STROKES_1_" class="st2" d="M92.3,102.4l6,3.5"/>
	<path id="Layer3_6_MEMBER_2_MEMBER_53_1_STROKES_1_" class="st2" d="M104.4,104.1L104.4,104.1"/>
	<path id="Layer3_6_MEMBER_2_MEMBER_54_1_STROKES_1_" class="st2" d="M177.9,145.3l-73-42.2"/>
	<path id="Layer3_6_MEMBER_2_MEMBER_55_1_STROKES_1_" class="st2" d="M104.9,104.5l72.4,41.9"/>
	<path id="Layer3_6_MEMBER_2_MEMBER_56_1_STROKES_1_" class="st2" d="M177.4,50h-0.6l0,0h-0.3"/>
	<path id="Layer3_6_MEMBER_2_MEMBER_57_1_STROKES_1_" class="st2" d="M180.3,67.4l27.3,1.4"/>
	<path id="Layer3_6_MEMBER_2_MEMBER_58_1_STROKES_1_" class="st2" d="M208.8,67.9L208.8,67.9L208.8,67.9L208.8,67.9L208.8,67.9
		L208.8,67.9L208.8,67.9L208.8,67.9L208.8,67.9L208.8,67.9"/>
	<path id="Layer3_6_MEMBER_2_MEMBER_59_1_STROKES_1_" class="st2" d="M208.5,67.7l-30.5-17.4"/>
	<path id="Layer3_6_MEMBER_2_MEMBER_60_1_STROKES_1_" class="st2" d="M179.3,67.4L179.3,67.4"/>
	<path id="Layer3_6_MEMBER_2_MEMBER_61_1_STROKES_1_" class="st2" d="M148.2,19.4h-0.8"/>
	<path id="Layer3_6_MEMBER_2_MEMBER_62_1_STROKES_1_" class="st2" d="M143.5,22v0.6"/>
	<path id="Layer3_6_MEMBER_2_MEMBER_63_1_STROKES_1_" class="st2" d="M167.7,36.3h0.8"/>
	<path id="Layer3_6_MEMBER_2_MEMBER_64_1_STROKES_1_" class="st2" d="M181,38.2h-0.6"/>
	<path id="Layer3_6_MEMBER_2_MEMBER_65_1_STROKES_1_" class="st2" d="M176.8,40.2L176.8,40.2"/>
	<path id="Layer3_6_MEMBER_2_MEMBER_66_1_STROKES_1_" class="st2" d="M189.1,47.5L189.1,47.5"/>
	<path id="Layer3_6_MEMBER_2_MEMBER_67_1_STROKES_1_" class="st2" d="M148.9,49h0.8l0,0h0.3"/>
	<path id="Layer3_6_MEMBER_2_MEMBER_68_1_STROKES_1_" class="st2" d="M162.2,42L162.2,42"/>
	<path id="Layer3_6_MEMBER_2_MEMBER_69_1_STROKES_1_" class="st2" d="M138.3,27.4h-0.6l0,0h-0.3l0,0h-0.3"/>
	<path id="Layer3_6_MEMBER_2_MEMBER_70_1_STROKES_1_" class="st3" d="M245.3,81.1l-0.6,0.3"/>
	<path id="Layer3_6_MEMBER_2_MEMBER_71_1_STROKES_1_" class="st3" d="M244.2,82.5v0.6"/>
	<path id="Layer3_6_MEMBER_2_MEMBER_72_1_STROKES_1_" class="st3" d="M244.8,83.3l0.6-0.3l0.3-0.3"/>
	<path id="Layer3_6_MEMBER_2_MEMBER_73_1_STROKES_1_" class="st3" d="M245.9,81.8L245.9,81.8"/>
	<path id="Layer3_6_MEMBER_2_MEMBER_74_1_STROKES_1_" class="st3" d="M245.6,82.5l-0.6-0.3"/>
	<path id="Layer3_6_MEMBER_2_MEMBER_75_1_STROKES_1_" class="st3" d="M244.9,82.8l-0.6-0.3"/>
	<path id="Layer3_6_MEMBER_2_MEMBER_76_1_STROKES_1_" class="st3" d="M245.6,81.8l-0.6-0.3"/>
	<path id="Layer3_6_MEMBER_2_MEMBER_77_1_STROKES_1_" class="st3" d="M244.9,82.2L244.9,82.2l-1.1,0.3"/>
	<path id="Layer3_6_MEMBER_2_MEMBER_78_1_STROKES_1_" class="st3" d="M244.9,82.8L244.9,82.8h-0.5h-0.3"/>
	<path id="Layer3_6_MEMBER_2_MEMBER_79_1_STROKES_1_" class="st3" d="M245.6,81.8L245.6,81.8l-0.3-0.6"/>
	<path id="Layer3_6_MEMBER_2_MEMBER_80_1_STROKES_1_" class="st3" d="M244.9,82.2L244.9,82.2v-0.6v-0.2"/>
	<path id="Layer3_6_MEMBER_2_MEMBER_81_1_STROKES_1_" class="st2" d="M245.3,80L245.3,80L245.3,80h-0.6H244l-0.3,0.3l-0.3,0.3
		l-0.3,0.3l-0.3,0.6v0.3l-0.3,0.3l-0.3,0.6v0.6v0.3"/>
	<path id="Layer3_6_MEMBER_2_MEMBER_82_1_STROKES_1_" class="st2" d="M243.8,83.6l-0.6-0.3"/>
	<path id="Layer3_6_MEMBER_2_MEMBER_83_1_STROKES_1_" class="st2" d="M245.9,80.1l-0.6-0.3"/>
	<path id="Layer3_6_MEMBER_2_MEMBER_84_1_STROKES_1_" class="st2" d="M245.3,80.1L245.3,80.1l-0.6,0.3l-0.3,0.3l-0.6,0.6l-0.3,0.3
		l-0.3,1.1v0.3l0.3,0.6"/>
	<path id="Layer3_6_MEMBER_2_MEMBER_85_1_STROKES_1_" class="st3" d="M233.8,87.7L233.8,87.7"/>
	<path id="Layer3_6_MEMBER_2_MEMBER_86_1_STROKES_1_" class="st3" d="M232.4,89.1v0.6"/>
	<path id="Layer3_6_MEMBER_2_MEMBER_87_1_STROKES_1_" class="st3" d="M233.3,89.9L233.3,89.9l0.6-0.8"/>
	<path id="Layer3_6_MEMBER_2_MEMBER_88_1_STROKES_1_" class="st3" d="M234.4,88.4L234.4,88.4"/>
	<path id="Layer3_6_MEMBER_2_MEMBER_89_1_STROKES_1_" class="st3" d="M234.1,89.1L234.1,89.1"/>
	<path id="Layer3_6_MEMBER_2_MEMBER_90_1_STROKES_1_" class="st3" d="M233.6,89.5l-0.6-0.3"/>
	<path id="Layer3_6_MEMBER_2_MEMBER_91_1_STROKES_1_" class="st3" d="M234.1,88.4l-0.6-0.3"/>
	<path id="Layer3_6_MEMBER_2_MEMBER_92_1_STROKES_1_" class="st3" d="M233.6,88.8L233.6,88.8l-0.6,0.3h-0.3"/>
	<path id="Layer3_6_MEMBER_2_MEMBER_93_1_STROKES_1_" class="st3" d="M233.6,89.5L233.6,89.5l-0.8,0.3"/>
	<path id="Layer3_6_MEMBER_2_MEMBER_94_1_STROKES_1_" class="st3" d="M234.1,88.4L234.1,88.4v-0.6l-0.3-0.3"/>
	<path id="Layer3_6_MEMBER_2_MEMBER_95_1_STROKES_1_" class="st3" d="M233.6,88.8L233.6,88.8v-0.6"/>
	<path id="Layer3_6_MEMBER_2_MEMBER_96_1_STROKES_1_" class="st2" d="M233.8,86.4L233.8,86.4h-0.6h-0.3l-0.6,0.3V87l-0.3,0.3
		l-0.6,0.8l-0.3,0.8v0.6l0.3,0.3"/>
	<path id="Layer3_6_MEMBER_2_MEMBER_97_1_STROKES_1_" class="st2" d="M232.4,90.5l-0.6-0.3"/>
	<path id="Layer3_6_MEMBER_2_MEMBER_98_1_STROKES_1_" class="st2" d="M234.4,86.7l-0.6-0.3"/>
	<path id="Layer3_6_MEMBER_2_MEMBER_99_1_STROKES_1_" class="st2" d="M233.6,86.7L233,87v0.3l-0.3,0.3l-0.6,0.8v0.3l-0.3,0.6V90"/>
	<path id="Layer3_6_MEMBER_2_MEMBER_100_1_STROKES_1_" class="st3" d="M233.8,100.2L233.8,100.2"/>
	<path id="Layer3_6_MEMBER_2_MEMBER_101_1_STROKES_1_" class="st3" d="M232.4,101.6v0.6"/>
	<path id="Layer3_6_MEMBER_2_MEMBER_102_1_STROKES_1_" class="st3" d="M233.3,102.4L233.3,102.4L233.3,102.4l0.6-0.6"/>
	<path id="Layer3_6_MEMBER_2_MEMBER_103_1_STROKES_1_" class="st3" d="M234.4,101L234.4,101"/>
	<path id="Layer3_6_MEMBER_2_MEMBER_104_1_STROKES_1_" class="st3" d="M234.1,101.9L234.1,101.9"/>
	<path id="Layer3_6_MEMBER_2_MEMBER_105_1_STROKES_1_" class="st3" d="M233.6,102.1l-0.6-0.3"/>
	<path id="Layer3_6_MEMBER_2_MEMBER_106_1_STROKES_1_" class="st3" d="M234.1,101l-0.6-0.3"/>
	<path id="Layer3_6_MEMBER_2_MEMBER_107_1_STROKES_1_" class="st3" d="M233.6,101.3l-0.8,0.3h-0.3"/>
	<path id="Layer3_6_MEMBER_2_MEMBER_108_1_STROKES_1_" class="st3" d="M233.6,102.1L233.6,102.1h-0.8"/>
	<path id="Layer3_6_MEMBER_2_MEMBER_109_1_STROKES_1_" class="st3" d="M234.1,101L234.1,101l-0.3-0.8"/>
	<path id="Layer3_6_MEMBER_2_MEMBER_110_1_STROKES_1_" class="st3" d="M233.6,101.3L233.6,101.3v-0.6v-0.3"/>
	<path id="Layer3_6_MEMBER_2_MEMBER_111_1_STROKES_1_" class="st2" d="M233.8,99h-0.6h-0.3l-0.3,0.3v0.3l-0.3,0.3v0.3l-0.3,0.3
		l-0.3,1.1v0.6v0.3"/>
	<path id="Layer3_6_MEMBER_2_MEMBER_112_1_STROKES_1_" class="st2" d="M234.7,99.9v1.1"/>
	<path id="Layer3_6_MEMBER_2_MEMBER_113_1_STROKES_1_" class="st2" d="M232.4,103l-0.6-0.3"/>
	<path id="Layer3_6_MEMBER_2_MEMBER_114_1_STROKES_1_" class="st2" d="M234.4,99.3l-0.6-0.3"/>
	<path id="Layer3_6_MEMBER_2_MEMBER_115_1_STROKES_1_" class="st2" d="M233.6,99.6L233.6,99.6L233.6,99.6l-0.6,0.6v0.3l-0.3,0.3
		l-0.3,0.3l-0.3,0.8v0.3v0.3"/>
	<path id="Layer3_6_MEMBER_2_MEMBER_116_1_STROKES_1_" class="st3" d="M220.8,93.9l-0.6,0.3"/>
	<path id="Layer3_6_MEMBER_2_MEMBER_117_1_STROKES_1_" class="st3" d="M219.4,95.3V96"/>
	<path id="Layer3_6_MEMBER_2_MEMBER_118_1_STROKES_1_" class="st3" d="M220.1,96.1l0.6-0.3l0.3-0.3"/>
	<path id="Layer3_6_MEMBER_2_MEMBER_119_1_STROKES_1_" class="st3" d="M221.4,95L221.4,95"/>
	<path id="Layer3_6_MEMBER_2_MEMBER_120_1_STROKES_1_" class="st3" d="M220.8,95.7L220.8,95.7"/>
	<path id="Layer3_6_MEMBER_2_MEMBER_121_1_STROKES_1_" class="st3" d="M220.4,95.8l-0.6-0.3"/>
	<path id="Layer3_6_MEMBER_2_MEMBER_122_1_STROKES_1_" class="st3" d="M221.1,95l-0.6-0.3"/>
	<path id="Layer3_6_MEMBER_2_MEMBER_123_1_STROKES_1_" class="st3" d="M220.4,95l-0.8,0.3h-0.3"/>
	<path id="Layer3_6_MEMBER_2_MEMBER_124_1_STROKES_1_" class="st3" d="M220.4,95.8L220.4,95.8h-1.1"/>
	<path id="Layer3_6_MEMBER_2_MEMBER_125_1_STROKES_1_" class="st3" d="M221.1,95L221.1,95v-0.6v-0.3"/>
	<path id="Layer3_6_MEMBER_2_MEMBER_126_1_STROKES_1_" class="st3" d="M220.4,95L220.4,95v-0.6v-0.3"/>
	<path id="Layer3_6_MEMBER_2_MEMBER_127_1_STROKES_1_" class="st2" d="M220.4,92.7h-0.6l-0.3,0.3l-0.6,0.3l-0.3,0.3l-0.3,0.6v0.3
		l-0.3,0.3v0.3v0.3v0.3v0.3v0.3v0.3l0.3,0.3"/>
	<path id="Layer3_6_MEMBER_2_MEMBER_128_1_STROKES_1_" class="st2" d="M221.4,94.2v0.6v0.3l0,0v0.3l0,0v0.3l0,0v0.3h-0.6"/>
	<path id="Layer3_6_MEMBER_2_MEMBER_129_1_STROKES_1_" class="st2" d="M219,96.8l-0.6-0.3"/>
	<path id="Layer3_6_MEMBER_2_MEMBER_130_1_STROKES_1_" class="st2" d="M221.1,93L221.1,93"/>
	<path id="Layer3_6_MEMBER_2_MEMBER_131_1_STROKES_1_" class="st2" d="M220.4,93L220.4,93l-0.3,0.6h-0.3l-0.3,0.3l-0.6,0.6l-0.3,0.3
		l-0.3,0.6v0.6"/>
	<path id="Layer3_6_MEMBER_2_MEMBER_132_1_STROKES_1_" class="st3" d="M207.6,101.3L207.6,101.3"/>
	<path id="Layer3_6_MEMBER_2_MEMBER_133_1_STROKES_1_" class="st3" d="M206.2,103v0.6"/>
	<path id="Layer3_6_MEMBER_2_MEMBER_134_1_STROKES_1_" class="st3" d="M207.1,103.8L207.1,103.8L207.1,103.8l0.6-0.6"/>
	<path id="Layer3_6_MEMBER_2_MEMBER_135_1_STROKES_1_" class="st3" d="M208.2,102.4L208.2,102.4"/>
	<path id="Layer3_6_MEMBER_2_MEMBER_136_1_STROKES_1_" class="st3" d="M207.9,103l-0.6-0.3"/>
	<path id="Layer3_6_MEMBER_2_MEMBER_137_1_STROKES_1_" class="st3" d="M207.4,103.4l-0.6-0.3"/>
	<path id="Layer3_6_MEMBER_2_MEMBER_138_1_STROKES_1_" class="st3" d="M207.9,102.4l-0.6-0.3"/>
	<path id="Layer3_6_MEMBER_2_MEMBER_139_1_STROKES_1_" class="st3" d="M207.4,102.7L207.4,102.7l-0.6,0.3h-0.3"/>
	<path id="Layer3_6_MEMBER_2_MEMBER_140_1_STROKES_1_" class="st3" d="M207.4,103.4l-0.6,0.3h-0.3"/>
	<path id="Layer3_6_MEMBER_2_MEMBER_141_1_STROKES_1_" class="st3" d="M207.9,102.4l-0.3-0.8v-0.3"/>
	<path id="Layer3_6_MEMBER_2_MEMBER_142_1_STROKES_1_" class="st3" d="M207.4,102.7L207.4,102.7v-0.6"/>
	<path id="Layer3_6_MEMBER_2_MEMBER_143_1_STROKES_1_" class="st2" d="M206.8,100.4L206.8,100.4l-0.6,0.3l-0.3,0.3l-0.3,0.3
		l-0.3,0.6l-0.3,0.8v0.8"/>
	<path id="Layer3_6_MEMBER_2_MEMBER_144_1_STROKES_1_" class="st2" d="M208.5,101.6v0.8v0.3l0,0v0.3l0,0l0,0v0.3l0,0l-0.3,0.3l0,0
		l-0.3,0.3"/>
	<path id="Layer3_6_MEMBER_2_MEMBER_145_1_STROKES_1_" class="st2" d="M206.2,104.1l-0.6-0.3"/>
	<path id="Layer3_6_MEMBER_2_MEMBER_146_1_STROKES_1_" class="st2" d="M207.9,100.7L207.9,100.7"/>
	<path id="Layer3_6_MEMBER_2_MEMBER_147_1_STROKES_1_" class="st2" d="M207.4,100.7l-0.6,0.3l-0.6,0.6l-0.3,0.3v0.3v0.3v0.3v0.3v0.3
		v0.3"/>
	<path id="Layer3_6_MEMBER_2_MEMBER_148_1_STROKES_1_" class="st3" d="M207.6,116.7L207.6,116.7"/>
	<path id="Layer3_6_MEMBER_2_MEMBER_149_1_STROKES_1_" class="st3" d="M206.2,118.1v0.6"/>
	<path id="Layer3_6_MEMBER_2_MEMBER_150_1_STROKES_1_" class="st3" d="M207.1,119.1l0.6-0.3l0.3-0.3"/>
	<path id="Layer3_6_MEMBER_2_MEMBER_151_1_STROKES_1_" class="st3" d="M208.2,117.5L208.2,117.5"/>
	<path id="Layer3_6_MEMBER_2_MEMBER_152_1_STROKES_1_" class="st3" d="M207.9,118.1l-0.6-0.3"/>
	<path id="Layer3_6_MEMBER_2_MEMBER_153_1_STROKES_1_" class="st3" d="M207.4,118.4l-0.6-0.3"/>
	<path id="Layer3_6_MEMBER_2_MEMBER_154_1_STROKES_1_" class="st3" d="M207.9,117.5l-0.6-0.3"/>
	<path id="Layer3_6_MEMBER_2_MEMBER_155_1_STROKES_1_" class="st3" d="M207.4,117.8L207.4,117.8l-0.6,0.3h-0.3"/>
	<path id="Layer3_6_MEMBER_2_MEMBER_156_1_STROKES_1_" class="st3" d="M207.4,118.4l-0.6,0.3h-0.3"/>
	<path id="Layer3_6_MEMBER_2_MEMBER_157_1_STROKES_1_" class="st3" d="M207.9,117.5l-0.3-0.8v-0.3"/>
	<path id="Layer3_6_MEMBER_2_MEMBER_158_1_STROKES_1_" class="st3" d="M207.4,117.8L207.4,117.8v-0.6"/>
	<path id="Layer3_6_MEMBER_2_MEMBER_159_1_STROKES_1_" class="st2" d="M206.8,115.6L206.8,115.6l-0.6,0.6l-0.6,0.8l-0.3,0.8v0.8"/>
	<path id="Layer3_6_MEMBER_2_MEMBER_160_1_STROKES_1_" class="st2" d="M207.9,118.4L207.9,118.4"/>
	<path id="Layer3_6_MEMBER_2_MEMBER_161_1_STROKES_1_" class="st2" d="M206.2,119.2l-0.6-0.3"/>
	<path id="Layer3_6_MEMBER_2_MEMBER_162_1_STROKES_1_" class="st2" d="M208.2,115.9l-0.6-0.3"/>
	<path id="Layer3_6_MEMBER_2_MEMBER_163_1_STROKES_1_" class="st2" d="M207.4,115.9L207.4,115.9l-0.6,0.6h-0.3l-0.6,0.8v0.3v0.3v0.3
		v0.3l0.3,0.6"/>
	<path id="Layer3_6_MEMBER_2_MEMBER_164_1_STROKES_1_" class="st3" d="M210.4,141.2l-0.6,0.3"/>
	<path id="Layer3_6_MEMBER_2_MEMBER_165_1_STROKES_1_" class="st3" d="M208.8,143.2v0.6"/>
	<path id="Layer3_6_MEMBER_2_MEMBER_166_1_STROKES_1_" class="st3" d="M209.9,144l0.6-0.3v-0.3l0.3-0.6"/>
	<path id="Layer3_6_MEMBER_2_MEMBER_167_1_STROKES_1_" class="st3" d="M211.3,142.4v-0.6"/>
	<path id="Layer3_6_MEMBER_2_MEMBER_168_1_STROKES_1_" class="st3" d="M210.7,143.2l-0.6-0.3"/>
	<path id="Layer3_6_MEMBER_2_MEMBER_169_1_STROKES_1_" class="st3" d="M210.2,143.9l-0.8-0.6"/>
	<path id="Layer3_6_MEMBER_2_MEMBER_170_1_STROKES_1_" class="st3" d="M210.7,142.6l-0.8-0.3"/>
	<path id="Layer3_6_MEMBER_2_MEMBER_171_1_STROKES_1_" class="st3" d="M210.2,142.9l-0.6,0.3h-0.3h-0.6"/>
	<path id="Layer3_6_MEMBER_2_MEMBER_172_1_STROKES_1_" class="st3" d="M210.2,143.9h-0.6h-0.3h-0.6"/>
	<path id="Layer3_6_MEMBER_2_MEMBER_173_1_STROKES_1_" class="st3" d="M210.7,142.6L210.7,142.6v-0.8l-0.3-0.3"/>
	<path id="Layer3_6_MEMBER_2_MEMBER_174_1_STROKES_1_" class="st3" d="M210.2,142.9v-0.6v-0.8"/>
	<path id="Layer3_6_MEMBER_2_MEMBER_175_1_STROKES_1_" class="st2" d="M210.4,139.8L210.4,139.8h-0.5h-0.3l-0.3,0.3H209l-0.3,0.3
		l-0.8,0.8l-0.3,0.8l-0.3,0.8v0.6l0.3,0.6l0.3,0.3"/>
	<path id="Layer3_6_MEMBER_2_MEMBER_176_1_STROKES_1_" class="st2" d="M211.3,140.9L211.3,140.9v0.6v0.6v0.3v0.3v0.3v0.3v0.3l0,0
		L211,144v0.3v0.3l0,0l0,0l-0.3,0.3l0,0h-0.3v0.3h-0.3l0,0h-0.2h-0.3h-0.3l0,0H209h-0.3h-0.3H208"/>
	<path id="Layer3_6_MEMBER_2_MEMBER_177_1_STROKES_1_" class="st2" d="M208.5,145l-0.8-0.6"/>
	<path id="Layer3_6_MEMBER_2_MEMBER_178_1_STROKES_1_" class="st2" d="M211,140.4l-0.6-0.3"/>
	<path id="Layer3_6_MEMBER_2_MEMBER_179_1_STROKES_1_" class="st2" d="M210.4,140.1l-0.8,0.3l-0.8,0.8l-0.3,0.3l-0.3,0.8v0.3v0.3
		v0.8v0.3v0.3"/>
	<path id="Layer3_6_MEMBER_2_MEMBER_180_1_STROKES_1_" class="st3" d="M243.1,122.3l-0.6,0.3"/>
	<path id="Layer3_6_MEMBER_2_MEMBER_181_1_STROKES_1_" class="st3" d="M241.3,124.4v0.6"/>
	<path id="Layer3_6_MEMBER_2_MEMBER_182_1_STROKES_1_" class="st3" d="M242.4,125.5l0.6-0.3v-0.3l0.3-0.6"/>
	<path id="Layer3_6_MEMBER_2_MEMBER_183_1_STROKES_1_" class="st3" d="M243.8,123.6V123"/>
	<path id="Layer3_6_MEMBER_2_MEMBER_184_1_STROKES_1_" class="st3" d="M243.2,124.4l-0.6-0.3"/>
	<path id="Layer3_6_MEMBER_2_MEMBER_185_1_STROKES_1_" class="st3" d="M242.7,125l-0.8-0.6"/>
	<path id="Layer3_6_MEMBER_2_MEMBER_186_1_STROKES_1_" class="st3" d="M243.2,123.8l-0.6-0.3"/>
	<path id="Layer3_6_MEMBER_2_MEMBER_187_1_STROKES_1_" class="st3" d="M242.7,124.1l-0.8,0.3h-0.6"/>
	<path id="Layer3_6_MEMBER_2_MEMBER_188_1_STROKES_1_" class="st3" d="M242.7,125h-0.6h-0.8"/>
	<path id="Layer3_6_MEMBER_2_MEMBER_189_1_STROKES_1_" class="st3" d="M243.2,123.8V123l-0.3-0.3"/>
	<path id="Layer3_6_MEMBER_2_MEMBER_190_1_STROKES_1_" class="st3" d="M242.7,124.1l-0.3-1.1"/>
	<path id="Layer3_6_MEMBER_2_MEMBER_191_1_STROKES_1_" class="st2" d="M243.1,120.9L243.1,120.9h-0.6h-0.3l-0.8,0.6l-0.8,0.8
		l-0.3,0.8v0.3v0.3v0.3v0.3v0.3l0.3,0.3"/>
	<path id="Layer3_6_MEMBER_2_MEMBER_192_1_STROKES_1_" class="st2" d="M244.2,122.2v1.1l-0.3,0.3v0.3v0.3l0,0l-0.3,0.3l0,0v0.3h-0.3
		v0.3h-0.3l0,0l-0.3,0.3v0.3l0,0h-0.3H242h-0.3l0,0h-0.3l0,0"/>
	<path id="Layer3_6_MEMBER_2_MEMBER_193_1_STROKES_1_" class="st2" d="M241,126.1l-0.8-0.3"/>
	<path id="Layer3_6_MEMBER_2_MEMBER_194_1_STROKES_1_" class="st2" d="M243.8,121.3l-0.8-0.3"/>
	<path id="Layer3_6_MEMBER_2_MEMBER_195_1_STROKES_1_" class="st2" d="M243.5,121.3L243.5,121.3h-0.8h-0.3l-0.8,0.8l-0.3,0.3
		l-0.6,1.1v0.3v0.3v0.3v0.3v0.3l0.3,0.3h0.3"/>
	<path id="Layer3_6_MEMBER_2_MEMBER_196_1_STROKES_1_" class="st3" d="M198.5,85.3l0.6,0.6"/>
	<path id="Layer3_6_MEMBER_2_MEMBER_197_1_STROKES_1_" class="st3" d="M201.1,85.9l0.6-0.3"/>
	<path id="Layer3_6_MEMBER_2_MEMBER_198_1_STROKES_1_" class="st3" d="M201.6,84.5l-0.6-0.3h-0.5"/>
	<path id="Layer3_6_MEMBER_2_MEMBER_199_1_STROKES_1_" class="st3" d="M199.4,84.2l-0.6,0.3"/>
	<path id="Layer3_6_MEMBER_2_MEMBER_200_1_STROKES_1_" class="st3" d="M200.2,84.2V85"/>
	<path id="Layer3_6_MEMBER_2_MEMBER_201_1_STROKES_1_" class="st3" d="M200.8,84.5v0.8"/>
	<path id="Layer3_6_MEMBER_2_MEMBER_202_1_STROKES_1_" class="st3" d="M199.4,84.5l0.3,0.8"/>
	<path id="Layer3_6_MEMBER_2_MEMBER_203_1_STROKES_1_" class="st3" d="M200.2,84.8l0.6,0.3l0.3,0.3l0.3,0.3"/>
	<path id="Layer3_6_MEMBER_2_MEMBER_204_1_STROKES_1_" class="st3" d="M200.8,84.5l0.6,0.8l0.3,0.3"/>
	<path id="Layer3_6_MEMBER_2_MEMBER_205_1_STROKES_1_" class="st3" d="M199.4,84.2h-0.6"/>
	<path id="Layer3_6_MEMBER_2_MEMBER_206_1_STROKES_1_" class="st3" d="M199.4,84.5L199.4,84.5l-0.8,0.8"/>
	<path id="Layer3_6_MEMBER_2_MEMBER_207_1_STROKES_1_" class="st3" d="M200.2,84.8l-0.6,0.6l-0.3,0.3"/>
	<path id="Layer3_6_MEMBER_2_MEMBER_208_1_STROKES_1_" class="st2" d="M197.4,85.9L197.4,85.9v0.6l0.3,0.6l0.6,0.3h0.3h0.3l0.8,0.3
		h0.3l0.8-0.3l0.3-0.3l0.6-0.3l0.3-0.3h0.3v-0.3"/>
	<path id="Layer3_6_MEMBER_2_MEMBER_209_1_STROKES_1_" class="st2" d="M198.8,84.2L198.8,84.2l0.6-0.3l0,0h0.3h0.3h0.6"/>
	<path id="Layer3_6_MEMBER_2_MEMBER_210_1_STROKES_1_" class="st2" d="M202.7,85.3v0.8"/>
	<path id="Layer3_6_MEMBER_2_MEMBER_211_1_STROKES_1_" class="st2" d="M197.4,85.3v0.8"/>
	<path id="Layer3_6_MEMBER_2_MEMBER_212_1_STROKES_1_" class="st2" d="M197.4,85.3L197.4,85.3l0.3,0.6l0.3,0.3l0.3,0.3l0.3,0.3
		l1.1,0.3h0.8h0.8l0.8-0.3l0.3-0.3v-0.3"/>
	<path id="Layer3_6_MEMBER_2_MEMBER_213_1_STROKES_1_" class="st3" d="M231.3,66.5l0.6,0.3"/>
	<path id="Layer3_6_MEMBER_2_MEMBER_214_1_STROKES_1_" class="st3" d="M233.8,67.1l0.6-0.3"/>
	<path id="Layer3_6_MEMBER_2_MEMBER_215_1_STROKES_1_" class="st3" d="M234.1,65.7l-0.8-0.3h-0.6"/>
	<path id="Layer3_6_MEMBER_2_MEMBER_216_1_STROKES_1_" class="st3" d="M231.9,65.1l-0.6,0.3"/>
	<path id="Layer3_6_MEMBER_2_MEMBER_217_1_STROKES_1_" class="st3" d="M233,65.4v0.8"/>
	<path id="Layer3_6_MEMBER_2_MEMBER_218_1_STROKES_1_" class="st3" d="M233.6,65.7v0.8"/>
	<path id="Layer3_6_MEMBER_2_MEMBER_219_1_STROKES_1_" class="st3" d="M232.2,65.4v0.8"/>
	<path id="Layer3_6_MEMBER_2_MEMBER_220_1_STROKES_1_" class="st3" d="M232.7,66l0.6,0.3l0.3,0.3l0.3,0.3"/>
	<path id="Layer3_6_MEMBER_2_MEMBER_221_1_STROKES_1_" class="st3" d="M233.6,65.7L233.6,65.7l0.8,1.1"/>
	<path id="Layer3_6_MEMBER_2_MEMBER_222_1_STROKES_1_" class="st3" d="M231.9,65.4L231.9,65.4"/>
	<path id="Layer3_6_MEMBER_2_MEMBER_223_1_STROKES_1_" class="st3" d="M232.2,65.4l-0.6,0.6l-0.3,0.3"/>
	<path id="Layer3_6_MEMBER_2_MEMBER_224_1_STROKES_1_" class="st3" d="M232.7,66l-0.8,0.8"/>
	<path id="Layer3_6_MEMBER_2_MEMBER_225_1_STROKES_1_" class="st2" d="M230.2,67.4L230.2,67.4V68l0.3,0.3l0.8,0.6l0.8,0.3h0.8
		l1.1-0.3l0.6-0.3l0.3-0.3V68"/>
	<path id="Layer3_6_MEMBER_2_MEMBER_226_1_STROKES_1_" class="st2" d="M231.6,65.1L231.6,65.1L231.6,65.1L231.6,65.1l1.1-0.3"/>
	<path id="Layer3_6_MEMBER_2_MEMBER_227_1_STROKES_1_" class="st2" d="M235.5,66.5v0.8"/>
	<path id="Layer3_6_MEMBER_2_MEMBER_228_1_STROKES_1_" class="st2" d="M230.2,66.5v0.8"/>
	<path id="Layer3_6_MEMBER_2_MEMBER_229_1_STROKES_1_" class="st2" d="M230.5,67.1L230.5,67.1l0.6,0.3l0.6,0.3l0.8,0.3h0.8l0.8-0.3
		h0.6l0.3-0.3h0.3l0.3-0.3l0.3-0.3"/>
	<path id="Layer3_6_MEMBER_2_MEMBER_230_1_STROKES_1_" class="st3" d="M162.2,85.6v-0.8"/>
	<path id="Layer3_6_MEMBER_2_MEMBER_231_1_STROKES_1_" class="st3" d="M161.7,83.1l-0.6-0.3"/>
	<path id="Layer3_6_MEMBER_2_MEMBER_232_1_STROKES_1_" class="st3" d="M160.3,83.6v0.6v0.3l0.3,0.6"/>
	<path id="Layer3_6_MEMBER_2_MEMBER_233_1_STROKES_1_" class="st3" d="M160.8,85.6l0.6,0.3"/>
	<path id="Layer3_6_MEMBER_2_MEMBER_234_1_STROKES_1_" class="st3" d="M160.6,84.8l0.6-0.3"/>
	<path id="Layer3_6_MEMBER_2_MEMBER_235_1_STROKES_1_" class="st3" d="M160.6,84.2l0.8-0.3"/>
	<path id="Layer3_6_MEMBER_2_MEMBER_236_1_STROKES_1_" class="st3" d="M161.1,85.3l0.6-0.3"/>
	<path id="Layer3_6_MEMBER_2_MEMBER_237_1_STROKES_1_" class="st3" d="M161.4,84.5v-1.1l0.3-0.3"/>
	<path id="Layer3_6_MEMBER_2_MEMBER_238_1_STROKES_1_" class="st3" d="M160.6,84.2v-0.6l0.6-0.8"/>
	<path id="Layer3_6_MEMBER_2_MEMBER_239_1_STROKES_1_" class="st3" d="M161.1,85.3l0.6,0.3h0.3h0.3"/>
	<path id="Layer3_6_MEMBER_2_MEMBER_240_1_STROKES_1_" class="st3" d="M161.4,84.5L161.4,84.5l0.6,0.3h0.3"/>
	<path id="Layer3_6_MEMBER_2_MEMBER_241_1_STROKES_1_" class="st2" d="M163.9,86.2L163.9,86.2l0.3-0.8v-0.9l-0.8-1.4l-0.3-0.3
		l-0.3-0.3l-0.3-0.3h-0.3l-0.3-0.3l-0.6-0.3H161"/>
	<path id="Layer3_6_MEMBER_2_MEMBER_242_1_STROKES_1_" class="st2" d="M161.1,86.2L161.1,86.2L161.1,86.2l-0.3-0.6h-0.3l0,0v-0.3
		l0,0V85v-0.3l0,0l0,0v-0.2v-0.3v-0.3v-0.3v-0.6l0,0v-0.3v-0.3V82l0,0v-0.3"/>
	<path id="Layer3_6_MEMBER_2_MEMBER_243_1_STROKES_1_" class="st2" d="M160.3,82.2l0.8-0.3"/>
	<path id="Layer3_6_MEMBER_2_MEMBER_244_1_STROKES_1_" class="st2" d="M163.1,86.7l0.6-0.3"/>
	<path id="Layer3_6_MEMBER_2_MEMBER_245_1_STROKES_1_" class="st2" d="M163.5,86.4L163.5,86.4v-0.6v-1.1l-0.8-1.4l-0.6-0.6l-0.8-0.6
		H161h-0.6"/>
	<path id="Layer3_6_MEMBER_2_MEMBER_246_1_STROKES_1_" class="st3" d="M127.2,99.6v-0.8"/>
	<path id="Layer3_6_MEMBER_2_MEMBER_247_1_STROKES_1_" class="st3" d="M126.4,97.1l-0.6-0.3"/>
	<path id="Layer3_6_MEMBER_2_MEMBER_248_1_STROKES_1_" class="st3" d="M125.5,97.9l-0.3-0.6L125.5,97.9v0.8"/>
	<path id="Layer3_6_MEMBER_2_MEMBER_249_1_STROKES_1_" class="st3" d="M125.8,99.6l0.6,0.3"/>
	<path id="Layer3_6_MEMBER_2_MEMBER_250_1_STROKES_1_" class="st3" d="M125.5,98.8l0.6-0.3"/>
	<path id="Layer3_6_MEMBER_2_MEMBER_251_1_STROKES_1_" class="st3" d="M125.5,97.9l0.8-0.3"/>
	<path id="Layer3_6_MEMBER_2_MEMBER_252_1_STROKES_1_" class="st3" d="M126.1,99.3l0.6-0.6"/>
	<path id="Layer3_6_MEMBER_2_MEMBER_253_1_STROKES_1_" class="st3" d="M126.1,98.5v-0.6v-0.3l0.3-0.3"/>
	<path id="Layer3_6_MEMBER_2_MEMBER_254_1_STROKES_1_" class="st3" d="M125.5,97.9v-0.6l0.6-0.8"/>
	<path id="Layer3_6_MEMBER_2_MEMBER_255_1_STROKES_1_" class="st3" d="M126.1,99.3l0.6,0.3h0.3h0.3"/>
	<path id="Layer3_6_MEMBER_2_MEMBER_256_1_STROKES_1_" class="st3" d="M126.1,98.5L126.1,98.5l0.6,0.3h0.3"/>
	<path id="Layer3_6_MEMBER_2_MEMBER_257_1_STROKES_1_" class="st2" d="M128.9,99.9L128.9,99.9l0.3-0.6v-0.6l-0.3-0.8l-0.3-0.3
		l-0.3-0.5l-1.1-1.1l-0.3-0.3l-0.6-0.3h-0.3"/>
	<path id="Layer3_6_MEMBER_2_MEMBER_258_1_STROKES_1_" class="st2" d="M126.1,99.9L126.1,99.9L126.1,99.9l-0.3-0.6h-0.3V99l0,0
		l-0.3-0.3l0,0l0,0v-0.3V98l0,0v-0.3v-0.6l0,0l0,0"/>
	<path id="Layer3_6_MEMBER_2_MEMBER_259_1_STROKES_1_" class="st2" d="M125.2,95.8l0.8-0.3"/>
	<path id="Layer3_6_MEMBER_2_MEMBER_260_1_STROKES_1_" class="st2" d="M127.8,100.7l0.6-0.3"/>
	<path id="Layer3_6_MEMBER_2_MEMBER_261_1_STROKES_1_" class="st2" d="M128,100.4L128,100.4l0.3-0.8V99l-0.3-0.8l-0.3-0.8l-0.3-0.3
		l-0.3-0.3l-0.3-0.3l-0.3-0.3l-0.6-0.3l-0.3-0.3h-0.3"/>
	<path id="Layer3_6_MEMBER_2_MEMBER_262_1_STROKES_1_" class="st3" d="M189.1,144.6v-0.8"/>
	<path id="Layer3_6_MEMBER_2_MEMBER_263_1_STROKES_1_" class="st3" d="M188.6,142.1l-0.6-0.3"/>
	<path id="Layer3_6_MEMBER_2_MEMBER_264_1_STROKES_1_" class="st3" d="M187.2,142.6v0.6v0.3l0.3,0.3"/>
	<path id="Layer3_6_MEMBER_2_MEMBER_265_1_STROKES_1_" class="st3" d="M187.6,144.6L187.6,144.6"/>
	<path id="Layer3_6_MEMBER_2_MEMBER_266_1_STROKES_1_" class="st3" d="M187.3,143.9l0.6-0.3"/>
	<path id="Layer3_6_MEMBER_2_MEMBER_267_1_STROKES_1_" class="st3" d="M187.2,142.9l0.8-0.3"/>
	<path id="Layer3_6_MEMBER_2_MEMBER_268_1_STROKES_1_" class="st3" d="M188,144.3l0.6-0.3"/>
	<path id="Layer3_6_MEMBER_2_MEMBER_269_1_STROKES_1_" class="st3" d="M188.3,143.5v-1.1l0.3-0.3"/>
	<path id="Layer3_6_MEMBER_2_MEMBER_270_1_STROKES_1_" class="st3" d="M187.2,142.9L187.2,142.9l0.8-1.1"/>
	<path id="Layer3_6_MEMBER_2_MEMBER_271_1_STROKES_1_" class="st3" d="M188,144.3l0.8,0.3h0.3"/>
	<path id="Layer3_6_MEMBER_2_MEMBER_272_1_STROKES_1_" class="st3" d="M188.3,143.5l0.8,0.3h0.3"/>
	<path id="Layer3_6_MEMBER_2_MEMBER_273_1_STROKES_1_" class="st2" d="M190.5,145.3L190.5,145.3l0.3-0.8v-0.6l-0.3-0.8l-0.6-1.1
		l-1.1-1.1l-0.3-0.3h-0.3h-0.6"/>
	<path id="Layer3_6_MEMBER_2_MEMBER_274_1_STROKES_1_" class="st2" d="M186.9,143.5L186.9,143.5v-0.6"/>
	<path id="Layer3_6_MEMBER_2_MEMBER_275_1_STROKES_1_" class="st2" d="M187.2,141.2l0.8-0.3"/>
	<path id="Layer3_6_MEMBER_2_MEMBER_276_1_STROKES_1_" class="st2" d="M189.7,145.7l0.6-0.3"/>
	<path id="Layer3_6_MEMBER_2_MEMBER_277_1_STROKES_1_" class="st2" d="M190,145.6L190,145.6l0.3-0.8v-0.6l-0.3-1.1l-0.3-0.8
		l-0.3-0.3l-0.3-0.3l-0.3-0.3l-0.3-0.3l-0.3-0.3H188h-0.3"/>
	<path id="Layer3_6_MEMBER_2_MEMBER_278_1_STROKES_1_" class="st2" d="M242.7,84.2l8.6,5.2"/>
	<path id="Layer3_6_MEMBER_2_MEMBER_279_1_STROKES_1_" class="st2" d="M234.4,98.2l8.6,5.2"/>
	<path id="Layer3_6_MEMBER_2_MEMBER_280_1_STROKES_1_" class="st2" d="M218.3,97.1l8.6,5.2"/>
	<path id="Layer3_6_MEMBER_2_MEMBER_281_1_STROKES_1_" class="st2" d="M207.9,114.7l8.6,5.2"/>
	<path id="Layer3_6_MEMBER_2_MEMBER_282_1_STROKES_1_" class="st2" d="M225.6,102.4l0.8,0.3l0.3,0.3l0.6,0.8l0.3,0.6l0.3,0.6v0.6
		l0.3,0.8v1.4l-0.8,3.5l-1.1,2.5l-1.7,2.4l-2,1.7l-1.4,0.8l-2,0.8h-1.1h-0.6l-0.8-0.3l-0.8-0.6l-0.6-0.8l-0.6-1.7v-0.8l0.3-1.7
		l0.6-2.5l0.6-0.8l0.3-0.8l1.4-2.5l0.6-0.8l2-2l2.5-1.4l0.6-0.3H225.6z"/>
	<path id="Layer3_6_MEMBER_2_MEMBER_283_1_STROKES_1_" class="st2" d="M243.8,94.2l1.1-1.7l1.4-1.4l1.4-0.8l0.8-0.3h0.8h0.3h0.3h0.3
		l0.6,0.8l0.3,0.8l0.3,1.1v1.1l-0.3,1.1l-0.3,1.4l-1.7,3.1l-0.8,1.1l-1.7,1.1l-0.8,0.6l-0.6,0.3l-0.8,0.3h-0.3h-0.3l-0.6-0.3
		l-0.3-0.3l-0.6-0.6l-0.3-0.8l-0.3-1.4l0.3-2l0.3-0.6L243.8,94.2z"/>
	<path id="Layer3_6_MEMBER_2_MEMBER_284_1_STROKES_1_" class="st2" d="M244.5,85.3l-0.8-0.3h-1.1H242l-1.1,0.3l-1.1,0.6l-0.6,0.6
		l-0.6,0.3l-1.1,1.1l-1.7,2.5l-0.6,1.4l-0.6,2.8v1.4l0.6,1.7l0.3,0.6l0.6,0.8l0.3,0.3"/>
	<path id="Layer3_6_MEMBER_2_MEMBER_285_1_STROKES_1_" class="st2" d="M220.8,98.5L220.8,98.5l-1.4-0.6h-1.1l-1.4,0.3l-1.4,0.6
		l-2,1.7l-2.5,3.1l-1.4,2.5l-1.1,3.8v3.1l0.3,0.8l0.8,1.7l0.6,0.3l0.6,0.3"/>
	<path id="Layer3_6_MEMBER_2_MEMBER_286_1_STROKES_1_" class="st2" d="M246.2,86.2L246.2,86.2l-1.1-0.3H244l-1.1,0.3l-1.1,0.6
		l-1.7,1.4l-1.4,1.7l-0.8,1.4l-0.8,2l-0.3,2v1.1l0.3,1.7l0.6,0.8l0.8,0.6"/>
	<path id="Layer3_6_MEMBER_2_MEMBER_287_1_STROKES_1_" class="st2" d="M222.5,99.3l-1.1-0.6h-0.6h-1.1l-1.4,0.3l-0.6,0.3l-1.4,0.9
		l-1.4,1.1l-2,2.4l-2,3.5l-0.6,1.7l-0.6,2.8v1.7l0.6,2l0.6,1.1l0.8,0.8"/>
	<path id="Layer3_6_MEMBER_2_MEMBER_288_1_STROKES_1_" class="st2" d="M247.8,87l-1.4-0.3l-1.1,0.3l-0.6,0.3l-1.1,0.6l-1.1,0.8
		l-1.7,1.7L239,93l-0.6,1.4l-0.6,2.4v0.6v1.1v0.6l0.3,1.1l0.3,0.6l0.6,0.8l0.3,0.3"/>
	<path id="Layer3_6_MEMBER_2_MEMBER_289_1_STROKES_1_" class="st2" d="M223.9,100.4l-0.8-0.6l-1.1-0.3h-0.6l-1.4,0.3l-1.4,0.6
		l-2.8,2.4l-2.4,3.1l-1.1,2.5l-0.6,1.7l-0.3,1.7v2.4l0.3,1.4l0.3,0.6l0.8,0.8l0.3,0.3"/>
	<path id="Layer3_6_MEMBER_2_MEMBER_290_1_STROKES_1_" class="st2" d="M249.5,88.1l-0.8-0.3h-0.3l-2.4,0.6l-1.7,1.1l-1.1,0.8
		l-0.8,1.1l-1.1,2l-0.8,2l-0.3,2.4V99l0.3,1.7l0.8,1.1l0.3,0.3"/>
	<path id="Layer3_6_MEMBER_2_MEMBER_291_1_STROKES_1_" class="st2" d="M225.6,101.3l-1.7-0.8h-2l-0.8,0.3l-1.4,0.6l-2,1.7l-2,2
		l-1.7,2.5l-0.8,1.7l-0.8,3.8v1.7v0.8l0.3,0.8l0.6,1.1l0.8,0.8l0.6,0.3"/>
	<path id="Layer3_6_MEMBER_2_MEMBER_292_1_STROKES_1_" class="st2" d="M175.1,147.5v1.1"/>
	<path id="Layer3_6_MEMBER_2_MEMBER_293_1_STROKES_1_" class="st2" d="M181.4,153.7v-1.1"/>
	<path id="Layer3_6_MEMBER_2_MEMBER_294_1_STROKES_1_" class="st2" d="M175.4,150.3v-1.1"/>
	<path id="Layer3_6_MEMBER_2_MEMBER_295_1_STROKES_1_" class="st2" d="M182.8,148.9h-0.6"/>
	<path id="Layer3_6_MEMBER_2_MEMBER_296_1_STROKES_1_" class="st2" d="M92.3,101v1.4"/>
	<path id="Layer3_6_MEMBER_2_MEMBER_297_1_STROKES_1_" class="st2" d="M98.3,104.5v1.1"/>
	<path id="Layer3_6_MEMBER_2_MEMBER_298_1_STROKES_1_" class="st2" d="M101.3,104.8v1.1"/>
	<path id="Layer3_6_MEMBER_2_MEMBER_299_1_STROKES_1_" class="st2" d="M104.6,103.4v0.6"/>
	<path id="Layer3_6_MEMBER_2_MEMBER_300_1_STROKES_1_" class="st2" d="M98.6,100.7h0.6"/>
	<path id="Layer3_6_MEMBER_2_MEMBER_302_1_STROKES_1_" class="st2" d="M267.2,97.5l-0.6-0.3h-2.4l-1.4,0.8l-1.7,1.1l-2.8,3.1
		l-1.4,3.1l-0.3,1.1l-0.3,2v1.7l0.6,1.4l0.3,0.6l0.6,0.3l0.6,0.3"/>
	<path id="Layer3_6_MEMBER_2_MEMBER_303_1_STROKES_1_" class="st2" d="M277,105.2l-0.3-1.4l-0.3-0.6l-0.3-0.6l-0.6-0.6l-0.6-0.3
		l-1.1-0.3h-0.8l-1.4,0.3l-0.8,0.3L269,103l-1.4,1.7l-1.7,2.8l-0.6,1.1l-0.8,2.8v2l0.3,1.7l0.3,0.8l0.3,0.6l1.1,0.8l0.6,0.3h1.4h0.8
		l0.8-0.3l0.3-0.3"/>
	<path id="Layer3_6_MEMBER_2_MEMBER_304_1_STROKES_1_" class="st2" d="M258.4,112.9l7.7,4.6"/>
	<path id="Layer3_6_MEMBER_2_MEMBER_305_1_STROKES_1_" class="st2" d="M267.2,97.5l7.7,4.6"/>
	<path id="Layer3_6_MEMBER_2_MEMBER_306_1_STROKES_1_" class="st2" d="M271.5,100.2l-0.6-0.3h-0.6h-0.6l-1.6,0.3l-0.8,0.3l-1.7,1.1
		l-1.4,1.4l-2.4,3.8l-0.3,1.1l-0.6,2v2.8l0.3,0.8l0.8,1.4l0.6,0.6l0.6,0.3"/>
	<path id="Layer3_6_MEMBER_2_MEMBER_307_1_STROKES_1_" class="st2" d="M268.6,98.2l-1.4-0.3h-0.8l-1.4,0.6l-1.7,0.8l-0.8,0.6
		l-2.4,2.4l-2,3.9l-0.6,2.8v0.8l0.3,1.7l0.6,1.4l1.1,0.8"/>
	<path id="Layer3_6_MEMBER_2_MEMBER_308_1_STROKES_1_" class="st2" d="M274.1,103.8l-1.1-0.3l-1.4,0.3l-0.6,0.3l-1.4,0.8l-1.1,1.4
		l-1.1,1.7l-0.8,1.7l-0.6,2.5l0.3,1.4l0.6,1.1l0.3,0.3l0.6,0.3"/>
	<path id="Layer3_6_MEMBER_2_MEMBER_309_1_STROKES_1_" class="st2" d="M267.5,115.9l3.1,1.7"/>
	<path id="Layer3_6_MEMBER_2_MEMBER_310_1_STROKES_1_" class="st2" d="M274.1,103.8l3.1,2"/>
	<path id="Layer3_6_MEMBER_2_MEMBER_311_1_STROKES_1_" class="st2" d="M279,109.3v-1.1v-0.6l-0.3-0.6l-0.6-0.8l-0.8-0.6h-0.6h-1.1
		l-0.6,0.3l-2.4,1.7l-2,2.5l-0.8,2.5l-0.3,1.4v0.8l0.3,1.1l0.6,0.8l0.8,0.8l0.3,0.3h0.6h0.6l1.1-0.3"/>
	<path id="Layer3_6_MEMBER_2_MEMBER_312_1_STROKES_1_" class="st2" d="M277.3,108.2L277.3,108.2l-0.6-0.8l-0.3-0.3H276h-0.8
		l-0.8,0.3l-0.8,0.6l-1.1,0.8l-1.1,2l-0.3,0.8v0.8v0.8l0.3,0.8l0.3,0.6l0.3,0.3h0.3l0.3,0.3h0.8"/>
	<path id="Layer3_6_MEMBER_2_MEMBER_313_1_STROKES_1_" class="st2" d="M283.7,122.7l7.7,4.2"/>
	<path id="Layer3_6_MEMBER_2_MEMBER_314_1_STROKES_1_" class="st2" d="M271.2,113.9l9.7,6.9"/>
	<path id="Layer3_6_MEMBER_2_MEMBER_315_1_STROKES_1_" class="st2" d="M284.3,121.3l8,4.6"/>
	<path id="Layer3_6_MEMBER_2_MEMBER_316_1_STROKES_1_" class="st2" d="M271.2,112.5l2.5,1.4l0.8,0.6l0.8,0.3l6,4.6"/>
	<path id="Layer3_6_MEMBER_2_MEMBER_317_1_STROKES_1_" class="st2" d="M284.3,120.6l0.6,0.6l7.1,4.6"/>
	<path id="Layer3_6_MEMBER_2_MEMBER_318_1_STROKES_1_" class="st2" d="M271.8,110.7l6.6,4.2l3.5,3.5"/>
	<path id="Layer3_6_MEMBER_2_MEMBER_319_1_STROKES_1_" class="st2" d="M285.3,119.5l8.8,6l0.3,0.3"/>
	<path id="Layer3_6_MEMBER_2_MEMBER_320_1_STROKES_1_" class="st2" d="M272.7,109.3l1.1,0.6l5.5,3.9l3.8,3.5"/>
	<path id="Layer3_6_MEMBER_2_MEMBER_321_1_STROKES_1_" class="st2" d="M285.8,119.1l8.6,6.3l0.3,0.3"/>
	<path id="Layer3_6_MEMBER_2_MEMBER_322_1_STROKES_1_" class="st2" d="M273.5,108.4l4.2,2.5l2,1.7l3.1,3.8l0.3,0.3"/>
	<path id="Layer3_6_MEMBER_2_MEMBER_323_1_STROKES_1_" class="st2" d="M286.9,118.1l8.6,6"/>
	<path id="Layer3_6_MEMBER_2_MEMBER_324_1_STROKES_1_" class="st2" d="M274.9,107.6l6.3,3.9l3.8,4.6"/>
	<path id="Layer3_6_MEMBER_2_MEMBER_325_1_STROKES_1_" class="st2" d="M288.3,118.1L288.3,118.1l-0.6-0.3h-0.3H287h-0.2h-0.6
		l-0.6,0.3l-0.6,0.6l-0.3,0.3l-0.8,1.4l-0.6,1.1v0.8v0.3v0.8v0.3v0.3l0.3,0.6l0.3,0.3h0.3h0.3h0.3h0.6h0.3l0.3-0.3"/>
	<path id="Layer3_6_MEMBER_2_MEMBER_326_1_STROKES_1_" class="st2" d="M285.4,116.4L285.4,116.4h-0.8l-0.6,0.3l-0.8,0.6l-1.1,1.4
		l-0.3,0.3l-0.3,0.3l-0.3,0.8l-0.3,0.3v0.3v0.3v0.6v0.3v0.3l0.3,0.6"/>
	<path id="Layer3_6_MEMBER_2_MEMBER_327_1_STROKES_1_" class="st2" d="M281.8,123.3l2.5,1.4"/>
	<path id="Layer3_6_MEMBER_2_MEMBER_328_1_STROKES_1_" class="st2" d="M285.8,116.4l2,1.1"/>
	<path id="Layer3_6_MEMBER_2_MEMBER_329_1_STROKES_1_" class="st2" d="M273.5,117.5h1.1l0.3,0.3h0.3h0.3l0.3,0.3h0.3l0.6,0.3"/>
	<path id="Layer3_6_MEMBER_2_MEMBER_330_1_STROKES_1_" class="st2" d="M277.3,118.7l2,1.1"/>
	<path id="Layer3_6_MEMBER_2_MEMBER_331_1_STROKES_1_" class="st2" d="M262.1,121.3l-0.8-0.3h-0.8h-2l-2,0.8l-2.8,2.4l-2.5,3.5
		L250,130l-0.8,2.5l-0.3,2.5v2.4l0.3,0.8l0.3,0.8l1.1,1.4l0.8,0.3"/>
	<path id="Layer3_6_MEMBER_2_MEMBER_332_1_STROKES_1_" class="st2" d="M274.3,131.3v-0.8l-0.6-1.7L273,128l-1.1-1.1l-0.8-0.3h-1.6
		l-0.8,0.3l-0.8,0.3l-2,1.1l-2,1.7l-2.5,3.1l-0.8,1.1l-1.4,3.9l-0.3,2.5v1.1l0.3,2l0.3,0.8l0.6,0.8l0.6,0.6l0.6,0.6l0.8,0.3l0.8,0.3
		h0.8l2-0.6l0.3-0.3"/>
	<path id="Layer3_6_MEMBER_2_MEMBER_333_1_STROKES_1_" class="st2" d="M251.2,140.9l9.7,5.7"/>
	<path id="Layer3_6_MEMBER_2_MEMBER_334_1_STROKES_1_" class="st2" d="M262.1,121.3l9.7,5.7"/>
	<path id="Layer3_6_MEMBER_2_MEMBER_335_1_STROKES_1_" class="st2" d="M267.9,124.7l-0.8-0.3l-0.8-0.3l-2.8,0.6l-2,1.1l-2,1.7
		l-1.7,2.4l-2.5,4.9l-0.8,3.8v1.1l0.3,2l0.3,0.8l0.6,0.8l0.6,0.6l0.8,0.6"/>
	<path id="Layer3_6_MEMBER_2_MEMBER_336_1_STROKES_1_" class="st2" d="M263.8,122.3L263,122l-0.8-0.3l-1.7,0.3l-0.8,0.3l-1.1,0.6
		l-2,1.4l-0.8,0.8l-1.7,2l-2,3.8l-0.8,2.5l-0.3,1.1v2.5l0.3,2l0.3,0.8l0.6,0.8l1.1,1.1"/>
	<path id="Layer3_6_MEMBER_2_MEMBER_337_1_STROKES_1_" class="st2" d="M271,129.3l-1.4-0.3h-0.8l-1.7,0.8l-1.7,1.1l-2.4,2.8l-2,4.6
		l-0.3,1.1v2l0.3,0.8l0.3,0.6l0.6,0.8l0.6,0.6l0.6,0.3"/>
	<path id="Layer3_6_MEMBER_2_MEMBER_338_1_STROKES_1_" class="st2" d="M262.7,144.6l3.9,2.4"/>
	<path id="Layer3_6_MEMBER_2_MEMBER_339_1_STROKES_1_" class="st2" d="M271,129.3l3.9,2.4"/>
	<path id="Layer3_6_MEMBER_2_MEMBER_340_1_STROKES_1_" class="st2" d="M277,136.3v-0.8l-0.3-1.7l-0.6-1.1l-0.6-0.6l-0.6-0.3
		l-1.1-0.3h-1.4l-0.8,0.3l-1.4,0.8l-1.4,1.1l-1.4,1.7l-1.7,2.8l-0.8,2.8v2.8l0.3,1.4l0.3,0.6l0.3,0.6l0.6,0.3l0.6,0.3h0.6h1.4
		l0.6-0.3"/>
	<path id="Layer3_6_MEMBER_2_MEMBER_341_1_STROKES_1_" class="st2" d="M274.9,135.5l-0.3-0.8l-0.6-0.6l-0.6-0.3h-0.6l0,0l-1.1,0.3
		l-1.1,0.8l-1.7,1.7l-0.6,0.8l-0.8,2.4l-0.3,1.1v1.1v0.3v0.3l0.3,0.8l0.6,0.6l0.6,0.3h0.8h0.6"/>
	<path id="Layer3_6_MEMBER_2_MEMBER_342_1_STROKES_1_" class="st2" d="M283.2,153.3L283.2,153.3l8.8,5.2l0.6,0.3"/>
	<path id="Layer3_6_MEMBER_2_MEMBER_343_1_STROKES_1_" class="st2" d="M267.2,142.4l5.5,3.5l6.6,5.2"/>
	<path id="Layer3_6_MEMBER_2_MEMBER_344_1_STROKES_1_" class="st2" d="M283.7,151.5l10.2,6"/>
	<path id="Layer3_6_MEMBER_2_MEMBER_345_1_STROKES_1_" class="st2" d="M267.2,140.1l7.7,4.9l4.2,3.5l1.1,0.6"/>
	<path id="Layer3_6_MEMBER_2_MEMBER_346_1_STROKES_1_" class="st2" d="M284,150.6l5.7,3.9l2.8,1.4l0.8,0.6l0.3,0.3"/>
	<path id="Layer3_6_MEMBER_2_MEMBER_347_1_STROKES_1_" class="st2" d="M268,138l8,5.5l4.6,4.2"/>
	<path id="Layer3_6_MEMBER_2_MEMBER_348_1_STROKES_1_" class="st2" d="M285,149.2l10,6.9l1.1,0.6l0.3,0.3"/>
	<path id="Layer3_6_MEMBER_2_MEMBER_349_1_STROKES_1_" class="st2" d="M269.3,136.2l6.9,4.6l5.7,5.5"/>
	<path id="Layer3_6_MEMBER_2_MEMBER_350_1_STROKES_1_" class="st2" d="M285.8,148.4l1.1,1.1l10,7.1"/>
	<path id="Layer3_6_MEMBER_2_MEMBER_351_1_STROKES_1_" class="st2" d="M270.4,135.2l6.9,4.2l2.5,2.4l2.8,3.5l0.3,0.3"/>
	<path id="Layer3_6_MEMBER_2_MEMBER_352_1_STROKES_1_" class="st2" d="M287.2,147.5l10.5,7.4"/>
	<path id="Layer3_6_MEMBER_2_MEMBER_353_1_STROKES_1_" class="st2" d="M272.1,134.1l6.3,3.9l1.1,1.1l4.9,5.7"/>
	<path id="Layer3_6_MEMBER_2_MEMBER_354_1_STROKES_1_" class="st2" d="M288.9,147.5L288.9,147.5l-0.6-0.3l-0.6-0.3H287h-0.2
		l-0.3,0.3h-0.3l-0.8,0.3l-0.8,0.6l-0.8,1.1l-0.3,0.8l-0.8,2l-0.3,1.4l0.3,1.4l0.3,0.3l0.3,0.3h0.3l0.3,0.3h0.3h0.3h0.3l0.8-0.3
		l0.3-0.3"/>
	<path id="Layer3_6_MEMBER_2_MEMBER_355_1_STROKES_1_" class="st2" d="M285.4,145.3L285.4,145.3h-0.6l-1.1,0.3l-1.1,0.8l-0.8,1.1
		l-0.8,1.4l-0.3,0.6l-0.3,0.3l-0.3,0.6l-0.3,0.3l-0.3,0.8v0.8l0.3,1.1l0.6,0.8"/>
	<path id="Layer3_6_MEMBER_2_MEMBER_356_1_STROKES_1_" class="st2" d="M280.6,154.1l3.1,1.7"/>
	<path id="Layer3_6_MEMBER_2_MEMBER_357_1_STROKES_1_" class="st2" d="M285.8,145.3l2.5,1.4"/>
	<path id="Layer3_6_MEMBER_2_MEMBER_358_1_STROKES_1_" class="st2" d="M269.7,147L269.7,147h0.6h0.8h0.8l0.3,0.3h0.6l1.7,0.8"/>
	<path id="Layer3_6_MEMBER_2_MEMBER_359_1_STROKES_1_" class="st2" d="M274.6,148.1l2.5,1.4"/>
	<path id="Layer3_6_MEMBER_2_MEMBER_360_1_STROKES_1_" class="st3" d="M247.3,96.1l3.9,2.4"/>
	<path id="Layer3_6_MEMBER_2_MEMBER_361_1_STROKES_1_" class="st3" d="M252.5,99l1.1,0.6"/>
	<path id="Layer3_6_MEMBER_2_MEMBER_362_1_STROKES_1_" class="st3" d="M254.4,100.4l3.9,2.4"/>
	<path id="Layer3_6_MEMBER_2_MEMBER_363_1_STROKES_1_" class="st3" d="M221.5,111l10.5,6.3"/>
	<path id="Layer3_6_MEMBER_2_MEMBER_364_1_STROKES_1_" class="st3" d="M235,118.7l2.5,1.7"/>
	<path id="Layer3_6_MEMBER_2_MEMBER_365_1_STROKES_1_" class="st3" d="M240.4,121.9l10.5,6.3"/>
</g>
</svg>
