<?xml version="1.0" encoding="utf-8"?>
<!-- Generator: Adobe Illustrator 24.1.2, SVG Export Plug-In . SVG Version: 6.00 Build 0)  -->
<svg version="1.1" id="Ebene_1" xmlns="http://www.w3.org/2000/svg" xmlns:xlink="http://www.w3.org/1999/xlink" x="0px" y="0px"
	 viewBox="0 0 349.1 161" style="enable-background:new 0 0 349.1 161;" xml:space="preserve">
<style type="text/css">
	.st0{fill:#FF9900;}
	.st1{fill:#CCCCCC;}
	.st2{fill:#0099FF;}
	.st3{fill:#FF0000;}
	.st4{fill:none;stroke:#000000;stroke-width:0.5;stroke-linecap:round;stroke-linejoin:round;}
	.st5{fill:none;stroke:#000000;stroke-width:0.25;stroke-linecap:round;stroke-linejoin:round;}
	.st6{fill:none;stroke:#222222;stroke-width:0.8;stroke-linejoin:bevel;}
	.st7{fill:none;stroke:#FF9900;stroke-linecap:round;stroke-linejoin:round;}
	.st8{font-family:'ArialMT';}
	.st9{font-size:14px;}
	.st10{font-size:12px;}
</style>
<path class="st0" d="M128,87.8l-1.1-2.1l-2.2-2.8l-1.7-1.4l-1.7-0.9l-0.9-0.2l-0.8-0.1l-0.8,0l-0.7,0.2c-1.3-0.3-2.4-0.3-3.4,0.3
	l-7.8,4.5l-0.9,0.7l-0.6,0.8l-0.1,0.1l-0.5,0.2l-0.8,0.8l-0.5,1l-0.1,0.7l-0.1,0l-0.5,0.5l-0.8,1.4l-0.2,1.1
	c-0.6,0.1-1.2,0.3-1.7,0.6c-0.5,0.3-0.8,0.5-1,0.8c-0.1,0.1-0.2,0.1-0.4,0.1c-1.2,0.4-2.1,0.7-2.6,1c-0.8-0.7-1.6-1-2.4-1
	c-0.9,0-1.6,0.3-2,0.9c-0.2,0.3-0.4,0.5-0.5,0.8l-0.4,0.4l-0.2,0.3L90.6,97v0.6l-1.3,0.6v1.4l1.3,0.8v1.1l0.8,0.4l0,0.6l0,0.3
	L80.5,109l-0.7,0.9l-0.1,0.6v0.7l0.8,1.1l1.8,0.5l-0.2,0.6l0,1.6l0.3,0.4l0.7,0.4l1-0.1l1.2-0.4l0.4-0.4l11.7-6.8l0.8,0.4l0.9,0.1
	l0.8-0.1l0.3-0.2l0.6-0.5l0.4-0.2h0.4l0.2,0.1l1.2,0.7l0,0.8l0.1,0.3l0.5,0.5l0.9,0.3l0.7,0.1h0.4l0.7-0.1l0.9-0.3l0.2-0.2l0.3-0.3
	l0.1-0.3l0-1l0.1-0.1l0.3-0.3l0.3-0.6l0.1-0.3v-0.6l1.3-1.1l0.8,0.1l0.8,0l0.7-0.1l0.2-0.1l0.4,0.1l1.2,0.1l0.6,0l1-0.3l0.5-0.2
	l1.1-0.2l0.6-0.2l7.9-4.5c1-0.5,1.6-1.4,1.9-2.6l0.5-0.2l0.9-1.2l0.4-1.7v-2l-0.4-2.2L128,87.8 M91.5,97.1
	C91.5,97.1,91.5,97.1,91.5,97.1L91.5,97.1C91.4,97.1,91.5,97.1,91.5,97.1z"/>
<path class="st1" d="M179.3,13.6l1.9,3.6l7.2-4.1L183,3.4l-73.2,42.2l42.4,75.6v37.1l4.5,0.7l10.7-6.3l7.3-7.2l5.1-7.4l13.3-4.2
	l3.7-2.8l2.6-3l9.6-2.8l8.1-5.8l9,0V80.1L220,69.2l-7.2,4.1l3,5.3l-0.6,4.7l-48.1,27.7l-4.7-1.6l-14.7-26.3c-0.8,0-1.8-0.3-2.8-0.9
	c-1.7-1-3.1-2.5-4.3-4.6c-0.1-0.1-0.1-0.2-0.1-0.3c-1.1-2-1.7-3.9-1.7-5.8c0-1.3,0.3-2.3,0.8-3l-13.6-24.3l0.8-5.5l47.1-27.2
	L179.3,13.6z"/>
<path class="st2" d="M181.3,17.2l-1.9-3.6l-5.6-1.9l-47.1,27.2l-0.8,5.5l13.6,24.3c-0.5,0.7-0.8,1.7-0.8,3c0,1.9,0.6,3.8,1.7,5.8
	c0,0.1,0.1,0.2,0.1,0.3c1.2,2.1,2.6,3.6,4.3,4.6c1,0.6,2,0.9,2.8,0.9l14.7,26.3l4.7,1.6l48.1-27.7l0.6-4.7l-3-5.3l7.2-4.1l4-2.3
	c1-0.5,1.4-1.6,1.4-3.1c0-1.5-0.5-3.1-1.4-4.7l-24.8-44.2c-0.9-1.6-2.1-2.9-3.4-3.6c-1.3-0.8-2.5-0.9-3.4-0.4l-3.9,2.3L181.3,17.2
	 M175.9,14.4c0.2,0.1,0.4,0.3,0.6,0.6c0.1,0.1,0.1,0.2,0.2,0.3c0.2,0.3,0.3,0.7,0.3,1.1c0,0.3-0.1,0.6-0.3,0.7
	c-0.2,0.1-0.5,0.1-0.8-0.1c-0.3-0.2-0.6-0.5-0.8-0.9c-0.2-0.4-0.3-0.7-0.3-1.1c0-0.3,0.1-0.6,0.3-0.7
	C175.3,14.2,175.5,14.3,175.9,14.4 M204.6,85.4c0,0.3-0.1,0.6-0.2,0.7c-0.1,0.2-0.2,0.3-0.4,0.4l-5.7,3.1h-1.2l-2-1.1l-1-1.9
	l-3.8,2.2l-1.1-1.9l15.5-8.9l1.1,1.9l-2.5,1.5l1,1.9L204.6,85.4z"/>
<path class="st3" d="M204.4,86.2c0.1-0.2,0.2-0.4,0.2-0.7l-0.2-2.2l-1-1.9l2.5-1.5l-1.1-1.9L189.2,87l1.1,1.9l3.8-2.2l1,1.9l2,1.1
	h1.2l5.7-3.1C204.1,86.5,204.3,86.3,204.4,86.2z"/>
<path id="Layer3_6_MEMBER_20_1_STROKES" class="st4" d="M109.7,105.4l0.8,0.1l0.8,0l0.7-0.1l0.7-0.4l0.6-0.5l0.4-0.6l0.3-0.8
	l0.3-1.9l-0.2-2.2l-0.8-2.3l-1.1-2.3l-1.5-2l-1.7-1.6l-1.8-1.1l-1.8-0.5l-0.8,0l-0.7,0.2l-0.7,0.3l-0.5,0.5l-0.8,1.4l-0.2,1.2"/>
<path id="Layer3_6_MEMBER_21_1_STROKES" class="st4" d="M125.6,99.9c1.5-0.9,2.3-2.6,2.3-5.1c0-2.5-0.8-5-2.3-7.6
	c-1.5-2.6-3.3-4.5-5.4-5.8s-4-1.4-5.5-0.6"/>
<path id="Layer3_6_MEMBER_22_1_STROKES" class="st4" d="M125.6,99.9l-7.7,4.4"/>
<path id="Layer3_6_MEMBER_23_1_STROKES" class="st4" d="M114.7,80.9l-7.8,4.5"/>
<path id="Layer3_6_MEMBER_24_1_STROKES" class="st4" d="M127.7,97.4l0.3-0.2l0.9-1.2l0.4-1.7v-2l-0.4-2.2l-0.9-2.2l-1.1-2.1
	l-2.2-2.8l-1.7-1.4l-1.7-0.9l-0.9-0.2l-0.8-0.1l-0.8,0l-0.7,0.1"/>
<path id="Layer3_6_MEMBER_25_1_STROKES" class="st4" d="M111.8,98.8v-0.2l-0.5-1.5l-1-1.9l-1.1-1.2L108,93l-0.8-0.3l-0.8-0.2
	l-0.7,0.1l-0.6,0.3"/>
<path id="Layer3_6_MEMBER_26_1_STROKES" class="st4" d="M115,103.7c1.1-0.8,1.7-2.1,1.7-4.1c-0.1-2-0.7-4-1.9-6
	c-1.1-2-2.5-3.5-4.1-4.5s-3-1.3-4.3-0.9"/>
<path id="Layer3_6_MEMBER_27_1_STROKES" class="st4" d="M116,104.9l1.1-0.2l0.6-0.2l0.4-0.2l0.9-0.7l0.3-0.5l0.5-1.1l0.3-1.3
	l0.1-1.5l-0.2-1.6l-0.6-2.6l-0.7-1.7l-1.9-3.2l-2.4-2.6l-2.7-1.8l-1.3-0.4l-1.3-0.2h-0.6l-1.1,0.3l-0.5,0.3l-0.9,0.7l-0.6,0.8"/>
<path id="Layer3_6_MEMBER_28_1_STROKES" class="st4" d="M97.2,99.9l-0.7-0.2h-0.3l-0.3,0l-0.3,0.1l-0.6,0.8"/>
<path id="Layer3_6_MEMBER_29_1_STROKES" class="st4" d="M97.3,98.7l-0.4-0.2L96,98.2l-0.4,0l-0.4,0l-0.7,0.2l-0.3,0.2L94,98.9"/>
<path id="Layer3_6_MEMBER_30_1_STROKES" class="st4" d="M93,99l-2.5-1.4"/>
<path id="Layer3_6_MEMBER_31_1_STROKES" class="st4" d="M93.7,100.7l-4.4-2.5"/>
<path id="Layer3_6_MEMBER_32_1_STROKES" class="st4" d="M94.9,100.7l-0.2,0.1h-0.5l-0.3,0l-0.2-0.1"/>
<path id="Layer3_6_MEMBER_33_1_STROKES" class="st4" d="M93.6,99.2l-0.2,0"/>
<path id="Layer3_6_MEMBER_34_1_STROKES" class="st4" d="M97.4,100l0.4,0.2l0.7,0.7l1,1.8l0.1,0.4"/>
<path id="Layer3_6_MEMBER_35_1_STROKES" class="st4" d="M101.6,104l2.4,1.4"/>
<path id="Layer3_6_MEMBER_36_1_STROKES" class="st4" d="M100.9,104.9l4.6,2.6"/>
<path id="Layer3_6_MEMBER_37_1_STROKES" class="st4" d="M99.5,103.2l0.1,0.4l0.7,0.9l0.6,0.5"/>
<path id="Layer3_6_MEMBER_38_1_STROKES" class="st4" d="M92.1,102.3l-1.5-0.9"/>
<path id="Layer3_6_MEMBER_39_1_STROKES" class="st4" d="M93.1,101.7l-3.9-2.2"/>
<path id="Layer3_6_MEMBER_40_1_STROKES" class="st4" d="M98.7,107.3l0.5-0.3l0.2-0.2l0.1-0.3"/>
<path id="Layer3_6_MEMBER_41_1_STROKES" class="st4" d="M97.3,108.2l0.8,0.4l0.9,0.1l0.8-0.1l0.3-0.2l0.6-0.5"/>
<path id="Layer3_6_MEMBER_42_1_STROKES" class="st4" d="M101.6,107.8l2.4,1.4"/>
<path id="Layer3_6_MEMBER_43_1_STROKES" class="st4" d="M100.9,106.3l4.6,2.6"/>
<path id="Layer3_6_MEMBER_44_1_STROKES" class="st4" d="M99.7,106.3l0.4-0.2h0.2l0.3,0.1l0.3,0.1"/>
<path id="Layer3_6_MEMBER_45_1_STROKES" class="st4" d="M100.7,107.7l0.3,0h0.4l0.2,0.1"/>
<path id="Layer3_6_MEMBER_46_1_STROKES" class="st4" d="M101.6,96.2l-0.4-0.2l-1.3-0.3l-0.7,0.1L98.8,96"/>
<path id="Layer3_6_MEMBER_47_1_STROKES" class="st4" d="M97.4,96.5l-1-0.6"/>
<path id="Layer3_6_MEMBER_48_1_STROKES" class="st4" d="M101.6,96.2l0.4,0.2l0.9,0.7l0.4,0.5l1.1,1.6l0.5,1.1"/>
<path id="Layer3_6_MEMBER_49_1_STROKES" class="st4" d="M107.6,102.4l0.8,0.5"/>
<path id="Layer3_6_MEMBER_50_1_STROKES" class="st4" d="M105,100.3l0.2,0.4"/>
<path id="Layer3_6_MEMBER_51_1_STROKES" class="st4" d="M98.8,96l-4.3,2.5"/>
<path id="Layer3_6_MEMBER_52_1_STROKES" class="st4" d="M97.3,98.7l1.7,1.5l0.8,1l1.3,2.4l0.6,0.5"/>
<path id="Layer3_6_MEMBER_53_1_STROKES" class="st4" d="M99.9,106.1l0.9-0.5"/>
<path id="Layer3_6_MEMBER_54_1_STROKES" class="st4" d="M104,105.4h1.1l1.5-0.3l0.5-0.2l1-0.8l0.3-0.6l0.1-0.3l-0.1-0.3"/>
<path id="Layer3_6_MEMBER_55_1_STROKES" class="st4" d="M104,106.7h1.1l1.5-0.3l0.5-0.2l0.7-0.4l0.3-0.3l0.2-0.3l0.2-0.7"/>
<path id="Layer3_6_MEMBER_56_1_STROKES" class="st4" d="M104,109.2h1.1l1-0.2l1-0.3l0.7-0.5l0.3-0.3l0.3-0.6l0.1-0.3"/>
<path id="Layer3_6_MEMBER_57_1_STROKES" class="st4" d="M108.4,103.2v1.2"/>
<path id="Layer3_6_MEMBER_58_1_STROKES" class="st4" d="M108.4,106.5v0.6"/>
<path id="Layer3_6_MEMBER_59_1_STROKES" class="st4" d="M91.4,95.9l-0.6,0.5l-0.2,0.3L90.6,97v0.6"/>
<path id="Layer3_6_MEMBER_60_1_STROKES" class="st4" d="M90.6,100.3v1.1"/>
<path id="Layer3_6_MEMBER_61_1_STROKES" class="st4" d="M90.6,97.6v1.3"/>
<path id="Layer3_6_MEMBER_62_1_STROKES" class="st4" d="M107.6,103.1v0.5l-0.2,0.5l-0.5,0.3l-0.7,0.3l-0.7,0.1l-1.6-0.2l-0.6-0.2
	l-0.5-0.4l-0.2-0.4"/>
<path id="Layer3_6_MEMBER_63_1_STROKES" class="st4" d="M102.6,102.5v1"/>
<path id="Layer3_6_MEMBER_64_1_STROKES" class="st4" d="M107.6,102.5v0.6"/>
<path id="Layer3_6_MEMBER_65_1_STROKES" class="st4" d="M103.7,102.1l0.6,0.4"/>
<path id="Layer3_6_MEMBER_66_1_STROKES" class="st4" d="M106.1,102.6l0.5-0.3"/>
<path id="Layer3_6_MEMBER_67_1_STROKES" class="st4" d="M106.3,103.7l0.8-0.4l0.2-0.2l0.2-0.4l0-0.2"/>
<path id="Layer3_6_MEMBER_68_1_STROKES" class="st4" d="M102.6,102.3l0,0.2l0,0.2l0.1,0.2l0.1,0.2l0.4,0.4l0.6,0.2"/>
<path id="Layer3_6_MEMBER_69_1_STROKES" class="st4" d="M107.4,102.1c-0.2-0.4-0.5-0.7-1-1c-0.4-0.2-0.9-0.3-1.4-0.3
	c-0.4,0-0.9,0.1-1.3,0.3c-0.4,0.3-0.7,0.6-1,1"/>
<path id="Layer3_6_MEMBER_70_1_STROKES" class="st4" d="M105.1,101.7l0.4,0.2l0.5,0.7"/>
<path id="Layer3_6_MEMBER_71_1_STROKES" class="st4" d="M105.8,101.3l0.3,0.3l0.4,0.6"/>
<path id="Layer3_6_MEMBER_72_1_STROKES" class="st4" d="M104.6,101.3l-0.4,0.3l-0.5,0.5"/>
<path id="Layer3_6_MEMBER_73_1_STROKES" class="st4" d="M105.1,101.7l-0.8,0.8"/>
<path id="Layer3_6_MEMBER_74_1_STROKES" class="st4" d="M95,98.2l-0.7,0.1h-0.8l-0.8-0.2l-1.1-0.6L91.4,97"/>
<path id="Layer3_6_MEMBER_75_1_STROKES" class="st4" d="M96.4,96.7v0.5l-0.2,0.4"/>
<path id="Layer3_6_MEMBER_76_1_STROKES" class="st4" d="M105.8,101.3h0.5"/>
<path id="Layer3_6_MEMBER_77_1_STROKES" class="st4" d="M91.4,96v1"/>
<path id="Layer3_6_MEMBER_78_1_STROKES" class="st4" d="M96.4,96v0.6"/>
<path id="Layer3_6_MEMBER_79_1_STROKES" class="st4" d="M92.6,95.7l0.5,0.3"/>
<path id="Layer3_6_MEMBER_80_1_STROKES" class="st4" d="M94.9,96.2l0.5-0.3"/>
<path id="Layer3_6_MEMBER_81_1_STROKES" class="st4" d="M95,97.3l0.5-0.2l0.5-0.3l0.3-0.4l0.1-0.4"/>
<path id="Layer3_6_MEMBER_82_1_STROKES" class="st4" d="M91.5,95.6L91.4,96l0.1,0.5l0.4,0.3l0.5,0.3l0.3,0.1"/>
<path id="Layer3_6_MEMBER_83_1_STROKES" class="st4" d="M96.3,95.7c-0.3-0.4-0.6-0.7-1-1c-0.4-0.3-0.9-0.4-1.4-0.4
	c-0.4,0-0.9,0.1-1.3,0.4c-0.4,0.2-0.7,0.5-1,1"/>
<path id="Layer3_6_MEMBER_84_1_STROKES" class="st4" d="M93.9,95.3l0.4,0.2l0.3,0.3l0.2,0.3"/>
<path id="Layer3_6_MEMBER_85_1_STROKES" class="st4" d="M94.6,94.9l0.3,0.3l0.4,0.7"/>
<path id="Layer3_6_MEMBER_86_1_STROKES" class="st4" d="M93.4,94.8l-0.6,0.6l-0.2,0.3"/>
<path id="Layer3_6_MEMBER_87_1_STROKES" class="st4" d="M93.9,95.3l-0.3,0.2l-0.3,0.2L93.1,96"/>
<path id="Layer3_6_MEMBER_88_1_STROKES" class="st4" d="M107.6,109.3l-0.1,0.3l-0.3,0.3l-0.2,0.2l-0.9,0.3l-0.7,0.1H105l-0.7-0.1
	l-0.9-0.3l-0.5-0.5l-0.1-0.3"/>
<path id="Layer3_6_MEMBER_89_1_STROKES" class="st4" d="M94.6,94.9h0.5"/>
<path id="Layer3_6_MEMBER_90_1_STROKES" class="st4" d="M107.6,109.1v-0.8"/>
<path id="Layer3_6_MEMBER_91_1_STROKES" class="st4" d="M106.5,110.3v-1.1"/>
<path id="Layer3_6_MEMBER_92_1_STROKES" class="st4" d="M103.9,110.2v-1"/>
<path id="Layer3_6_MEMBER_93_1_STROKES" class="st4" d="M106.7,108.9l-0.2,0.3"/>
<path id="Layer3_6_MEMBER_94_1_STROKES" class="st4" d="M115,103.6l-2.3,1.3"/>
<path id="Layer3_6_MEMBER_95_1_STROKES" class="st4" d="M106.3,88.1l-2.3,1.4"/>
<path id="Layer3_6_MEMBER_96_1_STROKES" class="st4" d="M100.8,104.8v1.3"/>
<path id="Layer3_6_MEMBER_97_1_STROKES" class="st4" d="M107,101.5l4.8-2.8l2.5,1.5"/>
<path id="Layer3_6_MEMBER_98_1_STROKES" class="st4" d="M101.8,93l1.6,1"/>
<path id="Layer3_6_MEMBER_99_1_STROKES" class="st4" d="M105.5,107.6v1.3"/>
<path id="Layer3_6_MEMBER_100_1_STROKES" class="st4" d="M90.6,97.6l-1.3,0.6v1.4"/>
<path id="Layer3_6_MEMBER_101_1_STROKES" class="st4" d="M104,106.7v-1.3"/>
<path id="Layer3_6_MEMBER_102_1_STROKES" class="st4" d="M96.1,95.4l5.8-2.4"/>
<path id="Layer3_6_MEMBER_103_1_STROKES" class="st4" d="M105.5,107.6l8.8-7.4"/>
<path id="Layer3_6_MEMBER_104_1_STROKES" class="st4" d="M105.5,108.9l8.8-7.5"/>
<path id="Layer3_6_MEMBER_105_1_STROKES" class="st4" d="M93.6,100.7v0.8"/>
<path id="Layer3_6_MEMBER_106_1_STROKES" class="st4" d="M91.4,102.7l0-0.2"/>
<path id="Layer3_6_MEMBER_107_1_STROKES" class="st4" d="M102.8,109.1v-0.6"/>
<path id="Layer3_6_MEMBER_108_1_STROKES" class="st4" d="M112.3,105.2l0.4,0.1l1.2,0.1l0.6,0l1-0.3l0.4-0.2l0.4-0.4l0.7-0.8l0.5-1.1
	l0.3-2l-0.2-2.3l-0.8-2.5l-1.1-2.5l-2.1-2.9l-1.9-1.8l-1.9-1.2l-1.3-0.5l-1.2-0.2h-0.6l-0.6,0.1l-0.5,0.2l-0.9,0.5l-0.8,0.8l-0.5,1
	l-0.2,0.6"/>
<path id="Layer3_6_MEMBER_109_1_STROKES" class="st4" d="M117.7,103.8c1.3-0.9,1.9-2.5,1.9-4.8c-0.1-2.3-0.8-4.6-2.1-7.1
	c-1.4-2.5-3.2-4.3-5.2-5.5c-2.1-1.1-3.8-1.3-5.2-0.5"/>
<path id="Layer3_6_MEMBER_110_1_STROKES" class="st4" d="M117.7,103.8l-2.2,1.2"/>
<path id="Layer3_6_MEMBER_111_1_STROKES" class="st4" d="M107.1,85.9l-1.8,1"/>
<path id="Layer3_6_MEMBER_112_1_STROKES" class="st4" d="M121.9,102.1c1.5-0.9,2.3-2.5,2.3-5c0-2.5-0.8-5-2.3-7.6
	c-1.5-2.6-3.3-4.5-5.4-5.8c-2.1-1.2-3.9-1.5-5.4-0.7"/>
<path id="Layer3_6_MEMBER_113_1_STROKES" class="st4" d="M91.3,102.5v-0.6"/>
<path id="Layer3_6_MEMBER_114_1_STROKES" class="st4" d="M101.3,103l1.2-0.7"/>
<path id="Layer3_6_MEMBER_115_1_STROKES" class="st4" d="M105.5,92.8l-5.1,2.9"/>
<path id="Layer3_6_MEMBER_116_1_STROKES" class="st4" d="M96.5,99.8l-16,9.2"/>
<path id="Layer3_6_MEMBER_117_1_STROKES" class="st4" d="M99,107.1l-13.3,7.8"/>
<path id="Layer3_6_MEMBER_118_1_STROKES" class="st4" d="M80.5,109l-0.7,0.9l-0.1,0.6v0.7l0.8,1.1l1.8,0.5l1.9,0l0.6,0.1l0.5,0.4
	l0.4,0.6l0,1l-0.4,0.4l-1.2,0.4l-1,0.1l-0.7-0.4l-0.3-0.4l0-1.6l0.2-0.6"/>
<path id="Layer3_6_MEMBER_119_1_STROKES" class="st4" d="M113.7,43.4l43.1,76.8"/>
<path id="Layer3_6_MEMBER_120_1_STROKES" class="st4" d="M109.8,45.6L183,3.4l5.5,9.7"/>
<path id="Layer3_6_MEMBER_121_1_STROKES" class="st4" d="M220,69.2l6.1,10.9"/>
<path id="Layer3_6_MEMBER_122_1_STROKES" class="st4" d="M156.8,120.2l69.3-40"/>
<path id="Layer3_6_MEMBER_123_1_STROKES" class="st4" d="M109.8,45.6l42.4,75.6"/>
<path id="Layer3_6_MEMBER_124_1_STROKES" class="st4" d="M156.8,120.2V159"/>
<path id="Layer3_6_MEMBER_125_1_STROKES" class="st4" d="M226.1,80.1v39.2"/>
<path id="Layer3_6_MEMBER_126_1_STROKES" class="st4" d="M152.2,121.2v37.1"/>
<path id="Layer3_6_MEMBER_127_1_STROKES" class="st4" d="M147.7,83.2l14.7,26.3"/>
<path id="Layer3_6_MEMBER_128_1_STROKES" class="st4" d="M128.1,43.2l13.5,24"/>
<path id="Layer3_6_MEMBER_129_1_STROKES" class="st4" d="M151.4,84.6l13.2,23.6"/>
<path id="Layer3_6_MEMBER_130_1_STROKES" class="st4" d="M169.4,109.8l-4.7-1.6"/>
<path id="Layer3_6_MEMBER_131_1_STROKES" class="st4" d="M167.7,110.8L206,88.6"/>
<path id="Layer3_6_MEMBER_132_1_STROKES" class="st4" d="M205.7,88.9l9.5-5.5"/>
<path id="Layer3_6_MEMBER_133_1_STROKES" class="st4" d="M179.3,13.6l1.9,3.6"/>
<path id="Layer3_6_MEMBER_134_1_STROKES" class="st4" d="M212.8,73.3l3,5.3"/>
<path id="Layer3_6_MEMBER_135_1_STROKES" class="st4" d="M177.3,85.8c0.9,1.6,2.1,2.8,3.4,3.6c1.3,0.8,2.5,0.9,3.4,0.4"/>
<path id="Layer3_6_MEMBER_136_1_STROKES" class="st4" d="M152.5,33.8c-0.9,0.5-1.4,1.6-1.4,3.1c0,1.5,0.4,3.1,1.3,4.7"/>
<path id="Layer3_6_MEMBER_137_1_STROKES" class="st4" d="M152.5,33.8l39.9-23"/>
<path id="Layer3_6_MEMBER_138_1_STROKES" class="st4" d="M152.5,41.6l7.6,13.5"/>
<path id="Layer3_6_MEMBER_139_1_STROKES" class="st4" d="M169.9,72.7l7.3,13.1"/>
<path id="Layer3_6_MEMBER_140_1_STROKES" class="st4" d="M138.4,43.3c-0.9,0.5-1.4,1.6-1.4,3.1s0.4,3.1,1.3,4.7"/>
<path id="Layer3_6_MEMBER_141_1_STROKES" class="st4" d="M138.4,43.3l12.9-7.4"/>
<path id="Layer3_6_MEMBER_142_1_STROKES" class="st4" d="M161.9,93.4c1,1.6,2.1,2.9,3.5,3.7c1.4,0.8,2.5,0.9,3.4,0.3"/>
<path id="Layer3_6_MEMBER_143_1_STROKES" class="st4" d="M168.9,97.3l12.8-7.4"/>
<path id="Layer3_6_MEMBER_144_1_STROKES" class="st4" d="M138.3,51.2l7.6,13.5"/>
<path id="Layer3_6_MEMBER_145_1_STROKES" class="st4" d="M154.4,79.8l7.5,13.5"/>
<path id="Layer3_6_MEMBER_146_1_STROKES" class="st4" d="M199.2,14.8c-0.9-1.6-2.1-2.9-3.4-3.6c-1.4-0.8-2.5-0.9-3.5-0.4"/>
<path id="Layer3_6_MEMBER_147_1_STROKES" class="st4" d="M224,66.9c1-0.5,1.4-1.6,1.4-3.1c0-1.5-0.5-3.1-1.4-4.7"/>
<path id="Layer3_6_MEMBER_148_1_STROKES" class="st4" d="M199.3,14.9L224,59"/>
<path id="Layer3_6_MEMBER_149_1_STROKES" class="st4" d="M181.2,85c0.7,1,1.5,1.7,2.4,2.3c0.9,0.6,1.7,0.9,2.5,1"/>
<path id="Layer3_6_MEMBER_150_1_STROKES" class="st4" d="M154.8,33c-0.3,0.7-0.5,1.5-0.4,2.5c0.1,1,0.3,2,0.8,3.1"/>
<path id="Layer3_6_MEMBER_151_1_STROKES" class="st4" d="M156.9,41.8l22.5,40"/>
<path id="Layer3_6_MEMBER_152_1_STROKES" class="st4" d="M161.7,34.7c-0.8-1-1.6-1.7-2.5-2.3c-0.9-0.5-1.7-0.8-2.5-0.7"/>
<path id="Layer3_6_MEMBER_153_1_STROKES" class="st4" d="M161.5,36.7l-5,2.9"/>
<path id="Layer3_6_MEMBER_154_1_STROKES" class="st4" d="M188.3,86.9c0.3-0.7,0.5-1.5,0.4-2.5c-0.1-1-0.3-2-0.8-3"/>
<path id="Layer3_6_MEMBER_155_1_STROKES" class="st4" d="M166.6,43.1l18.1,32.2"/>
<path id="Layer3_6_MEMBER_156_1_STROKES" class="st4" d="M184.2,89.8L224,66.9"/>
<path id="Layer3_6_MEMBER_157_1_STROKES" class="st4" d="M185.9,80.7l-4.4,2.5"/>
<path id="Layer3_6_MEMBER_158_1_STROKES" class="st4" d="M128.1,43.2l0.8-5.5"/>
<path id="Layer3_6_MEMBER_159_1_STROKES" class="st4" d="M128.1,43.2l-2.2,1.2l0.8-5.5l47.1-27.2"/>
<path id="Layer3_6_MEMBER_160_1_STROKES" class="st4" d="M164.7,108.2l-2.2,1.2"/>
<path id="Layer3_6_MEMBER_161_1_STROKES" class="st4" d="M167.2,111.1l-4.7-1.6"/>
<path id="Layer3_6_MEMBER_162_1_STROKES" class="st4" d="M169.4,109.8l-2.2,1.2"/>
<path id="Layer3_6_MEMBER_163_1_STROKES" class="st4" d="M215.3,83.4l0.6-4.7"/>
<path id="Layer3_6_MEMBER_164_1_STROKES" class="st4" d="M179.3,13.6l-5.6-1.9"/>
<path id="Layer3_6_MEMBER_165_1_STROKES" class="st4" d="M132.1,42.4c-0.3-0.2-0.6-0.5-0.8-0.9c-0.2-0.4-0.3-0.7-0.3-1.1
	s0.1-0.6,0.3-0.7c0.2-0.2,0.5-0.1,0.8,0c0.3,0.2,0.6,0.5,0.8,0.9c0.2,0.4,0.3,0.7,0.3,1.1c0,0.4-0.1,0.6-0.3,0.7
	C132.7,42.6,132.4,42.6,132.1,42.4z"/>
<path id="Layer3_6_MEMBER_166_1_STROKES" class="st4" d="M175.9,14.4c0.3,0.2,0.6,0.5,0.8,0.9c0.2,0.3,0.3,0.7,0.3,1.1
	c0,0.3-0.1,0.6-0.3,0.7c-0.2,0.1-0.5,0.1-0.8-0.1c-0.3-0.2-0.6-0.5-0.8-0.9c-0.2-0.4-0.3-0.7-0.3-1.1c0-0.3,0.1-0.6,0.3-0.7
	C175.3,14.2,175.5,14.3,175.9,14.4z"/>
<path id="Layer3_6_MEMBER_167_1_STROKES" class="st4" d="M168.5,104.4c-0.3-0.2-0.6-0.2-0.8-0.1c-0.2,0.1-0.3,0.4-0.3,0.7
	c0,0.3,0.1,0.7,0.3,1c0.2,0.4,0.5,0.7,0.8,0.9c0.3,0.2,0.5,0.2,0.8,0.1c0.2-0.1,0.3-0.4,0.4-0.7c0-0.3-0.1-0.7-0.3-1.1
	C169.1,104.8,168.8,104.6,168.5,104.4z"/>
<path id="Layer3_6_MEMBER_168_1_STROKES" class="st4" d="M213,81.6c-0.2,0.1-0.5,0.1-0.8,0c-0.3-0.2-0.6-0.5-0.8-0.9
	c-0.2-0.4-0.3-0.7-0.3-1.1c0-0.3,0.1-0.6,0.3-0.8c0.2-0.1,0.5-0.1,0.8,0.1c0.3,0.2,0.5,0.5,0.8,0.9c0.2,0.4,0.3,0.7,0.3,1.1
	C213.3,81.3,213.2,81.5,213,81.6z"/>
<path id="Layer3_6_MEMBER_169_1_STROKES" class="st4" d="M166.1,34l28.7-16.5"/>
<path id="Layer3_6_MEMBER_170_1_STROKES" class="st4" d="M190.7,78l28.1-16.2"/>
<path id="Layer3_6_MEMBER_171_1_STROKES" class="st4" d="M164.6,81.4l2.8-10.4l-7.6-13.2L149.3,55l-2.4,9"/>
<path id="Layer3_6_MEMBER_172_1_STROKES" class="st4" d="M155.7,79.1l8.9,2.4"/>
<path id="Layer3_6_MEMBER_173_1_STROKES" class="st4" d="M162,76.8c1.4-0.8,2-2.3,2-4.5c0-2.3-0.7-4.6-2-6.9c-1.4-2.3-3-4-4.9-5.2
	c-1.9-1.1-3.6-1.3-4.9-0.6"/>
<path id="Layer3_6_MEMBER_174_1_STROKES" class="st4" d="M160.3,77.8c1.4-0.8,2-2.3,2-4.6c0-2.3-0.7-4.5-2-6.9
	c-1.4-2.4-3.1-4.1-5-5.3c-1.9-1.1-3.6-1.3-4.9-0.5c-0.9,0.5-1.5,1.3-1.8,2.5"/>
<path id="Layer3_6_MEMBER_175_1_STROKES" class="st4" d="M157.2,78.1c0.6,0.1,1.1,0.2,1.6,0.1c0.5-0.1,1-0.2,1.4-0.5"/>
<path id="Layer3_6_MEMBER_176_1_STROKES" class="st4" d="M160.3,77.8l1.7-1"/>
<path id="Layer3_6_MEMBER_177_1_STROKES" class="st4" d="M150.3,60.6l1.7-1"/>
<path id="Layer3_6_MEMBER_178_1_STROKES" class="st4" d="M166.6,80.3l2.9-10.4l-7.7-13.2l-10.4-2.8"/>
<path id="Layer3_6_MEMBER_179_1_STROKES" class="st4" d="M169.5,69.9l-2,1.1"/>
<path id="Layer3_6_MEMBER_180_1_STROKES" class="st4" d="M161.8,63.1l-2,1.1"/>
<path id="Layer3_6_MEMBER_181_1_STROKES" class="st4" d="M151.4,53.9l-2,1.1"/>
<path id="Layer3_6_MEMBER_182_1_STROKES" class="st4" d="M166.6,80.3l-2,1.1"/>
<path id="Layer3_6_MEMBER_183_1_STROKES" class="st4" d="M159.7,76.7c1.2-0.7,1.8-2,1.8-4c0-2-0.6-4-1.8-6.1
	c-1.2-2.1-2.7-3.6-4.4-4.6c-1.7-1-3.1-1.1-4.4-0.4"/>
<path id="Layer3_6_MEMBER_184_1_STROKES" class="st4" d="M140.5,67.7c1.2-0.7,2.7-0.5,4.4,0.5c1.7,1,3.1,2.5,4.3,4.5
	c1.2,2.1,1.8,4.1,1.8,6c0,1.9-0.6,3.2-1.8,3.9c-1.2,0.7-2.6,0.6-4.3-0.4c-1.7-1-3.1-2.5-4.3-4.6c-1.2-2.1-1.8-4.1-1.8-6
	C138.8,69.8,139.4,68.4,140.5,67.7z"/>
<path id="Layer3_6_MEMBER_185_1_STROKES" class="st4" d="M149.2,82.7l10.4-5.9"/>
<path id="Layer3_6_MEMBER_186_1_STROKES" class="st4" d="M140.6,67.7l10.4-6"/>
<path id="Layer3_6_MEMBER_187_1_STROKES" class="st4" d="M139.9,72.3c0,1.6,0.4,3.3,1.4,4.9c1,1.7,2.2,3,3.6,3.8
	c1.4,0.8,2.5,1,3.5,0.4c1-0.6,1.5-1.7,1.5-3.3c0-1.6-0.5-3.3-1.5-4.9c-1-1.7-2.1-3-3.5-3.8c-1.4-0.8-2.6-0.9-3.6-0.3
	C140.4,69.6,139.9,70.7,139.9,72.3z"/>
<path id="Layer3_6_MEMBER_188_1_STROKES" class="st4" d="M169.9,78.3c-0.2-3.3-1.2-6.6-3.2-10c-1.8-3.2-4.1-5.7-6.7-7.5"/>
<path id="Layer3_6_MEMBER_189_1_STROKES" class="st4" d="M205.8,79.9l-1.1-1.9L189.2,87l1.1,1.9L205.8,79.9z"/>
<path id="Layer3_6_MEMBER_190_1_STROKES" class="st4" d="M193.8,84.3l1,1.9"/>
<path id="Layer3_6_MEMBER_191_1_STROKES" class="st4" d="M201.3,80l1,1.9"/>
<path id="Layer3_6_MEMBER_192_1_STROKES" class="st4" d="M194,86.7l1,1.9"/>
<path id="Layer3_6_MEMBER_193_1_STROKES" class="st4" d="M203.3,81.3l1.1,1.9"/>
<path id="Layer3_6_MEMBER_194_1_STROKES" class="st4" d="M125.9,44.4l13.6,24.3"/>
<path id="Layer3_6_MEMBER_195_1_STROKES" class="st4" d="M226.1,119.3l-9,0l-8.1,5.8l-9.6,2.8l-2.6,3l-3.7,2.8l-13.3,4.2l-5.1,7.4
	l-7.3,7.2l-10.7,6.3l-4.5-0.7"/>
<path id="Layer3_6_MEMBER_196_1_STROKES" class="st4" d="M148,65.6c-0.2,0.1-0.5,0.2-0.9,0.2c-0.3,0-0.6-0.1-0.9-0.2
	c-0.3-0.1-0.4-0.3-0.4-0.5c0-0.2,0.1-0.4,0.4-0.5c0.3-0.1,0.6-0.2,0.9-0.2c0.4,0,0.7,0.1,0.9,0.2c0.3,0.2,0.4,0.4,0.4,0.5
	C148.3,65.2,148.2,65.4,148,65.6z"/>
<path id="Layer3_6_MEMBER_197_1_STROKES" class="st4" d="M145.8,67c0,0.2,0.2,0.3,0.4,0.5c0.2,0.1,0.5,0.2,0.9,0.2
	c0.4,0,0.7-0.1,0.9-0.2c0.3-0.1,0.4-0.3,0.4-0.5"/>
<path id="Layer3_6_MEMBER_198_1_STROKES" class="st4" d="M145.8,67v-2"/>
<path id="Layer3_6_MEMBER_199_1_STROKES" class="st4" d="M148.3,67v-2"/>
<path id="Layer3_6_MEMBER_200_1_STROKES" class="st4" d="M152.7,84l-2,1.1l-1.4-2.4l2-1.1L152.7,84z"/>
<path id="Layer3_6_MEMBER_206_1_STROKES" class="st5" d="M127.9,84.6l6.9-3.9"/>
<path id="Layer3_6_MEMBER_207_1_STROKES" class="st5" d="M136.5,79.7l1.7-1"/>
<path id="Layer3_6_MEMBER_208_1_STROKES" class="st5" d="M139.9,77.7l6.8-3.9"/>
<path id="Layer3_6_MEMBER_209_1_STROKES" class="st4" d="M204.4,83.2l0.2,2.2"/>
<path id="Layer3_6_MEMBER_210_1_STROKES" class="st4" d="M204,86.6l-5.7,3.1"/>
<path id="Layer3_6_MEMBER_211_1_STROKES" class="st4" d="M197.1,89.7l-2-1.1"/>
<path id="Layer3_6_MEMBER_212_1_STROKES" class="st4" d="M203.9,86.6c0.2-0.1,0.3-0.2,0.4-0.4c0.1-0.2,0.2-0.3,0.2-0.6"/>
<path class="st3" d="M226.8,98.9l3.1-10.2l-8.7-2.7l1.4-4.4l-12.3,6.5l6.5,12.4l1.3-4.5L226.8,98.9z"/>
<path id="Layer3_8_MEMBER_1_1_STROKES" class="st6" d="M210.6,88.4l12.3-6.5"/>
<path id="Layer3_8_MEMBER_2_1_STROKES" class="st6" d="M210.6,88.4l6.5,12.3"/>
<path id="Layer3_8_MEMBER_3_1_STROKES" class="st6" d="M218.4,96.3l-1.3,4.5"/>
<path id="Layer3_8_MEMBER_4_1_STROKES" class="st6" d="M227.1,99.1l3.1-10.2l-8.6-2.7l1.3-4.3"/>
<path id="Layer3_8_MEMBER_5_1_STROKES" class="st6" d="M227.1,99.1l-8.7-2.8"/>
<g transform="matrix( 1, 0, 0, 1, 0,0) ">
	<g>
		<path id="Layer3_9_MEMBER_1_1_STROKES" class="st7" d="M95.3,55.9v27.8h-84V55.9H95.3z"/>
	</g>
</g>
<text transform="matrix(1 0 0 1 17.3046 75.2765)" class="st8 st9">3133-P1-A1</text>
<text transform="matrix(1 0 0 1 235.008 98.7757)" class="st8 st10">RESET BUTTON</text>
</svg>
