<?xml version="1.0" encoding="utf-8"?>
<!-- Generator: Adobe Illustrator 24.1.2, SVG Export Plug-In . SVG Version: 6.00 Build 0)  -->
<svg version="1.1" id="Ebene_1" xmlns="http://www.w3.org/2000/svg" xmlns:xlink="http://www.w3.org/1999/xlink" x="0px" y="0px"
	 viewBox="0 0 350 369.4" style="enable-background:new 0 0 350 369.4;" xml:space="preserve">
<style type="text/css">
	.st0{fill:#B2B2B2;}
	.st1{fill:#00A0C6;}
	.st2{fill:#FFFFFF;}
	.st3{fill:#448ECC;}
	.st4{fill:#9A9999;}
	.st5{fill:#E7E6E6;}
	.st6{fill:none;stroke:#B2B2B2;stroke-width:0.5;stroke-miterlimit:5;}
	.st7{fill:#020203;}
	.st8{font-family:'ArialMT';}
	.st9{font-size:22.8409px;}
	.st10{fill:none;}
	.st11{font-size:12px;}
	.st12{fill:#009FE3;}
	.st13{font-family:'Tahoma';}
	.st14{font-size:14px;}
	.st15{font-size:15px;}
	.st16{fill:#010000;}
	.st17{fill:none;stroke:#1D70B7;stroke-width:2;stroke-linecap:round;stroke-linejoin:round;}
	.st18{fill:#1D70B7;}
	.st19{fill:#009540;}
	.st20{fill:none;stroke:#009540;stroke-width:2;stroke-linecap:round;stroke-linejoin:round;}
	.st21{fill:#E42320;}
	.st22{fill:none;stroke:#E42320;stroke-width:2;stroke-linecap:round;stroke-linejoin:round;}
	.st23{fill:#E20613;}
	.st24{font-size:16px;}
	.st25{fill:#009EE2;}
</style>
<g>
	<g transform="matrix( 1, 0, 0, 1, 0,0) ">
		<g>
			<g id="Layer3_0_FILL">
				<path class="st0" d="M46.4,69.1h76.1v-1.3H42.1v292.5h6.3V108h-2.1V69.1H46.4z"/>
			</g>
		</g>
	</g>
	<g transform="matrix( 1, 0, 0, 1, 0,0) ">
		<g>
			<g id="Layer3_2_MEMBER_0_MEMBER_0_FILL">
				<path class="st1" d="M165.8,68.4h-43.3v291.7h42.8L165.8,68.4z"/>
			</g>
		</g>
	</g>
	<g transform="matrix( 1, 0, 0, 1, 0,0) ">
		<g>
			<g id="Layer3_2_MEMBER_0_MEMBER_1_FILL">
				<path class="st2" d="M124.3,166.1v76.4h39.4v-76.4H124.3z"/>
			</g>
		</g>
	</g>
	<g transform="matrix( 1, 0, 0, 1, 0,0) ">
		<g>
			<g id="Layer3_2_MEMBER_0_MEMBER_2_FILL">
				<path class="st2" d="M163.7,244.8h-39.4v104.9h39.4V244.8z"/>
			</g>
		</g>
	</g>
	<g transform="matrix( 1, 0, 0, 1, 0,0) ">
		<g>
			<g id="Layer3_2_MEMBER_0_MEMBER_3_FILL">
				<path class="st2" d="M163.7,360.1v-8.5h-39.4v8.5H163.7z"/>
			</g>
		</g>
	</g>
	<g transform="matrix( 1, 0, 0, 1, 0,0) ">
		<g>
			<g id="Layer3_2_MEMBER_0_MEMBER_4_FILL">
				<path class="st2" d="M124.3,110.5v53.6h39.4v-53.6C163.7,110.5,124.3,110.5,124.3,110.5z"/>
			</g>
		</g>
	</g>
	<g transform="matrix( 1, 0, 0, 1, 0,0) ">
		<g>
			<g id="Layer3_2_MEMBER_0_MEMBER_5_FILL">
				<path class="st2" d="M163.7,108.5v-40h-39.4v40.1L163.7,108.5L163.7,108.5z"/>
			</g>
		</g>
	</g>
	<g transform="matrix( 1, 0, 0, 1, 0,0) ">
		<g>
			<g id="Layer3_2_MEMBER_2_MEMBER_0_FILL">
				<path class="st3" d="M84.6,65.3l14-14l-14.8,0.3l-13.2-0.2L84.6,65.3z"/>
			</g>
		</g>
	</g>
	<g transform="matrix( 1, 0, 0, 1, 0,0) ">
		<g>
			<g id="Layer3_2_MEMBER_3_MEMBER_0_FILL">
				<path class="st3" d="M130.6,51.4l14,13.9l14-14l-14.8,0.3L130.6,51.4z"/>
			</g>
		</g>
	</g>
	<g transform="matrix( 1, 0, 0, 1, 0,0) ">
		<g>
			<g id="Layer3_2_MEMBER_5_MEMBER_0_MEMBER_0_FILL">
				<path class="st4" d="M53.8,210.4h-3.5v20h3.5c0-0.2,0-0.4,0-0.6V210.4 M88.1,209.5h-4.3V230h4.3V209.5 M118.2,204.6v27.9h3.7
					v-27.9H118.2z"/>
			</g>
		</g>
	</g>
	<g transform="matrix( 1, 0, 0, 1, 0,0) ">
		<g>
			<g id="Layer3_2_MEMBER_5_MEMBER_0_MEMBER_0_MEMBER_0_FILL">
				<path class="st5" d="M83.8,209.5h4.3V236l0.4,1.9l0.8,1.7l1.3,1.6l1.6,1.4H114l0.2-0.1l1.4-1.3l2.1-3.3l0.5-1.9v-34.2H53.8v28
					c0,0.3,0,0.5,0,0.6v5.6l0.5,1.9l0.8,1.7l2.6,2.9l0.1,0.1h21.9l1.6-1.4l2.1-3.3l0.5-1.9L83.8,209.5L83.8,209.5z"/>
			</g>
		</g>
	</g>
	<g transform="matrix( 1, 0, 0, 1, 0,0) ">
		<g>
			<path id="Layer3_2_MEMBER_5_MEMBER_0_MEMBER_0_MEMBER_1_MEMBER_0_1_STROKES" class="st6" d="M118.2,204.6h3.7v27.9h-3.7v3.4
				l-0.5,1.9l-2.1,3.3l-1.4,1.3l-0.2,0.1H92.2l-1.6-1.4l-1.3-1.6l-0.8-1.7l-0.4-1.9V230h-4.3v5.9l-0.5,1.9l-2.1,3.3l-1.6,1.4H57.8
				l-0.1-0.1l-2.6-2.9l-0.8-1.7l-0.5-1.9v-5.6h-3.5v-20h3.5v-8.6h32.1h32.3V204.6V229v3.5 M88.1,230v-0.8v-19.8h-2.2h-2.1v19.9v0.7
				 M85.9,209.5v-7.8 M79.6,242.6V235H57.8h-0.1v7.5 M114.2,242.5V235H114H92.2c0,0,0,0,0.1,0v7.5 M79.6,234.9
				c2.6-1.2,3.9-3,4.2-5.6 M92.2,235c-2.5-1.5-3.8-3.5-4-5.8 M118.2,229.1c-0.1,1-0.4,2-0.9,3c-0.8,1.3-1.8,2.3-3.2,2.9 M53.8,210.4
				v19.4c0,0.3,0,0.5,0,0.6c0.5,2,1.9,3.5,4,4.6"/>
		</g>
	</g>
	<g transform="matrix( 1, 0, 0, 1, 0,0) ">
		<g>
			<path id="Layer3_2_MEMBER_5_MEMBER_0_MEMBER_0_MEMBER_1_MEMBER_0_MEMBER_0_1_STROKES" class="st6" d="M117.9,229.4
				c-10,0.8-19.9,0.8-29.7,0"/>
		</g>
	</g>
	<g transform="matrix( 1, 0, 0, 1, 0,0) ">
		<g>
			<path id="Layer3_2_MEMBER_5_MEMBER_0_MEMBER_0_MEMBER_1_MEMBER_0_MEMBER_1_1_STROKES" class="st6" d="M83.7,229.4
				c-10,0.8-19.9,0.8-29.7,0"/>
		</g>
	</g>
	<g transform="matrix( 1, 0, 0, 1, 0,0) ">
		<g>
			<g id="Layer3_2_MEMBER_5_MEMBER_0_MEMBER_1_FILL">
				<path class="st4" d="M53.5,157.7H50v20h3.5c0-0.2,0-0.4,0-0.7V157.7 M87.8,156.8h-4.3v20.6h4.3V156.8 M121.6,179.8v-27.9h-3.7
					v27.9H121.6z"/>
			</g>
		</g>
	</g>
	<g transform="matrix( 1, 0, 0, 1, 0,0) ">
		<g>
			<g id="Layer3_2_MEMBER_5_MEMBER_0_MEMBER_1_MEMBER_0_FILL">
				<path class="st5" d="M83.5,156.8h4.3v26.5l0.4,1.9l0.8,1.6l1.3,1.6l1.5,1.4h21.9l0.1-0.1l1.5-1.3l2-3.3l0.5-1.9V149H53.5v28
					c0,0.3,0,0.5,0,0.7v5.6l0.5,1.9l0.8,1.6l2.5,2.9l0.2,0.1h21.8l1.6-1.4l2.1-3.3l0.4-1.9L83.5,156.8L83.5,156.8z"/>
			</g>
		</g>
	</g>
	<g transform="matrix( 1, 0, 0, 1, 0,0) ">
		<g>
			<path id="Layer3_2_MEMBER_5_MEMBER_0_MEMBER_1_MEMBER_1_MEMBER_0_1_STROKES" class="st6" d="M121.6,179.8h-3.7v3.4l-0.5,1.9
				l-2,3.3l-1.5,1.3l-0.1,0.1H91.9l-1.5-1.4l-1.3-1.6l-0.8-1.6l-0.4-1.9v-5.9h-4.3v5.9l-0.4,1.9l-2.1,3.3l-1.6,1.4h-22l-0.2-0.1
				l-2.5-2.9l-0.8-1.6l-0.5-1.9v-5.6H50v-20h3.5V149h32h32.3v2.9h3.7L121.6,179.8L121.6,179.8z M53.5,157.7V177c0,0.3,0,0.5,0,0.7
				c0.5,2,1.8,3.5,4,4.5h21.8c2.6-1.2,3.9-3,4.2-5.5v-19.9h2.1V149 M87.8,177.3v-0.8v-19.8h-2.2 M91.9,189.9v-7.5c0,0,0,0,0-0.1
				c-2.5-1.5-3.9-3.5-4.1-5.8 M83.5,176.7v0.6 M79.3,189.9v-7.7 M117.9,179.8v-3.4c-0.1,1-0.4,1.9-0.9,2.9c-0.8,1.3-1.8,2.3-3.2,2.9
				h0.1v7.6 M117.9,176.4V152 M113.8,182.2l-21.9,0.1 M57.5,182.2h-0.2v7.6"/>
		</g>
	</g>
	<g transform="matrix( 1, 0, 0, 1, 0,0) ">
		<g>
			<path id="Layer3_2_MEMBER_5_MEMBER_0_MEMBER_1_MEMBER_1_MEMBER_0_MEMBER_0_1_STROKES" class="st6" d="M117.6,176.7
				c-10,0.8-19.9,0.8-29.7,0"/>
		</g>
	</g>
	<g transform="matrix( 1, 0, 0, 1, 0,0) ">
		<g>
			<path id="Layer3_2_MEMBER_5_MEMBER_0_MEMBER_1_MEMBER_1_MEMBER_0_MEMBER_1_1_STROKES" class="st6" d="M83.4,176.7
				c-10,0.8-19.9,0.8-29.7,0"/>
		</g>
	</g>
	<g transform="matrix( 1, 0, 0, 1, 0,0) ">
		<g>
			<g id="Layer3_2_MEMBER_5_MEMBER_0_MEMBER_2_FILL">
				<path class="st4" d="M83.5,284.6h4.3V264h-4.3V284.6 M121.6,287.1v-27.9h-3.7v27.9H121.6 M53.5,284.3v-19.4H50v20h3.5
					C53.5,284.8,53.5,284.6,53.5,284.3z"/>
			</g>
		</g>
	</g>
	<g transform="matrix( 1, 0, 0, 1, 0,0) ">
		<g>
			<g id="Layer3_2_MEMBER_5_MEMBER_0_MEMBER_2_MEMBER_0_FILL">
				<path class="st5" d="M53.5,256.3v28c0,0.3,0,0.5,0,0.6v5.6l0.5,1.9l0.8,1.6l2.5,3l0.2,0.1h21.8l1.6-1.4l2.1-3.3l0.4-1.9V264h4.3
					v26.5l0.4,1.9l0.8,1.6l1.3,1.6l1.5,1.4h21.9l0.1-0.1l1.5-1.3l2-3.3l0.5-1.9v-34.2L53.5,256.3L53.5,256.3z"/>
			</g>
		</g>
	</g>
	<g transform="matrix( 1, 0, 0, 1, 0,0) ">
		<g>
			<path id="Layer3_2_MEMBER_5_MEMBER_0_MEMBER_2_MEMBER_1_MEMBER_0_1_STROKES" class="st6" d="M53.5,264.9v-8.6h32h32.3v2.9h3.7
				v27.9h-3.7v3.5l-0.5,1.9l-2,3.3l-1.5,1.3l-0.1,0.1H91.9l-1.5-1.4l-1.3-1.6l-0.8-1.6l-0.4-1.9v-6h-4.3v6l-0.4,1.9l-2.1,3.3
				l-1.6,1.4h-22l-0.2-0.1l-2.5-3l-0.8-1.6l-0.5-1.9v-5.6H50v-20h3.5v19.4c0,0.3,0,0.5,0,0.6c0.5,2,1.8,3.5,4,4.5h21.8
				c2.6-1.2,3.9-3,4.2-5.5V264h2.1v-7.8 M57.5,289.5h-0.2v7.6 M85.6,264h2.2v19.8c0.2,2.3,1.6,4.3,4.1,5.8l21.9-0.1
				c1.4-0.6,2.4-1.6,3.2-2.9c0.5-1,0.8-2,0.9-3v-24.4 M87.8,283.8v0.8 M83.5,284.6V284 M91.9,297.1v-7.5l0,0 M117.9,287.1v-3.5
				 M113.8,289.5L113.8,289.5l0.1,7.6 M79.3,297.1v-7.6"/>
		</g>
	</g>
	<g transform="matrix( 1, 0, 0, 1, 0,0) ">
		<g>
			<path id="Layer3_2_MEMBER_5_MEMBER_0_MEMBER_2_MEMBER_1_MEMBER_0_MEMBER_0_1_STROKES" class="st6" d="M117.6,283.9
				c-10,0.8-19.9,0.8-29.7,0"/>
		</g>
	</g>
	<g transform="matrix( 1, 0, 0, 1, 0,0) ">
		<g>
			<path id="Layer3_2_MEMBER_5_MEMBER_0_MEMBER_2_MEMBER_1_MEMBER_0_MEMBER_1_1_STROKES" class="st6" d="M83.4,283.9
				c-10,0.8-19.9,0.8-29.7,0"/>
		</g>
	</g>
	<g transform="matrix( 1, 0, 0, 1, 0,0) ">
		<g>
			<g id="Layer3_2_MEMBER_5_MEMBER_0_MEMBER_3_FILL">
				<path class="st4" d="M117.9,313.2v27.9h3.7v-27.9H117.9 M83.5,338.6h4.3V318h-4.3V338.6 M53.5,338.3v-19.4H50v20h3.5
					C53.5,338.8,53.5,338.6,53.5,338.3z"/>
			</g>
		</g>
	</g>
	<g transform="matrix( 1, 0, 0, 1, 0,0) ">
		<g>
			<g id="Layer3_2_MEMBER_5_MEMBER_0_MEMBER_3_MEMBER_0_FILL">
				<path class="st5" d="M53.5,338.9v5.6l0.5,1.9l0.8,1.6l2.5,3l0.2,0.1h21.8l1.6-1.4l2.1-3.3l0.4-1.9V318h4.3v26.5l0.4,1.9l0.8,1.6
					l1.3,1.6l1.5,1.4h21.9l0.1-0.1l1.5-1.3l2-3.3l0.5-1.9v-34.2H53.5v28C53.5,338.6,53.5,338.8,53.5,338.9z"/>
			</g>
		</g>
	</g>
	<g transform="matrix( 1, 0, 0, 1, 0,0) ">
		<g>
			<path id="Layer3_2_MEMBER_5_MEMBER_0_MEMBER_3_MEMBER_1_MEMBER_0_1_STROKES" class="st6" d="M53.5,318.9v-8.6h32h32.3v2.9h3.7
				v27.9h-3.7v3.5l-0.5,1.9l-2,3.3l-1.5,1.3l-0.1,0.1H91.9l-1.5-1.4l-1.3-1.6l-0.8-1.6l-0.4-1.9v-6h-4.3v6l-0.4,1.9l-2.1,3.3
				l-1.6,1.4h-22l-0.2-0.1l-2.5-3l-0.8-1.6l-0.5-1.9v-5.6H50v-20h3.5v19.4c0,0.3,0,0.5,0,0.6c0.5,2,1.8,3.5,4,4.5h21.8
				c2.6-1.2,3.9-3,4.2-5.5V318h2.1v-7.8 M57.5,343.5h-0.2v7.6 M85.6,318h2.2v19.8c0.2,2.3,1.6,4.3,4.1,5.8l21.9-0.1
				c1.4-0.6,2.4-1.6,3.2-2.9c0.5-1,0.8-2,0.9-3v-24.4 M83.5,338.6V338 M87.8,338.6v-0.8 M91.9,343.6L91.9,343.6v7.5 M113.9,351v-7.6
				h-0.1 M117.9,341.1v-3.5 M79.3,351.1v-7.6"/>
		</g>
	</g>
	<g transform="matrix( 1, 0, 0, 1, 0,0) ">
		<g>
			<path id="Layer3_2_MEMBER_5_MEMBER_0_MEMBER_3_MEMBER_1_MEMBER_0_MEMBER_0_1_STROKES" class="st6" d="M117.6,337.9
				c-10,0.8-19.9,0.8-29.7,0"/>
		</g>
	</g>
	<g transform="matrix( 1, 0, 0, 1, 0,0) ">
		<g>
			<path id="Layer3_2_MEMBER_5_MEMBER_0_MEMBER_3_MEMBER_1_MEMBER_0_MEMBER_1_1_STROKES" class="st6" d="M83.4,337.9
				c-10,0.8-19.9,0.8-29.7,0"/>
		</g>
	</g>
	<g transform="matrix( 1.745452880859375, 0, 0, 1.5225830078125, 97.5,197.3) ">
		<g>
			<text transform="matrix(0.6568 0 0 0.6568 -1.1548 -18.2774)" class="st7 st8 st9">1</text>
		</g>
	</g>
	<g transform="matrix( 1.745452880859375, 0, 0, 1.5225830078125, 97.5,253.95) ">
		<g>
			<text transform="matrix(0.6568 0 0 0.6568 -1.1548 -18.2771)" class="st7 st8 st9">2</text>
		</g>
	</g>
	<g transform="matrix( 1.745452880859375, 0, 0, 1.5225830078125, 97.5,305.8) ">
		<g>
			<text transform="matrix(0.6568 0 0 0.6568 -1.1548 -18.277)" class="st7 st8 st9">3</text>
		</g>
	</g>
	<g transform="matrix( 1.745452880859375, 0, 0, 1.5225830078125, 97.5,361.45) ">
		<g>
			<text transform="matrix(0.6568 0 0 0.6568 -1.1548 -18.2768)" class="st7 st8 st9">4</text>
		</g>
	</g>
	<g transform="matrix( 0.93377685546875, 0, 0, 1.0026702880859375, -497.45,-447.05) ">
		<g>
			<g id="Layer3_3_MEMBER_4_MEMBER_0_FILL">
				<path class="st3" d="M583.3,584.6l-3.9,1c-0.7,0.3-1.2,0.5-1.3,0.7c-0.3,0.3-0.5,0.7-0.5,1.3v12.6c0,0.6,0.1,1,0.4,1.2
					c0.1,0.1,0.6,0.3,1.4,0.8l3.9,1c1.2,0,1.8-0.7,1.8-2v-14.7C585.1,585.3,584.5,584.6,583.3,584.6z"/>
			</g>
		</g>
	</g>
	<g transform="matrix( 0.93377685546875, 0, 0, 1.0026702880859375, -497.45,-411.55) ">
		<g>
			<g id="Layer3_3_MEMBER_5_MEMBER_0_FILL">
				<path class="st3" d="M583.3,584.6l-3.9,1c-0.7,0.3-1.2,0.5-1.3,0.7c-0.3,0.3-0.5,0.7-0.5,1.3v12.6c0,0.6,0.1,1,0.4,1.2
					c0.1,0.1,0.6,0.3,1.4,0.8l3.9,1c1.2,0,1.8-0.7,1.8-2v-14.7C585.1,585.3,584.5,584.6,583.3,584.6z"/>
			</g>
		</g>
	</g>
	<g transform="matrix( 0.93377685546875, 0, 0, 1.0026702880859375, -497.45,-375.9) ">
		<g>
			<g id="Layer3_3_MEMBER_6_MEMBER_0_FILL">
				<path class="st3" d="M583.3,584.6l-3.9,1c-0.7,0.3-1.2,0.5-1.3,0.7c-0.3,0.3-0.5,0.7-0.5,1.3v12.6c0,0.6,0.1,1,0.4,1.2
					c0.1,0.1,0.6,0.3,1.4,0.8l3.9,1c1.2,0,1.8-0.7,1.8-2v-14.7C585.1,585.3,584.5,584.6,583.3,584.6z"/>
			</g>
		</g>
	</g>
	<g transform="matrix( 0.93377685546875, 0, 0, 1.0026702880859375, -497.45,-335.3) ">
		<g>
			<g id="Layer3_3_MEMBER_7_MEMBER_0_FILL">
				<path class="st3" d="M583.3,584.6l-3.9,1c-0.7,0.3-1.2,0.5-1.3,0.7c-0.3,0.3-0.5,0.7-0.5,1.3v12.6c0,0.6,0.1,1,0.4,1.2
					c0.1,0.1,0.6,0.3,1.4,0.8l3.9,1c1.2,0,1.8-0.7,1.8-2v-14.7C585.1,585.3,584.5,584.6,583.3,584.6z"/>
			</g>
		</g>
	</g>
	<g transform="matrix( 0.93377685546875, 0, 0, 1.0026702880859375, -497.45,-304.4) ">
		<g>
			<g id="Layer3_3_MEMBER_8_MEMBER_0_FILL">
				<path class="st3" d="M583.3,584.6l-3.9,1c-0.7,0.3-1.2,0.5-1.3,0.7c-0.3,0.3-0.5,0.7-0.5,1.3v12.6c0,0.6,0.1,1,0.4,1.2
					c0.1,0.1,0.6,0.3,1.4,0.8l3.9,1c1.2,0,1.8-0.7,1.8-2v-14.7C585.1,585.3,584.5,584.6,583.3,584.6z"/>
			</g>
		</g>
	</g>
	<g transform="matrix( 0.93377685546875, 0, 0, 1.0026702880859375, -497.45,-270.5) ">
		<g>
			<g id="Layer3_3_MEMBER_9_MEMBER_0_FILL">
				<path class="st3" d="M583.3,584.6l-3.9,1c-0.7,0.3-1.2,0.5-1.3,0.7c-0.3,0.3-0.5,0.7-0.5,1.3v12.6c0,0.6,0.1,1,0.4,1.2
					c0.1,0.1,0.6,0.3,1.4,0.8l3.9,1c1.2,0,1.8-0.7,1.8-2v-14.7C585.1,585.3,584.5,584.6,583.3,584.6z"/>
			</g>
		</g>
	</g>
	<g transform="matrix( 1, 0, 0, 1, 0,0) ">
		<g>
			<g id="Layer3_4_FILL">
				<path class="st0" d="M48.5,110.8v4.5h63v-4.5H48.5z"/>
			</g>
		</g>
	</g>
	<g transform="matrix( 1, 0, 0, 1, 0,0) ">
		<g>
			<g id="Layer3_5_MEMBER_0_FILL">
				<path class="st7" d="M128.5,73.3v23.9h13.9V73.3H128.5z"/>
			</g>
		</g>
	</g>
	<g transform="matrix( 1, 0, 0, 1, 0,0) ">
		<g>
			<g id="Layer3_5_MEMBER_1_FILL">
				<path class="st7" d="M157.5,272.9h-8.3v23.9h8.3V272.9z"/>
			</g>
		</g>
	</g>
	<g transform="matrix( 1, 0, 0, 1, 0,0) ">
		<g>
			<g id="Layer3_5_MEMBER_2_FILL">
				<path class="st7" d="M134.8,272.9h-5.1v23.9h5.1V272.9z"/>
			</g>
		</g>
	</g>
	<g transform="matrix( 1, 0, 0, 1, 0,0) ">
		<g>
			<g id="Layer3_5_MEMBER_3_FILL">
				<path class="st7" d="M129.1,315.3v4h27.3v-4H129.1z"/>
			</g>
		</g>
	</g>
	<g transform="matrix( 1, 0, 0, 1, 0,0) ">
		<g>
			<g id="Layer3_5_MEMBER_4_FILL">
				<path class="st7" d="M151.8,322.5h-18.1v23.8h18.1V322.5z"/>
			</g>
		</g>
	</g>
	<g transform="matrix( 1, 0, 0, 1, 0,0) ">
		<g>
			<g id="Layer3_5_MEMBER_5_FILL">
				<path class="st7" d="M129.1,233.2h11.4v-24.8h-11.4V233.2 M148.1,223.5v7.4h9.9v-7.4H148.1 M148.1,210.5v7.4h9.9v-7.4H148.1z"/>
			</g>
		</g>
	</g>
	<g transform="matrix( 1, 0, 0, 1, 0,0) ">
		<g>
			<g id="Layer3_5_MEMBER_6_FILL">
				<path class="st7" d="M141.5,270.7h15.9v-21.6h-15.9V270.7z"/>
			</g>
		</g>
	</g>
	<g transform="matrix( 1, 0, 0, 1, 0,0) ">
		<g>
			<g id="Layer3_5_MEMBER_7_FILL">
				<path class="st7" d="M160.3,136.8V113h-13.9v23.8H160.3z"/>
			</g>
		</g>
	</g>
	<g transform="matrix( 1, 0, 0, 1, 0,0) ">
		<g>
			<g id="Layer3_5_MEMBER_8_FILL">
				<path class="st7" d="M154.1,162.2h6.8v-23.8h-6.8V162.2z"/>
			</g>
		</g>
	</g>
	<g transform="matrix( 1, 0, 0, 1, 0,0) ">
		<g>
			<g id="Layer3_5_MEMBER_9_FILL">
				<path class="st7" d="M141.3,138.3h-12v23.9h12V138.3 M128.9,112.9v23.8h13.9v-23.8C142.8,112.9,128.9,112.9,128.9,112.9z"/>
			</g>
		</g>
	</g>
	<g transform="matrix( 1, 0, 0, 1, 0,0) ">
		<g>
			<g id="Layer3_5_MEMBER_10_FILL">
				<path class="st7" d="M152.5,138.4h-7.2v23.8h7.2V138.4z"/>
			</g>
		</g>
	</g>
	<g transform="matrix( 1, 0, 0, 1, 0,0) ">
		<g>
			<g id="Layer3_5_MEMBER_11_FILL">
				<path class="st7" d="M145.5,173.4h-3.1v23.8h3.1V173.4z"/>
			</g>
		</g>
	</g>
	<g transform="matrix( 1, 0, 0, 1, 0,0) ">
		<g>
			<g id="Layer3_5_MEMBER_12_FILL">
				<path class="st7" d="M123.8,101.6v7.3h9.8v-7.3H123.8z"/>
			</g>
		</g>
	</g>
	<g transform="matrix( 1, 0, 0, 1, 0,0) ">
		<g>
			<g id="Layer3_7_MEMBER_0_MEMBER_0_FILL">
				<path class="st3" d="M66,87.5l0.3-16.1L47,88.4l19.5,17.2L66,87.5z"/>
			</g>
		</g>
	</g>
	<g transform="matrix( 1, 0, 0, 1, 0,0) ">
		<g>
			<g id="Layer3_7_MEMBER_0_MEMBER_1_FILL">
				<path class="st3" d="M64.3,80.3v16.6h22.8V80.3H64.3z"/>
			</g>
		</g>
	</g>
	<g transform="matrix( 1, 0, 0, 1, 59.75,132) ">
		<g>
			<rect x="-2" y="-49" class="st10" width="26.5" height="14.2"/>
			<text transform="matrix(1 0 0 1 -2.0156 -38.6663)" class="st2 st8 st11">EXI</text>
		</g>
	</g>
	<g>
		<text transform="matrix(1 0 0 1 25.1074 154.2705)" class="st12 st13 st14">1</text>
		<text transform="matrix(1 0 0 1 25.1074 190.2705)" class="st12 st13 st14">2</text>
		<text transform="matrix(1 0 0 1 25.1074 331.2705)" class="st12 st13 st14">6</text>
		<text transform="matrix(1 0 0 1 25.1074 297.2705)" class="st12 st13 st14">5</text>
		<text transform="matrix(1 0 0 1 25.1074 266.2705)" class="st12 st13 st14">4</text>
		<text transform="matrix(1 0 0 1 25.1074 225.2705)" class="st12 st13 st14">3</text>
	</g>
	<text transform="matrix(1 0 0 1 67.4867 18.8086)" class="st13 st15">SEAT</text>
	<text transform="matrix(1 0 0 1 67.9867 36.8086)" class="st13 st15">ROW</text>
	<text transform="matrix(1 0 0 1 122.3572 19.1408)" class="st13 st15">FLOOR</text>
	<text transform="matrix(1 0 0 1 123.6572 37.1408)" class="st13 st15">PANEL</text>
	<g transform="matrix( 1, 0, 0, 1, 0,0) ">
		<g>
			<g id="Layer3_2_MEMBER_2_MEMBER_1_FILL">
				<path class="st3" d="M91.5,54.4V40.8H78v13.6H91.5z"/>
			</g>
		</g>
	</g>
	<g transform="matrix( 1, 0, 0, 1, 0,0) ">
		<g>
			<g id="Layer3_2_MEMBER_3_MEMBER_1_FILL">
				<path class="st3" d="M151.4,40.8h-13.5v13.6h13.5V40.8z"/>
			</g>
		</g>
	</g>
</g>
<g>
	<text transform="matrix(1 0 0 1 228.7659 198.1188)"><tspan x="0" y="0" class="st16 st13 st14">RELAY JUNCTION</tspan><tspan x="0" y="16.8" class="st16 st13 st14">BOX 1</tspan></text>
	<text transform="matrix(1 0 0 1 228.7206 142.1491)"><tspan x="0" y="0" class="st16 st13 st14">RELAY JUNCTION</tspan><tspan x="0" y="16.8" class="st16 st13 st14">BOX 2</tspan></text>
	<g transform="matrix( 1, 0, 0, 1, 0,0) ">
		<g>
			<path id="Layer17_0_MEMBER_0_1_STROKES_1_" class="st17" d="M168.6,124.3h29.2v21.8h25.2"/>
		</g>
	</g>
	<polygon class="st18" points="175.2,138.3 175.2,110.9 161.5,124.6 	"/>
	<polygon class="st19" points="159.2,99.4 159.2,72 145.5,85.7 	"/>
	<g transform="matrix( 1, 0, 0, 1, 0,0) ">
		<g>
			<path id="Layer17_0_MEMBER_0_1_STROKES_2_" class="st20" d="M151.3,85.7h34.1V47.6h37.6"/>
		</g>
	</g>
	<text transform="matrix(1 0 0 1 228.7206 43.1491)"><tspan x="0" y="0" class="st16 st13 st14">RELAY JUNCTION</tspan><tspan x="0" y="16.8" class="st16 st13 st14">BOX 3</tspan></text>
	<polygon class="st21" points="125.9,125.3 112.2,111.6 112.2,139 	"/>
	<g transform="matrix( 1, 0, 0, 1, 0,0) ">
		<g>
			<path id="Layer17_0_MEMBER_0_1_STROKES_3_" class="st22" d="M114.8,125.5H78.3v77.8h144"/>
		</g>
	</g>
</g>
<g>
	<g transform="matrix( 1, 0, 0, 1, 0,0) ">
		<g>
			<g id="loc_0_Layer0_1_MEMBER_19_FILL_2_">
				<path class="st23" d="M143.2,111.7h-16v25.2h16V111.7z"/>
			</g>
		</g>
	</g>
	<text transform="matrix(1 0 0 1 131.1459 130.2021)" class="st2 st13 st24">1</text>
</g>
<g>
	<g transform="matrix( 1, 0, 0, 1, 0,0) ">
		<g>
			<g id="loc_0_Layer0_1_MEMBER_19_FILL_3_">
				<path class="st25" d="M161.2,111.7h-16v25.2h16V111.7z"/>
			</g>
		</g>
	</g>
	<text transform="matrix(1 0 0 1 149.1459 130.2021)" class="st2 st13 st24">2</text>
</g>
<g>
	<g transform="matrix( 1, 0, 0, 1, 0,0) ">
		<g>
			<g id="loc_0_Layer0_1_MEMBER_19_FILL_4_">
				<path class="st19" d="M142.8,72.7h-16v25.2h16V72.7z"/>
			</g>
		</g>
	</g>
	<text transform="matrix(1 0 0 1 130.7453 91.1839)" class="st2 st13 st24">3</text>
</g>
</svg>
