<?xml version="1.0" encoding="utf-8"?>
<!-- Generator: Adobe Illustrator 24.1.0, SVG Export Plug-In . SVG Version: 6.00 Build 0)  -->
<svg version="1.1" id="Ebene_1" xmlns="http://www.w3.org/2000/svg" xmlns:xlink="http://www.w3.org/1999/xlink" x="0px" y="0px"
	 viewBox="0 0 457 324.5" style="enable-background:new 0 0 457 324.5;" xml:space="preserve">
<style type="text/css">
	.st0{fill:#BFBFBF;}
	.st1{fill:#9FA0A0;}
	.st2{fill:none;}
	.st3{fill:none;stroke:#999999;stroke-width:2;stroke-linecap:round;stroke-linejoin:round;}
	.st4{fill:none;stroke:#000000;stroke-width:0.5;stroke-miterlimit:5;}
	.st5{fill:none;stroke:#000000;stroke-width:0.5;stroke-miterlimit:59.9995;}
	.st6{fill:none;stroke:#000000;stroke-width:0.45;stroke-miterlimit:5;}
	.st7{fill:#FF0000;}
	.st8{fill:#0099FF;}
	.st9{fill:none;stroke:#FF0000;stroke-miterlimit:5;}
	.st10{font-family:'ArialMT';}
	.st11{font-size:12.2351px;}
</style>
<g id="relay-hintergrund">
	<g transform="matrix( 1.2510833740234375, 0, 0, 1.2510833740234375, -493.15,-456.4) ">
		<g>
			<g id="btn_3341_k1_0_Layer0_0_FILL_1_">
				<path class="st0" d="M564.3,409.5c-5.9,0.5-9.9,2.2-12,5.1c-1,1.4-1.5,2.8-1.3,4.1l-0.2,5.7l-6.8,4v-5.1c-0.2-0.7-0.9-1-2-1
					c-0.7,0-1.2,0.2-1.5,0.6c-0.2,0.2-0.3,0.5-0.3,0.7l-0.1,6.8l-6.4,3.7v4.8l15,9l-7.4,4.5l9.6,5.5l0.1,4.4l-3.8,2.5l14.3,8.6
					l0.6-1.6l0.9-0.8v-6.9c0-0.2,0.1-0.4,0.2-0.6c0.4-0.4,1-0.6,1.9-0.6c0.8,0,1.3,0.2,1.7,0.7c0.2,0.2,0.3,0.5,0.3,0.7l-0.2,6.1
					l9-5.3l1.9,1l3.3-2.1l0.3-2.2l1.6-0.9l-4-2.5l-1.2-1l23.5-13.5V439l-9-5.2v-1.5l-1.2-0.9v-6.8l-0.6-1.1l-1.4-0.3l-1.1,0.2
					l-0.9,1.1l0.1,6.3l-6.9-3.9V418c-0.2-1.6-1-3.2-2.4-4.8C575.3,410.3,570.7,409,564.3,409.5z"/>
			</g>
		</g>
	</g>
	<g transform="matrix( 1.2510833740234375, 0, 0, 1.2510833740234375, -369.65,-516.9) ">
		<g>
			<g id="btn_3041_k3_0_Layer0_0_FILL_1_">
				<path class="st1" d="M452.5,510.7v-4.8l-15.1-8.8v-1.3l-1.1-0.9l-0.1-6.9l-0.8-1l-1.4-0.3l-1,0.3l-0.6,0.9l0.1,6.3l-9.1-5.3
					l-1.2,0.8l-0.1-0.8l-0.3-0.6l-1.1-0.2l-0.9,0.1l-0.6,0.7v2.5l-3.5,2l-3.8,0.7L408,496l-2.7,2.5l-0.5,1.4l-8,4.6l-0.4-1.5l-1-0.2
					l-1,0.2l-0.5,0.6l-0.1,2.5l-10.4,6v4.8l21.1,12.2v3.2l-5.6,2.8l-2.3,3.2l-8.2,5v2l19.1,11l8.5-4.9l2.2-3.3l18.3-10.5l2.5,0.5
					l8.5-4.9l-0.3-2.5l-14.9-8.8L452.5,510.7z"/>
			</g>
		</g>
	</g>
	<g transform="matrix( 1, 0, 0, 1, -1147.05,-345.3) ">
		<g>
			<g id="btn_3041_k1_0_Layer0_0_FILL_1_">
				<path class="st0" d="M1445.3,508.5l6.3,3.8l5.4,2.2l3.2,2.8l3.8,2.4l0.2,1.6l24,13.9v6.1l-12.6,7.3l12.3,6.9l2.9,4.1l10.6,6.1
					l23.9-13.8v-2.8l-10.2-6l-2.8-4l-7.1-4.2l0.2-3.5l26.2-15.2v-6l-13.5-7.9v-3.4l-0.5-1.1l-1.2-0.2l-1.3,0.3l-0.4,0.6l-0.1,1.9
					l-9.5-5.9l-0.2-0.2c-0.5-0.9-1.1-1.7-1.8-2.5c-0.9-1-1.8-1.8-2.8-2.4c-0.9-0.5-2.1-1-3.4-1.5c-2.2-0.7-4.2-1.1-6-1.2
					c-0.3,0-1.2-0.4-2.6-1.3l-2-1.4l-0.4-4l-1.3-0.8l-1.4,0.2l-0.5,0.8l-0.2,1.6l-0.9-0.6l-11.2,6.8v-7.9c0.1-0.2,0-0.4-0.2-0.7
					c-0.4-0.5-1.1-0.8-2.1-0.8c-0.9,0-1.6,0.2-2.1,0.8l-0.3,0.8v8.6l-1.4,1.1l0.4,1.6l-19.2,10.9v6.1H1445.3z"/>
			</g>
		</g>
	</g>
	<g transform="matrix( 1.2510833740234375, 0, 0, 1.2510833740234375, -671.25,-676.6) ">
		<g>
			<g id="btn_3000_k5_0_Layer0_0_FILL_1_">
				<path class="st1" d="M779.9,674.9l-3-0.5l-7.6-4.2l-9.2,5l0.2-6.2c-0.6-0.8-1.2-1.1-2-1.1s-1.3,0.2-1.7,0.6
					c-0.2,0.2-0.3,0.4-0.3,0.6l-0.1,6.8l-1,0.9l-0.2,1.6l-2.2,1.2l-1.4,0.1l-0.5,1l-4.1,2.3l2.8,1.4l3,3.2l0.7,3.8l0.3,7.8l6.7,4
					v-6.5l0.6-1.1l1.2-0.2l1.4,0.5l0.6,0.6v6.7l1.1,1.3v1.5l8.9,5.2v4.8l-11.2,6.8l11.2,6.8l2.3,3.3l8.5,4.9l19.2-11.2l-0.2-2.2
					l-8.2-4.5l-2.4-3.7l-5.5-3l-0.3-2.4l21.4-12.5l-0.1-5l-21-12.3l-1-2.1l-2-1.7l-2.5-1.3L779.9,674.9z"/>
			</g>
		</g>
	</g>
	<g transform="matrix( 1.2510833740234375, 0, 0, 1.2510833740234375, -377.25,-635.95) ">
		<g>
			<g id="btn_3400_k1_0_Layer0_0_FILL_1_">
				<path class="st1" d="M452,660.8l-0.1-11.7l-12.1-7l-14.2,8l0.1,14l12.1,7l10.5-6l0.1-1.9L452,660.8z"/>
			</g>
		</g>
	</g>
	<g transform="matrix( 1.2510833740234375, 0, 0, 1.2510833740234375, -393.35,-663.2) ">
		<g>
			<g id="btn_3344_k1_0_Layer0_0_FILL_1_">
				<path class="st1" d="M461.3,684.9v14l15.5,9l10.3-5.9l-2.6-1.6l-0.1-5l5.8-3.4l-0.1-6.4l-14.5-8.7L461.3,684.9z"/>
			</g>
		</g>
	</g>
	<g transform="matrix( 1.2510833740234375, 0, 0, 1.2510833740234375, -474.55,-697.75) ">
		<g>
			<g id="btn_3341_k2_0_Layer0_0_FILL_1_">
				<path class="st0" d="M617.1,732.7v-4.8l-8.9-5.2v-1.5l-1.2-1l0.1-6.8l-0.6-1l-1.4-0.3l-1.2,0.2l-0.9,1l0.1,6.3l-6.9-3.9v-9
					c-0.2-1.6-1-3.2-2.4-4.8c-2.9-3.1-7.5-4.3-13.9-3.8c-6,0.5-10,2.2-12,5.1c-1,1.4-1.5,2.8-1.3,4.1l-0.1,5.8l-6.9,4v-5
					c-0.2-0.7-0.9-1-2-1c-0.7,0-1.2,0.2-1.5,0.6c-0.2,0.2-0.3,0.5-0.3,0.7v6.8l-6.3,3.7v4.8l15,9l-14.8,8.5v2.3l10.8,6.2l2.3-0.7
					l18.5,10.7l2.3,3.2l10.7,6.2l19.1-11v-2.3l-10.4-6l-2.3-3.3l-5.6-3.2l-1.2-1L617.1,732.7z"/>
			</g>
		</g>
	</g>
	<g transform="matrix( 1.2510833740234375, 0, 0, 1.2510833740234375, -331.35,-596) ">
		<g>
			<g id="btn_3041_k4_0_Layer0_0_FILL_1_">
				<path class="st0" d="M438.2,575.3c-0.6-0.8-1.3-1.2-2-1.2c-0.8,0-1.3,0.2-1.6,0.6c-0.2,0.2-0.3,0.4-0.3,0.6l-0.1,6.8l-0.9,0.9
					l-0.3,1.5l-2.2,1.2h-1.4l-0.5,1L418,593v4.8l20,11.7l-15,8.8v2.3l8.5,4.9l2.6-0.7l7.9,4.7l1.4-0.2l1.2,0.5l0.5,0.7l4.2,2.6
					l2.8-1.7v-6.7l0.8-2.2l1.5-2.2l2.5-1.6l3-1.2l3.2-0.8l2.2-0.2l19.2-10.9v-1.5l0.4-0.8l2-0.6v-3.6L465.7,587l-1-2.1l-1.9-1.7
					l-2.6-1.3l-2.4-0.8l-2.9-0.5l-7.6-4.3l-9.2,5.1L438.2,575.3z"/>
			</g>
		</g>
	</g>
	<g transform="matrix( 1.2510833740234375, 0, 0, 1.2510833740234375, 72.4,-26.2) ">
		<g>
			<g id="Layer10_0_FILL">
				<path class="st1" d="M185.2,114.7v1.5l-7.6-4.7l-0.1-0.2c-0.4-0.7-0.9-1.4-1.4-2c-0.7-0.8-1.5-1.4-2.2-1.9
					c-2.8-1.3-5.3-2-7.5-2.1c-0.3,0-1-0.4-2.1-1.1l-1.6-1l-0.4-3.2l-1.1-0.6l-1.1,0.2l-0.4,0.6l-0.2,1.2l-0.8-0.4l-9,5.4v-6.3
					c0-0.2,0-0.3-0.2-0.5c-0.3-0.4-0.9-0.6-1.7-0.6c-0.7,0-1.3,0.1-1.7,0.5l-0.3,0.6v6.9l-1.1,1l0.4,1.3l-15.4,8.7v4.8l5,3l4.3,1.8
					l2.6,2.3l3.1,1.9l0.1,1.4l19.2,11l0.2,4.1l0.8,0.1l0.6,0.9l0.1,6.2l8.9-5.2l7.5,4.5l1.5-0.9l-3.3-1.8l0.1-4.9l1.1-0.9l-3.9-2.3
					l0.1-2.9l21-12.1v-4.9l-10.9-6.2V115l-0.4-0.8l-1-0.2l-1,0.2L185.2,114.7z"/>
			</g>
		</g>
	</g>
</g>
<g id="clp-3400-k1" transform="matrix( 1, 0, 0, 1, 449.45,609.65) ">
	<path id="clp-3400-k1-hl" class="st2" d="M-261.2-418.9l-0.1-14.6l-15.1-8.7l-17.7,10l0.1,17.5l15.1,8.7l13.1-7.4l0.2-2.4
		L-261.2-418.9z M-318.4-376.2V-397h-69v20.8H-318.4z"/>
</g>
<g id="clp-3344-k1" transform="matrix( 1, 0, 0, 1, 465.6,636.9) ">
	<path id="clp-3344-k1-hl" class="st2" d="M-281.9-443.3v17.5l19.4,11.3l12.9-7.4l-3.3-2l-0.2-6.3l7.2-4.3l-0.1-7.9l-18.2-10.8
		L-281.9-443.3z M-289.6-371.4v-20.8h-69v20.8H-289.6z"/>
</g>
<g id="clp-3341-k2" transform="matrix( 1, 0, 0, 1, 547.15,671.45) ">
	<path id="clp-3341-k2-hl" transform="matrix( 1.2510833740234375, 0, 0, 1.2510833740234375, -474.55,-697.75) " class="st2" d="
		M138.2,257.3v-16.6H83v16.6H138.2z M179.8,196v-4.8l-8.9-5.1v-1.6l-1.2-0.9l0.1-6.8l-0.6-1l-1.4-0.3l-1.1,0.2l-0.9,1.1l0.1,6.3
		l-6.9-3.9v-9c-0.2-1.6-1-3.2-2.4-4.8c-2.9-3.1-7.5-4.3-13.9-3.8c-6,0.5-10,2.2-12,5.1c-1,1.4-1.5,2.8-1.3,4.1l-0.1,5.8l-6.9,4v-5
		c-0.2-0.7-0.9-1-2-1c-0.7,0-1.2,0.2-1.5,0.6c-0.2,0.2-0.3,0.5-0.3,0.6v6.9l-6.4,3.7v4.8l15,8.9l-14.8,8.5v2.3L123,217l2.3-0.7
		l18.4,10.7l2.3,3.2l10.7,6.2l19.1-11v-2.3l-10.4-6l-2.3-3.3l-5.6-3.2l-1.2-1L179.8,196z"/>
</g>
<g id="clp-3341-k1" transform="matrix( 1, 0, 0, 1, 565.15,430.3) ">
	<path id="clp-3341-k1-hl" transform="matrix( 1.2510833740234375, 0, 0, 1.2510833740234375, -493.15,-456.4) " class="st2" d="
		M140,60.9V44.2H84.8v16.6L140,60.9L140,60.9z M112.6,65.6c-5.9,0.5-9.9,2.2-12,5.1c-1,1.4-1.5,2.8-1.3,4.1l-0.2,5.7l-6.8,4v-5.1
		c-0.2-0.7-0.9-1-2-1c-0.7,0-1.2,0.2-1.6,0.6c-0.2,0.2-0.3,0.5-0.3,0.7l-0.1,6.8L82,90.2V95l15,9l-7.4,4.5l9.6,5.5l0.1,4.4l-3.8,2.5
		l14.3,8.6l0.6-1.6l0.9-0.8v-6.9c0-0.2,0.1-0.4,0.2-0.6c0.4-0.4,1-0.6,1.9-0.6c0.8,0,1.3,0.2,1.7,0.7c0.2,0.2,0.3,0.5,0.3,0.7
		l-0.2,6.1l9-5.3l1.9,1l3.3-2.1l0.3-2.2l1.6-0.9l-4-2.5l-1.2-1l23.5-13.5v-4.9l-9-5.2v-1.5l-1.1-0.9v-6.8l-0.6-1.1l-1.4-0.3
		l-1.1,0.2l-0.9,1.1l0.1,6.3l-6.9-3.9v-9.1c-0.2-1.6-1-3.2-2.4-4.8C123.6,66.3,119,65.1,112.6,65.6z"/>
</g>
<g id="clp-3041-k4" transform="matrix( 1, 0, 0, 1, 403.8,569.55) ">
	<path id="clp-3041-k4-hl" class="st2" d="M-186.9-445.8c-0.8-1-1.6-1.4-2.5-1.4c-1,0-1.6,0.3-2.1,0.8c-0.2,0.3-0.3,0.5-0.4,0.8
		l-0.1,8.5l-1.2,1.1l-0.4,1.9l-2.8,1.5l-1.8,0.1l-0.6,1.3l-13.6,7.9v6.1l25,14.6l-18.8,10.9v2.9l10.6,6.1l3.3-0.9l9.8,5.9l1.8-0.2
		l1.5,0.6l0.7,0.8l5.3,3.3l3.5-2.1l-0.1-8.4l0.9-2.8l1.9-2.7l3.2-2l3.8-1.4l4.1-0.9l2.8-0.2l24-13.7v-1.8l0.6-1l2.4-0.8l0.1-4.5
		l-26.7-15.5l-1.3-2.6l-2.4-2.1l-3.3-1.6l-3-0.9l-3.7-0.6l-9.5-5.3l-11.5,6.3L-186.9-445.8z M-309.6-372.2V-393h-69v20.8H-309.6z"/>
</g>
<g id="clp-3041-k3" transform="matrix( 1, 0, 0, 1, 441.9,490.5) ">
	<path id="clp-3041-k3-hl" class="st2" d="M-318-380.2V-401h-69v20.8H-318z M-245.4-368.5v-6l-18.8-10.9l-0.1-1.6l-1.3-1.1l-0.2-8.6
		l-0.9-1.3l-1.8-0.4l-1.2,0.4l-0.8,1.2l0.1,7.9l-11.4-6.6l-1.6,0.9l-0.1-1.1l-0.4-0.7l-1.3-0.3l-1.2,0.2l-0.7,0.9v3.2l-4.4,2.5
		l-4.7,0.9l-4.9,2.2l-3.3,3.1l-0.7,1.8l-9.9,5.8l-0.5-1.8l-1.3-0.3l-1.3,0.2l-0.6,0.8l-0.1,3.2l-13,7.5v6.1l26.4,15.3v4.1l-7.1,3.5
		l-2.9,4.1l-10.3,6.3v2.5l24,13.8l10.6-6.1l2.8-4.1l22.8-13.1l3.2,0.6l10.6-6.1l-0.4-3.1l-18.6-10.9L-245.4-368.5z"/>
</g>
<g id="clp-3041-k2" transform="matrix( 1, 0, 0, 1, 681.35,486.5) ">
	<path id="clp-3041-k2-hl" class="st2" d="M-318-380.2V-401h-69v20.8H-318z M-373.8-365.3v-3.5l-0.5-1l-1.2-0.3l-1.3,0.3l-0.4,0.6
		l-0.1,1.9l-9.6-5.9l-0.1-0.3c-0.5-0.9-1.1-1.7-1.8-2.5c-0.9-1-1.8-1.8-2.8-2.4c-3.5-1.6-6.7-2.5-9.4-2.6c-0.3,0-1.2-0.5-2.6-1.4
		l-2-1.3l-0.4-4l-1.3-0.8l-1.4,0.3l-0.5,0.8l-0.3,1.6l-0.9-0.5l-11.3,6.7v-7.9c0-0.2,0-0.4-0.3-0.7c-0.4-0.5-1.1-0.7-2.1-0.8
		c-0.9,0-1.6,0.2-2.1,0.7l-0.4,0.8v8.6l-1.4,1.2l0.4,1.6l-19.2,10.9v6l6.3,3.8l5.4,2.3l3.3,2.9l3.8,2.3l0.1,1.8l24.1,13.8l0.3,5.2
		l1,0.1l0.8,1.1l0.1,7.8l11.2-6.5l9.3,5.6l1.8-1.1l-4.1-2.3l0.1-6.1l1.4-1.1l-4.8-2.9l0.2-3.6l26.2-15.1v-6.1L-373.8-365.3z"/>
</g>
<g id="clp-3041-k1" transform="matrix( 1, 0, 0, 1, 748.45,524.6) ">
	<path id="clp-3041-k1-hl" class="st2" d="M-318-380.2V-401h-69v20.8H-318z M-450.2-361.4l6.3,3.8l5.4,2.2l3.2,2.8l3.8,2.4l0.2,1.6
		l24,13.9v6.1l-12.6,7.3l12.3,6.9l2.9,4.1l10.6,6.1l23.9-13.8v-2.9l-10.2-6l-2.8-4l-7.1-4.1l0.2-3.6l26.2-15.1v-6l-13.5-7.9v-3.4
		l-0.5-1.1l-1.2-0.2l-1.3,0.3l-0.4,0.6l-0.1,1.9l-9.5-5.9l-0.2-0.2c-0.5-0.9-1.1-1.7-1.8-2.5c-0.9-1-1.8-1.8-2.8-2.4
		c-0.9-0.5-2.1-1-3.4-1.5c-2.2-0.7-4.2-1.1-6-1.2c-0.3,0-1.2-0.4-2.6-1.3l-2-1.4l-0.4-4l-1.3-0.8l-1.4,0.2l-0.5,0.8l-0.2,1.6
		l-0.9-0.6l-11.2,6.8v-7.9c0.1-0.2,0-0.4-0.2-0.7c-0.4-0.5-1.1-0.8-2.1-0.8c-0.9,0-1.6,0.2-2.1,0.8l-0.3,0.8v8.6l-1.4,1.1l0.4,1.6
		l-19.2,10.9v6.1H-450.2z"/>
</g>
<g id="clp-3000-k5" transform="matrix( 1, 0, 0, 1, 743.45,650.35) ">
	<path id="clp-3000-k5-hl" class="st2" d="M-439-482.6l-3.7-0.6l-9.5-5.3l-11.6,6.3l0.3-7.7c-0.7-1-1.5-1.4-2.4-1.4
		c-1,0-1.6,0.3-2.1,0.8c-0.2,0.3-0.3,0.5-0.4,0.8l-0.1,8.5l-1.3,1.1l-0.3,1.9l-2.8,1.4l-1.8,0.1l-0.6,1.2l-5.2,2.9l3.5,1.7l3.8,4
		l0.8,4.8l0.4,9.8l8.4,5v-8.1l0.8-1.4l1.4-0.3l1.8,0.6l0.8,0.8l-0.1,8.3l1.4,1.6l0.1,1.9l11.1,6.4v6.1l-14.1,8.4l14.1,8.5l2.9,4.1
		l10.6,6.1l24.1-14l-0.2-2.7l-10.3-5.7l-3-4.6l-6.9-3.8l-0.4-2.9l26.8-15.7l-0.1-6.2l-26.3-15.5l-1.3-2.6l-2.4-2.1l-3.2-1.6
		L-439-482.6z M-318-380.2V-401h-69v20.8H-318z"/>
</g>
<g id="clp-system">
	<g>
		<path id="Layer16_0_1_STROKES" class="st3" d="M247.1,28.3h-69.8V51h69.8V28.3z"/>
		<path id="Layer9_0_MEMBER_0_MEMBER_0_1_STROKES" class="st4" d="M294.4,113.2l-1.7-2.6l-2.9-2.3c-2.8-1.6-6-2.5-9.5-2.8
			c-1.1-0.1-2.2-0.1-3.3-0.1c-0.4,0-0.9,0-1.3,0.1c-1.2,0.1-2.4,0.3-3.5,0.5c-3,0.6-5.6,1.7-7.8,3.3l-2.3,2.4l-0.8,2.1l-0.1,0.1
			l-0.2,0.6l0.3,2.7l1.7,2.6l2.9,2.3c3.8,2,8.1,3,12.9,2.8c5-0.1,9.2-1.4,12.6-3.9l2.3-2.4l1.1-2.8l-0.3-2.1L294.4,113.2z
			 M304.6,116.9l-0.5,0.7l0.5,0.8l1.3,0.3l1.2-0.3l0.5-0.8l-0.5-0.7l-1.2-0.3L304.6,116.9z M296.3,121.9l-0.3,0.9l0.7,0.8l1.4,0.4
			l1.4-0.2l1.1-0.6l0.3-0.9l-0.6-0.8l-1.4-0.4l-1.5,0.1L296.3,121.9z M294.8,115.9v10l-1.1,2.8l-2.3,2.4c-3.4,2.5-7.6,3.8-12.6,3.9
			c-4.8,0.1-9.1-0.8-12.9-2.9l-2.9-2.2l-1.7-2.6l-0.3-2.8v-9.9 M304.1,125.4v-0.9l-0.6,0.3l-0.3,0.9l0.8,0.8l1.4,0.4l1.6-0.1
			l1.1-0.7l0.3-0.9l-0.8-0.9v1.1 M303.3,125.7v2.1l0.8,0.8l1.4,0.4l1.6-0.2l1.1-0.7l0.3-0.9v-2.1 M304.1,117.5v6.9 M307.6,124.4
			v-6.8 M302.4,118.3l-7.9-4.5 M309.3,122.3l11.9,6.9v3 M335.3,135.6l0.1,6.9 M338.8,135.6v6.4 M324.5,146.4v3.9 M323,135.1v10.5
			 M324.2,151v9.9 M300.8,131.3l0.5,0.1 M300.8,131.3v1.6l-0.3,0.9l-1,0.6l-1.4,0.2l-1.4-0.4l-0.7-0.9v-1.9l-0.4,0.1l-1.1,1v1.3
			l1,1.1l1.8,0.6h2.1l1.8-0.6l1.1-1v-1.3l-1-1 M302.3,133.7v4l-1.1,1l-1.8,0.6h-2.1l-1.8-0.6l-1-1v-4 M294.8,154l2.6,1.5 M294.8,154
			v4.8l-1.1,2.7l-1.2,1.3 M294.8,152v1.9 M316.7,146.4v4 M318.1,135.6v10.5 M314.5,177.4v9.9 M365.4,170.1v4 M357.6,170.1v4
			 M366.4,162.1v2.1 M371.4,161.6v2.1 M363.9,158.8v10.4 M359.1,159.2v10.5 M357.9,152.4v9.9 M370.7,154l-0.1,7.9 M367.1,154v7.9
			 M296,131.3v-8.5 M300.8,122.4v8.9 M303.4,192.8v7.9 M299.9,192.8v7.9 M304.3,200.4v2.1 M299.1,200.9v2.1 M322,195.1v4
			 M314.3,195.1v4 M314.5,214.1v6.1 M320.6,183.9l-0.1,10.4 M315.8,184.2v10.5 M357.9,189v6.1 M272.7,98.5l-0.5,0.8l0.5,0.7l1.3,0.3
			l1.3-0.3l0.5-0.7l-0.5-0.8l-1.3-0.3L272.7,98.5z M242.6,75.9l1.4,0.4l1.4-0.1l1.1-0.6l0.3-0.9l-0.7-0.8 M248.3,86.1v-1.3l-1.1-1
			l-0.4-0.1v1.6l-0.3,0.8l-1,0.6l-1.5,0.2l-1.4-0.4l-0.7-0.8v-1.9l-0.4,0.1l-1.1,1v1.3l1,1l1.8,0.6h2.1l1.8-0.6L248.3,86.1z
			 M248.3,86.1v2.8v1.3l-1.1,1l-1.8,0.6h-2.1l-1.8-0.6l-0.7-0.7v4.3h0.1l0.8,0.8l-0.2,0.9l0.2,1.3 M249.5,87.5l10,5.8V96
			 M259.2,97.9l-1.3-0.3l-1.5,0.1l-1.1,0.6l-0.3,0.9l0.7,0.8l1.4,0.3l1.4-0.1l1.1-0.6l0.3-0.9L259.2,97.9z M246.8,74.8v8.9
			 M255.1,99.2v8.5v2l0.7,0.8l1.4,0.4l1.5-0.2l1-0.6l0.3-0.8v-1.6v-0.9v-8.1 M259.9,107.7l0.4,0.1l1.1,1.1v1.2v3.9 M261.4,110
			l-1.1,1.1l-1.8,0.5h-2.1l-1.8-0.5l-1-1.1v0.4v3.6l1,1.1l1.8,0.6h2.1l1.8-0.6l1-1 M255.1,107.7l-0.4,0.1l-1.1,1.1v1.2 M280.3,105.6
			l-3.2-1.9 M275.7,105.6v-6.4 M272.2,100.9v5.2 M272.2,100.9l-1.1-0.6l-11.3,6.5 M272.2,99.2v1.7 M240.5,82.3l-6.2-3.6 M228.1,103
			l0.7,0.8 M228.1,101v2.1 M228.1,101l0.2-0.9l0.6-0.3v-4l-0.9,0.7l-3.9,1.8l-4.3,0.9 M228.8,92.8v2.9 M237.3,98.9l-0.7-0.8V96
			l0.2-0.9l0.6-0.3v-6.9l0.5-0.8l1.3-0.3l1.3,0.3l0.2,0.3v-1.3 M240.8,90.4v-2.5l-0.5,0.8L239,89l-1.3-0.3l-0.5-0.8 M240.8,87.9
			l-0.3-0.5 M233.4,66.9v21.8l-0.7,2.8l-0.6,0.9 M241.4,96.4L241.4,96.4l-1.2,0.7l-1.6,0.2l-1.4-0.4l-0.7-0.8 M237.3,94.8v0.9
			 M240.8,95.8v-1.1 M241.9,83.7v-8.5 M217.7,90.3l-1.3-0.4l-1.5,0.1l-1.1,0.6l-0.3,0.9l0.6,0.8 M211.6,99.3l-1.6-0.1l-4.6-1.1
			l-3.8-1.7 M213.5,102v-1.9l-0.4,0.2l-1.1,1v1.2l1,1l1.8,0.6h2.1l1.8-0.6l1.1-1v-1.2l-1.1-1l-0.4-0.2v1.6l-0.3,0.9l-1,0.6l-1.6,0.1
			l-1.4-0.4 M212.1,102.5v4 M219.8,102.5v2.8v1.3l-1.1,1l-1.8,0.6h-2.1l-1.8-0.6 M198,108.6v12.3 M233.1,100.5v2.1 M228.8,101.8
			l-0.7-0.8 M228.8,99.7v1 M222.6,114.6v6.1l29.5-17.1 M253.2,138l31.6,18.3v-6.1l-50-28.9v6.1l4.1,2.3 M231.6,117.5l2.9,1.7
			 M231.6,117.5v4.8 M231.6,117.1v0.4 M232.4,92.8l-0.1,7.9 M218.4,91.1v8.9 M213.5,100.1v-8.5 M218.2,135v3.9 M217.9,139.5v10
			 M210.4,135v4 M204.4,146.1v2.1 M208.7,137.9v7.8 M205.1,137.9l0.1,7.8 M209.4,145.6v2.1 M217.9,169.2v13.1 M241.3,163.9v2.1
			 M236.2,164.4v2.1 M236.9,156.3v7.8 M240.5,156.3l-0.1,7.8 M251.6,140.9v9.9 M252.8,147.7v10.6 M257.7,147.3v10.4 M271.6,174.4
			l-0.1,7.9 M268.1,174.4v4 M280.9,176v10 M272.4,182v2.1 M273.4,171.5v4 M271,166.8l3.8,0.8v-7 M274.8,167.6v3.5 M281.1,171.5v3.9
			 M279.7,160.1l-0.1,10.5 M251.3,158.6v4 M259.1,158.6v4 M216.7,123.7v10.5 M211.8,124.1l0.1,10.4 M211,133.2l-14.6-8.5
			 M234.8,121.3l18.9-10.9 M170.3,109.4v10 M171.6,93.6l-0.1,10.4 M176.3,94l0.1,10.5 M170.1,104.8v3.9 M177.8,104.8v4 M186,108.5
			l5.9-3.4 M130.6,118v9.6 M135.4,117.6l0.1,10.5 M136.6,110.8v9.9 M136.7,145.3v8.2 M170.3,137.4v14.7 M129.2,128.5v4 M136.9,128.5
			v4 M284.6,194.5v10.4 M279.8,194.9v10.6 M278.4,205.7v1.4 M274.4,215.8v2.1 M279.5,216.1v1.3 M275.2,207.6l0.1,7.9 M270.2,212.6
			v7.8 M270.9,221.1v1.2 M278.7,207.6v7.9 M286.1,205.7v4 M265.9,220.6v2.1 M266.7,212.6v7.8 M251.4,211.3v10.5 M256.2,210.9v10.5
			 M269.5,236.5v5.4 M249.9,222.2v4 M257.7,222.2v4 M225.5,193.2v10.4 M220.7,193.5V204 M227,204.4v4 M235.8,228.1v12.5
			 M219.2,204.4v4 M271.2,186.6v21.9 M234.1,186.6v21.9 M222.6,120.7l-43.9-25.3 M316.3,138.1l-31.5,18.2 M321.2,129.2l-36.4,21"/>
		<path id="Layer9_0_MEMBER_0_MEMBER_1_1_STROKES" class="st4" d="M309.6,169.8c-3.1-1.8-6.8-2.7-10.9-2.8c-4-0.2-7.7,0.5-11.1,1.9
			l-3.4,1.9l-2.3,2.5l-0.9,2.3l-0.2,0.4l0.4,2.8l1.7,2.6l2.8,2.2c3.1,1.7,6.8,2.6,10.9,2.8s7.8-0.5,11.1-1.9l3.4-2l2.3-2.4l1-2.7
			l-0.3-2.1l-0.1-0.6l-1.7-2.6L309.6,169.8z M317.1,182.7l-1.1,0.6l-0.2,0.9l0.7,0.8l1.3,0.4l1.5-0.1l1.1-0.6l0.3-0.8l-0.7-0.8
			l-1.3-0.4L317.1,182.7z M303.6,195.8l4.2-1.3l3.4-1.9l2.3-2.4l1-2.8 M286.4,201.2l18.1,10.4l36.4-21l-26.7-15.3 M370.7,154
			l-0.5-0.7l-1.3-0.3l-1.3,0.3L367,154l0.6,0.8l1.3,0.3l1.2-0.3L370.7,154z M363.9,169.3l-0.3,0.9l-1,0.6l-1.5,0.1l-1.4-0.4
			 M357.9,195.1l-1.1,2.8l-2.3,2.4l-1.5,1l-0.1,0.1l11.9-6.9 M320.5,194.3l-0.2,0.9l-1,0.6l-1.5,0.1l-1.4-0.4l-0.7-0.8 M320.6,192.7
			l0.4,0.1l1.1,1.1v1.2l-1.1,1l-1.8,0.6h-2l-1.8-0.6l-1-1.1v-1.2l1-1.1l0.4-0.1 M314.3,199.1l1,1l1.8,0.6h2l1.8-0.6l1.1-1
			 M302.9,192l-1.3-0.3l-1.2,0.3l-0.5,0.8l0.5,0.8l1.3,0.3l1.3-0.3l0.5-0.7L302.9,192z M280.9,186l0.4,2.8l1.7,2.6l2.8,2.3l3.9,1.6
			l4.5,0.9l4.8,0.3l1.1-0.1 M303.4,199.6l0.8,0.8l-0.3,0.9l-1.2,0.6l-1.5,0.2l-1.4-0.4l-0.8-0.8l0.3-0.9l0.6-0.4 M299.1,203.1
			l0.8,0.8l1.4,0.4l1.5-0.2l1.2-0.6l0.3-0.9 M287.2,207.1l10.1,5.8v6.1l-36.9,21.3l-47.7-27.6v-6l5.8-3.4 M299.8,215l4.7,2.7v-6.1
			 M287,227.1l0.3,0.2c3.3,1.5,7,2.1,11.3,1.9c4.1-0.1,7.7-1,10.7-2.7l0.3-0.2l0.1-0.1l1.5-1l2.3-2.4l1-2.8 M285.8,229.3l11.5,6.7
			l2.9,4.1l10.6,6.1v-2.9l-10.3-5.9l-2.8-4.1l-10.4-6 M297.7,233.3l11.7-6.7 M314.5,215.4l7,4.1l2.9,4.1l10.2,5.9v2.9l-23.9,13.8
			 M310.8,243.3l23.9-13.8 M324.5,223.6l-24,13.8 M321.5,219.5l-11.9,6.9 M304.5,217.7l36.4-21v-6.1 M343.8,212.3l24-13.7
			 M341,208.2l11.9-6.9 M246.1,73.9l-1.3-0.4l-1.5,0.1l-1.1,0.6l-0.3,0.9l0.7,0.8 M229.3,93.6l1.3,0.3l1.3-0.3l0.6-0.8l-0.5-0.7
			l-1.3-0.3l-1.3,0.3l-0.5,0.8L229.3,93.6z M214.2,92.3l1.4,0.4l1.5-0.2l1.1-0.6l0.3-0.9l-0.7-0.8 M241.6,97.7l-0.3,0.9l-1.1,0.7
			l-1.6,0.1l-1.4-0.4 M201.7,96.4l-2.9-2.3l-1.9-2.6l-0.6-2.8 M214.2,102.9l-0.6-0.9 M198,120.9l0.4,2.8l1.7,2.6l2.8,2.3h0.1
			l3.8,1.6l4.5,1h0.6 M216,122.9l-1.3-0.4l-1.5,0.1l-1.1,0.6l-0.3,0.9l0.8,0.8l1.4,0.4l1.4-0.2l1.1-0.6l0.3-0.9L216,122.9z
			 M233.1,102.6l-0.3,0.8l-1.1,0.8l-1.6,0.1l-1.4-0.4 M232.4,99.7l0.8,0.8l-0.3,0.9l-1.1,0.7l-1.6,0.1l-1.4-0.4 M234.4,128.9
			l-4.2-2.4l-0.7-0.4l-1.5-0.9l-9.7,5.6 M230.2,126.6l4.6-2.7 M231.6,122.3l-1,2.7l-1.2,1.2 M216.7,132.6l0.4,0.1l1.1,1v1.3l-1.1,1
			l-1.8,0.6h-2.1l-1.8-0.6l-0.8-0.8l-0.5,0.4l0.4,0.2 M218.2,142.3l1.7,2.6l2.9,2.3c3.1,1.7,6.7,2.6,10.9,2.8
			c4.1,0.1,7.8-0.5,11.1-1.9l3.4-1.9l2.3-2.4l1.1-2.7l-0.3-2.8l-1.8-2.6l-2.8-2.3c-3.1-1.8-6.8-2.7-10.9-2.8
			c-4-0.1-7.7,0.5-11.1,1.9l-3.4,1.9l-2.3,2.4l-0.9,2.2l-0.2,0.5L218.2,142.3z M217.9,149.5l0.3,2.8l1.7,2.6l2.9,2.2l3.9,1.7
			l4.5,0.9l4.4,0.2 M238.8,155.3l-1.3,0.4l-0.5,0.7l0.5,0.7l1.3,0.3l1.2-0.3l0.6-0.7l-0.5-0.8L238.8,155.3z M210.6,135.2l-0.2-0.2
			v-1.3l1-1l0.4-0.1 M216.7,134.2l-0.3,0.9l-1,0.6l-1.5,0.2l-1.4-0.4l-0.7-0.8 M210,135.5l-2.6,1.5l0.7,0.1l0.5,0.8l-0.5,0.7
			l-1.3,0.3l-1.2-0.3l-0.6-0.7l0.6-0.8l1.2-0.3l0.6,0.1 M210.4,139l1,1l1.8,0.6h2.1l1.8-0.6l1-1 M204.4,148.2l0.7,0.8l1.4,0.4
			l1.6-0.1l1.2-0.7l0.2-0.9 M208.7,144.8l0.7,0.8l-0.2,0.9l-1.2,0.7l-1.6,0.1l-1.4-0.4l-0.7-0.8l0.3-0.9l0.6-0.3 M211.2,186.1
			l9.3,5.4 M208.4,187l2.8-0.9 M197.8,180.9l10.6,6.1 M197.8,177.9v2.9 M197.8,177.9l16.6-9.6 M230.6,194.4L223,190l-0.2-0.1
			l-0.1-0.1l-11.9-6.9l-2.8,0.9l-10.3-5.9 M216.4,179.8l-5.5,3.1 M240.5,163.1l0.8,0.8l-0.2,0.9l-1.2,0.6l-1.6,0.2l-1.4-0.4
			l-0.8-0.8l0.2-0.9l0.6-0.3 M236.2,166.5l0.8,0.8l1.4,0.4l1.6-0.2l1.2-0.6l0.2-0.9 M203.2,139.5l-11.7,6.8l50,28.9v-0.1l36.3-21
			l-24.6-14.3 M241.6,176.3v-1.2 M218.2,185l-0.3-2.8 M219.9,187.6l-1.7-2.6 M222.8,189.9l-2.9-2.3 M222.8,189.9l0.2,0.1l3.7,1.6
			l4.5,0.9h0.6 M234.8,189.4l1.8,2.6l2.9,2.3c4,2.4,9,3.4,15,3.1c6.2-0.4,11-2.1,14.3-5.3l1.9-2.6l0.6-2.8l-0.2-0.9l-0.4-1.8
			l-0.1-0.2l-1.7-2.4l-2.9-2.2c-3.8-2.1-8.2-3.1-13.2-3.1c-5,0-9.4,1-13.1,3.1l-2.9,2.2l-1.9,2.6l-0.6,2.8L234.8,189.4z M279,159.3
			l-1.4-0.3l-1.5,0.1l-1.1,0.6l-0.3,0.9l0.7,0.8l1.3,0.4l1.6-0.1l1-0.6l0.3-0.9L279,159.3z M277.9,154.1v2.6 M253.1,146.8l-0.3,0.9
			l0.6,0.8l1.4,0.4l1.5-0.2l1.1-0.6l0.3-0.9l-0.7-0.8l-1.4-0.4l-1.4,0.2L253.1,146.8z M241.8,159l3.1-0.9l3.4-2l2.3-2.4l1.1-2.7
			 M257.7,156.2l0.4,0.2l1,1.1v1.1l-1.1,1.1l-1.8,0.6h-2.1l-1.9-0.6l-1-1.1v-1.1l1.1-1.1l0.4-0.1 M257.7,157.8l-0.3,0.9l-1.1,0.6
			l-1.5,0.1l-1.4-0.4l-0.6-0.8 M251.3,162.6l1,1.1l1.9,0.6h2.1l1.8-0.6l1.1-1.1 M297.5,165.6l-6.6-3.9l-9.3,5.4 M279.6,169.1
			l0.4,0.1l1.1,1.1v1.2l-1.1,1.1l-1.8,0.6h-2.1l-1.8-0.6l-0.9-0.9l-3.1,1.9l0.7,0.2l0.5,0.7l-0.6,0.7l-1.2,0.3l-1.3-0.3l-0.2-0.4
			l-3.5,2 M273.5,171.7l-0.2-0.2v-1.2l1.1-1.1l0.4-0.1 M270.4,173.5l-0.6-0.1l-1.3,0.3l-0.4,0.7l0.2,0.3 M279.6,170.7l-0.2,0.9
			l-1.1,0.6l-1.5,0.1l-1.4-0.4l-0.7-0.8 M281,175.6l-1,0.9l-1.8,0.6h-2.1l-1.8-0.6l-1.1-1.1 M271.7,181.2l0.7,0.8l-0.3,0.9l-1.1,0.6
			l-0.5,0.1 M271,185.7l1.1-0.6l0.3-0.9 M272.9,163.1l-18.6,10.8 M195.3,127.1l14.7,8.5 M191.5,146.3v6.1l44.9,25.9 M284.6,194.5
			l-0.6-0.8l-1.4-0.4l-1.5,0.2L280,194l-0.3,0.9l0.7,0.8l1.4,0.4l1.4-0.1l1.1-0.6L284.6,194.5z M284.6,203.4l0.5,0.2l1,1v1.2
			l-1.1,1.1l-1.8,0.6h-2.1l-1.8-0.6l-1-1.1v-1.2l1.1-1l0.4-0.2 M284.6,204.9l-0.3,0.9l-1,0.6l-1.5,0.1l-1.4-0.4l-0.7-0.8
			 M276.9,206.6l-1.2,0.3l-0.6,0.8l0.5,0.7l1.3,0.3l1.3-0.3l0.5-0.7l-0.5-0.8L276.9,206.6z M278.1,201.8l-5.4-3.1 M273.4,193.7
			l4.6,2.6 M278.7,214.4l0.8,0.8l-0.3,0.9l-1.1,0.7l-1.6,0.1l-1.4-0.4l-0.7-0.8l0.2-0.9l0.6-0.3 M286.1,209.8l-1.1,1l-1.8,0.6h-2.1
			l-1.8-0.6l-0.7-0.6 M271.2,208.5l-0.6,2.8l-0.8,0.9l0.3,0.4l-0.6,0.7l-1.2,0.3l-1.3-0.3l-0.5-0.7l0.5-0.8l1.3-0.3l1.3,0.3l0.3,0.4
			 M254.9,212.3l1.1-0.5l0.3-0.9l-0.7-0.8l-1.3-0.4l-1.5,0.2l-1.1,0.6l-0.3,0.9l0.7,0.8l1.3,0.4L254.9,212.3z M251.4,219.1l-3.6-0.3
			l-4.5-1.1l-3.8-1.8l-2.9-2.2l-1.8-2.6l-0.7-2.8 M256.2,221.4l-0.3,0.8l-1,0.6l-1.6,0.2l-1.3-0.4l-0.7-0.8 M256.2,219.8l0.4,0.2
			l1.1,1v1.3l-1.1,1l-1.8,0.6h-2.1l-1.8-0.6l-1.1-1.1v-1.3l1.1-1l0.4-0.2 M266.7,215.4l-0.9,0.6l-3.8,1.8l-4.5,1.1l-1.3,0.1
			 M266.6,221.4l-0.7-0.8l0.2-0.9l0.6-0.3 M257.7,226.2l-1.1,1l-1.8,0.6h-2.1l-1.8-0.6 M270.9,222.3l-0.2,0.9l-1.1,0.6l-1.6,0.1
			l-1.4-0.4l-0.7-0.8 M228.8,241.3l11.9,6.9l3.9,1.7l4.5,0.9l4.8,0.2l4.6-0.6l4.2-1.3l1.9-0.9l0.1-0.1l1.4-1l2.4-2.4l1-2.7
			 M260.4,240.3v-6.1 M269.5,237.2l7.1,4.1l-11.9,6.9l-11.9,6.9l2.9,4.1l23.9-13.8l13.1,7.5v2.9l-24,13.8l-13.4-7.8l-2.9-4.1
			l-23.1-13.4 M224.8,192.4l-1.3-0.4H222l-1.1,0.6l-0.3,0.9l0.7,0.8l1.4,0.4l1.4-0.1l1.1-0.6l0.3-0.8L224.8,192.4z M225.5,203.6
			l-0.3,0.9l-1,0.6l-1.5,0.1l-1.4-0.4l-0.7-0.8 M225.5,202.1l0.4,0.1l1.1,1.1v1.2l-1.1,1l-1.8,0.6H222l-1.8-0.6l-1-1.1v-1.2l1.1-1.1
			l0.4-0.1 M227,208.4l-1.1,1l-1.8,0.6H222l-1.8-0.6l-1-1 M232.3,195.4l-5.9,3.4 M225.9,242.1l-13.1-7.5v2.9l13.4,7.8 M229.8,224.8
			l-16.9,9.8 M268.5,269.6v-2.9l-13-7.6 M292.5,252.9l-24,13.8 M252.6,255l-11.9-6.9"/>
		<path id="Layer9_0_MEMBER_0_MEMBER_2_1_STROKES" class="st5" d="M196.2,66.3l0.7,2.8l1.8,2.6l2.9,2.2c4,2.4,9,3.5,15,3.1
			c6.2-0.3,11-2.1,14.3-5.3l1.9-2.6l0.6-2.8l-0.7-2.8l-1.8-2.6l-2.9-2.3c-3.8-2.1-8.2-3.1-13.2-3.1s-9.3,1-13.1,3.1l-2.9,2.3
			l-1.9,2.6L196.2,66.3z M196.2,66.3v21.9 M338.8,135.6l-0.5-0.8l-1.3-0.3l-1.2,0.3l-0.6,0.8l0.5,0.7l1.3,0.3l1.3-0.3L338.8,135.6z
			 M335.3,137.3l-1.1-0.6l-9.1,5.3 M316.7,150.4l1,1.1l1.8,0.6h2.1l1.8-0.6l1-0.9l0.9-2.3l2.3-2.4c3.3-2.4,7.5-3.6,12.6-3.8
			c1.2,0,2.3,0,3.4,0.1l-3.4-1.9 M321,134l-1.5,0.1l-1.1,0.6l-0.3,0.9l0.7,0.8l1.4,0.3l1.4-0.1l1.1-0.6l0.3-0.9l-0.6-0.8L321,134z
			 M323,144.1l0.4,0.1l1.1,1.1v1.2l-1.1,1.1l-1.8,0.6h-2.1l-1.8-0.6l-1-1.1v-1.2l1.1-1.1l0.4-0.1 M323,145.6l-0.3,0.9l-1,0.6
			l-1.5,0.1l-1.4-0.4l-0.7-0.8 M324.4,150.5l-0.2,0.5l0.3,2.8l1.8,2.6l2.8,2.2c3.8,2,8.1,3,12.9,2.8c5-0.1,9.2-1.4,12.6-3.9l2.3-2.4
			l1-2.7l-0.3-2.8l-1.7-2.6l-2.9-2.3c-2.8-1.5-6-2.4-9.5-2.7 M314.1,148.3l-16.3,9.4l50,28.9l36.4-21l-12.3-7.1 M297.8,157.7v6.1
			l4.6,2.6 M324.2,161l0.3,2.8l1.8,2.6l2.8,2.3c3.8,2,8.1,3,12.9,2.8c5-0.1,9.2-1.4,12.6-3.9l2.3-2.4l1-2.8 M359.8,160l1.3,0.4
			l1.5-0.1l1.1-0.6l0.3-0.8l-0.7-0.8l-1.4-0.4l-1.4,0.1l-1.1,0.6l-0.3,0.9L359.8,160z M365.8,154.9l-6.2-3.6 M366.4,164.2l0.8,0.8
			l1.4,0.4l1.6-0.2l1.1-0.6l0.3-0.9 M370.7,160.8l0.7,0.8l-0.3,0.9l-1.1,0.6l-1.6,0.1l-1.4-0.4l-0.8-0.8l0.2-0.9l0.6-0.3
			 M363.9,167.7l0.4,0.1l1,1.1v1.2l-1,1l-1.8,0.6h-2.1l-1.8-0.6l-1.1-1l0.1-1.2l1-1.1l0.4-0.1 M357.6,174.1l1.1,1l1.8,0.6h2.1
			l1.8-0.6l1-1 M359.8,170.5l-0.7-0.8 M347.9,186.6v6.1l36.4-21v-6.1 M341,208.2l-7.9-4.6 M343.9,212.3l-2.9-4.1 M354.1,218.3
			l-10.2-5.9 M354.1,218.3l23.9-13.8l-10.2-5.9l-2.9-4.1l-7.1-4.1 M378,204.5v2.9l-23.9,13.8l-10.6-6.1l-2.9-4.1l-8.9-5.1
			 M354.1,221.2v-2.9 M334.5,203.3c2.9,0.8,6,1,9.4,0.8c3.5-0.4,6.5-1.3,9-2.7 M315.8,174.2l32,18.5 M178.9,105.9l17.8,10.3v6
			l-50,29l-36.3-21.1V124l11.6-6.7 M180,83.4l-5.2,3l47.7,27.6l37-21.3 M187.7,72.8L187,72l-1.3-0.4l-1.5,0.1l-1,0.6l-0.3,0.9
			l0.7,0.8l1.4,0.3l1.4-0.1l1.1-0.6L187.7,72.8z M187.7,72.8v8.9l0.4,0.1l1.1,1.1v1.2v2.8v1.3l-1.1,1l-1.8,0.6h-2.1l-1.8-0.6l-1-1
			v-4V83l1.1-1.1l0.4-0.1v-8.5 M187.7,81.8v1.6l-0.3,0.9l-1,0.6l-1.5,0.2l-1.4-0.4l-0.7-0.8v-2 M174.8,90.5v-4.1 M172.8,95l1.6,0.1
			l1.3-0.4l0.7-0.8l-0.2-0.8l-1.1-0.6l-1.5-0.1l-1.4,0.4l-0.6,0.8l0.2,0.8L172.8,95z M181.4,84.1l1,1.1l1.8,0.6h2.1l1.8-0.6l1.1-1
			 M158.1,94.2l-1.3-0.3l-1.3,0.3L155,95l0.5,0.8l1.3,0.3l1.2-0.3l0.6-0.8L158.1,94.2z M170.1,100.8l-9.9-5.8l-1.7,1l-0.1,4.8
			c2.5,0.4,4.8,1.2,6.9,2.4l2.8,2.3l1.7,2.6l0.1,0.8l1.1,1l1.9,0.6h2l1.8-0.6l1-1.1 M158.6,96.1V95 M155,95v3.2v2.4
			c1.2,0,2.4,0.2,3.5,0.4 M155,98.2l-4.3,2.5c1.2-0.1,2.5-0.1,3.8-0.1c0.2,0,0.3,0,0.5,0 M150.7,100.6c-2.6,0.2-5.1,0.8-7.4,1.8
			l-3.4,2l-2.3,2.4l-1.1,2.6l0.4,2.8l1.6,2.6l2.9,2.3c3.1,1.8,6.7,2.7,10.9,2.8c4.1,0.2,7.8-0.5,11.1-1.9l3.4-2l2.3-2.4l1.1-2.7
			l-0.3-2 M136.6,120.7l1.1,2.8l2.3,2.4l3.4,2c3.3,1.4,7,2,11.1,1.9c4.1-0.2,7.8-1.1,10.9-2.8l2.8-2.3l1.7-2.6l0.3-2.7 M176.4,102.5
			l0.4,0.1l1,1.1v1.1l-1,1.1l-1.8,0.6h-2l-1.9-0.6l-1-1.1v-1.1l1-1.1l0.4-0.1 M176.4,104.5l-0.8,0.8l-1.3,0.4l-1.5-0.1l-1.1-0.6
			l-0.3-0.9 M126.9,113.3l-0.5-0.8l-1.3-0.3l-1.3,0.3l-0.5,0.8l0.5,0.7l1.3,0.3l1.3-0.3L126.9,113.3z M126.9,113.3l-0.1,7.8
			 M127.5,121.8l0.2-0.9L127,120 M123.3,121.1v-0.9l-0.6,0.3l-0.2,0.9l0.7,0.8l1.4,0.4l1.6-0.2l1.2-0.6 M122.6,121.4v2.1l0.7,0.8
			l1.4,0.4l1.6-0.1l1.2-0.6l0.2-0.9l-0.2-1.2 M135.2,116.7l-1.1-0.6l-1.4-0.2l-1.4,0.4l-0.7,0.8l0.3,0.9l1,0.6l1.5,0.2l1.4-0.4
			l0.6-0.8L135.2,116.7z M135.4,126.1l0.5,0.2l1,1v1.2l-1,1.1l-1.8,0.6H132l-1.8-0.6l-1-1v-1.2l1-1l0.4-0.2 M135.4,128.1l-0.7,0.8
			l-1.4,0.4l-1.4-0.1l-1.1-0.6l-0.3-0.9 M128.1,113.7l7.1-4.1 M123.3,120.2v-6.9 M129.2,132.5l1,1.1l1.8,0.6h2.1l1.8-0.6l1-1.1
			 M173.3,137.9l17.2,9.9v2.9l-10.6,6.1L177,156l-23.1,13.3l-2.8,4.1l-10.6,6.1l-24-13.8v-2.9l10.2-5.9l0,0l2.9-4.1l5.2-3.1
			 M136.7,153.5l1,2.8l2.3,2.4l1.5,1.1l0.3,0.2c3.3,1.8,7.2,2.6,11.6,2.6c4.6,0,8.6-0.9,12-2.8v-0.1l2.8-2.2l1.7-2.6l0.3-2.8
			 M140.4,179v-2.3l-24-13.8 M170.3,148.8l7.1,4.1l2.9,0.8l10.3-5.9 M146.6,151.1V145l-36.3-21 M177.3,152.9l-11.9,6.9l-11.9,6.9
			l-2.9,4.1l-10.2,5.9 M141.8,160l11.7,6.7 M150.6,170.8L126.7,157 M129.6,152.9l11.9,6.9 M279.5,217.4l-0.3,0.9l-1.1,0.7l-1.6,0.1
			l-1.4-0.4l-0.7-0.8 M270.2,219.3l0.7,0.8l-0.2,0.9l-1.1,0.6l-1.6,0.2l-1.4-0.4 M276.5,241.3l2.9,4.1 M226.3,245.3l2.9-0.9
			 M225.9,242.1l2.8-0.8l7.1-4.1 M235.8,240.6l0.4,2.8l1.7,2.6l2.8,2.3 M212.7,206.7l47.7,27.5l36.9-21.3 M195,74.8l-5.9,3.4
			 M146.6,145l50-28.8 M127.5,121.8L127.5,121.8"/>
		<path id="Layer9_0_MEMBER_0_MEMBER_3_1_STROKES" class="st4" d="M187.7,214.8l-1.5,0.1l-1.1,0.6l-0.3,0.9l0.7,0.8l1.3,0.3l1.5-0.1
			l1.1-0.6l0.3-0.9l-0.7-0.8L187.7,214.8z M184.1,217.9l9.3,5.4l2.4,0.7l2.6-0.2l3.5-2l-15.2-8.8l-3.5,2l-0.4,1.6L184.1,217.9z
			 M202,221.7l1.1,0.7v-17.5l-19.3-11.1v17.5l3,1.7 M194.8,222.5l1.3,0.4l1.5-0.1l1.1-0.6l0.3-0.8l-0.6-0.8l-1.4-0.4l-1.5,0.1
			l-1.1,0.6l-0.3,0.9L194.8,222.5z M203.1,222.4l11.2-6.4 M203.1,204.9l16.4-9.5 M219.4,194.1l-18.1-10.4l-17.5,10.1"/>
		<path id="Layer9_0_MEMBER_0_MEMBER_4_1_STROKES" class="st6" d="M245,139.4c0-0.4-0.1-0.7-0.4-0.9c-0.3-0.3-0.6-0.4-0.9-0.4
			c-0.4,0-0.7,0.1-0.9,0.4c-0.3,0.3-0.4,0.6-0.4,0.9"/>
		<path id="Layer9_0_MEMBER_0_MEMBER_5_1_STROKES" class="st4" d="M151.7,200.6v-2.1"/>
		<path id="Layer9_0_MEMBER_0_MEMBER_6_1_STROKES" class="st4" d="M152.9,202.1l9.3,5.4"/>
		<path id="Layer9_0_MEMBER_0_MEMBER_7_1_STROKES" class="st4" d="M169.1,206.8l2.8-1.6"/>
		<path id="Layer9_0_MEMBER_0_MEMBER_8_1_STROKES" class="st4" d="M151.7,200.6l1.2,1.4"/>
		<path id="Layer9_0_MEMBER_0_MEMBER_9_1_STROKES" class="st4" d="M162.2,207.4l2.4,0.6l2.6-0.2l1.9-1.1"/>
		<path id="Layer9_0_MEMBER_0_MEMBER_10_1_STROKES" class="st4" d="M154.1,195.9l1.5-0.9"/>
		<path id="Layer9_0_MEMBER_0_MEMBER_11_1_STROKES" class="st4" d="M152.9,199.9l9.3,5.4"/>
		<path id="Layer9_0_MEMBER_0_MEMBER_12_1_STROKES" class="st4" d="M169.1,204.6l1.8-1"/>
		<path id="Layer9_0_MEMBER_0_MEMBER_13_1_STROKES" class="st4" d="M154.1,195.9l-1.9,1.1l-0.5,1.5l1.2,1.4"/>
		<path id="Layer9_0_MEMBER_0_MEMBER_14_1_STROKES" class="st4" d="M162.2,205.3l2.4,0.6l2.6-0.1l1.9-1.1"/>
		<path id="Layer9_0_MEMBER_0_MEMBER_15_1_STROKES" class="st4" d="M155.5,177.5V195"/>
		<path id="Layer9_0_MEMBER_0_MEMBER_16_1_STROKES" class="st4" d="M170.7,186.2v17.5"/>
		<path id="Layer9_0_MEMBER_0_MEMBER_17_1_STROKES" class="st4" d="M188.3,176.2l-15.3-8.8"/>
		<path id="Layer9_0_MEMBER_0_MEMBER_18_1_STROKES" class="st4" d="M155.6,177.5l15.3,8.8"/>
		<path id="Layer9_0_MEMBER_0_MEMBER_19_1_STROKES" class="st4" d="M170.8,186.2l17.6-10.2"/>
		<path id="Layer9_0_MEMBER_0_MEMBER_20_1_STROKES" class="st4" d="M173,167.3l-17.5,10.1"/>
		<path id="Layer9_0_MEMBER_0_MEMBER_21_1_STROKES" class="st4" d="M155.5,194.9l15.3,8.9"/>
		<path id="Layer9_0_MEMBER_0_MEMBER_22_1_STROKES" class="st4" d="M170.8,203.7l11.3-6.4"/>
		<path id="Layer9_0_MEMBER_0_MEMBER_23_1_STROKES" class="st4" d="M154.9,196.9l-1.1,0.6l-0.3,0.9l0.7,0.8l1.4,0.4l1.4-0.1l1.1-0.6
			l0.3-0.9l-0.7-0.8l-1.3-0.4L154.9,196.9z"/>
		<path id="Layer9_0_MEMBER_0_MEMBER_24_1_STROKES" class="st4" d="M167.7,203.2l-0.6-0.8l-1.4-0.4l-1.4,0.1l-1.1,0.7l-0.2,0.8
			l0.6,0.8l1.3,0.4l1.5-0.1l1.1-0.6L167.7,203.2z"/>
		<path id="Layer9_0_MEMBER_0_MEMBER_25_1_STROKES" class="st4" d="M182.9,218.6v-2.1"/>
		<path id="Layer9_0_MEMBER_0_MEMBER_26_1_STROKES" class="st4" d="M184.1,220.1l9.3,5.4"/>
		<path id="Layer9_0_MEMBER_0_MEMBER_27_1_STROKES" class="st4" d="M200.4,224.8l2.8-1.6"/>
		<path id="Layer9_0_MEMBER_0_MEMBER_28_1_STROKES" class="st4" d="M182.9,218.6l1.2,1.4"/>
		<path id="Layer9_0_MEMBER_0_MEMBER_29_1_STROKES" class="st4" d="M193.4,225.5l2.4,0.6l2.6-0.2l1.9-1.1"/>
		<path id="Layer9_0_MEMBER_0_MEMBER_30_1_STROKES" class="st6" d="M188.4,176v14.1"/>
		<path id="Layer9_0_MEMBER_1_MEMBER_0_1_STROKES" class="st4" d="M282.1,287.9l1.8-1l0.5-1.8"/>
		<path id="Layer9_0_MEMBER_1_MEMBER_1_1_STROKES" class="st4" d="M122.4,134.3l-31.7,19.5"/>
		<path id="Layer9_0_MEMBER_1_MEMBER_2_1_STROKES" class="st4" d="M282.8,279.7l-190.6-110"/>
		<path id="Layer9_0_MEMBER_1_MEMBER_3_1_STROKES" class="st4" d="M428.9,197.7l-0.4-1.1l-0.8-0.4l-1.1,0.3l-141.9,81.9l-1.1,1.1
			l-0.8,1.4l-0.3,1.4"/>
		<path id="Layer9_0_MEMBER_1_MEMBER_4_1_STROKES" class="st4" d="M286,279.9l139.5-80.6"/>
		<path id="Layer9_0_MEMBER_1_MEMBER_5_1_STROKES" class="st4" d="M425.4,199.4l0.8-0.3l0.6,0.3l0.3,0.9"/>
		<path id="Layer9_0_MEMBER_1_MEMBER_6_1_STROKES" class="st4" d="M284.4,285.3v-2.6l0.3-1.1l0.6-1.1l0.8-0.7"/>
		<path id="Layer9_0_MEMBER_1_MEMBER_7_1_STROKES" class="st4" d="M282.5,282.2v3.9"/>
		<path id="Layer9_0_MEMBER_1_MEMBER_8_1_STROKES" class="st4" d="M279.1,288.4l1.6,0.4l1.4-0.8l0.5-1.9"/>
		<path id="Layer9_0_MEMBER_1_MEMBER_9_1_STROKES" class="st4" d="M427,200.4v2.1"/>
		<path id="Layer9_0_MEMBER_1_MEMBER_10_1_STROKES" class="st4" d="M428.9,201.6v-3.9"/>
		<path id="Layer9_0_MEMBER_1_MEMBER_11_1_STROKES" class="st4" d="M428.9,201.6l-0.5,1.8"/>
		<path id="Layer9_0_MEMBER_1_MEMBER_12_1_STROKES" class="st4" d="M423.4,204.7l1.8,0.4l1.4-0.8l0.5-1.9"/>
		<path id="Layer9_0_MEMBER_1_MEMBER_13_1_STROKES" class="st4" d="M423.4,204.7l-2.9-1.6"/>
		<path id="Layer9_0_MEMBER_1_MEMBER_14_1_STROKES" class="st4" d="M279.1,288.5L91.4,180.1"/>
		<path id="Layer9_0_MEMBER_1_MEMBER_15_1_STROKES" class="st4" d="M428.4,203.4l-2,1.3"/>
		<path id="Layer9_0_MEMBER_1_MEMBER_16_1_STROKES" class="st4" d="M428.2,196.4l-40.7-23.5"/>
		<path class="st7" d="M236.3,141.9c-0.6-0.6-1.3-0.9-2.1-0.9s-1.5,0.3-2.2,0.9c-0.6,0.6-0.8,1.3-0.8,2.1s0.3,1.5,0.8,2.1
			c0.6,0.6,1.3,0.9,2.2,0.9s1.5-0.3,2.1-0.9c0.6-0.6,0.9-1.3,0.9-2.1S236.9,142.5,236.3,141.9z"/>
		<path id="Layer9_2_MEMBER_0_1_STROKES" class="st3" d="M24.8,175.5v22.7h69.8v-22.7H24.8z"/>
		<path id="Layer9_6_1_STROKES" class="st3" d="M363.6,84.6h-69.8v22.7h69.8L363.6,84.6L363.6,84.6z"/>
		<path id="Layer9_7_1_STROKES" class="st3" d="M431.1,122.6h-69.8v22.7h69.8L431.1,122.6L431.1,122.6z"/>
		<path id="Layer9_8_MEMBER_0_1_STROKES" class="st3" d="M356.1,271.1h69.8v-22.7h-69.8L356.1,271.1L356.1,271.1z"/>
		<path id="Layer9_10_MEMBER_0_1_STROKES" class="st3" d="M62,234.5h69.7v-22.7H62V234.5z"/>
		<path id="Layer9_11_MEMBER_0_1_STROKES" class="st3" d="M106.6,266.2h69.8v-22.7h-69.8C106.6,243.5,106.6,266.2,106.6,266.2z"/>
		<path id="Layer9_12_MEMBER_0_1_STROKES" class="st3" d="M245.9,296.4v-22.7h-69.8v22.7H245.9z"/>
		<path id="Layer9_13_MEMBER_0_1_STROKES" class="st3" d="M124.1,88.4H54.4v22.7h69.8V88.4H124.1z"/>
		<path class="st8" d="M328.6,254.6l3.8-3.8l8.7,8.7l7.3-7.3l-8.7-8.7l3.9-3.8l-15.1-0.1L328.6,254.6z"/>
		<path class="st8" d="M234.8,263.4l0.1-15h-15.1l3.8,3.8l-8.7,8.7l7.3,7.3l8.7-8.7L234.8,263.4z"/>
		<path class="st8" d="M181.5,233.6l3.9,3.8v-15h-15l3.8,3.8l-8.7,8.7l7.3,7.3L181.5,233.6z"/>
		<path class="st8" d="M142.6,222.1l8.7-8.7l3.8,3.8v-15h-15l3.8,3.8l-8.7,8.7L142.6,222.1z"/>
	</g>
	<g id="text_1_" transform="matrix( 1, 0, 0, 1, 0,0) ">
		<g>
			<g id="Layer9_22_FILL">
				<path class="st8" d="M117.8,184.8l-4.2-6.3c28.7-20.5,57.1-32.5,85.3-36c8.4-1,15.7-1.3,22.1-0.8c-7.5-0.7-16.2-0.8-26-0.2
					c-30.7,1.8-60.1,10.8-88.2,26.9l-4.2-6.3l-5.2,18.4L117.8,184.8z"/>
			</g>
		</g>
		<g>
			<path id="Layer9_22_1_STROKES" class="st9" d="M220.9,141.6c-6.4-0.4-13.7-0.2-22.1,0.8c-28.2,3.5-56.6,15.5-85.3,36l4.2,6.3
				l-20.5-4.4l5.2-18.4l4.2,6.3c28.1-16.1,57.5-25.1,88.2-26.9C204.7,140.8,213.4,140.9,220.9,141.6c4.1,0.4,7.9,1,11.3,1.8"/>
		</g>
		<g id="text">
			<g transform="matrix( 0.815673828125, 0, 0, 0.815673828125, 574.1,432.55) ">
				<g>
					<text transform="matrix(1.226 0 0 1.226 -474.5497 -476.6723)" class="st10 st11">3341−K1</text>
				</g>
			</g>
			<g transform="matrix( 0.815673828125, 0, 0, 0.815673828125, 421.5,580.3) ">
				<g>
					<text transform="matrix(1.226 0 0 1.226 -474.5493 -476.6723)" class="st10 st11">3041−K4</text>
				</g>
			</g>
			<g transform="matrix( 0.815673828125, 0, 0, 0.815673828125, 758.25,527.4) ">
				<g>
					<text transform="matrix(1.226 0 0 1.226 -474.5493 -476.6728)" class="st10 st11">3041−K1</text>
				</g>
			</g>
			<g transform="matrix( 0.815673828125, 0, 0, 0.815673828125, 690.1,489.2) ">
				<g>
					<text transform="matrix(1.226 0 0 1.226 -474.5497 -476.6718)" class="st10 st11">3041−K2</text>
				</g>
			</g>
			<g transform="matrix( 0.815673828125, 0, 0, 0.815673828125, 751.15,652.55) ">
				<g>
					<text transform="matrix(1.226 0 0 1.226 -474.5488 -476.6723)" class="st10 st11">3000−K5</text>
				</g>
			</g>
			<g transform="matrix( 0.815673828125, 0, 0, 0.815673828125, 450.75,493.2) ">
				<g>
					<text transform="matrix(1.226 0 0 1.226 -474.5493 -476.6718)" class="st10 st11">3041−K3</text>
				</g>
			</g>
			<g transform="matrix( 0.815673828125, 0, 0, 0.815673828125, 573.2,677.75) ">
				<g>
					<text transform="matrix(1.226 0 0 1.226 -474.5491 -476.672)" class="st10 st11">3341−K2</text>
				</g>
			</g>
			<g transform="matrix( 0.815673828125, 0, 0, 0.815673828125, 507.5,648.95) ">
				<g>
					<text transform="matrix(1.226 0 0 1.226 -474.5493 -476.6718)" class="st10 st11">3344-K1</text>
				</g>
			</g>
			<g transform="matrix( 0.815673828125, 0, 0, 0.815673828125, 462.15,616.5) ">
				<g>
					<text transform="matrix(1.226 0 0 1.226 -474.5488 -476.672)" class="st10 st11">3400-K1</text>
				</g>
			</g>
		</g>
	</g>
</g>
</svg>
