<?xml version="1.0" encoding="utf-8"?>
<!-- Generator: Adobe Illustrator 24.2.3, SVG Export Plug-In . SVG Version: 6.00 Build 0)  -->
<svg version="1.1" id="Ebene_1" xmlns="http://www.w3.org/2000/svg" xmlns:xlink="http://www.w3.org/1999/xlink" x="0px" y="0px"
	 viewBox="0 0 349.1 161" style="enable-background:new 0 0 349.1 161;" xml:space="preserve">
<text transform="matrix(1 0 0 1 222.5273 127.2393)" style="font-family:'ArialMT'; font-size:14px;">3000-P30</text>
<path id="Layer0_7_MEMBER_1_1_STROKES" style="fill:none;stroke:#FF9900;stroke-linecap:round;stroke-linejoin:round;" d="
	M211.5,109.1h84v27.8h-84V109.1z"/>
<g id="deice-px-ind">
	<path style="fill:#999999;" d="M157.3,30.8H152V77c-0.8,0.3-1.5,0.8-2.2,1.4c-1.3,1.3-2,2.9-2,4.8s0.7,3.5,2,4.8
		c0.6,0.6,1.4,1.1,2.2,1.4v45.2h5.3V89.5c0.8-0.3,1.4-0.8,2.1-1.4c1.3-1.3,2-2.9,2-4.8s-0.7-3.5-2-4.8c-0.6-0.6-1.3-1.1-2.1-1.4
		V30.8z"/>
	
		<path id="panel_deicepxind_0_Layer0_0_1_STROKES" style="fill:none;stroke:#999999;stroke-linecap:round;stroke-linejoin:round;" d="
		M152,89.5c-0.8-0.3-1.5-0.8-2.2-1.4c-1.3-1.3-2-2.9-2-4.8s0.7-3.5,2-4.8c0.6-0.6,1.4-1.1,2.2-1.4"/>
	
		<path id="panel_deicepxind_0_Layer0_0_2_STROKES" style="fill:none;stroke:#000000;stroke-linecap:round;stroke-linejoin:round;" d="
		M157.3,77c0.8,0.3,1.4,0.8,2.1,1.4c1.3,1.3,2,2.9,2,4.8s-0.7,3.5-2,4.8c-0.6,0.6-1.3,1.1-2.1,1.4"/>
	<path style="fill:#999999;" d="M211.5,80.6c0-15.6-5.5-29-16.6-40.1c-11.1-11.2-24.5-16.7-40.2-16.7c-15.6,0-29,5.6-40.1,16.7
		C103.6,51.6,98,65,98,80.6s5.5,29,16.6,40.2c11.1,11.1,24.4,16.6,40.1,16.6c15.7,0,29.1-5.5,40.2-16.6
		C206,109.6,211.5,96.2,211.5,80.6z"/>
	
		<path id="panel_deicepxind_0_Layer0_0_MEMBER_0_MEMBER_0_1_STROKES" style="fill:none;stroke:#1A181B;stroke-linecap:round;stroke-linejoin:round;" d="
		M211.5,80.6c0,15.6-5.5,29-16.6,40.2c-11.1,11.1-24.5,16.6-40.2,16.6c-15.6,0-29-5.5-40.1-16.6C103.6,109.6,98,96.2,98,80.6
		s5.5-29,16.6-40.1c11.1-11.2,24.4-16.7,40.1-16.7c15.7,0,29.1,5.6,40.2,16.7C206,51.6,211.5,65,211.5,80.6z"/>
	<path style="fill:#333333;" d="M207,81c0-14.4-5.1-26.6-15.2-36.8C181.6,34.1,169.3,29,155,29c-14.4,0-26.6,5.1-36.8,15.2
		S103,66.6,103,81c0,14.3,5.1,26.6,15.2,36.8c10.1,10.1,22.4,15.2,36.8,15.2c14.3,0,26.6-5.1,36.8-15.2C201.9,107.5,207,95.3,207,81
		z"/>
	
		<path id="panel_deicepxind_0_Layer0_0_MEMBER_0_MEMBER_1_1_STROKES" style="fill:none;stroke:#1A181B;stroke-linecap:round;stroke-linejoin:round;" d="
		M207,81c0,14.3-5.1,26.6-15.2,36.8C181.6,127.9,169.3,133,155,133c-14.4,0-26.6-5.1-36.8-15.2C108.1,107.5,103,95.3,103,81
		c0-14.4,5.1-26.6,15.2-36.8S140.6,29,155,29c14.3,0,26.6,5.1,36.8,15.2C201.9,54.4,207,66.6,207,81z"/>
	<path d="M183.1,80.8c0-7.8-2.8-14.5-8.3-20c-5.5-5.5-12.2-8.3-20-8.3s-14.5,2.8-20.1,8.3c-5.5,5.5-8.3,12.2-8.3,20s2.8,14.5,8.3,20
		c5.6,5.5,12.3,8.3,20.1,8.3c7.8,0,14.5-2.8,20-8.3C180.3,95.3,183.1,88.6,183.1,80.8z"/>
	
		<path id="panel_deicepxind_0_Layer0_0_MEMBER_1_1_STROKES" style="fill:none;stroke:#666666;stroke-linecap:round;stroke-linejoin:round;" d="
		M174.8,100.8c-5.5,5.5-12.2,8.3-20,8.3c-7.8,0-14.5-2.8-20.1-8.3c-5.5-5.5-8.3-12.2-8.3-20s2.8-14.5,8.3-20
		c5.6-5.5,12.3-8.3,20.1-8.3s14.5,2.8,20,8.3c5.5,5.5,8.3,12.2,8.3,20S180.3,95.3,174.8,100.8z"/>
	<text transform="matrix(1 0 0 1 136.7661 46.8812)" style="fill:#FFFFFF; font-family:'ArialMT'; font-size:6.17px;">30</text>
	<text transform="matrix(1 0 0 1 114.2719 67.7689)" style="fill:#FFFFFF; font-family:'ArialMT'; font-size:6.17px;">20</text>
	<text transform="matrix(1 0 0 1 114.4614 97.5404)" style="fill:#FFFFFF; font-family:'ArialMT'; font-size:6.17px;">10</text>
	<text transform="matrix(1 0 0 1 139.5083 118.6166)" style="fill:#FFFFFF; font-family:'ArialMT'; font-size:6.17px;">0</text>
	<text transform="matrix(1 0 0 1 138.7563 127.9047)" style="fill:#FFFFFF; font-family:'ArialMT'; font-size:6.17px;">PSI</text>
	<text transform="matrix(1 0 0 1 128.2602 42.0599)" style="fill:#FFFFFF; font-family:'ArialMT'; font-size:6.17px;">DEICE</text>
	<text transform="matrix(1 0 0 1 159.7632 127.9047)" style="fill:#FFFFFF; font-family:'ArialMT'; font-size:6.17px;">PSI</text>
	<text transform="matrix(1 0 0 1 166.5395 118.6166)" style="fill:#FFFFFF; font-family:'ArialMT'; font-size:6.17px;">0</text>
	<text transform="matrix(1 0 0 1 187.8047 97.5404)" style="fill:#FFFFFF; font-family:'ArialMT'; font-size:6.17px;">10</text>
	<text transform="matrix(1 0 0 1 188.4648 67.7689)" style="fill:#FFFFFF; font-family:'ArialMT'; font-size:6.17px;">20</text>
	<text transform="matrix(1 0 0 1 165.4057 46.8812)" style="fill:#FFFFFF; font-family:'ArialMT'; font-size:6.17px;">30</text>
	<text transform="matrix(1 0 0 1 162.6635 42.0599)" style="fill:#FFFFFF; font-family:'ArialMT'; font-size:6.17px;">DEICE</text>
	<g>
		<defs>
			<rect id="SVGID_1_" x="143.2" y="55.2" width="9" height="11"/>
		</defs>
		<clipPath id="SVGID_2_">
			<use xlink:href="#SVGID_1_"  style="overflow:visible;"/>
		</clipPath>
		<g style="clip-path:url(#SVGID_2_);enable-background:new    ;">
			<text transform="matrix(1 0 0 1 144.9887 63.1381)" style="fill:#FFFFFF; font-family:'ArialMT'; font-size:6.17px;">1</text>
		</g>
	</g>
	<text transform="matrix(1 0 0 1 162.5708 63.1381)" style="fill:#FFFFFF; font-family:'ArialMT'; font-size:6.17px;">2</text>
	
		<path id="panel_deicepxind_0_Layer0_0_MEMBER_3_MEMBER_0_1_STROKES" style="fill:none;stroke:#FFFFFF;stroke-width:0.55;stroke-miterlimit:5;" d="
		M165.8,54l2.4-5.6"/>
	
		<path id="panel_deicepxind_0_Layer0_0_MEMBER_3_MEMBER_1_1_STROKES" style="fill:none;stroke:#FFFFFF;stroke-width:0.55;stroke-miterlimit:5;" d="
		M169.8,56.1l2.2-3.7"/>
	
		<path id="panel_deicepxind_0_Layer0_0_MEMBER_3_MEMBER_2_1_STROKES" style="fill:none;stroke:#FFFFFF;stroke-width:0.55;stroke-miterlimit:5;" d="
		M173.4,58.8l2.6-3"/>
	
		<path id="panel_deicepxind_0_Layer0_0_MEMBER_3_MEMBER_3_1_STROKES" style="fill:none;stroke:#FFFFFF;stroke-width:0.55;stroke-miterlimit:5;" d="
		M176.6,61.9l3-2.6"/>
	
		<path id="panel_deicepxind_0_Layer0_0_MEMBER_3_MEMBER_4_1_STROKES" style="fill:none;stroke:#FFFFFF;stroke-width:0.55;stroke-miterlimit:5;" d="
		M179.3,65.5l3.3-2.1"/>
	
		<path id="panel_deicepxind_0_Layer0_0_MEMBER_3_MEMBER_5_1_STROKES" style="fill:none;stroke:#FFFFFF;stroke-width:0.55;stroke-miterlimit:5;" d="
		M181.3,69.5l5.7-2.3"/>
	
		<path id="panel_deicepxind_0_Layer0_0_MEMBER_3_MEMBER_6_1_STROKES" style="fill:none;stroke:#FFFFFF;stroke-width:0.55;stroke-miterlimit:5;" d="
		M182.7,73.8l3.8-0.9"/>
	
		<path id="panel_deicepxind_0_Layer0_0_MEMBER_3_MEMBER_7_1_STROKES" style="fill:none;stroke:#FFFFFF;stroke-width:0.55;stroke-miterlimit:5;" d="
		M183.4,78.2l4.1-0.4"/>
	
		<path id="panel_deicepxind_0_Layer0_0_MEMBER_3_MEMBER_8_1_STROKES" style="fill:none;stroke:#FFFFFF;stroke-width:0.55;stroke-miterlimit:5;" d="
		M165.8,106.8l2.4,5.6"/>
	
		<path id="panel_deicepxind_0_Layer0_0_MEMBER_3_MEMBER_9_1_STROKES" style="fill:none;stroke:#FFFFFF;stroke-width:0.55;stroke-miterlimit:5;" d="
		M169.8,104.8l2.1,3.4"/>
	
		<path id="panel_deicepxind_0_Layer0_0_MEMBER_3_MEMBER_10_1_STROKES" style="fill:none;stroke:#FFFFFF;stroke-width:0.55;stroke-miterlimit:5;" d="
		M173.4,102.2l2.6,3"/>
	
		<path id="panel_deicepxind_0_Layer0_0_MEMBER_3_MEMBER_11_1_STROKES" style="fill:none;stroke:#FFFFFF;stroke-width:0.55;stroke-miterlimit:5;" d="
		M176.6,99l3.1,2.6"/>
	
		<path id="panel_deicepxind_0_Layer0_0_MEMBER_3_MEMBER_12_1_STROKES" style="fill:none;stroke:#FFFFFF;stroke-width:0.55;stroke-miterlimit:5;" d="
		M179.3,95.4l3.2,1.9"/>
	
		<path id="panel_deicepxind_0_Layer0_0_MEMBER_3_MEMBER_13_1_STROKES" style="fill:none;stroke:#FFFFFF;stroke-width:0.55;stroke-miterlimit:5;" d="
		M181.3,91.4l5.7,2.3"/>
	
		<path id="panel_deicepxind_0_Layer0_0_MEMBER_3_MEMBER_14_1_STROKES" style="fill:none;stroke:#FFFFFF;stroke-width:0.55;stroke-miterlimit:5;" d="
		M182.7,87.1l3.6,0.8"/>
	
		<path id="panel_deicepxind_0_Layer0_0_MEMBER_3_MEMBER_15_1_STROKES" style="fill:none;stroke:#FFFFFF;stroke-width:0.55;stroke-miterlimit:5;" d="
		M183.4,82.7l3.7,0.3"/>
	
		<path id="panel_deicepxind_0_Layer0_0_MEMBER_3_MEMBER_16_1_STROKES" style="fill:none;stroke:#FFFFFF;stroke-width:0.55;stroke-miterlimit:5;" d="
		M144,54l-2.4-5.6"/>
	
		<path id="panel_deicepxind_0_Layer0_0_MEMBER_3_MEMBER_17_1_STROKES" style="fill:none;stroke:#FFFFFF;stroke-width:0.55;stroke-miterlimit:5;" d="
		M140,56.1l-1.6-2.6"/>
	
		<path id="panel_deicepxind_0_Layer0_0_MEMBER_3_MEMBER_18_1_STROKES" style="fill:none;stroke:#FFFFFF;stroke-width:0.55;stroke-miterlimit:5;" d="
		M136.4,58.8l-2.1-2.5"/>
	
		<path id="panel_deicepxind_0_Layer0_0_MEMBER_3_MEMBER_19_1_STROKES" style="fill:none;stroke:#FFFFFF;stroke-width:0.55;stroke-miterlimit:5;" d="
		M133.2,61.9l-2.5-2.2"/>
	
		<path id="panel_deicepxind_0_Layer0_0_MEMBER_3_MEMBER_20_1_STROKES" style="fill:none;stroke:#FFFFFF;stroke-width:0.55;stroke-miterlimit:5;" d="
		M130.6,65.5l-2.9-1.8"/>
	
		<path id="panel_deicepxind_0_Layer0_0_MEMBER_3_MEMBER_21_1_STROKES" style="fill:none;stroke:#FFFFFF;stroke-width:0.55;stroke-miterlimit:5;" d="
		M128.5,69.5l-5.7-2.3"/>
	
		<path id="panel_deicepxind_0_Layer0_0_MEMBER_3_MEMBER_22_1_STROKES" style="fill:none;stroke:#FFFFFF;stroke-width:0.55;stroke-miterlimit:5;" d="
		M127.2,73.8l-3.6-0.9"/>
	
		<path id="panel_deicepxind_0_Layer0_0_MEMBER_3_MEMBER_23_1_STROKES" style="fill:none;stroke:#FFFFFF;stroke-width:0.55;stroke-miterlimit:5;" d="
		M126.5,78.2l-3.6-0.3"/>
	
		<path id="panel_deicepxind_0_Layer0_0_MEMBER_3_MEMBER_24_1_STROKES" style="fill:none;stroke:#FFFFFF;stroke-width:0.55;stroke-miterlimit:5;" d="
		M144,106.8l-2.4,5.6"/>
	
		<path id="panel_deicepxind_0_Layer0_0_MEMBER_3_MEMBER_25_1_STROKES" style="fill:none;stroke:#FFFFFF;stroke-width:0.55;stroke-miterlimit:5;" d="
		M140,104.8l-2.2,3.6"/>
	
		<path id="panel_deicepxind_0_Layer0_0_MEMBER_3_MEMBER_26_1_STROKES" style="fill:none;stroke:#FFFFFF;stroke-width:0.55;stroke-miterlimit:5;" d="
		M136.4,102.2l-2.7,3.2"/>
	
		<path id="panel_deicepxind_0_Layer0_0_MEMBER_3_MEMBER_27_1_STROKES" style="fill:none;stroke:#FFFFFF;stroke-width:0.55;stroke-miterlimit:5;" d="
		M133.2,99l-3.3,2.8"/>
	
		<path id="panel_deicepxind_0_Layer0_0_MEMBER_3_MEMBER_28_1_STROKES" style="fill:none;stroke:#FFFFFF;stroke-width:0.55;stroke-miterlimit:5;" d="
		M130.6,95.4l-3.4,2.1"/>
	
		<path id="panel_deicepxind_0_Layer0_0_MEMBER_3_MEMBER_29_1_STROKES" style="fill:none;stroke:#FFFFFF;stroke-width:0.55;stroke-miterlimit:5;" d="
		M128.5,91.4l-5.7,2.3"/>
	
		<path id="panel_deicepxind_0_Layer0_0_MEMBER_3_MEMBER_30_1_STROKES" style="fill:none;stroke:#FFFFFF;stroke-width:0.55;stroke-miterlimit:5;" d="
		M127.2,87.1l-3.7,0.8"/>
	
		<path id="panel_deicepxind_0_Layer0_0_MEMBER_3_MEMBER_31_1_STROKES" style="fill:none;stroke:#FFFFFF;stroke-width:0.55;stroke-miterlimit:5;" d="
		M126.5,82.7l-3.6,0.3"/>
	<path style="fill:#FFFFFF;" d="M149.1,85.2l1.8-8.1l-23-1.4L149.1,85.2z"/>
	<path style="fill:#FFFFFF;" d="M149.1,85.2l1.8-8.1l-23-1.4L149.1,85.2z"/>
	<path d="M151.6,76.5c-1.6,0.9-2.7,2.4-3.1,4.3c-0.4,1.9-0.2,3.7,0.9,5.4c1.1,1.6,2.6,2.7,4.4,3.1s3.7,0.2,5.3-0.8
		c1.6-1.1,2.7-2.6,3.2-4.4c0.4-1.9,0.1-3.7-0.9-5.3c-1-1.7-2.4-2.8-4.3-3.2C155.1,75.1,153.2,75.5,151.6,76.5z"/>
	<path style="fill:#FFFFFF;" d="M159.9,76.6l2.6,7.9l20.7-10.3L159.9,76.6z"/>
	<path style="fill:#FFFFFF;" d="M159.9,76.6l2.6,7.9l20.7-10.3L159.9,76.6z"/>
	<path d="M162.2,85.5c1-1.7,1.2-3.5,0.7-5.4c-0.6-1.9-1.7-3.3-3.5-4.3c-1.7-0.9-3.5-1-5.4-0.5c-1.9,0.6-3.3,1.7-4.2,3.4
		c-0.9,1.7-1.1,3.5-0.6,5.4c0.6,1.9,1.7,3.3,3.4,4.2c1.8,0.9,3.6,1.1,5.4,0.6C159.9,88.3,161.3,87.2,162.2,85.5z"/>
	<path style="fill:#999999;" d="M156.8,29.4h-5.3v46.2c-0.8,0.3-1.5,0.8-2.2,1.4c-1.3,1.3-2,2.9-2,4.8c0,1.9,0.7,3.5,2,4.8
		c0.7,0.6,1.4,1.1,2.2,1.5v45.2h5.3V88.2c0.8-0.4,1.5-0.9,2.2-1.5c1.3-1.3,2-2.9,2-4.8c0-1.9-0.7-3.5-2-4.8
		c-0.6-0.6-1.4-1.1-2.2-1.4V29.4z"/>
	<path d="M161.6,81.4c0-1.9-0.7-3.5-2-4.8c-1.2-1.2-2.6-1.9-4.3-2c-0.1,0-0.2,0-0.3,0c-0.1,0-0.1,0-0.2,0c-1.9,0-3.5,0.7-4.8,2
		s-2,2.9-2,4.8c0,1.9,0.7,3.5,2,4.8c1.3,1.3,2.9,2,4.8,2c0.1,0,0.1,0,0.2,0c0.1,0,0.2,0,0.3,0c1.7-0.1,3.2-0.8,4.3-2
		C161,84.9,161.6,83.3,161.6,81.4z"/>
	
		<path id="panel_deicepxind_0_Layer0_0_MEMBER_7_MEMBER_0_1_STROKES" style="fill:none;stroke:#000000;stroke-linecap:round;stroke-linejoin:round;" d="
		M155.3,74.6c1.7,0.1,3.2,0.8,4.3,2c1.3,1.3,2,2.9,2,4.8c0,1.9-0.7,3.5-2,4.8c-1.2,1.2-2.6,1.9-4.3,2"/>
	
		<path id="panel_deicepxind_0_Layer0_0_MEMBER_7_MEMBER_0_2_STROKES" style="fill:none;stroke:#1A181B;stroke-linecap:round;stroke-linejoin:round;" d="
		M155.3,88.3c-0.1,0-0.2,0-0.3,0 M155,74.6c0.1,0,0.2,0,0.3,0"/>
	
		<path id="panel_deicepxind_0_Layer0_0_MEMBER_7_MEMBER_0_3_STROKES" style="fill:none;stroke:#999999;stroke-linecap:round;stroke-linejoin:round;" d="
		M155,88.3c-0.1,0-0.1,0-0.2,0c-1.9,0-3.5-0.7-4.8-2c-1.3-1.3-2-2.9-2-4.8c0-1.9,0.7-3.5,2-4.8s2.9-2,4.8-2c0.1,0,0.1,0,0.2,0"/>
	<path d="M157.5,29.1h-5.3V133h5.3V29.1z"/>
</g>
</svg>
