<?xml version="1.0" encoding="utf-8"?>
<!-- Generator: Adobe Illustrator 25.0.0, SVG Export Plug-In . SVG Version: 6.00 Build 0)  -->
<svg version="1.1" id="Ebene_1" xmlns="http://www.w3.org/2000/svg" xmlns:xlink="http://www.w3.org/1999/xlink" x="0px" y="0px"
	 viewBox="0 0 349.1 161" style="enable-background:new 0 0 349.1 161;" xml:space="preserve">
<path style="fill:#CCCCCC;" d="M244.9,86.7c1.1-0.5,1.8-1.4,1.9-2.7V73.9c0-0.4-0.2-0.8-0.5-1.1c-0.2-0.3-0.5-0.4-0.9-0.4
	c-0.1-0.1-0.1-0.1-0.2-0.1c-0.3-0.2-0.7-0.3-1.1-0.2l-5.5,3.1v14.6l-0.5,1L244.9,86.7 M131.5,137.1c-0.9,0.5-1.5,1.2-1.8,2.1v11
	l1.2,1l1.6,0.6l17.9-10.3L150,140l0.2-1.1l0.1-0.5v-0.6l0.1-0.2v-4.2l-0.9-0.5v-6.1L131.5,137.1 M152.5,75l0.2-0.1L152.5,75
	c-0.9-0.1-1.6,0.1-2.2,0.6l-18.8,10.8c-0.9,0.5-1.5,1.2-1.8,2.2v11c0.2,0.5,0.6,0.8,1.2,0.9c0,0.1,0.1,0.1,0.1,0.2
	c0.3,0.3,0.7,0.5,1.2,0.5l0.3-0.1l17.9-10.3v-2.1h0.1v-0.6l-0.1-0.1c-0.2-1.7-0.1-3.2,0.1-4.7v-0.1c0-0.7,0.1-1.4,0.3-2.1l-0.1-0.2
	v-0.1l-0.5-0.6l-0.2-1.1l0.3-1.2l0.6-1.2l0.8-1.1L152.5,75 M218.7,36.8l0.4,0.2l4.4-2.4l0.2-0.5l0.9-0.6l1-0.1l0.7-0.4l2.6-0.6
	l0.2,0.1c0.4,0,0.8,0.1,1.2,0.3l1.7,1.1l0.5,0.2c0.2,0.1,0.4,0.3,0.6,0.4c0.2,0.2,0.5,0.4,0.7,0.7c0.1,0.1,0.2,0.3,0.3,0.4l0.4,1
	c0.2,0.5,0.2,1.1,0.2,1.8v2.2l0.6,0.3v0.6l0.9-0.3l8.5-4.9c1.1-0.6,1.7-1.5,1.9-2.7V23.5c0-0.4-0.1-0.8-0.4-1.1
	c-0.3-0.3-0.7-0.5-1.1-0.5l-0.2-0.3l-0.2-0.1h-0.5l-23.6,13.8C219.8,35.6,219.2,36.1,218.7,36.8z"/>
<path style="fill:#B1B1B1;" d="M235.6,42.5l0.1,0.3v0.1l0.1,0.2v0.2l-0.1,0.1l-0.4,0.4l-0.4,0.1l-0.1-0.3v0.2l0.1,0.1l-0.1,8.2
	l3.9,2.3v21l2.9-1.6l-0.1-35l-5.1,2.9l-0.9,0.3v0.7L235.6,42.5 M149.5,91.6l1,0.6V91l-5.8,3.4l0.1,35.3l4.8-2.7v-5.1l0.9-0.5V118
	l-0.9-0.5v-10.4l1-0.5v-3.2l-1-0.5V91.6 M240.3,24V12.8l-10.2-5.9L119.4,70.8v78.3l10.5,5.9l20.3-11.6l0.4-0.4
	c-0.1-0.4-0.2-0.8-0.2-1.3v-0.1l-17.9,10.3h-0.4c-0.4,0-0.8-0.2-1.1-0.5l-0.1-0.1c-0.4,0-0.7-0.2-1-0.5c-0.1-0.1-0.2-0.3-0.2-0.5
	s-0.1-0.4-0.1-0.5v-10c0-0.2,0.1-0.3,0.1-0.5c0.3-0.9,0.9-1.6,1.8-2.1l6.1-3.5V98.4l-5,2.9h-0.3c-0.5,0-0.9-0.2-1.2-0.5
	c-0.1-0.1-0.1-0.1-0.1-0.2c-0.7-0.1-1.1-0.4-1.2-0.8c-0.1-0.2-0.1-0.4-0.1-0.6v-10c0-0.1,0.1-0.3,0.1-0.4c0.3-0.9,0.9-1.6,1.8-2.1
	l18.8-10.9c0.6-0.5,1.4-0.7,2.2-0.7h0.3l0.8-0.4l0.8,0.2H154l-0.9,0.5l-0.9,0.8l-0.8,1.1l-0.6,1.2l-0.2,1.2l0.1,1l0.3,0.7
	c0.3-1.3,0.7-2.5,1.4-3.6c0.2-0.4,0.5-0.8,0.8-1.2c0.2-0.3,0.5-0.6,0.8-0.9s0.6-0.6,0.9-0.9l0.1-0.1l8-6h0.1l0.4-0.3l1.8-1
	c0.2-0.1,0.4-0.2,0.6-0.3l8.7-5.1l0.2,0.1l3.5-2V60l10.7-6.2l0,0.2l3.3-1.8v-0.6l10.8-6.2l0.6,0.4l3.1-1.7v-0.8l11.5-6.6l0.5,0.2
	c0.4-0.7,1.1-1.2,1.8-1.4L240.3,24z"/>
<path id="Layer0_8_MEMBER_0_1_STROKES" style="fill:none;stroke:#000000;stroke-width:0.55;stroke-miterlimit:59.9993;" d="
	M28.6,13.3c1.8-1.3,3.6-2.4,5.4-3.4c3.4-1.8,7-3.1,10.8-4.1c0.9-0.2,1.7-0.4,2.4-0.5c0.5-0.1,1-0.2,1.4-0.2c1.5-0.2,2.9-0.4,4.2-0.5
	c1.8-0.1,3.3-0.1,4.6-0.1c1.9-0.1,3.7,0,5.6,0.2c1.9,0.2,3.7,0.4,5.4,0.8c0.6,0.1,1.1,0.2,1.5,0.3c1.2,0.3,2.4,0.6,3.4,0.9
	c1.6,0.5,3.2,1.1,4.8,1.8l0,0c2.3,1.1,4.6,2.4,6.7,3.8c3.8,2.6,7.3,5.5,10.4,8.8h0.1l0.4-0.2l0.5-0.3l0.2-0.1
	c-3.5-3.7-7.1-6.8-10.9-9.3c-2.3-1.5-4.6-2.8-7-4c-3.8-1.7-7.8-2.9-12.1-3.6c-3.2-0.5-6.3-0.6-9.1-0.5c-2.7-0.1-5.4,0-8.1,0.4
	c-5.6,0.8-11,2.5-16,5.1c-2,1.1-4,2.3-6,3.8c-2.8,2.1-5.4,4.4-7.8,6.9l0.4,0.2l0.5,0.3l0.4,0.2c1.4-1.5,2.9-2.9,4.3-4.1
	c0.7-0.6,1.7-1.4,3.1-2.5L28.6,13.3z M20.9,20.1l4,1.7l0.8,0.3l1,5.3l-0.7,1c-2.6,3.8-4.6,7.8-6.1,12.1v0.1L9.5,42.2
	c-1,5-1.2,10-0.5,15.1c0.7,5,2.1,10,4.4,14.7l3.3-2.2v-9.6v-9.8l3.8-8.5h10.6v4l-1.9,4.9v1.5h1.9v0.9l-1.9,0.9v4.1h1.9v1.1l-1.9,1.4
	v3.4h1.9v1L29.2,67v2l-1.1,1.1H16.9l-0.2-0.3 M38.8,21.6h10.8v-9.4v-0.1l-3,0.7l-4.3,1.5l-4.1,1.9l-3.8,2.5l-3.5,2.8h7.9V21.6z
	 M38.8,21.6v37.5v2.1h10.8V21.6 M68.4,5.5l-1.8,5.4h-16l-2-5.8 M49.6,12.3L49.6,12.3v-0.2l0,0 M49.6,61.2l1.8-1.1V16.9l-0.8-2H57
	l0.2,2h0.3v-2h9.2l-0.8,2l0,0v43.2l1.7,1.1V21.5v-9.2 M67.6,12.3l-0.8,2.1H50.4l-0.8-2.1C49.6,12.3,67.6,12.3,67.6,12.3z M67.6,12.3
	l2.3-6.5 M57.5,16.9h8.4 M57.2,16.9h-5.8 M47.2,5.3l2.3,6.8 M67.6,12.3l5.6,2l4.1,1.9l3.8,2.4l3.5,2.8c2,2.1,3.6,4.5,4.9,7
	 M67.6,61.2H76V59V21.5h-8.4 M95.2,21.2l-3.6,1.6l-1.1,5.7l0.9,1.3c2.6,3.7,4.5,7.7,5.9,11.8L107,43v-0.3l-0.4-1.6
	c-1.9-7.5-5.5-14.2-10.8-20.2 M91.6,22.7L91,23l-1,5.4l0.8,1.1c2.6,3.7,4.6,7.7,6.1,12L107,43v-0.1l0.6,0.1l-0.5-2.3
	c-1.9-7.5-5.5-14.3-10.8-20.2 M84.7,21.5H76 M103.7,72.9c1.8-3.1,3.2-6.4,4.1-9.8c1.8-6.6,1.9-13.2,0.4-20l-0.6,0.1l-0.6,0.1h-0.2
	c1.4,6.6,1.3,13.1-0.4,19.5c-0.9,3.3-2.2,6.4-3.9,9.4c0,0,0,0.1-0.1,0.1H13.5c0-0.1-0.1-0.1-0.1-0.2 M107.1,43.1L107.1,43.1
	 M107.6,43.1L107.6,43.1 M85.4,42l3.1,8.5l0,0h11.3L95.9,42H85.4z M87.2,53.3l-1.9-0.9v0.9l1.9,0.9V53.3z M87.2,53.3v-0.9h-1.9
	 M85.4,45.9l1.9,4.9v1.5 M87.2,54.2v4.1v1.4v1.1v3.4v1.9v1V69l1.2,1.1v-9.8v-9.8 M87.2,59.7l-1.9-1.4v1.1l1.9,1.4 M87.2,58.3h-1.9
	 M85.3,64.2l1.9,1.9 M85.3,64.2v1l1.9,1.9 M87.2,64.2h-1.9 M88.4,60.2h11.3v-9.8 M76,59h8.1 M88.4,70.1h11.2l0.2-9.8 M102.6,72.1
	l-2.7-1.8 M53.2,40.6h1.1 M53.2,40.6h-0.9v-2.1h0.9h1.1v2.1 M53.2,38.4v2.1 M38.8,59.1H32 M65.9,60.1L65.9,60.1H51.3 M20.5,19.9
	c-5.3,6-8.9,12.7-10.8,20.2l-0.4,1.6V42l9.8-1.4c1.4-4.2,3.3-8.2,6-12l0.8-1.2l-1-5.5 M9.2,42.1H8.8 M9.2,42.1v-0.2l-0.4,0.2H8.6
	L7.9,42c-1,5.1-1.2,10.3-0.5,15.5c0.7,5.3,2.3,10.4,4.6,15.4 M8.7,42.1l0.1-0.6l0.4-1.6c1.9-7.5,5.5-14.2,10.8-20.2 M9.5,42.2H9.1
	 M29.3,54.2v-0.9v-0.9 M31.2,42l-3.1,8.5l0,0v9.8v9.8 M29.3,67.1v-1v-1.9 M29.3,60.8v-1.1v-1.4 M28.1,50.4H16.7 M16.7,60.2h11.4
	 M31.2,52.4l-1.9,0.9 M31.2,58.3l-1.9,1.4 M31.2,64.2l-1.9,1.9 M67.6,61.2h-18 M30.8,21.6c-1.4,1.6-2.6,3.2-3.5,5 M67.6,12.3
	L67.6,12.3"/>
<path id="Layer0_8_MEMBER_1_1_STROKES" style="fill:none;stroke:#000000;stroke-width:0.55;stroke-miterlimit:4.9999;" d="
	M85.4,45.9v-4"/>
<path style="fill:#FB0219;" d="M99.8,50.5L95.9,42H85.4l3.1,8.5H99.8z"/>
<path d="M87.2,54.2v-0.9l-1.9-0.9v0.9L87.2,54.2z"/>
<path d="M85.3,58.4v1.1l1.9,1.4v-1.1L85.3,58.4z"/>
<path d="M85.3,64.2v1l1.9,1.9v-1L85.3,64.2z"/>
<path d="M85.4,43.6V46l1.9,4.9V69l0.8,0.6V50.7L85.4,43.6z"/>
<path style="fill:#FB0219;" d="M99.8,51H89v19.1h10.6l0.2,0.1C99.8,70.2,99.8,51,99.8,51z"/>
<path style="fill:#0099FF;" d="M214.2,39.2L214.2,39.2c-0.4,0-0.7,0-1.2,0.2c-0.9,0.4-1.4,0.8-1.6,1.2c-0.4,0.1-1.1,0.4-1.9,0.8
	c-1.6,0.9-2.5,1.7-2.8,2.6l-3.2,1.8c-0.2-0.5-0.9-0.3-2.1,0.6c-0.2,0.1-0.4,0.3-0.6,0.4c-0.4,0.1-1,0.4-1.8,0.9
	c-1,0.6-1.9,1.2-2.9,1.9c-0.3,0-0.8,0.1-1.5,0.4c-1.3,0.6-1.9,1.2-1.9,1.7c0,0.1,0,0.1,0,0.2L189,54c-0.4-0.1-1,0.1-2,0.7
	c-0.6,0.4-1.1,0.7-1.4,0.9c-0.3,0.1-0.7,0.3-1.1,0.6c-0.3,0.2-0.6,0.4-0.9,0.6c-0.6,0.1-1.2,0.4-1.9,0.9c-0.6,0.4-1,0.7-1.1,1
	l-17.3,9.7l-8.4,6.3c-1.1,1-2,2-2.6,3.1c-1,1.6-1.5,3.5-1.7,5.6v7.9l0,0c-0.4,0-0.6,0.2-0.7,0.6c-0.2,0.2-0.3,0.4-0.3,0.8l-0.1,3.4
	c0,0,0,0.2,0,0.6c0,0.2,0.1,0.3,0.2,0.4l-0.1,4.7c0,0.6,0.3,1,0.9,1.1v3.5c-0.4-0.3-0.6,0-0.8,0.9c-0.1,0.7-0.1,1.4-0.1,2.3
	c0,1.4,0,2.4,0.1,3.1c0,0.2,0,0.8-0.1,1.8v0.1c-0.1,0.4-0.2,0.7-0.2,1.1v0.8c0.1,0.5,0.4,0.8,0.9,0.8h0.1l-0.1,3.9
	c-0.1,0-0.2,0.1-0.3,0.2c-0.4,0-0.6,0.2-0.6,0.6c0,0.1,0,0.2,0.1,0.4c0.1,0.1,0.1,0.2,0.2,0.2c-0.1,0.1-0.1,0.2-0.1,0.2v5.7
	c-0.1,0.4-0.1,1-0.1,1.8v1.2c0.1,0.8,0.4,1.2,0.8,1.2v7.9l0.8,2.9l3.2,2.5l2.1,0.8l2.3-0.4l12.4-7.1l4.2,2.6l50.2-29.5l4.5-7.8
	c0.1,0,0.2,0.1,0.3,0.1c1.1,0,2.5-2.2,4.2-6.8c0-0.3-0.1-0.5-0.2-0.6l4.6-7.9V54.2l-3.9-2.3l-0.1-9c0.4,0,0.6-0.4,0.6-1
	c0-0.7-0.2-1.1-0.6-1.1v-2.9c-0.1-1.1-0.4-2-0.8-2.6c-0.3-0.4-0.8-0.8-1.3-1.1l-3.6-1.7l-2.6,0.6l-7.6,4.2c-0.1-0.3-0.4-0.4-0.8-0.4
	c-0.6,0-1.5,0.4-2.6,1.3C214.9,38.6,214.5,39,214.2,39.2z"/>
<path id="Layer0_10_MEMBER_0_MEMBER_1_1_STROKES" style="fill:none;stroke:#000000;stroke-width:0.55;stroke-miterlimit:5;" d="
	M165.2,72.4l0.5,0.3 M165.1,73.9l-0.5-0.3 M161.4,145.2l-2,1.1c-1.8,1-3.4,1.2-4.7,0.5c-0.2-0.1-0.4-0.3-0.6-0.4l-1.9-1.1
	c-1.2-0.8-1.8-2-1.9-3.7c0.1-2,0.1-3.4,0-4.3l0.8-0.5v-0.2l-0.5,0.2V89.1l0.5-0.3v-0.2l-0.8-0.4c-0.8-8,2.5-13.7,9.9-17.1l0.8,0.5
	l0.1-0.1V71l61-35.2l-0.3-0.2 M179,65.1l0.5,0.4l0,0L168.7,72h-0.1l6.4,3.6l50.5-29.2l-6.3-3.6l-10,5.7 M155.6,85.4
	c-0.4-0.3-0.7-0.7-0.9-1.2c-0.2-0.6-0.2-1.4,0.1-2.4c0.4-1.6,1.1-2.8,2.1-3.5c0.7-0.7,1.3-1.1,2-1.3c0.3-0.1,0.6-0.1,0.9,0
	c1,0.1,1.6,0.9,1.6,2.4c0.1,1.4-0.5,2.8-1.6,4.3c-1.2,1.6-2.5,2.2-3.8,2 M163.3,77.6l-1-0.6 M163.9,77.4l-0.2,0.2 M164.1,76.3
	l-1-0.6 M159.5,77.6l0.3,0.2 M234.8,40.8v-2.2c0-2.1-0.7-3.5-2-4.2l0,0l-0.1-0.1c-1.2-0.7-2.7-0.5-4.5,0.5l-68.8,39.7
	c-1.8,1.1-3.4,2.7-4.7,4.9c-1.3,2.2-1.9,4.4-1.9,6.5v56.6c0,1.8,0.5,3.1,1.3,3.9 M154.4,74.7l0.3,0.2 M150.5,81.4l0.3,0.2
	 M154.8,84.1l0.5,0.1 M156.7,89l-1-0.6 M154.6,92.2l-0.5-0.3 M155.2,91.1l-0.4-0.3 M159.3,77.3l-0.3-0.4 M155.3,121.2v9.4l6.4,3.6
	V98.7l-6.4-3.6v10.7l-0.5-0.3 M157.5,87.7l-1-0.6 M168.6,72.1l-13.3,23 M222.2,35.8l0.1,0.5l0.2-0.1v-0.9c0.9-0.4,2.2-1.1,3.8-2.2
	c1.4-0.7,2.8-0.8,4.1-0.2l2.3,1.4 M222.5,36.2l0.8-0.5l-0.8-0.4 M223.5,39.5l-0.5-0.3 M222.9,40.6l-0.5-0.3 M226.9,42.8l-0.5-0.1
	c0,0.2,0.1,0.3,0.2,0.4c0.5,1,1.3,1.2,2.5,0.8c1.1-0.4,2-1.3,2.8-2.5s1.2-2.4,1.1-3.6c0-1.6-0.6-2.3-1.8-2.4c-0.3,0-0.5,0-0.8,0.1
	l0.4,0.5 M228.4,40l-1.1-0.6 M229.2,38.7l-1-0.5 M225.4,46.5l9.4,5.4v-8.2l-0.9-0.5 M234.1,45.5l-0.5-0.3 M233.5,46.6l-0.5-0.2
	 M235.7,42.5l-1-0.6 M226.6,40.1c-0.3,1-0.4,1.9-0.2,2.7 M228.4,37.1c0.7-0.8,1.4-1.3,2.2-1.5 M206.7,44.3v-1 M206.7,44.3l0.9-0.5
	l-0.9-0.5l11.5-6.7 M162.7,68.7l11.5-6.7l0.9,0.5l2.8-1.6V60l10.7-6.2l0.9,0.5l2.8-1.6v-1.1l10.7-6.2l1,0.6l2.8-1.6 M209.1,47.8
	l-0.5-0.2 M204.6,50.2l0.5-0.1 M203.2,55l0.4,0.2 M206.2,55.6l0.3-0.1 M207.9,48.6l0.5,0.3l-2,1.3 M202.5,52.5l-7.8,4.5 M192.3,52.7
	l0.9-0.5l-0.9-0.5 M180.2,65.3l13.7-8.1l-0.4-0.3 M194.7,56.1l-0.5-0.3 M177.9,61l1-0.6l-1-0.5 M179.6,64l0.5,0.3 M227.1,109.9
	l2.4-4.2h-0.1c0,0,0.1,0,0.1-0.1l5.1-8.9l4-7V54.2l-3.9-2.3 M161.2,71.6l61.1-35.3 M175,75.7l-13.3,23 M234.7,96.8
	c-0.3,1.6-0.9,3.3-1.8,4.9c-0.2,0.3-0.4,0.6-0.6,0.9c-0.8,1.2-1.7,2.2-2.7,3l0,0 M223.9,111.1l-0.3,0.3l-0.8,0.3l-0.7-0.2l-0.4-0.5
	l-0.2-0.8l0.2-1l0.4-1l0.7-0.9l0.8-0.7l0.8-0.2l0.7,0.1l0.4,0.5l0.2,0.8l-0.1,0.7 M161.7,134.2l9.3,5.4l4,2.3l50.5-29.2l0.4-0.7
	 M149.5,117.4V107l1-0.5 M154.6,106.9l-0.5-0.3 M155.3,106.5v13.9l-0.5-0.2 M154.6,121.5l-0.5-0.3 M149.5,132.9v-11.2l1-0.5
	 M165.8,141.1l-0.5-0.3 M150.5,137.3l0.8,0.5v-1 M156.7,138.5c0.8-0.9,1.5-1.4,2.2-1.6c0.7-0.2,1.3-0.1,1.9,0.5c1,1,1,2.6,0,4.7
	c-0.6,1.6-1.7,2.7-3.3,3.4c-1.4,0.6-2.4,0.2-2.7-1.2c-0.1-0.3-0.1-0.6-0.2-1l0.1-1.1l0.2-0.5 M157.5,140l-1-0.5 M155.2,135l-0.4-0.3
	 M154.6,136.1l-0.5-0.3 M154.8,144.1h0.4 M165.2,142.3l-0.5-0.3 M165.9,141.5v-0.1 M164.1,143.8L164.1,143.8l-1-0.5 M163.3,145.2
	l-1-0.6 M164.2,144.4v-0.3 M160.6,144.7l-0.2-0.1 M162.5,141.8l-0.2-0.2 M158.9,136.9l0.4,0.5 M156.7,141.3l-1-0.5 M164,143.8l7-4.1
	 M151.3,136.7V88.9 M149.5,102.8V91.6"/>
<path id="Layer0_10_MEMBER_0_MEMBER_2_1_STROKES" style="fill:none;stroke:#000000;stroke-width:0.55;stroke-miterlimit:60;" d="
	M162.7,68.7l0.9,0.5l-2.6,1.5l-0.1,0.1v0.7 M161.4,71.1l0.3,0.2 M163.3,74.7l-1.3,0.8l-0.7,1.7L162,78l1.2-0.7v-0.1l0.2-0.5l0.4-0.4
	h0.1l0.2-0.7L163.3,74.7z M163.3,74.7l-1.2-0.7c-0.5-0.2-1,0-1.4,0.7c-0.4,0.6-0.7,1.1-0.7,1.7v0.1l1.3,0.6 M162.3,77l-0.2-0.3
	l0.2-0.5l0.3-0.4l0.4-0.1 M163.2,77.3l0.1,0.3l0.4-0.2l-0.1-0.2l0.1-0.3l0.2-0.3h0.2l0.1,0.2v-0.2l-0.2-0.4l-0.3,0.1 M163.7,77.4
	h0.2l0.2-0.2l0.1-0.3 M160.5,77.1c-0.2-0.1-0.3-0.4-0.4-0.7 M154.8,82.3c0,1.7,0.6,2.4,1.9,2.2c1.2-0.3,2.2-1,2.8-2.4l0.5-1.2
	l0.3-1.2l-0.1-1l-0.4-0.8l-0.7-0.4l-0.9,0.1l-0.7,0.3 M160.9,77.4L162,78 M162,75.4l-1.1-0.7 M154.7,74.9h-0.3h-0.5l-1,0.5l-0.9,0.8
	l-0.8,1.1l-0.5,1.2l-0.3,1.2l0.1,1l0.2,0.5l0.1,0.3 M154.4,74.9l-0.9-0.2l-1,0.5l-0.9,0.8l-0.8,1.1l-0.5,1.2l-0.3,1.2l0.1,1.1
	l0.6,0.7 M151.2,80.2l0.3-1l0.7-1.4l0.8-1.2l0.8-0.8 M155,85.6l-0.3,0.2l-0.3,0.3l1.2-0.7l-0.3,0.1L155,85.6z M155.3,85.3l0.3,0.1
	l0.2,0.1l0.9,0.5l0.6,1l-0.2,0.7h0.3l0.2,0.3v0.2l-0.1,0.4l-0.3,0.2H157l-0.4,0.2l-0.1-0.2l-1.2,0.6l-1.1-0.6l-0.1-0.1l-0.2-0.1
	l-0.2-0.1c-0.4-0.3-0.5-0.8-0.3-1.6l0.3-0.7l0.2-0.3l0.3-0.3l0.3-0.2l0.3-0.2L155.3,85.3L155.3,85.3z M154.4,86.1L154.4,86.1l1,0.7
	l1.4-0.8 M154.3,86.1l-0.1,0.1l-0.5,1.5l-0.1,0.1l1.1,0.7l0.6-1.7 M154.3,86.3l-0.2,0.2l-0.2,0.3l-0.1,0.3l-0.1,0.5v0.2 M155.7,88.4
	l-0.2-0.4l0.2-0.5l0.4-0.4l0.4-0.1 M157.2,87.7L157.2,87.7l-0.5,0.4l-0.1,0.5v0.1 M157.7,88.2l-0.1-0.2l-0.3,0.1l-0.2,0.3l-0.1,0.3
	l0.1,0.2h0.1 M153.7,87.8l0.1,0.1l0.5,0.8 M153.7,87.9L153.7,87.9l0.1,0.5l0.1,0.2 M155.4,89.3l-0.6-0.9 M150.5,88.9l0.3,0.2
	 M150.5,88.9v3.2l-1-0.5 M151.1,88.6l-0.6,0.3 M225.6,33.3l-0.9,0.3l-0.9,0.7l-0.3,0.4 M222.9,39.8l-0.1,0.4l0.1,0.4l0.3-0.1
	l0.1-0.1H223l-0.1-0.3l0.1-0.3l0.3-0.3h0.2l0.1,0.1l-0.1-0.3h-0.3L222.9,39.8z M223.3,40.5l0.2-0.3l0.1-0.4l-0.1-0.1 M222.1,36.1
	l0.3,0.2 M221.9,35.6l-2.8,1.6l-0.9-0.5 M226.4,41.5l0.3,0.9l0.3,0.3l0.2,0.2c1.9,0.8,3.4-0.4,4.4-3.4c0.4-1.2,0.4-2.1,0.1-2.7
	c-0.1-0.3-0.3-0.5-0.6-0.6c-0.1-0.1-0.2-0.1-0.3-0.1c-0.4-0.1-0.8,0-1.4,0.2 M234.3,40.5l1.1,0.7v1.4h0.2l0.1,0.3l0,0l0.1,0.2
	l-0.1,0.3l-0.3,0.3l-0.2,0.1l-0.4,0.1l-0.1-0.3l-0.5,0.5l-1.1-0.1l-1.2-0.7c-0.4-0.4-0.4-0.9-0.1-1.5l0,0c0.3-0.6,0.6-1.1,1.1-1.4
	c0.1,0,0.1-0.1,0.2-0.1c0.3-0.1,0.6-0.1,0.8,0 M227.7,36.7l1.1,0.7v1.3h0.3v0.4l0.1,0.2l-0.1,0.3l-0.2,0.3l-0.2,0.1l-0.3,0.1
	l-0.1-0.3l-0.6,0.5l-1.1-0.1l-1.2-0.7c-0.4-0.3-0.5-0.8-0.2-1.5c0.1-0.2,0.2-0.3,0.3-0.5c0.3-0.5,0.6-0.8,0.9-1
	c0.3-0.1,0.6-0.1,0.9,0.1 M227.3,39.4l-0.1-0.3l0.1-0.5l0.4-0.4h0.4 M225.3,37.9l1.4,0.7l1.1-1.4l-1.2-0.8 M226.6,38.7v1.5
	 M228.3,39.7L228.3,39.7l0.1-0.6l0.3-0.4h0.1 M229,39.9l-0.2,0.1l-0.1-0.2l0.1-0.4l0.2-0.2h0.2 M228.9,37.4l-1.1-0.1 M234,43.2
	l-0.2-0.4l0.2-0.5l0.4-0.4l0.4-0.1 M235.5,41.2l-1.1-0.1l-1.1,1.4V44 M234.8,43.5L234.8,43.5l0.1-0.6l0.4-0.4h0.1 M235.5,43.6h-0.2
	l-0.1-0.2l0.1-0.3l0.2-0.3l0.3-0.1 M233.2,42.5l-1.3-0.7 M234.3,41l-1.2-0.8 M205.3,45.2l-0.4,0.1l-0.4,0.4 M209.1,48h-0.3l-0.3,0.3
	l-0.1,0.4l0.1,0.2l0.3-0.1l0.2-0.2l0.1-0.4v-0.1V48z M209.1,48l-0.1-0.2l-0.3,0.1l-0.3,0.3l-0.1,0.5l0.1,0.3h0.3l0.1-0.1
	 M208.8,52.6v1.5 M208.8,52.6l-0.2-0.1l-0.3,0.1l-0.4,0.2c-0.2,0.1-0.3,0.3-0.5,0.4c-0.1,0-0.2,0.1-0.3,0.1l-0.1,0.1l-0.3,0.2
	l-0.2,0.3v1.5l0.2,0.1l0.5-0.2l0.2-0.1l0.5-0.3l0.6-0.5l0.1-0.1l0.2-0.3 M206.5,55.4l-0.3,0.2h-0.7l-1.8-0.4l-0.1-0.1l-0.3-0.2h-0.1
	l-0.1-0.1l-0.5-1.4l-0.1-0.4v-1.5l0.2-0.3L203,51l0.4-0.2c0.2-0.1,0.3-0.2,0.5-0.3c0.1-0.1,0.3-0.2,0.4-0.2c0.1,0,0.2-0.1,0.3-0.1
	c0.4-0.1,0.9-0.2,1.5-0.1c0.2,0,0.5,0.1,0.7,0.2c0.2,0,0.3,0.1,0.5,0.2c0.4,0.2,0.7,0.3,0.9,0.5s0.4,0.4,0.4,0.6c0,0.1,0,0.2,0,0.3
	l0.1,0.3l0.1,0.1l0.1,0.4 M203.1,52.6c0.2,0.2,0.6,0.4,1,0.6 M203.1,52.6l0.3,0.9l0.3-0.2h0.8c-0.1,0-0.2-0.1-0.3-0.1 M204.4,53.3
	c0.3,0.1,0.5,0.1,0.8,0.2c0.2,0,0.3,0,0.5,0.1c0.5,0,1-0.1,1.4-0.2 M205.7,53.5l0.5,0.1l0.1,0.1l0.3,0.2 M205.1,50.1h0.9
	 M207.9,52.8c0.4-0.3,0.6-0.7,0.7-0.9 M203.3,55v-1.5 M202.5,51.6l0.1-0.1l0.1,0.2c0-0.3,0.3-0.6,0.7-1 M202.7,51.8
	c0,0.3,0.1,0.6,0.4,0.8 M179.7,64.9l-0.1,0.4l0.1,0.2h0.3l0.2-0.3l0.1-0.3l-0.1-0.3l-0.2,0.1L179.7,64.9z M235.2,95.8l0.1,0.2h0.1
	h0.2l0.3-0.3l0.1-0.3l-0.1-0.2l-0.2,0.1l-0.1,0.1 M235.4,96.1l-0.3,0.1 M235.7,94.9l0.2,0.3v0.2 M228.4,107.6l0.3-0.1l-0.1-0.2
	 M228.8,107.4h0.2l0.2-0.3l0.1-0.3l-0.1-0.2H229 M229.3,106.9v-0.2l-0.1-0.3 M149.5,117.4l1,0.5v4.3l-1-0.5 M149.5,102.8l1,0.5v4.3
	l-1-0.5 M154.8,142.8l0.3,0.9l0.3,0.3l0.3,0.3c1.8,0.8,3.3-0.4,4.3-3.4c0.4-1.2,0.5-2.1,0.2-2.7c-0.1-0.3-0.4-0.5-0.7-0.7
	c-0.1,0-0.2-0.1-0.3-0.1c-0.4-0.1-0.8,0-1.4,0.2 M149.5,132.9l1,0.5v3.2l0.3,0.1l-0.3,0.6l-0.2,0.4v0.7l0.2,0.7 M150.9,136.6
	l0.4,0.2 M150.3,138.5l-0.1,0.5l-0.1,1.1l0.3,0.9 M155.3,137.9l-0.2,0.1H155h0.1l1,0.1L156,138l-0.2-0.1H155.3z M156.1,138.1
	L156.1,138.1l1.1,0.7v1.4l0.2-0.1l0.1,0.4 M157.6,140.4l0.1,0.2l-0.1,0.3l-0.3,0.3l-0.2,0.1h-0.4l-0.1-0.2l-0.5,0.5l-1.1-0.1l-1-0.6
	l-0.2-0.1c-0.5-0.4-0.5-1.1,0.1-2.1s1.2-1.3,1.8-0.9 M155,138l-0.1,0.1l-1,1.2l-0.1,0.1l1.1,0.7l1.1-1.4l-1-0.6V138L155,138z
	 M155,138L155,138 M154.9,138.1l-0.1,0.1l-0.3,0.3l-0.4,0.6l-0.1,0.2 M153.8,139.4v0.1v1.3v0.1 M153.8,139.5l-0.1,0.7l0.1,0.6
	 M155.7,140.8l-0.2-0.4l0.2-0.5l0.4-0.4h0.4 M157.2,140.1L157.2,140.1l-0.5,0.4l-0.1,0.5v0.1 M157.6,140.4l-0.3,0.1l-0.2,0.2
	L157,141l0.1,0.2h0.2 M157.2,138.7l-1.1-0.1 M162.6,141.9l-1-0.1h-0.1l1.1,0.7l1.2,0.1L162.6,141.9 M162.6,141.9
	c-0.1-0.1-0.2-0.2-0.3-0.2h-0.1c-0.2-0.1-0.3-0.1-0.4-0.1c-0.1,0.1-0.3,0.1-0.5,0.2c-0.5,0.3-0.8,0.8-1.1,1.4
	c-0.3,0.7-0.2,1.2,0.2,1.6v-0.1l-0.1-0.6l0.1-0.8v-0.1l0.1-0.1c0.3-0.6,0.6-1,1-1.2l0.1-0.1 M162.2,141.6h-0.1
	c-0.1,0-0.2,0.1-0.5,0.2 M162.3,144.6l-0.2-0.4l0.2-0.5l0.3-0.4h0.4 M164.1,144.2l-0.2,0.1 M164.1,144.2l-0.1-0.4h-0.2h-0.1
	l-0.4,0.4l-0.2,0.5v0.1l0.1,0.3l0.4-0.1l0.2-0.1h-0.2l-0.1-0.2l0.1-0.3l0.2-0.2 M163.9,145l0.2-0.3l0.1-0.3l-0.1-0.2 M163.8,143.8
	v-1.3 M160.4,143.2l1.1,0.7l1.1-1.4 M160.4,143.2v1.4 M160.4,144.6l0.2,0.1l1,0.6v-1.5 M161.5,145.3l1.1,0.1l0.6-0.5 M155,141.5V140
	 M235.2,95.8L235.2,95.8 M157.6,140.4L157.6,140.4 M162.6,141.9L162.6,141.9 M155,138L155,138"/>
<path id="Layer0_10_MEMBER_0_MEMBER_3_1_STROKES" style="fill:none;stroke:#000000;stroke-width:0.55;stroke-miterlimit:60;" d="
	M162.2,70h-0.3c-0.3,0-0.6,0.1-0.9,0.4c-0.3,0.2-0.4,0.5-0.4,0.9 M165.8,73l-0.3,0.1 M165.8,73l-0.1-0.1h-0.3l-0.3,0.3l-0.2,0.4
	l0.2,0.3l0.3-0.1l0.1-0.1h-0.3l-0.1-0.2l0.1-0.3l0.3-0.3 M165.5,73.8l0.3-0.3l0.1-0.3v-0.1l-0.1-0.2 M164.6,73.6l-0.2-0.3l0.2-0.4
	l0.3-0.3l0.3-0.1 M160.9,77.3l-0.7-0.9l0.7-1.7l1.3-0.7 M157.4,80l0.5-0.2l0.4,0.2l0.1,0.5l-0.3,0.6l-0.4,0.6l-0.5,0.2l-0.4-0.3
	l-0.1-0.5l0.2-0.6L157.4,80z M154.1,91.9l-0.1-0.3l0.1-0.4l0.3-0.3l0.3-0.1 M155.3,91.4l-0.1-0.2 M155.3,91.4l-0.1-0.4l-0.3,0.1
	l-0.3,0.4l-0.2,0.4l0.2,0.3l0.3-0.1h-0.1l-0.1-0.2l0.1-0.4l0.2-0.3l0.3-0.1 M154.9,92.2h0.1l0.3-0.3l0.1-0.3v-0.1 M225,33.5l0.3,0.2
	 M222.4,40.3l-0.1-0.3l0.1-0.4l0.3-0.4h0.3 M234.2,40.5l-1-0.1l-0.7,0.9l0.5,0.3 M227.7,36.7l-1.1-0.1l-1.1,1.4v1.5 M229.5,38.5
	l0.3,0.2l0.1,0.5l-0.2,0.7l-0.4,0.5l-0.5,0.2l-0.3-0.2l-0.1-0.3 M232.5,41.3l-0.4,0.5v1.5 M233,46.4l-0.1-0.3l0.1-0.4l0.3-0.4h0.3
	 M233.8,45.6l-0.3,0.3l-0.2,0.4l0.2,0.3h0.2l-0.1-0.3l0.1-0.3l0.3-0.3h0.2l0.1,0.1l-0.1-0.4L233.8,45.6z M233.6,46.6l0.3-0.1
	l0.2-0.3l0.1-0.3l-0.1-0.1 M233.6,46.6h0.2l0.1-0.1 M244.7,46.2c0.2,0,0.3,0.1,0.4,0.1 M244.7,46.2c-0.2,0-0.4,0.1-0.7,0.2
	c-0.4,0.3-0.8,0.6-1.1,1.1s-0.4,1-0.4,1.5c0,0.4,0.1,0.7,0.3,0.9l0.1,0.1c0.3,0.2,0.7,0.1,1.1-0.1c0.4-0.3,0.7-0.6,1-1.1
	s0.5-1,0.5-1.5s-0.1-0.8-0.4-1 M242.8,49.9l-0.3-0.1v-0.1c-0.3-0.1-0.4-0.5-0.4-1s0.1-1,0.4-1.5s0.7-0.9,1.1-1.1
	c0.4-0.2,0.7-0.2,1,0 M244.7,47.1c0.4,0.3,0.4,0.7,0,1.5c-0.2,0.3-0.4,0.6-0.7,0.7c-0.3,0.1-0.5,0.2-0.7,0.1c-0.1,0-0.1-0.1-0.2-0.2
	c-0.1-0.1-0.1-0.3-0.1-0.4c0-0.3,0.1-0.6,0.3-0.9c0.4-0.6,0.7-0.9,1.1-0.8C244.6,47,244.7,47,244.7,47.1z M207.9,48.6l-0.1-0.3
	l0.1-0.5l0.3-0.3h0.3 M194.7,56.5l-0.1-0.1h-0.3l-0.2,0.3l-0.1,0.4l0.1,0.2l0.3-0.1l0.3-0.2V56.5L194.7,56.5z M194.7,56.5l-0.1-0.4
	l-0.3,0.1l-0.4,0.4l-0.1,0.4l0.1,0.3h0.4l0.1-0.1 M193.5,57l-0.1-0.3l0.1-0.4l0.3-0.3l0.3-0.1 M215.1,68.9c-0.4-0.3-0.9,0-1.4,0.8
	c-0.4,0.8-0.4,1.3,0,1.6c0-0.1,0-0.2,0-0.4c0-0.3,0.1-0.7,0.3-1c0.5-0.8,0.9-1.1,1.4-0.8c0.2,0.1,0.2,0.4,0.1,0.9l0.2,0.1h0.1
	c0.3,0.2,0.3,0.5,0,0.9s-0.5,0.6-0.8,0.5l-0.4-0.2c-0.3,0.2-0.6,0.3-0.7,0.2c-0.1,0-0.1-0.1-0.2-0.2 M190.9,53.5l-0.4,0.1L190,54
	 M176.4,61.9L176,62l-0.2,0.1l-0.4,0.2 M176,62L176,62l-0.2,0.1 M180.3,64.8l-0.1-0.3h-0.3l-0.3,0.4l-0.1,0.4l0.1,0.3l0.3-0.1
	 M179.1,65.3l-0.2-0.3l0.2-0.4l0.3-0.3l0.3-0.1 M215.1,79.5c-0.2-0.1-0.4-0.1-0.7,0.1c-0.3,0.1-0.5,0.4-0.7,0.7s-0.3,0.7-0.3,1
	s0.1,0.5,0.3,0.6c-0.2-0.3-0.1-0.7,0.2-1.3c0.5-0.8,0.9-1.1,1.4-0.8c0.2,0.1,0.2,0.4,0.2,0.9l0.1,0.1c0,0,0.1,0,0.2,0.1
	c0.2,0.2,0.2,0.5-0.1,0.9c-0.2,0.4-0.5,0.6-0.7,0.5c0,0,0,0-0.1,0l-0.3-0.2c-0.3,0.2-0.6,0.3-0.7,0.2c-0.1-0.1-0.2-0.1-0.2-0.2
	 M215.1,90.3c-0.4-0.3-0.9,0-1.4,0.8c-0.2,0.3-0.3,0.7-0.3,1s0.1,0.5,0.3,0.5c-0.2-0.3-0.1-0.7,0.2-1.4c0.4-0.8,0.9-1,1.4-0.8
	c0.2,0.1,0.3,0.4,0.2,0.9l0.3,0.2c0.3,0.1,0.2,0.4-0.1,0.9c-0.3,0.4-0.5,0.6-0.8,0.4l-0.1-0.1l-0.2-0.1c-0.3,0.2-0.5,0.3-0.7,0.2
	c-0.1-0.1-0.2-0.1-0.2-0.2 M249.7,51.2c-0.3,0.6-0.3,1,0,1.2 M250.3,50.7c-0.2,0.1-0.4,0.3-0.5,0.5 M250.7,50.6
	c-0.1,0-0.2,0-0.4,0.1 M249.7,50l1,0.6 M249.7,50c-0.3-0.2-0.7,0-1,0.6c-0.1,0.3-0.2,0.5-0.2,0.7c0,0.3,0.1,0.4,0.2,0.4v0.1l1,0.6
	l2.3,1.3c0-0.3,0.2-0.7,0.4-1s0.4-0.5,0.6-0.7l-2.4-1.4 M253,52c0.1-0.1,0.3-0.2,0.4-0.3c0.4-0.2,0.7-0.3,1-0.1l0.9,0.5
	c0.3,0.2,0.4,0.4,0.4,0.7c0.2,0.4,0,1-0.3,1.6c-0.4,0.6-0.8,1-1.2,1.1c-0.3,0.2-0.6,0.2-0.9,0l-0.9-0.5c-0.3-0.1-0.4-0.5-0.4-0.9
	c0-0.1,0-0.2,0-0.3 M253.8,52.3c-0.1,0.4-0.2,0.8-0.4,1.1c-0.1,0.3-0.4,0.6-0.7,0.8c0.3,0.4,0.5,0.9,0.5,1.3 M255.3,52
	c-0.4,0.2-0.9,0.3-1.4,0.2l-0.7-0.4 M248.5,49.4l1.1,0.7 M248.5,49.4c-0.3,0-0.5,0.2-0.8,0.7c-0.4,0.5-0.4,0.9-0.1,1.1l0.1,0.1
	l1,0.6 M247.6,51.2l-0.8-0.5c-0.1-0.1-0.2-0.2-0.2-0.5c0-0.2,0.1-0.4,0.3-0.7c0.3-0.6,0.7-0.8,1-0.6l0.8,0.4 M243.3,49.1
	c0.4-0.2,0.8-0.5,1-0.9c0.3-0.4,0.3-0.9,0.2-1.3 M224.1,63.7c-0.2-0.1-0.4-0.1-0.7,0.1c-0.3,0.1-0.5,0.4-0.7,0.7s-0.3,0.7-0.3,1
	s0.1,0.5,0.3,0.6c0-0.1-0.1-0.2-0.1-0.4c0-0.3,0.1-0.7,0.3-1s0.4-0.6,0.7-0.8c0.3-0.1,0.5-0.2,0.7-0.1c0.2,0.1,0.3,0.4,0.2,0.8
	l0.3,0.2l0,0c0.2,0.1,0.2,0.4,0,0.8c-0.3,0.4-0.5,0.6-0.8,0.5c-0.1,0-0.1-0.1-0.1-0.1l-0.2-0.1c-0.3,0.2-0.6,0.3-0.7,0.2
	c-0.1-0.1-0.2-0.1-0.2-0.2 M224,66.1c-0.1-0.2-0.1-0.4,0.1-0.8c0.3-0.4,0.5-0.6,0.8-0.4 M223.8,66.1l-0.4-0.2h-0.1
	c-0.3-0.2-0.3-0.5,0-0.9c0.3-0.5,0.5-0.6,0.8-0.5l0,0l0.4,0.3 M214.5,72.4c-0.6,1.5-0.8,2.9-0.7,4.2c0.2,1.3,0.7,2.1,1.6,2.6
	c0.3,0.2,0.7,0.3,1.1,0.3h0.1l-0.3-0.2c-1-0.6-1.5-1.6-1.5-3.2s0.5-3.2,1.5-4.9c1-1.7,2.2-2.9,3.5-3.7c1.4-0.8,2.5-0.9,3.5-0.4
	l0.1,0.1h0.1c-0.1-0.4-0.4-0.7-0.7-0.9c-0.9-0.5-1.9-0.5-3.1,0.1c-1.2,0.5-2.3,1.5-3.4,2.9 M215.6,70l-0.5-0.3c0,0,0,0-0.1,0
	c-0.3-0.1-0.5,0.1-0.8,0.5c-0.3,0.5-0.3,0.8,0,0.9l0,0l0.4,0.2 M215.7,70.1c-0.2,0-0.4,0.2-0.6,0.5c-0.3,0.4-0.3,0.7,0,0.9
	 M226.5,69.2c-0.9-0.4-2-0.2-3.2,0.5 M226.5,69.2l-2-1.2l-0.4-0.2c-0.9-0.3-1.9-0.2-3.1,0.5c-1.4,0.8-2.5,2-3.5,3.7
	s-1.5,3.3-1.5,4.9s0.5,2.7,1.4,3.3l2,1.2c-0.8-0.6-1.2-1.6-1.2-3.1c0-1.6,0.5-3.2,1.5-4.8c1-1.7,2.2-2.9,3.5-3.7 M219.5,81.2
	c0.1,0.1,0.1,0.1,0.2,0.1c0.7,0.4,1.5,0.5,2.5,0.2v-0.8c-0.6,0.1-1.2,0.1-1.7-0.2c-0.5-0.3-0.8-0.7-1-1.2c0-0.1-0.1-0.2-0.1-0.4
	c-0.1-0.3-0.1-0.7-0.1-1.1c0-1.3,0.4-2.7,1.2-4.2c0.8-1.4,1.8-2.5,3-3.1c0.3-0.2,0.5-0.3,0.8-0.4c0.1,0,0.3-0.1,0.4-0.1
	c0.1,0,0.3-0.1,0.4-0.1c0.5,0,1,0.1,1.4,0.3c0.4,0.2,0.7,0.6,0.9,1h0.1l0.5-0.4c-0.2-0.6-0.5-1.1-0.9-1.4l-0.5-0.3
	c0.1,0,0.2,0.1,0.3,0.1s0.2,0.1,0.2,0.2 M224.1,67.7l-0.7-0.4 M224.2,70.1c0.3,1.3,0.1,2.8-0.6,4.3l3.2,1.8c0.5-1.1,0.8-2.2,0.8-3.3
	c0-0.5,0-0.9-0.1-1.2l-0.1,0.1l-2.8-1.8 M227.3,71.2c0.1,0.1,0.1,0.3,0.2,0.5l0.5-0.4c0-0.1-0.1-0.3-0.1-0.4 M226.8,76.2
	C226.8,76.2,226.8,76.3,226.8,76.2l0.3,0.4c0.7-1.4,1.1-2.8,1.1-4.1c0-0.4,0-0.9-0.1-1.2 M227.3,71.2l-2.3-1.3 M226.5,76.8l0.4,0.3
	 M226.5,76.8c0,0.1-0.1,0.1-0.1,0.2c-0.8,1.4-1.8,2.5-2.9,3.1c-0.3,0.2-0.5,0.3-0.8,0.4h-0.1l0.1,0.8c0.2-0.1,0.4-0.2,0.6-0.3
	c1.4-0.8,2.5-2,3.5-3.7c0.1-0.1,0.1-0.2,0.2-0.3c0.1-0.2,0.2-0.3,0.2-0.5 M226.4,76.7l0.1,0.1c0.1-0.2,0.2-0.3,0.3-0.5 M219.8,78.7
	c1.3-0.6,2.5-1.7,3.4-3.4c0.1-0.1,0.1-0.3,0.2-0.4c0.1-0.2,0.2-0.3,0.2-0.5 M219.4,79.3l2.8,1.5c0.1,0,0.3-0.1,0.4-0.1 M215.6,80.5
	l-0.5-0.3l0,0c-0.3-0.2-0.5,0-0.8,0.4c-0.3,0.5-0.3,0.8,0,0.9h0.1l0.4,0.2 M216.5,79.5l1,0.6 M215.7,80.6c-0.2,0-0.4,0.2-0.7,0.5
	c-0.3,0.4-0.3,0.7,0,0.9 M222.2,81.5c0.1-0.1,0.3-0.1,0.4-0.2 M224.1,85.1c-0.2-0.1-0.4-0.1-0.7,0.1c-0.3,0.1-0.5,0.4-0.7,0.7
	c-0.2,0.3-0.3,0.7-0.3,1s0.1,0.5,0.4,0.6c-0.1-0.1-0.1-0.2-0.1-0.4c0-0.3,0.1-0.6,0.3-0.9s0.4-0.6,0.7-0.7c0.3-0.2,0.5-0.2,0.7-0.1
	c0.3,0.1,0.3,0.4,0.1,0.9l0.3,0.2 M224.8,86.3C224.9,86.3,224.9,86.3,224.8,86.3c0.3,0.2,0.2,0.5,0,0.9c-0.1,0.2-0.2,0.3-0.4,0.4
	c-0.1,0.1-0.3,0.1-0.4,0l-0.1-0.1l-0.2-0.1c-0.3,0.2-0.6,0.3-0.7,0.2c-0.1,0-0.2-0.1-0.2-0.2 M224.1,85.9L224.1,85.9L224.1,85.9
	c-0.3-0.2-0.5,0-0.8,0.4c-0.3,0.5-0.3,0.8,0,0.9h0.1l0.4,0.2 M224,87.6c-0.1-0.2-0.1-0.4,0.1-0.8c0.2-0.4,0.5-0.6,0.7-0.5h0.1
	 M224.6,86.1l-0.4-0.3 M222.7,80.6l-3.4-1.7 M224.5,89.3c-0.2-0.1-0.3-0.2-0.5-0.2l2.2,1.3c0.2,0.1,0.4,0.1,0.5,0.2s0.2,0.1,0.2,0.2
	c0.4,0.3,0.8,0.8,0.9,1.4c0,0.1,0.1,0.3,0.1,0.4c0.1,0.4,0.1,0.8,0.1,1.2c0,1.4-0.4,2.7-1.1,4.1c-0.1,0.2-0.2,0.3-0.3,0.5
	c0,0.1-0.1,0.2-0.1,0.2c-0.9,1.7-2.1,2.9-3.5,3.7c-0.4,0.2-0.7,0.4-1,0.5c-0.9,0.3-1.8,0.3-2.5-0.2c-0.1,0-0.1-0.1-0.2-0.1l-2-1.2
	l-1-0.6h-0.1c-0.3,0-0.7-0.1-1.1-0.3c-0.8-0.5-1.3-1.3-1.5-2.6c-0.1-1.3,0.1-2.6,0.7-4.1 M217.5,101.5c-0.9-0.6-1.4-1.7-1.4-3.3
	c0-1.6,0.5-3.2,1.5-4.8c0.9-1.7,2.1-2.9,3.5-3.7c1.1-0.7,2.1-0.9,3-0.6l-0.7-0.4l-0.2-0.2c-1-0.5-2.1-0.4-3.5,0.4s-2.5,2-3.5,3.7
	c-0.9,1.7-1.4,3.3-1.5,4.9c0,1.6,0.5,2.6,1.5,3.2l0.2,0.2 M216.5,100.9L216.5,100.9 M223.5,88.6c-0.2-0.4-0.5-0.6-0.8-0.8
	c-0.8-0.5-1.9-0.5-3.1,0.1c-1.2,0.5-2.3,1.5-3.4,2.8 M222.2,102.9v-0.8c-0.6,0.1-1.2,0.1-1.7-0.2c-0.5-0.3-0.8-0.7-1-1.2
	c0-0.1-0.1-0.3-0.1-0.4c-0.1-0.3-0.1-0.7-0.1-1.1c0-1.3,0.4-2.7,1.2-4.1s1.8-2.5,3-3.1c0.3-0.2,0.5-0.3,0.8-0.4
	c0.1-0.1,0.2-0.1,0.4-0.1c0.1,0,0.3-0.1,0.4-0.1c0.5-0.1,1,0,1.4,0.3s0.7,0.6,0.9,1.1h0.1l0.5-0.4 M215,91.1
	C215.1,91.1,215.1,91.1,215,91.1 M215,91.1l0.1,0.1L215,91.1 M214.7,92.7l-0.4-0.2l0,0c-0.3-0.1-0.3-0.4,0-0.9
	c0.2-0.4,0.5-0.6,0.8-0.5 M214.9,92.8c-0.1-0.2-0.1-0.5,0.1-0.8c0.3-0.4,0.5-0.6,0.8-0.4 M215.1,91.1l0.4,0.3 M215.1,100.9
	c-0.2-0.1-0.4-0.1-0.7,0.1c-0.3,0.1-0.5,0.4-0.7,0.7c-0.2,0.3-0.3,0.7-0.3,1s0.1,0.5,0.3,0.6c-0.2-0.3-0.1-0.7,0.2-1.3
	c0.2-0.3,0.4-0.6,0.7-0.7c0.3-0.2,0.5-0.2,0.7-0.1s0.3,0.4,0.2,0.9l0.3,0.2 M215.9,102.1c0.2,0.1,0.2,0.4-0.1,0.9
	c-0.3,0.4-0.5,0.6-0.8,0.5c-0.1,0-0.1-0.1-0.2-0.1l-0.1-0.1c-0.3,0.2-0.5,0.2-0.7,0.2c-0.1-0.1-0.2-0.1-0.2-0.2 M219.8,100.1
	c1.3-0.7,2.5-1.8,3.4-3.4c0.1-0.1,0.1-0.3,0.2-0.4c0.1-0.2,0.2-0.3,0.3-0.5c0.7-1.5,0.9-2.9,0.6-4.3 M219.5,102.7
	c-0.8-0.6-1.2-1.6-1.2-3.1c0-1.6,0.5-3.2,1.5-4.9c1-1.7,2.2-2.9,3.5-3.7c1.1-0.6,2.1-0.9,2.9-0.6l0.8,0.4 M223.7,95.8l3.1,1.8
	c0.6-1.2,0.8-2.3,0.8-3.4c0-0.4,0-0.8-0.1-1.2l-0.1,0.1l-0.1,0.1 M227.4,93.2l-2.8-1.8 M227.3,92.6c0.1,0.1,0.1,0.3,0.2,0.5l0.5-0.4
	 M227.3,92.6l-2.3-1.3 M223.4,96.3l3,1.8l0.1,0.1c0.1-0.2,0.2-0.4,0.3-0.5l0,0 M227.1,98l-0.4-0.3 M226.8,98.5l-0.4-0.3
	c0,0.1-0.1,0.1-0.1,0.2c-0.8,1.4-1.8,2.5-2.9,3.1c-0.3,0.2-0.5,0.3-0.8,0.4h-0.1v0.7 M223.4,74.9l3,1.7 M222.6,102
	c-0.1,0.1-0.3,0.1-0.4,0.1l-2.8-1.5 M215.6,101.9l-0.4-0.3l0,0c-0.3-0.2-0.5,0-0.8,0.4c-0.3,0.5-0.3,0.8,0,0.9h0.1l0.4,0.3
	 M214.9,103.4c-0.1-0.2-0.1-0.4,0.2-0.8c0.3-0.5,0.5-0.6,0.8-0.5 M155.3,106.1l-0.1-0.4l-0.3,0.1l-0.3,0.3l-0.2,0.4l0.2,0.3l0.3-0.1
	h-0.1l-0.1-0.3l0.1-0.3l0.2-0.3l0.3-0.1L155.3,106.1z M155.3,106.1L155.3,106.1l-0.1,0.4l-0.3,0.3h-0.1 M154.1,106.5l-0.1-0.3
	l0.1-0.4l0.3-0.3l0.3-0.1 M150.5,103.8l-0.2,0.3 M150.3,104.7l0.2,0.2 M154.1,121.2l-0.1-0.3l0.1-0.4l0.3-0.3h0.3 M154.8,120.8
	l0.2-0.3h0.3l0.1,0.1l-0.1-0.4l-0.3,0.1l-0.3,0.3l-0.2,0.4l0.2,0.3l0.3-0.1l0.1-0.1l-0.2,0.1L154.8,120.8L154.8,120.8z M155,121.4
	l0.3-0.2l0.1-0.4l-0.1-0.1 M150.3,119.3l0.2,0.2 M150.5,118.5l-0.2,0.3 M164.7,141.9l-0.1-0.3l0.1-0.4l0.3-0.3l0.3-0.1 M165.8,141.3
	l0.1,0.1l-0.1-0.3h-0.4l-0.3,0.4l-0.2,0.4l0.2,0.3l0.3-0.1l0.1-0.1h-0.2l-0.1-0.2l0.1-0.3l0.2-0.3h0.3V141.3z M155,136l-0.2,0.1
	 M155,136l0.3-0.3l0.1-0.3l-0.1-0.1l-0.1-0.1H155l-0.2,0.3l-0.1,0.3l0.1,0.3 M155.3,135.3l-0.1-0.3l-0.3,0.1l-0.3,0.3l-0.2,0.5
	l0.2,0.3l0.3-0.1l0.1-0.1 M154.1,135.9l-0.1-0.3l0.1-0.4l0.3-0.3l0.3-0.1 M157.8,140l0.4,0.2l0.1,0.5l-0.3,0.7l-0.4,0.5l-0.5,0.2
	l-0.4-0.3 M165.5,142.1l0.3-0.3l0.1-0.4l-0.1-0.1 M222.7,102l-3.4-1.7 M224.8,86.3L224.8,86.3 M224.1,85.8
	C224.1,85.9,224.1,85.9,224.1,85.8 M216.5,100.9L216.5,100.9 M215.8,102.1L215.8,102.1 M227.4,93.2L227.4,93.2"/>
<path id="Layer0_10_MEMBER_0_MEMBER_4_1_STROKES" style="fill:none;stroke:#000000;stroke-width:0.25;stroke-miterlimit:5;" d="
	M237.8,44.4l4.9,2.8 M235.3,43l1.2,0.7 M229.2,39.5l4.9,2.8 M245.7,48.9l1.1,0.7 M245.1,48.6l0.3,0.2 M243.8,47.8l1.1,0.7"/>
<path id="Layer0_10_MEMBER_0_MEMBER_5_1_STROKES" style="fill:none;stroke:#000000;stroke-width:0.55;stroke-miterlimit:5;" d="
	M151.2,76.3l-18.8,10.8c-1,0.6-1.7,1.4-1.9,2.5v10c0,0.4,0.1,0.7,0.4,0.9c0.1,0.1,0.1,0.2,0.2,0.2c0.3,0.3,0.7,0.5,1.1,0.5l0.3-0.1
	l18-10.1 M129.7,99.7v-11c0,0.1-0.1,0.3-0.1,0.4v10C129.6,99.4,129.6,99.6,129.7,99.7z M129.7,99.7c0.2,0.5,0.6,0.8,1.2,0.9
	 M240.4,23.3V12.8L129.7,76.7v12.1c0.3-0.9,0.9-1.6,1.8-2.1l18.8-10.8c0.7-0.5,1.4-0.7,2.2-0.7h0.3 M240.4,12.8l-10.2-5.9
	L119.4,70.7l10.2,5.9 M226.1,33l18.8-10.8h0.3l-0.3-0.3l-0.2-0.1h-0.5l-23.6,13.7c-0.8,0.3-1.5,0.8-2,1.5 M236.4,41.5l8.5-4.9
	c1.1-0.6,1.7-1.5,1.9-2.7V23.7c0-0.4-0.1-0.8-0.4-1.1c-0.3-0.3-0.7-0.5-1.1-0.5 M241.6,42.7v-3.9 M241.6,73.1V51.8 M238.7,75.2
	l5.5-3.1c0.5,0,0.9,0.1,1.2,0.4c0.4,0,0.7,0.2,0.9,0.5c0.3,0.3,0.5,0.7,0.5,1.1v10.2c-0.2,1.3-0.8,2.2-2,2.7l-6.7,3.9 M245.4,72.5
	c-0.1,0-0.2,0-0.2,0H245l-6.2,3.6 M234.6,97.5c1.8,3.4,2.8,5.6,3,6.4c0.8,2.6,0.5,4.8-1,6.6c-0.9,1.3-2.1,2-3.6,2.3s-2.9,0-4.3-0.8
	c0,0,0,0,0,0.1c0,0.3-0.1,0.5-0.3,0.5c1.4,0.9,2.9,1.3,4.5,1.1c1.6-0.2,2.9-0.9,4-2.1c1.9-2.1,2.5-4.6,1.6-7.6
	c-0.3-1-1.5-3.6-3.6-7.5 M224.1,108.7c0.1,0.2,0.2,0.4,0.2,0.8c0,0.1,0,0.1,0,0.2c0.2-0.1,0.4-0.3,0.6-0.5c0-0.1,0-0.2,0-0.4
	l-0.1-0.5l-0.2-0.3c-0.1-0.1-0.4-0.1-0.7,0.1c-0.3,0.1-0.5,0.4-0.7,0.7s-0.3,0.7-0.3,1s0.1,0.5,0.3,0.6l0.1,0.1
	c0.3,0,0.6-0.1,0.9-0.3c0.1-0.2,0.1-0.3,0.1-0.5c0,0-0.1,0-0.1,0.1c-0.3,0.1-0.6,0-0.8-0.1 M224.4,107.3c-0.3-0.1-0.6-0.1-0.9,0.1
	s-0.7,0.5-0.9,1c-0.3,0.5-0.4,0.9-0.4,1.4c0,0.4,0.2,0.7,0.5,0.8c-0.1-0.2-0.1-0.3-0.1-0.6c0-0.4,0.1-0.9,0.4-1.4
	c0.3-0.5,0.6-0.8,1-1s0.7-0.2,0.9-0.1s0.3,0.3,0.4,0.6l0.5,0.9l0.4,0.7l-0.7,1.4l-0.7-0.1l-1.4-0.2l-0.4-0.1
	c-0.1-0.1-0.2-0.1-0.2-0.2 M228.7,111.9c0-0.2-0.1-0.3-0.2-0.4l-2.4-1.7c0.1,0.2,0.1,0.4,0.1,0.5c0,0.3-0.1,0.5-0.3,0.7
	s-0.4,0.3-0.7,0.3l2.8,1.3h0.1c0.1,0,0.2,0,0.2,0 M224.2,110.2c0.1-0.1,0.2-0.1,0.2-0.2c0.2-0.2,0.4-0.5,0.5-0.8 M224.6,111l1.1-2
	 M137.5,98.7v35l7.3-4.2L144.7,95 M129.7,139.4V99.7 M129.7,139.4c0.3-0.9,0.9-1.6,1.8-2.1l6.1-3.5 M119.4,70.7V149l10.2,5.7v-4.5
	c-0.1-0.2-0.1-0.3-0.1-0.5v-10c0-0.1,0.1-0.3,0.1-0.4v11c0.1,0.2,0.2,0.3,0.3,0.5c0.3,0.3,0.6,0.5,0.9,0.5c-0.2-0.3-0.4-0.6-0.4-1
	v-10c0.2-1.1,0.8-2,1.9-2.5l17.1-9.8 M130.9,151.3c0,0.1,0.1,0.1,0.1,0.2c0.3,0.3,0.7,0.4,1.1,0.4h0.4l17.7-10.1 M144.8,129.6
	l4.7-2.7 M241.6,112.3V89.6"/>
<path d="M234.7,96.9l-0.1,0.7c1.9,3.6,2.9,6,3.2,7.2c0.6,2.7-0.2,5.1-2.3,6.9c-1.5,1-3.1,1.4-4.8,1l-1.9-0.8l-0.1-0.2l-0.1-0.1
	l-0.2-0.2l-2.4-1.7l-1.1-2.2l-0.2-0.1l-0.3-0.1l-0.8,0.3l-0.2,0.2l-0.2,0.2l-0.2,0.2c-0.4,0.6-0.5,1.4-0.5,2.2l0.1,0.1l0.9,0.8
	l1.7-0.3l2.8,1.5h0.3l0.1,0.1l2,0.8l0.7,0.1c2.2,0.3,3.9-0.3,5.3-1.6c2.2-2.2,2.9-4.7,2.2-7.7c-0.2-0.9-1.4-3.5-3.6-7.9L234.7,96.9z
	"/>
<path id="Layer0_10_MEMBER_0_MEMBER_7_1_STROKES" style="fill:none;stroke:#000000;stroke-width:0.55;stroke-miterlimit:5;" d="
	M150.2,143.3l-20.3,11.6"/>
<g>
	<text transform="matrix(1 0 0 1 274.3763 115.6778)" style="font-family:'ArialMT'; font-size:14px;">7600-P1</text>
</g>
<path id="Layer0_11_MEMBER_1_1_STROKES" style="fill:none;stroke:#FF9900;stroke-linecap:round;stroke-linejoin:round;" d="
	M342.4,123.3h-84V95.6h84V123.3z"/>
<g>
	<text transform="matrix(1 0 0 1 274.3763 147.9278)" style="font-family:'ArialMT'; font-size:14px;">7600-P2</text>
</g>
<path id="Layer0_12_MEMBER_1_1_STROKES" style="fill:none;stroke:#FF9900;stroke-linecap:round;stroke-linejoin:round;" d="
	M342.4,155.6h-84v-27.7h84V155.6z"/>
</svg>
