<?xml version="1.0" encoding="utf-8"?>
<!-- Generator: Adobe Illustrator 24.2.3, SVG Export Plug-In . SVG Version: 6.00 Build 0)  -->
<svg version="1.1" id="Ebene_1" xmlns="http://www.w3.org/2000/svg" xmlns:xlink="http://www.w3.org/1999/xlink" x="0px" y="0px"
	 viewBox="0 0 349.1 161" style="enable-background:new 0 0 349.1 161;" xml:space="preserve">
<g>
	<path style="fill:#666666;" d="M98.8,141.1l-2.8-1.9c-1.4-1-2.6-2.1-3.8-3.3l-0.6-0.7l-0.6-1c-0.3-0.7-0.6-1.9-0.9-3.7
		c-0.2-1.7-0.6-2.9-1.1-3.7l-0.9-1.4l-2.1-2.2l-1.2-1c-1-0.9-2.1-1.8-3.4-2.7l-3.6-2.4l-1.3-1.2l-1.1-1.3l-2.3-3.6l-2.5-2.6
		l-4.9-3.4v9.6l4.9,3.4l1.5,1.3l1.1,1.2l2.3,3.6l1.1,1.3l1.3,1.2c0.2,0.1,1.4,0.9,3.6,2.4c1.4,0.9,2.5,1.8,3.4,2.7l1.2,1L88,135
		l0.9,1.4c0.5,0.8,0.9,2.1,1.1,3.7c0.3,1.8,0.6,3,0.9,3.7l0.6,1l0.6,0.7c1.2,1.2,2.5,2.4,3.8,3.3l2.8,1.9V141.1 M109.3,133.1
		c-0.5-0.4-1-0.5-1.5-0.2h0l-0.6,0.3v0l0,0.1c-0.5,0.9-0.4,1.7,0.1,2.6c0.5,0.9,1.2,1.4,2.2,1.4h0.1l0.7-0.4l0.1-0.1
		c0.3-0.4,0.5-0.8,0.4-1.3l8.3-4.7c0.3-0.5,0.3-1-0.2-1.7c-0.4-0.7-0.9-0.9-1.4-0.8L109.3,133.1z"/>
	<path style="fill:#CCCC33;" d="M191.2,69.2l-1.6-0.8c-0.9-0.3-2.1-0.9-3.7-1.8c-1.7-0.9-2.9-1.5-3.7-1.8l-1.5-0.3
		c-0.5-0.1-1.6-0.1-3.2,0c-0.3,0-0.6,0-0.9,0c-0.9,0-1.6-0.2-2.2-0.4l-1.1-0.6l-0.1-0.1l0.3,1.2c0.3,0.7,0.8,1.4,1.5,1.9
		c0.5,0.4,1,0.9,1.4,1.5l0.3,2.1c0.1,2,0.1,3.7-0.1,5c-0.2,1.8-0.8,3.4-1.6,4.7l-1,1.6c-0.4,0.5-1,1.2-1.7,2.1
		c-0.6,0.8-1.1,1.6-1.4,2.4l-0.6,1.4c-0.3,0.7-0.4,1.5-0.5,2.3c-0.1,0.4-0.1,1.2-0.1,2.4l0.3,3.9c0.2,1,0.4,3.6,0.5,7.5
		c0,1.2,0.1,2.3,0.3,3.2c0.2,1.6,0.6,2.9,1.2,4l0.3,0.5l0.6,0.7c0.1,0.1,0.3,0.3,0.4,0.6v0l-0.1,0.5c0,0.5-0.3,1.1-0.8,2.1
		c-0.6,0.9-1.1,1.5-1.5,1.7l-0.2,0.1l-0.2,0c-0.4,0.2-0.9,0.2-1.4,0c-0.5-0.1-0.9-0.4-1.1-0.8l-0.6-1l-0.1,0.7l0.1,0.6
		c0.5,1,1.9,1.9,4.2,2.7c0.1,0,0.2,0.1,0.4,0.1c3.2,1,5,1.7,5.6,2l1.8,1c0.9,0.6,2.3,1.5,4.2,2.7l0.9,0.6c1,0.6,1.9,1,2.7,1.2
		c0.7,0.2,1.6,0.5,2.8,0.7l2.5,0.6l0.8,0.4c0.5,0.3,1,0.7,1.4,1.2c0.6,0.7,1,1.1,1.2,1.3l0.7,0.6c0.6,0.4,1.2,0.9,1.8,1.4
		c0.5,0.4,1.3,0.7,2.3,0.9l1,0.4l0.2,0.2l0.3,0.8l0.2,0.2l0.2,0.2l0.5,0.2l4.2,0.9c0.3,0,0.6,0.1,0.9,0.3c0.2,0.1,0.4,0.3,0.7,0.4
		c0.3,0.2,0.8,0.6,1.4,1.2l3.1,2.7l1.2,0.8c0.1,0,0.2,0.1,0.3,0.1c0.6,0.2,1.7,0.3,3.2,0.3c0.8,0,1.5,0,2,0c0.7,0,1.2-0.1,1.4-0.2
		l0.2-0.1l0.2-0.1c2-1.2,3.7-2.4,4.8-3.6l1.5-1.8c0.5-0.7,1-1.6,1.6-2.7c0.7-1.2,1.2-2.1,1.5-2.7l0.5-0.9c0.4-0.8,0.7-1.6,0.9-2.4
		c0.1-0.4,0.3-1.2,0.5-2.5l0.8-4.1l0.1-1.2c0.2-1.9,0.3-3.3,0.3-4.2c0.1-1.6,0-3-0.1-4.2l-0.3-2.2c-0.1-0.9-0.3-1.8-0.5-2.9
		c-0.1-0.5-0.2-1-0.3-1.5c-0.5-1.9-0.8-3.4-1-4.4l-0.6-2.3c-0.2-0.8-0.5-1.6-0.9-2.5c-0.2-0.4-0.6-1.2-1.2-2.4l-0.7-1.3
		c-0.4-0.6-1.1-1.3-2.1-2c-0.9-0.6-1.7-1.1-2.6-1.4l-1.8-1.1l0.3-0.4c0.2-0.2,0.3-0.4,0.3-0.6c0-0.1,0-0.4-0.1-0.7l-0.1-0.2l0-0.2
		c0-0.5,0-0.9-0.1-1.1l-0.7-2.2v0l-0.1-0.1l-0.2-0.2l-0.8-0.8c-0.1-0.1-0.5-0.4-1-0.6l-0.7-0.3c-0.7-0.3-1.1-0.6-1.3-0.8
		c-0.4-0.3-0.7-0.8-0.9-1.3l0-0.1v-0.1l-0.6-1.8c-0.2,0.2-0.6,0.2-1.2,0.1l-0.2-0.1l-0.2-0.1c-0.4-0.1-0.7-0.4-1.1-0.6
		c-0.5-0.3-0.8-0.6-1-0.7l-0.7-0.5l0.3,1.2v0.1l0,0.1c0.3,0.7,0.8,1.2,1.5,1.6c0.4,0.2,1.1,0.6,2,1.1l0.4,0.3l1.1,1.2v0l0.2,0.6
		c0.2,0.7,0.4,1.1,0.4,1.3c0.1,0.4,0.1,0.8,0.2,1.3l0,0.2l0.1,0.2v0.2l0.1,0.2l-0.2,0.5c-0.4,0.4-0.6,0.7-0.6,0.8c0,0,0,0.1,0,0.2
		l-1.9-0.7c-1.1-0.5-2.1-0.8-2.9-1c-0.8-0.1-1.3-0.3-1.6-0.3c-0.8-0.2-2.1-1.3-3.9-3.2l-2-1.7l-3.9-2.8l-4.5-2.3L191.2,69.2
		 M177.8,77.4l0.2-0.2c0,0,0.1-0.1,0.1-0.1C178,77.2,177.9,77.3,177.8,77.4z"/>
	<path style="fill:#0099FF;" d="M162.3,39.4l1.5-0.8l0-1.5L116,9.6l-15.7,9.1l-2,1.2c-1.7,1-3.2,2.6-4.3,4.7
		c-1.2,2.1-1.8,4.1-1.9,6.1v38.2c0.1,1.7,0.5,3.1,1.2,4.1c0.3,0.4,0.7,0.8,1.2,1.1l5.9,3.3c0.4,0.8,0.9,1.5,1.6,2l0.2,0.2
		c0.2,0.3,0.6,0.5,1,0.6h0.1c0.4,0,0.8-0.1,1.3-0.2l4.8,2.7c0,0,0,0.1,0.1,0.1c0.4,0.7,0.9,1.3,1.5,1.8l0.2,0.1l0.1,0.1
		c0.6,0.7,1.4,0.8,2.4,0.4l5,2.7c0.4,0.7,0.9,1.4,1.5,1.8l0.1,0.1l0.1,0.1c0.3,0.4,0.7,0.6,1.2,0.6c0.4,0,0.8,0,1.2-0.2l4.8,2.7
		c0.4,0.8,0.9,1.4,1.6,1.9l0.2,0.1l0.1,0.1c0.6,0.7,1.4,0.8,2.4,0.4l4.9,2.8c0.4,0.7,0.9,1.3,1.5,1.8l0.1,0.1l0.1,0.1
		c0.6,0.7,1.4,0.8,2.4,0.4l1.6,0.9c0,0,0.1,0.1,0.1,0.1c1.6,0.9,3.4,0.8,5.6-0.3c0.1-0.1,0.2-0.1,0.2-0.2h0.1h0l14.5-8.4l1.1-0.6
		v-1.5l-0.8,0.5l-0.2,0.1c0.2-0.2,0.5-0.5,0.7-0.8c0.2-0.3,0.3-0.6,0.3-0.9l0-0.3c0,0,0,0,0-0.1V40.6c0,0,0,0,0-0.1
		c0-0.5-0.2-0.9-0.5-1.1c-0.2-0.1-0.5-0.1-0.8-0.1C162.4,39.4,162.3,39.4,162.3,39.4 M146.6,48.4l0.1-0.1l11.5-6.6v1.5l3.4-2
		l0.4-0.2h0.1v0h0.1v0h0l0.1,0.1v0.1h0l0,48.2v0l-0.1,0.3l-1.2,0.7l-2.9,1.7v1.4v0l-10.7,6.2c-1.9,1.1-3.4,1.3-4.7,0.7
		c-0.2-0.1-0.4-0.3-0.6-0.4l-0.5-0.6c0,0,0,0,0,0l-0.8-3.2v-38l1.3-4.8c0.1-0.2,0.2-0.5,0.4-0.7C143.8,50.8,145.1,49.3,146.6,48.4z"
		/>
	<path style="fill:#0033FF;" d="M146.8,48.3l-0.1,0.1c-1.5,0.9-2.8,2.3-4,4.3c-0.1,0.2-0.3,0.5-0.4,0.7l-1.3,4.8v38l0.8,3.2
		c0,0,0,0,0,0l0.5,0.6c0.2,0.2,0.4,0.3,0.6,0.4c1.2,0.6,2.8,0.4,4.7-0.7l10.7-6.2v-1.4l2.9-1.7l1.2-0.7l0.1-0.3l0-48.2h0v-0.1
		l-0.1-0.1h0v0h-0.1v0h-0.1l-0.4,0.2l-3.4,2v-1.5L146.8,48.3 M156.1,80.2l-0.2-0.4l0-0.1c-0.2-0.8,0-1.2,0.5-1.2
		c0.5,0,1,0.4,1.2,1.1l0.1,0.3c0.2,0.8,0.1,1.3-0.4,1.3C156.9,81.2,156.5,80.9,156.1,80.2C156.1,80.2,156.1,80.2,156.1,80.2z"/>
	<path style="fill:#B1B1B1;" d="M144.6,9.9c-1-0.3-2.2-0.5-3.7-0.6c-1.7-0.1-3-0.1-3.7-0.2L135.4,9l-1.7-0.4l-1.4-0.7l-1.1-0.8
		c-1.1-1-2-1.7-2.8-2c-0.9-0.4-2.1-0.4-3.5-0.3l-4,0.2L116,4.8L113.9,5l-8.6,1.6l-2.4,0.8l-3.2,2l-0.3,1l0.2,0.9l0.8,2.1l0.1,1
		l-0.2,4.2L116,9.6l47.7,27.5l0,1.5v0.1l-1.3,0.7c0.3-0.1,0.6-0.1,0.8,0.1c0.3,0.2,0.5,0.6,0.5,1.1c0,0,0,0,0,0.1v48.6
		c0,0,0,0,0,0.1l0,0.3c0,0.3-0.2,0.6-0.3,0.9c-0.1,0.2-0.3,0.4-0.5,0.6l0.8-0.5V92v0l-1.1,0.6l-14.5,8.4h0l-0.3,0.2
		c-2.2,1.1-4.1,1.3-5.6,0.3c0,0-0.1,0-0.1-0.1l-1.6-0.9c-1,0.4-1.8,0.3-2.4-0.4l-0.1-0.1l-0.1-0.1c-0.6-0.5-1.1-1.1-1.5-1.8
		l-4.9-2.8c-1,0.4-1.8,0.3-2.4-0.4l-0.1-0.1l-0.2-0.1c-0.7-0.5-1.2-1.1-1.6-1.9l-4.8-2.7c-0.4,0.2-0.9,0.3-1.2,0.2
		c-0.5,0-0.9-0.2-1.2-0.6l-0.1-0.1l-0.1-0.1c-0.6-0.5-1.1-1.1-1.5-1.8l-5-2.7c-1,0.4-1.8,0.3-2.4-0.4l-0.1-0.1l-0.2-0.1
		c-0.6-0.4-1.1-1-1.5-1.8c0-0.1,0-0.1-0.1-0.1l-4.8-2.7c-0.5,0.2-0.9,0.3-1.3,0.2h-0.1c-0.4-0.1-0.7-0.3-1-0.6l-0.2-0.2
		c-0.7-0.5-1.2-1.2-1.6-2L94.4,74c-0.5-0.3-0.8-0.7-1.2-1.1l-0.9,5.1l0.5,6l1.5,6l3.1,7.4l1.1,1.8l1.3,1.4l1.6,0.8l1.7-0.1l1.6-0.9
		l1.7-1.3l1.9-1.1l2.3-0.3l2.9,1l10.2,7.2l3.3,1.7l2.8,0.7l2.4,0.3l4.5,0l14.7,1.3l2.3,0.5l1.7,0.8l2.4,1.8l1.1,0.6l1.5,0.2l1.6-0.3
		l1.7-0.7l1.2-0.9l1-0.4l1.2-0.9l3.7-3.9c-0.1-1-0.2-2.1-0.3-3.2c-0.1-4-0.3-6.5-0.5-7.5l-0.3-3.9c0-1.2,0.1-2,0.1-2.4
		c0.1-0.8,0.3-1.6,0.5-2.3l0.6-1.4c0.4-0.8,0.9-1.6,1.4-2.4c0.7-0.9,1.3-1.6,1.7-2.1l1-1.6c0.9-1.3,1.4-2.8,1.6-4.7
		c0.2-1.3,0.2-2.9,0.1-5l-0.3-2.1c-0.4-0.6-0.9-1.1-1.4-1.5c-0.7-0.5-1.2-1.2-1.5-1.9l-0.3-1.2l0.1,0.1v-0.2l1.2,0.7
		c0.5,0.2,1.3,0.4,2.2,0.4l-0.2-9.8l0.2-1.1l0.5-1.6l1-2l0.4-1.2l0.2-1.3l-0.3-2.7l-1.6-4.2l-0.7-1.3l-2.6-3.3l-0.6-1.4l-0.3-1.4
		l0.1-4.1l-1-4.8l-0.5-1.5l-0.8-1.3l-1.2-1.2l-1.9-0.6l-7.5,0.2l-2.3-0.4l-1.7-0.9l-1.4-1l-1.1-1.1c-1.4-1.5-3.6-3.3-6.8-5.4
		L144.6,9.9 M168.7,37c0.2,0.8,0.1,1.3-0.4,1.3c-0.5,0-0.9-0.3-1.3-0.9l-0.2-0.5c-0.1-0.8,0-1.2,0.6-1.2c0.5,0,0.9,0.4,1.2,1.1
		l0.1,0.1L168.7,37 M168.6,74.8c-0.5,0-0.9-0.3-1.2-0.9c0,0,0,0,0,0l-0.1-0.2l-0.1-0.3c-0.2-0.8,0-1.2,0.6-1.2
		c0.5,0,0.9,0.4,1.2,1.1l0.1,0.2C169.2,74.3,169.1,74.8,168.6,74.8z"/>
	<path style="fill:#FFFFCC;" d="M255.7,97.9v-1.1l-1.1-0.6l-7.7,4.4v0.9c0,0.5-0.1,1-0.4,1.6c-0.3,0.5-0.7,0.9-1.2,1.2l-1.2,0.7
		c-1.7,1-3.2,2.6-4.4,4.7c-1.2,2.1-1.8,4.2-1.9,6.2v36.8c0,1.5,0.4,2.7,1.2,3.4c0,0,0.1,0.1,0.1,0.1l0.7,0.3
		c0.1,0.1,0.1,0.1,0.2,0.2c0.1,0.1,0.3,0.2,0.4,0.3c0.1,0,0.2,0.1,0.2,0.1l0,0c1.2,0.7,2.6,0.5,4.2-0.4l1.7-1
		c0.1-0.1,0.2-0.1,0.3-0.1l0,1.4l1,0.6l7.9-4.6v-0.9c0-0.5,0.2-1,0.5-1.5c0.3-0.5,0.7-0.9,1.1-1.2l0.7-0.4c0.6-0.4,1.1-0.9,1.5-1.6
		c0.4-0.7,0.6-1.4,0.6-2.2l0-18.9c0.1-0.3,0.2-0.6,0.3-0.8l-0.1-7.1c0,0.1-0.1,0.3-0.1,0.4l0-19.6c0-0.7-0.2-1.2-0.6-1.4h0
		c0,0-0.1-0.1-0.2-0.1l-1-0.6c-0.4-0.2-0.9-0.1-1.4,0.2l-1.3,0.7C255.7,98.2,255.7,98.1,255.7,97.9 M244.7,114.2l0.1-0.5
		c0.1-0.5,0.4-0.9,0.9-1.2l8.8-5.1h0v0l0.2-0.1h0.5l0.1,0.6v6.7l-0.1,0.4c0,0.2-0.1,0.3-0.2,0.5c-0.2,0.3-0.4,0.5-0.7,0.7l-8.6,5
		l-0.7,0.2l-0.3-0.1v0l-0.1-0.9V114.2 M244.9,140.6c0.2-0.3,0.4-0.5,0.7-0.7l8.9-5.2h0.4v0h0.1c0.1,0.1,0.2,0.3,0.2,0.6v6.9l0,0.2
		c0,0.1-0.1,0.2-0.1,0.3v0l-1,1l-8.2,4.7l-0.6,0.2l-0.2,0.1v0H245l-0.1,0c-0.1,0-0.1-0.1-0.2-0.2v0h0v0l0-0.3v-6.5l0-0.2
		C244.7,141.1,244.8,140.8,244.9,140.6z"/>
	<path style="fill:#FF9900;" d="M245.6,139.9c-0.3,0.1-0.5,0.4-0.7,0.7c-0.1,0.2-0.2,0.5-0.2,0.7l0,0.2v6.5l0,0.3h0v0
		c0,0.1,0.1,0.2,0.2,0.2l0.1,0h0l0.9-0.2l8.2-4.7l1-1v0c0-0.1,0.1-0.1,0.1-0.2l0-0.2v-6.9c0-0.3-0.1-0.5-0.2-0.6h-0.1v0h-0.4
		L245.6,139.9 M244.8,113.7l-0.1,0.5v6.2l0.1,0.9l0.3,0.1l0.7-0.2l8.6-5c0.3-0.1,0.5-0.4,0.7-0.7c0.1-0.2,0.2-0.3,0.2-0.5l0.1-0.4
		V108l-0.1-0.6h-0.5l-0.2,0.1v0h0l-8.8,5.1C245.2,112.8,244.9,113.2,244.8,113.7z"/>
	<path id="Layer0_5_MEMBER_0_MEMBER_0_1_STROKES" style="fill:none;stroke:#373535;stroke-width:0.5;stroke-miterlimit:4.9999;" d="
		M222.2,87.7l1.9,1.1c0.8,0.3,1.7,0.8,2.6,1.4c1,0.7,1.7,1.3,2.1,2l0.7,1.3c0.6,1.2,1,1.9,1.2,2.4c0.4,0.9,0.7,1.7,0.9,2.5l0.6,2.3
		c0.2,1,0.6,2.4,1,4.4c0.4,1.7,0.7,3.2,0.8,4.4l0.3,2.2c0.2,1.2,0.2,2.6,0.1,4.2c0,0.9-0.1,2.4-0.3,4.2l-0.1,1.2l-0.9,4.1
		c-0.2,1.2-0.4,2-0.5,2.4c-0.2,0.8-0.5,1.6-0.9,2.4l-0.5,0.9c-0.3,0.6-0.8,1.5-1.5,2.7c-0.6,1.1-1.1,1.9-1.7,2.6l-0.3,0.4l-1.2,1.4
		c-1.2,1.2-2.8,2.4-4.8,3.6l-0.2,0.1l-0.2,0.1c-0.4,0.2-1.6,0.3-3.4,0.3c-1.9-0.1-3.1-0.2-3.5-0.5l-1.2-0.8l-3.1-2.7
		c-0.6-0.5-1-0.9-1.4-1.1c-0.6-0.5-1.1-0.7-1.5-0.8l-4.2-0.9l-0.5-0.2l-0.2-0.2l-0.2-0.2l-0.3-0.8l-0.2-0.2l-0.4-0.2l-0.6-0.2
		c-1-0.2-1.8-0.5-2.3-0.9c-0.6-0.5-1.2-1-1.8-1.5l-0.7-0.6c-0.2-0.2-0.6-0.6-1.2-1.3c-0.4-0.5-0.9-0.9-1.4-1.2l-0.9-0.4l-2.5-0.6
		c-1.2-0.2-2.1-0.4-2.8-0.7c-0.8-0.2-1.7-0.7-2.7-1.2l-0.9-0.6c-1.8-1.2-3.2-2.2-4.2-2.7l-1.8-1c-0.5-0.3-2.4-1-5.5-2.1
		c-2.5-0.8-4-1.8-4.5-2.8l-0.1-0.6l0.1-0.6"/>
	<path id="Layer0_5_MEMBER_0_MEMBER_1_1_STROKES" style="fill:none;stroke:#373535;stroke-width:0.5;stroke-miterlimit:4.9999;" d="
		M173.1,63.4l1.2,0.7c0.7,0.3,1.7,0.4,3.1,0.3c1.6-0.1,2.6-0.1,3.1,0l1.5,0.3c0.8,0.3,2,0.9,3.6,1.8c1.5,0.9,2.8,1.4,3.7,1.8
		l1.6,0.8l5.8,4.2l4.5,2.3l3.9,2.8l2,1.7c1.8,1.9,3.1,2.9,3.9,3.2c0.3,0.1,0.8,0.2,1.6,0.3c0.9,0.2,1.8,0.6,2.9,1l1.8,0.6"/>
	<path id="Layer0_5_MEMBER_0_MEMBER_2_1_STROKES" style="fill:none;stroke:#373535;stroke-width:0.5;stroke-miterlimit:4.9999;" d="
		M173.1,63.4l0.2,0.9l0.1,0.3c0.3,0.8,0.8,1.4,1.5,1.9c0.7,0.6,1.3,1.3,1.8,2.1l0.4,0.9c0.2,0.4,0.5,1.3,1,2.5
		c0.4,1.1,0.6,2,0.5,2.5v0.2l0,0.1"/>
	<path id="Layer0_5_MEMBER_0_MEMBER_3_1_STROKES" style="fill:none;stroke:#373535;stroke-width:0.5;stroke-miterlimit:4.9999;" d="
		M176.3,67.9l0.4,2.1c0.1,2,0.1,3.7-0.1,5c-0.2,1.8-0.8,3.4-1.7,4.7l-1,1.5c-0.4,0.5-1,1.2-1.7,2.1c-0.6,0.8-1,1.6-1.4,2.4l-0.6,1.4
		c-0.3,0.7-0.4,1.5-0.5,2.3c-0.1,0.4-0.1,1.2-0.1,2.4l0.3,3.9c0.2,1,0.4,3.5,0.5,7.5c0.1,3.2,0.6,5.6,1.4,7.2l0.3,0.5l0.6,0.7
		c0.1,0.1,0.3,0.3,0.4,0.6c0.1,0.2,0.2,0.4,0.4,0.6l2.4,2.7l0.3,0.4l0.2,0.4l0.1,0.4l-0.1,0.7l-0.1,0.3l0,0.2"/>
	<path id="Layer0_5_MEMBER_0_MEMBER_4_1_STROKES" style="fill:none;stroke:#373535;stroke-width:0.5;stroke-miterlimit:4.9999;" d="
		M179.4,65.9l0.4,0.6c0.2,0.3,0.3,0.8,0.3,1.5c0,0.4,0,0.9-0.1,1.5l-0.1,1.3c0,1-0.1,2-0.2,3.1l-0.1,0.3l-0.3,0.7
		c-0.8,1.4-1.8,2.5-3.1,3.3l-0.1,0.1l-0.1,0.1"/>
	<path id="Layer0_5_MEMBER_0_MEMBER_5_1_STROKES" style="fill:none;stroke:#373535;stroke-width:0.5;stroke-miterlimit:4.9999;" d="
		M181.3,65.2l0.1,0.3l0,0.3c0.1,0.7,0.1,1.8,0,3.4c-0.1,1.4-0.2,2.5-0.4,3.3l-0.2,0.5l-0.1,0.2c-0.1,0.2-0.2,0.6-0.5,1.1
		c-0.2,0.5-0.4,0.9-0.6,1l-0.2,0.1c-0.2,0.1-0.5,0.4-0.9,0.9c-0.4,0.4-0.7,0.7-1,0.8l-0.2,0.2"/>
	<path id="Layer0_5_MEMBER_0_MEMBER_6_1_STROKES" style="fill:none;stroke:#373535;stroke-width:0.5;stroke-miterlimit:4.9999;" d="
		M173.1,112.2l-0.1,0.5c0,0.5-0.3,1.1-0.8,2.1c-0.6,0.9-1,1.5-1.5,1.7l-0.2,0.1l-0.2,0.1c-0.4,0.2-0.9,0.2-1.4,0
		c-0.5-0.2-0.9-0.4-1.1-0.8l-0.1-0.2l-0.5-0.8"/>
	<path id="Layer0_5_MEMBER_0_MEMBER_7_1_STROKES" style="fill:none;stroke:#373535;stroke-width:0.5;stroke-miterlimit:4.9999;" d="
		M173.9,115l-1.1,2.2l-1.1,1.5l-0.1,0.1"/>
	<path id="Layer0_5_MEMBER_0_MEMBER_8_1_STROKES" style="fill:none;stroke:#373535;stroke-width:0.5;stroke-miterlimit:4.9999;" d="
		M177.6,114.8l0,0.1c0.3,0.7,0.5,1.1,0.6,1.4c0.2,0.6,0.2,1.1,0,1.5l0,0.2"/>
	<path id="Layer0_5_MEMBER_0_MEMBER_9_1_STROKES" style="fill:none;stroke:#373535;stroke-width:0.5;stroke-miterlimit:4.9999;" d="
		M181,115.9l0.1,0.2c0.1,0.5,0.4,1.1,0.8,1.9c0.2,0.7,0.2,1.3-0.2,2l-0.1,0.2"/>
	
		<path id="Layer0_5_MEMBER_0_MEMBER_10_1_STROKES" style="fill:none;stroke:#373535;stroke-width:0.5;stroke-miterlimit:4.9999;" d="
		M184.6,116.8l0.2,0.3l0.1,0.3v3.6"/>
	
		<path id="Layer0_5_MEMBER_0_MEMBER_11_1_STROKES" style="fill:none;stroke:#373535;stroke-width:0.5;stroke-miterlimit:4.9999;" d="
		M198.1,120.7l0,0.4l-0.1,0.4c-0.2,0.4-0.6,1-1,1.9c-0.4,0.8-0.7,1.4-1,1.8l-0.3,0.3l-0.3,0.3c-0.9,0.8-1.5,1.2-1.8,1.4
		c-0.6,0.3-1.3,0.4-2.3,0.3l-0.6-0.1"/>
	
		<path id="Layer0_5_MEMBER_0_MEMBER_12_1_STROKES" style="fill:none;stroke:#373535;stroke-width:0.5;stroke-miterlimit:4.9999;" d="
		M201.5,119.4l0.7,0.6c1.3,1.2,2.2,2.2,2.8,3.2l0.5,1.3l0.2,0.8l0.2,1.6l0,0.1"/>
	
		<path id="Layer0_5_MEMBER_0_MEMBER_13_1_STROKES" style="fill:none;stroke:#373535;stroke-width:0.5;stroke-miterlimit:4.9999;" d="
		M202.2,131.9v0.2l0,0.1l-0.4,1c-0.1,0.2-0.2,0.4-0.4,0.6"/>
	
		<path id="Layer0_5_MEMBER_0_MEMBER_14_1_STROKES" style="fill:none;stroke:#373535;stroke-width:0.5;stroke-miterlimit:4.9999;" d="
		M207.5,133.8v0.2c-0.1,0.5,0.1,1.4,0.6,2.7l0.1,0.1"/>
	
		<path id="Layer0_5_MEMBER_0_MEMBER_15_1_STROKES" style="fill:none;stroke:#373535;stroke-width:0.5;stroke-miterlimit:4.9999;" d="
		M203.3,97.3l-0.2,0.5l-0.3,0.4c-0.9,0.7-1.6,1.8-2.1,3.3c-0.5,1.2-0.8,2.5-1,3.9l-0.3,1.5c-0.5,1.2-0.6,2.8-0.2,4.7
		c0.2,1.1,0.7,2.6,1.4,4.6l0.3,0.8"/>
	
		<path id="Layer0_5_MEMBER_0_MEMBER_16_1_STROKES" style="fill:none;stroke:#373535;stroke-width:0.5;stroke-miterlimit:4.9999;" d="
		M188.2,72.7l0.2,0.9l0.8,6.5c0.1,0.6,0.2,0.9,0.2,0.9c0.1,0.2,0.3,0.4,0.6,0.7l0.2,0.1"/>
	
		<path id="Layer0_5_MEMBER_0_MEMBER_17_1_STROKES" style="fill:none;stroke:#373535;stroke-width:0.5;stroke-miterlimit:4.9999;" d="
		M190.3,81.7l-0.1,0.2c-0.4,0.6-0.8,1.1-1.1,1.7l-0.2,0.2"/>
	
		<path id="Layer0_5_MEMBER_0_MEMBER_18_1_STROKES" style="fill:none;stroke:#373535;stroke-width:0.5;stroke-miterlimit:4.9999;" d="
		M204.6,86.1l0.6,0.8c0.4,0.7,0.7,1.3,0.6,1.7c0,0.4-0.3,0.9-0.9,1.5l-0.5,0.7c-0.1,0.1-0.2,0.3-0.4,0.6c-0.2,0.2-0.3,0.4-0.5,0.4"
		/>
	
		<path id="Layer0_5_MEMBER_0_MEMBER_19_1_STROKES" style="fill:none;stroke:#373535;stroke-width:0.5;stroke-miterlimit:4.9999;" d="
		M213.5,91.4l-0.3,0.2c-1.2,0.3-2,0.5-2.6,0.6c-0.9,0.1-1.7-0.1-2.5-0.6l-0.2-0.1"/>
	
		<path id="Layer0_5_MEMBER_0_MEMBER_20_1_STROKES" style="fill:none;stroke:#373535;stroke-width:0.5;stroke-miterlimit:4.9999;" d="
		M219.3,98.9l-0.2,0.2l-0.3,0.2c-0.6,0.5-1.2,0.9-2,1.1c-0.3,0.1-1.1,0.2-2.3,0.3l-1.7,0.1c-1.9,0.1-3.4,0.1-4.4,0.1
		c-1.9,0.1-3.3-0.1-4.2-0.4l-0.3-0.1"/>
	
		<path id="Layer0_5_MEMBER_0_MEMBER_21_1_STROKES" style="fill:none;stroke:#373535;stroke-width:0.5;stroke-miterlimit:4.9999;" d="
		M219.6,105.2l-0.5,0.4c-0.6,0.4-1.6,0.7-3,0.9c-1.5,0.1-2.6,0.2-3.2,0.3l-0.6,0.1c-1.9,0.1-3.1,0.2-3.6,0.1c-1.2-0.1-2.3-0.4-3.5-1
		l-0.7-0.4"/>
	
		<path id="Layer0_5_MEMBER_0_MEMBER_22_1_STROKES" style="fill:none;stroke:#373535;stroke-width:0.5;stroke-miterlimit:4.9999;" d="
		M219.3,109.2L219,109c-2.1-1-3.4-1.6-3.6-1.8l-0.4-0.1"/>
	
		<path id="Layer0_5_MEMBER_0_MEMBER_23_1_STROKES" style="fill:none;stroke:#373535;stroke-width:0.5;stroke-miterlimit:4.9999;" d="
		M218.1,112.2l-0.8,0.3c-1.9,0.6-3.8,0.6-5.6,0.2c-1.1-0.2-2.8-0.9-5.4-2.1l-0.6-0.3"/>
	
		<path id="Layer0_5_MEMBER_0_MEMBER_24_1_STROKES" style="fill:none;stroke:#373535;stroke-width:0.5;stroke-miterlimit:4.9999;" d="
		M219.4,118.3l-1,0.2c-1.6,0.1-3.4-0.2-5.4-0.7l-2-0.5c-0.9-0.2-1.6-0.3-2-0.5c-0.8-0.2-1.4-0.5-1.9-0.8l-0.1-0.1"/>
	
		<path id="Layer0_5_MEMBER_0_MEMBER_25_1_STROKES" style="fill:none;stroke:#373535;stroke-width:0.5;stroke-miterlimit:4.9999;" d="
		M217.8,124.6l-0.3-0.6c-0.9-2.1-2.7-3.5-5.3-4.4c-1.9-0.6-2.9-1-3.1-1.1c-1.1-0.5-2.1-1.1-2.7-1.9"/>
	
		<path id="Layer0_5_MEMBER_0_MEMBER_26_1_STROKES" style="fill:none;stroke:#373535;stroke-width:0.5;stroke-miterlimit:4.9999;" d="
		M207.7,121l0.3,0.3c1.1,0.4,2.1,1.2,3.1,2.4c0.4,0.4,1.1,1.5,2.3,3.2l0.2,0.3"/>
	
		<path id="Layer0_5_MEMBER_0_MEMBER_27_1_STROKES" style="fill:none;stroke:#373535;stroke-width:0.5;stroke-miterlimit:4.9999;" d="
		M224.3,96l1.2,1.9c0.6,0.9,1.1,1.8,1.8,2.8c0.3,0.8,0.4,1.8,0.2,3.2l-0.2,1c-0.2,0.9,0,2,0.5,3c0.2,0.4,0.7,1.3,1.5,2.7l0.3,0.6
		l0.3,1.1l0,0.5c0.1,1.4,0,2.8-0.3,4.2l-0.2,0.8c-0.4,1.3-0.6,2.2-0.8,2.9c-0.2,0.9-0.4,1.9-0.5,3l-0.2,1.1v0.1
		c0.1,1.2,0.2,2,0.1,2.4c-0.1,0.4-0.4,1.1-1,2l-0.3,0.6c-0.1,0.4-0.6,1.1-1.5,2c-0.5,0.5-1.1,1.1-1.9,1.9l-0.3,0.2l-0.2,0.1l-0.2,0
		c-1.6,0.2-2.6,1-3.1,2.3c-0.2,0.7-0.4,2-0.4,4.1v0.2l0.1,0.4"/>
	
		<path id="Layer0_5_MEMBER_0_MEMBER_28_1_STROKES" style="fill:none;stroke:#373535;stroke-width:0.5;stroke-miterlimit:4.9999;" d="
		M216.4,76.1l0.5,1.8v0.1l0,0.1c0.2,0.5,0.5,1,0.9,1.3c0.2,0.2,0.7,0.5,1.3,0.8l0.7,0.3c0.5,0.3,0.8,0.5,1,0.6l0.8,0.8l0.2,0.2
		l0.1,0.1v0l0.7,2.2c0.1,0.2,0.1,0.6,0.1,1.1l0,0.3l0.1,0.2c0.1,0.3,0.1,0.5,0.1,0.6c0,0.2-0.1,0.4-0.3,0.6l-0.4,0.5L222,88
		c-0.1,1,0.4,2.8,1.4,5.3l0.2,1"/>
	
		<path id="Layer0_5_MEMBER_0_MEMBER_29_1_STROKES" style="fill:none;stroke:#373535;stroke-width:0.5;stroke-miterlimit:4.9999;" d="
		M212.6,134.5l1.2,1l0.3,0.2c0.3,0.2,1,0.5,2,0.9c0.7,0.3,1.3,0.7,1.9,1.2l0.6,0.6c0.5,0.5,0.9,0.8,1,0.9c0.2,0.1,0.7,0.2,1.3,0.1"
		/>
	
		<path id="Layer0_5_MEMBER_0_MEMBER_30_1_STROKES" style="fill:none;stroke:#373535;stroke-width:0.5;stroke-miterlimit:4.9999;" d="
		M217.3,137.2l-0.3,0.6c-0.2,0.7-0.3,1.5-0.3,2.4c-0.2,0.7-0.8,1.3-1.8,1.8"/>
	
		<path id="Layer0_5_MEMBER_0_MEMBER_31_1_STROKES" style="fill:none;stroke:#373535;stroke-width:0.5;stroke-miterlimit:4.9999;" d="
		M211.9,74.2l0.3,1.2v0.1l0,0.1c0.3,0.7,0.8,1.2,1.5,1.6c0.4,0.2,1.1,0.6,2,1l0.4,0.3l1.1,1.1v0.1l0.1,0.2l0.1,0.4
		c0.2,0.7,0.4,1.1,0.4,1.3c0.1,0.4,0.1,0.8,0.2,1.3l0,0.2l0.1,0.2l0,0.2l0.1,0.2l-0.1,0.3l-0.1,0.3c-0.4,0.4-0.6,0.7-0.6,0.8
		c-0.1,0.2-0.1,0.6-0.1,1l0.1,0.7c0.2,1,0.5,2,0.9,2.9l0.4,1.3l0.1,0.4c0.1,0.6,0.3,1.3,0.7,2c0.2,0.4,0.6,1,1.1,1.8l0.9,1.3
		c0.6,0.8,0.9,1.5,1.1,2c0.1,0.5,0.2,1.3,0.1,2.2l-0.2,1.1l-0.1,0.5l-0.1,1.1l0.1,1c0.6,1.4,1.3,2.8,2.1,4.2
		c0.5,1.1,0.6,2.8,0.3,4.9l-0.1,0.6c-0.2,1-0.6,2.4-1,4c-0.3,1.3-0.5,2.8-0.6,4.2v0l0.1,1.3c0,0.7,0,1.3-0.2,1.7
		c0,0.1-0.3,0.6-0.9,1.4l-0.3,0.6c-0.2,0.5-0.5,0.9-0.9,1.3c-0.2,0.2-0.6,0.6-1.1,1.1l-1.5,1.5c-0.2,0.2-0.5,0.3-0.8,0.3
		c-0.4,0-0.8,0.1-1.1,0.3l-0.6,0.3c-0.8,0.5-1.3,1.3-1.5,2.3l-0.1,1.4"/>
	
		<path id="Layer0_5_MEMBER_0_MEMBER_32_1_STROKES" style="fill:none;stroke:#373535;stroke-width:0.5;stroke-miterlimit:4.9999;" d="
		M212.6,134.5l-0.3,0.8c0,0-0.1,0.7-0.2,1.9c-0.1,0.6-0.4,1.2-1,1.7l-0.1,0.1"/>
	
		<path id="Layer0_5_MEMBER_0_MEMBER_33_1_STROKES" style="fill:none;stroke:#373535;stroke-width:0.5;stroke-miterlimit:4.9999;" d="
		M216.4,76.1L216.4,76.1c-0.3,0.2-0.7,0.3-1.3,0.1l-0.2-0.1l-0.2-0.1c-0.3-0.1-0.7-0.3-1-0.6c-0.5-0.3-0.8-0.6-1-0.7l-0.7-0.5"/>
	
		<path id="Layer0_5_MEMBER_0_MEMBER_34_1_STROKES" style="fill:none;stroke:#373535;stroke-width:0.5;stroke-miterlimit:4.9999;" d="
		M221,82.6h-0.1l-0.1,0c-0.1-0.1-0.4-0.2-0.9-0.4l-0.1-0.1l-0.1,0c-0.1-0.1-0.3-0.2-0.6-0.3"/>
	
		<path id="Layer0_5_MEMBER_0_MEMBER_35_1_STROKES" style="fill:none;stroke:#373535;stroke-width:0.5;stroke-miterlimit:4.9999;" d="
		M232.3,103.5l0.1,9.6l-0.8,4.6l-0.1,3.9c-0.4,2.9-1.4,5.8-3,8.8l-1.4,2.4c-1.7,3-3.4,5.1-5,6.5l-1.1,0.8l-2.2,1l-0.2,0.1h-0.2
		l-0.3-0.1l-0.2-0.2l0,0h0v0h0v0.1c0.1,0.3,0,0.5-0.1,0.7c-0.1,0.1-0.2,0.3-0.5,0.6"/>
	
		<path id="Layer0_5_MEMBER_0_MEMBER_36_1_STROKES" style="fill:none;stroke:#373535;stroke-width:0.5;stroke-miterlimit:4.9999;" d="
		M220.1,142.3h-0.2c-0.7-0.1-1.2-0.2-1.3-0.3c-0.4-0.2-0.7-0.5-0.9-1"/>
	
		<path id="Layer0_5_MEMBER_0_MEMBER_37_1_STROKES" style="fill:none;stroke:#373535;stroke-width:0.5;stroke-miterlimit:4.9999;" d="
		M219.7,134l-1.3-0.7"/>
	
		<path id="Layer0_5_MEMBER_0_MEMBER_38_1_STROKES" style="fill:none;stroke:#373535;stroke-width:0.5;stroke-miterlimit:4.9999;" d="
		M226.8,122l-2-1"/>
	
		<path id="Layer0_5_MEMBER_0_MEMBER_39_1_STROKES" style="fill:none;stroke:#373535;stroke-width:0.5;stroke-miterlimit:4.9999;" d="
		M228.4,105.3l0.2,0c0.4-0.1,1.2-0.1,2.4,0.2"/>
	
		<path id="Layer0_5_MEMBER_0_MEMBER_40_1_STROKES" style="fill:none;stroke:#373535;stroke-width:0.5;stroke-miterlimit:4.9999;" d="
		M229.8,109.4L229.8,109.4L229.8,109.4l1,0.9"/>
	
		<path id="Layer0_5_MEMBER_0_MEMBER_41_1_STROKES" style="fill:none;stroke:#373535;stroke-width:0.5;stroke-miterlimit:4.9999;" d="
		M229.3,121.7h0.2l0.4-0.1l0.2-0.1l0.2-0.2l0.1-0.1"/>
	
		<path id="Layer0_5_MEMBER_0_MEMBER_42_1_STROKES" style="fill:none;stroke:#373535;stroke-width:0.5;stroke-miterlimit:4.9999;" d="
		M229.1,124.2l0.1,0.1c0.2,0.3,0.3,0.5,0.3,0.6c0,0.1,0,0.3-0.1,0.6"/>
	
		<path id="Layer0_5_MEMBER_0_MEMBER_43_1_STROKES" style="fill:none;stroke:#373535;stroke-width:0.5;stroke-miterlimit:4.9999;" d="
		M224.1,88.9c1,1.5,1.4,2.9,1.2,4.2l0,0c-0.4,0.2-0.6,0.5-0.8,0.9l-0.3,0.3c-0.4,0.4-0.9,0.6-1.4,0.6l-0.1,0l-0.1,0.1l0.2,0.1
		l0.4,0.1c1,0.2,1.9,0.7,2.5,1.3c1,0.9,1.7,1.5,2.1,1.7l0.6,0.6c1,1.1,2.3,2.6,3.8,4.6l0.3,0.6l0.9,2.6"/>
	
		<path id="Layer0_5_MEMBER_0_MEMBER_44_1_STROKES" style="fill:none;stroke:#373535;stroke-width:0.5;stroke-miterlimit:4.9999;" d="
		M225.3,93l0.8,0.7c0.2,0.2,0.5,0.5,1,0.9c0.4,0.4,0.8,0.6,1.1,0.7l0.1,0.1l0.2,0.2c0.3,0.4,0.8,0.9,1.3,1.4
		c0.5,0.4,0.9,0.8,1.2,1.3l0.2,0.2l1,1.5"/>
	
		<path id="Layer0_5_MEMBER_0_MEMBER_45_1_STROKES" style="fill:none;stroke:#373535;stroke-width:0.5;stroke-miterlimit:4.9999;" d="
		M221.3,85.6L221.3,85.6l-0.2,0c-0.6,0-1-0.4-1.4-1.2c-0.4-0.8-0.4-1.3,0.1-1.7l0.2-0.1c0.5-0.1,1,0.3,1.4,1.1
		c0.4,0.8,0.4,1.3,0,1.7L221.3,85.6L221.3,85.6z"/>
	
		<path id="Layer0_5_MEMBER_0_MEMBER_46_1_STROKES" style="fill:none;stroke:#373535;stroke-width:0.5;stroke-miterlimit:4.9999;" d="
		M221,84.9c-0.2,0.1-0.5-0.1-0.7-0.4c-0.2-0.4-0.2-0.7-0.1-0.9l0-0.1h0l0.1-0.1c0.3,0,0.5,0.1,0.7,0.5
		C221.2,84.4,221.2,84.7,221,84.9L221,84.9z"/>
	
		<path id="Layer0_5_MEMBER_0_MEMBER_47_1_STROKES" style="fill:none;stroke:#373535;stroke-width:0.5;stroke-miterlimit:4.9999;" d="
		M221.3,87.3l-2.6-1.1"/>
	
		<path id="Layer0_5_MEMBER_0_MEMBER_48_1_STROKES" style="fill:none;stroke:#373535;stroke-width:0.5;stroke-miterlimit:4.9999;" d="
		M220,80.9l-2.6-1.1"/>
	
		<path id="Layer0_5_MEMBER_0_MEMBER_49_1_STROKES" style="fill:none;stroke:#373535;stroke-width:0.5;stroke-miterlimit:4.9999;" d="
		M190.9,96.8l-0.2,0.7c-0.1,0.3-0.4,1.3-1.1,3.1c-0.5,1.2-0.7,2.2-0.6,3l-0.2,3l0.1,1.5l0.6,2l0.1,0.3l0,0.1l0.1,0.1l0.1,0.1"/>
	
		<path id="Layer0_5_MEMBER_0_MEMBER_50_1_STROKES" style="fill:none;stroke:#373535;stroke-width:0.5;stroke-miterlimit:4.9999;" d="
		M183.6,95l-0.3,0.7c-0.7,1.4-1.1,2.7-1.3,4.1l-0.1,1c-0.1,0.9,0,2,0.3,3.5c0.2,1.5,0.3,2.7,0.3,3.6v0.5l0,0.2"/>
	
		<path id="Layer0_5_MEMBER_0_MEMBER_51_1_STROKES" style="fill:none;stroke:#373535;stroke-width:0.5;stroke-miterlimit:4.9999;" d="
		M174.3,97.2l0.2,1.7c0.2,1.3,0.3,2.1,0.3,2.3c0.1,0.6,0.4,1.3,0.9,2l0.2,0.5l0.1,0.7c0.1,1.6,0.1,2.7,0.2,3.1
		c0.1,0.9,0.4,1.9,0.9,3l0.2,0.5l0.1,0.2"/>
	
		<path id="Layer0_5_MEMBER_0_MEMBER_52_1_STROKES" style="fill:none;stroke:#373535;stroke-width:0.5;stroke-miterlimit:4.9999;" d="
		M172.2,96.4l0-0.4c0.1-0.8-0.2-2-0.7-3.8c-0.4-1.3-0.2-2.6,0.4-4l0.1-0.1"/>
	
		<path id="Layer0_5_MEMBER_0_MEMBER_53_1_STROKES" style="fill:none;stroke:#373535;stroke-width:0.5;stroke-miterlimit:4.9999;" d="
		M190.2,82.5l-0.2,0.3c-0.7,0.7-1.5,1.4-2.3,1.9c-1.1,0.7-1.8,1.3-2.3,1.6l-0.9,0.8c-0.4,0.3-0.9,0.9-1.3,1.6l-0.5,1
		c-0.2,0.3-0.4,0.8-0.6,1.5"/>
	
		<path id="Layer0_5_MEMBER_0_MEMBER_54_1_STROKES" style="fill:none;stroke:#373535;stroke-width:0.5;stroke-miterlimit:4.9999;" d="
		M198,81.4l0.1,0.2c0.2,1,0.5,1.9,0.8,2.6c0.1,0.5,0,1.4-0.3,2.7"/>
	
		<path id="Layer0_5_MEMBER_0_MEMBER_55_1_STROKES" style="fill:none;stroke:#373535;stroke-width:0.5;stroke-miterlimit:4.9999;" d="
		M163.3,37.1L115.7,9.6"/>
	
		<path id="Layer0_5_MEMBER_0_MEMBER_56_1_STROKES" style="fill:none;stroke:#373535;stroke-width:0.5;stroke-miterlimit:4.9999;" d="
		M163.3,37.1l-17.6,10.2"/>
	
		<path id="Layer0_5_MEMBER_0_MEMBER_57_1_STROKES" style="fill:none;stroke:#373535;stroke-width:0.5;stroke-miterlimit:4.9999;" d="
		M163.4,40.6v48.6"/>
	
		<path id="Layer0_5_MEMBER_0_MEMBER_58_1_STROKES" style="fill:none;stroke:#373535;stroke-width:0.5;stroke-miterlimit:4.9999;" d="
		M163.4,90.6v1.5"/>
	
		<path id="Layer0_5_MEMBER_0_MEMBER_59_1_STROKES" style="fill:none;stroke:#373535;stroke-width:0.5;stroke-miterlimit:4.9999;" d="
		M163.4,37.2v1.5"/>
	
		<path id="Layer0_5_MEMBER_0_MEMBER_60_1_STROKES" style="fill:none;stroke:#373535;stroke-width:0.5;stroke-miterlimit:4.9999;" d="
		M139.4,58.4v37.8"/>
	
		<path id="Layer0_5_MEMBER_0_MEMBER_61_1_STROKES" style="fill:none;stroke:#373535;stroke-width:0.5;stroke-miterlimit:4.9999;" d="
		M139.4,58.4v-0.2c0-2,0.7-4,1.9-6.1c1.2-2.1,2.6-3.7,4.4-4.7l0.1-0.1"/>
	
		<path id="Layer0_5_MEMBER_0_MEMBER_62_1_STROKES" style="fill:none;stroke:#373535;stroke-width:0.5;stroke-miterlimit:4.9999;" d="
		M147.9,101.1l-0.2,0.1c-2.3,1.3-4.2,1.4-5.8,0.5c-1.6-0.9-2.4-2.7-2.5-5.3v-0.2"/>
	
		<path id="Layer0_5_MEMBER_0_MEMBER_63_1_STROKES" style="fill:none;stroke:#373535;stroke-width:0.5;stroke-miterlimit:4.9999;" d="
		M163.4,92.1l-15.3,8.9"/>
	
		<path id="Layer0_5_MEMBER_0_MEMBER_64_1_STROKES" style="fill:none;stroke:#373535;stroke-width:0.5;stroke-miterlimit:4.9999;" d="
		M160.9,89.1l-18.6-10.8"/>
	
		<path id="Layer0_5_MEMBER_0_MEMBER_65_1_STROKES" style="fill:none;stroke:#373535;stroke-width:0.5;stroke-miterlimit:4.9999;" d="
		M155.6,79.9l0-0.1c-0.2-0.8,0-1.2,0.5-1.2c0.5,0.1,0.9,0.4,1.3,1.1l0.1,0.3c0.2,0.8,0.1,1.3-0.4,1.3c-0.5,0-0.9-0.3-1.3-1
		L155.6,79.9z"/>
	
		<path id="Layer0_5_MEMBER_0_MEMBER_66_1_STROKES" style="fill:none;stroke:#373535;stroke-width:0.5;stroke-miterlimit:4.9999;" d="
		M117.2,128.3l-8.3,4.7"/>
	
		<path id="Layer0_5_MEMBER_0_MEMBER_67_1_STROKES" style="fill:none;stroke:#373535;stroke-width:0.5;stroke-miterlimit:4.9999;" d="
		M118.8,130.8l-8.3,4.8"/>
	
		<path id="Layer0_5_MEMBER_0_MEMBER_68_1_STROKES" style="fill:none;stroke:#373535;stroke-width:0.5;stroke-miterlimit:4.9999;" d="
		M113.6,130.4c0.5-0.1,0.9,0.2,1.3,0.8c0.4,0.7,0.5,1.2,0.2,1.6"/>
	
		<path id="Layer0_5_MEMBER_0_MEMBER_69_1_STROKES" style="fill:none;stroke:#373535;stroke-width:0.5;stroke-miterlimit:4.9999;" d="
		M114.5,129.9c0.5-0.2,0.9,0,1.4,0.8c0.5,0.8,0.5,1.3,0.1,1.7"/>
	
		<path id="Layer0_5_MEMBER_0_MEMBER_70_1_STROKES" style="fill:none;stroke:#373535;stroke-width:0.5;stroke-miterlimit:4.9999;" d="
		M115.5,129.3c0.5-0.2,1,0,1.4,0.8c0.5,0.8,0.5,1.3,0.1,1.7"/>
	
		<path id="Layer0_5_MEMBER_0_MEMBER_71_1_STROKES" style="fill:none;stroke:#373535;stroke-width:0.5;stroke-miterlimit:4.9999;" d="
		M116.4,128.8c0.5-0.2,1,0,1.4,0.8c0.5,0.8,0.5,1.3,0.1,1.7"/>
	
		<path id="Layer0_5_MEMBER_0_MEMBER_72_1_STROKES" style="fill:none;stroke:#373535;stroke-width:0.5;stroke-miterlimit:4.9999;" d="
		M117.3,128.3c0.5-0.1,0.9,0.2,1.3,0.8c0.4,0.7,0.5,1.2,0.2,1.6"/>
	
		<path id="Layer0_5_MEMBER_0_MEMBER_73_1_STROKES" style="fill:none;stroke:#373535;stroke-width:0.25;stroke-miterlimit:4.9999;" d="
		M107.5,134.1l0.6,0.3"/>
	
		<path id="Layer0_5_MEMBER_0_MEMBER_74_1_STROKES" style="fill:none;stroke:#373535;stroke-width:0.25;stroke-miterlimit:4.9999;" d="
		M109.1,135.9l0,0.6"/>
	
		<path id="Layer0_5_MEMBER_0_MEMBER_75_1_STROKES" style="fill:none;stroke:#373535;stroke-width:0.25;stroke-miterlimit:4.9999;" d="
		M107.3,136l0.6-0.3"/>
	
		<path id="Layer0_5_MEMBER_0_MEMBER_76_1_STROKES" style="fill:none;stroke:#373535;stroke-width:0.25;stroke-miterlimit:4.9999;" d="
		M107.9,136.4l0.6-0.5"/>
	
		<path id="Layer0_5_MEMBER_0_MEMBER_77_1_STROKES" style="fill:none;stroke:#373535;stroke-width:0.25;stroke-miterlimit:4.9999;" d="
		M107.2,135.3l0.7-0.3"/>
	
		<path id="Layer0_5_MEMBER_0_MEMBER_78_1_STROKES" style="fill:none;stroke:#373535;stroke-width:0.25;stroke-miterlimit:4.9999;" d="
		M107.9,135.5l0.4,0.2l0.5,0.1h0.4"/>
	
		<path id="Layer0_5_MEMBER_0_MEMBER_79_1_STROKES" style="fill:none;stroke:#373535;stroke-width:0.25;stroke-miterlimit:4.9999;" d="
		M107.9,136.4l0.4,0.1l0.4,0l0.4,0"/>
	
		<path id="Layer0_5_MEMBER_0_MEMBER_80_1_STROKES" style="fill:none;stroke:#373535;stroke-width:0.25;stroke-miterlimit:4.9999;" d="
		M107.2,135.3l0.1-0.5l0.1-0.4l0.2-0.4"/>
	
		<path id="Layer0_5_MEMBER_0_MEMBER_81_1_STROKES" style="fill:none;stroke:#373535;stroke-width:0.25;stroke-miterlimit:4.9999;" d="
		M107.9,135.5l0-0.4l0.2-0.7"/>
	
		<path id="Layer0_5_MEMBER_0_MEMBER_82_1_STROKES" style="fill:none;stroke:#373535;stroke-width:0.25;stroke-miterlimit:4.9999;" d="
		M107.5,132.8c0.8-0.4,1.6,0,2.3,1.3c0.8,1.2,0.9,2.2,0.3,2.8L110,137"/>
	
		<path id="Layer0_5_MEMBER_0_MEMBER_83_1_STROKES" style="fill:none;stroke:#373535;stroke-width:0.5;stroke-miterlimit:4.9999;" d="
		M106.9,133.2l-0.1,0.1c-0.4,0.9-0.4,1.8,0.1,2.6c0.5,0.9,1.2,1.4,2.2,1.4h0.1"/>
	
		<path id="Layer0_5_MEMBER_0_MEMBER_84_1_STROKES" style="fill:none;stroke:#373535;stroke-width:0.25;stroke-miterlimit:4.9999;" d="
		M109.3,137.4l0.7-0.4"/>
	
		<path id="Layer0_5_MEMBER_0_MEMBER_85_1_STROKES" style="fill:none;stroke:#373535;stroke-width:0.25;stroke-miterlimit:4.9999;" d="
		M106.9,133.2l0.6-0.3"/>
	
		<path id="Layer0_5_MEMBER_0_MEMBER_86_1_STROKES" style="fill:none;stroke:#373535;stroke-width:0.5;stroke-miterlimit:4.9999;" d="
		M106.9,133.2l0.1-0.1c0.8-0.2,1.6,0.3,2.2,1.5c0.7,1.2,0.7,2,0.2,2.7l-0.1,0.1"/>
	
		<path id="Layer0_5_MEMBER_0_MEMBER_87_1_STROKES" style="fill:none;stroke:#373535;stroke-width:0.5;stroke-miterlimit:4.9999;" d="
		M130.6,118.8c1-0.2,1.9,0.5,2.7,1.9c0.8,1.5,0.8,2.6,0.1,3.3l-0.3,0.2c-1,0.3-1.9-0.3-2.8-1.7c-0.9-1.4-1-2.6-0.3-3.4l0.3-0.2
		L130.6,118.8z"/>
	
		<path id="Layer0_5_MEMBER_0_MEMBER_88_1_STROKES" style="fill:none;stroke:#373535;stroke-width:0.5;stroke-miterlimit:4.9999;" d="
		M131.1,120.1c0.5-0.1,1,0.2,1.4,1c0.4,0.8,0.4,1.3,0.1,1.7l-0.1,0l-0.1,0.1c-0.5,0.1-1-0.2-1.4-0.9c-0.4-0.7-0.5-1.3-0.2-1.7
		l0.1-0.1l0.1-0.1L131.1,120.1z"/>
	
		<path id="Layer0_5_MEMBER_0_MEMBER_89_1_STROKES" style="fill:none;stroke:#373535;stroke-width:0.5;stroke-miterlimit:4.9999;" d="
		M130.2,118.9l0.9-0.5c1-0.4,2,0.2,2.9,1.7c0.9,1.5,1,2.7,0.2,3.4l-0.1,0.1l-0.9,0.5"/>
	
		<path id="Layer0_5_MEMBER_0_MEMBER_90_1_STROKES" style="fill:none;stroke:#373535;stroke-width:0.5;stroke-miterlimit:4.9999;" d="
		M152.3,41l-6.7,3.9"/>
	
		<path id="Layer0_5_MEMBER_0_MEMBER_91_1_STROKES" style="fill:none;stroke:#373535;stroke-width:0.5;stroke-miterlimit:4.9999;" d="
		M137.2,60.2v33.5"/>
	
		<path id="Layer0_5_MEMBER_0_MEMBER_92_1_STROKES" style="fill:none;stroke:#373535;stroke-width:0.5;stroke-miterlimit:4.9999;" d="
		M137.2,57.1V57c0.1-2,0.7-4.1,1.9-6.1c1.2-2,2.6-3.6,4.3-4.7l0.2-0.1"/>
	
		<path id="Layer0_5_MEMBER_0_MEMBER_93_1_STROKES" style="fill:none;stroke:#373535;stroke-width:0.5;stroke-miterlimit:4.9999;" d="
		M139.7,100.4l-0.1-0.1c-0.8-0.5-1.4-1.3-1.8-2.3c-0.3-0.9-0.5-1.8-0.5-2.9v-0.2"/>
	
		<path id="Layer0_5_MEMBER_0_MEMBER_94_1_STROKES" style="fill:none;stroke:#373535;stroke-width:0.5;stroke-miterlimit:4.9999;" d="
		M151.4,39.4l-6.9,4"/>
	
		<path id="Layer0_5_MEMBER_0_MEMBER_95_1_STROKES" style="fill:none;stroke:#373535;stroke-width:0.5;stroke-miterlimit:4.9999;" d="
		M135.3,56.1v36.4"/>
	
		<path id="Layer0_5_MEMBER_0_MEMBER_96_1_STROKES" style="fill:none;stroke:#373535;stroke-width:0.5;stroke-miterlimit:4.9999;" d="
		M135.8,52.9l0.1-0.2c0.8-2.5,2.2-4.7,4.1-6.5"/>
	
		<path id="Layer0_5_MEMBER_0_MEMBER_97_1_STROKES" style="fill:none;stroke:#373535;stroke-width:0.5;stroke-miterlimit:4.9999;" d="
		M137.7,100.2l-0.1-0.1c-1.4-1-2.2-2.7-2.2-5.1v-0.2"/>
	
		<path id="Layer0_5_MEMBER_0_MEMBER_98_1_STROKES" style="fill:none;stroke:#373535;stroke-width:0.5;stroke-miterlimit:4.9999;" d="
		M115.7,9.6L98.1,19.8"/>
	
		<path id="Layer0_5_MEMBER_0_MEMBER_99_1_STROKES" style="fill:none;stroke:#373535;stroke-width:0.5;stroke-miterlimit:4.9999;" d="
		M91.7,30.8v37.8"/>
	
		<path id="Layer0_5_MEMBER_0_MEMBER_100_1_STROKES" style="fill:none;stroke:#373535;stroke-width:0.5;stroke-miterlimit:4.9999;" d="
		M91.7,30.8v-0.2c0.1-2,0.7-4,1.9-6.1c1.2-2.1,2.6-3.6,4.3-4.7l0.2-0.1"/>
	
		<path id="Layer0_5_MEMBER_0_MEMBER_101_1_STROKES" style="fill:none;stroke:#373535;stroke-width:0.5;stroke-miterlimit:4.9999;" d="
		M94.2,74.1L94,74c-1.5-1-2.3-2.7-2.3-5.2v-0.2"/>
	
		<path id="Layer0_5_MEMBER_0_MEMBER_102_1_STROKES" style="fill:none;stroke:#373535;stroke-width:0.5;stroke-miterlimit:4.9999;" d="
		M104.2,79.9l4.9,2.8"/>
	
		<path id="Layer0_5_MEMBER_0_MEMBER_103_1_STROKES" style="fill:none;stroke:#373535;stroke-width:0.5;stroke-miterlimit:4.9999;" d="
		M112.8,84.8l5.3,3.1"/>
	
		<path id="Layer0_5_MEMBER_0_MEMBER_104_1_STROKES" style="fill:none;stroke:#373535;stroke-width:0.5;stroke-miterlimit:4.9999;" d="
		M121.9,90.1l5,2.9"/>
	
		<path id="Layer0_5_MEMBER_0_MEMBER_105_1_STROKES" style="fill:none;stroke:#373535;stroke-width:0.5;stroke-miterlimit:4.9999;" d="
		M139.6,100.3l2.2,1.2"/>
	
		<path id="Layer0_5_MEMBER_0_MEMBER_106_1_STROKES" style="fill:none;stroke:#373535;stroke-width:0.5;stroke-miterlimit:4.9999;" d="
		M130.8,95.3l5.3,3"/>
	
		<path id="Layer0_5_MEMBER_0_MEMBER_107_1_STROKES" style="fill:none;stroke:#373535;stroke-width:0.5;stroke-miterlimit:4.9999;" d="
		M94.2,74.1l5.7,3.3"/>
	
		<path id="Layer0_5_MEMBER_0_MEMBER_108_1_STROKES" style="fill:none;stroke:#373535;stroke-width:0.25;stroke-miterlimit:4.9999;" d="
		M156.3,80.1l-5.1,2.9"/>
	
		<path id="Layer0_5_MEMBER_0_MEMBER_109_1_STROKES" style="fill:none;stroke:#373535;stroke-width:0.25;stroke-miterlimit:4.9999;" d="
		M149.9,83.7l-1.3,0.7"/>
	
		<path id="Layer0_5_MEMBER_0_MEMBER_110_1_STROKES" style="fill:none;stroke:#373535;stroke-width:0.25;stroke-miterlimit:4.9999;" d="
		M147.4,85.2l-5.1,3"/>
	
		<path id="Layer0_5_MEMBER_0_MEMBER_111_1_STROKES" style="fill:none;stroke:#373535;stroke-width:0.25;stroke-miterlimit:4.9999;" d="
		M167.4,73.7l-1.5,0.9"/>
	
		<path id="Layer0_5_MEMBER_0_MEMBER_112_1_STROKES" style="fill:none;stroke:#373535;stroke-width:0.25;stroke-miterlimit:4.9999;" d="
		M165.5,74.7l-0.4,0.2"/>
	
		<path id="Layer0_5_MEMBER_0_MEMBER_113_1_STROKES" style="fill:none;stroke:#373535;stroke-width:0.25;stroke-miterlimit:4.9999;" d="
		M164.7,75.2l-1.5,0.9"/>
	
		<path id="Layer0_5_MEMBER_0_MEMBER_114_1_STROKES" style="fill:none;stroke:#373535;stroke-width:0.25;stroke-miterlimit:4.9999;" d="
		M142.3,88.1l8.6,5"/>
	
		<path id="Layer0_5_MEMBER_0_MEMBER_115_1_STROKES" style="fill:none;stroke:#373535;stroke-width:0.25;stroke-miterlimit:4.9999;" d="
		M153,94.3l2.2,1.2"/>
	
		<path id="Layer0_5_MEMBER_0_MEMBER_116_1_STROKES" style="fill:none;stroke:#373535;stroke-width:0.25;stroke-miterlimit:4.9999;" d="
		M157.4,96.8l8.6,5"/>
	
		<path id="Layer0_5_MEMBER_0_MEMBER_117_1_STROKES" style="fill:none;stroke:#373535;stroke-width:0.25;stroke-miterlimit:4.9999;" d="
		M131.8,121.5l-4.8,2.8"/>
	
		<path id="Layer0_5_MEMBER_0_MEMBER_118_1_STROKES" style="fill:none;stroke:#373535;stroke-width:0.25;stroke-miterlimit:4.9999;" d="
		M125.8,125l-1.2,0.7"/>
	
		<path id="Layer0_5_MEMBER_0_MEMBER_119_1_STROKES" style="fill:none;stroke:#373535;stroke-width:0.25;stroke-miterlimit:4.9999;" d="
		M123.3,126.4l-4.8,2.8"/>
	
		<path id="Layer0_5_MEMBER_0_MEMBER_120_1_STROKES" style="fill:none;stroke:#373535;stroke-width:0.25;stroke-miterlimit:4.9999;" d="
		M165.9,101.8l-5.8,3.3"/>
	
		<path id="Layer0_5_MEMBER_0_MEMBER_121_1_STROKES" style="fill:none;stroke:#373535;stroke-width:0.25;stroke-miterlimit:4.9999;" d="
		M158.7,106l-1.4,0.9"/>
	
		<path id="Layer0_5_MEMBER_0_MEMBER_122_1_STROKES" style="fill:none;stroke:#373535;stroke-width:0.25;stroke-miterlimit:4.9999;" d="
		M155.8,107.6l-11.6,6.7"/>
	
		<path id="Layer0_5_MEMBER_0_MEMBER_123_1_STROKES" style="fill:none;stroke:#373535;stroke-width:0.25;stroke-miterlimit:4.9999;" d="
		M142.8,115.1l-1.4,0.8"/>
	
		<path id="Layer0_5_MEMBER_0_MEMBER_124_1_STROKES" style="fill:none;stroke:#373535;stroke-width:0.25;stroke-miterlimit:4.9999;" d="
		M139.9,116.8l-5.8,3.3"/>
	
		<path id="Layer0_5_MEMBER_0_MEMBER_125_1_STROKES" style="fill:none;stroke:#373535;stroke-width:0.5;stroke-miterlimit:4.9999;" d="
		M152.7,40.7c0.6-0.5,1.1-1.1,1.3-1.7l0-0.1h-0.1c-0.9,0-1.8,0.1-2.6,0.4"/>
	
		<path id="Layer0_5_MEMBER_0_MEMBER_126_1_STROKES" style="fill:none;stroke:#373535;stroke-width:0.5;stroke-miterlimit:4.9999;" d="
		M137.7,100.2l0.1,0.1c0.6,0.7,1.4,0.8,2.4,0.3"/>
	
		<path id="Layer0_5_MEMBER_0_MEMBER_127_1_STROKES" style="fill:none;stroke:#373535;stroke-width:0.5;stroke-miterlimit:4.9999;" d="
		M143.3,35.9l-6.7,3.9"/>
	
		<path id="Layer0_5_MEMBER_0_MEMBER_128_1_STROKES" style="fill:none;stroke:#373535;stroke-width:0.5;stroke-miterlimit:4.9999;" d="
		M128.2,55v33.5"/>
	
		<path id="Layer0_5_MEMBER_0_MEMBER_129_1_STROKES" style="fill:none;stroke:#373535;stroke-width:0.5;stroke-miterlimit:4.9999;" d="
		M128.2,52v-0.2c0.1-2,0.7-4,1.9-6.1c1.2-2.1,2.6-3.6,4.4-4.7l0.2-0.1"/>
	
		<path id="Layer0_5_MEMBER_0_MEMBER_130_1_STROKES" style="fill:none;stroke:#373535;stroke-width:0.5;stroke-miterlimit:4.9999;" d="
		M130.7,95.3l-0.2-0.1c-1.5-1-2.3-2.7-2.3-5.2v-0.3"/>
	
		<path id="Layer0_5_MEMBER_0_MEMBER_131_1_STROKES" style="fill:none;stroke:#373535;stroke-width:0.5;stroke-miterlimit:4.9999;" d="
		M142.3,34.3l-6.9,3.9"/>
	
		<path id="Layer0_5_MEMBER_0_MEMBER_132_1_STROKES" style="fill:none;stroke:#373535;stroke-width:0.5;stroke-miterlimit:4.9999;" d="
		M126.3,50.9v36.4"/>
	
		<path id="Layer0_5_MEMBER_0_MEMBER_133_1_STROKES" style="fill:none;stroke:#373535;stroke-width:0.5;stroke-miterlimit:4.9999;" d="
		M126.8,47.7l0.1-0.2c0.8-2.6,2.2-4.8,4.2-6.5"/>
	
		<path id="Layer0_5_MEMBER_0_MEMBER_134_1_STROKES" style="fill:none;stroke:#373535;stroke-width:0.5;stroke-miterlimit:4.9999;" d="
		M128.6,95l-0.1-0.1c-1.4-1-2.2-2.7-2.2-5.1v-0.2"/>
	
		<path id="Layer0_5_MEMBER_0_MEMBER_135_1_STROKES" style="fill:none;stroke:#373535;stroke-width:0.5;stroke-miterlimit:4.9999;" d="
		M143.7,35.6c0.6-0.5,1.1-1.1,1.3-1.7v-0.1h-0.1c-0.9,0-1.8,0.1-2.6,0.4"/>
	
		<path id="Layer0_5_MEMBER_0_MEMBER_136_1_STROKES" style="fill:none;stroke:#373535;stroke-width:0.5;stroke-miterlimit:4.9999;" d="
		M128.6,95l0.1,0.1c0.6,0.7,1.4,0.8,2.4,0.3"/>
	
		<path id="Layer0_5_MEMBER_0_MEMBER_137_1_STROKES" style="fill:none;stroke:#373535;stroke-width:0.5;stroke-miterlimit:4.9999;" d="
		M134.3,30.7l-6.7,3.9"/>
	
		<path id="Layer0_5_MEMBER_0_MEMBER_138_1_STROKES" style="fill:none;stroke:#373535;stroke-width:0.5;stroke-miterlimit:4.9999;" d="
		M119.2,49.9v33.5"/>
	
		<path id="Layer0_5_MEMBER_0_MEMBER_139_1_STROKES" style="fill:none;stroke:#373535;stroke-width:0.5;stroke-miterlimit:4.9999;" d="
		M119.2,46.8l0-0.2c0-2,0.7-4,1.9-6.1c1.2-2.1,2.7-3.6,4.3-4.7l0.2-0.1"/>
	
		<path id="Layer0_5_MEMBER_0_MEMBER_140_1_STROKES" style="fill:none;stroke:#373535;stroke-width:0.5;stroke-miterlimit:4.9999;" d="
		M121.7,90.1l-0.1-0.1c-1.5-1-2.3-2.7-2.3-5.2l0-0.3"/>
	
		<path id="Layer0_5_MEMBER_0_MEMBER_141_1_STROKES" style="fill:none;stroke:#373535;stroke-width:0.5;stroke-miterlimit:4.9999;" d="
		M133.3,29.1l-6.9,4"/>
	
		<path id="Layer0_5_MEMBER_0_MEMBER_142_1_STROKES" style="fill:none;stroke:#373535;stroke-width:0.5;stroke-miterlimit:4.9999;" d="
		M117.3,45.7v36.5"/>
	
		<path id="Layer0_5_MEMBER_0_MEMBER_143_1_STROKES" style="fill:none;stroke:#373535;stroke-width:0.5;stroke-miterlimit:4.9999;" d="
		M117.8,42.6l0.1-0.2c0.9-2.6,2.2-4.8,4.1-6.5"/>
	
		<path id="Layer0_5_MEMBER_0_MEMBER_144_1_STROKES" style="fill:none;stroke:#373535;stroke-width:0.5;stroke-miterlimit:4.9999;" d="
		M119.7,89.8l-0.1-0.1c-1.4-1-2.2-2.7-2.2-5.1v-0.2"/>
	
		<path id="Layer0_5_MEMBER_0_MEMBER_145_1_STROKES" style="fill:none;stroke:#373535;stroke-width:0.5;stroke-miterlimit:4.9999;" d="
		M134.7,30.4c0.6-0.5,1.1-1.1,1.3-1.7l0-0.1h-0.1c-1,0-1.8,0.1-2.6,0.4"/>
	
		<path id="Layer0_5_MEMBER_0_MEMBER_146_1_STROKES" style="fill:none;stroke:#373535;stroke-width:0.5;stroke-miterlimit:4.9999;" d="
		M119.7,89.8l0.1,0.1c0.3,0.4,0.7,0.6,1.1,0.6c0.4,0,0.9-0.1,1.3-0.3"/>
	
		<path id="Layer0_5_MEMBER_0_MEMBER_147_1_STROKES" style="fill:none;stroke:#373535;stroke-width:0.5;stroke-miterlimit:4.9999;" d="
		M125.3,25.5l-6.7,3.9"/>
	
		<path id="Layer0_5_MEMBER_0_MEMBER_148_1_STROKES" style="fill:none;stroke:#373535;stroke-width:0.5;stroke-miterlimit:4.9999;" d="
		M110.2,44.7v33.5"/>
	
		<path id="Layer0_5_MEMBER_0_MEMBER_149_1_STROKES" style="fill:none;stroke:#373535;stroke-width:0.5;stroke-miterlimit:4.9999;" d="
		M110.2,41.6v-0.2c0-2,0.7-4,1.9-6.1c1.2-2.1,2.7-3.6,4.4-4.7l0.1-0.1"/>
	
		<path id="Layer0_5_MEMBER_0_MEMBER_150_1_STROKES" style="fill:none;stroke:#373535;stroke-width:0.5;stroke-miterlimit:4.9999;" d="
		M112.7,84.9l-0.2-0.1c-0.8-0.5-1.4-1.3-1.8-2.3c-0.3-0.9-0.5-1.8-0.5-2.9v-0.2"/>
	
		<path id="Layer0_5_MEMBER_0_MEMBER_151_1_STROKES" style="fill:none;stroke:#373535;stroke-width:0.5;stroke-miterlimit:4.9999;" d="
		M124.3,23.9l-6.9,4"/>
	
		<path id="Layer0_5_MEMBER_0_MEMBER_152_1_STROKES" style="fill:none;stroke:#373535;stroke-width:0.5;stroke-miterlimit:4.9999;" d="
		M108.3,40.6V77"/>
	
		<path id="Layer0_5_MEMBER_0_MEMBER_153_1_STROKES" style="fill:none;stroke:#373535;stroke-width:0.5;stroke-miterlimit:4.9999;" d="
		M108.8,37.4l0.1-0.2c0.9-2.6,2.3-4.8,4.2-6.5"/>
	
		<path id="Layer0_5_MEMBER_0_MEMBER_154_1_STROKES" style="fill:none;stroke:#373535;stroke-width:0.5;stroke-miterlimit:4.9999;" d="
		M110.6,84.7l-0.1-0.1c-1.4-1-2.1-2.7-2.2-5.1v-0.2"/>
	
		<path id="Layer0_5_MEMBER_0_MEMBER_155_1_STROKES" style="fill:none;stroke:#373535;stroke-width:0.5;stroke-miterlimit:4.9999;" d="
		M125.7,25.2c0.7-0.5,1.1-1.1,1.3-1.7l0,0h-0.1c-0.9,0-1.8,0.1-2.5,0.4"/>
	
		<path id="Layer0_5_MEMBER_0_MEMBER_156_1_STROKES" style="fill:none;stroke:#373535;stroke-width:0.5;stroke-miterlimit:4.9999;" d="
		M110.6,84.7l0.1,0.1c0.6,0.7,1.4,0.8,2.4,0.3"/>
	
		<path id="Layer0_5_MEMBER_0_MEMBER_157_1_STROKES" style="fill:none;stroke:#373535;stroke-width:0.5;stroke-miterlimit:4.9999;" d="
		M116.3,20.3l-6.7,3.9"/>
	
		<path id="Layer0_5_MEMBER_0_MEMBER_158_1_STROKES" style="fill:none;stroke:#373535;stroke-width:0.5;stroke-miterlimit:4.9999;" d="
		M101.2,39.5V73"/>
	
		<path id="Layer0_5_MEMBER_0_MEMBER_159_1_STROKES" style="fill:none;stroke:#373535;stroke-width:0.5;stroke-miterlimit:4.9999;" d="
		M101.2,36.5v-0.2c0.1-2,0.7-4,1.9-6.1c1.2-2.1,2.6-3.6,4.4-4.7l0.1-0.1"/>
	
		<path id="Layer0_5_MEMBER_0_MEMBER_160_1_STROKES" style="fill:none;stroke:#373535;stroke-width:0.5;stroke-miterlimit:4.9999;" d="
		M103.7,79.8l-0.1-0.1c-1.5-1-2.3-2.7-2.4-5.2v-0.2"/>
	
		<path id="Layer0_5_MEMBER_0_MEMBER_161_1_STROKES" style="fill:none;stroke:#373535;stroke-width:0.5;stroke-miterlimit:4.9999;" d="
		M115.3,18.8l-6.9,4"/>
	
		<path id="Layer0_5_MEMBER_0_MEMBER_162_1_STROKES" style="fill:none;stroke:#373535;stroke-width:0.5;stroke-miterlimit:4.9999;" d="
		M99.3,35.4v36.5"/>
	
		<path id="Layer0_5_MEMBER_0_MEMBER_163_1_STROKES" style="fill:none;stroke:#373535;stroke-width:0.5;stroke-miterlimit:4.9999;" d="
		M99.8,32.3l0.1-0.2c0.8-2.6,2.2-4.7,4.1-6.5"/>
	
		<path id="Layer0_5_MEMBER_0_MEMBER_164_1_STROKES" style="fill:none;stroke:#373535;stroke-width:0.5;stroke-miterlimit:4.9999;" d="
		M101.6,79.5l-0.1-0.1c-1.4-1-2.2-2.7-2.2-5.1v-0.2"/>
	
		<path id="Layer0_5_MEMBER_0_MEMBER_165_1_STROKES" style="fill:none;stroke:#373535;stroke-width:0.5;stroke-miterlimit:4.9999;" d="
		M116.7,20.1c0.6-0.5,1.1-1.1,1.3-1.7l0-0.1h-0.1c-0.9,0-1.8,0.1-2.6,0.4"/>
	
		<path id="Layer0_5_MEMBER_0_MEMBER_166_1_STROKES" style="fill:none;stroke:#373535;stroke-width:0.5;stroke-miterlimit:4.9999;" d="
		M101.6,79.5l0.1,0.1c0.2,0.3,0.6,0.5,1,0.6h0.1c0.4,0,0.8,0,1.3-0.2"/>
	
		<path id="Layer0_5_MEMBER_0_MEMBER_167_1_STROKES" style="fill:none;stroke:#373535;stroke-width:0.25;stroke-miterlimit:4.9999;" d="
		M163.4,90.6l-16.1,9.3c-1.9,1.1-3.5,1.3-4.7,0.6c-1.2-0.6-1.9-2.1-1.9-4.2v-38c0-1.8,0.6-3.6,1.7-5.6c1.1-1.9,2.4-3.4,4-4.3
		l0.1-0.1l17-9.8"/>
	
		<path id="Layer0_5_MEMBER_0_MEMBER_168_1_STROKES" style="fill:none;stroke:#373535;stroke-width:0.25;stroke-miterlimit:4.9999;" d="
		M157.9,43.3l3.6-2.1"/>
	
		<path id="Layer0_5_MEMBER_0_MEMBER_169_1_STROKES" style="fill:none;stroke:#373535;stroke-width:0.25;stroke-miterlimit:4.9999;" d="
		M161.5,90.2l-3.6,2.1"/>
	
		<path id="Layer0_5_MEMBER_0_MEMBER_170_1_STROKES" style="fill:none;stroke:#373535;stroke-width:0.25;stroke-miterlimit:4.9999;" d="
		M162.1,41.5v47.7"/>
	
		<path id="Layer0_5_MEMBER_0_MEMBER_171_1_STROKES" style="fill:none;stroke:#373535;stroke-width:0.25;stroke-miterlimit:4.9999;" d="
		M157.9,92.3v1.4"/>
	
		<path id="Layer0_5_MEMBER_0_MEMBER_172_1_STROKES" style="fill:none;stroke:#373535;stroke-width:0.25;stroke-miterlimit:4.9999;" d="
		M157.9,41.8v1.5"/>
	
		<path id="Layer0_5_MEMBER_0_MEMBER_173_1_STROKES" style="fill:none;stroke:#373535;stroke-width:0.25;stroke-miterlimit:4.9999;" d="
		M162.1,41.5v-0.1h0v-0.1h0v0l0,0v0l-0.1-0.1h0v0h-0.1v0h-0.3v0h-0.1"/>
	
		<path id="Layer0_5_MEMBER_0_MEMBER_174_1_STROKES" style="fill:none;stroke:#373535;stroke-width:0.25;stroke-miterlimit:4.9999;" d="
		M161.7,90.1L161.7,90.1L161.7,90.1L161.7,90.1L161.7,90.1L161.7,90.1l0.2-0.2v0l0.1-0.1v-0.1l0,0v0h0v0l0,0v-0.1l0,0v0l0,0"/>
	
		<path id="Layer0_5_MEMBER_0_MEMBER_175_1_STROKES" style="fill:none;stroke:#373535;stroke-width:0.5;stroke-miterlimit:4.9999;" d="
		M162.2,91.3c0.3-0.2,0.6-0.5,0.8-0.9c0.2-0.4,0.3-0.8,0.3-1.1"/>
	
		<path id="Layer0_5_MEMBER_0_MEMBER_176_1_STROKES" style="fill:none;stroke:#373535;stroke-width:0.5;stroke-miterlimit:4.9999;" d="
		M163.4,40.5c0-0.5-0.2-0.9-0.5-1c-0.3-0.2-0.7-0.1-1.1,0.1"/>
	
		<path id="Layer0_5_MEMBER_0_MEMBER_177_1_STROKES" style="fill:none;stroke:#373535;stroke-width:0.25;stroke-miterlimit:4.9999;" d="
		M157.9,43.3l-1.2-0.7"/>
	
		<path id="Layer0_5_MEMBER_0_MEMBER_178_1_STROKES" style="fill:none;stroke:#373535;stroke-width:0.25;stroke-miterlimit:4.9999;" d="
		M157.9,92.3l-16.6-9.6"/>
	
		<path id="Layer0_5_MEMBER_0_MEMBER_179_1_STROKES" style="fill:none;stroke:#373535;stroke-width:0.25;stroke-miterlimit:4.9999;" d="
		M157.9,93.7l-16.6-9.6"/>
	
		<path id="Layer0_5_MEMBER_0_MEMBER_180_1_STROKES" style="fill:none;stroke:#373535;stroke-width:0.5;stroke-miterlimit:4.9999;" d="
		M92,77.6l0.1,2.9l0.4,3.5l1.5,6l3.1,7.4l1.1,1.8l1.3,1.4l1.6,0.8l1.7-0.1l1.6-1l1.7-1.3l1.9-1.1l2.3-0.3l2.9,1l10.3,7.1l3.4,1.7
		l2.8,0.7l2.4,0.3l4.5,0l14.6,1.3l2.3,0.5l1.8,0.8l2.4,1.8l1.1,0.6l1.4,0.2l1.7-0.3l1.7-0.7l1.6-1.1l1.5-1.7l1.5-2.2l0.4-1.2"/>
	
		<path id="Layer0_5_MEMBER_0_MEMBER_181_1_STROKES" style="fill:none;stroke:#373535;stroke-width:0.5;stroke-miterlimit:4.9999;" d="
		M174.4,59.9l0-4.3l0-0.5l0.3-1.3l1.7-4.1l0.2-1.3l-0.1-1.4l-0.2-1.4l-0.9-2.7l-1.4-2.8l-2.6-3.3l-0.6-1.4l-0.3-1.5l0.1-4l-1-4.8
		l-0.5-1.5l-0.8-1.4l-1.3-1.2l-1.9-0.6l-7.5,0.2l-2.3-0.4l-1.8-0.9l-2.5-2.1c-1.3-1.5-3.6-3.3-6.8-5.4l-1.7-0.9
		c-0.7-0.2-1.7-0.4-2.8-0.5c-1-0.1-1.9-0.2-2.8-0.2l-1.8-0.1l-3.5-0.6L130.1,9c-1.3-1.1-2.3-1.8-2.8-2.2c-1-0.7-2.2-1-3.6-1
		l-3.4,0.3l-6.4-0.2l-2.1,0.2l-8.6,1.6l-2.4,0.8l-1.4,1l-0.3,1l0.2,0.9l0.8,2.1l0.2,1.4"/>
	
		<path id="Layer0_5_MEMBER_0_MEMBER_182_1_STROKES" style="fill:none;stroke:#373535;stroke-width:0.5;stroke-miterlimit:4.9999;" d="
		M165.4,111.4l1.4-1l1.5-1.7"/>
	
		<path id="Layer0_5_MEMBER_0_MEMBER_183_1_STROKES" style="fill:none;stroke:#373535;stroke-width:0.5;stroke-miterlimit:4.9999;" d="
		M176.2,59.9l0-0.3l-0.1-4.9l0.1-1.1l0.5-1.6l1-2l0.4-1.2l0.2-1.3l-0.3-2.7l-1.5-4.2l-0.8-1.3l-2.6-3.3l-0.6-1.4l-0.3-1.4l0.1-4.1
		l-1-4.8l-0.5-1.5l-0.8-1.4l-1.3-1.2l-1.9-0.6l-7.5,0.2l-2.3-0.4l-1.8-0.9l-1.4-1l-1.1-1.1c-1.3-1.5-3.6-3.3-6.8-5.4l-0.9-0.5
		l-0.8-0.3c-1-0.3-2.2-0.5-3.7-0.6c-1.7-0.1-2.9-0.1-3.7-0.2L135,9l-1.7-0.4L132,8l-1.1-0.8c-1.1-1-2.1-1.7-2.8-2
		c-0.9-0.4-2.1-0.4-3.5-0.3l-4,0.1l-4.9-0.2l-2.1,0.2l-8.6,1.6l-2.4,0.8l-0.3,0.2"/>
	
		<path id="Layer0_5_MEMBER_0_MEMBER_184_1_STROKES" style="fill:none;stroke:#373535;stroke-width:0.25;stroke-miterlimit:4.9999;" d="
		M163.4,112.6l1.8-1"/>
	
		<path id="Layer0_5_MEMBER_0_MEMBER_185_1_STROKES" style="fill:none;stroke:#373535;stroke-width:0.5;stroke-miterlimit:4.9999;" d="
		M100.8,8.5l1.8-1"/>
	
		<path id="Layer0_5_MEMBER_0_MEMBER_186_1_STROKES" style="fill:none;stroke:#373535;stroke-width:0.5;stroke-miterlimit:4.9999;" d="
		M168.6,73.5c0.2,0.9,0.1,1.3-0.4,1.3c-0.5,0-0.9-0.3-1.3-1l-0.1-0.2l-0.1-0.3c-0.2-0.8,0-1.2,0.6-1.2c0.5,0.1,0.9,0.4,1.2,1.1
		L168.6,73.5z"/>
	
		<path id="Layer0_5_MEMBER_0_MEMBER_187_1_STROKES" style="fill:none;stroke:#373535;stroke-width:0.5;stroke-miterlimit:4.9999;" d="
		M166.4,36.9c-0.2-0.8,0-1.2,0.6-1.2c0.5,0.1,0.9,0.4,1.3,1.1l0.1,0.1l0.1,0.2c0.2,0.8,0.1,1.3-0.4,1.3c-0.5,0-0.9-0.3-1.3-1
		L166.4,36.9z"/>
	
		<path id="Layer0_5_MEMBER_0_MEMBER_188_1_STROKES" style="fill:none;stroke:#373535;stroke-width:0.5;stroke-miterlimit:4.9999;" d="
		M255.3,96.9v1.1"/>
	
		<path id="Layer0_5_MEMBER_0_MEMBER_189_1_STROKES" style="fill:none;stroke:#373535;stroke-width:0.5;stroke-miterlimit:4.9999;" d="
		M256.9,98.8l0.9-0.6"/>
	
		<path id="Layer0_5_MEMBER_0_MEMBER_190_1_STROKES" style="fill:none;stroke:#373535;stroke-width:0.5;stroke-miterlimit:4.9999;" d="
		M257.8,149.3l-0.7,0.4"/>
	
		<path id="Layer0_5_MEMBER_0_MEMBER_191_1_STROKES" style="fill:none;stroke:#373535;stroke-width:0.5;stroke-miterlimit:4.9999;" d="
		M255.6,152.3v0.9l-7.9,4.6v-1.1"/>
	
		<path id="Layer0_5_MEMBER_0_MEMBER_192_1_STROKES" style="fill:none;stroke:#373535;stroke-width:0.5;stroke-miterlimit:4.9999;" d="
		M246.3,155.9l-1.5,0.9"/>
	
		<path id="Layer0_5_MEMBER_0_MEMBER_193_1_STROKES" style="fill:none;stroke:#373535;stroke-width:0.5;stroke-miterlimit:4.9999;" d="
		M238.6,153.2v-13.3"/>
	
		<path id="Layer0_5_MEMBER_0_MEMBER_194_1_STROKES" style="fill:none;stroke:#373535;stroke-width:0.5;stroke-miterlimit:4.9999;" d="
		M239.8,131v-0.4"/>
	
		<path id="Layer0_5_MEMBER_0_MEMBER_195_1_STROKES" style="fill:none;stroke:#373535;stroke-width:0.5;stroke-miterlimit:4.9999;" d="
		M245,105.6l1.1-0.6"/>
	
		<path id="Layer0_5_MEMBER_0_MEMBER_196_1_STROKES" style="fill:none;stroke:#373535;stroke-width:0.5;stroke-miterlimit:4.9999;" d="
		M247.6,102.2v-0.9l7.7-4.4"/>
	
		<path id="Layer0_5_MEMBER_0_MEMBER_197_1_STROKES" style="fill:none;stroke:#373535;stroke-width:0.5;stroke-miterlimit:4.9999;" d="
		M239.3,129.8l-0.4-0.1"/>
	
		<path id="Layer0_5_MEMBER_0_MEMBER_198_1_STROKES" style="fill:none;stroke:#373535;stroke-width:0.5;stroke-miterlimit:4.9999;" d="
		M239.8,130.5v-0.1h0v-0.1l0,0v0l0,0v0l0,0v0l0,0v0h0v0l-0.1-0.1l0,0h0v0"/>
	
		<path id="Layer0_5_MEMBER_0_MEMBER_199_1_STROKES" style="fill:none;stroke:#373535;stroke-width:0.5;stroke-miterlimit:4.9999;" d="
		M238.6,116.8v12.8h0v0.1l0,0h0v0l0,0v0h0v0h0v0"/>
	
		<path id="Layer0_5_MEMBER_0_MEMBER_200_1_STROKES" style="fill:none;stroke:#373535;stroke-width:0.5;stroke-miterlimit:4.9999;" d="
		M260,145.5v-18"/>
	
		<path id="Layer0_5_MEMBER_0_MEMBER_201_1_STROKES" style="fill:none;stroke:#373535;stroke-width:0.5;stroke-miterlimit:4.9999;" d="
		M259.3,118.3l0.4-0.5"/>
	
		<path id="Layer0_5_MEMBER_0_MEMBER_202_1_STROKES" style="fill:none;stroke:#373535;stroke-width:0.5;stroke-miterlimit:4.9999;" d="
		M258.8,119.5l0-0.3v-0.1l0,0v-0.1l0,0l0-0.1l0,0v-0.1l0,0l0.1-0.2l0,0v0l0,0v0l0,0v0l0,0l0.1-0.1"/>
	
		<path id="Layer0_5_MEMBER_0_MEMBER_203_1_STROKES" style="fill:none;stroke:#373535;stroke-width:0.5;stroke-miterlimit:4.9999;" d="
		M260,99.5v17.6l0,0v0.1h0v0.1l0,0v0.1h0v0.1l0,0v0l0,0v0h0v0l0,0v0h0"/>
	
		<path id="Layer0_5_MEMBER_0_MEMBER_204_1_STROKES" style="fill:none;stroke:#373535;stroke-width:0.5;stroke-miterlimit:4.9999;" d="
		M260,145.6c0,0.7-0.2,1.4-0.6,2.1c-0.4,0.7-0.9,1.3-1.5,1.6"/>
	
		<path id="Layer0_5_MEMBER_0_MEMBER_205_1_STROKES" style="fill:none;stroke:#373535;stroke-width:0.5;stroke-miterlimit:4.9999;" d="
		M257.9,98.2c0.6-0.3,1.1-0.4,1.5-0.1c0.4,0.2,0.6,0.7,0.6,1.3"/>
	
		<path id="Layer0_5_MEMBER_0_MEMBER_206_1_STROKES" style="fill:none;stroke:#373535;stroke-width:0.5;stroke-miterlimit:4.9999;" d="
		M238.6,116.8v-0.2c0-2,0.7-4.1,1.9-6.2c1.2-2.1,2.7-3.7,4.4-4.7l0.2-0.1"/>
	
		<path id="Layer0_5_MEMBER_0_MEMBER_207_1_STROKES" style="fill:none;stroke:#373535;stroke-width:0.5;stroke-miterlimit:4.9999;" d="
		M244.7,156.8l-0.2,0.1c-1.7,0.9-3.1,1-4.2,0.3c-1.2-0.7-1.7-2-1.8-3.8v-0.2"/>
	
		<path id="Layer0_5_MEMBER_0_MEMBER_208_1_STROKES" style="fill:none;stroke:#373535;stroke-width:0.5;stroke-miterlimit:4.9999;" d="
		M246.3,155.9c0.4-0.2,0.7-0.2,1-0.1c0.2,0.2,0.4,0.4,0.4,0.9"/>
	
		<path id="Layer0_5_MEMBER_0_MEMBER_209_1_STROKES" style="fill:none;stroke:#373535;stroke-width:0.5;stroke-miterlimit:4.9999;" d="
		M255.6,152.2c0-0.5,0.2-1,0.5-1.4c0.3-0.5,0.6-0.9,1-1.1"/>
	
		<path id="Layer0_5_MEMBER_0_MEMBER_210_1_STROKES" style="fill:none;stroke:#373535;stroke-width:0.5;stroke-miterlimit:4.9999;" d="
		M247.6,102.3c0,0.5-0.2,1-0.5,1.5c-0.3,0.5-0.7,0.9-1.1,1.2"/>
	
		<path id="Layer0_5_MEMBER_0_MEMBER_211_1_STROKES" style="fill:none;stroke:#373535;stroke-width:0.5;stroke-miterlimit:4.9999;" d="
		M256.8,98.8c-0.4,0.2-0.7,0.2-1,0.1c-0.3-0.2-0.4-0.5-0.5-1"/>
	
		<path id="Layer0_5_MEMBER_0_MEMBER_212_1_STROKES" style="fill:none;stroke:#373535;stroke-width:0.5;stroke-miterlimit:4.9999;" d="
		M254.9,108v6.7"/>
	
		<path id="Layer0_5_MEMBER_0_MEMBER_213_1_STROKES" style="fill:none;stroke:#373535;stroke-width:0.5;stroke-miterlimit:4.9999;" d="
		M254,116.3l-8.7,5.1"/>
	
		<path id="Layer0_5_MEMBER_0_MEMBER_214_1_STROKES" style="fill:none;stroke:#373535;stroke-width:0.5;stroke-miterlimit:4.9999;" d="
		M244.4,120.8v-6.5"/>
	
		<path id="Layer0_5_MEMBER_0_MEMBER_215_1_STROKES" style="fill:none;stroke:#373535;stroke-width:0.5;stroke-miterlimit:4.9999;" d="
		M245.4,112.6l8.8-5.1h0l0,0l0.2-0.1h0.2v0h0.1v0h0.1v0h0l0,0h0l0,0v0l0,0v0h0v0h0v0.1l0,0"/>
	
		<path id="Layer0_5_MEMBER_0_MEMBER_216_1_STROKES" style="fill:none;stroke:#373535;stroke-width:0.5;stroke-miterlimit:4.9999;" d="
		M254.9,114.7c0,0.3-0.1,0.6-0.3,0.9c-0.2,0.3-0.4,0.5-0.6,0.7"/>
	
		<path id="Layer0_5_MEMBER_0_MEMBER_217_1_STROKES" style="fill:none;stroke:#373535;stroke-width:0.5;stroke-miterlimit:4.9999;" d="
		M245,121.5h-0.2v0h0l0,0h0v0h-0.1l-0.1-0.1v-0.1"/>
	
		<path id="Layer0_5_MEMBER_0_MEMBER_218_1_STROKES" style="fill:none;stroke:#373535;stroke-width:0.5;stroke-miterlimit:4.9999;" d="
		M244.4,114.3c0.1-0.7,0.4-1.3,1-1.7"/>
	<g>
		<defs>
			<polygon id="SVGID_1_" points="245.6,113.5 255.1,108 255.1,113 245.6,118.5 			"/>
		</defs>
		<clipPath id="SVGID_2_">
			<use xlink:href="#SVGID_1_"  style="overflow:visible;"/>
		</clipPath>
		<g style="clip-path:url(#SVGID_2_);enable-background:new    ;">
			
				<text transform="matrix(0.8661 -0.4999 0 1 246.5698 116.235)" style="fill:#373535; font-family:'Arial-BoldMT'; font-size:2.8758px;">CREW</text>
		</g>
	</g>
	<g>
		<defs>
			<polygon id="SVGID_3_" points="246.7,115.5 253.7,111.5 253.7,116.5 246.7,120.5 			"/>
		</defs>
		<clipPath id="SVGID_4_">
			<use xlink:href="#SVGID_3_"  style="overflow:visible;"/>
		</clipPath>
		<g style="clip-path:url(#SVGID_4_);enable-background:new    ;">
			
				<text transform="matrix(0.8661 -0.4999 0 1 247.6313 118.2659)" style="fill:#373535; font-family:'Arial-BoldMT'; font-size:2.8758px;">PBE</text>
		</g>
	</g>
	
		<path id="Layer0_5_MEMBER_0_MEMBER_221_1_STROKES" style="fill:none;stroke:#373535;stroke-width:0.5;stroke-miterlimit:4.9999;" d="
		M254.9,142.1v-6.7"/>
	
		<path id="Layer0_5_MEMBER_0_MEMBER_222_1_STROKES" style="fill:none;stroke:#373535;stroke-width:0.5;stroke-miterlimit:4.9999;" d="
		M254,134.9l-8.7,5.1"/>
	
		<path id="Layer0_5_MEMBER_0_MEMBER_223_1_STROKES" style="fill:none;stroke:#373535;stroke-width:0.5;stroke-miterlimit:4.9999;" d="
		M244.4,141.6v6.5"/>
	
		<path id="Layer0_5_MEMBER_0_MEMBER_224_1_STROKES" style="fill:none;stroke:#373535;stroke-width:0.5;stroke-miterlimit:4.9999;" d="
		M245.4,148.7l8.8-5.1"/>
	
		<path id="Layer0_5_MEMBER_0_MEMBER_225_1_STROKES" style="fill:none;stroke:#373535;stroke-width:0.85;stroke-miterlimit:4.9999;" d="
		M254.2,143.6L254.2,143.6l0.1-0.1v0h0l0,0h0l0,0v0l0,0v0h0l0.1-0.1l0.3-0.4l0,0v-0.1c0.1-0.1,0.1-0.3,0.1-0.6"/>
	
		<path id="Layer0_5_MEMBER_0_MEMBER_226_1_STROKES" style="fill:none;stroke:#373535;stroke-width:0.85;stroke-miterlimit:4.9999;" d="
		M254.9,135.4c0-0.3-0.1-0.4-0.2-0.5h0v0h-0.1v0h-0.4l-0.1,0.1l0,0h0"/>
	
		<path id="Layer0_5_MEMBER_0_MEMBER_227_1_STROKES" style="fill:none;stroke:#373535;stroke-width:0.6;stroke-miterlimit:4.9999;" d="
		M245.3,140c-0.3,0.1-0.5,0.4-0.7,0.7c-0.2,0.3-0.2,0.6-0.3,0.9"/>
	
		<path id="Layer0_5_MEMBER_0_MEMBER_228_1_STROKES" style="fill:none;stroke:#373535;stroke-width:0.6;stroke-miterlimit:4.9999;" d="
		M244.4,148.2l0.1,0.3h0v0c0,0.1,0.1,0.2,0.2,0.2l0.1,0.1h0.1l0,0h0.2"/>
	<g>
		<defs>
			<polygon id="SVGID_5_" points="254.7,139.9 245.2,145.4 245.2,140.4 254.7,134.9 			"/>
		</defs>
		<clipPath id="SVGID_6_">
			<use xlink:href="#SVGID_5_"  style="overflow:visible;"/>
		</clipPath>
		<g style="clip-path:url(#SVGID_6_);enable-background:new    ;">
			
				<text transform="matrix(-0.8661 0.4998 0 -1 253.7544 137.1471)" style="fill:#373535; font-family:'Arial-BoldMT'; font-size:2.8758px;">CREW</text>
		</g>
	</g>
	<g>
		<defs>
			<polygon id="SVGID_7_" points="253.4,143.5 246.4,147.6 246.4,142.6 253.4,138.5 			"/>
		</defs>
		<clipPath id="SVGID_8_">
			<use xlink:href="#SVGID_7_"  style="overflow:visible;"/>
		</clipPath>
		<g style="clip-path:url(#SVGID_8_);enable-background:new    ;">
			
				<text transform="matrix(-0.8661 0.4998 0 -1 252.4738 140.7708)" style="fill:#373535; font-family:'Arial-BoldMT'; font-size:2.8758px;">PBE</text>
		</g>
	</g>
	
		<path id="Layer0_5_MEMBER_0_MEMBER_231_1_STROKES" style="fill:none;stroke:#373535;stroke-width:0.5;stroke-miterlimit:4.9999;" d="
		M255.8,98.2l0.9-0.5"/>
	
		<path id="Layer0_5_MEMBER_0_MEMBER_232_1_STROKES" style="fill:none;stroke:#373535;stroke-width:0.5;stroke-miterlimit:4.9999;" d="
		M246.7,157.2v-1.1"/>
	
		<path id="Layer0_5_MEMBER_0_MEMBER_233_1_STROKES" style="fill:none;stroke:#373535;stroke-width:0.5;stroke-miterlimit:4.9999;" d="
		M237.5,152.6v-13.3"/>
	
		<path id="Layer0_5_MEMBER_0_MEMBER_234_1_STROKES" style="fill:none;stroke:#373535;stroke-width:0.5;stroke-miterlimit:4.9999;" d="
		M238.7,130.6v-0.7"/>
	
		<path id="Layer0_5_MEMBER_0_MEMBER_235_1_STROKES" style="fill:none;stroke:#373535;stroke-width:0.5;stroke-miterlimit:4.9999;" d="
		M243.9,105l1.1-0.6"/>
	
		<path id="Layer0_5_MEMBER_0_MEMBER_236_1_STROKES" style="fill:none;stroke:#373535;stroke-width:0.5;stroke-miterlimit:4.9999;" d="
		M246.6,101.6v-0.9l7.7-4.4"/>
	
		<path id="Layer0_5_MEMBER_0_MEMBER_237_1_STROKES" style="fill:none;stroke:#373535;stroke-width:0.5;stroke-miterlimit:4.9999;" d="
		M239.1,130.1v-0.2l0,0v-0.1"/>
	
		<path id="Layer0_5_MEMBER_0_MEMBER_238_1_STROKES" style="fill:none;stroke:#373535;stroke-width:0.5;stroke-miterlimit:4.9999;" d="
		M237.5,116.1v12.6"/>
	
		<path id="Layer0_5_MEMBER_0_MEMBER_239_1_STROKES" style="fill:none;stroke:#373535;stroke-width:0.5;stroke-miterlimit:4.9999;" d="
		M237.5,128.9L237.5,128.9L237.5,128.9l0.1,0.1v0h0v0.1h0v0h0v0"/>
	
		<path id="Layer0_5_MEMBER_0_MEMBER_240_1_STROKES" style="fill:none;stroke:#373535;stroke-width:0.5;stroke-miterlimit:4.9999;" d="
		M256.8,97.6c0.5-0.3,1-0.4,1.4-0.2"/>
	
		<path id="Layer0_5_MEMBER_0_MEMBER_241_1_STROKES" style="fill:none;stroke:#373535;stroke-width:0.5;stroke-miterlimit:4.9999;" d="
		M237.5,116.1v-0.2c0.1-2,0.7-4.1,1.9-6.2c1.2-2.1,2.7-3.7,4.4-4.7l0.2-0.1"/>
	
		<path id="Layer0_5_MEMBER_0_MEMBER_242_1_STROKES" style="fill:none;stroke:#373535;stroke-width:0.5;stroke-miterlimit:4.9999;" d="
		M239.2,156.5c-1.1-0.7-1.7-2-1.7-3.8v-0.2"/>
	
		<path id="Layer0_5_MEMBER_0_MEMBER_243_1_STROKES" style="fill:none;stroke:#373535;stroke-width:0.5;stroke-miterlimit:4.9999;" d="
		M246.6,101.6c0,0.5-0.2,1-0.5,1.5c-0.3,0.5-0.7,0.9-1.1,1.2"/>
	
		<path id="Layer0_5_MEMBER_0_MEMBER_244_1_STROKES" style="fill:none;stroke:#373535;stroke-width:0.5;stroke-miterlimit:4.9999;" d="
		M240.4,157.2l-0.7-0.4"/>
	
		<path id="Layer0_5_MEMBER_0_MEMBER_245_1_STROKES" style="fill:none;stroke:#373535;stroke-width:0.5;stroke-miterlimit:4.9999;" d="
		M238.8,129.8l-0.7-0.4"/>
	
		<path id="Layer0_5_MEMBER_0_MEMBER_246_1_STROKES" style="fill:none;stroke:#373535;stroke-width:0.5;stroke-miterlimit:4.9999;" d="
		M259.3,98.1l-1.2-0.7"/>
	
		<path id="Layer0_5_MEMBER_0_MEMBER_247_1_STROKES" style="fill:none;stroke:#373535;stroke-width:0.5;stroke-miterlimit:4.9999;" d="
		M255.3,96.9l-1.1-0.6"/>
	
		<path id="Layer0_5_MEMBER_0_MEMBER_248_1_STROKES" style="fill:none;stroke:#373535;stroke-width:0.5;stroke-miterlimit:4.9999;" d="
		M247.6,101.3l-1.1-0.6"/>
	
		<path id="Layer0_5_MEMBER_0_MEMBER_249_1_STROKES" style="fill:none;stroke:#373535;stroke-width:0.5;stroke-miterlimit:4.9999;" d="
		M247.7,157.7l-1-0.6"/>
	
		<path id="Layer0_5_MEMBER_0_MEMBER_250_1_STROKES" style="fill:none;stroke:#373535;stroke-width:0.5;stroke-miterlimit:4.9999;" d="
		M260,118l0.1,0.3l0,0.4c-0.3,1.5-1.8,3.3-4.6,5.4c-2,1.5-4,2.9-6.1,4.1l-2.2,1.1c-7.2,3.3-10.4,3.6-9.6,0.9l0.2-0.5"/>
	
		<path id="Layer0_5_MEMBER_0_MEMBER_251_1_STROKES" style="fill:none;stroke:#373535;stroke-width:0.5;stroke-miterlimit:4.9999;" d="
		M260.2,125.4l0,0.4c-0.3,1.3-1.7,3-4.1,5.1c-1.7,1.4-3.5,2.6-5.5,3.8l-2.2,1.2c-1.5,0.9-3.3,1.7-5.4,2.4c-3,1-4.7,1-5.3,0.2
		l-0.1-0.3v-0.3"/>
	
		<path id="Layer0_5_MEMBER_0_MEMBER_252_1_STROKES" style="fill:none;stroke:#373535;stroke-width:0.5;stroke-miterlimit:4.9999;" d="
		M237.6,137.7l-0.1-7.1"/>
	
		<path id="Layer0_5_MEMBER_0_MEMBER_253_1_STROKES" style="fill:none;stroke:#373535;stroke-width:0.5;stroke-miterlimit:4.9999;" d="
		M260.1,118.7l0.1,7.1"/>
	
		<path id="Layer0_5_MEMBER_0_MEMBER_254_1_STROKES" style="fill:none;stroke:#373535;stroke-width:0.5;stroke-miterlimit:4.9999;" d="
		M98.5,150.7v-9.6l-2.8-1.9c-1.3-1-2.6-2.1-3.8-3.3l-0.6-0.8l-0.6-1c-0.3-0.7-0.6-1.9-0.9-3.7c-0.3-1.7-0.6-2.9-1.1-3.7l-0.9-1.4
		l-2.1-2.2l-1.3-1c-0.9-0.9-2.1-1.8-3.4-2.7l-3.6-2.4l-1.3-1.2l-1.1-1.3l-2.3-3.6l-1.1-1.2l-1.5-1.3l-4.9-3.4"/>
	
		<path id="Layer0_5_MEMBER_0_MEMBER_255_1_STROKES" style="fill:none;stroke:#373535;stroke-width:0.5;stroke-miterlimit:4.9999;" d="
		M98.5,150.7l-2.8-1.9c-1.3-0.9-2.6-2-3.8-3.3l-0.6-0.7l-0.6-1c-0.3-0.7-0.6-1.9-0.9-3.7c-0.3-1.7-0.6-2.9-1.1-3.7l-0.9-1.4
		l-2.1-2.2l-1.3-1c-0.9-0.9-2.1-1.8-3.4-2.7c-2.2-1.5-3.4-2.3-3.6-2.4l-1.3-1.2l-1.1-1.3l-2.3-3.6l-1.1-1.3l-1.5-1.3l-4.9-3.4v-9.6"
		/>
	
		<path id="Layer0_5_MEMBER_0_MEMBER_256_1_STROKES" style="fill:none;stroke:#373535;stroke-width:0.25;stroke-miterlimit:4.9999;" d="
		M106,136.4l-2.8,1.6"/>
	
		<path id="Layer0_5_MEMBER_0_MEMBER_257_1_STROKES" style="fill:none;stroke:#373535;stroke-width:0.25;stroke-miterlimit:4.9999;" d="
		M102.4,138.4l-0.7,0.4"/>
	
		<path id="Layer0_5_MEMBER_0_MEMBER_258_1_STROKES" style="fill:none;stroke:#373535;stroke-width:0.25;stroke-miterlimit:4.9999;" d="
		M101,139.3l-2.8,1.7"/>
</g>
</svg>
