<?xml version="1.0" encoding="utf-8"?>
<!-- Generator: Adobe Illustrator 24.2.1, SVG Export Plug-In . SVG Version: 6.00 Build 0)  -->
<svg version="1.1" id="Ebene_1" xmlns="http://www.w3.org/2000/svg" xmlns:xlink="http://www.w3.org/1999/xlink" x="0px" y="0px"
	 viewBox="0 0 437.6 151.6" style="enable-background:new 0 0 437.6 151.6;" xml:space="preserve">
<style type="text/css">
	.st0{stroke:#000000;stroke-miterlimit:10;}
	.st1{fill:none;stroke:#FFFFFF;stroke-miterlimit:5;}
	.st2{fill:none;stroke:#FFFFFF;stroke-width:0.5;stroke-miterlimit:5;}
	.st3{fill:#FFFFFF;}
	.st4{font-family:'ArialMT';}
	.st5{font-size:13.9281px;}
	.st6{font-size:11.9384px;}
	.st7{font-size:9.9487px;}
	.st8{fill:none;stroke:#CCCBCB;stroke-width:0.55;stroke-miterlimit:5;}
	.st9{enable-background:new    ;}
	.st10{fill:#CCCBCB;}
	.st11{font-size:12.9932px;}
	.st12{fill:none;stroke:#CCCBCB;stroke-linecap:round;stroke-linejoin:round;stroke-miterlimit:10;}
	.st13{fill:none;stroke:#FFFFFF;stroke-linecap:round;stroke-linejoin:round;stroke-miterlimit:10;}
	.st14{opacity:0.3;fill:#FFFFFF;stroke:#FF0000;stroke-miterlimit:10;enable-background:new    ;}
	.st15{fill:none;stroke:#FF0000;stroke-width:2;stroke-miterlimit:10;}
</style>
<rect x="4.7" y="5.1" class="st0" width="427.5" height="141.3"/>
<g>
	<path id="Layer2_0_MEMBER_0_MEMBER_4_MEMBER_1_MEMBER_1_MEMBER_0_MEMBER_0_1_STROKES" class="st1" d="M352.9,64.2l-10-7.3h-50.5V65
		 M231.9,63.9l10-7h50.5v-6.2"/>
	<path id="Layer2_0_MEMBER_0_MEMBER_4_MEMBER_1_MEMBER_1_MEMBER_0_MEMBER_3_1_STROKES" class="st2" d="M265,27h52.8V8.6H265V27z"/>
	<text transform="matrix(1 0 0 1 273.1111 23.795)" class="st3 st4 st5">PFCS</text>
	<text transform="matrix(1 0 0 1 262.8904 47.6944)" class="st3 st4 st6">SPOILERS</text>
	<text transform="matrix(1 0 0 1 281.5739 76.1251)" class="st3 st4 st7">RUD</text>
	<text transform="matrix(1 0 0 1 229.7673 104.9015)" class="st3 st4 st7">L</text>
	<text transform="matrix(1 0 0 1 219.238 118.4981)" class="st3 st4 st6">ELEV</text>
	<text transform="matrix(1 0 0 1 20.3404 57.8775)" class="st3 st4 st6">FLAP</text>
	<text transform="matrix(1 0 0 1 20.3404 72.1775)" class="st3 st4 st6">DEG</text>
	<text transform="matrix(1 0 0 1 345.3044 104.9015)" class="st3 st4 st7">R</text>
	<text transform="matrix(1 0 0 1 334.7732 118.4981)" class="st3 st4 st6">ELEV</text>
	<text transform="matrix(1 0 0 1 182.5271 85.0216)" class="st3 st4 st6">LO</text>
	<text transform="matrix(1 0 0 1 214.2029 85.0216)" class="st3 st4 st6">LI</text>
	<text transform="matrix(1 0 0 1 360.1521 85.0216)" class="st3 st4 st6">RI</text>
	<text transform="matrix(1 0 0 1 390.6599 85.0216)" class="st3 st4 st6">RO</text>
	<g>
		<path class="st3" d="M273.5,78c-1.9,0-3.6,0.8-4.9,2l-25.4,4.9l25.3,5.1c1.3,1.3,3,2.1,5,2.1c3.9,0,7-3.1,7-7
			C280.5,81.1,277.3,78,273.5,78z"/>
		<circle cx="273.5" cy="85" r="5.6"/>
	</g>
	<g>
		<path class="st3" d="M311.2,78c1.9,0,3.6,0.8,4.9,2l25.4,4.9L316.2,90c-1.3,1.3-3,2.1-5,2.1c-3.9,0-7-3.1-7-7
			C304.3,81.1,307.4,78,311.2,78z"/>
		<circle cx="311.2" cy="85" r="5.6"/>
	</g>
	<g>
		<path class="st3" d="M299.1,86.5c0,1.9-0.8,3.6-2,4.9l-4.9,25.4l-5.1-25.3c-1.3-1.3-2.1-3-2.1-5c0-3.9,3.1-7,7-7
			C296,79.5,299.1,82.6,299.1,86.5z"/>
		<circle cx="292.1" cy="86.5" r="5.6"/>
	</g>
	<g>
		<path class="st3" d="M391.5,57.9c1.7,0,3.2,0.7,4.4,1.8l19.7,4.4l-19.7,4.5c-1.1,1.1-2.7,1.8-4.4,1.8c-3.5,0-6.3-2.8-6.3-6.3
			C385.2,60.7,388,57.9,391.5,57.9z"/>
		<circle cx="391.5" cy="64.1" r="5"/>
	</g>
	<g>
		<path class="st3" d="M356.5,57.9c1.7,0,3.2,0.7,4.4,1.8l19.7,4.4l-19.7,4.5c-1.1,1.1-2.7,1.8-4.4,1.8c-3.5,0-6.3-2.8-6.3-6.3
			C350.2,60.7,353,57.9,356.5,57.9z"/>
		<circle cx="356.5" cy="64.1" r="5"/>
	</g>
	<g>
		<path class="st3" d="M194.3,57.9c-1.7,0-3.2,0.7-4.4,1.8L170.2,64l19.7,4.5c1.1,1.1,2.7,1.8,4.4,1.8c3.5,0,6.3-2.8,6.3-6.3
			C200.6,60.7,197.8,57.9,194.3,57.9z"/>
		<circle cx="194.3" cy="64.1" r="5"/>
	</g>
	<g>
		<path class="st3" d="M229.3,57.9c-1.7,0-3.2,0.7-4.4,1.8L205.2,64l19.7,4.5c1.1,1.1,2.7,1.8,4.4,1.8c3.5,0,6.3-2.8,6.3-6.3
			C235.6,60.7,232.8,57.9,229.3,57.9z"/>
		<circle cx="229.3" cy="64.1" r="5"/>
	</g>
	<line class="st8" x1="8.3" y1="143" x2="427" y2="143"/>
	<g>
		<g>
			<g class="st9">
				<text transform="matrix(1.1096 0 0 1 46.6196 120.1305)" class="st10 st4 st11">35</text>
			</g>
		</g>
	</g>
	<g>
		<g>
			<g class="st9">
				<text transform="matrix(1.1096 0 0 1 101.6104 88.4557)" class="st10 st4 st11">15</text>
			</g>
		</g>
	</g>
	<g>
		<g>
			<g class="st9">
				<text transform="matrix(1.1096 0 0 1 96.7886 70.048)" class="st10 st4 st11">10</text>
			</g>
		</g>
	</g>
	<g>
		<g>
			<g class="st9">
				<text transform="matrix(1.1096 0 0 1 90.4702 57.8771)" class="st10 st4 st11">5</text>
			</g>
		</g>
	</g>
	<g>
		<g>
			<g class="st9">
				<text transform="matrix(1.1096 0 0 1 71.3936 50.4147)" class="st10 st4 st11">0</text>
			</g>
		</g>
	</g>
	<g>
		<path class="st12" d="M74.9,31.2c29.5,0,53.4,23.9,53.4,53.4S104.4,138,74.9,138c-9.6,0-19.3-2.5-27.3-6.9"/>
		<line class="st12" x1="74.9" y1="31.2" x2="75" y2="39.3"/>
		<line class="st12" x1="103" y1="39.3" x2="98.7" y2="46.1"/>
		<line class="st12" x1="122" y1="59.2" x2="114.8" y2="62.9"/>
		<line class="st12" x1="128" y1="83.6" x2="119.9" y2="83.6"/>
		<line class="st12" x1="51.4" y1="124" x2="47.6" y2="131.2"/>
		<line class="st12" x1="79" y1="39.8" x2="70.9" y2="39.8"/>
		<line class="st12" x1="102.1" y1="48.3" x2="95.1" y2="44.3"/>
		<line class="st12" x1="116.4" y1="66.7" x2="112.9" y2="59.4"/>
		<line class="st12" x1="119.9" y1="87.6" x2="119.9" y2="79.5"/>
		<line class="st12" x1="54.9" y1="125.9" x2="47.8" y2="122.1"/>
	</g>
	<g>
		<path class="st3" d="M83.2,86.3c0-2.1-0.9-4.1-2.3-5.5l-5.7-28.5l-5.9,28.4c-1.5,1.4-2.4,3.4-2.4,5.6c0,4.3,3.7,7.8,8.2,7.8
			C79.5,94.1,83.2,90.6,83.2,86.3z"/>
		<ellipse cx="75" cy="86.3" rx="6.5" ry="6.3"/>
	</g>
	<g>
		<path class="st13" d="M397.5,39.7c10.9,2.9,19,12.8,19,24.6"/>
		<line class="st13" x1="399.3" y1="40.3" x2="397.8" y2="43.4"/>
		<line class="st13" x1="416.4" y1="63" x2="412.6" y2="63"/>
	</g>
	<g>
		<path class="st13" d="M363.5,39.7c10.9,2.9,19,12.8,19,24.6"/>
		<line class="st13" x1="365.3" y1="40.3" x2="363.8" y2="43.4"/>
		<line class="st13" x1="382.4" y1="63" x2="378.6" y2="63"/>
	</g>
	<g>
		<path class="st13" d="M187.5,39.7c-10.9,2.9-19,12.8-19,24.6"/>
		<line class="st13" x1="185.6" y1="40.3" x2="187.1" y2="43.4"/>
		<line class="st13" x1="168.5" y1="63" x2="172.4" y2="63"/>
	</g>
	<g>
		<path class="st13" d="M221.5,39.7c-10.9,2.9-19,12.8-19,24.6"/>
		<line class="st13" x1="219.6" y1="40.3" x2="221.1" y2="43.4"/>
		<line class="st13" x1="202.5" y1="63" x2="206.4" y2="63"/>
	</g>
	<g>
		<path class="st13" d="M250.4,104.2c-4.6-5.2-7.4-12.1-7.4-19.6s2.8-14.3,7.3-19.6"/>
		<line class="st13" x1="249.3" y1="66.4" x2="252" y2="68.7"/>
		<line class="st13" x1="249.3" y1="102.2" x2="252" y2="99.9"/>
	</g>
	<g>
		<path class="st13" d="M333.8,104.2c4.6-5.2,7.4-12.1,7.4-19.6s-2.8-14.3-7.3-19.6"/>
		<line class="st13" x1="335" y1="66.4" x2="332.3" y2="68.7"/>
		<line class="st13" x1="335" y1="102.2" x2="332.3" y2="99.9"/>
	</g>
	<g>
		<path class="st13" d="M313,109.7c-5.6,4.9-13,7.9-21.1,7.9s-15.4-3-21.1-7.9"/>
		<line class="st13" x1="272.3" y1="110.9" x2="274.8" y2="108.1"/>
		<line class="st13" x1="310.9" y1="110.9" x2="308.4" y2="108.1"/>
	</g>
</g>
<path class="st14" d="M0,0v151.6h437.6V0H0z M389.8,95.2c-0.4,0-0.8,0-1.3,0c-0.3,0-0.5,0-0.8,0h-20.4c-6.6,0-12-5.4-12-12v-2.3h-35
	c-6.6,0-12-5.4-12-12V55.4h-31v13.5c0,6.6-5.4,12-12,12h-35.6v2.3c0,6.6-5.4,12-12,12h-20.4c-0.2,0-0.4,0-0.6,0c-0.3,0-0.7,0-1,0
	c-18.5,0-33.5-15-33.5-33.5c0-18.5,15-33.5,33.5-33.5c5,0,9.7,1.1,13.9,3c0.2,0,0.4,0,0.7,0h55c0.7,0,1.4,0.1,2.1,0.2h50.8
	c0.7-0.1,1.4-0.2,2.1-0.2h55c0.2,0,0.3,0,0.5,0c4.2-1.9,8.9-3,13.9-3c18.5,0,33.5,15,33.5,33.5C423.3,80.2,408.3,95.2,389.8,95.2z"
	/>
<path class="st15" d="M389.8,28.2c-5,0-9.7,1.1-13.9,3c-0.2,0-0.3,0-0.5,0h-55c-0.7,0-1.4,0.1-2.1,0.2h-50.8
	c-0.7-0.1-1.4-0.2-2.1-0.2h-55c-0.2,0-0.5,0-0.7,0c-4.2-1.9-9-3-13.9-3c-18.5,0-33.5,15-33.5,33.5c0,18.5,15,33.5,33.5,33.5
	c0.3,0,0.7,0,1,0c0.2,0,0.4,0,0.6,0h20.4c6.6,0,12-5.4,12-12v-2.3h35.6c6.6,0,12-5.4,12-12V55.4h31v13.5c0,6.6,5.4,12,12,12h35v2.3
	c0,6.6,5.4,12,12,12h20.4c0.3,0,0.5,0,0.8,0c0.4,0,0.8,0,1.3,0c18.5,0,33.5-15,33.5-33.5C423.3,43.2,408.3,28.2,389.8,28.2z"/>
</svg>
