<?xml version="1.0" encoding="iso-8859-1"?>
<!-- Generator: Adobe Illustrator 25.0.0, SVG Export Plug-In . SVG Version: 6.00 Build 0)  -->
<svg version="1.1" id="Ebene_1" xmlns="http://www.w3.org/2000/svg" xmlns:xlink="http://www.w3.org/1999/xlink" x="0px" y="0px"
	 width="295.6px" height="151.6px" viewBox="0 0 295.6 151.6" style="enable-background:new 0 0 295.6 151.6;" xml:space="preserve"
	>
<rect x="4.7" y="5.1" style="stroke:#000000;stroke-miterlimit:10;" width="287.5" height="141.3"/>
<g>
	
		<path id="Layer2_0_MEMBER_0_MEMBER_4_MEMBER_1_MEMBER_1_MEMBER_0_MEMBER_0_1_STROKES" style="fill:none;stroke:#FFFFFF;stroke-miterlimit:5;" d="
		M212.9,64.2l-10-7.3h-50.5V65 M91.9,63.9l10-7h50.5v-6.2"/>
	
		<path id="Layer2_0_MEMBER_0_MEMBER_4_MEMBER_1_MEMBER_1_MEMBER_0_MEMBER_3_1_STROKES" style="fill:none;stroke:#FFFFFF;stroke-width:0.5;stroke-miterlimit:5;" d="
		M125,27h52.8V8.6H125V27z"/>
	<text transform="matrix(1 0 0 1 133.1111 23.795)" style="fill:#FFFFFF; font-family:'ArialMT'; font-size:13.9281px;">PFCS</text>
	<text transform="matrix(1 0 0 1 122.8904 47.6944)" style="fill:#FFFFFF; font-family:'ArialMT'; font-size:11.9384px;">SPOILERS</text>
	<text transform="matrix(1 0 0 1 141.5739 76.1251)" style="fill:#FFFFFF; font-family:'ArialMT'; font-size:9.9487px;">RUD</text>
	<text transform="matrix(1 0 0 1 89.7673 104.9015)" style="fill:#FFFFFF; font-family:'ArialMT'; font-size:9.9487px;">L</text>
	<text transform="matrix(1 0 0 1 79.238 118.4981)" style="fill:#FFFFFF; font-family:'ArialMT'; font-size:11.9384px;">ELEV</text>
	<text transform="matrix(1 0 0 1 205.3044 104.9015)" style="fill:#FFFFFF; font-family:'ArialMT'; font-size:9.9487px;">R</text>
	<text transform="matrix(1 0 0 1 194.7732 118.4981)" style="fill:#FFFFFF; font-family:'ArialMT'; font-size:11.9384px;">ELEV</text>
	<text transform="matrix(1 0 0 1 42.5271 85.0216)" style="fill:#FFFFFF; font-family:'ArialMT'; font-size:11.9384px;">LO</text>
	<text transform="matrix(1 0 0 1 74.2029 85.0216)" style="fill:#FFFFFF; font-family:'ArialMT'; font-size:11.9384px;">LI</text>
	<text transform="matrix(1 0 0 1 220.1521 85.0216)" style="fill:#FFFFFF; font-family:'ArialMT'; font-size:11.9384px;">RI</text>
	<text transform="matrix(1 0 0 1 250.6599 85.0216)" style="fill:#FFFFFF; font-family:'ArialMT'; font-size:11.9384px;">RO</text>
	<g>
		<path style="fill:#FFFFFF;" d="M133.5,78c-1.9,0-3.6,0.8-4.9,2l-25.4,4.9l25.3,5.1c1.3,1.3,3,2.1,5,2.1c3.9,0,7-3.1,7-7
			C140.5,81.1,137.3,78,133.5,78z"/>
		<circle cx="133.5" cy="85" r="5.6"/>
	</g>
	<g>
		<path style="fill:#FFFFFF;" d="M171.2,78c1.9,0,3.6,0.8,4.9,2l25.4,4.9L176.2,90c-1.3,1.3-3,2.1-5,2.1c-3.9,0-7-3.1-7-7
			C164.3,81.1,167.4,78,171.2,78z"/>
		<circle cx="171.2" cy="85" r="5.6"/>
	</g>
	<g>
		<path style="fill:#FFFFFF;" d="M159.1,86.5c0,1.9-0.8,3.6-2,4.9l-4.9,25.4l-5.1-25.3c-1.3-1.3-2.1-3-2.1-5c0-3.9,3.1-7,7-7
			C156,79.5,159.1,82.6,159.1,86.5z"/>
		<circle cx="152.1" cy="86.5" r="5.6"/>
	</g>
	<g>
		<path style="fill:#FFFFFF;" d="M251.5,57.9c1.7,0,3.2,0.7,4.4,1.8l19.7,4.4l-19.7,4.5c-1.1,1.1-2.7,1.8-4.4,1.8
			c-3.5,0-6.3-2.8-6.3-6.3C245.2,60.7,248,57.9,251.5,57.9z"/>
		<circle cx="251.5" cy="64.1" r="5"/>
	</g>
	<g>
		<path style="fill:#FFFFFF;" d="M216.5,57.9c1.7,0,3.2,0.7,4.4,1.8l19.7,4.4l-19.7,4.5c-1.1,1.1-2.7,1.8-4.4,1.8
			c-3.5,0-6.3-2.8-6.3-6.3C210.2,60.7,213,57.9,216.5,57.9z"/>
		<circle cx="216.5" cy="64.1" r="5"/>
	</g>
	<g>
		<path style="fill:#FFFFFF;" d="M54.3,57.9c-1.7,0-3.2,0.7-4.4,1.8L30.2,64l19.7,4.5c1.1,1.1,2.7,1.8,4.4,1.8
			c3.5,0,6.3-2.8,6.3-6.3C60.6,60.7,57.8,57.9,54.3,57.9z"/>
		<circle cx="54.3" cy="64.1" r="5"/>
	</g>
	<g>
		<path style="fill:#FFFFFF;" d="M89.3,57.9c-1.7,0-3.2,0.7-4.4,1.8L65.2,64l19.7,4.5c1.1,1.1,2.7,1.8,4.4,1.8
			c3.5,0,6.3-2.8,6.3-6.3C95.6,60.7,92.8,57.9,89.3,57.9z"/>
		<circle cx="89.3" cy="64.1" r="5"/>
	</g>
	<g>
		<path style="fill:none;stroke:#FFFFFF;stroke-linecap:round;stroke-linejoin:round;stroke-miterlimit:10;" d="M257.5,39.7
			c10.9,2.9,19,12.8,19,24.6"/>
		
			<line style="fill:none;stroke:#FFFFFF;stroke-linecap:round;stroke-linejoin:round;stroke-miterlimit:10;" x1="259.3" y1="40.3" x2="257.8" y2="43.4"/>
		
			<line style="fill:none;stroke:#FFFFFF;stroke-linecap:round;stroke-linejoin:round;stroke-miterlimit:10;" x1="276.4" y1="63" x2="272.6" y2="63"/>
	</g>
	<g>
		<path style="fill:none;stroke:#FFFFFF;stroke-linecap:round;stroke-linejoin:round;stroke-miterlimit:10;" d="M223.5,39.7
			c10.9,2.9,19,12.8,19,24.6"/>
		
			<line style="fill:none;stroke:#FFFFFF;stroke-linecap:round;stroke-linejoin:round;stroke-miterlimit:10;" x1="225.3" y1="40.3" x2="223.8" y2="43.4"/>
		
			<line style="fill:none;stroke:#FFFFFF;stroke-linecap:round;stroke-linejoin:round;stroke-miterlimit:10;" x1="242.4" y1="63" x2="238.6" y2="63"/>
	</g>
	<g>
		<path style="fill:none;stroke:#FFFFFF;stroke-linecap:round;stroke-linejoin:round;stroke-miterlimit:10;" d="M47.5,39.7
			c-10.9,2.9-19,12.8-19,24.6"/>
		
			<line style="fill:none;stroke:#FFFFFF;stroke-linecap:round;stroke-linejoin:round;stroke-miterlimit:10;" x1="45.6" y1="40.3" x2="47.1" y2="43.4"/>
		
			<line style="fill:none;stroke:#FFFFFF;stroke-linecap:round;stroke-linejoin:round;stroke-miterlimit:10;" x1="28.5" y1="63" x2="32.4" y2="63"/>
	</g>
	<g>
		<path style="fill:none;stroke:#FFFFFF;stroke-linecap:round;stroke-linejoin:round;stroke-miterlimit:10;" d="M81.5,39.7
			c-10.9,2.9-19,12.8-19,24.6"/>
		
			<line style="fill:none;stroke:#FFFFFF;stroke-linecap:round;stroke-linejoin:round;stroke-miterlimit:10;" x1="79.6" y1="40.3" x2="81.1" y2="43.4"/>
		
			<line style="fill:none;stroke:#FFFFFF;stroke-linecap:round;stroke-linejoin:round;stroke-miterlimit:10;" x1="62.5" y1="63" x2="66.4" y2="63"/>
	</g>
	<g>
		<path style="fill:none;stroke:#FFFFFF;stroke-linecap:round;stroke-linejoin:round;stroke-miterlimit:10;" d="M110.4,104.2
			c-4.6-5.2-7.4-12.1-7.4-19.6s2.8-14.3,7.3-19.6"/>
		
			<line style="fill:none;stroke:#FFFFFF;stroke-linecap:round;stroke-linejoin:round;stroke-miterlimit:10;" x1="109.3" y1="66.4" x2="112" y2="68.7"/>
		
			<line style="fill:none;stroke:#FFFFFF;stroke-linecap:round;stroke-linejoin:round;stroke-miterlimit:10;" x1="109.3" y1="102.2" x2="112" y2="99.9"/>
	</g>
	<g>
		<path style="fill:none;stroke:#FFFFFF;stroke-linecap:round;stroke-linejoin:round;stroke-miterlimit:10;" d="M193.8,104.2
			c4.6-5.2,7.4-12.1,7.4-19.6s-2.8-14.3-7.3-19.6"/>
		
			<line style="fill:none;stroke:#FFFFFF;stroke-linecap:round;stroke-linejoin:round;stroke-miterlimit:10;" x1="195" y1="66.4" x2="192.3" y2="68.7"/>
		
			<line style="fill:none;stroke:#FFFFFF;stroke-linecap:round;stroke-linejoin:round;stroke-miterlimit:10;" x1="195" y1="102.2" x2="192.3" y2="99.9"/>
	</g>
	<g>
		<path style="fill:none;stroke:#FFFFFF;stroke-linecap:round;stroke-linejoin:round;stroke-miterlimit:10;" d="M173,109.7
			c-5.6,4.9-13,7.9-21.1,7.9s-15.4-3-21.1-7.9"/>
		
			<line style="fill:none;stroke:#FFFFFF;stroke-linecap:round;stroke-linejoin:round;stroke-miterlimit:10;" x1="132.3" y1="110.9" x2="134.8" y2="108.1"/>
		
			<line style="fill:none;stroke:#FFFFFF;stroke-linecap:round;stroke-linejoin:round;stroke-miterlimit:10;" x1="170.9" y1="110.9" x2="168.4" y2="108.1"/>
	</g>
</g>
<path id="clp-ind-elev" style="fill:none;stroke:#FF0000;stroke-width:2;stroke-miterlimit:10;" d="M226.2,93.2h-19.7
	c0.6-2.4,0.9-4.7,0.9-7.1c0-10.5-2.2-20.2-11.2-27.3l-16-0.1c-7.8,0.4-13.2,6.7-13.2,11.7v7.8c-1.7,1.4-2.7,3.6-2.7,5.9
	c0,2.4,1.1,4.5,2.7,5.9V99c7.4,2.4,12.2,6.5,12.2,11.1c0,7.4-12.1,13.3-27.1,13.3c-15,0-27.1-6-27.1-13.3c0-4.7,4.9-8.8,12.2-11.1
	v-8.9c1.7-1.4,2.7-3.6,2.7-5.9c0-2.4-1.1-4.5-2.7-5.9v-7.8c0-5-6.1-11.9-13.1-11.7l-15.3-0.1c-9.3,7.3-11.6,17-11.6,27.7
	c0,2.5,0.3,4.8,0.9,7.1H78.8c-3.8,0-6.8,3-6.8,6.8v16.5c0,3.8,3,6.8,6.8,6.8h51.9c6.6,2,13.9,3.2,21.5,3.2c7.6,0,14.9-1.1,21.5-3.2
	h52.4c3.8,0,6.8-3,6.8-6.8v-16.5C233,96.3,230,93.2,226.2,93.2z"/>
<path style="opacity:0.3;fill:#FFFFFF;enable-background:new    ;" d="M2,0v151.6h295.6V0H2z M233,116.5c0,3.8-3,6.8-6.8,6.8h-52.4
	c-6.6,2.1-13.9,3.2-21.5,3.2s-14.9-1.2-21.5-3.2H78.8c-3.8,0-6.8-3-6.8-6.8v-16.5c0-3.8,3-6.8,6.8-6.8h19.3
	c-0.6-2.2-0.9-4.6-0.9-7.1c0-10.6,2.4-20.4,11.6-27.7l15.3,0.1c7-0.1,13.1,6.7,13.1,11.7v7.8c1.7,1.4,2.7,3.6,2.7,5.9
	c0,2.4-1.1,4.5-2.7,5.9V99c-7.4,2.4-12.2,6.5-12.2,11.1c0,7.4,12.1,13.3,27.1,13.3c15,0,27.1-6,27.1-13.3c0-4.7-4.9-8.7-12.2-11.1
	v-8.9c-1.7-1.4-2.7-3.6-2.7-5.9c0-2.4,1.1-4.5,2.7-5.9v-7.8c0-5,5.4-11.3,13.2-11.7l16,0.1c9,7.2,11.2,16.8,11.2,27.3
	c0,2.4-0.3,4.7-0.9,7.1h19.7c3.8,0,6.8,3,6.8,6.8V116.5z"/>
</svg>
