<?xml version="1.0" encoding="utf-8"?>
<!-- Generator: Adobe Illustrator 24.2.1, SVG Export Plug-In . SVG Version: 6.00 Build 0)  -->
<svg version="1.1" id="fc_x5F_overview" xmlns="http://www.w3.org/2000/svg" xmlns:xlink="http://www.w3.org/1999/xlink" x="0px"
	 y="0px" viewBox="0 0 1291 566.9" style="enable-background:new 0 0 1291 566.9;" xml:space="preserve">
<style type="text/css">
	.st0{fill:#77C045;fill-opacity:0.498;}
	.st1{fill:#FF0000;fill-opacity:0.502;}
	.st2{fill:#FF9900;fill-opacity:0.498;}
	.st3{fill:#0099FF;fill-opacity:0.498;}
	.st4{fill:none;}
	.st5{fill:#0099FF;}
	.st6{fill:none;stroke:#CCCCCC;stroke-width:0.5;stroke-miterlimit:5;}
	.st7{fill:none;stroke:#000000;stroke-width:0.55;stroke-linecap:square;stroke-linejoin:round;}
	.st8{fill:none;stroke:#000000;stroke-width:0.55;stroke-linecap:square;stroke-linejoin:round;stroke-miterlimit:3.9999;}
	.st9{fill:none;stroke:#000000;stroke-width:0.55;stroke-linecap:round;stroke-linejoin:round;}
	.st10{fill:none;stroke:#B1B1B1;stroke-width:0.55;stroke-linecap:square;stroke-linejoin:round;stroke-miterlimit:3.9999;}
	.st11{fill:none;stroke:#B1B1B1;stroke-width:0.55;stroke-linecap:square;stroke-linejoin:round;}
	.st12{fill:none;stroke:#000000;stroke-width:0.25;stroke-linecap:square;stroke-linejoin:round;}
	.st13{fill:none;stroke:#000000;stroke-width:0.25;stroke-linecap:square;stroke-linejoin:round;stroke-miterlimit:3.9999;}
	.st14{font-family:'ArialMT';}
	.st15{font-size:16px;}
</style>
<g id="clp-hintergrund">
	<path class="st0" d="M325.4,167.5l45.8,26.5l8-2l-56.6-32.9l-15,5.5l10,5.8L325.4,167.5L325.4,167.5z M815.8,444.1l-6.1,2.8
		l49.6,28.3l-7.5,1.8l12.5,7.5l12.9-5.3L815.8,444.1L815.8,444.1z"/>
	<path class="st1" d="M912.2,64.1l-9.2,5.4l84,48.5l8.5-5.7C995.5,112.3,912.2,64.1,912.2,64.1z M815.6,8.1l-9,4.6l81.8,47.9
		l9.3-4.9L815.6,8.1z"/>
	<path class="st2" d="M906,103.4l-12-5.6l-15.8,81.7l15.8-13L906,103.4z"/>
	<path class="st3" d="M706.1,381.4l-7.5,2l110.8,63.3l6-2.7L706.1,381.4L706.1,381.4z M633.4,339.6l-9.1,2l56.4,32.6l7.2-3.6
		L633.4,339.6L633.4,339.6z M534.4,282.7l-9.2,2l61.2,35.8l8.5-3.1L534.4,282.7L534.4,282.7z M379.1,192l-7.6,2.2l138.4,80.3l6.1-3
		L379.1,192z"/>
	<path class="st1" d="M727.8,400.3l-6.3,3.3l80.9,46.2l6.6-3.3L727.8,400.3z M371.4,194.2l-7.8,2l90.1,52.4l6.9-2.6L371.4,194.2
		L371.4,194.2z"/>
</g>
<g id="clp-elevator">
	<path id="clp-elevator-hl" class="st4" d="M914,62.9l-12.4,7.4l84.1,48.6l11.2-7.4L914,62.9z M815.4,6.7l-12,6l83.5,48.6l12.5-6.7
		C899.4,54.6,815.4,6.7,815.4,6.7z M1035.4,61.4h-57.5c-2.5,0-4.5-2-4.5-4.5v-16c0-2.5,2-4.5,4.5-4.5h57.5c2.5,0,4.5,2,4.5,4.5v16
		C1039.8,59.4,1037.8,61.4,1035.4,61.4z"/>
</g>
<g id="clp-rudder">
	<path id="clp-rudder-hl" class="st4" d="M907.9,104.1l-15.5-6.8L877,180.2l9.1-6.6l9.6-8.5L907.9,104.1L907.9,104.1z M1035.4,216.1
		h-57.5c-2.5,0-4.5-2-4.5-4.5v-16c0-2.5,2-4.5,4.5-4.5h57.5c2.5,0,4.5,2,4.5,4.5v16C1039.8,214.1,1037.8,216.1,1035.4,216.1z"/>
</g>
<g id="clp-spoiler">
	<path id="clp-spoiler-hl" class="st4" d="M726.8,399.7l-7.1,3.5l82.2,47.7l8.1-3.4L726.8,399.7L726.8,399.7z M371.4,194.2l-9.7,2.1
		l91.8,53.3l8.1-3.1L371.4,194.2L371.4,194.2z M552.1,169.6h-57.5c-2.5,0-4.5-2-4.5-4.5v-16c0-2.5,2-4.5,4.5-4.5h57.5
		c2.5,0,4.5,2,4.5,4.5v16C556.5,167.6,554.5,169.6,552.1,169.6z M897.9,399.7h-57.5c-2.5,0-4.5-2-4.5-4.5v-16c0-2.5,2-4.5,4.5-4.5
		h57.5c2.5,0,4.5,2,4.5,4.5v16C902.3,397.7,900.3,399.7,897.9,399.7z"/>
</g>
<g id="clp-aileron">
	<path id="clp-aileron-hl" class="st4" d="M325.3,168.8l44.5,25.8l11-2.8l-57.9-33.6l-16.4,6.8l11.1,6.6L325.3,168.8L325.3,168.8z
		 M816.2,443.3l-7.6,3.7l47.2,27.5l-7.1,2l14.7,9.4l15.1-6.9L816.2,443.3L816.2,443.3z M1082,459.5H910.5c-2.5,0-4.5-2-4.5-4.5v-16
		c0-2.5,2-4.5,4.5-4.5H1082c2.5,0,4.5,2,4.5,4.5v16C1086.4,457.5,1084.4,459.5,1082,459.5z M639,131.5H436.5c-2.5,0-4.5-2-4.5-4.5
		V92c0-2.5,2-4.5,4.5-4.5H639c2.5,0,4.5,2,4.5,4.5v35C643.4,129.5,641.4,131.5,639,131.5z"/>
</g>
<g id="clp-flaps-ob">
	<path id="clp-flaps-ob-hl" class="st4" d="M706.6,379.6l-11,3.4l113.1,64l7.6-3.9L706.6,379.6L706.6,379.6z M380.8,191.7l-10.4,2.5
		L510.3,276l8.1-4.4L380.8,191.7L380.8,191.7z M914.1,356.2H803.6c-2.5,0-4.5-2-4.5-4.5v-16c0-2.5,2-4.5,4.5-4.5h110.5
		c2.5,0,4.5,2,4.5,4.5v16C918.5,354.2,916.5,356.2,914.1,356.2z M688.4,210.8H577.9c-2.5,0-4.5-2-4.5-4.5v-16c0-2.5,2-4.5,4.5-4.5
		h110.5c2.5,0,4.5,2,4.5,4.5v16C692.8,208.8,690.8,210.8,688.4,210.8z"/>
</g>
<g id="clp-flaps-ib">
	<path id="clp-flaps-ib-hl" class="st4" d="M632.6,338l-10.6,3.4l58.5,34.1l8.9-5.1L632.6,338L632.6,338z M534.5,281.3l-11.4,3.2
		l63,37.1l10.8-4.2L534.5,281.3L534.5,281.3z M702.1,256.5H600.6c-2.5,0-4.5-2-4.5-4.5v-16c0-2.5,2-4.5,4.5-4.5h101.5
		c2.5,0,4.5,2,4.5,4.5v16C706.5,254.5,704.5,256.5,702.1,256.5L702.1,256.5z"/>
</g>
<g id="clp-system">
	<path class="st5" d="M502.7,518.4l-2.6,3.5c-16.8-9.1-29-20-36.6-32.8c-2-3.3-3.5-6.4-4.4-9.2c1.1,3.5,2.6,7.3,4.6,11.4
		c7.2,14.4,18,26.4,32.4,36.2l-2.6,3.5l11-1.7L502.7,518.4L502.7,518.4z"/>
	<path id="btn_fcecu_0_Layer2_0_1_STROKES" class="st6" d="M459,479.9c0.9,2.9,2.4,5.9,4.4,9.2c7.6,12.8,19.8,23.8,36.6,32.8
		l2.6-3.5l1.7,10.9l-11,1.7l2.6-3.5c-14.4-9.8-25.2-21.9-32.4-36.2C461.6,487.2,460,483.4,459,479.9c-0.2-0.4-0.3-0.8-0.4-1.2
		c-0.7-2.1-1.2-4-1.5-6"/>
	<path class="st5" d="M454.9,476l8.8-5.2v-2.6l-5.8-1.3l-8.8,5v2.6L454.9,476z"/>
	<path id="btn_fcecu_0_Layer1_0_MEMBER_1_1_STROKES" class="st7" d="M454.9,476l8.9-5.1v-2.6l-8.9,5.2V476z"/>
	<path id="btn_fcecu_0_Layer1_0_MEMBER_2_1_STROKES" class="st8" d="M457.8,466.9l-8.8,5v2.6"/>
	<path id="btn_fcecu_0_Layer1_0_MEMBER_3_1_STROKES" class="st8" d="M457.8,466.9l5.9,1.3"/>
	<path id="btn_fcecu_0_Layer1_0_MEMBER_4_1_STROKES" class="st8" d="M449,471.9l5.9,1.5"/>
	<path id="btn_fcecu_0_Layer1_0_MEMBER_5_1_STROKES" class="st8" d="M449,474.6l5.9,1.4"/>
	<path id="Layer3_5_1_STROKES" class="st9" d="M624.2,341.6l8.1-2.5"/>
	<path id="Layer3_5_MEMBER_0_1_STROKES" class="st10" d="M529.1,440l82.8-47.8"/>
	<path id="Layer3_5_MEMBER_1_1_STROKES" class="st8" d="M594.8,317.4l-61.1-35"/>
	<path id="Layer3_5_MEMBER_2_1_STROKES" class="st10" d="M332.9,479.4l-0.7,4.9l4,11.8"/>
	<path id="Layer3_5_MEMBER_3_1_STROKES" class="st10" d="M336.2,496.1l15.9,0.4l31.1-4.2l4.2,11.4l-21.3,9.9l-8.8,1.8l-31.4-2.4
		l-5.9-13.5"/>
	<path id="Layer3_5_MEMBER_4_1_STROKES" class="st10" d="M356,515.4l5.4-19.2"/>
	<path id="Layer3_5_MEMBER_5_1_STROKES" class="st10" d="M630.9,401.5l-60.6-29.3"/>
	<path id="Layer3_5_MEMBER_6_1_STROKES" class="st7" d="M632,338.9l55.5,31.9"/>
	<path id="Layer3_5_MEMBER_6_2_STROKES" class="st11" d="M617,328.7v0.5l0.3,0.6l0.5,0.9l0.1,0.1l14,8"/>
	<path id="Layer3_5_MEMBER_7_1_STROKES" class="st10" d="M635.5,398.5l-32.8,21.3l-8.8,7l-11.1,11l-5.6,6.9l-1.5,2.2l-0.7,1.5
		l-0.9,2.8v0.8l0.2,0.7l0.5,0.7l1.1,0.7l2.3,0.4h1.2l1.7-0.2l13.7-4.3l1.9-0.4h0.7l1,0.3l0.7,0.1l1.6,0.8"/>
	<path id="Layer3_5_MEMBER_8_1_STROKES" class="st10" d="M596.2,449.7l0.2-0.6l0.2-0.3l0.4-0.8l0.1-0.7v-0.9l-0.6-4.4l-0.7-2.1
		l-0.4-0.7l-0.4-0.5l-0.4-0.7l-1.6-1.8l-0.7-0.5l-0.5-0.5l-0.7-0.5l-0.2-0.3l-0.3-0.1l-0.2-0.2H590l-0.6-0.1l-2.7,0.1l-0.7,0.2
		l-0.9,0.7l-0.4,0.4"/>
	<path id="Layer3_5_MEMBER_9_1_STROKES" class="st10" d="M592.7,453.4l2,1l0.8,0.6l0.7,0.4l0.6,0.6l0.6,0.4l0.3,0.4l0.3,0.3l0.3,0.5
		l0.2,0.6l0.3,1.5v0.8l-0.1,0.7l-0.2,0.4l-0.5,0.2l-0.5,0.1l-0.7-0.1"/>
	<path id="Layer3_5_MEMBER_10_1_STROKES" class="st10" d="M584.1,453.5l2.9,5.1l0.7,0.7l1.3,1l6,3.4l1.4,0.6l1.3,0.3l2.4-0.6
		l1.2-0.5l0.7-0.5l1-0.4l44.4-23.2l30.9-18.2"/>
	<path id="Layer3_5_MEMBER_11_1_STROKES" class="st10" d="M722.7,390.8l17.1-13.3l4.4-4.9l1.4-2.2l1.3-3.3l0.1-1.7l-0.2-1.5
		l-0.2-0.7l-0.3-0.6l-0.4-0.5l-0.7-0.6l-0.8-0.6l-1-0.5l-2.7-0.7l-2.6-0.4l-4.4,0.3l-9.1,1.7h-2l-1.2-0.3l-2.2-0.3"/>
	<path id="Layer3_5_MEMBER_12_1_STROKES" class="st10" d="M743.2,361.9l-0.2,0.5l-0.1,0.4l-0.3,0.5l-0.9,0.9l-5.8,2.7l-3.4,1
		l-2.1,0.3h-0.6l-1-0.2l-0.5-0.4l-0.4-0.5l-0.2-0.4l-0.4-0.6l-2-2l-2.9-2l-1.5-0.7l-1-0.4l-2-0.4l-2.3-0.1l-3.5,0.6l-14.4,5.1
		l-18.2,8.6l-15.7,8.7l-0.7,0.3"/>
	<path id="Layer3_5_MEMBER_13_1_STROKES" class="st10" d="M674.1,389l0.9,0.2l0.7,0.3l1.7,0.3h2.3l2.9-0.5l4.5-1.4l3.2-1.8l6.5-2.3
		l1.5-0.3l1.7-0.6l5.5-1"/>
	<path id="Layer3_5_MEMBER_14_1_STROKES" class="st10" d="M653.7,406l-0.4,2.2v0.7l0.3,0.7l1,1.1l0.5,0.4"/>
	<path id="Layer3_5_MEMBER_15_1_STROKES" class="st10" d="M336.2,496.1l-10.3,16.8"/>
	<path id="Layer3_5_MEMBER_16_1_STROKES" class="st7" d="M863.6,484.5l13.2-5.4"/>
	<path id="Layer3_5_MEMBER_16_2_STROKES" class="st11" d="M846.5,491.5l17.2-7"/>
	<path id="Layer3_5_MEMBER_17_1_STROKES" class="st10" d="M642.8,291.9L780,215.3"/>
	<path id="Layer3_5_MEMBER_18_1_STROKES" class="st10" d="M601.5,315l41.3-23.1"/>
	<path id="Layer3_5_MEMBER_19_1_STROKES" class="st10" d="M780,215.3l54.7-44.2"/>
	<path id="Layer3_5_MEMBER_20_1_STROKES" class="st10" d="M638.4,307.1l136.5-78.9"/>
	<path id="Layer3_5_MEMBER_21_1_STROKES" class="st10" d="M687.3,349.3l106.6-62.1"/>
	<path id="Layer3_5_MEMBER_22_1_STROKES" class="st10" d="M668.9,360.1l18.4-10.8"/>
	<path id="Layer3_5_MEMBER_23_1_STROKES" class="st10" d="M824.6,206.3l10.9-36.2L860,96.6"/>
	<path id="Layer3_5_MEMBER_24_1_STROKES" class="st10" d="M878.2,179.5L894,97.9"/>
	<path id="Layer3_5_MEMBER_25_1_STROKES" class="st10" d="M886.1,173.6l14.2-72.9"/>
	<path id="Layer3_5_MEMBER_26_1_STROKES" class="st10" d="M894,166.5l12.2-63.2"/>
	<path id="Layer3_5_MEMBER_27_1_STROKES" class="st7" d="M897.5,55.6L815.4,8.1l-9.4,4.8"/>
	<path id="Layer3_5_MEMBER_27_2_STROKES" class="st11" d="M806,12.8l-19.8,13l71,53.9"/>
	<path id="Layer3_5_MEMBER_28_1_STROKES" class="st10" d="M875.3,89.8l90.1,39.8"/>
	<path id="Layer3_5_MEMBER_29_1_STROKES" class="st10" d="M968.8,129l18.4-10.9"/>
	<path id="Layer3_5_MEMBER_30_1_STROKES" class="st8" d="M995.5,112.3l-83.3-48.1"/>
	<path id="Layer3_5_MEMBER_31_1_STROKES" class="st10" d="M930.1,52.9V38.5l-62.9,33.2"/>
	<path id="Layer3_5_MEMBER_32_1_STROKES" class="st8" d="M987,118l-82.1-47.6"/>
	<path id="Layer3_5_MEMBER_33_1_STROKES" class="st10" d="M824.6,206.3l6.1-0.8l8.6-3l17.1-8.9l17.9-11.3l13.3-9.9l6.1-5.8"/>
	<path id="Layer3_5_MEMBER_34_1_STROKES" class="st10" d="M894.8,178.7l0.3-0.7l0.4-0.6l0.1-0.5l0.3-0.7l0.1-0.7l-0.1-2l-0.5-2
		l-0.4-0.9l-0.5-0.8l-1.5-2"/>
	<path id="Layer3_5_MEMBER_35_1_STROKES" class="st10" d="M867.1,71.6l-8.6,6.6l-3.6,4l-0.8,1.4l-1.7,4.8l-0.1,3l0.6,1.4l0.9,1.2
		l1.1,0.8l1.5,0.7l3.1,0.8l1.5,0.2h2.1l3-0.7l9.6-3.3"/>
	<path id="Layer3_5_MEMBER_36_1_STROKES" class="st8" d="M806,12.8l82.1,47.7"/>
	<path id="Layer3_5_MEMBER_37_1_STROKES" class="st7" d="M705.8,381.2l171,98"/>
	<path id="Layer3_5_MEMBER_38_1_STROKES" class="st10" d="M472.1,294.2l-41.3,26.6l-12.4,10.5l-10.2,10.6l-3.9,5.2l-0.5,0.7
		l-0.7,1.4l-0.9,2.9v0.7l0.2,0.7l0.5,0.6l0.5,0.4l0.7,0.3l0.7,0.1l0.8,0.3l0.7,0.1h1.2l6.6-1.4l6.5-2.3l0.7-0.2l0.7-0.4l2.1-0.6h1.2
		l0.4,0.1h0.4l0.9,0.3l1.1,0.6l0.5,0.1"/>
	<path id="Layer3_5_MEMBER_39_1_STROKES" class="st10" d="M424.4,350.5l0.3-0.5l0.1-0.4l0.4-0.8l0.1-0.7l-0.1-2.2l-0.5-3.1l-0.4-1.1
		l-1.1-2.2l-0.4-0.5l-0.6-0.6l-1-1.3l-0.7-0.4l-1.1-1l-0.3-0.2l-0.3-0.1l-0.3-0.2l-0.3-0.1l-0.6-0.1h-1.9l-1.6,0.4l-0.5,0.3
		l-0.5,0.4l-0.3,0.4"/>
	<path id="Layer3_5_MEMBER_40_1_STROKES" class="st10" d="M420.9,354.2l4.1,2.4l0.8,0.8l0.6,0.8l0.5,2v0.7l-0.1,0.7l-0.3,0.4
		l-0.4,0.3l-0.6,0.1l-0.9-0.2"/>
	<path id="Layer3_5_MEMBER_41_1_STROKES" class="st10" d="M412.3,354.4l1.8,3.1l0.3,0.7l0.8,1.2l0.7,0.7l5.3,3.5l3.4,1.6l0.7,0.1
		h0.6l0.5-0.1h0.7l2-0.6l21.7-10.7l49.7-28.1"/>
	<path id="Layer3_5_MEMBER_42_1_STROKES" class="st10" d="M550.8,291.7l16-12.2l5.5-6.1l1.5-2.3l0.9-2.2l0.3-0.9l0.2-1.7l-0.2-1.6
		l-0.2-0.6l-0.3-0.6l-0.4-0.5l-0.7-0.7l-0.8-0.5l-2.4-0.9l-2.8-0.6l-2.2-0.2l-2,0.2l-8.6,1.5L554,262l-1.2,0.2h-0.7l-4.7-0.7"/>
	<path id="Layer3_5_MEMBER_43_1_STROKES" class="st10" d="M571.4,262.8l-0.3,0.7l-0.3,0.5l-0.4,0.5l-0.7,0.6l-4.4,2.1l-3.6,1.2
		l-3.3,0.6H558l-0.5-0.1l-1-0.4l-0.4-0.5l-0.2-0.4l-0.4-0.6l-1-1.1l-3.2-2.5l-1.5-0.8l-2.8-0.9l-3.4-0.2l-5.9,1.1l-15.6,6.1l-12.8,6
		L491,284.8"/>
	<path id="Layer3_5_MEMBER_44_1_STROKES" class="st10" d="M502.3,289.9l1.7,0.3l0.7,0.3l2,0.2l4.2-0.5l3.1-0.8l2.4-1.1l1-0.7
		l3.7-1.7l12.6-3.2"/>
	<path id="Layer3_5_MEMBER_45_1_STROKES" class="st10" d="M481.9,306.9l-0.2,0.7l-0.3,1.6l0.4,1.3l1,1.2l0.5,0.3"/>
	<path id="Layer3_5_MEMBER_46_1_STROKES" class="st10" d="M655.4,411.3l181.9,79.2"/>
	<path id="Layer3_5_MEMBER_47_1_STROKES" class="st7" d="M308.4,164.9l14.2-5.8"/>
	<path id="Layer3_5_MEMBER_47_2_STROKES" class="st11" d="M291.7,171.7l16.7-6.8"/>
	<path id="Layer3_5_MEMBER_48_1_STROKES" class="st8" d="M516,271.5L322.6,159.2"/>
	<path id="Layer3_5_MEMBER_49_1_STROKES" class="st10" d="M465.2,298.5l-170.4-121l-3.1-5.8"/>
	<path id="Layer3_5_MEMBER_50_1_STROKES" class="st10" d="M837.2,490.6l9.2,0.9"/>
	<path id="Layer3_5_MEMBER_51_1_STROKES" class="st8" d="M987,118l8.5-5.7"/>
	<path id="Layer3_5_MEMBER_52_1_STROKES" class="st10" d="M915.3,66L930,52.9"/>
	<path id="Layer3_5_MEMBER_53_1_STROKES" class="st10" d="M965.4,129.5l3.4-0.6"/>
	<path id="Layer3_5_MEMBER_54_1_STROKES" class="st10" d="M895.4,177.5l-10.2,19"/>
	<path id="Layer3_5_MEMBER_55_1_STROKES" class="st10" d="M871.7,215.4l0.5-0.5l0.3-0.4l0.3-0.3l0.3-0.2l0.5-0.7l0.3-0.2l0.5-0.7
		l0.3-0.2l0.3-0.3l0.2-0.4l0.2-0.2l0.4-0.3l0.2-0.4l0.5-0.5l0.3-0.4l0.1-0.3l0.6-0.6l0.7-0.9l0.3-0.2l0.2-0.4l0.2-0.3l0.3-0.3
		l0.2-0.4l0.3-0.3l0.1-0.3l0.3-0.3l0.3-0.4l0.2-0.2l0.4-0.7l0.3-0.2l0.4-0.7l0.4-0.6l0.3-0.3l0.1-0.4l0.3-0.3l0.2-0.3l0.4-0.7
		l0.2-0.2l0.4-0.7l0.3-0.3l0.1-0.3l0.2-0.3l0.2-0.4l0.3-0.4"/>
	<path id="Layer3_5_MEMBER_56_1_STROKES" class="st10" d="M871.4,215.7l-44.1,45.7"/>
	<path id="Layer3_5_MEMBER_57_1_STROKES" class="st10" d="M875.1,88v1.1"/>
	<path id="Layer3_5_MEMBER_58_1_STROKES" class="st10" d="M482.8,311.7l39.5,32"/>
	<path id="Layer3_5_MEMBER_59_1_STROKES" class="st10" d="M774.9,228.2l49.7-21.9"/>
	<path id="Layer3_5_MEMBER_60_1_STROKES" class="st10" d="M793.9,287.2l33.3-25.8"/>
	<path id="Layer3_5_MEMBER_61_1_STROKES" class="st10" d="M566.1,327.9l35.4-12.9"/>
	<path id="Layer3_5_MEMBER_62_1_STROKES" class="st8" d="M863.3,483.8l-11.8-7.1l7.5-1.8"/>
	<path id="Layer3_5_MEMBER_63_1_STROKES" class="st8" d="M809.4,446.7l-81.3-46.4"/>
	<path id="Layer3_5_MEMBER_64_1_STROKES" class="st8" d="M728.1,400.3l-30-17"/>
	<path id="Layer3_5_MEMBER_65_1_STROKES" class="st8" d="M859,475l-49.6-28.3"/>
	<path id="Layer3_5_MEMBER_66_1_STROKES" class="st8" d="M728.1,400.3l-6.6,3.3l80.9,46.2"/>
	<path id="Layer3_5_MEMBER_67_1_STROKES" class="st8" d="M809.4,446.7l6.1-2.8"/>
	<path id="Layer3_5_MEMBER_68_1_STROKES" class="st8" d="M802.4,449.8l7-3.1"/>
	<path id="Layer3_5_MEMBER_69_1_STROKES" class="st8" d="M765,421.5l-6.9,3.1"/>
	<path id="Layer3_5_MEMBER_70_1_STROKES" class="st8" d="M460.6,246l-89.2-51.8"/>
	<path id="Layer3_5_MEMBER_71_1_STROKES" class="st8" d="M371.4,194.2l-46-26.7"/>
	<path id="Layer3_5_MEMBER_72_1_STROKES" class="st8" d="M509.9,274.6L460.6,246"/>
	<path id="Layer3_5_MEMBER_73_1_STROKES" class="st8" d="M325.4,167.5l-7.8,2.9l-8.8-5"/>
	<path id="Layer3_5_MEMBER_74_1_STROKES" class="st8" d="M371.4,194.2l-7.8,2"/>
	<path id="Layer3_5_MEMBER_75_1_STROKES" class="st8" d="M379.3,192.2l-7.9,2"/>
	<path id="Layer3_5_MEMBER_76_1_STROKES" class="st8" d="M363.6,196.2l90.1,52.4l6.9-2.6"/>
	<path id="Layer3_5_MEMBER_77_1_STROKES" class="st10" d="M665.8,342.1l-0.2-0.1h-1l-0.1,0.1l-0.3,0.1l-0.8,0.6l-0.6,0.3l-0.8,0.6
		l-0.3,0.1l-0.1,0.2l-0.2,0.2v0.2l-0.1,0.1l-0.1,0.2h-0.1v0.3H661v0.4l0.1,0.1v0.2l0.1,0.2v0.2l0.1,0.4l0.1,0.7v0.7l0.1,0.7v1.4
		l0.1,0.3v0.2l0.4,0.7l0.2,0.1l0.2,0.2l0.2,0.1h0.6v-0.1h0.2l0.1-0.1l0.3-0.1l0.4-0.2l0.4-0.3l1-0.6l0.5-0.5h0.2l0.1-0.2l0.1-0.1
		l0.1-0.2l0.2-0.2v-0.3l0.1-0.2v-0.4l0.1-0.1v-0.6l-0.1-0.4v-1.1l-0.1-0.7v-0.7l-0.2-1.3V343l-0.1-0.1v-0.2l-0.1-0.1l-0.1-0.2v-0.1
		L665.8,342.1L665.8,342.1z"/>
	<path id="Layer3_5_MEMBER_78_1_STROKES" class="st10" d="M676.4,342v-0.7l-0.1-0.3v-0.8l-0.2-1.4v-0.7l-0.2-1v-0.3h-0.1v-0.1
		l-0.2-0.2v-0.2l-0.2-0.2h-0.2l-0.2-0.2h-0.6l-0.2,0.1l-0.3,0.1l-0.2,0.1l-0.4,0.3l-1.7,0.9l-0.3,0.2l-0.2,0.1l-0.1,0.2l-0.1,0.1
		l-0.2,0.1l-0.1,0.2v0.2l-0.1,0.2v0.1l-0.1,0.2v0.6l0.1,0.1v0.3l0.1,0.2l0.1,1.9l0.2,0.7v1.4l0.1,0.3v0.2l0.4,0.7l0.2,0.2l0.2,0.1
		h0.8l0.2-0.1l0.3-0.1l0.2-0.2l1.6-0.8l0.3-0.3l0.2-0.1l0.4-0.4"/>
	<path id="Layer3_5_MEMBER_79_1_STROKES" class="st10" d="M686.2,336.3v-1.4l-0.1-0.5v-0.7l-0.3-2l-0.1-0.3v-0.2l-0.1-0.2v-0.3
		l-0.1-0.1h-0.1l-0.3-0.3H685l-0.1-0.1h-0.7l-0.1,0.1l-0.2,0.1l-0.1,0.1l-0.5,0.1l-1.1,0.7l-0.5,0.2l-0.4,0.3l-0.4,0.4l-0.1,0.2
		h-0.1l-0.1,0.2l-0.1,0.1v0.2l-0.1,0.1v0.9l0.1,0.1v0.3l0.5,3.1v1l0.1,0.3v0.2l0.1,0.3v0.1l0.3,0.3l0.2,0.1l0.1,0.1h0.9l0.2-0.1
		l0.1-0.1l0.8-0.4l1.3-0.8l0.5-0.5"/>
	<path id="Layer3_5_MEMBER_80_1_STROKES" class="st10" d="M695.1,324.8l-0.2-0.1h-1.1l-0.4,0.2l-0.3,0.3l-1.7,0.8l-0.5,0.5h-0.2
		l-0.1,0.2v0.1l-0.1,0.1l-0.2,0.4l-0.1,0.1v0.2l-0.1,0.2v0.5l0.1,0.1v0.3l0.1,0.2v0.4l0.3,2.1v0.5l0.1,0.4v1l0.1,0.3l0.1,0.1
		l0.2,0.4l0.1,0.1l0.2,0.1l0.1,0.1h0.2l0.2,0.1h0.4l0.1-0.1h0.1l0.1-0.1l2-1.1l0.4-0.3l0.1-0.1l0.2-0.1l0.1-0.2l0.1-0.1l0.1-0.2
		l0.1-0.1V332l0.1-0.1v-0.1l0.1-0.1l0.1-0.2V329l-0.5-3.1v-0.2l-0.1-0.1v-0.1l-0.1-0.1l-0.1-0.2V325L695.1,324.8L695.1,324.8z"/>
	<path id="Layer3_5_MEMBER_81_1_STROKES" class="st10" d="M705.9,324.7v-1.6l-0.4-2.7l-0.1-0.3v-0.6l-0.1-0.1h-0.1l-0.5-0.5H704
		l-0.2,0.1l-0.1,0.1l-0.6,0.3l-0.6,0.2l-1.4,0.9l-0.2,0.1l-0.1,0.2l-0.1,0.1l-0.1,0.2l-0.3,0.3l-0.1,0.2v0.1l-0.1,0.2v0.6l0.1,0.1
		v0.3l0.1,0.2v0.4l0.4,2.6v1.2l0.2,0.4v0.2l0.2,0.4l0.1,0.1l0.4,0.2h0.7l0.2-0.1h0.1l0.2-0.1l0.3-0.2l1.9-1"/>
	<path id="Layer3_5_MEMBER_82_1_STROKES" class="st10" d="M710.2,316l-0.1,1l0.1,0.2v0.2l0.5,3.1v1.6l0.1,0.1l0.1,0.2l0.4,0.4
		l0.2,0.1h0.3l0.2,0.1l0.2-0.1h0.3l0.1-0.1l0.6-0.3l0.4-0.3l0.7-0.3l0.7-0.6l0.2-0.1l0.1-0.1l0.1-0.2l0.1-0.1l0.1-0.2l0.2-0.2v-0.1
		l0.1-0.1v-0.1l0.1-0.2l0.1-0.3v-1.8l-0.5-3.2v-0.4l-0.1-0.1v-0.2l-0.1-0.1v-0.2l-0.2-0.2v-0.1h-0.1l-0.1-0.1h-0.2l-0.1-0.1H714
		l-0.4,0.2h-0.3l-0.8,0.6l-0.6,0.3l-0.5,0.4l-0.4,0.2l-0.3,0.3h-0.1l-0.1,0.2l-0.1,0.1L710.2,316L710.2,316z"/>
	<path id="Layer3_5_MEMBER_83_1_STROKES" class="st10" d="M724.6,308l-0.2-0.1v-0.1h-0.8l-0.2,0.1l-0.1,0.1l-0.3,0.1l-2,1l-0.4,0.3
		l-0.4,0.4l-0.1,0.2H720v0.2l-0.1,0.1l-0.1,0.2v0.3l-0.1,0.1v0.4l0.1,0.1v0.3l0.1,0.2v0.1l0.1,0.4v0.7l0.1,0.7v0.7l0.1,0.6v1.1
		l0.3,0.6v0.3l0.2,0.1l0.2,0.2l0.2,0.1h0.7l0.2-0.1h0.1l0.2-0.1l0.3-0.1l1.9-1.1l0.2-0.2l0.1-0.2l0.2-0.1l0.1-0.2h0.1l0.1-0.1V315
		l0.1-0.1v-0.2l0.1-0.2v-0.3l0.1-0.1V314l-0.1-0.4V312l-0.2-1.3V310l-0.1-0.7V309l-0.1-0.2v-0.1l-0.1-0.1v-0.2l-0.1-0.1h-0.1
		l-0.1-0.1L724.6,308L724.6,308z"/>
	<path id="Layer3_5_MEMBER_84_1_STROKES" class="st10" d="M656.8,352v-0.5l-0.4-2.6l-0.1-0.4v-0.4l-0.1-0.1l-0.1-0.1l-0.1-0.2v-0.1
		h-0.1l-0.2-0.1l-0.1-0.1h-0.2l-0.1-0.1H655l-0.1,0.1h-0.2l-0.2,0.1h-0.1l-0.2,0.2l-0.4,0.2l-0.6,0.2l-1.1,0.7l-0.4,0.2l-0.1,0.1
		l-0.1,0.2l-0.4,0.4"/>
	<path id="Layer3_5_MEMBER_85_1_STROKES" class="st10" d="M589.7,386.3v0.6l0.1,0.4v0.7l0.2,0.7v0.7l0.1,0.5v1.2l0.1,0.1l0.1,0.3
		l0.3,0.6v0.1h0.2l0.4,0.2h0.5l0.1-0.1h0.2l0.1-0.1h0.2l1.9-1l0.3-0.3l0.2-0.1l0.4-0.4v-0.2l0.2-0.2v-0.1l0.1-0.2"/>
	<path id="Layer3_5_MEMBER_86_1_STROKES" class="st10" d="M572.5,395l-0.2,0.2l-0.3,0.1l-2.5,1.5l-0.2,0.2l-0.1,0.2l-0.3,0.3v0.5
		l-0.1,0.1v0.4l0.1,0.1v1l0.4,2.6v1.1l0.2,0.4l0.1,0.3l0.1,0.2l0.1,0.1v0.1l0.4,0.2h0.9l0.1-0.1l0.2-0.1l0.4-0.1l1-0.7l0.5-0.2
		l0.9-0.9v-0.3l0.2-0.2v-0.1l0.1-0.2v-0.5l0.1-0.1l-0.1-0.4v-1.6l-0.3-2v-0.9l-0.1-0.2v-0.1l-0.1-0.1v-0.1l-0.1-0.1v-0.1l-0.2-0.2
		l-0.2-0.1l-0.1-0.1h-0.1l-0.1-0.1L572.5,395L572.5,395z"/>
	<path id="Layer3_5_MEMBER_87_1_STROKES" class="st10" d="M559.4,402.6l-0.2,0.3v0.2l-0.1,0.1l-0.1,0.2v0.2l-0.1,0.1v0.1l0.1,0.1
		v0.4l0.1,0.2v0.2l0.3,1.8v0.7l0.1,0.6v1l0.1,0.3v0.3l0.1,0.2l0.1,0.1l0.1,0.2l0.2,0.1l0.1,0.1l0.2,0.1h0.1l0.2,0.1h0.4l0.1-0.1h0.1
		l1.2-0.6l1.3-0.8l0.1-0.2l0.2-0.1l0.1-0.2l0.1-0.1l0.1-0.2l0.1-0.1h0.1l0.1-0.2v-0.1l0.1-0.1V404l-0.2-1.6l-0.2-0.5v-0.4l-0.1-0.2
		v-0.2l-0.1-0.1v-0.1l-0.1-0.2l-0.3-0.3h-0.2l-0.1-0.1h-0.6l-0.1,0.1h-0.2l-0.2,0.1h-0.3l-0.3,0.3l-2,1.1l-0.2,0.2l-0.2,0.1
		L559.4,402.6L559.4,402.6z"/>
	<path id="Layer3_5_MEMBER_88_1_STROKES" class="st10" d="M549.4,408.6l-0.1,0.2v0.1l-0.1,0.2v0.6l0.1,0.2v0.3l0.1,0.1v0.4l0.4,2.7
		v1.1l0.2,0.4v0.3l0.1,0.1l0.1,0.2l0.1,0.1l0.4,0.2h0.7l0.1-0.1h0.2l0.1-0.1l0.4-0.1l1-0.7l0.5-0.2l0.4-0.3l0.4-0.4v-0.1l0.3-0.3
		v-0.2l0.1-0.1v-0.1l0.1-0.2v-0.1l0.1-0.2v-2.3l-0.5-3V407l-0.1-0.1v-0.2l-0.1-0.1v-0.1l-0.1-0.1l-0.2-0.1l-0.2-0.2h-0.8l-0.4,0.2
		l-0.1,0.1l-1.5,0.7l-0.8,0.6l-0.4,0.4l-0.1,0.2L549.4,408.6z"/>
	<path id="Layer3_5_MEMBER_89_1_STROKES" class="st10" d="M540.2,413.6l-0.2,0.1l-0.2,0.2l-0.2,0.4v0.3h-0.1v0.3l-0.1,0.1v0.2
		l0.1,0.2v0.1l0.1,0.2v0.7l0.4,2.6v1.4l0.1,0.3l0.1,0.1l0.2,0.4l0.1,0.1l0.2,0.1l0.1,0.1l0.2,0.1h0.5l0.1-0.1h0.2l0.4-0.2l0.3-0.2
		l1-0.5l0.6-0.4l0.2-0.3h0.2l0.3-0.3l0.2-0.4V419l0.2-0.2v-0.1l0.1-0.1l0.1-2.2L545,416v-0.6l-0.3-2v-0.5l-0.1-0.1v-0.2l-0.1-0.1
		v-0.1l-0.1-0.2l-0.3-0.3h-0.3v-0.1h-0.7l-0.2,0.1h-0.2l-0.2,0.2l-0.5,0.2l-1.9,1.1L540.2,413.6L540.2,413.6z"/>
	<path id="Layer3_5_MEMBER_90_1_STROKES" class="st10" d="M535.2,422.9V421l-0.3-2l-0.1-0.3v-0.3l-0.1-0.2v-0.1l-0.1-0.1h-0.1v-0.1
		l-0.3-0.3h-0.1l-0.2-0.1h-0.5l-0.2,0.1H533l-0.4,0.2l-0.3,0.2l-0.7,0.2l-0.5,0.5l-0.6,0.2l-0.4,0.3l-0.3,0.3l-0.1,0.2l-0.3,0.3v0.2
		l-0.1,0.1v0.1l-0.1,0.2v0.6l0.1,0.2v0.3l0.1,0.1v0.5l0.3,2v1.4l0.1,0.3v0.2l0.1,0.3l0.2,0.4l0.2,0.2l0.2,0.1l0.1,0.1h0.2l0.2,0.1
		h0.2l0.2-0.1h0.1l0.4-0.2l0.4-0.1l1.5-0.9l0.4-0.2l0.1-0.2l0.6-0.6"/>
	<path id="Layer3_5_MEMBER_91_1_STROKES" class="st10" d="M525.5,428.9v-0.7l-0.1-0.5v-0.5l-0.3-2v-0.6l-0.1-0.4V424l-0.1-0.1v0.1
		l-0.1-0.1v-0.2l-0.2-0.2l-0.1-0.2h-0.1l-0.2-0.1h-0.8l-0.1,0.1h-0.2l-0.1,0.2l-0.5,0.2L522,424l-0.7,0.3l-0.8,0.7h-0.1l-0.4,0.4
		l-0.2,0.4l-0.1,0.1v0.1l-0.1,0.1v0.8l0.1,0.2v0.4l0.1,0.3l0.3,2.1v0.5l0.1,0.5v0.9l0.2,0.4v0.2l0.1,0.2l0.2,0.1l0.2,0.2h0.1
		l0.2,0.1h0.7l0.1-0.1l0.2-0.1l0.1-0.1l0.8-0.5l0.6-0.2l0.4-0.4"/>
	<path id="Layer3_5_MEMBER_92_1_STROKES" class="st10" d="M515.5,434.9v-0.7l-0.1-0.4v-1.4l-0.3-2.1V430l-0.1-0.2v-0.2l-0.1-0.2
		v-0.1l-0.1-0.1h-0.1l-0.3-0.3h-0.1l-0.1-0.1h-0.7l-0.1,0.1h-0.1l-0.2,0.1l-0.6,0.2l-1.1,0.7l-0.5,0.2l-0.4,0.3l-0.2,0.2l-0.2,0.1
		l-0.1,0.2l-0.1,0.1l-0.2,0.4v0.1l-0.1,0.2v0.2l-0.1,0.1v0.2l0.1,0.1v0.4l0.1,0.2v0.1l0.2,1v0.7l0.1,0.7v0.6l0.1,0.3v0.4L510,437
		l0.1,0.2v0.2l0.1,0.3l0.2,0.4h0.1l0.4,0.4h0.2l0.2,0.1h0.4l0.1-0.1h0.1l0.1-0.1l0.3-0.1l1.8-1l0.4-0.2l0.1-0.2l0.2-0.1l0.1-0.2
		l0.4-0.4"/>
	<path id="Layer3_5_MEMBER_93_1_STROKES" class="st10" d="M505.7,439.9v-1.1l-0.4-2.7v-0.4l-0.2-0.4v-0.1l-0.1-0.1v-0.2l-0.1-0.1
		l-0.2-0.1l-0.1-0.1h-0.3l-0.2-0.1l-0.1,0.1h-0.3l-0.2,0.1l-0.1,0.1l-1.7,0.8l-0.5,0.4l-0.5,0.2l-0.2,0.2v0.1l-0.2,0.2l-0.2,0.4H500
		l-0.1,0.2v0.1l-0.1,0.2v0.6l0.1,0.2v0.1l0.1,0.2v0.2l0.1,0.4v0.6l0.2,0.8v0.7l0.1,0.6v1.1l0.1,0.3v0.1l0.1,0.3v0.2l0.2,0.1l0.1,0.2
		h0.2l0.2,0.1h0.7l0.2-0.1h0.2l1.9-1.1l0.4-0.2l0.2-0.2l0.1-0.2h0.1l0.1-0.2l0.1-0.1l0.1-0.2"/>
	<path id="Layer3_5_MEMBER_94_1_STROKES" class="st10" d="M494.9,440.5l-0.2-0.1h-0.1l-0.1-0.1H494l-0.1,0.1h-0.2l-0.1,0.1h-0.3
		l-0.8,0.6l-0.6,0.3l-0.8,0.6l-0.4,0.4h-0.1l-0.1,0.1l-0.1,0.2l-0.1,0.1l-0.1,0.2v1.6l0.1,0.4l0.3,2v0.6l0.1,0.4v0.7l0.1,0.2v0.3
		l0.1,0.2l0.1,0.1l0.1,0.2l0.2,0.2l0.4,0.2h0.7l0.1-0.1l0.4-0.2l0.3-0.2l1-0.5l1-0.7l0.1-0.1l0.1-0.2l0.2-0.2v-0.2l0.1-0.1v-0.1
		l0.1-0.1v-0.1l0.1-0.2l0.1-1.7l-0.1-0.4v-0.5l-0.3-2v-0.9l-0.1-0.1V441l-0.1-0.1v-0.1l-0.1-0.2l-0.2-0.2h-0.2V440.5L494.9,440.5z"
		/>
	<path id="Layer3_5_MEMBER_95_1_STROKES" class="st10" d="M486.1,451.4v-2.1l-0.3-2l-0.1-0.4v-0.2l-0.1-0.1v-0.1h-0.1v-0.1l-0.1-0.2
		l-0.3-0.3v-0.1h-0.2l-0.1-0.1h-0.6l-0.1,0.1H484l-2.7,1.5l-0.2,0.2l-0.2,0.1l-0.1,0.2v0.1l-0.1,0.2l-0.1,0.1v0.1l-0.1,0.2v0.1
		l-0.1,0.1v0.3l-0.1,0.1l0.1,0.1v0.3l0.1,0.2v0.1l0.1,0.2v0.4l0.2,1.4v0.7l0.1,0.5v1.2l0.1,0.2v0.2l0.3,0.6l0.4,0.2h0.1l0.1,0.1h0.6
		l0.1-0.1h0.3l2-1.1l0.7-0.7"/>
	<path id="Layer3_5_MEMBER_96_1_STROKES" class="st10" d="M476.4,457.7v-1.5l-0.1-0.4l-0.4-2.7v-0.4l-0.1-0.2v-0.2l-0.1-0.1v-0.1
		l-0.1-0.2v-0.1l-0.1-0.1h-0.1l-0.1-0.1H475l-0.2-0.1h-0.2l-0.2,0.1h-0.3l-1.9,0.9l-0.5,0.4l-0.4,0.2l-0.5,0.5l-0.2,0.4l-0.1,0.1
		v0.2h-0.1v0.3l-0.1,0.1v0.2l0.1,0.2v0.3l0.1,0.1v0.3l0.1,0.3l0.4,2.6v1.2l0.1,0.3v0.3l0.2,0.4l0.3,0.3h0.2l0.2,0.1h0.6l0.2-0.1h0.1
		l0.2-0.1l0.7-0.6l0.7-0.2l0.4-0.4l0.4-0.3"/>
	<path id="Layer3_5_MEMBER_97_1_STROKES" class="st10" d="M446.8,474.7v-1.4l-0.2-1.1v-0.7l-0.3-1.7v-0.4l-0.2-0.2V469l-0.1-0.1
		h-0.1l-0.2-0.2h-0.2l-0.1-0.1h-0.6l-0.2,0.1h-0.1l-0.1,0.1l-0.2,0.1l-0.5,0.2l-1,0.7l-0.6,0.2l-0.4,0.3l-0.1,0.2l-0.2,0.1l-0.1,0.2
		h-0.1l-0.1,0.2l-0.1,0.1l-0.1,0.2v0.1l-0.1,0.2v0.8l0.1,0.1v0.3l0.5,3.1v1.3l0.1,0.3l0.1,0.2l0.1,0.1v0.2l0.4,0.2l0.1,0.1l0.2,0.1
		h0.5l0.2-0.1h0.1l0.4-0.2l0.3-0.2l0.6-0.2l0.5-0.4l0.5-0.3"/>
	<path id="Layer3_5_MEMBER_98_1_STROKES" class="st10" d="M436.9,479.7V479l-0.1-0.5v-1.3l-0.3-1.7v-0.4l-0.4-0.4v-0.1l-0.1-0.1
		l-0.4-0.2H435l-0.6,0.3l-0.3,0.2l-0.7,0.2l-0.5,0.5l-0.7,0.3l-0.3,0.2l-0.6,0.6v0.1l-0.2,0.4v0.1l-0.1,0.2v0.6l0.1,0.2v0.3l0.1,0.2
		v0.4l0.1,0.6v0.8l0.2,0.7v1.4l0.1,0.3v0.3l0.1,0.1l0.1,0.3l0.1,0.2l0.1,0.1l0.1,0.2h0.1l0.2,0.1h0.1l0.3,0.1h0.2l0.2-0.1h0.1
		l0.2-0.1h0.3l0.7-0.5l0.5-0.4l0.6-0.2l0.5-0.5"/>
	<path id="Layer3_5_MEMBER_99_1_STROKES" class="st10" d="M747.6,310.7l0.7-2l1.1-6.2v-2.7l-0.1-0.6v-0.6l-0.1-0.7v-0.7l-0.5-3
		l-0.2-0.7v-0.6l-0.1-0.6l-0.6-2l-0.1-0.6l-0.7-2.6l-0.3-0.6l-0.4-1.3l-0.3-0.7l-0.4-1.2l-0.4-0.6l-2-4.6l-0.3-0.4l-0.5-0.5
		l-0.2-0.1l-0.3-0.3h0.1l-0.2-0.1h-0.2l-0.4-0.1l-0.3,0.1h-0.4l-2.4,1l-8.7,5l-0.4,0.4l-0.3,0.2l-0.3,0.3l-0.2,0.3l-0.2,0.4
		l-0.1,0.3l-0.2,0.3l-0.1,0.4v0.8l0.1,0.1v0.3l0.2,0.2l0.2,0.4l0.4,0.6l0.1,0.4l0.7,1.3l0.3,0.7l0.7,1.4l0.1,0.5l0.6,1.2l0.2,0.8
		l2,6.2l1,6.9v0.6l0.1,0.6v1.6l-0.1,0.7v0.5l-0.1,0.5v0.7l-0.3,1.7v0.9l-0.3,0.8l-0.1,0.2v0.6l-0.1,0.3v0.5l0.2,0.4l0.2,0.2l0.2,0.4
		l0.2,0.1l0.3,0.1h0.4l0.7-0.2l10.8-6.2l0.3-0.3l0.2-0.1h0.1v-0.2l0.4-0.4"/>
	<path id="Layer3_5_MEMBER_100_1_STROKES" class="st10" d="M764.2,271.7l-0.1,0.5l-0.3,0.6l-0.2,0.9l-0.1,0.2v0.7l0.2,1l0.3,0.7
		l0.2,0.8l1.4,4.2l0.1,0.7l0.2,0.7l0.7,4.5l0.2,3.8l-0.8,6.9v0.4l-0.1,0.3v0.3l0.1,0.1l0.4,0.6l0.4,0.2h1.1l1.9-0.8l13.1-7.8
		l0.4-0.2l0.1-0.2l0.3-0.2l0.3-0.3l0.3-0.2l0.7-0.8l1.3-2.1l0.3-0.4l1-4.7l-0.1-7l-0.4-2.1l-2.4-9l-0.6-1.2l-0.2-0.2l-0.2-0.3
		l-0.3-0.2l-0.2-0.2l-0.3-0.1l-0.6-0.3l-0.4-0.1h-1.3l-0.3,0.1l-0.5,0.1l-0.4,0.2h-0.2l-0.1,0.1H779l-13.5,8.1l-0.3,0.3L764.2,271.7
		L764.2,271.7z"/>
	<path id="Layer3_5_MEMBER_101_1_STROKES" class="st10" d="M412,468.1h-0.4l-0.4-0.2l-0.4-0.1h-0.2l-0.2,0.1l-0.7,0.2l-10.9,6.2
		l-0.3,0.4l-0.3,0.3l-0.2,0.1l-0.1,0.4l-0.2,0.3l-0.1,0.3v1.6l0.1,0.2l0.4,0.6l3,6.7l1.6,4.9l0.2,1.4l0.8,3.6v1.1l0.3,2.6l-0.4,6.7
		l-0.5,1.8v0.7l0.1,0.3v0.3l0.1,0.2l0.2,0.1l0.2,0.2l0.1,0.2h0.3l0.2,0.1h0.3l0.4-0.1l10.9-6.3v-0.1h0.1l0.1-0.1l0.1-0.1l0.2-0.1
		l0.2-0.3l0.1-0.2l0.2-0.1l0.6-0.8l0.1-0.7l0.7-1.7l0.7-3.7l-0.6-10.6v-0.6l-0.2-0.5l-0.7-3l-2.6-7.4l-1.8-3.6l-0.9-0.8L412,468.1
		L412,468.1z M416.1,502.7l0.2-0.1"/>
	<path id="Layer3_5_MEMBER_102_1_STROKES" class="st10" d="M498.1,376.6l-148.2,85.5l-9.2,7.8l-11.5,14.5l-32.6,46.5L291,541
		l-1.5,3.4l-1.1,4.4l-0.1,3.3l0.4,3.2l0.6,1.3l0.7,0.7l0.8,0.5l1.1,0.3l1.4,0.2l3.7-0.2l8.5-1.8l40.7-13l17.4-8.1L529.1,440"/>
	<path id="Layer3_5_MEMBER_103_1_STROKES" class="st8" d="M406.5,221.2l7.7-2.1"/>
	<path id="Layer3_5_MEMBER_104_1_STROKES" class="st10" d="M526.2,341.1l-6.1,4.3l-1.9,2L518,348l-0.3,0.5l-0.5,1.5l-0.4,4l0.1,0.7
		v0.7l0.1,0.8l-0.6,3.4l-0.3,0.8l-0.2,0.9l-0.7,1.7l-0.8,1.5l-1.6,2.1l-0.6,0.5l-0.5,0.7l-13.9,8.8"/>
	<path id="Layer3_5_MEMBER_105_1_STROKES" class="st10" d="M464.5,456.9l-0.4,0.2l-1.4,0.7l-0.6,0.4l-0.3,0.3l-0.4,0.2l-0.2,0.2
		l-0.2,0.4l-0.1,0.1v0.6l-0.1,0.1l0.1,0.1v0.8l0.1,0.3l0.3,2.1v1.6l0.1-0.4v0.7l0.2,0.4l0.1,0.1l0.1,0.2l0.1,0.1l0.1,0.2h0.2
		l0.2,0.1h0.6l0.2-0.1h0.2l0.2-0.1l0.3-0.2l1-0.6l0.7-0.6l0.2-0.2l0.2-0.1l0.1-0.1l0.1-0.2v-0.1l0.1-0.2l0.1-0.1v-0.1h0.1v-0.2
		l0.1-0.2v-0.2l0.1-0.2v-1.2l-0.1-0.5V461l-0.4-2.7v-0.7l-0.1-0.1v-0.1l-0.1-0.1l-0.1-0.2l-0.1-0.1h-0.1l-0.2-0.1l-0.1-0.1
		L464.5,456.9L464.5,456.9z"/>
	<path id="Layer3_5_MEMBER_106_1_STROKES" class="st10" d="M456.6,465.5l-0.2-1.4l-0.1-0.3v-0.3l-0.1-0.2v-0.1L456,463l-0.1-0.1
		h-0.1l-0.1-0.1h-0.1l-0.1-0.1h-0.7l-0.1,0.1l-0.2,0.1h-0.3l-0.3,0.2l-0.6,0.3l-0.6,0.5l-0.6,0.2l-0.3,0.3l-0.3,0.1l-0.1,0.2
		l-0.3,0.3v0.2l-0.1,0.1l-0.1,0.2v0.1l-0.1,0.1v0.7l0.1,0.2v0.2l0.1,0.2v0.5l0.2,1.3"/>
	<path id="Layer3_5_MEMBER_107_1_STROKES" class="st10" d="M454,471.7l0.5-0.2l0.5-0.4l0.6-0.3l0.3-0.2l0.6-0.6"/>
	<path id="Layer3_5_MEMBER_108_1_STROKES" class="st8" d="M524.9,284.7l61.3,35.4"/>
	<path id="Layer3_5_MEMBER_109_1_STROKES" class="st8" d="M624.3,341.7l56.8,32.8"/>
	<path id="Layer3_5_MEMBER_110_1_STROKES" class="st8" d="M339.1,172.4l3.2-1.9"/>
	<path id="Layer3_5_MEMBER_111_1_STROKES" class="st8" d="M356.9,182.6l3-1.8"/>
	<path id="Layer3_5_MEMBER_112_1_STROKES" class="st8" d="M831.8,456.5l2.8-1.6"/>
	<path id="Layer3_5_MEMBER_113_1_STROKES" class="st8" d="M849.7,466.8l2.9-1.6"/>
	<path id="Layer3_5_MEMBER_114_1_STROKES" class="st8" d="M339.1,172.4l36.2,20.8"/>
	<path id="Layer3_5_MEMBER_115_1_STROKES" class="st8" d="M831.8,456.5l17.9,10.4"/>
	<path id="Layer2_0_MEMBER_0_1_STROKES" class="st12" d="M321.8,161.6l109.4-49"/>
	<path id="Layer2_0_MEMBER_1_1_STROKES" class="st13" d="M744.7,412.6l88.1-24.9"/>
	<path id="Layer2_0_MEMBER_2_1_STROKES" class="st13" d="M847.9,33.3l125.8,15.9"/>
	<path id="Layer2_0_MEMBER_3_1_STROKES" class="st13" d="M973.7,49.3l-50.4,27.8"/>
	<path id="Layer2_0_MEMBER_4_1_STROKES" class="st13" d="M885.2,160.9l89.4,41.9"/>
	<path id="Layer2_0_MEMBER_5_1_STROKES" class="st13" d="M832.8,387.7l-51.3,45.5"/>
	<path id="Layer2_0_MEMBER_6_1_STROKES" class="st13" d="M390.5,209.2l99.7-52.1L440.9,240"/>
	<path id="Layer2_0_MEMBER_7_1_STROKES" class="st13" d="M484.9,256l87.6-56.6"/>
	<path id="Layer2_0_MEMBER_8_1_STROKES" class="st13" d="M726,394.7l73.9-49.1"/>
	<path id="Layer2_0_MEMBER_9_1_STROKES" class="st13" d="M639.3,347.1l-9.2-92.1"/>
	<path id="Layer2_0_MEMBER_10_1_STROKES" class="st13" d="M564.8,303.5l65.3-48.4"/>
	<path id="Layer2_0_MEMBER_11_1_STROKES" class="st12" d="M869.5,477.2l35.7-27.2"/>
	<text transform="matrix(1 0 0 1 981.239 208.885)" class="st14 st15">Rudder</text>
	<text transform="matrix(1 0 0 1 803.44 348.996)" class="st14 st15">Outboard Flaps</text>
	<text transform="matrix(1 0 0 1 839.355 391.56)" class="st14 st15">Spoilers</text>
	<text transform="matrix(1 0 0 1 911.183 452.305)" class="st14 st15">Aileron with Geared Tab</text>
	<text transform="matrix(1 0 0 1 601.255 248.79)" class="st14 st15">Inboard Flaps</text>
	<text transform="matrix(1 0 0 1 578.199 203.565)" class="st14 st15">Outboard Flaps</text>
	<text transform="matrix(1 0 0 1 494.399 161.886)" class="st14 st15">Spoilers</text>
	<text transform="matrix(1 0 0 1 437.645 105.132)" class="st14 st15">Aileron with Geared Tab and</text>
	<text transform="matrix(1 0 0 1 437.645 124.332)" class="st14 st15">Ground Adjustable Tab</text>
	<text transform="matrix(1 0 0 1 976.805 54.143)" class="st14 st15">Elevator</text>
	<text transform="matrix(1 0 0 1 507.814 522.254)" class="st14 st15">Flight Control</text>
	<text transform="matrix(1 0 0 1 507.814 541.454)" class="st14 st15">Electronic Unit</text>
</g>
</svg>
