<?xml version="1.0" encoding="utf-8"?>
<!-- Generator: Adobe Illustrator 24.3.0, SVG Export Plug-In . SVG Version: 6.00 Build 0)  -->
<svg version="1.1" id="pseu" xmlns="http://www.w3.org/2000/svg" xmlns:xlink="http://www.w3.org/1999/xlink" x="0px" y="0px"
	 viewBox="0 0 769.3 606.8" style="enable-background:new 0 0 769.3 606.8;" xml:space="preserve">
<g id="clp-hintergrund">
	<path style="fill:#4E4A49;" d="M540.3,78.4H234.7v492.8h305.6V78.4z"/>
	<path style="fill:#383431;" d="M244.3,461.7c2.2,1,6,2,11.4,3.1h72.9c4.7-0.7,9,0.3,12.7,3c3.3,2.5,4.7,5,4.2,7.6l0.2,6.7
		c0.1,3.9,1.8,7.5,5.2,10.6c3.4,3.1,6.5,4.2,9.5,3.3l50.2-0.4c6.8,0,11.8-1.6,15.2-4.7c2.7-2.5,4-5.4,3.9-8.9
		c-0.1-4.9,0.6-8.7,2.1-11.4c2.1-3.7,5.9-5.6,11.3-5.8c5.4-0.2,14.5,0,27.2,0.5c10.9,0.4,19.1,0.7,24.7,0.8c9.3,0,17.6-0.5,24.8-1.4
		c4.6-0.6,7.9-1.3,9.8-2.1c1.5-0.6,3.6-2,6.5-4.3c1.6-1.2,2.9-2.2,4-3v-377H234.7c0,31,0,69.4,0,115.3l-0.2,216.7
		c-0.1,27.2-0.1,41.8,0,43.8C237.8,457.7,241,460.2,244.3,461.7z"/>
	<path style="fill:#4E4A49;" d="M406.8,443.5c-4.9-5-10.9-7.4-17.9-7.4c-6.9,0-12.9,2.5-17.8,7.4c-5,4.9-7.4,10.9-7.4,17.8
		c0,7,2.5,12.9,7.4,17.8s10.9,7.4,17.8,7.4c7,0,13-2.5,17.9-7.4s7.4-10.9,7.4-17.8C414.2,454.4,411.8,448.5,406.8,443.5z"/>
	<path style="fill:#201B18;" d="M388.9,474.1c3.6,0,6.6-1.2,9-3.7s3.7-5.5,3.7-9s-1.2-6.5-3.7-9.1c-2.5-2.5-5.5-3.7-9-3.7
		s-6.5,1.2-9.1,3.7c-2.5,2.5-3.7,5.6-3.7,9.1c0,3.6,1.2,6.6,3.7,9C382.4,472.8,385.4,474.1,388.9,474.1z"/>
	<path style="fill:#848382;" d="M397.1,469.5c2.2-2.2,3.4-4.9,3.4-8.1s-1.1-5.9-3.4-8.2c-2.3-2.3-5-3.5-8.2-3.5
		c-3.1,0-5.9,1.2-8.2,3.5s-3.5,5-3.5,8.2s1.2,5.9,3.5,8.1c2.3,2.3,5,3.4,8.2,3.4S394.9,471.7,397.1,469.5z"/>
	<path style="fill:#C3C1C1;" d="M391.4,458.9c-0.7-0.7-1.5-1-2.4-1s-1.8,0.3-2.5,1s-1,1.5-1,2.5s0.3,1.8,1,2.4c0.7,0.7,1.5,1,2.5,1
		s1.8-0.3,2.4-1c0.7-0.7,1.1-1.5,1.1-2.4C392.4,460.4,392.1,459.5,391.4,458.9z"/>
	<path style="fill:#383431;" d="M370,442.4c1.4-1.4,2-3.1,2-5s-0.7-3.6-2-5c-1.4-1.4-3.1-2-5-2s-3.6,0.7-5,2c-1.4,1.4-2,3.1-2,5
		c0,2,0.7,3.7,2,5c1.5,1.4,3.2,2.1,5,2.1C367,444.5,368.6,443.8,370,442.4z"/>
	<path style="fill:#524D5A;" d="M368.9,441.2c1.1-1,1.6-2.3,1.6-3.8s-0.5-2.8-1.6-3.9s-2.4-1.6-3.9-1.6s-2.8,0.5-3.8,1.6
		c-1.1,1.1-1.7,2.4-1.7,3.9c0,1.6,0.5,2.8,1.7,3.8c1.1,1.1,2.3,1.7,3.8,1.7C366.6,442.9,367.9,442.3,368.9,441.2z"/>
	<path style="fill:#C3C1C1;" d="M361.7,434c1-1,2.1-1.4,3.4-1.4s2.5,0.5,3.6,1.4c0.9,0.9,1.4,2,1.5,3.5c0.1-1.5-0.4-2.7-1.4-3.8
		c-1-1-2.2-1.5-3.7-1.5c-1.4,0-2.7,0.5-3.7,1.5c-1.1,1-1.7,2.3-1.7,3.8c0,1.4,0.5,2.7,1.7,3.7c1,1,2.3,1.5,3.7,1.5
		c-1.4-0.1-2.5-0.7-3.4-1.7s-1.4-2.2-1.4-3.5C360.3,436.1,360.8,435,361.7,434z"/>
	<path style="fill:#4E4A49;" d="M364.2,442.4h1.5v-10.2h-1.5V442.4z"/>
	<path style="fill:#4E4A49;" d="M370.1,436.6H360v1.5h10.1V436.6z"/>
	<path style="fill:#201B18;" d="M364.8,437.2l-0.3-4.9l-0.2,0.1l0.1,4.3l-4.2-0.1l-0.1,0.2L364.8,437.2z"/>
	<path style="fill:#DEDEDD;" d="M365.4,437.7l0.2,4.8h0.2v-4.3h4.2l0.1-0.1L365.4,437.7z"/>
	<path style="fill:#383431;" d="M409.4,432.4c-1.4,1.4-2.1,3.1-2.1,5c0,2,0.7,3.7,2.1,5c1.4,1.4,3.1,2.1,5.1,2.1
		c1.9,0,3.5-0.7,5-2.1s2.1-3.1,2.1-5s-0.7-3.6-2.1-5s-3.1-2-5-2C412.5,430.3,410.8,431,409.4,432.4z"/>
	<path style="fill:#524D5A;" d="M410.6,441.2c1.1,1.1,2.4,1.7,3.9,1.7s2.8-0.6,3.8-1.7c1.1-1.1,1.7-2.3,1.7-3.8s-0.5-2.8-1.7-3.9
		c-1.1-1.1-2.3-1.6-3.8-1.6s-2.8,0.5-3.9,1.6s-1.6,2.4-1.6,3.9C409,438.9,409.5,440.2,410.6,441.2z"/>
	<path style="fill:#C3C1C1;" d="M411.1,434c1-1,2.1-1.4,3.5-1.4c1.3,0,2.5,0.5,3.5,1.4c0.9,0.9,1.4,2,1.6,3.5c0-1.5-0.4-2.7-1.4-3.8
		c-1-1-2.3-1.5-3.8-1.5c-1.4,0-2.7,0.5-3.7,1.5c-1.1,1-1.6,2.3-1.6,3.8c0,1.4,0.5,2.7,1.6,3.7c1,1,2.3,1.5,3.7,1.5
		c-1.4-0.1-2.5-0.7-3.5-1.7s-1.5-2.2-1.5-3.5C409.6,436.1,410.1,435,411.1,434z"/>
	<path style="fill:#4E4A49;" d="M413.6,442.4h1.6v-10.2h-1.6V442.4z"/>
	<path style="fill:#4E4A49;" d="M409.4,436.6v1.5h10.1v-1.5H409.4z"/>
	<path style="fill:#201B18;" d="M414.2,437.2l-0.5-4.9l-0.1,0.1l0.1,4.3l-4.2-0.1l-0.1,0.2L414.2,437.2z"/>
	<path style="fill:#DEDEDD;" d="M414.9,437.7l0.2,4.8h0.2v-4.3h4l0.2-0.1L414.9,437.7z"/>
	<path style="fill:#383431;" d="M369.7,490.8c1.4-1.4,2.1-3.1,2.1-5s-0.7-3.6-2.1-5s-3-2.1-5-2.1s-3.6,0.7-5,2.1s-2.1,3-2.1,5
		c0,1.9,0.7,3.6,2.1,5s3.1,2.1,5,2.1S368.4,492.2,369.7,490.8z"/>
	<path style="fill:#524D5A;" d="M368.7,489.6c1.1-1.1,1.6-2.4,1.6-3.9s-0.5-2.8-1.6-3.9s-2.4-1.6-3.9-1.6s-2.8,0.5-3.9,1.6
		s-1.6,2.4-1.6,3.9c0,1.6,0.5,2.9,1.6,3.9c1.1,1.1,2.4,1.6,3.9,1.6C366.3,491.3,367.6,490.7,368.7,489.6z"/>
	<path style="fill:#C3C1C1;" d="M368.4,482.4c0.9,0.9,1.4,2,1.6,3.5c0.1-1.4-0.4-2.7-1.4-3.7s-2.3-1.5-3.7-1.5
		c-1.5,0-2.7,0.5-3.7,1.5c-1.1,1-1.7,2.3-1.7,3.7c0,1.4,0.5,2.7,1.7,3.7c1,1,2.2,1.4,3.7,1.4c-1.4-0.1-2.6-0.6-3.5-1.5
		c-1-1-1.5-2.2-1.5-3.5s0.5-2.5,1.5-3.5s2.2-1.5,3.5-1.5C366.2,480.9,367.4,481.4,368.4,482.4z"/>
	<path style="fill:#4E4A49;" d="M364,490.8h1.5v-10.1H364V490.8z"/>
	<path style="fill:#4E4A49;" d="M369.8,484.9h-10.1v1.6h10.1V484.9z"/>
	<path style="fill:#201B18;" d="M364.5,485.6l-0.5-4.9l0,0v4.3h-4.2v0.1L364.5,485.6z"/>
	<path style="fill:#DEDEDD;" d="M365.1,486.1l0.3,4.8l0.1-0.1v-4.2h4.2h0.1L365.1,486.1z"/>
	<path style="fill:#383431;" d="M409.2,480.8c-1.4,1.4-2.1,3-2.1,5c0,1.9,0.7,3.6,2.1,5s3,2.1,5,2.1c1.9,0,3.6-0.7,5-2.1s2-3.1,2-5
		s-0.7-3.6-2-5c-1.4-1.4-3.1-2.1-5-2.1C412.2,478.7,410.6,479.4,409.2,480.8z"/>
	<path style="fill:#524D5A;" d="M410.3,489.6c1.1,1.1,2.4,1.6,3.9,1.6s2.8-0.5,3.9-1.6s1.6-2.4,1.6-3.9s-0.5-2.8-1.6-3.9
		s-2.4-1.6-3.9-1.6s-2.8,0.5-3.9,1.6s-1.6,2.4-1.6,3.9C408.7,487.3,409.3,488.6,410.3,489.6z"/>
	<path style="fill:#C3C1C1;" d="M418,482.1c-1-1-2.3-1.5-3.7-1.5c-1.5,0-2.8,0.5-3.8,1.5s-1.5,2.3-1.5,3.7c0,1.4,0.5,2.7,1.5,3.7
		s2.3,1.4,3.8,1.4c-1.4-0.1-2.6-0.6-3.5-1.5c-0.9-1-1.4-2.2-1.4-3.5s0.5-2.5,1.4-3.5c1-1,2.1-1.5,3.5-1.5c1.3,0,2.5,0.5,3.5,1.5
		c0.9,0.9,1.5,2,1.5,3.5C419.5,484.4,419,483.2,418,482.1z"/>
	<path style="fill:#4E4A49;" d="M413.3,490.8h1.7v-10.1h-1.7V490.8z"/>
	<path style="fill:#4E4A49;" d="M409.2,484.9v1.6h10.1v-1.6H409.2z"/>
	<path style="fill:#201B18;" d="M414,485.6l-0.5-4.9h-0.1l0.1,4.3h-4.2l-0.1,0.1L414,485.6z"/>
	<path style="fill:#DEDEDD;" d="M414.6,486.1l0.3,4.8l0.1-0.1v-4.2h4.1h0.2L414.6,486.1z"/>
	<path style="fill:#383431;" d="M467.4,217.5l-158.7,0.2l0.1,116.3l158.6-0.2L467.4,217.5L467.4,217.5z"/>
	<path style="fill:#4E4A49;" d="M309.7,218.8v114h156.7v-114L309.7,218.8L309.7,218.8z"/>
	<path style="fill:#201B18;" d="M357.1,236.8c0-3.1-1.1-4.8-3.4-4.9l-34.5-0.2c-2.2,0-3.4,1.6-3.5,4.9l-0.1,30
		c-0.1,3.2,1.1,4.8,3.5,4.8l34.5,0.2c2.2,0,3.4-1.6,3.5-4.8V236.8z"/>
	<path style="fill:#737170;" d="M357.1,237.3c0-1.4-0.3-2.7-1-3.9c-0.8-1.3-1.6-1.6-2.3-0.9l-37.6,34.1c-0.8,0.7-0.6,1.6,0.4,2.9
		c1,1.2,2,1.8,3,1.8l34.1,0.2c2.2,0.1,3.3-1.5,3.4-4.7V237.3z"/>
	<path style="fill:#4E4A49;" d="M356.5,237.2c0-3.1-1.1-4.7-3.4-4.7l-33.4-0.2c-2.2,0-3.3,1.6-3.4,4.7l-0.1,29
		c-0.1,3.1,0.9,4.7,3.2,4.7l33.5,0.2c2.2,0.1,3.3-1.5,3.3-4.7L356.5,237.2z"/>
	<path style="fill:#201B18;" d="M407.3,236.8c0-3.1-1.1-4.8-3.5-4.9l-34.5-0.2c-2.3,0-3.5,1.6-3.5,4.9l-0.2,30
		c0,3.2,1.1,4.8,3.4,4.8l34.6,0.2c2.3,0,3.4-1.6,3.4-4.8L407.3,236.8z"/>
	<path style="fill:#737170;" d="M407.3,237.3c0-1.4-0.4-2.7-1.1-3.9c-0.8-1.3-1.5-1.6-2.2-0.9l-37.7,34.1c-0.7,0.7-0.6,1.6,0.5,2.9
		c1,1.2,2,1.8,3,1.8l34,0.2c2.3,0.1,3.4-1.5,3.4-4.7L407.3,237.3z"/>
	<path style="fill:#4E4A49;" d="M406.6,237.2c0-3.1-1.1-4.7-3.3-4.7l-33.5-0.2c-2.2,0-3.3,1.6-3.3,4.7l-0.2,29
		c0,3.1,1.1,4.7,3.4,4.7l33.4,0.2c2.2,0.1,3.4-1.5,3.4-4.7L406.6,237.2z"/>
	<path style="fill:#201B18;" d="M416,236.6l-0.2,30c0,3.2,1.1,4.8,3.4,4.8l34.5,0.2c2.4,0,3.5-1.6,3.5-4.8l0.2-29.9
		c0-3.1-1.2-4.8-3.5-4.9l-34.5-0.2C417.2,231.7,416,233.4,416,236.6z"/>
	<path style="fill:#737170;" d="M416.4,266.7c-0.7,0.7-0.6,1.6,0.4,2.9c1,1.2,1.9,1.8,2.9,1.8l34.1,0.2c2.3,0.1,3.5-1.5,3.5-4.7
		l0.2-29.6c0-1.4-0.4-2.7-1.1-3.9c-0.8-1.3-1.6-1.6-2.3-0.9L416.4,266.7z"/>
	<path style="fill:#4E4A49;" d="M416.7,237l-0.2,29c0,3.1,1.1,4.7,3.3,4.7l33.5,0.2c2.2,0.1,3.3-1.5,3.3-4.7l0.2-29
		c0-3.1-1.1-4.7-3.3-4.7l-33.5-0.2C417.8,232.3,416.7,233.8,416.7,237z"/>
	<path style="fill:#201B18;" d="M357.1,284.7c0-3.3-1.1-4.9-3.4-4.9l-34.5-0.2c-2.2,0-3.4,1.6-3.5,4.8l-0.1,29.9
		c-0.1,3.3,1.1,4.9,3.5,4.9l34.5,0.2c2.2,0,3.4-1.6,3.5-4.8V284.7z"/>
	<path style="fill:#737170;" d="M357.1,285.3c0-1.4-0.3-2.7-1-3.9c-0.8-1.3-1.6-1.6-2.3-0.9l-37.6,34.1c-0.8,0.7-0.6,1.7,0.4,3
		c1,1.2,2,1.8,3,1.8l34.1,0.1c2.2,0,3.3-1.6,3.4-4.7V285.3z"/>
	<path style="fill:#4E4A49;" d="M356.5,285.1c0-3.1-1.1-4.7-3.4-4.7l-33.4-0.2c-2.2,0-3.3,1.5-3.4,4.6l-0.1,29
		c-0.1,3.1,0.9,4.7,3.2,4.7l33.5,0.2c2.2,0,3.3-1.5,3.3-4.6L356.5,285.1z"/>
	<path style="fill:#201B18;" d="M369.4,279.7c-2.3,0-3.5,1.6-3.5,4.8l-0.2,29.9c0,3.3,1.1,4.9,3.4,4.9l34.6,0.2
		c2.3,0,3.4-1.6,3.4-4.8l0.2-30c0-3.3-1.1-4.9-3.5-4.9L369.4,279.7z"/>
	<path style="fill:#737170;" d="M407.3,285.3c0-1.4-0.4-2.7-1.1-3.9c-0.8-1.3-1.5-1.6-2.2-0.9l-37.7,34.1c-0.7,0.7-0.6,1.7,0.5,3
		c1,1.2,2,1.8,3,1.8l34,0.1c2.3,0,3.4-1.6,3.4-4.7L407.3,285.3z"/>
	<path style="fill:#4E4A49;" d="M369.8,280.2c-2.2,0-3.3,1.5-3.3,4.6l-0.2,29c0,3.1,1.1,4.7,3.4,4.7l33.4,0.2c2.2,0,3.4-1.5,3.4-4.6
		l0.1-29c0-3.1-1.1-4.7-3.3-4.7L369.8,280.2z"/>
	<path style="fill:#201B18;" d="M457.5,284.7c0-3.3-1.2-4.9-3.5-4.9l-34.5-0.2c-2.3,0-3.5,1.6-3.5,4.8l-0.2,29.9
		c0,3.3,1.1,4.9,3.4,4.9l34.5,0.2c2.4,0,3.5-1.6,3.5-4.8L457.5,284.7z"/>
	<path style="fill:#737170;" d="M457.5,285.3c0-1.4-0.4-2.7-1.1-3.9c-0.8-1.3-1.6-1.6-2.3-0.9l-37.6,34.1c-0.7,0.7-0.6,1.7,0.4,3
		c1,1.2,1.9,1.8,2.9,1.8l34.1,0.1c2.3,0,3.5-1.6,3.5-4.7L457.5,285.3z"/>
	<path style="fill:#4E4A49;" d="M453.5,280.4l-33.5-0.2c-2.2,0-3.3,1.5-3.3,4.6l-0.2,29c0,3.1,1.1,4.7,3.3,4.7l33.5,0.2
		c2.2,0,3.3-1.5,3.3-4.6l0.2-29C456.8,281.9,455.7,280.4,453.5,280.4z"/>
	<path style="fill:#737170;" d="M481.9,240.9c1.4-1.3,2.1-3,2.1-4.9s-0.7-3.5-2.1-4.8c-1.3-1.4-3-2.1-4.9-2.1s-3.5,0.7-4.9,2.1
		c-1.4,1.4-2.1,3-2.1,4.8c0,1.9,0.7,3.6,2.1,4.9c1.4,1.4,3,2.1,4.9,2.1S480.6,242.3,481.9,240.9z"/>
	<path style="fill:#383431;" d="M481,239.9c1-1,1.5-2.3,1.5-3.7s-0.5-2.7-1.5-3.7c-1.1-1.1-2.4-1.6-3.8-1.6c-1.5,0-2.7,0.5-3.7,1.6
		c-1,1-1.5,2.3-1.5,3.7s0.5,2.7,1.5,3.7s2.2,1.5,3.7,1.5C478.6,241.4,479.9,240.9,481,239.9z"/>
	<path style="fill:#524D5A;" d="M480.1,239.1c0.8-0.8,1.2-1.8,1.2-2.9s-0.4-2.1-1.2-2.9c-0.8-0.8-1.8-1.2-2.9-1.2
		c-1.2,0-2.1,0.4-2.9,1.2s-1.2,1.8-1.2,2.9s0.4,2.1,1.2,2.9c0.8,0.8,1.7,1.1,2.9,1.1C478.3,240.2,479.3,239.8,480.1,239.1z"/>
	<path style="fill:#C3C1C1;" d="M473.4,236.3c0,1.1,0.4,2,1.2,2.7c0.7,0.7,1.6,1.1,2.8,1c-1-0.1-1.9-0.5-2.5-1.2
		c-0.7-0.7-1.1-1.5-1.1-2.5s0.4-1.9,1.1-2.6c0.7-0.7,1.5-1,2.5-1s1.8,0.3,2.6,1c0.7,0.7,1.1,1.6,1.2,2.6c0-1.1-0.3-2-1.1-2.8
		c-0.7-0.8-1.6-1.2-2.7-1.2s-2,0.4-2.8,1.2C473.8,234.2,473.4,235.2,473.4,236.3z"/>
	<path style="fill:#4E4A49;" d="M476.5,240h1.2v-7.6h-1.2V240z"/>
	<path style="fill:#4E4A49;" d="M481,235.5h-7.6v1.2h7.6V235.5z"/>
	<path style="fill:#201B18;" d="M477,236l-0.2-3.6h-0.1v3.2h-3.1l-0.1,0.1L477,236z"/>
	<path style="fill:#DEDEDD;" d="M477.4,236.4l0.3,3.6l0,0v-3.2h3.1l0.1-0.1L477.4,236.4z"/>
	<path style="fill:#737170;" d="M477,319.3c1.9,0,3.6-0.7,4.9-2.1c1.4-1.3,2.1-2.9,2.1-4.8s-0.7-3.5-2.1-4.9c-1.3-1.4-3-2.1-4.9-2.1
		s-3.5,0.7-4.9,2.1s-2.1,3-2.1,4.9s0.7,3.5,2.1,4.8C473.5,318.6,475.1,319.3,477,319.3z"/>
	<path style="fill:#383431;" d="M481,316.2c1-1,1.5-2.2,1.5-3.7s-0.5-2.8-1.5-3.8c-1.1-1-2.4-1.5-3.8-1.5c-1.5,0-2.7,0.5-3.7,1.5
		s-1.5,2.3-1.5,3.8s0.5,2.7,1.5,3.7s2.2,1.5,3.7,1.5C478.6,317.7,479.9,317.2,481,316.2z"/>
	<path style="fill:#524D5A;" d="M480.1,315.4c0.8-0.8,1.2-1.7,1.2-2.9c0-1.1-0.4-2.1-1.2-2.9c-0.8-0.8-1.8-1.2-2.9-1.2
		c-1.2,0-2.1,0.4-2.9,1.2c-0.8,0.8-1.2,1.8-1.2,2.9c0,1.2,0.4,2.1,1.2,2.9c0.8,0.8,1.7,1.2,2.9,1.2
		C478.3,316.6,479.3,316.2,480.1,315.4z"/>
	<path style="fill:#C3C1C1;" d="M481.1,312.5c0-1.1-0.3-2-1.1-2.7c-0.7-0.8-1.6-1.1-2.7-1.1s-2,0.4-2.8,1.1s-1.2,1.6-1.2,2.7
		s0.4,2,1.2,2.8c0.7,0.7,1.6,1.1,2.8,1c-1-0.1-1.9-0.5-2.5-1.1c-0.7-0.7-1.1-1.6-1.1-2.7c0-1,0.4-1.8,1.1-2.5s1.6-1.1,2.5-1.1
		s1.8,0.4,2.6,1.1C480.6,310.6,481,311.5,481.1,312.5z"/>
	<path style="fill:#4E4A49;" d="M476.5,316.2h1.2v-7.5h-1.2V316.2z"/>
	<path style="fill:#4E4A49;" d="M481,311.9h-7.6v1.1h7.6V311.9z"/>
	<path style="fill:#201B18;" d="M477,312.3l-0.2-3.7h-0.1v3.2h-3.1l-0.1,0.1L477,312.3z"/>
	<path style="fill:#DEDEDD;" d="M477.4,312.7l0.3,3.6v-0.1V313h3.1l0.1-0.1L477.4,312.7z"/>
	<path style="fill:#737170;" d="M302.7,240.9c1.3-1.3,1.9-3,1.9-4.9s-0.6-3.5-1.9-4.8c-1.4-1.4-3.1-2.1-5-2.1s-3.5,0.7-4.9,2.1
		c-1.3,1.3-2,2.9-2,4.8c0,1.9,0.7,3.6,2,4.9c1.4,1.4,3,2.1,4.9,2.1S301.3,242.3,302.7,240.9z"/>
	<path style="fill:#383431;" d="M301.7,239.9c1-1,1.5-2.3,1.5-3.7s-0.5-2.7-1.5-3.7c-1-1.1-2.3-1.6-3.7-1.6c-1.5,0-2.7,0.5-3.8,1.6
		c-1.1,1-1.6,2.3-1.6,3.7s0.5,2.7,1.6,3.7c1,1,2.3,1.5,3.8,1.5C299.4,241.4,300.7,240.9,301.7,239.9z"/>
	<path style="fill:#524D5A;" d="M300.8,239.1c0.8-0.8,1.2-1.8,1.2-2.9s-0.4-2.1-1.2-2.9c-0.8-0.8-1.7-1.2-2.8-1.2
		c-1.2,0-2.1,0.4-2.9,1.2c-0.9,0.8-1.3,1.8-1.3,2.9s0.4,2.1,1.3,2.9c0.8,0.8,1.7,1.1,2.9,1.1C299.1,240.2,300.1,239.8,300.8,239.1z"
		/>
	<path style="fill:#C3C1C1;" d="M300.8,233.5c-0.8-0.8-1.7-1.2-2.8-1.2c-1,0-2,0.4-2.8,1.2s-1.2,1.7-1.2,2.8c0,1,0.4,1.9,1.2,2.7
		c0.8,0.7,1.7,1.1,2.8,1c-1-0.1-1.9-0.5-2.5-1.2c-0.7-0.7-1.1-1.5-1.1-2.5s0.4-1.9,1.1-2.6c0.7-0.7,1.5-1,2.5-1s1.9,0.3,2.6,1
		s1.1,1.6,1.2,2.6C301.8,235.2,301.5,234.2,300.8,233.5z"/>
	<path style="fill:#4E4A49;" d="M297.3,240h1.2v-7.6h-1.2V240z"/>
	<path style="fill:#4E4A49;" d="M301.7,236.7v-1.2h-7.5v1.2H301.7z"/>
	<path style="fill:#201B18;" d="M297.7,236l-0.2-3.6h-0.1l0.1,3.2h-3.2v0.1L297.7,236z"/>
	<path style="fill:#DEDEDD;" d="M298.2,236.4l0.2,3.6l0,0v-3.2h3.2v-0.1L298.2,236.4z"/>
	<path style="fill:#737170;" d="M302.7,317.2c1.3-1.3,1.9-2.9,1.9-4.8s-0.6-3.6-1.9-4.9c-1.4-1.4-3.1-2.1-5-2.1s-3.5,0.7-4.9,2.1
		c-1.3,1.3-2,3-2,4.9s0.7,3.5,2,4.8c1.4,1.4,3,2.1,4.9,2.1C299.6,319.3,301.3,318.6,302.7,317.2z"/>
	<path style="fill:#383431;" d="M301.7,316.2c1-1,1.5-2.2,1.5-3.7s-0.5-2.8-1.5-3.8s-2.3-1.5-3.7-1.5c-1.5,0-2.7,0.5-3.8,1.5
		c-1.1,1-1.6,2.3-1.6,3.8s0.5,2.7,1.6,3.7c1,1,2.3,1.5,3.8,1.5C299.4,317.7,300.7,317.2,301.7,316.2z"/>
	<path style="fill:#524D5A;" d="M300.8,315.4c0.8-0.8,1.2-1.7,1.2-2.9c0-1.1-0.4-2.1-1.2-2.9c-0.8-0.8-1.7-1.2-2.8-1.2
		c-1.2,0-2.1,0.4-2.9,1.2c-0.9,0.8-1.3,1.8-1.3,2.9c0,1.2,0.4,2.1,1.3,2.9c0.8,0.8,1.7,1.2,2.9,1.2
		C299.1,316.6,300.1,316.2,300.8,315.4z"/>
	<path style="fill:#C3C1C1;" d="M300.8,309.8c-0.8-0.8-1.7-1.1-2.8-1.1c-1,0-2,0.4-2.8,1.1s-1.2,1.6-1.2,2.7s0.4,2,1.2,2.8
		c0.8,0.7,1.7,1.1,2.8,1c-1-0.1-1.9-0.5-2.5-1.1c-0.7-0.7-1.1-1.6-1.1-2.7c0-1,0.4-1.8,1.1-2.5s1.6-1.1,2.5-1.1c1,0,1.9,0.4,2.6,1.1
		s1.1,1.5,1.2,2.5C301.8,311.4,301.5,310.5,300.8,309.8z"/>
	<path style="fill:#4E4A49;" d="M297.3,316.2h1.2v-7.5h-1.2V316.2z"/>
	<path style="fill:#4E4A49;" d="M301.7,313v-1.1h-7.5v1.1H301.7z"/>
	<path style="fill:#201B18;" d="M297.7,312.3l-0.2-3.7h-0.1l0.1,3.2h-3.2v0.1L297.7,312.3z"/>
	<path style="fill:#DEDEDD;" d="M298.2,312.7l0.2,3.6v-0.1V313h3.2v-0.1L298.2,312.7z"/>
	<path style="fill:#615E5D;" d="M235,214.2c22.6,0,48.2,0,76.7-0.1l153.1-0.3c28-0.1,53.1-0.1,75.1-0.1l-0.2-83.8
		c-0.1-13.1-0.1-24.4-0.1-33.8L235,96.7V214.2z"/>
	<path style="fill:#4E4A49;" d="M236.4,98v114.9H538V98H236.4z"/>
	<path style="fill:#A9A9A9;" d="M488.8,120.6h-99.5l-143.8,62.9c0.8,0.2,1.8,0.6,3.2,1.2c3.3,1.6,7.1,2.4,11.4,2.5h253.2
		c7.1-0.1,10.6-2.7,10.6-7.9v-53.4C523.8,122.4,512.2,120.6,488.8,120.6z"/>
	<path style="fill:#848382;" d="M245.1,182.4c0,1.4,1.5,2.6,4.6,3.6c2.8,0.9,6,1.3,9.4,1.2L491.8,125l29.1-2.4
		c-4.3-1.2-12.9-1.9-25.6-1.9l-238.7-0.6c-8.4,0-12.3,3.2-11.5,9.7L245.1,182.4L245.1,182.4z"/>
	<path style="fill:#201B18;" d="M255.7,124c-5.2,0-7.9,0.6-7.9,1.7v57.7c0,1.2,2.6,1.8,7.9,1.8H512c5.2,0,7.9-0.6,7.9-1.8v-57.7
		c0-1.1-2.6-1.7-7.9-1.7H255.7z"/>
	
		<path id="Layer11_0_MEMBER_102_1_STROKES" style="fill:none;stroke:#201B18;stroke-width:0.2;stroke-linecap:round;stroke-linejoin:round;" d="
		M255.7,124H512c5.2,0,7.9,0.6,7.9,1.7v57.7c0,1.2-2.6,1.8-7.9,1.8H255.7c-5.2,0-7.9-0.6-7.9-1.8v-57.7
		C247.9,124.5,250.5,124,255.7,124z"/>
	<path style="fill:#383431;" d="M499.2,525.9c-6.4-6.4-14.1-9.6-23-9.6c-9,0-16.7,3.2-23.1,9.6c-6.4,6.4-9.6,14.1-9.6,23
		s3.2,16.6,9.6,23s14.1,9.5,23.1,9.5s16.6-3.2,23-9.5s9.6-14,9.6-23C508.8,540,505.6,532.3,499.2,525.9z"/>
	<path style="fill:#201B18;" d="M493.7,531.4c-4.9-4.9-10.8-7.3-17.5-7.3c-6.8,0-12.7,2.4-17.6,7.3c-4.8,4.8-7.3,10.7-7.2,17.5
		c0,6.8,2.4,12.7,7.2,17.5c4.9,4.8,10.8,7.2,17.6,7.2s12.6-2.4,17.5-7.2c4.9-4.9,7.3-10.7,7.3-17.5
		C501,542.1,498.6,536.2,493.7,531.4z"/>
	<path style="fill:#201B18;" d="M488,527.2c-4.3,1.8-8.6,4.3-12.8,7.7c-3.9-4.2-8.3-7.1-13-8.8c-4.3-1.6-7.4-1.8-9.2-0.6
		c-1.6,1.1-1,4.7,1.6,11c2.7,6.4,6,11.1,9.9,14.1c-4.3,5.3-7.5,9.6-9.4,12.8c-2.8,4.5-3.5,7.4-2.1,8.7c1.7,1.6,4.9,1.1,9.6-1.4
		c4.1-2.2,8.2-5.2,12.4-9c3.8,3.7,8.5,6.8,14,9.2c5.5,2.3,9,2.7,10.5,1.2c1.7-1.6,1.2-4.9-1.3-10c-2.4-4.8-5.6-9.2-9.8-13.3
		c3.8-3.8,6.8-8,9-12.8c2.1-4.6,2.8-8.1,2.1-10.6C496.5,524.7,492.7,525.3,488,527.2z"/>
	<path style="fill:#383431;" d="M320.6,545.9c0-9-3.2-16.7-9.6-23c-6.4-6.4-14.1-9.6-23-9.6c-9,0-16.7,3.2-23.1,9.6
		c-6.4,6.4-9.6,14-9.6,23s3.2,16.7,9.6,23c6.4,6.4,14.1,9.6,23.1,9.6s16.6-3.2,23-9.6C317.4,562.5,320.6,554.8,320.6,545.9z"/>
	<path style="fill:#201B18;" d="M312.8,545.9c0-6.8-2.4-12.7-7.2-17.5c-4.9-4.8-10.7-7.2-17.5-7.2c-6.9,0-12.8,2.4-17.5,7.2
		c-4.9,4.9-7.4,10.7-7.4,17.5s2.5,12.7,7.4,17.5c4.8,4.9,10.7,7.3,17.5,7.3s12.6-2.4,17.5-7.3C310.4,558.5,312.8,552.7,312.8,545.9z
		"/>
	<path style="fill:#201B18;" d="M300.1,545.8c3.8-3.7,6.8-8,9-12.8c2.1-4.6,2.8-8.1,2.1-10.5c-2.8-0.8-6.6-0.3-11.4,1.8
		c-4.2,1.7-8.4,4.2-12.8,7.6c-4-4.1-8.4-7-13.1-8.8c-4.3-1.6-7.4-1.8-9.2-0.6c-1.5,1.1-0.9,4.8,1.7,11c2.7,6.3,6,11,9.8,14.1
		c-4.3,5.2-7.4,9.5-9.4,12.8c-2.8,4.6-3.5,7.5-2.1,8.8c1.7,1.6,4.9,1.1,9.6-1.4c4.1-2.2,8.2-5.2,12.3-9c3.9,3.8,8.6,6.8,14.1,9.2
		c5.5,2.3,9,2.7,10.5,1.2c1.7-1.6,1.3-4.9-1.3-10C307.6,554.4,304.3,549.9,300.1,545.8z"/>
	<g>
		<path style="fill:none;stroke:#E30613;stroke-miterlimit:10;" d="M757,141.2H558c-3.6,0-6.5,2.9-6.5,6.5v16.4
			c0,3.6,2.9,6.5,6.5,6.5h49.5h14h135.4c3.6,0,6.5-2.9,6.5-6.5v-16.4C763.5,144.2,760.5,141.2,757,141.2z"/>
		<path style="fill:#E30613;stroke:#FFFFFF;stroke-miterlimit:10;" d="M542.4,155.7l14.2-7.1v14.5L542.4,155.7z"/>
	</g>
</g>
<g id="clp-system">
	<g>
		<text transform="matrix(1 0 0 1 257.4371 150.4239)" style="fill:#E52521; font-family:'ArialMT'; font-size:19px;">PSC CHAN E  ID</text>
		<text transform="matrix(1 0 0 1 257.4371 173.2239)" style="fill:#E52521; font-family:'ArialMT'; font-size:19px;">DISCRETES</text>
	</g>
	<g>
		
			<path id="Layer6_4_MEMBER_0_1_STROKES" style="fill:none;stroke:#E52521;stroke-width:3;stroke-linecap:round;stroke-linejoin:round;" d="
			M405.7,281.5v35.9h-37.4v-35.9H405.7z"/>
		
			<path id="Layer6_4_MEMBER_1_1_STROKES_1_" style="fill:none;stroke:#E52521;stroke-width:3.5;stroke-linecap:round;stroke-linejoin:round;" d="
			M387,318v29.9"/>
		
			<path id="Layer6_6_MEMBER_1_1_STROKES_1_" style="fill:none;stroke:#E52521;stroke-width:3.5;stroke-linecap:round;stroke-linejoin:round;" d="
			M386.6,348H212.9"/>
	</g>
	<g>
		<path style="fill:#E30613;" d="M226.9,347.8c0-4.4-3.6-8-8-8v16C223.3,355.8,226.9,352.2,226.9,347.8z"/>
	</g>
	<path style="fill:#D8EBFA;stroke:#448ECC;stroke-width:0.75;stroke-miterlimit:10;" d="M215.4,368.6h-185c-2.2,0-4.1-1.8-4.1-4.1
		v-34.7c0-2.2,1.8-4.1,4.1-4.1h185c2.2,0,4.1,1.8,4.1,4.1v34.7C219.5,366.8,217.6,368.6,215.4,368.6z"/>
	<text transform="matrix(1 0 0 1 31.3008 343.9488)" style="fill:#020203; font-family:'ArialMT'; font-size:14px;">PUSH </text>
	<text transform="matrix(1 0 0 1 74.1008 343.9488)" style="fill:#E52521; font-family:'ArialMT'; font-size:14px;">DOWN </text>
	<text transform="matrix(1 0 0 1 122.3008 343.9488)" style="fill:#020203; font-family:'ArialMT'; font-size:14px;">OR NO FOR</text>
	<text transform="matrix(1 0 0 1 31.3008 360.7488)" style="fill:#020203; font-family:'ArialMT'; font-size:14px;">NEXT SENSOR</text>
	<text transform="matrix(1 0 0 1 564.5222 49.8258)" style="fill:#9A9999; font-family:'ArialMT'; font-size:15px;">1 - PRESENT FAULTS</text>
	<text transform="matrix(1 0 0 1 564.5222 77.8258)" style="fill:#9A9999; font-family:'ArialMT'; font-size:15px;">2 - FAULT HISTORY</text>
	<text transform="matrix(1 0 0 1 564.5222 105.8258)" style="fill:#9A9999; font-family:'ArialMT'; font-size:15px;">3 - RIGGING HELP</text>
	<text transform="matrix(1 0 0 1 564.5222 133.8258)" style="fill:#9A9999; font-family:'ArialMT'; font-size:15px;">4 - RIGGING HISTOR</text>
	<text transform="matrix(1 0 0 1 564.5222 161.8258)" style="fill:#E30613; font-family:'ArialMT'; font-size:15px;">5 - SYSTEM STATUSY</text>
	<text transform="matrix(1 0 0 1 564.5222 189.8258)" style="fill:#9A9999; font-family:'ArialMT'; font-size:15px;">6 - FAULT HISTORY ERASE</text>
	<g>
		
			<path id="Layer6_5_1_STROKES" style="fill:none;stroke:#E52922;stroke-width:3.5;stroke-linecap:round;stroke-linejoin:round;" d="
			M212.1,252h105.1"/>
		
			<path id="Layer6_5_MEMBER_0_1_STROKES" style="fill:none;stroke:#E52922;stroke-width:3;stroke-linecap:round;stroke-linejoin:round;" d="
			M355.2,270.1h-37.4v-35.9h37.4V270.1z"/>
	</g>
	<g>
		<path style="fill:#E20E18;" d="M226.9,251.8c0-4.4-3.6-8-8-8v16C223.3,259.8,226.9,256.2,226.9,251.8z"/>
	</g>
	<path style="fill:#D8ECFB;stroke:#458ECD;stroke-width:0.75;stroke-miterlimit:10;" d="M214.8,273.2h-185c-2.2,0-4.1-1.8-4.1-4.1
		v-34.7c0-2.2,1.8-4.1,4.1-4.1h185c2.2,0,4.1,1.8,4.1,4.1v34.7C218.9,271.4,217,273.2,214.8,273.2z"/>
	<text transform="matrix(1 0 0 1 31.3005 247.7901)" style="fill:#030304; font-family:'ArialMT'; font-size:14px;">PUSH </text>
	<text transform="matrix(1 0 0 1 74.1005 247.7901)" style="fill:#E52922; font-family:'ArialMT'; font-size:14px;">MENU </text>
	<text transform="matrix(1 0 0 1 119.2005 247.7901)" style="fill:#030304; font-family:'ArialMT'; font-size:14px;">FOR</text>
	<text transform="matrix(1 0 0 1 148.8005 247.7901)" style="fill:#E52922; font-family:'ArialMT'; font-size:14px;"> </text>
	<text transform="matrix(1 0 0 1 31.3005 264.5902)" style="fill:#030304; font-family:'ArialMT'; font-size:14px;">PSC A STATUS</text>
	<g>
		<text transform="matrix(1 0 0 1 488.4371 173.4239)" style="fill:#E52521; font-family:'ArialMT'; font-size:19px;">01</text>
	</g>
</g>
<g id="clp-btn-no">
	<g>
		<path style="fill:#201B18;" d="M423.5,284.4c-1.8,0-2.7,1.2-2.7,3.7V311c0,2.5,0.9,3.7,2.7,3.7H450c1.8,0,2.7-1.2,2.7-3.7v-22.9
			c0-2.5-0.9-3.7-2.7-3.7H423.5z"/>
		<path style="fill:#737170;" d="M451.9,285.2c-0.7-0.8-1.3-0.8-2.5-0.8h-26c-1.8,0-2.7,1.2-2.7,3.6v22.5c0,1.1,0,2.2,0.6,3.1
			s1.5,1,2.1,0.5L452,287C452.5,286.4,452.3,285.6,451.9,285.2z"/>
		<path style="fill:#383431;" d="M452.2,310.8v-22.1c0-2.4-0.9-3.6-2.6-3.6h-25.5c-1.7,0-2.5,1.2-2.5,3.6v22.1
			c0,2.3,0.9,3.5,2.5,3.5h25.5C451.4,314.3,452.2,313.2,452.2,310.8z"/>
	</g>
	<path style="fill:#FFFFFF;" d="M430.3,297.2l0.5,0.7v0.2l3.8,6.2h1.7v-9.8h-1.4v6.8l-4.1-6.8h-2v9.8h1.5V297.2 M439.1,295.9
		c-0.7,1-1.1,2.2-1,3.6c0,1.4,0.3,2.6,1,3.6s1.7,1.4,3,1.4s2.4-0.5,3.1-1.3c0.8-1,1.1-2.2,1.1-3.7c0-1.4-0.4-2.6-1.1-3.6
		c-0.8-1-1.8-1.5-3-1.5S439.9,294.9,439.1,295.9 M440,299.5c0-2.4,0.7-3.6,2.2-3.6c0.8,0,1.4,0.3,1.7,1c0.4,0.6,0.5,1.5,0.5,2.6
		c0,1.3-0.2,2.3-0.7,2.9c-0.4,0.5-0.9,0.7-1.5,0.7c-0.8,0-1.4-0.3-1.7-0.9C440.2,301.6,440,300.7,440,299.5z"/>
</g>
<g id="clp-btn-yes">
	<g>
		<path style="fill:#201B18;" d="M323.5,284.4c-1.8,0-2.7,1.2-2.7,3.7V311c0,2.5,0.9,3.7,2.7,3.7H350c1.8,0,2.7-1.2,2.7-3.7v-22.9
			c0-2.5-0.9-3.7-2.7-3.7H323.5z"/>
		<path style="fill:#737170;" d="M351.9,285.2c-0.7-0.8-1.3-0.8-2.5-0.8h-26c-1.8,0-2.7,1.2-2.7,3.6v22.5c0,1.1,0,2.2,0.6,3.1
			s1.5,1,2.1,0.5L352,287C352.5,286.4,352.3,285.6,351.9,285.2z"/>
		<path style="fill:#383431;" d="M352.2,310.8v-22.1c0-2.4-0.9-3.6-2.6-3.6h-25.5c-1.7,0-2.5,1.2-2.5,3.6v22.1
			c0,2.3,0.9,3.5,2.5,3.5h25.5C351.4,314.3,352.2,313.2,352.2,310.8z"/>
	</g>
	<path style="fill:#FFFFFF;" d="M332.7,294.4H331l-2.3,4l-2.2-4h-2.2l3.3,5.7v4.1h1.9v-4.1L332.7,294.4 M340.9,297.2
		c0,0.4,0.1,0.8,0.2,1.2c0.1,0.2,0.4,0.5,0.7,0.9l1.5,0.5l1.9,0.5l0.6,0.2l0.2,0.2l0.2,0.1l0.1,0.2l0.1,0.3v0.2c0,0.4-0.2,0.7-0.5,1
		c-0.5,0.2-1,0.3-1.5,0.3c-1.3,0-2.1-0.5-2.5-1.5l-1.7,0.4c0.3,0.8,0.8,1.5,1.5,1.9c0.8,0.4,1.7,0.5,2.6,0.5c1.1,0,2.1-0.3,2.8-0.9
		c0.7-0.5,1.1-1.3,1.1-2.2c0-0.6-0.2-1.1-0.5-1.6c-0.4-0.5-1-0.9-2-1l-1.7-0.5c-0.9-0.2-1.3-0.6-1.3-1.2c0-0.3,0.2-0.6,0.5-0.9
		c0.4-0.2,0.8-0.3,1.2-0.3c0.9,0,1.5,0.4,1.8,1.2l1.8-0.5c-0.2-0.7-0.6-1.2-1.3-1.5c-0.7-0.4-1.5-0.5-2.2-0.5c-1,0-1.9,0.2-2.6,0.7
		C341.3,295.6,340.9,296.3,340.9,297.2 M338.9,300v-1.4h-3.7v-2.7h4.5v-1.5h-6.3v9.8h6.5v-1.5h-4.7V300H338.9z"/>
</g>
<g id="clp-btn-down">
	<g>
		<path style="fill:#201B18;" d="M373.5,284.4c-1.8,0-2.7,1.2-2.7,3.7V311c0,2.5,0.9,3.7,2.7,3.7H400c1.8,0,2.7-1.2,2.7-3.7v-22.9
			c0-2.5-0.9-3.7-2.7-3.7H373.5z"/>
		<path style="fill:#737170;" d="M401.9,285.2c-0.7-0.8-1.3-0.8-2.5-0.8h-26c-1.8,0-2.7,1.2-2.7,3.6v22.5c0,1.1,0,2.2,0.6,3.1
			s1.5,1,2.1,0.5L402,287C402.5,286.4,402.3,285.6,401.9,285.2z"/>
		<path style="fill:#383431;" d="M402.2,310.8v-22.1c0-2.4-0.9-3.6-2.6-3.6h-25.5c-1.7,0-2.5,1.2-2.5,3.6v22.1
			c0,2.3,0.9,3.5,2.5,3.5h25.5C401.4,314.3,402.2,313.2,402.2,310.8z"/>
	</g>
	<path style="fill:#FFFFFF;" d="M389.6,288.5h-4.1v8.1h-4.2l6.2,14l6.2-14h-4.2v-8.1H389.6z"/>
</g>
<g id="clp-btn-up">
	<g>
		<path style="fill:#201B18;" d="M373.5,236.4c-1.8,0-2.7,1.2-2.7,3.7V263c0,2.5,0.9,3.7,2.7,3.7H400c1.8,0,2.7-1.2,2.7-3.7v-22.9
			c0-2.5-0.9-3.7-2.7-3.7L373.5,236.4L373.5,236.4z"/>
		<path style="fill:#737170;" d="M401.9,237.2c-0.7-0.8-1.3-0.8-2.5-0.8h-26c-1.8,0-2.7,1.2-2.7,3.6v22.5c0,1.1,0,2.2,0.6,3.1
			s1.5,1,2.1,0.5L402,239C402.5,238.4,402.3,237.6,401.9,237.2z"/>
		<path style="fill:#383431;" d="M402.2,262.8v-22.1c0-2.4-0.9-3.7-2.6-3.7h-25.5c-1.7,0-2.5,1.2-2.5,3.7v22.1
			c0,2.3,0.9,3.5,2.5,3.5h25.5C401.4,266.3,402.2,265.2,402.2,262.8z"/>
	</g>
	<path style="fill:#FFFFFF;" d="M385.4,262.5h4.1v-8.1h4.2l-6.2-13.9l-6.2,13.9h4.1V262.5z"/>
</g>
<g id="clp-btn-on">
	<g>
		<path style="fill:#201B18;" d="M423.5,236.4c-1.8,0-2.7,1.2-2.7,3.7V263c0,2.5,0.9,3.7,2.7,3.7H450c1.8,0,2.7-1.2,2.7-3.7v-22.9
			c0-2.5-0.9-3.7-2.7-3.7L423.5,236.4L423.5,236.4z"/>
		<path style="fill:#737170;" d="M451.9,237.2c-0.7-0.8-1.3-0.8-2.5-0.8h-26c-1.8,0-2.7,1.2-2.7,3.6v22.5c0,1.1,0,2.2,0.6,3.1
			s1.5,1,2.1,0.5L452,239C452.5,238.4,452.3,237.6,451.9,237.2z"/>
		<path style="fill:#D1D405;" d="M452.2,262.8v-22.1c0-2.4-0.9-3.7-2.6-3.7h-25.5c-1.7,0-2.5,1.2-2.5,3.7v22.1
			c0,2.3,0.9,3.5,2.5,3.5h25.5C451.4,266.3,452.2,265.2,452.2,262.8z"/>
	</g>
	<path style="fill:#1E1E1C;" d="M430.3,254.7c-1,0-1.8,0.4-2.5,1.2c-0.6,0.8-0.9,1.8-0.9,2.9s0.3,2.1,0.8,2.9
		c0.7,0.8,1.5,1.2,2.5,1.2s1.8-0.4,2.5-1.2c0.6-0.7,0.9-1.6,0.9-2.9c0-1.1-0.3-2.1-0.8-2.9C432.1,255.1,431.3,254.7,430.3,254.7
		 M432,258.8c0,1.1-0.1,1.9-0.5,2.2c-0.4,0.4-0.8,0.7-1.3,0.7c-0.6,0-1-0.2-1.2-0.8c-0.3-0.3-0.5-1-0.5-2.2c0-1.9,0.6-2.9,1.8-2.9
		c0.5,0,1,0.3,1.4,0.8C431.9,257.1,432,257.8,432,258.8 M439.9,256.1v-1.2h-5v7.8h1.4v-3.2h2.7v-1.2h-2.7v-2.1L439.9,256.1
		 M445.9,256.1v-1.2H441v7.8h1.4v-3.2h2.8v-1.2h-2.8v-2.1L445.9,256.1 M447,241.5h-0.9l-5.1,9.9h0.8L447,241.5 M430.3,241.4
		c-1,0-1.8,0.4-2.5,1.2c-0.6,0.7-0.9,1.6-0.9,2.8s0.3,2.2,0.8,2.9c0.6,0.8,1.4,1.2,2.5,1.2s1.8-0.4,2.5-1.1c0.6-0.7,0.9-1.6,0.9-2.9
		c0-1.2-0.3-2.2-0.8-2.9C432.2,241.8,431.4,241.4,430.3,241.4 M430.3,242.6c0.5,0,1,0.2,1.4,0.8c0.2,0.5,0.3,1.2,0.3,2.1
		c0,1-0.1,1.8-0.5,2.2s-0.8,0.7-1.3,0.7s-1-0.2-1.2-0.7c-0.3-0.4-0.5-1.2-0.5-2.2C428.5,243.5,429.1,242.6,430.3,242.6 M436.5,241.5
		H435v7.9h1.1v-5.7l0.2,0.3l0.1,0.2l0.1,0.1l0,0l3,5h1.3v-7.9h-1.1v5.5L436.5,241.5z"/>
</g>
<g id="clp-btn-menu">
	<g>
		<path style="fill:#201B18;" d="M323.5,236.4c-1.8,0-2.7,1.2-2.7,3.7V263c0,2.5,0.9,3.7,2.7,3.7H350c1.8,0,2.7-1.2,2.7-3.7v-22.9
			c0-2.5-0.9-3.7-2.7-3.7L323.5,236.4L323.5,236.4z"/>
		<path style="fill:#737170;" d="M351.9,237.2c-0.7-0.8-1.3-0.8-2.5-0.8h-26c-1.8,0-2.7,1.2-2.7,3.6v22.5c0,1.1,0,2.2,0.6,3.1
			s1.5,1,2.1,0.5L352,239C352.5,238.4,352.3,237.6,351.9,237.2z"/>
		<path style="fill:#383431;" d="M352.2,262.8v-22.1c0-2.4-0.9-3.7-2.6-3.7h-25.5c-1.7,0-2.5,1.2-2.5,3.7v22.1
			c0,2.3,0.9,3.5,2.5,3.5h25.5C351.4,266.3,352.2,265.2,352.2,262.8z"/>
	</g>
	<path style="fill:#FFFFFF;" d="M330.6,248.3h-2l-1.5,4.7l-1.5-4.7h-2v7.2h1v-6.3l2.1,6.3h0.6l2-6.3v6.3h1.3V248.3 M336.8,248.3
		h-4.6v7.2h4.7v-1.1h-3.5v-2h2.8v-1h-2.8v-2h3.3v-1.1 M346.3,248.3H345v4.7c0,0.6,0.1,1.1,0.2,1.5c0.2,0.3,0.5,0.6,0.8,0.9
		c0.3,0.2,0.8,0.3,1.5,0.3c0.6,0,1.1-0.1,1.5-0.4l0.8-0.8l0.2-1v-5.1h-1v4.7c0,0.6-0.1,1-0.3,1.2c-0.4,0.2-0.7,0.3-1,0.3
		c-0.4,0-0.7-0.1-0.9-0.3c-0.3-0.2-0.5-0.6-0.5-1.2L346.3,248.3 M339.1,250.2l0.1,0.2l0.1,0.1v0.1l0.1,0.1l0.1,0.1v0.1l2.8,4.6h1.2
		v-7.2h-1.1v5.1l-0.4-0.7l-0.1-0.1v-0.1l-2.5-4.2H338v7.2h1v-5.3L339.1,250.2L339.1,250.2z"/>
</g>
</svg>
