<svg xmlns="http://www.w3.org/2000/svg" xmlns:xlink="http://www.w3.org/1999/xlink" id="Ebene_1" x="0" y="0" version="1.1" viewBox="0 0 388 242" xml:space="preserve">
  <defs>
    <path id="Layer0_6_FILL" d="M1007 705.2h-12v14.2h-6.2l12.2 12.2 12.2-12.2h-6.2v-14.2z" class="st0"/>
    <path id="Layer0_2_FILL" d="M491 501.2h-12v14.2h-6.2l12.2 12.2 12.2-12.2H491v-14.2z" class="st0"/>
  </defs>
  <style>
    .st0{fill:red}.st4{font-family:&apos;Tahoma&apos;}.st5{font-size:12px}
  </style>
  <switch>
    <g>
      <path id="Layer0_0_FILL" d="M121 92.1h-17.4v17.8l17.5.1V92.1m-4.5 45.1l8.2-23.2h-29l-10.1 23.1 16.2.1h14.7z" class="st0"/>
      <path id="Layer0_0_1_STROKES" fill="none" stroke="red" stroke-linecap="round" stroke-linejoin="round" stroke-width="3" d="M371.5 18.6v43.7h-92.1V103M111.9 92.1V62.4H19.5V23.6m82.4 113.5v31.6H19.5V218m352-5.4v-43.8h-79.6v-41.7"/>
      <g transform="translate(103.05)">
        <path id="Layer0_1_MEMBER_0_1_STROKES" fill="none" stroke="#b1b1b1" stroke-linecap="round" stroke-linejoin="round" stroke-width=".55" d="M66.3 15.5c-.5.1-1 .2-1.5.2L71 34.1l.1.3h48.4l6.3-17.2-4.4-.8-4.6 14.4h-43l-5.3-15.6 8.8-1 23.2-.4 11.5.9 9.5 1.7m73.7 39.1c.4.5.9 1 1.3 1.4l.4-.2-13-12.6-14.1-10.9-20.2-11.8-8.1-3.4-15.5-4.4-16.2-2.8-17.9-.6M71.1 34.4l2.1 5.7h44.2l2.1-5.7h0l15 5.6 11 5.2 10.2 6.4 9 7.2.5.4h-.2c2.6 2.8 5 5.5 7 8.3 2.6 3.4 4.5 6.6 5.9 9.4m1.2-.3c.2.3.4.5.6.8l2.6-14 1.6-.8 9.6-4.2-10-9.9L170 37.6l-10.5-6.8-11.8-6.2-17.9-6.4-4-1m-35.9-7.1h-2c-10.6 0-21.4 1.4-32.2 4.1-10.1 2.5-19.6 6.1-28.6 10.8-.4.2-.8.5-1.2.7L11.1 35l-9.2 7.2-11.5 11.4 3.7 2 1.1-1.4L6.6 43.4l8.1-6.2 14.6-9.1c5.6-3 11.5-5.6 17.7-7.8 6.2-2.1 12.1-3.7 17.8-4.6M71 34.1v.3h.1m20.4 12.5l-.6-5.6H73.7l2 5.6h16.6v-5.6h24.5l-1.9 5.5v116.1l4.6 3V34.4m0 24.8H165c-.1-.1-.2-.2-.3-.4m-49.8-11.9h0l-22.6.1M71 34.1L62.9 36l-11.5 4.1-11 5.3L30.1 52l-9.6 7.6H71V34.4M180.8 88h-12.5v23.1h23.5l-3.8-9.3-7.2-13.8zm18.7 24.8c-1.9-5.8-4.6-12-8.2-18.6-3-5.6-6.4-11-10.2-16.2-.2-.3-.4-.6-.6-.8m16.6 34.5c-1.8-5.6-4.3-11.6-7.8-18.1-3-5.7-6.2-11.1-9.7-16.2l-.1.5m4.5-15.3l-3 15.3m44.3 32c-2.6-9.8-6.5-19.4-11.8-28.9-4.8-8.6-10.5-16.6-17-24l-1.5.8c6.5 7.3 12.1 15.3 17 23.8 5.3 9.4 9.2 19.1 11.9 28.8m-30.4-54.3c.5.6 1 1.1 1.5 1.7l-1.4.6m33.4 59v-.1l-1.6-.2.1.2v.2l1.5-.1 1.4-.1c-.1-.7-.3-1.4-.5-2.1m-3.4 2.4l.5-.1c0-.1-.1-.2-.1-.4l-12.8-2-13.9-2m13.9 2.1l12.8 1.8c-.1-.5-.2-.9-.3-1.3m.9 1.5l-.6-.1v-.2l.5.1-1.2-5.2m.8 5.8l.5-.1m1.5-.3l-1.3-6.1M206 190.4l7.2 4.6c2.2-4 4.2-8.1 6-12.3 2-4.7 3.6-9.1 4.8-13.4 2.3-8.5 3.4-17.4 3.5-26.8.1-8.4-.7-16.8-2.5-25.1m-19.6 72.2h-30.1l-3.1-2.9v-5.1l-5.2-5.1V174h5.2v-9.1l-5.2-3.8v-3h5.2v-11l-5.2-2.4v-2.6h5.2v-4l-5-13.1v-10.6h28.4l10.2 22.7v52.5m-30.5 0v-26.2l.1-26.3-8.3-22.7m5 27.7v5m0-2.6l-5.2-2.4m5.2 16v6.7m0 9.2v7.7m0-19.7l-5.2-3.8m.1 15.8l5.2 5.2m43.9 18c2.4-4.3 4.6-8.6 6.4-13 2.1-4.9 3.8-9.5 4.9-13.9l.5-1.9c1.1-4.1 1.9-8.5 2.4-13 .5-4.4.7-8.9.7-13.6 0-4.5-.3-9-.9-13.6-.4-3.7-1-7.4-1.8-11m-22.5 46.2h-30.5m30.5-26.3h-30.4m-94.5-26.7v-5.5l-2.4-.1.1 5.6h5.2V105l-2.9-.1M71 59.6V166l4.7-3.1v-116m0 116h39.1l.1.1m4.6 3H142V59.2M119.5 166H42.1v-5.7H23.9m130.4 35h58.8c.1-.1.1-.2.2-.3M142 160h21.8M20.5 59.9c-1.7 2-3.4 4.2-5 6.5-1.7 2.4-3.1 4.7-4.2 6.9M-5.9 55.6l10.6 4.5 2 .9 2.6 14.4m8.4 17.1v17.2H.9V92.5h16.8zM4.6 60.1l2.7 14.8m-1.1 1.5C2.5 81.8-.9 87.5-3.9 93.3c-3 5.8-5.3 11.5-7 17-.1.2-.2.4-.2.7l2.1-.4c1.8-5.6 4.3-11.5 7.6-17.7C1.8 87.1 5.2 81.4 9.1 76m-47.5 38.4l1.2-.1 2.1-8.5c2.4-8.7 6-17.4 10.8-26.1 4.7-8.5 10.1-16.2 16.2-23.1m-.3 54l-.6.1-.3.9m-1.9-.2c0-.2.1-.3.1-.4l-25.5 3.9c-2.8 13.3-3.1 27.3-.8 41.9 2 12.9 5.9 25.5 11.6 37.8l8.6-5.6v-51.9l10.3-22.7h28.4V125l-5 13.1v4h5.2v2.6l-5.2 2.4v11h5.2v3l-5.2 3.8v9.1h5.2v2.6l-5.2 5.1v5l-3.1 3h-30m38.1-75.3l-8.2 22.7h.1v52.5m3.1-47.5v2.4l5.2-2.4m0 16l-5.2 3.8v2.9m0-6.7v3.8m5.2 12.1l-5.2 5.2v2.5m0-7.7v5.2m0-34.7v2.6m-53.1-32.2l-.8-.1-3.3-.5m1.8.1l2-8.4c5.2-18.9 14.3-35.9 27.5-51m-28 59.9l.1-.6 26.4-3.9m-15.2 84.5l.4-.2c.1.3.2.5.4.8h61.7m-53.5-5.9v-.6m-23.8-72.8c-2.5 13.1-2.7 26.9-.6 41.3 2.1 14.1 6.3 27.7 12.6 40.8m4.6-.7c-.4-.7-.7-1.5-1.1-2.2h-.4m8.7-32h30.5m-30.5-26.3h30.4m28.8 23.1V59.6"/>
      </g>
      <g transform="translate(384.3 291.35)">
        <defs>
          <path id="SVGID_1_" d="M-242.4-104h112.7v47.5h-112.7z"/>
        </defs>
        <clipPath id="SVGID_2_">
          <use overflow="visible" xlink:href="#SVGID_1_"/>
        </clipPath>
        <text clip-path="url(#SVGID_2_)" transform="translate(-239.7 -90)">
          <tspan x="0" y="0" class="st4 st5">VIEW </tspan><tspan x="32.9" y="0" class="st4 st5">L</tspan><tspan x="38.8" y="0" class="st4 st5">OOKING A</tspan><tspan x="94.3" y="0" class="st4 st5">F</tspan><tspan x="100.7" y="0" class="st4 st5">T</tspan>
        </text>
        <text class="st4 st5" transform="translate(-201.65 -75.5)">
          FROM
        </text>
        <text class="st4 st5" transform="translate(-240.25 -61)">
          INSIDE OF COCKPIT
        </text>
      </g>
      <g transform="translate(-491.6 -611.75)">
        <path id="Layer0_1_MEMBER_2_FILL" fill="#09f" d="M690 777.7l-14 9h7.8l-3.9 10.5h20.7l-4.2-10.5h7.8l-14.2-9z"/>
      </g>
      <g transform="translate(-491.6 -611.75)">
        <path id="Layer0_1_MEMBER_2_1_STROKES" fill="none" stroke="#000" stroke-linecap="round" stroke-linejoin="round" d="M690 777.7l14.1 9h-7.8l4.2 10.5h-20.7l3.9-10.5H676l14-9z"/>
      </g>
      <use class="st0" xlink:href="#Layer0_2_FILL" transform="translate(-465.5 -293.4)"/>
      <g transform="translate(-491.6 -611.75)">
        <path id="Layer0_3_FILL" d="M782.1 711.7c-1.8-3.7-4-7.9-6.5-12.4h-12.9V723h24.2c-.8-2.2-1.8-4.7-3-7.5h-5.3 5.2c-.5-1.2-1.1-2.4-1.7-3.6.1-.1 0-.2 0-.2z" class="st0"/>
      </g>
      <g transform="translate(841.75 5.5)">
        <path id="Layer0_4_FILL" d="M-571.8 108.4l8.3 23.6 30.8-.2-10.3-23.4h-28.8z" class="st0"/>
      </g>
      <g transform="translate(-114.05 -293.4)">
        <use id="Layer0_5_MEMBER_0_FILL" class="st0" xlink:href="#Layer0_2_FILL"/>
      </g>
      <use class="st0" xlink:href="#Layer0_6_FILL" transform="rotate(180 685.95 370.25)"/>
      <g transform="rotate(180 510.225 370.25)">
        <use id="Layer0_7_MEMBER_0_FILL" class="st0" xlink:href="#Layer0_6_FILL"/>
      </g>
    </g>
  </switch>
</svg>
