<?xml version="1.0" encoding="utf-8"?>
<!-- Generator: Adobe Illustrator 24.1.2, SVG Export Plug-In . SVG Version: 6.00 Build 0)  -->
<svg version="1.1" id="Ebene_1" xmlns="http://www.w3.org/2000/svg" xmlns:xlink="http://www.w3.org/1999/xlink" x="0px" y="0px"
	 viewBox="0 0 348 161" style="enable-background:new 0 0 348 161;" xml:space="preserve">
<style type="text/css">
	.st0{fill:#B1B1B1;}
	.st1{fill:#0099FF;}
	.st2{fill:#FF6600;}
	.st3{fill:#009900;}
	.st4{fill:#FFCC00;}
	.st5{fill:none;stroke:#000000;stroke-width:0.5;stroke-miterlimit:5;}
	.st6{fill:none;stroke:#000000;stroke-width:0.25;stroke-miterlimit:5;}
	.st7{fill:none;stroke:#000000;stroke-width:0.4;stroke-miterlimit:5;}
	.st8{fill:none;stroke:#000000;stroke-width:0.2;stroke-miterlimit:5;}
	.st9{fill:none;stroke:#000000;stroke-width:0.3;stroke-miterlimit:5;}
	.st10{fill:none;stroke:#2D2C2E;stroke-width:0.5;stroke-linecap:round;stroke-linejoin:bevel;stroke-miterlimit:4;}
	.st11{fill:none;stroke:#FF9900;stroke-linecap:round;stroke-linejoin:round;}
	.st12{font-family:'ArialMT';}
	.st13{font-size:14px;}
</style>
<path class="st0" d="M185.7,174.7c0,0.2,0,0.5,0.1,0.7c0,0.1,0.1,0.1,0.1,0.2c0.1,0.3,0.3,0.6,0.6,0.9c0.5,0.5,1.1,0.7,1.9,0.7
	c0.7,0,1.3-0.2,1.9-0.7c0.5-0.5,0.7-1.1,0.7-1.9c0-0.3,0-0.7-0.1-0.9c-0.1-0.3-0.3-0.7-0.6-0.9c-0.5-0.5-1.1-0.7-1.9-0.7
	c-0.7,0-1.3,0.2-1.9,0.7C186,173.3,185.7,173.9,185.7,174.7 M178.1,158.9c0.7,1.1,1.4,2.5,2.4,4.3c2,3.9,3.4,7,4.2,9.2l1.1,3.1
	c-0.1-0.2-0.1-0.5-0.1-0.7c0-0.7,0.2-1.3,0.7-1.9c0.5-0.5,1.1-0.7,1.9-0.7c0.7,0,1.3,0.2,1.9,0.7c0.3,0.3,0.5,0.6,0.6,0.9
	c0.2,0.5,0.5,0.9,0.9,1.2c0.5,0.3,1,0.5,1.5,0.5c0.7,0,1.3-0.2,1.9-0.7c0.5-0.5,0.7-1.1,0.7-1.9c0-0.2-0.1-0.5-0.2-1l-1.2-3.3
	c-0.6-2.4-3-7.4-7.2-15L178.1,158.9 M187.2,153.6l0.4-0.2l-5.6-9.7l-2.6,1.5l-4.8,2.8l-2.6,1.5l5.6,9.7l0.7-0.4L187.2,153.6
	 M166.2,136.2l-1.6-1c0.1,0.4,0.3,0.7,0.6,0.8C165.5,136.2,165.9,136.3,166.2,136.2 M164.3,131.8c0.7-1.2,1.6-2.2,2.6-2.7
	c0.7-0.4,1.3-0.5,1.8-0.5c-0.7-0.5-1.5-0.5-2.6,0.1c-1,0.6-1.8,1.5-2.6,2.7c-0.7,1.2-1.1,2.4-1.1,3.6c0,1.1,0.3,2,1,2.5l0.4,0
	l0.4,0.2c-0.7-0.4-1-1.2-1-2.4C163.3,134.2,163.6,133,164.3,131.8 M162.5,132.5l-4.1-2.4v4.8l4.1,2.4V132.5 M158.3,130.1l4.1,2.4
	l3.7-4.5l-4.1-2.4L158.3,130.1 M170.4,132.1C170.4,132.1,170.4,132,170.4,132.1l-1.3-0.7l-1.7-1c-0.2,0-0.4,0.1-0.6,0.2
	c-0.7,0.3-1.2,0.9-1.6,1.7c-0.4,0.8-0.7,1.6-0.7,2.3c0,0.2,0,0.5,0.1,0.7l1.6,1l1.1,0.7c0.1,0,0.1,0.1,0.2,0.1
	c0.6,0.5,1.1,1.1,1.5,1.8l5.4,9.2l4.8-2.8L174,136C173.1,134.4,171.9,133.1,170.4,132.1 M169.1,131.4c-0.1-0.4-0.3-0.7-0.7-0.9
	c-0.3-0.2-0.7-0.2-1,0L169.1,131.4 M169.4,128.8l-0.7-0.6l-2.6-0.2l-3.7,4.5v4.8l1.1,0.1c-0.7-0.5-1.1-1.4-1-2.5
	c0-1.1,0.4-2.3,1.1-3.6c0.7-1.2,1.6-2.1,2.6-2.7c1-0.6,1.9-0.6,2.6-0.1C168.9,128.6,169.2,128.7,169.4,128.8 M168.8,128.2l1,0.1
	l-4.1-2.4l-3.6-0.3l4.1,2.4L168.8,128.2 M169.8,129.1c-0.1-0.1-0.2-0.2-0.3-0.3c-0.2-0.1-0.5-0.2-0.7-0.2c-0.6-0.1-1.2,0.1-1.8,0.5
	c-1,0.6-1.9,1.5-2.6,2.7c-0.7,1.2-1,2.4-1,3.5c0,1.1,0.3,1.9,1,2.4c0.9,0.6,2,0.3,3.3-0.7c-0.1-0.1-0.2-0.1-0.2-0.1l-1.1-0.7
	c-0.4,0.1-0.7,0-1-0.1c-0.3-0.2-0.5-0.4-0.6-0.8c-0.1-0.2-0.1-0.4-0.1-0.7c0-0.7,0.2-1.5,0.7-2.3c0.4-0.8,1-1.3,1.6-1.7
	c0.2-0.1,0.4-0.2,0.6-0.2c0.4-0.1,0.7-0.1,1,0c0.3,0.2,0.6,0.5,0.7,0.9l1.3,0.7C170.6,130.6,170.4,129.7,169.8,129.1 M169.8,129.1
	v-0.7l-1-0.1l0.7,0.6C169.6,128.9,169.7,129,169.8,129.1 M200.4,62.6c-0.7,0-1.4-0.4-2.2-1.2c-0.1,0-0.1-0.1-0.1-0.1
	c-0.3-0.2-0.6-0.5-0.9-0.8C198.4,61.9,199.5,62.6,200.4,62.6 M139.7,124.6l2.4-1.5l-1.3-0.7c-0.4-0.2-0.7-0.7-0.8-1.3l-0.2,1.3
	l-0.3,2.1L139.7,124.6 M146.1,125.4L146.1,125.4L146.1,125.4c0.2,0.1,0.2,0.1,0.3,0.1L146.1,125.4 M146,125.3l-0.7-0.4l0.9,0.5l0,0
	C146.1,125.3,146.1,125.3,146,125.3L146,125.3 M144.8,115.7c0.7-0.4,1.4-0.5,2-0.4l-1.5-0.8c-0.6-0.3-1.4-0.3-2.2,0.2
	c-0.9,0.5-1.6,1.3-2.2,2.4l-0.5,1l-0.2,1.7l-0.2,1.2c0.1,0.6,0.4,1.1,0.8,1.3l1.3,0.7l0.3,0.2c-0.5-0.4-0.8-1-0.8-2
	c0-1,0.3-2,0.9-3.1C143.2,117.1,143.9,116.3,144.8,115.7 M147,115.5l-0.1,0.1L147,115.5l-0.2-0.1c-0.6-0.2-1.2,0-2,0.4
	c-0.9,0.5-1.7,1.3-2.3,2.4c-0.6,1.1-0.9,2.1-0.9,3.1c0,0.9,0.3,1.6,0.8,2l1.9,1c-0.6-0.3-0.8-1-0.8-2c0-1,0.3-2,0.9-3.1
	c0.6-1.1,1.3-1.8,2.3-2.4c0.8-0.4,1.5-0.5,2-0.3L147,115.5 M146.9,115.5L146.9,115.5l0,0.2L146.9,115.5 M147,114.9l-0.2,0.4l0.1,0.1
	L147,114.9 M147,115.5L147,115.5l-0.1,0.1L147,115.5 M145.3,112.8l-0.2-0.4l-0.4-0.7l-5.1,3l-0.4,0.7l0.1,0c0.3,0.2,0.6,0.4,0.7,0.7
	c0.4,0.2,0.5,0.5,0.5,0.9v0.2l-0.1,0.8l0.5-1c0.6-1.1,1.4-1.8,2.2-2.4c0.9-0.5,1.6-0.6,2.2-0.2l1.5,0.8L145.3,112.8 M137.7,117.6
	c0.6,0.1,1.1,0.1,1.6,0c0.5-0.2,0.7-0.4,0.7-0.6c0-0.1,0-0.2,0-0.3c-0.1,0.3-0.4,0.5-0.9,0.6c-0.6,0.2-1.3,0.2-2,0
	c-0.4-0.1-0.8-0.2-1.2-0.3c0.1,0,0.1,0.1,0.2,0.1C136.6,117.4,137.1,117.5,137.7,117.6 M133.3,121.2L133.3,121.2
	c-0.4-0.1-0.9,0.1-1.4,0.5c-0.5,0.4-1,0.9-1.3,1.5c-0.4,0.8-0.6,1.5-0.7,2.3c0,0.7,0.2,1.3,0.7,1.5l2.1,1.2l1.6,0.9
	c0.8,0.5,1.7,0.6,2.6,0.3c0.7-0.2,1.2-0.5,1.6-1c0.5-0.6,0.7-1.1,0.7-1.7l0.3-2.4l0.3-2.1c-0.2,0.4-0.5,0.6-1.1,0.7
	c-0.7,0.2-1.5,0.2-2.3,0.1c-0.9-0.1-1.6-0.4-2.2-0.7C133.5,122,133.3,121.6,133.3,121.2L133.3,121.2l-0.3,2.6v0.4
	c0,1.1,0.2,2.1,0.7,3.1c-0.5-1-0.7-2-0.7-3.1v-0.4L133.3,121.2 M133.6,118.7L133.6,118.7l-0.3,2.4v0v0c0,0.4,0.2,0.8,0.8,1.2
	c0.6,0.3,1.4,0.6,2.2,0.7c0.9,0.1,1.6,0.1,2.3-0.1c0.6-0.1,0.9-0.4,1.1-0.7l0.2-1.3l0.2-1.2c-0.1,0.3-0.5,0.6-1.1,0.7
	c-0.7,0.2-1.5,0.2-2.4,0.1c-0.8-0.1-1.6-0.4-2.2-0.7C133.9,119.5,133.6,119.1,133.6,118.7 M134.2,116.9c-0.1,0.5-0.2,1-0.2,1.4
	C134,117.9,134.1,117.4,134.2,116.9c-0.2-0.2-0.3-0.4-0.3-0.7v0l-0.3,2.5v0c0,0.4,0.2,0.8,0.8,1.2c0.6,0.3,1.3,0.6,2.2,0.7
	c0.8,0.1,1.6,0.1,2.4-0.1c0.6-0.1,1-0.4,1.1-0.7l0.2-1.7l0.1-0.8c0,0.3-0.4,0.5-1.1,0.7c-0.7,0.2-1.5,0.2-2.4,0.1
	c-0.9-0.1-1.6-0.4-2.2-0.7C134.5,117.2,134.3,117.1,134.2,116.9 M137.9,115.6c-0.6-0.1-1.1-0.1-1.6,0.1c-0.4,0.1-0.7,0.3-0.7,0.6
	c0,0.2,0.1,0.4,0.4,0.7c0.3,0.1,0.7,0.2,1.2,0.3c0.7,0.1,1.3,0.1,2,0c0.5-0.1,0.8-0.3,0.9-0.6c-0.1-0.2-0.3-0.3-0.5-0.5
	C139.1,115.9,138.6,115.7,137.9,115.6 M137.7,111.6c-0.5,0.3-0.9,0.7-1.3,1.2l3.2,1.9v0l5.1-3h0l-1-0.6l-2.6-1.5l-1.1,0.7
	c0.4-0.1,0.8-0.2,1.2-0.2c-0.4,0-0.8,0.1-1.2,0.2L137.7,111.6 M138.7,115.3l0.5,0.2l0.4-0.7L138.7,115.3 M135.6,115
	c-0.6,0.2-0.9,0.4-0.9,0.7c0,0.3,0.2,0.7,0.7,0.9c0.2,0.1,0.4,0.2,0.7,0.3c-0.3-0.2-0.4-0.4-0.4-0.7c0.1-0.3,0.3-0.5,0.7-0.6
	c0.5-0.2,1-0.2,1.6-0.1c0.6,0.1,1.1,0.3,1.5,0.5c0.2,0.2,0.4,0.3,0.5,0.5c0-0.1,0-0.1,0-0.1c0.1-0.1,0.1-0.2,0-0.3
	c-0.1-0.2-0.3-0.5-0.7-0.7l-0.1,0l-0.5-0.2c-0.5-0.2-0.9-0.3-1.3-0.3C136.8,114.8,136.2,114.8,135.6,115 M134.7,115.7
	c0-0.3,0.3-0.6,0.9-0.7c0.6-0.2,1.3-0.2,1.9,0c0.3,0,0.8,0.1,1.3,0.3l0.9-0.5v0l-3.2-1.9c-0.3,0.3-0.5,0.6-0.8,1
	c-0.7,1.1-1.2,2.1-1.4,3.1c0.1,0.2,0.3,0.3,0.6,0.5c0.6,0.3,1.4,0.6,2.2,0.7c0.8,0.1,1.6,0.1,2.4-0.1c0.7-0.2,1-0.4,1.1-0.7v-0.2
	c0.1-0.4-0.1-0.7-0.5-0.9c0.1,0.1,0.1,0.2,0,0.3c0,0,0,0.1,0,0.1c0,0.1,0,0.2,0,0.3c0,0.2-0.3,0.4-0.7,0.6c-0.5,0.1-1,0.1-1.6,0
	c-0.6-0.1-1.1-0.2-1.5-0.5c-0.1-0.1-0.1-0.1-0.2-0.1c-0.2-0.1-0.5-0.2-0.7-0.3C134.9,116.4,134.7,116.1,134.7,115.7 M136.5,112.8
	l-0.4-0.2l-1.4,2.9c-0.4,0.2-0.6,0.4-0.7,0.7v0c0,0.2,0.1,0.5,0.3,0.7c0.2-1,0.7-2.1,1.4-3.1C135.9,113.4,136.2,113.1,136.5,112.8
	 M136.1,112.6l0.4,0.2c0.4-0.5,0.8-0.9,1.3-1.2L136.1,112.6L136.1,112.6 M138.3,111.1c-0.2,0.1-0.4,0.3-0.6,0.5l2.3-1.3
	C139.4,110.5,138.9,110.8,138.3,111.1 M134.5,100.5l-0.5,0.7l0.8-0.5L134.5,100.5 M135.6,102.9L135.6,102.9L135.6,102.9L135.6,102.9
	 M135.5,101l-0.3-0.2l0.3,1l0.4,0.2L135.5,101 M135.8,100.3c-0.3-0.6-0.7-1-1.2-1.2c-0.4-0.2-0.7-0.3-1-0.1l-0.1,0h0
	c-0.4,0.2-0.6,0.6-0.5,1.3c0-0.5,0.1-0.8,0.4-0.9c0.3-0.2,0.7-0.1,1,0.1c0.4,0.2,0.8,0.6,1.1,1.1c0.3,0.4,0.5,0.9,0.5,1.4
	c0.1,0.5-0.1,0.8-0.4,0.9l0,0h0c-0.3,0.2-0.6,0.1-1-0.1h0c0.5,0.4,1,0.4,1.3,0.2v0c0.3-0.2,0.5-0.5,0.5-1.1S136.2,100.8,135.8,100.3
	 M147.4,102.8l-0.2-0.1c0.2,1.1,0.3,2.3,0.4,3.4c0.2,3.9,0,7-0.7,9.3l0,0c0.3-1,0.6-2.3,0.8-3.8c0.2-1.5,0.2-3.1,0.2-4.8
	C147.9,105.4,147.8,104,147.4,102.8L147.4,102.8 M150.5,119.2c-0.4-0.2-0.9-0.2-1.5,0.1c-0.6,0.3-1.1,0.9-1.5,1.6
	c-0.4,0.7-0.7,1.5-0.7,2.1c0,0.7,0.2,1.1,0.6,1.4c0.4,0.2,0.9,0.2,1.5-0.1c0.6-0.3,1.1-0.9,1.5-1.6l0.1-0.1l-2.6-1.5l2.6,1.5
	c0.4-0.7,0.6-1.3,0.6-2C151.2,119.9,151,119.4,150.5,119.2 M150.8,117.9L150.8,117.9L150.8,117.9l-0.7-0.2c-0.8,0-1.3,0-1.6,0.2
	c-0.9,0.5-1.7,1.3-2.3,2.4c-0.6,1.1-0.9,2.1-0.9,3.1c0,0.9,0.2,1.5,0.7,1.9l0,0c0,0,0.1,0,0.1,0l0.3,0.1c0.4,0.2,0.8,0.2,1.3,0
	c-0.3-0.1-0.5-0.1-0.7-0.2c-0.6-0.3-0.8-0.9-0.8-1.8c0-0.9,0.3-1.8,0.8-2.8c0.5-1,1.2-1.7,2-2.1
	C149.7,118.1,150.3,117.9,150.8,117.9 M150.9,117.9L150.9,117.9L150.9,117.9L150.9,117.9 M150.8,117.9l0.2,0l-2.3-1.4
	c-0.6-0.2-1.3-0.1-2,0.3c-0.9,0.5-1.7,1.3-2.3,2.4c-0.6,1.1-0.9,2.1-0.9,3.1c0,1,0.3,1.6,0.8,2l0.1,0.1l0.9,0.6l0.7,0.4
	c-0.5-0.4-0.7-1-0.7-1.9c0-1,0.3-2,0.9-3.1c0.6-1.1,1.3-1.8,2.3-2.4c0.3-0.2,0.9-0.2,1.6-0.2L150.8,117.9L150.8,117.9 M151,118
	L151,118l-0.3-0.1l0.1,0l0.3,0.2L151,118 M151,118L151,118L151,118L151,118 M151.4,118.4c-0.1-0.1-0.1-0.1-0.1-0.2l0,0l-0.3-0.2h0
	c-0.5,0-1.1,0.2-1.8,0.7c-0.8,0.4-1.4,1.1-2,2.1c-0.6,1-0.8,1.9-0.8,2.8c0,0.9,0.3,1.5,0.8,1.8c0.2,0.1,0.4,0.2,0.7,0.2
	c0.4,0,0.8-0.1,1.3-0.4c0.8-0.4,1.4-1.1,2-2.1l0.1-0.1l-0.5-0.3l-0.1,0.1c-0.4,0.7-0.9,1.3-1.5,1.6c-0.6,0.3-1.1,0.4-1.5,0.1
	c-0.4-0.2-0.6-0.7-0.6-1.4c0-0.7,0.2-1.4,0.7-2.1c0.4-0.7,0.9-1.3,1.5-1.6c0.6-0.3,1.1-0.4,1.5-0.1c0.4,0.2,0.7,0.7,0.7,1.4
	c0,0.7-0.2,1.3-0.6,2l0.5,0.3c0.5-0.9,0.7-1.8,0.7-2.6c0-0.5-0.1-0.9-0.2-1.3C151.6,118.8,151.5,118.7,151.4,118.4 M52,128.4
	l0.2-0.1L52,128.4L52,128.4 M85.7,136l-2.6-1.5l-0.7,5.3l2.6,1.5L85.7,136 M89.6,132l-2.6-1.5l-3.9,3.9l2.6,1.5L89.6,132
	 M64.3,133.2c1.4,2.4,2.1,4.8,2.1,7.2c0,2.1-0.6,3.6-1.8,4.5c1.4-0.8,2-2.4,2-4.6c0.1-2.4-0.6-4.8-2.1-7.2c-1.5-2.5-3.2-4.3-5.2-5.5
	c-2-1.1-3.7-1.3-5.2-0.5c1.3-0.7,2.9-0.4,4.8,0.7C61.2,128.9,62.9,130.7,64.3,133.2 M82.3,109l0.4-0.2l-1.1-0.1l-0.4,0.2L82.3,109
	 M83.2,108.4l-0.3-0.8v1L83.2,108.4 M126.3,121.4l2.6,1.5l3.8-4l-2.5-1.4L126.3,121.4 M118.6,128.9v1.8l3,1.7l-2.1-3L118.6,128.9
	 M125.9,127.6L125.9,127.6l-0.1-0.3l-0.1,0.1L125.9,127.6 M125.9,127.6l0.6,0.3L125.9,127.6L125.9,127.6 M129.3,128.5l-1-0.4
	c-0.7,0.2-1.3,0.1-1.9-0.2l-0.6-0.3l-0.3,0.5c-0.4,0.8-0.7,1.5-0.7,2.2c0,0.7,0.2,1.2,0.6,1.4c0.4,0.2,1,0.2,1.6-0.1
	c0.7-0.4,1.2-1,1.6-1.7C128.9,129.5,129.1,129,129.3,128.5 M129.3,128.5l0.3,0.1l1.8,0.7l1.2-1.2l-2.1-1.2c-0.5-0.3-0.7-0.8-0.7-1.5
	c0.1-0.7,0.3-1.5,0.7-2.3c0.4-0.6,0.8-1.1,1.3-1.5c0.5-0.4,1-0.6,1.4-0.6l0.3-2.5l-3.4-1.2l2.5,1.4l-3.8,4l-0.7,5.2l0.1,0
	L129.3,128.5 M129.6,128.7l-0.3-0.1c-0.2,0.5-0.4,1-0.6,1.4c-0.4,0.7-0.9,1.3-1.6,1.7c-0.6,0.3-1.1,0.4-1.6,0.1
	c-0.4-0.2-0.6-0.7-0.6-1.4c0-0.7,0.2-1.4,0.7-2.2l0.3-0.5l-0.2-0.1l-0.4,0.5c-0.5,0.9-0.7,1.7-0.7,2.6c0,0.8,0.3,1.4,0.8,1.7
	c0.3,0.2,0.7,0.2,0.9,0.2c0.3-0.1,0.7-0.2,0.9-0.3c0.7-0.4,1.3-1.1,1.9-2C129.3,129.6,129.5,129.1,129.6,128.7 M123.6,130.5
	c0,1,0.3,1.6,0.8,2h0c0.5,0.3,1.1,0.3,1.8,0c-0.3,0-0.6,0-0.9-0.2c-0.5-0.3-0.8-0.8-0.8-1.7c0-0.9,0.2-1.7,0.7-2.6l0.4-0.5l-0.8-0.6
	l-0.4,0.6C123.9,128.5,123.6,129.5,123.6,130.5 M121.4,124.8l-0.7-0.5l-0.8-0.5l-0.2,2.8L119,127h0c-0.4,0.4-0.6,0.8-0.6,1.3
	l0.2,0.1v0.6l0.9,0.5L121.4,124.8 M122.1,125.2l-0.7-0.4l-1.9,4.6l2.1,3l1.4-0.8l-1.4-0.8v0c-0.6-0.3-0.9-1-0.9-2c0-1,0.3-2,0.9-3
	L122.1,125.2 M123.4,126.1l-1.4-0.9l-0.5,0.6c-0.6,1-0.9,2-0.9,3c0,1,0.3,1.6,0.9,2v0l1.4,0.8v0c-0.6-0.3-0.9-1-0.9-2
	c0.1-1,0.4-2,0.9-3L123.4,126.1 M124.8,126.9l-1.4-0.8l-0.4,0.6c-0.6,1-0.9,2-0.9,3c0,1,0.3,1.6,0.9,2v0l1.4,0.8
	c-0.6-0.3-0.8-1-0.8-2c0-1,0.3-2,0.9-3L124.8,126.9 M125.5,126.6l0.1,0.1l2.5,1.4l0.7-5.2l-2.6-1.5l-0.6,4L125.5,126.6 M125.7,126.7
	v0.6l-5.1-2.9l0.7,0.5l0.7,0.4l1.4,0.9l1.4,0.8l0.8,0.6l0.1-0.1l0.2,0.2l0.5,0.4c0.5,0.3,1.1,0.4,1.9,0.2l-0.1,0L125.7,126.7
	 M108.9,136.2L108.9,136.2l0.1,0L108.9,136.2 M92.5,135.5l0.3-2.2l-3.3-1.3l-3.9,3.9l-0.7,5.2l1.6,0.7l1.6,0.6l1.2-1.2l-2.1-1.2
	c-0.5-0.3-0.7-0.8-0.7-1.5c0-0.7,0.2-1.5,0.7-2.2c0.4-0.8,1-1.3,1.6-1.7c0.6-0.4,1.2-0.4,1.6-0.2L92.5,135.5 M95.8,137.1l-1.8-0.7
	l-1.5-0.9l-2-1.2c-0.5-0.2-1-0.2-1.6,0.2c-0.7,0.4-1.2,0.9-1.6,1.7c-0.5,0.8-0.7,1.5-0.7,2.2c0,0.7,0.2,1.3,0.7,1.5l2.1,1.2l1.9,1.1
	l4,1.6c0.7,0.2,1.3,0.1,2-0.3c0.6-0.4,1.1-1,1.4-1.9c0.3-0.8,0.3-1.6,0.1-2.4c-0.2-0.7-0.6-1.2-1.2-1.4L95.8,137.1 M99.9,138.7
	l-0.8-0.3c0.5,0.2,0.9,0.7,1.2,1.4c0.2,0.8,0.2,1.6-0.1,2.5c-0.3,0.9-0.8,1.5-1.5,1.9c-0.6,0.3-1.1,0.5-1.5,0.5l0.5,0.2
	c0.7,0.2,1.3,0.1,2-0.3c0.7-0.4,1.2-1.1,1.5-1.9c0.3-0.9,0.3-1.7,0.1-2.5S100.6,138.9,99.9,138.7 M99.1,138.4l-1.4-0.6
	c0.6,0.3,0.9,0.8,1.2,1.4c0.2,0.8,0.2,1.6-0.1,2.4c-0.3,0.9-0.8,1.5-1.4,1.9c-0.7,0.4-1.4,0.5-2,0.3l2,0.7c0.4,0,0.9-0.1,1.5-0.5
	c0.7-0.4,1.1-1,1.5-1.9c0.3-0.8,0.3-1.7,0.1-2.5C100.1,139.1,99.7,138.6,99.1,138.4L99.1,138.4 M98.9,99.4c-0.1,0-0.2,0-0.2,0h0.1
	L98.9,99.4 M98.9,99.4l0.3-0.2l-1.1-0.2l-0.4,0.2l1,0.2C98.7,99.4,98.8,99.4,98.9,99.4 M99.4,99.1l0.4-0.2l-0.4-0.7V99.1
	 M110.2,109.4c0.2-0.1,0.3-0.2,0.4-0.5l-0.9,0.5C110,109.5,110.2,109.5,110.2,109.4 M109.3,109.7l0.4-0.2c-0.1,0-0.1,0-0.2,0
	C109.5,109.5,109.4,109.6,109.3,109.7 M107.6,108.1c0-0.3,0.1-0.5,0.2-0.6c0.4-0.2,0.8,0,1.2,0.7c0.2,0.3,0.2,0.6,0.2,0.8
	c0,0.3-0.1,0.4-0.2,0.5c-0.1,0.1-0.2,0.1-0.4,0.1c0.2,0.1,0.5,0.1,0.7,0c0.1-0.1,0.2-0.2,0.2-0.3c0-0.1,0-0.2,0-0.4
	c0-0.3-0.1-0.6-0.3-1c-0.2-0.3-0.4-0.6-0.7-0.7c-0.1-0.1-0.2-0.1-0.3-0.1c-0.2,0-0.3,0-0.4,0h0C107.6,107.4,107.5,107.7,107.6,108.1
	 M108.3,107.2c0-0.1,0-0.2,0-0.3l-0.4,0.3C108,107.2,108.1,107.2,108.3,107.2 M108.6,106.5c-0.1,0.1-0.2,0.2-0.3,0.4l0.8-0.5
	C108.9,106.4,108.8,106.4,108.6,106.5 M116.3,77.3L116.3,77.3L116.3,77.3L116.3,77.3L116.3,77.3 M116.8,76.6l0-0.1
	c0,0.1,0,0.2,0,0.3L116.8,76.6 M118.2,77.4l-0.1-0.8l-0.8,0.5L118.2,77.4 M95.4,95.9v0.6l1.2,0.7l0.7-0.2L95.4,95.9 M95.4,88.1v0.5
	L96,89L95.4,88.1 M96.5,89L96.5,89l0.5-0.1L96.5,89 M104,84.7l-0.2-0.3l0,0.4L104,84.7 M105.5,83.9l-0.3-0.3l-1.5,0.9l0.2,0.3
	L105.5,83.9 M106.2,81.6l-0.4-0.2l0.4,1.1l0.5,0.2L106.2,81.6 M104.8,80.5c0.3-0.1,0.6-0.1,1,0.1c0.4,0.2,0.7,0.6,1,1.1
	c0.2,0.4,0.4,0.7,0.4,1.1l0.4-0.2c-0.1-0.4-0.3-0.8-0.4-1c-0.2-0.6-0.6-1-1.1-1.3c-0.5-0.3-0.9-0.3-1.2-0.2l-0.1,0
	c-0.4,0.2-0.5,0.7-0.4,1.3v0C104.3,81,104.5,80.7,104.8,80.5 M105.6,81.3l-0.4-0.2l-0.5,0.7L105.6,81.3 M105.6,78.9l-0.2,0.9
	l0.8-0.5L105.6,78.9 M107.6,76.7l-0.7,0.4l0.4-0.1L107.6,76.7 M122.8,71.8L122.8,71.8l0.7,0.9L122.8,71.8 M116.3,75.4l-0.4-0.2
	l0.4,1l0.4,0.2L116.3,75.4 M116.1,70.8l0.2-0.1C116.3,70.7,116.2,70.7,116.1,70.8L116.1,70.8 M115.4,74.8l-0.5,0.7l0.8-0.5
	L115.4,74.8 M114.4,73.4L114.4,73.4c-0.5,0.2-0.7,0.7-0.6,1.3v0c0-0.5,0.1-0.8,0.4-0.9c0.3-0.2,0.7-0.1,1,0.1c0.4,0.2,0.7,0.6,1,1.1
	c0.3,0.5,0.5,1,0.5,1.4c0,0,0,0.1,0,0.1v0l0,0.1l-0.1,0.1l-0.3,0.5l0,0h0c-0.3,0.1-0.6,0.1-0.9-0.1c0.5,0.4,0.9,0.5,1.3,0.3h0
	c0.3-0.2,0.5-0.5,0.5-1.1c0-0.5-0.2-1-0.5-1.6c-0.3-0.6-0.7-1-1.2-1.2C115.1,73.2,114.7,73.2,114.4,73.4 M115.5,71.6l0.2-0.1h0.3
	l0.4-0.4c0.5-0.3,1.1-0.2,1.8,0.2c0.7,0.4,1.3,1.1,1.7,1.9c0.1,0.2,0.3,0.7,0.5,1.4l0.1-0.6l-0.4-0.9c-0.6-1-1.2-1.7-2-2.2
	c-0.7-0.4-1.3-0.6-1.8-0.4l-0.2,0.1C115.8,70.9,115.6,71.2,115.5,71.6 M118.7,68.8L118.7,68.8l-0.1,0c-0.3,0.2-0.4,0.5-0.5,0.8
	l0.8-0.5c0.5-0.3,1.1-0.2,1.9,0.2c0.7,0.4,1.3,1.1,1.8,1.9l0,0.1l0.3,0.5v-0.1l-0.4-1.1c-0.6-0.9-1.3-1.5-2-1.9
	C119.7,68.5,119.2,68.5,118.7,68.8 M75.8,90.9L75.8,90.9L75.8,90.9L75.8,90.9 M154.4,96.4h-1.6c0.7,0,1.2,0.4,1.6,1
	c0.5,0.7,0.7,1.4,0.7,2.3c-0.1,0.9-0.3,1.7-0.8,2.2c-0.5,0.6-1,0.9-1.7,1h1.8c0.6,0,1.1-0.3,1.5-0.9c0.5-0.6,0.7-1.3,0.8-2.3
	c0-0.9-0.2-1.7-0.7-2.3C155.6,96.7,155.1,96.4,154.4,96.4 M157.5,97.4c-0.4-0.7-1-1-1.6-1h-1.5c0.7,0,1.2,0.4,1.6,1
	c0.5,0.7,0.7,1.4,0.7,2.3c-0.1,1-0.3,1.7-0.8,2.3c-0.4,0.6-0.9,0.9-1.5,0.9h1.3c0.7,0,1.2-0.3,1.7-0.9c0.5-0.7,0.7-1.4,0.7-2.3
	C158.2,98.8,158,98,157.5,97.4 M140,97l-1.9-1.1l0.2,5v0.1v0.1l1.9,1.1L140,97 M146.4,94.7l1.8,1.1l-1-3.5l-3.8,0L140,97l0.2,5.2
	h1.6h2.9l0.5-0.5l-2.3-1.3l0,0c-0.4-0.3-0.6-0.8-0.6-1.5c0.1-0.7,0.3-1.4,0.7-2.2c0.4-0.7,0.9-1.3,1.6-1.7
	C145.4,94.5,145.9,94.4,146.4,94.7 M148.3,95.8l-1.8-1.1c-0.5-0.3-1.1-0.3-1.8,0.1c-0.7,0.4-1.2,1-1.6,1.7c-0.4,0.8-0.6,1.5-0.7,2.2
	c-0.1,0.7,0.1,1.2,0.6,1.5l0,0l2.3,1.3l0.3,0.2l0.6,0.3l0.6,0.3l0.2,0.1l0.3,0.1l0.2,0.1h0.1l0.8,0.1l4.3,0c0.7,0,1.2-0.4,1.7-1
	c0.5-0.6,0.7-1.3,0.8-2.2c0-0.9-0.2-1.7-0.7-2.3c-0.4-0.7-1-1-1.6-1h-3.6L148.3,95.8 M143.5,92.3l-1.9-1.1l-3.5,4.7L140,97
	L143.5,92.3 M145,90.7L145,90.7l-0.4-0.2L145,90.7 M145.7,91.4l-0.3-0.2h-3.8l1.9,1.1l3.8,0L145.7,91.4 M137.3,85l-0.2-0.3l0.1,0.4
	L137.3,85 M130.4,76.8c0.5,0.5,0.9,0.9,1.3,1.4c1.8,1.3,3.6,3,5.3,5.1c1.4,1.7,2.5,3.3,3.4,4.7l0.6,0.4c-1-1.9-2.3-3.8-4.1-5.8
	C134.5,79.9,132.4,78,130.4,76.8 M159.4,75.8L159.4,75.8c0.2,0.7,0.6,1.5,1,2.3L159.4,75.8 M174.2,92c-0.2-0.1-0.4-0.2-0.6-0.3
	c-1.1-0.5-2.2-1.1-3.3-1.8C171.6,90.7,172.9,91.4,174.2,92 M183.1,66.9c0.4,0.7,0.8,1.4,1.2,2.1c-0.5-1-1-2-1.6-2.9
	C182.8,66.4,182.9,66.6,183.1,66.9 M172.7,55.5c0.6,0.4,1.1,0.8,1.8,1.3c1,0.8,2,1.6,2.9,2.5C175.9,57.7,174.3,56.5,172.7,55.5
	 M164.2,84l1.2,1.4c0.6,0.7,1.2,1.4,1.9,2L164.2,84 M215.3,15.2c-0.2,0.1-0.3,0.1-0.5,0.2c-1.1,0.7-2,1.5-2.8,2.5l0.8-0.5l0.7-0.8
	l1-0.9L215.3,15.2 M216.1,15.6l0.9-1.1c-0.2,0.1-0.3,0.1-0.5,0.2l-1.3,1.4L216.1,15.6 M232.9,15.5L232.9,15.5
	c0.2,0.3,0.2,0.6,0.2,0.8c0,0.2,0,0.3-0.1,0.4l0.6-0.3L232.9,15.5 M225.1,10.7L225.1,10.7l0.1,0C225.2,10.7,225.2,10.7,225.1,10.7
	 M225.8,10.8c-0.1-0.1-0.3-0.1-0.4-0.1l-0.1,0C225.5,10.7,225.7,10.8,225.8,10.8 M249.5,47l0.9-0.5c0-0.2-0.1-0.3-0.1-0.4l-1.3,0.7
	L249.5,47 M220.8,3.7l-1.4-0.1c-0.1,0.2-0.2,0.5-0.4,0.7c0.2-0.2,0.3-0.3,0.6-0.4c0.4-0.2,0.7-0.2,1-0.1l0.3,0.2L220.8,3.7
	 M220.8,3.7l-0.7-0.4l-1.4-0.1l0.8,0.4L220.8,3.7 M218.6,5c0.1-0.1,0.1-0.2,0.2-0.4c-0.3,0.3-0.6,0.6-0.8,0.7v2l0.6,0.1
	c-0.3-0.2-0.4-0.6-0.4-1C218.2,5.9,218.3,5.4,218.6,5z"/>
<path d="M196.1,58.8l0.6-0.3c-0.7-1.3-0.9-2.6-0.6-3.7c-0.4,0.4-0.6,1.1-0.6,2C195.7,57.4,195.8,58.1,196.1,58.8 M201.8,61.8
	c-0.1,0.1-0.1,0.1-0.1,0.1c-0.4,0.4-0.8,0.6-1.3,0.7C201,62.6,201.4,62.3,201.8,61.8 M198.1,61.3L198.1,61.3
	C198.1,61.3,198.1,61.4,198.1,61.3C198.2,61.4,198.1,61.4,198.1,61.3 M197.3,59.5l-0.6,0.3l0.2,0.2c0,0,0,0.1,0,0.1
	c0,0.1,0.1,0.1,0.2,0.2l2.5,1.4c0,0,0.1,0,0.1,0c0.2,0,0.3-0.1,0.5-0.1C199.1,61.4,198.2,60.7,197.3,59.5 M202.2,58
	c-0.2-0.6-0.5-1.2-1-1.9c-1.6-2.5-3.2-3.4-4.8-2.7c-1.5,0.7-1.7,2.5-0.4,5.3c-1.1-2.7-1-4.2,0.6-4.7c1.5-0.5,2.9,0.4,4.2,2.7
	c1.3,2.3,1.3,3.9,0.2,4.8c-0.1,0.1-0.2,0.2-0.3,0.2c0,0-0.1,0-0.1,0h0c-0.6,0.3-1.2,0.2-2-0.2c-0.2-0.1-0.3-0.2-0.4-0.3
	c0.8,0.7,1.6,1.1,2.2,1.2c0.5-0.1,0.9-0.3,1.3-0.7c0,0,0.1-0.1,0.1-0.1c0,0,0.1-0.1,0.1-0.1C202.6,60.7,202.7,59.5,202.2,58
	 M163.1,82.4c0.3,0.4,0.7,0.9,1.1,1.3c0.5,0.6,1,1.1,1.5,1.6c2.4,2.4,5.3,4.2,8.5,5.6c-4.3-2.2-8-5.8-11.2-10.7l-1,0.6L163.1,82.4
	 M163.3,82.7c0.3,0.3,0.6,0.7,0.9,1c-0.4-0.4-0.7-0.9-1.1-1.3L163.3,82.7 M158.5,73c0.2,0.5,0.3,1.1,0.5,1.6l0.2,0.6
	c0,0.1,0.1,0.2,0.1,0.3c0,0,0,0.1,0,0.1c0,0,0,0.1,0,0.1l0,0l1,2.3l1-0.6c-3-5.9-4.3-11.4-3.7-16.4c-0.2,1.1-0.2,2.2-0.3,3.3
	L158.5,73 M187.3,78.8c-0.1-0.8-0.3-1.6-0.4-2.3c0,0.3,0.1,0.6,0.1,0.8c1,5.2,0.5,9.4-1.7,12.5C187.3,87.1,188,83.4,187.3,78.8
	 M174.4,92.1c0.4,0.2,0.8,0.3,1.2,0.4c-0.2-0.1-0.4-0.2-0.6-0.2C174.8,92.2,174.6,92.2,174.4,92.1 M165.4,85.4l-1.2-1.4
	c1.3,1.7,2.6,3.2,4.1,4.5c-0.3-0.3-0.7-0.6-1-0.9c-0.1-0.1-0.1-0.1-0.1-0.1C166.6,86.8,166,86.1,165.4,85.4 M157.5,71.1
	c-0.1-0.3-0.2-0.6-0.3-0.9c0.3,1.2,0.7,2.5,1.3,3.7l-0.1-0.3L157.5,71.1 M157,68.3l0.1,1.4c0,0.1,0,0.2,0,0.2c0,0.1,0,0.1,0,0.2
	c0.1,0.3,0.2,0.6,0.3,0.9l0.9,2.5C157.8,71.7,157.3,70,157,68.3 M157.2,69.8l-0.1-1.4c-0.3-1.6-0.5-3.2-0.5-4.6
	C156.5,65.8,156.7,67.8,157.2,69.8 M161.5,53.9c0.2-0.1,0.5-0.2,0.7-0.3c3.2-1.1,6.7-0.4,10.5,2c1.6,1,3.2,2.2,4.6,3.7
	c0.9,0.8,1.7,1.8,2.5,2.7c0.8,1,1.6,2.1,2.3,3.3c0.1,0.2,0.2,0.4,0.3,0.6l0.2,0.3c0.6,0.9,1.1,1.9,1.6,2.9c0.7,1.3,1.2,2.6,1.7,4
	l1,3.4c0.2,0.7,0.3,1.5,0.4,2.3c0.7,4.6,0,8.3-2,11l-0.2,0.4c0,0,0,0.1,0,0.1c0,0-0.1,0-0.1,0c-0.1,0.1-0.2,0.2-0.3,0.4
	c-0.1,0.1-0.1,0.1-0.1,0.2c-0.2,0.1-0.3,0.3-0.5,0.4l-0.5,0.4c-1.3,0.9-2.7,1.4-4.3,1.4l-3.7-0.6c-0.4-0.1-0.8-0.3-1.2-0.4l-0.2-0.1
	c-1.4-0.6-2.6-1.3-3.9-2.1l-3-2.4c0.3,0.3,0.6,0.6,1,0.9l3.3,2.4l0,0c0.1,0,0.1,0.1,0.2,0.1c0.4,0.2,0.7,0.4,1.1,0.7
	c0.1,0.1,0.3,0.2,0.4,0.2c4.5,2.3,8.2,2.4,11.3,0.1c3.2-2.6,4.4-6.8,3.7-12.5c-0.6-4.7-2-9.1-4.5-13.1c-2.2-4-5.1-7.4-8.5-10.2
	c-4.3-3.4-8.3-4.8-12.2-4c-4.1,1.1-6.3,4.2-6.8,9.3c0,0.2,0,0.4,0,0.6c0,0,0,0.1,0,0.1l0.1,1.6l0-1.1c0,0,0-0.1,0-0.1L157,60
	c0-0.1,0.1-0.2,0.1-0.4C157.8,56.8,159.3,54.9,161.5,53.9 M162.2,53.5c-0.2,0.1-0.5,0.2-0.7,0.3c0.4-0.2,0.8-0.3,1.3-0.5
	c2.9-0.8,6-0.2,9.5,1.9c0.1,0.1,0.3,0.1,0.4,0.2C168.9,53.1,165.4,52.4,162.2,53.5z"/>
<path class="st1" d="M136,102.2l0-0.2l-0.4-0.2l-1,0.6l1,0.5h0v0h0L136,102.2 M135.2,100.8l-0.3-0.1l-0.8,0.5l0.5,1.3l1-0.6
	L135.2,100.8 M135.2,100.8l0.3,0.2l0.4,1l0,0.2l-0.4,0.7c0.3-0.2,0.4-0.5,0.4-0.9c0-0.5-0.2-1-0.5-1.4c-0.3-0.5-0.7-0.9-1.1-1.1
	c-0.4-0.2-0.7-0.2-1-0.1c-0.3,0.2-0.4,0.5-0.4,0.9c0,0.5,0.2,0.9,0.5,1.4c0.2,0.5,0.6,0.8,1,1.1h0c0.4,0.2,0.7,0.2,1,0.1l-1-0.5
	l-0.5-1.3l0.5-0.7l0.3,0.2L135.2,100.8 M147.2,102.7l-0.3-0.1c0.5,4,0,7.4-1.5,10.3l1.4,2.6l0.2-0.4l-0.1,0.5h0
	c0.7-2.3,0.9-5.4,0.7-9.3C147.5,104.9,147.4,103.8,147.2,102.7 M146.9,102.5l-0.2-0.1l-0.6-0.3c0.6,4,0.3,7.4-1,10.3l0.2,0.4
	C146.8,110,147.3,106.6,146.9,102.5 M146.1,102.1l-0.6-0.3c0.6,4,0.3,7.3-0.9,10h0l0.4,0.7C146.4,109.5,146.7,106.1,146.1,102.1
	 M76.7,134.5c0,2.3-0.7,3.9-2.1,4.7l-2.2,1.3l8.9,5.1v-20.8l-21.8-12.6v11.9l4.7-2.7c1.5-0.8,3.2-0.7,5.2,0.5c2,1.1,3.7,3,5.2,5.5
	C76,129.8,76.7,132.1,76.7,134.5 M59.5,127.5c2,1.1,3.7,3,5.2,5.5c1.5,2.4,2.2,4.8,2.1,7.2c0,2.3-0.7,3.8-2,4.6l7.7-4.4l2.2-1.3
	c1.4-0.8,2.1-2.4,2.1-4.7c0-2.3-0.7-4.7-2.1-7.2c-1.5-2.5-3.2-4.3-5.2-5.5c-2-1.2-3.7-1.3-5.2-0.5l-4.7,2.7l-5.3,3h0
	C55.8,126.2,57.5,126.4,59.5,127.5 M66.5,140.4c0-2.4-0.7-4.8-2.1-7.2c-1.4-2.4-3.1-4.3-5.2-5.4c-1.9-1.1-3.5-1.3-4.8-0.7h0
	l-2.1,1.2c1.4-0.7,3-0.5,5,0.6c2,1.1,3.7,3,5.1,5.4c1.5,2.5,2.2,4.9,2.1,7.2c0,2.3-0.7,3.9-2.1,4.7l2.3-1.3l0,0l0.1,0
	C65.9,144,66.5,142.5,66.5,140.4 M61.8,134.6c1.4,2.4,2,4.6,2,6.9c0,2.2-0.7,3.7-2,4.5c-1.3,0.7-2.9,0.6-4.7-0.3
	c2,1.2,3.7,1.3,5.1,0.5h0c1.4-0.8,2.1-2.4,2.1-4.7c0.1-2.3-0.6-4.7-2.1-7.2c-1.5-2.5-3.2-4.3-5.1-5.4c-2-1.1-3.6-1.3-5-0.6l-0.2,0.1
	c-1.4,0.8-2.1,2.4-2.1,4.7c0.1-2,0.7-3.4,2-4.2c1.4-0.8,3-0.6,5,0.5C58.8,130.5,60.5,132.3,61.8,134.6 M63.9,141.5
	c0-2.2-0.7-4.5-2-6.9c-1.4-2.4-3-4.1-4.9-5.2c-2-1.1-3.6-1.3-5-0.5c-1.3,0.7-2,2.1-2,4.2v0.4c0,2.2,0.7,4.5,2,6.9
	c1.3,2.3,3,4.1,5,5.2l0.2,0.1c1.8,1,3.4,1.1,4.7,0.3C63.2,145.3,63.9,143.8,63.9,141.5 M58,133.4c0.4,0.7,0.5,1.2,0.1,1.5
	c-0.2,0.1-0.4,0.1-0.7-0.1c-0.2-0.2-0.4-0.4-0.6-0.7c-0.2-0.3-0.3-0.6-0.3-0.9c0-0.3,0.1-0.5,0.2-0.6
	C57.1,132.5,57.5,132.7,58,133.4 M56,135.5c0.2-0.1,0.3-0.1,0.5-0.1c0.3,0,0.6,0.1,0.9,0.3c0.2,0.1,0.4,0.3,0.7,0.5
	c0.3,0.3,0.5,0.6,0.7,1c0.2,0.4,0.4,0.8,0.5,1.2c0,0.2,0,0.5,0,0.7c0,0.3-0.1,0.6-0.2,0.8c-0.1,0.2-0.2,0.3-0.4,0.4
	c-0.4,0.2-0.8,0.2-1.3-0.2c-0.6-0.3-1-0.8-1.4-1.5s-0.6-1.3-0.6-2C55.4,136.2,55.6,135.7,56,135.5 M56.5,141.7
	c0-0.3,0.1-0.5,0.2-0.6c0.2-0.1,0.4-0.1,0.7,0c0.2,0.2,0.4,0.4,0.6,0.7c0.2,0.3,0.3,0.6,0.3,0.9c0,0.3-0.1,0.5-0.2,0.6
	c-0.4,0.2-0.8,0-1.3-0.7C56.6,142.2,56.5,141.9,56.5,141.7 M56.7,141.1c-0.2,0.1-0.2,0.3-0.2,0.6c0,0.3,0.1,0.6,0.3,0.9
	c0.5,0.7,0.9,1,1.3,0.7c0.2-0.1,0.2-0.3,0.2-0.6c0-0.3-0.1-0.6-0.3-0.9c-0.2-0.3-0.4-0.5-0.6-0.7C57.1,141,56.9,141,56.7,141.1
	 M59,138.7l0.2-0.3c-0.1-0.4-0.2-0.8-0.5-1.2c-0.2-0.4-0.5-0.7-0.7-1c-0.2-0.1-0.3,0-0.4,0c-0.2,0.1-0.3,0.3-0.3,0.6
	c0,0.3,0.1,0.6,0.3,1c0.2,0.3,0.4,0.6,0.7,0.8C58.6,138.8,58.9,138.8,59,138.7 M59.3,138.5l-0.2,0.3c-0.2,0.1-0.4,0.1-0.7-0.1
	c-0.2-0.2-0.5-0.4-0.7-0.8c-0.2-0.3-0.3-0.7-0.3-1c0-0.3,0.1-0.5,0.3-0.6c0.1-0.1,0.2-0.1,0.4,0c-0.2-0.2-0.4-0.4-0.7-0.5
	c-0.3-0.2-0.6-0.3-0.9-0.3c-0.3,0.8-0.2,1.8,0.4,2.9c0.6,1.1,1.3,1.6,2.2,1.7c0.1-0.2,0.2-0.5,0.2-0.8
	C59.3,139,59.3,138.7,59.3,138.5 M56.5,135.4c-0.2,0-0.4,0-0.5,0.1c-0.4,0.2-0.6,0.7-0.6,1.3c0,0.6,0.2,1.3,0.6,2s0.8,1.2,1.4,1.5
	c0.5,0.3,1,0.4,1.3,0.2c0.2-0.1,0.3-0.2,0.4-0.4c-0.9-0.1-1.6-0.7-2.2-1.7C56.3,137.2,56.2,136.3,56.5,135.4 M58.1,134.9
	c0.4-0.3,0.3-0.8-0.1-1.5c-0.4-0.7-0.9-1-1.3-0.7c-0.2,0.1-0.2,0.3-0.2,0.6c0,0.3,0.1,0.6,0.3,0.9c0.2,0.3,0.4,0.5,0.6,0.7
	C57.7,135,57.9,135,58.1,134.9 M116,128.1l-3.3-1.9l-2.6,3.3l3.3,1.9L116,128.1 M118.6,131.9v-1.2v-1.8v-0.6l-2.6-0.2l-2.6,3.3v3.5
	l0.6,0l2.1,0.1L118.6,131.9 M115.4,126.5l-2.7-0.2l3.3,1.9l2.6,0.2l-0.2-0.1l-0.5-0.3L115.4,126.5 M119.8,123.8
	c-0.3-0.3-0.5-0.7-0.8-1.3l-0.7-0.3v2.2l-0.5,0.3l0,0.7c0.1,0.7,0.1,1.6,0,2.6l0.5,0.3c0-0.5,0.2-0.9,0.6-1.3h0l0.6-0.4L119.8,123.8
	 M107.4,132.8c0-1.7,0.5-3.4,1.6-5.2c1-1.8,2.2-3.1,3.7-3.9c1.2-0.7,2.3-0.9,3.3-0.6l-0.6-0.3c-1.1-0.6-2.3-0.5-3.7,0.3
	c-1.5,0.9-2.7,2.3-3.7,4c-1,1.8-1.5,3.5-1.5,5.3c0,1.7,0.5,2.8,1.5,3.4l1,0.5C107.9,135.5,107.4,134.4,107.4,132.8 M110.1,129.5v3.5
	l3.3,1.9v-3.5L110.1,129.5 M110.1,133.1v-3.5l2.6-3.3l2.7,0.2l2.5,1.5c0.1-1,0.1-1.8,0-2.6l-0.1-0.4c-0.2-0.8-0.7-1.4-1.3-1.8
	L116,123c-1-0.3-2.1-0.1-3.3,0.6c-1.5,0.9-2.7,2.2-3.7,3.9c-1.1,1.8-1.6,3.5-1.6,5.2c0,1.6,0.5,2.7,1.4,3.4l0.1,0
	c0.6,0.4,1.4,0.5,2.3,0.2l0.4-0.1c0.7-0.2,1.5-0.7,2.2-1.3l-0.6,0L110.1,133.1 M104.3,111.5l-0.9-0.6l-2.7-1.6v3.8l-17.6,10.2h-3.6
	L62,113.2v-2.4l-2.5,1.3l21.8,12.6L104.3,111.5 M105.8,109.5l0.3-0.1l0.3,0l0.6,0.2l-6.3-3.7v3.6l2.7,1.6L105.8,109.5 M116,121.5
	l-3.8-2.1l-5.3-3.1c-1.3-0.2-2.7,0.2-4.2,1.2c-1.5,1.1-2.8,2.5-3.9,4.3c-1.1,1.9-1.7,3.8-1.8,5.7c-0.1,1.9,0.3,3.2,1.3,4.1
	c-1-0.9-1.4-2.2-1.3-4.1c0.1-1.9,0.7-3.8,1.8-5.7c1.1-1.8,2.3-3.3,3.9-4.3c1.5-1.1,2.9-1.5,4.2-1.2l-2.6-1.5v0.9v-0.9v-3.3l-23,13.2
	v20.8l5.2-3.7l-1.6-0.7l-2.6-1.5l0.7-5.3l3.9-3.9l2.6,1.5l3.3,1.3l-0.3,2.2l1.5,0.9l1.8,0.7l6-3.3l-3-1.8l3,1.8l5.3,3
	c-1.1-0.7-1.7-2-1.7-4c0-2,0.6-4,1.8-6.1c1.3-2.2,2.8-3.7,4.4-4.6C113.3,121,114.8,120.9,116,121.5 M116.1,121.5L116.1,121.5
	c-1.3-0.7-2.7-0.5-4.4,0.4c-1.6,0.9-3.1,2.5-4.4,4.6c-1.2,2.1-1.8,4.2-1.8,6.1c0,2,0.5,3.3,1.7,4l0.1,0l0,0c1.2,0.7,2.7,0.5,4.4-0.5
	l-0.4,0.1c-0.9,0.2-1.7,0.2-2.3-0.2h0l-0.1,0l-1-0.5c-1-0.6-1.5-1.7-1.5-3.4c0-1.7,0.5-3.5,1.5-5.3c1-1.7,2.2-3.1,3.7-4
	c1.4-0.8,2.7-0.9,3.7-0.3l0.6,0.3l0.5,0.2c0.7,0.4,1.1,1,1.3,1.8l0.1,0.4l0-0.7C117.7,123.2,117.1,122.2,116.1,121.5 M119.4,118.9
	c-0.4,0.1-0.6,0.5-0.7,1.1c-0.2,0.7-0.1,1.3,0.1,2l0.2,0.6c0.2,0.6,0.5,1,0.8,1.3l0.8,0.5l5.1,2.9v-0.6l-0.1-0.1l0.2-1.2l0-3
	l-5.9-3.4H119.4 M112.7,119.3l-0.4,0l3.8,2.1l0,0c1.1,0.6,1.6,1.7,1.8,3.2l0.5-0.3v-2.2v-5.9l-4.9,2.8
	C113.1,119.3,112.9,119.3,112.7,119.3 M119.2,113.7l-0.4,0.5c-0.5,0.5-0.7,1.2-0.8,2l0.3,0.2v5.9l0.7,0.3l-0.2-0.6
	c-0.2-0.7-0.2-1.3-0.1-2c0.1-0.6,0.4-0.9,0.7-1.1h0.4l5.9,3.4l0.8-1.7c0.8-1.4,1.8-2.4,3-3.1c1-0.6,1.9-0.7,2.7-0.4l-5.7-3.3
	l-0.4-0.2c-0.2-0.1-0.5-0.2-0.9-0.2c-0.4,0-0.7,0-1.1,0c-0.5,0.1-1.1,0.4-1.7,0.7c-1.3,0.8-2.4,2.1-3.1,3.8l-0.2,0.6l0.2-0.6
	c0.7-1.7,1.7-2.9,3.1-3.8c0.6-0.3,1.2-0.6,1.7-0.7l-0.7-0.4c-0.6-0.3-1.1-0.4-1.7-0.4C120.8,112.7,119.9,113,119.2,113.7
	 M118.8,114.2l-0.2-0.6l-2.5,1.4l1.9,1.1C118.1,115.3,118.3,114.7,118.8,114.2 M115.4,103.5l-3.3,1.9v9.2l-0.3,1.4l-0.7,1.5l0.7-1.5
	l0.3-1.4v-9.2l-11.8-6.8v0.6l0.5,0.3v2v4.3l6.3,3.7l-0.6-0.2l-0.3,0l-0.3,0.1l-2.4,1.4l0.9,0.6v3.3l2.6,1.5l5.3,3.1l0.4,0
	c0.2,0,0.5-0.1,0.7-0.2l4.9-2.8l-0.3-0.2l-1.9-1.1c-0.4-0.3-0.7-0.7-0.7-1.2v-8.4V103.5 M109.1,106.5c0.1,0,0.2,0.1,0.3,0.1
	c0.3,0.2,0.6,0.5,0.8,0.9c0.2,0.4,0.4,0.8,0.4,1.2c0,0.1,0,0.2,0,0.3c-0.1,0.2-0.2,0.4-0.4,0.5c-0.1,0.1-0.3,0.1-0.5,0l-0.4,0.2
	c-0.2,0.1-0.4,0-0.7,0c-0.2-0.1-0.5-0.3-0.8-0.8c-0.2-0.3-0.2-0.5-0.2-0.8c-0.1-0.4,0-0.7,0.3-0.8h0l0.4-0.3
	c0.1-0.2,0.2-0.4,0.3-0.4C108.8,106.4,108.9,106.4,109.1,106.5 M107.6,108.1c0,0.2,0.1,0.5,0.2,0.8c0.3,0.5,0.5,0.7,0.8,0.8
	c0.1,0,0.2,0,0.4-0.1c0.2-0.1,0.2-0.2,0.2-0.5c0-0.2-0.1-0.5-0.2-0.8c-0.4-0.7-0.8-0.9-1.2-0.7C107.7,107.6,107.6,107.8,107.6,108.1
	 M109.4,106.6c-0.1-0.1-0.2-0.1-0.3-0.1l-0.8,0.5c0,0.1,0,0.2,0,0.3c0.1,0,0.2,0,0.3,0.1c0.2,0.2,0.5,0.4,0.7,0.7
	c0.2,0.3,0.3,0.7,0.3,1c0,0.1,0,0.2,0,0.4c0.1,0,0.1,0,0.2,0l0.9-0.5c0-0.1,0-0.2,0-0.3c0-0.4-0.1-0.8-0.4-1.2
	C110,107.1,109.8,106.8,109.4,106.6 M114.1,102.8l1.3,0.7v2l0.7-0.4c0.3-0.3,0.3-0.9-0.1-1.6c-0.4-0.7-0.9-1-1.3-1L114.1,102.8
	 M118.1,103.9l-0.7,0.4l-1.3,0.7l-0.7,0.4v8.4c0.1,0.5,0.3,0.9,0.7,1.2l2.5-1.4l1-0.8v-6.3l-0.7,0.3c-0.3,0.1-0.5-0.1-0.5-0.4l0-0.2
	l-0.2-1.5L118.1,103.9 M116.8,102.9c-0.4-0.7-0.7-1.1-0.9-1.2l-1.3,0.7c0.5,0,0.9,0.3,1.3,1c0.4,0.7,0.5,1.3,0.1,1.6l1.3-0.7
	C117.4,103.9,117.2,103.4,116.8,102.9 M118.1,103.8c-0.1-0.5-0.3-0.9-0.6-1.3c-0.3-0.5-0.6-0.9-0.9-1.1l-0.7,0.4
	c0.2,0.2,0.6,0.6,0.9,1.2c0.3,0.5,0.5,1,0.6,1.4l0.7-0.4L118.1,103.8 M116,100.7L116,100.7l0.5-1.2l-1.1,0.6l-0.1-0.7
	c0-0.3-0.1-0.4-0.4-0.4l-0.2,0l0.1,0.7L116,100.7 M116,100.7l0.7,0.6c0.3,0.2,0.6,0.6,0.9,1.1c0.3,0.4,0.5,0.8,0.6,1.3l0,0.1
	l0.1,0.9l0.6-0.3c0.3-0.2,0.5-0.5,0.5-1c0-0.3,0-0.6-0.1-0.8l-0.3-0.8l-0.5-0.7c-0.3-0.3-0.5-0.5-0.7-0.6c-0.5-0.3-0.9-0.3-1.2-0.1
	L116,100.7L116,100.7 M129.2,105.7c-0.9,0.4-1.6,0.9-2.1,1.5l-0.4,0.5c-0.5,0.9-0.8,1.9-0.8,3c0,0.4,0,0.9,0.1,1.4
	c-0.7-0.3-1.3-0.3-1.9,0c-0.3,0.2-0.5,0.6-0.7,1l0.7,0.4c0.4,0,0.7,0,1.1,0l0.7-1.1l-0.7,1.1c0.4,0.1,0.7,0.1,0.9,0.2l0.4,0.2
	c0.1-1.5,0.6-3.1,1.7-4.7c1-1.4,2.1-2.3,3.3-2.9l0.9-0.4l-0.2-1.1c-0.2,0.1-0.6,0.2-1.1,0.2C130.5,105.1,129.8,105.3,129.2,105.7
	 M127.1,105.8c-0.3,1-0.7,1.9-1.4,2.7l-2.5,3.6l-0.3,0.6l1.8-1.1l0.7-0.5l0.6-0.5c0-1.1,0.3-2.1,0.8-3l0.4-0.5V105.8 M128.8,104.4
	l0.3,1.2c0.7-0.3,1.3-0.5,2-0.7c-0.5,0-1-0.1-1.5-0.2L128.8,104.4 M127.5,103.2l0,0.6c-0.1,0.8-0.2,1.4-0.4,2v1.3
	c0.5-0.6,1.2-1.1,2.1-1.5l-0.3-1.2C128.3,104.2,127.8,103.8,127.5,103.2 M125.8,98.3c-0.2-0.3-0.8-0.2-1.8,0.3
	c-0.8,0.4-1.8,1.1-2.9,2l-2,2c0.1,0.3,0.1,0.6,0.1,0.8c0,0.5-0.2,0.8-0.5,1l-0.6,0.3l0.2,1.5l0,0.2c0,0.3,0.2,0.4,0.5,0.4l0.7-0.3
	v6.3l-1,0.8l0.2,0.6l0.4-0.5c0.7-0.7,1.5-1,2.5-1c0.6,0,1.2,0.1,1.7,0.4c0.2-0.4,0.4-0.7,0.7-1c0.6-0.3,1.2-0.3,1.9,0
	c-0.1-0.6-0.1-1-0.1-1.4l-0.6,0.5l-0.7,0.5l-1.8,1.1l0.3-0.6l2.5-3.6c0.7-0.9,1.1-1.8,1.4-2.7c0.2-0.6,0.3-1.2,0.4-2l0-0.6
	c0-1.3-0.4-2.7-1.2-4.1L125.8,98.3 M123.3,95.6L123.3,95.6l-6.8,3.9l-0.4,1.2l0.5-0.3c0.3-0.2,0.7-0.1,1.2,0.1
	c0.2,0.1,0.4,0.3,0.7,0.6l4.7-2.8l0.7-0.6c0.4-0.4,0.7-0.8,0.8-1.2c0.2-0.4,0.1-0.8-0.1-1C124.2,95.3,123.8,95.3,123.3,95.6
	 M116.8,76.4L116.8,76.4l-0.4-0.3l-0.9,0.6l0.9,0.6l0,0h0l0.3-0.5C116.7,76.6,116.8,76.5,116.8,76.4 M104.2,96.9
	c-0.6-0.8-1.3-1.4-2-1.9c-0.7-0.4-1.3-0.5-1.9-0.3l4.1,2.4L104.2,96.9 M104.3,97.1l0.2,0.1l1.8-1c0.3-0.3,0.4-0.6,0.5-0.9
	c0.1-0.5-0.2-1-0.7-1.4c-0.5-0.4-1.1-0.7-1.9-0.8c-1-0.1-1.7,0.1-2.3,0.7l-1.7,1c0.6-0.2,1.2-0.1,1.9,0.3c0.8,0.4,1.5,1.1,2,1.9
	L104.3,97.1 M100.3,98.2l0,0.3v0.1l11.8,6.8l3.3-1.9l-1.3-0.7l-9.5-5.5l-0.2-0.1l-4.1-2.4L95.4,92v3.9l1.8,1.1l0.7-0.1
	c0.7,0,1.2,0.1,1.7,0.4C100,97.4,100.3,97.8,100.3,98.2L100.3,98.2 M98.6,87.8l-0.1,0l-0.3,0.1L96.5,89l0.5-0.1l0.2-0.1l0.4-0.2
	l1,0.6l0.3-0.1v-0.8C98.9,88,98.8,87.9,98.6,87.8 M98.5,87.8l0.1,0l-0.8-0.5L95.4,86v2.2L96,89l0.4,0h0l1.7-1.2L98.5,87.8
	 M102.1,85.8L102.1,85.8c-0.9,0.5-1.6,1.4-2,2.5l0.9,0.6c0.4,0.2,0.6,0.5,0.6,0.9v0.3v-0.3c0-0.4-0.2-0.7-0.6-0.9l-0.9-0.6l-1.2,0.7
	l-0.3,0.1l-1-0.6l-0.4,0.2L97,88.9L96.5,89h0h0L96,89l-0.6-0.3V92l4.8,2.8l1.7-1c0.6-0.5,1.4-0.7,2.3-0.7c0.7,0.1,1.4,0.4,1.9,0.8
	c0.5,0.4,0.7,0.9,0.7,1.4c0,0.3-0.2,0.7-0.5,0.9l-1.8,1l9.5,5.5l0.5-0.3l1.3-0.7l0.7-0.4l-0.7-0.6l-1.2-1l-0.1-0.7l0.5-0.3l-1-0.6
	l1.4-0.8l-1-0.6c-0.2-0.2-0.7-0.4-1.4-0.4c-0.6,0-1,0.1-1.3,0.3c0.3-0.2,0.8-0.3,1.3-0.3c0.7,0,1.2,0.1,1.4,0.4l1,0.6
	c-0.3-1.5-0.9-3-1.9-4.6c-1.6-2.8-3.5-4.9-5.8-6.2c-2.1-1.3-4-1.5-5.6-0.8L102.1,85.8 M106.1,83.5l-0.6,0.4l-1.5,0.9l-0.2,0.1
	l-1.4,0.8c1.6-0.7,3.4-0.5,5.6,0.8c2.3,1.3,4.2,3.4,5.8,6.2c0.9,1.6,1.5,3.2,1.9,4.6l-1.4,0.8l1,0.6l-0.5,0.3l0.2,0
	c0.3,0,0.4,0.1,0.4,0.4l0.1,0.7l1.1-0.6l6.8-3.9l0,0c0.6-0.2,1-0.2,1.2,0c0.2,0.2,0.2,0.5,0.1,1c-0.1,0.4-0.4,0.8-0.8,1.2l-0.7,0.6
	l-4.7,2.8l0.5,0.7l0.3,0.8l2-2c1.1-1,2.1-1.6,2.9-2c0.9-0.5,1.5-0.6,1.8-0.3l0.5,0.8l-1.2-9.2c-0.5-1.5-1.2-2.9-2.1-4.2
	c-1.6-2.4-3.5-4.2-5.6-5.3c-2.1-1.1-3.9-1.2-5.3-0.3l-3.8,2.2l-0.7,0.4l-0.4,0.2l-0.8,0.4L106.1,83.5 M105.3,83l0.8,0.5l0.3-0.2
	l0.3-0.5l0-0.1l-0.5-0.2L105.3,83 M105,83.3l-0.6,0.2l-6.6,3.8l0.8,0.5c0.2,0.1,0.2,0.2,0.2,0.4v0.8l1.2-0.7c0.4-1.1,1.1-2,2-2.5
	l0,0l0.3-0.1l1.4-0.8l0-0.4l1.5-0.9L105,83.3 M106.2,82.5l-0.4-1.1l-0.1-0.1l-0.8,0.5l0.5,1.2L106.2,82.5 M105.3,81.1l0.4,0.2
	l0.1,0.1l0.4,0.2l0.5,1.1l0,0.1l-0.3,0.5l0.8-0.4c0-0.4-0.2-0.7-0.4-1.1c-0.3-0.5-0.6-0.9-1-1.1c-0.4-0.2-0.7-0.3-1-0.1
	c-0.3,0.2-0.4,0.5-0.4,0.9v0c0,0.4,0.1,0.9,0.4,1.4l0.2,0.4l0.3,0.3l0.3,0.3l0.6-0.4l-0.8-0.5l-0.5-1.2L105.3,81.1 M105.4,79.8
	l-0.7,0.4l0.1,0c0.3-0.2,0.7-0.1,1.2,0.2c0.5,0.3,0.8,0.7,1.1,1.3c0.2,0.2,0.3,0.6,0.4,1l0.7-0.4c-0.4-1.2-1.1-2.2-2-2.9L105.4,79.8
	 M116,71.5c0.3-0.3,0.7-0.2,1.3,0.1c0.7,0.3,1.2,0.9,1.6,1.7c0.3,0.7,0.6,1.3,0.7,1.8l0.7-0.5c-0.2-0.8-0.4-1.3-0.5-1.4
	c-0.4-0.8-1-1.5-1.7-1.9c-0.7-0.4-1.3-0.5-1.8-0.2L116,71.5 M114.4,73.4c0.3-0.2,0.6-0.1,1.1,0.1c0.5,0.2,0.9,0.7,1.2,1.2
	c0.3,0.6,0.5,1.1,0.5,1.6c0,0.5-0.2,0.9-0.5,1.1l0.7-0.4l0.8-0.5l-0.1-0.5l0.8-0.5c0-0.5-0.1-1.1-0.4-1.7c-0.3-0.6-0.7-1-1.2-1.3
	c-0.4-0.3-0.8-0.3-1.2-0.1L115,73L114.4,73.4 M115.7,75l-0.8,0.5l0.5,1.3l0.9-0.6l-0.4-1L115.7,75 M113.9,74.6L113.9,74.6
	c0,0.5,0.1,1,0.4,1.4c0.2,0.5,0.6,0.8,1,1.1h0c0.3,0.2,0.6,0.3,0.9,0.1l-0.9-0.6l-0.5-1.3l0.5-0.7l0.3,0.2l0.2,0.1l0.4,0.2l0.4,1
	c0,0,0-0.1,0-0.1c0-0.5-0.2-0.9-0.5-1.4c-0.2-0.5-0.6-0.8-1-1.1c-0.4-0.2-0.7-0.2-1-0.1C114,73.8,113.9,74.2,113.9,74.6 M112,74.2
	l-0.6,0.2c-0.6,0.1-1.2,0.3-1.8,0.5l-0.3,0.2c-0.7,0.4-1.2,0.9-1.7,1.5l-0.3,0.3l-0.4,0.1l-0.2,0.1c-0.4,0.2-0.7,0.4-0.8,0.8
	l-0.2,0.8l0.6,0.5c0.9,0.7,1.6,1.7,2,2.9l3.8-2.2c1.4-0.9,3.2-0.8,5.3,0.3c2.1,1.1,4,2.8,5.6,5.3c0.9,1.4,1.6,2.8,2.1,4.2
	c0-0.9,0.2-1.6,0.6-2.3c0.3-0.6,0.8-1,1.3-1.3c-0.7-1.3-1.5-2.7-2.6-4.1c-1.8-2.4-3.7-4.3-5.7-5.6l-0.7-0.6l0.1,0.5l0.1,0.8
	l-0.1,0.8c-0.2,0.7-0.4,1.1-0.8,1.3c-0.6,0.3-1.4,0.2-2.2-0.3c-0.9-0.5-1.6-1.3-2.2-2.4C112.4,76,112.1,75.1,112,74.2 M115.1,72.3
	l-0.5,0.3l-0.4,0.3l-1.6,1l-0.6,0.3c0.1,0.8,0.4,1.7,0.9,2.6c0.6,1.1,1.4,1.9,2.2,2.4c0.9,0.5,1.6,0.6,2.2,0.3
	c0.4-0.2,0.7-0.7,0.8-1.3l0.1-0.8l-0.9-0.3l-0.7,0.4h0c-0.4,0.2-0.8,0.1-1.3-0.3h0c-0.4-0.2-0.8-0.6-1-1.1c-0.3-0.5-0.4-0.9-0.4-1.4
	c-0.1-0.7,0.1-1.1,0.5-1.3h0.1L115,73L115.1,72.3 M115.7,71.5l-0.2,0.1c-0.2,0.1-0.4,0.3-0.4,0.7L115,73l1.2-0.7
	c0.3-0.2,0.7-0.1,1.2,0.1c0.5,0.3,0.9,0.8,1.2,1.3c0.3,0.7,0.4,1.2,0.4,1.7l0.7-0.4c-0.1-0.6-0.4-1.2-0.7-1.8
	c-0.4-0.8-0.9-1.3-1.6-1.7c-0.6-0.4-1.1-0.4-1.3-0.1H115.7 M138.9,94.2c-0.7,1.2-1.2,2.5-1.3,3.8c-0.1,1.2,0.2,2.2,0.8,2.8l-0.2-5
	l3.5-4.7h3.8l0.3,0.2c-0.2-0.3-0.4-0.6-0.7-0.7l-0.4-0.2c-0.8-0.3-1.7-0.1-2.7,0.5C140.7,91.6,139.7,92.7,138.9,94.2 M132.4,97.5
	l-1.4-0.8l1,5.8v1l0.3,1.3l0.2,1.1c0.8-0.2,1.5-0.2,2.2,0l6.2,3.6l-6.2-3.6c-0.7-0.2-1.4-0.2-2.2,0l-0.9,0.4
	c-1.2,0.6-2.3,1.6-3.3,2.9c-1.1,1.6-1.7,3.2-1.7,4.7l5.7,3.3l0.2,0.1l-0.2-0.1c-0.8-0.3-1.7-0.2-2.7,0.4c-1.2,0.7-2.2,1.7-3,3.1
	l-0.8,1.7l0,3l0.6-4l3.9-3.9l3.4,1.2l0.3-2.5c0.1-0.3,0.3-0.5,0.7-0.7l1.4-2.9l-0.1,0l1.7-0.9c0.2-0.2,0.4-0.3,0.6-0.5
	c0.6-0.4,1.1-0.6,1.7-0.8l1.1-0.7l2.6,1.5c0.3-0.7,0.5-1.4,0.5-2.3c0-0.7-0.1-1.4-0.4-2c0.2,0.7,0.4,1.4,0.4,2
	c0,0.9-0.2,1.7-0.5,2.3l1,0.6c1.2-2.7,1.5-6,0.9-10l-0.3-0.2l-0.5,0.5h-2.9l-1.3,4.7l1.3-4.7h-1.6l-1.9-1.1V101l-4.1-2.4l-0.6,0.4
	c0.3-0.2,0.6-0.1,1,0.1c0.4,0.2,0.8,0.6,1.2,1.2c0.3,0.5,0.5,1.1,0.5,1.6s-0.2,0.9-0.5,1.1v0l1.5-0.9l-1.5,0.9
	c-0.4,0.2-0.8,0.1-1.3-0.2c-0.4-0.2-0.7-0.6-1-1.1c-0.3-0.5-0.5-1-0.5-1.4c-0.1-0.7,0.1-1.1,0.5-1.3h0l0.1,0l0.6-0.4L132.4,97.5
	c-0.2,0.6-0.3,1.3-0.2,2c0.1,0.7,0.4,1.5,0.8,2.3c0.5,0.9,1.1,1.6,1.9,2.1c0.7,0.5,1.5,0.7,2.1,0.7c-0.7,0.1-1.4-0.2-2.1-0.7
	c-0.7-0.5-1.4-1.2-1.9-2.1c-0.4-0.8-0.7-1.6-0.8-2.3C132.1,98.8,132.2,98.1,132.4,97.5 M130.4,76.8c2,1.2,4.1,3.1,6.5,5.8
	c1.8,2,3.1,3.9,4.1,5.8l1.1,0.6l-0.5-1.2c-3.1-5.5-7.2-9.7-12.1-12.5L130.4,76.8 M138.8,87.1l-1.8-1l-0.3-0.2
	c-0.8-0.5-1.9-0.4-3.1,0.3c-1.2,0.7-2.2,1.8-3.1,3.2c-0.8,1.5-1.3,2.9-1.3,4.3c0,1.4,0.4,2.3,1.3,2.8l0.3,0.2l1.4,0.8l1.9,1.1
	l4.1,2.4v-0.1c-0.6-0.7-0.9-1.6-0.8-2.8c0.1-1.3,0.5-2.6,1.3-3.8c0.8-1.5,1.8-2.6,3-3.3c1-0.6,1.9-0.8,2.7-0.5l-2.5-1.4l-1.1-0.6
	l-0.6-0.4L138.8,87.1 M138.8,87.1l-1.5-2l0,0.1l-0.2,0.9L138.8,87.1 M133.6,85.2L133.6,85.2c-2.2-5.1-5.2-9-9.2-11.7l-0.9-0.8
	l-0.7-0.8l-0.3-0.5l0-0.1c-0.5-0.8-1.1-1.5-1.8-1.9c-0.7-0.4-1.3-0.5-1.9-0.2l-0.8,0.5l-1.7,1c0.5-0.2,1.1-0.1,1.8,0.4
	c0.7,0.5,1.4,1.3,2,2.2l0.4,0.9l-0.1,0.6l-0.7,0.5l-0.7,0.4l-0.8,0.5l0.7,0.6c2,1.3,3.9,3.2,5.7,5.6c1,1.4,1.9,2.8,2.6,4.1l0.1,0
	c0.2-0.7,0.6-1.3,1.3-1.8c0.7-0.4,1.5-0.6,2.4-0.5C131.8,84.2,132.7,84.6,133.6,85.2 M132.3,79l-0.7-0.8c-0.4-0.5-0.8-1-1.3-1.4
	l-1-1.4l-0.2-0.2l-2.6-5.5c-0.6-1.1-1.3-2-2.1-2.6c-0.9-0.6-1.6-0.7-2.3-0.3l-3.5,2c0.5-0.2,1.1-0.2,1.8,0.1c0.8,0.4,1.5,1,2,1.9
	l0.4,1.1l0.7,0.9l0.9,0.8c3.9,2.7,7,6.6,9.2,11.7l0.6,0.2l-0.6-0.2h0c-0.8-0.2-1.7-0.2-2.6,0.2c-1.2,0.5-2.1,1.4-2.8,2.6
	c-0.7,1.2-1,2.5-0.8,3.8c0.2,1.3,0.8,2.2,1.7,2.8c-1-0.6-1.5-1.5-1.7-2.8c-0.2-1.3,0.1-2.5,0.8-3.8c0.7-1.2,1.6-2.1,2.8-2.6
	c0.9-0.4,1.7-0.4,2.6-0.2c-0.8-0.6-1.7-1-2.7-1.2c-0.9-0.1-1.7,0-2.4,0.5c-0.7,0.5-1.1,1.1-1.3,1.8l-0.1,0c-0.6,0.2-1,0.6-1.3,1.3
	c-0.4,0.7-0.6,1.4-0.6,2.3l1.2,9.2c0.7,1.4,1.1,2.8,1.2,4.1c0.3,0.6,0.8,1,1.3,1.2l0.8,0.3c0.6,0.2,1.1,0.2,1.5,0.2
	c0.5-0.1,0.9-0.1,1.1-0.2l-0.3-1.3v-1l-1-5.8l-0.3-0.2c-0.9-0.5-1.3-1.4-1.3-2.8c0-1.4,0.4-2.8,1.3-4.3c0.9-1.5,1.9-2.5,3.1-3.2
	c1.2-0.7,2.2-0.8,3.1-0.3l0.3,0.2l0.2-0.9l-0.1-0.4l-0.2,0.1l-0.2,0.1c-0.7,0.2-1.5-0.7-2.3-2.6C134.1,81.7,133.5,80.6,132.3,79
	 M131.7,78.2l0.7,0.8c1.1,1.6,1.8,2.7,2,3.4c0.8,1.9,1.6,2.7,2.3,2.6l0.2-0.1l0.2-0.1l0.2,0.3l1.5,2l1.6,0.9c-0.9-1.5-2-3.1-3.4-4.7
	C135.3,81.2,133.5,79.5,131.7,78.2z"/>
<path class="st2" d="M62,110.8v2.4l17.6,10.2v-11.7L62,101.6V110.8 M83.2,111.7h-3.6v11.7h3.6V111.7 M100.7,109.4v-3.6v-4.3
	l-17.6,10.2v11.7l17.6-10.2V109.4 M71.5,84.8c-2.7-1.5-4-3.4-4.1-5.6v8.1l1.1-0.7c2,2.3,4.4,3.7,7.3,4.3l0,0v0v8.7l-1.5,0.9l-2-1.2
	l-1.3,0.7l-0.1,0l-2.2,1.3l-1.9,1.1l-0.1,0c-0.7,0.4-1.6,0.3-2.6-0.2l-0.7-0.3c-0.5-0.3-1-0.7-1.6-1.3v0.9l17.6,10.1h3.6l17.6-10.2
	v-2l-0.5-0.3v1.3c0,0.4-0.2,0.7-0.7,0.9c-0.5,0.3-1.1,0.4-1.7,0.4c-0.6,0-1.2-0.1-1.6-0.4c-0.4-0.3-0.7-0.6-0.7-0.9
	c0,2-1.2,3.8-3.4,5.3c-2.2,1.5-5,2.4-8.4,2.7v1.5c0,0.4-0.3,0.7-0.7,1c-0.5,0.2-1.1,0.4-1.7,0.4s-1.2-0.1-1.6-0.4
	c-0.5-0.3-0.7-0.6-0.7-1v-1.5c-2.8-0.2-5.2-0.9-7.2-2c-2.1-1.1-3.4-2.4-4.1-4c0.7,1.6,2,3,4.1,4c2,1.1,4.5,1.8,7.2,2v-0.7v-0.1
	c0-0.4,0.2-0.7,0.7-0.9c0.5-0.3,1-0.4,1.7-0.4s1.2,0.1,1.7,0.4c0.4,0.2,0.7,0.6,0.7,1v0.1v0.6c3.4-0.3,6.2-1.3,8.4-2.7
	c2.3-1.5,3.4-3.2,3.4-5.3l-0.1-4.1v-0.6V92v-3.3v-0.5V86v-6.6c-0.1,2.1-1.4,3.9-4.1,5.4c-2.7,1.6-6,2.4-9.9,2.4
	C77.5,87.2,74.2,86.4,71.5,84.8 M91.3,73.4c-2.8-1.6-6.1-2.4-9.9-2.4c-3.9,0-7.2,0.7-9.9,2.3c-2.7,1.6-4.1,3.5-4.1,5.8v0.1
	c0.1,2.2,1.4,4.1,4.1,5.6c2.8,1.6,6.1,2.4,9.9,2.4c3.9,0,7.2-0.8,9.9-2.4c2.7-1.5,4-3.3,4.1-5.4v-0.3C95.4,76.9,94.1,75,91.3,73.4z"
	/>
<path class="st3" d="M83,108.7c0.5-0.3,0.7-0.6,0.7-0.8v-0.1c0-0.4-0.2-0.7-0.7-1c-0.5-0.3-1-0.4-1.7-0.4s-1.2,0.1-1.7,0.4
	c-0.5,0.2-0.7,0.6-0.7,0.9v0.1c0,0.3,0.2,0.6,0.7,0.8c0.4,0.2,0.9,0.4,1.6,0.4C82,109.1,82.5,109,83,108.7 M82.9,107.7l0.3,0.8
	l-0.3,0.2l-0.2,0.1l-0.4,0.2l-1.1-0.1l-0.2,0l-0.3-0.7l0.9-0.6L82.9,107.7 M81,108.8l0.2,0l0.4-0.2v-1.1l-0.9,0.6L81,108.8
	 M82.9,108.6v-1l-1.3-0.2v1.1l1.1,0.1L82.9,108.6 M83.7,110v-1.5v-0.6c0,0.3-0.2,0.6-0.7,0.8c-0.5,0.2-1.1,0.4-1.7,0.4
	c-0.7-0.1-1.2-0.2-1.6-0.4c-0.5-0.3-0.7-0.6-0.7-0.8v0.7v1.5c0,0.4,0.2,0.7,0.7,1c0.5,0.2,1,0.4,1.6,0.4s1.2-0.1,1.7-0.4
	C83.5,110.7,83.7,110.4,83.7,110 M99.4,98.1l-1.3-0.2v1.1l1.1,0.2l0.2-0.1V98.1 M98.1,97.9l-1,0.6l0.3,0.7l0.2,0l0.4-0.2V97.9
	 M96.6,97.1l-0.4,0.1c-0.5,0.3-0.7,0.6-0.7,1c0,0.4,0.2,0.7,0.7,0.9c0.5,0.3,1,0.4,1.7,0.4c0.2,0,0.5,0,0.7,0l-1-0.2l-0.2,0
	l-0.3-0.7l1-0.6l1.3,0.2l0.4,0.7l-0.4,0.2l-0.2,0.1l-0.3,0.2c0.2-0.1,0.5-0.2,0.7-0.3c0.3-0.2,0.5-0.4,0.6-0.6l0-0.3v0
	c0-0.4-0.2-0.7-0.7-0.9c-0.5-0.2-1-0.4-1.7-0.4l-0.7,0.1L96.6,97.1 M96.6,97.1l-1.2-0.7l0.1,4.1c0,0.3,0.3,0.7,0.7,0.9
	c0.5,0.2,1,0.4,1.6,0.4c0.6,0,1.2-0.1,1.7-0.4c0.5-0.2,0.7-0.5,0.7-0.9v-1.3v-0.6v-0.1c-0.1,0.2-0.3,0.4-0.6,0.6
	c-0.2,0.1-0.4,0.2-0.7,0.3l-0.1,0h-0.1c-0.2,0-0.5,0-0.7,0c-0.7,0-1.2-0.1-1.7-0.4c-0.5-0.2-0.7-0.6-0.7-0.9c0-0.4,0.2-0.7,0.7-1
	L96.6,97.1 M230.3,61.9l-1.3,0.7c2.6,1.7,5.2,2.7,7.7,3.2c1,0.2,2,0.3,2.9,0.2C236.6,65.5,233.5,64.2,230.3,61.9 M230.8,60.8
	L230.8,60.8c2.5,1.8,5,2.9,7.5,3.5c2.4,0.6,4.7,0.5,6.7-0.1c0.1-0.1,0.2-0.2,0.4-0.4c-2,0.5-4.1,0.5-6.5-0.1
	c-2.4-0.6-4.8-1.7-7.2-3.3L230.8,60.8 M230.8,60.8l-0.1,0.3l-0.4,0.7v0c3.3,2.3,6.4,3.6,9.4,4.1c1.4-0.1,2.8-0.4,4-0.9
	c0.1,0,0.2-0.1,0.3-0.1c0.3-0.2,0.7-0.5,1-0.8c-2,0.7-4.2,0.7-6.7,0.1C235.8,63.7,233.3,62.6,230.8,60.8 M228.4,62.2l-0.9,0.5
	c3,2,5.9,3.2,8.6,3.7c2.8,0.4,5.3,0,7.4-1.2c0.1,0,0.1-0.1,0.2-0.1c-1.3,0.6-2.6,0.9-4,0.9c-0.9,0-1.9,0-2.9-0.2
	c-2.5-0.4-5.1-1.5-7.7-3.2C228.8,62.4,228.6,62.3,228.4,62.2 M228.2,60.3l-1.6,0.9l-0.3-0.6l-0.9,0.5l-0.1,0.5v0l0.8,0.5l2.6-1.5
	l0.5-0.8l0.4-0.7l0-0.6l-0.9,0.5L228.2,60.3L228.2,60.3 M214.8,17.7l-0.9,0.5c-1.6,3.2-2.2,7.2-1.6,12c0.6,4.8,2.1,9.6,4.6,14.5
	l2.3,3.9c2.8,4.3,5.9,7.8,9.4,10.6l0.9-0.5c-3.4-2.7-6.6-6.3-9.3-10.6l-2.3-3.9c-2.5-4.9-4.1-9.7-4.6-14.5
	C212.7,24.8,213.2,20.8,214.8,17.7 M211.5,19.5L211.5,19.5c-1.6,3.2-2.1,7.2-1.6,12c0.6,4.8,2.1,9.6,4.6,14.5l2.3,3.9
	c2.7,4.2,5.9,7.8,9.4,10.6l0.3,0.6l1.6-0.9c-3.6-2.9-6.9-6.7-9.8-11.2l-2.3-3.9c-2.6-5-4.2-9.9-4.9-14.7c-0.7-4.9-0.3-9,1.1-12.5
	l-1,0.6L211.5,19.5 M211.5,19.6l-0.9,0.5c-1.6,3.2-2.1,7.2-1.6,12c0.6,4.8,2.1,9.6,4.6,14.5l2.3,3.9c2.7,4.2,5.9,7.8,9.4,10.6
	l0.9-0.5c-3.5-2.8-6.7-6.3-9.4-10.6l-2.3-3.9c-2.5-4.9-4.1-9.7-4.6-14.5C209.4,26.7,209.9,22.8,211.5,19.6 M210.2,19.5L210.2,19.5
	c-1.6,3.3-2.2,7.4-1.6,12.3c0.6,5,2.2,10,4.8,15l2.3,3.9c2.9,4.5,6.1,8.1,9.7,10.9l0.1-0.5c-3.5-2.8-6.7-6.3-9.4-10.6l-2.3-3.9
	c-2.5-4.9-4.1-9.7-4.6-14.5c-0.6-4.8,0-8.8,1.6-12L210.2,19.5 M214.3,17.1l-0.7-0.4l-0.7,0.8l1.1,0.7l0.9-0.5L214.3,17.1 M212,18
	l-0.2-0.2l-1.4,0.8l-0.1,0.9v0l0.5,0.6l0.9-0.5v0l-0.2-0.9l1-0.6c-1.4,3.4-1.8,7.6-1.1,12.5c0.7,4.9,2.3,9.8,4.9,14.7l2.3,3.9
	c2.9,4.5,6.1,8.2,9.8,11.2v0l0.5-1c-3.5-2.8-6.6-6.3-9.4-10.6l-2.3-3.9c-2.5-4.9-4.1-9.8-4.6-14.5c-0.5-4.8,0-8.8,1.6-12l-1.1-0.7
	L212,18L212,18 M216.6,14.7c-0.5,0.2-0.9,0.3-1.3,0.5l-0.7,0.5l0.7,0.4L216.6,14.7 M232.9,16.8c-0.2,0.1-0.3,0.1-0.5,0
	c2.3,1.7,4.5,3.7,6.5,6l-5.3-6.5l-0.6,0.3C233,16.8,233,16.8,232.9,16.8 M232.8,15.4C232.7,15.4,232.7,15.3,232.8,15.4
	c-0.4-0.5-0.7-0.7-1-0.5c-0.3,0.2-0.3,0.7,0,1.3c0.2,0.3,0.4,0.6,0.7,0.7c0.2,0.1,0.3,0,0.5,0c0.1,0,0.1-0.1,0.1-0.1
	c0.1-0.1,0.1-0.2,0.1-0.4c0-0.3-0.1-0.5-0.2-0.8v0C232.8,15.5,232.8,15.4,232.8,15.4 M225.4,11.2C225.5,11.2,225.5,11.2,225.4,11.2
	l-5.5,0.4c1.9,0.1,3.9,0.6,6,1.5c-0.2-0.1-0.4-0.3-0.5-0.6C225.1,11.9,225.1,11.5,225.4,11.2 M225.2,10.7L225.2,10.7l-3.4-2
	c-1.6,0.2-3,0.7-4.2,1.4l-4.2,2.5c1.8-1,3.7-1.4,5.9-1.4L225.2,10.7 M219.9,10.8l2.5-1.4L219.9,10.8 M225.5,11.2L225.5,11.2
	C225.5,11.2,225.5,11.2,225.5,11.2c-0.4,0.3-0.4,0.7,0,1.3c0.1,0.2,0.3,0.4,0.5,0.6h0c0.2,0.1,0.4,0.2,0.5,0.1
	c0.2-0.1,0.2-0.3,0.2-0.5c0-0.3-0.1-0.5-0.2-0.8C226.2,11.3,225.8,11.1,225.5,11.2 M229.3,10.6c-0.2,0.2-0.3,0.6-0.1,1.3
	C229,11.3,229,10.8,229.3,10.6c0.2-0.1,0.5-0.1,0.8,0.1l0.9,0.5l0.2-0.1c0.2-0.1,0.3-0.4,0.3-0.8c0-0.4-0.1-0.8-0.4-1.2
	c-0.4-0.7-0.9-1-1.4-1l-2,0.1l0.6,0.5c0.3,0.5,0.4,0.9,0.2,1.2c-0.3,0.6-1.2,0.9-2.7,0.8c0.3,0.1,0.7,0.4,1,1
	c0.2,0.4,0.3,0.8,0.3,1.2c0,0.3,0,0.5-0.1,0.6l2.4-1.3l3,1.7L234,13l-3-1.7l-0.9-0.5C229.8,10.6,229.5,10.5,229.3,10.6 M248.5,44.3
	l0.5,0.2h0c-1.1-4.2-2.8-8.5-5.2-12.7c-4.1-7-9-12.2-14.7-15.5c-5.8-3.3-10.7-3.8-14.7-1.4c-1.1,0.6-2.1,1.5-3,2.6l0.3,0.3L212,18
	l0.1,0c0.7-1,1.7-1.8,2.8-2.5c0.2-0.1,0.3-0.2,0.5-0.2c0.4-0.2,0.8-0.4,1.3-0.5c0.1-0.1,0.3-0.1,0.5-0.2c4-1.1,8.6-0.1,13.6,3.3
	c5,3.3,9.3,8.1,12.9,14.2C245.8,35.9,247.4,40,248.5,44.3 M249.5,47l-0.5-0.1c0.6,3.6,0.6,6.9,0,9.9c-0.6,2.9-1.8,5.2-3.5,7
	c0,0,0,0,0,0c-0.1,0.1-0.2,0.2-0.4,0.4c-0.3,0.3-0.7,0.5-1,0.8c-0.1,0.1-0.2,0.1-0.3,0.1c-0.1,0-0.1,0.1-0.2,0.1
	c-2.1,1.2-4.6,1.6-7.4,1.2c-2.8-0.4-5.7-1.7-8.6-3.7l-0.1,0.6c3.1,2.1,6,3.3,8.9,3.8c2.9,0.5,5.4,0.1,7.6-1.2
	c2.5-1.5,4.3-3.9,5.3-7.2C250.1,55.3,250.2,51.4,249.5,47 M250.4,46.5l-0.9,0.5c0.7,4.4,0.6,8.3-0.4,11.6c-1,3.3-2.7,5.7-5.3,7.2
	c-2.2,1.3-4.7,1.7-7.6,1.2c-2.9-0.4-5.9-1.7-8.9-3.8l0.1-0.6l0.9-0.5c0.2,0.1,0.4,0.2,0.7,0.4l1.3-0.7v0l0.4-0.7l-1.5-1.2l-0.5,0.8
	l-2.6,1.5l-0.8-0.5v0c-3.6-2.8-6.8-6.5-9.7-10.9l-2.3-3.9c-2.6-5-4.2-10.1-4.8-15c-0.6-4.9,0-9,1.6-12.4l0.1-0.9l1.4-0.8l-0.3-0.3
	c0.9-1.1,1.9-2,3-2.6c4-2.4,8.9-1.9,14.7,1.4c5.8,3.3,10.7,8.5,14.7,15.5c2.4,4.2,4.1,8.4,5.2,12.7l0.8-0.5
	c-1.1-4.1-2.8-8.3-5.3-12.6c-3.4-5.9-7.5-10.6-12.3-14.2c-0.3-0.2-0.6-0.5-0.8-0.9c-0.2-0.4-0.3-0.8-0.4-1.2c0-0.3,0.1-0.6,0.3-0.7
	c0,0,0.1,0,0.1,0l0.8-0.5l-3-1.7l-2.4,1.3c-0.1,0.1-0.1,0.1-0.2,0.1c-0.2,0.1-0.5,0.1-0.8-0.1c-4.8-2-8.9-1.9-12.3,0
	c-4,2.3-6.1,6.7-6.4,13.2c-0.2,6.5,1.5,13.3,5.3,20.4l2.3,3.9c4.3,6.8,9.4,11.7,15.1,14.8c5.7,3.1,10.6,3.4,14.6,1.1
	c4.2-2.4,6.4-7.2,6.4-14.1C250.9,50.8,250.8,48.6,250.4,46.5 M245.1,31.1l-0.3,0.1c4.3,7.5,6.5,14.8,6.5,21.9
	c0,6.9-2.1,11.6-6.2,14.2l4.1-2.4c4.3-2.5,6.5-7.3,6.5-14.4c0-7.1-2.2-14.4-6.5-21.9L245.1,31.1 M244.8,31.3l0.3-0.1
	c-1.7-3-3.7-5.8-6-8.5l-6.2-7.6l0,0c-0.5-0.6-0.9-0.8-1.3-0.6c0,0-0.1,0-0.1,0c-0.2,0.2-0.3,0.4-0.3,0.7c0,0.4,0.2,0.8,0.4,1.2
	c0.2,0.4,0.4,0.7,0.8,0.9c4.8,3.6,8.9,8.3,12.3,14.2c2.4,4.3,4.2,8.5,5.3,12.6c0.2,0.7,0.3,1.4,0.5,2.1c0,0.1,0.1,0.3,0.1,0.4
	c0.4,2.1,0.6,4.3,0.6,6.4c0,7-2.1,11.7-6.4,14.1c-4,2.4-8.9,2-14.6-1.1c-5.7-3-10.7-8-15.1-14.8l-2.3-3.9
	c-3.7-7.1-5.5-13.9-5.3-20.4c0.2-6.5,2.3-10.9,6.4-13.2c3.4-2,7.5-2,12.3,0c0.3,0.2,0.6,0.2,0.8,0.1c0.1,0,0.1-0.1,0.2-0.1
	c0.1-0.1,0.1-0.3,0.1-0.6c0-0.4-0.1-0.8-0.3-1.2c-0.3-0.5-0.6-0.9-1-1c-0.2,0-0.4,0-0.6,0h-0.1l-6,0.4c-2.1,0-4.1,0.5-5.9,1.4
	l-0.1,0l0.3,0.5c1.8-1,3.7-1.5,5.8-1.5c0.2,0,0.4,0,0.7,0l5.5-0.4h0c0.3-0.1,0.7,0.1,1,0.7c0.2,0.2,0.2,0.5,0.2,0.8
	c0,0.2-0.1,0.4-0.2,0.5c-0.2,0.1-0.3,0-0.5-0.1h0c-2.1-0.9-4.2-1.4-6-1.5c-0.2,0-0.4,0-0.7,0c-2.1,0-4,0.5-5.8,1.5h0
	c-4.1,2.4-6.3,6.9-6.5,13.5c-0.2,6.6,1.6,13.5,5.4,20.8l2.3,3.9c4.4,6.9,9.5,12,15.3,15.1c5.8,3.1,10.7,3.5,14.9,1.1h0l0.3-0.1
	c4.2-2.6,6.2-7.3,6.2-14.2C251.4,46.1,249.2,38.8,244.8,31.3c-1.7-3-3.7-5.8-5.8-8.2l-0.1-0.1c-2-2.3-4.1-4.3-6.5-6
	c-0.2-0.1-0.4-0.3-0.7-0.7c-0.3-0.7-0.3-1.1,0-1.3c0.3-0.2,0.6-0.1,0.9,0.4c0,0,0,0.1,0,0.1c0,0,0.1,0.1,0.1,0.1l0.7,0.9l5.3,6.5
	L239,23C241.2,25.5,243.1,28.2,244.8,31.3 M249.2,28.8l0.3-0.2c-1.8-3.1-3.8-5.9-6-8.4l-6.3-7.7c-0.5-0.6-0.9-0.8-1.4-0.6L234,13
	l-1.6,0.9l-0.8,0.5c0.4-0.2,0.9,0,1.3,0.6l0,0l6.2,7.6c2.3,2.7,4.3,5.5,6,8.5L249.2,28.8 M239.6,22.4l3.5-2L239.6,22.4 M220.6,4.6
	c-0.4,0.2-0.7,0.6-1,1c-0.2,0.5-0.4,0.9-0.4,1.3c0,0.5,0.1,0.8,0.4,0.9l0.7,0l-0.5-0.3l0.5,0.3l1.5,0.8l3.4,2c0,0,0.1,0,0.1,0l0.1,0
	c0.2,0,0.3,0,0.4,0.1c1.5,0.1,2.5-0.2,2.7-0.8c0.1-0.3,0-0.7-0.2-1.2l-0.6-0.5h-0.1L221.9,5l-0.5-0.3l0.5,0.3l-0.3-0.5
	C221.3,4.3,220.9,4.3,220.6,4.6 M218,5.3l-0.8-0.4l-0.1,0.4v0l0.1,1.5l0.8,0.4V5.3 M218.8,4.6c-0.1,0.1-0.2,0.2-0.2,0.4
	c-0.3,0.5-0.4,0.9-0.4,1.3c0,0.5,0.1,0.8,0.4,1h0.1l0.8,0.5c-0.2-0.2-0.4-0.5-0.4-0.9c0-0.4,0.1-0.9,0.4-1.3c0.3-0.5,0.6-0.8,1-1
	c0.4-0.2,0.7-0.2,1-0.1L220.9,4l-0.3-0.2c-0.3-0.2-0.6-0.1-1,0.1c-0.2,0.1-0.4,0.3-0.6,0.4C219,4.4,218.9,4.5,218.8,4.6 M218.6,3.2
	l-0.5,0.4l-0.9,1.3l0.8,0.4c0.2-0.1,0.4-0.4,0.8-0.7c0.1-0.1,0.1-0.2,0.2-0.2c0.2-0.2,0.4-0.5,0.4-0.7L218.6,3.2 M218.1,3.6L217,2.9
	c-0.3-0.1-0.6,0.1-0.9,0.6c-0.1,0.2-0.2,0.4-0.2,0.7c0,0.2,0.1,0.4,0.2,0.5l1.1,0.7v0l0.1-0.4L218.1,3.6 M213.9,2.3
	c-0.3,0.6-0.3,0.9,0,1.2l1.1,0.7l-0.1-0.8l0.1,0.8l1.1,0.6c-0.1-0.1-0.2-0.2-0.2-0.5c0-0.2,0.1-0.5,0.2-0.7c0.3-0.5,0.6-0.7,0.9-0.6
	l-1-0.6c0,0-0.1,0-0.1,0c-0.2-0.1-0.4,0-0.7,0.3c0.2-0.3,0.4-0.4,0.7-0.3l-1-0.6h0C214.5,1.6,214.2,1.8,213.9,2.3 M213.7,1.1
	c-0.2-0.1-0.4,0-0.7,0.3C213.3,1.1,213.5,1,213.7,1.1l-1-0.6c-0.3-0.2-0.7,0-1,0.6c-0.1,0.2-0.2,0.5-0.2,0.7c0,0.2,0.1,0.4,0.2,0.4
	l1.1,0.7L212.7,2l0.1,0.8l1.1,0.6c-0.3-0.2-0.3-0.6,0-1.2c0.3-0.5,0.6-0.7,0.9-0.6L213.7,1.1C213.8,1.1,213.8,1.1,213.7,1.1z"/>
<path class="st4" d="M75.8,90.9l-1.4,0.9v8.7l1.5-0.9L75.8,90.9L75.8,90.9 M68.3,90.9c-1-0.5-1.8-0.7-2.5-0.4L63.4,92
	c0.8-0.4,1.7-0.3,2.7,0.3c1.1,0.6,2,1.6,2.7,2.9c0.8,1.3,1.2,2.6,1.1,3.8c0,1.2-0.4,2.1-1.1,2.6l2.2-1.3l0.1,0
	c0.7-0.5,1.1-1.3,1.1-2.5c0-1.3-0.4-2.5-1.2-3.8C70.3,92.5,69.4,91.5,68.3,90.9 M67.4,87.3l-0.5,0.2l7.4,4.3l1.4-0.9
	c-2.9-0.6-5.4-2-7.3-4.3L67.4,87.3 M73,92.7c-0.8-1.3-1.7-2.2-2.7-2.8c-1.1-0.6-2-0.7-2.7-0.3L66.9,90l-1.1,0.6
	c0.7-0.3,1.5-0.2,2.5,0.4c1,0.6,1.9,1.5,2.7,2.9c0.8,1.3,1.2,2.5,1.2,3.8c0,1.2-0.4,2-1.1,2.5l1.3-0.7L73,99
	c0.8-0.4,1.1-1.3,1.1-2.5C74.1,95.3,73.7,94,73,92.7 M70.2,89.9c1.1,0.6,2,1.5,2.7,2.8c0.7,1.3,1.1,2.6,1.1,3.8
	c0,1.2-0.3,2.1-1.1,2.5l-0.6,0.4l2,1.2v-8.7l-7.4-4.3V90l0.7-0.4C68.3,89.1,69.2,89.2,70.2,89.9 M63.4,92l-1.9,1.1
	c0.7-0.4,1.6-0.3,2.6,0.3c1,0.6,1.9,1.5,2.7,2.9c0.8,1.3,1.2,2.5,1.2,3.8c0,1.2-0.4,2-1.1,2.5l1.9-1.1c0.7-0.5,1.1-1.3,1.1-2.6
	c0.1-1.2-0.3-2.5-1.1-3.8c-0.7-1.3-1.6-2.3-2.7-2.9C65.1,91.6,64.2,91.5,63.4,92 M60.3,95.6l0,0.7c0,1.1,0.3,2.2,1,3.3
	c0.2,0.4,0.5,0.7,0.8,1.1c0.6,0.6,1.1,1.1,1.6,1.3l0.7,0.3c0.6,0.2,1.1,0.2,1.7-0.1c0.7-0.4,1-1.1,1-2.2c0-1.1-0.3-2.1-1-3.3
	c-0.7-1.1-1.4-2-2.4-2.5c-0.9-0.5-1.7-0.6-2.4-0.2C60.8,94.4,60.5,94.9,60.3,95.6 M61.6,97.2c0-0.8,0.2-1.4,0.7-1.7
	c0.5-0.3,1.1-0.2,1.9,0.2c0.7,0.4,1.3,1.1,1.9,2c0.5,0.9,0.8,1.8,0.8,2.6c0,0.8-0.3,1.4-0.8,1.7c-0.5,0.3-1.1,0.2-1.9-0.2
	c-0.7-0.4-1.3-1.1-1.9-2C61.8,98.8,61.6,98,61.6,97.2 M62.3,95.4c-0.5,0.3-0.7,0.9-0.7,1.7c0,0.8,0.2,1.7,0.7,2.6
	c0.5,0.9,1.1,1.5,1.9,2c0.7,0.4,1.4,0.5,1.9,0.2c0.5-0.3,0.8-0.9,0.8-1.7c0-0.8-0.3-1.7-0.8-2.6c-0.5-0.9-1.1-1.5-1.9-2
	C63.4,95.2,62.8,95.1,62.3,95.4 M61.5,93.1L61.5,93.1c-0.8,0.5-1.1,1.3-1.2,2.6c0.2-0.7,0.5-1.2,0.9-1.5c0.7-0.4,1.5-0.3,2.4,0.2
	c0.9,0.5,1.7,1.4,2.4,2.5c0.7,1.1,1,2.2,1,3.3c0,1.1-0.3,1.8-1,2.2c-0.5,0.3-1.1,0.3-1.7,0.1c1,0.5,1.8,0.6,2.6,0.2l0.1,0
	c0.7-0.4,1.1-1.3,1.1-2.5c0-1.3-0.4-2.5-1.2-3.8c-0.8-1.3-1.7-2.3-2.7-2.9C63.1,92.8,62.3,92.7,61.5,93.1z"/>
<path id="Layer4_5_1_STROKES" class="st5" d="M213.7,1.1c-0.2-0.1-0.4,0-0.7,0.3 M218,7.3l-0.8-0.4l-0.1-1.5L216,4.7L215,4.1
	l-1.1-0.7l-1.1-0.6l-1.1-0.7c-0.1-0.1-0.2-0.2-0.2-0.4c0-0.2,0.1-0.4,0.2-0.7c0.3-0.5,0.6-0.7,1-0.6l1,0.6c0,0,0.1,0,0.1,0l1,0.6h0
	l1,0.6c0,0,0.1,0,0.1,0l1,0.6l1.2,0.7l0.5-0.4l1.4,0.1l0.7,0.4l0,0.3l0.7,0.4l0.3,0.5l5.8,3.3h0.1l2-0.1c0.5,0,1,0.3,1.4,1
	c0.2,0.4,0.4,0.8,0.4,1.2c0,0.4-0.1,0.7-0.3,0.8l-0.2,0.1l3,1.7l1.8-1.1c0.5-0.2,0.9,0,1.4,0.6l6.3,7.7c2.2,2.5,4.2,5.3,6,8.4
	l-0.3,0.2c4.3,7.5,6.5,14.8,6.5,21.9c0,7-2.2,11.8-6.5,14.4l-4.1,2.4l-0.3,0.1h0c-4.1,2.4-9.1,2-14.9-1.1
	c-5.8-3.1-10.9-8.1-15.3-15.1l-2.3-3.9c-3.8-7.3-5.6-14.2-5.4-20.8c0.2-6.6,2.3-11.1,6.5-13.5h0l-0.3-0.5l0.1,0l4.2-2.5
	c1.1-0.7,2.5-1.1,4.2-1.4l-1.5-0.8l-0.7,0l-0.8-0.5h-0.1L218,7.3v-2l-0.8-0.4l-0.1,0.4v0 M212.8,2.8L212.7,2 M214.8,1.7
	c-0.3-0.1-0.6,0.1-0.9,0.6c-0.3,0.6-0.3,0.9,0,1.2 M215.9,2.3c-0.2-0.1-0.4,0-0.7,0.3 M217,2.9c-0.3-0.1-0.6,0.1-0.9,0.6
	c-0.1,0.2-0.2,0.4-0.2,0.7c0,0.2,0.1,0.4,0.2,0.5 M218.8,4.6c-0.1,0.1-0.2,0.2-0.2,0.4c-0.3,0.5-0.4,0.9-0.4,1.3
	c0,0.5,0.1,0.8,0.4,1 M219,4.4c-0.1,0.1-0.1,0.1-0.2,0.2c-0.3,0.3-0.6,0.6-0.8,0.7 M215,4.1l-0.1-0.8 M217.3,4.9l0.9-1.3 M219.4,3.6
	l1.4,0.1 M219.6,7.9c-0.2-0.2-0.4-0.5-0.4-0.9c0-0.4,0.1-0.9,0.4-1.3c0.3-0.5,0.6-0.8,1-1c0.4-0.2,0.7-0.2,1-0.1 M220.9,4l-0.3-0.2
	c-0.3-0.2-0.6-0.1-1,0.1c-0.2,0.1-0.4,0.3-0.6,0.4c0.2-0.2,0.4-0.5,0.4-0.7l-0.8-0.4 M221.4,4.7l0.5,0.3 M172.7,55.5
	c-3.8-2.4-7.3-3-10.5-2c-0.2,0.1-0.5,0.2-0.7,0.3 M177.3,59.2c0.9,0.8,1.7,1.8,2.5,2.7c0.8,1,1.6,2.1,2.3,3.3
	c0.1,0.2,0.2,0.4,0.3,0.6l0.2,0.3 M184.3,69c0.7,1.3,1.2,2.6,1.7,4l1,3.4c0.2,0.7,0.3,1.5,0.4,2.3c0.7,4.6,0,8.3-2,11l-0.2,0.4
	c0,0,0,0.1,0,0.1c0,0-0.1,0-0.1,0c-0.1,0.1-0.2,0.2-0.3,0.4c-0.1,0.1-0.1,0.1-0.1,0.2c-0.2,0.1-0.3,0.3-0.5,0.4l-0.5,0.4
	c-1.3,0.9-2.7,1.4-4.3,1.4l-3.7-0.6c-0.4-0.1-0.8-0.3-1.2-0.4l-0.2-0.1 M170.4,89.9l-3-2.4c0.3,0.3,0.6,0.6,1,0.9l3.3,2.4l0,0
	c0.1,0,0.1,0.1,0.2,0.1c0.4,0.2,0.7,0.4,1.1,0.7c0.1,0.1,0.3,0.2,0.4,0.2c4.5,2.3,8.2,2.4,11.3,0.1c3.2-2.6,4.4-6.8,3.7-12.5
	c-0.6-4.7-2-9.1-4.5-13.1c-2.2-4-5.1-7.4-8.5-10.2c-4.3-3.4-8.3-4.8-12.2-4c-4.1,1.1-6.3,4.2-6.8,9.3c0,0.2,0,0.4,0,0.6
	c0,0,0,0.1,0,0.1l0.1,1.6l0-1.1c0,0,0-0.1,0-0.1L157,60 M157,68.3l0.1,1.4c-0.5-2-0.7-4-0.6-6 M157.2,69.8c0,0.1,0,0.2,0,0.2
	c0,0.1,0,0.1,0,0.2c0.1,0.3,0.2,0.6,0.3,0.9l0.9,2.5l0.1,0.3 M160.4,78.1l1-0.6c-3-5.9-4.3-11.4-3.7-16.4c-0.2,1.1-0.2,2.2-0.3,3.3
	l1,8.6c0.2,0.5,0.3,1.1,0.5,1.6l0.2,0.6c0,0.1,0.1,0.2,0.1,0.3c0,0,0,0.1,0,0.1c0,0,0,0.1,0,0.1C159.6,76.5,160,77.3,160.4,78.1z
	 M131.7,78.2l0.7,0.8c1.1,1.6,1.8,2.7,2,3.4c0.8,1.9,1.6,2.7,2.3,2.6l0.2-0.1l0.2-0.1l0.2,0.3l1.5,2l1.6,0.9c-0.9-1.5-2-3.1-3.4-4.7
	C135.3,81.2,133.5,79.5,131.7,78.2c-0.4-0.5-0.8-1-1.3-1.4l-1-1.4l-0.2-0.2l-2.6-5.5c-0.6-1.1-1.3-2-2.1-2.6
	c-0.9-0.6-1.6-0.7-2.3-0.3l-3.5,2c0.5-0.2,1.1-0.2,1.8,0.1c0.8,0.4,1.5,1,2,1.9l0.4,1.1l0.7,0.9l0.9,0.8c3.9,2.7,7,6.6,9.2,11.7
	l0.6,0.2 M133.6,85.2L133.6,85.2c-0.9-0.2-1.7-0.2-2.6,0.2c-1.2,0.5-2.1,1.4-2.8,2.6c-0.7,1.2-1,2.5-0.8,3.8
	c0.2,1.3,0.8,2.2,1.7,2.8 M120.3,74.7l-0.7,0.5l-0.7,0.4l-0.8,0.5l0.7,0.6c2,1.3,3.9,3.2,5.7,5.6c1,1.4,1.9,2.8,2.6,4.1l0.1,0
	c0.2-0.7,0.6-1.3,1.3-1.8c0.7-0.4,1.5-0.6,2.4-0.5c1,0.2,1.9,0.5,2.7,1.2 M138.8,87.1l-1.8-1l-0.3-0.2c-0.8-0.5-1.9-0.4-3.1,0.3
	c-1.2,0.7-2.2,1.8-3.1,3.2c-0.8,1.5-1.3,2.9-1.3,4.3c0,1.4,0.4,2.3,1.3,2.8l0.3,0.2l1.4,0.8l1.9,1.1l4.1,2.4v-0.1
	c-0.6-0.7-0.9-1.6-0.8-2.8c0.1-1.3,0.5-2.6,1.3-3.8c0.8-1.5,1.8-2.6,3-3.3c1-0.6,1.9-0.8,2.7-0.5l-2.5-1.4l-1.1-0.6l-0.6-0.4
	 M137.1,86.1l0.2-0.9l-0.1-0.4 M137.3,85.2l0-0.1 M141,88.4c-1-1.9-2.3-3.8-4.1-5.8c-2.4-2.7-4.6-4.6-6.5-5.8 M145.7,91.4l-0.3-0.2
	h-3.8l1.9,1.1l3.8,0L145.7,91.4c-0.2-0.3-0.4-0.6-0.7-0.7l-0.4-0.2l0.4,0.2l0,0 M142.1,89l-0.5-1.2c-3.1-5.5-7.2-9.7-12.1-12.5
	 M148.3,95.8l-1.8-1.1c-0.5-0.3-1.1-0.3-1.8,0.1c-0.7,0.4-1.2,1-1.6,1.7c-0.4,0.8-0.6,1.5-0.7,2.2c-0.1,0.7,0.1,1.2,0.6,1.5l0,0
	l2.3,1.3l0.3,0.2l0.6,0.3l0.6,0.3l0.2,0.1l0.3,0.1l0.2,0.1h0.1l0.8,0.1l4.3,0c0.7,0,1.2-0.4,1.7-1c0.5-0.6,0.7-1.3,0.8-2.2
	c0-0.9-0.2-1.7-0.7-2.3c-0.4-0.7-1-1-1.6-1h-3.6L148.3,95.8l-1-3.5 M138.2,95.9L140,97l3.5-4.7 M138.4,100.9l-0.2-5l3.5-4.7
	 M164.2,83.7c-0.4-0.4-0.7-0.9-1.1-1.3l-1.2-1.6l1-0.6c3.2,5,7,8.5,11.2,10.7c-3.3-1.4-6.1-3.3-8.5-5.6
	C165.2,84.8,164.7,84.2,164.2,83.7z M152.8,96.4h1.6h1.5c0.7,0,1.2,0.4,1.6,1c0.5,0.7,0.7,1.4,0.7,2.3c0,0.9-0.3,1.7-0.7,2.3
	c-0.5,0.6-1,0.9-1.7,0.9h-1.3h-1.8 M154.4,102.9c0.6,0,1.1-0.3,1.5-0.9c0.5-0.6,0.7-1.3,0.8-2.3c0-0.9-0.2-1.7-0.7-2.3
	c-0.4-0.7-1-1-1.6-1 M167.4,87.5c-0.1-0.1-0.1-0.1-0.1-0.1l-3-3.4 M198.1,61.3L198.1,61.3c0.1,0.1,0.1,0.1,0.1,0.1
	c0.1,0.1,0.3,0.2,0.4,0.3c0.7,0.4,1.4,0.5,2,0.2h0c0,0,0.1,0,0.1,0c0.1-0.1,0.2-0.1,0.3-0.2c1.1-1,1.1-2.6-0.2-4.8
	c-1.3-2.3-2.7-3.2-4.2-2.7c-1.5,0.5-1.7,2-0.6,4.7c-1.3-2.8-1.2-4.6,0.4-5.3c1.5-0.7,3.1,0.2,4.8,2.7c0.4,0.7,0.8,1.3,1,1.9
	c0.5,1.5,0.4,2.7-0.3,3.7c0,0-0.1,0.1-0.1,0.1 M200.4,62.6c-1,0-2-0.7-3.3-2.1l-0.1-0.1l-0.1-0.2c0,0,0-0.1,0-0.1l-0.2-0.2l0.6-0.3
	c0.8,1.2,1.8,2,2.9,2.1c-0.2,0-0.3,0.1-0.5,0.1c-0.1,0-0.1,0-0.1,0l-2.5-1.4c-0.1-0.1-0.2-0.2-0.2-0.2 M196.7,58.5
	c-0.7-1.3-0.9-2.6-0.6-3.7c-0.4,0.4-0.6,1.1-0.6,2c0.1,0.7,0.2,1.3,0.5,2L196.7,58.5z M198.1,61.3c-0.3-0.2-0.6-0.5-0.9-0.8
	 M201.8,61.8c-0.1,0.1-0.1,0.1-0.1,0.1c-0.4,0.4-0.8,0.6-1.3,0.7 M172.7,55.5c0.6,0.4,1.1,0.8,1.8,1.3c1,0.8,2,1.6,2.9,2.5
	 M182.6,66.1c0.2,0.3,0.3,0.6,0.5,0.8c0.4,0.7,0.8,1.4,1.2,2.1 M174.2,92c-0.2-0.1-0.4-0.2-0.6-0.3c-1.1-0.5-2.2-1.1-3.3-1.8
	 M233.6,16.4l5.3,6.5L239,23c2.1,2.4,4.1,5.2,5.8,8.2l0.3-0.1c-1.7-3-3.7-5.8-6-8.5l-6.2-7.6l0,0c-0.5-0.6-0.9-0.8-1.3-0.6
	c0,0-0.1,0-0.1,0c-0.2,0.2-0.3,0.4-0.3,0.7c0,0.4,0.2,0.8,0.4,1.2c0.2,0.4,0.4,0.7,0.8,0.9c4.8,3.6,8.9,8.3,12.3,14.2
	c2.4,4.3,4.2,8.5,5.3,12.6c0.2,0.7,0.3,1.4,0.5,2.1c0,0.1,0.1,0.3,0.1,0.4c0.4,2.1,0.6,4.3,0.6,6.4c0,7-2.1,11.7-6.4,14.1
	c-4,2.4-8.9,2-14.6-1.1c-5.7-3-10.7-8-15.1-14.8l-2.3-3.9c-3.7-7.1-5.5-13.9-5.3-20.4c0.2-6.5,2.3-10.9,6.4-13.2c3.4-2,7.5-2,12.3,0
	c0.3,0.2,0.6,0.2,0.8,0.1c0.1,0,0.1-0.1,0.2-0.1c0.1-0.1,0.1-0.3,0.1-0.6c0-0.4-0.1-0.8-0.3-1.2c-0.3-0.5-0.6-0.9-1-1
	c-0.2,0-0.4,0-0.6,0h-0.1l-6,0.4c-2.1,0-4.1,0.5-5.9,1.4 M249,46.8l0.5,0.1l0.9-0.5 M249.8,44l-0.8,0.5h0l-0.5-0.2
	c-1.1-4.2-2.7-8.3-5-12.3c-3.6-6.2-7.9-10.9-12.9-14.2c-5-3.3-9.6-4.4-13.6-3.3l-0.9,1.1l-0.9,0.5l-0.7-0.4l-1,0.9l0.7,0.4l0.6,0.6
	c-1.6,3.2-2.1,7.2-1.6,12c0.6,4.8,2.1,9.6,4.6,14.5l2.3,3.9c2.8,4.3,5.9,7.9,9.3,10.6l0,0.6l-0.4,0.7l1.5,1.2l0.1-0.3v0l0.9-0.5
	c2.5,1.6,4.9,2.8,7.2,3.3c2.3,0.6,4.5,0.6,6.5,0.1c0,0,0,0,0,0c1.7-1.7,2.9-4.1,3.5-7c0.6-3,0.6-6.3,0-9.9l1.3-0.7 M249,44.5
	c-1.1-4.2-2.8-8.5-5.2-12.7c-4.1-7-9-12.2-14.7-15.5c-5.8-3.3-10.7-3.8-14.7-1.4c-1.1,0.6-2.1,1.5-3,2.6l0.3,0.3L212,18l0.1,0
	c0.7-1,1.7-1.8,2.8-2.5c0.2-0.1,0.3-0.2,0.5-0.2c0.4-0.2,0.8-0.4,1.3-0.5c0.1-0.1,0.3-0.1,0.5-0.2 M245.1,31.1l4.1-2.4 M231,11.2
	l-0.9-0.5c-0.3-0.2-0.6-0.2-0.8-0.1c-0.2,0.2-0.3,0.6-0.1,1.3 M225.8,10.8c1.5,0.1,2.5-0.2,2.7-0.8c0.1-0.3,0-0.7-0.2-1.2l-0.6-0.5
	 M213.5,13.1c1.8-1,3.7-1.5,5.8-1.5c0.2,0,0.4,0,0.7,0l5.6-0.4h0c0.3-0.1,0.7,0.1,1,0.7c0.2,0.2,0.2,0.5,0.2,0.8
	c0,0.2-0.1,0.4-0.2,0.5c-0.2,0.1-0.3,0-0.5-0.1h0c-2.1-0.9-4.2-1.4-6-1.5 M225.1,10.7c0,0,0.1,0,0.1,0l0.1,0c0.2,0,0.3,0,0.4,0.1
	 M225.1,10.7L225.1,10.7 M226,13.1c-0.2-0.1-0.4-0.3-0.5-0.6c-0.4-0.7-0.4-1.1,0-1.3c0,0,0.1,0,0.1,0 M231.6,14.4l0.8-0.5l-3-1.7
	l-2.4,1.3 M232.9,15.5c-0.1-0.1-0.1-0.1-0.1-0.1c0,0,0-0.1,0-0.1c-0.3-0.4-0.6-0.6-0.9-0.4c-0.3,0.2-0.3,0.7,0,1.3
	c0.2,0.3,0.4,0.6,0.7,0.7c0.2,0.1,0.3,0,0.5,0c0.1,0,0.1-0.1,0.1-0.1c0.1-0.1,0.1-0.2,0.1-0.4C233.1,16.1,233.1,15.8,232.9,15.5
	L232.9,15.5l0.7,0.9l-0.6,0.3 M238.9,22.9c-2-2.3-4.1-4.3-6.5-6 M234,13l-1.6,0.9 M219.7,7.6l0.5,0.3 M219.9,10.8l2.5-1.4
	 M215.2,16.1l1.3-1.4 M213.6,16.6l-0.7,0.8l1.1,0.7l0.9-0.5 M212.8,17.5l-0.8,0.5 M211.8,17.8l-1.4,0.8l-0.1,0.9v0l0.5,0.6l0.9-0.5
	v0l-0.2-0.9l1-0.6c-1.4,3.4-1.8,7.6-1.1,12.5c0.7,4.9,2.3,9.8,4.9,14.7l2.3,3.9c2.9,4.5,6.1,8.2,9.8,11.2v0l0.5-1
	c-3.5-2.8-6.6-6.3-9.4-10.6l-2.3-3.9c-2.5-4.9-4.1-9.8-4.6-14.5c-0.5-4.8,0-8.8,1.6-12 M215.3,15.2l-0.7,0.5 M210.7,20.1
	c-1.6,3.2-2.1,7.2-1.6,12c0.6,4.8,2.1,9.6,4.6,14.5l2.3,3.9c2.7,4.2,5.9,7.8,9.4,10.6l0.9-0.5c-3.5-2.8-6.7-6.3-9.4-10.6l-2.3-3.9
	c-2.5-4.9-4.1-9.7-4.6-14.5c-0.6-4.8,0-8.8,1.6-12 M229.1,59.9l-0.5,0.8l-2.6,1.5l-0.8-0.5v0c-3.6-2.8-6.8-6.5-9.7-10.9l-2.3-3.9
	c-2.6-5-4.2-10.1-4.8-15c-0.6-4.9,0-9,1.6-12.4 M221.8,8.7l3.4,2 M226.3,60.6l0.3,0.6l1.6-0.9 M249.5,47c0.7,4.4,0.6,8.3-0.4,11.6
	c-1,3.3-2.7,5.7-5.3,7.2c-2.2,1.3-4.7,1.7-7.6,1.2c-2.9-0.4-5.9-1.7-8.9-3.8l0.1-0.6l0.9-0.5c0.2,0.1,0.4,0.2,0.7,0.4l1.3-0.7v0
	l0.4-0.7 M225.3,61.7l0.1-0.5 M228.6,59.2l0.9-0.5 M227.5,62.7c3,2,5.9,3.2,8.6,3.7c2.8,0.4,5.3,0,7.4-1.2c0.1,0,0.1-0.1,0.2-0.1
	c-1.3,0.6-2.6,0.9-4,0.9c-0.9,0-1.9,0-2.9-0.2c-2.5-0.4-5.1-1.5-7.7-3.2 M230.3,61.9c3.3,2.3,6.4,3.6,9.4,4.1 M243.7,65
	c0.1,0,0.2-0.1,0.3-0.1c0.3-0.2,0.7-0.5,1-0.8c-2,0.7-4.2,0.7-6.7,0.1c-2.5-0.6-5-1.7-7.5-3.4 M245,64.1c0.1-0.1,0.2-0.2,0.4-0.4
	 M245.1,67.4c4.2-2.6,6.2-7.3,6.2-14.2c0-7.1-2.2-14.4-6.5-21.9 M239.6,22.4l3.5-2 M67.4,87.3v-8.1v-0.1c0-2.3,1.4-4.2,4.1-5.8
	c2.8-1.6,6.1-2.4,9.9-2.3c3.9,0,7.2,0.8,9.9,2.4c2.7,1.6,4.1,3.5,4.1,5.7v0.3V86l2.4,1.3l6.6-3.8l0.6-0.2l-0.2-0.4
	c-0.3-0.5-0.4-1-0.4-1.4c-0.1-0.6,0-1.1,0.4-1.3l0.7-0.4l0.2-0.9l0.2-0.8c0.1-0.4,0.4-0.6,0.8-0.8l0.2-0.1l0.7-0.4
	c0.5-0.7,1-1.2,1.7-1.5l0.3-0.2l1.7-0.9l3.6-2 M67.4,79.2c0.1,2.2,1.4,4.1,4.1,5.6c2.8,1.6,6.1,2.4,9.9,2.4c3.9,0,7.2-0.8,9.9-2.4
	c2.7-1.5,4-3.3,4.1-5.4 M62,100.7c-0.3-0.4-0.6-0.7-0.8-1.1c-0.7-1.1-1-2.2-1-3.3l0-0.7c0.1-1.2,0.4-2.1,1.2-2.6h0l1.9-1.1l2.4-1.4
	l1.1-0.6v-2.4l0.5-0.2l1.1-0.7c2,2.3,4.4,3.7,7.3,4.3l0,0v0v8.7l-1.5,0.9l-2-1.2l-1.3,0.7l-0.1,0l-2.2,1.3l-1.9,1.1l-0.1,0
	c-0.7,0.4-1.6,0.3-2.6-0.2l-0.7-0.3C63.1,101.8,62.6,101.3,62,100.7v0.9l17.6,10.1h3.6l17.6-10.2v-2l-0.5-0.3v1.3
	c0,0.4-0.2,0.7-0.7,0.9c-0.5,0.3-1.1,0.4-1.7,0.4c-0.6,0-1.2-0.1-1.6-0.4c-0.4-0.3-0.7-0.6-0.7-0.9c0,2-1.2,3.8-3.4,5.3
	c-2.2,1.5-5,2.4-8.4,2.7v1.5c0,0.4-0.3,0.7-0.7,1c-0.5,0.2-1.1,0.4-1.7,0.4s-1.2-0.1-1.6-0.4c-0.5-0.3-0.7-0.6-0.7-1v-1.5
	c-2.8-0.2-5.2-0.9-7.2-2c-2.1-1.1-3.4-2.4-4.1-4 M61.6,97.2c0,0.8,0.2,1.7,0.7,2.6c0.5,0.9,1.1,1.5,1.9,2c0.7,0.4,1.4,0.5,1.9,0.2
	c0.5-0.3,0.8-0.9,0.8-1.7c0-0.8-0.3-1.7-0.8-2.6c-0.5-0.9-1.1-1.5-1.9-2c-0.7-0.4-1.4-0.5-1.9-0.2C61.8,95.7,61.6,96.3,61.6,97.2z
	 M60.3,95.6c0.2-0.7,0.5-1.2,0.9-1.5c0.7-0.4,1.5-0.3,2.4,0.2c0.9,0.5,1.7,1.4,2.4,2.5c0.7,1.1,1,2.2,1,3.3c0,1.1-0.3,1.8-1,2.2
	c-0.5,0.3-1.1,0.3-1.7,0.1 M66.9,90l0.7-0.4c0.7-0.4,1.6-0.3,2.7,0.3c1.1,0.6,2,1.5,2.7,2.8c0.7,1.3,1.1,2.6,1.1,3.8
	c0,1.2-0.3,2.1-1.1,2.5l-0.6,0.4 M65.8,90.6c0.7-0.3,1.5-0.2,2.5,0.4c1,0.6,1.9,1.5,2.7,2.9c0.8,1.3,1.2,2.5,1.2,3.8
	c0,1.2-0.4,2-1.1,2.5 M66.9,102.5c0.7-0.4,1.1-1.3,1.1-2.5c0-1.3-0.4-2.5-1.2-3.8c-0.8-1.3-1.7-2.3-2.7-2.9c-1-0.6-1.9-0.7-2.6-0.3
	 M68.9,101.4c0.7-0.5,1.1-1.3,1.1-2.6c0.1-1.2-0.3-2.5-1.1-3.8c-0.7-1.3-1.6-2.3-2.7-2.9c-1.1-0.6-2-0.7-2.7-0.3 M66.9,87.5l7.4,4.3
	l1.4-0.9h0 M118,69.6c0.1-0.3,0.2-0.6,0.5-0.8h0l0.1,0 M123.5,72.7l-0.7-0.8l-0.3-0.5l0-0.1c-0.5-0.8-1.1-1.5-1.8-1.9
	c-0.7-0.4-1.3-0.5-1.9-0.2l-0.8,0.5l-1.7,1c0.5-0.2,1.1-0.1,1.8,0.4c0.7,0.5,1.4,1.3,2,2.2l0.4,0.9l-0.1,0.6
	c-0.2-0.8-0.4-1.3-0.5-1.4c-0.4-0.8-1-1.5-1.7-1.9c-0.7-0.4-1.3-0.5-1.8-0.2l-0.4,0.4c0.3-0.3,0.7-0.2,1.3,0.1
	c0.7,0.3,1.2,0.9,1.6,1.7c0.3,0.7,0.6,1.3,0.7,1.8 M115.5,71.6l0.2-0.1h0.3 M114.6,72.6l0.5-0.3c0.1-0.3,0.2-0.5,0.4-0.7
	c0.1-0.5,0.3-0.8,0.6-0.9l0,0c0.1,0,0.1-0.1,0.2-0.1l-0.2,0.1 M112.6,73.9l1.6-1l0.4-0.3 M112,74.2l-0.6,0.2
	c-0.6,0.1-1.2,0.3-1.8,0.5 M112.6,73.9l-0.6,0.3c0.1,0.8,0.4,1.7,0.9,2.6c0.6,1.1,1.4,1.9,2.2,2.4c0.9,0.5,1.6,0.6,2.2,0.3
	c0.4-0.2,0.7-0.7,0.8-1.3l0.1-0.8l-0.9-0.3l-0.7,0.4h0c-0.4,0.2-0.8,0.1-1.3-0.3h0c-0.4-0.2-0.8-0.6-1-1.1c-0.3-0.5-0.4-0.9-0.4-1.4
	c-0.1-0.7,0.1-1.1,0.5-1.3h0.1L115,73l0.1-0.7 M113.9,74.7L113.9,74.7c0-0.5,0.1-0.8,0.4-1c0.3-0.2,0.7-0.1,1,0.1
	c0.4,0.2,0.7,0.6,1,1.1c0.3,0.5,0.5,1,0.5,1.4c0,0,0,0.1,0,0.1v0l0,0.1l-0.1,0.1l-0.3,0.5l0,0h0c-0.3,0.1-0.6,0.1-0.9-0.1
	 M115.4,74.8l-0.5,0.7l0.8-0.5L115.4,74.8z M116.7,77.4c0.3-0.2,0.5-0.5,0.5-1.1c0-0.5-0.2-1-0.5-1.6c-0.3-0.6-0.7-1-1.2-1.2
	c-0.4-0.3-0.8-0.3-1.1-0.1 M115,73l1.2-0.7c0.3-0.2,0.7-0.1,1.2,0.1c0.5,0.3,0.9,0.8,1.2,1.3c0.3,0.7,0.4,1.2,0.4,1.7 M115.9,75.1
	l0.4,1l0.4,0.2l-0.4-1L115.9,75.1l-0.2-0.1 M122.8,71.9L122.8,71.9 M107.6,76.7l-0.3,0.3l-0.4,0.1 M105.3,81.1l-0.5,0.7l0.8-0.5
	L105.3,81.1z M104.3,81.5L104.3,81.5c0-0.5,0.1-0.8,0.4-1c0.3-0.1,0.6-0.1,1,0.1c0.4,0.2,0.7,0.6,1,1.1c0.2,0.4,0.4,0.7,0.4,1.1
	l0.4-0.2c-0.1-0.4-0.3-0.8-0.4-1c-0.2-0.6-0.6-1-1.1-1.3c-0.5-0.3-0.9-0.3-1.2-0.2l-0.1,0 M105.4,79.8l0.8-0.5l-0.6-0.5 M106.2,82.5
	l0.5,0.2l-0.5-1.1l-0.4-0.2L106.2,82.5l-0.9,0.5l0.8,0.5l0.3-0.2l0.3-0.5l0-0.1 M104,84.7l1.5-0.9l-0.3-0.3l-1.5,0.9L104,84.7
	l-0.2,0.1l-1.4,0.8c1.6-0.7,3.4-0.5,5.6,0.8c2.3,1.3,4.2,3.4,5.8,6.2c0.9,1.6,1.5,3.2,1.9,4.6l-1.4,0.8l1,0.6l-0.5,0.3l0.2,0
	c0.3,0,0.4,0.1,0.4,0.4l0.1,0.7l1.1-0.6l6.8-3.9l0,0c0.6-0.2,1-0.2,1.2,0c0.2,0.2,0.2,0.5,0.1,1c-0.1,0.4-0.4,0.8-0.8,1.2l-0.7,0.6
	l-4.7,2.8l0.5,0.7l0.3,0.8l2-2c1.1-1,2.1-1.6,2.9-2c0.9-0.5,1.5-0.6,1.8-0.3l0.5,0.8l-1.2-9.2c-0.5-1.5-1.2-2.9-2.1-4.2
	c-1.6-2.4-3.5-4.2-5.6-5.3c-2.1-1.1-3.9-1.2-5.3-0.3l-3.8,2.2l-0.7,0.4 M105.5,83.9l0.6-0.4 M105.2,83.6l-0.3-0.3 M104.8,81.8
	l0.5,1.2 M103.8,84.8l0-0.4 M97.8,87.3l0.8,0.5c0.2,0.1,0.2,0.2,0.2,0.4v0.8l1.2-0.7c0.4-1.1,1.1-2,2-2.5l0,0l0.3-0.1 M107.2,82.9
	l-0.8,0.4 M106.2,79.4c0.9,0.7,1.6,1.7,2,2.9 M105.8,81.4l-0.1-0.1 M101.6,90.1v-0.3c0-0.4-0.2-0.7-0.6-0.9l-0.9-0.6 M96,89l0.4,0h0
	l1.7-1.2l0.3-0.1l0.1,0 M98.9,89.1l-0.3,0.1l-1-0.6l-0.4,0.2L97,88.9L96.5,89h0l0.5-0.1 M95.4,95.9V92v-3.3v-0.5V86 M95.4,88.7
	L96,89l-0.6-0.8 M95.4,95.9v0.6l1.2,0.7l0.7-0.2L95.4,95.9z M96.6,97.1l-0.4,0.1c-0.5,0.3-0.7,0.6-0.7,1c0,0.4,0.2,0.7,0.7,0.9
	c0.5,0.3,1,0.4,1.7,0.4c0.2,0,0.5,0,0.7,0l-1-0.2l-0.2,0l-0.3-0.7l1-0.6l1.3,0.2l0.4,0.7l-0.4,0.2l-0.2,0.1l-0.3,0.2
	c0.2-0.1,0.5-0.2,0.7-0.3c0.3-0.2,0.5-0.4,0.6-0.6l0-0.3v0c0-0.4-0.2-0.7-0.7-0.9c-0.5-0.2-1-0.4-1.7-0.4l-0.7,0.1 M100.2,99.2v-0.6
	v-0.1 M100.2,98.6l11.8,6.8l3.3-1.9l-1.3-0.7l-9.5-5.5l-0.2-0.1l-4.1-2.4L95.4,92 M104.5,97.2l1.8-1c0.3-0.3,0.4-0.6,0.5-0.9
	c0.1-0.5-0.2-1-0.7-1.4c-0.5-0.4-1.1-0.7-1.9-0.8c-1-0.1-1.7,0.1-2.3,0.7l-1.7,1c0.6-0.2,1.2-0.1,1.9,0.3c0.8,0.4,1.5,1.1,2,1.9
	l0.1,0.2 M118.1,76.5l0.1,0.8 M116.7,76.7c0-0.1,0-0.2,0-0.3 M116.3,77.3L116.3,77.3L116.3,77.3 M117.4,77l0.8-0.5l-0.1-0.5
	 M116.3,76.2l-0.9,0.6l0.9,0.6 M115.5,97.3l-1-0.6c-0.2-0.2-0.7-0.4-1.4-0.4c-0.6,0-1,0.1-1.3,0.3 M125.2,89.9
	c0-0.9,0.2-1.6,0.6-2.3c0.3-0.6,0.8-1,1.3-1.3 M114.9,75.5l0.5,1.3 M126.3,99.1c0.7,1.4,1.1,2.8,1.2,4.1c0.3,0.6,0.8,1,1.3,1.2
	l0.8,0.3c0.6,0.2,1.1,0.2,1.5,0.2c0.5-0.1,0.9-0.1,1.1-0.2l-0.3-1.3v-1l-1-5.8 M119.1,102.6c0.1,0.3,0.1,0.6,0.1,0.8
	c0,0.5-0.2,0.8-0.5,1l-0.6,0.3l0.2,1.5l0,0.2c0,0.3,0.2,0.4,0.5,0.4l0.7-0.3v6.3l-1,0.8l0.2,0.6l0.4-0.5c0.7-0.7,1.5-1,2.5-1
	c0.6,0,1.2,0.1,1.7,0.4c0.2-0.4,0.4-0.7,0.7-1c0.6-0.3,1.2-0.3,1.9,0c-0.1-0.6-0.1-1-0.1-1.4l-0.6,0.5l-0.7,0.5l-1.8,1.1l0.3-0.6
	l2.5-3.6c0.7-0.9,1.1-1.8,1.4-2.7c0.2-0.6,0.3-1.2,0.4-2l0-0.6 M127.1,105.8v1.3c0.5-0.6,1.2-1.1,2.1-1.5l-0.3-1.2 M127.1,107.2
	l-0.4,0.5c-0.5,0.9-0.8,1.9-0.8,3 M118.3,101.2c-0.3-0.3-0.5-0.5-0.7-0.6c-0.5-0.3-0.9-0.3-1.2-0.1l-0.5,0.3l0,0l0.7,0.6
	c0.3,0.2,0.6,0.6,0.9,1.1c0.3,0.4,0.5,0.8,0.6,1.3l0,0.1l0.1,0.9 M116.4,99.5l-0.4,1.2 M116.6,101.3l-0.7,0.4
	c0.2,0.2,0.6,0.6,0.9,1.2c0.3,0.5,0.5,1,0.6,1.4l0.7-0.4 M115.4,103.5v2l0.7-0.4c0.3-0.3,0.3-0.9-0.1-1.6c-0.4-0.7-0.9-1-1.3-1
	l-0.5,0.3 M116,100.7l-1.2-1l-0.1-0.7 M114.6,102.5l1.3-0.7 M117.4,104.3l-1.3,0.7 M115.4,105.5v8.4c0.1,0.5,0.3,0.9,0.7,1.2
	l2.5-1.4 M100.7,105.8l6.3,3.7l-0.6-0.2l-0.3,0l-0.3,0.1l-2.4,1.4l0.9,0.6v3.3l2.6,1.5l5.3,3.1l0.4,0c0.2,0,0.5-0.1,0.7-0.2l4.9-2.8
	l-0.3-0.2l-1.9-1.1 M118.3,116.3v5.9l0.7,0.3l-0.2-0.6c-0.2-0.7-0.2-1.3-0.1-2c0.1-0.6,0.4-0.9,0.7-1.1h0.4l5.9,3.4l0.8-1.7
	c0.8-1.4,1.8-2.4,3-3.1c1-0.6,1.9-0.7,2.7-0.4l-5.7-3.3l-0.4-0.2c-0.2-0.1-0.5-0.2-0.9-0.2c-0.4,0-0.7,0-1.1,0
	c-0.5,0.1-1.1,0.4-1.7,0.7c-1.3,0.8-2.4,2.1-3.1,3.8l-0.2,0.6 M108.9,136.2l-1-0.5c-1-0.6-1.5-1.7-1.5-3.4c0-1.7,0.5-3.5,1.5-5.3
	c1-1.7,2.2-3.1,3.7-4c1.4-0.8,2.7-0.9,3.7-0.3l0.6,0.3l0.5,0.2c0.7,0.4,1.1,1,1.3,1.8l0.1,0.4l0-0.7c-0.1-1.5-0.7-2.5-1.8-3.2l0,0
	c-1.2-0.7-2.7-0.5-4.4,0.5c-1.6,0.9-3.1,2.5-4.4,4.6c-1.2,2.1-1.8,4.2-1.8,6.1c0,2,0.5,3.3,1.7,4l0.1,0l0,0c1.2,0.7,2.7,0.5,4.4-0.5
	l-0.4,0.1c-0.9,0.2-1.7,0.2-2.3-0.2L108.9,136.2L108.9,136.2c-1-0.7-1.4-1.8-1.4-3.4c0-1.7,0.5-3.4,1.6-5.2c1-1.8,2.2-3.1,3.7-3.9
	c1.2-0.7,2.3-0.9,3.3-0.6 M116,121.5l-3.8-2.1 M118,116.1c0.1-0.8,0.4-1.4,0.8-2 M111,117.5l0.7-1.5l0.3-1.4v-9.2 M126,112.4
	l-0.7,1.1 M123.4,113.1l0.7,0.4 M126.6,113.9c0.1-1.5,0.6-3.1,1.7-4.7c1-1.4,2.1-2.3,3.3-2.9l0.9-0.4l-0.2-1.1 M110.6,109
	c0-0.1,0-0.2,0-0.3c0-0.4-0.1-0.8-0.4-1.2c-0.2-0.4-0.5-0.7-0.8-0.9c-0.1-0.1-0.2-0.1-0.3-0.1l-0.8,0.5c0,0.1,0,0.2,0,0.3
	c0.1,0,0.2,0,0.3,0.1c0.2,0.2,0.5,0.4,0.7,0.7c0.2,0.3,0.3,0.7,0.3,1c0,0.1,0,0.2,0,0.4c0.1,0,0.1,0,0.2,0L110.6,109
	c-0.1,0.2-0.2,0.4-0.4,0.5c-0.1,0.1-0.3,0.1-0.5,0l-0.4,0.2c-0.2,0.1-0.4,0-0.7,0c-0.2-0.1-0.5-0.3-0.8-0.8
	c-0.2-0.3-0.2-0.5-0.2-0.8c-0.1-0.4,0-0.7,0.3-0.8h0l0.4-0.3c0.1-0.2,0.2-0.4,0.3-0.4c0.2-0.1,0.3-0.1,0.5,0 M107.6,108.1
	c0-0.3,0.1-0.5,0.2-0.6c0.4-0.2,0.8,0,1.2,0.7c0.2,0.3,0.2,0.6,0.2,0.8c0,0.3-0.1,0.4-0.2,0.5c-0.1,0.1-0.2,0.1-0.4,0.1
	 M109.3,109.7c0.1-0.1,0.2-0.2,0.2-0.3 M107.9,107.3c0.1-0.1,0.2-0.1,0.4,0 M98.9,99.4c-0.1,0-0.2,0-0.2,0h0.1L98.9,99.4z
	 M97.7,99.3l0.4-0.2v-1.1 M98.1,99.1l1.1,0.2 M83.2,123.4l17.6-10.2v-3.8v-3.6v-4.3 M104.3,114.8v0.9 M98.4,131.6
	c-1-0.9-1.4-2.2-1.3-4.1c0.1-1.9,0.7-3.8,1.8-5.7c1.1-1.8,2.3-3.3,3.9-4.3c1.5-1.1,2.9-1.5,4.2-1.2 M103.4,111l-2.7-1.6 M113.9,135
	l-0.6,0l-3.3-1.9v-3.5l2.6-3.3l2.7,0.2l2.5,1.5c0.1-1,0.1-1.8,0-2.6 M99.1,138.4L99.1,138.4l-1.5-0.6c0.6,0.3,0.9,0.8,1.2,1.4
	c0.2,0.8,0.2,1.6-0.1,2.4c-0.3,0.9-0.8,1.5-1.4,1.9c-0.7,0.4-1.4,0.5-2,0.3l2,0.7c0.4,0,0.9-0.1,1.5-0.5c0.7-0.4,1.1-1,1.5-1.9
	c0.3-0.8,0.3-1.7,0.1-2.5C100.1,139.1,99.7,138.6,99.1,138.4l0.8,0.3c0.7,0.2,1.1,0.7,1.4,1.5s0.2,1.6-0.1,2.5
	c-0.3,0.8-0.8,1.4-1.5,1.9c-0.7,0.4-1.3,0.5-2,0.3l-0.5-0.2 M86.6,141.8l-1.6-0.7l-2.6-1.5l0.7-5.3l3.9-3.9l2.6,1.5l3.3,1.3
	l-0.3,2.2l1.5,0.9l1.8,0.7l6-3.3l-3-1.8 M97.7,137.8l-1.8-0.7 M107.1,136.7l-5.3-3 M108.9,136.2l0.1,0 M125.7,126.7v0.6l-5.1-2.9
	l0.7,0.5l0.7,0.4l1.4,0.9l1.4,0.8l0.8,0.6l0.1-0.1l0.2,0.2l0.5,0.4c0.5,0.3,1.1,0.4,1.9,0.2l-0.1,0L125.7,126.7l-0.1-0.1l0.2-1.2
	l0-3 M122.1,125.2l-0.5,0.6c-0.6,1-0.9,2-0.9,3c0,1,0.3,1.6,0.9,2v0l1.4,0.8v0c-0.6-0.3-0.9-1-0.9-2c0.1-1,0.4-2,0.9-3l0.4-0.6
	 M124.8,126.9l-0.4,0.6c-0.6,1-0.9,2-0.9,3c0,1,0.3,1.6,0.8,2h0c0.5,0.3,1.1,0.3,1.8,0c-0.3,0-0.6,0-0.9-0.2
	c-0.5-0.3-0.8-0.8-0.8-1.7c0-0.9,0.2-1.7,0.7-2.6l0.4-0.5l0.2,0.1l0-0.1 M124.4,132.4l-1.4-0.8l-1.4,0.8l-3-1.7v1.2l-2.6,3.3
	l-2.1-0.1c-0.8,0.7-1.5,1.1-2.2,1.3 M129.6,128.7l-0.3-0.1c-0.2,0.5-0.4,1-0.6,1.4c-0.4,0.7-0.9,1.3-1.6,1.7
	c-0.6,0.3-1.1,0.4-1.6,0.1c-0.4-0.2-0.6-0.7-0.6-1.4c0-0.7,0.2-1.4,0.7-2.2l0.3-0.5l0.6,0.3 M129.3,128.5l-1-0.4 M151.1,122.8
	L151,123c-0.6,1-1.2,1.7-2,2.1c-0.5,0.3-0.9,0.4-1.3,0.4c-0.5,0.2-0.9,0.2-1.3,0c-0.1,0-0.2-0.1-0.2-0.1h0l-0.9-0.5l-0.9-0.6
	l-0.1-0.1l-1.9-1l-0.3-0.2l-2.4,1.5l-0.2-0.2l-0.3,2.4c0,0.6-0.3,1.1-0.7,1.7c-0.4,0.5-0.9,0.8-1.6,1c-0.9,0.3-1.8,0.2-2.6-0.3
	l-1.6-0.9l-1.2,1.2l-1.8-0.7c-0.1,0.5-0.3,0.9-0.6,1.4c-0.6,0.9-1.2,1.6-1.9,2c-0.3,0.2-0.6,0.3-0.9,0.3 M128.2,128.1l0.7-5.2
	l-2.6-1.5l-0.6,4 M119.8,123.8c-0.3-0.3-0.5-0.7-0.8-1.3 M118.3,122.2v2.2l-0.5,0.3 M118.4,128.2c0-0.5,0.2-0.9,0.6-1.3h0l0.6-0.4
	l0.2-2.8l0.8,0.5 M112.7,126.2l3.3,1.9l2.6,0.2l-0.2-0.1l-0.5-0.3 M118.6,130.7v-1.8l0.9,0.5l1.9-4.6 M118.6,128.4v0.6 M110.1,129.5
	l3.3,1.9l2.6-3.3 M121.6,132.4l-2.1-3 M113.3,135v-3.5 M79,107.8c0,0.3,0.2,0.6,0.7,0.8c0.4,0.2,0.9,0.4,1.6,0.4
	c0.6,0,1.2-0.1,1.7-0.4c0.5-0.3,0.7-0.6,0.7-0.8v-0.1c0-0.4-0.2-0.7-0.7-1c-0.5-0.3-1-0.4-1.7-0.4s-1.2,0.1-1.7,0.4
	c-0.5,0.2-0.7,0.6-0.7,0.9V107.8v0.7 M83.7,107.9v0.6 M82.9,107.7l0.3,0.8l-0.3,0.2l-0.2,0.1l-0.4,0.2l-1.1-0.1l-0.2,0l-0.3-0.7
	l0.9-0.6L82.9,107.7v1 M82.7,108.7l-1.1-0.1l-0.4,0.2 M81.6,108.6v-1.1 M62,110.8l-2.5,1.3l21.8,12.6l23-13.2 M83.2,123.4h-3.6
	L62,113.2v-2.4v-9.2 M57.4,134.8c-0.2-0.2-0.4-0.4-0.6-0.7c-0.2-0.3-0.3-0.6-0.3-0.9c0-0.3,0.1-0.5,0.2-0.6c0.4-0.2,0.8,0,1.3,0.7
	c0.4,0.7,0.5,1.2,0.1,1.5C57.9,135,57.7,135,57.4,134.8z M56,135.5c-0.4,0.2-0.6,0.7-0.6,1.3c0,0.6,0.2,1.3,0.6,2s0.8,1.2,1.4,1.5
	c0.5,0.3,1,0.4,1.3,0.2c0.2-0.1,0.3-0.2,0.4-0.4c-0.9-0.1-1.6-0.7-2.2-1.7c-0.6-1.1-0.8-2-0.4-2.9C56.4,135.4,56.2,135.4,56,135.5z
	 M59.1,140c0.1-0.2,0.2-0.5,0.2-0.8c0-0.2,0-0.5,0-0.7l-0.2,0.3c-0.2,0.1-0.4,0.1-0.7-0.1c-0.2-0.2-0.5-0.4-0.7-0.8
	c-0.2-0.3-0.3-0.7-0.3-1c0-0.3,0.1-0.5,0.3-0.6c0.1-0.1,0.2-0.1,0.4,0c-0.2-0.2-0.4-0.4-0.7-0.5c-0.3-0.2-0.6-0.3-0.9-0.3
	 M59.3,138.5c-0.1-0.4-0.2-0.8-0.5-1.2c-0.2-0.4-0.5-0.7-0.7-1 M56.7,141.1c0.2-0.1,0.4-0.1,0.7,0c0.2,0.2,0.4,0.4,0.6,0.7
	c0.2,0.3,0.3,0.6,0.3,0.9c0,0.3-0.1,0.5-0.2,0.6c-0.4,0.2-0.8,0-1.3-0.7c-0.2-0.3-0.3-0.6-0.3-0.9C56.5,141.4,56.6,141.2,56.7,141.1
	z M57.1,145.7c1.8,1,3.4,1.1,4.7,0.3c1.4-0.8,2-2.3,2-4.5c0-2.2-0.7-4.5-2-6.9c-1.4-2.4-3-4.1-4.9-5.2c-2-1.1-3.6-1.3-5-0.5
	c-1.3,0.7-2,2.1-2,4.2v0.4c0,2.2,0.7,4.5,2,6.9c1.3,2.3,3,4.1,5,5.2L57.1,145.7c2,1.2,3.7,1.3,5.1,0.5h0c1.4-0.8,2.1-2.4,2.1-4.7
	c0.1-2.3-0.6-4.7-2.1-7.2c-1.5-2.5-3.2-4.3-5.1-5.4c-2-1.1-3.6-1.3-5-0.6l-0.2,0.1c-1.4,0.8-2.1,2.4-2.1,4.7 M64.7,144.9
	c1.2-0.9,1.8-2.4,1.8-4.5c0-2.4-0.7-4.8-2.1-7.2c-1.4-2.4-3.1-4.3-5.2-5.4c-1.9-1.1-3.5-1.3-4.8-0.7h0l-2.1,1.2l-0.2,0.1v0
	 M54.4,127.1c1.5-0.8,3.2-0.7,5.2,0.5c2,1.1,3.7,3,5.2,5.5c1.5,2.4,2.2,4.8,2.1,7.2c0,2.3-0.7,3.8-2,4.6l7.7-4.4l2.2-1.3
	c1.4-0.8,2.1-2.4,2.1-4.7c0-2.3-0.7-4.7-2.1-7.2c-1.5-2.5-3.2-4.3-5.2-5.5c-2-1.2-3.7-1.3-5.2-0.5l-4.7,2.7L54.4,127.1 M92.5,135.5
	l-2-1.2c-0.5-0.2-1-0.2-1.6,0.2c-0.7,0.4-1.2,0.9-1.6,1.7c-0.5,0.8-0.7,1.5-0.7,2.2c0,0.7,0.2,1.3,0.7,1.5l2.1,1.2l1.9,1.1l4,1.6
	 M83,134.4l2.6,1.5l3.9-3.9 M89.3,141.2l-1.2,1.2l-1.6-0.6l-5.2,3.7l-8.9-5.1 M84.9,141.2l0.7-5.2 M83.2,111.7v11.7 M59.6,124.1
	v-11.9 M79.6,123.4v-11.7 M62.3,146.2l2.3-1.3l0,0l0.1,0 M81.3,124.8v20.8 M163.5,137.4l-1.1-0.1l-4.1-2.4v-4.8l3.7-4.6l3.6,0.3
	l4.1,2.4v0.7c0.6,0.6,0.8,1.6,0.6,2.9c0,0,0,0.1,0,0.1c1.5,1,2.7,2.3,3.6,3.9l5.3,9.2l2.6-1.5l5.6,9.7l-0.4,0.2
	c4.2,7.5,6.6,12.5,7.2,15l1.2,3.3c0.1,0.4,0.2,0.8,0.2,1c0,0.7-0.2,1.3-0.7,1.9c-0.5,0.5-1.1,0.7-1.9,0.7c-0.5,0-1-0.2-1.5-0.5
	c-0.4-0.3-0.7-0.7-0.9-1.2c0.1,0.3,0.1,0.6,0.1,0.9c0,0.7-0.2,1.3-0.7,1.9c-0.5,0.5-1.1,0.7-1.9,0.7c-0.7,0-1.3-0.2-1.9-0.7
	c-0.2-0.3-0.4-0.6-0.6-0.9c0-0.1-0.1-0.2-0.1-0.2l-1.1-3.1c-0.7-2.2-2.1-5.2-4.2-9.2c-0.9-1.7-1.7-3.2-2.4-4.3l-0.7,0.4l-5.6-9.7
	l2.6-1.5l-5.4-9.2c-0.4-0.7-0.9-1.3-1.5-1.8c-1.3,1-2.4,1.3-3.3,0.7l-0.4-0.2L163.5,137.4c-0.7-0.5-1.1-1.4-1-2.5
	c0-1.1,0.4-2.3,1.1-3.6c0.7-1.2,1.6-2.1,2.6-2.7c1-0.6,1.9-0.6,2.6-0.1c0.2,0,0.5,0.1,0.7,0.2l-0.7-0.6l-2.6-0.2l-3.7,4.5v4.8
	 M169.8,129.1c-0.1-0.1-0.2-0.2-0.3-0.3 M168.8,128.2l1,0.1 M167.6,137c-0.1-0.1-0.2-0.1-0.2-0.1l-1.1-0.7c-0.4,0.1-0.7,0-1-0.1
	c-0.3-0.2-0.5-0.4-0.6-0.8c-0.1-0.2-0.1-0.4-0.1-0.7c0-0.7,0.2-1.5,0.7-2.3c0.4-0.8,1-1.3,1.6-1.7c0.2-0.1,0.4-0.2,0.6-0.2
	c0.4-0.1,0.7-0.1,1,0c0.3,0.2,0.6,0.5,0.7,0.9l1.3,0.7 M147.5,102.8c0.2,1.2,0.4,2.6,0.5,4.1c0.1,1.7,0,3.3-0.2,4.8
	c-0.2,1.5-0.5,2.8-0.8,3.8l1.7,1l2.3,1.4h0.1v0l0.1,0.1l0,0c0,0.1,0.1,0.2,0.1,0.2c0.1,0.3,0.2,0.4,0.2,0.5c0.2,0.4,0.2,0.8,0.2,1.3
	c0,0.8-0.2,1.7-0.7,2.6l7.6,4.4 M151,118L151,118l-0.3-0.1l0.1,0l0.3,0.2 M150.9,117.9L150.9,117.9c-0.5,0-1.1,0.2-1.9,0.7
	c-0.8,0.4-1.4,1.1-2,2.1c-0.6,1-0.8,1.9-0.8,2.8c0,0.9,0.3,1.5,0.8,1.8c0.2,0.1,0.4,0.2,0.7,0.2 M150.8,117.9L150.8,117.9
	L150.8,117.9 M150.1,117.7c-0.8,0-1.3,0-1.6,0.2c-0.9,0.5-1.7,1.3-2.3,2.4c-0.6,1.1-0.9,2.1-0.9,3.1c0,0.9,0.2,1.5,0.7,1.9l0,0
	c0,0,0.1,0,0.1,0l0.3,0.1 M151.1,122.8l-0.5-0.3l-0.1,0.1c-0.4,0.7-0.9,1.3-1.5,1.6c-0.6,0.3-1.1,0.4-1.5,0.1
	c-0.4-0.2-0.6-0.7-0.6-1.4c0-0.7,0.2-1.4,0.7-2.1c0.4-0.7,0.9-1.3,1.5-1.6c0.6-0.3,1.1-0.4,1.5-0.1c0.4,0.2,0.7,0.7,0.7,1.4
	c0,0.7-0.2,1.3-0.6,2l-2.6-1.5 M145.2,101.6l-0.5,0.5h-2.9l-1.3,4.7 M141.8,102.1h-1.6l-1.9-1.1V101 M145.3,112.8l1.4,2.6l0.2-0.4
	l-0.1,0.5h0c0.7-2.3,0.9-5.4,0.7-9.3c-0.1-1.2-0.2-2.3-0.4-3.4 M143.7,111.2c0.3-0.7,0.5-1.4,0.5-2.3c0-0.7-0.1-1.4-0.4-2 M133.7,99
	c0.3-0.2,0.6-0.1,1,0.1c0.4,0.2,0.8,0.6,1.2,1.2c0.3,0.5,0.5,1.1,0.5,1.6s-0.2,0.9-0.5,1.1v0l1.5-0.9 M135.2,100.8l0.3,1l0.4,0.2
	l-0.4-1L135.2,100.8l-0.3-0.1l-0.8,0.5l0.5,1.3l1-0.6 M135.6,102.8l0.4-0.7l0-0.2 M135.6,102.9L135.6,102.9c-0.3,0.2-0.7,0.1-1-0.1
	h0c0.5,0.4,1,0.4,1.3,0.2 M135.6,102.9L135.6,102.9L135.6,102.9L135.6,102.9z M133.7,99L133.7,99l-0.1,0c-0.4,0.2-0.6,0.6-0.5,1.3
	c0-0.5,0.1-0.8,0.4-0.9c0.3-0.2,0.7-0.1,1,0.1c0.4,0.2,0.8,0.6,1.1,1.1c0.3,0.4,0.5,0.9,0.5,1.4c0.1,0.5-0.1,0.8-0.4,0.9
	 M134.9,100.6l-0.3-0.2l-0.5,0.7 M133.1,100.3c0,0.5,0.2,0.9,0.5,1.4c0.2,0.5,0.6,0.8,1,1.1 M132.4,97.5c-0.2,0.6-0.3,1.3-0.2,2
	c0.1,0.7,0.4,1.5,0.8,2.3c0.5,0.9,1.1,1.6,1.9,2.1c0.7,0.5,1.5,0.7,2.1,0.7 M140.9,109.5l-6.2-3.6c-0.7-0.2-1.4-0.2-2.2,0
	 M134.5,102.4l1,0.5 M140,110.4c-0.6,0.2-1.1,0.4-1.7,0.8c-0.2,0.1-0.4,0.3-0.6,0.5L140,110.4l1.1-0.7l2.6,1.5l1,0.6
	c1.2-2.7,1.5-6,0.9-10 M136.1,112.6l0.4,0.2c0.4-0.5,0.8-0.9,1.3-1.2L136.1,112.6L136.1,112.6l-1.4,2.9c-0.4,0.2-0.6,0.4-0.7,0.7v0
	c0,0.2,0.1,0.5,0.3,0.7c0.2-1,0.7-2.1,1.4-3.1c0.2-0.3,0.5-0.7,0.8-1l3.2,1.9v0l5.1-3h0 M134.2,116.9c0.1,0.2,0.3,0.3,0.6,0.5
	c0.6,0.3,1.4,0.6,2.2,0.7c0.8,0.1,1.6,0.1,2.4-0.1c0.7-0.2,1-0.4,1.1-0.7v-0.2c0.1-0.4-0.1-0.7-0.5-0.9c0.1,0.1,0.1,0.2,0,0.3
	c0,0,0,0.1,0,0.1c0,0.1,0,0.2,0,0.3c0,0.2-0.3,0.4-0.7,0.6c-0.5,0.1-1,0.1-1.6,0c-0.6-0.1-1.1-0.2-1.5-0.5c-0.1-0.1-0.1-0.1-0.2-0.1
	c-0.2-0.1-0.5-0.2-0.7-0.3c-0.5-0.3-0.7-0.6-0.7-0.9c0-0.3,0.3-0.6,0.9-0.7c0.6-0.2,1.3-0.2,1.9,0c0.3,0,0.8,0.1,1.3,0.3l0.9-0.5
	l-0.4,0.7l0.1,0c0.3,0.2,0.6,0.4,0.7,0.7 M139.2,115.5l-0.5-0.2 M136.4,115.7c-0.4,0.1-0.7,0.3-0.7,0.6c0,0.2,0.1,0.4,0.4,0.7
	c0.3,0.1,0.7,0.2,1.2,0.3c0.7,0.1,1.3,0.1,2,0c0.5-0.1,0.8-0.3,0.9-0.6c-0.1-0.2-0.3-0.3-0.5-0.5c-0.4-0.2-0.9-0.4-1.5-0.5
	C137.4,115.6,136.8,115.6,136.4,115.7z M134.2,116.9c-0.1,0.5-0.2,1-0.2,1.4 M133.6,118.7l-0.3,2.5v0v0c0,0.4,0.2,0.8,0.8,1.2
	c0.6,0.3,1.4,0.6,2.2,0.7c0.9,0.1,1.6,0.1,2.3-0.1c0.6-0.1,0.9-0.4,1.1-0.7l0.2-1.3l0.2-1.2c-0.1,0.3-0.5,0.6-1.1,0.7
	c-0.7,0.2-1.5,0.2-2.4,0.1c-0.8-0.1-1.6-0.4-2.2-0.7C133.9,119.5,133.6,119.1,133.6,118.7L133.6,118.7l-3.4-1.2l2.5,1.4l-3.8,4
	 M133.6,118.7l0.3-2.5 M132.5,117.3l-0.2-0.1 M145.1,112.4l0.2,0.4c1.5-2.8,2-6.2,1.5-10.3 M144.7,111.8l0.4,0.7
	c1.3-2.9,1.6-6.3,1-10.3 M147,115.5L147,115.5l-0.1,0.1L147,115.5z M146.9,115.6v-0.2l-0.1-0.1 M142.4,123.2c-0.5-0.4-0.8-1-0.8-2
	c0-1,0.3-2,0.9-3.1c0.6-1.1,1.4-1.9,2.3-2.4c0.7-0.4,1.4-0.5,2-0.4l-1.5-0.8c-0.6-0.3-1.4-0.3-2.2,0.2c-0.9,0.5-1.6,1.3-2.2,2.4
	l-0.5,1l-0.2,1.7 M140,110.4c0.4-0.1,0.8-0.2,1.2-0.2 M140.4,117.3l-0.1,0.8 M148.7,116.5c-0.6-0.2-1.3-0.1-2,0.3
	c-0.9,0.5-1.7,1.3-2.3,2.4c-0.6,1.1-0.9,2.1-0.9,3.1c0,1,0.3,1.6,0.8,2 M145.3,124.9l0.7,0.4 M146.2,125.4L146.2,125.4 M139.9,121
	c0.1,0.6,0.4,1.1,0.8,1.3l1.3,0.7 M139.5,124.3l0.3-2.1 M133.3,121.1c-0.4-0.1-0.9,0.1-1.4,0.6c-0.5,0.4-1,0.9-1.3,1.5
	c-0.4,0.8-0.6,1.5-0.7,2.3c0,0.7,0.2,1.3,0.7,1.5l2.1,1.2 M133.3,121.2l-0.3,2.6v0.4c0,1.1,0.2,2.1,0.7,3.1 M158.3,130.1l4.1,2.4
	 M168.7,128.6c-0.6-0.1-1.2,0.1-1.8,0.5c-1,0.6-1.9,1.5-2.6,2.7c-0.7,1.2-1,2.4-1,3.5c0,1.1,0.3,1.9,1,2.4 M162,125.6l4.1,2.4
	 M164.7,135.2l1.6,1 M174.5,148l4.8-2.8 M190.8,173.7c-0.1-0.3-0.3-0.7-0.6-0.9c-0.5-0.5-1.1-0.7-1.9-0.7c-0.7,0-1.3,0.2-1.9,0.7
	c-0.5,0.5-0.7,1.1-0.7,1.9c0,0.2,0,0.5,0.1,0.7 M187.2,153.6l-9.1,5.3 M167.4,130.4l1.7,1 M74.3,100.5v-8.7 M131.2,105
	c-0.7,0.1-1.3,0.3-2,0.7 M126.3,121.4l3.9-3.9 M134.3,98.6l-0.6,0.4 M140.3,102.1L140,97 M95.4,96.4l0.1,4.1 M99.4,99.1v-1"/>
<path id="Layer4_5_2_STROKES" class="st6" d="M196.1,59.4l0.6-0.3 M197.3,58.7l2.4-1.3 M193.1,61.1l2.4-1.4 M265,19.6l2.7-1.5
	 M251.4,27.5l10.9-6.3"/>
<path id="Layer4_5_3_STROKES" class="st7" d="M112.9,73.4l-0.9,0.6l0.7-0.1 M114.6,72.6l-0.9,0.4 M111.3,74.1l0.7,0"/>
<path id="Layer4_5_4_STROKES" class="st8" d="M113.7,73l-0.9,0.4l-1.6,0.7"/>
<path id="Layer4_5_5_STROKES" class="st9" d="M150.7,117.8l-0.6-0.1"/>
<path class="st1" d="M246.2,101.7v-5.6l-3.8-1.7l-13.7,27.1l13.7,11.7l3.8,1.8v-9.6l21.4-11.9V93.5l-3.4-1.6h-0.9L246.2,101.7
	 M253.9,113.2l1.4-8.1l1.7-0.8l-2.3,11.5l-1.6,0.8l-1.3-7.1l-1.2,8.5l-1.5,0.9l-2.1-9.1l1.6-0.9l1.4,6.5l1-7.9l1.8-1L253.9,113.2
	 M242.9,116.4l3.3-2v1.8l-3.3,1.9v4.4l-1.6,0.9v-10.2l5.5-3.2v1.8l-3.9,2.2V116.4 M258,114.1v-10.3l2.9-1.8l1.1-0.5h1l0.7,0.4
	l0.7,1.4v0.9l0.2,1l-0.2,1.1v0.5l-0.2,0.5v0.6l-0.3,1l-0.2,0.4l-0.1,0.5l-0.2,0.4l-0.4,0.4l-0.1,0.3l-1.1,1.1L258,114.1
	 M262.7,104.3l-0.2-0.4l-0.4-0.4h-0.7l-0.6,0.2l-1.3,0.9v6.6l2.1-1.2l0.1-0.1l0.2-0.4l0.3-0.4v-0.4l0.2-0.3l0.2-0.1l0.1-0.7v-2.8
	L262.7,104.3z"/>
<path id="Layer4_6_MEMBER_1_1_STROKES" class="st10" d="M246.2,125.3l21.4-12V93.4"/>
<path id="Layer4_6_MEMBER_2_1_STROKES" class="st10" d="M246.2,96l-13.6,27.1l13.6,11.7 M267.6,93.4l-21.4,12"/>
<path id="Layer4_6_MEMBER_3_1_STROKES" class="st10" d="M267.6,93.4l-3.9-1.8 M246.2,105.4V96 M246.2,134.8v-9.6"/>
<path id="Layer4_6_MEMBER_4_1_STROKES" class="st10" d="M232.6,123.1l-3.9-1.7"/>
<path id="Layer4_6_MEMBER_5_1_STROKES" class="st10" d="M246.2,96l-3.8-1.7l-13.7,27.1l13.7,11.7l3.8,1.7 M263.7,91.6l-17.5,10"/>
<path id="Layer4_7_MEMBER_1_1_STROKES" class="st11" d="M39.6,25.5h84v27.7h-84V25.5z"/>
<text transform="matrix(1 0 0 1 48.6718 43.796)" class="st12 st13">4900-P315</text>
</svg>
