<?xml version="1.0" encoding="utf-8"?>
<!-- Generator: Adobe Illustrator 24.1.2, SVG Export Plug-In . SVG Version: 6.00 Build 0)  -->
<svg version="1.1" id="Ebene_1" xmlns="http://www.w3.org/2000/svg" xmlns:xlink="http://www.w3.org/1999/xlink" x="0px" y="0px"
	 viewBox="0 0 348 161" style="enable-background:new 0 0 348 161;" xml:space="preserve">
<style type="text/css">
	.st0{fill:#0099FF;}
	.st1{fill:#009900;}
	.st2{fill:#373535;}
	.st3{fill:#FF6600;}
	.st4{fill:#993300;}
	.st5{fill:none;stroke:#373535;stroke-width:0.55;stroke-miterlimit:5;}
	.st6{fill:none;stroke:#373535;stroke-width:0.25;stroke-miterlimit:5;}
	.st7{fill:none;stroke:#000000;stroke-width:0.5;stroke-linecap:round;stroke-linejoin:round;}
	.st8{fill:none;stroke:#373535;stroke-width:0.55;stroke-miterlimit:59.9996;}
</style>
<path class="st0" d="M250.9,156.1l-0.2,0.6l0.5-1.1L250.9,156.1 M220.6,145.4l-0.7,1.2l0.4-0.4l2.8-1.2l4.6-0.2l5.7,0.8l6.1,1.8
	l5.5,2.5l3.9,2.7l1.2,1.3l0.7,2.2l0.3-0.6l-0.1-1.1l-0.7-1.3l-1.2-1.3l-3.9-2.7l-1.9-0.9l-3.6-1.6l-6.1-1.8L228,144l-4.6,0.1h0
	L220.6,145.4 M220.6,149.5l1.2,1.3l3.9,2.7l5.5,2.5l6.1,1.8l5.7,0.8l4.5-0.2l2.8-1.2l0.3-0.6l0.2-0.6l-0.7-2.2l-1.2-1.3l-3.9-2.7
	l-5.5-2.5l-6.1-1.8l-5.7-0.8l-4.6,0.2l-2.8,1.2l-0.4,0.4l-0.1,0.6l0.1,1.1L220.6,149.5 M226.3,151.1l-1.3-1.5l0.3-1.2l1.8-0.6h3
	l3.7,0.6l4,1.2l3.6,1.6l2.6,1.6l1.3,1.5l-0.3,1.2l-1.8,0.6h-3l-3.7-0.6l-4-1.2l-3.6-1.6L226.3,151.1 M224.9,149.6l1.3,1.5l2.6,1.6
	l3.6,1.6l4,1.2l3.7,0.6h3l1.8-0.6l0.3-1.2l-1.3-1.5l-2.6-1.6l-3.6-1.6l-4-1.2l-3.7-0.6h-3l-1.8,0.6L224.9,149.6 M237.2,127.5l0-0.1
	v-0.1l-1.1-0.2c-2.2,0.1-4.9,0.6-8.2,1.7c-3.4,1.1-5.9,2.2-7.5,3.4l-0.2,0.6l3.3,11.3l4.6-0.1l5.7,0.8l6.1,1.8l3.6,1.6L237.2,127.5
	 M237.2,127.4l0,0.1L237.2,127.4L237.2,127.4 M227.8,121l-0.4,0v0l-0.1,0.2L227.8,121 M226.8,120.7L226.8,120.7l0.4,0.5v0l0.1-0.2v0
	l-0.4-0.1L226.8,120.7 M226.5,119.5L226.5,119.5v0.6l0.1,0.5l0.1,0.1l-0.3-0.8V119.5 M226.7,119l0-0.1L226.7,119l-0.2,0.1L226.7,119
	 M226.6,118.9l0,0.1l0.3-0.3L226.6,118.9 M230.6,117.6h0.1l-0.1-0.2l-0.3,0.1L230.6,117.6 M230.7,117.7v-0.1h-0.1L230.7,117.7
	 M233,118.6L233,118.6l0.2,0.3L233,118.6 M233,118.7v0.3l0.2-0.1L233,118.7 M232.3,117.4L232.3,117.4l-0.4,0L232.3,117.4
	 M232.3,117.3L232.3,117.3l0.3,0.3L232.3,117.3 M201.2,100.8l0.3,0.1l-0.7-0.4L201.2,100.8 M198,99L198,99l-2.2-1.2l0.9,0.8L198,99
	 M199.9,81.2l-0.2-0.3l-1.9-0.7L199.9,81.2 M206.4,84.1l-1.7-0.7l1.8,1L206.4,84.1 M204.7,83.5l-0.5-0.3l-4.3-2l0.9,1.5l0.2,2.5
	l-0.8,3l-1.6,2.9l-2.1,2.3l-2.3,1.5l-2.3,0.4l3.5,2.4l0.6,0.3l2.2,1.2l2.4-0.4l2.5-1.5l2.2-2.4l1.6-3l0.8-3.1l-0.2-2.6l-0.9-1.6
	L204.7,83.5 M210.7,86.4l-1.6-0.7l0.5,1.3l-0.1,3.3l-1.3,3.5l-2.1,3.1l-2.7,2.5l-2.7,1.2l0.1,0l0.7,0.4l0.9,0.3l2.4-0.4l2.5-1.5
	l2.2-2.4l1.6-3l0.8-3.1l-0.2-2.6L210.7,86.4 M211.3,85.3H209l0.1,0.3l1.6,0.7l1.1,1.8l0.2,2.6l-0.8,3.1l-1.6,3l-2.2,2.4l-2.5,1.5
	l-2.4,0.4l-0.9-0.3l-0.3-0.1l-0.4-0.3l-0.1,0l-0.3,0.1l-0.4,0.1l0.3,0.6l1.2,1.1l1.5,0.5l1.9-0.1l2.9-1.3l2.7-2.4l2.1-3.1l1.3-3.6
	l0.2-3.3l-0.3-0.6l-0.7-1.8L211.3,85.3 M209,85.3l-0.3-0.9l-1.8-1.3l-2.7,0l0.5,0.3l1.7,0.7l0.1,0.3l0.9,1.6l0.2,2.6l-0.8,3.1
	l-1.6,3l-2.2,2.4l-2.5,1.5l-2.4,0.4h0l-1.2-0.3l-0.9-0.8l-0.6-0.3l0.7,1.6l1.2,1.2l1.5,0.4l1.5,0l0.4-0.1l0.3-0.1l2.7-1.2l2.7-2.5
	l2.1-3.1l1.3-3.5l0.1-3.3l-0.5-1.3l-0.3-0.1l0.3,0.1L209,85.3h-0.3H209 M232.7,113.1l-0.1-0.5l-1.3-0.1c-2.1,0.2-4.4,0.7-7,1.5
	c-2.5,0.8-4.7,1.7-6.5,2.7l-1.1,0.9l0.1,0.5l1.4,0.1c2.1-0.2,4.4-0.7,6.9-1.5c2.5-0.8,4.7-1.7,6.5-2.7L232.7,113.1 M232.6,112.6
	l0.1,0.5L232.6,112.6L232.6,112.6 M222.4,93.6l-4.4-2.9l-4.2-2.3l0.3,0.6l-0.2,3.3l-1.3,3.6l-2.1,3.1l-2.7,2.4l-2.9,1.3l4.5,2.4
	l3.5,2.7l1.9,3.5l2,6.2l1.1-0.9c1.8-1,4-1.9,6.5-2.7c2.6-0.8,4.9-1.3,7-1.5l1.3,0.1L231,106l-2.1-4.6l-2.9-4.2L222.4,93.6 M145,55.9
	c0,0.1,0,0.1,0,0.2v-0.4C145,55.7,145,55.8,145,55.9 M141.3,53.7L141.3,53.7L141.3,53.7L141.3,53.7 M167.3,63.5l1.3,1.7l0.4,2.4
	l-0.4,2.8l-1.3,2.8l-2.1,2.4l-2.3,1.5l-2.2,0.5l-1.7-0.5l31.6,17.5l1,0.4h0.1l2.3-0.4l2.3-1.5l2.1-2.3l1.6-2.9l0.8-3l-0.2-2.5
	l-0.9-1.5l-2.1-1L167.3,63.5 M167.3,63.5l-3.7-1.9l-2.8-0.6h-0.9l0.8,6l-4.8,2.7l-0.9-0.4l-0.7-6l-1.2,2l-0.2,2.4l0.9,3.2l1.2,2.5
	l1.7,2l1.9,1.7l0.3,0.1l1.7,0.5l2.2-0.5l2.3-1.5l2.1-2.4l1.3-2.8l0.4-2.8l-0.4-2.4L167.3,63.5z"/>
<path class="st1" d="M226.6,119.5L226.6,119.5l-0.1,0.5l0.3,0.8l0.1,0.1l0.1-0.1l0-0.5l-0.2-0.5L226.6,119.5 M226.4,119.2l0.1,0.4
	l0.1-0.1l0.2,0.3l0.2,0.5l0,0.5l-0.1,0.1l0.4,0.1l-0.1-0.7l-0.3-0.9l-0.3-0.3L226.4,119.2 M227.4,118.6l-0.4,0.1l-0.3,0.3l0.3,0.3
	l0.3,0.9l0.1,0.7l0.4,0l0.5,0l-0.1-0.1l-0.1-1.3L227.4,118.6 M231.8,119.8l0,0.3l1.2-0.3V119l-1.2,0.3L231.8,119.8 M234.1,120.2
	c-0.4,0.1-0.8,0.1-1.1,0.2l-3.2,1.5l-3.5,1.3l-6.4,1.3l-0.4,0.1c-0.3,0.2-0.7,0.5-1.3,1l0.1,0.6l1.5,0.1l2.5-0.3l3.5-0.9l6.7-2.2
	l2.4-1.2l1.3-1l0-0.9c-0.7,0.1-1.3,0.2-1.9,0.3C234.3,120.2,234.2,120.2,234.1,120.2 M231.3,118.1l0.3,0.5l0.2,0.6l1.2-0.3v-0.3
	l-0.1-0.5l0-0.1l-0.1-0.4L231.3,118.1 M232.3,117.4l-0.4,0l-1,0.1l0.1,0.1l0.2,0.5l1.4-0.3l0-0.1L232.3,117.4 M235.5,117.6l-0.4-0.3
	l-1-0.1l-1.7,0.2l0.3,0.3l0,0.1l0.1,0.4l0,0.1l0.1,0.5v-0.1l0.2,0.3L233,119v0.7l-1.2,0.3l0,0.4v0h-0.1l-0.1-0.3l-0.1-0.1v0.4l0,0
	h-0.1l-1-3l-2.8,0.6l0.4,0.4l0.5,1l0.2,1.1l-0.1,0.5l-0.3-0.2l-0.5,0l-0.6,0.2v0l-0.4-0.4v-0.1l-0.1-0.1l-0.1-0.5l-0.1-0.5l0.1,0
	l-0.1-0.4l0.2-0.2v-0.1l0.4-0.1l0.4-0.1l0,0l0.1-0.1c-2.3,0.7-3.9,1.2-4.9,1.6c-1.8,0.7-3.3,1.4-4.5,2.2l-0.6,0.8l0.9,2.6
	c0.6-0.4,1-0.8,1.3-1l0.4-0.1l2.3-1c2-0.8,3.5-1.4,4.7-1.8c1.4-0.4,3.4-0.9,6.1-1.3c0.3,0,0.7-0.1,1.1-0.2c0,0,0.1,0,0.2,0
	c0.6-0.1,1.2-0.2,1.9-0.3L235.5,117.6 M147.2,84.1c0-0.7,0-1.2,0-1.4c0-0.2-0.3-0.5-0.9-1l-0.1,0.9v0.4h0.1l0.5,0.5L147.2,84.1
	 M142.1,84.1l1.5,1.2l2.5,0l0.6-0.5l0.6-0.7l-0.4-0.6l-0.5-0.5h-0.1h-2.9L142.1,84.1 M143.2,81.6l-0.2,0.2v0.9v-0.9l-0.3,0.2
	l-0.6,0.6v1.5l1.2-1.1L143.2,81.6 M146.1,81.6l-0.5-0.1h-2.4l-0.1,0.1l0.1,1.4h2.9v-0.4V81.6 M146.3,81.8c0,0-0.1-0.1-0.1-0.1v1
	L146.3,81.8 M146.1,81.6c0.1,0,0.1,0.1,0.1,0.1l0-2.4l-0.5-0.7l-1.1-0.3l-1.1,0.3h0l-0.6,0.5v2.5l0.2-0.2l0.1-0.1h2.4L146.1,81.6
	 M145.8,76.5l-2.2-0.1l0,2.4l1.1-0.3l1.1,0.3V76.5z"/>
<path class="st2" d="M230.6,117.4L230.6,117.4L230.6,117.4L230.6,117.4 M227.5,118.6l-0.1,0l0.6,1l0.1,1.3l0.1,0.1l0-0.3l0-0.4
	l-0.3-1L227.5,118.6 M227.5,118.4L227.5,118.4l-0.1,0.3l0.1,0L227.5,118.4 M227.4,118.6L227.4,118.6l0.1-0.1L227.4,118.6
	 M227.6,118.1L227.6,118.1c-0.1,0-0.1,0.1-0.1,0.1v0.1l0,0.2l0.4,0.6l0.3,1l0,0.4l0,0.3l0.3,0.2l0.1-0.5l-0.2-1.1l-0.5-1
	L227.6,118.1 M231.5,120l0.1-0.2l-0.3-1.1l-0.5-1l-0.1-0.1l-0.3-0.1l1,3h0.1l0,0V120 M231,117.6l-0.1-0.1l-0.3-0.1h0l0.1,0.2v0.1
	l0.5,1l0.3,1.1l-0.1,0.2l0.1,0.1l0.1,0.3h0.1v0l0-0.4l0-0.3l-0.1-0.5l-0.2-0.6l-0.3-0.5L231,117.6 M144.6,75.9l-0.7,0.2l-0.3,0.3
	l2.2,0.1l-0.3-0.4L144.6,75.9z"/>
<path class="st3" d="M146.8,67.5l-2.2-0.5l-2.2,0.5l-0.7,1l-0.2,0.3l0.9,1.3l2.2,0.5v-0.9h0l-1.3-0.3l-0.5-0.7l0.5-0.7l1.3-0.3
	l1.2,0.3l0.5,0.7l-0.5,0.7l-1.2,0.3v0.9h0l2.2-0.5l0.9-1.3l-0.2-0.3L146.8,67.5 M144.6,67l2.2,0.5l0.7,0.9l0.2-0.3l-1-1.3l-2.2-0.5
	l-2.2,0.5l-0.9,1.3l0.3,0.3l0.7-1L144.6,67z"/>
<path class="st4" d="M145,55.6v0.4c0.1,0.4,0.3,0.8,0.8,1c0.6,0.3,1.3,0.5,2.1,0.5c0.3,0,0.5,0,0.7-0.1c0.7-0.1,1.2-0.3,1.6-0.6
	c0.4-0.3,0.6-0.7,0.6-1.1c0-0.1,0-0.2,0-0.3c-0.1-0.3-0.4-0.7-0.8-0.9c-0.6-0.3-1.3-0.5-2.1-0.5s-1.5,0.2-2.1,0.5
	C145.4,54.9,145.1,55.3,145,55.6 M147.4,57.5c-0.6-0.1-1-0.2-1.4-0.5c-0.4-0.3-0.6-0.6-0.6-1c0-0.4,0.2-0.7,0.7-1
	c0.5-0.3,1.1-0.4,1.8-0.4c0.7,0,1.3,0.1,1.8,0.4c0.5,0.3,0.7,0.6,0.7,1c0,0.4-0.2,0.8-0.7,1.1c-0.5,0.3-1.1,0.4-1.8,0.4L147.4,57.5
	 M141.3,53.8v0.4l3,3v-0.7L141.3,53.8L141.3,53.8 M145.6,51.9l0-0.8l0,0l-1.3,0.7l-3.3,1.8v0.9l3.4,3.5v-0.6l-3-3v-0.4v-0.1l0,0
	l3.8-2v0.4h0.1L145.6,51.9 M155.9,69.1L155.9,69.1l-0.9-8l-9.7-3.5l-0.9-1v0.7l0.6,0.6l9.5,3.5l0.9,7.5L155.9,69.1 M159.4,66.6
	l-0.9-7.4l-7.4-4.4l-0.1,0.7c0,0.1,0,0.2,0,0.3c0,0.4-0.2,0.8-0.6,1.1c-0.4,0.3-0.9,0.5-1.6,0.6c-0.2,0-0.4,0.1-0.7,0.1
	c-0.8,0-1.6-0.2-2.1-0.5c-0.5-0.3-0.7-0.6-0.8-1c0-0.1,0-0.1,0-0.2c0-0.1,0-0.1,0-0.2V55v0.7c0.1-0.4,0.4-0.7,0.8-1
	c0.6-0.3,1.3-0.5,2.1-0.5s1.5,0.2,2.1,0.5c0.4,0.3,0.7,0.6,0.8,0.9l0.1-0.7l-0.8-0.4l-5-2.2h-0.1v-0.4l-3.8,2l3,2.8l0-1.9l-1-0.3
	l-0.5-0.7l0.5-0.6l1.1-0.3l1.1,0.3l0.5,0.6l-0.5,0.7l-1.1,0.3l-0.1,0l0,1.9l0.9,1l9.7,3.5l0.9,8l3.9-2.2L159.4,66.6 M159.9,66.5
	l0.8,0.4l-0.8-6l-0.3-2.4l-8.8-5.2l-5-2.2l0,0.8l4.9,2.1l8.5,4.9L159.9,66.5 M160.7,66.9l-0.8-0.4l-0.9-7.5l-8.5-4.9l-4.9-2.1
	l-0.4,0.3l5,2.2l0.8,0.4l7.4,4.4l0.9,7.4l0.4,0.2l-3.9,2.2l0,0l-0.4-0.2l-0.9-7.5l-9.5-3.5l-0.6-0.6v0.6l0.2,0.2l9.6,3.5l0.2,1.5
	l0.7,6l0.9,0.4L160.7,66.9z"/>
<path id="Layer0_5_1_STROKES" class="st5" d="M159.9,60.9h0.9l2.8,0.6l3.7,1.9l30.6,16.7l1.9,0.7l0.2,0.3l4.3,2l2.7,0l1.8,1.3
	l0.3,0.9h2.2l1.8,1.3l0.7,1.8l4.2,2.3l4.4,2.9l3.7,3.6l2.9,4.2l2.1,4.6l1.6,6.5h0.1v0.5l-0.9,1c-1.8,1-4,1.9-6.5,2.7
	c-2.5,0.8-4.9,1.3-6.9,1.5l-1.4-0.1l-0.1-0.5l-2-6.2l-1.9-3.5l-3.5-2.7l-4.5-2.4l-1.9,0.1l-1.5-0.5l-1.2-1.1l-0.3-0.6l-1.5,0
	l-1.5-0.4l-1.2-1.2l-0.7-1.6l-3.5-2.4h-0.1l-1-0.4L159,77.1l-0.3-0.1l-1.9-1.7l-1.7-2l-1.2-2.5l-0.9-3.2l0.2-2.4l1.2-2l-0.2-1.5
	l-9.6-3.5l-0.2-0.2l-3.4-3.5v-0.9l3.3-1.8 M167.3,63.5l1.3,1.7l0.4,2.4l-0.4,2.8l-1.3,2.8l-2.1,2.4l-2.3,1.5l-2.2,0.5l-1.7-0.5
	 M160.7,66.9l-0.8-0.4l-0.9-7.5l-8.5-4.9l-4.9-2.1l-0.4,0.3l5,2.2l0.8,0.4l7.4,4.4l0.9,7.4l0.4,0.2l-3.9,2.2l0,0l-0.4-0.2l-0.9-7.5
	l-9.5-3.5l-0.6-0.6 M159.9,60.9l0.8,6l-4.8,2.7l-0.9-0.4l-0.7-6 M144.3,51.8l1.3-0.7l0,0l5,2.2l8.8,5.2l0.3,2.4 M145.6,51.9l0-0.8
	 M144.3,54.7L144.3,54.7l1.2-0.3l0.5-0.7l-0.5-0.6l-1.1-0.3l-1.1,0.3l-0.5,0.6l0.5,0.7L144.3,54.7z M141.4,53.7l3.8-2v0.4h0.1
	 M144.4,57.3l-3-3v-0.4v-0.1l0,0l3,2.8 M141.4,53.7L141.4,53.7 M145,55.6V55 M145,56.1c0-0.1,0-0.1,0-0.2c0-0.1,0-0.1,0-0.2
	c0.1-0.4,0.4-0.7,0.8-1c0.6-0.3,1.3-0.5,2.1-0.5s1.5,0.2,2.1,0.5c0.4,0.3,0.7,0.6,0.8,0.9l0.1-0.7 M145,55.6v0.4
	c0.1,0.4,0.3,0.8,0.8,1c0.6,0.3,1.3,0.5,2.1,0.5c0.3,0,0.5,0,0.7-0.1c0.7-0.1,1.2-0.3,1.6-0.6c0.4-0.3,0.6-0.7,0.6-1.1
	c0-0.1,0-0.2,0-0.3 M155.9,69.1l-0.9-8l-9.7-3.5l-0.9-1 M147.4,57.5l0.6,0c0.7,0,1.3-0.1,1.8-0.4c0.5-0.3,0.7-0.7,0.7-1.1
	c0-0.4-0.2-0.7-0.7-1c-0.5-0.3-1.1-0.4-1.8-0.4c-0.7,0-1.3,0.1-1.8,0.4c-0.5,0.3-0.7,0.6-0.7,1c0,0.4,0.2,0.7,0.6,1
	C146.4,57.2,146.9,57.4,147.4,57.5z M141.7,68.5l0.7-1l2.2-0.5l2.2,0.5l0.7,0.9l0.2-0.3l-1-1.3l-2.2-0.5l-2.2,0.5l-0.9,1.3
	L141.7,68.5l-0.2,0.3l0.9,1.3l2.2,0.5 M144.6,69.7L144.6,69.7l-1.3-0.3l-0.5-0.7l0.5-0.7l1.3-0.3l1.2,0.3l0.5,0.7l-0.5,0.7
	L144.6,69.7z M144.6,70.6L144.6,70.6l2.2-0.5l0.9-1.3l-0.2-0.3 M143.6,76.4l0.3-0.3l0.7-0.2l0.8,0.2l0.3,0.4v2.2l0.5,0.7l0,2.4
	c0.5,0.4,0.8,0.8,0.9,1c0,0.2,0.1,0.6,0,1.4l-0.6,0.7l-0.6,0.5l-2.5,0l-1.5-1.2v-1.5l0.6-0.6l0.3-0.2v-2.5l0.6-0.5h0L143.6,76.4z
	 M142.9,81.8l0.2-0.2l0.1-0.1h2.4l0.5,0.1c0.1,0,0.1,0.1,0.1,0.1l-0.1,0.9v0.4h0.1l0.5,0.5l0.4,0.6 M145.8,78.8l-1.1-0.3l-1.1,0.3
	 M142.1,84.1l1.2-1.1l-0.1-1.4 M146.1,83.1h-2.9 M146.1,81.6v1 M142.9,81.8v0.9 M232.6,112.6l0.1,0.5 M216.8,117.6l1.1-0.9
	c1.8-1,4-1.9,6.5-2.7c2.6-0.8,4.9-1.3,7-1.5l1.3,0.1 M232.3,117.3l1.7-0.2l1,0.1l0.4,0.3l0.8,2.4l0,0.9l-1.3,1l-2.4,1.2l-6.7,2.2
	l-3.5,0.9l-2.5,0.3l-1.5-0.1l-0.1-0.6l-0.9-2.6l0.6-0.8c1.2-0.8,2.7-1.5,4.5-2.2c1-0.4,2.6-0.9,4.9-1.6l0-0.1v-0.1
	c0-0.1,0-0.1,0-0.1h0l2.8-0.6l0.3-0.1 M230.6,117.4L230.6,117.4l0.3,0.1l1-0.1l0.4-0.1 M232.7,117.8l0-0.1 M232.9,118.2l0.1,0.5
	v-0.1l0.2,0.3L233,119 M233,119.7l-1.2,0.3l0,0.4 M231.5,120v0.4 M230.4,117.5l0.3,0.1h0.1 M230.6,117.4L230.6,117.4 M232.3,117.3
	L232.3,117.3l0.3,0.3 M232.3,117.4l-0.4,0 M230.9,117.6l0.1,0.1l0.2,0.5l1.4-0.3 M231.3,118.1l0.3,0.5l0.2,0.6l1.2-0.3 M233,118.7
	l0.2,0.2 M233.1,120.4c0.3,0,0.7-0.1,1.1-0.2 M234.3,120.2c0.6-0.1,1.2-0.2,1.9-0.3 M231.8,120l0-0.3l-0.1-0.5 M230.7,117.7l0.5,1
	l0.3,1.1l-0.1,0.2 M237.2,127.4l0,0.1L237.2,127.4L237.2,127.4L237.2,127.4l-1.1-0.3c-2.2,0.1-4.9,0.6-8.2,1.7
	c-3.4,1.1-5.9,2.2-7.5,3.4l-0.2,0.6l3.3,11.3l4.6-0.1l5.7,0.8l6.1,1.8l3.6,1.6l-6.2-20.7 M227.4,118.4l0,0.2l-0.4,0.1 M226.7,119
	l0.3,0.3l0.3,0.9l0.1,0.7 M227.8,121l0.5,0 M227.4,118.6l0.1,0l0-0.2 M228.3,121l0.3,0.2l0.1-0.5l-0.2-1.1l-0.5-1l-0.4-0.4
	 M230.6,117.6l0.1,0.1 M226.6,118.9l0,0.1 M226.4,119.2l0.1,0.4l0.1-0.1l0.2,0.3l0.2,0.5l0,0.5l-0.1,0.1 M227.4,121L227.4,121
	l-0.1,0.2l0.6-0.2 M226.6,118.9L226.6,118.9l-0.2,0.3 M226.5,119.5L226.5,119.5v0.6l0.1,0.5l0.1,0.1l-0.3-0.8V119.5z M227.2,121.2
	L227.2,121.2l-0.4-0.4v-0.1l0.1,0.1 M227.5,118.6l0.4,0.6l0.3,1l0,0.4l0,0.3 M233.1,120.4c-2.7,0.4-4.7,0.9-6.1,1.3
	c-1.1,0.4-2.7,1-4.7,1.8l-2.3,1l-0.4,0.1c-0.3,0.2-0.7,0.5-1.3,1 M227,118.7l-0.4,0.1 M243.4,148.3l1.9,0.9l3.9,2.7l1.2,1.3l0.7,1.3
	l0.1,1.1l-0.5,1.1l-0.3,0.6l-2.8,1.2l-4.5,0.2l-5.7-0.8l-6.1-1.8l-5.5-2.5l-3.9-2.7l-1.2-1.3l-0.7-1.3l-0.1-1.1l0.1-0.6l0.7-1.2
	l2.8-1.2h0 M219.9,146.6l0.4-0.4l2.8-1.2l4.6-0.2l5.7,0.8l6.1,1.8l5.5,2.5l3.9,2.7l1.2,1.3l0.7,2.2l0.3-0.6 M230,147.8l3.7,0.6
	l4,1.2l3.6,1.6l2.6,1.6l1.3,1.5l-0.3,1.2l-1.8,0.6h-3l-3.7-0.6l-4-1.2l-3.6-1.6l-2.6-1.6l-1.3-1.5l0.3-1.2l1.8-0.6H230z M209.1,85.6
	l0.5,1.3l-0.1,3.3l-1.3,3.5l-2.1,3.1l-2.7,2.5l-2.7,1.2l0.1,0l0.7,0.4l0.9,0.3l2.4-0.4l2.5-1.5l2.2-2.4l1.6-3l0.8-3.1l-0.2-2.6
	l-1.1-1.8L209.1,85.6l-0.3-0.1 M209.1,85.6l-0.1-0.3h-0.3 M204.2,83.2l0.5,0.3l1.7,0.7l0.1,0.3l0.9,1.6l0.2,2.6l-0.8,3.1l-1.6,3
	l-2.2,2.4l-2.5,1.5l-2.4,0.4h0l-1.2-0.3l-0.9-0.8l-0.6-0.3 M204.7,83.5l1.8,1 M199.9,81.2l0.9,1.5l0.2,2.5l-0.8,3l-1.6,2.9l-2.1,2.3
	l-2.3,1.5l-2.3,0.4 M213.8,88.4l0.3,0.6l-0.2,3.3l-1.3,3.6l-2.1,3.1l-2.7,2.4l-2.9,1.3 M197.8,80.2l2.1,1 M195.9,97.8l2.2,1.2
	 M201.5,100.9l-0.3-0.1l-0.4-0.3 M200.7,100.5l-0.3,0.1l-0.4,0.1 M250.9,156.1l-0.2,0.6"/>
<path id="Layer0_5_2_STROKES" class="st6" d="M144.3,51.8l-0.1-9.3 M144.4,57.3v0.6 M144,26.4l0.1,9.2 M144.1,37.9v2.3 M144.3,53.4
	l0,1.3l0,1.9v0.7 M144.6,70.6v-0.9l0-1.6 M144.4,61.4V66 M144.4,59.1l0,1.2 M144.6,71.5v0.7 M144.6,70.6v0.2 M144.6,72.9v2.7"/>
<path id="Layer0_5_3_STROKES" class="st7" d="M232.6,117.6l-0.3-0.3 M232.7,117.8l0.1,0.4l0,0.1 M233,119.7V119v-0.3 M234.1,120.2
	c0,0,0.1,0,0.2,0 M227,118.7l-0.3,0.3 M227.4,121l0.4,0 M226.4,119.2l0.2-0.1 M226.9,120.8l0.4,0.1 M220,124.5l6.4-1.3l3.5-1.3
	l3.2-1.5"/>
<path id="Layer0_5_MEMBER_0_1_STROKES" class="st5" d="M127.1,18.3l1.7,1"/>
<path id="Layer0_5_MEMBER_1_1_STROKES" class="st5" d="M130,17.3l-1.1-0.7"/>
<path id="Layer0_5_MEMBER_2_1_STROKES" class="st5" d="M126.6,17.3c0,0.3,0.1,0.5,0.2,0.7c0.3,0.4,0.7,0.5,1.2,0.4"/>
<path id="Layer0_5_MEMBER_3_1_STROKES" class="st5" d="M123.9,25l-4.3-1.3"/>
<path id="Layer0_5_MEMBER_4_1_STROKES" class="st5" d="M123.7,24.8l-4-1.2"/>
<path id="Layer0_5_MEMBER_5_1_STROKES" class="st5" d="M145.3,44.5l0.1-0.4"/>
<path id="Layer0_5_MEMBER_6_1_STROKES" class="st5" d="M117.8,32.8l2.2-0.7"/>
<path id="Layer0_5_MEMBER_7_1_STROKES" class="st5" d="M142.9,40.8L131.5,34"/>
<path id="Layer0_5_MEMBER_8_1_STROKES" class="st5" d="M142.9,41.2l-11.5-6.8"/>
<path id="Layer0_5_MEMBER_9_1_STROKES" class="st5" d="M117.7,33.2l2.2-0.7"/>
<path id="Layer0_5_MEMBER_10_1_STROKES" class="st5" d="M117.9,38.2l11.5,6.8"/>
<path id="Layer0_5_MEMBER_11_1_STROKES" class="st5" d="M140.8,46.9l2.3-0.7"/>
<path id="Layer0_5_MEMBER_12_1_STROKES" class="st5" d="M127.2,28.3h0.3"/>
<path id="Layer0_5_MEMBER_13_1_STROKES" class="st5" d="M118,28.4l7.7-0.1"/>
<path id="Layer0_5_MEMBER_14_1_STROKES" class="st5" d="M125.4,27.3l-7.4,0.1"/>
<path id="Layer0_5_MEMBER_15_1_STROKES" class="st5" d="M127.5,27.3H127"/>
<path id="Layer0_5_MEMBER_16_1_STROKES" class="st5" d="M128.3,29.9l-0.5,2.3"/>
<path id="Layer0_5_MEMBER_17_1_STROKES" class="st5" d="M128.9,32.4l0.5-2.3"/>
<path id="Layer0_5_MEMBER_18_1_STROKES" class="st5" d="M130.7,20.9l-1.8-1"/>
<path id="Layer0_5_MEMBER_19_1_STROKES" class="st5" d="M131.7,20.9l-1-0.1"/>
<path id="Layer0_5_MEMBER_20_1_STROKES" class="st5" d="M132.6,18.4l-1.8-1.1"/>
<path id="Layer0_5_MEMBER_21_1_STROKES" class="st5" d="M132.6,18.4v1.3"/>
<path id="Layer0_5_MEMBER_22_1_STROKES" class="st5" d="M132.6,19.7l-1.8-1.1"/>
<path id="Layer0_5_MEMBER_23_1_STROKES" class="st5" d="M131.7,20.9l-1.8-1.1"/>
<path id="Layer0_5_MEMBER_24_1_STROKES" class="st5" d="M132.6,19.7l-1,1.3"/>
<path id="Layer0_5_MEMBER_25_1_STROKES" class="st5" d="M130.8,18.6l-1,1.3"/>
<path id="Layer0_5_MEMBER_26_1_STROKES" class="st5" d="M130.8,17.3v1.3"/>
<path id="Layer0_5_MEMBER_27_1_STROKES" class="st5" d="M130.4,17.3h0.4"/>
<path id="Layer0_5_MEMBER_28_1_STROKES" class="st5" d="M128.9,19.8v-0.2"/>
<path id="Layer0_5_MEMBER_29_1_STROKES" class="st5" d="M129.8,19.9l-1-0.1"/>
<path id="Layer0_5_MEMBER_30_1_STROKES" class="st5" d="M128.6,19.5l0.5,0.3"/>
<path id="Layer0_5_MEMBER_31_1_STROKES" class="st5" d="M130.6,17.4l-0.5-0.3"/>
<path id="Layer0_5_MEMBER_32_1_STROKES" class="st5" d="M124.7,36.4l-0.2,1.1"/>
<path id="Layer0_5_MEMBER_33_1_STROKES" class="st5" d="M126,37.8l0.2-1"/>
<path id="Layer0_5_MEMBER_34_1_STROKES" class="st5" d="M117.7,14.3l7.3,12.4"/>
<path id="Layer0_5_MEMBER_35_1_STROKES" class="st5" d="M126.4,25.8L119,13.5"/>
<path id="Layer0_5_MEMBER_36_1_STROKES" class="st5" d="M135.3,42.7l-0.2,1.1"/>
<path id="Layer0_5_MEMBER_37_1_STROKES" class="st5" d="M136.6,44.1l0.2-1"/>
<path id="Layer0_5_MEMBER_38_1_STROKES" class="st5" d="M133.9,22.5l2.5,9.9"/>
<path id="Layer0_5_MEMBER_39_1_STROKES" class="st5" d="M136,24.8l-0.7-2.6"/>
<path id="Layer0_5_MEMBER_40_1_STROKES" class="st5" d="M137.8,32.1l-1.9-7.4"/>
<path id="Layer0_5_MEMBER_41_1_STROKES" class="st5" d="M133.6,19.9l-1-0.6"/>
<path id="Layer0_5_MEMBER_42_1_STROKES" class="st5" d="M131.9,20.7l1,0.6"/>
<path id="Layer0_5_MEMBER_43_1_STROKES" class="st5" d="M129,32.8l0.1-0.2"/>
<path id="Layer0_5_MEMBER_44_1_STROKES" class="st5" d="M127.8,38.9l0.2-1"/>
<path id="Layer0_5_MEMBER_45_1_STROKES" class="st5" d="M126.5,37.4l-0.2,1.1"/>
<path id="Layer0_5_MEMBER_46_1_STROKES" class="st5" d="M160.2,32.6l-0.2-0.1"/>
<path id="Layer0_5_MEMBER_47_1_STROKES" class="st5" d="M157.6,34.7l-0.1-0.1"/>
<path id="Layer0_5_MEMBER_48_1_STROKES" class="st5" d="M160,31.7l-0.4-0.2"/>
<path id="Layer0_5_MEMBER_49_1_STROKES" class="st5" d="M158.8,34.7l-0.7-0.4"/>
<path id="Layer0_5_MEMBER_50_1_STROKES" class="st5" d="M160,33.3l-0.8-0.5"/>
<path id="Layer0_5_MEMBER_51_1_STROKES" class="st5" d="M143,38.2c0.2,0,0.4,0,0.5-0.1l0.3-0.2"/>
<path id="Layer0_5_MEMBER_52_1_STROKES" class="st5" d="M143.4,38.2l12.2-4.1"/>
<path id="Layer0_5_MEMBER_53_1_STROKES" class="st5" d="M138.1,35.6l4.2,2.5"/>
<path id="Layer0_5_MEMBER_54_1_STROKES" class="st5" d="M131.4,31.6l5.2,3.1"/>
<path id="Layer0_5_MEMBER_55_1_STROKES" class="st5" d="M156.2,34.2l0.6,0.4"/>
<path id="Layer0_5_MEMBER_56_1_STROKES" class="st5" d="M171.1,21V20"/>
<path id="Layer0_5_MEMBER_57_1_STROKES" class="st5" d="M171.1,21.3l0.1-0.3"/>
<path id="Layer0_5_MEMBER_58_1_STROKES" class="st5" d="M149.5,28.8v-0.5"/>
<path id="Layer0_5_MEMBER_59_1_STROKES" class="st5" d="M145.1,28.3v0.5"/>
<path id="Layer0_5_MEMBER_60_1_STROKES" class="st5" d="M158.7,32.3l12-10.3"/>
<path id="Layer0_5_MEMBER_61_1_STROKES" class="st5" d="M134.2,24l-7.5,2.5"/>
<path id="Layer0_5_MEMBER_62_1_STROKES" class="st5" d="M148.7,28l0.5,1.1"/>
<path id="Layer0_5_MEMBER_63_1_STROKES" class="st5" d="M149.2,30.1v-1"/>
<path id="Layer0_5_MEMBER_64_1_STROKES" class="st5" d="M145.5,28.5l1.4-0.8"/>
<path id="Layer0_5_MEMBER_65_1_STROKES" class="st5" d="M145.5,28.5v1"/>
<path id="Layer0_5_MEMBER_66_1_STROKES" class="st5" d="M146,30.6l-0.5-1.1"/>
<path id="Layer0_5_MEMBER_67_1_STROKES" class="st5" d="M147.8,30.9l-1.9-0.3"/>
<path id="Layer0_5_MEMBER_68_1_STROKES" class="st5" d="M149.2,30.1l-1.4,0.8"/>
<path id="Layer0_5_MEMBER_69_1_STROKES" class="st5" d="M148.7,29l0.5,1.1"/>
<path id="Layer0_5_MEMBER_70_1_STROKES" class="st5" d="M145.5,29.5l1.4-0.8"/>
<path id="Layer0_5_MEMBER_71_1_STROKES" class="st5" d="M148.7,28v1"/>
<path id="Layer0_5_MEMBER_72_1_STROKES" class="st5" d="M146.8,27.7l1.9,0.3"/>
<path id="Layer0_5_MEMBER_73_1_STROKES" class="st5" d="M146.8,27.7v1"/>
<path id="Layer0_5_MEMBER_74_1_STROKES" class="st5" d="M146.8,28.7l1.9,0.3"/>
<path id="Layer0_5_MEMBER_75_1_STROKES" class="st5" d="M175.6,16.8l-0.3,0.1"/>
<path id="Layer0_5_MEMBER_76_1_STROKES" class="st5" d="M174.7,16.9l-1.2,0.2"/>
<path id="Layer0_5_MEMBER_77_1_STROKES" class="st5" d="M176,16.8l-1.3,0.1"/>
<path id="Layer0_5_MEMBER_78_1_STROKES" class="st5" d="M176.3,19.6l-1.2,0.2"/>
<path id="Layer0_5_MEMBER_79_1_STROKES" class="st5" d="M176.3,19.6l0.5-1.4"/>
<path id="Layer0_5_MEMBER_80_1_STROKES" class="st5" d="M176,16.8l-1.2,0.2"/>
<path id="Layer0_5_MEMBER_81_1_STROKES" class="st5" d="M176.8,18.2l-1.2,0.2"/>
<path id="Layer0_5_MEMBER_82_1_STROKES" class="st5" d="M176.8,18.2l-0.8-1.4"/>
<path id="Layer0_5_MEMBER_83_1_STROKES" class="st5" d="M174.3,19.9l0.2,0"/>
<path id="Layer0_5_MEMBER_84_1_STROKES" class="st5" d="M174.1,17.1l-0.2,0"/>
<path id="Layer0_5_MEMBER_85_1_STROKES" class="st5" d="M174.5,19.9l0.6-0.1"/>
<path id="Layer0_5_MEMBER_86_1_STROKES" class="st5" d="M173.8,19.9l0.3,0"/>
<path id="Layer0_5_MEMBER_87_1_STROKES" class="st5" d="M175.1,19.8l0.5-1.4"/>
<path id="Layer0_5_MEMBER_88_1_STROKES" class="st5" d="M175.6,18.4l-0.8-1.4"/>
<path id="Layer0_5_MEMBER_89_1_STROKES" class="st5" d="M174.8,17l-1.3,0.1"/>
<path id="Layer0_5_MEMBER_90_1_STROKES" class="st5" d="M173.5,17.1l-0.1,0.2"/>
<path id="Layer0_5_MEMBER_91_1_STROKES" class="st5" d="M173.7,19.7l0.1,0.2"/>
<path id="Layer0_5_MEMBER_92_1_STROKES" class="st5" d="M173.8,19.3l0.8-0.1"/>
<path id="Layer0_5_MEMBER_93_1_STROKES" class="st5" d="M174.4,17.7l-0.8,0.1"/>
<path id="Layer0_5_MEMBER_94_1_STROKES" class="st5" d="M172.4,18.7l-1.2,1.7"/>
<path id="Layer0_5_MEMBER_95_1_STROKES" class="st5" d="M172.5,21.2l1.1-1.7"/>
<path id="Layer0_5_MEMBER_96_1_STROKES" class="st5" d="M171.3,24.5l1.5-2.3"/>
<path id="Layer0_5_MEMBER_97_1_STROKES" class="st5" d="M119.7,25.8v-5.3"/>
<path id="Layer0_5_MEMBER_98_1_STROKES" class="st5" d="M127.4,30h0.3"/>
<path id="Layer0_5_MEMBER_99_1_STROKES" class="st5" d="M121.4,30l4.5,0"/>
<path id="Layer0_5_MEMBER_100_1_STROKES" class="st5" d="M128.2,38.5l-0.2,1.2"/>
<path id="Layer0_5_MEMBER_101_1_STROKES" class="st5" d="M130,40.1l0.2-1"/>
<path id="Layer0_5_MEMBER_102_1_STROKES" class="st8" d="M161.6,16.4l2-1.7l-9.3-5.6l-0.2-0.3l0-1.5V7l0-11.9v-0.9 M150.5-2.8
	l-1.8,4.6l-2.5,4.2l-3.1,3.7l-3.5,3 M154.7,5.2V4.8L154.4,5v0.3L154.7,5.2z M154.7,5.2l3.3,0.4v0V5.3l-1.3-0.2l-2-0.3 M154.4,5.3
	l2,1.2l0.2,0.2l0.1,0.3v1.3l1.3-0.8l-0.1-0.5l0.3-0.9l0.3-0.1l-0.2-1.5v0.6v1l-0.1-0.3L158,5.6 M158.3,5.1l-0.1,0.2l-0.2,0
	 M156.7,0.1v5 M156.6,8.5l-0.4,0.2h0l-0.1,0l-0.2,0.2l-0.4,0L155,8.4l-0.2-0.6l0.2-0.4l0.2-0.1l0.2,0l0.2-0.1l0.6,0l0.6,0.7V8.5z
	 M156.6,8.5l-0.6,0l-0.4,0.2l0,0l0.4,0 M158.3,8.8l-0.1-0.3l0.2-0.6l0.8-0.4l0.8,0.1l0.4,0.5l0,0.2l0.1-0.4l-0.9-0.6l-1.3,0.3
	l-0.3,0.9L158.3,8.8l0,0.5v1.1l0.2,0.6h0l0.6,0c0,0-0.1-0.1-0.1-0.1c-0.1-0.1-0.1-0.3-0.2-0.4v-0.1l-0.1-0.7L158.4,9l0,0v0
	L158.3,8.8z M158.4,9L158.4,9l0.4-0.6l0.8-0.3l0.8,0.2l0.3,0.4l-0.1-0.3 M158.7,9.5l-0.1-0.4l0-0.1l0.1-0.3l0.6-0.3l0.7,0.1l0.4,0.3
	l0.1,0.5l0.2-0.5 M158.1,8.7L158,7.6 M158.4,7.8l-0.2-1.6 M156,8.7l-0.2,0.1l-0.1-0.1l-0.1,0l-0.1-0.1l-0.2-0.1l-0.2-0.4l-0.1-0.1v0
	L155,8l0-0.6l0.1-0.1 M155.1,8.1L155.1,8.1l0-0.7l0.2-0.1 M156,8.5l-0.6-0.7l-0.4,0.2l0,0.1l0.4,0.5l0.1,0.1l0,0 M162.6,10.6V9
	l-0.9,0.6l0.7,0.4l0.2,1.2l-0.9,1.3l-1.1,0.2l-0.7-0.4l0-0.3l-0.7-0.4l-4.5-2.7l-0.2-0.3V5.3 M163.7,14.5l0.2-0.1
	c-0.1,0-0.3,0-0.4,0.1L154.3,9l-0.2-0.3l0-1.3 M155.5,7.8V7.1 M158.8,10.2c0,0,0-0.1,0-0.1c0-0.3,0.2-0.5,0.4-0.7 M159.1,10.9
	c0,0,0.1,0.1,0.1,0.1c0.1,0.1,0.2,0.1,0.3,0.1c0.3,0.1,0.5,0,0.7-0.2 M159.1,11.5v-0.3l-0.5-0.3 M158.3,9.3l-1.6-0.9 M160.7,8
	l-0.3-1.6l-0.9-0.6l0,0l0.2,1.6 M162.9,8.6l-1.5,0.9l0.2,0l0.1,0.1 M159.7,11.3L159.7,11.3l0.6,0.3l0.4-0.1l0.4-0.4l0.2-0.6
	l-0.2-0.4l-0.7-0.4 M160.5,9.7l-0.2,0.1 M161.6,9.5l0.2,1.2l0.7,0.4 M160.4,9.2l0.1,0.4 M160.5,9.7l0.9-0.2 M159.8,11.9l0-0.3
	l-0.2-0.1l-0.2,0.1l-0.3-0.2l0.2-0.1 M159.7,11.6l-0.1-0.4l-0.5-0.3 M161.8,10.7l-0.9,1.4l0.7,0.4 M160.9,12l-1.1,0.2 M159.1,11.2
	l0.5,0.3 M158.5,6.1l1-0.3 M158.3,4.6l-1.6-10.4 M154.4,5V-6 M163.8,7.1V-6.7 M157.7-6l1.8,11.8 M170.1,10.9V-3 M162.6,9l2.3,1.4
	 M133.6,19.9l1.1,1l0.6,1.3 M132.9,21.2l0.7,0.6l0.3,0.7 M129.2,16.7l-0.2,0.1 M128.6,16.8l0.3-0.2 M129.5,17l0.3,0.1l0.3,0.1
	l0.1,0.7l-0.4,1l-0.7,0.6h-0.5l-0.3-0.4 M130.6,17.4l0.3,0.7l-0.3,0.9l-0.7,0.7l-0.7,0.1 M129.8,17.1l0.3,0.5l-0.2,0.8l-0.6,0.7
	l-0.6,0.2 M133.5,15.6l-1.8,0.1l-1.6-0.2 M126.6,15.7v0.9v0.7 M126.6,16.6l-2.9,0.3l-2.7-0.2 M123.7,24.8h0.3 M127.1,27.3l0.1-0.2
	l0.3-0.1l0.4,0.1l0.3,0.2 M127.5,27.3l1.6,0.8l0,0.1l2.1,2.1l0.1,3.6l0.1,0.1 M127.5,28.3l0.7,0.4l0.1,1.2 M128.2,30.3l-0.6-0.4
	l0.6,0.1 M128.1,31.2l-0.7-0.7 M129.1,28.2l0.2,1.9 M118.2,32.7l1-1.2l1.7-0.8l2-0.4l2.2,0.1l0.6,0.1l0.1-1.4l-0.8-2.5 M126.4,25.8
	l0.9,3l-0.2,3.5l0.4,0.1l0.3-0.3l0.6,0l0.5,0.2l0.2,0.3 M127.1,32.4l-1.5-0.4h0l-3-0.2l-2.6,0.4 M124.6,36.9l-0.2-0.3l0.3-0.2l0.7,0
	l0.6,0.3l0.2,0.2l-0.1,0.2 M126.4,38l-0.2-0.3l0.3-0.2l0.7,0l0.6,0.2l0.2,0.2l-0.1,0.2 M119.9,32.5l2.6-0.3l3,0.2l3.1,0.8l2.7,1.2
	 M127.5,32.5l1.2,0.3l0.6,0.3l0.1-1.2l-0.3-0.9 M131.3,33.9l-1.9-0.9 M128,31.6l-0.6-0.4 M125.6,32l0.1-1.5 M136.3,32.5l0.3,2.1
	l-0.2,2.3 M137.9,32l0.3,2.7l-0.3,2.9 M143,27.3l0.9,0.2l0.9-0.2l0.4-0.5l-0.4-0.5l-0.9-0.2l-0.9,0.2l-0.4,0.5L143,27.3z
	 M117.1,26.4l0.2,0.8l0.5,0.2l-0.1-0.7l-0.1-0.8 M117.8,27.3l0.1,0.1 M120.6,30c-0.7,0.3-1.2,0.7-1.5,1.2 M120.9,29.9
	c-0.1,0-0.2,0.1-0.3,0.1 M120.9,29.9l-1.3-0.3l-1.3-1.2 M121.4,30l-0.4-0.1c0.6-0.2,1.2-0.3,1.9-0.4 M118,28.4l-1.4-0.6l-0.5-1.5
	 M127.9,44.2l-2.5,1.5l-3.6,0l-2.1-1l-0.8-1.6v-0.9c-0.2,0-0.4,0-0.5-0.1c-0.2-0.1-0.2-0.2-0.2-0.3v-0.2l-1.9-1.2v-1.1l1.3-0.8
	l0.1-0.6l-1.4-1.2l-0.7-1.4L116,34l1.7-0.9 M115.6,34.6l0.7-1.1l1.5-0.7 M118.6,38.7l-0.3,0.2l-0.2-0.6 M117.5,38.5l0.4-0.2
	l-0.4-0.3 M119.1,40.5h-0.2v0.8h0.2 M118.1,41.7c0-0.1,0.1-0.2,0.2-0.3c0.1-0.1,0.3-0.1,0.5-0.1v0.9c0.3,0,0.6-0.1,0.7-0.2
	 M118.1,41.5v-0.6c0-0.1,0.1-0.2,0.2-0.3c0.1-0.1,0.3-0.1,0.5-0.1l0-1.7l-2.7,1.6 M122,44.1l0.4-0.9v-0.6l-0.4,0.9V44.1z M122,44.1
	l1.2,0.7l1.6-0.2l0.4-0.9l-1.2-0.7l-1.6,0.2 M140.8,46.9l-2.6,0.4l-3-0.2l-3.1-0.8l-2.7-1.2 M135.2,43.2l-0.2-0.3l0.3-0.2l0.7,0
	l0.6,0.2l0.2,0.2l-0.1,0.2 M128.1,39.2l-0.2-0.4l0.5-0.2l0.9,0.1l0.8,0.3l0.2,0.3l-0.1,0.2 M124,42.3v0.6 M124,42.3l-1.6,0.3
	 M125.2,43.6V43l-1.2-0.7 M175.6,16.8l0.9,0.3L177,18l-0.1,0.9l-0.6,0.6 M172.4,18.7l0.6-0.6l0.1-0.1l0.5-0.8l0.8,0h0.1l0,0l0.4,0.2
	l0.5,0.9l-0.2,1l-0.6,0.4l0,0 M174.6,19.7l-0.1,0l-0.7,0l-0.2-0.2 M171,14.2L171,14.2l0.1,0.1l0,0l0.4-0.2 M174.6,19.7L174.6,19.7
	l0.6-0.8l-0.1-1l-0.7-0.7l-0.1,0 M173.1,18l1.1-0.4l0.5,0.3l0.2,0.7l-0.2,0.6l-0.3,0.2l-0.4-0.1l-0.2,0.2 M171.1,14.3l0,3.2
	 M168.9,17.6l-1.8-1 M167.4,16.4l1.7,1 M166.3,16.9l0.2-0.1 M165.5,14.6l3.7-2.2 M165.4,11.1v1.6c0,0.5-0.2,0.9-0.6,1.3
	c-0.2,0.2-0.4,0.3-0.7,0.4l0.7,0.4 M171.1,20.3l1,0.6l0.7,0.8l0.1,0.2l-0.1,0.2 M170.7,19.9l0.4,0.2l0.4-0.3 M160,31.7v0.7l3.3-1.1
	l2.9-1.7l2.6-2.3l2.1-2.7l0.2-0.2l0.1-0.1l0-0.2l-0.6-0.7l-0.8-0.6l1,0.7l0.6,0.8l-0.1,0.3l-0.3,0.1 M166.9,25.2l-1.4,1.4l-1.5,1.1
	 M164.1,14.3c-0.1,0-0.1,0-0.2,0.1 M153.4,31.1l-0.7-0.2l-0.7,0.2l-0.3,0.4l0.3,0.4l0.7,0.2l0.7-0.2l0.3-0.4L153.4,31.1z
	 M149.2,29.5c0.2-0.2,0.3-0.4,0.3-0.7c0-0.3-0.2-0.7-0.6-0.9c-0.4-0.2-1-0.4-1.5-0.4s-1.1,0.1-1.5,0.4c-0.4,0.3-0.6,0.6-0.6,0.9
	c0,0.4,0.3,0.7,0.8,1 M159.4,31.6v0.2l-0.4,1.5l-1.1,1.2l0,0l0.1,0l0.2,0.1l-0.1,0l-0.3-0.1l-0.6,0.2l-0.5-0.1 M157.6,34.7l1.2,0.1
	 M160.2,32.6l0.1,0.2l0.1-0.2 M158.9,34.7l0.7-0.1l0.6-0.7l0.3-0.9l-0.2-0.4l-0.3,0.5l-0.1,0.1l-0.7,0.9 M160,33.3v-0.8 M142.8,41.2
	l1.8,1.5l0.6,1.5l-0.4-1.7l-2-1.7 M145.3,44.1l-0.5,1.3l-1.7,0.9 M160.5,9.7L160.5,9.7 M160.5,9.7L160.5,9.7 M158.3,8.8L158.3,8.8
	 M155.1,8.1L155.1,8.1 M157.9,34.4L157.9,34.4 M159.6,11.5L159.6,11.5 M174.7,19.7L174.7,19.7"/>
<path id="Layer0_5_MEMBER_103_1_STROKES" class="st8" d="M162.6,10.6l-0.3,1.2l-0.8,0.9l-0.5,0.2l-0.4-0.2 M163.8,7.1L163.5,8
	l-0.6,0.7 M153.8-12.8l-4.1,9.4L144,4.9l-3.3,3.5l-3.5,3l-3.7,2.4l-3.8,1.8 M170.1,2.7l0.4,0.2l1.4-0.1l1.4-1.5l0.6-2l-0.5-1.3
	l0.6,1.2l-0.6,1.9L172,2.8l-0.2,0L170.6,3l0.5,0.3l1.4-0.2l1.4-1.5l0.6-2L174-1.6 M170.5,3L170.5,3L170.5,3L170.5,3 M165.4,11.1
	c0-0.2-0.1-0.4-0.3-0.6c-0.2-0.2-0.5-0.3-0.8-0.4 M169.2,12.4l0.6-0.7l0.1-0.4l0.1-0.4 M170.8,10.9l-0.8-0.6 M171.1,11.8l-0.2-0.9
	 M171.1,11.8l0.4,0.5l0.3,1.1l-0.3,0.7l-0.2,0.1h-0.2 M170,11.3l0.8,0.1l0.3,0.3 M141.1,24.2l-0.9-0.2l-0.9,0.2l-0.4,0.5l0.4,0.5
	l0.9,0.2l0.9-0.2l0.4-0.5L141.1,24.2z M169.5,17.8l-0.4-0.4 M170,18.9l-0.5-1.1 M170.4,19.4l-0.4-0.5 M171.2,19.8l-0.8-0.5
	 M171.8,19.5l-0.6,0.3 M171.8,18.5v1 M171.2,17.5l0.6,1 M170.3,16l0.9,1.5 M170.2,14.6l0,1.5 M170.5,14.2l-0.3,0.3 M170.5,14.2
	L170.5,14.2l0.4-0.1l0.2,0 M170.9,14.1l-0.4,0.1 M169.2,13.9l-0.8-1 M169.4,15l-0.2-1.1 M168.9,15.6l0.5-0.6 M168.7,15.5l0.2,0.1
	 M168.7,15.5l-0.7-0.2l-0.6-0.7l-0.3-0.9 M168.1,13l0.7,0.9l0.2,1l-0.2,0.4l-0.3,0.1 M166.7,16.5l-0.6,0.3l-0.8-0.5l-0.5-0.9
	l-0.1-0.9 M165.5,14.6l-0.4,0.1l-0.3-0.1 M166.8,16.4l0.4,0.1 M166.8,16.4l-0.1,0.1 M166.3,16.9l-0.8-0.1l-0.8-0.8l-0.3-0.8l0.1-0.7
	 M167.4,16.4l-0.4-0.1l-0.1,0.1 M168.9,17.6l0.4,0.4l0.7,1.4l0.7,0.6 M161.2,16.7l0.5-0.3 M163.9,14.3l-0.1-0.1 M170.5,2.9
	L170.5,2.9 M166.7,16.5L166.7,16.5"/>
</svg>
