<?xml version="1.0" encoding="utf-8"?>
<!-- Generator: Adobe Illustrator 24.1.0, SVG Export Plug-In . SVG Version: 6.00 Build 0)  -->
<svg version="1.1" id="Ebene_1" xmlns="http://www.w3.org/2000/svg" xmlns:xlink="http://www.w3.org/1999/xlink" x="0px" y="0px"
	 viewBox="0 0 349.1 161" style="enable-background:new 0 0 349.1 161;" xml:space="preserve">
<style type="text/css">
	.st0{fill:none;stroke:#1D1D1C;stroke-width:0.55;stroke-miterlimit:5;}
	.st1{fill:none;stroke:#1D1D1C;stroke-width:0.55;stroke-miterlimit:60;}
	.st2{fill:#FF0000;}
	.st3{fill:none;stroke:#FFFFFF;stroke-width:1.4;stroke-miterlimit:5;}
	.st4{fill:none;stroke:#B1B1B1;stroke-width:0.55;stroke-miterlimit:5;}
	.st5{fill:none;stroke:#1D1D1C;stroke-width:0.25;stroke-miterlimit:5;}
	.st6{fill:none;stroke:#B1B1B1;stroke-width:0.5;stroke-miterlimit:5;}
	.st7{fill:none;stroke:#1D1D1C;stroke-width:0.3;stroke-miterlimit:5;}
	.st8{fill:#1D1D1C;}
	.st9{fill:none;stroke:#FFFFFF;stroke-width:0.3;stroke-miterlimit:5;}
	.st10{fill:#FF9900;}
	.st11{fill:#CCCCCC;}
	.st12{fill:#999999;}
	.st13{fill:#0099FF;}
	.st14{fill:#0066CC;}
	.st15{fill:none;stroke:#FF0000;stroke-width:2;stroke-miterlimit:5;}
	.st16{fill:none;stroke:#999999;stroke-miterlimit:5;}
	.st17{fill:none;stroke:#FF9900;stroke-linecap:round;stroke-linejoin:round;}
	.st18{font-family:'ArialMT';}
	.st19{font-size:10.2151px;}
</style>
<g>
	<path id="Layer2_5_MEMBER_0_MEMBER_0_1_STROKES" class="st0" d="M85.8,58.5l-4.1,2.4l-0.3,0.2h-0.1l-2.7,2.1l-2.2,2.3l-3.9,4.7
		l-1.3,1.3l-2.3,1.7l-7.1,3.9l-8.2,5.3l-11.2,6.3h-0.1L34,93.4 M87.7,61.2l-4.8,2.9L81,65.5l-0.7,0.6l-5.4,6.2l-2.2,2.1L70.4,76
		L63,80l-7.3,4.8L36.6,95.6 M50.9,80l-6,3.5L34.5,90 M34.6,90.3l-0.2,0.1L34.6,90.3l0.1,0.1l0,0h0.1l0.2,0.1 M34.4,90.4L34.4,90.4
		L34.4,90.4h-0.2l-0.1,0.1L34,90.6l-0.1,0.1l-0.1,0.1 M33.9,90.7L33.9,90.7L33.9,90.7"/>
	<path id="Layer2_5_MEMBER_0_MEMBER_1_1_STROKES" class="st0" d="M60.8,77.5l1.6-1.2 M55.2,80.6l-0.1-0.2l-0.4-0.7L54.2,79l-0.3-0.3
		l0,0l-0.2-0.1l-0.1-0.1l-0.3-0.2l-0.2-0.1l-0.3-0.1h-0.2l-0.1-0.2 M53.8,81.4l-0.1-0.3l-0.2-0.5l-0.6-0.8l-0.2-0.1l-0.1-0.1
		l-0.4-0.2H52 M44.4,83.1l-0.8-0.7L40.2,80 M39.4,81.1l3.3,2.3l0,0l0.6,0.5 M50.6,79.2l0.4-0.7l0.1-0.2l0.2-0.2l0.1-0.1l0.4-0.2h0.1
		h0.4 M50.9,80l0.5-0.3 M53.3,78.3l2.5-1.8"/>
	<path id="Layer2_5_MEMBER_0_MEMBER_2_1_STROKES" class="st0" d="M63.9,74.6v-0.3 M64.2,74.4l-0.1-0.2 M59.5,74.6h-0.2l0,0h-0.1
		h-0.1 M59.7,76.6h0.2 M58.2,74.8L56.5,76 M59.8,77.1L60,77 M60.5,76.1L60.5,76.1 M60.2,75.9l0.2-0.1 M64.2,75.4v-0.2 M63,75.9
		l0.7-0.5v-0.2 M64.7,74.6l-0.3,0.3 M44.2,71.3l-0.6,4l0,0v0.1v0.4v0.1V76l0.1,0.3l0,0v0.1l0.1,0.1l0.1,0.1l0,0l0.3,0.4l0.1,0.1
		l0.7,0.6 M39.4,81.1l-2-1.7l-0.1-0.1l-0.1-0.1l-0.1-0.1l-3.4-4.8l-0.2-0.5 M40.1,80l-2-1.6L38,78.3l-0.2-0.2l-3.3-4.8 M47.1,77.2
		l0.2,0.1 M45.3,76.4L45.3,76.4l-0.1,0.2v0.1v0.1v0.1V77l0,0v0.1l0,0l0.8,0.5 M45.5,76.4l0.8,0.5 M50,79l-1.3-0.2l-0.2-0.1l-0.4-0.3
		 M47,77.9l0.2,0.1h0.1l0,0h0.1 M46.7,78.9L46.7,78.9l-1-0.7 M49.4,80.4l-0.9-0.1l-0.2-0.1h-0.1L47.8,80l-0.6-0.4 M47,77.5l0.2,0.1
		 M45,75.6l0.7-4 M33.6,73.7l-0.1-0.3l-0.7-1.5 M34.3,73.3l-0.8-1.7"/>
	<path id="Layer2_5_MEMBER_0_MEMBER_3_1_STROKES" class="st0" d="M43.1,68.8l-0.2-0.3l-0.6-1l-0.1-0.3L42,66.7l-1.3-3.5v-0.3
		l-0.1-1.7v-0.1V61v-0.1l-0.1-0.3v-0.2 M44,68.2l-0.6-1L41.8,63v-0.3l-0.1-1.9l-0.1-0.4v-0.2v-0.4 M45.7,71.6v-0.2V71v-0.2l-0.1-0.4
		l-0.2-0.6l-0.2-0.3l-0.9-1.3 M44.2,71.3v-0.2l-0.1-0.3v-0.1l-1.2-1.8 M65.6,74.4h-0.2h-0.1l0,0l0,0 M82.5,34.4L82.5,34.4
		 M81.8,34.6l-0.4,0.3l-0.5,0.5l-0.3,0.3v0.1l-0.2,0.4l-0.1,0.2v0.1l-0.1,0.6v0.7v0.1V38v0.1l0.1,0.5l0.2,0.7l0.1,0.1l0.1,0.2
		l0.1,0.2l0.1,0.2l9.4,9.5l0,0l0.8,1l0.5,0.7L92,52l0.3,0.7l0,0l0.1,0.3l0,0v0.2v0.1v0.1v0.2v0.1l-0.2,0.4L92,54.4l-0.1,0.1l0,0
		L91.2,55 M93,57.7l0.2-0.1l0.8-0.5l0,0l0.3-0.3l0.3-0.3l0,0l0.5-0.8l0.3-0.7l0.2-0.7l0.1-0.7v-0.5l0,0v-0.2l0,0v-0.2l0,0v-0.2l0,0
		v-0.3l-0.4-1.1L94.8,50l-0.6-1l-1.1-1.4L84,38.4l-0.2-0.2l-0.3-0.5l0,0v-0.1 M84,36.9L84,36.9 M84.4,54.5l2.6-2.2l0.1-0.1l0.4-0.4
		l0.2-0.3l0.2-0.6l0.6-1.8 M84.3,54.9l0.2-0.2 M84.3,54.9L84.3,54.9h0.2 M83.9,55.2L83.9,55.2L83.9,55.2L84,55l0.1-0.1l0,0h0.1
		 M84.1,55.1L84.1,55.1L84.1,55.1 M83.9,55.6v-0.2v-0.1l0,0 M84,55.2L84,55.2 M84,55.3L84,55.3 M91.8,45.7L91.8,45.7 M91.7,52.2
		l-0.2,0.5l-0.1,0.2l-0.1,0.3l-0.4,0.7l-0.4,0.6l-0.7,0.7v0.3 M89.8,55.2V55 M91.1,55.3l-0.2,0.2 M92.7,57.6l-0.2,0.2 M92.3,58.2
		l-4.6,3.1 M90.5,55.5l-4.6,3.1 M40.3,59.6v0.2l0.1,0.5"/>
	<path id="Layer2_5_MEMBER_0_MEMBER_4_1_STROKES" class="st1" d="M59.1,74.6h0.2h0.2l0.3,0.1l0.3,0.2l0.3,0.3l0.3,0.3l0.4,0.8
		 M59.5,76.8L59.5,76.8L59.5,76.8L59.5,76.8L59.5,76.8l0.1,0.2L59.5,76.8L59.5,76.8L59.5,76.8l0.2-0.1 M59.4,76.8L59.4,76.8
		L59.4,76.8 M60,77L60,77L60,77h-0.2l0,0v-0.1v-0.1l0,0 M59.7,77.1L59.7,77.1L59.7,77.1L59.7,77.1L59.7,77.1L59.7,77.1L59.7,77.1
		L59.7,77.1L59.7,77.1L59.7,77.1L59.7,77.1L59.7,77.1L59.7,77.1 M60.4,75.7L60.4,75.7L60.4,75.7L60.4,75.7L60.4,75.7L60.4,75.7
		L60.4,75.7L60.4,75.7l0.1,0.2l0,0l0,0l0,0l0,0L60.4,75.7L60.4,75.7L60.4,75.7L60.4,75.7L60.4,75.7z M60.3,75.9L60.3,75.9
		 M60.3,75.9L60.3,75.9 M60.3,76L60.3,76 M60.3,76L60.3,76 M60.4,76.1L60.4,76.1 M60.5,76.1L60.5,76.1 M60.5,76.1L60.5,76.1
		 M60.5,76.1L60.5,76.1 M60.1,75.9L60.1,75.9L60.1,75.9v0.2l0,0l0,0l0,0h0.1h0.1l0,0l0,0l0,0l0,0h-0.1l0,0L60.1,75.9L60.1,75.9
		 M60,76L60,76L60,76L60,76v0.2l0,0l0.1,0.1h0.1 M60.1,76.3L60.1,76.3L60.1,76.3 M60,76L60,76L60,76L60,76 M59.9,76.1L59.9,76.1
		L59.9,76.1L59.9,76.1L59.9,76.1L59.9,76.1L59.9,76.1 M60,76L60,76 M59.8,76.1L59.8,76.1L59.8,76.1L59.8,76.1 M60.3,76L60.3,76
		L60.3,76L60.3,76L60.3,76L60.3,76L60.3,76z M60.2,76L60.2,76L60.2,76 M60.1,76L60.1,76L60.1,76L60.1,76 M60,76.4L60,76.4L60,76.4
		L60,76.4L60,76.4L60,76.4 M60.1,77L60.1,77L60.1,77L60.1,77L60.1,77L60.1,77L60.1,77L60.1,77L60.1,77 M59.6,77.1L59.6,77.1
		L59.6,77.1L59.6,77.1L59.6,77.1L59.6,77.1L59.6,77.1 M59.6,77L59.6,77L59.6,77 M64.9,74.5L64.9,74.5h0.2l0.4,0.2 M64.9,74.7
		L64.9,74.7L64.9,74.7L64.9,74.7L64.9,74.7L64.9,74.7L64.9,74.7L64.9,74.7L64.9,74.7L64.9,74.7L64.9,74.7L64.9,74.7L64.9,74.7
		L64.9,74.7L64.9,74.7L64.9,74.7L64.9,74.7 M64.9,74.7L64.9,74.7L64.9,74.7L64.9,74.7L64.9,74.7L64.9,74.7L64.9,74.7L64.9,74.7
		L64.9,74.7L64.9,74.7L64.9,74.7L64.9,74.7 M64.7,74.7L64.7,74.7L64.7,74.7L64.7,74.7v0.2l0,0h0.1l0,0h0.1l0,0v-0.1l0,0l0,0
		 M64.8,74.9L64.8,74.9L64.8,74.9L64.8,74.9 M64.9,75L64.9,75L64.9,75 M64.4,75L64.4,75L64.4,75L64.4,75l0.1,0.2l0,0l0,0h-0.1V75
		L64.4,75L64.4,75L64.4,75L64.4,75L64.4,75L64.4,75L64.4,75L64.4,75L64.4,75L64.4,75L64.4,75L64.4,75L64.4,75L64.4,75L64.4,75
		L64.4,75L64.4,75h-0.2l0,0l0,0l0,0v0.2 M64.1,74.1L64.1,74.1L64.1,74.1h-0.2l0,0l0,0l0,0H64.1L64.1,74.1L64.1,74.1L64.1,74.1
		L64.1,74.1 M63.9,74.3L63.9,74.3L63.9,74.3L63.9,74.3L63.9,74.3L63.9,74.3L63.9,74.3L63.9,74.3L63.9,74.3L63.9,74.3L63.9,74.3
		L63.9,74.3L63.9,74.3L63.9,74.3 M63.9,74.6L63.9,74.6h0.2h0.1l0,0 M64.2,74.6L64.2,74.6L64.2,74.6L64.2,74.6L64.2,74.6L64.2,74.6
		L64.2,74.6L64.2,74.6L64.2,74.6L64.2,74.6L64.2,74.6L64,74.7l0,0l0,0l0,0L64.2,74.6L64.2,74.6L64.2,74.6L64.2,74.6z M64.1,74.8
		L64.1,74.8L64.1,74.8L64.1,74.8l0.2-0.1 M64.1,74.8L64.1,74.8L64.1,74.8 M64.1,74.8L64.1,74.8 M63.7,75L63.7,75L63.7,75l0.2-0.1
		l0,0l0,0H64l0,0h0.1l0,0h0.1l0,0l0,0l0,0l0,0l0,0l0,0l0,0 M64.3,74.9L64.3,74.9L64.3,74.9L64.3,74.9L64.3,74.9L64.3,74.9L64.3,74.9
		L64.3,74.9 M63.8,75L63.8,75 M63.9,75L63.9,75 M63.9,75L63.9,75L63.9,75L63.9,75L63.9,75L63.9,75L63.9,75L63.9,75L63.9,75L63.9,75
		L63.9,75 M63.8,75L63.8,75 M63.7,75L63.7,75L63.7,75L63.7,75 M63.7,75L63.7,75L63.7,75L63.7,75 M63.7,75.2L63.7,75.2L63.7,75.2
		L63.7,75.2V75l0,0l0,0h0.1l0,0l0,0 M64.1,75.1L64.1,75.1L64.1,75.1h-0.2l0,0l0,0 M63.8,75.1L63.8,75.1 M64,75.3L64,75.3L64,75.3
		L64,75.3L64,75.3L64,75.3L64,75.3L64,75.3h-0.2l0,0l0,0 M63.7,75.2L63.7,75.2L63.7,75.2 M64.4,75L64.4,75 M64.4,75L64.4,75L64.4,75
		L64.4,75L64.4,75L64.4,75 M64.3,74.9L64.3,74.9L64.3,74.9L64.3,74.9L64.3,74.9z M64.2,74.9L64.2,74.9L64.2,74.9L64.2,74.9
		L64.2,74.9L64.2,74.9L64.2,74.9z M64.4,75L64.4,75L64.4,75L64.4,75L64.4,75L64.4,75L64.4,75L64.4,75L64.4,75 M64.2,75.1L64.2,75.1
		 M64.2,75.1L64.2,75.1L64.2,75.1L64.2,75.1L64.2,75.1L64.2,75.1L64.2,75.1L64.2,75.1L64.2,75.1L64.2,75.1 M64.3,75.3L64.3,75.3
		L64.3,75.3L64.3,75.3L64.3,75.3L64.3,75.3L64.3,75.3L64.3,75.3 M64.3,75.1L64.3,75.1 M64.4,75.1L64.4,75.1L64.4,75.1L64.4,75.1
		 M64.4,75L64.4,75 M64.3,75.1L64.3,75.1 M64,74.9L64,74.9L64,74.9L64,74.9L64,74.9L64,74.9L64,74.9 M64,74.9L64,74.9 M64.1,75
		L64.1,75L64.1,75L64.1,75L64.1,75l-0.2,0.1 M64.2,74.9L64.2,74.9L64.2,74.9 M63.9,74.9L63.9,74.9 M64,75L64,75L64,75L64,75
		 M64.1,75.1L64.1,75.1L64.1,75.1L64.1,75.1L64.1,75.1L64.1,75.1 M64.2,75.1L64.2,75.1L64.2,75.1 M64.1,75.2L64.1,75.2 M64.1,75.1
		L64.1,75.1 M63.9,75.2L63.9,75.2L63.9,75.2 M64.1,75.3L64.1,75.3 M64.4,75.2L64.4,75.2L64.4,75.2 M63.5,75.9l-0.3-0.1h-0.1H63h-0.1
		l-0.1,0.1V76v0.1 M62.4,76.3L62.4,76.3h0.3 M65.6,74.4L65.6,74.4l0.3,0.1 M90.5,55.4L90.5,55.4h0.3h0.1l0,0l0.3,0.1l0,0l0.1,0.1
		l0,0l0.1,0.1l0.2,0.2l0,0l0.2,0.2l0.1,0.1v0.1l0.1,0.1l0.2,0.4l0.1,0.2l0,0l0.1,0.3l0,0v0.3l0,0v0.1 M91.2,55.2h0.2l0.4,0.2
		l0.4,0.3l0.1,0.1l0.1,0.2l0.3,0.5l0.2,0.5v0.2v0.1v0.2 M41.2,58.2L41.2,58.2h0.2h0.1 M41.8,58.6L41.8,58.6v0.2V59v0.1l-0.1,0.1
		l-0.2,0.1l0,0h-0.1h-0.1h-0.2v-0.1L41,59.1V59v-0.1v-0.2v-0.1l0.1-0.1l0.1-0.1l0.1-0.1h0.1h0.2h0.1L41.8,58.6z M54,82.3L54,82.3
		h-0.3l0,0l0,0 M54,82.3L54,82.3L54,82.3h0.2l0,0l0,0l0.2,0.1h0.1h0.1l0,0l0,0v0.1l0.1,0.1l0,0l0,0l0.1,0.1l0,0v0.1h0.1l0,0
		 M55,83.1L55,83.1L55,83.1L55,83.1L55,83.1L55,83.1 M55.2,83.3L55.2,83.3L55.2,83.3l0.2,0.3l0,0l0.1,0.2l0,0l0,0l0,0v0.1v0.2l0,0
		v0.1v0.1v0.2l0,0v0.1l0,0v0.1l0,0v0.1l0,0l0,0l0,0l0,0l0,0l0,0 M54.1,82.4L54.1,82.4L54.1,82.4 M54.7,82.7L54.7,82.7L54.7,82.7
		l-0.2-0.1 M55.3,83.6L55.3,83.6l-0.1-0.2v-0.1 M55.4,83.9L55.4,83.9 M55.1,83.2L55.1,83.2 M60,76L60,76 M60.1,76.3L60.1,76.3
		 M59.9,76.1L59.9,76.1 M59.6,77.1L59.6,77.1 M64.9,74.7L64.9,74.7 M64.3,74.9L64.3,74.9 M63.8,74.3L63.8,74.3 M63.7,75L63.7,75
		 M64.4,75L64.4,75 M64.4,75L64.4,75 M64.4,74.9L64.4,74.9 M64.2,75.1L64.2,75.1 M64.2,75.1L64.2,75.1 M64.1,74.9L64.1,74.9 M64,75
		L64,75 M64.1,75.1L64.1,75.1 M64.1,75.1L64.1,75.1 M64.3,75.2L64.3,75.2 M64.3,75.3L64.3,75.3 M54,82.3L54,82.3 M55,83.1L55,83.1
		 M55.1,83.3L55.1,83.3 M63.8,75L63.8,75 M64.1,74.2L64.1,74.2 M64.1,74.8L64.1,74.8"/>
	<path id="Layer2_5_MEMBER_0_MEMBER_5_1_STROKES" class="st1" d="M43.1,68.8l0.3-0.2l0.2-0.1l0.1-0.1l0.1-0.1 M46.6,78.2L46.6,78.2
		L46.6,78.2L46.6,78.2L46.6,78.2h-0.2l-0.5-0.3v-0.8l0.3-0.2l0,0l0.5-0.3l0.5,0.3l-0.8,0.5v0.8 M46.8,77.3v0.3V77.3L46.8,77.3
		L46.8,77.3l0.3-0.2L46.8,77.3L46.8,77.3L46.8,77.3L46.8,77.3z M46.3,78.6l-0.2-0.2 M46.3,78.6L46.3,78.6L46,78.3l0,0h-0.1l0.1,0.2
		l0,0 M46,78.3L46,78.3L46,78.3L46,78.3l0.4,0.2v0.1l0,0 M47.2,77.6L47.2,77.6l-0.1,0.2l0,0l0,0l0,0H47h-0.1h-0.1h-0.1l-0.1,0.1
		L46.5,78l0,0 M45.8,77.1l0.5,0.3 M45.4,77.9L45.4,77.9l0.1-0.3l0.1-0.1 M47.1,79.4v-0.2v-0.1V79l0.1-0.1h-0.1H47h-0.1l0,0l0,0l0,0
		l0,0l0,0v-0.1l0,0v-0.1l0,0v-0.1v-0.1v-0.1 M46.9,78.4L46.9,78.4l0.1-0.2h0.1h0.1h0.1l0,0 M47.4,78.1L47.4,78.1L47.4,78.1
		L47.4,78.1L47.4,78.1l0.1,0.3v0.1v0.1v0.1l0,0l0.1-0.1l0.1-0.1l0.2-0.1 M46.9,78.4l-0.1,0.2v0.1 M46.6,78.9L46.6,78.9L46.6,78.9
		 M46.8,78.8L46.8,78.8l0.1,0.2l0,0H47l0.2-0.1l0,0v-0.1l0.1-0.1v-0.1v-0.2v-0.1v-0.1l0,0h-0.1h-0.1h-0.2l-0.1,0.1l-0.1,0.1v0.1l0,0
		 M47.2,77.1L47.2,77.1L47.2,77.1L47.2,77.1l0.1,0.3 M47.2,77.1L47.2,77.1L47.2,77.1L47.2,77.1L47.2,77.1L47.2,77.1L47.2,77.1z
		 M46.9,77.3L46.9,77.3L46.9,77.3L46.9,77.3L46.9,77.3L46.9,77.3L46.9,77.3z M46.9,77.5L46.9,77.5L46.9,77.5 M47.1,77.6L47.1,77.6
		L47.1,77.6L47.1,77.6 M46.9,77.6L46.9,77.6L46.9,77.6L46.9,77.6L46.9,77.6z M47.4,78.1L47.4,78.1 M47.4,78.1L47.4,78.1 M47.3,78.9
		L47.3,78.9L47.3,78.9l0.2-0.2L47.3,78.9L47.3,78.9L47.3,78.9L47.3,78.9z M59,78l-0.1-0.2l-0.3-0.6l-0.3-0.4L58,76.5l-0.5-0.4
		L57.2,76H57h-0.3h-0.1h-0.1l-0.2,0.2l-0.1,0.2l0,0h0.2l0.1-0.1h0.1h0.1h0.2l0.5,0.2l0.2,0.1l0.3,0.3l0.3,0.3l0.4,0.6l0.1,0.2
		l0.1,0.4 M56.2,76.4L56.2,76.4H56l0,0h-0.1 M58.2,74.8l0.3-0.1h0.1h0.3h0.2l0.5,0.3l0.5,0.5l0.1,0.2 M59.7,76.6L59.7,76.6
		L59.7,76.6 M59.4,77L59.4,77L59.4,77L59.4,77v-0.2v-0.1 M60.1,76.3L60.1,76.3L60.1,76.3 M60.1,76.6L60.1,76.6L60.1,76.6l0.1,0.2
		h-0.1l0,0l0,0l0,0V76.6L60.1,76.6L60.1,76.6L60.1,76.6z M60.1,76.6L60.1,76.6L60.1,76.6L60.1,76.6L60.1,76.6h-0.2l0,0 M60.3,76.6
		L60.3,76.6L60.3,76.6L60.3,76.6 M60.1,76.6L60.1,76.6L60.1,76.6L60.1,76.6L60.1,76.6L60,76.8 M60.3,76.6L60.3,76.6L60.3,76.6
		L60.3,76.6L60.3,76.6z M60.3,76.7L60.3,76.7L60.3,76.7L60.3,76.7z M60.1,77L60.1,77L60.1,77L60.1,77l0.2,0.1l0,0l0,0V77l0,0l0,0
		H60.1L60.1,77L60.1,77L60.1,77L60.1,77L60.1,77L60.1,77L60.1,77l0.2,0.1l0,0h0.1l0,0V77v-0.1v-0.1l0,0l0,0h0.1h0.1l0,0l0,0l0,0l0,0
		l0,0l0,0v0.1V77l0,0l0,0l0,0h-0.1l0,0h-0.1h-0.1l0,0 M60.2,77L60.2,77L60.2,77L60.2,77z M60.4,76.2l0.1,0.3l0.1,0.2h-0.3l0,0l0,0
		 M60.8,77L60.8,77L60.8,77L60.8,77l-0.1-0.2l0,0l0,0l0,0l0,0h0.1 M60.9,76.7L60.9,76.7L60.9,76.7L60.9,76.7l-0.1,0.2l0,0V77h0.1
		l0,0 M61,76.7L61,76.7L61,76.7L61,76.7L61,76.7L61,76.7L61,76.7v0.2l0,0l0,0l0,0V76.7L61,76.7L61,76.7L61,76.7L61,76.7 M60.9,77
		L60.9,77L60.9,77l-0.1-0.2v-0.1l0,0l0,0 M58.3,78.6l-0.1-0.4l0,0L58,77.8l0,0l-0.1-0.2l0,0l-0.2-0.2l-0.1-0.1l-0.1-0.1l0,0
		l-0.2-0.1l-0.2-0.2l0,0l-0.2-0.1l0,0l-0.4-0.2h-0.1h-0.1 M60.3,77L60.3,77L60.3,77 M60.5,77L60.5,77L60.5,77 M60.3,77L60.3,77
		L60.3,77 M89.8,54.9L89.8,54.9L89.8,54.9L89.8,54.9L89.8,54.9L89.8,54.9l-0.4-0.1l-0.3,0.1l0,0l0,0l-0.2,0.2l-0.1,0.1v0.1l-0.3,0.1
		l-0.3,0.5l0,0L88,56.2l0,0v0.1l-0.1,0.1l0,0l-0.1,0.2l0,0l-0.1,0.2l-0.4,0.3v-0.2l-0.1-0.3L87,56.2l-0.7-0.8l-0.5-0.5l-0.3-0.3
		L85,54.4h-0.2h-0.1h-0.1h-0.1l-0.1,0.1l-0.1,0.1l-0.1,0.2v0.1 M83.9,55.7L83.9,55.7v-0.2v-0.1v-0.1l0.1-0.1l0.1-0.1h0.1h0.1h0.2
		h0.1h0.1h0.1l0.1,0.1l0.2,0.1l0.2,0.1l0.2,0.1l0.2,0.1l0.3,0.3l0.1,0.2l0.1,0.2l0.1,0.3l0,0l0.1,0.2l0.1,0.2v0.1v0.3v0.1v0.1v0.1
		l-0.1,0.1 M84,55.1l0.2-0.1h0.3h0.1 M84.6,55.1L84.6,55.1l0.5,0.2l0.3,0.2l0.4,0.5l0.1,0.2l0.3,0.5l0.1,0.2v0.2l0,0v0.1v0.3v0.1
		v0.1 M83.9,55.4l0.1-0.3 M85.7,54.9L85.7,54.9 M86.1,55.2L86.1,55.2L86.1,55.2L86.1,55.2z M86.1,55.2l0.3,0.3l0.1,0.1l0.2,0.3
		l0.1,0.1 M86.7,56.1L86.7,56.1 M86.8,56.2L86.8,56.2 M86.8,56.2l0.1,0.2l0.1,0.3V57v0.1l-0.1,0.3 M84.4,54.8L84.4,54.8L84.4,54.8
		l0.2-0.2h0.1h0.1h0.1l0,0H85l0.5,0.2l0.4,0.3 M84.6,54.6L84.6,54.6 M84.5,54.7L84.5,54.7L84.5,54.7 M84.7,54.6h0.2 M86.7,56
		L86.7,56 M86.5,55.8L86.5,55.8l0.2,0.2 M86.7,56.2L86.7,56.2 M91.8,45.7H92l0.1-0.2h0.1h0.1l0.3,0.1l0.3,0.2l0.3,0.3l0.4,0.5
		l0.4,0.8l0.1,0.4v0.4v0.2 M92,45.8L92,45.8l0.3,0.1l0.3,0.2l0.3,0.2l0.3,0.4l0.2,0.3l0.1,0.4v0.2l0.1,0.2 M40.4,60h0.2h0.2H41
		l0.2-0.1 M40.4,60.4L40.4,60.4L40.4,60.4l0.5,0.1l0,0H41l0,0h0.1h0.1l0,0l0,0h0.1l0,0 M40.7,60.5h0.2H41h0.1l0.3-0.2l0,0
		 M41.5,60.5L41.5,60.5l-0.3,0.2H41h-0.3l0,0 M34,90.7L34,90.7l0.2-0.1h0.1h0.1h0.1l0.3,0.1l0.2,0.1l0.3,0.2l0.1,0.2l0.3,0.3
		l0.1,0.2l0.1,0.1 M34.2,90.4L34.2,90.4l0.2-0.2l0,0l0.1-0.1l0,0h0.1h0.1h0.2h0.2l0,0h0.2l0,0l0.2,0.1l0.2,0.1l0,0l0.5,0.5l0.3,0.4
		l0,0l0.1,0.2 M35.9,91.7l-0.4-0.6l-0.4-0.4l-0.5-0.2h-0.1h-0.1l-0.3,0.1 M45.9,78.3L45.9,78.3 M46.6,78.2L46.6,78.2 M46.9,78.4
		L46.9,78.4 M47.4,78.1L47.4,78.1 M60.5,77L60.5,77 M84.6,55.1L84.6,55.1 M86.7,56L86.7,56 M47.2,77.1L47.2,77.1"/>
	<path id="Layer2_5_MEMBER_0_MEMBER_6_1_STROKES" class="st1" d="M92.7,57.8L92.7,57.8L92.7,57.8h0.2l0,0l0,0l0,0v-0.1l0,0v-0.1l0,0
		v-0.1v-0.2v-0.2l0,0V57l-0.1-0.2l-0.2-0.4l0,0l-0.1-0.2l0,0l-0.2-0.3l0,0l-0.1-0.2l0,0l-0.1-0.1L92,55.5l0,0l-0.1-0.1l0,0h-0.1l0,0
		h-0.1l0,0h-0.1l0,0h-0.1l0,0h-0.1l0,0l0,0l0,0v0.1l0,0v0.1 M91.5,55.2l0.2,0.1l0.3,0.2l0.1,0.1l0.5,0.6l0.1,0.2l0.2,0.5v0.2v0.3
		v0.1l-0.1,0.1 M40.5,59.1l0.3-0.5l0,0l0,0l0,0v-0.1l0.1-0.1l0.2-0.1h0.2h0.2h0.1l0,0h0.1l0.1,0.1l0.3,0.1l0.1,0.1v0.1l-0.1,0.2v0.3
		L42,59.4h-0.3l-0.2,0.1h-0.2h-0.1h-0.1L41,59.4h-0.1l-0.1-0.1v-0.2V59v-0.3v-0.1 M41.8,58.2L41.8,58.2l0.1,0.2v0.1l0,0l0,0l0,0l0,0
		v0.1l0,0l0,0v0.1v0.1 M41.4,59.3L41.4,59.3L41.4,59.3L41.4,59.3L41.4,59.3z M41.4,59.3L41.4,59.3l0.2-0.2V59l0,0v-0.1l0,0v-0.1l0,0
		v-0.1l0,0v-0.1l0,0v-0.1l0.1,0.1v0.1v0.1 M41.5,59.2L41.5,59.2l0.2-0.2l0.1-0.2v-0.1 M41.6,58.1h-0.2l-0.2,0.1L41,58.4l-0.1,0.3V59
		v0.1v0.2l0,0 M40.9,58.5L40.9,58.5l0.1-0.2l0.1-0.1L41,58.3l0,0 M82.7,34.3L82.7,34.3h0.2H83l0.1,0.1l0.3,0.2l0.3,0.4l0.3,0.7v0.2
		v0.5v0.1l-0.1,0.2l-0.1,0.1 M81.8,34.5L81.8,34.5L81.8,34.5H82h0.2h0.3l0.2,0.1l0.3,0.3l0.3,0.3l0,0l0.1,0.1v0.1l0.1,0.2l0,0
		l0.1,0.1v0.1l0.1,0.2l0.1,0.3v0.1v0.2l0,0v0.1v0.1v0.1l0,0V37l0,0v0.1l0,0l-0.1,0.1 M34.4,73.3L34.4,73.3L34.4,73.3L34.4,73.3
		L34.4,73.3 M34.4,73.3L34.4,73.3l-0.1,0.1h-0.1l0,0l-0.1,0.1H34l0,0l0,0h-0.1l0,0l0,0l0,0h-0.1l0,0l0,0l0,0l0,0l0,0h0.1H34l0,0l0,0
		l0,0l0,0l0,0l0.1-0.1h0.1l0.1-0.1l0,0H34.4L34.4,73.3L34.4,73.3L34.4,73.3L34.4,73.3z M34.3,73.3L34.3,73.3L34.3,73.3L34.3,73.3
		 M33.9,73.6L33.9,73.6L33.9,73.6L33.9,73.6L33.9,73.6L33.9,73.6L33.9,73.6l0.2-0.1l0,0h0.1 M34.1,73.4L34.1,73.4L34.1,73.4
		 M34,73.5L34,73.5L34,73.5 M33.7,73.7L33.7,73.7L33.7,73.7 M33.7,73.7L33.7,73.7L33.7,73.7 M34.4,73.3L34.4,73.3"/>
	<path id="Layer2_5_MEMBER_0_MEMBER_7_1_STROKES" class="st0" d="M84.1,55.5l-3,1.8l-3.5,2.5l-2.8,3l-4.4,5.1l-1.9,1.4l-9.3,5.3
		 M62.6,76.8L62.6,76.8L62.6,76.8l0.2,0.2l0.2,0.2v0.1l0,0l0,0l0,0l0.1,0.1l0,0l0.2,0.4l0.1,0.2l0,0l0.1,0.2v0.2v0.4V79l0,0v0.1v0.1
		v0.1l0,0v0.2 M66.9,74.6L66.9,74.6L66.9,74.6l0.2,0.2l0,0l0,0l0.1,0.1l0,0l0,0l0.1,0.1l0,0l0,0l0.1,0.1l0,0l0.1,0.2l0,0l0.1,0.2
		l0.1,0.2l0,0v0.1l0.1,0.2v0.4v0.1l0,0 M85.4,63.2l-0.7,1.2L83.5,66l-3.4,3.4l-2.2,1.8l-8.2,5.9l-10.1,5.6 M42,94.3l26.2-13.5
		l5.6-3.6l7.9-6l2-1.8l3.1-3.6l1.3-2.3l1-2.5 M86.3,57.6l-6,4"/>
	<path class="st2" d="M46.7,76.7l-0.6,0.2l-0.6-0.6l-0.2,0.2L45,76.9l0.1,0.3l0.5,0.3L45.5,78l0.1,0.3l0.4,0.1l0.4,0.2l0.2,0.2
		l0.3,0.2h0.2l0.3-0.3l0.1-0.2v-0.3L47.2,78L47,77.8l0.1-0.1l0.2-0.3L47.1,77L46.7,76.7z"/>
	<path id="Layer2_5_MEMBER_0_MEMBER_9_1_STROKES" class="st0" d="M40.5,58.7l-0.1,0.2V59l0,0v0.1v0.4v0.1v0.2 M41.2,59.6l-0.7-0.1
		v-0.1l0.1-0.3"/>
	<path id="Layer2_5_MEMBER_0_MEMBER_10_1_STROKES" class="st0" d="M42.5,57.1c-0.2-0.2-0.3-0.2-0.5-0.2l-0.5,0.4l0.4,1l0.8-0.5
		L42.5,57.1z M41.9,58.2l0.4,0.9l0.8-0.5l-0.4-0.9 M41.5,57.3l-1,0.6l0.4,1l1-0.6 M41,61L41,61l0.6-0.3l-0.3-0.9l-0.9,0.5l0.2,0.6
		C40.7,61,40.9,61.1,41,61z M40.9,58.8l0.4,0.9l1-0.6l0.3,0.9l0.5-0.3c0.2-0.1,0.3-0.3,0.2-0.6l-0.2-0.5 M41.6,60.7l1-0.6
		 M40.5,57.9l-0.6,0.4c-0.1,0.1-0.2,0.3-0.2,0.6l0.2,0.6l0.9-0.5 M40.3,60.3L40,59.4"/>
	<path id="Layer2_5_MEMBER_0_MEMBER_11_1_STROKES" class="st3" d="M34.8,70.2l-8.9-2.6"/>
	<path id="Layer2_5_MEMBER_1_MEMBER_0_1_STROKES" class="st4" d="M81.2,27.2L62,34.6l-15.7,6.9l-15.1,7.4 M107.5,64.7l-2,2.2
		l-0.3,0.2l-7.8,7.7L97.1,75l-0.3,0.3L93.6,78l-1.2,4.3L90,84.4l-6.5,4.7l-22.1,11.8 M60.9,99.6L30.7,82.2"/>
	<path id="Layer2_5_MEMBER_1_MEMBER_1_1_STROKES" class="st4" d="M82.5,55l-14,8.1c-0.2,0.1-0.3,0.2-0.5,0.4c-0.5,0.4-0.8,1-0.9,1.8
		c-0.2,1,0,2,0.5,2.9l0.2,0.3l0.9,2.3l1.5,5.3l0.9,5.2l0.2,4.9l-0.5,4.5l-0.3,1.1v0.3c0,0.3,0.1,0.5,0.3,0.7
		c0.2,0.2,0.5,0.3,0.8,0.3h0.2l16-9.2c0.5-0.5,0.9-1.1,1.2-1.8l1.3-4.6l0.5-4.5l-0.2-4.9l-0.9-5.2l-1.5-5.3l-0.3-0.7l-0.4-0.6
		c-0.7-0.9-1.5-1.4-2.5-1.6C84.1,54.4,83.3,54.5,82.5,55z"/>
	<path id="Layer2_5_MEMBER_1_MEMBER_2_1_STROKES" class="st5" d="M84.8,52.7L83,51.8 M87.7,54.3l-1.8-0.9 M81.9,51.2L81,50.7
		 M90.6,55.9l-1.8-1 M93.5,57.5l-1.8-1 M96.4,59l-1.8-1 M99.3,60.6l-1.8-1 M102.2,62.2l-1.8-1 M105.1,63.8l-1.8-1 M107.1,64.8
		l-0.9-0.5 M62.3,60.2l-0.7-0.4v0.8 M61.6,59.8v-0.6 M65,61.7l-1.6-0.9 M66.8,62.8L66,62.3 M61.6,63.9v-1.4"/>
	<path id="Layer2_5_MEMBER_1_MEMBER_3_1_STROKES" class="st4" d="M89,75.6L69.6,64.5"/>
	<path id="Layer2_5_MEMBER_1_MEMBER_4_1_STROKES" class="st5" d="M92.2,77.5l-0.6-0.4 M93.6,78.3L93,77.9 M62.4,64.4L61.7,64
		 M64.7,65.7l-1.4-0.8 M66.2,66.6l-0.7-0.4"/>
	<path id="Layer2_5_MEMBER_1_MEMBER_5_1_STROKES" class="st4" d="M88.2,79.3l-19-11"/>
	<path id="Layer2_5_MEMBER_1_MEMBER_6_1_STROKES" class="st5" d="M80.2,51l1-0.5 M76.9,52.4l2-0.9 M73.6,53.9l2-0.9 M91.4,81.1
		l-0.5-0.3 M92.5,81.8L92,81.5 M67.1,56.8l2-0.9 M63.9,58.2l2-0.9 M61.6,59.2l1-0.4 M70.4,55.3l2-0.9"/>
	<path id="Layer2_5_MEMBER_1_MEMBER_7_1_STROKES" class="st4" d="M30.8,82.3L42,75l16.5-9.4"/>
	<path id="Layer2_5_MEMBER_1_MEMBER_8_1_STROKES" class="st5" d="M77,29.5l-0.6,0.9 M75.4,34.7v0.6v0.4 M75.9,31.5l-0.3,1l-0.2,1
		 M80.4,49.8l0.6,0.9 M76.2,40.6l0.7,2 M77.3,43.9l0.8,1.8 M75.7,38.5l0.2,0.9 M78.7,46.9l1,1.8 M82.7,53.2l0.3,0.3 M81.9,52
		l0.3,0.5"/>
	<path id="Layer2_5_MEMBER_1_MEMBER_9_1_STROKES" class="st4" d="M100.4,38l-0.9-1l-4.7-4.4l-0.9-0.7 M92.8,31.1l-2.9-1.8l-3.2-1.4
		l-2.9-0.7l-1.4-0.1l-1.3,0.1 M107.2,64.9c2.2-1.9,3-5,2.2-9.5s-2.8-9-6.2-13.8"/>
	<path id="Layer2_5_MEMBER_1_MEMBER_10_1_STROKES" class="st5" d="M103.9,66.4l0.9-0.2 M97.8,65.4l0.6,0.2l1.3,0.4 M100.8,66.3
		l0.5,0.1l1.4,0.1 M90.6,61.2l0.8,0.6 M92.3,62.5l1.2,0.8l0.4,0.2 M95,64.2l1.7,0.9"/>
	<path id="Layer2_5_MEMBER_1_MEMBER_11_1_STROKES" class="st4" d="M61,101c-4.1,2.4-9.1,1.9-15-1.5s-10.9-8.7-15-15.8
		c-4.1-7.2-6.2-14.1-6.2-20.9S26.9,51.4,31,49c4.1-2.4,9.2-1.9,15,1.5c5.9,3.4,10.9,8.7,15,15.8c4.1,7.2,6.2,14.2,6.2,20.9
		C67.2,94.1,65.1,98.6,61,101z"/>
	<path id="Layer2_5_MEMBER_1_MEMBER_12_1_STROKES" class="st6" d="M66.7,87c0-6.6-2-13.4-6.1-20.4c-4-7-8.9-12.2-14.6-15.5
		s-10.6-3.8-14.6-1.4c-4,2.3-6,6.8-6,13.4s2,13.4,6,20.4S40.3,95.7,46,99s10.6,3.8,14.6,1.5C64.6,98.1,66.7,93.6,66.7,87z"/>
	<path id="Layer2_5_MEMBER_1_MEMBER_13_1_STROKES" class="st4" d="M94.5,39.3v0.2v0.3l0.1,0.4l1.9,3.2 M80.8,35.1l1.6-0.7
		 M71.5,92.6l16-9.2l0.9-1.1l1.3-4.6l0.5-4.5L90,68.3l-0.9-5.2l-1.6-5.3L87.2,57l-0.7-0.9l-1.1-0.8L84.8,55l-0.6-0.2l-0.6-0.1h-0.5
		 M60.6,100.4L31.4,83.5"/>
	<path id="Layer2_5_MEMBER_1_MEMBER_14_1_STROKES" class="st0" d="M48.3,49.6v-0.9l-0.5-0.3v0.9L48.3,49.6z M48.3,49.6l0.6,0.3V49
		l-0.6-0.3 M50.2,48.7v0.9 M50.2,48.7l-0.8,0.5v0.9l0.8-0.5l0.8-0.4v-0.9L50.2,48.7z M48.9,49l0.5,0.3 M51,48.3l0.7-0.4l0.7-0.4
		l-1.6-0.8l-3,1.8 M48.9,49.9l0.6,0.3 M51.7,47.9v0.9l0.8-0.4v-0.9 M51.7,48.8L51,49.2 M100,41.4l-0.2-0.3 M94.6,39.2l3-1.7l0,0l0,0
		l0,0l0,0l0,0l0,0l0,0l0,0l0,0l0.2,0.2v0.1l0,0l0,0l0,0l0.7,1.2 M96.5,43.4c0.2,0.3,0.4,0.4,0.7,0.3l2.7-1.6 M85.3,36.5v-0.9
		l-0.8,0.5v0.8L85.3,36.5z M85.3,36.5l0.7-0.4v-0.9l-0.7,0.4 M85.9,35.2l-1.5-0.8l-3.1,1.8l0.7,0.3l0.5,0.3l0.4,0.2l0.9-0.5l0.8-0.4
		 M81.3,36.2v0.9l0.6,0.3v-0.9 M82.4,36.8l-0.1,0.8l0.5,0.3V37 M82.9,37.9l0.9-0.5v-0.9 M81.9,37.4l0.5,0.2 M83.8,37.4l0.8-0.5"/>
	<path id="Layer2_5_MEMBER_1_MEMBER_15_1_STROKES" class="st7" d="M62.1,44.9l1.1,0.6l2-1.1 M65,43.3l-1.8,1l-0.9-0.5l1.8-1L65,43.3
		z"/>
	<path id="Layer2_5_MEMBER_1_MEMBER_16_1_STROKES" class="st7" d="M65,43.3l0.2,1 M63.2,44.3v1.1 M62.2,43.8L62,44.9"/>
	<path id="Layer2_5_MEMBER_1_MEMBER_17_1_STROKES" class="st7" d="M77.3,38.6l1.1,0.6l2-1.1 M80.2,37l-1.8,1l-0.9-0.4l1.8-1L80.2,37
		z"/>
	<path id="Layer2_5_MEMBER_1_MEMBER_18_1_STROKES" class="st7" d="M80.3,37l0.2,1 M78.4,38.1v1.1 M77.5,37.6l-0.2,1"/>
	<path id="Layer2_5_MEMBER_1_MEMBER_19_1_STROKES" class="st0" d="M104.7,39.7l-1.2,0.8"/>
	<path id="Layer2_5_MEMBER_1_MEMBER_20_1_STROKES" class="st0" d="M104.8,39.3l-0.1-0.3l-0.1-0.2l-0.2-0.3l-0.1-0.1l-0.1-0.1l0,0"/>
	<path id="Layer2_5_MEMBER_1_MEMBER_21_1_STROKES" class="st7" d="M104.7,39.7L104.7,39.7"/>
	<path id="Layer2_5_MEMBER_1_MEMBER_22_1_STROKES" class="st0" d="M98.1,39.6l-0.4-0.2h-0.3l-0.2,0.1l-0.1,0.1L97,39.7l-0.1,0.1
		L96.8,40 M98.4,41.6L98.4,41.6l-0.2,0.2L98,41.9L97.7,42h-0.2l0,0l-0.2-0.1l0.2,0.1"/>
	<path id="Layer2_5_MEMBER_1_MEMBER_23_1_STROKES" class="st0" d="M101.3,41l1.3,0.3l0.9-0.5"/>
	<path id="Layer2_5_MEMBER_1_MEMBER_24_1_STROKES" class="st7" d="M101.2,40.1l0.3,0.1l0.1,0.1v0.1l0.2,0.6 M101.3,40.3L101.3,40.3
		L101.3,40.3"/>
	<path id="Layer2_5_MEMBER_1_MEMBER_25_1_STROKES" class="st0" d="M96.4,41.1l-0.1,0.2c0,0.2,0.1,0.3,0.2,0.3"/>
	<path id="Layer2_5_MEMBER_1_MEMBER_26_1_STROKES" class="st0" d="M96.5,41.5l0.8,0.4"/>
	<path id="Layer2_5_MEMBER_1_MEMBER_27_1_STROKES" class="st0" d="M96.7,40.1l-0.4,1"/>
	<path class="st8" d="M101.3,37.7v0.2l-0.6,0.4h-0.2l-0.2,0.2l-1.7,1l-0.5,0.1l-0.6-0.2l-0.3,0.1l-0.3,0.2L96.7,40l-0.4,1l0,0v0.3
		l0.2,0.1l0.1,0.1l1,0.5l0.5-0.1l0.2-0.1l0.2-0.3l0.4-0.3l1.6-0.8l0.1-0.2l0.3,0.2l-0.1,0.2l0.1,0.2l0.1,0.1h0.3l0.5-0.1l0.8,0.4
		l0.9-0.5l-0.1-0.3l1.2-0.8l0.2-0.4l-0.1-0.3l-0.1-0.2l-0.2-0.3l-0.3-0.2h-0.3l0,0l-0.2-0.6l-0.1-0.2l0,0l-0.3-0.3L103,37h-0.2h-0.2
		l-0.2,0.2l-0.6,0.3l-0.1-0.1h-0.3L101.3,37.7L101.3,37.7z"/>
	<path id="Layer2_5_MEMBER_1_MEMBER_29_1_STROKES" class="st9" d="M101.2,37.7l0.1,0.3l0,0l0,0l-0.3,0.2h0.1h0.1l0.1,0.1l0.1,0.1
		l0.3,0.3l0.2,0.4v0.2v0.3l-0.1,0.2l-0.3,0.1V40l-0.1,0.1l-0.1,0.1l0.3,0.1l0.1,0.1l0.1,0.6v0.1h-0.1l0,0l-0.4-0.1l-0.1,0.1l0,0
		h-0.1H101l-0.1-0.2v-0.2v-0.1l0,0l0,0l0.1-0.1v-0.2l0,0l-0.5,0.1l0,0l0,0l-0.5,0.3l-0.2,0.1l-0.1,0.1L99.5,41l-0.2,0.1l-0.5,0.2
		h-0.2l-0.3,0.1l-0.5,0.1h-0.2h-0.1l-0.1-0.1l-0.1-0.1l-0.1-0.1l-0.1-0.3L97,40.6v-0.2l0.1-0.3l0.1-0.1l0.1-0.1l0.1-0.1l0.1-0.1
		l0.7-0.2l0.5-0.2l0.7-0.4l0.3-0.2l0,0l0.8-0.5l0.1-0.1h0.1l-0.2,0.3h0.1h0.1l0.4-0.2 M102.6,37.1L102.6,37.1 M102.6,37.1l0.3-0.1
		l0,0h0.1l0.1,0.1l0.1,0.1l0.2,0.1l0.2,0.3l0.2,0.4v0.4l-0.1,0.2h-0.1v0.1h-0.1l0,0h-0.1l-1.4,0.8l0.1,0.1l0.9-0.5h0.3l0.4,1.5
		 M102.4,37.2L102.4,37.2L102.4,37.2l0.2-0.1 M102.8,37.1L102.8,37.1 M102.5,37.3l-0.7,0.4v0.2 M102.6,41.3l-0.4-1.5l-0.3-0.1l0,0
		 M103.1,39.3l-0.9,0.5 M101.7,40.8L101.7,40.8L101.7,40.8L101.7,40.8L101.7,40.8L101.7,40.8z M100.5,40.4L100.5,40.4L100.5,40.4
		l0.1-0.4l-0.1-0.4l-0.1-0.2l-0.2-0.3l-0.1-0.1l-0.3-0.1h-0.1h-0.1 M101.5,39.8L101.5,39.8 M101.1,40.2L101.1,40.2L101.1,40.2
		L101.1,40.2L101.1,40.2z M101.5,40.3L101.5,40.3L101.5,40.3L101.5,40.3L101.5,40.3L101.5,40.3L101.5,40.3L101.5,40.3z M101,40.1
		l0.3-0.1 M101.1,41L101.1,41L101.1,41l0.1-0.2v-0.1l-0.1-0.1l-0.1-0.1l0,0l0,0 M101.6,40.8l-0.3,0.1 M101.1,40.3L101.1,40.3"/>
	<path class="st10" d="M252.1,95.6l-0.6-1.5l-0.9-1.4l-0.7-0.8l-1.2-0.9l-0.4-0.2l-0.7-0.2l-0.6-0.1h-0.6l-0.5,0.2h-0.3l-0.5,0.1
		l-0.3,0.4l-0.2,0.1h-0.1l-0.5,0.4h-0.1l-5.4,3.9l-0.4,0.4l-0.2,0.4l-0.2,0.5v1.2l0.1,0.5l0.3,1.1l0.3,0.5l-0.7,0.9l-1.5,0.8h-0.3
		l-0.3,0.1l-0.7,0.5l-0.2,0.2l-0.1,0.2l-0.1,0.3v0.3l-0.2,0.2l-4.7,5.5l-0.1,0.2l-0.1,0.3v0.3l0.1,0.2l-4,4.9l-3.2,3.4h2.8v2
		l7.2-8.2h0.3l0.5-0.2l0.2-0.1l3.8-5.2l0.8-0.2l0,0l0.1-0.2l1.9,0.6h0.5l0.4-0.1l0.4-0.2l0.3-1v-0.1l-0.4-0.4l-0.7-0.4l1.8-0.5
		l1.2,0.3h0.5l0.4-0.1l0.4-0.2l2.4-1.7l0.3-0.4l0.3-0.4l1.3-0.5l2.4-1.8l0.3-0.5l0.1-0.2l0.3-0.4l0.2-0.5l0.1-0.6v-0.7L252.1,95.6
		 M238,105.3v-0.2l-0.1-0.4l0,0L238,105.3l0.1,0.2H238l0,0l0,0L238,105.3 M239.7,106.2l-0.3-0.1l0.2-0.2h0.3h0.3l0.2,0.1l-0.2,0.1
		H240L239.7,106.2 M232.7,110.7L232.7,110.7l0.2,0.3v0.3l0,0v0.3l-0.1,0.2l0,0l-0.1-0.1l0,0l0.1-0.2l0.1-0.2V111L232.7,110.7
		 M257.4,70.8h-0.2c-0.2,0-0.4,0-0.5,0.1l-0.8,0.8c-0.3,0-0.5,0.1-0.7,0.2c0,0-0.1,0-0.1,0.1l-0.1,0.1c-0.3,0.3-0.4,0.6-0.4,0.9
		c0,0.2,0,0.3,0.1,0.4l1.2,3.7l-2.9,2.2l0,0l-0.3,0.4l-0.2,0.5l-0.1,0.5l0.1,0.6v0.2v0.6l0.1,0.4l0.3,0.8l0.4,0.8l0.3,0.4l0.9,1
		l1.1,0.7l1,0.3l1,0.1l1-0.2l1-0.7c0.1-0.1,0.2-0.2,0.4-0.3l0.3-0.4l0.2-0.4l0.1-0.5l0.2,0.8l0,0l0.4-0.3l5.8,1.1
		c0.3,0,0.6-0.1,0.8-0.2l0.2-0.2l1.1-0.8c0.4-0.2,0.5-0.6,0.5-1l-0.1-0.4l-3.3-10c-0.2-0.4-0.4-0.8-0.8-1.1s-0.8-0.5-1.2-0.5
		L257.4,70.8 M253.7,79.4h0.2l-0.5,0.4L253.7,79.4 M252.9,80.2L252.9,80.2L252.9,80.2L252.9,80.2z"/>
	<path class="st11" d="M283.3,128.1c-0.1-0.4-0.6-0.6-1.3-0.5l-1,0.5c-0.7,0.4-1,0.8-0.8,1.2c0,0.1,0.1,0.2,0.1,0.2l2,5.5l-0.7,1.3
		l-0.1,0.2l0,0l0,0v0.1l0.1,0.1l0.2,0.7l0.1,0.3v0.1l0,0l0,0l0,0l0,0l0.1,0.1h0.1l0.1,0.1l0.1,0.1l0.1,0.1h0.1l0.1,0.1h0.1h0.1
		l0.1,0.1l0.1,0.1h0.1l0.1,0.1h0.1h0.1h0.1h0.1h0.1h0.4h0.1h0.3h0.1h0.2h0.1h0.1h0.1h0.1h0.1l0.2-0.1h0.1l0.1-0.1l0.1-0.1h0.1
		l0.1-0.1l0.1-0.1h0.1l0.1-0.1l0.1-0.1l0.1-0.1l0.1-0.1l0.3-0.2v-0.1h0.1l0,0l0.1-0.1l0,0v-0.1l0,0v-0.1l0,0V137v-0.1l0,0l0,0l0,0
		v0.2l0,0l0,0l0.1-0.2v-0.1v-0.1v-0.1v-0.1v-0.1v-0.1l0,0v-0.2l-0.1-0.1l-0.4-1.2l0,0l0,0l0,0l0,0l0,0l-1.6-0.7L283.3,128.1
		L283.3,128.1 M281.3,118.7l-0.9-0.3l-1.5,0.1l-1.1,0.3l-1,0.5l-0.5,0.4l-0.2,0.2l-0.4,0.5l-0.1,0.3l-0.1,0.5v0.3v0.2l0.4,1.2
		l0.3,0.4l0.4,0.3l0.3,0.1l0.6,0.1h0.3h0.7l1.1-0.2l1.1-0.4l0.7-0.4l0.5-0.4l0.4-0.5l0.4-0.7v-0.5v-0.2l-0.4-1l-0.3-0.4l-0.2-0.2
		l-0.2-0.1L281.3,118.7 M280.5,120.7l-0.1,0.1l-0.3,0.4l-0.4,0.3l-0.5,0.3l-0.5,0.1h-0.3h-0.5l-0.4-0.1c0.2-0.5,0.7-0.8,1.3-1h0.1
		C279.6,120.4,280.1,120.4,280.5,120.7 M128.2,133.3L128.2,133.3l-3.2,1.4l-0.1,0.1l-2.4,2.4c-0.3,0.4-0.3,0.9,0.1,1.6
		c0.2,0.3,0.4,0.6,0.7,0.8c0.1,0,0.2,0.1,0.3,0.1c0,0,0.1,0,0.2,0s0.2,0,0.3-0.1l3.1-1.4l0.5-0.4h0.3c0.1,0,0.2,0,0.3-0.1
		c0.2-0.1,0.3-0.4,0.3-0.7c0-0.1,0-0.2,0-0.3l1.1-1.1c0.3-0.4,0.3-0.9-0.1-1.6c-0.2-0.3-0.4-0.6-0.7-0.8
		C128.6,133.3,128.4,133.3,128.2,133.3 M129.4,134.9c0,0.2-0.1,0.3-0.2,0.3c-0.2,0.1-0.4,0.1-0.5-0.1c-0.1-0.1-0.1-0.2-0.2-0.3
		c-0.1-0.2-0.1-0.4-0.1-0.5s0-0.1,0-0.2c0-0.1,0.1-0.1,0.1-0.1c0.2-0.1,0.5,0,0.7,0.4C129.3,134.6,129.4,134.8,129.4,134.9
		 M123.2,139c-0.1-0.1-0.2-0.2-0.3-0.3c-0.2-0.3-0.2-0.6-0.1-0.7c0,0,0.1,0.1,0.3,0.3C123.3,138.6,123.3,138.8,123.2,139
		 M188.4,81.1c-0.2,0.1-0.5,0.4-0.7,0.7l-14.3,10.1l-1.8,2l-6.1,4.3l-8.3,4.9l-6.6,3.1l-9.2-2.8h-3l-3,0.4l-0.4,0.4l-0.7,0.2
		l0.3-0.1l-2.2,0.3l-5.3,3.4l-2.3,2.6l-1.9,3.4l-1.1,3.4l-0.8,8.2l0.4,1.5l0.4,0.5l-1.8,6l0.5-1.9l-0.7,2.2l-2.6,1.9h0.5l0,0l8-5.7
		c0.1-0.1,0.2-0.1,0.4-0.1l0,0c0.1,0,0.3-0.1,0.4-0.1h0.1c0.5,0,0.9,0.2,1.2,0.7l3.9,6.2c0.1,0.3,0.2,0.5,0.2,0.8
		c0,0.5-0.2,0.9-0.6,1.2l-5.7,4.1l10.1,3.8l-5.2-1.8l1.8,1.5l3,1.9l3.4,0.8l3.4,0.4l3-0.8h-0.4l1.2-0.1h0.2l5-1.7l2.2-1.9l2.3-2.6
		l1.5-2.6l0.8-1.9v-1.1l1.1-0.4l2.6-1.5l3-1.1l8.6-4.5l13.5-8.6l2.6-1.9l4.9-2.8l12.3-9.1c0,0,0.1,0,0.1-0.1c2-1.5,2.9-4,2.6-7.6
		c-0.3-3.5-1.6-6.9-3.9-10.3c-0.1-0.1-0.1-0.2-0.2-0.3c-2.5-3.5-5.4-6-8.7-7.4C193.2,79.5,190.5,79.6,188.4,81.1 M127.5,109.9
		l-0.7,1.5l0.4-1.1L127.5,109.9 M142.1,148.5h-0.4l-0.3-0.1l-0.4,0.1l-0.7-0.4l-1.5-0.4L142.1,148.5 M219.6,50.9l-1-0.1l-0.4,0.2
		l-1.2,1l-11.2-2.7l-0.9,0.1l-3.8,3l1.1,1.6l-1,0.1l1.2,1.5l-1,0.1l1.1,1.6l-1,0.1l1.1,1.5l-0.9,0.1l0.5,0.9l0.8,0.4l1.5,1.2
		l0.7,0.7l0.9,1.4l0.5,1.4l0.2,1.3l-0.6,3.6l0.2,3l0.7,3.1l1.3,3.3l1.8,3.2l2.3,3.1l3,3.3l3.2,2.7l3.3,2l3.2,1.2l3.1,0.5l2.8-0.4
		l2.3-1.2l0.3-0.4l3.8-3l1.8-2.6l0.7-3.1l-0.1-3.3l-0.7-3.2l-1.1-2.8l-0.3-0.5l-0.9-2l-0.4,0.3l0.3-0.6l0.1,0.3l3.4-2.5l0.3-0.8
		l-1.2-0.9l0.7-0.9l-1.1-0.9l0.7-0.8l-1.1-0.9l0.8-0.9l-1.1-0.9l0.7-0.8l-1.1-0.9L219.6,50.9 M224.6,60.6l0.7,0.5l3.9,3.1l3.6,3.5
		l0.3,0.6l0.1,0.6l-0.1,0.5l-0.2,0.4l-0.4,0.1h-0.4l-0.5-0.1l-0.5-0.3l-1-1.3l-1-0.4L230,67l-1.9-0.4l0.4-0.8l-1.6-0.2l0.1-0.7
		l-1.2-0.3l0.3-0.7l-1.3,0.1l0.1-1.1l-1.2-0.1L224.6,60.6 M208.8,59l0.1-1.8l1.8,1.8l0.5-1.3l1.6,1.6l0.7-1.1l1.4,1.8l0.4,1.9
		l-1.4-0.5l-3-0.3l-1.8,0.3l-0.4-0.1l-0.4-0.2l-0.7-0.7l-0.4-0.6l-0.2-0.6v-0.5l0.5-0.5L208.8,59 M216.6,64.5l3.6,1.2l3.7,2.3
		l0.2-0.6l5.1,5.8l2.4,3.6l1.6,3.6l0.9,3.5v3.2l-0.7,2.6l-1.8,0.8l-2.8-0.1l-3.1-1l-3.1-1.7l-3.1-2.4l-2.8-3.1l-2.3-3.4l-1.7-3.5
		l-1-3.4l-0.3-3.2l0.5-2.8l0.5-1.1l1.1-0.5L216.6,64.5z"/>
	<path class="st12" d="M317.8,109.6l6.3,0.9l0.8-0.5l-2-5.3l-53.5-7.2l-0.8,0.4l-1.5,1l-0.3,0.3l-0.3,0.4l-0.1,0.4l-0.1,1.4
		l-0.1,0.5l-0.4,0.8l-1,1.1l-3.2,1.8l-0.4,0.4l-0.2,0.3l-0.1,0.5v0.3v0.3l1.9,5.4l48.6,6.4v-0.1l0.8-0.5l-1.5-4.2L317.8,109.6
		 M126.1,130c-0.1,0-0.2,0.1-0.4,0.1l-8,5.7l0,0h-0.5l0.1,1.1l0.1,0.3l0.1,0.4l0.5,0.7l0.6,0.6l0.3,0.4l1,2.2l0.7,0.9l1.1,0.9
		l0.3,0.3l0.2,0.3l0.3,0.5l0.1,0.2h0.5l2.5-1.8l5.7-4.1c0.4-0.3,0.6-0.7,0.6-1.2c0-0.2-0.1-0.5-0.2-0.8l-3.9-6.2
		c-0.3-0.4-0.7-0.7-1.2-0.7h-0.1C126.4,129.9,126.3,129.9,126.1,130L126.1,130 M128.1,133.4L128.1,133.4c0.3,0,0.5,0,0.7,0.1
		c0.3,0.2,0.5,0.4,0.7,0.8c0.4,0.7,0.4,1.2,0.1,1.6l-1.1,1.1c0,0.1,0,0.2,0,0.3c0,0.4-0.1,0.6-0.3,0.7c-0.1,0-0.2,0.1-0.3,0.1h-0.3
		l-0.5,0.4l-3.1,1.4c-0.1,0-0.2,0.1-0.3,0.1s-0.1,0-0.2,0c-0.1,0-0.2-0.1-0.3-0.1c-0.3-0.2-0.5-0.4-0.7-0.8
		c-0.4-0.7-0.4-1.2-0.1-1.6l2.4-2.4l0.1-0.1L128.1,133.4 M208.9,57.2l-0.1,1.8l-1.2-0.8l-0.5,0.5v0.5l0.2,0.6l0.4,0.6l0.7,0.7
		l0.4,0.2l0.4,0.1l1.8-0.3l3,0.3l1.4,0.5L215,60l-1.4-1.8l-0.7,1.1l-1.6-1.6l-0.5,1.3L208.9,57.2 M225.3,61.1l-0.7-0.5l-0.9,2.2
		l1.2,0.1l-0.1,1.1l1.3-0.1l-0.3,0.7l1.2,0.3l-0.1,0.7l1.6,0.2l-0.4,0.8L230,67l-0.9,0.8l1,0.4l1,1.3l0.5,0.3l0.5,0.1h0.4l0.4-0.1
		l0.2-0.4l0.1-0.5l-0.1-0.6l-0.3-0.6l-3.6-3.5L225.3,61.1z"/>
	<path class="st13" d="M263.8,24.5l-1.1-0.4h-1.5l-1.9,0.4l-3,1.5l-1.1,1.1l-0.4,0.8l1.9,4.5v0.4l-0.4,0.4L244.9,41
		c-1.4,0.1-2.7,0.5-3.8,1.3c-1.1,0.9-1.9,1.9-2.4,3.3c-1.2,1.6-1.7,3.7-1.5,6.4c0.2,3.6,1.6,7.1,4.2,10.6l0.1,0.1
		c2.5,3.4,5.4,5.8,8.7,7.1c2.5,1,4.6,1.2,6.5,0.6c0.2,0,0.4,0,0.6,0l-0.5,0.5c0.2-0.1,0.4-0.1,0.5-0.1h0.2l6.7,0.8
		c0.4,0,0.9,0.2,1.2,0.5c0.4,0.3,0.6,0.7,0.8,1.1l3.3,10l0.1,0.4c0,0.4-0.2,0.8-0.5,1l-1.1,0.8l-0.2,0.2c-0.2,0.1-0.5,0.2-0.8,0.2
		l-5.8-1.1l-0.4,0.3l0.4,1.7h1.1l22.6,3l15-10.5l-1.7-5l21.2-15.3l1.1-1.1v-0.4l1.1-1.9V51l-0.8-2.6l-2.6-5.3l-1.9-2.2l-4.1-3.8
		l-2.3-0.8l-0.4-0.4l-2.3-0.4h-2.3l-1.5,0.7H303l-1.9,1.5l-1.2,0.4c0.9-1.8,1.1-3.9,0.7-6.5c-0.5-3.2-1.9-6.3-4-9.3
		c-2.3-3.1-4.9-5.4-7.9-6.8c-2.8-1.3-5.2-1.7-7.4-0.9c-0.2,0-0.3,0-0.5,0c-1.3,0.1-2.5,0.6-3.5,1.3c-1,0.8-1.8,1.7-2.3,3
		c0,0,0,0.1-0.1,0.2l-10.5,7.3l-0.4-1.3L263.8,24.5 M256.5,51.6c2.3,3.2,3.6,6.4,3.8,9.7c0.2,3.3-0.6,5.7-2.7,7.1
		c-2,1.5-4.6,1.6-7.6,0.4s-5.7-3.4-8-6.5l-0.1-0.1c-2.3-3.2-3.6-6.4-3.8-9.7c-0.2-3.3,0.7-5.7,2.7-7.1c2-1.5,4.5-1.6,7.6-0.4
		S254.2,48.4,256.5,51.6 M278.3,41h5.4l-2.8,5.7l-0.5-1.2l-7.5,5.7l-1.5-3.4l7.6-5.4L278.3,41z"/>
	<path class="st2" d="M283.7,41h-5.4l0.6,1.3l-7.6,5.4l1.5,3.4l7.5-5.7l0.5,1.2L283.7,41z"/>
	<path class="st14" d="M260.3,61.3c-0.2-3.3-1.5-6.6-3.8-9.7c-2.3-3.2-5-5.4-8.1-6.6s-5.6-1.1-7.6,0.4s-2.9,3.8-2.7,7.1
		c0.2,3.3,1.5,6.6,3.8,9.7l0.1,0.1c2.3,3.1,4.9,5.3,8,6.5s5.6,1.1,7.6-0.4C259.6,67,260.5,64.6,260.3,61.3z"/>
	<path id="Layer2_5_MEMBER_1_MEMBER_0_1_STROKES_1_" class="st0" d="M146.6,140.3l-1.9,0.8"/>
	<path id="Layer2_5_MEMBER_1_MEMBER_1_1_STROKES_1_" class="st0" d="M148.5,140l-1.9,0.4"/>
	<path id="Layer2_5_MEMBER_1_MEMBER_2_1_STROKES_1_" class="st0" d="M150.7,139.2l-2.3,0.8"/>
	<path id="Layer2_5_MEMBER_1_MEMBER_3_1_STROKES_1_" class="st0" d="M153.4,138.1l-2.6,1.1"/>
	<path id="Layer2_5_MEMBER_1_MEMBER_4_1_STROKES_1_" class="st0" d="M156,137.3l-2.6,0.8"/>
	<path id="Layer2_5_MEMBER_1_MEMBER_5_1_STROKES_1_" class="st0" d="M159,136.2l-3,1.1"/>
	<path id="Layer2_5_MEMBER_1_MEMBER_6_1_STROKES_1_" class="st0" d="M161.7,134.7l-2.6,1.5"/>
	<path id="Layer2_5_MEMBER_1_MEMBER_7_1_STROKES_1_" class="st0" d="M164.6,133.6l-3,1.1"/>
	<path id="Layer2_5_MEMBER_1_MEMBER_8_1_STROKES_1_" class="st0" d="M167.6,132.1l-3,1.5"/>
	<path id="Layer2_5_MEMBER_1_MEMBER_9_1_STROKES_1_" class="st0" d="M170.7,130.6l-3,1.5"/>
	<path id="Layer2_5_MEMBER_1_MEMBER_10_1_STROKES_1_" class="st0" d="M173.3,129.1l-2.6,1.5"/>
	<path id="Layer2_5_MEMBER_1_MEMBER_11_1_STROKES_1_" class="st0" d="M176.3,127.2l-3,1.9"/>
	<path id="Layer2_5_MEMBER_1_MEMBER_12_1_STROKES_1_" class="st0" d="M178.9,125.7l-2.6,1.5"/>
	<path id="Layer2_5_MEMBER_1_MEMBER_13_1_STROKES_1_" class="st0" d="M181.5,123.8l-2.6,1.9"/>
	<path id="Layer2_5_MEMBER_1_MEMBER_14_1_STROKES_1_" class="st0" d="M184.2,122.3l-2.6,1.5"/>
	<path id="Layer2_5_MEMBER_1_MEMBER_15_1_STROKES_1_" class="st0" d="M184.2,122.3l2.6-1.9"/>
	<path id="Layer2_5_MEMBER_1_MEMBER_16_1_STROKES_1_" class="st0" d="M140.2,110.7l-3,0.7"/>
	<path id="Layer2_5_MEMBER_1_MEMBER_17_1_STROKES_1_" class="st0" d="M144,109.2l-3.8,1.5"/>
	<path id="Layer2_5_MEMBER_1_MEMBER_18_1_STROKES_1_" class="st0" d="M148.5,107.3l-4.5,1.9"/>
	<path id="Layer2_5_MEMBER_1_MEMBER_19_1_STROKES_1_" class="st0" d="M152.6,105.4l-4.2,1.9"/>
	<path id="Layer2_5_MEMBER_1_MEMBER_20_1_STROKES_1_" class="st0" d="M157.1,103.2l-4.5,2.2"/>
	<path id="Layer2_5_MEMBER_1_MEMBER_21_1_STROKES_1_" class="st0" d="M161.3,100.5l-4.1,2.6"/>
	<path id="Layer2_5_MEMBER_1_MEMBER_22_1_STROKES_1_" class="st0" d="M165.4,98.3l-4.2,2.3"/>
	<path id="Layer2_5_MEMBER_1_MEMBER_23_1_STROKES_1_" class="st0" d="M165.4,98.3l3.8-2.6"/>
	<path id="Layer2_5_MEMBER_1_MEMBER_24_1_STROKES_1_" class="st0" d="M147.4,148.2l-2.3,0.4"/>
	<path id="Layer2_5_MEMBER_1_MEMBER_25_1_STROKES_1_" class="st0" d="M186.8,120.4l4.9-3.8"/>
	<path id="Layer2_5_MEMBER_1_MEMBER_26_1_STROKES_1_" class="st0" d="M193.2,116.4l13.5-9.9"/>
	<path id="Layer2_5_MEMBER_1_MEMBER_27_1_STROKES_1_" class="st0" d="M262.1,67.6l7.3-6"/>
	<path id="Layer2_5_MEMBER_1_MEMBER_28_1_STROKES" class="st0" d="M169.2,95.6l5.2-3.8"/>
	<path id="Layer2_5_MEMBER_1_MEMBER_29_1_STROKES_1_" class="st0" d="M135,104.3l-2.6,0.4"/>
	<path id="Layer2_5_MEMBER_1_MEMBER_30_1_STROKES" class="st0" d="M135.4,103.9l-0.4,0.4"/>
	<path id="Layer2_5_MEMBER_1_MEMBER_31_1_STROKES" class="st0" d="M173.3,91.9l14.3-10.1"/>
	<path id="Layer2_5_MEMBER_1_MEMBER_32_1_STROKES" class="st0" d="M148.1,147.8l-0.4,0.4"/>
	<path id="Layer2_5_MEMBER_1_MEMBER_33_1_STROKES" class="st0" d="M293.4,43.7l-9.4,6.7"/>
	<path id="Layer2_5_MEMBER_1_MEMBER_34_1_STROKES" class="st0" d="M276.2,18.5l-11.3,7.9"/>
	<path id="Layer2_5_MEMBER_1_MEMBER_35_1_STROKES" class="st0" d="M256.3,33.2l-11.7,8"/>
	<path id="Layer2_5_MEMBER_1_MEMBER_36_1_STROKES" class="st0" d="M254.8,27.9l1.9,4.5"/>
	<path id="Layer2_5_MEMBER_1_MEMBER_37_1_STROKES" class="st0" d="M264.1,25.3l1.5,4.5"/>
	<path id="Layer2_5_MEMBER_1_MEMBER_38_1_STROKES" class="st0" d="M256.3,33.2l0.4-0.4v-0.4"/>
	<path id="Layer2_5_MEMBER_1_MEMBER_39_1_STROKES" class="st0" d="M319.3,59.1l-21.4,15.4"/>
	<path id="Layer2_5_MEMBER_1_MEMBER_40_1_STROKES" class="st0" d="M303.2,36.5l-1.9,1.5"/>
	<path id="Layer2_5_MEMBER_1_MEMBER_41_1_STROKES" class="st0" d="M309.6,36.2l-2.3-0.4"/>
	<path id="Layer2_5_MEMBER_1_MEMBER_42_1_STROKES" class="st0" d="M309.6,36.2l0.4,0.4"/>
	<path id="Layer2_5_MEMBER_1_MEMBER_43_1_STROKES" class="st0" d="M312.2,37.3l-2.3-0.8"/>
	<path id="Layer2_5_MEMBER_1_MEMBER_44_1_STROKES" class="st0" d="M314.4,39.2l-2.2-1.9"/>
	<path id="Layer2_5_MEMBER_1_MEMBER_45_1_STROKES" class="st0" d="M316.3,41.1l-1.9-1.9"/>
	<path id="Layer2_5_MEMBER_1_MEMBER_46_1_STROKES" class="st0" d="M318.2,43.3l-1.9-2.2"/>
	<path id="Layer2_5_MEMBER_1_MEMBER_47_1_STROKES" class="st0" d="M319.7,46l-1.5-2.7"/>
	<path id="Layer2_5_MEMBER_1_MEMBER_48_1_STROKES" class="st0" d="M320.8,48.6l-1.1-2.6"/>
	<path id="Layer2_5_MEMBER_1_MEMBER_49_1_STROKES" class="st0" d="M321.6,51.2l-0.8-2.6"/>
	<path id="Layer2_5_MEMBER_1_MEMBER_50_1_STROKES" class="st0" d="M321.6,53.8v-2.6"/>
	<path id="Layer2_5_MEMBER_1_MEMBER_51_1_STROKES" class="st0" d="M321.6,55.7v-1.9"/>
	<path id="Layer2_5_MEMBER_1_MEMBER_52_1_STROKES" class="st0" d="M320.5,58v-0.4l1.1-1.9"/>
	<path id="Layer2_5_MEMBER_1_MEMBER_53_1_STROKES" class="st0" d="M305.4,35.8H305"/>
	<path id="Layer2_5_MEMBER_1_MEMBER_54_1_STROKES" class="st0" d="M307.3,35.8h-1.9"/>
	<path id="Layer2_5_MEMBER_1_MEMBER_55_1_STROKES" class="st0" d="M142.1,148.6h-0.4l-3-0.7L142.1,148.6h2.7l1.3-0.2l5.1-1.7
		l2.2-1.9l2.3-2.6l1.5-2.6l0.8-1.9 M147.8,148.2l-1.7,0.2l-0.6,0.2h-0.7"/>
	<path id="Layer2_5_MEMBER_1_MEMBER_56_1_STROKES" class="st0" d="M139.1,147.8l-3.4-1.2l-10.3-3.6 M125.6,142.9l10.1,3.8"/>
	<path id="Layer2_5_MEMBER_1_MEMBER_57_1_STROKES" class="st0" d="M124.5,115.9l0.7-1.5l0.8-1.9l0.8-1.1l0.7-1.5l1.1-1.5l1.1-1.1
		l1.1-0.8l1.1-1.1l0.7-0.4l2.3-0.7"/>
	<path id="Layer2_5_MEMBER_1_MEMBER_58_1_STROKES" class="st0" d="M144.4,104.3l-3-0.8h-3l-3,0.4l-2.6,1.5l-2.6,1.9l-1.9,2.3l-1.9,3
		l-1.1,3.4"/>
	<path id="Layer2_5_MEMBER_1_MEMBER_59_1_STROKES" class="st0" d="M148.9,105.8l-4.5-1.5"/>
	<path id="Layer2_5_MEMBER_1_MEMBER_60_1_STROKES" class="st0" d="M125.2,115.9l-5.2,17.8"/>
	<path id="Layer2_5_MEMBER_1_MEMBER_61_1_STROKES" class="st0" d="M120,133.7l4.5-17.8"/>
	<path id="Layer2_5_MEMBER_1_MEMBER_62_1_STROKES" class="st0" d="M137.2,111.4l-4.1,3l-2.3,4.1l-0.8,5.3v2.6l1.5,5.6l3,4.5l1.9,1.9
		l4.1,2.3l2.3,0.4h1.9"/>
	<path id="Layer2_5_MEMBER_1_MEMBER_63_1_STROKES" class="st0" d="M132,105.4l-1.1,1.1"/>
	<path id="Layer2_5_MEMBER_1_MEMBER_64_1_STROKES" class="st0" d="M129.7,107.3l-1.1,1.1"/>
	<path id="Layer2_5_MEMBER_1_MEMBER_65_1_STROKES" class="st0" d="M127.5,109.9l-0.4,0.4l-0.4,1.1"/>
	<path id="Layer2_5_MEMBER_1_MEMBER_66_1_STROKES" class="st0" d="M125.6,113.3l-0.4,1.1"/>
	<path id="Layer2_5_MEMBER_1_MEMBER_67_1_STROKES" class="st0" d="M140.2,148.2l0.7,0.4h0.4"/>
	<path id="Layer2_5_MEMBER_1_MEMBER_68_1_STROKES" class="st0" d="M143.2,148.6h1.1"/>
	<path id="Layer2_5_MEMBER_1_MEMBER_69_1_STROKES" class="st0" d="M147,148.2h0.4"/>
	<path id="Layer2_5_MEMBER_1_MEMBER_70_1_STROKES" class="st0" d="M132.7,105l-0.7,0.4"/>
	<path id="Layer2_5_MEMBER_1_MEMBER_71_1_STROKES" class="st0" d="M145.1,148.6l-3,0.8l-3.4-0.4l-3.4-0.8l-3-1.9l-1.9-1.5"/>
	<path id="Layer2_5_MEMBER_1_MEMBER_72_1_STROKES" class="st0" d="M121.5,127.2l-0.4-1.5l0.8-8.2l1.1-3.4l1.9-3.4l2.3-2.6l5.3-3.4"
		/>
	<path id="Layer2_5_MEMBER_1_MEMBER_73_1_STROKES" class="st0" d="M271.3,63.6l-0.8-0.4l-1.1-1.9"/>
	<path id="Layer2_5_MEMBER_1_MEMBER_74_1_STROKES" class="st0" d="M284.3,51.1l0.1,0.5l0.8,1.1l1.1,0.4"/>
	<path id="Layer2_5_MEMBER_1_MEMBER_75_1_STROKES" class="st0" d="M275.8,64.3l-4.5-0.8"/>
	<path id="Layer2_5_MEMBER_1_MEMBER_76_1_STROKES" class="st0" d="M286.3,53.1l4.5,0.4"/>
	<path id="Layer2_5_MEMBER_1_MEMBER_77_1_STROKES" class="st0" d="M319.3,59.1l1.1-1.1"/>
	<path id="Layer2_5_MEMBER_1_MEMBER_78_1_STROKES" class="st0" d="M305.1,35.8l-1.5,0.7h-0.4"/>
	<path id="Layer2_5_MEMBER_1_MEMBER_79_1_STROKES" class="st0" d="M272.8,51.2h-0.4"/>
	<path id="Layer2_5_MEMBER_1_MEMBER_80_1_STROKES" class="st0" d="M278.4,41.1h4.9"/>
	<path id="Layer2_5_MEMBER_1_MEMBER_81_1_STROKES" class="st0" d="M283.7,41.1h-0.4"/>
	<path id="Layer2_5_MEMBER_1_MEMBER_82_1_STROKES" class="st0" d="M270.9,47.8h0.4"/>
	<path id="Layer2_5_MEMBER_1_MEMBER_83_1_STROKES" class="st0" d="M278.9,42.4h-0.4"/>
	<path id="Layer2_5_MEMBER_1_MEMBER_84_1_STROKES" class="st0" d="M271.3,47.8l1.5,3.4l7.5-5.7"/>
	<path id="Layer2_5_MEMBER_1_MEMBER_85_1_STROKES" class="st0" d="M280.8,46.7l2.8-5.7h-5.4"/>
	<path id="Layer2_5_MEMBER_1_MEMBER_86_1_STROKES" class="st0" d="M278.9,42.4l-7.6,5.4"/>
	<path id="Layer2_5_MEMBER_1_MEMBER_87_1_STROKES" class="st0" d="M263.8,24.5l-1.1-0.4h-1.5l-1.9,0.4l-3,1.5l-1.1,1.1l-0.4,0.8
		l0.4,0.7h2.6l3.4-0.7l2.6-1.9l0.4-0.7L263.8,24.5z"/>
	<path id="Layer2_5_MEMBER_1_MEMBER_88_1_STROKES" class="st0" d="M290.8,53.5l-15,10.9"/>
	<path id="Layer2_5_MEMBER_1_MEMBER_89_1_STROKES" class="st0" d="M290.8,53.5l9,25.9"/>
	<path id="Layer2_5_MEMBER_1_MEMBER_90_1_STROKES" class="st0" d="M284.8,89.9l-9-25.5"/>
	<path id="Layer2_5_MEMBER_1_MEMBER_91_1_STROKES" class="st0" d="M260.8,85.4l0.4,1.5"/>
	<path id="Layer2_5_MEMBER_1_MEMBER_92_1_STROKES" class="st0" d="M299.8,79.4l-15,10.5"/>
	<path id="Layer2_5_MEMBER_1_MEMBER_93_1_STROKES" class="st0" d="M261.3,86.7l23.5,3.1"/>
	<path id="Layer2_5_MEMBER_1_MEMBER_94_1_STROKES" class="st0" d="M264.8,74.3l3.3,10"/>
	<path id="Layer2_5_MEMBER_1_MEMBER_95_1_STROKES" class="st0" d="M256.1,71.7l6.7,0.8"/>
	<path id="Layer2_5_MEMBER_1_MEMBER_96_1_STROKES" class="st0" d="M266.7,85.9l-5.5-0.9"/>
	<path id="Layer2_5_MEMBER_1_MEMBER_97_1_STROKES" class="st0" d="M285.6,52.6l-15,10.9"/>
	<path id="Layer2_5_MEMBER_1_MEMBER_98_1_STROKES" class="st0" d="M284.3,50.6l-15,10.9"/>
	<path id="Layer2_5_MEMBER_1_MEMBER_99_1_STROKES" class="st5" d="M266.8,87.5l2.6,7.2"/>
	<path id="Layer2_5_MEMBER_1_MEMBER_100_1_STROKES" class="st5" d="M270,96.4l0.7,1.8"/>
	<path id="Layer2_5_MEMBER_1_MEMBER_101_1_STROKES" class="st5" d="M271.4,100l2.6,7.2"/>
	<path id="Layer2_5_MEMBER_1_MEMBER_102_1_STROKES" class="st5" d="M276.8,114.9l0.9,2.5"/>
	<path id="Layer2_5_MEMBER_1_MEMBER_103_1_STROKES" class="st5" d="M277.9,118l0.2,0.6"/>
	<path id="Layer2_5_MEMBER_1_MEMBER_104_1_STROKES" class="st5" d="M278.3,119.2l0.9,2.5"/>
	<path id="Layer2_5_MEMBER_1_MEMBER_105_1_STROKES" class="st5" d="M279.9,123.6l0.6,1.8"/>
	<path id="Layer2_5_MEMBER_1_MEMBER_106_1_STROKES" class="st5" d="M280.7,125.8l0.2,0.4"/>
	<path id="Layer2_5_MEMBER_1_MEMBER_107_1_STROKES" class="st5" d="M281,126.7l0.7,1.8"/>
	<path id="Layer2_5_MEMBER_1_MEMBER_108_1_STROKES" class="st0" d="M260.9,107.5l48.6,6.5"/>
	<path id="Layer2_5_MEMBER_1_MEMBER_109_1_STROKES" class="st0" d="M322.9,104.7l-13.4,9.3"/>
	<path id="Layer2_5_MEMBER_1_MEMBER_110_1_STROKES" class="st0" d="M269.4,97.5l53.6,7.2"/>
	<path id="Layer2_5_MEMBER_1_MEMBER_111_1_STROKES" class="st0" d="M309.5,114l1.9,5.3"/>
	<path id="Layer2_5_MEMBER_1_MEMBER_112_1_STROKES" class="st0" d="M322.9,104.7l1.9,5.3"/>
	<path id="Layer2_5_MEMBER_1_MEMBER_113_1_STROKES" class="st0" d="M262.9,112.9l48.6,6.5"/>
	<path id="Layer2_5_MEMBER_1_MEMBER_114_1_STROKES" class="st0" d="M322.5,106.3l-11.8,8.2l1.5,4.2"/>
	<path id="Layer2_5_MEMBER_1_MEMBER_115_1_STROKES" class="st0" d="M322.5,106.3l1.5,4.3"/>
	<path id="Layer2_5_MEMBER_1_MEMBER_116_1_STROKES" class="st0" d="M324.8,110l-0.8,0.5"/>
	<path id="Layer2_5_MEMBER_1_MEMBER_117_1_STROKES" class="st0" d="M312.2,118.7l-0.8,0.5"/>
	<path id="Layer2_5_MEMBER_1_MEMBER_118_1_STROKES" class="st0" d="M317.8,109.7l6.3,0.8"/>
	<path id="Layer2_5_MEMBER_1_MEMBER_119_1_STROKES" class="st0" d="M260.9,107.5l1.9,5.4"/>
	<path id="Layer2_5_MEMBER_1_MEMBER_120_1_STROKES" class="st0" d="M260.9,107.5v-0.3v-0.3l0.1-0.5l0.2-0.3l0.4-0.4l3.2-1.8l1-1.1
		l0.4-0.8l0.1-0.5l0.1-1.4l0.1-0.4l0.3-0.4l0.3-0.3l1.5-1l0.8-0.4"/>
	<path id="Layer2_5_MEMBER_1_MEMBER_121_1_STROKES" class="st0" d="M191.7,116.7c1.8-1.4,2.6-3.8,2.2-7.2c-0.4-3.4-1.8-6.7-4.2-10
		c-2.3-3.3-4.9-5.6-7.9-7.1c-2.9-1.5-5.4-1.6-7.4-0.5"/>
	<path id="Layer2_5_MEMBER_1_MEMBER_122_1_STROKES" class="st0" d="M191,117.8c0.4-0.2,0.7-0.4,0.9-0.5c2.1-1.5,3-4,2.8-7.6
		c-0.3-3.6-1.7-7.1-4.2-10.6s-5.4-6-8.6-7.4c-3.3-1.4-5.9-1.4-8.1,0.1c-0.4,0.3-0.8,0.7-1.2,1.1"/>
	<path id="Layer2_5_MEMBER_1_MEMBER_123_1_STROKES" class="st5" d="M256.2,52.1l-6.2,4.4"/>
	<path id="Layer2_5_MEMBER_1_MEMBER_124_1_STROKES" class="st5" d="M248.5,57.6l-1.5,1.1"/>
	<path id="Layer2_5_MEMBER_1_MEMBER_125_1_STROKES" class="st5" d="M245.4,59.9l-6.1,4.4"/>
	<path id="Layer2_5_MEMBER_1_MEMBER_126_1_STROKES" class="st5" d="M228.2,72.3l-8.4,6"/>
	<path id="Layer2_5_MEMBER_1_MEMBER_127_1_STROKES" class="st5" d="M217.7,79.8l-2.1,1.5"/>
	<path id="Layer2_5_MEMBER_1_MEMBER_128_1_STROKES" class="st5" d="M213.5,82.8l-8.4,6"/>
	<path id="Layer2_5_MEMBER_1_MEMBER_129_1_STROKES" class="st0" d="M205.6,107.1l0.9-0.5c2.1-1.5,3-4,2.8-7.6
		c-0.3-3.6-1.7-7.1-4.2-10.6s-5.4-6-8.7-7.4c-3.3-1.4-6-1.3-8.1,0.2c-0.3,0.2-0.7,0.6-1.2,1.1"/>
	<path id="Layer2_5_MEMBER_1_MEMBER_130_1_STROKES" class="st0" d="M256.4,70.5c1.5,0,2.9-0.5,4.1-1.3c2.3-1.7,3.3-4.4,3.1-8.2
		c-0.3-3.8-1.7-7.6-4.4-11.2c-2.7-3.7-5.8-6.3-9.3-7.7c-3.5-1.4-6.5-1.3-8.8,0.4c-1.1,0.9-2,2-2.5,3.4"/>
	<path id="Layer2_5_MEMBER_1_MEMBER_131_1_STROKES" class="st0" d="M263,65.8c1.4-1.9,1.9-4.5,1.4-7.7s-1.8-6.3-4-9.3
		c-2.3-3.1-4.9-5.4-7.9-6.8s-5.6-1.7-7.9-0.8"/>
	<path id="Layer2_5_MEMBER_1_MEMBER_132_1_STROKES" class="st0" d="M257.1,51.1c2.5,3.5,3.9,7,4.2,10.6c0.2,3.6-0.7,6.2-2.9,7.8
		c-2.2,1.6-4.9,1.7-8.3,0.4c-3.4-1.3-6.3-3.7-8.8-7.2s-3.9-7-4.2-10.6c-0.2-3.6,0.7-6.2,2.9-7.8c2.2-1.6,4.9-1.7,8.3-0.4
		S254.6,47.7,257.1,51.1z"/>
	<path id="Layer2_5_MEMBER_1_MEMBER_133_1_STROKES" class="st0" d="M292.8,44.3c1.5,0,2.9-0.5,4.1-1.3c2.3-1.7,3.3-4.4,3.1-8.2
		c-0.3-3.8-1.7-7.6-4.4-11.2c-2.7-3.7-5.8-6.3-9.3-7.7c-3.6-1.4-6.5-1.3-8.8,0.4c-1.1,0.9-2,2-2.5,3.4"/>
	<path id="Layer2_5_MEMBER_1_MEMBER_134_1_STROKES" class="st0" d="M299.3,39.6c1.4-1.9,1.9-4.5,1.4-7.7s-1.9-6.3-4-9.3
		c-2.3-3.1-4.9-5.4-7.9-6.8c-3-1.4-5.6-1.7-7.9-0.8"/>
	<path id="Layer2_5_MEMBER_1_MEMBER_135_1_STROKES" class="st0" d="M292.8,44.3c0.7-0.2,1.3-0.5,1.9-0.9c2.2-1.6,3.2-4.2,2.9-7.7
		c-0.2-3.6-1.6-7.1-4.2-10.6c-2.5-3.5-5.5-5.9-8.8-7.3c-3.3-1.3-6.1-1.2-8.3,0.4c-0.4,0.3-0.8,0.6-1.2,1.1"/>
	<path id="Layer2_5_MEMBER_1_MEMBER_136_1_STROKES" class="st0" d="M231.5,90.6l-2.8-0.1l-3.1-1l-3.1-1.7l-3.1-2.4l-2.8-3.1
		l-2.3-3.4l-1.7-3.5l-1-3.4l-0.3-3.2l0.5-2.8"/>
	<path id="Layer2_5_MEMBER_1_MEMBER_137_1_STROKES" class="st0" d="M237.7,75.2l0.3,0.5l1.1,2.8l0.7,3.2l0.1,3.3l-0.7,3.1l-1.8,2.6
		l-0.5,0.4"/>
	<path id="Layer2_5_MEMBER_1_MEMBER_138_1_STROKES" class="st0" d="M237.7,75.2l-0.5-1.1"/>
	<path id="Layer2_5_MEMBER_1_MEMBER_139_1_STROKES" class="st0" d="M240.5,69.8l-1.2-0.9L240,68l-1.1-0.9l0.7-0.8l-1.1-0.9l0.8-0.9
		l-1.1-0.9l0.7-0.8l-1.1-0.9L219.6,51"/>
	<path id="Layer2_5_MEMBER_1_MEMBER_140_1_STROKES" class="st0" d="M204.9,49.4l0.9-0.1l10.1,2.4"/>
	<path id="Layer2_5_MEMBER_1_MEMBER_141_1_STROKES" class="st0" d="M219.6,50.9l-1-0.1l-0.4,0.2"/>
	<path id="Layer2_5_MEMBER_1_MEMBER_142_1_STROKES" class="st0" d="M212.5,83.4l-2.1-3.5l-1.4-3.5l-0.7-3.3v-3l0.8-2.5l1.5-1.9
		l2.7-1.2h3.2l3.6,1.2l3.7,2.3"/>
	<path id="Layer2_5_MEMBER_1_MEMBER_143_1_STROKES" class="st0" d="M229.1,73.2l2.4,3.6l1.6,3.6l0.9,3.5v3.2l-0.8,2.7l-1.6,2
		l-2.5,1.2H226l-3.5-1.1l-3.6-2.2"/>
	<path id="Layer2_5_MEMBER_1_MEMBER_144_1_STROKES" class="st0" d="M234,78.2l1.5,4l0.7,3.7l-0.1,3.3l-0.9,2.8l-1.7,2.1l-2.3,1.2
		l-2.8,0.4l-3.1-0.5l-3.2-1.2l-3.3-2l-3.2-2.7l-3-3.3l-2.3-3.1l-1.8-3.2l-1.3-3.3l-0.7-3.1l-0.2-3l0.4-2.7"/>
	<path id="Layer2_5_MEMBER_1_MEMBER_145_1_STROKES" class="st0" d="M233.9,78.2l-0.6-1.4l-0.2-1.3l0.2-1.1l0.5-0.8l0.5-0.3l0.6-0.1
		h0.7l0.7,0.2l0.3-0.6l-1.1-0.9l0.8-0.9l-1.2-0.9l0.7-0.8l-1.1-1l0.8-0.8l-1.2-0.9l0.8-0.8l-1.2-0.9L215.6,54"/>
	<path id="Layer2_5_MEMBER_1_MEMBER_146_1_STROKES" class="st0" d="M232.8,67.7l-3.6-3.5l-3.9-3.1l-3.9-2.6l-4-2l-3.9-1.4"/>
	<path id="Layer2_5_MEMBER_1_MEMBER_147_1_STROKES" class="st0" d="M224.1,67.4l-4.6-3.6l-2.7-1.4l-2.9-0.9l-3-0.3l-1.8,0.3"/>
	<path id="Layer2_5_MEMBER_1_MEMBER_148_1_STROKES" class="st0" d="M209,61.5l-0.4-0.1l-0.4-0.2l-0.7-0.7l-0.4-0.6l-0.2-0.6v-0.5
		l0.2-0.4"/>
	<path id="Layer2_5_MEMBER_1_MEMBER_149_1_STROKES" class="st0" d="M232.8,67.7l0.3,0.6l0.1,0.6l-0.1,0.5l-0.2,0.4l-0.4,0.1h-0.4
		l-0.5-0.1l-0.5-0.3l-1-1.3l-1-0.4L230,67l-1.9-0.4l0.4-0.8l-1.6-0.2l0.1-0.7l-1.2-0.3l0.3-0.7l-1.3,0.1l0.1-1.1l-1.3-0.1l-0.4-0.9
		l-0.9,0.7l-0.4-1.3l-0.9,0.9l-0.8-1.5l-1.1,0.8l-1-1.6l-1,0.9l-1.5-1.9l-0.7,1.1l-1.4-1.8l-0.7,1.1l-1.6-1.6l-0.5,1.3l-1.8-1.8
		l-0.1,1.8l-1.2-0.8"/>
	<path id="Layer2_5_MEMBER_1_MEMBER_150_1_STROKES" class="st0" d="M214.9,60l0.4,1.9"/>
	<path id="Layer2_5_MEMBER_1_MEMBER_151_1_STROKES" class="st0" d="M202.3,60.1l-0.5-0.9l0.9-0.1l-1.1-1.5l1-0.1l-1.1-1.6l1-0.1
		l-1.2-1.5l1-0.1l-1.1-1.6l1-0.1l11.3,2.8"/>
	<path id="Layer2_5_MEMBER_1_MEMBER_152_1_STROKES" class="st0" d="M215.8,53.9l-0.3-0.1h-0.6l-0.4,0.2l-0.3,0.4l-0.1,0.6l0.1,0.3"
		/>
	<path id="Layer2_5_MEMBER_1_MEMBER_153_1_STROKES" class="st0" d="M224.1,67.4l-0.2,0.7"/>
	<path id="Layer2_5_MEMBER_1_MEMBER_154_1_STROKES" class="st0" d="M206.6,67.6l0.2-1.1l-0.2-1.3l-0.5-1.4l-0.9-1.4l-0.7-0.7
		l-1.5-1.2l-0.8-0.4"/>
	<path id="Layer2_5_MEMBER_1_MEMBER_155_1_STROKES" class="st0" d="M224.1,67.4l5,5.9"/>
	<path id="Layer2_5_MEMBER_1_MEMBER_156_1_STROKES" class="st0" d="M204.9,49.4l-3.8,3"/>
	<path id="Layer2_5_MEMBER_1_MEMBER_157_1_STROKES" class="st0" d="M239,62.7l-3.7,3"/>
	<path id="Layer2_5_MEMBER_1_MEMBER_158_1_STROKES" class="st0" d="M239.4,64.4l-3.8,3"/>
	<path id="Layer2_5_MEMBER_1_MEMBER_159_1_STROKES" class="st0" d="M239.7,66.2l-3.8,3"/>
	<path id="Layer2_5_MEMBER_1_MEMBER_160_1_STROKES" class="st0" d="M240.1,68l-3.7,3"/>
	<path id="Layer2_5_MEMBER_1_MEMBER_161_1_STROKES" class="st0" d="M237.5,90.7l-3.7,3"/>
	<path id="Layer2_5_MEMBER_1_MEMBER_162_1_STROKES" class="st0" d="M224.4,60.9l-0.8,1.9"/>
	<path id="Layer2_5_MEMBER_1_MEMBER_163_1_STROKES" class="st0" d="M218.2,51l-3.8,3"/>
	<path id="Layer2_5_MEMBER_1_MEMBER_164_1_STROKES" class="st0" d="M240.2,70.6l-3.8,2.8"/>
	<path id="Layer2_5_MEMBER_1_MEMBER_165_1_STROKES" class="st0" d="M240.2,70.6l0.3-0.8"/>
	<path id="Layer2_5_MEMBER_1_MEMBER_166_1_STROKES" class="st0" d="M248.4,45c-3.1-1.2-5.6-1.1-7.6,0.4s-2.9,3.8-2.7,7.1
		c0.2,3.3,1.5,6.6,3.8,9.7c2.3,3.2,5,5.4,8.1,6.6s5.6,1.1,7.6-0.4c2-1.5,2.9-3.8,2.7-7.1c-0.2-3.3-1.5-6.6-3.8-9.7
		C254.1,48.4,251.4,46.2,248.4,45z"/>
	<path id="Layer2_5_MEMBER_1_MEMBER_167_1_STROKES" class="st0" d="M282,127.7c0.8-0.1,1.2,0.1,1.3,0.5c0.1,0.3,0,0.5-0.2,0.8
		c-0.2,0.3-0.6,0.5-1.1,0.7c-0.4,0.2-0.9,0.2-1.2,0.1c-0.4,0-0.6-0.2-0.7-0.5c-0.2-0.5,0.1-0.9,0.8-1.3"/>
	<path id="Layer2_5_MEMBER_1_MEMBER_168_1_STROKES" class="st0" d="M285.8,135.2v0.3l-0.1,0.4l-0.3,0.3l-0.4,0.3l-0.5,0.3l-0.5,0.1
		h-0.5l-0.4-0.1l-0.3-0.2"/>
	<path id="Layer2_5_MEMBER_1_MEMBER_169_1_STROKES" class="st0" d="M282.7,136.5l-2.5-7"/>
	<path id="Layer2_5_MEMBER_1_MEMBER_170_1_STROKES" class="st0" d="M285.8,135.2l-2.5-7"/>
	<path id="Layer2_5_MEMBER_1_MEMBER_171_1_STROKES" class="st0" d="M285.3,133.5v0.3l-0.1,0.4l-0.7,0.7l-0.5,0.2l-0.5,0.1H283
		l-0.4-0.1l-0.3-0.2"/>
	<path id="Layer2_5_MEMBER_1_MEMBER_172_1_STROKES" class="st0" d="M284.9,132.5v0.3l-0.1,0.4l-0.7,0.7l-0.5,0.2l-0.5,0.1h-0.5
		l-0.4-0.1l-0.3-0.2"/>
	<path id="Layer2_5_MEMBER_1_MEMBER_173_1_STROKES" class="st0" d="M284.5,131.3v0.3l-0.1,0.4l-0.3,0.3l-0.4,0.3l-0.5,0.2l-0.5,0.1
		h-0.5l-0.4-0.1l-0.3-0.2"/>
	<path id="Layer2_5_MEMBER_1_MEMBER_174_1_STROKES" class="st0" d="M284.1,130.2v0.3l-0.2,0.4l-0.3,0.4l-0.4,0.3l-0.5,0.2l-0.5,0.1
		h-0.5l-0.4-0.1l-0.3-0.3"/>
	<path id="Layer2_5_MEMBER_1_MEMBER_175_1_STROKES" class="st0" d="M283.7,129.2v0.3l-0.1,0.3l-0.3,0.4l-0.4,0.3l-0.5,0.2l-0.5,0.1
		h-0.7l-0.4-0.1l-0.3-0.2"/>
	<path id="Layer2_5_MEMBER_1_MEMBER_176_1_STROKES" class="st0" d="M281.9,127.7c0.4,0,0.7,0.1,0.8,0.3c0,0.2,0,0.4-0.1,0.5
		c-0.2,0.2-0.4,0.3-0.7,0.4c-0.3,0.1-0.5,0.1-0.8,0.1c-0.2,0-0.4-0.1-0.5-0.3c-0.1-0.3,0.1-0.6,0.5-0.8"/>
	<path id="Layer2_5_MEMBER_1_MEMBER_177_1_STROKES" class="st0" d="M281.2,121.7l0.5-0.5l0.4-0.5l0.2-0.5v-0.5v-0.3"/>
	<path id="Layer2_5_MEMBER_1_MEMBER_178_1_STROKES" class="st0" d="M275.5,122l0.1,0.2l0.3,0.4l0.8,0.3l0.3,0.1h0.3h0.2"/>
	<path id="Layer2_5_MEMBER_1_MEMBER_179_1_STROKES" class="st0" d="M280.5,120.7c-0.4-0.2-1-0.2-1.7,0c-0.6,0.2-1.1,0.6-1.3,1"/>
	<path id="Layer2_5_MEMBER_1_MEMBER_180_1_STROKES" class="st0" d="M279.8,118.5l-0.8,0.1l-1.1,0.3l-1,0.5l-0.5,0.4l-0.2,0.2
		l-0.4,0.5l-0.1,0.3l-0.1,0.5v0.3v0.2l0.4,1.2l0.3,0.4l0.4,0.3l0.3,0.1l0.6,0.1h0.3h0.7l1.1-0.2l1.1-0.4l0.7-0.4l0.5-0.4l0.4-0.5
		l0.4-0.7v-0.5v-0.2l-0.4-1l-0.2-0.4L282,119l-0.2-0.1l-0.2-0.1l-0.9-0.3L279.8,118.5L279.8,118.5z"/>
	<path id="Layer2_5_MEMBER_1_MEMBER_181_1_STROKES" class="st0" d="M277.8,120l-0.2,0.1l-0.3,0.4l-0.1,0.2l-0.1,0.2v0.2v0.1l0.1,0.2
		l0.1,0.1l0.1,0.1l0.1,0.1l0.4,0.1h0.5h0.3l0.5-0.1l0.5-0.3l0.4-0.3l0.3-0.4l0.1-0.2l0.1-0.4V120l-0.1-0.1l-0.1-0.1l-0.1-0.1
		l-0.2-0.1l-0.5-0.1h-0.2h-0.2"/>
	<path id="Layer2_5_MEMBER_1_MEMBER_182_1_STROKES" class="st0" d="M279.8,118.5l-0.8,0.1l-1.1,0.3l-1,0.5l-0.5,0.4l-0.2,0.2
		l-0.4,0.5l-0.1,0.3l-0.1,0.5v0.3v0.2l0.4,1.2l0.3,0.4l0.4,0.3l0.3,0.1l0.6,0.1h0.3h0.7l1.1-0.2l1.1-0.4l0.7-0.4l0.5-0.4l0.4-0.5
		l0.4-0.7v-0.5v-0.2l-0.4-1l-0.2-0.4L282,119l-0.2-0.1l-0.2-0.1l-0.9-0.3L279.8,118.5L279.8,118.5z"/>
	<path id="Layer2_5_MEMBER_1_MEMBER_183_1_STROKES" class="st0" d="M287.1,134.8l-0.1,0.1l-0.7,1.5l-0.1,0.2v0.1h-0.1l-1.4,0.4
		l-0.7,0.3l-0.6,0.3h-0.1l-0.9-0.6l-0.7-0.3"/>
	<path id="Layer2_5_MEMBER_1_MEMBER_184_1_STROKES" class="st0" d="M283.4,137.7l0.4,1.3"/>
	<path id="Layer2_5_MEMBER_1_MEMBER_185_1_STROKES" class="st0" d="M286.2,136.7l0.5,1.3"/>
	<path id="Layer2_5_MEMBER_1_MEMBER_186_1_STROKES" class="st0" d="M285.4,133.9l1.6,0.8l0,0l0,0l0,0l0,0l0.4,1.2l0.1,0.1v0.1l0,0
		v0.1v0.1v0.1v0.1v0.1v0.1l-0.1,0.2l0,0l0,0v0.1l0,0l0,0l0,0v0.1v0.1l0,0v0.1l0,0v0.1l0,0l-0.1,0.1l0,0h-0.1v0.1l-0.3,0.2l-0.1,0.1
		l-0.1,0.1l-0.1,0.1l-0.1,0.1h-0.1l-0.1,0.1l-0.1,0.1h-0.1l-0.1,0.1l-0.1,0.1h-0.1l-0.2,0.1h-0.1h-0.1h-0.1h-0.1h-0.1h-0.2h-0.1
		h-0.3h-0.1H284h-0.1h-0.1h-0.1h-0.1h-0.1l-0.1-0.1h-0.1l-0.1-0.1l-0.1-0.1H283h-0.1l-0.1-0.1h-0.1l-0.1-0.1l-0.1-0.1l-0.3,0.2h-0.1
		l-0.1-0.1l0,0l0,0l0,0l0,0v-0.1l-0.1-0.3l-0.2-0.7l-0.1-0.1v-0.1l0,0l0,0l0.1-0.2l0.7-1.3"/>
	<path id="Layer2_5_MEMBER_1_MEMBER_187_1_STROKES" class="st0" d="M270.9,47.8l1.5,3.4"/>
	<path id="Layer2_5_MEMBER_1_MEMBER_188_1_STROKES" class="st0" d="M278.3,41.1l0.6,1.3"/>
	<path id="Layer2_5_MEMBER_1_MEMBER_189_1_STROKES" class="st0" d="M280.3,45.6l0.5,1.2h-0.4"/>
	<path id="Layer2_5_MEMBER_1_MEMBER_190_1_STROKES" class="st0" d="M278.3,41.1h-0.4"/>
	<path id="Layer2_5_MEMBER_1_MEMBER_191_1_STROKES" class="st0" d="M280,45.8l0.4,0.9"/>
	<path id="Layer2_5_MEMBER_1_MEMBER_192_1_STROKES" class="st0" d="M277.9,41.1l0.6,1.3"/>
	<path id="Layer2_5_MEMBER_1_MEMBER_193_1_STROKES" class="st0" d="M280,45.8l0.4,0.9"/>
	<path id="Layer2_5_MEMBER_1_MEMBER_194_1_STROKES" class="st0" d="M278.5,42.4l-7.6,5.4"/>
	<path id="Layer2_5_MEMBER_1_MEMBER_195_1_STROKES" class="st0" d="M258.7,86.6l5.1-3.7"/>
	<path id="Layer2_5_MEMBER_1_MEMBER_196_1_STROKES" class="st0" d="M258.7,86.1l0.3-0.4l0.2-0.5l0.1-0.5l-0.3-1.4l-0.4-0.8l-0.5-0.8
		l-1.2-1.3l-1.1-0.7l-1-0.3h-0.5l-0.5,0.1l-0.4,0.3"/>
	<path id="Layer2_5_MEMBER_1_MEMBER_197_1_STROKES" class="st0" d="M259,86.4l0.3-0.3l0.2-0.4l0.1-0.4v-0.5l-0.1-0.8l-0.1-0.5
		l-0.1-0.3"/>
	<path id="Layer2_5_MEMBER_1_MEMBER_198_1_STROKES" class="st0" d="M256,79.5l-0.2-0.1l-0.2-0.1l-0.4-0.1l-1.1-0.2l-0.9,0.2
		l-0.4,0.2l0,0l0,0l-0.3,0.4l-0.2,0.5l-0.1,0.5v0.6"/>
	<path id="Layer2_5_MEMBER_1_MEMBER_199_1_STROKES" class="st0" d="M257,86.7l0.6,0.1l1-0.2l0.4-0.3"/>
	<path id="Layer2_5_MEMBER_1_MEMBER_200_1_STROKES" class="st0" d="M253.6,80.5l-0.1,0.6v0.7l0.1,0.5l0.4,0.9l0.6,0.9"/>
	<path id="Layer2_5_MEMBER_1_MEMBER_201_1_STROKES" class="st0" d="M254.8,84.2l1.1,0.9l0.7,0.4l0.4,0.1l0.6,0.1l0.3-0.1"/>
	<path id="Layer2_5_MEMBER_1_MEMBER_202_1_STROKES" class="st0" d="M256.1,83.7v-0.2"/>
	<path id="Layer2_5_MEMBER_1_MEMBER_203_1_STROKES" class="st0" d="M255.7,81.6l-0.1-0.1"/>
	<path id="Layer2_5_MEMBER_1_MEMBER_204_1_STROKES" class="st0" d="M255.5,82.4L255.5,82.4l-0.1-0.2l-0.1-0.1h-0.1l0,0h-0.1"/>
	<path id="Layer2_5_MEMBER_1_MEMBER_205_1_STROKES" class="st0" d="M255.2,83.2l-0.1-0.2H255h-0.2"/>
	<path id="Layer2_5_MEMBER_1_MEMBER_206_1_STROKES" class="st0" d="M254.9,81.5v-0.1v-0.1l-0.1-0.1l-0.2-0.1h-0.1"/>
	<path id="Layer2_5_MEMBER_1_MEMBER_207_1_STROKES" class="st0" d="M256.8,84.8v-0.1v-0.1l-0.1-0.1l-0.1-0.1l-0.1-0.1h-0.1h-0.1
		l-0.1,0.1"/>
	<path id="Layer2_5_MEMBER_1_MEMBER_208_1_STROKES" class="st0" d="M255.8,84.3l-0.1-0.1l-0.1-0.1l-0.1-0.1h-0.1h-0.1h-0.1"/>
	<path id="Layer2_5_MEMBER_1_MEMBER_209_1_STROKES" class="st0" d="M257.7,85l-0.1-0.1"/>
	<path id="Layer2_5_MEMBER_1_MEMBER_210_1_STROKES" class="st0" d="M257.5,83.9L257.5,83.9"/>
	<path id="Layer2_5_MEMBER_1_MEMBER_211_1_STROKES" class="st0" d="M258,86.4l0.3-0.4l0.2-0.4v-0.5v-0.5l-0.1-0.7l-0.3-0.6"/>
	<path id="Layer2_5_MEMBER_1_MEMBER_212_1_STROKES" class="st0" d="M255.5,80.4l-0.6-0.3l-0.6-0.2h-0.5l-0.5,0.1l-0.4,0.2"/>
	<path id="Layer2_5_MEMBER_1_MEMBER_213_1_STROKES" class="st0" d="M252.9,80.2l-0.3,0.4l-0.2,0.5v0.5v0.6l0.1,0.4l0.3,0.8l0.4,0.8
		l0.3,0.4l0.9,1l1.1,0.7l1,0.3h0.5l0.5-0.1l0.4-0.2"/>
	<path id="Layer2_5_MEMBER_1_MEMBER_214_1_STROKES" class="st0" d="M252.8,80.3l1.1-0.9"/>
	<path id="Layer2_5_MEMBER_1_MEMBER_215_1_STROKES" class="st0" d="M258,86.4l1.1-0.9"/>
	<path id="Layer2_5_MEMBER_1_MEMBER_216_1_STROKES" class="st0" d="M257.6,86l0.3-0.3l0.1-0.4v-0.4l-0.1-0.9l-0.1-0.4l-0.7-1.2
		l-0.7-0.7l-0.7-0.6l-0.8-0.4l-0.5-0.1H254l-0.8,0.3"/>
	<path id="Layer2_5_MEMBER_1_MEMBER_217_1_STROKES" class="st0" d="M253.2,80.7L253,81l-0.1,0.4v0.4l0.1,0.9l0.3,0.8l0.3,0.4"/>
	<path id="Layer2_5_MEMBER_1_MEMBER_218_1_STROKES" class="st0" d="M256,86.1l0.5,0.1h0.4l0.4-0.1l0.3-0.1"/>
	<path id="Layer2_5_MEMBER_1_MEMBER_219_1_STROKES" class="st0" d="M263.8,82.9l0.8-0.6l0.3-0.3l0.2-0.4l0.1-0.5l-0.1-1.2l-0.2-0.7
		l-0.6-1.3l-0.4-0.6l-1-1.1l-1.1-0.8l-0.6-0.3l-1.1-0.3h-0.5l-0.4,0.1l-0.4,0.2"/>
	<path id="Layer2_5_MEMBER_1_MEMBER_220_1_STROKES" class="st0" d="M259.2,86.3l0.8-0.6l0.3-0.4l0.2-0.4l0.1-0.5l-0.1-0.9"/>
	<path id="Layer2_5_MEMBER_1_MEMBER_221_1_STROKES" class="st0" d="M260.2,82.5l-0.2-0.6l-0.8-1.2l-1-1.1l-0.8-0.7"/>
	<path id="Layer2_5_MEMBER_1_MEMBER_222_1_STROKES" class="st0" d="M256.4,78.4l-0.5-0.2l-0.5-0.1h-0.5l-0.4,0.1l-0.4,0.2"/>
	<path id="Layer2_5_MEMBER_1_MEMBER_223_1_STROKES" class="st0" d="M260.6,85.2l0.2-0.1l0.3-0.4l0.2-0.4l0.1-0.5v-0.5V83"/>
	<path id="Layer2_5_MEMBER_1_MEMBER_224_1_STROKES" class="st0" d="M261,81.9l-0.2-0.6l-0.4-0.7l-0.9-1.2l-1.1-1l-0.2-0.1"/>
	<path id="Layer2_5_MEMBER_1_MEMBER_225_1_STROKES" class="st0" d="M257.3,77.8l-1-0.3h-0.5l-0.4,0.1l-0.3,0.2"/>
	<path id="Layer2_5_MEMBER_1_MEMBER_226_1_STROKES" class="st0" d="M261.4,84.5l0.2-0.1l0.3-0.3l0.2-0.4l0.1-0.5v-0.6v-0.3"/>
	<path id="Layer2_5_MEMBER_1_MEMBER_227_1_STROKES" class="st0" d="M261.9,81.3l-0.6-1.3l-0.9-1.2l-1.3-1.2"/>
	<path id="Layer2_5_MEMBER_1_MEMBER_228_1_STROKES" class="st0" d="M258.2,77.1l-1.1-0.3h-0.5l-0.4,0.1L256,77"/>
	<path id="Layer2_5_MEMBER_1_MEMBER_229_1_STROKES" class="st0" d="M262.3,83.9l0.2-0.1l0.3-0.4L263,83l0.1-0.5V82v-0.3"/>
	<path id="Layer2_5_MEMBER_1_MEMBER_230_1_STROKES" class="st0" d="M262.7,80.6l-0.3-0.7l-0.8-1.2l-1-1.1l-0.8-0.6"/>
	<path id="Layer2_5_MEMBER_1_MEMBER_231_1_STROKES" class="st0" d="M259,76.5l-0.5-0.2l-0.5-0.1h-0.5l-0.5,0.1"/>
	<path id="Layer2_5_MEMBER_1_MEMBER_232_1_STROKES" class="st0" d="M263.2,83.2l0.1-0.1l0.3-0.4l0.2-0.4l0.1-0.5V81"/>
	<path id="Layer2_5_MEMBER_1_MEMBER_233_1_STROKES" class="st0" d="M263.6,80l-0.6-1.3l-0.9-1.2l-1.1-1l-0.3-0.1"/>
	<path id="Layer2_5_MEMBER_1_MEMBER_234_1_STROKES" class="st0" d="M259.9,75.9l-1.1-0.3l-0.9,0.1"/>
	<path id="Layer2_5_MEMBER_1_MEMBER_235_1_STROKES" class="st0" d="M253,79.4l5.7-4.3"/>
	<path id="Layer2_5_MEMBER_1_MEMBER_236_1_STROKES" class="st5" d="M256.1,83l-1.6,1.1"/>
	<path id="Layer2_5_MEMBER_1_MEMBER_237_1_STROKES" class="st5" d="M254.1,84.4l-0.4,0.3"/>
	<path id="Layer2_5_MEMBER_1_MEMBER_238_1_STROKES" class="st5" d="M253.3,85l-1.6,1.1l0.7,2"/>
	<path id="Layer2_5_MEMBER_1_MEMBER_239_1_STROKES" class="st5" d="M252.7,88.6l0.2,0.5"/>
	<path id="Layer2_5_MEMBER_1_MEMBER_240_1_STROKES" class="st5" d="M253,89.5l0.7,2"/>
	<path id="Layer2_5_MEMBER_1_MEMBER_241_1_STROKES" class="st0" d="M267.3,84.2l-0.3-0.4l-0.3-0.2"/>
	<path id="Layer2_5_MEMBER_1_MEMBER_242_1_STROKES" class="st0" d="M263,74.6l0.1,0.2"/>
	<path id="Layer2_5_MEMBER_1_MEMBER_243_1_STROKES" class="st0" d="M263.9,74.2l-0.1-0.1l-0.1-0.1l-0.1-0.1l-0.1-0.1"/>
	<path id="Layer2_5_MEMBER_1_MEMBER_244_1_STROKES" class="st0" d="M255.5,73.2v0.3l0.1,0.2l0.1,0.2l0.1,0.1l0.1,0.1l0.1,0.1"/>
	<path id="Layer2_5_MEMBER_1_MEMBER_245_1_STROKES" class="st0" d="M256.3,73.2l-0.2-0.1"/>
	<path id="Layer2_5_MEMBER_1_MEMBER_246_1_STROKES" class="st0" d="M266.7,85.9h0.2c0.4,0,0.7-0.1,0.9-0.4c0.2-0.3,0.4-0.6,0.4-0.9
		l-0.1-0.4"/>
	<path id="Layer2_5_MEMBER_1_MEMBER_247_1_STROKES" class="st0" d="M264.8,74.3c-0.1-0.5-0.4-0.8-0.8-1.1c-0.4-0.3-0.8-0.5-1.3-0.5"
		/>
	<path id="Layer2_5_MEMBER_1_MEMBER_248_1_STROKES" class="st0" d="M254.7,73.5l1.2,3.7"/>
	<path id="Layer2_5_MEMBER_1_MEMBER_249_1_STROKES" class="st0" d="M256.1,71.7h-0.2c-0.4,0-0.7,0.1-0.9,0.4
		c-0.3,0.3-0.4,0.6-0.4,0.9c0,0.2,0,0.3,0.1,0.4"/>
	<path id="Layer2_5_MEMBER_1_MEMBER_250_1_STROKES" class="st0" d="M266.1,73.3l3.3,10"/>
	<path id="Layer2_5_MEMBER_1_MEMBER_251_1_STROKES" class="st0" d="M257.4,70.8l6.7,0.8"/>
	<path id="Layer2_5_MEMBER_1_MEMBER_252_1_STROKES" class="st0" d="M269,84.8c0.4-0.2,0.5-0.6,0.5-1l-0.1-0.4"/>
	<path id="Layer2_5_MEMBER_1_MEMBER_253_1_STROKES" class="st0" d="M266.1,73.3c-0.1-0.4-0.4-0.8-0.8-1.1c-0.4-0.3-0.8-0.5-1.3-0.5"
		/>
	<path id="Layer2_5_MEMBER_1_MEMBER_254_1_STROKES" class="st0" d="M257.4,70.8h-0.2c-0.3,0-0.6,0.1-0.8,0.3"/>
	<path id="Layer2_5_MEMBER_1_MEMBER_255_1_STROKES" class="st0" d="M267.7,85.7l1.3-0.9"/>
	<path id="Layer2_5_MEMBER_1_MEMBER_256_1_STROKES" class="st0" d="M255.1,72l1.3-0.9"/>
	<path id="Layer2_5_MEMBER_1_MEMBER_257_1_STROKES" class="st0" d="M282.4,106.4c0.4-0.2,0.8-0.4,1-0.7c0.2-0.3,0.3-0.5,0.2-0.8
		c-0.1-0.2-0.3-0.4-0.7-0.5c-0.3,0-0.7,0-1.2,0.1c-0.4,0.2-0.8,0.4-1,0.7c-0.2,0.3-0.3,0.6-0.2,0.8c0.1,0.3,0.3,0.4,0.7,0.5
		C281.5,106.6,281.9,106.5,282.4,106.4z"/>
	<path id="Layer2_5_MEMBER_1_MEMBER_258_1_STROKES" class="st0" d="M279.1,101.8c-0.4,0.2-0.8,0.2-1.2,0.1c-0.4,0-0.6-0.2-0.7-0.5
		c-0.1-0.2,0-0.5,0.2-0.8c0.2-0.3,0.6-0.5,1-0.7s0.8-0.2,1.2-0.1s0.6,0.2,0.7,0.5c0.1,0.2,0,0.5-0.2,0.8
		C279.9,101.4,279.5,101.6,279.1,101.8z"/>
	<path id="Layer2_5_MEMBER_1_MEMBER_259_1_STROKES" class="st0" d="M274.2,107.8c-0.4,0.1-0.8,0.2-1.2,0.1s-0.6-0.2-0.7-0.5
		c-0.1-0.2,0-0.5,0.2-0.8c0.2-0.3,0.6-0.5,1-0.7s0.8-0.2,1.2-0.1s0.6,0.2,0.7,0.5c0.1,0.3,0,0.5-0.2,0.8
		C275,107.4,274.6,107.6,274.2,107.8z"/>
	<path id="Layer2_5_MEMBER_1_MEMBER_260_1_STROKES" class="st5" d="M253.8,91.6l-1.1,0.8"/>
	<path id="Layer2_5_MEMBER_1_MEMBER_261_1_STROKES" class="st5" d="M252.4,92.5l-0.3,0.2"/>
	<path id="Layer2_5_MEMBER_1_MEMBER_262_1_STROKES" class="st5" d="M251.9,92.9l-1.1,0.8"/>
	<path id="Layer2_5_MEMBER_1_MEMBER_263_1_STROKES" class="st0" d="M246.9,102.6l0.3-0.4l0.3-0.4l0.1-0.5l0.1-0.6V100l-0.1-0.5
		l-0.5-1.5l-0.5-0.9l-0.9-1.3l-0.4-0.4l-1.2-1l-0.8-0.5l-0.7-0.2l-0.6-0.1h-0.5l-0.5,0.1l-0.4,0.2"/>
	<path id="Layer2_5_MEMBER_1_MEMBER_264_1_STROKES" class="st0" d="M244.5,104.3l0.4-0.4l0.4-1l0.1-0.5v-0.6l-0.3-1.2l-0.1-0.4"/>
	<path id="Layer2_5_MEMBER_1_MEMBER_265_1_STROKES" class="st0" d="M242.1,96.3l-0.6-0.3l-0.3-0.2l-0.9-0.3l-0.6-0.1h-0.5l-0.5,0.1
		l-0.4,0.2l-0.4,0.4l-0.2,0.4l-0.2,0.5v1.2l0.1,0.5l0.3,1.1l0.2,0.5"/>
	<path id="Layer2_5_MEMBER_1_MEMBER_266_1_STROKES" class="st0" d="M242,104.3l1.2,0.3h0.5l0.4-0.1l0.4-0.2l2.4-1.7"/>
	<path id="Layer2_5_MEMBER_1_MEMBER_267_1_STROKES" class="st0" d="M238.3,95.7l2.4-1.7"/>
	<path id="Layer2_5_MEMBER_1_MEMBER_268_1_STROKES" class="st0" d="M244.8,96l-1.2,0.9"/>
	<path id="Layer2_5_MEMBER_1_MEMBER_269_1_STROKES" class="st0" d="M246.6,98.7l-1.3,0.9"/>
	<path id="Layer2_5_MEMBER_1_MEMBER_270_1_STROKES" class="st0" d="M246.8,99.4l-1.2,0.9"/>
	<path id="Layer2_5_MEMBER_1_MEMBER_271_1_STROKES" class="st0" d="M247,100.1l-1.2,0.9"/>
	<path id="Layer2_5_MEMBER_1_MEMBER_272_1_STROKES" class="st0" d="M247.1,100.8l-1.2,0.9"/>
	<path id="Layer2_5_MEMBER_1_MEMBER_273_1_STROKES" class="st0" d="M247.1,101.5l-1.3,0.9"/>
	<path id="Layer2_5_MEMBER_1_MEMBER_274_1_STROKES" class="st0" d="M246.9,102.1l-1.2,0.9"/>
	<path id="Layer2_5_MEMBER_1_MEMBER_275_1_STROKES" class="st0" d="M244.3,95.6l-1.2,0.9"/>
	<path id="Layer2_5_MEMBER_1_MEMBER_276_1_STROKES" class="st0" d="M243.7,95.1l-1.2,0.9"/>
	<path id="Layer2_5_MEMBER_1_MEMBER_277_1_STROKES" class="st0" d="M243,94.7l-1.2,0.9"/>
	<path id="Layer2_5_MEMBER_1_MEMBER_278_1_STROKES" class="st0" d="M242.4,94.4l-1.2,0.9"/>
	<path id="Layer2_5_MEMBER_1_MEMBER_279_1_STROKES" class="st0" d="M241.8,94.2l-1.3,0.9"/>
	<path id="Layer2_5_MEMBER_1_MEMBER_280_1_STROKES" class="st0" d="M241.1,94.2l-1.2,0.9"/>
	<path id="Layer2_5_MEMBER_1_MEMBER_281_1_STROKES" class="st0" d="M244.1,103.6l0.4-0.4l0.2-0.5l0.1-0.6v-0.7l-0.2-1l-0.2-0.5
		l-0.5-1l-1.1-1.3l-0.8-0.7l-0.9-0.5l-0.7-0.2l-0.6-0.1l-0.5,0.1l-0.5,0.3l-0.1,0.1l-0.1,0.1l-0.2,0.3"/>
	<path id="Layer2_5_MEMBER_1_MEMBER_282_1_STROKES" class="st0" d="M243.4,103.9l0.4-0.1l0.2-0.1l0.1-0.1"/>
	<path id="Layer2_5_MEMBER_1_MEMBER_283_1_STROKES" class="st0" d="M238.6,96.7l-0.4,0.4l-0.2,0.5l-0.1,0.6v0.6l0.4,1.3"/>
	<path id="Layer2_5_MEMBER_1_MEMBER_284_1_STROKES" class="st0" d="M243.3,103.9l0.2-0.1"/>
	<path id="Layer2_5_MEMBER_1_MEMBER_285_1_STROKES" class="st0" d="M239.1,97.4l-0.3,0.3l-0.2,0.4l-0.1,0.5v0.5"/>
	<path id="Layer2_5_MEMBER_1_MEMBER_286_1_STROKES" class="st0" d="M239.4,96.2l-0.8,0.5"/>
	<path id="Layer2_5_MEMBER_1_MEMBER_287_1_STROKES" class="st0" d="M244.4,103.2l-0.9,0.6"/>
	<path id="Layer2_5_MEMBER_1_MEMBER_288_1_STROKES" class="st0" d="M239.1,106.5l-1.7-0.6"/>
	<path id="Layer2_5_MEMBER_1_MEMBER_289_1_STROKES" class="st0" d="M240.8,105.3l-1.3-0.8"/>
	<path id="Layer2_5_MEMBER_1_MEMBER_290_1_STROKES" class="st0" d="M239.4,106.1l0.3,0.1h0.3h0.2l0.2-0.1"/>
	<path id="Layer2_5_MEMBER_1_MEMBER_291_1_STROKES" class="st0" d="M240.7,106.4L240.7,106.4l0.1-0.1l0,0l0.1-0.1l0.1-0.2"/>
	<path id="Layer2_5_MEMBER_1_MEMBER_292_1_STROKES" class="st0" d="M239.2,106.9l-2-0.6"/>
	<path id="Layer2_5_MEMBER_1_MEMBER_293_1_STROKES" class="st0" d="M239.2,106.9l0.4,0.1h0.5l0.4-0.1l0.4-0.2l0.2-0.1"/>
	<path id="Layer2_5_MEMBER_1_MEMBER_294_1_STROKES" class="st0" d="M240.4,106l-0.2-0.1h-0.3h-0.3l-0.2,0.1l0,0"/>
	<path id="Layer2_5_MEMBER_1_MEMBER_295_1_STROKES" class="st0" d="M241.2,106.1l-0.1-0.5"/>
	<path id="Layer2_5_MEMBER_1_MEMBER_296_1_STROKES" class="st0" d="M236.8,106.5l0.3,0.3"/>
	<path id="Layer2_5_MEMBER_1_MEMBER_297_1_STROKES" class="st0" d="M236.6,105.1h0.3"/>
	<path id="Layer2_5_MEMBER_1_MEMBER_298_1_STROKES" class="st0" d="M237.1,105l0.4-0.3"/>
	<path id="Layer2_5_MEMBER_1_MEMBER_299_1_STROKES" class="st0" d="M238.7,103.9l0.4-0.3"/>
	<path id="Layer2_5_MEMBER_1_MEMBER_300_1_STROKES" class="st0" d="M237.7,106.6l-0.4,0.3"/>
	<path id="Layer2_5_MEMBER_1_MEMBER_301_1_STROKES" class="st0" d="M238.6,103.6l4-4"/>
	<path id="Layer2_5_MEMBER_1_MEMBER_302_1_STROKES" class="st0" d="M236.6,105l0.8-0.5"/>
	<path id="Layer2_5_MEMBER_1_MEMBER_303_1_STROKES" class="st0" d="M238.3,103.7l0.2-0.2"/>
	<path id="Layer2_5_MEMBER_1_MEMBER_304_1_STROKES" class="st0" d="M238.3,105.5l0.7-0.5"/>
	<path id="Layer2_5_MEMBER_1_MEMBER_305_1_STROKES" class="st0" d="M237.6,105.5l-0.3,0.2"/>
	<path id="Layer2_5_MEMBER_1_MEMBER_306_1_STROKES" class="st0" d="M238.8,104.7l0.5-0.3"/>
	<path id="Layer2_5_MEMBER_1_MEMBER_307_1_STROKES" class="st0" d="M237.7,105.5v-0.2l-0.1-0.2l-0.1-0.4"/>
	<path id="Layer2_5_MEMBER_1_MEMBER_308_1_STROKES" class="st0" d="M237.2,104.7h0.3"/>
	<path id="Layer2_5_MEMBER_1_MEMBER_309_1_STROKES" class="st0" d="M234.8,102.8l-0.2,0.2l-0.1,0.2l-0.1,0.3v0.3"/>
	<path id="Layer2_5_MEMBER_1_MEMBER_310_1_STROKES" class="st0" d="M236.7,106.8l0.3,0.1h0.2l0.2-0.1l0.2-0.1"/>
	<path id="Layer2_5_MEMBER_1_MEMBER_311_1_STROKES" class="st0" d="M238.8,103.6h0.3"/>
	<path id="Layer2_5_MEMBER_1_MEMBER_312_1_STROKES" class="st0" d="M243.3,103.9l-3.1,0.9"/>
	<path id="Layer2_5_MEMBER_1_MEMBER_313_1_STROKES" class="st0" d="M242.6,98.7l0.1,0.3v0.2v0.1l-0.1,0.2"/>
	<path id="Layer2_5_MEMBER_1_MEMBER_314_1_STROKES" class="st0" d="M238.1,105.6l-0.1-0.4l-0.1-0.4"/>
	<path id="Layer2_5_MEMBER_1_MEMBER_315_1_STROKES" class="st0" d="M236.6,103.1l-0.1-0.1l-0.8-0.4h-0.3h-0.3l-0.3,0.1"/>
	<path class="st8" d="M237.9,104.8l0.1,0.4v0.2v0.2l0,0l0,0h0.1v-0.2L237.9,104.8L237.9,104.8z"/>
	<path id="Layer2_5_MEMBER_1_MEMBER_317_1_STROKES" class="st0" d="M237.7,105.4l-0.1-0.5l-0.3-0.5l-0.4-0.5l-0.4-0.4l-0.5-0.3
		l-0.3-0.1h-0.3h-0.2l-0.2,0.1"/>
	<path id="Layer2_5_MEMBER_1_MEMBER_318_1_STROKES" class="st0" d="M238.8,105.1l-0.4-1.1l-0.3-0.5l-0.4-0.5l-0.4-0.4l-0.5-0.3
		l-0.4-0.1h-0.3h-0.3l-0.3,0.1"/>
	<path id="Layer2_5_MEMBER_1_MEMBER_319_1_STROKES" class="st0" d="M234.8,102.8l0.7-0.5"/>
	<path id="Layer2_5_MEMBER_1_MEMBER_320_1_STROKES" class="st0" d="M242.6,98.7l-0.4-0.4l-0.9-0.7l-0.4-0.2l-0.5-0.2h-0.5l-0.4,0.1
		l-0.3,0.1"/>
	<path id="Layer2_5_MEMBER_1_MEMBER_321_1_STROKES" class="st0" d="M238.8,103.6l3.2-3"/>
	<path id="Layer2_5_MEMBER_1_MEMBER_322_1_STROKES" class="st0" d="M242.5,100.1l1-0.9"/>
	<path id="Layer2_5_MEMBER_1_MEMBER_323_1_STROKES" class="st0" d="M243.7,103.7l0.4-0.4l0.2-0.4l0.1-0.5v-0.6"/>
	<path id="Layer2_5_MEMBER_1_MEMBER_324_1_STROKES" class="st0" d="M244.1,100.5l-0.1-0.3l-0.4-0.9"/>
	<path id="Layer2_5_MEMBER_1_MEMBER_325_1_STROKES" class="st0" d="M243.5,99.2l-0.1-0.2l-0.1-0.1l-0.1-0.1l-0.9-1.1l-0.5-0.4
		l-1-0.6l-0.9-0.3h-0.4l-0.4,0.1l-0.4,0.2"/>
	<path id="Layer2_5_MEMBER_1_MEMBER_326_1_STROKES" class="st0" d="M237.7,106.7l0.3-0.2"/>
	<path id="Layer2_5_MEMBER_1_MEMBER_327_1_STROKES" class="st0" d="M239.5,104.5l-0.2-0.1"/>
	<path id="Layer2_5_MEMBER_1_MEMBER_328_1_STROKES" class="st0" d="M237.9,105.6l-0.2-0.1"/>
	<path id="Layer2_5_MEMBER_1_MEMBER_329_1_STROKES" class="st0" d="M236.7,106.3V106l-0.1-0.8"/>
	<path id="Layer2_5_MEMBER_1_MEMBER_330_1_STROKES" class="st0" d="M229.4,109.4l-0.1,0.2l-0.1,0.3v0.3l0.1,0.3"/>
	<path id="Layer2_5_MEMBER_1_MEMBER_331_1_STROKES" class="st0" d="M232.1,112.4h0.3l0.5-0.2l0.2-0.1"/>
	<path id="Layer2_5_MEMBER_1_MEMBER_332_1_STROKES" class="st0" d="M233,112l0.1-0.4v-0.2v-0.2"/>
	<path id="Layer2_5_MEMBER_1_MEMBER_333_1_STROKES" class="st0" d="M231.1,109.1l-0.4-0.1h-0.1h-0.4l-0.3,0.1l-0.3,0.1l-0.2,0.2"/>
	<path id="Layer2_5_MEMBER_1_MEMBER_334_1_STROKES" class="st0" d="M232.7,111.8l0.1-0.2v-0.3V111l-0.1-0.3l-0.3-0.5l-0.4-0.4
		l-0.5-0.3l-0.5-0.2l-0.5-0.1h-0.3l-0.3,0.1l-0.2,0.1l-0.1,0.2"/>
	<path class="st8" d="M232.8,111v0.3l-0.1,0.2l-0.1,0.2l0,0l0.1,0.1l0,0l0.1-0.2v-0.3V111l-0.1-0.3h-0.1L232.8,111z"/>
	<path id="Layer2_5_MEMBER_1_MEMBER_336_1_STROKES" class="st0" d="M236.8,101.7l-0.1,0.1l-0.4,0.4"/>
	<path id="Layer2_5_MEMBER_1_MEMBER_337_1_STROKES" class="st0" d="M235.2,103l-1.1,0.9l-4.7,5.5"/>
	<path id="Layer2_5_MEMBER_1_MEMBER_338_1_STROKES" class="st0" d="M233,112l0.5-0.6l3.1-4.5l0.1-0.2"/>
	<path id="Layer2_5_MEMBER_1_MEMBER_339_1_STROKES" class="st0" d="M239.5,104.4l2.9-1.6"/>
	<path id="Layer2_5_MEMBER_1_MEMBER_340_1_STROKES" class="st0" d="M243.3,102.3l0.3-0.1"/>
	<path id="Layer2_5_MEMBER_1_MEMBER_341_1_STROKES" class="st0" d="M238.1,101.7l0.4-0.5l0.9-1.5l0.5-0.9l0.6-1.7"/>
	<path id="Layer2_5_MEMBER_1_MEMBER_342_1_STROKES" class="st0" d="M237.4,101.6l1.3-1.9l0.9-1.8l0.3-0.8"/>
	<path id="Layer2_5_MEMBER_1_MEMBER_343_1_STROKES" class="st0" d="M238.9,102.5l0.4-0.4l1.8-2.1l1.2-1.6"/>
	<path id="Layer2_5_MEMBER_1_MEMBER_344_1_STROKES" class="st0" d="M239.2,101.3l2.4-3.5"/>
	<path id="Layer2_5_MEMBER_1_MEMBER_345_1_STROKES" class="st0" d="M238.1,101.7l3-4.3"/>
	<path id="Layer2_5_MEMBER_1_MEMBER_346_1_STROKES" class="st0" d="M238.5,102.1l3.4-4.1"/>
	<path id="Layer2_5_MEMBER_1_MEMBER_347_1_STROKES" class="st0" d="M242.6,98.9l-3.6,3.8"/>
	<path id="Layer2_5_MEMBER_1_MEMBER_348_1_STROKES" class="st0" d="M230.1,109.3l-4.9,6l-3.2,3.4"/>
	<path id="Layer2_5_MEMBER_1_MEMBER_349_1_STROKES" class="st0" d="M232.9,111.4l-3.9,4.8l-4.1,4.4"/>
	<path id="Layer2_5_MEMBER_1_MEMBER_350_1_STROKES" class="st0" d="M239,102.6l-0.4-0.4l-0.9-0.6l-0.4-0.1"/>
	<path id="Layer2_5_MEMBER_1_MEMBER_351_1_STROKES" class="st0" d="M247.8,100.4l0.1-0.8l-0.1-0.8l-0.1-0.5l-0.7-1.5l-1.1-1.3
		l-0.8-0.7l-0.4-0.3l-0.8-0.4l-0.3-0.1l-0.5-0.1"/>
	<path id="Layer2_5_MEMBER_1_MEMBER_352_1_STROKES" class="st0" d="M247.4,102l0.4-0.4l0.3-0.4l0.1-0.5l0.1-0.5l-0.1-1.1l-0.3-1.1
		l-0.5-1l-0.6-0.9"/>
	<path id="Layer2_5_MEMBER_1_MEMBER_353_1_STROKES" class="st0" d="M244.1,93.7l-0.6-0.2l-0.5-0.1h-0.5l-0.5,0.1l-0.4,0.2"/>
	<path id="Layer2_5_MEMBER_1_MEMBER_354_1_STROKES" class="st0" d="M248.7,101l0.4-0.3l0.3-0.4l0.1-0.5l0.1-0.5l-0.1-1.1l-0.1-0.5
		l-0.4-1l-0.5-1l-0.7-0.9l-1.1-1.1l-0.9-0.6l-1.1-0.5l-0.5-0.1h-0.5l-0.5,0.1l-0.4,0.2"/>
	<path id="Layer2_5_MEMBER_1_MEMBER_355_1_STROKES" class="st0" d="M247.4,102l1.3-1"/>
	<path id="Layer2_5_MEMBER_1_MEMBER_356_1_STROKES" class="st0" d="M241.5,93.7l1.3-0.9"/>
	<path id="Layer2_5_MEMBER_1_MEMBER_357_1_STROKES" class="st0" d="M249.1,101.2l0.4-0.4l0.3-0.5l0.2-0.5l0.1-0.6l-0.1-1.1l-0.4-1.5
		l-0.7-1.4l-1-1.2l-0.4-0.4"/>
	<path id="Layer2_5_MEMBER_1_MEMBER_358_1_STROKES" class="st0" d="M245.5,92.4l-0.7-0.2l-0.6-0.1h-0.6l-0.5,0.1l-0.4,0.2l-0.2,0.2
		l-0.2,0.2l-0.3,0.5"/>
	<path id="Layer2_5_MEMBER_1_MEMBER_359_1_STROKES" class="st0" d="M248,101.5h0.3l0.5-0.1l0.2-0.1"/>
	<path id="Layer2_5_MEMBER_1_MEMBER_360_1_STROKES" class="st0" d="M249.6,100.8l0.4-0.3l0.3-0.4l0.2-0.5l0.1-0.6v-0.7l-0.2-1
		l-0.4-1l-1.1-1.9l-0.7-0.8l-0.8-0.7l-0.8-0.6l-1.1-0.5l-0.6-0.1h-0.5l-0.5,0.1l-0.4,0.3"/>
	<path id="Layer2_5_MEMBER_1_MEMBER_361_1_STROKES" class="st0" d="M250.2,100.3l0.4-0.4l0.3-0.4l0.2-0.5l0.1-0.6l-0.1-1.1l-0.3-1
		l-0.4-1l-0.9-1.4l-1.1-1.2"/>
	<path id="Layer2_5_MEMBER_1_MEMBER_362_1_STROKES" class="st0" d="M246.6,91.6l-1.3-0.4h-0.5l-0.5,0.1l-0.6,0.3"/>
	<path id="Layer2_5_MEMBER_1_MEMBER_363_1_STROKES" class="st0" d="M250.9,99.9l0.4-0.4l0.3-0.5l0.1-0.5l0.1-1.3l-0.2-1l-0.4-1
		l-0.8-1.4l-1.1-1.3l-1.2-1l-0.9-0.5l-0.6-0.2l-0.6-0.1h-0.5l-0.5,0.1l-0.4,0.3"/>
	<path id="Layer2_5_MEMBER_1_MEMBER_364_1_STROKES" class="st0" d="M251.6,98.9l0.3-0.4l0.2-0.5l0.1-0.6v-0.7l-0.2-1l-0.6-1.5
		l-0.9-1.4l-0.7-0.8l-1.2-0.9l-0.4-0.2l-0.7-0.2l-0.6-0.1h-0.6l-0.5,0.2"/>
	<path id="Layer2_5_MEMBER_1_MEMBER_365_1_STROKES" class="st0" d="M244.5,91.1l-0.7,0.5"/>
	<path id="Layer2_5_MEMBER_1_MEMBER_366_1_STROKES" class="st0" d="M250.9,99.9l-0.7,0.4"/>
	<path id="Layer2_5_MEMBER_1_MEMBER_367_1_STROKES" class="st0" d="M250.4,99.4l0.1-0.4l0.1-0.4v-0.9l-0.2-1l-0.4-1l-1.2-1.8
		l-0.7-0.8l-0.8-0.7l-0.4-0.3l-0.9-0.4l-0.4-0.1h-0.4h-0.4"/>
	<path id="Layer2_5_MEMBER_1_MEMBER_368_1_STROKES" class="st0" d="M249.6,100.8l-0.5,0.4"/>
	<path id="Layer2_5_MEMBER_1_MEMBER_369_1_STROKES" class="st0" d="M243.3,92l-0.5,0.4"/>
	<path id="Layer2_5_MEMBER_1_MEMBER_370_1_STROKES" class="st0" d="M117.2,135.9l8-5.7"/>
	<path id="Layer2_5_MEMBER_1_MEMBER_371_1_STROKES" class="st0" d="M126,130c-0.3,0-0.5,0.1-0.8,0.3"/>
	<path id="Layer2_5_MEMBER_1_MEMBER_372_1_STROKES" class="st0" d="M123.2,144.7l8.1-5.9"/>
	<path id="Layer2_5_MEMBER_1_MEMBER_373_1_STROKES" class="st0" d="M117.7,135.9l8-5.7"/>
	<path id="Layer2_5_MEMBER_1_MEMBER_374_1_STROKES" class="st0" d="M127.7,130.6l3.9,6.2"/>
	<path id="Layer2_5_MEMBER_1_MEMBER_375_1_STROKES" class="st0" d="M127.7,130.6c-0.3-0.4-0.7-0.7-1.2-0.7c-0.3,0-0.5,0.1-0.8,0.3"
		/>
	<path id="Layer2_5_MEMBER_1_MEMBER_376_1_STROKES" class="st0" d="M131.3,138.8c0.4-0.3,0.6-0.7,0.6-1.2c0-0.2-0.1-0.5-0.2-0.8"/>
	<path id="Layer2_5_MEMBER_1_MEMBER_377_1_STROKES" class="st0" d="M126,130h0.5"/>
	<path id="Layer2_5_MEMBER_1_MEMBER_378_1_STROKES" class="st0" d="M117.7,135.9l0.1,1.1l0.1,0.3l0.1,0.4l0.5,0.7l0.6,0.6l0.3,0.4
		l0.5,1.1l0.2,0.5l0.6,1.1l0.4,0.4l1.1,0.9l0.3,0.3l0.4,0.5l0.2,0.4"/>
	<path id="Layer2_5_MEMBER_1_MEMBER_379_1_STROKES" class="st0" d="M117.2,135.9h0.5"/>
	<path id="Layer2_5_MEMBER_1_MEMBER_380_1_STROKES" class="st0" d="M117.2,135.9l0.1,1.1l0.1,0.3l0.1,0.4l0.5,0.7l0.6,0.6l0.3,0.4
		l0.5,1.1l0.5,1.1l0.7,0.9l1.1,0.9l0.3,0.3l0.2,0.3l0.3,0.5l0.1,0.2h0.6"/>
	<path id="Layer2_5_MEMBER_1_MEMBER_381_1_STROKES" class="st0" d="M122.5,137.4c-0.3,0.4-0.3,0.9,0.1,1.6c0.2,0.3,0.4,0.6,0.7,0.8
		c0.3,0.2,0.5,0.2,0.7,0.1"/>
	<path id="Layer2_5_MEMBER_1_MEMBER_382_1_STROKES" class="st0" d="M129.6,135.8c0.3-0.4,0.3-0.9-0.1-1.6c-0.2-0.3-0.4-0.6-0.7-0.8
		c-0.3-0.1-0.5-0.2-0.7-0.1"/>
	<path id="Layer2_5_MEMBER_1_MEMBER_383_1_STROKES" class="st0" d="M127.1,138.4l0.5-0.4"/>
	<path id="Layer2_5_MEMBER_1_MEMBER_384_1_STROKES" class="st0" d="M125,134.8l-0.1,0.1"/>
	<path id="Layer2_5_MEMBER_1_MEMBER_385_1_STROKES" class="st0" d="M122.5,137.4l2.4-2.4"/>
	<path id="Layer2_5_MEMBER_1_MEMBER_386_1_STROKES" class="st0" d="M125,134.8l3.1-1.4"/>
	<path id="Layer2_5_MEMBER_1_MEMBER_387_1_STROKES" class="st0" d="M124,139.8l3.1-1.4"/>
	<path id="Layer2_5_MEMBER_1_MEMBER_388_1_STROKES" class="st0" d="M129.6,135.8l-1.1,1.1"/>
	<path id="Layer2_5_MEMBER_1_MEMBER_389_1_STROKES" class="st0" d="M125.6,135.2h-0.3c-0.2,0.1-0.3,0.4-0.3,0.7
		c0,0.3,0.1,0.7,0.3,1.1c0.3,0.6,0.8,0.9,1.2,1"/>
	<path id="Layer2_5_MEMBER_1_MEMBER_390_1_STROKES" class="st0" d="M123.7,139.2c0.2-0.2,0.2-0.5,0-0.9c-0.3-0.5-0.5-0.6-0.8-0.4
		c-0.2,0.1-0.2,0.4,0,0.8C123.2,139.2,123.4,139.4,123.7,139.2z"/>
	<path id="Layer2_5_MEMBER_1_MEMBER_391_1_STROKES" class="st0" d="M129.2,135.3c0.1,0,0.2-0.2,0.2-0.3s-0.1-0.3-0.2-0.5
		c-0.3-0.4-0.5-0.6-0.7-0.4c-0.1,0-0.1,0.2-0.1,0.3c0,0.2,0,0.4,0.1,0.5C128.6,135.3,128.9,135.5,129.2,135.3z"/>
	<path id="Layer2_5_MEMBER_1_MEMBER_392_1_STROKES" class="st0" d="M121.9,137.4c-0.3,0.4-0.3,0.9,0.1,1.6c0.4,0.6,0.8,0.9,1.2,0.9"
		/>
	<path id="Layer2_5_MEMBER_1_MEMBER_393_1_STROKES" class="st0" d="M124.4,134.8l-0.1,0.1"/>
	<path id="Layer2_5_MEMBER_1_MEMBER_394_1_STROKES" class="st0" d="M121.9,137.4l2.4-2.4"/>
	<path id="Layer2_5_MEMBER_1_MEMBER_395_1_STROKES" class="st0" d="M124.4,134.8l3.1-1.4"/>
	<path id="Layer2_5_MEMBER_1_MEMBER_396_1_STROKES" class="st0" d="M123.2,139.1c0.1-0.2,0.1-0.4-0.1-0.7c-0.1-0.2-0.2-0.3-0.3-0.3"
		/>
	<path id="Layer2_5_MEMBER_1_MEMBER_397_1_STROKES" class="st0" d="M128.6,135.2c0.1-0.2,0.1-0.5-0.1-0.7c-0.1-0.2-0.2-0.3-0.3-0.3"
		/>
	<path id="Layer2_5_MEMBER_1_MEMBER_398_1_STROKES" class="st0" d="M128.3,133.4h-0.6"/>
	<path id="Layer2_5_MEMBER_1_MEMBER_399_1_STROKES" class="st0" d="M123.8,139.9h-0.6"/>
	<path id="Layer2_5_MEMBER_1_MEMBER_400_1_STROKES" class="st0" d="M128.2,138c-0.2,0.1-0.5,0.1-0.8-0.1c-0.3-0.2-0.5-0.4-0.8-0.8
		c-0.2-0.4-0.3-0.7-0.3-1.1c0-0.3,0.1-0.6,0.3-0.7c0.2-0.1,0.5-0.1,0.8,0.1c0.3,0.2,0.5,0.4,0.8,0.8c0.2,0.4,0.3,0.7,0.3,1.1
		C128.5,137.6,128.4,137.8,128.2,138z"/>
	<path id="Layer2_5_MEMBER_1_MEMBER_401_1_STROKES" class="st0" d="M126.9,135.2h-1.4"/>
	<path id="Layer2_5_MEMBER_1_MEMBER_402_1_STROKES" class="st0" d="M126.5,138h1.4"/>
	<path id="Layer2_5_MEMBER_1_MEMBER_403_1_STROKES" class="st0" d="M127.9,137.5c-0.1,0.1-0.3,0.1-0.5,0c-0.2-0.1-0.4-0.3-0.5-0.5
		c-0.3-0.6-0.3-0.9,0-1.1c0.1-0.1,0.3-0.1,0.5,0c0.2,0.1,0.4,0.3,0.5,0.5C128.2,136.9,128.2,137.2,127.9,137.5z"/>
	<path id="Layer2_6_MEMBER_0_MEMBER_7_1_STROKES" class="st0" d="M307.2,37.8l-4.7,2.8l-5.5,3.9l-4.5,4.6l-7,8l-2.8,2.3l-14.6,8.2
		 M273.4,71.2l0.2,0.1v0.1l0.2,0.1l0.3,0.3l0.1,0.1l0.1,0.1v0.1l0,0l0.1,0.2l0,0l0.3,0.7l0.1,0.3v0.1l0.1,0.3V74v0.6v0.3l0,0V75
		l-0.1,0.1v0.1l-0.1,0.1l-0.1,0.1 M280.2,67.8l0.2,0.1V68l0.2,0.1l0,0l0,0l0.1,0.2l0.1,0.1l0,0l0.2,0.2v0.1l0,0l0.1,0.2l0,0l0.1,0.3
		l0,0l0.1,0.3l0.1,0.3l0,0V70l0.1,0.4v0.7l-0.1,0.2l0,0 M309.2,49.9l-1.1,1.9l-1.9,2.5l-5.3,5.3l-3.5,2.8l-12.8,9.2l-15.8,8.8
		 M241,98.7l41.2-21.1l8.9-5.7l12.4-9.5l3.1-2.8l4.9-5.7l2.1-3.6l1.6-4 M310.5,41.2l-9.4,6.3"/>
	<path id="Layer2_6_MEMBER_0_MEMBER_9_1_STROKES" class="st0" d="M238.6,42.8l-0.2,0.3v0.1v0.1v0.1v0.7v0.1v0.3 M239.8,44.2
		l-1.2-0.2l-0.1-0.2l0.1-0.4"/>
	<path id="Layer2_6_MEMBER_0_MEMBER_10_1_STROKES" class="st0" d="M236.2,66.6c-0.3-0.2-0.5-0.3-0.8-0.3l-0.8,0.5l0.6,1.5l1.3-0.8
		L236.2,66.6z M235.2,68.3l0.6,1.5l1.3-0.8l-0.6-1.5 M234.6,66.8l-1.6,0.9l0.6,1.6l1.6-0.9 M233.8,72.7L233.8,72.7l0.9-0.5l-0.5-1.4
		l-1.4,0.8l0.3,0.9C233.4,72.7,233.6,72.8,233.8,72.7z M233.6,69.3l0.6,1.5l1.6-0.9l0.5,1.4l0.7-0.4c0.3-0.1,0.4-0.5,0.4-0.9
		l-0.3-0.8 M234.7,72.2l1.6-0.9 M233,67.7l-1,0.6c-0.2,0.1-0.3,0.4-0.3,0.9l0.4,0.9l1.5-0.8 M232.7,71.6l-0.6-1.5"/>
	<path id="Layer2_6_MEMBER_1_MEMBER_19_1_STROKES_1_" class="st0" d="M104.9,39.3l-1.4,0.8"/>
	<path id="Layer2_6_MEMBER_1_MEMBER_20_1_STROKES_1_" class="st0" d="M105.1,38.9l-0.1-0.3l-0.1-0.2l-0.2-0.3l-0.1-0.1l-0.1-0.1l0,0
		"/>
	<path id="Layer2_6_MEMBER_1_MEMBER_21_1_STROKES_1_" class="st7" d="M105,39.3L105,39.3"/>
	<path id="Layer2_6_MEMBER_1_MEMBER_22_1_STROKES_1_" class="st0" d="M97.6,39.2L97.1,39h-0.4l-0.2,0.1l-0.1,0.1l-0.1,0.1l-0.1,0.1
		l-0.1,0.2 M97.9,41.4L97.9,41.4l-0.2,0.2l-0.2,0.1l-0.4,0.1h-0.2l0,0l-0.2-0.1l0.2,0.1"/>
	<path id="Layer2_6_MEMBER_1_MEMBER_23_1_STROKES_1_" class="st0" d="M101.2,40.7l1.4,0.3l1-0.6"/>
	<path id="Layer2_6_MEMBER_1_MEMBER_24_1_STROKES_1_" class="st7" d="M101,39.8l0.4,0.1l0.1,0.1v0l0.2,0.7 M101.2,39.9L101.2,39.9
		L101.2,39.9"/>
	<path id="Layer2_6_MEMBER_1_MEMBER_25_1_STROKES_1_" class="st0" d="M95.7,40.8L95.6,41c0,0.2,0.1,0.3,0.3,0.3"/>
	<path id="Layer2_6_MEMBER_1_MEMBER_26_1_STROKES_1_" class="st0" d="M95.8,41.3l0.9,0.4"/>
	<path id="Layer2_6_MEMBER_1_MEMBER_27_1_STROKES_1_" class="st0" d="M96.1,39.7l-0.4,1.1"/>
	<path class="st2" d="M96.8,39.6l-0.2,0.3l-0.4,1l0,0v0.3l0.1,0.1l0.1,0.1l1,0.4h0.5l0.2-0.1l0.2-0.3l0.4-0.3l1.7-0.8l0.1-0.2
		l0.3,0.2l-0.1,0.2l0.1,0.2l0.1,0.1h0.3l0.5-0.1l0.8,0.4l0.9-0.5v-0.3l1.2-0.8l0.1-0.4v-0.3l-0.1-0.1l-0.2-0.3l-0.3-0.2h-0.3l0,0
		l-0.2-0.6l-0.2-0.3l-0.3-0.3l-0.2-0.1h-0.2h-0.2l-0.2,0.2l-0.6,0.3v-0.1h-0.3l-0.2,0.1v0.1v0.3l-0.6,0.4h-0.2l-0.2,0.2l-1.8,1
		L98,39.5l-0.6-0.2l-0.3,0.1L96.8,39.6z"/>
	<path id="Layer2_6_MEMBER_1_MEMBER_29_1_STROKES_1_" class="st9" d="M101.1,37l0.1,0.3l0,0l0,0l-0.3,0.2h0.1h0.1l0.1,0.1l0.1,0.1
		l0.3,0.3l0.2,0.4v0.2V39l-0.1,0.2l-0.3,0.1v0.1l-0.1,0.1l-0.1,0.1l0.3,0.1l0.1,0.1l0.1,0.7v0.1h-0.1l0,0l-0.4-0.1l-0.2,0.1l0,0
		h-0.1h-0.1l-0.1-0.2v-0.2v-0.1l0,0l0,0l0.1-0.1v-0.2v-0.1l-0.5,0.3l-0.1,0.1h-0.1l-0.5,0.3l-0.2,0.1l-0.1,0.1l-0.2,0.1l-0.2,0.1
		L98.3,41h-0.2l-0.4,0.1l-0.6,0.1H97h-0.1l-0.1-0.1L96.7,41l-0.1-0.1l-0.1-0.3l-0.1-0.3v-0.2l0.1-0.3l0.1-0.1l0.1-0.1l0.1-0.1
		l0.1-0.1l0.7-0.2l0.5-0.2l0.8-0.4l0.3-0.2h-0.1L100,38l0.1-0.1h0.1l0.1-0.1h0.1h0.1l0.4-0.2 M102.6,36.4L102.6,36.4 M102.6,36.4
		l0.3-0.1l0,0h0.1l0.1,0.1l0.1,0.1l0.2,0.1l0.2,0.3l0.2,0.4v0.5l-0.1,0.2h-0.1v0.1h-0.1l0,0h-0.1l-1.5,0.9l0.1,0.1l1-0.5h0.3
		l0.4,1.6 M102.4,36.6L102.4,36.6L102.4,36.6l0.2-0.1 M102.8,36.4L102.8,36.4 M102.5,36.6l-0.7,0.4v0.2 M102.6,41l-0.4-1.6l-0.3-0.1
		l0,0 M103.2,38.8l-1,0.6 M101.6,40.5L101.6,40.5L101.6,40.5L101.6,40.5L101.6,40.5L101.6,40.5z M100.3,40.1L100.3,40.1l0.1-0.2
		v-0.3l-0.1-0.4l-0.1-0.2l-0.3-0.3l-0.1-0.1l-0.3-0.1h-0.1h-0.1 M101.4,39.4L101.4,39.4 M100.9,39.8L100.9,39.8L100.9,39.8
		L100.9,39.8L100.9,39.8z M101.3,39.9L101.3,39.9L101.3,39.9L101.3,39.9L101.3,39.9L101.3,39.9L101.3,39.9L101.3,39.9z M100.8,39.8
		l0.3-0.1 M101,40.7L101,40.7L101,40.7l0.1-0.2v-0.1l-0.1-0.1l-0.1-0.1h-0.1h-0.1 M101.5,40.5l-0.3,0.1 M101,39.9L101,39.9"/>
	<path class="st13" d="M198.7,45.8l-1.8-1.1l-10,5.8l-0.3,0.1v-1.1l-1.8-1l-6.2,11l8,4.9v-3.3l12-7v-8.3 M193.7,50.6l0.5-0.3l-1,4.8
		l-0.5,0.3l-0.9-3l-0.9,4l-0.5,0.3l-1-3.6l0.5-0.3l0.8,3l0.8-3.9l0.5-0.3l0.8,2.9L193.7,50.6 M196.7,49h0.2l0.3,0.1l0.2,0.2l0.1,0.3
		l0.1,0.4v0.5l-0.1,1l-0.1,0.5l-0.2,0.4l-0.3,0.4l-0.6,0.5l-1.7,0.9V50l1.8-1l0.2-0.1L196.7,49 M189.3,53.2v0.5l-2,1.2v1.3l1.8-1.1
		v0.5l-1.8,1.1v1.9l-0.5,0.3v-4.2L189.3,53.2 M196.7,49.7h-0.1h-0.2l-1.2,0.7v3.2l1.2-0.7l0.2-0.2l0.3-0.5l0.2-0.6l0.1-0.8v-0.5
		v-0.1l-0.1-0.1l-0.1-0.2L196.7,49.7z"/>
	<path id="Layer2_7_MEMBER_1_1_STROKES" class="st0" d="M180.3,60.6l6.2-11"/>
	<path id="Layer2_7_MEMBER_2_1_STROKES" class="st0" d="M186.5,49.6v3.3l12-7v8.3"/>
	<path id="Layer2_7_MEMBER_3_1_STROKES" class="st0" d="M184.8,48.4l-6.2,11"/>
	<path id="Layer2_7_MEMBER_4_1_STROKES" class="st0" d="M198.5,45.8l-1.8-1.1l-10,5.8"/>
	<path id="Layer2_7_MEMBER_5_1_STROKES" class="st0" d="M180.3,60.6l-1.8-1"/>
	<path id="Layer2_7_MEMBER_6_1_STROKES" class="st0" d="M186.5,49.6l-1.8-1"/>
	<path id="Layer2_7_MEMBER_7_1_STROKES" class="st0" d="M180.3,60.6l6.2,3.9"/>
	<path id="Layer2_7_MEMBER_8_1_STROKES" class="st0" d="M186.5,64.4v-3.3l12-7"/>
	<path id="Layer2_8_1_STROKES_1_" class="st15" d="M91.9,30.6c2.5-2.5,5.5-3.7,9-3.7s6.5,1.2,9,3.7s3.7,5.5,3.7,9s-1.2,6.5-3.7,9
		s-5.5,3.7-9,3.7s-6.5-1.2-9-3.7s-3.7-5.5-3.7-9S89.4,33.1,91.9,30.6z"/>
	<path class="st13" d="M225.3,19.9l-1.9,7.6c-30.2-8.2-59.2-8.7-87.3-1.6c-8.9,2.2-16.6,4.7-23.1,7.7c5.5-2.3,12.1-4.2,20-5.6
		c26.3-4.6,55.6-0.8,87.5,11.7l-1.9,7.6l17-10.3L225.3,19.9z"/>
	<path id="Layer2_9_1_STROKES" class="st16" d="M225.3,19.9l-1.9,7.6c-30.2-8.2-59.2-8.7-87.3-1.6c-8.9,2.2-16.6,4.7-23.1,7.7
		c5.5-2.3,12.1-4.2,20-5.6c26.3-4.6,55.6-0.8,87.5,11.7l-1.9,7.6l17-10.3L225.3,19.9z M113.1,33.4c-3.6,1.6-6.8,3.2-9.6,5"/>
	<path id="Layer2_10_MEMBER_1_1_STROKES" class="st17" d="M197.4,128.4h61.3v20.2h-61.3V128.4z"/>
</g>
<text transform="matrix(1 0 0 1 208.7138 141.4349)" class="st18 st19">2141-P2</text>
</svg>
