<?xml version="1.0" encoding="utf-8"?>
<!-- Generator: Adobe Illustrator 24.3.0, SVG Export Plug-In . SVG Version: 6.00 Build 0)  -->
<svg version="1.1" id="Ebene_1" xmlns="http://www.w3.org/2000/svg" xmlns:xlink="http://www.w3.org/1999/xlink" x="0px" y="0px"
	 viewBox="0 0 349.1 161" style="enable-background:new 0 0 349.1 161;" xml:space="preserve">
<style type="text/css">
	.st0{fill:#CCCCCC;}
	.st1{fill:#FF9900;}
	.st2{fill:#0099FF;}
	.st3{fill:none;stroke:#1D1D1C;stroke-width:0.5;stroke-miterlimit:5;}
	.st4{fill:none;stroke:#1D1D1C;stroke-width:0.25;stroke-miterlimit:5;}
	.st5{fill:none;stroke:#B1B1B1;stroke-width:0.5;stroke-miterlimit:5;}
	.st6{fill:#FF0000;}
	.st7{fill:none;stroke:#FFFFFF;stroke-width:0.25;stroke-miterlimit:5;}
	.st8{fill:#FFFFFF;}
	.st9{fill:#1D1D1C;}
	.st10{opacity:0.2;fill:#0099FF;enable-background:new    ;}
	.st11{fill:none;stroke:#0099FF;stroke-width:1;stroke-miterlimit:10.0018;}
	.st12{fill:none;stroke:#FFFFFF;stroke-miterlimit:5;}
</style>
<path class="st0" d="M94.4,138.1l-0.2,0.1l-0.1,0.1l-0.2,0.1l-0.1,0.1l-0.2,0.1l-0.1,0.2l-0.1,0.1l-0.1,0.2l0,0.1V149l-0.5,0.4
	l-0.2,0.2l-0.2,0.6l-0.1,0.1v1.5l0.1,0.2l0.1,0.2l0.3,0.4l0.8,0.4l0.9,0.2h1.2l0.8-0.2l0.9-0.4l0.3-0.4l0.2-0.4v-1.5l-0.1-0.4
	l-0.2-0.4l-0.6-0.5l-0.2-0.1v-10.1l0-0.1v-0.1l-0.1-0.2l-0.2-0.2l-0.2-0.1l-0.2-0.1l-0.3-0.1l-0.2-0.1h-0.9L94.4,138.1 M98.1,132.5
	l-0.4-0.4l-0.7-0.3l-0.6-0.2l-0.9-0.2h-0.7l-0.9,0.2l-0.7,0.2l-0.7,0.3l-0.2,0.2l-0.4,0.5l-0.1,0.2l0,0.3v0.8l0.1,0.3l0.1,0.1v0.1
	l0.1,0.2l0.1,0.1l0.1,0.1l0.1,0.1l0.1,0.1l0.1,0.1l0.1,0.1l0.7,0.4l0.2,0.1h0.1l0.2,0.1l0.5,0.1h0.2l0.2,0.1h1.3l0.2-0.1h0.2
	l0.4-0.1l0.2-0.1h0.2l0.8-0.4l0.1-0.1l0.1-0.1l0.2-0.2l0.3-0.8v-0.8l-0.1-0.6L98.1,132.5 M95.8,133.2L95.8,133.2l0.2,0.1l0.8,0.4
	l0,0.1l-0.2,0.3l-0.2,0.1l-0.1,0l-0.2,0.1h-0.2l-0.4,0.1h-0.7l-0.4-0.1h-0.2l-0.5-0.3l0-0.1l-0.1-0.1l0.2-0.2h0l0.1-0.1l0.1-0.1
	l0.1,0H94l0.2-0.1v-0.1h0.1l0.1-0.1h0.2l0.1-0.1h0.1l0,0h0.7l0,0h0.1l0,0.1H95.8 M102.4,109.2l-1.6,0.7l-0.1,0.1l-10.6,6.1l-1,0.9
	l-0.2,0.3l-0.1,0.2l-0.2,0.6l0,2.1l0.1,0.4l0.3,0.7l0.5,0.5l0.9,0.7l1.8,0.8l0.5,0.1l0,0.2l0,1.1l0.3,1.6l0.5,1.3l0.5,0.6l0.9,0.8
	v0.1l9,5.2l0.7,0.3l1.2,0.2l1.5-0.2l0.8-0.2l1.6-0.7l1.6-1.1l1.5-1.4l2-2.6l1.6-3l1-3l0.3-1.9v-1.9l-0.3-1.6l-0.3-0.7l-0.7-1.2
	l-0.4-0.5l-9.6-5.6l-1.2-0.5l-1.4,0L102.4,109.2 M102.6,126.7l0.4-1.8l2.4-5.1v-0.5l0-0.1V119h-0.1l0-0.1v-0.1h-0.1v-0.1h-0.1l0,0
	H105l-0.1-0.1h0l-0.1,0.1h-0.1l3.2-1.9l-0.8,2.9l-0.8,1.9l-2.3,3.4L102.6,126.7 M92.4,101l-0.5,0.6l-0.1,0.1l-0.2,0.4v1.1l0,0.1v0.1
	l0.1,0.1v0.1l0.1,0.1l0.2,0.1l0,0.1l0.1,0.1l0.1,0.1l0.1,0.1l0.2,0.2l0.8,0.3l0.9,0.2h0.3l0.2,0.1h0.3l0.2-0.1h0.3l0.9-0.2l0.9-0.4
	l0.1-0.1l0.1-0.1l0.1-0.1l0.1-0.1l0.1-0.1l0.1-0.1l0-0.1l0.1-0.1v-0.1l0.1-0.1v-0.1l0-0.1v-1.1l-0.2-0.4l-0.1-0.1l-0.5-0.6l-1.3-0.6
	l-1-0.1h-0.7l-1,0.1L92.4,101 M93.4,102.5l0-0.2l0.6-0.2l0.2-0.1h0l0.2-0.1h0.1l0.1-0.1h0.9l0.1,0.1l1.1,0.3l0,0.2l-0.1,0.2
	l-0.4,0.2l-0.1,0.1l-0.4,0.1l-0.3,0.1h-0.7l-0.6-0.1l-0.5-0.3l-0.1-0.1L93.4,102.5 M95.1,91.8h-0.4L93.5,92l-0.8,0.3l-0.2,0.2L92,93
	l-0.2,0.4l-0.1,0.2V94h0v0.5l0,0.3l0.1,0.1V95l0.2,0.2l0,0.1l0.1,0l0.1,0.1l0.1,0.1l0.2,0.1l1.2,0.5H94l0.2,0.1h0.7l0.2,0.1l0.2-0.1
	h0.7l0.2-0.1h0.2l0.6-0.2l0.1-0.1l0.2-0.1l0.5-0.2l0.2-0.1l0.1-0.1l0.1,0l0.1-0.1l0.3-1.4v-0.4l0-0.2l-0.2-0.4l-0.5-0.5l-1-0.5
	l-0.9-0.2h-0.6V91.8 M93.5,94.1l-0.1-0.3l1.4-0.3h0.4v-0.1h0.2l0.1,0h0.2l0.1,0.1h0.1l0.1,0.1h0.1l0.1,0.1h0.1l0.1,0.1l0.1,0.1
	l0.2,0.1v0.1h0V94l0,0.1l-0.1,0.1l-0.2,0.2l-0.5,0.2l-0.3,0.1h-0.7l-0.3-0.1l-0.5-0.2l-0.2-0.2L93.5,94.1 M48,115l-0.3,0.1l-0.2,0.2
	l-0.1,0.1l-0.2,0.1l-0.1,0.2v10.2l-0.2,0.2l-0.3,0.2l-0.1,0.1l-0.2,0.2l0,0.2l-0.1,0.1l0,0.3v1.7l0.1,0.2l0.2,0.2l0.5,0.4l0.6,0.3
	l0.8,0.1h1.2l0.8-0.1l0.6-0.3l0.5-0.4l0.2-0.2l0.1-0.2l0-1.7l-0.3-0.8l-0.6-0.5l-0.2-0.1v-10.1l-0.2-0.4l-0.1-0.1l-0.2-0.1l-0.2-0.1
	l-0.1-0.1l-0.3-0.1l-0.1-0.1l-0.2-0.1h-0.8L48,115 M51.7,107.5l-0.3-0.3l-1.1-0.5l-0.9-0.2l-1-0.1l-1.3,0.2l-0.8,0.4l-0.2,0.1
	l-0.5,0.4l-0.2,0.4l0,0.2v1l0,0.1v0.1l0.2,0.3l0,0l0.2,0.2l0.2,0.2l0.3,0.2l1,0.4l0.1,0.1l0.5,0.1H48l0.3,0H49l0.3,0h0.2l0.8-0.2
	l0.1,0l0.2-0.1l0.8-0.4l0.7-1.1v-0.8l-0.1-0.4l-0.1-0.2L51.7,107.5 M52,58l-0.2-0.3l-0.6-0.5L50.6,57L50,56.8l-1.3-0.2l-1,0.1
	L46.8,57l-0.5,0.2l-0.6,0.5l-0.2,0.2l-0.2,0.5v1l0.1,0.2v0.1l0,0.1v0.1l0.1,0.1l0,0.1l0.1,0.2l0.1,0.1l0.1,0.1l0.1,0.1l0.3,0.2
	l0.8,0.3l1,0.2h1.3l1-0.2l0.8-0.3l0.3-0.2l0.7-1.1v-0.8L52,58 M49.3,58.4h0.2l0,0.1h0.1l0.1,0.1h0.1l0.1,0l0.1,0.1l0.1,0.1h0
	l0.2,0.2l-0.3,0.3l-1,0.3h-0.7l-1-0.3L47.1,59l0.2-0.2h0l0.1-0.1h0l0.1-0.1h0l0.1,0h0l0.2-0.1H48l0.1-0.1h0.2l0,0h0.2l0.1-0.1H49
	l0.1,0.1L49.3,58.4L49.3,58.4 M50.9,48.9L50,48.6l-1-0.2h-0.6l-1,0.2l-0.9,0.2l-0.5,0.3l-0.5,0.5l-0.2,0.6v1l0.1,0.2v0.1l0,0.1v0.1
	l0.2,0.4l0.1,0.1l0.2,0.2l0.1,0l0.1,0.1l0.7,0.4l0.4,0.1l0.1,0l0.5,0.1h1.6l0.5-0.1l0.2,0l0.3-0.1l0.8-0.4l0.1-0.1l0.1,0l0.2-0.2
	l0.1-0.1l0.3-0.5v-0.2l0.1-0.2v-0.8L52,49.8l-0.2-0.3L50.9,48.9 M48.2,51.4l-0.7-0.2L47.3,51l-0.2-0.2l1.2-0.6h0.8l0.1,0l0.1,0.1
	h0.2l0.1,0.1h0.2l0.1,0.1l0.5,0.3l0,0.1L50.1,51l-0.2,0.2l-0.7,0.2H48.2z"/>
<path class="st1" d="M86.3,111.1h0.4l0.2,0.1l0.1,0.1h0.2l0.2-0.1l0.1-0.1V111l0.1-0.1l-0.4-0.7l-6.2-3.6L81,106l-0.6,1.3l-0.5,0.8
	l6.2,3.6l0-0.1v-0.3l0-0.1l0.1-0.1h0L86.3,111.1z"/>
<path class="st2" d="M54.5,66.3l-0.6-0.6L52.5,65l-1.1-0.4L49,64.2h-0.6l-1.9,0.2l-0.3,0.1l-0.3,0l-0.8,0.2l-8.8,5l-0.5-0.3
	l-0.6-0.2L34,69.3l-0.7,0.2l-1.4,0.4l-1.5,0.9L29,72l-2,2.2L26.4,75L25,77.8l-1.1,3.8l-0.2,1.8l0,0.8l0.3,1.5l0.2,0.7l0.3,0.6
	l0.4,0.5l0.4,0.4l1.3,0.8l0.5,0.9l1,0.8l9.7,5.6l1.3,0.2h0.4L58.5,107l1.1,0.4l1.3,0.1l0.7-0.1l1.5-0.5l0.8-0.4l1.4-1l1.5-1.4
	l10,5.8l0.2,0.1h0.7l1.1-0.5l1.1-1v-0.1l0.1-0.1l0.5-0.8L81,106l0.2-1v-0.7l-0.1-0.5l-0.1-0.2l-0.2-0.4l-0.2-0.1l-10-5.8l0.5-2
	l0.1-0.9v-1.7l-0.3-1.5l-0.6-1.2L70,89.4L69.6,89L50.3,77.8L50,77.2l-0.4-0.6l-1-0.8l-0.3-0.2h-0.1v-0.1h-0.1v-0.3l0.5-0.8l5.2-3
	l0.3-0.3l0.4-0.5L55,70l0.1-0.7v-1.4l0-0.2v-0.2L55,67.4l-0.3-0.7L54.5,66.3 M49,67.7l0.5,0.1l0.8,0.4v0.1l0,0.1l-0.1,0.1l-0.1,0.1
	L50,68.6l-0.1,0.1l-0.2,0.1l-0.1,0.1l-0.2,0l-0.7,0.1h-0.3l-0.7-0.1l-0.2,0l-0.1-0.1l-0.2-0.1l-0.1-0.1l-0.1-0.1l-0.1-0.1l-0.1-0.1
	v0l0.3-0.3l0.5-0.2L49,67.7z"/>
<path id="Layer3_5_MEMBER_1_1_STROKES" class="st3" d="M80.8,106.7l0.2-0.6l0.2-1v-0.6l-0.1-0.6l-0.1-0.2l-0.2-0.4l-0.2-0.2
	l-0.4-0.2l-0.4-0.1h-0.3l-0.8,0.2l-0.8,0.5l-1,1l-0.6,1l-0.4,1.1l-0.2,0.7l0,1l0,0.3l0.2,0.5l0.1,0.2l0.2,0.2l0.3,0.3l0.2,0.1
	L77,110h0.5l0.3,0l0.2-0.1l0.8-0.4l0.3-0.2l0.8-0.7l0.1-0.2"/>
<path id="Layer3_5_MEMBER_2_1_STROKES" class="st3" d="M66.4,92.6l-0.3,0L65.2,93l-0.5,0.2l-1.4,1l-0.9,0.9l-1.1,1.6l-1,2.4
	l-0.3,1.2l-0.1,1.1l0.1,0.7 M70.7,97.3l0.4-1.9l0.1-0.9v-1.7l-0.3-1.5l-0.6-1.2L70,89.5l-0.5-0.4l-0.5-0.3l-0.5-0.2l-0.6-0.2
	l-0.6-0.1l-1.4,0.1l-1.4,0.5l-1.4,0.8l-0.7,0.6l-1.4,1.3l-1.3,1.6L58,95.8l-1.1,2.8l-0.4,1.9l-0.1,1.8l0.1,1.6l0.4,1.4l0.7,1.1
	l0.4,0.4l0.5,0.3l1.1,0.4l1.3,0.1l0.7-0.1l1.4-0.5l0.7-0.4l1.4-1l1.4-1.3 M36.2,69.8l-0.3-0.2l-0.6-0.2L34,69.5l-0.7,0.1l-1.4,0.5
	l-1.5,0.9L29,72.1l-2,2.2l-0.6,0.9L25,77.9l-1.1,3.8l-0.2,1.8l0,0.8l0.3,1.5l0.2,0.7l0.3,0.6l0.4,0.5l0.4,0.4l0.5,0.3 M28.2,90.4
	l-0.9-0.8l-0.4-0.6l-0.3-0.6l-0.2-0.7L26.1,87l-0.2-1.7l0.2-1.9l0.5-2l0.7-2.1l1-2l1.9-2.7l2.2-2.2l1.6-1.1"/>
<path id="Layer3_5_MEMBER_3_1_STROKES" class="st3" d="M47.4,76.2L47.4,76.2l0-0.1V76l0-0.1v-0.3l0-0.1v-0.1l0,0v-0.1l0-0.1v0l0-0.1
	l0,0v-0.1l0,0v-0.1l0,0l0-0.1l0,0l0-0.1l0,0l0-0.1l0.1-0.1l0-0.1 M50.4,78L50,77.4l-0.4-0.6l-1-0.8l-0.3-0.1h0v0h0v-0.1h0v-0.1l0,0
	v-0.3l0,0v-0.1l0,0v-0.1l0,0v-0.1l0.1-0.1v0l0,0v0h0v0l0.1-0.1v0h0v0h0l0,0v0 M39.8,96.2l-0.6,0l-1.3-0.2l-0.6-0.3l-1-0.8l-0.4-0.6
	L35.3,93l-0.2-0.8l-0.2-1.7l0.4-2.9l1-3l1-2l1.9-2.7l2.2-2.2l1.6-1.1"/>
<path id="Layer3_5_MEMBER_4_1_STROKES" class="st3" d="M104.2,120h0.2v0h0v0h0l0,0v0.1h0v0.1l0,0v0.1l0,0v0.1l0,0v0.1h0v0l0,0v0.1
	l-1.3,2.4l-1,3.1l-0.3,2v1.8l0.3,1.6l0.6,1.3l0.4,0.6l0.5,0.5l0.5,0.4l0.6,0.3l0.6,0.2l0.7,0.1l1.5-0.1l0.8-0.2l1.6-0.7l1.6-1.1
	l1.5-1.4l2-2.6l1.6-2.9l1-3l0.3-2V119l-0.3-1.6l-0.3-0.7l-0.7-1.2l-0.5-0.5l-0.5-0.4l-0.6-0.3l-0.6-0.2l-1.4-0.1l-0.8,0.1l-0.8,0.2
	l-1.6,0.7 M90.5,116l-0.4,0.2l-0.6,0.5l-0.4,0.5l-0.2,0.4l-0.1,0.2l-0.1,0.2l0,0.2l-0.1,0.2v0.2l0,0.2l0,0.2v0.2l0.2,0.6l0.3,0.5
	l0.4,0.5l0.2,0.1l0.2,0.2l0.6,0.4l0.5,0.2l0.3,0.1l0.5,0.2l1.4,0.4l1.2,0.2h1.3l0.6-0.1l1.2-0.2l0.6-0.2l1-0.4l0.5-0.2 M49.1,74.5
	l-0.5,0.2"/>
<path id="Layer3_5_MEMBER_5_1_STROKES" class="st3" d="M105.1,120.6l-0.9,1.5l-1.2,2.8l-0.5,1.9l-0.2,1.8l0.1,1.6l0.4,1.4l0.3,0.6
	l0.4,0.6l0.4,0.5l0.5,0.4l0.5,0.3l0.6,0.2l0.6,0.1l1.3-0.1l0.7-0.2l1.5-0.6l1.5-0.9l1.4-1.3l1.3-1.5l1.7-2.6l1.2-2.8l0.5-1.9
	l0.2-1.8l-0.1-1.7l-0.4-1.4l-0.3-0.6l-0.4-0.6l-0.4-0.5l-1-0.7l-0.6-0.2l-1.3-0.1l-0.7,0.1l-1.4,0.4l-1.1,0.6 M88.7,120.4l0.1,0.3
	l0.4,0.7l0.4,0.5l0.9,0.7l1,0.5l0.8,0.3l1.5,0.3l0.6,0.1h1.3l2.1-0.3l1.1-0.4l0.7-0.4 M88.7,119.5l0.2,0.6l0.2,0.4l0.2,0.3l0.5,0.5
	l0.4,0.3l0.2,0.1l0.2,0.2l0.7,0.4l0.5,0.2l1.8,0.4l2.2,0.1l2.1-0.3l1.1-0.4l0.7-0.4 M99.6,121.2l10.2-5.9"/>
<path id="Layer3_5_MEMBER_6_1_STROKES" class="st3" d="M67.7,92.9v0.2l0,0.1v0.2l0,0.1v0.1l0.2,0.7l0.1,0.2l0,0.1l0.1,0.2l0,0.1
	l0.1,0.1l0.2,0.5l0.2,0.3l0.2,0.3l0.1,0.1l0.1,0.1l0.2,0.2l0.1,0.1l0.1,0.1l0.1,0.1h0l10.7,6.2 M115.5,114.7l-9-5.2l-0.6-0.3
	l-0.6-0.2l-1.4-0.1l-1.5,0.3l-1.6,0.7l-0.1,0.1L90.6,116 M105.2,120.5L105.2,120.5L105.2,120.5l0.1-0.1v-0.1l0,0v-0.1l0,0v0l0-0.1
	V120l0,0v-0.1l0,0v-0.5l-0.1-0.1v-0.1h0v0l0,0v0l0,0h0v0l0,0h0l0,0h0l0,0H105l-0.1,0h-0.1l-0.1,0h-0.1l0,0h0l0,0v0h0l-0.1,0
	l-4.9,2.8 M104.6,119L104.6,119L104.6,119 M104.6,119L104.6,119L104.6,119L104.6,119l5.4-3.1 M102.9,126.5l1.2-1.3l1.2-1.6l1.1-1.8
	l0.9-1.9l0.7-2.5 M92.8,123.7l0,1.1l0.3,1.6l0.2,0.7l0.3,0.6l0.4,0.6l0.9,0.8l9.1,5.3 M88.7,120.3v-1.7 M99.6,122.6l4.5-2.6
	 M25.9,88.3l0.8,0.5 M37.3,95.7l-9-5.2 M69.1,88.8L46.2,75.6 M37.8,95.1l20.7,12"/>
<path id="Layer3_5_MEMBER_7_1_STROKES" class="st3" d="M80.9,106.5l0.1-0.2l0-0.2v-0.4l-0.1-0.3l-0.1-0.3l-0.2-0.2l-0.1-0.1
	l-0.1-0.1l-0.3-0.1h-0.3l-0.3,0.1l-0.3,0.2L79,105l-0.5,0.5l-0.2,0.2l-0.4,0.6l-0.3,0.9l-0.1,0.6l0,0.2v0.2l0,0.2l0.1,0.3l0.1,0.1
	l0.1,0.1l0.1,0.1l0.1,0.1l0.3,0.1h0.2l0.3-0.1l0.2-0.1l0.3-0.2l0.3-0.2l0.2-0.2 M79.7,106L79.7,106l-0.1,0h0l-0.1,0h0l-0.2,0.1
	l-0.1,0.1l-0.1,0l-0.2,0.2l-0.1,0.1l-0.1,0.1l0,0.1l-0.1,0.1v0.1l0,0.1l0,0.1v0.2 M64.7,103l-0.2-0.1l-0.1-0.1l-0.1,0l-0.1-0.1
	l-0.7-0.2h-0.1l-0.1,0h-0.1l-0.1,0h-0.3l-0.1,0h-0.1l-0.1,0h-0.3l-0.1,0H62l-0.1,0h-0.1l-0.1,0l-0.1,0l-0.2,0.1l-0.1,0l-0.1,0
	l-0.2,0.1l-0.1,0l-0.1,0.1l-0.1,0l-0.1,0.1l-0.4,0.4l0,0.1l-0.1,0.1l0,0.1l-0.1,0.1l-0.2,0.2l0,0.1L60,104l0,0.1l-0.1,0.1l-0.1,0.3"
	/>
<path id="Layer3_5_MEMBER_8_1_STROKES" class="st3" d="M79.7,106l7.4,4.3 M78.7,107.6l7.5,4.3 M95.4,131.5h-0.7l-0.9,0.2l-0.6,0.2
	l-0.7,0.4l-0.2,0.2l-0.4,0.5l-0.1,0.2l-0.1,0.4l0.1,0.4l0.1,0.2l0.3,0.4l0.4,0.3l0.7,0.4l0.6,0.2l0.9,0.1h0.7l0.6-0.1l0.9-0.2
	l0.7-0.4l0.4-0.3l0.2-0.4l0.1-0.2l0.1-0.4l-0.1-0.4l-0.1-0.2l-0.2-0.3l-0.4-0.3l-0.7-0.4l-0.6-0.2L95.4,131.5z M96.8,133.4l0-0.1
	l-0.1-0.1l0-0.1l-0.1-0.1l-0.1-0.1l-0.1-0.1l-0.1-0.1l-0.1-0.1l-0.3-0.1l-0.5-0.1h-0.7l-0.5,0.1l-0.4,0.2l-0.3,0.2l-0.1,0.1
	l-0.1,0.1l-0.1,0.1l0,0.1v0.2l0,0.1l0.2,0.3l0.1,0.1l0.2,0.2l0.2,0.1l0.2,0l0.2,0.1l0.3,0.1h0.7l0.3-0.1l0.2-0.1l0.2,0l0.2-0.1
	l0.1-0.1l0.1-0.1l0.3-0.3l0-0.1l0.1-0.1l0-0.1V133.4z M64.7,103l11.8,6.9 M37.9,95.2l-0.5-0.3l-0.5-0.4L36.5,94l-0.3-0.6l-0.5-1.3
	l-0.2-1.6l0.1-1.8l0.4-1.8l0.6-1.9l1.4-2.8l1.2-1.7l2.1-2.1l1.4-1.1l0.4-0.2"/>
<path id="Layer3_5_MEMBER_9_1_STROKES" class="st3" d="M96.6,133.8L96.6,133.8l-0.2-0.1l-0.1-0.1l-0.1,0l0,0l-0.1,0l-0.1-0.1h-0.1
	l-0.2-0.1h-0.1l-0.1-0.1h-0.1l-0.1,0h-0.1l-0.1,0h-0.7l-0.1,0h-0.1l-0.1,0h-0.1l-0.1,0l-0.1,0h-0.1l0,0l-0.1,0.1H94l-0.1,0l0,0
	l-0.1,0.1l0,0l-0.1,0l-0.2,0.2 M91.7,133.5v0.8l0.1,0.3l0,0.1l0,0.1l0.1,0.2l0.1,0.1l0.1,0.1l0.1,0.1l0.1,0.1l0.1,0.1l0.1,0.1
	l0.1,0.1l0.6,0.3l0.2,0.1l0.2,0l0.2,0.1l0.5,0.1h0.2l0.2,0.1h0.5l0.2,0l0.2,0h0.5l0.2-0.1h0.2l0.5-0.1l0.2-0.1l0.1,0l0.3-0.1
	l0.5-0.2l0.1-0.1l0.1-0.1l0.1-0.1l0.1-0.1l0.2-0.2 M93.4,149.9v0.2l0.1,0.2l0.2,0.3l0.3,0.2l0.2,0.1l0.7,0.1h0.3l0.2,0l0.5-0.1
	l0.4-0.2l0.2-0.3l0.1-0.2l0-0.2"/>
<path id="Layer3_5_MEMBER_10_1_STROKES" class="st3" d="M98.5,134.3v-0.8 M93.7,140.5L93.7,140.5l-0.2-0.3l-0.1-0.2v1.3l0.1,0.2
	l0.2,0.2l0.1,0.1L94,142l0.5,0.2l0.6,0l0.2,0h0.2l0.6-0.2l0.3-0.2l0.1-0.1l0.1-0.1l0.1-0.1l0-0.1v-1.3l0,0.1l-0.1,0.1l-0.1,0.1
	l-0.1,0.1l-0.3,0.2l-0.4,0.1l-0.2,0l-0.2,0.1h-0.6l-0.2-0.1l-0.2,0l-0.3-0.1L93.7,140.5z M93.4,140v-0.9 M96.7,139.1v1 M96.7,141.4
	v7.8l0.2,0.1l0.3,0.2l0.2,0.2l0.2,0.3l0.1,0.4l-0.2,0.1l-0.5,0.5l-0.4,0.6l-0.1,0.2v1.2l0.2-0.1l0.6-0.3l0.3-0.4l0.2-0.5
	 M97.3,149.5l0.2,0.3l0.1,0.3v0.3l-0.1,0.3l-0.2,0.3l-0.3,0.2l-0.4,0.2l-0.5,0.2l-1,0.1h0.3l0.8,0.1l0.5,0.2 M96.7,150v-0.9
	 M96.6,153.2l-0.2,0.1l-0.8,0.2h-1.2l-0.7-0.2l-0.1,0l-0.2-0.1l-0.6-0.3l-0.3-0.4l-0.1-0.2l0-0.2v-1.4l0-0.2l0.2-0.5l0.1-0.1
	l0.1-0.1l0.1-0.1l0.3-0.2l0.2-0.1v-7.9 M92.4,150.5l0.2,0.1l0.3,0.2l0.5,0.6l0.3,0.5l0.5-0.2l0.5-0.1l0.6,0l-1-0.1l-0.9-0.4
	l-0.3-0.2l-0.2-0.3l-0.1-0.3v-0.3l0.1-0.3l0.1-0.2 M93.4,149.9v-0.8 M93.6,153.2V152"/>
<path id="Layer3_5_MEMBER_11_1_STROKES" class="st3" d="M96.7,118.2l-0.2-0.2l-0.3-0.2l-0.2-0.1l-0.3-0.1l-0.2-0.1l-0.2,0h-0.7
	l-0.2,0l-0.2,0.1l-0.3,0.1l-0.2,0.1l-0.2,0.2l-0.1,0.1l-0.2,0.3l0,0.1v0.2l0,0.1l0.2,0.3l0.1,0.1l0.1,0.1l0.1,0.1l0.1,0.1l0.1,0
	l0.2,0.1l0.6,0.1h0.3l0.6-0.1l0.2-0.1l0.2,0l0.2-0.2l0.1-0.1l0.1-0.1l0.1-0.1l0-0.1l0.1-0.1l0-0.1v-0.2l0-0.1L96.7,118.2L96.7,118.2
	z M93.5,139L93.5,139l0,0.2l0,0.1v0.1l0.1,0.1l0.1,0.1l0.1,0.1l0.3,0.2l0.3,0.1l0.1,0l0.2,0.1h0.2l0.2,0h0.5l0.2,0h0.2l0.2-0.1
	l0.2,0l0.4-0.2l0.2-0.2l0.1-0.1l0.1-0.1l0.1-0.3v-0.1l0-0.1v-0.1l-0.1-0.2l-0.2-0.2l-0.1-0.1l-0.2-0.2l-0.3-0.1l-0.2-0.1l-0.2,0
	h-0.8l-0.3,0.1l-0.2,0.1l-0.1,0l-0.2,0.1l-0.1,0.1l-0.1,0.1l-0.2,0.2l-0.1,0.1L93.5,139z M96.7,142.7l0,0.1l-0.1,0.1l-0.1,0.1
	l-0.1,0.1l-0.5,0.2l-0.2,0.1l-0.6,0.1H95l-0.6-0.1l-0.2-0.1l-0.2-0.1l-0.2-0.1l-0.2-0.1l-0.1-0.1l-0.1-0.1 M96.7,144l-0.1,0.1
	l-0.1,0.1l-0.1,0.1l-0.5,0.2l-0.2,0.1l-0.6,0.1H95l-0.6-0.1l-0.2-0.1l-0.2-0.1l-0.2-0.1l-0.2-0.1l-0.1-0.1l-0.1-0.1 M97.8,151.9
	v-1.4"/>
<path id="Layer3_5_MEMBER_12_1_STROKES" class="st3" d="M96.7,118.9l-0.1-0.1l-0.1,0l0-0.1h0l-0.1-0.1h-0.1l-0.1-0.1l-0.2-0.1h-0.1
	l-0.1-0.1h-0.1l-0.1,0h-0.1l-0.1,0h-0.2l-0.1,0h-0.3l-0.1,0h-0.2l-0.1,0h-0.1l-0.1,0h-0.1l-0.1,0l-0.1,0h0l-0.2,0.1l0,0h-0.1"/>
<path id="Layer3_5_MEMBER_13_1_STROKES" class="st3" d="M43,76.6l10.4-6l0.2-0.2l0.2-0.1l0.5-0.5l0.5-0.7l0.2-0.3l0-0.2l0.1-0.2
	v-0.2l0-0.2l0-0.2v-0.2l0-0.2l-0.1-0.3l-0.2-0.4l-0.2-0.3l-0.6-0.6l-1.3-0.8l-1.1-0.4L49,64.3h-0.6l-1.2,0.1l-0.6,0.1l-0.3,0.1
	L46,64.7L45.2,65l-0.3,0.1L34,71.3 M47.7,67.2l-0.2,0.1l-0.2,0.2l-0.2,0.2l0,0.1L47,67.9l0,0.1v0.2l0.1,0.2l0,0.1l0.1,0.1l0.1,0.1
	l0.1,0.1l0.1,0.1l0.1,0.1l0.1,0l0.2,0.1l0.6,0.1h0.3l0.6-0.1l0.2-0.1l0.1,0l0.1-0.1l0.1-0.1l0.1-0.1l0.1-0.1l0.1-0.1l0.1-0.1l0-0.1
	l0-0.1V68l-0.1-0.2l-0.1-0.1l-0.2-0.2l-0.2-0.2l-0.2-0.1l-0.3-0.1l-0.2-0.1l-0.2,0h-0.7l-0.2,0L48,67.2L47.7,67.2z"/>
<path id="Layer3_5_MEMBER_14_1_STROKES" class="st3" d="M48.7,74.7l5.1-3l0.4-0.3l0.4-0.5l0.4-0.7l0.1-0.7v-0.7L55,69.5l-0.4,0.7
	l-0.3,0.3L54,70.8l-0.8,0.6L43,77.3 M55.1,68.8v-0.7 M50,68.1l-0.5-0.2L49,67.8h-0.7l-0.5,0.1l-0.5,0.2l-0.3,0.3"/>
<path id="Layer3_5_MEMBER_15_1_STROKES" class="st4" d="M95.1,127.7v-3.4 M95.1,118.8V114 M95.1,112.8v-1.2 M95.1,110.4v-4.8
	 M95.1,139.3v-1.1 M95.1,138v-0.3 M95.1,137.4v-1 M95.1,133.6v-3.4 M95.1,129.4v-0.9"/>
<path id="Layer3_5_MEMBER_16_1_STROKES" class="st3" d="M52,108.2l-0.1-0.2l-0.2-0.3l-0.4-0.3l-1-0.5l-0.9-0.2l-1,0l-1.3,0.2
	l-0.8,0.4l-0.2,0.1l-0.5,0.5l-0.2,0.4l-0.1,0.2v0.4l0.1,0.2l0.2,0.4l0.2,0.2l0.6,0.5l0.5,0.2l0.9,0.2l1,0.1l1.3-0.2l0.6-0.2l0.5-0.2
	l0.6-0.5l0.2-0.4L52,109l0.1-0.4L52,108.2z M45.3,109.2v0.2l0.1,0.2v0.1l0.1,0.1l0,0.1l0.1,0.1l0.1,0.1l0.1,0.2l0.1,0.1l0.1,0.1
	l0.1,0.1l0.3,0.2l0.5,0.2l0.2,0l0.2,0.1l0.2,0l0.1,0.1l0.5,0.1H48l0.3,0.1H49l0.3-0.1h0.2l0.5-0.1l0.2-0.1l0.2,0l0.1-0.1l0.2,0
	l0.5-0.2l0.3-0.2 M49.5,107.7l-0.5-0.1h-0.7l-0.5,0.1l-0.5,0.2l-0.3,0.3l0,0.1l-0.1,0.1l0,0.1v0.2l0,0.1l0.1,0.1l0,0.1l0.2,0.2
	l0.2,0.2l0.2,0.1l0.2,0l0.2,0.1l0.3,0.1H49l0.3-0.1l0.2-0.1l0.2,0l0.2-0.1l0.2-0.2l0.2-0.2l0-0.1l0.1-0.1l0-0.1v-0.2l0-0.1l-0.1-0.1
	l0-0.1l-0.3-0.3L49.5,107.7z"/>
<path id="Layer3_5_MEMBER_17_1_STROKES" class="st3" d="M52.1,109.4v-0.8 M45.3,108.6v0.6 M50.3,108.9L50.3,108.9L50.3,108.9
	l-0.1-0.1l-0.1,0l0,0l-0.1,0l-0.1-0.1l-0.2-0.1l0,0h-0.1l-0.1-0.1h-0.1l-0.1-0.1h-0.1l0,0h-0.4l-0.1,0h-0.3l-0.1,0h-0.3l-0.1,0H48
	l-0.1,0.1h-0.1l-0.1,0.1h0l-0.1,0l0,0l-0.1,0l0,0l-0.1,0 M50.3,126l0.2,0.1l0.3,0.2l0.2,0.3l0.1,0.3l0,0.3l-0.1,0.3l-0.2,0.3
	l-0.3,0.2l-0.4,0.2l-0.5,0.2l-0.5,0.1h-1l-0.5-0.1l-0.5-0.2l-0.4-0.2l-0.3-0.2l-0.2-0.3l-0.1-0.3V127l0.1-0.3l0.2-0.3l0.3-0.2
	l0.2-0.1v-10 M47.1,126.1v0.9l0.1,0.2l0.2,0.3l0.2,0.1l0.2,0.1l0.2,0.1l0.7,0.1h0.3l0.5-0.1l0.2-0.1l0.2-0.1l0.2-0.1l0.2-0.2
	l0.2-0.3 M46,128.8l0,0.2l0.1,0.2l0.2,0.2l0.5,0.4l0.6,0.3l0.7,0.2h1.2l0.7-0.2l0.6-0.3l0.5-0.4l0.2-0.2l0.1-0.2l0-0.2"/>
<path id="Layer3_5_MEMBER_18_1_STROKES" class="st3" d="M47.1,118.4L47.1,118.4l0.2,0.2l0.1,0.1l0.3,0.2l0.6,0.2h0.2l0.2,0h0.2
	l0.2,0h0.2l0.4-0.1l0.5-0.2l0.1-0.1l0.2-0.2l0-0.1l0-0.1v-1.3l0,0.1l0,0.1l-0.1,0.1l-0.1,0.1l-0.1,0.1l-0.2,0.1l-0.2,0.1l-0.3,0.1
	l-0.2,0l-0.2,0.1h-0.6l-0.2-0.1l-0.2,0l-0.3-0.1l-0.3-0.2l-0.1-0.1l-0.1-0.1l-0.1-0.1 M47.1,120.9L47.1,120.9l0.2,0.2l0.1,0.1
	l0.1,0.1l0.5,0.2l0.6,0.1h0.2l0.6-0.1l0.2-0.1l0.2-0.1l0.2-0.1l0.2-0.1l0.1-0.1l0.2-0.2l0.1-0.2v-1.2l0,0.1l0,0.1l-0.2,0.2L50,120
	l-0.3,0.2l-0.3,0.1l-0.6,0.1h-0.2l-0.6-0.1l-0.3-0.1l-0.3-0.2l-0.1-0.1l-0.1-0.1 M50.3,119.5v-1.3 M50.3,116.9v-1 M46.5,126.4
	l-0.1,0.1l-0.2,0.2l-0.1,0.2l-0.1,0.2l-0.1,0.3l0.2,0.1l0.5,0.5l0.5,0.6l0.1,0.2l0.5-0.2l0.8-0.1H49l0.3,0.1l0.5,0.1l0.5,0.2
	l0.1-0.2l0.6-0.9l0.2-0.2l0.2-0.1l-0.1-0.4l-0.2-0.3l-0.3-0.2 M50.3,126.9v-6.2 M50.3,130.1v-1.2 M47.2,130.1v-1.2 M46,128.8v-1.4"
	/>
<path id="Layer3_5_MEMBER_19_1_STROKES" class="st3" d="M50,115.4L50,115.4l-0.2-0.1l-0.1-0.1l-0.3-0.1l-0.1-0.1l-0.2,0h-0.8l-0.2,0
	l-0.2,0.1l-0.3,0.1l-0.1,0.1l-0.1,0.1l-0.1,0.1l-0.2,0.2l-0.1,0.2l0,0.1v0.3l0,0.1l0.1,0.2l0.1,0.1l0.1,0.1l0.1,0.1l0.4,0.2l0.2,0
	l0.2,0.1h0.2l0.2,0h0.5l0.2,0h0.2l0.2-0.1l0.1,0l0.3-0.1l0.1-0.1l0.1-0.1l0.1-0.1l0.1-0.1l0-0.1l0.1-0.1l0.1-0.2V116l-0.1-0.3
	l-0.1-0.1L50,115.4L50,115.4z M51.5,128.8v-1.4"/>
<path id="Layer3_5_MEMBER_20_1_STROKES" class="st3" d="M87.4,110.6L87.4,110.6l0.1,0.2v0.2l-0.1,0.1v0l-0.1,0.1l-0.1,0.1H87
	l-0.1-0.1l-0.1,0h-0.5l-0.1,0l-0.1,0l0,0.1l-0.1,0.1v0.1l0,0.1v0.1l0,0.1l0.1,0.1l0.1,0l0.1,0h0.1l0.1-0.1l0.1,0l0.1,0"/>
<path id="Layer3_5_MEMBER_21_1_STROKES" class="st5" d="M106.9,23.1l1.1,0.9l1.5,1.6l0.5,1.1l0.2,1.2l-0.6,4.5l0.1,1.6l0.5,1.4
	l1.5,2.3l0.5,1.1l0.1,1.3l-0.5,1.1l-0.9,0.9l-2.3,1.9l-0.9,1.2l-0.4,1.4V48l0.1,0.6l0.3-1.2l0.9-1.3l3.2-2.8l0.5-1.2l-0.1-1
	 M82.2,58.7l-3.5,0.9l-1.6,0.2l-1.7-0.4l-1.4-1l-2.9-4.9l-1.7-1.3l-2.3-0.6L61.8,52l-2.7-0.1l-2.4-1L54.9,49l-1-2.3L52.4,41
	l-1.3-3.2L49,34.6l-5.1-6.1l-1.7-3.1l0-1.3L42,24.3l0.1,3.3l1.7,3.1l5.1,6.1l2.1,3.2l1.3,3.2l1.5,5.7l1,2.3l1.7,1.9l2.4,1l2.7,0.1
	l5.5-0.3l2.3,0.6l1.7,1.3l2.9,4.9l1.4,1l1.7,0.4l1.6-0.2l5.8-1.3l11.1,0.2l2.6-0.5l4.3-1.8l1.7-1.1l1.3-1.3l1.1-1.4l0.6-1.5l0.1-1.4
	l-0.1-1.1l0,0.3l-0.6,1.5l-1.1,1.4l-1.3,1.3l-1.7,1.1L98.2,58l-2.6,0.5l-11.1-0.2L82.2,58.7z M96.3,55l0.1,0.1l0.2,0.2l0.1,0.1
	l0.1,0.1l0,0.1v0.3l-0.1,0.1l0,0.1L96.5,56l-0.1,0.1l-0.1,0.1l-0.5,0.2l-0.2,0l-0.2,0.1h-0.2l-0.2,0h-0.5l-0.2,0h-0.2l-0.2-0.1
	l-0.2,0l-0.4-0.2l-0.1-0.1L93.5,56l-0.1-0.1l0-0.1l-0.1-0.2v-0.1l0-0.1l0-0.1l0-0.1l0.1-0.1l0.1-0.1l0.1-0.1l0.1-0.1l0.4-0.2
	l0.6-0.1h0.3l0.2,0h0.3l0.3,0.1l0.1,0L96.3,55z M107.3,48.7l0.1,0.8l-0.1,1.1l0-0.3v-1.4L107.3,48.7z M42,24.3l1.6-2.9l3.9-4.7
	l5.6-5.4"/>
<path id="Layer3_5_MEMBER_22_1_STROKES" class="st4" d="M95,47v3.3 M95,51.1v0.8 M95,52.7V56"/>
<path id="Layer3_5_MEMBER_23_1_STROKES" class="st3" d="M94.3,56.4l0.5-0.1h0.5l0.5,0.1 M52,59.1l0.1-0.4L52,58.3l-0.1-0.2l-0.2-0.3
	l-0.6-0.5l-0.5-0.2L50,56.9l-1.3-0.2l-1,0.1l-0.9,0.2l-0.5,0.2l-0.6,0.5L45.6,58l-0.2,0.3l-0.1,0.2v0.4l0.1,0.2l0.2,0.4l0.5,0.5
	l0.2,0.2l0.5,0.2l0.6,0.2l1.3,0.2l1.3-0.2l0.6-0.2l0.5-0.2l0.6-0.5l0.1-0.2L52,59.1z M48.6,26.7l0.2,0l0.8,0.2l0.4,0.2l0.1,0.1
	l0.1,0.1l0.1,0.1l0.1,0.2v0.1l0,0.1v0.2l-0.1,0.1l0,0.1L50.2,28L50,28.2l-0.1,0.1l-0.2,0.1l-0.1,0l-0.1,0l-0.6,0.1h-0.5L48,28.5
	l-0.1,0l-0.2-0.1l-0.1,0l-0.1-0.1l-0.1-0.1l-0.1-0.1L47.2,28L47.1,28L47,27.7v-0.1l0.1-0.3l0.2-0.2l0.1-0.1l0.5-0.2h0.2l0.2-0.1
	H48.6z M47.9,28.5l0.2-0.1h0.2l0.2,0h0.5l0.2,0h0.2l0.2,0.1"/>
<path id="Layer3_5_MEMBER_24_1_STROKES" class="st3" d="M48,57.8l-0.2,0.1l-0.2,0L47.5,58l-0.2,0.2l-0.1,0.1l-0.1,0.1l0,0.1L47,58.5
	l0,0.1v0.2l0,0.1l0.1,0.2v0l0.2-0.2l0.1,0l0,0l0.1,0l0,0l0.1,0l0,0l0.1,0h0l0.1-0.1h0.1l0.1-0.1h0.2l0.1,0h0.1l0.1,0H49l0.1,0h0.2
	l0.1,0h0.1l0.1,0.1h0.1l0.1,0.1h0.1l0,0l0.2,0.1l0.1,0.1l0.1,0l0.1,0.1v0l0.1,0.1l0.1-0.2l0-0.1v-0.2l0-0.1l-0.1-0.2l-0.1-0.1
	l-0.1-0.1L49.9,58l-0.2-0.1l-0.2,0l-0.2-0.1L49,57.7h-0.7L48,57.8z M47.1,59.1l0.3,0.3l0.4,0.2l0.2,0l0.2,0.1l0.3,0.1H49l0.3-0.1
	l0.2-0.1l0.2,0l0.4-0.2l0.3-0.3l0,0 M45.3,58.7v0.8l0,0.1l0,0.1v0.1l0.1,0.1l0,0.1l0.1,0.1l0.1,0.1l0.1,0.2l0.1,0.1l0.1,0.1l0.1,0.1
	l0.3,0.2l0.8,0.4l0.9,0.2h0.3l0.2,0h0.3l0.2,0h0.3l0.9-0.2l0.8-0.4l0.3-0.2"/>
<path id="Layer3_5_MEMBER_25_1_STROKES" class="st3" d="M52.1,59.5v-0.8 M95.4,100.4h-0.7l-0.9,0.2l-0.6,0.2l-0.7,0.4l-0.2,0.2
	l-0.3,0.3l-0.1,0.2l-0.2,0.4v0.4l0.1,0.2l0.2,0.4l0.3,0.3l0.4,0.3l0.5,0.2l0.6,0.2l0.3,0.1l0.6,0.1l1.3-0.1l0.9-0.2l0.5-0.2l0.4-0.3
	l0.3-0.3l0.2-0.4l0.1-0.2v-0.4l-0.2-0.4l-0.1-0.2l-0.3-0.3l-0.2-0.2l-0.7-0.4l-0.6-0.2L95.4,100.4z M95.4,101.4h-0.7l-0.5,0.1
	l-0.4,0.2l-0.2,0.2l-0.1,0.1l-0.1,0.1l-0.1,0.1l-0.1,0.2v0.2l0.1,0.2l0.1,0.1l0.1,0.1l0.1,0.1l0.2,0.2l0.3,0.1l0.3,0.1l0.3,0.1h0.7
	l0.3-0.1l0.4-0.2l0.1-0.1l0.2-0.2l0.1-0.1l0.1-0.1l0.1-0.1l0.1-0.2v-0.2l-0.1-0.2l-0.1-0.1l-0.1-0.1l-0.1-0.1l-0.2-0.2l-0.4-0.2
	L95.4,101.4z"/>
<path id="Layer3_5_MEMBER_26_1_STROKES" class="st3" d="M96.4,102.5L96.4,102.5l-0.1-0.1l0,0l-0.1-0.1h-0.1l0,0l-0.1,0l0,0h-0.1l0,0
	l-0.1,0h-0.2l-0.1,0h-0.2l-0.1,0h-0.6l-0.1,0h-0.1l-0.1,0h-0.1l-0.1,0.1h-0.1l-0.2,0.1h-0.1l-0.1,0l0,0l-0.1,0l0,0l-0.1,0l0,0
	l-0.1,0 M91.7,102.4v0.9l0,0.1l0,0.1l0,0.1l0.1,0.1l0,0.1l0.1,0.1l0.2,0.2l0.1,0.1l0.1,0.1l0.1,0.1l0.1,0.1l0.2,0.2l0.8,0.4l0.9,0.2
	h0.3l0.2,0h0.3l0.2,0h0.3l0.9-0.2l0.9-0.4l0.1-0.1l0.1-0.1l0.1-0.1l0.1-0.1L98,104l0.1-0.1l0.1-0.1l0.1-0.1l0-0.1l0.1-0.1l0-0.1
	l0-0.1l0-0.1v-0.9"/>
<path id="Layer3_5_MEMBER_27_1_STROKES" class="st4" d="M95.1,94.1V82.2 M95.1,79.2v-3 M95.1,73.3V61.4 M95.1,102.9v-2.1
	 M95.1,100.2v-0.6 M95.1,99.2V97 M48.7,59.1v-1.9 M48.7,56.7v-0.5 M48.7,55.7v-1.9 M48.7,50.9v-5 M48.7,44.6v-1.3 M48.7,42.2v-5"/>
<path id="Layer3_5_MEMBER_28_1_STROKES" class="st3" d="M52.1,50.5L52,50.1l-0.1-0.2l-0.2-0.3l-0.4-0.3L50.8,49L50,48.7l-1-0.2h-0.6
	l-1,0.2L46.6,49l-0.5,0.3l-0.5,0.5l-0.2,0.6v0.4l0.1,0.2l0.2,0.4l0.2,0.2l0.6,0.5l0.5,0.2l0.6,0.2l0.3,0.1l1.3,0.1l1-0.1l0.6-0.2
	l0.5-0.2l0.6-0.5l0.2-0.4l0.1-0.2L52.1,50.5z M47.1,50.1L47.1,50.1L47,50.3l0,0.1v0.2l0,0.1l0.1,0.1l0,0.1l0.2,0.2l0.2,0.2l0.2,0.1
	l0.2,0l0.2,0.1l0.2,0h0.2l0.2,0h0.3l0.2,0h0.2l0.2,0l0.2-0.1l0.2,0l0.2-0.1l0.2-0.2l0.2-0.2l0-0.1l0.1-0.1l0-0.1v-0.2l0-0.1
	l-0.1-0.1l0-0.1L50.2,50l-0.1-0.1L50,49.8l-0.5-0.2L49,49.5h-0.7l-0.5,0.1l-0.5,0.2l-0.1,0.1L47.2,50L47.1,50.1z"/>
<path id="Layer3_5_MEMBER_29_1_STROKES" class="st3" d="M45.3,50.5v0.8l0.1,0.2v0.1l0.1,0.1l0,0.1l0.2,0.4l0.1,0.1l0.2,0.2l0.1,0.1
	l0.1,0.1l0.1,0.1l0.7,0.3l0.3,0.1l0.1,0.1l0.5,0.1H48l0.2,0h1l0.2,0h0.2L50,53l0.2-0.1l0.3-0.1l0.7-0.3l0.1-0.1l0.1-0.1l0.1-0.1
	l0.2-0.2l0.1-0.1l0.3-0.5l0-0.1v-0.1l0.1-0.2v-0.8 M92.4,92.5L91.9,93l-0.2,0.4l-0.1,0.2v0.4l0.1,0.2l0.2,0.4l0.3,0.3l0.4,0.3
	l0.5,0.2l0.9,0.2l1,0.1l1-0.1l0.6-0.2l0.6-0.2l0.2-0.1l0.4-0.3l0.3-0.3l0.2-0.4l0.1-0.2v-0.4l-0.1-0.2L98.1,93l-0.5-0.5l-1-0.5
	l-0.9-0.2l-1,0L93.4,92l-0.8,0.4L92.4,92.5z M50.3,50.8L50.3,50.8L50.3,50.8l-0.1-0.1l-0.1,0L50,50.6L50,50.5l-0.2-0.1l0,0l-0.1,0
	h-0.1l-0.1,0h-0.1l-0.1-0.1h-0.1l-0.1,0l-0.1,0h-0.8l-0.1,0.1H48l-0.1,0.1h-0.1l-0.1,0h-0.1l0,0l-0.1,0l0,0l-0.1,0l0,0l-0.1,0l0,0
	l-0.1,0.1l-0.1,0.1"/>
<path id="Layer3_5_MEMBER_30_1_STROKES" class="st3" d="M93.5,94L93.5,94L93.5,94L93.5,94l0.2-0.1l0,0l0.1,0l0,0l0.1,0l0,0l0.1-0.1
	H94l0.1-0.1h0.1l0.1-0.1h0.1l0.1,0h0.1l0.1,0h0.7l0.1,0h0.1l0.1,0h0.1l0.1,0l0,0h0.1l0,0l0.1,0h0l0.2,0.1l0,0l0.1,0l0.1,0.1l0.1,0
	l0.1,0.1l0,0.1l0.1,0l0-0.1l0.1-0.2v-0.2l0-0.1l-0.1-0.2l-0.2-0.2l-0.6-0.2l-0.6-0.1h-0.3l-0.6,0.1l-0.6,0.2l-0.2,0.2l-0.1,0.1
	l-0.1,0.2v0.2l0.1,0.2l0.1,0.2l0.1,0.1l0.2,0.2l0.3,0.1l0.2,0l0.2,0.1l0.3,0.1h0.7l0.3-0.1l0.1-0.1l0.2,0l0.3-0.1l0.2-0.2l0.1-0.1
	l0.1-0.1l0,0 M91.7,93.7v0.9l0.1,0.3l0.1,0.1l0,0.1l0.1,0.2l0.1,0.1l0.1,0.1l0.1,0.1l0.1,0.1l0.1,0.1l0.2,0.2l0.5,0.2l0.1,0l0.2,0.1
	l0.2,0l0.2,0.1l0.2,0H94l0.2,0.1h0.2l0.2,0h0.3l0.2,0l0.2,0h0.3l0.2,0h0.2l0.2-0.1h0.2l0.2,0l0.2-0.1l0.1,0l0.2-0.1l0.1,0L97,96
	l0.5-0.2l0.2-0.2l0.1-0.1l0.1-0.1l0.1-0.1l0.2-0.3"/>
<path id="Layer3_5_MEMBER_31_1_STROKES" class="st3" d="M98.4,94.5v-0.8"/>
<path class="st2" d="M336.4,137.9v-16.5l-3.6-2.1L312.5,131v-2.3l-3.6-2.1l-12.3,21.8l15.9,9.7v-6.5L336.4,137.9 M332.2,127.8
	l0.4-0.1h0.5l0.4,0.2l0.4,0.4l0.3,0.6l0.2,0.7l0.1,0.9l-0.1,1L334,133l-0.9,1.9l-0.7,0.8l-0.8,0.7l-3.3,1.9v-8.3l3.4-1.9
	L332.2,127.8 M322.3,133.4l1-0.6l1.7,5.8l1.6-7.7l0.9-0.5l-2,9.5l-0.9,0.6l-1.8-6l-1.7,7.9l-1,0.6l-2-7.2l1-0.6l1.6,5.8L322.3,133.4
	 M317.9,136v1l-4.1,2.4v2.4l3.6-2v1l-3.6,2.1v3.8l-1,0.6v-8.3L317.9,136 M332.4,128.9H332l-0.9,0.4l-1.7,1v6.3l2.3-1.4l0.7-0.8
	l0.4-0.6l0.4-1.2l0.1-0.5l0.1-1.2l-0.1-1l-0.1-0.3l-0.2-0.3l-0.3-0.4L332.4,128.9z"/>
<path id="Layer3_7_MEMBER_1_1_STROKES" class="st3" d="M300.2,150.5l12.3-21.8v6.4l23.9-13.8v16.5"/>
<path id="Layer3_7_MEMBER_2_1_STROKES" class="st3" d="M336.4,121.3l-3.6-2"/>
<path id="Layer3_7_MEMBER_3_1_STROKES" class="st3" d="M308.9,126.6l-12.3,21.8"/>
<path id="Layer3_7_MEMBER_4_1_STROKES" class="st3" d="M332.8,119.3L313,130.7"/>
<path id="Layer3_7_MEMBER_5_1_STROKES" class="st3" d="M300.2,150.5l-3.6-2.1"/>
<path id="Layer3_7_MEMBER_6_1_STROKES" class="st3" d="M312.5,128.7l-3.6-2.1"/>
<path id="Layer3_7_MEMBER_7_1_STROKES" class="st3" d="M300.2,150.5l12.3,7.7"/>
<path id="Layer3_7_MEMBER_8_1_STROKES" class="st3" d="M312.5,158.1v-6.4l23.9-13.8"/>
<path class="st6" d="M274.7,77.8l-0.2,0.2l1-0.1l1,0.5l0.5,0.5l0.4,0.6l0.6,1.6l0.2,0.9l0.1,1.7l-0.3,1.4l-0.3,0.5l-0.4,0.4
	l-1.2,0.3l0.1,0.3l1.4,0.2l1.5-0.3l0.6-0.2l0.6-0.7l0.6-2.4l-0.4-3l-0.5-1.1l-0.4-0.7l-0.9-1l-0.6-0.3l-0.5-0.1l-1.8,0.3l-0.5,0.1
	L274.7,77.8z"/>
<path class="st6" d="M251.9,81.8l-0.5,0.5l-0.1,0.3l0.9-0.2l0.7,0l0.5,0.3l0.9,1.1l0.6,1.5l0.3,1.8l-0.1,1.6l-0.2,0.7l-0.7,0.9
	l-1.1,0.3l0.1,0.3l0.9,0l1.2-0.2l1-0.3l0.4-0.4l0.3-0.5l0.4-1.5v-1.8l-0.4-1.9l-1.4-2.7l-1.2-0.5L251.9,81.8z"/>
<path class="st6" d="M242.1,62.3l-0.4-1.8l-0.3-0.7l-0.5-0.7l-1.3-1.1l-0.7-0.4l-1.6-0.4l-1.5,0.1l-1.3,0.6l-1.5,1.8l-0.3,0.6
	l-0.2,0.7v0.3l0.6-0.4l0.3-0.8l0.4-0.5l0.5-0.5l0.6-0.4l0.5-0.1l0.2-0.2l0.7-0.1l0.8,0l0.7,0.2l0.7,0.3l0.7,0.4l0.6,0.5l0.5,0.6
	l0.7,1.4l0.2,0.7l-0.4,3.4l-1.2,0.7l-0.5,0.5l1.2,0.2l0.2-0.1h0.3l-0.1,0.4l-0.1,0.4h-0.2l-0.2,0.2l-0.2,0.7l-0.3,0l-0.3,0.5l0,0.4
	l0.5,0.5h0.4l0.4-0.3l0.1-0.5l0.6-0.5l0.3-0.6l0.2-1.8l0.1-0.3L242.1,62.3z"/>
<path class="st6" d="M232.4,71.9l-0.2-0.8l-0.9-1.4l-1.3-1.1l-0.8-0.4l-1.6-0.4l-0.9,0.1l-1.3,0.4l-0.6,0.4l-0.6,0.8l-0.7,0.7
	l-0.6,1.2l0,0.3l0.8-0.7l0.1-0.2l0.9-0.9l1.3-0.5l1.5,0l1.4,0.5l0.6,0.4l0.6,0.5l0.8,1.3l0.2,0.7l0,1.4l-1.2,3.1l-1,0.3l-0.4,0.6
	l0.8,0.4l0.3,0h0.4l0.1,0.5l1.5,0.7l0.6,0l0.1,0.3l0.4-0.3l0.2-0.2l0-0.3l0.4-0.3l0.2-0.2l0-0.6l-0.3-0.4l-0.3-0.1l-0.2,0l-0.4,0.4
	l-0.2,0.2l-1.2-0.6l-0.2,0.1l-0.2-0.2l1.6-4.1V71.9z"/>
<path id="Layer3_8_MEMBER_4_1_STROKES" class="st5" d="M294.3,21.6c0.1,0,0.1-0.1,0.2-0.1 M266.8,35.1l0-0.5 M248.2,45.2L248.2,45.2
	l-11.5,12 M248.1,45.1L248.1,45.1l-0.2-0.3l0-0.2l0.1-0.4l0.2-0.4l0.4-0.7l0.9-1.1l1.1-0.9 M244.8,83.9l7.7-1.5 M226.7,67.9l8.5-9
	 M255.7,81.8l19.6-3.8 M248.1,45.1l5.6-6 M221.8,73.1l3.1-3.3 M268.6,124.1l0.5,0.3 M267.2,123.3l0.3,0.2 M246.4,92l7.4-1.5
	 M257.1,90l19.7-3.8 M190.9,119.8c0.2,0,0.3,0,0.5-0.1l0.5-0.2 M194.4,121l-1.6-0.1l-0.7,0 M186.8,127.6l2.6,0.1l0.1,0h0.1l2.1,0.4
	 M278.5,77.4l23.2-4.5 M280,85.5l21.2-4.1"/>
<path id="Layer3_8_MEMBER_5_1_STROKES" class="st5" d="M266,131.1h0.2l0,0h0.1l0,0h0.1l0,0h0l0,0h0l0,0h0l0,0h0l0,0l0.1,0h0l0.1,0
	l0,0l0.2-0.1l0,0l0.1,0l0,0l0,0 M187.4,120.8L187.4,120.8L187.4,120.8L187.4,120.8l0.1-0.1l0,0h0l0,0h0.1v0h0l0,0h0l0,0h0l0,0h0l0,0
	h0.1l0,0h0.1l0,0h0.1l0,0l3.3,0.1 M190.6,120.1h0.2l0,0h0.1l0,0h0.1l0,0h0l0,0h0l0,0h0l0,0h0l0,0h0v0h0l0,0l0.1,0.1l0.1,0.1
	 M187.1,119.7l3.2,0.1l0.6,0 M203,120.2l39.4,1.7 M202.2,128.5l43.5,1.9"/>
<path id="Layer3_8_MEMBER_6_1_STROKES" class="st5" d="M263.9,123.4L263.9,123.4L263.9,123.4l0.2,0.1l0.1,0.1l0.1,0.1l0.5,0.2l0.1,0
	v0h0.1v0l3.2,0.1l0.1,0h0.1l0,0l0.1,0 M261.4,122.6l0.9,0.2h0l1.2,0.2h0l0,0l3.2,0.1l0.1,0h0.1l0.2,0.1 M263.9,124l0.5,0
	 M269.9,126.4v-0.6l0-0.1v-0.1l0,0v-0.1l0,0v-0.1l-0.1-0.3l0-0.1l0-0.1l0,0l0-0.1l0,0l0-0.1l0,0l-0.1-0.1l0,0l0,0l0-0.1l0,0l0,0l0,0
	l0,0l-0.1,0l-0.1,0l-0.1-0.1l-0.1,0l0,0h-0.1 M266,131.1l-3.8-0.1c-0.2,0-0.4,0.1-0.5,0.1l-0.5,0.2"/>
<path id="Layer3_8_MEMBER_7_1_STROKES" class="st5" d="M257.6,122.4l1.5-0.1 M192,101.6L192,101.6L192,101.6L192,101.6L192,101.6
	l-0.1,0.1v0h0l0,0h0v0h0v0h0l-0.1,0.1h0v0h0l0,0v0h0v0h0v0h0v0h0v0l-0.5,0.5 M188.8,101.3l0.5-0.5h0v0h0v0h0v0h0v0h0v0l0,0h0v0
	l0.9-1.5 M189.8,102.7L189.8,102.7L189.8,102.7L189.8,102.7L189.8,102.7L189.8,102.7L189.8,102.7l0.1-0.1l0,0v-0.1l0,0v0h0v-0.1l0,0
	v0l0,0h0v0l0,0h0v0h0l0,0l-0.2-0.1"/>
<path id="Layer3_8_MEMBER_8_1_STROKES" class="st5" d="M189.6,102.1l-0.2-0.1l0,0h0l0,0h0l0,0h-0.2l0,0h0l0,0H189l0,0h0 M192,101.6
	l1.1-0.8 M190.9,109l2.3-2.2l0.3-0.2l1.4-0.8 M189.8,102.8l-3.3,3.2l0,0l-0.2,0.2l0,0l0,0l0,0l-0.1,0.1l0,0l-0.1,0.1l0,0.1l-0.1,0.1
	l0,0l-0.1,0.1l0,0.1l-0.1,0.1l-0.1,0.1l0,0l0,0l0,0l-0.1,0.2l0,0.1l-0.2,0.4l-0.1,0.2l0,0.1l0,0.1l0,0l-0.1,0.2l0,0l0,0.1l0,0l0,0.1
	 M188.8,101.3l-4,3.8"/>
<path id="Layer3_8_MEMBER_9_1_STROKES" class="st5" d="M252.4,40l4.5-4.3l0,0l0.2-0.2h0l0,0l0.1-0.1h0l0,0l0.1,0h0l0,0h0l0,0l0,0h0
	l0,0h0l0,0h0l0,0h0l0,0h0l0,0h0l0,0h0l0,0h0l0,0h0l0,0h0l0,0h0l0,0h0 M250.6,41.1l1.2-0.7c0.2-0.1,0.4-0.3,0.5-0.3 M213.2,76.8
	l36-34.6 M262,142.6l0.3-0.4l0.6-1.1 M261.4,143.2l0.4-0.4 M261.5,144L261.5,144L261.5,144L261.5,144l0.1,0h0.1l0,0h0.1v0
	 M265.8,142.7l-1.6,1.2 M193.8,95.5l6-5.8 M200.6,100.1c0.3-0.5,0.4-0.8,0.3-1.1l0-0.1c-0.1-0.2-0.4-0.3-0.8-0.3 M200.4,100.7
	l7.1-6.8"/>
<path id="Layer3_8_MEMBER_10_1_STROKES" class="st5" d="M226.3,73L226.3,73L226.3,73L226.3,73l0-0.1v0l0,0v0l0,0v0l0,0l0,0v0
	l-0.1-0.1v0l0,0v0l0,0h0v0l-0.1-0.1h0l0,0v0l0,0h0l0,0h0l-0.1-0.1h0l0,0l-0.2-0.1l-0.3-0.1h-0.1l0,0h-0.5l0,0h-0.1l0,0h0l0,0h-0.1
	l0,0 M231.9,87.6l3.4-0.7c0.3,0,0.6-0.1,0.9-0.3l0.6-0.3 M238.2,92c0.1,0,0.2,0,0.3-0.1c0.1-0.1,0.2-0.2,0.2-0.4
	c0-0.1,0-0.2-0.1-0.3c-0.1-0.1-0.2-0.1-0.3-0.1l-3,0.6 M238.5,90.6c0.4-0.1,0.7-0.2,0.9-0.3L240,90 M239.8,92.4l-0.6-0.1
	c-0.3,0-0.6,0-0.9,0l-1.8,0.3 M262.1,144l0.3,0.2h0l0,0h0v0h0v0h0v0h0v0.2h0v0.1h0v0h0v0h0v0l-0.9,0.9 M273.2,142.1
	c0.3-0.5,0.4-0.8,0.3-1.1l0-0.1c-0.1-0.2-0.4-0.3-0.8-0.3 M273,142.6l29.5-28.4 M267.2,136.7l31.7-30.5"/>
<path id="Layer3_8_MEMBER_11_1_STROKES" class="st3" d="M218.3,77.1L218.3,77.1L218.3,77.1L218.3,77.1L218.3,77.1L218.3,77.1
	L218.3,77.1L218.3,77.1L218.3,77.1l-0.1,0.1v0h0v0h0v0h0v0h0v0h0v0h0l-0.3,0.5l-0.4,0.6l-0.7,0.7 M246.8,47.6L246.8,47.6L246.8,47.6
	L246.8,47.6L246.8,47.6L246.8,47.6L246.8,47.6L246.8,47.6l0.1-0.1h0l0,0v0h0v0h0v0h0v0"/>
<path id="Layer3_8_MEMBER_12_1_STROKES" class="st5" d="M266.1,33.5L266.1,33.5L266.1,33.5l0.1,0.1l0,0l0,0l0,0l0.1,0.1l0,0.1
	l0.1,0.1l0,0l0,0.1l0,0l0,0.1l0.1,0.1v0.1l0,0v0l0,0.1v0.1l0,0v0.1l0,0v0.1l0,0.1v0l0,0.1v0l0,0.2l0,0.2l-0.1,0.2l-0.1,0.1l-2.3,2.4
	c0,0-0.1,0.2-0.2,0.4l0,0.3v0c0,0.1,0,0.2,0.1,0.3l0.1-0.1 M263.3,38.6l0.3-0.3l0.3-0.1 M262.6,41.6l0.3-0.4l0.1-0.1v0l0,0l0,0h0
	l0.6-0.9c0.1-0.2,0.3-0.4,0.4-0.6l2.2-2.4l0.2-0.3l0.1-0.2l0-0.2v-0.1 M266.8,35.1L266.8,35.1l-0.1,0.2l-0.1,0.1l-0.1,0.1
	 M223.9,81.9c0.1-0.1,0.1-0.2,0.2-0.4c0-0.1,0.1-0.2,0.1-0.3v0c0-0.1,0-0.2-0.1-0.3L224,81l-1.4,1.5 M225,81.5l-0.3,0.3l-0.3,0.1
	c-0.1,0.1-0.3,0.2-0.4,0.3l-0.7,0.8 M224.1,80.5l1.1-1.5 M227.8,78.8l2.9-3 M232.5,73.9l8-8.4 M242.2,63.5l17.5-18.6"/>
<path id="Layer3_8_MEMBER_13_1_STROKES" class="st5" d="M256.7,36.3L256.7,36.3L256.7,36.3L256.7,36.3L256.7,36.3L256.7,36.3
	L256.7,36.3L256.7,36.3L256.7,36.3l0.1-0.1l0.3-0.1c0.2-0.1,0.3-0.2,0.4-0.3c0,0,0,0,0,0l2.3-2.4l0,0l0,0l0,0l0.1,0l0,0l0,0l0,0l0,0
	l0,0l0,0l0.1,0l0,0l0.2-0.1l0,0h0l0.1-0.1h0l0.2-0.1h0l0.1,0h0l0.1,0h0.1l0,0h0l0,0h0.1l0,0h0.1l0,0 M197.1,120h0.5l0.2,0h0.2l0.2,0
	h0.2l0.2,0l4.6,0.2"/>
<path id="Layer3_8_MEMBER_14_1_STROKES" class="st5" d="M191.7,128.2l3.6-0.2l3.4-0.8l0.3-0.1l0.6-0.3l0.3-0.2l0.4-0.5l0.1-0.3
	l0-0.3l-0.1-0.4l-0.1-0.2l-0.2-0.3l-0.5-0.5l-2.7-1.9l-1.4-0.6l-1.1-0.4l0.1,0h0.4l0.1,0l1.3-0.1l0.1,0h0.1l0.3-0.1l0.3-0.1l0.2-0.1
	l0-0.1l0-0.1v-0.1l-0.1-0.1l-0.1-0.1l-0.1-0.1l-0.3-0.2l-0.5-0.2l-0.6-0.1l-1.8-0.2l-2,0.1 M196.2,119.8l0.2,0l0.2,0l0.2,0l0.2,0
	l0.1,0l0.2,0l0.2,0l0.1,0"/>
<path id="Layer3_8_MEMBER_15_1_STROKES" class="st5" d="M193.2,100.8l1.5-1.7l0.7-1.2l0.2-0.4l0.1-0.5l0-0.4l-0.1-0.2l-0.2-0.2
	l-0.2-0.1l-0.2,0l-0.4,0l-0.6,0.2l-1.2,0.6l-1.3,1l-0.7,0.6l-0.1,0.1l-0.2,0.2l-0.1,0.1l-0.1,0.1 M187.2,112L187.2,112L187.2,112
	l0.1,0h0l0,0h0l0,0h0l0,0h0l0,0h0l0,0h0l0,0h0l0,0h0l0,0h0l0,0h0v0h0l0,0l0,0h0l0.1-0.1h0l0,0h0l0,0l0.1-0.1 M187.1,119.7
	c-0.2,0-0.4,0-0.7,0.1 M191.7,128.2l1.9,0.3h0.5l0,0h0l3.3-0.2l0.2,0h0.2l0.2,0l4.2,0.2"/>
<path id="Layer3_8_MEMBER_16_1_STROKES" class="st5" d="M261.4,122.6l-1.9-0.3h-0.4l-0.3,0.1l-0.1,0l0,0v0.1l0.1,0.1l0.2,0.1
	l0.5,0.3l1.6,0.5l2.8,0.5l-1.9,1.1l-1.9,1.4l-0.2,0.2l-0.3,0.3l-0.4,0.5 M260.3,131.3l0.1,0h0.3l0.1,0h0.2l0.1,0h0.1l-0.7-0.1
	l-0.1,0l-0.1,0l-0.1,0 M193.8,95.5l-2.9,2.8l-0.1,0.1l-0.1,0.1l-0.1,0.1l-0.1,0.1l-0.1,0.1l-0.1,0.1l-0.1,0.1 M200,98.6l-0.4,0
	l-0.5,0.1l-5.4,1.9l-0.5,0.2 M200.6,100.1L200,101l-2.6,2.6l3-2.9 M197.4,103.6l-2.5,2.2"/>
<path id="Layer3_8_MEMBER_17_1_STROKES" class="st5" d="M246.4,85.4L246.4,85.4l-0.3,0.3l-0.9,0.7l-0.2,0.1l-0.5,0.4l-0.2,0.1
	L240,90 M242.8,92.3h-0.3l-0.1,0h-0.3l-0.1,0l-2.1,0.1 M272.7,140.5l-0.2,0l-0.3,0l-0.6,0.1l-5,1.7l-0.9,0.4l1-1.1l0.7-0.9l0.5-0.9
	l0.3-0.7l0-0.2v-0.2l0-0.2l-0.1-0.2l-0.2-0.2h0l-0.1,0h0l0,0h-0.1l0,0h0l-0.5,0.1l-0.9,0.3l-1.9,1.3l-1.3,1.2l0,0l-0.1,0.1l0.2-0.2
	l0.2-0.3l0.1-0.1l0.1-0.2l3.7-3.6 M269.9,145.6l3.2-3"/>
<path id="Layer3_8_MEMBER_18_1_STROKES" class="st3" d="M246.5,85.2L246.5,85.2L246.5,85.2l0-0.1l0,0v0l0,0v0l0,0v0l0,0v0l0,0v-0.1
	l0,0v-0.1l0,0v-0.1l0,0v0h0v0l-0.1-0.1l-0.1,0l0,0h0l0,0l0,0h0l0,0l0,0h0l0,0h0l0,0h0l0,0h-0.1l0,0h-0.1l0,0h-0.1l0,0h-0.5l-3.2,0.9
	L238,86l-0.7,0.2l-0.5,0.2 M240.5,92.3l2.5-0.4l1.8-0.5l1-0.4l0.5-0.2l0.3-0.2l0.2-0.3l0-0.2V90l0-0.1l-0.1-0.1l-0.3-0.1l-0.1,0
	l-0.1,0l-1.4-0.2l-1.9,0l-1.2,0.1c-0.4,0.1-0.8,0.2-1.1,0.2 M242.8,92.3l3.6-0.3"/>
<path id="Layer3_8_MEMBER_19_1_STROKES" class="st3" d="M228.3,77.4l0,0.2l-0.1,0.4l-0.4,0.6l-0.1,0.1l-0.1,0.2l-0.6,0.8l-1.9,1.9
	 M244.8,83.9l-5.5,1.7"/>
<path id="Layer3_8_MEMBER_20_1_STROKES" class="st5" d="M223.8,72.3l-0.2,0.1l-0.6,0.5l-4.3,4.1l-0.2,0.2l-0.4,0.3 M219,76.3
	l0.2-0.2l0-0.1l0.1-0.1l2.5-2.9 M256.5,36.5l-0.1,0.1l-0.1,0.1l-0.1,0.1l-0.4,0.4l-0.1,0l-1.9,1.9 M249.2,42.2l0.9-0.8l0.2-0.1
	l0.3-0.2 M226.3,73l0,0.1v0.3l0,0.1v0.1l0,0.2l0,0.1V74l0,0.1l-0.1,0.3v0.1l0,0.1l-1.2,4.7 M228.3,77.4v-0.2l0,0l0,0l0,0l-0.1,0
	l-0.1,0l-0.1,0h-0.1l-0.1,0l-0.5,0.2l-0.1,0.1l-0.5,0.3l-1,0.8l-0.5,0.6 M225.8,80.7l2-1.9"/>
<path id="Layer3_8_MEMBER_21_1_STROKES" class="st5" d="M263.3,38.6c-0.1,0.1-0.3,0.3-0.5,0.5l-1.8,3l-0.3,0.9l0,0.2l0,0l0.1,0
	l0.2,0l0.2-0.1l0.6-0.5l0.1-0.2l0.3-0.3l0.2-0.2l0.2-0.3 M256.6,36.5L256.6,36.5l-0.1,0.1l-0.5,0.8l-0.2,0.4l0,0.1l0,0l0,0.1l0,0
	l0,0.1l0,0v0.1l0,0l0,0.1l0.2,0.2l0.5,0.3l0.9,0.2l1.1,0.1l0.6-0.1l4.5-0.8 M261.9,42.4l0.2-0.2l0.1-0.2l0.2-0.2l0-0.1 M259.7,44.9
	l2.1-2.3 M188.9,123.6l1.5-0.4 M188.9,123.6l-1.1,1.9l0.4,1.5l1.5-0.4l1.1-2l-0.4-1.5l-1.5-0.9c-0.2-0.1-0.5-0.2-0.8,0
	c-0.3,0.1-0.6,0.3-0.9,0.6 M186.7,123.5l-0.1,0.1c-0.3,0.5-0.5,1.1-0.5,1.6s0.2,0.8,0.5,1l0.4,0.3 M187.7,125.5l-1.1-0.6
	 M187.7,122.9l1.1,0.7"/>
<path id="Layer3_8_MEMBER_22_1_STROKES" class="st5" d="M264.1,32.2l-1.7-0.1l-0.9,0.7l0.8,0.8l1.7,0.2l0.9-0.7L264.1,32.2z
	 M264,33.8l-0.1,1.1 M262.3,33.6l-0.1,1.1 M261.5,32.8l-0.1,1.5c0,0.3,0.1,0.5,0.5,0.7c0.3,0.2,0.7,0.3,1.2,0.4c0.5,0,0.9,0,1.2-0.2
	c0.4-0.2,0.5-0.4,0.6-0.6l0.1-1.5 M268.1,36.7l1.5-0.9l0.1,0 M270.1,35.3L270.1,35.3l-0.2,0.2 M287.6,39.5l2-1.1 M281.8,49.9v-0.4
	 M267.1,62.8L267.1,62.8L267.1,62.8l0.1,0.1v0h0v0h0l0.1,0.1l0.2,0.1l0.2,0 M266.8,62.8L266.8,62.8l0.2,0.6 M267.3,126.4l1.1,0.7
	l1.5-0.4l-1.5-0.9c-0.3-0.2-0.7-0.1-1.1,0.1c-0.4,0.3-0.8,0.7-1.1,1.2c-0.3,0.5-0.5,1.1-0.5,1.6c0,0.5,0.2,0.8,0.5,1l1.5,0.9
	l-0.4-1.5l-1.1-0.6 M268.4,127.1l-1.1,1.9 M267.7,130.5l1.5-0.4l1.1-2l-0.4-1.5 M189,108.1l1.5-0.4 M189,108.1l-1.1,2l0.4,1.5
	l1.5-0.4l1.1-2l-0.4-1.5l-1.6-0.9c-0.3-0.2-0.7-0.2-1.1,0.1c-0.4,0.2-0.8,0.6-1.1,1.2c-0.3,0.5-0.5,1.1-0.5,1.6c0,0.5,0.1,0.9,0.5,1
	h0l1.5,0.9 M187.9,110l-1.1-0.7 M188.1,127.1l-1.1-0.6 M187.9,107.4l1.1,0.7"/>
<path id="Layer3_8_MEMBER_23_1_STROKES" class="st5" d="M277.3,46.6l-0.2,0.1v0h0v0h0v0h0v0h0l0,0.1l0,0.1l-0.1,0.2l0,0.2
	 M277.6,48.7h-0.1l-0.1,0h0l0,0h0l0,0h0l0,0h0l0,0h0v0h0l0,0h0 M276.9,49.1L276.9,49.1L276.9,49.1l-0.2-0.7 M273.6,102.1
	L273.6,102.1L273.6,102.1L273.6,102.1l0,0.1v0l0,0v0l0,0v0l0,0v0l0,0h0v0l0,0v0l0.2,0.2 M274.3,105.3l-0.2,0.2l-0.1,0.2
	c-0.1,0.1-0.1,0.3-0.2,0.3l-0.1,0.3 M275.3,118l0.2-0.1"/>
<path id="Layer3_8_MEMBER_24_1_STROKES" class="st5" d="M271.7,36.3c0.1,0.3,0.2,0.5,0.3,0.8c0.3,0.5,0.6,0.9,1.1,1.2 M289.6,38.3
	l-0.2-0.3l0-0.1l-0.2-0.4 M289.9,37.7L289.9,37.7L289.9,37.7l-0.3-0.2 M279.2,34.2l0.2,0.2 M279.8,35.8v0.8 M279.8,43.3v0.6
	 M275,50.3v0.4l1.5,0.2l2.8,0.4c0.7,0,1.3-0.1,1.8-0.4c0.4-0.3,0.7-0.6,0.7-1 M278.9,49.2c-0.1,0.1-0.2,0.2-0.2,0.3
	c0,0.1,0.1,0.2,0.2,0.3c0.1,0.1,0.3,0.1,0.5,0.1c0.2,0,0.3,0,0.5-0.1c0.1-0.1,0.2-0.2,0.2-0.3c0-0.1-0.1-0.2-0.2-0.3 M281.8,49.4
	c0-0.4-0.2-0.7-0.7-1 M275,50.7l-0.9-0.5c-0.2-0.1-0.3-0.1-0.4,0c-0.1,0-0.2,0.2-0.2,0.3 M274.2,77.2l2.3-26.3 M273.5,101.8
	l-0.1-0.3l0.2-14.3 M273.9,106.4c0,0.2,0,0.3,0,0.5l1.6,11.1v1.9c0,0.5,0,0.9,0.1,1.2c0,0.3,0.1,0.5,0.2,0.5h0l2.2-1.2l0.1,6.1
	 M263.1,109.8V123 M273,123.1l2-1.2 M263.1,131v4.7l0.2,0.1"/>
<path id="Layer3_8_MEMBER_25_1_STROKES" class="st5" d="M269.1,19.6L269.1,19.6L269.1,19.6L269.1,19.6l-0.1,0l0,0h-0.1l0,0h-0.4
	 M267.1,36c0.1,0.2,0.3,0.3,0.4,0.4c0.1,0.1,0.3,0.1,0.4,0c0.1-0.1,0.2-0.2,0.2-0.4s-0.1-0.4-0.2-0.6l-0.1-0.1 M267.9,37.8
	c-0.1-0.2-0.2-0.4-0.2-0.6c0-0.2,0.1-0.3,0.2-0.4l0.1,0l0.1,0c0.1,0,0.1-0.1,0.1-0.1 M283.2,38.7c0.1,0.2,0.3,0.4,0.4,0.5
	c0.3,0.1,0.5,0.4,0.7,0.7l0,0c0.1,0.2,0.3,0.4,0.4,0.5c0.2,0.1,0.3,0.1,0.4,0 M279.2,44.8l0.3-0.2h0v0h0l0.1-0.1h0v0l0,0v0l0,0v0
	 M278.6,45.8c-0.1,0.1-0.2,0.2-0.2,0.4c0,0.2,0.1,0.4,0.2,0.6c0.1,0.2,0.2,0.4,0.4,0.5l2,1.2 M276.9,48.3c-0.1-0.1-0.1-0.3-0.1-0.5
	l0-0.5 M268.6,66.7L268.6,66.7l0,0.1l0,0v0l0,0v0l0,0l0,0v0l0,0v0l0,0v0l0,0l0,0l0,0v0l0.1,0.1l0,0l0.1,0.1h0 M267.1,79.2v-0.4
	 M276.2,101.7l-0.3-0.5"/>
<path id="Layer3_8_MEMBER_26_1_STROKES" class="st5" d="M276.6,30.4v2.5c0,0.2,0.1,0.4,0.2,0.6c0.1,0.2,0.2,0.3,0.4,0.4
	c0.2,0.1,0.3,0.1,0.4,0.1l1.2-0.3 M276.6,40.3v3.3c0,0.2,0.1,0.4,0.2,0.6s0.3,0.4,0.4,0.5c0.2,0.1,0.3,0.1,0.4,0 M278.5,44.2
	c-0.1-0.2-0.2-0.4-0.2-0.6v-1.4 M268.4,39.1l0,10.2c0,0.2,0.1,0.4,0.2,0.6l4.6-2.6 M267.3,37.3v11.7c0,0.2,0.1,0.4,0.2,0.6
	c0.1,0.2,0.3,0.4,0.4,0.5c0.1,0.1,0.2,0.1,0.2,0.1c0.1,0,0.1,0,0.1,0l0.3-0.2 M267,62.6c-0.1-0.2-0.1-0.3-0.1-0.5l0-1.4 M270.5,66.5
	c0.1,0.2,0.3,0.4,0.4,0.5c0.2,0.1,0.3,0.1,0.4,0c0.1-0.1,0.2-0.2,0.2-0.3 M270.3,68.6l0.1-0.1l0-0.1l0.1-0.1v-0.1l0-0.1v-0.1
	c0-0.2-0.1-0.4-0.2-0.5c-0.1-0.1-0.2-0.2-0.2-0.3l-2.2,0.6c-0.1,0-0.3,0-0.4-0.1c-0.1-0.1-0.3-0.2-0.4-0.4c-0.1-0.2-0.2-0.4-0.2-0.6
	v-1.4l-1.8-1.1 M270.1,67.3c-0.1-0.1-0.1-0.1-0.2-0.1l-1.3-0.8v0.1 M267,65.4l1.7,1 M264.8,63.7c0.1,0.1,0.2,0.2,0.3,0.2
	 M265.2,94.6l2.6,5.7 M265.8,97.7L265.8,97.7l0.1,0.1l0,0l0.3,0.3"/>
<path id="Layer3_8_MEMBER_27_1_STROKES" class="st5" d="M273.2,36v-9.3l0,0v-0.1l0,0v-0.1l0,0v0l0,0v0l0,0l0,0v0l0,0l0,0v0l0,0v0
	l-0.1-0.1 M279.9,34.8c0.2,0.3,0.4,0.5,0.6,0.6 M267.3,53.3c-0.1,0.1-0.2,0.2-0.2,0.4c0,0.2,0.1,0.4,0.2,0.6l4.7,8 M269,69.8
	l1.8,3.5l0.2-2.8c0-0.2,0-0.4-0.2-0.7c-0.1-0.2-0.2-0.3-0.4-0.4c-0.2-0.1-0.3-0.1-0.4-0.1l-5.9,1.7 M267.3,70.3
	c-0.2,0.2-0.2,0.5,0,0.9l3.2,6l0.3-3.9 M270.4,78.9l0.2-1.7 M264.1,72.1l1,1.9 M267,89.1c-0.1,0.1-0.2,0.2-0.2,0.4v0.6
	c0,0.1,0,0.3,0.1,0.5l2.8,6.1 M266.3,98.3l0.1,0.1h0l0,0h0v0h0l0.1,0.1h0l0.4,0.2 M267.8,100.3l0.2,0.5 M268.7,106.3l-1.5,0.6h0
	c-0.1,0.1-0.2,0.2-0.2,0.4c0,0.2,0.1,0.4,0.2,0.6l0,0l3.6,5.9l0.2,0.3 M264.8,132.6L264.8,132.6L264.8,132.6L264.8,132.6
	L264.8,132.6l0.1-0.1v0h0v0l0,0v0l0,0h0v0l0,0v0h0l0,0 M266,134.6l0.3-0.2"/>
<path id="Layer3_8_MEMBER_28_1_STROKES" class="st5" d="M271.7,16.8l-0.8,0.7l-0.2,0.2l-0.1,0.1l-0.5,0.6l-0.1,0.1l-0.3,0.4
	l-0.1,0.1l-0.3,0.4v0l-0.2,0.1 M271.1,24.1l-0.3,0.4l0,0l0,0.1l-0.1,0.1l0,0l-0.1,0.1l0,0v0l0,0v0l-0.1,0.1 M267.3,24.6v-1.7
	c0-0.4,0.1-0.7,0.3-0.9 M270.9,33.3c-0.2-0.1-0.4-0.2-0.6-0.2c-0.2,0-0.4,0.1-0.6,0.2 M259.2,32.5l1.8-1.7 M272.3,22.6l3.3-1.9
	 M272.3,126.3v5.4c0-0.5-0.2-1.1-0.5-1.7l-0.3-0.5c-0.2-0.4-0.3-0.8-0.3-1.2c0-0.4,0.1-0.6,0.3-0.8l0.3-0.2
	C272.1,127.2,272.3,126.9,272.3,126.3z M272.3,126.3V126c0-0.5-0.1-1-0.4-1.5 M272.3,124.1v2 M267.1,133.2c-0.2,0.2-0.4,0.4-0.6,0.7
	l1-0.6 M268.3,133.6l-0.2,0l-0.1,0h0v0H268l-0.4-0.2 M269.3,134.7v-0.1 M268.3,135.6v-1.6 M266.5,133.9c-0.1,0.2-0.1,0.3-0.2,0.5
	 M266.8,132.9l-1.2-0.7c-0.1-0.1-0.2-0.1-0.3-0.1 M263.5,131.5V131"/>
<path id="Layer3_8_MEMBER_29_1_STROKES" class="st5" d="M270.9,33.3l1.4,0.8c0.3,0.2,0.7,0.3,0.9,0.2 M263.1,135.6v0.8 M267.9,132.4
	l-0.6-0.8 M271.3,129.2v-0.9l0.9-0.1"/>
<path id="Layer3_8_MEMBER_30_1_STROKES" class="st5" d="M299.5,41.2l-3.9-2.5l-6-3.5 M267.6,20.1l-1.4,0.9l0,0.1l0,0.1l0,0.1l0,0
	l0,0.1l0,0l0,0.1l0,0l0,0l0,0.1l0,0l0,0.1l0,0l0,0.1l0,0l0,0.1l0,0l0,0.1l0,0l0,0.1l0,0l0,0.1l0,0l0,0.1l0,0l0,0.1l0,0l0,0.1l0,0
	l0,0.1l0,0.1l0,0l0,0.1l0,0.1l0,0l0,0.1l0,0l0,0.1l0,0l0,0.1l0,0.1l0,0l0,0.1l-0.1,0.1l-0.6,1.5l-0.8,3.3l-0.1,0.7v0.1l0,0.1v0.1
	l0,0.1v0.2 M282.4,33.4l-5.1-7.5 M273.4,22l-4.2-2.4 M286.3,42.6c0.1,0.1,0.2,0.2,0.3,0.3l3.5,2 M281.5,44.1
	c-0.1,0.1-0.2,0.2-0.2,0.4c0,0.2,0.1,0.4,0.2,0.6s0.3,0.4,0.4,0.5 M285.4,48l-4.9-2.9c-0.3-0.2-0.5-0.2-0.7-0.1 M268.4,39.1v10.2
	c0,0.2,0.1,0.4,0.2,0.6 M273.5,50l0.1-1c0-0.2,0.1-0.4,0.3-0.5 M268.7,52.5l0,0.1l3.5,6.1 M263.1,80.3v-7.2c0-0.2,0-0.3-0.1-0.5
	V41.1 M275.8,76.8l1.1-12.8c0-0.1,0-0.2,0-0.4l0,0v0c0-0.1-0.1-0.3,0-0.4l1-12 M277.9,120.3c-0.2-0.6-0.4-1.4-0.5-2.2l-1.7-11.8
	c-0.1-0.9,0.1-1.5,0.5-1.9l0.2-0.2 M275.9,101.2c-0.1-0.1-0.1-0.1-0.1-0.2c-0.5-0.8-0.7-1.6-0.7-2.3l0.2-12.2 M270.4,101.4
	c0,0.7,0.2,1.3,0.5,2 M263,88.8v3.5c0.2,0.4,0.2,0.6,0,0.8 M271.6,87.2c-0.2,0.1-0.3,0.1-0.3,0.1c-0.4,0.3-0.7,0.8-0.7,1.5
	 M268.8,87.7v0.8c0,0.2,0,0.3,0.1,0.5l1,2.1 M271,109c-0.1-0.9,0-1.5,0.5-1.9l0.1-0.2c0,0,0.1-0.1,0.1-0.1c0.2-0.3,0.2-0.6,0.2-1.1
	c0-0.4-0.2-0.9-0.4-1.4 M263,106.5v2.8c0.1,0.1,0.1,0.3,0.1,0.5 M272.3,124.1c0-0.2-0.1-0.4-0.2-0.6c-0.1-0.2-0.3-0.4-0.4-0.5
	l-7.3-4.2c-0.2-0.1-0.3-0.1-0.4,0c-0.1,0.1-0.2,0.2-0.2,0.4 M273,123.1l-0.5-3.5 M266.1,106.8c-0.1,0.4,0,0.9,0.3,1.5 M272.3,129.9
	l-0.3,0l-0.7-0.8"/>
<path id="Layer3_8_MEMBER_31_1_STROKES" class="st5" d="M273.3,22.7c-0.4-0.2-0.7-0.3-1-0.1c-0.2,0.2-0.4,0.4-0.4,0.8l0,0v0.1l0,0v0
	l0,0v0l0,0v0l0,0v0l-0.1,0.1v0 M272.7,23.1c0.2-0.1,0.4-0.1,0.6,0.1c0.2,0.1,0.4,0.4,0.6,0.6c0.2,0.3,0.2,0.6,0.2,0.8
	s-0.1,0.4-0.2,0.5c-0.2,0.1-0.4,0.1-0.6,0c-0.2-0.1-0.4-0.4-0.6-0.6c-0.2-0.3-0.2-0.5-0.2-0.8C272.5,23.4,272.5,23.2,272.7,23.1z
	 M279.1,34.1L279.1,34.1l-4.5-6.7c-0.1-0.2-0.3-0.3-0.4-0.4c-0.1-0.1-0.3-0.1-0.4,0c-0.1,0.1-0.2,0.2-0.2,0.4 M279.4,34.6
	L279.4,34.6L279.4,34.6L279.4,34.6l0.1,0.1v0l0,0l0,0v0l0,0l0,0v0l0,0v0l0,0v0l0,0v0l0,0v0.1l0,0v0l0,0 M273.6,46.3
	c0,0.2,0.1,0.4,0.2,0.6c0.1,0.2,0.3,0.4,0.4,0.5s0.3,0.1,0.4,0 M272.7,48.5L272.7,48.5L272.7,48.5L272.7,48.5L272.7,48.5L272.7,48.5
	l0.2-0.1 M279.8,43.1v-6.3"/>
<path id="Layer3_8_MEMBER_32_1_STROKES" class="st5" d="M273.1,48.2L273.1,48.2L273.1,48.2l0-0.1h0v0l0,0V37.7
	c0-0.2-0.1-0.4-0.2-0.6c-0.1-0.2-0.2-0.3-0.4-0.5l-3.9-2.3 M263.7,52c0,0.2,0.1,0.4,0.2,0.6c0.1,0.2,0.3,0.4,0.4,0.5
	c0.2,0.1,0.3,0.1,0.4,0 M270.3,68.8l0.1-0.1c0.2-0.1,0.4-0.4,0.4-0.8c0-0.4-0.1-0.8-0.4-1.2v0l-5.5-9.4c-0.1-0.2-0.3-0.4-0.4-0.5
	c-0.2-0.1-0.3-0.1-0.4,0c-0.1,0.1-0.2,0.2-0.2,0.4v5.9 M263.9,65v4.2c0,0.2,0.1,0.4,0.2,0.6c0.1,0.2,0.2,0.3,0.4,0.4
	c0.2,0.1,0.3,0.1,0.4,0.1 M265.1,75.1l2.3,4.4 M268.3,100.9l0.1,0.2c0.2,0.2,0.3,0.4,0.5,0.6c0.2,0.1,0.4,0.1,0.5,0
	c0.1-0.1,0.2-0.3,0.2-0.5l0.2-13.1c0-0.2,0-0.4-0.1-0.6 M265.2,94.6l-0.1-0.1c-0.1-0.2-0.3-0.4-0.4-0.5c-0.2-0.1-0.3-0.1-0.5,0
	c-0.1,0.1-0.2,0.2-0.2,0.4v9.7 M266.2,88.2l-2,1.6c0,0,0,0,0,0c-0.1,0.1-0.1,0.2-0.1,0.4v1c0,0.1,0,0.3,0.1,0.5 M268.1,101.3
	c0-0.1,0-0.3-0.1-0.5 M268.8,104.2c0,0.4,0.1,0.8,0.3,1.2c0.2,0.4,0.5,0.7,0.8,0.9c0.3,0.2,0.6,0.2,0.8,0.1c0.2-0.1,0.3-0.4,0.3-0.8
	c0-0.4-0.1-0.8-0.3-1.2c-0.2-0.4-0.5-0.7-0.8-0.9c-0.3-0.2-0.6-0.2-0.8-0.1C269,103.6,268.8,103.8,268.8,104.2z M271,119.9
	c0.2,0.1,0.4,0.1,0.5,0c0.2-0.1,0.3-0.3,0.2-0.6l-1.6-10.8c-0.1-0.4-0.2-0.8-0.4-1.1c-0.3-0.5-0.6-0.8-1-1.1c-0.4-0.2-0.7-0.3-1-0.2
	l-3.2,1.4l-0.1,0c-0.2,0.1-0.3,0.4-0.3,0.8c0,0.4,0.1,0.8,0.3,1.2 M270.3,121.6c0.2,0.1,0.4,0.1,0.5,0.1c0.2-0.1,0.2-0.3,0.2-0.5
	s-0.1-0.5-0.2-0.7l0,0l-5.7-9.4c-0.1-0.2-0.3-0.3-0.4-0.4c-0.2-0.1-0.3-0.1-0.4,0c-0.1,0.1-0.2,0.2-0.2,0.4v6.4
	c0,0.2,0.1,0.4,0.2,0.6c0.1,0.2,0.3,0.4,0.4,0.5 M264.3,106.3c0.3,0.4,0.5,0.5,0.8,0.4 M267.9,105.5c0.1-0.1,0.2-0.2,0.2-0.4"/>
<path id="Layer3_8_MEMBER_33_1_STROKES" class="st5" d="M271.9,24.7L271.9,24.7L271.9,24.7L271.9,24.7L271.9,24.7L271.9,24.7
	l-0.1-0.1h0v0l0,0h0v0l-0.1-0.1l-5-2.9h0l0,0h0v0h0v0h-0.1l0,0h-0.2 M272.8,36.4h0.2l0,0h0l0,0h0v0l0.1-0.1 M271.6,66.6l1.4-15.8
	c0-0.2,0-0.4-0.2-0.7c-0.1-0.2-0.3-0.4-0.4-0.5c-0.2-0.1-0.3-0.1-0.4,0l-7.8,4.5c-0.1,0.1-0.2,0.3-0.2,0.5c0,0.2,0.1,0.5,0.2,0.7
	 M264.1,80.2V75c0-0.2,0.1-0.3,0.2-0.4c0.1-0.1,0.3-0.1,0.5,0c0.2,0.1,0.3,0.3,0.4,0.5 M264.1,71.1c-0.1,0.1-0.2,0.2-0.2,0.5
	c0,0.2,0.1,0.4,0.2,0.5"/>
<path id="Layer3_8_MEMBER_34_1_STROKES" class="st5" d="M295.1,21.8l0.2,0.1l0.3,0.2l0.1,0.1l0.2,0.1l0.1,0.1l0.1,0.1l0.2,0.1
	l0.5,0.4l1.1,1.3l0.3,0.4l0.1,0.1l0.5,0.9l0,0.1l0,0v0l0,0v0l0,0v0l0,0v0l0.1,0.1v0l0,0v0l0,0h0v0l0,0v0l0,0h0v0l0,0h0v0l0,0h0v0h0
	l0,0h0 M272.1,25L272.1,25L272.1,25L272.1,25l0.1,0.1l0.1,0.1v0h0l0,0l0,0v0l0.1,0.1v0l0.1,0.1v0l0,0h0l0,0 M286.7,40.5
	c0.1-0.1,0.2-0.2,0.2-0.4c0-0.2-0.1-0.4-0.2-0.6c-0.1-0.2-0.3-0.4-0.4-0.5l-5.4-3.1c-0.2-0.1-0.3-0.1-0.4,0
	c-0.1,0.1-0.2,0.2-0.2,0.4 M280.2,42.6c0,0.2,0.1,0.4,0.2,0.6c0.1,0.2,0.3,0.4,0.4,0.5c0.2,0.1,0.3,0.1,0.4,0 M301.9,57.2l-11.6-6.7
	l-4.9-2.6 M279.8,45.1l-6,3.5 M276.4,104.1c0.2-0.3,0.2-0.6,0.2-1.1c0-0.4-0.2-0.9-0.4-1.4 M266.7,99.2l0.7,0.4 M263.4,135.7l2-1.1
	c0.1,0,0.2-0.1,0.3-0.1c0.1,0,0.2,0,0.3,0.1"/>
<path id="Layer3_8_MEMBER_35_1_STROKES" class="st5" d="M273.4,21.3v-0.2l0,0l0-0.1v-0.1l0,0l0-0.1v0l0.1-0.3l0,0l0-0.1l0,0l0-0.1
	l0,0l0,0l0,0l0,0l0,0l0.1-0.1l0,0l0,0l0,0h0l0,0l0,0h0l0,0h0.1l0,0h0.1l0,0h0l0,0h0v0h0l0,0h0l0,0v0h0l0,0v0h0v0l0,0v0l0,0v0h0v-0.1
	l0,0v-1.1h0v-0.2l0,0v-0.1l0,0v0h0v0l0,0v0l0,0v0l0,0v0l0,0h0l0.1-0.1h0v0h0l0,0h0l0,0"/>
<path id="Layer3_8_MEMBER_36_1_STROKES" class="st5" d="M298.5,51.8l-2-3.5 M295.1,45.9l-1.6-2.8 M282.9,37.1v4l0,0v0.1l0,0v0l0,0.1
	v0l0.1,0.1l0,0l0,0.1l0.1,0.1l0,0l0.1,0.1l0,0l0,0l0,0l0,0l0,0l0,0l0,0h0l0,0l0,0l0,0h0l0,0h0.2 M283.2,39.9c0,0.2,0.1,0.4,0.2,0.6
	c0.1,0.2,0.3,0.4,0.4,0.5c0.2,0.1,0.3,0.1,0.4,0 M295.1,50.9l-11.3-6.5h0l0,0l-0.1,0l0,0l0,0l0,0l-0.1-0.1l0,0l0,0l-0.1-0.3
	 M286.8,44.2c0,0.2,0.1,0.4,0.2,0.6c0.1,0.2,0.3,0.3,0.4,0.5l5.9,3.4 M283.1,42.6L283.1,42.6L283.1,42.6l-0.2,0l0,0h0l0,0h0l0,0h0
	l0,0l0,0l0,0l-0.1-0.1l0,0l0,0l0,0l0-0.1l0,0l0-0.1l0,0l-0.1-0.2v0l0-0.1v0l0,0v0l0-0.1v-4.8"/>
<path id="Layer3_8_MEMBER_37_1_STROKES" class="st5" d="M265.7,27.5l0.8-3.6l0.5-1.5l0.2-0.5 M277.7,36.1c-0.1,0.1-0.2,0.2-0.2,0.4
	c0,0.2,0.1,0.4,0.2,0.6l0.2,0.2l1.9,2.3 M279.8,40.8l-3.3-3.9l0,0v0l-0.1-0.1v0h0v0l0,0v0l0,0v0 M289.1,40.6l-2.7,1.5
	c-0.1,0.1-0.2,0.2-0.2,0.4c0,0.2,0.1,0.4,0.2,0.6l0.1,0.1l0.1,0.2c0.2,0.3,0.2,0.5,0.2,0.8 M279.4,43.7l-2,1.2 M265.9,54L265.9,54
	L265.9,54l0-0.1v-0.1l0,0v0l0,0v-0.4l0,0v0l0,0v0l0,0"/>
<path id="Layer3_8_MEMBER_38_1_STROKES" class="st5" d="M272.9,51.1c-0.1-0.2-0.3-0.4-0.4-0.5c-0.2-0.1-0.3-0.1-0.5,0l-5,2.9
	 M266.5,52L266.5,52l-0.1,0l0,0l0,0h0l-0.1-0.1l0,0l0,0l0,0l0,0l-0.1-0.1l0,0l-0.1-0.1l-0.1-0.1l0,0l0-0.1l0-0.1l0,0v0l0,0V51l0,0
	V37.9 M266.8,69.2h-0.2v0h-0.1v0h-0.1v0h0v0h0v0h0v0h0v0h0l0,0h0v0l0,0h0v0h0v0l0,0v0h0l0,0v0h0v0l0,0v0l0,0v0h0v0l0,0v0l0,0v0l0,0
	v0l0,0v0l0,0v0l0,0v0l0,0v-0.1 M271.8,64.1l-5.7-9.8"/>
<path id="Layer3_8_MEMBER_39_1_STROKES" class="st5" d="M279.4,44.4L279.4,44.4L279.4,44.4L279.4,44.4L279.4,44.4L279.4,44.4
	l-0.1,0.1h0 M269.2,64.7l-2.9-1.7l-0.1-0.1l-0.2-0.2l-0.1-0.2l-0.1-0.3v-0.1l0-0.1V59 M270.6,68.1l-3.7,1.1 M270.2,78.7l-4.2-7.9
	l0-0.1l0-0.1 M265.9,68.1v-3.3 M266,79.8v-3 M269.7,98.5l-3.6-8l-0.1-0.3v-0.1l-2,1.1 M266,90.1V89l0-0.2l0.1-0.1 M268.8,87.7
	l-1.7,1.4 M266.9,114v1.7c0,0.2,0.1,0.4,0.2,0.6c0.1,0.2,0.2,0.4,0.4,0.5l1.6,0.9 M270.1,119.2l-3.4-2l0,0h0l-0.1-0.1h0l0,0v0l0,0v0
	l-0.2-0.2v0l-0.1-0.1v0l0,0v0l0,0v0l0,0v0l0,0v0l0,0v0l0,0v0l0,0v-3.8 M271.3,116.3l-4.8-8"/>
<path id="Layer3_8_MEMBER_40_1_STROKES" class="st5" d="M297.2,53.6h-0.1l0,0H297l0,0h0v0h0l-0.1-0.1h0v0h0v0h0v0h0v0h0v0l0,0v0h0v0
	l-0.2-0.4l-0.1-0.1 M295.7,52.5L295.7,52.5L295.7,52.5L295.7,52.5l-0.1,0.1v0l0,0h0v0h0v0l0,0h0l0,0v0h0v0l0,0h0l0,0h0 M279.7,35.6
	c-0.2-0.2-0.4-0.2-0.5-0.2l-4.5,1.2c-0.1,0.1-0.2,0.2-0.2,0.4c0,0.2,0.1,0.4,0.2,0.6l0.2,0.2 M279.5,43.8l-0.1-0.2
	c0-0.1-0.1-0.2-0.2-0.2l-4.4-5.2c-0.1-0.1-0.3-0.2-0.4-0.3l-0.1,0h-0.1l-0.1,0l-0.3,0.1l-0.1,0.1l-0.1,0.1l-0.1,0.2"/>
<path id="Layer3_8_MEMBER_41_1_STROKES" class="st5" d="M295.7,52.3c0-0.2,0-0.4-0.2-0.6l-1.2-2.1 M298.3,47.3l1.9,3.2 M288,40.4
	l0.1,0h0.3l0.2,0l0.2,0.1l0.1,0.1l0,0l0.1,0l0,0l0,0c0.1,0.1,0.2,0.2,0.2,0.3l4.1,7.1 M269.5,121.8l-1.1,0.6"/>
<path id="Layer3_8_MEMBER_42_1_STROKES" class="st5" d="M297.1,45.2l0.5,0.1c0.2,0.1,0.4,0.1,0.6,0l4.1-0.6 M294.6,47.6
	c-0.1,0-0.2,0.1-0.4,0.2l-0.1,0.2c-0.1,0.2-0.1,0.3-0.1,0.4c0,0.1,0,0.2,0.1,0.3c0.1,0.1,0.2,0.1,0.3,0 M294.9,52.8
	c0.1,0.1,0.2,0.1,0.3,0.1 M303.3,50.5l-4.9,2.8c-0.1,0.1-0.2,0.2-0.2,0.4v0.1l0,0.1v0.7c0.1,0.2,0.2,0.3,0.4,0.3 M265.8,103.4
	l1.1-0.5l-1.2-0.7v0.9L265.8,103.4z M265.8,103.4l-2,0.8 M265.8,102.2c0-0.1,0-0.2-0.1-0.2 M268.1,102.6l-0.2-0.1
	c-0.1,0.1-0.2,0.1-0.3,0.2l-0.6,0.2 M268.7,122.2c0.2-0.1,0.3-0.4,0.3-0.7 M269.3,121.9c-0.3,0.2-0.5,0.6-0.5,1.1v0.4h0v0.2l0,0
	l0.4,0c0.3,0,0.6-0.2,0.9-0.6l0,0v0h0v0h0v0h0v-0.1h0v0l0,0v-0.1l0,0v-0.1l0,0v-0.4 M268.4,122.4c-0.3,0.2-0.5,0.6-0.5,1.1l1,0
	 M267.9,123.5l-0.7,0c-0.4,0-0.9,0.1-1.4,0.5 M270.1,124.1c0.3,0,0.6-0.2,0.9-0.6 M268.1,135.9l-0.2-0.3c0-0.1-0.1-0.2-0.2-0.3
	c-0.2-0.1-0.4-0.1-0.6,0l-3.7,1.4 M269.3,134.6c0-1.5-0.5-2.5-1.4-3c-0.2-0.1-0.4-0.2-0.5-0.2l-1-0.3 M290.1,44.9l2.5,1.6
	 M296.3,44.6l-6.2-3.2"/>
<path id="Layer3_8_MEMBER_43_1_STROKES" class="st5" d="M294.9,48c0-0.1-0.1-0.2-0.2-0.3l-0.1,0 M299.9,40.9
	c-0.8,0.5-1.5,1.1-2.2,1.9l-3.8,4.5l-0.3,0.4c-0.1,0.2-0.2,0.4-0.2,0.6c-0.2,0.6-0.1,1,0.3,1.2c0.2,0.1,0.5,0.1,0.8-0.1l6.7-3.9
	 M270.1,126.7L270.1,126.7L270.1,126.7l0.1-0.1h0v0h0.3l0,0h0v0h0l0,0h0v0h0l0,0v0h0l0,0v0l0,0v0h0v0l0,0v0l0,0v0.1l0,0v1.8l0,0v0
	l0,0.1v0l0,0v0.1l0,0v0l0,0v0l0,0v0.1h0l0,0v0l0,0v0l0,0v0l0,0v0l0,0v0l-0.1,0.1v0l-0.1,0.1v0l-0.1,0.1l0,0l0,0h0v0l0,0v0l0,0h0l0,0
	h0l0,0h0l0,0h0l0,0h0"/>
<path id="Layer3_8_MEMBER_44_1_STROKES" class="st5" d="M266.9,25.6l0.1-0.2c0.2-0.3,0.3-0.6,0.3-0.9 M269.8,23.4l0,0.1v0l0,0.1v0.5
	l0,0v0.1l0,0v0.1l0,0.1v0.1l-0.1,0.1 M265.4,31.3l2.1-1l0,0h0l0,0h0l0,0h0.1l0,0h0l0,0h0.1l0,0h0.5l0,0h0.1l0,0h0.1l0,0h0.1l0,0l0,0
	h0.1l0,0l0,0h0l0,0h0l0,0l0.1,0.1v0h0l0.1,0.1v0l0,0v0h0v0l0,0v0.2h0v0h0v0l0,0v0h0l-1.5,1.7 M269.7,26c0.2-0.2,0.4-0.5,0.6-0.8
	 M270.4,16.6l4.8-2.9 M276.8,102.7c0.2-0.1,0.3-0.3,0.3-0.7c0-0.3-0.1-0.7-0.3-1c-0.2-0.3-0.4-0.6-0.7-0.8c-0.3-0.2-0.5-0.2-0.7-0.2
	 M266.3,99.2l-0.6,0.4 M263,104.2V93.1 M269.7,130.1h-0.5 M267.9,132.8v0.5l-0.6,0l-0.7-0.8v-0.9l0.6-0.1 M263.2,136.4
	c0,0.1,0,0.2,0.1,0.2c0,0,0.1,0.1,0.2,0"/>
<path id="Layer3_8_MEMBER_45_1_STROKES" class="st5" d="M266.8,26.4L266.8,26.4L266.8,26.4L266.8,26.4L266.8,26.4l0.1-0.1v0h0v-0.1
	l0,0v0l0,0V26l0,0v-0.1l0,0v-0.3 M273.1,30.1l-1.3,0.6c-0.6,0.3-1,0.6-1.3,0.9 M266.7,26.5l-2.6,2.8c-0.1,0.1-0.2,0.1-0.3,0.2
	l-0.8,0.4l0.3,0.2h0.3l0.3,0l0.1,0c0.4-0.1,0.9-0.4,1.3-0.8l3.7-3.5c0.3-0.2,0.5-0.5,0.6-0.8 M269.7,26l-3.5,3.4
	c-0.5,0.5-0.8,0.9-0.9,1.3l0,0.2V31l0,0.2l0.3,0.2l-1.7,0.8h0l0,0h0l0,0h0v0 M263,29.9l-2,0.9 M258.9,34.3c0.1-0.3,0.2-0.5,0.3-0.8
	l0.1-1.1 M260.7,32.8l0.1-0.2c0-0.1-0.1-0.2-0.2-0.3c0,0,0,0,0,0l-0.6-0.4 M264.9,37.6c0.3-0.1,0.6-0.2,0.8-0.3
	c0.3-0.1,0.5-0.3,0.6-0.5l4.1-4.3c0.4-0.4,0.8-0.7,1.3-0.9l1.5-0.7 M267.8,32.6l-0.7,0.7v0l-0.1,0l0,0h0l0,0l0,0h0l-0.1,0h0l0,0h0
	l0,0h-0.1l0,0h-0.1l0,0h-0.1"/>
<path id="Layer3_8_MEMBER_46_1_STROKES" class="st5" d="M298.5,50.9c0.1,0.2,0.3,0.4,0.4,0.5c0.2,0.1,0.3,0.1,0.4,0.1 M276.4,14.8
	l-0.1,0.1v0h0v0l0,0v0l-0.1,0.1l0,0.1l0,0l0,0l0,0l-0.1,0.2l0,0l0,0v0l0,0.1l0,0v0l0,0.1v0l0,0l0,0V16l0,0.1v0.1l0,0v0l0,0v0.1l0,0
	v0.2l0,0v0.1 M279,18.4c0,0.2,0.1,0.4,0.2,0.7c0.1,0.2,0.3,0.4,0.5,0.5c0.2,0.1,0.3,0.1,0.5,0.1c0.1-0.1,0.2-0.2,0.2-0.5
	c0-0.2-0.1-0.4-0.2-0.7c-0.1-0.2-0.3-0.4-0.5-0.5c-0.2-0.1-0.4-0.1-0.5-0.1C279,18,279,18.2,279,18.4z M274.9,27.4l-0.1-0.1
	c-0.2-0.3-0.3-0.6-0.3-0.9v-1.4 M285.8,26c0.4,0.2,0.8,0.6,1.1,1.2c0.3,0.5,0.5,1.1,0.5,1.5c0,0.5-0.2,0.8-0.5,1
	c-0.3,0.2-0.7,0.1-1.1-0.1c-0.4-0.2-0.8-0.6-1.1-1.2c-0.3-0.5-0.5-1-0.5-1.5c0-0.5,0.2-0.8,0.5-1C285,25.7,285.4,25.7,285.8,26z
	 M282,26.6c-0.2,0.1-0.5,0.1-0.9-0.1c-0.3-0.2-0.6-0.5-0.9-0.9c-0.2-0.4-0.4-0.8-0.4-1.2c0-0.4,0.1-0.7,0.4-0.8
	c0.3-0.1,0.6-0.1,0.9,0.1c0.4,0.2,0.7,0.5,0.9,0.9c0.2,0.4,0.4,0.8,0.4,1.2C282.4,26.2,282.3,26.5,282,26.6z M284.2,41l2.4-1.4
	 M291.3,19.5c-0.3,0.4-0.4,0.7-0.5,1.1 M287.9,40.4l-6.5,3.8 M265.7,99.5c0,0.1-0.1,0.2-0.1,0.3v2.2 M263.8,104.2
	c-0.2,0.1-0.4,0.1-0.5,0.1c-0.2,0-0.4-0.1-0.6-0.2l-1.3-0.7c-0.2-0.1-0.3-0.1-0.4,0l-0.3,0.2c-0.1,0.1-0.2,0.2-0.2,0.3v0.7
	c0,0.2,0.1,0.4,0.2,0.5c0.1,0.2,0.2,0.3,0.4,0.5l1.7,1h0.9l4.4-1.8v-3.5 M261,104.2v0.5c0,0.1,0,0.2,0.1,0.4
	c0.2,0.3,0.4,0.4,0.5,0.3c0.1,0,0.1-0.1,0.1-0.2v-0.6c0-0.1,0-0.3-0.1-0.4c-0.1-0.1-0.2-0.2-0.3-0.3c-0.1-0.1-0.2-0.1-0.3,0
	C261,104,261,104.1,261,104.2z M266.7,99.2c-0.2-0.1-0.3-0.1-0.4,0 M268.1,105.1v-0.3 M266.8,120.2l-0.3,0.2l0.5,0 M267.4,120.5
	l0.5,0.6v0.9l-0.6,0.1l-0.7-0.8v-0.9 M272.4,124.5l-0.7,0l-0.6-0.8v-0.9l0.5,0 M262.8,104.8v1.2 M263.7,104.8v1.2 M268.3,134.1
	c0-1.2-0.3-2.1-0.9-2.7 M289.2,37.4l3-17.3"/>
<path id="Layer3_8_MEMBER_47_1_STROKES" class="st5" d="M275.7,13.4l-0.5,0.3"/>
<path id="Layer3_8_MEMBER_48_1_STROKES" class="st5" d="M303.7,21.4l-12.1-6.9l-2.9-1.3"/>
<path id="Layer3_8_MEMBER_49_1_STROKES" class="st5" d="M275.6,25.9v-9.1"/>
<path id="Layer3_8_MEMBER_50_1_STROKES" class="st5" d="M277.3,25.8l-0.9,0.5"/>
<path id="Layer3_8_MEMBER_51_1_STROKES" class="st5" d="M275.6,25.9c0,0.3,0.1,0.4,0.2,0.5c0.2,0.1,0.4,0.1,0.6-0.1"/>
<path id="Layer3_8_MEMBER_52_1_STROKES" class="st5" d="M273.2,42.5l-3.7-6.4"/>
<path id="Layer3_8_MEMBER_53_1_STROKES" class="st5" d="M273.2,47.3l-6.4-10.9"/>
<path id="Layer3_8_MEMBER_54_1_STROKES" class="st5" d="M289.2,37.4l-0.5,0.3"/>
<path id="Layer3_8_MEMBER_55_1_STROKES" class="st5" d="M290.7,20.6l-2.9,16.4"/>
<path id="Layer3_8_MEMBER_56_1_STROKES" class="st5" d="M287.9,37c-0.1,0.4,0,0.6,0.1,0.7c0.2,0.1,0.4,0.1,0.7-0.1"/>
<path id="Layer3_8_MEMBER_57_1_STROKES" class="st5" d="M290.1,22.6l0.2,0.8"/>
<path id="Layer3_8_MEMBER_58_1_STROKES" class="st5" d="M289.8,26.1l-7.2-2.1"/>
<path id="Layer3_8_MEMBER_59_1_STROKES" class="st5" d="M281.6,22.6c0,0.2,0.1,0.4,0.2,0.6c0.2,0.4,0.5,0.7,0.8,0.8"/>
<path id="Layer3_8_MEMBER_60_1_STROKES" class="st5" d="M281.1,20l0.5,2.6"/>
<path id="Layer3_8_MEMBER_61_1_STROKES" class="st5" d="M288.2,22l2,0.6"/>
<path id="Layer3_8_MEMBER_62_1_STROKES" class="st5" d="M282.3,20.3l-1.2-0.4"/>
<path id="Layer3_8_MEMBER_63_1_STROKES" class="st5" d="M285.1,21.1l-0.2-0.1"/>
<path id="Layer3_8_MEMBER_64_1_STROKES" class="st5" d="M290.1,22.6l-0.5-2.5"/>
<path id="Layer3_8_MEMBER_65_1_STROKES" class="st5" d="M289.6,20.1c0-0.2-0.1-0.4-0.2-0.6c-0.2-0.4-0.5-0.7-0.9-0.8"/>
<path id="Layer3_8_MEMBER_66_1_STROKES" class="st5" d="M288.5,18.7l-7.3-2.1"/>
<path id="Layer3_8_MEMBER_67_1_STROKES" class="st5" d="M281.2,16.6c-0.2,0-0.3,0-0.4,0c-0.2,0.1-0.3,0.4-0.2,0.8"/>
<path id="Layer3_8_MEMBER_68_1_STROKES" class="st5" d="M281.1,19.9l-0.5-2.5"/>
<path id="Layer3_8_MEMBER_69_1_STROKES" class="st5" d="M288.3,22.4c-0.1-0.4-0.2-0.7-0.4-1.1c-0.3-0.5-0.7-0.9-1.1-1.2
	c-0.5-0.3-0.8-0.3-1.2-0.1c-0.2,0.1-0.3,0.3-0.4,0.6c-0.1,0.3-0.1,0.6,0,0.9"/>
<path id="Layer3_8_MEMBER_70_1_STROKES" class="st5" d="M285.1,21.5c0.1,0.3,0.2,0.7,0.4,1.1c0.3,0.5,0.7,0.9,1.2,1.2
	c0.4,0.3,0.8,0.3,1.1,0.1c0.4-0.3,0.6-0.8,0.4-1.5"/>
<path id="Layer3_8_MEMBER_71_1_STROKES" class="st5" d="M286.7,22.9c0.2,0.2,0.4,0.2,0.6,0.1c0.2-0.1,0.3-0.3,0.3-0.6
	c0-0.3-0.1-0.6-0.3-0.9c-0.2-0.3-0.4-0.5-0.6-0.7c-0.2-0.1-0.5-0.1-0.6,0"/>
<path id="Layer3_8_MEMBER_72_1_STROKES" class="st5" d="M286.1,20.8c-0.2,0.1-0.3,0.3-0.3,0.6"/>
<path id="Layer3_8_MEMBER_73_1_STROKES" class="st5" d="M284.9,21.3c-0.1-0.3-0.2-0.7-0.3-0.9c-0.3-0.4-0.6-0.8-0.9-1
	c-0.4-0.2-0.7-0.2-0.9-0.1c-0.3,0.2-0.5,0.6-0.3,1.2"/>
<path id="Layer3_8_MEMBER_74_1_STROKES" class="st5" d="M282.4,20.6c0.1,0.3,0.2,0.7,0.3,0.9c0.3,0.4,0.6,0.8,0.9,1
	c0.4,0.2,0.7,0.3,0.9,0.1c0.3-0.2,0.5-0.6,0.3-1.2"/>
<path id="Layer3_8_MEMBER_75_1_STROKES" class="st5" d="M284.3,21.2c0-0.2-0.1-0.3-0.2-0.5c-0.2-0.2-0.3-0.4-0.5-0.5
	c-0.2-0.1-0.4-0.1-0.5,0c-0.2,0.1-0.2,0.3-0.2,0.7"/>
<path id="Layer3_8_MEMBER_76_1_STROKES" class="st5" d="M283.7,21.8c0.2,0.1,0.4,0.1,0.5,0c0.2-0.1,0.3-0.4,0.2-0.7"/>
<path id="Layer3_8_MEMBER_77_1_STROKES" class="st5" d="M282.8,33.8l5.1,2.9"/>
<path id="Layer3_8_MEMBER_78_1_STROKES" class="st5" d="M282.5,33.5l0.1,0.1h0l0,0v0h0"/>
<path id="Layer3_8_MEMBER_79_1_STROKES" class="st5" d="M277.3,14.7v11.1"/>
<path id="Layer3_8_MEMBER_80_1_STROKES" class="st5" d="M302,25.7l-13.5-7.8l-3.6-1.7l-0.7-0.3l-3.7-0.9l-2.9-0.3l-1.7,0.1l-2.4,0.5
	l-2,0.8l-0.6,0.3l-1.7,1.2l-0.4,0.3l-2.1,2.5 M263.9,71.5v-0.1 M226.8,85.3l0.3-0.2 M251.3,125l-0.1,0l-0.1,0l-0.1,0l-0.1,0
	 M251.6,124.8l-0.1-0.2 M216.9,89.6c0.2,0.1,0.5-0.1,0.9-0.5 M184.6,100.3L184.6,100.3L184.6,100.3l0,0.2h0c0,0.2-0.1,0.3-0.1,0.5
	 M186,113.7l0.8-0.4 M186.2,123.7l0.5-0.3 M186.1,117l0.8-0.4 M177.6,116.8c-0.2,0.7,0,1.5,0.5,2.5c0.5,0.9,1.2,1.5,1.9,1.7
	 M182.5,110.4c0.2,0.1,0.6,0.2,1,0.4 M184.9,131l0.9-0.5 M186.1,130.4l0.8-0.4 M188.1,120.1l0.8,0.5"/>
<path id="Layer3_8_MEMBER_81_1_STROKES" class="st5" d="M186,113.6c-0.1,0-0.1,0.1-0.2,0.1c0.4-0.2,0.6-0.5,0.6-1
	c0-0.5-0.2-1.1-0.5-1.6l-0.2-0.3 M185.9,113.7c-0.1,0.1-0.1,0.3-0.1,0.5v1.7c0,0.3,0.1,0.6,0.3,1l0,0l0,0c0.2,0.4,0.3,0.8,0.3,1.2
	v4.7c0,0.3-0.1,0.5-0.2,0.7c-0.3,0.6-0.5,1.3-0.5,2.2c0,0.9,0.2,1.8,0.5,2.7l0,0l0.1,0.6c0.1,0.7-0.1,1.1-0.5,1.4 M183.4,139.4
	l0-6.6c0-0.7,0.2-1.2,0.5-1.6"/>
<path id="Layer3_8_MEMBER_82_1_STROKES" class="st5" d="M210,85.6c0.1,0,0.2,0,0.4-0.1c0.2-0.1,0.4-0.2,0.5-0.4 M184.7,100.1l2-5.3
	 M185.7,110.8l-0.4-0.6c-0.6-1-0.9-2-1-2.9c-0.1-1,0.1-1.8,0.5-2.3c0,0,0,0,0,0c0.4-0.6,0.4-1.4,0-2.5c-0.2-0.5-0.3-1-0.3-1.5
	 M183.6,105.8l0,0.1 M183.7,109.6L183.7,109.6L183.7,109.6L183.7,109.6l0-0.4 M185.3,114.1l0,0.2 M185.9,118v0.2l0,0v0.1h0v0l0,0v0
	 M185.7,129.5c0-0.1,0-0.2,0-0.3l0-0.4l0,0v-0.3l0-0.4"/>
<path id="Layer3_8_MEMBER_83_1_STROKES" class="st5" d="M183.1,79.5l-1.2,0.7l-0.1,0.1l-0.1,0.1l-1.4,1.2 M187.6,78.1l3.4-0.5
	 M244,100l3.4,4.4 M232.8,88.4c-0.2-0.3-0.4-0.6-0.6-0.7l-4.4-2.5c-0.2-0.1-0.4-0.2-0.6-0.1 M226.9,105.1l-0.8-0.6 M235.4,103.6
	c0.2,0.1,0.4,0.3,0.5,0.5c0.1,0.2,0.2,0.5,0.2,0.7c0,0.2-0.1,0.4-0.2,0.5c-0.1,0.1-0.3,0.1-0.5,0c-0.2-0.1-0.4-0.3-0.5-0.5
	c-0.1-0.2-0.2-0.5-0.2-0.7c0-0.2,0.1-0.4,0.2-0.5C235.1,103.5,235.2,103.5,235.4,103.6z M237,104.1l0.6,0.8 M236.8,113.5
	c-0.6-0.9-1.3-1.7-2.1-2.3 M254.6,116.4l-1.4-2.8v0l0,0v0h0v0h0v0l0,0v0l0,0v0l0,0v0l0,0l-1.2-2.1 M243.1,123.4
	c-0.2-0.6-0.5-1.2-0.8-1.7l-0.4-0.7 M247.8,144.1c0.3-0.4,0.4-1,0.3-1.7l-1.2-8.5c-0.1-0.7-0.3-1.3-0.5-1.9 M201,90.1
	c0.2,0.1,0.4,0.2,0.7,0.3l0.1,0l5.8,3.4l6.1,3 M188.9,90.2l2-3.1 M179.1,104.7c0.2,0.4,0.3,0.8,0.3,1.2c0,0.4-0.1,0.6-0.3,0.8
	c-0.2,0.1-0.5,0.1-0.8-0.1c-0.3-0.2-0.6-0.5-0.8-0.9c-0.2-0.4-0.3-0.8-0.3-1.2c0-0.4,0.1-0.6,0.3-0.8c0.2-0.1,0.5-0.1,0.8,0.1
	C178.6,104,178.8,104.3,179.1,104.7z M184.5,110.8l-0.1-0.2l-0.1-0.1l-0.1-0.1l-0.1,0H184 M177.5,121.8c0.7,0.5,1.3,0.6,1.8,0.3
	c0.4-0.3,0.7-0.7,0.7-1.5c0-0.7-0.2-1.4-0.7-2.2c-0.4-0.7-1-1.3-1.6-1.7c-0.6-0.4-1.1-0.4-1.6-0.2c-0.5,0.3-0.7,1-0.6,1.9
	 M185.5,120.8c0-0.1,0-0.1-0.1-0.2c0,0-0.1,0-0.2,0 M184.8,120.9V119"/>
<path id="Layer3_8_MEMBER_84_1_STROKES" class="st5" d="M243.1,123.4l3.2,8.7 M193.2,87.2l7.8,3 M191.1,87l-5.1,1.7l-0.4,0.2
	c-0.3,0.2-0.6,0.5-0.8,0.8l-3.2,5c-0.2,0.4-0.4,0.8-0.5,1.3l-1.2,7.1c-0.1,0.6,0,1.3,0.3,2v0h0v0h0v0.1h0v0.1h0v0
	c0.3,1,0.3,1.7-0.1,2.3 M178.8,112.3l0.1-2.2 M173.9,130.8L173.9,130.8l-0.1-0.1l-0.1-0.1l0,0l0,0l0,0l0,0l0,0l0,0l0,0l0,0l0,0l0,0
	l0,0v0l0,0l0-0.1l0,0v0l0,0l0,0 M176.7,132.2L176.7,132.2l0.1-0.1l0-0.1l0,0v0l0,0l0,0v-0.1l0,0v0"/>
<path id="Layer3_8_MEMBER_85_1_STROKES" class="st5" d="M226.9,105.1l7.8,6.1 M252.6,138.8l0.1,0.1c0.2,0.2,0.5,0.3,0.6,0.2
	c0.2-0.1,0.3-0.3,0.2-0.6l-1.1-3.9c0-0.2-0.1-0.3-0.2-0.5c-0.3-0.5-0.6-0.7-0.9-0.8c-0.5-0.1-0.9-0.4-1.2-1l0-0.1l0-0.1
	c-0.2-0.3-0.4-0.5-0.6-0.7c-0.3-0.1-0.5-0.2-0.6-0.1c-0.1,0-0.1,0.1-0.1,0.1l-1,1.5c-0.2,0.2-0.1,0.5,0.1,0.9l0.2,0.3l0.4,0.4
	 M247.8,135.7l2.1,7.8l0.2,0.3c0.1,0.2,0.3,0.4,0.4,0.5c0.2,0.1,0.3,0.1,0.4,0l0.1,0l2.6-2.8c0,0,0,0,0,0c0.1-0.1,0.2-0.3,0.1-0.6
	c0-0.3-0.1-0.5-0.2-0.8l-0.3-0.4l-4.5-4.5c-0.3-0.2-0.5-0.3-0.6-0.2C247.8,135.2,247.7,135.4,247.8,135.7z M247.7,144.3
	c-0.3,0.6-0.3,1.4,0.1,2.4 M254,144.6c0-0.2-0.1-0.3-0.2-0.5c-0.1-0.2-0.3-0.4-0.4-0.5c-0.2-0.1-0.3-0.1-0.5,0 M193.2,87.2
	c-0.8-0.3-1.5-0.3-2.1-0.1 M180,94.9c0.1,0,0.2,0,0.2,0c0.2-0.1,0.2-0.4,0.1-0.8l-1-2.7l-0.2-0.3c-0.2-0.3-0.4-0.5-0.6-0.7
	c-0.3-0.1-0.5-0.2-0.7,0l-0.1,0c-0.3,0.2-0.8,0.1-1.2-0.4c-0.4-0.4-0.7-0.5-0.9-0.3c-0.1,0-0.2,0.1-0.2,0.3l-1.1,2.7
	c-0.1,0.2,0,0.5,0.2,0.8c0.2,0.3,0.4,0.5,0.6,0.5 M174.4,94.5c-0.1,0.1-0.2,0.3-0.3,0.5c0,0.2,0,0.5,0.2,0.8l2.6,5.8l0.1,0.2
	c0.1,0.2,0.3,0.4,0.4,0.5c0.2,0.1,0.3,0.1,0.4,0c0.1,0,0.1-0.1,0.1-0.2l2.1-5.4c0.1-0.2,0-0.5-0.2-0.8c-0.2-0.3-0.4-0.5-0.6-0.5
	l-4.6-0.8C174.6,94.5,174.5,94.5,174.4,94.5z M173.9,98.4l-0.3,2.9c0,0.2,0,0.4,0.2,0.7c0.1,0.2,0.3,0.4,0.4,0.5l1.1,0.6
	c0.3,0.2,0.6,0.2,0.9,0.1c0.2-0.1,0.3-0.4,0.4-0.7c0-0.3-0.1-0.7-0.2-1l-1.3-2.9c-0.1-0.2-0.3-0.4-0.4-0.5c-0.2-0.1-0.3-0.1-0.4,0
	C174,98.1,173.9,98.2,173.9,98.4z M220.3,101.2l5.8,3.3"/>
<path id="Layer3_8_MEMBER_86_1_STROKES" class="st5" d="M192.4,80.4c0.2,0.1,0.4,0.2,0.5,0.1c0.1-0.1,0.2-0.2,0.2-0.5
	c0-0.2-0.1-0.4-0.2-0.7c-0.1-0.2-0.3-0.4-0.5-0.5c-0.2-0.1-0.4-0.1-0.5,0c-0.2,0.1-0.2,0.3-0.2,0.6 M251.5,124.8l-0.1,0.1l-0.1,0
	l0,0l0.2,0.5l0,0.2l0,0v0.1l0,0v0 M236.8,113.5l5.1,7.5 M251.7,145l1.2-1.3 M215.2,92.7c-0.3-0.6-0.8-1-1.2-1.3
	c-0.5-0.3-0.9-0.3-1.2-0.1c-0.3,0.2-0.5,0.6-0.5,1.1c0,0.6,0.2,1.1,0.5,1.7c0.3,0.6,0.8,1,1.2,1.3c0.5,0.3,0.9,0.3,1.2,0.1
	c0.3-0.2,0.5-0.6,0.5-1.1C215.7,93.9,215.5,93.4,215.2,92.7z M220.3,101.2l-6.1-4h0v0h0l0,0h0v0h0v0h0l0,0h0v0h0l0,0h0l0,0h0v0h0v0
	h0v0h0l0,0h0 M173.3,129.5l0-10.9c0-0.3,0.1-0.4,0.2-0.5c0.2-0.1,0.3-0.1,0.5,0.1l0.4,0.2c0.2,0.1,0.4,0.3,0.6,0.6l0.2,0.4
	c0.1,0.4,0.3,0.8,0.5,1.2c0.3,0.4,0.5,0.8,0.8,1.1l0.2,0.3c0.2,0.3,0.3,0.6,0.3,0.9v8.7 M180.7,122.2l0-2.2"/>
<path id="Layer3_8_MEMBER_87_1_STROKES" class="st5" d="M244.4,124.1c-0.2,0.1-0.2,0.4-0.1,0.8l0.9,2.4c0.1,0.3,0.3,0.5,0.6,0.6
	c0.2,0.1,0.4,0.2,0.6,0.2c0.2-0.1,0.5,0,0.8,0.2c0.3,0.2,0.5,0.5,0.7,0.8l0.1,0.2c0.2,0.3,0.4,0.5,0.6,0.7c0.2,0.1,0.5,0.2,0.6,0
	c0.1,0,0.1-0.1,0.1-0.1l0.9-1.2c0.1-0.2,0.1-0.5-0.1-0.9c-0.1-0.2-0.2-0.3-0.4-0.4l-4.9-3.1C244.6,124,244.5,124,244.4,124.1z
	 M260.7,136.5L260.7,136.5L260.7,136.5l0,0.2l0,0v0l0,0.1v0l0,0v0.1l0,0v0l0,0v0l0,0l0,0.1v0l0,0v0.1l0,0v0.1 M260.9,137.8v0.5l0,0
	v0.2 M249.9,125.3l2,5.2 M183.7,89.9c0.1-0.2,0.1-0.5-0.1-0.9c-0.1-0.2-0.3-0.4-0.5-0.5 M176,86.7l0.3-0.6l0.1-0.1l0.2-0.3l0.1-0.1
	l0.3-0.4L177,85l0.1-0.1l0.1-0.1l0.1-0.1l0.2-0.2l0.1-0.1l0.1-0.1l0.1-0.1l0.1-0.1l0.2-0.3"/>
<path id="Layer3_8_MEMBER_88_1_STROKES" class="st5" d="M224.1,95.7c0.1-0.1,0.2-0.2,0.2-0.4c0-0.2-0.1-0.4-0.2-0.6
	c-0.1-0.2-0.2-0.3-0.4-0.5l-2.6-1.5c-0.2-0.1-0.3-0.1-0.4,0c-0.1,0.1-0.2,0.2-0.2,0.4 M224,101.2l1.5,1.8c0.3,0.3,0.5,0.4,0.7,0.3
	c0.1-0.1,0.2-0.2,0.2-0.4v-5.8c0-0.2-0.1-0.4-0.2-0.6c-0.1-0.2-0.2-0.3-0.4-0.4c-0.2-0.1-0.3-0.1-0.4-0.1l-3.8,1.1 M215.9,96.3
	L215.9,96.3 M220.5,95.3c0,0.2,0.1,0.4,0.2,0.6c0.1,0.2,0.2,0.3,0.4,0.4c0.2,0.1,0.3,0.1,0.4,0.1 M183.1,88.5l-4.8-2.5
	c-0.1-0.1-0.3-0.1-0.4,0c-0.2,0.1-0.3,0.4-0.1,0.8l0.9,2.2c0,0.1,0.1,0.2,0.1,0.3c0.2,0.3,0.4,0.5,0.6,0.6c0.2,0.1,0.5,0.2,0.6,0.1
	l0,0l0.1,0c0.2-0.1,0.4-0.1,0.7,0c0.3,0.1,0.5,0.4,0.8,0.7c0.2,0.2,0.4,0.4,0.6,0.5c0.2,0.1,0.4,0.1,0.5,0c0,0,0.1-0.1,0.2-0.2
	l0.8-1.2 M183.5,106.2c-0.2,0.9-0.2,1.9,0.2,3 M179.8,107.9c0.1-0.1,0.3-0.2,0.3-0.3 M182.5,110.4l1.1-0.6 M182.5,113.5L182.5,113.5
	L182.5,113.5L182.5,113.5L182.5,113.5L182.5,113.5l-0.1,0.1l-0.1,0.1v0h0v0l-0.1,0.1l-0.1,0.2 M185.1,114.1l0.2-0.1 M185.3,114.2
	l0,0.2 M178.9,110.1l0.1-0.9c0-0.6,0.3-1,0.7-1.3 M185.9,118c0-0.2-0.1-0.5-0.3-0.8 M180,118.5l0.6,1.3l0.2,0.2
	c0.6-0.1,1.2-0.2,1.9-0.4l2.2-0.6l0.9-0.5 M182.1,123.9l0.1-0.1l0.1-0.2l0.1-0.1l0.1-0.1"/>
<path id="Layer3_8_MEMBER_89_1_STROKES" class="st5" d="M184.8,87c0,0.2,0.1,0.4,0.2,0.5c0.1,0.2,0.2,0.3,0.4,0.4
	c0.2,0.1,0.3,0.1,0.4,0.1l4.4-1.5l0,0c0.1-0.1,0.2-0.2,0.2-0.4c0-0.2-0.1-0.4-0.2-0.6c-0.1-0.1-0.1-0.2-0.3-0.3l-4.7-4.3
	c-0.4-0.3-0.7-0.4-0.9-0.3c-0.2,0.1-0.3,0.4-0.3,0.7 M183.8,88.3c0.2,0.1,0.4,0.1,0.5,0c0.2-0.1,0.2-0.3,0.2-0.6l-0.8-6.2
	c0-0.2-0.1-0.3-0.2-0.5c-0.1-0.2-0.3-0.4-0.4-0.5c-0.2-0.1-0.3-0.1-0.5,0l-4.2,3.8c-0.1,0.1-0.1,0.2-0.1,0.4c0,0.2,0.1,0.4,0.2,0.6
	c0.1,0.2,0.3,0.4,0.5,0.5 M195.3,77.3l1.5,0.9 M201.7,81l2.1,1.2 M237.1,93.3l2.5,1.4 M224.7,94.3l2.2,1.2 M231.6,98.2l1,0.6
	 M216.2,93.6c0.1,0.2,0.1,0.3,0.2,0.4c0.2,0.3,0.4,0.5,0.6,0.6l2.4,1.4c0.2,0.1,0.4,0.2,0.6,0.1c0.1-0.1,0.2-0.3,0.2-0.5v-2.8
	c0-0.3-0.1-0.5-0.2-0.8c-0.1-0.3-0.3-0.5-0.6-0.6l-10.9-6.3c-0.2-0.1-0.4-0.1-0.5,0c-0.2,0.1-0.2,0.3-0.2,0.5 M221.5,92.4
	c-0.3-0.2-0.6-0.4-0.8-0.6l-0.2-0.2 M206.3,83.7c0.3,0.2,0.6,0.3,0.8,0.3c0.1,0,0.2,0,0.2,0.1l0.9,0.6 M207.7,88.4
	c0,0.2,0.1,0.5,0.2,0.8c0.1,0.2,0.3,0.4,0.5,0.6l2.4,1.4c0.2,0.1,0.5,0.2,0.6,0.1c0.1,0,0.1-0.1,0.2-0.2c0,0,0,0,0,0
	c0.1-0.2,0.3-0.4,0.5-0.6c0.4-0.3,0.9-0.2,1.5,0.1 M211.9,93.9L211.9,93.9L211.9,93.9L211.9,93.9L211.9,93.9L212,94v0
	c0.1,0.2,0.2,0.5,0.2,0.7s-0.1,0.4-0.2,0.4c-0.1,0.1-0.3,0.1-0.5,0 M215.9,96.3c-0.1,0.1-0.2,0.3-0.2,0.5c0,0.2,0.1,0.5,0.2,0.7
	c0.1,0.2,0.3,0.4,0.5,0.6 M178.3,103.9c-0.1,0.1-0.2,0.3-0.2,0.5c0,0.2,0.1,0.5,0.2,0.7c0.2,0.2,0.3,0.4,0.5,0.6s0.4,0.2,0.5,0.1
	 M174.3,106.2l1.7-0.6l0,0c0.1-0.1,0.2-0.2,0.2-0.4s-0.1-0.4-0.2-0.6c-0.1-0.2-0.3-0.4-0.5-0.5l-1.7-1"/>
<path id="Layer3_8_MEMBER_90_1_STROKES" class="st5" d="M244,100l-2.1-2.8l0,0v0h0v0l0,0v0h0v0h0v0l0,0h0v0h0l0,0v0h0v0h0v0l0,0h0v0
	l-1.9-2.1 M237,104.1l-2.1-2.8v0l0,0v0h0l0,0v0h0v0l0,0v0h0v0h0v0l0,0v0h0v0h0l0,0v0h0v0h0v0l-2-2.1l1.3-0.8 M249.9,107.8
	L249.9,107.8L249.9,107.8L249.9,107.8L249.9,107.8l-0.1-0.1v0h0v0h0v0l0,0v0l0,0v0h0v0h0v0l0,0l-2.3-3 M244.8,115.2l-2.2-3.7
	 M173.9,103.1c-0.2-0.1-0.3-0.1-0.4,0c-0.1,0.1-0.2,0.2-0.2,0.4v1.6c0,0.2,0.1,0.4,0.2,0.6c0.1,0.2,0.2,0.3,0.4,0.4
	c0.2,0.1,0.3,0.1,0.4,0.1 M176.2,109.5c0.2,0.1,0.3,0.1,0.4,0c0.1-0.1,0.2-0.2,0.2-0.3l0.1-1.5c0-0.2-0.1-0.4-0.2-0.7
	c-0.1-0.2-0.2-0.3-0.4-0.4c-0.2-0.1-0.3-0.1-0.4-0.1l-1.6,0.6l0,0c-0.1,0.1-0.2,0.2-0.2,0.4c0,0.2,0.1,0.4,0.2,0.6
	c0.1,0.2,0.2,0.4,0.4,0.5 M178.7,142.2l0-5"/>
<path id="Layer3_8_MEMBER_91_1_STROKES" class="st5" d="M190.5,85l0.6,0.6c0.3,0.3,0.5,0.3,0.7,0.2c0.1,0,0.2-0.1,0.2-0.2l1-3
	c0.1-0.2,0-0.5-0.2-0.8c-0.1-0.2-0.3-0.4-0.4-0.5c-0.4-0.2-0.7-0.6-1-1.1c-0.1-0.2-0.3-0.5-0.4-0.9c0-0.1-0.1-0.2-0.2-0.4
	c-0.1-0.2-0.2-0.3-0.4-0.4c-0.1-0.1-0.3-0.1-0.4-0.1l-4.8,0.8c-0.1,0.1-0.2,0.2-0.2,0.4s0.1,0.4,0.2,0.6l0.3,0.3 M260.4,131.5
	l-2-6.9c-0.1-0.5-0.3-0.9-0.5-1.4l-3.3-6.8 M242.2,113.2c0.1,0,0.2,0,0.3,0c0.1-0.1,0.2-0.2,0.2-0.4c0-0.2-0.1-0.4-0.2-0.6l-4.8-6.3
	c-0.3-0.4-0.5-0.5-0.8-0.4c-0.1,0-0.1,0.1-0.2,0.2c-0.1,0.2-0.2,0.4-0.3,0.5c-0.3,0.2-0.6,0.1-1-0.1c-0.2-0.1-0.3-0.1-0.4,0
	c-0.2,0.1-0.2,0.3-0.1,0.6 M235.8,110.4l0.1,0.5l0.2,0.5c0.2,0.4,0.5,0.6,0.8,0.6 M249.9,108l1.8,3.1 M244.1,123.2
	c-0.2-0.1-0.4-0.3-0.5-0.5c-0.2-0.3-0.2-0.6-0.2-0.9l0.1-0.5 M249,126.2c0.2,0.1,0.3,0.2,0.5,0.1c0.1-0.1,0.2-0.2,0.2-0.3
	c0-0.2,0-0.3-0.1-0.5l-4.2-8.7l0-0.1c-0.1-0.2-0.3-0.4-0.4-0.5c-0.2-0.1-0.3-0.1-0.4,0c-0.1,0-0.2,0.1-0.2,0.3 M249.8,125l0.1,0.3
	l0.1,0l0,0l0.1,0l0.1,0l0,0l0.1,0l0,0l0.1,0l0,0l0.1,0l0,0l0.1,0l0.1,0l0,0l0.1,0l0.1,0l0,0l0.1,0 M254.2,138.4l-2.2-7.8l0-0.1v-0.1
	l0-0.1v-0.1l0.1-0.2l0-0.2l0.2-0.6l0,0l0-0.2V129l0-0.1l0.1-0.2 M180.8,111.2c-0.5,0.1-1,0.3-1.4,0.5c-0.4,0.2-0.6,0.4-0.7,0.6"/>
<path id="Layer3_8_MEMBER_92_1_STROKES" class="st5" d="M184,112.8c0.1,0,0.2,0,0.2,0l0,0c0.1,0,0.1-0.1,0.1-0.3
	c0-0.1,0-0.3-0.1-0.4c-0.1-0.1-0.2-0.3-0.3-0.3c-0.1-0.1-0.2-0.1-0.3,0c-0.1,0-0.1,0.1-0.1,0.3 M180.9,111.2l2.6-0.4l0.5-0.3
	 M184.7,111.1L184.7,111.1L184.7,111.1L184.7,111.1L184.7,111.1L184.7,111.1L184.7,111.1l0.1,0.1l0,0v0h0l0.4,0.7
	c0.2,0.4,0.3,0.8,0.3,1.3v0.1c0,0.4-0.1,0.6-0.3,0.8h0c-0.2,0.1-0.5,0.1-0.8-0.1l-1-0.6c-0.2-0.1-0.4-0.1-0.5-0.1 M178.8,112.4v3.8
	c0,0.3,0.1,0.5,0.3,0.9l0.2,0.3c0.2,0.2,0.4,0.5,0.6,0.8l0.2,0.3 M178.6,132.6L178.6,132.6l0.2,0.1 M182.2,131.7l0.1,0l0.1-0.1
	l0.1,0"/>
<path id="Layer3_8_MEMBER_93_1_STROKES" class="st5" d="M260.4,131.5l0.4,5.1v0.2l0.2,1 M186.6,94.9l1-2.6c0.2-0.6,0.5-1.1,0.8-1.5
	l0.5-0.6 M185.2,120.7l-0.4,0.2l-2.5,0.7c-0.6,0.2-1.1,0.4-1.6,0.6l-0.2,0.1l-0.2,0.2c-0.1,0.2-0.3,0.4-0.6,0.6
	c-0.2,0.1-0.5,0.2-0.8,0.2c-0.1,0-0.1,0-0.2,0.1c-0.2,0.1-0.3,0.3-0.3,0.6l0,10l-6.3-3.7l0.6,3.7 M185.5,120.8v2.7l0,0.1
	c0,0.3-0.1,0.5-0.3,0.6c-0.2,0.1-0.5,0.1-0.8-0.1l-1.2-0.7c-0.2-0.1-0.3-0.1-0.5-0.1 M183.8,122.9c0.1,0.1,0.2,0.1,0.3,0
	c0.1-0.1,0.1-0.2,0.1-0.3c0-0.1,0-0.3-0.1-0.4c-0.1-0.1-0.2-0.3-0.3-0.3c-0.1-0.1-0.2-0.1-0.3,0c-0.1,0.1-0.2,0.2-0.1,0.4
	 M183.9,129.5c0.1,0.1,0.2,0.1,0.3,0h0c0.1-0.1,0.1-0.2,0.1-0.3c0-0.1,0-0.3-0.1-0.4c-0.1-0.1-0.2-0.3-0.3-0.3
	c-0.1-0.1-0.2-0.1-0.3,0c-0.1,0.1-0.1,0.2-0.1,0.4 M183.9,131.2l0.3-0.1v0h0.3l0,0h0c0.1,0,0.3,0,0.4-0.1c0.3-0.2,0.5-0.5,0.5-1.1
	l0-0.3c0-0.2-0.1-0.4-0.2-0.7l-0.2-0.3c-0.2-0.4-0.5-0.7-0.8-0.9l-1.2-0.7c-0.2-0.1-0.3-0.3-0.5-0.5 M183.3,131.5
	c-0.2,0-0.3,0-0.4,0l-0.2,0 M178.7,134.9c0,0.2-0.1,0.4-0.1,0.6v1.7 M172.9,139.4v0.3l0,0v0.1"/>
<path id="Layer3_8_MEMBER_94_1_STROKES" class="st5" d="M200.1,87.1l0,0.1c0.1,0.2,0.3,0.4,0.4,0.5c0.2,0.1,0.3,0.1,0.4,0
	c0.1-0.1,0.2-0.2,0.2-0.4v-5.4c0-0.2-0.1-0.4-0.2-0.6c-0.1-0.2-0.3-0.4-0.4-0.5l-3.6-2.1c-0.2-0.1-0.3-0.1-0.4,0s-0.2,0.2-0.2,0.4
	c0,0.2,0,0.3,0.1,0.5l0.7,1.5 M202.5,82.8c-0.1-0.2-0.3-0.3-0.4-0.4c-0.1-0.1-0.3-0.1-0.4,0c-0.1,0.1-0.2,0.2-0.2,0.4 M205.6,86.6
	l0.8,1.2c0.1,0.2,0.3,0.3,0.4,0.4c0.1,0.1,0.3,0.1,0.4,0c0.1-0.1,0.2-0.2,0.2-0.4l0-2.3c0-0.2-0.1-0.4-0.2-0.6
	c-0.1-0.2-0.3-0.4-0.4-0.5l-2.6-1.5c-0.2-0.1-0.3-0.1-0.5-0.1c-0.1,0.1-0.2,0.2-0.2,0.4c0,0.2,0.1,0.4,0.2,0.6l0.1,0.1 M206.8,92.7
	c0.2,0.1,0.3,0.1,0.4,0c0.1-0.1,0.2-0.2,0.2-0.4v-1c0-0.2-0.1-0.4-0.2-0.6c-0.2-0.4-0.5-0.6-0.7-0.5l-1.5,0.1l-0.1,0
	c-0.1,0.1-0.2,0.2-0.2,0.4c0,0.2,0.1,0.4,0.2,0.6c0.1,0.2,0.3,0.4,0.4,0.5 M202.4,89.7c-0.3,0-0.5-0.2-0.7-0.5
	c-0.1-0.2-0.2-0.4-0.2-0.6v-0.5 M173.9,131.3c-0.3-0.2-0.5-0.2-0.6-0.1l0,0c-0.1,0.1-0.1,0.3-0.1,0.5 M173.7,135.1v-0.2l0,0v-0.1h0
	v-0.2l0,0 M173.6,137.6v-0.2l0,0v0l0,0v-0.1l0,0v0l0.1-0.1l0.1-0.1l0.1-0.1l0.1,0l0.1-0.1l0.1,0c0.1,0,0.3,0,0.5,0.1l2,1.1
	c0.2,0.1,0.4,0.3,0.6,0.6c0.3,0.4,0.5,0.7,0.4,1l0,1.2 M176.7,137.6c0.3,0.2,0.5,0.2,0.6,0.1c0.1-0.1,0.1-0.2,0.1-0.4l-0.2-3.2
	c0-0.3-0.2-0.6-0.4-1c-0.2-0.3-0.4-0.5-0.6-0.5"/>
<path id="Layer3_8_MEMBER_95_1_STROKES" class="st5" d="M232.8,88.4l1.3,2.2 M226.7,102c0,0.2,0.1,0.4,0.2,0.6
	c0.1,0.2,0.3,0.4,0.5,0.5c0.2,0.1,0.3,0.1,0.4,0l3.6-3.3c0.1-0.1,0.1-0.2,0.1-0.4c0-0.2-0.1-0.4-0.2-0.5c-0.1-0.2-0.2-0.4-0.4-0.5
	l-3.6-2.1c-0.2-0.1-0.3-0.1-0.4,0c-0.1,0.1-0.2,0.2-0.2,0.4 M222.6,101.9c0.2,0.1,0.3,0.1,0.4,0c0.1-0.1,0.2-0.2,0.2-0.4
	c0-0.2-0.1-0.4-0.2-0.6l-0.1-0.2l-1.5-1.8c-0.3-0.3-0.5-0.5-0.7-0.3c-0.1,0.1-0.2,0.2-0.2,0.4 M227.8,104.1
	c-0.1,0.1-0.1,0.2-0.1,0.4c0,0.2,0.1,0.4,0.2,0.6c0.1,0.2,0.2,0.3,0.3,0.4 M234.4,110.2c0.2,0.2,0.4,0.2,0.5,0.1
	c0.2-0.1,0.2-0.3,0.2-0.6 M242.1,120.5c0.1,0.2,0.3,0.3,0.4,0.4c0.2,0.1,0.3,0.1,0.4,0c0.1-0.1,0.2-0.2,0.2-0.3l0.7-4.9
	c0-0.3,0-0.7-0.2-1c-0.2-0.4-0.5-0.7-0.9-0.8l-4.7-1.1c-0.1,0-0.2,0-0.3,0c-0.1,0.1-0.2,0.2-0.2,0.4c0,0.2,0.1,0.4,0.2,0.6l0.1,0.1
	 M249.8,145.1c-0.1,0.1-0.2,0.3-0.2,0.5c0,0.2,0.1,0.5,0.2,0.7c0.1,0.2,0.3,0.4,0.5,0.6c0.2,0.1,0.4,0.1,0.5,0.1 M217.9,89l1.1-1.2
	 M211.9,93.8l-0.2-0.5c-0.1-0.2-0.1-0.3-0.2-0.4c-0.1-0.3-0.3-0.5-0.6-0.7l-2.4-1.4c-0.2-0.1-0.4-0.1-0.5,0
	c-0.2,0.1-0.2,0.3-0.2,0.5 M207.7,92.3c0,0.3,0.1,0.5,0.2,0.8c0.2,0.3,0.4,0.5,0.6,0.6 M219.3,99.9c0.2,0.2,0.4,0.2,0.6,0.1
	c0.1-0.1,0.2-0.3,0.2-0.5l0-1c0-0.2-0.1-0.5-0.2-0.8c-0.1-0.3-0.3-0.5-0.6-0.6l-2.4-1.4c-0.2-0.1-0.5-0.2-0.6-0.1
	c-0.1,0.1-0.1,0.1-0.2,0.2l-0.1,0.1l-0.1,0.2 M220.5,100c0,0.2,0.1,0.4,0.2,0.6c0.1,0.2,0.2,0.3,0.4,0.5 M176.3,115.6
	c-0.2,0-0.4,0.1-0.6,0.2c-0.2,0.1-0.4,0.3-0.5,0.6c0,0.1-0.1,0.1-0.2,0.2c-0.2,0.1-0.4,0.1-0.6-0.1l-0.4-0.2
	c-0.2-0.1-0.4-0.3-0.6-0.6c-0.1-0.2-0.2-0.5-0.2-0.8v-5.6c0-0.3,0.1-0.5,0.3-0.6c0.2-0.1,0.4-0.1,0.6,0.1l1.9,1.1 M173.7,135.1v0.1
	h0v0.1h0v0l0,0l0,0.1l0,0l0,0.1l0.1,0.1l0,0.1l0.2,0.2c0.2,0.2,0.4,0.4,0.6,0.5 M211.1,85l1.2-1.2"/>
<path id="Layer3_8_MEMBER_96_1_STROKES" class="st5" d="M187.6,78.1l-2.4,0.4l-0.2,0.1l-1.8,1 M177.9,83.7l2.4-2.1 M196.5,76.6
	l-1.2,0.7l-1.9-0.2h-0.3l-2.1,0.4 M173.7,91.9l2.2-5.3 M186.6,113.5l0.1,0.2l0.3,0.5c0.3,0.5,0.4,1,0.4,1.4c0,0.5-0.1,0.8-0.4,0.9
	 M176.3,115.6l0.2,0c0.2-0.1,0.3-0.3,0.3-0.6l0-3.8c0-0.3-0.1-0.5-0.2-0.8c-0.2-0.3-0.3-0.5-0.6-0.6 M186.4,116.8
	c-0.1,0.1-0.1,0.3-0.2,0.4"/>
<path id="Layer3_8_MEMBER_97_1_STROKES" class="st5" d="M193.5,86.6c-0.2-0.1-0.4-0.2-0.5-0.5c-0.2-0.3-0.2-0.6-0.2-0.8l1.5-4.5
	c0-0.1,0.1-0.1,0.2-0.2c0.1-0.1,0.2-0.1,0.4,0c0.1,0.1,0.3,0.2,0.4,0.3c0.1,0.2,0.3,0.3,0.5,0.4c0.2,0.1,0.3,0.1,0.4,0l0.1-0.1
	c0.1-0.1,0.3,0,0.4,0.1c0.2,0.1,0.3,0.3,0.4,0.5l3,6.3c0.1,0.2,0.1,0.4,0.1,0.6c0,0.2-0.1,0.3-0.2,0.3c-0.1,0-0.2,0-0.3,0
	 M235.1,109.7l-2-8.6l-0.2-0.4c-0.1-0.2-0.3-0.4-0.5-0.5c-0.2-0.1-0.3-0.1-0.4-0.1 M255.4,138.7L255.4,138.7l0-0.4l0-0.1v-0.2
	l-0.1-0.8l-1.1-4.4l-1.3-3.6l0,0l0-0.1l0-0.1l0-0.1l-0.1-0.2 M254.2,138.4l1.3,7.9l0.2,2.3 M261,138.6l0.5,5.2l0.1,3.9 M221.5,97.1
	c-0.1,0.1-0.2,0.2-0.2,0.4c0,0.2,0.1,0.4,0.2,0.6l0.1,0.2 M212.2,90.5l2.7-1.6 M202.4,89.7l2-0.2l0.1,0c0.1-0.1,0.2-0.2,0.2-0.4
	c0-0.2-0.1-0.4-0.2-0.6l-0.1-0.2c-0.1-0.2-0.2-0.5-0.2-0.7c0-0.2,0.1-0.4,0.2-0.5c0,0,0.1,0,0.2,0c0.1,0,0.1,0,0.2,0
	c0.1-0.1,0.2-0.2,0.2-0.4c0-0.2-0.1-0.4-0.2-0.6l-0.1-0.1l-2.2-3.3 M184.3,106.3l1.1-1.1c0.5-0.4,1-0.8,1.4-0.9
	c0.5-0.2,0.9-0.2,1.3,0 M186.7,113.3c0.3-0.2,0.5-0.5,0.5-1.1c0-0.5-0.2-1.1-0.5-1.6c-0.2-0.4-0.5-0.7-0.8-1
	c-0.3-0.3-0.6-0.4-0.9-0.5 M186.7,123.4c0.3-0.2,0.5-0.5,0.5-1.1c0-0.5-0.2-1.1-0.5-1.6l-0.3-0.4 M186.4,120l1.2,0
	c0.2,0,0.4,0.1,0.5,0.1 M185.7,125.8c0.1,0.2,0.2,0.4,0.3,0.6c0.1,0.2,0.2,0.4,0.3,0.5c0.2,0.2,0.3,0.4,0.3,0.5
	c0.3,0.5,0.4,1,0.5,1.5c0,0.5-0.1,0.9-0.3,1.1"/>
<path id="Layer3_8_MEMBER_98_1_STROKES" class="st5" d="M187.9,77.1l2.8-0.6l3.3-0.2l2.7,0.2l1.1,0.1l-0.4,0.8l3.2,0.8l5.6,2.3
	l12.7,7.1l3.9,2.6l5.3,4l3.2,2.9l1.5-0.3l4.3,4.6l3.6,4.5l3,4.3l2.5,3.9l3.3,6.4l1.5,3.6l0.2,0.5l5.2-2.8l-5.5-10.4l-2.8-4.7
	l-3.1-4.5l-3.5-4.4l-4.1-4.2l-4.9-4.2l-5.8-4.2l-6.9-4.3l-8.6-4.7l-3.9-1.8l-3.7-1.3l-3.6-0.7h-3.6l-3.7,0.8l-3.8,1.7l-4.1,2.7
	l-3.1,2.9l0.6-0.5l1.5-1l1.9-1L187.9,77.1z M178.9,82.9l1.5-1.4l0.1-0.1l0.8-0.7l0.3-0.2 M181.3,80.7l-0.9,0.8 M195.3,77.3l1.3-0.7
	 M254.2,138.4c0.4,0.2,0.8,0.3,1.1,0.4 M256.6,122.2l2.5,7.3l1.6,6.7 M172.2,130.2l0.1-30l0.4-3.6l1.1-4.7 M182.2,131.7l-1,0.5
	l-1.5,0.5l-0.7,0.1"/>
<path id="Layer3_8_MEMBER_99_1_STROKES" class="st5" d="M284.6,28.1l2.5-0.5 M180,90l2.8-1.6 M173.8,135.5l0,1.6 M178.7,134.9
	l0.3-0.4l3.2-2.4 M172.9,139.3l0.2-3l-0.2-2.4 M183.9,131.2c-0.2,0.1-0.4,0.2-0.5,0.3 M182.6,126.7l-0.6-0.7"/>
<path id="Layer3_8_MEMBER_100_1_STROKES" class="st4" d="M250.9,89.2l-0.1,0 M249.5,88.5l-0.1,0 M250.7,87.1l-1.2,0.2"/>
<path id="Layer3_8_MEMBER_101_1_STROKES" class="st3" d="M224.2,69.3l-0.6,0.8"/>
<path id="Layer3_8_MEMBER_102_1_STROKES" class="st4" d="M272.9,85.5l-0.2,0 M274.7,86.3l-1.4,0.3"/>
<path id="Layer3_8_MEMBER_103_1_STROKES" class="st3" d="M234,58.4l-0.7,0.9"/>
<path class="st6" d="M278.9,70.4l-0.3-0.2l-0.3-0.1H278l-0.2,0.1l-0.2,0.1l-0.9,0.9l-0.1,0.2v0.2l0.1,0.2l0.4,0.5l0.2,0.2l0.1,0.1
	l0,0.4l-0.5-0.3h0l0,0l0,0h-0.1l0,0l-0.1,0l-0.1,0.1l-0.1,0.1l-0.1,0.2v0.3l0,0.1l0.6,0.3l0,0l0.1,0h0l0,0v0l0,0.1v0l0,0.2l0,0
	l1.3,0.7l0,0h0l0,0l0-0.1h0l0,0l0,0l0.1,0l0.1,0.1v0l0.6,0.3l0-0.1l0-0.2l0.1-0.2l0.1-0.2l0.1-0.1l0.1,0l0.1,0v0l-0.6-0.3h-0.1l0,0
	l0,0v-0.1l0-0.1l0,0h0.1l0,0l0,0l0,0l0.1-0.1l0.5,0.3l0.2,0.1l0.2,0l0.1,0l0.1-0.1l0.1,0l0.1-0.1v-0.1l0-0.1l-0.1-0.3l-1.2-2
	L278.9,70.4z"/>
<path id="Layer3_8_MEMBER_105_1_STROKES" class="st3" d="M232,79.7l-1.6-0.8l-0.1,0.2l1.2,0.6h0v0h0l0,0v0 M277.3,77l-1.8,0.3
	 M279,86.3l-1.9,0.4"/>
<path id="Layer3_8_MEMBER_106_1_STROKES" class="st7" d="M274.5,78.1l0.2-0.3l0.4-0.3l0.5-0.1l0.5,0l0.5,0.2l0.5,0.4l0.5,0.6
	l0.8,1.5l0.3,0.9l0.3,1.8l-0.1,1.7l-0.2,0.7l-0.3,0.6l-0.3,0.5l-0.4,0.3l-0.5,0.1l-0.5,0l-0.5-0.2"/>
<path id="Layer3_8_MEMBER_107_1_STROKES" class="st4" d="M273.6,79.6l0.2-0.7"/>
<path id="Layer3_8_MEMBER_108_1_STROKES" class="st4" d="M273.9,79.9l-0.7,3.5l0.2,0 M273.2,83.4l-0.3-0.3l0.6-3.5 M275.6,79.6
	l-0.6,3 M275.3,86l-2-2"/>
<path id="Layer3_8_MEMBER_109_1_STROKES" class="st3" d="M275.3,78l0.3,0l0.5,0.2l0.5,0.3l0.5,0.5l0.4,0.6l0.6,1.6l0.3,1.8l-0.2,1.6
	l-0.2,0.6l-0.3,0.5l-0.4,0.4l-0.4,0.2"/>
<path id="Layer3_8_MEMBER_110_1_STROKES" class="st4" d="M273.9,79.9l0.2-0.7l0.2-0.3 M273.3,83.6L273.3,83.6l0.1-0.2l-0.2,0
	l-0.1,0.4l0-0.1l0-0.1L273.3,83.6L273.3,83.6z M275.4,85.6l-1.6-1.6l-0.3-1.1l-0.1,0.5 M273.7,84l1.7-0.3l-0.3-1.1l-1.7,0.3
	 M275.6,79.6l0.1-0.6l0.2-0.4 M275.1,85.9v0.2l0,0.1l-0.1,0.1l0,0 M274,84.8l-0.1,0.1l-0.1,0.1l-0.1,0l-0.1,0l0-0.1l0,0v-0.2l0,0
	 M273.1,83.3l-0.3,1.8l0.2,0.2l0-0.2l0.2-1l0-0.1v0 M273.3,83.6l-0.1,0.4l-0.1,0.1l0.1,0.1l0.2,0 M273.9,84.8l-0.1,0.1l-0.1,0h-0.1
	 M273.3,85.9l0,0.2v0.3 M273,85.5L273,85.5L273,85.5v-0.1l0.2-1.1 M274.7,86.3l0.1-0.1l0-0.2l0-0.4l-0.1-0.2l-0.1-0.1l0,0h0v0
	 M273,85.1l-0.1,0.4 M277.1,85.2l-1.6-1.6"/>
<path id="Layer3_8_MEMBER_111_1_STROKES" class="st4" d="M274.5,86.4L274.5,86.4l0.2,0.1h0.1l0.1-0.1l0,0l0-0.3v-0.2l0-0.1l0.1,0.2
	V86l0,0.1v0.1l0,0.2l0,0 M272.5,86.1v-0.3l0.1-0.2l0.2-0.1l0.1,0.1l0.1,0l0.1,0.1l0.1,0.2l0.1,0.2l0,0.2l0,0.2 M272.9,85.6
	L272.9,85.6l0.2,0.3l0.1,0.3v0.3l-0.1,0.2l-0.1,0.1l-0.1,0l-0.1-0.1l-0.1-0.2l-0.1-0.2"/>
<path id="Layer3_8_MEMBER_112_1_STROKES" class="st3" d="M240,68.4l-0.4,0.5 M240.7,69.1l-0.3,0.4"/>
<path id="Layer3_8_MEMBER_113_1_STROKES" class="st7" d="M232.5,61.4v-0.2l0.2-0.7l0.3-0.6l0.4-0.6l0.6-0.5l0.6-0.3l0.7-0.2l0.8-0.1
	l0.8,0l0.8,0.2l0.8,0.3l0.7,0.4l0.6,0.5l0.6,0.6l0.8,1.4l0.2,0.8"/>
<path id="Layer3_8_MEMBER_114_1_STROKES" class="st4" d="M236.5,66.5l-0.8-0.3l-0.7-0.4l-0.7-0.5l-0.6-0.6l-0.5-0.7l-0.4-0.7
	l-0.2-0.6"/>
<path id="Layer3_8_MEMBER_115_1_STROKES" class="st7" d="M241.4,62.5l0,0.3v0.5l0,0.2"/>
<path id="Layer3_8_MEMBER_116_1_STROKES" class="st4" d="M237.8,66.9l-1.4-0.3"/>
<path id="Layer3_8_MEMBER_117_1_STROKES" class="st3" d="M233.1,61.1l0-0.1l0.2-0.6l0.4-0.5l0.5-0.5l0.6-0.4l0.6-0.2l0.7-0.1l0.8,0
	l0.7,0.2l0.7,0.3l0.7,0.4l0.6,0.5l0.5,0.6l0.4,0.6l0.3,0.7l0.2,0.7 M241,67.1l-0.5-0.1l0.4-3.6"/>
<path id="Layer3_8_MEMBER_118_1_STROKES" class="st4" d="M236.5,66l-0.7-0.3l-0.7-0.4l-0.6-0.5l-0.5-0.6l-0.4-0.6l-0.3-0.7l-0.2-0.7
	v-0.1"/>
<path id="Layer3_8_MEMBER_119_1_STROKES" class="st4" d="M239,65.6l-2.6-0.7l-0.8-0.4l-0.7-0.5l-0.6-0.7l-0.4-0.7l-0.3-0.8l-0.1-0.5
	 M238.1,66.4l-1.6-0.4"/>
<path id="Layer3_8_MEMBER_120_1_STROKES" class="st3" d="M240.3,67.2l-0.2,0.2l0-0.2l0-0.2l0.1-0.8l-0.8,0.5l0.6-0.9l0.5-0.3
	 M240.6,65.8l-0.3,0.5 M240.9,67.1l0.1,0.2l0.5-0.7l-0.1-0.2 M240.6,67.7l-0.2,1.4l0.4,0.1l0.2-1.8 M240.8,69.1l0.5-0.7l0.2-1.8"/>
<path id="Layer3_8_MEMBER_121_1_STROKES" class="st7" d="M241,67.1l0.4-3.6"/>
<path id="Layer3_8_MEMBER_122_1_STROKES" class="st3" d="M240.1,68.1L240.1,68.1 M240,68.2L240,68.2 M240,68.2L240,68.2l0.2-0.1h0.1
	l0-0.4l0.2-0.2l-0.1-0.2l-0.1-0.1 M239.8,68.6L239.8,68.6L239.8,68.6l0-0.2l0.1-0.2l0,0 M239.9,68.5l0-0.1l0-0.1l0.2-0.2l0.2,0
	l0-0.1 M240,68.4L240,68.4L240,68.4l0.3-0.1l0-0.1 M240.3,68.3l-0.1,0.6l0,0v0l0,0l0,0 M240.5,66.7l-0.3,0.3l0.2,0l0.1,0.1l0.1,0.1
	l0.1,0.1l0,0.2l0,0.2l0-0.5l-0.1-0.2 M240.4,69.3l0.2-1.5l-0.2,0 M241.2,68v0.1l0,0.1l0,0.1l0,0.1l0,0.1l0,0h0v0l0,0v0l0,0l0-0.1
	v-0.1l0-0.1l0-0.1l0.1-0.1l0,0l0,0v0l0,0v0V68L241.2,68z M242.1,62.6l-0.4,3.6l-0.7,0.9 M241.1,68.8l0,0.1l0,0.1l-0.1,0.1l-0.1,0.1
	l-0.1,0l-0.1,0"/>
<path id="Layer3_8_MEMBER_123_1_STROKES" class="st3" d="M239.3,69.1l0.2-0.2 M239.3,69.1l0.2-0.1h0.3l0.3,0.2l0.2,0.3l0,0.2l0-0.3
	l-0.2-0.2l-0.2-0.2l-0.3-0.1l-0.3,0 M239.3,69.9L239.3,69.9l-0.2-0.3v-0.2l0.1-0.3l0.1,0 M240.4,69.7L240.4,69.7l-0.1,0.2l-0.1,0.2
	l-0.2,0.1l-0.2,0l-0.2,0 M254.3,81.4l-1.8,0.3 M255.9,90.7l-1.7,0.3"/>
<path id="Layer3_8_MEMBER_124_1_STROKES" class="st7" d="M251.3,82.7l0.2-0.4l0.4-0.3l0.5-0.2l0.5,0l0.5,0.2l0.5,0.4l0.5,0.5
	l0.8,1.4l0.5,1.8l0.2,1.8l-0.1,0.8l-0.2,0.8l-0.3,0.6l-0.3,0.5l-0.4,0.3l-0.5,0.2l-0.5,0l-0.5-0.2"/>
<path id="Layer3_8_MEMBER_125_1_STROKES" class="st4" d="M250.7,85.1l0.1-0.9l0.2-0.7"/>
<path id="Layer3_8_MEMBER_126_1_STROKES" class="st4" d="M250.6,88.7l0.1-3.7 M252.2,90.4l-1.3-0.7v-0.5l0.3-0.1 M254.2,89.6
	l-1.5-0.8 M250.9,89.1l1.9,1"/>
<path id="Layer3_8_MEMBER_127_1_STROKES" class="st3" d="M252.3,82.4l0.2,0l0.5,0.1l0.5,0.3l0.5,0.5l0.5,0.6l0.6,1.5l0.3,1.8V88
	l-0.1,0.8l-0.2,0.7l-0.3,0.5l-0.4,0.4l-0.4,0.2l-0.4,0"/>
<path id="Layer3_8_MEMBER_128_1_STROKES" class="st4" d="M251.4,83.4l-0.1,0.3l-0.2,0.7l-0.2,3.7l1.8-0.3l0.1-3.4l0.2-0.9l0.1-0.2
	 M249.2,87.2h0.1l0,0h0l0.2,0.2l0.1,0.1l0.1,0.2v0.1v0l0,0l0,0.1v0l0,0.2v0l0,0.1v0.1l0,0.1h0l0.7,0.4l0.1,0l0.2,0.1l0.1,0.1
	l0.4,0.2l-0.4-1 M248.9,87.7l0-0.2l0.1-0.2l0.1-0.1l0.1,0l0.1,0l0.2,0.2l0.1,0.3l0,0.4l0,0.3l-0.1,0.1l0.1,0l0,0l0.1-0.2v0
	 M249.6,87.5l0,0.1l0,0.1 M249.5,88.5L249.5,88.5l-0.3,0.1l-0.1-0.1l0-0.1l-0.1-0.1l-0.1-0.2 M250.9,89.5l-1.1-0.6v-0.4l0.9,0.5
	l0.1,0l0,0h0l0.1-0.1l-0.2,0l-0.9-0.5 M251,88.9l-0.1,0.2l-0.1,0.1l-0.1,0h-0.1l-0.1,0l0.3,0.2 M250.6,89v-0.2 M250.8,88.8
	L250.8,88.8 M249.7,87.8L249.7,87.8 M252.7,87.8l0.4,1l-1.8,0.3"/>
<path id="Layer3_8_MEMBER_129_1_STROKES" class="st3" d="M233.5,78.7l-0.3,0.5 M232.7,78l-0.4,0.5"/>
<path id="Layer3_8_MEMBER_130_1_STROKES" class="st7" d="M223,71.7l0-0.3l0.3-0.7l0.4-0.6l0.5-0.5l0.6-0.4l0.7-0.3l0.8-0.2h0.8
	l0.8,0.2l0.8,0.3l1.4,0.9l0.6,0.6l0.5,0.7l0.4,0.7l0.2,0.8l0.1,0.8l-0.1,0.8l-0.2,0.7"/>
<path id="Layer3_8_MEMBER_131_1_STROKES" class="st4" d="M225.8,76.7l-0.7-0.4l-0.7-0.6l-0.6-0.6l-0.5-0.7l-0.3-0.8l-0.1-0.3"/>
<path id="Layer3_8_MEMBER_132_1_STROKES" class="st7" d="M231.6,75.1l-1.3,3"/>
<path id="Layer3_8_MEMBER_133_1_STROKES" class="st3" d="M232.2,74.2l-1.3,3"/>
<path id="Layer3_8_MEMBER_134_1_STROKES" class="st4" d="M227.8,77.7l-2-1"/>
<path id="Layer3_8_MEMBER_135_1_STROKES" class="st3" d="M229.5,78.6l-0.8-0.4"/>
<path id="Layer3_8_MEMBER_136_1_STROKES" class="st7" d="M229.7,78.1l-0.2,0.4"/>
<path id="Layer3_8_MEMBER_137_1_STROKES" class="st3" d="M229.6,78.4l-0.1,0.2"/>
<path id="Layer3_8_MEMBER_138_1_STROKES" class="st4" d="M228.1,77.3l-2.1-1.1"/>
<path id="Layer3_8_MEMBER_139_1_STROKES" class="st7" d="M229.7,78.1l-0.7-0.4"/>
<path id="Layer3_8_MEMBER_140_1_STROKES" class="st4" d="M228.9,76.5l-2.2-1.1"/>
<path id="Layer3_8_MEMBER_141_1_STROKES" class="st3" d="M223.8,70.9l0.1-0.2l0.4-0.5l0.5-0.4l0.6-0.3l0.7-0.2l0.7,0l0.8,0.1
	l0.7,0.2l0.7,0.3l0.6,0.4l0.6,0.5l0.5,0.6l0.4,0.7l0.2,0.7l0.1,0.7l-0.1,0.7l-0.2,0.6 M229.8,77.9l-0.1,0.2"/>
<path id="Layer3_8_MEMBER_142_1_STROKES" class="st4" d="M226.7,75.4l-0.7-0.5l-0.6-0.5l-0.5-0.6l-0.4-0.7l-0.3-0.8l-0.1-0.6
	 M226,76.3l-0.7-0.4l-0.6-0.5l-0.9-1.2l-0.3-0.7l-0.1-0.6"/>
<path id="Layer3_8_MEMBER_143_1_STROKES" class="st3" d="M231.1,74.8l-0.7,1.6l-0.3,0.8l-1,0.3 M230.4,76.5l-0.6,0.2"/>
<path id="Layer3_8_MEMBER_144_1_STROKES" class="st7" d="M231,77.2l-0.7,0.9l-1.2-0.6"/>
<path id="Layer3_8_MEMBER_145_1_STROKES" class="st3" d="M229.8,76.7l-0.7,0.9 M229.9,78.4l0.5,0.2 M229.9,78.4l-0.2-0.3l-0.1,0.2
	l0.2,0.3 M230.1,78.3l-0.1,0.2 M231.8,79.4l-0.1,0.2 M229.7,78.2l0.2-0.3"/>
<path id="Layer3_8_MEMBER_146_1_STROKES" class="st7" d="M230.4,78.7l-0.2-0.2l-0.1-0.1l-0.1-0.1l0-0.1V78 M231.5,78.2l0.2,0.1
	l0.2,0.1l0.1,0.1l0,0.1l-0.1,0l0,0l-0.3-0.1l-0.2-0.1l-0.1-0.1l0-0.1l0.1,0H231.5z M231.4,78.3l0.2,0.1l0.1,0.1l0,0v0l0,0
	 M231.9,79.2l-1.3-0.6 M231.8,79l-1.2-0.6"/>
<path id="Layer3_8_MEMBER_147_1_STROKES" class="st3" d="M230.6,78.4l0,0.2l1.3,0.6l0,0l0,0.1 M230.6,78.6l-0.1-0.1 M232.7,78
	l0.2-0.1h0.3l0.2,0.1l0.2,0.2l0,0.2l-0.1,0.2 M231.8,79.3l-0.1,0.3l-1.8-0.9 M232.4,78.3l-1.2-0.6"/>
<path id="Layer3_8_MEMBER_148_1_STROKES" class="st7" d="M231.2,77.7l-0.6,0.7"/>
<path id="Layer3_8_MEMBER_149_1_STROKES" class="st3" d="M232.1,79.6l-0.2-0.2l-0.1-0.3l0-0.3l0.1-0.1l0.1-0.1l0.1-0.1l0.1-0.1
	l0.2,0l0.2,0l0.2,0.1l0.2,0.1l0.2,0.3l0.1,0.2v0.2l-0.1,0.2l-0.2,0.2l-0.2,0.1h-0.1 M232.4,78.3h0.1l0-0.2l0-0.1l0.1-0.2l0.1,0l0,0
	l0.1-0.1l0.3-0.1l0.2,0l0.2,0.1l0.3,0.2l0.1,0.2l0,0.2v0.2l-0.1,0.1l0,0.1l-0.2,0.2l-0.1,0.1l-0.1,0 M232.6,77.9L232.6,77.9l0.3-0.2
	h0.2l0.2,0.1l0.2,0.2l0.2,0.2l0,0.2l0,0.1 M232.5,78.2l0.2-0.2l0.1-0.1l0.2-0.1l0.2,0l0.2,0.1l0.2,0.1l0.2,0.4l0,0.2l-0.1,0.2
	l-0.1,0.2 M232,78.8l0.1-0.2l0.3-0.1l0.3,0.1l0.2,0.2l0.2,0.3v0.3"/>
<path class="st8" d="M263.3,61.4l-1.3-0.1l-1.4,1.4l-0.1,3.3l3.6,1.6l0.5-0.2l11.7,6.1l0.1-1.5l-10.7-5.7l0.1-0.7v-1l-1-1.6
	L263.3,61.4z"/>
<path class="st6" d="M262.5,62l-0.3,0.2l-0.9,0.9l-0.1,0.2l0,0.2l0.1,0.2l0.2,0.2l0.2,0.2l0.2,0.2l0.1,0.1l0,0.4l-0.6-0.3h-0.1
	l-0.2,0.1l-0.1,0.1l-0.1,0.2l0,0.1v0l-0.1,0.2l0,0.1l0,0.1l0.6,0.3l0,0h0.2l0,0v0l0,0.1v0.1l0,0.1v0.1l1.3,0.7l0,0h0l0.1-0.1
	l0.1-0.1l0.1,0l0,0.1l0.6,0.3l0-0.1l0-0.2l0.1-0.2l0.2-0.2l0.1-0.1l0.1,0l-0.5-0.3l0,0l0,0l0,0l-0.1,0l0,0l0-0.1l0-0.1h0.1l0,0h0.1
	l0,0l0.1,0v0l0,0l0.5,0.3l0.2,0.1l0.2,0l0.1,0l0.1-0.1l0.1,0l0.1-0.1l0-0.2l0-0.2l0-0.1L264,63l-0.3-0.3l-0.3-0.3l-0.3-0.2l-0.3-0.1
	H262.5z"/>
<path id="Layer3_8_MEMBER_152_1_STROKES" class="st4" d="M248.9,89.3L249,89l0.1-0.1l0.1,0l0.1,0l0.2,0.2l0.1,0.3l0,0.3l0,0.3
	l-0.1,0.2l0.1,0l0.1-0.1l0.1-0.2v-0.3l-0.1-0.3l-0.1-0.1l-0.1-0.1l-0.2-0.2h0l0,0h-0.1 M249.6,89.2l0.1,0.1v0l0,0l0,0.2v0
	 M249.6,90.2L249.6,90.2 M249.9,90L249.9,90L249.9,90L249.9,90l-0.1-0.2v0 M249.4,90.2l-0.2,0 M250.9,89.9l-1.1,0.2"/>
<path id="Layer3_8_MEMBER_153_1_STROKES" class="st3" d="M242.1,62v0.2"/>
<path id="Layer3_8_MEMBER_154_1_STROKES" class="st7" d="M241.3,62.3l0,0.2"/>
<path id="Layer3_8_MEMBER_155_1_STROKES" class="st3" d="M240.9,62.6l0,0.4"/>
<path class="st6" d="M260.9,74.5L260.9,74.5l-2.1-1.1l-0.1,0h-0.2l-0.2,0l-0.2,0.1l-0.1,0.1l-0.2,0.3l-0.1,0.2l0,0.1v0.2l0,0.2
	l0,0.1l0,0l2.1,1.1l0.1,0l0,0h0.1l0.1,0l0.1,0l0.2-0.1l0.1-0.1l0.2-0.4l0-0.2v-0.3L260.9,74.5L260.9,74.5 M249.7,67.9l-0.2,0l-0.1,0
	l-0.1,0.1l-0.3,0.3l-0.3,0.5l-0.2,0.5l-0.1,0.5l0,0.4l0.2,0.2l1.5,0.8h0l0.1,0.1l0,0v0l0.1,0.2l0.1,0.1l0.9,0.5l0,0.1v0.1l0.1,0.2
	l0.5,0.3l0.4,0.1l0.3,0l0.2-0.1l0,0.1l0,0l0,0.1l0,0.1l0.1,0.1l0.1,0l1.1,0.6l0,0l0.2,0.1h0.2v0l1.2,0.6l0,0l0.1,0.1l0.1,0.1
	l1.3,0.7l-0.1-0.1l-0.1-0.2l0-0.2v-0.3l0.1-0.4l0.1-0.4l0.2-0.4l0.5-0.7l0.2-0.2l0.1,0.1l2.6-1.8l0.1-0.1v-0.1l0-0.1l-0.2-0.2
	l-0.2-0.1l-0.2-0.1l-0.1-0.1l-0.2,0l-0.1,0l-0.2,0l-1.7,1.2l-1.1,0.2l-0.7-0.3v0l-0.1-0.2l-0.1-0.1l-0.1,0l-1.3-0.7l-0.1,0h-0.1
	l-0.1,0h-0.2l-0.2,0v0l-0.3-0.1l-0.1-0.2l-0.1-0.1l-1.5-0.8l-0.2,0l-0.2,0.1h0l-0.1-0.1h0L249.7,67.9L249.7,67.9z"/>
<path class="st9" d="M259.5,71.9L259.5,71.9l-0.1,0.1l0,0.1l0,0.1l0,0.4l0,0.1l0.1,0.1l0,0l0-0.6l0-0.1l0,0L259.5,71.9l1.4-0.9v-0.1
	L259.5,71.9z"/>
<path class="st6" d="M257.4,74.5l0,0.4l0.1,0.2l0.2,0.2l0.1,0.1l0.2,0h0.2l0.2,0l0.2-0.1l0.2-0.1l0.2-0.2l0.1,0l0.2-0.2l0.3-0.4
	l0.2-0.5l0.1-0.4v-0.4l-0.1-0.3l-0.1-0.1l-0.1-0.1l-0.1,0h-0.2l-0.2,0l-0.3,0.2l-0.3,0.3l-0.4,0.6l-0.2,0.5L257.4,74.5z"/>
<path id="Layer3_8_MEMBER_158_1_STROKES" class="st3" d="M239.6,69.5l-1.2,2l-0.8,1.2l-4.1,5.1 M233.8,78l4.7-6l1.5-2.3 M249.2,68.1
	l-0.9-0.5c-0.3-0.1-0.5-0.1-0.6-0.1c-0.4,0-0.8,0.2-1.1,0.5c-0.3,0.3-0.5,0.7-0.5,1.1l0,1.5l0,0l0,0.1l0.1,0.1l0.1,0l0.1,0l0.2,0.1
	l0.3,0h0.3l0.3-0.1l0.2-0.1l0.1-0.2l0.1-1.1l-0.4-0.2l-0.1-0.2l0-0.2l0-0.2 M248.4,69.7l-0.5-0.2 M247.6,70.8V74
	c0,0.8,0.2,1.6,0.7,2.3l0,0v0l0,0v0l0,0v0.2l-0.1,0.2l0,0l0,0h0l0,0h-0.2l-0.1,0l0,0l-0.1,0l0,0l-0.2-0.1l0,0l-0.1,0l0,0h-0.2l0,0h0
	l0,0v0l0,0l0,0v0v0l0,0v0l0.1,0.1h0 M246.4,70.8v3.1c0,1,0.3,2,0.8,2.9"/>
<path id="Layer3_8_MEMBER_159_1_STROKES" class="st4" d="M241.7,85.5l3.6,2l1.1,0.4l0.6,0.2l1.3,0.1l0.8,0l0.1,0 M249.2,87.7l-0.1,0
	l-1.2,0.1l-1.1-0.2l-1.4-0.5l-3.4-1.8"/>
<path id="Layer3_8_MEMBER_160_1_STROKES" class="st3" d="M232.3,79.2l-0.1,0.3l0,0.2V80l0.1,0.3l0.1,0.2l0.3,0.4l0.2,0.2l7.4,3.8
	 M240.8,84.7l-7.5-3.9l-0.4-0.3l-0.2-0.1l-0.1-0.2l-0.1-0.3l0-0.3v-0.1l0-0.1l0-0.1l0.1-0.2"/>
<path id="Layer3_8_MEMBER_161_1_STROKES" class="st4" d="M249.3,89.7l-1.7,0.3 M249.2,89.4l-1.7,0.3"/>
<path id="Layer3_8_MEMBER_162_1_STROKES" class="st3" d="M241.7,67.8l0.6-0.3l0.6-0.2l14.8-2.9h0.9l0.8,0.1l0.9,0.2L261,65
	 M261.1,64.7l-0.6-0.3l-0.2-0.1l-0.9-0.2l-0.8-0.1h-1l-15.2,3l-0.6,0.3l-0.4,0.2 M264.3,66.7l12.1,6.3h0 M276.6,72.7l-12.1-6.3"/>
<path id="Layer3_8_MEMBER_163_1_STROKES" class="st4" d="M280.8,80.4l1.3-1.6l0.2-0.4l0.1-0.4l0-0.3v-0.3l0-0.2 M282.1,77.5v0.2
	l-0.1,0.6l-0.2,0.4l-1.1,1.3"/>
<path id="Layer3_8_MEMBER_164_1_STROKES" class="st3" d="M279.7,74.8l0.9,0.6l0.8,0.7l0.2,0.3 M282,76.3l-0.3-0.5l-0.8-0.8l-1-0.6"
	/>
<path id="Layer3_8_MEMBER_165_1_STROKES" class="st4" d="M261.4,86.4l1.9-1.3l2.3-1.9l1-1.4l0.5-1.3 M266.7,80.7l-0.5,1.1l-0.4,0.6
	l-0.5,0.6l-1.4,1.2l-2.6,1.8l-0.9,0.5 M277,85.1l0.3-0.2 M277.4,84.5l-0.5,0.3 M257.8,87.2l8.1-0.2l5.7-0.3l1.3-0.2 M272.8,86
	l-3.5,0.5l-11.4,0.3 M258.4,87.3l-0.5,0.2 M258,87.9l1.4-0.5 M253.2,88.9l1.2-0.3 M254.5,88.3l-1.4,0.3 M252.8,87.3l0.5,0l1.1,0
	 M254.5,86.9l-1.2,0l-0.5,0"/>
<path id="Layer3_8_MEMBER_166_1_STROKES" class="st3" d="M232.6,79.2c0-0.1-0.1-0.2-0.2-0.2c-0.1,0-0.1,0-0.2,0.1 M267.2,79.4
	l-0.3-0.7l-0.9-0.9l-5.4-2.9 M260.4,75.2l5.3,2.9l0.8,0.8l0.1,0.4"/>
<path id="Layer3_8_MEMBER_167_1_STROKES" class="st4" d="M249.3,89.7c0.1,0,0.1-0.1,0.1-0.2c0-0.1-0.1-0.2-0.2-0.2 M249.3,88.1
	c0,0,0.1-0.1,0.1-0.2c0-0.1,0-0.2-0.1-0.2"/>
<g>
	<ellipse class="st10" cx="254.1" cy="72.2" rx="12" ry="12"/>
	<ellipse class="st11" cx="254.1" cy="72.2" rx="12" ry="12"/>
</g>
<g>
	<path class="st2" d="M153.6,64.4l-0.8-4.6c-0.1-0.8-1.2-1.1-1.7-0.4l-9.6,13.7c-0.3,0.4-0.2,1,0.2,1.3l13.6,9.6
		c0.7,0.5,1.6-0.1,1.5-0.9l-0.8-4.7c-0.1-0.5,0.2-0.9,0.7-1.1c32.4-10.1,59.9-12.6,85.6-6.4c0,0,0.1,0,0.1,0l3.3,0.5l-4.7-2.3
		c0,0-0.1,0-0.1-0.1c-27-8.7-55.7-10.1-86.1-3.9C154.2,65.2,153.7,64.9,153.6,64.4z"/>
	<path id="Layer1_10_1_STROKES_9_" class="st12" d="M246.2,71.9l-5.2-2.8c0,0-0.1,0-0.1,0c-27.1-8.8-56-10-86.1-4
		c-0.5,0.1-1-0.2-1.1-0.8l-0.8-4.6c-0.1-0.8-1.2-1.1-1.7-0.4L141.6,73c-0.3,0.4-0.2,1,0.2,1.3l13.6,9.6c0.7,0.5,1.6-0.1,1.5-0.9
		l-0.8-4.7c-0.1-0.5,0.2-0.9,0.7-1.1c32.4-10.1,61.3-12.1,87.1-5.9C246.2,71.9,246.2,71.9,246.2,71.9z"/>
</g>
</svg>
