<?xml version="1.0" encoding="utf-8"?>
<!-- Generator: Adobe Illustrator 24.2.1, SVG Export Plug-In . SVG Version: 6.00 Build 0)  -->
<svg version="1.1" id="Ebene_1" xmlns="http://www.w3.org/2000/svg" xmlns:xlink="http://www.w3.org/1999/xlink" x="0px" y="0px"
	 viewBox="0 0 349.1 161" style="enable-background:new 0 0 349.1 161;" xml:space="preserve">
<style type="text/css">
	.st0{font-family:'ArialMT';}
	.st1{font-size:12.5632px;}
	.st2{fill:#0099FF;fill-opacity:0.298;}
	.st3{fill:none;stroke:#B1B1B1;stroke-linecap:round;stroke-linejoin:round;}
	.st4{fill:#0099FF;}
	.st5{fill:#CCCCCC;}
	.st6{fill:none;stroke:#2B2B2A;stroke-width:0.5;stroke-miterlimit:5;}
	.st7{fill:none;stroke:#2B2B2A;stroke-width:0.25;stroke-miterlimit:5;}
	.st8{fill:none;stroke:#B1B1B1;stroke-width:0.5;stroke-miterlimit:5;}
	.st9{fill:none;stroke:#B1B1B1;stroke-width:0.25;stroke-miterlimit:5;}
	.st10{fill:none;stroke:#000000;stroke-width:0.5;stroke-miterlimit:5;}
	.st11{fill:none;stroke:#2B2B2A;stroke-width:0.45;stroke-miterlimit:5;}
	.st12{fill:none;stroke:#FFFFFF;stroke-width:0.25;stroke-miterlimit:5;}
	.st13{fill:none;stroke:#000000;stroke-width:0.25;stroke-miterlimit:5;}
</style>
<g>
	<text transform="matrix(1 0 0 1 17.8359 13.5568)" class="st0 st1">If MISSING Check Configuration Deviation List (CDL)</text>
</g>
<path class="st2" d="M4.9,0.1c0,0-0.1,0-0.1,0h-9.3v18.8h9.3c0,0,0.1,0,0.1,0c2.6,0,4.8-0.9,6.7-2.8c1.8-1.8,2.8-4,2.8-6.7
	c0-2.6-0.9-4.8-2.8-6.6C9.8,1.1,7.5,0.1,4.9,0.1z"/>
<path id="Layer1_9_MEMBER_0_1_STROKES" class="st3" d="M-4.5,0.1h9.3c0,0,0.1,0,0.1,0c2.6,0,4.8,0.9,6.7,2.8c1.8,1.8,2.8,4,2.8,6.6
	c0,2.6-0.9,4.8-2.8,6.7c-1.8,1.8-4.1,2.8-6.7,2.8c0,0-0.1,0-0.1,0h-9.3"/>
<path d="M3,14.8v1.5h5v-1.5H7V6.9H3v1.5h1.1v6.4H3z"/>
<path d="M3.3,4c0,0.5,0.2,1,0.6,1.3c0.4,0.4,0.8,0.6,1.3,0.6c0.5,0,1-0.2,1.4-0.6C6.9,5,7.1,4.6,7.1,4c0-0.5-0.2-1-0.6-1.3
	C6.2,2.3,5.7,2.1,5.2,2.1c-0.5,0-1,0.2-1.3,0.6C3.5,3,3.3,3.5,3.3,4z"/>
<path class="st4" d="M301.2,92.6c-0.2-0.1-0.4-0.2-0.7-0.3h-0.1c0,0-0.1,0-0.1,0h0l-0.2,0c-0.3,0-0.5,0.1-0.7,0.2
	c-0.2,0.1-0.3,0.3-0.3,0.5l0,17.1c0,0.2,0.1,0.3,0.4,0.5c0.2,0.1,0.5,0.2,0.9,0.2s0.6-0.1,0.9-0.2c0.3-0.1,0.4-0.3,0.4-0.5V93.3
	c0-0.1,0-0.2,0-0.2C301.6,92.9,301.5,92.8,301.2,92.6 M229,97.9c-0.7,1.1-1,2.4-1,3.7v31.3c0,1.2,0.5,2.1,1.4,2.7l2.3,1.3
	c0.5,0.4,1.1,0.6,1.8,0.6c0.7,0,1.2-0.1,1.6-0.4l59.4-34.3c1-0.7,1.9-1.6,2.6-2.9c0.7-1.2,1.1-2.4,1.2-3.6v-6.3l3.9-2.3l0.5-0.4
	l0.2-0.2l0.1-0.3l0-0.2v-5.5c0-0.4-0.3-0.8-0.8-1.1c-0.5-0.3-1.1-0.4-1.9-0.4v-3.4l1.9-1.1l0.5-0.3l0.2-0.3l0.1-0.2l0-0.3v-5.5
	c0-0.4-0.3-0.8-0.8-1.1c-0.5-0.3-1.1-0.5-1.8-0.5c-0.7,0-1.2,0.1-1.7,0.4l-0.3,0.2v-4c-0.1-1.1-0.5-1.9-1.2-2.3l0,0l-2.4-1.4
	c-0.7-0.3-1.5-0.2-2.3,0.2l-0.3,0.2l-60.3,34.8C230.6,95.9,229.7,96.8,229,97.9 M242.5,114.7l-6.5,3.8v-3.8l6.5-3.7v-1.7l5.2-3v6.8
	l-5.2,3V114.7 M248.7,33.4c-0.2-0.1-0.5-0.2-0.7-0.3c-0.6-0.1-1.2,0.1-1.8,0.4l-60.7,35c-1.1,0.7-2,1.6-2.7,2.7
	c-0.7,1.1-1,2.4-1,3.7v31.3c0,0.9,0.3,1.7,0.9,2.3c0.7,0.6,1.4,0.9,2.3,0.9c0.6,0,1.1-0.1,1.6-0.4l59.4-34.3c1-0.7,1.9-1.6,2.6-2.9
	c0.7-1.2,1.1-2.4,1.2-3.6v-6.1l11.1-6.3c0.2-0.1,0.4-0.2,0.6-0.4c0.4-0.3,0.7-0.7,0.9-1.1c0.4-0.6,0.6-1.3,0.6-2.1V39.8
	c0-0.5-0.2-1-0.6-1.4c-0.3-0.3-0.7-0.5-1.1-0.5c-0.1,0-0.2,0-0.2,0c-0.3,0-0.6,0.1-0.9,0.3l-10.3,6v-8.5
	C249.8,34.6,249.4,33.8,248.7,33.4 M233.4,42.3l0.2-0.2l0.2-0.1l1.5-0.4l0.9,0.5h0.1v0c0.3,0,0.6,0,0.8,0.1l0.2,0.1
	c0.1,0,0.1,0.1,0.1,0.1c0.3,0.2,0.4,0.4,0.6,0.6v0l0,0v0c0.2,0.7,0.1,1.5-0.3,2.4l0,0.1v0l0,0l0,0.1c0,0.1-0.1,0.1-0.1,0.2
	c-0.5,0.9-1.1,1.4-1.8,1.6l-0.3,0c-0.2,0.1-0.5,0.1-0.9-0.2h0c-0.4-0.3-0.6-0.5-0.7-0.8h0v0l-0.3-0.2l-0.2-0.2l-0.3-0.1l0,0
	l-0.4-1.5l0-0.2l0.1-0.2L233.4,42.3 M238.4,46.5c0.4-0.6,0.8-1.1,1.3-1.4c0.5-0.3,1-0.4,1.3-0.2l0.6,0.3c0.1,0,0.1,0.1,0.2,0.1
	c0.4,0.2,0.6,0.6,0.6,1.2c0,0.6-0.2,1.2-0.6,1.9c-0.3,0.6-0.8,1.1-1.3,1.4c-0.5,0.3-1,0.3-1.3,0.1h0l-0.7-0.4
	c-0.4-0.2-0.6-0.6-0.6-1.2C237.8,47.7,238,47.1,238.4,46.5 M326.2,57.1c-0.1-0.1-0.2-0.2-0.4-0.2l-0.8-0.5c-0.3-0.2-0.7-0.3-1.1-0.3
	c-0.3,0-0.6,0.1-0.9,0.3l-6.6,3.8v5.5l-0.6-0.3c-0.5-0.3-1.1-0.5-1.9-0.5c-0.7,0-1.3,0.1-1.8,0.4c-0.5,0.3-0.8,0.7-0.8,1.1v7
	c0,0.4,0.3,0.8,0.8,1.1c0.5,0.3,1.1,0.5,1.8,0.5c0.7,0,1.4-0.1,1.9-0.4l0.6-0.4v4l1.2,0.7l7.4-4.2c0.2-0.1,0.4-0.3,0.6-0.5
	c0.3-0.3,0.6-0.7,0.9-1.1c0.4-0.7,0.6-1.3,0.6-2.1V58.6c0-0.5-0.2-1-0.6-1.4C326.4,57.2,326.3,57.1,326.2,57.1 M321.2,63.3
	c-0.2-0.1-0.3-0.4-0.3-0.8c0-0.4,0.1-0.7,0.3-1.1c0.2-0.4,0.5-0.7,0.8-0.9c0.3-0.2,0.6-0.2,0.8,0c0.2,0.1,0.3,0.4,0.3,0.7
	c0,0.4-0.1,0.7-0.3,1.1c-0.2,0.4-0.5,0.7-0.8,0.9C321.7,63.4,321.4,63.4,321.2,63.3 M321.1,73.3c-0.2-0.1-0.3-0.3-0.3-0.7
	c0-0.2,0-0.4,0.1-0.6c0-0.2,0.1-0.4,0.2-0.5c0.1-0.2,0.2-0.3,0.3-0.4c0.1-0.2,0.3-0.3,0.5-0.4c0.3-0.2,0.6-0.2,0.8-0.1
	c0.2,0.1,0.3,0.3,0.3,0.7c0,0.4-0.1,0.8-0.3,1.1c0,0,0,0.1,0,0.1c-0.2,0.3-0.5,0.6-0.8,0.7C321.6,73.4,321.4,73.4,321.1,73.3z"/>
<path class="st5" d="M236,118.5l6.5-3.8v1.4l5.2-3v-6.8l-5.2,3v1.7l-6.5,3.7V118.5z"/>
<path id="Layer1_10_MEMBER_1_1_STROKES" class="st6" d="M317.4,60.7l6.6-3.8"/>
<path id="Layer1_10_MEMBER_2_1_STROKES" class="st6" d="M326.8,58.5v12.3"/>
<path id="Layer1_10_MEMBER_3_1_STROKES" class="st6" d="M324.8,74.4l-7.4,4.2v-5.4"/>
<path id="Layer1_10_MEMBER_4_1_STROKES" class="st6" d="M317.4,66.2v-5.5"/>
<path id="Layer1_10_MEMBER_5_1_STROKES" class="st6" d="M323.2,62.7c0.3-0.5,0.5-1,0.5-1.6c0-0.5-0.2-0.8-0.5-1
	c-0.3-0.2-0.7-0.2-1.1,0.1c-0.4,0.3-0.8,0.7-1.1,1.2c-0.3,0.5-0.5,1-0.5,1.6c0,0.5,0.2,0.8,0.5,1s0.7,0.1,1.1-0.1
	C322.5,63.6,322.9,63.2,323.2,62.7z"/>
<path id="Layer1_10_MEMBER_6_1_STROKES" class="st6" d="M323.2,72.7c-0.3,0.5-0.7,0.9-1.1,1.2c-0.4,0.3-0.8,0.3-1.1,0.1
	c-0.3-0.2-0.5-0.5-0.5-1c0-0.5,0.2-1,0.5-1.6c0.3-0.5,0.7-1,1.1-1.2c0.4-0.3,0.8-0.3,1.1-0.1c0.3,0.2,0.5,0.6,0.5,1.1
	C323.7,71.7,323.5,72.2,323.2,72.7z"/>
<path id="Layer1_10_MEMBER_7_1_STROKES" class="st7" d="M300.1,92.8v-1.4"/>
<path id="Layer1_10_MEMBER_8_1_STROKES" class="st7" d="M300.1,91v-0.4"/>
<path id="Layer1_10_MEMBER_9_1_STROKES" class="st7" d="M300.1,90.3v-1.4"/>
<path id="Layer1_10_MEMBER_10_1_STROKES" class="st6" d="M326.8,58.5c0-0.5-0.2-1-0.5-1.3c-0.3-0.4-0.8-0.5-1.3-0.5
	c-0.3,0-0.7,0.1-0.9,0.2"/>
<path id="Layer1_10_MEMBER_11_1_STROKES" class="st6" d="M324.8,74.4c0.6-0.4,1.1-0.9,1.5-1.5c0.4-0.7,0.5-1.3,0.5-2.1"/>
<path id="Layer1_10_MEMBER_12_1_STROKES" class="st6" d="M316.2,60l6.7-3.8"/>
<path id="Layer1_10_MEMBER_13_1_STROKES" class="st6" d="M316.2,78v-3.4"/>
<path id="Layer1_10_MEMBER_14_1_STROKES" class="st6" d="M316.2,65.5V60"/>
<path id="Layer1_10_MEMBER_15_1_STROKES" class="st6" d="M324.9,56.3c-0.3-0.2-0.7-0.4-1.1-0.4c-0.3,0-0.6,0.1-0.9,0.3"/>
<path id="Layer1_10_MEMBER_16_1_STROKES" class="st6" d="M317.4,78.7l-1.2-0.7"/>
<path id="Layer1_10_MEMBER_17_1_STROKES" class="st6" d="M317.4,60.7l-1.2-0.7"/>
<path id="Layer1_10_MEMBER_18_1_STROKES" class="st6" d="M326.1,57l-1.2-0.7"/>
<path id="Layer1_10_MEMBER_19_1_STROKES" class="st6" d="M315.2,66.2c0,0.2-0.1,0.4-0.4,0.6c-0.3,0.2-0.6,0.2-1.1,0.2
	s-0.8-0.1-1.1-0.2c-0.3-0.2-0.4-0.4-0.4-0.6c0-0.2,0.1-0.4,0.4-0.6c0.3-0.2,0.6-0.3,1.1-0.3s0.8,0.1,1.1,0.3
	C315.1,65.8,315.2,66,315.2,66.2z"/>
<path id="Layer1_10_MEMBER_20_1_STROKES" class="st6" d="M315.6,67.2l1.9-1.1"/>
<path id="Layer1_10_MEMBER_21_1_STROKES" class="st6" d="M315.6,65.1c-0.5-0.3-1.1-0.5-1.9-0.5c-0.7,0-1.3,0.1-1.8,0.4
	c-0.5,0.3-0.8,0.7-0.8,1.1c0,0.4,0.3,0.8,0.8,1.1c0.5,0.3,1.1,0.5,1.8,0.5c0.7,0,1.3-0.2,1.9-0.5"/>
<path id="Layer1_10_MEMBER_22_1_STROKES" class="st6" d="M316.2,65.5l-0.7-0.4"/>
<path id="Layer1_10_MEMBER_23_1_STROKES" class="st6" d="M315.6,74.3l1.9-1.1"/>
<path id="Layer1_10_MEMBER_24_1_STROKES" class="st6" d="M311.1,73.2c0,0.4,0.3,0.8,0.8,1.1c0.5,0.3,1.1,0.5,1.8,0.5
	c0.8,0,1.4-0.2,1.9-0.5"/>
<path id="Layer1_10_MEMBER_25_1_STROKES" class="st6" d="M311.1,73.2v-7"/>
<path id="Layer1_10_MEMBER_26_1_STROKES" class="st6" d="M302,75.1l0.5-0.4l0.2-0.2l0.1-0.2l0-0.2"/>
<path id="Layer1_10_MEMBER_27_1_STROKES" class="st6" d="M300.1,76.2l1.9-1.1"/>
<path id="Layer1_10_MEMBER_28_1_STROKES" class="st6" d="M300.1,76.2v7"/>
<path id="Layer1_10_MEMBER_29_1_STROKES" class="st6" d="M300.1,81.9c0.4,0,0.8-0.1,1.1-0.2c0.3-0.2,0.4-0.4,0.4-0.6
	c0-0.2-0.1-0.4-0.4-0.6c-0.3-0.2-0.6-0.2-1-0.2"/>
<path id="Layer1_10_MEMBER_30_1_STROKES" class="st6" d="M302,82.2c0.5-0.3,0.7-0.7,0.7-1.1c0-0.4-0.3-0.8-0.8-1.1
	c-0.5-0.3-1.1-0.4-1.8-0.4"/>
<path id="Layer1_10_MEMBER_31_1_STROKES" class="st6" d="M300.1,83.2l1.9-1.1"/>
<path id="Layer1_10_MEMBER_32_1_STROKES" class="st6" d="M301.6,68.5c0,0.2-0.1,0.4-0.4,0.6c-0.3,0.2-0.6,0.2-1,0.2
	c-0.4,0-0.8-0.1-1.1-0.2c-0.3-0.2-0.4-0.4-0.4-0.6c0-0.2,0.1-0.4,0.4-0.6c0.3-0.2,0.6-0.3,1.1-0.3c0.4,0,0.8,0.1,1,0.3
	C301.5,68.1,301.6,68.3,301.6,68.5z"/>
<path id="Layer1_10_MEMBER_33_1_STROKES" class="st6" d="M302,69.6c0.5-0.3,0.7-0.6,0.7-1.1c0-0.4-0.2-0.8-0.7-1.1
	c-0.5-0.3-1.1-0.5-1.8-0.5c-0.7,0-1.2,0.1-1.8,0.4"/>
<path id="Layer1_10_MEMBER_34_1_STROKES" class="st6" d="M298.1,71.9l3.9-2.2"/>
<path id="Layer1_10_MEMBER_35_1_STROKES" class="st6" d="M299,70l-0.7-0.4"/>
<path id="Layer1_10_MEMBER_36_1_STROKES" class="st6" d="M302,87.6l0.5-0.4l0.2-0.2l0.1-0.2l0-0.2"/>
<path id="Layer1_10_MEMBER_37_1_STROKES" class="st6" d="M298.1,89.8l3.9-2.2"/>
<path id="Layer1_10_MEMBER_38_1_STROKES" class="st6" d="M302.8,81.1v5.4"/>
<path id="Layer1_10_MEMBER_39_1_STROKES" class="st6" d="M302.8,74v-5.5"/>
<path id="Layer1_10_MEMBER_40_1_STROKES" class="st6" d="M298.1,70.5L299,70"/>
<path id="Layer1_10_MEMBER_41_1_STROKES" class="st6" d="M230.1,134v-31.3"/>
<path id="Layer1_10_MEMBER_42_1_STROKES" class="st6" d="M235,136.9l59.4-34.3c1-0.7,1.9-1.6,2.6-2.9c0.7-1.2,1.1-2.4,1.2-3.6V63.6
	c-0.1-1.1-0.5-1.9-1.2-2.3c-0.7-0.4-1.6-0.4-2.6,0.1l-60.6,35"/>
<path id="Layer1_10_MEMBER_43_1_STROKES" class="st6" d="M233.7,96.4c-1.1,0.7-2,1.6-2.7,2.7c-0.7,1.1-1,2.3-1,3.6"/>
<path id="Layer1_10_MEMBER_44_1_STROKES" class="st6" d="M230.1,134c0,0.9,0.3,1.7,1,2.3c0.6,0.6,1.4,0.9,2.3,0.9
	c0.7,0,1.2-0.1,1.6-0.4"/>
<path id="Layer1_10_MEMBER_45_1_STROKES" class="st6" d="M227.9,132.8v-31.3"/>
<path id="Layer1_10_MEMBER_46_1_STROKES" class="st6" d="M294.7,60l-0.2-0.1c-0.7-0.3-1.5-0.2-2.3,0.2l-0.3,0.2l-60.3,34.8"/>
<path id="Layer1_10_MEMBER_47_1_STROKES" class="st6" d="M231.5,95.1c-1.1,0.7-2,1.5-2.7,2.7c-0.7,1.1-1,2.4-1,3.7"/>
<path id="Layer1_10_MEMBER_48_1_STROKES" class="st6" d="M227.9,132.8c0,1.2,0.5,2.1,1.4,2.7"/>
<path id="Layer1_10_MEMBER_49_1_STROKES" class="st6" d="M296.9,61.3l-2.2-1.3"/>
<path id="Layer1_10_MEMBER_50_1_STROKES" class="st6" d="M231.5,136.7l-2.2-1.3"/>
<path id="Layer1_10_MEMBER_51_1_STROKES" class="st6" d="M242.3,110.9l-6.5,3.8"/>
<path id="Layer1_10_MEMBER_52_1_STROKES" class="st6" d="M242.3,114.7l-6.5,3.8"/>
<path id="Layer1_10_MEMBER_53_1_STROKES" class="st6" d="M247.6,106.3l-5.2,3"/>
<path id="Layer1_10_MEMBER_54_1_STROKES" class="st6" d="M247.6,113.1l-5.2,3"/>
<path id="Layer1_10_MEMBER_55_1_STROKES" class="st6" d="M235.8,118.5v-3.8"/>
<path id="Layer1_10_MEMBER_56_1_STROKES" class="st6" d="M247.6,113.1v-6.8"/>
<path id="Layer1_10_MEMBER_57_1_STROKES" class="st6" d="M242.3,116.1v-1.4"/>
<path id="Layer1_10_MEMBER_58_1_STROKES" class="st6" d="M242.3,110.9v-1.6"/>
<path id="Layer1_10_MEMBER_59_1_STROKES" class="st7" d="M285.9,51.2l4.1,2.4"/>
<path id="Layer1_10_MEMBER_60_1_STROKES" class="st7" d="M291.1,54.3l1,0.6"/>
<path id="Layer1_10_MEMBER_61_1_STROKES" class="st7" d="M293.1,55.5l8.3,4.8"/>
<path id="Layer1_10_MEMBER_62_1_STROKES" class="st7" d="M302.5,60.9l1,0.6"/>
<path id="Layer1_10_MEMBER_63_1_STROKES" class="st7" d="M304.6,62.1l4.1,2.4"/>
<path id="Layer1_10_MEMBER_64_1_STROKES" class="st7" d="M322,72.1l2.8,1.6"/>
<path id="Layer1_10_MEMBER_65_1_STROKES" class="st7" d="M325.5,74.1l0.7,0.4"/>
<path id="Layer1_10_MEMBER_66_1_STROKES" class="st7" d="M326.9,74.9l2.8,1.6"/>
<path id="Layer1_10_MEMBER_67_1_STROKES" class="st7" d="M313.7,77.3v-0.8"/>
<path id="Layer1_10_MEMBER_68_1_STROKES" class="st7" d="M313.7,76.3v-0.2"/>
<path id="Layer1_10_MEMBER_69_1_STROKES" class="st7" d="M313.7,75.9v-0.8"/>
<path id="Layer1_10_MEMBER_70_1_STROKES" class="st7" d="M313.7,66.2v-1.1"/>
<path id="Layer1_10_MEMBER_71_1_STROKES" class="st7" d="M313.7,64.9v-0.3"/>
<path id="Layer1_10_MEMBER_72_1_STROKES" class="st7" d="M313.7,64.3v-1.1"/>
<path id="Layer1_10_MEMBER_73_1_STROKES" class="st7" d="M309.3,65.8l1.6-0.9"/>
<path id="Layer1_10_MEMBER_74_1_STROKES" class="st7" d="M311.3,64.6l0.4-0.2"/>
<path id="Layer1_10_MEMBER_75_1_STROKES" class="st7" d="M312.1,64.2l1.6-0.9"/>
<path id="Layer1_10_MEMBER_76_1_STROKES" class="st7" d="M309.3,79.8l1.6-0.9"/>
<path id="Layer1_10_MEMBER_77_1_STROKES" class="st7" d="M311.3,78.7l0.4-0.2"/>
<path id="Layer1_10_MEMBER_78_1_STROKES" class="st7" d="M312.1,78.2l1.6-0.9"/>
<path id="Layer1_10_MEMBER_79_1_STROKES" class="st7" d="M300.9,78.9l3.1-1.8"/>
<path id="Layer1_10_MEMBER_80_1_STROKES" class="st7" d="M304.7,76.7l0.8-0.4"/>
<path id="Layer1_10_MEMBER_81_1_STROKES" class="st7" d="M306.3,75.9l3.1-1.8"/>
<path id="Layer1_10_MEMBER_82_1_STROKES" class="st7" d="M300.2,77.7l3.3-1.9"/>
<path id="Layer1_10_MEMBER_83_1_STROKES" class="st7" d="M304.4,75.3l0.8-0.5"/>
<path id="Layer1_10_MEMBER_84_1_STROKES" class="st7" d="M306,74.4l3.3-2V70"/>
<path id="Layer1_10_MEMBER_85_1_STROKES" class="st7" d="M309.3,69.4v-0.6"/>
<path id="Layer1_10_MEMBER_86_1_STROKES" class="st7" d="M309.3,68.2v-2.4"/>
<path id="Layer1_10_MEMBER_87_1_STROKES" class="st7" d="M309.3,79.8v-2.1"/>
<path id="Layer1_10_MEMBER_88_1_STROKES" class="st7" d="M309.3,77.2v-0.5"/>
<path id="Layer1_10_MEMBER_89_1_STROKES" class="st7" d="M309.3,76.2v-2.1"/>
<path id="Layer1_10_MEMBER_90_1_STROKES" class="st6" d="M300.2,93.7c-0.3,0-0.6-0.1-0.9-0.2c-0.2-0.1-0.4-0.3-0.4-0.5
	c0-0.2,0.1-0.4,0.4-0.5c0.3-0.2,0.6-0.2,0.9-0.2c0.3,0,0.6,0.1,0.9,0.2c0.3,0.2,0.4,0.3,0.4,0.5c0,0.2-0.1,0.4-0.4,0.5
	C300.8,93.7,300.5,93.7,300.2,93.7z"/>
<path id="Layer1_10_MEMBER_91_1_STROKES" class="st6" d="M298.9,110.1c0,0.2,0.1,0.4,0.4,0.5c0.2,0.1,0.5,0.2,0.9,0.2
	c0.3,0,0.6-0.1,0.9-0.2c0.2-0.1,0.4-0.3,0.4-0.5"/>
<path id="Layer1_10_MEMBER_92_1_STROKES" class="st6" d="M298.9,110.1V93"/>
<path id="Layer1_10_MEMBER_93_1_STROKES" class="st6" d="M301.4,110.1V93"/>
<path id="Layer1_10_MEMBER_94_1_STROKES" class="st6" d="M301.2,92.9c0-0.2-0.1-0.3-0.3-0.4c-0.2-0.1-0.4-0.2-0.7-0.2
	s-0.5,0.1-0.7,0.2c-0.2,0.1-0.3,0.2-0.3,0.4c0,0.4,0.4,0.6,1.1,0.6C300.9,93.5,301.2,93.3,301.2,92.9z"/>
<path id="Layer1_10_MEMBER_95_1_STROKES" class="st8" d="M340,81L340,81l-0.3,0.2l0,0h-0.3v0h0l-0.2-0.2v0h0v-0.4h0v0l-0.2,0.1
	l-0.2,0.1l-0.2,0.1v0l0,0c0,0.2,0,0.5-0.2,0.8l0,0v0c-0.2,0.3-0.4,0.5-0.7,0.6h0V83h0l0.3-0.2h0.1c0.1,0,0.2,0,0.3,0v0h0.1v0
	l0.1,0.1v0l0,0v0.1h0l0,0.4v0l0.1,0l0.2-0.1l0.2-0.1l0.2-0.1h0.1v0c-0.1-0.2,0-0.5,0.2-0.9l0,0v0l0,0l0.3-0.4h0l0.1-0.1h0l0,0h0v0
	h0.1l0,0L340,81L340,81z"/>
<path id="Layer1_10_MEMBER_96_1_STROKES" class="st8" d="M339.7,79.6c-0.7-0.1-1.3,0.4-1.9,1.2"/>
<path id="Layer1_10_MEMBER_97_1_STROKES" class="st8" d="M337.3,81.7c-0.4,0.9-0.5,1.7-0.1,2.2"/>
<path id="Layer1_10_MEMBER_98_1_STROKES" class="st8" d="M337.8,79.7c-0.4,0-0.8,0.3-1.2,0.9c-0.4,0.6-0.4,1.1-0.2,1.5"/>
<path id="Layer1_10_MEMBER_99_1_STROKES" class="st8" d="M331.1,75.9c-0.3,0-0.6,0.2-0.9,0.5"/>
<path id="Layer1_10_MEMBER_100_1_STROKES" class="st8" d="M329.7,77.1c-0.2,0.5-0.2,0.9,0,1.2"/>
<path id="Layer1_10_MEMBER_101_1_STROKES" class="st8" d="M335.5,78.3c-0.4-0.2-0.8,0-1.2,0.4"/>
<path id="Layer1_10_MEMBER_102_1_STROKES" class="st8" d="M333.8,79.5c-0.3,0.7-0.2,1.2,0.2,1.4"/>
<path id="Layer1_10_MEMBER_103_1_STROKES" class="st8" d="M334.6,77.8c-0.3-0.2-0.7,0-1.2,0.4"/>
<path id="Layer1_10_MEMBER_104_1_STROKES" class="st8" d="M333,79.1c-0.3,0.7-0.2,1.2,0.2,1.4"/>
<path id="Layer1_10_MEMBER_105_1_STROKES" class="st8" d="M333.8,77.3c-0.3-0.2-0.7-0.1-1.1,0.4"/>
<path id="Layer1_10_MEMBER_106_1_STROKES" class="st8" d="M332.1,78.6c-0.3,0.7-0.2,1.2,0.2,1.4"/>
<path id="Layer1_10_MEMBER_107_1_STROKES" class="st8" d="M332.9,76.8c-0.3-0.2-0.7,0-1.1,0.4"/>
<path id="Layer1_10_MEMBER_108_1_STROKES" class="st8" d="M331.3,78c-0.3,0.7-0.2,1.2,0.2,1.4"/>
<path id="Layer1_10_MEMBER_109_1_STROKES" class="st8" d="M332,76.3c-0.4-0.2-0.8,0-1.2,0.4"/>
<path id="Layer1_10_MEMBER_110_1_STROKES" class="st8" d="M330.4,77.5c-0.3,0.7-0.2,1.2,0.2,1.4"/>
<path id="Layer1_10_MEMBER_111_1_STROKES" class="st8" d="M330.5,75.9l0.2,0h0.6l0,0h0l6.5,3.8l0.8-0.1h0.4l0.3,0
	c0.5-0.1,0.9,0.1,1.1,0.4v0l0,0c0.2,0.4,0.2,0.9,0.1,1.5v0.2l0,0c-0.2,0.6-0.4,1.1-0.8,1.6c-0.4,0.6-0.9,0.9-1.4,1h-0.1l-0.1,0h-0.2
	c-0.4-0.1-0.6-0.2-0.7-0.5v0l-0.1-0.2l-0.7-1.3l-6.5-3.8l0,0h0c-0.2-0.3-0.3-0.5-0.4-0.6l0-0.1l0-0.1v-0.1l0,0v0
	c0-0.4,0.1-0.8,0.5-1.3l0,0l0.1,0l0,0c0.1-0.1,0.2-0.2,0.4-0.2l0,0H330.5z"/>
<path id="Layer1_10_MEMBER_112_1_STROKES" class="st7" d="M270.1,60.3l5.8-3.3"/>
<path id="Layer1_10_MEMBER_113_1_STROKES" class="st7" d="M277.3,56.2l1.4-0.8"/>
<path id="Layer1_10_MEMBER_114_1_STROKES" class="st7" d="M280.1,54.5l5.8-3.3"/>
<path id="Layer1_10_MEMBER_115_1_STROKES" class="st7" d="M256.3,52.4l5,2.9"/>
<path id="Layer1_10_MEMBER_116_1_STROKES" class="st7" d="M262.6,56l1.3,0.7"/>
<path id="Layer1_10_MEMBER_117_1_STROKES" class="st7" d="M265.1,57.4l5,2.9"/>
<path id="Layer1_10_MEMBER_118_1_STROKES" class="st6" d="M184.8,88.1l42-24.3"/>
<path id="Layer1_10_MEMBER_119_1_STROKES" class="st6" d="M232.9,61.5l13.9,8"/>
<path id="Layer1_10_MEMBER_120_1_STROKES" class="st6" d="M322.6,62.3c-0.2,0.4-0.5,0.7-0.8,0.9s-0.6,0.2-0.8,0.1
	c-0.2-0.1-0.3-0.4-0.3-0.7c0-0.4,0.1-0.7,0.3-1.1c0.2-0.4,0.5-0.7,0.8-0.9c0.3-0.2,0.6-0.2,0.8-0.1c0.2,0.1,0.3,0.4,0.3,0.7
	C322.9,61.6,322.8,61.9,322.6,62.3z"/>
<path id="Layer1_10_MEMBER_121_1_STROKES" class="st6" d="M322.6,72.3c0.2-0.4,0.3-0.8,0.3-1.1c0-0.3-0.1-0.6-0.3-0.7
	c-0.2-0.1-0.5-0.1-0.8,0.1c-0.3,0.2-0.6,0.5-0.8,0.8c-0.2,0.4-0.4,0.8-0.4,1.1c0,0.4,0.1,0.6,0.4,0.7c0.2,0.1,0.5,0.1,0.8-0.1
	C322.1,73,322.3,72.7,322.6,72.3z"/>
<path id="Layer1_10_MEMBER_122_1_STROKES" class="st7" d="M243.2,49.4l1.4-0.9"/>
<path id="Layer1_10_MEMBER_123_1_STROKES" class="st7" d="M245,48.3l0.4-0.2"/>
<path id="Layer1_10_MEMBER_124_1_STROKES" class="st7" d="M245.7,47.9l1.4-0.8"/>
<path id="Layer1_10_MEMBER_125_1_STROKES" class="st8" d="M239.4,47.1c0.2-0.4,0.5-0.6,0.8-0.8c0.3-0.2,0.6-0.2,0.8-0.1
	c0.2,0.1,0.3,0.4,0.3,0.7c0,0.4-0.1,0.7-0.3,1.1c-0.2,0.4-0.5,0.7-0.8,0.9c-0.3,0.2-0.6,0.2-0.8,0.1c-0.2-0.1-0.3-0.4-0.3-0.7
	C239.1,47.9,239.2,47.5,239.4,47.1z"/>
<path id="Layer1_10_MEMBER_126_1_STROKES" class="st8" d="M238.9,46.9c0.4-0.6,0.8-1.1,1.3-1.4c0.5-0.3,0.9-0.4,1.3-0.2
	c0.4,0.2,0.5,0.6,0.5,1.2c0,0.6-0.2,1.2-0.5,1.8c-0.3,0.6-0.8,1.1-1.3,1.4c-0.5,0.3-1,0.3-1.3,0.1c-0.3-0.2-0.5-0.6-0.5-1.2
	S238.6,47.5,238.9,46.9z"/>
<path id="Layer1_10_MEMBER_127_1_STROKES" class="st8" d="M239.1,48.7c0.4-0.1,0.8-0.4,1.1-1c0.3-0.6,0.4-1.1,0.3-1.5"/>
<path id="Layer1_10_MEMBER_128_1_STROKES" class="st8" d="M240.8,44.9c-0.4-0.2-0.8-0.1-1.3,0.2c-0.5,0.3-0.9,0.7-1.3,1.3
	c-0.4,0.6-0.5,1.2-0.5,1.8c0,0.6,0.2,1,0.5,1.2"/>
<path id="Layer1_10_MEMBER_129_1_STROKES" class="st8" d="M240.8,44.9l0.7,0.4"/>
<path id="Layer1_10_MEMBER_130_1_STROKES" class="st8" d="M238.9,49.9l-0.7-0.4"/>
<path id="Layer1_10_MEMBER_131_1_STROKES" class="st8" d="M232.1,44.2l0.2-0.2l1-1.8l0.2-0.2l0.2-0.1l1.6-0.4l0.8,0.4l0.1,0h0.1v0
	c0.3,0,0.6,0.1,0.7,0.2l0.1,0l0.1,0c0.3,0.2,0.5,0.4,0.7,0.6v0l0,0v0c0.2,0.7,0.1,1.5-0.3,2.4l0,0.1v0.1l0,0l0,0.1
	c-0.5,1-1.2,1.6-1.9,1.8l-0.2,0.1c-0.2,0.1-0.6,0-1-0.2c-0.4-0.3-0.7-0.5-0.7-0.8l0,0v0l-0.3-0.2l-0.2-0.2l-0.2-0.1l-0.1-0.1
	l-0.4-1.5L232.1,44.2z"/>
<path id="Layer1_10_MEMBER_132_1_STROKES" class="st8" d="M234.2,47.4c-0.3-0.3-0.5-0.7-0.4-1.3c0.1-0.6,0.3-1.2,0.6-1.9
	c0.4-0.6,0.8-1.1,1.3-1.4c0.5-0.3,1-0.4,1.4-0.3"/>
<path id="Layer1_10_MEMBER_133_1_STROKES" class="st8" d="M236,42.1c-0.8,0.2-1.5,0.7-2.1,1.8c-0.5,1-0.7,1.9-0.5,2.6"/>
<path id="Layer1_10_MEMBER_134_1_STROKES" class="st8" d="M236.6,45.4c-0.2,0.4-0.4,0.6-0.7,0.8c-0.3,0.2-0.5,0.2-0.7,0.1
	c-0.2-0.1-0.3-0.3-0.3-0.7c0-0.3,0.1-0.7,0.3-1.1c0.2-0.3,0.4-0.6,0.7-0.8c0.3-0.2,0.5-0.2,0.7-0.1c0.2,0.1,0.3,0.4,0.3,0.7
	C236.9,44.7,236.8,45,236.6,45.4z"/>
<path id="Layer1_10_MEMBER_135_1_STROKES" class="st8" d="M236,43.6c0.1,0.4,0,0.8-0.3,1.3c-0.3,0.5-0.6,0.8-1,0.9"/>
<path id="Layer1_10_MEMBER_136_1_STROKES" class="st8" d="M232.1,44.2l1.3,0.8"/>
<path id="Layer1_10_MEMBER_137_1_STROKES" class="st8" d="M233.4,42.1l1.3,0.7"/>
<path id="Layer1_10_MEMBER_138_1_STROKES" class="st9" d="M235.7,45l0.8,0.5"/>
<path id="Layer1_10_MEMBER_139_1_STROKES" class="st9" d="M236.8,45.6l0.2,0.1"/>
<path id="Layer1_10_MEMBER_140_1_STROKES" class="st9" d="M237.2,45.8l0.8,0.5"/>
<path id="Layer1_10_MEMBER_141_1_STROKES" class="st9" d="M240.2,47.6l1.1,0.6"/>
<path id="Layer1_10_MEMBER_142_1_STROKES" class="st9" d="M241.6,48.4l0.3,0.1"/>
<path id="Layer1_10_MEMBER_143_1_STROKES" class="st7" d="M242.2,48.7l1.1,0.6"/>
<path id="Layer1_10_MEMBER_144_1_STROKES" class="st6" d="M181.7,106.1V74.8"/>
<path id="Layer1_10_MEMBER_145_1_STROKES" class="st6" d="M186.5,108.9l59.4-34.3c1-0.7,1.9-1.6,2.6-2.9c0.7-1.2,1.1-2.4,1.2-3.6V62
	"/>
<path id="Layer1_10_MEMBER_146_1_STROKES" class="st6" d="M249.7,44.1v-8.5c-0.1-1.1-0.5-1.9-1.2-2.3c-0.7-0.4-1.6-0.4-2.6,0.1
	l-0.3,0.2l-60.4,34.8"/>
<path id="Layer1_10_MEMBER_147_1_STROKES" class="st6" d="M185.3,68.5c-1.1,0.7-2,1.6-2.7,2.7c-0.7,1.1-1,2.3-1,3.6"/>
<path id="Layer1_10_MEMBER_148_1_STROKES" class="st6" d="M181.7,106.1c0,0.9,0.3,1.7,0.9,2.3c0.7,0.6,1.4,0.9,2.3,0.9
	c0.6,0,1.1-0.1,1.6-0.4"/>
<path id="Layer1_10_MEMBER_149_1_STROKES" class="st6" d="M185.1,108.1l59.4-34.3c1-0.7,1.9-1.7,2.6-2.9c0.7-1.2,1.1-2.4,1.1-3.6
	l0-0.4v-5.7"/>
<path id="Layer1_10_MEMBER_150_1_STROKES" class="st6" d="M248.3,43.3v-8.1l0-0.4c-0.1-0.7-0.2-1.2-0.5-1.6"/>
<path id="Layer1_10_MEMBER_151_1_STROKES" class="st6" d="M185.1,108.1l-0.5,0.2l-0.5,0.2l-0.5,0.1l-1-0.1"/>
<path id="Layer1_10_MEMBER_152_1_STROKES" class="st6" d="M249.7,44.1l10.3-5.9"/>
<path id="Layer1_10_MEMBER_153_1_STROKES" class="st6" d="M262.9,39.7v12.3"/>
<path id="Layer1_10_MEMBER_154_1_STROKES" class="st6" d="M260.8,55.7L249.7,62"/>
<path id="Layer1_10_MEMBER_155_1_STROKES" class="st6" d="M262.9,39.7c0-0.5-0.2-0.9-0.5-1.3c-0.4-0.4-0.8-0.5-1.3-0.5
	c-0.3,0-0.6,0.1-0.9,0.3"/>
<path id="Layer1_10_MEMBER_156_1_STROKES" class="st6" d="M260.8,55.7c0.7-0.4,1.2-0.9,1.5-1.5c0.4-0.6,0.5-1.3,0.5-2.1"/>
<path id="Layer1_10_MEMBER_157_1_STROKES" class="st6" d="M257.2,42.7c0.2-0.4,0.3-0.8,0.3-1.1c0-0.3-0.1-0.6-0.3-0.7
	c-0.2-0.1-0.5-0.1-0.8,0.1c-0.3,0.2-0.6,0.5-0.8,0.8c-0.2,0.4-0.3,0.8-0.3,1.1s0.1,0.6,0.3,0.7c0.2,0.1,0.5,0.1,0.8-0.1
	C256.7,43.4,257,43.1,257.2,42.7z"/>
<path id="Layer1_10_MEMBER_158_1_STROKES" class="st6" d="M257.1,52.8c-0.2,0.4-0.5,0.7-0.8,0.9c-0.3,0.2-0.6,0.2-0.8,0
	c-0.2-0.1-0.3-0.3-0.3-0.7s0.1-0.7,0.3-1.1c0.2-0.4,0.5-0.6,0.8-0.8c0.3-0.2,0.6-0.2,0.8-0.1c0.2,0.1,0.3,0.4,0.3,0.7
	C257.4,52,257.3,52.4,257.1,52.8z"/>
<path id="Layer1_10_MEMBER_159_1_STROKES" class="st6" d="M249.7,62l-1.4-0.8"/>
<path id="Layer1_10_MEMBER_160_1_STROKES" class="st6" d="M249.7,44.1l-1.4-0.8"/>
<path id="Layer1_10_MEMBER_161_1_STROKES" class="st6" d="M261.4,38.9v12.4"/>
<path id="Layer1_10_MEMBER_162_1_STROKES" class="st6" d="M259.3,54.8l-11.1,6.4"/>
<path id="Layer1_10_MEMBER_163_1_STROKES" class="st6" d="M261.2,38l0.1,0.3l0.1,0.3v0.3"/>
<path id="Layer1_10_MEMBER_164_1_STROKES" class="st6" d="M259.3,54.8c1.4-0.8,2.1-2,2.1-3.6"/>
<path id="Layer1_10_MEMBER_165_1_STROKES" class="st6" d="M252,59.1V42.8"/>
<path id="Layer1_10_MEMBER_166_1_STROKES" class="st6" d="M250.2,60.1V43.8"/>
<path id="Layer1_10_MEMBER_167_1_STROKES" class="st7" d="M247.2,47.1l1,0.6"/>
<path id="Layer1_10_MEMBER_168_1_STROKES" class="st7" d="M248.4,47.8l0.3,0.2"/>
<path id="Layer1_10_MEMBER_169_1_STROKES" class="st7" d="M248.9,48.1l1,0.6"/>
<path id="Layer1_10_MEMBER_170_1_STROKES" class="st10" d="M230,57.6V46.9"/>
<path class="st4" d="M181.2,126.6v5.5l-20.3,11.7v14.1l3,1.8l17.3-10v2l3,1.7l10.5-18.5l-10.4-6.5h-0.1L181.2,126.6 M177.7,140.9
	l0.8-0.4l-1.6,8L176,149l-1.5-5.1l-1.5,6.7l-0.9,0.5l-1.7-6.1l0.9-0.5l1.4,5l1.4-6.5l0.9-0.5l1.5,4.9L177.7,140.9 M170.3,145.2v0.9
	l-3.5,2v2.1l3.1-1.7v0.9l-3.1,1.7v3.2l-0.9,0.5v-7.1L170.3,145.2 M179.3,147.1v-7.1l2.9-1.6c0.7-0.4,1.3-0.3,1.7,0.2
	c0.3,0.5,0.4,1.1,0.4,2l-0.2,1.6c-0.3,1.4-1,2.5-2.1,3.2l-0.3,0.3L179.3,147.1 M181.6,139.5l-1.5,0.9v5.4l2-1.1
	c0.9-0.7,1.3-1.6,1.4-2.6l0.1-1l-0.1-0.9c-0.2-0.9-0.6-1.1-1.4-0.8L181.6,139.5 M119.8,124.4l-0.1-5.5l-13.4,8.2l10.4,18.5l3.1-1.7
	v-1.9l28.9,16.8l3-1.7v-14.1L119.8,124.4 M132.4,139.3v0.9l-1.9-1.2v5.7l-0.8-0.4v-5.7l-2-1.1v-0.9L132.4,139.3 M136.9,142.5
	c0.2,0.4,0.3,0.8,0.3,1.1c0,0.4-0.1,0.7-0.3,0.9c-0.1,0.1-0.3,0.1-0.5,0.2c0.3,0.3,0.6,0.5,0.7,0.8c0.2,0.4,0.3,0.9,0.3,1.4
	c0,0.5-0.1,0.8-0.3,0.9c-0.3,0.3-0.9,0.3-1.7-0.2l-2.4-1.4v-6.6l2.5,1.4C136.2,141.4,136.6,141.9,136.9,142.5 M140.5,143.9
	c0.8,0.5,1.4,1.1,1.8,2c0.3,0.8,0.5,1.7,0.5,2.6c0,0.7-0.1,1.3-0.3,1.7c-0.4,0.8-1.1,0.9-2,0.3l-2.3-1.3v-6.6L140.5,143.9
	 M126.4,135.8l0.8,0.4v3.7c0,0.8-0.1,1.4-0.3,1.7c-0.3,0.6-1,0.7-2,0.1c-1-0.6-1.6-1.3-2-2.3c-0.2-0.5-0.3-1.2-0.3-2v-3.7l0.8,0.4
	v4.1c0,0.5,0.1,0.9,0.3,1.3c0.3,0.6,0.7,1.1,1.2,1.5c0.7,0.3,1.1,0.3,1.3-0.1c0.2-0.2,0.3-0.5,0.3-0.9V135.8 M117,136.1
	c-0.5-0.9-0.7-1.8-0.7-2.8c0-0.9,0.2-1.5,0.6-1.9c0.5-0.5,1.2-0.5,2.1,0c1,0.6,1.8,1.4,2.3,2.4c0.3,0.8,0.5,1.7,0.5,2.6
	c0,1-0.2,1.7-0.7,2c-0.5,0.5-1.2,0.4-2.1-0.1C118.2,137.8,117.5,137.1,117,136.1 M117.7,132.1c-0.4,0.2-0.6,0.8-0.6,1.7
	c0,0.7,0.2,1.5,0.5,2.1c0.3,0.7,0.8,1.3,1.5,1.6c0.7,0.4,1.2,0.4,1.5,0c0.3-0.3,0.5-0.9,0.5-1.6c0-0.8-0.2-1.5-0.5-2.2
	c-0.3-0.7-0.8-1.2-1.5-1.5C118.6,131.9,118.1,131.8,117.7,132.1 M140.3,144.6l-1.4-0.8v5l1.4,0.8c0.3,0.1,0.5,0.2,0.7,0.3
	c0.3,0.1,0.5,0,0.7-0.3c0.2-0.2,0.3-0.5,0.3-0.9c0-0.2,0-0.4,0-0.6c0-0.9-0.1-1.6-0.3-2.1C141.4,145.4,141,144.9,140.3,144.6
	 M135.2,143.6c0.3,0.2,0.6,0.3,0.8,0.3c0.3,0.1,0.4-0.1,0.4-0.5c0-0.5-0.1-0.9-0.4-1.3c-0.2-0.2-0.4-0.3-0.8-0.5l-1.4-0.8v2
	L135.2,143.6 M133.8,143.6v2.3l1.6,0.9c0.5,0.3,0.8,0.3,1,0.2c0.1-0.2,0.2-0.4,0.2-0.7c0-0.5-0.2-0.9-0.5-1.3
	c-0.2-0.2-0.4-0.4-0.8-0.6L133.8,143.6z"/>
<path id="Layer1_11_MEMBER_1_1_STROKES" class="st9" d="M38.5,56.8l0.1,0.2"/>
<path id="Layer1_11_MEMBER_2_1_STROKES" class="st9" d="M35.9,123.5l-2.2,0.8"/>
<path id="Layer1_11_MEMBER_3_1_STROKES" class="st9" d="M38.2,122.6l-2.4,0.9"/>
<path id="Layer1_11_MEMBER_4_1_STROKES" class="st9" d="M40.6,121.7l-2.4,0.9"/>
<path id="Layer1_11_MEMBER_5_1_STROKES" class="st9" d="M46.2,119.6l-5.6,2.1"/>
<path id="Layer1_11_MEMBER_6_1_STROKES" class="st9" d="M51.8,117.5l-5.6,2.1"/>
<path id="Layer1_11_MEMBER_7_1_STROKES" class="st9" d="M57.7,115.3l-5.9,2.2"/>
<path id="Layer1_11_MEMBER_8_1_STROKES" class="st9" d="M64.3,112.9l-6.6,2.5"/>
<path id="Layer1_11_MEMBER_9_1_STROKES" class="st9" d="M70.6,110.5l-6.3,2.4"/>
<path id="Layer1_11_MEMBER_10_1_STROKES" class="st9" d="M81.6,106.5l-5.6,2"/>
<path id="Layer1_11_MEMBER_11_1_STROKES" class="st9" d="M89.3,103.7l-7.7,2.8"/>
<path id="Layer1_11_MEMBER_12_1_STROKES" class="st9" d="M95.5,101.4l-6.2,2.2"/>
<path id="Layer1_11_MEMBER_13_1_STROKES" class="st9" d="M106.9,97.3l-5.7,2.1"/>
<path id="Layer1_11_MEMBER_14_1_STROKES" class="st9" d="M109,96.5l-2.1,0.7"/>
<path id="Layer1_11_MEMBER_15_1_STROKES" class="st9" d="M102.6,64.4L65.9,76.8c-10.7,3.6-19.6,6.7-26.8,9.5l-0.7,0.3"/>
<path id="Layer1_11_MEMBER_16_1_STROKES" class="st9" d="M18.6,92l0.1,0.1"/>
<path id="Layer1_11_MEMBER_17_1_STROKES" class="st9" d="M33,89.8l0.3-0.1"/>
<path id="Layer1_11_MEMBER_18_1_STROKES" class="st9" d="M32.4,124.6l-5.7-0.3"/>
<path id="Layer1_11_MEMBER_19_1_STROKES" class="st9" d="M74.6,97.4l5.9-2.1"/>
<path id="Layer1_11_MEMBER_20_1_STROKES" class="st9" d="M113.3,112.1l-3.3,0.5"/>
<path id="Layer1_11_MEMBER_21_1_STROKES" class="st9" d="M74.4,97.4l-0.1,0.2l0,0.7"/>
<path id="Layer1_11_MEMBER_22_1_STROKES" class="st9" d="M113.7,112.1l-0.3,0"/>
<path id="Layer1_11_MEMBER_23_1_STROKES" class="st9" d="M25.8,122.2l0.2-0.8l0.3-0.3l0.3-0.1"/>
<path id="Layer1_11_MEMBER_24_1_STROKES" class="st9" d="M26.9,120.9l-0.2,0"/>
<path id="Layer1_11_MEMBER_25_1_STROKES" class="st9" d="M26.3,124.2l0.3,0.1"/>
<path id="Layer1_11_MEMBER_26_1_STROKES" class="st9" d="M81,95.7l-4.5,1.6l-1,0.2H75l-0.3,0"/>
<path id="Layer1_11_MEMBER_27_1_STROKES" class="st9" d="M76.5,97.5l4.8-1.7"/>
<path id="Layer1_11_MEMBER_28_1_STROKES" class="st9" d="M74.8,97.7l0.3,0l0.4,0l1-0.2"/>
<path id="Layer1_11_MEMBER_29_1_STROKES" class="st9" d="M74.5,98.3l0-0.4l0-0.2"/>
<path id="Layer1_11_MEMBER_30_1_STROKES" class="st9" d="M37.7,144.5l-0.5,0.2l-0.2,0.1"/>
<path id="Layer1_11_MEMBER_31_1_STROKES" class="st9" d="M36.9,144.5l0.2,0l0.5-0.2"/>
<path id="Layer1_11_MEMBER_32_1_STROKES" class="st9" d="M38.6,144.4l0.2,0.3L39,145"/>
<path id="Layer1_11_MEMBER_33_1_STROKES" class="st9" d="M36.3,145.7l0-0.5l0.2-0.4l0.1-0.1"/>
<path id="Layer1_11_MEMBER_34_1_STROKES" class="st9" d="M38.8,144.9l-0.2-0.6"/>
<path id="Layer1_11_MEMBER_35_1_STROKES" class="st9" d="M32.9,124.3l0.2,0"/>
<path id="Layer1_11_MEMBER_36_1_STROKES" class="st9" d="M32.1,124.2l0.3,0.1h0.1l0.3,0"/>
<path id="Layer1_11_MEMBER_37_1_STROKES" class="st9" d="M33.1,124.2l0.4-0.1h0l0.1-0.3l0-0.4"/>
<path id="Layer1_11_MEMBER_38_1_STROKES" class="st9" d="M33.2,124.5l-0.3,0l-0.2,0.1h-0.3l-0.2,0"/>
<path id="Layer1_11_MEMBER_39_1_STROKES" class="st9" d="M33.9,124.1l-0.3,0.2l-0.4,0.1"/>
<path id="Layer1_11_MEMBER_40_1_STROKES" class="st9" d="M32.1,124.2l0.1,0.3"/>
<path id="Layer1_11_MEMBER_41_1_STROKES" class="st9" d="M31.7,122.5l-0.1-0.5l-0.3-0.5l-0.3-0.3l-0.3-0.1"/>
<path id="Layer1_11_MEMBER_42_1_STROKES" class="st9" d="M31.5,122.4l0.1,0.1"/>
<path id="Layer1_11_MEMBER_43_1_STROKES" class="st9" d="M30.4,121.2l0.4,0.1l0.4,0.3l0.2,0.4l0.1,0.3"/>
<path id="Layer1_11_MEMBER_44_1_STROKES" class="st9" d="M31.7,122.5v0.3"/>
<path id="Layer1_11_MEMBER_45_1_STROKES" class="st9" d="M30.4,121.1h0.2"/>
<path id="Layer1_11_MEMBER_46_1_STROKES" class="st9" d="M30.4,121.2l-3.7-0.2"/>
<path id="Layer1_11_MEMBER_47_1_STROKES" class="st9" d="M31.5,123.7l0-1.2"/>
<path id="Layer1_11_MEMBER_48_1_STROKES" class="st9" d="M31.7,122.5l0,0.3"/>
<path id="Layer1_11_MEMBER_49_1_STROKES" class="st9" d="M109.1,96.4l0-0.3"/>
<path id="Layer1_11_MEMBER_50_1_STROKES" class="st9" d="M21.9,62.2l0,5.1"/>
<path id="Layer1_11_MEMBER_51_1_STROKES" class="st9" d="M23.7,60.2L23,60.5L22.4,61L22,61.6l-0.1,0.6"/>
<path id="Layer1_11_MEMBER_52_1_STROKES" class="st9" d="M37,56.6l-13.4,3.6"/>
<path id="Layer1_11_MEMBER_53_1_STROKES" class="st9" d="M38.8,57.7l0-0.3L38.6,57l-0.1-0.1l-0.1-0.1L38,56.6l-0.4,0L37,56.6"/>
<path id="Layer1_11_MEMBER_54_1_STROKES" class="st9" d="M38.7,67.6l0.1-9.9"/>
<path id="Layer1_11_MEMBER_55_1_STROKES" class="st9" d="M21.9,67.3v0.9"/>
<path id="Layer1_11_MEMBER_56_1_STROKES" class="st9" d="M21.7,67.2l0-4.5c0-0.4,0-0.9,0.2-1.3c0.2-0.4,0.5-0.7,0.9-1l0.7-0.3
	l13.4-3.6l0.5,0l0.4,0l0.4,0.2"/>
<path id="Layer1_11_MEMBER_57_1_STROKES" class="st9" d="M21.7,68.1v-0.9"/>
<path id="Layer1_11_MEMBER_58_1_STROKES" class="st9" d="M109,95.7l-0.1-0.2l-0.4-0.3l-0.4-0.1l-0.5,0.1"/>
<path id="Layer1_11_MEMBER_59_1_STROKES" class="st9" d="M107.4,95l0.5-0.1l0.4,0.1"/>
<path id="Layer1_11_MEMBER_60_1_STROKES" class="st9" d="M109.1,95.9l-0.1-0.3"/>
<path id="Layer1_11_MEMBER_61_1_STROKES" class="st9" d="M107.4,95l-0.7,0.3"/>
<path id="Layer1_11_MEMBER_62_1_STROKES" class="st9" d="M33.8,122.3l1.9-0.7c27.4-10.3,51.1-19.1,71.1-26.3l0.8-0.3"/>
<path id="Layer1_11_MEMBER_63_1_STROKES" class="st9" d="M33.7,123.4l-0.2-0.9"/>
<path id="Layer1_11_MEMBER_64_1_STROKES" class="st9" d="M33.6,122.6l0.2,0.8"/>
<path id="Layer1_11_MEMBER_65_1_STROKES" class="st9" d="M33.7,122.5l0,0.2"/>
<path id="Layer1_11_MEMBER_66_1_STROKES" class="st9" d="M25.8,122.3l0,1.1"/>
<path id="Layer1_11_MEMBER_67_1_STROKES" class="st9" d="M40.7,146.1l4.8-2.1"/>
<path id="Layer1_11_MEMBER_68_1_STROKES" class="st9" d="M39,145l0.1,0.3"/>
<path id="Layer1_11_MEMBER_69_1_STROKES" class="st9" d="M38.9,145.3l-0.1-0.3"/>
<path id="Layer1_11_MEMBER_70_1_STROKES" class="st9" d="M35.9,149.3l0.3-0.2l0.3-0.4l0.1-0.5l0-0.6"/>
<path id="Layer1_11_MEMBER_71_1_STROKES" class="st9" d="M36.9,147.6l0,0.6l-0.1,0.5l-0.3,0.4l-0.3,0.1"/>
<path id="Layer1_11_MEMBER_72_1_STROKES" class="st9" d="M36.7,147.7l-0.3-1.9"/>
<path id="Layer1_11_MEMBER_73_1_STROKES" class="st9" d="M36.6,145.7l0.3,1.9"/>
<path id="Layer1_11_MEMBER_74_1_STROKES" class="st9" d="M36.2,149.2l-0.2,0.1l-3.5,0.7"/>
<path id="Layer1_11_MEMBER_75_1_STROKES" class="st9" d="M31,146.8l0.2,1.9"/>
<path id="Layer1_11_MEMBER_76_1_STROKES" class="st9" d="M32.5,150l-0.4,0l-0.4-0.2l-0.3-0.4l-0.1-0.5"/>
<path id="Layer1_11_MEMBER_77_1_STROKES" class="st9" d="M31.3,145.6l-0.1,0.1l0,0.1l-0.1,0.4l0,0.1v0.4"/>
<path id="Layer1_11_MEMBER_78_1_STROKES" class="st9" d="M36.8,147.1l2.6-1.1"/>
<path id="Layer1_11_MEMBER_79_1_STROKES" class="st9" d="M49.8,142.2l3.6-1.5c31.6-13.4,51.2-21.7,58.9-24.9l1.6-0.6"/>
<path id="Layer1_11_MEMBER_80_1_STROKES" class="st9" d="M114.6,113.3l0.1,0.5l-0.1,0.5l-0.3,0.4l-0.4,0.3"/>
<path id="Layer1_11_MEMBER_81_1_STROKES" class="st9" d="M114.5,113.1l-0.2-0.4l-0.2-0.3l-0.2-0.2"/>
<path id="Layer1_11_MEMBER_82_1_STROKES" class="st9" d="M45.5,144l4.2-1.8"/>
<path id="Layer1_11_MEMBER_83_1_STROKES" class="st9" d="M79.5,125l-9.6,4c-15.6,6.6-28.1,11.9-37.5,16.1l-1.1,0.4"/>
<path id="Layer1_11_MEMBER_84_1_STROKES" class="st9" d="M37,144.8l-0.3,0.1"/>
<path id="Layer1_11_MEMBER_85_1_STROKES" class="st9" d="M38.8,144.9l-0.1-0.2l-0.3-0.3h-0.1l-0.4,0"/>
<path id="Layer1_11_MEMBER_86_1_STROKES" class="st9" d="M36.7,144.6l0.2-0.1"/>
<path id="Layer1_11_MEMBER_87_1_STROKES" class="st9" d="M37.7,144.2l0.4-0.1l0.5,0.2"/>
<path id="Layer1_11_MEMBER_88_1_STROKES" class="st9" d="M36.8,145l-0.1,0.3l0,0.4"/>
<path id="Layer1_11_MEMBER_89_1_STROKES" class="st9" d="M37.2,147.3l1.5,6.4"/>
<path id="Layer1_11_MEMBER_90_1_STROKES" class="st9" d="M23.4,156.9l-2.5-13.1"/>
<path id="Layer1_11_MEMBER_91_1_STROKES" class="st9" d="M23.4,156.9l0.5,2.2"/>
<path id="Layer1_11_MEMBER_92_1_STROKES" class="st9" d="M35.3,86.6l-0.6,4.7v0.1l-0.3,3.4"/>
<path id="Layer1_11_MEMBER_93_1_STROKES" class="st9" d="M38.7,69.9l-2.4,10.8"/>
<path id="Layer1_11_MEMBER_94_1_STROKES" class="st9" d="M34.3,94.7l-0.4,6c-0.3,4.7-0.3,10-0.1,15.8l0.1,1.3"/>
<path id="Layer1_11_MEMBER_95_1_STROKES" class="st9" d="M34.2,124.1l0.2,2.8c0.5,5,1.1,9.9,1.9,14.5l0.3,1.5"/>
<path id="Layer1_11_MEMBER_96_1_STROKES" class="st9" d="M38.7,67.6l0,2.4"/>
<path id="Layer1_11_MEMBER_97_1_STROKES" class="st9" d="M22,76.7l-0.1-8.5"/>
<path id="Layer1_11_MEMBER_98_1_STROKES" class="st9" d="M20.8,83l1.2-6.3"/>
<path id="Layer1_11_MEMBER_99_1_STROKES" class="st9" d="M18,86.6l0.8-0.5l0.7-0.6l0.6-0.7l0.3-0.6l0.3-1.1"/>
<path id="Layer1_11_MEMBER_100_1_STROKES" class="st9" d="M17.8,86.7l0.2-0.1"/>
<path id="Layer1_11_MEMBER_101_1_STROKES" class="st9" d="M17,88.1v-0.4l0.1-0.4l0.3-0.4l0.3-0.2"/>
<path id="Layer1_11_MEMBER_102_1_STROKES" class="st9" d="M17.9,91.5L17,88.1"/>
<path id="Layer1_11_MEMBER_103_1_STROKES" class="st9" d="M18.1,91.7l-0.2-0.3"/>
<path id="Layer1_11_MEMBER_104_1_STROKES" class="st9" d="M19.2,93.9v-0.6l0,0l-0.1-0.6l-0.3-0.5l-0.5-0.4"/>
<path id="Layer1_11_MEMBER_105_1_STROKES" class="st9" d="M18.6,102.4l0.7-8.5"/>
<path id="Layer1_11_MEMBER_106_1_STROKES" class="st9" d="M15.9,106.4l0.9-0.5c0.8-0.8,1.4-1.6,1.6-2.5l0.2-1"/>
<path id="Layer1_11_MEMBER_107_1_STROKES" class="st9" d="M15.5,106.6l0.4-0.3"/>
<path id="Layer1_11_MEMBER_108_1_STROKES" class="st9" d="M14.6,108.7l-0.1-0.6l0.2-0.6L15,107l0.5-0.4"/>
<path id="Layer1_11_MEMBER_109_1_STROKES" class="st9" d="M15.4,111.5l-0.9-2.8"/>
<path id="Layer1_11_MEMBER_110_1_STROKES" class="st9" d="M16,112.1l-0.2-0.1l-0.2-0.2l-0.1-0.3"/>
<path id="Layer1_11_MEMBER_111_1_STROKES" class="st9" d="M18.3,115.5l-0.1-0.9c-0.2-1.1-0.7-1.8-1.6-2.3l-0.6-0.2"/>
<path id="Layer1_11_MEMBER_112_1_STROKES" class="st9" d="M18.8,126.4l-0.5-10.9"/>
<path id="Layer1_11_MEMBER_113_1_STROKES" class="st9" d="M19.3,132.1l-0.5-5.7"/>
<path id="Layer1_11_MEMBER_114_1_STROKES" class="st9" d="M17.4,136.3l1-0.9l0.4-0.6l0.4-0.9l0.2-0.9l0-0.9"/>
<path id="Layer1_11_MEMBER_115_1_STROKES" class="st9" d="M16.7,138.5l-0.1-0.6l0.1-0.5v0l0.1-0.4l0.3-0.4l0.3-0.3"/>
<path id="Layer1_11_MEMBER_116_1_STROKES" class="st9" d="M17.2,139.7l-0.5-1.3"/>
<path id="Layer1_11_MEMBER_117_1_STROKES" class="st9" d="M18.2,140.6l-0.6-0.3l-0.4-0.5"/>
<path id="Layer1_11_MEMBER_118_1_STROKES" class="st9" d="M20.9,143.8l-0.1-0.6c-0.4-1.2-1.1-2-1.9-2.4l-0.6-0.2"/>
<path id="Layer1_11_MEMBER_119_1_STROKES" class="st9" d="M23.3,157l-2.5-13.1"/>
<path id="Layer1_11_MEMBER_120_1_STROKES" class="st9" d="M23.8,159.2l-0.5-2.2"/>
<path id="Layer1_11_MEMBER_121_1_STROKES" class="st9" d="M21.9,76.6l-0.1-8.5"/>
<path id="Layer1_11_MEMBER_122_1_STROKES" class="st9" d="M20.7,82.9l1.2-6.3"/>
<path id="Layer1_11_MEMBER_123_1_STROKES" class="st9" d="M17.9,86.5l0.8-0.4l0.7-0.6l0.6-0.8l0.4-0.9l0.3-0.9"/>
<path id="Layer1_11_MEMBER_124_1_STROKES" class="st9" d="M17.6,86.6l0.2-0.1"/>
<path id="Layer1_11_MEMBER_125_1_STROKES" class="st9" d="M16.9,88l0-0.4l0.1-0.4l0.3-0.3l0.3-0.3"/>
<path id="Layer1_11_MEMBER_126_1_STROKES" class="st9" d="M17.8,91.4l-0.7-2.7"/>
<path id="Layer1_11_MEMBER_127_1_STROKES" class="st9" d="M18,91.6l-0.2-0.3"/>
<path id="Layer1_11_MEMBER_128_1_STROKES" class="st9" d="M19.1,93.8v-0.7l-0.1-0.5"/>
<path id="Layer1_11_MEMBER_129_1_STROKES" class="st9" d="M18.9,92.6L18.6,92"/>
<path id="Layer1_11_MEMBER_130_1_STROKES" class="st9" d="M18.4,102.3l0.7-8.5"/>
<path id="Layer1_11_MEMBER_131_1_STROKES" class="st9" d="M15.8,106.3l0.8-0.5c0.8-0.8,1.4-1.6,1.6-2.5l0.1-1"/>
<path id="Layer1_11_MEMBER_132_1_STROKES" class="st9" d="M15.4,106.5l0.4-0.2"/>
<path id="Layer1_11_MEMBER_133_1_STROKES" class="st9" d="M14.4,108.7l-0.1-0.6l0.2-0.6l0.3-0.6l0.5-0.4"/>
<path id="Layer1_11_MEMBER_134_1_STROKES" class="st9" d="M15.3,111.4l-0.9-2.8"/>
<path id="Layer1_11_MEMBER_135_1_STROKES" class="st9" d="M15.6,111.9l-0.2-0.2l-0.1-0.3"/>
<path id="Layer1_11_MEMBER_136_1_STROKES" class="st9" d="M18.2,115.4l-0.1-0.8l-0.2-0.8l-0.4-0.6"/>
<path id="Layer1_11_MEMBER_137_1_STROKES" class="st9" d="M17.4,113.1l-0.4-0.4"/>
<path id="Layer1_11_MEMBER_138_1_STROKES" class="st9" d="M18.7,126.4l-0.5-11"/>
<path id="Layer1_11_MEMBER_139_1_STROKES" class="st9" d="M19.2,132.1l-0.5-5.7"/>
<path id="Layer1_11_MEMBER_140_1_STROKES" class="st9" d="M18.2,135.4l0.4-0.6L19,134l0.2-0.9v-0.9"/>
<path id="Layer1_11_MEMBER_141_1_STROKES" class="st9" d="M16.6,138.4l-0.1-0.5l0-0.6l0,0l0.1-0.4l0.2-0.4"/>
<path id="Layer1_11_MEMBER_142_1_STROKES" class="st9" d="M17.1,139.7l-0.5-1.2"/>
<path id="Layer1_11_MEMBER_143_1_STROKES" class="st9" d="M18,140.6l-0.6-0.3"/>
<path id="Layer1_11_MEMBER_144_1_STROKES" class="st9" d="M20.8,143.8l-0.1-0.6l-0.3-0.6"/>
<path id="Layer1_11_MEMBER_145_1_STROKES" class="st9" d="M103.1,66.6L68.6,78c-13.5,4.6-22.6,7.8-27.6,9.5l-1.7,0.6"/>
<path id="Layer1_11_MEMBER_146_1_STROKES" class="st9" d="M29.8,84.3L30,84"/>
<path id="Layer1_11_MEMBER_147_1_STROKES" class="st9" d="M38,87l0,0.2"/>
<path id="Layer1_11_MEMBER_148_1_STROKES" class="st9" d="M37.9,87.2l0-0.3"/>
<path id="Layer1_11_MEMBER_149_1_STROKES" class="st9" d="M39.4,88.1l-0.4,0.1L38.5,88l-0.3-0.3L38,87.2"/>
<path id="Layer1_11_MEMBER_150_1_STROKES" class="st9" d="M37.9,87.2l0.1,0.4l0.3,0.3"/>
<path id="Layer1_11_MEMBER_151_1_STROKES" class="st9" d="M38,87l-0.1-0.4l-0.4-0.7l-0.2-0.2l0.1,0.1l0,0"/>
<path id="Layer1_11_MEMBER_152_1_STROKES" class="st9" d="M37.9,86.9l-0.1-0.3l-0.3-0.5"/>
<path id="Layer1_11_MEMBER_153_1_STROKES" class="st9" d="M30.2,89l2.4,0.8"/>
<path id="Layer1_11_MEMBER_154_1_STROKES" class="st9" d="M29.6,85.2l-0.2,2.1"/>
<path id="Layer1_11_MEMBER_155_1_STROKES" class="st9" d="M30.2,89l-0.4-0.2l-0.3-0.4l-0.2-0.5v-0.6"/>
<path id="Layer1_11_MEMBER_156_1_STROKES" class="st9" d="M33.8,88.7l0.3-2.1"/>
<path id="Layer1_11_MEMBER_157_1_STROKES" class="st9" d="M34.4,86.6l-0.3,2"/>
<path id="Layer1_11_MEMBER_158_1_STROKES" class="st9" d="M33.8,88.7l-0.1,0.5l-0.3,0.3L33,89.8h-0.4"/>
<path id="Layer1_11_MEMBER_159_1_STROKES" class="st9" d="M33.3,89.6l0.4-0.2l0.3-0.4l0.1-0.5"/>
<path id="Layer1_11_MEMBER_160_1_STROKES" class="st9" d="M30.2,84.1l-0.5,0.6"/>
<path id="Layer1_11_MEMBER_161_1_STROKES" class="st9" d="M29.7,84.7l-0.1,0.4"/>
<path id="Layer1_11_MEMBER_162_1_STROKES" class="st9" d="M30,84.3l0-0.4"/>
<path id="Layer1_11_MEMBER_163_1_STROKES" class="st9" d="M35.1,85.8l-0.3,0.2l-0.2,0.3l-0.1,0.3"/>
<path id="Layer1_11_MEMBER_164_1_STROKES" class="st9" d="M34.1,86.6l0.2-0.4l0.3-0.4l0.4-0.2"/>
<path id="Layer1_11_MEMBER_165_1_STROKES" class="st9" d="M37.4,85.9l-0.3-0.2l-0.5-0.1l-1.3,0.1"/>
<path id="Layer1_11_MEMBER_166_1_STROKES" class="st9" d="M35.2,85.6l0.6-0.1l0.7,0l0.5,0.1l0.3,0.2"/>
<path id="Layer1_11_MEMBER_167_1_STROKES" class="st9" d="M32.2,124.6l-0.2-0.1l-0.3-0.3l-0.1-0.4"/>
<path id="Layer1_11_MEMBER_168_1_STROKES" class="st9" d="M31.7,122.8l0,0.8l0.1,0.3l0.2,0.3"/>
<path id="Layer1_11_MEMBER_169_1_STROKES" class="st9" d="M33.8,123.5l0.1,0.4l0,0.2"/>
<path id="Layer1_11_MEMBER_170_1_STROKES" class="st9" d="M25.9,123.4l0.1,0.5l0.3,0.3"/>
<path id="Layer1_11_MEMBER_171_1_STROKES" class="st9" d="M105.1,95.9l-1.4-0.1"/>
<path id="Layer1_11_MEMBER_172_1_STROKES" class="st9" d="M102.6,94.9l-0.1-0.5"/>
<path id="Layer1_11_MEMBER_173_1_STROKES" class="st9" d="M102.7,95.4l-0.1-0.4"/>
<path id="Layer1_11_MEMBER_174_1_STROKES" class="st9" d="M102.8,95.6l-0.1-0.2"/>
<path id="Layer1_11_MEMBER_175_1_STROKES" class="st9" d="M103.7,95.8l-0.7-0.1"/>
<path id="Layer1_11_MEMBER_176_1_STROKES" class="st9" d="M28.6,120.4l0.2-0.1"/>
<path id="Layer1_11_MEMBER_177_1_STROKES" class="st9" d="M72.4,103.3l0.9-0.6c0.5-0.5,0.9-1.1,1.1-1.9c0.2-0.7,0.2-1.4,0.1-2.2
	l-0.1-0.4"/>
<path id="Layer1_11_MEMBER_178_1_STROKES" class="st9" d="M102.4,94.3l-0.4-0.3l-0.3-0.1l-0.3,0l-2.5,0.7l-0.3,0.1h-0.1l-0.3,0.1
	h-0.1l-0.1,0h0l-0.2,0l-0.1,0.1L97.3,95l-4.8,1.5h-0.2l-1-0.1l-0.9-0.5L90,95.5l-0.2-0.3"/>
<path id="Layer1_11_MEMBER_179_1_STROKES" class="st9" d="M74.5,98.3l0.1,0.4l0.1,1l-0.1,1.1l-0.4,1l-0.7,0.9l-0.7,0.6l-0.1,0.1
	l-12.8,4.5l-0.2,0l-0.1,0l-0.1,0H59l-0.7,0.3l-0.1,0l-16,6.1c-3.7,1.4-6.4,2.6-8.2,3.3H34l-0.1,0.1l-0.1,0.1l-0.1,0.1l-0.2,0.1
	l-0.4,0.2v0l-3.9,1.8l-0.1,0.1H29l-0.1,0.1l-1.2,0.6"/>
<path id="Layer1_11_MEMBER_180_1_STROKES" class="st9" d="M39.1,145.3l0.3,0.4l0.4,0.3l0.5,0.1l0.5-0.1"/>
<path id="Layer1_11_MEMBER_181_1_STROKES" class="st9" d="M40.1,146.2l-0.4-0.1l-0.4-0.3l-0.3-0.4"/>
<path id="Layer1_11_MEMBER_182_1_STROKES" class="st11" d="M184.2,128v5.5L164,145.2v14.1"/>
<path id="Layer1_11_MEMBER_183_1_STROKES" class="st11" d="M194.7,134.5l-10.4-6.5"/>
<path id="Layer1_11_MEMBER_184_1_STROKES" class="st11" d="M184.2,153v-5.5L164,159.3"/>
<path id="Layer1_11_MEMBER_185_1_STROKES" class="st11" d="M194.7,134.5L184.3,153"/>
<path id="Layer1_11_MEMBER_186_1_STROKES" class="st11" d="M184.2,133.5l-3-1.7"/>
<path id="Layer1_11_MEMBER_187_1_STROKES" class="st11" d="M164,145.2l-3.1-1.7"/>
<path id="Layer1_11_MEMBER_188_1_STROKES" class="st11" d="M164,159.3l-3.1-1.8"/>
<path id="Layer1_11_MEMBER_189_1_STROKES" class="st11" d="M184.2,153l-3-1.7"/>
<path id="Layer1_11_MEMBER_190_1_STROKES" class="st11" d="M184.3,128l-3.1-1.7v5.5l-20.3,11.7v14.1"/>
<path id="Layer1_11_MEMBER_191_1_STROKES" class="st11" d="M181.2,151.3V150"/>
<path id="Layer1_11_MEMBER_192_1_STROKES" class="st8" d="M85.3,81l-0.5-0.1C82.3,80.4,80,82,78,85.6c-2,3.6-2.1,6.3-0.2,8l0.5,0.3"
	/>
<path id="Layer1_11_MEMBER_193_1_STROKES" class="st8" d="M89.4,83.4L85.3,81"/>
<path id="Layer1_11_MEMBER_194_1_STROKES" class="st8" d="M82.5,96.2l-4.4-2.5"/>
<path id="Layer1_11_MEMBER_195_1_STROKES" class="st8" d="M83.9,92.2c0.7,1,1.7,0.9,2.9-0.3c1.2-1.2,1.7-2.4,1.5-3.6l0-0.3l-0.1-0.3
	l-0.1-0.3l-0.1-0.2c-0.8-0.8-1.8-0.5-3,0.8c-1.1,1.3-1.5,2.5-1.2,3.6l0,0.3L83.9,92.2z"/>
<path id="Layer1_11_MEMBER_196_1_STROKES" class="st9" d="M89.1,93.1L89.1,93.1L89.1,93.1"/>
<path id="Layer1_11_MEMBER_197_1_STROKES" class="st9" d="M89.2,92.9v-0.3"/>
<path id="Layer1_11_MEMBER_198_1_STROKES" class="st9" d="M89.8,95.2l-0.8-2"/>
<path id="Layer1_11_MEMBER_199_1_STROKES" class="st8" d="M73.7,89.2l-0.1,0.6c-0.5,2.5-0.3,4.6,0.4,6.1l0.3,0.6"/>
<path id="Layer1_11_MEMBER_200_1_STROKES" class="st8" d="M90.6,78.7l0.4-0.2"/>
<path id="Layer1_11_MEMBER_201_1_STROKES" class="st8" d="M93,79.5v3.9"/>
<path id="Layer1_11_MEMBER_202_1_STROKES" class="st8" d="M91.1,78.4c0.5-0.2,1-0.2,1.3,0c0.3,0.2,0.5,0.7,0.5,1.3"/>
<path id="Layer1_11_MEMBER_203_1_STROKES" class="st8" d="M93,83.3c0,0.6-0.2,1.1-0.5,1.7c-0.3,0.5-0.7,1-1.2,1.3"/>
<path id="Layer1_11_MEMBER_204_1_STROKES" class="st8" d="M90.6,78.7c-0.4,0.1-0.8,0.1-1-0.1c-0.2-0.2-0.2-0.6-0.1-1"/>
<path id="Layer1_11_MEMBER_205_1_STROKES" class="st8" d="M74.4,85.5l0.4-3.7l14.8-4.9"/>
<path id="Layer1_11_MEMBER_206_1_STROKES" class="st8" d="M89.5,77.8l0.1-0.9"/>
<path id="Layer1_11_MEMBER_207_1_STROKES" class="st8" d="M66.4,124.7c0.2,1,0.6,1.9,1.3,2.5c0.7,0.6,1.6,0.8,2.7,0.7"/>
<path id="Layer1_11_MEMBER_208_1_STROKES" class="st8" d="M66.5,125.3L65,114.9l0-0.1c-0.1-0.3-0.1-0.8-0.1-1.5"/>
<path id="Layer1_11_MEMBER_209_1_STROKES" class="st8" d="M70.5,127.9l7.1-3"/>
<path id="Layer1_11_MEMBER_210_1_STROKES" class="st8" d="M74.5,96.6L74.5,96.6L74.5,96.6L74.5,96.6l0.1,0.1l0,0v0.1l0,0V97h0v0.1
	l-0.1,0.2"/>
<path id="Layer1_11_MEMBER_211_1_STROKES" class="st8" d="M73.1,88.8L73,89.4c-0.5,2.4-0.3,4.5,0.4,6.1l0.3,0.6"/>
<path id="Layer1_11_MEMBER_212_1_STROKES" class="st8" d="M73.8,85.1l0.4-3.7"/>
<path id="Layer1_11_MEMBER_213_1_STROKES" class="st8" d="M74.2,81.4l14.8-4.9"/>
<path id="Layer1_11_MEMBER_214_1_STROKES" class="st8" d="M73.9,96.4v0.3"/>
<path id="Layer1_11_MEMBER_215_1_STROKES" class="st8" d="M65.6,124.8c0.2,1,0.6,1.9,1.3,2.5c0.7,0.6,1.6,0.8,2.7,0.7"/>
<path id="Layer1_11_MEMBER_216_1_STROKES" class="st8" d="M65.7,125.4L64.1,115l0-0.1c-0.1-0.4-0.2-0.9-0.1-1.5"/>
<path id="Layer1_11_MEMBER_217_1_STROKES" class="st11" d="M116.7,120.4v5.5l32,18.6v7"/>
<path id="Layer1_11_MEMBER_218_1_STROKES" class="st11" d="M106.3,126.8l10.4-6.5"/>
<path id="Layer1_11_MEMBER_219_1_STROKES" class="st11" d="M116.7,145.4v-5.5l32,18.6v-7"/>
<path id="Layer1_11_MEMBER_220_1_STROKES" class="st11" d="M106.3,126.8l10.4,18.5"/>
<path id="Layer1_11_MEMBER_221_1_STROKES" class="st11" d="M116.7,125.9l3.1-1.8"/>
<path id="Layer1_11_MEMBER_222_1_STROKES" class="st11" d="M148.7,144.5l3-1.7"/>
<path id="Layer1_11_MEMBER_223_1_STROKES" class="st11" d="M148.7,158.5l3-1.7"/>
<path id="Layer1_11_MEMBER_224_1_STROKES" class="st11" d="M116.7,145.4l3.1-1.8"/>
<path id="Layer1_11_MEMBER_225_1_STROKES" class="st11" d="M116.7,120.3l3-1.7l0.1,5.5l32,18.7v14.1"/>
<path id="Layer1_11_MEMBER_226_1_STROKES" class="st11" d="M119.8,143.6v-1.2"/>
<path id="Layer1_11_MEMBER_227_1_STROKES" class="st11" d="M119.8,124.1l32,18.7"/>
<path id="Layer1_11_MEMBER_228_1_STROKES" class="st8" d="M74.4,85.3l0,0.3c-0.1,0.7-0.3,1.9-0.7,3.6"/>
<path id="Layer1_11_MEMBER_229_1_STROKES" class="st8" d="M73.8,85c-0.1,0.9-0.3,2.1-0.7,3.7"/>
<path class="st5" d="M90,83.7l-1.3-0.6l-0.1,0.2l-1.1,0.2l-1,0.4c-1.9,0.9-3.5,2.9-4.8,5.7l-0.5,2.8l0,1.3l0.3,1l0.7,1l0.7,0.5
	l1,0.1l2-0.6l2-1.5l1.6-2.1l1.1-2.2l0.6-2.6l-0.3-2L90,83.7 M84.2,92.7l-0.5-0.9l-0.1-0.8l0.3-1.4l0.6-1.2l0.8-0.8l0.8-0.6l1.1-0.2
	l0.7-2l-0.7,2.1l0.7,0.4l0.2,1.1l-0.1,1l-0.5,1.4l-1,1.1l-0.8,0.6l-1,0.3L84.2,92.7z"/>
<path id="Layer1_11_MEMBER_230_1_STROKES" class="st12" d="M90,83.7l0.9,1.7l0.3,2L90.6,90l-1.1,2.2l-1.6,2.1l-2,1.5l-2,0.6l-1-0.1
	l-0.7-0.5l-0.7-1l-0.3-1l0-1.3l0.5-2.8c1.3-2.9,2.9-4.8,4.8-5.7l1-0.4l1.1-0.2l0.1-0.2L90,83.7z M84.2,92.7l0.6,0.1l1-0.3l0.8-0.6
	l1-1.1l0.5-1.4l0.1-1L88,87.3l-0.7-0.4l0.7-2.1l-0.7,2L86.2,87l-0.8,0.6l-0.8,0.8L84,89.6l-0.3,1.4l0.1,0.8L84.2,92.7z"/>
<path class="st5" d="M88.6,82.9l-3.9-2.2l-2,0.3L81,81.8l-1.4,1.5l-1.4,1.9l-0.9,2l-0.5,2.1l0,2l0.8,2l3.7,2.2l-0.4-1
	c-0.6-2.3-0.1-4.7,1.4-7.3c1.6-2.6,3.5-4.1,5.7-4.3L88.6,82.9z"/>
<path id="Layer1_11_MEMBER_231_1_STROKES" class="st13" d="M88.6,82.9l-0.7,0.1c-2.2,0.3-4.1,1.7-5.7,4.3c-1.5,2.6-2,5-1.4,7.3
	l0.4,1l-3.7-2.2l-0.8-2l0-2l0.5-2.1l0.9-2l1.4-1.9l1.4-1.5l1.8-0.9l2-0.3L88.6,82.9z"/>
<path class="st4" d="M81.8,111.3l-0.3,1.6l1.2,8.5l0.5,1.6l0.7,0.7l0.7,0.3l1.2,0.2l0.9-0.3l18.1-7.9l1-1l0.7-0.9l0.3-1.1l0.1-1.2
	l-1-7.9l-0.4-0.9l-0.7-0.6l-0.8-0.3h-0.8l-0.6,0.1l-16.6,6.1v-0.1l-2.8,1.3l-0.8,0.7L81.8,111.3 M86,113.4l0.8-0.6l15-5.5l0.9-0.1
	l0.9,0.2l0.9,0.6l0.3,1l0.1,1.1l-0.2,0.8l-0.4,0.9l-0.9,0.9l-0.8,0.4l-15,5.5l-1.3,0.2l-0.8-0.5l-0.7-0.8l-0.2-1.1l0.1-1.2l0.5-1
	L86,113.4z"/>
<path id="Layer1_11_MEMBER_232_1_STROKES" class="st9" d="M86.7,112.8l15-5.5l0.9-0.1l0.9,0.2l0.9,0.6l0.3,1l0.1,1.1l-0.2,0.8
	l-0.4,0.9l-0.9,0.9l-0.8,0.4l-15,5.5l-1.3,0.2l-0.8-0.5l-0.7-0.8l-0.2-1.1l0.1-1.2l0.5-1l0.6-0.7L86.7,112.8z M81.4,112.9l1.2,8.5
	l0.5,1.6l0.7,0.7l0.7,0.3l1.2,0.2l0.9-0.3l18.1-7.9l1-1l0.7-0.9l0.3-1.1l0.1-1.2l-1-7.9l-0.4-0.9l-0.7-0.6l-0.8-0.3h-0.8l-0.6,0.1
	l-16.6,6.1l0-0.1l-2.8,1.3l-0.8,0.7l-0.6,0.9L81.4,112.9z"/>
<path class="st4" d="M70.1,110.9l-0.3,0.4l-0.4,1.2l1.4,9.9l0.5,1.3l0.8,0.7l1.2,0.3l11-0.2l-1.2-0.7l-0.6-0.7l-0.3-0.8l-1.3-9v-1.4
	L70,112.1l0.2-0.7l10.8-0.2l0.3-1l-10.2,0.3l10.6-0.9l0.5-0.3l0.7-0.5l1.8-0.8l16.9-6l-5.7-0.6L70.1,110.9z"/>
<path id="Layer1_11_MEMBER_233_1_STROKES" class="st9" d="M70.1,110.9l25.9-9.4l5.7,0.6l-16.9,6l-1.8,0.8l-0.7,0.5l-0.5,0.3
	l-10.6,0.9l10.2-0.3l-0.3,1l-10.8,0.2l-0.2,0.7l10.9-0.3v1.4l1.3,9l0.3,0.8l0.6,0.7l1.2,0.7l-11,0.2l-1.2-0.3l-0.8-0.7l-0.5-1.3
	l-1.4-9.9l0.4-1.2L70.1,110.9z"/>
<path id="Layer1_11_MEMBER_234_1_STROKES" class="st9" d="M35.5,145.1l-0.2,0.1l-3.5,0.7"/>
<path id="Layer1_11_MEMBER_235_1_STROKES" class="st9" d="M23.7,159.3l0.6-0.1c0.6-0.1,1.2-0.4,1.6-0.9c0.2-0.2,0.6-0.6,1-1
	c0.8-0.8,2.5-0.9,4.9-0.3l0.9,0l0.8-0.3c1.3-0.5,2.3-1.3,2.8-2.3c0.3-0.6,0.9-0.8,1.8-0.6l0.3,0.1"/>
<path id="Layer1_11_MEMBER_236_1_STROKES" class="st9" d="M96.5,61.1l-38.8,13c-12.2,4.1-21.2,7.3-26.9,9.6l-0.7,0.2"/>
<path id="Layer1_11_MEMBER_237_1_STROKES" class="st9" d="M31,84.9l2.4,0.8"/>
<path id="Layer1_11_MEMBER_238_1_STROKES" class="st9" d="M96.5,61.6l0.1,0.1l0.3,0.1l1.3,0.4l1,0.4l1.7,1l1.6,0.4l0.4,0.1h0.1
	l0.1,0l0,0v0h0v0c-0.2,0.4-0.4,1.2-0.4,2.3"/>
</svg>
