<?xml version="1.0" encoding="utf-8"?>
<!-- Generator: Adobe Illustrator 24.2.3, SVG Export Plug-In . SVG Version: 6.00 Build 0)  -->
<svg version="1.1" id="Ebene_1" xmlns="http://www.w3.org/2000/svg" xmlns:xlink="http://www.w3.org/1999/xlink" x="0px" y="0px"
	 viewBox="0 0 349.1 166" style="enable-background:new 0 0 349.1 166;" xml:space="preserve">
<style type="text/css">
	.st0{fill:none;stroke:#000000;stroke-width:0.54;stroke-miterlimit:5;}
	.st1{fill:none;stroke:#000000;stroke-width:0.27;stroke-miterlimit:5;}
	.st2{fill-rule:evenodd;clip-rule:evenodd;fill:#0099FF;}
</style>
<path class="st0" d="M248,137.4l-0.1-0.9l-2.3,1.2 M245.4,134.9l-0.8,0.5l-0.1,3.2l-2.6,1.9l0.1,0.9 M244.5,140l0.3,2.5l0.8-0.5
	 M241.6,142.6l-1.5-3.2 M246.2,133.7l-3.5,0.6 M240.2,139.9l-19.6-10.2 M243.2,134.2l-19.6-10.2 M229.2,127L229.2,127
	c-0.9-0.5-2.3,0.4-3.1,2c-0.8,1.6-0.7,3.2,0.2,3.7 M226.4,125.6c-0.9-0.5-2.3,0.4-3.1,2c-0.8,1.6-0.7,3.2,0.2,3.7 M223.6,124.1
	c-0.9-0.5-2.3,0.4-3.1,2c-0.8,1.6-0.7,3.2,0.2,3.7 M247.8,140.2c1.4-2.7,1.3-5.5-0.3-6.3c-1.5-0.8-3.9,0.7-5.3,3.4
	c-1.4,2.7-1.3,5.5,0.3,6.3C244,144.4,246.4,142.9,247.8,140.2z M242.7,134.3c-0.8,0.1-1.7,1-2.3,2.1c-0.6,1.1-0.7,2.4-0.4,3.1"/>
<path class="st1" d="M178.4,44.2l0.2-0.6l0.1-0.6l0.1-0.6l0.1-0.6v-0.6l-0.1-0.7l-0.1-0.6l-0.2-0.6l-0.2-0.6l-0.3-0.6l-0.4-0.5
	l-0.5-0.4l-0.5-0.3l-0.6-0.2l-0.6-0.1l-0.6,0 M166.3,68.3l0.5-0.1l0.3-0.1l0.5-0.1l0.3-0.1l0.4-0.2l0.3-0.1l0.5-0.3l0.2-0.2l0.6-0.5
	l0.6-0.5l0.6-0.6l0.6-0.6l0.5-0.6l0.5-0.7l0.5-0.7l0.4-0.7l0.4-0.7l0.3-0.7l0.3-0.7l0.2-0.8 M128.8,65.4l-0.1,0.6l-0.1,0.6l-0.1,0.6
	l-0.1,0.6v0.6l0.1,0.7l0.1,0.6l0.2,0.6L129,71l0.3,0.6l0.4,0.5l0.5,0.4l0.5,0.3l0.6,0.2l0.6,0.1l0.6,0 M141,41.4l-0.5,0.1l-0.3,0.1
	l-0.5,0.2l-0.3,0.1L139,42l-0.3,0.2l-0.4,0.3l-0.2,0.2l-0.6,0.5l-0.6,0.5l-0.6,0.6l-0.6,0.6l-0.9,1.3l-0.4,0.7l-0.4,0.7l-0.4,0.7
	l-0.3,0.7l-0.3,0.8l-0.2,0.8 M178.4,44.2l-4,15 M128.8,65.5l4-15 M141,41.4l33.7-4.6 M180.1,157.9L233.7,5"/>
<polyline class="st2" points="204.8,67.1 222.8,64.7 236.7,62.8 239.6,63 242.1,64.5 243.8,66.9 244.4,69.2 244.6,72.2 244.2,75.1 
	239.3,94 237,98.8 234.4,102.5 231.8,105.2 228.7,107.4 224.5,108.9 206.9,111.4 193.9,113.2 189.1,113.6 185.8,112.3 183.6,108.9 
	183,106 183.2,101.9 189.2,80.3 192.3,75.1 196.9,70.2 201.6,67.8 "/>
<path class="st1" d="M132.6,72.9l33.7-4.6 M142.9,37.9c0.5-0.9,0.5-1.8,0-2.1c-0.5-0.3-1.3,0.2-1.8,1c-0.5,0.9-0.5,1.8,0,2.1
	C141.6,39.3,142.4,38.8,142.9,37.9z M154.1,36.4c0.5-0.9,0.5-1.8,0-2.1c-0.5-0.3-1.3,0.2-1.8,1c-0.5,0.9-0.5,1.8,0,2.1
	C152.8,37.7,153.6,37.3,154.1,36.4z M165.3,34.9c0.5-0.9,0.5-1.8,0-2.1c-0.5-0.3-1.3,0.2-1.8,1c-0.5,0.9-0.5,1.8,0,2.1
	C164,36.2,164.8,35.7,165.3,34.9z M176.6,33.3c0.5-0.9,0.5-1.8,0-2.1c-0.5-0.3-1.3,0.2-1.8,1c-0.5,0.9-0.5,1.8,0,2.1
	C175.3,34.7,176.1,34.2,176.6,33.3z M182.2,44.4c0.5-0.9,0.5-1.8,0-2.1c-0.5-0.3-1.3,0.2-1.8,1c-0.5,0.9-0.5,1.8,0,2.1
	C180.9,45.7,181.7,45.3,182.2,44.4z M178.1,59.4c0.5-0.9,0.5-1.8,0-2.1c-0.5-0.3-1.3,0.2-1.8,1c-0.5,0.9-0.5,1.8,0,2.1
	C176.8,60.8,177.6,60.3,178.1,59.4z M166.1,72.7c0.5-0.9,0.5-1.8,0-2.1c-0.5-0.3-1.3,0.2-1.8,1c-0.5,0.9-0.5,1.8,0,2.1
	C164.8,74,165.6,73.5,166.1,72.7z M154.9,74.2c0.5-0.9,0.5-1.8,0-2.1c-0.5-0.3-1.3,0.2-1.8,1c-0.5,0.9-0.5,1.8,0,2.1
	C153.6,75.5,154.4,75.1,154.9,74.2z M143.6,75.8c0.5-0.9,0.5-1.8,0-2.1c-0.5-0.3-1.3,0.2-1.8,1c-0.5,0.9-0.5,1.8,0,2.1
	C142.3,77.1,143.1,76.6,143.6,75.8z M132.4,77.3c0.5-0.9,0.5-1.8,0-2.1c-0.5-0.3-1.3,0.2-1.8,1c-0.5,0.9-0.5,1.8,0,2.1
	C131.1,78.6,131.9,78.2,132.4,77.3z M130.8,51.5c0.5-0.9,0.5-1.8,0-2.1c-0.5-0.3-1.3,0.2-1.8,1c-0.5,0.9-0.5,1.8,0,2.1
	C129.5,52.8,130.3,52.3,130.8,51.5z M126.9,66.4c0.5-0.9,0.5-1.8,0-2.1c-0.5-0.3-1.3,0.2-1.8,1c-0.5,0.9-0.5,1.8,0,2.1
	C125.6,67.7,126.4,67.2,126.9,66.4z M191.6,110l26.5,14.7 M169,97.8l9.5,5.3 M162.2,93.9l3.4,1.9 M131.4,76.8l27.4,15.2"/>
<path class="st0" d="M202.9,71.2c0.5-0.9,0.5-1.8,0-2.1c-0.5-0.3-1.3,0.2-1.8,1c-0.5,0.9-0.5,1.8,0,2.1
	C201.6,72.5,202.4,72.1,202.9,71.2z"/>
<path class="st0" d="M214.2,69.6c0.5-0.9,0.5-1.8,0-2.1c-0.5-0.3-1.3,0.2-1.8,1c-0.5,0.9-0.5,1.8,0,2.1
	C212.9,71,213.7,70.5,214.2,69.6z"/>
<path class="st0" d="M225.4,68.1c0.5-0.9,0.5-1.8,0-2.1c-0.5-0.3-1.3,0.2-1.8,1c-0.5,0.9-0.5,1.8,0,2.1
	C224.1,69.4,224.9,69,225.4,68.1z"/>
<path class="st0" d="M236.6,66.6c0.5-0.9,0.5-1.8,0-2.1c-0.5-0.3-1.3,0.2-1.8,1c-0.5,0.9-0.5,1.8,0,2.1
	C235.3,67.9,236.1,67.4,236.6,66.6z"/>
<path class="st0" d="M242.3,77.7c0.5-0.9,0.5-1.8,0-2.1c-0.5-0.3-1.3,0.2-1.8,1c-0.5,0.9-0.5,1.8,0,2.1
	C241,79,241.8,78.5,242.3,77.7z"/>
<path class="st0" d="M238.2,92.7c0.5-0.9,0.5-1.8,0-2.1c-0.5-0.3-1.3,0.2-1.8,1c-0.5,0.9-0.5,1.8,0,2.1
	C236.9,94,237.7,93.6,238.2,92.7z"/>
<path class="st0" d="M226.2,105.9c0.5-0.9,0.5-1.8,0-2.1c-0.5-0.3-1.3,0.2-1.8,1c-0.5,0.9-0.5,1.8,0,2.1
	C224.8,107.3,225.7,106.8,226.2,105.9z"/>
<path class="st0" d="M214.9,107.5c0.5-0.9,0.5-1.8,0-2.1c-0.5-0.3-1.3,0.2-1.8,1c-0.5,0.9-0.5,1.8,0,2.1
	C213.6,108.8,214.4,108.3,214.9,107.5z"/>
<path class="st0" d="M203.7,109c0.5-0.9,0.5-1.8,0-2.1c-0.5-0.3-1.3,0.2-1.8,1c-0.5,0.9-0.5,1.8,0,2.1
	C202.4,110.3,203.2,109.9,203.7,109z"/>
<path class="st0" d="M192.5,110.6c0.5-0.9,0.5-1.8,0-2.1c-0.5-0.3-1.3,0.2-1.8,1c-0.5,0.9-0.5,1.8,0,2.1
	C191.2,111.9,192,111.4,192.5,110.6z"/>
<path class="st0" d="M187,99.6c0.5-0.9,0.5-1.8,0-2.1c-0.5-0.3-1.3,0.2-1.8,1c-0.5,0.9-0.5,1.8,0,2.1
	C185.7,101,186.5,100.5,187,99.6z"/>
<path class="st0" d="M190.9,84.7c0.5-0.9,0.5-1.8,0-2.1c-0.5-0.3-1.3,0.2-1.8,1c-0.5,0.9-0.5,1.8,0,2.1
	C189.5,86.1,190.4,85.6,190.9,84.7z"/>
<polyline class="st0" points="183.7,99.5 183.5,100.1 183.4,100.7 183.3,101.3 183.2,101.9 183.1,102.5 183,103 183,103.7 
	182.9,104.2 182.9,105.4 183,106 183.1,106.6 183.2,107.2 183.2,107.8 183.4,108.4 183.6,108.9 183.8,109.5 184,110 184.3,110.5 
	184.6,111 185,111.5 185.4,111.9 185.8,112.3 186.3,112.7 186.8,113 187.3,113.2 187.9,113.4 188.5,113.5 189.1,113.6 189.6,113.7 
	190.2,113.6 190.8,113.6 "/>
<polyline class="st0" points="224.5,108.9 225.3,108.8 226,108.6 226.7,108.4 227.4,108.1 228.1,107.8 228.7,107.4 229.4,107 
	230,106.6 230.6,106.2 231.2,105.7 231.8,105.2 232.3,104.7 232.9,104.2 233.4,103.6 233.9,103 234.4,102.5 234.9,101.9 
	235.3,101.3 235.8,100.7 236.2,100.1 236.6,99.4 237,98.8 237.4,98.1 237.7,97.5 238.1,96.8 238.4,96.1 238.7,95.4 239,94.7 
	239.3,94 239.5,93.3 239.7,92.5 239.9,91.8 "/>
<polyline class="st0" points="243.8,76.9 244,76.3 244.1,75.7 244.2,75.1 244.3,74.6 244.4,74 244.5,73.4 244.5,72.8 244.6,72.2 
	244.6,71.6 244.6,71 244.5,70.4 244.5,69.8 244.4,69.2 244.3,68.7 244.1,68 244,67.5 243.8,66.9 243.5,66.4 243.2,65.9 242.9,65.4 
	242.5,64.9 242.1,64.5 241.7,64.1 241.2,63.7 240.7,63.4 240.2,63.2 239.6,63 239.1,62.9 238.5,62.8 237.9,62.8 237.3,62.8 
	236.7,62.8 "/>
<polyline class="st0" points="203,67.4 202.3,67.6 201.6,67.8 200.8,68 200.2,68.3 199.5,68.6 198.8,69 198.2,69.4 197.6,69.8 
	196.9,70.2 196.4,70.7 195.8,71.2 195.2,71.7 194.7,72.2 194.2,72.7 193.6,73.3 193.2,73.9 192.7,74.5 192.3,75.1 191.8,75.7 
	191.4,76.3 191,77 190.6,77.6 190.2,78.3 189.8,78.9 189.5,79.6 189.2,80.3 188.9,81 188.6,81.7 188.3,82.4 188.1,83.1 187.8,83.9 
	187.7,84.5 "/>
<line class="st0" x1="183.7" y1="99.6" x2="187.6" y2="84.6"/>
<line class="st0" x1="224.5" y1="108.9" x2="190.8" y2="113.6"/>
<line class="st0" x1="243.8" y1="76.9" x2="239.9" y2="91.8"/>
<line class="st0" x1="203" y1="67.4" x2="236.7" y2="62.8"/>
</svg>
