<?xml version="1.0" encoding="utf-8"?>
<!-- Generator: Adobe Illustrator 24.2.3, SVG Export Plug-In . SVG Version: 6.00 Build 0)  -->
<svg version="1.1" id="Ebene_1" xmlns="http://www.w3.org/2000/svg" xmlns:xlink="http://www.w3.org/1999/xlink" x="0px" y="0px"
	 viewBox="0 0 349.1 166" style="enable-background:new 0 0 349.1 166;" xml:space="preserve">
<style type="text/css">
	.st0{fill-rule:evenodd;clip-rule:evenodd;fill:#0099FF;}
	.st1{fill:none;stroke:#000000;stroke-width:0.54;stroke-miterlimit:5;}
	.st2{fill:none;stroke:#000000;stroke-width:0.27;stroke-miterlimit:5;}
</style>
<polyline class="st0" points="162.5,21.9 158.6,21.3 156.6,21.9 155.1,23.1 154,24.9 153.3,27.2 152.9,30.3 153,32.5 153.3,35.4 
	170.9,99.4 172.6,105.2 174.6,109.8 177.3,114.4 179.4,117.4 182.8,120.9 186.9,123.9 189.7,124.9 210.9,130.1 213.3,130.4 
	215.3,129.9 216.9,128.7 218,126.9 218.8,124.7 219.1,122.2 219.1,118.4 218.1,113.5 199.7,47.2 197.1,41.2 194.8,37.2 191,32.4 
	187.9,29.4 185.2,27.7 182.4,26.6 162.5,21.9 "/>
<path class="st1" d="M176,147.1l0.6,0.4l0.3-2 M178.9,146.5l0.1-0.7l-2-1.5l0-2.5l-0.6-0.4 M176,143.7l-1.8-0.9l-0.1,0.7
	 M175.6,140.6l2.7,0.5 M179.2,147.6l1.2-2.5 M178,141l15.4-7.9 M180.3,145.4l15.4-7.9 M191.2,139.8c0.7-0.4,0.8-1.6,0.1-2.9
	c-0.6-1.2-1.7-1.9-2.4-1.6 M193.4,138.7L193.4,138.7c0.7-0.4,0.8-1.6,0.1-2.9c-0.6-1.2-1.7-1.9-2.4-1.6 M195.7,137.5L195.7,137.5
	c0.7-0.4,0.8-1.6,0.1-2.9c-0.6-1.2-1.7-1.9-2.4-1.6 M178.5,148.3c1.2-0.6,1.3-2.8,0.2-4.9s-2.9-3.3-4.1-2.7
	c-1.2,0.6-1.3,2.8-0.2,4.9C175.5,147.7,177.3,148.9,178.5,148.3z M180.4,145.1c0.3-0.6,0.2-1.5-0.3-2.4c-0.5-0.9-1.2-1.5-1.8-1.6
	 M198.6,47.1c0.4-0.2,0.4-1,0-1.7c-0.4-0.7-1.1-1.1-1.5-0.9c-0.4,0.2-0.4,1,0,1.7C197.5,47,198.2,47.3,198.6,47.1z M201.8,58.9
	c0.4-0.2,0.4-1,0-1.7c-0.4-0.7-1.1-1.1-1.5-0.9c-0.4,0.2-0.4,1,0,1.7C200.8,58.7,201.4,59.1,201.8,58.9z M205.1,70.7
	c0.4-0.2,0.4-1,0-1.7c-0.4-0.7-1.1-1.1-1.5-0.9c-0.4,0.2-0.4,1,0,1.7C204,70.5,204.7,70.9,205.1,70.7z M192.8,37.4
	c0.4-0.2,0.4-1,0-1.7c-0.4-0.7-1.1-1.1-1.5-0.8c-0.4,0.2-0.4,1,0,1.7C191.7,37.2,192.4,37.6,192.8,37.4z M183.8,30.6
	c0.4-0.2,0.4-1,0-1.7c-0.4-0.7-1.1-1.1-1.5-0.9c-0.4,0.2-0.4,1,0,1.7C182.8,30.5,183.4,30.9,183.8,30.6z M173.2,28
	c0.4-0.2,0.4-1,0-1.7c-0.4-0.7-1.1-1.1-1.5-0.9c-0.4,0.2-0.4,1,0,1.7C172.1,27.9,172.8,28.3,173.2,28z M162.6,25.5
	c0.4-0.2,0.4-1,0-1.7c-0.4-0.7-1.1-1.1-1.5-0.8c-0.4,0.2-0.4,1,0,1.7C161.5,25.4,162.2,25.8,162.6,25.5z M156.1,28.7
	c0.4-0.2,0.4-1,0-1.7c-0.4-0.7-1.1-1.1-1.5-0.9s-0.4,1,0,1.7C155,28.6,155.7,28.9,156.1,28.7z M155.5,36.8c0.4-0.2,0.4-1,0-1.7
	c-0.4-0.7-1.1-1.1-1.5-0.8c-0.4,0.2-0.4,1,0,1.7C154.5,36.6,155.1,37,155.5,36.8z M158.8,48.6c0.4-0.2,0.4-1,0-1.7
	c-0.4-0.7-1.1-1.1-1.5-0.8c-0.4,0.2-0.4,1,0,1.7C157.7,48.4,158.4,48.8,158.8,48.6z M162.1,60.3c0.4-0.2,0.4-1,0-1.7
	c-0.4-0.7-1.1-1.1-1.5-0.9c-0.4,0.2-0.4,1,0,1.7C161,60.2,161.6,60.6,162.1,60.3z M165.3,72.1c0.4-0.2,0.4-1,0-1.7
	c-0.4-0.7-1.1-1.1-1.5-0.8c-0.4,0.2-0.4,1,0,1.7C164.2,72,164.9,72.3,165.3,72.1z M168.6,83.9c0.4-0.2,0.4-1,0-1.7
	c-0.4-0.7-1.1-1.1-1.5-0.8c-0.4,0.2-0.4,1,0,1.7C167.5,83.7,168.2,84.1,168.6,83.9z M171.8,95.6c0.4-0.2,0.4-1,0-1.7
	c-0.4-0.7-1.1-1.1-1.5-0.9c-0.4,0.2-0.4,1,0,1.7C170.7,95.5,171.4,95.9,171.8,95.6z M175.1,107.4c0.4-0.2,0.4-1,0-1.7
	c-0.4-0.7-1.1-1.1-1.5-0.9c-0.4,0.2-0.4,1,0,1.7C174,107.3,174.7,107.6,175.1,107.4z M180.5,116.6c0.4-0.2,0.4-1,0-1.7
	c-0.4-0.7-1.1-1.1-1.5-0.9c-0.4,0.2-0.4,1,0,1.7C179.4,116.5,180.1,116.9,180.5,116.6z M189.6,123.5c0.4-0.2,0.4-1,0-1.7
	c-0.4-0.7-1.1-1.1-1.5-0.9c-0.4,0.2-0.4,1,0,1.7C188.5,123.3,189.1,123.7,189.6,123.5z M200.2,126c0.4-0.2,0.4-1,0-1.7
	c-0.4-0.7-1.1-1.1-1.5-0.9c-0.4,0.2-0.4,1,0,1.7C199.2,125.8,199.8,126.2,200.2,126z M210.8,128.4c0.4-0.2,0.4-1,0-1.7
	c-0.4-0.7-1.1-1.1-1.5-0.9c-0.4,0.2-0.4,1,0,1.7C209.8,128.3,210.4,128.7,210.8,128.4z M217.2,125.5c0.4-0.2,0.4-1,0-1.7
	c-0.4-0.7-1.1-1.1-1.5-0.8c-0.4,0.2-0.4,1,0,1.7C216.1,125.3,216.8,125.7,217.2,125.5z M218.1,117.7c0.4-0.2,0.4-1,0-1.7
	c-0.4-0.7-1.1-1.1-1.5-0.9c-0.4,0.2-0.4,1,0,1.7C217,117.5,217.7,117.9,218.1,117.7z M214.8,105.9c0.4-0.2,0.4-1,0-1.7
	c-0.4-0.7-1.1-1.1-1.5-0.9c-0.4,0.2-0.4,1,0,1.7C213.8,105.8,214.4,106.2,214.8,105.9z M211.6,94.2c0.4-0.2,0.4-1,0-1.7
	c-0.4-0.7-1.1-1.1-1.5-0.9c-0.4,0.2-0.4,1,0,1.7C210.5,94,211.2,94.4,211.6,94.2z M208.3,82.4c0.4-0.2,0.4-1,0-1.7
	c-0.4-0.7-1.1-1.1-1.5-0.8c-0.4,0.2-0.4,1,0,1.7C207.3,82.2,207.9,82.6,208.3,82.4z M154,38.2l17.7,64 M210.9,130.1l-21.2-5.2
	 M200.4,49.2l17.7,64.2 M182.4,26.6l-21.2-5 M189.7,124.9l-2.8-1l-2.7-1.7l-2.5-2.2l-2.3-2.6l-2.1-2.9l-1.9-3.1l-1.6-3.1l-1.3-3.1
	l-0.9-2.9 M218.1,113.5l0.7,3l0.4,2.9l0,2.8l-0.4,2.6l-0.7,2.2l-1.1,1.8l-1.6,1.2l-2,0.5l-2.4-0.3 M182.4,26.6l2.8,1.1l2.7,1.7
	l2.5,2.2l2.3,2.6l2.1,2.9l1.8,3.1l1.6,3.1l1.2,3l0.9,2.8 M154,38.2l-0.7-2.8l-0.4-2.9l0-2.8l0.3-2.6l0.7-2.2l1.1-1.8l1.5-1.2l2-0.6
	l2.5,0.3"/>
<line class="st2" x1="220.6" y1="122.1" x2="247.9" y2="108.2"/>
<line class="st2" x1="216.4" y1="124.2" x2="194.5" y2="135.3"/>
</svg>
