<?xml version="1.0" encoding="utf-8"?>
<!-- Generator: Adobe Illustrator 24.2.1, SVG Export Plug-In . SVG Version: 6.00 Build 0)  -->
<svg version="1.1" id="Ebene_1" xmlns="http://www.w3.org/2000/svg" xmlns:xlink="http://www.w3.org/1999/xlink" x="0px" y="0px"
	 viewBox="0 0 349.1 161" style="enable-background:new 0 0 349.1 161;" xml:space="preserve">
<style type="text/css">
	.st0{fill:#0099FF;}
	.st1{fill:none;stroke:#B1B1B1;stroke-width:0.25;stroke-miterlimit:4.9999;}
	.st2{fill:#CCCCCC;}
	.st3{fill:#999999;}
	.st4{fill:#666666;}
	.st5{fill:none;stroke:#1D1D1C;stroke-width:9.999834e-02;stroke-miterlimit:4.9999;}
	.st6{fill:none;stroke:#1D1D1C;stroke-width:0.5;stroke-miterlimit:4.9999;}
	.st7{fill:none;stroke:#1D1D1C;stroke-width:0.25;stroke-miterlimit:4.9999;}
	.st8{fill:#FF9900;}
	.st9{fill:none;stroke:#1D1D1C;stroke-width:0.5;stroke-miterlimit:5;}
	.st10{fill:none;stroke:#1D1D1C;stroke-width:0.25;stroke-miterlimit:5;}
	.st11{fill:#1D1D1C;}
</style>
<path class="st0" d="M174.3,70.2c2.2,0.4,4.7,1.2,7.5,2.3c9.3,3.9,17.8,11,25.5,21.5l-2.1,2.1l7.5,0.2l0.2-7.6l-2.1,2
	c-8-8.7-17.1-14.8-27.4-18.3C179.9,71.4,177,70.6,174.3,70.2z"/>
<path id="Layer0_4_MEMBER_0_1_STROKES" class="st1" d="M153.5,55.4L153.5,55.4l-0.2,0.3v0l0,0v0l0,0v0l0,0v0l0,0l-0.1,0.3l-0.2,0.7
	V57h0v0h0l0,0l-0.2,0.1l0,0l-0.1,0l-0.1,0.1l-0.1,0.1l-0.1,0.1v0.2l-0.1,0.1v0h0v0l0,0H152v0H152v0h0l0,0h0v0h0v0h0l-0.7,0.7h0v0
	l0,0h0v0h0v0c-0.7,0.5-1.8,1.5-3.3,3c-1.7,1.7-2.8,2.7-3.3,3.2l-0.2,0.2l-1-0.5l-1-0.3l-0.9,0l-1,0.2l-1.1,0.6l-0.2,0.2l-0.8,0.7
	l-0.2,0.2h0l-0.1,0.2l0,0.1l0,0l0,0.1c-0.5,0.8-0.8,1.9-0.8,3.3v2.7c-0.1,0.4-0.1,1,0,1.7c0.1,0.8,0.1,1.3,0.1,1.7v0.1l0.1,0.3
	c0.1,0.6,0.3,1.7,0.7,3.3h0v0h0l0.1,0l0.1-0.1l0.2-0.1h0.1l0.1,0.1l0.4,0.2l0.1,0.1l0.1-0.1l0.1,0h0v0h0v0h0.1l0.1,0.1l0.1,0l0,0h0
	l0.1,0l0.1-0.1l0.1-0.1l0.1-0.1l0.1-0.3v-0.1h0l0-0.3l0-0.1l-0.5-1.1v0l-0.2-0.6c-0.1-0.4-0.2-0.8-0.2-1.1l0-0.2v-0.2
	c0-0.6,0-1,0.1-1.2l0-0.1h0l0,0h0.1l0,0l0.3-0.2l0-0.1v-0.2l0-0.1h0.2c0.2,0,0.5,0,0.9,0.1h0.1c0.9,0,2.2,0,3.9,0.1
	c1.9,0.1,3.2,0.2,3.9,0.2l1.2,0.1v0.1l0,0.1l0.1,0.1c0.1,0.2,0.1,0.6,0.2,1c0,0.2,0.1,0.5,0.1,1v0.1l-0.1,0.1v0l0,0.1v0.2l0,0.1
	l0.1,0.1v0l0.1,0.1l0,0.1c0,0.1,0.1,0.3,0.1,0.6l0,0.1v0.1c0,0.2,0,0.4,0,0.5c0,0.1-0.1,0.2-0.2,0.3l-0.1,0.1v0.4l0,0v0.1h0l0,0.1
	l0.2,0.3l0,0.1l0,0l0,0.1c0,0.1,0,0.5,0,1.1c0,0.5,0,0.8,0.1,1v0.1l0,0l0.2,0.7c0.2,0.6,0.3,1.1,0.3,1.3c0.1,0.5,0.1,0.9,0,1.3v0
	c0,0-0.1,0.2-0.2,0.4c-0.1,0.2-0.1,0.3-0.1,0.4v0.1l0,0l0.1,0l0.1,0.1l0,0h0l-0.1,0.4l0,0h0l0.1,0l0.5-0.2l0.1-0.1V87l0,0l0-0.1
	l0.3-0.3l0-0.1h0.1l0.1-0.1l0-0.1v-0.1l0-0.1v-0.1l0-0.1l0.1-0.1l0.1-0.3c0.1-0.4,0.2-0.8,0.2-1.1c0-0.1-0.1-0.5-0.2-1.1l0-1.2l0,0
	h0.1l0,0h0.1l0,0l0.1,0l0.1,0.1l0.1,0.1h0.1l0,0h0c0.1-0.1,0.1-0.2,0-0.3l-0.1-0.1h0l0,0l-0.3-0.2h-0.1v-0.5h0c0,0,0.2,0,0.5,0.1
	c0.2,0,0.4,0,0.6,0l10.5,0.4l0.1,0h0c0.4,0.1,0.7,0.1,0.9,0h0v0h0.4v0.4h0v0h0l0,0l0.1,0c0.1-0.1,0.2-0.1,0.3,0v0l0,0h0.1v0h0.1v0
	h0.1v1.5l0,0v0l0,0v0h0l0,0l0.1,0c0.1,0,0.2,0.1,0.2,0h0l0.1-0.1l0.1-0.1l0.1-0.2l0,0l0-0.1v-0.1l0.1-0.2l0,0v0.5h0v0.1l0,0v0.1h0
	l0.3-0.1c0.1,0,0.2-0.1,0.3-0.1c0.1,0,0.2,0.1,0.2,0.2l0.1,0.1l0,0.1h0.1l0.2-0.1l0,0h0v0h0v-4.2h0l-0.1-0.1v-0.3l0,0v-0.1h0v0l0,0
	v-0.5l0-0.1l0,0l-0.1,0l-0.1,0l0,0l-0.1,0.1l-0.1,0.1h-0.1v0h0v-0.6h0v0l0.1,0l0.1-0.1c0.2-0.1,0.3-0.2,0.3-0.3c0-0.1,0-0.2,0-0.4
	v-1.2c0-0.2,0-0.3,0-0.4c0-0.1-0.1,0-0.3,0.1l-0.1,0l0,0v0l0,0V75h0v0l0,0l0.1-0.1c0.2-0.1,0.3-0.2,0.3-0.3c0-0.1,0-0.2,0-0.5v-1.4
	c0-0.2,0-0.4,0-0.4c0-0.1-0.1-0.1-0.3,0l-0.1,0.1l-0.1,0v-0.1l0,0v-0.3c0-0.5,0-2,0-4.7c0.1-1.9-0.1-3.4-0.5-4.6v0h0l-0.1-0.1l0,0h0
	l0,0l-0.1-0.1c-0.5-1.3-1.2-2.3-1.9-3.2c-0.8-0.9-1.8-1.6-3-2.2l-1.3-0.7c-1.2-0.7-2.2-1.3-2.9-1.7c-1.3-0.7-2.3-0.9-3-0.6l-0.2,0.1
	l-0.2,0.1l-1,0.6l-0.2,0.2L153.5,55.4z"/>
<path id="Layer0_4_MEMBER_1_1_STROKES" class="st1" d="M165.2,80.4l-7.8-6.6l-0.3,0.1l-1.5,0.4l-1,2l-1,1.2l-0.8-0.6v-0.6
	c0-0.9,0-3.6,0-8.1V59c0-0.5-0.1-0.8-0.2-1.2l-0.1-0.5l0-0.2l-0.4,0.2c-7.4,4.1-12.3,6.7-14.5,8l-1.3,0.8l-0.1,0.1l0.4,13.5l4.2,0.5
	l4.1,1.3l0.7,0.3l0.4,0.3l4,5l2.4,0.3l0.4-0.4l1-1.9l0.2-0.4l0.2-0.1l11.9-2.2l0.2-0.1L165.2,80.4z"/>
<path id="Layer0_4_MEMBER_2_1_STROKES" class="st1" d="M152.9,67.8v0.2"/>
<path id="Layer0_4_MEMBER_3_1_STROKES" class="st1" d="M141.4,93.5l-5-2.9"/>
<path id="Layer0_4_MEMBER_4_1_STROKES" class="st1" d="M141.4,98.2l-5-2.9"/>
<path id="Layer0_4_MEMBER_5_1_STROKES" class="st1" d="M152.9,97L201.5,69"/>
<path id="Layer0_4_MEMBER_6_1_STROKES" class="st1" d="M176,40.6l11.1,6.5"/>
<path id="Layer0_4_MEMBER_7_1_STROKES" class="st1" d="M141.3,100.1l-6.1-3.5"/>
<path id="Layer0_4_MEMBER_8_1_STROKES" class="st1" d="M147.2,67.4l-3.6-2"/>
<path id="Layer0_4_MEMBER_9_1_STROKES" class="st1" d="M152.2,75.9v7.8"/>
<path id="Layer0_4_MEMBER_10_1_STROKES" class="st1" d="M217.2,35.9L207,36.7"/>
<path id="Layer0_4_MEMBER_11_1_STROKES" class="st1" d="M203.4,40.1l-13.9-8.2"/>
<path id="Layer0_4_MEMBER_12_1_STROKES" class="st1" d="M184.8,60.5v16.8"/>
<path id="Layer0_4_MEMBER_13_1_STROKES" class="st1" d="M176.5,42.3l5.3,3.1"/>
<path id="Layer0_4_MEMBER_14_1_STROKES" class="st1" d="M173.9,43.9l5.3,3.1"/>
<path id="Layer0_4_MEMBER_15_1_STROKES" class="st1" d="M231.8,21.7l-3.7-2.1"/>
<path id="Layer0_4_MEMBER_16_1_STROKES" class="st1" d="M236.7,30.2v3.4"/>
<path id="Layer0_4_MEMBER_17_1_STROKES" class="st1" d="M213.7,27.3l-3.6-2"/>
<path id="Layer0_4_MEMBER_18_1_STROKES" class="st1" d="M246.6,25.8l0,1.9"/>
<path id="Layer0_4_MEMBER_19_1_STROKES" class="st1" d="M250.1,25.6l-2.7,11"/>
<path id="Layer0_4_MEMBER_20_1_STROKES" class="st1" d="M184.8,60.5l-17.4,10"/>
<path id="Layer0_4_MEMBER_21_1_STROKES" class="st1" d="M184.8,76.7l-30.1,10.3"/>
<path id="Layer0_4_MEMBER_22_1_STROKES" class="st1" d="M234.5,31.2l2.2-1.2"/>
<path id="Layer0_4_MEMBER_23_1_STROKES" class="st1" d="M233.4,27.5l2.3-1"/>
<path id="Layer0_4_MEMBER_24_1_STROKES" class="st1" d="M220.5,37.2l0.2-1.7"/>
<path id="Layer0_4_MEMBER_25_1_STROKES" class="st1" d="M220.3,34.8l-1.6-0.1"/>
<path id="Layer0_4_MEMBER_26_1_STROKES" class="st1" d="M184.8,76.7l14.8-8.5"/>
<path id="Layer0_4_MEMBER_27_1_STROKES" class="st1" d="M188.1,75.7l12.4-7.2"/>
<path id="Layer0_4_MEMBER_28_1_STROKES" class="st1" d="M180.6,57.7l24,11.3"/>
<path id="Layer0_4_MEMBER_29_1_STROKES" class="st1" d="M217.2,35.9l20.9,13.2"/>
<path id="Layer0_4_MEMBER_30_1_STROKES" class="st1" d="M186.1,16.2l16.1,10.2"/>
<path id="Layer0_4_MEMBER_31_1_STROKES" class="st1" d="M140.8,39.8l19.8,9.1"/>
<path id="Layer0_4_MEMBER_32_1_STROKES" class="st1" d="M172.6,44.8l5.4,3.1"/>
<path id="Layer0_4_MEMBER_33_1_STROKES" class="st1" d="M152,84.2l-0.7,0.4c-1.2,0.7-2.5,1.3-4,1.7l-0.8,0.2"/>
<path id="Layer0_4_MEMBER_34_1_STROKES" class="st1" d="M152.2,90.9l0-0.7l-0.2-0.7"/>
<path id="Layer0_4_MEMBER_35_1_STROKES" class="st1" d="M145.1,66.2l-0.7,0.6c-1.2,1-3.4,2.8-6.5,5.6l-0.7,0.6"/>
<path id="Layer0_4_MEMBER_36_1_STROKES" class="st1" d="M172.6,44.8l-0.7,0.5c-1.9,1.2-5.2,3.5-9.8,6.9l-0.7,0.5"/>
<path id="Layer0_4_MEMBER_37_1_STROKES" class="st1" d="M138.5,66l-0.7,0.7c-1.7,1.8-3.3,3.6-4.8,5.6l-0.6,0.7"/>
<path id="Layer0_4_MEMBER_38_1_STROKES" class="st1" d="M236.2,46.6l1.3-1.1"/>
<path id="Layer0_4_MEMBER_39_1_STROKES" class="st1" d="M187.4,77.1c0.5-0.3,0.7-0.8,0.7-1.3"/>
<path id="Layer0_4_MEMBER_40_1_STROKES" class="st1" d="M237.6,46.3l-0.1-0.7"/>
<path id="Layer0_4_MEMBER_41_1_STROKES" class="st1" d="M237.6,47l0.1-0.7"/>
<path id="Layer0_4_MEMBER_42_1_STROKES" class="st1" d="M220.7,35.5l0-0.3l-0.1-0.2l-0.1-0.2l-0.2-0.1"/>
<path id="Layer0_4_MEMBER_43_1_STROKES" class="st1" d="M233.1,28.3l-0.1-0.3l0.1-0.2l0.2-0.2l0.2-0.1"/>
<path id="Layer0_4_MEMBER_44_1_STROKES" class="st1" d="M234.5,31.2L234.5,31.2l-0.3,0l-0.2-0.1l-0.1-0.2l-0.1-0.2"/>
<path id="Layer0_4_MEMBER_45_1_STROKES" class="st1" d="M233.8,30.8c0-0.8-0.2-1.7-0.7-2.5"/>
<path id="Layer0_4_MEMBER_46_1_STROKES" class="st1" d="M204.8,34.2l-0.7-0.5c-1-0.6-2.5-1.5-4.5-2.6l-0.7-0.4"/>
<path id="Layer0_4_MEMBER_47_1_STROKES" class="st1" d="M197.6,30.7l0.6-0.1l0.3,0l0.3,0.1"/>
<path id="Layer0_4_MEMBER_48_1_STROKES" class="st1" d="M204.4,35.2l0.4-0.1l0.2-0.2l0.1-0.3l-0.2-0.3"/>
<path id="Layer0_4_MEMBER_49_1_STROKES" class="st1" d="M195.7,35.4l-0.4-0.2c-1-0.5-1.6-1-1.9-1.6l-0.3-1.1l0.2-0.9l0.6-0.8
	l0.8-0.7l1-0.5l0.9-0.3"/>
<path id="Layer0_4_MEMBER_50_1_STROKES" class="st1" d="M207,36.7l-0.8,0.1c-3.3,0.4-6.5,0.1-9.6-1.1l-0.9-0.3"/>
<path id="Layer0_4_MEMBER_51_1_STROKES" class="st1" d="M229.6,20.5l0.8-0.2c2.2-0.6,5-1.3,8.6-2.2l0.8-0.2"/>
<path id="Layer0_4_MEMBER_52_1_STROKES" class="st1" d="M143.1,65.1l0.7-0.5c3.8-2.9,8-5.9,12.6-9l0.7-0.5"/>
<path id="Layer0_4_MEMBER_53_1_STROKES" class="st1" d="M238.1,47l0.7-0.5c4.6-3.8,8.7-8.5,12.2-14.3l0.5-0.7"/>
<path id="Layer0_4_MEMBER_54_1_STROKES" class="st1" d="M152.9,97l-0.8,0.4c-3,1.6-5.8,2.6-8.5,3l-0.9,0.1"/>
<path id="Layer0_4_MEMBER_55_1_STROKES" class="st1" d="M184.8,77.3l0,0.5l-0.1,0.5l-0.2,0.4l-0.3,0.3"/>
<path id="Layer0_4_MEMBER_56_1_STROKES" class="st1" d="M225.2,39.7l0.8-0.3c3.7-1.7,7.3-3.5,10.6-5.6l0.7-0.5"/>
<path id="Layer0_4_MEMBER_57_1_STROKES" class="st1" d="M246.4,38.5c0.5-0.6,0.8-1.2,0.9-1.9"/>
<path id="Layer0_4_MEMBER_58_1_STROKES" class="st1" d="M237.4,33.3l0.8-0.5c3.3-2.1,5.9-3.6,7.6-4.6l0.8-0.5"/>
<path id="Layer0_4_MEMBER_59_1_STROKES" class="st1" d="M252.3,22.5l0-0.2l-0.2-0.2l-0.3-0.1l-0.2,0h-0.2l-0.1,0h0l-0.8,0.2
	c-2.4,0.4-4.8,0.5-7,0.3l-0.9-0.1"/>
<path id="Layer0_4_MEMBER_60_1_STROKES" class="st1" d="M245,25.8l0.9,0.1c1.1,0,2.2-0.3,3.2-0.7c1-0.5,1.9-1.1,2.6-2l0.6-0.7"/>
<path id="Layer0_4_MEMBER_61_1_STROKES" class="st1" d="M236.9,16.6l-1.3,0.2c-13.1,1.9-25.8,5.9-38.2,11.9l-1.2,0.6"/>
<path id="Layer0_4_MEMBER_62_1_STROKES" class="st1" d="M210.2,25.3c-0.8-0.6-1.8-0.9-2.8-0.9H207"/>
<path id="Layer0_4_MEMBER_63_1_STROKES" class="st1" d="M218.9,36.3l0-0.7c-0.2-1.5-0.7-2.9-1.5-4.4c-0.8-1.5-1.8-2.6-3-3.5
	l-0.7-0.5"/>
<path id="Layer0_4_MEMBER_64_1_STROKES" class="st1" d="M175.1,40.6l-1.6,0.7c-2.4,1.2-5.1,2.8-8.2,4.8c-0.6,0.4-3.3,2.1-7.9,5.2
	l-1.6,1.1c-5.4,3.8-10.7,7.9-15.9,12.3l-1.5,1.2"/>
<path id="Layer0_4_MEMBER_65_1_STROKES" class="st1" d="M228.1,19.6c-0.8-0.6-1.6-0.8-2.6-0.8l-0.4,0"/>
<path id="Layer0_4_MEMBER_66_1_STROKES" class="st1" d="M236.7,30.2l-0.1-0.9c-0.1-1.3-0.6-2.6-1.4-3.9c-0.7-1.3-1.7-2.3-2.8-3.2
	l-0.7-0.5"/>
<path id="Layer0_4_MEMBER_67_1_STROKES" class="st1" d="M246.5,27.8l0.8-0.5c1.6-1,3.1-2.1,4.4-3.4l0.6-0.7"/>
<path id="Layer0_4_MEMBER_68_1_STROKES" class="st1" d="M252.1,29.2l-0.4,1.7l-0.3,0.5"/>
<path id="Layer0_4_MEMBER_69_1_STROKES" class="st1" d="M252.4,22.3v0.9c0,1.8-0.1,3.6-0.2,5.2l-0.1,0.9"/>
<path id="Layer0_4_MEMBER_70_1_STROKES" class="st1" d="M242.1,23.2l0.2,0.7l0.7,0.8l0.9,0.7l1.1,0.4"/>
<path id="Layer0_4_MEMBER_71_1_STROKES" class="st1" d="M242.2,22.6c0-1.5-0.5-2.8-1.5-4c-1-1.1-2.2-1.8-3.7-2"/>
<path id="Layer0_4_MEMBER_72_1_STROKES" class="st1" d="M242.1,23.2v-0.3l0-0.2"/>
<path id="Layer0_4_MEMBER_73_1_STROKES" class="st1" d="M126.6,90.5l-0.6-0.1c-1.1-0.3-2-0.9-2.6-1.8c-0.6-0.9-0.8-1.9-0.7-3.1
	l0.2-0.9"/>
<path id="Layer0_4_MEMBER_74_1_STROKES" class="st1" d="M126.6,90.5l0.9,0.1c1.4,0.1,2.9,0.1,4.6-0.1l1.8-0.3
	c1.8-0.5,4.1-1.2,6.8-2.1l0.8-0.3"/>
<path id="Layer0_4_MEMBER_75_1_STROKES" class="st1" d="M123,84.5l0.4-0.8c0.5-1,1.3-2.3,2.4-3.8l0.6-0.7"/>
<path id="Layer0_4_MEMBER_76_1_STROKES" class="st1" d="M173.8,43.9l2.7-1.6"/>
<path id="Layer0_4_MEMBER_77_1_STROKES" class="st1" d="M154.8,87l-0.5,0.1c-1,0.2-1.8,0.2-2.6,0.2"/>
<path id="Layer0_4_MEMBER_78_1_STROKES" class="st1" d="M151.7,86.1l0,1.7l0.3,1.7"/>
<path id="Layer0_4_MEMBER_79_1_STROKES" class="st1" d="M152.2,83.8l-0.3,1.8l-0.2,0.6"/>
<path id="Layer0_4_MEMBER_80_1_STROKES" class="st1" d="M150,98l-0.2,0.3l-0.3,0.3l-0.4,0.2l-0.3,0.2"/>
<path id="Layer0_4_MEMBER_81_1_STROKES" class="st1" d="M152.2,90.9l-0.1,1c-0.2,1.6-0.7,3.4-1.7,5.3L150,98"/>
<path id="Layer0_4_MEMBER_82_1_STROKES" class="st1" d="M197.6,34.4l-0.2-0.1c-0.5-0.2-0.9-0.5-1.1-0.9l-0.3-0.9l0.2-0.8l0.6-0.6
	l0.8-0.4"/>
<path id="Layer0_4_MEMBER_83_1_STROKES" class="st1" d="M204.4,35.2l-0.5,0.1c-2,0.2-3.8,0.1-5.4-0.5l-0.9-0.4"/>
<path id="Layer0_4_MEMBER_84_1_STROKES" class="st1" d="M189.5,31.9l0.8-0.4c1.5-0.7,3.1-1.4,4.8-1.9l0.8-0.2"/>
<path id="Layer0_4_MEMBER_85_1_STROKES" class="st1" d="M203.4,40.1l0.8-0.4c2.6-1.3,5.4-2.1,8.3-2.6l0.8-0.2"/>
<path id="Layer0_4_MEMBER_86_1_STROKES" class="st1" d="M143.6,65.4c-0.7-0.5-1.4-0.7-2.2-0.7c-0.8,0-1.5,0.2-2.1,0.7"/>
<path id="Layer0_4_MEMBER_87_1_STROKES" class="st1" d="M152.1,75.9l-0.1-0.7c-0.2-1.4-0.6-2.7-1.4-4.1c-0.7-1.3-1.7-2.4-2.7-3.3
	l-0.8-0.5"/>
<path id="Layer0_4_MEMBER_88_1_STROKES" class="st1" d="M175.6,40.5h-0.2l0,0h-0.1"/>
<path id="Layer0_4_MEMBER_89_1_STROKES" class="st1" d="M126.3,79.1l0.6-0.6c1.6-1.6,3.3-3.3,5.1-4.9l0.7-0.6"/>
<path id="Layer0_4_MEMBER_90_1_STROKES" class="st1" d="M141.6,87.7l0.8-0.5c1.1-1,1.5-2.5,1.3-4.5c-0.2-1.8-0.9-3.6-2-5.5
	c-1.1-1.9-2.4-3.2-3.9-4.1c-1.6-1-3.1-1.1-4.5-0.5l-0.6,0.4"/>
<path id="Layer0_4_MEMBER_91_1_STROKES" class="st1" d="M141.3,100.1c0.5,0.3,0.9,0.4,1.5,0.4h0.4"/>
<path id="Layer0_4_MEMBER_92_1_STROKES" class="st1" d="M143.1,100.5c0.3-0.1,0.6-0.3,0.8-0.5c0.2-0.3,0.3-0.6,0.3-0.9"/>
<path id="Layer0_4_MEMBER_93_1_STROKES" class="st1" d="M131.9,91.8l0.3,0.9c0.6,1.7,1.4,3,2.6,3.8l0.3,0.2"/>
<path id="Layer0_4_MEMBER_94_1_STROKES" class="st1" d="M141.4,98.2l0.3,0.2l0.3,0.1l0.4,0l0.3-0.1"/>
<path id="Layer0_4_MEMBER_95_1_STROKES" class="st1" d="M143.4,96.7l-0.1-0.2c-0.4-1.2-0.8-2.1-1.3-2.5l-0.6-0.4"/>
<path id="Layer0_4_MEMBER_96_1_STROKES" class="st1" d="M143.5,97.3c0-0.2,0-0.4-0.1-0.6"/>
<path id="Layer0_4_MEMBER_97_1_STROKES" class="st1" d="M142.8,98.5c0.5-0.2,0.8-0.6,0.8-1.2"/>
<path id="Layer0_4_MEMBER_98_1_STROKES" class="st1" d="M134.3,91.1v0.4c0,0.8,0.2,1.5,0.6,2.2c0.4,0.7,0.9,1.3,1.5,1.7"/>
<path id="Layer0_4_MEMBER_99_1_STROKES" class="st1" d="M187.1,47.8l-0.3,0.7l-0.5,0.6"/>
<path id="Layer0_4_MEMBER_100_1_STROKES" class="st1" d="M180.5,55.4l0.5-0.7c1.3-2,2.9-3.7,4.7-5.1l0.7-0.6"/>
<path id="Layer0_4_MEMBER_101_1_STROKES" class="st1" d="M187.1,47l0.1,0.2l0,0.2l-0.1,0.4"/>
<path id="Layer0_4_MEMBER_102_1_STROKES" class="st1" d="M144.5,88l-0.6,0.4c-1.1,0.6-2.1,0.8-3.1,0.5l-0.3-0.1"/>
<path id="Layer0_4_MEMBER_103_1_STROKES" class="st1" d="M146.5,86.6l-0.6,0.2l-1,0.7l-0.4,0.4"/>
<path id="Layer0_4_MEMBER_104_1_STROKES" class="st1" d="M155.1,65.4l8.2-1.6l-2.4,2l-5.8,1.1L155.1,65.4z"/>
<path id="Layer0_4_MEMBER_105_1_STROKES" class="st1" d="M164.9,66.6l-8.2,8.1l-1.1-0.9l9.7-9.5v2.2"/>
<path id="Layer0_4_MEMBER_106_1_STROKES" class="st1" d="M154,54.9l1-0.6"/>
<path id="Layer0_4_MEMBER_107_1_STROKES" class="st1" d="M164.8,66.7L164.8,66.7l-0.5,0.5c-0.1,0.3-0.5,0.7-1.1,1.3
	c-0.7,0.7-1.1,1-1.2,1.1l-8.3,8l-0.1,0l-0.1,0l-0.7,0.7l-0.2,0.2l0,1.5h0.4l0,0h0.1l0,0h0.6l0.2,0h0.1l0.1,0c0.3,0,0.7,0.1,1.4,0.1
	l1.9,0.1c1.6,0.1,4,0.2,7.2,0.3l0.1,0h0.3v0l0.1,0l0.2,0h0.1l0.1,0h0l0,0h0.2l0.1,0h0v-0.8c0-0.2,0.1-0.6,0.2-1.2
	c0.1-0.6,0.2-1,0.2-1.2l-0.1-0.2c-0.1-0.2-0.1-0.3,0-0.5l0,0l0.1,0l0-0.1l0.1-0.2l0-0.3v-1.9l-0.1-0.2l-0.1-0.2l0,0v0h0l-0.1-0.2
	l0-0.2v-0.2l0.1-0.1h0v0h0l0.1-0.1l0-0.1l0-0.1v-0.1l-0.2-2.7v-0.1l-1-2.6l0-0.2V66.7z"/>
<path id="Layer0_4_MEMBER_108_1_STROKES" class="st1" d="M140.5,67L140.5,67l-0.1,0l0,0.1l-0.2,0.4c-0.1,0.2-0.2,0.3-0.2,0.3
	l-0.1,0.1l-0.5,1.2l0,0.2l0,0v0.2l0,0.1v0.1c0.1,0.2,0.1,0.3,0,0.5h0.1l0.8-0.8v0h0v0h0l0-0.1l0.1-0.1v0l0-0.1
	c0.2-0.2,0.6-0.6,1.1-1.1l0.5-0.5l-1.3-0.5H140.5z"/>
<path id="Layer0_4_MEMBER_109_1_STROKES" class="st1" d="M140.8,70.4L140.8,70.4c0.5-0.3,1.2-1,2.3-2.1l0.2-0.2l0.2,0.1
	c2.5,1.3,4.1,2.4,4.9,3.3l0.2,0.2l0.8,1.2l0,0l-7.4-0.3l-0.2,0h-0.1c-0.3-0.1-0.5-0.1-0.8-0.1h-0.2l-0.2,0h0l-0.2,0h-0.7v-0.4l0,0
	l0,0v-0.1h0.1v0h0l0.1-0.1l0-0.1l0-0.1l-0.1-0.1v0h0v0l0,0v0h0v0h0l0.1-0.1v-0.1h0.1l0,0h0l0.1-0.1v0l0,0h0.1l0.1,0h0.1l0.2-0.3l0,0
	v0l0-0.1L140.8,70.4z"/>
<path id="Layer0_4_MEMBER_110_1_STROKES" class="st1" d="M150.6,70.5l-1.4-1.8h0v-0.1l-0.1,0l-0.2-0.2l0-0.1l-0.1-0.1l-0.2-0.1
	l-0.2-0.1l-0.1-0.1h0v0l0,0h0.1c0,0,0.2,0,0.5,0h0.2c0.4,0,1.2-0.1,2.3-0.3l1.5-0.3v0.6l0,0l0,0.1v2h0v0h-0.1l-0.1-0.1l-0.1,0l0,0
	h-0.1l0,0h0v0.2l0,0.1l0.1,0.1l0.1,0l0.2,0.1l0.1,0h0v0.5l0,0v2.3h0c-0.5-0.1-0.8-0.1-0.9-0.1h0v-0.1l-0.1-0.1l0-0.1l-0.7-1.3v0l0,0
	L150.6,70.5L150.6,70.5z"/>
<path id="Layer0_4_MEMBER_111_1_STROKES" class="st1" d="M163.5,65L163.5,65l-0.1,0l-0.1,0c-0.9,0.3-2,0.6-3.5,0.9
	c-2.1,0.4-3.3,0.6-3.7,0.7l-0.7,0.2l-0.3,0v1.8c0,0.1,0,0.3,0,0.4c0,0.1,0,0.2,0.1,0.4v0h0v0.1l0.1,0.1v0.2l0,0.1v0h0v0
	c-0.1,0.1-0.1,0.2-0.1,0.3c0,0.1,0,0.2,0.1,0.3l0.2,1.4c0,0.2,0,0.5,0.1,0.9v0.9l7.6-7.4l0.1-0.1l0.2-0.2l0.1,0l0.1,0l0,0h0l0,0h0v0
	l0.7-0.6l0.1-0.1v0l0,0h0v0h0l0,0h0l0.2-0.1v0h0l-0.1-0.1l-0.1-0.2l-0.1-0.1h0l-0.1,0.1h0v0h-0.1l-0.1,0l-0.6,0.1L163.5,65z"/>
<path id="Layer0_4_MEMBER_112_1_STROKES" class="st1" d="M162.4,64.1l-0.8,0l0,0h0l-6.1,1.1l-0.3,0.1v-0.3l0.2-2.2v-0.1l0.2-2.1h0
	c0.4,0.1,0.7,0,0.7-0.3v-0.1l0,0l0-0.1l-0.1,0l0,0l-0.1,0l-0.1-0.1h0v0h0l0,0l-0.1,0l-0.1-0.1v-0.1l0,0l0.1-0.1l0.1-0.1l0,0l0,0h0
	l0,0l0.1,0.1c1.1,0.6,3.3,1.9,6.8,3.8l0,0L162.4,64.1z"/>
<path id="Layer0_4_MEMBER_113_1_STROKES" class="st1" d="M152.9,59l-4.7,5.1c-0.7,0.8-1.2,1.4-1.6,1.7l-0.2,0.2h-0.1v0h0l-0.1,0.1v0
	l0.6,0.4h0v0h0.1l0.1,0.1l0.5,0.3l0.1,0.1l0.1,0L148,67l0.1,0h0c0.8-0.3,1.9-0.6,3.2-0.8l1.6-0.3v-1.3h0L152.9,59L152.9,59z"/>
<path id="Layer0_4_MEMBER_114_1_STROKES" class="st1" d="M162.9,63.6l-6,6.5l-0.1,0.1l-0.1,0.1l-0.1,0.1l0,0l-0.1,0.1l0,0.1l0,0v0h0
	v0h0v0l-1.1,1.2l-0.1-0.2l-0.2-1.3v-0.2l0-0.1l0.1-0.1v0h0v0l0.1-0.1v-0.1l0-0.1h0v0l0.1,0v-0.2l-0.1-0.2l-0.1-0.1h-0.1v-0.1l0-0.1
	l0-2.5l0,0l0-0.1h0l0,0l0.1,0l0.1-0.1l0-0.1l0-0.1l0-0.1l0.1,0v-0.2l-0.1-0.1l0-0.1l-0.1,0l-0.1-0.1h-0.1v-0.1c0-0.2,0-0.6,0-1
	c0.1-0.5,0.1-0.8,0.1-1l0-0.3l3.3-2L162.9,63.6L162.9,63.6z"/>
<path id="Layer0_4_MEMBER_115_1_STROKES" class="st1" d="M163.9,64.8l0.2,0h0.1l0.2,0h0.1l0.1,0h0.1l0.1,0.1l0.2,0.4h0
	c-0.3,0.3-0.5,0.6-0.5,0.8l0,0.2v0.1l0,0.1l0.1,0.1h0l0.1,0.1h0l0.1,0h0.2l0.1,0v0.1c0,0.4,0.1,0.8,0.3,1.4c0.4,0.8,0.5,1.3,0.6,1.3
	l0.2,0.4l-0.3,0.1c-3.7,1.2-6.4,2-8.2,2.5l-0.1,0l0,0l0,0h-0.1l-0.3,0.2v0l-0.3,0.1l-0.2,0l-0.1,0l0.2-0.2c0.1-0.1,0.4-0.4,0.8-0.9
	l0.1-0.1c0.4-0.2,1-0.8,1.8-1.8l0.4-0.4l0.1-0.1l3.9-4.3l0.2-0.2H163.9z M157.3,72.3L157.3,72.3L157.3,72.3L157.3,72.3z"/>
<path id="Layer0_4_MEMBER_116_1_STROKES" class="st1" d="M146.9,67.3l0.7-0.5c5.3-4,9.6-7,12.7-9l0.7-0.5"/>
<path id="Layer0_4_MEMBER_117_1_STROKES" class="st1" d="M158.1,57.6l-1.6-0.9"/>
<path id="Layer0_4_MEMBER_118_1_STROKES" class="st1" d="M156.1,59.1l-1.6-0.9"/>
<path id="Layer0_4_MEMBER_119_1_STROKES" class="st1" d="M156.6,56.7l-2,1.4"/>
<path id="Layer0_4_MEMBER_120_1_STROKES" class="st1" d="M158.1,57.6l-2,1.4"/>
<path id="Layer0_4_MEMBER_121_1_STROKES" class="st1" d="M166.4,83l2.5-0.9"/>
<path id="Layer0_4_MEMBER_122_1_STROKES" class="st1" d="M152.6,58.2l4.4-3.1"/>
<path id="Layer0_4_MEMBER_123_1_STROKES" class="st1" d="M152.9,62.9l0.2-0.1c0.7-0.5,3.2-2.3,7.7-5.3l0.2-0.1"/>
<path id="Layer0_4_MEMBER_124_1_STROKES" class="st1" d="M162.7,58.3l-6.2-3.6"/>
<path id="Layer0_4_MEMBER_125_1_STROKES" class="st1" d="M167.3,65.9l-0.1-0.9c-0.2-1.2-0.7-2.3-1.4-3.4c-0.7-1.1-1.5-2-2.4-2.7
	l-0.7-0.5"/>
<path id="Layer0_4_MEMBER_126_1_STROKES" class="st1" d="M155,54.1c-0.1,0-0.3,0-0.5,0c-0.5,0-1,0.1-1.4,0.3"/>
<path id="Layer0_4_MEMBER_127_1_STROKES" class="st1" d="M156.3,54.6l-0.7-0.3l-0.6-0.2"/>
<path id="Layer0_4_MEMBER_128_1_STROKES" class="st1" d="M167.3,65.9v16.9"/>
<path id="Layer0_4_MEMBER_129_1_STROKES" class="st1" d="M180.5,55.4l-0.2,0.6l-0.1,0.7l0.1,0.6l0.3,0.4"/>
<path id="Layer0_4_MEMBER_130_1_STROKES" class="st1" d="M172,48.9l-1.6-0.9"/>
<path id="Layer0_4_MEMBER_131_1_STROKES" class="st1" d="M174,47.5l-2,1.4"/>
<path id="Layer0_4_MEMBER_132_1_STROKES" class="st1" d="M172.4,46.6l-2,1.4"/>
<path id="Layer0_4_MEMBER_133_1_STROKES" class="st1" d="M161.3,52.6l4.3,2.5"/>
<path id="Layer0_4_MEMBER_134_1_STROKES" class="st1" d="M177.9,47.9l-0.8,0.4c-2.9,1.6-6.5,3.6-10.8,6.3l-0.8,0.5"/>
<path id="Layer0_4_MEMBER_135_1_STROKES" class="st1" d="M161.3,52.6l0.5,0.2"/>
<path id="Layer0_4_MEMBER_136_1_STROKES" class="st1" d="M167.4,70.6l0.7-0.5l0.1-0.1"/>
<path id="Layer0_4_MEMBER_137_1_STROKES" class="st1" d="M181.8,45.4l-2.7,1.6"/>
<path id="Layer0_4_MEMBER_138_1_STROKES" class="st1" d="M174,47.5l-1.6-0.9"/>
<path id="Layer0_4_MEMBER_139_1_STROKES" class="st1" d="M159.2,71l-2.4,0.9l-1.3,1.1l0,0.3l0,2l0.6-0.2c1.4-0.5,2.4-0.8,2.9-1
	c0.2-0.1,0.6-0.9,1.2-2.2l0.2-0.4L159.2,71z"/>
<path id="Layer0_4_MEMBER_140_1_STROKES" class="st1" d="M164.6,64.7l-3.9,1.7l-0.2-0.9l2.4-1.9l0.3,0.2L164.6,64.7z"/>
<path class="st0" d="M157.8,54.4l-1.5-0.4l-0.5,0l-1.6,0.8l-0.6,0.5l-0.5,1L153,57l-0.3,0.2l0.4,1L152.9,77h0.1l0.7,0.5l2-1.9
	l-0.2-1l-0.4-4.2l0.2-0.5l-0.1-0.6l-0.2-2.1l0.5-6.4l0.2,0l0.1-1l8.8,5l-0.1,2.2l1.4,2.7l0.1,3.2l-0.2,0.2l0,0.3l0.3,0.7v2.2
	l-0.2,0.7l0,0.8l-0.3,2.5l-0.3,0.4l1.1,1.7l0.1,1.5l0.4,0l0.3-0.4l0.2,0.4l0.7-0.2l0.1,0l0.5,0.2v-5.2l-0.5-0.1l0-0.5l0.3-0.3
	l0.1-2.1l-0.4,0.1l0.1-0.9l0.2-0.1l0.2-2.3l-0.3-0.1l-0.2-7.8l-0.3-1.4l-0.9-2l-1.9-2.5l-1-0.8L157.8,54.4z"/>
<g>
	<path class="st0" d="M227.9,137.8l-1.6-0.9l2.8-2.4l7.9-2.5l2.3,3.4c0.4,0.6,0.9,1.1,1.4,1.4l3.3,1.9c0.7,0.4,1.3,0.4,1.7,0.1h0
		l1.3-0.8c0.4-0.2,0.7-0.7,0.8-1.5l0-13.3c0-0.7-0.2-1.5-0.7-2.3c-0.4-0.8-1-1.4-1.6-1.8l-7.8-4.5c-0.7-0.4-1.2-0.5-1.7-0.2
		l-1.9,1.1c-0.3,0.2-0.5,0.5-0.6,0.9v2.8c0,0.2,0,0.4,0,0.5c-0.1,0.8-0.5,1.5-1.1,2l-12.9,10.9v10l6.9,3.9c0.7,0.4,1.2,0.4,1.7,0.1
		l1.4-0.8l0.7,0.2v-4.4l-0.2-1C229.7,139.5,229,138.5,227.9,137.8 M225.4,139.1L225.4,139.1c0.5,0.2,0.8,0.6,1.1,1.1
		c0.3,0.6,0.5,1,0.4,1.5l-0.1,2.2c-0.9-0.6-1.4-1.4-1.4-2.4V139.1 M243.2,121.5l1.1,0.6c0.3,0.1,0.5,0.4,0.6,0.7
		c0.2,0.3,0.3,0.6,0.3,0.9c0,0.3-0.1,0.5-0.3,0.6c-0.1,0.1-0.4,0.1-0.6,0l-1.1-0.6c-0.3-0.1-0.5-0.4-0.6-0.7
		c-0.2-0.3-0.3-0.6-0.3-0.9c0-0.3,0.1-0.5,0.3-0.6C242.8,121.4,243,121.4,243.2,121.5 M234.7,116.9c0.2-0.1,0.4-0.1,0.6,0.1l1.1,0.6
		c0.3,0.1,0.5,0.4,0.7,0.7c0.4,0.8,0.4,1.3,0,1.6c-0.2,0.1-0.4,0-0.7-0.1l-1-0.6c-0.1,0-0.3-0.1-0.4-0.3c-0.1-0.1-0.2-0.3-0.3-0.4
		c-0.2-0.3-0.3-0.6-0.3-0.9C234.5,117.2,234.5,117,234.7,116.9 M241.1,131.8c0.2-0.1,0.4-0.1,0.7,0l1,0.7c0.3,0.1,0.5,0.4,0.7,0.7
		c0.1,0.3,0.2,0.6,0.2,0.9s-0.1,0.5-0.2,0.6c-0.2,0.1-0.5,0.1-0.7,0l-1-0.7c-0.2-0.1-0.4-0.3-0.7-0.7c-0.2-0.4-0.3-0.7-0.3-1
		C240.9,132.1,241,131.9,241.1,131.8 M209.5,134.3c0.1-0.1,0-0.3-0.1-0.6c-0.1-0.2-0.3-0.4-0.4-0.4c-0.3-0.3-0.6-0.4-0.9-0.2l-7,4.1
		l-0.5-0.6l-1.8,0.2l-1.1,0.6v2.3l1.7,2.1l1.8-0.1l1.1-0.6v-1.7l7-4.1c0.2-0.1,0.3-0.3,0.3-0.5C209.5,134.5,209.5,134.4,209.5,134.3
		 M213.6,129c-0.5-0.3-1-0.4-1.4-0.1c-0.4,0.2-0.5,0.7-0.5,1.3c0,0.6,0.2,1.2,0.5,1.9l0,0c0.3,0.6,0.8,1.1,1.3,1.4
		c0.5,0.3,1,0.3,1.4,0.1c0.3-0.2,0.5-0.6,0.5-1.2c0-0.6-0.2-1.2-0.5-1.9C214.6,129.8,214.1,129.3,213.6,129z"/>
	<path class="st2" d="M250.8,107c-0.7-0.4-1.2-0.4-1.6-0.2c-0.5,0.3-0.7,0.8-0.7,1.6v9.2c0,0.9,0.3,1.9,1,2.7l4.4,6.6
		c0.4,0.6,0.9,1,1.5,1.4l3.4,2c0.6,0.4,1.2,0.4,1.6,0.1c0.5-0.3,0.7-0.8,0.7-1.5v-13.3c-0.1-0.8-0.3-1.6-0.8-2.3
		c-0.5-0.8-1-1.4-1.6-1.7L250.8,107 M250.2,108.6c0.1-0.1,0.4-0.1,0.6,0.1c0.3,0.1,0.5,0.4,0.6,0.7c0.2,0.3,0.3,0.6,0.3,0.9
		c0,0.3-0.1,0.5-0.3,0.6c-0.1,0.1-0.4,0.1-0.6,0c-0.3-0.1-0.5-0.4-0.6-0.7c-0.2-0.3-0.3-0.6-0.3-0.9
		C249.9,108.9,250,108.7,250.2,108.6 M258,113.2c0.2-0.1,0.4,0,0.7,0.1c0.3,0.1,0.5,0.3,0.7,0.7c0.1,0.3,0.2,0.6,0.2,0.9
		c0,0.3-0.1,0.5-0.2,0.6c-0.2,0.1-0.4,0.1-0.7-0.1c-0.3-0.1-0.5-0.4-0.6-0.7C257.6,114,257.6,113.4,258,113.2 M256.1,123.7
		c0.2-0.1,0.4,0,0.6,0.1c0.3,0.1,0.5,0.3,0.7,0.7c0.2,0.3,0.3,0.6,0.3,0.9c0,0.3-0.1,0.5-0.3,0.6c-0.1,0.1-0.4,0.1-0.7,0
		c-0.2-0.2-0.4-0.4-0.6-0.7c-0.2-0.3-0.3-0.6-0.3-0.9C255.8,124.1,255.9,123.9,256.1,123.7 M329,61.5c-0.4,0.2-0.6,0.6-0.6,1.2
		c0,0.6,0.2,1.3,0.6,1.9c0.4,0.7,0.9,1.2,1.4,1.5c0.5,0.3,1,0.3,1.4,0c0.3-0.2,0.5-0.6,0.5-1.2c0-0.6-0.2-1.2-0.5-1.9
		c-0.4-0.7-0.9-1.1-1.4-1.4C329.9,61.3,329.4,61.3,329,61.5 M340.9,55.9c-0.5-0.3-0.9-0.3-1.2-0.1l-0.8,0.5c-0.4-0.2-0.8-0.2-1.2,0
		l-0.5,0.3c-0.4,0.2-0.6,0.7-0.6,1.3c0,0.7,0.2,1.3,0.6,2v0c0.4,0.7,0.9,1.1,1.5,1.5c0.6,0.3,1,0.4,1.4,0.1l0.5-0.3
		c0.3-0.2,0.5-0.5,0.6-1l0.8-0.5c0.4-0.2,0.5-0.6,0.5-1.1c0-0.5-0.2-1-0.5-1.6C341.7,56.5,341.3,56.2,340.9,55.9z"/>
	<path class="st3" d="M309.2,63h-4.5l-5.7,3.3l-3.6-0.6l-3.4-2l-2.2-3.8h-4.4l-1.4,0.7l-1.6-2.4l-5.7-1.6l-3.8-3.9l0.3,24.1
		c0.1,2.7-0.7,4.5-2.4,5.5l-1.3,0.8c-0.8,0.7-1.3,1.8-1.4,3.2c-0.1,1.4,0.1,2.9,0.7,4.6l0.3,0.8h0v0.1l0.4,0.8c1,2,1.6,3.8,1.8,5.5
		c0.1,1.1,0,2.1-0.1,3.1l-2.8,16.4h1.5l1.4,1.7h2.7l14.9,13.6l5.2-3.8l5,3.7l8.2-8.9l8.2-1.3v-8.4c-0.2-0.4-0.3-0.7-0.3-1.1l5.3-3.1
		c1.2-0.7,2.1-1.7,2.9-3.1c0.8-1.3,1.2-2.7,1.2-4V66.1c0-1.3-0.4-2.2-1.2-2.7c-0.8-0.5-1.8-0.4-2.9,0.3l-5.7,3.3l0.3-0.7
		c0-0.5,0.1-0.9,0.4-1.1v-8.4L309.2,63 M287.7,87c0.2-0.1,0.4-0.1,0.7,0.1c0.3,0.1,0.5,0.3,0.6,0.7c0.2,0.3,0.3,0.6,0.3,0.9
		s-0.1,0.5-0.3,0.6c-0.1,0.1-0.4,0.1-0.6,0c-0.3-0.1-0.5-0.4-0.7-0.7c-0.1-0.3-0.2-0.6-0.2-0.9C287.5,87.2,287.5,87,287.7,87
		 M271.8,85.7c0.8-0.4,1.7-0.3,2.9,0.3c1.1,0.7,2.1,1.7,2.9,3c0.8,1.4,1.2,2.8,1.2,4.1c0,0.2,0,0.4,0,0.5c-0.1,1-0.5,1.7-1.2,2.1
		c-0.7,0.4-1.4,0.4-2.3,0c-0.2-0.1-0.4-0.2-0.5-0.3c-1.1-0.7-2.1-1.7-2.9-3.1c-0.8-1.4-1.2-2.7-1.2-4C270.5,87,271,86.2,271.8,85.7
		 M295,104.3c-0.1,0.1-0.4,0.1-0.7,0c-0.2-0.2-0.4-0.4-0.6-0.7c-0.2-0.3-0.3-0.6-0.3-0.9s0.1-0.5,0.3-0.6c0.2-0.1,0.4-0.1,0.6,0
		c0.3,0.1,0.5,0.4,0.7,0.7c0.2,0.3,0.3,0.6,0.3,0.9C295.3,104,295.2,104.2,295,104.3z"/>
	<path class="st4" d="M294.3,104.3c0.3,0.1,0.5,0.1,0.7,0c0.2-0.1,0.3-0.3,0.3-0.6c0-0.3-0.1-0.6-0.3-0.9c-0.1-0.3-0.4-0.6-0.7-0.7
		c-0.2-0.1-0.4-0.2-0.6,0c-0.2,0.1-0.3,0.3-0.3,0.6s0.1,0.6,0.3,0.9C293.9,103.9,294.1,104.1,294.3,104.3 M274.7,86
		c-1.2-0.7-2.1-0.8-2.9-0.3c-0.8,0.4-1.2,1.3-1.2,2.6c0,1.3,0.4,2.6,1.2,4c0.8,1.4,1.8,2.5,2.9,3.1c0.2,0.1,0.4,0.2,0.5,0.3
		c0.9,0.4,1.7,0.4,2.3,0c0.7-0.4,1.1-1.1,1.2-2.1c0-0.2,0-0.4,0-0.5c0-1.3-0.4-2.7-1.2-4.1C276.7,87.7,275.8,86.7,274.7,86
		 M288.4,87c-0.3-0.2-0.5-0.2-0.7-0.1c-0.1,0.1-0.2,0.3-0.2,0.6c0,0.3,0.1,0.6,0.2,0.9c0.2,0.3,0.4,0.6,0.7,0.7
		c0.3,0.1,0.5,0.2,0.6,0c0.2-0.1,0.3-0.3,0.3-0.6s-0.1-0.6-0.3-0.9C288.9,87.4,288.7,87.2,288.4,87z"/>
	<path id="Layer0_5_MEMBER_1_1_STROKES" class="st5" d="M245.7,119.2l-7.8-4.5"/>
	<path id="Layer0_5_MEMBER_2_1_STROKES" class="st5" d="M248,123.2c0-0.7-0.2-1.5-0.7-2.3c-0.4-0.8-1-1.3-1.7-1.8"/>
	<path id="Layer0_5_MEMBER_3_1_STROKES" class="st5" d="M248,123.2l0,13.4"/>
	<path id="Layer0_5_MEMBER_4_1_STROKES" class="st6" d="M222.4,134.2v0.4"/>
	<path id="Layer0_5_MEMBER_5_1_STROKES" class="st6" d="M222.4,132.4c-0.4,0.4-0.6,0.8-0.6,1.1c0,0.6,0.3,1,1,1.4"/>
	<path id="Layer0_5_MEMBER_6_1_STROKES" class="st6" d="M230.3,141.8v2.8"/>
	<path id="Layer0_5_MEMBER_7_1_STROKES" class="st6" d="M229.8,145.7L229.8,145.7L229.8,145.7L229.8,145.7L229.8,145.7l0.1-0.1v0h0
		v0"/>
	<path id="Layer0_5_MEMBER_8_1_STROKES" class="st6" d="M228,137.9l-5.2-3"/>
	<path id="Layer0_5_MEMBER_9_1_STROKES" class="st6" d="M230.1,140.8c-0.4-1.2-1-2.2-2.1-2.9"/>
	<path id="Layer0_5_MEMBER_10_1_STROKES" class="st6" d="M225.4,141.5c0.1,1,0.5,1.8,1.4,2.4"/>
	<path id="Layer0_5_MEMBER_11_1_STROKES" class="st6" d="M225.4,139.2v2.2"/>
	<path id="Layer0_5_MEMBER_12_1_STROKES" class="st6" d="M229.6,145.9l-1.4,0.8"/>
	<path id="Layer0_5_MEMBER_13_1_STROKES" class="st6" d="M228.9,142.6v2.8"/>
	<path id="Layer0_5_MEMBER_14_1_STROKES" class="st6" d="M226.6,146.6c0.7,0.4,1.2,0.4,1.7,0.1c0.4-0.3,0.7-0.7,0.7-1.3"/>
	<path id="Layer0_5_MEMBER_15_1_STROKES" class="st6" d="M226.6,146.6l-6.9-4"/>
	<path id="Layer0_5_MEMBER_16_1_STROKES" class="st5" d="M219.7,134.7v7.9"/>
	<path id="Layer0_5_MEMBER_17_1_STROKES" class="st6" d="M226.6,138.7l-6.9-4"/>
	<path id="Layer0_5_MEMBER_18_1_STROKES" class="st6" d="M228.9,142.6c-0.1-0.7-0.3-1.4-0.7-2.1c-0.5-0.8-1-1.4-1.7-1.8"/>
	<path id="Layer0_5_MEMBER_19_1_STROKES" class="st6" d="M227,141.8v2.2"/>
	<path id="Layer0_5_MEMBER_20_1_STROKES" class="st6" d="M224,142.2c0,0.5,0.1,1,0.4,1.5c0.3,0.5,0.7,0.9,1.1,1.1
		c0.4,0.2,0.7,0.3,1,0.1c0.3-0.1,0.4-0.5,0.4-1"/>
	<path id="Layer0_5_MEMBER_21_1_STROKES" class="st6" d="M224,140.1v2.2"/>
	<path id="Layer0_5_MEMBER_22_1_STROKES" class="st6" d="M227,141.8c0-0.4-0.2-0.9-0.5-1.5c-0.3-0.5-0.7-0.9-1.1-1.1
		c-0.4-0.2-0.8-0.3-1.1-0.1c-0.3,0.2-0.4,0.5-0.4,1"/>
	<path id="Layer0_5_MEMBER_23_1_STROKES" class="st6" d="M219.7,142.6v-2.1"/>
	<path id="Layer0_5_MEMBER_24_1_STROKES" class="st6" d="M219.7,132.7v7.9"/>
	<path id="Layer0_5_MEMBER_25_1_STROKES" class="st6" d="M219.7,134.7v-2.1"/>
	<path id="Layer0_5_MEMBER_26_1_STROKES" class="st6" d="M233.7,116.4v2.8"/>
	<path id="Layer0_5_MEMBER_27_1_STROKES" class="st6" d="M232.6,121.8c0.7-0.7,1.1-1.5,1.1-2.4"/>
	<path id="Layer0_5_MEMBER_28_1_STROKES" class="st6" d="M232.6,121.9l-12.9,10.8"/>
	<path id="Layer0_5_MEMBER_29_1_STROKES" class="st6" d="M236.2,114.5l-1.9,1.1"/>
	<path id="Layer0_5_MEMBER_30_1_STROKES" class="st6" d="M247.4,138.1l-1.4,0.8"/>
	<path id="Layer0_5_MEMBER_31_1_STROKES" class="st6" d="M246.7,133.9c-0.1-0.4-0.2-0.7-0.4-0.9"/>
	<path id="Layer0_5_MEMBER_32_1_STROKES" class="st6" d="M246.7,137.4v-3.4"/>
	<path id="Layer0_5_MEMBER_33_1_STROKES" class="st6" d="M232.9,125.4l-10.5,8.8"/>
	<path id="Layer0_5_MEMBER_34_1_STROKES" class="st6" d="M237.9,125.1c-0.7-0.4-1.5-0.5-2.5-0.5c-1,0-1.8,0.3-2.4,0.7"/>
	<path id="Layer0_5_MEMBER_35_1_STROKES" class="st6" d="M238,125.1v-3.4"/>
	<path id="Layer0_5_MEMBER_36_1_STROKES" class="st6" d="M245.9,129.7l-8-4.6"/>
	<path id="Layer0_5_MEMBER_37_1_STROKES" class="st6" d="M244.3,138.7c0.7,0.4,1.2,0.4,1.7,0.1c0.5-0.3,0.7-0.8,0.7-1.5"/>
	<path id="Layer0_5_MEMBER_38_1_STROKES" class="st6" d="M241,136.8l3.3,1.9"/>
	<path id="Layer0_5_MEMBER_39_1_STROKES" class="st6" d="M239.6,135.5c0.4,0.6,0.9,1.1,1.4,1.3"/>
	<path id="Layer0_5_MEMBER_40_1_STROKES" class="st6" d="M237.2,132l2.3,3.4"/>
	<path id="Layer0_5_MEMBER_41_1_STROKES" class="st6" d="M234.4,122.9l0.2,0c0.6-0.1,1.4-0.4,2.4-0.8h0.1l0,0l0.4-0.1h0.1l0,0h0.1
		l0,0"/>
	<path id="Layer0_5_MEMBER_42_1_STROKES" class="st6" d="M226.4,137l2.9-2.4"/>
	<path id="Layer0_5_MEMBER_43_1_STROKES" class="st6" d="M232.9,123.6l-10.5,8.8"/>
	<path id="Layer0_5_MEMBER_44_1_STROKES" class="st6" d="M234.3,122.9c-0.7,0.2-1.1,0.4-1.4,0.7"/>
	<path id="Layer0_5_MEMBER_45_1_STROKES" class="st6" d="M235.4,117.1c-0.2-0.1-0.4-0.1-0.6,0c-0.2,0.1-0.2,0.3-0.2,0.6
		c0,0.3,0.1,0.6,0.2,0.9c0.2,0.3,0.4,0.5,0.7,0.7"/>
	<path id="Layer0_5_MEMBER_46_1_STROKES" class="st6" d="M235.5,119.2l1,0.6"/>
	<path id="Layer0_5_MEMBER_47_1_STROKES" class="st6" d="M236.5,119.8c0.3,0.2,0.5,0.2,0.7,0.1c0.4-0.3,0.4-0.8,0-1.6
		c-0.2-0.3-0.4-0.5-0.7-0.7"/>
	<path id="Layer0_5_MEMBER_48_1_STROKES" class="st6" d="M235.5,117.1l1,0.6"/>
	<path id="Layer0_5_MEMBER_49_1_STROKES" class="st6" d="M244.4,124.3c0.3,0.2,0.5,0.2,0.6,0.1c0.2-0.1,0.3-0.3,0.3-0.6
		c0-0.3-0.1-0.6-0.3-0.9c-0.1-0.3-0.3-0.5-0.6-0.7"/>
	<path id="Layer0_5_MEMBER_50_1_STROKES" class="st6" d="M244.4,122.2l-1.1-0.6"/>
	<path id="Layer0_5_MEMBER_51_1_STROKES" class="st6" d="M243.3,121.6c-0.3-0.2-0.5-0.2-0.6-0.1c-0.2,0.1-0.3,0.3-0.3,0.6
		c0,0.3,0.1,0.6,0.3,0.9c0.1,0.3,0.3,0.6,0.6,0.7"/>
	<path id="Layer0_5_MEMBER_52_1_STROKES" class="st6" d="M244.4,124.3l-1.1-0.6"/>
	<path id="Layer0_5_MEMBER_53_1_STROKES" class="st6" d="M245.9,122.9c-0.5-1.2-1.1-2-2-2.6"/>
	<path id="Layer0_5_MEMBER_54_1_STROKES" class="st6" d="M236,115.7l7.9,4.5"/>
	<path id="Layer0_5_MEMBER_55_1_STROKES" class="st6" d="M236,115.7c-0.6-0.4-1.2-0.5-1.7-0.2c-0.3,0.2-0.5,0.5-0.6,0.8"/>
	<path id="Layer0_5_MEMBER_56_1_STROKES" class="st6" d="M222.4,134.2l1,0.3"/>
	<path id="Layer0_5_MEMBER_57_1_STROKES" class="st6" d="M226.7,134.2l11.4-3.5"/>
	<path id="Layer0_5_MEMBER_58_1_STROKES" class="st6" d="M223.6,134.6c0.7,0.1,1.7,0,3-0.3"/>
	<path id="Layer0_5_MEMBER_59_1_STROKES" class="st6" d="M226.7,135.4c-0.3,0.1-0.9,0.3-1.7,0.7"/>
	<path id="Layer0_5_MEMBER_60_1_STROKES" class="st6" d="M226.7,135.3l11.4-3.5"/>
	<path id="Layer0_5_MEMBER_61_1_STROKES" class="st6" d="M241.1,130.2c-1.2,0.1-2.2,0.2-3,0.4"/>
	<path id="Layer0_5_MEMBER_62_1_STROKES" class="st6" d="M241.1,130.2h0.3c1,0,2.4-0.2,4.3-0.5"/>
	<path id="Layer0_5_MEMBER_63_1_STROKES" class="st6" d="M242.4,131.4c0.8,0.1,1.9,0.6,3.4,1.4"/>
	<path id="Layer0_5_MEMBER_64_1_STROKES" class="st6" d="M242.1,131.3c-1.3-0.1-2.6,0-3.9,0.4"/>
	<path id="Layer0_5_MEMBER_65_1_STROKES" class="st6" d="M246.2,124.3c0-0.4-0.1-0.8-0.2-1.3"/>
	<path id="Layer0_5_MEMBER_66_1_STROKES" class="st6" d="M246.2,133v-8.7"/>
	<path id="Layer0_5_MEMBER_67_1_STROKES" class="st5" d="M245.9,132.9l0.2,0.1"/>
	<path id="Layer0_5_MEMBER_68_1_STROKES" class="st6" d="M241.9,131.9c-0.2-0.1-0.5-0.1-0.7,0c-0.2,0.1-0.2,0.3-0.2,0.6
		c0,0.3,0.1,0.6,0.2,0.9c0.3,0.4,0.5,0.6,0.7,0.7"/>
	<path id="Layer0_5_MEMBER_69_1_STROKES" class="st6" d="M241.9,131.9l1,0.6"/>
	<path id="Layer0_5_MEMBER_70_1_STROKES" class="st6" d="M242.9,134.7c0.2,0.1,0.5,0.1,0.7,0c0.2-0.1,0.2-0.3,0.2-0.6
		c0-0.3-0.1-0.6-0.2-0.9c-0.2-0.3-0.4-0.5-0.7-0.7"/>
	<path id="Layer0_5_MEMBER_71_1_STROKES" class="st6" d="M241.9,134l1,0.6"/>
	<path id="Layer0_5_MEMBER_72_1_STROKES" class="st6" d="M237.8,114.6c-0.6-0.3-1.1-0.4-1.6-0.1"/>
	<path id="Layer0_5_MEMBER_73_1_STROKES" class="st6" d="M245.7,119.2l-7.8-4.5"/>
	<path id="Layer0_5_MEMBER_74_1_STROKES" class="st6" d="M248,123.2c0-0.7-0.2-1.5-0.7-2.3c-0.4-0.8-1-1.3-1.7-1.8"/>
	<path id="Layer0_5_MEMBER_75_1_STROKES" class="st6" d="M248,123.2l0,13.4"/>
	<path id="Layer0_5_MEMBER_76_1_STROKES" class="st6" d="M247.4,138.1c0.4-0.2,0.6-0.7,0.7-1.4"/>
	<path id="Layer0_5_MEMBER_77_1_STROKES" class="st6" d="M259.4,115.5c0.2-0.1,0.2-0.3,0.2-0.6c0-0.3-0.1-0.6-0.2-0.9
		s-0.4-0.6-0.6-0.7c-0.3-0.2-0.5-0.2-0.7-0.1c-0.4,0.3-0.4,0.8,0,1.6c0.2,0.3,0.4,0.5,0.6,0.7C259,115.6,259.2,115.6,259.4,115.5z"
		/>
	<path id="Layer0_5_MEMBER_78_1_STROKES" class="st6" d="M251.6,110.9c0.2-0.1,0.3-0.3,0.3-0.6c0-0.3-0.1-0.6-0.3-0.9
		c-0.2-0.3-0.4-0.5-0.6-0.6c-0.3-0.2-0.5-0.2-0.6-0.1c-0.2,0.1-0.3,0.3-0.3,0.6c0,0.3,0.1,0.6,0.3,0.9c0.2,0.3,0.4,0.6,0.6,0.7
		C251.2,111,251.4,111.1,251.6,110.9z"/>
	<path id="Layer0_5_MEMBER_79_1_STROKES" class="st6" d="M258.8,130.4c0.6,0.4,1.2,0.4,1.7,0.1c0.5-0.3,0.7-0.8,0.7-1.5"/>
	<path id="Layer0_5_MEMBER_80_1_STROKES" class="st6" d="M261.1,115.7V129"/>
	<path id="Layer0_5_MEMBER_81_1_STROKES" class="st6" d="M261.1,115.7c-0.1-0.8-0.3-1.6-0.7-2.3c-0.5-0.8-1-1.4-1.7-1.7"/>
	<path id="Layer0_5_MEMBER_82_1_STROKES" class="st6" d="M258.8,111.6l-7.9-4.5"/>
	<path id="Layer0_5_MEMBER_83_1_STROKES" class="st6" d="M250.9,107.1c-0.7-0.4-1.2-0.5-1.7-0.2c-0.5,0.3-0.7,0.8-0.7,1.6"/>
	<path id="Layer0_5_MEMBER_84_1_STROKES" class="st6" d="M248.5,117.7v-9.3"/>
	<path id="Layer0_5_MEMBER_85_1_STROKES" class="st6" d="M248.5,117.8c0,0.9,0.3,1.8,1,2.6"/>
	<path id="Layer0_5_MEMBER_86_1_STROKES" class="st6" d="M254,127.1l-4.4-6.5"/>
	<path id="Layer0_5_MEMBER_87_1_STROKES" class="st6" d="M254,127.1c0.4,0.6,0.8,1,1.4,1.3"/>
	<path id="Layer0_5_MEMBER_88_1_STROKES" class="st6" d="M258.8,130.4l-3.3-1.9"/>
	<path id="Layer0_5_MEMBER_89_1_STROKES" class="st6" d="M257.4,126.1c0.2-0.1,0.3-0.3,0.3-0.6c0-0.3-0.1-0.6-0.3-0.9
		c-0.2-0.3-0.4-0.6-0.6-0.7c-0.3-0.2-0.5-0.2-0.6-0.1c-0.2,0.1-0.3,0.3-0.3,0.6c0,0.3,0.1,0.6,0.3,0.9c0.2,0.3,0.4,0.5,0.6,0.7
		C257.1,126.2,257.3,126.2,257.4,126.1z"/>
	<path id="Layer0_5_MEMBER_90_1_STROKES" class="st6" d="M202.3,139.3l7-4.1"/>
	<path id="Layer0_5_MEMBER_91_1_STROKES" class="st6" d="M201.1,137.1l7-4.1"/>
	<path id="Layer0_5_MEMBER_92_1_STROKES" class="st6" d="M209.4,135.2c0.2-0.1,0.2-0.3,0.2-0.5c0-0.3-0.1-0.6-0.2-0.9
		c-0.4-0.7-0.8-1-1.2-0.7"/>
	<path id="Layer0_5_MEMBER_93_1_STROKES" class="st6" d="M209.6,134.3c0.1-0.2,0-0.4-0.1-0.6c-0.1-0.2-0.3-0.4-0.4-0.4"/>
	<path id="Layer0_5_MEMBER_94_1_STROKES" class="st6" d="M202.3,141l-1.1,0.6"/>
	<path id="Layer0_5_MEMBER_95_1_STROKES" class="st6" d="M202.3,138.7l-1.1,0.6"/>
	<path id="Layer0_5_MEMBER_96_1_STROKES" class="st6" d="M200.6,136.5l-1.1,0.6"/>
	<path id="Layer0_5_MEMBER_97_1_STROKES" class="st6" d="M198.8,136.7l-1.1,0.6"/>
	<path id="Layer0_5_MEMBER_98_1_STROKES" class="st6" d="M199.5,141.8l-1.8-2.2"/>
	<path id="Layer0_5_MEMBER_99_1_STROKES" class="st6" d="M201.2,141.7l-1.7,0.1"/>
	<path id="Layer0_5_MEMBER_100_1_STROKES" class="st6" d="M201.2,139.3v2.3"/>
	<path id="Layer0_5_MEMBER_101_1_STROKES" class="st6" d="M197.7,139.7v-2.3"/>
	<path id="Layer0_5_MEMBER_102_1_STROKES" class="st6" d="M202.3,138.7v2.3"/>
	<path id="Layer0_5_MEMBER_103_1_STROKES" class="st6" d="M200.6,136.5l1.7,2.2"/>
	<path id="Layer0_5_MEMBER_104_1_STROKES" class="st6" d="M198.8,136.7l1.8-0.1"/>
	<path id="Layer0_5_MEMBER_105_1_STROKES" class="st6" d="M199.5,137.2l1.7,2.2"/>
	<path id="Layer0_5_MEMBER_106_1_STROKES" class="st6" d="M337.3,56.6c-0.4,0.3-0.6,0.7-0.6,1.3c0,0.7,0.2,1.3,0.6,2
		s0.9,1.2,1.5,1.5c0.6,0.3,1,0.4,1.4,0.1"/>
	<path id="Layer0_5_MEMBER_107_1_STROKES" class="st6" d="M340.7,61.3c0.4-0.2,0.6-0.7,0.6-1.3c0-0.7-0.2-1.3-0.6-2.1
		c-0.4-0.7-0.9-1.2-1.5-1.5c-0.6-0.3-1-0.3-1.4-0.1"/>
	<path id="Layer0_5_MEMBER_108_1_STROKES" class="st6" d="M340.7,61.3l-0.4,0.2"/>
	<path id="Layer0_5_MEMBER_109_1_STROKES" class="st6" d="M337.8,56.4l-0.5,0.2"/>
	<path id="Layer0_5_MEMBER_110_1_STROKES" class="st6" d="M339.4,60.2c0.2-0.1,0.2-0.3,0.2-0.6s-0.1-0.6-0.2-0.9
		c-0.2-0.3-0.4-0.5-0.6-0.6c-0.3-0.2-0.5-0.2-0.7-0.1c-0.2,0.2-0.3,0.5-0.2,0.9"/>
	<path id="Layer0_5_MEMBER_111_1_STROKES" class="st6" d="M339.1,60.3L339.1,60.3L339.1,60.3"/>
	<path id="Layer0_5_MEMBER_112_1_STROKES" class="st6" d="M342.1,59.8c0.3-0.2,0.5-0.6,0.5-1.1c0-0.5-0.2-1-0.5-1.6
		c-0.3-0.5-0.7-0.9-1.1-1.2c-0.5-0.3-0.8-0.3-1.2-0.1"/>
	<path id="Layer0_5_MEMBER_113_1_STROKES" class="st6" d="M341.3,60.3l0.9-0.5"/>
	<path id="Layer0_5_MEMBER_114_1_STROKES" class="st6" d="M338.9,56.4l0.9-0.5"/>
	<path id="Layer0_5_MEMBER_115_1_STROKES" class="st6" d="M340.6,57.7l1.1-0.6"/>
	<path id="Layer0_5_MEMBER_116_1_STROKES" class="st6" d="M207.8,136.1c0.2-0.1,0.2-0.3,0.2-0.6s-0.1-0.6-0.2-0.9
		c-0.4-0.7-0.8-1-1.2-0.7"/>
	<path id="Layer0_5_MEMBER_117_1_STROKES" class="st6" d="M206.2,137c0.2-0.1,0.3-0.3,0.3-0.5c0-0.3-0.1-0.6-0.2-0.9
		c-0.2-0.3-0.4-0.5-0.6-0.7c-0.3-0.1-0.5-0.1-0.6,0"/>
	<path id="Layer0_5_MEMBER_118_1_STROKES" class="st6" d="M204.7,138c0.2-0.1,0.2-0.3,0.2-0.6c0-0.3-0.1-0.6-0.2-0.9
		c-0.2-0.3-0.4-0.5-0.6-0.6c-0.3-0.2-0.5-0.2-0.6-0.1"/>
	<path id="Layer0_5_MEMBER_119_1_STROKES" class="st6" d="M331.9,66.2c0.4-0.2,0.5-0.7,0.5-1.3c0-0.6-0.2-1.2-0.5-1.9
		c-0.4-0.7-0.8-1.1-1.4-1.4c-0.6-0.3-1-0.4-1.4-0.1c-0.4,0.2-0.6,0.6-0.6,1.2c0,0.6,0.2,1.3,0.6,1.9c0.4,0.7,0.8,1.1,1.4,1.5
		C331,66.4,331.5,66.5,331.9,66.2z"/>
	<path id="Layer0_5_MEMBER_120_1_STROKES" class="st7" d="M331.1,65c0.4-0.2,0.4-0.7,0-1.5c-0.4-0.7-0.8-0.9-1.3-0.7
		c-0.1,0-0.1,0.1-0.2,0.3"/>
	<path id="Layer0_5_MEMBER_121_1_STROKES" class="st6" d="M215,133.6c0.4-0.2,0.5-0.6,0.5-1.2c0-0.6-0.2-1.3-0.5-1.9
		c-0.4-0.7-0.8-1.1-1.4-1.4c-0.5-0.3-1-0.4-1.4-0.1c-0.4,0.2-0.5,0.7-0.5,1.3c0,0.6,0.2,1.2,0.5,1.9c0.4,0.7,0.8,1.1,1.4,1.5
		C214.2,133.8,214.6,133.9,215,133.6z"/>
	<path id="Layer0_5_MEMBER_122_1_STROKES" class="st7" d="M214.3,132.4c0.2-0.1,0.2-0.3,0.2-0.6c0-0.3-0.1-0.6-0.2-0.9
		c-0.2-0.3-0.4-0.5-0.6-0.6c-0.3-0.2-0.5-0.2-0.6-0.1c-0.1,0-0.1,0.1-0.2,0.3"/>
	<path id="Layer0_5_MEMBER_123_1_STROKES" class="st7" d="M293.6,86.1c-0.3-1.1-0.5-1.9-0.7-2.5"/>
	<path id="Layer0_5_MEMBER_124_1_STROKES" class="st7" d="M289.2,82.1l-0.2-0.6v0l0-0.1l-0.2-0.5"/>
	<path id="Layer0_5_MEMBER_125_1_STROKES" class="st7" d="M292.9,80.7l2.6-2.7"/>
	<path id="Layer0_5_MEMBER_126_1_STROKES" class="st7" d="M292.7,83.3c-0.4-1-0.4-1.8,0-2.4"/>
	<path id="Layer0_5_MEMBER_127_1_STROKES" class="st7" d="M289.3,82.3c0.3,0.9,0.9,1.7,1.7,2.3"/>
	<path id="Layer0_5_MEMBER_128_1_STROKES" class="st7" d="M293.6,86.2l1.9,1.1"/>
	<path id="Layer0_5_MEMBER_129_1_STROKES" class="st7" d="M291.1,84.7l2.5,1.5"/>
	<path id="Layer0_5_MEMBER_130_1_STROKES" class="st7" d="M292.2,69.6c0,0.5,0.1,0.8,0.2,1.1"/>
	<path id="Layer0_5_MEMBER_131_1_STROKES" class="st7" d="M292.1,63.8l0.1,5.7"/>
	<path id="Layer0_5_MEMBER_132_1_STROKES" class="st7" d="M315.5,65.3v-8.3"/>
	<path id="Layer0_5_MEMBER_133_1_STROKES" class="st7" d="M285.1,124.7l2.3-13"/>
	<path id="Layer0_5_MEMBER_134_1_STROKES" class="st7" d="M299.1,74.8c-0.3,0.2-0.4,0.6-0.4,1.1"/>
	<path id="Layer0_5_MEMBER_135_1_STROKES" class="st7" d="M299.1,66.4v8.3"/>
	<path id="Layer0_5_MEMBER_136_1_STROKES" class="st7" d="M273.3,76.9L273,52.8"/>
	<path id="Layer0_5_MEMBER_137_1_STROKES" class="st7" d="M270.5,82.5l0.4-0.2c1.7-1,2.5-2.8,2.4-5.5"/>
	<path id="Layer0_5_MEMBER_138_1_STROKES" class="st7" d="M270.2,82.6L270.2,82.6L270.2,82.6L270.2,82.6l-0.2,0.1v0h0v0h0l0,0h0v0h0
		l-0.2,0.1"/>
	<path id="Layer0_5_MEMBER_139_1_STROKES" class="st7" d="M269.5,83.1c-0.8,0.7-1.2,1.8-1.3,3.2c-0.1,1.4,0.1,2.9,0.7,4.6"/>
	<path id="Layer0_5_MEMBER_140_1_STROKES" class="st7" d="M268.9,90.9l0.3,0.7l0,0v0l0.3,0.7"/>
	<path id="Layer0_5_MEMBER_141_1_STROKES" class="st7" d="M271.3,101.1c0.5-2.5-0.1-5.4-1.7-8.6"/>
	<path id="Layer0_5_MEMBER_142_1_STROKES" class="st7" d="M268.4,117.5l2.9-16.3"/>
	<path id="Layer0_5_MEMBER_143_1_STROKES" class="st7" d="M299.1,123.6v9.1"/>
	<path id="Layer0_5_MEMBER_144_1_STROKES" class="st7" d="M298.7,122c0,0.6,0.1,1.1,0.4,1.5"/>
	<path id="Layer0_5_MEMBER_145_1_STROKES" class="st7" d="M295.5,92.8V77.9"/>
	<path id="Layer0_5_MEMBER_146_1_STROKES" class="st7" d="M295.5,77.9c0-0.7-0.2-1.4-0.6-2.1c-0.4-0.7-0.9-1.2-1.5-1.6
		c-0.6-0.3-1.1-0.4-1.5-0.1l-0.2,0.1"/>
	<path id="Layer0_5_MEMBER_147_1_STROKES" class="st7" d="M281.7,84.7l0.8-0.9"/>
	<path id="Layer0_5_MEMBER_148_1_STROKES" class="st7" d="M281.6,84.7c-0.2,0.3-0.3,0.6-0.3,1.1"/>
	<path id="Layer0_5_MEMBER_149_1_STROKES" class="st7" d="M281.3,85.9v11"/>
	<path id="Layer0_5_MEMBER_150_1_STROKES" class="st7" d="M292,117c0.4,0.7,0.9,1.1,1.5,1.5c0.6,0.3,1,0.3,1.4,0.1
		c0.4-0.3,0.6-0.7,0.6-1.4"/>
	<path id="Layer0_5_MEMBER_151_1_STROKES" class="st7" d="M295.5,117.2V92.8"/>
	<path id="Layer0_5_MEMBER_152_1_STROKES" class="st7" d="M295.5,67v-1.3"/>
	<path id="Layer0_5_MEMBER_153_1_STROKES" class="st7" d="M295.1,68.2l0.2-0.4v-0.1l0.1-0.5"/>
	<path id="Layer0_5_MEMBER_154_1_STROKES" class="st7" d="M280.6,83.5l14.5-15.3"/>
	<path id="Layer0_5_MEMBER_155_1_STROKES" class="st7" d="M275.8,79c0.1,0.9,0.3,1.7,0.8,2.5c0.5,0.9,1.1,1.6,1.9,2
		c0.7,0.4,1.3,0.5,1.9,0.2l0.2-0.2"/>
	<path id="Layer0_5_MEMBER_156_1_STROKES" class="st7" d="M293.9,122l-10.2-16.2"/>
	<path id="Layer0_5_MEMBER_157_1_STROKES" class="st7" d="M283.6,106.1c-0.2-0.4-0.4-0.9-0.7-1.3c-1-1.8-2.2-3.1-3.6-3.9
		s-2.6-0.9-3.7-0.3c-0.8,0.4-1.2,1.2-1.4,2.3"/>
	<path id="Layer0_5_MEMBER_158_1_STROKES" class="st7" d="M271.3,119.2l2.8-16.3"/>
	<path id="Layer0_5_MEMBER_159_1_STROKES" class="st7" d="M294.1,129c0.8-0.5,1.2-1.3,1.2-2.6c0-1.3-0.4-2.7-1.2-4.1l-0.2-0.3"/>
	<path id="Layer0_5_MEMBER_160_1_STROKES" class="st7" d="M277.6,95.8c0.8-0.5,1.2-1.3,1.2-2.6s-0.4-2.7-1.2-4.1
		c-0.8-1.4-1.8-2.4-2.9-3c-1.1-0.7-2.1-0.8-2.9-0.3c-0.8,0.5-1.2,1.3-1.2,2.6s0.4,2.6,1.2,4c0.8,1.4,1.8,2.4,2.9,3.1
		C275.9,96.2,276.8,96.3,277.6,95.8z"/>
	<path id="Layer0_5_MEMBER_161_1_STROKES" class="st7" d="M315.4,65.3c-0.2,0.2-0.3,0.6-0.3,1.1"/>
	<path id="Layer0_5_MEMBER_162_1_STROKES" class="st7" d="M315.1,113c0,0.4,0.1,0.7,0.3,1.1"/>
	<path id="Layer0_5_MEMBER_163_1_STROKES" class="st7" d="M315.5,123.2v-9.1"/>
	<path id="Layer0_5_MEMBER_164_1_STROKES" class="st7" d="M285.5,125.6l0.2,0.4c0.4,0.7,0.9,1.2,1.5,1.6c0.6,0.3,1,0.4,1.5,0.2"/>
	<path id="Layer0_5_MEMBER_165_1_STROKES" class="st7" d="M285.5,125.5c-0.5-1.1-1.2-2-2.2-2.6"/>
	<path id="Layer0_5_MEMBER_166_1_STROKES" class="st7" d="M281.3,118.8c-0.1,0.8,0.1,1.7,0.6,2.5c0.4,0.7,0.8,1.1,1.4,1.5"/>
	<path id="Layer0_5_MEMBER_167_1_STROKES" class="st7" d="M283.6,105.8l-2.3,13"/>
	<path id="Layer0_5_MEMBER_168_1_STROKES" class="st7" d="M287.3,97.7l8.2,13"/>
	<path id="Layer0_5_MEMBER_169_1_STROKES" class="st7" d="M295,124.7l-6.3,3.1"/>
	<path id="Layer0_5_MEMBER_170_1_STROKES" class="st7" d="M278.7,123.5l3.5-19.8"/>
	<path id="Layer0_5_MEMBER_171_1_STROKES" class="st7" d="M284.6,79.1c-1.2-1.1-1.9-2.3-2-3.8l-0.2-17"/>
	<path id="Layer0_5_MEMBER_172_1_STROKES" class="st7" d="M285.6,70.4c0,0.7,0.2,1.3,0.6,2c0.4,0.7,0.9,1.2,1.4,1.5
		c0.6,0.3,1,0.4,1.5,0.1l0.2-0.1"/>
	<path id="Layer0_5_MEMBER_173_1_STROKES" class="st7" d="M285.6,70.4L285.4,60"/>
	<path id="Layer0_5_MEMBER_174_1_STROKES" class="st7" d="M295.5,89.5l-9.5-5.5"/>
	<path id="Layer0_5_MEMBER_175_1_STROKES" class="st7" d="M299.1,121.2c0.1,0.7,0.4,0.8,0.9,0.5"/>
	<path id="Layer0_5_MEMBER_176_1_STROKES" class="st7" d="M320.4,109.9L300,121.7"/>
	<path id="Layer0_5_MEMBER_177_1_STROKES" class="st7" d="M320.4,109.9c1.1-0.7,2.1-1.7,2.9-3.1c0.8-1.3,1.2-2.6,1.2-4"/>
	<path id="Layer0_5_MEMBER_178_1_STROKES" class="st7" d="M324.5,102.8V66.1"/>
	<path id="Layer0_5_MEMBER_179_1_STROKES" class="st7" d="M324.5,66.1c0-1.3-0.4-2.2-1.2-2.6c-0.8-0.5-1.8-0.4-2.9,0.3"/>
	<path id="Layer0_5_MEMBER_180_1_STROKES" class="st7" d="M320.4,63.8L300,75.5l0,0c-0.6,0.3-0.9,0.8-0.9,1.6"/>
	<path id="Layer0_5_MEMBER_181_1_STROKES" class="st7" d="M299.1,121.1V77.3"/>
	<path id="Layer0_5_MEMBER_182_1_STROKES" class="st7" d="M318.8,98.6c-0.8,0.5-1.5,1.2-2,2.1c-0.5,0.9-0.8,1.9-0.8,2.8
		c0,0.9,0.3,1.5,0.8,1.9c0.6,0.3,1.2,0.2,2-0.2"/>
	<path id="Layer0_5_MEMBER_183_1_STROKES" class="st7" d="M321.6,100.2c0-0.9-0.3-1.5-0.8-1.8c-0.6-0.3-1.2-0.2-2,0.2"/>
	<path id="Layer0_5_MEMBER_184_1_STROKES" class="st7" d="M318.8,70.5c-0.8,0.5-1.5,1.2-2,2.1c-0.6,0.9-0.8,1.9-0.8,2.8
		c0,0.9,0.3,1.5,0.8,1.8c0.5,0.4,1.1,0.3,2-0.2"/>
	<path id="Layer0_5_MEMBER_185_1_STROKES" class="st7" d="M321.6,72.1c0-0.9-0.3-1.5-0.8-1.8c-0.5-0.3-1.2-0.3-2,0.2"/>
	<path id="Layer0_5_MEMBER_186_1_STROKES" class="st7" d="M289.1,89.3c0.2-0.1,0.3-0.3,0.3-0.6s-0.1-0.6-0.3-0.9
		c-0.2-0.3-0.4-0.6-0.6-0.7c-0.3-0.2-0.5-0.2-0.7-0.1c-0.2,0.1-0.2,0.3-0.2,0.6c0,0.3,0.1,0.6,0.2,0.9c0.2,0.3,0.4,0.6,0.7,0.7
		C288.7,89.4,289,89.4,289.1,89.3z"/>
	<path id="Layer0_5_MEMBER_187_1_STROKES" class="st7" d="M295,104.4c0.2-0.1,0.3-0.3,0.3-0.6c0-0.3-0.1-0.6-0.3-0.9
		c-0.2-0.3-0.4-0.6-0.6-0.7c-0.3-0.2-0.5-0.2-0.6,0c-0.2,0.1-0.3,0.3-0.3,0.6c0,0.3,0.1,0.6,0.3,0.9c0.2,0.3,0.4,0.5,0.6,0.7
		C294.7,104.5,294.9,104.5,295,104.4z"/>
	<path id="Layer0_5_MEMBER_188_1_STROKES" class="st7" d="M282.3,101.7L292,117"/>
	<path id="Layer0_5_MEMBER_189_1_STROKES" class="st7" d="M281.3,96.9l0.2,1.7l0.8,3"/>
	<path id="Layer0_5_MEMBER_190_1_STROKES" class="st7" d="M250.8,109.9l-10.2,5.9"/>
	<path id="Layer0_5_MEMBER_191_1_STROKES" class="st7" d="M236,118.4l-20.7,12"/>
	<path id="Layer0_5_MEMBER_192_1_STROKES" class="st7" d="M213.6,131.3l-3.8,2.2"/>
	<path id="Layer0_5_MEMBER_193_1_STROKES" class="st7" d="M338.5,59.2l-5.6,3.2"/>
	<path id="Layer0_5_MEMBER_194_1_STROKES" class="st7" d="M330.2,64l-4.9,2.8"/>
	<path id="Layer0_5_MEMBER_195_1_STROKES" class="st7" d="M288.5,88.1L254.1,108"/>
</g>
<path class="st3" d="M46.9,64.2c0,0.3,0,0.5,0,0.8c-0.1,1.4-0.5,2.3-1.4,2.8l0.1,1.2c0.1,0.1,0.2,0.2,0.4,0.3c0.1,0,0.2,0.1,0.4,0.2
	c0.1,0,0.2,0.1,0.4,0.1c0.3,0.1,0.7,0.2,1,0.3l1-0.3c0.2,0,0.5,0,0.7,0h0l0,0c0.6-0.2,1.1-0.6,1.3-1.3l0,0v0.6
	c0.1-0.2,0.3-0.5,0.4-0.8c0.1-0.3,0.2-0.6,0.2-0.9l1.8-0.5c0.1,0.1,0.1,0.3,0.2,0.4l0.2,0.2c0.1,0.1,0.3,0.2,0.5,0.3
	c0,0,0.1,0,0.2,0.1c0.1,0,0.3,0.1,0.4,0.2c0.3,0.1,0.7,0.2,1,0.3l1.7-0.5c0.3,0,0.5-0.1,0.8-0.3c0.3-0.2,0.5-0.6,0.6-1l0,0
	c-0.2,0.6-0.5,1-0.8,1.2c0.5-0.2,0.9-0.7,1.2-1.3c0.1-0.3,0.2-0.6,0.2-0.9l3.7-1.1c0-0.2,0-0.3-0.1-0.5c-0.1-0.5-0.4-0.8-0.7-1
	l-1.9-0.8l-1.8,0.5c0,0,0,0,0,0c-0.2-0.2-0.4-0.5-0.6-0.7c-0.5-0.5-1.1-0.6-1.6-0.5c0.4,0,0.9,0.2,1.3,0.6v0.1
	c-0.4-0.3-0.8-0.5-1.3-0.5c-0.2,0-0.4,0-0.5,0.1l-1.7,0.5l-0.6,0.5c-0.1,0.1-0.1,0.2-0.2,0.3l0,0c0,0,0,0.1-0.1,0.1L53.1,63
	c-0.1,0.1-0.1,0.2-0.2,0.3c0,0-0.1,0.1-0.1,0.1l-2.3,0.8c-0.2-0.3-0.4-0.5-0.7-0.7c-0.2-0.1-0.3-0.2-0.5-0.3l0.1,0.4l0,0v0l0,0
	c-0.6-0.5-1.2-0.6-1.8-0.5v0l-0.2,0.2L46.9,64.2 M48.1,69.1c0-0.1,0.1-0.1,0.1-0.2c0,0,0,0,0.1-0.1C48.3,68.9,48.2,69,48.1,69.1
	 M56.2,67.1c0-0.1,0.1-0.1,0.2-0.2c-0.1,0.2-0.2,0.4-0.4,0.5C56.1,67.2,56.2,67.1,56.2,67.1 M53.4,33.6c-0.2,0-0.5,0.1-0.7,0.2
	L51.7,34l-0.4,0.5c0.1,0.1,0.2,0.1,0.4,0.2c-0.2-0.1-0.3-0.1-0.5-0.1h0c-0.1,0-0.2,0-0.3,0c-0.2,0.1-0.4,0.2-0.6,0.4
	c-0.1,0.1-0.1,0.2-0.2,0.3c0,0.1-0.1,0.1-0.1,0.2c0,0.1-0.1,0.2-0.1,0.3c0,0.1-0.1,0.3-0.1,0.5c-0.1,0.3-0.1,0.7,0,1.1
	c0,0.1,0.1,0.3,0.1,0.5c0,0.1,0.1,0.3,0.1,0.4c0.1,0.4,0.3,0.7,0.6,1c0.1,0.1,0.2,0.2,0.3,0.3c0,0,0.1,0.1,0.1,0.1h0
	c0.1,0,0.2,0.1,0.3,0.1c0.1,0.1,0.3,0.1,0.5,0.2c0.2,0,0.4,0,0.6,0c0.3-0.1,0.5-0.2,0.7-0.4c0-0.1,0.1-0.1,0.1-0.2
	c0,0,0.1-0.1,0.1-0.1c-0.1,0.1-0.2,0.2-0.3,0.3c-0.2,0.3-0.3,0.6-0.3,0.7l1.7-0.4c0.2,0,0.3-0.1,0.5-0.1c0.1-0.1,0.2-0.2,0.4-0.3
	c0.2-0.2,0.4-0.5,0.5-0.8l0.1,0c-0.2,0.6-0.5,1-0.9,1.2c0.6-0.2,1-0.6,1.2-1.3c0.1-0.3,0.2-0.6,0.2-0.9l3.7-1c0-0.2,0-0.4-0.1-0.6
	c-0.1-0.5-0.4-0.9-0.8-1.1L58,34.2l-0.7-0.1l-1.8,0.5l0,0c-0.2-0.2-0.4-0.5-0.6-0.7c-0.6-0.5-1.2-0.7-1.7-0.5c0.5,0,0.9,0.2,1.4,0.6
	v0C54.1,33.7,53.7,33.6,53.4,33.6 M56.9,44.1l-0.3,0.3c-0.2,0.2-0.3,0.4-0.5,0.6c-0.1,0.1-0.1,0.1-0.2,0.2c-0.1,0.1-0.1,0.2-0.2,0.3
	c0,0,0,0,0,0.1c0,0,0,0,0,0.1c0,0,0,0,0,0.1c0,0.1-0.1,0.3-0.1,0.5c0,0.1-0.1,0.3-0.1,0.4c0,0,0,0,0,0.1c0,0.4,0.1,0.7,0.2,1
	c0.1,0.3,0.2,0.6,0.3,0.9c0.1,0.2,0.2,0.4,0.4,0.6c0.1,0.1,0.2,0.2,0.3,0.3l0,0c0.1,0.1,0.3,0.2,0.6,0.3c0.1,0,0.3,0.1,0.4,0.1
	c0.2,0,0.4,0,0.6,0c0.2-0.1,0.5-0.2,0.7-0.4c0-0.1,0.1-0.2,0.2-0.3c0-0.1,0.1-0.1,0.2-0.2c-0.1,0.2-0.2,0.4-0.4,0.5
	c-0.2,0.3-0.3,0.5-0.3,0.7l1.7-0.4c0.2,0,0.4-0.1,0.6-0.2c0.3-0.3,0.6-0.6,0.8-1.1l0,0c-0.2,0.6-0.5,1-0.8,1.2
	c0.5-0.2,0.9-0.6,1.2-1.3c0.1-0.3,0.2-0.6,0.2-0.9l3.8-1.1c0-0.2-0.1-0.3-0.1-0.5c-0.1-0.5-0.4-0.9-0.8-1.1l-2.4-1.3l0.5,0.5
	l-1.8,0.5c0,0,0,0,0,0c-0.2-0.2-0.4-0.5-0.6-0.7c-0.6-0.5-1.2-0.7-1.7-0.5c0.5,0,0.9,0.2,1.4,0.6l0,0.1c-0.6-0.5-1.2-0.6-1.8-0.5h0
	l-0.7,0.3L56.9,44.1z"/>
<path class="st0" d="M63,31.4l-0.4-0.7l-0.2-0.1c-0.5-0.7-1-1.2-1.7-1.6c-0.3-0.2-0.6-0.3-1-0.4c-0.4-0.1-0.8-0.2-1.2-0.2l-0.2,0
	h-0.2l-2.5,0.8c0,0-0.1,0-0.1,0c-0.2,0-0.4,0.1-0.7,0.3l-0.2,0.1l-0.1,0.1c-0.5,0.4-0.8,0.7-0.9,0.9l-0.1,0.1l-0.1,0.2l-0.1,0.2
	l-1,1.9l-0.8,1l0.9-0.3c0.2-0.1,0.5-0.2,0.7-0.2c-0.2,0-0.5,0-0.7,0.1l0-0.1c0.1,0,0.3,0,0.4,0c0,0,0.1,0,0.1,0
	c0.6-0.1,1.1,0,1.7,0.5c0.2,0.2,0.4,0.4,0.6,0.7l0,0l1.8-0.5l0.7,0.1l1.2,0.7c0.4,0.2,0.7,0.6,0.8,1.1c0,0.2,0.1,0.4,0.1,0.6l-3.7,1
	c0,0.3-0.1,0.6-0.2,0.9c-0.3,0.7-0.7,1.1-1.2,1.3c0,0-0.1,0-0.1,0.1c-0.1,0.1-0.3,0.1-0.4,0.1l0-0.1c0.2,0,0.3-0.1,0.5-0.2
	c-0.1,0.1-0.3,0.1-0.5,0.1l-1.7,0.4c-0.3,0-0.6-0.1-0.9-0.3c-0.3,0-0.6-0.1-0.8-0.3h0c-0.1-0.1-0.2-0.2-0.4-0.3l-0.1-0.2L30.5,50.1
	l-0.1,13l9.9,5.7c0.6,0.3,1.1,0.5,1.6,0.5c0.5,0,1-0.1,1.4-0.3h0c0.1-0.1,0.2-0.1,0.4-0.2l1.8-1c0.9-0.5,1.3-1.4,1.4-2.8
	c0-0.3,0-0.5,0-0.8c-0.1-1.2-0.4-2.3-1-3.5c-0.4-0.8-0.9-1.5-1.5-2.1c-0.5-0.6-1.1-1-1.6-1.3c0,0-0.1-0.1-0.2-0.1l-0.8-0.4l4.6-2.3
	l2-0.3l0.6,6.5l0.5,2.5c0.1,0.1,0.3,0.2,0.5,0.3c0.2,0.2,0.5,0.4,0.7,0.7l2.3-0.8c0-0.1,0-0.1,0.1-0.1c0-0.1,0.1-0.2,0.2-0.3
	c0-0.1,0.1-0.1,0.1-0.2c0.1-0.1,0.2-0.2,0.3-0.3l0.6-0.5l1.7-0.5c0.2-0.1,0.3-0.1,0.5-0.1c-0.2,0-0.4,0-0.6,0l0-0.1
	c0.1,0,0.3,0,0.4,0c0.1,0,0.1,0,0.2,0c0.6-0.1,1.1,0,1.6,0.5c0.2,0.2,0.4,0.4,0.6,0.7c0,0,0,0,0,0l1.8-0.5l1.9,0.8
	c0.3,0.2,0.6,0.6,0.7,1c0,0.2,0.1,0.4,0.1,0.5l-3.7,1.1c0,0.3-0.1,0.6-0.2,0.9c-0.2,0.7-0.6,1.1-1.2,1.3c0,0-0.1,0-0.1,0.1
	c-0.1,0.1-0.2,0.1-0.4,0.1l0-0.1c0.3-0.1,0.5-0.2,0.7-0.4c-0.2,0.1-0.5,0.2-0.8,0.3L55.8,68c-0.3-0.1-0.7-0.2-1-0.3
	c-0.2,0-0.4-0.1-0.6-0.3c-0.2-0.1-0.4-0.2-0.5-0.3L53.5,67c-0.1-0.1-0.1-0.3-0.2-0.4l-1.8,0.5c0,0.3-0.1,0.6-0.2,0.9
	c-0.1,0.3-0.2,0.5-0.4,0.8l0.9,0.1c0.5,0.5,1.1,0.9,1.7,1.1c0.7,0.3,1.3,0.4,2,0.3l7.4-1.9l2.6-0.8c0.3-0.1,0.7-0.3,1-0.6
	c0,0,0.1-0.1,0.2-0.2c0.4-0.4,0.6-0.8,0.8-1.2l0-0.1l0.1-0.1l0-0.1l0.1-0.1l2.6-18.1l0-0.1v-0.2c0.1-0.6,0.1-1,0-1.4V45l-0.1-0.3
	v-0.2l0-0.1c-0.1-0.6-0.3-1.1-0.5-1.7l0-0.1l-0.1-0.1l0-0.2l-0.2-0.5L63,31.4 M58.9,43.4c0,0,0.1,0,0.1,0c0.6-0.1,1.2,0,1.7,0.5
	c0.2,0.2,0.4,0.4,0.6,0.7c0,0,0,0,0,0l1.8-0.5l-0.5-0.5l2.4,1.3c0.4,0.2,0.6,0.6,0.8,1.1c0,0.2,0.1,0.4,0.1,0.5l-3.8,1.1
	c0,0.3-0.1,0.6-0.2,0.9c-0.2,0.7-0.6,1.1-1.2,1.3c-0.1,0-0.1,0.1-0.2,0.1c-0.1,0.1-0.2,0.1-0.4,0.1l0-0.1c0.2-0.1,0.4-0.2,0.6-0.3
	c-0.2,0.1-0.4,0.2-0.6,0.2l-1.7,0.4c-0.3,0-0.7-0.1-1-0.3c-0.3,0-0.6-0.2-0.9-0.4l0,0l0,0c0,0-0.1-0.1-0.1-0.1l-0.1-0.2
	c-0.2-0.2-0.3-0.4-0.4-0.6c-0.1-0.3-0.3-0.5-0.4-0.8c-0.1-0.4-0.1-0.7-0.1-1.1c0,0,0,0,0-0.1c0-0.1,0-0.3,0.1-0.4v0
	c0-0.1,0-0.3,0.1-0.4c0,0,0,0,0-0.1c0,0,0,0,0-0.1c0,0,0,0,0-0.1c0-0.1,0.1-0.2,0.2-0.3c0-0.1,0.1-0.1,0.2-0.2
	c0.1-0.2,0.3-0.4,0.5-0.6l0.3-0.3l0.9-0.2c0.2-0.2,0.4-0.3,0.7-0.4l0-0.1C58.6,43.4,58.7,43.4,58.9,43.4 M41.2,64.5
	c-0.3-0.6-0.5-1.2-0.5-1.7v-2.5c0.4,0.3,0.7,0.7,1,1.2c0.3,0.6,0.5,1.2,0.5,1.8v2.5C41.8,65.4,41.5,65,41.2,64.5z"/>
<path class="st8" d="M63.3,26.7l-1.6,0.5v0h0h0l-0.2,0l-1.7,1.3c0.3,0.1,0.7,0.2,1,0.4c0.6,0.4,1.2,0.9,1.7,1.6l0.2,0.1l0.3,0.4
	l0.1,0.2l6.3,10.4l0.2,0.5l0,0.2l0.1,0.1l0,0.1c0.2,0.6,0.4,1.1,0.5,1.7l0,0.1v0.2l0.1,0.3v0.3c0.1,0.4,0.1,0.9,0,1.4V47l0,0.1
	l-2.6,18.1l-0.1,0.1l0,0.1l-0.1,0.1l0,0.1c-0.2,0.4-0.4,0.8-0.8,1.2c-0.1,0.1-0.1,0.1-0.2,0.2l2.2-0.5c0.1,0,0.2-0.1,0.3-0.1
	c0,0,0.1,0,0.1,0l1.4-0.5c0.7-0.2,1.3-0.6,1.7-1.3c0.2-0.3,0.4-0.6,0.5-0.9c0.1-0.3,0.2-0.7,0.3-1c0,0,0,0,0-0.1l0.1-0.2L74.9,49
	v-8.5l-0.7-0.9l-6-9.9l-0.1-0.2c-0.6-0.9-1.2-1.5-2-2c-0.9-0.6-1.8-0.8-2.7-0.7H63.3z"/>
<path class="st2" d="M76.1,27.8l-1.2,0.4l-6.8-3.5h-6.5L56,21.4h-4.6l-0.3,12.8l0.5-0.1l0.8-1l1-1.9l0.1-0.2l0.1-0.2l0.1-0.1
	c0.1-0.2,0.4-0.5,0.9-0.9l0.1-0.1l0.2-0.1c0.3-0.1,0.5-0.2,0.7-0.3c0,0,0.1,0,0.1,0l2.5-0.8h0.2l0.2,0c0.4,0,0.8,0,1.2,0.2l1.7-1.3
	l0.2,0h0l0,0l1.6-0.5h0.2c0.9-0.1,1.8,0.1,2.7,0.7c0.7,0.5,1.4,1.2,2,2l0.1,0.2l6,9.9l0.7,0.9V49L73,62.5L73,62.7c0,0,0,0,0,0.1
	c-0.1,0.4-0.2,0.7-0.3,1c-0.1,0.3-0.3,0.7-0.5,0.9c-0.5,0.7-1,1.1-1.7,1.3L69,66.5c0,0-0.1,0-0.1,0c-0.1,0-0.2,0.1-0.3,0.1l-2.2,0.5
	c-0.4,0.3-0.7,0.5-1,0.6l-2.1,0.7c-0.1,0-0.3,0.1-0.5,0l-7.4,1.9c-0.7,0.1-1.3,0-2-0.3c-0.6-0.2-1.2-0.6-1.7-1.1l-0.9-0.1l-0.1,1.8
	c0,4-0.2,7.6-0.4,10.8l-0.1,2l5.1,6.2h7.4l2.9,1.4l6.2,0.2l4.1-21.3c0.1-0.5,0.1-0.9,0.2-1.2c0-0.6,0.1-1,0.1-1.2V27.8z"/>
<path id="Layer0_6_MEMBER_1_1_STROKES" class="st9" d="M75.9,69.9c0.1-0.5,0.1-0.9,0.2-1.2c0.1-0.5,0.1-0.9,0.1-1.2"/>
<path id="Layer0_6_MEMBER_2_1_STROKES" class="st9" d="M75.8,69.9l-2.4,12.8l-1.7,8.4"/>
<path id="Layer0_6_MEMBER_3_1_STROKES" class="st9" d="M68.2,29.6l6.1,10c0.2,0.3,0.3,0.5,0.4,0.7l0.1,0.1"/>
<path id="Layer0_6_MEMBER_4_1_STROKES" class="st9" d="M73,62.6l0,0.1c-0.2,0.8-0.4,1.5-0.8,2c-0.5,0.6-1,1.1-1.7,1.2l-0.1,0"/>
<path id="Layer0_6_MEMBER_5_1_STROKES" class="st9" d="M73,62.5l1.9-13.6"/>
<path id="Layer0_6_MEMBER_6_1_STROKES" class="st9" d="M63.3,26.7l0.2,0c0.9-0.1,1.8,0.1,2.7,0.7c0.7,0.5,1.4,1.2,2,2l0.1,0.2"/>
<path id="Layer0_6_MEMBER_7_1_STROKES" class="st9" d="M76.1,27.8v39.7"/>
<path id="Layer0_6_MEMBER_8_1_STROKES" class="st9" d="M74.9,28.2l0,32.7"/>
<path id="Layer0_6_MEMBER_9_1_STROKES" class="st9" d="M73.5,67.8c0.3-0.8,0.6-1.7,0.9-2.7c0.4-1.5,0.6-2.9,0.6-4.3"/>
<path id="Layer0_6_MEMBER_10_1_STROKES" class="st9" d="M50.7,70.6c0,4-0.2,7.6-0.4,10.8"/>
<path id="Layer0_6_MEMBER_11_1_STROKES" class="st9" d="M66.4,30.3l6.1,10c1.1,1.8,1.5,3.7,1.2,5.6l0,0.1"/>
<path id="Layer0_6_MEMBER_12_1_STROKES" class="st9" d="M71.2,63.2l0,0.1c-0.2,0.8-0.4,1.5-0.8,2c-0.5,0.6-1.1,1.1-1.8,1.2l-0.1,0"
	/>
<path id="Layer0_6_MEMBER_13_1_STROKES" class="st9" d="M71.2,63.1l2.4-17.2"/>
<path id="Layer0_6_MEMBER_14_1_STROKES" class="st9" d="M61.5,27.3l0.2,0c0.9-0.1,1.8,0.1,2.7,0.7c0.7,0.5,1.4,1.2,2,2l0.1,0.2"/>
<path id="Layer0_6_MEMBER_15_1_STROKES" class="st9" d="M61.4,27.3l1.8-0.6"/>
<path id="Layer0_6_MEMBER_16_1_STROKES" class="st9" d="M68.5,66.6l1.8-0.6"/>
<path id="Layer0_6_MEMBER_17_1_STROKES" class="st9" d="M61.7,65.3c0.2,0.1,0.5,0.2,0.7,0.1c0.3-0.1,0.5-0.3,0.6-0.6
	c0.1-0.3,0.1-0.7,0-1.1c-0.1-0.5-0.4-0.9-0.8-1.1"/>
<path id="Layer0_6_MEMBER_18_1_STROKES" class="st9" d="M59.2,61.1c-0.2,0.1-0.4,0.2-0.5,0.4c-0.1,0.2-0.2,0.5-0.2,0.8"/>
<path id="Layer0_6_MEMBER_19_1_STROKES" class="st9" d="M59.9,61.2c-0.2-0.1-0.5-0.2-0.7-0.1"/>
<path id="Layer0_6_MEMBER_20_1_STROKES" class="st9" d="M61.7,65.3L61.2,65"/>
<path id="Layer0_6_MEMBER_21_1_STROKES" class="st10" d="M53.9,62.3c-0.5,0.2-0.9,0.6-1.1,1.3"/>
<path id="Layer0_6_MEMBER_22_1_STROKES" class="st10" d="M54.1,67.4c0.5,0.3,0.9,0.4,1.4,0.3c0.5-0.1,0.9-0.5,1.1-1.1
	c0.2-0.6,0.2-1.3,0-2c-0.2-0.7-0.6-1.3-1.1-1.7c-0.5-0.4-1-0.6-1.5-0.4"/>
<path id="Layer0_6_MEMBER_23_1_STROKES" class="st10" d="M58.9,65.5l-1.7,0.5"/>
<path id="Layer0_6_MEMBER_24_1_STROKES" class="st9" d="M57.5,67.5L55.8,68"/>
<path id="Layer0_6_MEMBER_25_1_STROKES" class="st9" d="M55.8,61.4l-1.7,0.5"/>
<path id="Layer0_6_MEMBER_26_1_STROKES" class="st10" d="M58.1,62.4l-1.7,0.5"/>
<path id="Layer0_6_MEMBER_27_1_STROKES" class="st10" d="M57.2,65.9c-0.3-0.4-0.5-0.8-0.7-1.5c-0.1-0.4-0.2-0.8-0.2-1.1v-0.5"/>
<path id="Layer0_6_MEMBER_28_1_STROKES" class="st9" d="M57.5,67.5l1.4-2l-0.8-3.1l-2.3-1"/>
<path id="Layer0_6_MEMBER_29_1_STROKES" class="st10" d="M55.8,68c0-0.2,0.2-0.5,0.5-1c0.2-0.3,0.4-0.5,0.6-0.8l0.3-0.3"/>
<path id="Layer0_6_MEMBER_30_1_STROKES" class="st9" d="M52.7,63.6c0.1-0.1,0.2-0.4,0.4-0.6c0.2-0.3,0.4-0.5,0.6-0.8l0.3-0.3"/>
<path id="Layer0_6_MEMBER_31_1_STROKES" class="st10" d="M54.1,61.9l0.2,0.2c0.2,0.1,0.4,0.3,0.7,0.4c0.5,0.2,0.9,0.3,1.4,0.4"/>
<path id="Layer0_6_MEMBER_32_1_STROKES" class="st9" d="M53.5,67l0.2,0.2c0.2,0.1,0.4,0.3,0.7,0.4c0.5,0.2,0.9,0.4,1.4,0.4"/>
<path id="Layer0_6_MEMBER_33_1_STROKES" class="st9" d="M55.7,61.3c-0.3,0.1-0.5,0.2-0.7,0.4"/>
<path id="Layer0_6_MEMBER_34_1_STROKES" class="st9" d="M56.7,67.7c0.3,0.1,0.5,0,0.8,0"/>
<path id="Layer0_6_MEMBER_35_1_STROKES" class="st10" d="M57.5,67.7c0.6-0.2,1.1-0.6,1.3-1.4"/>
<path id="Layer0_6_MEMBER_36_1_STROKES" class="st10" d="M57.5,61.7c-0.6-0.5-1.2-0.7-1.9-0.5"/>
<path class="st11" d="M57.5,67.6l0,0.1c0.6-0.2,1.1-0.7,1.4-1.4l-0.1,0C58.5,67,58.1,67.5,57.5,67.6z"/>
<path class="st11" d="M57.5,61.8L57.5,61.8c-0.6-0.6-1.3-0.8-1.9-0.6l0,0.1C56.3,61.2,57,61.3,57.5,61.8z"/>
<path id="Layer0_6_MEMBER_39_1_STROKES" class="st9" d="M57.8,67.6c0.6-0.2,1.1-0.6,1.3-1.4c0.3-0.8,0.3-1.6,0-2.5
	c-0.2-0.9-0.7-1.6-1.3-2.1c-0.6-0.5-1.2-0.7-1.9-0.5"/>
<path id="Layer0_6_MEMBER_40_1_STROKES" class="st9" d="M57.5,67.7l0.4-0.1"/>
<path id="Layer0_6_MEMBER_41_1_STROKES" class="st9" d="M55.7,61.3l0.4-0.1"/>
<path id="Layer0_6_MEMBER_42_1_STROKES" class="st9" d="M60.4,61.8l-1.9,0.5"/>
<path id="Layer0_6_MEMBER_43_1_STROKES" class="st9" d="M62.5,64.4l-3.1,0.9"/>
<path id="Layer0_6_MEMBER_44_1_STROKES" class="st9" d="M61.7,65.3c0.2,0.1,0.5,0.2,0.7,0.1c0.3-0.1,0.5-0.3,0.6-0.6
	c0.1-0.3,0.1-0.7,0-1.1c-0.1-0.5-0.4-0.9-0.8-1.1"/>
<path id="Layer0_6_MEMBER_45_1_STROKES" class="st9" d="M59.2,61.1c-0.3,0.1-0.5,0.3-0.6,0.7"/>
<path id="Layer0_6_MEMBER_46_1_STROKES" class="st9" d="M59.9,61.2c-0.2-0.1-0.5-0.2-0.7-0.1"/>
<path id="Layer0_6_MEMBER_47_1_STROKES" class="st9" d="M61.7,65.3L61.2,65"/>
<path id="Layer0_6_MEMBER_48_1_STROKES" class="st9" d="M59.9,61.2l2.4,1.4"/>
<path id="Layer0_6_MEMBER_49_1_STROKES" class="st9" d="M52.6,63.9c0-0.2,0.2-0.5,0.5-1c0.2-0.3,0.4-0.5,0.6-0.8l0.3-0.3"/>
<path id="Layer0_6_MEMBER_50_1_STROKES" class="st9" d="M53.5,67l0.2,0.2c0.2,0.1,0.4,0.3,0.7,0.4c0.5,0.2,0.9,0.4,1.4,0.4"/>
<path id="Layer0_6_MEMBER_51_1_STROKES" class="st9" d="M53.5,67c-0.3-0.4-0.5-0.9-0.7-1.5c-0.1-0.4-0.2-0.8-0.2-1.1v-0.5"/>
<path id="Layer0_6_MEMBER_52_1_STROKES" class="st9" d="M51.2,63c-0.3,0.1-0.5,0.3-0.6,0.6"/>
<path id="Layer0_6_MEMBER_53_1_STROKES" class="st9" d="M51.9,63.1c-0.2-0.1-0.5-0.2-0.7-0.1"/>
<path id="Layer0_6_MEMBER_54_1_STROKES" class="st9" d="M51.9,63.1l0.2,0.1"/>
<path id="Layer0_6_MEMBER_55_1_STROKES" class="st10" d="M45.4,68.6c0.3,0.4,0.6,0.6,1,0.8c0.4,0.2,0.7,0.2,1.1,0.1
	c0.5-0.1,0.9-0.5,1.1-1.2c0.2-0.6,0.2-1.3,0-2c-0.2-0.7-0.5-1.2-1-1.6"/>
<path id="Layer0_6_MEMBER_56_1_STROKES" class="st10" d="M50.9,67.3l-1.7,0.5"/>
<path id="Layer0_6_MEMBER_57_1_STROKES" class="st9" d="M49.5,69.4l-1.7,0.5"/>
<path id="Layer0_6_MEMBER_58_1_STROKES" class="st9" d="M47.8,63.3l-0.3,0.1"/>
<path id="Layer0_6_MEMBER_59_1_STROKES" class="st10" d="M50.1,64.3l-1.7,0.5"/>
<path id="Layer0_6_MEMBER_60_1_STROKES" class="st10" d="M49.2,67.8c-0.3-0.4-0.5-0.9-0.7-1.5c-0.1-0.4-0.2-0.7-0.2-1.1l0-0.5"/>
<path id="Layer0_6_MEMBER_61_1_STROKES" class="st9" d="M49.5,69.4l1.5-2.1l-0.9-3.1l-2.3-1"/>
<path id="Layer0_6_MEMBER_62_1_STROKES" class="st10" d="M47.8,69.8c0-0.2,0.2-0.5,0.5-1c0.2-0.3,0.4-0.5,0.6-0.8l0.3-0.3"/>
<path id="Layer0_6_MEMBER_63_1_STROKES" class="st10" d="M47.6,64.5c0.3,0.1,0.6,0.2,0.8,0.2"/>
<path id="Layer0_6_MEMBER_64_1_STROKES" class="st9" d="M45.5,68.8l0.2,0.2c0.2,0.1,0.4,0.3,0.7,0.4c0.5,0.2,0.9,0.4,1.4,0.4"/>
<path id="Layer0_6_MEMBER_65_1_STROKES" class="st9" d="M45.5,68.8c0,0-0.1-0.1-0.1-0.2"/>
<path id="Layer0_6_MEMBER_66_1_STROKES" class="st9" d="M47.7,63.1l-0.2,0.1"/>
<path id="Layer0_6_MEMBER_67_1_STROKES" class="st9" d="M48.7,69.6c0.3,0,0.5,0,0.8,0"/>
<path id="Layer0_6_MEMBER_68_1_STROKES" class="st10" d="M49.5,69.5c0.6-0.2,1.1-0.6,1.3-1.4"/>
<path id="Layer0_6_MEMBER_69_1_STROKES" class="st10" d="M49.6,63.6c-0.6-0.5-1.2-0.7-1.9-0.5"/>
<path class="st11" d="M49.5,69.5l0,0.1c0.6-0.2,1.1-0.6,1.4-1.4l0,0C50.5,68.9,50.1,69.3,49.5,69.5z"/>
<path class="st11" d="M49.5,63.6L49.5,63.6c-0.6-0.6-1.3-0.8-1.9-0.6l0,0.1C48.3,63,48.9,63.2,49.5,63.6z"/>
<path id="Layer0_6_MEMBER_72_1_STROKES" class="st9" d="M49.8,69.4c0.6-0.2,1.1-0.6,1.4-1.4c0.3-0.7,0.3-1.6,0-2.5
	c-0.2-0.9-0.7-1.6-1.3-2.1C49.3,63,48.7,62.8,48,63"/>
<path id="Layer0_6_MEMBER_73_1_STROKES" class="st9" d="M49.5,69.5l0.4-0.1"/>
<path id="Layer0_6_MEMBER_74_1_STROKES" class="st9" d="M47.7,63.1L48,63"/>
<path id="Layer0_6_MEMBER_75_1_STROKES" class="st9" d="M52,63.8l-1.4,0.4"/>
<path id="Layer0_6_MEMBER_76_1_STROKES" class="st9" d="M51.2,63c-0.3,0.1-0.5,0.3-0.6,0.6"/>
<path id="Layer0_6_MEMBER_77_1_STROKES" class="st9" d="M51.9,63.1c-0.2-0.1-0.5-0.2-0.7-0.1"/>
<path id="Layer0_6_MEMBER_78_1_STROKES" class="st9" d="M52.6,66.8l-1.2,0.3"/>
<path id="Layer0_6_MEMBER_79_1_STROKES" class="st9" d="M30.5,50.1l18.4-9.9"/>
<path id="Layer0_6_MEMBER_80_1_STROKES" class="st10" d="M58.2,49.9c0.5-0.1,0.9-0.5,1.1-1.1c0.2-0.6,0.2-1.3,0-2
	c-0.2-0.7-0.6-1.3-1.1-1.7c-0.5-0.4-1-0.5-1.5-0.4c-0.5,0.1-0.9,0.5-1.1,1.1c-0.2,0.6-0.2,1.3,0,2c0.2,0.7,0.6,1.3,1.1,1.7
	C57.2,49.9,57.7,50,58.2,49.9z"/>
<path id="Layer0_6_MEMBER_81_1_STROKES" class="st10" d="M61.7,47.7L60,48.1"/>
<path id="Layer0_6_MEMBER_82_1_STROKES" class="st9" d="M60.3,49.7l-1.7,0.5"/>
<path id="Layer0_6_MEMBER_83_1_STROKES" class="st9" d="M58.6,43.6l-1.7,0.5"/>
<path id="Layer0_6_MEMBER_84_1_STROKES" class="st10" d="M60.9,44.6l-1.7,0.5"/>
<path id="Layer0_6_MEMBER_85_1_STROKES" class="st10" d="M60,48.1c-0.3-0.4-0.5-0.8-0.7-1.5c-0.1-0.4-0.2-0.8-0.2-1.1l0-0.5"/>
<path id="Layer0_6_MEMBER_86_1_STROKES" class="st9" d="M60.3,49.7l1.5-2.1l-0.9-3.1l-2.3-1"/>
<path id="Layer0_6_MEMBER_87_1_STROKES" class="st10" d="M58.6,50.2c0-0.2,0.2-0.5,0.5-1c0.2-0.3,0.4-0.5,0.6-0.8l0.3-0.3"/>
<path id="Layer0_6_MEMBER_88_1_STROKES" class="st9" d="M55.4,46.1c0-0.2,0.2-0.5,0.5-1c0.2-0.3,0.4-0.5,0.7-0.8l0.3-0.3"/>
<path id="Layer0_6_MEMBER_89_1_STROKES" class="st10" d="M56.9,44.1l0.2,0.2c0.2,0.1,0.4,0.3,0.7,0.4c0.5,0.2,0.9,0.4,1.4,0.4"/>
<path id="Layer0_6_MEMBER_90_1_STROKES" class="st9" d="M56.3,49.2l0.2,0.2c0.2,0.1,0.4,0.3,0.7,0.4c0.5,0.2,0.9,0.3,1.4,0.4"/>
<path id="Layer0_6_MEMBER_91_1_STROKES" class="st9" d="M56.3,49.2c-0.3-0.4-0.5-0.8-0.7-1.5c-0.1-0.4-0.2-0.8-0.2-1.1v-0.5"/>
<path id="Layer0_6_MEMBER_92_1_STROKES" class="st9" d="M58.5,43.5c-0.3,0.1-0.5,0.2-0.7,0.4"/>
<path id="Layer0_6_MEMBER_93_1_STROKES" class="st9" d="M59.5,49.9c0.3,0,0.5,0,0.8,0"/>
<path id="Layer0_6_MEMBER_94_1_STROKES" class="st10" d="M60.3,49.9c0.6-0.2,1.1-0.6,1.4-1.4"/>
<path id="Layer0_6_MEMBER_95_1_STROKES" class="st10" d="M60.4,43.9c-0.6-0.5-1.2-0.7-1.9-0.5"/>
<path class="st11" d="M60.3,49.8l0,0.1c0.6-0.2,1.1-0.7,1.3-1.4l0,0C61.4,49.2,60.9,49.6,60.3,49.8z"/>
<path class="st11" d="M60.4,44L60.4,44c-0.6-0.6-1.3-0.8-1.9-0.6l0,0.1C59.2,43.4,59.8,43.5,60.4,44z"/>
<path id="Layer0_6_MEMBER_98_1_STROKES" class="st9" d="M60.7,49.8c0.6-0.2,1.1-0.6,1.4-1.4c0.3-0.8,0.3-1.6,0-2.5
	c-0.2-0.9-0.7-1.6-1.3-2.1c-0.6-0.5-1.2-0.7-1.9-0.5"/>
<path id="Layer0_6_MEMBER_99_1_STROKES" class="st9" d="M60.3,49.9l0.4-0.1"/>
<path id="Layer0_6_MEMBER_100_1_STROKES" class="st9" d="M58.5,43.5l0.4-0.1"/>
<path id="Layer0_6_MEMBER_101_1_STROKES" class="st9" d="M63.2,44l-1.9,0.5"/>
<path id="Layer0_6_MEMBER_102_1_STROKES" class="st9" d="M65.3,46.6l-3.1,0.9"/>
<path id="Layer0_6_MEMBER_103_1_STROKES" class="st9" d="M45.5,67.8c0.9-0.5,1.4-1.4,1.4-2.8c0.1-1.4-0.3-2.9-1.1-4.3
	c-0.4-0.8-0.9-1.5-1.5-2.1c-0.6-0.6-1.2-1.1-1.8-1.4"/>
<path id="Layer0_6_MEMBER_104_1_STROKES" class="st9" d="M57.7,53.4c-0.5-0.3-1-0.3-1.7-0.3"/>
<path id="Layer0_6_MEMBER_105_1_STROKES" class="st9" d="M35.4,52.9l7.3,4.2"/>
<path id="Layer0_6_MEMBER_106_1_STROKES" class="st9" d="M35.5,49.8c-0.8,0.4-1.1,0.9-1.2,1.5c0,0.3,0.1,0.6,0.3,0.9
	c0.2,0.3,0.5,0.5,0.9,0.7"/>
<path id="Layer0_6_MEMBER_107_1_STROKES" class="st9" d="M30.4,63l9.8,5.6"/>
<path id="Layer0_6_MEMBER_108_1_STROKES" class="st9" d="M44.5,54.6L56,53.1"/>
<path id="Layer0_6_MEMBER_109_1_STROKES" class="st9" d="M40.4,68.8c0.5,0.3,1.1,0.5,1.6,0.5c0.5,0,1,0,1.4-0.3
	c0.9-0.5,1.4-1.4,1.4-2.8c0.1-1.4-0.3-2.9-1.1-4.4c-0.4-0.8-0.9-1.5-1.5-2.1c-0.6-0.6-1.2-1.1-1.8-1.4"/>
<path id="Layer0_6_MEMBER_110_1_STROKES" class="st9" d="M45.5,67.8L43.3,69"/>
<path id="Layer0_6_MEMBER_111_1_STROKES" class="st9" d="M30.4,50.1v13"/>
<path id="Layer0_6_MEMBER_112_1_STROKES" class="st9" d="M30.4,52.5l10.2,5.9"/>
<path id="Layer0_6_MEMBER_113_1_STROKES" class="st9" d="M39.1,59.8c-0.4,0.2-0.6,0.6-0.6,1.2"/>
<path id="Layer0_6_MEMBER_114_1_STROKES" class="st9" d="M42.2,63.2c0-0.6-0.1-1.2-0.5-1.8c-0.3-0.6-0.8-1.1-1.3-1.4
	c-0.5-0.3-0.9-0.4-1.3-0.2"/>
<path id="Layer0_6_MEMBER_115_1_STROKES" class="st9" d="M38.5,63.9c0,0.6,0.2,1.1,0.5,1.7c0.3,0.6,0.8,1.1,1.3,1.4
	c0.5,0.3,1,0.4,1.3,0.2c0.4-0.2,0.6-0.6,0.6-1.2"/>
<path id="Layer0_6_MEMBER_116_1_STROKES" class="st9" d="M42.2,63.2v2.9"/>
<path id="Layer0_6_MEMBER_117_1_STROKES" class="st9" d="M38.5,63.9V61"/>
<path id="Layer0_6_MEMBER_118_1_STROKES" class="st9" d="M59.8,54.2l0.5-3.3"/>
<path id="Layer0_6_MEMBER_119_1_STROKES" class="st9" d="M35.5,49.8l15.6-8.4"/>
<path id="Layer0_6_MEMBER_120_1_STROKES" class="st9" d="M62.1,43.3c-0.2,0.1-0.4,0.2-0.5,0.4c-0.1,0.2-0.2,0.5-0.2,0.8"/>
<path id="Layer0_6_MEMBER_121_1_STROKES" class="st9" d="M62.7,43.4c-0.2-0.1-0.5-0.2-0.7-0.1"/>
<path id="Layer0_6_MEMBER_122_1_STROKES" class="st9" d="M62.7,43.4l2.3,1.4"/>
<path id="Layer0_6_MEMBER_123_1_STROKES" class="st9" d="M64.6,47.5L64,47.2"/>
<path id="Layer0_6_MEMBER_124_1_STROKES" class="st9" d="M42.2,53.2c-0.6,0.1-1.3,0.1-2.1,0.1c-1-0.1-1.9-0.2-2.8-0.4"/>
<path id="Layer0_6_MEMBER_125_1_STROKES" class="st9" d="M44.5,54.6c-2,0.3-3.6,0.5-4.9,0.8"/>
<path id="Layer0_6_MEMBER_126_1_STROKES" class="st9" d="M56.9,51.4c0.7-0.1,1.2-0.3,1.6-0.4c0.6-0.2,1-0.5,1.3-0.8"/>
<path id="Layer0_6_MEMBER_127_1_STROKES" class="st9" d="M42.2,53.2l14.7-1.8"/>
<path id="Layer0_6_MEMBER_128_1_STROKES" class="st10" d="M52.3,40c0.5-0.1,0.9-0.5,1.1-1.1c0.2-0.6,0.2-1.3,0-2
	c-0.2-0.7-0.6-1.3-1.1-1.7c-0.5-0.4-1-0.6-1.5-0.4c-0.5,0.1-0.9,0.5-1.1,1.2c-0.2,0.6-0.2,1.3,0,2c0.2,0.7,0.6,1.3,1.1,1.7
	C51.3,40,51.8,40.1,52.3,40z"/>
<path id="Layer0_6_MEMBER_129_1_STROKES" class="st10" d="M55.8,37.8l-1.7,0.5"/>
<path id="Layer0_6_MEMBER_130_1_STROKES" class="st9" d="M54.4,39.8l-1.7,0.5"/>
<path id="Layer0_6_MEMBER_131_1_STROKES" class="st9" d="M52.7,33.7L51,34.2"/>
<path id="Layer0_6_MEMBER_132_1_STROKES" class="st10" d="M55,34.7l-1.7,0.5"/>
<path id="Layer0_6_MEMBER_133_1_STROKES" class="st10" d="M54.1,38.2c-0.3-0.4-0.5-0.8-0.7-1.5c-0.1-0.4-0.2-0.8-0.2-1.1v-0.5"/>
<path id="Layer0_6_MEMBER_134_1_STROKES" class="st9" d="M54.4,39.8l1.4-2L55,34.7l-2.3-1"/>
<path id="Layer0_6_MEMBER_135_1_STROKES" class="st10" d="M52.7,40.3c0-0.2,0.2-0.5,0.5-1c0.2-0.3,0.4-0.5,0.6-0.8l0.3-0.3"/>
<path id="Layer0_6_MEMBER_136_1_STROKES" class="st9" d="M49.5,36.2c0-0.2,0.2-0.5,0.5-0.9c0.2-0.3,0.4-0.5,0.6-0.8l0.3-0.3"/>
<path id="Layer0_6_MEMBER_137_1_STROKES" class="st10" d="M51,34.2l0.2,0.2c0.2,0.1,0.4,0.3,0.7,0.4c0.5,0.2,0.9,0.3,1.4,0.4"/>
<path id="Layer0_6_MEMBER_138_1_STROKES" class="st9" d="M50.4,39.3l0.2,0.2c0.2,0.1,0.4,0.3,0.7,0.4c0.5,0.2,0.9,0.4,1.4,0.4"/>
<path id="Layer0_6_MEMBER_139_1_STROKES" class="st9" d="M50.4,39.3c-0.3-0.4-0.5-0.9-0.7-1.5c-0.1-0.4-0.2-0.7-0.2-1.1v-0.5"/>
<path id="Layer0_6_MEMBER_140_1_STROKES" class="st9" d="M52.6,33.5c-0.3,0.1-0.5,0.2-0.7,0.4"/>
<path id="Layer0_6_MEMBER_141_1_STROKES" class="st9" d="M53.6,40c0.3,0.1,0.5,0,0.8,0"/>
<path id="Layer0_6_MEMBER_142_1_STROKES" class="st10" d="M54.4,40c0.6-0.2,1.1-0.6,1.3-1.4"/>
<path id="Layer0_6_MEMBER_143_1_STROKES" class="st10" d="M54.5,34c-0.6-0.5-1.2-0.7-1.9-0.5"/>
<path class="st11" d="M55.8,38.6L55.8,38.6c-0.2,0.3-0.3,0.6-0.6,0.8c-0.2,0.2-0.5,0.4-0.8,0.5l0,0.1C55,39.9,55.5,39.4,55.8,38.6z"
	/>
<path class="st11" d="M54.5,34.1L54.5,34.1c-0.6-0.6-1.3-0.8-1.9-0.6l0,0.1C53.3,33.4,53.9,33.6,54.5,34.1z"/>
<path id="Layer0_6_MEMBER_146_1_STROKES" class="st9" d="M54.8,39.9c0.6-0.2,1.1-0.6,1.4-1.4c0.3-0.8,0.3-1.6,0-2.5
	c-0.2-0.9-0.7-1.6-1.3-2.1c-0.6-0.5-1.2-0.7-1.9-0.5"/>
<path id="Layer0_6_MEMBER_147_1_STROKES" class="st9" d="M54.4,40l0.4-0.1"/>
<path id="Layer0_6_MEMBER_148_1_STROKES" class="st9" d="M52.6,33.5l0.4-0.1"/>
<path id="Layer0_6_MEMBER_149_1_STROKES" class="st9" d="M57.3,34.1l-1.9,0.5"/>
<path id="Layer0_6_MEMBER_150_1_STROKES" class="st9" d="M59.4,36.7l-3.1,0.9"/>
<path id="Layer0_6_MEMBER_151_1_STROKES" class="st9" d="M58.7,37.6c0.2,0.1,0.5,0.2,0.7,0.1c0.3-0.1,0.5-0.3,0.6-0.6
	c0.1-0.3,0.1-0.7,0-1.1c-0.1-0.5-0.4-0.9-0.8-1.1"/>
<path id="Layer0_6_MEMBER_152_1_STROKES" class="st9" d="M56.2,33.4c-0.2,0.1-0.4,0.2-0.5,0.4s-0.2,0.5-0.2,0.8"/>
<path id="Layer0_6_MEMBER_153_1_STROKES" class="st9" d="M56.8,33.5c-0.2-0.1-0.5-0.2-0.7-0.1"/>
<path id="Layer0_6_MEMBER_154_1_STROKES" class="st9" d="M56.8,33.5l2.3,1.4"/>
<path id="Layer0_6_MEMBER_155_1_STROKES" class="st9" d="M58.7,37.6l-0.6-0.3"/>
<path id="Layer0_6_MEMBER_156_1_STROKES" class="st9" d="M53.4,31.1l0.1-0.2l0.1-0.2l0.1-0.1c0.1-0.2,0.4-0.5,0.9-0.9l0.1-0.1
	l0.2-0.1c0.3-0.1,0.5-0.2,0.7-0.2c0.2,0,0.4-0.1,0.7-0.1h0.2l0.4,0.1c1.3,0.2,2.4,1,3.4,2.5l0.2,0.4l6.1,10c1.1,1.8,1.5,3.7,1.2,5.6
	l0,0.1"/>
<path id="Layer0_6_MEMBER_157_1_STROKES" class="st9" d="M48.3,54l0.8,7.9"/>
<path id="Layer0_6_MEMBER_158_1_STROKES" class="st9" d="M55.5,70.3l-0.2,0c-0.6,0.1-1.3,0-2-0.3c-0.6-0.3-1.1-0.6-1.6-1.1l-0.2-0.2
	"/>
<path id="Layer0_6_MEMBER_159_1_STROKES" class="st9" d="M55.5,70.3l7.1-1.7"/>
<path id="Layer0_6_MEMBER_160_1_STROKES" class="st9" d="M65.4,65.1l0,0.1c-0.2,0.8-0.4,1.5-0.8,2c-0.5,0.6-1,1.1-1.7,1.2l-0.1,0"/>
<path id="Layer0_6_MEMBER_161_1_STROKES" class="st9" d="M65.4,65l2.4-17.2"/>
<path id="Layer0_6_MEMBER_162_1_STROKES" class="st9" d="M64.6,47.5c0.2,0.1,0.5,0.2,0.7,0.1c0.3-0.1,0.5-0.3,0.6-0.6
	c0.1-0.3,0.1-0.7,0-1.1c-0.2-0.5-0.4-0.9-0.8-1.1"/>
<path id="Layer0_6_MEMBER_163_1_STROKES" class="st9" d="M52.4,33l1-1.9"/>
<path id="Layer0_6_MEMBER_164_1_STROKES" class="st9" d="M55.7,29.3l2.5-0.8"/>
<path id="Layer0_6_MEMBER_165_1_STROKES" class="st9" d="M63.2,68.4l1.9-0.7"/>
<path id="Layer0_6_MEMBER_166_1_STROKES" class="st9" d="M57.7,53.4L57.7,53.4l0.1,0.1c0.1,0.1,0.2,0.1,0.2,0.2h0l0,0
	c0,0.1,0.1,0.1,0.1,0.1c0,0,0.1,0.1,0.1,0.1l0,0l0.1,0.1v0l0.1,0.1l0.1,0.1l0.1,0.1l0,0l0.1,0.1l0,0v0l0,0l0.2,0.2l0.3,0.6l0.1,0.3"
	/>
<path id="Layer0_6_MEMBER_167_1_STROKES" class="st9" d="M41.8,56.6l2.8-1.5"/>
<path id="Layer0_6_MEMBER_168_1_STROKES" class="st9" d="M40.7,62.7c0,0.6,0.2,1.1,0.5,1.8c0.3,0.5,0.6,0.9,1,1.2"/>
<path id="Layer0_6_MEMBER_169_1_STROKES" class="st9" d="M40.7,62.7v-2.5"/>
<path id="Layer0_6_MEMBER_170_1_STROKES" class="st10" d="M71.4,57.9l2.1-15.1"/>
<path id="Layer0_6_MEMBER_171_1_STROKES" class="st10" d="M70.3,65.4l1.1-7.5"/>
<path id="Layer0_6_MEMBER_172_1_STROKES" class="st10" d="M69.7,66.1l3.4-24.5"/>
<path id="Layer0_6_MEMBER_173_1_STROKES" class="st10" d="M69,66.5l3.6-25.9"/>
<path id="Layer0_6_MEMBER_174_1_STROKES" class="st10" d="M68.5,66.4l3.7-26.6"/>
<path id="Layer0_6_MEMBER_175_1_STROKES" class="st10" d="M71,44.2l0.7-5.2"/>
<path id="Layer0_6_MEMBER_176_1_STROKES" class="st10" d="M70.6,42.8l0.6-4.6"/>
<path id="Layer0_6_MEMBER_177_1_STROKES" class="st10" d="M70.1,41.8l0.6-4.3"/>
<path id="Layer0_6_MEMBER_178_1_STROKES" class="st10" d="M69.7,40.9l0.6-4.3"/>
<path id="Layer0_6_MEMBER_179_1_STROKES" class="st10" d="M69.2,40.1l0.6-4.3"/>
<path id="Layer0_6_MEMBER_180_1_STROKES" class="st10" d="M68.7,39.4l0.6-4.3"/>
<path id="Layer0_6_MEMBER_181_1_STROKES" class="st10" d="M68.3,38.6l0.6-4.3"/>
<path id="Layer0_6_MEMBER_182_1_STROKES" class="st10" d="M67.8,37.8l0.6-4.3"/>
<path id="Layer0_6_MEMBER_183_1_STROKES" class="st10" d="M67.3,37l0.6-4.2"/>
<path id="Layer0_6_MEMBER_184_1_STROKES" class="st10" d="M66.9,36.2l0.6-4.2"/>
<path id="Layer0_6_MEMBER_185_1_STROKES" class="st10" d="M66.4,35.4l0.6-4.2"/>
<path id="Layer0_6_MEMBER_186_1_STROKES" class="st10" d="M65.9,34.7l0.6-4.2"/>
<path id="Layer0_6_MEMBER_187_1_STROKES" class="st10" d="M65.4,33.9l0.6-4.2"/>
<path id="Layer0_6_MEMBER_188_1_STROKES" class="st10" d="M65,33.1l0.6-4.1"/>
<path id="Layer0_6_MEMBER_189_1_STROKES" class="st10" d="M64.5,32.3l0.5-3.8"/>
<path id="Layer0_6_MEMBER_190_1_STROKES" class="st10" d="M64,31.5l0.5-3.4"/>
<path id="Layer0_6_MEMBER_191_1_STROKES" class="st10" d="M63.6,30.8l0.4-3"/>
<path id="Layer0_6_MEMBER_192_1_STROKES" class="st10" d="M63.1,30.1l0.4-2.6"/>
<path id="Layer0_6_MEMBER_193_1_STROKES" class="st10" d="M62.6,29.5l0.3-2.1"/>
<path id="Layer0_6_MEMBER_194_1_STROKES" class="st10" d="M62.1,29l0.2-1.7"/>
<path id="Layer0_6_MEMBER_195_1_STROKES" class="st10" d="M61.5,28.6l0.2-1.4"/>
<path id="Layer0_6_MEMBER_196_1_STROKES" class="st10" d="M61,28.2l0.1-0.5"/>
<path id="Layer0_6_MEMBER_197_1_STROKES" class="st9" d="M58,28.5l0.2,0h0.2l0.2,0c0.7,0,1.5,0.2,2.2,0.6c0.6,0.4,1.2,0.9,1.7,1.5
	l0.2,0.2l0.3,0.4l0.1,0.2l6.1,10l0.1,0.1l0.2,0.3l0.1,0.2l0.1,0.3l0.1,0.2l0.1,0.1l0.1,0.2c0.2,0.5,0.4,1.1,0.5,1.6l0,0.1v0.2
	l0.1,0.4v0.3c0.1,0.4,0.1,0.9,0,1.4v0.2l0,0.1l-2.4,17.2l-0.2,0.8l-0.1,0.1l0,0.1l-0.1,0.1l0,0.1c-0.2,0.4-0.4,0.8-0.8,1.2
	c-0.4,0.4-0.8,0.7-1.2,0.8l-0.3,0.1"/>
<path id="Layer0_6_MEMBER_198_1_STROKES" class="st9" d="M51.2,31.1l0.2-9.8"/>
<path class="st0" d="M24,30.3l2.3,1.3L39.4,24v1.5l2.3,1.3l7.9-14.1L39.4,6.5v4.2L24,19.6V30.3 M31.3,20.5l0.6-0.4l1,3.8l1-4.9
	l0.7-0.4l1.1,3.7l1-4.9l0.6-0.4l-1.3,6.1l-0.6,0.4l-1.1-3.9l-1.1,5.1l-0.7,0.4L31.3,20.5 M31.1,21.3l-2.6,1.5v1.7l2.3-1.4v0.7
	l-2.3,1.3v2.5l-0.7,0.4v-5.4l3.3-1.9V21.3 M37.9,16.7l1.8-1c1.2-0.7,1.9-0.5,2,0.9c0.1,1.2-0.1,2.3-0.6,3.1l-0.6,0.8L40,20.9
	l-2.1,1.2V16.7 M39.7,16.3L38.5,17v4.1l1.5-0.9l0.3-0.3l0.4-0.6c0.4-0.6,0.5-1.3,0.4-2.2C41,16.1,40.5,15.8,39.7,16.3z"/>
<path id="Layer0_7_MEMBER_1_1_STROKES" class="st9" d="M41.6,7.7v4.2l-15.4,8.9v10.7"/>
<path id="Layer0_7_MEMBER_2_1_STROKES" class="st9" d="M49.6,12.6l-7.9-4.9"/>
<path id="Layer0_7_MEMBER_3_1_STROKES" class="st9" d="M41.6,26.7v-4.2l-15.4,8.9"/>
<path id="Layer0_7_MEMBER_4_1_STROKES" class="st9" d="M49.6,12.6l-7.9,14.1"/>
<path id="Layer0_7_MEMBER_5_1_STROKES" class="st9" d="M41.6,11.9l-2.3-1.4"/>
<path id="Layer0_7_MEMBER_6_1_STROKES" class="st9" d="M26.2,20.7l-2.3-1.3"/>
<path id="Layer0_7_MEMBER_7_1_STROKES" class="st9" d="M26.2,31.4l-2.3-1.3"/>
<path id="Layer0_7_MEMBER_8_1_STROKES" class="st9" d="M41.6,26.7l-2.3-1.3"/>
<path id="Layer0_7_MEMBER_9_1_STROKES" class="st9" d="M41.6,7.7l-2.3-1.3l0,4.2l-15.4,8.9v10.7"/>
<path id="Layer0_7_MEMBER_10_1_STROKES" class="st9" d="M39.3,25.4v-1"/>
<path class="st8" d="M142.6,64.5l-0.5-0.1c-1.2-0.2-2.5,0.5-3.9,1.9l-0.1,0.1v0l0,0v0h0v0l-0.1,0.1v0h0v0.1h0v0.1l-0.4,0.9l-0.1,0.6
	c-0.1,0.9-0.2,2.4-0.1,4.4l0,0.8c0,0.3,0,0.7,0.1,1.1c0,0.4,0.1,0.8,0,1v0.3l0,0.1l0,0v0.1l0.1,0.1v0.1l0,0.1v0.1
	c0,0.3,0.2,1.2,0.5,2.7l0.1,0.3l0,0.1l0.4-0.2h0v0h0v0h0l0.5,0.3l0.2,0v0h0l0.2,0.1v0c0.1,0,0.3,0,0.4-0.1c0.1-0.2,0.2-0.4,0.1-0.5
	v0l0-0.1c-0.1-0.3-0.2-0.6-0.4-1.1c-0.2-0.5-0.4-0.9-0.4-1.2l0-0.1v-0.2l-0.1-0.6v-1.2l0.1-0.2v-0.1h0.2l0.3-0.2l0.1,0v-0.2
	l-0.1-0.1l-0.1-0.1l0,0h0l0,0l-0.1,0h0l-0.1-3.7l0,0v0l0-0.1v-0.2l0-0.2v-0.1l0,0v-0.1l0,0v0l0.5-1.3l0,0v-0.1l0.1-0.1v0l0.1-0.1
	l0.3-0.6v0h0.1c0.4,0,0.9,0.2,1.5,0.6l0.2,0.1l2,1.1l0,0h0.1l0,0h0l2.1,1.3l0.1,0.1c0.7,0.5,1.3,0.9,1.6,1.3l0.1,0.1v0.1h0v0
	l0.9,1.3V73l0,0v0h0l0.3,0.9l0.1,0.2l0,0.2l0.1,0.1v0.1l0.1,0.1l0.1,0.3v0.2l0.2,1.5l0,0v0.1l0,0v0.1h0v0l0,0v0.3h0v0.1h0v0.1h0
	l0,0.1l0,0v0l0,0v0.2c0,0.3,0.1,0.7,0.1,1.2l-0.2,0.3h0v0h0v0h0v0.4l0,0v0l0.2,0.4l0.1,0.1v0l0,0v2h0v0h0v0.1l0.6,1.8l0.1,0.6v0.4
	l-0.1,0.5l0,0l-0.2,0.5v0l0,0v0.3l0.3,0.2v0l-0.1,0.3l0,0h0.1l0.7-0.3l0,0V87l0.1,0v0h0v0l0,0h0v0l0.1-0.1h0v0l0,0h0l0,0h0l0,0
	c0.3-0.9,0.4-1.6,0.3-2.2c-0.1-0.9-0.1-1.5-0.1-1.9v-0.1h0v0l0.1,0h0l0.2,0.1h0.1v0h0l0.1-0.1v0l0,0c0.1,0,0.1-0.1,0-0.2h0v0
	l-0.1-0.1l-0.4-0.2h-0.1c0-1.9,0-3.4,0-4.4c-0.1-1.6-0.3-3.1-0.6-4.3l-0.1-0.1l-0.7-1.5h0v0l-0.6-0.9v-0.1h0l-1.3-1.8l0,0v0h0
	l-0.3-0.4l-0.4-0.2l0,0v0h0v0h0l-0.8-0.9h0l-0.1,0l-0.1-0.1l-0.3-0.1c-0.1-0.1-0.2-0.1-0.3-0.2h-0.1v0c-0.1-0.1-0.3-0.2-0.6-0.3
	l0-0.1v0L142.6,64.5z"/>
<path class="st8" d="M93.9,50.7l0.8-3.1c13.6,1.7,24.6,5.9,33,12.5c2.5,1.9,4.5,3.8,6,5.7c-1.7-2.2-3.9-4.6-6.7-7.1
	C118.5,51,108.2,45.7,96,42.8l0.7-3l-6.8,4.1L93.9,50.7z"/>
</svg>
