<?xml version="1.0" encoding="utf-8"?>
<!-- Generator: Adobe Illustrator 24.1.0, SVG Export Plug-In . SVG Version: 6.00 Build 0)  -->
<svg version="1.1" id="Ebene_1" xmlns="http://www.w3.org/2000/svg" xmlns:xlink="http://www.w3.org/1999/xlink" x="0px" y="0px"
	 viewBox="0 0 349.1 266.5" style="enable-background:new 0 0 349.1 266.5;" xml:space="preserve">
<style type="text/css">
	.st0{fill:#CDCCCC;}
	.st1{fill:#448ECC;}
	.st2{fill:none;stroke:#020203;stroke-width:0.5;stroke-linecap:round;stroke-linejoin:round;}
	.st3{fill:none;stroke:#020203;stroke-width:0.25;stroke-linecap:round;stroke-linejoin:round;}
	.st4{fill:none;stroke:#F4991A;stroke-linecap:round;stroke-linejoin:round;}
	.st5{fill:#686868;}
	.st6{fill:#020203;}
	.st7{font-family:'ArialMT';}
	.st8{font-size:12px;}
</style>
<g transform="matrix( 1, 0, 0, 1, 0,0) ">
	<g>
		<g id="Layer3_10_MEMBER_0_FILL">
			<path class="st0" d="M48.2,123.3c-0.4,0.2-0.6,0.4-0.6,0.8v10.5l-0.3,0.2c-0.2,0.1-0.3,0.3-0.5,0.4c-0.2,0.2-0.3,0.5-0.3,0.8
				c0,0.3,0.1,0.6,0.4,0.9c0.3,0.4,0.6,0.8,1.1,1.1c0.5,0.3,1.1,0.4,1.6,0.4c0.5,0,1-0.1,1.5-0.4c0.4-0.3,0.8-0.6,1.1-1.1
				c0.3-0.3,0.4-0.6,0.4-0.9c0-0.4-0.2-0.7-0.4-1c-0.1,0-0.1-0.1-0.2-0.2l-0.7-0.5v-10.4c0-0.3-0.2-0.6-0.5-0.8
				c-0.2-0.1-0.4-0.2-0.7-0.3c-0.2,0-0.3-0.1-0.5-0.1h-0.1C49,123,48.6,123.1,48.2,123.3 M45.6,115.5l-0.1,0.4v0.8
				c0,0.6,0.4,1.2,1.2,1.6c0.8,0.4,1.8,0.7,2.8,0.7c1.1,0,2-0.2,2.8-0.7s1.2-1,1.2-1.6l-0.1-1l-0.1-0.3l-0.2-0.4l-0.4-0.3l-0.8-0.5
				l-0.5-0.2l-1.3-0.3H49l-1.1,0.2l-1,0.4l-0.8,0.6l-0.2,0.3L45.6,115.5 M47.5,116.1l0.2-0.1l0.8-0.3l0.6-0.2l1.1,0.1l0.8,0.2
				l0.6,0.5l-0.1,0.2l-0.4,0.3l-0.6,0.2l-0.6,0.1l-0.7,0l-0.6-0.2l-0.6-0.3l-0.3-0.3L47.5,116.1z"/>
		</g>
	</g>
</g>
<g transform="matrix( 1, 0, 0, 1, 0,0) ">
	<g>
		<g id="Layer3_10_MEMBER_1_FILL">
			<path class="st1" d="M92.7,57.3l-3-0.1l-6,0.8L81,58.6l-11.2,4.9L45.3,76l-4.4,2.6l-3.8,2.9l-3.1,3l-1,1.6l-0.6,1.6l-0.2,1.5v3.7
				l31.4,14.8l2.9,0.8l4.4,0.5l3.7-0.2l0.3,0h0.3l0.3-0.1L119,86.5l1.4-1.3l0.8-1.5l0.3-2.4v-8.9l-0.2-1.4l-0.8-1.5l-1.2-1.5
				l-1.7-1.5l-7-4.2l-5.8-2.3l-6-1.8L92.7,57.3z"/>
		</g>
	</g>
</g>
<g transform="matrix( 1, 0, 0, 1, 0,0) ">
	<g>
		<path id="Layer3_10_MEMBER_2_MEMBER_0_1_STROKES" class="st2" d="M110.6,62.3l7.1,4.2l1.7,1.5l1.2,1.5l0.8,1.5l0.2,1.4l-0.3,1.4
			l-0.8,1.6l-1.9,1.8"/>
	</g>
</g>
<g transform="matrix( 1, 0, 0, 1, 0,0) ">
	<g>
		<path id="Layer3_10_MEMBER_2_MEMBER_1_1_STROKES" class="st2" d="M118.6,77.1l-19,10.4l-17,8.6L71.3,100l-6.3,1.3l-6.2,0.5
			l-5.5-0.4l-4.5-1.3"/>
	</g>
</g>
<g transform="matrix( 1, 0, 0, 1, 0,0) ">
	<g>
		<path id="Layer3_10_MEMBER_2_MEMBER_2_1_STROKES" class="st2" d="M32.5,92.8l1.5,0.3"/>
	</g>
</g>
<g transform="matrix( 1, 0, 0, 1, 0,0) ">
	<g>
		<path id="Layer3_10_MEMBER_2_MEMBER_3_1_STROKES" class="st2" d="M34.5,93.3l1.3,0.7"/>
	</g>
</g>
<g transform="matrix( 1, 0, 0, 1, 0,0) ">
	<g>
		<path id="Layer3_10_MEMBER_2_MEMBER_4_1_STROKES" class="st2" d="M48.9,100.1l12.8,6.8"/>
	</g>
</g>
<g transform="matrix( 1, 0, 0, 1, 0,0) ">
	<g>
		<path id="Layer3_10_MEMBER_2_MEMBER_5_1_STROKES" class="st2" d="M36.1,94l-1.7-1"/>
	</g>
</g>
<g transform="matrix( 1, 0, 0, 1, 0,0) ">
	<g>
		<path id="Layer3_10_MEMBER_2_MEMBER_6_1_STROKES" class="st2" d="M34.2,92.8l-1-1l-0.8-1.2l-0.3-1.5l0.2-1.5l0.6-1.5l1-1.6l3.1-3
			l3.8-2.9l28.9-15L81,58.6l2.8-0.7l6-0.7l3,0l6,0.9l6,1.8l5.8,2.3"/>
	</g>
</g>
<g transform="matrix( 1, 0, 0, 1, 0,0) ">
	<g>
		<path id="Layer3_10_MEMBER_2_MEMBER_7_1_STROKES" class="st2" d="M119,86.5l-9.4,3.3l-20,10.2l-14,8.6"/>
	</g>
</g>
<g transform="matrix( 1, 0, 0, 1, 0,0) ">
	<g>
		<path id="Layer3_10_MEMBER_2_MEMBER_8_1_STROKES" class="st2" d="M36.1,94l6.5,3.1"/>
	</g>
</g>
<g transform="matrix( 1, 0, 0, 1, 0,0) ">
	<g>
		<path id="Layer3_10_MEMBER_2_MEMBER_9_1_STROKES" class="st2" d="M121.6,81.3v-8.9"/>
	</g>
</g>
<g transform="matrix( 1, 0, 0, 1, 0,0) ">
	<g>
		<path id="Layer3_10_MEMBER_2_MEMBER_10_1_STROKES" class="st2" d="M42.6,97.1l6.3,3"/>
	</g>
</g>
<g transform="matrix( 1, 0, 0, 1, 0,0) ">
	<g>
		<path id="Layer3_10_MEMBER_2_MEMBER_11_1_STROKES" class="st2" d="M77.3,107.8L119,86.5"/>
	</g>
</g>
<g transform="matrix( 1, 0, 0, 1, 0,0) ">
	<g>
		<path id="Layer3_10_MEMBER_2_MEMBER_12_1_STROKES" class="st2" d="M32.2,89.1v3.7"/>
	</g>
</g>
<g transform="matrix( 1, 0, 0, 1, 0,0) ">
	<g>
		<path id="Layer3_10_MEMBER_2_MEMBER_13_1_STROKES" class="st2" d="M120.5,85.2l0.8-1.6l0.3-2.4"/>
	</g>
</g>
<g transform="matrix( 1, 0, 0, 1, 0,0) ">
	<g>
		<path id="Layer3_10_MEMBER_2_MEMBER_14_1_STROKES" class="st2" d="M58.8,105.5L32.2,92.8"/>
	</g>
</g>
<g transform="matrix( 1, 0, 0, 1, 0,0) ">
	<g>
		<path id="Layer3_10_MEMBER_2_MEMBER_15_1_STROKES" class="st2" d="M119,86.5l1.4-1.3"/>
	</g>
</g>
<g transform="matrix( 1, 0, 0, 1, 0,0) ">
	<g>
		<path id="Layer3_10_MEMBER_2_MEMBER_16_1_STROKES" class="st2" d="M61.6,106.8l2,0.8l0.3,0.1l0.6,0.2l2,0.5l4.4,0.5l3.7-0.2l0.3,0
			h0.3l0.2-0.1"/>
	</g>
</g>
<g transform="matrix( 1, 0, 0, 1, 0,0) ">
	<g>
		<path id="Layer3_10_MEMBER_2_MEMBER_17_1_STROKES" class="st2" d="M112,73l-0.1,0v-0.1l-0.4-0.2l-0.2,0h-0.2l-0.1-0.1h-0.2
			l-0.2,0.1h-0.1l-0.1,0.1h-0.1l-0.1,0.1l-0.1,0.1l-0.1,0.2l-0.1,0.1l0.2,0.4h0.1l0.2,0.2l0.1,0h0.7l0.3-0.1l0.4-0.2l0.1-0.2V73z"/>
	</g>
</g>
<g transform="matrix( 1, 0, 0, 1, 0,0) ">
	<g>
		<path id="Layer3_10_MEMBER_2_MEMBER_18_1_STROKES" class="st2" d="M89.5,62.3L89.5,62.3l-0.1-0.2l-0.2-0.1L89.2,62L89,61.8h-0.8
			l-0.4,0.1l-0.2,0.2l0,0.1l-0.1,0.1v0.2l0.1,0.1l0.3,0.2l0.4,0.1h0.1l0.1,0h0.2l0.1,0h0.2l0.2-0.1l0.4-0.2l0-0.1l0.1-0.1v-0.1
			L89.5,62.3L89.5,62.3z"/>
	</g>
</g>
<g transform="matrix( 1, 0, 0, 1, 0,0) ">
	<g>
		<path id="Layer3_10_MEMBER_2_MEMBER_19_1_STROKES" class="st2" d="M50.5,84.4l-0.1-0.2l-0.1,0l-0.1-0.1l-0.4-0.1h-0.2L49,84.2
			l-0.1,0h-0.1l-0.1,0.1l-0.1,0.2l-0.1,0.1v0.2l0.1,0.2l0.2,0.2l0,0l0.2,0.1h0.2l0.2,0h0.2l0.2,0h0.3l0.1-0.1l0.2-0.1v-0.1l0.1,0
			l0-0.1v-0.2L50.5,84.4z"/>
	</g>
</g>
<g transform="matrix( 1, 0, 0, 1, 0,0) ">
	<g>
		<path id="Layer3_10_MEMBER_2_MEMBER_20_1_STROKES" class="st2" d="M68.6,93.1l0-0.1l-0.2-0.2l-0.4-0.2h-0.7l-0.1,0.1H67l-0.1,0.1
			h-0.1l-0.2,0.1L66.6,93h0v0.5h0.1l0.1,0.1l0.1,0.1l0.5,0.2h0.5l0.4-0.1l0.1-0.2h0.1l0-0.1l0.1-0.1V93.1z"/>
	</g>
</g>
<g transform="matrix( 1, 0, 0, 1, 0,0) ">
	<g>
		<path id="Layer3_10_MEMBER_2_MEMBER_21_1_STROKES" class="st2" d="M72.9,64.7l-0.6,0.2L71.8,65l-0.5,0.5l0,0.2v0.2l0,0.2l0.2,0.4
			l0.5,0.3l0.5,0.2l0.9,0.1l0.8-0.2l0.3-0.2l0.3-0.2l0.2-0.4v-0.2L75,65.3l-0.2-0.2l-0.5-0.3l-0.2-0.1h-0.2l-0.2-0.1H72.9z"/>
	</g>
</g>
<g transform="matrix( 1, 0, 0, 1, 0,0) ">
	<g>
		<path id="Layer3_10_MEMBER_2_MEMBER_22_1_STROKES" class="st2" d="M73,70.9L72.8,71h-0.2l-0.4,0.1l-0.5,0.4l-0.1,0.2v0.4l0.1,0.2
			l0.4,0.4l0.9,0.2l1.2,0l0.2-0.1l0.4-0.2l0.3-0.3l0.2-0.3v-0.2l-0.2-0.4l-0.5-0.3l-0.2-0.1l-1.2-0.2H73z"/>
	</g>
</g>
<g transform="matrix( 1, 0, 0, 1, 0,0) ">
	<g>
		<path id="Layer3_10_MEMBER_2_MEMBER_23_1_STROKES" class="st2" d="M71.6,81.5l0.3,0.2l0.2,0.1l0.7,0.2l0.5,0.1l1-0.1l0.6-0.3
			l0.1-0.1l0.2-0.1l0.2-0.4"/>
	</g>
</g>
<g transform="matrix( 1, 0, 0, 1, 0,0) ">
	<g>
		<path id="Layer3_10_MEMBER_2_MEMBER_24_1_STROKES" class="st2" d="M75.3,72.1V81"/>
	</g>
</g>
<g transform="matrix( 1, 0, 0, 1, 0,0) ">
	<g>
		<path id="Layer3_10_MEMBER_2_MEMBER_25_1_STROKES" class="st2" d="M71.5,72v9"/>
	</g>
</g>
<g transform="matrix( 1, 0, 0, 1, 0,0) ">
	<g>
		<path id="Layer3_10_MEMBER_2_MEMBER_26_1_STROKES" class="st2" d="M75.1,65.9v4"/>
	</g>
</g>
<g transform="matrix( 1, 0, 0, 1, 0,0) ">
	<g>
		<path id="Layer3_10_MEMBER_2_MEMBER_27_1_STROKES" class="st2" d="M71.3,65.8v4.4"/>
	</g>
</g>
<g transform="matrix( 1, 0, 0, 1, 0,0) ">
	<g>
		<path id="Layer3_10_MEMBER_2_MEMBER_28_1_STROKES" class="st2" d="M84.4,65L84.4,65l-0.2,0.2l-0.2,0.3v0.1l0,0.1l0.2,0.3l0.5,0.3
			l0.4,0.2l0.7,0.2h0.2l0.9-0.2l0.3-0.1l0.5-0.5v-0.5l-0.1-0.3l-0.2-0.2l-0.4-0.2l-0.7-0.2l-1.2,0.1l-0.6,0.3L84.4,65z"/>
	</g>
</g>
<g transform="matrix( 1, 0, 0, 1, 0,0) ">
	<g>
		<path id="Layer3_10_MEMBER_2_MEMBER_29_1_STROKES" class="st2" d="M88,71.6l-0.1-0.2l-0.2-0.3L87,70.8l-0.8-0.2H86l-0.7,0.1
			L84.7,71l-0.3,0.2l-0.2,0.2l0,0.2v0.1l0.1,0.3l0.2,0.2l0.5,0.3l0.7,0.2h0.8l0.6-0.2l0.6-0.3l0.1-0.1l0.2-0.2v-0.2V71.6L88,71.6z"
			/>
	</g>
</g>
<g transform="matrix( 1, 0, 0, 1, 0,0) ">
	<g>
		<path id="Layer3_10_MEMBER_2_MEMBER_30_1_STROKES" class="st2" d="M84.2,80.9l0.1,0.3l0.1,0.1l0.1,0.2l0.5,0.3l0.2,0l0.2,0.1
			l0.4,0.1h0.3l1.1-0.3l0.3-0.2l0.3-0.4"/>
	</g>
</g>
<g transform="matrix( 1, 0, 0, 1, 0,0) ">
	<g>
		<path id="Layer3_10_MEMBER_2_MEMBER_31_1_STROKES" class="st2" d="M88,71.9v8.9"/>
	</g>
</g>
<g transform="matrix( 1, 0, 0, 1, 0,0) ">
	<g>
		<path id="Layer3_10_MEMBER_2_MEMBER_32_1_STROKES" class="st2" d="M84.2,71.8v9.1"/>
	</g>
</g>
<g transform="matrix( 1, 0, 0, 1, 0,0) ">
	<g>
		<path id="Layer3_10_MEMBER_2_MEMBER_33_1_STROKES" class="st2" d="M87.9,65.7v4"/>
	</g>
</g>
<g transform="matrix( 1, 0, 0, 1, 0,0) ">
	<g>
		<path id="Layer3_10_MEMBER_2_MEMBER_34_1_STROKES" class="st2" d="M84.1,69.5v-4.4"/>
	</g>
</g>
<g transform="matrix( 1, 0, 0, 1, 0,0) ">
	<g>
		<path id="Layer3_10_MEMBER_2_MEMBER_35_1_STROKES" class="st3" d="M49.6,119.5v1.6"/>
	</g>
</g>
<g transform="matrix( 1, 0, 0, 1, 0,0) ">
	<g>
		<path id="Layer3_10_MEMBER_2_MEMBER_36_1_STROKES" class="st3" d="M49.6,121.4v0.5"/>
	</g>
</g>
<g transform="matrix( 1, 0, 0, 1, 0,0) ">
	<g>
		<path id="Layer3_10_MEMBER_2_MEMBER_37_1_STROKES" class="st3" d="M49.6,122.3v1.5"/>
	</g>
</g>
<g transform="matrix( 1, 0, 0, 1, 0,0) ">
	<g>
		<path id="Layer3_10_MEMBER_2_MEMBER_38_1_STROKES" class="st3" d="M49.6,102.1v5.3"/>
	</g>
</g>
<g transform="matrix( 1, 0, 0, 1, 0,0) ">
	<g>
		<path id="Layer3_10_MEMBER_2_MEMBER_39_1_STROKES" class="st3" d="M49.6,108.8v1.4"/>
	</g>
</g>
<g transform="matrix( 1, 0, 0, 1, 0,0) ">
	<g>
		<path id="Layer3_10_MEMBER_2_MEMBER_40_1_STROKES" class="st3" d="M49.6,111.4v5.4"/>
	</g>
</g>
<g transform="matrix( 1, 0, 0, 1, 0,0) ">
	<g>
		<path id="Layer3_10_MEMBER_2_MEMBER_41_1_STROKES" class="st3" d="M49.6,81.7v1.2"/>
	</g>
</g>
<g transform="matrix( 1, 0, 0, 1, 0,0) ">
	<g>
		<path id="Layer3_10_MEMBER_2_MEMBER_42_1_STROKES" class="st3" d="M49.6,83.3v0.2"/>
	</g>
</g>
<g transform="matrix( 1, 0, 0, 1, 0,0) ">
	<g>
		<path id="Layer3_10_MEMBER_2_MEMBER_43_1_STROKES" class="st3" d="M49.6,83.8V85"/>
	</g>
</g>
<g transform="matrix( 1, 0, 0, 1, 0,0) ">
	<g>
		<path id="Layer3_10_MEMBER_2_MEMBER_44_1_STROKES" class="st2" d="M49.1,114.8l-0.6,0.2l-0.5,0.2l-0.3,0.3l-0.1,0.4l0.1,0.4
			l0.3,0.3l0.5,0.3l0.6,0.2l0.7,0l0.7-0.1l0.6-0.2l0.4-0.3l0.2-0.4v-0.4l-0.2-0.3l-0.4-0.3l-0.5-0.2l-0.3-0.1"/>
	</g>
</g>
<g transform="matrix( 1, 0, 0, 1, 0,0) ">
	<g>
		<path id="Layer3_10_MEMBER_2_MEMBER_45_1_STROKES" class="st2" d="M45.6,116.6c0,0.6,0.4,1.2,1.2,1.6c0.8,0.5,1.8,0.7,2.8,0.7
			c1.1,0,2-0.2,2.8-0.7c0.8-0.4,1.2-1,1.2-1.6"/>
	</g>
</g>
<g transform="matrix( 1, 0, 0, 1, 0,0) ">
	<g>
		<path id="Layer3_10_MEMBER_2_MEMBER_46_1_STROKES" class="st2" d="M49.5,115.4h-0.4l-0.6,0.2l-0.5,0.3l-0.2,0.1"/>
	</g>
</g>
<g transform="matrix( 1, 0, 0, 1, 0,0) ">
	<g>
		<path id="Layer3_10_MEMBER_2_MEMBER_47_1_STROKES" class="st2" d="M51.4,116l-0.4-0.3l-0.8-0.2"/>
	</g>
</g>
<g transform="matrix( 1, 0, 0, 1, 0,0) ">
	<g>
		<path id="Layer3_10_MEMBER_2_MEMBER_48_1_STROKES" class="st2" d="M53.6,116.7v-0.7"/>
	</g>
</g>
<g transform="matrix( 1, 0, 0, 1, 0,0) ">
	<g>
		<path id="Layer3_10_MEMBER_2_MEMBER_49_1_STROKES" class="st2" d="M45.6,116.5v-0.6"/>
	</g>
</g>
<g transform="matrix( 1, 0, 0, 1, 0,0) ">
	<g>
		<path id="Layer3_10_MEMBER_2_MEMBER_50_1_STROKES" class="st2" d="M49.1,113.7l-1.1,0.2l-1.1,0.4l-0.8,0.6l-0.4,0.7l-0.1,0.4v0.3
			l0.3,0.7l0.3,0.3l0.4,0.2l0.9,0.4l0.6,0.2l2.4,0l1.2-0.3l0.9-0.5l0.6-0.6l0.2-0.3l0.1-0.3v-0.4l-0.3-0.7l-0.3-0.3l-0.9-0.5
			l-1.8-0.5"/>
	</g>
</g>
<g transform="matrix( 1, 0, 0, 1, 0,0) ">
	<g>
		<path id="Layer3_10_MEMBER_2_MEMBER_51_1_STROKES" class="st2" d="M48.3,123.3c-0.4,0.2-0.5,0.5-0.5,0.8c0,0.3,0.2,0.5,0.5,0.7
			c0.4,0.2,0.8,0.4,1.3,0.4c0.5,0,0.9-0.1,1.3-0.4c0.4-0.2,0.6-0.4,0.6-0.7s-0.2-0.6-0.6-0.8c-0.4-0.2-0.8-0.3-1.3-0.3
			C49.1,123,48.6,123.1,48.3,123.3z"/>
	</g>
</g>
<g transform="matrix( 1, 0, 0, 1, 0,0) ">
	<g>
		<path id="Layer3_10_MEMBER_2_MEMBER_52_1_STROKES" class="st2" d="M47.7,135.6c0,0.3,0.2,0.6,0.5,0.8c0.4,0.2,0.8,0.3,1.3,0.3
			c0.5,0,0.9-0.1,1.3-0.3c0.4-0.2,0.6-0.5,0.6-0.8"/>
	</g>
</g>
<g transform="matrix( 1, 0, 0, 1, 0,0) ">
	<g>
		<path id="Layer3_10_MEMBER_2_MEMBER_53_1_STROKES" class="st2" d="M47.7,135.6V124"/>
	</g>
</g>
<g transform="matrix( 1, 0, 0, 1, 0,0) ">
	<g>
		<path id="Layer3_10_MEMBER_2_MEMBER_54_1_STROKES" class="st2" d="M51.5,135.7v-11.5"/>
	</g>
</g>
<g transform="matrix( 1, 0, 0, 1, 0,0) ">
	<g>
		<path id="Layer3_10_MEMBER_2_MEMBER_55_1_STROKES" class="st2" d="M48.1,123.9c0,0.2,0.1,0.4,0.4,0.6c0.3,0.2,0.7,0.2,1.1,0.2
			c0.4,0,0.8-0.1,1.1-0.2c0.3-0.2,0.4-0.4,0.4-0.6c0-0.3-0.2-0.5-0.4-0.6c-0.3-0.2-0.7-0.3-1.1-0.3c-0.4,0-0.8,0.1-1.1,0.3
			C48.3,123.4,48.1,123.6,48.1,123.9z"/>
	</g>
</g>
<g transform="matrix( 1, 0, 0, 1, 0,0) ">
	<g>
		<path id="Layer3_10_MEMBER_2_MEMBER_56_1_STROKES" class="st2" d="M47.7,125.3c0,0.2,0.2,0.4,0.6,0.6c0.4,0.2,0.8,0.2,1.3,0.2
			s0.9-0.1,1.3-0.3c0.3-0.2,0.5-0.4,0.5-0.8"/>
	</g>
</g>
<g transform="matrix( 1, 0, 0, 1, 0,0) ">
	<g>
		<path id="Layer3_10_MEMBER_2_MEMBER_57_1_STROKES" class="st2" d="M47.7,126.6c0,0.3,0.2,0.5,0.5,0.8c0.4,0.2,0.8,0.3,1.4,0.3
			c0.5,0,0.9-0.1,1.3-0.3c0.3-0.2,0.5-0.5,0.5-0.8"/>
	</g>
</g>
<g transform="matrix( 1, 0, 0, 1, 0,0) ">
	<g>
		<path id="Layer3_10_MEMBER_2_MEMBER_58_1_STROKES" class="st2" d="M47.7,128.2c0,0.2,0.2,0.4,0.6,0.7c0.4,0.2,0.8,0.2,1.3,0.2
			c0.5,0,0.9-0.1,1.2-0.3c0.4-0.2,0.6-0.4,0.6-0.7"/>
	</g>
</g>
<g transform="matrix( 1, 0, 0, 1, 0,0) ">
	<g>
		<path id="Layer3_10_MEMBER_2_MEMBER_59_1_STROKES" class="st2" d="M47.7,129.6c0,0.3,0.2,0.5,0.6,0.6c0.4,0.2,0.8,0.3,1.3,0.3
			s0.9-0.1,1.3-0.3c0.3-0.2,0.5-0.5,0.5-0.8"/>
	</g>
</g>
<g transform="matrix( 1, 0, 0, 1, 0,0) ">
	<g>
		<path id="Layer3_10_MEMBER_2_MEMBER_60_1_STROKES" class="st2" d="M46.9,136.9c0.3,0.5,0.7,0.8,1.2,1.1c0.5,0.3,1,0.4,1.5,0.4
			c0.6,0,1.1-0.1,1.6-0.4c0.5-0.3,0.8-0.6,1.1-1.1"/>
	</g>
</g>
<g transform="matrix( 1, 0, 0, 1, 0,0) ">
	<g>
		<path id="Layer3_10_MEMBER_2_MEMBER_61_1_STROKES" class="st2" d="M47.5,134.8c-0.7,0.4-1,0.8-1,1.3s0.3,0.9,1,1.3
			c0.6,0.4,1.3,0.6,2.1,0.6c0.9,0,1.6-0.2,2.2-0.6c0.6-0.4,0.9-0.8,0.9-1.3c0-0.6-0.4-1-1.2-1.4"/>
	</g>
</g>
<g transform="matrix( 1, 0, 0, 1, 0,0) ">
	<g>
		<g id="Layer3_11_MEMBER_0_FILL">
			<path class="st0" d="M236.6,132.7l-1.9,1.1c0.1,0.2,0.1,0.5,0.1,0.7l-0.9,1.2l-0.3,0.2c0,0.3-0.2,0.6-0.6,0.9H233l-1.4,0.8
				c-0.2,0.1-0.4,0.2-0.7,0.1c0,0-0.1,0-0.1,0l-1.4,0.8l8.1,4.8c0,0,0-0.1,0-0.1c0-0.1,0.1-0.1,0.2-0.2c0,0,0-0.1,0-0.1
				c0-0.1,0-0.1,0-0.2c0,0,0.1-0.1,0.1-0.1c0.1-0.2,0.2-0.3,0.4-0.4c0.1-0.1,0.2-0.1,0.2-0.1l2.1-1.2c0-0.3,0.2-0.6,0.4-0.8h0
				c0.1,0,0.1-0.1,0.2-0.1l1.2-0.8c0.3-0.2,0.6-0.2,1-0.1c0.1,0,0.1,0,0.2,0l0.6-0.4c0.1-0.1,0.2-0.1,0.3-0.1l-0.1,0.1
				c0.4-0.1,0.8,0.1,1.3,0.6l0.8-0.4c-0.1-0.1-0.3-0.2-0.5-0.2l0-0.3l0.2-0.2L236.6,132.7 M205.4,122.2v2.6l20,11.5v-0.4l0.2-0.2
				c0-0.1,0-0.1,0.1-0.1c0-0.2,0.1-0.4,0.3-0.4c0,0,0.1-0.1,0.1-0.1l2.4-1.3c0-0.3,0.2-0.6,0.4-0.8l1.4-0.9c0.3-0.2,0.7-0.2,1.1-0.1
				l0.6-0.4l0.4-0.1l-0.2,0.1c0.5,0,0.9,0.2,1.4,0.8l0.7-0.5c-0.1,0-0.1,0-0.1,0l-0.1-0.4l0.3-0.1l-4.5-2.8v-2l-4.2-2.4v-0.4
				l-0.2-0.2v-7.9c0-0.2,0.1-0.5,0.2-0.7l-0.4-0.3v-4L205.4,122.2 M314.1,70.4V70v-5.5l-22.8-13.1l-0.9,0.5L311,63.7v8.4L314.1,70.4
				 M314.7,70.4l-3.4,2l-29.1,48.8l-28.7,18.3v2.7l-0.5-0.3l-0.2,0.1l-4-2.3l-1.9,1.2c0.1,0.2,0.1,0.4,0.1,0.6l-0.9,1.2l-0.2,0.2
				c0,0-0.1,0.1-0.1,0.1c-0.1,0.3-0.3,0.5-0.6,0.7l-1.4,0.9c-0.3,0.2-0.6,0.2-0.9,0.1l-1.4,0.8l9.2,5.4v0.7l1.8,1.1v2.3l0.6,0.4
				l67.6-39.1v-3l7.2-4.1v-2.6l-7.4-4.2v-0.8l-1.3-0.8l-1.5,0.8c-0.7,0.4-1.4,0.5-1.9,0.2c0,0-0.1-0.1-0.1-0.1
				c-0.4-0.3-0.6-0.8-0.6-1.6l2.4,1.3l0.6-0.4l-3-1.8L314.7,70.4 M307.8,91.7c0.7-0.4,1.3-0.4,1.8-0.2c0,0,0.1,0,0.1,0.1
				c0.6,0.3,0.9,0.9,0.8,1.8l0.1,7.8c0,0.8-0.3,1.7-0.9,2.6c-0.6,1-1.2,1.7-2,2.1l-7,4.1c-0.7,0.5-1.4,0.5-2,0.2
				c0,0-0.1-0.1-0.1-0.1c-0.4-0.4-0.6-0.9-0.6-1.7c0-0.9,0.3-1.8,0.8-2.7l7.2-12C306.4,92.8,307.1,92.1,307.8,91.7z"/>
			<path class="st1" d="M318.1,101l-0.6,0.4l-2.4-1.3c0,0.7,0.2,1.2,0.6,1.6c0.1,0.1,0.1,0.1,0.1,0.1c0.5,0.3,1.1,0.2,1.9-0.2
				l1.5-0.8l-0.3-0.2L318.1,101 M309.6,91.5c-0.5-0.2-1.1-0.2-1.8,0.2c-0.7,0.4-1.4,1.1-1.9,2l-7.2,12c-0.5,0.9-0.8,1.8-0.8,2.7
				c0,0.7,0.2,1.3,0.6,1.7c0.1,0,0.1,0.1,0.1,0.1c0.6,0.3,1.3,0.3,2-0.2l7-4.1c0.8-0.4,1.4-1.1,2-2.1c0.6-1,0.9-1.8,0.9-2.6
				l-0.1-7.8C310.6,92.5,310.3,91.9,309.6,91.5C309.7,91.6,309.7,91.5,309.6,91.5 M311.3,72.4l3.4-2l-0.6-0.4v0.4l-3.1,1.8v-8.4
				l-20.6-11.9l-2.3-1.3l-63,36.4v23.9v4l0.4,0.3c-0.1,0.2-0.2,0.5-0.2,0.7v7.9l0.2,0.2v0.4l4.2,2.4v2l4.5,2.8l-0.3,0.1l0.1,0.4
				c0,0,0.1,0,0.1,0l-0.7,0.5c-0.4-0.5-0.9-0.8-1.4-0.8l0.2-0.1l-0.4,0.1l-0.6,0.4c-0.4-0.2-0.8-0.1-1.1,0.1l-1.4,0.9
				c-0.2,0.2-0.4,0.4-0.4,0.8l-2.4,1.3c-0.1,0-0.1,0-0.1,0.1c-0.2,0.1-0.3,0.2-0.3,0.4c0,0-0.1,0-0.1,0.1l-0.2,0.2v0.4
				c-0.1,0.2-0.1,0.5,0,0.9l-0.3,0.1c-0.2,0.2-0.2,0.5,0,1c0.3,0.5,0.6,0.6,0.9,0.5c0.1,0,0.1-0.1,0.2-0.1h0.1
				c0.3,0.2,0.5,0.4,0.8,0.4l0.3,0.2l0.2-0.1c0.2,0.1,0.5,0.1,0.7-0.1l1-0.6l1.4-0.8c0.1,0,0.1,0,0.1,0c0.3,0.1,0.5,0,0.7-0.1
				l1.4-0.8h0.1c0.4-0.3,0.6-0.6,0.6-0.9l0.3-0.2l0.9-1.2c0-0.2,0-0.5-0.1-0.7l1.9-1.1l9.6,5.6l-0.2,0.2l0,0.3
				c0.2,0,0.4,0.1,0.5,0.2l-0.8,0.4c-0.5-0.5-0.9-0.7-1.3-0.6l0.1-0.1c-0.1,0-0.2,0-0.3,0.1l-0.6,0.4c-0.1,0-0.1,0-0.2,0
				c-0.3-0.1-0.6-0.1-1,0.1l-1.2,0.8c-0.1,0-0.1,0.1-0.2,0.1h0c-0.2,0.2-0.4,0.5-0.4,0.8l-2.1,1.2c-0.1,0-0.1,0.1-0.2,0.1
				c-0.1,0.1-0.3,0.2-0.4,0.4c0,0,0,0.1-0.1,0.1c0,0,0,0.1,0,0.2c0,0,0,0,0,0.1c-0.1,0.1-0.1,0.1-0.2,0.2c0,0.1,0,0.1,0,0.1v0.1
				c0,0.2,0,0.5,0.1,0.8h-0.1l-0.2,0.1c-0.3,0.2-0.3,0.5,0,1c0.3,0.5,0.5,0.7,0.9,0.6l0.3-0.1c0.2,0.2,0.5,0.3,0.7,0.3l0.3,0.3
				l0.4-0.1c0.2,0,0.3-0.1,0.5-0.2h0.1l1-0.6l1.4-0.8c0.3,0.1,0.6,0.1,0.9-0.1l1.4-0.9c0.3-0.2,0.5-0.4,0.6-0.7c0-0.1,0-0.1,0.1-0.1
				l0.2-0.2l0.9-1.2c0-0.2,0-0.4-0.1-0.6l1.9-1.2l4,2.3l0.2-0.1l0.5,0.3v-2.7l28.7-18.3L311.3,72.4z"/>
		</g>
	</g>
</g>
<g transform="matrix( 1, 0, 0, 1, 0,0) ">
	<g>
		<path id="Layer3_11_MEMBER_1_MEMBER_0_1_STROKES" class="st2" d="M252.6,142l0.5-0.2"/>
	</g>
</g>
<g transform="matrix( 1, 0, 0, 1, 0,0) ">
	<g>
		<path id="Layer3_11_MEMBER_1_MEMBER_1_1_STROKES" class="st2" d="M252.6,142v-5.5"/>
	</g>
</g>
<g transform="matrix( 1, 0, 0, 1, 0,0) ">
	<g>
		<path id="Layer3_11_MEMBER_1_MEMBER_2_1_STROKES" class="st2" d="M247.7,139.1l5,2.8"/>
	</g>
</g>
<g transform="matrix( 1, 0, 0, 1, 0,0) ">
	<g>
		<path id="Layer3_11_MEMBER_1_MEMBER_3_1_STROKES" class="st2" d="M311,72.2v-8.5"/>
	</g>
</g>
<g transform="matrix( 1, 0, 0, 1, 0,0) ">
	<g>
		<path id="Layer3_11_MEMBER_1_MEMBER_4_1_STROKES" class="st2" d="M288,50.5L311,63.7"/>
	</g>
</g>
<g transform="matrix( 1, 0, 0, 1, 0,0) ">
	<g>
		<path id="Layer3_11_MEMBER_1_MEMBER_5_1_STROKES" class="st2" d="M248.2,137v-7.9"/>
	</g>
</g>
<g transform="matrix( 1, 0, 0, 1, 0,0) ">
	<g>
		<path id="Layer3_11_MEMBER_1_MEMBER_6_1_STROKES" class="st2" d="M248,128.1v-28"/>
	</g>
</g>
<g transform="matrix( 1, 0, 0, 1, 0,0) ">
	<g>
		<path id="Layer3_11_MEMBER_1_MEMBER_7_1_STROKES" class="st2" d="M225.1,86.9l23,13.2L311,63.7"/>
	</g>
</g>
<g transform="matrix( 1, 0, 0, 1, 0,0) ">
	<g>
		<path id="Layer3_11_MEMBER_1_MEMBER_8_1_STROKES" class="st2" d="M225.1,86.9l63-36.4"/>
	</g>
</g>
<g transform="matrix( 1, 0, 0, 1, 0,0) ">
	<g>
		<path id="Layer3_11_MEMBER_1_MEMBER_9_1_STROKES" class="st2" d="M225.5,121.7l22.2,12.8v-6.6"/>
	</g>
</g>
<g transform="matrix( 1, 0, 0, 1, 0,0) ">
	<g>
		<path id="Layer3_11_MEMBER_1_MEMBER_10_1_STROKES" class="st2" d="M249.8,136.1v-7.9"/>
	</g>
</g>
<g transform="matrix( 1, 0, 0, 1, 0,0) ">
	<g>
		<path id="Layer3_11_MEMBER_1_MEMBER_11_1_STROKES" class="st2" d="M248.2,137l1.5-0.9"/>
	</g>
</g>
<g transform="matrix( 1, 0, 0, 1, 0,0) ">
	<g>
		<path id="Layer3_11_MEMBER_1_MEMBER_12_1_STROKES" class="st2" d="M247.8,136.8l0.4,0.2"/>
	</g>
</g>
<g transform="matrix( 1, 0, 0, 1, 0,0) ">
	<g>
		<path id="Layer3_11_MEMBER_1_MEMBER_13_1_STROKES" class="st2" d="M249.2,127.5l0.4,0.2"/>
	</g>
</g>
<g transform="matrix( 1, 0, 0, 1, 0,0) ">
	<g>
		<path id="Layer3_11_MEMBER_1_MEMBER_14_1_STROKES" class="st2" d="M247.8,136.8v-7.9"/>
	</g>
</g>
<g transform="matrix( 1, 0, 0, 1, 0,0) ">
	<g>
		<path id="Layer3_11_MEMBER_1_MEMBER_15_1_STROKES" class="st2" d="M225.5,122.1l22.2,12.7"/>
	</g>
</g>
<g transform="matrix( 1, 0, 0, 1, 0,0) ">
	<g>
		<path id="Layer3_11_MEMBER_1_MEMBER_16_1_STROKES" class="st2" d="M225.5,124.3l22.2,12.8v-2.2"/>
	</g>
</g>
<g transform="matrix( 1, 0, 0, 1, 0,0) ">
	<g>
		<path id="Layer3_11_MEMBER_1_MEMBER_17_1_STROKES" class="st2" d="M247.7,137.1l0.4-0.2"/>
	</g>
</g>
<g transform="matrix( 1, 0, 0, 1, 0,0) ">
	<g>
		<path id="Layer3_11_MEMBER_1_MEMBER_18_1_STROKES" class="st2" d="M249.6,127.7c-0.4-0.2-0.8,0-1.1,0.7c-0.2,0.3-0.2,0.5-0.2,0.7"
			/>
	</g>
</g>
<g transform="matrix( 1, 0, 0, 1, 0,0) ">
	<g>
		<path id="Layer3_11_MEMBER_1_MEMBER_19_1_STROKES" class="st2" d="M249.8,128.2c0-0.3-0.1-0.4-0.2-0.5"/>
	</g>
</g>
<g transform="matrix( 1, 0, 0, 1, 0,0) ">
	<g>
		<path id="Layer3_11_MEMBER_1_MEMBER_20_1_STROKES" class="st2" d="M248,128.1c-0.1,0.3-0.2,0.5-0.2,0.7"/>
	</g>
</g>
<g transform="matrix( 1, 0, 0, 1, 0,0) ">
	<g>
		<path id="Layer3_11_MEMBER_1_MEMBER_21_1_STROKES" class="st2" d="M229.7,128.7l4.6,2.8"/>
	</g>
</g>
<g transform="matrix( 1, 0, 0, 1, 0,0) ">
	<g>
		<path id="Layer3_11_MEMBER_1_MEMBER_22_1_STROKES" class="st2" d="M225.3,123.7v-7.9"/>
	</g>
</g>
<g transform="matrix( 1, 0, 0, 1, 0,0) ">
	<g>
		<path id="Layer3_11_MEMBER_1_MEMBER_23_1_STROKES" class="st2" d="M225.1,114.8V86.9"/>
	</g>
</g>
<g transform="matrix( 1, 0, 0, 1, 0,0) ">
	<g>
		<path id="Layer3_11_MEMBER_1_MEMBER_24_1_STROKES" class="st2" d="M247.7,127.9l0.4,0.2"/>
	</g>
</g>
<g transform="matrix( 1, 0, 0, 1, 0,0) ">
	<g>
		<path id="Layer3_11_MEMBER_1_MEMBER_25_1_STROKES" class="st2" d="M225.5,121.7V115"/>
	</g>
</g>
<g transform="matrix( 1, 0, 0, 1, 0,0) ">
	<g>
		<path id="Layer3_11_MEMBER_1_MEMBER_26_1_STROKES" class="st2" d="M225.3,123.7l0.2,0.2"/>
	</g>
</g>
<g transform="matrix( 1, 0, 0, 1, 0,0) ">
	<g>
		<path id="Layer3_11_MEMBER_1_MEMBER_27_1_STROKES" class="st2" d="M225.7,122v-0.2"/>
	</g>
</g>
<g transform="matrix( 1, 0, 0, 1, 0,0) ">
	<g>
		<path id="Layer3_11_MEMBER_1_MEMBER_28_1_STROKES" class="st2" d="M225.5,124.3v-2.1l0.3-0.2"/>
	</g>
</g>
<g transform="matrix( 1, 0, 0, 1, 0,0) ">
	<g>
		<path id="Layer3_11_MEMBER_1_MEMBER_29_1_STROKES" class="st2" d="M225.5,115.1c-0.1,0.2-0.2,0.5-0.2,0.7"/>
	</g>
</g>
<g transform="matrix( 1, 0, 0, 1, 0,0) ">
	<g>
		<path id="Layer3_11_MEMBER_1_MEMBER_30_1_STROKES" class="st2" d="M235.8,132.3l10.4,5.9"/>
	</g>
</g>
<g transform="matrix( 1, 0, 0, 1, 0,0) ">
	<g>
		<path id="Layer3_11_MEMBER_1_MEMBER_31_1_STROKES" class="st2" d="M246.4,138.1v-1.7"/>
	</g>
</g>
<g transform="matrix( 1, 0, 0, 1, 0,0) ">
	<g>
		<path id="Layer3_11_MEMBER_1_MEMBER_32_1_STROKES" class="st2" d="M247.7,139.1v-2"/>
	</g>
</g>
<g transform="matrix( 1, 0, 0, 1, 0,0) ">
	<g>
		<path id="Layer3_11_MEMBER_1_MEMBER_33_1_STROKES" class="st2" d="M229.7,128.7v-2"/>
	</g>
</g>
<g transform="matrix( 1, 0, 0, 1, 0,0) ">
	<g>
		<path id="Layer3_11_MEMBER_1_MEMBER_34_1_STROKES" class="st2" d="M234.6,131.3v-1.8"/>
	</g>
</g>
<g transform="matrix( 1, 0, 0, 1, 0,0) ">
	<g>
		<path id="Layer3_11_MEMBER_1_MEMBER_35_1_STROKES" class="st2" d="M235.8,132.3v-2"/>
	</g>
</g>
<g transform="matrix( 1, 0, 0, 1, 0,0) ">
	<g>
		<path id="Layer3_11_MEMBER_1_MEMBER_36_1_STROKES" class="st2" d="M252.6,136.5l-2.8-1.2"/>
	</g>
</g>
<g transform="matrix( 1, 0, 0, 1, 0,0) ">
	<g>
		<path id="Layer3_11_MEMBER_1_MEMBER_37_1_STROKES" class="st2" d="M250,128.2c0-0.3-0.1-0.6-0.3-0.7c-0.2-0.1-0.4-0.1-0.7,0.1"/>
	</g>
</g>
<g transform="matrix( 1, 0, 0, 1, 0,0) ">
	<g>
		<path id="Layer3_11_MEMBER_1_MEMBER_38_1_STROKES" class="st2" d="M248,128.1l0.9-0.5"/>
	</g>
</g>
<g transform="matrix( 1, 0, 0, 1, 0,0) ">
	<g>
		<path id="Layer3_11_MEMBER_1_MEMBER_39_1_STROKES" class="st2" d="M250,135.1v-6.9"/>
	</g>
</g>
<g transform="matrix( 1, 0, 0, 1, 0,0) ">
	<g>
		<path id="Layer3_11_MEMBER_1_MEMBER_40_1_STROKES" class="st2" d="M252.8,136.3l-2.9-1.1"/>
	</g>
</g>
<g transform="matrix( 1, 0, 0, 1, 0,0) ">
	<g>
		<path id="Layer3_11_MEMBER_1_MEMBER_41_1_STROKES" class="st2" d="M252.8,141.9v-5.7"/>
	</g>
</g>
<g transform="matrix( 1, 0, 0, 1, 0,0) ">
	<g>
		<path id="Layer3_11_MEMBER_1_MEMBER_42_1_STROKES" class="st2" d="M235.9,132c-0.5-0.4-0.9-0.6-1.3-0.7"/>
	</g>
</g>
<g transform="matrix( 1, 0, 0, 1, 0,0) ">
	<g>
		<path id="Layer3_11_MEMBER_1_MEMBER_43_1_STROKES" class="st2" d="M235.2,132.3c-0.4-0.4-0.8-0.7-1.2-0.8"/>
	</g>
</g>
<g transform="matrix( 1, 0, 0, 1, 0,0) ">
	<g>
		<path id="Layer3_11_MEMBER_1_MEMBER_44_1_STROKES" class="st2" d="M234.6,131.3l-0.6,0.2"/>
	</g>
</g>
<g transform="matrix( 1, 0, 0, 1, 0,0) ">
	<g>
		<path id="Layer3_11_MEMBER_1_MEMBER_45_1_STROKES" class="st2" d="M235.8,132l-0.5,0.4"/>
	</g>
</g>
<g transform="matrix( 1, 0, 0, 1, 0,0) ">
	<g>
		<path id="Layer3_11_MEMBER_1_MEMBER_46_1_STROKES" class="st2" d="M235.2,132.7c-0.4-0.4-0.8-0.7-1.1-0.8"/>
	</g>
</g>
<g transform="matrix( 1, 0, 0, 1, 0,0) ">
	<g>
		<path id="Layer3_11_MEMBER_1_MEMBER_47_1_STROKES" class="st2" d="M235.8,132.3l-0.5,0.4"/>
	</g>
</g>
<g transform="matrix( 1, 0, 0, 1, 0,0) ">
	<g>
		<path id="Layer3_11_MEMBER_1_MEMBER_48_1_STROKES" class="st2" d="M235.3,132.3v0.4"/>
	</g>
</g>
<g transform="matrix( 1, 0, 0, 1, 0,0) ">
	<g>
		<path id="Layer3_11_MEMBER_1_MEMBER_49_1_STROKES" class="st2" d="M234,131.6v0.4"/>
	</g>
</g>
<g transform="matrix( 1, 0, 0, 1, 0,0) ">
	<g>
		<path id="Layer3_11_MEMBER_1_MEMBER_50_1_STROKES" class="st2" d="M247.6,138.8c-0.5-0.3-0.9-0.5-1.2-0.6"/>
	</g>
</g>
<g transform="matrix( 1, 0, 0, 1, 0,0) ">
	<g>
		<path id="Layer3_11_MEMBER_1_MEMBER_51_1_STROKES" class="st2" d="M247.1,139.1c-0.3-0.3-0.7-0.5-1.2-0.7"/>
	</g>
</g>
<g transform="matrix( 1, 0, 0, 1, 0,0) ">
	<g>
		<path id="Layer3_11_MEMBER_1_MEMBER_52_1_STROKES" class="st2" d="M246.4,138.1l-0.6,0.3"/>
	</g>
</g>
<g transform="matrix( 1, 0, 0, 1, 0,0) ">
	<g>
		<path id="Layer3_11_MEMBER_1_MEMBER_53_1_STROKES" class="st2" d="M247.7,138.8l-0.6,0.4"/>
	</g>
</g>
<g transform="matrix( 1, 0, 0, 1, 0,0) ">
	<g>
		<path id="Layer3_11_MEMBER_1_MEMBER_54_1_STROKES" class="st2" d="M247.1,139.5c-0.4-0.4-0.8-0.6-1.2-0.7"/>
	</g>
</g>
<g transform="matrix( 1, 0, 0, 1, 0,0) ">
	<g>
		<path id="Layer3_11_MEMBER_1_MEMBER_55_1_STROKES" class="st2" d="M247.7,139.1l-0.6,0.3"/>
	</g>
</g>
<g transform="matrix( 1, 0, 0, 1, 0,0) ">
	<g>
		<path id="Layer3_11_MEMBER_1_MEMBER_56_1_STROKES" class="st2" d="M247.1,139.1v0.3"/>
	</g>
</g>
<g transform="matrix( 1, 0, 0, 1, 0,0) ">
	<g>
		<path id="Layer3_11_MEMBER_1_MEMBER_57_1_STROKES" class="st2" d="M245.8,138.4v0.3"/>
	</g>
</g>
<g transform="matrix( 1, 0, 0, 1, 0,0) ">
	<g>
		<path id="Layer3_11_MEMBER_1_MEMBER_58_1_STROKES" class="st2" d="M225.1,114.8l0.4,0.2"/>
	</g>
</g>
<g transform="matrix( 1, 0, 0, 1, 0,0) ">
	<g>
		<path id="Layer3_11_MEMBER_1_MEMBER_59_1_STROKES" class="st2" d="M225.1,93.2l23,13.2"/>
	</g>
</g>
<g transform="matrix( 1, 0, 0, 1, 0,0) ">
	<g>
		<path id="Layer3_11_MEMBER_1_MEMBER_60_1_STROKES" class="st2" d="M245.1,123.7v-19"/>
	</g>
</g>
<g transform="matrix( 1, 0, 0, 1, 0,0) ">
	<g>
		<path id="Layer3_11_MEMBER_1_MEMBER_61_1_STROKES" class="st2" d="M227.1,113.3v-1.5"/>
	</g>
</g>
<g transform="matrix( 1, 0, 0, 1, 0,0) ">
	<g>
		<path id="Layer3_11_MEMBER_1_MEMBER_62_1_STROKES" class="st2" d="M227.1,96.6v-2.3"/>
	</g>
</g>
<g transform="matrix( 1, 0, 0, 1, 0,0) ">
	<g>
		<path id="Layer3_11_MEMBER_1_MEMBER_63_1_STROKES" class="st2" d="M227.1,113.3l18.8,10.9"/>
	</g>
</g>
<g transform="matrix( 1, 0, 0, 1, 0,0) ">
	<g>
		<path id="Layer3_11_MEMBER_1_MEMBER_64_1_STROKES" class="st2" d="M243.1,117.8v-7.3"/>
	</g>
</g>
<g transform="matrix( 1, 0, 0, 1, 0,0) ">
	<g>
		<path id="Layer3_11_MEMBER_1_MEMBER_65_1_STROKES" class="st2" d="M242.6,117.6v-7.3"/>
	</g>
</g>
<g transform="matrix( 1, 0, 0, 1, 0,0) ">
	<g>
		<path id="Layer3_11_MEMBER_1_MEMBER_66_1_STROKES" class="st2" d="M241.5,117v-7.3"/>
	</g>
</g>
<g transform="matrix( 1, 0, 0, 1, 0,0) ">
	<g>
		<path id="Layer3_11_MEMBER_1_MEMBER_67_1_STROKES" class="st2" d="M241.1,116.7v-7.3"/>
	</g>
</g>
<g transform="matrix( 1, 0, 0, 1, 0,0) ">
	<g>
		<path id="Layer3_11_MEMBER_1_MEMBER_68_1_STROKES" class="st2" d="M240,116.1v-7.3"/>
	</g>
</g>
<g transform="matrix( 1, 0, 0, 1, 0,0) ">
	<g>
		<path id="Layer3_11_MEMBER_1_MEMBER_69_1_STROKES" class="st2" d="M239.5,115.8v-7.3"/>
	</g>
</g>
<g transform="matrix( 1, 0, 0, 1, 0,0) ">
	<g>
		<path id="Layer3_11_MEMBER_1_MEMBER_70_1_STROKES" class="st2" d="M238.5,115.2v-7.3"/>
	</g>
</g>
<g transform="matrix( 1, 0, 0, 1, 0,0) ">
	<g>
		<path id="Layer3_11_MEMBER_1_MEMBER_71_1_STROKES" class="st2" d="M237.9,115v-7.4"/>
	</g>
</g>
<g transform="matrix( 1, 0, 0, 1, 0,0) ">
	<g>
		<path id="Layer3_11_MEMBER_1_MEMBER_72_1_STROKES" class="st2" d="M237,114.3V107"/>
	</g>
</g>
<g transform="matrix( 1, 0, 0, 1, 0,0) ">
	<g>
		<path id="Layer3_11_MEMBER_1_MEMBER_73_1_STROKES" class="st2" d="M236.5,114v-7.3"/>
	</g>
</g>
<g transform="matrix( 1, 0, 0, 1, 0,0) ">
	<g>
		<path id="Layer3_11_MEMBER_1_MEMBER_74_1_STROKES" class="st2" d="M235.4,113.5v-7.3"/>
	</g>
</g>
<g transform="matrix( 1, 0, 0, 1, 0,0) ">
	<g>
		<path id="Layer3_11_MEMBER_1_MEMBER_75_1_STROKES" class="st2" d="M235,113.2v-7.3"/>
	</g>
</g>
<g transform="matrix( 1, 0, 0, 1, 0,0) ">
	<g>
		<path id="Layer3_11_MEMBER_1_MEMBER_76_1_STROKES" class="st2" d="M232.3,111.7v-7.3"/>
	</g>
</g>
<g transform="matrix( 1, 0, 0, 1, 0,0) ">
	<g>
		<path id="Layer3_11_MEMBER_1_MEMBER_77_1_STROKES" class="st2" d="M231.8,111.4v-7.3"/>
	</g>
</g>
<g transform="matrix( 1, 0, 0, 1, 0,0) ">
	<g>
		<path id="Layer3_11_MEMBER_1_MEMBER_78_1_STROKES" class="st2" d="M230.8,110.8v-7.3"/>
	</g>
</g>
<g transform="matrix( 1, 0, 0, 1, 0,0) ">
	<g>
		<path id="Layer3_11_MEMBER_1_MEMBER_79_1_STROKES" class="st2" d="M230.3,110.5v-7.3"/>
	</g>
</g>
<g transform="matrix( 1, 0, 0, 1, 0,0) ">
	<g>
		<path id="Layer3_11_MEMBER_1_MEMBER_80_1_STROKES" class="st2" d="M229.3,109.9v-7.3"/>
	</g>
</g>
<g transform="matrix( 1, 0, 0, 1, 0,0) ">
	<g>
		<path id="Layer3_11_MEMBER_1_MEMBER_81_1_STROKES" class="st2" d="M228.8,109.6v-7.3"/>
	</g>
</g>
<g transform="matrix( 1, 0, 0, 1, 0,0) ">
	<g>
		<path id="Layer3_11_MEMBER_1_MEMBER_82_1_STROKES" class="st2" d="M227.8,109.1v-7.4"/>
	</g>
</g>
<g transform="matrix( 1, 0, 0, 1, 0,0) ">
	<g>
		<path id="Layer3_11_MEMBER_1_MEMBER_83_1_STROKES" class="st2" d="M227.2,108.7v-7.3"/>
	</g>
</g>
<g transform="matrix( 1, 0, 0, 1, 0,0) ">
	<g>
		<path id="Layer3_11_MEMBER_1_MEMBER_84_1_STROKES" class="st2" d="M226.2,108.1v-7.4"/>
	</g>
</g>
<g transform="matrix( 1, 0, 0, 1, 0,0) ">
	<g>
		<path id="Layer3_11_MEMBER_1_MEMBER_85_1_STROKES" class="st2" d="M225.7,107.9v-7.4l0.5,0.2"/>
	</g>
</g>
<g transform="matrix( 1, 0, 0, 1, 0,0) ">
	<g>
		<path id="Layer3_11_MEMBER_1_MEMBER_86_1_STROKES" class="st2" d="M227.2,101.4l0.6,0.2"/>
	</g>
</g>
<g transform="matrix( 1, 0, 0, 1, 0,0) ">
	<g>
		<path id="Layer3_11_MEMBER_1_MEMBER_87_1_STROKES" class="st2" d="M228.8,102.3l0.5,0.4"/>
	</g>
</g>
<g transform="matrix( 1, 0, 0, 1, 0,0) ">
	<g>
		<path id="Layer3_11_MEMBER_1_MEMBER_88_1_STROKES" class="st2" d="M230.3,103.2l0.5,0.3"/>
	</g>
</g>
<g transform="matrix( 1, 0, 0, 1, 0,0) ">
	<g>
		<path id="Layer3_11_MEMBER_1_MEMBER_89_1_STROKES" class="st2" d="M231.8,104.1l0.5,0.3"/>
	</g>
</g>
<g transform="matrix( 1, 0, 0, 1, 0,0) ">
	<g>
		<path id="Layer3_11_MEMBER_1_MEMBER_90_1_STROKES" class="st2" d="M235,105.9l0.5,0.2"/>
	</g>
</g>
<g transform="matrix( 1, 0, 0, 1, 0,0) ">
	<g>
		<path id="Layer3_11_MEMBER_1_MEMBER_91_1_STROKES" class="st2" d="M236.5,106.7l0.5,0.3"/>
	</g>
</g>
<g transform="matrix( 1, 0, 0, 1, 0,0) ">
	<g>
		<path id="Layer3_11_MEMBER_1_MEMBER_92_1_STROKES" class="st2" d="M237.9,107.6l0.5,0.3"/>
	</g>
</g>
<g transform="matrix( 1, 0, 0, 1, 0,0) ">
	<g>
		<path id="Layer3_11_MEMBER_1_MEMBER_93_1_STROKES" class="st2" d="M239.5,108.5l0.5,0.3"/>
	</g>
</g>
<g transform="matrix( 1, 0, 0, 1, 0,0) ">
	<g>
		<path id="Layer3_11_MEMBER_1_MEMBER_94_1_STROKES" class="st2" d="M241.1,109.4l0.5,0.2"/>
	</g>
</g>
<g transform="matrix( 1, 0, 0, 1, 0,0) ">
	<g>
		<path id="Layer3_11_MEMBER_1_MEMBER_95_1_STROKES" class="st2" d="M242.6,110.2l0.5,0.3"/>
	</g>
</g>
<g transform="matrix( 1, 0, 0, 1, 0,0) ">
	<g>
		<path id="Layer3_11_MEMBER_1_MEMBER_96_1_STROKES" class="st2" d="M225.7,107.9l0.5,0.2"/>
	</g>
</g>
<g transform="matrix( 1, 0, 0, 1, 0,0) ">
	<g>
		<path id="Layer3_11_MEMBER_1_MEMBER_97_1_STROKES" class="st2" d="M227.2,108.7l0.6,0.3"/>
	</g>
</g>
<g transform="matrix( 1, 0, 0, 1, 0,0) ">
	<g>
		<path id="Layer3_11_MEMBER_1_MEMBER_98_1_STROKES" class="st2" d="M228.8,109.6l0.5,0.3"/>
	</g>
</g>
<g transform="matrix( 1, 0, 0, 1, 0,0) ">
	<g>
		<path id="Layer3_11_MEMBER_1_MEMBER_99_1_STROKES" class="st2" d="M235,113.2l0.5,0.3"/>
	</g>
</g>
<g transform="matrix( 1, 0, 0, 1, 0,0) ">
	<g>
		<path id="Layer3_11_MEMBER_1_MEMBER_100_1_STROKES" class="st2" d="M237.9,115l0.5,0.2"/>
	</g>
</g>
<g transform="matrix( 1, 0, 0, 1, 0,0) ">
	<g>
		<path id="Layer3_11_MEMBER_1_MEMBER_101_1_STROKES" class="st2" d="M239.5,115.8l0.5,0.2"/>
	</g>
</g>
<g transform="matrix( 1, 0, 0, 1, 0,0) ">
	<g>
		<path id="Layer3_11_MEMBER_1_MEMBER_102_1_STROKES" class="st2" d="M241.1,116.7l0.5,0.3"/>
	</g>
</g>
<g transform="matrix( 1, 0, 0, 1, 0,0) ">
	<g>
		<path id="Layer3_11_MEMBER_1_MEMBER_103_1_STROKES" class="st2" d="M242.6,117.6l0.5,0.2"/>
	</g>
</g>
<g transform="matrix( 1, 0, 0, 1, 0,0) ">
	<g>
		<path id="Layer3_11_MEMBER_1_MEMBER_104_1_STROKES" class="st2" d="M227.8,94.7l-2.1,5.8"/>
	</g>
</g>
<g transform="matrix( 1, 0, 0, 1, 0,0) ">
	<g>
		<path id="Layer3_11_MEMBER_1_MEMBER_105_1_STROKES" class="st2" d="M225.7,107.9l2.1,5.8"/>
	</g>
</g>
<g transform="matrix( 1, 0, 0, 1, 0,0) ">
	<g>
		<path id="Layer3_11_MEMBER_1_MEMBER_106_1_STROKES" class="st2" d="M228.3,95l-2.1,5.8"/>
	</g>
</g>
<g transform="matrix( 1, 0, 0, 1, 0,0) ">
	<g>
		<path id="Layer3_11_MEMBER_1_MEMBER_107_1_STROKES" class="st2" d="M226.2,108.1l2.1,5.8"/>
	</g>
</g>
<g transform="matrix( 1, 0, 0, 1, 0,0) ">
	<g>
		<path id="Layer3_11_MEMBER_1_MEMBER_108_1_STROKES" class="st2" d="M229.3,95.6l-2.1,5.8"/>
	</g>
</g>
<g transform="matrix( 1, 0, 0, 1, 0,0) ">
	<g>
		<path id="Layer3_11_MEMBER_1_MEMBER_109_1_STROKES" class="st2" d="M227.2,108.7l2.1,5.8"/>
	</g>
</g>
<g transform="matrix( 1, 0, 0, 1, 0,0) ">
	<g>
		<path id="Layer3_11_MEMBER_1_MEMBER_110_1_STROKES" class="st2" d="M229.8,95.9l-2,5.8"/>
	</g>
</g>
<g transform="matrix( 1, 0, 0, 1, 0,0) ">
	<g>
		<path id="Layer3_11_MEMBER_1_MEMBER_111_1_STROKES" class="st2" d="M227.8,109.1l2,5.8"/>
	</g>
</g>
<g transform="matrix( 1, 0, 0, 1, 0,0) ">
	<g>
		<path id="Layer3_11_MEMBER_1_MEMBER_112_1_STROKES" class="st2" d="M230.8,96.5l-2,5.8"/>
	</g>
</g>
<g transform="matrix( 1, 0, 0, 1, 0,0) ">
	<g>
		<path id="Layer3_11_MEMBER_1_MEMBER_113_1_STROKES" class="st2" d="M228.8,109.6l2,5.9"/>
	</g>
</g>
<g transform="matrix( 1, 0, 0, 1, 0,0) ">
	<g>
		<path id="Layer3_11_MEMBER_1_MEMBER_114_1_STROKES" class="st2" d="M231.3,96.8l-2,5.8"/>
	</g>
</g>
<g transform="matrix( 1, 0, 0, 1, 0,0) ">
	<g>
		<path id="Layer3_11_MEMBER_1_MEMBER_115_1_STROKES" class="st2" d="M229.3,109.9l2,5.8"/>
	</g>
</g>
<g transform="matrix( 1, 0, 0, 1, 0,0) ">
	<g>
		<path id="Layer3_11_MEMBER_1_MEMBER_116_1_STROKES" class="st2" d="M232.3,97.3l-2,5.8"/>
	</g>
</g>
<g transform="matrix( 1, 0, 0, 1, 0,0) ">
	<g>
		<path id="Layer3_11_MEMBER_1_MEMBER_117_1_STROKES" class="st2" d="M230.3,110.5l2,5.8"/>
	</g>
</g>
<g transform="matrix( 1, 0, 0, 1, 0,0) ">
	<g>
		<path id="Layer3_11_MEMBER_1_MEMBER_118_1_STROKES" class="st2" d="M232.8,97.6l-2,5.8"/>
	</g>
</g>
<g transform="matrix( 1, 0, 0, 1, 0,0) ">
	<g>
		<path id="Layer3_11_MEMBER_1_MEMBER_119_1_STROKES" class="st2" d="M230.8,110.8l2,5.8"/>
	</g>
</g>
<g transform="matrix( 1, 0, 0, 1, 0,0) ">
	<g>
		<path id="Layer3_11_MEMBER_1_MEMBER_120_1_STROKES" class="st2" d="M233.9,98.3l-2.1,5.8"/>
	</g>
</g>
<g transform="matrix( 1, 0, 0, 1, 0,0) ">
	<g>
		<path id="Layer3_11_MEMBER_1_MEMBER_121_1_STROKES" class="st2" d="M231.8,111.4l2.1,5.8"/>
	</g>
</g>
<g transform="matrix( 1, 0, 0, 1, 0,0) ">
	<g>
		<path id="Layer3_11_MEMBER_1_MEMBER_122_1_STROKES" class="st2" d="M234.4,98.6l-2.1,5.8"/>
	</g>
</g>
<g transform="matrix( 1, 0, 0, 1, 0,0) ">
	<g>
		<path id="Layer3_11_MEMBER_1_MEMBER_123_1_STROKES" class="st2" d="M232.3,111.7l2.1,5.8"/>
	</g>
</g>
<g transform="matrix( 1, 0, 0, 1, 0,0) ">
	<g>
		<path id="Layer3_11_MEMBER_1_MEMBER_124_1_STROKES" class="st2" d="M237,100.1l-2,5.8"/>
	</g>
</g>
<g transform="matrix( 1, 0, 0, 1, 0,0) ">
	<g>
		<path id="Layer3_11_MEMBER_1_MEMBER_125_1_STROKES" class="st2" d="M235,113.2l2,5.8"/>
	</g>
</g>
<g transform="matrix( 1, 0, 0, 1, 0,0) ">
	<g>
		<path id="Layer3_11_MEMBER_1_MEMBER_126_1_STROKES" class="st2" d="M237.4,100.3l-2,5.9"/>
	</g>
</g>
<g transform="matrix( 1, 0, 0, 1, 0,0) ">
	<g>
		<path id="Layer3_11_MEMBER_1_MEMBER_127_1_STROKES" class="st2" d="M235.4,113.5l2,5.8"/>
	</g>
</g>
<g transform="matrix( 1, 0, 0, 1, 0,0) ">
	<g>
		<path id="Layer3_11_MEMBER_1_MEMBER_128_1_STROKES" class="st2" d="M238.5,100.9l-2,5.8"/>
	</g>
</g>
<g transform="matrix( 1, 0, 0, 1, 0,0) ">
	<g>
		<path id="Layer3_11_MEMBER_1_MEMBER_129_1_STROKES" class="st2" d="M236.5,114l2,5.9"/>
	</g>
</g>
<g transform="matrix( 1, 0, 0, 1, 0,0) ">
	<g>
		<path id="Layer3_11_MEMBER_1_MEMBER_130_1_STROKES" class="st2" d="M239,101.2l-2,5.8"/>
	</g>
</g>
<g transform="matrix( 1, 0, 0, 1, 0,0) ">
	<g>
		<path id="Layer3_11_MEMBER_1_MEMBER_131_1_STROKES" class="st2" d="M237,114.3l2,5.8"/>
	</g>
</g>
<g transform="matrix( 1, 0, 0, 1, 0,0) ">
	<g>
		<path id="Layer3_11_MEMBER_1_MEMBER_132_1_STROKES" class="st2" d="M240,101.8l-2.1,5.8"/>
	</g>
</g>
<g transform="matrix( 1, 0, 0, 1, 0,0) ">
	<g>
		<path id="Layer3_11_MEMBER_1_MEMBER_133_1_STROKES" class="st2" d="M237.9,115l2.1,5.8"/>
	</g>
</g>
<g transform="matrix( 1, 0, 0, 1, 0,0) ">
	<g>
		<path id="Layer3_11_MEMBER_1_MEMBER_134_1_STROKES" class="st2" d="M240.5,102.1l-2.1,5.8"/>
	</g>
</g>
<g transform="matrix( 1, 0, 0, 1, 0,0) ">
	<g>
		<path id="Layer3_11_MEMBER_1_MEMBER_135_1_STROKES" class="st2" d="M238.5,115.2l2.1,5.8"/>
	</g>
</g>
<g transform="matrix( 1, 0, 0, 1, 0,0) ">
	<g>
		<path id="Layer3_11_MEMBER_1_MEMBER_136_1_STROKES" class="st2" d="M241.5,102.7l-2,5.8"/>
	</g>
</g>
<g transform="matrix( 1, 0, 0, 1, 0,0) ">
	<g>
		<path id="Layer3_11_MEMBER_1_MEMBER_137_1_STROKES" class="st2" d="M239.5,115.8l2,5.8"/>
	</g>
</g>
<g transform="matrix( 1, 0, 0, 1, 0,0) ">
	<g>
		<path id="Layer3_11_MEMBER_1_MEMBER_138_1_STROKES" class="st2" d="M242,103l-2,5.8"/>
	</g>
</g>
<g transform="matrix( 1, 0, 0, 1, 0,0) ">
	<g>
		<path id="Layer3_11_MEMBER_1_MEMBER_139_1_STROKES" class="st2" d="M240,116.1l2,5.9"/>
	</g>
</g>
<g transform="matrix( 1, 0, 0, 1, 0,0) ">
	<g>
		<path id="Layer3_11_MEMBER_1_MEMBER_140_1_STROKES" class="st2" d="M243.1,103.5l-2,5.9"/>
	</g>
</g>
<g transform="matrix( 1, 0, 0, 1, 0,0) ">
	<g>
		<path id="Layer3_11_MEMBER_1_MEMBER_141_1_STROKES" class="st2" d="M241.1,116.7l2,5.8"/>
	</g>
</g>
<g transform="matrix( 1, 0, 0, 1, 0,0) ">
	<g>
		<path id="Layer3_11_MEMBER_1_MEMBER_142_1_STROKES" class="st2" d="M243.6,103.9l-2,5.8"/>
	</g>
</g>
<g transform="matrix( 1, 0, 0, 1, 0,0) ">
	<g>
		<path id="Layer3_11_MEMBER_1_MEMBER_143_1_STROKES" class="st2" d="M241.5,117l2,5.8"/>
	</g>
</g>
<g transform="matrix( 1, 0, 0, 1, 0,0) ">
	<g>
		<path id="Layer3_11_MEMBER_1_MEMBER_144_1_STROKES" class="st2" d="M244.6,104.4l-2,5.8"/>
	</g>
</g>
<g transform="matrix( 1, 0, 0, 1, 0,0) ">
	<g>
		<path id="Layer3_11_MEMBER_1_MEMBER_145_1_STROKES" class="st2" d="M242.6,117.6l2,5.9"/>
	</g>
</g>
<g transform="matrix( 1, 0, 0, 1, 0,0) ">
	<g>
		<path id="Layer3_11_MEMBER_1_MEMBER_146_1_STROKES" class="st2" d="M245.1,104.7l-2,5.8"/>
	</g>
</g>
<g transform="matrix( 1, 0, 0, 1, 0,0) ">
	<g>
		<path id="Layer3_11_MEMBER_1_MEMBER_147_1_STROKES" class="st2" d="M243.1,117.8l2,5.9"/>
	</g>
</g>
<g transform="matrix( 1, 0, 0, 1, 0,0) ">
	<g>
		<path id="Layer3_11_MEMBER_1_MEMBER_148_1_STROKES" class="st2" d="M231.8,111.4l0.5,0.2"/>
	</g>
</g>
<g transform="matrix( 1, 0, 0, 1, 0,0) ">
	<g>
		<path id="Layer3_11_MEMBER_1_MEMBER_149_1_STROKES" class="st2" d="M230.3,110.5l0.5,0.3"/>
	</g>
</g>
<g transform="matrix( 1, 0, 0, 1, 0,0) ">
	<g>
		<path id="Layer3_11_MEMBER_1_MEMBER_150_1_STROKES" class="st2" d="M236.5,114l0.5,0.3"/>
	</g>
</g>
<g transform="matrix( 1, 0, 0, 1, 0,0) ">
	<g>
		<path id="Layer3_11_MEMBER_1_MEMBER_151_1_STROKES" class="st2" d="M246,124.2v-19"/>
	</g>
</g>
<g transform="matrix( 1, 0, 0, 1, 0,0) ">
	<g>
		<path id="Layer3_11_MEMBER_1_MEMBER_152_1_STROKES" class="st2" d="M248.4,127.9v-28"/>
	</g>
</g>
<g transform="matrix( 1, 0, 0, 1, 0,0) ">
	<g>
		<path id="Layer3_11_MEMBER_1_MEMBER_153_1_STROKES" class="st2" d="M225.4,86.7l23,13.2"/>
	</g>
</g>
<g transform="matrix( 1, 0, 0, 1, 0,0) ">
	<g>
		<path id="Layer3_11_MEMBER_1_MEMBER_154_1_STROKES" class="st2" d="M253.4,142.2l67-38.7"/>
	</g>
</g>
<g transform="matrix( 1, 0, 0, 1, 0,0) ">
	<g>
		<path id="Layer3_11_MEMBER_1_MEMBER_155_1_STROKES" class="st2" d="M314.1,70l0.6,0.4"/>
	</g>
</g>
<g transform="matrix( 1, 0, 0, 1, 0,0) ">
	<g>
		<path id="Layer3_11_MEMBER_1_MEMBER_156_1_STROKES" class="st2" d="M253.4,139.5l28.6-18.3"/>
	</g>
</g>
<g transform="matrix( 1, 0, 0, 1, 0,0) ">
	<g>
		<path id="Layer3_11_MEMBER_1_MEMBER_157_1_STROKES" class="st2" d="M253.4,139.5v2.7"/>
	</g>
</g>
<g transform="matrix( 1, 0, 0, 1, 0,0) ">
	<g>
		<path id="Layer3_11_MEMBER_1_MEMBER_158_1_STROKES" class="st2" d="M311.2,72.4l3.4-2"/>
	</g>
</g>
<g transform="matrix( 1, 0, 0, 1, 0,0) ">
	<g>
		<path id="Layer3_11_MEMBER_1_MEMBER_159_1_STROKES" class="st2" d="M311.2,72.4l-29.1,48.8"/>
	</g>
</g>
<g transform="matrix( 1, 0, 0, 1, 0,0) ">
	<g>
		<path id="Layer3_11_MEMBER_1_MEMBER_160_1_STROKES" class="st2" d="M320.4,103.5v-1.9l-1.3-0.8"/>
	</g>
</g>
<g transform="matrix( 1, 0, 0, 1, 0,0) ">
	<g>
		<path id="Layer3_11_MEMBER_1_MEMBER_161_1_STROKES" class="st2" d="M317.4,101.4l1.3-0.8"/>
	</g>
</g>
<g transform="matrix( 1, 0, 0, 1, 0,0) ">
	<g>
		<path id="Layer3_11_MEMBER_1_MEMBER_162_1_STROKES" class="st2" d="M320.1,101.4l-1.4-0.8"/>
	</g>
</g>
<g transform="matrix( 1, 0, 0, 1, 0,0) ">
	<g>
		<path id="Layer3_11_MEMBER_1_MEMBER_163_1_STROKES" class="st2" d="M319.1,100.8l1.3,0.8"/>
	</g>
</g>
<g transform="matrix( 1, 0, 0, 1, 0,0) ">
	<g>
		<path id="Layer3_11_MEMBER_1_MEMBER_164_1_STROKES" class="st2" d="M253.1,139.4l28.6-18.3"/>
	</g>
</g>
<g transform="matrix( 1, 0, 0, 1, 0,0) ">
	<g>
		<path id="Layer3_11_MEMBER_1_MEMBER_165_1_STROKES" class="st2" d="M253.1,139.4v2.3"/>
	</g>
</g>
<g transform="matrix( 1, 0, 0, 1, 0,0) ">
	<g>
		<path id="Layer3_11_MEMBER_1_MEMBER_166_1_STROKES" class="st2" d="M310.9,72.2l3.2-1.8"/>
	</g>
</g>
<g transform="matrix( 1, 0, 0, 1, 0,0) ">
	<g>
		<path id="Layer3_11_MEMBER_1_MEMBER_167_1_STROKES" class="st2" d="M310.9,72.2L281.7,121"/>
	</g>
</g>
<g transform="matrix( 1, 0, 0, 1, 0,0) ">
	<g>
		<path id="Layer3_11_MEMBER_1_MEMBER_168_1_STROKES" class="st2" d="M309.4,91.4l0.3,0.2"/>
	</g>
</g>
<g transform="matrix( 1, 0, 0, 1, 0,0) ">
	<g>
		<path id="Layer3_11_MEMBER_1_MEMBER_169_1_STROKES" class="st2" d="M298.4,110l0.3,0.2"/>
	</g>
</g>
<g transform="matrix( 1, 0, 0, 1, 0,0) ">
	<g>
		<path id="Layer3_11_MEMBER_1_MEMBER_170_1_STROKES" class="st2" d="M310.9,72.2l0.3,0.2"/>
	</g>
</g>
<g transform="matrix( 1, 0, 0, 1, 0,0) ">
	<g>
		<path id="Layer3_11_MEMBER_1_MEMBER_171_1_STROKES" class="st2" d="M281.7,121l0.4,0.2"/>
	</g>
</g>
<g transform="matrix( 1, 0, 0, 1, 0,0) ">
	<g>
		<path id="Layer3_11_MEMBER_1_MEMBER_172_1_STROKES" class="st2" d="M314.3,70.2l0.3,0.2"/>
	</g>
</g>
<g transform="matrix( 1, 0, 0, 1, 0,0) ">
	<g>
		<path id="Layer3_11_MEMBER_1_MEMBER_173_1_STROKES" class="st2" d="M253.1,139.4l0.3,0.1"/>
	</g>
</g>
<g transform="matrix( 1, 0, 0, 1, 0,0) ">
	<g>
		<path id="Layer3_11_MEMBER_1_MEMBER_174_1_STROKES" class="st2" d="M300.3,109.8l7.1-4.1"/>
	</g>
</g>
<g transform="matrix( 1, 0, 0, 1, 0,0) ">
	<g>
		<path id="Layer3_11_MEMBER_1_MEMBER_175_1_STROKES" class="st2" d="M298.3,110c0.5,0.3,1.1,0.3,1.9-0.2"/>
	</g>
</g>
<g transform="matrix( 1, 0, 0, 1, 0,0) ">
	<g>
		<path id="Layer3_11_MEMBER_1_MEMBER_176_1_STROKES" class="st2" d="M307.4,105.7c0.7-0.4,1.4-1.1,1.9-2.1c0.5-1,0.8-1.8,0.8-2.6"
			/>
	</g>
</g>
<g transform="matrix( 1, 0, 0, 1, 0,0) ">
	<g>
		<path id="Layer3_11_MEMBER_1_MEMBER_177_1_STROKES" class="st2" d="M310.1,93.2c0-0.9-0.2-1.5-0.8-1.8"/>
	</g>
</g>
<g transform="matrix( 1, 0, 0, 1, 0,0) ">
	<g>
		<path id="Layer3_11_MEMBER_1_MEMBER_178_1_STROKES" class="st2" d="M310.1,101v-7.8"/>
	</g>
</g>
<g transform="matrix( 1, 0, 0, 1, 0,0) ">
	<g>
		<path id="Layer3_11_MEMBER_1_MEMBER_179_1_STROKES" class="st2" d="M300.6,110l7.1-4.1"/>
	</g>
</g>
<g transform="matrix( 1, 0, 0, 1, 0,0) ">
	<g>
		<path id="Layer3_11_MEMBER_1_MEMBER_180_1_STROKES" class="st2" d="M298.7,105.7c-0.5,0.9-0.8,1.8-0.8,2.7c0,0.8,0.3,1.4,0.8,1.8
			c0.6,0.3,1.2,0.2,2-0.2"/>
	</g>
</g>
<g transform="matrix( 1, 0, 0, 1, 0,0) ">
	<g>
		<path id="Layer3_11_MEMBER_1_MEMBER_181_1_STROKES" class="st2" d="M305.8,93.7l-7.1,12"/>
	</g>
</g>
<g transform="matrix( 1, 0, 0, 1, 0,0) ">
	<g>
		<path id="Layer3_11_MEMBER_1_MEMBER_182_1_STROKES" class="st2" d="M307.7,105.9c0.8-0.4,1.4-1.1,2-2.1c0.5-1,0.8-1.8,0.8-2.6"/>
	</g>
</g>
<g transform="matrix( 1, 0, 0, 1, 0,0) ">
	<g>
		<path id="Layer3_11_MEMBER_1_MEMBER_183_1_STROKES" class="st2" d="M310.4,93.4c0.1-0.9-0.2-1.5-0.8-1.8c-0.5-0.3-1.2-0.2-2,0.2
			c-0.7,0.4-1.3,1.1-1.9,2"/>
	</g>
</g>
<g transform="matrix( 1, 0, 0, 1, 0,0) ">
	<g>
		<path id="Layer3_11_MEMBER_1_MEMBER_184_1_STROKES" class="st2" d="M310.5,101.1v-7.8"/>
	</g>
</g>
<g transform="matrix( 1, 0, 0, 1, 0,0) ">
	<g>
		<path id="Layer3_11_MEMBER_1_MEMBER_185_1_STROKES" class="st2" d="M314.9,100.1l2.4,1.3"/>
	</g>
</g>
<g transform="matrix( 1, 0, 0, 1, 0,0) ">
	<g>
		<path id="Layer3_11_MEMBER_1_MEMBER_186_1_STROKES" class="st2" d="M314.9,99.9c0,0.9,0.3,1.5,0.9,1.8c0.5,0.3,1.1,0.2,1.8-0.2"/>
	</g>
</g>
<g transform="matrix( 1, 0, 0, 1, 0,0) ">
	<g>
		<path id="Layer3_11_MEMBER_1_MEMBER_187_1_STROKES" class="st2" d="M317.7,101.6l1.4-0.8"/>
	</g>
</g>
<g transform="matrix( 1, 0, 0, 1, 0,0) ">
	<g>
		<path id="Layer3_11_MEMBER_1_MEMBER_188_1_STROKES" class="st2" d="M314.9,100l-0.3-29.6"/>
	</g>
</g>
<g transform="matrix( 1, 0, 0, 1, 0,0) ">
	<g>
		<path id="Layer3_11_MEMBER_1_MEMBER_189_1_STROKES" class="st2" d="M315.6,101.6c0.5,0.3,1.1,0.2,1.7-0.2"/>
	</g>
</g>
<g transform="matrix( 1, 0, 0, 1, 0,0) ">
	<g>
		<path id="Layer3_11_MEMBER_1_MEMBER_190_1_STROKES" class="st2" d="M291.3,51.4l22.8,13.1v5.9"/>
	</g>
</g>
<g transform="matrix( 1, 0, 0, 1, 0,0) ">
	<g>
		<path id="Layer3_11_MEMBER_1_MEMBER_191_1_STROKES" class="st2" d="M264.5,135.8l-2.5,1.5"/>
	</g>
</g>
<g transform="matrix( 1, 0, 0, 1, 0,0) ">
	<g>
		<path id="Layer3_11_MEMBER_1_MEMBER_192_1_STROKES" class="st2" d="M264.5,138.8l-2.5,1.5"/>
	</g>
</g>
<g transform="matrix( 1, 0, 0, 1, 0,0) ">
	<g>
		<path id="Layer3_11_MEMBER_1_MEMBER_193_1_STROKES" class="st2" d="M264.5,138.8v-3"/>
	</g>
</g>
<g transform="matrix( 1, 0, 0, 1, 0,0) ">
	<g>
		<path id="Layer3_11_MEMBER_1_MEMBER_194_1_STROKES" class="st2" d="M262,140.3v-3"/>
	</g>
</g>
<g transform="matrix( 1, 0, 0, 1, 0,0) ">
	<g>
		<path id="Layer3_11_MEMBER_1_MEMBER_195_1_STROKES" class="st2" d="M262,140.3l-2.6-1.6"/>
	</g>
</g>
<g transform="matrix( 1, 0, 0, 1, 0,0) ">
	<g>
		<path id="Layer3_11_MEMBER_1_MEMBER_196_1_STROKES" class="st2" d="M264.1,136.6l-1.7,0.9"/>
	</g>
</g>
<g transform="matrix( 1, 0, 0, 1, 0,0) ">
	<g>
		<path id="Layer3_11_MEMBER_1_MEMBER_197_1_STROKES" class="st2" d="M264.1,138.5v-1.9"/>
	</g>
</g>
<g transform="matrix( 1, 0, 0, 1, 0,0) ">
	<g>
		<path id="Layer3_11_MEMBER_1_MEMBER_198_1_STROKES" class="st2" d="M264.1,138.5l-1.7,1v-1.9"/>
	</g>
</g>
<g transform="matrix( 1, 0, 0, 1, 0,0) ">
	<g>
		<path id="Layer3_11_MEMBER_1_MEMBER_199_1_STROKES" class="st2" d="M319.7,103.9l-2.5,1.5"/>
	</g>
</g>
<g transform="matrix( 1, 0, 0, 1, 0,0) ">
	<g>
		<path id="Layer3_11_MEMBER_1_MEMBER_200_1_STROKES" class="st2" d="M319.7,106.9l-2.5,1.5"/>
	</g>
</g>
<g transform="matrix( 1, 0, 0, 1, 0,0) ">
	<g>
		<path id="Layer3_11_MEMBER_1_MEMBER_201_1_STROKES" class="st2" d="M319.7,106.9v-3"/>
	</g>
</g>
<g transform="matrix( 1, 0, 0, 1, 0,0) ">
	<g>
		<path id="Layer3_11_MEMBER_1_MEMBER_202_1_STROKES" class="st2" d="M317.2,108.4v-3"/>
	</g>
</g>
<g transform="matrix( 1, 0, 0, 1, 0,0) ">
	<g>
		<path id="Layer3_11_MEMBER_1_MEMBER_203_1_STROKES" class="st2" d="M317.2,108.4l-2.5-1.5"/>
	</g>
</g>
<g transform="matrix( 1, 0, 0, 1, 0,0) ">
	<g>
		<path id="Layer3_11_MEMBER_1_MEMBER_204_1_STROKES" class="st2" d="M319.4,104.7l-1.7,1"/>
	</g>
</g>
<g transform="matrix( 1, 0, 0, 1, 0,0) ">
	<g>
		<path id="Layer3_11_MEMBER_1_MEMBER_205_1_STROKES" class="st2" d="M319.4,106.6v-2"/>
	</g>
</g>
<g transform="matrix( 1, 0, 0, 1, 0,0) ">
	<g>
		<path id="Layer3_11_MEMBER_1_MEMBER_206_1_STROKES" class="st2" d="M319.4,106.6l-1.7,0.9v-1.9"/>
	</g>
</g>
<g transform="matrix( 1, 0, 0, 1, 0,0) ">
	<g>
		<path id="Layer3_11_MEMBER_1_MEMBER_207_1_STROKES" class="st2" d="M311.7,65.9c-0.2,0-0.4,0.2-0.6,0.5c-0.2,0.4-0.2,0.7-0.2,0.8"
			/>
	</g>
</g>
<g transform="matrix( 1, 0, 0, 1, 0,0) ">
	<g>
		<path id="Layer3_11_MEMBER_1_MEMBER_208_1_STROKES" class="st2" d="M311.8,65.9l2.3-1.4"/>
	</g>
</g>
<g transform="matrix( 1, 0, 0, 1, 0,0) ">
	<g>
		<path id="Layer3_11_MEMBER_1_MEMBER_209_1_STROKES" class="st2" d="M310.9,67.3v4.9"/>
	</g>
</g>
<g transform="matrix( 1, 0, 0, 1, 0,0) ">
	<g>
		<path id="Layer3_11_MEMBER_1_MEMBER_210_1_STROKES" class="st2" d="M290.4,51.9l0.9-0.5"/>
	</g>
</g>
<g transform="matrix( 1, 0, 0, 1, 0,0) ">
	<g>
		<path id="Layer3_11_MEMBER_1_MEMBER_211_1_STROKES" class="st2" d="M237.2,145.2c0.3,0.5,0.6,0.7,0.9,0.6c0.3-0.2,0.3-0.6,0-1.1
			c-0.3-0.5-0.6-0.6-0.9-0.5C236.8,144.4,236.8,144.7,237.2,145.2z"/>
	</g>
</g>
<g transform="matrix( 1, 0, 0, 1, 0,0) ">
	<g>
		<path id="Layer3_11_MEMBER_1_MEMBER_212_1_STROKES" class="st2" d="M238.1,145.8l1-0.6"/>
	</g>
</g>
<g transform="matrix( 1, 0, 0, 1, 0,0) ">
	<g>
		<path id="Layer3_11_MEMBER_1_MEMBER_213_1_STROKES" class="st2" d="M246.7,140.9l2-1.2"/>
	</g>
</g>
<g transform="matrix( 1, 0, 0, 1, 0,0) ">
	<g>
		<path id="Layer3_11_MEMBER_1_MEMBER_214_1_STROKES" class="st2" d="M237.2,144.2l1-0.5"/>
	</g>
</g>
<g transform="matrix( 1, 0, 0, 1, 0,0) ">
	<g>
		<path id="Layer3_11_MEMBER_1_MEMBER_215_1_STROKES" class="st2" d="M245.6,139.4l0.8-0.4"/>
	</g>
</g>
<g transform="matrix( 1, 0, 0, 1, 0,0) ">
	<g>
		<path id="Layer3_11_MEMBER_1_MEMBER_216_1_STROKES" class="st2" d="M245,143.8c0.9-0.5,0.9-1.5-0.1-3c-0.8-1.6-1.7-2.1-2.6-1.6"/>
	</g>
</g>
<g transform="matrix( 1, 0, 0, 1, 0,0) ">
	<g>
		<path id="Layer3_11_MEMBER_1_MEMBER_217_1_STROKES" class="st2" d="M245,143.8l-1.4,0.9"/>
	</g>
</g>
<g transform="matrix( 1, 0, 0, 1, 0,0) ">
	<g>
		<path id="Layer3_11_MEMBER_1_MEMBER_218_1_STROKES" class="st2" d="M242.4,139.2l-1.5,0.9"/>
	</g>
</g>
<g transform="matrix( 1, 0, 0, 1, 0,0) ">
	<g>
		<path id="Layer3_11_MEMBER_1_MEMBER_219_1_STROKES" class="st2" d="M246.8,141.5c0-0.4-0.2-0.9-0.5-1.6l-0.4-0.4"/>
	</g>
</g>
<g transform="matrix( 1, 0, 0, 1, 0,0) ">
	<g>
		<path id="Layer3_11_MEMBER_1_MEMBER_220_1_STROKES" class="st2" d="M244.5,138.6c-0.2,0-0.3,0-0.3,0.1"/>
	</g>
</g>
<g transform="matrix( 1, 0, 0, 1, 0,0) ">
	<g>
		<path id="Layer3_11_MEMBER_1_MEMBER_221_1_STROKES" class="st2" d="M245.9,142.7l-0.4,0.3"/>
	</g>
</g>
<g transform="matrix( 1, 0, 0, 1, 0,0) ">
	<g>
		<path id="Layer3_11_MEMBER_1_MEMBER_222_1_STROKES" class="st2" d="M244.1,138.7l-0.9,0.5"/>
	</g>
</g>
<g transform="matrix( 1, 0, 0, 1, 0,0) ">
	<g>
		<path id="Layer3_11_MEMBER_1_MEMBER_223_1_STROKES" class="st2" d="M244.1,143.7l-2.9,1.6"/>
	</g>
</g>
<g transform="matrix( 1, 0, 0, 1, 0,0) ">
	<g>
		<path id="Layer3_11_MEMBER_1_MEMBER_224_1_STROKES" class="st2" d="M242,140.1l-2.8,1.6"/>
	</g>
</g>
<g transform="matrix( 1, 0, 0, 1, 0,0) ">
	<g>
		<path id="Layer3_11_MEMBER_1_MEMBER_225_1_STROKES" class="st2" d="M243.5,144.7c0.9-0.5,0.9-1.5,0-3.1c-0.9-1.5-1.8-2-2.6-1.5
			c-0.3,0.2-0.5,0.5-0.5,0.8"/>
	</g>
</g>
<g transform="matrix( 1, 0, 0, 1, 0,0) ">
	<g>
		<path id="Layer3_11_MEMBER_1_MEMBER_226_1_STROKES" class="st2" d="M242.6,144.7c0.3,0.1,0.7,0.1,1,0"/>
	</g>
</g>
<g transform="matrix( 1, 0, 0, 1, 0,0) ">
	<g>
		<path id="Layer3_11_MEMBER_1_MEMBER_227_1_STROKES" class="st3" d="M238.3,145.6c0.3-0.1,0.3-0.4,0-0.9c-0.3-0.5-0.6-0.7-0.9-0.6"
			/>
	</g>
</g>
<g transform="matrix( 1, 0, 0, 1, 0,0) ">
	<g>
		<path id="Layer3_11_MEMBER_1_MEMBER_228_1_STROKES" class="st3" d="M238.4,145.5c0.3-0.1,0.3-0.4,0-0.9c-0.2-0.5-0.5-0.7-0.9-0.6"
			/>
	</g>
</g>
<g transform="matrix( 1, 0, 0, 1, 0,0) ">
	<g>
		<path id="Layer3_11_MEMBER_1_MEMBER_229_1_STROKES" class="st3" d="M238.6,145.4c0.3-0.1,0.3-0.5,0-1c-0.3-0.5-0.6-0.7-0.9-0.6"/>
	</g>
</g>
<g transform="matrix( 1, 0, 0, 1, 0,0) ">
	<g>
		<path id="Layer3_11_MEMBER_1_MEMBER_230_1_STROKES" class="st3" d="M238.8,145.3c0.4-0.2,0.4-0.5,0-1.1c-0.2-0.4-0.5-0.6-0.9-0.4"
			/>
	</g>
</g>
<g transform="matrix( 1, 0, 0, 1, 0,0) ">
	<g>
		<path id="Layer3_11_MEMBER_1_MEMBER_231_1_STROKES" class="st2" d="M239,145.2c0.4-0.2,0.4-0.5,0-1c-0.3-0.5-0.5-0.7-0.9-0.5"/>
	</g>
</g>
<g transform="matrix( 1, 0, 0, 1, 0,0) ">
	<g>
		<path id="Layer3_11_MEMBER_1_MEMBER_232_1_STROKES" class="st2" d="M240,145.7c0.6-0.4,0.6-1.1,0-2.1c-0.6-1-1.2-1.4-1.8-1.1"/>
	</g>
</g>
<g transform="matrix( 1, 0, 0, 1, 0,0) ">
	<g>
		<path id="Layer3_11_MEMBER_1_MEMBER_233_1_STROKES" class="st2" d="M245.2,140c-0.5-0.6-1-0.9-1.5-0.9"/>
	</g>
</g>
<g transform="matrix( 1, 0, 0, 1, 0,0) ">
	<g>
		<path id="Layer3_11_MEMBER_1_MEMBER_234_1_STROKES" class="st2" d="M243.7,139.1l0.8-0.4"/>
	</g>
</g>
<g transform="matrix( 1, 0, 0, 1, 0,0) ">
	<g>
		<path id="Layer3_11_MEMBER_1_MEMBER_235_1_STROKES" class="st2" d="M245.2,140l0.8-0.5"/>
	</g>
</g>
<g transform="matrix( 1, 0, 0, 1, 0,0) ">
	<g>
		<path id="Layer3_11_MEMBER_1_MEMBER_236_1_STROKES" class="st2" d="M245.3,139.9c-0.5-0.6-0.9-0.9-1.4-0.9"/>
	</g>
</g>
<g transform="matrix( 1, 0, 0, 1, 0,0) ">
	<g>
		<path id="Layer3_11_MEMBER_1_MEMBER_237_1_STROKES" class="st2" d="M245.8,139.6c-0.5-0.6-1-0.9-1.5-0.9"/>
	</g>
</g>
<g transform="matrix( 1, 0, 0, 1, 0,0) ">
	<g>
		<path id="Layer3_11_MEMBER_1_MEMBER_238_1_STROKES" class="st2" d="M242.4,140.4l-2.8,1.6"/>
	</g>
</g>
<g transform="matrix( 1, 0, 0, 1, 0,0) ">
	<g>
		<path id="Layer3_11_MEMBER_1_MEMBER_239_1_STROKES" class="st2" d="M244.1,143.2l-2.9,1.7"/>
	</g>
</g>
<g transform="matrix( 1, 0, 0, 1, 0,0) ">
	<g>
		<path id="Layer3_11_MEMBER_1_MEMBER_240_1_STROKES" class="st2" d="M243.6,143.2l-2.8,1.6"/>
	</g>
</g>
<g transform="matrix( 1, 0, 0, 1, 0,0) ">
	<g>
		<path id="Layer3_11_MEMBER_1_MEMBER_241_1_STROKES" class="st2" d="M240.3,146c0.2-0.1,0.4-0.4,0.5-0.8"/>
	</g>
</g>
<g transform="matrix( 1, 0, 0, 1, 0,0) ">
	<g>
		<path id="Layer3_11_MEMBER_1_MEMBER_242_1_STROKES" class="st2" d="M240.8,144.8c-0.1-0.5-0.3-0.9-0.5-1.4c-0.2-0.5-0.5-0.8-0.9-1
			"/>
	</g>
</g>
<g transform="matrix( 1, 0, 0, 1, 0,0) ">
	<g>
		<path id="Layer3_11_MEMBER_1_MEMBER_243_1_STROKES" class="st2" d="M239,142.2c-0.4-0.2-0.7-0.2-0.9,0c-0.3,0.1-0.4,0.4-0.5,0.8"
			/>
	</g>
</g>
<g transform="matrix( 1, 0, 0, 1, 0,0) ">
	<g>
		<path id="Layer3_11_MEMBER_1_MEMBER_244_1_STROKES" class="st2" d="M239.3,146c0.4,0.2,0.7,0.2,1,0.1"/>
	</g>
</g>
<g transform="matrix( 1, 0, 0, 1, 0,0) ">
	<g>
		<path id="Layer3_11_MEMBER_1_MEMBER_245_1_STROKES" class="st2" d="M237.8,142.9c-0.4,0.2-0.5,0.6-0.4,1.2"/>
	</g>
</g>
<g transform="matrix( 1, 0, 0, 1, 0,0) ">
	<g>
		<path id="Layer3_11_MEMBER_1_MEMBER_246_1_STROKES" class="st2" d="M238.3,145.6c0.5,0.4,0.9,0.5,1.2,0.3"/>
	</g>
</g>
<g transform="matrix( 1, 0, 0, 1, 0,0) ">
	<g>
		<path id="Layer3_11_MEMBER_1_MEMBER_247_1_STROKES" class="st2" d="M239.4,146l0.6-0.4"/>
	</g>
</g>
<g transform="matrix( 1, 0, 0, 1, 0,0) ">
	<g>
		<path id="Layer3_11_MEMBER_1_MEMBER_248_1_STROKES" class="st2" d="M237.8,142.9l0.5-0.3"/>
	</g>
</g>
<g transform="matrix( 1, 0, 0, 1, 0,0) ">
	<g>
		<path id="Layer3_11_MEMBER_1_MEMBER_249_1_STROKES" class="st2" d="M240,145.7c0.5-0.5,0.5-1.1,0-2c-0.5-1-1.1-1.4-1.7-1.1"/>
	</g>
</g>
<g transform="matrix( 1, 0, 0, 1, 0,0) ">
	<g>
		<path id="Layer3_11_MEMBER_1_MEMBER_250_1_STROKES" class="st2" d="M238.1,142.2l2.8-1.6"/>
	</g>
</g>
<g transform="matrix( 1, 0, 0, 1, 0,0) ">
	<g>
		<path id="Layer3_11_MEMBER_1_MEMBER_251_1_STROKES" class="st2" d="M240.3,146.1l2.8-1.6"/>
	</g>
</g>
<g transform="matrix( 1, 0, 0, 1, 0,0) ">
	<g>
		<path id="Layer3_11_MEMBER_1_MEMBER_252_1_STROKES" class="st2" d="M239.2,141.7l-0.1,0.2"/>
	</g>
</g>
<g transform="matrix( 1, 0, 0, 1, 0,0) ">
	<g>
		<path id="Layer3_11_MEMBER_1_MEMBER_253_1_STROKES" class="st2" d="M237.4,142.8v0.5"/>
	</g>
</g>
<g transform="matrix( 1, 0, 0, 1, 0,0) ">
	<g>
		<path id="Layer3_11_MEMBER_1_MEMBER_254_1_STROKES" class="st2" d="M239.4,146.3l-0.4-0.2"/>
	</g>
</g>
<g transform="matrix( 1, 0, 0, 1, 0,0) ">
	<g>
		<path id="Layer3_11_MEMBER_1_MEMBER_255_1_STROKES" class="st2" d="M242.1,140.8l-2.8,1.7"/>
	</g>
</g>
<g transform="matrix( 1, 0, 0, 1, 0,0) ">
	<g>
		<path id="Layer3_11_MEMBER_1_MEMBER_256_1_STROKES" class="st2" d="M246.8,141.5l-0.9,1.2"/>
	</g>
</g>
<g transform="matrix( 1, 0, 0, 1, 0,0) ">
	<g>
		<path id="Layer3_11_MEMBER_1_MEMBER_257_1_STROKES" class="st2" d="M243.5,144.6c0.2-0.1,0.4-0.4,0.5-0.9"/>
	</g>
</g>
<g transform="matrix( 1, 0, 0, 1, 0,0) ">
	<g>
		<path id="Layer3_11_MEMBER_1_MEMBER_258_1_STROKES" class="st2" d="M244,143.1c-0.1-0.6-0.3-1.1-0.5-1.5c-0.3-0.5-0.6-0.9-1.1-1.2
			"/>
	</g>
</g>
<g transform="matrix( 1, 0, 0, 1, 0,0) ">
	<g>
		<path id="Layer3_11_MEMBER_1_MEMBER_259_1_STROKES" class="st2" d="M241.9,140.1c-0.4-0.1-0.7-0.1-1,0.1s-0.4,0.4-0.5,0.6"/>
	</g>
</g>
<g transform="matrix( 1, 0, 0, 1, 0,0) ">
	<g>
		<path id="Layer3_11_MEMBER_1_MEMBER_260_1_STROKES" class="st2" d="M242.7,144.7c0.3,0,0.6,0,0.8-0.1"/>
	</g>
</g>
<g transform="matrix( 1, 0, 0, 1, 0,0) ">
	<g>
		<path id="Layer3_11_MEMBER_1_MEMBER_261_1_STROKES" class="st2" d="M243.1,144.4l0.4-0.4"/>
	</g>
</g>
<g transform="matrix( 1, 0, 0, 1, 0,0) ">
	<g>
		<path id="Layer3_11_MEMBER_1_MEMBER_262_1_STROKES" class="st2" d="M243.6,143.2c-0.1-0.5-0.2-1-0.5-1.4c-0.2-0.4-0.5-0.8-0.9-1.1
			"/>
	</g>
</g>
<g transform="matrix( 1, 0, 0, 1, 0,0) ">
	<g>
		<path id="Layer3_11_MEMBER_1_MEMBER_263_1_STROKES" class="st2" d="M241.4,140.5c-0.3,0-0.4,0-0.5,0.1"/>
	</g>
</g>
<g transform="matrix( 1, 0, 0, 1, 0,0) ">
	<g>
		<path id="Layer3_11_MEMBER_1_MEMBER_264_1_STROKES" class="st2" d="M226,137.8c0.3,0.5,0.3,0.9,0,1c-0.3,0.2-0.6,0-0.9-0.5
			c-0.2-0.5-0.2-0.8,0-1C225.4,137.2,225.7,137.3,226,137.8z"/>
	</g>
</g>
<g transform="matrix( 1, 0, 0, 1, 0,0) ">
	<g>
		<path id="Layer3_11_MEMBER_1_MEMBER_265_1_STROKES" class="st2" d="M225.9,138.8l1-0.6"/>
	</g>
</g>
<g transform="matrix( 1, 0, 0, 1, 0,0) ">
	<g>
		<path id="Layer3_11_MEMBER_1_MEMBER_266_1_STROKES" class="st2" d="M234.6,133.8l2-1.1"/>
	</g>
</g>
<g transform="matrix( 1, 0, 0, 1, 0,0) ">
	<g>
		<path id="Layer3_11_MEMBER_1_MEMBER_267_1_STROKES" class="st2" d="M225.1,137.3l1-0.6"/>
	</g>
</g>
<g transform="matrix( 1, 0, 0, 1, 0,0) ">
	<g>
		<path id="Layer3_11_MEMBER_1_MEMBER_268_1_STROKES" class="st2" d="M233.5,132.4l0.6-0.4"/>
	</g>
</g>
<g transform="matrix( 1, 0, 0, 1, 0,0) ">
	<g>
		<path id="Layer3_11_MEMBER_1_MEMBER_269_1_STROKES" class="st2" d="M232.9,136.9c0.9-0.6,0.9-1.6,0-3.1c-0.9-1.5-1.8-2.1-2.7-1.6"
			/>
	</g>
</g>
<g transform="matrix( 1, 0, 0, 1, 0,0) ">
	<g>
		<path id="Layer3_11_MEMBER_1_MEMBER_270_1_STROKES" class="st2" d="M232.9,136.8l-1.5,0.9"/>
	</g>
</g>
<g transform="matrix( 1, 0, 0, 1, 0,0) ">
	<g>
		<path id="Layer3_11_MEMBER_1_MEMBER_271_1_STROKES" class="st2" d="M230.2,132.2l-1.4,0.9"/>
	</g>
</g>
<g transform="matrix( 1, 0, 0, 1, 0,0) ">
	<g>
		<path id="Layer3_11_MEMBER_1_MEMBER_272_1_STROKES" class="st2" d="M234.7,134.5c0-0.5-0.1-1.1-0.5-1.6l-0.4-0.5"/>
	</g>
</g>
<g transform="matrix( 1, 0, 0, 1, 0,0) ">
	<g>
		<path id="Layer3_11_MEMBER_1_MEMBER_273_1_STROKES" class="st2" d="M232.3,131.6l-0.4,0.1"/>
	</g>
</g>
<g transform="matrix( 1, 0, 0, 1, 0,0) ">
	<g>
		<path id="Layer3_11_MEMBER_1_MEMBER_274_1_STROKES" class="st2" d="M233.8,135.8l-0.4,0.2"/>
	</g>
</g>
<g transform="matrix( 1, 0, 0, 1, 0,0) ">
	<g>
		<path id="Layer3_11_MEMBER_1_MEMBER_275_1_STROKES" class="st2" d="M232,131.7l-0.8,0.5"/>
	</g>
</g>
<g transform="matrix( 1, 0, 0, 1, 0,0) ">
	<g>
		<path id="Layer3_11_MEMBER_1_MEMBER_276_1_STROKES" class="st2" d="M232,136.7l-2.9,1.6"/>
	</g>
</g>
<g transform="matrix( 1, 0, 0, 1, 0,0) ">
	<g>
		<path id="Layer3_11_MEMBER_1_MEMBER_277_1_STROKES" class="st2" d="M229.8,133.2l-2.8,1.6"/>
	</g>
</g>
<g transform="matrix( 1, 0, 0, 1, 0,0) ">
	<g>
		<path id="Layer3_11_MEMBER_1_MEMBER_278_1_STROKES" class="st2" d="M231.4,137.7c1-0.5,1-1.5,0-3.1c-0.8-1.5-1.7-2.1-2.6-1.6
			c-0.3,0.2-0.4,0.4-0.5,0.8"/>
	</g>
</g>
<g transform="matrix( 1, 0, 0, 1, 0,0) ">
	<g>
		<path id="Layer3_11_MEMBER_1_MEMBER_279_1_STROKES" class="st2" d="M230.5,137.8c0.4,0.1,0.7,0.1,0.9-0.1"/>
	</g>
</g>
<g transform="matrix( 1, 0, 0, 1, 0,0) ">
	<g>
		<path id="Layer3_11_MEMBER_1_MEMBER_280_1_STROKES" class="st3" d="M226.1,138.6c0.3-0.1,0.3-0.4,0-0.9c-0.3-0.5-0.6-0.7-0.8-0.5"
			/>
	</g>
</g>
<g transform="matrix( 1, 0, 0, 1, 0,0) ">
	<g>
		<path id="Layer3_11_MEMBER_1_MEMBER_281_1_STROKES" class="st3" d="M226.3,138.5c0.3-0.1,0.3-0.4,0-0.9c-0.3-0.5-0.6-0.7-0.8-0.5"
			/>
	</g>
</g>
<g transform="matrix( 1, 0, 0, 1, 0,0) ">
	<g>
		<path id="Layer3_11_MEMBER_1_MEMBER_282_1_STROKES" class="st3" d="M226.5,138.4c0.3-0.1,0.3-0.5,0-1c-0.2-0.5-0.5-0.7-0.9-0.5"/>
	</g>
</g>
<g transform="matrix( 1, 0, 0, 1, 0,0) ">
	<g>
		<path id="Layer3_11_MEMBER_1_MEMBER_283_1_STROKES" class="st3" d="M226.7,138.3c0.3-0.1,0.3-0.4,0-1c-0.3-0.4-0.6-0.6-0.9-0.5"/>
	</g>
</g>
<g transform="matrix( 1, 0, 0, 1, 0,0) ">
	<g>
		<path id="Layer3_11_MEMBER_1_MEMBER_284_1_STROKES" class="st2" d="M226.9,138.2c0.4-0.2,0.4-0.5,0-0.9c-0.2-0.6-0.5-0.8-0.8-0.6"
			/>
	</g>
</g>
<g transform="matrix( 1, 0, 0, 1, 0,0) ">
	<g>
		<path id="Layer3_11_MEMBER_1_MEMBER_285_1_STROKES" class="st2" d="M228,138.6c0.6-0.3,0.6-1,0-2c-0.6-1-1.2-1.4-1.9-1.1"/>
	</g>
</g>
<g transform="matrix( 1, 0, 0, 1, 0,0) ">
	<g>
		<path id="Layer3_11_MEMBER_1_MEMBER_286_1_STROKES" class="st2" d="M233.2,133c-0.6-0.6-1.1-0.9-1.5-0.9"/>
	</g>
</g>
<g transform="matrix( 1, 0, 0, 1, 0,0) ">
	<g>
		<path id="Layer3_11_MEMBER_1_MEMBER_287_1_STROKES" class="st2" d="M231.6,132l0.8-0.4"/>
	</g>
</g>
<g transform="matrix( 1, 0, 0, 1, 0,0) ">
	<g>
		<path id="Layer3_11_MEMBER_1_MEMBER_288_1_STROKES" class="st2" d="M233.1,133l0.8-0.4"/>
	</g>
</g>
<g transform="matrix( 1, 0, 0, 1, 0,0) ">
	<g>
		<path id="Layer3_11_MEMBER_1_MEMBER_289_1_STROKES" class="st2" d="M233.2,132.8c-0.5-0.6-1-0.9-1.5-0.9"/>
	</g>
</g>
<g transform="matrix( 1, 0, 0, 1, 0,0) ">
	<g>
		<path id="Layer3_11_MEMBER_1_MEMBER_290_1_STROKES" class="st2" d="M233.7,132.7c-0.5-0.7-1-1-1.5-1"/>
	</g>
</g>
<g transform="matrix( 1, 0, 0, 1, 0,0) ">
	<g>
		<path id="Layer3_11_MEMBER_1_MEMBER_291_1_STROKES" class="st2" d="M230.3,133.3l-2.8,1.6"/>
	</g>
</g>
<g transform="matrix( 1, 0, 0, 1, 0,0) ">
	<g>
		<path id="Layer3_11_MEMBER_1_MEMBER_292_1_STROKES" class="st2" d="M232,136.3l-2.9,1.7"/>
	</g>
</g>
<g transform="matrix( 1, 0, 0, 1, 0,0) ">
	<g>
		<path id="Layer3_11_MEMBER_1_MEMBER_293_1_STROKES" class="st2" d="M225.6,135.6l-0.2,0.1"/>
	</g>
</g>
<g transform="matrix( 1, 0, 0, 1, 0,0) ">
	<g>
		<path id="Layer3_11_MEMBER_1_MEMBER_294_1_STROKES" class="st2" d="M231.5,136.2l-2.8,1.7"/>
	</g>
</g>
<g transform="matrix( 1, 0, 0, 1, 0,0) ">
	<g>
		<path id="Layer3_11_MEMBER_1_MEMBER_295_1_STROKES" class="st2" d="M230.1,133.8c0.1,0,0.1-0.1,0.2-0.2"/>
	</g>
</g>
<g transform="matrix( 1, 0, 0, 1, 0,0) ">
	<g>
		<path id="Layer3_11_MEMBER_1_MEMBER_296_1_STROKES" class="st2" d="M228.2,139.1c0.3-0.3,0.4-0.5,0.4-0.8"/>
	</g>
</g>
<g transform="matrix( 1, 0, 0, 1, 0,0) ">
	<g>
		<path id="Layer3_11_MEMBER_1_MEMBER_297_1_STROKES" class="st2" d="M228.6,137.8c0-0.3-0.2-0.8-0.4-1.2c-0.4-0.6-0.7-0.9-0.9-1.1"
			/>
	</g>
</g>
<g transform="matrix( 1, 0, 0, 1, 0,0) ">
	<g>
		<path id="Layer3_11_MEMBER_1_MEMBER_298_1_STROKES" class="st2" d="M226.9,135.2c-0.4-0.2-0.7-0.2-1,0c-0.2,0.1-0.3,0.4-0.3,0.8"
			/>
	</g>
</g>
<g transform="matrix( 1, 0, 0, 1, 0,0) ">
	<g>
		<path id="Layer3_11_MEMBER_1_MEMBER_299_1_STROKES" class="st2" d="M227.2,139c0.3,0.2,0.6,0.2,0.9,0.1"/>
	</g>
</g>
<g transform="matrix( 1, 0, 0, 1, 0,0) ">
	<g>
		<path id="Layer3_11_MEMBER_1_MEMBER_300_1_STROKES" class="st2" d="M225.7,135.9c-0.3,0.2-0.4,0.6-0.3,1.2"/>
	</g>
</g>
<g transform="matrix( 1, 0, 0, 1, 0,0) ">
	<g>
		<path id="Layer3_11_MEMBER_1_MEMBER_301_1_STROKES" class="st2" d="M226.2,138.6c0.4,0.4,0.8,0.5,1.1,0.3"/>
	</g>
</g>
<g transform="matrix( 1, 0, 0, 1, 0,0) ">
	<g>
		<path id="Layer3_11_MEMBER_1_MEMBER_302_1_STROKES" class="st2" d="M227.4,139l0.6-0.3"/>
	</g>
</g>
<g transform="matrix( 1, 0, 0, 1, 0,0) ">
	<g>
		<path id="Layer3_11_MEMBER_1_MEMBER_303_1_STROKES" class="st2" d="M225.7,135.9l0.4-0.4"/>
	</g>
</g>
<g transform="matrix( 1, 0, 0, 1, 0,0) ">
	<g>
		<path id="Layer3_11_MEMBER_1_MEMBER_304_1_STROKES" class="st2" d="M227.9,138.7c0.5-0.3,0.5-1,0-2c-0.6-1-1.2-1.4-1.8-1.1"/>
	</g>
</g>
<g transform="matrix( 1, 0, 0, 1, 0,0) ">
	<g>
		<path id="Layer3_11_MEMBER_1_MEMBER_305_1_STROKES" class="st2" d="M225.9,135.2l2.9-1.6"/>
	</g>
</g>
<g transform="matrix( 1, 0, 0, 1, 0,0) ">
	<g>
		<path id="Layer3_11_MEMBER_1_MEMBER_306_1_STROKES" class="st2" d="M228.2,139.1l2.9-1.6"/>
	</g>
</g>
<g transform="matrix( 1, 0, 0, 1, 0,0) ">
	<g>
		<path id="Layer3_11_MEMBER_1_MEMBER_307_1_STROKES" class="st2" d="M227.5,135c-0.1,0-0.1,0.1-0.2,0.2"/>
	</g>
</g>
<g transform="matrix( 1, 0, 0, 1, 0,0) ">
	<g>
		<path id="Layer3_11_MEMBER_1_MEMBER_308_1_STROKES" class="st2" d="M226.9,134.9v0.2"/>
	</g>
</g>
<g transform="matrix( 1, 0, 0, 1, 0,0) ">
	<g>
		<path id="Layer3_11_MEMBER_1_MEMBER_309_1_STROKES" class="st2" d="M228.7,137.9h0.4"/>
	</g>
</g>
<g transform="matrix( 1, 0, 0, 1, 0,0) ">
	<g>
		<path id="Layer3_11_MEMBER_1_MEMBER_310_1_STROKES" class="st2" d="M225.4,135.9v0.4"/>
	</g>
</g>
<g transform="matrix( 1, 0, 0, 1, 0,0) ">
	<g>
		<path id="Layer3_11_MEMBER_1_MEMBER_311_1_STROKES" class="st2" d="M227.3,139.3l-0.4-0.2"/>
	</g>
</g>
<g transform="matrix( 1, 0, 0, 1, 0,0) ">
	<g>
		<path id="Layer3_11_MEMBER_1_MEMBER_312_1_STROKES" class="st2" d="M230.1,133.8l-2.8,1.6"/>
	</g>
</g>
<g transform="matrix( 1, 0, 0, 1, 0,0) ">
	<g>
		<path id="Layer3_11_MEMBER_1_MEMBER_313_1_STROKES" class="st2" d="M234.7,134.6l-0.9,1.2"/>
	</g>
</g>
<g transform="matrix( 1, 0, 0, 1, 0,0) ">
	<g>
		<path id="Layer3_11_MEMBER_1_MEMBER_314_1_STROKES" class="st2" d="M231.3,137.6c0.3-0.2,0.5-0.6,0.5-0.9"/>
	</g>
</g>
<g transform="matrix( 1, 0, 0, 1, 0,0) ">
	<g>
		<path id="Layer3_11_MEMBER_1_MEMBER_315_1_STROKES" class="st2" d="M231.9,136.2c0-0.6-0.2-1.1-0.6-1.5c-0.2-0.5-0.6-0.9-1-1.2"/>
	</g>
</g>
<g transform="matrix( 1, 0, 0, 1, 0,0) ">
	<g>
		<path id="Layer3_11_MEMBER_1_MEMBER_316_1_STROKES" class="st2" d="M229.8,133.2c-0.4-0.1-0.7-0.1-1,0c-0.2,0.1-0.3,0.3-0.4,0.6"
			/>
	</g>
</g>
<g transform="matrix( 1, 0, 0, 1, 0,0) ">
	<g>
		<path id="Layer3_11_MEMBER_1_MEMBER_317_1_STROKES" class="st2" d="M230.6,137.7c0.3,0.1,0.5,0.1,0.8-0.1"/>
	</g>
</g>
<g transform="matrix( 1, 0, 0, 1, 0,0) ">
	<g>
		<path id="Layer3_11_MEMBER_1_MEMBER_318_1_STROKES" class="st2" d="M231,137.4c0.2-0.1,0.3-0.2,0.3-0.4"/>
	</g>
</g>
<g transform="matrix( 1, 0, 0, 1, 0,0) ">
	<g>
		<path id="Layer3_11_MEMBER_1_MEMBER_319_1_STROKES" class="st2" d="M231.5,136.1c-0.1-0.5-0.2-0.9-0.4-1.2c-0.3-0.5-0.7-0.9-1-1.1
			"/>
	</g>
</g>
<g transform="matrix( 1, 0, 0, 1, 0,0) ">
	<g>
		<path id="Layer3_11_MEMBER_1_MEMBER_320_1_STROKES" class="st2" d="M229.2,133.5l-0.4,0.1"/>
	</g>
</g>
<g transform="matrix( 1, 0, 0, 1, 0,0) ">
	<g>
		<path id="Layer3_11_MEMBER_1_MEMBER_321_1_STROKES" class="st2" d="M253.4,142.2l-0.6-0.3"/>
	</g>
</g>
<g transform="matrix( 1, 0, 0, 1, 0,0) ">
	<g>
		<path id="Layer3_11_MEMBER_1_MEMBER_322_1_STROKES" class="st2" d="M205.4,122.2l21.5,12.5"/>
	</g>
</g>
<g transform="matrix( 1, 0, 0, 1, 0,0) ">
	<g>
		<path id="Layer3_11_MEMBER_1_MEMBER_323_1_STROKES" class="st2" d="M231.8,137.5l7.1,4.1"/>
	</g>
</g>
<g transform="matrix( 1, 0, 0, 1, 0,0) ">
	<g>
		<path id="Layer3_11_MEMBER_1_MEMBER_324_1_STROKES" class="st2" d="M243.9,144.5l9.1,5.2l74.8-43.1"/>
	</g>
</g>
<g transform="matrix( 1, 0, 0, 1, 0,0) ">
	<g>
		<path id="Layer3_11_MEMBER_1_MEMBER_325_1_STROKES" class="st2" d="M253,149.7v5.7"/>
	</g>
</g>
<g transform="matrix( 1, 0, 0, 1, 0,0) ">
	<g>
		<path id="Layer3_11_MEMBER_1_MEMBER_326_1_STROKES" class="st2" d="M207.4,126.7V126"/>
	</g>
</g>
<g transform="matrix( 1, 0, 0, 1, 0,0) ">
	<g>
		<path id="Layer3_11_MEMBER_1_MEMBER_327_1_STROKES" class="st2" d="M205.4,124.8l2,1.2"/>
	</g>
</g>
<g transform="matrix( 1, 0, 0, 1, 0,0) ">
	<g>
		<path id="Layer3_11_MEMBER_1_MEMBER_328_1_STROKES" class="st2" d="M250.5,150.9l2.4,1.4l74.8-43.1"/>
	</g>
</g>
<g transform="matrix( 1, 0, 0, 1, 0,0) ">
	<g>
		<path id="Layer3_11_MEMBER_1_MEMBER_329_1_STROKES" class="st2" d="M327.7,106.6v2.6"/>
	</g>
</g>
<g transform="matrix( 1, 0, 0, 1, 0,0) ">
	<g>
		<path id="Layer3_11_MEMBER_1_MEMBER_330_1_STROKES" class="st2" d="M327.7,106.6l-7.3-4.2"/>
	</g>
</g>
<g transform="matrix( 1, 0, 0, 1, 0,0) ">
	<g>
		<path id="Layer3_11_MEMBER_1_MEMBER_331_1_STROKES" class="st2" d="M318.1,101l-3.1-1.8"/>
	</g>
</g>
<g transform="matrix( 1, 0, 0, 1, 0,0) ">
	<g>
		<path id="Layer3_11_MEMBER_1_MEMBER_332_1_STROKES" class="st2" d="M205.4,122.2l19.7-11.4"/>
	</g>
</g>
<g transform="matrix( 1, 0, 0, 1, 0,0) ">
	<g>
		<path id="Layer3_11_MEMBER_1_MEMBER_333_1_STROKES" class="st2" d="M253,155.4l-0.6-0.4v-2.3l-1.8-1.1v-0.7"/>
	</g>
</g>
<g transform="matrix( 1, 0, 0, 1, 0,0) ">
	<g>
		<path id="Layer3_11_MEMBER_1_MEMBER_334_1_STROKES" class="st2" d="M205.9,125.9l1.4,0.8l0.8-0.3"/>
	</g>
</g>
<g transform="matrix( 1, 0, 0, 1, 0,0) ">
	<g>
		<path id="Layer3_11_MEMBER_1_MEMBER_335_1_STROKES" class="st2" d="M205.9,128.3l2.8-1.6"/>
	</g>
</g>
<g transform="matrix( 1, 0, 0, 1, 0,0) ">
	<g>
		<path id="Layer3_11_MEMBER_1_MEMBER_336_1_STROKES" class="st2" d="M205.4,124.8l20,11.5"/>
	</g>
</g>
<g transform="matrix( 1, 0, 0, 1, 0,0) ">
	<g>
		<path id="Layer3_11_MEMBER_1_MEMBER_337_1_STROKES" class="st2" d="M229.1,138.5l8.3,4.9"/>
	</g>
</g>
<g transform="matrix( 1, 0, 0, 1, 0,0) ">
	<g>
		<path id="Layer3_11_MEMBER_1_MEMBER_338_1_STROKES" class="st2" d="M241.3,145.5l9.2,5.4"/>
	</g>
</g>
<g transform="matrix( 1, 0, 0, 1, 0,0) ">
	<g>
		<path id="Layer3_11_MEMBER_1_MEMBER_339_1_STROKES" class="st2" d="M320.6,113.3v3"/>
	</g>
</g>
<g transform="matrix( 1, 0, 0, 1, 0,0) ">
	<g>
		<path id="Layer3_11_MEMBER_1_MEMBER_340_1_STROKES" class="st2" d="M253,155.4l67.6-39.1"/>
	</g>
</g>
<g transform="matrix( 1, 0, 0, 1, 0,0) ">
	<g>
		<path id="Layer3_13_1_STROKES" class="st4" d="M344.2,209.1H179.8v-47.4h164.4V209.1z"/>
	</g>
</g>
<g transform="matrix( 1, 0, 0, 1, 0,0) ">
	<g>
		<path id="Layer3_16_1_STROKES" class="st4" d="M155.9,181.9v21.2H30.9v-21.2v-23.2h125.1V181.9H30.9"/>
	</g>
</g>
<g transform="matrix( 1, 0, 0, 1, 5.4,19.7) ">
	<g>
		<g id="Layer3_17_FILL">
			<path class="st5" d="M2.5,165.1c-0.3,0-0.5,0.2-0.5,0.6v6.8h-3.9c-0.2,0-0.4,0.1-0.5,0.3c-0.1,0.2-0.1,0.4,0.1,0.6l7,7.8
				c0.1,0.1,0.3,0.2,0.4,0.2c0.1,0,0.3-0.1,0.4-0.2l7-7.8c0.1-0.1,0.2-0.3,0.1-0.6c-0.1-0.2-0.3-0.3-0.5-0.3H8.2v-6.8
				c0-0.4-0.2-0.6-0.5-0.6H2.5 M3,166.2h4.1v6.7c0,0.4,0.2,0.5,0.5,0.5h3.3l-5.8,6.4l-5.8-6.4h3.2c0.4,0,0.6-0.2,0.6-0.5V166.2z"/>
			<path class="st1" d="M7.1,166.2H3v6.7c0,0.4-0.2,0.5-0.6,0.5h-3.2l5.8,6.4l5.8-6.4H7.6c-0.3,0-0.5-0.2-0.5-0.5V166.2z"/>
		</g>
	</g>
</g>
<g transform="matrix( -1, 0, 0, -1, 65.7,355.45) ">
	<g>
		<g id="Layer3_18_FILL">
			<path class="st5" d="M52.6,178c-0.3,0-0.5,0.2-0.5,0.6v6.8h-3.9c-0.2,0-0.4,0.1-0.5,0.3c-0.1,0.2-0.1,0.4,0.1,0.6l7,7.8
				c0.1,0.1,0.3,0.2,0.4,0.2c0.1,0,0.3-0.1,0.4-0.2l7-7.8c0.1-0.1,0.2-0.3,0.1-0.6c-0.1-0.2-0.3-0.3-0.5-0.3h-3.9v-6.8
				c0-0.4-0.2-0.6-0.5-0.6H52.6 M53.2,179.1h4.1v6.7c0,0.4,0.2,0.5,0.5,0.5H61l-5.8,6.4l-5.8-6.4h3.2c0.4,0,0.5-0.2,0.5-0.5V179.1z"
				/>
			<path class="st1" d="M57.3,179.1h-4.1v6.7c0,0.4-0.2,0.5-0.5,0.5h-3.2l5.8,6.4l5.8-6.4h-3.2c-0.3,0-0.5-0.2-0.5-0.5V179.1z"/>
		</g>
	</g>
</g>
<text transform="matrix(1 0 0 1 185.1218 176.3932)"><tspan x="0" y="0" class="st6 st7 st8">3440-P1A-A1   3440-P2B-A1</tspan><tspan x="0" y="14.4" class="st6 st7 st8">3440-P1B-A1   3440-P2C-A1</tspan><tspan x="0" y="28.8" class="st6 st7 st8">3440-P2A-A1   3440-P2D-A1</tspan></text>
<text transform="matrix(1 0 0 1 19.2781 174.3932)"><tspan x="0" y="0" class="st6 st7 st8">T  3440-P1-E1 TO P4-E1</tspan><tspan x="0" y="21" class="st6 st7 st8">B  3440-P1-E2 TO P4-E2</tspan></text>
</svg>
