<?xml version="1.0" encoding="iso-8859-1"?>
<!-- Generator: Adobe Illustrator 24.3.0, SVG Export Plug-In . SVG Version: 6.00 Build 0)  -->
<svg version="1.1" id="Ebene_1" xmlns="http://www.w3.org/2000/svg" xmlns:xlink="http://www.w3.org/1999/xlink" x="0px" y="0px"
	 viewBox="0 0 42.5 28.3" style="enable-background:new 0 0 42.5 28.3;" xml:space="preserve">
<style type="text/css">
	.st0{fill:#686867;}
	.st1{fill:#FFFFFF;}
	.st2{font-family:'ArialMT';}
	.st3{font-size:5.2278px;}
	.st4{fill:#CCCACA;}
	.st5{fill:#172F32;}
</style>
<g>
	<rect y="4" class="st0" width="42.5" height="20.6"/>
	<g>
		<text transform="matrix(1 0 0 1 0.5857 10.6229)" class="st1 st2 st3">EVENT MARKER</text>
		<g>
			<path class="st4" d="M18,14.4c-0.9,0.9-1.3,2-1.3,3.2s0.4,2.3,1.3,3.2c0.9,0.9,2,1.3,3.2,1.3s2.1-0.4,3.1-1.3
				c0.9-0.9,1.3-2,1.3-3.2s-0.4-2.3-1.3-3.2c-1-0.8-1.9-1.2-3.1-1.2S18.9,13.6,18,14.4z"/>
			<path d="M18.8,15.1c-0.7,0.8-1.1,1.6-1.1,2.5s0.4,1.9,1.1,2.5c0.7,0.7,1.5,1.1,2.5,1.1c0.9,0,1.6-0.4,2.4-1.1
				c0.7-0.7,1.1-1.5,1.1-2.5c0-0.9-0.4-1.7-1.1-2.5c-0.7-0.5-1.5-0.9-2.4-0.9C20.3,14.2,19.5,14.5,18.8,15.1z"/>
			<path class="st5" d="M22.4,16.3c-0.3,0.4-0.5,0.9-0.7,1.6c-0.1,0.7-0.1,1.2-0.1,1.7s0.3,0.8,0.5,0.8c0.3,0,0.5-0.1,0.9-0.5
				s0.5-0.9,0.7-1.6c0.1-0.5,0.1-1.2,0.1-1.7c-0.1-0.4-0.3-0.7-0.5-0.8C23.1,15.7,22.8,15.9,22.4,16.3z"/>
		</g>
	</g>
</g>
</svg>
