<?xml version="1.0" encoding="utf-8"?>
<!-- Generator: Adobe Illustrator 24.1.2, SVG Export Plug-In . SVG Version: 6.00 Build 0)  -->
<svg version="1.1" id="Ebene_1" xmlns="http://www.w3.org/2000/svg" xmlns:xlink="http://www.w3.org/1999/xlink" x="0px" y="0px"
	 viewBox="0 0 349.1 161" style="enable-background:new 0 0 349.1 161;" xml:space="preserve">
<style type="text/css">
	.st0{fill:#CCCCCC;}
	.st1{fill:#0099FF;}
</style>
<g>
	<path class="st0" d="M135.8,75.9v-0.1l-0.1-0.3l-0.1,0.4l0,0.7h-0.1l0,0.1l-0.2,0.2l-0.3,0.4l0.1,0.2l-0.5,0.2l-0.4,0.4l-0.1-0.1
		l-0.1,0.1l-0.2,0v0.1h-0.4l-1.9,0.6l-1.3,0.8l-0.2,0.2l-0.1,0.4l-0.1,0.6v0.4l0.1,0.8V82l0.1,0.2l0.4,0.4v0.1h0.1v0.1l1,0.6
		l1.9,0.6h0.1l1.7,0.2h0.3v-0.1h0.4l0.2-0.1h0l0.4-0.2l0.2-0.2l0.4-0.5l0.1-4.9l-0.2-0.3l-1-1.9h-0.1v-0.1H135.8 M183.4,90.4
		l-3.7,0.7h-0.1l-6.9,0.4v4.8l0.4,2.9v0.2l0,0.1l1.1,1.1l1.2,0.6v-0.1l2,0.4h1.9l1.8-0.4l1.6-0.8l0.8-1l0.1-0.2l0-2l-0.1-0.4h0.1
		l0-0.5h-0.2V90.4 M183.2,96.4l0.1,1.3h-0.7l-8.8,0.9l-0.6,0.1l-0.1-1.4h0.6l8.8-1H183.2 M209.3,70.4l0,0.1l0.2,4.6l0.2,0.3l1,0.8
		l-0.2,0.2l1.5-0.6h0.2l1-0.6l0.6-0.6l0.2-0.7h-0.1v-0.7l-0.1-0.7h0.1l-0.2-0.5l-0.1-0.1h-0.1l-1.1-0.8l-1.6-0.5L209.3,70.4
		 M172.2,85h-0.1l-0.4,0l-0.4,0v0l-7.6-0.6l0,5.3l12,0.4l7.7-1.1h0.8l6.6-1.9V87l3.5-1.3l3.1-1.6h0.1l2.6-1.7h0.1v-0.1h0.1l2.2-1.7
		l1.9-2l0.6-0.8v-0.4h0.3l0.7-1v-0.1h0.2l0.9-1.6l-0.2-0.8l0.4-0.1l0.5-1.9l0.1-2.3h0l0.1-1.9l-0.1,0.4v0.1h-0.1v0.3l-0.6,1.2v0.1
		l-0.1,0.1l0.1,0.2l-0.2,0.1l-0.6,0.8v0.4H206l-1,1.4l-0.1,0.1v0.1h-0.1l-2.8,2.8l-1.6,1.3h-0.1l-1.9,1.2h-0.1l-4.1,2.2h-0.1
		l-4.6,1.9h-0.1l-4.4,1.1v0l-0.1,0v0.1h-0.5l-5.9,1h-0.1L172.2,85 M162.4,90.9l-0.1,0l0.1-1.3v-4l-0.8,1.3l0,5.7l0.8-1.2V90.9
		 M154.2,88.7l-0.1,0.5v3.4l6.3,1.3l-0.1-6.9l-6.2-1.3v3H154.2 M146.6,79.3h-0.1l-4.4-3v-0.1l-1.7-1.5h-0.1v-0.1h-0.1l-1.6-1.7v-0.1
		l-0.7-0.9h-0.3l0-0.3l-0.4-0.5l-0.4-0.6l0.8-0.5l0-0.5l-1.3,0.4l-0.6-1.8l0,3.5l0.3,1.3l0.9,2.4l1.3,2.1v-0.1l0.1,0.1h0.4v0.5
		l1,1.3l1.7,1.7l4.8,3.4l5,2.3l0-0.2v-0.1l0.5-1.1l0.1-0.1l0.1-0.2l0.1-0.1h0.1v-0.1h0.1l0.2-0.4l0.2,0.1v-0.1l0.2,0l1.1-1.7l-2-0.6
		h-0.1l-2.5-1.1h-0.1l-2.5-1.2h-0.1L146.6,79.3 M155.6,82.8l-0.2,0l-1,1.6l6.2,1.3l1.3-2.1l-6.1-1.3L155.6,82.8 M150.8,50.8
		l-0.1-0.1l-2.7-1.9h-0.2v-0.1h-0.1l-2.6-2.3l-1.7-2.1l-0.7,0.1l0.1,3.5l0.3,1.2l1.9,4l0.1,0.1l0.8,1.1v0.1l2.1,2l2.3,1.6l4.9,2.7
		l5.3,1.7h0.1v0.1l3.2,0.6h0.2l4.6,0.5h2.3l0-5.8l-0.2-1.7l-0.2-0.4l-8.1-0.8h-0.1l-7.2-2.1l-0.1,0.1l-0.4-0.2l-0.8-0.2l0.1-0.1
		L150.8,50.8 M148.7,44.1h-0.1l-1.1-0.2h-1.3l-1.2,0.2l1.2,1.5v0.1h0.1v0.1l2.2,2v-0.1l2.9,2h0.1v0.1l3.2,1.5l0.2,0l3.7,1.2h0.1l4,1
		h0.1l7.4,0.8l-0.3-0.9v-0.1l-0.3-0.4l-0.7-0.5l-1.1-0.5l-5.8-1.3h-0.1l-2.1-0.6h-0.1l-3.7-1.5h-0.1l-1.7-1h-0.1l-0.1-0.1l-1.4-1
		h-0.1l-0.1-0.1l-0.8-0.6l0,0l-1.4-1L148.7,44.1 M151.4,27.9v-1.8l-1.6,0.9l-3.1,2.5l-1.3,1.4l-1.7,2.5v0.1h-0.1l-0.5,1.3v0.1l0,0.2
		l3.2-0.4l-0.1-0.1l0.7-0.5l0.5-0.8l0.6-1.4l1-1.1v-0.2h0.1v-0.1L151.4,27.9 M159.4,20.3H159V20l-0.5-0.1h-0.1l-0.2-0.1l-0.6,0.2
		h-0.1l-3.5,2.8l-0.2,0.4v0h0l-0.1,0.1l0,0l-0.1,0.2l0.1,0.1l-0.4,0.4l-0.3,1.8v2l0.4,0.4l-0.4,0.3V30l0.4,0.4l-0.4,0.3v0.1l0.2,0.1
		l-0.2,0.6v0.8h-0.2l0,0.1l-0.4-0.1h-0.7v-0.1l-0.4,0.7v2.5l0.2,0.5l0.5,0.5v0.1l1.5,0.7h0.1v0.1h0.1v0.1l1.1,0.2v-0.1l1.9,0.2h0.3
		l1.2-0.1l1.7-0.5h0.1l1.1-0.6l0.8-0.9l0.2-0.5v-1l-0.1-0.6h0.1v-0.7l-0.4-0.8v0.4l-1.4,0.1v-0.6l0-0.2h-0.1v-1.2l-0.2-0.2l0.2-0.4
		V28l-1.1-0.8l0.8-1.1l0.5,0.4l0.5,0.2l0.8-0.6l0.3-0.4l0.2-0.8v-0.7l-0.1-0.3l-0.4-0.4l0.2-0.2l-0.1-0.2v-0.1l-0.5-0.7l-0.1-0.2
		l-0.5-0.6l-0.7-0.6l-0.3-0.2l-0.2,0.2L159.4,20.3 M175.5,17.6l0.1-0.2l-0.1,0l0.1-0.2l0,0l-1.4,1.3l-0.3,0.2v0.1h-0.1l-0.5,0.2
		l0.2,0.8l1.9,0.2v0l-0.1,0l0.1-0.6l-0.1,0L175.5,17.6L175.5,17.6 M205.5,38.2l-0.3-0.1l0.5,12.6h0.1l0.4,2l0.3,15.1h0l0.4-1.5V66
		h0.1l0.2-3.4l0.2,0l-0.2-3.3l0-0.2h0l-0.8-19.8l-0.7,0.2l-0.1-0.7L205.5,38.2 M184.3,55.4v0.3h0.1l0.1,1.3h0l0,4.8l3.8-1.2v-0.1
		l3.6-1.9h0.2l1.7-1.1l2.8-2.5h0.1v-0.1h0.1l0.8-0.8l2.3-3.6H200l0.7-2.2h-0.1l0.2-1.5v-3.2l-0.1-0.2l-1.3,1.9l-2.5,2.5l-2.5,1.9
		l-0.1,0.1h-0.1l-2.9,1.7l-0.1,0.1H191l-6.9,2.5L184.3,55.4 M194.7,43.1v0.1h-0.1l-2.3,2.5h-0.1l-1.3,1l-0.1,0.1h-0.1l-1.5,0.9
		l-0.1,0.1h-0.2v0.1l-4.7,2.1l-0.5,0.4v0.1l-0.4,0.5l-0.1,0.1v0.3l0.4,1.4l6.7-2.3v-0.1l3.2-1.7l0.1-0.1l2.5-1.9l2.1-2.1h0.1v-0.1
		h0.1v-0.1l1.3-2.1h0.1l0.7-2.2v-0.1l0.2-1.1v-0.4l-1,0.1h-0.1l-1.3,0.2l-1.3,0.5l-0.7,0.6l-0.5,0.8l-0.5,1.1l-0.8,1.3L194.7,43.1
		 M179.6,28.6l-0.5,0.1l-0.2,0.1l-0.2,0.2l-2.7,2.1l-0.6,0.6l-0.1-0.1l-0.2,0.4l-0.1,0.1l-0.1,0.2l-0.3,0.8l-0.2,0.8l0,0.1l-0.1,0.4
		v4.2l0.2,0.3l-0.2,0.2v0.1l0.1,0l-0.1,0.6v0.8h-0.2l0,0.2l-1.1-0.2l-0.4,0.7l0,0.4h0v2.3l0.1,0.2l0.4,0.5l0.1,0.1h0.1v0.1l0.6,0.4
		h0.1v0.1h0.1l2.1,0.7h0.1l1.5,0.1h0.3l1.5-0.1l1.6-0.4l1.4-0.7l0.7-0.6l0.4-0.7v-0.4h-0.1v-2.2l-0.2-0.6v0.4l-1.4,0.1v-0.8h-0.1
		v-0.6l-0.1-0.6l-0.2-0.1l0.2-0.5v-2.1l-0.5-0.5l-0.6-0.4l0.7-1.1l1.1,0.7l0.7-0.6l0.4-0.4l0.2-0.8h-0.1v-1.1h0.1l-0.4-0.5l0.2-0.2
		h-0.1l-0.5-1.1h-0.1l-0.5-0.7l-1-0.6v-0.1h-0.1l-0.2,0.1l-0.4-0.4l-0.2-0.1l-0.7-0.2H179.6 M190.1,23.1H190l-0.8-0.6l-1.3-0.4
		l0.8,1.1l-2.5,2v0.2l-0.3,0.1l-0.2,0.2l0,0.2l-0.4,0l-2.8,2.3l0.7,0.5h0.1V29h0.1v0.1l0.6,0.8V30h0.1v0.1h0.1l0.4,0.8l3.3-2.6
		l0.1-0.4l0.3,0.1l1.2-1l0.5-0.5l0.8,1.1l-1,0.8l0.2,0l0.7-0.2l0.4-0.3l0.2-0.2l0.2-0.6v-0.6l-0.1-0.9l-0.5-1.1h-0.2L190.1,23.1
		 M193.5,20.7l-0.8-0.6l-2-0.8h-0.1l-0.6,0.2l0.1,0.2l-1.6,1.4l0.9,0.2h0.2v0.1l1.1,0.7h0.1v0.1h0.1l0.1,0.1l1.1,1.4v0.1l0.6,1
		l0.2,0l0.1,0.6l0.3,0.6l-0.2,0.1v0.6l0.9-0.7l0.5-0.5l0.4,0.5l0.1-0.1l0.1-0.6V25h0.1v-0.5l-0.1-0.7l-0.4-1.1l-0.4-0.9L193.5,20.7
		 M196,29.6h0.9l-0.6-0.6h-0.1l-1.5-1.3l-0.2,0.1h-0.2l-0.8,0.3l-0.6,0.5l0.7,0.4h0.1v0.1h0.1v0.1l0.7,0.2v-0.1L196,29.6
		 M198.6,30.9l-0.2,0.2l-0.2-0.2l-2.3,0l-1.4-0.2h-0.2l-1.3-0.5l-0.1-0.1l-1-0.7l-0.3,0.3l-0.1-0.2h-0.1l-0.6,0.3h-0.4l-0.8-0.1
		h-0.1l-0.6-0.2l-3.5,2.8v0.1l0.1,0.1v1.1l-0.1,0.1l-0.1,0.9v0.2l-0.3,0.3l0,0.1l-0.6,0.6l-0.2,0.3l-0.1,0l-0.6,0.5v1.9l0.2,0.1
		l0.1,0.1v0.1l0.5,0.6h0.1v0.1l0.1,0.1l0.4,0.9h0.3v0.7l0.1,0.2l-0.1,0.1v2.5l-0.5,1.1l-0.2,0.1v0.1h-0.1l-0.8,0.8h-0.1v0.1h-0.1
		l-1.4,0.8h-0.1l-1.7,0.5l-1.8,0.1l-2.3-0.1l-1.1-0.3l-0.1,0.1l-0.3-0.2l-0.8-0.3l0.1-0.2l-0.2-0.1h-0.1l-0.1-0.1l-0.6-0.5h-0.1
		l-0.1-0.1h-0.1l-0.4-0.5h-0.1v-0.1l-0.2-0.1v-0.1l-0.1-0.2h-0.4v-0.8l-0.1-0.3l0.1,0v-1.9h0.1l0-0.8l0.1-0.1v-0.1h0.1l0.4-0.9v-0.2
		h0.1v-0.1h0.1l0.8-0.8v-3.6l-0.1,0l0.1-0.6v-0.7h0.1v-0.1l0.1-0.5h0l0-0.2l-0.1,0l0.2-0.4v-0.1l-0.1-0.1l0.2-0.3l0-0.3l0.1,0
		l0.2-0.4l0.2,0.1l-0.1-0.1l0.1,0l-0.1-0.1l0.3-0.3l-0.1-0.1l0.2-0.1l-0.2-0.2h-0.1v-0.1h-0.1v-0.1l-0.2-0.4h-0.2v-0.6l-0.4-0.6
		l0.3-0.2v-0.4h-0.1l0-0.6l0-0.8h0.1l0-1l0.5-1.1l1.2-1.2v-0.4l-0.7-0.3h-0.1l-0.9-0.5v-0.1l-0.5-0.4l-0.4-0.4l-0.1-0.4h-0.4l0-0.5
		l0,0l-0.4-1.3l-0.8,0l-0.7-0.3l-0.5,0.4l-0.4,0.2l0,0l-0.1,0.1v0h-0.2l-0.5,0.2h-0.2l-0.3,0l-4.4,3.6l0,0.2v1.5h-0.1l-0.1,0.5V26
		h-0.1v0.2l-0.2,0.3l0.1,0.1l-0.4,0.3l-0.5,0.6l-0.1,0l-0.6,0.6v1.9l0.1,0.1v0.1h0.1l0.8,0.8l0.5,1h0.3v0.6l0.2,0.4l-0.2,0.1v2.6
		l-0.5,1l-1.1,1.1h-0.2l-1.3,0.8h-0.1v0.1h-0.1l-1.6,0.5l-2.1,0.1l-2-0.2h-0.1l-1.6-0.5h-0.1l-1-0.4l-0.1-0.1l-0.6-0.5l-0.1-0.1
		h-0.1l-0.4-0.6h-0.2v-0.1h-0.1v-0.1l-0.2-0.4h-0.1l0-0.3l-0.3-0.7l0.2-0.1v-0.4l-0.1,0l0.1-0.6l-0.1-0.6h0.1v-1h0.1v-0.2l0.6-1.3
		h0.1v-0.1h0.1l0.7-0.7v-0.2l-1.3,1.2l-1,1.4l-0.1,0.1l-0.3,0.7h0l-0.5,1.1l-0.1,0l-0.2,0.3l-0.2,0.2l-0.8,0.6l-0.1,0.1l-1.3,0.5
		h-0.1l-1.2,0.2h-0.2l-1.3,0.1l-0.1,0.2l-0.6-0.2l-2.9,0.3l-0.8,0.2l-0.4,0.3l0.1,0l0.2,0.6l1.4,4.6l0.2,0.6l-1.4,0.5l-0.1-0.7
		l-1.3-4l-0.8,18.3l0.2,0.1l-0.2,0.5l-0.1,1.5h0l0,0.3l-0.2,4.7h-0.3v0.4l0.6-0.2l0.1,0.7l0.6,2.1l0.6,1.5l0.8-20.1l-0.1,0l0.1-0.2
		l0.1-2.7l-0.1,0l0.1-0.6v-0.7l0.2,0v-0.2l0.4-0.4v-0.2h0.1v-0.1h0.1l0.4-0.2h0.1v-0.1h0.1l0.1-0.1l1.1-0.2v0h0.4l0.2-0.2l0.3,0.2
		l1.5-0.2l0.2-0.2l0.2,0.1l1.3-0.2v-0.1h2.5l1.4,0.2l0.1,0.1l1,0.4h0.2l0.1,0.1h0.1l0.4,0.3l0,0l0.2,0.2l0.3,0.2l0.6,0.5l0,0.1
		l0.8,0.6h0.1v0.1h0.1v0.1l3.1,1.7v0.1h0.1l3.7,1.5h0.2v0.1l1.9,0.4h0.1l3.8,0.8v0l0,0l0.6,0.1l0.6,0.2l0.8,0.1h0.1l1.2,0.5l0.1,0.1
		l0.9,0.6l0.1,0.1v0.1l0.2,0.4l0.1,0l0.2,0.6v0l0.2,0.4l-0.1,0.1l0.3,0.9h0v0.2l0.2,0.8h0l0.2,1.3l0,0l0.1,1.2h0v0.6l0.1,0.6l-0.1,0
		l0.1,4.6h0l0.1,20l10.9-1.3l-0.1-13.2l-0.2-0.8l0.2,0l0-5.3l-0.3-0.8l0.3-0.1l0-3.8h0l-0.1-2.6l-0.3-1.5l0,0h0l-0.4-1.3h0.1
		l-0.3-1.2l-0.5-0.1l0.2-0.6v-1.5h0.6v-0.1h0.2v-0.1h0.1v-0.1l0.5-0.2V49h0.1v-0.1h0.1v-0.1h0.1l1.5-0.7l0,0.1l3.2-1.5v-0.1h0.2
		l1.4-0.8h0.1v-0.1h0.1l1.3-0.7l-0.1-0.2l2.3-2.5h0.1V42h0.1l1.1-2.3l0.4-0.6l0.1,0.1l0-0.1V39h0.1v-0.2h0.1l0.8-0.8h0.2l1-0.4v-0.1
		h0.2l0.9-0.2l0-0.2h0.8l0.4-0.1l0,0.1L201,37v-0.1l0.5,0l2.3-0.2v0h0.1v-0.1l0.4,0.1l0.8-0.1l0,0.1h0.2v0.1h0.1l0.4,0.1L206,37h0
		l-1.8-5.9l-0.3-0.4l-0.5-0.2h-0.8L198.6,30.9 M172.3,57.5l-0.1-1.3h0.6l9.9-1l0.1,1.4l-9.9,1H172.3 M195.6,19.5v-0.1h-0.1v-0.1
		l-0.6-0.5h-0.1l-0.6-0.5h-0.1v-0.1l-0.6-0.2h-0.2l-0.6-0.1h-0.8l-0.4,0.1l-0.1,0.1l0.8,0.2h0.1l1.1,0.6h0.1V19l1,0.7v0.1h0.1
		l0.1,0.1l0.5,0.7l0.1-0.1l0.4,0.8l0.2,0.2l-0.1,0.1L196,22v0.1l0.2,0.7l0.1,0.1v0.3h0.1v0.1l0.1,1v0.1l0.4-0.6l0.1-1v-0.1l-0.1-1.1
		h-0.1l-0.7-1.5L195.6,19.5 M184.8,13.1L184.8,13.1l0.7,0.5v0.1h0.2v0.1h0.1V14l0.6,0.8l0.1,0.1V15l0.5,0.8l3.2-2.6l0.1-0.4l0.3,0.1
		l1.8-1.6l0.9,1.1l-1.1,0.9h0.5l0.6-0.1l0.4-0.6v-0.2h0.1l0.1-0.6v-0.1l-0.1-0.8v-0.1l-0.4-0.9L193.2,9l-0.9-1h-0.1l-1.1-0.7
		L191,7.2L190.3,7h-0.1l-0.7,0.1l-0.6,0.4h-0.1l-0.1,0l-0.2,0.3l-0.1,0.6l1.2-1l0.6-0.4l0.8,1l-2.5,2l0,0.2l-0.4,0.1L184.8,13.1
		 M182.6,13.5h-1.1l-0.9,0.6l-2.2,1.8l-0.9,1V17l-0.4,0.4l-0.1,0.2v0.1l0,0.1l-0.2,1.1v3.4l0.1,0l-0.1,0.4v1.1l0.2,0.2l-0.2,0.2v0.1
		l0.1,0l-0.1,0.6v0.8h-0.2l0,0.2l-0.9-0.2h-0.2v0l-0.1,0L175,26l0,2.9l0.3,0.6l0.2,0.2l1.9-1.5l-0.1-0.2l0.6-0.2l0.1,0l0.4-0.4
		l0,0.1l0.2-0.2l0.6-0.1h1.3l0.3,0.1l0.1-0.1l0.5,0.3l2.8-2.3h0v-1.1l-0.2-0.2l0.2-0.4v-1.1l-0.1,0l0.1-0.4v-0.6l-1-0.8l0.7-1.1
		l0.6,0.4l0.4,0.4l0.8-0.7l0.1-0.1l0.3-0.4l0.1-0.8v-0.6l-0.1-0.5l-0.2-0.3l0.2-0.1l0-0.1l-1.2-1.9l-0.6-0.5H184l-0.4-0.2l-0.1,0.1
		l-0.3-0.4l-0.2-0.1H183L182.6,13.5 M192.3,4.5L191.8,5l-1,0.8l0.9,0.3h0.1l1.1,0.7l0.7,0.7l0.2-0.1l0.5,0.8l0.2,0.2l0,0.1l0.4,0.6
		l0.1,0.1l0.4,1.1v0.2l0.1,0.8l0.1,0l0.9-0.8l0.5-0.5l0.4,0.4v0l0.1-0.5V9.4l-0.1-1V8.4h0.1l-0.2-0.8h-0.1l-0.5-1l-0.8-0.8V5.6
		l-0.1-0.1L195,5l-0.1-0.1h-0.1l-0.7-0.5l-1.1-0.2h-0.7l-0.1,0.1L192.3,4.5 M193.5,2.8l0.8,0.2h0.1l0.1,0.1l0.9,0.5h0.1v0.1h0.2v0.2
		l1.6,1.5l0.1,0l0.4,0.5L198,6l0.2,0.2l0,0l0.3,0.6V7l0.1,0.1l0.2,0.8v0.4l0.1,0.7v0.3l0.4-0.6l0.1-1.3V7.5h0.1l-0.4-1l-0.7-1.4V5
		L198,4.4h-0.1l-0.8-0.8V3.5H197L196.3,3l-0.1-0.1l-1.5-0.4h-0.4L193.5,2.8L193.5,2.8 M168.3,15.5l-0.4-0.4l-0.9-0.4l-0.3,0.3
		l-1.3,1.1l-0.1,0.3l-0.2,0l-2.6,2.1v0.3l-0.4,0l-0.8,0.7v0.1l0,0v0.1l-0.1,0l0.8,0.6v0.1l0.6,0.8v0.1h0.1v0.1h0.1v0.1l0.4,0.7
		l4.1-3.4l0-0.4l0.4,0.1l0.8-0.7l0.4,0.5l0,0l0.1-0.5v-0.4l-0.4-1.1l-0.6-0.7V15.5 M170.5,9.1l-0.6,0.2v0l1.2,0.5h0.2v0.1h0.1
		l1.1,0.9l0.2,0.2l0.8,1.1h0.1v0.1h0.1v0.1l0.6,1.1v0.1h0.1v0.1L175,15v0.7l0.4-0.7l0.1-0.9l-0.2-1.2v-0.1h-0.1v-0.1l-0.5-1h-0.1
		l-0.5-0.8h-0.2l-0.5-0.8l-1.9-0.8L171,9.1H170.5 M168.4,10.6l-0.6,0.3l-0.5,0.5l-0.2,0.7v0l1.5-1.3l0.7,1.1l-1.7,1.4h0.1v0.1h0.1
		l0.7,0.4l0.7,0.8h0.1v0.1l0.3,0.3l0.2-0.1l0.3,0.7l0.2,0.3l-0.1,0.1l0.3,0.9v0.1l1.3-1l0.5-0.5l0.8,1.1l-1.4,1.2l1.1-0.3l0.2-0.2
		l0.2-0.1l0.1-0.1l0.2-0.9v-0.8l-0.4-1.3l-0.6-1.1l-0.8-1l-1.1-0.8l-1.3-0.6H168.4z"/>
	<path class="st1" d="M140.1,45.2l0,0.2l0.3-0.4L140.1,45.2 M202.2,58.1l-2.5,2.8l-0.2,0.1v0.1h-0.1l-2.9,2.7h-0.1l-2.9,2l-0.1,0.1
		h-0.2l-3.4,1.7h-0.1l-1.9,0.6l-0.1,0.1h-0.2l-2.7,0.8l0.1,12.8l4.2-1.1l4.6-1.7h0.1v-0.1h0.1l3.8-2v-0.1h0.2l1.6-1.1l0.1-0.1l3-2.5
		h0.1v-0.1h0.1l1-1.3h0.1v-0.1h0.2l0.8-1.2V54.4l-2.6,3.7H202.2 M151,88.3l0-0.2v-0.2l-2.3-1h-0.2v-0.1h-0.1l-2.7-1.4h-0.1l-2.2-1.6
		H143v-0.1h-0.1l-2-1.6h-0.1l-0.1-0.1h-0.1l-1.7-1.9h-0.1l0.1,57.7l1,4l1.7,3.4v0.1l2.9,3.4v0.1h0.1v0.1l5.3,4.1v-0.1l4,2.1l0.3,0
		l4.3,1.5l0.1,0.1l4.3,1h0.2l4.1,0.5l8.8,0.1l8.9-1.6h0.4l4-1.4h0.1v-0.1h0.1l3.3-1.4v-0.1h0.1v-0.1h0.1l3.1-1.7l-0.1-0.1l3.3-2.7
		l1.5-1.6v-0.1h0.1l0.8-1.1V146h0.2v-0.1l1.8-3h-0.1l0.8-2.1v-0.1l0.8-4.3v-0.1l-0.1-1h-0.1V79.9l-1.5,1.5v0.1h-0.1v0.1l-2.5,1.9
		h-0.1l-2.7,1.8H198l-3.1,1.6h-0.1l-3.1,1.3l-0.1,0.1h-0.2l-3.5,1.2h-0.2l-2.7,0.6v6.2l0.1,1v0.1h0.1v2.1h-0.1v0.1l-0.2,0.4v0.1
		l-0.1,0.1v0.1h-0.2l-0.8,1l-0.2,0.2h-0.1l-1.6,0.7h-0.1l-1.5,0.4v0.2h-0.7l-0.5,0.1v-0.1h-1.7l-2-0.4H175l-1.6-0.7l-0.1-0.1h-0.1
		v-0.1l-0.8-0.7l-0.2,0.1l-0.2-0.4l-0.5-0.4l0.1-0.1v-0.4l-0.2-0.6l0.2,0l-0.2-1.8h-0.1v-5.5l-7.5-0.5v0l0.2,0.1l-0.2,0.4v0.5h-0.3
		l-1.8,2.8v0.5h-0.1l0,0.1l-0.2,0l-0.1,0.2l-0.4-0.2h-0.5v-0.1l-7.2-1.5h-0.5v-0.1l-0.1,0l0.1-0.6v-3.2l-0.3-0.1l-0.1,0.2l-0.6-0.4
		l-0.5-0.2l0.1-0.2h-0.1v-0.2l-0.2,0l0-0.2l-0.2-0.1L151,88.3 M152.6,87.1L152.6,87.1l0.1-0.4L152.6,87.1 M168.7,64.9l-4.7-0.5h-0.4
		l-8.1-2.2l0,0.1l-0.6-0.2l-1.6-0.9h-0.1l-3.5-2l-0.1-0.1l-2.3-1.6l-2.2-2.2h-0.1v-0.1l-0.7-1.1h-0.1v-0.1h-0.1v-0.1l-0.9-1.5v-0.1
		h-0.1v-0.1l-0.8-1.9l-0.2,0l-0.1-0.6l-0.3-0.6l0.2,0l-0.2-0.8l-0.1-0.1l0-1.4h-0.1v-0.8l-0.7,1.1l-0.8,1.9L138.9,71l0.7,1v-0.1
		l1.5,1.7l0.1,0.1l3.7,2.9h0.1v0.1l4.7,2.5h0.1v0.1h0.1l2.6,1v0.1l2.1,0.7l0.1-0.4l0.2,0l0.2-0.3l0.6,0.4l8,1.5l-0.1,0.4l7.5,0.6
		l-0.1-13l-6.8-0.6h-0.5l-5.1-0.8l-4.3-1.4h-0.2v-0.1H154l-4.2-1.7l-0.1-0.1l-1.6-1H148l-0.1-0.1h-0.1l-1.6-1.3H146l-1.1-1h-0.1
		l-0.1-0.1h-0.1v-0.1l-2.1-2.1h-0.1v-0.1h-0.1V60l-2.3-3.1l1.1-0.8l2.3,3.2l2.1,2.1l3.1,2.3v-0.1l1.9,1.3v-0.1l4.2,1.9h0.2v0.1
		l4.4,1.2h0.1V68l9.7,1.3l2.1,0.1l0-4.4H168.7 M175.3,21.6v0.1l0.1,0v-0.4l-0.7,0L175.3,21.6 M202.2,45.6V46h0.1l-0.1,0.6v0.6h-0.1
		l-0.4,2.3l0.1,0l-0.2,0.7l-0.1,0.5h-0.1v0.1h-0.1l-1.2,2.2v0.2l-0.1,0.1v0.1l-0.9,1.1v0.1h-0.1v0.1l-1.2,1.3l-2.7,2.3l-0.1,0.1
		h-0.1v0.1l-2,1.1h-0.1l-3.4,1.8h-0.3l-4.2,1.5l0,4.8l4.4-1.3v-0.1l3.6-1.7h0.1l3-2l0.1-0.1l2.7-2.3l0.2-0.2l2.5-2.9h0.1v-0.1h0.1
		l2.6-4l0.8,0.7v-0.9l-0.2-1.6l-0.1-0.1v-0.2h-0.1v-0.4l-0.8-2.4h0.1l-1.5-2.3h0.1L202.2,45.6 M185.8,21.3l-0.1,0.1h0.1V21.3
		 M186.3,21L186.3,21l-0.5,0.3h0.2L186.3,21 M187.9,22.2h-0.1l-0.7,0.1l-0.3,0.1l-0.2,0.2l-0.3,0.8l-0.1,0l-0.1,0.3v0l0.1,0
		L187.9,22.2z"/>
	<path d="M138.9,77.6h-1.4l0.2,23.7h1.3L138.9,77.6z"/>
	<path d="M139,99.2h-1.3V139h1.3V99.2z"/>
	<path d="M135.8,63h-1.4v6.9l0.1,0.6h1.3V63z"/>
	<path d="M209.5,70.5v-8l-0.1-0.8h-1.3v8.8H209.5z"/>
	<path d="M152.9,85.7l0.4,0.2l0.6,0.2l0.5-1.3l-0.6-0.2l-0.4-0.2l-0.6-0.2l-0.5,1.2L152.9,85.7z"/>
	<path d="M153.7,88.8l-2-0.6l-0.4,1.3l0.7,0.2l1.3,0.3l0.6,0.2l0.4-1.4L153.7,88.8z"/>
	<path d="M183.8,99.7h1.5v-2.1h-1.5V99.7z"/>
	<path d="M215.6,74l-0.2-1.4l-1.4,0.1l0.2,1.4v0.7l1.4-0.2V74z"/>
	<path d="M162.6,18.9l-0.1-1.3l-0.7,0.1l-1.7,0.1l-0.6,0.1l0.1,1.4l0.6-0.1L162.6,18.9z"/>
	<path d="M160.5,27.1V32h1.4v-4.8H160.5z"/>
	<path d="M152.1,23.1l-0.5,2.7L153,26l0.5-2.7L152.1,23.1z"/>
	<path d="M161.6,28.4l1.3-1.3l0.5-0.4l-0.9-1.1l-0.5,0.5l-1.4,1.1l-0.5,0.5l0.8,1L161.6,28.4z"/>
	<path d="M166.8,15.2l0.5-0.5l-0.8-1l-7.4,6.1l0.9,1.1l0.5-0.5L166.8,15.2z"/>
	<path d="M151.6,25.2v7.2h1.4v-7.2H151.6z"/>
	<path d="M156.9,18.9l-0.5,0.5l-3.4,2.7l0.8,1.1l4-3.2L156.9,18.9z"/>
	<path d="M168.8,18l-6.2,5l-0.5,0.5l0.8,1l6.2-5l0.5-0.5L168.8,18z"/>
	<path d="M149.7,33.4l0.1,0.6v1.6l0.1,0.6h1.4l-0.1-0.8V34l-0.1-0.7L149.7,33.4z"/>
	<path d="M152.7,32.5l0.1-0.6l0.4-0.8l-1.4-0.5l-0.1,0.6l-0.1,0.2l-0.2,0.8L152.7,32.5z"/>
	<path d="M162.4,32.1v2.9h1.4v-2.9H162.4z"/>
	<path d="M175.9,16.6l-0.5,2.7l1.4,0.2l0.5-2.7L175.9,16.6z"/>
	<path d="M175.6,18.7v7.1h1.4v-7.1H175.6z"/>
	<path d="M186.4,19.3l-0.5,0.5l-1.9,1.5l0.9,1.1l2.3-2.1L186.4,19.3z"/>
	<path d="M184.3,25.4h1.5v-4.8h-1.5V25.4z"/>
	<path d="M177.3,15.3l-0.5,0.5l0.8,1l3.5-2.8l0.6-0.4l-0.8-1.1L177.3,15.3z"/>
	<path d="M176.8,25.4l0.1-0.4l0.1-0.6l-1.4-0.4l-0.1,0.6l-0.1,0.4l-0.1,0.6l1.4,0.4L176.8,25.4z"/>
	<path d="M175.2,29.9l-0.1-3h-1.4l0.1,3.1L175.2,29.9z"/>
	<path d="M192.7,11.5l-0.5,0.5l-6.2,5.1l0.8,1.1l6.7-5.6L192.7,11.5z"/>
	<path d="M183.7,14.3l7.5-6.1l-0.8-1l-0.6,0.4l-6.9,5.7L183.7,14.3z"/>
	<path d="M174.7,34l0.2-1.3l0.2-0.6l-1.4-0.4l-0.1,0.8l-0.4,1.2l-0.1,0.8l1.3,0.2L174.7,34z"/>
	<path d="M183.5,40.6v-4.8h-1.4v4.8H183.5z"/>
	<path d="M183.8,40.8v2.9h1.5v-2.9H183.8z"/>
	<path d="M174.6,40.9v-7.1h-1.4v7.1H174.6z"/>
	<path d="M178.6,27.6l-4.1,3.2l0.8,1l0.6-0.4l3-2.3l0.5-0.5L178.6,27.6z"/>
	<path d="M173,40.9l1.4,0.2l0.1-0.6l0.1-0.4l0.1-0.6l-1.3-0.4l-0.2,0.7v0.2L173,40.9z"/>
	<path d="M189.9,27.1l-5.7,4.6l-0.5,0.5l0.8,1l6.7-5.4l-0.8-1.1L189.9,27.1z"/>
	<path d="M171.4,42v3.1h1.5V42H171.4z"/>
	<path d="M182.8,37.4l2.3-2l-0.9-1l-2.3,1.9L182.8,37.4z"/>
	<path d="M187.6,22.8l-6.4,5.2l-0.5,0.5l0.8,1l7.4-6l-0.8-1.1L187.6,22.8z"/>
	<path d="M201,37.5v10l1.4-0.1v-9.9H201z"/>
	<path d="M141.5,43.2v3.6h1.4v-3.6H141.5z"/>
	<path d="M188.5,20.3l3-2.3l-0.9-1.1l-0.5,0.5l-2.3,1.9L188.5,20.3z"/>
	<path d="M195.2,27.8l3-2.5l-0.9-1.1l-2.3,2.1l-0.6,0.4L195.2,27.8z"/>
	<path d="M169.9,9.2l-0.9-1l-2.8,2.5l1,1L169.9,9.2z"/>
	<path d="M172.9,18l0.8,1l0.6-0.4l2.2-2.1l-0.9-1l-0.5,0.5l-1.9,1.5L172.9,18z"/>
	<path d="M197.7,12.6l0.5-0.4l2.3-2.1l-0.9-1l-2.8,2.5L197.7,12.6z"/>
	<path d="M156.4,81.5l-1.1-0.8l-2.7,4.4l1.1,0.8L156.4,81.5z"/>
	<path d="M162.6,82.8V83l-2.5,3.8l1.3,0.7l1.2-1.8v6.5h1.4l-0.1-9.3h-0.1v-0.1h-0.1v-0.1h-0.3v-0.1H163v0.1h-0.2v0.1H162.6z"/>
	<path d="M154.7,82.2l9,1.9l0.2-1.4l-9-1.7L154.7,82.2z"/>
	<path d="M161.4,95.8l2.8-4.4l-1.3-0.7l-0.2,0.6l-2.5,3.8L161.4,95.8z"/>
	<path d="M154.2,84.3h-1.3V94h1.3V84.3z"/>
	<path d="M160.4,86l0.1,9.6h1.4l-0.1-9.6H160.4z"/>
	<path d="M161.9,86.1l-8.9-1.9l-0.2,1.3l8.9,1.9L161.9,86.1z"/>
	<path d="M152.7,93.8l9,1.9l0.2-1.3l-9-1.9L152.7,93.8z"/>
	<path d="M142,43l-1.5,2v0.1l-1.4,2l1.1,0.7l2.7-4.1L142,43z"/>
	<path d="M139.8,49.5l1.2-3.1l-1.2-0.5l-1.3,3.1L139.8,49.5z"/>
	<path d="M203.8,45.7v-0.1l-0.1-0.1v-0.1l-1.9-2.7l-1.1,0.8l1.9,2.7h-0.1l1.5,2.3h-0.1l0.9,2.8v0.2l0.1,0.1l0.2,1.6v18.5h1.4V52.8
		l-0.4-2h-0.1l-0.7-2.8v-0.1h-0.1L203.8,45.7z"/>
	<path d="M206.6,77.4h-1.4v57.9h1.4V77.4z"/>
	<path d="M154.3,155.1l-0.7-0.1l-0.4,1.2l4.9,1.7h0.1l4.6,1v0.1h0.2l8.6,0.7l4.8-0.1l4.2-0.6h0.2l4.3-1h0.2l4.3-1.5h0.1l3.6-1.6
		l0.1-0.1h0.1l0.1-0.1l3.1-1.9l3.4-2.7V150h0.1v-0.1l2.6-2.8V147l0.1-0.1l1.9-3.2l0.1-0.1l0.7-2.2l0.8-3.7l-1.3-0.2l-0.2,0.6
		l-0.6,2.8v0.1l-0.8,2.1h0.1l-1.8,3v0.1H202v0.1l-0.8,1.1H201v0.1l-1.5,1.6l-3.3,2.7l0.1,0.1l-3.1,1.7h-0.1v0.1H193v0.1l-3.3,1.4
		h-0.1v0.1h-0.1l-4,1.4h-0.4l-8.9,1.6l-8.8-0.1l-4.1-0.5h-0.2l-4.3-1l-0.1-0.1L154.3,155.1z"/>
	<path d="M138.4,141l0.4,1.4v0.1l1.7,3.5v0.1l1.5,1.9v0.1l4.8,4.6h0.1v0.1h0.2l2.2,1.5l0.1,0.1h0.1l4.1,2l0.6,0.4l0.6-1.3l-0.6-0.2
		L150,153v0.1l-5.3-4.1v-0.1h-0.1v-0.1l-2.9-3.4v-0.1l-1.7-3.4l-1.1-4.4l-1.4,0.2l0.8,3.2v0.1H138.4z"/>
	<path d="M205.2,134.1v0.6l0.2,1.6v0.1l-0.2,1.6v0.7l1.4,0.1v-0.7l0.2-1.7v-0.1l-0.2-1.7V134L205.2,134.1z"/>
	<path d="M152.9,87.3l-6.4-2.9l-4.8-3.4l-1.7-1.7l-1.5-2v0.1l-1.3-2.1l-1.1-2.7l-1.3,0.6l1.1,2.7v0.1h0.1v0.1h0.1l1,1.9l0.1,0.1
		l1.6,2v0.1h0.1l1.7,1.9h0.1l0.1,0.1h0.1l2,1.6h0.1V84h0.2l2.2,1.6h0.1l2.7,1.4h0.1V87h0.2l3.3,1.5L152.9,87.3z"/>
	<path d="M162.6,89.8l-0.1,1.3l0.7,0.1l8.3,0.6h0.1l8.2-0.5h0.1l4-0.7h0.2l3.7-0.9h0.2l3.5-1.2h0.2l0.1-0.1L195,87h0.1l3.1-1.6h0.1
		l2.7-1.8h0.1l2.5-1.9v-0.1h0.1v-0.1l2-2v-0.1h0.1v-0.1l1.6-2.3v-0.1l1.1-2.1l0.1-0.1l0.6-2.3v-0.5l0.4-2.7l-1.4-0.1l-0.1,0.6
		l-0.2,2.3l-0.6,2.3h0.1l-1.1,2h-0.2v0.1l-1.6,2.2l-1.9,2l-2.2,1.7h-0.1v0.1h-0.1l-2.6,1.7h-0.1l-3.1,1.6l-3.5,1.3v0.1l-7,2
		l-0.1-0.1h-0.2l-7.7,1.1L162.6,89.8z"/>
	<path d="M135.7,69.2l-1.4,0.1l0.1,0.6l0.1,2.1h0.1l0.5,2.3l1.3-0.2l-0.5-2.5l-0.1-1.9L135.7,69.2z"/>
	<path d="M208.8,65.2v-0.5l0.1-1.3v-0.6l-1.4-0.1l-0.2,3.4h-0.1v0.3l-0.4,1.5h-0.1l-0.8,1.6l-0.7,1.1v0.1h-0.1v0.1l-0.8,1.2h-0.2
		v0.1H204l-1,1.3h-0.1v0.1h-0.1l-3,2.5l-0.1,0.1l-1.6,1.1h-0.2v0.1l-3.8,2h-0.1v0.1h-0.1l-4.6,1.7l-5.7,1.4l0.2,1.4l0.7-0.1l5.1-1.3
		h0.1l4.6-1.9h0.1l4.1-2.2h0.1l1.9-1.2h0.1l1.6-1.3l2.8-2.8h0.1v-0.1l0.1-0.1l2-2.9V70l0.1-0.1v-0.1l0.6-1.2v-0.3h0.1v-0.1l0.4-1.3
		v-0.1h0.2v-0.2L208.8,65.2z"/>
	<path d="M155.2,82.8l0.6,0.1l0.4-1.2l-3.4-1.1v-0.1l-2.6-1H150v-0.1h-0.1l-4.7-2.5v-0.1h-0.1l-3.7-2.9l-0.1-0.1l-1.5-1.7v0.1
		l-1.7-2.3l-1.1,0.7l0.4,0.6l1.4,1.7V73l1.6,1.7h0.1v0.1h0.1l1.7,1.5v0.1l4.4,3h0.1l0.1,0.1h0.1l2.5,1.2h0.1l2.5,1.1h0.1L155.2,82.8
		z"/>
	<path d="M162.6,83.1l-0.2,1.4h0.7l9.2,0.7h0.1l6.1-0.4h0.1l6.5-1.1l-0.2-1.4l-12.2,1.5h-0.4l-9-0.8H162.6z"/>
	<path d="M137.9,69.4l-1-2.3l-0.1-0.8l-1.4,0.5l1.1,3.1L137.9,69.4z"/>
	<path d="M136.5,65.4l-0.1-0.7l-1.4,0.4l0.2,0.6l0.5,2.3l1.3-0.4l-0.1-0.6L136.5,65.4z"/>
	<path d="M207.6,59.3l0.7,4l1.3-0.2l-0.7-4L207.6,59.3z"/>
	<path d="M136.4,59.5l-1.3-0.4l-0.1,0.8l-0.5,1.8v0.4l-0.2,2.2l1.4,0.1l0.2-2.2V62L136.4,59.5z"/>
	<path d="M152.5,84.7h-0.1l-0.1,0.1l-0.1,0.2l-0.1,0.1l-0.5,1.1v0.1l-0.4,2.1l1.3,0.2l0.4-2l0.5-1l0.6-0.3l-0.5-1.3l-0.9,0.4h-0.1
		V84.7z"/>
	<path d="M152.5,87.7l-1.3,0.3l0.1,0.7l0.1,0.4v0.2h0.1v0.1h0.1v0.1h0.1l0.1,0.1l0.6,0.4l0.8-1.1l-0.5-0.2L152.5,87.7z"/>
	<path d="M152,89.4l1.4-0.2l-0.1-0.7v-0.5l-0.1-0.6l-1.4,0.2l0.1,0.6v0.5L152,89.4z"/>
	<path d="M152.3,88.8h0.8l0.1-1.3l-1.9-0.4l-0.2,1.4L152.3,88.8z"/>
	<path d="M152.1,89.4l0.8-1l0.4-0.6l-1.1-0.7l-1.1,1.6L152.1,89.4z"/>
	<path d="M151.4,87.7l-0.2,1.4l1.3,0.2h0.8l0.1-1.3h-0.8L151.4,87.7z"/>
	<path d="M159.2,20.5h1.3v-1.6h-1.3V20.5z"/>
	<path d="M161,18.5l-0.2-0.4l-0.2-0.2h-0.1v-0.1h-0.5l-0.1,0.1h-0.1V18h-0.1v0.1h-0.1v0.1l-0.1,0.2v0.1l-0.1,0.9v0.6l1.3,0.1v-0.6
		l0.8-0.5L161,18.5z"/>
	<path d="M182.1,51.7l0.8,2.7l0.2,0.6l1.2-0.4l-0.1-0.6l-0.8-2.6v-1.6H182v1.9H182.1z"/>
	<path d="M147,35.8l0.1-0.1l0.8-0.6l0.2-0.2l0.8-1.4l-1.1-0.7L147,34l-0.7,0.5l0.1,0.1l-7.4,1l-0.6,0.1l0.1,1.4l0.6-0.1l5.1-0.5h0.2
		l1.2-0.2h0.1L147,35.8z"/>
	<path d="M153.3,28.4l-1-1l-0.5,0.4l-2.6,2.6v0.1h-0.1v0.2l-1,1.1l-0.8,2.1l1.3,0.6l0.7-1.9l0.1-0.1l1-1.4l2.4-2.3L153.3,28.4z"/>
	<path d="M160.9,18l-1.3,0.4l0.5,1.9l1.4-0.4l-0.1-0.6l-0.3-0.5L160.9,18z"/>
	<path d="M173.2,18.4l-0.1-0.6l-1.4,0.4l0.8,2.6l0.1,0.1V21h0.1l0.2,0.6l0.4,0.4l0.5,0.4v0.1l0.9,0.5h0.1l1.9,0.6l0.4-1.3l-1.6-0.5
		v-0.1l-0.8-0.5l-0.8-0.8v-0.1L173.2,18.4z"/>
	<path d="M191.9,27.8l-0.8,1.1l1.6,1.1l0.8-1.1l-0.6-0.4l-0.4-0.4L191.9,27.8z"/>
	<path d="M202.8,30.6l0.6-0.1l-0.1-1.4l-0.6,0.1l-4.6,0.5h-1.9l-1.4-0.2v0.1l-0.7-0.2v-0.1H194v-0.1h-0.1l-1.5-1l-0.7,1.1l1.5,1
		l0.1,0.1l1.3,0.5h0.2l1.4,0.2h1.7L202.8,30.6z"/>
	<path d="M184.5,55.5l-0.4-2.1l-1.3,0.2l0.5,2.3l0.1,2.6l1.3-0.1l-0.1-2.7h-0.1V55.5z"/>
	<path d="M185.1,89.1h-1.5v7.3h1.5V89.1z"/>
	<path d="M185,83.9l-0.3-26.7h-1.3l0.2,26.7H185z"/>
	<path d="M183.6,95.1l0.1,0.7l0.1,2.5l1.4-0.1v-0.7l-0.2-1.7V95L183.6,95.1z"/>
	<path d="M160.9,18.7l-1.3-0.2v0.6l-0.2,1.2l1.3,0.2l0.1-0.7v-0.5L160.9,18.7z"/>
	<path d="M159.9,20l0.2,0.5l1.3-0.7l-0.4-0.6l-0.4-0.4h-0.1v-0.1h-1.1V20H159.9z"/>
	<path d="M205.3,36.7l-5.7,0.6H199l0.1,1.4h0.6l5.7-0.6L205.3,36.7z"/>
	<path d="M200.7,38.4l-0.4-1.2l-2.1,0.5h-0.2v0.1l-1,0.4h-0.2l-0.8,0.8h-0.1v0.2h-0.1v0.1l-0.8,1.2l1.1,0.6l0.7-1.1l0.7-0.6l1.3-0.5
		l1.3-0.2L200.7,38.4z"/>
	<path d="M190.3,45.7h-0.1v0.1H190l-1.4,0.8h-0.2v0.1l-3.7,1.7l-0.7,0.2l0.6,1.3l4.4-2v-0.1h0.2l0.1-0.1l1.5-0.9h0.1l0.1-0.1l1.3-1
		h0.1l2.3-2.5h0.1v-0.1l0.1-0.1l0.8-1.3l0.6-1.4l0.4-0.6l-1.3-0.6l-0.4,0.6l-1.1,2.3h-0.1v0.1h-0.1l-2.3,2.5l0.1,0.2L190.3,45.7z"/>
	<path d="M183.8,50.5l0.5-0.4l0.9-0.4l0.6-0.4l-0.6-1.3l-1.5,0.7h-0.1V49h-0.1v0.1h-0.1v0.2l-0.5,0.2v0.1h-0.1v0.1h-0.2V50l-0.4,0.4
		v0.1h-0.1v0.1l-0.1,0.8l-0.2,0.6l1.4,0.4l0.1-0.7l0.1-0.4l0.1-0.1l0.4-0.5V50.5z"/>
	<path d="M172.3,55.9l-0.9-2.9l-0.2-0.6l-1.2,0.4l0.1,0.6l1.1,3.6l1.3-0.4L172.3,55.9z"/>
	<path d="M168.3,50.6l-1.4-0.2l-0.6-0.2l-0.4,1.4l2,0.5l1.1,0.5l0.7,0.5l0.8,1.3l1.1-0.7l-0.8-1.4V52l-0.1-0.1l-0.9-0.6l-0.1-0.1
		l-1.2-0.5H168.3z"/>
	<path d="M151.7,44.3l-0.5-0.5l-0.9,1.1l0.6,0.4l1.3,1.1l0.1,0.1h0.1l1.4,1l0.1,0.1h0.1l1.7,1h0.1l3.7,1.5h0.1l2.1,0.6h0.1l5.2,1
		l0.2-1.3l-0.6-0.2l-4.4-0.8h-0.1l-1.9-0.4v-0.1h-0.2l-3.7-1.5h-0.1v-0.1l-3.1-1.7v-0.1h-0.1v-0.1h-0.1L151.7,44.3z"/>
	<path d="M148.8,44.3h0.1l1.2,0.5l1.4,1l0.8-1.1l-0.6-0.5l-1-0.6h-0.1l-0.1-0.1h-0.2l-1-0.4l-0.1-0.1l-1.4-0.2h-2.5v1.3h2.2
		L148.8,44.3z"/>
	<path d="M146.9,44.1l-0.1-1.3H146l-4.9,0.6l-0.6,0.1l0.1,1.2h0.7l5-0.6H146.9z"/>
	<path d="M172.1,55.4l-1.4,0.1l0.5,3.1v0.7l1.4-0.2l-0.1-0.6l-0.2-2.5L172.1,55.4z"/>
	<path d="M172.9,90.4h-1.4v6.8h1.4V90.4z"/>
	<path d="M171.1,57.9l0.2,26.5l0.1,0.7l1.4-0.1l-0.1-0.6l-0.2-26.5H171.1z"/>
	<path d="M172.9,95.8l-1.4,0.1v0.6l0.4,2.9v0.7l1.4-0.2v-0.6l-0.4-2.9V95.8z"/>
	<path d="M209.8,75.6l-0.5-1l-1.3,0.6l0.5,1.1v0.1h0.1v0.1h0.1v0.1l0.6,0.5l0.6,0.4l0.8-1.1L209.8,75.6z"/>
	<path d="M209.7,76.2l-0.2-6.5H208l0.2,6.5H209.7z"/>
	<path d="M208,38.5l-0.1-0.6h-1.3l0.1,0.8l1.1,25.4l1.4-0.1L208,38.5z"/>
	<path d="M207.9,38.4l-0.2-1.3l-1.3,0.2l0.5,2.1l1.3-0.2L207.9,38.4z"/>
	<path d="M202,30.6h1.6l0.5,0.2l0.9,1l1-0.8l-0.4-0.5l-0.6-0.6v-0.2h-0.1l-0.1-0.1l-0.8-0.4h-2V30.6z"/>
	<path d="M204.2,30.5l0.1,0.6l2.3,7.6l1.3-0.4l-0.2-0.6l-2.1-6.9l-0.2-0.6L204.2,30.5z"/>
	<path d="M139.5,35.5l-0.6,0.1l-1,0.4h-0.1v0.1h-0.1v0.2h-0.2l-0.6,0.4h-0.1v0.1h-0.1v0.1l-0.5,0.6v0.1h-0.1v0.1l-0.2,1.5l1.3,0.2
		l0.2-1.3l0.5-0.6l0.6-0.4l1.5-0.5L139.5,35.5z"/>
	<path d="M137.3,38.1l-1.3-0.1l-1.1,26.5h1.4L137.3,38.1z"/>
	<path d="M135.7,76.7l0.2-6.8h-1.4l-0.2,6.7L135.7,76.7z"/>
	<path d="M135.8,75.5l-1.4-0.4l-0.1,1.2l-1,1l1,0.8l1.1-1.1l0.2-0.2L135.8,75.5z"/>
	<path d="M208.9,75.8l-0.1-0.4l-0.1-0.8l-1.4,0.4l0.1,0.7l0.2,0.5v0.2l0.5,0.6h0.1v0.1h0.1l0.4,0.4h0.1l0.1,0.1h0.2l1,0.4l0.5-1.3
		l-1.1-0.4l-0.6-0.5L208.9,75.8z"/>
	<path d="M205.1,61.2l0.4,8.2h1.4l-0.4-8.2H205.1z"/>
	<path d="M204,36.8l0.6,14.4l1.3-0.1l-0.6-14.4L204,36.8z"/>
	<path d="M205.2,68.3l0.6,1.7l0.1,0.6l1.4-0.4l-0.6-1.7l-0.1-0.6L205.2,68.3z"/>
	<path d="M208.9,76.1l-0.5-2.5l-1.3,0.4l0.5,2.5L208.9,76.1z"/>
	<path d="M207,37.6l-0.5-0.4v-0.1h-0.3l-0.1-0.1l-0.4-0.1h-0.1v-0.1h-0.8l-0.6-0.1L204,38l0.6,0.1h0.6l0.5,0.2l0.2,0.5l0.1,0.7
		l1.4-0.4l-0.4-1.3v-0.2L207,37.6z"/>
	<path d="M141.7,43.2l-1.3,0.2l-0.1,0.1h-0.1v0.1H140l-0.4,0.2h-0.1v0.1h-0.1v0.2l-0.4,0.4V45h-0.1v0.1l-0.1,0.2l-0.1,0.7l1.3,0.4
		l0.2-0.6l0.1-0.5l0.4-0.4l0.2-0.2l1.3-0.4L141.7,43.2z"/>
	<path d="M137.3,83.5h1.4l0.1-5.4l0.1-0.6h-1.4l-0.1,0.6L137.3,83.5z"/>
	<path d="M140.1,45l-1.4-0.2L137.7,72h1.3L140.1,45z"/>
	<path d="M138.5,83.5l0.2-1.2l-1.4-0.1l-0.1,1.1l-0.4,0.5l-0.2,0.2l-1.4,0.7l0.6,1.1l0.6-0.3l0.7-0.5h0.1l0.8-0.7l0.4-0.6V83.5z"/>
	<path d="M185.1,96.8l-1.4,0.1l0.2,1.3V99l1.4-0.1l-0.1-0.8v-0.7L185.1,96.8z"/>
	<path d="M184,99.3h-0.1l-0.1,0.2l-0.8,1l-1.6,0.8l-2.5,0.5l0.2,1.4l2.7-0.6h0.1l1.6-0.7h0.1l0.2-0.2l0.8-1h0.2v-0.1l0.1-0.1v-0.1
		l0.2-0.4V99l0.1-0.6l-1.4-0.2V99.3z"/>
	<path d="M180.2,103v-1.4h-2.7l-2-0.4v0.1l-1.2-0.6l-1.6-1.6l-1,1l1.6,1.5v0.1h0.1l0.1,0.1l1.6,0.7h0.1l2,0.4H180.2z"/>
	<path d="M173,98.7l-1.4,0.4l0.8,2l1.2-0.5l-0.5-1.2L173,98.7z"/>
	<path d="M208.8,70.5l2.1,0.3l1.6,0.5l1.1,0.8h0.1l0.1,0.1l0.2,0.6l0.4,0.6l1.3-0.5l-0.2-0.8l-0.2-0.5l-0.1-0.1v-0.1H215v-0.1h-0.2
		l-0.4-0.4v-0.1l-1.3-0.9l-0.1-0.1l-1.9-0.5h-0.2l-2.1-0.2h-0.6l-0.1,1.3H208.8z"/>
	<path d="M214.1,71.9v2.2h1.4v-2.2H214.1z"/>
	<path d="M210,76.9l0.4,1.3l2.2-0.7l0.1-0.1h0.2l1.2-0.8h0.1v-0.1l1-1v-0.1l0.2-1.1l0.2-0.6l-1.3-0.4l-0.5,1.6l-0.6,0.6l-1,0.6h-0.2
		L210,76.9z"/>
	<path d="M129.5,78.5v0.1h-0.1v0.1l-0.4,0.4v0.2h-0.2v0.1l-0.2,0.5v0.2l-0.1,0.6v0.9h0.1v0.8h0.1v0.1l0.1,0.4l0.2,0.1v0.1h0.1
		l0.4,0.5h0.1v0.1h0.2l1.1,1h0.1l1.9,0.7h0.2l2,0.3h0.6l0.2-1.4h-0.8l-1.7-0.2h-0.1l-1.9-0.6l-1-0.6v-0.1h-0.1v-0.1l-0.4-0.4
		l-0.1-0.2V82l-0.1-0.8v-0.4l0.1-0.6l0.1-0.4l0.2-0.2l1.3-0.8l1.9-0.6l0.6-0.1l-0.4-1.4l-2.6,0.8l-0.1,0.1h-0.1v0.1l-1.2,0.6v0.1
		H129.5z"/>
	<path d="M163.7,34.3l-0.1-0.6l-1.4,0.1l0.1,0.6v1l-0.2,0.5l-0.8,0.9l-1.1,0.6H160l-1.7,0.5l-1.2,0.1h-0.3l-1.9-0.2v0.1l-1.1-0.2
		v-0.1h-0.1v-0.1h-0.1l-1.5-0.7v-0.1l-0.5-0.5l-0.6-1.3l-1.3,0.6l0.6,1.4v0.1h0.1v0.1h0.2l0.4,0.6h0.1l0.1,0.1l0.6,0.5l0.1,0.1
		l1,0.4h0.1l1.6,0.5h0.1l2,0.2l2.1-0.1l1.6-0.5h0.1v-0.1h0.1l1.3-0.8h0.2l1.1-1.1l0.5-1V34.3z"/>
	<path d="M153.3,30.5l-1-1l-1.5,1.4h-0.1V31h-0.1l-0.6,1.3v0.2h-0.1V34l-0.1,0.6l1.4,0.1l0.1-0.8V33l0.6-1.3L153.3,30.5z"/>
	<path d="M162.7,33.7l1.3-0.6l-0.4-0.6l-0.6-1.4l-0.8-0.8H162v-0.1l-1-0.6l-0.7,1.1l0.6,0.4l0.2,0.2h0.2l0.6,0.8l0.5,1.1L162.7,33.7
		z"/>
	<path d="M161.9,30.2h-1.4v1.5h1.4V30.2z"/>
	<path d="M162,32.7V32l-0.1-0.8v-0.7l-1.4,0.1v0.7l0.1,0.9v0.6L162,32.7z"/>
	<path d="M151.6,26.4l1.4,0.2v-0.7l0.2-1.3l-1.4-0.1l-0.2,1.3V26.4z"/>
	<path d="M161.9,27.4h-0.1v-0.1l-0.1-0.1l-0.9-0.5l-0.5-0.4l-0.8,1.1l1.1,0.8v0.4h1.4V27.4z"/>
	<path d="M158.6,20.1l0.9,0.1l0.6,0.2l0.2-1.3l-1.5-0.4h-1.2v0.1h-0.5l-0.1,0.1h-0.1v0.2l-1,0.5l0.6,1.2l1-0.6h0.1l0.6-0.2l0.2,0.1
		H158.6z"/>
	<path d="M163,21.7v-0.1h-0.1v-0.1h-0.1v-0.1l-0.6-0.8v-0.1l-1-0.7v-0.1H161l-0.1-0.1L160,19l-0.6-0.2l-0.6,1.1l0.5,0.4l1.1,0.6
		l0.7,0.6l0.5,0.6l0.1,0.2l0.5,0.7v0.1l0.4,1.1V25l-0.2,0.8l-0.7,1l1,0.8l1-1.2v-0.2h0.1v-0.2l0.1-0.5h0.1v-1.5l-0.4-1.1v-0.1
		L163,21.7z"/>
	<path d="M153.1,24.3h0.1l0.5-0.5l-1-1l-0.5,0.5v0.2l-0.5,0.5l0.8,0.8L153.1,24.3z"/>
	<path d="M152.9,22.4v0.1h-0.1v0.1l-0.4,0.4l-0.4,0.5l1,0.8l0.5-0.5l0.2-0.5h0.1v-0.2l0.7-0.7l-1.1-0.8l-0.5,0.7H152.9z"/>
	<path d="M151.8,24.1l1.3,0.6l0.2-0.6l0.5-0.9l-1.3-0.6l-0.2,0.6l-0.2,0.3L151.8,24.1z"/>
	<path d="M154.1,23.1l0.4-0.4l0.4-0.6l-1-0.7l-1.3,1.3l1.1,0.9L154.1,23.1z"/>
	<path d="M175.4,29.7l-0.4-0.8l-0.4-0.6l-1.3,0.6l0.4,0.6l0.4,0.9v0.1h0.1v0.1h0.1l1.2,1.2l0.9-1L175.4,29.7z"/>
	<path d="M176.7,24.4l0.5-0.4l-1-1.1l-1.8,1.9l-0.5,1.1l-0.1,2.3h1.4l0.1-2.1l0.2-0.5L176.7,24.4z"/>
	<path d="M185.3,23.3l-0.8,1.1l1.4,0.8l0.7-1.1l-0.8-0.5L185.3,23.3z"/>
	<path d="M185.7,25.2l0.7-1.2l-0.6-0.2l-1-0.6l-0.8,1.1L185.7,25.2z"/>
	<path d="M184.5,24.8v0.8l0.1,0.7l1.4-0.1l-0.2-1.5v-0.6l-1.4,0.1L184.5,24.8z"/>
	<path d="M176.9,19.5v-0.6l0.1-0.6l-1.4-0.2l-0.1,0.7v0.5l-0.1,0.7l1.4,0.1L176.9,19.5z"/>
	<path d="M184.7,20.1l-0.6-0.4l-0.7,1.1l1.7,1.5l1-1L184.7,20.1z"/>
	<path d="M181.1,12.3v0.1h-0.2l-0.5,0.5l-0.6,0.4l0.7,1.1l1.1-0.7h1.1l0.4,0.1h0.1l1,0.6h0.1l0.6,0.5l1.2,1.9l0.2,1v0.6l-0.1,0.8
		l-0.8,1.2l1.1,0.8l0.9-1.4h0.1v-0.1l0.2-0.9v-1.5l-0.4-1v-0.1l-0.6-1.1v-0.1l-0.1-0.1l-0.6-0.8V14h-0.1v-0.1h-0.2v-0.1l-0.7-0.5
		v-0.1l-1.1-0.6h-0.1l-0.8-0.2H181.1z"/>
	<path d="M177.2,17.8v-0.1l0.4-0.6l-1.2-0.6L176,17l-0.1,0.1l-0.2,0.6l1.1,0.6L177.2,17.8z"/>
	<path d="M177.3,17.5l0.4-0.4V17l0.8-1l-1.1-0.8l-0.6,1h-0.1v0.1l-0.2,0.4l-0.5,0.5l1.1,0.8L177.3,17.5z"/>
	<path d="M176.2,16.6l-0.5,0.9l1.1,0.7l0.5-0.8l0.5-0.5l-1.2-0.7L176.2,16.6z"/>
	<path d="M177.3,15.4l-0.4,0.2l-0.5,0.5l1,1l1.4-1.4l-1-0.8L177.3,15.4z"/>
	<path d="M185.2,43v-0.6h-1.4l0.1,0.8v1l-0.4,0.7l-0.7,0.6l-1.4,0.7l-1.6,0.4l-1.5,0.1h-0.3l-1.5-0.1h-0.1l-2.2-0.7l-0.5,1.4
		l2.3,0.7l2.3,0.1l1.8-0.1l1.7-0.5h0.1l1.4-0.8h0.1v-0.1h0.1l0.8-0.8h0.1v-0.1l0.2-0.1l0.5-1.1v-0.5L185.2,43z"/>
	<path d="M171.8,45.4l0.2,0.1v0.1h0.1l0.4,0.5h0.1l0.1,0.1h0.1l0.6,0.5l0.1,0.1h0.1l0.8,0.4l0.5,0.4l0.7-1.3l-0.6-0.4l-0.6-0.2h-0.1
		v-0.1h-0.1l-0.6-0.4v-0.1h-0.1l-0.1-0.1l-0.4-0.5l-0.5-1.1l-1.3,0.5l0.6,1.4V45.4z"/>
	<path d="M172.3,39.6v0.1h-0.1V40l-0.4,0.9h-0.1V41l-0.1,0.1l-0.1,2.2l1.4,0.1v-0.7l0.1-1.1l0.5-1l1.5-1.5l-0.9-1l-0.5,0.4l-1.1,1.1
		H172.3z"/>
	<path d="M183.8,39v-0.1l-0.1-0.1l-0.6-0.2l-0.6-0.4l-0.6,1.3l0.6,0.2l0.4,0.2L183,40l0.4,0.6h0.1l0.5,1.1l0.4,0.6l1.1-0.6l-0.9-1.9
		l-0.1-0.1v-0.1h-0.1L183.8,39z"/>
	<path d="M182.2,41.5l1.4-0.1v-0.7l-0.2-1.5l-1.4,0.1l0.2,1.5V41.5z"/>
	<path d="M174.5,35.3l0.2-1.4v-0.6l-1.3-0.1l-0.4,2L174.5,35.3z"/>
	<path d="M183.2,35.8l-1.5-1l-0.7,1.1l0.6,0.4l0.5,0.5v0.4h1.4v-1l-0.1-0.1v-0.1L183.2,35.8z"/>
	<path d="M180.2,28.8l1.4,0.4l0.5-1.2l-1.5-0.5h-1.3l-0.6,0.1l-0.1,0.1L178,28l-0.6,0.2l0.6,1.2l0.6-0.4l0.6-0.2l0.5-0.1H180.2z"/>
	<path d="M183.7,29.2v-0.1h-0.1V29h-0.1l-0.9-0.6v-0.1h-0.1l-1.5-0.9l-0.8,1.1l1.4,0.8h0.1v0.1l1,0.6l0.5,0.7h0.1l0.5,1.1h0.1
		l0.2,0.7h-0.1v1.1h0.1l-0.2,0.8l-0.8,0.8l1.1,0.9l0.4-0.5l0.8-0.7v-0.2l0.1-0.9l0.1-0.1v-1.1l-0.1-0.1v-0.2l-0.2-0.9l-0.1-0.1v-0.1
		l-0.5-1h-0.1v-0.1h-0.1V30L183.7,29.2z"/>
	<path d="M174.1,31.5l-0.6,1.5l1.1,0.5l0.4-0.6l0.1-0.1l0.2-0.6L174.1,31.5z"/>
	<path d="M174.2,31.3l0.1,0.1l-0.4,0.2l-0.4,0.6l1,0.7l0.5-0.5l0.2-0.4l0.1-0.1l0.2-0.5l0.4-0.5l-1.1-0.7L174.2,31.3z"/>
	<path d="M175.1,32.3l0.2-0.6l-1.3-0.4l-0.4,0.9l-0.1,0.6l1.3,0.5l0.2-0.7V32.3z"/>
	<path d="M175.2,32.2l0.4-0.5l0.4-0.2l0.5-0.5l-1-1l-1.2,1.2L175.2,32.2z"/>
	<path d="M202,49.8l-1.3-0.5l-0.5,1.3h0.1l-2.3,3.6l-0.8,0.8h-0.1v0.1h-0.1l-2.8,2.5l-1.7,1.1h-0.2l-3.6,1.9v0.1l-5.4,1.7l0.5,1.2
		l5.4-1.9h0.3l3.4-1.8h0.1l2-1.1v-0.1h0.1l0.1-0.1l2.7-2.3l1.2-1.3v-0.1h0.1v-0.1l0.9-1.1v-0.1l0.1-0.1v-0.2l1.2-2.2h0.1V51
		L202,49.8z"/>
	<path d="M172.6,63.8l-0.8-0.1h-2.9l-4.6-0.5h-0.2l-3.2-0.6v-0.1h-0.1l-5.2-1.6l-0.6-0.1l-0.4,1.2l0.6,0.3l8.6,2.3h0.4l4.7,0.5h2.9
		l0.6,0.1L172.6,63.8z"/>
	<path d="M155.1,62.2l0.6,0.2l0.6-1.3l-0.6-0.2l-5.2-2.8l-2.3-1.6l-2.1-2v-0.1l-0.8-1.1l-0.1-0.1l-2.2-4.6l-1.3,0.5l1.4,3.1v0.1h0.1
		v0.1l0.9,1.5v0.1h0.1v0.1h0.1l0.7,1.1v0.1h0.1l2.2,2.2l2.3,1.6l0.1,0.1l3.5,2h0.1L155.1,62.2z"/>
	<path d="M143,48l-0.1-2.6h-1.4l0.1,2.7l0.1,0.1l0.4,2.1l1.3-0.4L143,48z"/>
	<path d="M200.9,48.4l-0.5,1.6l-0.1,0.6l1.3,0.4l0.9-4.8l-1.4-0.1l-0.4,2.3H200.9z"/>
	<path d="M153.9,52.5l8.5,2.5h0.1l9.3,0.9v-1.4l-4.9-0.2l-4-0.6h-0.1l-4-1h-0.1l-3.7-1.2l-0.6-0.2L153.9,52.5z"/>
	<path d="M182.5,53.3l0.4,1.3l0.7-0.1l7.5-2.7h0.3l0.1-0.1l2.9-1.7h0.1l0.1-0.1l2.5-1.9l2.5-2.5l1.5-2.3V43l0.8-2.5h0.2v-0.1
		l0.2-1.2v-1.4l0.1-0.6l-1.4-0.1l-0.1,0.7v1.1l-0.2,1.1v0.1l-0.7,2.2h-0.1l-1.3,2.1v0.1h-0.1v0.1h-0.1l-2.1,2.1l-2.5,1.9l-0.1,0.1
		l-3.2,1.7v0.1L182.5,53.3z"/>
	<path d="M196.3,29l0.1,0.1h0.1l2,2.1l1-1l-2.3-2.3l-2-1.5l-0.5-0.5l-0.8,1.1l0.6,0.4L196.3,29z"/>
	<path d="M146.4,45.9v-0.1h-0.1v-0.1l-1.9-2.3l-0.5-0.5l-1,0.8l2.2,2.8l2.6,2.3h0.1V49h0.2l2.7,1.9L151,51l3.6,1.6l0.6,0.4l0.6-1.2
		l-4.1-1.9v-0.1h-0.1l-2.9-2v0.1L146.4,45.9z"/>
	<path d="M151.6,24.6l-4.1,2.7h-0.1l-1.4,1.3v0.1h-0.1v0.1l-1.2,1.3v0.1h-0.1v0.1l-0.9,1.1h-0.1l-0.7,1.4l-0.1,0.1l-1.1,2.9
		l-0.1,0.8l1.4,0.4l0.5-2v-0.1l0.5-1.3h0.1v-0.1l1.7-2.5l1.3-1.4l3.1-2.5l1.7-1l0.5-0.4L151.6,24.6z"/>
	<path d="M186.9,22.2l-0.6-0.2l-1.7-0.5l-0.4,1.2l2.2,0.9L186.9,22.2z"/>
	<path d="M172.6,19.9l-0.1,1.4h0.7l2.9,0.2h0.6l0.1-1.4h-0.6l-3-0.2H172.6z"/>
	<path d="M196.1,21.7l-0.5-0.5l-0.8-1.1l-0.1-0.1h-0.1v-0.1l-1-0.7V19h-0.1l-1.1-0.6h-0.1l-1.1-0.4h-0.4l-0.8,0.1h-0.2v0.1l-0.8,0.1
		h-0.1v0.1h-0.1l-0.8,0.9l-0.6,1.6l1.2,0.5l0.6-1.3l0.4-0.5l1.3-0.4h0.1l2,0.8l0.8,0.6l1,1.1l0.4,0.6L196.1,21.7z"/>
	<path d="M196.6,23.5v-0.3l-0.1-0.1l-0.2-0.7v-0.1l-0.8-1.5l-1.2,0.5l0.7,1.6l0.4,1.1l0.1,0.7v0.5h-0.1v0.1l-0.1,0.6l-0.2,0.4h-0.1
		l-0.4,0.2h-0.1l-0.7,0.2l-0.8,0.1l0.2,1.4l0.8-0.1l0.7-0.2h0.2l0.6-0.4h0.2l0.2-0.2l0.5-0.6l0.1-0.1l0.2-0.7v-0.2l0.1-0.9v-0.1
		l-0.1-1v-0.1H196.6z"/>
	<path d="M196.6,18.5l-0.7-0.6v-0.1h-0.1l-0.8-0.5l-0.1-0.1l-0.8-0.4h-0.1l-0.9-0.2h-1.5v0.1h-0.1l-0.4,0.1h-0.1v0.1h-0.1V17h-0.1
		v0.1l-1,0.6l0.7,1.1l1-0.7l0.1-0.1l0.4-0.1h0.8l0.6,0.1h0.2l0.6,0.2v0.1h0.1l0.6,0.5h0.1l0.6,0.5v0.1h0.1v0.1l0.6,0.7l0.7,1.5h0.1
		l0.1,1.1v0.1l-0.1,1l-0.8,1.3l1.1,0.8l1-1.6h0.1v-0.6l0.1-1v-0.2l-0.2-1.3l-0.1-0.1v-0.2l-0.8-1.3v-0.1l-0.1-0.1l-0.6-0.8
		L196.6,18.5z"/>
	<path d="M167.3,9.7l-0.1,0.1H167V10h-0.1v0.1l-0.6,0.6h-0.1v0.1l-0.1,0.1l-0.2,1.1v1.6l0.1,0.6h1.3l-0.1-0.7v-1.3l0.2-0.7l0.4-0.5
		l0.7-0.4h1.1l1.3,0.6l1.1,0.8l0.8,1l0.6,1.1l0.4,1.3v0.8l-0.2,0.9l-0.4,0.5l-0.6,0.2l-0.9,0.1l-1.1-0.4l-0.6-0.1l-0.4,1.2l1.7,0.6
		h0.4l1-0.1h0.2l0.8-0.5h0.2v-0.1l0.2-0.1l0.5-0.6l0.1-0.1v-0.1l0.2-1h0.1v-1.6l-0.4-1.3v-0.1h-0.1v-0.1l-0.6-1.1v-0.1h-0.1v-0.1
		h-0.1l-0.8-1.1l-0.2-0.2l-1.1-0.9h-0.1V10h-0.2L170,9.5V9.4h-1.7L167.3,9.7z"/>
	<path d="M170,8l-0.6,0.1h-0.1v0.1H169v0.2L168,9l0.7,1.1l1.1-0.6l0.7-0.2h0.5l0.6,0.1l1.9,0.8l0.5,0.8h0.2l0.5,0.8h0.1l0.5,1V13
		h0.1v0.1l0.2,1.2l-0.1,0.9l-0.8,1.6l1.2,0.6l0.2-0.5l0.6-1l0.1-0.1v-0.4l0.1-1V14l-0.4-1.3v-0.3l-0.8-1.3l-0.1-0.1v-0.1l-0.6-0.8
		l-0.1-0.1l-0.6-0.7l-0.1-0.1l-1-0.6h-0.2V8.4H173l-0.7-0.3V8h-0.1l-0.8-0.1H170V8z"/>
	<path d="M191,3.4h-0.1v0.1h-0.1l-0.5,0.6v0.1h-0.1v0.2H190v0.1l-0.4,0.6l-0.2,0.6l1.2,0.6l1-1.9h0.1l0.6-0.4h0.7l1.1,0.2L195,5h0.1
		l0.1,0.1l0.6,0.5l0.1,0.1v0.1l1,1l0.4,0.5l1-1l-0.4-0.5l-2-1.8V3.9h-0.2V3.8h-0.1l-0.9-0.5l-0.1-0.1h-0.1l-1-0.2h-1.6v0.1L191,3.4z
		"/>
	<path d="M198.1,6l-0.4-0.5l-1.2,0.6l0.8,1.6h0.1l0.2,0.8h-0.1v0.1l0.1,1v0.6l-0.1,0.5l-0.7,0.7h-0.1l-0.8,0.1l-0.6,0.2l0.2,1.3
		l1.5-0.2h0.1l0.1-0.1h0.1l0.1-0.2l0.4-0.1l0.8-0.8v-0.1l0.2-0.8v-0.2l0.1-0.8V9.2l-0.1-0.7V8.1l-0.2-0.8l-0.1-0.1V7L198.1,6z"/>
	<path d="M193.7,2.9l0.7-0.2h0.4l1.5,0.4l0.1,0.1l0.7,0.5h0.1v0.1l0.8,0.8h0.1l0.4,0.6v0.1l0.7,1.4l0.4,1h-0.1v0.1L199.4,9l-0.8,1.3
		l1.2,0.6l0.4-0.5l0.6-1.1V8.9l0.1-1V7.4l-0.2-1.3L200.5,6V5.9l-0.8-1.2V4.6l-0.1-0.1L199,3.7V3.5l-0.8-0.8h-0.1V2.6l-0.8-0.5
		L197.2,2l-0.8-0.4h-0.2l-1-0.2h-1v0.1h-0.2v0.1l-0.6,0.1H193v0.1l-1.1,0.8l0.8,1.1L193.7,2.9z"/>
	<path d="M153.6,23.7l-1.3-0.5l-1.2,2.4l1.2,0.6l0.4-0.6l0.5-1.3L153.6,23.7z"/>
	<path d="M136.7,57.5l-1.3-0.6l-1.5,3.2l-0.4,0.6l1.2,0.6l0.4-0.6L136.7,57.5z"/>
	<path d="M188.9,19.1l-2.8,2.3l-0.5,0.5l0.8,1l3.8-3.2l-0.8-1.1L188.9,19.1z"/>
	<path d="M195.6,26.7l-0.9-1.1l-0.5,0.5l-3.4,2.7l0.9,1.1l0.5-0.5L195.6,26.7z"/>
	<path d="M188.2,21h-0.4l-1,0.3h-0.2l-0.5,0.2h-0.1v0.1h-0.1v0.1l-0.4,0.2l-0.1,0.2l-0.4,1.3v0.1h-0.1v0.1h0.1v0.4l0.1,1.1v0.8
		l1.3-0.2V25l-0.2-1.2l0.4-0.9l0.4-0.4l0.3-0.1l0.7-0.1h0.1l1.3,0.4l0.8,0.6h0.1l1,1.4h0.2l0.8,2l1.3-0.6l-1.1-2.1v-0.1l-1.1-1.4
		l-0.1-0.1H191v-0.1h-0.1l-1.1-0.7v-0.1h-0.2L188.2,21z"/>
	<path d="M193.1,24.9l-1.3,0.2l0.2,1.5v0.6l-0.2,0.8l-0.2,0.4l-1,0.2l-0.7-0.1l-1.4-0.5l-0.4,1.2l1.5,0.6h0.1l0.8,0.1h0.4l0.6-0.3
		h0.2l0.1-0.1l0.4-0.2h0.1l0.2-0.2l0.4-0.5v-0.1l0.1-0.1v-0.2l0.1-0.4l0.1-0.2v-1.3L193.1,24.9z"/>
	<path d="M168.7,11.1l-3.6,2.9l-0.6,0.4l0.8,1.1l4.1-3.4L168.7,11.1z"/>
	<path d="M168.7,19l0.8,1l0.6-0.4l3.2-2.7l-0.8-1.1l-0.5,0.5L168.7,19z"/>
	<path d="M166.6,13.3l-0.6,0.1h-0.1l-0.1,0.1h-0.1v0.1h-0.2v0.1l-0.2,0.1h-0.1V14h-0.1l-0.4,0.6l-0.1,0.2l-0.2,1.3l1.2,0.4l0.4-1.2
		l0.1-0.2l0.5-0.2l0.2-0.2l1.4,0.6l0.4,0.4v0.1l1,1.3l1.1-0.9l-1-1.2v-0.1h-0.1l-0.7-0.8l-0.7-0.4h-0.1v-0.1h-0.4l-0.5-0.1v-0.1
		H166.6z"/>
	<path d="M170,15.2l-1.4,0.5l0.7,2V18l-0.1,0.5v0.1h-0.1l-0.2,0.2h-0.2l-0.4-0.1l-0.8-0.1l-0.1,1.4l1.3,0.2h0.2l0.5-0.2h0.2v-0.1
		h0.1l0.5-0.5l0.2-0.4h0.1v-0.2l0.1-0.6v-1L170,15.2z"/>
	<path d="M196.7,10.9l-2.9,2.5l-0.6,0.4l0.9,1.1l4.1-3.4l-0.9-1.1L196.7,10.9z"/>
	<path d="M192.5,4.7l-0.8-1l-3.8,3.1l0.8,1.1l0.5-0.5l2.8-2.2L192.5,4.7z"/>
	<path d="M189.4,5.9h-0.2V6l-0.9,0.4h-0.1v0.1H188l-0.5,0.7l-0.1,0.1v0.1l-0.1,0.1l-0.1,1V9l0.2,1.7l1.3-0.3l-0.2-1.6l0.1-0.9
		l0.2-0.4h0.1l0.6-0.4l0.7-0.1h0.1l0.6,0.2l0.1,0.1l1.1,0.7h0.1l1.3,1.4l1-1L193.1,7L192,6.3h-0.1l-1.1-0.4V5.8h-0.4L189.4,5.9z"/>
	<path d="M192.9,8.4l1,1.6l0.4,0.9V11l0.1,0.8v0.1l-0.1,0.6h-0.1v0.2l-0.4,0.6l-0.6,0.1h-0.6l-1.9-0.5l-0.4,1.3l0.7,0.1l1.1,0.4h1.5
		l0.8-0.4h0.1v-0.1h0.1v-0.1l0.1-0.1l0.4-0.6l0.1-0.1l0.4-1v-0.5l-0.1-1v-0.2l-0.4-1.1l-0.1-0.1L194,7.6L192.9,8.4z"/>
	<path d="M172.6,70.9v-1.4l-3.5-0.1l-9.7-1.3V68h-0.1l-4.4-1.2v-0.1h-0.2l-4.2-1.9V65l-1.9-1.3v0.1l-3.1-2.3l-2.1-2.1l-2.3-3.2
		L140,57l2.3,3.1v0.1h0.1v0.1h0.1l2.1,2.1v0.1h0.1l0.1,0.1h0.1l1.1,1h0.2l1.6,1.3h0.1l0.1,0.1h0.1l1.6,1l0.1,0.1l4.2,1.7h0.1V68h0.2
		l4.3,1.4l5.1,0.8h0.5L172.6,70.9z"/>
	<path d="M205.3,54.2l-1.1-0.9l-2.6,4h-0.1v0.1h-0.1l-2.5,2.9l-0.2,0.2l-2.7,2.3l-0.1,0.1l-3,2h-0.1l-3.6,1.7v0.1l-5.9,1.7l0.4,1.2
		l0.6-0.1l3.4-1h0.2l0.1-0.1l1.9-0.6h0.1l3.4-1.7h0.2l0.1-0.1l2.9-2h0.1l2.9-2.7h0.1v-0.1l0.2-0.1l2.5-2.8h0.1L205.3,54.2z"/>
	<path d="M173,56.3h-0.6l0.1,1.3h0.6l9.9-1l-0.1-1.4L173,56.3z"/>
	<path d="M138.2,37.5l-1.3,0.4l0.1,0.6l1.5,4.6l0.1,0.7l1.4-0.5l-0.2-0.6l-1.4-4.6L138.2,37.5z"/>
	<path d="M182.8,97.9h0.7l-0.1-1.3h-0.8l-8.8,1h-0.6l0.1,1.4l0.6-0.1L182.8,97.9z"/>
	<path d="M211.5,76.7h-2.3V78h2.3V76.7z"/>
	<path d="M134.6,77.9v-0.1h0.1l0.5-0.2l-0.6-1.3l-0.6,0.4h-0.2v0.1h-0.2v0.1h-1v1.4h1.4v-0.1h0.2l0.1-0.1h0.2L134.6,77.9z"/>
	<path d="M134.6,85.8h1.4l0.1-0.1h0.8v-1.5h-0.7l-0.2,0.1h-0.4v0.1h-1V85.8z"/>
</g>
</svg>
