<?xml version="1.0" encoding="utf-8"?>
<!-- Generator: Adobe Illustrator 24.1.2, SVG Export Plug-In . SVG Version: 6.00 Build 0)  -->
<svg version="1.1" id="Ebene_1" xmlns="http://www.w3.org/2000/svg" xmlns:xlink="http://www.w3.org/1999/xlink" x="0px" y="0px"
	 viewBox="0 0 349.1 161" style="enable-background:new 0 0 349.1 161;" xml:space="preserve">
<style type="text/css">
	.st0{fill:#39ACE0;}
	.st1{fill:#3FB44F;}
	.st2{fill:#CCCCCC;}
	.st3{fill:none;stroke:#000000;stroke-width:0.5;stroke-miterlimit:60;}
	.st4{fill:none;stroke:#000000;stroke-width:0.25;stroke-miterlimit:5;}
	.st5{fill:none;stroke:#000000;stroke-width:0.5;stroke-miterlimit:5;}
	.st6{fill:#FF0000;}
	.st7{fill:none;stroke:#FF0000;stroke-width:2;stroke-linecap:round;stroke-linejoin:round;}
	.st8{fill:none;stroke:#FF9900;stroke-linecap:round;stroke-linejoin:round;}
	.st9{font-family:'ArialMT';}
	.st10{font-size:14px;}
	.st11{font-size:11px;}
</style>
<path d="M194.4,119.8L194.4,119.8l-1.3-1.1l0,0l-1.5-1.3v0.2l-0.6-0.9h0.2l-1.9-2.6l0,0l-1.1-1.9v0.2l-0.9-1.9l0,0l-0.4-3.6l0-1.5
	v-0.6v0.2l0.2-0.6v0.2l0.9-1.3l-0.2,0.2l1.1-0.9h-0.2l0.6-0.2l0,0l1.3-0.2l0.4,0l0.9,0l0,0l0.9,0.2h-0.2l1.5,0.6l-0.2,0l1.5,1.1l0,0
	l0.6,0.6l0.9,0.6l0.9-1.1l0,0l-0.9-0.6l0,0l-0.6-0.6c-2.8-2.3-5.5-3-8.3-1.7l-0.4,0.4l0,0l-0.4,0.4h-0.2l-0.2,0.4l0,0
	c-0.4,0.9-0.9,1.5-1.1,2.1v1.7c0.2,2.6,0.6,4.5,1.3,6v0.2l1.1,1.9h0.2l1.3,1.7c0.4,0.9,0.9,1.5,1.3,1.7c0.4,0.4,1.1,0.9,1.7,1.3v0.2
	l1.5,1.1l0.2,0c1.3,0.6,2.1,0.9,2.6,1.1c0.6,0.2,1.7,0.2,3-0.2l0,0l0.6-0.2l0.2,0l1.1-0.9l0.6-1.1l0,0l0.9-2.3l0.2-1.7l-1.5,0l0,1.5
	l-0.4,1.5l0,0l-0.2,0.4l0,0l-0.4,0.6v-0.2l-0.9,0.6h-0.4l0,0L198,120h-0.4l-0.9,0h0.2L194.4,119.8z"/>
<path d="M202.7,114l-0.4-1.9c-0.4-0.6-0.9-1.7-1.3-3.2c-0.6-1.3-1.1-2.1-1.7-2.8l-0.6-1.1h-0.2l-0.9-0.9l-0.9,1.1l0.6,0.6l1.9,2.6
	l-0.2-0.2l1.7,3.6l0,0l0.4,1.9L202.7,114z"/>
<path d="M202.9,115.8l-0.2-1.9l-1.5,0.2l0.2,1.7L202.9,115.8z"/>
<path d="M205.9,104.5l-12.8,7.2l0.4,1.1l12.8-7.2L205.9,104.5z"/>
<path class="st0" d="M308.8,66.3l1.9-1.7l1.3-2.1l0.9-4l1.3-0.6l1.7-2.1l2.8-0.4l8.7-4.7l0.9-2.6l0.2-3.2l-1.1-4.7l-3-4.9l-4-3.8
	l-3.4-1.5l-2.6-0.4l-8.3,4.3l-1.9,2.6l-5.1,1.1l-2.1-0.6l-2.6-0.4l-3.4,0.9l-48.8,27.3l-3.2,0l-6.8,3.8l-7,9.6l0,4.3l-9.4,5.3
	l-0.6,1.9l-5.5,6.4l0.2,3.2l1.1,2.6l2.1,2.1l3,1.5l10.2-1.9l8.5-4.9l7.7,4l3.8,0.4l6.2-3.6l3.2-3L308.8,66.3z"/>
<path d="M314.6,57.1l-1.1,0.9h0.2h-0.2l0,0l-1.5,0.4l-1.3,0L309,58l-1.7-0.6l0,0l-1.9-1.3v0.2l-1.7-1.5l0.2,0l-1.5-1.9v0.2l-2.8-4.3
	h0.2l-0.9-2.3l0,0l-0.6-4l0.2-1.7L299,39l0,0l0.9-1.1l0.4-0.4l1.3-0.6l0,0l0.2,0l-0.2,0l0.9,0l0-1.1l-0.9,0.2h-0.2
	c-0.9,0.4-1.5,0.9-1.9,1.1c-0.4,0.4-0.9,0.9-1.1,1.7l0,0l-0.4,1.7l0,4l1.3,4.5l0,0l2.8,4.5h0.2c1.5,2.6,3.8,4.3,6.6,5.3
	c3.4,1.3,5.8,0.6,7.2-2.1l0.4-0.9l-1.1-0.4l-0.2,0.9L314.6,57.1L314.6,57.1z"/>
<path d="M302.4,35.6v1.1l0.9,0l0.2-1.1h-0.2L302.4,35.6z"/>
<path d="M304.5,35.6l-0.9,0l-0.2,1.1l1.1,0V35.6z"/>
<path d="M300.1,36.1l-5.5,3.2l0.4,0.9l5.8-3.2L300.1,36.1z"/>
<path d="M299.2,59.5l1.7,1.1l0.2,0l1.7,1.1l0,0l1.7,0.4l0.2-1.1l0.2,0l-1.7-0.4h0.2l-3.4-2.1l0,0l-1.7-1.5l0.2,0l-1.7-1.7v0.2
	l-2.3-4.3l-0.9-2.1h0.2l-0.9-3.8l0,0l0.4-3.2l0,0l0.6-1.3l0.9-0.9l-0.6-0.9l-0.4,0.4c-1.5,1.5-2.1,3.8-1.7,7
	c0.4,2.6,1.3,4.9,2.6,7.2l1.3,2.1h0.2l1.7,1.7l0,0L299.2,59.5z"/>
<path d="M304.8,61l-0.2,1.1l1.7,0l0.2,0l-0.2-1.1L304.8,61z"/>
<path d="M307.5,60.8l-1.3,0.4l0.2,1.1l1.5-0.4L307.5,60.8z"/>
<path d="M313.1,57.6l-5.5,3.2l0.4,0.9l5.5-3.2L313.1,57.6z"/>
<path d="M225.7,78.2l7-10l-0.9-0.6l-7,10L225.7,78.2z"/>
<path d="M230.2,92.1l-3.8-9.6l-0.9,0.4l3.8,9.6L230.2,92.1z"/>
<path d="M242.5,101.7l-7.5-4.3l-0.4,0.9l7.5,4.3L242.5,101.7z"/>
<path d="M251.9,98.7l-6,3.4l0.4,1.1l6-3.4L251.9,98.7z"/>
<path d="M235.3,71.2l3-4.3l-0.6-0.6l-3,4.3L235.3,71.2z"/>
<path d="M239.1,87.6l-4-10l-0.9,0.4l4,9.8L239.1,87.6z"/>
<path d="M251.3,97l-7.7-4.3l-0.4,0.9l7.7,4.5L251.3,97z"/>
<path d="M254.3,96.4l-2.3,2.6l0.9,0.6l2.3-2.6L254.3,96.4z"/>
<path d="M232.5,68.7l7.5-4.3l-0.4-0.9l-7.5,4.3L232.5,68.7z"/>
<path d="M225.7,78.2l6.4-3.6l-0.4-0.9l-6.4,3.6L225.7,78.2z"/>
<path d="M233.2,96.4l6-3.4l-0.4-1.1l-6,3.4L233.2,96.4z"/>
<path d="M226.3,82.7l-0.2-2.6l-1.1,0l0,1.3v0.2l0.4,1.3L226.3,82.7z"/>
<path d="M225.1,80.4l1.1,0l-0.2-1.1l0,0l-0.9,0V80.4z"/>
<path d="M225.9,79.1l0-1.3l-0.9,0v1.3L225.9,79.1z"/>
<path d="M232.1,96.1l0.9-0.9l-1.5-1.7l-0.9,0.6L232.1,96.1z"/>
<path d="M230.6,94.4l0.9-0.6l-0.6-0.9l0,0l-0.9,0.4L230.6,94.4z"/>
<path d="M229.3,92.5l0.6,1.1l0.9-0.4l-0.6-1.1L229.3,92.5z"/>
<path d="M240.8,93.2l2.3,0.4l0.2-1.1l-1.3-0.4l0,0l-1.1-0.2L240.8,93.2z"/>
<path d="M240.8,93.2l0.2-1.1l-1.1,0l-0.2,1.1L240.8,93.2z"/>
<path d="M238.7,93l1.1,0l0.2-1.1l-1.1-0.2L238.7,93z"/>
<path d="M239.3,87.8l-1.1,0l0.2,1.9l1.1,0l0,0L239.3,87.8z"/>
<path d="M239.5,90l-1.1,0l-0.2,1.1l1.1,0.2l0,0L239.5,90z"/>
<path d="M239.1,92.5l0.2-1.3l-1.1-0.2l-0.2,1.3L239.1,92.5z"/>
<path d="M232.1,73.8l-0.6,0.9l0.9,0.6v-0.2l0.6,0.9l0.9-0.6l-0.6-0.9l-0.2,0L232.1,73.8z"/>
<path d="M233.8,77l0.9-0.4l0,0l-0.9-1.1l-0.9,0.6L233.8,77 M233.8,77h-0.2H233.8L233.8,77z"/>
<path d="M235.1,77.6l-0.4-1.1l-1.1,0.4L234,78L235.1,77.6z"/>
<path d="M233.2,72.3l-1.9,1.7l0.6,0.6l0.9-0.6h0.2l0.9-0.9l0,0L233.2,72.3z"/>
<path d="M233.2,72.3l0.9,0.6l0.6-0.9l-0.9-0.4v-0.2L233.2,72.3z"/>
<path d="M234.2,70.8l-0.4,1.1l0.9,0.4l0.4-0.9L234.2,70.8z"/>
<path d="M251.3,97.2l-0.9,0.6l0.4,0.4l0,0l0.2,0.4l0.9-0.4v-0.2l-0.4-0.4L251.3,97.2z"/>
<path d="M252.1,98.3l-0.9,0.4l0.2,0.4l1.1-0.4L252.1,98.3z"/>
<path d="M252.5,98.9l-0.2-0.4l-1.1,0.4l0.2,0.4L252.5,98.9z"/>
<path d="M234.6,98.5L234.6,98.5l0-1.1l-0.4,0.6L234.6,98.5z"/>
<path d="M234,96.8l-0.9,0.4l0,0l0.9,0.9l0.6-0.9L234,96.8 M234,96.8L234,96.8L234,96.8L234,96.8z"/>
<path d="M232.5,96.1l0.9,1.1l0.9-0.6l-0.9-1.1L232.5,96.1z"/>
<path d="M244.7,102.1l-2.3-0.4l-0.2,1.1l1.1,0.4l1.3,0.2h0.2V102.1L244.7,102.1z"/>
<path d="M246.2,103.2v-1.1l-1.7,0v1.1L246.2,103.2z"/>
<path d="M327.1,47.8l0.2,0.4l0.9-0.9v-0.2l0.4-1.1l0.2-2.8v-0.2l-0.6-3.2l-1.7-3.2l0,0l-1.1-1.7l0,0l-1.3-1.5l-2.8-2.1l-1.5-0.6
	l-0.2,0l-1.3-0.2l-1.5,0l-1.3,0.4l0,0l-0.9,0.6v0.2l-0.9,1.1l-0.2,1.3l0,0v1.5l0.4,3.6l0,0l1.7,3.8l2.3,3.2l1.3,1.1l0,0l1.3,1.1l0,0
	l2.6,1.1l0,0v-0.4l-1.3-0.4h0.2l-1.5-0.6l-2.6-2.1l-1.3-1.5v0.2l-1.1-1.7l0.2,0l-1.7-3.6l-0.2-1.9l0,0l-0.2-1.7l0.4-2.8l0,0l0.9-1.1
	l0.9-0.6l1.1-0.4l1.3,0l1.3,0.2l1.7,0.6l0,0l1.3,1.1h-0.2l1.5,1.1l2.3,3.2l1.5,3.4v-0.2l0.6,3.2l-0.2,2.8v-0.2l-0.4,1.3v-0.2
	L327.1,47.8z"/>
<path d="M323.7,48.8v0.4l1.3,0v-0.4L323.7,48.8z"/>
<path d="M326.1,48.8l-1.1,0.2v0.4l1.3-0.2L326.1,48.8z"/>
<path d="M326.1,51l-1.5,0.4l-1.3,0l-1.7-0.4l-1.7-0.9l0,0l-1.7-1.1l0,0l-1.9-1.7h0.2l-1.7-1.7l-1.3-2.1v0.2l-2.1-4.5l0,0l-0.4-2.1
	v-1.9v-1.7l0.4-1.7l0,0l0.2-0.6l0.4-0.6l0,0l0.4-0.4l0,0l0.6-0.4l0,0l-0.4-0.9L312,29c-1.9,1.7-2.6,4-2.1,7.2
	c0.2,2.6,1.3,5.1,2.8,7.5l1.5,2.1l0,0l1.5,1.7v0.2l3.4,2.6l0,0l1.9,0.9l0,0l1.7,0.4l1.7,0l0.9-0.4l0,0L326.1,51l0.2,0
	c1.7-0.9,2.8-2.8,3-6.2l-0.2-2.1l0,0c-0.4-2.1-1.3-4.3-2.6-6.4c-1.3-2.3-2.8-4.3-4.5-5.3l-1.5-1.1l0-0.2l-1.7-0.9l-0.2,0l-1.5-0.4
	l-0.2,0l-1.5-0.2l-1.3,0v1.7l1.3,0l1.5,0.4l0,0l1.3,0.4v-0.2l1.7,1.1l-0.2,0l3,2.6l0,0l1.3,1.7l0,0l1.3,1.7l1.1,2.3v-0.2l1.5,4.5
	l0.2,1.7l-0.2,1.9l-0.4,1.5l0,0l-0.4,0.9l0.2-0.2L326.1,51L326.1,51z"/>
<path d="M313.3,29.4l0.4,0.9l0.6-0.2l-0.4-1.1L313.3,29.4z"/>
<path d="M314.6,29l-0.6,0.2l0.4,1.1l0.6-0.4L314.6,29z"/>
<path d="M312,30.1l-5.5,3l0.6,1.1l5.5-3.2L312,30.1z"/>
<path d="M324.8,51.6l-5.3,3l0.4,0.9l5.5-3L324.8,51.6z"/>
<path d="M316.5,56.1L316.5,56.1l0.2-0.9l0,0l-3.2-1.3l0,0l-1.7-1.1l0,0l-1.7-1.5l0,0l-1.5-1.7l0,0l-2.3-4l-0.9-2.3v0.2l-0.6-2.1
	l0-3.6l0.4-1.7H305l0.9-1.3l0,0l1.1-1.1l-0.9-0.6l-0.4,0.4c-1.7,1.5-2.1,3.8-1.7,7c0.4,2.8,1.3,5.3,2.8,7.2l1.3,2.1l0.2,0
	C310.1,53.1,313.1,55.2,316.5,56.1z"/>
<path d="M316.5,55v0.9l1.7,0L318,55L316.5,55z"/>
<path d="M319.5,54.6l-1.7,0.4l0.2,0.9l1.5-0.2L319.5,54.6z"/>
<path d="M314.6,55.9L314.6,55.9l0.4-0.4l-1.1-0.4v0.4l-0.2,0l-1.1,0.4l-0.9,0l-1.3-0.4l-1.5-0.6l0.2,0l-1.5-0.9v0.2l-1.3-1.3h0.2
	l-2.3-3v0.2l-0.9-1.7h0.2l-0.6-1.9v0.2l-0.4-1.7l-0.2-1.7l0-1.3l0.2-1.1v-0.2l0,0l0.4-1.1l0,0l0.4-0.2h-0.2l0.4-0.4l0.2,0l-0.9-0.6
	l0,0l-0.4,0.2c-1.5,1.3-1.9,3.2-1.7,5.8c0.2,2.1,0.9,4,1.9,6l1.1,1.7h0.2l1.1,1.5l0,0l1.3,1.1l0.9,0l1.3,1.1l1.3,0.6h0.2l1.3,0.2
	l1.5,0l1.1-0.4l0,0L314.6,55.9z"/>
<path d="M304.1,38.4l-0.4,0.2l0,0l0.4,0.4V38.4z"/>
<path d="M304.1,39.5v-1.1l0,0V39.5L304.1,39.5z"/>
<path d="M244.7,93.6L244.7,93.6l2.6,1.7v0.2l2.3,1.1l2.3,0.6l0,0l2.1,0l1.9-0.6h0.2v-0.2l0.2-0.2l-0.2-0.2H256l-1.9,0.6l-1.9,0
	l-2.1-0.6l0,0l-2.6-1.1L243,91l-2.3-2.3l0,0l-1.9-2.8h0.2l-1.7-3.2l-1.9-6l0-5.3l0.9-2.1l0,0l0.9-1.5l1.5-1.3l-0.2-0.4l-1.7,1.1
	l0,0.2c-1.1,1.5-1.7,3-1.9,4.3c0,0.4,0,1.9,0.2,4.9l1.9,6l0,0.6l3.6,6l2.1,2.6L244.7,93.6z"/>
<path d="M238.9,66.7l-0.2-0.4l0,0l-0.2,0.2l0.2,0.4L238.9,66.7 M238.9,66.7L238.9,66.7L238.9,66.7L238.9,66.7z"/>
<path d="M239.1,66.1h-0.4l0.2,0.4h0.2V66.1z"/>
<path d="M228,93.8l1.5,1.5h0.2l0.2-0.4l-1.5-1.3l0,0l-1.3-1.9l0,0l-1.1-2.6l-0.6-2.6l0-1.9l0.9-1.5l-0.4-0.2l-0.9,1.7l0,2.1l0.6,2.6
	l0,0l1.1,2.6L228,93.8z"/>
<path d="M229.7,94.9l-0.2,0.4l1.5,1.1l0,0l0.4-0.4L229.7,94.9z"/>
<path d="M232.7,96.6l-1.5-0.6l-0.4,0.4l1.7,0.6L232.7,96.6z"/>
<path d="M233.2,99.3l1.1-0.2l0-1.1l-0.9,0.2l-0.2,0l-0.9-0.2l-1.1-0.6l0,0l-1.3-0.6l0,0l-1.1-0.9l0,0l-2.3-2.3v0.2l-1.7-3.2
	l-0.6-1.7v0.2l-0.4-1.7l-0.2-1.3l0-1.3l0.4-1.3h-0.2l-0.9-0.4v0.2c-0.6,1.3-0.6,2.8,0,4.7c0.4,1.7,1.1,3.2,1.9,4.5l0.9,1.5h0.2
	l1.1,1.3v0.6l2.1,1.9h0.2l2.3,1.1l0.2,0.2L233.2,99.3L233.2,99.3z"/>
<path d="M224.4,83.4l-0.9-0.9l0,0l-0.4,1.1L224,84L224.4,83.4 M224.4,83.4L224.4,83.4L224.4,83.4L224.4,83.4z"/>
<path d="M224.4,81.7l-0.9,0.9l0.9,0.9l0.9-0.9L224.4,81.7z"/>
<path d="M309.7,66.3l-0.4-0.9L256,95.1l0.6,1.1L309.7,66.3z"/>
<path d="M292.6,36.9l-0.4-0.9l-53.1,29.6l0.4,0.9L292.6,36.9z"/>
<path d="M243,63.8l-3.2,0v1.1l3.2,0V63.8z"/>
<path d="M300.5,65l-2.6-1.7l-2.1-1.9l-2.1-2.6l0,0l-1.9-2.8h0.2l-1.7-3.2l-1.3-3l-0.6-3l-0.2-2.8l0.2-2.3l0.6-2.3l-0.2,0l1.5-1.1
	l1.7-1.3l0,0l1.5-0.6h-0.2l1.9-0.4H295l0.2-0.4H295l-1.7,0.2c-2.1,0.6-3.4,1.9-4.3,3.2c-0.6,1.1-1.1,2.8-1.1,5.3l0.9,5.8
	c1.7,5.5,4.7,10,9.2,13.4h0.2l2.3,1.7l0,0l2.1,1.1c3.8,1.3,7,0.4,9.2-2.6l0,0l0.9-1.7l0,0l0.4-2.1l-0.4,0l-0.4,1.9l-0.9,1.9
	l-1.1,1.3h0.2l-1.5,1.1l-1.9,0.6l-2.1,0l-2.1-0.6l0,0L300.5,65z"/>
<path d="M295.2,35.8l-0.2,0.4l1.9,0.4l0.2-0.4L295.2,35.8z"/>
<path d="M299,36.9l-2.1-0.6l-0.2,0.4l2.1,0.6L299,36.9z"/>
<path d="M298.6,60.6L298.6,60.6l2.1,1.3l0,0l1.9,0.9l1.9,0.4l0,0l1.9,0l1.7-0.4l0.2-0.2l-0.4-0.2l-1.5,0.4l-1.7,0.2l-3.6-1.3l0,0
	l-1.9-1.3l-3.6-3.6v0.2l-1.5-2.3l0,0l-1.3-2.3l-1.5-4.9l0,0l-0.2-2.1l0.2-2.1l0.4-1.7h-0.2l1.1-1.5l1.3-1.1V39l0.4-0.4l-0.2-0.4
	l-0.4,0.4c-1.1,0.6-1.9,1.7-2.3,2.8c-0.2,0.9-0.4,1.9-0.6,3.8l0.9,4.5C292.6,54,295,57.6,298.6,60.6z"/>
<path d="M308.4,61.6l-0.9,0.4l0.4,0.2l0.6-0.4L308.4,61.6 M308.4,61.6L308.4,61.6L308.4,61.6L308.4,61.6z"/>
<path d="M309,60.8l-0.6,0.9l0.4,0.2l0.6-0.6L309,60.8z"/>
<path d="M223.1,103.2l1.3,0.4l1.1,0l0.2,0l1.1-0.4l-0.2-0.9l-1.1,0.2l-1.1,0l-1.3-0.4h0.2l-2.3-1.5l0,0l-1.3-0.9h0.2l-2.1-3l0,0
	l-0.9-1.7l-0.6-1.7h0.2l-0.4-1.7v-1.5l0-1.3l0.4-1.3l-0.2,0.2l0.6-1.1l0.9-0.6l0,0l-0.9-0.6v-0.2l-0.9,0.6l-0.2,0.2l-0.6,1.1l0,0
	l-0.4,1.3l0,1.3l0,0l0,1.7v0.2l0.4,1.7l0.6,1.7l0,0l0.9,1.7h0.2l2.1,3l0,0l2.6,1.9l0,0L223.1,103.2L223.1,103.2z"/>
<path d="M217.2,85.9l0.9,0.6h0.2H218l-0.4-0.9L217.2,85.9z"/>
<path d="M217.6,85.5l-0.2,0.2l0.4,0.9h0.2L217.6,85.5z"/>
<path d="M227,103.2l8.1-4.5l-0.4-0.9l-8.1,4.5L227,103.2z"/>
<path d="M218,86.6l6.6-3.8l-0.4-0.9l-6.6,3.6L218,86.6z"/>
<path d="M211,93.8L211,93.8L211,93.8L211,93.8L211,93.8 M216.5,105.5L216.5,105.5l0.9-0.4h0.2l-0.9-0.9l0,0l-0.6,0.2h-0.2l-0.9-0.2
	l-0.9-0.4h0.2l-0.9-0.6l0,0l-0.9-0.6l0,0l-0.9-0.6l0,0l-0.6-1.1l-1.1-2.1h0.2l-0.4-1.9l0.2-0.9l0,0l0.2-0.6h-0.2l0.4-0.4v0.2
	l0.4-0.4l0,0h0.2l-0.6-0.6h-0.2h0.2h-0.2c-1.3,1.1-1.7,2.3-1.3,4v0.2l0.6,1.9l0.4,1.3l0,0l0.6,1.1l1.9,1.7h0.2l1.7,0.9l0,0l0.9,0.2
	l1.1,0V105.5z"/>
<path d="M216.7,104.5l0.9,0.9v-0.2L216.7,104.5L216.7,104.5z"/>
<path d="M217,104L217,104l0.6,0.9h0.2L217,104z"/>
<path d="M217.4,105.1l9.4-1.7l-0.2-0.9l-9.4,1.5L217.4,105.1z"/>
<path d="M211.6,94.4l4-5.3l-0.9-0.6l-4,5.3L211.6,94.4z"/>
<path class="st1" d="M160.5,40.8l-2.9-1L158,83l-1.8,1.6l13.2,46.8l1.1,1.8l0.9,0.9l1.3,0.9l1.5,0.5h0.9l1.1-0.6l2.6-2.1l0.7-0.8
	l0.3-1.1l-0.1-1.2l-9.4-53.4l-4.5-27L160.5,40.8z"/>
<path class="st2" d="M151.5,31.6l-1.2-0.6l-1.2-0.2h-1.2l-1.4,0.7l-54,31.2L78.2,40.2l-17.4,10l-1.9-2.8c-0.3,0-0.6,0.1-1.1,0.1
	c-0.9,0.2-1.7,0.5-2.4,0.9c0.1,0-0.1-0.2-0.5-0.7c-0.8,0.2-1.8,0.6-2.8,1.2c-1.2,0.7-2.2,1.5-2.7,2.3c-0.1,0.1,0,0.2,0.1,0.5
	c0.1,0.1,0.1,0.2,0.2,0.3c-0.7,0.5-1.3,1.2-1.8,2.2c1.1,1.5,1.6,2.3,1.6,2.4c-1.2,0.7-1.8,1.1-1.8,1.1c0,0.1-0.6-0.9-2-2.7l-1.5,0.2
	l-1.9,0.7l-0.6-0.6l-2,0.7l-2.2,1.4l-1.3,1.3l0.4,0.9l-1.1,1.2l-0.7,1l2,3.1l-2.4,1.6l-12.2,7.2c-1.2,1.8-1.9,3.9-1.9,6.3
	c0,1.2,0.1,2.2,0.3,3.1l0.8,2.4l20.1,30.2l0.8,5.2l0.8-0.5l0.8-0.1l0.9,0.2l0.9,0.6l-2.7,1.6l-0.6,0.6l-0.1,0.9l0.3,1.1
	c0.2,0.8,0.6,1.4,1,1.7c0.6,0.8,1.2,1.1,1.9,1.1c0.3,0,0.6-0.1,0.8-0.3l1.4-0.7l1,0.3l1.1-0.2l4,6.1l1.2,1.4l1.9,1.4l2.2,0.9
	l1.9,0.5l2,0.2l2.5-0.3l16.4-9.3l3-1.2l1.8-0.5l1.6-0.2l1.6,0.2l2.2-1l-0.1-1.6l1,2l1.9-0.1l1.1-0.6l1,0.8l0.7-0.7l2.8-2.1l2-1
	l-0.2-0.9l0.7-0.5l0.9-1l0.2-1.2l-2.3-3.7l3.6-2l2.8,4.1l1.6-0.3l1.7-0.8l1.1,0.7l2.6-2l2.8-1.5l-0.2-1.1l1.1-0.7l0.7-1.6l-0.2-0.9
	l-0.6-1l38.1-21.8l-0.3-1.1l1.8-1.6L171,76l3.5-3.3l0.6-0.7l0.7-1.1l0.3-1.3l-0.3-1.2l-0.4-1l-22.8-34.7L151.5,31.6z"/>
<path class="st0" d="M108.4,30.3l-1.4-0.2l-1.2,0.3L81.1,44.8l10.1,16.2l24.3-14l0.7-0.6l0.5-1l0.4-1.5l-0.2-3.5l2.5-1.4L120,38
	l0.2-1.5l-0.3-1.2l-0.6-1.5l-1.1-1.4l-1.2-0.9l-1-0.4l-0.7,0.1l-2.5,1.2l-2.6-1.6L108.4,30.3z"/>
<path id="Layer1_6_MEMBER_3_MEMBER_0_1_STROKES" class="st3" d="M109.2,108.9l-5.4-8.1c-0.3-0.6-0.8-1.1-1.5-1.5
	c-0.6-0.3-1.3-0.5-2-0.5c-0.7,0-1.3,0.2-2,0.5l-2.1,1.2l0.6,0.1c2,0,3.6,0.7,4.9,2.1l5.4,8.2l2.2-1.7l12.7-7.4l-5.3-8
	c-0.2-0.6-0.3-1.1-0.3-1.7c0-1.3,0.4-2.4,1.3-3.3c0.9-0.9,2-1.3,3.3-1.3c0.8,0,1.6,0.2,2.4,0.7c0.7,0.4,1.3,1,1.7,1.7l4.9,7.5
	L173,72.9c0.3-0.2,0.5-0.3,0.7-0.5c0.3-0.3,0.6-0.6,0.8-1c0.3-0.6,0.5-1.3,0.5-2c0-0.9-0.3-1.7-0.8-2.5l-8-12.3L152.4,33
	c-0.4-0.6-1-1.1-1.6-1.4c-0.6-0.3-1.3-0.5-2.1-0.5c-0.8,0-1.6,0.2-2.3,0.7l-53.7,31L78.7,40.6l-17.1,9.9L50.2,57l-1.8,1.1l-3.8,2.2
	l17.4,26c0.2,0.5,0.3,1,0.3,1.6c0,1-0.2,1.8-0.7,2.6c-0.5,0.8-1.2,1.4-2,1.8l-7.2,4.2l-0.2,0.1l-3.7,2.1l2.4,3.7L52,104l8.7,13.2
	l-8,7.1l11.6-6.7c0.5-0.1,1-0.2,1.5-0.2c1.6,0,2.9,0.6,3.9,1.6l3.6,5.5l8.4-7l-3.8-5.6c-1.1-1-2.3-1.5-3.7-1.5
	c-0.6,0-1.2,0.1-1.8,0.3l-11.6,6.7 M81.8,44.8l24.4-14.1c1.3-0.5,2.9-0.2,4.6,0.9c0.6,0.4,1.2,0.9,1.8,1.4l2.4-1.4l1-0.1l1.1,0.4
	l1.1,0.9l1,1.2l0.7,1.5l0.3,1.5l-0.1,1.2l-0.5,0.9l-2.6,1.5c0.2,0.7,0.2,1.4,0.3,2.1c0.1,2-0.4,3.5-1.5,4.4L92,60.9 M112.6,33.1
	c1,1,1.9,2.1,2.6,3.4c0.8,1.4,1.3,2.8,1.7,4.2 M157.3,40.2l2.9,1l5.5,8.3l0.8,5.2 M168.4,69c0-0.8-0.3-1.6-0.8-2.2s-1.2-1.1-2-1.3
	c-0.8-0.2-1.5,0-2.1,0.4c-0.6,0.4-0.8,1.1-0.8,2c0,0.8,0.3,1.6,0.8,2.2s1.2,1.1,2,1.3c0.8,0.2,1.5,0,2.1-0.4
	C168.2,70.4,168.4,69.7,168.4,69z M45.9,47.5l2.6,4c-0.1-0.3,0.1-0.7,0.7-1.3c0.6-0.7,1.3-1.3,2.4-2s1.9-1.2,2.8-1.5
	c0.7-0.3,1.2-0.3,1.5-0.1l-2.6-3.9v-0.1c-0.2-0.3-0.7-0.2-1.5,0.1C50.9,43,50,43.5,49,44.2c-1,0.7-1.8,1.3-2.4,2
	C46,46.8,45.8,47.2,45.9,47.5z M55.8,46.6C55.8,46.6,55.8,46.6,55.8,46.6c0.1,0.1,0.1,0.1,0.1,0.2c0.1,0.2-0.1,0.5-0.3,0.9
	 M55.9,46.8l-0.1-0.2 M33.4,53.8c-0.6,0.6-0.8,1.1-0.7,1.3l0.1,0.1l2.6,3.9c-0.1-0.3,0.2-0.7,0.7-1.2c0.6-0.7,1.3-1.3,2.4-2
	c1-0.7,1.9-1.2,2.8-1.5c0.7-0.3,1.2-0.3,1.4-0.1L40,50.3v-0.1c-0.2-0.3-0.7-0.2-1.5,0.1c-0.8,0.3-1.7,0.8-2.8,1.5
	C34.8,52.4,34,53.1,33.4,53.8z M36.6,59.2c-0.6,0.2-1,0.2-1.2-0.1c0-0.1-0.1-0.1-0.1-0.1 M32.7,55.1C32.7,55.1,32.7,55.1,32.7,55.1
	L32.7,55.1 M41,58.1L41,58.1c0.6-0.7,1.2-1.3,2-1.7l-0.5-0.8c-0.8,0.2-1.9,0.7-3.3,1.5c-1,0.6-1.7,1.3-2.2,2l0.3,0.9
	C38.3,59.1,39.5,58.4,41,58.1L41,58.1l1.9,2.8 M40.9,113.7l-17.4-26c-1.7-2.1-2.5-4.6-2.5-7.3c0-2.4,0.7-4.6,2-6.6l2.1-1.2L35,66.8
	l9.4-6.5 M37.2,60c-0.7,0.6-1.3,1.3-1.9,2.1l1.7,2.5 M56.1,48.7c-0.7,0.4-1.4,1.1-2,1.7 M56.1,48.7l-0.5-0.8
	c-0.8,0.1-1.9,0.6-3.2,1.5c-1,0.7-1.8,1.3-2.3,2l0.3,0.9c1.1-0.9,2.3-1.5,3.8-1.9l1.9,2.7 M61.5,50.5l-1.9-2.8
	c-1.1,0.1-2.1,0.3-3,0.8c-0.2,0.1-0.3,0.2-0.4,0.2 M49.8,51.6c-0.6,0.2-1,0.1-1.2-0.1l-0.1-0.1 M42.7,54.2L42.7,54.2
	c0.1,0.1,0.1,0.1,0.1,0.1c0.1,0.2-0.1,0.5-0.3,0.9 M42.7,54.3l-0.1-0.1 M48.4,58.1l-1.9-2.8c-1.1,0.1-2.1,0.3-3,0.8
	c-0.2,0.1-0.3,0.2-0.4,0.2 M50.4,52.4c-0.7,0.6-1.3,1.3-1.9,2.1l1.7,2.5 M96.4,100.5l-4.2,2.4c-0.6,0.3-1.1,0.8-1.4,1.3
	c-0.3,0.6-0.5,1.2-0.5,1.9c0,0.7,0.2,1.3,0.6,2l5.6,8.4l-4.7,3.6 M61.2,128.7c0,0.7,0.2,1.2,0.7,1.8c0.4,0.6,1,0.9,1.7,1.1
	c0.6,0.1,1.2,0,1.6-0.3c0.4-0.4,0.7-0.9,0.7-1.6c0-0.7-0.2-1.2-0.7-1.8c-0.4-0.6-1-0.9-1.7-1.1c-0.6-0.1-1.2,0-1.6,0.4
	C61.5,127.5,61.2,128,61.2,128.7z M64,131.2c0.1-0.7-0.2-1.3-0.7-2c-0.5-0.6-1.1-1-1.8-1.1 M73,124.5l4.8-0.1 M84,133.4
	c-0.3-0.1-0.4-0.3-0.5-0.4c0-0.1,0-0.1,0-0.1l-1.2-4.8c-0.1-0.3,0.1-0.6,0.4-0.8c0-0.1,0-0.3,0-0.4c0-0.4-0.2-0.7-0.4-1l-0.1-0.1
	c-0.1-0.3,0.2-0.6,0.8-1c0.6-0.4,1.4-0.7,2.3-1c1-0.2,1.7-0.3,2.5-0.3c0.7,0.1,1.1,0.2,1.2,0.5v0.4c0,0.4,0.1,0.8,0.3,1.1
	c0.5,0.1,0.8,0.2,0.8,0.5v0.1l1.2,4.8c0,0.1,0.1,0.1,0.1,0.1s0,0.1,0,0.1c0,0.1-0.1,0.3-0.2,0.4 M82.7,127.2
	c0.1-0.1,0.3-0.2,0.5-0.3c0.7-0.4,1.6-0.8,2.7-1.1c1.1-0.3,2.1-0.4,2.9-0.3c0.2,0,0.4,0,0.6,0.1 M90.5,125.2l1.4-0.6l-0.2-2.3
	l-6.4,0.3l-6.2,2.7l0.4,2l2.4,0.1 M85.3,122.6l-1-4.1l-6.2,2.7l1,4.1 M91.7,122.3l-1-4.1l-6.4,0.3 M92.7,124.9
	c0.3,0.1,0.6,0.1,0.9,0.1c0.8,0,1.5-0.2,2.1-0.7l1.1,0.9 M93.1,124.4l-0.9-1.2 M91.5,131l-0.1-0.2c-0.2-0.3-0.6-0.4-1.3-0.4
	c-0.8-0.1-1.8,0.1-2.9,0.3c-1.1,0.3-2,0.6-2.7,1.1c-0.6,0.4-1,0.7-1,1.1 M98.6,120.3c2-0.3,3.8-1.1,5.2-2.5l-2-3.3 M103.8,117.7v0.1
	c0,0.6-0.2,1.1-0.5,1.6c-0.3,0.5-0.7,0.8-1.3,1.1l0.2,1.1 M93.1,124.4c2.3-0.8,4.2-2.2,5.5-4.1l-2.1-3.3l10.8-6.2 M96.4,116.6
	l-14.9,0.8 M46.4,102.9l0.2,0.1l0.2,0.1c0.7,0.3,1.3,0.8,1.7,1.6c0.4,0.5,0.7,1.1,0.8,1.9c0.1,0.8-0.1,1.5-0.5,1.8l-2.6,1.5
	c-1,0.6-1.9,0.1-2.9-1.5c-1.1-1.7-1.2-2.9-0.3-3.7c0.1-0.1,0.1-0.1,0.2-0.1l2.3-1.3l0.2-0.1l0.1-0.1l0.2-0.1H46l0.2-0.1L46.4,102.9
	L46.4,102.9z M44.9,103.1c0.2-0.5,0.5-0.8,0.8-1c0.1-0.1,0.2-0.1,0.3-0.1l1.5-0.8l0.3-0.1l0.4-0.1l0.4,0.1c0.1,0,0.2,0.1,0.4,0.1
	c0.6,0.2,1.2,0.7,1.8,1.2 M46,102c0.6-0.2,1.3,0.2,2.2,1c1.5,1.3,2.1,2.8,2,4.2l0.1,2.4c-0.2,0.3-0.5,0.5-0.8,0.6l-0.7,0.5l0.7,3.7
	l0.3,3.5l-0.2,3.3l-0.6,2.8l0.9-0.3l0.7,0.1v1.6l-0.2,1.3c0.1-0.1,0.2-0.1,0.2-0.2l-0.1,0.1 M35.1,66.7l17.4,26
	c0.3,0.6,0.5,1.1,0.5,1.7c0,0.8-0.3,1.5-0.8,2 M30.8,80.1c0.1-0.7-0.2-1.3-0.7-2c-0.4-0.6-1.1-1-1.8-1.1 M28,77.6
	c0-0.7,0.2-1.2,0.7-1.5c0.4-0.4,1-0.5,1.6-0.4c0.6,0.1,1.2,0.5,1.7,1.1c0.4,0.6,0.7,1.2,0.7,1.8c0,0.7-0.2,1.2-0.7,1.6
	s-1,0.5-1.6,0.3c-0.6-0.1-1.2-0.4-1.7-1C28.2,78.8,28,78.2,28,77.6z M25,72.6c-0.8,1.7-1.2,3.6-1.2,5.6c0,2.8,0.8,5.5,2.4,7.8
	l12.6,18.9 M50.4,126.3L50.4,126.3l1.3-0.7c0.4-0.5,0.7-1.2,0.7-2.2c0.6-2.7,0.8-5.5,0.8-8.3c0-3.8-0.5-7.5-1.5-11 M49.4,110.1
	c-0.2,0.1-0.3,0.1-0.5,0.1c-0.5,0-1-0.2-1.5-0.6 M46.1,109.8c0.1-0.1,0.1-0.1,0.1-0.1c0.8-0.8,0.7-2-0.3-3.6c-1-1.5-1.9-2-2.9-1.6
	 M45.4,110.4l1.2,0.7l1.1,0.1l0.8-0.5 M42.5,107.5c-0.7,3.9-0.7,8.3,0.3,13.1c0.9-1,2-1,3.4,0.1c0.1,0.1,0.1,0.1,0.1,0.1
	c1.2,0.9,2.1,2,2.5,3.1h0.1v0.1v-0.1 M43.3,122.4c-0.9,0.8-0.8,2,0.3,3.7c1,1.6,2,2.1,2.9,1.5h0.1c0,0,0.1,0,0.1-0.1l0.1-0.1
	c0.8-0.8,0.7-2-0.3-3.6c-1-1.5-1.9-2-2.9-1.6C43.4,122.3,43.4,122.3,43.3,122.4z M49.7,124.2c0.1,0.9-0.1,1.5-0.5,1.8l-2.6,1.5
	 M43.5,122.2l2.6-1.6 M51.8,125.5L51.8,125.5c-0.1,0.1-0.1,0.1-0.1,0.1 M48.2,126.8c0.7,0.2,1.3,0.2,1.9-0.2l-0.1-0.2 M50.2,126.6
	c-0.1,0.1-0.1,0.1-0.1,0.1l4.2,6.3c1.1,1.2,2.3,2.2,3.8,2.9c1.5,0.7,3,1.1,4.7,1.1c0.9,0,1.8-0.1,2.7-0.3c0.1,0,0.2-0.1,0.3-0.1
	l2.4-1.3c-1,0.3-2,0.4-3,0.4c-1.6,0-3.2-0.3-4.7-1.1c-1.5-0.7-2.8-1.7-3.8-2.9l-4.3-6.5 M48.3,98.7l-8.8,6.5 M88,133.8
	c-1,0.2-1.8,0.3-2.5,0.3s-1.1-0.2-1.2-0.5c-0.1-0.3,0.2-0.6,0.8-1c0.6-0.4,1.4-0.7,2.3-0.9c0.9-0.2,1.7-0.3,2.5-0.3s1.1,0.2,1.2,0.5
	c0.1,0.3-0.2,0.6-0.8,1C89.7,133.3,88.9,133.6,88,133.8z M68.2,135.1l11.7-6.7 M157.8,82.8l-0.1,0.2 M157.8,82.8l-0.1,0.1V83
	l13.4,45.1c0.3,0.9,0.7,1.7,1.3,2.5c0.9,1.1,1.9,1.7,3.1,2c1.1,0.3,2.1,0.2,2.8-0.4l0,0c0.9-0.8,1.2-1.9,0.8-3.4L170,76.2l0.1-0.1
	L157.8,82.8z M157.8,83l-1.8,1.5l13,46.3c0.3,0.7,0.7,1.3,1.2,1.9c0.9,1,1.9,1.6,3,1.9s2,0.1,2.7-0.5c0,0,0-0.1,0.1-0.1l0.2-0.1l0,0
	l2.2-1.9 M174,126.4c0.3-0.2,0.6-0.3,1.1-0.2c0.4,0.1,0.8,0.4,1.2,0.8c0.3,0.4,0.5,0.8,0.6,1.3c0.1,0.4-0.1,0.8-0.3,1.1
	c-0.3,0.3-0.6,0.3-1.1,0.2c-0.4-0.1-0.8-0.4-1.2-0.8c-0.3-0.4-0.5-0.8-0.6-1.3C173.6,127,173.7,126.7,174,126.4z M119.1,108.5
	c0,0.6-0.2,1.2-0.5,1.6c-0.3,0.5-0.7,0.8-1.2,1.1l0.3,1.1c0.4-0.1,0.6-0.1,0.7,0l0,0l3.2,4.9c0.1,0.2-0.1,0.5-0.7,1.1
	c-0.6,0.6-1.3,1.1-2.2,1.7c-0.9,0.6-1.7,1.1-2.5,1.3c-0.7,0.3-1.1,0.4-1.2,0.3c0,0-0.1,0-0.1-0.1c0,0,0-0.1,0-0.1l-3.1-4.8l-0.1-0.1
	c-0.1-0.2,0.1-0.4,0.6-0.8l-1.1-0.8c-1,0.7-2,1.1-3.2,1.2l-1.9-2.6 M106.3,112.6l1.9,2.6c1.2-0.2,2.2-0.7,3.2-1.4
	c1-0.7,1.7-1.6,2.3-2.6l-1.9-2.6 M117.6,112.4c-0.2,0.1-0.3,0.1-0.6,0.2c-0.7,0.3-1.6,0.8-2.5,1.4s-1.7,1.2-2.2,1.7
	c-0.1,0.1-0.1,0.1-0.2,0.2 M113.7,111.2c1.1,0,2.1-0.3,3-0.8c1-0.6,1.7-1.3,2.2-2.2l-1.8-2.6 M121.6,117.3c-0.1-0.2-0.6-0.1-1.2,0.2
	c-0.7,0.3-1.6,0.8-2.5,1.4c-1,0.6-1.7,1.2-2.2,1.7c-0.5,0.4-0.7,0.8-0.7,1l0.1,0.1 M121.8,104.9l8.4-7.6 M117.8,106l4.4-4.3
	 M175.9,134.1l0.2-0.2 M155.8,85.7L118.6,107 M173.9,72.3l-3.8,3.8 M42.4,55.5C42.5,55.5,42.5,55.5,42.4,55.5 M93.1,124.4
	L93.1,124.4 M98.6,120.3L98.6,120.3"/>
<path id="Layer1_6_MEMBER_3_MEMBER_1_1_STROKES" class="st4" d="M42.4,39.6l-1.3,0.7 M40.4,36.2L39.1,37"/>
<path id="Layer1_6_MEMBER_3_MEMBER_2_1_STROKES" class="st5" d="M43,33.9c-0.2-0.2-0.5-0.2-0.8-0.3c-0.3-0.1-0.6,0-0.8,0.2l-1.6,0.9
	c-0.5,0.3-0.7,0.8-0.7,1.6c0,0.8,0.3,1.6,0.8,2.5c0.5,0.8,1.1,1.5,1.9,1.9c0.7,0.4,1.3,0.4,1.8,0.2l1.6-1c0.4-0.2,0.7-0.6,0.7-1.2"
	/>
<path id="Layer1_6_MEMBER_3_MEMBER_3_1_STROKES" class="st4" d="M40.4,36.2c0.5,0.4,1,0.9,1.3,1.6c0.4,0.6,0.6,1.2,0.7,1.9"/>
<path id="Layer1_6_MEMBER_3_MEMBER_4_1_STROKES" class="st5" d="M45.6,39.1c0.2-0.4,0.3-0.8,0.2-1.5c-0.1-0.6-0.3-1.2-0.7-1.8
	c-0.3-0.6-0.7-1-1.2-1.4c-0.4-0.3-0.8-0.6-1.3-0.7"/>
<path id="Layer1_6_MEMBER_3_MEMBER_5_1_STROKES" class="st4" d="M45,40c-0.9-0.3-1.8-0.4-2.6-0.3 M41.3,33.8c-0.1,0.9-0.4,1.7-1,2.4
	 M24.1,43.7c-0.4,0.4-0.6,1-0.5,1.8c0.1,0.8,0.3,1.6,0.8,2.5c0.4,0.8,1,1.4,1.6,1.9c0.6,0.4,1.2,0.6,1.7,0.6"/>
<path id="Layer1_6_MEMBER_3_MEMBER_6_1_STROKES" class="st5" d="M24.1,43.6l0.2-0.1c0.6-0.3,1.2-0.2,2,0.2c0.8,0.4,1.4,1.1,2,2
	c0.6,1,0.8,1.9,0.8,2.8c0,0.9-0.2,1.5-0.8,1.8c-0.1,0.1-0.1,0.1-0.2,0.1l-0.3,0.2l-0.3,0.2c-0.6,0.3-1.2,0.3-1.9-0.2
	c-0.8-0.4-1.4-1.1-2-2.1s-0.8-1.9-0.8-2.8c0-0.9,0.3-1.5,0.8-1.8L24.1,43.6z"/>
<path id="Layer1_6_MEMBER_3_MEMBER_7_1_STROKES" class="st4" d="M27.4,48.8l0.1-0.1c0.3-0.2,0.5-0.6,0.4-1.1c0-0.6-0.2-1.1-0.5-1.6
	c-0.3-0.6-0.7-1-1.2-1.2c-0.4-0.3-0.8-0.3-1.2-0.2"/>
<path id="Layer1_6_MEMBER_3_MEMBER_8_1_STROKES" class="st5" d="M25.1,44.7c-0.3,0.2-0.4,0.6-0.4,1.1s0.2,1.1,0.5,1.6
	c0.3,0.5,0.7,0.9,1.1,1.2s0.8,0.4,1.1,0.3 M40.9,40.2l-8.5,5c-0.2,0.2-0.6,0.1-0.9-0.1c-0.3-0.2-0.7-0.5-1-1
	c-0.3-0.4-0.4-0.8-0.4-1.2c0-0.4,0.1-0.7,0.3-0.8L39,37"/>
<path id="Layer1_6_MEMBER_3_MEMBER_9_1_STROKES" class="st4" d="M39.9,40.8C39.6,41,39.3,41,39,40.7c-0.4-0.2-0.7-0.6-1-1
	c-0.3-0.4-0.4-0.8-0.4-1.3c0-0.4,0.1-0.7,0.3-0.8 M36.1,43c-0.2,0.2-0.6,0.1-0.9-0.1s-0.7-0.5-1-1c-0.3-0.4-0.4-0.9-0.4-1.3
	c0-0.4,0.1-0.7,0.3-0.8 M37.9,42c-0.2,0.2-0.6,0.1-0.9-0.1c-0.3-0.2-0.7-0.5-1-1c-0.3-0.4-0.4-0.8-0.4-1.2c0-0.4,0.1-0.7,0.3-0.9
	 M34.2,44.2c-0.3,0.2-0.6,0.1-1-0.1c-0.3-0.2-0.7-0.5-1-1c-0.2-0.4-0.4-0.9-0.4-1.3c0-0.4,0.1-0.7,0.3-0.8"/>
<path id="Layer1_6_MEMBER_3_MEMBER_10_1_STROKES" class="st5" d="M27.1,48.6c0.1-0.6,0-1.3-0.4-2c-0.4-0.7-1-1.2-1.5-1.4"/>
<path id="Layer1_6_MEMBER_3_MEMBER_11_1_STROKES" class="st4" d="M30.4,44.5l-1.6,0.9 M28.3,45.7l-0.4,0.2 M27.5,46.1L25.8,47
	 M22.6,48.8l-1.1,0.6 M21.3,49.5L21,49.6 M20.8,49.8l-1,0.6l5.8,8.8 M27,61.4l1.5,2.2 M29.9,65.8l5.8,8.8L33.4,76 M32.8,76.4
	l-0.6,0.3 M31.6,77.1l-2.3,1.4"/>
<path id="Layer1_6_MEMBER_3_MEMBER_12_1_STROKES" class="st5" d="M103.1,121.3l3.2,4.9"/>
<path id="Layer1_6_MEMBER_3_MEMBER_13_1_STROKES" class="st5" d="M99.7,130.7l-3.2-4.9"/>
<path id="Layer1_6_MEMBER_3_MEMBER_14_1_STROKES" class="st5" d="M103.2,121.3c-0.1-0.2-0.6-0.1-1.2,0.2c-0.7,0.3-1.6,0.8-2.5,1.4
	s-1.7,1.2-2.2,1.7c-0.6,0.6-0.8,0.9-0.7,1.1"/>
<path id="Layer1_6_MEMBER_3_MEMBER_15_1_STROKES" class="st5" d="M103.4,129c1-0.6,1.7-1.2,2.2-1.7c0.6-0.6,0.8-1,0.7-1.1
	c-0.1-0.2-0.6-0.1-1.2,0.2c-0.7,0.3-1.6,0.8-2.5,1.4c-1,0.6-1.7,1.2-2.2,1.7c-0.6,0.6-0.8,0.9-0.7,1.1c0.1,0.2,0.6,0.1,1.2-0.2
	C101.7,130.1,102.5,129.7,103.4,129z"/>
<path class="st6" d="M156.2,8l-2-0.5h-0.1H152h-0.1h-0.1l-0.9,0.1l-2,0.7v0.1h-0.1L148,8.7h-0.1l-0.5,0.4h-0.1l-0.9,0.8h-0.1
	l-0.1,0.1l-0.5,0.6h-0.1v0.1h-0.1l-1.1,1.7v0.1l0,0l-0.4,0.9l-0.5,2l0.1,2.1l0.1,0.2v0.9l0.4,1.2h0.1l0.4,1h0.1l0.4,0.9l0.6,0.8
	l0.1,0.1h0.1l0.6,0.8h0.1l0,0l0.8,0.6v0l0.9,0.6l0,0l1.9,1l0.9,0.2h0.1v0.1l0.2-0.1l0.8,0.2l1.1,0.1l0,0l1-0.1h0.2l0.8-0.2h0.1
	l0.9-0.3h0.1v-0.1l0.8-0.3h0.2l0,0l0.8-0.5l0.2-0.1l1.5-1.2l-0.1-0.1l0.1,0.1l-0.1-0.1l0.6-0.7h0.1V22h0.1l0.4-0.8h0.1l0.8-1.8
	l0.1-0.1l0.2-1l0.1-0.1l-0.1-0.1l0.1-1.9l-0.1-0.1l-0.3-2l-0.8-2H161l-0.1-0.1l-0.5-0.8l-0.1-0.1l-0.1-0.1l-0.5-0.7l-0.1-0.1
	l-0.7-0.7v0.1L158.1,9l0,0V8.9L156.2,8z"/>
<path d="M144.8,20.2l-0.1-0.3l-0.2,0.1l-39.6,21.5l-0.1,0.1l0.2,0.2l39.7-21.7h0.1V20.2z"/>
<path id="Layer1_7_MEMBER_1_1_STROKES" class="st7" d="M144.8,20.2l-0.1-0.3l-0.2,0.1l-39.6,21.5l-0.1,0.1l0.2,0.2l39.7-21.7h0.1
	V20.2z"/>
<path id="Layer1_10_MEMBER_1_1_STROKES" class="st8" d="M339.5,134h-84v-27.8h84V134z"/>
<text transform="matrix(1 0 0 1 272.2525 125.3818)" class="st9 st10">3241-P8</text>
<text transform="matrix(1 0 0 1 169.8289 18.0809)" class="st9 st11">PRESS. XDCR</text>
<text transform="matrix(1 0 0 1 23.0685 155.1809)" class="st9 st11">Parking Brake Control Valve</text>
</svg>
