<?xml version="1.0" encoding="utf-8"?>
<!-- Generator: Adobe Illustrator 24.1.2, SVG Export Plug-In . SVG Version: 6.00 Build 0)  -->
<svg version="1.1" id="Ebene_1" xmlns="http://www.w3.org/2000/svg" xmlns:xlink="http://www.w3.org/1999/xlink" x="0px" y="0px"
	 viewBox="0 0 349.1 226.8" style="enable-background:new 0 0 349.1 226.8;" xml:space="preserve">
<style type="text/css">
	.st0{fill:#CCCCCC;}
	.st1{fill:#FF9900;}
	.st2{fill:#0099FF;}
	.st3{fill:#2B2B2A;}
	.st4{fill:#B1B1B1;}
	.st5{fill:none;stroke:#D3D3D3;stroke-linecap:round;stroke-linejoin:round;}
	.st6{fill:none;stroke:#B1B1B1;stroke-width:0.5;stroke-miterlimit:5;}
	.st7{fill:none;stroke:#2B2B2A;stroke-width:0.5;stroke-miterlimit:5;}
	.st8{fill:none;stroke:#2B2B2A;stroke-width:0.4;stroke-miterlimit:5;}
	.st9{fill:none;stroke:#2B2B2A;stroke-width:0.25;stroke-miterlimit:5;}
	.st10{fill:#FFFFFF;}
	.st11{fill:none;stroke:#FF9900;stroke-linecap:round;stroke-linejoin:round;}
	.st12{font-family:'ArialMT';}
	.st13{font-size:12px;}
	.st14{font-family:'Arial-BoldMT';}
	.st15{font-size:14px;}
	.st16{fill:none;stroke:#000000;stroke-miterlimit:10;}
</style>
<path class="st0" d="M180,188.5l-0.3,0.4l-0.7,0.7v0l0.4,5.2l0.1,0l1.1,1l2.1,1.2l0.8,16.8l-0.2-0.1h-0.9l-17.6,2.7v0.1h-0.1l-0.2,0
	l-0.2,0.1l-0.2,0.1l-0.3,0.4l-0.1,0.3l-0.1,0.4l0.1,0v0.1l0.1,0.2l0.6,1.2l-0.6,0.6l-0.2,0.6l-0.1,0.2v0.4l0.1,0.6l0.5,1.1l0.5,0.4
	l0.4,0.4l1.1,0.6l21.8-2.9l1.3-0.4l1-0.5l0.8-0.7l0.5-0.7l0.5-1.4l0.1-0.9v-0.2l-1.3-20.1l2.1-1.6l0.8-0.8V194l-0.4-5.1l-1.5-1.3
	l-1.9-1.2l-0.5-0.2l-5.1,0.2l-1.3,0.2l-0.5,0.2l-0.9,0.6L180,188.5 M73.9,121l-1,0.5l-0.4,0.4l-0.4,0.5l-0.3,0.8l-0.3,2.2l0.1,0.2
	v0.2l0.2,0.7l0.5,0.8l0.8,0.7h0.1l0.4,0.2l0,0.1l-0.2,0.1l-0.3,0.2l-0.3,0.3l-0.4,0.7l-0.2,0.8l-0.1,0.1l0.3,1.4l0.2,0.4l0.2,0.4
	l0.4,0.5l0.2,0.1l0.1,0.1v0.1h22.8l0.1,2.3l0.2,0.5l0.4,0.4l0.3,0.2l0.8,0.3l0.5,0.1h11.9l0.8-0.2l0.8-0.4l0.3-0.4l0.2-0.5l0.1-0.6
	v-16.2l-0.2-1.2l-0.7-0.6l-0.7-0.3H98.3l-0.8,0.3l-0.7,0.6l-0.2,0.6l-0.1,2.9H73.9 M103.6,74.8l-0.5-0.1l-0.8,0.1l-0.6,0.3l-0.1,0.1
	l-0.1,0.2l-0.1,0.2l-0.2,13.4l0.4,2.2l0.3,0.9l0.6,0.9l0.8,0.7l0.9,0.4l1.2,0.1l15.7,0.2v1.1l0.1,0.3l0.2,0.4l0.1,0.2l0.2,0.1
	l0.7,0.2h7.6l0.7-0.2l0.2-0.1l0.2-0.2l0.1-0.4V85l-0.1-0.3l-0.2-0.2l-0.4-0.3l-0.2-0.1h-8.1l-0.2,0.1l-0.6,0.3l-0.3,0.6l-0.1,0.4
	v1.1l-10.3,0.1l-0.6,0l-0.4-0.2l-0.3-0.4l-0.4-0.8l-0.1-0.4l-0.1-0.4v-8.8l-0.1-0.2l-0.3-0.4l-0.2-0.2l-0.8-0.4l-0.6-0.2h-1
	l-0.5,0.2l-0.3,0.2l-0.2,0.1l-0.2,0.2l-0.2,0.3l-0.1,0.3v0.1l-0.1-0.2l-0.2-0.2L104,75L103.6,74.8 M200.4,69.2l-0.5-0.5l-1.2-0.7
	h-0.2l-0.7,2.5l0.6,0.4l0.4,0.4l0.2,0.4l0.1,0.6l-0.7,0.6l-0.8,0.3H197l-0.9-0.2l-1.1-0.7l-0.2-0.4l-0.2-0.2l-0.1-0.4v-0.6l0.3-0.6
	l0.3-0.2l0.6-0.3l0.5-0.1l0.4-1.7l-0.4-0.1l-0.8,0.1l-1.4,0.4l-0.6,0.4l-0.9,0.9l-0.4,1.5l-0.1,0.7l0.1,0.6l0.1,0.6l0.4,0.6l1.1,1.1
	l1.3,0.8l1.7,0.4l0.8,0.1l1.5-0.3l0.7-0.3l1.1-0.8l0.3-0.5l0.5-1.5l0.1-1.2l-0.1-0.5l-0.7-1L200.4,69.2 M207.5,46.4l0-0.2l-0.4-0.8
	l-0.5-0.8l-0.3-0.4l-0.6-0.3l-1-0.3l-2.1-0.4h-0.4l-0.8,0.4l-0.9,0.6l-0.1,0.1l-1.1,0.8l-0.7,0.7l-0.6,2.2v0.1l0.2,0.4l0.1,0.5
	l0.3,1l0.9,1.8l0.1,0.1l-0.8,2.8l-0.2,0.3v0.2l-0.2,1v0.1l-0.6,2.2v0l-0.6,1.9l-0.1,0.3l0.1,0.4l0.2,0.7l0.6,0.6l0.4,0.2l1.3,0.4
	h0.8l1.1-0.4l0.2-0.3l0.4-0.6l2.2-8.4l1.4-1l0.8-0.7l0.4-0.3l0.6-0.7h0.1l0.6-2.2L207.5,46.4 M328.2,101l-0.4-0.1l-49.6-0.1l0-2.7
	l-0.3-0.6l-0.3-0.4l-0.4-0.3l-0.9-0.3H276l-0.2-0.1h-13.6l-0.3,0.1h-0.4l-0.9,0.3l-0.4,0.3l-0.4,0.4l-0.2,0.6l0,19.2l0,0.7l0.2,0.6
	l0.4,0.4l0.4,0.3l0.5,0.2l0.8,0.2H276l0.8-0.2l0.8-0.6l0.3-0.4l0.3-0.6l0-3.3h49.4l0.2-0.1l0.8-0.4l0.5-0.4l0.5-0.6l0.4-0.9l0.4-2.4
	l-0.1-0.2l-0.1-0.6l-0.5-0.8l-0.4-0.4l-0.9-0.8h-0.1l-0.5-0.3l0.2-0.1l0.4-0.3l0.6-0.8l0.5-1.3l-0.1-1l-0.1-0.7l-0.5-0.9l-0.2-0.3
	L328.2,101z"/>
<path class="st1" d="M259.5,190.1l-0.5-0.2l-1.6,0l-0.9,0.2l-3,1.3l-2.9,2.2l-0.8,0.9l-1,1.6l-0.3,0.8l-0.1,0.7l0.1,0.5l0.2,0.6
	l0.8,1.1v0l0.1,0.3l-0.1,0l-0.3,0.8l0.1,1.1l0.1,0.4l-0.1,0l-1.1,1v0.8l0.1,0.2v0.2l0.1,0.3l0.5,0.8l0.1,0.1l1.8-0.9l0.1,0.1
	l-0.4,0.4l-0.1,0l-0.1,0l0-0.1h-0.1l-0.1,0.1h0l-0.1,0h0l-0.1,0h-0.1l0,0.1l-0.2,0.1l-0.1,0.1l-0.2,0.6v0.2l0.2,0.5v0.1l0.1,0l0.1,0
	l0,0.4l0.1,0.1l0.5,0.2l0,0.3l0.7,0.2l0.3-0.1l0.1,0.1h0.2l0.1-0.1h0.1l0,0l0.3,0.1h0.3l0-0.1l0.2-0.1l0.1-0.1l-0.4-0.2v-0.2
	l0.1-0.1l0.1-0.2l0.1-0.2l0.1-0.2l0.8-0.6h0.2l0.4,0l2-1.4l0.4-0.8l0.1-0.3V204l2.5-1.9l1.4-1.4l0.4-0.8l0.4-1.8v-0.8l-0.6-1.8
	l-0.1-0.3l0.1-0.2l0.3-0.8l0.1-0.6l-0.2-1.2l-0.4-0.3l-0.9-1.6L259.5,190.1 M232.3,155.3L232.3,155.3l-0.6-0.2l-0.5-0.1l-0.8,0.1
	l-0.3-0.3l-0.4-0.2l-1.1,0.1l-0.6,0.2l-2,1l-1.3,1.1l-1.4,1.8l-0.4,1.1l-0.1,0.5l0.1,0.4l0.1,0.1v1l0.2,0.6l0.2,0.1l15.2,19.5v0.1
	l0.1,0.2l0.2,0.1l0.1,0.1l0.4,0.2l1.5,0.1l2.2,3l0.2,0.2l0.4,0.1l1,0.1l1.1-0.3l1.2-0.5l-2-2.6l1.5-1.2l2,2.6l0.3-0.3l1.1-1.5
	l0.3-0.8l0-0.4l-2.5-3.5l0.4-0.8l0.1-0.6l-0.2-1l-0.4-0.3l-0.1-0.1L232.3,155.3 M225.6,149.7l-0.4-0.1l-1.1,0.1l-1.2,0.4l-1.3,0.8
	l-1.6,1.4l-0.6,1l-0.2,0.9v0.4l2.4,3.3l-0.1,0.2l-0.2,1.7v0.4l1,1.2l0.2-0.2l0.4-1.5l0.1-1.8l-0.1-0.2l1.7-0.8l0.9-0.8l0.4-0.5
	l0.8-0.9l0.3-0.6l0.1,0.1l1.4,0.2l2.1-0.3l0.4-0.2l-0.9-1.2h-0.1l-0.7-0.1H228l-0.2-0.5l-1.5-2.2L225.6,149.7 M67,64.2l-1,0.2
	l-1.5,0.9l-0.2,0.2l1.9,1.6l-1.4,1.5L63,67.1l-0.5,0.5l-0.3,0.6L62,68.7l-0.2,1v0.5l0.1,0.4l0.2,0.2l2.8,2.4l-0.1,1l0.2,1.1l0.2,0.3
	l0.2,0.1l17.8,16.9l0.6,0.4l0.3,0.1l-0.1,0.5v0.2h0.1l1,1l0.4,0.1h0.8L87,95h0.8l2.7,2.5l0.3,0.1l0.4,0.1h0.4l0.5-0.2l1-0.5l1.1-0.9
	l1-1.1l0.8-1.2l0.4-1.1l0-1l-0.1-0.4l-2.2-1.9L93.5,89l0-0.4v-1.8L92.5,86v0l-0.9-0.1v-0.8l-0.1-0.2L73.3,67.5L73,67.1l-0.4-0.2
	L72,66.8l-0.5,0.1l-0.8,0.3l-3.2-2.8L67,64.2 M52.2,51.5l-0.8-0.1l-1.8,0.2L48.8,52L48,52.5l-3,3.2l-0.4-0.1l-0.5,0.2l-0.5,0.3
	l-1.4,1.7l-0.1,0.4v0.3l-0.4,0.5l-0.8-0.2l-0.2,0.1L40.5,59l-0.1,0.1l0,0.1l-0.2,0.1l0,0.1v0.2l0.2,0.3l0-0.1l0.3-0.2l0.3-0.3
	l0.2-0.1l0.4-0.1L40,60.9l0.1,0.7l0.4,0.1l0.1,0.3V62l0.1,0.2l0.3,0.1v0.1l0,0.1h0l0.1,0.1l0.3,0.1h0.1l0.2,0h0.1l0.2,0l0,0l0.1,0.1
	l0.1,0.2V63l0.2,0.2l0.4,0.2l0,0.1l0.3,0.2l0.2,0.1h0.1l0.2,0.1l0.2,0.1h0.7l0.1-0.1l0.2-0.1l0-0.1l0.4-0.4l0.5,0.1l0.1,0l0.1,0.1
	h0.1l0.1,0.1l0.2,0.1l0.1,0.1h0.6l0.1-0.1l0.1-0.1l0.2-0.2l0.2-0.4l0.2-0.1l0-0.1l0.2,0.1h0.1l1.1,1l0.5,0.4l1.3,0l1.6-0.6l1.8-1.2
	l2.5-2.6l1.2-1.9l0.6-1.8l0.2-0.9v-0.8l-0.2-0.6l-0.3-0.4l-1.4-0.9l-0.3-0.5L56,52.1l-0.7,0.1l-0.9,0.4L54,52.2l-0.8-0.5L52.2,51.5z
	"/>
<path class="st2" d="M145.4,85.9l-0.1-0.3h-1.7l-0.1-0.5l-5.3-0.1l-0.1,0.1l-0.2,0.2l-0.3,1.6v6.8l0.3,1.5l0.2,0.3l0.1,0.1l5.3-0.1
	l0.2-0.6l1.6,0l0.3-0.6l0.2-1l0.1-4.7l-0.3-2.4L145.4,85.9 M188.1,54l-0.2-0.3l-0.4-0.3l-0.2,0l-26.1,0.5L158,68.2l-0.4,6l-7.6,0.4
	l-1.8,7.6l-2.9,0.1v0.2l-0.1,0.2l0.4,2.6l0.2,0.6l0.1,0.6l0.4,7.7l-0.4,1.2l-0.1,0.5v0.6l-0.1,0.6l0.1,0.6l1.6,0.1l0.3,3.7
	l17.2,12.7l-1.1,1.6l-11.9-8.8l-4.4,0.1l-0.1,0.1l-1.1,4.9l-5.6,0.2v0.5l-1.8,5.2h-1.3l-0.4-0.8l-0.3-0.1h-9l-0.2,0.1l-0.3,0.4
	l-0.4,1.6v0.7l-0.1,0.4l-0.4,5.9l-0.1,0.1l0.6,6.2l0.1,0.3l0.2,1.6l0.2,0.7l0.3,0.4l0.2,0.1h9l0.3-0.1l0.4-0.9l2.1,0.1l1.5,3.9
	l0.2,0.4l0.1,0.4v0.1l4.4,0.2v0.9l0.4,3v1.8h0.4l0.5,0.2l0.4,0.5l0.3,0.6v0l1.1,11.1l13.6,0.2l0.4,0.1l0.4,0.3l0.2,0.4v0.6h9.7
	l0.2,0.1l0.3,3.8l0.1,0.6l-0.2,0.2l0.2,2.3v0.1l2.8,1.9l0.6,0.3l0.7,0.1l-0.1,0.3l0.5,5.8l0.1,0.4l0.2,0.3l0.4,0.4l0.6,0.3l1.3,0.4
	l1.7,0.1l2.6-0.4l1.4-0.5l1.1-0.7l0.6-0.8v-0.4l-0.5-5.7l-0.1-0.1l1.8-1.5l0.4-0.4l0.4-0.3l0.9-1v-0.1l-0.2-2.3l-0.3-0.2l0.1-0.6
	l-0.1-2.8l4.5-0.1l3.4-16.2l-0.2-2.8l10.3-5.8l-3.6-4.8l1.5-1.1l3.8,4.9l5.2-2.9l0-9.2l2.3-0.1l0.3-1l0.9-4.6h1.3l0.2,0.4l0.2,0.2
	l0.1,0.2l0.2,0.1l0.1,0.2l0.1,0l0.1,0.1h9l1.6-1.5l0.1-0.4l0.2-1.4l0.3-5.9l-0.5-7.3l-0.1-0.3l-0.1-0.1l-1.5-1.4h-9l0,0.1l-0.5,0.1
	l-0.7,0.5l-0.2,0.2l-0.1,0.4h-0.7l0-0.5l-0.8-2.8l-0.8-1.6l-0.4-0.5l-0.5-0.4l-0.1-0.1l-4.1,0.1l-0.4-4.5l0,0.1v0.2l0.2,0.3v-0.3
	l-0.2-0.7l-0.1-0.2l-0.4-0.3l-0.2-0.1l-0.1,0l-18.8,0.1l-10.6,38.9l-0.9-0.2l0.2,1l-19.7,4.2l-4.9,17.7l0.2,0.2l0.8,0.8l-0.3,0.2
	l-0.4,0.2l-1,0.2h-1.1l-0.9-0.3l-0.8-0.6l-0.6-0.7l0.4-0.1l0.2-0.1l0.3-0.1l0.8-0.2h0.3l5-18.3l1,0.3h0V132l-0.2-0.9l19.8-4.2
	l11.1-40.6l-1.9-21h-0.7l-0.7-10.3L188.1,54z"/>
<path class="st3" d="M220.2,148.5l0.2-0.2l-0.3-0.4l-0.2,0.2L220.2,148.5z"/>
<path class="st4" d="M218.9,142.7l-1.6,0.5l-1.4,0.9l-0.6,0.6l-0.5,0.6l-0.8,1.3l-0.2,1.3l0.1,0.6l0.2,0.5l0.4,0.4l1,0.6l0.7,0.1
	h0.7l-0.3-0.6l-0.6-0.1l-0.5-0.3l-0.3-0.3l-0.2-0.5v-0.5l0.1-0.6l0.3-0.6l1-1.2l0.7-0.6l1.6-0.8l1.4-0.3l0.6,0.1l0.5,0.2l0.5,0.3
	l0.2,0.3l0.1,0.6l-0.1,0.5l-0.3,0.8l0.1-1l-0.3-0.6l-0.1,0.3l-0.6,1l-0.6,0.7l-0.8,0.6l-0.9,0.5l-0.9,0.3l-1.3,0.2l-0.6-0.1l0.4,0.5
	l0.9,0.3l-0.5,0.1l0.3,0.6l0.8-0.1l1.6-0.6l1.4-0.9l0.6-0.6l0.9-1.3l0.3-0.6l0.2-0.7l0.1-0.6l-0.1-0.6l-0.2-0.5l-0.4-0.5l-0.5-0.3
	l-0.5-0.2l-0.7-0.1h-0.8L218.9,142.7z"/>
<path id="Layer1_10_MEMBER_1_MEMBER_1_1_STROKES" class="st5" d="M218.9,142.7l0.8-0.1h0.8l0.7,0.1l0.5,0.2l0.5,0.3l0.4,0.5l0.2,0.5
	l0.1,0.6l-0.1,0.6l-0.2,0.7l-0.3,0.6l-0.9,1.3l-0.6,0.6l-1.4,0.9l-1.6,0.6l-0.8,0.1l-0.3-0.6l0.5-0.1l-0.9-0.3l-0.4-0.5l0.6,0.1
	l1.3-0.2l0.9-0.3l0.9-0.5l0.8-0.6l0.6-0.7l0.6-1l0.1-0.3l0.3,0.6l-0.1,1l0.3-0.8l0.1-0.5l-0.1-0.6l-0.2-0.3l-0.5-0.3l-0.5-0.2
	l-0.6-0.1l-1.4,0.3l-1.6,0.8l-0.7,0.6l-1,1.2l-0.3,0.6l-0.1,0.6v0.5l0.2,0.5l0.3,0.3l0.5,0.3l0.6,0.1l0.3,0.6h-0.7l-0.7-0.1l-1-0.6
	l-0.4-0.4l-0.2-0.5l-0.1-0.6l0.2-1.3l0.8-1.3l0.5-0.6l0.6-0.6l1.4-0.9L218.9,142.7z"/>
<path class="st3" d="M97.9,97.9l-0.2,0.2l0.3,0.3l0.2-0.2L97.9,97.9z"/>
<path class="st4" d="M99.7,96.2L98.4,97l-0.7,0.6l-1,1.4l-0.4,0.8l-0.3,0.8l-0.2,0.7l0.6,0.4l0.1-0.4l0.3,0.9l0.4,0.5v-0.7l0.1-0.4
	l0.8-1.7l0.6-0.8l0.7-0.7l0.8-0.6l0.8-0.4l0.3-0.1l0.4-0.1l-0.6-0.3h-1l0.8-0.2h0.6l0.5,0.1L102,97l0.3,0.4l0.1,0.6l-0.2,1.3
	l-0.3,0.8l-0.4,0.8l-1.1,1.3l-0.6,0.5l-0.6,0.4l-0.6,0.2l-0.6,0.1l-0.5-0.1l-0.5-0.2l-0.3-0.4l-0.2-0.5l-0.1-0.6l-0.6-0.4l-0.1,1.4
	l0.5,1.1l0.4,0.4l0.5,0.3l0.6,0.1l1.3-0.1l0.7-0.2l0.7-0.3l0.7-0.5l1.2-1.2l0.9-1.5l0.5-1.5v-1.4l-0.5-1.1l-0.4-0.4l-0.5-0.3
	l-1.2-0.2l-0.6,0.1L99.7,96.2z"/>
<path id="Layer1_10_MEMBER_1_MEMBER_4_1_STROKES" class="st6" d="M197.7,57l-0.1,0.3l0.1,0.7l0.2,0.3l0.6,0.6l0.4,0.2l1.3,0.5h0.4
	l0.5-0.1l0.8-0.2l0.3-0.2l0.2-0.3l0.3-0.6"/>
<path id="Layer1_10_MEMBER_1_MEMBER_5_1_STROKES" class="st6" d="M197.4,58.2l-0.1,0.3l0.1,0.3l0.1,0.3l0.2,0.3l0.2,0.3l1.1,0.7
	l0.5,0.2l0.5,0.1h0.9l0.8-0.3l0.3-0.2l0.2-0.2l0.3-0.7"/>
<path id="Layer1_10_MEMBER_1_MEMBER_6_1_STROKES" class="st6" d="M197.1,59.4l-0.1,0.3l0.1,0.3l0.3,0.6l0.5,0.6l0.3,0.2l0.5,0.2
	l0.4,0.1l0.5,0.1h0.9l0.5-0.1l0.6-0.3l0.3-0.3l0.2-0.3l0.1-0.3"/>
<path id="Layer1_10_MEMBER_1_MEMBER_7_1_STROKES" class="st6" d="M204.1,53.4l-2.3,8.4l-0.3,0.6l-0.2,0.3l-0.3,0.2l-0.8,0.3h-0.9
	l-1.3-0.4l-0.3-0.2l-0.6-0.6l-0.2-0.7l-0.1-0.3l0.1-0.3l2.3-8.4"/>
<path id="Layer1_10_MEMBER_1_MEMBER_8_1_STROKES" class="st6" d="M198.8,72.4l-0.1-0.5l-0.2-0.5l-0.2-0.2L198,71l-0.2-0.2l-0.5-0.3"
	/>
<path id="Layer1_10_MEMBER_1_MEMBER_9_1_STROKES" class="st6" d="M196.8,70.4l-0.3-0.1h-0.6l-0.3,0.1h-0.3l-0.5,0.2l-0.2,0.2"/>
<path id="Layer1_10_MEMBER_1_MEMBER_10_1_STROKES" class="st6" d="M191.9,70.2l-0.1,0.6l0.1,0.6l0.2,0.6l0.8,1.2l1.2,0.9l0.7,0.3
	l0.9,0.3l1.6,0.2l1.5-0.2l1.3-0.7l0.5-0.5l0.4-0.5l0.2-0.6"/>
<path id="Layer1_10_MEMBER_1_MEMBER_11_1_STROKES" class="st6" d="M200.4,69.8l-0.4-0.5l-0.5-0.5l-1.2-0.7h-0.2l-0.1-0.1h-0.1
	l-0.1-0.1h-0.1l-0.1-0.1h-0.1l-0.1-0.1l-1.6-0.2l-0.8,0.1l-1.4,0.4l-0.6,0.4l-0.9,1l-0.2,0.6l-0.2,0.9l-0.1,0.6l0.1,0.6l0.2,0.6
	l0.3,0.6l1,1l1.3,0.8l1.7,0.5l0.8,0.1l1.5-0.3l0.7-0.3l0.5-0.3l0.5-0.5l0.3-0.5l0.5-1.5l0.1-1.2l-0.2-0.5L200.4,69.8z"/>
<path id="Layer1_10_MEMBER_1_MEMBER_12_1_STROKES" class="st6" d="M195.4,69.5l-0.6,0.3l-0.3,0.2l-0.3,0.6v0.6l0.1,0.3l0.2,0.3
	l0.2,0.3l1.1,0.7l0.9,0.2h0.8l0.8-0.3l0.3-0.2l0.5-0.5l0.1-0.3v-0.6l-0.1-0.2l-0.1-0.3l-0.3-0.5l-0.6-0.4l-0.3-0.2h-0.1l-0.1-0.1
	h-0.1l-0.1-0.1h-0.1l-0.1-0.1l-0.9-0.1L195.4,69.5z"/>
<path id="Layer1_10_MEMBER_1_MEMBER_13_1_STROKES" class="st6" d="M201.8,43.7l-1.2,0.4l-0.5,0.3l-0.4,0.4l-0.3,0.5l-0.2,0.5
	l-0.1,0.6l0.1,0.5l0.5,1l0.3,0.5l1,0.8l0.6,0.3l1.4,0.4l1.4-0.1l0.6-0.1l1.1-0.6l0.4-0.4l0.3-0.5l0.2-0.5l0.1-1l-0.1-0.5l-0.5-0.9
	l-0.8-0.8l-1.3-0.7h-0.1l-0.1-0.1h-0.1l-0.1-0.1h-0.2l-0.1-0.1l-0.7-0.1L201.8,43.7z"/>
<path id="Layer1_10_MEMBER_1_MEMBER_14_1_STROKES" class="st6" d="M199.9,50l1.6-0.3l1,0.2l1,0.5l0.9,0.8"/>
<path id="Layer1_10_MEMBER_1_MEMBER_15_1_STROKES" class="st6" d="M207.9,48.5l-0.3,0.1l-0.5,0.2l-1,0.6l-0.9,0.8l-0.3,0.4l-0.2,0.3
	"/>
<path id="Layer1_10_MEMBER_1_MEMBER_16_1_STROKES" class="st6" d="M198.1,46l0.3,0.2l0.6,0.9l0.5,1.1l0.3,1.1l0.1,0.4l-0.1,0.3"/>
<path id="Layer1_10_MEMBER_1_MEMBER_17_1_STROKES" class="st6" d="M199.8,50l-0.5,2.3"/>
<path id="Layer1_10_MEMBER_1_MEMBER_18_1_STROKES" class="st6" d="M204.4,51.2l-0.6,2.2"/>
<path id="Layer1_10_MEMBER_1_MEMBER_19_1_STROKES" class="st6" d="M201.8,43.4l-0.8,0.3l-2.2,1.6l-0.7,0.7l-0.6,2.2v0.1l0.2,0.4
	l0.1,0.5l0.3,1l0.9,1.8l0.3,0.3l0.4,0.2l0.5,0.1l0.5,0.2l3.1,0.6l0.4-0.2l1.3-0.8l0.8-0.7l0.5-0.3l0.6-0.7h0.1l0.6-2.2l-1.2-2.9
	l-0.5-0.8l-0.3-0.3l-0.6-0.3l-1-0.3l-2.1-0.4H201.8z"/>
<path id="Layer1_10_MEMBER_1_MEMBER_20_1_STROKES" class="st6" d="M190.1,196.2l0.6-0.4l0.2-0.2l0.2-0.2l0.2-0.3l0.2-0.5l0.1-0.2
	v-0.3"/>
<path id="Layer1_10_MEMBER_1_MEMBER_21_1_STROKES" class="st6" d="M180.5,195.8l0.5,0.5l0.2,0.2l0.3,0.1"/>
<path id="Layer1_10_MEMBER_1_MEMBER_22_1_STROKES" class="st6" d="M164.3,216.5l17.6-2.7h0.9l0.9,0.1l1.1,0.3l0.6,0.3"/>
<path id="Layer1_10_MEMBER_1_MEMBER_23_1_STROKES" class="st6" d="M183.4,213.6l-1.3-18.5v-0.3l0.2-0.3l0.3-0.3l0.9-0.5l0.6-0.2
	l1.3-0.3h2.1l1.2,0.3l0.9,0.4l0.3,0.3l0.2,0.3l0.1,0.3l1.5,22v0.2l-0.1,0.9l-0.5,1.4l-0.5,0.7l-0.8,0.7l-1,0.5l-1.3,0.4l-21.8,2.8
	l-1.1-0.6l-0.4-0.4l-0.5-0.3l-0.5-1.1l-0.1-0.6v-0.4l0.1-0.2l0.2-0.6l0.6-0.6l0.5-0.3l0.1-0.1h0.1l0.7-0.7l0.1-0.2l0.1-0.3v-0.3
	l-0.1-0.1v-0.2l-0.1-0.3l-0.3-0.3h-0.2l-0.3-0.1v0.1h-0.1l-0.2,0.1l-0.2,0.1l-0.2,0.1l-0.3,0.3l-0.1,0.3l-0.1,0.3l0.1,0.1v0.1
	l0.1,0.2l0.1,0.4l0.3,0.5"/>
<path id="Layer1_10_MEMBER_1_MEMBER_24_1_STROKES" class="st6" d="M180.3,195.2l0.1-0.5l0.2-0.4l0.4-0.5l1.2-0.7l1.7-0.6l2-0.2
	l2.9,0.2l1.6,0.5l1,0.7l0.3,0.5l0.1,0.5"/>
<path id="Layer1_10_MEMBER_1_MEMBER_25_1_STROKES" class="st6" d="M182.6,191.8l1.3,0.4l0.8,0.1l1.4-0.1l2.2-0.5l0.7-0.3"/>
<path id="Layer1_10_MEMBER_1_MEMBER_26_1_STROKES" class="st6" d="M192.9,194.1l-0.5-0.1l-1.1-0.5l-1.2-0.8l-0.8-0.8l-0.2-0.3"/>
<path id="Layer1_10_MEMBER_1_MEMBER_27_1_STROKES" class="st6" d="M179,195l0.5-0.2l0.5-0.3l1.5-1.2l0.8-0.9l0.2-0.3l0.1-0.3"/>
<path id="Layer1_10_MEMBER_1_MEMBER_28_1_STROKES" class="st6" d="M182.5,191.8l-0.3-5.2"/>
<path id="Layer1_10_MEMBER_1_MEMBER_29_1_STROKES" class="st6" d="M189,191.4l-0.3-5.1"/>
<path id="Layer1_10_MEMBER_1_MEMBER_30_1_STROKES" class="st6" d="M182.1,197.1l-1.2-0.7l-1.9-1.5l-0.3-5.1v-0.1l0.6-0.7l0.3-0.4
	l1.3-1.2l0.9-0.6l0.5-0.2l1.3-0.2l5.1-0.2l0.5,0.2l1.9,1.2l1.5,1.3"/>
<path id="Layer1_10_MEMBER_1_MEMBER_31_1_STROKES" class="st6" d="M192.6,189l0.3,5.1l-0.8,0.8l-2,1.6"/>
<path id="Layer1_10_MEMBER_1_MEMBER_32_1_STROKES" class="st6" d="M100.7,75.7l-0.1,13.4l0.4,2.2l0.3,1l0.6,0.9l0.8,0.7l1,0.5
	l1.2,0.1"/>
<path id="Layer1_10_MEMBER_1_MEMBER_33_1_STROKES" class="st6" d="M103.2,74.9l-0.4-0.1l-0.1-0.1l-0.9,0.1l-0.6,0.3l-0.2,0.1
	l-0.1,0.2l-0.1,0.2l0.1,0.3l0.3,0.3l0.6,0.1h0.5l0.2-0.1h0.4l0.3-0.1l0.2-0.1l0.3-0.3l0.1-0.1l0-0.2l-0.2-0.2l-0.2-0.2L103.2,74.9z
	 M104,75.8L104,75.8l0.1-0.4l0.2-0.3l0.2-0.2l0.2-0.2l0.3-0.2l0.2-0.1l0.1-0.1l0.2-0.1h0.9l0.6,0.2l0.8,0.5l0.2,0.2l0.3,0.4l0.1,0.2
	v8.9l0.1,0.3l0.1,0.4l0.2,0.4l0.3,0.4l0.3,0.3l0.3,0.2l0.6,0.1l10.4-0.2"/>
<path id="Layer1_10_MEMBER_1_MEMBER_34_1_STROKES" class="st6" d="M120.6,94.6l-15.6-0.2"/>
<path id="Layer1_10_MEMBER_1_MEMBER_35_1_STROKES" class="st6" d="M120.8,94.8h10"/>
<path id="Layer1_10_MEMBER_1_MEMBER_36_1_STROKES" class="st6" d="M120.8,86.7h10"/>
<path id="Layer1_10_MEMBER_1_MEMBER_37_1_STROKES" class="st6" d="M121.7,84.3h8l0.2,0.1l0.2,0.1l0.2,0.2l0.2,0.2l0.1,0.3V96
	l-0.1,0.3l-0.2,0.2l-0.2,0.2l-0.7,0.2h-7.6l-0.2-0.1l-0.5-0.1l-0.2-0.2l-0.2-0.2l-0.1-0.3l-0.1-0.3V85.6l0.1-0.4l0.1-0.3l0.2-0.2
	l0.2-0.2l0.3-0.1L121.7,84.3z"/>
<path id="Layer1_10_MEMBER_1_MEMBER_38_1_STROKES" class="st7" d="M138.5,95.6l0.2-0.6l0.2-1.2l0.2-4.4l-0.3-3.1l-0.3-1.2"/>
<path id="Layer1_10_MEMBER_1_MEMBER_39_1_STROKES" class="st7" d="M140.1,95.6l0.1-0.3l0.2-0.3l0.4-2.7v-3.7l-0.2-1.6l-0.2-1.2
	l-0.2-0.4"/>
<path id="Layer1_10_MEMBER_1_MEMBER_40_1_STROKES" class="st7" d="M141.6,95.6l0.3-0.6l0.4-4.6l-0.4-4.5l-0.3-0.7"/>
<path id="Layer1_10_MEMBER_1_MEMBER_41_1_STROKES" class="st7" d="M143.1,85.7h1.7L145,86l0.2,0.3l0.3,2.5v3.3l-0.1,1.4l-0.2,1
	l-0.3,0.6h-1.5"/>
<path id="Layer1_10_MEMBER_1_MEMBER_42_1_STROKES" class="st7" d="M143,95.6l0.2-0.6l0.4-2.8v-3.6l-0.3-2.2l-0.3-1.2"/>
<path id="Layer1_10_MEMBER_1_MEMBER_43_1_STROKES" class="st7" d="M137.7,94.2l0.1-0.3l0.2-0.9l0.1-1.8l-0.1-3.3l-0.2-0.9l-0.1-0.3"
	/>
<path id="Layer1_10_MEMBER_1_MEMBER_44_1_STROKES" class="st7" d="M142.9,85.1h-5.1l-0.1,0.1l-0.2,0.3l-0.3,1.6l-0.1,5.2l0.1,1.6
	l0.2,1.2l0.1,0.3l0.2,0.3l0.1,0.1h5.1"/>
<path id="Layer1_10_MEMBER_1_MEMBER_45_1_STROKES" class="st7" d="M145.7,86.5l3.6-0.1"/>
<path id="Layer1_10_MEMBER_1_MEMBER_46_1_STROKES" class="st7" d="M146.1,94.1l3.3-0.1"/>
<path id="Layer1_10_MEMBER_1_MEMBER_47_1_STROKES" class="st7" d="M145,82.8l0.3,2.5l0.2,0.6l0.1,0.6l0.3,6.2l0.2,1.4v0.1l-0.5,1.3
	l-0.1,0.5v0.6l-0.1,0.6l0.1,0.6"/>
<path id="Layer1_10_MEMBER_1_MEMBER_48_1_STROKES" class="st7" d="M144.4,95l0.8,2.1l0.3,0.7l0.1,0.1l3.1,0.2l0.2-0.6l0.3-1.3
	l0.2-0.5v-0.5l0.1-0.4l-0.2-8.2l-0.3-1.8l-0.4-1.1l-0.1-0.5l-0.2-0.3l-0.1-0.2v-0.1l-3.2,0.1v0.2l-0.3,0.9l-0.5,1.8"/>
<path id="Layer1_10_MEMBER_1_MEMBER_49_1_STROKES" class="st6" d="M278,100.9l49.4,0.1"/>
<path id="Layer1_10_MEMBER_1_MEMBER_50_1_STROKES" class="st6" d="M278,114.8h49.3l0.2-0.1l0.8-0.5l0.5-0.4l0.4-0.6l0.4-0.9l0.2-1
	l0.1-1.4l-0.1-0.2l-0.1-0.3l-0.1-0.3l-0.5-0.8l-0.3-0.5l-0.9-0.8h-0.1l-0.5-0.2l-0.1-0.1l-0.3-0.1l-0.6-0.7l-0.2-0.4L326,105v-0.8
	l-0.1-0.3v-1l0.2-1.2l0.3-0.4l0.4-0.3l0.6-0.1l0.2,0.1l0.2,0.1l0.2,0.2l0.3,0.3l0.5,1l0.2,0.7l0.1,1l-0.5,1.3l-0.6,0.8l-0.4,0.3
	l-0.3,0.1"/>
<path id="Layer1_10_MEMBER_1_MEMBER_51_1_STROKES" class="st6" d="M277.6,100.3h-18.3"/>
<path id="Layer1_10_MEMBER_1_MEMBER_52_1_STROKES" class="st6" d="M277.6,115.3h-18.3"/>
<path id="Layer1_10_MEMBER_1_MEMBER_53_1_STROKES" class="st6" d="M276.8,96.9l0.4,0.3l0.3,0.5l0.3,0.6l0.1,0.7v18.5l-0.1,0.7
	l-0.3,0.6l-0.3,0.4l-0.8,0.5l-0.8,0.2h-14.1l-0.3-0.1l-0.4-0.1l-0.5-0.2l-0.4-0.3l-0.3-0.4l-0.2-0.6l-0.1-0.7V98.9l0.1-0.7l0.2-0.6
	l0.3-0.5l0.4-0.3l0.9-0.3h0.3l0.3-0.1h13.6l0.2,0.1h0.3L276.8,96.9z"/>
<path id="Layer1_10_MEMBER_1_MEMBER_54_1_STROKES" class="st6" d="M96.1,133.3H73.3"/>
<path id="Layer1_10_MEMBER_1_MEMBER_55_1_STROKES" class="st6" d="M96.1,121.1H73.5l-0.2,0.1l-0.8,0.4l-0.4,0.3l-0.4,0.5l-0.3,0.8
	l-0.2,1l-0.1,1.2l0.1,0.2v0.2l0.3,0.6l0.5,0.8l0.8,0.7H73l0.5,0.3l0.5,0.3l0.3,0.3l0.3,0.9v0.7l0.1,0.3v0.9l-0.1,0.5l-0.2,0.5
	l-0.2,0.4l-0.3,0.3l-0.5,0.1v-0.1l-0.1-0.1l-0.2-0.1l-0.5-0.5l-0.2-0.4l-0.2-0.5l-0.3-1.4l0.1-0.1l0.2-0.8l0.5-0.7l0.3-0.3l0.3-0.2
	l0.3-0.1"/>
<path id="Layer1_10_MEMBER_1_MEMBER_56_1_STROKES" class="st6" d="M96.3,133.8h15.9"/>
<path id="Layer1_10_MEMBER_1_MEMBER_57_1_STROKES" class="st6" d="M96.3,120.7h15.9"/>
<path id="Layer1_10_MEMBER_1_MEMBER_58_1_STROKES" class="st6" d="M112.2,117.7l0.2,0.5l0.1,0.6v16.2l-0.1,0.6l-0.2,0.5l-0.3,0.4
	l-0.8,0.4l-0.9,0.2H98.4l-0.5-0.1l-0.8-0.3l-0.3-0.2l-0.3-0.4l-0.2-0.5l-0.1-0.6v-16.2l0.1-0.6l0.2-0.5l0.7-0.6l0.4-0.1l0.3-0.2
	h12.9l0.3,0.2l0.3,0.1L112.2,117.7z"/>
<path id="Layer1_10_MEMBER_1_MEMBER_59_1_STROKES" class="st7" d="M128.5,135.9l0.3-0.1l0.2-0.4l0.2-0.7l0.4-2l0.3-4.3l-0.3-7.7
	l-0.4-2.1l-0.2-0.7l-0.2-0.4l-0.3-0.1"/>
<path id="Layer1_10_MEMBER_1_MEMBER_60_1_STROKES" class="st7" d="M130.4,135.8l0.2-0.4l0.5-1.6l0.4-3.9v-6.5l-0.4-3.9l-0.5-1.6
	l-0.2-0.4"/>
<path id="Layer1_10_MEMBER_1_MEMBER_61_1_STROKES" class="st7" d="M132,135.8l0.3-0.4l0.5-1.6l0.4-3.9v-6.5l-0.4-3.9l-0.5-1.6
	l-0.3-0.4"/>
<path id="Layer1_10_MEMBER_1_MEMBER_62_1_STROKES" class="st7" d="M133.6,135.8l0.3-0.4l0.2-0.7l0.7-9.7l-0.5-5.5l-0.2-0.9l-0.2-0.7
	l-0.3-0.4"/>
<path id="Layer1_10_MEMBER_1_MEMBER_63_1_STROKES" class="st7" d="M135,135.9l0.3-0.1l0.2-0.4l0.2-0.7l0.4-2v-12l-0.4-2.1l-0.2-0.7
	l-0.2-0.4l-0.3-0.1"/>
<path id="Layer1_10_MEMBER_1_MEMBER_64_1_STROKES" class="st7" d="M137.1,118.3h2.9l0.2,0.1l0.4,1l0.5,3l0.2,2.7l-0.2,5.8l-0.5,3
	l-0.4,1l-0.2,0.1h-2.5"/>
<path id="Layer1_10_MEMBER_1_MEMBER_65_1_STROKES" class="st7" d="M136.6,135.9l0.3-0.1l0.5-1.1l0.7-9.7l-0.5-5.5l-0.2-0.9l-0.5-1.1
	l-0.3-0.1"/>
<path id="Layer1_10_MEMBER_1_MEMBER_66_1_STROKES" class="st7" d="M127.4,120.1l-0.2-0.3l-0.2-0.1l-0.2,0.1l-0.3,0.9l-0.5,6.1
	l0.4,5.4l0.1,0.8l0.2,0.5l0.1,0.3l0.2,0.1l0.2-0.1l0.2-0.3l0.3-1.2l0.4-4.1l-0.4-6.7L127.4,120.1z"/>
<path id="Layer1_10_MEMBER_1_MEMBER_67_1_STROKES" class="st7" d="M127.6,135.9l0.3-0.1l0.2-0.4l0.6-2.7l0.3-7.7l-0.5-5.5l-0.4-1.6
	l-0.2-0.4l-0.3-0.1"/>
<path id="Layer1_10_MEMBER_1_MEMBER_68_1_STROKES" class="st7" d="M136.6,117.4h-9.1l-0.2,0.1l-0.3,0.4l-0.2,0.7l-0.2,0.9l-0.4,10.4
	l0.6,4.8l0.2,0.7l0.3,0.4l0.2,0.1h9.1"/>
<path id="Layer1_10_MEMBER_1_MEMBER_69_1_STROKES" class="st7" d="M230.3,117.2h-9l-0.1-0.1l-0.1-0.1l-0.1-0.1l-0.2-0.1l-0.1-0.2
	l-0.2-0.2l-0.2-0.5h-1.3"/>
<path id="Layer1_10_MEMBER_1_MEMBER_70_1_STROKES" class="st7" d="M230.3,98.9h-8.9l-0.1,0.1l-0.3,0.1l-0.2,0.1l-0.7,0.5l-0.2,0.2
	l-0.2,0.3h-0.6"/>
<path id="Layer1_10_MEMBER_1_MEMBER_71_1_STROKES" class="st7" d="M220.1,115.8l0.1-0.3l0.1-0.6l0.4-5.4l-0.4-8.3l-0.1-0.6l-0.1-0.3
	"/>
<path id="Layer1_10_MEMBER_1_MEMBER_72_1_STROKES" class="st7" d="M228.8,117.2l0.2-0.2l0.3-1.1l0.2-2l-0.2-13.7l-0.3-1.1l-0.2-0.2"
	/>
<path id="Layer1_10_MEMBER_1_MEMBER_73_1_STROKES" class="st7" d="M227.1,117.1l0.2-0.4l0.4-2.7l0.1-2.7l-0.1-9l-0.4-2.7l-0.2-0.4"
	/>
<path id="Layer1_10_MEMBER_1_MEMBER_74_1_STROKES" class="st7" d="M225.2,117.1l0.3-1.1l0.2-2l-0.2-13.7l-0.3-1.1"/>
<path id="Layer1_10_MEMBER_1_MEMBER_75_1_STROKES" class="st7" d="M223.4,117.1l0.1-0.4l0.4-2.7v-11.7l-0.4-2.7l-0.1-0.4"/>
<path id="Layer1_10_MEMBER_1_MEMBER_76_1_STROKES" class="st7" d="M221.5,117.1l0.2-0.4l0.2-0.7l0.4-7.8l-0.4-7.9l-0.2-0.7l-0.2-0.4
	"/>
<path id="Layer1_10_MEMBER_1_MEMBER_77_1_STROKES" class="st7" d="M230.5,99.1l-0.2-0.2l1.6,1.4l0.1,0.2l0.1,0.3l0.5,7.3l-0.3,5.9
	l-0.2,1.3l-0.1,0.4l-1.7,1.5l0.2-0.2l0.3-1.1l0.5-7.8l-0.5-7.9L230.5,99.1z"/>
<path id="Layer1_10_MEMBER_1_MEMBER_78_1_STROKES" class="st7" d="M213.5,101.9l5.8-0.2"/>
<path id="Layer1_10_MEMBER_1_MEMBER_79_1_STROKES" class="st7" d="M213.6,115.4l5.5-0.2"/>
<path id="Layer1_10_MEMBER_1_MEMBER_80_1_STROKES" class="st7" d="M212.6,94.5l4-0.1l0.1,0.1l0.2,0.1l0.3,0.3l0.3,0.5l0.8,1.7
	l0.8,2.8l0.2,2l0.1,0.2v0.6l0.2,2.1v5.5l-0.5,5.1l-0.1,0.1l-1,5.4l-0.3,1l-2.7,0.1"/>
<path id="Layer1_10_MEMBER_1_MEMBER_81_1_STROKES" class="st7" d="M197.5,132.2l17.5-10.1"/>
<path id="Layer1_10_MEMBER_1_MEMBER_82_1_STROKES" class="st7" d="M196.2,115.9l17.1-0.4"/>
<path id="Layer1_10_MEMBER_1_MEMBER_83_1_STROKES" class="st7" d="M187.4,54l-20.5,0.6l-2.3,10.1v0.1l-0.1,0.2l-0.1,1.5l0.1,2.5
	l3.2,35.8"/>
<path id="Layer1_10_MEMBER_1_MEMBER_84_1_STROKES" class="st7" d="M215.3,130.8l-17.1,9.6"/>
<path id="Layer1_10_MEMBER_1_MEMBER_85_1_STROKES" class="st7" d="M191.6,89.2l19.6-0.1l0.1,0.1l0.2,0.1l0.4,0.3l0.1,0.2l0.2,0.7
	v0.3l-0.1-0.1l-0.1-0.2v-0.3l-0.1-0.1l3.1,32"/>
<path id="Layer1_10_MEMBER_1_MEMBER_86_1_STROKES" class="st7" d="M192.1,97.6l-2.8-32.1l-20.3,0.1l-0.8,0.2l-0.5,0.2l-0.4,0.3
	l-0.6,1l-0.5,5.4l2.9,30.6"/>
<path id="Layer1_10_MEMBER_1_MEMBER_87_1_STROKES" class="st7" d="M157.6,73.9v-5.5l3.2-14.3l26.1-0.5l0.2,0.1l0.4,0.3l0.2,0.3
	l0.3,0.9l0.7,10.2"/>
<path id="Layer1_10_MEMBER_1_MEMBER_88_1_STROKES" class="st7" d="M160.7,54l1.8,17.7v0.7l-0.2,0.6l-0.2,0.4l-0.6,0.5l-0.3,0.1
	l-11.7,0.8l-1.7,7.4"/>
<path id="Layer1_10_MEMBER_1_MEMBER_89_1_STROKES" class="st7" d="M149.6,74.8l1.7,14.3"/>
<path id="Layer1_10_MEMBER_1_MEMBER_90_1_STROKES" class="st7" d="M147.6,104.9l0.2-1"/>
<path id="Layer1_10_MEMBER_1_MEMBER_91_1_STROKES" class="st7" d="M148.3,102.1l3-13h11.1l0.3,0.1l0.9,0.4l0.6,1.1l0.1,0.8l1,14.4"
	/>
<path id="Layer1_10_MEMBER_1_MEMBER_92_1_STROKES" class="st7" d="M160.6,107.1l-0.3-0.4l-0.2-0.4l-0.7-0.6l-0.9-0.5l-0.6-0.1
	l-6.6-0.1"/>
<path id="Layer1_10_MEMBER_1_MEMBER_93_1_STROKES" class="st7" d="M149.1,104.9h-1.5l-0.1-0.9"/>
<path id="Layer1_10_MEMBER_1_MEMBER_94_1_STROKES" class="st7" d="M147.4,102.1l-0.3-4"/>
<path id="Layer1_10_MEMBER_1_MEMBER_95_1_STROKES" class="st7" d="M163.6,107l-9.6,0.2"/>
<path id="Layer1_10_MEMBER_1_MEMBER_96_1_STROKES" class="st7" d="M151.6,107.2l-4.4,0.1l-0.1,0.2l-0.1,0.2l-0.6,1.6l-0.5,3.2"/>
<path id="Layer1_10_MEMBER_1_MEMBER_97_1_STROKES" class="st7" d="M141.6,119.8l6.2-0.2"/>
<path id="Layer1_10_MEMBER_1_MEMBER_98_1_STROKES" class="st7" d="M142.4,133.2l5.8-0.2"/>
<path id="Layer1_10_MEMBER_1_MEMBER_99_1_STROKES" class="st7" d="M140.4,112.7v0.4l0.1,0.6v0.9l1.2,5.2l0.5,11l0.3,2.4l-0.2,0.4
	l-0.8,2.8l-0.2,3.3"/>
<path id="Layer1_10_MEMBER_1_MEMBER_100_1_STROKES" class="st7" d="M139.3,134.7l0.8,2.4l0.9,1.9l0.2,0.4l0.1,0.3v0.1l5.7,0.3l1.3-7
	l-0.3-13.4l-0.3-2.1l-1.6-5.1l-5.6,0.2v0.1l-0.1,0.2l-0.1,0.4l-0.4,1l-0.9,3.3"/>
<path id="Layer1_10_MEMBER_1_MEMBER_101_1_STROKES" class="st7" d="M188.5,111.3l-0.2,0.8l-0.3,0.7l-0.6,0.6l-0.6,0.5l-1.6,0.8
	l-0.9,0.2l-2-0.1l-1.9-0.6l-0.9-0.5l-1.2-1.3l-0.5-0.7l-0.3-0.8l-0.1-0.8l0.1-0.9"/>
<path id="Layer1_10_MEMBER_1_MEMBER_102_1_STROKES" class="st7" d="M188.7,110.3l-0.2,0.8l-0.4,0.7l-0.6,0.6l-0.6,0.5l-0.8,0.5
	l-0.8,0.3l-0.9,0.2l-2-0.1l-1-0.2l-0.9-0.3l-1.5-1l-0.6-0.6l-0.5-0.8l-0.2-0.8l-0.1-0.8v-0.8"/>
<path id="Layer1_10_MEMBER_1_MEMBER_103_1_STROKES" class="st7" d="M188.5,111.5l0.2-2l-0.1-0.8l-0.2-0.8l-1-1.4l-0.7-0.6l-1.7-0.9
	l-1-0.2l-2-0.1l-1,0.2l-0.8,0.3l-1.4,0.9l-0.6,0.6l-0.4,0.8l-0.2,0.8l-0.2,1.3"/>
<path id="Layer1_10_MEMBER_1_MEMBER_104_1_STROKES" class="st7" d="M158.2,150.5l-0.1,0.4l-0.5,0.7l-0.3,0.3l-0.4,0.2l-0.9,0.2h-1.1
	l-1-0.3l-0.8-0.6l-0.5-0.7l-0.2-0.5l-0.1-0.4l0.1-0.4"/>
<path id="Layer1_10_MEMBER_1_MEMBER_105_1_STROKES" class="st7" d="M152.9,150.6l0.2-0.2l0.3-0.1l0.8-0.2h0.6l0.6,0.1l0.6,0.2
	l0.5,0.3l0.6,0.6"/>
<path id="Layer1_10_MEMBER_1_MEMBER_106_1_STROKES" class="st7" d="M152.4,149.5l0.1-0.4l0.2-0.4l0.2-0.3l0.3-0.3l0.4-0.2l0.9-0.3
	l1,0.1l0.5,0.1l0.9,0.5l0.3,0.3l0.3,0.4l0.3,0.8l0.1,0.4l-0.1,0.5"/>
<path id="Layer1_10_MEMBER_1_MEMBER_107_1_STROKES" class="st7" d="M149.5,155.6l-0.8,2.7"/>
<path id="Layer1_10_MEMBER_1_MEMBER_108_1_STROKES" class="st7" d="M147.8,143.6l0.3,0.3l0.2,0.5l1.2,11.1l12.9,0.1l0.2,0.1h0.2
	l0.5,0.1l0.5,0.2l0.2,0.2l0.1,0.2l-1-11.4L163,145l-0.2-0.5l-0.2-0.3l-0.6-0.7l-0.5-0.3l-0.6-0.2l-0.8-0.1l-13.6-0.1l0.6,0.2
	L147.8,143.6z"/>
<path id="Layer1_10_MEMBER_1_MEMBER_109_1_STROKES" class="st7" d="M171,97.8l4.3,33.8"/>
<path id="Layer1_10_MEMBER_1_MEMBER_110_1_STROKES" class="st7" d="M157.2,125.4l14.5-6.3"/>
<path id="Layer1_10_MEMBER_1_MEMBER_111_1_STROKES" class="st7" d="M156.4,125.4l-0.1-0.2V125l-1.2-14.1l14.7-6.8l1.9,14.9l-1.4,6.7
	l-13.2,0.1l-0.1-0.1H157l-0.2-0.1l-0.1-0.1L156.4,125.4z"/>
<path id="Layer1_10_MEMBER_1_MEMBER_112_1_STROKES" class="st7" d="M149.6,129.5l-3.6,16.2"/>
<path id="Layer1_10_MEMBER_1_MEMBER_113_1_STROKES" class="st7" d="M167.1,143.4l-1.5-12.2l-0.2-0.5l-0.2-0.3l-0.7-0.5l-0.5-0.3
	l-1.4-0.2l-12.9,0.1l-2.4-22.2"/>
<path id="Layer1_10_MEMBER_1_MEMBER_114_1_STROKES" class="st7" d="M170.4,125.8l1.6,17.7"/>
<path id="Layer1_10_MEMBER_1_MEMBER_115_1_STROKES" class="st7" d="M173,160l-9.6-0.1v-0.6l-0.1-0.2l-0.1-0.2l-0.2-0.2l-0.3-0.2
	l-0.4-0.1l-13.6-0.2l-1.2-11.1v-0.1l-0.3-0.6l-0.4-0.5l-0.6-0.2H146V144l-0.3-3l-0.2-0.6"/>
<path id="Layer1_10_MEMBER_1_MEMBER_116_1_STROKES" class="st7" d="M198.5,143.2l-3.4,16.2l-4.4,0.1"/>
<path id="Layer1_10_MEMBER_1_MEMBER_117_1_STROKES" class="st7" d="M198.5,143.2l-2.8-31.1l18-0.2"/>
<path id="Layer1_10_MEMBER_1_MEMBER_118_1_STROKES" class="st7" d="M198.5,143.2L193,143l2.1-9.3l-2.9-36.1L171,97.8l-1.8,6.5"/>
<path id="Layer1_10_MEMBER_1_MEMBER_119_1_STROKES" class="st7" d="M195.1,132.1l-19.1-0.1l-0.5,0.1l-0.3,0.1l-0.3,0.2l-0.6,0.6
	l-0.2,0.4l-2,10h-4.9l-3.7,16.5"/>
<path id="Layer1_10_MEMBER_1_MEMBER_120_1_STROKES" class="st7" d="M184.2,135.5l-0.1-1h1.3l0.1,1l3,0.4l0.9,0.2l1.3,0.8l0.5,0.5
	l0.3,0.5l0.2,0.6"/>
<path id="Layer1_10_MEMBER_1_MEMBER_121_1_STROKES" class="st7" d="M176.4,137.5v-0.7l0.3-0.6l1.2-1.2l1.9-0.9l1.2-0.4l3.9-0.5
	l3.6,0.5l0.9,0.3l0.8,0.5l0.6,0.5l0.4,0.6l0.2,0.6"/>
<path id="Layer1_10_MEMBER_1_MEMBER_122_1_STROKES" class="st7" d="M189.1,138.5l-0.3-0.6l-0.3-0.3l-0.8-0.5l-1.1-0.3l-1.2-0.2v-1.2
	"/>
<path id="Layer1_10_MEMBER_1_MEMBER_123_1_STROKES" class="st7" d="M179,139.4V139l0.2-0.4l0.3-0.4l1-0.7l1.5-0.6l0.8-0.2l0.9-0.1
	l0.3-1.2l-3,0.5l-2.1,0.8l-1.6,1l-0.8,1.2l-0.1,0.6"/>
<path id="Layer1_10_MEMBER_1_MEMBER_124_1_STROKES" class="st7" d="M179.4,138.9l0.2,0.2l0.6,0.2l0.3,0.2l0.3,0.1l0.8,0.2l0.4,0.1
	h0.5l0.1,0.1l2-0.1l0.7-0.1l1.2-0.4l1.1-0.5l0.4-0.2l0.3-0.3l0.3-0.3"/>
<path id="Layer1_10_MEMBER_1_MEMBER_125_1_STROKES" class="st7" d="M179,139.4l0.1,0.4l0.2,0.3l0.2,0.3l0.8,0.5l1.6,0.5l0.7,0.1
	l-0.1-1h1.4l0.1,1.1l1.8-0.3l1.5-0.5l0.6-0.3l0.5-0.4l0.3-0.4l0.2-0.4l0.1-0.5"/>
<path id="Layer1_10_MEMBER_1_MEMBER_126_1_STROKES" class="st7" d="M191.3,136.2l0.2,2.1l-0.1,0.6l-0.3,0.6l-0.5,0.6l-0.7,0.6
	l-0.9,0.5l-2.2,0.8l-2.6,0.4h-0.2l-0.1,0.1h-0.3l0.3-1.1"/>
<path id="Layer1_10_MEMBER_1_MEMBER_127_1_STROKES" class="st7" d="M176.4,137.6l0.1,2l0.4,1l1,0.8l0.6,0.3l2.7,0.6l1.1,0.1l0.2-1.2
	"/>
<path id="Layer1_10_MEMBER_1_MEMBER_128_1_STROKES" class="st7" d="M223.1,161.5h-0.4h-0.1l0.1-0.1l-1-1.2v-0.4l0.2-1.7l0.1-0.2
	l-0.6-0.9l-1-1.3l-0.8-1.1v-0.4l0.2-0.9l0.6-1l0.5-0.5l1.1-0.9l1.3-0.8l1.2-0.4l1-0.2l0.4,0.1l0.6,0.3l0.7,1l0.8,1.2l0.3,0.6h1.4
	l0.7,0.1h0.1l0.9,1.2v0.3l-0.1,0.3 M240.7,182.6h-0.3l-0.6-0.1l-0.5-0.2l-0.1-0.1l-0.2-0.2l-0.1-0.1v-0.1l-15.2-19.5l-0.2-0.1
	l-0.2-0.5v-1l-0.1-0.1l-0.1-0.4l0.1-0.5l0.4-1.1l1.4-1.8l1.3-1.1l2-1l0.6-0.2l1.1-0.1l0.3,0.2l0.3,0.3l0.8-0.1l0.6,0.1l0.5,0.2
	l0.1,0.1l15.2,19.6l0.1,0.1l0.4,0.3l0.2,1l-0.1,0.6l-0.3,0.8l2.3,3.2l0.2,0.3l0.1,0.4l-0.3,0.9l-1,1.5l-1.7,1.4l-1.3,0.6l-1.1,0.3
	h-0.5l-0.5-0.1l-0.3-0.2l-0.2-0.2l-2.9-3.9l-0.1-0.3V181l0.1-0.4l0.2-0.5l0.6-1l1.6-1.4l1.3-0.8l1.2-0.5l1-0.1l0.8,0.2l0.2,0.2
	l0.6,0.8 M231.4,154l-0.4,0.2l-2.1,0.3l-1.3-0.2l-0.2-0.1l-0.3,0.5l-0.8,1l-0.5,0.5l-0.9,0.8l-1.7,0.8l0.1,0.2l-0.1,1.8l-0.2,0.5
	l-0.1,0.5l-0.2,0.5l-0.2,0.3l0.1,0.1 M247.8,174.8l-0.3-0.1l-1.3-0.1l-1.6,0.4l-1.7,0.9l-0.9,0.6l-1.6,1.3l-1.1,1.4l-0.6,1.3
	l-0.1,0.6l0.1,0.5l0.2,0.4l0.1,0.2 M250.3,180.7l-0.2-0.2l-0.3-0.2l-0.5-0.1h-0.5l-1.7,0.6l-1.3,0.8l-0.6,0.5l-1,1l-0.3,0.5
	l-0.3,0.5l-0.2,0.5l-0.1,0.4l0.1,0.4l0.1,0.3 M259.8,190.1l-0.5-0.2l-1.6-0.1l-0.9,0.2l-2,0.8l-1,0.5l-2.9,2.2l-0.8,0.9l-1,1.6
	l-0.3,0.8l-0.1,0.7l0.1,0.6l0.2,0.6l0.9,1.1v-0.5l0.1-0.7l0.2-0.8l0.5-0.8l1.3-1.7l2.9-2.2l2.1-1l1.8-0.5l0.9-0.1l1.3,0.3l0.1,0.1
	l-0.9-1.6L259.8,190.1z M259.7,193.5l-0.5-0.2l-1.2-0.1l-1.3,0.3l-1.4,0.8l-2.1,1.6l-0.9,1.2l-0.3,0.6l-0.2,0.6l-0.1,0.5l0.1,0.5
	l0.1,0.4 M260.6,194.3l0.6,0.8l0.1-0.2l0.3-0.8l0.1-0.6l-0.3-1.2L261,192 M254,204.6l0.5,0.3l0.8,0.1l0.3-0.1l0.3-0.2l1-0.8l2.5-1.9
	l1.4-1.4l0.4-0.8l0.4-1.7v-0.9l-0.5-1.8l-0.2-0.3 M251.2,199.3l-0.1,0.3l-0.1,0.3v1l0.1,0.4l0.5,1.2l0.2,0.3l0.2,0.4l0.9,1l0.6,0.6
	l1,0.6l0.7,0.2h0.6l0.3-0.1l0.5-0.2l0.2-0.2l0.3-0.8l0.1-0.3V204 M250.2,200.5l-0.1-0.3l-0.1,0.1l-0.2,0.3l-0.1,0.5l0.1,1.1l0.1,0.4
	v0.2l0.2,0.6l0.8,1.2l0.5,0.6l0.1,0.1l0.2,0.2l0.5,0.5l1.2,0.7h0.1l0.5,0.1h0.2h0.2l0.5-0.1l0.3-0.2 M251.7,199.9l-0.1,0.8l0.1,0.5
	 M250,199.8L250,199.8l0.1,0.3l0.3-0.3 M249.3,200.6l-0.1,0.1l-0.1,0.3v0.5l0.1,0.2l0.1,0.2l0.1,0.1l0.1,0.5v0.1l0.4-0.2
	 M238.9,205.2l3.9,0.1l2.8-0.5l1.9-0.7l1.1-0.6l0.1-0.2l0.1-0.1l0.2-0.2l0.5-0.3 M248.6,203.5v0.8l0.1,0.2v0.1v0.1l0.2,0.3l0.1,0.2
	l0.5,0.6l0.1,0.1l-1,1.4l-1.6,1.6l-2.1,1.4l-0.5,0.2 M249,205.2l-0.2,0.3l-1,1l-1.8,1.3l-1.2,0.7l-1.5,0.6 M241.9,208.1l0.6-0.1
	l2.7-0.8l2-0.9l1.3-0.9l0.5-0.5 M245.2,211.1l1.5-1l2.1-1.8l1-1.1l-0.2-0.5v-0.2l0.2-0.5l0.1-0.2l0.2-0.1l0.1-0.1h0.1l0.1-0.1h0.1
	l0.1-0.1h0.1l0.1-0.1h0.2l0.1,0.1h0.1l0.1,0.1l0.4-0.5 M250.9,205.5L250.9,205.5l0.1,0.1v0.5 M250.2,207.4L250.2,207.4L250.2,207.4
	l0.2,0.1h0.2l0.2-0.1l0.2-0.2l0.2-0.2l0.1-0.3l0.1-0.3V206l-0.1-0.2l-0.1-0.1l-0.2-0.1 M243.3,206.9l-2.6,0.5 M244.8,206.4l-1.5,0.5
	 M245.5,206.1l-0.7,0.3 M246.6,205.5l-1.2,0.6 M246.6,205.5l-1,0.3l-2.4,0.4l-3.9-0.1 M243.8,209.9l1.7-0.7l2.5-1.6l0.6-0.3
	 M254,206.6l-0.8,0.6l-0.1,0.2l-0.1,0.2l-0.1,0.2l-0.1,0.1v0.2l0.4,0.2v-0.1l0.1-0.1l0.2-0.5 M252.1,205.8l0.1,0.9l-0.1,0.2
	 M252.1,206.7l-0.5-0.2l-0.1,0.2l-0.5,0.7l-0.2,0.2l-0.2,0.1l-0.1,0.1l-0.2,0.1h-0.4l0.5,0.2l0.1,0.3l2.5-1.8 M253.2,208.2
	L253.2,208.2l-0.3,0.2l-0.1,0.1h-0.3l-0.3-0.1l-0.1,0.1h-0.2l-0.1,0.1h-0.2l-0.2-0.1l-0.3,0.2l-0.6-0.3 M252.8,208.1h-0.1l-0.3,0.2
	l-0.1,0.1 M252.8,207.9l-0.1,0.2 M253.2,207.2l-1.6,1.3 M250.2,206.5l-0.1-0.2l0.1-0.1h0l0.3-0.3v0.2l-0.1,0.1l-0.1,0.1
	 M250.1,207.8l-0.1-0.1l-0.1-0.3l-0.1-0.1l-0.1-0.1v-0.1 M250,207.3l0.1,0.1L250,207.3L250,207.3z M251.6,205.3l0.1,1.2
	 M248.7,204.6l-2.1,0.9 M210.8,126.8l0.1,0.1 M210.8,126.8l-0.2-0.1h-0.4l-0.2,0.8l-0.9,1.3l-2.1,1.9l-0.9,0.6l-2.4,1.1l-1.4,0.1
	l-0.5-0.1l-0.1,0.6l0.1,0.2l0.1,0.1l0.5,0.2l0.6,0.1l1.3-0.2l1.6-0.6l0.8-0.5l1.7-1.2l1.3-1.3l0.8-1.3l0.2-0.6l0.1-0.6l-0.1-0.5
	 M210.3,126.7l-0.2-0.1h-0.7l-1.6,0.5l-1.7,0.8l-2.5,1.9l-1.1,1.4l-0.4,0.7l-0.2,0.6 M201.9,133.4v0.3l0.2,0.5l0.3,0.3l0.5,0.2
	l0.6,0.1l1.4-0.2l1.7-0.6l1.7-1.1l1.5-1.3l0.6-0.7l0.9-1.3l0.3-1.3l-0.1-0.5l-0.1-0.5l-0.4-0.3l-0.3-0.1 M227.2,151l-0.6-0.4h-1
	l-1.7,0.5l-1.3,0.8l-1.1,1l-0.8,1l-0.5,0.9l-0.1,0.5l0.1,0.3l0.1,0.2 M221.3,157.1l-0.1-0.3l-0.1-0.4l0.3-0.9l0.2-0.5l0.4-0.6
	l0.5-0.4l0.5-0.5l0.6-0.5l1.8-1l0.6-0.2l1-0.1l0.4,0.1l0.4,0.2l0.2,0.2 M221.9,157.9l0.2-0.7l0.3-0.7l0.1-0.2l0.4-0.3l0.4-0.5
	l3.2-2.5l0.1-0.1l0.3-0.1l1-0.1h0.4 M230.7,155l-0.7,0.1l-0.8,0.3l-1.7,0.8l-2.4,1.9l-1.1,1.4l-0.6,1.3v0.1 M227.4,154.2l-0.9-1.2
	 M187.1,144.7l0.4,3.2l0.2,0.5l0.5,0.7l2.8,2.4l3.5,1.7l1,0.1v-0.1l-0.3-3.1V150l-0.6-0.6l-2.5-2l-3.1-1.8L187.1,144.7z
	 M187.1,144.7l-12.5,0.9l-1,0.2l0.4,3.2l4.6,0.8h1.6l3-0.4l2.9-0.9l1.4-0.6 M172.8,159.7l-1.1-0.5 M172.8,159.7l0.2,0.1l-0.3-3.3
	l0.1-0.7l0.3-0.7l0.6-0.7l0.8-0.6l2.1-1l2.8-0.8l3.1-0.2l2.8,0.2l2.3,0.6l0.9,0.5l0.6,0.5l0.5,0.6l0.2,0.7l0.3,3.2l0.7-0.4l1-0.8
	l0.8-0.9l0.3-0.5l0.2-0.9v-0.5l-0.3-1l-0.6-0.9l-0.9-0.8l-1.3-0.7l-3.2-0.9l-1.8-0.2h-4.2l-2.1,0.3l-3.8,1l-3,1.4l-1.1,0.9l-0.8,0.9
	l-0.5,1l-0.1,1l0.2,1l0.6,0.8l0.5,0.4l1,0.7 M190.1,158.2v0.2l0.8-0.5l3.3-3l1.4-1.6 M189.8,160.8l-0.7-0.6l-0.9-0.5l-2.3-0.6
	l-2.8-0.2l-3.1,0.2l-1.4,0.3l-2.4,0.9l-1,0.6l-0.8,0.6l-0.6,0.7l-0.3,0.6l-0.1,0.8l0.1,0.5l0.5-0.6l2-2l1.2-0.9l0.6-0.2l2.3-0.4
	l5.8-0.3l0.6,0.2l1.8,1l0.5,0.5l0.6,0.3l1.1,1l0.1-0.6l-0.2-0.7L189.8,160.8z M190.4,162.7l0.3,0.2l0.2,2.3v0.1l-0.9,1l-0.4,0.3
	l-0.4,0.5l-0.5,0.3l-0.4,0.4l-0.9,0.8l0.1,0.1l0.1,0.6l0.1,1.3l0.1,1.3l0.1,1.3l0.1,1.3v0.4l-0.5,0.8l-1.1,0.7l-1.4,0.5L184,177
	l-1.7,0.2l-1.7-0.1l-1.3-0.4l-0.6-0.3l-0.4-0.3l-0.2-0.3l-0.1-0.4l-0.1-1.3l-0.1-1.3l-0.1-1.3l-0.1-1.3l-0.1-0.7l0.1-0.3l-0.2-0.1
	l-0.4-0.1l-0.1-0.1l-0.5-0.2l-2.8-2v-0.1l-0.2-2.3l0.2-0.3 M190.1,158.4l0.3,3.7 M190.9,165.3l-0.6-0.1l-0.7-0.2l-0.7-0.3l-2-1.4
	l-0.8-0.9L186,162l-1.7,0.8l-1.8,0.4l-0.9,0.1l-1.8-0.1l-1.8-0.4l-0.1,0.3l-0.6,0.9l-1.1,1.2l-1.3,1l-1.3,0.6 M186,162l-0.2-2.3
	 M187,167.5l0.2-0.5v-0.4l-0.1-0.3l-0.3-0.3l-0.4-0.3l-0.5-0.3l-0.6-0.2l-1.5-0.2H182l-1.7,0.3l-1.4,0.5l-1,0.7l-0.3,0.4l-0.2,0.4
	l-0.1,0.4l0.1,0.1v0.2l0.1,0.2 M177.5,169.2v-0.1l0.2-0.4l0.3-0.3l0.5-0.4l0.5-0.3l1.4-0.5l1.8-0.3l1.7-0.1l2.1,0.5l0.5,0.3l0.4,0.3
	l0.2,0.3l0.1,0.2l0.9-0.5l0.8-0.8l0.3-0.9v-0.2l-0.2-0.6l-0.9-1l-0.8-0.4l-0.9-0.3l-2.2-0.4h-2.4l-2.5,0.5l-2,0.8l-1.6,1l-0.5,0.5
	l-0.3,0.6l-0.1,0.6l0.2,0.6l0.3,0.5l0.9,0.7l0.2,0.1l0.5,0.2 M187.6,170.6l-0.1-0.4l-0.3-0.3l-0.4-0.3l-0.5-0.3l-0.6-0.2l-0.8-0.2
	l-1.7-0.1l-1.8,0.2l-1.6,0.4l-1.3,0.6l-0.8,0.8l-0.2,0.4l-0.1,0.5 M187.5,169.3l-0.1-0.4l-0.3-0.3l-0.4-0.3l-0.5-0.3l-0.6-0.2
	l-0.8-0.2l-1.7-0.1l-0.9,0.1l-1.7,0.3l-1.4,0.5l-1,0.7l-0.3,0.4l-0.2,0.4l-0.1,0.4 M187.3,168.4l0.1,0.2 M187.7,171.8l-0.4-0.8
	l-0.9-0.6l-1.3-0.4l-1.7-0.1l-1.8,0.2l-1.6,0.4l-1.3,0.6l-0.8,0.8l-0.2,0.5l-0.1,0.4 M187.9,174.4l-0.1-0.4l-0.2-0.3l-0.4-0.3
	l-1.2-0.5l-2.4-0.3l-2.7,0.3l-1.4,0.6l-1,0.7l-0.3,0.4l-0.2,0.4v0.4 M187.8,173.1l-0.1-0.4l-0.2-0.3L187,172l-0.5-0.3l-0.6-0.2
	l-2.4-0.3l-1.8,0.2l-1.6,0.4l-1.2,0.6l-0.8,0.8l-0.2,0.5v0.4 M185.6,174.2l-1.5-0.3h-1.2l-1.3,0.2l-1,0.3l-0.8,0.5l-0.3,0.5v0.3
	l0.1,0.3l0.2,0.2l1.1,0.6l0.5,0.1l1.8,0.1l1.7-0.3l0.9-0.5l0.3-0.2l0.4-0.6v-0.3l-0.1-0.3l-0.2-0.2L185.6,174.2z M222.4,156.6
	l0.9,1.1 M174.1,149.1l-0.1,0.5l-2,2.5l-3.2,2.6l-1,0.6l-1.2,0.3v0.1l2.4,1.9l3,1.8l0.8,0.3 M173.7,145.8l-1,0.6l-2.8,2.1l-3,3.3
	l-0.5,0.8l-0.1,0.1l0.2,3 M177.9,162.7l-0.2-2.3 M173.3,163.6l-0.3-3.8"/>
<path id="Layer1_10_MEMBER_1_MEMBER_128_2_STROKES" class="st6" d="M198,54.6l-0.1,0.3v0.3l0.3,0.8l0.5,0.6l1.2,0.6l0.5,0.1h0.5
	l0.9-0.1l0.3-0.1l0.3-0.2l0.2-0.2l0.3-0.6 M197.7,55.7l-0.1,0.4v0.3l0.2,0.3l0.1,0.3l0.3,0.3l0.6,0.5l0.5,0.2l0.9,0.2h0.9l0.4-0.1
	l0.3-0.2l0.3-0.2l0.5-0.5l0.1-0.3"/>
<path id="Layer1_10_MEMBER_1_MEMBER_129_1_STROKES" class="st8" d="M215.4,121.9v9"/>
<path id="Layer1_10_MEMBER_1_MEMBER_130_1_STROKES" class="st7" d="M74,68.7l-0.1,0.7l-0.6,1.5l-1,1.6l-2.1,2.3L68.1,76l-1.3,0.2
	l-0.5-0.1L66.1,76l17.8,16.8l0.6,0.4l0.3,0.1l0.2,0l1.2-0.2l1.4-0.8l0.8-0.6l0.7-0.6l1.4-1.6l0.6-0.8l0.8-1.6l0.2-0.7v0l0.1-0.5
	l0-0.1v-0.6l-0.1-0.3L73.8,67.7l0.1,0.4L74,68.7z M71.2,67.2l0.7,0.6l0.2,0.3l0.1,0.3v0.9l-0.8,1.7l-0.9,1.2l-1,1l-1,0.8l-1,0.3
	h-0.9l-0.3-0.2L62.7,71l-0.2-0.2l-0.1-0.4v-0.5l0.2-1l0.2-0.6l0.3-0.6l0.9-1.2l1-1l1.6-0.9l0.9-0.2l0.4,0.1l0.2,0.2L71.2,67.2z
	 M71.2,67.2L72,67l0.6-0.1l0.5,0.1l0.5,0.2l0.3,0.5 M92.1,86.6l0.2,0.3l0.1,0.4l-0.1,1l-0.6,1.2l-0.4,0.6l-1,1.2l0.6-0.5l1.6-0.9
	l-0.1-0.2l-0.1-0.3V89l0.3-2.1l0.2-0.5l0.2-0.3l0,0L92.2,86 M93,86.1L93,86.1L93,86.1l1.1,0.9v1.7l-0.1,0.4l0.5,0.4l1.1,1l1.1,1
	l0.1,0.3l-0.1,1l-0.4,1.1l-0.8,1.2l-1,1.2l-1,0.9l-1,0.5l-0.5,0.2h-0.4l-0.4-0.1L91,97.6L90.4,97l-0.2-0.2l-1-0.9l-0.9-0.8l-0.2,0
	h-0.5l-0.5,0.1h-0.8l-0.4-0.1l-1-1.1l-0.1,0V94v-0.1l0.1-0.5 M49.8,62l-0.6,0.1h-0.6L48.2,62L47.9,62l-0.8-0.3L46,60.9l-0.7-0.6
	l-0.5-0.6l-0.6-1L44,57.9L44,57.6v-0.3l0.1-0.5l0.1-0.3l0.1-0.2l0.5-0.3l0.2-0.1l0.3-0.1l0.4,0.1l2.9-3.2l0.8-0.5l0.8-0.3l1.8-0.2
	l0.9,0.1l0.9,0.2l0.9,0.5l0.4,0.3l1-0.4l0.7-0.1l1.2,0.3l0.3,0.4l0,0l1.4,0.9l0.3,0.4l0.2,0.6v0.8l-0.1,0.9l-0.6,1.8L58,60.2
	l-2.5,2.7L53.7,64l-1.6,0.6l-1.3-0.1l-0.6-0.3l-1.1-1h0l-0.2-0.1l-0.1,0.1l-0.3,0.1l-0.1,0.4l-0.2,0.1l-0.1,0.1L48,64h-0.6l-0.1-0.1
	l-0.2-0.1L47,63.7H47l-0.1-0.1l-0.1-0.1l-0.4-0.1 M55,52.6l0.4,0.3l0.5,0.5l0.2,0.3l0.1,0.1l0.1,0.1l0.1,0.2l0.1,0.1l0.1,0.4
	l0.1,0.5l-0.6,2l-0.5,0.6l-0.4,0.8l-1.8,1.9l-0.7,0.5l-1.2,0.6l-0.6,0.2h-0.5l-0.4-0.1l-0.4-0.2 M58.1,53l0.2,0.6l0.1,0.7l-0.1,0.9
	L57.5,57l-1.2,1.9l-1.7,1.8l-1.8,1.5l-1.7,0.9l-0.8,0.2l-0.7,0.1l-0.5-0.1L49,63.1h-0.1l-0.3-0.2 M40.7,60.6l0.1-0.1v-0.2l0.1-0.2
	l-0.1-0.3v-0.2l0.1-0.1l0.1-0.1l0.1-0.1l0.1-0.1l0.1-0.1l0.3-0.2l0.2-0.1l0.8,0.2l0.4-0.5v-0.3l0.1-0.4l0.2-0.3 M44.8,58.6l-0.2-0.9
	l0.1-0.8l0.2-0.3l0.8-0.9 M42.4,59.1l-0.2,0.3L40.6,61l0.2,0.7l2.1-2.3l0-0.1l-0.1-0.5v-0.2 M42.2,59.3l-0.4,0.1l-0.2,0.1l-0.2,0.2
	l-0.1,0.1L41,60L40.9,60 M40.8,61.7l0.3,0.1l0.1,0.3V62l0.1-0.1l0.1-0.2l0.5-0.5l0.2-0.1l0.2-0.1l0.2-0.1l0.2-0.1l-0.1-0.5l-0.5,0.1
	l-0.2,0.1 M41.2,62.1l0.1,0.2l0.1,0.1l0.3,0.1v-0.1l-0.1-0.2v-0.3l0.1-0.2l0.5-0.3l0.3-0.1h0.6l0.2,0.1l0.1,0.1l0.1,0.3l0.4-0.4
	l-0.1-0.2l-1.2-0.3 M43.9,61.1l-0.2-0.2l-0.2-0.3l-0.9-0.2 M43.5,60.6l-0.1-0.2l-0.4-1 M41.7,62.5L41.7,62.5l0.1,0.1h0.1l0.1,0
	l0.1,0.1l0.2,0.1h0.2l0.2,0.1h0.2l0.2-0.1l0.2-0.1l0.2-0.1l0.2-0.2v-0.1l0.1-0.1v-0.1l0.1-0.1v-0.1l0.1-0.1v-0.1l-0.1-0.1l-0.1-0.1
	v-0.1l-0.1-0.1h-0.1l-0.1-0.1h-0.3 M43.6,61.8l0-0.1 M42.3,62.6l-0.2-0.2l0.2-0.2l0.1,0.1l0.3,0.1l0.1-0.1l0.1-0.1l0.1-0.2l0.2,0.1
	v0.2l-0.1,0.1 M38,67.8l0.3-0.5l1.6-1.9l1.5-1.3l0.2-0.1l0.4-0.3l1.1-0.6L43,62.9l-0.1-0.1l-0.1-0.1 M39.2,69l0.8-1.4l1.6-2.1
	l1.3-1.2l0.5-0.3l0.2-0.2l0.1,0l0.1,0l0,0l-0.4-0.3l-0.2-0.2l0-0.1 M40.8,71.8l0.4-1.7l0.9-2.3l0.6-1.2l0.4-0.5v0l1.1-2l-0.1,0
	l-0.4-0.3 M42.8,73.8v-2.1l0.2-1.8l0.8-2.8l0.9-1.8l0.6-1h-0.5l-0.2-0.1L44.4,64l-0.1,0 M43.7,63.8l-0.2,0.5l-1.6,2.1L40.3,70
	l-0.1,0.5 M45.5,64.2h-0.2 M45.7,64.1l-0.2,0.1 M45.9,64l-0.2,0.1 M45.9,63.9L45.9,64 M46.6,63.1l-0.6,0.8 M46.6,63.1L46.3,63
	l-0.6-0.3l-0.5-0.3L44,61.3 M48.6,63.3l-0.1,0.1L48,63.4h-0.5l-0.6-0.1l-0.3-0.1 M41.1,59.2l0.2,0.5h0.1 M41.2,62.1L41.2,62.1
	l0.1,0.2 M41.9,62.7l-0.6,0.5l-0.6,0.4l-2,2L37.5,67 M41.7,64l-2.2,2.8l-0.9,1.6 M43.2,66.1L42.9,67l-0.6,2.3L42,70.7l-0.1,2.4
	 M68.3,64.7l0.2,0.3l0.1,0.3v0.9l-0.2,0.5l-0.6,1.2l-0.4,0.6l-1.6,1.6l-1,0.8l-1,0.3l-0.5,0.1L63,71.1L62.7,71 M49.2,61.5l-0.3,0.1
	l-0.9-0.1 M66.1,76l-0.2-0.1l-0.3-0.3v0L65.5,75l-0.1-0.6l0.1-0.3 M66.1,76l-0.5-0.5 M160,119.1l-0.1-0.1 M160,119.1h0.8l-0.1-0.5
	l0.2-1.3l0.8-1.6l1.2-1.7l1.3-1.4l0.7-0.6l1.3-0.8l0.9-0.2l0-0.4l-0.1-0.2l-0.1-0.1l-0.5-0.1l-0.5,0.1l-0.7,0.2l-1.3,0.8l-0.7,0.6
	l-1.3,1.4l-1.2,1.6l-0.7,1.6l-0.3,1.3l0.1,0.6l0.2,0.5 M167,110.5l-0.1-0.3l-0.3-0.4l-0.5-0.2l-0.5-0.1l-0.6,0.1l-0.7,0.2l-1.4,0.8
	l-2.1,2.1l-1.2,1.7l-0.8,1.7l-0.3,1.4l0.2,1.1l0.3,0.4l0.5,0.2h0.3 M167.1,111.1l0,0.2l-0.3,1.4l-0.7,1.6l-0.6,0.8l-2,2.3l-0.7,0.6
	l-1.4,0.8l-0.6,0.2 M94.6,89.5l0.1,0.2l0.1,0.4v0.4L94.8,91l-0.7,1.7l-0.4,0.6l-1.6,1.6l-1.1,0.8l-1,0.3l-0.5,0.1l-0.3-0.1l-0.1-0.1
	 M95.7,90.5l0.1,0.3l0.1,0.4v0.4l-0.1,0.5l-0.2,0.5l-0.5,1.2l-0.4,0.6l-1.6,1.6l-1.1,0.8l-1,0.3h-0.5L90.4,97 M92.5,89.9l1.1,1.1
	l0.1-0.1l0.2-0.4l0.2-0.9l0.1-0.5v0 M86.1,93.5l-0.4-0.1 M86.6,93.5h-0.5 M87.7,93.2l-1.1,0.3 M89.7,92l-2,1.2 M90,91.7L89.7,92
	 M90,91.7l0.3-0.3 M84.8,94L84.8,94l0.3-0.1l0.5-0.2l0.5-0.1l1.1-0.1h0.5l0.7,0.1l0.2,0.1l0.9-1.6l0.5-0.5 M88.7,93.7l1,1l0.1,0
	l0.8-0.8l1-0.9l0.5-0.6l0.5-0.5l0.9-1 M88.3,95.1l0.2,0l1.1-0.3"/>
<path id="Layer1_10_MEMBER_1_MEMBER_131_1_STROKES" class="st9" d="M122.1,126.5h3.9"/>
<path id="Layer1_10_MEMBER_1_MEMBER_132_1_STROKES" class="st9" d="M112.7,126.5h5.5"/>
<path id="Layer1_10_MEMBER_1_MEMBER_133_1_STROKES" class="st9" d="M195.9,72.7l-0.1,0.3"/>
<path id="Layer1_10_MEMBER_1_MEMBER_134_1_STROKES" class="st9" d="M133.5,105.1l7.8-6.7 M129.5,108.5l2-1.7 M113.9,111.7l5.8,5.1
	l7.8-6.7 M111,109.2l1.4,1.3 M103.7,102.8l5.8,5.1 M184.2,184.5l0.1,1.8 M183.4,175.3l0.7,7.3"/>
<path class="st3" d="M247.2,181.7l-1.6,1.2l7.2,9.5l1.6-1.2L247.2,181.7z"/>
<path id="Layer1_10_MEMBER_1_MEMBER_136_1_STROKES" class="st9" d="M134.6,90.5h1.7"/>
<path id="Layer1_10_MEMBER_1_MEMBER_137_1_STROKES" class="st9" d="M133.7,90.5h0.5"/>
<path id="Layer1_10_MEMBER_1_MEMBER_138_1_STROKES" class="st9" d="M131.4,90.5h1.8"/>
<path id="Layer1_10_MEMBER_1_MEMBER_139_1_STROKES" class="st9" d="M249.5,108.3h9.3"/>
<path id="Layer1_10_MEMBER_1_MEMBER_140_1_STROKES" class="st9" d="M244.8,108.3h2.4"/>
<path id="Layer1_10_MEMBER_1_MEMBER_141_1_STROKES" class="st9" d="M233.2,108.3h9.3"/>
<path id="Layer1_10_MEMBER_1_MEMBER_142_1_STROKES" class="st9" d="M249.1,185.6l-2.6-3.4"/>
<path id="Layer1_10_MEMBER_1_MEMBER_143_1_STROKES" class="st9" d="M250.3,187.3l-0.6-0.9"/>
<path id="Layer1_10_MEMBER_1_MEMBER_144_1_STROKES" class="st9" d="M253.6,191.6l-2.6-3.5"/>
<path class="st10" d="M65.4,68.9l1.3-1.4l-8-7.2l-1.3,1.4L65.4,68.9z"/>
<path id="Layer1_10_MEMBER_1_MEMBER_146_1_STROKES" class="st9" d="M61,63.5l-2.9-2.7 M62.5,64.8l-0.8-0.7 M66.1,68.1l-2.9-2.6"/>
<path class="st10" d="M99.4,100.4l1.3-1.4l-4.2-3.7l-1.3,1.5L99.4,100.4z"/>
<path id="Layer1_10_MEMBER_1_MEMBER_148_1_STROKES" class="st9" d="M98.5,98.2l1.6,1.3 M97.8,97.6l0.4,0.3 M95.9,95.9l1.6,1.3"/>
<path class="st10" d="M140.8,99.3l22.7,16.7l1.2-1.6l-22.7-16.7L140.8,99.3z"/>
<path id="Layer1_10_MEMBER_1_MEMBER_150_1_STROKES" class="st9" d="M149.6,104.5l-8.3-6.1 M153.8,107.5l-2.1-1.5 M164,115.1
	l-8.3-6.1"/>
<path class="st10" d="M161.5,132.4l-1.9-0.5l-5.5,19.8l1.9,0.5L161.5,132.4z"/>
<path id="Layer1_10_MEMBER_1_MEMBER_152_1_STROKES" class="st9" d="M158.5,139.3l2-7.2 M157.6,143l0.5-1.8 M155.1,152l2-7.2"/>
<path class="st10" d="M195.5,78.1l-1.9-0.5l-13.6,50l1.9,0.5L195.5,78.1z"/>
<path id="Layer1_10_MEMBER_1_MEMBER_154_1_STROKES" class="st9" d="M187.1,105.1l1.2-4.6 M180.9,127.8l5-18.2 M189.5,96l5-18.2"/>
<path class="st10" d="M160.4,131.2l0.4,1.9l20.3-4.3l-0.4-1.9L160.4,131.2z"/>
<path id="Layer1_10_MEMBER_1_MEMBER_156_1_STROKES" class="st9" d="M173.5,129.4l7.3-1.6 M169.8,130.1l1.8-0.4 M160.6,132.1l7.4-1.6
	"/>
<path class="st10" d="M215.1,143.6l1.6-1.2l-10.3-13.6l-1.5,1.2L215.1,143.6z"/>
<path id="Layer1_10_MEMBER_1_MEMBER_158_1_STROKES" class="st9" d="M215.9,143l-3.7-5 M209.4,134.3l-3.8-5 M211.3,136.8l-0.9-1.3"/>
<path class="st10" d="M195.3,71.4l1.8,0.5l2.1-7.5l-1.9-0.6L195.3,71.4z"/>
<path id="Layer1_10_MEMBER_1_MEMBER_160_1_STROKES" class="st9" d="M197.5,66.8l0.8-2.8 M197.1,68.1l0.2-0.7 M196.2,71.5l0.8-2.7"/>
<path class="st10" d="M218.7,145.1l-1.6,1.2l3.8,5l1.6-1.2L218.7,145.1z"/>
<path id="Layer1_10_MEMBER_1_MEMBER_162_1_STROKES" class="st9" d="M219.2,147.5l-1.4-1.8 M219.9,148.4l-0.3-0.5 M221.6,150.6
	l-1.3-1.8"/>
<path id="Layer1_6_MEMBER_1_1_STROKES_1_" class="st11" d="M6.3,28.3h70.8v20.6H6.3V28.3z"/>
<text transform="matrix(1 0 0 1 6.8799 11.9886)" class="st12 st13">Pressure</text>
<text transform="matrix(1 0 0 1 6.8799 26.3887)" class="st12 st13">switch− </text>
<text transform="matrix(1 0 0 1 50.5799 26.3887)" class="st14 st13">B line</text>
<text transform="matrix(1 0 0 1 10.9573 42.6888)" class="st12 st15">2921-P27</text>
<text transform="matrix(1 0 0 1 50.4702 213.7231)" class="st12 st13">Pilot pressure line</text>
<circle cx="186.8" cy="203.8" r="3.3"/>
<line class="st16" x1="186.8" y1="203.8" x2="150.2" y2="209.1"/>
<path class="st16" d="M146.2,217.9h-96c-2.3,0-4.2-1.9-4.2-4.2v-7.2c0-2.3,1.9-4.2,4.2-4.2h95.9c2.3,0,4.2,1.9,4.2,4.2v7.2
	C150.4,216,148.5,217.9,146.2,217.9z"/>
<path id="Layer1_5_MEMBER_1_1_STROKES_1_" class="st11" d="M346.2,205.3h-75.3v-20.1h75.3L346.2,205.3L346.2,205.3z"/>
<text transform="matrix(1 0 0 1 270.4857 167.6949)" class="st12 st13">Pressure</text>
<text transform="matrix(1 0 0 1 270.4857 182.0949)" class="st12 st13">switch− </text>
<text transform="matrix(1 0 0 1 314.1857 182.0949)" class="st14 st13">A line</text>
<text transform="matrix(1 0 0 1 278.5781 200.3968)" class="st12 st15">2931-P20</text>
<circle cx="236.8" cy="169.1" r="3.3"/>
<line class="st16" x1="236.8" y1="169.1" x2="266.8" y2="167.1"/>
<text transform="matrix(1 0 0 1 272.011 69.8578)" class="st12 st13">Pressure</text>
<text transform="matrix(1 0 0 1 272.011 84.2578)" class="st12 st13">outlet line </text>
<circle cx="292.2" cy="106" r="3.3"/>
<line class="st16" x1="292.2" y1="106" x2="295.7" y2="88.1"/>
<path class="st16" d="M323.6,87.9h-52.4c-2.3,0-4.2-1.9-4.2-4.2V60.9c0-2.3,1.9-4.2,4.2-4.2h52.4c2.3,0,4.2,1.9,4.2,4.2v22.8
	C327.8,86,325.9,87.9,323.6,87.9z"/>
<text transform="matrix(1 0 0 1 33.1037 154.7247)" class="st12 st13">Inlet</text>
<text transform="matrix(1 0 0 1 33.1037 169.1247)" class="st12 st13">pressure</text>
<text transform="matrix(1 0 0 1 33.1037 183.5247)" class="st12 st13">line</text>
<circle cx="105" cy="126.6" r="3.3"/>
<line class="st16" x1="104.7" y1="127.3" x2="84" y2="144.9"/>
<path class="st16" d="M80.8,187.9H34c-2.3,0-4.2-1.9-4.2-4.2v-37.2c0-2.3,1.9-4.2,4.2-4.2h46.8c2.3,0,4.2,1.9,4.2,4.2v37.2
	C85,186,83.1,187.9,80.8,187.9z"/>
<text transform="matrix(1 0 0 1 107.5209 33.1523)" class="st12 st13">Hydraulic</text>
<text transform="matrix(1 0 0 1 107.5209 47.5523)" class="st12 st13">return line </text>
<path class="st16" d="M158.8,52h-52.4c-2.3,0-4.2-1.9-4.2-4.2V24.9c0-2.3,1.9-4.2,4.2-4.2h52.4c2.3,0,4.2,1.9,4.2,4.2v22.8
	C163,50.1,161.1,52,158.8,52z"/>
<circle cx="117" cy="90.9" r="3.3"/>
<line class="st16" x1="131.3" y1="52.1" x2="116.6" y2="90.7"/>
<circle cx="78.4" cy="78.9" r="3.3"/>
<line class="st16" x1="77.1" y1="48.9" x2="78.4" y2="78.7"/>
</svg>
