<?xml version="1.0" encoding="utf-8"?>
<!-- Generator: Adobe Illustrator 24.1.0, SVG Export Plug-In . SVG Version: 6.00 Build 0)  -->
<svg version="1.1" id="Ebene_1" xmlns="http://www.w3.org/2000/svg" xmlns:xlink="http://www.w3.org/1999/xlink" x="0px" y="0px"
	 viewBox="0 0 349.1 161" style="enable-background:new 0 0 349.1 161;" xml:space="preserve">
<style type="text/css">
	.st0{fill:#3AACE1;}
	.st1{fill:none;stroke:#020203;stroke-width:0.55;stroke-miterlimit:5;}
	.st2{fill:none;stroke:#020203;stroke-width:0.55;stroke-miterlimit:60;}
	.st3{fill:#448ECC;}
	.st4{fill:#CDCCCC;}
	.st5{fill:#F4991A;}
	.st6{fill:none;stroke:#131516;stroke-width:0.55;stroke-linecap:round;stroke-linejoin:round;}
	.st7{fill:none;stroke:#F4991A;stroke-linecap:round;stroke-linejoin:round;}
	.st8{enable-background:new    ;}
	.st9{fill:#020203;}
	.st10{font-family:'ArialMT';}
	.st11{font-size:14px;}
</style>
<g>
	<path class="st0" d="M62.1,71.7l-0.1-0.2l-13.5-7.8v0.2l-0.8-0.1l-1.3,0.7v26l0.4,0.3l1.4-0.8l5.3,3l0.2,0.1l0.4-0.1l7.8-4.5
		l0.1-0.1V71.7z"/>
	<path id="Layer3_4_MEMBER_1_MEMBER_0_1_STROKES" class="st1" d="M63.8,53.6v0.2"/>
	<path id="Layer3_4_MEMBER_1_MEMBER_1_1_STROKES" class="st1" d="M59.6,51.1v1.2"/>
	<path id="Layer3_4_MEMBER_1_MEMBER_2_1_STROKES" class="st1" d="M63.2,52.8v0.9"/>
	<path id="Layer3_4_MEMBER_1_MEMBER_3_1_STROKES" class="st1" d="M63.7,52.7v0.9"/>
	<path id="Layer3_4_MEMBER_1_MEMBER_4_1_STROKES" class="st1" d="M61.4,53.8v0.4"/>
	<path id="Layer3_4_MEMBER_1_MEMBER_5_1_STROKES" class="st1" d="M55.4,53.3v0.4"/>
	<path id="Layer3_4_MEMBER_1_MEMBER_6_1_STROKES" class="st1" d="M55.1,53.5L55.1,53.5"/>
	<path id="Layer3_4_MEMBER_1_MEMBER_7_1_STROKES" class="st1" d="M62.3,53.8v0.4"/>
	<path id="Layer3_4_MEMBER_1_MEMBER_8_1_STROKES" class="st1" d="M57.6,54.1v0.4"/>
	<path id="Layer3_4_MEMBER_1_MEMBER_9_1_STROKES" class="st1" d="M56.7,54.1v0.4"/>
	<path id="Layer3_4_MEMBER_1_MEMBER_10_1_STROKES" class="st1" d="M61.6,52.6v1.2"/>
	<path id="Layer3_4_MEMBER_1_MEMBER_11_1_STROKES" class="st1" d="M68.2,53.4v0.8"/>
	<path id="Layer3_4_MEMBER_1_MEMBER_12_1_STROKES" class="st1" d="M63.8,49.8v2.4"/>
	<path id="Layer3_4_MEMBER_1_MEMBER_13_1_STROKES" class="st1" d="M62.1,52.6v1.2"/>
	<path id="Layer3_4_MEMBER_1_MEMBER_14_1_STROKES" class="st1" d="M52.3,61.7v0.6"/>
	<path id="Layer3_4_MEMBER_1_MEMBER_15_1_STROKES" class="st1" d="M68.6,53.4v0.7"/>
	<path id="Layer3_4_MEMBER_1_MEMBER_16_1_STROKES" class="st1" d="M52.8,62.1v0.2"/>
	<path id="Layer3_4_MEMBER_1_MEMBER_17_1_STROKES" class="st1" d="M57.4,52.8V54"/>
	<path id="Layer3_4_MEMBER_1_MEMBER_18_1_STROKES" class="st1" d="M66.1,54.7v0.4"/>
	<path id="Layer3_4_MEMBER_1_MEMBER_19_1_STROKES" class="st1" d="M56.8,52.8V54"/>
	<path id="Layer3_4_MEMBER_1_MEMBER_20_1_STROKES" class="st1" d="M66.9,54.7v0.4"/>
	<path id="Layer3_4_MEMBER_1_MEMBER_21_1_STROKES" class="st1" d="M66.2,53.4v1.2"/>
	<path id="Layer3_4_MEMBER_1_MEMBER_22_1_STROKES" class="st1" d="M66.8,53.4v1.2"/>
	<path id="Layer3_4_MEMBER_1_MEMBER_23_1_STROKES" class="st1" d="M56.7,57.7v1.7"/>
	<path id="Layer3_4_MEMBER_1_MEMBER_24_1_STROKES" class="st1" d="M52,55.9v0.3"/>
	<path id="Layer3_4_MEMBER_1_MEMBER_25_1_STROKES" class="st1" d="M51.4,55.8V56"/>
	<path id="Layer3_4_MEMBER_1_MEMBER_26_1_STROKES" class="st1" d="M64.1,48.3L64.1,48.3"/>
	<path id="Layer3_4_MEMBER_1_MEMBER_27_1_STROKES" class="st1" d="M51.9,55.3v0.5"/>
	<path id="Layer3_4_MEMBER_1_MEMBER_28_1_STROKES" class="st1" d="M51.5,55.6v0.3"/>
	<path id="Layer3_4_MEMBER_1_MEMBER_29_1_STROKES" class="st1" d="M71.7,56.5v0.2"/>
	<path id="Layer3_4_MEMBER_1_MEMBER_30_1_STROKES" class="st1" d="M72.2,56.4v0.2"/>
	<path id="Layer3_4_MEMBER_1_MEMBER_31_1_STROKES" class="st1" d="M52.9,58.7v0.9"/>
	<path id="Layer3_4_MEMBER_1_MEMBER_32_1_STROKES" class="st1" d="M63.4,44.5l1.8,1"/>
	<path id="Layer3_4_MEMBER_1_MEMBER_33_1_STROKES" class="st1" d="M56.7,54.6v1.1"/>
	<path id="Layer3_4_MEMBER_1_MEMBER_34_1_STROKES" class="st1" d="M62.9,49l0.1,0.1"/>
	<path id="Layer3_4_MEMBER_1_MEMBER_35_1_STROKES" class="st1" d="M71.7,55.5v0.9"/>
	<path id="Layer3_4_MEMBER_1_MEMBER_36_1_STROKES" class="st1" d="M72.1,55.5v0.9"/>
	<path id="Layer3_4_MEMBER_1_MEMBER_37_1_STROKES" class="st1" d="M53,56.8v0.4"/>
	<path id="Layer3_4_MEMBER_1_MEMBER_38_1_STROKES" class="st1" d="M70.7,59.2v0.9"/>
	<path id="Layer3_4_MEMBER_1_MEMBER_39_1_STROKES" class="st1" d="M66.9,55.2v1.1"/>
	<path id="Layer3_4_MEMBER_1_MEMBER_40_1_STROKES" class="st1" d="M52.1,56.8v0.4"/>
	<path id="Layer3_4_MEMBER_1_MEMBER_41_1_STROKES" class="st1" d="M62.2,45.2l1.7,1"/>
	<path id="Layer3_4_MEMBER_1_MEMBER_42_1_STROKES" class="st1" d="M61.7,49.7l0.1,0.1"/>
	<path id="Layer3_4_MEMBER_1_MEMBER_43_1_STROKES" class="st1" d="M52.9,54.8v1.1"/>
	<path id="Layer3_4_MEMBER_1_MEMBER_44_1_STROKES" class="st1" d="M52.8,55.5v1.2"/>
	<path id="Layer3_4_MEMBER_1_MEMBER_45_1_STROKES" class="st1" d="M70.6,57.3v0.4"/>
	<path id="Layer3_4_MEMBER_1_MEMBER_46_1_STROKES" class="st1" d="M52.3,55.6v1.1"/>
	<path id="Layer3_4_MEMBER_1_MEMBER_47_1_STROKES" class="st1" d="M61.3,57.5v0.4"/>
	<path id="Layer3_4_MEMBER_1_MEMBER_48_1_STROKES" class="st1" d="M71.5,57.3v0.4"/>
	<path id="Layer3_4_MEMBER_1_MEMBER_49_1_STROKES" class="st1" d="M61.1,45.8l1.8,1"/>
	<path id="Layer3_4_MEMBER_1_MEMBER_50_1_STROKES" class="st1" d="M62.1,57.5v0.4"/>
	<path id="Layer3_4_MEMBER_1_MEMBER_51_1_STROKES" class="st1" d="M70.7,55.4v1.1"/>
	<path id="Layer3_4_MEMBER_1_MEMBER_52_1_STROKES" class="st1" d="M60.6,50.3l0.1,0.1"/>
	<path id="Layer3_4_MEMBER_1_MEMBER_53_1_STROKES" class="st1" d="M70.8,56.1v1.2"/>
	<path id="Layer3_4_MEMBER_1_MEMBER_54_1_STROKES" class="st1" d="M71.4,56.1v1.2"/>
	<path id="Layer3_4_MEMBER_1_MEMBER_55_1_STROKES" class="st1" d="M61.4,56.2v1.2"/>
	<path id="Layer3_4_MEMBER_1_MEMBER_56_1_STROKES" class="st1" d="M61.9,56.2v1.2"/>
	<path id="Layer3_4_MEMBER_1_MEMBER_57_1_STROKES" class="st1" d="M59.9,46.5l1.8,1"/>
	<path id="Layer3_4_MEMBER_1_MEMBER_58_1_STROKES" class="st1" d="M58.6,50.6l0.9,0.5"/>
	<path id="Layer3_4_MEMBER_1_MEMBER_59_1_STROKES" class="st1" d="M60.5,58.7V59"/>
	<path id="Layer3_4_MEMBER_1_MEMBER_60_1_STROKES" class="st1" d="M61.1,58.7v0.2"/>
	<path id="Layer3_4_MEMBER_1_MEMBER_61_1_STROKES" class="st1" d="M75.2,57.6v0.8"/>
	<path id="Layer3_4_MEMBER_1_MEMBER_62_1_STROKES" class="st1" d="M75.6,57.6v0.7"/>
	<path id="Layer3_4_MEMBER_1_MEMBER_63_1_STROKES" class="st1" d="M57.9,51l-0.1-0.1"/>
	<path id="Layer3_4_MEMBER_1_MEMBER_64_1_STROKES" class="st1" d="M73.1,58.7v0.4"/>
	<path id="Layer3_4_MEMBER_1_MEMBER_65_1_STROKES" class="st1" d="M60.6,57.8v0.9"/>
	<path id="Layer3_4_MEMBER_1_MEMBER_66_1_STROKES" class="st1" d="M62.1,61.1v1.6"/>
	<path id="Layer3_4_MEMBER_1_MEMBER_67_1_STROKES" class="st1" d="M61,57.8v0.9"/>
	<path id="Layer3_4_MEMBER_1_MEMBER_68_1_STROKES" class="st1" d="M74,58.7v0.4"/>
	<path id="Layer3_4_MEMBER_1_MEMBER_69_1_STROKES" class="st1" d="M58.7,47.2l1.8,1"/>
	<path id="Layer3_4_MEMBER_1_MEMBER_70_1_STROKES" class="st1" d="M58.6,48.7L58,48.3"/>
	<path id="Layer3_4_MEMBER_1_MEMBER_71_1_STROKES" class="st1" d="M78.4,66.4V67"/>
	<path id="Layer3_4_MEMBER_1_MEMBER_72_1_STROKES" class="st1" d="M56.9,51.5l-1.1-0.6"/>
	<path id="Layer3_4_MEMBER_1_MEMBER_73_1_STROKES" class="st1" d="M77.8,66.7v0.2"/>
	<path id="Layer3_4_MEMBER_1_MEMBER_74_1_STROKES" class="st1" d="M73.3,57.6v1.2"/>
	<path id="Layer3_4_MEMBER_1_MEMBER_75_1_STROKES" class="st1" d="M73.9,57.5v1.2"/>
	<path id="Layer3_4_MEMBER_1_MEMBER_76_1_STROKES" class="st1" d="M57.7,49.2l-0.7-0.4"/>
	<path id="Layer3_4_MEMBER_1_MEMBER_77_1_STROKES" class="st1" d="M62.1,58v1.1"/>
	<path id="Layer3_4_MEMBER_1_MEMBER_78_1_STROKES" class="st1" d="M50.6,55.7L50.6,55.7"/>
	<path id="Layer3_4_MEMBER_1_MEMBER_79_1_STROKES" class="st1" d="M65.8,60.1v0.4"/>
	<path id="Layer3_4_MEMBER_1_MEMBER_80_1_STROKES" class="st1" d="M78.7,60.5v0.2"/>
	<path id="Layer3_4_MEMBER_1_MEMBER_81_1_STROKES" class="st1" d="M55.1,52.6l-0.1-0.1"/>
	<path id="Layer3_4_MEMBER_1_MEMBER_82_1_STROKES" class="st1" d="M79.3,60.4v0.2"/>
	<path id="Layer3_4_MEMBER_1_MEMBER_83_1_STROKES" class="st1" d="M66.6,60.1v0.4"/>
	<path id="Layer3_4_MEMBER_1_MEMBER_84_1_STROKES" class="st1" d="M50.9,55.9l8.5-4.9"/>
	<path id="Layer3_4_MEMBER_1_MEMBER_85_1_STROKES" class="st1" d="M64.1,60.8V61"/>
	<path id="Layer3_4_MEMBER_1_MEMBER_86_1_STROKES" class="st1" d="M65.8,58.2v1.1"/>
	<path id="Layer3_4_MEMBER_1_MEMBER_87_1_STROKES" class="st1" d="M64.6,60.7V61"/>
	<path id="Layer3_4_MEMBER_1_MEMBER_88_1_STROKES" class="st1" d="M78.8,59.6v0.9"/>
	<path id="Layer3_4_MEMBER_1_MEMBER_89_1_STROKES" class="st1" d="M66,58.9v1.2"/>
	<path id="Layer3_4_MEMBER_1_MEMBER_90_1_STROKES" class="st1" d="M79.2,59.6v0.9"/>
	<path id="Layer3_4_MEMBER_1_MEMBER_91_1_STROKES" class="st1" d="M55.9,50.3L55.2,50"/>
	<path id="Layer3_4_MEMBER_1_MEMBER_92_1_STROKES" class="st1" d="M66.5,58.9v1.2"/>
	<path id="Layer3_4_MEMBER_1_MEMBER_93_1_STROKES" class="st1" d="M64.2,59.9v0.9"/>
	<path id="Layer3_4_MEMBER_1_MEMBER_94_1_STROKES" class="st1" d="M77.8,63.3v0.9"/>
	<path id="Layer3_4_MEMBER_1_MEMBER_95_1_STROKES" class="st1" d="M64.6,59.9v0.9"/>
	<path id="Layer3_4_MEMBER_1_MEMBER_96_1_STROKES" class="st1" d="M74,59.3v1.1"/>
	<path id="Layer3_4_MEMBER_1_MEMBER_97_1_STROKES" class="st1" d="M54.8,50.9l-0.6-0.4"/>
	<path id="Layer3_4_MEMBER_1_MEMBER_98_1_STROKES" class="st1" d="M77.7,61.4v0.4"/>
	<path id="Layer3_4_MEMBER_1_MEMBER_99_1_STROKES" class="st1" d="M68.3,61.6V62"/>
	<path id="Layer3_4_MEMBER_1_MEMBER_100_1_STROKES" class="st1" d="M78.6,61.4v0.4"/>
	<path id="Layer3_4_MEMBER_1_MEMBER_101_1_STROKES" class="st1" d="M69.1,61.6V62"/>
	<path id="Layer3_4_MEMBER_1_MEMBER_102_1_STROKES" class="st1" d="M77.8,59.4v1.1"/>
	<path id="Layer3_4_MEMBER_1_MEMBER_103_1_STROKES" class="st1" d="M77.9,60.2v1.2"/>
	<path id="Layer3_4_MEMBER_1_MEMBER_104_1_STROKES" class="st1" d="M73.5,69.2v0.6"/>
	<path id="Layer3_4_MEMBER_1_MEMBER_105_1_STROKES" class="st1" d="M78.4,60.1v1.2"/>
	<path id="Layer3_4_MEMBER_1_MEMBER_106_1_STROKES" class="st1" d="M73,69.5v0.2"/>
	<path id="Layer3_4_MEMBER_1_MEMBER_107_1_STROKES" class="st1" d="M68.4,60.4v1.2"/>
	<path id="Layer3_4_MEMBER_1_MEMBER_108_1_STROKES" class="st1" d="M69,60.3v1.2"/>
	<path id="Layer3_4_MEMBER_1_MEMBER_109_1_STROKES" class="st1" d="M53.1,54.5l-1.6-1"/>
	<path id="Layer3_4_MEMBER_1_MEMBER_110_1_STROKES" class="st1" d="M54.6,51.9l-1.6-1"/>
	<path id="Layer3_4_MEMBER_1_MEMBER_111_1_STROKES" class="st1" d="M68.2,62.7V63"/>
	<path id="Layer3_4_MEMBER_1_MEMBER_112_1_STROKES" class="st1" d="M67.7,61.9v0.7"/>
	<path id="Layer3_4_MEMBER_1_MEMBER_113_1_STROKES" class="st1" d="M68,61.9v0.9"/>
	<path id="Layer3_4_MEMBER_1_MEMBER_114_1_STROKES" class="st1" d="M72.9,66.1V67"/>
	<path id="Layer3_4_MEMBER_1_MEMBER_115_1_STROKES" class="st1" d="M69.1,62.1v1.1"/>
	<path id="Layer3_4_MEMBER_1_MEMBER_116_1_STROKES" class="st1" d="M53.6,50.2l-1.7-1"/>
	<path id="Layer3_4_MEMBER_1_MEMBER_117_1_STROKES" class="st1" d="M55.7,46.7h-0.1"/>
	<path id="Layer3_4_MEMBER_1_MEMBER_118_1_STROKES" class="st1" d="M72.8,64.2v0.4"/>
	<path id="Layer3_4_MEMBER_1_MEMBER_119_1_STROKES" class="st1" d="M73.7,64.2v0.4"/>
	<path id="Layer3_4_MEMBER_1_MEMBER_120_1_STROKES" class="st1" d="M68.6,71.9v0.5"/>
	<path id="Layer3_4_MEMBER_1_MEMBER_121_1_STROKES" class="st1" d="M71.1,64.9v0.2"/>
	<path id="Layer3_4_MEMBER_1_MEMBER_122_1_STROKES" class="st1" d="M72.9,62.2v1.1"/>
	<path id="Layer3_4_MEMBER_1_MEMBER_123_1_STROKES" class="st1" d="M68.1,72.2L68.1,72.2"/>
	<path id="Layer3_4_MEMBER_1_MEMBER_124_1_STROKES" class="st1" d="M71.7,64.8V65"/>
	<path id="Layer3_4_MEMBER_1_MEMBER_125_1_STROKES" class="st1" d="M73.1,63v1.2"/>
	<path id="Layer3_4_MEMBER_1_MEMBER_126_1_STROKES" class="st1" d="M73.6,63v1.2"/>
	<path id="Layer3_4_MEMBER_1_MEMBER_127_1_STROKES" class="st1" d="M71.3,64v0.9"/>
	<path id="Layer3_4_MEMBER_1_MEMBER_128_1_STROKES" class="st1" d="M71.7,64v0.9"/>
	<path id="Layer3_4_MEMBER_1_MEMBER_129_1_STROKES" class="st1" d="M55.7,44.1l-0.1-0.1"/>
	<path id="Layer3_4_MEMBER_1_MEMBER_130_1_STROKES" class="st1" d="M53.6,47.7l-1.7-1"/>
	<path id="Layer3_4_MEMBER_1_MEMBER_131_1_STROKES" class="st1" d="M62.2,65.2v0.4"/>
	<path id="Layer3_4_MEMBER_1_MEMBER_132_1_STROKES" class="st1" d="M64.4,45.2V22.7"/>
	<path id="Layer3_4_MEMBER_1_MEMBER_133_1_STROKES" class="st1" d="M64.1,67.7v1.6"/>
	<path id="Layer3_4_MEMBER_1_MEMBER_134_1_STROKES" class="st1" d="M68.9,65.5v0.1"/>
	<path id="Layer3_4_MEMBER_1_MEMBER_135_1_STROKES" class="st1" d="M63.1,65.2v0.4"/>
	<path id="Layer3_4_MEMBER_1_MEMBER_136_1_STROKES" class="st1" d="M69.7,65.5v0.4"/>
	<path id="Layer3_4_MEMBER_1_MEMBER_137_1_STROKES" class="st1" d="M62.4,64.1v1.2"/>
	<path id="Layer3_4_MEMBER_1_MEMBER_138_1_STROKES" class="st1" d="M62.9,64v1.2"/>
	<path id="Layer3_4_MEMBER_1_MEMBER_139_1_STROKES" class="st1" d="M69,64.2v1.2"/>
	<path id="Layer3_4_MEMBER_1_MEMBER_140_1_STROKES" class="st1" d="M69.5,64.1v1.2"/>
	<path id="Layer3_4_MEMBER_1_MEMBER_141_1_STROKES" class="st1" d="M67.8,68.7v0.8"/>
	<path id="Layer3_4_MEMBER_1_MEMBER_142_1_STROKES" class="st1" d="M68.4,66.6v0.2"/>
	<path id="Layer3_4_MEMBER_1_MEMBER_143_1_STROKES" class="st1" d="M69,66.6v0.1"/>
	<path id="Layer3_4_MEMBER_1_MEMBER_144_1_STROKES" class="st1" d="M53.6,45.2l-1.7-1"/>
	<path id="Layer3_4_MEMBER_1_MEMBER_145_1_STROKES" class="st1" d="M55.7,41.7l-0.1-0.1"/>
	<path id="Layer3_4_MEMBER_1_MEMBER_146_1_STROKES" class="st1" d="M68.5,65.6v0.9"/>
	<path id="Layer3_4_MEMBER_1_MEMBER_147_1_STROKES" class="st1" d="M68.9,65.6v0.9"/>
	<path id="Layer3_4_MEMBER_1_MEMBER_148_1_STROKES" class="st1" d="M67.5,67.1v0.2"/>
	<path id="Layer3_4_MEMBER_1_MEMBER_149_1_STROKES" class="st1" d="M68,67.2v0.1"/>
	<path id="Layer3_4_MEMBER_1_MEMBER_150_1_STROKES" class="st1" d="M63.8,63.2v2.4"/>
	<path id="Layer3_4_MEMBER_1_MEMBER_151_1_STROKES" class="st1" d="M67.5,66.2v0.9"/>
	<path id="Layer3_4_MEMBER_1_MEMBER_152_1_STROKES" class="st1" d="M67.9,66.2v0.9"/>
	<path id="Layer3_4_MEMBER_1_MEMBER_153_1_STROKES" class="st1" d="M65.6,67.2v0.4"/>
	<path id="Layer3_4_MEMBER_1_MEMBER_154_1_STROKES" class="st1" d="M66.5,67.2v0.4"/>
	<path id="Layer3_4_MEMBER_1_MEMBER_155_1_STROKES" class="st1" d="M53.6,42.7l-1.7-1"/>
	<path id="Layer3_4_MEMBER_1_MEMBER_156_1_STROKES" class="st1" d="M55.7,39.1l-0.1-0.1"/>
	<path id="Layer3_4_MEMBER_1_MEMBER_157_1_STROKES" class="st1" d="M65.8,66v1.2"/>
	<path id="Layer3_4_MEMBER_1_MEMBER_158_1_STROKES" class="st1" d="M68,63.2v2.4"/>
	<path id="Layer3_4_MEMBER_1_MEMBER_159_1_STROKES" class="st1" d="M66.3,66v1.2"/>
	<path id="Layer3_4_MEMBER_1_MEMBER_160_1_STROKES" class="st1" d="M53.6,40.2l-1.7-1"/>
	<path id="Layer3_4_MEMBER_1_MEMBER_161_1_STROKES" class="st1" d="M55.7,36.6l-0.1-0.1"/>
	<path id="Layer3_4_MEMBER_1_MEMBER_162_1_STROKES" class="st1" d="M55.7,34.1L55.4,34"/>
	<path id="Layer3_4_MEMBER_1_MEMBER_163_1_STROKES" class="st1" d="M53.6,37.7l-1.7-1"/>
	<path id="Layer3_4_MEMBER_1_MEMBER_164_1_STROKES" class="st1" d="M60.5,16.3L60.5,16.3"/>
	<path id="Layer3_4_MEMBER_1_MEMBER_165_1_STROKES" class="st1" d="M55.4,32.3l-1.7-1"/>
	<path id="Layer3_4_MEMBER_1_MEMBER_166_1_STROKES" class="st1" d="M53.9,35l-1.6-1"/>
	<path id="Layer3_4_MEMBER_1_MEMBER_167_1_STROKES" class="st1" d="M63.1,22.5l-2.1-6"/>
	<path id="Layer3_4_MEMBER_1_MEMBER_168_1_STROKES" class="st1" d="M59.6,21.2l-0.1-0.1"/>
	<path id="Layer3_4_MEMBER_1_MEMBER_169_1_STROKES" class="st1" d="M60.4,18.9l-0.6-0.4"/>
	<path id="Layer3_4_MEMBER_1_MEMBER_170_1_STROKES" class="st1" d="M58.6,21.7l-1.1-0.6"/>
	<path id="Layer3_4_MEMBER_1_MEMBER_171_1_STROKES" class="st1" d="M59.4,19.4l-0.6-0.4"/>
	<path id="Layer3_4_MEMBER_1_MEMBER_172_1_STROKES" class="st1" d="M52,15.8v-0.1"/>
	<path id="Layer3_4_MEMBER_1_MEMBER_173_1_STROKES" class="st1" d="M46.1,52.8V20.5"/>
	<path id="Layer3_4_MEMBER_1_MEMBER_174_1_STROKES" class="st2" d="M58.7,51.4v0.1h0.1l0.1,0.1v0.1v0.4l-0.1,0.1l-0.2,0.1h-0.2
		l-0.2-0.1L58,52.3v-0.4l0.1,0.1l0.2,0.1h0.2l0.2-0.1l0.1-0.1 M58.7,51.6v0.1 M60.3,50.7c0.8,0.5,1.7,0.5,2.7,0.1
		c1-0.4,1.1-1,0.1-1.8 M63.2,52.8L63.2,52.8l0.2,0.1l0.1-0.1l0.1-0.1l0,0l0,0h-0.1h-0.1L63.2,52.8z M63.2,53.1L63.2,53.1l-0.5,0.3
		l-0.5,0.1l-0.1,0.1h0.1l0.1,0.1v0.1l-0.1,0.1l-0.2,0.1h-0.2l-0.2-0.1l-0.1-0.1v-0.1l0.1-0.1h0.1l-0.9-0.2l-0.4-0.2l-0.3-0.3
		l-0.2-0.3l-0.1-0.3 M62,52.5l-0.1-0.1h-0.1l-0.1,0.1v0.1l0.1,0.1l0.1,0.1H62l0.1-0.1L62,52.5L62,52.5z M62.3,54.2L62.3,54.2
		L62,54.4h-0.2l-0.2-0.1 M63.8,53.8L63.8,53.8L63.6,54h-0.1l-0.1-0.1l-0.1-0.1v-0.2l0.1,0.1l0.1,0.1h0.1l0.1-0.1v-0.1l-0.1-0.1
		 M59.6,55.6l0.1-0.1v-1.3L59.3,54l-1,0.6 M59.9,55.5v0.4l0.1,0.3l0.2,0.3l0.3,0.2l0,0l0.4,0.1l0.5,0.1 M60.8,57.7h-0.1l-0.1,0.1
		l0.1,0.1h0.1H61l0.1-0.1L61,57.7H60.8z M59.3,56.2l1.9,1.1 M66.7,53.4L66.7,53.4v0.1l-0.1,0.1h-0.1l-0.1-0.1l-0.1-0.1v-0.1l0.1-0.1
		h0.1L66.7,53.4L66.7,53.4z M66.7,53.4v-0.5l-4.1,2.4v0.7l1-0.6l0,0 M61.9,57.1h0.1 M62.6,55.9l-2.7-1.6 M62.1,62.1L62.1,62.1
		l-0.4,0.1l-0.3-0.1l-0.2-0.1l-0.1-0.1 M62.1,62.8l0.1,0.3l0.2,0.3l0.3,0.2 M62.1,62.4l-0.8,0.4 M61.6,61.8l0.4-0.1 M61.4,61.3
		l-0.1,0.3 M59.3,54l-1.9-1.1 M57.3,52.2l5.2,3 M57.2,52.7v-0.4 M64.8,50.7L64.8,50.7v0.1l0.1,0.1h0.1l0.1-0.1v-0.1l0-0.1l-0.1-0.1
		h-0.1L64.8,50.7z M64.2,52.2L64.2,52.2l0.2,0.1l0.1-0.1l0.1-0.1l-0.1-0.1l0,0L64.4,52L64.2,52.2L64.2,52.2z M64.2,52.2V53l-0.1,0.1
		 M64.2,53.2L64.2,53.2 M64.4,53.2l-0.1-0.1 M64.6,53.2h-0.1 M64.7,53.1l-0.1,0.1 M64.7,53.1L64.7,53.1 M64.6,52.9l0.1,0.1
		 M64.6,52.5V53 M64.6,52.2v0.3 M64.7,52v-0.2h-0.1l-0.1,0.1V52l0.1,0.1l0.2,0.1h0.2l0.2-0.1l0.1-0.1v-0.1l-0.1-0.1h-0.1v0.1
		 M64.6,52v0.1 M64.6,52.5L64.6,52.5l0.3,0.1h0.2l0.2-0.1l0.1-0.1V52V52 M64.7,50.8v0.9v0.1 M65.3,51.7v-1 M64.7,51.7l-0.9-0.6
		 M68.2,53.4L68.2,53.4v0.1h0.1h0.1l0.1-0.1l-0.1-0.1l-0.1-0.1L68.2,53.4z M68.2,53.7L68,53.6l-1.3,0.7 M66.1,55.1l0.1,0.1l0.2,0.1
		h0.2l0.2-0.1l0,0c0-0.1,0-0.1,0-0.1c0.1-0.2,0.3-0.4,0.7-0.7c0.4-0.2,1-0.4,1.3-0.3L68.5,54 M66.9,55.2c0,0.2,0.2,0.5,0.6,0.8
		c0.7,0.5,1.6,0.5,2.6,0.1c0.6-0.3,0.8-0.6,0.7-1c-0.1-0.2-0.3-0.4-0.6-0.7c-0.3-0.2-0.7-0.3-1-0.4c-0.1,0-0.1,0-0.1,0 M72,55.4
		l-0.1-0.1l-0.1,0.1l-0.1,0.1l0.1,0.1l0.1,0.1l0.1-0.1V55.4L72,55.4z M71.3,55.9l-0.1-0.1H71l-0.1,0.1V56l0.1,0.1l0.1,0.1h0.1
		l0.1-0.1L71.3,55.9L71.3,55.9z M72.1,56.3L72.1,56.3l0.1,0.1l-0.1,0.1H72h-0.1h-0.1h-0.1l-0.1-0.1v-0.1 M71.4,57.1l0.1,0.1v0.1
		l-0.1,0.1l-0.2,0.1H71l-0.2-0.1l-0.1-0.1v-0.1l0.1-0.1 M71.4,57.3L71.4,57.3l-0.2,0.1L71,57.3l-0.1-0.1 M71.7,56.7L71.7,56.7
		l0.2,0.1H72l0.1-0.1v-0.1 M72.1,56.5H72h-0.1 M71.7,55.7l-1-0.6 M66.9,56.3v0.3l0.2,0.3l0.3,0.2c0.5,0.3,1.1,0.4,1.8,0.3
		c0.8-0.1,1.3-0.4,1.4-1 M66.8,54.4l0.1,0.1v0.1l-0.1,0.1l-0.2,0.1h-0.2l-0.2-0.1l-0.1-0.1l-1.9,1.1l-0.2,0.1l5.6,3.2l4.1-2.4
		L72,55.9 M66.1,54.7L66.1,54.7v-0.1l0.1-0.1 M66.8,54.5L66.8,54.5l-0.1,0.1h-0.1l-0.1-0.1l-0.1-0.1 M64.7,53.1v0.1v0.1l-0.1,0.1
		h-0.1l-0.1-0.1l-0.1-0.1v-0.2 M64.6,52.9L64.6,52.9l0.1,0.1 M64.1,53.1L64.1,53.1L64.1,53.1 M63.8,52.3l-0.1,0.3l-0.1,0.1
		 M64.1,55.8l-0.6-0.3V56l-0.1,0.3l-0.1,0.1l0.6-0.2v-0.3 M63.6,55.5v-0.2l2.7-1.5 M63.9,56.2v0.4l0.8,0.4 M64.6,60.7L64.6,60.7
		l0.1,0.1l-0.1,0.1h-0.1l-0.1-0.1l-0.1-0.1v-0.1 M64.2,61.1l0.1,0.1h0.1l0.1-0.1V61 M66.1,62.1L65.9,62h-0.2c-0.3,0.1-0.7,0.1-1,0.3
		c-1,0.5-1.1,1.1-0.1,1.8c0.8,0.5,1.8,0.5,2.8,0.1c1-0.5,1.1-1.1,0.1-1.8c-0.6-0.4-1.2-0.5-1.8-0.4 M70.6,57.8L70.6,57.8l0.3,0.1
		h0.2l0.2-0.1l0.1-0.1 M71,60.3l-0.5,0.3l0.1-0.2l0.1-0.3 M70.7,59.6l0.5,0.3 M69.6,59.2v0.7l3.8-2.1 M69,61.2l0.1-0.1 M71.1,61
		l0.1-0.1 M69.6,59.9l-3.9-2.3 M67.5,61l0.7,0.4 M73.6,57.3v-0.5 M66.7,52.8L65.5,52 M69.4,64.1L69.3,64h-0.1l-0.1,0.1v0.1l0.1,0.1
		l0.1,0.1h0.1l0.1-0.1v-0.1L69.4,64.1z M66.8,68.6v0.7l4.1-2.4v-0.7l-1.3-0.8l-0.1,0.1l-0.2,0.1h-0.2l-0.2-0.1l-0.1-0.1v-0.1
		l0.1-0.1H69l-1-0.6 M68.6,65.5L68.6,65.5v0.1h0.1h0.1l0.1-0.1l-0.1-0.1h-0.1H68.6z M69.6,65.2l0.1,0.1v0.1l0,0 M69.7,65.8l-0.1,0.1
		L69.4,66h-0.2l-0.2-0.1 M68.9,66.4L68.9,66.4l0.1,0.1l-0.1,0.1h-0.1l-0.1-0.1l-0.1-0.1v-0.1 M68,65.8L68,66l-0.1,0.1l0,0l-0.1,0.1
		l-0.1,0.1l-0.1-0.1l-0.1-0.1l0.1-0.1l0.1-0.1l0.1,0.1v0.1 M68,67.2L68,67.2l-0.1,0.1h-0.1l-0.1-0.1h-0.1 M66,65.8l-0.1,0.1V66
		l0.1,0.1l0.1,0.1h0.1l0.1-0.1l0.1-0.1l-0.1-0.1l-0.1-0.1H66z M66.4,67l0.1,0.1v0.1l-0.1,0.1l-0.2,0.1H66l-0.2-0.1l-0.1-0.1v-0.1
		l0.1-0.2h-0.4l-0.5-0.1l-0.4-0.3l-0.3-0.3L64,66l-0.1-0.3 M67.5,67.2L67.5,67.2L67.5,67 M67.5,66.5L67.5,66.5L67,66.8l-0.5,0.1
		h-0.1 M66.5,67.7l-0.1,0.1l-0.2,0.1H66l-0.2-0.1 M64.1,68.9l-0.8,0.4l1.4,0.8l0.4,0.2l0.5,0.1h0.5l1-0.2l0.2-0.1l0.1-0.1l0.1-0.1
		l0.3-0.3l0.1-0.3 M67.3,70.2L67.3,70.2l1.3-0.8l-0.8-0.4 M64.6,70.2L66,71l1.3-0.8 M66,71l0.3,0.4l2.7-1.5l1.5,0.8l-2.7,1.5
		l-1.5-0.8 M63,65l0.1,0.1v0.1L63,65.4l-0.2,0.1h-0.2l-0.2-0.1l-0.1-0.1v-0.1l0.1-0.1l-0.8,0.4v0.7l2.1,1.3l3.2,1.8 M62.4,64.1
		l0.1,0.1h0.1l0.1-0.1v-0.1L62.7,64l-0.1-0.1h-0.1L62.4,64l-0.1,0.1L62.4,64.1z M62.3,65.1L62.3,65.1 M63.1,65.7L63,65.8l-0.2,0.1
		h-0.2l-0.2-0.1l-0.1-0.1 M63.2,69.4L63,69.5l-1.5-0.8l2.1-1.3 M61.5,68.8l1.5,0.9 M62.1,88.3v-0.7v-2.2V71.7 M62.1,85.4l1.3,0.7
		 M50,91l-0.9,0.5 M48.9,91.6l-0.1,0.1l-0.1,0.1l-0.1,0.2v0.1l-0.1,0.1 M48.5,97.8l0.1,0.1v0.1l0.1,0.2l0.1,0.1l0.1,0.1l0.8,0.5
		 M60.9,105.4l-1.3-0.7 M48.5,97.6v-5.1 M68.1,100l-0.8-0.4l-0.2-0.2 M66.3,103.4l-0.8-0.5l-0.3-0.1 M62.1,87.7l3.6,2.1 M63.8,64.1
		l-1,0.5 M62,106.9L62,106.9l-0.9-0.6 M64.1,53.1L64.1,53.1 M67.3,70.2L67.3,70.2"/>
	<path id="Layer3_4_MEMBER_1_MEMBER_175_1_STROKES" class="st2" d="M52.3,55.6L52.3,55.6l0.2,0.1l0.1-0.1l0.1-0.1v-0.1l-0.1-0.1
		h-0.1h-0.1l-0.1,0.1V55.6z M51.9,56.2L51.9,56.2 M52.8,56.9L52.6,57h-0.2l-0.2-0.1l-0.1-0.1v-0.1l0.1-0.1 M52.9,54.8l0.1,0.3
		l0.2,0.3l0.4,0.2c0.4,0.1,0.8,0.2,1.3,0.2c0.4,0,0.9-0.1,1.3-0.3c0.7-0.4,0.7-0.9,0.3-1.3c-0.4-0.4-0.9-0.6-1.5-0.6 M52.9,55.9
		l0.1,0.3l0.2,0.3l0.4,0.2l0.5,0.1l0.5,0.1c0.4,0,0.9-0.1,1.3-0.2c0.5-0.2,0.7-0.5,0.7-1 M50,56.9v-0.7l0.7-0.4 M54,59.3l2.8-1.6
		l2.8-1.6v-0.7L54,58.6C54,58.6,54,59.3,54,59.3z M54.8,61l-0.3,0.4l-1.5-0.8 M52.7,60.4l-0.9-0.5l-1.2,0.7l2.7,1.5 M50,56.2
		l4.1,2.4 M60.9,57.7l0.4-0.2l0,0v-0.1l0.1-0.1 M61.6,56.1L61.6,56.1l-0.1,0.1l0.1,0.1l0.1,0.1h0.1l0.1-0.1v-0.1l-0.1-0.1l-0.1-0.1
		H61.6z M62,57.3L62,57.3l0.1,0.2L62,57.6l-0.2,0.1h-0.2l-0.2-0.1l-0.1-0.1 M61.3,57.9L61.3,57.9l0.3,0.1h0.2L62,58l0,0v-0.1
		c0.1-0.2,0.3-0.4,0.7-0.7c0.5-0.2,1-0.4,1.4-0.3l-1-0.5l-1.3,0.7 M57.3,52.8L57.3,52.8l-0.2-0.1H57l-0.1,0.1v0.1l0.1,0.1h0.1
		L57.3,52.8L57.3,52.8L57.3,52.8z M57.4,54.7L57.4,54.7 M56.8,53.7l-1.1-0.7 M59,59v-0.1l-1.1,0.7l-0.3-0.1 M59,58.9L57.5,58
		 M56.2,60.3l0.3-0.3l0.1-0.3l0.1-0.3 M62.1,59.1l0.1,0.3l0.2,0.3l0.3,0.2l0.4,0.2l0.5,0.1h0.5h0.1 M60.6,57.9l-1.5,0.9l5.6,3.2
		l4.1-2.4l-3-1.7c0.1,0.4-0.1,0.7-0.7,1c-1,0.4-1.8,0.4-2.6-0.1c-0.4-0.3-0.6-0.6-0.6-0.8 M60.5,59L60.5,59l0.2,0.1h0.1L61,59
		 M61,58.6L61,58.6l0.1,0.1L61,58.8h-0.1l-0.1-0.1l-0.1-0.1l0.1-0.1 M61.6,61.3l0.3-0.1L62,61l-2.9-1.6v-0.7 M61.6,61.8l-0.4-0.2
		v0.3 M63.7,64.3l-1.1-0.6L61.3,63L61,63l-1.1-0.7v0.1 M62.1,61.3l-0.2-0.2 M58.2,59.6l3.2,1.9l-1.5,0.9 M62.1,62.3L61,63
		 M59.6,55.4l-2.1-1.3 M56.8,57.6l0.4,0.2 M65.9,57.9c-0.1-0.2-0.3-0.4-0.6-0.7c-0.4-0.2-0.7-0.4-1.1-0.4c-0.1,0-0.1,0-0.1,0
		 M66,58.8L66,58.8l0.1,0.1l0.1,0.1h0.1l0.1-0.1v-0.1l-0.1-0.1l-0.1-0.1h-0.1L66,58.8z M64.6,60.2l0.4-0.1l0.4-0.2l0.3-0.3l0.1-0.3
		 M66.6,59.9L66.6,59.9l0.1,0.2l-0.1,0.1l-0.2,0.1h-0.2l-0.2-0.1l-0.1-0.1v-0.1l0.1-0.1 M64.5,59.9L64.5,59.9v-0.1h-0.1l-0.1,0.1
		l-0.1,0.1l0.1,0.1l0.1,0.1L64.5,59.9z M64.7,62v0.3 M64.1,61L64.1,61 M67.7,61.8L67.7,61.8L67.7,61.8V62h0.1l0.1-0.1l0.1-0.1
		L68,61.8H68h-0.1L67.7,61.8z M65.8,60.6l0.1,0.1l0.2,0.1h0.2l0.2-0.1l0.1-0.1 M67.7,61.9l-0.6,0.4 M68.5,60.4l0.1,0.1h0.1l0.1-0.1
		l0.1-0.1l-0.1-0.1h-0.1h-0.1h-0.1L68.5,60.4L68.5,60.4L68.5,60.4z M68.5,60.4l-2.7,1.6 M68.8,60.1v-0.6 M69,61.3l0.1,0.1v0.1
		L69,61.7l-0.2,0.1h-0.2l-0.2-0.1l-0.1-0.1L68,61.8 M68.4,61.3l-0.1,0.1v0.1l0,0 M68.3,62l0.1,0.1l0.2,0.1h0.2l0.2-0.1l0,0v-0.1
		c0.1-0.2,0.3-0.5,0.7-0.7c0.5-0.2,1-0.3,1.4-0.3l-1-0.5L69,61.3 M68,63.2l0.1-0.1 M68.1,62.7L68.1,62.7L68.1,62.7l0.1,0.1H68
		L68.1,62.7 M69.1,62.1c0,0.2,0.2,0.5,0.6,0.8c0.7,0.5,1.6,0.5,2.6,0.1c0.6-0.3,0.8-0.6,0.7-1c-0.1-0.1-0.1-0.2-0.2-0.4
		c-0.1-0.1-0.2-0.2-0.4-0.3c-0.1-0.1-0.3-0.1-0.4-0.2c-0.1,0-0.1,0-0.1,0c-0.1-0.1-0.3-0.1-0.4-0.1c-0.1,0-0.1,0-0.1,0 M71.7,61.1
		L71,60.7V60l2.1-1.3 M73.1,58.7v-0.1l0.1-0.1 M73.4,57.6l0.1,0.1h0.1l0.1-0.1l0.1-0.1l-0.1-0.1h-0.1h-0.1L73.4,57.6L73.4,57.6
		L73.4,57.6z M75.2,57.6L75.2,57.6l0.2,0.1h0.1l0.1-0.1l-0.1-0.1h-0.1L75.2,57.6L75.2,57.6z M75.2,57.7L75,57.6l-1.3,0.7 M76.1,58.2
		L75.6,58 M76.1,58.2c0.1,0,0.1,0,0.1,0c0.4,0,0.7,0.1,1,0.4c0.4,0.2,0.5,0.4,0.6,0.7l1,0.6 M73.1,59.2L73.1,59.2l0.3,0.1h0.2
		l0.2-0.1l0,0v-0.1c0.1-0.2,0.3-0.4,0.7-0.7c0.2-0.1,0.4-0.1,0.6-0.2c0.3-0.1,0.6-0.1,0.8-0.1 M73.9,58.5l0.1,0.1v0.1l-0.1,0.1
		L73.6,59h-0.2l-0.2-0.1l-0.1-0.1 M77.8,59.3c0.1,0.4-0.1,0.7-0.7,1c-1,0.4-1.8,0.4-2.6-0.1c-0.4-0.3-0.6-0.6-0.6-0.8 M73.2,62.9
		L73.2,62.9L73.1,63l0.1,0.1l0.1,0.1h0.1l0.1-0.1l0.1-0.1L73.6,63l-0.1-0.1H73.2z M74,60.4c0,0.7,0.6,1.1,1.8,1.2
		c1.2,0.1,1.8-0.3,2-1 M79.2,60.4L79.2,60.4l0.1,0.1l-0.1,0.1H79l-0.1-0.1l-0.1-0.1v-0.1 M79.2,59.7L79.2,59.7v-0.1L79,59.5
		l-0.1,0.1l-0.1,0.1l0.1,0.1H79H79.2z M78,60.3l0.1,0.1h0.1l0.1-0.1l0.1-0.1l-0.1-0.1l-0.1-0.1h-0.1l-0.1,0.1L78,60.3L78,60.3z
		 M78.7,60.7L78.7,60.7l0.2,0.1h0.1l0.1-0.1v-0.1 M78.5,61.2l0.1,0.1v0.1l-0.1,0.1l-0.2,0.1h-0.2l-0.2-0.1l-0.1-0.1v-0.1l0.1-0.1
		 M77.7,61.8l0.1,0.1l0.2,0.1h0.2l0.2-0.1l0.1-0.1 M80.7,60.9l-4.1,2.4v0.7l4.1-2.4V60.9z M80.7,60.9L79.2,60 M64.4,62.4L62,61
		 M72.9,62l3,1.7v0.7L74.8,65c0.4,0.1,0.7,0.2,1.3,0.2c0.4,0,0.8-0.1,1.1-0.3l0.1-0.1l0.2-0.1l0.2-0.3l0.1-0.3 M77.6,65.7v-0.3
		l0.1-0.1L76.2,66l1.2,0.7l2.7-1.5L79,64.5L78.1,65h0.2l0.4,0.2v0.3 M78.9,64.6l-0.3-0.4l-1.2,0.7l-0.1,0.1l0,0 M77.6,65.3l0.1-0.1
		l0.3-0.1 M78.6,65.3l-0.1,0.3v0.3 M78.4,65.6l-0.5,0.1V66 M77.8,63.7l0.8,0.4 M77.9,65.7l-0.4-0.2 M78.4,67L78.4,67l-0.2,0.1H78
		l-0.1-0.1 M78.7,65.8L78.5,66L78.3,66H78L77.7,66l-0.2-0.1l-0.1-0.1 M74.8,65L74.8,65l1.1,0.7l1.3-0.7 M73.6,64L73.6,64l0.1,0.2
		l-0.1,0.1l-0.2,0.1h-0.2L73,64.3l-0.1-0.1V64l0.1-0.1 M71.7,64.3l0.5-0.1l0.4-0.2l0.2-0.3l0.1-0.3 M72.8,64.6L72.8,64.6l0.3,0.1
		h0.2l0.2-0.1l0.1-0.1 M73.1,67.9L72.8,68l-0.1,0.2l-0.1,0.1l0.4,0.2l0.5-0.1l0.1-0.3l-0.4-0.2H73.1z M73.1,67.9l0.8-0.5l-0.3-0.4
		l-1.2,0.7l-0.1,0.1l0,0L71,68.5l0.3,0.4l1.4-0.8 M72.5,67.6l-0.2,0.1C72,67.9,71.5,68,71,68c-0.5,0-1-0.1-1.3-0.3l1.3,0.8 M72.9,67
		l-0.1,0.3l-0.2,0.3 M72.7,68.3v0.3 M73.7,68.3V68 M73.7,66.9l-0.8-0.4 M71.4,69l1.1,0.7l2.7-1.5L74,67.5 M75.9,65.7l0.3,0.4
		 M73.8,68.6l-0.1,0.1l-0.2,0.1h-0.3l-0.3-0.1l-0.2-0.1l-0.1-0.1 M73.5,69.8L73.5,69.8L73.3,70h-0.1l-0.1-0.1v-0.1 M73.1,68.5v0.3
		 M73.6,68.6v-0.3 M71.3,64L71.3,64l0.2,0.1h0.1l0.1-0.1l-0.1-0.1h-0.1L71.3,64L71.3,64z M69.1,63.2l0.1,0.3l0.1,0.3l0.3,0.2
		l0.4,0.2l0.5,0.1h0.5h0.1 M71.7,64.7L71.7,64.7v0.1l-0.1,0.1h-0.1l-0.1-0.1l-0.1-0.1l0.1-0.1 M71.1,65.1L71.1,65.1l0.2,0.1h0.1
		l0.1-0.1l0.1-0.1 M68,63.9l1,0.6 M71,66.3l0.8,0.4V66l-2.2-1.3 M63.8,63.9h-0.3L63,63.8l-0.4-0.2l0,0 M75.9,63.7L71.8,66 M74.8,65
		l-3,1.7 M61.5,68.6v0.1 M62.1,88.3L62.1,88.3L54.2,93L54,93h-0.2L53.5,93l-5.3-3 M71,60l5.6,3.2 M76.6,64l-3.9-2.3 M73.1,58.7
		L73.1,58.7"/>
	<path id="Layer3_4_MEMBER_1_MEMBER_176_1_STROKES" class="st2" d="M49,13.9c0.5-0.2,0.9-0.1,1,0.5c0.1,0.5,0.5,0.7,1,0.4l1.4-0.8
		l0.3-0.2l0.1-0.2v-2.8l0.1-0.2l0.1-0.1l0.2-0.1l0.2,0.1l0.7,0.4l0.2-0.1 M53.7,11.3L53.7,11.3l-0.1,0.1l0.1,0.1l0.1,0.1h0.1v-0.1
		l0,0l-0.1-0.1V11.3L53.7,11.3z M53.7,11.3L53.7,11.3l0.1,0.2l0,0 M53.7,14.2L53.7,14.2 M53.7,14.2L53.7,14.2v0.1l0.1,0.1l0,0l0,0
		v-0.1 M53.8,14.5L53.8,14.5l-0.1,0.1l-0.1-0.1l-0.1-0.1l0.1-0.1h0.1 M47.6,17.3v0.1l0.1,0.1l0.1,0.1 M54.3,10.9l2.1,1.3l0.2,0.2
		l0.2,0.3l0.1,0.3l0.1,0.3v3.2L57,16.6l-0.1,0.1v0.1l-0.7,0.3l-0.9,0.3h-0.4l-0.4-0.1l-0.3-0.1L52.2,16L52,15.9v-0.2l0.1-0.2
		l0.2-0.1l0.4-0.2l0.1-0.1l0.1-0.2l0.1-0.2v-0.9 M56.2,12.7L56.2,12.7l0.1,0.2l0,0V13h-0.1l-0.1-0.1V12.7L56.2,12.7L56.2,12.7v0.1
		l0.1,0.1 M56.4,14.3c0.1,1.1-0.4,1.4-1.4,1c-0.8-0.4-1.3-1.2-1.4-2.3c-0.1-1.1,0.4-1.4,1.4-1C55.8,12.4,56.2,13.2,56.4,14.3z
		 M56.2,15.8L56.2,15.8l0.1,0.2l0,0L56.3,16h-0.1L56.2,16l-0.1-0.1L56.2,15.8L56.2,15.8v0.1l0.1,0.1 M60.3,16.7l0.1,0.2l0.1,0.1h0.1
		l0.2-0.1 M60.8,16.3l-0.1-0.1l-0.1,0.1 M62.8,21.5l1.5,0.9l0.1,0.1v0.1l-0.1,0.1l-1.3,0.7l-0.2,0.1l-0.1-0.1v-0.2l0.1-0.3l0.1-0.2
		 M52,21.5L52,21.8L51.9,22l-0.1,0.2l-0.2,0.1l-0.8,0.4L50.5,23h-0.2L50,22.9l-3.4-2l-0.4-0.2l-0.1-0.1v-0.1 M46.7,20.9l0.1-0.2
		 M46.3,20.3l0.1,0.1 M52,55.9L52,55.9L51.7,56h-0.1l-0.1-0.1v-0.1l0.1-0.1 M51.4,56.1l0.1,0.1h0.1l0.1-0.1 M50.9,55.9l-0.1-0.1
		 M51.1,55.8l-0.1,0.1 M51.1,55.7L51,55.8 M51.1,55.7L51.1,55.7 M51.1,55.7v-0.1v-0.1L51,55.3l-0.1-0.1 M51.1,55.5L51.1,55.5v0.1
		 M46.2,53l3.8,2.2l0.2,0.1h0.2 M52.1,57.2L52.1,57.2l0.3,0.1h0.2l0.2-0.1l0.1-0.1 M52.8,56.5L52.8,56.5l0.1,0.2l-0.1,0.1
		 M52.5,60.4l-0.4,0.2l0.1,0.3l0.5,0.1l0.4-0.2L53,60.5L52.5,60.4z M52.9,59.6l0.1,0.3l0.2,0.3l0.2,0.1l0.2,0.1l0.5,0.1l0.5,0.1h0.5
		l0.5-0.1l0.4-0.1l1.3-0.7l-0.7-0.5l1.1,0.7 M51.8,59.9l0.3-0.4l0.8-0.5 M52.1,60.7V61l0.1,0.3V61 M53.2,61.1l-0.1,0.1l-0.2,0.1
		l-0.2,0h-0.3l-0.2-0.1L52,61.2 M52.8,61v0.3 M53.1,61v-0.3 M52.8,62.3L52.8,62.3l-0.1,0.1h-0.1l-0.1-0.1l-0.1-0.1 M54.5,61.5
		l-1.1,0.7 M56.2,60.3L54.8,61l-1.3-0.7l-1.3-0.7 M54,59.3L50,56.9 M60.3,57l0.1,0.1l0.2,0.1v0.5 M56.7,54.5L56.7,54.5l0.3,0.1h0.2
		l0.2-0.1 M57.4,53.9L57.4,53.9l0.1,0.2l-0.1,0.1l-0.2,0.1H57l-0.2-0.1l-0.1-0.1V54l0.1-0.1 M57.6,58.5l-0.1,0.1l-0.2,0.1l-0.3,0.1
		h-0.3l-0.1-0.1 M56.7,57.9l0.2-0.1l0.5,0.1l0.1,0.3l-0.4,0.2v0.2 M56.7,58.4l0.4,0.1 M59.2,59.6L59.2,59.6L59,59.8V60 M61.8,61.3
		l-0.5,0.1 M61.6,61.8v0.3 M59,59.8v-1.6l0.2-0.4l1.2-0.7 M65.8,54.8v-0.6l-0.2-0.1 M64.2,55.2l0.2-0.4 M64.2,55.2v0.6 M64.1,55.1
		l0.1,0.1 M65.5,54.9l-0.1,0.1 M68,66.9L68,66.9l0.1,0.1l-0.1,0.1h-0.1l-0.1-0.1 M69,66.7L69,66.7l-0.1,0.1h-0.1l-0.1-0.1l-0.1-0.1
		 M64.1,67.8l-0.4-0.2l-0.5,0.1L63,68l0.4,0.2l0.5-0.1 M64.1,68.5L64.1,68.5l-0.3,0.1h-0.3l-0.3-0.1L63,68.4l-0.1-0.1 M64.1,69.3
		l0.1,0.3l0.1,0.3l0.3,0.2 M69,71.1L69,71.1l-0.1,0.1l0,0l-0.2,0.1h-0.3L68,71.3l-0.2-0.1L67.7,71 M68.3,71.3V71l-0.4-0.2v0.3
		 M68.6,69.4l0.3,0.4 M67.9,70.8l0.1-0.3l0.5-0.1l0.4,0.2v0.1 M68.9,70.8L68.9,70.8L69,71l-0.1,0.1l-0.1,0.2 M68.9,70.8L68.9,70.8
		 M68.3,71.1l0.5-0.1l0.1-0.3 M68.8,71.2V71 M68.6,72.4L68.6,72.4l-0.2,0.1h-0.1l-0.1-0.1v-0.1 M68,69l1.8-1.1 M61.5,65.5l5.4,3.1
		l4.1-2.4 M65.3,75.5l-1.8,1l-0.1,0.2v0.1v9.2v0.1h0.1h0.1l2.1-1.3 M63,68v0.3 M63.3,67.3v0.3 M63.3,64.2v0.3 M63,69.7l0.3-0.1
		 M64.1,68.9l-0.8,0.4L63,69.4 M49,91.6L49,91.6l0.1-0.1 M48.5,92.5L48.5,92.5 M59.1,103.7l0.1,0.1l0.3-0.1l-9.2-5.3L50,98.5
		l0.2,0.1l0.1,0.1l0.1,0.2v0.8l-0.1,0.1l-0.1,0.1l-0.1,0.1l-0.7,0.4l-0.1,0.1h-0.1l0,0l-0.1-0.1v0.3l8.9,5.2 M48.9,100.6l1.2-2.1
		 M48.5,97.6L48.5,97.6 M50.4,98.9l-1,1.7 M61,106.4l-0.1-0.2l-0.1-0.3V100c0-0.3,0.1-0.6,0.2-0.8c0.1-0.3,0.4-0.5,0.6-0.7l6.1-3.5
		 M68.7,95.3l-6.3,3.6c-0.5,0.4-0.8,0.8-0.9,1.5v5.9l0.1,0.3l0.1,0.2l0.1,0.1h0.2l0.3-0.1l6.9-4 M58.2,105.9l1.2-2.1 M58.2,105.9
		v0.3l1.5-0.8v-1.6 M58,105.8l0.1,0.1 M65,103.4h-0.4l-0.3-0.1l-0.3-0.2l-0.2-0.3v-1.7l0.4-1l0.7-0.9l1.5-0.9h0.4l0.3,0.1l0.3,0.2
		l0.1,0.3v0.5l0.3,0.4c0.4,0,0.7,0.3,0.7,1c0,0.9-0.4,1.7-1.3,2.3s-1.3,0.4-1.5-0.7c-0.1-0.9,0.4-1.6,1.3-2.3
		c0.3-0.2,0.6-0.3,0.7-0.4 M67.6,99.4l-0.5-0.7l-0.2-0.1L65,99.6l-0.9,2.4l0.9,1.3l0.3,0.1l0.6-0.4 M67.6,99.6l-0.3-0.2L67,99.3
		l-0.4,0.1l-0.4,0.2c-0.4,0.3-0.6,0.6-0.9,1c-0.2,0.4-0.4,0.9-0.4,1.3l0.1,0.4l0.1,0.3l0.3,0.2h0.2 M56.2,12.7L56.2,12.7 M56.2,15.8
		L56.2,15.8 M68.9,70.8L68.9,70.8"/>
	<path id="Layer3_4_MEMBER_1_MEMBER_177_1_STROKES" class="st2" d="M55.5,12.4l-0.7,0.4l-0.4-0.3H54l-0.1-0.1v-0.1v-0.1l0.1-0.1
		l0.1-0.1l0.2-0.2 M54.3,11.8v0.8 M49,13.9l-0.4,0.2c-0.3,0.1-0.5,0.4-0.7,0.7c-0.2,0.3-0.3,0.7-0.3,1v1.3 M49.8,14.9v0.7l-0.9,0.5
		l-0.4-0.3h-0.4l-0.1-0.1L48,15.7l0.1-0.1l0.1-0.1l0.4-0.4h-0.1l0.9-0.5h0.4l0.1,0.1l0.1,0.1l0.1,0.1L49.8,14.9L49.8,14.9z
		 M49.8,14.9v-0.2l-0.9,0.5v1 M49.8,14.8l-0.4-0.3l-0.1-0.1 M49.5,15.4v0.1l-0.1,0.1l-0.1,0.1h-0.1l-0.1-0.1v-0.1l0.1-0.1l0.1-0.1
		L49.5,15.4L49.5,15.4z M49.3,14.5h0.4 M48.9,15.3L48.5,15v1 M55.9,11.8v-0.6c0-0.4-0.1-0.6-0.3-0.7c-0.1,0-0.1-0.1-0.2-0.1l0,0
		c-0.1,0-0.3,0-0.5,0.1l-0.4,0.2 M55.4,10.4h-0.3l-0.3,0.1l-0.4,0.2 M55,11.2l0.1-0.1h0.4l0.1,0.1l0.1,0.1l0.1,0.1l-0.1,0.1l0,0
		v-0.1l-0.1,0.1 M55.6,11.2h-0.4l0.4,0.3 M55.1,11.1L55.1,11.1 M54.8,11.9v1 M58.7,18.6L58.7,18.6 M58.7,18.7L58.7,18.7 M58.7,18.8
		L58.7,18.8 M58.7,18.8l0.4,0.1h0.1l0.4-0.3l0,0v-0.1l0,0l-0.3-0.3h-0.1v-0.4v-0.1h-0.1l0,0l-0.5,0.3l-0.1,0.1v0.1l0,0.4v-0.4v-0.1
		l0.1-0.1l0.5-0.2 M58.2,21.5l-0.4,0.2v-0.1v-0.1v-0.3v-0.1h-0.1h-0.1l-0.1-0.1v-1.8l0.1-0.1l0.1-0.1h0.1v-0.4v-0.1v-0.1l0.5-0.2
		l0,0h0.1v0.1v0.4l0.3-0.1 M57.7,19.2L57.7,19.2l0.4,0.3h0.1h0.1l0.4-0.4l-0.4,0.3h-0.1h-0.1l-0.3-0.1L57.7,19.2l0.1-0.4v-0.1
		l0.1-0.1l0.5-0.3 M58.4,18.8L58.4,18.8L58.4,18.8l0.4,0.3l0,0v0.1l0,0 M60.8,16.8l0.1-0.1v-0.1l-0.1-0.1 M57.1,13.5l2.9,1.7
		l0.1,0.1l0.1,0.2l0.1,0.2v1 M59.7,18.6l-0.4,0.3h-0.1h-0.1l-0.4-0.2 M59.3,19.4l-0.7,0.4l-0.1,0.1V20v1.7l0.1,0.1h0.1l0.7-0.4
		l0.1-0.1l0.1-0.1v-1.7L59.3,19.4L59.3,19.4z M59.6,19.4L59.6,19.4l-0.1,1.8l0.1,0.1h0.1l0.7-0.4l0.1-0.1l0.1-0.1V19l-0.1-0.1h-0.1
		L59.6,19.4L59.6,19.4z M59,24.2c0.1-1,0.5-1.7,1.3-2.1c1-0.4,1.3-0.1,1.3,0.9c-0.1,1-0.5,1.7-1.3,2.1C59.4,25.5,59,25.2,59,24.2z
		 M63.1,22.5v0.1L63,22.8 M55.4,20l0.3,0.1l0.2,0.3l0.1,0.4v0.5c-0.1,1-0.6,1.8-1.4,2.5c-1.1,0.7-1.8,0.5-1.9-0.5s0.2-1.9,1-2.7
		l1.3-0.7L55.4,20z M55.1,26.5c0.1-1,0.5-1.7,1.3-2.1c1-0.4,1.3-0.1,1.3,0.9c-0.1,1-0.5,1.7-1.3,2.1C55.4,27.8,55,27.6,55.1,26.5z
		 M58.5,28.3c0.3,0.2,0.5,0.5,0.5,1.1c0,0.5-0.1,1.1-0.5,1.6c-0.3,0.5-0.7,1-1.2,1.3c-1.2,0.6-1.8,0.1-1.6-1.1
		c0.1-1.3,0.7-2.2,1.6-2.7C57.8,28.1,58.2,28.1,58.5,28.3z M63.2,25.6c0.3,0.1,0.5,0.5,0.5,1c0,0.5-0.1,1.1-0.5,1.6
		c-0.3,0.5-0.7,1-1.2,1.3c-1.2,0.5-1.8,0.1-1.6-1.1c0.1-1.3,0.7-2.2,1.6-2.7C62.6,25.4,63,25.4,63.2,25.6z M52,21.5v-1L52,20.3
		l-0.1-0.1L51.7,20l-3.8-2.2 M46.7,20.8l-0.1-0.2l-0.1-0.1l-0.1-0.1h-0.1h-0.1 M53.4,26.5l0.2,0.2l0.1,0.4v0.4
		c-0.1,0.4-0.2,0.8-0.5,1.3s-0.6,0.7-1,0.9L52,29.8l-0.3-0.1l-0.2-0.2l-0.1-0.3c-0.1-0.4-0.1-0.7,0.1-1.1c0.1-0.4,0.3-0.7,0.6-1
		l1.1-0.7L53.4,26.5z M52,32.1L52,32.1l1.5-1 M51.8,39.4v-0.2 M51.8,36.9v-0.2 M63.2,32.2c-0.1,1.1-0.6,1.8-1.4,2.3
		c-1,0.4-1.5,0.1-1.4-1c0.1-1.1,0.6-1.8,1.4-2.3C62.9,30.8,63.4,31.1,63.2,32.2z M57.6,33.7c1-0.4,1.5-0.1,1.4,1
		c-0.1,1.1-0.5,1.8-1.4,2.3c-1,0.4-1.5,0.1-1.4-1C56.4,34.9,56.8,34.1,57.6,33.7z M58.9,39.4c-0.1,1-0.5,1.7-1.3,2.1
		c-1,0.4-1.3,0.1-1.3-0.9s0.5-1.7,1.3-2.1C58.6,38.1,59,38.4,58.9,39.4z M63,41.5c-0.1,1-0.5,1.6-1.2,2c-0.9,0.4-1.3,0.1-1.2-0.8
		c0.1-1,0.4-1.6,1.2-2C62.6,40.2,63,40.5,63,41.5z M61.6,39.2c-0.9,0.4-1.3,0.1-1.3-0.9c0.1-1,0.5-1.7,1.3-2.1
		c1-0.4,1.3-0.1,1.3,0.9C62.8,38.1,62.4,38.8,61.6,39.2z M63.3,43.9L63.3,43.9l-0.7,0.3l-0.1,0.1l-0.1,0.1v0.5V45l0.7-0.4v-0.1
		L63.3,43.9L63.3,43.9z M59.9,46.4l0.3-0.1 M63.4,44.4L63.4,44.4 M63.5,44.6L63.5,44.6l-0.1-0.1h-0.1 M62.6,44.9L62.2,45 M61.1,45.8
		l0.3-0.2 M56.8,44.8c0.1-1,0.5-1.6,1.2-2c0.9-0.4,1.3-0.1,1.2,0.8c-0.1,1-0.4,1.6-1.2,1.9C57.1,46,56.8,45.7,56.8,44.8z M54.6,51.9
		L54.6,51.9l-1.5,0.8l-0.1,0.1v0.1v1.7v0.1h0.1l1.4-0.8l0.1-0.1l0.1-0.1L54.6,51.9L54.6,51.9z M57.6,48.1L57.6,48.1l0.1-0.3v-0.1
		l0.1-0.1l0.1-0.1 M55.6,49.2l0.4-0.3 M56.7,48.6l0.2-0.1 M58.7,47.1l0.3-0.1 M51.8,41.9v-0.2 M51.8,44.4v-0.2 M53.2,50.6l-0.1,0.1
		L53,50.9h-0.1l-1.4,0.8l-0.1,0.1v0.1v-0.7l0.1-0.1l0.1-0.1l1.3-0.7H53l0.1,0.1v0.4 M51.2,53.7v-1.8v-0.1 M51.8,46.9v-0.2 M52.1,54
		l-0.5,0.3h-0.1l-0.1-0.1v-0.7 M50.9,55.2L50.9,55.2l0.1,0.3 M50.6,55.2L50.6,55.2l-0.1,0.1v0.1l0.1,0.1l0.1,0.1l0.1,0.1l0.1,0.1
		l0.1-0.1v-0.1 M50.6,55.8l-0.1-0.1 M46.1,52.7v0.1l0.1,0.1 M64.1,46.1L64.1,46.1l1-0.6h0.1l0.1,0.1v2.1l-0.1,0.1l-0.1,0.1l-0.9,0.5
		h-0.1 M63.4,44.4L63.4,44.4"/>
	<path id="Layer3_4_MEMBER_1_MEMBER_178_1_STROKES" class="st1" d="M53.8,33.3v1.6l0.1,0.1H54l1.4-0.8l0.1-0.1V34v-1.6v-0.1h-0.1
		L54,33.2L53.8,33.3L53.8,33.3z M53.7,31.3l0.6-0.4h0.1l0.1,0.1v0.7 M52.2,32.3L52.2,32.3L52.1,34l0.1,0.1l-0.5,0.3h-0.1l-0.1-0.1
		v-1.5l0.1-0.1l0.1-0.1L52.2,32.3L52.2,32.3z M51.4,36.9l0.5-0.3v-2.2l-0.5,0.3l-0.1,0.1L51.2,35v1.8 M53.7,35.2L53.7,35.2l-0.1,0.1
		v2.1v0.1h0.1l1.8-1.1l0.1-0.1l0.1-0.1v-2.1 M53.7,37.7L53.7,37.7l-0.1,0.1V40v0.1h0.1l0,0l1.8-1.1l0.1-0.1l0.1-0.1v-2.1l0-0.1
		 M51.2,37.5v1.8l0.1,0.1h0.1l0.5-0.3v-2.2l-0.5,0.3l-0.1,0.1L51.2,37.5z M51.4,39.8L51.4,39.8l-0.1,0.3v1.8l0.1,0.1h0.1l0.5-0.3
		v-2.2L51.4,39.8z M53.7,40.2l-0.1,0.2v0.1v2.1v0.1h0.1l1.8-1.1l0.1-0.1l0.1-0.1v-2.1 M61,45.2L61,45.2l-0.7,0.3l-0.1,0.1v0.1v0.7
		l0.7-0.4V45.2L61,45.2z M59.2,46.4v0.7l0.7-0.4v-0.7v-0.1h-0.1l-0.6,0.3l-0.1,0.1V46.4z M62.1,44.5l-0.6,0.3l-0.1,0.1L61.4,45v0.7
		l0.8-0.4L62.1,44.5L62.1,44.5L62.1,44.5z M60.7,48.1L60.7,48.1l1-0.6h0.1l0.1,0.1l0.1-0.1l0.1-0.1l0.9-0.5H63v0.1v2.1v0.1l-0.1,0.1
		L62,49.8 M63,46.8L63,46.8l0.9-0.6H64l0.1,0.1v2.1L64,48.5l-0.1,0.1l-0.8,0.5 M53.7,42.7L53.7,42.7l-0.1,0.1V45v0.1h0.1l1.8-1.1
		l0.1-0.1l0.1-0.1v-2.1 M53.7,45.3L53.7,45.3l-0.1,0.1v2.1v0.1h0.1l1.8-1.1l0.1-0.1l0.1-0.1v-2.1 M58.7,46.5L58.7,46.5l-0.7,0.3
		L58,46.9l-0.1,0.1v0.7l0.7-0.4L58.7,46.5L58.7,46.5z M57.6,48.1l0.3,0.2l-0.5,0.4h-0.1h-0.1L57,48.6l-0.1-0.1v-0.4v-0.1L57,48
		l0.5-0.3h0.1v0.1L57.6,48.1L57.6,48.1L57.6,48.1z M57.6,49.2L57,49.6l-0.1,0.1l-0.1,0.1v1.7l0.1,0.1H57l0.7-0.4l0.1-0.1l0.1-0.1
		v-1.7L57.6,49.2L57.6,49.2z M57.9,50.9l0.7-0.4l0.1-0.1l0.1-0.1v-1.7h-0.1l0,0l-0.7,0.4l-0.1,0.1 M56.7,48.2L56.7,48.2l-0.5,0.3
		l-0.1,0.1v0.1V49v0.1l0.1,0.1l0.3,0.1h0.1h0.1l0.5-0.3l-0.3-0.3l-0.1-0.1L56.7,48.2L56.7,48.2z M55.1,52.6l0.7-0.4l0.1-0.1v-0.1
		v-1.7v-0.1h-0.1l-0.7,0.4 M54.8,49.8l0.3,0.2l-0.5,0.3h-0.1L54.2,50 M56.5,51.3l-0.4,0.2H56l0,0v-0.4v0.3 M56,51L56,51 M60.6,48.3
		v2.1l-0.1,0.1l-0.1,0.1l-0.8,0.5h-0.1V51v-2.1v-0.1l0.1-0.1l0.8-0.5L60.6,48.3L60.6,48.3z M60.7,50.4l0.9-0.5l0.1-0.1l0.1-0.1v-2.1
		 M55.7,48.9v-2.1 M51.3,42.4l-0.1,0.1v1.8l0.1,0.1h0.1l0.5-0.3v-2.2l-0.5,0.3L51.3,42.4z M51.4,44.8L51.3,45l-0.1,0.1v1.8l0.1,0.1
		h0.1l0.6-0.4v-2.2h-0.1L51.4,44.8z M53.7,47.8L53.7,47.8l-0.1,0.1V50 M51.3,47.5l-0.1,0.1v1.8l0.1,0.1h0.1l0.5-0.3V47l-0.5,0.3
		L51.3,47.5z M53.7,50.2l1.8-1.1"/>
	<path id="Layer3_4_MEMBER_1_MEMBER_179_1_STROKES" class="st2" d="M46.5,141.5h-0.3l-0.2-0.1l-1.3-0.7l-0.1-0.2v-0.3
		c0,0.1-0.1,0.1-0.2,0.2c-0.1,0-0.1,0-0.3-0.1l-0.4-0.3l-0.1-0.1l-0.1-0.1l0.1-0.1l0.1-0.1l0.9-0.5V9.5c0-0.4,0.1-0.7,0.3-1
		c0.2-0.4,0.4-0.7,0.7-0.8l7.4-4.3c0.2-0.1,0.4-0.1,0.5,0l1,0.6l0.3-0.1 M58.8,14.3l-3.4-9l-0.1-0.1L55.1,4l-0.1-0.1l0,0L55,3.8
		 M54.5,4l-7.6,4.4c-0.3,0.1-0.5,0.4-0.7,0.7c-0.2,0.4-0.3,0.7-0.3,1v130.6l0.1,0.4l0.1,0.2 M47.8,17.4l5-2.9 M52.9,15l3.4,2
		 M67.6,53.4V37.1l-3-7.7 M54.7,52.8l0.1-0.1l0.1-0.1l0.1-0.1v-1.7l-0.1-0.1h-0.1l-0.7,0.4l-0.1,0.1v0.1v0.1 M54,50.3l0.3,0.3
		l-0.5,0.3h-0.1h-0.1l-0.3-0.1 M53.2,50L53.2,50L53.2,50l-0.1,0.6 M51.4,58.1l-4.6,2.7 M50.3,23.4v31.3 M70.4,112.8V75.5l-0.1-0.3
		L70,74.9l-0.3-0.2l-0.1-0.1l-0.1,37.6 M69.5,75.1v-0.4v-0.1l0.1-0.1l0.1-0.1l12.1-7l3-1.7l0.6-0.4h0.1l0.1,0.1v0.1v0.2L85.4,66l0,0
		l0.2-0.1l0.1-0.2v-0.6l-5.1-3 M46.4,62.4l22.5,13l0.2,0.1h0.1l0.1-0.1l0.1-0.2 M69.2,75.4l0.2-0.1 M78.7,75.1
		c0.8,0.5,1.2,1.3,1.1,2.4c-0.1,1-0.4,2.1-1.1,3.2c-0.7,1.1-1.4,1.9-2.3,2.4c-1,0.5-1.8,0.5-2.6,0c0.1,0.1,0.3,0.3,0.5,0.4
		c0.7,0.4,1.5,0.3,2.4-0.2c1-0.6,1.8-1.4,2.4-2.6c0.7-1.1,1-2.2,1-3.4c0-1.1-0.4-1.8-1-2.2C79,75.2,78.8,75.1,78.7,75.1z M78.7,75.1
		c-0.6-0.1-1.3,0-2,0.4c-1,0.5-1.8,1.4-2.4,2.6c-0.7,1.2-1,2.3-1,3.3c0,0.7,0.1,1.3,0.5,1.8 M63.4,76.6l-1.1-0.7 M50.4,99.9l8,4.6
		 M48.7,92l12.1,7 M48.4,98.6l-1.7,1 M78.7,91.9c-0.6-0.1-1.3,0-2.1,0.4 M78.7,91.9c0.1,0.1,0.3,0.1,0.4,0.2
		c0.7,0.4,1.1,1.2,1.1,2.3c0,1.2-0.4,2.4-1,3.5c-0.7,1.2-1.5,2.1-2.5,2.7c-1,0.6-1.8,0.7-2.5,0.3c-0.2-0.1-0.4-0.4-0.6-0.6
		c-0.3-0.4-0.4-1-0.4-1.8c0-1.2,0.4-2.4,1-3.5c0.7-1.2,1.5-2.1,2.5-2.7 M73.5,100.3c0.8,0.7,1.7,0.7,2.7,0.1c1-0.5,1.8-1.3,2.5-2.6
		c0.7-1.2,1.1-2.4,1.2-3.5c0.1-1.3-0.4-2.1-1.3-2.6 M66.1,93.3V74.7 M69.3,74.5L46.5,61.3 M81.8,67.5l0.4-0.1h0.1h0.1l0.1,0.1
		l0.3,0.3l0.1,0.2l0.1,0.3l0.1,0.3v36.9 M84.7,65.8l0.4,0.3l0.2,0.1l0.1-0.1 M82.1,68v37.2 M60,15.5l-7.9,4.6 M58.6,19.9l-1-0.5
		 M94.5,111.8l-0.4,0.2c-0.1,0.1-0.4,0.3-0.6,0.6c-0.3,0.4-0.4,0.6-0.5,0.7l-0.4,0.3l-7.1,4.1l-0.4,0.1L84,118l-0.3,0.1l-0.4,0.2
		l-0.2,0.1l-0.1,0.2l-0.1,0.3l-0.1,0.3v1.2l-0.1,0.1l12-6.9l0.3-0.2l0.1-0.1v-1.2l-0.1-0.2l-0.1-0.1l-0.1-0.1L94.5,111.8z
		 M93.2,112.6l-0.2-0.1h-0.3h-0.3l-0.2,0.1L80.9,119l-0.1,0.1l-0.1,0.1l0.1,0.1l0.1,0.1l1.3,0.7 M93.2,114.7l0.9,0.5l0.1,0.1h0.1
		l0,0h0.1l0,0l0.2-0.1c0.1-0.1,0.2-0.1,0.2-0.4v-1c0-0.1,0-0.1-0.1-0.2c-0.1,0-0.1-0.1-0.1,0 M94.7,114.9l-0.9-0.5 M46.4,100
		l35.9,20.7c0-0.1,0.1-0.1,0.1-0.1l-0.1-0.1 M46.3,101.2l23.1,13.3l3,1.7l4.4,2.5l0.7,0.4l2.3,1.3l2.7,1.6c-0.1,0-0.1-0.1-0.1-0.2
		v-1c0-0.1,0-0.1,0.1-0.1 M82.6,120.6l-0.1,0.1 M82.9,121.7v0.2l-0.1,0.1l-0.1,0.1l-0.1,0.1c-0.1,0.1-0.1,0.1-0.2,0.1c0,0,0,0-0.1,0
		l0,0l0.1,0.1 M82.8,121.5l-0.2-0.1 M76.7,118.8c-0.8,1-1.7,1.6-2.8,1.7c-1.2,0.1-1.8-0.6-2.1-2c-0.1,1.2,0.3,2.1,1.2,2.5
		c1.3,0.7,2.8,0.1,4.4-1.8 M74.9,123.7c0.7-0.4,1.3-0.4,1.8-0.1c0.6,0.4,0.9,1,0.9,1.9c0,1-0.3,2-0.9,3c-0.6,1-1.3,1.8-2.1,2.2
		c-0.8,0.5-1.5,0.6-2.1,0.2c-0.5-0.3-0.8-0.9-0.9-1.7c0-0.1,0-0.2,0-0.3c0-1,0.3-2,0.9-3c0.6-1,1.3-1.8,2.1-2.3
		C74.8,123.9,74.8,123.8,74.9,123.7z M74.9,123.7c1.3-0.4,2,0.1,2.2,1.4c0.1,1.2-0.1,2.2-0.7,3.2c-0.5,1-1.3,1.8-2.4,2.3
		c-1.2,0.5-2,0.1-2.4-1.2 M72.3,116.3c-0.3,0.8-0.5,1.5-0.5,2.2 M47,138.9l-0.1,0.2l-0.1,0.3v0.3v1.7l0.1,0.2l0.1,0.2l0.1,0.1
		l0.5,0.3c0.4,0.2,0.7,0.1,1.2-0.1c0.2-0.1,0.6-0.4,1.1-0.7c0.6-0.1,0.9-0.3,0.9-0.6c0.1-0.2-0.2-0.5-0.7-0.7
		c-0.2-0.1-0.3-0.4-0.2-0.6l0.6-0.9l0.1-0.2v-0.1v-0.1v-0.8l-0.1-0.2l-0.1-0.1h-0.1l-0.2,0.1l-2.7,1.5L47,138.9z M49.8,139.1
		l0.4-0.2 M49.8,139.1l-0.1-0.1l0,0h-0.1h-0.1l-0.1-0.1l-0.1-0.2v-0.1v-0.2l0.1-0.3l0.1-0.1l0.1-0.1l0.2-0.1h0.1H50l0.1,0.1v0.1
		l0.1,0.2l-0.2,0.5 M50.1,138.1l-0.4,0.2l-0.2,0.4l0.2,0.3 M49.9,137.9l0.2,0.2 M49.3,138.6l0.3,0.1 M49.8,138.3l-0.3-0.1
		 M57.1,119.3L52.2,136l-0.6,1l-1,1.4 M48.1,139.4L48.1,139.4 M48.1,139.4v-0.1l-0.1-0.1h-0.1L48.1,139.4l-0.4,0.2l-0.1,0.5l0.1,0.3
		l0.4-0.2l0.2-0.6L48.1,139.4z M47.8,139.1L47.8,139.1l-0.3,0.1l-0.1,0.1l0.3,0.1 M47.4,139.4L47.4,139.4l-0.1,0.3v0.2l0.3,0.1
		 M47.2,139.9L47.2,139.9v0.2l0.1,0.1h0.1h0.1l0.1,0.1 M47.5,140.2L47.5,140.2L47.5,140.2 M46.9,141.5l2.7-1.5 M49.5,139.1h0.1
		 M75.6,133.3c0.4,0.3,0.7,0.8,0.7,1.5s-0.2,1.5-0.7,2.3c-0.4,0.8-1,1.4-1.7,1.8c-0.7,0.4-1.2,0.4-1.7,0.1c-0.4-0.2-0.7-0.7-0.7-1.3
		c0-0.1,0-0.1,0-0.2c0-0.7,0.2-1.5,0.7-2.3c0.4-0.7,1-1.3,1.5-1.7c0.1,0,0.1-0.1,0.1-0.1C74.5,133.1,75,133,75.6,133.3z M71.5,137.7
		c0.4,1,1,1.3,2,0.7c0.9-0.4,1.5-1.1,1.8-1.9c0.5-0.8,0.6-1.6,0.4-2.4c-0.3-0.9-0.9-1.1-1.9-0.7 M71.3,144.4c0-0.6,0.1-1.2,0.5-1.8
		c0.4-0.7,0.8-1.2,1.3-1.5c0.1,0,0.1-0.1,0.1-0.1c0.7-0.3,1.3-0.3,1.5,0s0.4,0.7,0.4,1.4c-0.1,1.5-0.8,2.6-1.9,3.2
		c-0.4,0.3-0.9,0.4-1.3,0.2c-0.4-0.1-0.6-0.5-0.7-1C71.3,144.6,71.3,144.4,71.3,144.4z M71.3,144.4c0.2,1,0.7,1.3,1.5,0.8
		c0.7-0.4,1.3-1,1.5-1.8c0.4-0.6,0.4-1.3,0.2-1.8c-0.2-0.7-0.7-0.9-1.5-0.5 M74.2,148.4c-0.1,1.1-0.6,1.9-1.4,2.4
		c-1,0.5-1.5,0.1-1.5-1c0.1-1.1,0.6-1.9,1.5-2.4C73.8,147,74.3,147.3,74.2,148.4z M44.5,140.1L44.5,140.1v-1.3 M73.8,151.1
		L73.8,151.1l0.2,0.1v0.1l0.1,0.2l-0.1,0.6l-0.4,0.2l-0.1-0.1l0,0h-0.1h-0.1l-0.1-0.1l-0.1-0.2v-0.1v-0.2l0.1-0.3l0.1-0.1l0.1-0.1
		L73.8,151.1L73.8,151.1z M73.8,151.1l0.2,0.2v0.1 M74.4,150.2l-0.1-0.1l-0.2,0.1l-3.1,1.8l-0.2,0.2l-0.1,0.3l-0.1,0.3v1.3v0.7
		l0.1,0.1l0,0l4-2.3v-0.1l-0.1-0.1v-0.7v-1.2L74.4,150.2z M74.5,151.6L74.5,151.6L74.5,151.6l5.2-31 M73.6,152.3L73.6,152.3
		 M74.1,151.3l-0.4,0.2l-0.1,0.5l0.1,0.3 M73.2,151.9l0.3,0.1 M73.4,151.4l0.3,0.1 M70.5,154.8l0.1,0.1l0.1,0.1l0.6,0.4l0.3,0.1h0.2
		l0.3-0.1l3.1-1.8l0.1-0.1v-0.1l-0.1-0.1l-0.6-0.4l-0.1-0.1l-0.1-0.1 M72,152.5l-0.2-0.2 M72,152.5L72,152.5L72,152.5l-0.1-0.1h-0.1
		h-0.1l-0.2,0.1l-0.1,0.1l0.3,0.2L72,152.5z M69.4,114.6V153c0,0.3,0.1,0.5,0.3,0.7c0.2,0.2,0.5,0.3,0.8,0.3 M71.4,153.4h-0.1
		l-0.1-0.1l-0.1-0.2v-0.1v-0.2l0.1-0.3l0.1-0.1 M71.6,152.8l-0.2,0.5v0.1l0.1,0.2l0.4-0.2l0.1-0.5l-0.1-0.2 M71.1,153.1l0.3,0.1
		 M70.2,153.7v-38.1 M92.5,112l-9.4-6.7 M82,105.1l-11.3,6.5 M82.5,120.6L82.5,120.6 M50.2,138.1L50.2,138.1"/>
	<path id="Layer3_4_MEMBER_1_MEMBER_180_1_STROKES" class="st1" d="M46.7,60.7L46.4,61l-0.1,0.4v1 M69.1,75.6l-1,0.6l0.5,0.3
		l0.9-0.6 M69.6,77l-0.9-0.5 M69.5,75.1l-0.1,0.1 M65.4,77.6l0.7,0.4 M65.4,77.5L65.4,77.5 M65.4,75.3v2.2 M65.4,75.2L65.4,75.2
		 M65.5,75.1L65.5,75.1 M66.1,74.8l-0.6,0.3 M66.1,74.8L66.1,74.8l0.1-0.1l0.1-0.1l0.1-0.1l0.1-0.3 M68.1,76.2L66.2,75l-0.1-0.1
		v-0.1 M66.1,82.3l-0.6-0.4l-0.1-0.1v-0.9l0.1-0.1l0.1-0.1l0,0l-0.1-0.1l-0.1-0.1v-0.9l0.1-0.1l0.1-0.1l0.5-0.3 M66.1,81l-0.5-0.4
		 M46.7,99.6l-0.2,0.2l-0.2,0.4v1 M50,106l0.2,0.2l0.2,0.1l0.1-0.1l0.1-0.2l-0.1-0.3l-0.1-0.3l-0.2-0.2l-0.2-0.1l-0.1,0.1l-0.1,0.2
		l0.1,0.3L50,106z M51.5,105.7l-0.3,0.4 M51.5,105.7l-0.3-0.8l-0.7-0.4l-0.3,0.4c-0.1-0.3-0.1-0.5,0.1-0.7c0.1-0.1,0.4-0.1,0.7,0
		c0.3,0.1,0.5,0.4,0.7,0.7c0.2,0.4,0.2,0.7,0.2,1l-0.1,0.3l-0.2,0.1h-0.2l-0.3-0.1l-0.1-0.1h-0.1l-0.2,0.1 M50.9,106.1L50.9,106.1
		l0.1-0.2v-0.2l-0.1-0.3l-0.1-0.2l-0.2-0.1h-0.2l-0.4,0.2 M50.8,104.4l-0.2,0.1 M50.9,106.1L50.9,106.1 M51.7,105.6l-0.2,0.1
		 M51.2,104.9l0.2-0.1 M66.1,93.3v0.1l0.1,0.1l3.2,1.9 M83,105.5l-0.8-0.3 M82.9,121.7l-0.1-0.1 M65.7,113.2h0.2l0.1,0.1l0.1,0.3
		v1.1l-0.1,0.3l-0.1,0.3l-0.4,0.4l-0.4,0.3h-0.1l-0.4,0.1l-0.3-0.1l-0.2-0.2l-0.1-0.4V115l0.1-0.5l0.3-0.5l0.4-0.4l0.4-0.3
		L65.7,113.2 M52,114.7l-0.1,0.1v0.4l-0.4-0.2l-0.3,0.1l8.4,4.9l0,0V120l0.1-0.1h0.1l0,0l0,0h0.1c0.1,0.1,0.3,0.1,0.5,0.1h0.1h0.1
		l0,0c0,0,0,0,0.1,0l0.1,0.1h0.1l5.6-3.2l0,0v-0.1l0.1-0.1l0.1-0.1l0.1-0.2l0.1-0.1l0.2-0.1h0.1l0.1-0.1l0,0L68,114 M70.4,112.8
		l-0.7-0.5 M54.6,115.5h-0.4l-0.4,0.2l-1-0.5v-0.7l-0.1-0.1l-0.1-0.2l-0.1-0.2l0.1-0.1l0.2-0.1h0.4l0.9,0.5l0.4,0.4l0.1,0.2l0.1,0.3
		l-0.1,0.1 M57.4,116.4L57.4,116.4l-0.1,0.1l-0.1,0.1l0.1,0.2l0.1,0.2l0.1,0.1v-0.4l0.4-0.3H57.4z M57.4,116.7l1,0.5l0.4-0.2
		l0.1-0.1l-1-0.5 M49.2,111L49.2,111 M49.2,111l-0.7,0.4l-0.4,0.2l1.8,1.1l1.1-0.7l-0.3-0.1l0,0l-0.5,0.3l-1.5-0.9L49.2,111l1.5,1
		 M50.9,112v-0.5l-1.5-0.9v0.5 M50,114.7v-2.1 M50,114.7L50,114.7l0.9,0.5v-2.1l-0.9-0.5 M48.1,111.6v2.1l1.8,1 M53.4,113.8
		l-0.4,0.3l1,0.5l0.4-0.2l0.1-0.1 M52.9,114.1v0.4 M50.9,113.3l1.1-0.5v0.1v1.7 M51.8,112l-0.7-0.4v0.5v0.1l0.7,0.4V112z
		 M51.1,112.1l-0.4,0.3l0.7,0.4l0.4-0.3 M51.1,112.1L51.1,112.1 M50.9,115.3l0.2-0.1 M51.4,115l0.4-0.2 M54.3,115.5v-1.1
		 M53.9,115.7v-1 M58.7,117v1h0.4l0.1-0.1l0.1-0.1v-0.1l-0.1-0.2l-0.1-0.2l-0.4-0.4 M59.3,118L59.3,118l0.1-0.1 M59.6,120L59.6,120
		L59.6,120L59.6,120L59.6,120L59.6,120L59.6,120L59.6,120 M59.6,120L59.6,120L59.6,120h0.1l0.1-0.1 M59.9,119.9
		c0.1,0.1,0.2,0.1,0.4,0.1c0.1,0,0.2,0,0.3,0.1 M57.4,117.1v0.7l1,0.5v-1 M58.3,118.3l0.4-0.2 M60.2,119.7v-10.1 M48.5,102.8v8.6"/>
	<path id="Layer3_4_MEMBER_1_MEMBER_181_1_STROKES" class="st1" d="M54,107.9L54,107.9L54,107.9l-0.3,0.1l-0.1,0.1l-0.2-0.1
		l-0.2-0.2l-0.1-0.3l-0.1-0.3l0.1-0.2l0.1-0.1l0.4-0.2h0.2l0.2,0.1l0.1,0.2l0.1,0.3v0.2l-0.1,0.1L54,107.9z M54,107.9
		c0.7,0.4,1,0.4,1-0.3c0-0.7-0.2-1.2-0.8-1.5c-0.3-0.1-0.5-0.1-0.7,0c-0.1,0.1-0.2,0.4-0.1,0.7l0.3-0.4l0.2-0.1 M56.9,108.6
		l-0.2-0.1h-0.2l-0.4,0.2l0.2,0.1l0.2,0.2l0.1,0.3l0.1,0.3l-0.1,0.2l0.2-0.1l0,0h0.1H57l0.1-0.3v-0.2l-0.1-0.3L56.9,108.6z
		 M57.5,108.2l-0.2,0.1l0.3,0.8l0.2-0.1 M54.8,107.4l-0.2,0.1l-0.3,0.4 M56.1,108.7l-0.1,0.1l-0.1,0.2l0.1,0.3l0.1,0.3l0.2,0.2
		l0.2,0.1l0.1-0.1 M57.3,108.4l-0.7-0.4l-0.3,0.4c-0.1-0.3,0-0.5,0.1-0.7c0.1-0.1,0.4-0.1,0.7,0c0.6,0.4,0.9,0.9,0.9,1.5
		c0,0.7-0.4,0.7-1,0.3 M54,110.2L54,110.2L54,110.2l-0.3,0.1l-0.1,0.1l-0.2-0.1l-0.2-0.2l-0.1-0.3l-0.1-0.3l0.1-0.2l0.1-0.1l0.4-0.2
		h0.2l0.2,0.1l0.1,0.2l0.1,0.3v0.2l-0.1,0.1L54,110.2z M54,110.2l0.2,0.1l0.3,0.1h0.3l0.2-0.1l0.1-0.3v-0.4l-0.1-0.4l-0.2-0.4
		l-0.3-0.3l-0.3-0.2c-0.3-0.1-0.5-0.1-0.7,0c-0.1,0.1-0.2,0.4-0.1,0.7l0.3-0.4l0.2-0.1 M54.8,109.8l-0.2,0.1l-0.3,0.4 M53.6,111.4
		L53.6,111.4l0.2,0.1l0.2,0.1l0.1,0.2l0.1,0.3v0.2l-0.1,0.1l-0.1,0.1l0.2,0.1l0.3,0.1h0.3l0.2-0.1l0.1-0.3V112l-0.1-0.4l-0.2-0.4
		l-0.3-0.3l-0.3-0.2c-0.3-0.1-0.5-0.1-0.7,0C53.5,110.9,53.4,111.1,53.6,111.4l0.2-0.4L54,111 M56.5,111.3l0.1,0.3l0.1,0.3l-0.1,0.2
		l0.1-0.1h0.1H57h0.1l0.1-0.1v-0.2l-0.1-0.3l-0.1-0.2l-0.2-0.1h-0.2l-0.4,0.2l0.2,0.1H56.5z M56.7,112.1l-0.1,0.1l-0.2-0.1l-0.2-0.2
		l-0.1-0.3l-0.1-0.3l0.1-0.2l0.1-0.1 M57.3,112l0.3-0.4l-0.3-0.8l-0.7-0.4l-0.3,0.4c-0.1-0.3,0-0.5,0.1-0.7c0.1-0.1,0.4-0.1,0.7,0
		c0.6,0.4,0.9,0.9,0.9,1.5s-0.4,0.7-1,0.3 M57.5,110.6l-0.2,0.1 M57.6,111.6l0.2-0.1 M56.8,107.9l-0.2,0.1 M57.3,109.6l0.3-0.4
		 M56.8,110.2l-0.2,0.1 M57,114.3L57,114.3h-0.1l-0.1,0.1l-0.1,0.1l-0.2-0.1l-0.2-0.2l-0.1-0.3l-0.1-0.3l0.1-0.2l0.1-0.1l0.4-0.2
		h0.2l0.2,0.1l0.1,0.2l0.1,0.3v0.2l-0.1,0.1L57,114.3z M57,114.3l0.1,0.1l0.3,0.1h0.3l0.2-0.1l0.1-0.3v-0.4l-0.1-0.4l-0.2-0.4
		l-0.3-0.3l-0.3-0.2c-0.3-0.1-0.5-0.1-0.7,0c-0.1,0.1-0.2,0.4-0.1,0.7l0.3-0.4l0.2-0.1 M57.5,113l-0.2,0.1l0.3,0.8l0.2-0.1
		 M57.6,113.9l-0.3,0.4 M54.8,112.1l-0.2,0.1l-0.3,0.4 M56.7,114.4l0.1-0.2l-0.1-0.3l-0.1-0.3l-0.2-0.2l-0.2-0.1 M53.4,113.8
		l0.9,0.5l0.4,0.4l0.1,0.2l0.1,0.2l-0.1,0.1v0.1l-0.1,0.1 M56.6,112.7l0.7,0.4 M54.5,106.5l-0.2,0.1l0.3,0.8 M53.7,108l0.1-0.2
		l-0.1-0.3l-0.1-0.3l-0.2-0.2l-0.2-0.1 M53.7,108.7l0.7,0.4l0.2-0.1 M50.4,107.3L50.4,107.3l0.2,0.1l0.2,0.1l0.1,0.2l0.1,0.3v0.2
		l-0.1,0.1h-0.1l0.1,0.1l0.3,0.1h0.2l0.2-0.1l0.1-0.3v-0.4l-0.1-0.4l-0.2-0.4l-0.2-0.3l-0.3-0.2c-0.3-0.1-0.5-0.1-0.7,0
		c-0.1,0.1-0.2,0.4-0.1,0.7 M50.3,107.6l-0.2-0.1l-0.1,0.1l-0.1,0.2l0.1,0.3l0.1,0.3l0.2,0.2l0.2,0.1l0.1-0.1l0.1-0.2l-0.1-0.3
		l-0.1-0.3L50.3,107.6z M51.2,108.5l0.3-0.4l-0.3-0.8l-0.7-0.4l-0.3,0.4 M50.6,106.9l0.2-0.1 M50.6,108.6l0.2-0.1h0.1H51
		 M50.3,109.6L50.3,109.6h0.1h0.2l0.2,0.1L51,110l0.1,0.3v0.2l-0.1,0.1h-0.1l0.1,0.1l0.3,0.1h0.2l0.2-0.1l0.1-0.3v-0.4l-0.1-0.4
		l-0.4-0.7l-0.3-0.2c-0.3-0.1-0.5-0.1-0.7,0C50.3,109.1,50.3,109.3,50.3,109.6z M50.3,109.6l0.3-0.4l0.2-0.1 M51.7,107.9l-0.2,0.1
		 M51.4,107.1l-0.2,0.1 M51.7,110.3l-0.2,0.1l-0.3,0.4 M50.3,109.9l-0.2-0.1l-0.1,0.1l-0.1,0.2l0.1,0.3l0.1,0.3l0.2,0.1l0.2,0.1
		l0.1-0.1l0.1-0.2l-0.1-0.3l-0.1-0.3L50.3,109.9z M50.6,110.9l0.2-0.1h0.1H51 M51.4,109.5l-0.2,0.1l0.3,0.8 M53.7,110.4l0.1-0.2
		l-0.1-0.3l-0.1-0.3l-0.2-0.2l-0.2-0.1 M53.4,111.4L53.4,111.4h0.1 M53.1,111.6l0.2,0.1 M53.1,111.6l-0.1,0.1l-0.1,0.2l0.1,0.3
		l0.1,0.3l0.2,0.2l0.2,0.1l0.1-0.1l0.1-0.2l-0.1-0.3l-0.1-0.3l-0.2-0.2 M53.4,111.5l-0.3,0.1 M53.7,111l0.7,0.4l0.2-0.1 M51.2,109.6
		l-0.7-0.4 M53.7,112.7l0.2-0.1l0,0H54 M50.4,107.3l-0.4,0.2 M50.3,109.7l-0.3,0.1 M54.3,109l0.3,0.8 M54.6,112.2l-0.3-0.8
		 M54.3,106.7l-0.7-0.4"/>
	<path id="Layer3_4_MEMBER_1_MEMBER_182_1_STROKES" class="st1" d="M47.7,63.8l-0.3,0.1 M47.7,63.7L47.7,63.7 M48.2,63.7h-0.5
		 M48.2,63.7v-0.1 M46.6,64.4l-0.1,0.1v0.1l0,0l0.4,0.2h0.1l1.5-0.9l-0.2-0.1 M48.4,89.8l-1.5,0.9h-0.1l-0.4-0.2l0,0v-26"/>
	<path id="Layer3_4_MEMBER_1_MEMBER_183_1_STROKES" class="st1" d="M58.5,69.8l-1.5,0.9l-1,2.6l1,1.4l0.1,0.1l0.8-0.4l-0.7-0.4
		l-0.3-0.2l-0.1-0.3L56.8,73c0-0.6,0.2-1.2,0.7-1.8c0.5-0.7,1-0.9,1.5-0.7l1.1,0.6V71l-0.5-0.7 M60.2,71.1L60.2,71.1
		c0.1,0.1,0.2,0.1,0.3,0.1c0.2,0.1,0.4,0.4,0.4,0.8l0,0c0,0.1,0,0.1,0,0.1c0,0.9-0.4,1.7-1.3,2.3c-0.1,0.1-0.1,0.1-0.2,0.1l0.7,1
		l-0.1,0.1l0.1,0.1c0.1,0,0.1,0,0.2,0.1c0.2,0.1,0.3,0.4,0.4,0.7c0,0.1,0,0.1,0,0.2c0.1,0.8-0.3,1.5-1.2,2.1c-0.4,0.3-0.7,0.4-1,0.3
		c-0.1-0.1-0.1-0.1-0.2-0.2l-0.4-0.2l-0.8,0.5L57,79.3l-1-1.4l1-2.5l1.2-0.8l-0.3-0.1 M60.3,71.1c-0.2,0-0.5,0.1-0.8,0.3
		c-0.9,0.6-1.3,1.4-1.3,2.3c0.1,0.4,0.1,0.7,0.3,0.9c0.1,0.1,0.1,0.1,0.1,0.1c0.2,0.1,0.5,0.1,0.8-0.1 M58.5,78.9
		c-0.1-0.1-0.1-0.4-0.2-0.7c-0.1-0.9,0.4-1.5,1.2-2.1c0.3-0.2,0.5-0.3,0.7-0.3 M60.2,75.6l-1-0.6c-0.5-0.1-1,0.1-1.5,0.7
		c-0.4,0.6-0.7,1.1-0.7,1.7l0.1,0.4l0.1,0.3l0.2,0.1l0.7,0.4 M58.8,81.4l-1.4,0.8L56.7,84l0.7,1l0.1,0.1l0.7-0.4l-0.7-0.4l-0.1-0.2
		l-0.1-0.3l0.1-0.4l0.1-0.4l0.2-0.4l0.3-0.3l0.3-0.1l0.3-0.1l0.2,0.1l0.7,0.4l0.1-0.1l-0.7-1L58.8,81.4z M58.2,84.7l0.3,0.1v-0.1
		l-0.1-0.3c0-0.3,0.1-0.6,0.3-1c0.2-0.4,0.4-0.6,0.7-0.7l0.3-0.1l0.2,0.1l-0.4-0.2 M58.5,84.8l0.1,0.1l0.1,0.1h0.1h0.1h0.2
		c0.3-0.1,0.5-0.3,0.7-0.7c0.2-0.3,0.3-0.7,0.3-1l-0.1-0.3l-0.1-0.2 M58.9,85l0.7,1l-0.1,0.1l0.3,0.2l0.1,0.1
		c0.1,0.1,0.2,0.3,0.2,0.5l-0.1,0.4l-0.1,0.4l-0.2,0.4l-0.3,0.3c-0.3,0.2-0.5,0.3-0.7,0.2c-0.1,0-0.2-0.1-0.3-0.2l-0.3-0.1l-0.7,0.4
		l-0.1-0.1l-0.7-1l0.7-1.8l1.4-0.8 M59.9,86.4L59.9,86.4c-0.3-0.1-0.5,0-0.7,0.1l-0.3,0.3l-0.2,0.4l-0.1,0.4L58.4,88
		c0,0.1,0,0.3,0.1,0.4 M58.2,88.3L57.5,88l-0.1-0.2l-0.1-0.3l0.1-0.4l0.1-0.4l0.2-0.4L58,86l0.3-0.1l0.3-0.1l0.2,0.1l0.7,0.4
		 M53.8,66.9v25.9 M48.4,89.8v-26"/>
	<path class="st3" d="M191.2,11.7l-2-1.1l-0.8,0.4v1l-1.6,0.9l-0.8-0.4l-1.7,1v0.9l-34.5,19.9V35h-3l-1.6,1l0.1,1l-1.6,1l-0.9-0.5
		l-0.8,0.5v106.2l2,1.1l5.9-3.4l20.3,11.8l0.7,0.3l1.2,0.3h1.2l1.2-0.3l0.7-0.3l29.7-17.1l0.7-0.6l0.2-0.7V27.4l-0.2-0.7l-0.7-0.6
		l-0.2-0.1l-13.4-7.6V11.7 M182.6,17.1l0.1-0.3l0.3-0.3l0.4-0.2l0.6-0.1l0.6,0.1l0.5,0.2l0.3,0.3l0.2,0.3l-0.1,0.3l-0.3,0.3
		l-0.4,0.2l-0.5,0.1h-0.6l-0.5-0.2l-0.3-0.3L182.6,17.1 M155.9,33.7l0.2,0.3l-0.1,0.3l-0.3,0.3l-0.5,0.2l-0.6,0.1l-0.5-0.1l-0.5-0.2
		l-0.3-0.3l-0.1-0.3l0.1-0.3l0.3-0.3l0.5-0.2l0.5-0.1h0.6l0.5,0.2L155.9,33.7 M171.1,44.5l0.1-0.3l0.3-0.3l0.4-0.2l1-0.1l0.6,0.2
		l0.3,0.3l0.2,0.3l-0.1,0.3l-0.3,0.3l-0.5,0.2h-0.5H172l-0.5-0.2l-0.3-0.2L171.1,44.5 M203.1,26.8l0.3,0.3l0.2,0.3l-0.1,0.3
		l-0.3,0.3l-0.4,0.2l-0.5,0.1l-0.6-0.1l-0.4-0.2l-0.3-0.3l-0.2-0.3l0.1-0.3l0.3-0.3l0.5-0.2l0.5-0.1l0.6,0.1L203.1,26.8 M193.6,58.2
		l1.3,0.7l4.2,5.9l1.8,1.3l0.7,1.2l0.3,1.6l-0.1,1.8l-0.4,1.9l-0.9,1.9l-1.1,1.8l-1.3,1.6l-1.6,1.2l-1.5,0.8h-0.1l3.2,4.5l0.6,0.6
		l0.4,1l0.2,1.3l-0.2,1.6l-0.4,1.6l-0.8,1.6l-1,1.4l-1.1,1.2l-1.2,0.9l-1.3,0.4l-1,0.2l-1-0.3l-1.3-0.7l-2.9,1.6l-1-0.5l-3.5-4.9
		l3.5-8.9l5.2-2.9l-1.6-0.9l-2.9,1.8l-0.1-0.1l-1.3-0.7l-4.1-5.8l4.1-10.5L193.6,58.2 M202.3,62.6l0.4-0.2l0.3,0.1l0.3,0.2l0.1,0.3
		l-0.1,0.5l-0.2,0.5l-0.3,0.4l-0.4,0.3l-0.3,0.2h-0.3l-0.3-0.2l-0.1-0.3l0.1-0.5l0.2-0.5l0.3-0.5L202.3,62.6 M177.5,77.7l0.1,0.3
		v0.5l-0.2,0.5l-0.3,0.5l-0.3,0.3l-0.4,0.2h-0.3l-0.3-0.2l-0.1-0.4l0.1-0.5l0.2-0.5l0.3-0.5l0.4-0.3l0.4-0.2l0.3,0.1L177.5,77.7
		 M202.8,90.1l0.3,0.1l0.3,0.2l0.1,0.3l-0.1,0.5l-0.2,0.5l-0.3,0.5l-0.4,0.3l-0.3,0.2h-0.3l-0.3-0.3l-0.1-0.3l0.1-0.5l0.2-0.5
		l0.3-0.5l0.4-0.3L202.8,90.1 M195.9,112.2l1,0.6l0.6,0.5l0.3,0.8l0.1,1l-0.1,1.1l-0.3,1.2l-0.6,1.1l-0.7,1l-1.8,1.6l-1,0.3
		l-0.9,0.1l-0.8-0.2l-1.6-1l-2.7,1.6l-1-0.6l-2.9-4l2.9-7.4l5.6-3.3l1,0.5l2.9,4.1L195.9,112.2 M177.5,105.4l0.1,0.3v0.5l-0.2,0.5
		l-0.3,0.5l-0.3,0.3l-0.4,0.2l-0.3-0.1l-0.3-0.2l-0.1-0.3l0.1-0.5l0.2-0.5l0.3-0.5l0.4-0.3l0.4-0.2l0.3,0.1L177.5,105.4
		 M177.3,145.4l0.2,0.2l0.1,0.4v0.5l-0.2,0.5l-0.3,0.5l-0.3,0.3l-0.4,0.2l-0.3-0.1l-0.3-0.3l-0.1-0.3l0.1-0.5l0.2-0.5l0.3-0.5
		l0.4-0.3l0.4-0.2L177.3,145.4 M192.6,136.6l-0.8-0.2l-1.6-0.9l-2.7,1.6l-1-0.6l-2.9-4l2.9-7.4l5.8-3.1l0.9,0.4l2.9,4.1l-0.2,0.5
		l1,0.5l0.6,0.5l0.3,0.8l0.1,1l-0.1,1.1l-0.3,1.2l-0.6,1.2l-0.7,1l-1,1l-0.9,0.7l-1,0.3L192.6,136.6 M203.1,130.4l0.3,0.2l0.1,0.4
		l-0.1,0.5l-0.2,0.5l-0.3,0.5l-0.3,0.3l-0.3,0.2l-0.3-0.1l-0.3-0.2l-0.1-0.3l0.1-0.5l0.2-0.5l0.3-0.5l0.4-0.3l0.4-0.2L203.1,130.4
		L203.1,130.4z"/>
	<path class="st4" d="M203.4,130.6l-0.3-0.2h-0.3l-0.4,0.2l-0.4,0.3l-0.3,0.5l-0.2,0.5l-0.1,0.5l0.1,0.3l0.3,0.2l0.3,0.1l0.3-0.2
		l0.4-0.3l0.3-0.5l0.2-0.5l0.1-0.5V130.6 M177.5,145.5l-0.2-0.2H177l-0.4,0.2l-0.4,0.3l-0.3,0.5l-0.2,0.5l-0.1,0.5l0.1,0.3l0.3,0.3
		l0.3,0.1l0.4-0.2l0.3-0.3l0.3-0.5l0.2-0.5V146L177.5,145.5 M177.6,105.7l-0.1-0.3l-0.2-0.2l-0.3-0.1l-0.4,0.2l-0.4,0.3l-0.3,0.5
		l-0.2,0.5l-0.1,0.5l0.1,0.3l0.3,0.2l0.3,0.1l0.4-0.2l0.3-0.3l0.3-0.5l0.2-0.5L177.6,105.7 M203.1,90.2l-0.3-0.1l-0.4,0.2l-0.4,0.3
		l-0.3,0.5l-0.2,0.5l-0.1,0.5l0.1,0.3l0.3,0.3h0.3l0.3-0.2l0.4-0.3l0.3-0.5l0.2-0.5l0.1-0.5l-0.1-0.3L203.1,90.2 M177.6,78l-0.1-0.3
		l-0.2-0.2l-0.3-0.1l-0.4,0.2l-0.4,0.3l-0.3,0.5l-0.2,0.5l-0.1,0.5l0.1,0.4l0.3,0.2h0.3l0.4-0.2l0.3-0.3l0.3-0.5l0.2-0.5L177.6,78
		 M202.8,62.4l-0.4,0.2l-0.4,0.3l-0.3,0.5l-0.2,0.5l-0.1,0.5l0.1,0.3l0.3,0.2h0.3l0.3-0.2l0.4-0.3l0.3-0.4l0.2-0.5l0.1-0.5l-0.1-0.3
		l-0.3-0.2L202.8,62.4 M203.4,27l-0.3-0.3l-0.5-0.2l-0.6-0.1l-0.5,0.1l-0.5,0.2l-0.3,0.3l-0.1,0.3l0.2,0.3l0.3,0.3l0.4,0.2l0.6,0.1
		l0.5-0.1l0.4-0.2l0.3-0.3l0.1-0.3L203.4,27 M171.2,44.2l-0.1,0.3l0.2,0.3l0.3,0.2l0.5,0.2h0.6h0.5l0.5-0.2l0.3-0.3l0.1-0.3L174,44
		l-0.3-0.3l-0.6-0.2l-1,0.1l-0.4,0.2L171.2,44.2 M156.1,33.9l-0.2-0.3l-0.3-0.3l-0.5-0.2h-0.6l-0.5,0.1l-0.5,0.2l-0.3,0.3l-0.1,0.3
		l0.1,0.3l0.3,0.3l0.5,0.2l0.5,0.1l0.6-0.1l0.5-0.2l0.3-0.3L156.1,33.9 M182.7,16.7l-0.1,0.3l0.2,0.3l0.3,0.3l0.5,0.2h0.6l0.5-0.1
		l0.4-0.2l0.3-0.3l0.1-0.3l-0.2-0.3l-0.3-0.3l-0.5-0.2L184,16l-0.6,0.1l-0.4,0.2L182.7,16.7z"/>
	<path class="st5" d="M191.8,136.4l0.8,0.2l0.9-0.1l1-0.3l0.9-0.7l1-1l0.7-1l0.6-1.2l0.3-1.2l0.1-1.1l-0.1-1l-0.3-0.8l-0.6-0.5
		l-1-0.5l0.2-0.5l-2.9-4.1l-0.9-0.4l-5.8,3.1l-2.9,7.4l2.9,4l1,0.6l2.7-1.6L191.8,136.4 M192.2,131.9l-0.4,0.3l0.8-1.7l0.7-0.9
		l0.2-0.2l-0.6,1.6L192.2,131.9 M197,112.8l-1-0.6l0.2-0.5l-2.9-4.1l-1-0.5l-5.6,3.3l-2.9,7.4l2.9,4l1,0.6l2.7-1.6l1.6,1l0.8,0.2
		l0.9-0.1l1-0.3l1.8-1.6l0.7-1l0.6-1.1l0.3-1.2l0.1-1.1l-0.1-1l-0.3-0.8L197,112.8 M192.9,115.3l0.5-0.6l-0.6,1.6l-0.6,0.9l-0.4,0.4
		l0.1-0.4l0.4-1L192.9,115.3 M194.9,59l-1.3-0.7l-8.2,4.7l-4.1,10.5l4.1,5.8l1.3,0.7l0.1,0.1l2.9-1.8l1.6,0.9L186,82l-3.5,8.9
		l3.5,4.9l1,0.5l2.9-1.6l1.3,0.7l1,0.3l1-0.2l1.3-0.4l1.2-0.9l1.1-1.2l1-1.4l0.8-1.6l0.4-1.6l0.2-1.6l-0.2-1.3l-1-1.6l-3.2-4.5h0.1
		l1.5-0.8l1.6-1.2l1.3-1.6l1.1-1.8l0.9-1.9l0.4-1.9l0.1-1.8l-0.3-1.6l-0.7-1.2l-1.8-1.3L194.9,59z"/>
	<path id="Layer3_6_MEMBER_1_MEMBER_0_1_STROKES" class="st6" d="M191.8,117.6l0.3-0.4l0.6-0.9l0.7-1.5"/>
	<path id="Layer3_6_MEMBER_1_MEMBER_1_1_STROKES" class="st6" d="M195.5,82.3l-0.3-0.1"/>
	<path id="Layer3_6_MEMBER_1_MEMBER_2_1_STROKES" class="st6" d="M195.5,82.3l-0.3-0.1"/>
	<path id="Layer3_6_MEMBER_1_MEMBER_3_1_STROKES" class="st6" d="M191.2,92l0.9-0.8l0.8-1l0.7-1l1-1.9l0.3-1"/>
	<path id="Layer3_6_MEMBER_1_MEMBER_4_1_STROKES" class="st6" d="M197.4,63.5l-0.2-0.1"/>
	<path id="Layer3_6_MEMBER_1_MEMBER_5_1_STROKES" class="st6" d="M197.4,63.5l-0.2-0.1"/>
	<path id="Layer3_6_MEMBER_1_MEMBER_6_1_STROKES" class="st6" d="M192,74.9l1.9-2.1l1.4-2.4l0.8-2.4"/>
	<path id="Layer3_6_MEMBER_1_MEMBER_7_1_STROKES" class="st6" d="M194.9,59l4.2,5.8"/>
	<path id="Layer3_6_MEMBER_1_MEMBER_8_1_STROKES" class="st6" d="M193.6,58.2l1.3,0.7"/>
	<path id="Layer3_6_MEMBER_1_MEMBER_9_1_STROKES" class="st6" d="M189.7,78.3l-2.9,1.8l-4.2-5.8"/>
	<path id="Layer3_6_MEMBER_1_MEMBER_10_1_STROKES" class="st6" d="M181.3,73.4l1.3,0.8"/>
	<path id="Layer3_6_MEMBER_1_MEMBER_11_1_STROKES" class="st6" d="M185.4,79.2l-4.1-5.8"/>
	<path id="Layer3_6_MEMBER_1_MEMBER_12_1_STROKES" class="st6" d="M182.6,74.2l4.2-10.6"/>
	<path id="Layer3_6_MEMBER_1_MEMBER_13_1_STROKES" class="st6" d="M185.4,62.9l1.4,0.8"/>
	<path id="Layer3_6_MEMBER_1_MEMBER_14_1_STROKES" class="st6" d="M181.3,73.4l4.1-10.5"/>
	<path id="Layer3_6_MEMBER_1_MEMBER_15_1_STROKES" class="st6" d="M186.7,63.6l8.1-4.8"/>
	<path id="Layer3_6_MEMBER_1_MEMBER_16_1_STROKES" class="st6" d="M185.4,62.9l8.2-4.7"/>
	<path id="Layer3_6_MEMBER_1_MEMBER_17_1_STROKES" class="st6" d="M194.7,79.7l2.7,3.8"/>
	<path id="Layer3_6_MEMBER_1_MEMBER_18_1_STROKES" class="st6" d="M189.9,94.8l-2.9,1.6l-3.4-4.9"/>
	<path id="Layer3_6_MEMBER_1_MEMBER_19_1_STROKES" class="st6" d="M182.6,91l1,0.6"/>
	<path id="Layer3_6_MEMBER_1_MEMBER_20_1_STROKES" class="st6" d="M186,95.9l-3.5-4.9"/>
	<path id="Layer3_6_MEMBER_1_MEMBER_21_1_STROKES" class="st6" d="M183.5,91.5l3.4-8.9"/>
	<path id="Layer3_6_MEMBER_1_MEMBER_22_1_STROKES" class="st6" d="M186,82.1l1,0.5"/>
	<path id="Layer3_6_MEMBER_1_MEMBER_23_1_STROKES" class="st6" d="M182.6,91l3.5-8.9"/>
	<path id="Layer3_6_MEMBER_1_MEMBER_24_1_STROKES" class="st6" d="M187,82.6l5.2-2.9"/>
	<path id="Layer3_6_MEMBER_1_MEMBER_25_1_STROKES" class="st6" d="M186,82.1l5.2-2.9"/>
	<path id="Layer3_6_MEMBER_1_MEMBER_26_1_STROKES" class="st6" d="M193.3,107.6l2.9,4.1"/>
	<path id="Layer3_6_MEMBER_1_MEMBER_27_1_STROKES" class="st6" d="M192.3,107.1l1,0.5"/>
	<path id="Layer3_6_MEMBER_1_MEMBER_28_1_STROKES" class="st6" d="M196.2,111.7l-0.2,0.5"/>
	<path id="Layer3_6_MEMBER_1_MEMBER_29_1_STROKES" class="st6" d="M190.3,120.8l-2.7,1.6"/>
	<path id="Layer3_6_MEMBER_1_MEMBER_30_1_STROKES" class="st6" d="M186.7,121.7l1,0.6l-2.9-4.1"/>
	<path id="Layer3_6_MEMBER_1_MEMBER_31_1_STROKES" class="st6" d="M183.8,117.7l1,0.5"/>
	<path id="Layer3_6_MEMBER_1_MEMBER_32_1_STROKES" class="st6" d="M186.7,121.7l-2.9-4"/>
	<path id="Layer3_6_MEMBER_1_MEMBER_33_1_STROKES" class="st6" d="M184.7,118.3l2.9-7.3"/>
	<path id="Layer3_6_MEMBER_1_MEMBER_34_1_STROKES" class="st6" d="M186.7,110.3l1,0.6"/>
	<path id="Layer3_6_MEMBER_1_MEMBER_35_1_STROKES" class="st6" d="M183.8,117.7l2.9-7.4"/>
	<path id="Layer3_6_MEMBER_1_MEMBER_36_1_STROKES" class="st6" d="M187.6,110.9l5.7-3.3"/>
	<path id="Layer3_6_MEMBER_1_MEMBER_37_1_STROKES" class="st6" d="M186.7,110.3l5.6-3.3"/>
	<path id="Layer3_6_MEMBER_1_MEMBER_38_1_STROKES" class="st6" d="M187.6,137l-2.9-4.1"/>
	<path id="Layer3_6_MEMBER_1_MEMBER_39_1_STROKES" class="st6" d="M183.8,132.5l1,0.5"/>
	<path id="Layer3_6_MEMBER_1_MEMBER_40_1_STROKES" class="st6" d="M183.8,132.5l2.9,4l1,0.6"/>
	<path id="Layer3_6_MEMBER_1_MEMBER_41_1_STROKES" class="st6" d="M184.7,133l2.9-7.3"/>
	<path id="Layer3_6_MEMBER_1_MEMBER_42_1_STROKES" class="st6" d="M186.7,125l1,0.7"/>
	<path id="Layer3_6_MEMBER_1_MEMBER_43_1_STROKES" class="st6" d="M186.7,125l-2.9,7.4"/>
	<path id="Layer3_6_MEMBER_1_MEMBER_44_1_STROKES" class="st6" d="M187.6,125.7l5.7-3.4"/>
	<path id="Layer3_6_MEMBER_1_MEMBER_45_1_STROKES" class="st6" d="M192.5,121.9l0.9,0.4"/>
	<path id="Layer3_6_MEMBER_1_MEMBER_46_1_STROKES" class="st6" d="M192.3,121.8l-5.6,3.2"/>
	<path id="Layer3_6_MEMBER_1_MEMBER_47_1_STROKES" class="st6" d="M193.3,122.3l2.9,4.1l-0.2,0.5"/>
	<path id="Layer3_6_MEMBER_1_MEMBER_48_1_STROKES" class="st6" d="M190.3,135.5l-2.7,1.6"/>
	<path id="Layer3_6_MEMBER_1_MEMBER_49_1_STROKES" class="st6" d="M203.7,29.2l1-0.5l0.7-0.6l0.2-0.8"/>
	<path id="Layer3_6_MEMBER_1_MEMBER_50_1_STROKES" class="st6" d="M203.7,29.2l1-0.5l0.7-0.6l0.2-0.8l-0.2-0.7l-0.7-0.6l-1-0.4"/>
	<path id="Layer3_6_MEMBER_1_MEMBER_51_1_STROKES" class="st6" d="M205.5,27.4l-0.2-0.7l-0.7-0.6l-1-0.4"/>
	<path id="Layer3_6_MEMBER_1_MEMBER_52_1_STROKES" class="st6" d="M203.7,137l1-0.5l0.7-0.6l0.2-0.7"/>
	<path id="Layer3_6_MEMBER_1_MEMBER_53_1_STROKES" class="st6" d="M203.7,137l1-0.5l0.7-0.6l0.2-0.7"/>
	<path id="Layer3_6_MEMBER_1_MEMBER_54_1_STROKES" class="st6" d="M170.7,46.2l1.2,0.3h1.2l1.2-0.3"/>
	<path id="Layer3_6_MEMBER_1_MEMBER_55_1_STROKES" class="st6" d="M170.7,46.2l1.2,0.3h1.2l1.2-0.3"/>
	<path id="Layer3_6_MEMBER_1_MEMBER_56_1_STROKES" class="st6" d="M170.7,154l1.2,0.3h1.2l1.2-0.3"/>
	<path id="Layer3_6_MEMBER_1_MEMBER_57_1_STROKES" class="st6" d="M170.7,154l1.2,0.3h1.2l1.2-0.3"/>
	<path id="Layer3_6_MEMBER_1_MEMBER_58_1_STROKES" class="st6" d="M145.5,122.1l-0.1,0.3l0.1,0.3l0.2,0.2"/>
	<path id="Layer3_6_MEMBER_1_MEMBER_59_1_STROKES" class="st6" d="M145.5,122.1l-0.1,0.3l0.1,0.3l0.2,0.2"/>
	<path id="Layer3_6_MEMBER_1_MEMBER_60_1_STROKES" class="st6" d="M146.7,121l-0.3-0.1l-0.3,0.2l-0.3,0.3l-0.2,0.3"/>
	<path id="Layer3_6_MEMBER_1_MEMBER_61_1_STROKES" class="st6" d="M146.7,121l-0.3-0.1l-0.3,0.2l-0.3,0.3l-0.2,0.3"/>
	<path id="Layer3_6_MEMBER_1_MEMBER_62_1_STROKES" class="st6" d="M149,122.9l0.1-0.3l-0.1-0.3l-0.2-0.1"/>
	<path id="Layer3_6_MEMBER_1_MEMBER_63_1_STROKES" class="st6" d="M149,122.9l0.1-0.3l-0.1-0.3l-0.2-0.1l-0.3-0.1l-0.3,0.2l-0.6,1
		v0.4l0.3,0.3"/>
	<path id="Layer3_6_MEMBER_1_MEMBER_64_1_STROKES" class="st6" d="M148.8,122.2l-0.3-0.1l-0.3,0.2l-0.6,1v0.4l0.3,0.3h0.3l0.3-0.2
		l0.5-0.8"/>
	<path id="Layer3_6_MEMBER_1_MEMBER_65_1_STROKES" class="st6" d="M147.8,124.1h0.3l0.3-0.2l0.5-0.8"/>
	<path id="Layer3_6_MEMBER_1_MEMBER_66_1_STROKES" class="st6" d="M146.9,63.9l0.1-0.3l-0.1-0.2l-0.1-0.2"/>
	<path id="Layer3_6_MEMBER_1_MEMBER_67_1_STROKES" class="st6" d="M146.9,63.9l0.1-0.3l-0.1-0.2l-0.1-0.2h-0.3l-0.3,0.2l-0.3,0.5
		l-0.2,0.3"/>
	<path id="Layer3_6_MEMBER_1_MEMBER_68_1_STROKES" class="st6" d="M146.7,63.1h-0.3l-0.3,0.2l-0.3,0.5l-0.2,0.3"/>
	<path id="Layer3_6_MEMBER_1_MEMBER_69_1_STROKES" class="st6" d="M145.5,67.5l0.2-0.3"/>
	<path id="Layer3_6_MEMBER_1_MEMBER_70_1_STROKES" class="st6" d="M145.5,67.5l0.2-0.3"/>
	<path id="Layer3_6_MEMBER_1_MEMBER_71_1_STROKES" class="st6" d="M145.5,68.1l-0.1,0.3l0.1,0.3l0.2,0.2"/>
	<path id="Layer3_6_MEMBER_1_MEMBER_72_1_STROKES" class="st6" d="M145.5,68.1l-0.1,0.3l0.1,0.3l0.2,0.2l0.3,0.1l0.3-0.3l0.3-0.3
		l0.1-0.2l0.1-0.3"/>
	<path id="Layer3_6_MEMBER_1_MEMBER_73_1_STROKES" class="st6" d="M145.7,68.7l0.3,0.1l0.3-0.3l0.3-0.3l0.1-0.2l0.1-0.3"/>
	<path id="Layer3_6_MEMBER_1_MEMBER_74_1_STROKES" class="st6" d="M146.9,128.8l0.1-0.3l-0.1-0.3l-0.1-0.2"/>
	<path id="Layer3_6_MEMBER_1_MEMBER_75_1_STROKES" class="st6" d="M146.9,128.8l0.1-0.3l-0.1-0.3l-0.1-0.2h-0.3l-0.3,0.2l-0.3,0.3
		l-0.2,0.3"/>
	<path id="Layer3_6_MEMBER_1_MEMBER_76_1_STROKES" class="st6" d="M146.7,128h-0.3l-0.3,0.2l-0.3,0.3l-0.2,0.3"/>
	<path id="Layer3_6_MEMBER_1_MEMBER_77_1_STROKES" class="st6" d="M145.5,132.5l0.2-0.3"/>
	<path id="Layer3_6_MEMBER_1_MEMBER_78_1_STROKES" class="st6" d="M145.5,132.5l0.2-0.3"/>
	<path id="Layer3_6_MEMBER_1_MEMBER_79_1_STROKES" class="st6" d="M145.5,133l-0.1,0.3l0.1,0.3l0.2,0.2"/>
	<path id="Layer3_6_MEMBER_1_MEMBER_80_1_STROKES" class="st6" d="M145.5,133l-0.1,0.3l0.1,0.3l0.2,0.2l0.3,0.1l0.3-0.3l0.3-0.4
		l0.1-0.1l0.1-0.3"/>
	<path id="Layer3_6_MEMBER_1_MEMBER_81_1_STROKES" class="st6" d="M145.7,133.7l0.3,0.1l0.3-0.3l0.3-0.4l0.1-0.1l0.1-0.3"/>
	<path id="Layer3_6_MEMBER_1_MEMBER_82_1_STROKES" class="st6" d="M200.3,138.8l-0.3-0.2"/>
	<path id="Layer3_6_MEMBER_1_MEMBER_83_1_STROKES" class="st6" d="M200.3,74.3v64.5"/>
	<path id="Layer3_6_MEMBER_1_MEMBER_84_1_STROKES" class="st6" d="M179.1,151.1V75"/>
	<path id="Layer3_6_MEMBER_1_MEMBER_85_1_STROKES" class="st6" d="M184.3,14.3L204.5,26"/>
	<path id="Layer3_6_MEMBER_1_MEMBER_86_1_STROKES" class="st6" d="M204.5,28.8L175,45.9"/>
	<path id="Layer3_6_MEMBER_1_MEMBER_87_1_STROKES" class="st6" d="M175,153.8l29.5-17.1"/>
	<path id="Layer3_6_MEMBER_1_MEMBER_88_1_STROKES" class="st6" d="M169.9,45.9l-20.1-11.7"/>
	<path id="Layer3_6_MEMBER_1_MEMBER_89_1_STROKES" class="st6" d="M149.9,35v-0.8"/>
	<path id="Layer3_6_MEMBER_1_MEMBER_90_1_STROKES" class="st6" d="M149.9,142.1l20.1,11.6"/>
	<path id="Layer3_6_MEMBER_1_MEMBER_91_1_STROKES" class="st6" d="M185.5,15l5.7-3.3"/>
	<path id="Layer3_6_MEMBER_1_MEMBER_92_1_STROKES" class="st6" d="M191.2,18.4v-6.7l-2-1.1l-0.8,0.4"/>
	<path id="Layer3_6_MEMBER_1_MEMBER_93_1_STROKES" class="st6" d="M184.3,14.3v-0.9l1.6-1l0.8,0.4l1.6-0.9v-1l0.8,0.5l-0.8,0.5"/>
	<path id="Layer3_6_MEMBER_1_MEMBER_94_1_STROKES" class="st6" d="M145.8,66.8v-3.1"/>
	<path id="Layer3_6_MEMBER_1_MEMBER_95_1_STROKES" class="st6" d="M147,63.6v3.8"/>
	<path id="Layer3_6_MEMBER_1_MEMBER_96_1_STROKES" class="st6" d="M145.4,68.2v-3.7"/>
	<path id="Layer3_6_MEMBER_1_MEMBER_97_1_STROKES" class="st6" d="M145.8,131.7v-3.1"/>
	<path id="Layer3_6_MEMBER_1_MEMBER_98_1_STROKES" class="st6" d="M147,128.6v3.7"/>
	<path id="Layer3_6_MEMBER_1_MEMBER_99_1_STROKES" class="st6" d="M145.4,133.1v-3.7"/>
	<path id="Layer3_6_MEMBER_1_MEMBER_100_1_STROKES" class="st6" d="M149.9,35l0.5,0.3"/>
	<path id="Layer3_6_MEMBER_1_MEMBER_101_1_STROKES" class="st6" d="M150.4,141.6V35.3l-6.4,3.7"/>
	<path id="Layer3_6_MEMBER_1_MEMBER_102_1_STROKES" class="st6" d="M143.9,145.4V39.1"/>
	<path id="Layer3_6_MEMBER_1_MEMBER_103_1_STROKES" class="st6" d="M143.9,145.4l6.4-3.7"/>
	<path id="Layer3_6_MEMBER_1_MEMBER_104_1_STROKES" class="st6" d="M143.9,39.1l-2-1.1"/>
	<path id="Layer3_6_MEMBER_1_MEMBER_105_1_STROKES" class="st6" d="M141.9,144.1V37.8"/>
	<path id="Layer3_6_MEMBER_1_MEMBER_106_1_STROKES" class="st6" d="M141.9,144.1l2,1.1"/>
	<path id="Layer3_6_MEMBER_1_MEMBER_107_1_STROKES" class="st6" d="M141.9,37.8l0.8-0.5l0.9,0.5l2.4-1.4l-0.9-0.5"/>
	<path id="Layer3_6_MEMBER_1_MEMBER_108_1_STROKES" class="st6" d="M145.2,36.9v-1l1.6-1h3"/>
	<path id="Layer3_6_MEMBER_1_MEMBER_109_1_STROKES" class="st6" d="M189.7,133.3l-0.4,0.2"/>
	<path id="Layer3_6_MEMBER_1_MEMBER_110_1_STROKES" class="st6" d="M189.5,133.9l0.3-0.3"/>
	<path id="Layer3_6_MEMBER_1_MEMBER_111_1_STROKES" class="st6" d="M195.4,126.8l0.2-0.6"/>
	<path id="Layer3_6_MEMBER_1_MEMBER_112_1_STROKES" class="st6" d="M195.2,126.1l-0.2,0.5"/>
	<path id="Layer3_6_MEMBER_1_MEMBER_113_1_STROKES" class="st6" d="M195.1,126.5l-2.1-1.1"/>
	<path id="Layer3_6_MEMBER_1_MEMBER_114_1_STROKES" class="st6" d="M197,127.5l-1.5-0.9"/>
	<path id="Layer3_6_MEMBER_1_MEMBER_115_1_STROKES" class="st6" d="M188,134.1l3.9,2.3"/>
	<path id="Layer3_6_MEMBER_1_MEMBER_116_1_STROKES" class="st6" d="M195.4,112.1l0.2-0.6"/>
	<path id="Layer3_6_MEMBER_1_MEMBER_117_1_STROKES" class="st6" d="M195.2,111.3l-0.2,0.6"/>
	<path id="Layer3_6_MEMBER_1_MEMBER_118_1_STROKES" class="st6" d="M189.7,118.5l-0.4,0.3"/>
	<path id="Layer3_6_MEMBER_1_MEMBER_119_1_STROKES" class="st6" d="M189.5,119.2l0.3-0.3"/>
	<path id="Layer3_6_MEMBER_1_MEMBER_120_1_STROKES" class="st6" d="M195.1,111.7l-2.1-1.2"/>
	<path id="Layer3_6_MEMBER_1_MEMBER_121_1_STROKES" class="st6" d="M197,112.8l-1.5-0.9"/>
	<path id="Layer3_6_MEMBER_1_MEMBER_122_1_STROKES" class="st6" d="M188,119.4l3.9,2.3"/>
	<path id="Layer3_6_MEMBER_1_MEMBER_123_1_STROKES" class="st6" d="M195.3,82.9l0.2-0.6"/>
	<path id="Layer3_6_MEMBER_1_MEMBER_124_1_STROKES" class="st6" d="M195.1,82.2l-0.2,0.5"/>
	<path id="Layer3_6_MEMBER_1_MEMBER_125_1_STROKES" class="st6" d="M188,91.3l-0.4,0.3"/>
	<path id="Layer3_6_MEMBER_1_MEMBER_126_1_STROKES" class="st6" d="M195,82.5l-1.2-0.7"/>
	<path id="Layer3_6_MEMBER_1_MEMBER_127_1_STROKES" class="st6" d="M197.7,84.1l-2.3-1.4"/>
	<path id="Layer3_6_MEMBER_1_MEMBER_128_1_STROKES" class="st6" d="M187.2,93.2l3.9,2.3"/>
	<path id="Layer3_6_MEMBER_1_MEMBER_129_1_STROKES" class="st6" d="M197.3,64.2l0.2-0.5"/>
	<path id="Layer3_6_MEMBER_1_MEMBER_130_1_STROKES" class="st6" d="M197,63.5l-0.2,0.5"/>
	<path id="Layer3_6_MEMBER_1_MEMBER_131_1_STROKES" class="st6" d="M188.3,74.5l-0.3,0.3"/>
	<path id="Layer3_6_MEMBER_1_MEMBER_132_1_STROKES" class="st6" d="M188.1,75.2l0.4-0.3"/>
	<path id="Layer3_6_MEMBER_1_MEMBER_133_1_STROKES" class="st6" d="M197,63.6l-2.1-1.2"/>
	<path id="Layer3_6_MEMBER_1_MEMBER_134_1_STROKES" class="st6" d="M200.1,65.5l-2.7-1.6"/>
	<path id="Layer3_6_MEMBER_1_MEMBER_135_1_STROKES" class="st6" d="M186.7,76.5l5.2,2.9"/>
	<path id="Layer3_6_MEMBER_1_MEMBER_136_1_STROKES" class="st6" d="M205.5,135.2V27.4"/>
	<path id="Layer3_6_MEMBER_1_MEMBER_137_1_STROKES" class="st6" d="M145.7,122.8l2.1,1.2"/>
	<path id="Layer3_6_MEMBER_1_MEMBER_138_1_STROKES" class="st6" d="M148.8,122.2l-2-1.2"/>
	<path id="Layer3_6_MEMBER_1_MEMBER_139_1_STROKES" class="st6" d="M191.8,132.3l0.3-0.3l0.6-0.9l0.7-1.5"/>
	<path id="Layer3_6_MEMBER_1_MEMBER_140_1_STROKES" class="st6" d="M191.8,132.3l0.3-0.3l0.6-0.9l0.7-1.5"/>
	<path id="Layer3_6_MEMBER_1_MEMBER_141_1_STROKES" class="st6" d="M149.9,34.2l34.5-19.9"/>
	<path id="Layer3_6_MEMBER_1_MEMBER_142_1_STROKES" class="st6" d="M175,153.8l-0.7,0.3"/>
	<path id="Layer3_6_MEMBER_1_MEMBER_143_1_STROKES" class="st6" d="M170.7,154l-0.7-0.3"/>
	<path id="Layer3_6_MEMBER_1_MEMBER_144_1_STROKES" class="st6" d="M203.1,26.8l-0.5-0.2l-0.6-0.1l-0.5,0.1l-0.5,0.2l-0.3,0.3
		l-0.1,0.3l0.2,0.3l0.3,0.3l0.4,0.2l0.6,0.1l0.5-0.1l0.4-0.2l0.3-0.3l0.1-0.3l-0.2-0.3L203.1,26.8z"/>
	<path id="Layer3_6_MEMBER_1_MEMBER_145_1_STROKES" class="st6" d="M201.5,27l1.3,0.7"/>
	<path id="Layer3_6_MEMBER_1_MEMBER_146_1_STROKES" class="st6" d="M202.8,27l-1.3,0.7"/>
	<path id="Layer3_6_MEMBER_1_MEMBER_147_1_STROKES" class="st6" d="M182.6,17.1l0.2,0.3l0.3,0.3l0.5,0.2h0.6l0.5-0.1l0.4-0.2
		l0.3-0.3l0.1-0.3l-0.2-0.3l-0.3-0.3l-0.5-0.2l-0.6-0.1l-0.6,0.1l-0.4,0.2l-0.3,0.3L182.6,17.1z"/>
	<path id="Layer3_6_MEMBER_1_MEMBER_148_1_STROKES" class="st6" d="M183.5,16.6l1.3,0.7"/>
	<path id="Layer3_6_MEMBER_1_MEMBER_149_1_STROKES" class="st6" d="M184.7,16.6l-1.3,0.7"/>
	<path id="Layer3_6_MEMBER_1_MEMBER_150_1_STROKES" class="st6" d="M173.6,43.8l-0.6-0.2l-1,0.1l-0.4,0.2l-0.3,0.3l-0.1,0.3l0.2,0.3
		l0.3,0.2l0.5,0.2h0.6h0.5l0.5-0.2l0.3-0.3l0.1-0.3l-0.2-0.3L173.6,43.8z"/>
	<path id="Layer3_6_MEMBER_1_MEMBER_151_1_STROKES" class="st6" d="M171.9,44.1l1.3,0.8"/>
	<path id="Layer3_6_MEMBER_1_MEMBER_152_1_STROKES" class="st6" d="M173.2,44.1l-1.2,0.8"/>
	<path id="Layer3_6_MEMBER_1_MEMBER_153_1_STROKES" class="st6" d="M155.9,33.7l-0.3-0.3l-0.5-0.2h-0.6l-0.5,0.1l-0.5,0.2l-0.3,0.3
		l-0.1,0.3l0.1,0.3l0.3,0.3l0.5,0.2l0.5,0.1l0.6-0.1l0.5-0.2l0.3-0.3L156,34L155.9,33.7z"/>
	<path id="Layer3_6_MEMBER_1_MEMBER_154_1_STROKES" class="st6" d="M153.9,33.7l1.2,0.8"/>
	<path id="Layer3_6_MEMBER_1_MEMBER_155_1_STROKES" class="st6" d="M155.2,33.7l-1.2,0.8"/>
	<path id="Layer3_6_MEMBER_1_MEMBER_156_1_STROKES" class="st6" d="M177.5,77.7l-0.2-0.2l-0.3-0.1l-0.4,0.2l-0.4,0.3l-0.3,0.5
		l-0.2,0.5l-0.1,0.5l0.1,0.4l0.3,0.2h0.3l0.4-0.2l0.3-0.3l0.3-0.5l0.2-0.5V78L177.5,77.7z"/>
	<path id="Layer3_6_MEMBER_1_MEMBER_157_1_STROKES" class="st6" d="M177.2,78.4L176,79"/>
	<path id="Layer3_6_MEMBER_1_MEMBER_158_1_STROKES" class="st6" d="M176.6,79.5v-1.4"/>
	<path id="Layer3_6_MEMBER_1_MEMBER_159_1_STROKES" class="st6" d="M177.6,105.7l-0.1-0.3l-0.2-0.2l-0.3-0.1l-0.4,0.2l-0.4,0.3
		l-0.3,0.5l-0.2,0.5l-0.1,0.5l0.1,0.3l0.3,0.2l0.3,0.1l0.4-0.2l0.3-0.3l0.3-0.5l0.2-0.5L177.6,105.7z"/>
	<path id="Layer3_6_MEMBER_1_MEMBER_160_1_STROKES" class="st6" d="M177.2,106.1l-1.2,0.7"/>
	<path id="Layer3_6_MEMBER_1_MEMBER_161_1_STROKES" class="st6" d="M176.6,107.2v-1.5"/>
	<path id="Layer3_6_MEMBER_1_MEMBER_162_1_STROKES" class="st6" d="M177.3,145.4H177l-0.4,0.2l-0.4,0.3l-0.3,0.5l-0.2,0.5l-0.1,0.5
		l0.1,0.3l0.3,0.3l0.3,0.1l0.4-0.2l0.3-0.3l0.3-0.5l0.2-0.5V146l-0.1-0.4L177.3,145.4z"/>
	<path id="Layer3_6_MEMBER_1_MEMBER_163_1_STROKES" class="st6" d="M177.2,146.3L176,147"/>
	<path id="Layer3_6_MEMBER_1_MEMBER_164_1_STROKES" class="st6" d="M176.6,147.4V146"/>
	<path id="Layer3_6_MEMBER_1_MEMBER_165_1_STROKES" class="st6" d="M202.8,62.4l-0.4,0.2l-0.4,0.3l-0.3,0.5l-0.2,0.5l-0.1,0.5
		l0.1,0.3l0.3,0.2h0.3l0.3-0.2l0.4-0.3l0.3-0.4l0.2-0.5l0.1-0.5l-0.1-0.3l-0.3-0.2L202.8,62.4z"/>
	<path id="Layer3_6_MEMBER_1_MEMBER_166_1_STROKES" class="st6" d="M203.1,63.5l-1.3,0.7"/>
	<path id="Layer3_6_MEMBER_1_MEMBER_167_1_STROKES" class="st6" d="M202.4,64.6v-1.4"/>
	<path id="Layer3_6_MEMBER_1_MEMBER_168_1_STROKES" class="st6" d="M202.8,90.1l-0.4,0.2l-0.4,0.3l-0.3,0.5l-0.2,0.5l-0.1,0.5
		l0.1,0.3l0.3,0.3h0.3l0.3-0.2l0.4-0.3l0.3-0.5l0.2-0.5l0.1-0.5l-0.1-0.3l-0.3-0.2L202.8,90.1z"/>
	<path id="Layer3_6_MEMBER_1_MEMBER_169_1_STROKES" class="st6" d="M203.1,91.2l-1.3,0.7"/>
	<path id="Layer3_6_MEMBER_1_MEMBER_170_1_STROKES" class="st6" d="M202.4,92.2v-1.5"/>
	<path id="Layer3_6_MEMBER_1_MEMBER_171_1_STROKES" class="st6" d="M203.4,130.6l-0.3-0.2h-0.3l-0.4,0.2l-0.4,0.3l-0.3,0.5l-0.2,0.5
		l-0.1,0.5l0.1,0.3l0.3,0.2l0.3,0.1l0.3-0.2l0.4-0.3l0.3-0.5l0.2-0.5l0.1-0.5V130.6z"/>
	<path id="Layer3_6_MEMBER_1_MEMBER_172_1_STROKES" class="st6" d="M203.1,131.4l-1.3,0.7"/>
	<path id="Layer3_6_MEMBER_1_MEMBER_173_1_STROKES" class="st6" d="M202.4,132.5v-1.4"/>
	<path id="Layer3_6_MEMBER_1_MEMBER_174_1_STROKES" class="st6" d="M201.7,68.8l-0.3-1.6l-0.7-1.2l-0.9-0.7l-1.2-0.3l-1.5,0.2
		l-1.5,0.8l-1.5,1.1l-1.4,1.6l-1.1,1.8l-0.9,1.9l-0.4,1.9l-0.2,1.8l0.3,1.6l0.6,1.2l1,0.8l1.2,0.3l1.4-0.3l1.5-0.8l1.6-1.2l1.3-1.6
		l1.1-1.8l0.9-1.9l0.4-1.9L201.7,68.8z"/>
	<path id="Layer3_6_MEMBER_1_MEMBER_175_1_STROKES" class="st6" d="M193.1,69.7l-1,1.6l-0.7,1.6l-0.3,1.6v1.5l0.3,1.2l0.6,1l0.9,0.5
		l1,0.1l1.2-0.3l1.3-0.7l1.2-1l1-1.4l0.9-1.6l0.7-1.6l0.4-1.5v-1.5l-0.3-1.2l-0.6-1l-0.9-0.5l-1-0.1l-1.2,0.3l-1.3,0.8l-1.2,1
		L193.1,69.7z"/>
	<path id="Layer3_6_MEMBER_1_MEMBER_176_1_STROKES" class="st6" d="M194.9,62.4l-0.5-0.3l-0.7-0.1H193l-1.5,0.3l-1.5,0.9l-0.7,0.6
		l-1.4,1.5l-1.2,1.8l-1,1.9l-0.3,1l-0.3,1.9v1.7l0.1,0.8l0.3,0.7l0.3,0.5l0.4,0.5l0.5,0.3"/>
	<path id="Layer3_6_MEMBER_1_MEMBER_177_1_STROKES" class="st6" d="M185.4,79.2l1.4,0.7"/>
	<path id="Layer3_6_MEMBER_1_MEMBER_178_1_STROKES" class="st6" d="M186,95.9l1,0.5"/>
	<path id="Layer3_6_MEMBER_1_MEMBER_179_1_STROKES" class="st6" d="M190.4,89.4l-0.4,1.6l-0.2,1.5l0.2,1.3l0.4,1l0.8,0.7l1,0.3
		l1-0.2l1.3-0.4l1.2-0.9l1.1-1.2l1-1.4l0.8-1.6l0.4-1.6l0.2-1.6l-0.2-1.3l-0.4-1l-0.8-0.7l-1-0.3l-1.1,0.1l-1.2,0.5l-1.2,0.9
		l-1.1,1.2l-1,1.4L190.4,89.4z"/>
	<path id="Layer3_6_MEMBER_1_MEMBER_180_1_STROKES" class="st6" d="M191.1,89.6l-0.3,1.2l-0.1,1.2l0.1,1l0.4,0.9l0.6,0.6l0.8,0.2
		l1-0.2l1-0.4l1-0.7l1.7-2.2l0.6-1.2l0.3-1.3l0.1-1.2l-0.1-1l-0.4-0.9l-0.7-0.5l-0.8-0.2l-1,0.1l-1,0.4l-1,0.8l-1,1l-0.8,1.2
		L191.1,89.6z"/>
	<path id="Layer3_6_MEMBER_1_MEMBER_181_1_STROKES" class="st6" d="M193.8,81.8l-0.4-0.2l-0.5-0.2h-0.5l-1.2,0.3l-1.2,0.7l-1.2,1
		l-1,1.3l-0.9,1.5l-0.7,1.6l-0.3,1.6v1.4l0.3,1.1l0.7,0.9l0.4,0.3"/>
	<path id="Layer3_6_MEMBER_1_MEMBER_182_1_STROKES" class="st6" d="M200.4,62.6c0-3.4-1-5.7-3.1-6.9c-2.1-1.2-4.6-1-7.5,0.8
		c-2.9,1.7-5.5,4.3-7.5,8c-2.1,3.6-3.1,7.1-3.1,10.6"/>
	<path id="Layer3_6_MEMBER_1_MEMBER_183_1_STROKES" class="st6" d="M200.4,62.5V65"/>
	<path id="Layer3_6_MEMBER_1_MEMBER_184_1_STROKES" class="st6" d="M194.4,113.1l-1,0.7l-0.9,1l-0.8,1l-0.6,1.2l-0.3,1.2l-0.1,1.1
		l0.1,1l0.4,0.8l0.5,0.6l0.8,0.2l0.9-0.1l1-0.3l1.8-1.6l0.7-1l0.6-1.1l0.3-1.2l0.1-1.1l-0.1-1l-0.3-0.8L197,113l-0.8-0.2l-0.9,0.1
		L194.4,113.1z"/>
	<path id="Layer3_6_MEMBER_1_MEMBER_185_1_STROKES" class="st6" d="M196.3,113.7l-0.6-0.2l-0.7,0.1l-0.7,0.3l-0.8,0.5l-0.7,0.8
		l-0.5,0.9l-0.4,1l-0.3,1l-0.1,1l0.2,0.8l0.3,0.5l0.5,0.4l0.7,0.1l0.7-0.1l0.8-0.3l0.8-0.5l0.7-0.8l1-1.8l0.3-1v-0.9l-0.1-0.8
		l-0.3-0.6L196.3,113.7z"/>
	<path id="Layer3_6_MEMBER_1_MEMBER_186_1_STROKES" class="st6" d="M193,110.6l-0.3-0.2l-0.3-0.1h-0.4l-0.9,0.3l-1,0.5l-1,0.8
		l-0.8,1l-1,1.7l-0.3,1.2l-0.1,1.1l0.1,1l0.3,0.8l0.3,0.3l0.3,0.2"/>
	<path id="Layer3_6_MEMBER_1_MEMBER_187_1_STROKES" class="st6" d="M190.9,133l-0.1,1.1l0.1,1l0.4,0.8l0.5,0.5l0.8,0.2l0.9-0.1
		l1-0.3l0.9-0.7l1-1l0.7-1l0.6-1.2l0.3-1.2l0.1-1.1l-0.1-1l-0.3-0.8l-0.6-0.5l-0.8-0.2l-0.9,0.2l-0.9,0.3l-1,0.7l-0.9,1l-1.3,2.3
		L190.9,133z"/>
	<path id="Layer3_6_MEMBER_1_MEMBER_188_1_STROKES" class="st6" d="M191.7,132.5l-0.2,1v0.9l0.2,0.7l0.4,0.4l0.6,0.3h0.7l0.8-0.2
		l0.8-0.5l0.7-0.7l0.7-0.9l0.9-1.9l0.1-1v-0.9l-0.3-0.7l-0.3-0.4l-0.6-0.3l-0.7-0.1l-0.8,0.3l-0.8,0.5l-0.8,0.7l-0.7,0.9
		L191.7,132.5z"/>
	<path id="Layer3_6_MEMBER_1_MEMBER_189_1_STROKES" class="st6" d="M193,125.3l-0.3-0.2l-0.3-0.1h-0.4l-0.9,0.3l-1,0.5l-1,0.8
		l-0.8,1l-0.7,1.1l-0.6,1.8l-0.1,1.2l0.1,1l0.3,0.8l0.3,0.3l0.3,0.2"/>
	<path id="Layer3_6_MEMBER_1_MEMBER_190_1_STROKES" class="st6" d="M175,45.9l-0.7,0.3"/>
	<path id="Layer3_6_MEMBER_1_MEMBER_191_1_STROKES" class="st6" d="M170.7,46.2l-0.7-0.3"/>
	<path id="Layer3_6_MEMBER_1_MEMBER_192_1_STROKES" class="st6" d="M172.5,47.7v105.5"/>
</g>
<g transform="matrix( 1, 0, 0, 1, 0,0) ">
	<g>
		<path id="Layer3_7_1_STROKES" class="st7" d="M224.4,57.9H334V106H224.4V57.9z"/>
	</g>
</g>
<text transform="matrix(1 0 0 1 230.6419 74.9339)" class="st8"><tspan x="0" y="0" class="st9 st10 st11">3000-P1, P2,P3</tspan><tspan x="0" y="16.8" class="st9 st10 st11">AND P4</tspan></text>
</svg>
