<svg id="ret-ext" xmlns="http://www.w3.org/2000/svg" xmlns:xlink="http://www.w3.org/1999/xlink" viewBox="0 0 1278.4 637.8">
  <style>
    .st0{fill-rule:evenodd;clip-rule:evenodd;fill:#8fceff}.st1{fill:#ff0}.st2{fill:#f90}.st3{font-family:&apos;ArialMT&apos;}.st4{font-size:9px}.st5{font-size:8px}.st6{font-size:10px}.st7{clip-path:url(#SVGID_2_);enable-background:new}.st8{font-size:11px}.st9{fill:#2d2c2e}.st10{fill:#09f}.st11{fill:none;stroke:#06f;stroke-miterlimit:5}.st12{fill:#fff}.st13,.st14,.st15{fill:none;stroke:#000}.st13{stroke-width:.5;stroke-miterlimit:4.9999}.st14{stroke-miterlimit:5}.st15{stroke-miterlimit:4.9999}.st16{stroke:#000;stroke-width:.5}.st16,.st17,.st18,.st19,.st20{fill:none;stroke-miterlimit:5}.st17{stroke:#0f0;stroke-width:.2}.st18{stroke-width:.15}.st18,.st19,.st20{stroke:#000}.st19{stroke-width:.1}.st20{stroke-width:.2}.st21{fill:#ccc}.st22,.st23{fill:none;stroke:#000;stroke-miterlimit:5}.st22{stroke-linecap:round;stroke-width:.5}.st23{stroke-width:.25}.st24{fill:none;stroke-width:.45;stroke-miterlimit:5}.st24,.st25,.st26{stroke:#2d2c2e}.st25,.st26,.st27,.st28{fill:none;stroke-miterlimit:5}.st25{stroke-width:.5}.st26{stroke-width:.25}.st27,.st28{stroke:#0f0;stroke-width:.45}.st28{stroke-width:.1}.st29{fill:none;stroke:#2d2c2e;stroke-width:.55;stroke-linecap:round}.st30{clip-path:url(#SVGID_4_);enable-background:new}.st31{fill:#ffd536}.st32{clip-path:url(#SVGID_6_);enable-background:new}.st33{fill:none;stroke:#000;stroke-width:.45;stroke-miterlimit:5}.st34{fill:#00a1de}.st35,.st36{fill:none;stroke:#06f;stroke-width:2;stroke-miterlimit:5}.st36{stroke:#2d2c2e;stroke-width:.45;stroke-miterlimit:4.9999}.st37{fill:#333}.st38{fill:none;stroke:#1a181b;stroke-width:.5;stroke-miterlimit:5}.st39{fill:#666}.st40{clip-path:url(#SVGID_8_);enable-background:new}.st41{font-size:5.1624px}.st42{clip-path:url(#SVGID_10_);enable-background:new}.st43{clip-path:url(#SVGID_12_)}.st43,.st44,.st45,.st46{enable-background:new}.st44{clip-path:url(#SVGID_14_)}.st45{clip-path:url(#SVGID_16_)}.st46{clip-path:url(#SVGID_18_)}.st47{font-size:6.7557px}.st48{clip-path:url(#SVGID_20_)}.st48,.st49,.st50{enable-background:new}.st49{clip-path:url(#SVGID_22_)}.st50{clip-path:url(#SVGID_24_)}.st51{fill:#dddddc}.st52{fill:none;stroke:#333;stroke-width:1.0105;stroke-linecap:round;stroke-linejoin:round;stroke-miterlimit:4.0419}.st53{fill:red}.st54{fill:#fec430}.st55{fill:#666;fill-opacity:.3373}.st56{fill:none;stroke:#000;stroke-width:.6;stroke-linecap:round;stroke-linejoin:round}.st57{clip-path:url(#SVGID_26_);enable-background:new}.st58{fill:#1a181b}.st59{clip-path:url(#SVGID_28_)}.st59,.st60,.st61{enable-background:new}.st60{clip-path:url(#SVGID_30_)}.st61{clip-path:url(#SVGID_32_)}.st62{fill:#0f0}.st63{clip-path:url(#SVGID_34_);enable-background:new}.st64{clip-path:url(#SVGID_36_)}.st64,.st65,.st66,.st67{enable-background:new}.st65{clip-path:url(#SVGID_38_)}.st66{clip-path:url(#SVGID_40_)}.st67{clip-path:url(#SVGID_42_)}.st68{fill:none;stroke:#2d2c2e;stroke-miterlimit:5}
  </style>
  <g id="clp-cawlp">
    <path id="clp-cawlp-hl" class="st0" d="M109.7 66.6H55.2c-2.5 0-4.5-2-4.5-4.5v-28c0-2.5 2-4.5 4.5-4.5h54.5c2.5 0 4.5 2 4.5 4.5v28c-.1 2.5-2.1 4.5-4.5 4.5z"/>
  </g>
  <g id="clp-hyd-ptu-check-vlv">
    <path id="clp-hyd-ptu-check-vlv-hl" class="st0" d="M793 115.8h-28.5c-2.5 0-4.5-2-4.5-4.5v-60c0-2.5 2-4.5 4.5-4.5H793c2.5 0 4.5 2 4.5 4.5v60c-.1 2.5-2.1 4.5-4.5 4.5z"/>
  </g>
  <g id="clp-mlg-downlock-act">
    <path id="clp-mlg-downlock-act-hl" class="st0" d="M1169.7 516.8v28.5c0 2.5-2 4.5-4.5 4.5h-127c-2.5 0-4.5-2-4.5-4.5v-28.5c0-2.5 2-4.5 4.5-4.5h127c2.5.1 4.5 2.1 4.5 4.5z"/>
  </g>
  <g id="clp-mlg-alt-ext-act">
    <path id="clp-mlg-alt-ext-act-hl" class="st0" d="M1194.5 415.5h-58.9c-.4-2.1-2.2-3.7-4.4-3.8h-60c-2.5 0-4.5 2-4.5 4.5v28.5c0 2.5 2 4.5 4.5 4.5h60c2.2 0 4.1-1.6 4.4-3.8h58.9c2.4 0 4.4-2 4.5-4.5v-21c0-2.4-2-4.4-4.5-4.4z"/>
  </g>
  <g id="clp-mlg-retr-act">
    <path id="clp-mlg-retr-act-hl" class="st0" d="M1209.9 322.3v28.5c0 2.5-2 4.5-4.5 4.5h-132c-2.5 0-4.5-2-4.5-4.5v-28.5c0-2.5 2-4.5 4.5-4.5h132c2.5.1 4.5 2.1 4.5 4.5z"/>
  </g>
  <g id="clp-mlg-uplock-assy">
    <path id="clp-mlg-uplock-assy-hl" class="st0" d="M990.3 438.5H987v-16.8c0-2.4-2-4.4-4.5-4.5h-60c-2.5 0-4.5 2-4.5 4.5v28.5c0 2.5 2 4.5 4.5 4.5h3.3v16.8c0 2.5 2 4.5 4.5 4.5h60c2.5 0 4.5-2 4.5-4.5V443c0-2.4-2-4.4-4.5-4.5z"/>
  </g>
  <g id="clp-mlg-sol-seq-vlv">
    <path id="clp-mlg-sol-seq-vlv-hl" class="st0" d="M802.3 453h-34v-59.9c0-2.5-2-4.5-4.5-4.5h-28.5c-2.5 0-4.5 2-4.5 4.5V491c0 2.5 2 4.5 4.5 4.5h67c2.5 0 4.5-2 4.5-4.5v-33.5c0-2.4-2-4.4-4.5-4.5z"/>
  </g>
  <g id="clp-mlg-door-act">
    <path id="clp-mlg-door-act-hl" class="st0" d="M705.4 458.6h-15.3v-60.1c0-2.5-2-4.5-4.5-4.5h-28.5c-2.5 0-4.5 2-4.5 4.5v60.1h-17.7c-2.5 0-4.5 2-4.5 4.5v21c0 2.5 2 4.5 4.5 4.5h70.5c2.4 0 4.4-2 4.5-4.5v-21c0-2.5-2-4.5-4.5-4.5z"/>
  </g>
  <g id="clp-mlg-door-inline-restr">
    <path id="clp-mlg-door-inline-restr-hl" class="st0" d="M823.1 325.4h-79.5c-2.5 0-4.5-2-4.5-4.5v-17c0-2.5 2-4.5 4.5-4.5h79.5c2.5 0 4.5 2 4.5 4.5v17c-.1 2.5-2.1 4.5-4.5 4.5z"/>
  </g>
  <g id="clp-mlg-mech-seq-vlv">
    <path id="clp-mlg-mech-seq-vlv-hl" class="st0" d="M708.5 286.9H638c-2.5 0-4.5 2-4.5 4.5v29c0 2.5 2 4.5 4.5 4.5h14.2v59c0 2.5 2 4.5 4.5 4.5h28.5c2.4 0 4.4-2 4.5-4.5v-59h18.8c2.4 0 4.4-2 4.5-4.5v-29c0-2.5-2-4.5-4.5-4.5z"/>
  </g>
  <g id="clp-nlg-door-inl-restr">
    <path id="clp-nlg-door-inl-restr-hl" class="st0" d="M600.7 420.5h-70.5c-2.5 0-4.5-2-4.5-4.5v-16c0-2.5 2-4.5 4.5-4.5h70.5c2.5 0 4.5 2 4.5 4.5v16c-.1 2.5-2.1 4.5-4.5 4.5z"/>
  </g>
  <g id="clp-nlg-lock-act">
    <path id="clp-nlg-lock-act-hl" class="st0" d="M496.2 536.6h-51c-.5-1.8-2.2-3.2-4.3-3.3h-60c-2.5 0-4.5 2-4.5 4.5v28.5c0 2.5 2 4.5 4.5 4.5h60c2.4 0 4.3-1.9 4.5-4.2h50.8c2.4 0 4.4-2 4.5-4.5v-21c0-2.5-2-4.5-4.5-4.5z"/>
  </g>
  <g id="clp-nlg-retr-act">
    <path id="clp-nlg-retr-act-hl" class="st0" d="M505.1 451h-60c-2.5 0-4.5 2-4.5 4.5v6.1H386c-2.5 0-4.5 2-4.5 4.5v28.5c0 2.5 2 4.5 4.5 4.5h60c2.5 0 4.5-2 4.5-4.5v-6.1h54.6c2.5 0 4.5-2 4.5-4.5v-28.5c0-2.4-2-4.4-4.5-4.5z"/>
  </g>
  <g id="clp-nlg-door-mech-sequ-vlv">
    <path id="clp-nlg-door-mech-sequ-vlv-hl" class="st0" d="M505.2 395.5V424c0 2.5-2 4.5-4.5 4.5h-130c-2.5 0-4.5-2-4.5-4.5v-28.5c0-2.5 2-4.5 4.5-4.5h130c2.5.1 4.5 2.1 4.5 4.5z"/>
  </g>
  <g id="clp-nlg-sol-seq-vlv">
    <path id="clp-nlg-sol-seq-vlv-hl" class="st0" d="M506.1 334.1v28.5c0 2.5-2 4.5-4.5 4.5h-120c-2.5 0-4.5-2-4.5-4.5v-28.5c0-2.5 2-4.5 4.5-4.5h120c2.5.1 4.5 2.1 4.5 4.5z"/>
  </g>
  <g id="clp-nlg-door-act">
    <path id="clp-nlg-door-act-hl" class="st0" d="M505.9 265.5h-64.1c-.3-2.1-2.2-3.8-4.4-3.9h-60c-2.5 0-4.5 2-4.5 4.5v28.5c0 2.5 2 4.5 4.5 4.5h60c2.2 0 4-1.5 4.4-3.6H506c2.4 0 4.4-2 4.5-4.5v-21c-.1-2.5-2.1-4.5-4.6-4.5z"/>
  </g>
  <g id="clp-alt-ext-byp-vlv">
    <path id="clp-alt-ext-byp-vlv-hl" class="st0" d="M616.5 185.1h-60c-2.1 0-3.8 1.4-4.3 3.3h-83.9c-2.5 0-4.5 2-4.5 4.5v21c0 2.5 2 4.5 4.5 4.5H552c.1 2.4 2.1 4.2 4.5 4.2h60c2.5 0 4.5-2 4.5-4.5v-28.5c0-2.4-2-4.4-4.5-4.5z"/>
  </g>
  <g id="clp-lg-select-vlv">
    <path id="clp-lg-select-vlv-hl" class="st0" d="M477.2 37.2h231.9v126.7H477.2z"/>
  </g>
  <g id="clp-land-gear-cont-panel">
    <path id="clp-land-gear-cont-panel-hl" class="st0" d="M224.8 201.2H124.3c-2.5 0-4.5-2-4.5-4.5v-161c0-2.5 2-4.5 4.5-4.5h100.5c2.5 0 4.5 2 4.5 4.5v161c-.1 2.5-2.1 4.5-4.5 4.5z"/>
  </g>
  <g id="clp-system">
    <path class="st1" d="M108.8 471.8v4.6h25.9v-4.6h-25.9z"/>
    <path class="st2" d="M134.7 461.1v-4.6h-25.9v4.6h25.9m0-15.5v-4.4h-25.9v4.4h25.9z"/>
    <text transform="translate(749.05 40.965)" class="st3 st4">
      FROM POWER
    </text>
    <text transform="translate(744.3 49.815)" class="st3 st4">
      TRANSFER UNIT
    </text>
    <text transform="translate(805.45 119.815)" class="st3 st5">
      NO. 2 HYD
    </text>
    <text transform="translate(611.65 48.215)" class="st3 st4">
      SOLENOID B
    </text>
    <text transform="translate(628.15 57.065)" class="st3 st4">
      (UP)
    </text>
    <text transform="translate(518.85 48.215)" class="st3 st4">
      SOLENOID A
    </text>
    <text transform="translate(527.55 57.065)" class="st3 st4">
      (DOWN)
    </text>
    <text transform="translate(484.425 151.354)" class="st3 st6">
      Landing Gear
    </text>
    <text transform="translate(482.875 161.404)" class="st3 st6">
      Selector Valve
    </text>
    <text transform="translate(681.1 220.715)" class="st3 st4">
      DOWN
    </text>
    <text transform="translate(687.75 249.537)" class="st3 st4">
      UP
    </text>
    <text transform="translate(380.1 262.415)" class="st3 st4">
      CLOSE
    </text>
    <text transform="translate(427.7 262.015)" class="st3 st4">
      OPEN
    </text>
    <text transform="translate(447.175 341.49)" class="st3 st6">
      SOLENOID
    </text>
    <text transform="translate(447.175 351.54)" class="st3 st6">
      SEQUENCE
    </text>
    <text transform="translate(447.175 361.59)" class="st3 st6">
      VALVE
    </text>
    <text transform="translate(435.65 404.05)" class="st3 st6">
      MECHANICAL
    </text>
    <text transform="translate(435.65 414.1)" class="st3 st6">
      SEQUENCE
    </text>
    <text transform="translate(435.65 424.15)" class="st3 st6">
      VALVE
    </text>
    <text transform="translate(443.042 463.505)" class="st3 st6">
      NOSE GEAR
    </text>
    <text transform="translate(443.042 473.555)" class="st3 st6">
      RETRACTION
    </text>
    <text transform="translate(443.057 483.605)" class="st3 st6">
      ACTUATOR
    </text>
    <defs>
      <path id="SVGID_1_" d="M396.6 492.6h47.2v14.9h-47.2z"/>
    </defs>
    <clipPath id="SVGID_2_">
      <use xlink:href="#SVGID_1_" overflow="visible"/>
    </clipPath>
    <g class="st7">
      <text transform="translate(398.7 503.565)" class="st3 st4">
        UP DOWN
      </text>
    </g>
    <text transform="translate(377.15 574.415)" class="st3 st5">
      UPLOCK
    </text>
    <text transform="translate(375.75 582.065)" class="st3 st5">
      RELEASE
    </text>
    <text transform="translate(417.4 574.415)" class="st3 st5">
      DOWNLOCK
    </text>
    <text transform="translate(422.95 582.065)" class="st3 st5">
      RELEASE
    </text>
    <text transform="translate(437.65 278.54)" class="st3 st8">
      NOSE DOOR
    </text>
    <text transform="translate(437.667 289.79)" class="st3 st8">
      ACTUATOR
    </text>
    <text transform="translate(638.65 299.415)" class="st3 st8">
      MECHANICAL
    </text>
    <text transform="translate(644.55 310.665)" class="st3 st8">
      SEQUENCE
    </text>
    <text transform="translate(656.05 321.915)" class="st3 st8">
      VALVE
    </text>
    <text transform="translate(741.333 466.355)" class="st3 st8">
      SOLENOID
    </text>
    <text transform="translate(740.683 479.605)" class="st3 st8">
      SEQUENCE
    </text>
    <text transform="translate(752.183 492.855)" class="st3 st8">
      VALVE
    </text>
    <text transform="translate(897.5 411.915)" class="st3 st4">
      LOCK
    </text>
    <text transform="translate(897.5 420.765)" class="st3 st4">
      RELEASE
    </text>
    <text transform="translate(938.2 458.942)" class="st3 st8">
      UPLOCK
    </text>
    <text transform="translate(931.2 470.192)" class="st3 st8">
      ACTUATOR
    </text>
    <text transform="translate(1095.15 523.815)" class="st3 st8">
      STABILIZER
    </text>
    <text transform="translate(1107.5 535.065)" class="st3 st8">
      STRUT
    </text>
    <text transform="translate(1097.25 546.315)" class="st3 st8">
      ACTUATOR
    </text>
    <text transform="translate(1046.4 554.465)" class="st3 st4">
      LOCK
    </text>
    <text transform="translate(1046.4 563.315)" class="st3 st4">
      RELEASE
    </text>
    <text transform="translate(1139.225 328.755)" class="st3 st8">
      MAIN GEAR
    </text>
    <text transform="translate(1135.075 340.005)" class="st3 st8">
      RETRACTION
    </text>
    <text transform="translate(1140.825 351.255)" class="st3 st8">
      ACTUATOR
    </text>
    <text transform="translate(470.025 201.829)" class="st3 st8">
      LANDING GEAR
    </text>
    <text transform="translate(472.275 213.079)" class="st3 st8">
      BYPASS VALVE
    </text>
    <text transform="translate(690.35 390.565)" class="st3 st4">
      CLOSE
    </text>
    <text transform="translate(691.45 411.765)" class="st3 st4">
      OPEN
    </text>
    <text transform="translate(296.8 154.028)" class="st3 st5">
      TO
    </text>
    <text transform="translate(279.2 163.678)" class="st3 st5">
      NOSEWHEEL
    </text>
    <text transform="translate(267.95 173.328)" class="st3 st5">
      STEERING SYSTEM
    </text>
    <text transform="translate(868.6 128.715)" class="st3 st5">
      NO. 2 HYD
    </text>
    <text transform="translate(910.83 128.715)" class="st3 st4">
      Return
    </text>
    <text transform="translate(141.595 445.915)" class="st3 st5">
      PRESSURE
    </text>
    <text transform="translate(187.83 445.915)" class="st9 st3 st5">
      No.2 HYD
    </text>
    <text transform="translate(141.595 461.615)" class="st3 st5">
      METERED PRESSURE
    </text>
    <text transform="translate(141.595 477.265)" class="st3 st5">
      RETURN
    </text>
    <path class="st10" d="M236.4 432.3v-16.4H78.1v16.4h158.3z"/>
    <path id="Layer12_31_1_STROKES" class="st11" d="M78.1 432.3v-16.4h158.2v164.4H78.1v-148z"/>
    <text transform="translate(80.145 427.915)" class="st12 st3 st6">
      LEGEND
    </text>
    <path class="st12" d="M135.6 503.7h-41v11.7h40.9v-11.7h.1z"/>
    <path class="st9" d="M122 513v-6.5l5.6 3.2-5.6 3.3z"/>
    <path id="Layer12_33_MEMBER_0_MEMBER_1_1_STROKES" class="st11" d="M134.7 503.8h-41v11.7h40.9l.1-11.7z"/>
    <path id="Layer12_33_MEMBER_0_MEMBER_2_1_STROKES" class="st13" d="M122.1 509.7h-19"/>
    <text transform="translate(141.745 493.865)" class="st3 st5">
      RESTRICTOR
    </text>
    <text transform="translate(141.745 513.165)" class="st3 st5">
      CHECK VALVE
    </text>
    <text transform="translate(440.103 549.808)" class="st3 st6">
      LOCK
    </text>
    <text transform="translate(440.119 559.858)" class="st3 st6">
      ACTUATOR
    </text>
    <text transform="translate(1125.929 458.943)" class="st3 st4">
      UP
    </text>
    <text transform="translate(1076.879 458.893)" class="st3 st4">
      DOWN
    </text>
    <path d="M1074.9 452.4v-9.2l-6.7 4.7 6.7 4.5z"/>
    <path id="Layer12_38_MEMBER_1_1_STROKES" class="st14" d="M1092.3 447.6h-20"/>
    <path d="M1138.8 452.4l6.7-4.5-6.7-4.7v9.2z"/>
    <path id="Layer12_39_MEMBER_1_1_STROKES" class="st14" d="M1121.4 447.6h20"/>
    <text transform="translate(1133.874 428.68)" class="st3 st8">
      AUXILIARY
    </text>
    <text transform="translate(1133.824 439.93)" class="st3 st8">
      ACTUATOR
    </text>
    <path d="M908.4 431.6v-9.2l-6.7 4.7 6.7 4.5z"/>
    <path id="Layer12_41_MEMBER_1_1_STROKES" class="st14" d="M925.8 426.9h-20"/>
    <path d="M1033.9 560.9v-9.2l-6.7 4.7 6.7 4.5z"/>
    <path id="Layer12_42_MEMBER_1_1_STROKES" class="st15" d="M1044.5 556.2h-13.3"/>
    <path class="st1" d="M725.9 31.8v-.5c-.1-.5-.3-1-.6-1.4-.4-.5-1-.7-1.7-.8H469.4c-.7 0-1.3.3-1.8.8-.4.4-.7.9-.7 1.4-.1.2-.1.3-.1.4v143.1c0 .6.2 1.1.7 1.5.4.3.9.5 1.5.5l113.4.1h.4c1.1.2 1.6.9 1.8 2.1v13.8h4.3V175c0-1.4-.9-2.1-2.5-2.2l-113.3-.2c-.5-.1-.9-.3-1.3-.6-.3-.4-.5-.8-.6-1.2V36c0-.6.3-1.2.8-1.8.4-.5 1-.8 1.6-.8h245.6c1.4 0 2.2.8 2.3 2.3l.2 68.9v16.2h4.2v-89z"/>
    <path class="st1" d="M663.9 80.9v-4.3h-52.5v4.3h52.5m33.1 46.8v-4.3h-85.5v4.3H697m142.8 0v-4.3H728.4c-.7-.1-1.2-.4-1.7-1-.4-.4-.7-1-.8-1.6h-4.2v.1c-.1.6-.4 1.1-.8 1.5-.6.6-1.2.9-2 .9h-17.4v4.3l138.3.1m-322-51.1v4.3h73.8c.7 0 1.3.3 1.8.9.5.5.8 1.1.8 1.9v47.5h4.2v-.5c0-.9.3-1.6.8-2.1.4-.5 1-.8 1.6-.9.1 0 .3-.1.5-.1h5.8v-4.3h-6.2c-.5-.2-1-.4-1.4-.9-.5-.5-.8-1-.9-1.5-.1-.2-.1-.5-.1-.6V83.7c.1-.7.4-1.4 1-1.9s1.3-.8 2.1-.8l1.8-.1h3.9v-4.3h-3.9v-.1l-85.6.1z"/>
    <path class="st2" d="M703.5 115.2l-2.1-.1v4.4l6.8.1v-.1l13.1.1v-4.4l-13.1-.1v.1h-4.7m76.8-.9c-.5-.6-.8-1.2-.8-2l-.1-3.9-4.3.1.1 3.9c0 .8-.3 1.4-.8 2-.6.5-1.2.8-2 .8l-45.5-.1v.1h-1v4.4h1v-.1h59.8v-4.4H782c-.6.1-1.2-.2-1.7-.8m-.9-47h-4.3v16.6h4.3V67.3m-261.6 2.3v4.3h87c.8 0 1.4.3 1.8.8.4.4.6 1 .7 1.8h-.9v.3h.9v54.5h4.2v-9.9h.1c.1-.4.4-.7.7-1 .6-.6 1.3-.9 2.2-.9h82.3v-4.4h-1.2v.1-.1l-80.7.2c-.9-.1-1.7-.4-2.4-1.1-.6-.6-.9-1.3-1-2.1V76.6h.1c.1-.7.4-1.2.9-1.7.6-.6 1.3-.9 2.2-1h49.1v-4.3h-146zM534.4 241h-4.2v130c0 .8-.4 1.6-1 2.2s-1.3 1-2.2 1l-102.6-.1v.1h-4.5c-.6-.1-1.2-.4-1.7-.9-.4-.5-.6-1.1-.8-1.7-.1-.1-.1-.3-.1-.6v-11.1h-4.2v39.2h4.2v-17.6c0-.8.3-1.5.9-2 .5-.5 1.1-.8 1.8-1h107c.9 0 1.6.3 2.2 1 .5.5.9 1.1 1 1.8v54.4c-.1.6-.5 1.2-1 1.7-.6.6-1.3.9-2.2 1H420.3c-.8 0-1.5-.3-2.1-.9-.4-.5-.6-1-.8-1.6-.1-.2-.1-.4-.1-.5v-12.7h-4.2v12.8c-.1.8-.4 1.5-1 2.1-.4.4-.9.7-1.5.9H405c-.2 0-.3 0-.5.1-.5.1-.9.3-1.2.7-.3.3-.5.7-.6 1.2v33l4.2-.4.1-28.4c0-.4.2-.8.6-1.2.4-.3.8-.5 1.2-.6.1-.1.3-.1.4-.1H527c.2 0 .3 0 .5.1.6.1 1.2.4 1.7.9s.8 1 1 1.6v.5l-.2 77.6c0 .6-.2 1.1-.6 1.5-.3.3-.6.5-1 .5h-95.3c-.2 0-.3 0-.5.1-.5.1-.9.3-1.2.8-.4.4-.6.9-.6 1.4-.1.1-.1.3-.1.5V542h4.3v-9.7c0-.7.2-1.2.7-1.7.4-.4.9-.6 1.4-.7l95-.1c.7 0 1.2-.2 1.7-.6.5-.5.7-1 .7-1.6v-92.9h-.1V241m435.4 39.2h-4.2v70.6h4.2v-70.6m37.7-11v-4.3l-414.3-.1c-.1 0-.3 0-.5.1-.5.1-.9.4-1.2.8s-.5.9-.6 1.4v97c0 .6.2 1.1.6 1.5.4.4.9.6 1.5.6h65.8v-4.3h-61.5c-.5 0-1-.2-1.5-.6-.4-.5-.6-1-.7-1.6v-88.1c0-.2 0-.4.1-.5.1-.5.3-.8.6-1.1.4-.4.8-.6 1.3-.8.2 0 .3 0 .5-.1h214.8c.2 0 .4 0 .5.1.6.1 1.1.4 1.6.8.6.7.9 1.4.9 2.2v2.7h.1l.2 52.2 4.1.3-.1-55c.1-.9.4-1.6 1-2.2.5-.5 1.1-.8 1.8-.9.2 0 .4 0 .6-.1h139.3c.9 0 1.6.3 2.2.9.6.6.9 1.4 1 2.3v3.5h4.2v-.6h.1l.2-3.7c.2-.6.5-1 .8-1.5.6-.6 1.2-.9 2-1h33.2m23.7-4.2h-18.1v4.3l18.1-.1v-4.2m-18.3-39.2c0-.7-.2-1.3-.6-1.8-.4-.4-.8-.6-1.4-.7-.1 0-.2-.1-.3-.1l-352.7.1c-.6-.1-1.2-.4-1.6-.9-.5-.6-.8-1.2-.9-2l-.1-36.6v-.4c-.2-1-.8-1.6-1.8-1.8-.2-.1-.4-.1-.6-.1h-38.3c-.6 0-1-.3-1.5-.7-.4-.4-.6-.9-.6-1.4v-24.9h-4.3v29.2c0 .5.2.9.6 1.4.4.4.8.6 1.2.6l38.7.2c1.3 0 2.1.6 2.3 1.8v33.1c-.1.5-.4 1-.8 1.5-.5.5-1 .8-1.6.9h-56.1c-.6-.1-1.1-.4-1.5-.9-.6-.7-.9-1.4-.9-2.3l-.1-3.6h-4.3v4.3c-.1.6-.4 1.1-.9 1.6-.6.5-1.2.8-1.9.9H313c-.9-.1-1.7-.4-2.2-.9s-.8-1.1-.9-1.8c-.1-.2-.1-.4-.1-.6v-26.4l-4.3-.1V258h4.3v-27.5c0-.8.3-1.5 1-2.1.4-.4 1-.7 1.6-.9.2-.1.4-.1.6-.1h214.4c.8 0 1.5.3 2.1.9.5.6.8 1.2.8 1.9v6.5h4.2v-6.2c.1-.8.4-1.5.9-2.1.5-.5 1-.8 1.7-.9.2-.1.4-.1.5-.1H1005c.7.1 1.3.3 1.7.8.5.5.7 1.1.7 1.9v129.1c0 .8-.2 1.4-.8 2s-1.2.9-2 .9h-34.8v-6.6h-4.2v6.6H822.9c-.9 0-1.7-.4-2.2-1-.5-.5-.5-1.1-.6-1.8l-.2-1.5V327l-4.1.1v31.3s-.1 1.8-.7 2.5c-.5.5-1.5 1-2.2 1H682.2v4.3h130.3c.8.1 1.4.4 1.9.9.6.6 1 1.5 1 2.6l.1 53.4c-.1.6-.3 1.1-.7 1.5-.4.3-.8.5-1.2.6h-52.3v4.3l56.1-.1c.6 0 1.1-.2 1.6-.6.4-.3.5-.8.5-1.5l.2-57.9c0-.9.3-1.6.9-2.2.7-.7 1.5-1 2.4-1h142.4V427h4.2v-60.8h39.6c.6-.1 1.1-.3 1.5-.7.4-.4.6-.8.6-1.3V225.7m108.7 88v15h4.2v-15h-4.2m3.9-24.7v-21.6c0-.3 0-.5-.1-.7-.3-1-1-1.6-2.2-1.6l-87.5-.2v4.2h83.2c.2 0 .3 0 .4.1 1.1.1 1.7.7 1.9 1.8.1.2.1.5.1.8V289h4.2z"/>
    <path class="st1" d="M407.2 514.2c.1-.5.3-.9.7-1.2.3-.3.7-.6 1.1-.7h119.5V508H405.3c-.2 0-.3 0-.5.1-.5.1-.9.3-1.2.6-.4.4-.6.8-.7 1.3 0 .2-.1.3-.1.5V542h4.2v-27.2c.1-.3.2-.5.2-.6m23-40.8v-30.8h-4.3v30.8h4.3m1-45c-.4-.4-.7-.9-.9-1.4-.1-.3-.1-.6-.1-.8v-3.6h-4.3v15.7h4.3v-1.5c0-.8.3-1.5.9-2.1.5-.5 1.1-.8 1.7-.9l95.8-.1v-4.3h-95.2c-.2 0-.4 0-.6-.1-.6-.1-1.1-.4-1.6-.9m-1-43.6v-6.1h-4.3v20.5h4.3v-3.6c0-.9.3-1.6.9-2.3.4-.5.9-.8 1.5-.9l97.9.1V388H433c-.7-.1-1.3-.4-1.8-1-.5-.5-.7-1.1-.8-1.7-.1-.1-.2-.3-.2-.5m0-24.9h-4.3v14.4h4.3v-14.4m-135-166.5H291v64.9h4.2V244c.1-.9.4-1.7 1-2.2.5-.5 1.1-.8 1.8-1 .2 0 .3-.1.4-.1h7.3v-4.3h-7.2c-.9 0-1.6-.2-2.3-.9-.5-.5-.8-1.1-.9-1.7-.1-.2-.1-.4-.1-.6v-39.8m298.3 29.8h4.3v-6.9h-4.3v6.9m168 216.5v4.3h34.3c.4-.1.8-.3 1.2-.7.3-.3.5-.7.6-1.1v-12.8h-4.3v8c0 .6-.2 1.1-.6 1.5-.5.5-1 .7-1.5.7h-29.7m36-156.2c0-.9.3-1.6 1-2.2.7-.7 1.4-1 2.3-1h14.7V276h-194c-.5.1-1 .3-1.3.7-.3.4-.5.8-.6 1.2 0 .2-.1.4-.1.6v74.7c0 .5.2.9.6 1.2.3.3.7.5 1.1.6h37.6v-4.3h-33.2c-.5 0-.9-.2-1.2-.6s-.5-.8-.5-1.1v-66.9c.1-.4.3-.8.6-1.2.3-.4.8-.6 1.3-.7l164.4-.1c.8 0 1.5.3 2 .9.6.6.9 1.3.9 2.1v64.5c0 .8-.3 1.5-.9 2.1-.6.6-1.2.9-2 .9h-108v4.3h108.4c.6.1 1.1.4 1.6.9.6.6.9 1.2.9 2v67.7h4.3v-67.4c.1-.9.4-1.7 1.1-2.3.4-.5 1-.8 1.6-.9h.6l15 .1v-4.3l-15-.1c-.9 0-1.6-.3-2.3-.9s-1-1.4-1-2.4l.1-63.9m276.6 238.5h4.3v-13h-4.3v13m-66.6-166.8v-4.3H819.8v4.3h187.7m-.1-74.9v-4.3L820 276v4.2h187.4m.3-39.6v-4.3H600.5c-.6-.2-1.2-.5-1.7-.9-.6-.5-.9-1.2-.9-1.9v-6.1h-4.3v6.6c-.2.6-.5 1.1-1 1.5-.6.6-1.3.9-2.1.9H309.8v4.3l236.4.1c.9-.1 1.6.2 2.2.9.5.5.8 1.1 1 1.6v141.5c-.1.9-.4 1.6-1 2.2-.5.5-1.1.8-1.7.9-.2 0-.4.1-.6.1h-11.8v4.4h12c.8 0 1.5.3 2.2.9.6.6.9 1.3.9 2.1v19.9h.2v10.9c-.1.9-.4 1.6-.9 2.2-.6.5-1.4.8-2.2.9h-10.4v4.3l10.7.1c.7.1 1.3.4 1.8.9s.8 1 .9 1.6l.1 69.5c0 .6-.2 1-.6 1.5-.5.4-1 .7-1.7.7h-10.8v4.3h15.2c.6 0 1.1-.2 1.5-.7.4-.4.6-.9.6-1.5v-95.1h-.2V243.8c0-.9.3-1.6 1-2.2.5-.5 1-.8 1.6-.9.2 0 .4-.1.7-.1h450.8m22 39.7V276l-18-.1v4.3h15.2m7.2-4.2v4.3l56.5-.1c.2 0 .4 0 .6.1.4.1.8.3 1 .7.3.4.6.8.7 1.2 0 .2.1.4.1.7v45.6h4.3v-50.7c-.2-1-.7-1.6-1.7-1.9-.2-.1-.4-.1-.6-.1h-59.3m-8.4-35.2c.6 0 1.2.2 1.7.8.3.3.4.7.5 1.1.1.3.1.5.1.8l-.1 104.4c0 .8-.3 1.6-.9 2.2-.5.5-1 .8-1.6.9h-15.4v4.3h14.9c.8 0 1.6.3 2.2.9.6.7.9 1.4.9 2.2v119.1c0 .5.2 1 .7 1.5.3.3.6.4 1 .5.2 0 .4.1.6.1h39.7c.7 0 1.2.3 1.7.8.2.3.4.7.5 1.1.1.2.1.5.1.8v2h4.3l-.1-6.6c0-.5-.2-1-.5-1.4-.4-.5-1-.7-1.7-.8l-39.8-.1c-.6 0-1.1-.3-1.5-.7-.4-.4-.6-.9-.6-1.5V239c0-.3 0-.5-.1-.8-.1-.5-.3-.8-.6-1.1-.4-.4-.8-.6-1.3-.7-.1 0-.3-.1-.4-.1h-19.7v4.3h15.4zm-429.1-86.2h-4.3V193h4.3v-38.6zm103.3-82.5c0-1.7-.8-2.6-2.3-2.6h-16.4v4.3h12c.7.1 1.3.3 1.7.8.3.4.6.8.7 1.4v56.3c0 .6-.2 1.1-.6 1.4-.4.4-.9.6-1.5.6l-77.5.1v4.4l81.7-.1c.5 0 1-.2 1.5-.6.4-.5.6-1 .6-1.5l.1-64.5z"/>
    <path class="st2" d="M582 138.6v-4.3h-92.8c-.5 0-1-.2-1.5-.6-.3-.4-.5-.9-.6-1.4V76.1c0-.6.2-1.1.7-1.6s1.1-.7 1.8-.7h9.3v-4.3h-13.6c-.2 0-.3 0-.4.1-.5.1-.9.3-1.2.7-.4.4-.6.9-.6 1.4l-.1 64.8c0 .6.2 1.1.7 1.6.4.3.8.5 1.3.6h97v-.1z"/>
    <path d="M859.4 127.9l6.7-2.3-6.7-2.5v4.8z"/>
    <path id="Layer9_0_MEMBER_1_1_STROKES" class="st16" d="M842 125.5h20"/>
    <path d="M787.3 117.3l6.7 2.3V115l-6.7 2.3z"/>
    <path id="Layer9_0_MEMBER_3_1_STROKES" class="st16" d="M800.2 117.3h-8.7"/>
    <path d="M777.2 66.1l2.3-6.7h-4.7l2.4 6.7z"/>
    <path id="Layer9_0_MEMBER_5_1_STROKES" class="st16" d="M777.2 53.1v8.7"/>
    <path d="M308.1 275l2.3-6.7h-4.7l2.4 6.7z"/>
    <path id="Layer9_0_MEMBER_7_1_STROKES" class="st16" d="M308.1 250.9v20"/>
    <path d="M292.9 274.9l2.3-6.7h-4.7l2.4 6.7z"/>
    <path id="Layer9_0_MEMBER_9_1_STROKES" class="st16" d="M292.9 250.7v20"/>
    <path d="M308.1 182.7l2.3 6.7h-4.7l2.4-6.7z"/>
    <path id="Layer9_0_MEMBER_11_1_STROKES" class="st16" d="M308.1 206.9v-20"/>
    <path d="M292.9 182.8l2.3 6.7h-4.7l2.4-6.7z"/>
    <path id="Layer9_0_MEMBER_13_1_STROKES" class="st16" d="M292.9 207v-20"/>
    <path id="Layer9_1_1_STROKES" class="st17" d="M364.9 287.2v-6.4h5.6m16.6 0H376m-11.3 43.7l.2-11.9m0-6.4v-12.7m-.2 86v-12.2m0-6.1V349m8.5 61.1h-8.5V404m25.4 6.1h-8.4m-17-12.3v-12.2m0-42.7v-12.2"/>
    <path id="Layer9_2_1_STROKES" class="st18" d="M439.6 470.4v-12.8m0-6.5v-6.4h-6.2m6.2 44.9v-12.8m-15.4-32.1h-9m-6.1 0H397m-10.5 14.8v12.8m4.3-27.6h-4.2v8.4m21.3 41.7h12.2m-30.5 0h12.2m-15.3-16v12.8m39.7 3.2h12.2"/>
    <path id="Layer9_3_1_STROKES" class="st19" d="M1051 292.1v-6.4h6.3m6.4 0h12.8m-25.5 44.4v-12.7m0 21.7v-2.6m0-25.4v-12.7m14.4 55.5h-12.8m-1.6-4.7v-4m112.7-26.2v12.7m0-31.7v12.6m-4.8-26.9h4.8v7.9m-23.8-7.9h12.7m-31.8 0h12.8m-31.8 0h12.7m-31.8 0h12.8m46 68.2h-12.8m-25.3 0h-12.6m31.7 0h-12.8m54-15.9v12.6m-3.2 3.3h-12.7m-63.4 0h-12.6"/>
    <path id="Layer9_3_2_STROKES" class="st20" d="M1051 345.2v-6.1"/>
    <path class="st21" d="M611.4 77.1c0-.2 0-.3.1-.5h-.1v.5z"/>
    <path id="Layer9_4_1_STROKES" class="st16" d="M1011.7 364.3V225.8c0-.7-.2-1.4-.6-1.9-.4-.4-.8-.6-1.4-.7H657.2m-3-2.9l-.1-36.7v-.5c-.2-1-.8-1.6-1.8-1.8-.2-.1-.4-.1-.6-.1h-38.3m-2.1-1.9v-24.9m-74.2 73.1c.2-.1.3-.1.5-.1H1005c.7.1 1.3.3 1.7.8.5.5.7 1.1.7 1.9v129.1m-2.6 2.8H823.1m-3.1-3.7v-31.2m191.7-90.7h20.4c.5.1 1 .3 1.3.7.3.3.5.7.6 1.2.1.2.1.4.1.8v25.8l87.7.2c1.2 0 2 .6 2.2 1.6 0 .2.1.4.1.7V289m-112.4-48.3h15.7c.6 0 1.2.2 1.7.8.3.3.5.7.6 1.2.1.3.1.5.1.8v36.9l-.1 67.5m-3.2 3h-14.8m108.1-61.8v-17.2c0-.3 0-.5-.1-.8-.2-1.1-.8-1.8-1.9-1.8-.1 0-.2-.1-.4-.1h-83.3v6.8h60.6c.2 0 .4 0 .6.1 1 .2 1.5.8 1.7 1.8 0 .2.1.5.1.8v50m-63-52.7v4.3h56.2c.2 0 .4 0 .6.1.4.1.8.3 1.1.7.3.4.6.8.7 1.2v46.3m-81-59.4h18m-18 11.1h18m0-4.3h-18m22.4-11.1v4.3m-4.4-4.3h-18m-41.5 7.7l-.2 3.4h37.5m-187.6-3.6l.1 3.6h145.7v-3.5m-3.1-3.3H823.2c-.2 0-.4 0-.6.1M820 276v4.3h187.4m-41.7-4.3h4.2m-146.6 90.3h186.2M970 362v-6.8h-4.2v6.8m-.1-81.7v70.6h4.2v-70.6m-4.2 86v60.8m4.3-60.8v60.8m59.7-68.7v119.1m1.7 2h40.2c.7 0 1.2.3 1.7.8.2.3.4.7.5 1.2.1.2.1.5.1.8v2m-62.2-129.1h15m-19.2-86h-34.4m-3.1 81.7h37.5m-37.5 4.3h37.5m112.3-41.5v15m4.2-15v15M682.6 69.3h16.3c1.5 0 2.3.9 2.4 2.6v43.3l20.2.1-.2-79.5c-.1-1.5-.9-2.3-2.3-2.3H473.4M471 36l.2 134.6m1.8 2.1l113.3.2c1.6.1 2.5.8 2.5 2.2V193M469.2 29.1h254.2c.7 0 1.2.3 1.7.8.3.4.5.8.6 1.4v83.9l46.4.1m-305.3-84c-.1.2-.1.3-.1.4v143.1m2.3 2.1l113.3.1h.4c1.1.2 1.7.9 1.8 2.1v13.8m6.8-112h-73.8m-18.8-11.4H485c-.2 0-.3 0-.5.1m-1.8 2.6l-.1 64.3m2 2.1h97.2m-83.1-64.8h-9.3m-2.5 2.3v56.2m2.1 2h92.5m-54 93.1H313c-.2 0-.4 0-.6.1m-2.5 3.1v5.8h220.5v-5.8m4.1-.1v5.9h55.9m3.2-2.4v-6.6m-283.7 9v4.3l220.5.2h16m3.1 2.5V385m-2.7 3h-12.2v4.4h11.8m3 3.1l.2 30.8m-3.1 3.2h-11.8v4.3h12.2m2.6 3.2l.1 68.9m-2.2 2.1h-12.8v4.3h17.2m2.1-2.2l-.2-266.2m2.6-3.1c.2 0 .4-.1.7-.1h450.5m-473-4.3h-4.2m58.6-16.4l-.1-3.6m-4.3 4.3v-4.3m-289.2-22.9v39.8c0 .2 0 .4.1.6m3.3 2.5h6.9v-43m4.3.2v26.3c0 .2 0 .4.1.5m3.1 2.8h268.1M295.3 244v14.3m-4.2 0v-64.9m14.5 64.7v-17.4h-7c-.1 0-.3 0-.5.1m7.5-4.4v4.3m101.5 56.4h6.5c.3 0 .5 0 .8.2 1 .3 1.5 1.1 1.6 2.5l.2 36.4m-13.3-34.8h6.5c1.3.1 2 .6 2.3 1.7v33.1m-6.7-45.6v4.3m-4.3 4.4v-8.7m26.2 0v46m-117-78.5v-17.4M426.1 360v14.2h4.3V360m-9.9 14.3l5.6-.1m-8.6-14.2v11.2c0 .2 0 .4.1.5m2.5 6.9h107.1m3.1 2.7v53.9m-3.1 3.2H420.5m-2.9-2.5c-.1-.2-.1-.3-.1-.5v-12.7h.5m12.4-44.2v6.9m3 2.8l97-.1m-100 11.1v-3.6m2.7-3.2l97.3.1m-119.7 45.9h-5.6c-.2 0-.3 0-.4.1m-1.9 1.9c0 .2-.1.4-.1.6v32.4m27.7-50.7v3.6c0 .2 0 .5.1.8m2.5 2.3c.2.1.4.1.6.1h96.8m-117.2 6v-12.8m17.2 14.1v1.6m-4.3 0v-15.8M413.2 360v39.2m4.3 0v-17.3m8.6-3.4v20.7m165-131.5v96.5m2.1 2.1H659m-227.8-75.7v46m99.2 34.5V240.9m4.2 188.6l-.1-37m-4.1 41.3l-96.9.1m93.7-59.6l-96.8-.1m104.1-133.3v147.2M779.2 67.3v16.6m-4.3-16.6v16.6m7 31.3h4.5M682.6 73.6h12c.7.1 1.3.3 1.7.8.3.4.6.8.7 1.4v56.4m-2 1.9l-79.4.1m103.1-10.8h-17.4v4.3h138.3M721.5 121v-1.4l-20.2-.1v3.9m0 12.9v-8.7m0-12.4v4.3m24.4.8v-5.2m2.5 8.3h111.5m-118.2-8.2v4.4M614.6 73.9h49.1m-146.1 0h87c.8 0 1.4.3 1.8.8.4.4.6 1 .7 1.8v54.8m4.3-54.2v3.8h52.3m-52.3-3.8v-.5h52.3m-65.6 7.1v36.7c0 .2 0 .4.1.6m3.3 2.4h5.6m0-42.5l-5.8.1m13.5 34.3l82.2-.2m-85.6 16.2v-8.8m2.9-3H697m-98.9 11.2v.9m9-3.9H601c-.2 0-.3 0-.4.1m-6.8 3.5V83.7m17.6 28.4V80.9m-2.6 104.7l38.7.2c1.3 0 2.1.6 2.3 1.8v33.1m-2.3 2.5H592m15-68.8v29.2m400.5 52.8H600.6m-2.6-3.3v-5.7m-4.3-11v6.8m4.3-6.8v6.8m-4.3-68.8V193m4.3-38.6V193m17.6-54.5h83.6m-87.8-15.1H697m-85.6 4.3H697m116.1 141.6c-.2 0-.3-.1-.5-.1H597.8c-.2 0-.3 0-.5.1m-1.9 1.9c-.1.1-.1.3-.1.5v88.1m2.1 2.2H659m-36.9-85.8l193.5-.1v-3.7M624 283v65.8m2.1 2.2H659m-39.3-72.9v75m1.7 2.2H659m21.8 69.3h57.4m-57.4 4.3h57.4M815.6 276l.1 4.3v46.8m-18.1-43.6v64.1m3.3 3.3h14.8v-23.8m0-46.8h-14.8m-10.5 0l-164 .1m193.6-.1v46.8m-19.7 28.2c.2 0 .4-.1.6-.1h14.8v-4.3m-22.4 7.3v67.2h4.3v-67m18.1.5v-3.7m-18.1 6.8h15m3.1 61.1l-.1-53.3c0-1.1-.4-1.9-1-2.6-.5-.5-1.1-.8-1.9-.8h-15.2m22.5 3.3l-.2 57.7m-2.1 2.2h-20.1v12.7m-1.7 1.8h-34.3m29.2-88.8c-.2 0-.4-.1-.5-.1H682.4m110.9-7.3v-64.5m-31.7 146.2h36m-36-4.3h31.7m-31.7 14.5h29.7m2-2.2v-8m4.3-4.3h16.3M682.4 362h111m-3-11.1h-108m0 15.4h111m-67.7-246.8h60.7M517.6 69.6h146.1m-146.1 7l89.5-.1m400.4 188.4H593.4c-.1 0-.3 0-.5.1m-62.6 180.3v.5l-.1 62.2v15.4m-1.7 2.1h-95.3c-.2 0-.3 0-.4.1m-1.9 2.2c-.1.1-.1.3-.1.5v13.8m4.3 0v-9.7m2.5-2.4l94.6-.2m2.4-2.1v-15.4m-125.7-69.5c.1-.1.3-.1.5-.1h117.8c.2 0 .3 0 .5.1m-97.3-.1v30.8m-4.3-30.8v30.8m-23 36.6v32m4.2 0v-27.2c0-.2 0-.4.1-.5m1.8-2h121M405 508.1c.1-.1.3-.1.4-.1h124.8m506-32.6l39.8.2c.7.1 1.2.3 1.7.8.3.4.5.8.5 1.3l.1 6.6m-.1 24.6v13m-4.3-13v13m-39.8-241.6v192.8m-499.5-39.3V508M820 350.9h145.7M820 355.2h145.7"/>
    <path id="Layer9_4_2_STROKES" class="st22" d="M657.1 223.2h-.5c-.6-.1-1.2-.4-1.6-.9-.5-.6-.8-1.2-.9-2m-40.7-38.9c-.6 0-1-.3-1.5-.7-.4-.4-.6-.8-.6-1.3m396.2 179.8c0 .8-.2 1.4-.8 2s-1.2.9-2 .9m-181.6-.1c-.9 0-1.7-.4-2.2-1-.5-.5-.8-1.4-.8-2.7m209.5-10.5c0 .8-.3 1.6-.9 2.2-.5.5-1 .9-1.7 1h-.6m-53.3-81.8c-.8.1-1.4.4-2 1-.4.4-.7.9-.8 1.5v.9m-4.6-.1c0-.9-.3-1.7-1-2.4-.6-.6-1.3-.9-2.2-.9m-139.8.1c-.7.1-1.2.4-1.8.9-.6.6-.9 1.3-1 2.2m189.7 93.9c.6-.1 1.1-.3 1.5-.7.4-.4.6-.8.6-1.3m14.9-9.1c.8 0 1.6.3 2.2.9.6.7 1 1.4.9 2.2m0 119.2c0 .5.2 1 .7 1.5.3.3.6.5 1 .6m-558-446.1c-.6 0-1.2.2-1.6.8-.5.5-.8 1.1-.8 1.8m.1 134.4v.3c.1.5.2.9.5 1.2.4.3.8.5 1.3.6m299.2-57.4c.8 0 1.5-.3 2-.8.6-.6.9-1.2.9-2l-.1-3.9m-308.2 66.4c0 .6.2 1.1.7 1.5.4.3.9.5 1.4.5h.1m.3-147.8c-.7 0-1.3.3-1.8.8-.4.4-.7.9-.7 1.4m17.9 38.3c-.5.1-.9.3-1.2.7-.4.4-.6.9-.6 1.5v.4m-.2 64.3c0 .6.2 1.1.7 1.5.4.3.8.5 1.3.6m4.8-64.8c-.7 0-1.2.2-1.8.7-.5.5-.7 1-.7 1.6m0 56.2c.1.6.3 1 .6 1.5.5.4.9.6 1.4.6m41.5 96.3v-.4c0-.7-.3-1.3-.8-1.9-.6-.6-1.3-1-2.1-1m-215.1.1c-.6.2-1.2.5-1.6.9-.6.6-1 1.3-1 2.2m227.3-3.1c-.7.1-1.2.4-1.7.9-.5.6-.8 1.3-.9 2.1m56 5.9c.8 0 1.5-.3 2.2-1 .5-.4.8-.9 1-1.5m-47.4 7c.9-.1 1.6.2 2.2.8.5.5.8 1 .9 1.7m.1 141.5c-.1.9-.4 1.6-1 2.2-.5.5-1.1.8-1.7.9m-.5 4.5c.8 0 1.5.3 2.1.9s.9 1.3.9 2.2m.3 30.7c-.1.9-.4 1.6-.9 2.2-.6.5-1.4.8-2.2.9m.3 4.4c.7.1 1.3.4 1.8 1 .5.5.8 1 .9 1.6v.5m.1 69c0 .6-.2 1-.6 1.5-.5.4-1 .7-1.7.7m4.5 4.2c.6 0 1.1-.2 1.5-.7.4-.4.6-.9.6-1.5m-.2-266.2c0-.9.3-1.6 1-2.2.5-.5 1-.8 1.6-.9m35.7-17.6h-.7c-.6-.1-1.1-.4-1.5-.8-.6-.7-.9-1.4-.9-2.3m-7.7 3.1h.5c.7-.1 1.3-.3 1.9-.8.5-.5.8-1 .9-1.6m-289.1 13.1c.1.6.4 1.2.9 1.7.7.6 1.4.9 2.3.8h.1m11.3-15.9c.1.7.4 1.2.9 1.8.6.6 1.3.9 2.2 1m-15 17.5c-.7.2-1.2.5-1.8 1-.6.6-.9 1.3-1 2.2M405 294.9c0 .6.2 1.2.6 1.7.5.4.9.6 1.4.6m-6.3 2.1c0 .5.2 1 .7 1.4.4.4.9.6 1.5.7m14.7 70.3c.1.6.4 1.2.8 1.7.5.5 1.1.8 1.7.9h.4m106.7 4.3c.9 0 1.6.3 2.2 1 .5.5.8 1.1 1 1.8m0 53.8c0 .9-.4 1.6-1 2.2s-1.3.9-2.2 1m-106.7 0c-.8 0-1.5-.3-2.1-.9-.4-.5-.6-1-.8-1.6m-.1-54v-.2c0-.8.3-1.5.9-2 .5-.5 1.1-.8 1.8-1m10.2 6.8c.1.6.4 1.2.9 1.7.5.6 1.1.9 1.8 1h.3m-3 7.4c0-.9.3-1.6.9-2.3.4-.5.9-.8 1.4-.9h.4m-28.5 46.1c-.5.1-.9.3-1.2.7-.3.3-.5.7-.6 1.2m27.7-13.3c.2.5.5 1 .9 1.4.5.5 1 .8 1.6.9m-22.3 9c.6-.1 1.1-.4 1.5-.8.6-.6.9-1.3 1-2.1M592.9 265c-1.1.2-1.8 1.2-1.8 2.2v.5m-.1 96.5c0 .6.2 1.1.6 1.5.4.4.9.6 1.5.6m-159.6 67.6h-.5c-.6 0-1.2.3-1.7.9-.6.6-.9 1.2-.9 2m96.8-62.5c.9 0 1.6-.4 2.2-1 .6-.6 1-1.3 1-2.2m248.8-262.7l.1 3.9c0 .8.2 1.4.8 2 .5.6 1.1.9 1.8.8h.1M697.1 132c0 .6-.2 1-.6 1.5-.4.4-.9.6-1.4.6m4.1 4.4c.5 0 1-.2 1.5-.6.4-.5.6-1 .6-1.5m20.2-15.4c-.1.6-.4 1.1-.8 1.5-.6.6-1.2.9-2 .9m7-3.1c0 .9.3 1.6.8 2.1.4.6 1 .9 1.6 1M611.5 76.6c.1-.7.4-1.2.9-1.7.6-.6 1.3-.9 2.2-1m-3.1 2.7c-.1.1-.1.3-.1.5m-10 3.9h-.2c-.8 0-1.5.3-2.1.8s-.9 1.2-1 1.9m.1 37.3c.1.6.4 1.1.9 1.5.4.4.9.7 1.4.9h1m-7.7-39.7c0-.8-.2-1.4-.8-1.9-.5-.6-1.1-.9-1.8-.9m20.2 31.2c.1.8.4 1.5 1 2.1.7.7 1.5 1 2.4 1.1m-3.4 7.2v-.4c.1-.6.3-1.2.8-1.7.6-.6 1.3-.9 2.2-.9m-13.9 8.2c-.6.1-1.2.4-1.6.9-.6.6-.8 1.3-.8 2.1m51.7 90c-.1.5-.4 1-.8 1.5-.5.5-1 .9-1.6 1M607 183.6c0 .5.2 1 .6 1.3.4.4.8.6 1.2.7m-8.2 50.8c-.6-.2-1.2-.5-1.7-1-.6-.5-.9-1.2-1-1.9v-.4m-.6 36.2c-.5.2-.9.4-1.3.8-.3.3-.4.7-.6 1.1m-.1 88.6c.1.6.3 1.1.7 1.6.4.4.9.6 1.5.6m22.2-83.9c.1-.5.4-.9.7-1.2.3-.4.8-.6 1.3-.7h.5m193.4-3.8c0-.8-.3-1.6-.9-2.2-.5-.5-1-.8-1.6-.8m-186.7 11.1h-.4c-.5.1-1 .3-1.3.7-.3.4-.5.8-.6 1.2v.7m-.1 65.7c0 1.5.8 2.2 1.7 2.2h.4m-6.4 2.1v.3c0 1 .8 1.9 1.8 1.9m179.4-75c-.9 0-1.6.3-2.3 1-.7.6-1 1.3-1 2.2m0 64.1c0 .9.4 1.7 1 2.3.7.6 1.4 1 2.3 1m-7.6-67.6c0-.8-.3-1.5-.9-2.1-.6-.6-1.3-.9-2-.9m7.2 78.1c.1-.9.4-1.7 1.1-2.3.4-.5 1-.8 1.6-.8m12.3 6.7h.4c.7 0 1.3-.3 1.8-.9.6-.7.9-1.4.9-2.3m7.6 7.5c-.9 0-1.7.4-2.4 1-.6.6-.9 1.3-.9 2.2v.1m-.1 57.7v.1c0 .6-.2 1.1-.5 1.5-.5.5-1 .7-1.6.7m-20.2 12.7c-.1.4-.3.8-.6 1.1-.4.4-.8.6-1.2.7m-2.5-85.9c0-.8-.3-1.5-.9-2-.5-.5-1-.8-1.6-.8m-.4-4.5c.8-.1 1.4-.4 2-1s.9-1.3.9-2.1m-2 92c.5 0 1-.2 1.5-.7.4-.4.6-.9.6-1.5m20.5-12.3c.4-.1.8-.3 1.2-.7.4-.4.6-.9.7-1.5M530.2 523.4c0 .6-.2 1.1-.6 1.5-.3.3-.6.5-1 .6m-95.8.2c-.5.1-.9.3-1.2.8s-.6.9-.6 1.4m4.1 4.5c0-.7.2-1.2.7-1.7.4-.4.9-.6 1.4-.7h.4m94.6-.1c.7 0 1.2-.1 1.7-.5.5-.5.7-1 .7-1.6m-6.9-85c.6.1 1.2.4 1.7.8.5.5.8 1 1 1.6m-121.5-2.4c-.5.1-.9.3-1.2.6-.3.3-.5.7-.6 1.2-.1 9.5-.1 19-.1 28.5m.4 41.2c.1-.5.3-.9.7-1.2.3-.3.7-.6 1.1-.7m-4.2-4.3c-.5.1-.9.3-1.2.7-.4.4-.6.8-.7 1.3m631-36.9c0 .6.2 1.1.6 1.5s.9.7 1.6.7"/>
    <path id="Layer9_4_3_STROKES" class="st23" d="M291.1 193.5h4.2m10.3 0l4.3.1m-14.6 64.7h-4.2m14.5-.2h4.3m120.9 284h4.3m-32.1 0h4.2"/>
    <path d="M366.3 263.1v-9.2l-6.7 4.7 6.7 4.5z"/>
    <path id="Layer9_5_MEMBER_1_1_STROKES" class="st15" d="M378.2 258.2h-14.7"/>
    <path d="M468.5 263.1l6.7-4.5-6.7-4.7v9.2z"/>
    <path id="Layer9_6_MEMBER_1_1_STROKES" class="st15" d="M455.9 258.2h15.2"/>
    <path d="M360 578.8v-9.2l-6.7 4.7 6.7 4.5z"/>
    <path id="Layer9_7_MEMBER_1_1_STROKES" class="st15" d="M372 574.1h-14.7"/>
    <path d="M479.2 578.8l6.7-4.5-6.7-4.7v9.2z"/>
    <path id="Layer9_8_MEMBER_1_1_STROKES" class="st15" d="M466.7 574.1h15.2"/>
    <path d="M385.1 504.5v-9.2l-6.7 4.7 6.7 4.5z"/>
    <path id="Layer9_9_MEMBER_1_1_STROKES" class="st15" d="M397 499.7h-14.7"/>
    <path d="M458.7 504.5l6.7-4.5-6.7-4.7v9.2z"/>
    <path id="Layer9_10_MEMBER_1_1_STROKES" class="st15" d="M446.1 499.7h15.2"/>
    <path d="M690.5 411h-9.2l4.7 6.7 4.5-6.7z"/>
    <path id="Layer9_11_MEMBER_1_1_STROKES" class="st15" d="M686.1 398.6v14.7"/>
    <path d="M690.6 382.1l-4.5-6.7-4.7 6.7h9.2z"/>
    <path id="Layer9_12_MEMBER_1_1_STROKES" class="st15" d="M685.8 394.6v-15.2"/>
    <path id="Layer8_1_MEMBER_0_1_STROKES" class="st24" d="M777.3 102.2v-17"/>
    <path class="st9" d="M777.3 108.3l1.7-6.1h-3.4l1.7 6.1z"/>
    <path id="Layer8_1_MEMBER_2_1_STROKES" class="st11" d="M780.6 83.9v24.8h-7V83.9h7z"/>
    <path class="st9" d="M793.4 318.5c.9-1.1 1.3-3.1 1.3-6 0-1.7-.2-3.1-.6-4.4l-.7-1.4h-1.6v11.7l1.6.1z"/>
    <path id="Layer8_2_MEMBER_1_1_STROKES" class="st25" d="M799 318.4h-7.2v-11.6h7.2v11.6z"/>
    <path class="st9" d="M796.1 312.5c0 3 .5 5 1.4 6h1.5v-11.7h-1.5l-.7 1.4c-.5 1.2-.7 2.6-.7 4.3z"/>
    <path class="st12" d="M1079.4 509v-24.8h-7V509h7z"/>
    <path id="Layer8_3_MEMBER_0_1_STROKES" class="st24" d="M1075.7 487c-1.8 1.6-2.2 3.4-1.1 5.4 1.4 2.5 2 4.2 1.7 5.1-.1.1-.5.6-1.5 1.5-.6.6-.7 1.2-.5 1.8.1.4.4.9.9 1.6"/>
    <path id="Layer8_3_MEMBER_1_1_STROKES" class="st24" d="M1077.6 505.7v-18.6"/>
    <path class="st9" d="M1076.3 502.4l-2.4.1 1.4 3.6 1-3.7z"/>
    <path id="Layer8_3_MEMBER_3_1_STROKES" class="st11" d="M1072.4 484.2V509h7v-24.8h-7z"/>
    <path class="st12" d="M408.1 469.8v-24.9h-6.9v24.9h6.9z"/>
    <path id="Layer8_4_MEMBER_0_1_STROKES" class="st24" d="M404.1 447.8c-1.8 1.6-2.2 3.4-1.1 5.4 1.4 2.5 2 4.2 1.7 5.1l-1.5 1.5c-.6.6-.7 1.2-.5 1.8l.9 1.5"/>
    <path id="Layer8_4_MEMBER_1_1_STROKES" class="st24" d="M406.1 466.4v-18.6"/>
    <path class="st9" d="M404.8 463l-2.4.2 1.4 3.6 1-3.8z"/>
    <path id="Layer8_4_MEMBER_3_1_STROKES" class="st11" d="M400.9 444.8v24.9h6.9v-24.9h-6.9z"/>
    <path class="st12" d="M431.5 469.9v-24.8h-7v24.8h7z"/>
    <path id="Layer8_5_MEMBER_0_1_STROKES" class="st24" d="M428.3 448.3c-1.8 1.6-2.2 3.4-1.1 5.4 1.4 2.5 2 4.2 1.7 5.1-.1.1-.5.6-1.5 1.5-.6.6-.7 1.2-.5 1.8.1.4.4.9.9 1.6"/>
    <path id="Layer8_5_MEMBER_1_1_STROKES" class="st24" d="M430.3 467v-18.6"/>
    <path class="st9" d="M428.9 463.6l-2.4.1 1.4 3.6 1-3.7z"/>
    <path id="Layer8_5_MEMBER_3_1_STROKES" class="st11" d="M425 445.4v24.8h7v-24.8h-7z"/>
    <path class="st12" d="M1118.3 313.8h7v-24.9h-7v24.9z"/>
    <path id="Layer8_6_MEMBER_0_1_STROKES" class="st24" d="M1121.5 291.8c-1.8 1.6-2.2 3.4-1.1 5.4 1.4 2.5 2 4.2 1.6 5.1-.1.1-.5.6-1.4 1.5-.6.6-.8 1.2-.6 1.8.1.3.4.8 1 1.5"/>
    <path id="Layer8_6_MEMBER_1_1_STROKES" class="st24" d="M1123.4 310.5v-18.6"/>
    <path class="st9" d="M1122.1 307.1l-2.4.2 1.5 3.6.9-3.8z"/>
    <path id="Layer8_6_MEMBER_3_1_STROKES" class="st11" d="M1118.3 288.9v24.9h7v-24.9h-7z"/>
    <path class="st9" d="M550.2 404.1l-.7-1.4H548v11.7h1.5c.9-1 1.4-3 1.4-6 0-1.5-.3-3-.7-4.3z"/>
    <path id="Layer8_7_MEMBER_0_1_STROKES" class="st26" d="M550.2 404.1c.5 1.3.7 2.7.7 4.4 0 3-.5 5-1.4 6H548v-11.7h1.5l.7 1.3z"/>
    <path id="Layer8_7_MEMBER_1_1_STROKES" class="st25" d="M555.2 402.7v11.7H548v-11.7h7.2z"/>
    <path class="st9" d="M553.6 402.7l-.7 1.4c-.5 1.2-.7 2.7-.7 4.4 0 2.9.5 4.9 1.4 6h1.5v-11.7l-1.5-.1z"/>
    <path id="Layer8_7_MEMBER_2_1_STROKES" class="st26" d="M553 404.1c-.5 1.2-.7 2.7-.7 4.4 0 2.9.5 4.9 1.4 6h1.5v-11.7h-1.5l-.7 1.3z"/>
    <path class="st9" d="M530.5 404H529v11.7h1.5c.9-1.1 1.4-3.1 1.4-6 0-1.7-.2-3.1-.7-4.4l-.7-1.3z"/>
    <path id="Layer8_8_MEMBER_0_1_STROKES" class="st26" d="M530.5 404l.7 1.4c.5 1.2.7 2.7.7 4.4 0 2.9-.5 4.9-1.4 6H529V404h1.5z"/>
    <path id="Layer8_8_MEMBER_1_1_STROKES" class="st25" d="M536.2 404v11.6H529V404h7.2z"/>
    <path class="st9" d="M536.1 403.9h-1.6l-.7 1.4c-.5 1.3-.7 2.7-.7 4.4 0 3 .5 5 1.4 6h1.6v-11.8z"/>
    <path id="Layer8_8_MEMBER_2_1_STROKES" class="st26" d="M534.6 403.9l-.7 1.4c-.5 1.3-.7 2.7-.7 4.4 0 3 .5 5 1.4 6h1.6V404l-1.6-.1z"/>
    <path id="Layer8_9_1_STROKES" class="st27" d="M670.9 390.5v12.2"/>
    <path id="Layer8_10_1_STROKES" class="st28" d="M1072.3 338.3h6.6m-15.9 6.4v-6.4h6.3m-6.2 85.1v6.4h6.3m3 0h6.6"/>
    <path id="Layer8_10_2_STROKES" class="st17" d="M1063 368.9v12.2m0-30.6v12.3m0 42.8v12.2m0-30.6v12.2"/>
    <text transform="translate(283.257 286.538)" class="st9 st3 st4">
      TO LEFT
    </text>
    <text transform="translate(276.407 294.588)" class="st9 st3 st4">
      MAIN GEAR
    </text>
    <text transform="rotate(-90 269.533 -18.217)" class="st9 st3 st4">
      PRESSURE
    </text>
    <path id="Layer8_13_1_STROKES" class="st20" d="M619.4 37.2h-13m51.7 0h-12.9m-6.5 0h-12.8m83.1 7.2v-7.2h-5.7m-6.5 0H684m-6.5 0h-12.9m-161.6 0h-13m-6.4 0h-6.5v6.4m64.7-6.4h-13m51.8 0h-13m-6.4 0h-13m-25.8 0h-13m-32.2 32.3v12.9m0-32.3v13m0 45.2v13m0 6.4v13m0-51.8v13m2.4 62h13m-15.4-16.8V160m21.8 3.9h13m64.6 0h12.9m-32.3 0h13m-32.4 0h13m-32.4 0h13M709 83.2v-13m0-6.4v-13m0 71.1V109m0 32.3v-12.9m0-25.8v-13m-93.6 74.3h7m-26.4 0h12.9m87 0h9.9m3.2-3.2v-12.8M600 37.2h-13"/>
    <text transform="translate(747.433 315.615)" class="st9 st3 st6">
      Restrictor
    </text>
    <text transform="translate(559.457 411.915)" class="st9 st3 st6">
      Restrictor
    </text>
    <path class="st9" d="M106.6 35.2H58.9V61h47.8l-.1-25.8z"/>
    <path id="Layer8_16_MEMBER_1_1_STROKES" class="st29" d="M58.9 35.2V61h47.8V35.2H58.9z"/>
    <defs>
      <path id="SVGID_3_" d="M59.8 38.2h45.3v12H59.8z"/>
    </defs>
    <clipPath id="SVGID_4_">
      <use xlink:href="#SVGID_3_" overflow="visible"/>
    </clipPath>
    <g class="st30">
      <text transform="translate(61.82 46.353)" class="st31 st3 st5">
        LDG GEAR
      </text>
    </g>
    <defs>
      <path id="SVGID_5_" d="M71.7 47.2h23.6v12H71.7z"/>
    </defs>
    <clipPath id="SVGID_6_">
      <use xlink:href="#SVGID_5_" overflow="visible"/>
    </clipPath>
    <g class="st32">
      <text transform="translate(73.72 55.353)" class="st31 st3 st5">
        INOP
      </text>
    </g>
    <path class="st1" d="M738.3 428.9v-4.3h-57.4v4.3h57.4z"/>
    <path class="st2" d="M1048.5 533.4v-4.3H725.4c-.4-.1-.7-.4-1-.7s-.5-.6-.5-1l-.2-79.1c0-1.1.3-1.9 1-2.5.6-.6 1.4-.9 2.4-.9h11.4v-4.4H692c-.2 0-.3 0-.4.1-.5.1-.9.4-1.2.8-.4.4-.6.9-.6 1.4-.1.1-.1.3-.1.5v6.1c-.1.5-.3.9-.7 1.2-.4.4-.9.6-1.4.7h-6.8v4.5h10.8c.2 0 .3 0 .4-.1.5-.1.9-.4 1.2-.8.4-.4.6-.9.6-1.4.1-.1.1-.3.1-.5v-6.1c.1-.5.3-.9.7-1.2.4-.4.9-.6 1.4-.7h20.6c.8.1 1.4.4 1.8.9.5.5.8 1.1 1 1.9v83.7c0 .5.2 1 .7 1.5.3.3.7.5 1.1.7h327.3v-.3zm-368-102.5h-19.1v25.7h19.1v-25.7z"/>
    <path class="st1" d="M680.5 427.5v-6h-19.1v6h19.1z"/>
    <path id="door_act_rear_0_Layer5_0_1_STROKES" class="st16" d="M724.1 526.5l-.2-78.6c0-1.1.3-1.9 1-2.5.6-.6 1.4-.9 2.4-.9h11.4m-19 86.4v-83.7c-.2-.8-.5-1.4-1-1.9s-1.1-.8-1.8-.9h-20m-2.4 2.4v5.8c0 .2 0 .3-.1.5m-1.9 2.1c-.1.1-.3.1-.5.1h-11m57.8-15.3h-46.2c-.2 0-.3 0-.4.1m-1.9 2.2c-.1.1-.1.3-.1.4v5.8m-2.5 2.3H681m44.7 78h323.1m-327.3 4.3h325.4"/>
    <path id="door_act_rear_0_Layer5_0_2_STROKES" class="st33" d="M696.9 444.5h-.4c-.5.1-1 .3-1.4.7-.4.4-.7 1-.7 1.6m0 6.2c0 .5-.2 1-.6 1.4-.4.4-.8.6-1.2.8m-.5-15.1c-.5.1-.9.4-1.2.8-.4.4-.6.9-.6 1.4m-.1 6.2c0 .6-.3 1.2-.7 1.6s-.9.6-1.4.7h-.3m37.9 78c-.4-.1-.7-.4-1-.7s-.5-.7-.5-1v-.5m-4.5 4.3c0 .5.2 1 .7 1.5.3.3.7.5 1.1.7"/>
    <path id="door_act_rear_0_Layer5_1_1_STROKES" class="st11" d="M680.5 421.5h-19.1v35.2h19.1v-35.2z"/>
    <path class="st34" d="M661.4 430.9h19.1v-3.4h-19.1v3.4z"/>
    <path id="door_act_rear_0_Layer4_0_1_STROKES" class="st24" d="M680.4 430.9v-3.4h-19.1v3.4h19.1z"/>
    <path id="door_act_rear_0_Layer4_1_1_STROKES" class="st35" d="M671 400.8v26.7"/>
    <path class="st12" d="M683.1 369.8v-44.6h-23.5v44.6h23.5z"/>
    <path id="door_act_rear_0_Layer3_0_MEMBER_0_1_STROKES" class="st24" d="M659.7 353h6v-2.8m0 5.5V353m-6 11.1h6v-2.9m0 5.6V364m11.4-8.3v-5.5m0 2.8h6m-6 8.2v2.9h6m-6 2.7V364"/>
    <path id="door_act_rear_0_Layer3_0_MEMBER_0_2_STROKES" class="st11" d="M683.1 347.2h-23.5"/>
    <path id="door_act_rear_0_Layer3_0_MEMBER_1_1_STROKES" class="st11" d="M673.9 380.6c0-.7-.3-1.3-.8-1.8s-1-.8-1.8-.8c-.7 0-1.3.3-1.8.8s-.8 1.1-.8 1.8.3 1.3.8 1.8 1 .8 1.8.8 1.3-.3 1.8-.8.8-1.1.8-1.8z"/>
    <path id="door_act_rear_0_Layer3_0_MEMBER_2_1_STROKES" class="st11" d="M671.4 386.2c1.5 0 2.8-.5 3.9-1.6s1.6-2.5 1.6-4"/>
    <path id="door_act_rear_0_Layer3_0_MEMBER_3_1_STROKES" class="st11" d="M676.9 380.6c0-1.5-.5-2.8-1.6-3.9s-2.4-1.6-3.9-1.6-2.8.5-3.9 1.6-1.6 2.4-1.6 3.9.5 2.9 1.6 4 2.4 1.6 3.9 1.6"/>
    <path id="door_act_rear_0_Layer3_0_MEMBER_4_1_STROKES" class="st11" d="M667.2 369.6v7.2"/>
    <path id="door_act_rear_0_Layer3_0_MEMBER_5_1_STROKES" class="st11" d="M675 369.6v6.5"/>
    <path id="door_act_rear_0_Layer3_0_MEMBER_6_MEMBER_0_1_STROKES" class="st24" d="M676.7 331.5h-13.2"/>
    <path class="st9" d="M682.9 331.6l-6.1-1.7v3.4l6.1-1.7zm-17.3-1.7l-6.1 1.7 6.1 1.8v-3.5z"/>
    <path id="door_act_rear_0_Layer3_0_MEMBER_7_MEMBER_0_1_STROKES" class="st24" d="M676.7 341.6h-13.2"/>
    <path class="st9" d="M682.9 341.7l-6.1-1.7v3.4l6.1-1.7zm-17.3-1.7l-6.1 1.7 6.1 1.8V340z"/>
    <path id="door_act_rear_0_Layer3_0_MEMBER_8_1_STROKES" class="st11" d="M659.7 325.2h23.5v44.6h-23.5v-44.6z"/>
    <path class="st2" d="M431.2 291h-4.3v45h4.3v-45z"/>
    <path class="st1" d="M411.7 303.2c0 .2.1.5.1.8v32.3h4.4l-.1-36.5c-.1-1.4-.6-2.2-1.6-2.5-.3-.1-.5-.1-.8-.1h-6.5c-.5 0-1-.2-1.5-.6-.4-.5-.6-1-.6-1.6v-4.3h-4.3v8.7c0 .5.2 1 .6 1.5.4.4 1 .6 1.5.7l6.5.1c1.3-.1 2.1.4 2.3 1.5z"/>
    <path class="st2" d="M435.3 271.5h-27.7v19.1h27.7v-19.1z"/>
    <path class="st1" d="M400.1 290.6h4.1v-19.1h-4.1v19.1z"/>
    <path id="door_act_fwd_0_Layer6_0_1_STROKES" class="st11" d="M400.1 271.5v19.1h35.2v-19.1h-35.2z"/>
    <path id="door_act_fwd_0_Layer6_1_1_STROKES" class="st33" d="M400.8 299.3c0 .5.2 1 .6 1.5.4.4 1 .6 1.5.7m2.2-6.6c0 .6.2 1.2.6 1.6.5.4 1 .6 1.5.6"/>
    <path id="door_act_fwd_0_Layer6_1_2_STROKES" class="st16" d="M403 301.5l6.5.1c1.3.1 2 .6 2.3 1.7 0 .2.1.5.1.8v32.3m-11.1-37.1v-8.7m4.3 0v4.3m2 2.3h6.5c.3 0 .5 0 .8.1 1 .3 1.5 1.1 1.6 2.5l.1 36.5m15.2-45.7v46m-4.3-46v46"/>
    <path class="st34" d="M407.6 290.6v-19.1h-3.4v19.1h3.4z"/>
    <path id="door_act_fwd_0_Layer5_0_1_STROKES" class="st24" d="M407.5 271.6h-3.4v19.1h3.4v-19.1z"/>
    <path id="door_act_fwd_0_Layer5_1_1_STROKES" class="st35" d="M377.4 281h26.7"/>
    <path class="st12" d="M384 398.6V422h47.8v-23.4H384z"/>
    <path id="door_act_fwd_0_Layer4_0_MEMBER_0_1_STROKES" class="st14" d="M404.9 404.3h2.8m-2.8 0h-2.8m2.8-6v6.1m2.9 11.2H405v6.1m-.1-6.1h-2.8m-8-11h-5.6m5.6 11.3h-2.8v6.1m0-6.1h-2.8m2.8-17.3v6.1m18.6 16.9v-23.4"/>
    <path id="door_act_fwd_0_Layer4_0_MEMBER_1_1_STROKES" class="st11" d="M373.5 407.4c.7 0 1.3.3 1.8.8s.8 1.1.8 1.8-.3 1.3-.8 1.8-1.1.8-1.8.8-1.3-.3-1.8-.8-.8-1-.8-1.8c0-.7.3-1.3.8-1.8s1-.8 1.8-.8z"/>
    <path id="door_act_fwd_0_Layer4_0_MEMBER_2_1_STROKES" class="st11" d="M367.9 410c0-1.5.5-2.8 1.6-3.9s2.4-1.7 3.9-1.7"/>
    <path id="door_act_fwd_0_Layer4_0_MEMBER_3_1_STROKES" class="st11" d="M373.5 404.4c1.5 0 2.9.6 4 1.7s1.6 2.4 1.6 3.9-.5 2.8-1.6 3.9-2.5 1.6-4 1.6-2.8-.5-3.9-1.6-1.6-2.4-1.6-3.9"/>
    <path id="door_act_fwd_0_Layer4_0_MEMBER_4_1_STROKES" class="st11" d="M384.4 414.1h-7.1"/>
    <path id="door_act_fwd_0_Layer4_0_MEMBER_5_1_STROKES" class="st11" d="M384.4 406.3H378"/>
    <path id="door_act_fwd_0_Layer4_0_MEMBER_6_MEMBER_0_1_STROKES" class="st24" d="M427.7 404.3v13.3"/>
    <path class="st9" d="M429.5 404.4l-1.8-6.1-1.8 6.1h3.6zm-1.7 17.3l1.8-6.1h-3.5l1.7 6.1z"/>
    <path id="door_act_fwd_0_Layer4_0_MEMBER_7_MEMBER_0_1_STROKES" class="st24" d="M415.4 404.6v13.3"/>
    <path class="st9" d="M413.7 404.6h3.5l-1.7-6.1-1.8 6.1zm1.9 17.4l1.7-6.1h-3.5l1.8 6.1z"/>
    <path id="door_act_fwd_0_Layer4_0_MEMBER_8_1_STROKES" class="st11" d="M384.3 398.3v23.4H432v-23.4h-47.7z"/>
    <path class="st2" d="M411.2 542.1v19.1h25.4v-19.1h-25.4z"/>
    <path class="st1" d="M401.5 542.1v19.1h6.2v-19.1h-6.2z"/>
    <path id="ng_uplock_act_0_Layer3_0_1_STROKES" class="st11" d="M401.5 542.1v19.1h35.2v-19.1h-35.2z"/>
    <path class="st34" d="M411 561.2v-19.1h-3.4v19.1h3.4z"/>
    <path id="ng_uplock_act_0_Layer2_0_MEMBER_0_1_STROKES" class="st24" d="M410.9 542.2h-3.4v19.1h3.4v-19.1z"/>
    <path id="ng_uplock_act_0_Layer2_0_MEMBER_1_1_STROKES" class="st35" d="M380.8 551.6h26.7"/>
    <path class="st2" d="M423.7 473.5h-23.2v19.1h23.2v-19.1z"/>
    <path class="st1" d="M427.1 492.6h8.5v-19.1h-8.5v19.1z"/>
    <path id="act_ng_retr_0_Layer3_0_1_STROKES" class="st11" d="M400.5 473.5v19.1h35.2v-19.1h-35.2z"/>
    <path class="st34" d="M427.2 492.6v-19.1h-3.4v19.1h3.4z"/>
    <path id="act_ng_retr_0_Layer2_0_MEMBER_0_1_STROKES" class="st24" d="M427.1 473.6h-3.4v19.1h3.4v-19.1z"/>
    <path id="act_ng_retr_0_Layer2_0_MEMBER_1_1_STROKES" class="st35" d="M397 483h26.7"/>
    <path class="st1" d="M1091.8 328.7v19.1h6.2v-19.1h-6.2z"/>
    <path class="st2" d="M1126.9 347.8v-19.1h-25.4v19.1h25.4z"/>
    <path id="act_ret_main_0_Layer3_0_1_STROKES" class="st11" d="M1091.8 328.7v19.1h35.2v-19.1h-35.2z"/>
    <path class="st34" d="M1101.3 347.8v-19.1h-3.4v19.1h3.4z"/>
    <path id="act_ret_main_0_Layer2_0_MEMBER_0_1_STROKES" class="st24" d="M1101.2 328.8h-3.4v19.1h3.4v-19.1z"/>
    <path id="act_ret_main_0_Layer2_0_MEMBER_1_1_STROKES" class="st35" d="M1071.1 338.2h26.7"/>
    <path class="st2" d="M1069.9 540.7v-19.1h-25.4v19.1h25.4z"/>
    <path class="st1" d="M1079.6 540.7v-19.1h-6.2v19.1h6.2z"/>
    <path id="ret_act_0_Layer3_0_1_STROKES" class="st11" d="M1079.6 540.7v-19.1h-35.2v19.1h35.2z"/>
    <path class="st34" d="M1070.1 521.6v19.1h3.4v-19.1h-3.4z"/>
    <path id="ret_act_0_Layer2_0_MEMBER_0_1_STROKES" class="st24" d="M1070.2 540.6h3.4v-19.1h-3.4v19.1z"/>
    <path id="ret_act_0_Layer2_0_MEMBER_1_1_STROKES" class="st35" d="M1100.3 531.1h-26.7"/>
    <path class="st2" d="M950.3 427v19.1H974V427h-23.7z"/>
    <path id="upl_act_0_Layer6_0_1_STROKES" class="st11" d="M938.9 427v19.1H974V427h-35.1z"/>
    <path class="st34" d="M950.4 446.1V427H947v19.1h3.4z"/>
    <path id="upl_act_0_Layer5_0_MEMBER_0_1_STROKES" class="st24" d="M950.3 427.1h-3.4v19.1h3.4v-19.1z"/>
    <path id="upl_act_0_Layer5_0_MEMBER_1_1_STROKES" class="st35" d="M920.2 436.5h26.7"/>
    <path id="upl_act_0_Layer4_0_MEMBER_0_1_STROKES" class="st36" d="M939 432.1l1.8 9"/>
    <path id="upl_act_0_Layer4_0_MEMBER_1_1_STROKES" class="st36" d="M940.8 441l1.8-9"/>
    <path id="upl_act_0_Layer4_0_MEMBER_2_1_STROKES" class="st36" d="M942.6 432.1l1.8 9"/>
    <path id="upl_act_0_Layer4_0_MEMBER_3_1_STROKES" class="st36" d="M944.4 441l1.8-9"/>
    <path id="upl_act_0_Layer4_0_MEMBER_4_1_STROKES" class="st36" d="M946.2 432.1l.3 1.7"/>
    <path class="st37" d="M219.1 40c-1.1-1.1-2.5-1.7-4.1-1.7h-80.3c-1.6 0-3 .6-4.1 1.7-1.1 1.2-1.6 2.5-1.6 4.1v142.5c0 1.5.5 2.9 1.6 4 1.2 1.1 2.6 1.7 4.1 1.7 1.6 0 3-.6 4.1-1.7s1.7-2.5 1.7-4 .5-2.7 1.5-3.7c.3-.3.7-.6 1.1-.9.8-.5 1.7-.7 2.7-.7H204c1 0 1.9.2 2.7.7.3.3.7.6 1 .9 1.1 1 1.6 2.2 1.6 3.7s.6 2.9 1.7 4 2.5 1.7 4.1 1.7 2.9-.6 4.1-1.7 1.7-2.5 1.7-4V44.1c-.1-1.6-.7-2.9-1.8-4.1z"/>
    <path id="panel_geat_0_Layer5_0_MEMBER_0_MEMBER_0_MEMBER_0_MEMBER_0_1_STROKES" class="st38" d="M219.1 40c-1.1-1.1-2.5-1.7-4.1-1.7h-80.3c-1.6 0-3 .6-4.1 1.7-1.1 1.2-1.6 2.5-1.6 4.1v142.5c0 1.5.5 2.9 1.6 4 1.2 1.1 2.6 1.7 4.1 1.7 1.6 0 3-.6 4.1-1.7s1.7-2.5 1.7-4 .5-2.7 1.5-3.7c.3-.3.7-.6 1.1-.9.8-.5 1.7-.7 2.7-.7H204c1 0 1.9.2 2.7.7.3.3.7.6 1 .9 1.1 1 1.6 2.2 1.6 3.7s.6 2.9 1.7 4 2.5 1.7 4.1 1.7 2.9-.6 4.1-1.7 1.7-2.5 1.7-4V44.1c-.1-1.6-.7-2.9-1.8-4.1z"/>
    <path class="st39" d="M218.6 41.2c-1.1-1.1-2.4-1.7-4-1.7h-79.1c-1.6 0-3 .5-4.1 1.7-1.1 1.1-1.6 2.5-1.6 4v141.4c0 1.6.5 2.9 1.6 4s2.5 1.7 4.1 1.7c1.5 0 2.9-.6 4-1.7s1.6-2.5 1.6-4 .5-2.7 1.5-3.7c.3-.3.7-.6 1.1-.8.8-.5 1.7-.7 2.6-.7h57.4c1 0 1.9.3 2.7.8.3.2.7.5 1 .8 1 1 1.6 2.2 1.6 3.7 0 1.6.6 2.9 1.6 4 1.1 1.1 2.5 1.7 4.1 1.7s2.9-.6 4-1.7 1.7-2.5 1.7-4V45.3c-.1-1.6-.7-3-1.8-4.1z"/>
    <path id="panel_geat_0_Layer5_0_MEMBER_0_MEMBER_0_MEMBER_0_MEMBER_1_1_STROKES" class="st38" d="M218.6 41.2c-1.1-1.1-2.4-1.7-4-1.7h-79.1c-1.6 0-3 .5-4.1 1.7-1.1 1.1-1.6 2.5-1.6 4v141.4c0 1.6.5 2.9 1.6 4s2.5 1.7 4.1 1.7c1.5 0 2.9-.6 4-1.7s1.6-2.5 1.6-4 .5-2.7 1.5-3.7c.3-.3.7-.6 1.1-.8.8-.5 1.7-.7 2.6-.7h57.4c1 0 1.9.3 2.7.8.3.2.7.5 1 .8 1 1 1.6 2.2 1.6 3.7 0 1.6.6 2.9 1.6 4 1.1 1.1 2.5 1.7 4.1 1.7s2.9-.6 4-1.7 1.7-2.5 1.7-4V45.3c-.1-1.6-.7-3-1.8-4.1z"/>
    <path class="st37" d="M219.7 93.2c0-4.9-2.5-7.3-7.4-7.3h-75.9c-4.9 0-7.3 2.4-7.3 7.3v72.6c0 4.9 2.4 7.3 7.3 7.3h75.9c4.9 0 7.4-2.4 7.4-7.3V93.2z"/>
    <path class="st39" d="M219 93.7c0-4.8-2.4-7.2-7.2-7.2h-74.5c-4.8 0-7.2 2.4-7.2 7.2V165c0 4.8 2.4 7.2 7.2 7.2h74.5c4.8 0 7.2-2.4 7.2-7.2V93.7z"/>
    <path class="st37" d="M160.6 55.2h-24.3v7.2h24.3v-7.2zm0 9h-24.3v7.2h24.3v-7.2zm0 8.8h-24.3v7.2h24.3V73zm52.1-10.6v-7.2h-24.3v7.2h24.3zm0 9v-7.2h-24.3v7.2h24.3zm0 8.8V73h-24.3v7.2h24.3zm-26-17.8v-7.2h-24.3v7.2h24.3zm0 9v-7.2h-24.3v7.2h24.3zm0 8.8V73h-24.3v7.2h24.3z"/>
    <defs>
      <path id="SVGID_7_" d="M153 85.4h42v8.8h-42z"/>
    </defs>
    <clipPath id="SVGID_8_">
      <use xlink:href="#SVGID_7_" overflow="visible"/>
    </clipPath>
    <g class="st40">
      <text transform="translate(154.32 91.815)" class="st12 st3 st41">
        LANDING GEAR
      </text>
    </g>
    <defs>
      <path id="SVGID_9_" d="M136.3 126.5h25.2v15h-25.2z"/>
    </defs>
    <clipPath id="SVGID_10_">
      <use xlink:href="#SVGID_9_" overflow="visible"/>
    </clipPath>
    <g class="st42">
      <text transform="translate(137.62 132.915)" class="st12 st3 st41">
        LOCK
      </text>
    </g>
    <defs>
      <path id="SVGID_11_" d="M136.3 126.5h25.2v15h-25.2z"/>
    </defs>
    <clipPath id="SVGID_12_">
      <use xlink:href="#SVGID_11_" overflow="visible"/>
    </clipPath>
    <g class="st43">
      <text transform="translate(137.62 139.13)" class="st12 st3 st41">
        RELEASE
      </text>
    </g>
    <defs>
      <path id="SVGID_13_" d="M152.9 95.5h10.2v8.8h-10.2z"/>
    </defs>
    <clipPath id="SVGID_14_">
      <use xlink:href="#SVGID_13_" overflow="visible"/>
    </clipPath>
    <g class="st44">
      <text transform="translate(154.17 101.965)" class="st12 st3 st41">
        DN
      </text>
    </g>
    <defs>
      <path id="SVGID_15_" d="M193.6 162.7h15.7v8.8h-15.7z"/>
    </defs>
    <clipPath id="SVGID_16_">
      <use xlink:href="#SVGID_15_" overflow="visible"/>
    </clipPath>
    <g class="st45">
      <text transform="translate(194.92 169.115)" class="st12 st3 st41">
        TEST
      </text>
    </g>
    <defs>
      <path id="SVGID_17_" d="M203.4 123.3h7.9V134h-7.9z"/>
    </defs>
    <clipPath id="SVGID_18_">
      <use xlink:href="#SVGID_17_" overflow="visible"/>
    </clipPath>
    <g class="st46">
      <text transform="translate(204.67 131.309)" class="st12 st3 st47">
        +
      </text>
    </g>
    <defs>
      <path id="SVGID_19_" d="M192.4 130.8h17.7v15h-17.7z"/>
    </defs>
    <clipPath id="SVGID_20_">
      <use xlink:href="#SVGID_19_" overflow="visible"/>
    </clipPath>
    <g class="st48">
      <text transform="translate(193.738 137.265)" class="st12 st3 st41">
        HORN
      </text>
    </g>
    <defs>
      <path id="SVGID_21_" d="M192.4 130.8h17.7v15h-17.7z"/>
    </defs>
    <clipPath id="SVGID_22_">
      <use xlink:href="#SVGID_21_" overflow="visible"/>
    </clipPath>
    <g class="st49">
      <text transform="translate(194.025 143.479)" class="st12 st3 st41">
        MUTE
      </text>
    </g>
    <defs>
      <path id="SVGID_23_" d="M186.5 95.5h9.5v8.8h-9.5z"/>
    </defs>
    <clipPath id="SVGID_24_">
      <use xlink:href="#SVGID_23_" overflow="visible"/>
    </clipPath>
    <g class="st50">
      <text transform="translate(187.77 101.965)" class="st12 st3 st41">
        UP
      </text>
    </g>
    <path class="st37" d="M163.5 121.4c1-.7 2-1.3 3.1-1.9.2-.1.4-.2.6-.2.2-.1.3-.2.5-.2.9-.4 1.9-.7 2.9-.8.5-.1 1.1-.2 1.6-.2.7-.1 1.4-.2 2.1-.2.7 0 1.4.1 2.1.2.6 0 1.1.1 1.7.2 1.1.2 2.2.5 3.3.8v.1c.4.1.8.2 1.1.4 1 .6 2 1.2 3 1.9.5-1.3.8-2.7.8-4 0-2.3-.6-4.5-1.9-6.5-1.3-1.9-3-3.3-5.1-4.2V94.5H170v12.2c-2.1.9-3.8 2.3-5.1 4.2-1.3 2-1.9 4.1-1.9 6.5-.2 1.3.1 2.7.5 4z"/>
    <path d="M167.6 114.8v5.9h13.5v-5.9h-13.5z"/>
    <path class="st37" d="M160.4 160.9c0-.1-.1-.2-.1-.3 0 .7-.1 1.3-.3 2l-.3.7-1.2.8-.8.2-3.5.6h-.2c-1.4.2-2.4.3-2.9.2-.8-.2-1.6-.9-2.1-2.1.1.4.2.8.2 1.1.1 1 .4 1.8.8 2.5 0 .1.1.1.1.2l.9 1.2c1.1 1 2.5 1.6 4.1 1.6s3-.6 4.2-1.8c1.2-1.1 1.8-2.5 1.8-4.2 0-.3 0-.6-.1-.9-.2-.7-.4-1.3-.6-1.8m.2-11.5c.1-.6.2-1.1.2-1.6 0-1.6-.6-3-1.7-4.2-1.2-1.1-2.6-1.7-4.2-1.7-1.2 0-2.3.3-3.3 1s-1.7 1.6-2.2 2.7c-.9 4.6-1.4 7.9-1.4 9.9 0 1.4.1 2.7.2 4.1.1 1.1.3 2.2.6 3.3.6 1.1 1.3 1.8 2.1 2.1.5.1 1.4 0 2.9-.2h.2l3.5-.6.8-.2 1.2-.8.3-.7c.2-.7.3-1.4.3-2-.1-.3-.2-.7-.2-1-.1-.4-.2-.7-.2-1.1-.1-.5-.2-1-.2-1.5-.1-.3-.1-.6-.1-.9-.1-1.8.1-3.7.7-5.5.2-.4.4-.8.5-1.1m-10.1-.1v-.2c0-.3 0-.6.1-.8 0-.1 0-.2.1-.3.2-.5.5-1 .9-1.5.6-.6 1.4-.9 2.4-.9s1.8.3 2.4.9c.4.5.7 1.1.9 1.8 0 .2.1.4.1.6v.2c0 .4-.1.8-.2 1.2-.1 1.1-.2 2.1-.2 3v.1c0 .4 0 .7.1 1.1 0 .9.1 1.9.2 3 .2.5.2.9.2 1.2v.2c0 .2-.1.4-.1.6-.2.7-.5 1.2-.9 1.8-.7.6-1.5.9-2.4.9-1 0-1.8-.3-2.4-.9-.4-.5-.7-1-.9-1.5 0-.1 0-.2-.1-.3 0-.2-.1-.5-.1-.8v-.2c-.2-1.3-.2-2.5-.2-3.7v-.5c0-.5 0-.9-.1-1.4v-.2c0-1.1 0-2.2.2-3.4m6.6 8.2c.1.5.1 1 .2 1.5v-.2c.1-.5 0-.9-.2-1.3m-6.5 2.3c0-.1 0-.2-.1-.3 0-.3 0-.6-.1-1v.2c0 .3 0 .6.1.8.1.1.1.2.1.3m0-11.5c0 .3-.1.7-.1 1-.1 1.2-.2 2.4-.2 3.5v.2c0 .5 0 .9.1 1.4v.5c0 1.2 0 2.4.2 3.7 0 .3 0 .6.1 1 0 .1 0 .2.1.3.2.5.5 1 .9 1.5.6.6 1.4.9 2.4.9s1.8-.3 2.4-.9c.4-.5.7-1.1.9-1.8 0-.2.1-.4.1-.6-.1-.5-.2-1-.2-1.5-.1-1.1-.2-2.1-.2-3 0-.3 0-.7-.1-1.1v-.1c0-.9.1-1.9.2-3 .1-.5.1-1 .2-1.5 0-.2-.1-.4-.1-.6-.2-.7-.5-1.2-.9-1.8-.7-.6-1.5-.9-2.4-.9-1 0-1.8.3-2.4.9-.4.5-.7 1-.9 1.5-.1.2-.1.3-.1.4z"/>
    <path id="panel_geat_0_Layer5_0_MEMBER_0_MEMBER_12_1_STROKES" class="st38" d="M160.3 160.5c-.1-.3-.2-.7-.2-1-.1-.4-.2-.7-.2-1.1-.1-.5-.2-1-.2-1.5-.1-.3-.1-.6-.1-.9-.1-1.8.1-3.7.7-5.5.2-.4.3-.8.4-1.2.1-.6.2-1.1.2-1.6 0-1.6-.6-3-1.7-4.2-1.2-1.1-2.6-1.7-4.2-1.7-1.2 0-2.3.3-3.3 1s-1.7 1.6-2.2 2.7c-.9 4.6-1.4 7.9-1.4 9.9 0 1.4.1 2.7.2 4.1.1 1.1.3 2.2.6 3.3.6 1.1 1.3 1.8 2.1 2.1.5.1 1.4 0 2.9-.2h.2l3.5-.6.8-.2 1.2-.8.3-.7c.3-.5.4-1.2.4-1.9 0 .1.1.2.1.3.2.6.4 1.1.6 1.7.1.3.1.6.1.9 0 1.7-.6 3.1-1.8 4.2-1.2 1.2-2.6 1.8-4.2 1.8s-3-.5-4.1-1.6c-.4-.4-.7-.8-.9-1.2 0 0-.1-.1-.1-.2-.5-.7-.8-1.6-.8-2.5-.1-.3-.2-.7-.2-1.1m1.6-14.5v-.3c-.1.1-.1.2 0 .3-.1.2-.1.5-.1.8v.2c0-.3 0-.7.1-1zm6.7.6c0-.2-.1-.4-.1-.6-.2-.7-.5-1.2-.9-1.8-.7-.6-1.5-.9-2.4-.9-1 0-1.8.3-2.4.9-.4.5-.7 1-.9 1.5m6.7.9c-.1.5-.2 1-.2 1.5.2-.5.2-.9.2-1.2v-.3zm-6.8.4c-.1 1.2-.2 2.4-.2 3.5v.2c0 .5 0 1 .1 1.4v.5c0 1.2 0 2.4.2 3.7 0 .3.1.6.1 1v.3c.2.5.5 1 .9 1.5.6.6 1.4.9 2.4.9s1.8-.3 2.4-.9c.4-.5.7-1.1.9-1.8 0-.2.1-.4.1-.6-.1-.5-.2-1-.2-1.5-.1-1.1-.2-2.1-.2-3 0-.3-.1-.7-.1-1.1v-.1c0-.9.1-1.9.2-3m-6.5 9.5c0-.1 0-.2-.1-.3 0-.2-.1-.5-.1-.8v-.2m6.7-1c.2.5.2.9.2 1.2v.2"/>
    <path class="st51" d="M204.5 153.8c0-1.1-.4-2.1-1.3-3-1.1.9-1.7 1.9-1.7 3s.6 2.2 1.7 3c.9-.9 1.3-1.9 1.3-3z"/>
    <path class="st37" d="M206.4 148.8c-1.4-1.5-3.1-2.3-5.1-2.3-2.1 0-3.8.8-5.3 2.3-1.3 1.3-2 3-2 5s.7 3.8 2 5.4c1.5 1.3 3.3 2 5.3 2s3.7-.7 5.1-2c1.5-1.5 2.2-3.3 2.2-5.4 0-2-.7-3.7-2.2-5z"/>
    <path class="st37" d="M201.3 149c-1.3 0-2.5.5-3.4 1.5-.9.9-1.4 2-1.4 3.3s.5 2.5 1.4 3.4c1 .9 2.1 1.3 3.4 1.3s2.4-.4 3.3-1.3c1-1 1.5-2.1 1.5-3.4 0-1.3-.5-2.5-1.5-3.3-.9-1.1-2-1.5-3.3-1.5z"/>
    <path class="st21" d="M196.6 153.9c0 1.3.4 2.4 1.3 3.2.9.9 2 1.4 3.3 1.4s2.4-.5 3.2-1.4c.9-.8 1.4-1.9 1.4-3.2s-.5-2.4-1.4-3.3c-.9-.9-2-1.3-3.2-1.3s-2.4.4-3.3 1.3c-.8.9-1.3 2-1.3 3.3z"/>
    <path id="SCHALTER_3_0_Layer0_0_1_STROKES" class="st52" d="M200.6 151c2.3.3 3.7 1.7 4 4.3"/>
    <path id="panel_geat_0_Layer5_0_MEMBER_0_MEMBER_14_1_STROKES" class="st38" d="M134.5 41.6c-.9 0-1.6.3-2.2 1-.6.6-.9 1.4-.9 2.2 0 .9.3 1.6.9 2.1.6.6 1.4 1 2.2 1s1.6-.3 2.2-1c.6-.5.9-1.2.9-2.1 0-.9-.3-1.6-.9-2.2-.6-.7-1.3-1-2.2-1zm.5.8l-.5-.1-.4.1-.3 1.5-1.5.2-.1.5.1.5 1.5.3.2 1.6.4.1.6-.1.3-1.5 1.5-.3.1-.5-.1-.5-1.5-.2-.3-1.6z"/>
    <path id="panel_geat_0_Layer5_0_MEMBER_0_MEMBER_15_1_STROKES" class="st38" d="M215.1 44l-.3-1.5-.5-.1-.4.1-.3 1.5-1.5.2-.1.5.1.5 1.5.3.3 1.5.4.1.5-.1.3-1.5 1.5-.3.1-.5-.1-.5-1.5-.2zm-3.1-1.5c-.6.6-.8 1.4-.8 2.2 0 .9.3 1.6.8 2.1.6.6 1.4 1 2.3 1 .8 0 1.6-.3 2.2-1 .6-.5.8-1.2.9-2.1 0-.9-.3-1.6-.9-2.2-.6-.6-1.4-1-2.2-1-.9.1-1.6.4-2.3 1z"/>
    <path id="panel_geat_0_Layer5_0_MEMBER_0_MEMBER_16_1_STROKES" class="st38" d="M212.5 186.4l-.1.5.1.4 1.5.3.3 1.5.4.1.5-.1.3-1.5 1.5-.3.1-.4-.1-.5-1.5-.2-.3-1.6-.5-.1-.4.1-.3 1.6-1.5.2zm0-1.7c-.6.6-.8 1.4-.8 2.2 0 .9.3 1.6.8 2.1.6.6 1.4.9 2.3.9.8 0 1.6-.3 2.2-.9.6-.5.8-1.2.9-2.1 0-.9-.3-1.6-.9-2.2-.6-.6-1.4-1-2.2-1-.9.1-1.6.4-2.3 1z"/>
    <path id="panel_geat_0_Layer5_0_MEMBER_0_MEMBER_17_1_STROKES" class="st38" d="M132.9 186.4l-.1.5.1.4 1.5.3.3 1.5.5.1.5-.1.3-1.5 1.5-.3.1-.4-.1-.5-1.5-.2-.3-1.6-.5-.1-.5.1-.3 1.6-1.5.2zm2.3-2.6c-.9 0-1.6.3-2.2 1-.6.6-.9 1.4-.9 2.2 0 .9.3 1.6.9 2.1.6.6 1.4.9 2.2.9s1.6-.3 2.2-.9c.6-.5.9-1.2.9-2.1 0-.9-.3-1.6-.9-2.2-.6-.7-1.3-1-2.2-1z"/>
    <path id="panel_geat_0_Layer5_0_MEMBER_0_MEMBER_18_1_STROKES" class="st38" d="M211.5 102.9c0-.9-.3-1.6-.8-2.2-.6-.6-1.4-1-2.2-.9-.9 0-1.7.3-2.3.9s-.9 1.4-.9 2.2c0 .9.3 1.6.9 2.2.6.6 1.4.9 2.3.9.8 0 1.6-.3 2.2-.9.5-.7.8-1.4.8-2.2zm-.7 0v-.5l-1.5-.2-.4-1.6-.5-.1-.4.1-.4 1.6-1.5.2-.1.5.1.4 1.5.3.4 1.5.4.1.5-.1.4-1.5 1.5-.3v-.4z"/>
    <path class="st37" d="M167.7 119.3c-.4-.1-.8-.2-1.2-.4-1-.6-2-1.2-2.9-1.9-.5 1.3-.8 2.7-.8 4 0 2.3.6 4.5 1.9 6.5 1.3 1.9 3 3.3 5.2 4.2v12.2h9.3v-12.2c2.1-.9 3.8-2.3 5.1-4.2 1.3-2 1.9-4.1 1.9-6.5 0-1.3-.2-2.7-.7-4-1 .7-2 1.3-3 1.9-.2.1-.5.2-.7.2-.2.1-.3.2-.4.2-.9.4-1.9.7-2.9.8-.5.1-1.1.2-1.7.2-.7.1-1.3.2-2.1.2-.7 0-1.4 0-2-.2-.6 0-1.1-.1-1.7-.2-1.2-.1-2.3-.4-3.3-.8z"/>
    <path class="st12" d="M142.4 153.8l2.9-6.7h-1.7V140h-2.3v7.1h-1.8l2.9 6.7zm15.2-36l2.9-6.7h-1.7V104h-2.3v7.1h-1.8l2.9 6.7zm36.3-7.3l-2.9-6.7-2.9 6.7h1.8v7.1h2.3v-7.1h1.7z"/>
    <path class="st53" d="M149.8 145.3c-.6.9-.9 1.9-.9 3.1 0 .3 0 .7.1 1 .2 1.2.7 2.2 1.6 3l.3.3c1 .9 2.2 1.3 3.6 1.3 1.1 0 2.1-.3 2.9-.9.3-.2.7-.4 1-.8 1.1-1.1 1.6-2.4 1.6-4 0-1.5-.6-2.8-1.6-3.9-1.1-1.1-2.4-1.6-3.9-1.6s-2.8.5-3.9 1.6c-.4.3-.6.6-.8.9z"/>
    <path id="handle_neu_0_Layer4_0_MEMBER_1_1_STROKES" class="st38" d="M149.8 145.1c.2-.3.4-.5.7-.8 1.1-1.1 2.4-1.7 3.9-1.7 1.6 0 2.9.6 3.9 1.7 1.1 1.1 1.6 2.4 1.6 3.9 0 1.6-.6 2.9-1.6 3.9-.3.3-.7.6-1 .8-.9.6-1.9.9-2.9.9-1.4 0-2.6-.4-3.6-1.3-.1-.1-.2-.2-.3-.4-.9-.8-1.4-1.8-1.6-3-.1-.3-.1-.6-.1-.9.1-1.2.4-2.2 1-3.1z"/>
    <path class="st54" d="M183.9 113.5l-.9-.5h-.1l-2.1-1-1.8-.5-2.5-.3h-3.2l-2.5.3-1.2.4-.2.1-1.2.3-2.2 1.1h-.2l-.2.2h-.1l-.1.1-.1.2h-.2l-.1.1-.3.2-.1.1-.1.2h-.2v.1l-.2.1-.1.1-.2.1-.1.2h-.1l-.1.1v47.2h.1l.1.1h.1v.1l.2.1.1.1h.2v.1l.2.1.2.2h.1v.1l.2.1.1.1.2.1h.1l.1.1.1.1.1.1.1.1 2.5 1.2 1.7.4.2.2h.2l.4.1 2.2.4 3.1.1v-.4l2.9-.4 2.5-.8 1-.5.2-.1 1.2-.7h.1l.6-.4.2-.1.1-.1h.1l.1-.1.4-.3h.1l.1-.1.2-.1v-.1h.2l.1-.1-.2-47.1-.1-.1-.2-.2-.2-.1-.1-.2-.3-.2-.1-.1-.2-.1-.1-.1-.2-.2h-.1l-.1-.2h-.1l-.1-.1-.2.1z"/>
    <path class="st55" d="M183.7 113.3l-.9-.4-.1-.1-2.1-.9-1.9-.5-2.4-.3h-3.2l-2.6.3-1.1.3-.2.1-1.2.3-2.2 1.1-.2.1-.2.2h-.2l-.1.2-.2.1h-.1l-.3.2h-.1l-.1.2-.2.1-.2.1-.1.1h-.1l-.1.2-.1.1h-.1V162h.1l.1.1.1.1.1.1.1.1.1.1.2.1v.1l.2.1.2.2h.1l.1.1.1.1.1.1.2.1.1.1.2.1v.1l.2.1.1.1 2.5 1.2 1.7.4.2.2h.2l.4.1 2.2.4h3.1l2.9-.4 2.5-.8.9-.5h.2l1.2-.7v-.1l.6-.3.2-.1.1-.1h.2v-.1l.5-.3.1-.1.1-.1.2-.1v-.1l.1-.1.1-.1.1-47.2-.2-.1-.1-.2h-.2l-.2-.2-.3-.1-.1-.1h-.2l-.2-.1-.1-.2-.2-.1-.1-.2h-.2l-.1-.1-.2-.3z"/>
    <path id="handle_light_0_Layer2_0_1_STROKES" class="st56" d="M183.3 113.3l-1.1-.4v51.2l3.4-2.1v-47l-2.3-1.7zm-7.1-2.2v54.7l1.5-.2-.1-54.3-1.4-.2-.6-.1-2.7.1-.4.1V166l.5.1 2.7-.1.5-.1m6-53l-1.4-.7h-.1v52.6l1.5-.7m-1.5-51.9l-2.5-.8-.6-.1m-9.8 1v52.6l2.5.7.6.1v-54.2l-.7.1-2.4.7h-.1l-1.4.7v51.2l1.5.8m4.6-53.8l-1.5.2m-4.6 1.5l-1.1.5-2.3 1.5V162l3.4 2.1m11.4 1.6l.6-.1 2.4-.8m-9.8.9l1.5.3"/>
    <defs>
      <path id="SVGID_25_" d="M189 54.4h23.3v8.8H189z"/>
    </defs>
    <clipPath id="SVGID_26_">
      <use xlink:href="#SVGID_25_" overflow="visible"/>
    </clipPath>
    <g class="st57">
      <text transform="translate(190.307 60.865)" class="st58 st3 st41">
        R.DOOR
      </text>
    </g>
    <defs>
      <path id="SVGID_27_" d="M162.5 54.7H186v8.8h-23.5z"/>
    </defs>
    <clipPath id="SVGID_28_">
      <use xlink:href="#SVGID_27_" overflow="visible"/>
    </clipPath>
    <g class="st59">
      <text transform="translate(163.888 61.115)" class="st58 st3 st41">
        N.DOOR
      </text>
    </g>
    <defs>
      <path id="SVGID_29_" d="M136.9 54.4h22.6v8.8h-22.6z"/>
    </defs>
    <clipPath id="SVGID_30_">
      <use xlink:href="#SVGID_29_" overflow="visible"/>
    </clipPath>
    <g class="st60">
      <text transform="translate(138.276 60.865)" class="st58 st3 st41">
        L.DOOR
      </text>
    </g>
    <defs>
      <path id="SVGID_31_" d="M190.9 63.5h19.2v8.8h-19.2z"/>
    </defs>
    <clipPath id="SVGID_32_">
      <use xlink:href="#SVGID_31_" overflow="visible"/>
    </clipPath>
    <g class="st61">
      <text transform="translate(192.188 69.965)" class="st62 st3 st41">
        RIGHT
      </text>
    </g>
    <defs>
      <path id="SVGID_33_" d="M190.9 72.5h19.2v8.8h-19.2z"/>
    </defs>
    <clipPath id="SVGID_34_">
      <use xlink:href="#SVGID_33_" overflow="visible"/>
    </clipPath>
    <g class="st63">
      <text transform="translate(192.188 78.965)" class="st3 st41">
        RIGHT
      </text>
    </g>
    <defs>
      <path id="SVGID_35_" d="M166 63.5h16.8v8.8H166z"/>
    </defs>
    <clipPath id="SVGID_36_">
      <use xlink:href="#SVGID_35_" overflow="visible"/>
    </clipPath>
    <g class="st64">
      <text transform="translate(167.32 69.965)" class="st62 st3 st41">
        NOSE
      </text>
    </g>
    <defs>
      <path id="SVGID_37_" d="M166 72.5h16.8v8.8H166z"/>
    </defs>
    <clipPath id="SVGID_38_">
      <use xlink:href="#SVGID_37_" overflow="visible"/>
    </clipPath>
    <g class="st65">
      <text transform="translate(167.32 78.965)" class="st3 st41">
        NOSE
      </text>
    </g>
    <defs>
      <path id="SVGID_39_" d="M140.3 63.5h15v8.8h-15z"/>
    </defs>
    <clipPath id="SVGID_40_">
      <use xlink:href="#SVGID_39_" overflow="visible"/>
    </clipPath>
    <g class="st66">
      <text transform="translate(141.602 69.965)" class="st62 st3 st41">
        LEFT
      </text>
    </g>
    <defs>
      <path id="SVGID_41_" d="M140.3 72.5h15v8.8h-15z"/>
    </defs>
    <clipPath id="SVGID_42_">
      <use xlink:href="#SVGID_41_" overflow="visible"/>
    </clipPath>
    <g class="st67">
      <text transform="translate(141.602 78.965)" class="st3 st41">
        LEFT
      </text>
    </g>
    <path class="st12" d="M579.5 192.8v23.4h22.3v-23.4h-22.3m-22.2 23.4h22.1v-23.4h-22.1v23.4z"/>
    <path id="Layer8_27_1_STROKES" class="st11" d="M579.5 192.8v23.4"/>
    <path id="Layer8_27_MEMBER_0_MEMBER_0_MEMBER_0_1_STROKES" class="st24" d="M563.8 216v-17.1"/>
    <path class="st9" d="M565.5 199l-1.8-6.1-1.7 6.1h3.5z"/>
    <path id="Layer8_27_MEMBER_0_MEMBER_0_MEMBER_2_1_STROKES" class="st24" d="M563.8 206.6h8.8v9"/>
    <path id="Layer8_27_MEMBER_0_MEMBER_1_MEMBER_0_1_STROKES" class="st24" d="M586.4 198.8v-6"/>
    <path id="Layer8_27_MEMBER_0_MEMBER_1_MEMBER_1_1_STROKES" class="st24" d="M589.2 198.8h-5.6"/>
    <path id="Layer8_27_MEMBER_0_MEMBER_2_MEMBER_0_1_STROKES" class="st24" d="M572.6 198.8v-6"/>
    <path id="Layer8_27_MEMBER_0_MEMBER_2_MEMBER_1_1_STROKES" class="st24" d="M575.4 198.8h-5.6"/>
    <path id="Layer8_27_MEMBER_0_MEMBER_3_MEMBER_0_1_STROKES" class="st24" d="M586.4 216v-5.9"/>
    <path id="Layer8_27_MEMBER_0_MEMBER_3_MEMBER_1_1_STROKES" class="st24" d="M583.6 210.1h5.6"/>
    <path id="Layer8_27_MEMBER_1_1_STROKES" class="st11" d="M557.3 192.8h44.5v23.4h-44.5v-23.4z"/>
    <path id="Layer8_27_MEMBER_2_MEMBER_0_1_STROKES" class="st24" d="M596 198.8V212"/>
    <path class="st9" d="M595.9 192.7l-1.7 6.1h3.4l-1.7-6.1zm-1.7 17.4l1.7 6.1 1.8-6.1h-3.5z"/>
    <path id="Layer8_27_MEMBER_3_1_STROKES" class="st11" d="M615.2 204.1c0-.7-.3-1.3-.8-1.8s-1-.8-1.8-.8c-.7 0-1.3.3-1.8.8s-.8 1.1-.8 1.8.3 1.3.8 1.8 1 .7 1.8.7 1.3-.2 1.8-.7c.5-.5.8-1.1.8-1.8z"/>
    <path id="Layer8_27_MEMBER_4_1_STROKES" class="st11" d="M618.2 204.1c0-1.5-.5-2.8-1.6-3.9s-2.4-1.6-3.9-1.6-2.8.5-3.9 1.6-1.6 2.4-1.6 3.9.5 2.8 1.6 3.9 2.4 1.6 3.9 1.6 2.8-.5 3.9-1.6c1-1 1.6-2.3 1.6-3.9z"/>
    <path id="Layer8_27_MEMBER_5_1_STROKES" class="st11" d="M602.1 208.3h7.1"/>
    <path id="Layer8_27_MEMBER_6_1_STROKES" class="st11" d="M601.9 200.5h6.5"/>
    <path class="st12" d="M512 57.4h-8v9h-5.5v34.9h18.8V79h-4.8v2.2-4.4V79h4.8V66.4H512v-9z"/>
    <path id="sol_down_0_Layer2_0_1_STROKES" class="st33" d="M512.5 76.8V79h4.8m-4.8 0v2.2"/>
    <path id="sol_down_0_Layer2_0_MEMBER_0_1_STROKES" class="st24" d="M512.4 88h4.8"/>
    <path id="sol_down_0_Layer2_0_MEMBER_1_1_STROKES" class="st24" d="M512.4 90.2v-4.5"/>
    <path id="sol_down_0_Layer2_0_MEMBER_2_1_STROKES" class="st24" d="M498.3 83.6h18.9"/>
    <path id="sol_down_0_Layer2_0_MEMBER_3_1_STROKES" class="st24" d="M505.8 104l3.8-1.9"/>
    <path id="sol_down_0_Layer2_0_MEMBER_4_1_STROKES" class="st24" d="M505.8 104l3.8 1.9"/>
    <path id="sol_down_0_Layer2_0_MEMBER_5_1_STROKES" class="st24" d="M505.8 107.9l3.8 1.9"/>
    <path id="sol_down_0_Layer2_0_MEMBER_6_1_STROKES" class="st24" d="M505.8 111.8l3.8-2"/>
    <path id="sol_down_0_Layer2_0_MEMBER_7_1_STROKES" class="st24" d="M505.8 107.9l3.8-1.9"/>
    <path id="sol_down_0_Layer2_0_MEMBER_8_1_STROKES" class="st24" d="M507.7 101.2l1.9.9"/>
    <path id="sol_down_0_Layer2_0_MEMBER_9_1_STROKES" class="st11" d="M517.3 101.3h-18.8V66.4h5.5v-8.9h8v8.9h5.3v34.9zM504 66.4h8"/>
    <path id="sol_down_0_Layer2_0_MEMBER_10_MEMBER_0_1_STROKES" class="st24" d="M511.6 92.8l-13.3-4.9"/>
    <path class="st9" d="M517.4 94.9l-5.1-3.8-1.1 3.3 6.2.5z"/>
    <path id="sol_down_0_Layer2_0_MEMBER_11_MEMBER_0_1_STROKES" class="st36" d="M504.6 71.7h13.3"/>
    <path class="st9" d="M498.5 71.7l6.1 1.8V70l-6.1 1.7z"/>
    <path class="st12" d="M677.2 49.5v-8.9h-8v8.9h-5.5v33.9h18.9V49.5h-5.4z"/>
    <path id="sol_up_0_Layer2_0_MEMBER_0_MEMBER_0_1_STROKES" class="st24" d="M671.2 93.8l3.8-1.9-3.8-1.9 3.8-2-3.8-1.9 3.8-1.9-1.8-1"/>
    <path id="sol_up_0_Layer2_0_MEMBER_0_MEMBER_0_2_STROKES" class="st11" d="M663.7 65.8h18.9"/>
    <path id="sol_up_0_Layer2_0_MEMBER_1_1_STROKES" class="st24" d="M668.5 61.2v2.2m0-2.2h-4.8m4.8-2.3v2.3m0 12.7v-2.2h-4.9m4.9 0v-2.3"/>
    <path id="sol_up_0_Layer2_0_MEMBER_2_MEMBER_0_1_STROKES" class="st24" d="M682.9 70.9L669 76.7"/>
    <path class="st9" d="M668.4 75.1l-5 3.9 6.3-.7-1.3-3.2z"/>
    <path id="sol_up_0_Layer2_0_MEMBER_3_MEMBER_0_1_STROKES" class="st24" d="M676.5 55h-13.3"/>
    <path class="st9" d="M682.6 55l-6.1-1.8v3.5l6.1-1.7z"/>
    <path id="sol_up_0_Layer2_0_MEMBER_4_1_STROKES" class="st11" d="M682.5 83.3h-18.9V49.4h18.9v33.9z"/>
    <path id="sol_up_0_Layer2_0_MEMBER_5_1_STROKES" class="st11" d="M677.2 49.5h-8v-8.9h8v8.9z"/>
    <path class="st12" d="M658.9 154.5v-13.2h9.1v-9.9h-86.1v9.9h9.2v13.2h67.8z"/>
    <path id="sol_sel_vlv_0_Layer3_0_MEMBER_0_1_STROKES" class="st24" d="M578.1 147.1l2.4 4.8 2.4-4.8 2.4 4.8 2.3-4.8 2.4 4.8 1.1-2.3"/>
    <path id="sol_sel_vlv_0_Layer3_0_MEMBER_1_1_STROKES" class="st24" d="M609.2 148.3v-17"/>
    <path class="st9" d="M609.3 154.4l1.7-6.1h-3.4l1.7 6.1z"/>
    <path id="sol_sel_vlv_0_Layer3_0_MEMBER_3_1_STROKES" class="st24" d="M595.8 154.5v-17.1"/>
    <path class="st9" d="M597.6 137.4l-1.8-6.1-1.8 6.1h3.6z"/>
    <path id="sol_sel_vlv_0_Layer3_0_MEMBER_5_1_STROKES" class="st24" d="M618.2 154.8v-17.1"/>
    <path class="st9" d="M620 137.7l-1.7-6.1-1.8 6.1h3.5z"/>
    <path id="sol_sel_vlv_0_Layer3_0_MEMBER_7_1_STROKES" class="st24" d="M618.2 145.4h13v9.1"/>
    <path id="sol_sel_vlv_0_Layer3_0_MEMBER_8_1_STROKES" class="st24" d="M631.5 137.2v-6"/>
    <path id="sol_sel_vlv_0_Layer3_0_MEMBER_9_1_STROKES" class="st24" d="M634.3 137.2h-5.6"/>
    <path id="sol_sel_vlv_0_Layer3_0_MEMBER_10_1_STROKES" class="st24" d="M643.5 149.2l10.5-17.5"/>
    <path class="st9" d="M640.4 154.4l4.6-4.3-3-1.8-1.6 6.1z"/>
    <path id="sol_sel_vlv_0_Layer3_0_MEMBER_12_1_STROKES" class="st24" d="M653.4 154l-10.2-17.7"/>
    <path class="st9" d="M644.8 135.4l-4.5-4.4 1.5 6.1 3-1.7zm20-1.7l-5 2.7 5 2.6v-5.3zm-75 2.6l-5-2.7v5.3l5-2.6z"/>
    <path id="sol_sel_vlv_0_Layer3_0_MEMBER_16_1_STROKES" class="st11" d="M591 141.3h-9.2v-10h9.2v10z"/>
    <path id="sol_sel_vlv_0_Layer3_0_MEMBER_17_1_STROKES" class="st11" d="M658.8 131.3h9.1v10h-9.1v-10z"/>
    <path id="sol_sel_vlv_0_Layer3_0_MEMBER_18_1_STROKES" class="st11" d="M658.9 154.5h-67.8v-23.1h67.8v23.1z"/>
    <path id="sol_sel_vlv_0_Layer3_0_MEMBER_19_1_STROKES" class="st11" d="M613.8 131.3v23.1"/>
    <path id="sol_sel_vlv_0_Layer3_0_MEMBER_20_1_STROKES" class="st11" d="M636.4 131.3v23.1"/>
    <path class="st12" d="M761.6 445.2v-22.3h-23.5v22.3h23.5m0-48.6h-23.5v26.2h23.5v-26.2z"/>
    <path id="vlv_sol_seq_0_Layer3_0_1_STROKES" class="st11" d="M738.2 422.9h23.5"/>
    <path id="vlv_sol_seq_0_Layer3_0_MEMBER_0_1_STROKES" class="st24" d="M744.1 447.6l10 4.9"/>
    <path id="vlv_sol_seq_0_Layer3_0_MEMBER_1_MEMBER_0_1_STROKES" class="st24" d="M755.6 403h-13.2"/>
    <path class="st9" d="M761.7 403l-6.1-1.8v3.5l6.1-1.7zm-17.4-1.7l-6.1 1.8 6.1 1.8v-3.6z"/>
    <path id="vlv_sol_seq_0_Layer3_0_MEMBER_2_MEMBER_0_1_STROKES" class="st24" d="M755.5 418.4h-13.3"/>
    <path class="st9" d="M761.6 418.4l-6.1-1.7v3.4l6.1-1.7zm-17.4-1.7l-6.1 1.7 6.1 1.8v-3.5z"/>
    <path id="vlv_sol_seq_0_Layer3_0_MEMBER_3_MEMBER_0_1_STROKES" class="st24" d="M756.9 429.4L742.6 440"/>
    <path class="st9" d="M761.6 426.1l-5.9 2.2 2.1 2.8 3.8-5zm-19.7 12.1l-3.8 5 6-2.2-2.2-2.8z"/>
    <path id="vlv_sol_seq_0_Layer3_0_MEMBER_4_MEMBER_0_1_STROKES" class="st24" d="M756.9 440l-14.3-10.7"/>
    <path class="st9" d="M743.9 428.2L738 426l3.8 5.1 2.1-2.9zm17.7 15l-3.9-5.1-2.1 2.8 6 2.3z"/>
    <path id="vlv_sol_seq_0_Layer3_0_MEMBER_5_1_STROKES" class="st11" d="M738.2 396.6h23.5v48.5h-23.5v-48.5z"/>
    <path id="vlv_sol_seq_0_Layer3_0_MEMBER_6_1_STROKES" class="st11" d="M754.1 454.4h-10v-9.2h10v9.2z"/>
    <path id="vlv_sol_seq_0_Layer2_0_1_STROKES" class="st24" d="M752.2 388.2l-4.8 2.4"/>
    <path id="vlv_sol_seq_0_Layer2_1_1_STROKES" class="st24" d="M752.2 392.9l-4.8-2.4"/>
    <path id="vlv_sol_seq_0_Layer2_2_1_STROKES" class="st24" d="M752.2 392.9l-4.8 2.4"/>
    <path id="vlv_sol_seq_0_Layer2_3_1_STROKES" class="st24" d="M749.7 396.4l-2.3-1.1"/>
    <path id="vlv_sol_seq_0_Layer2_4_1_STROKES" class="st24" d="M752.2 383.4l-4.8 2.4"/>
    <path id="vlv_sol_seq_0_Layer2_5_1_STROKES" class="st24" d="M752.2 388.2l-4.8-2.4"/>
    <path class="st12" d="M432.8 336.4h-22.4v23.5h22.4v-23.5m-48.6 0v23.5h26.2v-23.5h-26.2z"/>
    <path id="vlv_sol_seq_0_Layer3_0_1_STROKES_1_" class="st11" d="M410.4 359.9v-23.5"/>
    <path id="vlv_sol_seq_0_Layer3_0_MEMBER_0_1_STROKES_1_" class="st24" d="M435.2 354l4.9-10"/>
    <path id="vlv_sol_seq_0_Layer3_0_MEMBER_1_MEMBER_0_1_STROKES_1_" class="st24" d="M390.6 342.5v13.2"/>
    <path class="st9" d="M390.6 336.4l-1.8 6.1h3.5l-1.7-6.1zm-1.7 17.4l1.8 6.1 1.8-6.1h-3.6z"/>
    <path id="vlv_sol_seq_0_Layer3_0_MEMBER_2_MEMBER_0_1_STROKES_1_" class="st24" d="M405.9 342.6v13.3"/>
    <path class="st9" d="M405.9 336.5l-1.7 6.1h3.4l-1.7-6.1zm-1.6 17.3l1.7 6.1 1.8-6.1h-3.5z"/>
    <path id="vlv_sol_seq_0_Layer3_0_MEMBER_3_MEMBER_0_1_STROKES_1_" class="st24" d="M417 341.1l10.6 14.3"/>
    <path class="st9" d="M413.7 336.4l2.2 5.9 2.8-2.1-5-3.8zm12.1 19.7l5 3.8-2.2-6-2.8 2.2z"/>
    <path id="vlv_sol_seq_0_Layer3_0_MEMBER_4_MEMBER_0_1_STROKES_1_" class="st24" d="M427.5 341.1l-10.7 14.3"/>
    <path class="st9" d="M415.8 354.1l-2.2 5.9 5.1-3.8-2.9-2.1zm15-17.6l-5.1 3.9 2.8 2.1 2.3-6z"/>
    <path id="vlv_sol_seq_0_Layer3_0_MEMBER_5_1_STROKES_1_" class="st11" d="M384.2 359.9v-23.4h48.5v23.4h-48.5z"/>
    <path id="vlv_sol_seq_0_Layer3_0_MEMBER_6_1_STROKES_1_" class="st11" d="M441.9 344v10h-9.2v-10h9.2z"/>
    <path id="vlv_sol_seq_0_Layer2_0_1_STROKES_1_" class="st24" d="M375.7 345.9l2.4 4.8"/>
    <path id="vlv_sol_seq_0_Layer2_1_1_STROKES_1_" class="st24" d="M380.5 345.9l-2.4 4.8"/>
    <path id="vlv_sol_seq_0_Layer2_2_1_STROKES_1_" class="st24" d="M380.5 345.9l2.4 4.8"/>
    <path id="vlv_sol_seq_0_Layer2_3_1_STROKES_1_" class="st24" d="M384 348.3l-1.1 2.3"/>
    <path id="vlv_sol_seq_0_Layer2_4_1_STROKES_1_" class="st24" d="M371 345.9l2.4 4.8"/>
    <path id="vlv_sol_seq_0_Layer2_5_1_STROKES_1_" class="st24" d="M375.7 345.9l-2.4 4.8"/>
    <path class="st1" d="M1091.8 420.9V440h6.2v-19.1h-6.2zm35.1 19.1v-19.1h-25.4V440h25.4z"/>
    <path id="act_aux_ret_0_Layer3_0_1_STROKES" class="st11" d="M1091.8 420.9V440h35.2v-19.1h-35.2z"/>
    <path class="st34" d="M1101.3 440v-19.1h-3.4V440h3.4z"/>
    <path id="act_aux_ret_0_Layer2_0_MEMBER_0_1_STROKES" class="st24" d="M1101.2 421h-3.4v19.1h3.4V421z"/>
    <path id="act_aux_ret_0_Layer2_0_MEMBER_1_1_STROKES" class="st35" d="M1071.1 430.4h26.7"/>
    <text transform="translate(1128.454 372.134)" class="st3 st4">
      UP
    </text>
    <text transform="translate(1079.404 372.084)" class="st3 st4">
      DOWN
    </text>
    <path d="M1077.4 365.6v-9.2l-6.7 4.7 6.7 4.5z"/>
    <path id="Layer12_38_MEMBER_1_1_STROKES_1_" class="st14" d="M1094.8 360.8h-20"/>
    <path d="M1141.4 365.6l6.7-4.5-6.7-4.7v9.2z"/>
    <path id="Layer12_39_MEMBER_1_1_STROKES_1_" class="st14" d="M1123.9 360.8h20"/>
    <text transform="translate(637.675 470.193)" class="st3 st8">
      REAR DOOR
    </text>
    <text transform="translate(640.775 483.393)" class="st3 st8">
      ACTUATOR
    </text>
    <path class="st9" d="M816.1 318.5c.9-1.1 1.3-3.1 1.3-6 0-1.7-.2-3.1-.6-4.4l-.7-1.4h-1.6v11.7l1.6.1z"/>
    <path id="Layer8_2_MEMBER_1_1_STROKES_1_" class="st25" d="M821.7 318.4h-7.2v-11.6h7.2v11.6z"/>
    <path class="st9" d="M818.8 312.5c0 3 .5 5 1.4 6h1.5v-11.7h-1.5l-.7 1.4c-.5 1.2-.7 2.6-.7 4.3zM134.7 493.9c-1.9-1.6-5.5-2.3-10.7-2.3-3 0-5.6.4-7.8 1.1l-2.5 1.2v2.9h20.9v-2.9h.1z"/>
    <path id="Layer8_2_MEMBER_1_1_STROKES_2_" class="st68" d="M134.5 483.8v12.9h-20.8v-12.9h20.8z"/>
    <path class="st9" d="M123.9 489.1c5.3 0 8.8-.8 10.7-2.5v-2.7h-20.9v2.7l2.5 1.2c2.2.9 4.8 1.3 7.7 1.3z"/>
  </g>
</svg>
