<?xml version="1.0" encoding="utf-8"?>
<!-- Generator: Adobe Illustrator 25.0.0, SVG Export Plug-In . SVG Version: 6.00 Build 0)  -->
<svg version="1.1" id="Ebene_1" xmlns="http://www.w3.org/2000/svg" xmlns:xlink="http://www.w3.org/1999/xlink" x="0px" y="0px"
	 viewBox="0 0 459.9 192.5" style="enable-background:new 0 0 459.9 192.5;" xml:space="preserve">
<g id="clp-hintergrund">
	<path style="fill:#666666;" d="M454.5,187V6.7H5.7V187C5.7,187,454.5,187,454.5,187z"/>
	
		<path id="panel_intdoor_0_Layer0_0_MEMBER_18_MEMBER_0_1_STROKES" style="fill:none;stroke:#333333;stroke-width:0.75;stroke-linecap:round;stroke-linejoin:round;" d="
		M420.3,182.5v-38.7c0-9.7,4.5-14.2,12.5-14.2h16.5"/>
	
		<path id="panel_intdoor_0_Layer0_0_MEMBER_18_MEMBER_1_1_STROKES" style="fill:none;stroke:#999999;stroke-width:0.75;stroke-linecap:round;stroke-linejoin:round;" d="
		M13.1,72.7h13.6c8.5,0,12.5-4.5,12.5-14.2V11.9"/>
	
		<path id="panel_intdoor_0_Layer0_0_MEMBER_18_MEMBER_2_1_STROKES" style="fill:none;stroke:#333333;stroke-width:0.75;stroke-linecap:round;stroke-linejoin:round;" d="
		M420.3,13v46.6c0,9.7,4.5,14.2,12.5,14.2h16.5"/>
	
		<path id="panel_intdoor_0_Layer0_0_MEMBER_18_MEMBER_3_1_STROKES" style="fill:none;stroke:#333333;stroke-width:0.75;stroke-linecap:round;stroke-linejoin:round;" d="
		M39.3,143.8c0-9.1-4.5-14.2-12.5-14.2H11.4"/>
	
		<path id="panel_intdoor_0_Layer0_0_MEMBER_18_MEMBER_3_2_STROKES" style="fill:none;stroke:#999999;stroke-width:0.75;stroke-linecap:round;stroke-linejoin:round;" d="
		M39.3,181.3v-37.5"/>
	
		<path id="panel_intdoor_0_Layer0_0_MEMBER_18_MEMBER_5_1_STROKES" style="fill:none;stroke:#333333;stroke-width:0.75;stroke-linecap:round;stroke-linejoin:round;" d="
		M449.9,127.3V74.4"/>
	
		<path id="panel_intdoor_0_Layer0_0_MEMBER_18_MEMBER_6_1_STROKES" style="fill:none;stroke:#999999;stroke-width:0.75;stroke-linecap:round;stroke-linejoin:round;" d="
		M41,11.9h378.2"/>
	
		<path id="panel_intdoor_0_Layer0_0_MEMBER_18_MEMBER_7_1_STROKES" style="fill:none;stroke:#333333;stroke-width:0.75;stroke-linecap:round;stroke-linejoin:round;" d="
		M39.9,182.5h377.6"/>
	<path d="M13.1,40.9c-2.8,2.8-4,6.3-4,9.7c0,4,1.1,6.8,3.4,9.1l19.3-19.3c-2.3-2.3-5.7-4-9.1-4C18.8,37.5,15.4,38.6,13.1,40.9z"/>
	<path style="fill:#999999;" d="M32.5,41.4C32.5,41.4,31.9,40.9,32.5,41.4L13.1,60.2l0.6,0.6c2.3,2.3,5.7,4,9.7,4s6.8-1.1,9.7-4
		c2.3-2.3,4-5.7,4-9.7C35.9,47.1,34.7,43.7,32.5,41.4z"/>
	<path style="fill:#666666;" d="M10.9,50.5c0,3.4,1.1,6.3,3.4,8.5c2.3,2.3,5.1,3.4,8.5,3.4s5.7-1.1,8-3.4s3.4-5.1,3.4-8.5
		c0-3.4-1.1-5.7-3.4-8.5c-2.3-2.3-5.1-3.4-8-3.4c-3.4,0-6.3,1.1-8.5,3.4C12,44.8,10.9,47.7,10.9,50.5z"/>
	<path style="fill:#333333;" d="M33.6,52.8v-3.4H12v3.4H33.6z"/>
	<path d="M12,138.7c-2.8,2.8-4,6.3-4,9.7c0,4,1.1,6.8,3.4,9.1l19.3-19.3c-2.3-2.3-5.7-4-9.1-4C18.2,135.3,14.8,136.4,12,138.7z"/>
	<path style="fill:#999999;" d="M31.3,139.3C31.3,139.3,31.3,138.7,31.3,139.3L12,158l0.6,0.6c2.3,2.3,5.7,4,9.7,4s6.8-1.1,9.7-4
		c2.3-2.3,4-5.7,4-9.7C35.3,144.9,34.2,141.5,31.3,139.3z"/>
	<path style="fill:#666666;" d="M10.3,148.4c0,3.4,1.1,6.3,3.4,8.5c2.3,2.3,5.1,3.4,8.5,3.4s5.7-1.1,8-3.4s3.4-5.1,3.4-8.5
		s-1.1-5.7-3.4-8.5c-2.3-2.3-5.1-3.4-8-3.4c-3.4,0-6.3,1.1-8.5,3.4C11.4,142.7,10.3,145.5,10.3,148.4z"/>
	<path style="fill:#333333;" d="M32.5,150.6v-4H10.9v3.4L32.5,150.6z"/>
	<path d="M428.9,44.8c-2.8,2.8-4,6.3-4,9.7c0,4,1.1,6.8,3.4,9.1l19.3-19.3c-2.3-2.3-5.7-4-9.1-4C434.6,40.9,431.1,42.6,428.9,44.8
		L428.9,44.8z"/>
	<path style="fill:#999999;" d="M448.2,44.8C448.2,44.8,447.6,44.8,448.2,44.8l-19.3,18.8l0.6,0.6c2.3,2.3,5.7,4,9.7,4
		c4,0,6.8-1.1,9.7-4c2.3-2.3,4-5.7,4-9.7C451.6,50.5,450.5,47.7,448.2,44.8L448.2,44.8z"/>
	<path style="fill:#666666;" d="M426.6,54.5c0,3.4,1.1,6.3,3.4,8.5c2.3,2.3,5.1,3.4,8.5,3.4s5.7-1.1,8-3.4c2.3-2.3,3.4-5.1,3.4-8.5
		c0-3.4-1.1-5.7-3.4-8.5c-2.3-2.3-5.1-3.4-8-3.4c-3.4,0-6.3,1.1-8.5,3.4C427.7,48.3,426.6,51.1,426.6,54.5z"/>
	<path style="fill:#333333;" d="M449.3,56.2v-3.4h-21.6v3.4H449.3z"/>
	<path d="M428.9,141.5c-2.8,2.8-4,6.3-4,9.7c0,4,1.1,6.8,3.4,9.1l19.3-19.3c-2.3-2.3-5.7-4-9.1-4
		C434.6,138.1,431.1,139.3,428.9,141.5L428.9,141.5z"/>
	<path style="fill:#999999;" d="M448.2,142.1C448.2,142.1,447.6,141.5,448.2,142.1l-19.3,18.8l0.6,0.6c2.3,2.3,5.7,4,9.7,4
		c4,0,6.8-1.1,9.7-4c2.3-2.3,4-5.7,4-9.7C451.6,147.8,450.5,144.4,448.2,142.1L448.2,142.1z"/>
	<path style="fill:#666666;" d="M426.6,151.2c0,3.4,1.1,6.3,3.4,8.5c2.3,2.3,5.1,3.4,8.5,3.4s5.7-1.1,8-3.4c2.3-2.3,3.4-5.1,3.4-8.5
		c0-3.4-1.1-5.7-3.4-8.5c-2.3-2.8-5.1-3.4-8-3.4c-3.4,0-6.3,1.1-8.5,3.4C427.7,145.5,426.6,148.4,426.6,151.2z"/>
	<rect x="427.7" y="150.1" style="fill:#333333;" width="21.6" height="3.4"/>
	
		<path id="panel_intdoor_0_Layer0_0_MEMBER_18_MEMBER_4_1_STROKES" style="fill:none;stroke:#999999;stroke-width:0.75;stroke-linecap:round;stroke-linejoin:round;" d="
		M10.9,127.9V72.7"/>
	<text transform="matrix(1 0 0 1 147.6363 42.023)" style="fill:#FFFFFF; font-family:'ArialMT'; font-size:17.3594px;">INTERNAL DOORS</text>
	<text transform="matrix(1 0 0 1 226.7916 166.1699)" style="fill:#FFFFFF; font-family:'ArialMT'; font-size:13.6302px;">COCKPIT DOOR</text>
	
		<path id="panel_intdoor_0_Layer0_0_MEMBER_4_1_STROKES" style="fill:none;stroke:#FFFFFF;stroke-width:1.3;stroke-miterlimit:5;" d="
		M345.8,160.3h66v-8.5 M146.8,151.8v8.5h63.7"/>
</g>
<path id="clp-lock-sw" style="fill:none;" d="M401.7,148.3h-64.4c-2.7,0-5-2.2-5-5V41.4c0-2.7,2.2-5,5-5h64.4c2.7,0,5,2.2,5,5v101.9
	C406.7,146,404.4,148.3,401.7,148.3z"/>
<path id="clp-fail-sw" style="fill:none;" d="M325,147.3h-73.4c-2.7,0-5-2.2-5-5V59.4c0-2.7,2.2-5,5-5H325c2.7,0,5,2.2,5,5v82.9
	C329.9,145,327.7,147.3,325,147.3z"/>
<path id="clp-rot-knob" style="fill:none;" d="M241.4,55.7h-22.1v-7.5c0-1.8-1.5-3.3-3.3-3.3h-50.6c-1.8,0-3.3,1.5-3.3,3.3v7.5
	h-23.3c-1.8,0-3.3,1.5-3.3,3.3v14.9c0,1.8,1.5,3.3,3.3,3.3h10.5c-6,8.2-9.5,18.3-9.5,29.2c0,27.5,22.3,49.9,49.9,49.9
	c27.5,0,49.9-22.3,49.9-49.9c0-10.9-3.5-21-9.5-29.2h11.4c1.8,0,3.3-1.5,3.3-3.3V59C244.8,57.2,243.3,55.7,241.4,55.7z"/>
<path id="clp-door-ind" style="fill:none;" d="M129.5,145.8H56.1c-2.7,0-5-2.2-5-5V58c0-2.7,2.2-5,5-5h73.4c2.7,0,5,2.2,5,5v82.9
	C134.5,143.6,132.2,145.8,129.5,145.8z"/>
<g id="clp-system">
	<path d="M58.9,138.7h67.7V74.4H58.9C58.9,74.4,58.9,138.7,58.9,138.7z"/>
	<path style="fill:#707173;" d="M116.9,76.1H68.6c-2.3,0-4,1.1-5.7,2.8c-1.7,2.3-2.3,4.5-2.3,7.4v42.1l64.8-42.1
		c0-2.8-0.6-5.1-2.3-7.4C120.9,77.3,119.2,76.1,116.9,76.1z"/>
	<path style="fill:#333333;" d="M60,127.9c0,2.8,0.6,5.1,2.3,6.8c1.7,2.3,3.4,2.8,5.7,2.8h48.3c2.3,0,4.5-1.1,5.7-2.8
		c1.7-1.7,2.3-4,2.3-6.8V85.8L60,127.9L60,127.9z"/>
	<path style="fill:#3E3E40;" d="M122,87.5c0-2.8-0.6-4.5-2.3-6.3c-1.1-1.7-3.4-2.8-5.7-2.8H70.3c-2.3,0-4,1.1-5.1,2.8
		c-1.7,1.7-2.3,4-2.3,6.3v38.1c0,2.8,0.6,5.1,2.3,6.8c1.1,1.7,2.8,2.8,5.1,2.8h43.8c2.3,0,4-1.1,5.7-2.8c1.7-1.7,2.3-4,2.3-6.8V87.5
		z"/>
	<path d="M255,137.6h67.7V73.3H255V137.6z"/>
	<path style="fill:#707173;" d="M313,75h-48.3c-2.3,0-4,1.1-5.7,2.8c-1.7,2.3-2.3,4.5-2.3,7.4v42.1l64.8-42.1c0-2.8-0.6-5.1-2.3-7.4
		C317.6,76.1,315.3,75,313,75z"/>
	<path style="fill:#333333;" d="M256.1,126.7c0,2.8,0.6,5.1,2.3,6.8c1.7,2.3,3.4,2.8,5.7,2.8h48.3c2.3,0,4.5-1.1,5.7-2.8
		c1.7-1.7,2.3-4,2.3-6.8V84.1L256.1,126.7L256.1,126.7z"/>
	<path style="fill:#3E3E40;" d="M318.1,86.4c0-2.8-0.6-4.5-2.3-6.3c-1.1-1.7-3.4-2.8-5.7-2.8h-43.2c-2.3,0-4,1.1-5.1,2.8
		c-1.7,1.7-2.3,4-2.3,6.3v38.1c0,2.8,0.6,5.1,2.3,6.8c1.1,1.7,2.8,2.8,5.1,2.8h43.8c2.3,0,4-1.1,5.7-2.8c1.7-1.7,2.3-4,2.3-6.8
		L318.1,86.4L318.1,86.4z"/>
	<path style="fill:#666666;" d="M260.7,107.4H317v-2.8h-56.3V107.4z"/>
	<path style="fill:#666666;" d="M64.6,108.5h56.3v-3.4H64.6V108.5z"/>
	<path style="fill:#24211D;" d="M344.1,76.7V129h6.3v4h39.8v-2.8h6.3V76.7L344.1,76.7L344.1,76.7z"/>
	<path style="fill:#DDDDDC;" d="M350.4,142.1h15.4V133h-15.4V142.1z"/>
	
		<path id="panel_intdoor_0_Layer0_0_MEMBER_17_MEMBER_1_1_STROKES" style="fill:none;stroke:#24211D;stroke-width:5.000000e-02;stroke-linecap:round;stroke-linejoin:round;" d="
		M350.4,142.1h15.4V133h-15.4V142.1z"/>
	<path style="fill:#DDDDDC;" d="M389.1,133h-14.2v10.2h14.2V133z"/>
	
		<path id="panel_intdoor_0_Layer0_0_MEMBER_17_MEMBER_2_1_STROKES" style="fill:none;stroke:#24211D;stroke-width:5.000000e-02;stroke-linecap:round;stroke-linejoin:round;" d="
		M389.1,133h-14.2v10.2h14.2V133z"/>
	<path style="fill:#DDDDDC;" d="M374.8,134.1h-9.1v6.8h9.1V134.1z"/>
	<path style="fill:#949393;" d="M366.9,134.1l-1.1,6.8h1.1V134.1z M366.9,134.1v6.8l1.1-6.8H366.9z M368.6,134.1l-1.1,6.8h1.1V134.1
		z M370.9,134.1l-1.1,6.8h1.1V134.1z M372,134.1v6.8l0.6-6.8H372z M372.6,134.1L372,141h0.6V134.1z M373.7,134.1v6.8l1.1-6.8H373.7z
		 M374.8,134.1l-1.1,6.8h1.1V134.1z"/>
	<path style="fill:#24211D;" d="M350.4,133h-2.3v8.5h2.3V133z"/>
	
		<path id="panel_intdoor_0_Layer0_0_MEMBER_17_MEMBER_13_1_STROKES" style="fill:none;stroke:#24211D;stroke-width:5.000000e-02;stroke-linecap:round;stroke-linejoin:round;" d="
		M348.1,141.5h2.3V133h-2.3"/>
	<path style="fill:#24211D;" d="M391.3,134.1h-2.3v6.8h2.3V134.1z"/>
	
		<path id="panel_intdoor_0_Layer0_0_MEMBER_17_MEMBER_15_1_STROKES" style="fill:none;stroke:#24211D;stroke-width:5.000000e-02;stroke-linecap:round;stroke-linejoin:round;" d="
		M389.1,141.5h2.3v-6.8h-2.3"/>
	<path style="fill:#DDDDDC;" d="M348.1,135.3h-1.7v5.1h1.7V135.3z M393.6,135.3h-2.3v5.1h2.3V135.3z"/>
	<path style="fill:#A9A8A7;" d="M393.6,126.7V80.1H347v46.6H393.6z"/>
	<path style="fill:#333333;" d="M229.4,105.7c0-10.8-4-19.9-11.4-27.3C210.6,71,201.5,67,190.7,67s-19.9,4-27.3,11.4
		C156,85.8,152,94.9,152,105.7s4,19.9,11.4,27.3c7.4,7.4,16.5,11.4,27.3,11.4s19.9-4,27.3-11.4C225.4,125.6,229.4,116.5,229.4,105.7
		z"/>
	<path style="fill:#666666;" d="M176.5,117.1c-1.1-2.8-1.7-5.7-1.7-9.1c0-3.4,0.6-6.8,1.7-9.7l8-26.2c-2.3,4-5.1,9.1-8.5,15.4
		c-4,7.4-5.7,13.6-6.3,18.8c0,8,2.8,18.8,9.1,33c0.6,1.1,1.1,1.7,2.3,2.3c0.6,0.6,1.7,0.6,2.8,0.6h4c-2.3,0-4.5-0.6-6.3-0.6
		L176.5,117.1 M182.7,106.3c0,2.3,0.6,4,2.3,5.1c1.7,1.7,3.4,2.3,5.1,2.3c2.3,0,4-0.6,5.1-2.3c1.7-1.7,2.3-3.4,2.3-5.1
		c0-2.3-0.6-4-2.3-5.1c-1.7-1.1-3.4-2.3-5.1-2.3c-2.3,0-4,0.6-5.1,2.3C183.3,102.3,182.7,104,182.7,106.3 M207.2,123.9
		c2.3-6.3,3.4-11.4,4-16.5c-1.7-6.3-4.5-13.1-8.5-20.5c-2.8-5.7-5.1-9.7-6.8-13.1l7.4,25.6c1.1,2.8,2.3,6.3,2.3,9.7
		c0,2.8-0.6,6.3-1.7,9.1l-5.7,23.9c-2.3,0.6-4,0.6-6.3,0.6h6.8c2.3-0.6,3.4-1.7,3.4-4C204.3,131.9,206,126.7,207.2,123.9
		L207.2,123.9z"/>
	
		<path id="SCHALTER_6_0_Layer0_0_MEMBER_1_1_STROKES" style="fill:none;stroke:#231F20;stroke-width:0.2261;stroke-miterlimit:2.261;" d="
		M195.8,73.3l7.4,25.6c1.1,2.8,2.3,6.3,2.3,9.7c0,2.8-0.6,6.3-1.7,9.1l-5.7,23.9c-2.3,0.6-4,0.6-6.3,0.6H189 M185,72.1l1.1-4h8
		l1.7,4.5v0.6 M185,72.1l-8,26.2c-1.1,2.8-1.7,6.3-1.7,9.7s0.6,6.3,1.7,9.1l5.7,23.9c2.3,0.6,4,0.6,6.3,0.6 M182.7,106.3
		c0,2.3,0.6,4,2.3,5.1c1.7,1.7,3.4,2.3,5.1,2.3c2.3,0,4-0.6,5.1-2.3c1.7-1.7,2.3-3.4,2.3-5.1c0-2.3-0.6-4-2.3-5.1
		c-1.7-1.1-3.4-2.3-5.1-2.3c-2.3,0-4,0.6-5.1,2.3C183.3,102.3,182.7,104,182.7,106.3z"/>
	<text transform="matrix(1 0 0 1 274.4398 96.6621)" style="fill:#FFFFFF; font-family:'ArialMT'; font-size:13.9595px;">FAIL</text>
	<text transform="matrix(1 0 0 1 272.5292 119.6094)" style="fill:#FFFFFF; font-family:'ArialMT'; font-size:12px;">AUTO</text>
	<text transform="matrix(1 0 0 1 273.182 131.5527)" style="fill:#FFFFFF; font-family:'ArialMT'; font-size:12px;">UNLK</text>
	<text transform="matrix(1 0 0 1 76.8674 90.8574)" style="fill:#FFFFFF; font-family:'ArialMT'; font-size:11px;">BAGG</text>
	<text transform="matrix(1 0 0 1 76.2604 101.0977)" style="fill:#FFFFFF; font-family:'ArialMT'; font-size:11px;">DOOR</text>
	<text transform="matrix(1 0 0 1 78.1913 121.002)" style="fill:#FFFFFF; font-family:'ArialMT'; font-size:11px;">CKPT</text>
	<text transform="matrix(1 0 0 1 76.2604 131.2402)" style="fill:#FFFFFF; font-family:'ArialMT'; font-size:11px;">DOOR</text>
	<text transform="matrix(1 0 0 1 348.7965 51.645)" style="fill:#FFFFFF; font-family:'ArialMT'; font-size:13.2634px;">LOCK</text>
	<text transform="matrix(1 0 0 1 337.2906 67.646)" style="fill:#FFFFFF; font-family:'ArialMT'; font-size:13.2634px;">ISOLATE</text>
	<text transform="matrix(1 0 0 1 75.398 66.7105)" style="fill:#FFFFFF; font-family:'ArialMT'; font-size:12.4728px;">OPEN</text>
	<text transform="matrix(1 0 0 1 136.8287 70.9175)" style="fill:#FFFFFF; font-family:'ArialMT'; font-size:12.4728px;">UNLK</text>
	<text transform="matrix(1 0 0 1 171.5562 59.8814)" style="fill:#FFFFFF; font-family:'ArialMT'; font-size:12.4728px;">AUTO</text>
	<text transform="matrix(1 0 0 1 208.1412 70.9175)" style="fill:#FFFFFF; font-family:'ArialMT'; font-size:12.4728px;">DENY</text>
</g>
<g transform="matrix( 0.7373504638671875, 0, 0, 0.7373504638671875, 348.4,19.35) ">
	<g transform="matrix( 1, 0, 0, 1, 0,0) ">
		<g>
			<g id="info2_0_Layer1_0_MEMBER_0_MEMBER_0_FILL_4_">
				<path style="fill:#FFFFFF;stroke:#446483;stroke-width:0.2005;stroke-miterlimit:4.0089;" d="M-444,50.9
					c6.8,7,15.1,10.4,24.8,10.4c9.7,0,18.1-3.6,24.8-10.4c6.8-6.8,10.4-15.1,10.4-24.8s-3.4-17.8-10.4-24.8s-15.1-10.4-24.8-10.4
					c-9.7,0-17.8,3.4-24.8,10.4c-7,6.8-10.4,15.1-10.4,24.8C-454.4,35.8-451,43.9-444,50.9z"/>
			</g>
		</g>
	</g>
	<path style="fill:#446483;" d="M-400.2,27.5c-2.5-0.9-7.9,3.8-10.6,6.5c-0.5,0.5-0.5-1.1-0.5-2.9c0-0.2,0-0.2,0-0.5v-0.5
		c0-1.6,0-3.2,0-4.3v-2.9c6.3-1.4,11.3-7,11.3-14c0-7.9-6.3-14.2-14.2-14.2S-428.4,1-428.4,8.9c0,3.8,1.4,7.5,4.1,9.9
		c-0.2,0.5-0.5,0.9-0.5,1.6v7l-1.1,0.2v-6.1c0-1.6-1.1-2.9-2.7-2.9h-0.5c-1.6,0-3.2,1.4-3.2,2.9v7.2l-1.1,0.2V26
		c0-1.6-0.7-2.9-2.3-2.9h-0.5c-1.6,0-3.6,1.4-3.6,2.9v0.2v2v1.4l-1.1,10.2c-0.9,2.7-1.4,9.3,8.1,15.1c0,0,5.4,2.7,12.2-2
		c3.6-2.7,9.5-8.4,14.2-13.1l2.9-3.2c2.3-2.5,3.8-4.3,4.3-4.7C-398.2,30.4-398.4,27.9-400.2,27.5z M-413.5,6.2h-0.5
		c-1.6,0-3.6,1.4-3.6,2.9v3.4c-1.1-0.9-1.4-2-1.4-3.6c0-2.7,2.3-4.7,5-4.7s4.7,2.3,4.7,4.7c0,1.6-0.9,2.9-2,3.8V8.9
		C-411.3,7.6-412,6.2-413.5,6.2z M-411.3,14.4c2-1.1,2.9-2.9,2.9-5.2c0-3.2-2.7-5.9-5.9-5.9c-3.2,0-5.9,2.7-5.9,5.9
		c0,2,1.4,3.8,2.5,5v3.6c-3.2-1.4-5.6-4.5-5.6-8.4c0-5,4.1-9,9-9c5,0,9,4.1,9,9c0,3.8-2,7.2-6.1,8.6L-411.3,14.4L-411.3,14.4z
		 M-414-3.9c7.2,0,13.1,5.9,13.1,13.1c0,6.3-4.1,11.5-10.4,12.9v-3.2c4.3-1.4,7.2-5.2,7.2-9.7c0-5.6-4.5-10.2-10.2-10.2
		s-10.2,4.5-10.2,10.2c0,4.5,2.5,8.1,6.8,9.5v3.2c0,0,0-0.2-1.1-0.2v-0.9c0-1.6-1.1-2.9-2.7-2.9h-0.5c-0.7,0-1.4,0.2-1.8,0.7
		c-2.3-2.5-3.6-5.6-3.6-9.3C-427.3,2-421.4-3.9-414-3.9z M-418.7,27v-4.3c1.1,0,1.1,0.2,1.1,0.2v3.8L-418.7,27z"/>
</g>
</svg>
