<?xml version="1.0" encoding="utf-8"?>
<!-- Generator: Adobe Illustrator 24.2.1, SVG Export Plug-In . SVG Version: 6.00 Build 0)  -->
<svg version="1.1" id="Ebene_1" xmlns="http://www.w3.org/2000/svg" xmlns:xlink="http://www.w3.org/1999/xlink" x="0px" y="0px"
	 viewBox="0 0 349.1 161" style="enable-background:new 0 0 349.1 161;" xml:space="preserve">
<style type="text/css">
	.st0{fill:none;stroke:#B1B1B1;stroke-width:0.45;stroke-miterlimit:5;}
	.st1{fill:#0099FF;}
	.st2{fill:none;stroke:#1D1D1C;stroke-width:0.45;stroke-miterlimit:5;}
	.st3{fill:#CCCCCC;}
	.st4{fill:#FFCC00;}
	.st5{fill:#666666;}
	.st6{fill:#B1B1B1;}
	.st7{fill:#0066FF;}
	.st8{fill:none;stroke:#373535;stroke-width:0.5;stroke-miterlimit:5;}
	.st9{fill:#373535;}
	.st10{fill:none;stroke:#FF9900;stroke-linecap:round;stroke-linejoin:round;}
	.st11{fill:none;stroke:#FFFFFF;stroke-miterlimit:5;}
	.st12{font-family:'ArialMT';}
	.st13{font-size:14px;}
</style>
<g>
	<path id="Layer0_5_MEMBER_0_1_STROKES" class="st0" d="M8.3,97L9,92.6c0-0.2,0.1-0.3,0.2-0.3l25.4-20.6l0.1-0.1c0,0,0.1,0,0.1,0
		l11.9-35c-0.4,0.1-0.8,0.1-1.2,0.2c-2,0.2-3.3-0.3-4-1.3c-0.6-1-0.4-2.4,0.7-4c1-1.5,2.4-2.8,4.3-4l-23.7-18l0-0.2l0.1-0.2l6.9-4.5
		l3.4-1.8l28.4,16.4l10.3-5.2v5.7l-4.1,3l31.6,18.3l-3,2.1l-1.9,1.3L89.6,47l-0.4,0.1L89,47.2l-0.2,0.1h-0.5L67.5,38l-6,31.1
		c-0.1,0.2-0.3,0.3-0.5,0.5c0.9,0.9,1.4,2,1.4,3.3c0,0.8-0.2,1.5-0.5,2.2c-1.5,3.9-3.7,7.5-6.6,10.7l-35.8,35.1 M61.6,19.1L59.9,20
		c-0.6,0.3-1.2,0.6-1.8,0.9c-3.9,1.9-7.5,4-10.9,6.2c-0.2,0.1-0.4,0.2-0.6,0.4 M73.2,34L63,28.1l1.8-1.1L75,32.9L73.2,34z
		 M34.8,71.6c0.2,0,0.3,0.2,0.2,0.4v0l-5.6,16.4c1,0.2,3.1-0.5,6.4-2.1c3.3-1.6,7.1-3.7,11.3-6.3c2.5-1.6,4.7-3,6.6-4.4l7.7-40.2
		l-7.9-3.5c0,0,0,0,0,0c-0.3-0.1-0.5-0.3-0.5-0.7c0-0.2,0.1-0.4,0.2-0.5l4.3-3.5l5.4-3.1l0.3-0.2l3.7-1.7l0.7,0.4 M53.2,33.8
		L52,34.6c-1.8,1-3.6,1.7-5.2,2 M67.5,38l-2.9-1.3l-6.9,35.9c1.4-1.1,2.5-2.1,3.4-3 M64.6,36.8l-3.1-1.4 M58.1,20.8L29.8,4.4
		 M53.7,75.6c1.5-1,2.8-2,3.9-2.9 M9.2,92.3c0.3-0.1,0.6,0.1,0.9,0.8l0.1,0.2l0.5,4.4l18.9-9.4h0 M63.3,23.9l33,19.1 M4.7,97.3
		l3.2-1.7"/>
	<path class="st1" d="M63,28.1l10.3,6l1.8-1.1l-10.4-6L63,28.1z"/>
	<path id="Layer0_5_MEMBER_2_1_STROKES" class="st2" d="M56.2,21.8l-8.7-5l-1.8,1.1l8.5,5"/>
	<path class="st1" d="M47.7,16.7l-2,1.2l8.6,5l2-1L47.7,16.7z"/>
</g>
<path class="st3" d="M129.6,108.6l-0.8-0.3l-1.4,0.8l-0.4,19.5l0,0.1c0,0.3,0.3,0.5,0.7,0.5c0.4,0,0.6-0.2,0.6-0.5l0,0v0.1
	c0.1,0.3,0.3,0.4,0.6,0.4c0.3,0,0.5-0.1,0.6-0.4L129.6,108.6L129.6,108.6 M126.7,60.9l0.2,0.5c0.9,2.3,1.3,5.4,1.5,9.1
	c0,0.7,0,1.5,0,2.3l0.1,3v0.1l2.3-1.4v-0.1l-0.4-8.1l-0.2-1.3c-0.2-1.9-0.7-3.6-1.5-5.3l-0.5-0.8l-0.8-0.9l-1.1-0.9
	c-2.6-1.8-5.5-2.7-8.7-2.8c-3.5-0.1-6.3,0.9-8.3,3.1l-1.7,2.4l-1.2,3.1l-0.6,3.5l0,3.4l0.6,3.1l0.6,1.5c0.5,1,1.1,2,1.8,2.7
	c0.4,0.4,1.3,1.1,2.5,2.1l1.2,0.9l2.6,1.5c1,0.5,1.9,0.9,2.8,1.4c0,0,0,0,0.1,0l4.1,1.5c0.4,0.1,0.9,0.3,1.3,0.4
	c2.7,0.7,5.6,1,8.8,1l1.2-0.1h0l0.1,0.2c0.2,0.2,0.3,0.3,0.5,0.4c0.3,0.1,0.5,0.1,0.8,0.1l14.4-2.7l2.9,0.1l1,0.4
	c1.3,0.4,2.7,0.6,4.2,0.5c1.6-0.1,2.9-0.4,4.1-1l0.5-0.3l0.5-0.3c0.9-0.7,1.5-1.4,1.6-2.3c0-0.1,0.1-0.3,0.1-0.4c0,0,0-0.1,0-0.1
	c0-0.7-0.3-1.4-0.9-2l-0.8-0.6c-0.2-0.3-0.4-0.7-0.8-1.1h0l-0.2-0.1l0,0l0.1,0.2l0.1,0.3v1.5v0c-0.4,1.7-2,2.6-4.9,2.6
	c-2.9,0-4.6-0.9-5-2.6v0l0-0.3v-1c0-0.2,0.1-0.5,0.2-0.7l-0.3,0.1l-3.3,3.1l-14,2.7c-0.1,0-0.2,0-0.3,0c-0.3,0.1-0.5,0.3-0.8,0.6
	l0,0v0.4l-1,0c0,0,0,0-0.1,0l-7.3-0.8c-0.3-0.1-0.6-0.1-0.8-0.2c-0.2-0.1-0.5-0.1-0.7-0.2l-3.5-1.2c-0.1-0.1-0.3-0.1-0.4-0.2
	c0,0,0,0-0.1,0c-1-0.4-2-0.9-3.1-1.4l-2.3-1.4l-1.1-0.8c-1.1-0.9-1.8-1.5-2-1.7c-0.6-0.6-1.1-1.4-1.5-2.2l-0.8-2.5
	c-0.2-1.1-0.3-2.4-0.3-3.7c0.1-1.3,0.3-2.5,0.6-3.7l1-2.6l1.4-1.9l0.6-0.7c1.8-1.5,4.3-2,7.6-1.5c3.1,0.5,5.4,1.6,6.9,3.5
	L126.7,60.9z"/>
<path class="st4" d="M251.2,151.9c-2.4-1.6-4.6-3.1-6.5-4.4l-2-3c-0.1-0.1-0.2-0.1-0.3-0.1l-2.6-1.6l-0.3-0.1
	c-0.3,0-0.6-0.1-0.9-0.1l-3.8-4.9l-2.6-2.3l-1.6-1l0.1-1.9l-0.1-0.8c-0.3-1.6-1-2.6-1.9-3.1c-0.1-0.1-0.2-0.1-0.3-0.1l-0.3-0.2
	l0-0.8l-0.3-1c-0.5-1.3-1.2-2.3-2.1-2.8c-0.2-0.1-0.4-0.2-0.6-0.3l-9.5-5.5l-0.8-0.3c-1.9-0.4-3.8,0.1-5.9,1.6
	c-1.8,1.4-3.4,3.2-4.8,5.6c0,0-0.1,0.1-0.1,0.1c-1.4,2.4-2.2,4.8-2.3,7.1c-0.2,2.5,0.4,4.4,1.8,5.7l9.8,5.7c0.2,0.2,0.5,0.5,0.9,0.6
	c1,0.4,2.2,0.5,3.6,0.1l1-0.3l0.4-0.2l0.1,0.1c0.2,0.2,0.4,0.3,0.7,0.4c0.5,0.2,1.1,0.3,1.8,0.3l0.7-0.1l0.8-0.3l0.3,0
	c0.7-0.1,1.5,0,2.4,0.3c0.6,0.2,1.3,0.5,2.2,1l1.5,0.8l0.4,0c0.3,0.2,0.6,0.5,0.9,0.7c0.1,0.1,0.2,0.2,0.3,0.3l2.1,1.6
	c-0.1,1,0.1,1.9,0.7,2.6l0.3,0.2l2.9,1.7c0.1,0,0.2,0.1,0.3,0.2c0.3,0.1,0.6,0.2,1,0.1l2.3-0.5l4.3,2.4L251.2,151.9 M187.2,115.1
	L187.2,115.1c1-1.8,1.7-3.7,2-5.5l0.1-1.7c0-1.7-0.4-3.1-1.3-4.1c-0.2-0.3-0.5-0.5-0.8-0.7c-0.1-0.1-0.2-0.2-0.4-0.2l-7.6-4.4
	c-0.8-0.3-1.7-0.4-2.6-0.3l-1-0.5l-0.4-1c-0.4-0.5-0.8-0.9-1.2-1.2c-0.2-0.1-0.4-0.2-0.6-0.3l-0.5-0.3l-0.2-0.8
	c-0.4-1.2-1-2.1-1.8-2.7c-0.1-0.1-0.3-0.2-0.4-0.3c-0.2-0.1-0.4-0.3-0.7-0.3c-1-0.4-2.3-0.3-3.7,0.2c-2.8,1-5,2.8-6.7,5.3l-1.4,2
	c-0.1,0.2-0.2,0.3-0.3,0.5l-0.3,0.5c-1.3,2.4-2,5.1-1.9,8.1v0c0,1.4,0.3,2.6,0.8,3.5c0.3,0.5,0.6,0.9,1,1.2c0,0,0.1,0.1,0.1,0.1
	c0.2,0.1,0.4,0.2,0.6,0.3c0.8,0.4,1.7,0.6,2.9,0.5l1.6-0.4l0.8,0.5c0.1,0,0.1,0,0.2,0.1c0.5,0.3,1.1,0.4,1.8,0.5l1.1-0.1l1,0.5
	c0.3,0.9,0.9,1.6,1.7,2.2l7.7,4.5c1,0.6,2.3,0.6,3.8,0.1l1.4-0.7l1.4-1C185,118.3,186.2,116.8,187.2,115.1z"/>
<path class="st5" d="M152.8,75.8l-0.3,0.3c-0.2,0.2-0.3,0.4-0.4,0.6v0.1c-0.1,0.2-0.2,0.5-0.2,0.7v1l0,0.3c0.4,1.7,2,2.6,5,2.6
	c2.9,0,4.5-0.9,4.9-2.6v-1.5l-0.1-0.3l-0.1-0.2l0,0v0l-0.2-0.4l-0.2-0.2v-1.2l-3.1-1.8H158c-1.2,0.2-2.5,0.4-3.7,0.5
	c0,0-0.1,0-0.1,0l-0.4,0.1L152.8,75.8 M122.2,98.2l-0.3,0.1l-0.7,0.3l-0.7,0.4l-0.3,0.3c-0.7,0.6-1.2,1.3-1.6,2.2
	c-0.4,0.9-0.7,1.7-0.8,2.6l0,0.4l0,0.4c0.1,0.8,0.4,1.4,0.8,1.8c0.5,0.4,1.1,0.4,1.9,0.1l0.3-0.1l0.7-0.4l0.3-0.3
	c0.7-0.6,1.3-1.3,1.8-2.1c0.4-0.8,0.7-1.7,0.9-2.6l0.1-0.8c0-0.8-0.2-1.4-0.6-1.9C123.6,98.2,123,98,122.2,98.2 M271.6,10.9
	c-1-0.2-2.1,0.1-3.3,1c-1,0.8-1.9,1.8-2.6,3.2c-1.8,3.2-1.9,5.5-0.3,7.1l0.6,0.4c2.1,0.7,4.1-0.5,6-3.6c1.9-3.1,2.2-5.5,0.8-7.2
	l-0.6-0.5l-0.3-0.1L271.6,10.9z"/>
<path class="st1" d="M245.6,40c0-0.4-0.1-0.7-0.1-1.1c-0.1-0.3-0.1-0.7-0.2-1c-0.5-2.5-1.4-4.9-2.6-7.3l-1.8-3.1
	c-1.4-2.2-3-4.1-4.9-5.7c-0.3-0.2-0.5-0.5-0.8-0.7c-0.5-0.4-0.9-0.7-1.4-1.1c-3.5-2.4-6.7-3.2-9.6-2.2l-70.3,40.5
	c-0.4,0.1-0.7,0.3-1,0.5c-1.1,0.7-2.1,1.8-2.9,3.3l-0.5,1.6l-18.6,10.7v0.1l-2.3,1.4v-0.1l-9.1,5.2c0,0,0,0,0.1,0
	c0.1,0.1,0.3,0.1,0.4,0.2l3.5,1.2c0.2,0.1,0.5,0.1,0.7,0.2c0.3,0.1,0.6,0.1,0.8,0.2l7.3,0.8c0,0,0,0,0.1,0l1-0.1v-0.4l0,0
	c0.2-0.3,0.5-0.5,0.7-0.6c0.1,0,0.2,0,0.3,0l14-2.6l3.3-3.1l0.3-0.1c0.1-0.2,0.2-0.4,0.4-0.6l0.3-0.3l0.9-2l0.5-0.1c0,0,0.1,0,0.1,0
	c1.2-0.2,2.5-0.4,3.7-0.5h0.1l3.1,1.8v1.2l0.2,0.2l0.2,0.4l0.2,0.1v0h0c0.4,0.4,0.6,0.7,0.8,1.1l0.8,0.6c0.6,0.7,0.9,1.4,0.9,2
	c0,0,0,0.1,0,0.1c0,0.1,0,0.3-0.1,0.4c-0.2,0.9-0.7,1.6-1.6,2.3l-0.5,0.3l-0.5,0.3c-1.2,0.6-2.6,0.9-4.1,1c-1.5,0.1-2.9-0.1-4.2-0.5
	l-1-0.4l-2.9-0.1L135,86.7c-0.3,0.1-0.5,0-0.8-0.1c-0.2-0.1-0.4-0.2-0.5-0.4c0,0,0,0,0,0l-0.1-0.1l-1.2,0.1c-3.2,0-6.1-0.3-8.8-1
	c-0.4-0.1-0.9-0.3-1.3-0.4l-4.1-1.5c0,0,0,0-0.1,0l-0.8,2.9l0,0.1l-0.5,1.8l-2.2,1.3c-3,1.7-5.4,4.8-7.2,9.4
	c-1.9,4.9-1.6,8.5,0.8,10.9l0.2,0.2l6.5,3.8c1.5,0.9,3.3,0.8,5.4-0.2l8.4-4.8l0.4,0.1l0.2,0l1.4,0.5c1.7,0.5,3.2,0.6,4.6,0.1
	c0.4-0.1,0.7-0.3,1-0.4l7.9-4.6c0.3,0.4,0.7,0.8,1.2,1l12.2,7.1c-0.4-0.3-0.8-0.8-1-1.2c-0.5-0.9-0.8-2.1-0.8-3.5v0
	c-0.1-3,0.6-5.7,1.9-8.1l0.3-0.5c0.1-0.2,0.2-0.3,0.3-0.5l1.4-2c1.7-2.6,3.9-4.4,6.7-5.3c1.4-0.5,2.7-0.5,3.7-0.1
	c0.2,0.1,0.4,0.2,0.7,0.3c0.1,0.1,0.3,0.2,0.4,0.3l0.4-0.2L242,50.5l0.8-0.5l0.8-0.7C245.4,47,246.1,43.9,245.6,40 M121.5,95.5
	l0.6-0.2c0.2-0.1,0.4-0.2,0.7-0.2l0.7-0.1h0.7c0.4,0,0.7,0.1,1,0.3c0.9,0.4,1.5,1.3,1.8,2.4l0.1,0.6l0,1.3l-0.2,1.4l-0.2,0.8
	c-0.4,1.6-1.1,3-2.2,4.5c-1.1,1.5-2.3,2.6-3.7,3.3l-1.1,0.5c-0.4,0.1-0.8,0.2-1.2,0.2c-0.7,0-1.3-0.2-1.9-0.7
	c-0.8-0.6-1.2-1.5-1.4-2.7l0-1.3l0.2-1.4c0.3-1.6,0.9-3.1,1.9-4.6c1-1.6,2.2-2.8,3.5-3.6L121.5,95.5 M162.1,90.4L162.1,90.4
	L162.1,90.4L162.1,90.4z"/>
<path class="st6" d="M121.6,95.5l-0.5,0.3c-1.3,0.8-2.5,2-3.5,3.6c-1,1.5-1.6,3.1-1.9,4.6l-0.2,1.4l0,1.3c0.1,1.2,0.6,2.1,1.3,2.7
	c0.6,0.4,1.2,0.6,1.8,0.7c0.4,0,0.8-0.1,1.2-0.2l1.1-0.5c1.4-0.7,2.6-1.8,3.7-3.3c1-1.4,1.8-2.9,2.2-4.5l0.2-0.8l0.2-1.4l0-1.3
	l-0.1-0.6c-0.3-1.2-0.9-2-1.8-2.4c-0.3-0.1-0.7-0.2-1-0.3h-0.7l-0.7,0.1c-0.2,0.1-0.4,0.1-0.6,0.2L121.6,95.5 M121.8,98.3l0.3-0.1
	c0.8-0.2,1.4,0,1.9,0.5c0.4,0.5,0.6,1.1,0.6,1.9l-0.1,0.8c-0.2,0.9-0.5,1.8-0.9,2.6c-0.5,0.9-1.1,1.6-1.8,2.1l-0.3,0.3l-0.7,0.4
	l-0.3,0.1c-0.8,0.3-1.4,0.2-1.9-0.1c-0.5-0.4-0.8-1-0.8-1.8l0-0.4l0-0.4c0.1-0.9,0.3-1.7,0.8-2.6c0.4-0.9,1-1.6,1.6-2.2l0.3-0.3
	l0.7-0.4L121.8,98.3 M274.2,7.9l-5.9-3.4l-0.5-0.2c-2.6-0.8-5.2,0.4-7.8,3.4c-2.4,2.8-3.7,5.5-4,8.3v0.3l-2.2,1.2l3.8,4.7l0.2,0.3
	v2.3l2.1-1.2l3.9,2.3c1.7,1.1,3.8,0.7,6.3-1.3c2.8-2.2,4.6-4.7,5.3-7.4l0.6-1.9C276.8,11.4,276.2,9,274.2,7.9 M268.3,11.9
	c1.1-0.9,2.2-1.2,3.3-1l0.4,0.1l0.3,0.1l0.6,0.5c1.4,1.8,1.1,4.2-0.8,7.2c-1.9,3.1-3.9,4.3-6,3.6l-0.6-0.4c-1.6-1.6-1.5-3.9,0.3-7.1
	C266.4,13.8,267.3,12.7,268.3,11.9z"/>
<path class="st7" d="M253.8,17.4l-1.2-1.5l-5.2,0.5l-2.4,1.5h0l-2.2-1.3l-7.6,4.4c0.3,0.2,0.5,0.4,0.8,0.7c1.9,1.6,3.5,3.5,4.9,5.7
	l1.8,3.2c1.2,2.4,2.1,4.8,2.6,7.3c0,0.3,0.1,0.6,0.2,1l7.3-4.3c1-1,1.6-2.3,1.7-3.9l0.8-0.1l2.4-1.4v-6.8l-0.2-0.3L253.8,17.4z"/>
<path id="Layer0_6_MEMBER_0_MEMBER_0_1_STROKES" class="st8" d="M262.1,23.6l0.1,0.4l0.3,0.6c1.9,2.5,4.4,2.5,7.6-0.1
	c2.8-2.2,4.6-4.7,5.3-7.4l0.6-1.9c0.9-4,0.1-6.6-2.2-7.5c-2.3-1-4.8,0-7.6,2.9l-0.9,1"/>
<path id="Layer0_6_MEMBER_0_MEMBER_1_1_STROKES" class="st8" d="M271.5,15c-0.3-0.3-0.7-0.4-1.2-0.3l-0.2,0.1l-0.4,0.2l-0.4,0.3
	c-1.1,0.7-1.6,1.8-1.7,3.3c-0.1,1.6,0.5,2.1,2,1.6l0.6-0.4c0.4-0.3,0.8-0.8,1.1-1.3c0.3-0.6,0.5-1.1,0.6-1.6l0.1-0.3v-0.3
	C271.9,15.7,271.8,15.3,271.5,15z"/>
<path id="Layer0_6_MEMBER_0_MEMBER_2_1_STROKES" class="st8" d="M121.2,92.5l-0.9,0.6c-2.2,1.5-4,3.6-5.5,6.2
	c-1.5,2.7-2.3,5.3-2.4,7.9v1c0.1,2.4,0.9,4.1,2.4,5.1c1.5,1,3.3,1,5.5-0.1l0.9-0.4"/>
<path id="Layer0_6_MEMBER_0_MEMBER_3_1_STROKES" class="st8" d="M121.2,92.5l9.3-5.4"/>
<path id="Layer0_6_MEMBER_0_MEMBER_4_1_STROKES" class="st8" d="M131.4,87.8v18.7"/>
<path id="Layer0_6_MEMBER_0_MEMBER_5_1_STROKES" class="st8" d="M130.5,107.4l-9.3,5.4"/>
<path id="Layer0_6_MEMBER_0_MEMBER_6_1_STROKES" class="st8" d="M121.3,100.5l-0.2,0.2c-1,0.7-1.6,1.8-1.7,3.3
	c-0.1,1.5,0.5,2.1,1.9,1.6l0.4-0.2c1.1-0.6,1.7-1.7,1.9-3.2c0.3-1.6-0.3-2.2-1.7-1.9l-0.2,0.1L121.3,100.5z"/>
<path id="Layer0_6_MEMBER_0_MEMBER_7_1_STROKES" class="st8" d="M182.8,103.3l-1.4,0.8l-1.4,1.1c-1.4,1.3-2.6,2.8-3.5,4.7
	c-1,1.9-1.5,3.7-1.7,5.6v1.7c0.2,1.7,0.8,3,1.8,3.7c1.1,0.8,2.5,0.9,4.1,0.4l1.4-0.7l1.4-1c1.5-1.2,2.7-2.7,3.7-4.5
	c1-1.8,1.7-3.6,2-5.5l0.1-1.7c0-1.7-0.4-3.1-1.3-4c-1-1.1-2.3-1.4-3.9-1L182.8,103.3z"/>
<path id="Layer0_6_MEMBER_0_MEMBER_8_1_STROKES" class="st8" d="M173.1,95l-0.2-0.8c-1.2-3.2-3.4-4.3-6.6-3.1c-2.8,1-5,2.7-6.7,5.3
	l-1.3,2c-1.8,2.7-2.6,5.7-2.5,9.1c0.1,4,1.9,5.9,5.4,5.8l1.6-0.4"/>
<path id="Layer0_6_MEMBER_0_MEMBER_9_1_STROKES" class="st8" d="M142.8,99.7l0,0.8c0.2,2.3,1.1,3.8,2.5,4.7l0.4,0.2"/>
<path id="Layer0_6_MEMBER_0_MEMBER_10_1_STROKES" class="st8" d="M170.8,93.7l-0.2-0.1c-1.7-0.8-3.6-0.6-5.6,0.7
	c-1.8,1.2-3.4,2.9-4.8,5.3c-1.4,2.4-2.1,4.6-2.2,6.8c-0.1,2.4,0.6,4.1,2.2,5.2l0.3,0.1"/>
<path id="Layer0_6_MEMBER_0_MEMBER_11_1_STROKES" class="st8" d="M179.8,98.8l-0.2-0.1c-1.7-0.8-3.6-0.6-5.6,0.7
	c-1.8,1.2-3.4,2.9-4.7,5.3c-1.4,2.3-2.1,4.6-2.2,6.7c-0.1,2.4,0.6,4.1,2.2,5.2"/>
<path id="Layer0_6_MEMBER_0_MEMBER_12_1_STROKES" class="st8" d="M181.3,99.6c-1.7-0.8-3.6-0.5-5.6,0.7c-1.8,1.2-3.4,2.9-4.8,5.3
	c-1.3,2.3-2.1,4.6-2.2,6.8c-0.1,2.4,0.6,4.1,2.2,5.1"/>
<path id="Layer0_6_MEMBER_0_MEMBER_13_1_STROKES" class="st8" d="M185.8,102.3c-1.7-0.8-3.6-0.6-5.6,0.7c-1.8,1.2-3.4,2.9-4.8,5.2
	c-1.4,2.4-2.1,4.6-2.2,6.8c-0.1,2.4,0.6,4.1,2.2,5.2"/>
<path id="Layer0_6_MEMBER_0_MEMBER_14_1_STROKES" class="st8" d="M184.4,101.4c-1.7-0.8-3.6-0.6-5.6,0.7c-1.8,1.2-3.4,2.9-4.8,5.3
	c-1.4,2.4-2.1,4.6-2.2,6.8c-0.1,2.4,0.6,4.1,2.2,5.2l0.2,0.1"/>
<path id="Layer0_6_MEMBER_0_MEMBER_15_1_STROKES" class="st8" d="M183,100.7l-0.2-0.1c-1.7-0.8-3.6-0.6-5.6,0.7
	c-1.8,1.2-3.4,2.9-4.8,5.3c-1.4,2.4-2.1,4.6-2.2,6.8c-0.1,2.4,0.6,4.1,2.2,5.2"/>
<path id="Layer0_6_MEMBER_0_MEMBER_16_1_STROKES" class="st8" d="M160,77.5l1.2-2.5l-3.1-1.8l-4.3,0.7l-1.1,2.5l3.1,1.8L160,77.5z"
	/>
<path id="Layer0_6_MEMBER_0_MEMBER_17_1_STROKES" class="st8" d="M152.6,78.1l3.1,1.8l4.3-0.7l1.2-2.5"/>
<path id="Layer0_6_MEMBER_0_MEMBER_18_1_STROKES" class="st8" d="M151.8,78.4l0,0.3c0.4,1.7,2.1,2.6,5,2.6c2.9,0,4.5-0.9,4.9-2.6
	v-0.3"/>
<path id="Layer0_6_MEMBER_0_MEMBER_19_1_STROKES" class="st8" d="M152.3,84.1l0.9,0.3c1.3,0.4,2.7,0.6,4.2,0.5
	c1.6-0.1,2.9-0.4,4.1-1l0.6-0.3l0.5-0.3c0.9-0.7,1.5-1.4,1.7-2.2c0.2-0.9-0.1-1.8-0.8-2.6l-0.7-0.7"/>
<path id="Layer0_6_MEMBER_0_MEMBER_20_1_STROKES" class="st8" d="M151.9,76.7l-0.2,0.2l-0.3,0.3"/>
<path id="Layer0_6_MEMBER_0_MEMBER_21_1_STROKES" class="st8" d="M156.2,82.3l0.6,0c1.8,0.1,3.4-0.3,4.9-1.4
	c1.7-1.2,1.7-2.6,0.2-4.1l-0.2-0.2"/>
<path id="Layer0_6_MEMBER_0_MEMBER_22_1_STROKES" class="st8" d="M156.2,84.1l0.6,0c1.3,0,2.5-0.2,3.7-0.7c1.4-0.6,2.2-1.4,2.5-2.5
	l0-0.4"/>
<path id="Layer0_6_MEMBER_0_MEMBER_23_1_STROKES" class="st8" d="M161.8,90.6l0.3-0.1c1.5-0.9,2.2-1.9,2.2-3.1"/>
<path id="Layer0_6_MEMBER_0_MEMBER_24_1_STROKES" class="st8" d="M169.2,89.7l0.2-0.1l0.8-0.5c1.8-1.6,2.7-4,2.6-7.4
	c-0.1-2.7-0.7-5.3-1.9-7.9l-1.4-2.8c-1.5-2.8-3.5-5.1-6-7.1c-3-2.4-5.8-3.3-8.4-2.9l-0.9,0.2l-0.8,0.4"/>
<path id="Layer0_6_MEMBER_0_MEMBER_25_1_STROKES" class="st8" d="M171.2,91.4l0.4-0.2l0.8-0.6c2.7-2.4,3.6-6.1,2.7-11.2
	c-0.7-4.2-2.2-8-4.5-11.3l-2.2-2.9c-2.5-3.3-5.6-5.5-9.1-6.7c-4.3-1.4-7.4-0.2-9.2,3.7l-0.6,1.7"/>
<path id="Layer0_6_MEMBER_0_MEMBER_26_1_STROKES" class="st8" d="M242,50.5l0.8-0.5l0.8-0.7c1.8-2.2,2.5-5.3,2.1-9.2
	c-0.3-3.2-1.3-6.3-2.9-9.3l-1.8-3.2c-1.9-3-4.3-5.5-7.1-7.5c-3.5-2.4-6.7-3.2-9.6-2.2l-1,0.4l-0.1,0.1"/>
<path id="Layer0_6_MEMBER_0_MEMBER_27_1_STROKES" class="st8" d="M180.3,108.9c-0.4,0.2-0.6,0.6-0.7,1v0.2c0.1,0.5,0.3,0.6,0.8,0.3
	c0.4-0.3,0.6-0.6,0.7-1v-0.3l0-0.1c-0.1-0.3-0.3-0.4-0.6-0.2L180.3,108.9L180.3,108.9z"/>
<path id="Layer0_6_MEMBER_0_MEMBER_28_1_STROKES" class="st8" d="M178.9,113.1c-0.4,0-0.6,0.3-0.9,0.9c-0.2,0.5-0.1,0.9,0.2,1h0.1
	l0.1,0c0.4,0,0.6-0.3,0.9-0.8c0.2-0.5,0.2-0.9-0.1-1l-0.1,0H178.9z"/>
<path id="Layer0_6_MEMBER_0_MEMBER_29_1_STROKES" class="st8" d="M180.1,115.9L180.1,115.9l-0.1,0.1l-0.1,0.1
	c-0.3,0.4-0.4,0.8-0.2,1.1c0.2,0.3,0.5,0.3,1-0.1l0.1-0.1l0.1-0.1l0.1-0.1c0.2-0.4,0.3-0.7,0.2-1l-0.1-0.1c-0.1-0.1-0.2-0.2-0.4-0.1
	c-0.2,0-0.3,0.1-0.4,0.2L180.1,115.9z"/>
<path id="Layer0_6_MEMBER_0_MEMBER_30_1_STROKES" class="st8" d="M184.5,114c-0.1-0.5-0.3-0.6-0.7-0.3c-0.4,0.3-0.6,0.6-0.7,1l0,0.1
	v0.2l0,0.1v0.1c0.1,0.3,0.3,0.4,0.6,0.2l0.1-0.1c0.4-0.2,0.6-0.6,0.7-1v-0.1V114L184.5,114z"/>
<path id="Layer0_6_MEMBER_0_MEMBER_31_1_STROKES" class="st8" d="M185.8,109.2c-0.4,0-0.7,0.3-0.9,0.8c-0.2,0.5-0.2,0.9,0.1,1h0.2
	c0.4-0.1,0.7-0.3,0.9-0.9c0.2-0.5,0.1-0.8-0.2-1L185.8,109.2L185.8,109.2z"/>
<path id="Layer0_6_MEMBER_0_MEMBER_32_1_STROKES" class="st8" d="M183.4,107.2c-0.3,0.3-0.4,0.7-0.3,1.1c0.1,0.4,0.4,0.4,0.9,0
	l0.1-0.1l0.1-0.2c0.3-0.4,0.3-0.8,0.1-1.1c-0.2-0.3-0.5-0.3-0.9,0.2L183.4,107.2L183.4,107.2z"/>
<path id="Layer0_6_MEMBER_0_MEMBER_33_1_STROKES" class="st8" d="M155.7,79.9v-1.7"/>
<path id="Layer0_6_MEMBER_0_MEMBER_34_1_STROKES" class="st8" d="M160,79.2v-1.7"/>
<path id="Layer0_6_MEMBER_0_MEMBER_35_1_STROKES" class="st8" d="M161.2,76.7V75"/>
<path id="Layer0_6_MEMBER_0_MEMBER_36_1_STROKES" class="st8" d="M152.5,78v-1.7"/>
<path id="Layer0_6_MEMBER_0_MEMBER_37_1_STROKES" class="st8" d="M133.6,86.1l0.1,0.1c0.6,0.6,1.1,0.7,1.6,0.3
	c0.5-0.3,0.8-0.9,0.8-1.6v-0.2l0-0.2c-0.1-0.7-0.4-1.3-1-1.7c-0.6-0.4-1.2-0.3-1.7,0.4l-0.1,0.1"/>
<path id="Layer0_6_MEMBER_0_MEMBER_38_1_STROKES" class="st8" d="M149.4,84c1.1-0.2,1.5-1,1.2-2.4c-0.3-1.4-1-2-2.1-1.7"/>
<path id="Layer0_6_MEMBER_0_MEMBER_39_1_STROKES" class="st8" d="M252.7,34.8l0.2-0.1c1.5-1.3,2-3.4,1.5-6.2
	c-0.4-2.4-1.2-4.4-2.5-6.3l-0.3-0.4"/>
<path id="Layer0_6_MEMBER_0_MEMBER_40_1_STROKES" class="st8" d="M242.9,16.8l8.7,5"/>
<path id="Layer0_6_MEMBER_0_MEMBER_41_1_STROKES" class="st8" d="M235.3,21.1l7.6-4.4"/>
<path id="Layer0_6_MEMBER_0_MEMBER_42_1_STROKES" class="st8" d="M244,26.2l6.5-3.7"/>
<path id="Layer0_6_MEMBER_0_MEMBER_43_1_STROKES" class="st8" d="M247.5,16.6l5.1-0.5l5.1,6.4v6.8"/>
<path id="Layer0_6_MEMBER_0_MEMBER_44_1_STROKES" class="st8" d="M245.1,17.9l5.1-0.5l5.1,6.4v6.8l-0.8,0.1"/>
<path id="Layer0_6_MEMBER_0_MEMBER_45_1_STROKES" class="st8" d="M255.4,30.7l2.4-1.4"/>
<path id="Layer0_6_MEMBER_0_MEMBER_46_1_STROKES" class="st8" d="M255.4,23.8l2.4-1.4"/>
<path id="Layer0_6_MEMBER_0_MEMBER_47_1_STROKES" class="st8" d="M245.1,17.9l2.4-1.4"/>
<path id="Layer0_6_MEMBER_0_MEMBER_48_1_STROKES" class="st8" d="M250.3,17.5l2.4-1.4"/>
<path id="Layer0_6_MEMBER_0_MEMBER_49_1_STROKES" class="st8" d="M254.2,27.4l0.1-0.4c0.2-1.7-0.4-3.5-1.9-5.5
	c-1.6-2.1-3.2-2.8-4.8-2.3l-0.2,0.1"/>
<path id="Layer0_6_MEMBER_0_MEMBER_50_1_STROKES" class="st8" d="M258.7,16.1c-0.3-0.2-0.6-0.3-0.9-0.4c-0.4-0.1-0.7-0.1-1,0.1
	l-0.2,0.1"/>
<path id="Layer0_6_MEMBER_0_MEMBER_51_1_STROKES" class="st8" d="M129.6,96.5l-0.1,0.1l-0.1,0.1c-0.5,0.3-0.8,0.9-0.9,1.7
	c-0.1,0.8,0.3,1,1,0.8l0.1,0l0.1-0.1l0.1-0.1c0.2-0.1,0.4-0.4,0.6-0.7c0.2-0.3,0.3-0.6,0.3-0.8l0-0.1v-0.1c0-0.6-0.3-0.9-0.8-0.8
	l-0.1,0L129.6,96.5L129.6,96.5z"/>
<path id="Layer0_6_MEMBER_0_MEMBER_52_1_STROKES" class="st8" d="M272.3,11.3l-0.3-0.1l-0.4-0.1c-1-0.2-2.1,0.1-3.2,1
	c-1,0.8-1.9,1.8-2.7,3.2c-1.8,3.2-1.9,5.5-0.3,7.1l0.6,0.4c2.1,0.7,4.1-0.5,6-3.6c1.9-3.1,2.2-5.5,0.8-7.2L272.3,11.3z"/>
<path id="Layer0_6_MEMBER_0_MEMBER_53_1_STROKES" class="st8" d="M115.3,105.6l0,1.3c0.1,1.2,0.6,2.1,1.3,2.7c0.8,0.6,1.8,0.8,3,0.5
	l1.1-0.4c1.4-0.7,2.6-1.8,3.7-3.3c1-1.4,1.8-2.9,2.2-4.5l0.2-0.7l0.2-1.4l0-1.3l-0.1-0.6c-0.3-1.2-0.9-2-1.7-2.5
	c-0.9-0.4-1.9-0.4-3,0.1l-0.6,0.2l-0.6,0.3c-1.3,0.8-2.5,2-3.5,3.6c-1,1.5-1.6,3.1-1.9,4.6L115.3,105.6z"/>
<path id="Layer0_6_MEMBER_0_MEMBER_54_1_STROKES" class="st8" d="M132.3,87.1c-0.6-0.3-1.2-0.3-1.8,0"/>
<path id="Layer0_6_MEMBER_0_MEMBER_55_1_STROKES" class="st8" d="M132.3,107.4c-0.2-0.1-0.5-0.2-0.9-0.2c-0.4,0-0.7,0.1-0.9,0.2"/>
<path id="Layer0_6_MEMBER_0_MEMBER_56_1_STROKES" class="st8" d="M108.4,109.6l6.6,3.8"/>
<path id="Layer0_6_MEMBER_0_MEMBER_57_1_STROKES" class="st8" d="M124.6,100.6c0-0.8-0.2-1.4-0.6-1.9c-0.5-0.5-1.1-0.7-1.9-0.5
	l-0.3,0.1l-0.7,0.3l-0.7,0.4l-0.3,0.3c-0.7,0.6-1.2,1.3-1.6,2.2c-0.4,0.9-0.7,1.7-0.8,2.6l0,0.4l0,0.4c0.1,0.8,0.4,1.4,0.8,1.8
	c0.5,0.4,1.2,0.4,1.9,0.1l0.3-0.1l0.7-0.4l0.3-0.3c0.7-0.6,1.3-1.3,1.8-2.1c0.5-0.8,0.8-1.7,0.9-2.6L124.6,100.6z"/>
<path id="Layer0_6_MEMBER_0_MEMBER_58_1_STROKES" class="st8" d="M116.1,106.4c0.1,1.1,0.5,1.9,1.2,2.5c0.7,0.6,1.6,0.7,2.7,0.4
	l1-0.4c1.2-0.6,2.3-1.6,3.3-3c0.9-1.3,1.6-2.6,2-4l0.3-1.9l0-1.2l-0.1-0.5c-0.3-1.1-0.8-1.8-1.6-2.2c-0.8-0.4-1.7-0.4-2.7,0.1
	l-1,0.5c-1.2,0.8-2.3,1.8-3.2,3.2c-0.9,1.4-1.5,2.8-1.7,4.2l-0.1,0.6l-0.1,1.2L116.1,106.4z"/>
<path id="Layer0_6_MEMBER_0_MEMBER_59_1_STROKES" class="st8" d="M125.6,98.4c-0.2-1-0.7-1.6-1.4-2c-0.7-0.3-1.5-0.3-2.5,0l-0.9,0.5
	c-1.1,0.7-2,1.6-2.8,2.9c-0.8,1.2-1.3,2.5-1.6,3.7l-0.1,1.1l0,1.1c0.1,1,0.5,1.7,1.1,2.2c0.6,0.5,1.4,0.6,2.4,0.4l0.9-0.4
	c1.1-0.6,2.1-1.5,3-2.7c0.8-1.1,1.4-2.3,1.8-3.6l0.1-0.6l0.1-1.2L125.6,98.4z"/>
<path id="Layer0_6_MEMBER_0_MEMBER_60_1_STROKES" class="st8" d="M134.1,82.6l14.5-2.8"/>
<path id="Layer0_6_MEMBER_0_MEMBER_61_1_STROKES" class="st8" d="M135,86.7l14.5-2.8"/>
<path id="Layer0_6_MEMBER_0_MEMBER_62_1_STROKES" class="st8" d="M149.2,84l7.5,0.1"/>
<path id="Layer0_6_MEMBER_0_MEMBER_63_1_STROKES" class="st8" d="M148.4,79.9l3.3-3"/>
<path id="Layer0_6_MEMBER_0_MEMBER_64_1_STROKES" class="st8" d="M162.9,80.6v-1.8"/>
<path id="Layer0_6_MEMBER_0_MEMBER_65_1_STROKES" class="st8" d="M164.4,87.3v-6.8"/>
<path id="Layer0_6_MEMBER_0_MEMBER_66_1_STROKES" class="st8" d="M156.2,82.3l-5.1-1.1"/>
<path id="Layer0_6_MEMBER_0_MEMBER_67_1_STROKES" class="st8" d="M170.7,91.2l-6.3-3.6"/>
<path id="Layer0_6_MEMBER_0_MEMBER_68_1_STROKES" class="st8" d="M145.4,105.2l12.9,7.5"/>
<path id="Layer0_6_MEMBER_0_MEMBER_69_1_STROKES" class="st8" d="M162.3,90.4l-0.1,0.1c-1.2,0.7-2.4,1.7-3.5,2.9
	c-1,1.1-1.9,2.3-2.7,3.7l-0.3,0.5"/>
<path id="Layer0_6_MEMBER_0_MEMBER_70_1_STROKES" class="st8" d="M152.8,97.8l0.2,0.1c0.5,0.3,0.9,0.4,1.4,0.4
	c0.5,0,0.9-0.2,1.2-0.7"/>
<path id="Layer0_6_MEMBER_0_MEMBER_71_1_STROKES" class="st8" d="M120.1,80.8l33.2-19.2"/>
<path id="Layer0_6_MEMBER_0_MEMBER_72_1_STROKES" class="st8" d="M168.6,90.1l1.6-1"/>
<path id="Layer0_6_MEMBER_0_MEMBER_73_1_STROKES" class="st8" d="M136.2,108.8l7.9-4.5"/>
<path id="Layer0_6_MEMBER_0_MEMBER_74_1_STROKES" class="st8" d="M142.7,99.7l-0.1-1.3l-0.4-2.8l-1.2-3.7"/>
<path id="Layer0_6_MEMBER_0_MEMBER_75_1_STROKES" class="st8" d="M149.2,84v3.3"/>
<path id="Layer0_6_MEMBER_0_MEMBER_76_1_STROKES" class="st8" d="M179.3,98.6l7.9,4.6"/>
<path id="Layer0_6_MEMBER_0_MEMBER_77_1_STROKES" class="st8" d="M170.6,93.5l3.5,2"/>
<path id="Layer0_6_MEMBER_0_MEMBER_78_1_STROKES" class="st8" d="M169.2,116.6l7.7,4.4"/>
<path id="Layer0_6_MEMBER_0_MEMBER_79_1_STROKES" class="st8" d="M160.3,111.5l3.4,2"/>
<path id="Layer0_6_MEMBER_0_MEMBER_80_1_STROKES" class="st8" d="M175.8,97.7l-0.4-0.9c-1.4-2-3.4-2.3-6-1c-2.2,1.1-3.9,2.7-5.1,4.8
	l-1,1.7c-1.2,2.1-1.7,4.4-1.6,6.8c0.1,2.9,1.4,4.5,3.8,4.7l1.1-0.1"/>
<path id="Layer0_6_MEMBER_0_MEMBER_81_1_STROKES" class="st8" d="M173.6,96.4l-0.5-0.1c-1.5-0.2-3.1,0.3-4.7,1.5
	c-1.5,1.1-2.8,2.7-3.8,4.6c-1.1,1.9-1.6,3.8-1.8,5.6c-0.1,2,0.4,3.5,1.5,4.5l0.4,0.3"/>
<path id="Layer0_6_MEMBER_0_MEMBER_82_1_STROKES" class="st8" d="M174.1,96.7l2.8,1.6"/>
<path id="Layer0_6_MEMBER_0_MEMBER_83_1_STROKES" class="st8" d="M164.8,112.8l2.7,1.6"/>
<path id="Layer0_6_MEMBER_0_MEMBER_84_1_STROKES" class="st8" d="M152.9,59l70.4-40.7"/>
<path id="Layer0_6_MEMBER_0_MEMBER_85_1_STROKES" class="st8" d="M171.6,91.3l70.4-40.6"/>
<path id="Layer0_6_MEMBER_0_MEMBER_86_1_STROKES" class="st8" d="M151.8,78.4v-0.9"/>
<path id="Layer0_6_MEMBER_0_MEMBER_87_1_STROKES" class="st8" d="M161.8,78.4v-0.9"/>
<path id="Layer0_6_MEMBER_0_MEMBER_88_1_STROKES" class="st8" d="M152.7,75.8l-0.2,0.3c-0.7,0.8-0.8,1.6-0.2,2.4
	c0.5,0.7,1.2,1.2,2.2,1.4l0.9,0.2c1.1,0.2,2.3,0.2,3.6-0.1c1.4-0.4,2.3-1.1,2.7-2l0.1-0.3v-0.5l-0.1-0.3l-0.3-0.5l-0.2-0.2"/>
<path id="Layer0_6_MEMBER_0_MEMBER_89_1_STROKES" class="st8" d="M245.4,38l0.1-0.4c0.8-2.8,0.2-5.9-1.8-9.5
	c-2.1-3.6-4.5-5.7-7.3-6.3l-0.2-0.1"/>
<path id="Layer0_6_MEMBER_0_MEMBER_90_1_STROKES" class="st8" d="M245.5,39l7.3-4.2"/>
<path id="Layer0_6_MEMBER_0_MEMBER_91_1_STROKES" class="st8" d="M257.8,24.7l2.3-1.3"/>
<path id="Layer0_6_MEMBER_0_MEMBER_92_1_STROKES" class="st8" d="M253.8,17.5l2.9-1.7"/>
<path id="Layer0_6_MEMBER_0_MEMBER_93_1_STROKES" class="st8" d="M262,23.6c-0.2-0.3-0.4-0.5-0.7-0.5c-0.3-0.1-0.6,0-1,0.2l-0.3,0.1
	"/>
<path id="Layer0_6_MEMBER_0_MEMBER_94_1_STROKES" class="st8" d="M268.3,4.5l5.9,3.4"/>
<path id="Layer0_6_MEMBER_0_MEMBER_95_1_STROKES" class="st8" d="M259.8,23.5l3.9,2.3"/>
<path id="Layer0_6_MEMBER_0_MEMBER_96_1_STROKES" class="st8" d="M268.2,4.5l-0.5-0.2c-2.6-0.8-5.1,0.4-7.8,3.4
	c-2.4,2.8-3.7,5.5-4,8.3l0,0.2"/>
<path id="Layer0_6_MEMBER_0_MEMBER_97_1_STROKES" class="st8" d="M215.6,118l-0.8-0.3c-1.9-0.4-3.8,0.1-5.9,1.6
	c-1.9,1.4-3.5,3.3-4.9,5.7c-1.4,2.4-2.1,4.8-2.3,7.1c-0.2,2.5,0.4,4.4,1.9,5.7l0.7,0.5"/>
<path id="Layer0_6_MEMBER_0_MEMBER_98_1_STROKES" class="st8" d="M228.2,128.3l-0.1-0.8l-0.3-1c-1.2-3-3.3-3.9-6.3-2.8
	c-2.6,1-4.7,2.7-6.3,5.2l-1.5,2.5c-1.6,2.8-2.2,5.7-1.8,8.7c0.5,3.5,2.5,4.9,6,4.1l1-0.4l0.4-0.2"/>
<path id="Layer0_6_MEMBER_0_MEMBER_99_1_STROKES" class="st8" d="M204.3,138.3l10,5.8"/>
<path id="Layer0_6_MEMBER_0_MEMBER_100_1_STROKES" class="st8" d="M215.6,118l10.1,5.8"/>
<path id="Layer0_6_MEMBER_0_MEMBER_101_1_STROKES" class="st8" d="M221.4,121.3l-0.8-0.3c-1.9-0.4-3.8,0.1-5.9,1.6
	c-1.9,1.4-3.5,3.3-4.9,5.7c-1.4,2.4-2.1,4.8-2.3,7.1c-0.2,2.5,0.4,4.4,1.9,5.7l0.7,0.4"/>
<path id="Layer0_6_MEMBER_0_MEMBER_102_1_STROKES" class="st8" d="M217.4,119l-0.8-0.3c-1.9-0.4-3.9,0.1-5.9,1.6
	c-1.9,1.4-3.5,3.3-4.9,5.7c-1.4,2.4-2.1,4.8-2.3,7.1c-0.2,2.5,0.4,4.4,1.9,5.7l0.7,0.5"/>
<path id="Layer0_6_MEMBER_0_MEMBER_103_1_STROKES" class="st8" d="M224.6,126.2l-0.7-0.2c-1.4-0.2-2.9,0.2-4.5,1.4
	c-1.4,1.1-2.6,2.5-3.7,4.4c-1,1.9-1.6,3.7-1.7,5.4c-0.1,1.9,0.4,3.3,1.5,4.3l4.7,2.8"/>
<path id="Layer0_6_MEMBER_0_MEMBER_104_1_STROKES" class="st8" d="M224.6,126.2l4.2,2.5"/>
<path id="Layer0_6_MEMBER_0_MEMBER_105_1_STROKES" class="st8" d="M230.8,133.5l0-0.8l-0.1-0.9c-0.5-2.6-1.8-3.7-4-3.4
	c-1.9,0.3-3.6,1.4-5.1,3.3l-1.3,1.8c-1.4,1.8-2.1,4.1-2.1,6.7c-0.1,3,1.2,4.5,3.8,4.5l0.7-0.1l0.8-0.2"/>
<path id="Layer0_6_MEMBER_0_MEMBER_106_1_STROKES" class="st8" d="M228.7,132.4l-0.1-0.4l-0.2-0.3c-0.8-1.1-1.9-1.2-3.4-0.5
	c-1.2,0.6-2.1,1.4-2.9,2.6l-0.7,1.1c-0.7,1.2-1.1,2.5-1.1,4c0,1.8,0.7,2.8,2.1,3h0.4l0.4-0.1"/>
<path id="Layer0_6_MEMBER_0_MEMBER_107_1_STROKES" class="st8" d="M237.4,151l9.9,5.6"/>
<path id="Layer0_6_MEMBER_0_MEMBER_108_1_STROKES" class="st8" d="M220.9,139.5l1.2,0.8c1.6,1,3.3,2.1,5.1,3.4
	c0.1,0.1,1.7,1.3,4.8,3.8l1.5,1"/>
<path id="Layer0_6_MEMBER_0_MEMBER_109_1_STROKES" class="st8" d="M237.8,149l10.6,6"/>
<path id="Layer0_6_MEMBER_0_MEMBER_110_1_STROKES" class="st8" d="M220.9,137.3l1.2,0.7c1.9,1.1,3.8,2.4,5.6,3.7
	c1.1,0.8,2.8,2.2,5.3,4.2l1,0.7"/>
<path id="Layer0_6_MEMBER_0_MEMBER_111_1_STROKES" class="st8" d="M238.2,148.3l0.8,0.6c2.3,1.8,5.3,3.7,9,5.7l0.4,0.2"/>
<path id="Layer0_6_MEMBER_0_MEMBER_112_1_STROKES" class="st8" d="M221.8,135.2l1.3,0.8c2.2,1.3,4.1,2.6,5.7,3.9
	c1.6,1.2,3.3,2.8,5.1,4.6l0.8,0.7"/>
<path id="Layer0_6_MEMBER_0_MEMBER_113_1_STROKES" class="st8" d="M239.3,146.6l0.8,0.7c1.4,1.2,3.1,2.4,5.1,3.7
	c0.8,0.5,2.6,1.6,5.4,3.3l0.4,0.3"/>
<path id="Layer0_6_MEMBER_0_MEMBER_114_1_STROKES" class="st8" d="M222.9,133.3l1.3,0.9c2.3,1.4,4.2,2.7,5.9,4
	c1.5,1.3,3.3,2.9,5.2,4.9l0.7,0.7"/>
<path id="Layer0_6_MEMBER_0_MEMBER_115_1_STROKES" class="st8" d="M239.9,145.8l1.2,1c2.4,1.9,5.6,4.2,9.8,7l0.5,0.3"/>
<path id="Layer0_6_MEMBER_0_MEMBER_116_1_STROKES" class="st8" d="M224,132.3l7,4.4l2.8,2.4l2.9,3.5l0.3,0.3"/>
<path id="Layer0_6_MEMBER_0_MEMBER_117_1_STROKES" class="st8" d="M241.3,144.9l0.4,0.3c2.7,2.1,6.1,4.4,10.1,7.1l0.5,0.3"/>
<path id="Layer0_6_MEMBER_0_MEMBER_118_1_STROKES" class="st8" d="M225.7,131.1l6.6,4.2l2.5,2.3l3.7,4.7"/>
<path id="Layer0_6_MEMBER_0_MEMBER_119_1_STROKES" class="st8" d="M243.5,144.9l-0.4-0.4c-1-0.6-2.1-0.4-3.4,0.6
	c-1.1,0.8-1.8,1.8-2.3,3l-0.4,1c-0.4,1.2-0.5,2.3-0.1,3.3c0.4,1.1,1.3,1.5,2.6,1.1l0.4-0.1"/>
<path id="Layer0_6_MEMBER_0_MEMBER_120_1_STROKES" class="st8" d="M239.9,142.7l-0.3-0.1c-1.7-0.4-3.3,0.7-4.7,3.1
	c-1.4,2.5-1.6,4.3-0.4,5.7l0.2,0.2"/>
<path id="Layer0_6_MEMBER_0_MEMBER_121_1_STROKES" class="st8" d="M234.7,151.6l3.2,1.8"/>
<path id="Layer0_6_MEMBER_0_MEMBER_122_1_STROKES" class="st8" d="M239.9,142.7l2.6,1.5"/>
<path id="Layer0_6_MEMBER_0_MEMBER_123_1_STROKES" class="st8" d="M223.5,144.3l0.3,0c0.7-0.1,1.5,0,2.4,0.3c0.6,0.2,1.3,0.5,2.2,1
	l2.7,1.6"/>
<path class="st9" d="M204.2,124.8C204.2,124.8,204.2,124.8,204.2,124.8l-1.2-0.7c0,0,0,0-0.1,0c0,0,0,0,0,0c0,0,0,0,0,0.1
	c0,0,0,0,0,0.1l1.2,0.7C204.1,124.9,204.2,124.9,204.2,124.8C204.2,124.9,204.2,124.9,204.2,124.8
	C204.2,124.9,204.2,124.9,204.2,124.8 M185.8,114.3C185.8,114.3,185.8,114.3,185.8,114.3C185.9,114.3,185.9,114.3,185.8,114.3
	C185.9,114.3,185.9,114.2,185.8,114.3c0.1-0.1,0.1-0.1,0.1-0.1l-3.7-2.1c0,0,0,0-0.1,0c0,0,0,0,0,0.1c0,0,0,0,0,0c0,0,0,0,0.1,0.1
	L185.8,114.3 M198.8,121.8C198.8,121.8,198.8,121.8,198.8,121.8l3.6,2.2c0,0,0,0,0.1,0c0,0,0,0,0.1,0c0,0,0,0,0-0.1c0,0,0,0,0,0
	l-3.6-2.1C198.9,121.7,198.8,121.7,198.8,121.8C198.8,121.7,198.8,121.7,198.8,121.8C198.8,121.7,198.8,121.7,198.8,121.8
	 M189.9,116.7C190,116.7,190,116.7,189.9,116.7c0.1,0,0.1,0,0.1,0c0,0,0,0,0-0.1c0,0,0,0,0,0l-3.6-2.1c0,0,0,0-0.1,0c0,0,0,0,0,0
	c0,0,0,0,0,0.1c0,0,0,0,0,0.1L189.9,116.7 M194.2,119.1C194.3,119.1,194.3,119,194.2,119.1C194.2,119,194.2,119,194.2,119.1
	l-3.7-2.2c0,0,0,0-0.1,0c0,0,0,0,0,0.1c0,0,0,0,0,0c0,0,0,0,0.1,0.1L194.2,119.1C194.2,119.1,194.2,119.1,194.2,119.1
	C194.2,119.1,194.2,119.1,194.2,119.1 M194.7,119.3C194.7,119.3,194.7,119.3,194.7,119.3C194.7,119.3,194.7,119.3,194.7,119.3
	c-0.1,0-0.1,0-0.1,0.1c0,0,0,0,0,0.1l3.6,2.1c0,0,0,0,0.1,0c0,0,0,0,0.1,0c0,0,0,0,0-0.1c0,0,0,0,0,0L194.7,119.3z"/>
<path id="Layer0_6_MEMBER_0_MEMBER_125_1_STROKES" class="st8" d="M181.9,104.9l1.9-1l0.6-0.2c1.2-0.3,2.2-0.1,2.9,0.6
	c0.6,0.6,1,1.6,1.1,2.8v1.5c-0.1,1.8-0.7,3.7-1.8,5.6c-1,1.9-2.3,3.4-3.7,4.6l-1.3,0.9l-1.3,0.6c-1.2,0.4-2.2,0.4-3-0.1
	c-0.8-0.4-1.3-1.3-1.5-2.5l-0.1-1.4c0-1.8,0.5-3.7,1.4-5.6c0.9-1.9,2-3.5,3.4-4.7L181.9,104.9z"/>
<path id="Layer0_6_MEMBER_0_MEMBER_126_1_STROKES" class="st8" d="M130.4,83.2c-1.5-1.2-3-2.1-4.5-2.6c-1.8-0.6-3.5-0.7-5-0.1
	l-0.8,0.4"/>
<path id="Layer0_6_MEMBER_0_MEMBER_127_1_STROKES" class="st8" d="M129.1,108.4l0.2,0.1l1.1,0.4c1.8,0.6,3.4,0.7,4.8,0.2
	c1.6-0.5,2.7-1.6,3.5-3.3l0.7-2.1c0.4-2.3,0.2-4.9-0.6-7.8c-0.7-2.6-1.8-5-3.3-7.2l-1-1.4"/>
<path id="Layer0_6_MEMBER_0_MEMBER_128_1_STROKES" class="st8" d="M126.9,128.8c0,0.3,0.2,0.5,0.6,0.5c0.4,0,0.6-0.2,0.6-0.5"/>
<path id="Layer0_6_MEMBER_0_MEMBER_129_1_STROKES" class="st8" d="M128.1,128.8L128.1,128.8l0,0.1c0.1,0.3,0.3,0.4,0.6,0.4
	c0.3,0,0.5-0.1,0.6-0.4v-0.1c0-0.3-0.2-0.5-0.6-0.5C128.4,128.3,128.2,128.5,128.1,128.8L128.1,128.8L128.1,128.8z"/>
<path id="Layer0_6_MEMBER_0_MEMBER_130_1_STROKES" class="st8" d="M129.3,128.9l0.3-16.6"/>
<path id="Layer0_6_MEMBER_0_MEMBER_131_1_STROKES" class="st8" d="M126.9,128.6l0.3-16.5"/>
<path id="Layer0_6_MEMBER_0_MEMBER_132_1_STROKES" class="st8" d="M117.8,84l-0.5,2.1l0,0.4"/>
<path id="Layer0_6_MEMBER_0_MEMBER_133_1_STROKES" class="st8" d="M115,88.9l-0.4,0.3c-3.1,1.7-5.5,4.8-7.2,9.4
	c-1.9,4.9-1.6,8.5,0.8,10.9l0.2,0.2"/>
<path id="Layer0_6_MEMBER_0_MEMBER_134_1_STROKES" class="st8" d="M115,88.9l5.7-3.3"/>
<path id="Layer0_6_MEMBER_0_MEMBER_135_1_STROKES" class="st8" d="M130.9,72.9l-0.4-6.5l-0.2-1.3c-0.2-1.8-0.7-3.6-1.5-5.3l-0.5-0.9
	l-0.8-0.9l-1-0.9c-2.6-1.8-5.5-2.7-8.7-2.8c-3.5-0.1-6.3,0.9-8.3,3.1l-1.7,2.4l-1.2,3.1l-0.6,3.5l0,3.4l0.6,3.1l0.6,1.5
	c0.5,1.1,1.1,2,1.8,2.7c0.4,0.4,1.3,1.1,2.5,2.1l1.2,0.9l2.6,1.5c3.1,1.6,5.8,2.7,8.3,3.3c2.7,0.7,5.6,1,8.8,1l2.8-0.1"/>
<path id="Layer0_6_MEMBER_0_MEMBER_136_1_STROKES" class="st8" d="M128.5,74.6l0-1.7c0-4.8-0.5-8.6-1.5-11.4l-0.2-0.6l-0.3-0.5
	c-1.5-1.8-3.8-3-6.9-3.5c-3.3-0.5-5.8,0-7.6,1.6l-0.6,0.6l-1.4,1.9l-1,2.6c-0.3,1.2-0.5,2.4-0.6,3.7c-0.1,1.4,0,2.6,0.2,3.7l0.8,2.5
	c0.4,0.9,0.9,1.6,1.5,2.2c0.3,0.3,1,0.9,2.1,1.7l1.1,0.8l2.3,1.3c2.9,1.5,5.5,2.5,7.7,3.1c2.4,0.7,5.2,1,8.2,1l2.6-0.2"/>
<path id="Layer0_9_1_STROKES" class="st10" d="M344.5,88.6H237.8V60.9h106.8V88.6z"/>
<path id="Layer0_9_1_STROKES_1_" class="st10" d="M344.5,122.8H237.8V95h106.8V122.8z"/>
<g>
	<path class="st1" d="M78,26.5l-4.5,1.1l2.9,0.2c23.3-0.6,46.5,6.6,72.6,21.4l-2.6,6.4l16-6.8l-6.8-16l-2.6,6.4
		C128,28.1,102.9,24,78,26.5z"/>
	<path id="Layer1_10_1_STROKES_3_" class="st11" d="M74.9,27.8c23.3-0.6,47.8,6.4,73.9,21.2l-2.6,6.4l16-6.8l-6.8-16l-2.6,6.4
		c-24.8-10.8-49.9-15.2-75-12.6L70.3,28C70.3,28.1,70.3,28.1,74.9,27.8z"/>
</g>
<text transform="matrix(1 0 0 1 242.5457 79.2797)"><tspan x="0" y="0" class="st12 st13">L/H - </tspan><tspan x="34.2" y="0" class="st12 st13">2700-P17</tspan><tspan x="0" y="33.6" class="st12 st13">R/H - 2700-P16</tspan></text>
</svg>
