<?xml version="1.0" encoding="utf-8"?>
<!-- Generator: Adobe Illustrator 24.2.1, SVG Export Plug-In . SVG Version: 6.00 Build 0)  -->
<svg version="1.1" id="Ebene_1" xmlns="http://www.w3.org/2000/svg" xmlns:xlink="http://www.w3.org/1999/xlink" x="0px" y="0px"
	 viewBox="0 0 349.1 161" style="enable-background:new 0 0 349.1 161;" xml:space="preserve">
<style type="text/css">
	.st0{fill:#0099FF;}
	.st1{fill:#009900;}
	.st2{fill:none;stroke:#000000;stroke-width:0.55;stroke-linecap:square;stroke-linejoin:round;}
	.st3{fill:none;stroke:#000000;stroke-width:0.55;stroke-linecap:square;stroke-linejoin:round;stroke-miterlimit:4;}
	.st4{fill:#ED1C24;}
	.st5{fill:none;stroke:#FF9900;stroke-linecap:round;stroke-linejoin:round;}
	.st6{font-family:'ArialMT';}
	.st7{font-size:14px;}
	.st8{opacity:0.2;fill:#0099FF;enable-background:new    ;}
	.st9{fill:none;stroke:#0099FF;stroke-width:2.0003;stroke-miterlimit:10.0007;}
</style>
<path class="st0" d="M83,83.8c-4.6-2.7-8.4-3.1-11.6-1.2c-3.3,1.8-4.9,5.4-4.8,10.7c0,5.3,1.6,10.7,4.8,16.2
	c3.3,5.6,7.2,9.6,11.7,12.2c0.5,0.3,1,0.6,1.5,0.9c3.9,1.8,7.2,1.9,10.1,0.3c0.1-0.1,0.3-0.2,0.5-0.2c2.9-1.9,4.3-5.4,4.3-10.5
	c0-5.3-1.6-10.7-4.9-16.2C91.4,90.4,87.5,86.4,83,83.8 M177.4,79.3c0.2-0.3,0.3-0.7,0.4-1.2c0.1-0.8-0.1-1.6-0.5-2.4l-2.6,1.5
	C175.4,78.5,176.3,79.2,177.4,79.3 M174.6,77.2l-1.1,0.6c0.5,0.8,1,1.4,1.7,1.7c0.6,0.4,1.2,0.4,1.7,0.2c0.2-0.1,0.3-0.2,0.5-0.3
	C176.3,79.2,175.4,78.5,174.6,77.2 M57.4,122.2c0.1,0.7,0.3,1.4,0.8,2.1c0.4,0.8,1,1.4,1.6,1.8c0-0.7-0.2-1.4-0.8-2.2
	C58.6,123.1,58.1,122.5,57.4,122.2 M58.2,120.2L58.2,120.2c-0.1,0-0.1,0-0.2,0.1c-0.1,0.1-0.2,0.2-0.2,0.2L58.2,120.2 M57.2,122
	c0.1,0,0.2,0.1,0.2,0.2c0-0.1,0-0.3,0-0.4c0-0.5,0.1-0.9,0.4-1.2l-2,1.1C56.2,121.6,56.7,121.7,57.2,122 M55.5,121.9l0.3-0.2
	C55.7,121.7,55.6,121.8,55.5,121.9L55.5,121.9 M59.8,126.3c0-0.1,0-0.2,0-0.2c-0.6-0.4-1.2-1-1.6-1.8c-0.4-0.7-0.7-1.4-0.8-2.1
	c0-0.1-0.1-0.2-0.2-0.2c-0.5-0.3-1-0.4-1.4-0.2l-0.3,0.2c-0.5,0.3-0.7,0.8-0.7,1.6c0,0.8,0.2,1.6,0.8,2.4c0.3,0.5,0.7,1,1.1,1.4
	c0.2,0.2,0.5,0.4,0.7,0.5c0.7,0.4,1.3,0.5,1.8,0.1c0.1,0,0.1,0,0.1,0C59.6,127.6,59.8,127.1,59.8,126.3 M58.4,125.3l-0.2,0.7
	l-0.1,0.5l-1.2-0.4l-0.9-1.5l0.4-1.3l0.4,0.1l0.8,0.1L58.4,125.3 M57.4,125.8l-0.9-1.6l0.1-0.6l-0.4-0.1l-0.4,1.3l0.9,1.5l1.2,0.4
	l0.1-0.5L57.4,125.8 M56.5,124.2l0.9,1.6l0.8,0.2l0.2-0.7l-0.9-1.6l-0.8-0.1L56.5,124.2 M59.9,126.2c-0.1,0-0.1-0.1-0.1-0.1
	c0,0.1,0,0.1,0,0.2c0,0.7-0.2,1.2-0.6,1.5l1.6-0.9l0.8-0.5C61,126.6,60.5,126.5,59.9,126.2 M62.1,126.1c-0.1,0.1-0.2,0.1-0.3,0.2
	l-0.1,0.1C61.8,126.4,61.9,126.3,62.1,126.1 M61.7,122.3c-0.5-0.8-1.1-1.5-1.8-1.9c-0.7-0.4-1.3-0.5-1.8-0.2l-0.4,0.4
	c-0.3,0.3-0.4,0.7-0.4,1.2c0,0.1,0,0.2,0,0.4c0.6,0.4,1.2,0.9,1.6,1.6c0.5,0.8,0.8,1.6,0.8,2.2c0,0,0.1,0.1,0.1,0.1
	c0.6,0.4,1.1,0.5,1.6,0.3l0.1,0l0.1-0.1c0.1-0.1,0.2-0.1,0.3-0.2c0-0.1,0.1-0.1,0.1-0.1l0.2-0.6v-0.1c0-0.2,0-0.4,0-0.6
	C62.4,123.9,62.2,123.1,61.7,122.3 M21,102.7c-0.1,0.1-0.3,0.1-0.4,0.1c-0.2,0.1-0.4,0.2-0.6,0.3c-2.4,1.4-3.6,4-3.6,7.9
	c0,3.9,1.2,7.9,3.6,11.9c2.4,4.1,5.3,7.2,8.6,9.1c3,1.8,5.7,2.2,7.9,1.2c0.2-0.1,0.4-0.2,0.6-0.4c0.1-0.1,0.2-0.1,0.3-0.2
	c0.2-0.1,0.4-0.2,0.6-0.3c1.8-1.5,2.8-3.9,2.8-7.3c0-3.9-1.2-7.9-3.6-12c-2.4-4.1-5.2-7.1-8.5-9.1C25.7,102.3,23.1,101.8,21,102.7
	 M28.7,107.2c2.6,1.5,4.8,3.8,6.6,7c1.8,3.2,2.8,6.3,2.8,9.3c0.1,3-0.8,5-2.7,6.1c-1.9,1.1-4.1,0.9-6.7-0.6
	c-2.6-1.5-4.8-3.9-6.7-7.1c-1.8-3.2-2.7-6.2-2.8-9.2c-0.1-3,0.8-5.1,2.7-6.2C23.8,105.4,26,105.7,28.7,107.2 M35.3,114.2
	c-1.8-3.2-4-5.5-6.6-7c-2.7-1.5-4.9-1.7-6.8-0.7c-1.9,1.1-2.8,3.1-2.7,6.2c0,3,0.9,6.1,2.8,9.2c1.9,3.2,4.1,5.6,6.7,7.1
	c2.6,1.5,4.8,1.7,6.7,0.6c1.8-1.1,2.7-3.1,2.7-6.1C38,120.5,37.1,117.4,35.3,114.2 M33.1,115l1.7-1L33.1,115 M33.9,116.8l1.8-1.1
	L33.9,116.8 M32.6,115.4v0.2l0.1,0.2v0.1l0.4,0.7l0.4,0.2l-0.4-0.2l-0.4-0.7v-0.1l-0.1-0.2V115.4 M22.1,110v0.5l0.1,0.2l0.3,0.4
	l0,0.2l0.2,0.1l0.1,0.1l0.3,0.2l-0.3-0.2l-0.1-0.1l-0.2-0.1l0-0.2l-0.3-0.4l-0.1-0.2V110 M23.9,116.4l2.9-1.7L23.9,116.4
	 M26.4,113.3l0.2,0.4l0.1,0.1l0.1,0.1l0.4,0.4l-0.4-0.4l-0.1-0.1l-0.1-0.1L26.4,113.3 M22.6,109.6l4.7-2.8L22.6,109.6 M26.5,122.6
	v0.5l0.1,0.2l0.1,0.2l0.1,0.1l0.1,0.1l0,0.1l0.4,0.3l-0.4-0.3l0-0.1l-0.1-0.1l-0.1-0.1l-0.1-0.2l-0.1-0.2V122.6 M23.5,117.5l0.1,0.2
	l0.5,0.5l-0.5-0.5L23.5,117.5l-0.1-0.1l-0.1-0.1v-0.6v0.6l0.1,0.1L23.5,117.5 M28.8,117.7v0.8l0.2,0.2l0,0.1l0.2,0.2l0.2,0.1
	l0.1,0.1l0.2,0.1H30l3.2-1.9l-3.2,1.9h-0.3l-0.2-0.1l-0.1-0.1l-0.2-0.1l-0.2-0.2l0-0.1l-0.2-0.2V117.7l0.2-0.1l0.1-0.1h0.2l2.8-1.6
	l-2.8,1.6h-0.2l-0.1,0.1L28.8,117.7 M33,121.9v0.3l0.2,0.8l0.1,0l0.2,0.2l-0.2-0.2l-0.1,0l-0.2-0.8V121.9 M31,126.5v0.2l0.2,0.4
	l-0.2-0.4V126.5 M33.4,121.5l3.4-2.1L33.4,121.5 M31.6,126l5.5-3.3L31.6,126 M32.3,127.8l5-2.9L32.3,127.8 M34.2,123.3l3.1-1.8
	L34.2,123.3 M23.4,111.5l5.6-3.3L23.4,111.5 M27,122.3l5.2-3L27,122.3 M27.7,124.1l5.7-3.3L27.7,124.1 M27.7,114.3l4.9-2.8
	L27.7,114.3 M24.7,118.2l5.7-3.2L24.7,118.2 M26.9,112.5l4.2-2.5L26.9,112.5 M53,103.8c-0.3-0.5-0.6-1-0.9-1.4
	C52.4,102.9,52.7,103.4,53,103.8c0.2,0.5,0.5,1,0.8,1.4C53.6,104.8,53.3,104.3,53,103.8 M30.3,97.2c-0.1-0.6-0.3-1.2-0.8-1.9
	c-0.4-0.9-1-1.5-1.8-1.9c-0.6-0.3-1.1-0.4-1.5-0.3c-0.1,0-0.2,0.1-0.2,0.1c-0.5,0.3-0.7,0.8-0.7,1.6c0,0.8,0.2,1.6,0.7,2.4
	c0.4,0.7,0.9,1.2,1.4,1.7L30.3,97.2 M28.8,97.1l-0.2,0.6l-1.2-0.4l-0.9-1.6l0.3-1.2l0.5,0.2l0.8,0.2l0.9,1.6L28.8,97.1 M28.8,97.1
	l0.2-0.7l-0.9-1.6l-0.8-0.2l-0.2,0.7l0.9,1.6L28.8,97.1 M28.7,97.7l0.2-0.6L28.1,97l-0.9-1.6l0.2-0.7l-0.5-0.2l-0.3,1.2l0.9,1.6
	L28.7,97.7 M35.9,93.9l-0.2,0.2l-2.5,1.4l-2.8,1.6l-2.8,1.7l-6.5,3.8c2.2-0.8,4.7-0.4,7.6,1.3c3.3,1.9,6.2,4.9,8.5,9.1
	c2.4,4.1,3.6,8.1,3.6,12c0,3.4-0.9,5.8-2.8,7.3l6.3-3.6l8.8-5.1c0.1,0,0.1,0,0.1-0.1c0.2-0.1,0.4-0.2,0.6-0.3l1.5-1.9
	c0.8-1.4,1.2-3.2,1.2-5.4c0-0.1,0-0.1,0-0.2c0-0.2,0-0.5,0-0.7c0-0.2-0.1-0.3-0.1-0.5l-2.7-9.2c-0.3-0.5-0.5-0.9-0.8-1.4
	c-0.3-0.5-0.6-1-0.9-1.5l-1-1.4c-2-2.7-4.2-4.7-6.7-6.2C41.1,92.9,38.2,92.6,35.9,93.9 M30.7,91.7c-0.7-0.4-1.3-0.4-1.8-0.1l-1.7,1
	l-0.8,0.5c0.4-0.1,0.9,0,1.5,0.3c0.7,0.4,1.3,1,1.8,1.9c0.4,0.7,0.7,1.4,0.8,1.9l2.8-1.6c-0.2-0.7-0.5-1.4-0.8-1.9
	C31.9,92.8,31.3,92.2,30.7,91.7 M52.1,88.5l-0.6-0.2L52.1,88.5l0.2,0.1l0.1,0.1l0.6,1.2l10.8,34.2c0.1,0.4,0.1,0.9-0.1,1.4
	c-0.2,0.7-0.5,1.1-0.9,1.3l0.3,0l1.6-0.8l0.7-0.6l0.5-0.6l0.2-0.6l-0.1-1.4L55.2,88.6l-0.6-1.2l-0.1-0.2l0.1,0.2l0.6,1.2l10.7,34.1
	l0.1,1.4l-0.2,0.6l18.7-2.1c-0.5-0.2-1-0.5-1.5-0.9c-4.5-2.6-8.4-6.7-11.7-12.2c-3.2-5.6-4.8-11-4.8-16.2c-0.1-5.3,1.5-8.9,4.8-10.7
	c3.2-1.9,7-1.5,11.6,1.2c4.5,2.6,8.4,6.7,11.6,12.2c3.2,5.6,4.9,11,4.9,16.2c0,5-1.4,8.5-4.3,10.5c0.5-0.1,1-0.2,1.4-0.4l0.8-0.4
	h0.1l0.9-0.5c2.7-2.1,3.9-5.6,3.8-10.4c-0.2-5.4-2-10.8-5.4-16.4c-3-4.9-6.6-8.7-10.8-11.3c-4-2.6-7.7-3.5-10.9-2.7L70.5,83
	l-40.1,4.4L70.5,83l4.4-2.6l28.9-16.7l-44.9,5.9l-30,17.5l-0.6,0.6l-0.3,0.9v1l1-0.5l24-2.5l-24,2.5l-1,0.5l-0.8,0.9l-0.1,0.9
	l0.3-0.7l0.7-0.3l22.7-2.4l-22.7,2.4l-0.7,0.3l-0.3,0.7l0.1,1l1.7-1c0.5-0.3,1.1-0.2,1.8,0.1c0.7,0.4,1.2,1.1,1.8,1.9
	c0.3,0.6,0.5,1.2,0.8,1.9l2.5-1.4l0.2-0.2c2.3-1.4,5.2-1.1,8.6,0.9c2.5,1.5,4.7,3.5,6.7,6.2l1,1.4c0.3,0.5,0.6,0.9,0.9,1.4
	c0.3,0.5,0.6,0.9,0.8,1.4l2.7,9.2c0,0.2,0,0.3,0.1,0.5c0,0.2,0,0.5,0,0.7c0,0,0,0.1,0,0.2c0,2.3-0.4,4.1-1.2,5.4l-1.5,1.9
	c-0.2,0.1-0.4,0.2-0.6,0.3c0,0,0,0.1-0.1,0.1l-8.8,5.1l12.3-1.5c-0.4-0.4-0.8-0.8-1.1-1.4c-0.5-0.9-0.8-1.7-0.8-2.4
	c0-0.8,0.2-1.3,0.7-1.6v-0.1c0.1-0.1,0.2-0.1,0.3-0.1l2-1.1c0-0.1,0.1-0.2,0.2-0.2c0.1-0.1,0.1-0.1,0.1-0.1h0.1
	c0.5-0.3,1.1-0.2,1.8,0.2c0.7,0.4,1.2,1.1,1.8,1.9c0.5,0.8,0.8,1.6,0.8,2.4c0,0.2,0,0.4,0,0.6v0.1l-0.2,0.6c0,0-0.1,0.1-0.1,0.1
	c-0.1,0.1-0.3,0.2-0.4,0.3l-0.1,0l-0.8,0.5l2-0.2c0.4-0.2,0.7-0.6,0.9-1.3c0.2-0.5,0.2-0.9,0.1-1.4L52.9,89.9l-0.6-1.2l-0.1-0.1
	L52.1,88.5 M50.5,89.6c0.7,0.4,1.2,1,1.7,1.8c0.5,0.8,0.8,1.6,0.8,2.4c0,0.7-0.2,1.2-0.6,1.5c0,0-0.1,0.1-0.1,0.1l-2.4,1.4
	c-0.1,0.1-0.1,0.1-0.2,0.2c0,0-0.1,0-0.2,0.1c-0.5,0.2-1.1,0.1-1.8-0.4c-0.7-0.4-1.2-1.1-1.6-1.9c-0.4-0.8-0.6-1.6-0.6-2.4
	c0.1-0.7,0.3-1.1,0.6-1.4c0.1-0.1,0.2-0.2,0.2-0.2c0,0,0.1,0,0.1,0l2.4-1.4C49.2,89.1,49.8,89.2,50.5,89.6 M45.9,91.1l0.4-0.2
	c0,0-0.1,0-0.1,0C46.1,90.9,46,91,45.9,91.1 M47.9,91.2c-0.6-0.4-1.2-0.5-1.6-0.3l-0.4,0.2c-0.3,0.2-0.5,0.7-0.6,1.4
	c0,0.8,0.2,1.6,0.6,2.4c0.4,0.8,1,1.5,1.6,1.9c0.7,0.5,1.2,0.6,1.8,0.4c0.1-0.1,0.1-0.1,0.2-0.1c0.1-0.1,0.2-0.2,0.2-0.2
	c0.2-0.3,0.3-0.7,0.3-1.2c0-0.8-0.2-1.6-0.6-2.4C49.1,92.3,48.6,91.6,47.9,91.2 M47.2,92.7l0.8,0.2l0.9,1.6l-0.1,0.7l-0.2,0.6
	l-1.3-0.3l-0.9-1.6l0.4-1.2L47.2,92.7 M47.2,92.7l-0.5-0.1l-0.4,1.2l0.9,1.6l1.3,0.3l0.2-0.6L48,94.9l-0.9-1.6L47.2,92.7 M48,92.9
	l-0.8-0.2l-0.2,0.6l0.9,1.6l0.8,0.2l0.1-0.7L48,92.9 M52.2,91.4c-0.5-0.8-1-1.4-1.7-1.8c-0.7-0.4-1.2-0.4-1.8-0.1l-2.4,1.4
	c0.5-0.2,1-0.1,1.6,0.3c0.6,0.4,1.2,1.1,1.6,1.9c0.4,0.8,0.6,1.6,0.6,2.4c0,0.5-0.1,0.9-0.3,1.2l2.4-1.4c0.1,0,0.1-0.1,0.1-0.1
	c0.4-0.3,0.6-0.8,0.6-1.5C52.9,93,52.7,92.2,52.2,91.4 M196.8,27.2c-0.8-0.6-1.5-1.1-2.2-1.4c-1.4-0.6-2.7-0.8-3.9-0.5
	c3.2,2.6,5.9,6,8.2,10c2.5,4.4,4.1,8.7,4.7,12.9c0.7-1.3,1.1-2.9,1.1-4.9c0-0.3,0-0.7-0.1-1c-0.1-1-0.2-2-0.4-2.9
	c-0.3-1.2-0.6-2.4-1.1-3.6c-0.1-0.4-0.3-0.7-0.5-1.1c-0.3-0.8-0.7-1.5-1-2.1c-0.7-1.1-1.4-2-2.1-2.9c-0.8-0.9-1.6-1.7-2.5-2.4
	C196.9,27.3,196.8,27.3,196.8,27.2 M163.8,29.1l-9.9,5.7l-50.1,29L74.9,80.5c3.3-0.8,6.9,0.1,10.9,2.7c4.1,2.6,7.7,6.4,10.8,11.3
	c3.4,5.6,5.2,11,5.4,16.4c0.2,4.9-1.1,8.4-3.8,10.4l73.5-42.4l1.8-1.1l1.1-0.6l2.6-1.5l9.4-5.4c0,0,0.1-0.1,0.2-0.1
	c3.1-1.9,4.7-5.5,4.7-10.8c0-5.3-1.6-10.8-4.9-16.5c-3.3-5.7-7.2-9.9-11.8-12.5C170.6,28,166.9,27.5,163.8,29.1 M189.5,24.4
	c-3.6-2.7-7.1-4-10.3-3.8l2.3,1.6l18.4,17.6l1.5,2.1l0.4,0.9l0.1,0.9l0.1,2.2l-1.9,15.8c2.6-2.3,3.9-5.9,3.6-11
	c0-0.8-0.1-1.7-0.2-2.6c-0.6-4.2-2.2-8.5-4.7-12.9c-2.3-4-5-7.4-8.2-10C190.3,25,189.9,24.6,189.5,24.4 M175.8,22.9l-1.1-0.5
	l-19.3-3.3l-2.2,0.3l-0.5,0.8l-0.2,0.1l-0.1,0.4v0.5l1.5,13.6l9.9-5.7c3.1-1.6,6.8-1.1,11.1,1.4c4.6,2.7,8.6,6.8,11.8,12.5
	c3.3,5.6,4.9,11.1,4.9,16.5c0,5.3-1.6,8.9-4.7,10.8c-0.1,0-0.2,0-0.2,0.1l-9.4,5.4c0.4,0.8,0.6,1.6,0.5,2.4c0,0.5-0.2,0.9-0.4,1.2
	c-0.1,0.1-0.3,0.2-0.5,0.3c-0.5,0.3-1.1,0.2-1.7-0.2c-0.7-0.3-1.2-0.9-1.7-1.7l-1.8,1.1l0.7,1.8l0.6,1.2l0.5,0.5l0.1,0.1l1.9,0.8
	l2-0.3l15-8.5l1.8-1.9l1.2-2.2l0.6-2.4l2.3-19.6v-1.8l-0.2-1.3l-0.1-0.5l-0.2-0.6l-1.5-1.9l-18.3-17.7L175.8,22.9 M156.4,21.5
	c0.7,0.4,1.4,1.1,1.9,2c0.5,0.9,0.8,1.7,0.8,2.5c-0.1,0.5-0.2,0.9-0.4,1.2c-0.1,0.2-0.3,0.3-0.5,0.4c-0.5,0.3-1.1,0.2-1.8-0.2
	c-0.8-0.4-1.4-1.1-1.8-2c-0.5-0.9-0.8-1.7-0.8-2.5c0-0.8,0.2-1.4,0.8-1.6c0.2-0.1,0.4-0.2,0.7-0.2C155.6,21.1,156,21.2,156.4,21.5
	 M192.2,42.7c0.2-0.1,0.5-0.1,0.8-0.1c0.3,0,0.7,0.1,1.1,0.3c0.7,0.4,1.3,1.1,1.8,2c0.5,0.9,0.8,1.7,0.8,2.5c0,0.5-0.1,0.9-0.3,1.2
	c-0.2,0.2-0.3,0.3-0.5,0.4c-0.5,0.3-1.1,0.2-1.8-0.1c-0.7-0.4-1.3-1.1-1.8-1.9c-0.5-0.9-0.7-1.8-0.7-2.6
	C191.5,43.6,191.7,43,192.2,42.7 M196.2,48.6c0.2-0.3,0.3-0.7,0.3-1.2c0-0.8-0.2-1.6-0.8-2.5c-0.4-0.9-1-1.5-1.8-2
	c-0.4-0.2-0.7-0.3-1.1-0.3c-0.2,0.4-0.3,1-0.2,1.6c0.1,0.7,0.4,1.3,0.8,2C194.3,47.7,195.2,48.5,196.2,48.6 M193,42.6
	c-0.3,0-0.5,0-0.8,0.1c-0.5,0.3-0.8,0.9-0.8,1.7c0,0.8,0.2,1.6,0.7,2.6c0.5,0.9,1.1,1.6,1.8,1.9c0.7,0.4,1.3,0.4,1.8,0.1
	c0.2-0.1,0.3-0.2,0.5-0.4c-1-0.1-1.9-0.9-2.8-2.4c-0.4-0.7-0.6-1.3-0.8-2C192.7,43.6,192.7,43.1,193,42.6 M154.6,21.3
	c-0.5,0.3-0.8,0.8-0.8,1.6c0,0.8,0.2,1.6,0.8,2.5c0.4,0.9,1,1.6,1.8,2c0.7,0.4,1.2,0.4,1.8,0.2c0.2-0.1,0.4-0.2,0.5-0.4
	c-1.1-0.2-2-1-2.9-2.4c-0.8-1.5-0.9-2.7-0.5-3.6C155,21.1,154.8,21.2,154.6,21.3 M158.2,23.4c-0.5-0.9-1.1-1.6-1.9-2
	c-0.4-0.2-0.8-0.3-1.1-0.3c-0.4,1-0.3,2.2,0.5,3.6c0.9,1.4,1.8,2.2,2.9,2.4c0.2-0.3,0.3-0.8,0.4-1.2C159,25.2,158.7,24.3,158.2,23.4
	 M157.9,16.8l-0.3,0.1l-4.3,2.5l2.2-0.3l19.3,3.3l1.1,0.5l2.4,1.6l18.3,17.7l1.5,1.9l0.2,0.6l0.1,0.5l0.2,1.3v1.8l-2.3,19.6
	l-0.6,2.4l-1.2,2.2l-1.8,1.9l3.6-1.9l1.8-1.7l1.2-2.4l0.4-2.1l0.6-4.5l1.9-15.8l-0.1-2.2l-0.1-0.9l-0.4-0.9l-1.5-2.1l-18.4-17.6
	l-2.3-1.6l-2.2-0.8l-18.1-2.9L157.9,16.8z"/>
<path class="st1" d="M206.6,23.1c-0.5-0.3-1-0.6-1.4-0.9l-8.4,5c0.1,0,0.1,0.1,0.2,0.1c0.9,0.7,1.7,1.5,2.5,2.4l8.8-5.1
	C207.7,24.1,207.1,23.6,206.6,23.1 M205.2,22.2c-1.1-0.6-2.2-0.9-3.2-0.8l-7.4,4.4c0.7,0.3,1.5,0.8,2.2,1.4L205.2,22.2 M210.3,27.5
	c-0.6-1.1-1.3-2.1-2.1-2.9l-8.8,5.1c0.7,0.9,1.4,1.8,2.1,2.9L210.3,27.5 M210.5,27.9c-0.1-0.1-0.1-0.2-0.2-0.4l-8.8,5.1
	c0.4,0.7,0.7,1.4,1,2.1c0.2,0.3,0.4,0.7,0.5,1.1l8.8-5.1C211.5,29.7,211.1,28.8,210.5,27.9 M212.7,34.5c0,0,0-0.1,0-0.2
	c-0.1-1.2-0.4-2.4-0.8-3.6l-8.8,5.1c0.5,1.2,0.8,2.4,1.1,3.6L212.7,34.5 M211.5,39.1L211.5,39.1c0.9-1.1,1.4-2.6,1.2-4.7l-8.5,4.9
	c0.2,1,0.3,1.9,0.4,2.9c0,0.3,0.1,0.7,0.1,1L211.5,39.1z"/>
<path id="Layer0_5_1_STROKES" class="st2" d="M204.6,43.3c0,2-0.4,3.6-1.1,4.9c0.1,0.9,0.2,1.8,0.2,2.6c0.2,5.1-1,8.7-3.6,11
	l-0.6,4.5l-0.4,2.1l-1.2,2.4l-1.8,1.7l-3.6,1.9l-15,8.5l-2,0.3l-1.9-0.8l-0.1-0.1l-0.5-0.5l-0.6-1.2l-0.7-1.8l-73.5,42.4l-0.9,0.5
	h-0.1l-0.8,0.4c-0.4,0.2-0.9,0.3-1.4,0.4c-0.2,0.1-0.4,0.2-0.5,0.2c-2.9,1.6-6.2,1.5-10.1-0.3l-18.7,2.1l-0.5,0.6l-0.7,0.6l-1.6,0.8
	l-0.3,0l-2,0.2l-1.6,0.9c0,0-0.1,0-0.1,0c-0.4,0.3-1,0.3-1.8-0.1c-0.2-0.1-0.4-0.3-0.7-0.5l-12.3,1.5l-6.3,3.6
	c-0.2,0.1-0.4,0.2-0.6,0.3c-0.1,0.1-0.2,0.1-0.3,0.2c-0.2,0.2-0.4,0.3-0.6,0.4c-2.2,1-4.9,0.5-7.9-1.2c-3.3-1.9-6.2-4.9-8.6-9.1
	c-2.4-4.1-3.6-8.1-3.6-11.9c0-3.9,1.2-6.5,3.6-7.9c0.2-0.1,0.4-0.2,0.6-0.3c0.1,0,0.2-0.1,0.4-0.1l6.5-3.8c-0.5-0.4-1-1-1.4-1.7
	c-0.5-0.8-0.7-1.6-0.7-2.4c0-0.8,0.2-1.3,0.7-1.6c0.1,0,0.1-0.1,0.2-0.1l0.8-0.5l-0.1-1l0.1-0.9l0.8-0.9v-1l0.3-0.9l0.6-0.6l30-17.5
	l44.9-5.9l50.1-29l-1.5-13.6v-0.5l0.1-0.4l0.2-0.1l0.5-0.8l4.3-2.5l0.3-0.1l1,0.1l18.1,2.9l2.2,0.8c3.3-0.2,6.7,1.1,10.3,3.8
	c0.4,0.3,0.8,0.6,1.2,0.9c1.2-0.3,2.5-0.1,3.9,0.5l7.4-4.4c1.1,0,2.1,0.2,3.2,0.8c0.4,0.3,0.9,0.6,1.4,0.9c0.6,0.4,1.1,0.9,1.6,1.5
	c0.8,0.8,1.5,1.8,2.1,2.9c0.1,0.1,0.1,0.2,0.2,0.4c0.6,0.9,1,1.9,1.4,2.8c0.4,1.2,0.7,2.4,0.8,3.6c0,0.1,0,0.2,0,0.2
	c0.1,2-0.3,3.6-1.2,4.6v0.1L204.6,43.3c0-0.3,0-0.7-0.1-1c-0.1-1-0.2-2-0.4-2.9c-0.3-1.2-0.6-2.4-1.1-3.6c-0.1-0.4-0.3-0.7-0.5-1.1
	c-0.3-0.8-0.7-1.5-1-2.1c-0.7-1.1-1.4-2-2.1-2.9c-0.8-0.9-1.6-1.7-2.5-2.4c-0.1,0-0.1,0-0.2-0.1c-0.8-0.6-1.5-1.1-2.2-1.4
	 M192.6,74.4l1.8-1.9l1.2-2.2l0.6-2.4l2.3-19.6v-1.8l-0.2-1.3l-0.1-0.5l-0.2-0.6l-1.5-1.9l-18.3-17.7l-2.4-1.6l-1.1-0.5l-19.3-3.3
	l-2.2,0.3 M179.1,20.6l2.3,1.6l18.4,17.6l1.5,2.1l0.4,0.9l0.1,0.9l0.1,2.2l-1.9,15.8 M156.4,21.5c-0.4-0.2-0.8-0.3-1.1-0.3
	c-0.4,1-0.3,2.2,0.5,3.6c0.9,1.4,1.8,2.2,2.9,2.4c0.2-0.3,0.3-0.8,0.4-1.2c0-0.8-0.2-1.6-0.8-2.5C157.7,22.5,157.1,21.9,156.4,21.5z
	 M155.2,21.1c-0.2,0-0.5,0.1-0.7,0.2c-0.5,0.3-0.8,0.8-0.8,1.6c0,0.8,0.2,1.6,0.8,2.5c0.4,0.9,1,1.6,1.8,2c0.7,0.4,1.2,0.4,1.8,0.2
	c0.2-0.1,0.4-0.2,0.5-0.4 M171.8,78.9l1.8-1.1l1.1-0.6l2.6-1.5l9.4-5.4c0,0,0.1-0.1,0.2-0.1c3.1-1.9,4.7-5.5,4.7-10.8
	c0-5.3-1.6-10.8-4.9-16.5c-3.3-5.7-7.2-9.9-11.8-12.5c-4.3-2.5-8-2.9-11.1-1.4l-9.9,5.7 M192.2,42.7c-0.5,0.3-0.8,0.9-0.8,1.7
	c0,0.8,0.2,1.6,0.7,2.6c0.5,0.9,1.1,1.6,1.8,1.9c0.7,0.4,1.3,0.4,1.8,0.1c0.2-0.1,0.3-0.2,0.5-0.4c-1-0.1-1.9-0.9-2.8-2.4
	c-0.4-0.7-0.6-1.3-0.8-2c-0.1-0.7,0-1.2,0.2-1.6C192.7,42.6,192.4,42.6,192.2,42.7z M199.4,29.7l8.8-5.1 M210.3,27.5l-8.8,5.1
	 M190.7,25.3c3.2,2.6,5.9,6,8.2,10c2.5,4.4,4.1,8.7,4.7,12.9 M205.2,22.2l-8.4,5 M196.2,48.6c0.2-0.3,0.3-0.7,0.3-1.2
	c0-0.8-0.2-1.6-0.8-2.5c-0.4-0.9-1-1.5-1.8-2c-0.4-0.2-0.7-0.3-1.1-0.3 M203.1,35.8l8.8-5.1 M212.7,34.5l-8.5,4.9 M62.8,126.7
	c0.4-0.2,0.7-0.6,0.9-1.3c0.2-0.5,0.2-0.9,0.1-1.4L52.9,89.9l-0.6-1.2l-0.1-0.1l-0.2-0.1l-0.6-0.2 M54.5,87.2l0.1,0.2l0.6,1.2
	l10.7,34.1l0.1,1.4l-0.2,0.6 M50.5,89.6c-0.7-0.4-1.2-0.4-1.8-0.1l-2.4,1.4c0.5-0.2,1-0.1,1.6,0.3c0.6,0.4,1.2,1.1,1.6,1.9
	c0.4,0.8,0.6,1.6,0.6,2.4c0,0.5-0.1,0.9-0.3,1.2l2.4-1.4c0.1,0,0.1-0.1,0.1-0.1c0.4-0.3,0.6-0.8,0.6-1.5c0-0.8-0.2-1.6-0.8-2.4
	C51.7,90.6,51.1,90,50.5,89.6z M45.9,91.1l0.4-0.2c0,0-0.1,0-0.1,0C46.1,90.9,46,91,45.9,91.1c-0.3,0.2-0.5,0.7-0.6,1.4
	c0,0.8,0.2,1.6,0.6,2.4c0.4,0.8,1,1.5,1.6,1.9c0.7,0.5,1.2,0.6,1.8,0.4c0.1-0.1,0.1-0.1,0.2-0.1c0.1-0.1,0.2-0.2,0.2-0.2 M27.2,92.6
	l1.7-1c0.5-0.3,1.1-0.2,1.8,0.1c0.7,0.4,1.2,1.1,1.8,1.9c0.3,0.6,0.5,1.2,0.8,1.9l2.5-1.4l0.2-0.2c2.3-1.4,5.2-1.1,8.6,0.9
	c2.5,1.5,4.7,3.5,6.7,6.2l1,1.4c0.3,0.5,0.6,0.9,0.9,1.4c0.3,0.5,0.6,0.9,0.8,1.4l2.7,9.2c0,0.2,0,0.3,0.1,0.5c0,0.2,0,0.5,0,0.7
	c0,0,0,0.1,0,0.2c0,2.3-0.4,4.1-1.2,5.4l-1.5,1.9c-0.2,0.1-0.4,0.2-0.6,0.3c0,0,0,0.1-0.1,0.1l-8.8,5.1 M48,94.9l0.8,0.2l0.1-0.7
	L48,92.9l-0.8-0.2l-0.2,0.6L48,94.9z M47.2,92.7l-0.5-0.1l-0.4,1.2l0.9,1.6l1.3,0.3l0.2-0.6 M26.3,93.1c0.4-0.1,0.9,0,1.5,0.3
	c0.7,0.4,1.3,1,1.8,1.9c0.4,0.7,0.7,1.4,0.8,1.9l2.8-1.6 M28.8,97.1L28.1,97l-0.9-1.6l0.2-0.7l-0.5-0.2l-0.3,1.2l0.9,1.6l1.2,0.4
	L28.8,97.1l0.2-0.7l-0.9-1.6l-0.8-0.2 M33.1,115l1.7-1 M35.3,114.2c1.8,3.2,2.8,6.3,2.8,9.3c0.1,3-0.8,5-2.7,6.1
	c-1.9,1.1-4.1,0.9-6.7-0.6c-2.6-1.5-4.8-3.9-6.7-7.1c-1.8-3.2-2.7-6.2-2.8-9.2c-0.1-3,0.8-5.1,2.7-6.2c1.8-1,4.1-0.8,6.8,0.7
	C31.2,108.7,33.4,111,35.3,114.2z M33.9,116.8l1.8-1.1 M32.6,115.4v0.2l0.1,0.2v0.1l0.4,0.7l0.4,0.2 M53.8,105.3
	c-0.3-0.5-0.5-0.9-0.8-1.4c-0.3-0.5-0.6-1-0.9-1.5 M27.9,89.7l1-0.5l24-2.5 M27.1,91.6l0.3-0.7l0.7-0.3l22.7-2.4 M21,102.7
	c2.2-0.8,4.7-0.4,7.6,1.3c3.3,1.9,6.2,4.9,8.5,9.1c2.4,4.1,3.6,8.1,3.6,12c0,3.4-0.9,5.8-2.8,7.3 M22.1,110v0.5l0.1,0.2l0.3,0.4
	l0,0.2l0.2,0.1l0.1,0.1l0.3,0.2 M23.9,116.4l2.9-1.7 M26.4,113.3l0.2,0.4l0.1,0.1l0.1,0.1l0.4,0.4 M22.6,109.6l4.7-2.8 M26.5,122.6
	v0.5l0.1,0.2l0.1,0.2l0.1,0.1l0.1,0.1l0,0.1l0.4,0.3 M23.4,116.7v0.6l0.1,0.1l0.1,0.1l0.1,0.2l0.5,0.5 M56.6,127.2
	c-0.4-0.4-0.8-0.8-1.1-1.4c-0.5-0.9-0.8-1.7-0.8-2.4c0-0.8,0.2-1.3,0.7-1.6v-0.1c0.1-0.1,0.2-0.1,0.3-0.1l2-1.1
	c0-0.1,0.1-0.2,0.2-0.2c0.1-0.1,0.1-0.1,0.1-0.1h0.1c0.5-0.3,1.1-0.2,1.8,0.2c0.7,0.4,1.2,1.1,1.8,1.9c0.5,0.8,0.8,1.6,0.8,2.4
	c0,0.2,0,0.4,0,0.6v0.1l-0.2,0.6c0,0-0.1,0.1-0.1,0.1c-0.1,0.1-0.3,0.2-0.4,0.3l-0.1,0l-0.8,0.5 M62.1,126.1
	c-0.1,0.1-0.2,0.1-0.3,0.2l-0.1,0.1 M61.5,126.5c-0.5,0.2-1,0.1-1.6-0.3c-0.1,0-0.1-0.1-0.1-0.1c0,0.1,0,0.1,0,0.2
	c0,0.7-0.2,1.2-0.6,1.5 M59.8,126.1c-0.6-0.4-1.2-1-1.6-1.8c-0.4-0.7-0.7-1.4-0.8-2.1c0-0.1-0.1-0.2-0.2-0.2c-0.5-0.3-1-0.4-1.4-0.2
	l-0.3,0.2 M57.4,122.2c0-0.1,0-0.3,0-0.4c0-0.5,0.1-0.9,0.4-1.2l0.4-0.4 M57.4,125.8l0.8,0.2l0.2-0.7l-0.9-1.6l-0.8-0.1l-0.1,0.6
	L57.4,125.8z M58.2,126l-0.1,0.5l-1.2-0.4l-0.9-1.5l0.4-1.3l0.4,0.1 M59.8,126.1c0-0.7-0.2-1.4-0.8-2.2c-0.4-0.7-1-1.3-1.6-1.6
	 M32.1,115.9l-2.8,1.6h-0.2l-0.1,0.1l-0.2,0.1v0.8l0.2,0.2l0,0.1l0.2,0.2l0.2,0.1l0.1,0.1l0.2,0.1H30l3.2-1.9 M33,121.9v0.3l0.2,0.8
	l0.1,0l0.2,0.2 M31,126.5v0.2l0.2,0.4 M33.4,121.5l3.4-2.1 M31.6,126l5.5-3.3 M32.3,127.8l5-2.9 M34.2,123.3l3.1-1.8 M23.4,111.5
	l5.6-3.3 M27,122.3l5.2-3 M27.7,124.1l5.7-3.3 M27.7,114.3l4.9-2.8 M24.7,118.2l5.7-3.2 M26.9,112.5l4.2-2.5 M30.3,97.2l-2.8,1.7
	 M173.6,77.8c0.5,0.8,1,1.4,1.7,1.7c0.6,0.4,1.2,0.4,1.7,0.2c0.2-0.1,0.3-0.2,0.5-0.3c-1.1-0.1-2-0.8-2.8-2.1 M177.4,79.3
	c0.2-0.3,0.3-0.7,0.4-1.2c0.1-0.8-0.1-1.6-0.5-2.4 M98.2,121.3c2.7-2.1,3.9-5.6,3.8-10.4c-0.2-5.4-2-10.8-5.4-16.4
	c-3-4.9-6.6-8.7-10.8-11.3c-4-2.6-7.7-3.5-10.9-2.7L70.5,83l-40.1,4.4 M84.6,122.6c-0.5-0.2-1-0.5-1.5-0.9
	c-4.5-2.6-8.4-6.7-11.7-12.2c-3.2-5.6-4.8-11-4.8-16.2c-0.1-5.3,1.5-8.9,4.8-10.7c3.2-1.9,7-1.5,11.6,1.2c4.5,2.6,8.4,6.7,11.6,12.2
	c3.2,5.6,4.9,11,4.9,16.2c0,5-1.4,8.5-4.3,10.5 M103.8,63.8L74.9,80.5"/>
<path id="Layer0_6_MEMBER_2_1_STROKES" class="st3" d="M286.3,56.3l-21.5,12.4"/>
<path id="Layer0_6_MEMBER_3_1_STROKES" class="st3" d="M286.1,37.6l2-1.2"/>
<path id="Layer0_6_MEMBER_4_1_STROKES" class="st3" d="M256.8,54.5l8.3-4.8"/>
<path id="Layer0_6_MEMBER_5_1_STROKES" class="st3" d="M265.2,49.7l0.2-0.2l0.1-0.1l0.1-0.1l0.6-0.8l0.2-0.4l0.2-0.7l0-0.2v-0.5
	l0-0.1v-0.2l0-0.1v-0.2l0.1-0.7l0.1-0.2l0.5-0.5l0.1-0.1l0.1-0.1l0.1-0.1l0.1,0l0.8-0.6"/>
<path id="Layer0_6_MEMBER_6_1_STROKES" class="st3" d="M286.1,37.6l-10.2,3.3"/>
<path id="Layer0_6_MEMBER_7_1_STROKES" class="st3" d="M292.2,36.9l-5.8,3.3"/>
<path id="Layer0_6_MEMBER_8_1_STROKES" class="st3" d="M283.1,45l-7.2-4.1"/>
<path id="Layer0_6_MEMBER_9_1_STROKES" class="st3" d="M268.4,44l8.3,4.7"/>
<path id="Layer0_6_MEMBER_10_1_STROKES" class="st3" d="M291.6,35.9l-10.3,5.9"/>
<path id="Layer0_6_MEMBER_11_1_STROKES" class="st3" d="M286.4,40.2l-5.1,1.7"/>
<path id="Layer0_6_MEMBER_12_1_STROKES" class="st3" d="M286.1,37.6l0.8,0.9"/>
<path id="Layer0_6_MEMBER_13_1_STROKES" class="st3" d="M288.1,39.4l1.8,0.5"/>
<path id="Layer0_6_MEMBER_14_1_STROKES" class="st3" d="M291.1,42c0-0.9-0.4-1.6-1.1-2.1"/>
<path id="Layer0_6_MEMBER_15_1_STROKES" class="st3" d="M289.7,44.2c0.4-0.2,0.8-0.5,1-0.9c0.3-0.4,0.4-0.9,0.4-1.3"/>
<path id="Layer0_6_MEMBER_16_1_STROKES" class="st3" d="M277.2,51.9l-3.8,2.2"/>
<path id="Layer0_6_MEMBER_17_1_STROKES" class="st3" d="M269.4,50.6c-0.8-0.7-1.7-1.1-2.8-1.1c-0.7,0-1.3,0.2-2,0.5"/>
<path id="Layer0_6_MEMBER_18_1_STROKES" class="st3" d="M269.4,50.6l0.3,0.4l0.3,0.5l0.2,0.5l0.1,0.5"/>
<path id="Layer0_6_MEMBER_19_1_STROKES" class="st3" d="M270.3,52.6c0,0.6,0.2,1,0.6,1.4c0.4,0.4,0.9,0.6,1.4,0.6
	c0.4,0,0.8-0.1,1.2-0.3"/>
<path id="Layer0_6_MEMBER_20_1_STROKES" class="st3" d="M270.1,32.9l10.9,6.3"/>
<path id="Layer0_6_MEMBER_21_1_STROKES" class="st3" d="M264.9,30.9l-38.5-19.7"/>
<path id="Layer0_6_MEMBER_22_1_STROKES" class="st3" d="M221.8,14.2l-0.3-0.2l-0.2-0.3l0-0.2v-0.1"/>
<path id="Layer0_6_MEMBER_23_1_STROKES" class="st3" d="M287.8,56.9L275.7,51"/>
<path id="Layer0_6_MEMBER_24_1_STROKES" class="st3" d="M300.3,50.3l-11.9-6.8"/>
<path id="Layer0_6_MEMBER_25_1_STROKES" class="st3" d="M303.1,52.9l35.6,22.8"/>
<path id="Layer0_6_MEMBER_26_1_STROKES" class="st3" d="M333.4,77.8l5.2-2.1"/>
<path id="Layer0_6_MEMBER_27_1_STROKES" class="st3" d="M332.1,77.5l0.2,0.1l0.2,0.1l0.5,0.1l0.5,0"/>
<path id="Layer0_6_MEMBER_28_1_STROKES" class="st3" d="M280.6,62.3l-0.1,0.1l-1.2,1.3l-0.4,0.5l-0.1,0.1l-0.4,0.7l-0.1,0.2l0,0.1
	l-0.1,0.2v0.2l0,0.1l0,0.1V66l0.1,0.1l0.5,0.1h0.5l0.8-0.2l0.2-0.1l0.2,0l0.7-0.2l0.9-0.4l0.2-0.1"/>
<path id="Layer0_6_MEMBER_29_1_STROKES" class="st3" d="M290.1,55.4l-6.3,4.1l-2.9,2.5l-0.2,0.2"/>
<path id="Layer0_6_MEMBER_30_1_STROKES" class="st3" d="M283.2,68.1l0.1-0.1l0.2-0.1l0.3-0.1l0.6-0.3"/>
<path id="Layer0_6_MEMBER_31_1_STROKES" class="st3" d="M291.8,57.7l-0.1,0.1l0,0.1l-0.1,0.1l0,0.1v0.3l0,0v0.1l0,0.1l0,0.1l0,0.1
	l0.1,0v0.1l0.1,0.1l0.1,0"/>
<path id="Layer0_6_MEMBER_32_1_STROKES" class="st3" d="M284.5,67.5l8.7-4.6l0.3-0.1"/>
<path id="Layer0_6_MEMBER_33_1_STROKES" class="st3" d="M309.4,52.1l1.1-1l0.8-1l0.1-0.2l0.1-0.2l0-0.1l0.1-0.6v-0.2l-0.1-0.2l0-0.1
	l0-0.1l-0.1-0.1l-0.1-0.1l-0.1-0.1l-0.2-0.2L311,48"/>
<path id="Layer0_6_MEMBER_34_1_STROKES" class="st3" d="M282.3,65.3l0.2-0.1l0.2-0.2l0.1-0.2l0.1-0.3l0-0.3l-0.2-0.7l-0.4-0.6
	l-0.2-0.3l-0.3-0.2l-0.3-0.1l-0.3-0.1l-0.2,0l-0.2,0.1"/>
<path id="Layer0_6_MEMBER_35_1_STROKES" class="st3" d="M281.8,66l0.7,0.4"/>
<path id="Layer0_6_MEMBER_36_1_STROKES" class="st3" d="M282.5,67.5l0.1,0.1h0.1l0.1,0l0.1-0.1l0.1-0.1V67l-0.1-0.2l-0.1-0.2
	l-0.2-0.2l-0.1-0.1"/>
<path id="Layer0_6_MEMBER_37_1_STROKES" class="st3" d="M282.6,68.1l-1.5-0.9"/>
<path id="Layer0_6_MEMBER_38_1_STROKES" class="st3" d="M306.8,48.3L306.8,48.3L306.8,48.3l0.2,0.1l0.1,0.1l0.1,0.1l0.3,0.2l0.3,0.3
	l0.1,0.1l0.1,0.1l0.1,0.1l0.1,0.1l0,0.1l0.2,0.1l0.1,0h0.2l0.1,0h0.2l0.2,0l0.2-0.1l1.3-0.4l0.3-0.2l0.2-0.2l0.1-0.2l0-0.1V48l0-0.1
	l-0.1-0.1h-0.1l-0.1,0h-0.1l-0.1,0l-0.1,0h-0.1l-0.1,0h-0.6l-1.3,0.1l-0.3,0.1l-0.2,0l-0.2,0.1l-0.5,0l-0.2,0L306.8,48.3z
	 M306.8,48.3l-0.2-0.1h-0.1l-0.5-0.2H306l-0.1,0h-0.2"/>
<path id="Layer0_6_MEMBER_39_1_STROKES" class="st3" d="M293.5,62.7l2.6-1.6"/>
<path id="Layer0_6_MEMBER_40_1_STROKES" class="st3" d="M332.2,77.6l-40.1-18.7"/>
<path id="Layer0_6_MEMBER_41_1_STROKES" class="st3" d="M303.1,52.9l-1.5,0.3l-2.4,0.9"/>
<path id="Layer0_6_MEMBER_42_1_STROKES" class="st3" d="M309.4,52.1l-3.2,2.4"/>
<path id="Layer0_6_MEMBER_43_1_STROKES" class="st3" d="M270.1,32.9l-4,1l-1,0.5"/>
<path id="Layer0_6_MEMBER_44_1_STROKES" class="st3" d="M257.4,39.3l9.3,6.3"/>
<path id="Layer0_6_MEMBER_45_1_STROKES" class="st3" d="M257.3,38.5L257.3,38.5l0,0.1l0,0.1v0.2l0,0.1v0l0,0.1l0,0.1l0.1,0.2"/>
<path id="Layer0_6_MEMBER_46_1_STROKES" class="st3" d="M253.5,36.9l-31.7-22.6"/>
<path id="Layer0_6_MEMBER_47_1_STROKES" class="st3" d="M282.3,65.3l0.2-0.1l0.2,0h0.2l0.2,0.1l0.4,0.2"/>
<path id="Layer0_6_MEMBER_48_1_STROKES" class="st3" d="M280.5,66.5l0,0.1l0.1,0.1l0.1,0.2l0.1,0.1l0.1,0.1l0.1,0.1"/>
<path id="Layer0_6_MEMBER_49_1_STROKES" class="st3" d="M246.1,42.4l-1.1,1.2l-0.5,0.7l-0.1,0.1l-0.1,0.1l-0.1,0.1l-0.1,0.1
	l-0.1,0.2l-0.2,0.5l-0.1,0.1l0,0.1v0.2l0,0.1l0,0v0.1l0.1,0.1l0.1,0l0.1,0.1h0.1l0.1,0h0.2l0.2,0h0.2l0.4-0.1h0.2l0.4-0.1l0.2,0
	l0.5-0.2l1.2-0.4l0.1-0.1"/>
<path id="Layer0_6_MEMBER_50_1_STROKES" class="st3" d="M256,35.3l-6.2,4l-0.7,0.5l-2.8,2.5"/>
<path id="Layer0_6_MEMBER_51_1_STROKES" class="st3" d="M248.8,48.2l1.2-0.5"/>
<path id="Layer0_6_MEMBER_52_1_STROKES" class="st3" d="M250.1,47.6l9-4.8"/>
<path id="Layer0_6_MEMBER_53_1_STROKES" class="st3" d="M275,32.2l1.1-1l0.8-1l0.2-0.4l0-0.1v-0.1l0.1-0.4l0-0.1v-0.2l-0.1-0.2
	l0-0.1l0-0.1l-0.1-0.2l-0.1-0.1l-0.1-0.1l-0.1-0.1l-0.1-0.1l-0.2-0.1"/>
<path id="Layer0_6_MEMBER_54_1_STROKES" class="st3" d="M247.8,45.4l0.3-0.3l0.1-0.2l0.1-0.3l0-0.3l-0.1-0.3l-0.3-0.7l-0.2-0.3
	l-0.3-0.3l-0.5-0.4l-0.3-0.1h-0.2l-0.2,0.1"/>
<path id="Layer0_6_MEMBER_55_1_STROKES" class="st3" d="M247.4,46.1l0.7,0.4"/>
<path id="Layer0_6_MEMBER_56_1_STROKES" class="st3" d="M248.2,47.7h0.2l0.1-0.1l0.1-0.1l0-0.1v-0.2l0-0.2l-0.1-0.2l-0.2-0.3
	l-0.2-0.2"/>
<path id="Layer0_6_MEMBER_57_1_STROKES" class="st3" d="M248.1,48.2l-1.6-0.9"/>
<path id="Layer0_6_MEMBER_58_1_STROKES" class="st3" d="M271.9,28.2h0.1l0.1,0l0.1,0l0.1,0.1l0.2,0.1l0.2-0.1l0.7-0.1l0.4-0.1
	l0.3-0.1l0.8-0.1h1.4l0.2,0.1h0.1l0.1,0.1l0.1,0l0,0.1l0,0.1v0.1l0,0.1l-0.1,0.2l-0.1,0.2l-0.1,0.1l-0.1,0.1L276,29l-0.2,0.1
	l-0.9,0.3l-0.9,0.2h-0.2l-0.1,0l-0.1-0.1l-0.1,0l-0.1-0.1l-0.1-0.1l-0.1-0.1l-0.1-0.1l-0.1-0.2l-0.1-0.1l-0.1-0.1l-0.2-0.1l-0.1-0.1
	l-0.1-0.1l-0.1-0.1l-0.1-0.1l-0.1-0.1"/>
<path id="Layer0_6_MEMBER_59_1_STROKES" class="st3" d="M259.1,42.8l1.9-1.1"/>
<path id="Layer0_6_MEMBER_60_1_STROKES" class="st3" d="M275,32.2l-2.4,1.8"/>
<path id="Layer0_6_MEMBER_61_1_STROKES" class="st3" d="M247.8,45.4l0.2-0.1l0.2,0l0.2,0l0.5,0.2"/>
<path id="Layer0_6_MEMBER_62_1_STROKES" class="st3" d="M246,46.5l0.1,0.2l0.1,0.2l0.2,0.3l0.1,0.1l0.1,0.1"/>
<path id="Layer0_6_MEMBER_63_1_STROKES" class="st3" d="M335.7,76.2l-2.2-1.5"/>
<path id="Layer0_6_MEMBER_64_1_STROKES" class="st3" d="M333.5,74.8l1.6-0.3"/>
<path id="Layer0_6_MEMBER_65_1_STROKES" class="st3" d="M335.2,74.5L302,53.2"/>
<path id="Layer0_6_MEMBER_66_1_STROKES" class="st3" d="M298.8,51l-12.4-7.1"/>
<path id="Layer0_6_MEMBER_67_1_STROKES" class="st3" d="M288.4,43.4l-5.3,1.6"/>
<path id="Layer0_6_MEMBER_68_1_STROKES" class="st3" d="M292.8,56.6l-2.7-1.3"/>
<path id="Layer0_6_MEMBER_69_1_STROKES" class="st3" d="M258.6,37.2l-2.7-1.9"/>
<path id="Layer0_6_MEMBER_70_1_STROKES" class="st3" d="M279.1,39.8L268,33.4"/>
<path id="Layer0_6_MEMBER_71_1_STROKES" class="st3" d="M325.9,67.5l-2.5,0.9"/>
<path id="Layer0_6_MEMBER_72_1_STROKES" class="st3" d="M323.4,68.5l-16.7-10.7"/>
<path id="Layer0_6_MEMBER_73_1_STROKES" class="st3" d="M306.8,57.8l1.4-0.6"/>
<path id="Layer0_6_MEMBER_74_1_STROKES" class="st3" d="M314.3,62.6l1.5-0.6"/>
<path id="Layer0_6_MEMBER_75_1_STROKES" class="st3" d="M275.7,51l-0.2-0.6l0.1-0.6l0.4-0.6l0.7-0.5"/>
<path id="Layer0_6_MEMBER_76_1_STROKES" class="st3" d="M299.1,54.1l-3.1-1.8"/>
<path id="Layer0_6_MEMBER_77_1_STROKES" class="st3" d="M291.8,57.7l1-1"/>
<path id="Layer0_6_MEMBER_78_1_STROKES" class="st3" d="M257.4,38.2l0.3-0.4l0.4-0.3l0.4-0.3"/>
<path id="Layer0_6_MEMBER_79_1_STROKES" class="st3" d="M261.8,32.4l3.4,1.9"/>
<path id="Layer0_6_MEMBER_80_1_STROKES" class="st3" d="M263.8,31.4l-37.1-19"/>
<path id="Layer0_6_MEMBER_81_1_STROKES" class="st3" d="M226.8,12.4l-1.7,0.8"/>
<path id="Layer0_6_MEMBER_82_1_STROKES" class="st3" d="M225,13.2l-1.8-0.9"/>
<path id="Layer0_6_MEMBER_83_1_STROKES" class="st3" d="M221.2,13.5l2.3-1.4l2.8-0.9"/>
<path id="Layer0_6_MEMBER_84_1_STROKES" class="st3" d="M237.4,16.9l-2.5,0.8"/>
<path id="Layer0_6_MEMBER_85_1_STROKES" class="st3" d="M234.9,17.7l18.4,9.4"/>
<path id="Layer0_6_MEMBER_86_1_STROKES" class="st3" d="M253.2,27.1l1.2-0.5"/>
<path id="Layer0_6_MEMBER_87_1_STROKES" class="st3" d="M243.6,22.2l1.3-0.4"/>
<path id="Layer0_6_MEMBER_88_1_STROKES" class="st3" d="M256,25.9l0.2,0.1l0.1,0"/>
<path id="Layer0_6_MEMBER_89_1_STROKES" class="st3" d="M310.4,57.3h0.2l0.1,0l0.1,0.1l0.1,0l0.1,0.1v0.1l0,0.1"/>
<path id="Layer0_6_MEMBER_90_1_STROKES" class="st3" d="M323.1,65.6L323.1,65.6l0.2,0l0.1,0h0.2l0.2,0.1l0,0.1l0.1,0l0,0l0,0.1"/>
<path id="Layer0_6_MEMBER_91_1_STROKES" class="st3" d="M290.9,36.3l-0.6-0.2l-1.1,0l-0.9,0.3l-0.1,0.1"/>
<path id="Layer0_6_MEMBER_92_1_STROKES" class="st3" d="M297.7,48.6l0.2-0.7l0.1-1.4l-0.2-1.5l-1-3.1l-1.8-2.8l-1.1-1.2l-1.2-0.9
	l-0.3-0.2"/>
<path id="Layer0_6_MEMBER_93_1_STROKES" class="st3" d="M256.8,54.5c1.1-0.6,2.5-0.5,4.1,0.4c1.6,0.9,2.9,2.4,4.1,4.3
	c1.1,2,1.7,3.9,1.7,5.7c0,1.8-0.6,3.1-1.7,3.7c-1.1,0.6-2.5,0.5-4.1-0.4c-1.6-0.9-3-2.4-4.1-4.3c-1.1-2-1.7-3.9-1.7-5.7
	C255.1,56.4,255.7,55.2,256.8,54.5z"/>
<path id="Layer0_6_MEMBER_94_1_STROKES" class="st3" d="M292.3,36.9l0-0.1v-0.4l0-0.1l-0.1-0.2l-0.1-0.1l0-0.1l0,0v0l0,0l-0.1,0l0,0
	h-0.1"/>
<path id="Layer0_6_MEMBER_95_1_STROKES" class="st3" d="M278.1,54.5L278.1,54.5L278.1,54.5L278.1,54.5z M278.1,54.5L278.1,54.5
	L278.1,54.5l0.1,0v0h0.1l0,0h0.1"/>
<path id="Layer0_6_MEMBER_96_1_STROKES" class="st3" d="M277.9,56.5h-0.2l0,0h0v-0.1h0"/>
<path id="Layer0_6_MEMBER_97_1_STROKES" class="st3" d="M278.1,54.5l-0.2,0.1l-0.1,0.1l-0.2,0.1"/>
<path id="Layer0_6_MEMBER_98_1_STROKES" class="st3" d="M277.9,56.5l0.2-0.1l0.4-0.3"/>
<path id="Layer0_6_MEMBER_99_1_STROKES" class="st3" d="M277.6,56.2l-0.1-0.3l-0.2-0.5"/>
<path id="Layer0_6_MEMBER_100_1_STROKES" class="st3" d="M278.6,55.5l0-0.3l-0.2-0.7"/>
<path id="Layer0_6_MEMBER_101_1_STROKES" class="st3" d="M277.5,54.9L277.5,54.9L277.5,54.9L277.5,54.9l-0.1,0.1v0.2l0,0"/>
<path id="Layer0_6_MEMBER_102_1_STROKES" class="st3" d="M276,55.7h0.2v0h0v0"/>
<path id="Layer0_6_MEMBER_103_1_STROKES" class="st3" d="M275.6,57.7L275.6,57.7l-0.1-0.1l0,0"/>
<path id="Layer0_6_MEMBER_104_1_STROKES" class="st3" d="M275.9,55.7l-0.1,0.1l-0.1,0.1l-0.2,0.1"/>
<path id="Layer0_6_MEMBER_105_1_STROKES" class="st3" d="M275.8,57.7l0.2-0.1l0.4-0.3"/>
<path id="Layer0_6_MEMBER_106_1_STROKES" class="st3" d="M275.4,57.4l-0.1-0.3l-0.2-0.5"/>
<path id="Layer0_6_MEMBER_107_1_STROKES" class="st3" d="M276.5,56.8l-0.1-0.3l-0.2-0.7"/>
<path id="Layer0_6_MEMBER_108_1_STROKES" class="st3" d="M275.3,56.1L275.3,56.1L275.3,56.1L275.3,56.1l-0.1,0.1v0.1l0,0v0.1"/>
<path id="Layer0_6_MEMBER_109_1_STROKES" class="st3" d="M274,56.9L274,56.9L274,56.9h0.1v0"/>
<path id="Layer0_6_MEMBER_110_1_STROKES" class="st3" d="M273.5,58.9L273.5,58.9L273.5,58.9L273.5,58.9l-0.1-0.1l0,0v-0.1"/>
<path id="Layer0_6_MEMBER_111_1_STROKES" class="st3" d="M273.8,57l-0.1,0.1l-0.2,0.1l-0.2,0.1"/>
<path id="Layer0_6_MEMBER_112_1_STROKES" class="st3" d="M273.7,58.9l0.5-0.3"/>
<path id="Layer0_6_MEMBER_113_1_STROKES" class="st3" d="M273.3,58.6l-0.2-0.8"/>
<path id="Layer0_6_MEMBER_114_1_STROKES" class="st3" d="M274.4,58l-0.1-0.3l-0.2-0.7"/>
<path id="Layer0_6_MEMBER_115_1_STROKES" class="st3" d="M273.2,57.4L273.2,57.4L273.2,57.4l-0.1,0.1l0,0v0.1l0,0"/>
<path id="Layer0_6_MEMBER_116_1_STROKES" class="st3" d="M274.4,58.1L274.4,58.1l-0.1,0.3l-0.1,0.1"/>
<path id="Layer0_6_MEMBER_117_1_STROKES" class="st3" d="M271.5,60.1h-0.1v0h0v0h-0.1l-0.1-0.1v0h0V60"/>
<path id="Layer0_6_MEMBER_118_1_STROKES" class="st3" d="M271.7,58.2l-0.2,0.1l-0.1,0.1l-0.1,0.1"/>
<path id="Layer0_6_MEMBER_119_1_STROKES" class="st3" d="M271.5,60.1l0.2-0.1l0.1-0.1l0.3-0.2"/>
<path id="Layer0_6_MEMBER_120_1_STROKES" class="st3" d="M271.2,59.9l-0.2-0.8"/>
<path id="Layer0_6_MEMBER_121_1_STROKES" class="st3" d="M272.3,59.2l-0.1-0.3l-0.2-0.7"/>
<path id="Layer0_6_MEMBER_122_1_STROKES" class="st3" d="M271,58.7L271,58.7L271,58.7"/>
<path id="Layer0_6_MEMBER_123_1_STROKES" class="st3" d="M269.6,59.4L269.6,59.4L269.6,59.4L269.6,59.4z"/>
<path id="Layer0_6_MEMBER_124_1_STROKES" class="st3" d="M269.2,61.3L269.2,61.3L269.2,61.3l-0.1-0.1v-0.1h0"/>
<path id="Layer0_6_MEMBER_125_1_STROKES" class="st3" d="M269.6,59.4l-0.1,0.1l-0.1,0.1l-0.2,0.1"/>
<path id="Layer0_6_MEMBER_126_1_STROKES" class="st3" d="M269.4,61.3l0.2-0.1L270,61"/>
<path id="Layer0_6_MEMBER_127_1_STROKES" class="st3" d="M269.1,61.1l-0.1-0.3l-0.2-0.5"/>
<path id="Layer0_6_MEMBER_128_1_STROKES" class="st3" d="M270.2,60.4l-0.1-0.3l-0.2-0.7"/>
<path id="Layer0_6_MEMBER_129_1_STROKES" class="st3" d="M269,59.8L269,59.8L269,59.8L269,59.8l-0.1,0.1l0,0V60l0,0"/>
<path id="Layer0_6_MEMBER_130_1_STROKES" class="st3" d="M281,54.7L281,54.7L281,54.7L281,54.7z M281,54.7L281,54.7L281,54.7l-0.2,0
	v0l0,0h0v0l0,0v0l0,0v0"/>
<path id="Layer0_6_MEMBER_131_1_STROKES" class="st3" d="M281,54.7l0.3-0.2l0.2-0.2"/>
<path id="Layer0_6_MEMBER_132_1_STROKES" class="st3" d="M280.7,54.4l-0.2-0.8"/>
<path id="Layer0_6_MEMBER_133_1_STROKES" class="st3" d="M296.4,44L296.4,44l0.2,0v0h0v0h0v0"/>
<path id="Layer0_6_MEMBER_134_1_STROKES" class="st3" d="M296.1,45.9h-0.2v0h0v-0.1h0v0l0,0v-0.1l0,0"/>
<path id="Layer0_6_MEMBER_135_1_STROKES" class="st3" d="M296.3,44l-0.2,0.1l-0.3,0.2"/>
<path id="Layer0_6_MEMBER_136_1_STROKES" class="st3" d="M296.1,45.9l0.2-0.1l0.4-0.3"/>
<path id="Layer0_6_MEMBER_137_1_STROKES" class="st3" d="M295.8,45.7l-0.2-0.8"/>
<path id="Layer0_6_MEMBER_138_1_STROKES" class="st3" d="M296.9,45l-0.2-1"/>
<path id="Layer0_6_MEMBER_139_1_STROKES" class="st3" d="M295.7,44.4L295.7,44.4L295.7,44.4l-0.1,0.1l0,0v0.1l0,0"/>
<path id="Layer0_6_MEMBER_140_1_STROKES" class="st3" d="M294.3,45.2L294.3,45.2L294.3,45.2L294.3,45.2h0.1v0h0v0l0,0"/>
<path id="Layer0_6_MEMBER_141_1_STROKES" class="st3" d="M294.2,45.2l-0.2,0.1l-0.1,0.1l-0.2,0.1"/>
<path id="Layer0_6_MEMBER_142_1_STROKES" class="st3" d="M294.8,46.2l-0.3-1"/>
<path id="Layer0_6_MEMBER_143_1_STROKES" class="st3" d="M293.7,45.5L293.7,45.5l-0.1,0.1l0,0.1v0l0,0v0l0,0v0.1l0,0"/>
<path id="Layer0_6_MEMBER_144_1_STROKES" class="st3" d="M305.5,48l-9.6,4.4"/>
<path id="Layer0_6_MEMBER_145_1_STROKES" class="st3" d="M271.2,28.1l-9.4,4.3"/>
<path id="Layer0_6_MEMBER_146_1_STROKES" class="st3" d="M267.7,60.5L267.7,60.5L267.7,60.5L267.7,60.5z M267.7,60.5L267.7,60.5
	L267.7,60.5l0.1,0l0,0h0l0,0h0"/>
<path id="Layer0_6_MEMBER_147_1_STROKES" class="st3" d="M267.4,62.5L267.4,62.5l-0.2,0v0h-0.1v0h0v-0.1h0"/>
<path id="Layer0_6_MEMBER_148_1_STROKES" class="st3" d="M267.6,60.6l-0.2,0.1l-0.3,0.2"/>
<path id="Layer0_6_MEMBER_149_1_STROKES" class="st3" d="M267.4,62.5l0.2-0.1l0.4-0.3"/>
<path id="Layer0_6_MEMBER_150_1_STROKES" class="st3" d="M267.1,62.2l-0.1-0.3l-0.2-0.5"/>
<path id="Layer0_6_MEMBER_151_1_STROKES" class="st3" d="M268.2,61.6l-0.3-1"/>
<path id="Layer0_6_MEMBER_152_1_STROKES" class="st3" d="M267,61L267,61l-0.1,0.1v0h0v0.2"/>
<path id="Layer0_6_MEMBER_153_1_STROKES" class="st3" d="M335.7,76.2l0.2,0.2l0.1,0.1l0.1,0.1l0,0.1"/>
<path class="st4" d="M235.9,18l-3,1.7l3,1.5l3-1.7L235.9,18z"/>
<path id="Layer0_6_MEMBER_154_1_STROKES" class="st3" d="M235.9,17.9l3,1.5l-3,1.7l-3-1.5L235.9,17.9z"/>
<path class="st4" d="M320.6,66.2l-3.1,1.4l2.8,1.8l3.2-1.4L320.6,66.2z"/>
<path id="Layer0_6_MEMBER_155_1_STROKES" class="st3" d="M320.6,66.2l2.8,1.8l-3.2,1.4l-2.8-1.8L320.6,66.2z"/>
<path id="Layer0_7_MEMBER_1_1_STROKES" class="st5" d="M311.2,119.3H202.5V91.6h108.7V119.3z"/>
<path id="Layer0_7_MEMBER_1_1_STROKES_1_" class="st5" d="M311.2,147H202.5v-27.8h108.7V147z"/>
<text transform="matrix(1 0 0 1 209.0635 111.9211)"><tspan x="0" y="0" class="st6 st7">L/H - </tspan><tspan x="34.2" y="0" class="st6 st7">2752-P7</tspan><tspan x="0" y="26" class="st6 st7">R/H - 2752-P12</tspan></text>
<g>
	<ellipse class="st8" cx="233.9" cy="19.5" rx="10.9" ry="10.9"/>
	<ellipse class="st9" cx="233.9" cy="19.5" rx="10.9" ry="10.9"/>
</g>
<g>
	<ellipse class="st8" cx="321.4" cy="66.8" rx="10.9" ry="10.9"/>
	<ellipse class="st9" cx="321.4" cy="66.8" rx="10.9" ry="10.9"/>
</g>
</svg>
