<?xml version="1.0" encoding="utf-8"?>
<!-- Generator: Adobe Illustrator 24.2.1, SVG Export Plug-In . SVG Version: 6.00 Build 0)  -->
<svg version="1.1" id="Ebene_1" xmlns="http://www.w3.org/2000/svg" xmlns:xlink="http://www.w3.org/1999/xlink" x="0px" y="0px"
	 viewBox="0 0 349.1 161" style="enable-background:new 0 0 349.1 161;" xml:space="preserve">
<style type="text/css">
	.st0{fill:#D6D6D6;}
	.st1{fill:none;stroke:#000000;stroke-width:0.5;stroke-miterlimit:5;}
	.st2{fill:#B43B8A;}
	.st3{fill:#00984A;}
	.st4{fill:#FF7F15;}
	.st5{fill:#FF2A0C;}
	.st6{fill:#C15D98;}
	.st7{fill:none;stroke:#000000;stroke-width:0.25;stroke-miterlimit:4.9999;}
	.st8{fill:none;stroke:#000000;stroke-width:0.5;stroke-miterlimit:59.9993;}
	.st9{fill:none;stroke:#000000;stroke-width:0.5;stroke-miterlimit:4.9999;}
	.st10{fill:none;stroke:#000000;stroke-width:0.55;stroke-linecap:square;stroke-linejoin:round;}
	.st11{fill:#ED1C24;}
	.st12{font-family:'ArialMT';}
	.st13{font-size:12px;}
	.st14{opacity:0.2;fill:#0099FF;enable-background:new    ;}
	.st15{fill:none;stroke:#FF0000;stroke-width:2.0002;stroke-miterlimit:10.0005;}
	.st16{fill:#0099FF;}
	.st17{fill:none;stroke:#FFFFFF;stroke-miterlimit:5;}
	.st18{fill:none;stroke:#0099FF;stroke-width:2.0003;stroke-miterlimit:10.0007;}
</style>
<path class="st0" d="M225.8,157.3l-0.6-0.2l1.6,6.1l0.3,0.2l0.9,0l0.5-0.1l0.5-0.2l0.3-0.3l0.2-0.3l-1.7-6.4L225.8,157.3
	 M223.7,148.6l-0.1,0l-1.4,0.9l0.7,2.2l2.6,0.1l2-1.3l-0.3-1.2l-0.5-1.2l-2.5,0.2L223.7,148.6 M158,144c-0.6,0.4-0.9,1.2-0.8,2.2
	c0,0,0.2,1.1,0.7,3.1l-0.4,0.2l0.3-0.1l0.2,0.1l0.2,0.2c-0.5,0-0.8,0.2-0.8,0.6c0,0.2,0.1,0.4,0.2,0.5c0.2,0.2,0.5,0.3,1,0.3
	l-0.2,0.1l-0.2-0.1l0.2,0.6h0.1c0.1,0.4,0.3,0.8,0.7,1.3c-0.1,0.1-0.2,0.3-0.2,0.5c0,0.2,0.5,0.8,1.5,1.7c0.6,0.5,1.1,0.9,1.6,1.2
	l0.1,0.5l2.9,0.9l7.3,0.6l4-2.5l0.6-0.5l0.5-0.5l0.2-0.5l0.1-0.5l-0.4-1.3l-0.4-0.4l-0.5-0.2l-4.8-1.6c-0.2-0.3-0.5-0.6-0.8-0.9
	c-0.2-0.2-0.3-0.3-0.5-0.4c-0.2-0.3-0.4-0.6-0.6-0.9c-0.4-0.6-1-1.1-1.6-1.6l-0.7-0.6l-0.7-0.4l-6.2-2l-0.7-0.1l-0.7,0.1l-0.5,0.2h0
	l-0.6,0.5C158.1,144,158.1,144,158,144 M159.6,146.8c-0.1,0-0.2,0-0.2,0l0.5,0l0.5,0.3l0.5,0.5l0.8,1.1c0,0.1,0,0.3,0.1,0.5
	l-0.1-0.3C161.2,147.8,160.5,147.1,159.6,146.8 M161.5,145.4L161.5,145.4L161.5,145.4L161.5,145.4 M166.8,150.6l0.2-0.1l-1.6,0.9
	L166.8,150.6 M167,149.4L167,149.4h0.6l1,0.7l0.8,1.2l0.3,1.3l-0.1,0.5l-0.2,0.4l-0.1,0c0,0,0.1-0.1,0.1-0.2
	c0.2-0.4,0.2-1.1-0.2-1.9l-0.4-0.7l-1-1l-0.5-0.2C167.3,149.4,167.2,149.4,167,149.4 M167.6,150.7l0.8,0.6L167.6,150.7 M166.6,153.5
	l-0.1,0.2l-0.2,0.1l-0.4-0.1c-0.6-0.2-0.8-0.6-0.7-1v0l0-0.4l0.1-0.1c0,0.1,0,0.2,0,0.3c0,0,0.1,0.2,0.3,0.6
	C165.7,153.3,166.1,153.5,166.6,153.5L166.6,153.5 M171.9,156.4v-0.1h0L171.9,156.4 M159,148.1l0.2-0.1l-1.1,0.7L159,148.1
	 M161.6,150.9l0.3-0.5c0,0,0,0.1,0,0.2L161.6,150.9 M164.8,156.8l-0.6-0.2c0,0,0.1-0.1,0.1-0.1l0,0.1L164.8,156.8 M159.4,121.4
	c0.6,0,1.1-0.2,1.3-0.7c0.1-0.2,0.1-0.6,0.1-1c0-0.6-0.1-1-0.2-1.2c-0.2-0.3-0.8-0.6-1.7-0.9c-0.3-0.9-0.6-1.3-1.1-1.3
	c-0.4,0-0.6,0.3-0.6,0.9l0.4,2C158.2,120.7,158.7,121.4,159.4,121.4 M139.2,119.6l-0.5-1.2l-2.6,0.2l-2,1.3l0.6,1.1h0.2
	c-0.1,0.1-0.1,0.3-0.1,0.5l0.1,0.5c0.1,0.1,0.2,0.2,0.2,0.3h0l-0.8-0.8l-1.8,1.1l0.9,3.5l3.8,1.2c0,0.1,0,0.2,0,0.3
	c0,0.1,0.2,0.6,0.5,1.4c0.3,0.9,0.5,1.5,0.6,1.7c0.1,0.3,0.1,0.9,0.1,1.8c0.2,0.8,0.8,1.2,1.8,1.2c0.6,0,1-0.2,1.1-0.6
	c0.1-0.1,0.1-0.3,0.1-0.7c-0.4-1.9-0.7-3-0.9-3.5c-0.1-0.2-0.2-0.4-0.2-0.5l0.2,0h0l0,0l1-0.6l-0.9-3.5l-2.6-0.9l1.2-2.2
	c0.2-0.3,0.3-0.5,0.3-0.6c0-0.5-0.2-0.8-0.5-0.8L139.2,119.6 M136.2,120.9l0.7-0.1c-0.2,0.1-0.3,0.1-0.4,0.1S136.3,121,136.2,120.9
	 M157.4,108.3l0.1,0.9l0.2,0.2l1.4-0.9l-0.3-1.3l-0.1,0.1c0-0.7-0.6-0.9-1.8-0.6c-1.2,0.4-1.8,0.8-1.8,1.2c0,0,0,0.1,0.1,0.4
	c0.1,0.2,0.2,0.3,0.5,0.3C156.3,108.6,156.8,108.5,157.4,108.3 M71.6,96c-0.1,0-0.1-0.1-0.2-0.1l-0.6-0.5v0.4l1.8,10.4v0.1l-0.5,0.2
	l-0.5,0.5l-3.5,5.6c0.3,1-0.2,1.9-1.4,2.6c-1.5,0.9-2.4,1.6-2.6,2.2l0,0.4l0.4,1.3l0.4,0.4l0.5,0.3l6.2,2.1l1.5,0.2l1.8-0.2l1.8-0.6
	l7.7-4.7l0.6-0.5l0.4-0.5l0.3-0.5l0.1-0.5l-0.4-1.3l-0.9-0.6l-2.7-0.9c0.4-0.2,0.8-0.6,1-1.2c0.4-0.7,0.5-1.2,0.5-1.7
	c-0.3-1-0.5-1.7-0.6-1.9c-0.1-0.3-0.4-0.6-0.9-1c-0.5-0.5-0.9-0.7-1.1-0.7c-0.1,0-0.2,0-0.4,0.1c-0.2,0.1-0.3,0.1-0.4,0.1
	c-1.2,0-2,0.1-2.1,0.2c-0.1,0.1-0.2,0.2-0.2,0.5l-0.5,0l-0.5,0l-0.3,0.4l-0.1,0.2c-0.2-0.1-0.4-0.2-0.6-0.3c-1-0.7-1.8-0.8-2.5-0.5
	L71.6,96 M72.5,108.8l0.3-0.1v0l-0.5,0.3L72.5,108.8 M80.6,111.9c0,0,0.1,0,0.1,0l-0.4,0.2L80.6,111.9 M62,11.9l-1.4,0.9
	c-0.6,0.1-0.8,0.7-0.6,1.7l6.1,2.7c0.1-0.3,0.2-0.7,0.1-1.1l0.7-0.5l-0.6-2.3l-1.9-1.8l-0.7,0.5h0l-0.5-0.4l-0.6-0.1L62,11.9
	 M245.3,144.9l-0.2-0.1H245l-0.2-0.1l1.5,6.1l0.3,0.3l0.5,0l1-0.2l0.5-0.2l0.3-0.3l0.1-0.3l-1.6-6.5L245.3,144.9 M246.8,136.9
	l-0.6-1.2l-2.5,0.1l-2,1.3l0.8,2.4l2.7-0.2l1.9-1.3L246.8,136.9z"/>
<path id="Layer0_5_1_STROKES" class="st1" d="M167.6,150.7l0.8,0.6"/>
<path class="st2" d="M188.4,71.9c-1.3,0.2-2.5-0.3-3.6-1.5l-2.7-3.3l-1.2-2.3l-0.4-3.8l-6.3-6.3l0.3,6.6l-0.3,0.8l-2.3,0.1l-1.2-0.4
	l-1.7-1.4l-7.6-9.5l-0.9-1.7l-0.4-1.3l0.1-1.5l-1.2-0.2l1.8,9.6l-0.2,2.9l-1.8,1.2l0.1,0.7l1.5-0.9c3.3,2.5,5.7,5,7.4,7.5
	c4.1,2.8,7.3,6.1,9.5,9.7c2,3.2,3.4,6.9,4.2,11.1c0.1,0.4,0.2,1.1,0.2,2.1l3.8-0.5l1.6,1l8.2,10.2l0.8,1.2l0.5,1.7l-0.1,1.4
	l-0.4,0.7l-2.6,0.7l-1.7,0.1l3.2,4.1c2.3-3,3-8.3,2.1-15.7l-6.2-7.6l-1.1-1.6l-0.5-1.6l-0.1-4.3l0.4-0.4l2.7,0L188.4,71.9z"/>
<path class="st3" d="M171.9,75.7l-0.3-1.3c-0.8-2.3-2.2-4.7-4.1-7.5c-1.7-2.4-4.1-4.8-7.1-7.2l-6.2,3.9l0.4,3.7l-0.1,0.6l-0.4,0
	l-3.5-1.5l-0.8-1.1l-1.1-4.1l-0.3-0.4l-1.2-0.2l-1.4,0.2l-2.1,1l-1.3,1.4l-0.8,1.9l-0.4,2l0.1,1.2l4.8,9.1l2.3,5.6l2,4l-0.8,0.5v1.5
	c-0.8,1.2-0.7,2.7,0.2,4.4c1,1.8,2.4,2.7,4.1,2.6l1.1-0.7l0.4,0.6h1l0.4-0.3c1.1,0.7,2.3,0.7,3.4,0l1.3-1.3l7.4-4.7l1-1.4l0.1-1.3
	l-0.3-1.6l-0.5-1.4l2.3-7L171.9,75.7z"/>
<path class="st4" d="M155.8,29.7l-2.7-1.2l0.6,0.9c0.7,0.5,1,1.1,0.8,1.9c-0.2,0.7-0.6,1.4-1.4,1.9c-1.4,0.9-3.1,1.4-4.9,1.6
	c-4.2-0.5-5.5-1.8-3.9-3.9l0.8-2.1l-1.9-0.9l-9.2,5.4l-26.3-2.8l-31-8.9l-14.1-5.6l-6.5-3.3L45.2,3.1l-1.8-0.7l-0.9,0.5
	c-0.6,0.2-0.9,0.8-1,1.8l0.1,1C40.7,5.1,40,4.9,39.5,5l-0.8,0.3c-0.9,0.4-1.2,1.3-1,2.6l1.1,2.5L49,22.3c2.2,2.3,5.2,3.8,8.9,4.3
	l54.2,21.6l0.7,0.6l0.4,1.5l-1.1,0.8l-0.1,0.5c-0.5,0.6-0.5,1.5,0.2,2.7c0.7,1.2,1.5,1.8,2.5,1.9l0.9-0.5l0.9-0.2l1.7,1.2
	c0.1,0,0.1,0.1,0.2,0.3c0,0.1,0,0.2,0,0.3c0.5,1.5,1.5,2.6,2.9,3.4l1.4,0.2l14.4,0.4l1.3-0.3l4.4-2.8l8.4,3.7l5.4-0.7l4-2.5l0.2-2.9
	L155.8,29.7z"/>
<path class="st5" d="M154.6,67.4l-0.4-3.7l4.7-3l-0.1-0.7l-2.1,1.3l-5.4,0.7l-2.6-1.1l-0.2,0.3l1.2,4.1l0.9,1.3l3.5,1.5l0.4,0
	L154.6,67.4z"/>
<path class="st5" d="M147.5,34.7c2.3,0.1,4.3-0.6,6.1-1.8c1.2-1.5,1.2-2.6,0.1-3.4l-0.9-1.1l-1.2-0.7c-1.8-0.5-3.5-0.4-5.2,0.4
	l-1,0.5l-0.8,1l-0.6,1.6c-0.7,1-0.7,1.9,0,2.4C144.6,34.1,145.8,34.5,147.5,34.7z"/>
<path class="st0" d="M213.4,101.9l-2.2,3.6L201,112l0.1,0.2l-1.1-1l-0.9-0.4l-0.7,0.1l-1.3,0.8l-1-0.3l-0.9-0.5l-1.1-1.2l-2.4-3.2
	l2.4-0.3l1.5-0.3c0.8-0.3,1.1-1.1,0.9-2.4c-3.2-0.6-6.7-2.2-10.5-4.7l-1.6-2.1c-1.8-2.3-2.8-4.7-2.9-7.2c-0.3-3.4-1.3-6.8-3-10.3
	c-2.6-5-6.1-8.9-10.5-11.8l2.6,4.7l1.1,2.7l0.1,1.2l-2,7l-0.6,1.2c0.6,1.4,0.8,2.9,0.6,4.3l-1,1.4l-7.4,4.7l-0.4,0.6l1.3,1.2
	l3.9,5.1l-0.7,12.6l-1.2-0.4l1.3-2.2l-4.9-4.7l-0.8,1.5l-2.1,1.6l-0.2-0.3l-0.2-1.2l0.3-0.9l6.2-8.8l-1.7-2.1l-1.4-1.3l-0.5,0.6
	c-1,0.8-2.2,0.8-3.4,0.3l-0.6,0.2h-1l-0.2-0.5l-0.9,0.5l-1.8-0.3l0.4,0.9l-13.4,24.6l-1.6,1l-2.6,0.1l-0.8-0.8l-1.8,1.1l0.9,3.5
	l6.9,2.4l5.1-3.2l-0.1-0.6l6.3-8.9l0.8-0.4l12.7,4.3l-1.4,24.7l4.1,1.6l2.4-41.4l0.8,0l1-0.5l4.3-2.7l1.3,0.9l17.1,21.2l-25.1-8.4
	l-0.3,6l32.5,11l16.4,20.2l0.8,2.7l7,2.4l4.9-3.2l-0.8-3.5l-2.6-0.9l0.1,0.7l-2,1.3L223,152l-0.7-2.2l1.4-1l-20.8-27.7l-0.8-1.4
	l-0.4-1.5l0.1-1.2l0.6-0.8l0.1-0.9l22.3,7.4l1.7,1.5l11.9,14.6l-0.8,0.5l1,3.5l7,2.3l5-3.1l-0.9-3.5l-2.5-0.9l0.1,0.7l-1.9,1.3
	l-2.7,0.2l-0.3-1.2l-0.5-1.2l1.6-1l-23.3-30.8l0.7-1.2l0.1-0.7l-0.3-1.4l-1-1.6l-1.3-1.2l-0.8-0.3l-0.8,0l-0.9,0.5l-1-1.3
	L213.4,101.9 M212.6,107.1l1.1,1.3l0.5,1l0.3,1.1l-0.1,0.8l-0.3,0.1l-5.5-1.8l-6.4,4.3l-0.8-1.3l0.8,1.1L212.6,107.1z"/>
<path class="st0" d="M164.7,22.5l-1.1-0.5l-5.6-0.5l-10.2,3.8l-3.2,2l-0.5,1l0.9,0.4l1.7-0.9l1.8-0.5l1.8-0.1l1.1,0.2l1.5,0.9
	l2.8,1.3l1.4,7.5h2l6.4-3.9l2.7-0.5l2,0l-3.3-6.8l0.4-0.3l-0.3-1.9l-1.5-1.6L164.7,22.5z"/>
<path class="st0" d="M178.5,43.8l-0.3,0.3c0,1,0.5,1.5,1.3,1.4l8.2-5.2l2.8,2.2l2.2,2.1l0.5-7.3l-0.1-0.5l0.5-0.3
	c0.1-1-0.2-1.5-1-1.6l-0.4,0.2l-0.4-0.2l-0.6,0.3l-1.1-0.8l-1-0.2l-1.1,0.7l-0.3,0.4l-0.4,1.3l-1.3,0.8l-0.4,1.1L186,39L178.5,43.8z
	"/>
<path class="st6" d="M164.4,34l-5,3.2l-2.1,0l1.7,9c4.1,0.9,8,2.8,11.8,5.7c5.1,3.8,10.5,9.6,16,17.3c5.4,8,8.9,16.8,10.4,26.3
	c0.7,6.3,0,11.3-2.2,15l0.9,0.8l1.2,0.3l1.5-0.7l0.4-0.1l0.7,0.3l1.5,0.9l10.1-6.4c2.4-3.1,3.7-6.7,4.1-10.9c0.2-3.3,0-6.6-0.7-10.1
	c-0.5-2.6-1.3-5.7-2.4-9.2l-1.1,0.1L210,76v0.9l-1.1-0.7l-1.4-3.6l0.8,0.5l0.9,1h1.2l1.1-0.7l-2.3-5.4h-1.4l-1.6,1l-0.5-0.4
	l-1.3-2.1l-0.1-0.8l0.5,0.1l1,0.9l1.6-0.2l0.8-0.6c-3.3-6.3-6.8-11.5-10.4-15.6c-2.9-3.4-6.2-6.7-10-9.9l-8.1,5l-0.5,0.2l-0.8-0.5
	l-0.2-0.8l0.3-0.4l7.4-4.9c-3.1-2.2-6.9-4.1-11.5-5.7c-2.4-0.6-5.2-0.6-8.4,0L164.4,34z"/>
<path class="st2" d="M176.3,101.7l-2.9,1.9l-0.1,0.5l-0.3,0.3l-2.8,1.8l-0.3,3.9c2.4,1.8,5,3.3,7.9,4.5c3.5,1.3,6.9,1.6,10.4,1
	l-10.5-13L176.3,101.7z"/>
<path class="st6" d="M187.8,121.6l4.4-0.8l-4-5.1c-2.4,0.6-4.9,0.5-7.5-0.2c-4-1.1-7.6-2.9-10.7-5.3l-0.1,4.5l2.2,1.5L187.8,121.6z"
	/>
<path class="st6" d="M150.4,87.1l-2.9-5.9l-1.6-4.1l-4.3-8l-0.3-1l-0.1-0.9l0.6-3l-2.8-3.4c0,3.3,0.5,6.7,1.5,10.2
	c1.8,6.9,4.2,12.9,7.2,17.7c-0.2,1.3,0,2.6,0.8,3.8l0.7-0.2c-0.2-1.1-0.2-2,0-2.6l0.5-0.7l-0.1-1.4L150.4,87.1z"/>
<path class="st6" d="M166,106.6l-3.9-4.8l-0.7,0.6c0.8,0.8,1,1.5,0.7,2.1l-0.8-0.6l-1.2,0.7l-0.5,0.8l6.1,6L166,106.6z"/>
<path id="Layer0_5_MEMBER_0_MEMBER_1_MEMBER_3_1_STROKES" class="st7" d="M76.5,22.5l35.2-15"/>
<path id="Layer0_5_MEMBER_0_MEMBER_1_MEMBER_4_1_STROKES" class="st8" d="M160.9,26l0.9-0.5 M157.2,37.2c5.5-0.3,11.6,2,18.2,6.7
	c6.9,4.9,13.1,11.7,18.8,20.2c4.5,6.8,8,14.1,10.2,21.8c2.8,9.5,3,17.3,0.6,23.6l12.2-7.7 M168.6,45.2c5.5,3.5,10.7,8.3,15.5,14.1
	c4.4,5.3,8.2,11.3,11.4,17.7c2.9,6.3,4.9,12.3,6,18.2c0.3,2.3,0.5,4,0.6,5.1c0.1,1.9,0.1,3.6-0.1,5.1l-0.2,2l-1,4.1l-0.1,0.1
	l0.3,0.3l2.6-1.6c0.4-0.8,0.8-2.3,1.3-4.7c0.4-2.8,0.4-6.1,0.1-9.8c-0.8-6.2-2.8-12.7-5.9-19.6c-3.2-6.8-7-12.9-11.5-18.4
	c-4.8-5.9-10.1-10.8-15.9-14.6 M214.1,100.3l0.2,0.1h0.5l0.5-0.1l0.3-0.3l0.4-0.3l0.6-0.4l0.5-0.1l0.5,0.1l0.6,0.3l0.6,0.5
	c0.4,0.3,0.9,0.9,1.3,1.7c0.4,0.8,0.6,1.4,0.6,2l-0.1,0.6l-0.6,1l0,0.2l23,30.6l0.3,0.3 M218.3,102.5l0.1,0.2 M216.1,99.6l0.5-0.1
	c0.7,0.1,1.3,0.4,2,1.1c0.5,0.6,1,1.2,1.3,2c0.2,0.9,0.3,1.4,0.3,1.7c0,0.5-0.2,1-0.7,1.5l-0.1,0.6v0.7l0.5,1.7l1,1.7l20.3,27
	l0.5,0.7l0.4,0.3l-0.3-0.9l2-1.3l2.5-0.1l0.6,1.2l0.1,0.5l2.6,0.9l0.9,3.5l-3,1.9l1.7,6.5l-0.1,0.3l-0.5,0.6l-0.3,0.1l-0.3,0.1h-0.5
	l-0.5-0.2l-0.3-0.2l-0.1-0.2l-1.5-6l-6.4-2.1l-1-3.5l0.8-0.5l-11.9-14.6l-0.5-0.6l-0.6-0.5l-0.5-0.4l-0.5-0.2l-21.8-7.3l0,0.1
	l-0.1,0.6c0,0.1-0.2,0.5-0.6,1c-0.1,0.2-0.2,0.7-0.2,1.4l0.4,1.6l1,1.7l20.4,27.2l0.2,0.1l0.5-0.3l2.5-0.1l0.5,1.2l0.1,0.5l2.6,0.9
	l0.8,3.5l-3,2l1.7,6.5l-0.2,0.3l-0.3,0.4l-0.2,0.2l-0.3,0.1L228,164l-0.3-0.1l-0.4-0.2l-0.3-0.2l-1.6-6.1l-6.4-2.2l-0.7-2.7
	l-16.4-20.2l-32.5-11l-1.4,24.8l0.6,0.5c0.6,0.5,1.1,1,1.6,1.6l1.6,1.5l0.2,0.8l4.9,1.7l0.5,0.3l0.4,0.3l0.1,0.4l0.3,1l-0.1,0.5
	l-0.3,0.5l-0.5,0.5l-0.6,0.5l-4,2.5l-7.3-0.5l-2.9-0.9l-3.3-3.1l-0.5-2.1l-0.2-0.5l-0.3-0.1l-0.2-0.1l-0.2-0.2l-0.1-0.3l-0.1-0.2
	l-0.1-0.2l0.2-0.7l0.3-0.2c-0.4-2-0.6-3-0.6-3c-0.1-1,0.2-1.7,0.8-2.2c0.1,0,0.1-0.1,0.2-0.1l0.6-0.4h0.1l0.5-0.2l0.7-0.1l0.7,0.1
	l3,1l1.4-24.7l-4.7-1.6l0.6,2.4L161,121l-0.3,0.5c-0.3,0.2-0.6,0.3-0.7,0.3c-0.3,0.1-0.5,0.1-0.7,0l-0.5-0.2l-0.3-0.1l-1.1-4.2
	l-4.9-1.6l-0.5,0.1l-0.1,0l-6.5,9.3l0.1,0.6l-0.9,0.6l-3,1.9l-1,0.6l-0.1,0l0.3,0.8l0.8,3.6l-0.1,0.3l-0.5,0.6l-0.3,0.1l-0.7,0.1
	l-0.3-0.1l-0.5-0.2l-0.3-0.2l-0.1-0.2l-1.5-5.9l-3.8-1.3l-0.9-3.5l2.1-1.3l-0.1-0.2l-0.3-1.2l2-1.3l2.6-0.2l0.5,1.2l0.2,1l0.2-0.3
	l-0.2-0.1l0.2,0l13.2-24.3 M201,112l0.3,0.3l0.5,0.8l0.3,0.7l0.8-0.5l15.5-9.9l0.1-0.1v-0.3 M220.1,105.5l-0.1,0.4
	c-0.1,0.6,0.1,1.3,0.4,2.2c0.3,0.7,0.6,1.4,1,1.9 M163.1,97.6l-0.4,0.3l-8.1,11.6l-0.1,0.4l-0.1,0.5l0.1,0.6l0.6,1.3l0.4,0.6
	l0.9,0.8l0.5,0.3l8.4,2.8l0.2-2.9l-4-1.4l-1.4-0.5l-0.8-0.3l-0.5-0.4l-0.5-0.5l-0.3-0.5l-0.1-0.2l-0.2-0.4l-0.1-0.2l0,0l0,0
	l-0.3-1.2l0-0.1l0-0.3l0.2-0.4l0.8-1.1l3.2-4.5l2.4-3.4 M158.4,106.6l0.5,1l0.1,0.5l0,0l0.9,0.3l0.8-1.5c-0.4-0.4-0.8-0.9-1.2-1.3
	l0.6-0.8l1.1-0.7l0.2,0.2l0.5,0.3h0.2l0.1-0.3l-0.1-0.6v-0.1l-0.2-0.7l-0.3-0.7V102 M160.2,104.6l0.2,0.2l0.6,0.3l0.5,0.1l0.4-0.2
	l0.3-0.3l0.1-0.2 M218.2,152.5l-0.2-0.9l1-0.6l2.6,0.9l-41-54.5l-1.2-2.4l-0.5-1.3l-0.4-2.3c0.2,1.9-0.2,3.7-1.1,5.5
	c-1.3,2.1-2.3,3.8-3,5.1l0.3-0.4l0.5-0.2h0.5l0.6,0.2 M176.3,101.7l0.7,0.4l0.7,0.5l14.7,18l1.8,2.3l0.4,0.6l0.2,0.4l0.2,0.3
	l0.3,1.2l-0.1,0.5l-0.1,0.4l-0.3,0.2l-0.4,0.1l-0.4-0.1l-24.5-8.3l0,0.7l8.9,3l0.8,0.3l0.3,0.1l19.1,6.5l0.6,0.4l0.5,0.5l2.2,2.6
	 M176.3,101.7l-4.5,2.9 M196.4,115.1v0.3l0.2,0.5l0.3,0.3l0.3,0.3l0.3,0.1l0.3-0.1l0.1-0.3l-0.1-0.4l-0.2-0.4l-0.3-0.4l-0.3-0.3
	l-0.3-0.1l-0.3,0.1L196.4,115.1z M196.5,115.2v0.3l0.2,0.4l0.3,0.3l0.3,0.2h0.3l0.1-0.2v-0.3l-0.2-0.4l-0.3-0.3l-0.3-0.2h-0.3
	L196.5,115.2z M192.3,120.7l-0.1,0l-1.6,0.5l-2.9,0.3l7.1,2.4 M179.1,122.3l0.1,0.2l0.3,0.3l0.1,0.1l0-0.3l-0.2-0.2 M179.6,122.8
	L179.6,122.8l0,0.4l-0.2,0.1h-0.3l-0.3-0.2l-0.3-0.3l-0.2-0.3l0-0.5 M187.7,121.5l-15.7-5.3l-2.4-0.8l-0.2,2.9 M166.6,96l-0.9,15.5
	l-0.2,2.6 M157.9,110l0.6-0.3l0.5-0.4l0.3-0.4l0.1-0.3l-0.1-0.3L159,108l0,0l0.2,0.8l-0.7,0.5l-0.3,0.3l-0.4,0.2 M158.1,110.4l0.3,0
	l0.4-0.2l0.3-0.4l0.4-0.7l-0.1-0.5 M159.5,109.1l0.4-0.8 M161.6,112.7l-0.3-1.1l-1.1,0.7 M161,121l-0.3,0.3l-0.5,0.3l-0.5,0.1h-0.5
	l-0.4-0.1 M169.3,121.4l0.1-2.4 M172,116.2l-2.1-1.4l-0.2-0.2l0,0.8 M165.4,116.9l0,0.7l-0.1,2.3 M165.7,111.5
	c-1.5-1.2-3.1-2.8-4.9-4.7 M158.5,109.2L158.5,109.2l-0.8,0.5 M151.9,115.8l-0.3,0.1l-0.3,0.3l1.8-2.7l-0.4-0.1h-0.4l-0.4,0.2
	l-0.3,0.3l-10,14.3l-0.9-3.5l-1,0.6l0.9,3.6 M151.9,115.8L151.9,115.8L151.9,115.8 M165.3,117.6l-12.2-4.1 M161.2,111.6l-3.1-1
	 M157.4,108.4l1.5-0.9 M157.4,117.3l3.1,1 M158.6,152L158.6,152c0.2,0.6,0.7,1.4,1.6,2.3c0.3,0.3,1,1,2,1.9l0.2,0.1h0.3l0.2-0.2
	l0.1-0.3v-0.4l-1.4-9.6l0.3-0.3l0.2-0.3l-0.1-0.2l-0.3-0.2l-1.9-0.6l-0.7-0.1h-0.7c-0.1,0-0.2,0.1-0.3,0.2 M162.4,146l1.4,9.6
	l0.1,0.5l0.3,0.5l0.3,0.3l0.3,0.2l0.2,0.1l5.1,0.3l1.1-0.1l0.7-0.3l0.1-0.1l0.1-0.2l0-0.1c-0.3-2.1-0.8-3.8-1.3-5.2
	c-0.7-1.9-1.7-3.3-3-4.3c-1-0.6-1.9-1-2.5-1.3C164,145.5,163.1,145.5,162.4,146z M162.4,146l-0.7-0.2 M158,149.6L158,149.6l0-0.4
	l0.8-0.5c-0.1-0.7-0.1-1.2,0.2-1.4c0.1,0,0.1-0.1,0.2-0.1c0.2-0.1,0.4,0,0.6,0c0.8,0.3,1.5,0.9,1.9,2l0.3,0.7l0.1,0.6l-0.1,0.5
	l-0.3,0.3l0.1-0.1l0.3-0.3l0.1-0.5l-0.1-0.7l-0.3-0.7l-0.9-1.2l-0.5-0.5l-0.5-0.3l-0.5-0.1 M158,149.2l0.7-0.4l0.7-0.4l-0.2,0.1
	l-0.3,0.2 M159.4,148.3l0.2-0.1l0.3-0.2L159.4,148.3z M158.7,148.8l1.1,1l1.1-0.8l-0.4-0.3l-0.7-0.8 M159.8,149.8l0.4,1.3l0.2-0.1
	l0.9-0.6l-0.2-0.4l-0.1-0.4l-0.1-0.5 M157.7,149.8l0.3-0.1l0.3,0.1l0.3,0.3l0.3,0.4l0.1,0.4l0.1,0.4l-0.1,0.2l-0.2,0.1l-0.2-0.1
	 M161.8,151.2l-0.3,0.2l-0.5-0.1l-0.5-0.3l-0.1-0.1 M159.2,151.3l0.3,0.2l0.8-0.4 M163.8,144.7l3.2,1.1l0.8,0.3l0.1,0.1
	 M169.5,153.8c0.1,0,0.1-0.1,0.2-0.2 M169.5,153.8L169.5,153.8l0.3-0.4l0.1-0.5l-0.3-1.3l-0.4-0.7l-0.5-0.5l-0.5-0.5l-0.5-0.3
	l-0.5-0.1l-0.1,0.1c0.1,0,0.3,0,0.5,0.1l0.5,0.3l0.5,0.5l0.5,0.5l0.4,0.7c0.4,0.9,0.4,1.5,0.2,1.9 M167.1,149.7
	c-0.3,0-0.5,0.1-0.6,0.4c-0.1,0.3-0.1,0.7,0,1.1l0.5-0.3l0.2-0.1l0.3-0.2l0.3,0.4l0.8,0.6l0.1,0.9l0.2,0.4l-0.9,0.6
	c0.7,0.4,1.2,0.5,1.5,0.3 M166.8,153.9l0.2,0.2l0.7-0.4l-0.3-1.3l-1.1-1l-0.7,0.4l0.1,0.3l0.3-0.2 M165.3,153
	c0.1-0.4,0.4-0.3,0.8,0.5v0.3l0.3,0.3l0.2-0.1l0.1-0.3l-0.1-0.3l-0.1-0.4l-0.3-0.4l-0.3-0.3l-0.3-0.1l-0.2,0.1l-0.1,0.2L165.3,153
	C165.3,153,165.3,153,165.3,153z M165.8,152.1l-0.4,0.3 M166.4,151.4l0.8-0.5 M165.7,151.8l0.9-0.6 M168.6,151.6l-1.2,0.8
	 M170,148.3c0.4,0.5,0.8,1.1,1.1,1.8l0.5-0.3 M158.2,151.4l0.1-0.1l0.1-0.2V151c-0.2-0.5-0.4-0.7-0.8-0.7l-0.1,0.2 M158.5,149.3
	l-0.4,0.2 M167.8,153.7l0.2-0.1 M166.1,153.8l-0.1,0.1l-0.1,0.1l0.5,0.1 M164.9,157.1l-2.5-0.8 M162.2,156.3l0.2,0.9 M165.1,157.2
	l0.3,0.9 M165.3,153c-0.1,0.4,0.1,0.7,0.6,0.9 M171.1,150c0.1,0.3,0.3,0.6,0.4,0.8c0.1,0.3,0.2,0.7,0.4,1.1l0.3-0.2l-0.3-1.3
	 M171.8,152c0.3,1,0.7,2.4,1.1,4.1l0.1,0.4l0.3,0.2l0.3,0.1l0.4-0.1l2.3-1.4l0.7-0.6l0.4-0.5l0.3-0.5l0.1-0.5 M172.1,156.7l0.1-0.1
	H172 M172.7,158.7l-0.6-2 M205,109.4l-1.5,0.9 M200.7,111.7L200.7,111.7l-0.7-0.5l-0.6-0.3l-0.5-0.1l-0.5,0.1l-0.7,0.5
	c0.3-0.2,0.5-0.2,0.7-0.2c0.5,0.1,1.2,0.6,2.1,1.6c0.8,1.1,1.3,2.1,1.3,2.8c0,0.4-0.1,0.9-0.4,1.5c-0.6,1.3-0.3,2.9,1.1,5l-4.3-5.7
	l-0.5,0.3 M197.8,111.3c-0.1,0.1-0.3,0.2-0.5,0.3c-1,0.7-2.3,0.1-3.9-1.7l3.5,4.6l2-1.3 M202.1,113.8l0.1,0.4l0.7-0.9 M202.5,115.2
	l-0.1-0.6l-0.2-0.5 M200,114.7v0.2l0,0.1l-0.2,0.3l-0.1,0.1l-0.1,0l-0.1,0.1l-1.3,0.9 M245.2,139.8l-2.5,0.1 M245.2,139.8l-0.3-1.3
	l-2.5,0.1l0.3,1.2l-0.4-1l-2.6-0.9l-1.3,0.8 M242.1,139.7v0.3c0.1,0.4,0.4,0.7,1,0.8c0.3,0,0.8,0.1,1.4,0l2.2-0.8l0.5-0.4l0.3-0.4
	l0.1-0.4l-0.1-0.6 M247,137.7l0.2,0.8l-2,1.3 M242,138.3l0.1,0.3l0.1,0.2 M244.9,145l0.6,0.2l-0.9-3.5l-7-2.3 M245.5,145.2l2-1.2
	 M249,150.8l-0.3,0.3l-0.5,0.2l-1,0.2l-0.5-0.1 M223.6,148.8l0.1,0.1l0.1,0 M223.1,152.2l-0.3-1.3 M223.1,152.2l2.5-0.1l-0.3-1.2
	l-2.5,0.1l-0.5-1.1l0.3,1.3l0.1,0.3L223.1,152.2z M223.8,152.2l0.3,0.1l1.3-0.2 M227.8,150.6l0.1,0.6c0,0.8-0.9,1.4-2.5,1.8
	c-1.6,0.4-2.6,0.1-2.8-0.7l-0.1-0.2 M225.6,152.1l2-1.3l-0.2-0.7 M227,151.2L227,151.2l-0.5,0.4L226,152 M223.7,148.9l-1.5,0.9
	 M227.3,149.6l-2,1.3 M226,157.7l1.9-1.3 M226,157.7l-0.6-0.2 M230.1,151l-5,3.1l0.9,3.6 M229.4,163.1l-0.3,0.3l-0.5,0.3l-0.5,0.2
	h-0.5l-0.4-0.1 M222.7,151.4l-1,0.6 M246.9,137.2l-2,1.3 M242.3,138.6l-0.5-1.2 M225,154.1l-7-2.4 M196.9,114.5l-0.5,0.3
	 M169.7,114.6l0.7-11.8 M249.6,138.5l-5,3.1 M45,6.7L45,7v0.3l-0.2,0.2h-0.3l-0.3-0.2L43.9,7l-0.2-0.4l-0.1-0.4V5.9l0.2-0.2h0.3
	l0.3,0.2l0.1,0.1l0.2,0.3L45,6.6L45,6.7z M45,6.7l-0.5-0.7V5.9 M136.2,32.2l-1.2,0.7l-0.6,0.3h-0.2l-0.8,0.2h-1.9l-16.2-1.8
	c-10.9-1.1-22.4-3.9-34.5-8.4l-14.8-5.8l-1.5-0.6l-1.3-0.5l-2.5-1l-0.7-0.4l0,0v0l-2.5-1.3l-3.3-2.3l-8.4-7.9l-1.3-0.9l-0.7-0.2
	l-0.5-0.1l-0.5,0.2l-0.7,0.5c0.2-0.1,0.5-0.2,0.9-0.1l0.7,0.3l0.6,0.3l7.4,7.1l0.2,0.2l0.3,0.3l0.1,0.3l-0.1,0.3L51.9,12l-1.5,0.9
	L50.1,13l-0.5,0.1L49.2,13l-0.3-0.2l-0.2-0.2l-7-6.6l-0.4-0.4l-0.7-0.4l-0.6-0.2h-0.6L39,5.1l-0.8,0.5l0.5-0.2
	c0.9-0.1,2.9,1.4,5.9,4.4c3.5,3.5,5.9,5.6,7.2,6.2l1.3,0.5l7.9,1.9l17,6.6c9.6,3.6,19.5,6.2,29.7,7.8l23.6,2.7l1.2,0.5l0.6,0.6
	l0.5,0.7l0.9,1.5l4.1,20.4l-0.1,1.3l-0.2,0.4l-0.3,0.3l-0.5,0.1l-15.8-0.4l-0.5-0.1l-0.7-0.3L120,60l-0.5-0.7
	c-0.5-0.6-1.2-1.9-1.9-3.8c-0.7-1.9-1.5-3.3-2.3-4.2l-0.7-1l-1.7-1.5l-1.8-1L57.9,26.6l-0.3-0.1c-1.9-0.3-3.4-0.7-4.5-1.3
	c-0.8-0.4-2.1-1.3-3.9-2.8l-9.9-11.4l-1.1-1.5l-0.6-1.7l-0.1-0.8l0.1-0.7l0.2-0.5l0.3-0.3 M66.2,17.5c0.1-0.3,0.2-0.7,0.1-1
	c0-0.3-0.1-0.7-0.2-1.1c-0.1-0.4-0.3-0.8-0.5-1.2c-0.2-0.2-0.3-0.5-0.5-0.7l-0.6-0.7l-0.6-0.5l0,0l-0.6-0.3L62.6,12l-0.5,0.1
	l-0.2,0.1l-1.2,0.8c0.3-0.1,0.6-0.1,1,0l0.6,0.3l0.6,0.5l0.6,0.6l0.6,0.7l0.4,0.8l0.3,0.9 M65.5,14.2l0.9-0.5L64.5,12l-0.8,0.5
	 M64.5,12l-0.8,0.5 M66.3,16.5L67,16l-0.6-2.3 M63.4,16.4c-0.1-0.5-0.4-1-1.1-1.6c-0.6-0.5-1.1-0.6-1.4-0.3
	c-0.1,0.1-0.1,0.1-0.2,0.2c0,0,0,0,0,0.1 M60.8,14.5l0.2-0.1 M60.1,15.1L60.1,15.1c-0.2-1.1,0-1.8,0.5-2 M57.6,19.8l-0.3-0.7
	c-0.4-0.6-0.9-1-1.5-1.2c-0.2-0.1-0.4-0.1-0.6-0.1c-0.1,0-0.2,0.1-0.2,0.1c-0.2,0.2-0.2,0.4-0.3,0.9c0.2-0.1,0.5-0.2,0.8-0.4
	l0.2-0.1l0.7,0.8l0.7,0.4l0.1,0.9l0.1,0.5l0.2,0.3l-0.9,0.6l0.1,0.2h0.5l0.3-0.1l0.1-0.2l0.1-0.2l0.1-0.5L57.6,19.8z M60.7,14.7
	l-0.5,0.4 M54.4,21.1c0.2,0.5,0.4,0.7,0.4,0.7 M54.3,20.8c0,0.1,0.1,0.2,0.1,0.2 M52.9,20.8c0.2-0.7,0.6-0.7,1.4,0.1 M52.9,21.3
	v-0.5 M52.9,21.3l0.1-0.2l0.2-0.1h0.2l0.3,0.1l0.4,0.5l0.2,0.3v0.3L54,22.4l-0.2,0.1l-0.2-0.1l0.8,0.3c0.3-0.2,0.4-0.5,0.3-0.9
	 M53.7,22.4l-0.3-0.1L53,21.8l-0.2-0.3v-0.3 M55.5,18.5l-1,0.6l-0.1,0.1l-1.4,0.9 M55.7,19.8c0.1-0.2,0.1-0.4-0.1-0.5
	c-0.1-0.1-0.3-0.1-0.6-0.1 M55.8,20.8L55.7,21 M55.9,20.8L55.9,20.8 M56.2,20.7l-0.3,0.1 M56.2,20.7L56.2,20.7l0.2,0.1h0.1l0.1,0.1
	l0.1,0.2l0.1,0.2 M56.4,20.7l-0.2-0.1 M57,19.6l-2.6,1.5 M54.7,22.7l1.6-0.8l0.3-0.2 M41.7,5.9c-0.2-0.7-0.3-1.4-0.1-2
	c0.1-0.4,0.3-0.7,0.6-0.8 M39.7,8.7l0.1-0.3l0.1-0.2h0.3l0.3,0.2l0.3,0.3l0.2,0.4l0,0.1l0.1,0.3l-0.1,0.3L40.9,10h-0.3l-0.3-0.2
	l-0.3-0.3l-0.2-0.4L39.7,8.7z M40.6,8.5L40.9,9l0.3,0.3 M134.7,121.6l0.4,1l-0.3-1.3l-0.5-1.1 M139.6,120.9l-0.3,0.6l-0.9,1.6
	l-0.4,0.7l2.6,0.9 M139.4,119.9l-2,1.3l0.3,1.3l1.6-1 M137.4,121.2l-2.6,0.1 M139.8,120.5L139.8,120.5 M145.4,125.1L145.4,125.1
	l-0.8,1.2 M135.2,122.6l2.6-0.1 M138.4,123l-0.6,0.3l-1.5,0.2l-0.7-0.1l-0.5-0.2l-0.3-0.3l-0.2-0.9 M141.5,133.5l-0.3,0.3l-0.4,0.2
	l-1,0.2l-0.5-0.1 M140.5,128.8l-3.1-1 M132.6,122.9l7,2.3 M176.3,101.7L176.3,101.7 M159,108L159,108"/>
<path id="Layer0_5_MEMBER_0_MEMBER_1_MEMBER_5_1_STROKES" class="st9" d="M161.3,27.8l0.2,0.1 M160.6,26.8v-0.3 M148.2,27.4l1.4-0.2
	l1.3,0.1l0.5,0.2 M145,29l0.5-0.4l1.2-0.7l0.7-0.2 M154.5,30.7l-0.1-0.3 M149.5,30l0.2-0.1 M167.4,32l-2.3,1.4
	c5.2-1.8,11.4-0.4,18.8,4.2l1.5,1.1l0.4-1.2l1.4-0.9l0.4-1.3l0.3-0.4l0.1-0.1l0.3-0.2h0l0.7-0.4h0.4l0.6,0.1l1.2,0.9l0.5-0.3
	l0.3,0.3l0.3-0.2l0.2-0.1l0.3,0.1l0.3,0.1l0.2,0.2l0.3,0.5V36v0.4l-0.1,0.2l-0.5,0.3l0.1,0.5l-0.5,0.3c0.2,0.7,0.3,1.5,0.3,2.4
	c0,0.9-0.1,2.4-0.3,4.6c1.7,1.7,3.5,3.5,5.2,5.6c3.2,3.8,5.9,7.7,8.2,11.7l2.2,4l-1.1,0.7l-1.3,0.1v-0.1l-0.5-0.5l-1-0.6v0.1
	l0.1,0.5v0.2c0.3,0.6,0.6,1.2,1,1.8l0.3,0.3l0.5,0.4l0.5,0.2l0-0.1v-0.4l1.1-0.7h1.4l2,4.5l0.3,0.9l-1.1,0.7h-1.2l-0.1-0.2l-1.1-1
	l-0.6-0.3c0.5,1.2,1,2.4,1.4,3.6l0.5,0.3l0.7,0.3l0.1-0.2L210,76l1.2-0.7l1.1-0.1l1.3,4c0.8,2.6,1.3,5.3,1.6,8.1
	c0.4,3.1,0.4,5.8,0.1,8.2l-0.3,2.1l-0.2,0.8l1.1,1.5l-0.3,0.1l-0.6-0.1l-0.5-0.2l-1.4,3.2l-0.9,1.5l-1.2,1.2
	c-0.2,0.2-0.3,0.4-0.5,0.6 M165.1,33.5l-0.6,0.4h0l1.1-0.3l0.7-0.1l1-0.1l0.8-0.1c1-0.2,2.6-0.1,4.7,0.3c3.2,0.7,6.7,2.2,10.4,4.5
	l2.1,1.4l0.5-0.3l-0.5-0.3 M164.5,33.9l-5.3,3.3 M162,29.3l-5.7,3.5 M163,31l-6.3,3.9 M166.2,30.5l-9.3,5.8 M182.3,41.4l3.1-1.9
	 M182.3,41.4l-4,2.5l-0.1,0.2v0.3l0.2,0.4l0.3,0.4l0.3,0.3l0.3,0.1l0.3-0.1l2.6-1.7l1.9-1.2l3-1.9l0.6-0.4l0.5-0.3l0.5-0.3l0.7-0.4
	l0.4-0.2l0.1-0.3v-0.3l-0.1-0.4l-0.3-0.3l-0.3-0.3l-0.3-0.1l-0.2,0.1l-0.9,0.6l-0.7,0.4l-1.1,0.7 M180.3,39.9l2,1.4 M192.6,37.6
	c-0.1-0.4-0.3-0.8-0.5-1.2c-0.1-0.1-0.2-0.3-0.3-0.4l-0.5-0.7l-0.1-0.1l0,0 M193.6,36l-0.2-0.3l-0.5-0.7 M193,36.9l-0.2-1l-0.7,0.5
	 M192.8,35.9l-0.8-0.7 M191.7,34.9l-0.5,0.3 M188,34.9l0.3-0.2h0.5l0.6,0.1l0.6,0.4l0.6,0.5c1.4,1.6,1.9,3.3,1.6,4.8l-1.4,0.8V42
	l1.3-0.8L192,44c0.2,0.2,0.4,0.4,0.6,0.6 M187.7,36.3l1.5,0.2l0.8-0.6l-1.5-0.2L187.7,36.3z M187.7,36.3l-0.1,0.8l0,0.9 M188.1,40
	l0.5,0.3l2.3,1.7 M187,38.4l-1.2-0.9 M191.1,39.7l-0.6,0.4 M191.1,39.7l0.1-0.1l0.1-1.7l-0.8,0.5l-0.1,1.8l-1.2-0.9 M192.2,40.6
	l-1.1-0.8 M192,44c-1.5-1.4-2.9-2.6-4.4-3.7 M188.6,39.7l2.2,1.7 M191.3,37.9l-1.3-2 M189.2,36.5l1.3,1.9 M187.7,37.1l-0.5-0.4
	 M184,42.6c6,4.6,11.4,10.6,16.3,18.1l0.2-0.3v-0.6l-0.2-1.5l0.1-0.3l0.1-0.1l0.4,0.5l2.6,4h0.1l0.9,0.1l0.9-0.2
	c-5.3-8.9-11.5-16.1-18.5-21.6 M203.5,62.4l0.1,0.1l0.7,0.2h0.6l0.6-0.4 M204.3,65.5l-0.3-0.1 M207.1,66.6l-2.2-3.9 M200.3,60.7
	c0.7,1,1.3,2.1,2,3.2l0.2,0h0.6c0.5,0.8,0.9,1.6,1.3,2.4 M202.2,63.8c0.1,0.1,0.1,0.2,0.2,0.4l0.6-0.3 M205.3,68.1
	c0.3,0.6,0.6,1.1,0.8,1.7l0.2-0.1l0.2-0.3l0.1-0.4 M210.4,74l-2.3-5.4h-1.4 M207.4,72.5c-0.4-0.9-0.8-1.8-1.2-2.7 M209.2,67.9
	l-1.1,0.7 M210,76.8l-0.1,0.3l-0.3,0.3l-0.3,0.1c0.4,1.2,0.8,2.4,1.1,3.6l-0.5,0.3c0.2,0.6,0.3,1.2,0.5,1.8l0.7,0.6l0.2,0.3l0.5,0.5
	l0.1,0.1l0.2-0.1l-0.1-0.4v-0.1l-0.8-4.1l0.1-0.1l0.5-0.2h0.6l-1.3-4H210 M212.4,80l0.5-0.4c1.4,4.9,2,9.5,1.9,13.8
	c-0.2,5.2-1.5,9.3-4,12.2 M209.3,77.5c-0.2-0.5-0.3-0.9-0.5-1.4 M210.4,83.3c1.3,5.1,1.7,9.7,1.3,13.7c-0.1,2.1-0.6,4.2-1.4,6.4
	l-0.1,0.2l-0.7,1.5v0.1l-0.9,1.4l-1.1,1.3l-0.1,0.1 M214.7,98.3l-0.3,1.1l-0.1,0.2 M217.8,101.8l0.1,0.1 M205.3,109.2
	c3.4-3.7,4.9-9.1,4.4-16.2c-0.4-5.4-1.7-11-4.1-17c-2.6-6.3-5.8-12.2-9.7-17.6c-4.1-5.6-8.7-10.5-13.9-14.6 M212.3,75.2l-1.2,0.7
	 M206.5,101.6c1.3-9.9-1.5-20.9-8.3-33c-6.4-11.5-14.1-20-23-25.6 M168.4,50.2c2,1.3,3.9,2.8,5.8,4.4c1.9,1.6,3.7,3.4,5.4,5.3
	c0.3,0.3,0.6,0.7,0.9,1c0.6,0.6,1.1,1.3,1.6,2c0.1,0.1,0.1,0.1,0.2,0.2c0.2,0.3,0.4,0.5,0.6,0.8c1.2,1.5,2.3,3,3.3,4.6
	c0.7,1.1,1.5,2.2,2.1,3.4c0.1,0.2,0.2,0.3,0.3,0.5c1.2,2.1,2.3,4.2,3.4,6.4c2.5,5.2,4.1,10.5,4.9,15.8c1,6.7,0.4,12.1-2,16l0.3,0.3
	l0.7,0.4l0.7,0.3l0.5,0.1l0.3-0.1 M182.3,63l-1.4-0.1l-0.3,0.1c0,0.2,0,0.4,0.1,0.5l0.1-0.1h0.9l1,0.3l0.3,0.1 M180.6,63
	c-0.1-0.6-0.1-1.3-0.1-2.1 M188.4,71.8l-1,0.1l-0.6-0.1l-0.6-0.3l-1.3-1.1l-1.4-1.8c-1.3-1.4-2-2.5-2.4-3.4
	c-0.1-0.3-0.2-0.8-0.3-1.3c0-0.1,0-0.2,0-0.4 M187.3,71.9L187.3,71.9l-2-3.1l-2.1-2.4l-2.5-2.4 M171.3,62.5l0.8-0.1l0.8,0.1l0.5-0.1
	l0.4-0.2l0.2-0.3l-2,0.1 M171.7,61.9l-0.2,0.2 M174.1,62l0.1-0.2l0.2-0.5l-0.3-6.7 M167.7,67.2c1.5,0.9,2.9,1.9,4.2,3.1l0.1-0.1
	 M179.6,59.9c0.1,2.9,0.3,4.7,0.4,5.1c0.3,1.1,1.1,2.5,2.5,4c1.2,1.5,2,2.4,2.5,2.7c0.8,0.6,2,0.7,3.6,0.5 M186.2,68.4
	c-0.7-0.6-1.1-1-1.4-1.2c-0.4-0.3-1-0.6-1.7-0.8 M154.1,63.7l4.7-3l-0.1-0.7 M158.8,60.6l1.3-0.8 M162.2,104.1l-0.2,0.3
	 M166.3,101.5l-4.1-5.3 M170.3,104.9l0.5,0.1l0.6-0.1l0.5-0.3l0.4-0.4c0.3-0.5,1.4-2.5,3.5-5.9c0.9-1.5,1.4-3.5,1.4-5.8
	c-0.2-2.7-0.8-5.3-1.8-7.8c-0.9-2.3-2.2-4.6-3.9-7 M166,106.6l-4.1-5 M161.4,102.4l0.7,0.8 M187.4,99.6c1.3,0.9,2.7,1.7,4.3,2.3
	c1.6,0.7,3.2,1.2,4.8,1.5l-0.2-0.7l-0.3-0.9l-0.5-0.8L187,90.6l-1.3-0.9l-0.6-0.2l-1.3,0.1l-0.9-0.1l-0.5,0.1l-0.4,0.2l-0.4,0.3
	c0.1,0.9,0.3,1.8,0.6,2.5c0.5,1.3,1.2,2.7,2.3,4.1l7.3,9.7l1,0l1.4-0.2l1.3-0.4l0.8-0.3l0.3-0.5l0.1-0.7l-0.1-0.7l0-0.2 M181.6,90
	c-0.1-0.7-0.2-1.3-0.2-2.1c-0.8-4.3-2.4-8.2-4.7-11.8c-1.4-2.2-3-4.2-4.9-5.8 M177.3,96.3c1-2.8,0.8-6.2-0.6-10.3
	c-1.1-3.3-2.8-6.5-5-9.4 M170.2,106.3l2.8-1.8l0.3-0.3v-0.1l0.1-0.5 M191.7,106.4l0.3,0.5l2.6-0.5l1.3-0.5l0.3-0.3 M200.4,111.4
	c1.4-4.7,1.5-10.3,0.3-16.8c-1-5.2-2.8-10.6-5.3-16.1c-3.2-6.8-7-12.9-11.4-18.4c-4.8-5.9-10.1-10.8-15.9-14.6 M195,110.5l-0.9-1
	l-2-2.6 M188.3,115.7c-2.6,0.6-5.4,0.5-8.5-0.4c-2.6-0.8-5.2-2-7.8-3.7l-2-1.3 M163.4,113.3l1.8-2.4 M165.7,111.6l-0.8,1.1l0.2,0.5
	l-0.8,0.4l0.6-0.9 M208.6,109.6l5.3,1.8l0.5,0.1l0.1-0.3l0.1-0.5l-0.3-1.2l-0.3-0.7l-1.3-1.7 M207.9,110l5.3,1.8l0.5,0.1l0.4-0.1
	l0.3-0.2l0-0.1 M199.2,115.2l-0.1-0.4v-0.4l0.2-0.3l0.3-0.1l0.1,0.1h0.1l0.3,0.3v0.2 M126,44l-0.1,0.3 M126,44
	c-0.1-0.1-0.3-0.2-0.4-0.2c-0.1,0-0.1,0-0.2,0c-0.1,0.6,0,1.2,0.5,1.8c0.4,0.7,0.9,1.1,1.5,1.3c0-0.2,0.1-0.4,0-0.6h-0.3l-0.4-0.2
	l-0.3-0.4l-0.5-0.9l-0.1-0.4 M125.4,43.7c-0.4-0.1-0.6,0-0.8,0.3c-0.1,0.3-0.2,0.6,0,1l0.2,0.6l0.8,1.1l0.5,0.4l0.4,0.2
	c0.4,0.1,0.7,0.1,0.9-0.3c0-0.1,0-0.1,0.1-0.2 M127.4,46.2c0-0.1,0-0.2,0-0.3c-0.3-0.7-0.5-1.2-0.6-1.3c-0.2-0.3-0.5-0.5-0.8-0.7
	 M135.8,47c-0.9-1.7-2.1-2.8-3.8-3.4c-0.2-0.1-0.5-0.1-0.7-0.2c-0.3,0.7-0.3,1.5-0.1,2.4l0.7-0.4l0.3-0.2l0.9-0.6l0.3-0.2v0l0.4,1.1
	l0.2,1.1l0.1,1l-0.1,0.9l0,0l0.3-0.4l0.5-0.3l0.5-0.1l0.6,0.1 M131.4,43.5c-1.3-0.2-1.9,0.8-1.8,2.8c0.4,2.5,1.6,4.5,3.5,6
	c0.6,0.5,1.3,0.9,2,1c0.7,0.1,1.2-0.1,1.5-0.5c-0.1,0-0.2,0-0.4,0c-0.1,0-0.1,0-0.2,0c-0.3,0-0.7-0.1-1.1-0.3
	c-0.2-0.1-0.3-0.2-0.5-0.3c-0.3-0.2-0.5-0.4-0.8-0.6c-0.1,0-0.1-0.1-0.2-0.1c-0.4-0.4-0.7-0.7-1-1.1c-0.4-0.5-0.7-0.9-0.9-1.4
	c-0.1-0.1-0.1-0.3-0.2-0.4c-0.1-0.2-0.3-0.5-0.4-0.7c0-0.1-0.1-0.2-0.1-0.3c-0.1-0.1-0.1-0.3-0.1-0.4c-0.1-0.6-0.2-1.1-0.3-1.5v-0.8
	l0.1-0.7l0.3-0.5v-0.1l0.2-0.1l-0.2,0.2 M143.7,33v-0.3 M133.8,39v0.4 M134.1,38.6l-0.2,0.1 M133.5,50.1c-0.1-0.1-0.1-0.2-0.2-0.3
	 M133.5,50.1l0.4-1.1l-0.1,0.2l-0.3,0.6l-0.1,0.1c0,0-0.1-0.1-0.1-0.1c-0.1-0.2-0.3-0.4-0.4-0.6c-0.1-0.1-0.1-0.2-0.2-0.3
	c0,0,0,0,0,0c-0.7-1.1-1.1-2.1-1.3-3 M136,48l-0.2,0.7l0.2,1.5l0.3,0.9l0.4,0.7 M133.8,49l0.2-0.5 M136.6,52.7
	c0.1-0.1,0.2-0.3,0.2-0.5c-1.2-0.1-2.3-0.8-3.4-2.1 M137.5,56.1l-0.2-0.1l-0.2-0.2l-0.3-0.5v-0.2v-0.4l0.2-0.3l0.2-0.1h0.1l-0.3,0.1
	 M136.8,55.2l0.1-0.1L137,55l0.2,0.1l0.2,0.2 M136,52.8l-0.7-0.1l-0.4-0.2 M132.5,48.8l0-0.3l-0.3-2.1l-0.3-1.1 M132.2,45.2l0.5,2.2
	l0.1,0.9l-0.1,0.8 M121.6,46.9l0.1,0.2 M121.4,46.6l0.1,0.2 M121.7,47.3v0.4l-0.1,0.1l-2.9,1.9l-0.3,0.1l-0.3-0.1l-0.2-0.1
	c-0.3,0-0.5-0.3-0.6-0.7v-0.2v-0.5l0.2-0.2l0.2-0.2l0,0l2.2-1.5l0.4-0.2 M120.6,46.1L120.6,46.1l0.5,0.1l0.1,0.1l0.1,0.2
	 M124.7,53.6l-0.4,0.2l-2.5,1.6l-0.3,0.1l-0.4-0.2l-0.4-0.2l-0.1-0.2l-0.1-0.3v-0.2V54l0.1-0.3l2.9-1.8l0.1-0.1 M124.3,52.3l0.2,0.2
	 M123.8,51.8l0.2,0.1l0.1,0.1 M124.7,53v0.3 M121.8,55.5l0.1-0.3v-0.3l-0.2-0.5l-0.5-0.6l-0.3-0.1l-0.2,0.1 M121.2,55.3
	c0.2-0.2,0.2-0.4,0.1-0.6c-0.1-0.3-0.3-0.4-0.5-0.5l-0.1,0.1l-0.1,0.1 M133.2,49.8c0.5-0.4,0.7-1.3,0.6-2.5
	c-0.1-0.9-0.3-1.8-0.6-2.6 M143.3,57.8l-4.9,3.2 M118.8,49.7l0.1-0.3v-0.3l-0.2-0.4l-0.3-0.4l-0.3-0.3l-0.3-0.1l-0.2,0.1
	 M117.5,48.7l0.1-0.1l0.1-0.1l0.1,0.1l0.2,0.1l0.3,0.5v0.2l-0.1,0.2c0,0-0.1,0-0.1,0 M115.8,49.2c0-0.3,0-0.6,0-1.1
	c0-0.5-0.1-0.9,0-1.1l-0.1-0.3l-0.1-0.2l-0.1-0.5l0.1-0.5l0.1-0.4l0.3-0.3l15.1-8.8 M114.9,50.7l-0.2-0.1 M112.8,48.7l0.4,1.6
	c0,0,0.1-0.1,0.2-0.1c0.2-0.1,0.4-0.2,0.5-0.3l0-0.1l0-0.2l0-0.1 M118.1,56.9l-0.5-0.3l-0.9-0.8l-0.3-0.2l-0.2,0.1l-0.5,0.2
	l-0.2-0.1l-0.4,0.2c0,0-0.1,0.1-0.2,0.1c-0.1,0.1-0.2,0.1-0.4,0.1c-0.3,0-0.5,0-0.8-0.1c-0.5-0.2-1-0.6-1.4-1.2l-0.4-0.6l-0.5-1.3
	v-0.6v-0.3l0.1-0.5l0.2-0.2v-0.3l0.3-0.5l0.3-0.1h0l0-0.1c0.1,0,0.2-0.1,0.5-0.3c0,0,0.1,0,0.1-0.1 M113.1,50.4l0.2,0.3l0.7-0.4
	l-0.2-0.3l0.3-0.2c-0.1,0-0.2,0-0.3,0.1 M114.3,50.4H114l-0.1-0.1 M112,51.6l0.1-0.2l0.7-0.4l-0.1-0.3 M112.1,51.4l0.4-0.1l0.5,0.1
	c0.6,0.3,1.1,0.6,1.4,1.1c0.3,0.4,0.6,0.9,0.9,1.6c0.3,1,0.3,1.6,0,2 M114,56.1c0.8,0.2,1.2-0.3,1.2-1.4c-0.3-1.1-0.9-2.1-1.8-2.8
	c-0.4-0.3-0.7-0.4-1.1-0.3c-0.4,0.1-0.6,0.4-0.6,0.8 M113.3,50.7l-0.5,0.3 M113.9,53l0.6,1c0.3,1,0.1,1.5-0.7,1.4l-0.4-0.2l-0.8-0.9
	l-0.2-0.5c-0.1-0.4-0.2-0.7-0.1-1c0.1-0.4,0.3-0.5,0.8-0.4l0.5,0.3L113.9,53z M115.6,55.8l0.5-0.3l0.6-0.4l0.1,0.2l0.1,0.1l0.2-0.1
	l0.1-0.1l0.2,0.3l-0.3-0.2 M116.5,55.6l0.3-0.2l0.2-0.2 M116.1,55.5l0.1,0.3 M116.9,54.6v-0.2 M144.7,61.2l2-1.3 M144.9,27l2.5-1.6"
	/>
<path id="Layer0_5_MEMBER_0_MEMBER_1_MEMBER_6_1_STROKES" class="st8" d="M170.3,32.6l0.1,0.2 M169.9,31.8l0.3,0.8 M169.3,30.6
	l0.6,1.2 M169.3,30.6l-0.6-1.2l-1.7-3.4l-0.7-1.4l0,0l-0.8-1.3l0,0l-1.1-0.9l-0.2-0.1l-0.1,0l-0.3-0.2l-0.5-0.1l-5.4-0.5h-0.3
	l-0.3,0.1l-10,3.9 M165.5,23.4l0.1-0.1l-0.8-0.6l-0.3-0.2l-0.3-0.2l-0.1,0 M164.1,22.3h0.2 M169.6,32.8l-3.9-7.8l-0.9-1.3l-1.1-0.9
	l-0.6-0.3l-0.4-0.1l-5.4-0.5H157l-10.1,3.9c1.1-0.3,2.4,0.2,3.7,1.5 M161.3,25.3l0.1,0.5 M161.3,25.3l0.8-0.5l-0.1-0.3l0.1-0.5
	l0.2-0.4l0.3-0.2l0.2-0.1h0.4l0.6,0.3l0.5,0.4l0.5,0.5l0.4,0.7l0.4,1.3l-0.1,0.5l-0.2,0.3l0,0c-0.3,0.5-0.8,0.5-1.5,0l-0.3,0.2
	l-0.8,0.2l-0.1-0.2l-0.4,0.2l-0.2,0.1h-0.3 M165.2,27.3c0,0,0-0.1,0.1-0.1c0.2-0.6,0.1-1.2-0.3-1.9l-0.4-0.7l-0.5-0.5l-0.5-0.4
	l-0.5-0.2l-0.5-0.1 M164.8,27l0.2-0.4v-0.5l-0.5-1.1l-0.4-0.5l-0.4-0.3l-0.4-0.2l-0.4-0.1l-0.1,0.1l-0.3,0.2l-0.1,0.1l-0.1,0.2v0.1
	l0.1,0l0.3-0.1h0.2l0.4-0.1l0.3,0.4l0.3,0.4l0.4,0.3V26l0.1,0.4l0.1,0.4l-0.8,0.5 M162.1,24.8l0.3-0.2 M163.3,24.4l-1.1,0.7l1,1.1
	l1.2-0.7 M159.2,24.8l0.2,0.9l-0.1,0.3l-0.3,0.2l-0.3-0.1l-0.3-0.2l-0.4-0.3l-0.5-0.9l-0.1-0.4l0.2-0.3l0.2-0.2l0.3,0.1l0.4,0.2
	l0.3,0.3L159.2,24.8z M162,27.8v-0.3l-0.1-0.4l-0.2-0.4l-0.6-0.6h-0.3l-0.2,0.2l-0.1,0.3 M160.6,26.8l0.1-0.2l0.1,0.1l0.4,0.3
	l0.1,0.2v0.4l-0.1,0.1l-0.3-0.2l-0.2-0.2l-0.1-0.3V26.8z M159.4,25.7l-0.4-0.2l-0.3-0.3l-0.3-0.4l-0.2-0.5l-0.1-0.5 M162.8,27.3
	l-0.4,0.3 M163.4,27.5l-0.2-1.4 M162.2,25.1l-0.9,0.2 M162,29.3h0.2l0.4,0.2l0.2,0.2l0.3,0.5l0.1,0.2l0,0.3v0.3l-0.1,0.1
	 M166.2,24.5l0.1,0.2 M166.2,24.5l-0.6-1.2 M167.4,25.8l-0.5,0.3 M167.2,23.8l0.3,1.9 M167.2,23.8l-1,0.6 M164.6,22.4l1.1-0.3
	l1.5,1.7 M165.7,22.2l-0.8,0.5 M133.4,33.5l9.7-5.5l1,0.5c0.1-1,0.6-1.5,1.5-1.6c0.8-0.1,1.6,0.1,2.3,0.7l-0.6,0.3
	c0.1,0,0.1,0,0.2,0l0.6-0.2l1.2-0.2l0.6,0.1c0.5,0.1,0.8,0.1,1.1,0.3c0.3,0.1,0.6,0.4,0.8,0.7c0.3,1-0.4,1.8-2.2,2.4L149,31
	l-1.2,0.2l-0.6-0.1c-0.5,0-0.8-0.1-1.1-0.2c-0.3-0.1-0.6-0.4-0.8-0.7c-0.4-1,0.3-1.8,2-2.4 M147.5,28.6l0.7-0.3l0.8-0.1l0.7,0.1
	l0.6,0.2l0.3,0.3l0.1,0.5l-0.3,0.4l-0.5,0.3l-0.7,0.3l-0.8,0.1l-0.7-0.1l-0.6-0.2l-0.3-0.3l-0.1-0.4l0.3-0.4L147.5,28.6z
	 M151.4,27.5c0.5,0.3,0.9,0.5,1,0.6c0.1,0.1,0.2,0.2,0.3,0.2l3,1.3l1.6,8.5c2.2,0,4.7,0.6,7.4,1.7c2.3,0.9,4.6,2.1,6.9,3.5
	 M152.7,28.3c0.2,0.2,0.4,0.4,0.5,0.6l0.1,0.2l0,0.1l0.2,0.1l0.5,0.5l0.3,0.5l0.1,0.5l0.1,0.3v0.1l-0.2,0.5l-0.2,0.3l-0.1,0.3
	l-0.5,0.6l-1.5,0.9l0.3-0.1 M153.3,29h-0.2l-0.1,0.1l-0.3,0.3l-0.2,0.1l-0.1,0.3l-0.1,0.1l-0.3,1v0.1l-0.1,0.3v0.5l0.2,1.1l1.4-2.5
	l-0.2-1.1 M152.2,32.9l-4.6,1.2l-3.2-1.4l-0.2-1.2c0-0.2,0-0.4,0-0.6c-1.1,1.3-0.9,2.3,0.5,3c1.3,0.6,2.6,0.8,4.1,0.5
	c2.4-0.4,4.1-1.2,5.1-2.4l0.4-0.6l0.1-0.5 M155.8,29.7l-0.2,2.8l5,26.3l0.2-2.9l-1.3-6.5l0-0.1v-0.1l-0.2-1l-0.4-1.9l-1-5.2
	l-0.5-2.8 M152,31.8l-0.3-0.3l-0.1-0.1l-0.5-0.1l-1.2,0.1l-1.5,0.5l-0.8,0.6l-0.2,0.5l0.2,1.1 M147.4,33c-0.3-0.5-0.5-0.8-0.7-0.9
	c-0.1-0.1-0.5-0.3-1-0.7l-1.1-0.2h-0.1l-0.3,0.1l-0.1,0.2 M146.6,34.8c0.1,0,0.2,0,0.3,0 M146.6,34.8l0.2,0h0.2c0.1,0,0.2,0,0.3,0
	c0.6,0,1.1,0,1.7-0.1l0.4-0.1c0.4-0.1,0.8-0.2,1.2-0.3c0.1,0,0.3-0.1,0.4-0.1l0.7-0.3l0.3-0.1 M143.7,33c0.1,0.1,0.1,0.2,0.2,0.4
	c0.1,0.2,0.3,0.4,0.5,0.5c0,0,0.1,0.1,0.1,0.1l0.6,0.3l0.5,0.2c0.2,0.1,0.4,0.1,0.6,0.2c0.2,0,0.3,0.1,0.5,0.1 M150.5,34.4l-0.6,0.2
	l-0.6,0.1 M146.1,35.6l5.1,26.3l5.4-0.7l-5-26.3L146.1,35.6z M146.1,35.6l-9-3.9l-0.8,0.5c0.6,0,1.2,0.2,1.8,0.8
	c0.5,0.4,0.9,1,1.3,1.7l0.4,0.8l4.1,20.5l0.1,0.7l-0.1,0.6l-0.2,0.4l-0.3,0.3 M155.5,32.5l-4,2.5 M168.7,29.5l0.3,0.1l0.4,0.8
	l-0.1,0.3 M166.3,30.4h0.3l0.3,0.1l0.4,0.4l0.1,0.2l0,0l0.1,0.4v0.4l-0.2,0.1 M180.3,39.9c-3.7-2.2-7.1-3.7-10.4-4.5
	c-1.6-0.4-3.1-0.5-4.7-0.3h-0.9l-1.7,0.3l-1,0.3 M180.3,42.5l-2-1.3c-3-1.9-6-3.3-9-4.2c-3.7-1-7-1-9.8,0 M168.6,45.3
	c-2.1-1.2-3.8-2.2-5.1-2.8c-1.9-0.9-3.7-1.5-5.4-1.9 M179.5,45.5l0.1-0.3v-0.3l-0.4-0.7l-0.3-0.3l-0.3-0.1l-0.2,0.1 M175.3,43.1
	c-3.1-1.9-5.9-3.3-8.4-3.9 M160.1,59.8l0.2-0.1c3,2.1,5.8,5,8.3,8.8l2.1,3.6l1.1,2.6l0.1,0.7l-0.1,1.1l-2.1,6.2l0.4,0.6l0.9-0.6
	l0.2-0.1v-0.2l0.2-0.3l0.4-0.2l0.5,0.1l0.5,0.3l0.5,0.5l0.9,1.2l0.3,1.3l-0.1,0.5l-0.3,0.3l-0.3,0.2l-0.4-0.1l-0.1,0.1l-1.1,0.6
	l-1-0.9c0.4,1.2,0.6,2.2,0.6,3.1c0,0.9-0.2,1.8-0.5,2.5c0,0.1-0.1,0.2-0.1,0.3c-0.1,0.1-0.1,0.2-0.2,0.2c-1.1,1.6-3,1.6-5.6,0
	l-1.5,0.9l0.2,0.3l0.2,0.7l0.1,0.7l-0.1,0.5l-0.2,0.3l-0.4,0.2l-0.3-0.1 M171.7,61.9l0.8-0.4l0.9-0.2l1-0.1 M168.4,50.2
	c-2.4-1.5-4.8-2.6-7.2-3.4l-0.6,2.7l1,1.7l7.4,9.1l1.3,1.2l0.6,0.4l0.7,0.2h0.6 M158.9,46.2c0.3,0.1,0.5,0.1,0.8,0.2
	c0.2,0,0.3,0.1,0.5,0.1c0.3,0.1,0.7,0.2,1,0.3 M160.2,46.5l-0.2,0.6l0.1,0.7l0.2,0.9l0.3,0.8 M159.3,48.1l-0.1-0.5l0.1-0.7l0.3-0.6
	 M159.5,49.2l0-0.2 M171.3,62.5c-0.6,0.1-1.2-0.1-1.8-0.5c-0.2-0.1-0.6-0.6-1.4-1.3l-7.4-9.1l-1-1.6l-0.3-0.8 M158.4,67.9
	c0.2,0.2,0.4,0.4,0.6,0.6c2,2.1,3.7,4.6,5.1,7.7l0.8,1.7l0.2,0.7l0.1,0.6l-0.1,0.5l-1.1,3.3l-1.8,5.3l-0.2,0.3
	c-0.5,0.4-1.1,0.3-2-0.4c0.8,1.4,1.3,2.8,1.4,4.1c0,0.2,0,0.4,0,0.6l4.2-12.6l0.1-0.4v-0.6l-0.1-0.7l-2.1-4.4
	c-1-1.9-2.4-3.8-4.1-5.8c-1.8-2-3.5-3.7-5.2-4.8l-0.2,0.1v0.3l0.4,3.4v0.3l-0.1,0.3l-0.2,0.1l-0.3-0.1l-3.1-1.3l-0.3-0.3l-0.3-0.3
	l-0.3-0.4l-1.1-4.1l-0.2-0.3l-0.3-0.3c-1-0.4-2.2-0.3-3.4,0.2c-0.2,0.1-0.5,0.2-0.7,0.3c-0.9,0.5-1.5,1.1-2,1.9l-0.4,0.9l-0.1,0.3
	l-0.6,2.6v0.6l0.2,0.6l0.5,1.4l4.2,7.8c1,2.8,2.4,6,4.3,9.6l0.6-0.4c-0.1-0.9,0.1-1.6,0.5-2.2l-0.2,0l-0.5-0.3l-0.5-0.4l-0.9-1.2
	l-7.1-13c-0.4-0.7-0.5-1.4-0.5-2.2c0-0.6,0.2-1.4,0.5-2.3c1.3-2.8,2.7-3.7,4-2.7c0.3,0.2,0.6,0.6,1,1.1c0.6,0.9,1.3,2.2,2.1,4
	l6.6,2.9c0.2-1.3,0.3-2.1,0.5-2.5C156.8,67.3,157.4,67.2,158.4,67.9z M147.3,63.5l-0.1,0.7v0.6l0.2,0.7l7.3,13.7l0.4,0.6l0.6,0.6
	l0.5,0.4l0.5,0.3l0.4,0.1l1.2-0.8c0.9-0.6,2-0.5,3.3,0.3c1,0.6,1.9,1.4,2.6,2.4 M156.6,61.2l4-2.5 M159,68.5l-3.1,2 M173.3,86.3
	l-0.5-2l-1.6-1.5l-1,0.5l-0.1,0l0.5,2.1l0.6,0.5 M160.1,88.2c-0.1-0.2-0.2-0.3-0.3-0.5c-1-1.6-2.1-2.8-3.3-3.7
	c-0.9-0.6-1.8-1-2.6-0.9c-0.3,0-0.7,0.1-1,0.2l-0.8,0.5c0.4-0.2,0.9-0.3,1.4-0.2c1,0.1,2.1,0.6,3.3,1.8c0.9,0.8,1.7,1.8,2.4,2.9
	c1.3,1.6,1.8,3.6,1.6,5.7c-0.1,0.9-0.3,1.5-0.7,1.9l0.2-0.1c0.2-0.1,0.4-0.3,0.5-0.5c0.1-0.2,0.2-0.3,0.3-0.5
	c0.3-0.5,0.4-1.1,0.4-1.8 M165.3,92.1l1-0.6l2.6-1.7l0.5-0.4l0.4-0.6L170,88v-0.9l-0.4-2.1l-0.3-0.9l-2.1,6.3 M169.7,82.7l-0.5,1.4
	 M157,81.1l-3.1,2 M152.1,83.8c-0.2,0.1-0.5,0.4-0.7,0.6c0,0,0,0,0,0 M151.3,86.5c0.1-0.8,0.5-1.4,1.1-1.6 M151.3,86.5l0.5-0.3
	l0.2,0.1l0.5,0.1h1l1.5-0.2c1.1,2.1,2.2,3.5,3.4,4.3l-0.1,0.7l-0.1,0.9l0.1,1.5l0.1,0.1c0.5,0.3,0.8,0.8,0.9,1.4c0,0.1,0,0.1,0,0.2
	c0.7-1.1,0.7-2.5,0-4.4c-0.6-1.5-1.4-2.8-2.4-3.9c-1.1-1.3-2.2-2-3.5-2.1c-0.4,0-0.7,0-1,0.1l0.2-0.1c0.9-0.5,2-0.3,3.2,0.4
	c1,0.7,2,1.8,2.9,3.1c0.9,1.4,1.4,2.7,1.5,4c0.2,1.4-0.1,2.4-0.9,3h0c-0.1,0.5-0.4,0.7-1,0.7c-0.2,0-0.4-0.1-0.5-0.2h-0.1l-0.5-0.1
	l-0.3,0.2c1.3,0.6,2.3,0.7,2.9,0.4c0.2-0.1,0.3-0.2,0.5-0.4 M151.4,87.1c-0.2,0.2-0.5,0.3-0.9,0.5l0.3,0.8l0.9-0.6l-0.1-0.2l0.5-0.3
	l0.2-0.2V87C151.9,86.9,151.6,87,151.4,87.1z M150.9,86.7l0.3-0.2 M149.1,85.1l-0.1-0.3l-1,0.6l0.3,0.3l0.3,0.1l0.3-0.2l0.2-0.2
	V85.1z M148.1,89.1l0.7,0.4l0.3,0.2l0-0.1l0.3-0.4l0.1-0.1l-0.1-0.7l-0.6-0.4l-0.3-0.3l-0.1-0.2v-0.7l0.3-1.3l0.1-0.2 M147.9,85.4
	c-0.3,0.5-0.5,1.1-0.6,1.8c-0.1,0.6,0.1,1.1,0.4,1.5c0.1,0.1,0.1,0.1,0.2,0.2l-0.2-0.1h-0.1l-0.1,0l-0.1,0.1V89
	c-0.1,0.3,0,0.9,0.2,1.8c0.2,0.8,0.4,1.4,0.6,1.7l0.6-0.1l0.2-0.1c-0.1-0.2-0.1-0.5-0.2-0.7c-0.1-0.3-0.1-0.5-0.1-0.8
	c0-0.1,0-0.1,0-0.2l0-0.4l0.1-0.3l0-0.1 M147.6,88.8L147.6,88.8L147.6,88.8 M147.8,88.7l-0.1,0.1l-0.1,0 M148.9,90.4l-0.2-0.9v-0.1
	 M149.5,89.2l0.3-0.2h0.1l0.5-0.1h0.1l0.5,0.1h0.1l1.3,0.8v0.1l0.6,0.5l0.1,0.1l1,1.4c0.1,0.4,0.3,0.8,0.5,1.1
	c0.1,0.3,0.2,0.7,0.3,1.3l-0.1,0.3V95l-0.1,0.3l-0.1,0.2l-0.3,0.3l0.8-0.4l0.3-0.2 M151.9,88.3l-0.3-0.6 M150.8,88.3l-1.3,0.8
	 M150.5,87.6l-1.1,0.1l0,0.8 M150.8,90.9l0.5,0.3l1.8,1.1c-0.1-0.2-0.2-0.3-0.3-0.5c-0.3-0.4-0.8-0.9-1.4-1.5
	c-0.6-0.4-1.1-0.4-1.6-0.1c-0.4,0.3-0.6,0.8-0.4,1.5c0,0.5,0.3,1.2,0.8,1.9c0.5,0.7,0.9,1.2,1.4,1.5c0.7,0.4,1.3,0.4,1.6,0.2
	c0.3-0.2,0.4-0.6,0.4-1.1l-0.1,0.4l-0.3,0.3l-0.4,0.1l-0.5-0.1l-0.5-0.3l-0.5-0.4l-0.5-0.6l-0.8-1.3l-0.2-0.7l-0.1-0.6l0.1-0.6
	l0.3-0.3l0.4-0.1l0.4,0.1L150.8,90.9L150.8,90.9z M150.8,90.9l0.1,0.2l0.3,0.2l0.1-0.1 M149.2,92.2c0.4,1.4,1.3,2.6,2.6,3.6
	c0.1,0.1,0.2,0.1,0.3,0.2c0.1,0.1,0.3,0.1,0.4,0.2c0.5,0.1,0.9,0.1,1.2-0.1c0.5-0.3,0.6-1,0.5-1.9c-0.1-0.7-0.4-1.5-1-2.4
	c-0.6-0.9-1.2-1.5-1.8-1.9c-0.8-0.5-1.4-0.6-1.9-0.2c-0.3,0.2-0.5,0.5-0.5,0.9 M149.5,87.6l0.9-0.5 M154.4,88.9l0.3,0.1l0.3,0.1
	l0.1,0.1l0.3,0.4l0.1,0.3v0.2l0.2-0.3v-0.3l-0.2-0.3c-0.5-0.8-1.1-0.9-1.7-0.3l-0.3,0.3l0.5-0.3L154.4,88.9z M153.4,89.2l0.1,0.2
	 M153.8,89l-1.2-1.4h-1.1 M155.5,90.1l-0.5,0.3l1.2,1.5l2.3-1.5 M154.9,90.4l-0.2,0.4l0.2,0.4 M154.9,86.1l-2.3,1.5 M156.7,93
	L156.7,93 M156.7,93l0.5,0.3v-0.1l-0.1-0.2l-0.2-0.1L156.7,93L156.7,93 M155.6,92.7v0.2l0.2,0.1l0.4,0.2l-0.1-1.4 M158.2,93.4
	l-0.1-0.1h-0.4l-0.3,0.1l-0.2,0.1l-0.1,0.2l-0.1,0.1v0.1L157,94v0.3l0.1,0.2l-0.1,0.1c0.1,0.3,0.2,0.6,0.4,0.8
	c0.1,0.1,0.2,0.2,0.4,0.3 M155.7,93.9l0.3,0.2 M155.7,93.9l0,0.2l0.2,0.1l0-0.1l0.1,0.1l0.5,0.3l0.4,0.2 M155.8,93l-0.2,0.4v0.3
	l0,0.1 M156.1,94.1l-0.3,0.2l0.5,0.3l0.3-0.2 M157.7,94.6l-0.2-0.2l-0.1-0.1h-0.1l-0.1,0.1c0,0.3,0.1,0.6,0.3,0.8l0.1,0.1l0.1,0.1
	h0.2l0.1,0.1l0.1-0.1l0.1-0.1v-0.1L158,95V95l-0.1-0.1l-0.1-0.2L157.7,94.6z M157.4,93.4l-0.3-0.2 M156.6,92.9l-0.4,0.3 M153.1,92.2
	c0.2,0.4,0.4,0.9,0.5,1.5c0,0.2,0.1,0.3,0.1,0.5 M154.2,95.8L154.2,95.8l-0.1,0.1l0.1,0.2l0.5-0.3l0.4-0.2l-0.1-0.2 M156.7,95.9
	l-0.4,0.3h-1l-0.2-0.5 M154.2,96.2h-0.4h-0.1l-0.5,0.1h-0.1l-0.5-0.1h-0.1l-0.1-0.1 M154.1,96l-0.3,0.2 M157,95.7l0.3-0.2
	 M156.3,94.7v1.4 M152.1,95.9l0.7,1 M171,91.9L171,91.9l-0.7,0.5l-0.8,0.2l-1.8-0.3l-0.3-0.2l-0.6-0.3l-0.4-0.3 M171.7,89.1
	c-0.1,0.8-0.4,1.5-0.8,2.1c-0.3,0.5-0.7,0.8-1.1,0.9l0.1,0l1.2-0.5 M169.3,92.2c0.2,0,0.4-0.1,0.6-0.1 M169.3,92.2L169.3,92.2
	l-0.1,0h-0.9l-1-0.2 M169.2,92.3c0,0,0.1,0,0.1,0 M170.4,95v0.2l0.9-0.5l1.6,1.5l0.5,2l-0.8,0.5l0.3,0.1l0.3-0.1l0.1-0.1l0.2-0.2
	l0.1-0.5l-0.1-0.6l-0.3-0.7l-0.9-1.3l-0.5-0.4l-0.5-0.3l-0.5-0.1l-0.3,0.1L170.4,95z M166.7,95.8l-0.1,0.2 M169.3,95.9l1.1-0.5
	 M169.3,95.9l0.5,2.1l1.6,1.5l1.1-0.5l-0.5-2.1l-1.6-1.5l1-0.6 M170.4,95.3l-0.1,0.1l-1,0.6 M163.8,93.1l-1.2,0.8l0.5,1.9l-1.1,0.6
	l-1.2-1.1 M159.2,95.3c0,0,0-0.1,0-0.1 M162.6,93.9l-1.4,0.9 M197.2,96.7l-7.8-9.7l-0.7-1.7l-0.3-1.5l-0.1-1.1
	c-0.1-0.9-0.1-1.6-0.1-2c0-0.7,0.4-1.2,1.1-1.4c0,0,0.1,0,0.2,0h0.7h0.5h0.7h0.8 M192.6,83L192.6,83l0.9-0.6 M191.4,79.2l-0.2,0.5
	l-0.5,0.8l-0.4,0.3c0.1,0.5,0.1,1.1,0,1.7c0,0.6-0.1,1.2-0.2,1.7c0.8-0.1,1.5-0.4,2-0.9c0.4-0.4,0.8-0.9,1-1.5 M194.4,84.8l-0.8-0.9
	l-0.6-0.5l-0.5-0.3l-0.4,0.2 M197,94.9l-6.2-7.6l-1-1.7l0-0.1l-0.5-1.4l0-0.1l-0.3-3.8l0.1-0.4l0-0.2l0.2-0.4 M190.3,79.6l0.3-0.4
	l-0.5,0.2C190.2,79.5,190.2,79.6,190.3,79.6L190.3,79.6z M190.2,79.2c0,0.1,0,0.1,0,0.2 M189.3,84l0.1-0.7l-0.1-2.8l-0.2-0.7
	 M190.4,80.7c0-0.4-0.1-0.7-0.1-1 M190.2,84.1c-0.1,0.5-0.3,1-0.5,1.4 M173.4,86.2l0.8-0.5l-0.5-2l-0.9,0.6 M182.4,89.6l-0.2,0.6
	l0.1,2.7 M173.7,83.7l-1.5-1.5l-1,0.7 M173,96.3l-1,0.6 M172.5,98.9l0.2-0.1 M187.4,99.6l-1.7-1.1 M171.2,82.7l0.9-0.5 M168.1,45.6
	c-3.9-2.4-7.4-4-10.2-4.6 M65.5,29.5l0.7,3.7 M66.9,33l-0.6-3.2 M59,26.9l1.7,9.8 M61.4,36.5l-1.6-9.3 M53,20v0.3 M145.2,28.9
	l-0.2-0.1l-0.8-0.4 M144.2,30.9c0-0.2,0.1-0.4,0.2-0.7c0.1-0.5,0.4-0.9,0.6-1.2 M145.5,34.5c-0.4-0.1-0.8-0.3-1.1-0.5 M134.5,33.3
	l1.8-1.1 M134.5,40.3c-0.5-0.2-0.7-0.5-0.7-0.9c0-0.2,0.1-0.2,0.1-0.3l0-0.4l0.2-0.1 M133.9,39.1c0.1-0.1,0.2,0,0.4,0.3 M137.1,31.7
	l6-3.8 M147.7,88.8c-2.4-4.2-4.4-8.7-6-13.6c-1.7-5.2-2.6-10-2.8-14.6l2.9,3.6 M144.2,61.4l-2.2-2.8 M139.6,60.2l2.6,3.2
	 M151.2,61.9l-8.4-3.7 M156.7,93L156.7,93"/>
<path id="Layer0_5_MEMBER_0_MEMBER_1_MEMBER_7_1_STROKES" class="st8" d="M60.7,36.6h-0.2L59.3,37 M59.7,43.8l0.2,0.2l0-0.3l0.1-0.2
	l0.3-0.2c-0.6-0.1-1.1-0.3-1.4-0.6l-0.2-0.3l-0.1-0.1v-0.3l0.1-0.2v-0.1l0.1-0.1l0.2-0.3L59,41.2l-0.3-0.3l-0.2-0.4l-0.1-0.3
	l0.1-0.3v-0.1l0.3-0.3c0.5-0.5,1.3-0.8,2.4-1c1.1-0.1,1.9,0.1,2.5,0.5l0.1-0.5L63.6,38l-0.4-0.3l-0.6-0.3l-1.4-0.2 M63.5,39.6
	l-0.3,0.3l-0.7,0.4c-0.7,0.3-1.2,0.4-1.6,0.5c-0.6,0.1-1.1-0.1-1.6-0.3l0,0l0-0.2V40l0.1-0.2l1.2-0.6l1.6-0.1l0.8,0.1L63.5,39.6z
	 M63.5,39.6l0.2-0.2l0.1-0.3v-0.1 M64,40.1l0.1,0.2v0.5v0.1L64,41.2l-0.2,0.2l-0.3,0.3l-0.6,0.4c-0.7,0.3-1.3,0.4-1.6,0.5
	c-0.6,0.1-1.1-0.1-1.6-0.3l-0.1-0.1L59.4,42 M59.5,42.2l0.1-0.3l0.1-0.1l0.3-0.2c-0.2,0-0.4-0.1-0.6-0.1l-0.1-0.1l-0.2-0.1
	 M61.4,36.6c1.4,0.1,2.4,0.5,2.9,1.2c0.4,0.5,0.4,1,0.2,1.6c0.6,1,0.6,1.8-0.1,2.6l0.2,0.2v0.5v0.1L64.3,43l-0.2,0.2l-0.3,0.3
	l-0.6,0.4l-1.5,0.5h-0.8l-0.3,0l-0.3,0l-0.4-0.3L59.9,44 M63.8,41.4L62.7,41c-0.1,0.1-0.2,0.1-0.3,0.1c-0.8,0.3-1.6,0.4-2.3,0.3
	 M64.1,43.2L63.6,43L63,42.9c-0.5,0.2-1.1,0.4-1.7,0.5c-0.3,0-0.6,0-0.9,0 M63.2,43.9c-1,0-1.8,0.1-2.6,0.5 M59.9,40.7
	c0.8-0.3,1.7-0.4,2.6-0.4 M63.7,40.5l0.1,0.1l0.3,0.2 M64.5,39.3c0,0.1-0.1,0.2-0.1,0.3c-0.4,0.6-0.9,1.1-1.6,1.5 M64.5,42.6
	l-0.4-0.2H64l-0.2-0.1c-0.3,0.2-0.6,0.4-0.9,0.5 M64.3,41.9c-0.1,0.1-0.1,0.1-0.2,0.2c-0.1,0.1-0.2,0.2-0.3,0.3 M63.3,44.7l0.7,0.1
	l0.5,0.2l0.2-0.2l0.2-0.3v-0.1l-0.4-0.2h-0.1l-0.1-0.1 M64.8,44.4l0.1-0.5l-0.2-0.2 M69.8,75.4L69.8,75.4l0.5,0.2
	c0-0.2,0-0.4-0.1-0.7 M60.8,45.2l-0.3,0.2l-0.2,0.2v0.1v0.2l0,0l0.4,0.3l0.3,0c0.8-0.4,1.7-0.5,2.6-0.4l0.7-0.4l0.3-0.3 M64.6,46
	h0.2l0.3,0.2c0-0.2,0-0.4-0.1-0.7 M61.3,48.8L61,49l-0.1,0.2l-0.1,0.2l0.1,0.1l0.4,0.3l0.3,0h0l0.5-0.3l1.3-0.2h0.8
	c0.4-0.2,0.7-0.5,0.9-0.7l-0.5-0.3l-0.6-0.2 M61,47l-0.3,0.2l-0.2,0.2l0,0.3l0.1,0.1l0.4,0.3l0.3,0c0.7-0.3,1.6-0.5,2.6-0.5
	c0.4-0.2,0.7-0.4,1-0.7l-0.6-0.3l-0.6-0.1 M64.8,46.9c0,0,0.1-0.1,0.1-0.1c0.1-0.2,0.2-0.4,0.2-0.6 M65,47.9l0.4,0.2
	c0-0.2,0-0.5-0.2-0.7 M64.3,50.3l0.6,0.1l0.5,0.3c0,0,0.1-0.1,0.1-0.1c0.2-0.2,0.3-0.4,0.3-0.6l-0.4-0.2h-0.1l-0.2-0.1 M65.8,49.9
	c0-0.2,0-0.4-0.2-0.7 M61.5,53l0,0.1l0.1,0.2l0.4,0.2l0.3,0.1l0.5-0.3l0.6-0.2l1.4-0.1c0.5-0.3,0.8-0.5,1-0.7l-0.6-0.3l-0.6-0.1
	 M66,51.8c0-0.2,0-0.4-0.1-0.7 M66,51.8c0,0.2-0.1,0.4-0.2,0.6c0,0-0.1,0.1-0.1,0.1 M65.6,51.5L65.6,51.5l0.4,0.2 M61.7,50.7
	l-0.3,0.2l-0.1,0.2l-0.1,0.3l0.1,0.1l0.3,0.3l0.3,0.1c0.6-0.4,1.4-0.5,2.5-0.5c0.4-0.2,0.7-0.4,1-0.7 M65.4,48.1
	c0,0.2-0.2,0.4-0.4,0.7 M60.9,46.2l0.3,0H62l0.8-0.1l0.8-0.3 M61.2,48.1l0.3,0h0.7l0.8-0.2l0.8-0.3 M60.3,47.5l0.2,0.2 M61.6,49.9
	l0.2,0h0.8l0.8-0.1l0.8-0.3 M60.7,49.3l0.1,0.2 M61.6,49.9L61.6,49.9L61.6,49.9 M61,51.1l0.2,0.2 M61.8,51.7l0.3,0.1l1.5-0.2
	l0.7-0.3 M62.2,53.6l0.3,0.1l1.5-0.2l0.8-0.3 M66.4,53.6c0-0.2,0-0.5-0.2-0.7 M66.4,53.6c0,0.2-0.1,0.4-0.3,0.5c0,0-0.1,0.1-0.1,0.1
	c-0.2,0.3-0.6,0.5-0.9,0.7l-0.8,0.3l-1.5,0.2l-0.3-0.1l-0.3-0.1l-0.4-0.2L61.7,55l-0.1-0.2 M62.3,54.3l-0.5,0.4L61.7,55 M62.6,56.2
	l-0.3,0.3l-0.2,0.1v0.1l0,0.2l0.1,0.1l0.4,0.2l0.3,0.1l1.2-0.4l1.3-0.1l0.1,0c0.4-0.3,0.7-0.5,0.9-0.7l-0.5-0.2l-0.6-0.2 M62.9,57.2
	l0.3,0.1l1.5-0.2l0.8-0.3c0,0,0,0,0,0 M63,58l-0.4,0.3l-0.1,0.1l-0.1,0.4c0.2,0.1,0.4,0.2,0.7,0.3l0.6-0.2l1.2-0.3h0.7l0.1,0.1
	c0.4-0.2,0.7-0.5,1-0.7l-0.5-0.3l-0.7-0.1 M63.3,59.9l-0.3,0.2l-0.1,0.2l-0.1,0.3l0.1,0.1c0.2,0.1,0.4,0.2,0.7,0.3l1.1-0.4l0.7-0.1
	l0.7,0.1H66c0.4-0.2,0.8-0.5,1-0.7l-0.6-0.2l-0.6-0.1 M65.8,53.4h0.2l0.4,0.2 M66,54.2L65.5,54l-0.6-0.1 M62.5,55.4
	c0.7-0.3,1.1-0.4,1.3-0.4c0.3-0.1,0.7-0.1,1.3-0.1 M66.3,55.3L66.3,55.3 M66.7,55.4l-0.4-0.2 M66.7,55.4c0-0.2,0-0.5-0.2-0.7
	 M66.3,56.1c0.1,0,0.1-0.1,0.1-0.1c0.2-0.2,0.3-0.4,0.3-0.6 M66.6,57.1L66.6,57.1l0.5,0.2c0-0.2,0-0.5-0.1-0.7 M63.1,59.1
	c0.3,0.1,0.6,0.1,1,0c0.4,0,0.9-0.2,1.6-0.5 M67.4,59.1c0-0.2-0.1-0.5-0.2-0.7 M67.4,59.1c0,0.2-0.1,0.5-0.3,0.7 M67,58.9l0.4,0.2
	 M66.7,58c0.2-0.2,0.4-0.5,0.4-0.7 M62,52.5l-0.3,0.3 M67.2,60.7L67.2,60.7l0.5,0.3v-0.5l-0.1-0.2 M66.2,61.2l0.6,0.1l0.5,0.2
	l0.2-0.2l0.2-0.3V61 M63.6,61.7l-0.3,0.2l-0.2,0.2L63,62.4l0.1,0.1c0.2,0.1,0.5,0.2,0.7,0.3c0.6-0.3,1.5-0.4,2.6-0.4l0.6-0.4
	l0.3-0.3 M67.6,63.4l-0.5-0.2l-0.7-0.1 M67.5,62.6l-0.2-0.1 M67.6,62.6L67.6,62.6 M67.9,62.8l-0.3-0.2 M67.9,62.8l0.1-0.5l-0.1-0.2
	 M63.9,63.6l-0.3,0.2l-0.1,0.2l-0.1,0.3l0.1,0.1c0.2,0.1,0.4,0.2,0.6,0.3c0.8-0.3,1.7-0.5,2.6-0.4l0.7-0.4l0.5-0.5l0.1-0.3v-0.1
	 M63.8,62.7c0.3,0.1,0.6,0.1,0.9,0.1c0.1,0,0.6-0.2,1.6-0.5 M63.5,60.9c0.3,0.1,0.6,0.1,0.9,0c0.4,0,1-0.2,1.6-0.5 M64.1,64.6
	c0.3,0.1,0.6,0.1,0.9,0.1c0.4-0.1,1-0.2,1.6-0.5 M64.2,65.4l-0.3,0.2l-0.1,0.2l0,0.3l0.1,0.1l0.4,0.3l0.3,0C65.1,66.1,66,66,67,66
	c0.4-0.2,0.8-0.4,1-0.7l-1.2-0.4 M64.5,67.2l-0.3,0.2l-0.1,0.2L64,67.9l0.1,0.1l0.4,0.3l0.3,0c0.7-0.3,1.6-0.5,2.6-0.4l0.6-0.4
	l0.3-0.3l-0.5-0.2l-0.6-0.2 M64,67.9l-0.2-0.2 M64.4,66.4l1,0L67,66 M68,65.3c0.2-0.2,0.3-0.4,0.3-0.7l-0.4-0.2h-0.1 M68.2,67.1
	l0.2-0.2l0.2-0.3v-0.1l-0.4-0.2h-0.1L68,66.2 M68.3,68l0.2,0.1h0.1l0.4,0.2v-0.4l-0.1-0.3 M68.6,66.5V66l-0.1-0.2 M68.3,64.6
	c0-0.2,0-0.4-0.1-0.7 M62.7,60.6l-0.2-0.2 M63.4,64.2L63.4,64.2c0,0.1,0.1,0.1,0.1,0.1 M63.7,66.1L63.7,66.1l-0.1-0.2 M63.3,64
	l0.1,0.2 M68.7,69.8l0.2,0.1h0.1l0.4,0.2c0-0.2,0-0.4-0.1-0.7 M67.5,68.6l0.6,0.1l0.4,0.3l0.4-0.6v-0.1 M64.3,69.8l0.4,0.3l0.3,0h0
	c0.6-0.4,1.5-0.5,2.6-0.4l0.7-0.4l0.3-0.3 M65.1,70.9l-0.3,0.2l-0.2,0.3l0,0.1l0,0.1c0.2,0.2,0.4,0.3,0.7,0.3c0,0,0,0,0,0l0.5-0.3
	l0.6-0.2l1.4,0c0.4-0.2,0.8-0.4,1-0.7l-0.6-0.3l-0.6-0.1 M65.4,72c0.6,0.1,1.4,0,2.3-0.3c0.1,0,0.2-0.1,0.3-0.1 M69.2,70.1
	c0,0.2-0.1,0.5-0.3,0.7 M69.1,71.8L69.1,71.8l0.5,0.2c0-0.2,0-0.5-0.2-0.7 M64.8,68.3l0.3,0h0.8l0.8-0.1l0.8-0.3 M64.9,69l-0.3,0.2
	l-0.2,0.2 M64.3,69.7L64.3,69.7l-0.1-0.2 M64.3,69.4v0.3l0.1,0.1 M67.6,69.7L66.9,70l-0.8,0.1h-0.8l-0.3,0c0,0,0,0,0,0l0,0
	 M65.7,73.8l0.5-0.3 M65.7,73.8l0.3,0.1l1.6-0.2l0.7-0.3h-0.7l-1.3,0.2 M65.4,72L65.4,72L65.4,72 M65.5,72.7L65.1,73L65,73.1
	l-0.1,0.3l0.1,0.1l0.4,0.2l0.3,0.1 M64.8,73.2l0.1,0.2 M69.8,73.1c0.2,0.2,0.2,0.5,0.2,0.7c0,0.2-0.2,0.5-0.4,0.7
	c-0.2,0.2-0.5,0.4-1,0.6l-0.8,0.3l-1.5,0.2l-0.3,0l-0.3-0.1l-0.3-0.2l-0.1-0.1L65.1,75 M65.8,74.5l-0.3,0.3L65.4,75l-0.1,0.3
	 M69.6,72c-0.1,0.2-0.2,0.4-0.4,0.7c-0.2,0.2-0.5,0.5-0.9,0.7 M69.9,73.8l-0.5-0.2h-0.2 M69.2,72.6l-0.5-0.3l-0.6-0.1 M68.4,74.1
	l0.6,0.1l0.5,0.3 M68.5,75.1c-0.6,0-1,0-1.3,0.1c-0.2,0-0.6,0.2-1.2,0.4 M65.6,76.8V77v0.1l0.4,0.2l0.3,0.1c0.8-0.3,1.2-0.4,1.2-0.4
	c0.3-0.1,0.8-0.1,1.4,0c0.4-0.2,0.7-0.5,0.9-0.7l-0.5-0.2L68.7,76 M66.3,77.5l0.3,0.1l1.5-0.2l0.8-0.3c0,0,0,0,0,0 M69,77.8l0.6,0.1
	l0.5,0.2c0,0,0.1-0.1,0.1-0.1c0.2-0.2,0.2-0.4,0.3-0.6L70,77.3 M66.4,78.2l-0.3,0.3l-0.2,0.2l-0.1,0.3l0.1,0.1
	c0.2,0.1,0.4,0.2,0.7,0.3l1.2-0.4l1.3-0.1l0.1,0.1c0.4-0.3,0.7-0.5,1-0.7 M66.2,76.4l-0.4,0.3 M65.9,78.9l-0.1-0.2 M67.1,81.9
	l-0.3,0.2l-0.2,0.3v0.2l0,0.1c0.2,0.1,0.4,0.3,0.6,0.3l0.6-0.2l1.2-0.3l0.7,0.1h0.1l0.7-0.4l0.3-0.3l-0.5-0.2l-0.7-0.1 M70.7,78.6
	c0.3,0.4,0.2,0.8-0.1,1.2c0,0-0.1,0.1-0.1,0.1c-0.2,0.2-0.5,0.5-0.9,0.7c-0.8,0.3-1.4,0.5-1.6,0.5c-0.3,0-0.7,0-1-0.1
	c-0.2-0.1-0.5-0.2-0.7-0.3l-0.1-0.1l-0.1-0.2 M66.8,80.1l-0.3,0.2l-0.2,0.1l-0.1,0.3 M67,81.1l1.2-0.4l0.7-0.1h0.6l0.2,0.1 M67.2,83
	c0.3,0.1,0.6,0.1,1,0.1c0.3,0,0.8-0.2,1.6-0.5 M69.2,78.9c-1,0.5-1.8,0.6-2.6,0.4 M70.5,80L70,79.7l-0.6-0.1 M67.4,83.7L67,84
	L67,84.1l-0.1,0.3l0.1,0.1c0.2,0.1,0.4,0.2,0.7,0.3c0.6-0.3,1.5-0.4,2.6-0.4l0.7-0.4l0.3-0.3L70,83.3 M71.7,84.2l0.1,0.2v0.5v0.1
	l-0.4,0.5l-0.3,0.3l-0.6,0.4L69,86.7h-0.8l-0.3,0l-0.3,0l-0.4-0.3l-0.1-0.1v0 M67,86.1l0.1,0.2l0.1-0.3 M67.7,85.6l-0.3,0.2L67.2,86
	 M67.6,84.8c0.3,0.1,0.6,0.1,0.9,0.1c0.4,0,1-0.2,1.6-0.5 M66.7,84.2l0.2,0.2 M70,88.4l0.8-0.3c-0.9,0-1.8,0.1-2.6,0.4l1.1,0
	L70,88.4z M67.5,88.1v-0.3 M67.5,88.1L67.5,88.1L67.5,88.1l0.4,0.4l0.3,0 M68.1,87.4l-0.3,0.2l-0.1,0.2 M67.4,87.9l0.2,0.2
	 M67.8,89.7l0,0.1l0,0.1c0.2,0.2,0.4,0.3,0.7,0.4c0.7-0.4,1.5-0.5,2.6-0.5c0.8-0.4,1.3-0.8,1.3-1.4l-0.4-0.2 M70.5,77.5
	c0-0.2,0-0.4-0.2-0.7 M70.2,79.1h0.1l0.1,0.1l0.4,0.1 M70.8,81.8l0.2-0.2l0.1-0.3v-0.1L70.8,81l-0.1-0.1 M71.1,81.2l0.1-0.5L71,80.4
	 M71.1,83.6l0.2-0.2l0.2-0.3V83l-0.3-0.2L71,82.7 M71.5,83v-0.5l-0.1-0.2 M70.3,85.1l0.6,0.1l0.5,0.2 M71.3,84.6L71.3,84.6l0.5,0.2
	 M70.8,88l0.7-0.4l0.3-0.3l-0.5-0.2L70.6,87 M71.7,86.5l-0.2-0.1 M71.7,86.5L71.7,86.5 M72.1,86.7l-0.4-0.2 M72.1,86.7v-0.5L72,86
	 M71.8,87.3l0.2-0.2l0.2-0.3v-0.1 M68.5,90.4c0.6,0.1,1.3,0,2.3-0.4c0.1,0,0.2-0.1,0.3-0.1 M72.4,88.5c0-0.2,0-0.4-0.1-0.7
	 M72.3,90.1l0.4,0.2 M73.8,94.9c0.2-0.5,0.3-0.9,0.3-1.2c0-0.2-0.1-0.6-0.4-1.1 M73.1,92.2l-0.5-0.3 M71.5,91.7c-0.6,0-1,0-1.3,0
	c-0.4,0.1-0.9,0.2-1.3,0.4 M69.9,76.3c0.2-0.2,0.4-0.5,0.4-0.7 M70.5,86.2c-1,0-1.9,0.1-2.6,0.4 M70.2,78.1L70.2,78.1 M67.5,88.1
	L67.5,88.1"/>
<path id="Layer0_5_MEMBER_0_MEMBER_1_MEMBER_8_1_STROKES" class="st8" d="M64.8,37c0.2,0.1,0.4,0.2,0.7,0.3c0.6-0.3,1.5-0.5,2.6-0.4
	l0.6-0.4l0.3-0.4l-0.5-0.2l-0.7-0.1h-0.8L66,35.9l-0.7,0.2l-0.5,0.3l-0.1,0.2L64.8,37L64.8,37z M64.5,36.7l0.1,0.2 M64.5,38.1
	l0.1-0.3c-0.8-0.4-0.9-1-0.4-1.8c0.6-0.5,1.4-0.8,2.5-0.9c1.1-0.1,1.9,0.1,2.5,0.5V35l-0.2-0.4l-0.4-0.2L68.1,34l-0.8-0.1h-0.6
	 M66.1,33.2l-0.2,0.1l-1.1,0.3 M68.9,36.1l0.2-0.2l0.2-0.3v-0.1 M69.5,36.6l0.2,0.2 M69.5,36.6c-0.1,0.2-0.3,0.3-0.5,0.4l0.1,0.1
	h0.1l0.4,0.2v-0.5 M66.9,33.1c1,0,1.8,0.2,2.5,0.8c0.8,0.6,0.9,1.3,0.5,2.2c-0.1,0.2-0.2,0.4-0.3,0.5 M60.7,36.6v0.2L60.5,37
	l-0.1,0.1l-0.2,0.1l-1,0.2l-0.3-0.1c-0.1,0.1-0.2,0.2-0.3,0.3c-0.1,0.2-0.1,0.3,0,0.5 M58.9,37.2c0,0,0.1,0,0.1,0 M61.4,36.5
	c0,0.3,0,0.6-0.2,0.9c-0.2,0.3-0.4,0.4-0.8,0.5h-0.1l-1.1,0.3 M69,37c-0.2,0.2-0.6,0.4-0.9,0.5l0.6,0.2l0.5,0.2l0.2-0.2l0.2-0.3
	v-0.1 M69.2,37.9L69,38.3l-0.7,0.4l-1.5,0.5H66l-0.3,0l-0.3,0l-0.3-0.3L65,38.7v-0.2v-0.1l0.2-0.2l0.3-0.2c-0.2,0-0.4-0.1-0.6-0.2
	c-0.1,0-0.2-0.1-0.3-0.1 M69.5,38.9L69.5,38.9l0.5,0.2c0-0.2,0-0.4-0.1-0.7 M68.1,37.6c-0.1,0.1-0.3,0.1-0.5,0.2
	c-0.8,0.3-1.5,0.4-2.1,0.3 M69.9,39.2c0,0.2-0.1,0.4-0.3,0.6c-0.2,0.3-0.6,0.5-1,0.7c-0.1,0-0.2,0.1-0.3,0.1c-1.4,0.5-2.3,0.5-2.9,0
	v-0.1v-0.2v-0.2 M69.8,40.8h0.1l0.4,0.2c0-0.2,0-0.4-0.2-0.7 M69.6,39.8l-1.3-0.4 M64.9,39.7l-0.2,0.2 M65.8,39.9l-0.3,0.2l-0.1,0.2
	 M65.7,42.1l-0.1,0.3l0.1,0.1l0.4,0.3l0.3,0c0.7-0.3,1.6-0.4,2.6-0.4c0.4-0.2,0.7-0.5,0.9-0.7l-0.5-0.3l-0.6-0.1 M65.6,42.4
	L65.6,42.4l-0.1-0.2 M66.2,41.7l-0.3,0.2l-0.1,0.2 M65.2,41.5l-0.2,0.2 M66.5,43.5l-0.3,0.2l-0.2,0.2V44v0.2l0.1,0.1l0.4,0.3l0.3,0
	h0.1l0.5-0.2l0.6-0.2l1.3-0.1c0.4-0.2,0.8-0.5,1.1-0.8c0.2-0.2,0.3-0.4,0.3-0.6l-0.4-0.2h-0.1L70,42.5 M65.6,43.3l-0.2,0.2
	 M66.7,44.6L66.7,44.6L66.7,44.6l0.3,0h0.8l0.8-0.1l0.7-0.3 M66.4,42.7l1,0l0.8-0.1l0.8-0.3 M70.2,43.5l-0.5-0.3l-0.6-0.2
	 M68.3,38.6c-1,0-1.8,0.1-2.5,0.5 M68.6,40.5c-1.1-0.1-1.9,0.1-2.6,0.4 M65.4,37.3c0.7,0.2,1.5,0,2.6-0.4 M70.6,42.8
	c0-0.2,0-0.4-0.2-0.7 M70.3,44.4l0.2,0.1h0.1l0.3,0.2 M70.3,41c0,0.2-0.2,0.5-0.4,0.7 M70.7,46.3h0.2l0.3,0.2c0-0.2,0-0.4-0.1-0.7
	 M69.4,45L70,45l0.5,0.3c0,0,0.1-0.1,0.1-0.1c0.3-0.4,0.4-0.9,0.1-1.3 M70,48.6l0.6,0.1l0.5,0.3l0.2-0.2l0.2-0.4v-0.1l-0.4-0.2h-0.2
	 M71.5,48.3v-0.4l-0.1-0.3 M69.7,46.8l0.6,0.1l0.6,0.3c0,0,0.1-0.1,0.1-0.1c0.1-0.2,0.2-0.4,0.2-0.6 M71.2,49.9h0.2l0.1,0.1l0.4,0.2
	c0-0.2,0-0.5-0.2-0.7 M67.8,50.9l-0.3,0.3l-0.2,0.2v0.1v0.2l0.1,0.2c0.2,0.1,0.4,0.2,0.6,0.3l1.2-0.4l1.3-0.1l0.1,0.1
	c0.4-0.3,0.8-0.6,1-0.7L71,50.6l-0.6-0.1 M67.5,49l-0.3,0.3L67,49.4l-0.1,0.3l0.1,0.1l0.4,0.2l0.3,0.1c0.6-0.2,1-0.4,1.3-0.4
	c0.3,0,0.7-0.1,1.3-0.1l0.6-0.4l0.3-0.3 M71.5,50.8c0,0,0.1-0.1,0.1-0.1c0.2-0.2,0.2-0.4,0.3-0.6 M68.1,52.7L67.7,53l-0.1,0.2l0,0.1
	l0,0.2l0.1,0.1c0.2,0.1,0.4,0.2,0.7,0.3l0.6-0.2l1.3-0.3h0.7l0.1,0.1c0.6-0.5,1-0.7,1.1-0.8c0.1-0.2,0.2-0.4,0.2-0.6l-0.3-0.1
	l-0.1-0.1h-0.2 M72.1,51.9c0-0.2,0-0.4-0.1-0.7 M72.5,53.8l-0.4-0.2 M72.5,53.8v-0.4l-0.2-0.3 M71,54.1l1.1,0.3l0.2-0.2l0.2-0.3
	v-0.1 M70.5,55.1l-1.3,0.3l-0.5,0.2c0.3,0.1,0.6,0.1,0.9,0c0.4,0,1-0.2,1.6-0.5h-0.1L70.5,55.1z M72.4,55.5L72.4,55.5 M72.8,55.7
	l-0.4-0.2 M72.8,55.7v-0.5L72.7,55 M71.3,56l0.6,0.2l0.5,0.2l0.2-0.2l0.2-0.4v-0.1 M71.2,55.2l0.6-0.4l0.3-0.4 M72.7,57.3L72.7,57.3
	l0.4,0.2c0-0.2,0-0.5-0.1-0.7 M73.1,57.5c0,0.2-0.1,0.4-0.3,0.6c0,0,0,0.1-0.1,0.1c-0.2,0.3-0.5,0.5-1,0.7c-1,0.4-1.9,0.6-2.6,0.4
	c-0.2-0.1-0.5-0.1-0.7-0.3l0-0.1l-0.1-0.2 M72.8,58.2l-0.6-0.3l-0.6-0.2 M73,59.1h0.1l0.3,0.2v-0.5l-0.2-0.2 M69.4,60.1L69,60.3
	l-0.1,0.2l0,0.3l0.1,0.1l0.4,0.3l0.3,0c0.6-0.3,1.4-0.5,2.6-0.4l0.6-0.4l0.3-0.3l-0.5-0.2l-0.6-0.1 M68.7,56.4l-0.3,0.2l-0.2,0.3
	v0.2l0.1,0.1c0.2,0.1,0.4,0.3,0.7,0.3c0.7-0.3,1.5-0.5,2.5-0.4l0.7-0.4l0.3-0.3 M73.4,59.3L73.4,59.3l-0.2,0.4L73.1,60 M72.3,61.5
	l0.6,0.1l0.5,0.2l0.2-0.2l0.2-0.3v-0.1L73.3,61h-0.1 M73.8,61.2v-0.5l-0.2-0.2 M72.6,63.3l0.7,0.1l0.5,0.3c0.2-0.2,0.3-0.4,0.4-0.7
	l-0.4-0.2 M74.1,63c0-0.2,0-0.5-0.1-0.7 M73.4,61.8l-0.3,0.3l-0.7,0.4l-0.8,0.3L70.9,63h-0.8l-0.3,0l-0.3,0l-0.4-0.3l-0.1-0.1v-0.2
	l0.2-0.3l0.3-0.2 M69.6,61.1l1,0l1.6-0.5 M72.7,64.4c-1.1-0.1-2,0.1-2.6,0.5c0.6,0.2,1.4,0,2.3-0.4C72.6,64.5,72.7,64.4,72.7,64.4z
	 M72.7,64.4c0.4-0.2,0.8-0.4,1-0.7 M70.6,67.4l-0.3,0.3l-0.1,0.1l-0.1,0.3l0.1,0.1l0.4,0.2l0.3,0.1l0.5-0.3l0.6-0.1l1.4-0.1
	c0.8-0.5,1.2-0.9,1.3-1.4l-0.4-0.2h-0.1l-0.2-0.1 M70.5,66.7c0.6,0.1,1.4,0,2.3-0.4c0.1,0,0.2-0.1,0.3-0.1
	C71.8,66.2,71,66.4,70.5,66.7z M70.5,66.7c-0.2-0.1-0.5-0.2-0.7-0.4l-0.1-0.1l-0.1-0.2 M74.7,66.7c0.1-0.2,0-0.4-0.1-0.7 M74,65.5
	l-0.5-0.3l-0.6-0.1 M73.9,64.6H74l0.4,0.2c0-0.2,0-0.4-0.1-0.7 M74.4,64.8c-0.1,0.5-0.5,1-1.3,1.4 M74.8,70.1l0.5,0.2 M74.5,68.3
	h0.2l0.4,0.2 M70.9,68.5l0.3,0.1l1.5-0.2l0.8-0.3 M70.3,70.9l-0.1,0.2 M73.7,69.8c-0.6,0-1.1,0-1.4,0.1c-0.4,0.1-0.8,0.3-1.2,0.4
	 M71,74.5l-0.1,0.2 M70.6,72.7l-0.1,0.2 M74.3,73.5L73,73.6L71.8,74 M75.6,73.9L76,74 M75.9,75.6L75.9,75.6l0.4,0.3 M74.6,75.4h-0.7
	l-1.2,0.3l-0.5,0.2 M75.2,72L75.2,72l0.5,0.2 M74,71.7c-0.6,0-1.1,0-1.3,0.1c-0.2,0-0.6,0.2-1.3,0.4 M69.6,46c-1,0-1.9,0.1-2.6,0.5
	l0.3,0.1l1.5-0.2L69.6,46z M69.6,46c0.4-0.1,0.7-0.4,1-0.6 M67.1,47.2l-0.5,0.4l0,0.1l0,0.1l0.1,0.1l0.4,0.2l0.3,0.1l0.5-0.3
	l1.3-0.2h0.8c0.4-0.2,0.8-0.4,1-0.6 M67.3,48.3l0.3,0.1l1.5-0.2l0.8-0.3 M66.9,45.4l-0.3,0.2l-0.2,0.2l0,0.1l0,0.2l0.4,0.4l0.3,0.1
	 M65.9,45.2l-0.2,0.2 M66.2,47L66,47.2 M66.9,50.7l-0.2,0.2 M66.5,48.8L66.4,49 M67.7,50.1l0.3,0.1l1.5-0.2l0.8-0.3 M67.9,52
	c0.3,0.1,0.6,0.1,0.9,0c0.5-0.1,1.1-0.2,1.7-0.4 M66.8,49.5l0.1,0.2 M67.7,55.1l0.1,0.2l0.1-0.3l0.2-0.1l0.3-0.2 M67.8,56.2
	l-0.1,0.2 M67.9,55.3L67.9,55.3c0.3,0.2,0.5,0.3,0.8,0.4 M68.3,53.8c0.3,0.1,0.6,0.1,1,0.1c0.4,0,0.9-0.2,1.6-0.5 M67.5,54.3
	l-0.1,0.2 M69,57.5c0.3,0.1,0.6,0.1,0.9,0c0.4,0,0.9-0.2,1.6-0.5 M68.1,58l-0.2,0.3 M68.4,59.9l-0.1,0.2 M68.5,58.9l0.1-0.3l0-0.2
	l0.3-0.2 M67.1,52.5L67,52.7 M68.7,60.6l0.2,0.2 M68.7,61.7l-0.1,0.2 M69.1,63.6l-0.2,0.2 M70,63.7l-0.3,0.2l-0.2,0.2v0.1v0.2v0.1
	c0.2,0.2,0.4,0.3,0.7,0.4 M69.7,67.2l-0.1,0.2 M69.4,65.4l-0.2,0.2 M69.8,66.3l0.1-0.3l0.1-0.2l0.3-0.2 M70,69l-0.2,0.2 M68.3,89.3
	L68,89.4l-0.1,0.2 M68.7,91.1l-0.3,0.2l-0.1,0.1l-0.1,0.3l0.1,0.1l0.4,0.3l0.5,0.1h0.8l0.8-0.1l0.8-0.3c0.4-0.2,0.7-0.5,0.9-0.7
	l-0.5-0.3l-0.6-0.1 M69,92.9l-0.3,0.2l-0.1,0.2l-0.1,0.3l0.1,0.1l0.3,0.3l0.6,0.1l0.8-0.1l0.8-0.1l0.8-0.4c0.4-0.1,0.7-0.4,1-0.6
	l-0.6-0.3l-0.6-0.1 M68,91.6l0.2,0.2 M68.5,93.6l-0.2-0.2 M76.3,79.3l0.2,0.1h0.1l0.4,0.2 M76.8,81.2L76.8,81.2l0.4,0.2 M77.1,83
	h0.1l0.3,0.2 M74.9,77.3l-0.7-0.1L73,77.5l-0.5,0.2 M76.1,77.5l0.2,0.1l0.3,0.2 M71.3,76.4l-0.2,0.2 M71.6,78.2l-0.1,0.2 M72.3,81.9
	l-0.2,0.2 M71.9,80l-0.1,0.3 M75.9,82.7c-0.8,0-1.7,0.1-2.6,0.4 M75.3,79.1c-1.1,0-1.9,0.1-2.6,0.4 M75.6,80.9c-1,0-1.9,0.1-2.6,0.4
	 M76.3,84.6c-1.1,0-2,0.1-2.6,0.4 M76.6,86.4l-1.4,0.1l-0.6,0.1L74,86.9 M72.6,83.7L72.4,84 M72.9,85.6l-0.2,0.2 M72.4,91
	c0.4-0.5,0.5-0.9,0.2-1.4 M72.1,89.1l-0.5-0.2l-0.6-0.1 M73.5,89.3l-0.2,0.2 M73.2,87.4L73,87.6 M79.3,91.4c0.2-0.5,0.3-0.9,0.3-1.2
	c0-0.3-0.2-0.7-0.5-1.1 M78.5,88.7L78,88.5 M77.3,84.8l0.2,0.1h0.1l0.4,0.2 M77.6,86.6l0.2,0.1h0.1l0.4,0.2 M76.9,88.3
	c-1.2,0-2,0.1-2.6,0.4 M73.2,94.4l0.2-0.4l-0.1-0.5l-0.1-0.2 M72.7,92.9c0-0.1,0.1-0.1,0.1-0.2c0.3-0.4,0.4-0.9,0.1-1.3 M71.8,58.9
	c-1,0-1.8,0.1-2.6,0.4 M70.1,68.1L70,67.9 M69.9,63c0.7-0.3,1.6-0.5,2.5-0.5 M67.5,53.4L67.5,53.4"/>
<path id="Layer0_5_MEMBER_0_MEMBER_1_MEMBER_9_1_STROKES" class="st9" d="M66.1,33.2v0.2L66,33.6 M66.9,33v0.6L66.6,34l-0.2,0.2
	l-0.3,0.2h-0.3l-1,0.3h-0.5c-0.5-0.3-0.5-0.6,0-0.9c0.1,0,0.1-0.1,0.2-0.1l0.3-0.1 M64.3,33.8l0.3,0.1l1.1-0.2l0.2-0.1 M59.3,38.1
	H59 M59,37.2l0.2-0.2 M74.3,67.3l-0.5-0.3L73.2,67 M73.6,68.8l0.6,0.1l0.5,0.3l0.2-0.2l0.2-0.4l0.1-0.5l-0.2-0.3 M71,69.3l-0.3,0.3
	l-0.1,0.2l-0.1,0.3l0.1,0.1l0.4,0.2l0.6,0.2l1.5-0.2l0.8-0.3l0.7-0.4l0.3-0.3 M71.2,71.1l-0.3,0.3l-0.2,0.1l-0.1,0.3l0.1,0.2
	l0.4,0.2l0.6,0.1l1.5-0.2l0.8-0.3c0.5-0.3,0.8-0.6,1-0.8l-0.5-0.2l-0.6-0.1 M75.2,69.7c0.1,0.5,0.1,0.9-0.2,1.3c0,0,0,0.1-0.1,0.1
	 M70.3,69.7l0.1,0.2 M70.7,71.8L70.7,71.8l-0.1-0.2 M71.6,72.9l-0.3,0.3l-0.1,0.1L71,73.6l0.1,0.1c0.6,0.3,1.1,0.4,1.6,0.3
	c0.3,0,0.8-0.2,1.6-0.5c0.4-0.4,0.8-0.6,0.9-0.8l-0.5-0.2l-0.6-0.1 M71,73.6l-0.1-0.2 M75.9,73.3c0.3,0.4,0.3,0.8-0.1,1.3
	c0,0-0.1,0.1-0.1,0.1c-0.2,0.2-0.5,0.4-1,0.7c-0.7,0.3-1.2,0.4-1.6,0.5c-0.6,0.1-1.2,0-1.6-0.3l-0.1-0.1l-0.1-0.2 M71.4,75.1l0,0.3
	 M75.3,72.8c0.1-0.1,0.1-0.1,0.1-0.1c0.4-0.4,0.4-0.8,0.1-1.2 M75.6,74.7l-0.5-0.2l-0.6-0.2 M75.1,78l0.6,0.1l0.5,0.2l0.2-0.2
	l0.2-0.3v-0.5L76.5,77 M75.5,79.8l0.6,0.1l0.5,0.2l0.2-0.2l0.2-0.3v-0.5l-0.1-0.2 M73.2,82.1l-0.3,0.2l-0.2,0.2l-0.1,0.1v0.2v0.1
	l0.4,0.3l1.4,0.1l0.7-0.1l1.4-0.8l0.3-0.3l-0.5-0.2l-0.7-0.1 M76.9,82l0.2-0.2l0.1-0.3l0.1-0.5l-0.1-0.2 M76.1,83.5l0.6,0.1l0.6,0.2
	l0.2-0.2l0.1-0.3v-0.5l-0.1-0.3 M72.2,76.6l-0.3,0.2L71.8,77l-0.1,0.4l0,0c0.5,0.3,1,0.4,1.6,0.3c0.4,0,0.9-0.2,1.6-0.5
	c0.4-0.2,0.8-0.5,1-0.7l-0.6-0.3l-0.6-0.1 M72.6,78.5l-0.3,0.2L72,78.9l0,0.1l0,0.1l0.1,0.1c0.5,0.3,1,0.4,1.6,0.3
	c0.4,0,0.9-0.2,1.6-0.5l0.6-0.4l0.3-0.4 M71.6,77.1l0.1,0.2 M72.3,81L72.3,81v-0.3 M72.9,80.3l-0.3,0.2l-0.1,0.2 M72.3,80.9l0.1,0.1
	l0.4,0.3l0.5,0.1h0.8l1.5-0.5l0.7-0.4l0.3-0.3 M73.5,84l-0.3,0.2l-0.1,0.1L73,84.6l0.1,0.1l0.4,0.3l1.3,0.1l0.8-0.1l1.4-0.8l0.3-0.3
	 M73.8,85.8L73.5,86l-0.2,0.2l-0.1,0.2l0.1,0.1l0.4,0.3l0.5,0.1h0.8l0.8-0.1l0.8-0.3c1.2-0.7,1.6-1.4,1.2-2 M72.8,84.4l0.2,0.2
	 M73.6,88L73.6,88v0.2l0.1,0.1l0.3,0.3l0.6,0.2l1.5-0.2l0.8-0.3l0.7-0.4l0.3-0.3l-0.5-0.3l-0.6-0.1 M73.6,88.3L73.6,88.3 M74.2,87.6
	l-0.3,0.2L73.7,88 M74.5,89.4l-0.4,0.3L74,89.9l0,0.1l0,0.1l0.1,0.2l0.4,0.2l0.6,0.1l1.5-0.2l0.7-0.3c0.5-0.2,0.8-0.5,1-0.7
	l-0.6-0.3L77,89.1 M73.3,86.5l-0.1-0.2 M77.8,87.5l0.2-0.2l0.1-0.4l0.1-0.5l-0.2-0.3 M77.5,85.7L77,85.5l-0.6-0.2 M78.2,89.4
	c0,0,0.1-0.1,0.1-0.1c0.3-0.3,0.3-0.8,0.2-1.3 M73.8,94.9l-0.6,0.8c0,0.2-0.2,0.3-0.5,0.5c-0.3,0.1-0.5,0.2-0.7,0.3
	c-0.1,0-0.3-0.1-0.4-0.2l1.7,9.8c0.6-0.3,1.5-0.1,2.5,0.5c0.2,0.1,0.4,0.2,0.5,0.3l0.1-0.3l0.3-0.3l0.7-0.4l0.3,0l0.3-0.4l0.2-0.1
	l0.1-0.6l-2-12.1l-0.1-0.1v-0.2c0-0.5,0.1-0.7,0.4-0.7c0.3,0,0.5,0.2,0.8,0.5v0.1h0.1l0.2-0.1L78,92l0.1-0.1v-0.1l0.6-0.9l0.1-0.4
	v-0.5l-0.1-0.2 M76.6,92.2l0.1,0.1l0.5,0.4c0,0,0,0.1,0.1,0.1c0.2,0.2,0.4,0.2,0.8,0c0.4-0.2,0.6-0.4,0.7-0.6l0.6-0.8 M82.2,111.3
	c0.4-0.4,0.6-0.9,0.5-1.5c-0.1-0.6-0.3-1.2-0.7-2c-0.1-0.1-0.1-0.2-0.2-0.3c-0.5-0.9-1.1-1.5-1.7-1.9c0,0-0.1,0-0.1,0
	c-0.3-0.2-0.6-0.3-0.9-0.3l0,0.1l-0.1,0.5l-0.2,0.2c0.9,0.4,1.6,1.2,2.3,2.6c0.7,1.4,0.8,2.5,0.2,3.2l3.3,1.1l0.5,0.3l0.4,0.3
	l0.1,0.4l0.3,0.9l-0.1,0.5l-0.3,0.5l-0.4,0.4l-0.6,0.5l-7.7,4.8l-1.8,0.6l-1.8,0.2l-1.5-0.2l-6.2-2.1l-0.5-0.3l-0.4-0.3l-0.4-1.3
	l0.1-0.4c0.2-0.6,1-1.3,2.6-2.2c1.3-0.7,1.8-1.6,1.4-2.6l3.5-5.6l0.4-0.5l0.5-0.3L71,96.1v-0.4v-0.3l0.2-0.2l0.2-0.1h0.1l0.2,0.1
	l0.5,0.5l0.2-0.1l0.2-0.1l0.2-0.2l0.5-0.9 M72.2,95.7L72.2,95.7l-0.2,0 M71.8,96.3c-0.1,0-0.1-0.1-0.2-0.1L71,95.7 M72.3,106.7
	l0.5-0.2l0-0.1 M73.3,109.6l0.2-0.3l0.1-0.2l0.1-0.3v-0.3v-0.3l-0.1-0.6l-0.2-1.1l-0.1-0.4 M79.2,105.2l0-0.5l-0.1-0.6l-1.9-11.3
	 M80.1,112.4l0.4-0.1l0.4-0.3l0.2-0.5v-0.7l-0.3-1.6l-0.9-1.6l-0.6-0.6l-0.7-0.5l-0.6-0.3l-0.6-0.1l-0.5,0.1 M78.4,105.5l-0.2,0.1
	 M78.4,105.5L78.4,105.5 M77.8,105.9l0.2,0h0.1l0.1-0.1l0.2-0.3l0-0.1 M78.6,105.9c0.1,0,0.2,0.1,0.3,0.1 M80.2,105.6l0.7-0.4
	L80.2,105.6 M76,76.5c0.3-0.4,0.4-0.9,0.2-1.4 M79.8,111.3l-0.2,0.1c0.1,0.3,0.2,0.6,0.3,0.9l1.3,4.5l0.3,0.3l0.4,0.1l3-1.9l0.5-0.5
	l0.2-0.5l0.1-0.5 M82.7,109.8l0.7-0.5l-0.6-2.3l-0.9,0.5 M76.5,106.9c0.3,0.2,0.6,0.4,0.8,0.7c0.2,0.2,0.5,0.5,0.6,0.8
	c0.7,0.8,1.3,1.9,1.7,3.1 M73.6,109.1c1.1,0.4,2.1,1.4,2.8,3l0.3,0.8l0.1,1.4l-0.2,0.5l-0.3,0.3l0.6-0.4c0.5-0.4,0.7-1,0.6-1.9
	c-0.1-0.6-0.4-1.3-0.8-2c-1-1.4-2-2.2-2.9-2.3 M81.8,111.6l0.3-0.2 M81.3,111.8c-0.1,0.1-0.1,0.1-0.2,0.2l-0.7,0.4 M73.5,106.5
	c1.2,0.2,2.4,0.9,3.5,2.4c1.1,1.3,1.8,2.6,2,3.9l1.1,4.3v0.5l-0.1,0.6l-0.3,0.5l-0.3,0.3l-2.8,1.7l-1.8,0.6c-1.5,0.3-3,0.2-4.6-0.4
	c-2.9-1.1-4.5-1.6-4.9-1.7l-0.5-0.3l-0.3-0.3l-0.2-0.4 M72.6,109.4l0.3-0.4l-0.3,0.1l-0.4,0.5l0.5,0.1l0.6,0.3l0.6,0.5l0.6,0.6
	l0.5,0.8c0.8,1.2,1.1,2.3,0.7,3.2c-0.1,0.2-0.1,0.3-0.2,0.4c-0.1,0.1-0.2,0.2-0.3,0.2c-0.5,0.2-1.2,0-2.2-0.7l-0.1,0.1l-0.7,0.4
	l-0.4,0.2l-0.3,0.2l-0.3-0.3c-0.1,0.1-0.1,0.2-0.2,0.2l-0.3-0.1l-0.3-0.1c-0.1,0-0.2-0.1-0.2-0.1c-0.3-0.1-0.4-0.2-0.5-0.4
	c-0.1-0.2-0.2-0.4-0.3-0.8v-0.5l0.1-0.3l0.2-0.2v-0.1l0,0l0-0.4l0.2-0.1l1.4-0.9l-0.2,0.1l-0.2-0.9v-0.6l0.2-0.5l0.4-0.3l0.3,0
	l0.3,0h0 M72.6,109.1l0.3-0.1l0.1-0.4v-0.9l-0.2-1.1 M72.9,109L72.9,109 M72.5,111.3l0.2-0.1l0.7,0.8l0.7,0.5v0.4l0.1,0.5l0.2,0.5
	l0.2,0.3l-0.9,0.5l0.2,0.1l0.5,0.1l0.3-0.1l0.1-0.2l0.1-0.1l0.1-0.5l-0.1-0.6l-0.2-0.7l-0.8-1.2l-1-0.7l-0.5-0.1l-0.1,0l-0.2,0.1
	l-0.2,0.3l-0.1,0.5l0,0C72.1,111.5,72.3,111.4,72.5,111.3z M72.5,111.3l-0.9,0.6l-0.1,0 M71.4,115.6c0.1-0.2,0.2-0.4,0.1-0.7
	c-0.2-0.4-0.4-0.8-0.5-1l-0.3-0.3l-0.4-0.2h-0.3 M70.1,112.7L70.1,112.7l0.2,0.4 M69.6,114.3l0.1-0.2l0.1-0.1H70l0.3,0.1l0.2,0.2
	l0.2,0.3l0.1,0.3v0.3l-0.1,0.2l-0.1,0.2 M72.9,113.7l0.3-0.2l0.3-0.1l0.1,0.2v0.5 M71.3,114l2.8-1.7 M76,115.2l0.3-0.1 M73.6,114.7
	L73.6,114.7l-0.4,0.3l-0.1,0.1 M71.7,115.4l0.2,0.3 M82.8,107l-1.9-1.8"/>
<g>
	<path id="Layer0_6_MEMBER_1_1_STROKES" class="st10" d="M288,56.5l-22.8,13.2"/>
	<path id="Layer0_6_MEMBER_2_1_STROKES" class="st10" d="M287.8,36.7l2.2-1.2"/>
	<path id="Layer0_6_MEMBER_3_1_STROKES" class="st10" d="M256.7,54.7l8.8-5.1"/>
	<path id="Layer0_6_MEMBER_4_1_STROKES" class="st10" d="M265.6,49.5l0.3-0.2l0.1-0.1l0.1-0.1l0.6-0.8l0.2-0.5l0.2-0.7l0-0.2v-0.5
		l0-0.1v-0.2l0-0.1v-0.2l0.1-0.8l0.1-0.2l0.5-0.5l0.1-0.1l0.1-0.1l0.1-0.1l0.1,0l0.9-0.6"/>
	<path id="Layer0_6_MEMBER_5_1_STROKES" class="st10" d="M287.8,36.7l-10.8,3.5"/>
	<path id="Layer0_6_MEMBER_6_1_STROKES" class="st10" d="M294.3,36l-6.2,3.5"/>
	<path id="Layer0_6_MEMBER_7_1_STROKES" class="st10" d="M284.6,44.6l-7.7-4.4"/>
	<path id="Layer0_6_MEMBER_8_1_STROKES" class="st10" d="M269,43.5l8.8,5"/>
	<path id="Layer0_6_MEMBER_9_1_STROKES" class="st10" d="M293.6,35l-10.9,6.3"/>
	<path id="Layer0_6_MEMBER_10_1_STROKES" class="st10" d="M288.1,39.5l-5.4,1.8"/>
	<path id="Layer0_6_MEMBER_11_1_STROKES" class="st10" d="M287.8,36.8l0.8,1"/>
	<path id="Layer0_6_MEMBER_12_1_STROKES" class="st10" d="M290,38.6l1.9,0.5"/>
	<path id="Layer0_6_MEMBER_13_1_STROKES" class="st10" d="M293.1,41.3c0-1-0.4-1.7-1.2-2.2"/>
	<path id="Layer0_6_MEMBER_14_1_STROKES" class="st10" d="M291.6,43.7c0.5-0.2,0.8-0.5,1.1-1c0.3-0.4,0.4-0.9,0.4-1.4"/>
	<path id="Layer0_6_MEMBER_15_1_STROKES" class="st10" d="M278.4,52l-4,2.3"/>
	<path id="Layer0_6_MEMBER_16_1_STROKES" class="st10" d="M270,50.6c-0.9-0.8-1.8-1.1-3-1.1c-0.7,0-1.4,0.2-2.1,0.5"/>
	<path id="Layer0_6_MEMBER_17_1_STROKES" class="st10" d="M270,50.5l0.4,0.4l0.3,0.5l0.2,0.6l0.1,0.6"/>
	<path id="Layer0_6_MEMBER_18_1_STROKES" class="st10" d="M271,52.6c0,0.6,0.2,1.1,0.6,1.5c0.4,0.4,0.9,0.6,1.5,0.6
		c0.4,0,0.8-0.1,1.2-0.4"/>
	<path id="Layer0_6_MEMBER_19_1_STROKES" class="st10" d="M270.8,31.7l11.6,6.7"/>
	<path id="Layer0_6_MEMBER_20_1_STROKES" class="st10" d="M265.2,29.6L224.3,8.7"/>
	<path id="Layer0_6_MEMBER_21_1_STROKES" class="st10" d="M219.5,11.9l-0.3-0.2l-0.2-0.3l0-0.2v-0.1"/>
	<path id="Layer0_6_MEMBER_22_1_STROKES" class="st10" d="M289.6,57.2L276.8,51"/>
	<path id="Layer0_6_MEMBER_23_1_STROKES" class="st10" d="M302.9,50.2l-12.6-7.3"/>
	<path id="Layer0_6_MEMBER_24_1_STROKES" class="st10" d="M305.8,52.9l37.7,24.2"/>
	<path id="Layer0_6_MEMBER_25_1_STROKES" class="st10" d="M338,79.4l5.5-2.3"/>
	<path id="Layer0_6_MEMBER_26_1_STROKES" class="st10" d="M336.6,79.1l0.2,0.1l0.2,0.1l0.5,0.1l0.5,0"/>
	<path id="Layer0_6_MEMBER_27_1_STROKES" class="st10" d="M281.9,63l-0.1,0.1l-1.2,1.3l-0.4,0.5l-0.1,0.1l-0.4,0.8l-0.1,0.2l0,0.1
		l-0.1,0.3v0.3l0,0.1l0,0.1v0.1l0.1,0.1l0.5,0.1h0.6l0.8-0.2l0.2-0.1l0.2,0l0.7-0.2l0.9-0.4l0.2-0.1"/>
	<path id="Layer0_6_MEMBER_28_1_STROKES" class="st10" d="M292,55.6l-6.7,4.3l-3.1,2.7l-0.2,0.2"/>
	<path id="Layer0_6_MEMBER_29_1_STROKES" class="st10" d="M284.7,69.1l0.1-0.1l0.2-0.1l0.3-0.1l0.6-0.3"/>
	<path id="Layer0_6_MEMBER_30_1_STROKES" class="st10" d="M293.8,58.1l-0.1,0.1l0,0.1l-0.1,0.1l0,0.1v0.3l0,0v0.1l0,0.1l0,0.1l0,0.1
		l0.1,0v0.1l0.1,0.1l0.1,0"/>
	<path id="Layer0_6_MEMBER_31_1_STROKES" class="st10" d="M286.1,68.4l9.2-4.9l0.3-0.1"/>
	<path id="Layer0_6_MEMBER_32_1_STROKES" class="st10" d="M312.5,52.1l1.2-1.1l0.8-1l0.1-0.2l0.1-0.3l0-0.1l0.1-0.6v-0.2l-0.1-0.2
		l0-0.1l0-0.1l-0.1-0.1l-0.1-0.1l-0.1-0.1l-0.2-0.2l-0.3-0.1"/>
	<path id="Layer0_6_MEMBER_33_1_STROKES" class="st10" d="M283.7,66.1l0.2-0.1l0.2-0.2l0.1-0.3l0.1-0.3l0-0.3l-0.2-0.8l-0.4-0.6
		l-0.3-0.3l-0.3-0.2l-0.3-0.1l-0.3-0.1l-0.3,0l-0.2,0.1"/>
	<path id="Layer0_6_MEMBER_34_1_STROKES" class="st10" d="M283.3,66.8l0.7,0.4"/>
	<path id="Layer0_6_MEMBER_35_1_STROKES" class="st10" d="M284,68.5l0.1,0.1h0.1l0.1,0l0.1-0.1l0.1-0.1v-0.4l-0.1-0.2l-0.1-0.2
		l-0.2-0.3l-0.1-0.1"/>
	<path id="Layer0_6_MEMBER_36_1_STROKES" class="st10" d="M284,69.1l-1.6-1"/>
	<path id="Layer0_6_MEMBER_37_1_STROKES" class="st10" d="M309.8,48.1L309.8,48.1L309.8,48.1l0.2,0.1l0.1,0.1l0.1,0.1l0.3,0.2
		l0.3,0.3l0.1,0.1L311,49l0.1,0.1l0.1,0.1l0,0.1l0.2,0.1l0.1,0h0.2l0.1,0h0.2l0.2,0l0.2-0.1l1.4-0.5l0.3-0.2l0.2-0.2l0.1-0.2l0-0.1
		v-0.2l0-0.1l-0.1-0.1H314l-0.1,0h-0.1l-0.1,0l-0.1,0h-0.1l-0.1,0h-0.6l-1.4,0.1l-0.3,0.1l-0.2,0l-0.2,0.1l-0.5,0l-0.2,0L309.8,48.1
		z M309.8,48.1l-0.2-0.1h-0.1l-0.5-0.2h-0.1l-0.1,0h-0.2"/>
	<path id="Layer0_6_MEMBER_38_1_STROKES" class="st10" d="M295.7,63.4l2.8-1.7"/>
	<path id="Layer0_6_MEMBER_39_1_STROKES" class="st10" d="M336.7,79.2l-42.6-19.8"/>
	<path id="Layer0_6_MEMBER_40_1_STROKES" class="st10" d="M305.8,52.9l-1.6,0.3l-2.5,1"/>
	<path id="Layer0_6_MEMBER_41_1_STROKES" class="st10" d="M312.5,52.1l-3.4,2.5"/>
	<path id="Layer0_6_MEMBER_42_1_STROKES" class="st10" d="M270.8,31.7l-4.2,1l-1.1,0.5"/>
	<path id="Layer0_6_MEMBER_43_1_STROKES" class="st10" d="M257.3,38.5l9.8,6.7"/>
	<path id="Layer0_6_MEMBER_44_1_STROKES" class="st10" d="M257.2,37.7L257.2,37.7l0,0.1l0,0.1v0.2l0,0.1v0l0,0.1l0,0.1l0.1,0.3"/>
	<path id="Layer0_6_MEMBER_45_1_STROKES" class="st10" d="M253.2,35.9l-33.7-24"/>
	<path id="Layer0_6_MEMBER_46_1_STROKES" class="st10" d="M283.7,66.1l0.2-0.1l0.2,0h0.2l0.2,0.1l0.5,0.2"/>
	<path id="Layer0_6_MEMBER_47_1_STROKES" class="st10" d="M281.8,67.4l0,0.1l0.1,0.1l0.1,0.2l0.1,0.1l0.1,0.1l0.1,0.1"/>
	<path id="Layer0_6_MEMBER_48_1_STROKES" class="st10" d="M245.4,41.8l-1.2,1.3l-0.5,0.7l-0.1,0.1l-0.1,0.1l-0.1,0.1l-0.1,0.1
		l-0.1,0.2L243,45l-0.1,0.1l0,0.1v0.3l0,0.1l0,0v0.1l0.1,0.1l0.1,0l0.1,0.1h0.1l0.1,0h0.2l0.2,0h0.2l0.4-0.1h0.2l0.4-0.1l0.2,0
		l0.6-0.2l1.3-0.5l0.1-0.1"/>
	<path id="Layer0_6_MEMBER_49_1_STROKES" class="st10" d="M255.8,34.3l-6.6,4.3l-0.8,0.6l-3,2.6"/>
	<path id="Layer0_6_MEMBER_50_1_STROKES" class="st10" d="M248.2,47.9l1.3-0.6"/>
	<path id="Layer0_6_MEMBER_51_1_STROKES" class="st10" d="M249.6,47.3l9.6-5.1"/>
	<path id="Layer0_6_MEMBER_52_1_STROKES" class="st10" d="M276,31l1.2-1.1l0.9-1.1l0.3-0.4l0-0.1v-0.1l0.1-0.4l0-0.1v-0.3l-0.1-0.2
		l0-0.1l0-0.1l-0.1-0.2l-0.1-0.1l-0.1-0.1l-0.1-0.1l-0.1-0.1l-0.2-0.1"/>
	<path id="Layer0_6_MEMBER_53_1_STROKES" class="st10" d="M247.2,45l0.3-0.3l0.1-0.3l0.1-0.3l0-0.4l-0.1-0.3l-0.3-0.7l-0.2-0.3
		l-0.3-0.3l-0.5-0.4l-0.3-0.1h-0.3l-0.2,0.1"/>
	<path id="Layer0_6_MEMBER_54_1_STROKES" class="st10" d="M246.7,45.7l0.8,0.4"/>
	<path id="Layer0_6_MEMBER_55_1_STROKES" class="st10" d="M247.5,47.4h0.2l0.1-0.1l0.1-0.1l0-0.1V47l0-0.2l-0.1-0.2l-0.2-0.3
		l-0.3-0.3"/>
	<path id="Layer0_6_MEMBER_56_1_STROKES" class="st10" d="M247.5,48l-1.7-0.9"/>
	<path id="Layer0_6_MEMBER_57_1_STROKES" class="st10" d="M272.7,26.7h0.1l0.1,0l0.1,0l0.1,0.1l0.2,0.1l0.2-0.1l0.8-0.1l0.4-0.1
		l0.3-0.1l0.8-0.1h1.5l0.2,0.1h0.1l0.1,0.1l0.1,0l0,0.1l0,0.1v0.1l0,0.1l-0.1,0.2l-0.1,0.2l-0.1,0.1l-0.1,0.1l-0.2,0.1l-0.2,0.1
		l-0.9,0.3l-0.9,0.2h-0.2l-0.1,0l-0.1-0.1l-0.1,0l-0.1-0.1l-0.1-0.1l-0.1-0.1l-0.1-0.1l-0.1-0.2l-0.1-0.1l-0.1-0.1l-0.2-0.1
		l-0.1-0.1l-0.1-0.1l-0.1-0.1l-0.1-0.1l-0.1-0.1"/>
	<path id="Layer0_6_MEMBER_58_1_STROKES" class="st10" d="M259.1,42.3l2-1.1"/>
	<path id="Layer0_6_MEMBER_59_1_STROKES" class="st10" d="M276,31l-2.6,1.9"/>
	<path id="Layer0_6_MEMBER_60_1_STROKES" class="st10" d="M247.1,45l0.2-0.1l0.2,0l0.2,0l0.6,0.2"/>
	<path id="Layer0_6_MEMBER_61_1_STROKES" class="st10" d="M245.2,46.2l0.1,0.2l0.1,0.2l0.2,0.3l0.1,0.1l0.1,0.1"/>
	<path id="Layer0_6_MEMBER_62_1_STROKES" class="st10" d="M340.5,77.7l-2.3-1.6"/>
	<path id="Layer0_6_MEMBER_63_1_STROKES" class="st10" d="M338.1,76.2l1.7-0.3"/>
	<path id="Layer0_6_MEMBER_64_1_STROKES" class="st10" d="M339.9,75.9l-35.2-22.6"/>
	<path id="Layer0_6_MEMBER_65_1_STROKES" class="st10" d="M301.3,50.9l-13.1-7.5"/>
	<path id="Layer0_6_MEMBER_66_1_STROKES" class="st10" d="M290.3,42.9l-5.7,1.7"/>
	<path id="Layer0_6_MEMBER_67_1_STROKES" class="st10" d="M294.9,56.9l-2.9-1.3"/>
	<path id="Layer0_6_MEMBER_68_1_STROKES" class="st10" d="M258.6,36.3l-2.8-2"/>
	<path id="Layer0_6_MEMBER_69_1_STROKES" class="st10" d="M280.4,39.1l-11.8-6.8"/>
	<path id="Layer0_6_MEMBER_70_1_STROKES" class="st10" d="M330,68.5l-2.6,1"/>
	<path id="Layer0_6_MEMBER_71_1_STROKES" class="st10" d="M327.4,69.5l-17.7-11.4"/>
	<path id="Layer0_6_MEMBER_72_1_STROKES" class="st10" d="M309.7,58.1l1.5-0.6"/>
	<path id="Layer0_6_MEMBER_73_1_STROKES" class="st10" d="M317.7,63.3l1.6-0.6"/>
	<path id="Layer0_6_MEMBER_74_1_STROKES" class="st10" d="M276.8,51l-0.2-0.7l0.1-0.6l0.4-0.6l0.7-0.5"/>
	<path id="Layer0_6_MEMBER_75_1_STROKES" class="st10" d="M301.6,54.3l-3.3-1.9"/>
	<path id="Layer0_6_MEMBER_76_1_STROKES" class="st10" d="M293.8,58.1l1.1-1.1"/>
	<path id="Layer0_6_MEMBER_77_1_STROKES" class="st10" d="M257.4,37.4l0.4-0.4l0.4-0.3l0.5-0.3"/>
	<path id="Layer0_6_MEMBER_78_1_STROKES" class="st10" d="M262,31.2l3.6,2.1"/>
	<path id="Layer0_6_MEMBER_79_1_STROKES" class="st10" d="M264.2,30.2L224.8,10"/>
	<path id="Layer0_6_MEMBER_80_1_STROKES" class="st10" d="M224.8,10l-1.8,0.8"/>
	<path id="Layer0_6_MEMBER_81_1_STROKES" class="st10" d="M223,10.8l-1.9-0.9"/>
	<path id="Layer0_6_MEMBER_82_1_STROKES" class="st10" d="M218.9,11.1l2.4-1.4l3-1"/>
	<path id="Layer0_6_MEMBER_83_1_STROKES" class="st10" d="M236.1,14.7l-2.7,0.9"/>
	<path id="Layer0_6_MEMBER_84_1_STROKES" class="st10" d="M233.4,15.6l19.5,10"/>
	<path id="Layer0_6_MEMBER_85_1_STROKES" class="st10" d="M252.9,25.6l1.2-0.6"/>
	<path id="Layer0_6_MEMBER_86_1_STROKES" class="st10" d="M242.7,20.3l1.4-0.5"/>
	<path id="Layer0_6_MEMBER_87_1_STROKES" class="st10" d="M255.8,24.3l0.2,0.1l0.1,0"/>
	<path id="Layer0_6_MEMBER_88_1_STROKES" class="st10" d="M313.5,57.6h0.3l0.1,0l0.1,0.1l0.1,0l0.1,0.1v0.1l0,0.1"/>
	<path id="Layer0_6_MEMBER_89_1_STROKES" class="st10" d="M327.1,66.4L327.1,66.4l0.2,0l0.1,0h0.2l0.2,0.1l0,0.1l0.1,0l0,0l0,0.1"/>
	<path id="Layer0_6_MEMBER_90_1_STROKES" class="st10" d="M292.9,35.3l-0.6-0.2l-1.2,0l-1,0.3l-0.1,0.1"/>
	<path id="Layer0_6_MEMBER_91_1_STROKES" class="st10" d="M300.1,48.4l0.2-0.7l0.1-1.4l-0.2-1.6l-1.1-3.3l-1.9-3l-1.2-1.3l-1.3-1
		l-0.3-0.2"/>
	<path id="Layer0_6_MEMBER_92_1_STROKES" class="st10" d="M256.7,54.7c1.2-0.7,2.6-0.5,4.3,0.4c1.7,1,3.1,2.5,4.3,4.6
		c1.2,2.1,1.8,4.1,1.8,6c0,1.9-0.6,3.2-1.8,3.9c-1.2,0.7-2.6,0.5-4.3-0.4c-1.7-1-3.1-2.5-4.3-4.6c-1.2-2.1-1.8-4.1-1.8-6
		C254.9,56.7,255.5,55.4,256.7,54.7z"/>
	<path id="Layer0_6_MEMBER_93_1_STROKES" class="st10" d="M294.3,36l0-0.1v-0.4l0-0.1l-0.1-0.2l-0.1-0.1l0-0.1l0,0v0l0,0l-0.1,0l0,0
		h-0.1"/>
	<path id="Layer0_6_MEMBER_94_1_STROKES" class="st10" d="M279.3,54.7L279.3,54.7L279.3,54.7L279.3,54.7z M279.3,54.7L279.3,54.7
		L279.3,54.7l0.1,0v0h0.1l0,0h0.1"/>
	<path id="Layer0_6_MEMBER_95_1_STROKES" class="st10" d="M279,56.7h-0.2l0,0h0v-0.1h0"/>
	<path id="Layer0_6_MEMBER_96_1_STROKES" class="st10" d="M279.3,54.7l-0.2,0.1l-0.1,0.1l-0.2,0.1"/>
	<path id="Layer0_6_MEMBER_97_1_STROKES" class="st10" d="M279.1,56.7l0.2-0.1l0.4-0.3"/>
	<path id="Layer0_6_MEMBER_98_1_STROKES" class="st10" d="M278.7,56.5l-0.1-0.3l-0.2-0.6"/>
	<path id="Layer0_6_MEMBER_99_1_STROKES" class="st10" d="M279.8,55.8l0-0.3l-0.3-0.8"/>
	<path id="Layer0_6_MEMBER_100_1_STROKES" class="st10" d="M278.6,55.1L278.6,55.1L278.6,55.1L278.6,55.1l-0.1,0.1v0.2l0,0"/>
	<path id="Layer0_6_MEMBER_101_1_STROKES" class="st10" d="M277.1,56h0.2v0h0v0"/>
	<path id="Layer0_6_MEMBER_102_1_STROKES" class="st10" d="M276.6,58.1L276.6,58.1l-0.1-0.1l0,0"/>
	<path id="Layer0_6_MEMBER_103_1_STROKES" class="st10" d="M277,56l-0.1,0.1l-0.1,0.1l-0.2,0.1"/>
	<path id="Layer0_6_MEMBER_104_1_STROKES" class="st10" d="M276.8,58.1L277,58l0.4-0.3"/>
	<path id="Layer0_6_MEMBER_105_1_STROKES" class="st10" d="M276.5,57.7l-0.1-0.3l-0.2-0.6"/>
	<path id="Layer0_6_MEMBER_106_1_STROKES" class="st10" d="M277.6,57.1l-0.1-0.3l-0.2-0.8"/>
	<path id="Layer0_6_MEMBER_107_1_STROKES" class="st10" d="M276.4,56.4L276.4,56.4L276.4,56.4L276.4,56.4l-0.1,0.1v0.1l0,0v0.1"/>
	<path id="Layer0_6_MEMBER_108_1_STROKES" class="st10" d="M274.9,57.2L274.9,57.2L274.9,57.2h0.1v0"/>
	<path id="Layer0_6_MEMBER_109_1_STROKES" class="st10" d="M274.4,59.3L274.4,59.3L274.4,59.3L274.4,59.3l-0.1-0.1l0,0v-0.1"/>
	<path id="Layer0_6_MEMBER_110_1_STROKES" class="st10" d="M274.8,57.3l-0.1,0.1l-0.2,0.1l-0.2,0.1"/>
	<path id="Layer0_6_MEMBER_111_1_STROKES" class="st10" d="M274.6,59.3l0.6-0.4"/>
	<path id="Layer0_6_MEMBER_112_1_STROKES" class="st10" d="M274.2,59.1l-0.2-0.9"/>
	<path id="Layer0_6_MEMBER_113_1_STROKES" class="st10" d="M275.4,58.4l-0.1-0.3l-0.2-0.8"/>
	<path id="Layer0_6_MEMBER_114_1_STROKES" class="st10" d="M274.1,57.7L274.1,57.7L274.1,57.7l-0.1,0.1l0,0v0.1l0,0"/>
	<path id="Layer0_6_MEMBER_115_1_STROKES" class="st10" d="M275.4,58.5L275.4,58.5l-0.1,0.3l-0.1,0.1"/>
	<path id="Layer0_6_MEMBER_116_1_STROKES" class="st10" d="M272.3,60.6h-0.1v0h0v0h-0.1l-0.1-0.1v0h0v-0.1"/>
	<path id="Layer0_6_MEMBER_117_1_STROKES" class="st10" d="M272.5,58.6l-0.2,0.1l-0.1,0.1l-0.1,0.1"/>
	<path id="Layer0_6_MEMBER_118_1_STROKES" class="st10" d="M272.3,60.6l0.2-0.1l0.1-0.1l0.3-0.2"/>
	<path id="Layer0_6_MEMBER_119_1_STROKES" class="st10" d="M272,60.4l-0.2-0.9"/>
	<path id="Layer0_6_MEMBER_120_1_STROKES" class="st10" d="M273.1,59.7l-0.1-0.3l-0.2-0.8"/>
	<path id="Layer0_6_MEMBER_121_1_STROKES" class="st10" d="M271.8,59.2L271.8,59.2L271.8,59.2"/>
	<path id="Layer0_6_MEMBER_122_1_STROKES" class="st10" d="M270.3,59.9L270.3,59.9L270.3,59.9L270.3,59.9z"/>
	<path id="Layer0_6_MEMBER_123_1_STROKES" class="st10" d="M269.9,61.9L269.9,61.9L269.9,61.9l-0.1-0.1v-0.1h0"/>
	<path id="Layer0_6_MEMBER_124_1_STROKES" class="st10" d="M270.3,59.9l-0.1,0.1L270,60l-0.2,0.1"/>
	<path id="Layer0_6_MEMBER_125_1_STROKES" class="st10" d="M270.1,61.9l0.2-0.1l0.4-0.3"/>
	<path id="Layer0_6_MEMBER_126_1_STROKES" class="st10" d="M269.8,61.6l-0.1-0.3l-0.2-0.6"/>
	<path id="Layer0_6_MEMBER_127_1_STROKES" class="st10" d="M270.9,60.9l-0.1-0.3l-0.2-0.8"/>
	<path id="Layer0_6_MEMBER_128_1_STROKES" class="st10" d="M269.7,60.3L269.7,60.3L269.7,60.3L269.7,60.3l-0.1,0.1l0,0v0.1l0,0"/>
	<path id="Layer0_6_MEMBER_129_1_STROKES" class="st10" d="M282.4,54.8L282.4,54.8L282.4,54.8L282.4,54.8z M282.4,54.8L282.4,54.8
		L282.4,54.8l-0.2,0v0l0,0h0v0l0,0v0l0,0v0"/>
	<path id="Layer0_6_MEMBER_130_1_STROKES" class="st10" d="M282.4,54.8l0.3-0.2l0.3-0.2"/>
	<path id="Layer0_6_MEMBER_131_1_STROKES" class="st10" d="M282,54.5l-0.2-0.8"/>
	<path id="Layer0_6_MEMBER_132_1_STROKES" class="st10" d="M298.7,43.5L298.7,43.5l0.2,0v0h0v0h0v0"/>
	<path id="Layer0_6_MEMBER_133_1_STROKES" class="st10" d="M298.5,45.6h-0.2v0h0v-0.1h0v0l0,0v-0.1l0,0"/>
	<path id="Layer0_6_MEMBER_134_1_STROKES" class="st10" d="M298.6,43.5l-0.2,0.1l-0.3,0.2"/>
	<path id="Layer0_6_MEMBER_135_1_STROKES" class="st10" d="M298.5,45.5l0.2-0.1l0.4-0.3"/>
	<path id="Layer0_6_MEMBER_136_1_STROKES" class="st10" d="M298.1,45.3l-0.2-0.9"/>
	<path id="Layer0_6_MEMBER_137_1_STROKES" class="st10" d="M299.2,44.6l-0.3-1"/>
	<path id="Layer0_6_MEMBER_138_1_STROKES" class="st10" d="M298,43.9L298,43.9L298,43.9l-0.1,0.1l0,0v0.1l0,0"/>
	<path id="Layer0_6_MEMBER_139_1_STROKES" class="st10" d="M296.5,44.8L296.5,44.8L296.5,44.8L296.5,44.8h0.1v0h0v0l0,0"/>
	<path id="Layer0_6_MEMBER_140_1_STROKES" class="st10" d="M296.4,44.8l-0.2,0.1l-0.1,0.1l-0.2,0.1"/>
	<path id="Layer0_6_MEMBER_141_1_STROKES" class="st10" d="M297,45.9l-0.3-1"/>
	<path id="Layer0_6_MEMBER_142_1_STROKES" class="st10" d="M295.8,45.1L295.8,45.1l-0.1,0.1l0,0.1v0l0,0v0l0,0v0.1l0,0"/>
	<path id="Layer0_6_MEMBER_143_1_STROKES" class="st10" d="M308.4,47.7l-10.1,4.6"/>
	<path id="Layer0_6_MEMBER_144_1_STROKES" class="st10" d="M272,26.6l-10,4.6"/>
	<path id="Layer0_6_MEMBER_145_1_STROKES" class="st10" d="M268.2,61.1L268.2,61.1L268.2,61.1L268.2,61.1z M268.2,61.1L268.2,61.1
		L268.2,61.1l0.1,0l0,0h0l0,0h0"/>
	<path id="Layer0_6_MEMBER_146_1_STROKES" class="st10" d="M268,63.1L268,63.1l-0.2,0v0h-0.1v0h0v-0.1h0"/>
	<path id="Layer0_6_MEMBER_147_1_STROKES" class="st10" d="M268.2,61.1l-0.2,0.1l-0.3,0.2"/>
	<path id="Layer0_6_MEMBER_148_1_STROKES" class="st10" d="M268,63.1l0.2-0.1l0.4-0.3"/>
	<path id="Layer0_6_MEMBER_149_1_STROKES" class="st10" d="M267.6,62.8l-0.1-0.3l-0.2-0.6"/>
	<path id="Layer0_6_MEMBER_150_1_STROKES" class="st10" d="M268.8,62.2l-0.3-1"/>
	<path id="Layer0_6_MEMBER_151_1_STROKES" class="st10" d="M267.5,61.5L267.5,61.5l-0.1,0.1v0h0v0.3"/>
	<path id="Layer0_6_MEMBER_152_1_STROKES" class="st10" d="M340.5,77.7l0.2,0.2l0.1,0.1l0.1,0.1l0,0.1"/>
	<path class="st11" d="M280.9,39.1l-3.3,1.5l3,1.9l3.4-1.5L280.9,39.1z"/>
	<path id="Layer0_6_MEMBER_153_1_STROKES" class="st10" d="M280.9,39.1l3,1.9l-3.4,1.5l-3-1.9L280.9,39.1z"/>
</g>
<text transform="matrix(1 0 0 1 114.8186 10.6705)" class="st12 st13">Gust Lock Lever</text>
<text transform="matrix(1 0 0 1 18.5875 70.2999)"><tspan x="0" y="0" class="st12 st13">Tension</tspan><tspan x="0" y="14.4" class="st12 st13">Springs</tspan></text>
<text transform="matrix(1 0 0 1 94.1933 78.053)" class="st12 st13">Plunger</text>
<g>
	<ellipse class="st14" cx="152.6" cy="65" rx="14.6" ry="14.6"/>
	<ellipse class="st15" cx="152.6" cy="65" rx="14.6" ry="14.6"/>
</g>
<g>
	<path class="st16" d="M180.8,79.7l1.5-6.7l-14.8,9.2l9.2,14.8l1.5-6.7c29.8,2.9,53,10.4,71.7,24.3l2.5,1.5l-3-3.5
		C230.6,96,207.7,85,180.8,79.7z"/>
	<path id="Layer1_10_1_STROKES_4_" class="st17" d="M254.8,118l-5.2-5.5c-19-16.5-42.1-27.4-68.6-32.8l1.5-6.7l-14.8,9.2l9.2,14.8
		l1.5-6.7c29.8,2.9,54,11.2,72.7,25.1C254.8,118,254.8,118,254.8,118z"/>
</g>
<text transform="matrix(1 0 0 1 252.1422 117.8374)" class="st12 st13">Lock Plate</text>
<g>
	<ellipse class="st14" cx="281.2" cy="41.3" rx="11.9" ry="11.9"/>
	<ellipse class="st18" cx="281.2" cy="41.3" rx="11.9" ry="11.9"/>
</g>
</svg>
