<?xml version="1.0" encoding="utf-8"?>
<!-- Generator: Adobe Illustrator 24.2.1, SVG Export Plug-In . SVG Version: 6.00 Build 0)  -->
<svg version="1.1" id="Ebene_1" xmlns="http://www.w3.org/2000/svg" xmlns:xlink="http://www.w3.org/1999/xlink" x="0px" y="0px"
	 viewBox="0 0 349.1 161" style="enable-background:new 0 0 349.1 161;" xml:space="preserve">
<style type="text/css">
	.st0{fill:none;stroke:#B1B1B1;stroke-width:0.55;stroke-miterlimit:5;}
	.st1{fill:#FF0000;}
	.st2{fill:#CCCCCC;}
	.st3{fill:#999999;}
	.st4{fill:#0099FF;}
	.st5{fill:#FF9900;}
	.st6{fill:none;stroke:#1D1D1C;stroke-width:0.55;stroke-miterlimit:5;}
	.st7{fill:none;stroke:#1D1D1C;stroke-width:0.25;stroke-miterlimit:5;}
	.st8{fill:none;stroke:#1D1D1C;stroke-width:0.55;stroke-miterlimit:59.9997;}
	.st9{fill:none;stroke:#1D1D1C;stroke-width:1.4;stroke-miterlimit:5;}
	.st10{fill:none;stroke:#FF9900;stroke-linecap:round;stroke-linejoin:round;}
	.st11{font-family:'ArialMT';}
	.st12{font-size:14px;}
	.st13{opacity:0.2;fill:#0099FF;enable-background:new    ;}
	.st14{fill:none;stroke:#0099FF;stroke-width:2.0003;stroke-miterlimit:10.0007;}
</style>
<g>
	<path id="Layer3_5_1_STROKES" class="st0" d="M69,41.2l0.6-0.3h0l0,0h0.2l0,0h0l0,0v0l0,0v0.1l0,0v0.1l0.1,0.3v0.3l0,0.2v0.3
		l2.8,1.6l29.5-17.1l7.8-6l10.6-10.9l0-0.1l0.5-0.5l0-0.1l0.1-0.1l0-0.1l0.1,0l0-0.1l0.2-0.2l0-0.1l0.2-0.2v0l0.1-0.1l0.1-0.1
		l0.1-0.2l0.2-0.2V7.7l0.1,0l0-0.1l0.1-0.1l0.1-0.2l0.1,0l0-0.1l0.1-0.1l0.1-0.1l0.1-0.2l0.1-0.1l0.1-0.2l0,0l0-0.1l0.1-0.1l0-0.1
		l0-0.1l0,0l0.1-0.1l0.1-0.2l0.1-0.1l0-0.1l0-0.1l0.3-0.7 M72.9,43.8l4.4,2.5l4.6-1.9l1.6-0.5l0.7-0.1l0.2,0l0.4,0.1h0.1l1,0.1
		l0.2,0h0.1l2-0.4l1-0.1l0.3,0l1,0.2l0.1,0.1l0.4,0.2l0.2,0.2l0,0.1l0.1,0.5v0.2l0,0.2L91.1,46l-0.5,0.8l-1,1.1l-4.1,3.1l36.2,20.8
		l-3.1,1.3l-4,1.6l-2.2-0.2L75.2,58.2l-6.8,4.1L58,67.7l-0.5,0.2l-0.2,0.2l-0.2,0l-0.2,0.1l-0.3,0.1h-0.2l-0.3,0l-0.3,0l-1.3-0.7
		l-0.8-0.5L53.7,67L53,65.8L51.8,66l-0.6-0.1L51,65.8l-0.1-0.1l-0.1-0.2l0-0.2v-0.2l0.4-1l0.1-0.2l0.2-0.2l0.1-0.2l1.7-2.1l0.1,0v0
		l0.1-0.1l0.1-0.1l5-4.2l5.6-3.6l-4.4-2.2L9.7,80 M105.5,4.7l-6.4,5.1l-42,23.5l-1.6,0.6l-6.7,2.4l8.2,4.7l6.2-1.8 M60.8,36.2v0.2
		l0.2,0.4L61,37l9.1,5.3 M72.4,41v-0.4l0-0.3v-0.3l0,0v0l0,0v-0.1l0,0h0v-0.1H72l-0.1,0l0,0l-0.3,0.2l-0.1,0l-0.1,0l-0.1,0.1v0h0
		v0.2h0v0.2l0,0v0.2l0,0.3v0.2l0,0.1v0.3l0,0.1l0,0v0l0.1,0.1h0.3l0,0l0.1,0l0.2-0.2 M91.6,31.9l0.2-1.3v-0.2l0-0.1v-0.8l0-0.2v-0.2
		l0-0.1v-0.4l-0.1-0.3v-0.2l-0.2-0.7l-0.1-0.1l-0.1-0.5l-0.1-0.3l-0.2-0.4l0-0.2L91,25.8l-0.1-0.2l-0.4-0.8l0-0.1l-0.1,0l0-0.1l0,0
		h-0.1l-0.1-0.1h0l0,0h-0.2l-0.1,0h-0.1l-0.1,0.1l-2.4,1.3l0,0.1l-0.1,0L87,26l-0.1,0.3v0.1h0v0.2l0,0v0.1l0.1,0.1l0,0.1l0,0.1
		l0.1,0.1l0,0.1l0.3,0.5l0.1,0.3l0.2,0.3l0.6,2l0.1,0.9v0.2l0,0.2v1l0,0.2v0.1l0,0.2v0.1l0,0.1v0.2l0,0v0.1l0,0.1v0.2l0,0.1v0.1
		l0.1,0.1l0.1,0h0l0,0l0,0h0.1l0.1,0l2.5-1.5l0,0h0 M84,34.2v-0.5l0-0.1v-0.2l-0.1-0.3v-0.1l0,0v-0.1l0,0h-0.1v0h0l0,0h0l0,0h-0.1
		l0,0h0l-0.6,0.3l-0.1,0.1v0l-0.1,0v0.1l0,0.1v0.2h0v0.2l0.1,0.3v0.7l0,0l0,0.1v0l0,0h0.3l0.1,0l0.1-0.1l0.3-0.2l0-0.1h0v0l0.1-0.1
		 M85.3,31.8l-0.1,0.1h-0.1L85.1,32v0L85,32.1v0l0,0v0.2l0,0v0l0,0.1v0.3l0.1,0.3v0.4l0,0v0l0,0l0.1,0h0.2l0,0h0l0.1,0l0.3-0.2
		l0.1-0.1l0.1,0v0l0.1-0.1v0h0v0l0-0.1v-0.6l0-0.2v-0.2l-0.1-0.3v-0.1l0-0.1v-0.1l0,0h0l-0.1,0h-0.2l-0.1,0.1l-0.1,0L85.3,31.8z
		 M78,36.3L78,36.3l0,0.2l0,0.1v0.2l0,0.2V37l0,0.1v0.4h0v0l0.2,0.2h0.2v0h0l0.4-0.2l0.1-0.1l0.2,0v0l0.1-0.1v0l0.1-0.1v-0.6l0-0.2
		v-0.2l0-0.2v-0.1l0-0.1v-0.1l-0.1-0.1v0h0l0,0h-0.2l0,0h0l-0.6,0.3l-0.1,0v0L78.1,36v0l0,0v0.1h0V36.3z M77,38.2v-0.4l0-0.1v-0.2
		l-0.1-0.3V37h0v0l-0.1-0.1h-0.2l0,0h0L76.2,37l-0.1,0.1l-0.1,0l-0.1,0.1l-0.1,0.2l0,0v0.1l0,0v0.2h0v0.1l0,0.1V38l0,0.2v0.6l0,0v0
		l0,0l0,0.1l0,0h0.3l0,0l0.1,0l0.2-0.2l0.1,0l0.2-0.2 M74.7,39.6v-0.4l0-0.2v-0.2l-0.1-0.3v-0.1l0,0v-0.1h0v-0.1h-0.4l-0.2,0.2
		l-0.2,0.1l-0.1,0.1l-0.1,0.1v0l0,0l-0.1,0.1v0.2h0v0.1l0,0.1v0.1l0,0.2v0.7l0,0l0,0.1l0.1,0l0,0h0.2v0H74l0.1,0l0.1-0.1l0.3-0.2
		 M80.7,34.5l-0.1,0l-0.1,0.1v0l0,0v0.1l0,0V35l0,0v0.2l0,0.1v0.2l0,0.2v0.5l0,0.1l0.1,0.1h0.1l0.1,0.1h0l0,0h0l0,0h0l0.1,0l0.2-0.1
		l0.1-0.1l0.1,0l0.1-0.1v0l0.1,0v-0.1l0,0v0l0,0v-0.4l0-0.1V35l0-0.2v-0.2l0-0.2v-0.1h0v-0.1l0,0v0l0-0.1h-0.3l0,0L80.7,34.5
		L80.7,34.5z M110.5,4.7l-0.9,3l1.7-0.3l1.7-0.6l3.1-1.6l0.8-0.5 M95.4,23l0,0.2l-0.1,0.1l-0.1,0.2v0.4l0.1,0.1l0.3,0.8l0,0.2l0.3,1
		V26l0.2,1.6L95.8,29l0,0.2v0.3l0.1,0.1l0.2,0.1h0.2l3.6-2.1l0.5-0.4l0.1-0.1l0.1-0.2l0.2-0.3l0.1-0.2l0-0.2l0-0.1V26l0.1-0.3v-0.2
		l0-0.2l-0.1-1.7l-0.1-0.2l-0.1-0.6l-0.5-1.5l-0.1-0.2v-0.1l-0.1-0.1l0-0.1l0,0h-0.1l-0.1-0.1h-0.1l-0.1-0.1h-0.3l-0.2,0.1H99l0,0
		l-0.1,0h0l-3.1,1.8l-0.2,0.2L95.4,23L95.4,23z M65.8,31.4l32.1-18.6l11.7-5.2 M13.1,10.7l-1.8,0.5l11.1,6.4L24,17L13.1,10.7
		L9.3,8.5 M9.7,61l25.3-14.5l0.7-0.5l0.7-0.6l0.2-0.3l0.3-0.6l0.3-0.8l0.1-0.7v-1.3l0.1-0.4l0.1-0.2l0-0.2l0.1-0.3l0.2-0.3l0.5-0.4
		l0.2-0.1l-5.1-4.2l-16.8,9.1h-0.2L16.2,45L16,45.1h-0.2l-0.2,0l-0.3-0.1l-1.4-0.8l-0.5-0.4l-0.7-1.2l-0.3,0.1l-0.6,0.1h-0.2l-0.1,0
		l-0.2,0h-0.2l-0.2,0l-0.3-0.1l-0.2-0.2l0-0.2V42l0.3-0.8l0.2-0.3l0.1-0.2l0.3-0.5l1.6-1.8v0l0.2-0.2l0.7-0.7l3.9-3.3l7.5-4.9
		L9.3,18.2 M12.6,42.5L12.6,42.5l2.9-0.9l0-0.1l0.1-0.2l0.1-0.3l-0.1-0.9l-0.2-0.8l-0.1-0.2l-0.4-0.5l-0.3-0.2l-0.1-0.2h-0.1
		L14.2,38l-0.1,0h-0.9l-0.2,0.1L13,38.2l-0.2,0.2 M15.5,41.6h0.3 M9.3,10.1l2,1.1 M9.3,6.9L37,23l5.7-2.3l0.5-0.1l0.9,0l0.2,0.1h0.3
		h0l0.3,0.1l0.6,0.1h0.2l2.4-0.5h1l1.2,0.3l0.3,0.3l0.1,0.1l0.1,0.2l0.1,0.3V22l-0.1,0.4L50.6,23l-0.3,0.5L49,24.9l-3.9,2.9l10.4,6
		 M49.8,21.3l-0.6,0.4l-1.7,0.6l-0.4,0.1h-0.4l-0.1,0l-0.1-0.1L46,21.6l-0.7-0.4L45.2,21l-0.6-0.3 M33.8,27.3l0.2,0l0.3,0.1l0.2,0
		l0.9,0l1.1-0.3l1.3-0.7l3.1-0.8h0.2l0.1,0l3.9,2.2 M37,23l-1.5,0.7L31.3,26l-0.2,0.1 M29,31.3l-0.1,0.5l0,0.2l0.1,0.2l0.1,0.2
		l0.1,0.1l0.2,0.1l4,3.3 M29.2,32.4L29.2,32.4l0.2,0.1 M38.5,40l0.9-0.7l9.6,5.5l-0.5,0.3l-0.1,0.2l-0.2,0.1L47.8,46l-0.1,0.3
		l-0.1,0.3v0.3l0.2,0.6 M35.6,23.7L24,17 M26.7,28.3l-1.6,1 M54.3,50v0.1l0,0.1v0.2l0,0.2v0.2l0,0.1v0.3l0,0v0h0v0.1h0v0l0.1,0h0.2
		l0.1,0v0H55l0.4-0.3l0,0 M34.9,46.4l1.2-0.5l0.2,0h0.2l0.5-0.1l1.6,0.2l0.4,0.2l0.7,0.4l0.6,0.5l0.5,0.6l0.3,0.6l0.2,0.6l0.1,1
		l0.2,0.6l0.2,0.3l0.3,0.3l0.2,0.1l0.3,0.2l0.2,0.1h0.1l0.1,0l0.5,0.1h0.2 M48.5,54.7v-0.3l0,0v-0.1l0-0.2v-0.5l0-0.1v-0.1l0,0h0v0
		l-0.1,0h-0.3l0,0l-0.1,0l-0.2,0.2l-0.2,0.1l-0.1,0.1v0l-0.1,0h0v0.1h0v0.4l0,0.1v0.1l0.1,0.3v0.4h0v0.1l0,0v0.1l0,0l0.1,0h0.2
		l0.1,0h0l0.3-0.2 M46.2,56v-0.5l-0.1-0.3v-0.3L46,54.8v-0.1h0l0,0h-0.3v0h-0.1l-0.1,0.1l-0.3,0.1L45,55.1H45v0l-0.1,0.1v0l0,0v0h0
		v0.2h0v0.2l0.1,0.5v0.5l0,0v0.1l0.1,0.1h0l0,0h0.2l0,0h0.1l0.2-0.1l0.2-0.2l0.1,0v0 M42.6,56.5L42.6,56.5l-0.1,0.1v0.1l0,0v0.1h0
		V57l0,0.1v0.3l0,0.2l0,0.1v0.3l0,0.1v0.1l0,0.1v0l0.1,0h0.3l0.5-0.3l0.1-0.1l0.1,0v0l0.1-0.1v0l0,0v0l0,0V57l0-0.2v-0.2l0-0.2v-0.3
		l0,0v0h0v0l0,0h0l0,0h-0.2l0,0l-0.3,0.1l-0.2,0.1l-0.2,0.1L42.6,56.5L42.6,56.5L42.6,56.5z M41.4,57.5L41.4,57.5L41.4,57.5
		l-0.2-0.1l0,0h-0.2l0,0H41l-0.1,0.1l-0.1,0l-0.4,0.2l-0.1,0.1v0l0,0V58l0,0v0.2h0v0.2l0.1,0.3v0.2l0,0.2v0.3l0,0v0.2l0.1,0h0.1l0,0
		h0.1l0,0h0l0,0h0.1l0.1-0.1l0.2-0.1l0.2-0.2h0v0l0,0v-0.1l0,0v-0.6l0-0.2V58l-0.1-0.3V57.5z M50.7,53.4v-0.5l0-0.3v-0.2l0,0v-0.1
		l0,0v0l-0.1-0.1h-0.1l0,0l0,0h-0.1l-0.1,0.1h-0.1l-0.2,0.2l-0.2,0.1l0,0l-0.1,0.1v0l-0.1,0.1v0.7l0.1,0.3V54l0.1,0.1v0.1l0,0.1h0.4
		l0-0.1l0.3-0.2l0.1,0 M36.4,60L36.4,60l-0.3,0.2l-0.3,0.2l-0.1,0v0h0v0l-0.1,0.1v0h0v0.1l0,0v0.1l0,0v0.1l0,0.1v0.2l0.1,0.3v0.4
		l0,0.1V62l0.1,0.2h0.1l0,0h0.1v0h0.1l0.4-0.2l0.3-0.3v0l0,0v0l0,0V61l0-0.2v-0.2l0-0.2v-0.3L36.6,60H36.4z M38.5,58.9l-0.2,0
		L38.2,59l-0.1,0L38,59.1v0L38,59.3v0h0v0.2l0,0v0.2l0.1,0.3v0.2l0,0.1v0.4l0.1,0.1h0l0,0h0.2l0,0l0.5-0.3h0l0-0.1l0.1-0.1v0l0,0v0
		l0-0.1v-0.4l0-0.1v-0.2l0-0.2v-0.2l0-0.1v-0.2l0,0h0v0l0,0h-0.1v0h0l0,0h-0.1l0,0L38.5,58.9z M34.6,62.7v-0.5l-0.1-0.3v-0.1l0-0.1
		v-0.2l0,0h-0.1l0,0h-0.2l0,0h0l-0.4,0.2l-0.1,0.1l-0.1,0.1h0l0,0v0l-0.1,0.1V62h0v0.2l0,0v0.1l0,0.1v0.2l0,0.2v0.2l0,0.1v0.3l0,0.1
		v0l0.1,0.1v0h0.3l0.2-0.1l0.1-0.1l0.1,0l0.1-0.1 M32.3,64.1v-0.5l0-0.2v-0.2L32.2,63v-0.2l0,0v0h-0.1v0l0,0h-0.2l-0.1,0.1l-0.1,0
		l-0.1,0.1l-0.2,0.1L31.3,63l-0.1,0.1h-0.1v0h0v0l0,0v0l0,0v0.1l0,0v0.1h0v0.2l0,0.1v0.2l0,0.2v0.2l0,0.2v0.4l0.2,0.2h0.2l0,0
		l0.1-0.1l0.1,0l0.2-0.2 M29.8,64L29.8,64L29.8,64l-0.2,0l-0.1,0v0h0l-0.5,0.3l-0.2,0.2l0,0.1h0v0l0,0v0.3l0,0v0l0,0.2v0.2l0.1,0.3
		v0.5h0l0.1,0.1l0.1,0h0.2l0.1-0.1l0.3-0.1l0.1-0.1l0.1,0l0,0l0-0.1h0v0l0,0v-0.1h0v0l0-0.1v-0.4l0-0.1v-0.3l-0.1-0.3v-0.2l0,0
		L29.8,64L29.8,64L29.8,64L29.8,64z M26.4,65.9L26.4,65.9L26.4,65.9l0,0.3h0v0.2l0.1,0.3v0.6l0,0v0.1l0,0v0h0.1l0,0h0l0,0l0,0h0.1v0
		h0.2l0.3-0.2l0.1,0l0-0.1h0v-0.1h0l0,0v0l0-0.1v0l0,0v-0.4l0-0.2V66l-0.1-0.3v-0.1l0,0v-0.1h0l-0.1,0h0l0,0h0l0,0h0l0,0h0l-0.4,0.2
		l-0.1,0.1l-0.1,0L26.4,65.9L26.4,65.9z M53,65.8l1.8-0.5l0.6-0.3l0.5-0.1l0.1-0.1l0.1-0.2l0-0.1v-0.7l-0.2-1l-0.3-0.5L55.4,62
		l-0.5-0.5l-0.2-0.1l0-0.1h-0.1l0,0l-0.2-0.1h-0.6l-0.3,0.1l-0.1,0 M53.3,61.5l-0.1,0.1l0,0h0 M55.9,64.9h0.3l0.1,0h0.1l0.5,0.2
		 M55.1,65.8l0.7,0.3l0.2,0.2l0.2,0.1l0.2,0.2l0.1,0.1l0,0.1l0.1,0.1l0,0.3v0.2l0,0.2v0.1l-0.2,0.1 M14.7,42.5l0.7,0.4l0.2,0.1
		l0.1,0.2l0.1,0.1l0.1,0.1l0.1,0l0.1,0.1l0.1,0.3v0.5 M9.7,72.3l0.5,1.2l0.5,1.8l0.1,1.4v0.2l-0.2,1.3l-0.1,0.2v0.1l0,0.1v0l0.1,0.1
		l0,0.1v0H11l2.6-1.5v0h0l0,0l0-0.1h0l0,0l0.1-0.1l0.2-0.5v-0.2l0.2-0.5v-2.2l-0.1-0.5l-0.1-0.3v-0.1L14,72.4l-0.1-0.2l-0.2-0.7
		L13,69.7l-0.1-0.2l-0.1-0.1l-0.2-0.2l-0.1,0h-0.1l-0.1,0h0l-0.1,0h-0.2l-2.4,1.4 M18.5,72v-0.3l0-0.2v-0.2l0-0.2V71l0-0.1v-0.1h0v0
		l0,0v-0.1h0l0,0h0l0,0h0l0,0H18l0,0l-0.4,0.2l-0.2,0.2l-0.1,0.1v0l0,0v0l-0.1,0.1v0.2l0,0v0.1l0,0.1v0.2l0,0.2v0.6l0,0v0.1l0.1,0v0
		h0.1v0h0.2v0h0.1l0.1-0.1h0.1l0.2-0.2l0.1,0 M20.7,70.8v-0.5l0-0.1V70l-0.1-0.3v-0.2h0v-0.1l-0.1,0h0l0,0h-0.1l0,0h-0.1l-0.1,0.1
		l-0.4,0.2l-0.1,0.1l-0.1,0.1l0,0.1v0l0,0v0.2l0,0v0.2l0.1,0.3v0.6l0,0.1l0,0v0.1h0.1l0.1,0.1h0.2v0l0.3-0.1 M23,69.4V69l0-0.2v-0.2
		l0-0.2v-0.2l0-0.1v-0.1h0v0L22.8,68h-0.2l0,0h0l-0.2,0.1L22,68.4l-0.1,0l0,0v0.1h0v0l-0.1,0v0.1l0,0v0.1l0,0V69l0,0.1v0.2l0.1,0.3
		v0.5l0.2,0.2h0.2l0,0l0.3-0.2l0.2-0.2 M24.9,66.7L24.9,66.7l-0.1,0l-0.3,0.2L24.4,67l-0.1,0l0,0h0l0,0.1v0.1l-0.1,0v0.3l0,0v0.1
		l0,0.2v0.5l0,0.1v0.3l0.2,0.2h0l0.1,0h0.1l0,0h0l0,0l0.1,0l0.4-0.3l0.1-0.1v0l0.1-0.1v0l0,0v-0.6l-0.1-0.3v-0.2l0-0.2l0-0.1v-0.1
		l0,0v0l0,0h0l0,0L24.9,66.7L24.9,66.7z M13.6,77.4L13.6,77.4 M90.6,44l-0.2,0.3v0.1l-0.2,0.2l-0.3,0.2l-1.1,0.5l-1,0.3h-0.2l-0.2,0
		h-0.2L87,45.6l-0.1,0l-0.2-0.3l-0.5-0.5l-0.2-0.1l-0.2-0.2l-0.7-0.4l-0.2,0 M93.9,59l10.4,5.9l1.6-0.7l-10.4-6L93.9,59l-8.6-4.9
		l1.6-0.8l-7-4h0l-1.3,0.4L78,50l-0.7,0.4l-1.4,0.4l-0.3,0H75l-0.2,0l-0.4-0.1h-0.2 M118.7,73.1l-2.9-1.8l1.8-0.4L106,64.2l1-0.5
		 M79.9,49.3l1.5-0.3h0.2l0.2-0.1l3.8,2.2 M65.1,52.9L64,53.6 M69.3,54.8l0,0.4v0.2l0.1,0.2l0.3,0.3l5.5,2.4 M77.3,46.4l-5.6,2.9
		 M95.6,58.2l-8.7-4.9 M59.6,51.4l-9.8-4.8"/>
	<path class="st1" d="M56.1,44.6l0.3-0.1l0.2,0.1l0.2-0.1l0.4,0.1l2.5-1.6l0.1-0.3l-0.2-0.4L59.4,42h-0.2l-2.8,1.5l-0.1,0.1L56.1,44
		v0.1l-0.2,0.1l0,0.2l0.1,0.1L56.1,44.6z"/>
	<path class="st1" d="M44.8,33.8l0.2,0l-2.8,1.5l-0.1,0.1l-0.3,0.3v0.1l-0.2,0.2v0.2l0.1,0.1l0.2,0.1l0.3-0.1l0.2,0.1l0.2-0.1
		l0.4,0.1l2.5-1.7l0.1-0.3L45.4,34l-0.2-0.2H44.8z"/>
</g>
<path class="st2" d="M266.1,80.7l-0.8,1l-1.2,2.2l-0.3,1.2l-0.1,1.1l0.1,1l0.4,0.8l0.5,0.5l0.8,0.4l0.7,0.3h0.8l0.9-0.2l1.8-1.4
	l0.8-1l1.2-2.3l0.3-1.2l0.1-1.1l-0.2-1l-0.3-0.8l-0.5-0.5l-0.8-0.4l-0.7-0.2h-0.8l-0.9,0.2L266.1,80.7 M269.3,81.9l0.2,0.7l0,0.8
	l-0.2,0.8l-1,1.5l-0.6,0.5l-1,0.5c-0.3-0.3-0.4-0.6-0.4-1.1c0-0.6,0.2-1.3,0.6-1.9c0.3-0.7,0.8-1.2,1.4-1.4
	C268.6,82,268.9,81.9,269.3,81.9 M276.4,82.9l-0.3,0l-0.8,0.4l-0.5,0.3v0l-0.2,2l-1.2,1.2l-0.5,0.6l-1.1,2.3l-0.2,1v1.1l0.2,0.8
	l0.2,0.4l0.3,0.4l1.1,0.9l1,0.6l0.4,0.1l1-0.1l1-0.4l0.5-0.4l1-0.9l0.8-1.2l1-2.2l0.4-1.5l0.1-2.1l-0.3-1.2l-0.5-1l-0.3-0.4
	l-0.4-0.3l-1.8-0.7L276.4,82.9 M275,91.6l0-0.8l0.1-0.4l0.3-0.9l0.7-0.9l1.2-1l0,1.4l-0.3,0.8l-0.8,1.3l-0.9,0.7L275,91.6
	 M112.8,129.9l-4.8,2.8l-1.9,2.4l-0.8,1.3l0.3,1.4l-5.1,2.9h0l-0.4,0.3v0.1l-0.1,0.2v0.2l0,0.1l0,0.2v0.2l0.1,0.4l0.6,1.2l0.6,0.6
	l0.6,0.4l0.3,0.1l0.2,0l0.2,0l-0.1,0.2l0,0.2l0,0.8l0.5,0.9l0.3,0.4l0.3,0.2l0,0.1l0.4,0.2l0.2,0h0.2l5.3-3.1l2.2,1.2l1.3,0.5
	l4.8-2.8l2.6-3.8l-2.6-6.8L112.8,129.9 M138.4,47.5l-3.8,5.4l0.2,2.1l-0.2,0.3l-0.6,1.1l-0.2,0.6l0,2l0.4,1.4l1,2l2.1,2.2l2.8,1.6
	l1.4,0.4l1.5,0.1l1.4-0.1l0.6-0.2l1.2-0.5l1-0.8l0.8-1l0.2-0.5l3.2-2l3.9-5.4l0,0l-0.5-3.6l-1.3-4.8c-2.6-1.8-5.4-3.3-8.4-4.4
	L138.4,47.5 M150.1,47.2L150.1,47.2L150.1,47.2L150.1,47.2l0.1,0.2l1.1,5.6l-1,1.2l-0.6,0.5l-0.6,0.3l-0.7,0.1l-1.4-0.1l-0.8-0.3
	l-0.7-0.4l-0.6-0.5l-0.6-0.6l-0.4-0.6l-0.3-0.7l-0.2-1l0.1-1l0.3-0.6l1.7-2.3l0.5-0.4l0.6-0.3L150.1,47.2 M252.4,28.2
	c0-0.2-0.1-0.4-0.2-0.5c-0.2-0.2-0.4-0.3-0.6-0.3s-0.4,0.1-0.6,0.3c0,0.1-0.1,0.1-0.1,0.2c-0.1,0.1-0.2,0.2-0.2,0.3
	c-0.2-0.3-0.5-0.5-0.9-0.5c-0.4,0-0.7,0.2-0.8,0.6v8.9l-0.2,0.1l-0.1,0.1l-0.2,0.2l-0.1,0.1v4.1h-2.1l-0.6,0.1l-0.2,0.1l-0.2,0
	l-0.2,0.2l-0.2,0l-1,0.8l-0.8,0.9l-0.9,1.4l-0.5,1.6l-7,4l-0.7,0.5l-0.6,0.7l-1,1.5L232,55l4.2-2.5l0.8-0.2l1.5-0.1l1.7,0.4L243,54
	l3.4,3.2l2.2,3l2,4.6l0.7,4.5l0.2-0.1h0.8l1.5,0.8l-0.7-0.3h-0.8l-0.9,0.2l0-0.6l-0.6,0.2l-1,0.5l-0.9,0.8l-0.8,1l-0.7,1.1l-0.8,2.4
	l0,0.5l0,0.6l0.1,1l0.4,0.8l0.5,0.5l1.4,0.8h0.8l0.9-0.3l0.9-0.5l0.9-0.8l0.8-1l1.2-2.3l0.4-1.2l0.1-1.1l-0.2-1l2.9-1.7v-1.4l0,0.3
	l0.1,0.2l0.3,0.4l0.2,0.1l-0.6,0.4V73l0,0v0l0.1,0.2l0.3,0.3l0.2,0.1h0l-1.4,2.4l-0.3,0.4l-1,1.9l-0.4,1l-0.2,1.2v0.9l0.2,0.8
	l0.2,0.4l0.3,0.4l0.3,0.4l1.3,0.8l1,0.1l0.4-0.1l0.8-0.2l1.2-0.8l0.8-0.7l1-1.3l1-1.9l0.4-1.5l0.1-1l-0.1-0.8l-0.2-0.8l-0.2-0.3
	l-0.4-0.5l-0.3-0.2l-0.1-0.1h-0.1l0,0v-0.1h-0.1v0l0,0h0v-0.1h-0.1v0l0,0h0v-0.1h-0.1v0l0-0.1v0h0v-0.1h-0.1v0h0v0l0.1-0.1l0.2-0.2
	v0l0-0.1l0-0.2l0.1,0v0l0-0.1l0-4.9l-0.3-0.5l-0.2-0.2l-0.1,0v-2.7v-6.2c0-0.2-0.1-0.4-0.3-0.5c-0.1-0.2-0.3-0.2-0.5-0.2
	c-0.3,0-0.5,0.1-0.7,0.2c0,0-0.1,0.1-0.1,0.2c-0.1,0.1-0.1,0.2-0.2,0.4v0.1c-0.1-0.1-0.1-0.2-0.2-0.2c-0.2-0.2-0.4-0.3-0.7-0.3
	c-0.4,0-0.7,0.2-0.8,0.6l0.6,0.8c-0.3-0.1-0.6-0.3-0.7-0.7c0,0,0-0.1,0-0.1l-0.4-0.6l-2.2-4.5l0.9-1.6l0.5-1.7l0.1-0.8l-0.3-1.3
	l-0.3-0.6l-0.6-0.5l-2.1-1.2c-0.3-0.2-0.6-0.2-0.9-0.2l1.2-0.7l-0.8-2l0-4.9l-0.1-0.1l0-0.2l-0.5-1V28.2 M249.5,73.6
	c0.4-0.6,0.9-1.1,1.4-1.4c0.5-0.3,1-0.4,1.3-0.1c0.1,0.1,0.2,0.1,0.3,0.2l-0.4,0.3l0,0.8l-0.2,0.8l-0.4,0.8l-0.6,0.8l-0.7,0.5
	l-1,0.2c-0.1-0.2-0.2-0.5-0.2-0.8c0-0.5,0.1-0.9,0.3-1.4C249.3,73.9,249.4,73.7,249.5,73.6 M260.6,76.8L260.6,76.8l0,0.1l0.2,0.4
	v0.1l0.1,0.1v0.8l-0.1,0.3v0l0,0.1v0.2l-0.1,0.1l-0.1,0.4v0.1l-0.1,0.1l-0.1,0.2v0.1l-0.1,0.1l0,0.1l-0.1,0.1l-0.2,0.5l-0.1,0l0,0.1
	l-0.6,0.5l-0.1,0l-0.1,0.1l-0.2,0.2h-0.1l0,0.1l-0.5,0.2h-0.4l0,0l-0.1-0.2l-0.2-0.6v-0.4l0.2-0.8l0.2-0.6l0.4-0.7l0.5-0.7l0.6-0.5
	l0.4-0.2l0.4-0.2H260.6 M208.7,42.3l-0.6-0.2h-1.4l-1.6,0.5l-1.6,0.9l-2.3,2.2l-1.3,1.8l0.1,11.1l0.7,1.4l1.1,1v0l2,1.1v-1.2l0.1,0
	l3.4-2l9.2,5.2l3.4,2.6l1.6,1.7l4.1,6.1l1.8,4.4l0.7,3.4l0.2,3.1l-0.6,3.6v0l1.4-1.9l0.7-2.6l0.1-1.5l-0.2-3.2l-0.9-3.5l-1.6-3.5
	l-2-3.3l-2.4-2.9l-2.6-2.3l-10.2-5.9v-1.1l0,0l2.5-1.4l-0.1-0.3l-0.5-0.6l-0.1-0.5l0-10.2L208.7,42.3 M205.9,51.4l0-1l0.4-1.2
	l0.8-1.1l0.9-0.7l0.5-0.2l0.2,0.3l0,1.1l-0.4,1.2l-0.8,1.1l-0.8,0.7l-0.6,0.2L205.9,51.4 M196.1,36.6l-0.8-0.4l-0.7-0.3h-0.8
	l-0.9,0.2l-1,0.6l-0.8,0.8l-0.8,1l-0.7,1.1l-0.8,2.4l-0.1,1.1l0.1,1l0.4,0.8l0.6,0.5l0.7,0.5l0.7,0.3h0.8l0.9-0.3l0.9-0.5l0.9-0.8
	l0.8-1l1.2-2.2L197,40l0-1.2l-0.1-1l-0.3-0.8L196.1,36.6 M193.2,38.9c0.5-0.2,0.9-0.3,1.2-0.2l0,1.4l-0.2,0.8l-0.4,0.8l-0.6,0.8
	l-0.6,0.5l-1.1,0.2c-0.1-0.2-0.2-0.5-0.2-0.8c0-0.6,0.2-1.3,0.6-1.9C192.2,39.7,192.7,39.2,193.2,38.9 M305.2,102.1l-0.2-1.3
	l-0.3-0.6l-0.6-0.5l-2.2-1.2c-0.6-0.4-1.4-0.3-2.4,0.3c-0.2,0.1-0.4,0.3-0.5,0.4l0.5,0.3l-14.9-8.7h-0.6l-0.5,0.2l-0.5,0.3l-0.4,0.4
	l-0.7,1.1l-0.3,1.2v0.5l0,0.3l0.1,0.2l0.1,0.2l0.3,0.2l5.1,3l-0.6-0.6l11.5,6.8l-1.9-1c0,0.2,0,0.5,0,0.8c0,1.1,0.3,1.8,0.9,2.2
	l2.1,1.2l1.2,0.2h0.2l0.2-0.1l0.4,0l1.3-0.6l0.6-0.5l1.1-1.5l0.4-0.8l0.5-1.7L305.2,102.1z"/>
<path class="st3" d="M124.3,130.6l0.8,1.4l1,1l0.8,0.6l0.8,0.3h0.3l0.7-0.2l4-2.3l0.2-0.1l0.3-0.4l0.3-0.4l0-0.2l0.5,0.1l0.4-0.1
	l7.7-4.4l1.4,1.1l0.6,0.3l1.7,0.6h1l0.9-0.3l0.4-0.3l23-14.2l0.2,0h1l0.5-0.1l3.1-1.7l0.8-0.6l0.2-0.3l0.3-0.5l0.4-1l0.2-1.2
	l-0.4-2.8l-0.5-1.5l-1.1-2.2l-1.4-1.9l-1.7-1.5l-1.1-0.7l-1.7-0.6l-0.5,0l-1,0.2l-3.1,1.7l-0.8,0.5l-0.6,0.9l-0.2,0.4l-0.6-0.3
	l-1.1-0.2L161,100l-0.6,0.3l-0.5,0.4l-0.9,1.2h-0.6l-1,0.2l-0.9,0.4l-0.4,0.3l-0.4,0.3l-2.1,2.9l-13.7,7.3l-0.8,0.6l-0.6,0.8
	l-0.5,1.6l0.1,2l0.2,0.9l-7.2,4.2l-0.2,0l-0.3,0.3l-0.2,0.4l-0.2,0.4l-0.8-0.1l-0.4,0.2l-4.4,2.6l-0.3,0.4L124,128v1.6L124.3,130.6
	 M150.1,47.2L150.1,47.2l-3.6-0.8l-0.6,0.3l-0.5,0.4l-1.7,2.3l-0.3,0.6l-0.1,1l0.2,1l0.3,0.7l0.4,0.6l0.6,0.6l0.6,0.5l0.7,0.4
	l0.8,0.3l1.4,0.1l0.7-0.1l0.6-0.3l0.6-0.5l1-1.2l-1.1-5.6L150.1,47.2L150.1,47.2L150.1,47.2 M234.4,82.6l-0.1-4.2l-0.7-3.3l-1.8-4.5
	l-2.6-4.1l-2.3-2.7l-2.5-2.3l-1.6-0.9l-9.2-5.3l-1,0.6l-2.5,1.4l0,0v1.1l10.2,5.9l2.6,2.3l2.4,2.9l2,3.3l1.6,3.5l0.9,3.5l0.2,3.2
	l-0.1,1.5l-0.7,2.6l-1.4,1.9v0l0.6-3.6l-0.2-3.1l-0.7-3.4l-1.8-4.4l-4.1-6.1l-1.6-1.7l-3.4-2.6l-9.2-5.2l-3.4,2l-0.1,0V62l-2-1.1v0
	l-1.5,0.9l0.2,11.5l0.5-0.4l9.1-5.2l2.6,1.4l1.4,1l2.6,2.5l2.2,3.2l1.7,3.5l1.1,4.5l-0.1,3.2l-0.3,1.4l-0.3,0.6l-1,1.6l-0.9,0.8
	l-5.6,3.2l1.7,0.6l1.6,0.3h1.6l6.4-2.8l1.1-1l0.1,0l0-0.1l1.3-0.6l0.6-0.4l0.8-0.8l0.9-0.2l1.2-0.6l1.1-1l0.9-1.2l0.6-1.4l0.4-1.8
	L234.4,82.6z"/>
<path class="st4" d="M201.1,72.8l-0.5,0.4l-0.6,0.5l-0.4,0.6l-0.7,1.5l-0.3,1.5l-1.8,1.1l-3.6,5.2l0.7,1.8l-2.7,1.6h-0.1l-0.1,0.1
	l-1.1,0.6h-0.1l0,0l-0.5,0.3l-0.2,0.2l-0.3,0.6l-0.3,1.5l0.6,2.8l1,1.8l1,1.1l0.8,0.6l0.8,0.4l1,0.2l0.7,0l0.5-0.2l4.6-2.7l4.6,2.6
	l4.4-2.6l0.6,0.3l1.7,0.4l1.6-0.1l0.7-0.2l0.9-0.4l5.6-3.2l0.9-0.8l1-1.6l0.3-0.6l0.3-1.4l0.1-3.2l-1.1-4.5l-1.7-3.5l-2.2-3.2
	l-2.6-2.5l-1.4-1l-2.6-1.4L201.1,72.8 M262.7,41.6l-0.8-0.2l-1.3-0.2l-0.7,0.1l-1.1,0.4l-5,2.9l-1.2,0.7c0.3-0.1,0.6,0,0.9,0.2
	l2.1,1.2l0.6,0.5l0.3,0.6l0.3,1.3l-0.1,0.8l-0.5,1.7l-0.9,1.6l2.2,4.5l0.4,0.6c0.1-0.4,0.4-0.6,0.8-0.6c0.3,0,0.5,0.1,0.7,0.3
	c0.1,0.1,0.1,0.1,0.2,0.2v-0.1c0-0.1,0.1-0.3,0.2-0.4c0-0.1,0.1-0.1,0.1-0.2c0.2-0.2,0.4-0.2,0.7-0.2c0.2,0,0.4,0.1,0.5,0.2
	c0.2,0.1,0.3,0.3,0.3,0.5v6.2l8-4.4l1-0.8l0.6-1.1l0.4-1.4l0.2-1.6l0-0.9l-0.5-2.8l-0.6-1.9l-2.1-3.5l-2-2.2l-1.5-1.2L262.7,41.6
	 M238.6,52.2l-1.5,0.1l-0.8,0.2L232,55l-9.2,5.5l1.6,0.9l2.5,2.3l2.3,2.7l2.6,4.1l1.8,4.5l0.7,3.3l0.1,4.2l12-6.9l0-0.5l0.8-2.4
	l0.7-1.1l0.8-1l0.9-0.8l1-0.5l0.6-0.2l-0.7-4.5l-2-4.6l-2.2-3L243,54l-2.7-1.4L238.6,52.2z"/>
<path class="st5" d="M301,21.3l-0.7-0.1h-0.3l-4.6,2.5l-1.4,0.4l-3,0.2l-0.8-0.2l-1.4,0.1l-1.2,0.5l-0.9,0.6l-1.2-0.2l-1.9,0.2
	l-11.8,6.9l-0.8,1.1l-0.4,0.7l-0.4,1.6l-0.1,1.9l0.4,3.1l0.7,2.2l1.6,3.2l2,2.9l2.4,2.3l1.7,1.1l2.4,0.9l1.6,0.1l0.7-0.1l1.3-0.6
	l0.1,0l10.3-6l0.7-0.6l0.6-0.7l0.5-0.9l0.3-1l0.2-1.1v-0.1l1-0.7l0.8-1.1l0.5-1.4l0.2-1.7l-0.2-1.9l-0.1-0.2l0.3-0.6l2-3l1.8-1.8
	l2.6-1.6v-3.8l-0.5-1l-3.1-0.3l-0.4-0.7l-0.2-0.2l-0.7-0.6L301,21.3z"/>
<path id="Layer3_7_MEMBER_1_1_STROKES" class="st6" d="M263,63.8l6.4-3.7l0.5-0.3l0.5-0.4l0.7-1.1l0.4-1.4l0.1-1.6l0-0.9l-0.5-2.8
	l-0.7-1.9l-2.1-3.6l-2-2.2l-1.5-1.2l-0.7-0.5l-1.5-0.7l-0.7-0.2l-1.3-0.1l-0.7,0.1l-1.1,0.4l-6.2,3.6 M193.2,83.6l0.7,1.8l2.1-1.2
	l0.2-0.1l0.3-0.1l0.7,0l0.3,0l0.4-0.3l0.3-0.1l0.3-0.1l0.6,0l0.6,0.1l0.7,0.3l0.6,0.5l0.9,0.9l0.5,0.7l0.7,1.2l0.3,0.8l0.2,1.2v0.8
	l-0.2,0.9l-0.3,0.5l-0.2,0.2l-0.7,0.4l-0.3,0.5l-0.4,0.5l-1.9,1.1L204,97l3.6-5.2l-3.6-9.3l-7.2-4.1L193.2,83.6z M189.7,87.8
	l-0.4,0.3l-0.2,0.2l-0.3,0.6l-0.1,0.3l-0.1,0.7l0,0.4l0.2,1.4l0.5,1.4l1,1.8l1,1.1l0.7,0.6l0.7,0.4l0.4,0.1l0.7,0.1l0.7,0l0.6-0.2
	l0.3-0.2l0.4-0.5l0.3-0.6L196,95v-0.8l-0.1-0.9l-0.7-1.9l-0.8-1.3l-0.7-0.8l-0.7-0.6l-0.7-0.5l-0.7-0.3l-0.7-0.1h-0.3L189.7,87.8
	L189.7,87.8z M189.7,87.8l4.1-2.4 M190.9,88.7l0.5,0.2l0.3,0.1l0.9,0.7l0.6,0.6l0.8,1.1l0.6,1.2l0.3,1.2l0.1,0.7l-0.1,0.6l-0.1,0.5
	l-0.2,0.3l-0.1,0.1l-0.3,0.2h-0.3l-0.5-0.1l-0.9-0.4l-0.9-0.8l-0.8-1l-0.5-0.8l-0.6-1.6l-0.1-0.8V90l0.2-0.7l0.1-0.2l0.3-0.3
	l0.1-0.1l0.1,0h0.3L190.9,88.7z M201.1,72.9l-0.6,0.4l-0.5,0.5l-0.5,0.6l-0.7,1.5l-0.3,1.5l4.7-2.7l3.3,1.4l1.5,0.8l2.5,1.9l0,0
	l1.8,3.5l1.3,3.8l0.5,2l-1,1.9l-2.6,3.3l-2.2,1.3l0.7,0.3l1.7,0.4l0.8,0l0.7-0.1l0.7-0.2l0.7-0.3l0.6-0.4l0.5-0.5l0.5-0.6l0.4-0.7
	l0.5-1.6l0.1-0.9v-2l-0.3-2.2l-0.7-2.2L213,79l-2.2-2.8l-2.5-2.2l-0.9-0.5l-1.8-0.8l-1.7-0.4l-0.8,0l-0.7,0.1l-0.7,0.2L201.1,72.9z
	 M201.1,72.9l9.1-5.2 M202.1,92.3L202.1,92.3l0.2-0.8v-0.9l-0.1-0.9l-0.3-1l-0.7-1.4l-0.6-0.9l-1.4-1.4l-1.1-0.7l-0.8-0.3 M204,82.6
	l6.5-3.8 M207.6,91.9l6.6-3.8 M196.8,78.4l1.8-1.1 M259,49.4l-1.6-1.5 M259.1,50.9l-0.2-0.3l-1.2-1.3l-0.1-0.1 M262.8,63.2l0.4-0.9
	l0.3-1.5v-1.7l-0.3-1.8l-0.5-1.9l-0.8-1.9l-1.6-2.6l-0.3-0.3 M257.4,55.1l-1.1-1.7 M259.3,52.4l-1.8-2.2 M262.1,57l-0.2-0.8l-1-2.5
	l-0.7-1.3 M261.2,56.2l-0.8-1.9 M235.8,52.8l-12.9,7.5 M255.5,70.4l0.9-0.5 M234.5,82.6l9.8-5.7 M204,97l4.4-2.5 M199.5,94.4
	l-4.6,2.7 M213.6,94.6l5.8-3.4"/>
<path id="Layer3_7_MEMBER_2_1_STROKES" class="st7" d="M123.9,131.9l2.9-1.7 M122.5,132.7l0.7-0.4 M118.9,134.8l2.9-1.7 M181.7,98.6
	l3.2-1.9 M180.1,99.5l0.8-0.5 M176.1,101.8l3.2-1.8 M190.3,93.6l1.9-1.1 M189.3,94.1l0.5-0.3 M186.9,95.5l1.9-1.1"/>
<path id="Layer3_7_MEMBER_3_1_STROKES" class="st8" d="M151.6,61.6l-3.3,2l-0.2,0.5l-0.8,1l-1,0.8l-1.2,0.5l-0.7,0.2l-1.4,0.1
	l-1.5-0.1l-1.5-0.4l-1.4-0.7l-1.4-0.9l-1.2-1l-1-1.2l-0.4-0.7l-0.6-1.4l-0.3-1.4l0-1.4l0.1-0.7l0.2-0.6l0.5-1.2l0.2-0.3l-0.3-2.1
	l3.8-5.4l0,0v0l5.6-3.4l1.3-0.6c3.1,1.1,5.9,2.6,8.5,4.4l1.3,4.8l0.5,3.6l0,0L151.6,61.6z M134.8,54.9l0.6,3.2l0.9,3.1l0,0l3.8-5.5
	l-0.8-5.2l-0.9-3.1 M136.3,61.2c2.7,1.8,5.5,3.3,8.5,4.3l3.8-5.4l0.1,0c-2.6-1.8-5.4-3.3-8.5-4.4 M144.8,65.5
	C144.8,65.5,144.8,65.5,144.8,65.5l3.5-1.9 M144.8,65.5L144.8,65.5L144.8,65.5 M155.4,56.2l-6.8,3.9 M168.4,96.8l-0.4,0.2l-2.6,1.5
	l0.4-0.2l0.5-0.1l0.5,0l1.1,0.2l1.1,0.4l1.2,0.7l0.5,0.4l1.1,1.1l1.4,1.9l1.1,2.2l0.5,1.5l0.4,2.2l-0.1,1.3l-0.1,0.6l-0.4,1
	l-0.3,0.4l-0.3,0.4l-0.3,0.3l2.3-1.3l0.7-0.6l0.3-0.3l0.3-0.5l0.4-1l0.1-1.2l-0.1-1.4l-0.3-1.4l-0.5-1.5l-1.1-2.1l-1.4-1.9l-1.7-1.5
	l-1.1-0.7L171,97l-1.1-0.3l-0.5-0.1L168.4,96.8z M165.3,98.5l-0.8,0.5l-0.6,0.8l-0.1,0.4l0.1,0l1.8-1l0.8-0.3h0.5l0.9,0.1l1,0.4
	l1,0.6l1.5,1.3l1.3,1.7l1.2,2.6l0.3,1.3l0.2,1.8l-0.1,1.1l-0.1,0.5l-0.2,0.4l-0.5,0.7l-0.3,0.3l-2,1.3l0.2,0h1l0.5-0.1l0.8-0.4
	 M163.9,100.3l0.7,0.4l0.6,0.5l0.8,0.9l0.4,0.7l0.2,0.7l0.1,0.3l0,0.7l-0.1,0.3l-0.2,0.6l-0.1,0.3l-0.2,0.3l0,0l-0.4,0.5l0.1,0.1
	l0.2,0.5l0.1,1.1l-0.1,1l-0.1,0.5l-0.4,0.9l-0.3,0.4l-2.1,3.1h0v0h0v0.1h0v0l0,0v0h0v0.1l0,0v0.1h0v0.1l0,0v0.3h0v0.1l0,0v0.1h0
	 M164.3,101.7l0.5,0.4l0.4,0.5l0.3,0.5l0.2,0.8v0.5l0,0.2l-0.1,0.4l-0.2,0.3l-0.3,0.3l-0.2,0.1l-0.4,0.2l-0.2,0.1l-0.8,0l-0.6-0.1
	l-0.3-0.1l-0.6-0.3l-0.6-0.4l-0.5-0.4l-0.2-0.2l-0.3-0.5l-0.3-0.8l-0.1-0.7l0-0.2l0.1-0.2l0.2-0.4l0.1-0.2l0.3-0.3l0.4-0.2l0.5-0.1
	l0.5-0.1l0.9,0.1l0.9,0.4L164.3,101.7z M130.8,123.3l7.4-4.2l-0.2-0.9l-0.1-0.7l0-1.3l0.1-0.6l0.4-1l0.3-0.4l0.3-0.4l0.3-0.3
	l0.4-0.3l13.7-7.3l1.5-2.1l0.6-0.7l0.4-0.3l0.4-0.3l0.9-0.4l1.1-0.2l0.6,0l0.5-0.6l0.4-0.5l0.5-0.4l0.6-0.3l0.3-0.1l0.7-0.1l1.1,0.2
	l0.6,0.2 M166.1,106l-0.2,0.2l-0.5,0.4l-0.6,0.3l-0.3,0.1l-0.7,0.1l-0.7-0.1l-0.8-0.2l-0.7-0.3l-0.7-0.4l-0.6-0.5l-0.5-0.6l-0.4-0.7
	l-0.3-0.7l-0.1-0.3l0-0.7l0.1-0.6l0.3-0.6 M166.3,105.7l-0.2,0.3 M165.2,111.1l-0.3,0.3l-0.4,0.3l-0.4,0.3l-0.9,0.4l-1.1,0.2H161
	l-1.2-0.2l-0.6-0.2l-1.1-0.5l-1-0.7l-0.9-0.8l-0.7-0.9l-0.6-1l-0.4-1.1l-0.1-1l0-0.5l0.2-1l0.4-0.9 M165.7,106.5L164,109l-0.2,0.2
	l-0.5,0.4l-0.3,0.1l-0.7,0.2L162,110h-0.7l-0.7-0.1l-0.7-0.3l-0.7-0.4l-0.6-0.5l-0.5-0.6l-0.6-1l-0.1-0.3l-0.1-0.3l-0.1-0.7l0-0.7
	l0.2-0.6l1.8-2.7 M152,107.3h0.3l0,0h0.1l0,0h0l0,0h0l0,0h0v0h0v0h0v0h0l0.1-0.1v0l0,0v0h0v0l0,0v0l0.6-0.9 M155.5,113.2l-0.9-0.8
	l-0.7-0.9l-0.6-1l-0.4-1l-0.1-1.1v-0.5l0.1-0.7 M161.9,114.4l-0.3,0.1l-0.5,0.1l-1.1,0.1l-1.2-0.1l-1.2-0.3l-0.9-0.4 M138.2,119.1
	l0.2-0.1l0.2-0.1h0.2l0.1-0.9l0.1-0.4l0.1-0.3l0.3-0.6l0.2-0.2l0.3-0.2l0.8-0.5l0.6-0.2l0.3-0.1h0.2l0.5,0.1l0.7,0.3l1.2,0.7
	l0.2,0.2l0.2,0.1l1,1.2l0.5,0.7l0.7,1.4l0.3,0.7l0.2,1l0.1,1.2l0,0.2v0.2l0,0.2l-0.2,0.6l-0.1,0.3l-0.2,0.3l-0.1,0.1l-0.1,0.1
	l-0.3,0.2l-0.1,0.1l-0.8,0.5l-0.3,0.1l-0.3,0.1l-0.7,0l-0.3-0.1l-0.8-0.3l-0.4-0.2l-0.2-0.1l-0.1,0.1l-0.1,0.2l-0.2,0.1l-0.1,0.1
	l1.4,1.1l0.6,0.3l1.1,0.4l0.5,0.1l1,0l0.5-0.1l0.4-0.2l0.4-0.3l0.4-0.3l0.5-0.8l0.2-0.5l0.3-1.2l0.1-0.6l-0.1-1.4l-0.3-1.4l-0.8-2.2
	l-1.7-2.7l-1-1.2l-0.5-0.5l-1.2-0.8l-1.1-0.6l-1.1-0.3h-1l-0.5,0.1l-0.4,0.2 M145.6,125.9l0.3-0.2l0.2-0.2l0.2-0.3l0.2-0.3l0.2-0.7
	l0.1-0.8l0-0.4l-0.3-1.5l-0.2-0.5l-0.7-1.5l-0.3-0.5l-1-1.2l-0.7-0.7l-1.2-0.7l-0.7-0.3l-0.4-0.1l-0.7,0l-0.3,0.1l-0.3,0.1
	 M141.1,118.4h-0.2l-0.2,0l-0.2,0.1l-1,0.6l0.2,0.1l0.3,0.1l0.5,0.3l0.8,0.7l0.5,0.6l0.4,0.7l0.5,1.1l0.2,0.7l0.1,1l-0.1,0.3l0,0.3
	l0,0.1l1.2-0.7l0.2-0.4l0.1-0.4l0.1-0.5l-0.2-1.2l-0.2-0.6l-0.7-1.2l-0.4-0.5l-0.9-0.7l-0.3-0.1l-0.2-0.1L141.1,118.4z M139.5,119
	L139.5,119l-0.3-0.1h-0.3 M142.6,125.5l0.1-0.1l0.1-0.2l0.1-0.2 M134,130l0.3-0.2l0.1-0.2l0.2-0.4l0.1-0.5l0-0.8l-0.3-1.2l-0.7-1.2
	l-0.4-0.5l-0.4-0.4l-0.7-0.5l-0.2-0.1l-0.5-0.1h-0.2l-0.2,0l-0.2,0.1 M129.3,124.3l-0.2,0.1l-0.2,0.1l-3.8,2.2l0.5-0.1l0.5,0.1
	l0.5,0.2l0.3,0.1l0.5,0.4l0.5,0.5l0.7,0.9l0.4,0.7l0.3,0.7l0.3,1.1l0,0.3l-0.1,0.9l-0.2,0.5l-0.1,0.2l-0.2,0.3l3.8-2.1l0.2-0.1
	l0.3-0.3l0.2-0.4l0.1-0.5l0-0.6l-0.2-1l-0.1-0.4l-0.3-0.7l-0.8-1.3l-1-1l-0.3-0.2l-0.8-0.4L129.3,124.3z M127.5,128.8l0.9,1.5
	l0.3,0.9l0.1,0.6v0.5l0,0.2l-0.1,0.3l-0.1,0.2l-0.1,0.1l-0.1,0.1l-0.2,0.1h-0.3l-0.3-0.1l-0.4-0.2l-0.2-0.1l-0.5-0.4l-0.4-0.5
	l-0.6-0.8L125,130l-0.2-0.6l-0.1-0.6v-0.3l0.1-0.4l0.1-0.3l0.1-0.1l0.1-0.1l0.1-0.1l0.1,0l0.1,0h0.3l0.3,0.1l0.4,0.2l0.5,0.3
	l0.5,0.4L127.5,128.8z M125,126.7l-0.4,0.2l-0.2,0.1l-0.1,0.2l-0.1,0.2L124,128l-0.1,0.9l0.1,0.7l0.3,1.1l0.7,1.4l1,1.1l0.8,0.5
	l0.3,0.1l0.5,0.1l0.3,0l0.5-0.1l0.2-0.1l0.3-0.2l-0.1,0.1l-0.2,0.1 M134.9,130.2l7.3-4.2 M148.2,127.4l23-14.2 M138.4,47.4
	L138.4,47.4 M138.2,119.1L138.2,119.1"/>
<path id="Layer3_7_MEMBER_4_1_STROKES" class="st8" d="M150.8,53.7L150.8,53.7L150.8,53.7l0.1,0l0,0h0.2v0h0.1l0,0v0h0v-0.1h0v-0.1
	h0v-0.1l0,0v-0.1l-0.1-0.4l-0.9,1.3l-0.4,0.4l-0.3,0.2l-0.6,0.3l-0.7,0.1h-0.7l-0.7-0.1l-0.7-0.3l-0.7-0.4l-0.6-0.5l-0.5-0.6
	l-0.4-0.6l-0.3-0.7l-0.2-1l0.1-1l0.3-0.6l0.1-0.1l1.2-1.7h0l0-0.1l-0.1,0l-0.3-0.6v-0.1l-0.1-0.2v-0.1l0-0.1v-0.1l0-0.1v-0.5l0-0.1
	v-0.1l0,0v-0.1l0,0v0l0.1-0.1l0-0.1h0v0l0.1-0.1l0.1-0.1h0.1l0,0h0.3l0,0l4.5,1.1h0l0,0h0.1l0,0h0l0.1,0.1h0.1v0h0v0h0l0,0h0v0l0,0
	h0v0l0,0h0v0l0.1,0.1v0h0l0,0.1h0v0h0v0.1h0v0l0,0v0l0,0v0h0v0.1h0v0.1l0,0v0l0,0v0.1h0v0.1l0,0v0.1l0,0v0.1l0,0l0.6,0.8l0.5,1
	l0.1,0.4l0.1,0.7v0.3l-0.1,0.3l-0.2,0.6l-0.2,0.3l0.3,1.5v0.1l0,0.1V54l0,0.1v0.1l0,0v0.1l0,0v0l0,0.1l-0.1,0.1v0l-0.1,0.1h0
	l-0.1,0.1h0l-0.1,0h0l0,0h-0.3l0,0h-0.1l-0.1,0h0l0,0l-0.1,0h-0.1l0,0l-0.1,0l0,0l-0.1,0l0,0l-0.1,0l-0.1-0.1l-0.1,0l0-0.1l-0.1,0
	l-0.1-0.1 M151.2,52.6l-0.3,0.2l-0.6,0.3l-0.7,0.1h-0.7l-0.7-0.1l-0.7-0.3l-0.7-0.4l-0.3-0.2l-0.6-0.5l-0.5-0.6l-0.5-1l-0.1-0.3
	l-0.1-0.7l0-0.7l0.1-0.3l0.2-0.5l0.4-0.6l0,0v0l0,0v0h0v-0.1l-0.1-0.1v-0.1l0,0v-0.1l0,0v-0.3h0v-0.1h0v-0.1h0v0h0.1v0h0.1l0,0h0.1
	l0,0h0l1,0.3l3.5,0.9h0v0h0v0h0.1v0.1L151.2,52.6l0.1,0.2 M151.8,51.9l-0.8-4.3 M146.6,46.3l-0.3,0.1l-0.3,0.1l-0.5,0.4
	 M141.2,126.6l0.3-0.3l0.2-0.2l0.1-0.2l0.2-0.5l0.1-0.6l-0.1-1l-0.2-0.7l-0.1-0.4l-0.3-0.7l-0.6-1l-0.3-0.3l-0.8-0.7l-0.8-0.5
	l-0.5-0.1h-0.5l-0.4,0.1 M139.4,127.6l0.2-0.1l0.2-0.1l0.1-0.2l0.1-0.2l0.2-0.5l0.1-0.6l0-0.6l-0.1-0.7l-0.4-1.1l-0.6-1l-1-1.1
	l-0.8-0.5l-0.3-0.1l-0.3-0.1l-0.5-0.1l-0.5,0.1l-0.2,0.1 M140.3,127.1l0.2-0.1l0.2-0.1l0.1-0.2l0.2-0.5l0.1-0.5l0-0.6l-0.1-0.7
	l-0.5-1.4l-0.8-1.3l-0.5-0.5l-0.8-0.7l-0.5-0.3l-0.5-0.1h-0.5l-0.2,0.1l-0.2,0.1 M138.6,128.1l0.4-0.3l0.1-0.2l0.3-0.7l0.1-0.6
	l-0.1-0.7l-0.2-1.1l-0.7-1.4l-0.5-0.6l-0.8-0.8l-0.3-0.2l-0.5-0.3l-0.3-0.1l-0.5-0.1l-0.3,0l-0.3,0l-0.4,0.1 M137.7,128.6l0.4-0.3
	l0.1-0.2l0.1-0.2l0.2-0.5l0.1-0.6l0-0.7l-0.3-1.1l-0.3-0.7l-0.4-0.7l-0.7-0.9l-0.8-0.7l-0.5-0.3l-0.3-0.1l-0.5-0.1h-0.5l-0.5,0.1
	 M136.8,129.1l0.4-0.3l0.3-0.4l0.2-0.5l0.1-0.9l-0.1-0.7l-0.3-1.1l-0.3-0.7l-0.6-1l-0.5-0.5l-0.8-0.6l-0.5-0.3l-0.5-0.1h-0.5
	l-0.2,0.1l-0.2,0.1 M135.9,129.6l0.3-0.3l0.2-0.2l0.1-0.2l0.2-0.5l0.1-0.3v-0.6l-0.1-0.7l-0.3-1.1l-0.7-1.4l-0.5-0.6l-0.8-0.7
	l-0.8-0.5l-0.3-0.1l-0.3-0.1h-0.5l-0.2,0.1l-0.2,0.1 M133.5,130.4l0.5,0.1l0.5-0.1l0.4-0.2l0.2-0.1l0.1-0.2l0.1-0.2l0.2-0.5l0.1-0.6
	l0-0.6l-0.3-1.1l-0.3-0.7l-0.4-0.7l-0.5-0.6l-0.5-0.5l-0.8-0.7l-0.6-0.3l-0.5-0.1l-0.3,0l-0.5,0.1l-0.2,0.1l-0.3,0.3l-0.3,0.4
	l-0.1,0.4 M131.7,132l0.3-0.3l0.1-0.2l0.1-0.2l0.2-0.5l0.1-0.6l-0.1-1l-0.5-1.4l-0.6-1l-0.7-0.9l-0.5-0.4l-0.5-0.3l-0.5-0.2
	l-0.5-0.1l-0.5,0.1l-0.2,0.1 M130.8,132.6l0.5-0.5l0.1-0.2l0.2-0.5l0.1-0.6l-0.1-1l-0.2-0.7l-0.5-1l-0.6-1l-0.5-0.5l-0.5-0.5
	l-0.5-0.3l-0.3-0.1l-0.5-0.1h-0.5l-0.4,0.1 M129.8,133.1l0.4-0.3l0.3-0.4l0.1-0.2l0.1-0.5l0-0.3l-0.1-0.7l-0.2-1l-0.1-0.4l-0.5-1
	l-0.7-0.9l-0.8-0.7l-0.5-0.3l-0.3-0.1l-0.3-0.1l-0.5-0.1h-0.2l-0.5,0.1 M100.4,140.9L100.4,140.9l-0.1,0.2l0,0.1l-0.1,0.1v0.1l0,0.1
	l0,0.2v0.2l0.1,0.4l0.2,0.6l0.3,0.6l0.5,0.7l0.3,0.2l0.3,0.2l0.3,0.1l0.3,0.1l0.2-0.1l0.1-0.1l0.1-0.1l0.1-0.1l0.1-0.1l0.1-0.1
	l0-0.1V144l0-0.2l0-0.1v-0.2l0-0.2l-0.1-0.4l-0.2-0.4l-0.5-0.7l-0.1-0.2l-0.4-0.4l-0.3-0.2l-0.1-0.1l-0.1-0.1l-0.4-0.1l-0.1,0h-0.1
	h-0.1L100.4,140.9z M102.8,144.7l-0.1,0.2l-0.1,0.2v0.4l0.1,0.4l0.1,0.3l0.3,0.6l0.3,0.4l0.3,0.2l0.1,0.1l0.4,0.2l0.2,0.1h0.1l0.1,0
	l5.3-3.1l2.6-1.5l0.3-0.3l0.3-0.4l0.1-0.5l0-0.6l-0.1-0.7l-0.2-0.7l-0.6-1.4l-0.5-0.6l-1-1.1l-0.5-0.4l-0.6-0.2l-0.5-0.1l-0.5,0
	l-3,1.7l-5.1,2.9 M112.1,145.8l-2.2-1.2 M113.4,146.3l-1.3-0.5 M113.4,146.3l0.3-0.6l2.3-3.2l0,0l-0.7-1.2l-1.2-2.7l-0.8-2.8
	l-1.3-0.5l-2.2-1.2l-1.8-1.4l-1.9,2.4l-0.8,1.3l0.3,1.3 M108.1,132.7l4.8-2.8l5.3,3l2.6,6.8l-2.6,3.8l-4.8,2.7 M118.2,133l-4.8,2.8
	l0,0 M120.8,139.8l-4.8,2.8 M145.4,47L145.4,47 M151.2,52.6L151.2,52.6 M145.4,47L145.4,47 M145.4,47L145.4,47 M108.1,132.7
	L108.1,132.7"/>
<path id="Layer3_7_MEMBER_5_1_STROKES" class="st7" d="M125.5,82.1l0.4-0.5 M132.6,85.5l-9-0.8l1.5-2.1 M137.1,85.9l-2.2-0.2
	 M134.8,68.9l2.9-4.1 M133.3,71l0.7-1 M129.7,76.1l2.9-4.1 M161.8,88.1l-2.2-0.2 M169.3,94.3l3.7-5.2l-9-0.8 M157.3,87.7l-17.9-1.6
	 M126.2,81l1.5-2.1 M167.5,96.9l0.9-1.3 M162.9,103.4l3.7-5.2"/>
<path id="Layer3_7_MEMBER_6_1_STROKES" class="st8" d="M275,84.9l-0.2-1.3l0.1,0l0.5-0.3l0.7-0.3l0.2-0.1l0.5,0l0.5,0.1l1.4,0.5
	l0.4,0.2l0.3,0.3l0.3,0.4l0.3,0.5l0.2,0.5l0.3,1.2l0,0.7l-0.1,1.4l-0.3,1.5l-0.9,2.1l-0.8,1.2l-0.9,0.9l-0.5,0.4l-1,0.4l-0.9,0.1
	l-0.4-0.1l-0.4-0.2l-0.6-0.4l-1.1-0.9l-0.3-0.3l-0.2-0.4l-0.2-0.7v-0.9l0-0.3l0.2-1l0.4-1l0.7-1.3l0.5-0.6l1.3-1.4l1.4-1l0.9,0.8v0
	l0.2,2.2l-0.5,0.3l-0.8,0.7l-0.6,0.9l-0.3,0.9l-0.1,0.4v0.4l0.1,0.3l0.1,0.3l0.2,0.2l0.1,0.1l0.3,0.1l0.3,0l0.3-0.1l0.3-0.2l0.3-0.3
	l0.3-0.3l0.5-0.9l0.4-1l0.1-0.5l0.1-1l-0.1-0.4l-0.3-0.7l-0.2-0.2l-0.3-0.2l-0.3,0 M278.7,83.4l-0.4-0.1l-0.5,0l-0.5,0.1l-0.5,0.2
	l-0.5,0.3l-0.5,0.3l0.1,0.3 M275.8,84.2l-1-0.6 M265.5,89l0.7,0.3 M265.5,89l-0.7-0.4l-0.5-0.5l-0.3-0.8l-0.1-1l0.1-1.1l0.3-1.2
	l1.2-2.3l0.8-0.9L267,80l0.9-0.5l0.9-0.3h0.8l0.7,0.3l0.7,0.4l0.5,0.5l0.3,0.8l0.1,1l-0.1,1.1l-0.3,1.2l-0.5,1.2l-0.7,1.1l-0.8,0.9
	l-0.9,0.8l-0.9,0.5l-0.9,0.3h-0.8 M271.1,79.9l-0.7-0.3l-0.8,0l-0.9,0.3l-0.9,0.5l-0.9,0.8l-0.8,0.9l-1.2,2.3l-0.3,1.2l-0.1,1.1
	l0.1,1l0.3,0.8l0.5,0.5 M267,86.5l0.6-0.3l0.6-0.5l0.5-0.7l0.4-0.8l0.2-0.8l0-0.7l-0.1-0.3 M268.2,82.2c-0.5,0.3-1,0.8-1.4,1.5
	c-0.4,0.7-0.5,1.3-0.5,1.9s0.2,1,0.5,1.3c0.4,0.2,0.8,0.2,1.4-0.1c0.6-0.3,1-0.8,1.4-1.5c0.4-0.7,0.6-1.3,0.6-1.9
	c0-0.6-0.2-1-0.6-1.2C269.3,81.8,268.8,81.9,268.2,82.2z M273.4,94.4l-0.3-0.3l-0.3-0.4l-0.2-0.4l-0.1-1.1l0.1-0.6l0.3-1.3l0.6-1.4
	l0.8-1.3l1.6-1.6l1.1-0.8 M277.4,87.9l0,0.2v0.2l-0.1,0.8l-0.2,0.6l-0.1,0.2l-0.1,0.2l-0.1,0.2l-0.1,0.2l-0.2,0.3l-0.3,0.4l-0.5,0.4
	l-0.1,0.1 M283.4,91l-0.5,0.3l-0.4,0.4l-0.4,0.5l-0.3,0.6l-0.3,0.9l0,0.3v0.5l0.1,0.3l0.1,0.2l0.1,0.2l0.3,0.3l1.6,0.9l-0.1-0.1
	l-0.3-0.3l-0.2-0.4l-0.1-0.2l0-0.5l0.1-0.6l0.4-0.9l0.3-0.6l0.7-0.7l0.5-0.3l0.5-0.2l0.2,0h0.2l0.2,0.1l-1.4-0.8l-0.2,0h-0.2l-0.2,0
	L283.4,91z M286.1,91.7l-0.2-0.1l0.3,0.2L286.1,91.7z M300.8,108.2l0.1,0 M300.8,108.2l-0.2,0h0l-0.3,0l-0.6-0.1l-0.3-0.1l-0.2-0.1
	h0l-2.1-1.2c-0.6-0.4-0.9-1.2-0.9-2.2c0-0.3,0-0.5,0.1-0.8c0.1-0.8,0.4-1.6,0.9-2.5c0.5-0.9,1.1-1.6,1.8-2.1
	c0.2-0.1,0.4-0.3,0.6-0.4c0.9-0.5,1.7-0.6,2.4-0.3l2.2,1.2l0.5,0.5l0.3,0.6l0.2,0.6l0.1,0.7l0,0.8l-0.5,1.7l-0.4,0.8l-1.1,1.5
	l-0.6,0.5l-0.7,0.4l-0.6,0.3l-0.3,0 M305.1,101.5l-0.2-0.6l-0.3-0.4l-0.5-0.3l-0.5-0.1l-0.6,0.1l-0.6,0.3l-0.7,0.4l-0.7,0.5l-1,1.3
	l-0.1,0.1l0,0.1l-0.1,0.1l-0.7,1.6l-0.2,0.8l0,0.7l0.1,0.7l0.2,0.6l0.3,0.4l0.5,0.3l0.5,0.1l0.2,0 M299,99.2l1.8,1.1l1.1,0l0.6-0.1
	l1.2-0.3l0.3-0.2 M302.4,101.6v2.5l2.1-1.2 M291.6,94.9l-0.3-0.2 M291.6,94.9l-0.3-0.2h0l-0.2,0h-0.2l-0.2,0l-0.5,0.2L290,95
	l-0.5,0.4l-0.6,0.8l-0.2,0.3l-0.4,0.9l-0.1,0.9l0.1,0.5l0.1,0.2l0.2,0.3l0.3,0.2l7.1,4.1 M300,102.6L300,102.6l0.1-0.1l0.1-0.2
	l0.1-0.1l0.1-0.2l0.1-0.2l0-0.1l0-0.1l0-0.1l0.2-0.6V101l0.1-0.1v-0.1l0-0.1v-0.1l0-0.1v-0.1l0-0.1v-0.1 M299.9,102.7L299.9,102.7
	l-0.1,0.1l-0.1,0.2l0,0.1l-0.1,0.2l0,0.1l-0.1,0.2l-0.1,0.1l-0.1,0.1l-0.1,0.1l0,0.1l-0.1,0.1l0,0.1L299,104l-0.1,0.1l0,0.1
	l-0.1,0.1l-0.1,0.1l-0.2,0.2l-0.1,0.1l-0.1,0.1l-0.1,0l-0.1,0.1l-0.1,0l-0.1,0.1l0.2,0.3l0.6,1.3l0.2,0.6l0.2,1 M296.3,103.8
	l1.9,1.1 M298.5,98.9l-6.8-3.9 M299.8,105.6l2.6-1.5v2.6 M289.8,93.9l-0.1-0.1l-0.2-0.1l-0.1,0L289.8,93.9z M289.8,93.9l1.4,0.8
	 M289.5,93.7l-0.1,0h-0.2l-0.5,0.1l-0.3,0.1l-0.2,0.1l-0.5,0.4l-0.4,0.5l-0.2,0.3l-0.3,0.6l-0.2,0.6l-0.1,0.6l0.1,0.8l0.1,0.2
	l0.1,0.2l0.3,0.3l0.1,0.1l1.8,1 M288,92.8l-0.3-0.2 M288,92.8l-0.1-0.1l-0.2-0.1l0,0l-0.2,0h-0.2l-0.2,0l-0.5,0.2l-0.5,0.3l-0.5,0.5
	l-0.4,0.5l-0.3,0.6l-0.3,0.9l0,0.6l0.1,0.5l0.2,0.4l0.1,0.1l0.3,0.2l1.8,1.1 M289.5,93.7l-1.4-0.8 M283.6,96.5l1.7,1 M286.3,91.8
	l1.4,0.8 M211.4,44l0.5,0.1l-1.2-0.7l-0.5-0.1l-0.7-0.1l-1.5,0.3l-0.8,0.3l-1.6,0.9l-1.5,1.3l-0.7,0.8l-1.3,1.8l1.2,0.6v0l1.3-1.8
	l1.5-1.5l1.6-1.1l1.6-0.7L210,44l0.7-0.1L211.4,44z M209.8,43l-1.1-0.6l-0.6-0.2l-0.7-0.1l-0.7,0.1l-1.6,0.5l-1.6,0.9l-2.3,2.1
	l-1.3,1.8l1.1,0.6v0l0.7-0.9l1.4-1.7l1.5-1.3l0.8-0.5l1.6-0.7l0.7-0.2l0.7-0.1l0.7,0.1L209.8,43z M208.9,47.2l-0.3,0.1l0.1,0.3
	l0,1.1l-0.5,1.2l-0.7,1l-0.9,0.7l-0.6,0.1l0.2,0.5l0.7,0.3l0.9-0.2l0.9-0.7l0.7-1l0.4-1.2l0-1.1l-0.3-0.8L208.9,47.2z M200,47.5
	L200,47.5L200,47.5 M208.6,47.2l-0.6,0.1l-0.9,0.7l-0.7,1.1l-0.4,1.2l-0.1,1.1l0.2,0.3 M200.5,73.2l-0.1-11.5l1.5-0.9l-1.1-1
	l-0.7-1.4v-1.3l-0.1-9.8 M201.9,60.9L201.9,60.9l1.2,0.6l-1-0.9l-0.7-1.3l-0.1-1.3l-0.1-9.9 M202.1,48.7l0.1,10l0.4,1.6l1.1,1.3
	 M203.9,62l-0.9-0.5 M203.9,62l0-1.2l3.5-2l1,0.6l1.7-1.1v-1.1l-0.1,0l3.5-2l9,5.1l0,0l1.7,1.1l2.5,2.3l2.3,2.7l2.6,4.2l1.8,4.5
	l0.7,3.3l0.2,2.1l-0.2,2.9l-0.4,1.7l-0.3,0.8l-0.4,0.7l-0.9,1.2l-1.1,0.9l-1.3,0.6l-0.9,0.2l-0.8,0.9l-0.5,0.5l-1.3,0.6l-0.1,0
	l-0.1,0.1l-1.1,0.9l-1.3,0.6l-0.9,0.3 M200.4,61.8l2.6,1.4l1-0.5V62 M203.3,49.3l0.1,10l0.6,1.3 M211.9,44.1l0.1,10.2l0.1,0.5
	l0.1,0.2l0.2,0.4l0.1,0.1 M229.1,89.6l0.2-0.2l0.4-0.7l0.7-1.5l0.4-1.7l0.2-1.9l-0.2-3.1l-1.1-4.4l-2-4.4l-2.7-4.1l-2.4-2.6
	l-3.2-2.5l-0.2-0.2l-8.9-5.1 M190.5,45.7l0.7,0.3 M190.5,45.7l-0.7-0.4l-0.5-0.6l-0.3-0.8l-0.1-1l0.1-1.1l0.3-1.2l0.5-1.2l0.7-1.1
	l0.8-1l0.9-0.8l0.9-0.5l0.9-0.3h0.8l0.7,0.3l0.7,0.4l0.5,0.5l0.3,0.8l0.1,1L197,40l-0.3,1.2l-0.5,1.2l-0.7,1.1l-0.8,1l-0.9,0.8
	l-0.9,0.5L192,46h-0.8 M196.1,36.6l-0.7-0.3h-0.8l-0.9,0.3l-0.9,0.5l-0.9,0.8l-0.8,1l-0.7,1.1l-0.5,1.2l-0.3,1.2l-0.1,1.1l0.1,1
	l0.3,0.8l0.5,0.6 M191.3,42.3c0,0.6,0.2,1.1,0.5,1.3c0.4,0.2,0.8,0.2,1.4-0.1c0.6-0.3,1-0.8,1.4-1.5c0.4-0.7,0.6-1.3,0.6-1.9
	c0-0.6-0.2-1.1-0.6-1.3c-0.4-0.2-0.8-0.2-1.4,0.1c-0.5,0.3-1,0.8-1.4,1.4C191.5,41,191.3,41.6,191.3,42.3z M192,43.2l0.6-0.3
	l0.6-0.5l0.5-0.7l0.4-0.8l0.2-0.8l0-0.7l-0.1-0.3 M216.6,64l1.7,1.2l0.8,0.7l0.9,0.7l1.6,1.7l2.2,2.9l1.9,3.2l1.8,4.5l0.7,3.3
	l0.2,3.1l-0.4,2.8l-0.2,0.8l-0.7,1.5l-0.4,0.7l-0.4,0.5l-0.4,0.1 M213.9,94.5l1.7,0.6l1.6,0.3h1.6l0.7-0.1l0.7-0.2l0.7-0.3l1.2-0.8
	l1-1.1l0.4-0.6l0.9-2.3l0.3-1.8v-3l-0.6-3.3l-1.6-4.5l-1.7-3.2l-2.9-3.9l-0.8-0.9l-0.8-0.8l-0.8-0.7l-0.8-0.7l-1.8-1.2l-8.9-5
	 M203.9,62.7l0.1,4.6l0.1-0.3l0.3-0.5l0.2-0.2l0.5-0.3l0.5-0.2l0.3-0.1h0.6l0.5,0.1l5.7,3.3l1.4,1l0.7,0.6l1.4,1.3l0.6,0.7l2.2,3.2
	l1.7,3.5l0.8,2.7l0.3,1.8l-0.1,3.2l-0.3,1.4l-0.3,0.6l-0.6,1.1l-0.4,0.5l-0.9,0.7 M203.1,71.5l-0.2-8.3 M216.6,64l-8.1-4.6
	 M258.8,57.8c-0.5,0-0.7,0.2-0.9,0.6c0.1,0.5,0.4,0.7,0.9,0.7c0.2,0,0.4-0.1,0.6-0.3c0.2-0.1,0.2-0.3,0.3-0.5
	C259.5,58,259.2,57.8,258.8,57.8z M259.6,58.4C259.6,58.4,259.6,58.3,259.6,58.4c0-0.3,0.1-0.5,0.3-0.6c0.2-0.2,0.4-0.2,0.6-0.2
	c0.2,0,0.4,0.1,0.6,0.2c0.2,0.2,0.3,0.3,0.3,0.5v8.9l0.1,0.1l0.2,0.2l0.2,0.2l0.1,0.1l0,0.1v0.3l0,4.6l0,0.1V73l0,0.1l-0.1,0.1
	l-0.1,0.1l0,0.1l-0.2,0.2l-0.1,0.1l0,0h0v0.1h0v0.1h0v0h0l0,0.1v0l0,0v0h0v0h0V74h0v0h0v0l0.1,0.1v0h0v0h0v0h0l0.1,0.1v0h0v0h0.1v0
	l0.1,0.1h0v0h0l0,0h0v0l0.1,0l0.3,0.2l0.4,0.5l0.2,0.3l0.1,0.4l0.1,0.4l0.1,0.8l-0.1,1l-0.4,1.5l-1,2l-1,1.3l-0.7,0.7l-0.8,0.5
	l-0.4,0.2l-0.8,0.3l-0.4,0.1l-0.7,0l-0.3-0.1l-0.3-0.1l-1-0.6l-0.3-0.4l-0.3-0.4l-0.1-0.4l-0.1-0.4l-0.1-0.4v-0.2l0-0.2l0-0.2v-0.2
	l0.2-1.2l0.3-1l0.5-1l0.6-0.9l0.3-0.4l0.1-0.1l0-0.1v0l0.1,0v0l0-0.1l0.1-0.1l0-0.1l0.1-0.1v-0.1l0.1-0.1l0-0.1l0,0v0l0-0.1l0,0v0
	l0.1-0.1v0l0,0l0-0.1v0l0-0.1v0l0-0.1l0,0l0-0.1l0,0v-0.1l0,0l0-0.1l0,0v0l0-0.1v0l0-0.1v0l0-0.1v0l0,0v-0.1l0-0.1v0l0-0.1v0l0,0
	v-0.1l0,0V74l0-0.1v-0.1l0,0v-0.1l0,0v-0.1 M210.2,58.3l10.2,5.9l2.6,2.3l2.4,2.9l2,3.3l1.5,3.5l0.9,3.5l0.3,3.3l-0.1,1.5l-0.7,2.6
	l-0.6,1.1L228,89 M257.9,58.4l0,8.9v0.3l0,0.1l0.2,0.3l0.1,0.1l0.4,0.2l0.3,0.1l0.2,0.1h1.1l0.3-0.1l0.2-0.1l0.4-0.2l0.3-0.3
	l0.1-0.1l0-0.2v-0.4 M257.9,67.3L257.9,67.3l-0.3,0.3l-0.1,0.2l-0.1,0.3l0.1,0.3l0.1,0.3l0.3,0.3l0.1,0.1l0.4,0.2l0.6,0.2h0.2l0.2,0
	h0.5l0.2,0h0.2l0.4-0.1l0.4-0.1l0.3-0.2l0.2-0.2l0.2-0.2l0.1-0.1l0-0.1 M257.4,68.1v4.6l0,0.1v0.1l0,0.1l0,0.1l0.1,0.2l0.3,0.3
	l0.1,0l0.2,0.1l0.1,0l0.1,0.1l0.1,0l0.1,0.1L259,74h0.1l0.1,0l0.2,0h0.8l0.2-0.1h0.1l0.5-0.1l0.1-0.1l0.1,0l0.1-0.1l0.1,0l0.1-0.1
	l0.1-0.1l0.1,0 M256.7,84.3l-0.3-0.2l-0.4-0.5l-0.2-0.3l-0.1-0.4l-0.1-0.4l-0.1-0.9l0.2-1.4l0.1-0.5l0.6-1.5l1.1-1.7l0.1,0v-0.1
	l0.1-0.1l0-0.1l0.1-0.1l0-0.1v0l0,0l0-0.1l0.1-0.1l0-0.1v0l0,0l0-0.1l0.1-0.1v-0.1l0.1-0.1l0-0.1v0l0-0.1l0,0v0l0-0.1l0.1-0.1v-0.1
	l0,0v-0.1l0,0l0-0.1v0l0,0l0-0.1v0l0-0.1v0 M258.8,77.6l-0.5,0.7l-0.4,0.7l-0.2,0.5l-0.1,0.5l0,0.3v0.5l0,0.2l0.1,0.4l0.1,0.1l0,0.1
	h0.2l0.1,0h0.1l0.5-0.2l0.1-0.1l0.1,0l0.3-0.2l0.1-0.1l0.1-0.1l0.1-0.1l0.1-0.1l0.1-0.1l0.1-0.1l0.2-0.2l0.1-0.1l0.1-0.1l0.1-0.1
	l0.1-0.1l0.2-0.3l0.1-0.1l0.1-0.1l0-0.1l0.1-0.1l0.1-0.1l0-0.1l0.1-0.1l0.1-0.2l0.1-0.1v-0.1l0.1-0.1v-0.1l0.1-0.2v-0.8l0-0.1v-0.1
	l-0.1-0.3l-0.1-0.1l0-0.1l-0.1-0.1h-0.2l-0.2,0l-0.4,0.1l-0.4,0.2L258.8,77.6z M257.8,81.6L257.8,81.6l0.3,0.3l0.3,0.1h0.3l0.2,0
	l0.2-0.1l0.4-0.2l0.2-0.1l0.2-0.1l0.7-0.8l0.6-1l0.2-0.5l0.1-0.7V78l0-0.2l-0.1-0.4l-0.1-0.2l-0.1-0.1l-0.1-0.1l-0.3-0.2l-0.2-0.1
	h-0.1 M249.6,69.9l-0.9,0.8l-0.8,1l-0.7,1.1l-0.5,1.2l-0.3,1.2l-0.1,1.1l0.1,1l0.3,0.8l0.5,0.5l0.7,0.4l-0.5-0.5l-0.3-0.8l-0.1-1
	l0.1-1.1l0.3-1.2l0.5-1.2l0.7-1.1l0.8-1l0.9-0.8l0.9-0.5l0.9-0.3h0.8l0.7,0.3l-0.7-0.4l-0.7-0.3h-0.8l-0.9,0.3L249.6,69.9z
	 M248.1,79l0.7,0.3h0.8l0.9-0.3l0.9-0.5l0.9-0.8l0.8-1l0.7-1.1l0.5-1.2l0.3-1.2l0.1-1.1l-0.1-1l-0.3-0.8l-0.5-0.5 M249.6,76.4
	l0.6-0.3l0.6-0.5l0.6-0.7l0.4-0.8l0.2-0.8l0-0.7l-0.1-0.3 M249.5,73.6c-0.4,0.7-0.6,1.3-0.6,1.9c0,0.6,0.2,1.1,0.6,1.3
	s0.8,0.2,1.4-0.1c0.5-0.3,1-0.8,1.4-1.5c0.4-0.7,0.6-1.3,0.6-1.9c0-0.6-0.2-1-0.6-1.2c-0.4-0.2-0.8-0.2-1.4,0.1
	C250.4,72.5,249.9,73,249.5,73.6z M216.6,64L216.6,64 M200,47.5L200,47.5"/>
<path id="Layer3_7_MEMBER_7_1_STROKES" class="st7" d="M269.9,85.4l-1.8-1 M270.8,85.9l-0.4-0.2 M273,87.2l-1.8-1 M278.7,90.5
	l-1.8-1 M279.6,91l-0.5-0.3 M281.8,92.3l-1.8-1 M181.8,34.6l-4.6-2.6 M197.9,43.8l-0.7-0.4 M201.3,45.8l-2.7-1.6 M215.4,53.9
	l-7.1-4.1 M218.9,56l-1.8-1 M184.1,35.9l-1.1-0.7 M189.9,39.2l-4.6-2.6 M196.6,43.1l-2.7-1.6 M238.5,67.2l-1.8-1 M253.1,75.7
	l-1.6-0.9 M253.9,76.1l-0.4-0.2 M255.9,77.3l-1.6-0.9 M261.3,80.5l-2-1.1 M262.3,81l-0.5-0.3 M264.8,82.4l-2-1.1 M234.9,65.2
	L220.7,57 M247.4,72.4l-7.1-4.1"/>
<path id="Layer3_7_MEMBER_8_1_STROKES" class="st6" d="M178.6,32.7c0.4-0.7,0.6-1.3,0.6-1.9c0-0.6-0.2-1.1-0.6-1.3
	c-0.4-0.2-0.8-0.2-1.4,0.1c-0.5,0.3-1,0.8-1.4,1.4c-0.4,0.7-0.6,1.3-0.6,1.9c0,0.6,0.2,1.1,0.6,1.3c0.4,0.2,0.8,0.2,1.4-0.1
	C177.7,33.8,178.2,33.3,178.6,32.7z"/>
<path id="Layer3_7_MEMBER_9_1_STROKES" class="st6" d="M180.8,21.3l1.2,0.7"/>
<path id="Layer3_7_MEMBER_10_1_STROKES" class="st6" d="M166,29l-0.2,0.1l-0.1,0.1l-0.3,0.2l-0.1,0.1l-0.5,0.4l-0.1,0.1l-0.1,0.1
	l-0.1,0.1l-0.1,0.1l-0.4,0.5l-0.1,0.1l-0.1,0.1l-0.1,0.1l-0.1,0.1l-0.4,0.7l0,0.1l-0.1,0.3l0,0.1l-0.1,0.1l0,0.1l-0.1,0.1l-0.2,0.7
	v0.1l0,0.1V34l0,0.1v0.7l0,0.1V35l0,0.1"/>
<path id="Layer3_7_MEMBER_11_1_STROKES" class="st6" d="M180.1,21.1h-0.6l-0.1,0l-0.1,0h-0.1l-0.4,0.1"/>
<path id="Layer3_7_MEMBER_12_1_STROKES" class="st6" d="M163.1,35.8l4.2,9.3"/>
<path id="Layer3_7_MEMBER_13_1_STROKES" class="st6" d="M178.1,21.6L166,29"/>
<path id="Layer3_7_MEMBER_14_1_STROKES" class="st6" d="M167,29.8l-0.2,0.1l-0.1,0.1l-0.1,0.1l-0.5,0.5l-0.1,0.1l-0.2,0.2l-0.2,0.2
	l-0.1,0.1l-0.1,0.1l-0.2,0.2l-0.1,0.1l-0.1,0.1l-0.1,0.1L165,32l-0.1,0.2l-0.1,0.1l-0.2,0.4l0,0.1l-0.2,0.4l-0.1,0.3l-0.1,0.1
	l-0.2,0.7v0.1l0,0.1v0.1l0,0.1v0.7l0,0.1v0.1l0,0.1v0.1l0.1,0.4"/>
<path id="Layer3_7_MEMBER_15_1_STROKES" class="st6" d="M183,23.6L183,23.6l0-0.2l-0.1-0.3l0-0.1l-0.1-0.3l0-0.1l-0.1-0.1l0-0.1
	l-0.1-0.1l0-0.1l0-0.1l-0.2-0.2l-0.1-0.1l-0.1,0l-0.1-0.1l-0.1,0l-0.1-0.1l-0.1-0.1l-0.1,0l-0.1,0l-0.1-0.1h-0.1l-0.1,0h-0.1l-0.1,0
	h-0.1l-0.1,0h-0.2l-0.1,0h-0.2l-0.1,0h-0.1l-0.3,0.1h-0.1l-0.1,0.1l-0.1,0l-0.1,0l-0.1,0l-0.1,0.1l-0.1,0l-0.1,0.1l-0.2,0.1"/>
<path id="Layer3_7_MEMBER_16_1_STROKES" class="st6" d="M164.3,36.4l4.2,9.3"/>
<path id="Layer3_7_MEMBER_17_1_STROKES" class="st6" d="M179.3,22.3l-12.1,7.4"/>
<path id="Layer3_7_MEMBER_18_1_STROKES" class="st6" d="M183.5,38.5L183,24.1"/>
<path id="Layer3_7_MEMBER_19_1_STROKES" class="st6" d="M245.1,50.5v-0.4l0.2-1.1l0.2-0.7l0.6-1.3l0.4-0.6l0.7-0.9l0.2-0.1l0.1-0.2
	l0.7-0.5"/>
<path id="Layer3_7_MEMBER_20_1_STROKES" class="st6" d="M251.4,52.7L256,50"/>
<path id="Layer3_7_MEMBER_21_1_STROKES" class="st6" d="M253.9,48.7v5.1"/>
<path id="Layer3_7_MEMBER_22_1_STROKES" class="st6" d="M253.5,45.5l2.2,1.3"/>
<path id="Layer3_7_MEMBER_23_1_STROKES" class="st6" d="M250.2,51.5l0.5-0.5l0-0.1l0.1-0.1l0.1-0.1l0.1-0.1l0.1-0.1l0.1-0.1l0.1-0.2
	l0.1-0.1l0-0.1l0.1-0.2l0-0.1l0.1-0.2l0-0.1l0-0.1l0.1-0.2l0-0.1l0.1-0.1l0.1-0.2l0-0.1l0-0.1l0.1-0.1l0.1-0.3l0-0.1l0.1-0.4V48
	l0.1-0.2"/>
<path id="Layer3_7_MEMBER_24_1_STROKES" class="st6" d="M255.7,46.8l0.5,0.5l0.3,0.6l0.2,0.6"/>
<path id="Layer3_7_MEMBER_25_1_STROKES" class="st6" d="M250.8,55.1l0.3,0.1l0.3,0.1l0.6,0.1l0.9-0.1"/>
<path id="Layer3_7_MEMBER_26_1_STROKES" class="st6" d="M252.4,47.3l1.1,0l0.7-0.1l1.2-0.3l0.3-0.2"/>
<path id="Layer3_7_MEMBER_27_1_STROKES" class="st6" d="M250.9,55.1l-0.2-1l-0.5-1.3l-0.5-0.9"/>
<path id="Layer3_7_MEMBER_28_1_STROKES" class="st6" d="M250.5,46.2l1.8,1.1"/>
<path id="Layer3_7_MEMBER_29_1_STROKES" class="st6" d="M247.9,50.8l1.8,1.1"/>
<path id="Layer3_7_MEMBER_30_1_STROKES" class="st6" d="M248.7,53.8l2.2,1.3"/>
<path id="Layer3_7_MEMBER_31_1_STROKES" class="st6" d="M248.7,53.8c-0.6-0.4-0.9-1.1-0.9-2.2c0-1.1,0.4-2.2,1-3.3
	c0.7-1.1,1.4-1.9,2.4-2.5c0.9-0.5,1.7-0.6,2.4-0.3"/>
<path id="Layer3_7_MEMBER_32_1_STROKES" class="st6" d="M255.7,47.2l-0.5-0.1l-0.6,0.1l-0.7,0.3l-0.6,0.4l-0.6,0.5l-0.6,0.7
	l-0.5,0.8l-0.7,1.7l-0.2,0.8l-0.1,0.8l0.1,0.7l0.2,0.6l0.4,0.4l0.5,0.3l0.5,0.1l0.6-0.1l0.6-0.3l0.7-0.4l1.2-1.2l0.9-1.6l0.5-1.7
	l0-0.8l-0.1-0.7l-0.2-0.6l-0.3-0.4L255.7,47.2z"/>
<path id="Layer3_7_MEMBER_33_1_STROKES" class="st6" d="M253.1,42.6l0-4.6"/>
<path id="Layer3_7_MEMBER_34_1_STROKES" class="st6" d="M248.5,38v4.8l0.1,0.1l0,0.1l0,0.1l0.1,0.1l0,0.1l0.2,0.2l0.1,0l0.1,0.1
	l0.1,0.1l0.1,0l0.1,0.1l0.2,0.1l0.1,0l0.1,0.1l0.2,0.1h0.1l0.1,0.1h0.1l0.1,0h0.1l0.2,0h0.5l0.1,0h0.1l0.1,0h0.1l0.1-0.1h0.1
	l0.2-0.1l0.1-0.1l0.2-0.1l0.1-0.1l0.1-0.1l0.1,0l0.1-0.1l0.1,0l0.2-0.2"/>
<path id="Layer3_7_MEMBER_35_1_STROKES" class="st6" d="M249,37.2l-0.2,0.2l-0.2,0.3l-0.1,0.1l0,0.1v0.3l0,0.1l0.1,0.1l0.2,0.3
	l0.1,0.1l0.1,0.1l0.1,0.1l0.2,0.1l0.4,0.1l0.2,0.1l0.7,0.1h0.4l0.7-0.1l0.6-0.2l0.2-0.1l0.4-0.3l0.1-0.1l0.1-0.1l0.1-0.1l0-0.1v-0.3
	l0-0.1l-0.1-0.1l-0.1-0.3l-0.1-0.1l-0.1-0.1l-0.1-0.1"/>
<path id="Layer3_7_MEMBER_36_1_STROKES" class="st6" d="M248,45.8L248,45.8L248,45.8l0.1-0.1l0.1-0.1l0-0.1l0,0l0-0.1v0l0.1-0.1
	l0-0.1v0l0-0.1l0.1-0.1v-0.1l0.1-0.1l0-0.1v0l0,0l0-0.1v0l0-0.1l0,0v-0.1l0.1-0.1v-0.1l0,0v-0.1l0,0v-0.1l0,0v-0.1l0.1-0.1v-0.1
	l0-0.1v0l0-0.1v0l0,0V44l0-0.1v0l0,0v-0.1l0-0.1"/>
<path id="Layer3_7_MEMBER_37_1_STROKES" class="st6" d="M252.7,43.6L252.7,43.6L252.7,43.6L252.7,43.6l0.1,0.1v0h0v0l0,0v0h0v0h0v0
	L253,44v0l0.1,0v0h0v0h0v0l0,0h0l0,0v0h0v0h0l0,0h0v0h0"/>
<path id="Layer3_7_MEMBER_38_1_STROKES" class="st6" d="M248.8,46.1L248.8,46.1L248.8,46.1l0.1-0.1l0.1-0.1l0-0.1v0l0-0.1l0.1-0.1
	v-0.1l0,0l0-0.1v0l0,0l0-0.1l0,0v-0.1l0.1-0.1v-0.1l0.1-0.1v0l0-0.1v0l0,0v-0.1l0,0l0-0.1v0l0-0.1v0l0-0.1v0l0,0v-0.1l0,0v-0.1
	l0-0.1v0l0-0.1v0l0-0.1"/>
<path id="Layer3_7_MEMBER_39_1_STROKES" class="st6" d="M247,53.7l0.8,0.5"/>
<path id="Layer3_7_MEMBER_40_1_STROKES" class="st6" d="M247.8,46.1l-0.3,0.4l-0.8,1.4l-0.2,0.5l-0.4,1.2l-0.2,1v0.9l0,0.2l0.1,0.2
	l0,0.2l0.2,0.5l0.3,0.5l0.5,0.5"/>
<path id="Layer3_7_MEMBER_41_1_STROKES" class="st6" d="M248.6,46.4l-1.1,1.7l-0.4,1l-0.4,1.5l-0.1,0.9l0.1,0.8l0.1,0.4l0.3,0.7
	l0.2,0.3l0.2,0.2l0.3,0.2l0.6,0.2l0.7,0l0.5-0.1"/>
<path id="Layer3_7_MEMBER_42_1_STROKES" class="st6" d="M254.5,46l-0.1-0.3l-0.3-0.7l-0.2-0.3l-0.5-0.4"/>
<path id="Layer3_7_MEMBER_43_1_STROKES" class="st6" d="M250.7,28.2c-0.2-0.4-0.4-0.5-0.8-0.5c-0.4,0-0.7,0.2-0.9,0.6"/>
<path id="Layer3_7_MEMBER_44_1_STROKES" class="st6" d="M248.9,28.3c0,0.2,0.1,0.4,0.3,0.5c0.2,0.1,0.4,0.2,0.5,0.2
	c0.2,0,0.4-0.1,0.6-0.3c0.2-0.2,0.3-0.4,0.3-0.6"/>
<path id="Layer3_7_MEMBER_45_1_STROKES" class="st6" d="M252.4,28.2c0-0.2-0.1-0.4-0.3-0.5c-0.2-0.2-0.4-0.2-0.6-0.2
	c-0.2,0-0.4,0.1-0.6,0.2c-0.2,0.2-0.2,0.3-0.3,0.5"/>
<path id="Layer3_7_MEMBER_46_1_STROKES" class="st6" d="M248.9,37.5v-9.2"/>
<path id="Layer3_7_MEMBER_47_1_STROKES" class="st6" d="M252.4,37.5v-9.4"/>
<path id="Layer3_7_MEMBER_48_1_STROKES" class="st6" d="M248.9,37.5v0.2l0.2,0.3l0.1,0.1l0.2,0.1l0.5,0.2l0.8,0.1h0.3l0.5-0.1
	l0.2-0.1l0.4-0.2l0.1-0.1l0.1-0.1l0.1-0.1l0-0.2"/>
<path id="Layer3_7_MEMBER_49_1_STROKES" class="st6" d="M255.7,54.4l1.8,3.3"/>
<path id="Layer3_7_MEMBER_50_1_STROKES" class="st6" d="M256.8,72.5l-1.5,0.9"/>
<path id="Layer3_7_MEMBER_51_1_STROKES" class="st6" d="M234.9,51l6.7-3.9"/>
<path id="Layer3_7_MEMBER_52_1_STROKES" class="st6" d="M235.7,52.7l0.6-0.3l0.7-0.2l0.7-0.1l0.8,0l1.7,0.4l1.8,0.8L243,54l1.7,1.4
	l1.7,1.7l2.1,3.1l1.2,2.3l0.8,2.3l0.6,3.2"/>
<path id="Layer3_7_MEMBER_53_1_STROKES" class="st6" d="M245.1,54.1l0.9,0.9l2.6,3.3l1.4,2.5l1.6,3.9l0.7,3.3"/>
<path id="Layer3_7_MEMBER_54_1_STROKES" class="st6" d="M232,55l0.1-0.3l0.3-0.9l0.5-0.8l0.5-0.7l0.6-0.6l0.7-0.5l0.7-0.3l0.8-0.2
	l0.9-0.1l1.9,0.2l2,0.7l0.5,0.3"/>
<path id="Layer3_7_MEMBER_55_1_STROKES" class="st6" d="M245.6,77.3l-0.5-0.1l-1-0.3"/>
<path id="Layer3_7_MEMBER_56_1_STROKES" class="st6" d="M245.1,50.4v3.7"/>
<path id="Layer3_7_MEMBER_57_1_STROKES" class="st6" d="M247.8,42.3l-0.3-0.2"/>
<path id="Layer3_7_MEMBER_58_1_STROKES" class="st6" d="M243.3,49.4v-0.2l0-0.2v-0.2l0-0.2l0.3-1.1l0.3-0.7l0.2-0.5L245,45l0.4-0.5
	L246,44l0.3-0.3l0.5-0.3l0.5-0.3l0.2-0.1"/>
<path id="Layer3_7_MEMBER_59_1_STROKES" class="st6" d="M241.5,48.4V48l0.1-0.6l0.6-1.8l0.5-0.9l0.1-0.2l0.3-0.4l0.8-0.9l0.7-0.6
	l0.3-0.2l0.2-0.1l0.3-0.2l0.2-0.1l0.1-0.1l0.7-0.1h0.5l0.3,0.1l0.1,0.1l0.1,0l0.1,0.1"/>
<path id="Layer3_7_MEMBER_60_1_STROKES" class="st6" d="M241.6,48.4v3.2"/>
<path id="Layer3_7_MEMBER_61_1_STROKES" class="st6" d="M243.4,49.4v4.8"/>
<path id="Layer3_7_MEMBER_62_1_STROKES" class="st6" d="M245.1,54.2l0.9-0.5"/>
<path id="Layer3_7_MEMBER_63_1_STROKES" class="st9" d="M126.7,74.8l0.1-0.2l0.3-0.4l0.4-0.3l0.5-0.3l0.8-0.2h0.6l0.9,0.2l0.6,0.3
	l0.5,0.4l0.7,0.7l0.3,0.5l0.2,0.5l0.1,0.6l0,0.3l-0.1,0.5l-0.1,0.3l-0.1,0.2l-0.3,0.4l-0.2,0.2l-0.6,0.4l-0.3,0.1l-0.6,0.1h-0.6
	l-0.6-0.1l-0.6-0.2l-0.8-0.5l-0.5-0.4l-0.4-0.5l-0.3-0.5l-0.1-0.3l-0.1-0.5v-0.6L126.7,74.8z M185.9,94.1l-0.8-0.7l-0.5-0.3
	l-0.3-0.1l-0.5-0.1l-0.3,0l-0.4,0.1l-0.4,0.3l-0.1,0.2l-0.1,0.2l-0.2,0.5l-0.1,0.3v0.7l0.1,0.7l0.3,1.1l0.5,1.1l0.5,0.6l0.8,0.8
	l0.5,0.4l0.6,0.3l0.5,0.1h0.5l0.2-0.1l0.4-0.2l0.3-0.3l0.2-0.5l0.1-0.5l0-0.6l0-0.3l-0.3-1.1l-0.3-0.7l-0.4-0.7L185.9,94.1z"/>
<path id="Layer3_7_MEMBER_64_1_STROKES" class="st6" d="M271.2,33.4l-0.3,0.7l-0.4,1.6l-0.1,0.9v1l0.4,3.1l0.7,2.2L273,46l2,2.9
	l2.4,2.3l1.7,1.1l1.7,0.7l0.8,0.2l1.6,0.1l0.7-0.1l1.3-0.5l0.1-0.1l0.5-0.4l0.9-1.1l0.3-0.7l0.3-0.7l0.3-1.8l0-0.9l-0.2-2l-0.5-2.2
	l-1.4-3.2l-2.6-3.9l-2.4-2.3l-1.7-1.1l-1.7-0.7l-1.6-0.3h-0.7l-0.7,0.1l-1.3,0.5l-0.5,0.4L271.2,33.4z M285.2,52.6l1.7-1l0.7-0.5
	l0.6-0.7l0.5-0.9l0.3-1l0.3-2.3l-0.1-1.3l-0.5-2.7l-1-2.8l-1.4-2.6l-0.9-1.2l-2-2.2l-1-0.9l-2.1-1.4l-1.1-0.5l-1.1-0.3l-1-0.1
	l-0.9,0l-0.9,0.2l-0.8,0.4l-1.8,1.1 M272.8,34.5l-0.3,0.5l-0.3,0.6l-0.3,1.4l-0.1,0.7l0.1,1.6l0.3,1.8l1,2.7l1.5,2.6l1.8,2.2
	l1.4,1.2l1.4,0.9l0.7,0.3l1.4,0.4l0.6,0.1l0.6,0l0.6-0.1l0.5-0.2l0.5-0.3l0.4-0.4L285,50l0.3-0.5l0.3-0.6l0.3-1.4l0.1-1.6l-0.2-1.7
	l-0.8-2.7l-1.3-2.6l-1.7-2.3l-1.3-1.3l-1.4-1l-1.4-0.7l-1.3-0.4l-0.7-0.1l-0.6,0l-0.6,0.1l-0.5,0.2l-0.5,0.3L272.8,34.5z
	 M276.3,33.3l-0.2,0.6l-0.2,1.5v0.8l0.2,1.7l0.5,1.8l1.2,2.6l1,1.7l1.8,2.2l1.4,1.2l1.4,0.9l1.4,0.5l0.6,0.1 M286.9,51.6l4.1-2.3
	l0.6-0.5l0.6-0.7l0.5-0.9l0.3-1l0.2-1.1l0-2.5l-0.2-1.4l-0.8-2.7l-1.2-2.7l-1.7-2.5l-1.9-2.2l-2.1-1.7l-2.1-1.1l-1.1-0.3l-1-0.1
	l-0.9,0l-0.9,0.2l-0.8,0.4l-4,2.3 M291,49.2l4.5-2.6l0.7-0.5l0.6-0.7l0.5-0.8l0.3-1l0.2-1.1v-0.1V40l-0.5-2.7l-1-2.8l-1.4-2.6
	l-1.8-2.4l-1-1l-2.1-1.7l-1.1-0.6l-1.1-0.5l-0.9-0.3l-0.2-0.1l-1-0.1l-0.9,0.1l-0.9,0.2l-5.4,3.1 M297.8,42.3l1-0.7l0.8-1.1l0.5-1.4
	l0.1-1.7l-0.2-1.9l-0.1-0.2l-0.5-1.8l-0.5-1.2l-0.3-0.8l-1.1-1.9l-1.3-1.7l-1.4-1.5l-1.5-1.2l-1.6-0.8l-0.7-0.2l-0.8-0.2l-1.4,0.1
	l-1.2,0.5l-0.9,0.6 M291.1,24.3l3-0.2l0.4-0.1l1-0.3l4.6-2.5h0.1l0.2,0l0.4,0.1l0.2,0.1l0.3,0.1l0.1,0l1.4-0.8 M301.4,21.4l0.5,0.3
	l0.7,0.6l0.2,0.2l0.4,0.7l0,0.1v0.1l0,0.1l-0.1,0.1l-0.1,0.1l-0.1,0.1l-0.7,0.4l-2.6,1.4l-0.3,0.2l-0.3,0.4l-0.2,0.3l-0.5,0.9
	l-0.2,0.7l-0.1,0.3l-0.1,0.3l0,0.2v0.2l0,0.1v0.1 M306.7,24.6l-1.2,0.5l-3.3,2.2l-3.3,1.7c-0.1,0.4-0.2,0.9-0.2,1.4l0.1,0.6
	 M300,35.3l0.3-0.6l0.8-1.4l1.1-1.5l1.9-1.8l2.8-1.7 M299,32.3l1.5-1.7l1.6-1.2l4.7-2.8 M306.2,23.6l-5.8,3.3
	c-0.7,0.6-1.2,1.2-1.4,2"/>
<path id="Layer3_7_MEMBER_65_1_STROKES" class="st7" d="M259.4,50.3l0.1,1.2l0.1,6.4"/>
<path id="Layer3_7_MEMBER_66_1_STROKES" class="st7" d="M259,46.5l0.2,1.9"/>
<path id="Layer3_7_MEMBER_67_1_STROKES" class="st7" d="M264.8,30.9l-5.1,9.2l-0.6,2.1l-0.3,2.4"/>
<path id="Layer3_7_MEMBER_68_1_STROKES" class="st7" d="M266.6,27.5l-0.9,1.7"/>
<path id="Layer3_7_MEMBER_69_1_STROKES" class="st7" d="M268.4,11.4l0.1,0.1l0.8,2l0.5,2.2l0.1,2.5l-0.3,2.3l-0.8,2.4l-1.4,2.9"/>
<path id="Layer3_7_MEMBER_70_1_STROKES" class="st7" d="M265.9,8.6l1.4,1.2"/>
<path id="Layer3_7_MEMBER_71_1_STROKES" class="st7" d="M252.4,14.7l0.7-1.8l1.3-2.2l1.6-1.6l1.9-1l2.1-0.5l2.1-0.1l2,0.3"/>
<path id="Layer3_7_MEMBER_72_1_STROKES" class="st7" d="M251.3,18.3l0.5-1.8"/>
<path id="Layer3_7_MEMBER_73_1_STROKES" class="st7" d="M250.6,27.7l-0.1-4.8l0.4-2.8"/>
<path id="Layer3_7_MEMBER_74_1_STROKES" class="st7" d="M275.4,44.4l3.4-2"/>
<path id="Layer3_7_MEMBER_75_1_STROKES" class="st7" d="M273.7,45.4l0.9-0.5"/>
<path id="Layer3_7_MEMBER_76_1_STROKES" class="st7" d="M269.5,47.9l3.4-2"/>
<path id="Layer3_7_MEMBER_77_1_STROKES" class="st6" d="M196.2,96.3l0.4-0.3l0.2-0.3l0.3-0.6l0.1-0.4l0.1-0.8l-0.1-0.9l-0.3-1.4
	l-0.7-1.4l-0.6-0.9l-0.3-0.4l-0.7-0.7l-0.7-0.6l-0.7-0.4l-0.4-0.1l-0.3-0.1l-0.7-0.1l-0.6,0.1l-0.2,0.1"/>
<path id="Layer3_7_MEMBER_78_1_STROKES" class="st6" d="M197.5,95.6l0.2-0.1l0.4-0.5l0.3-0.6l0.1-0.8v-0.9l-0.1-0.9l-0.3-0.9
	l-0.4-0.9l-0.5-0.9l-0.9-1.2l-1.1-0.9l-0.7-0.4l-0.3-0.1l-0.7-0.2H193l-0.6,0.1l-0.2,0.1"/>
<path id="Layer3_7_MEMBER_79_1_STROKES" class="st6" d="M198.7,94.8l0.2-0.1l0.2-0.2l0.4-0.5l0.2-0.7l0.1-0.8l-0.2-1.3l-0.3-1
	l-0.7-1.4l-0.3-0.4l-1.3-1.6l-0.7-0.6l-0.7-0.4l-0.4-0.1l-0.7-0.2l-0.6,0l-0.5,0.2"/>
<path id="Layer3_7_MEMBER_80_1_STROKES" class="st6" d="M200,94.1l0.2-0.1l0.2-0.2l0.3-0.5l0.2-0.7l0.1-0.8l-0.1-0.9l-0.2-0.9
	l-0.8-1.9l-0.9-1.3l-0.7-0.7l-0.7-0.6l-0.7-0.4l-0.7-0.3l-0.3-0.1l-0.7,0l-0.3,0.1l-0.2,0.1"/>
<path id="Layer3_7_MEMBER_81_1_STROKES" class="st6" d="M165.8,106.4l-0.2,0.3l-0.5,0.5l-0.3,0.2l-0.6,0.3l-0.7,0.1l-0.4,0l-0.4,0
	l-0.7-0.1l-0.7-0.3l-0.7-0.4l-0.6-0.5l-0.5-0.6l-0.6-1l-0.1-0.3l-0.2-0.7l0-0.3l0.1-0.7l0.2-0.6l0.2-0.3"/>
<path id="Layer3_7_MEMBER_82_1_STROKES" class="st6" d="M165.3,107.2l-0.2,0.3l-0.5,0.4l-0.3,0.2l-0.3,0.1l-0.7,0.2l-0.7,0.1l-0.4,0
	l-1.2-0.3l-0.7-0.3l-0.7-0.4l-0.6-0.5l-0.3-0.3l-0.5-0.7l-0.4-1l-0.1-0.7v-0.3l0.1-0.6l0.3-0.6"/>
<path id="Layer3_7_MEMBER_83_1_STROKES" class="st6" d="M164.7,108l-0.2,0.3l-0.5,0.4l-0.3,0.2l-1,0.4l-0.7,0.1l-0.7-0.1l-0.4-0.1
	l-0.7-0.3l-1-0.6l-0.6-0.5l-0.5-0.6l-0.4-0.7l-0.2-0.7l-0.1-0.4l0-0.7l0.1-0.6l0.3-0.6"/>
<path id="Layer3_9_MEMBER_1_1_STROKES" class="st10" d="M341.9,134.5H223.8v-23.7h118.1V134.5z"/>
<path id="Layer3_9_MEMBER_1_1_STROKES_1_" class="st10" d="M341.9,157.5H223.8v-23.7h118.1V157.5z"/>
<text transform="matrix(1 0 0 1 233.3574 127.2657)"><tspan x="0" y="0" class="st11 st12">L/H - 2700-P33</tspan><tspan x="0" y="24" class="st11 st12">R/H - 2700-P34 </tspan></text>
<g>
	<ellipse class="st13" cx="49.1" cy="40.6" rx="14.7" ry="14.7"/>
	<ellipse class="st14" cx="49.1" cy="40.6" rx="14.7" ry="14.7"/>
</g>
</svg>
