<?xml version="1.0" encoding="utf-8"?>
<!-- Generator: Adobe Illustrator 24.2.1, SVG Export Plug-In . SVG Version: 6.00 Build 0)  -->
<svg version="1.1" id="Ebene_1" xmlns="http://www.w3.org/2000/svg" xmlns:xlink="http://www.w3.org/1999/xlink" x="0px" y="0px"
	 viewBox="0 0 349.1 161" style="enable-background:new 0 0 349.1 161;" xml:space="preserve">
<style type="text/css">
	.st0{fill:none;stroke:#B1B1B1;stroke-width:0.55;stroke-miterlimit:59.9989;}
	.st1{fill:none;stroke:#B1B1B1;stroke-width:0.55;stroke-miterlimit:4.9999;}
	.st2{fill:#0099FF;}
	.st3{fill:none;stroke:#B1B1B1;stroke-width:1.5;stroke-linecap:round;stroke-linejoin:round;}
	.st4{fill:#FF7F15;}
	.st5{fill:#CCCCCC;}
	.st6{fill:#00984A;}
	.st7{fill:#1CAED0;}
	.st8{fill:#FFFFFF;}
	.st9{fill:#EAEAEA;}
	.st10{fill:#D6D6D6;}
	.st11{fill:#FF2A0C;}
	.st12{fill:none;stroke:#000000;stroke-width:0.5;stroke-miterlimit:60;}
	.st13{fill:none;stroke:#000000;stroke-width:0.5;stroke-miterlimit:5;}
	.st14{fill:none;stroke:#FFFFFF;stroke-miterlimit:5;}
</style>
<g>
	<path id="Layer1_2_MEMBER_0_1_STROKES" class="st0" d="M38.9,11.6h-0.2l-0.1-0.2l-0.2,0.1l-3.9,2.3h0l0.4,0.3l0.4,0.4l0.1,0.3v0
		l3.9-2.3l0.1,0l0-0.1l0-0.1l0-0.2l-0.1-0.1L38.9,11.6z M39,11.1l-0.1,0l-0.3,0.2c0.1-0.1,0.3-0.1,0.5,0l0.4,0.4l0.2,0.2l0.1,0.3
		l1.4,6.4c0,0.2,0,0.4-0.1,0.5l0.2-0.1l0.1-0.1l0.1-0.2v-0.3l-1.4-6.3L40,11.8l-0.4-0.4l-0.2-0.1l-0.2-0.1L39,11.1z M38.4,11.6
		c0-0.1,0.1-0.2,0.2-0.3 M40.8,18.9c0.2-0.1,0.2-0.3,0.2-0.5c-0.1-0.2-0.1-0.4-0.1-0.5l-0.5-0.8l-3.9,2.3l0.4,1.7v0.3l-0.1,0.2
		l1.8,1.1l0.5,0.1l0.3,0l0.4-0.2l0.2-0.2 M41.1,19.1C41.1,19.1,41,19.1,41.1,19.1c-0.3,0.2-0.5,0.1-0.7,0 M40.3,17.2l-0.9-4.7
		 M35.5,20.5l-0.1,0c-0.3,0-0.4,0.1-0.2,0.5l0.2,0.3l0.1,0.1l0.1,0h0.1l0.1,0l0-0.1v-0.1l-0.2-0.4l-0.1-0.1L35.5,20.5z M35.6,21.9
		c0.2,0.1,0.5,0.1,0.6,0.1l0,0c0,0,0,0,0,0c0.1-0.1,0.2-0.3,0.2-0.6L35.1,15c-0.2-0.5-0.5-0.8-0.9-0.9c-0.1,0-0.2-0.1-0.3,0l0,0
		c-0.1,0.1-0.2,0.2-0.1,0.5l0.5,3.8l0.3,2.4l0.1,0.3l0.1,0.1l0.1,0.1l0.5,0.5L35.6,21.9z M36.7,21.7l-0.4,0.3 M39.4,22.3L39.4,22.3
		L39.4,22.3l-0.1-0.1H39c-0.2,0-0.3,0.1-0.3,0.2l0.1,0.1l0.1,0H39C39.2,22.5,39.3,22.4,39.4,22.3z M36.2,22l1.9,1.2l0.5,0.3l0.2,0.1
		h0.2l0.3,0l0.2-0.1 M38.1,23.2l0,1 M39.9,24.1l0-0.9 M40.1,27.1L40,25.1 M38.4,29.3l0-1.9 M38.3,26l0-0.9 M40.2,29.6l-0.1-1.4
		 M41.3,32.9l0.7,0.4v0.3l-2.5,1.6l-0.7-0.4 M40,31.9c-0.2,0.2-0.5,0.3-0.8,0.3c-0.4,0-0.6-0.2-0.7-0.4v-0.6 M39.5,35.2l0-0.4
		l-0.3-0.2 M42,33.4l-2.6,1.5 M42.6,29.8l1,8 M42.3,27.3l-1-8.4 M36.4,19.5l-1-4.6 M42.6,17.7L45,37.5 M33.9,14.1l0.3-0.2l0.1,0h0.2
		 M32.5,21.9l-0.4-2.4l2-1.2 M32.2,19.5l2.6,1.6 M11.6,35l0.9,0.8c0.1,0,0.1-0.1,0.2-0.1l-0.8-0.8l-0.2-0.1l-0.2,0l-0.2,0
		C11.4,34.8,11.5,34.9,11.6,35C11.6,34.9,11.6,35,11.6,35z M11.6,36.4L11.6,36.4L11.6,36.4l-0.2,0.1h-0.1v0h0v0l-0.1,0.1l0.2,0.1
		l0.4-0.2l0.2,0H12l0.5,0.5l0.1,0.2l0,0.3l0,0.2l0,0.1l0.2-0.2v-0.1v-0.1l0-0.3L12.6,37l-0.1-0.1l-0.1-0.1l-0.6-0.5L11.6,36.4
		L11.6,36.4L11.6,36.4L11.6,36.4z M12.5,35.8c-0.1,0.1-0.2,0.1-0.3,0.2l0.6,0.5l0.2,0.2l0.1,0.3l0,0.3l0,0.3l0,0l0.1,0l0.1-0.1v-0.2
		l0-0.2c-0.2-0.5-0.5-0.8-0.8-0.8l0.4-0.2l0.1,0h0.2l0.2,0.1l0.1,0.1l0.2,0.2c0.1,0.4,0.2,0.7,0,0.9c0.4-0.3,0.4-0.7-0.1-1.3
		L13,35.6c-0.1,0-0.2,0-0.3,0.1 M11.3,34.8c-0.2,0-0.3,0.1-0.3,0.4c0,0.4,0.1,0.7,0.3,0.8l0.3,0.3 M12.1,38.1l0-0.2l0-0.2
		c-0.1-0.2-0.3-0.4-0.4-0.5c-0.1-0.1-0.3-0.2-0.4-0.2l0,0 M11.1,36.7L11.1,36.7C11,37,11,37.5,11.1,38l0.1,0.2 M8.5,40.2l-1.3-0.8
		 M13.6,38l-0.1-0.4v-0.1l0.1-0.1v0l0,0h0c0,0,0,0,0,0 M12.5,36.9L12.5,36.9l0.2,0l0.1,0.1 M13.1,37.6L13.1,37.6l-0.2,0.1l0,0.4
		 M12.9,38.2L12.9,38.2L12.9,38.2l-0.1,0.1v0.2l0.1,0.1H13l0,0h0.1h0.1c0.1,0,0.2-0.1,0.3-0.1c0,0,0.1-0.1,0.1-0.2l0,0l0-0.1v0l0,0
		h0l0,0h0l0,0h0l0,0v0.1l0,0v0.4h0v0h0l0,0v0h0l2.2,17.4 M12.9,37.7l-0.1,0 M15.2,56.3L13,38.9l0,0h-0.1v0h0l0,0v0l0,0v-0.2v-0.1
		l0,0l0.1-0.1h0v0 M12.5,38L12.5,38l-0.1,0c0,0.1,0,0.1-0.1,0.2 M13.8,38.3l-0.1,0.1l0,0.1v0.2h0v0h-0.1v0H13v-0.2l-0.1-0.1
		 M13.6,38.6h-0.2l-0.1,0 M12.8,38.4L12.8,38.4 M13.2,38.6l-0.1,0 M11.5,36.4l-0.8-0.7 M3.5,43.8l1.8,1l0.2,0.2L5.8,45h0.8l0.3-0.1
		l0.3-0.2l0.2-0.2l0-0.2v0.5l0,0.2l-0.2,0.2l-0.2,0.1l-0.3,0.1l-0.4,0l-0.4,0l-0.3-0.1l-2-1.1 M6.8,47.4l-0.1,0.1l-0.1,0.2v0.4
		l0.1,0.1l0,0l0.3-0.1l0.5,0.3l0,0v-0.2L7.7,48L7.7,48l0.1,0l-0.6-0.6l0,0l-0.1,0l-0.1,0.1L6.8,47.4z M6.8,48.3L6.8,48.3l0.2,0
		l0.1-0.1 M7.8,47.9L7.8,47.9L7.8,47.9 M8.3,48.3l0.2,0.1l0.2,0.4l0,0.2l0,0.2l0,0.1l0.2-0.1L9,49c0.1-0.2,0.1-0.5-0.1-0.9L8.7,48
		l-0.1,0H8.5L8,48.2h0.1L8.3,48.3z M7.6,48.5L7.6,48.5l0.2,0l0,0l0.1,0v-0.2l0-0.1L8,48.2 M8.8,49.1L9,49.2l0.7,0.4l-0.1-1.3L8.7,48
		l-0.1-0.1H8.4l0.1,0l0,0l0.1,0l0.1,0l0.4-0.2l0.5-0.2l0.2-0.1l0.6,0.4h0l0.1,0.1l0.2,0.3 M10.1,48c0.2,0.1,0.3,0.3,0.2,0.4l0,0l0,0
		v-0.1l0-0.1l-0.1-0.1L10.1,48L10.1,48L10.1,48z M10.1,48L10.1,48L10.1,48L10,48.1l0,0.1l0.1,0.1 M10.1,48.3L10.1,48.3l0.1,0.1
		c0,0,0.1,0,0.1-0.1 M9.3,47.6l0.8,0.5 M9.8,49.7l0.5,0.3c0,0,0,0,0,0L10,49.5L9.8,49.7z M10.3,50L10.3,50c0,0.2,0.1,0.3,0.2,0.3
		c0,0,0.1,0,0.1,0c0,0,0-0.1,0-0.2c0-0.1-0.1-0.2-0.2-0.2c0,0,0,0,0,0C10.3,49.9,10.3,49.9,10.3,50 M9,49.2l1,0.9l0.6,0.4
		c0.1,0,0.2,0,0.2,0c0.1-0.1,0.1-0.1,0.2-0.1l0,0l-0.1,0.1 M7.9,48.6L7.9,48.6C7.9,48.6,8,48.6,7.9,48.6l0.2-0.1h0.1l0,0l0.1,0
		l0.1,0.1v0.1l0,0.1l0,0.1v0l-0.2,0.1c0,0,0,0.1,0,0.1l0.1,0.1l0.1,0l0.1,0 M8.3,49.1c0-0.1,0-0.1,0-0.2c-0.1-0.2-0.1-0.3-0.2-0.3h0
		 M7.9,48.6c-0.1,0-0.1,0.1,0,0.3C8,49.1,8,49.2,8.2,49.2c0,0,0.1,0,0.1,0 M7.6,48.5L7.6,48.5L7.6,48.5 M10,48.1l-0.4,0.3
		 M10.1,48.3l0.2,1.6 M5.5,44.7c0.2,0.1,0.4,0.1,0.7,0.1c0.2,0,0.3,0,0.5-0.1C6.9,44.6,7,44.4,7,44.3 M5.3,43.5L5,43.7l-0.1-0.6
		 M3.7,45.3c0,0.1,0,0.2,0.1,0.3L4,45.8l0,0h0.1l0,0L4.7,46l0,0l0.1,0H5l2.2,1.3 M4,45.8L4,45.8l-0.1,0.3v0.1v0l0,0.1l0.5,0.3
		l0.1-0.4l0.1-0.2L4.7,46 M3.9,46.2l-0.2-0.1h0v0H3.6l0,0H3.4l0,0l-0.2,0H2.9l-0.2-0.1l-0.1,0l0-0.1l0-0.4 M6.7,48.3L4.5,47
		l-0.1-0.3v0 M13.2,58.2v-0.2l0-0.2l-0.3-0.4l-0.2-0.2l1,0.7l0.3-0.2 M15.2,58.2L15.2,58.2l0-0.1V58l0,0l0.1,0h0.1l0.1,0l0.1,0.2
		v0.2l0,0l-0.1,0h-0.1l-0.1,0L15.2,58.2L15.2,58.2z M15.2,58.2l0.1,0.3l0,0.2V59l0,0.1l-0.1,0.1l-0.4,0.3c-0.1,0.1-0.3,0.1-0.5,0
		l-1.5-1.1l0,0v-0.2l0-0.2l-0.1-0.2l-0.4-0.4l-0.2-0.1 M16.3,57.5l0.1,0.2l0.1,0.2v0.2l0,0.2l-0.1,0.1l-0.5,0.3l0.1-0.1l0-0.2
		L15.9,58l-0.1-0.2l-0.2-0.2l-0.4-0.3l-0.3-0.2 M15.2,58L15.2,58l0.2,0l0.1,0.1v0.1l0,0v0.1l0,0 M15.2,58.2l0-0.1 M13.7,57.8
		l0.6,0.4l0.3,0.3l0.1,0.2l0.1,0.5c0,0.2-0.1,0.3-0.1,0.4 M14.3,58.7h-0.1l0,0h0c0.1,0,0.2,0.1,0.2,0.3l0,0.1l0,0v0l0.1,0v0h0V59
		l0-0.1v-0.1L14.3,58.7z M14.1,58.7c-0.1,0-0.1,0.1,0,0.3v0.1l0.1,0l0,0h0.1 M15.2,57.3l0.1-0.4 M13.8,57.2l-0.6-0.4 M7,42.6l1.6-1
		 M7.1,43.3l1.7-1 M35.1,24h0.4 M37.9,23.5l-5-3.1 M12.9,38.2L12.9,38.2 M13.6,38.1L13.6,38.1 M7.8,47.9L7.8,47.9 M10.1,48.3
		L10.1,48.3 M13.6,38.1L13.6,38.1L13.6,38.1"/>
	<path id="Layer1_2_MEMBER_1_1_STROKES" class="st0" d="M44.5,14l-0.1,0.1l0,0.1c0.1,0.3,0.5,0.5,1,0.4c0.5-0.1,0.8-0.3,0.8-0.7
		l-0.1-0.2L46,13.8l-0.1,0l-0.1,0l-0.3,0L45,13.7l-0.3,0.1L44.5,14z M43.9,14.8c-0.1,0.4,0,0.7,0.3,1c0,0,0,0,0,0l0.3,0.2h0l0,0h0
		l0.4,0.3v-0.4l0,0v-0.2h0l0,0v0h0v0h0v0h0l-0.9-0.8l-0.2-0.1h-0.1L43.9,14.8L43.9,14.8z M44.3,14.3l0,0.3l0.1,0l1.1,0.9v0h0l0,0h0
		l0,0h0l0.4,0.3l0.1-0.1v-0.2l0-0.5l-0.1-0.8 M43.4,15.8l0.2,0.4l0,0.2l0,0.1l0,0.1l-0.3,0.2l0.7,0.6v-0.6l0,0v-0.1l0,0l0.1-0.1
		l0.1-0.1h0v0h0.1l-0.8-0.7l-0.2-0.2l-0.2-0.1l-0.1,0l-0.1,0C43,15.3,43.2,15.5,43.4,15.8 M42.9,15.3L42.9,15.3
		c-0.2,0.1-0.2,0.3-0.2,0.5l0.3-0.1v0H43l0.1,0l0.2,0.1 M41.2,16.6l0.3,0l0.5-0.1l0.3-0.1l0.1-0.1l0.1-0.2V16l0-0.1l0-0.1l-0.1-0.1
		l-0.2-0.1h-0.5l-0.3,0l-0.2,0.1 M42.7,15.8l-0.1,0.1 M44.5,16.1L44.5,16.1L44.5,16.1L44.5,16.1l-0.1,0.1 M44.7,15.3
		c-0.1-0.3-0.2-0.5-0.5-0.6c-0.3-0.1-0.3,0.1-0.2,0.6c0.1,0.4,0.2,0.6,0.5,0.6C44.7,16,44.8,15.8,44.7,15.3z M42.7,17.1l0.5-0.3
		 M42.7,17.1l0,0.2c0,0.3-0.2,0.4-0.5,0.6c-0.3,0.1-0.5,0.1-0.8,0 M45,17.7l0-0.2l-0.1-0.3L44.7,17l-0.2-0.2l-0.2-0.1h-0.2l0.4,0.3
		l0.2,0.2l0.1,0.3L45,17.7l-0.1,0.3l-0.1,0.1l-0.1,0h0l0,0.5c0,0,0.1-0.1,0.1-0.1c-0.1,0.1-0.1,0.1-0.1,0.2c0,0,0,0.1,0,0.1
		c0.1,0.1,0.3,0.1,0.5,0.1c0.2-0.1,0.3-0.2,0.4-0.2l0,0c0,0,0-0.1,0-0.1c0-0.1-0.1-0.1-0.2-0.1l0-0.6l0,0v0h0v0h0v0
		c0,0,0.1,0,0.1-0.1c0.2-0.2,0.2-0.4-0.1-0.8c-0.2-0.5-0.5-0.6-0.8-0.5l-0.4,0.2l0,0 M44.1,16.7L44,16.5 M44.5,18.3l-0.2,0l-0.2-0.1
		l-0.2-0.2v-0.1h0v-0.4 M44.2,17.7L44.2,17.7l0.1,0.1l0.2,0.1h0v-0.1l0,0l0-0.1v-0.1l-0.1-0.1l-0.1,0h-0.1l0,0V17.7z M44.5,17.9
		l0.1-0.1v-0.1l0-0.1l-0.1-0.1h-0.1l-0.1,0 M44.4,19L44.4,19 M44.4,19l0,0.2v0.1h0v0h0l0,0h0h0l0-0.2l-0.1-0.1L44.4,19 M44.5,18.9
		v-0.1c-0.1,0.1-0.1,0.2,0,0.2 M42.6,16l0.2,1.1 M46.3,14.9l0.7-0.4l0-0.1l0-0.2l0-0.2l-0.1-0.2l-0.1-0.1l-0.2-0.1l-0.1,0L46,13.8
		 M45.6,15.5L45.6,15.5l-0.1,0h0v0h0 M45.1,15.8l0.2,0.1l0.4-0.2l0.1,0l0.2,0l0.2,0.1l0.2,0.2l0.1,0.2l0.1,0.2l0,0.2v0.2l-0.1,0.1
		h0.1l0.1-0.1l0-0.3l0-0.3l-0.1-0.3l-0.2-0.2l-0.2-0.2 M45.1,16.4l0.2,0.1c0,0.1,0.1,0.1,0.1,0.2l0.1,0v0h0.1l0,0l0.1,0l0,0l0,0.1
		v0.1l0,0l-0.1,0l0,0c0,0.1,0.1,0.2,0,0.3h0.1l0.2,0l0.1-0.1l0-0.2l0-0.3l-0.3-0.5L45.4,16l0,0 M46.2,17.2V17l0-0.3L46,16.5
		c-0.2-0.4-0.4-0.5-0.7-0.5 M45.7,17.2L45.7,17.2l0-0.2c-0.1-0.1-0.1-0.2-0.1-0.2c-0.1-0.1-0.1-0.1-0.2,0
		C45.5,16.9,45.6,17,45.7,17.2L45.7,17.2 M45.4,16.7L45.4,16.7L45.4,16.7 M45.6,17.6c0,0.1-0.1,0.2-0.2,0.2 M45.7,18.3L45.7,18.3
		L45.7,18.3v-0.1l0-0.1l-0.1,0.1L45.7,18.3L45.7,18.3z M45.8,18.4l0.1,0.1l0.3-0.1L45.8,18.4L45.8,18.4z M45.8,18.4L45.8,18.4
		 M45.7,18.1L45.7,18.1l0-0.5 M45,19.2l0.1,0h0.1l0-0.1l0,0l0,0 M45.9,18.5v0.2h0l0,0h0.3v0h0.1l0,0h0.1l0-0.3l-0.1,0h-0.1
		c0.2,0,0.3-0.1,0.4-0.1v0l0.1-0.1c0-0.1,0-0.1,0-0.2l0,0l-0.1,0 M46.4,17.9L46.4,17.9L46.4,17.9l-0.1-0.4 M45.4,18.9L45.4,18.9
		l0.1,0.2v0.1c-0.1,0.1-0.1,0.1-0.1,0.1h0l0,0l2,16L48,35l-2.1-16.3h0l0,0h0l-0.1-0.1v0l0-0.2 M46.6,18.2L46.6,18.2L46.6,18.2
		l0.1,0.2v0.1l0,0v0h0v0h0v0h0l0,0l2,15.9l1-0.6l-0.2-0.7v-0.1l0-0.1l0,0l0.2-0.1h0l0.2,0.1l1.7,1.4c0.3,0.3,0.3,0.5,0.1,0.6
		l-0.1,0.1l-0.1,0.1l-1.1,0.6l0,0l-0.1,0l-0.1-0.1l-0.1,0 M50,35.7l-1,0.6v0h0v0.1l0,0h0v0l0,0h0h0l-0.1,0.1h-0.1l0,0h-0.2l0,0h0
		h-0.1v0h0v0h0v0h0v-0.1l0-0.2l0.1,0.1c-0.1-0.1-0.1-0.2,0.1-0.4L48,35 M46.6,18L46.6,18l-0.1-0.1v0 M46.6,18L46.6,18L46.6,18
		 M46.5,18.4L46.5,18.4c0.1-0.1,0.1-0.2,0.2-0.2 M46.7,18L46.7,18 M45.1,7.8l0.8,5.9 M45.3,19.4L45.3,19.4L45.3,19.4l-0.2,0v0h-0.4
		v0 M36,23.5l-0.1-1.2 M35.6,25.5l0.1,0H36l0.2,0l0.2-0.1l0.1-0.1l0.1-0.1l-0.1-0.3v0.2l-0.1,0.1l-0.2,0.1h-0.5L35.5,25v-0.2v0v-0.1
		c0,0,0-0.1,0.1-0.1v0h0c0,0,0.1,0,0.1,0c0,0,0,0,0.1,0c0,0,0,0,0.1,0c0.1,0,0.2,0,0.2,0c0.1,0,0.2,0.1,0.2,0.2l0,0.2v0l0,0v0h0l0,0
		h0l0,0h-0.1v0h-0.3h0l0,0h0v0h0v0h0 M35.6,24.6L35.6,24.6 M35.6,24.6L35.6,24.6 M35.7,24.5L35.7,24.5 M35.5,24.8L35.5,24.8l0.1,0
		L35.5,24.8L35.5,24.8L35.5,24.8 M36.2,25.1l0-0.2l0,0l0.1,0h-0.1l-0.1,0.1H36l-0.1,0h-0.1l-0.1,0l0,0.2 M35.7,25L35.7,25L35.7,25
		L35.7,25 M36.3,24.8c0-0.2,0-0.3-0.2-0.3 M36.3,24.8L36.3,24.8l0-0.1 M36.5,24.9l-0.3-2.4 M39.5,23.6c-0.1,0.1-0.1,0.2-0.1,0.3
		 M36.3,26.3h-0.4l-0.2,0l-0.1,0l-0.1-0.1l-0.1-0.2l-1.5-3.1l0-0.1l-1.3-0.8 M46.1,36.6l0.6,0.4v-0.1v0l0,0l0.1-0.1v0l-0.1,0v0l0,0
		c0.1,0.2,0.2,0.2,0.2,0.2c0.1,0,0.2,0,0.3,0c0.1,0,0.1,0,0.2,0l0.2-0.2c0-0.1-0.1-0.2-0.2-0.2c0,0,0,0,0,0l0,0.2
		c0,0.1-0.1,0.2-0.3,0.2c-0.3,0-0.4,0-0.3-0.1l-0.1-1.2L45,37.1h0l0.2,0.1l0.3,0.4l0.1,0.2l0,0.2v0.2l-2.5,1.6l0,0l0.1,0.1v0.3
		L43,40.5l-1.1,0.7h-0.2l-0.1,0L41.5,41l0,0h-0.1l-0.2-0.1l-0.2-0.1l-0.2-0.2l-0.1-0.3c-0.1-0.5-0.1-0.8,0.2-0.8l0.1,0l-0.2-0.7
		c0-0.1,0-0.2,0.1-0.2l0.2-0.2h0.2l0.1,0l0.5,0.4l1.7-1h0.1l0.1,0l0,0c0.5,0.1,0.9,0.1,1.1-0.2 M41,38.5L41,38.5l0,0.2l0,0.1
		l0.1,0.1h0.1l0,0v-0.1l0-0.1v0l-0.1-0.1L41,38.5L41,38.5z M40.9,38.4c0.1,0,0.1,0,0.3,0l1.6,1.5l0.1,0l0.1,0.1l0,0.1v0.3l0,0
		 M40.9,39.4c0,0,0.1,0,0.1,0c0.3,0,0.6,0.3,0.8,0.8l0,0.3l0,0.2l-0.1,0.1l0.1-0.1l0.2-0.1c0.3-0.2,0.3-0.5,0-1
		c-0.3-0.5-0.6-0.6-0.9-0.5L40.9,39.4 M41.5,41h0.1l0,0l0.1-0.1 M41.6,41c0.1,0.1,0.1,0.1,0.2,0.1h0v-0.2 M43.2,39.9L43.2,39.9
		l-1.3-1.2 M42.7,40.3L42.7,40.3l0.1,0.1l0,0h0v0l0,0v-0.1l0-0.1L42.8,40h-0.1L42.6,40v0l0,0L42.7,40.3L42.7,40.3z M49.4,33.1h0.2
		l0.1,0.1l1.6,1.4c0.3,0.3,0.3,0.5,0.2,0.6 M49.8,33.5c-0.1-0.1-0.1-0.2-0.2-0.2c-0.1,0.1-0.2,0.1-0.1,0.2c0,0.1,0.1,0.2,0.1,0.2
		c0,0,0.1,0,0.1,0C49.8,33.7,49.9,33.6,49.8,33.5z M51.4,35.1c0.1-0.1,0.2-0.1,0.1-0.2c0-0.2-0.1-0.2-0.3-0.2v0l0,0v0.1L51.4,35.1z
		 M50,35.7L50,35.7l0.3-0.2l0.2-0.1l0.1-0.1l0.1-0.1v-0.2l0-0.2l-0.1-0.2c-0.3-0.4-0.6-0.6-0.8-0.6L49.5,34 M50.1,35.7L50.1,35.7
		l0.1,0h0.1l0,0v-0.1 M48.8,36.6l0-0.2h-0.1h0l-0.1,0c-0.1,0-0.1,0-0.2,0l-0.1,0l0,0.2 M48.3,36.4c-0.1,0-0.2,0-0.3-0.1l0.1,0.1
		 M48.1,36l0,0.2c0,0.1,0.1,0.2,0.3,0.1c0.2,0,0.3-0.1,0.3-0.2l-0.2-1.4 M47.5,36.6l-0.2-1.2 M48.7,36.4L48.7,36.4l0.1-0.1l0.1-0.1
		v0c0.1-0.1,0-0.2-0.2-0.3l0.1,0h0.1l0,0l0,0.1v0l0,0.2 M49,36.1L49,36.1 M48.5,36.4L48.5,36.4l0.1,0 M48.8,36.3L48.8,36.3
		 M47.6,36.6c0.1,0,0.2,0.1,0.3,0.2v0.4h0l-0.1,0.1h0v0.3l0,0v0.1h0v0.1h0l0.1,0.1c0.4,0.5,0.5,0.9,0.2,1.2l-0.4,0.2
		c-0.1,0.3-0.3,0.3-0.6,0l-1.2-0.8 M47.3,37.1h0.3l0-0.1l0.1-0.1l0.1,0 M47.3,37.1L47,37.2l0,0.2h0.4l0,0h0.1v0l0,0l0-0.2
		 M47.3,38.6L47.3,38.6l-0.2,0l-0.1,0h0.1l0.1,0.1l0,0.1V39l0,0.1l0.1-0.1v0l0,0l0-0.1L47.3,38.6L47.3,38.6z M46.1,37.8l0-0.2
		l-0.4-0.7l1.5,1.1c0.4,0.2,0.7,0.5,0.7,1c0,0.1,0,0.2,0,0.3 M47,37.8L47,37.8l0-0.3l0,0h0l0,0v0h0v0h0V37v0 M47,37.2l-0.1-0.1
		l-0.1,0 M47,37.5L47,37.5 M47.2,39.1h-0.1l0-0.1l-0.1,0l0-0.1v-0.2l0,0 M44.7,19.4l2.1,16.3 M45,19.2l-0.3,0.1 M36.6,20.1l4-2.4
		 M36.7,20.7l4.2-2.5 M36.8,21.1l4.1-2.5 M45.3,19.1l0,0.3 M32.9,20.5l0.2,1.2l0.9-0.6 M34.9,23.8l-1.1-1.9v0l0-0.2 M33.9,22.7
		L33.9,22.7l-0.1-0.3l0-0.2l-0.8-0.5 M35.4,25.9l-1.6-3.5 M34.9,14.1l4.1-2.4 M35.2,14.5l4.1-2.4 M43.3,15.8L43.3,15.8 M35.6,24.6
		L35.6,24.6 M45.4,16.8L45.4,16.8 M46.4,17.9L46.4,17.9 M50,35.7L50,35.7 M35.6,24.6L35.6,24.6 M50.4,35.5L50.4,35.5"/>
	<path id="Layer1_2_MEMBER_2_1_STROKES" class="st0" d="M47.3,23.9l0.3,0.1l0.1,0h0l0.1,0.1l0.1,0.1l0.1,0.2v0l0.2,2l0,0.1l0,0.1
		L48,26.9l-0.1,0 M47.4,24.4c0.3,0.1,0.3,0.2,0.2,0.4C47.4,24.8,47.3,24.7,47.4,24.4L47.4,24.4z M47.7,26.3L47.7,26.3l0.1,0.1l0,0
		v0.2l0,0h-0.1l0,0l0-0.1l0,0l0-0.1v0l0,0v0H47.7z M36.4,23.6l1.7,1l0.2,0.2l0.3,0.1h0.8l0.6-0.3l0.2-0.2l0-0.2v0.5l0,0.2l-0.1,0.2
		l-0.3,0.1l-0.3,0.1l-0.4,0l-0.4,0l-0.3-0.1l-0.3-0.1l-1.7-1 M41.4,20l-1.3-0.8 M38.2,23.4l-0.3,0.1l0-0.6 M38.4,24.5
		c0.3,0.1,0.5,0.2,0.6,0.1c0.2,0,0.4,0,0.7-0.1 M37.8,25.7l-0.1,0.1L37.5,26l-0.1,0.2l-0.1,0.2v0.1v0l0,0.2l0.1,0.1l2.2,1.3L39.5,28
		v-0.4l0.1-0.2c0.1-0.2,0.2-0.3,0.4-0.4l-2.1-1.3L37.8,25.7z M39.7,28l0.2,0.1l0.6,0.4l-0.1-0.1v-0.1l0.1-0.3l0.1-0.1l0.1,0h0.1
		l-0.6-0.3L40,27.3h-0.1l-0.1,0l-0.1,0.1l0,0.1L39.7,28L39.7,28z M37.6,25.9l-0.5-0.3l0,0c-0.1,0-0.1,0-0.2,0.1c0,0-0.1,0.1-0.1,0.2
		c-0.1,0.1-0.1,0.1-0.1,0.2c0,0.1,0,0.1,0,0.2l0.5,0.3 M36.9,25.6l-0.3-0.1 M35.4,25.3l0,0.5l0,0.1l0.1,0.1l0.2,0H36l0.2,0h0.1l0,0
		h0.2l0.1,0.1 M40,28.1l-0.1,0.1h-0.1l-0.1,0 M38.2,29.5c-0.1-0.1,0-0.3,0.2-0.5 M38.2,29.5c0.1,0.1,0.2,0.2,0.5,0.3l1,0.5
		c0.3-0.2,0.4-0.3,0.5-0.6l2.1,1.2l0.4-0.3l-0.1,0l-2.5-1.4 M32,37.2h0.3l0.2,0h0l4.2-2.5l-4.3,1.6c-0.2,0.1-0.5,0.1-0.8,0
		c-0.3-0.1-0.3-0.3,0-0.6l0,0l0-0.1l0,0l0.1,0l0.1,0H32l0.8-0.6l3.2-2.4l0-0.1l0-0.2v-0.1l0,0v0l0,0v0h0l0,0v0h0v0l0.6-0.4l0.5-0.3
		h0.8l0-0.1l-0.1-1.3 M43,27.9c0.1,0,0.2,0.1,0.2,0.2c0,0.1,0,0.2-0.1,0.2h0L43,28.2l0.2,1.6c0-0.1,0.1-0.1,0.1,0c0,0,0,0,0,0
		c0.2-0.1,0.2,0,0.1,0.3c0,0.1,0,0.2-0.1,0.1c-0.1,0-0.2-0.1-0.2-0.2v0l-0.5-0.3l-0.7-0.4L43,30l0.5,0.3h0.2l0.2-0.2l0-0.1v0l-0.2-2
		v-0.1l-0.2-0.3l-0.1-0.1l-0.6-0.4l-0.1,0.1l-0.6,0.2l0.8,0.4C42.9,27.8,42.9,27.8,43,27.9L43,27.9l0.1-0.1l0,0l0.1,0l0,0V28
		 M42.1,27.4l-0.4,0.2l-0.1,0h-0.1l0,0l-0.1,0.1h0.2l0.2,0l0.8,0.5l0.2-0.1l0.3-0.2c0,0,0-0.1,0-0.1 M40.5,28.4L40.5,28.4l0.2,0
		l-0.1-0.1l0,0V28l0,0l0-0.1h0l0,0l0.1,0.1v-0.1l0-0.1 M41.3,27.7L41.3,27.7l-0.1,0.2L41.3,27.7l0.2,0.1l0.1,0l0.1,0.1l0.2,0.4
		l0,0.2l-0.1,0.3L41.7,29l0.2,0.1 M40.8,28.4v-0.3l0.1-0.1l0,0l-0.1,0 M41.2,27.9L40.9,28 M41,28h0.1l0.3,0.2l0.1,0.2l0.1,0.4V29
		l-0.1,0.1l0.2-0.1 M40.8,28.4C40.8,28.4,40.9,28.4,40.8,28.4l0.2-0.2h0l0.1,0l0,0.1l0,0l0,0.1l0,0.1l0,0v0.1l-0.2,0.1l0,0l0.1,0.1
		l0.1,0l0.1,0 M40.9,28L40.9,28 M40.8,28.4C40.8,28.5,40.8,28.5,40.8,28.4c0,0.1,0,0.2,0,0.3l0,0.1l0,0l0.2,0.1 M40.7,28.4
		L40.7,28.4 M41.2,28.9L41.2,28.9l0-0.2l0-0.1l-0.1-0.1l-0.1,0l0,0h0 M43,28.2L43,28.2L42.9,28c0,0,0,0,0-0.1 M43.3,29.7
		c0.1,0,0.1,0.1,0.1,0.2c0,0,0,0.1,0,0.1 M42.5,28.3l0.2,1.2l0.2-0.1l0.3,0.4c0,0,0-0.1,0-0.1 M40.3,27.4c0-0.3,0-0.4-0.2-0.4
		 M39.9,22.4l1.7-0.9 M40,23.2l1.7-1 M42.8,31.6l-0.6,0.3l-0.6-0.3v0.3l0,0l0,0v0.1h0v0h0l-0.3,0.2l0.1,0.1v0l0,0.1l0,0l0.1-0.1
		l0.3-0.2H42v0h0h0.1l0,0h0.2l0.2,0l-0.3,0.2l0,0.5l0.5-0.3 M41.7,31.6l-0.4-0.2l0.1,0.5l0.2,0.1 M42.3,30.9l-0.4,0.4l0.4,0.2
		l0.6-0.3 M42.2,31.4l0,0.5 M41.3,32.4L41.3,32.4l-0.2,0l0,0L40.4,32l0,0.5c0.1,0.1,0.3,0.2,0.4,0.4l0,0.1v0.3l0.1-0.1h0l0-0.1l0,0
		v0V33l0,0l0-0.1l0,0l0-0.1l-0.1-0.1l-0.1,0l0,0l0.1-0.1H41l0,0h0l0.1,0.1l0,0.1l0,0v0.1l0,0v0.1l0.2-0.2v-0.1 M40.4,32.6
		c-0.1,0-0.2,0-0.3,0l-0.6,0.4L39.3,33l-0.5,0.3l-1.2,0.7l-0.8,0.5 M41.3,32.9L41.3,32.9L41.3,32.9l0,0.1h0l-0.1,0.1 M14.9,49.3
		l25.8-15.6l0.1-0.1v-0.1 M42.4,33l-0.8-0.4 M42.4,32.5L42,32.3 M37.9,32.5l0.7,0.5l0.1-0.1l-0.1-0.1l-0.7-0.4l0,0h-0.3l-0.6,0.2
		l-0.4,0l0.4,0.2l0.4,0 M40.4,32l-1.7-0.8l-0.2-0.1L38.3,31l0,0 M38.4,33.1l0.2-0.1l0,0 M39.3,33H39l-0.1,0l-0.1,0.1v0.1l0.1,0.1
		 M37,32c0.2,0,0.3-0.1,0.3-0.2l0-0.1h-0.4l-0.1,0l0,0.1v0C36.7,32,36.8,32.1,37,32z M36.6,32.4h-0.4L33,34.8l0,0.1l0,0.1l0,0.1
		l0.1,0l0,0.1h0c0,0,0.2,0.1,0.5,0.2l3.9-1.5 M35.3,34.2L35.3,34.2l-0.2-0.1h-0.3l-0.1,0.1l-0.1,0.1l0,0.1l0.1,0.1l0.3,0.1l0.2,0
		l0.1-0.1L35.3,34.2L35.3,34.2z M39.5,32.9L37,31.2 M47.9,36.3L47.5,36 M48.2,37.1l-0.3-0.2l0.3-0.3l0.1,0.4L48.2,37.1z M48.2,37.1
		l0.4,0.3l0.3,0.4l0.1,0.2l0,0.2l0,0.2l-0.1,0.1l0.6-0.4l0-0.2l-0.1-0.5l-0.1-0.3l-0.1-0.1v0h0l0,0v0h0v0h0v-0.1l-0.1-0.1v-0.2
		 M48.5,38l-0.2-0.2l-0.2,0.1h0.1l0,0l0.1,0.3v0.1l0.1-0.1V38z M48.1,37.8L48.1,37.8l0,0.1l0,0.1v0.1l0.1,0.1h0.1l0,0 M46.9,37.4
		l-0.2,0.1l-0.9-0.7 M46.7,37.1L46,36.7 M39.7,30.3l2.1,1 M31.7,35.6L31.7,35.6L31.7,35.6l0.2,0.1H32c0.3,0,0.4-0.1,0.4-0.2l0-0.1
		l0,0l-0.2-0.1H32 M33,34.8L33,34.8 M11.7,48.3v0.1l0,0.1l0.1,0h0.3l0.3-0.2v-0.1l-0.1-0.1l-0.1,0l-0.2,0l-0.1,0.1L11.7,48.3z
		 M5.5,51.2l-0.1-0.1l-0.1-0.2l0-1.5v0c0.2,0.1,0.3,0.3,0.5,0.4l1,0.5c0.3-0.2,0.5-0.3,0.5-0.5L9.3,51l0.5-0.3l-2.1-1.4l-0.4-0.2
		 M6.8,50.3l2.2,1L9.3,51 M7.7,49.4l0.5-0.2 M8.5,51.7L8.5,51.7v0.5l1,0.5l0.5-0.3H9.8l-0.5,0.1l-0.2,0l-0.2-0.1l-0.2-0.1L8.5,52
		L8.5,51.7z M8.5,51.7L9.4,52l0-0.5l-3.6-1.6l-0.4-0.3l0-0.2 M9.5,53.1l0.5-0.3 M9.5,53.1l-0.3-0.1l-2.5,0.4 M9.5,52.6l0,0.5
		 M9.4,52l0.6-0.3 M9.2,52.9L8,52.4l-1.4,0.2 M9.9,51.2l-0.5,0.3 M13,49l-1.8,1l1.8-1.4 M13.2,50.4l-1.8,1.1 M10.9,48l1.8-0.8
		 M10.9,48.4l1.9-0.8 M5.5,51.2l0.1,0.6 M8,52.4l-2.3-1.1l-0.2-0.1l0-0.1 M5.5,51.2l-0.3,0.6 M32.6,37.1L14.8,48 M43,27.9L43,27.9
		 M40.8,28.4L40.8,28.4 M40.9,28L40.9,28 M40.8,28.4L40.8,28.4 M5.5,51.2L5.5,51.2 M40.8,28.5L40.8,28.5 M32.9,34.7L32.9,34.7"/>
	<path id="Layer1_2_MEMBER_3_1_STROKES" class="st0" d="M44.2,41c0.1,0.2,0.2,0.2,0.3,0.1l0,0v-0.2l-0.1-0.2l-0.1,0h-0.1
		C44.1,40.7,44.1,40.8,44.2,41z M44.5,41.1L44.5,41.1l0.1-0.1v-0.2l-0.1-0.2l-0.1,0l0,0l-0.2,0.1 M43.9,40.4l0.2-1 M46.6,39
		l-0.4,1.5c0,0.1,0,0.1,0,0.2l0.3-0.2l0.1-0.2l0.2-1.1 M46,38l-0.4,2h0l0.1,0.2v0.1l0,0.1l0.1-0.1h0v0 M46.2,40.7
		c0,0.1-0.1,0.1-0.2,0.1c-0.1,0-0.2,0-0.3-0.1l0,0l-0.2-0.1L45.4,41l-0.1,0.1L45,41.4l0.7-3.1 M45.5,40.6l0.1-0.6 M52,42.7l0,0.7
		c-1.1-0.7-2-0.8-2.8-0.5l-0.4,0.2c0.1,0,0.2-0.1,0.2-0.1c0.8-0.3,1.7-0.1,2.7,0.6l0.6-0.4h0.1l0.1,0l0.1,0.1l0,0.1v0.1l-0.1,0.1
		c0.1,0.1,0.2,0.2,0.3,0.3l0-0.8l-0.6-0.4L52,42.7z M52,42.7l0.3-0.3v0.5 M52.9,43.2l0.3-0.3v1.5c0.7,0.8,1.3,1.8,1.8,2.9
		c0.7,1.6,0.8,3,0.3,4.2l1.6,1.4c0.1,0,0.1,0.2-0.1,0.6C56.5,53.8,56.3,54,56,54c0,0-0.1,0-0.1,0l-0.1-0.1l-1.6-1.4
		c-0.1,0.1-0.2,0.1-0.3,0.2c-0.8,0.4-1.6,0.3-2.6-0.3c-0.9-0.6-1.7-1.3-2.3-2.2l-0.3,0.2l0,1.7 M53.2,44.4c-0.1-0.1-0.2-0.2-0.3-0.3
		 M52.6,43.8L52.2,44c1,0.8,1.7,1.9,2.3,3.3c0.6,1.5,0.8,2.8,0.5,4l0.2,0.2 M51,44.7l0.1,1.7l0.3-0.1l-0.2-1.8L51,44.7z M51,44.7
		l-1.3,0.8l0.7,1.2l0.1,0l0.7-0.1 M49.7,44c0.4-0.1,0.8,0,1.1,0.2 M49.7,44l0,0.8l1.1-0.6l0.8-0.5 M51.6,44.6l0,1.9l0.3,0.4l0.1-2
		C51.9,44.7,51.8,44.6,51.6,44.6z M50.4,46.6l-0.2,0.1l1.1-0.2l0.3-0.1l-0.1,0 M51.6,46.4L51.6,46.4 M49.1,50.2l0.5-0.3l0.4-0.3
		l0.6-0.4l0.2-0.1l0.7-0.5h0l0.1-0.3l0-0.2l-0.1-0.2l-0.2-0.2l-0.1-0.1l-0.2,0h-0.2l-0.6,0.4l-0.2,0.1l0,1L49.8,49l-0.7,0.4
		l-0.2-0.3L48.7,49 M50.2,47.7l0-1 M49.6,45.5l-0.5,0.3l0.4,0.4l0.6,0.4l0,1.3 M53.1,46.8l0.3-0.3c-0.1-0.2-0.2-0.3-0.3-0.4
		L53.1,46.8z M53.1,46.8L53.1,46.8L52.8,47l-0.7,0.1l0.3,0.4l1.3-0.2c-0.1-0.2-0.2-0.5-0.3-0.7 M52,44.8c0.3,0.3,0.6,0.6,0.9,0.9
		c0.1,0.1,0.2,0.3,0.3,0.4 M52.4,47.5v0.4l0.3,0l0.3-0.1l0.4-0.1l0.4,1.3v0.8l0,0.1l-0.8-0.8l-0.3-0.3l-0.3-0.4V49l1.2,1.5
		 M51.3,46.5l0.9,1.1l0.2-0.1 M52.8,47l0-1.3 M52.2,44l-1,0.5 M52.1,47.1l-0.2-0.3 M47.2,45L47.2,45L47.2,45l0.1,0.2v0.1
		c-0.1-0.1-0.2,0-0.4,0.1l-0.1,0.5l0,0.1l0,0l0.3,0.2l0-0.7l0.3-0.3l0.1,0c0.1-1.1,0.5-1.8,1.2-2.2 M47.6,45.3l0.6,0.4l0.2-0.1
		l0-0.3l0.1-0.2l0.2,0.3l0.7-0.4l0-0.9c0.1,0,0.2-0.1,0.3-0.1 M47.1,45L47.1,45 M33.5,38l13.2,8.1L46.6,46l0-0.2l0.1-0.4l0.3-0.3
		L47,45l0.1,0l-12.5-7.7 M46.9,46.1L46.9,46.1l-0.2,0 M47.2,46.3l0,1.6V48l0,0.9l0,0.6v0.3l0,0.9v0.3l0,1.5l0.3-0.3l0.2-7.1
		 M49.5,46.1l-0.5-0.3l-0.1,0.1c0.2,0.1,0.4,0.3,0.6,0.6l0.3,0.2l0,2.4 M49.1,45.8L49.1,45.8 M47.3,52.3l0.6,0.4l0.2-6.5l0.3-0.3
		l-0.2-0.1 M49,47c-0.1-0.2-0.2-0.3-0.3-0.3c-0.2,0-0.2,0.1-0.1,0.3c0.1,0.2,0.2,0.3,0.3,0.3C49,47.3,49.1,47.2,49,47z M48.9,45.9
		l-0.5,0.3c0.6,0,0.9,0.3,0.9,1.1c0,0.1,0,0.2,0,0.2l0.2-0.2c0,0,0,0,0,0c0.2-0.2,0.2-0.5,0-0.8 M47.9,52.7l0,0.5l0.3-0.3l0.1-2.4
		l0-1.2l0-1.9l0-1.5 M49.3,47.5c-0.1,0.5-0.4,0.4-1-0.2 M48.4,45.6l0.4-0.2 M48.3,49.2L48.3,49.2l0.2,0.2l0.3,0.4v0.4v0.2l0,0
		l-0.1,0h-0.1l-0.2-0.1 M48.8,50.4l0-0.2 M47.1,49.9l-1.6,0.5h0l-0.1,0.1l0,0.3l0.1,0.2c0,0.2,0.2,0.2,0.4,0.2h0l1.3-0.4 M44.9,50.9
		l-0.1-0.1h0v0h-0.2v0l-2.9,0.9c-0.2,0.1-0.2,0.2-0.2,0.4l0,0l0,0.2c0,0.2,0.2,0.2,0.4,0.2l2.9-0.9l0.2-0.2v-0.2L44.9,50.9z
		 M47.1,48.9L45,50.2l2.1-0.7 M52.2,47.6l0,1.8l0.1,0l0.2-0.1V49 M52.7,49.9v0.3l0.1-0.1L52.7,49.9z M52.7,49.9l-0.5-0.6 M54,51
		l-0.3,0.4l-0.1,0.2v0.1l0.3,0.3l0.1-0.1l0,0l0.1-0.2l0.2-0.2l0.1-0.1l0.2-0.1l-0.3-0.2l-0.1,0l-0.1,0L54,51z M53.5,50.9l-0.6-0.8
		 M51.5,51.2l-0.1-1.8 M51.5,51.2L51.5,51.2l0.3,0.2l0.1-1.7l0-0.3l-0.6,0l-0.3,0l0.2,2l0,0L51.5,51.2L51.5,51.2z M51,49.5L51,49.5
		l-0.2-0.4 M49.9,49.6L49.9,49.6l0.8,0.9l-0.2-1.4 M49.6,49.9c0.3,0.4,0.7,0.8,1.3,1.3l-0.1-0.6 M52.7,50.2l0,1.5V52L52,51.9
		l-0.4-0.2l-0.3-0.2l0,0v-0.1 M53.9,52.3l0.4,0.3 M51.8,51.4l0.6,0.3l0.3,0 M52.7,50.2l-0.9-0.5 M52.2,49.4h-0.3 M52.8,48.8v-0.9
		 M48.2,52.8l2.1,1.1c0.3,0.2,0.5,0.5,0.5,0.9l0,2.2 M52.4,48.4v-0.5 M53.1,47.7l0,1.3 M49.4,44.9l0.3-0.2 M37.4,53.3L37.4,53.3
		l0.1,0.2v0l0,0v0l0,0h0l0,0h0.2l3-1c0.2,0,0.2-0.2,0.2-0.4l0-0.2c-0.1-0.2-0.2-0.2-0.4-0.2h0v0l-3,0.9l-0.2,0.2V53.3z M36.6,53.3
		l0.2,0.8c0,0.1,0.1,0.2,0.3,0.2h0.1l0,0l-0.5-1.4l0,0h0l0,0v0l0,0V53.3z M39.7,51.9l0.4-0.1l-0.2-0.6l-0.4,0.1L39.7,51.9z
		 M39.7,51.9l-2.9,0.9 M37.3,54.2l2.2-0.7c0.2,0,0.4,0,0.5,0h0.1l0,0h0.1v0h0l7.7,3.5 M40.1,51.8l3.6-1.2l-0.2-0.6l0.6-0.4l-0.3-0.8
		l-4,2.4 M47.1,48l-3.3,1.9l0.2,0.6l0.9-0.3 M43.7,50.6l0.4-0.1 M43.9,49.9l-0.3,0.1 M43.9,48.8L43.5,49l-4,2.4 M47.1,51.1l-5.7,1.8
		l0,0l0,0.1l0,0.1l0,0.2l0.1,0.2l0.1,0.1l0.1,0.1l5.7,2.6 M51.1,56.9c0-0.3,0.1-0.5,0.3-0.5c0.2,0,0.4,0.2,0.6,0.4l0,0l1.9,1.2
		l0-0.1l0.1-0.1 M53.9,58L53.9,58l-0.1,0.4l0,0.1l-0.2,0.3l-1.6-1 M47.1,47.9l-3,1.8 M55,51.3l-0.2-0.2h-0.1l-0.1,0 M54.4,51.3
		l2,1.7c0.1-0.1,0.2-0.2,0.3-0.2c0,0,0.1,0,0.1,0 M56.7,53.1h-0.1l-0.1,0.1l-0.1,0.1c-0.2,0.3-0.2,0.5-0.2,0.6h0.1l0.1-0.1l0.1-0.1
		l0.1-0.1l0.1-0.3V53.1z M55.9,53.9c0-0.1,0-0.2,0.1-0.4l-2-1.7 M56.4,53c-0.1,0.1-0.2,0.2-0.3,0.4c0,0-0.1,0.1-0.1,0.1 M54.6,57.5
		v0.4 M31.5,36l0.1,0.5h0.6l0.2,0h0.1l1-0.4l0,0.5l-0.4,0.1 M31.7,35.9l0-0.2 M32.4,35.8v-0.3 M32.4,37.1L32.4,37.1L32.2,37h-0.1
		l0,0l-0.2,0l-0.2-0.1l-0.1-0.3 M47.1,45L47.1,45 M48.3,50.4L48.3,50.4"/>
	<path id="Layer1_2_MEMBER_4_1_STROKES" class="st0" d="M51.3,56.4l0.4-0.2l0.4-0.2h0.2l0,0c-0.4-0.4-0.6-0.7-0.6-0.9
		c0,0,0.1-0.4,0.2-1c0.1-0.2,0.1-0.4,0.1-0.5L52,53.2l0,0v-0.1l0,0v-0.3l0.3,0.2l2.2,1.2l0.2-0.2l0.1-1 M52.2,52.9L52.2,52.9
		l0.1,0.2l0,0.1l1.7,1.2l0.1,0l0.2-0.3 M52.3,53.2l0,0.1l0.1,0.2c0,0,0,0,0,0l1.3,0.9l0.2-0.1l0,0 M52.5,53.5c0,0.2,0,0.4-0.1,0.6
		c0,0.1-0.1,0.2-0.1,0.2l0.9,0.7l0.4-0.5l0.1,0 M53.7,54.5l0.7,0.8l0.7-0.3l-0.1-0.2l-0.2,0.2l-0.1,0l-0.2,0l-0.3-0.2L54,54.7v-0.1
		l0-0.1h0l-0.1,0 M54.1,54.4L54.1,54.4 M53.5,55.1c0.1,0,0.1,0,0.1,0.1L53.5,55.1L53.5,55.1z M53.5,55.1L53.5,55.1
		c-0.1,0-0.2,0.1-0.1,0.3 M53.4,55.4c0,0,0,0.1,0,0.1l0,0l0,0.1h0l0,0c0.1,0,0.1-0.1,0.1-0.3c0-0.1,0-0.1,0-0.1c0,0,0,0,0,0
		 M53.6,55.7h0.1v-0.2l0,0l0.1-0.1v0h0v-0.1l0,0v0l0,0v0h0l-0.1,0 M53.8,55.1L53.8,55.1l-0.2,0l-0.1,0v0 M53.4,55.1L53.4,55.1
		L53.4,55.1c-0.1,0.1-0.1,0.2,0,0.3 M53.8,55.7L53.8,55.7l0.1-0.1h0v0h0v-0.1 M52.3,54.3c0,0.1,0,0.1,0,0.2
		c-0.1,0.3-0.2,0.5-0.1,0.7c0,0.1,0.2,0.3,0.4,0.5l0.6-0.7 M53.1,55.8l0.1-0.1 M53.1,55.8l0.1,0.2l0,0.1l0,0l0.1,0v0h0v-0.1h0v0l0,0
		v0h0v0L53.1,55.8v-0.1h0L53.1,55.8l-0.2,0h0l0,0H53.1L53.1,55.8z M52.9,55.8L52.9,55.8l-0.1,0v0.2l0,0l0.1,0.1v0l0,0.1l0,0H53l0,0
		h0l0.1-0.1v0v-0.1l0,0v0L52.9,55.8L52.9,55.8 M52.8,55.8L52.8,55.8L52.8,55.8L52.8,55.8 M51.7,56.2l0.2,0l0.4,0.2l0.1,0.1l1.8,1.1
		l0.1,0l0.3-0.1l-1.1-0.7l-0.2-0.2L53,56.3l0,0 M52.9,56.3L52.9,56.3L52.9,56.3l0.1,0 M52.9,56.3L52.9,56.3 M52.3,56l0.1,0l0.3,0
		 M53.1,56.4L53.1,56.4L53.1,56.4L53.1,56.4 M52.6,55.7L52.4,56 M53.6,55.7L53.6,55.7c-0.2,0-0.2-0.1-0.2-0.3 M53.2,56.2L53.2,56.2
		 M53.1,56.4l0.1-0.1h0v-0.1h0v-0.1 M55.1,55.1L55.1,55.1l0,0.5L55,55.9h0l-0.5,0.2c-0.1,0.1-0.2,0.2-0.5,0l-0.6,0.6 M48.3,55.1
		l0.6,0.3l-0.1,0.8l1.5,0.9l0,0c0.1-0.1,0.3-0.1,0.4,0l0.7-0.4 M51.9,57.6L51.2,58c0,0.1-0.1,0.3-0.2,0.3l-0.5,0.3l-0.1,0.1h-0.1
		l-0.1-0.1l-1.9,0.5 M51.2,58c0-0.2-0.1-0.3-0.2-0.6c-0.1-0.2-0.2-0.3-0.3-0.4 M50.5,58.6L50.5,58.6l0.1-0.2l0-0.2L50.6,58
		c-0.1-0.4-0.3-0.7-0.7-0.7c0,0-0.1,0-0.1,0c0,0-0.1,0-0.1,0c0,0-0.1,0-0.1,0.1c-0.1,0.1,0,0.3,0,0.6l0.1,0.3 M49.8,58.3l0.1,0.2
		l0.2,0.1l0,0 M50.1,58.4c0.2,0,0.2-0.2,0.1-0.4c-0.1-0.2-0.2-0.3-0.3-0.4c-0.2,0-0.2,0.1-0.2,0.4C49.9,58.3,50,58.4,50.1,58.4z
		 M49.8,57.3l0.4-0.2 M53.2,57.8L53.2,57.8l-0.1,0.1h0.1h0.1l0.1,0l0,0h0v0H53.2z M53.3,57.9L53.3,57.9l0.1,0.2l0,0v0l0,0l0.1,0
		v-0.1l0,0v0l0,0h0v0 M53.2,57.9L53.2,57.9L53.2,57.9l0.1,0.1 M53.4,58.2v0.1V58.2 M53.4,58.4L53.4,58.4 M53.4,58.4L53.4,58.4
		c-0.2,0.1-0.3,0-0.4-0.1l0,0.1c0,0,0.1,0.1,0.1,0.1C53.3,58.5,53.4,58.5,53.4,58.4L53.4,58.4l0.1,0v-0.1 M53.4,58.3L53.4,58.3
		 M53.4,58.1L53.4,58.1 M54.2,57.7l-0.4,0.2l-0.1,1 M52.8,57.5L52.8,57.5L52.8,57.5L52.8,57.5l0.1,0.1v0.1l0,0v0.1h0v0h0v0l-0.1,0h0
		h-0.1h0l0,0l0,0h0v0l0,0v0l0-0.1v0v0v0l0,0v0h0l0.1-0.1L52.8,57.5L52.8,57.5L52.8,57.5z M52.7,57.4l-0.1,0.1l0,0.1l0,0l0.1,0.2
		l0.1-0.1 M52.3,57.5L52.3,57.5L52.3,57.5L52.3,57.5 M52.3,57.5L52.3,57.5L52.3,57.5 M52.3,57.6L52.3,57.6l0,0.1l0,0v0l0,0
		 M52.6,57.5L52.6,57.5l0.1,0.2c0,0.1,0,0.1,0,0.2l0-0.1 M52.5,57.5L52.5,57.5 M52.5,58L52.5,58L52.5,58 M53.1,57.9
		C53,57.9,53,58,53.1,57.9 M53.1,57.9L53.1,57.9L53.1,57.9c0,0.1,0,0.1,0,0.2 M53,58.1C53,58.1,53,58.2,53,58.1 M53.1,58.2
		L53.1,58.2C53,58.2,53,58.2,53.1,58.2L53.1,58.2L53.1,58.2 M53.1,57.9L53.1,57.9L53.1,57.9 M52.7,58L52.7,58L52.7,58 M52.7,58
		L52.7,58 M48,55.7l0.1-2.6 M48,55.7l0.8,0.5 M48,56.6v0.5 M48,56.6l0-0.9 M48,57.9l1.1-0.3v0l-0.2-0.4l-0.1,0L48.6,57L48,56.6
		 M47.9,58.3l1.1-0.3h0.1l0-0.1v-0.1 M49.7,57.3L49,56.7 M49.6,57.4l-1-0.4 M49.8,58.2l-0.8,0.2 M47.3,52.5l0,2.4 M47.7,52.9l0,3.3
		 M70.8,48l2-2.1 M69.9,47.4l2.5-2.5 M59.4,57.9C59.4,57.9,59.3,57.9,59.4,57.9c-0.2,0-0.3,0.1-0.3,0.2c0,0,0,0.1,0,0.1
		c0,0.2,0.1,0.3,0.2,0.4c0,0,0.1,0.1,0.1,0.1l0.2,0.1l0.1,0h0.1l0,0h0.1c0.1,0,0.1-0.1,0.2-0.3L60,58.8l-0.1,0h-0.2l-0.3-0.2
		l-0.2-0.3l0-0.1l0-0.1L59.4,57.9z M59.4,57.9l9.2-9.2 M59.9,59L59.9,59l0.2-0.1v-0.1l9.3-9.4 M59.8,59L59.8,59l-0.2,0l-0.2,0.2h0
		l0,0h0.2l0,0h0v0L60,59 M59.1,58.3L59.1,58.3l0,0.2l0.1,0.1l0.1,0.1 M59.4,59.2L59.4,59.2l-0.1-0.1h-0.1v0l0,0h0v0l0,0v0h0v0l0,0v0
		l0,0l0,0v0L58,59.1l-0.1,0l-0.1,0l-0.1,0.3h-0.1l-0.2,0l-0.1,0.1c0.1,0,0.1,0,0.2,0c0.2,0,0.3,0.1,0.4,0.3l0.3,0.1l0.1,0.1l0.4-0.2
		l0.1-0.2L59.4,59.2 M59.6,59l-0.1-0.1l-0.1-0.1 M54.5,56.1c0.1-0.1,0.1-0.3,0-0.5L54,56.2 M55,55.1l-0.5,0.5 M59.3,57.9h-0.2l0,0.1
		v0.1 M59.1,58l-0.2,0.2v0h0v0.1h0v0.1h0v0.1 M58.7,60l0,0.2v0.2l0,0.1l0.1,0l0.1-0.2V60l0-0.2 M58,59.1l-0.2,0.1 M58.8,58.7
		l0.2-0.2 M58.7,60.5L58.7,60.5l-0.4,0.4L58.2,61c0,0.1-0.1,0.2-0.3,0.2c-0.3,0-0.5-0.2-0.6-0.5l-3.3-1.9 M58.7,60.5L58.7,60.5
		L58.7,60.5 M58.2,61c0-0.1,0-0.3,0-0.5c0-0.2-0.1-0.4-0.2-0.5 M58.3,60.7l0,0.2 M57.7,60.1L57.7,60.1l-0.1,0l0,0l0,0.1v0.1l0,0.1
		c0,0.2,0.1,0.3,0.2,0.3c0.1,0,0.1-0.1,0.1-0.3l0-0.1L57.7,60.1z M57.3,59.7c-0.2,0.1-0.2,0.3-0.1,0.7c0,0.1,0,0.1,0.1,0.2
		 M55.8,53.9l-0.9,0.9 M54.4,55.3l-1.2,1.3 M54.3,57.6l3.1,1.9 M11.3,62.6v0.3l0.1,0.1l0.1,0l0.1,0.1c-0.1-0.1-0.1-0.1-0.1-0.3
		c0-0.2,0-0.4,0.2-0.6c0.1-0.1,0.2-0.1,0.3-0.1c-0.2-0.2-0.4-0.1-0.5,0.1l-0.1,0.1L11.3,62.6z M11.6,61.4L11.6,61.4l-0.2-0.2
		L10.9,61l-0.8-0.3 M14.3,61.3l-0.1-0.2l0,0l-0.1,0l-0.1,0l-0.1,0.1l-0.1,0.1l-0.1,0.3v0.2l0.1,0.1l-0.1,0v0l-0.1-0.1
		c-0.1-0.1-0.1-0.2-0.1-0.3v0h0l0,0h-0.1l0,0h-0.1l0,0h0l0-0.1h0l-0.1,0l0,0v0h0l-0.1-0.1v0h0l0,0v-0.1h0v0l-0.1-0.1v0l-0.1-0.1
		l0-0.1l-0.5,1.5c0,0.3-0.2,0.4-0.5,0.3l-1.9-0.9 M11.2,64.3L11.2,64.3L11.1,64L11,64.1l-0.1,0l0-0.1l0,0v-0.1L10.6,64l0,0
		c-0.1,0.1-0.2,0-0.3,0l-0.1,0c-0.2-0.1-0.2-0.4,0-0.7c0.2-0.3,0.3-0.3,0.5-0.3l0.2,0.1l0,0l0.1,0.1v0.2v0l0,0l0,0.1l-0.1,0.3v0
		 M10.6,63.9L10.6,63.9l-0.1-0.1l0-0.1v-0.1l0-0.1c0.1-0.1,0.2-0.2,0.3-0.2c0.1,0,0.1,0,0.1,0.2 M10.3,63.9c0,0,0-0.1,0-0.2v-0.3
		l0.1-0.1l0.1-0.1l0.1-0.1l0.1,0h0.2 M11.4,64.3L11.4,64.3l0-0.2l0-0.1l0.1-0.1c0-0.2,0-0.3-0.1-0.3c-0.1,0-0.2,0.1-0.3,0.2l0,0.1
		l0,0.1v0 M14.2,61L14.2,61c-0.2-0.1-0.3-0.1-0.4,0l0.2,0.1 M12.4,60.5L12.4,60.5 M12.4,60.5L12.4,60.5 M12.5,60.5L12.5,60.5
		 M12.5,60.4L12.5,60.4 M12.5,60.4L12.5,60.4 M12.5,60.4L12.5,60.4 M12.6,60.3L12.6,60.3 M12.7,60.3L12.7,60.3 M12.7,60.3L12.7,60.3
		 M12.7,60.3L12.7,60.3l0.2,0.1v0h0v0l0.3,0.4l0.1-0.3l0.5-1.4 M13,60.9c0-0.2,0-0.3,0-0.4c0-0.1-0.1-0.1-0.2-0.1 M13.3,60.9
		l0.1-0.1l0-0.1 M13.8,61c-0.1,0.1-0.1,0.1-0.2,0.2c-0.1,0.1-0.1,0.2-0.1,0.2l0.2,0.1 M12.2,62.4L12.2,62.4L12.2,62.4l-0.3,0l0,0.1
		l-0.1,0.3V63l0,0.1v0l0,0l0,0h0l0.1-0.1V63l0-0.1l0-0.1l0.1-0.1c0.1-0.3,0-0.4-0.1-0.5c-0.1,0-0.1-0.1-0.2,0 M12.1,63.1L12.1,63.1
		l0.1,0.2h0.1l0.1,0v-0.1l0.1-0.3c0-0.1,0-0.1,0.1-0.1l0-0.1v-0.1l0,0h-0.1l-0.1,0l0,0.1 M12.8,62.8L12.8,62.8
		c-0.1-0.1-0.2-0.1-0.3,0 M12.4,63.3L12.4,63.3l0,0.1l0.1,0.1l0.1,0l0,0h0v0l0.1-0.3l0.1-0.1l0-0.1l0.1,0 M11.6,63.1L11.6,63.1
		c0.1,0.1,0.2,0.1,0.3,0 M12.4,64.9c-0.1-0.1-0.1-0.1-0.1-0.2l-0.1,0.1h0l-0.1,0v0l0-0.1v0l-0.1,0l0,0l-0.1,0
		c-0.1-0.3-0.1-0.5,0.1-0.7v-0.1l0,0l0-0.1h-0.1l-0.1,0.1 M12.3,64.7c0-0.1,0-0.1,0-0.2c0.1-0.1,0.1-0.2,0.2-0.2l0-0.1V64h-0.1l0,0
		l-0.1,0l0,0l0,0l-0.1,0.1L12,64.5v0 M12.2,64.1c0-0.3-0.1-0.4-0.3-0.1 M12.7,64.2c-0.1,0-0.2,0-0.3,0.1 M10.9,61l0.1-1.3
		 M12.9,58.5l-0.6,1.8 M15.1,61.8l2.1,1.7c0,0,0,0,0,0l0.1-0.1l0.2-0.3l0,0l0.2-0.1H18h0.1v0c0.1,0,0.2,0.1,0.3,0.2
		c0,0.1,0.1,0.2,0.1,0.3l-0.2-0.2l0-0.1L18,62.9 M17.6,63.6c-0.1-0.1-0.2-0.2-0.2-0.2 M17.7,63.7L17.7,63.7 M17.7,63.9v-0.2
		 M17.7,63.9l0.2,0c0,0,0.1,0,0.1,0l0.1,0c0-0.1,0-0.1,0-0.2c-0.1-0.3-0.2-0.5-0.4-0.5 M17.3,63.5L17.3,63.5L17.3,63.5l0.1,0l0,0
		l0,0.1v0l0,0v0.1l0,0l0.2-0.1 M17.2,63.5c0,0.1,0,0.1,0,0.3c0.1,0.1,0.2,0.2,0.2,0.1 M20.6,64.2l-0.3,0.1l-0.1,0.1l-0.1,0.1l0,0.1
		v0.4 M18.9,63.5l-0.2,0.2l0,0.1l-0.1,0.3 M21,65.5L21,65.5 M21,65.5c-0.5,0-0.6-0.2-0.4-0.7c0.3-0.5,0.5-0.5,0.8-0.1l0.1,0h0.1
		 M21.3,64.8l-0.3,0.4L21,65.5v0.1 M19.1,64.1L19,64.4 M20.3,64.1c-0.2-0.3-0.4-0.2-0.7,0.2c-0.3,0.5-0.2,0.7,0.1,0.7 M22.2,66.3
		c-0.3,0-0.4-0.2-0.1-0.7c0.1-0.2,0.2-0.3,0.3-0.4c-0.2-0.3-0.5-0.3-0.7,0l-0.1,0.1l0,0.1v0.2 M22.4,66.1v0.4 M22.5,65.9l0,0.2
		 M22.6,65.8l-0.1,0.1 M22.8,65.6c-0.1,0-0.1,0.1-0.2,0.2 M22.8,65.6c-0.2-0.3-0.4-0.4-0.5-0.3 M23.2,65.7c0-0.2-0.1-0.2-0.3-0.2
		c0,0,0,0-0.1,0 M14.6,62.5l2.7,2.3 M23,66.6l-0.1,0.2L22.7,67l-0.2,0 M53.4,55.4L53.4,55.4 M52.9,56.3L52.9,56.3 M51.7,56.2
		L51.7,56.2 M49.8,58.2L49.8,58.2 M53,58.2L53,58.2 M53,58.1L53,58.1"/>
	<path id="Layer1_2_MEMBER_5_1_STROKES" class="st0" d="M8.6,63.1c0.1,0.2,0.1,0.2,0.2,0.2C9,63.4,9,63.3,9,63.1
		c-0.1-0.2-0.1-0.3-0.2-0.3C8.6,62.8,8.6,62.9,8.6,63.1z M14,62.8L14,62.8l-0.1,0l0,0h0l0,0l-0.1,0.1c-0.2,0.1-0.2,0.3-0.2,0.5l0,0
		v0l0,0l2.7,2c0-0.1,0-0.3,0.2-0.5c0.1-0.2,0.2-0.3,0.4-0.3L14,62.8L14,62.8z M13.7,62.8c-0.2-0.1-0.4,0-0.4,0.1v0l0,0.1v0l0,0l0,0
		 M11.8,61.8l0.9-0.6 M15.7,65.8L15.7,65.8l-0.2,0.1l-0.1,0.3l0,0.1v0.2v0l0.1,0.1l0.1,0l0.2,0.1l-0.1-0.1l0-0.1v-0.2l0-0.2l0-0.1
		l0.1-0.1c0.2-0.2,0.3-0.2,0.4-0.2l-0.2-0.1L15.7,65.8L15.7,65.8z M15.7,65.8l-3-1.6 M21.8,60.3l-0.1-0.1l-0.1,0h-0.1l-0.2,0.1
		l-1.4-0.9c-0.1-0.1-0.2,0-0.3,0.3l0.1,0.1l1.4,0.8c0-0.2,0.1-0.3,0.2-0.3l0.1,0l0.1,0.1l0.1,0.3l0,0.1V61l-0.1,0.1h0l0,0l-0.3,0.1
		l-0.1,0.1c0,0,0,0,0,0c-0.1,0-0.2-0.1-0.2-0.2c-0.1-0.2,0-0.2,0-0.2c0.1,0,0.2,0.1,0.2,0.2c0,0.1,0,0.2,0,0.2 M21.1,60.6L21,60.7
		L21.1,60.6v0.1h0v0l0,0l0,0.1l0,0v0.1l0,0 M20.9,62.1c-0.1,0.1-0.1,0.2,0,0.3l0,0.1l0.2,0.2l0.1,0h0l0,0c0,0,0-0.1,0-0.2l0-0.2l0,0
		l0-0.1l0,0L20.9,62.1L20.9,62.1z M20.9,62.1l0.2-0.1c0.2-0.1,0.3,0,0.3,0.2l0,0.1v0.1l0,0l0,0v0l0,0c0.1,0,0.1,0.1,0.2,0
		c0,0,0.1-0.1,0.1-0.1c0-0.1,0-0.3,0-0.4L21.6,62l-0.1-0.1l0,0l-0.1,0l-0.1,0l-0.1,0l0,0h0l0.4-0.2h0.1l0.1,0.1l0.1,0l0.1,0.1
		l0.1,0.3v0l0.1,0l0.1,0l0,0v-0.1l0,0v-0.1c-0.1-0.2-0.2-0.2-0.3-0.2l0,0l0,0l0-0.1v-0.1L22,61l0-0.1l0.1-0.1l0.2-0.1l0.1,0
		 M22.4,60.6L22.4,60.6L22.4,60.6 M19.9,62.6l-0.5,0.3 M20,62.6L20,62.6 M20.1,62.7L20.1,62.7 M20.1,62.7L20.1,62.7 M20.1,62.7
		l0.2,0l0,0l0,0h0l0,0v0l0.1,0.1v0l0,0.1v0.1l0,0v0l-0.1,0l1.6,0.7h0.1v0.1l0.7-0.5 M20.5,63.2L20.5,63.2L20.5,63.2L20.4,63
		l-0.1-0.1l-0.1-0.1 M18.7,63.3c-0.1-0.1-0.3,0-0.4,0.3c-0.2,0.3-0.2,0.4,0,0.6l0.1,0.1l0.1,1.5l3.7,0.9l0.3-0.2 M16.1,65.5
		c0,0.1,0.1,0.1,0.2,0.1l0,0l0.4,0.3c0-0.1,0-0.1,0-0.2l0-0.1v-0.1l0.1-0.2l0,0h0l0.1-0.1h0l0,0c0.1,0,0.2,0,0.2,0l0,0l-0.4-0.3
		c-0.1,0-0.1-0.1-0.2,0h0 M17.5,65.3l0.3,0.2l-0.2,0.3l0.2-0.2l0.1,0l0.1,0l0.1,0h0.1h0l0,0L18,65.2l0,0
		C17.8,65.1,17.6,65.1,17.5,65.3 M18.5,65.8l-0.4-0.1c-0.1,0-0.1,0-0.2,0l0,0c-0.1,0.1-0.2,0.3-0.2,0.5v0l0,0l0,0.1l0.1,0.1l0,0
		l0,0.1h0v0l0.1,0l0,0v0h0v0h-0.1l0,0h0l0,0h0l0,0h-0.1c0,0-0.1,0-0.1,0c0,0-0.1,0-0.1,0c0,0,0,0,0,0l0,0h-0.1v0h0v0l0.1,0.1h0
		l0.1,0l0.2,0.2h-0.2l0,0h-0.3v0l0,0v0.1l0,0v0.3l0.8-0.4c0.1,0,0.2-0.1,0.2,0l1.1-0.8c0.5-0.3,0.9,0,1.3,0.7h0l0,0h0l0.1,0l3.5,0.2
		v-1c0-0.3-0.1-0.5-0.3-0.6h-0.6l-0.1,0h0c0,0.1,0,0.2-0.1,0.3l0,0.5h0l-0.3,0.1l-0.5-0.1 M17.9,65.7l0.3-0.2l0,0 M17.4,63.9
		l-0.1,1.2 M16.7,65.9l0.2,0.2c0-0.1,0-0.2,0-0.3c0.1-0.1,0.1-0.2,0.2-0.4c0.1-0.1,0.2-0.2,0.3-0.3l-0.1-0.1 M19.9,63.9h0.4l0,0h0v0
		h0l1.4,0.5v0l0-0.1l0-0.1l0,0l0-0.1H22 M19.2,63.2L19.2,63.2L19.2,63.2L19.2,63.2z M22.8,61.9c-0.5,0-0.6-0.2-0.4-0.6
		c0.3-0.5,0.5-0.5,0.8-0.1l-0.1,0.1l0,0.1C22.9,61.5,22.8,61.6,22.8,61.9C22.8,61.8,22.8,61.8,22.8,61.9z M22.8,61.9
		c0,0.2,0.2,0.3,0.5,0.2l0.1-0.3l0.1-0.1l0.2-0.2l0.1,0l0,0 M23.8,62.8L23.8,62.8L23.8,62.8h-0.1l-0.1,0l0,0.1v0.2l0.1,0.1l-1.5-0.6
		h-0.5l4.1,1.5l0.2,0l0.2,0 M24.3,62.7c0,0.2,0.2,0.3,0.5,0.2c0,0,0,0,0,0c0-0.2,0-0.3,0.1-0.5c0.3-0.4,0.5-0.4,0.7,0
		c0.1-0.1,0.3-0.1,0.5,0.1l0-0.3c0-0.1-0.1-0.3-0.3-0.4c-0.2-0.1-0.4-0.2-0.6-0.1l-0.3,0.2c0,0,0,0-0.1,0c-0.1,0-0.1,0-0.2,0
		c-0.1,0.1-0.2,0.2-0.3,0.4C24.3,62.4,24.3,62.5,24.3,62.7z M24.3,62.7c-0.3,0-0.5-0.1-0.4-0.3c0-0.2,0-0.3,0.1-0.5
		c0.1-0.1,0.2-0.2,0.3-0.2c0.2-0.1,0.3,0,0.4,0.2 M25.6,62.4c-0.1,0.1-0.2,0.2-0.3,0.4c-0.1,0.2-0.1,0.3-0.1,0.4
		c0,0.2,0.2,0.3,0.5,0.3c0-0.2,0.1-0.4,0.2-0.5c0.1-0.1,0.2-0.2,0.3-0.2c0.1,0,0.1,0,0.2,0l0-0.4c0-0.1,0-0.1,0-0.2
		c0-0.1-0.1-0.3-0.3-0.4c-0.2-0.2-0.4-0.2-0.6-0.1l-0.6,0.3 M22.2,60.3L22.2,60.3L22.2,60.3c-0.2-0.2-0.3-0.2-0.4,0l0,0l0.1,0.2v0.1
		l0.2-0.1V60.3z M21.9,60.2L21.9,60.2l-0.1-0.1h-0.1 M21.2,62.7l0.3-0.2 M21.7,62.7L21.7,62.7 M21.8,64.4L21.8,64.4l-0.3,0.3
		 M22.9,66.7L22.9,66.7l-0.1-0.1l0-0.1v0l0-0.2v-0.1l0.1-0.1l0.1-0.1l0-0.1l0.1,0h0.1l0.4-0.3l0.5-0.4 M24.2,67.5v0.2l0,0l0,0
		l0.1-0.1l0.1-0.1v-1.4v-0.1l0,0v-0.1l-0.2-0.2h-0.1h-0.5l0,0l-0.1,0.1h0l0,0 M24.3,66.3L24.3,66.3c0.2-0.2,0.2-0.3,0-0.5
		c-0.1-0.2-0.2-0.2-0.4-0.1l0,0.1 M25.2,63.2c-0.3,0-0.5-0.1-0.5-0.3 M22.2,62.1l1.6,0.7 M27.7,62.9L27.7,62.9l-0.2,0l0,0L27.7,62.9
		l0,0.1l0,0.1h0l0,0v0.1l0,0v0.2l0.1-0.1v-0.2L27.9,63L27.7,62.9L27.7,62.9z M27.5,63h-0.5v0h0l0,0l-0.1,0.1H27l0.1,0h0.2l0.1,0h0v0
		h0c0.1,0.1,0.1,0.3,0.1,0.6l0,1l0,0.2l-0.1,0.1l-0.1,0.1l0.3-0.3l0.1-0.1l0-0.2l0-1.2 M27,63.4l-0.1,0.1h0l0.2,0.1l0.1,0.1l0,0.1
		V64l0,0l0.2-0.1l0,0v-0.1l0-0.1l0-0.1l-0.1-0.1L27,63.4L27,63.4z M26.8,63.5c-0.1,0-0.1,0.1-0.1,0.3l0,0.1l0.1,0.1l0.1,0h0.1l0,0
		 M26.8,63.1c-0.2-0.3-0.4-0.2-0.6,0.2c-0.1,0.2-0.1,0.3-0.1,0.4c0,0.1,0.1,0.1,0.2,0.2l0.2-0.3c0-0.1,0.1-0.2,0.1-0.3L26.8,63.1
		 M23.7,65.5l3.7-0.2 M26.1,63.7c-0.3,0-0.4,0-0.4-0.3 M16.3,65.7L13.4,64 M23.5,66.3L23.5,66.3c-0.1,0-0.2,0-0.2,0l0,0
		c0,0,0,0.1,0,0.2c0.1,0.2,0.2,0.3,0.3,0.3c0.1,0,0.2,0,0.2-0.1c0,0,0-0.1,0-0.2l0-0.1L23.5,66.3z M23.2,66.3l0.1-0.1l0.1,0
		c0.3,0.1,0.4,0.2,0.3,0.5l-0.1,0.1 M24.1,67.8L23.8,68l0.2-0.1L24.1,67.8z M18.1,67.4c0.1,0,0.2,0.1,0.4,0.2
		c0.1,0.1,0.2,0.3,0.2,0.4l0.2,1.3l1.4-1l3.3-0.1l0.1,0 M24.1,67.8l-3.7-0.1l0,0h0l0,0v-0.1l0,0v0h0l0,0 M17.6,66.9l0-0.3l0,0h-0.2
		l0,0v0L17,66.3c-0.1-0.1-0.1-0.1-0.1-0.2 M16.9,66.3L16.9,66.3L16.9,66.3C16.8,66.4,16.9,66.4,16.9,66.3L16.9,66.3z M16.8,66.4
		L16.8,66.4l0.1,0.1L16.8,66.4L16.8,66.4 M16.9,66.4C16.9,66.4,16.9,66.5,16.9,66.4c0.1,0.1,0.1,0.2,0,0.2l0.6,0.3 M17.5,65.8
		l-0.1,0.1c-0.1,0.1-0.1,0.2-0.2,0.3l0,0v0.2c0,0,0.1,0.1,0.1,0.1h0.1 M17.3,66.5c0-0.1-0.1-0.1,0-0.3l0-0.1L17,65.9 M15.7,66.9h0.2
		v0c0,0,0-0.1,0-0.1v-0.1l0.1-0.1v0l0,0h0v-0.1h0.1v0l0,0h0l0,0c0-0.2-0.1-0.3-0.2-0.3c0,0,0,0,0,0 M16.3,66.3l0.2,0.1h0.1
		c0,0,0.1,0,0.1,0h0l0.1,0l-0.2-0.1h-0.2l0,0 M16.5,66.4l-0.1,0.3L16.5,66.4C16.5,66.5,16.5,66.5,16.5,66.4h0.1l0.1,0 M16.8,66.4
		L16.8,66.4c-0.1,0-0.1,0-0.1,0 M16.9,66.6L16.9,66.6l-0.1,0l0,0h0c-0.2,0.2-0.3,0.4-0.2,0.6l0.1,0l0.5,0.3 M15.9,66.9
		c0,0.1,0,0.1,0,0.1v0.1h0v0l0.3,0.1v-0.1v0l0,0l0-0.1L15.9,66.9 M16.3,67.2L16.3,67.2V67v-0.1l0.1-0.2L16.2,67 M17.3,66.6h0.1
		 M16.9,66.6L16.9,66.6 M16.9,68L16.9,68L16.9,68L16.9,68z M17.1,67.9L16.9,68l0.8-0.4c0.3,0,0.5,0.1,0.7,0.3l0.2,0.3l0.3,1.9
		c0,0.1,0,0.3-0.1,0.3l0.1-0.1l0.1-0.1l0-0.1v-0.1l-0.1-0.6 M16.3,67.2L16.3,67.2l0.2,0.1h0l0,0h0c0,0-0.1,0-0.1,0 M16.4,67.3
		L16.4,67.3c0,0,0,0,0.1,0 M16.8,68.1L16.8,68.1l-0.1,0.2v0.1l0.1,0.3c0-0.1,0-0.1,0-0.2l0.1-0.1l0.1,0H17l0,0l0.1,0l0,0.1v0.2
		l-0.1,0.1c-0.1,0.1-0.2,0.1-0.2,0l1.1,1.3c0.2,0.2,0.3,0.3,0.6,0.3c0.1,0,0.2-0.1,0.2-0.1 M17.1,68.8L17.1,68.8l0-0.1l0,0l0-0.1
		l0,0l-0.1,0h-0.1 M17.7,68L17.7,68l0,0.1l0,0.1l0,0l0.1,0H18l0.1-0.1v-0.1l0-0.1l-0.1-0.1h0l-0.1,0L17.7,68L17.7,68z M17.7,67.9
		L17.7,67.9L17.7,67.9l0.1-0.1l0-0.1l0,0l0.2,0.1l0.1,0.2l0,0v0l-0.1,0.1 M18.4,69.8h-0.1l-0.1,0.1l0,0h0l0.1,0l0,0l0.1,0.1l0,0
		l0,0.1l0,0l0.1-0.1l0,0v-0.1l-0.1-0.2L18.4,69.8L18.4,69.8z M18.1,69.9L18.1,69.9l0,0.2l0.1,0.1h0.1l0,0l0,0 M16.8,68.8l-0.1-0.1
		C16.7,68.7,16.8,68.8,16.8,68.8C16.8,68.8,16.8,68.8,16.8,68.8z M15.3,66.5l-2.9-1.6 M22.4,60.6L22.4,60.6 M17.5,65.2L17.5,65.2
		 M16.9,66.4L16.9,66.4 M17.3,66.5L17.3,66.5"/>
	<path id="Layer1_2_MEMBER_6_1_STROKES" class="st0" d="M45.9,24.1l0.7,0.4 M45.9,23.8l0.7,0.4 M46.1,25.6l0.7,0.4 M43.1,22.3l1.7,1
		l0.1,0l0,0.1v0.2l0.2,0.1 M41.4,22.3l0.3,0.2 M44.5,24.1l0.2,0.1l0.6,0.3 M44.7,24.3c-0.2,0.1-0.3,0.1-0.4,0.1l0,0l-1-0.6
		 M44.3,24.3C44.3,24.3,44.3,24.3,44.3,24.3c-0.1-0.3-0.1-0.5,0-0.7l0.1-0.2l0.3-0.2l0.1,0 M44.3,41.4c0.3,0.3,0.5,0.2,0.6-0.1
		 M44.2,41.2l0.2,0.2 M43.9,40.8l0.2,0.4 M43.9,40.7l0,0.1 M43.9,40.7l-0.6-0.4 M43.3,40l0.7,0.4l0,0.2l0,0.1 M44.8,23.5l0.2,0.1
		 M50.9,51.6L50.9,51.6l-0.1,0.2l0,0l0.1,0l0,0h0.2v-0.2l-0.1,0l0,0L50.9,51.6L50.9,51.6z M12.3,35L12,34.7 M13.4,35.9l0.2-0.1
		 M14.3,43.9l0.5,0.3c0.1,0,0.2,0.2,0.3,0.5 M14.7,46.9l0.2,0.1 M11.5,61.8L11.5,61.8l-0.1,0.1c0,0-0.1,0-0.1,0l-0.1-0.1l-0.1,0
		v-0.1l0-0.1v-0.1l0.1-0.1h0l0,0l0.1,0L11.5,61.8c-0.1,0-0.1,0.1-0.1,0.1 M9.8,61.4l-0.7,0.4l0.1,0.5l0.4,0l0.7-0.5
		c0.2,0.1,0.3,0.2,0.3,0.3l0,0.1l0,0v0l-0.1,0.1v0h0l0.4,0.1l0.3,0.2 M10.1,63l-0.1-0.2l-0.4-0.4 M10.5,62.4l-0.5,0.3 M9.1,61.8
		L8,61.5l-0.1,0.1L8.2,63l0,0.1v0l0,0.1l0.1,0l0,0h0l0.4,0.1l0.3-0.2v-0.2l0-0.1v0l-0.1,0l-0.1-0.1h0l-0.2,0.1 M8,61.5l0.6-0.4
		 M9.9,63.4L9.9,63.4c0,0-0.1,0-0.2,0.1c-0.1,0.1-0.1,0.2,0,0.3v0L9.7,64l-0.2,0c-0.2-0.1-0.3-0.2-0.1-0.4c0-0.1,0.1-0.1,0.2-0.2
		c0.1,0,0.1,0,0.2,0L9.9,63.4z M9.9,63.4l-0.3,0 M9.2,62.3l0.2,0.8v0.3h0v0h0l0,0h0l-0.3-0.1 M15.2,61.9c0-0.3-0.1-0.4-0.3-0.4
		c-0.1,0-0.1,0-0.2,0.1L14.7,62c-0.1,0.1-0.2,0.2-0.3,0.2c0,0.1-0.1,0.2-0.1,0.2c0,0.2,0.2,0.2,0.5,0.1 M14.8,61.7
		c-0.1,0.1-0.1,0.2-0.2,0.3c-0.1,0.1-0.1,0.2-0.2,0.3 M14.3,62.5l-0.4-0.4l0.1-0.4l0.1-0.2l0.1-0.1 M17.8,62.9L16.4,62h-0.1l-0.1,0
		l0,0l0,0.1v0.1l0,0l1.4,0.9 M14.7,61.3l0.3,0.3 M12,61.3l0.6-0.3 M11.8,61.9l0-0.2 M12.6,62.2l-0.2,0.2 M12.8,62.7
		c0.2-0.2,0.3-0.3,0.4-0.4l-0.8-0.6l0,0h0l0,0h0l0,0 M13.8,62.7l-0.6-0.4 M20.9,61.1L20.7,62v0.3l-0.2,0.5 M20,63.7v-0.2l0-0.1
		l0-0.1l-0.1-0.1 M20.6,63l0.2-0.5 M25.3,61.5v-0.1h0v0l0-0.1v0l0.1,0v0l0-0.1v0h0l0,0h0.2l0.1,0c0.2,0.1,0.6,0.6,1.3,1.7l0-0.4
		c-0.6-0.9-0.9-1.5-1-1.7v-0.1l0,0h0v0l0.1,0H27c0.2,0,0.5,0,0.8,0.1c0.1,0.1,0.2,0.1,0.3,0.2v0.1l0,0.1v0.2l0,0.1v0.2l0.7,0.3
		l-0.3,3l0.5,0l-0.3,3.7c0.6,0.3,1.1,0.4,1.3,0.4c0.4,0,0.7,0,0.8-0.1c0.1,0,0.1-0.1,0.1-0.1c0-0.2,0-0.4-0.1-0.4l-1.2-1.9
		 M21.8,63.2V63 M24.7,63.5L24.7,63.5L24.7,63.5l-0.9-0.4 M24.7,63.5L24.7,63.5L24.7,63.5l0.1-0.1v-0.1l-0.9-0.4 M22,64.3l1.5,0.6
		v-0.1L22,64 M24.2,65.1c0.3-0.2,0.2-0.6-0.2-1.1c-0.4-0.5-0.8-0.6-1.1-0.4 M21.5,63.3l0.1-0.4 M24.6,61.7c0.2-1.1,0.5-1.9,1.1-2.2
		c0.1-0.1,0.3-0.1,0.4-0.2c0.8-0.4,1.7-0.3,2.8,0.4c0.5,0.3,0.9,0.6,1.3,1l-0.1-0.8c0-0.2,0-0.3,0-0.4L29.3,59l-0.1,0h-0.2l-14-9.4
		 M30.8,59.1c-0.1-0.1-0.3-0.1-0.4,0l-0.1,0.1c0.1,0,0.2,0,0.3,0.1c0.4,0.2,0.6,0.5,0.7,1l0.2-0.1l0-0.3l-0.2-0.5
		C31.1,59.2,30.9,59.1,30.8,59.1z M32,59.4l-0.1-0.3l-0.1-0.1l-0.2-0.2c-0.2-0.2-0.4-0.2-0.6-0.1l-0.1,0.1c0.2-0.1,0.4,0,0.7,0.4
		c0.3,0.3,0.3,0.6,0.3,0.9l0.2-0.2h0.1l0.2,0.1l0.1,0.1v0.2l0,0l-0.2,0.2l0.3,1.8v0.1h0.3l0.3-3.2l-0.8-0.4l-0.3-0.1l0,0.4 M29.3,59
		c-0.1-0.1-0.1-0.3,0-0.6l0.1-0.1l0.1,0h0.1l0,0l1,0.6l0.1-0.1 M30.6,59.7c-0.1,0-0.2,0.1-0.1,0.3c0,0.2,0.1,0.3,0.3,0.4
		c0.1,0,0.2-0.1,0.1-0.4C30.8,59.8,30.7,59.7,30.6,59.7z M31.9,58.7l0.3-0.3v0.4 M33,59.1l0.3-0.3l-0.3,3.4h0.2l-0.2,1.4l-0.3,0.2
		L32.7,64l0.4,0.6l0,0l-0.2,2.7l0,0.2l0.1,0.1l0.1,0.1l0,0.2v0.2L33,68.4l-0.3,0.2l0,0l0,0.7l0,0.2l0.2,0.3l0.1,0.2l0,0.2l-0.4,0.4
		l0,0v0.1L32.2,71v0l-0.1,0.1H32l0,0l0,0l0,0.3l0,0.4l-0.1,0h0l0,0l-0.1,0h-0.2c-0.3-0.2-0.4-0.3-0.4-0.3l0-0.4l0.1-0.6l-2.4-1.2
		l0,0.2l0,0.2l0.2,0.3l0,0.2v0.2l-0.1,0.1l-0.3,0.2l0,0l0,0.8l0,0.1l0.1,0.2l0.1,0.1l0.1,0.2v0.2l-0.1,0.1l-0.3,0.3l0,0 M28.3,72.9
		L28,73.2l-0.1,0.1l-0.1,0h0h0l-0.1,0.7c0,0.2-0.2,0.2-0.4,0.2c-0.3-0.1-0.4-0.2-0.4-0.3l0-0.4l0.1-0.6l-7.6-3.9 M26.2,59.3
		c0.4-0.1,1,0,1.6,0.2c1.6,0.7,2.8,1.9,3.5,3.6c0.9,1.4,1.2,2.9,0.8,4.6c-0.1,0.6-0.3,1-0.6,1.3c0.2-0.1,0.3-0.3,0.4-0.4
		c0.2-0.3,0.4-0.6,0.5-0.9c0.1-0.4,0.2-0.9,0.1-1.5c0-0.1,0-0.3,0-0.4c-0.1-1-0.4-1.9-0.7-2.7c-0.1-0.2-0.2-0.3-0.3-0.4
		c-0.1-0.1-0.2-0.3-0.3-0.4c-0.1-0.3-0.3-0.5-0.5-0.8c-0.1-0.2-0.2-0.3-0.4-0.5c-0.1-0.1-0.1-0.1-0.2-0.2 M29.7,58L29.7,58l-0.1,0
		h-0.1L29.3,58c-0.3,0.4-0.4,0.8-0.2,1 M30.3,59.2c-0.1,0-0.2,0.1-0.2,0.3 M28.8,61.5l-0.3,0.3l-0.2,2.7h0.3 M27.3,62.2l0.1-0.8
		l0.3-0.2l0.4,0.2 M27.6,62.9l0.2-1.8 M26.3,64.2l0.2-0.2 M31.2,66.8l-1.1-1.6L30,64.9v0l0,0v0l0,0v-0.1c0-0.1,0-0.2,0-0.3l-0.2,0.1
		c-0.1,0.1-0.2,0.2-0.2,0.4v0.1l0.1,0.1v0.1h0v0c0.7,1.1,1.1,1.8,1.5,2.1l0.1,0l0,0h0.2v0h0v0h0v-0.1l0-0.1v-0.2
		c0.1-0.2,0-0.7,0-1.4l-0.2-0.9C31.3,64.2,31.2,64,31,64v0h0l0,0h-0.3l-0.7,0.4 M27.6,65.1h0.6l0,0h0.1l0,0h0v0l0.6-0.5 M27.3,62.6
		l0,0.4 M28.3,64.5l-0.4,0 M30.8,61.4l0.5-0.4l0.8-0.6 M31.8,63.1l0.4-0.3l0.1-0.1l0.1-0.1v-0.2 M32.8,63.9l0-1.2l-0.1,0.1h0v0h-0.1
		l0,0l0,1.3L32.8,63.9 M31.3,61l0.2,1.6 M32.4,64.2L32.4,64.2l0.3,0.7l0.3-0.2 M33.1,62.3h-0.3 M33.2,62.3l-0.5,0.4 M31.8,60
		l-0.3,0.2 M30.4,59.1l0.3-0.2 M31.3,60.3l-0.9,0.6 M15.9,48.8l13.7,9.2 M32.7,68.7l0-0.1v-0.2l0-0.2l-0.2-0.3l-0.1-0.2 M32.4,68.2
		L32.4,68.2l0,0.1l0.1,0.1h0.1l0,0v0l0,0v0l0,0H32.4L32.4,68.2L32.4,68.2z M32.7,68.7l-0.3,0.1l0,0.1l0,0.7v0.1l0,0.2l0.1,0.1
		l0.2,0.4v0.2l-0.1,0.1 M31.9,71.3L31.9,71.3L31.9,71.3l-0.2,0.2h-0.1c-0.2,0-0.3-0.1-0.5-0.2v-0.1 M31.1,70.6l0.6,0.3l0.2-0.9
		 M32.4,70.4L32.4,70.4L32.4,70.4l-0.1-0.1h-0.1l0,0v0l0,0.1l0.1,0v0h0L32.4,70.4L32.4,70.4z M32.5,70.7l-0.2,0.1l-0.1,0.1v0
		 M31.9,71l-0.2-0.1 M31.9,69.2l0-0.7 M26.9,72.2l0.4-5.4l0,0l-0.1-0.2l-0.1-0.2L27,66.2l-0.2-0.1l-0.2,0h0l-2.2,0.7 M27.8,68.9
		L27.8,68.9l-0.2-0.2h-0.1l0,0V69l0,0.1l0.1,0l0,0h0.1l0.1,0V68.9z M27.7,71.4l0-0.7 M30.8,68.4c-0.1,0.1-0.2,0.2-0.4,0.3l-0.1,0h0
		l-0.1,0h-0.7l0,0 M28.7,65.5l-0.4,4.2v0.1l0,0.2l0.2,0.3l0,0.2v0.2l-0.1,0.1 M28.7,69.4l0-0.3l0.1-1 M28.2,70.5L28.2,70.5
		L28.2,70.5l0.1,0.1h0.1v-0.1l0-0.1l0,0h-0.1V70.5z M28.5,70.8L28.3,71l0,0.1l0,0.6v0.1l0,0.2l0.2,0.3l0,0.2v0.2l-0.1,0.1
		 M28.2,72.5L28.2,72.5L28.2,72.5l-0.1-0.1c-0.1,0.1-0.1,0.1,0,0.2c0,0,0,0.1,0.1,0.1h0l0,0L28.2,72.5L28.2,72.5z M27,72.8l0.5,0.3
		l0.1-1 M28.3,72.9L28.1,73l0,0.1v0 M27.8,73.2l-0.3-0.1 M26.9,73.4c0,0.1,0.1,0.2,0.3,0.3 M31.5,69c-0.6,0.7-1.5,0.7-2.8,0.1
		 M20.2,69l5.8,3 M32.7,64.9l-0.1,1.2 M27.9,70.1l0.4-4.6 M24.7,63.5L24.7,63.5 M28.3,72.9L28.3,72.9"/>
	<path id="Layer1_2_MEMBER_7_1_STROKES" class="st0" d="M84,46.8L84,46.8l0,0.1l0.1,0h0.1l0.1,0l0,0l0,0L84,46.8L84,46.8z
		 M82.4,48.5l1.7-0.4l0.3-0.1l0.1-0.1l0.1-0.1v-0.6l0.6-0.4l0.1-0.2l0-0.1l-2.4-2l-1.5-0.8h-0.5l-1.2,0.7l-0.1,0.1l0,0.1l0.2,0.3h0
		L80,45l0.5,0.3l0.7,0.4l0.1,0l2.6,1.5 M81,44L81,44v0.1l0.1,0l0.1,0l0,0V44l0,0L81,44L81,44z M80.2,44.5L80,44.6l0.2,0.1h0.1l0-0.1
		v0L80.2,44.5L80.2,44.5z M81.3,47.2l0,0.2 M81.3,47.2v0.1l0,0l0.1,0.2c0,0,0.1,0.1,0.2,0.3c0,0.1,0.1,0.1,0.1,0.2l0.1,0.3v0.3
		l0,0.2L81.6,49l2.5-0.9 M81.2,45.7V47l0,0.2l0-0.1V47V45.7 M80.8,46.3l-0.3-1 M79.7,44.8l0.4,1.3L80,45 M73.8,48.1L73.8,48.1l0,0.1
		H74l0,0l0-0.1H73.8L73.8,48.1z M73.5,47.9l-1.3,0.8l-0.1,0.1v0.1l0.1,0.1l0.6,0.3l0.8,0.5l0.1,0l0.5,0.2l0.1,0l2.8,1.2l0,0l0.2,0
		h0.2l0.1-0.1l0.4-0.2l0.3-0.2l0.1-0.1v-0.1l-0.1-0.1l-4.3-2.5l-0.3,0L73.5,47.9z M78,50.5L78,50.5l-0.2,0l0,0v0l0.1,0L78,50.5
		L78,50.5L78,50.5z M72.8,49.3l0.1,0.4l0.5,1.2l0.2,0.2l0.1,0h0l0,0l0.1,0l0.1-0.1l0-0.1v0l-0.2-0.2l-0.1-0.3l-0.2-0.6 M74.3,51.1
		l0,0.1L74.3,51.1L74.3,51.1z M74,51.2L74,51.2l0.1-0.1l0,0v-0.1 M74.2,50v0.9 M74.3,50V51 M74.3,51.2l0,0.2l0.1,0.2l0.2,0.2
		l0.1,0.2l0.1,0.3l0.4,0.2h0.1l1.6-0.6c0.3-0.2,0.3-0.4,0-0.7 M72.9,49.7l0,0.2l0.2,0.8l0,0l0.2,0.6l0,0.2l0.1,0.2l0,0.3l0,0.2
		l0.1,0.3l0.2,0.2l0.1,0.2l0.4,0.2l0.2,0l0.1-0.1l0.1-0.2v-0.4 M74.4,51.4L74.4,51.4l0-0.2 M74.1,51.7L74.1,51.7l-0.2,0l0,0.1v0.1
		l0,0.2l0.1,0.2c0,0.1,0.1,0.1,0.2,0.2c0.1,0,0.1,0.1,0.2,0.1c0,0,0.1,0,0.1,0c0.1,0,0.1-0.1,0.1-0.3l0-0.2l-0.3-0.4L74.1,51.7z
		 M74.5,51.8l0.1,0.2l0.1,0.4c-0.1,0.4-0.2,0.5-0.5,0.2c0,0-0.1-0.1-0.1-0.1c-0.2-0.3-0.4-0.5-0.3-0.8l0-0.1l0.1-0.1h0.3l0.1,0.1
		L74.5,51.8z M74.5,52.6L74.5,52.6l0.1-0.1l0-0.1l0-0.2l-0.1-0.2l-0.1-0.1l-0.1-0.1l-0.2-0.1H74l-0.1,0l0,0.1v0 M73.4,51.5l0.1,0.5
		 M74,52.3l0.1,0.2l0.2,0.1h0.1 M73.8,51.9c0,0.1,0,0.3,0.1,0.4 M74.6,53l0.2-0.1l0.6-0.2l2.1-0.8l0.1-0.2l0-0.2v-0.4 M74.8,52.9
		l0.3,0.1l0.2-0.1l0.1-0.1v0 M74.8,52l-0.3-0.4 M77.6,51.9l0.3-0.2l0.1,0l0.1-0.3v-0.4 M68.7,47.7l-0.1-0.5l-0.1-0.3l0-0.1v-0.1h0
		l0-0.2l-0.6-0.3v0.3h0v0.1L67.8,47v0.2c0,0.3,0.1,0.6,0.3,0.8h0l0,0l0,0.1h0.1l0.1,0h0.2l0,0l0-0.1l0,0V47.7z M68.7,47.9l0-0.2
		l-0.1-0.3l0-0.2l-0.1-0.3l-0.2-0.2l0,0h0v0L68,46.9v0l0,0.1l0,0.3v0.3l0,0v0.1l0.1,0.1l0,0.1l0.3,0.1h0l0.1,0l0,0v0L68.7,47.9
		L68.7,47.9z M68.4,46.5L68.4,46.5l-0.1-0.2l0-0.1v-0.4 M68,45.6l0,0.4l0,0.1v0l-0.1,0 M68.4,47.4l0.1,0.4L68.4,48l-0.3-0.1L68,47.5
		l0.1-0.2L68.4,47.4z M71.9,50.9l-3.7-2.6c-0.2-0.1-0.3-0.3-0.4-0.6c-0.1-0.3-0.1-0.5,0-0.7 M72.9,48.7L72.9,48.7l-0.2,0.1l0.1,0.1
		l0.1,0l0.1-0.1l0,0L72.9,48.7z M73,49.9l-0.9-0.5h-0.3l-0.1,0.2l0,0.7l0,0.3l0.3,0.3 M72,50.9l1.6,1.2 M72.2,50.5l0.2-0.2l-0.2-0.4
		l-0.2-0.1L71.8,50l0.1,0.3L72.2,50.5z M73.2,51.2l0.2,0.1 M73,50.9l0.1,0.3 M73,50.9l0.1-0.2 M73.2,50.7L73,50.9 M72.1,49.4
		l-3.5-2.2 M14.7,44.8c0,0.2,0,0.3-0.1,0.2c-0.1,0-0.2-0.1-0.2-0.2c0-0.2,0-0.2,0.1-0.2C14.6,44.6,14.7,44.6,14.7,44.8z M10.4,43.9
		l1.1,0.7c0,0,0,0,0,0c0,0,0,0,0,0c-0.1-0.2-0.1-0.4,0-0.6c0.1-0.2,0.2-0.3,0.3-0.4c0,0,0.1,0,0.1,0c0.1,0,0.1,0,0.1,0l-1.8-1
		 M12,43.4c0.1,0,0.1,0.2,0.1,0.4l0.2,0.1 M12.1,43.8l-0.3-0.4 M13,43.9l0.7,0.4 M13.1,44.3l0.7,0.4 M11.5,44.5
		c0.1,0.1,0.2,0.1,0.4-0.1l0.6,0.3 M14.9,46.5L14.9,46.5l0,0.2l0,0v0h-0.1l-0.1-0.1l0-0.1c-0.1-0.2-0.1-0.2,0.1-0.2L14.9,46.5
		L14.9,46.5z M15,47.1l0.2-0.1l-0.1-2.2 M13.3,45.7l0.7,0.4 M8.5,42.5l0.3,0.2 M71.9,50.9L71.9,50.9"/>
	<path id="Layer1_2_MEMBER_8_1_STROKES" class="st0" d="M45.9,7.1l3.9-2.4 M45.9,7.1L45.9,7.1l0.2,0.1l0.2,0.1l4.1-2.4l-0.1,0h-0.1
		l-0.2-0.2l-0.2,0.1l0-0.1l0.1-0.1l0.5-0.3l0.2,0l0.2,0.1L51,4.5l0.2,0.2L51.4,5l0.1,0.2l1.4,6.4v0.3l-0.1,0.2l-0.1,0.1l-0.2,0.1
		c-0.1,0.2-0.4,0.2-0.8,0l-3.5,2v0.3l-0.1,0.2L48,15l-0.2,0.1c-0.1,0.1-0.2,0.1-0.4,0.1c-0.3,0-0.6-0.1-0.9-0.3 M47.8,15.1
		c0.1-0.1,0.1-0.3,0.1-0.5l-1.4-6.3c-0.2-0.5-0.5-0.8-0.9-0.9c-0.1,0-0.2-0.1-0.3,0l0,0c-0.1,0.1-0.2,0.2-0.1,0.5 M45.2,7.3l0.3-0.2
		l0.2,0h0.1 M46.3,7.3l0.2,0.2l0.1,0.1l4.1-2.5L50.6,5l-0.2-0.1l-0.1,0 M49.9,4.5l0.2-0.1l0.2,0l0.2,0.1l0.2,0.2l0.2,0.1l0.2,0.5
		l1.4,6.4c0,0.2,0,0.4-0.1,0.5 M46.6,7.7l0.1,0.1l0.1,0.2v0l4-2.4l0,0l0-0.1l-0.1-0.4 M50.8,5.7l0.9,4.7l0.3,0.5l0.3,0.5l0,0.2v0.2
		l-0.7,0.4 M47.8,12.7l3.9-2.3 M47.8,12.7l0.1,0.6l4-2.4 M46.8,8.1l1,4.6 M52.3,11.4l-4.2,2.4l0.1,0.5 M48,13.3l0.1,0.5 M74.5,42.4
		L74.5,42.4l-0.2,0.2v0.2l0,0.2c0.1,0.4,0.3,0.6,0.5,0.6l0,0l-0.1-0.2L74.5,43v-0.4V42.4L74.5,42.4z M74.9,43.7
		C74.9,43.7,74.9,43.7,74.9,43.7c0.2,0,0.3,0,0.4-0.1c0-0.1,0-0.3-0.1-0.5l-0.1-0.2l-0.1-0.2l-0.1-0.1l-0.1,0h-0.1l0,0l0.1-0.1
		l-0.1,0l-0.2,0.1 M75.6,42.1c0.2,0.1,0.3,0.3,0.3,0.4l5.2,4.4l0,0l-0.3-0.6 M84.9,47.7l-0.3,0.2 M74.9,43.7L74.9,43.7l3.2,3.2
		l-0.2-0.3v-0.3l0.1-0.7l0.1-0.2l0.2,0l-3.4-2.5 M78.5,45.3L78.5,45.3l2.4,1.8c0.5,0.7,0.7,1.3,0.6,1.8l-0.1,0.2l-0.1,0.2l0.2-0.2
		l0.1-0.1l0.1-0.2c0-0.7-0.2-1.3-0.6-1.9 M79.5,47.5l0.2-0.1L79.6,47l-0.2-0.2L79.2,47l0.1,0.4L79.5,47.5z M78.4,46.5l-0.2-0.2
		l-0.1-0.4l0.2-0.1l0.2,0.2l0.1,0.3 M78.4,50.3l1.9-1.1l0.7-0.4l0-0.1l0-0.1L81,48.2c-0.3-0.3-0.5-0.3-0.6-0.3l-0.8,0.4l-2.2,1.3
		 M74.7,42.8L74.7,42.8L74.7,42.8L74.6,43l0,0.1l0,0.1l0.1,0.1h0.1l0.1-0.2l0-0.1l0-0.1L74.7,42.8L74.7,42.8z M75,43.8V44l0,0l0,0.1
		 M74.9,44.1l-0.8,0.8v0h-0.3l-1,1 M75.3,43.5L75.3,43.5 M73.9,43.2c0,0.3,0.1,0.4,0.3,0.6c0.1,0.1,0.3,0.2,0.4,0.2l-0.4-0.3
		l-0.2-0.3l0-0.4C74,43.1,74,43.2,73.9,43.2L73.9,43.2z M73.9,43.2l0,0.4l0.1,0.1l0.2,0.1l0.1,0.1l0.1,0.1l0.2,0h0 M74.8,44L74.8,44
		 M74.9,44.1L74.9,44.1 M73.9,43.6L73.9,43.6l-0.7,0.7v0l0.1,0.1v0h0v0l0.1,0.1h0l0.1,0.1h0v0l0,0h0l0,0l0.7-0.8 M73.8,44.9
		L73.8,44.9 M81.1,49.4l-0.2,0l-0.2,0l-0.2-0.1l-0.2-0.1 M79.6,48.4l-1.5-1.6 M73.9,43.2l-0.8,0.7v0h0v0.3v0l0,0 M73.1,44.2
		l-0.7,0.7 M68.9,47l4.4,2.7 M68.9,47L68.9,47L68.8,47l0.1-0.3v-0.2l0-0.2l-0.1-0.1l0-0.1v-0.1l0-0.3h0v0h-0.3l0,0l0,0H68h0v0h-0.1
		v0h-0.1v-0.1h0v0l0,0l0-0.9l0,0v-0.1l0.1-0.1v0l-0.1,0.1v0l0,0.1c0,0,0.2,0.1,0.4,0.1h0.1h0.1l0.1,0h0.1l0.1,0l0,0
		c0,0,0.1-0.1,0.1-0.1c0,0,0-0.1-0.1-0.2l-0.1,0h0l0,0l0.1,0.1v0l0,0l0,1h0v0h0v0l0,0h0l0,0l0-0.9h-0.2 M68.7,44.5l0.1-0.1
		 M68.9,46.7L68.9,46.7l0.1,0.4 M67.5,39.8l0.2,3.2h0l0,0v0.3l0,0v0l0,0.1h0v0.3l0,0V44l0,0.1l0,0v0.2l0,0l0.1,0.1h0.1l0.1,0l0.1,0
		l0.1,0l0.1,0l0-0.1l0,0l0-0.2v0l0,0v-0.1l0-0.1l0,0v-0.2h0l0,0l-0.3-3.9 M68.6,44.6L68.6,44.6 M67.7,44.5L67.7,44.5l0.2,0.2h0.1
		l0.2,0 M68,45.6l-0.1-0.9 M53.7,53l0.9,0.5 M58.1,77.4l-0.3,0.1l-0.2,0.3l-0.1,0.4l0.1,1l0.3,0.5l0.1,0.2l0.2,0.2l0.4,0.4l0.4,0.2
		l0.4,0l0.1,0l0.3-0.1l0.2-0.2l0,0l0.1-0.4v-0.5l-0.1-0.5l-0.2-0.5L59.3,78l-0.8-0.6L58.1,77.4z M58.1,77.4c0.6-0.7,1.3-0.4,2,0.8
		c0.7,1.2,0.7,2-0.2,2.2 M59.9,82.6c-0.4-1-1-1.5-1.8-1.6l-0.3,0.1l-0.2,0.2l-0.1,0.4l0.1,1c0.5,1,1.1,1.5,1.8,1.6l0.3-0.1l0.2-0.2
		l0.1-0.4v-0.4L59.9,82.6z M58.4,78.7v0.1l0,0.2l0.2,0.3l0.1,0.1l0.2,0.1l0.1,0l0.1-0.1c0.1-0.2,0-0.4-0.2-0.7l-0.1-0.1l-0.1,0
		l-0.1,0l-0.1,0L58.4,78.7z M59.1,83c0.1-0.2,0-0.5-0.2-0.7c-0.3-0.2-0.4-0.2-0.5,0c-0.1,0.2,0,0.4,0.2,0.7
		C58.9,83.2,59.1,83.2,59.1,83z M30.3,69.5l28.4,11.4l8.4,4.8 M67.2,85.2l-7.7-4.5 M13.3,27.3l4-2.4 M13.3,27.3L13.3,27.3l0.2,0.2
		l0.1,0.1l4.1-2.4L17.6,25l-0.1-0.1l-0.1,0l0,0h-0.1l0,0L17,24.7l-0.2,0.1l-3.8,2.3L13.3,27.3z M16.7,24.8c0.1-0.2,0.2-0.4,0.3-0.4
		l0.2-0.1c0.3-0.1,0.5,0,0.8,0.2c0.2,0.2,0.4,0.5,0.5,0.7l1.4,6.4v0.3L19.8,32l-0.1,0.1l-0.1,0.1c-0.1,0.2-0.4,0.2-0.9,0l-3.5,2.1
		l0,0.1l-0.1,0.5L15,35l-0.3,0.2l0,0c-0.1,0-0.1,0-0.2,0c-0.3,0-0.6-0.1-0.8-0.4 M19.6,32.3c0.1-0.1,0.1-0.3,0-0.5l-1.4-6.4
		l-0.1-0.2l-0.4-0.5l-0.2-0.1c-0.2-0.1-0.3-0.2-0.4-0.1 M13.8,28.1l3.9-2.4 M13.8,28.1l1,4.6l3.9-2.3l-0.9-4.7l-0.1,0 M17.8,25.7
		L17.8,25.7v-0.3l-0.1-0.2 M19.2,31.2L19,30.9l-4,2.4l0.1,0.6l4.2-2.5l0,0.2v0.2l-0.7,0.4 M19,30.9l-0.3-0.5 M12.1,27.8l0-0.2
		l0.2-0.3l0.3-0.2l0.1,0l0.2,0 M12.2,27.3l0.1,0l0.2,0c0.3,0.1,0.6,0.4,0.9,0.9l1.4,6.4c0,0.3,0,0.5-0.2,0.6 M13.6,27.7l0.1,0.1
		l0.1,0.2v0 M15,33.3l-0.1-0.6 M15.1,33.9l0.1,0.4 M15,56.5l0,0.2v0.1h0v0h0v0h0v0h0.1l0-0.2l-0.1-0.1l0,0L15,56.5L15,56.5z
		 M15,56.5c0-0.1,0.1-0.2,0.2-0.3C15.1,56.3,15,56.4,15,56.5l0.1,0 M16,56.1L16,56.1L15.8,56C15.9,56.1,15.9,56.1,16,56.1z M16,56.1
		L16,56.1l0,0.2v0l0,0l0,0l0,0.1l0,0.3l0.1,0.2v0l0,0v0.1h0v0l0,0h0v0 M15.9,56.5L15.9,56.5l-0.2,0.1h-0.1l-0.1,0h0.2L15.9,56.5
		 M15.6,56.6h-0.1l-0.1,0 M15.4,56.6h-0.1l-0.1,0 M15.3,56.9h0.5v0h0.1 M16,56.3L16,56.3 M58,79.8l-29-19.5 M50.7,5.2L50.7,5.2
		 M81,47L81,47 M74.9,44.1L74.9,44.1 M74.7,44C74.7,44,74.7,44,74.7,44 M73.7,44.9L73.7,44.9 M67.7,44.5L67.7,44.5"/>
	<path id="Layer1_2_MEMBER_9_1_STROKES" class="st1" d="M81.1,61.5l-0.2,0.3l-0.1,0.4v0.5l0.4,1l0.1,0.2l0.2,0.3l0.4,0.3l0.4,0.2
		l0.4,0l0,0l0.2-0.1l0.2-0.2l0.1-0.4v-0.5l-0.1-0.5L83,62.4L82.6,62l-0.4-0.3l-0.4-0.2l-0.4,0L81.1,61.5z M82.2,62.7l-0.1-0.1
		l-0.1,0l-0.1,0l-0.1,0l0,0.1c0,0.3,0,0.5,0.2,0.7l0.1,0.1l0.1,0l0.1,0l0.1,0l0.1-0.2v-0.1l-0.1-0.3L82.2,62.7z M88.7,68.7l-5.5-3.2
		c0.1,0.1,0.1,0.1,0.2,0.2c0.7,1.2,0.7,1.9-0.2,2.2L83,68.2l-0.3,0.1c-0.8-0.1-1.4-0.7-1.7-1.6l-0.2-0.5v-0.5l0.1-0.4l0.2-0.2
		l0.3-0.1c0.1-0.1,0.2-0.2,0.3-0.3l-19.7-8.1 M83.2,68L83.2,68l0.1-0.4v-0.4l-0.1-0.6L83,66.1l-0.4-0.5l-0.4-0.3l-0.4-0.2l-0.4,0
		 M82,64.9l1.2,0.7c-0.5-0.8-1-1.1-1.5-0.8L82,64.9z M83.3,64.3c0.8-0.2,0.9-0.9,0.1-2.2c-0.7-1.2-1.4-1.5-2-0.8 M67.5,39.7v-0.3h0
		v0l0,0h0l0,0h0l0,0h0l0,0h0v0l0,0h0l0.1,0.1h0.2v0h0v-0.2c-0.1-0.1-0.2-0.1-0.2-0.1 M36.8,52.8l-0.2,0.3 M52.7,44.5l12,8.1
		 M53.1,53l7.9,3.2 M59.9,84c0.8-0.3,0.9-1,0.1-2.2c-0.7-1.2-1.4-1.5-2-0.8 M81.9,67c0.2,0.3,0.4,0.3,0.5,0c0.1-0.2,0-0.4-0.2-0.7
		c-0.2-0.2-0.4-0.2-0.5,0c0,0.2,0,0.3,0,0.4C81.7,66.7,81.8,66.8,81.9,67z M88.6,68.1l-5.8-3.5 M81.4,63.8L65.6,53.2"/>
	<path class="st2" d="M85.1,47.5l0.2-1l-4.2-2.9l-1.5,0.7L80,45l0.1,1.2l-4.8-4.2l-0.8,0.8L74,43.1l-4,4.4L69,47l-0.6-7.7l-0.3-0.1
		l-0.5,0.1l0,0l0.2,8.1l0.9,1.2L57.4,59.6l-2.8-1.7l-1.1-1l3.3-3.4l0.1-0.6l-1.5-1.4l0.1-2.8L55,47.3l-0.6-1.4l-1.1-1.5v-1.5
		l-0.9-0.6l-0.2,1L50,42.7l-1.2,0.4l-1.5,2l-0.1,2.8l-3,1.8l-0.3-0.8l-4,2.4L39.8,52l-3.1,1.2l0.2,0.8l0.4,0.2l2.2-0.6h0.6l7.9,3.6
		l0.8-0.2l-0.7,1l0.2,1.2l2.8-0.8l0.9-0.7l6.2,3.4l0.7-0.7l0.4-1.2l0.9-0.2l9.4-9.7l5.2,3.7l2.8-1l1-1.3l-0.1-0.5l2.6-1.5l0.9,0.1
		l2.5-0.9L85.1,47.5z"/>
	<path id="Layer1_2_MEMBER_10_1_STROKES" class="st3" d="M85.4,46.5l-4.2-2.9l-1.5,0.7L80,45l0.1,1.2l-4.8-4.2l-0.8,0.8L74,43.1
		l-4,4.4L69,47l-0.6-7.7l-0.3-0.1l-0.5,0.1l0,0l0.2,8.1l0.9,1.2L57.4,59.6l-2.8-1.7l-1.1-1l3.3-3.4l0.1-0.6l-1.5-1.4l0.1-2.8
		L55,47.3l-0.6-1.4l-1.1-1.5v-1.5l-0.9-0.6l-0.2,1L50,42.7l-1.2,0.4l-1.5,2l-0.1,2.8l-3,1.8l-0.3-0.8l-4,2.4L39.8,52l-3.1,1.2
		l0.2,0.8l0.4,0.2l2.2-0.6h0.6l7.9,3.6l0.8-0.2l-0.7,1l0.2,1.2l2.8-0.8l0.9-0.7l6.2,3.4l0.7-0.7l0.4-1.2l0.9-0.2l9.4-9.7l5.2,3.7
		l2.8-1l1-1.3l-0.1-0.5l2.6-1.5l0.9,0.1l2.5-0.9l0.7-0.5L85.4,46.5z"/>
</g>
<path class="st4" d="M188.5,156.3l-0.4,0.5l0.6,0.2h0.4l0.7-0.3l0.1-0.1l0.2-0.2l0.2-0.4l2.9-5.4l-1.1,0.1l-3.6,5.4V156.3
	 M287.3,105.8c0.8,0.4,1.6,0.4,2.4,0.2c0.8-0.3,1.4-0.8,1.8-1.7L287.3,105.8 M186.5,151.7c-0.6-0.3-0.9,0.1-1.1,1
	c-0.1,0.8,0.2,1.4,0.8,1.7c0.5,0.3,0.9-0.1,0.9-1.1C187.2,152.6,187,152,186.5,151.7 M253.6,72.4l-1.1,0.8l1.1,3.7l0.1,1.3l-0.2,0.9
	l-0.1,0.1l-0.2,0.6h-0.1l-0.2,0.1l0,0.1h-1l-1-0.4l-0.2-0.2l-0.6-0.4v0l-0.6-0.5l-0.8-1.3l-0.1-0.1c-0.2-0.8-0.3-1.2-0.3-1.4
	c-0.1-0.2-0.1-0.7-0.1-1.4l0.1-0.4l0.1-0.6V73l0.1-0.1l-0.1-0.1c-0.8,0.9-0.9,2.1-0.2,3.8c0.5,1.4,1.3,2.5,2.4,3.3l2.7,1.8l4.7,3.3
	l13.6,9.5h0.1l9.3,7L277,86.2l-12.4-7.4l-4.8-2.9l-4.8-2.9l-0.3-0.2L253.6,72.4 M286.1,100.4l-0.5-0.9l-0.8-0.7l-0.7-0.3h-0.6
	l-0.6,0.3l-0.2,0.7v0.9l0.3,0.9l1.2,1.8l0.8,0.5l0.7,0.2l0.5-0.2l0.5-0.5l0.1-0.8l-0.2-0.9L286.1,100.4 M288,50.4l-0.4-0.6l-0.5-0.4
	l-0.5-0.2l-0.4,0.1l-0.2,0.4v0.7l0.4,0.6l0.4,0.6l0.5,0.3h0.6l0.2-0.2l0-0.6L288,50.4 M251.8,75.3l-1.5-0.9l-0.7,1.2l0.7,1.9
	l1.5,0.8l0.8-1L251.8,75.3 M322.6,72.2C322.6,72.2,322.6,72.2,322.6,72.2c-0.2-0.2-0.3-0.4-0.5-0.5l-5.4-4.1l-5.1-3.9l-18.5-15.6
	c0-0.4-0.2-0.9-0.4-1.7l-0.4-0.6l-0.1-0.4l-0.2-0.2l-0.3-0.2c-0.7-0.7-1.4-1-2-0.9c-0.1,0-0.3,0.1-0.5,0.2l-0.6,0.3l-0.7,0.6
	l-0.5,0.6l-0.1,0.8l-0.6-0.1l-0.1,0.1L286,47c0.1,0,0.1,0,0.2,0c1.6,0.1,2.8,1.2,3.4,3.4c0.3,1.2,0.4,2.1,0.2,2.7
	c0,0.2-0.1,0.3-0.1,0.3c-0.2,0.3-0.5,0.5-1,0.5l-0.2,0.4l17.7,16.9l8.3,8.7l-12.7,7.4l5.9,3.2l10.8-6.4c1.2,1.1,2.3,1.6,3.5,1.5
	c0.4-0.1,0.7-0.2,1-0.4c0.1-0.1,0.2-0.1,0.3-0.1c0.3-0.3,0.6-0.6,0.9-1.1l1.5-1l0.4-0.8C326.3,78.8,325.2,75.4,322.6,72.2z"/>
<path class="st2" d="M258.2,85l-4.7-3.3l-51.3,52.6l-0.9,0.2l-0.8,0.7l-1.4,1.8v0.1l-3.7,3.8c-0.2,0.2-0.2,0.4-0.2,0.6
	c0,0.1,0,0.1,0.1,0.2l-0.8,0.8c-0.3,0.4-0.3,0.8,0.1,1.4l-0.7,0.6l-1.9,0.5h-0.1c-0.1,0.1-0.2,0.1-0.2,0.2l-5.9,3.8l-0.8,0.9
	l-0.6,1.4l0.2,2.9v0.1c0.1,0.3,0.2,0.6,0.3,0.9c0.1,0.5,0.4,0.9,0.8,1.3c0.4,0.4,0.8,0.6,1.2,0.7h0.4l0.3-0.1l0.4-0.1l0.1-0.1
	l0.4-0.5v-0.1l3.6-5.4l1.1-0.1l-2.9,5.4l-0.2,0.4l-0.2,0.2l0.6-0.1l0.5-0.3l0.2-0.2l3.9-7.2l0.1-0.1l0.4-1.6l0.3-0.6l0.4-0.5
	c0.6,0.3,1.1,0.3,1.5-0.1l0.5-0.5c0.5,0.2,0.9,0.1,1.2-0.2l3.4-3.6l0.1-0.1c0.3,0,0.6-0.1,0.9-0.4l1.4-1.4c0.1-0.1,0.1-0.1,0.2-0.2
	L258.2,85 M185.4,152.8c0.1-1,0.5-1.3,1.1-1c0.5,0.3,0.8,0.9,0.7,1.7c-0.1,1-0.4,1.3-0.9,1.1C185.6,154.2,185.4,153.6,185.4,152.8
	 M285.5,47.1c-0.1,0-0.2,0.1-0.4,0.2c-0.7,0.4-0.8,1.4-0.2,3.2l1-0.1l-1.6,0.2h-0.1c-0.2,0-0.3,0-0.5,0.1l-0.8,0.1l-0.5,0.3l0,0.1
	l-3.9,4c-0.5,0.6-0.7,1.2-0.4,1.8l0,0.1l-18.5,18.9l4.8,2.9l17.4-18.1c0.2,0.1,0.6,0.1,1,0c0.5,0,0.8-0.1,0.9-0.3l4.1-4.2l0.6-1.8
	l0.2-0.4c0.5,0,0.8-0.2,1-0.5c0.1-0.1,0.1-0.2,0.1-0.3c0.2-0.6,0.1-1.4-0.2-2.7c-0.6-2.2-1.8-3.4-3.4-3.4c-0.1,0-0.1,0-0.2,0
	l0.6-0.6l-0.5,0.2L285.5,47.1 M287.7,49.8l0.4,0.6l0.1,0.6l0,0.6l-0.2,0.2h-0.6l-0.5-0.3l-0.4-0.6l-0.4-0.6v-0.7l0.2-0.4l0.4-0.1
	l0.5,0.2L287.7,49.8 M246.2,30.8c-0.2,0.4-0.3,0.9-0.2,1.5l1.5,18.3v0l0.4,0.5l0.1,1.4l-0.2,0.2l0.2,0.9l0.2,0.6l0.2,1.4l-0.1,0
	l0.2,1.4l0.1,0.1l0.1,0.9l-0.1-0.8v-0.1l-0.3,0.3l-0.1,0.1l-0.3,0.4l-0.1,0.4v0.4l0.1,0.1l0.4,4.9c0.1,0.3,0.1,0.5,0.1,0.7l0.2,0.2
	l0.1,0.1l0.2,0.1c0.2,0.1,0.5,0.3,0.8,0.4l0.1,2.6l-0.2,0.5l-0.4,0.2l-0.2,0.8l0.1,0.1v0.2l0.2,0.3v0.3l0.1,0.2l-0.4,2.6l-0.1,0.1
	v0.4l-0.1,0.6l-0.1,0.4c0,0.7,0,1.2,0.1,1.4c0,0.1,0.1,0.6,0.3,1.4l0.1,0.1l0.8,1.3l0.6,0.5v0l0.6,0.4l0.2,0.2l1,0.4h1l0-0.1
	l0.2-0.1h0.1l0.2-0.6l0.1-0.1l0.2-0.9l-0.1-1.3l-1.1-3.7l1.1-0.8l1,0.4l0.3,0.2l-0.6-2.4l-0.1-1.8l-0.5-0.7l-0.4-1.4l-0.1-1.8
	c0,0,0.1,0,0.1-0.1h0.2l0.1-0.2l0.1,0l0.2-0.2h0l0.1-0.1v-0.2l0.1-0.1v-0.1l0.2-0.2v-0.4l-0.5-5.3l-0.2-0.3l-0.9-0.9v0.9l-0.2-1.4
	l0.2-0.1l0-0.9l-0.2-0.6l-0.2-1.4l0.2-0.1h0.2l-1.5-20.4l0.1-2.1c0.1-0.5,0-0.9-0.4-1.2l-0.1-0.1l-0.7-0.2h-0.3l-0.2,0.1h-0.1
	l-0.4,0.2l-2.4,0.8l-0.2,0.1L246.2,30.8 M250.3,74.5l1.5,0.9l0.8,2.1l-0.8,1l-1.5-0.8l-0.7-1.9L250.3,74.5z"/>
<path class="st5" d="M283.9,77.4l-1.7-0.5l-1.8,0.5l-7,4.1l-0.6,0.6v0.8l0.6,0.6l4.5,2.6v0.5l-1-0.5l4.2,15.4l0.2,0.4l1.6,2.4l1,0.9
	l1,0.6l1,0.3l1-0.1l0.3-0.1l4.1-1.5l11.1-4l3.2-2l0.4-0.9l0.2-1l0-2.3l0.3-0.2l0,0l1.5-0.9l0.7-0.6v-0.8l-0.7-0.7l-0.6-0.3l-5.9-3.2
	L283.9,77.4 M284.1,95.2l-0.3,0.4l-0.2,0.1L284.1,95.2 M285.2,98.6l0.8,0.8l1,2.1l0.2,1c0.1,0.9-0.2,1.4-0.8,1.7
	c-0.6,0.2-1.2,0.1-1.9-0.3c-0.7-0.5-1.3-1.2-1.7-2.1c-0.5-0.9-0.7-1.7-0.6-2.5c0.2-0.9,0.7-1.4,1.2-1.4
	C283.9,97.8,284.5,98.1,285.2,98.6 M324.1,53.4h-2.9l-6.5,3.6l-0.8,0.8l-0.3,0.9l0.4,0.8l0.5,0.6l2.2,7.6l5.4,4.1
	c0.1,0.1,0.3,0.3,0.4,0.5l0.3-0.8v0.1l-0.2,0.7c2.6,3.2,3.6,6.6,3.2,10.2l-0.4,0.8l1-0.8l-0.9,0.7l15.5-5.7l3.2-1.9l0.4-0.8l0.1-1.1
	v-2.3l0.9-0.6l0.7-0.9l-0.4-0.9L332.6,58l-7.2-4.1L324.1,53.4 M323.3,71.8l0.3,1.1l0.4,1.1l-0.3-0.4l-0.1-0.7l-0.2-0.5L323.3,71.8z"
	/>
<path class="st6" d="M130.6,71.2l0.7,1.3l2,1.2l0.5-3.5l0.8-2.7l1.2-2.4l-23.5-13.4l-1,0.9l-0.4,2.3l-1.5,1l-1,1.7l0.2,0.9
	L130.6,71.2z"/>
<path class="st7" d="M173.3,67.6c-6.4-6.6-13.4-10.4-21-11.3c-1.3-0.2-2.5-0.1-3.9,0.1c-0.7,0.2-1.9,0.5-3.4,1
	c-5.5,1.6-9.1,5.8-10.9,12.7c-1.8,7-1.1,14.6,2.1,22.8c3.9,10.2,9.1,18.3,15.4,24.4c6,5.8,12.5,9.2,19.4,10.2c7,1,12.4-1.8,16-8.3
	c3.8-6.8,4-15.4,0.8-25.8C184.5,82.8,179.7,74.2,173.3,67.6z"/>
<path class="st8" d="M177.7,82.7l-5.7-7.9l-8.8-8.3l-1.9-1.1l3.7,17.7l4.3,1.7L177.7,82.7z"/>
<path class="st9" d="M164.2,67.3l-0.6,10.1l1.3,5.5l1,1.5l2,0.7l3.5-0.8l0.1-10.1l-3.1-3.3L164.2,67.3z"/>
<path class="st8" d="M176.2,109.3l-0.5-1l-7-7l-1.4,0.1l0.8,13l0.4,1.6l0.6,1.1l1.5,1.1l2.2,0.1l3.4-0.5l0.4-5.4l-0.1-2.1
	L176.2,109.3z"/>
<path class="st8" d="M155.2,80.4l2.6,1.1l0.8-1l-2.6-17.2l-3.2-0.7l-2.4,0.1l-2.1,0.6l-1.6,0.9l-1.4,1.5l0.8,8.7l0.6,0.4l1.8-1h1.5
	l2,0.9l1.3,1.5l1.1,1.9L155.2,80.4z"/>
<path class="st10" d="M166.8,52.6l-0.5-0.3l-1.8,0.8l0.2,2.9l-20.4,11.8l-3.1-1.6l-2,1.1l-1.3,33.2l-21.1,6.9l20.5-11.7l-0.9-2.3
	l-14.9,8.5l-1.9-2.6l-1.3,1.4l-4.1,2.6c-1.1,0.1-2.1-0.8-3-2.6c-1-1.9-1.2-3.5-0.5-4.8l4.1-2.2l2.4,0l-1.3-0.6l-1.4-0.2l-5.6,3.1
	l-0.9,0.8l0.2,1.5l2.9,7.2l-2.2,0.6l-1.6,0.1l-11.5,5.5l-0.6,0.3l-0.2,1.1l-1,0.7l-0.5,0.5l0.2,1.3l-8.7,3.9l2.2,4.8l18.9-5.3
	l30.3,17l1.3,2l-0.6,12.6l1.5,0.8l0.1,2.9c1,3.4,2.4,4.5,4,3.2l1-1l0.5-4.1v-3.4l1.9-1.4l-1-1.7l0.7-6.8l-0.8-1.6l0.4-1.3l1.2-0.4
	l2.8,0.7l-0.5-3l-1.8-1.8l-0.3-1.2l0.6-7.3l-0.2-2.4l1.5-17.5l-2.1-4.7l-0.2-30.1l18.2-10.4l0,2.5l5.2,3.5l1.8,2L171.2,55l-0.9-0.4
	l-0.7,0.6l-2.6-1.5L166.8,52.6z"/>
<path class="st8" d="M180.6,99.8l-1,0.3l-3-0.6l-0.3-0.8l2.4-1.2l-1.5-4.5l-1.5-3.2l-4.8,3l-0.3,1.1l0.8,1.6l10.3,11.8v-3.2l-0.4-3
	L180.6,99.8z"/>
<path class="st8" d="M158,109.5l-1.5,0.8l-1.1-0.6L152,107l6,6.2l1.2,0.8l1.7-0.3l1,0.4l1.5,1.2l-1.4-10.8l-0.3-1.5l-1-1.5l-2.8-2.3
	l-3.7,2.2l3.6,6.2l0.3,0.9L158,109.5z"/>
<path class="st6" d="M152.8,82.3l0.7-1.5l0.2-1.7l-0.5-1.8l-1.2-2.6l-2.1-0.9l-1.7,0.1l-2.1,1l-0.1,1.9l1.2,0.3l1.3,1.1l1,1.5
	l0.9,2.2l0.7,0.3l0.1,0.7L152.8,82.3z"/>
<path class="st11" d="M179.6,111l-2.7,1.8l-0.6,2.6l18.2,15.9c0.9,0.4,1.7,0.1,2.4-0.8c0.6-0.8,1-1.8,0.9-2.9L179.6,111z"/>
<path class="st4" d="M168,134.6l-0.6,1.1l-0.1,1.4l0.1,0.7l-1.3,0.8l-1.5-0.7l-1.7-0.1l-1.7,1l-1.5,1.5h-1.1l-1.5,0.3l-10.7-4.5
	c-2.1,0.5-2.3,1.7-0.8,3.6l5,3.3l0.9,1.3l-0.3,1.3l-7.3,3.6c-0.1,2.1,0.6,3.4,2.2,3.8l12.7-3l1.6,0.5l1.4-0.1l1.7-0.8l1.1-2.1
	l19.9,7l-0.2-3l0.5-1.3l0.8-0.9l1-0.7l-11.9-6l6.3-4.4l10.8-6.5l1.2,0.6l1.2-0.8l-1.1-1.3l0.2-1.5l1.7-2l1.2,0l1.5,1.1l0.6-2
	l-13.8-12.2l-1.5-0.7l-2.2,1.3l-2.4,2.9l-0.4,2.6l4,3.5l-1.9,6.3l-10,3.9l-1.1,0.9L168,134.6z"/>
<path class="st11" d="M166.4,124.8l-2.3,1.4l0.2,1c1.6,0.4,3.1,0.4,4.5,0.2c1.5-0.2,3.1-0.7,4.9-1.5l3-1.9l-2-4.4
	c-2.4,0.9-5,1.2-8,0.9l-1,0.5L166.4,124.8z"/>
<path class="st11" d="M178,84.3l-3.9,2.3c2.3,4.1,3.9,7.7,4.6,10.8l-2.1,1.3l0.2,0.7l3.1,0.6l3.7-1.9
	C182.7,94.5,180.9,89.8,178,84.3z"/>
<path id="Layer1_4_MEMBER_1_MEMBER_0_MEMBER_14_MEMBER_0_1_STROKES" class="st12" d="M164.5,55.5l0.1-2.3l1.8-1l0.6,0.3l-0.1,1.2
	l2.6,1.5l1-0.6l0.7,0.4v10.7 M171.2,55l-1.7,1v8.3 M146.3,68.8L167,56.9l0.1-0.1v-0.6l0-0.1v0l-0.1-0.1v0l-0.1-0.1l0-0.1l-0.1,0v0
	l0-0.1h-0.1l0-0.1h-0.1l0,0h-0.2l0,0l-21.7,12.5 M169.5,56l-4.9-2.8 M164.3,60.5v-1.4 M165.8,53.1l1,0.6 M163.7,76.7l0.3-8.5
	 M155.6,97.2l-0.3-16.3c-0.2-1.2-0.6-2.3-1.2-3.4l-1-1.8l0-0.1l-0.2-0.2l-0.1,0l-0.1-0.2l-0.2-0.2l-0.1,0l-0.1-0.1l-0.1,0h0
	l-0.1-0.1h-0.4l0,0.1 M136.7,87.7l0.5,0.2l0.3,0.5l0.3,0.3l0.4,0.3l0.2,0.1l0.9-21.7l2-1.2l4.6,2.7L146,69v7.7l0.2,0.1h0.2l0.4,0.1
	h0.1l0.2,0l0.2,0.1c0.5,0.2,1,0.5,1.3,0.9l1.1,1.8l0.1,0.1v0l0,0.1v0l0,0.1v0.1l0.1,0v0.1l0.1,0v0.1l0,0v0.1l0,0.1l0.1,0v0.1
	l0.1,0.1v0.1l0,0v0.1l0,0.1v0.1l0.1,0v0.1l0,0v0.1l0.1,0v0.1l0.1,0.1v0h0v0.1h0.1v0h0v0.1h0.1v0h0.1V83h0.1l0,0h0.4l0,0h0.1v-0.1
	l1.7-0.9h0l0.1,0v-0.1h0.1l0,0v-0.1h0v0l0.1-0.1v0h0.1c0-0.1,0-0.2,0-0.5h0v-0.9l0-0.1v0l0,0v-0.2l-0.1,0v-0.1l-0.1-0.1v-0.1
	 M157.6,82.5h-0.9l-0.9,0.2 M164.6,90.3H164l-0.1,0h-0.2v-0.1l-5.4-3.1l-1.1-1.6v0h0v-0.1h-0.1v0h0v-0.1h0v0h-0.2v-0.1h0v0h0
	l-0.1-0.1h0l-0.1,0h0v-0.1h-0.2v0h-0.4 M158,84.9L158,84.9L158,84.9l0-0.1h0v0h-0.1v-0.1h0v0h-0.1l0-0.1l-0.1,0h0v-0.1h-0.1v0h-0.1
	l0,0H157l0-0.1h-0.5 M166,88.9c-0.9-1.3-1.7-2.3-2.3-3c-0.9-0.9-1.9-1.7-3-2.3 M171.2,83.8v-9 M169.5,84.2v-11 M159.1,99.8
	c2.6,2.2,4.9,2.7,6.7,1.5c1.8-1.1,2.4-3.4,1.8-6.7c-0.4-2.7-1.7-5.3-4-7.9c-2.5-2.8-5.1-3.9-7.6-3.2 M186.7,114.6
	c1.9-8.9,0-18.9-5.7-30.1c-5.5-10.8-12.4-18.5-20.6-23 M159.1,86.5l5.4,3.2h0.1v0h0.4v0h0.2v0h0.3 M154.1,101.5l8.3-4.8l0.1,0
	l0.1-0.1l0.1-0.1l0-0.1l0.1,0l0-0.1c0.1-0.3,0.2-0.7,0.3-1.2c-0.1-1.1-0.3-2-0.7-2.8l0-0.2l-0.1-0.1l-0.1-0.2l-0.1-0.1l0-0.2
	l-0.3-0.3l-0.1-0.2l-0.1-0.1l-0.1-0.1l-0.2-0.1l-0.1-0.1l-0.2-0.1l-0.1-0.1l-0.1-0.1l-0.1-0.2l-0.3-0.1l-0.1-0.1l-0.1-0.1l-0.1,0
	h-0.1c-0.2-0.2-0.6-0.2-1.2-0.2l-2.2,1.2l-0.5,0.3 M163.3,99.8l-0.4,0l-0.2,0.2l0,0.1l-0.1,0l0,0h-0.1v0.1h-0.1v0.1h-0.6l0-0.1h-0.1
	l0-0.1h-0.2v0h0l0,0H161V100h-0.1l0-0.1h0v0l-0.1,0h0v-0.1l-0.1-0.1h-0.1v0l0-0.1l-0.1,0l0-0.1l-0.1,0v-0.1l0,0V99l-0.1,0
	 M168.5,98.7c0.2-1.2,0.2-2.4,0-3.5c-0.2-0.8-0.5-2-1-3.4 M166.9,93.9l-4.1,5.9 M152.6,99.8v-0.2l0,0v-0.3h-0.1V99 M152.6,99.8
	L152.6,99.8L152.6,99.8 M158.6,100.1l1.5,1.2l0.5,0.3 M149.5,104.4l6,5.4h0l0.1,0l0,0.1h0.1v0l0,0.1h0.1l0,0h0.1l0.1,0.1h0.2v0h0.2
	l0,0h0.1l0.1-0.1h0l0.2-0.2v-0.1h0.1v-0.1l0,0v-1.1l0,0v-0.1l-0.1-0.1v-0.1l0-0.1v0l-0.1-0.1l-5.3-7.8 M157.3,109.9
	c0.2,0,0.4,0,0.5-0.1c0.1-0.1,0.1-0.2,0.1-0.2h0v-0.1l0.1,0V109l0.1-0.1v-0.3l-0.1-0.1v-0.3l-0.1,0v-0.1l0,0c0-0.1,0-0.3-0.1-0.4
	c0,0-0.1-0.1-0.1-0.1l-5.1-7.6 M163.3,102.7c0.5,0.1,1.2,0.1,1.8,0c0.7-0.1,1.3-0.4,1.6-0.7 M182.5,124.6l-1.1,4.4v0.3h0v0.2h-0.1
	v0.1h0v0.1h-0.1v0h0v0.1h-0.1v0h-0.1l-2,1.2h-0.1v0h0v0.2h-0.1v0.8h0.1v0.2h0v0.1l0.1,0.1v0h0v0.1h0l2.8,2.9h0.1v0.1h0.1v0.1h0.1
	l0,0h0.2l0,0h0.4v0h0.2v0h0.1v-0.1h0v-0.1h0v0h0.1v0l6.6-3.8h0v0h0v-0.1h0.1v-0.1h0.1v-0.2l0-0.1V131l0.1-0.6l-8.2-7.2l-1.5,5.3v0.1
	h-0.1v0.2h0v0.1l-0.1,0v0h0v0.1l-0.1,0.1h-0.1v0h0v0.1h-0.1v0h-0.1l-3.3,1.5l-6.2,2l-0.5,0.4l-0.3,0.4 M168.5,134.3L168.5,134.3
	c-0.2,0.1-0.3,0.2-0.4,0.2v0.1H168l0,0l-0.1,0l0,0.1l-0.1,0.1v0l0,0h-0.1v0.2l0,0l-0.1,0v0.2l0,0v0.2l-0.1,0v0.3l0,0v1l0,0.1v0.3
	 M172.6,141c0.3-0.6,0.3-1.1,0.1-1.5v-0.3l-0.2-0.5l0-0.2l-0.1-0.2l-0.1-0.3l-0.3-0.4l-0.1-0.1l-0.2-0.2l-0.1-0.1l-0.2-0.1l-0.2-0.1
	l-0.1-0.1l-0.2,0h-0.7l-0.1,0l-0.3,0l-3.1,2l8.4,4.1l0.4-0.1v0h0.2v-0.1h0.2l0,0l0,0l5.2-4.3l-0.5-0.1h-0.1v0.1l0,0v0.1h-0.1v0h0
	 M180.3,138v-0.2l0-0.1v-0.6h0c-0.1-0.1-0.1-0.3-0.1-0.6l0-0.1v-0.1l-0.1,0l-2.1-3.6v-0.1h0v0l-0.2-0.2v0h0l-0.1-0.1v0h0l-0.2-0.2h0
	v0h-0.1v-0.1H177v0h-0.1l0-0.1h-0.1l0,0H176v0 M178,119.3l4.4,3.9 M171,127.5c2.1,0.2,4,0,5.6-0.4c1.7-0.5,3.3-1.3,4.9-2.6
	 M190.5,130.4l1.2,1.1l0.2,0.1l1.1,0.6l1.3-0.8 M198.4,125.6l-1.5-0.7 M156.3,90.1l-0.6-2.2 M142.2,69.2H142l-0.1,0.1h-0.1v0.1l0,0
	v0.3l0,0.1v0.2l0.1,0.1v0l0,0.1c0.2,0.2,0.3,0.3,0.4,0.5h0.1l0.1,0.1h0.1l0-0.1h0l0.1,0v-0.1l0.1,0v-0.5l-0.1,0v-0.1l-0.1-0.1v-0.1
	l-0.3-0.3h-0.1l0-0.1L142.2,69.2L142.2,69.2z M143.8,69.6l-0.1,40.1v1.3l0.5,0.2l0.1-41.4L143.8,69.6z M143.8,69.6l0.9-0.4l-3.8-2.2
	l-1.6,40.6l4.5,2.1 M145.9,68.9l-1.6,1 M139.2,67.4l0.5,0.3l-1.5,40.4l1.1-0.5 M137.3,85.1l-0.4-0.3l-0.6-0.8l-0.8,0.5
	c0.4,0.8,0.8,1.2,1.4,1.3c0.6,0.1,0.8-0.4,0.6-1.4l-0.2-0.5l-0.7-0.7l-0.4-0.2c0,0,0,0,0,0l0,0.1v0.1l-0.8,0.5l-0.7-0.2l-0.7,0.4
	l1.6,0.6 M135.8,83.7l0.5,0.2 M134.6,83.4l-0.8-0.3l-0.1,0c-1.6-8.7-0.3-15.5,3.9-20.7c4.6-5.6,11.1-6.5,19.6-2.8 M137,86.9
	L137,86.9 M137,86.9L137,86.9c-0.6-0.2-0.8,0.1-0.8,0.7l0.8-0.5V86.9 M136.2,87.6l-0.7-0.2l-0.7,0.4l1.5,0.6l0.9-0.5 M135.5,87.4
	l-1-0.3l-0.6-3.2 M135.3,83.7c0.1-0.7,0.4-0.9,0.9-0.7 M138.2,87.8c-0.3-0.5-0.7-0.8-1.1-0.9 M150.2,101.8L150.2,101.8l0-0.1l0.1,0
	v-0.2l0.1,0v-0.2h0v-0.4h0l-0.2-17.3l-0.1-0.1v-0.1l0,0v-0.2l0,0v-0.2l-0.1,0v-0.1l-0.1-0.1v-0.2l0,0v-0.1l0,0v-0.1l-0.1-0.1v0
	l-0.1-0.1v-0.1l0,0v-0.1l0,0V81l-0.1-0.1v0l-0.1-0.1v0l0-0.1v0l0-0.1v0l-0.1-0.1l-1.1-1.8l-0.3-0.3l-0.1,0l-0.1-0.1l0-0.1l-0.2,0
	l0-0.1c-0.4-0.2-0.8-0.3-1.2-0.3v33.1l-1.7,0.7l-0.1,0 M147.1,78.9c-0.1,0-0.2-0.1-0.3-0.1c0,0.3,0,0.5,0,0.6c0,0.1,0.1,0.3,0.2,0.6
	l0.2,0.3l0.3,0.3l0.1,0.1l0.1,0h0.1l0.1,0.1c0.1-0.4,0.1-0.8-0.2-1.3C147.7,79.5,147.5,79.2,147.1,78.9z M146.5,80.3
	c0.1,0.3,0.3,0.6,0.7,0.8l0.1,0h0.3l0.2,0l0-0.1h0c0-0.1,0.1-0.1,0.1-0.2 M146.8,78.8c-0.2,0-0.3,0-0.3,0 M146,77.5v-0.7
	 M138.2,76.9c-0.2,2-0.2,4,0,6.1 M143.1,101.2l-0.2-0.3l-0.2-0.1l-0.3-0.1h-0.3c-0.4,0-0.6,0.3-0.6,0.8c-0.1,0.5,0,1,0.4,1.6
	c0.4,0.7,0.8,1,1.3,0.9 M146.8,121.6l1.5-16.9v0l0-0.1l0,0v-0.2l0-0.1v-1.4l0-0.1v-0.2l-0.1-0.1c-0.1-0.3-0.2-0.5-0.1-0.7l0,0v0
	l-0.1-0.1l-0.1-0.1v-0.1l0-0.1l0,0V101l-0.1-0.1l-0.1,0l0-0.1v-0.1l0,0l-0.1-0.1l-0.1-0.1l-0.1-0.2l-0.1-0.1v-0.1l-0.1-0.1v-0.1l0,0
	l-0.1-0.1l0,0l-0.1-0.1l-0.3-0.4 M137.6,92.3l-0.7,0.3l0,0.3v1l0.4,0.8l0.3,0.3 M137.4,96.6l-0.1,0.3v0.2l0.1,0.3 M137.5,96.4
	l-2.5-7.1l-0.2-1.4 M150.2,103.6l-1.9,0.9 M138.3,89.1l-0.7,18.7 M148.3,135.7v-0.5h-0.1v-0.3l0,0v-0.2h0v-0.1l-0.1,0v-0.1l-0.1,0
	v-0.1l0,0v-0.1h0v0l-0.1-0.1v0h-0.1v-0.1h0v0h0v-0.1l-0.2-0.1l0-0.1l0,0h-0.1v-0.1H147v0c-0.4-0.1-0.6-0.3-0.6-0.5h0v0h0v-0.1h-0.1
	v-0.1l-0.1,0v-0.1h0v-0.1l0,0v-0.1h-0.1v-0.2h-0.1l-0.1-0.5l-1.8,1l0.5-7.4l2.7-1.4l-0.6,7.3l-0.8,0.5 M163.3,149.5l0.3-0.1l0.2-0.2
	l0.4-0.6l0-0.3l0.1-0.4c0-0.1,0-0.2,0-0.4c0.1-0.9-0.2-2-0.7-3.4c-0.6-1.2-1.3-2.2-2.2-2.9c-1.1-1-2.2-1.3-3.3-0.9h0v0h-0.1
	l-0.1,0.1h-0.2l0,0h-0.5l-10.3-4.2h-0.1v-0.1h-0.3l-0.1,0h-0.6v0h-0.3v0.1 M155.8,147.5l-8.5,3.4L147,150l8.5-3.3l0.1,0h0v-0.1h0.1
	v0h0v0h0.1v-0.2l0,0v-0.9l0,0v-0.2h-0.1V145l0-0.1v-0.1l-0.1-0.2v0l-0.1,0v-0.1h0v0l-0.1-0.1v-0.1h-0.1l0,0V144H155v0h0l0-0.1
	l-6-3.4l-0.1-0.8l6.1,3.3h0v0h0.2v0.1h0.2V143h0.2v0h0.1v-0.1h0v-0.1h0.1c0-0.7,0.4-1.2,1-1.5l-10.4-4.5l-0.1-0.1l-0.1,0l-0.1-0.1
	h-0.1l-0.1,0h-0.3l-0.1,0l0,0.1l-0.1,0l-0.1,0.1l0,0.1l-0.1,0.1l0,0.1v0.7l0,0.2v0.1l0.1,0.2l0.1,0.2l0,0.2l0.1,0.1l0.1,0.2l0.2,0.1
	l0.1,0.2l0.2,0.1l0.1,0.1l0.2,0.1l4.1,2.6l0.1,0.1h0l0,0h0.1l0.1,0.1h0v0.1l0.1,0h0l0.1,0.1v0h0l0.1,0.1v0l0,0.1v0h0.1v0.1l0,0v0.1
	l0.1,0v0.1l0,0v0.1l0.1,0.1v0.1l0,0v0.2l0.1,0v0.3l-0.1,0v0.2l0,0v0.1l-0.1,0l0,0.1v0h-0.1l0,0.1l-6.5,3.4c0,0-0.1,0-0.1,0.1
	c-0.4,0.2-0.5,0.4-0.5,0.7v0.1l-0.1,0.1v0.2l0.1,0.2v0.2l0.1,0.4l0.1,0.2c0.1,0.2,0.2,0.3,0.2,0.4c0.1,0.1,0.1,0.2,0.1,0.3
	c0.1,0.1,0.3,0.3,0.6,0.5l0.1,0.1l0.2,0.1l0.1,0.1l0.1,0h0.6l12.6-3.3c-0.4-0.3-0.9-0.8-1.4-1.3 M137.5,138.2l-0.6,12.6l0.7,0.5
	l0.8-16.8l1.2-25.2 M143.7,121.7l1-9.9 M137.6,135.1l1.3-26.3 M138,89.7c-0.5,0-1.1-0.4-1.7-1.3 M144.6,139.8L144.6,139.8l0,0.1
	h-0.1 M144.8,148.1L144.8,148.1L144.8,148.1l-0.1,0V148h-0.1v0l0-0.1v0h-0.1v-0.1h0v-0.1l-0.1,0v-0.1l0,0v-0.1h-0.1v-0.1h0V147
	l-0.1,0v-0.1l0-0.1v-0.2l0,0v-0.5 M145.2,139.8l-0.5,5.8c0,0.4,0,0.6,0,0.6h0.1v0.2l0,0v0.1l0.1,0v0.1h0v0.1h0.1v0.1h0v0.1h0v0
	l0.1,0.1v0h0.1v0.1h0v0.1h0v0h0.1v0.1h0.1v0h0v0.1h0v0 M144,152.2l-0.4,3.9c-0.1,0.7-0.2,1.1-0.5,1.2l-1.3,0.8h-0.2l-0.1,0h-0.1
	l-0.2,0h-0.2l-0.2-0.1l-0.2-0.1l-0.2,0c-1.1-0.8-1.7-2-1.8-3.4l0.1-2.8l-0.9-0.4 M142.3,135.6l-1.8,17.5l0.8,0.4l1.1,0.8
	 M138.6,151.6l0.5,0.2l1.1,1.1 M143.4,152.4v-0.1h0v-0.1h0.1v0l0.1-0.1h0v-0.1h0.2v0l0.4,0 M142.4,156.7c0,0.4,0,0.6-0.1,0.8
	c-0.1,0.2-0.2,0.4-0.5,0.6 M191.9,131.6l-10.9,6.6l-0.3,0 M175.6,142.5L175.6,142.5L175.6,142.5 M174.4,150.7h0.3l0.1-0.1h0.1l0,0
	l0.1-0.1l0.1-0.1c0.1-0.1,0.2-0.4,0.1-1l-0.4-2.7l0-0.2c-0.1-0.6-0.3-1-0.5-1.4l-0.1-0.2l-0.2-0.1l-0.1-0.2l-0.3-0.3l-0.2-0.1
	l-0.1-0.1l-5.9-3.5l-3.7-1.8c-0.1,0-0.2-0.1-0.2-0.1c-0.5-0.2-1.1-0.3-1.7-0.2l-0.6,0.3l-0.2,0.2l-0.4,0.6l-0.1,0.4 M186.6,148.6
	l-11.8-5.8 M166.3,138.7l-1.6-0.8c-0.6-0.4-1.4-0.4-2.2-0.1 M165.9,144.5l0-0.2c0-0.5-0.1-1.1-0.4-1.9c-0.3-0.6-0.7-1-1.2-1.4
	c-0.6-0.4-1.1-0.5-1.6-0.2 M158.9,149.7c1.1,0.8,2.1,1,3,0.6c1.3-0.5,1.6-2,0.9-4.5c-0.7-2.2-2-3.8-3.8-4.7c-0.6-0.4-1.3-0.4-2-0.1
	c-0.1,0-0.1,0.1-0.2,0.1 M156.7,145.7c0,0.1-0.1,0.2-0.1,0.2c0,0,0,0.2,0,0.4c0,0.3,0.2,0.6,0.4,0.9l0,0.1l0.1,0.1l0.1,0.1l0.1,0
	l0,0.1l0.1,0h0.1l0.1,0.1h0l0.1-0.1h0.1l0,0v-0.1h0v0l0.1-0.1v-0.1l0.1-0.1l-0.1-0.1v-0.3l-0.1-0.1v0c0-0.1-0.1-0.3-0.3-0.6l0-0.1
	l-0.1-0.1l-0.1-0.1l-0.1-0.1h-0.1l0,0H157l-0.1,0L156.7,145.7L156.7,145.7z M159.4,147.9l0.4,0.1h0.2l0.1,0c0.1-0.1,0.2-0.1,0.3,0
	c0.1,0,0.2-0.1,0.4-0.3l0-0.1l0.2-0.1v-0.1l0-0.2v-0.2c0.1-0.3,0-0.7-0.1-1.2c-0.2-0.5-0.4-0.9-0.6-1.2c-0.5-0.8-1.1-1.2-1.9-1.2
	c-0.3-0.1-0.5,0-0.7,0.3c-0.2,0.3-0.3,0.6-0.3,0.9 M159.5,144.1l-2.6,1.5 M158.2,147.8l2.7-1.6 M184.9,154.5l-20.4-7 M167.5,140.4
	l18.2,8.9 M139.5,150.8l-1.1-16.4 M142.8,153l-0.1-16.9 M148.3,113.7c5.3,5.9,10.5,9.9,15.6,11.9 M152.6,99.8L152.6,99.8"/>
<path id="Layer1_4_MEMBER_1_MEMBER_0_MEMBER_14_MEMBER_1_1_STROKES" class="st12" d="M154,62c-0.5-0.1-0.9-0.2-1.2-0.4
	c-0.6-0.2-1.1-0.2-1.3-0.2l-0.1-0.1h-0.3l-0.2-0.1h-0.4l-0.1,0h-2.1l-0.1,0h-0.4l-0.1,0.1h-0.3l-0.1,0.1c-0.6,0-1.2,0.2-2,0.6h-0.2
	v0h-0.1v0h0v0.1h-0.1v0.1h0v0l-0.1,0v0.2h0v4.8 M156.1,64.5v0.2l2.4,16.9v0.2h0V82l-0.1,0v0h-0.1v0.1h0v0.1h0l-0.1,0H158v0.1h-0.4
	 M178.4,98.8L178.4,98.8L178.4,98.8l0.1-0.1c0.1-0.1,0.1-0.2,0.1-0.3v-0.1l0.1-0.1v-0.4l-0.1-0.1v-0.2c-0.7-2.1-1.4-3.9-2-5.5
	l-1.2-2.8c-0.6-1.2-1-2.1-1.4-2.7l3.8-2.2c0,0,0,0,0,0l0.2-0.7h0v-0.2H178v-0.1h0v-0.1c-2.5-4.3-5.3-8-8.5-11.3
	c-3.5-3.6-7.3-6.5-11.3-8.4h-0.1l0,0h-0.4v0h-0.1v0h-0.1l0,0.1h-0.1v0.1h0v0h0v0.2h-0.1v0.6l2.3,16.6v0.2h0.1v0.2h0.1v0.1l0,0.1v0
	l0,0v0.1h0.1v0.1h0v0.1h0.1v0l0,0.1l0.1,0v0.1h0v0L160,83h0v0l0.3,0.3 M159.6,58.4c-2.1-1.1-4.5-1.8-7.4-2c-3-0.3-5.4,0.1-7.4,1
	c2-0.6,4.4-0.7,7.1-0.3c2.3,0.3,4.5,1,6.7,2.1 M160.9,65.8L160.9,65.8L160.9,65.8l0,0.2h-0.1v0.3h0v0.5h0v0.4h0.1v0l3.2,15.4V83
	l0.1,0v0.1l0,0v0.1l0.1,0v0.1l0,0v0.1l0.1,0v0.1h0v0l0.1,0v0.1l0,0.1l0.1,0v0l0,0.1l0.1,0.1v0c0.1,0,0.1,0.1,0.2,0.3h0.1l0.1,0v0.1
	h0l0.1,0.1l0.1,0h0l0,0.1h0.1v0h0l0.1,0.1h0v0h0.2l0,0.1h0.1l0.1,0h0.3l0.6-0.1l-0.3-0.1v0h-0.3l0-0.1h-0.1l0,0h-0.1l-0.1-0.1h-0.1
	l0-0.1h-0.1v0h0l-0.1-0.1h-0.1v-0.1l0,0l-0.1,0l-0.1-0.2l-0.1,0v0h-0.1l0-0.1v-0.1l0,0l-0.1,0v-0.1l-0.1,0l0-0.1v0l0-0.1v0l-0.1-0.1
	v0l0-0.1v0l-0.1-0.1v0l0-0.1v0l0-0.1l-0.1,0v-0.1 M161.5,65.8v0.1h0v0.4h-0.1v0.3l0.1,0.1v0.3l3.3,15.5 M164.7,82.6L164.7,82.6
	 M157.9,80.7V81l0,0v0.1h-0.1v0.1l0,0.1v0h-0.1v0.1h0v0h-0.1v0.1h0v0h-0.1v0.1h-0.1l-0.1,0h-0.4l-0.8-0.6 M159.1,86.5l-1.1-1.6
	 M157.1,81.4l-1.4-0.9 M166,88.9L166,88.9l0.1,0v0.1h0.1v0.1h0v0h0.1l0,0h0.1v0.1h0l0.1,0.1h0.1v0h0.1v0h0.6v0h0.1l5.9-2.4
	 M167.4,85.2l9.2-2.1v0h0.1h0.1V83h0v0h0.1v-0.1h0v-0.2l0.1,0 M176.7,83.1L176.7,83.1 M187.7,115.1l0.9-6v-3.3
	c-0.2-3.2-0.7-6.3-1.5-9.1c-0.7-2.7-1.7-5.6-3-8.8c-2.4-5.5-5.5-10.6-9.2-15.3c-4.2-5.2-8.7-9.1-13.4-11.9 M188.5,115.5
	c2.8-9.1,1.3-19.5-4.5-31.3c-5.6-11.3-12.7-19.4-21.2-24.1 M178.4,97.6l-1.9,1.2l0.2,0.8l3.2,0.6l3.4-2c-1.1-4.8-2.9-9.3-5.3-13.7
	 M166.9,101.7L166.9,101.7L166.9,101.7l0.1,0v0h0l0.1-0.1h0v0h0.1v-0.1h0.1l0.1,0h0.9l7,6.9v0.1l0.1,0.1l0.1,0v0l0.1,0.2v0l0.1,0
	v0.1l0,0.1v0l0.1,0v0.2h0v0.1h0.1v0.2l0,0v0.1l0.1,0.1v0.4h0l0.1,2.1 M181.1,100.8c0.2,0.7,0.4,1.6,0.5,2.8c0.1,0.7,0.1,1.6,0.1,2.6
	l0,0.2v1l-0.1,0.1v0.4l0,0.1v0.2l-0.1,0.2v0.2c0,0.2-0.1,0.6-0.2,1l-0.1,0.1v0.1l-0.1,0.3v0.1l-0.1,0.1l0,0.1v0.1l-0.1,0.1v0h0v0
	h-0.1l0,0.1h-0.1v0.1h-0.2l-0.1,0h-0.3v0h-0.2l-0.1-0.1h-0.1v-0.1h-0.1v0h-0.1L169,100.6 M178,119.2l0.5-1.9l-2.2-2l0.5-2.3l0-0.3
	l0.4-0.3l2.3-1.2l0.4,0.1l2,2l1.2-0.7l1.5,0.7l13.7,12.2 M167.4,91.7c-0.1-0.2-0.1-0.4,0-0.7h0v-0.3h0.1v-0.1l0,0v-0.1h0.1v0h0
	l0.1-0.1h0v0l6-2.4 M181.4,107.2l-10.1-11.8l-0.1-0.1v-0.1H171v0l0,0V95l-0.1,0v-0.1l0,0v-0.1l-0.1,0v-0.1l0-0.1v-0.1l-0.1,0v-0.3
	l-0.1-0.9l0,0l-0.1,0.1v0.1h0v0h-0.1v0.1l0,0.1v0.2l0,0.1v0.5l0,0v0.3l0,0.1V95l0.1,0.1v0l0,0v0.1h0.1v0.1l0,0.1v0l0.1,0.1
	l10.5,12.1 M160.6,101.7L160.6,101.7L160.6,101.7l0.1,0v0.1l0.1,0.1v0h0v0.1h0.1v0l0.1,0.1v0h0v0.1l0,0v0.1l0.1,0v0.1h0.1v0.1h0v0.1
	h0v0l0.1,0.1v0.1l0,0v0.1l0.1,0.1v0.1l0,0v0.2l0.1,0v0l1.6,11.3l0.1,0.7l0.7,4.5v0.6l-0.1,0.1v0l0,0.1v0l-0.1,0.1v0h0v0.1h-0.1v0
	h-0.1v0.1h-0.1v0H163v0c-1.4-0.6-2.7-1.3-3.7-2.1c-1.1-0.6-2.3-1.5-3.7-2.7c-2.2-1.7-4.5-4-7.1-6.9 M163.6,116.1l-0.6,0v-0.1h-0.2
	l0-0.1h-0.1v0h-0.1v0h-0.1v-0.1h-0.1l0-0.1l-0.1,0h0v0H162c-0.2-0.1-0.3-0.3-0.3-0.4l-0.4-0.4h0v0h0v0H161l-0.1-0.1h0v0h0l-0.1-0.1
	h-0.1v0h-0.2v-0.1h-0.6v0.1h-0.1l0,0h-0.1l0,0.1h-0.1v0h-0.1l-0.1,0.1h-0.5l-0.1-0.1h-0.2v0h-0.2v-0.1h-0.1v0h-0.1l-0.1-0.1h-0.1v0
	h-0.1l0-0.1l-0.1,0l0-0.1c-0.5-0.3-0.8-0.6-1.1-0.9l-1.2-1.2c-1-1-1.7-1.8-2.2-2.3c-0.9-1-2.3-2.6-4.1-5 M163.3,102.7L163.3,102.7
	L163.3,102.7H163l0,0.1h-0.1v0h0v0.1h-0.1v0.1h0v0.1l-0.1,0v0.7h0.1v0l1.5,11.8v0.1l0,0.1v0.3l0.1,0v0.2l0,0v0.1l0.1,0.1v0l0,0.1
	v0.2l0.1,0.1v0l0.1,0.1v0.1l0,0v0l0.1,0.1l0,0.1v0l0.1,0.1v0.1l0,0l0.1,0v0.1l0.1,0l0,0.1l0,0h0.1v0.1l0.1,0l0,0.1l0,0h0.1v0.1
	l0.1,0.1h0l0.1,0h0l0.1,0l0,0.1c0.1,0,0.3,0.1,0.5,0.2h0.1l0.2,0.1l0.1,0.1h0.4l0.2,0h0.3l0.2,0h0.5l0.1,0.1h1.9l0.1-0.1h0.5l0.1,0
	h0.3l0.1,0h0.3l0.3-0.2h0.1c0.6-0.2,0.9-0.3,1-0.3h0.1l0.1,0l0.1-0.1l0.1,0h0.1l0.1-0.1l0.2,0l0.1-0.1l1-0.5 M175.6,118L175.6,118
	l-0.3,0l-0.1,0.1H175l0,0.1h-0.4l-0.1,0h-0.5l-0.1,0H173l-0.1,0.1h-1.1l0-0.1h-1.1l0,0h-0.2l0,0h-0.1l0-0.1h-0.1l0-0.1h0l-0.2-0.1h0
	l-0.7-0.8c0.1,0,0-0.1-0.3-0.3v-0.1l-0.1-0.1v0l0-0.1l-0.1-0.1v0l0,0V116l0,0v0l-0.1-0.2v-0.1l-0.1-0.2c-0.1-0.3-0.1-0.6,0-0.9
	l-0.7-12.7 M163.5,115.4c-0.3-0.1-0.5-0.1-0.6-0.1v0h-0.1v-0.1h0l-0.1-0.1h-0.1v0h0v-0.1h-0.1v-0.1h0v0h-0.1v0h0v-0.1h-0.1v0h0v-0.1
	H162v0h0v-0.1h-0.1v0h0l-0.1-0.1h0v0h-0.1l0-0.1h0l-0.1,0h-0.1v-0.1H161l-0.1,0h-0.5v0h-0.1l0,0.1h-0.1v0h0l-0.1,0.1h-0.2v0h-0.4
	l0,0h-0.2l0-0.1h-0.2v0h0l0-0.1h-0.2v0h0v-0.1h0l-0.1,0h-0.1v-0.1h0v0h0c-2.1-1.8-4.2-4-6.2-6.5 M166.4,124.2l-0.7-2.9l1-0.6l0.1,0
	h0.7l0.1,0.1h0.3c0.3,0,0.7,0,1.1,0c0.3,0,0.7,0,1.1,0c0.3,0,0.6,0,1.1-0.1h0.1l0.1,0h0.3l0.1-0.1h0.3l0.1,0c0.2,0,0.5-0.1,1-0.2
	c0.2-0.1,0.5-0.2,0.9-0.3l0.2-0.1l0,0l0,0h0.1l0.1,0l0.1,0h0.1l0.3-0.2l1.9,3.8l-0.6,0.4l0.1,0.2l-3.2,2.1l-0.1,0.1h-0.1l-0.1,0.1
	l-0.3,0.1l0,0.1l-0.1,0.1h-0.1l-0.3,0.1l-0.1,0.1h-0.1l-0.1,0.1h-0.1l-0.3,0.1l-1,0.2l-0.1,0h-0.3l-0.1,0.1h-0.4l-0.1,0
	c-0.4,0.1-0.8,0.1-1.1,0.1h-1.5l-0.1-0.1h-0.5l-0.2,0h-0.1c-0.5,0-0.9-0.1-1.2-0.2l-0.3-0.8l0.1,0l1.9-1.2h0.3V125h0.1v0h0v-0.1h0.1
	L166.4,124.2L166.4,124.2L166.4,124.2z M173.5,126.1l-2.4-4.2l-0.5,0.3l1.3,2.8v0.6l-0.2,0.3l-0.1,0.1h-0.1l-0.1,0h0l-0.1,0
	l-0.1,0.1h-0.1l-0.1,0.1h0l-0.1,0h-0.2l-0.1,0h-0.2c-0.1,0.1-0.3,0.2-0.4,0.2c-0.3,0-0.4,0-0.4,0c-0.2,0.1-0.5,0.1-1,0h-2l-0.1,0
	h-0.6l-0.1,0h-0.4l-0.1-0.1h-0.3l-0.1-0.1h-0.1l-0.1,0 M160.3,115.5L160.3,115.5l-0.1,0.1l-0.1,0.1v0.2l-0.1,0v0.3l0.1,0.1v0.1
	c0,0.1,0.1,0.2,0.1,0.3c0,0.1,0.1,0.2,0.3,0.3l0,0.1l0.1,0.1l0.1,0h0.1l0,0.1h0.2l0-0.1h0.1v0l0.1,0v-0.1l0-0.1v-0.5l0-0.1v-0.1
	l-0.1,0l-0.5-0.7l-0.1,0h0l-0.1,0h0l-0.1-0.1H160.3z M158.2,139.7l0.9-13.1V126h0c-0.1-0.1-0.1-0.3,0-0.5l-0.1-0.1v0l-0.1-0.1v0
	l0-0.1v0l0-0.1v0h-0.1v-0.1l-0.1,0v0h0v-0.1l0-0.1v0h-0.1v0l-0.1-0.1h0v-0.1h0v0l-0.1,0H158v-0.1h0l0-0.1l-0.1,0h0l-0.1,0h0
	l-0.1-0.1h-0.1v-0.1h-0.1l-9.1-5.1 M167.5,127.9v0.5h-0.1v0.1h0v0.1h-0.1v0l0,0.1h-0.1v0.1h0v0h-0.1v0h-0.6l-0.1,0h-0.1l0,0H166
	l0-0.1h-0.1l-1-0.8h-0.1V128h-0.1v0H164v0h-0.1v0.1h-0.1v0l0,0.1v0l-0.1,0.1v0.2l-0.6,6.6h0v0.7l0,0.1v0.2l0,0.1v0.1h0.1v0.1h0.1
	v0.1h0v0l0,0.1v0h0.1v0.1l0.1,0l0,0.1v0h0 M170.3,130.6L170.3,130.6L170.3,130.6L170.3,130.6z M167.8,129l2.4,1.5h0v0l0,0
	 M171.2,131.7L171.2,131.7L171.2,131.7l0-0.2H171v-0.1l0,0v0h-0.1v-0.1l0-0.1l-0.1,0v0h0v-0.1h-0.1v-0.1h0v0h-0.1v0h0v-0.1
	 M164.7,137L164.7,137l-0.1-0.1v0h-0.1v-0.1h0v0l-0.2-0.2v0h0v-0.1l-0.1,0v-0.1h0V136l-0.1,0v-0.1l0,0v-0.1l-0.1-0.1v-0.3
	 M166.2,129.3l-0.7,7.5l1.4-0.8 M165.6,129l-1.3,7.1 M178.6,116.8l0.8-1 M178.6,116.8l13.7,12.2l2.2-2.7l-13.7-12.2l0,0l-1.3,1.6
	l-0.2-0.6l-2.4-2.1 M178.4,117.4l0.1-0.6 M175.3,119.5L175.3,119.5l-0.3,0.2h0l-0.2,0 M174.2,120c0,0,0.1,0,0.1,0l0.1-0.1l2.1,3.9
	 M174.5,127.9l4.5,1.7 M181.9,113.4l-1.2,0.7 M177.5,112.7l3.2,1.5 M174.9,90.3l-4.5,2.8 M174.2,120l-3.1,1.9 M195.2,126.6l1.5,1.5
	l0.1,0l0.5-0.2h0.3l0.1,0.1l-1.5-1.5 M197.7,127.9l0.1,0.1l0,0.3l-0.1,0.6l-1,1.5l-0.6,0.6l-0.5,0.3l-0.5,0.2h-0.4l-0.1-0.1
	l-0.1-0.1l-1.5-1.4 M193.5,128.4l1.5,1.4l0.6-0.9l0.6-0.6l0.5-0.3 M194.5,131.2v-0.3l0.1-0.6l0.4-0.6 M192.2,129l-0.5,2.5
	 M196.9,124.9l-2.5,1.5 M144.7,57.5c0,0,0.1,0,0.1-0.1 M152.7,62.6h-1.5l-0.1,0h-0.4l-0.1,0h-0.3l-0.1,0.1h-0.3l-0.1,0
	c-0.3,0.1-0.5,0.2-0.6,0.1c-0.4,0.1-0.6,0.2-0.7,0.3l-0.1,0H148l-0.1,0.1l0,0.1l-0.2,0l-0.1,0l-0.1,0.1h-0.1l-0.1,0.1H147l-0.1,0V64
	h-0.1v0.1h0l-0.1,0h0v0h-0.1v0.1h0v0.1l-0.1,0l0,0l0,0.1v0.1h-0.1v0.1h-0.1v0.1h0V65l0,0 M146.9,63.9L146.9,63.9 M116.4,93.7
	c-0.3-0.4-0.6-0.7-0.9-0.7c-0.4,0-0.8,0-1.2,0l-5.5,3.2c-0.2,0.1-0.3,0.2-0.4,0.3c-0.1,0.1-0.2,0.1-0.2,0.2c0,0.1-0.1,0.3-0.3,0.7
	c0,0.2,0,0.6,0.1,1.3l4.3,8.4v0.3l0.1,0.1v0.2l-0.1,0.1c0,0.1-0.1,0.3-0.3,0.6h-0.1l0,0l-0.1,0.1l-0.4,0.1l-0.6,0.3l-1.5,0.5h0v-0.1
	l-0.1-0.1v0l0,0v-0.1l-0.1-0.1V109l0.1-0.1l0.2-0.3l0.3-0.2l0.3-0.3l0.4-0.2l0.4-0.2l0.3-0.2l0.7-0.3l-4.3-8.2
	c-0.1-0.5-0.2-1-0.1-1.3c0.1-0.4,0.2-0.6,0.3-0.7c0.1-0.1,0.3-0.3,0.6-0.5 M88.5,123.9l-1.2,0.5h-0.2l-0.2,0.1h-0.1l-0.2-0.1h-0.2
	l-0.1-0.1l-0.2,0l-0.2-0.2l-0.2-0.1l-0.4-0.4l-0.1-0.2l-0.2-0.2l-0.1-0.2l-0.1-0.3c-0.4-0.5-0.5-1.2-0.5-1.9c0.1-0.6,0.3-1,0.7-1
	c1-0.7,2.4-1.3,4.2-2c2.4-0.9,3.9-1.5,4.5-1.8l-0.1-0.2l0-0.3l-0.1-0.2c0,0,0-0.2,0-0.6c0-0.2,0-0.3,0.1-0.5h0.1l0.2-0.2l1.3-0.7
	c-0.1-0.5-0.1-0.9,0-1c0.1-0.1,0.3-0.3,0.6-0.6l6.7-3 M110.1,111.1l14.8-5.5v-0.1h0.2v0h0.2v0h0.2l0,0.1h0.1v0h0.1l0,0.1l0.1,0h0
	v0.1h0.1v0h0v0.1h0.1v0l0,0v0.1h0.1v0.1h0l2,3.9v0.7l0,0.1v0.1l-0.1,0v0.1h-0.1v0.1h0v0h-0.1v0.1h-0.1v0.1h0l-15.1,4.5h-0.2v0h-0.2
	l-0.1,0h0l0-0.1h-0.1V116h0v0h-0.1l-0.1-0.1h0v-0.1l-0.1,0v0h0v-0.1l-1.5-2.9H110v-0.1l0-0.1v-0.2l0-0.1v-0.6h0v-0.2L110.1,111.1
	L110.1,111.1L110.1,111.1L110.1,111.1z M137.1,100.5l-9,3.3l-7.4,2.7l-5.2,1.9l-0.6,0.2l-28.5,10.5l0.2,0.6l21.3-7.9v0h0.6v0h0.1
	l0.1,0.1h0v0h0.1l0,0.1l0.1,0h0v0.1h0.1v0l0,0.1v0h0.1v0.1h0v0l0.1,0l1.4,3v0.1l0.1,0.1v0.3h-0.1v0.3l0,0v0.1h-0.1v0.1h0v0h-0.1v0.1
	h0l-21.9,6.7l0.4,0.7l16.8-5.1h0.1l0-0.1h0.2v0h0.2v0h0.3v0.1h0.1l0.1,0h0l0.1,0h0v0.1h0.1v0.1l29.1,16.8h0.1l0,0h0v0.1h0.1l0.1,0
	l0,0.1l0.1,0.1v0h0v0.1h0.1v0l0,0.1v0h0.1v0.1h0v0.1h0.1v0.2h0v0.3 M87.2,119.9l1.6,3.2 M137.6,135.4L137.6,135.4L137.6,135.4
	l-0.1,0.1h0v0h-0.1l0,0.1h-0.4v-0.1h0l-26.5-15.2v0l0-0.1l-0.1-0.1v0H110v-0.1l0-0.1v0l0,0v-0.1l-0.1-0.1v0l-0.1,0v-0.2l0,0V119h0
	v-0.7h0v-0.1l0-0.1v0h0.1v0l0.1-0.1h0v-0.1h0.2l0.1,0h0l0.1,0h0l28-8.5 M93.5,115.8l0.1,0.2 M107.1,106.1l-12.2,7 M138.2,108.5
	l-4.7,1.5h-0.2v-0.1H133l0,0h-0.1v-0.1h-0.1v0h0l0,0h-0.1v-0.1h-0.1v-0.1h0v0h0v0h-0.1v-0.1h-0.1v-0.1h0l-1.8-4.2l-0.1,0v-0.3
	l-0.1-0.1v-0.1l0.1,0v-0.4h0.1v0l0-0.1v0h0v0v-0.1h0.1v0 M135.5,93.9l-20.4,11.7c-0.5,0.5-0.7,1-0.6,1.5c0.1,0.3,0.2,0.8,0.4,1.6
	 M120.8,106.5l0.5-1.1l5.5-2l1.4,0.4 M129,104.4L129,104.4l0.1,0.1v0.1h0v0h0.1v0h0l0.1,0.1v0.1h0l0.1,0v0h0v0.1h0.1v0.1l0,0l1.9,4
	v0.9h0v0.1l-0.1,0v0.1h0v0l-0.1,0.1h0v0h-0.1l0,0H131l-0.5,0.2v0H130v0h-0.1v-0.1h-0.1v-0.1h-0.1v0h0v0h-0.1v-0.1h0l-0.1,0l0-0.1
	l-0.1,0v-0.1h0v0H129V110l-2-3.8v0l-0.1,0v-0.9l0.1,0V105h0v0h0.1v0h0v-0.1h0.1l0-0.1l0.8-0.3h0v0h0.6v0H129z M121.1,101.1l4.6-1.9
	 M119.5,99.4l1.3,2.4 M143.7,121.7l0,0.3l0.2,0.3h0.1c0,0.4,0,0.6,0,0.7l0,0v0.2l0.1,0v0.3h0v0.3l0.1,0.1v0.2h0 M146.5,131.1v0.3
	h0.1v0.2l0,0v0.1l0.1,0v0.1h0v0.1l0.1,0v0.1h0v0l0,0.1v0h0.1l0.1,0.1v0h0v0.1h0v0h0.1v0.1h0.1l0,0h0v0.1h0.1l0.1,0h0.1v0.1h0.1v0
	h0.1v0.1h0v0l0,0.1h0.1v0l0.1,0.1v0h0v0h0v0.1h0.1c0,0.1,0,0.2,0.1,0.4l0,0v0.1h0.1c0,0.3,0,0.5,0,0.6l0.1,0v0.2l-0.1,0v0.2l0.1,1.4
	 M143.7,132.6L143.7,132.6l-0.1,0.1v0.1l-0.1,0v0.1h0v0.1h0v0.1l-0.1,0v0.1l-0.1,0v0.1l0,0v0.1l0,0v0.1l-0.1,0.1v0.2l-0.1,0.1v0.2
	l0,0.1v0.3l0,0v0.5 M143.6,121.9l-1.3,13.7 M130.4,103.7l7-2.6 M136.7,96.1l-21.1,12.4 M141.1,155.7c-0.1-0.5-0.3-0.9-0.7-0.9
	c-0.5-0.1-0.6,0.2-0.5,0.9l0.3,0.6l0.2,0.2l0.2,0.1h0.2l0.1-0.1l0.2-0.4L141.1,155.7z M162.8,140.7l-0.9,0.5 M165.3,145.3l-0.8,0.5
	 M163.3,149.5l-0.8,0.5 M164,137.7l1.6-0.9 M164.7,82.6L164.7,82.6"/>
<path id="Layer1_4_MEMBER_1_MEMBER_0_MEMBER_14_MEMBER_2_1_STROKES" class="st12" d="M341.3,73.5l4.6-2.7l0.7-0.9l-0.4-1L332.5,58
	l-7.2-4.1l-1.3-0.4l-1.4-0.1l-1.5,0.1l-1.2,0.5l-5.3,3l-0.8,0.8l-0.3,0.8l0.3,0.8l0.8,0.8l23.9,13.4l0.6,0 M317.8,58.1l-0.7-0.1
	l-0.6,0.3l-0.2,0.3l0.4,0.4l0.6,0.1l0.7-0.1l0.4-0.3l-0.1-0.4L317.8,58.1z M323.6,55.3l-0.5-0.3l-0.7,0l-0.6,0.2l-0.1,0.3L322,56
	l0.6,0.1l0.7-0.1l0.3-0.3L323.6,55.3z M340.1,71.2l-0.6-0.2l-0.7,0.1l-0.3,0.3l0.1,0.4l0.5,0.2l0.6,0.1l0.6-0.3l0.1-0.4L340.1,71.2z
	 M308.9,91.7l-0.7-0.7l-24.3-13.6l-1.7-0.4l-1.8,0.4l-7,4.2l-0.7,0.6V83l0.7,0.6l3.3,1.9l1.2,0.7l3.2,1.8l0.3,0.2l2.7,1l0.6,0.2
	l15.9,6.2l0.2,0.1l1.1,0.2l1.2,0l0.7-0.3l0.3-0.1l2.3-1.4l0.3-0.2l0,0l1.5-0.9l0.7-0.6V91.7z M151.5,83c0.3,0,0.6-0.1,0.9-0.4
	c0.3-0.3,0.5-0.5,0.6-0.9c1.1-1.1,1.1-2.7,0-4.9c-1-2.2-2.3-3.3-3.8-3.2c-0.9,0-1.8,0.4-2.6,1.1c-0.2,0.2-0.4,0.4-0.7,0.7
	 M156.2,107.6L156.2,107.6l-0.2-0.1l-0.1-0.1h0l-0.1,0h-0.3l0,0h-0.1l0,0.1v0h-0.1v0.2l0,0v0.2l0,0v0.1l0.1,0v0.2l0,0v0
	c0.1,0.1,0.2,0.3,0.4,0.5l0.1,0l0,0.1h0.1l0,0.1h0.1l0.1,0l0,0h0.1l0.1-0.1h0v-0.1l0.1,0v-0.1l0-0.1v-0.1l0-0.1v-0.2l-0.1-0.2v0
	l0-0.1l-0.1,0v-0.1l0-0.1L156.2,107.6L156.2,107.6z M168.6,134.3l1.1-0.5 M197.9,127.6l0.5-2 M276.1,82.4l0.2,0.3l0.4,0.2l0.7,0
	l0.6-0.2l0.1-0.4l-0.3-0.3l-0.6-0.1l-0.6,0.1L276.1,82.4z M278,86.2v1.1l1.6,5.4l0.8,1.8l1.4,1.2l0.6,0.3l0.2,0h0.3l0.7-0.2l0.5-0.6
	l0.1-0.9v-0.2L283,93l-0.9-1.8l-0.9-3.2 M283.1,79.7l0.2-0.4L283,79l-0.6-0.1l-0.6,0.1l-0.3,0.3l0,0.4l0.4,0.2h0.6L283.1,79.7z
	 M251.8,75.4l-1.5-0.9l-0.7,1.2l0.7,1.9l1.5,0.8l0.8-1 M304.9,91.5l-0.6,0.1l-0.4,0.3l0.1,0.4l0.4,0.2l0.7,0.1l0.6-0.2l0.1-0.3
	l-0.3-0.4L304.9,91.5z M306.4,94.1L306.4,94.1l0.3-0.2 M284.7,89.4l0,5.3l0.1,1.1l0.5,1.2l1.6,2.2l0.7,1.4l0.5,1l0.2,0.2l1.1,1
	l0.9,0.4h0.9l9.2-3.3l0.6-0.5l0.2-0.8v-1.1l-0.3-1.1l-0.4-0.7 M287.8,100.5l0.5,1.8l0.1,1.7l-0.5,1.3l-1,0.7l15.5-5.7l0.7-0.5
	l0.4-0.8l0.1-3.4 M303.3,99.8l2.5-1.5l0.4-0.9l0.2-1.1v-1.2l0-1.2 M283.6,95.9l0.2-0.1l0.3-0.4 M280.9,97.4l-0.2,1.5l0.2,1.7
	l0.4,1.4l0.7,1.2l0.9,1.2l1,0.9l1,0.6l1,0.3l1-0.1 M282.4,100.3l0.3,1.1l0.6,1l0.7,0.8c0.6,0.6,1.2,0.9,1.8,0.8c0.6-0.1,1-0.6,1-1.5
	l-0.1-1.1l-0.5-1l-0.7-0.9l-0.8-0.7l-0.8-0.4h-0.7l-0.6,0.4l-0.2,0.8V100.3z M283.4,98.5l-0.6,0.3l-0.2,0.7v0.9l0.3,1l1.2,1.7
	l0.7,0.4l0.7,0.2l0.6-0.2l0.4-0.5l0-0.8l-0.1-0.9l-0.3-0.9l-0.6-0.9l-0.8-0.7l-0.7-0.3H283.4z M282.1,99.3c-0.1,0.8,0.1,1.6,0.6,2.6
	c0.5,0.9,1,1.6,1.7,2.1c0.7,0.5,1.4,0.6,2,0.3c0.6-0.3,0.8-0.8,0.8-1.7l-0.1-1l-0.4-1.1l-0.6-1l-0.8-0.8c-0.6-0.6-1.3-0.8-1.8-0.8
	C282.7,97.9,282.3,98.4,282.1,99.3z M284.9,95.8l0.3,0.7l0.2,0.4 M284.2,94.2l0-5 M276.8,85.5l4.2,15 M265.4,78l11.4-11.6
	 M260.6,75.2L274.4,61 M222.7,113.2l30.1-31 M224,120.1l33.6-34.5 M112.8,51.9h-0.2l0,0h0l-0.1,0h-0.1l0,0.1h-0.1l-0.1,0l0,0.1
	l-0.1,0l0,0.1l-0.1,0l0,0.1l-0.1,0l0,0.1l-0.1,0l0,0.2l-0.1,0V53l0,0.1l-0.1,0.1v0.1l0,0.1c0,0.2,0,0.4-0.1,0.7c0,0.2,0,0.3,0,0.4
	c0,0.1,0,0.2-0.1,0.2v0.7c0,0.1,0,0.4,0,0.8c-0.2,0.6-0.4,1-0.5,1.3l0,0.1l-0.1,0.1l0,0l-0.1,0.1l-0.1,0.1l0,0l0,0.1l-0.1,0
	l-0.1,0.1h0l-0.1,0h0l-0.1,0.1l21.5,12.5c-0.1-1,0.2-2.1,1.1-3.5c1.1-1.8,2.3-2.7,3.6-2.6l-22.1-12.7L112.8,51.9L112.8,51.9
	L112.8,51.9z M130.7,71.1c0.1,0.5,0.3,1,0.7,1.4l1.1,0.7c-0.8-0.9-0.9-2.3,0-4c0.8-1.7,1.8-2.7,3-3.1 M146.6,74.8l-0.7-0.5
	 M132.4,73.2l1,0.5c-0.4-0.5-0.5-1.4-0.2-2.6c0.2-1.1,0.6-2,1.1-2.8 M150.9,82.8c0.8-1.4,0.5-3.2-0.8-5.5c-1.4-2.3-2.7-2.9-4.1-1.6
	 M136,65.2c-0.2-0.1-0.4-0.1-0.6-0.1 M110.8,54.7c-0.5,0.4-0.9,0.7-1.1,1c-0.4,0.3-0.7,0.7-0.9,1.1v0l0,0.1l-0.1,0.1v0l0,0.1v0.1
	l-0.1,0.1v0.2l0,0v0.5l0,0v0.2l0.1,0.1v0h0.1l0,0.1h0.3 M101.4,104.9l2.3-1.1l0-0.1l-0.1-0.1c-0.1,0-0.3,0-0.4-0.1l-1.8-0.8
	l-0.3-0.2v-0.8l1.3-0.7v-0.2l0.1-0.1l0.1-0.1l0-0.1l0.1-0.1v-0.4l0.1-0.1l0-0.1l0,0l0.2,0l0,0l0.1-0.1h0.2l0.1,0h0.3l0.1,0h0.1
	 M103.3,100c-0.1,0-0.1,0-0.2,0 M103.3,100L103.3,100l-0.1-0.1v0.1l0,0c-0.1,0-0.1,0.1-0.2,0.1l-0.2,0 M102.4,100.9l1.7-1
	c-0.2,0-0.4,0-0.5,0c-0.1,0-0.2,0-0.3,0.1 M110.3,105c-0.4-0.1-1-0.4-1.9-1.1c-0.7-0.8-1.1-1.5-1.4-2.1c-0.8-1.9-0.8-3.3,0.2-4.1
	l-1.5,0.8l-0.8,1.6c0,0.1,0,0.2,0,0.3c0,0.4,0.1,0.7,0.2,1.2c0,0.1,0,0.1,0,0.2 M105.1,101.8l0,0.1c0,0.1,0.1,0.2,0.1,0.3
	c0.1,0.4,0.3,0.8,0.5,1.2l1.2,1.5c0.1,0.1,0.1,0.1,0.2,0.2c0.1,0,0.1,0.1,0.2,0.1c0.1,0.1,0.3,0.2,0.5,0.3c0.1,0.1,0.3,0.2,0.5,0.2
	c0.2,0.1,0.4,0.1,0.5,0.1c0.1,0,0.3,0,0.4,0l0,0h0.1c0.1,0,0.3-0.1,0.4-0.1l0.1-0.1l0.6-0.3 M103.2,99.9l0-0.4 M104.9,99.5l-0.8,0.5
	 M116.6,101.7l-1.3,0.7 M116.6,101.7l-0.4,0.1h-0.4l-0.9-0.2c-0.9-0.5-1.6-1.2-2.1-2.3c-0.4-0.7-0.7-1.5-0.8-2.3
	c-0.1-1,0.2-1.8,0.7-2.2l-1.4,0.8c-0.6,0.5-0.9,1.2-0.7,2.2c0.1,0.7,0.3,1.5,0.7,2.3c0.6,1,1.4,1.7,2.2,2.2l0.5,0.2l0.4,0.1l0.4,0
	l0.4-0.1h0.1l-0.6,0.3h-0.1l-0.3,0.2l-0.9,0l-0.4-0.2c-0.9-0.5-1.6-1.2-2.2-2.2c-0.4-0.7-0.7-1.5-0.8-2.3c-0.1-1.1,0.1-1.8,0.7-2.2
	l0.6-0.3 M103.3,103.5c-0.1,0-0.1-0.1-0.2-0.1c-0.1-0.1-0.3-0.2-0.4-0.4c0-0.1,0-0.1,0-0.1l-0.4-0.2v-0.2V102c0-0.1,0-0.2,0.1-0.3
	l-1.4,0.7 M102.7,102.9c0-0.1,0-0.2,0-0.2v-0.3l0.1-0.1l0.2-0.1l0.3-0.1h0.6l0.3,0l0.3,0.1l0.1,0.1l0.1,0.2v0.4l0,0.1v0
	c-0.2,0.4-0.6,0.6-1,0.6c0,0-0.1,0-0.1,0 M105.8,103.5c-0.2-0.4-0.4-0.8-0.5-1.2l-1-0.6c-0.5,0-0.9,0.1-1.3,0.2l-0.3,0.1l0,0.1
	l-0.2,0.3 M101.3,105.4l0.5-0.1l2.2-0.9c-0.1-0.2-0.2-0.3-0.3-0.5l0-0.1 M107.9,99.8c0.4,1,0.6,1.6,0.6,1.8c0.2,0.4,0.6,0.9,1.2,1.6
	 M108.8,105.9l-0.2,0.2l0,0l0.3,0c0.1-0.1,0.2-0.2,0.3-0.3c0,0,0.1,0,0.1,0 M109,106.2c-0.2,0.1-0.4,0.2-0.6,0.1
	c-0.3,0-0.6-0.2-0.9-0.5v-0.1l-0.1,0l-0.3-0.2l-0.1,0 M106.9,105.4l-0.6,0.3c-0.3,0.2-0.7,0.1-1.1-0.1c-0.4-0.3-0.7-0.6-1-1
	c-0.4,0.2-1.3,0.6-2.8,1.2 M105.1,101.8c0-0.1,0-0.1-0.1-0.2l-0.8-0.5v0.6 M104.8,102.9c-0.1-0.2-0.1-0.3-0.2-0.3
	c-0.1-0.1-0.2-0.1-0.2-0.2h-0.1l-0.1-0.1h-0.3c-0.2,0.1-0.5,0.1-0.7,0.1c-0.2,0.1-0.4,0.2-0.4,0.3 M105.2,102.3
	c0-0.1-0.1-0.2-0.1-0.3 M104,103.5L104,103.5L104,103.5l0-0.2l0.1-0.1l0.1-0.1l-0.2-0.1L104,103l0,0.1l-0.1,0l-0.2,0l-0.2-0.3
	l-0.2,0.1l0,0.1l0.1,0.1l0.1,0.1h-0.3 M105,101.6c-0.1-0.4-0.2-0.8-0.2-1.2l-1.4,0.7c0.2,0,0.5,0,0.7,0 M104.5,105.1L104.5,105.1
	l-0.2,0.1l-0.3,0.2l-2.1,1.3 M102.4,107.1l1.1-0.6l0.8-0.5l0.7-0.4l0.1,0 M104.1,104.3c0,0.1,0.1,0.2,0.2,0.2 M104.3,105.2
	c-0.3,0.2-0.7,0.4-1.2,0.6c-0.6,0.3-1.1,0.5-1.4,0.6 M107.2,105.1l-0.3,0.2 M107.3,105.7l0-0.4 M108.1,106.1l-0.2-0.6 M103.4,101.2
	l-1,0.6 M86.7,121.9c-0.1-0.6-0.3-0.9-0.7-1c-0.4,0-0.6,0.3-0.4,1c0.1,0.6,0.3,1,0.7,1C86.7,122.9,86.9,122.6,86.7,121.9z M123.2,93
	l3.3-1.5l0.5-0.2 M118.7,98.3L118.7,98.3l-0.2,0h-0.4l-0.1,0h-0.1l-0.1-0.1l-0.2-0.1l-0.1-0.1l0,0l-0.1,0l-0.1-0.1l-0.1-0.2
	l-0.1-0.1l-0.1-0.2l0-0.1l0-0.1c-0.1-0.1-0.2-0.3-0.2-0.5c0-0.1-0.1-0.3-0.1-0.4c0,0,0-0.1,0-0.1c-0.1-0.3,0-0.6,0-0.7c0,0,0,0,0,0
	V95l0-0.1l0.1,0l0.1-0.1l0.1-0.1l0.5,0.2c0.4-0.2,0.8-0.4,1.3-0.7c0.4-0.2,1-0.3,1.6-0.4c0.4-0.1,0.9-0.1,1.6-0.2
	c0.1-0.1,0.1-0.2,0.3-0.3l0.9-0.5l0,0.1l-0.1,0v0.1l0,0.1v0.6l4.6-1.9c0,0.2-0.4,0.4-1.2,0.8c-0.7,0.4-1.2,0.6-1.3,0.7l-1.5,0.7
	l-0.5,0.2c0.1,0.2,0.2,0.5,0.5,0.8c1.7-1,2.9-1.7,3.6-2.2l-2.4,1.3l-1.2,0.4 M122.9,93.7L122.9,93.7l0,0.3l0.1,0.1 M125.3,95
	L125.3,95l0,0.2l-0.1,0.1l-0.2,0.2l-0.1,0.1h-0.1l-0.9,0.6c-0.4,0.1-0.7,0-1-0.2c-0.3,0.1-0.6,0.2-0.9,0.4l-0.8,0.6H121l0,0
	l-0.1,0.1l-0.1,0l-0.1,0.1l-0.1,0.1l0,0l-0.1,0.1l-0.1,0.1l0,0.1l-0.1,0.1l-0.1,0.1v0l0,0.1c-0.1,0.5-0.3,0.8-0.6,1
	c-0.1,0.1-0.2,0.1-0.3,0.1c-0.1,0.8-0.3,1.3-0.7,1.5c-0.1,0.1-0.2,0.1-0.3,0.1l-1.2,0.7 M116.7,101.7L116.7,101.7L116.7,101.7
	 M123.5,94.9c0.1,0.1,0.1,0.1,0.2,0.2l0.1,0l0.1,0.1l0,0.1l0.1,0l0.1,0.1h0.2l0.1,0l0,0h0.1l0.2-0.1 M124.3,95.2l3-1.7 M118.9,94.7
	c-0.3,0.1-1.1,0.5-2.6,1.3 M121.8,94c-1.1,0.1-2,0.3-2.9,0.7 M121.8,94c0-0.2,0-0.4,0.1-0.6 M116.7,97.2c2.2-1.1,4-1.9,5.4-2.1
	c0,0,0,0,0,0c-0.1-0.2-0.2-0.4-0.3-0.6c-1.2,0.3-2.2,0.6-2.9,0.9c-0.4,0.1-1.3,0.5-2.6,1.2 M121.9,94.4c0-0.1-0.1-0.3-0.1-0.4
	 M112.7,94.8l1.2-0.7c0.1-0.1,0.1-0.1,0.2-0.1c0.4-0.3,1-0.2,1.7,0.1L116,94c0.4-0.4,1-0.4,1.8,0.2 M113.9,94.1
	c-0.2,0.2-0.4,0.5-0.5,0.9c-0.3,1.2-0.1,2.3,0.6,3.4c0.5,1.2,1.4,2,2.6,2.5c0.5,0.2,0.9,0.2,1.2,0.1 M115.9,94.1
	C115.9,94.1,115.9,94.1,115.9,94.1l-1.3,0.6c-0.4,0.4-0.6,1-0.5,1.7c0.1,0.6,0.3,1.2,0.6,1.7c0.3,0.6,0.7,1.1,1.3,1.5
	c0.7,0.5,1.3,0.5,1.8,0.2l1-0.6c-0.3,0-0.6,0-0.9-0.1c-0.9-0.5-1.6-1.2-2.1-2.3c-0.5-1-0.5-1.8-0.1-2.6
	C115.8,94.2,115.9,94.2,115.9,94.1z M115.9,94.1c0,0,0.1-0.1,0.1-0.1 M118.9,99.3l0.3-0.1 M121.9,96.3c-1.7,0.7-3,1.3-3.9,2
	 M117.3,97.8c0.3-0.2,2-1,5.1-2.4c-0.1-0.1-0.1-0.2-0.2-0.4 M116.3,95.2c0.3-0.1,0.6-0.2,1-0.4 M122.8,95.9
	c-0.2-0.1-0.3-0.3-0.5-0.5 M142.4,156.7v-2.4 M157.4,148.2L157.4,148.2L157.4,148.2l0-0.1l-0.2-0.2h0v0l0-0.1h-0.1l-0.1,0l0-0.1h0
	l-0.1,0h-0.1l0-0.1H156 M105.1,101.8L105.1,101.8 M116.7,101.7L116.7,101.7 M106.9,105.4L106.9,105.4 M105,101.6L105,101.6
	 M105.3,102.3L105.3,102.3 M118.9,99.3C118.9,99.3,118.9,99.3,118.9,99.3"/>
<path id="Layer1_4_MEMBER_1_MEMBER_0_MEMBER_14_MEMBER_3_1_STROKES" class="st13" d="M316.1,60.9l0.5,3.5l1.1,3.9l4.5,3.4
	c0.2,0.2,0.3,0.3,0.5,0.5l0.2-0.7v-0.1l-1.4-1.2l-0.9-1.8l-1.6-5.8 M302.2,87.3l12.3-7.2l-8.3-8.7L288.1,54
	c-1.5-0.2-2.6-1.4-3.1-3.5c-0.6-1.8-0.5-2.8,0.3-3.2c0.1-0.1,0.2-0.1,0.3-0.2l0.5-0.5l0.5-0.2l0.1-0.1l0.6,0.1l0.1-0.8l0.4-0.6
	l0.7-0.6l0.6-0.3c0.2-0.1,0.3-0.1,0.5-0.1c0.6-0.1,1.2,0.2,1.9,0.9l0.3,0.2l0.2,0.3l0.2,0.4l0.4,0.6c0.2,0.7,0.4,1.3,0.4,1.7
	l18.5,15.6l5.2,3.9l-2.2-7.6 M308.7,68.4l-0.5-2l-1.4-1.2l-0.9,1l0.5,2l1.4,1.1 M314.5,80.1l4.2-2.4l0.5-0.4h0.6l0.7,0.4l0.8,0.6
	l0.6,0.8l0.6,2l-0.1,0.7l-0.4,0.5l-3.5,2.1c1.2,1.1,2.3,1.6,3.4,1.5c0.4,0,0.7-0.1,1-0.3c0.1-0.1,0.2-0.1,0.3-0.2
	c0.5-0.4,0.9-1.1,1.2-2c0.4-1.6,0.3-3.4-0.4-5.4c-0.6-1.8-1.5-3.4-2.7-4.8L308,63l-1.4-0.3l-0.8,1.2l-0.8,3.8l0.1,1.9l1,1.9
	 M314.6,72.2l-1.4-1l-0.9,0.9l0.4,2l1.5,1.1l0.9-0.9L314.6,72.2z M317.7,68.4l-0.9-0.7 M323.4,72.5l0.2,0.5l-0.3-1.1L323.4,72.5z
	 M324.1,74.1l-0.5-1.1l0.2,0.7L324.1,74.1z M324.1,74.1l0.7,1c0.4,0.5,0.7,0.9,0.9,1.3c0.1,0.1,0.2,0.2,0.2,0.3l0.5,1l0.2,0.5
	l0.3,0.4l0.1,0.3 M326.5,77.8l0.5,1.8l0.1,1.7l-0.5,1.3l-0.9,0.7l15.5-5.7l0.7-0.5l0.4-0.8l0.1-1.1v-2.3 M322.7,72.3
	c2.6,3.2,3.7,6.6,3.3,10.2l-0.6,1.3l-0.9,0.9l-1.2,0.7 M327.3,79.1l0.9,0.8l0.8,0.4h0.9l9.3-3.4l0.6-0.5l0.3-0.7v-1l-0.4-0.9h-0.3
	 M341.9,77l2.5-1.5l0.4-0.8l0.1-1.1v-2.3 M339.7,73.8h0.4c0.5,0,0.7,0,0.7-0.1l0.1-0.1 M322.8,64.7l0.1,6.7 M323.3,65l0,6.9
	 M285.6,47.2c0.1,0,0.3,0,0.5,0l0.1-0.1l0.5-0.5 M286,47.1c0.1,0,0.1,0,0.2,0c1.6,0.1,2.7,1.2,3.4,3.4c0.3,1.2,0.4,2.1,0.2,2.7
	l0.4-0.4v-0.1l0.2-0.7l0.1-0.6v-0.4 M285.7,56.3l1.2-0.1h0.6l0.4,0.1l0.3-0.4l0.1-0.4l0.1-0.5l-0.1-0.4c0,1.2-0.5,1.7-1.6,1.6
	c-1-0.1-1.8-0.5-2.6-1.3c-0.7-0.9-1-1.4-1.1-1.5c-0.3-0.5-0.4-1.1-0.3-1.8c0.2-0.4,0.5-0.6,0.6-0.7c0.2-0.1,0.5-0.2,0.9-0.2
	l-0.4-0.1l-0.5,0.1l-0.4,0.1l-0.4,0.3l0,0.1l0.1,0.2v1.2l-0.1,0.9l0.8,0.6l1.5,1.5l0.6,0.9l-3.9,4.1c0.1,0.1,0.3,0.1,0.4,0.1
	l0.1,0.1c0.2,0.1,0.6,0.1,1,0c0.5,0,0.8-0.2,0.9-0.3l4.1-4.2 M286.1,50.4l0.3,0.6l0.4,0.6l0.5,0.3h0.5l0.3-0.3l0.1-0.6l-0.2-0.6
	l-0.3-0.6l-0.5-0.4l-0.5-0.2l-0.4,0.1l-0.2,0.4L286.1,50.4z M289.1,44.9l-0.6,0l-0.6,0.3 M288.2,46.3l-0.7,0.2l-0.2,0 M290.2,49.7
	l-0.3-1l-0.7-0.9l-0.4-0.4 M292.1,47.3l1.1,0.9 M248.6,58.8l-0.1-1.5l-0.1-0.2l-0.4-0.5l-0.1-0.5l0.3-0.3l0.2-0.1l-0.2-1.4l-0.1-0.3
	l-0.3-0.5l-0.1-0.5l0.4-0.4l-0.1-1.4l-0.3-0.4l-0.1-0.1l-0.1-0.3l-1.5-17.9 M251.1,31.7l1.7,21.2l-0.1,0.3h-0.2l-0.2,0.1l0.2,1.4
	l0.1,0.3l0.3,0.5l0.1,0.5l-0.2,0.3l-0.2,0l0.2,1.5 M251,65.8l0.1,2.2l0.1,0.7l0.3,0.6l0.5,0.7l0.2,0.9v0.2l0,0.2v0.4l0.1,0.6
	l0.5,1.5l19.5,11.9l0.1,0l5.2,2.8 M281.4,101.7l-9.5-7.1h-0.1l-21.1-14.6c-1-0.8-1.8-1.9-2.4-3.3c-0.7-1.6-0.6-2.8,0.2-3.7l0,0
	l0.4-2.5l-0.1-0.2V70l-0.1-0.3v-0.1l-0.1-0.1l0.2-0.8l0.3-0.2l0.2-0.5l-0.2-2.8 M250.4,70.9l0.3,0.1l0.6,0.6l0.8,1.8v0.1l1.2,3.1
	l0.2,1.5v0l-0.2,0.5l-0.1,0.4l-0.3,0.3l-0.6,0.2h-0.4l-0.5-0.2c-1.2-0.5-2.1-1.6-2.5-3.4v-1.3l0.6-2.1l0.1-0.3l0.5-0.8v-0.2
	L250.4,70.9z M252.1,70.1l-3.1-1.5 M252.8,74l0.8,2.9l0.2,1.4l-0.2,0.9l-0.1,0.1l-0.3,0.5h-0.1l-0.2,0.1l0,0.1l-0.6,0l-0.3,0l-1-0.4
	l-0.2-0.2l-0.6-0.4v-0.1l-0.5-0.5l-0.8-1.3l-0.1-0.1c-0.2-0.7-0.3-1.2-0.3-1.4c-0.1-0.2-0.1-0.6,0-1.4l0-0.4l0.2-0.5V73l0-0.1
	 M254.2,68.8l0.2,0.9 M251.8,75.4l0.8,2 M288.1,54c0.1,0,0.1,0,0.2,0c0.7,0.1,1.1-0.1,1.4-0.5c0.1-0.1,0.1-0.2,0.2-0.3 M282.5,53.5
	l-4,4.2v0.1l0.1,0.2l0.1,0.2l1,1.2c0.7,0.6,1.3,1,1.8,1.2 M283.8,51.3c-1,0.7-0.7,1.8,0.7,3.1c1.4,1.4,2.5,1.6,3.2,0.6 M282.5,51.2
	l-3.9,4c-0.5,0.6-0.7,1.2-0.4,1.9l0,0l0.1,0.2v0.1l0.1,0.2l0,0 M278.2,57.1l-3.8,3.9 M281.9,60.8l-5.7,5.9 M254.6,72.9l19.6,11.9
	l5.3,2.8 M273.9,91.1l-0.8-1.9l-1.5-0.9l-0.7,1.1l0.7,1.9l1.5,0.8L273.9,91.1z M272.3,85.8l-1.4-0.1l-0.6,1.2l-0.2,3.9l0.4,1.9
	l1.3,1.8 M279.9,96.6l-1-0.5l-0.8-2l0.7-0.9 M287.3,105.9c0.8,0.4,1.6,0.5,2.4,0.2c0.8-0.2,1.4-0.8,1.7-1.7 M290.6,48.2L308,63
	 M318.5,84.3l-10.6,6.2"/>
<path id="Layer1_4_MEMBER_1_MEMBER_0_MEMBER_14_MEMBER_4_1_STROKES" class="st13" d="M246,32.4c-0.1-0.6-0.1-1.1,0.1-1.5l0.2-0.4
	l0.2-0.1l0.2,0l0.5-0.2l0.3,0.1c0.3,0,0.5,0.1,0.7,0.3c0.3,0.4,0.5,0.6,0.7,0.7c0.2,0.1,0.4,0.2,0.6,0.4c0.2,0.1,0.5,0.1,0.7,0
	c0.5,0,0.9-0.3,1-0.8c0.1-0.5,0-0.9-0.4-1.2l-0.1-0.1l-0.2,0l-0.2-0.1l-0.2,0h-0.3l-0.2,0h-0.1l-0.1,0.1l-0.1,0l-0.1,0.1l0,0
	l-0.2,0.1l0,0 M201.7,134.8l22.1-22.7 M253.1,57.1c0.7,0.6,0.8,1.2,0.2,1.8l0.4-0.4l0.2-0.1v-0.1l0-0.3l-0.1-0.3l-0.3-0.3
	L253.1,57.1z M253.3,58.9L253.3,58.9l-0.5,0.9 M253.3,59c0,0-0.1,0.1-0.1,0.1c-0.6,0.5-1.3,0.8-2.1,0.9l0.7,0l0.8,0.2l0.5,4.5
	l0.1,0.3l0,0.1c0,0,0.1,0,0.1,0l0.1,0l0.1-0.1l0.1,0l0.1-0.2l0,0l0.1,0v-0.2l0.1-0.1V64l0.1-0.1l0-0.1v-0.1l0-0.2l-0.4-5.1
	 M248.4,58.2c0.1,1,0.9,1.4,2.4,1.3l0.9,0l0.7-0.3l0.5-0.4l0.3-0.5l0-0.4 M251,60h-0.1c0,0-0.1,0-0.1,0h-0.1l-0.8,0l-0.8,0.2l0,0
	l0.4,5.2c0.3,0.1,0.6,0.2,1,0.2c0.9,0,1.5-0.1,2-0.2c0.1-0.1,0.4-0.2,0.7-0.3l0.1,1.8l0.1,0.6l0.3,0.7l0.4,0.7 M248.3,57.4l-0.3,0.3
	l-0.3,0.4l-0.1,0.3v0.4l0.1,0l0.2,0.1l0.5,0.4l0.8,0.8 M250.7,60c-1.3,0-2.3-0.3-2.8-1l-0.1-0.3v-0.3l0-0.4l0.2-0.3 M247.6,58.9
	l0.4,4.9c0.1,0.3,0.1,0.5,0.1,0.7l0.1,0.1l0.1,0.1l0,0.1l0.1,0.1l0.1,0c0.2,0.2,0.5,0.3,0.8,0.4 M255,73l-0.7-2.4v-0.1l0.1-0.5
	 M254.6,72.9l-1-0.4l-0.7,0.6 M254.2,72.4l-0.4-1.4l-1,0.7 M199.6,136.2c-0.3,0.2-0.5,0.5-0.5,0.9c0,0.7,0.4,1.5,1.4,2.6
	c1,1.1,1.9,1.7,2.6,1.6l0.1-0.1 M199.1,137.1C199.1,137.2,199.1,137.2,199.1,137.1c-0.2,0.2-0.2,0.4-0.2,0.6c0,0.1,0,0.3,0.1,0.5
	c0,0.1,0,0.2,0.1,0.3c0.3,0.8,0.6,1.4,1.2,1.8c0.3,0.3,0.5,0.5,0.8,0.7c0.3,0.2,0.6,0.4,0.9,0.5l0.2,0.1h0.6l0.2-0.1l0.1-0.1
	c0.3,0,0.6-0.1,0.9-0.4 M226.9,117.1l-21.3,22.3c-0.7,0.8-1.8,0.4-3.3-1.2c-1.5-1.6-1.8-2.8-0.9-3.5 M204.9,140.1
	c-0.9,0.8-2.1,0.3-3.5-1.3c-1.4-1.6-1.7-2.8-0.8-3.4 M199.1,137.2l-3.7,3.8c-0.2,0.2-0.2,0.4-0.2,0.6c0,0.1,0,0.1,0,0.2
	c0,0,0,0.1,0,0.1l3.7-3.7 M195.2,141.8L195,142l0.2,0.6l0,0.3l0.2,0.3l0.1,0.3l0.2,0.3l0.2,0.3c0.8,0.8,1.6,1.2,2.3,1.2
	c-0.3-0.1-0.6-0.3-0.9-0.5c-0.3-0.2-0.5-0.4-0.8-0.7c-0.6-0.6-1-1.2-1.1-1.8c0-0.2-0.1-0.3-0.1-0.4 M195,142l-0.5,0.6
	c-0.3,0.4-0.3,0.8,0,1.4c0.2,0.3,0.5,0.7,0.9,1.1c0.4,0.4,0.7,0.6,1,0.8c0.6,0.3,1.1,0.3,1.5,0l0.5-0.6c0,0,0,0-0.1,0 M194.4,144
	l-0.6,0.6l0,0.1v0.4l0,0.1c0.1,0.2,0.3,0.5,0.6,0.9c0.4,0.3,0.6,0.4,0.6,0.4c0.2,0.1,0.5,0.1,0.8,0.1l0.1-0.2l0.4-0.5 M193.8,144.6
	l-1.9,0.6l-0.1,0c-0.1,0-0.2,0.1-0.3,0.2c-0.3,0.2-0.3,0.6-0.1,1.2c0.3,0.6,0.6,1.1,1,1.5c0.8,0.6,1.5,1,2,1l0.2-0.1l0.2,0l0,0
	l0.1-0.1l0.1-0.4l0.3-1.2l0.2-0.4 M191.6,147.8c0.3,0.6,0.3,1.1,0,1.5l-4,6.3c-1,1.3-1.8,1-2.6-0.7c-0.8-1.8-0.6-3.2,0.4-4.2
	l5.3-3.3c0.2-0.1,0.3-0.1,0.5,0C191.4,147.5,191.5,147.6,191.6,147.8z M198.3,145.3c0.5,0.2,0.9,0.1,1.1-0.2l3.5-3.6 M191.6,145.3
	l-5.9,3.8c-0.8,0.5-1.2,1.5-1.3,2.9c-0.1,1.2,0.1,2.3,0.5,3.2c0.1,0.5,0.4,0.9,0.7,1.3c0.4,0.4,0.8,0.6,1.3,0.7h0.4l0.3-0.1l0.4-0.2
	l0.1-0.1l0.4-0.5v-0.1l3.6-5.5l1.1,0l-2.9,5.3l-0.3,0.4l-0.2,0.2l0.2,0l0.3,0l0.5-0.3l0.2-0.3l3.9-7.2 M197.3,144.8l3.7-3.8
	 M187.2,153.5c-0.1,1-0.4,1.3-1,1.1c-0.6-0.3-0.8-0.9-0.8-1.7c0.1-1,0.5-1.3,1.1-1C187,152.1,187.3,152.7,187.2,153.5z M188.1,156.8
	l0.6,0.2h0.4l0.7-0.3l0.1-0.1"/>
<g>
	<path class="st2" d="M54.3,52l-2.4,0.6l1.6,0.1c12.7-0.3,25.5,3.6,39.7,11.7l-1.4,3.5l8.8-3.7l-3.7-8.8l-1.4,3.5
		C81.7,52.8,68,50.6,54.3,52z"/>
	<path id="Layer1_10_1_STROKES_3_" class="st14" d="M52.7,52.7c12.7-0.3,26.2,3.5,40.4,11.6l-1.4,3.5l8.8-3.7l-3.7-8.8l-1.4,3.5
		c-13.6-5.9-27.3-8.3-41-6.9l-4.1,0.8C50.1,52.8,50.1,52.8,52.7,52.7z"/>
</g>
</svg>
