<?xml version="1.0" encoding="utf-8"?>
<!-- Generator: Adobe Illustrator 24.2.1, SVG Export Plug-In . SVG Version: 6.00 Build 0)  -->
<svg version="1.1" id="Ebene_1" xmlns="http://www.w3.org/2000/svg" xmlns:xlink="http://www.w3.org/1999/xlink" x="0px" y="0px"
	 viewBox="0 0 349.1 161" style="enable-background:new 0 0 349.1 161;" xml:space="preserve">
<style type="text/css">
	.st0{fill:#666666;}
	.st1{fill:#B1B1B1;}
	.st2{fill:none;stroke:#000000;stroke-width:0.55;stroke-linecap:square;stroke-linejoin:round;}
	.st3{fill:#00AEEF;}
	.st4{fill:#FFCC00;}
	.st5{fill:none;stroke:#000000;stroke-width:0.55;stroke-linecap:square;stroke-linejoin:round;stroke-miterlimit:4;}
	.st6{fill:#0099FF;}
	.st7{fill:none;stroke:#000000;stroke-width:0.55;stroke-linecap:round;stroke-linejoin:round;}
	.st8{fill:#ED1C24;}
	.st9{fill:none;stroke:#ED1C24;stroke-width:0.55;stroke-linecap:square;stroke-linejoin:round;stroke-miterlimit:4;}
	.st10{font-family:'ArialMT';}
	.st11{font-size:12px;}
	.st12{fill:none;stroke:#FFFFFF;stroke-miterlimit:5;}
</style>
<path class="st0" d="M104.9,111.9l-1.1-0.9l-2.4-0.1l-1.3,1.1l0.9,3.9l0.2,2.4l-0.5,4.8l-0.9,2.7l0.8,0.6l0,0l0.9,0.6l2.4,0.1
	l0.7-0.7l0.1,0.2l3.6-3.8l0-8.1l-3.1-2.6l0-1l-0.2,0.4L104.9,111.9 M216,99.8l-2.1,1.7l-0.8,1l0.5,0.7l1.7,4.2l0.6,4.9l-0.5,4.9
	l-0.6,2.4l-0.9,2.1l-1.1,1.8l1.5,1.7l0.7,0.6l1.4,0.9l3.7,1.2l2.7,0.2l2.7-0.2l2.6-0.7l2.2-1.1l2.1-1.9l1.8-2.9l0.1-0.3l1,0.2h0.8
	l1.1-0.3l1.2-0.6l0.9-0.9l0.8-1.2l4.7,0.1l0.4-1h0.7l0.7-0.4l0.7-0.7l0.5-1.1l0.3-1.2v-1.2l-0.2-1.2l-0.5-1l-0.6-0.8l-0.7-0.4
	l-0.9,0l-0.4-1.1l-4.7,0l0-0.1l-0.8-1.2l-0.9-1l-1.1-0.6h-0.8l-1.2-0.1l-0.7,0.1l-0.9-1.8l-0.7-1l-2.1-2.2l-1.1-0.7l-2.2-0.9
	l-1.5-0.4l-2.7-0.3l-2.7,0.1l-2.6,0.6L216,99.8 M86.8,104.8l-2.3-0.1l-1.6,0.3l-1.5,0.7l-1.4,1.2l-2.4,3.3l-0.9,2l-0.6,2.3l-0.2,1.2
	l-0.2,0l-0.5,0.6l-0.6,1.2l-0.2,0.9v1l0.3,0.7l0.5,0.6v0.3l0.5,0.4v0.3l0.5,2.3l1.6,4.2l1.1,1.7l1.4,1.3l1.4,0.9l1.5,0.6l1.5,0.1h0
	l2.4-0.3l1.5-0.7l1.4-1.1l1.3-1.5l2-3.8l0.6-2.3l0.5-4.8l-0.2-2.5l-1.1-4.5l-2.1-3.7l-1.3-1.3l-1.4-0.9L86.8,104.8 M104.1,63.4
	L104.1,63.4l-0.2,1.7L104.1,63.4 M100.9,35.7l-1-0.5L97.2,35l-1.1,0.2l-20.3,7.7h0L70.2,45c0,0-0.1,0.1-0.1,0.1
	c-0.8,0.6-1.5,1.2-2.1,1.9L67.4,48l-0.6,1.5l-0.5,3.5l2.6,18.8c0.2,0.8,0.3,1.6,0.5,2.4c0,0.1,0,0.2,0,0.2v0.2c0,0.2,0,0.3,0.1,0.5
	l0.1,0.7l0.6,1.4l0.7,1.2l0.8,0.9l1,0.7l5.4,2.4l0,0.1l4.2,1.9c0.6,0.1,1.3,0.2,1.8,0.2c0.6,0.1,1.1,0.1,1.6,0l1.8-0.5l9.1-6.3
	c0.2-0.2,0.4-0.4,0.7-0.6l2.6-2.4l0.6-0.9v-0.2l1.7-2.8l1.5-4.6l0-0.1h0l0.1-1.1l0.2-1.7l0.3-2.2l-0.4-18.8l-0.6-3.3l-0.6-1.4
	l-0.9-1.2L100.9,35.7 M90.2,50.3l1.2-0.4l1,0.3l1,0.7l0.2,0.1l1,1.1l1,1.4l0.7,1.6l0.3,1.4l0.1,0.3l0.2,4l-0.2,1.9l-0.6,1.8
	c0,0.1,0,0.2-0.1,0.3c-0.2,0.5-0.4,1-0.6,1.4c-0.2,0.4-0.5,0.8-0.8,1.2l-0.1,0.1l-1.1,1.2l-1.2,0.7l-1.2,0.4l-0.4-0.2h0
	c0,0-0.1,0-0.1,0l-0.4-0.2L89,68.7L88,67.6l-0.9-1.4l-0.7-1.6l-0.1-0.7c-0.1-0.3-0.2-0.7-0.2-1c0-0.1,0-0.1,0-0.1
	c-0.1-0.5-0.2-1-0.2-1.5l-0.1-0.4v-0.2c-0.1-1.5,0-2.8,0.2-4c0.1-0.4,0.3-0.8,0.5-1.3v-0.1l0.7-1.7l0.9-1.4l0.6-0.6v0L89,51
	L90.2,50.3 M176.2,103.9l-0.9,2.1l-0.8,3.8l-0.1,0l-0.5,0.7v0l0,0l-0.4,0.6l-0.1,0.8v0.9l0.6,1.4l0.5,0.6l0.4,2.8l1.5,3.8
	c0.1,0.2,0.2,0.5,0.4,0.7c0.6,1.1,1.3,2,2.2,2.6c0.7,0.6,1.6,1.1,2.4,1.5c0.6,0.2,1.3,0.3,2,0.5c0.5,0.1,1,0.1,1.5,0l-1.7-0.1
	l-1-0.3l1.2,0l2.4-0.3l1.5-0.7l1.3-1.1l1.3-1.5l1.1-1.8l0.9-2l0.6-2.3l0.5-4.8l-0.1-2.4l-1.2-4.5l-2.1-3.6l-1.3-1.3l-1.4-0.9
	l-1.5-0.6l-2.4,0l-1.6,0.3l-1.5,0.7l-1.5,1.1l-1.2,1.4L176.2,103.9 M81.6,24.5l-3.1,3l0,5.8l3.2,2.7h1.3l3.2-3l-0.1-5.7l-3.3-2.6
	L81.6,24.5 M112.7,9l-1.8,0l-3,2.7l-0.8,1.1l0,6.8l3.9,3.3h1.8l3.7-3.7l0-6.9L112.7,9z"/>
<path class="st1" d="M91.4,49.8l-1.2,0.4L89,51l-0.4,0.5v0l1,0.8l0.8,1.1l5.5,4.5l-1.6,4.5L94,62.3l-0.2,0.5l2.4,1.7l0.5-1.8
	l0.2-1.9l-0.2-4l-0.1-0.3l-0.4-1.4l-0.6-1.5l-2.2-2.7l-1-0.7L91.4,49.8 M132.5,4.7l-1.3-1.3l-1.4-1l-1.6-0.6l-6.8-0.2l-1.6,0.4
	l-1.5,0.6l-1.5,1.2l-0.6,0.7l-5-0.1l-1.3,0.2l-1.3,0.6l-1.2,1l-1.1,1.3l-10,19.6l-8.1-6.7l-3.7,0l-2.5-2l-1.9-0.9l0.6-1.6l-1.8-1.5
	L76,13.2l-2.8-0.7l-1.3-0.1l-1.1,0.1L70,12.8l-0.4,0.5L64,29.7v0.6l0.6,0.7l0.9,0.7l1.2,0.7l3,1.2l1.5,0.4l2.7,0.1l0.6-1.5l1.2,0.4
	l0.6,0.4l7.7,6.3l12.2-4.6l1.2-0.2l2.6,0.2l1.1,0.5v0l0.9,0.9l0.9,1.2l0.6,1.4l0.6,3.3l0.4,18.8l-0.3,2.2h0l0.7-0.2l0.7-0.6l0.5-0.7
	l0.3-0.7l0.3,0l-1.8,5h-1.2h0l0,0.1l-1.5,4.6l-1.7,2.8v0.2l-0.3,0.9v0l-4.6,13.2l-10.9-0.2l-6.5-5.3l0-0.1l-5.4-2.4l-1-0.7l-0.8-0.9
	h0L70,77.1l-0.6-1.4l0-0.4l-3.3-2.7l9.8,42.7l0.2-0.8l0.5-2.3l0.9-2l1.2-1.8l1.2-1.5l1.4-1.2l1.5-0.7l1.6-0.3h0.1l2.3,0.1l1.6,0.6
	l1.4,0.9l1.3,1.3l2.1,3.7l1.1,4.5l0.2,2.5l-0.5,4.8l-0.6,2.3l-2,3.8l-1.3,1.5l-1.4,1.1l-1.5,0.7l-2.4,0.3h0l-1.5-0.1h-0.1l1.6,0.5
	l6.7,0.2l1.5-0.4l1.5-0.8l1.4-1.2l2.3-3.2v0l1.5-4.2l0.6-4.8L100,112l0.7-4.1l15.7-45.6h2.1l-0.4-0.4l-0.1-0.4v-0.1l0.2-0.4l0.9,0.7
	l56.8,59.1c0,0,0,0,0,0c0,0.1,0.1,0.2,0.1,0.3c0.1,0.1,0.1,0.1,0.2,0.2l-1.5-3.8l-0.5-2.8l-0.5-0.6l-0.5-1.4l0-0.9l0.1-0.8l0.4-0.6
	l0.1,0v0l0.4-0.7l0.1,0l0.8-3.8l0.9-2.1l1.1-1.8l1.2-1.4l1.4-1.1l1.6-0.7l1.6-0.3h0l2.4,0l1.5,0.6l1.4,0.9l1.3,1.3l2.1,3.6l1.2,4.5
	l0.1,2.4l-0.5,4.8l-0.6,2.3l-0.9,2l-1.1,1.8l-1.3,1.5l-1.3,1.1l-1.5,0.7l-2.4,0.3l-1.2,0l1,0.3l23.6,0.5l1.6-0.3l1.5-0.8l1.4-1.2
	l1.3-1.5l0,0l1.1-1.8l1.6-4.4l0.5-4.9l-0.6-4.9l-1.7-4.2l-1.2-1.7l-1.3-1.4l-8.1-6.7l-65.6-43.2l-3.9-3.4l-3.3-4.5l-1.2-2.5L128,37
	l-0.6-4.7l0.6-0.9l3.7-3.4l2.2-3.3l0.9-2l1-4.7v-5l-1.2-4.7L132.5,4.7 M123.4,6.8l-1.2-0.4l-0.3,0L121.3,6h1l1.2,0.4l1.2,0.7l1,1.1
	l1.6,3L128,15l0,1.1l-0.3-1.2l0-1.2l-0.5-1.9l-0.6-1.6l-0.9-1.5l-1-1.1L123.4,6.8 M111,8.9l1.8,0h0.1l3.8,3.2l0.1,6.9l-3.7,3.7h-0.1
	h-1.8l-3.9-3.3l0-6.8l0.8-1.1L111,8.9 M128.5,20.3l-0.1-0.3l1.1,0.9l-0.6-0.1L128.5,20.3 M128.4,25h0.3l-0.8,1.5l-0.5,0.6v-0.1
	l0.2-0.7l0.4-0.7L128.4,25 M74,14.1l1.4,0.3L74,14.1 M79.6,18.2l0.1-0.4l1.3,0.7l0.3,0.4l-0.8-0.5L79.6,18.2 M78.5,27.6l3.1-3
	l1.3,0.1H83l3.3,2.6l0.1,5.7l-3.2,3h-0.1h-1.3l-3.2-2.7L78.5,27.6z"/>
<path id="Layer0_5_1_STROKES" class="st2" d="M74,14.1l1.4,0.3 M104,63.4l-0.2,1.7"/>
<path class="st3" d="M149.7,93.9l-1.6,1.7l-22.7,1.6c-1.9,0.5-3.7,1.6-5.5,3.1c-1.7,1.5-3.1,3.2-4.4,5.4c-2.6-0.1-4.7,0.3-6.2,1.2
	c-1.6,0.9-2.9,2.3-4,4.4l-0.1,1l3.1,2.6l0.1,8.1l-3.6,3.8c0.3,1.2,1,2.3,2.1,3.3c1.1,1.1,2.5,2,4.2,2.8c2.1,0.8,4.3,1,6.4,0.5
	c2.8,5,7.6,7.4,14.6,7.2l18.4-1c3.1,2.9,7.3,4.7,12.4,5.3l14.2-0.8c7.5-1.1,13.1-6.7,16.9-16.7l-9.3-0.2c-4,0.1-6.9-1.9-8.8-5.9
	L149.7,93.9z"/>
<path class="st4" d="M95.6,88.2l4.6-13.2c-7.9,6.7-12.7,9.9-14.4,9.8c-1.8,0.2-3.9-0.3-6.4-1.3l5.4,4.5L95.6,88.2z"/>
<path class="st4" d="M70.3,45.3l5.7-2.1l-4.7,0l-0.5,0.4L68,43.6l-8.3,23.8l9.7,7.8c-2-11.5-3-18.7-3.2-21.6
	C66.1,49.8,67.4,47,70.3,45.3z"/>
<path class="st4" d="M86,56.9c-0.4,1.7-0.4,3.7,0.1,6.1c0.6,3.3,2.2,5.6,4.7,6.8c2.6-0.3,4.4-2,5.5-5.1l-2.3-1.7l2.1-4.8l-7.6-6.2
	C87.1,54.1,86.3,55.7,86,56.9z"/>
<path id="Layer0_5_MEMBER_0_MEMBER_1_MEMBER_3_1_STROKES" class="st5" d="M175,115.5l2.2,0.1"/>
<path id="Layer0_5_MEMBER_0_MEMBER_1_MEMBER_4_1_STROKES" class="st5" d="M206.8,127.5l-22-0.4"/>
<path id="Layer0_5_MEMBER_0_MEMBER_1_MEMBER_5_1_STROKES" class="st5" d="M175.6,109.6l1.5,0.1"/>
<path id="Layer0_5_MEMBER_0_MEMBER_1_MEMBER_6_1_STROKES" class="st5" d="M183.3,126.7l0.8,0.1"/>
<path id="Layer0_5_MEMBER_0_MEMBER_1_MEMBER_7_1_STROKES" class="st5" d="M173.8,114.6l-0.3-0.7"/>
<path id="Layer0_5_MEMBER_0_MEMBER_1_MEMBER_8_1_STROKES" class="st5" d="M173.8,110.7l-0.4,0.8"/>
<path id="Layer0_5_MEMBER_0_MEMBER_1_MEMBER_9_1_STROKES" class="st5" d="M183.4,105.7h0.4"/>
<path id="Layer0_5_MEMBER_0_MEMBER_1_MEMBER_10_1_STROKES" class="st5" d="M183.2,119.7h0.4"/>
<path id="Layer0_5_MEMBER_0_MEMBER_1_MEMBER_11_1_STROKES" class="st5" d="M182.3,107.5h0.6"/>
<path id="Layer0_5_MEMBER_0_MEMBER_1_MEMBER_12_1_STROKES" class="st5" d="M181.9,117.9l0.6,0.1"/>
<path id="Layer0_5_MEMBER_0_MEMBER_1_MEMBER_13_1_STROKES" class="st5" d="M216.3,117.2h-0.9"/>
<path id="Layer0_5_MEMBER_0_MEMBER_1_MEMBER_14_1_STROKES" class="st5" d="M236.2,117.5h-0.7"/>
<path id="Layer0_5_MEMBER_0_MEMBER_1_MEMBER_15_1_STROKES" class="st5" d="M246,117.7h-0.8"/>
<path id="Layer0_5_MEMBER_0_MEMBER_1_MEMBER_16_1_STROKES" class="st5" d="M216.3,126.9l1.2,0.5l2.5,0.8l2.7,0.3"/>
<path id="Layer0_5_MEMBER_0_MEMBER_1_MEMBER_17_1_STROKES" class="st5" d="M222.3,98.3l-1.6,0.1l-2.6,0.6l-1.1,0.5"/>
<path id="Layer0_5_MEMBER_0_MEMBER_1_MEMBER_18_1_STROKES" class="st5" d="M229.8,100l-2.2-1l-1.5-0.4l-2.6-0.4"/>
<path id="Layer0_5_MEMBER_0_MEMBER_1_MEMBER_19_1_STROKES" class="st5" d="M222.7,128.4l2.7-0.2l2.6-0.7l1.1-0.5"/>
<path id="Layer0_5_MEMBER_0_MEMBER_1_MEMBER_20_1_STROKES" class="st5" d="M216.3,107.3l-0.3,0.4"/>
<path id="Layer0_5_MEMBER_0_MEMBER_1_MEMBER_21_1_STROKES" class="st5" d="M217.6,118.8l-1.9-0.1"/>
<path id="Layer0_5_MEMBER_0_MEMBER_1_MEMBER_22_1_STROKES" class="st5" d="M217.4,107.7h-1.9"/>
<path id="Layer0_5_MEMBER_0_MEMBER_1_MEMBER_23_1_STROKES" class="st5" d="M248.1,112.4l-0.2-0.5"/>
<path id="Layer0_5_MEMBER_0_MEMBER_1_MEMBER_24_1_STROKES" class="st5" d="M248.1,115.1l-0.2,0.4"/>
<path id="Layer0_5_MEMBER_0_MEMBER_1_MEMBER_25_1_STROKES" class="st5" d="M126.5,1.9l-3.6-0.1"/>
<path id="Layer0_5_MEMBER_0_MEMBER_1_MEMBER_26_1_STROKES" class="st5" d="M117.2,4.8l-6.2-0.1"/>
<path id="Layer0_5_MEMBER_0_MEMBER_1_MEMBER_27_1_STROKES" class="st5" d="M97.2,35.2l1.6,0.1"/>
<path id="Layer0_5_MEMBER_0_MEMBER_1_MEMBER_28_1_STROKES" class="st5" d="M130.4,96.5l-3.6,0.3"/>
<path id="Layer0_5_MEMBER_0_MEMBER_1_MEMBER_29_1_STROKES" class="st5" d="M148,95.5l-14.6,0.9"/>
<path id="Layer0_5_MEMBER_0_MEMBER_1_MEMBER_30_1_STROKES" class="st5" d="M95.5,46.1l-0.3-0.4L94.8,45l-0.3-0.8l-0.1-0.9l0.1-0.9
	l0.2-0.9l0.4-0.8l0.8-1"/>
<path id="Layer0_5_MEMBER_0_MEMBER_1_MEMBER_31_1_STROKES" class="st5" d="M98.7,79.1l3.5,0.1"/>
<path id="Layer0_5_MEMBER_0_MEMBER_1_MEMBER_32_1_STROKES" class="st5" d="M133,140.5l-3.3,0.2"/>
<path id="Layer0_5_MEMBER_0_MEMBER_1_MEMBER_33_1_STROKES" class="st5" d="M150.5,139.5l-13.8,0.8"/>
<path id="Layer0_5_MEMBER_0_MEMBER_1_MEMBER_34_1_STROKES" class="st5" d="M106.3,61.3l-0.3,0.7l-0.5,0.8l-0.2,0.2l-0.6,0.5
	l-0.6,0.2"/>
<path id="Layer0_5_MEMBER_0_MEMBER_1_MEMBER_35_1_STROKES" class="st5" d="M82.2,80.1h1.3"/>
<path id="Layer0_5_MEMBER_0_MEMBER_1_MEMBER_36_1_STROKES" class="st5" d="M84.1,84.8h1.6"/>
<path id="Layer0_5_MEMBER_0_MEMBER_1_MEMBER_37_1_STROKES" class="st5" d="M82.8,73.4l1.3,0.1"/>
<path id="Layer0_5_MEMBER_0_MEMBER_1_MEMBER_38_1_STROKES" class="st5" d="M79,115.8l-1.9-0.1"/>
<path id="Layer0_5_MEMBER_0_MEMBER_1_MEMBER_39_1_STROKES" class="st5" d="M79.1,121.9l-2.6-0.1"/>
<path id="Layer0_5_MEMBER_0_MEMBER_1_MEMBER_40_1_STROKES" class="st5" d="M91.5,133.4l-5.2-0.1"/>
<path id="Layer0_5_MEMBER_0_MEMBER_1_MEMBER_41_1_STROKES" class="st5" d="M71,56.3h-0.6"/>
<path id="Layer0_5_MEMBER_0_MEMBER_1_MEMBER_42_1_STROKES" class="st5" d="M70.4,49.6h1.3"/>
<path id="Layer0_5_MEMBER_0_MEMBER_1_MEMBER_43_1_STROKES" class="st5" d="M84.8,132.9h0.8"/>
<path id="Layer0_5_MEMBER_0_MEMBER_1_MEMBER_44_1_STROKES" class="st5" d="M74.6,117.7l0.6-1.2"/>
<path id="Layer0_5_MEMBER_0_MEMBER_1_MEMBER_45_1_STROKES" class="st5" d="M84.8,113.7h-0.6"/>
<path id="Layer0_5_MEMBER_0_MEMBER_1_MEMBER_46_1_STROKES" class="st5" d="M84.4,124.1h-0.7"/>
<path id="Layer0_5_MEMBER_0_MEMBER_1_MEMBER_47_1_STROKES" class="st5" d="M64,29.9l5.7-16.4"/>
<path id="Layer0_5_MEMBER_0_MEMBER_1_MEMBER_48_1_STROKES" class="st5" d="M106.3,113.2l3.9,0.1"/>
<path id="Layer0_5_MEMBER_0_MEMBER_1_MEMBER_49_1_STROKES" class="st5" d="M106.1,125.3l4.3,0.1"/>
<path id="Layer0_5_MEMBER_0_MEMBER_1_MEMBER_50_1_STROKES" class="st5" d="M110,125.3l0.6,0.6"/>
<path id="Layer0_5_MEMBER_0_MEMBER_1_MEMBER_51_1_STROKES" class="st5" d="M110.4,113.1l-0.3,0.2"/>
<path id="Layer0_5_MEMBER_0_MEMBER_1_MEMBER_52_1_STROKES" class="st5" d="M108.9,132l3.7,1.4l2.5,0.4"/>
<path id="Layer0_5_MEMBER_0_MEMBER_1_MEMBER_53_1_STROKES" class="st5" d="M114,105.1l-0.8,0.1l-3.6,1.2"/>
<path id="Layer0_5_MEMBER_0_MEMBER_1_MEMBER_54_1_STROKES" class="st5" d="M135.8,13.5l0.6,0.5l0.5,0.8l0.2,0.7l0.1,0.3v1.1l-0.2,1"
	/>
<path id="Layer0_5_MEMBER_0_MEMBER_1_MEMBER_55_1_STROKES" class="st5" d="M135.9,19.2l0.6-0.6l0.5-0.9"/>
<path id="Layer0_5_MEMBER_0_MEMBER_1_MEMBER_56_1_STROKES" class="st5" d="M95.5,46.1l0.5,0.6l0.7,0.4l0.7,0.1L98,47l0.6-0.5
	l0.6-0.7l0.4-0.8l0.3-1l0.1-1.1l-0.1-1l-0.3-1L99,40.2l-0.6-0.6l-0.6-0.4l-0.7-0.1l-0.7,0.2l-0.6,0.4"/>
<path id="Layer0_5_MEMBER_0_MEMBER_1_MEMBER_57_1_STROKES" class="st5" d="M244.7,110.6l0.7-0.6"/>
<path id="Layer0_5_MEMBER_0_MEMBER_1_MEMBER_58_1_STROKES" class="st5" d="M245.3,117.3l-0.7-0.6"/>
<path id="Layer0_5_MEMBER_0_MEMBER_1_MEMBER_59_1_STROKES" class="st5" d="M242.4,109.9l-0.4,0.2l-0.2,0.4l0.1,0.5"/>
<path id="Layer0_5_MEMBER_0_MEMBER_1_MEMBER_60_1_STROKES" class="st5" d="M243.2,114.9l-0.5,0.2l-0.5,0.4l-0.3,0.5"/>
<path id="Layer0_5_MEMBER_0_MEMBER_1_MEMBER_61_1_STROKES" class="st5" d="M241.8,116.3v0.5l0.2,0.4l0.4,0.1"/>
<path id="Layer0_5_MEMBER_0_MEMBER_1_MEMBER_62_1_STROKES" class="st5" d="M95.4,77.6l-9.5,6.5L85,84.6l-0.9,0.2h-0.9l-0.9-0.3
	l-9.6-4.4l-1-0.7l-0.9-0.9L70,77.3l-0.6-1.4l-0.4-1.6l-2.8-19.4l-0.1-1.8l0.2-1.8l0.4-1.7l0.6-1.5l0.8-1.3l1-1l1.1-0.6l25.9-9.8"/>
<path id="Layer0_5_MEMBER_0_MEMBER_1_MEMBER_63_1_STROKES" class="st5" d="M85.6,84.8l0.9-0.2l0.9-0.5"/>
<path id="Layer0_5_MEMBER_0_MEMBER_1_MEMBER_64_1_STROKES" class="st5" d="M86.5,52.3l-0.9,1.4l-0.7,1.6l-0.8,3.8V61l0.7,3.8
	l0.7,1.6l0.9,1.4l1.1,1.1l1.2,0.7l1.2,0.4h1.2l1.3-0.4l1.2-0.8l1-1.1l0.9-1.4l0.7-1.6l0.5-1.8l0.3-1.9L96.7,57l-0.5-1.8l-0.7-1.6
	l-0.9-1.4l-1-1.1l-1.2-0.8L91.2,50L89.9,50l-1.3,0.4l-1.1,0.7L86.5,52.3z"/>
<path id="Layer0_5_MEMBER_0_MEMBER_1_MEMBER_65_1_STROKES" class="st5" d="M91.2,69.9l-1-0.4L89,68.9l-1.1-1.1L87,66.4l-0.7-1.6
	L85.6,61l0.1-2l0.7-3.7l0.8-1.7l0.9-1.4l1.1-1.1l1.2-0.8l1.2-0.4"/>
<path id="Layer0_5_MEMBER_0_MEMBER_1_MEMBER_66_1_STROKES" class="st5" d="M111.6,13.3l-0.7-0.4l-0.8,0.1l-0.7,0.6l-0.5,0.9
	l-0.2,1.1l0.1,1.2l0.3,1l0.6,0.8l0.7,0.3l0.8-0.1l0.7-0.6l0.5-0.9l0.2-1.2l-0.1-1.2l-0.4-1L111.6,13.3z"/>
<path id="Layer0_5_MEMBER_0_MEMBER_1_MEMBER_67_1_STROKES" class="st5" d="M111.3,22.9l-3.9-3.2"/>
<path id="Layer0_5_MEMBER_0_MEMBER_1_MEMBER_68_1_STROKES" class="st5" d="M116.8,19.3l-1.8-0.1"/>
<path id="Layer0_5_MEMBER_0_MEMBER_1_MEMBER_69_1_STROKES" class="st5" d="M112.8,9.2l3.9,3.2l0.1,6.9l-3.8,3.7"/>
<path id="Layer0_5_MEMBER_0_MEMBER_1_MEMBER_70_1_STROKES" class="st5" d="M174.3,115.2l0.5,2.8l1.6,4.2l1.1,1.6l1.4,1.3l1.4,1
	l1.5,0.6l1.5,0.1l1.6-0.3l1.5-0.7l1.4-1.1l1.2-1.5l2-3.8l1-4.7l-0.1-4.9l-1.2-4.5l-0.9-1.9l-1.2-1.7l-1.3-1.3l-1.5-1l-1.5-0.6
	l-1.5-0.1l-1.6,0.3l-1.5,0.7l-1.4,1.1l-1.2,1.5l-1.1,1.8l-0.9,2.1l-0.6,2.2l-0.3,1.6"/>
<path id="Layer0_5_MEMBER_0_MEMBER_1_MEMBER_71_1_STROKES" class="st5" d="M184.1,126.8l1.6-0.3l1.5-0.8l1.4-1.1l1.3-1.5l1.1-1.8
	l0.9-2l0.6-2.3l0.5-4.8l-0.2-2.4l-1.2-4.5l-1-1.9l-1.1-1.7l-1.3-1.3l-1.4-1l-1.5-0.6l-0.8-0.1"/>
<path id="Layer0_5_MEMBER_0_MEMBER_1_MEMBER_72_1_STROKES" class="st5" d="M75.7,121.6v0.3l0.5,2.3l1.6,4.2l1.1,1.7l1.4,1.3l1.4,0.9
	l1.5,0.6l1.5,0.2l1.6-0.4l1.5-0.7l1.4-1.1l1.2-1.4l1.1-1.8l0.9-2l1-4.7l-0.1-4.9l-1.2-4.5l-0.9-1.9l-1.1-1.7l-1.4-1.3l-1.4-1
	l-1.5-0.6l-1.5-0.1l-1.6,0.3l-1.5,0.7l-1.4,1.1l-1.2,1.5l-1.1,1.8l-0.9,2l-0.6,2.3l-0.2,1.3"/>
<path id="Layer0_5_MEMBER_0_MEMBER_1_MEMBER_73_1_STROKES" class="st5" d="M85.6,132.9l1.6-0.3l1.5-0.8l1.4-1.1l1.3-1.5l1.1-1.8
	l0.9-2l0.6-2.3l0.5-4.8l-0.2-2.5l-1.1-4.5l-1-1.9l-1.1-1.7l-1.3-1.3l-1.4-0.9l-1.6-0.6l-0.8-0.1"/>
<path id="Layer0_5_MEMBER_0_MEMBER_1_MEMBER_74_1_STROKES" class="st5" d="M110.3,125.3l1-0.3l0.9-0.7l0.8-1"/>
<path id="Layer0_5_MEMBER_0_MEMBER_1_MEMBER_75_1_STROKES" class="st5" d="M112.7,114.7l-0.6-0.7l-1-0.5l-1-0.2"/>
<path id="Layer0_5_MEMBER_0_MEMBER_1_MEMBER_76_1_STROKES" class="st5" d="M108.4,120.4l0.1-1.4l-0.1-1.4"/>
<path id="Layer0_5_MEMBER_0_MEMBER_1_MEMBER_77_1_STROKES" class="st5" d="M112.2,11.8l-0.8-0.4l-0.8-0.2l-0.9,0.3l-0.7,0.5
	l-0.7,0.9l-0.5,1l-0.3,1.2l-0.1,1.2l0.2,1.2l0.3,1.2l0.5,1l0.7,0.7l0.8,0.4l0.8,0.2l0.8-0.3l0.7-0.5l0.7-0.8l0.5-1l0.3-1.2l0.1-1.3
	l-0.2-1.2l-0.3-1.1l-0.5-1L112.2,11.8z"/>
<path id="Layer0_5_MEMBER_0_MEMBER_1_MEMBER_78_1_STROKES" class="st5" d="M116.8,17l0.1-1.2l-0.1-1.2"/>
<path id="Layer0_5_MEMBER_0_MEMBER_1_MEMBER_79_1_STROKES" class="st5" d="M111.1,9.1l1.8,0.1"/>
<path id="Layer0_5_MEMBER_0_MEMBER_1_MEMBER_80_1_STROKES" class="st5" d="M114.9,12.3l-0.1,5.1l0.2,1.8l-2.9,2.7l-0.9,1h1.8"/>
<path id="Layer0_5_MEMBER_0_MEMBER_1_MEMBER_81_1_STROKES" class="st5" d="M116.7,12.4l-1.8-0.1l-3-2.3l-0.9-0.9l-2.9,2.7l-0.9,1
	l0.1,6.9"/>
<path id="Layer0_5_MEMBER_0_MEMBER_1_MEMBER_82_1_STROKES" class="st5" d="M90.4,53.7l-0.8-1.1"/>
<path id="Layer0_5_MEMBER_0_MEMBER_1_MEMBER_83_1_STROKES" class="st5" d="M85.9,62.9l3.6,5.2"/>
<path id="Layer0_5_MEMBER_0_MEMBER_1_MEMBER_84_1_STROKES" class="st5" d="M98.8,35.2l1.1,0.2l1,0.5l1,0.9l0.9,1.2l0.6,1.4l0.4,1.6
	l0.2,1.7l0.4,18.7l-0.8,5.1l-1.5,4.6l-2.3,3.8l-2.9,2.7l-9.5,6.5"/>
<path id="Layer0_5_MEMBER_0_MEMBER_1_MEMBER_85_1_STROKES" class="st5" d="M96.1,35.4l1.1-0.2l1.2,0.2l1,0.6l1,0.9l0.8,1.2l0.6,1.5
	l0.4,1.6l0.2,1.7l0.5,18.7l-0.8,5.1l-1.6,4.6l-2.3,3.8l-1.4,1.5l-1.5,1.2"/>
<path id="Layer0_5_MEMBER_0_MEMBER_1_MEMBER_86_1_STROKES" class="st5" d="M242.3,117.3l3,0.1l-0.5,1.3l-4.7-0.1"/>
<path id="Layer0_5_MEMBER_0_MEMBER_1_MEMBER_87_1_STROKES" class="st5" d="M235.8,117.5l0.3,0.1"/>
<path id="Layer0_5_MEMBER_0_MEMBER_1_MEMBER_88_1_STROKES" class="st5" d="M236.1,109.6l-0.3,0.1"/>
<path id="Layer0_5_MEMBER_0_MEMBER_1_MEMBER_89_1_STROKES" class="st5" d="M242.4,109.9l3,0.1l-0.5-1.3l-4.7-0.1"/>
<path id="Layer0_5_MEMBER_0_MEMBER_1_MEMBER_90_1_STROKES" class="st5" d="M241.8,110.5l2.8,0.1"/>
<path id="Layer0_5_MEMBER_0_MEMBER_1_MEMBER_91_1_STROKES" class="st5" d="M242,115.8l-0.2,0.4"/>
<path id="Layer0_5_MEMBER_0_MEMBER_1_MEMBER_92_1_STROKES" class="st5" d="M244.7,116.7l-2.8-0.1"/>
<path id="Layer0_5_MEMBER_0_MEMBER_1_MEMBER_93_1_STROKES" class="st5" d="M243.2,114.9l2.9,0.1l0.5-1.3l-0.5-1.4h-2.9l-0.5-0.2
	l-0.5-0.4l-0.3-0.5l-0.2-0.4"/>
<path id="Layer0_5_MEMBER_0_MEMBER_1_MEMBER_94_1_STROKES" class="st5" d="M70,45.3l-2.2-1.8"/>
<path id="Layer0_5_MEMBER_0_MEMBER_1_MEMBER_95_1_STROKES" class="st5" d="M241.3,113.6l5.4,0.1"/>
<path id="Layer0_5_MEMBER_0_MEMBER_1_MEMBER_96_1_STROKES" class="st5" d="M176,109.6v-0.9h-0.9l-0.3,0.9"/>
<path id="Layer0_5_MEMBER_0_MEMBER_1_MEMBER_97_1_STROKES" class="st5" d="M179.5,116.7l0.5-0.1h0.3"/>
<path id="Layer0_5_MEMBER_0_MEMBER_1_MEMBER_98_1_STROKES" class="st5" d="M177.1,109.7v-1.1"/>
<path id="Layer0_5_MEMBER_0_MEMBER_1_MEMBER_99_1_STROKES" class="st5" d="M178.5,115.3l-0.4,1.2h-0.9v-1"/>
<path id="Layer0_5_MEMBER_0_MEMBER_1_MEMBER_100_1_STROKES" class="st5" d="M181.5,115.3l-2.9-0.1l-0.6-0.5l2.9,0.1l0.4-0.2l0.4-0.4
	l0.1-0.3"/>
<path id="Layer0_5_MEMBER_0_MEMBER_1_MEMBER_101_1_STROKES" class="st5" d="M179.1,111.3l0.5,1.1l-0.5,1.3"/>
<path id="Layer0_5_MEMBER_0_MEMBER_1_MEMBER_102_1_STROKES" class="st5" d="M178.5,113.2l0.6,0.5h3"/>
<path id="Layer0_5_MEMBER_0_MEMBER_1_MEMBER_103_1_STROKES" class="st5" d="M176.1,116.6l-0.9,0.1l-0.5-1.2"/>
<path id="Layer0_5_MEMBER_0_MEMBER_1_MEMBER_104_1_STROKES" class="st5" d="M176.1,115.6v1h1.2"/>
<path id="Layer0_5_MEMBER_0_MEMBER_1_MEMBER_105_1_STROKES" class="st5" d="M178.4,109.7l-0.6,0.6"/>
<path id="Layer0_5_MEMBER_0_MEMBER_1_MEMBER_106_1_STROKES" class="st5" d="M181.4,109.8l-3-0.1l-0.4-1.2"/>
<path id="Layer0_5_MEMBER_0_MEMBER_1_MEMBER_107_1_STROKES" class="st5" d="M182.1,111.3l-3-0.1l-0.6,0.6"/>
<path id="Layer0_5_MEMBER_0_MEMBER_1_MEMBER_108_1_STROKES" class="st5" d="M184.5,106l0.4,0.2l0.9,0.8l0.8,1.1l0.6,1.4l0.4,1.6v3.3
	l-0.4,1.6l-0.7,1.4l-0.9,1.1l-0.9,0.8l-0.4,0.1"/>
<path id="Layer0_5_MEMBER_0_MEMBER_1_MEMBER_109_1_STROKES" class="st5" d="M179.2,108.6l0.2-0.6l0.9-1.1l1-0.8l1-0.4l1.1,0.1
	l1.1,0.4l1,0.8l0.8,1.1l0.6,1.4l0.4,1.6v3.3l-0.4,1.6l-0.7,1.4l-0.8,1.1l-1,0.8l-1.1,0.4h-1.1l-1.1-0.4l-1-0.8l-0.8-1.1l-0.3-0.6"/>
<path id="Layer0_5_MEMBER_0_MEMBER_1_MEMBER_110_1_STROKES" class="st5" d="M92,23.9l0.3,0.2l1,0.8l0.4,0.5"/>
<path id="Layer0_5_MEMBER_0_MEMBER_1_MEMBER_111_1_STROKES" class="st5" d="M79.6,18.3l0.9,0.3l1.5,0.8"/>
<path id="Layer0_5_MEMBER_0_MEMBER_1_MEMBER_112_1_STROKES" class="st5" d="M83.9,40l-7.7-6.3l-0.6-0.4l-1.2-0.5"/>
<path id="Layer0_5_MEMBER_0_MEMBER_1_MEMBER_113_1_STROKES" class="st5" d="M81.1,18.7l0.3,0.3"/>
<path id="Layer0_5_MEMBER_0_MEMBER_1_MEMBER_114_1_STROKES" class="st5" d="M89.9,26.7l-8.8-7.3l-1.3-0.7l-0.4-0.1"/>
<path id="Layer0_5_MEMBER_0_MEMBER_1_MEMBER_115_1_STROKES" class="st5" d="M91.5,26.7h-1.6l-4.4,12.6"/>
<path id="Layer0_5_MEMBER_0_MEMBER_1_MEMBER_116_1_STROKES" class="st5" d="M79.7,18l-2.6-2.1l-0.2,0.4l-1.4-0.2l-0.8-0.3l-0.8-0.4
	L73.4,15l-0.2-0.4l0.2-0.2l0.6-0.1l1.4,0.3l0.7,0.3l0.6,0.4l0.5,0.5"/>
<path id="Layer0_5_MEMBER_0_MEMBER_1_MEMBER_117_1_STROKES" class="st5" d="M78.9,17.1l2.8,1.4l9.8,8.2l-4.2,12"/>
<path id="Layer0_5_MEMBER_0_MEMBER_1_MEMBER_118_1_STROKES" class="st5" d="M79.7,18l1.4,0.7"/>
<path id="Layer0_5_MEMBER_0_MEMBER_1_MEMBER_119_1_STROKES" class="st5" d="M80.4,16.1l-0.6,1.6"/>
<path id="Layer0_5_MEMBER_0_MEMBER_1_MEMBER_120_1_STROKES" class="st5" d="M64,29.9l0.1,0.6l0.6,0.7l0.9,0.8l1.2,0.8l3,1.2l1.5,0.4
	l2.7,0.1L79.7,18h-1.3l-2.9-0.5L73.9,17l-2.7-1.4l-0.9-0.8l-0.6-0.7l-0.1-0.6L70,13l0.8-0.3l1.1-0.1l1.3,0.1l2.8,0.7l2.6,1.2
	l1.8,1.5L77.5,16"/>
<path id="Layer0_5_MEMBER_0_MEMBER_1_MEMBER_121_1_STROKES" class="st5" d="M127.4,32.6l0.7-1l3.7-3.4l1.2-1.5L134,25l0.9-2l1-4.7
	l-0.1-5l-0.5-2.4l-0.8-2.2l-1-2l-1.2-1.7l-1.3-1.3l-1.5-1L128.1,2l-1.6-0.1"/>
<path id="Layer0_5_MEMBER_0_MEMBER_1_MEMBER_122_1_STROKES" class="st5" d="M91.5,133.4L93,133l1.5-0.8l1.4-1.2l1.2-1.5l1.1-1.8
	l0.9-2l0.7-2.2l0.6-4.8l-0.2-6.6l0.7-4.1l15.7-45.5"/>
<path id="Layer0_5_MEMBER_0_MEMBER_1_MEMBER_123_1_STROKES" class="st5" d="M83.2,132.8l1.5,0.4l1.5,0.1l1.5-0.4l1.5-0.8l1.4-1.1
	l1.2-1.5l1.1-1.8l1.5-4.2l0.4-2.4v-9l0.6-4.1l15.7-45.6"/>
<path id="Layer0_5_MEMBER_0_MEMBER_1_MEMBER_124_1_STROKES" class="st5" d="M96,27.3l-8.1-6.7l-3.8-0.1"/>
<path id="Layer0_5_MEMBER_0_MEMBER_1_MEMBER_125_1_STROKES" class="st5" d="M121.3,6.2h1l1.2,0.4l1.2,0.7l1,1.1l0.9,1.4l0.7,1.6
	l0.8,3.8l-0.1,1.2"/>
<path id="Layer0_5_MEMBER_0_MEMBER_1_MEMBER_126_1_STROKES" class="st5" d="M97.6,82.1l0.8,0.7l0.8,0.4h0.8l0.8-0.4l0.7-0.8l0.5-1
	l0.3-1.2v-1.3l-0.2-1.2l-0.5-1.1l-0.7-0.8l-0.8-0.7"/>
<path id="Layer0_5_MEMBER_0_MEMBER_1_MEMBER_127_1_STROKES" class="st5" d="M101.8,81.3L99,79.1"/>
<path id="Layer0_5_MEMBER_0_MEMBER_1_MEMBER_128_1_STROKES" class="st5" d="M128.7,25.2l-0.9,1.5l-0.5,0.6"/>
<path id="Layer0_5_MEMBER_0_MEMBER_1_MEMBER_129_1_STROKES" class="st5" d="M116.1,4.7l0.6-0.7l1.5-1.2l1.5-0.7l1.6-0.4l1.6,0.2
	l1.6,0.5l1.5,1l1.3,1.3l1.2,1.7l1,2l1.2,4.6l0.2,2.5l-0.5,5l-0.7,2.3l-0.6,1.4"/>
<path id="Layer0_5_MEMBER_0_MEMBER_1_MEMBER_130_1_STROKES" class="st5" d="M91.2,27.6l3.3,2.7"/>
<path id="Layer0_5_MEMBER_0_MEMBER_1_MEMBER_131_1_STROKES" class="st5" d="M86.1,56.7l8,6.6"/>
<path id="Layer0_5_MEMBER_0_MEMBER_1_MEMBER_132_1_STROKES" class="st5" d="M72.2,44.4l-1.8-1.5"/>
<path id="Layer0_5_MEMBER_0_MEMBER_1_MEMBER_133_1_STROKES" class="st5" d="M95.9,58.2l-1.6,4.5l-8.1-6.6"/>
<path id="Layer0_5_MEMBER_0_MEMBER_1_MEMBER_134_1_STROKES" class="st5" d="M103.6,66.4h0.7"/>
<path id="Layer0_5_MEMBER_0_MEMBER_1_MEMBER_135_1_STROKES" class="st5" d="M95.9,58.3L88.3,52"/>
<path id="Layer0_5_MEMBER_0_MEMBER_1_MEMBER_136_1_STROKES" class="st5" d="M106.6,61.4l-1.6,4.4l-0.2,0.6"/>
<path id="Layer0_5_MEMBER_0_MEMBER_1_MEMBER_137_1_STROKES" class="st5" d="M104.6,65.9h-0.8"/>
<path id="Layer0_5_MEMBER_0_MEMBER_1_MEMBER_138_1_STROKES" class="st5" d="M105.6,62.8l-1.1,3l-0.7-0.6"/>
<path id="Layer0_5_MEMBER_0_MEMBER_1_MEMBER_139_1_STROKES" class="st5" d="M89.6,52.6h-0.6"/>
<path id="Layer0_5_MEMBER_0_MEMBER_1_MEMBER_140_1_STROKES" class="st5" d="M67.9,43.5h2.3l1.4,1.2"/>
<path id="Layer0_5_MEMBER_0_MEMBER_1_MEMBER_141_1_STROKES" class="st5" d="M104.4,66.4h0.5"/>
<path id="Layer0_5_MEMBER_0_MEMBER_1_MEMBER_142_1_STROKES" class="st5" d="M94.1,63.3l1.9,1.6"/>
<path id="Layer0_5_MEMBER_0_MEMBER_1_MEMBER_143_1_STROKES" class="st5" d="M96.7,57l-0.4,0.3l-0.5,0.9"/>
<path id="Layer0_5_MEMBER_0_MEMBER_1_MEMBER_144_1_STROKES" class="st5" d="M75.8,43l-5.5-0.1"/>
<path id="Layer0_5_MEMBER_0_MEMBER_1_MEMBER_145_1_STROKES" class="st5" d="M70.1,43.5l0.2-0.6"/>
<path id="Layer0_5_MEMBER_0_MEMBER_1_MEMBER_146_1_STROKES" class="st5" d="M90,69.5l-0.1-0.4l-0.5-1"/>
<path id="Layer0_5_MEMBER_0_MEMBER_1_MEMBER_147_1_STROKES" class="st5" d="M85.7,84.8L84.6,88l10.9,0.2l5-14.3"/>
<path id="Layer0_5_MEMBER_0_MEMBER_1_MEMBER_148_1_STROKES" class="st5" d="M246,117.7l0.8-0.4l0.7-0.7l0.5-1l0.3-1.2l0.1-1.2
	l-0.3-1.2l-0.5-1l-0.6-0.8l-0.8-0.4h-0.8"/>
<path id="Layer0_5_MEMBER_0_MEMBER_1_MEMBER_149_1_STROKES" class="st5" d="M173.8,110.7l0.5-0.7l0.6-0.4l0.6-0.1h0.1l0.7,0.4
	l0.5,0.7l0.1,0.1l0.3,0.8v0.3l0.1,0.8v0.4l-0.1,0.7l-0.3,0.9l-0.5,0.7l-0.5,0.3l-0.2,0.1H175l-0.7-0.3l-0.5-0.7"/>
<path id="Layer0_5_MEMBER_0_MEMBER_1_MEMBER_150_1_STROKES" class="st5" d="M175.8,111.2l-0.4-0.6l-0.6-0.2l-0.6,0.1l-0.5,0.4
	l-0.4,0.7l-0.2,0.8l0.1,0.9l0.3,0.7l0.4,0.6l0.6,0.3l0.6-0.1l0.5-0.4l0.4-0.7l0.2-0.8l-0.1-0.9L175.8,111.2z"/>
<path id="Layer0_5_MEMBER_0_MEMBER_1_MEMBER_151_1_STROKES" class="st5" d="M78,82.5l6.6,5.5"/>
<path id="Layer0_5_MEMBER_0_MEMBER_1_MEMBER_152_1_STROKES" class="st5" d="M67.9,43.5l-8.3,23.9l9.8,8.1"/>
<path id="Layer0_5_MEMBER_0_MEMBER_1_MEMBER_153_1_STROKES" class="st5" d="M89.6,52.6l-1.1-0.9"/>
<path id="Layer0_5_MEMBER_0_MEMBER_1_MEMBER_154_1_STROKES" class="st5" d="M84.7,124.1l0.6-0.1l0.9-0.6l0.8-0.9l0.6-1.2l0.4-2.8
	l-0.2-1.5l-0.5-1.3l-0.7-1.1l-0.9-0.7l-0.9-0.3"/>
<path id="Layer0_5_MEMBER_0_MEMBER_1_MEMBER_155_1_STROKES" class="st5" d="M81.8,122.9l0.2,0.2l0.8,0.7l0.9,0.3l1-0.2l0.9-0.5
	l0.8-0.9l0.6-1.2l0.4-1.4l0.1-1.5l-0.2-1.4l-0.5-1.3l-0.7-1.1l-0.8-0.7l-1-0.3l-1,0.1l-0.9,0.5l-0.4,0.5"/>
<path id="Layer0_5_MEMBER_0_MEMBER_1_MEMBER_156_1_STROKES" class="st5" d="M81.3,122.9h0.8"/>
<path id="Layer0_5_MEMBER_0_MEMBER_1_MEMBER_157_1_STROKES" class="st5" d="M79.8,121l3,0.1l0.4-0.2l0.4-0.4l0.1-0.2l0.1-0.3"/>
<path id="Layer0_5_MEMBER_0_MEMBER_1_MEMBER_158_1_STROKES" class="st5" d="M81.4,118.6l5.3,0.1"/>
<path id="Layer0_5_MEMBER_0_MEMBER_1_MEMBER_159_1_STROKES" class="st5" d="M79.8,114.8l5.3,0.1l0.4,1.6l1,2.1l0.2,0.2l-1,2
	l-0.4,2.1"/>
<path id="Layer0_5_MEMBER_0_MEMBER_1_MEMBER_160_1_STROKES" class="st5" d="M80,122.7l2.3,0.1l2.7,0.1l-2.4,0.1l-0.3-0.2"/>
<path id="Layer0_5_MEMBER_0_MEMBER_1_MEMBER_161_1_STROKES" class="st5" d="M77.8,114.9H79"/>
<path id="Layer0_5_MEMBER_0_MEMBER_1_MEMBER_162_1_STROKES" class="st5" d="M79.6,116.4l-0.6-0.5l-0.1-0.1v-1.1h0.9l0.5,1.2"/>
<path id="Layer0_5_MEMBER_0_MEMBER_1_MEMBER_163_1_STROKES" class="st5" d="M83.3,115.9h-3l-0.6,0.6h3l0.5,0.2l0.4,0.4l0.1,0.3
	l0.1,0.2v0.1h0.3l0.3-0.2l0.1-0.4l-0.2-0.5l-0.3-0.4L83.3,115.9z M80.9,117.5l2.7,0.1"/>
<path id="Layer0_5_MEMBER_0_MEMBER_1_MEMBER_164_1_STROKES" class="st5" d="M80.4,121.5l2.9,0.1l0.4-0.2l0.3-0.4l0.2-0.5v-0.4
	l-0.3-0.2l-2.9-0.1"/>
<path id="Layer0_5_MEMBER_0_MEMBER_1_MEMBER_165_1_STROKES" class="st5" d="M80.3,118l0.6-0.6l0.5,1.2l-0.4,1.2l-0.6-0.5l0.1-0.2
	L80.3,118z"/>
<path id="Layer0_5_MEMBER_0_MEMBER_1_MEMBER_166_1_STROKES" class="st5" d="M79.8,121l0.6,0.5l-0.4,1.2l-0.9,0.1v-1.1L79.8,121z"/>
<path id="Layer0_5_MEMBER_0_MEMBER_1_MEMBER_167_1_STROKES" class="st5" d="M77.8,115.7v-0.9l-0.9,0.1l-0.3,0.8"/>
<path id="Layer0_5_MEMBER_0_MEMBER_1_MEMBER_168_1_STROKES" class="st5" d="M77.9,122.9h-0.9l-0.5-1.1"/>
<path id="Layer0_5_MEMBER_0_MEMBER_1_MEMBER_169_1_STROKES" class="st5" d="M77.9,121.8v1h1.2"/>
<path id="Layer0_5_MEMBER_0_MEMBER_1_MEMBER_170_1_STROKES" class="st5" d="M136.6,16.2l-0.4,1.2h-0.3"/>
<path id="Layer0_5_MEMBER_0_MEMBER_1_MEMBER_171_1_STROKES" class="st5" d="M135.9,15.1h0.3l0.5,1.2l-0.7-0.1"/>
<path id="Layer0_5_MEMBER_0_MEMBER_1_MEMBER_172_1_STROKES" class="st5" d="M182.9,117.9l0.6-0.1l0.9-0.6l0.8-0.9l0.6-1.2l0.3-1.4
	l0.1-1.5l-0.2-1.4l-0.5-1.3l-0.7-1.1l-0.8-0.7l-1-0.4"/>
<path id="Layer0_5_MEMBER_0_MEMBER_1_MEMBER_173_1_STROKES" class="st5" d="M180.1,116.9l0.8,0.7l1,0.3l1-0.1l0.9-0.6l0.8-0.9
	l0.6-1.2l0.4-1.4l0.1-1.5l-0.3-1.5l-0.4-1.3l-0.7-1l-0.8-0.7l-1-0.3l-1,0.2l-0.8,0.5l-0.4,0.5"/>
<path id="Layer0_5_MEMBER_0_MEMBER_1_MEMBER_174_1_STROKES" class="st5" d="M181.9,113.8l-0.1,0.3"/>
<path id="Layer0_5_MEMBER_0_MEMBER_1_MEMBER_175_1_STROKES" class="st5" d="M177.1,108.7H176"/>
<path id="Layer0_5_MEMBER_0_MEMBER_1_MEMBER_176_1_STROKES" class="st5" d="M182.1,111.3l0.3-0.2v-0.4l-0.2-0.5l-0.3-0.4l-0.5-0.2"
	/>
<path id="Layer0_5_MEMBER_0_MEMBER_1_MEMBER_177_1_STROKES" class="st5" d="M181.8,111.3l-0.1-0.2l-0.1-0.3l-0.4-0.4l-0.5-0.1
	l-2.9-0.1"/>
<path id="Layer0_5_MEMBER_0_MEMBER_1_MEMBER_178_1_STROKES" class="st5" d="M181.5,115.3l0.4-0.2l0.3-0.4l0.2-0.5l-0.1-0.4l-0.3-0.2
	"/>
<path id="Layer0_5_MEMBER_0_MEMBER_1_MEMBER_179_1_STROKES" class="st5" d="M178.5,112.2v-0.3"/>
<path id="Layer0_5_MEMBER_0_MEMBER_1_MEMBER_180_1_STROKES" class="st5" d="M178.5,113.2v-0.5"/>
<path id="Layer0_5_MEMBER_0_MEMBER_1_MEMBER_181_1_STROKES" class="st5" d="M184.8,112.5l-5.2-0.1"/>
<path id="Layer0_5_MEMBER_0_MEMBER_1_MEMBER_182_1_STROKES" class="st5" d="M183.4,116.6l0.1-1l0.7-2l0.6-1.1l-0.2-0.2l-1-2
	l-0.4-1.6l-5.2-0.1l-0.9,0.1"/>
<path id="Layer0_5_MEMBER_0_MEMBER_1_MEMBER_183_1_STROKES" class="st5" d="M180.5,116.7l2.7-0.2l-5.1-0.1"/>
<path id="Layer0_5_MEMBER_0_MEMBER_1_MEMBER_184_1_STROKES" class="st5" d="M235.5,117.7l0.7-0.2l0.8-0.6l0.6-0.9l0.4-1.2l0.1-1.3
	l-0.1-1.3l-0.4-1.2l-0.6-0.9l-0.8-0.6l-0.6-0.2"/>
<path id="Layer0_5_MEMBER_0_MEMBER_1_MEMBER_185_1_STROKES" class="st5" d="M235.4,105.5l-0.8,0.2"/>
<path id="Layer0_5_MEMBER_0_MEMBER_1_MEMBER_186_1_STROKES" class="st5" d="M235.3,121.6l-1-0.2"/>
<path id="Layer0_5_MEMBER_0_MEMBER_1_MEMBER_187_1_STROKES" class="st5" d="M235.4,105.5l1.1,0.2h0.8l1.1,0.6l1,1l0.8,1.3l0.6,1.5
	l0.4,1.7l0.1,1.8l-0.2,1.8l-0.4,1.7l-0.7,1.6l-0.8,1.2l-1,1l-1.1,0.6l-1.1,0.3h-0.8l1.1-0.3l1.1-0.6l1-1l0.9-1.3l0.6-1.5l0.4-1.7
	l0.2-1.8l-0.1-1.8L240,110l-0.7-1.5l-0.8-1.2l-1-1l-1.1-0.6"/>
<path id="Layer0_5_MEMBER_0_MEMBER_1_MEMBER_188_1_STROKES" class="st5" d="M139.4,116.9l0.3-1.5l0.3-0.5l0.6-0.8l0.6-0.4"/>
<path id="Layer0_5_MEMBER_0_MEMBER_1_MEMBER_189_1_STROKES" class="st5" d="M106.8,125.3l0.8,1.4l1,1.2l1.2,0.9l1.2,0.5l1.3,0.2
	l1.3-0.3l1.1-0.6"/>
<path id="Layer0_5_MEMBER_0_MEMBER_1_MEMBER_190_1_STROKES" class="st5" d="M113.8,109.8l-0.7-0.3l-1.3-0.2l-1.3,0.3l-1.2,0.6
	l-1.1,1l-0.9,1.3l-0.4,0.8"/>
<path id="Layer0_5_MEMBER_0_MEMBER_1_MEMBER_191_1_STROKES" class="st5" d="M117.5,133.8l-1.3,0.1"/>
<path id="Layer0_5_MEMBER_0_MEMBER_1_MEMBER_192_1_STROKES" class="st5" d="M117.3,117.2l-0.1,1.1"/>
<path id="Layer0_5_MEMBER_0_MEMBER_1_MEMBER_193_1_STROKES" class="st5" d="M132.1,140.6l-0.7-0.1l-0.4-0.1v-0.1l0.2-0.1l4.8,0.1"/>
<path id="Layer0_5_MEMBER_0_MEMBER_1_MEMBER_194_1_STROKES" class="st5" d="M136.7,140.3H136"/>
<path id="Layer0_5_MEMBER_0_MEMBER_1_MEMBER_195_1_STROKES" class="st5" d="M132.1,140.6l3-0.2"/>
<path id="Layer0_5_MEMBER_0_MEMBER_1_MEMBER_196_1_STROKES" class="st5" d="M141.2,119.8l-0.7-0.3l-0.6-0.7l-0.3-0.5l-0.2-0.5
	l-0.2-1"/>
<path id="Layer0_5_MEMBER_0_MEMBER_1_MEMBER_197_1_STROKES" class="st5" d="M134.5,96.3l-3.7,0.3"/>
<path id="Layer0_5_MEMBER_0_MEMBER_1_MEMBER_198_1_STROKES" class="st5" d="M126.8,96.8l-2.3,0.6l-2.1,1l-1.7,1.1"/>
<path id="Layer0_5_MEMBER_0_MEMBER_1_MEMBER_199_1_STROKES" class="st5" d="M121.3,137.7l1.7,1.1l2.2,1l2.2,0.7l2.3,0.3"/>
<path id="Layer0_5_MEMBER_0_MEMBER_1_MEMBER_200_1_STROKES" class="st5" d="M104.7,126.6l0.7,1.6l1.5,2.1l1.3,1.2l0.7,0.5l1.1,0.5
	l1.1,0.3l1.1,0.1"/>
<path id="Layer0_5_MEMBER_0_MEMBER_1_MEMBER_201_1_STROKES" class="st5" d="M111.8,105.9l-2.2,0.6l-1.1,0.7l-1.9,1.8l-1.7,2.8
	l-0.1,0.3"/>
<path id="Layer0_5_MEMBER_0_MEMBER_1_MEMBER_202_1_STROKES" class="st5" d="M111.8,105.9l3.7-0.2"/>
<path id="Layer0_5_MEMBER_0_MEMBER_1_MEMBER_203_1_STROKES" class="st5" d="M112.2,132.8l4.5-0.3"/>
<path id="Layer0_5_MEMBER_0_MEMBER_1_MEMBER_204_1_STROKES" class="st5" d="M118.8,118l-0.1-1l-0.3-0.9l-0.5-0.7l-0.6-0.4l-0.7,0.1
	l-0.7,0.4l-0.6,0.7l-0.4,0.9l-0.1,1.1"/>
<path id="Layer0_5_MEMBER_0_MEMBER_1_MEMBER_205_1_STROKES" class="st5" d="M116.2,133.8h-1.1"/>
<path id="Layer0_5_MEMBER_0_MEMBER_1_MEMBER_206_1_STROKES" class="st5" d="M120.7,99.4l-2.2,2l-3,4.3l-1.2,2.6l-1.4,5.6l-0.3,3
	l0.4,5.9l1.6,5.7l2.7,4.9l1.7,2.1l1.9,1.8l0.4,0.3"/>
<path id="Layer0_5_MEMBER_0_MEMBER_1_MEMBER_207_1_STROKES" class="st5" d="M113.2,112.2l-0.7-0.1l-0.8,0.2l-0.3,0.1l-1.1,0.7"/>
<path id="Layer0_5_MEMBER_0_MEMBER_1_MEMBER_208_1_STROKES" class="st5" d="M113.8,126.4l-1.1,0.3l-1.1-0.2l-1-0.6"/>
<path id="Layer0_5_MEMBER_0_MEMBER_1_MEMBER_209_1_STROKES" class="st5" d="M113.2,111.8l-1.2-0.2l-1.2,0.3l-1.1,0.7l-0.5,0.6"/>
<path id="Layer0_5_MEMBER_0_MEMBER_1_MEMBER_210_1_STROKES" class="st5" d="M113.8,126.4l-0.5,0.3l-1.1,0.3l-1.2-0.2l-1.1-0.6
	l-0.9-0.9"/>
<path id="Layer0_5_MEMBER_0_MEMBER_1_MEMBER_211_1_STROKES" class="st5" d="M113.8,109.8l-0.7-0.3l-1.3-0.1l-1.2,0.3l-1.2,0.6
	l-1.1,1l-0.9,1.3l-0.4,0.7"/>
<path id="Layer0_5_MEMBER_0_MEMBER_1_MEMBER_212_1_STROKES" class="st5" d="M113.4,129.1l-1.2,0.3l-1.3-0.1l-1.2-0.5l-1.1-0.9
	l-1-1.2l-0.8-1.4"/>
<path id="Layer0_5_MEMBER_0_MEMBER_1_MEMBER_213_1_STROKES" class="st5" d="M114,105.1h0.3l1.5-0.2"/>
<path id="Layer0_5_MEMBER_0_MEMBER_1_MEMBER_214_1_STROKES" class="st5" d="M118.8,118l-0.1,1.1l-0.1,0.5l-0.2,0.5l-0.5,0.7
	l-0.6,0.4l-0.7,0.1l-0.7-0.4l-0.6-0.7l-0.3-0.4l-0.2-0.5l-0.2-1.1"/>
<path id="Layer0_5_MEMBER_0_MEMBER_1_MEMBER_215_1_STROKES" class="st5" d="M117.2,118.3l0.1,1.1l0.5,0.9l0.3,0.4"/>
<path id="Layer0_5_MEMBER_0_MEMBER_1_MEMBER_216_1_STROKES" class="st5" d="M117.3,117.2l0.1-0.3l0.3-0.6l0.5-0.6"/>
<path id="Layer0_5_MEMBER_0_MEMBER_1_MEMBER_217_1_STROKES" class="st5" d="M163.3,108.1l-0.3,0.6l-0.7,2.3l-0.6,5l0.7,4.9l1.8,4.5
	l1.3,1.9l1.5,1.6l1.6,1.4l1.8,1l1.9,0.6l1.9,0.3l1.9-0.2l1.9-0.5l1.7-1l1.6-1.3l1.5-1.6l0.4-0.6"/>
<path id="Layer0_5_MEMBER_0_MEMBER_1_MEMBER_218_1_STROKES" class="st5" d="M173.9,132.1l1.8-0.6l1.8-0.9l1.6-1.3l1.4-1.6l0.9-1.3"
	/>
<path id="Layer0_5_MEMBER_0_MEMBER_1_MEMBER_219_1_STROKES" class="st5" d="M174.5,144.2l2.6-0.2l2.5-0.6l2.4-1l2.4-1.3l4.2-3.8
	l1.8-2.3l2.9-5.5l0.7-2.1"/>
<path id="Layer0_5_MEMBER_0_MEMBER_1_MEMBER_220_1_STROKES" class="st5" d="M149.7,93.9l-3.5,4l-1.6,2.7l-2.3,5.9l-1.2,6.6l-0.1,3.3
	l0.7,6.7l1.9,6.3l3,5.6l1.9,2.5l4.3,3.9l2.4,1.5l2.5,1l2.6,0.7l2.6,0.3l11.6-0.7l-2.6-0.3l-2.5-0.7l-2.5-1l-2.4-1.4l-2.3-1.8
	l-3.9-4.5l-3-5.6l-1.9-6.3l-0.7-6.7l0.5-6.7l1.8-6.3l1.1-2.3"/>
<path id="Layer0_5_MEMBER_0_MEMBER_1_MEMBER_221_1_STROKES" class="st5" d="M222.3,98.3l1.2-0.1"/>
<path id="Layer0_5_MEMBER_0_MEMBER_1_MEMBER_222_1_STROKES" class="st5" d="M212.7,123.7l0.4,0.6l1,1.1l0.8,0.6l1.4,0.9l1.2,0.4
	l1.2,0.2l1.2-0.2l1.2-0.3l1.2-0.6l1.1-0.8l1.1-1.1l1.8-2.8l1.2-3.5l0.3-1.2l0.4-4.1l-0.1-1.4l-0.6-3.3l-0.7-2.1l-0.1-0.1l-0.8-1.7
	l-0.9-1.4l-1-1.2l-1.1-1l-1.1-0.7l-1.2-0.5l-1.2-0.2h-1.2l-1.2,0.3l-1.2,0.5l-1.1,0.8l-1,1l-0.7,0.9"/>
<path id="Layer0_5_MEMBER_0_MEMBER_1_MEMBER_223_1_STROKES" class="st5" d="M229.8,100l1.1,0.7l1.1,1l1,1.2l0.7,1l1,2.1v0.1l0.7,2
	l0.5,2.5l0.2,2.9l-0.4,3.5l-0.7,2.8l-0.8,1.8l-1.8,2.8l-2.1,1.9l-1.2,0.6"/>
<path id="Layer0_5_MEMBER_0_MEMBER_1_MEMBER_224_1_STROKES" class="st5" d="M220.6,120l-0.9,0.5l-0.8,0.1l-0.8-0.1l-0.4-0.1
	l-0.5-0.2l-0.2-0.2"/>
<path id="Layer0_5_MEMBER_0_MEMBER_1_MEMBER_225_1_STROKES" class="st5" d="M215.8,118.8l0.2,0.3l0.3,0.3l0.4,0.3"/>
<path id="Layer0_5_MEMBER_0_MEMBER_1_MEMBER_226_1_STROKES" class="st5" d="M216.8,106.9l-0.6,0.4"/>
<path id="Layer0_5_MEMBER_0_MEMBER_1_MEMBER_227_1_STROKES" class="st5" d="M220.6,106.6l-0.2-0.2l-0.9-0.4l-0.8-0.1l-0.8,0.2
	l-0.4,0.2l-0.4,0.3l-0.3,0.2"/>
<path id="Layer0_5_MEMBER_0_MEMBER_1_MEMBER_228_1_STROKES" class="st5" d="M221.9,107.8l-0.5-0.6l-0.3-0.3"/>
<path id="Layer0_5_MEMBER_0_MEMBER_1_MEMBER_229_1_STROKES" class="st5" d="M223.4,111.6l-0.3-1.6l-0.4-0.9l-0.3-0.5"/>
<path id="Layer0_5_MEMBER_0_MEMBER_1_MEMBER_230_1_STROKES" class="st5" d="M223.5,113.9l0.1-0.9v-0.1l-0.1-0.9"/>
<path id="Layer0_5_MEMBER_0_MEMBER_1_MEMBER_231_1_STROKES" class="st5" d="M222.6,117.4l0.3-0.5l0.3-0.7l0.3-1.3l0.1-0.1l0.1-0.6"
	/>
<path id="Layer0_5_MEMBER_0_MEMBER_1_MEMBER_232_1_STROKES" class="st5" d="M221,119.7l0.7-0.6l0.5-0.6l0.4-0.8"/>
<path id="Layer0_5_MEMBER_0_MEMBER_1_MEMBER_233_1_STROKES" class="st5" d="M172.9,120.9h0.3l1.2,0.7l0.5,0.5l0.2,0.3l-0.3,0.1
	l-0.6-0.3l-0.7-0.5l-0.5-0.4L172.9,120.9z"/>
<path id="Layer0_5_MEMBER_0_MEMBER_1_MEMBER_234_1_STROKES" class="st5" d="M171.9,117.1l-0.1,0.9v0.1l0.1,0.8l0.3,0.6l0.3-0.1
	l0.2-0.6l0.1-0.8"/>
<path id="Layer0_5_MEMBER_0_MEMBER_1_MEMBER_235_1_STROKES" class="st5" d="M170.5,120.5l1.9,1.8l0.3,0.2l0.3,0.2l0.1,0.1l0.1,0.1
	l3.7,2.4l2.1-0.1"/>
<path id="Layer0_5_MEMBER_0_MEMBER_1_MEMBER_236_1_STROKES" class="st5" d="M174.1,120.3l-3.6,0.2l-0.5-5.4"/>
<path id="Layer0_5_MEMBER_0_MEMBER_1_MEMBER_237_1_STROKES" class="st5" d="M174.2,119.6l-0.1,0.8l2,1.2"/>
<path id="Layer0_5_MEMBER_0_MEMBER_1_MEMBER_238_1_STROKES" class="st5" d="M169.9,121.9l0.5,0.4l0.1,0.3l-0.3,0.1l-1.2-0.7
	l-0.1-0.1l-0.5-0.4l-0.1-0.3h0.3l0.6,0.3L169.9,121.9z"/>
<path id="Layer0_5_MEMBER_0_MEMBER_1_MEMBER_239_1_STROKES" class="st5" d="M167.3,118.2l0.1-0.8l0.2-0.6l0.3-0.1l0.1,0.1l0.2,0.6
	l0.1,0.8l-0.1,0.9l-0.2,0.6l-0.3,0.1l-0.3-0.6l-0.1-0.8V118.2z"/>
<path d="M173.1,123c0.1,0,0.2-0.1,0.2-0.2c0-0.1-0.1-0.2-0.2-0.2c-0.1,0-0.2,0.1-0.2,0.2C172.9,123,173,123,173.1,123z"/>
<path id="Layer0_5_MEMBER_0_MEMBER_1_MEMBER_240_1_STROKES" class="st5" d="M173.2,122.9c0-0.1-0.1-0.2-0.2-0.2
	c-0.1,0-0.2,0.1-0.2,0.2c0,0.1,0.1,0.2,0.2,0.2C173.2,123,173.2,123,173.2,122.9z"/>
<path id="Layer0_5_MEMBER_0_MEMBER_1_MEMBER_241_1_STROKES" class="st5" d="M166,120.8l2.1,2"/>
<path id="Layer0_5_MEMBER_0_MEMBER_1_MEMBER_242_1_STROKES" class="st5" d="M175.8,125.3l-3.6,0.2l-3.4-2.2"/>
<path id="Layer0_5_MEMBER_0_MEMBER_1_MEMBER_243_1_STROKES" class="st5" d="M165.9,111.5l-0.4,4.3"/>
<path id="Layer0_5_MEMBER_0_MEMBER_1_MEMBER_244_1_STROKES" class="st5" d="M169.6,120.5l-3.6,0.3l-0.5-4.4"/>
<path id="Layer0_5_MEMBER_0_MEMBER_1_MEMBER_245_1_STROKES" class="st5" d="M166.5,111.4l-0.7,0.1l0.4-0.3"/>
<path id="Layer0_5_MEMBER_0_MEMBER_1_MEMBER_246_1_STROKES" class="st5" d="M173,122.7l0.1,0.1l0.5,0.4l2.2,2.1l0.5-0.3"/>
<path id="Layer0_5_MEMBER_0_MEMBER_1_MEMBER_247_1_STROKES" class="st5" d="M169.9,115l0.1,0.9l-0.4,4.6l2.7,1.8l0.3,0.2l0.3,0.2"/>
<path id="Layer0_5_MEMBER_0_MEMBER_1_MEMBER_248_1_STROKES" class="st5" d="M84.1,32.6l0.4-2.4l-0.2-1.2l-0.4-1.2l-0.6-0.8l-0.7-0.6
	l-0.8-0.3L81,26.2l-0.8,0.5l-0.6,0.8l-0.5,1"/>
<path id="Layer0_5_MEMBER_0_MEMBER_1_MEMBER_249_1_STROKES" class="st5" d="M85.1,33.2L84,34l-2.1,2.2"/>
<path id="Layer0_5_MEMBER_0_MEMBER_1_MEMBER_250_1_STROKES" class="st5" d="M86.4,33.2l-3.1,3h-1.3l-2.2-1.7l-1.1-1l-0.2-4.1
	l0.1-1.7l3.1-3"/>
<path id="Layer0_5_MEMBER_0_MEMBER_1_MEMBER_251_1_STROKES" class="st5" d="M85,27.4l-2.2-1.6l-1.1-1.1l1.3,0.1l3.2,2.7"/>
<path id="Layer0_5_MEMBER_0_MEMBER_1_MEMBER_252_1_STROKES" class="st5" d="M84.9,30.1l0.2,3.1h1.3l-0.1-5.7L85,27.4L84.9,30.1z"/>
<path id="Layer0_5_MEMBER_0_MEMBER_1_MEMBER_253_1_STROKES" class="st5" d="M217.6,118.8l0.3-0.1l0.6-0.2h0.1l0.9-0.6l0.1-0.2
	l0.5-0.6l0.2-0.2l0.6-1.2v-0.2l0.3-0.9l0.1-0.3l0.1-1.5l-0.1-0.9l-0.4-1.7l-0.1-0.2l-0.6-1.1l-0.1-0.2l-0.7-0.7l-0.9-0.6h-0.1
	l-0.9-0.1"/>
<path id="Layer0_5_MEMBER_0_MEMBER_1_MEMBER_254_1_STROKES" class="st5" d="M217.3,109.8l0.2,0.2"/>
<path id="Layer0_5_MEMBER_0_MEMBER_1_MEMBER_255_1_STROKES" class="st5" d="M216.7,109.4l0.4,0.3"/>
<path id="Layer0_5_MEMBER_0_MEMBER_1_MEMBER_256_1_STROKES" class="st5" d="M215.9,109.3l0.4,0.1"/>
<path id="Layer0_5_MEMBER_0_MEMBER_1_MEMBER_257_1_STROKES" class="st5" d="M216,117.2l-0.3-0.1"/>
<path id="Layer0_5_MEMBER_0_MEMBER_1_MEMBER_258_1_STROKES" class="st5" d="M216.8,117l-0.4,0.1"/>
<path id="Layer0_5_MEMBER_0_MEMBER_1_MEMBER_259_1_STROKES" class="st5" d="M217.5,116.4l-0.3,0.3"/>
<path id="Layer0_5_MEMBER_0_MEMBER_1_MEMBER_260_1_STROKES" class="st5" d="M215.3,117.6l0.4,0.1l0.9-0.2l0.8-0.7l0.6-1l0.4-1.3
	l0.2-1.4l-0.2-1.4l-0.4-1.2l-0.7-1l-0.9-0.6l-0.9-0.2"/>
<path id="Layer0_5_MEMBER_0_MEMBER_1_MEMBER_261_1_STROKES" class="st5" d="M215,118.6l0.7,0.1l0.9-0.2l0.9-0.7l0.7-0.9l0.5-1.2
	l0.4-1.3l0.1-1.5l-0.2-1.4l-0.4-1.3l-0.6-1.2l-0.7-0.8l-0.9-0.6l-0.9-0.1l-0.3,0.1"/>
<path id="Layer0_5_MEMBER_0_MEMBER_1_MEMBER_262_1_STROKES" class="st5" d="M79.1,28.4l-0.3,1.2l-0.1,1.3l0.2,1.2l0.4,1.1l0.6,0.8
	l0.7,0.6l0.8,0.3l0.8-0.1l0.8-0.5l0.6-0.8l0.5-1"/>
<path id="Layer0_5_MEMBER_0_MEMBER_1_MEMBER_263_1_STROKES" class="st5" d="M86.3,30.7v-0.5l-0.1-0.3"/>
<path id="Layer0_5_MEMBER_0_MEMBER_1_MEMBER_264_1_STROKES" class="st5" d="M90.9,37.3l15.2-29.5l1.1-1.3l1.2-1l1.3-0.6l1.3-0.3
	l1.4,0.1l1.3,0.5L115,6l4.1,3.6l1,1.4l0.8,1.6l1.1,3.8l0.2,2.4l-0.9,8.2l0.3,7.2l1.2,5.6l2.1,4.9l2.7,3.9l1.6,1.6L189,100l1.3,1.4
	l1.2,1.7l1,2l1.2,4.6l0.2,2.5l-0.5,5l-0.7,2.3l-2,3.9l-1.3,1.5l-1.4,1.2l-1.6,0.8l-1.6,0.3l-1.6-0.1l-1-0.4"/>
<path id="Layer0_5_MEMBER_0_MEMBER_1_MEMBER_265_1_STROKES" class="st5" d="M93.4,51l2.2,2.8"/>
<path id="Layer0_5_MEMBER_0_MEMBER_1_MEMBER_266_1_STROKES" class="st5" d="M129.6,21.1l-0.6-0.2l-0.3-0.3l-0.2-0.2l-0.3-0.7
	l-0.1-0.9v-0.4l-0.2-2l-1-3.8l-0.8-1.6l-1-1.4l-4.1-3.6l-1.2-0.8l-1.3-0.5l-1.4-0.1"/>
<path id="Layer0_5_MEMBER_0_MEMBER_1_MEMBER_267_1_STROKES" class="st5" d="M128.5,20.1l1.1,0.9l-0.6,4.1l-0.5,0.1h-0.1l-0.5,0.5
	l-0.4,0.7l-0.2,0.8v4.3l0.8,5.7l0.8,2.7l1.3,2.5l3.3,4.5l3.9,3.4l65.5,43.2l8.2,6.7l1.3,1.4l1.2,1.7l1,2l0.7,2.2l0.7,4.9l-0.5,5
	l-0.7,2.3l-0.9,2.1l-1.1,1.8l-1.3,1.5l-1.4,1.2l-1.5,0.8l-1.6,0.3"/>
<path id="Layer0_5_MEMBER_0_MEMBER_1_MEMBER_268_1_STROKES" class="st5" d="M113,62.6l-2.6-0.2l-5.2-1.4l-0.8-0.5"/>
<path id="Layer0_5_MEMBER_0_MEMBER_1_MEMBER_269_1_STROKES" class="st5" d="M119.2,62.7l0.1-0.4"/>
<path id="Layer0_5_MEMBER_0_MEMBER_1_MEMBER_270_1_STROKES" class="st5" d="M119.1,62.7h-0.3l-0.3-0.1l-0.4-0.4l-0.2-0.4v-0.1
	l0.1-0.3"/>
<path id="Layer0_5_MEMBER_0_MEMBER_1_MEMBER_271_1_STROKES" class="st5" d="M118.5,62.7l-5.5-0.1l0.9-1l1-0.6l1.1-0.3l1.1,0.1l1,0.5
	l1,0.8l56.9,59.2"/>
<path id="Layer0_5_MEMBER_0_MEMBER_1_MEMBER_272_1_STROKES" class="st5" d="M83.5,73.8l-0.7-0.4l-0.8,0.1l-0.2,0.2l-0.6,0.3
	l-0.6,0.8l-0.4,1.1l-0.1,0.7l-0.1,0.5l0.2,0.8V78l0.4,1l0.6,0.7l0.8,0.4h0.1l0.6-0.1l0.2-0.1l0.6-0.4l0.2-0.3l0.4-0.5l0.4-1.1
	l0.1-1.1l-0.2-1.2l-0.4-0.9l-0.1-0.1L83.5,73.8z"/>
<path id="Layer0_5_MEMBER_0_MEMBER_1_MEMBER_273_1_STROKES" class="st5" d="M84.1,73.5l0.7,0.4l0.6,0.7l0.4,1l0.2,1.2l-0.1,1.1
	l-0.4,1.1L85,79.6l-0.8,0.5l-0.8,0.1"/>
<path id="Layer0_5_MEMBER_0_MEMBER_1_MEMBER_274_1_STROKES" class="st5" d="M71.1,50l-0.7-0.4l-0.8,0.1l-0.7,0.4l-0.6,0.8l-0.4,1
	l-0.1,1.2l0.1,0.9l0.1,0.3l0.3,0.9l0.1,0.2l0.6,0.7l0.7,0.4l0.1-0.1l0.7-0.1l0.2-0.1l0.6-0.3l0.6-0.8l0.4-1l0.1-0.8v-0.4L72.1,52
	L72,51.7l-0.4-0.9v-0.1L71.1,50z"/>
<path id="Layer0_5_MEMBER_0_MEMBER_1_MEMBER_275_1_STROKES" class="st5" d="M71.7,49.6l0.7,0.4l0.6,0.8l0.4,1l0.2,1.1L73.3,54
	L73,55.1l-0.5,0.8l-0.7,0.5L71,56.3"/>
<path id="Layer0_5_MEMBER_0_MEMBER_1_MEMBER_276_1_STROKES" class="st5" d="M127.7,15l-0.1-1.2l-0.5-1.9l-0.7-1.6l-0.9-1.5l-1-1.1
	L123.4,7l-1.3-0.4h-0.3"/>
<path id="Layer0_5_MEMBER_0_MEMBER_1_MEMBER_277_1_STROKES" class="st5" d="M100.1,112.1l0.9,4l0.2,2.4l-0.5,4.8l-0.7,2.3l-0.9,2
	l-1.1,1.8l-1.3,1.5l-1.4,1.1l-1.5,0.7l-0.6,0.1"/>
<path id="Layer0_5_MEMBER_0_MEMBER_1_MEMBER_278_1_STROKES" class="st5" d="M97.3,129.4l-0.3,0.3"/>
<path id="Layer0_5_MEMBER_0_MEMBER_1_MEMBER_279_1_STROKES" class="st5" d="M98.4,127.6l-0.2,0.3"/>
<path id="Layer0_5_MEMBER_0_MEMBER_1_MEMBER_280_1_STROKES" class="st5" d="M100.2,116.5l0.2,2l-0.5,4.8l-0.8,2.6"/>
<path id="Layer0_5_MEMBER_0_MEMBER_1_MEMBER_281_1_STROKES" class="st5" d="M100,115l0.2,1"/>
<path id="Layer0_5_MEMBER_0_MEMBER_1_MEMBER_282_1_STROKES" class="st5" d="M75.2,116.5l0.5-0.5l0.7-0.2l0.7,0.2l0.6,0.5l0.3,0.5
	l0.2,0.3l0.2,0.7l0.1,0.3v1.1l-0.2,1l-0.5,0.9l-0.5,0.5l-0.7,0.2h-0.3l-0.4-0.1l-0.6-0.5l-0.1-0.3"/>
<path id="Layer0_5_MEMBER_0_MEMBER_1_MEMBER_283_1_STROKES" class="st5" d="M75.5,116.5L75,117l-0.4,0.7l-0.2,0.9v1l0.3,0.8l0.5,0.6
	l0.6,0.3l0.6-0.1l0.6-0.4l0.4-0.8l0.2-0.9l-0.1-0.9l-0.3-0.8l-0.5-0.6l-0.6-0.3L75.5,116.5z"/>
<path id="Layer0_5_MEMBER_0_MEMBER_1_MEMBER_284_1_STROKES" class="st5" d="M108.4,123l-0.1-8.1"/>
<path id="Layer0_5_MEMBER_0_MEMBER_1_MEMBER_285_1_STROKES" class="st5" d="M105.9,114.9l2.4,0.1l-4.6-3.8l-2.3-0.1"/>
<path id="Layer0_5_MEMBER_0_MEMBER_1_MEMBER_286_1_STROKES" class="st5" d="M101.6,127.2l2.4,0.1l4.4-4.3L106,123"/>
<path id="Layer0_5_MEMBER_0_MEMBER_1_MEMBER_287_1_STROKES" class="st5" d="M99.9,126l0.8,0.6l0.1,0.1l0.9,0.6l3-3.1l0.5-0.3
	l0.9-0.8l-0.3-4.1l0.2-4l-0.9-0.7l-0.1-0.1l-2.9-2.3v-0.1l-0.7-0.7l-1.3,1.1"/>
<path id="Layer0_5_MEMBER_0_MEMBER_1_MEMBER_288_1_STROKES" class="st5" d="M96.3,26.7l-1.2-0.1"/>
<path id="Layer0_5_MEMBER_0_MEMBER_1_MEMBER_289_1_STROKES" class="st5" d="M75.7,115.1L66,72.8"/>
<path class="st6" d="M174.6,18v4.9l-18.3,10.6v12.7l0.3,0.2c0.1,0.1,0.2,0.2,0.3,0.2c0.1,0.1,0.2,0.1,0.4,0.2l1.7,1l15.6-9.1v1.8
	l2.7,1.7l9.5-16.9L174.6,18 M174.4,27l0.6-0.4l0.4-0.1c0.2,0,0.5,0,0.8,0c0.3,0,0.5,0.2,0.6,0.5c0.2,0.2,0.2,0.6,0.2,1v0.4l-0.2,1.2
	l-0.6,1.2l-0.5,0.4l-3.2,2.1v-4.9L174.4,27 M168.7,30.3l0.8,2.1c0.2,0.5,0.3,1,0.4,1.5l1.2-4.9l0.8-0.4l-1.5,5.7l-0.7,0.5l-1.2-3.5
	l0,0v-0.1l-0.1,0.3v0.1l-0.1,0.2l-1.2,4.5l-0.7,0.4l-1.4-4l0.7-0.5l1.1,3.7l1.2-5L168.7,30.3 M163.8,35.2v0.6l-2.7,1.5v2.3l-0.6,0.5
	v-5l3.7-2.1v0.6l-3,1.7v1.5L163.8,35.2 M174.9,27.3l-0.3,0l-0.2,0.3l-1.2,0.7v3.7l1.7-1l0.8-0.8l0.5-0.9l0.1-0.7v-0.3
	c0-0.5-0.1-0.8-0.2-1.1c-0.2-0.2-0.5-0.2-0.7-0.1h-0.1L174.9,27.3z"/>
<path id="Layer0_5_MEMBER_1_MEMBER_1_MEMBER_0_1_STROKES" class="st7" d="M174.6,18V23l-18.3,10.6v12.7"/>
<path id="Layer0_5_MEMBER_1_MEMBER_1_MEMBER_1_1_STROKES" class="st7" d="M184.1,23.9l-9.4-5.9"/>
<path id="Layer0_5_MEMBER_1_MEMBER_1_MEMBER_2_1_STROKES" class="st7" d="M174.6,40.7v-5l-18.3,10.5"/>
<path id="Layer0_5_MEMBER_1_MEMBER_1_MEMBER_3_1_STROKES" class="st7" d="M184.1,23.9l-9.4,16.9"/>
<path id="Layer0_5_MEMBER_1_MEMBER_1_MEMBER_4_1_STROKES" class="st7" d="M184.1,23.9l2.7,1.6"/>
<path id="Layer0_5_MEMBER_1_MEMBER_1_MEMBER_5_1_STROKES" class="st7" d="M174.6,40.7l2.7,1.6"/>
<path id="Layer0_5_MEMBER_1_MEMBER_1_MEMBER_6_1_STROKES" class="st7" d="M156.3,46.3L159,48l15.2-8.8"/>
<path id="Layer0_5_MEMBER_1_MEMBER_1_MEMBER_7_1_STROKES" class="st7" d="M177.3,42.3l9.5-16.9"/>
<path id="Layer0_6_MEMBER_1_1_STROKES" class="st5" d="M273.3,83l-1.4-0.4h-1.3l-1.1,0.3l-0.9,0.7l-0.6,1l-0.3,1.3l0.1,1.7l0.5,2
	l2.3,4.6l3,3.6l3.2,2.3l1.5,0.6l1.4,0.3h1.3l1.1-0.3l0.9-0.6l0.6-1l0.3-1.3l-0.1-1.7l-0.5-1.9l-1-2.3l-2.8-4.3L278,86l-1.5-1.3
	l-1.6-1L273.3,83z"/>
<path id="Layer0_6_MEMBER_2_1_STROKES" class="st5" d="M302.9,27.8l-1.8,1.3l-1.4,1.4l-0.5,0.7l-0.4,0.8l-0.3,0.7l-0.1,0.6l0.1,0.6
	l0.1,0.5l0.3,0.4l0.5,0.3l0.6,0.3l1.5,0.1l1.8-0.3l1.9-0.7l2.5-1.4"/>
<path id="Layer0_6_MEMBER_3_1_STROKES" class="st5" d="M289.1,76.1l1.4-0.3l2.2-0.8l10.2-5.6"/>
<path id="Layer0_6_MEMBER_4_1_STROKES" class="st5" d="M303,69.4l7-4.8l4.3-3.8"/>
<path id="Layer0_6_MEMBER_5_1_STROKES" class="st5" d="M289.1,76.1l1.4-0.3l2.2-0.8l10.2-5.6"/>
<path id="Layer0_6_MEMBER_6_1_STROKES" class="st5" d="M303,69.4l7-4.8l4.3-3.8"/>
<path id="Layer0_6_MEMBER_7_1_STROKES" class="st5" d="M314.3,60.9l4.7-24.5"/>
<path id="Layer0_6_MEMBER_8_1_STROKES" class="st5" d="M302.7,35.3l-9.4,27.6"/>
<path id="Layer0_6_MEMBER_9_1_STROKES" class="st5" d="M309.4,74l-26.7,26.2"/>
<path id="Layer0_6_MEMBER_10_1_STROKES" class="st5" d="M309.4,74l3.8-5.4l1.4-2.9"/>
<path id="Layer0_6_MEMBER_11_1_STROKES" class="st5" d="M309.4,74l3.8-5.4l1.4-2.9"/>
<path id="Layer0_6_MEMBER_12_1_STROKES" class="st5" d="M293.1,62.9l-20,16.2"/>
<path id="Layer0_6_MEMBER_13_1_STROKES" class="st5" d="M269.6,83l2.5-1.3"/>
<path id="Layer0_6_MEMBER_14_1_STROKES" class="st5" d="M322.5,21.9v-4.5"/>
<path id="Layer0_6_MEMBER_15_1_STROKES" class="st5" d="M322.5,21.9l-3.2,2.4"/>
<path id="Layer0_6_MEMBER_16_1_STROKES" class="st5" d="M313.1,22L303,27.7"/>
<path id="Layer0_6_MEMBER_17_1_STROKES" class="st5" d="M313.1,22L303,27.7"/>
<path id="Layer0_6_MEMBER_18_1_STROKES" class="st5" d="M308.1,31.6l27.4,12.1"/>
<path id="Layer0_6_MEMBER_19_1_STROKES" class="st5" d="M314.5,21.5l-22.4-13"/>
<path id="Layer0_6_MEMBER_20_1_STROKES" class="st5" d="M344.1,38.7L318.7,24"/>
<path id="Layer0_6_MEMBER_21_1_STROKES" class="st5" d="M344.1,38.7l-2.3,1.7"/>
<path id="Layer0_6_MEMBER_22_1_STROKES" class="st5" d="M341.7,40.3l-25.2-14.6"/>
<path id="Layer0_6_MEMBER_23_1_STROKES" class="st5" d="M302.6,28l-18.7-14.2"/>
<path id="Layer0_6_MEMBER_24_1_STROKES" class="st5" d="M289.3,9.9l22.3,12.9"/>
<path id="Layer0_6_MEMBER_25_1_STROKES" class="st5" d="M292.1,8.5l-2.7,1.4l-5.4,3.6"/>
<path id="Layer0_6_MEMBER_26_1_STROKES" class="st5" d="M341.7,40.3l-0.3,0.3l-3.4,2.2l-2,0.9"/>
<path id="Layer0_6_MEMBER_27_1_STROKES" class="st5" d="M308,30.6l-0.1,0.1l-0.1,0.2l0,0.2"/>
<path id="Layer0_6_MEMBER_28_1_STROKES" class="st5" d="M307.7,31l0,0.3l0.1,0.2l0.2,0.1"/>
<path id="Layer0_6_MEMBER_29_1_STROKES" class="st5" d="M308,30.6l-0.1,0.1l-0.1,0.2l0,0.2"/>
<path id="Layer0_6_MEMBER_30_1_STROKES" class="st5" d="M307.7,31l0,0.3l0.1,0.2l0.2,0.1"/>
<path id="Layer0_6_MEMBER_31_1_STROKES" class="st5" d="M316.7,35.4l-5.5,28.2"/>
<path id="Layer0_6_MEMBER_32_1_STROKES" class="st5" d="M314.3,34.3L308.2,66"/>
<path id="Layer0_6_MEMBER_33_1_STROKES" class="st5" d="M289.1,76.1l4.4-13"/>
<path id="Layer0_6_MEMBER_34_1_STROKES" class="st5" d="M273.7,79.6l-0.1-0.2l0-0.1l-0.1-0.1l-0.1-0.1l-0.1-0.1"/>
<path id="Layer0_6_MEMBER_35_1_STROKES" class="st5" d="M273.8,80l0.4,3.5"/>
<path id="Layer0_6_MEMBER_36_1_STROKES" class="st5" d="M272.9,79.4l-0.5,3.5"/>
<path id="Layer0_6_MEMBER_37_1_STROKES" class="st5" d="M289.1,76.1l-14.9,7.4"/>
<path id="Layer0_6_MEMBER_38_1_STROKES" class="st5" d="M313.1,22.2l9.4-4.8"/>
<path id="Layer0_6_MEMBER_39_1_STROKES" class="st5" d="M307.9,30.6l1-0.9l3.7-2.7l6.1-3.1"/>
<path id="Layer0_6_MEMBER_40_1_STROKES" class="st5" d="M314.6,65.6l0.2-0.5l0.2-1.2"/>
<path id="Layer0_6_MEMBER_41_1_STROKES" class="st5" d="M315,63.9l-0.1-0.9l-0.4-0.9l-0.6-0.8"/>
<path id="Layer0_6_MEMBER_42_1_STROKES" class="st5" d="M314.6,65.6l0.2-0.5l0.2-1.2"/>
<path id="Layer0_6_MEMBER_43_1_STROKES" class="st5" d="M315,63.9l-0.1-0.9l-0.4-0.9l-0.6-0.8"/>
<path id="Layer0_6_MEMBER_44_1_STROKES" class="st5" d="M312.9,42.1l-6.9-2.1"/>
<path id="Layer0_6_MEMBER_45_1_STROKES" class="st5" d="M312.2,44.7l-6.9-2.1"/>
<path id="Layer0_6_MEMBER_46_1_STROKES" class="st5" d="M306.2,40.1l-0.7,2.6"/>
<path class="st8" d="M306,40l-0.7,2.6l8,2.4l0.7-2.6L306,40z"/>
<path id="Layer0_6_MEMBER_47_1_STROKES" class="st9" d="M305.9,40.1l8,2.4l-0.7,2.6l-8-2.4L305.9,40.1z"/>
<path class="st6" d="M202.4,138.8l1.3-5.3l-12.8,7.8l7.7,12.8l1.3-5.3l12,3l2.5-10.1L202.4,138.8z"/>
<path class="st6" d="M45.6,66.3l-11.1,5.5l4.6,9.3l11.1-5.5l2.4,4.9l4.8-14.3l-14.2-4.8L45.6,66.3z"/>
<text transform="matrix(1 0 0 1 223.4802 151.9829)" class="st10 st11">PCU Input Bungee</text>
<text transform="matrix(1 0 0 1 10.6538 93.4557)"><tspan x="0" y="0" class="st10 st11">Micro</tspan><tspan x="0" y="14.4" class="st10 st11">Switch</tspan></text>
<g>
	<path class="st6" d="M220.9,55.2l-2.8-6.3l-6.3,16.2l16.2,6.3l-2.8-6.3c25.6-15.6,48.6-23.5,71.9-23.6l2.9-0.3l-4.5-1
		C270.5,38.4,245.6,43.3,220.9,55.2z"/>
	<path id="Layer1_10_1_STROKES_4_" class="st12" d="M303.1,41.5l-7.5-1.3c-25.1-1.8-50.1,3.3-74.6,14.9l-2.8-6.3L211.9,65l16.2,6.3
		l-2.8-6.3c25.6-15.6,49.9-23.4,73.2-23.5C303.1,41.5,303.1,41.5,303.1,41.5z"/>
</g>
</svg>
