<?xml version="1.0" encoding="utf-8"?>
<!-- Generator: Adobe Illustrator 24.2.1, SVG Export Plug-In . SVG Version: 6.00 Build 0)  -->
<svg version="1.1" id="Ebene_1" xmlns="http://www.w3.org/2000/svg" xmlns:xlink="http://www.w3.org/1999/xlink" x="0px" y="0px"
	 viewBox="0 0 349.1 161" style="enable-background:new 0 0 349.1 161;" xml:space="preserve">
<style type="text/css">
	.st0{fill:#CCCCCC;}
	.st1{fill:#FF0000;}
	.st2{fill:#999999;}
	.st3{fill:#0099FF;}
	.st4{fill:none;stroke:#000000;stroke-width:0.5;stroke-miterlimit:4.9999;}
	.st5{fill:none;stroke:#2D2C2E;stroke-width:0.5;stroke-linecap:round;stroke-linejoin:bevel;stroke-miterlimit:3.9999;}
	.st6{fill:none;stroke:#666666;stroke-width:0.5;stroke-miterlimit:5;}
	.st7{fill:none;stroke:#FFFFFF;stroke-miterlimit:5;}
</style>
<path class="st0" d="M253.7,131.3v-0.6l-31.3,18l-3.9-2.2v0.3c0.3,0.6,0.2,0.9-0.2,1.2c-0.6,0.5-1.5,1.2-2.7,1.9
	c-1.4,0.9-2.2,1.4-2.6,1.7c-0.1,0-0.1,0.1-0.1,0.1l-0.4,0.3l-1,1.1l-0.8,1.3l-0.4,1.4l-0.1,1.3l0.4,1l0.7,0.6l2.6,1.3l-0.7-0.6
	l1.3,0.7l0.3,0l1-0.4l0,0l20-11.8L253.7,131.3 M218.1,155.1c0,0.2,0,0.4,0,0.7c0,0.6-0.1,1.1-0.4,1.8c-0.3,0.6-0.7,1-1.2,1.4
	c-0.2,0.1-0.4,0.2-0.6,0.3c-0.5,0.3-0.9,0.3-1.3,0.1c-0.4-0.3-0.7-0.7-0.7-1.4c0-0.7,0.1-1.4,0.5-2.2c0.4-0.8,0.9-1.4,1.5-1.8
	c0.6-0.4,1.1-0.5,1.5-0.3C217.8,153.9,218,154.4,218.1,155.1 M123.6,114.5l-0.5,1.4l-0.1,1.4l0.3,1.1l0.5,0.6l1,0.6l-0.6-0.7
	l-0.3-1.1l0.1-1.3l0.5-1.4l0.8-1.3l1-1l0.4-0.3l0.8-1l0.6-1.2l0.3-1c0-0.9,0.3-1.8,0.9-2.8c0.6-1,1.3-1.7,2.1-2l5.7-2.7
	c0,0,0.1,0,0.1,0c0.3-0.1,0.5-0.1,0.8,0l1,0.6c0.3,0.2,0.4,0.3,0.3,0.5l-0.3,0.5l-5.1,2.4c-0.6,0.3-1.2,0.7-1.6,1.3l0.4,1.5h-1.4
	c-0.3,0.6-0.4,1.3-0.4,1.9l-0.3,1l-0.6,1.2l-0.8,1l-0.4,0.3l-1,1l-0.2,0.3l-0.7,1l-0.4,1.1l-0.1,0.3l-0.1,1.3l0.2,0.6l0.1,0.5
	l0.7,0.7l1,0.6l1,0.2l1-0.4c3.3-1.5,8.3-3.9,15-7l1.2-0.6h0.3l0.4,0.2l0.1,0.1l0.1,0l0,0.1l0.9,1.2l8.9-4.2L138,100.1l-1.1,0.7
	l-6.3,2.9c-0.8,0.3-1.5,1-2.1,2.1c-0.6,1-0.9,1.9-0.9,2.8l-0.3,1l-0.6,1.2l-0.8,1l-1.5,1.3L123.6,114.5 M135.8,109.9
	c-0.2,0.4-0.4,0.6-0.7,0.8c-0.3,0.1-0.5,0.2-0.7,0c-0.2-0.1-0.3-0.4-0.3-0.7c0-0.3,0.1-0.6,0.3-1c0.2-0.3,0.4-0.6,0.7-0.8
	c0.3-0.2,0.5-0.2,0.7-0.1c0.2,0.1,0.3,0.4,0.3,0.7C136,109.2,136,109.6,135.8,109.9 M130.8,119.1c-0.2,0.3-0.4,0.6-0.7,0.8
	c-0.3,0.1-0.5,0.2-0.7,0c-0.2-0.1-0.3-0.3-0.3-0.6c0-0.3,0.1-0.7,0.3-1c0.2-0.3,0.4-0.6,0.7-0.8c0.3-0.1,0.5-0.2,0.7,0
	c0.2,0.1,0.3,0.3,0.3,0.7C131.1,118.4,131,118.7,130.8,119.1 M24.1,46.5l-0.1,1.3l0.3,1.1l0.7,0.6l2.5,1.4l0.9,0.2l1-0.3l12-6.3
	l-8.8-5.1l-6.1,3.3l-1,1l-0.8,1.4L24.1,46.5 M28.9,45.6c0.8-0.7,1.4-1,2-1c0.7,0.1,1,0.8,1,2.1c0.1,0.6-0.2,1.4-0.8,2.2
	c-0.7,0.9-1.3,1.4-1.8,1.4L29,50.4l-0.8,0c-0.7-0.5-0.9-1.3-0.7-2.3C27.6,47.2,28.1,46.4,28.9,45.6z"/>
<path class="st1" d="M218,155.7c0-0.2,0-0.4,0-0.7c-0.1-0.7-0.3-1.2-0.8-1.4c-0.4-0.2-1-0.1-1.5,0.3c-0.6,0.4-1.1,1-1.5,1.8
	c-0.4,0.8-0.5,1.5-0.5,2.2c0,0.7,0.3,1.2,0.7,1.4c0.4,0.2,0.8,0.2,1.3-0.1c0.1-0.1,0.2-0.1,0.2-0.1c0.6-0.4,1.1-1,1.5-1.8
	C217.8,156.7,218,156.2,218,155.7 M30.8,44.7c-0.6-0.1-1.2,0.2-2,1c-0.8,0.7-1.2,1.5-1.4,2.4c-0.2,1,0,1.8,0.7,2.3l0.8,0l0.2-0.1
	c0.5,0,1.1-0.4,1.8-1.4c0.6-0.8,0.9-1.6,0.8-2.2C31.8,45.5,31.5,44.8,30.8,44.7z"/>
<path class="st2" d="M124.2,118.8l0.6,0.7l1.7,0.2l-0.2-0.6l0.1-1.3l0.1-0.3l-0.3,0.1h-0.5l-0.3-0.3l0-0.7l0.3-0.7l0.5-0.7l0.5-0.4
	h0.5l0.5,0.5l0.2-0.3l1-1l0.4-0.3l0.8-1l0.6-1.2l0.3-1c0-0.6,0.1-1.3,0.4-1.9h-0.8l-0.3-0.4v-0.6l0.3-0.7l0.4-0.5l0.5-0.3l0.4,0
	l0.3,0.3l0.2,0.6c0.5-0.6,1-1.1,1.6-1.3l5.1-2.4l0.3-0.5c0.1-0.2-0.1-0.4-0.3-0.5l-1-0.6c-0.3-0.1-0.5-0.2-0.8,0c0,0-0.1,0-0.1,0
	l-5.7,2.7c-0.8,0.3-1.5,1-2.1,2c-0.6,1-0.9,1.9-0.9,2.8l-0.3,1l-0.6,1.2l-0.8,1l-0.4,0.3l-1,1l-0.8,1.3l-0.5,1.4l-0.1,1.3
	L124.2,118.8 M130.1,119.8c0.3-0.2,0.5-0.4,0.7-0.8c0.2-0.3,0.3-0.7,0.3-1c0-0.3-0.1-0.6-0.3-0.7c-0.2-0.1-0.4-0.1-0.7,0
	c-0.3,0.2-0.5,0.4-0.7,0.8c-0.2,0.3-0.3,0.7-0.3,1c0,0.3,0.1,0.5,0.3,0.6C129.6,120,129.8,120,130.1,119.8 M135.1,110.7
	c0.3-0.2,0.5-0.4,0.7-0.8c0.2-0.3,0.3-0.7,0.3-1c0-0.3-0.1-0.5-0.3-0.7c-0.2-0.1-0.4-0.1-0.7,0.1c-0.3,0.2-0.5,0.4-0.7,0.8
	c-0.2,0.3-0.3,0.7-0.3,1c0,0.3,0.1,0.5,0.3,0.7C134.6,110.8,134.8,110.8,135.1,110.7z"/>
<path class="st3" d="M11,26.2V27l21.6,12.4l8.8,5.1l96.7,55.6l19.1,11.1l1.5-0.7l-1.5,0.7l61.3,35.3l3.9,2.2l31.3-18v-0.9L42.7,8
	L11,26.2z"/>
<path id="Layer0_6_MEMBER_1_MEMBER_0_1_STROKES" class="st4" d="M130.6,119.2c0.2-0.4,0.3-0.7,0.3-1c0-0.3-0.1-0.6-0.3-0.7
	c-0.2-0.1-0.4-0.1-0.7,0.1c-0.3,0.2-0.5,0.4-0.7,0.7c-0.2,0.3-0.3,0.7-0.3,1s0.1,0.5,0.3,0.6c0.2,0.1,0.4,0.1,0.7,0
	C130.1,119.8,130.4,119.5,130.6,119.2z"/>
<path id="Layer0_6_MEMBER_1_MEMBER_1_1_STROKES" class="st4" d="M135.6,110c0.2-0.3,0.3-0.6,0.3-1c0-0.3-0.1-0.6-0.3-0.7
	c-0.2-0.1-0.4-0.1-0.7,0.1c-0.3,0.2-0.5,0.4-0.7,0.7c-0.2,0.3-0.3,0.7-0.3,1c0,0.3,0.1,0.5,0.3,0.6c0.2,0.1,0.4,0.1,0.7,0
	C135.1,110.6,135.4,110.4,135.6,110z"/>
<path id="Layer0_6_MEMBER_1_MEMBER_2_1_STROKES" class="st4" d="M125.5,119.8l0.6,0"/>
<path id="Layer0_6_MEMBER_1_MEMBER_3_1_STROKES" class="st4" d="M253.5,129.9v1.7"/>
<path id="Layer0_6_MEMBER_1_MEMBER_4_1_STROKES" class="st4" d="M138.9,102.4l-1.1-0.6"/>
<path id="Layer0_6_MEMBER_1_MEMBER_5_1_STROKES" class="st4" d="M132,106.6l-0.3-0.4l-0.4,0l-0.5,0.3l-0.4,0.6l-0.2,0.7v0.6l0.2,0.4
	h0.5"/>
<path id="Layer0_6_MEMBER_1_MEMBER_6_1_STROKES" class="st4" d="M127.2,115.2l-0.2-0.2h-0.5l-0.6,0.4l-0.5,0.6l-0.2,0.7l0,0.6
	l0.3,0.4h0.5"/>
<path id="Layer0_6_MEMBER_1_MEMBER_7_1_STROKES" class="st4" d="M138.9,103.4l0.1,0l0.1-0.1l0.1-0.1l0.1-0.1V103
	c0-0.2-0.1-0.4-0.4-0.6"/>
<path id="Layer0_6_MEMBER_1_MEMBER_8_1_STROKES" class="st4" d="M138,101.9c-0.4-0.2-0.7-0.3-1-0.1"/>
<path id="Layer0_6_MEMBER_1_MEMBER_9_1_STROKES" class="st4" d="M130.4,103.9l7.3-3.4"/>
<path id="Layer0_6_MEMBER_1_MEMBER_10_1_STROKES" class="st4" d="M131.3,104.5l5.8-2.7"/>
<path id="Layer0_6_MEMBER_1_MEMBER_11_1_STROKES" class="st4" d="M133.8,105.8l5.1-2.4"/>
<path id="Layer0_6_MEMBER_1_MEMBER_12_1_STROKES" class="st4" d="M134.9,106.4l7.1-3.3"/>
<path id="Layer0_6_MEMBER_1_MEMBER_13_1_STROKES" class="st4" d="M147.9,115.7l8.2-4.1"/>
<path id="Layer0_6_MEMBER_1_MEMBER_14_1_STROKES" class="st4" d="M124.6,119.6l-1.1-0.6"/>
<path id="Layer0_6_MEMBER_1_MEMBER_15_1_STROKES" class="st4" d="M128,121.6l-1-0.6"/>
<path id="Layer0_6_MEMBER_1_MEMBER_16_1_STROKES" class="st4" d="M130.4,103.9c-0.8,0.3-1.5,1-2.2,2c-0.6,1-0.9,1.9-0.9,2.8"/>
<path id="Layer0_6_MEMBER_1_MEMBER_17_1_STROKES" class="st4" d="M125.3,112.2l0.4-0.3l0.8-1l0.6-1.2l0.3-1.1"/>
<path id="Layer0_6_MEMBER_1_MEMBER_18_1_STROKES" class="st4" d="M125.2,112.2l-1,1l-0.8,1.3l-0.5,1.4l-0.1,1.3l0.2,1.1l0.6,0.6"/>
<path id="Layer0_6_MEMBER_1_MEMBER_19_1_STROKES" class="st4" d="M131.3,104.5c-0.8,0.3-1.5,1-2.1,2c-0.6,1-0.9,1.9-0.9,2.8"/>
<path id="Layer0_6_MEMBER_1_MEMBER_20_1_STROKES" class="st4" d="M126.2,112.8l0.4-0.3l0.8-1l0.6-1.2l0.3-1"/>
<path id="Layer0_6_MEMBER_1_MEMBER_21_1_STROKES" class="st4" d="M126.2,112.8l-1.1,1l-0.8,1.3l-0.5,1.4l-0.1,1.3l0.3,1.1l0.6,0.7
	l0.9,0.1"/>
<path id="Layer0_6_MEMBER_1_MEMBER_22_1_STROKES" class="st4" d="M133.8,105.8c-0.8,0.4-1.6,1-2.2,2c-0.6,1-0.9,1.9-0.9,2.8"/>
<path id="Layer0_6_MEMBER_1_MEMBER_23_1_STROKES" class="st4" d="M128.6,114.1l0.4-0.3l0.8-1l0.6-1.2l0.2-0.9"/>
<path id="Layer0_6_MEMBER_1_MEMBER_24_1_STROKES" class="st4" d="M128.6,114.1l-1.1,1l-0.8,1.3l-0.5,1.4l-0.1,1.3l0.3,1.1l0.6,0.7"
	/>
<path id="Layer0_6_MEMBER_1_MEMBER_25_1_STROKES" class="st4" d="M135,106.4c-0.8,0.3-1.6,1-2.2,2c-0.7,1-1,2-1,2.9"/>
<path id="Layer0_6_MEMBER_1_MEMBER_26_1_STROKES" class="st4" d="M129.7,114.7l0.4-0.3l0.8-1l0.6-1.2l0.2-1"/>
<path id="Layer0_6_MEMBER_1_MEMBER_27_1_STROKES" class="st4" d="M129.7,114.7l-1.1,1.1l-0.8,1.3l-0.5,1.4l-0.1,1.4l0.3,1.1l0.6,0.7
	l1,0.2l1.1-0.4"/>
<path id="Layer0_6_MEMBER_1_MEMBER_28_1_STROKES" class="st4" d="M147.9,115.7l-0.6-1.1l-0.1-0.2l0-0.1l-0.1-0.1l-0.1-0.1l-0.2-0.1
	l-0.1-0.1h-0.4l-1.2,0.6c-6.7,3.1-11.6,5.5-15,7"/>
<path id="Layer0_6_MEMBER_1_MEMBER_29_1_STROKES" class="st4" d="M10.8,26.3v0.8"/>
<path id="Layer0_6_MEMBER_1_MEMBER_30_1_STROKES" class="st4" d="M32.3,39.6l-5.6,2.9"/>
<path id="Layer0_6_MEMBER_1_MEMBER_31_1_STROKES" class="st4" d="M10.8,26.3L42.5,8.1"/>
<path id="Layer0_6_MEMBER_1_MEMBER_32_1_STROKES" class="st4" d="M27.3,51.1l-2.5-1.5"/>
<path id="Layer0_6_MEMBER_1_MEMBER_33_1_STROKES" class="st4" d="M26.8,42.5l-0.5,0.3l-1,1l-0.8,1.3l-0.5,1.4l-0.1,1.3l0.3,1.1
	l0.6,0.6"/>
<path id="Layer0_6_MEMBER_1_MEMBER_34_1_STROKES" class="st4" d="M29.6,43.8l-0.8,0.5l-1,1L27,46.6L26.5,48l-0.1,1.3l0.3,1.1
	l0.7,0.6l0.9,0.2l1-0.4"/>
<path id="Layer0_6_MEMBER_1_MEMBER_35_1_STROKES" class="st4" d="M30.8,49.1c0.9-1.2,1.1-2.1,0.5-3c-0.5-0.8-1.4-0.6-2.4,0.6
	c-1,1.2-1.2,2.2-0.7,3.2C28.8,50.8,29.6,50.5,30.8,49.1z"/>
<path id="Layer0_6_MEMBER_1_MEMBER_36_1_STROKES" class="st4" d="M31.6,46.9c0-1.3-0.3-2-1-2.1c-0.6-0.1-1.2,0.2-2,1
	s-1.2,1.5-1.4,2.4c-0.2,1,0,1.8,0.7,2.3l0.8,0l0.3-0.1"/>
<path id="Layer0_6_MEMBER_1_MEMBER_37_1_STROKES" class="st4" d="M35,41.1l-5.8,3"/>
<path id="Layer0_6_MEMBER_1_MEMBER_38_1_STROKES" class="st4" d="M41.3,44.6l-12.1,6.3"/>
<path id="Layer0_6_MEMBER_1_MEMBER_39_1_STROKES" class="st4" d="M213.8,160.1l-2.6-1.3"/>
<path id="Layer0_6_MEMBER_1_MEMBER_40_1_STROKES" class="st4" d="M212.7,151.7c0.3-0.2,1.2-0.8,2.7-1.8c1.2-0.8,2.1-1.4,2.7-1.9
	c0.4-0.2,0.5-0.6,0.2-1.2"/>
<path id="Layer0_6_MEMBER_1_MEMBER_41_1_STROKES" class="st4" d="M212.8,151.6l-0.5,0.3l-1,1.1l-0.8,1.3l-0.4,1.4l-0.1,1.3l0.4,1.1
	l0.7,0.6"/>
<path id="Layer0_6_MEMBER_1_MEMBER_42_1_STROKES" class="st4" d="M215.7,152.7l-0.8,0.5l-1,1.1l-0.7,1.4l-0.4,1.4l0,1.3l0.4,1
	l0.7,0.6l0.9,0.1l1-0.4"/>
<path id="Layer0_6_MEMBER_1_MEMBER_43_1_STROKES" class="st4" d="M217.4,157.6c0.3-0.6,0.4-1.2,0.4-1.8c0-0.6-0.2-0.9-0.6-1.1
	c-0.4-0.2-0.8-0.1-1.3,0.2c-0.5,0.3-0.9,0.8-1.2,1.4c-0.3,0.6-0.4,1.2-0.4,1.8c0,0.6,0.2,1,0.6,1.2c0.4,0.2,0.8,0.1,1.2-0.2
	C216.7,158.7,217.1,158.2,217.4,157.6z"/>
<path id="Layer0_6_MEMBER_1_MEMBER_44_1_STROKES" class="st4" d="M217.3,157.4c0.4-0.8,0.6-1.5,0.5-2.2c0-0.7-0.3-1.2-0.7-1.4
	c-0.4-0.2-1-0.2-1.6,0.2s-1.1,1-1.5,1.8c-0.4,0.8-0.6,1.5-0.5,2.2c0,0.7,0.3,1.2,0.7,1.4c0.4,0.2,1,0.2,1.6-0.2
	C216.5,158.7,217,158.1,217.3,157.4z"/>
<path id="Layer0_6_MEMBER_1_MEMBER_45_1_STROKES" class="st4" d="M222.2,148.9L10.8,27.1"/>
<path id="Layer0_6_MEMBER_1_MEMBER_46_1_STROKES" class="st4" d="M222.1,148.9l-6.8,4.1"/>
<path id="Layer0_6_MEMBER_1_MEMBER_47_1_STROKES" class="st4" d="M235.7,147.9l-20,11.8"/>
<path id="Layer0_6_MEMBER_1_MEMBER_48_1_STROKES" class="st4" d="M253.6,131.3l-17.8,16.6"/>
<path id="Layer0_6_MEMBER_1_MEMBER_49_1_STROKES" class="st4" d="M222,149l31.4-18.1"/>
<path id="Layer0_6_MEMBER_1_MEMBER_50_1_STROKES" class="st4" d="M253.5,130L42.5,8.2"/>
<path class="st3" d="M38.1,115.2v-5.1l-3.4-1.6l-12.4,24.6l12.4,10.6l3.4,1.6v-8.8l19.4-10.8v-18.1l-3.1-1.4h-0.8L38.1,115.2
	 M35.1,126.4v2l3-1.8v1.6l-3,1.8v4l-1.4,0.8v-9.2l5-2.8v1.6L35.1,126.4 M42.6,120.5l1.6-0.9l0.9,6l1.3-7.3l1.6-0.8L45.9,128
	l-1.4,0.8l-1.2-6.5l-1.1,7.8l-1.4,0.8l-1.9-8.2l1.4-0.8l1.3,5.9L42.6,120.5 M52.4,115h0.9l0.7,0.4l0.6,1.3v0.8l0.2,0.9l-0.2,1v0.4
	l-0.1,0.5v0.5l-0.2,0.9L54,122l-0.2,0.5l-0.2,0.4l-0.3,0.3l-0.1,0.2l-1,1.1l-3.5,2v-9.4l2.7-1.6L52.4,115 M53.1,117.5l-0.2-0.3
	l-0.3-0.4H52l-0.6,0.2l-1.2,0.8v6l1.9-1.1l0.3-0.5l0.3-0.4v-0.4l0.2-0.3l0.2-0.1l0.2-0.7V118L53.1,117.5z"/>
<path id="Layer0_6_MEMBER_2_MEMBER_1_1_STROKES" class="st5" d="M37.9,136.6l19.4-10.8v-18"/>
<path id="Layer0_6_MEMBER_2_MEMBER_2_1_STROKES" class="st5" d="M37.9,109.9l-12.3,24.6l12.3,10.6 M57.3,107.6l-19.4,10.9"/>
<path id="Layer0_6_MEMBER_2_MEMBER_3_1_STROKES" class="st5" d="M57.3,107.6l-3.5-1.6 M37.9,118.5v-8.6 M37.9,145.2v-8.7"/>
<path id="Layer0_6_MEMBER_2_MEMBER_4_1_STROKES" class="st5" d="M25.5,134.5l-3.5-1.6"/>
<path id="Layer0_6_MEMBER_2_MEMBER_5_1_STROKES" class="st5" d="M53.8,106.1l-15.9,9.1 M37.9,110.1l-3.5-1.6L22,133.1l12.4,10.6
	l3.5,1.6"/>
<path class="st1" d="M218.4,18.9l-11.5-5.9l-1.7,0.6l11.6,6l1.7-0.6 M324.5,82.2l2-0.9l-12.2-7.9l-1.9,0.8L324.5,82.2z"/>
<path id="Layer0_8_MEMBER_0_1_STROKES" class="st6" d="M314.2,73.5l-10.3-6.6l-1.9,0.9l10.2,6.6L314.2,73.5l12.4,8l1.3-0.5l-3.1-2
	l-0.9-0.6l-16.4-10.5l-1-0.6l-9.5-6.1l-1.5,0.3l8.4,5.5 M326.6,81.4l13.8,8.9l-2.2,0.4l3,2c0.3,0.2,0.5,0.4,0.5,0.6l3.3-1.4
	l-17.1-11 M341.7,93.3l-3.7,1.5c-0.6,0.1-1.1,0-1.6-0.3l-54.2-25.2c-0.4-0.1-0.6-0.3-0.7-0.7c-0.1-0.4,0-0.7,0.2-1l1.4-1.4l-3.6-1.7
	c-0.4,0.2-1.4,0.9-3.1,2c-0.6,0.4-1.3,0.8-2,1.2c-2.1,1.3-3.7,2.5-4.9,3.5c-0.8,0.7-1.7,1.5-2.8,2.5l-0.1,0.2
	c0.8-0.5,1.6-0.1,2.4,1.3c0.8,1.4,0.8,2.3-0.1,2.7c0.3-0.1,0.5-0.1,0.7,0c0.2,0,0.5,0.1,0.8,0.3 M324.8,79c0.3-0.3,0.3-0.5,0-0.6
	c-0.3-0.1-0.6-0.1-0.9,0 M326.6,81.4l-2,0.8l-12.4-7.9 M233.7,25.2c0.1-0.1,0.1-0.2,0.1-0.3c0-0.1-0.1-0.2-0.2-0.2
	c-0.3-0.2-0.7-0.1-1.1,0.2l12.9,6.6c3.6-1.7,6.4-3,8.6-3.9c0.5,0,0.9,0.1,1.2,0.2c0.1,0,0.2,0.1,0.3,0.2l0.3-0.1l1.2-0.2
	c0.7-0.2,1.1-0.3,1.3-0.3c1-0.1,1.8-0.1,2.4,0c0.2,0,0.3,0.1,0.3,0.1c0.4,0.1,0.7,0.3,0.9,0.7c0.2,0.3,0.2,0.7,0.1,1.1
	c-0.1,0.6-0.4,1.3-1.2,2.1c-0.3,0.4-0.9,1-1.8,1.7l-3.3,2.4 M245.5,31.5c-0.5,0.2-0.9,0.4-1.4,0.6c-0.9,0.4-1.9,0.9-2.8,1.3l4.5,2.6
	l3.1-1.2l0.7-0.2l2.9-0.6l14.8,8.5l6.7-2.1l2.8-1.5l0.1-0.1l1.3-0.4l1.5,0l0.9,0.3l0.9-0.5l0.3-0.1h0.1l0,0h0.1l0.2,0.2l0.1,0.2l0,0
	v0.1c0,0.1,0.1,0.3,0.2,0.8v0c2.4,1.3,4.5,3.7,6.1,6.9c1.7,3.4,2,6.4,1.2,9.1l3.6,2.1c2.6-1.2,4.9-2.2,7.1-3.1c0.5,0,1,0.1,1.3,0.2
	c0.1,0,0.3,0.1,0.4,0.2c0.4-0.1,1.2-0.2,2.6-0.4c1-0.2,1.9-0.2,2.8,0c0.1,0,0.2,0.1,0.2,0.1c0.4,0.1,0.7,0.3,0.9,0.6
	c0.2,0.3,0.2,0.7,0.1,1.1c-0.1,1-1.1,2.3-3,3.8l-4.4,3.2 M261.1,27.6c0.1,0.1,0.1,0.1,0.1,0.2c0,0.2,0,0.3-0.2,0.5
	c-0.2,0.2-0.5,0.5-1.1,0.7c-0.6,0.2-1,0.3-1.2,0.4c-0.7,0.2-1.2,0.2-1.4,0c-0.2-0.4-0.6-0.7-1-1c-0.3-0.2-0.6-0.4-0.8-0.5
	 M214.3,15.1c-0.3,0-0.5,0.1-0.6,0.2l1,0.5c0.2-0.1,0.3-0.2,0.3-0.3c0-0.1,0-0.2-0.2-0.3C214.6,15.1,214.5,15.1,214.3,15.1z
	 M189.5,6.1l-0.3,0.2l2.4,1.3l2.3-1.1l12.8,6.6l1.6-0.5l-15-7.7L189.5,6.1z M216.8,19.6l-11.9-6.1l1.9-0.6l11.8,6.1l12.7,6.5
	l12.8,6.6 M208.3,12.5l5.3,2.8 M223.9,51.2l-0.5-0.2l-0.5-0.1l-0.4,0.1l-0.1,0c-1.5,0.6-2.8,1-3.8,1.2c-0.4,0.1-0.8,0-1.2-0.1
	c-0.1-0.1-0.2-0.2-0.3-0.3c-0.1-0.6,0.2-1.4,1.1-2.5c0.3-0.3,0.9-1.1,2-2.2c0.2-0.4,0.6-0.8,1.3-1.3c0.4-0.4,0.9-0.8,1.6-1.4
	c1.2-1.1,2.9-2.3,5.1-3.7c0.8-0.4,1.5-0.9,2-1.2L187.2,8.9c-0.5-0.3-0.8-0.7-0.7-1l1.4-0.9l1.4-0.7 M218.5,19.1l-1.7,0.6l12.9,6.6
	l1.6-0.7 M214.6,15.7l17.9,9.2 M219.9,52.4c0,0.2,0.1,0.5,0.3,0.7c0.2,0.3,0.3,0.4,0.5,0.5l0,0l2.1,1.2h0.7l1.9-0.9
	c4.1-2,8.1-4.2,12.2-6.5l2.6-1.4l-4.9-3.3c-0.3-0.6-0.2-1.1,0.1-1.6l0.5-0.5L237,40l-3.6-2.6c-0.4,0.2-1.5,0.9-3.3,2.1 M220.2,47
	c0.3-0.3,0.7-0.3,1.3,0.1c0.5,0.3,0.8,0.7,1,1.1c0.3,0.4,0.5,0.9,0.5,1.5c0.1,0.7-0.1,1.1-0.5,1.3 M222.7,54
	c0.5,0.2,0.7,0.1,0.7-0.5c0-0.5-0.2-0.9-0.7-1.1l-0.9-0.5 M262.1,59.9l-5.1,3c-0.5,0.4-1,0.5-1.6,0.5c-0.8,0-1.4-0.3-1.9-0.8
	c-0.5-0.5-0.8-1.2-0.8-1.9l-0.1-0.7l-0.3-0.7l-0.8-1.2c-1.1-1-2.3-1.4-3.8-1.4c-1,0-1.9,0.2-2.7,0.6l-10.4,6
	c1.5-0.8,3.3-0.6,5.4,0.6c2.2,1.2,4,3.2,5.5,5.8s2.3,5.2,2.3,7.7c0,2.3-0.7,3.9-2,4.8l28.7-16.6l-14.4-7l-0.3-0.8L260,57l0.6-0.8
	l0.9-0.7l-11.2-6.4c-1.1,0.6-1.9,1.3-2.2,2.2c-0.2,0.4-0.3,0.9-0.3,1.4c0,1.7-0.6,3.1-1.9,4.1l-0.8,0.5 M245.8,82.2
	c-0.1,0.1-0.2,0.1-0.3,0.2c-0.1,0-0.1,0.1-0.2,0.1c-1.5,0.8-3.3,0.6-5.4-0.6c-2.2-1.2-4-3.2-5.5-5.8c-1.5-2.6-2.3-5.2-2.3-7.7
	c0-2.5,0.8-4.2,2.3-5.1c0,0,0.1,0,0.1,0 M245.8,82.2l-0.4,0.3 M307.7,54.5c0.1,0.1,0.1,0.2,0.1,0.3l-0.1,0.3l-0.1,0.1l-0.1,0.1
	c-0.3,0.3-1.2,0.7-2.5,1.1c-0.6,0.2-1,0.1-1.2-0.2c-0.4-0.5-0.8-0.9-0.9-0.9c-0.3-0.2-0.5-0.4-0.7-0.5 M267.4,42.6l-2.6,0.9
	l-4.4,1.4l9.8,5.6l4.7-1.4l2.5-0.8l1.7,1c0.6-0.3,1-0.8,1.4-1.3c0.3-0.5,0.5-1.1,0.5-1.7c0-1.2-0.5-2.2-1.5-2.8l-2.5-0.8l-2.3,1.3
	l-6.9,2.3l7.6-4.4l-1.2-1.4 M279,49.4l6.5,3.7c0.3-0.3,0.4-0.6,0.3-0.9l-0.3-1.3l0,0v0h0l0,0h0v0h-0.2l0,0H285l-0.2,0.1l-0.2,0
	l-0.1,0.1l-0.1,0l-0.2,0.2v0l0,0.1l-0.1,0.1v0l-0.1,0.2V52 M284.5,51L284.5,51L284.5,51 M287,50.3l0.2,0.7l0.1,0.4v0.2h0v0l0,0v0.1
	h0v0.1h0.3l0,0l0.7-0.4v0c0.3-0.2,0.3-0.4,0.3-0.7l-0.1-0.3l-0.3-0.9v-0.1h0v0h0v0H288l0,0l-0.6,0.3h0l0,0.1h0l-0.1,0.1v0
	c-0.1,0.2-0.2,0.3-0.2,0.3h0V50.3z M289.7,55.5l-4.2-2.4 M293.3,57.6c-0.7,0.3-1.4,0.6-2.1,1c-1.2,0.6-2.5,1.2-3.8,1.8l4.2,2.4
	l1.5-0.7l2.3-0.7 M266.5,79.5c0.2,0.5,0.5,0.9,0.8,1l0,0l2.1,1.2c0.3,0.1,0.7,0,1.4-0.2c0.3-0.2,0.7-0.4,1.3-0.6
	c4.1-2,8.2-4.2,12.2-6.5l3.5-2.1 M306.5,67.2c0.3-0.2,0.6-0.2,1-0.1s0.4,0.3,0,0.7 M259.5,65.8L259.5,65.8L259.5,65.8
	c0,0.2,0,0.3,0,0.3l0.2,0.7l0,0.3l0,0v0.1l0,0v0.1h0v0h0v0h0l0,0h0.2v0h0l0.7-0.3c0.3-0.2,0.4-0.5,0.3-0.9l-0.3-1.3h0v0l0,0h0v0h0v0
	h-0.2v0h0l-0.2,0.1l-0.3,0.2c-0.1,0.1-0.2,0.1-0.2,0.2C259.6,65.6,259.5,65.7,259.5,65.8L259.5,65.8L259.5,65.8z M263.3,63.3
	L263.3,63.3L263.3,63.3l0.2,0v0h0.1v0h0v0.1h0v0l0.3,0.9l0.1,0.3c0,0.3-0.1,0.6-0.3,0.8l-0.5,0.3l-0.2,0.1h0l0,0h-0.3v0h0v0h0v0l0,0
	v0l0,0v-0.1l-0.3-1.1v-0.2l0,0v-0.1l0,0v0c0.1-0.2,0.3-0.3,0.4-0.4L263.3,63.3L263.3,63.3z M260.4,65L260.4,65 M260.8,65.1
	L260.8,65.1 M263,65.9L263,65.9 M254.6,68.3L254.6,68.3l0.3,0l0,0v0h0v0h0v0l0.3,0.9l0,0.3c0.1,0.3,0,0.6-0.2,0.7l-0.5,0.4l-0.2,0.1
	h0l0,0h-0.3v0h0v0h0v0l0,0v-0.1h0v-0.2l-0.3-1.1v-0.3l0,0V69l0,0c0.1-0.1,0.1-0.2,0.2-0.2L254.6,68.3L254.6,68.3L254.6,68.3
	 M252.3,70.1l0.3,1.3c0.1,0.3,0,0.5-0.3,0.8l-0.5,0.3l-0.2,0.1l0,0h-0.2l0,0h0v0l0,0v0l0,0v-0.1l0,0v0l-0.3-1v-0.4l0,0v-0.1l0,0v0
	l0,0l0-0.1v0l0,0c0.1-0.1,0.1-0.1,0.2-0.1l0.5-0.3h0.1v0h0.2l0,0h0L252.3,70.1L252.3,70.1z M254.4,70.9L254.4,70.9 M249.9,72.9
	c0.1,0.3,0.1,0.6-0.2,0.8l-0.5,0.3l-0.2,0.1h0l0,0h-0.2v0h0v0h0v0h0v-0.1h0v-0.2l-0.3-1v-0.3h0v-0.2l0,0v-0.1l0.1-0.1v0l0-0.1l0,0
	l0.2-0.1l0.6-0.3h0l0,0h0.2l0,0h0v0h0v0h0v0l0.3,0.9L249.9,72.9z M251.6,72.5L251.6,72.5L251.6,72.5 M248.9,74.1L248.9,74.1
	 M258,66.8L258,66.8l0.3,1.3c0.1,0.4,0,0.6-0.3,0.8l-0.3,0.2l-0.2,0.1l-0.3,0.1h-0.1l0,0h0v0h0v-0.1l0,0V69h0v-0.2l-0.3-1l0-0.3
	v-0.1l0-0.1v0c0.1-0.1,0.2-0.2,0.3-0.3c0,0,0,0,0,0l0.3-0.2l0.2-0.1v0h0.3v0h0L258,66.8L258,66.8z M268,63.1l-0.3,0.2l-0.5,0.2h-0.3
	v0h0l0,0v0h0v-0.2h0v-0.1l-0.3-1.1 M269,77.9C269,77.9,269,77.9,269,77.9c-1.5,0.6-2.8,1-3.9,1.2c-0.1,0.1-0.3,0.1-0.6,0
	c-0.3,0-0.5-0.1-0.6-0.1c-0.2-0.1-0.3-0.2-0.3-0.3c-0.1-0.6,0.3-1.5,1.1-2.6c0.3-0.4,0.9-1.1,1.8-2.1l0.1-0.1 M276.4,66.5l-1.9-0.9
	 M268.4,78.8l0.9,0.5c0.2,0.1,0.3,0.3,0.5,0.5c0.1,0.3,0.2,0.5,0.2,0.7c-0.1,0.4-0.3,0.5-0.7,0.3 M282.5,39.5l-5.6,3.2 M275.2,41.9
	l5.4-3.1 M291.2,58.6l-16.5-9.4 M264.7,43.5l-15.1-8.7 M248,51.3l-7.8-5.2"/>
<g>
	<path class="st3" d="M128.5,31.1l-2.8-6.3L119.4,41l16.2,6.3l-2.8-6.3c25.6-15.6,48.6-23.5,71.9-23.6l2.9-0.3l-4.5-1
		C178.1,14.3,153.2,19.2,128.5,31.1z"/>
	<path id="Layer1_10_1_STROKES_4_" class="st7" d="M210.7,17.4l-7.5-1.3c-25.1-1.8-50.1,3.3-74.6,14.9l-2.8-6.3l-6.3,16.2l16.2,6.3
		l-2.8-6.3c25.6-15.6,49.9-23.4,73.2-23.5C210.7,17.4,210.7,17.4,210.7,17.4z"/>
</g>
<g>
	<path class="st3" d="M233.9,92.2l-2.8-6.3l-6.3,16.2l16.2,6.3l-2.8-6.3c25.6-15.6,48.6-23.5,71.9-23.6l2.9-0.3l-4.5-1
		C283.5,75.4,258.6,80.3,233.9,92.2z"/>
	<path id="Layer1_10_1_STROKES_1_" class="st7" d="M316.1,78.5l-7.5-1.3c-25.1-1.8-50.1,3.3-74.6,14.9l-2.8-6.3l-6.3,16.2l16.2,6.3
		l-2.8-6.3c25.6-15.6,49.9-23.4,73.2-23.5C316.1,78.5,316.1,78.5,316.1,78.5z"/>
</g>
</svg>
