<?xml version="1.0" encoding="utf-8"?>
<!-- Generator: Adobe Illustrator 24.2.1, SVG Export Plug-In . SVG Version: 6.00 Build 0)  -->
<svg version="1.1" id="Ebene_1" xmlns="http://www.w3.org/2000/svg" xmlns:xlink="http://www.w3.org/1999/xlink" x="0px" y="0px"
	 viewBox="0 0 349.1 161" style="enable-background:new 0 0 349.1 161;" xml:space="preserve">
<style type="text/css">
	.st0{fill:none;stroke:#000000;stroke-width:0.55;stroke-linecap:square;stroke-linejoin:round;}
	.st1{fill:#ED1C24;}
	.st2{fill:none;stroke:#ED1C24;stroke-width:0.55;stroke-linecap:square;stroke-linejoin:round;}
	.st3{fill:#B1B1B1;}
	.st4{fill:#0099FF;}
	.st5{fill:none;stroke:#000000;stroke-width:0.5;stroke-miterlimit:5;}
	.st6{fill:none;stroke:#FF9900;stroke-linecap:round;stroke-linejoin:round;}
	.st7{font-family:'ArialMT';}
	.st8{font-size:14px;}
	.st9{fill:none;stroke:#FFFFFF;stroke-miterlimit:5;}
</style>
<path id="Layer1_2_MEMBER_0_1_STROKES" class="st0" d="M298.5,47.6l-20.2,11.7"/>
<path id="Layer1_2_MEMBER_1_1_STROKES" class="st0" d="M298.3,30.1l1.9-1.1"/>
<path id="Layer1_2_MEMBER_2_1_STROKES" class="st0" d="M270.8,46l7.8-4.5"/>
<path id="Layer1_2_MEMBER_3_1_STROKES" class="st0" d="M279.4,40.7l0.1-0.2l0.2-0.2l0.1-0.2l0.1-0.2l0.1-0.4v-0.2l0.1-0.2v-1L280,38
	v-0.2l0.1-0.2v-0.2l0.2-0.3l0.2-0.2l0.1-0.1l0.1-0.1l0.1-0.1l0.2-0.2l0.7-0.4"/>
<path id="Layer1_2_MEMBER_4_1_STROKES" class="st0" d="M298.3,30.1l-9.6,3.1"/>
<path id="Layer1_2_MEMBER_5_1_STROKES" class="st0" d="M304,29.4l-5.4,3.1"/>
<path id="Layer1_2_MEMBER_6_1_STROKES" class="st0" d="M295.5,37l-6.8-3.9"/>
<path id="Layer1_2_MEMBER_7_1_STROKES" class="st0" d="M281.6,36.1l7.8,4.4"/>
<path id="Layer1_2_MEMBER_8_1_STROKES" class="st0" d="M303.4,28.5l-9.6,5.6"/>
<path id="Layer1_2_MEMBER_9_1_STROKES" class="st0" d="M298.6,32.6l-4.8,1.6"/>
<path id="Layer1_2_MEMBER_10_1_STROKES" class="st0" d="M298.3,30.1L299,31"/>
<path id="Layer1_2_MEMBER_11_1_STROKES" class="st0" d="M300.2,31.7l1.7,0.5"/>
<path id="Layer1_2_MEMBER_12_1_STROKES" class="st0" d="M303,34.2c0-0.8-0.4-1.5-1.1-1.9"/>
<path id="Layer1_2_MEMBER_13_1_STROKES" class="st0" d="M301.7,36.3c0.9-0.4,1.3-1.1,1.3-2.1"/>
<path id="Layer1_2_MEMBER_14_1_STROKES" class="st0" d="M289.9,43.6l-3.6,2"/>
<path id="Layer1_2_MEMBER_15_1_STROKES" class="st0" d="M282.5,42.3c-0.8-0.7-1.6-1-2.6-1c-0.5,0-1.2,0.2-1.9,0.5"/>
<path id="Layer1_2_MEMBER_16_1_STROKES" class="st0" d="M282.5,42.3l0.6,0.9l0.3,1"/>
<path id="Layer1_2_MEMBER_17_1_STROKES" class="st0" d="M283.4,44.1c0,0.5,0.2,1,0.5,1.3c0.4,0.4,0.8,0.5,1.3,0.5
	c0.4,0,0.8-0.1,1.1-0.4"/>
<path id="Layer1_2_MEMBER_18_1_STROKES" class="st0" d="M283.2,25.7l10.3,5.9"/>
<path id="Layer1_2_MEMBER_19_1_STROKES" class="st0" d="M278.3,23.8L242.1,5.3"/>
<path id="Layer1_2_MEMBER_20_1_STROKES" class="st0" d="M299.9,48.2l-11.4-5.4"/>
<path id="Layer1_2_MEMBER_21_1_STROKES" class="st0" d="M311.7,42l-11.2-6.4"/>
<path id="Layer1_2_MEMBER_22_1_STROKES" class="st0" d="M314.2,44.4l33.4,21.4"/>
<path id="Layer1_2_MEMBER_23_1_STROKES" class="st0" d="M342.7,67.9l4.9-2"/>
<path id="Layer1_2_MEMBER_24_1_STROKES" class="st0" d="M341.6,67.7l0.6,0.2h0.5"/>
<path id="Layer1_2_MEMBER_25_1_STROKES" class="st0" d="M292.8,53.5l-0.2,0.2l-0.3,0.3l-0.2,0.2l-0.2,0.2l-0.1,0.2l-0.1,0.1
	l-0.2,0.3l-0.2,0.2l-0.1,0.1l-0.1,0.2l-0.1,0.2l-0.1,0.2L291,56v0.2l-0.1,0.2v0.2l0.1,0.1v0.1l0.1,0.1h0.1v0.1l0.1,0.1h0.2l0.1,0.1
	h0.5l0.2-0.1h0.2l0.5-0.2h0.2l0.2-0.1l0.2-0.1l0.3-0.1l0.9-0.3"/>
<path id="Layer1_2_MEMBER_26_1_STROKES" class="st0" d="M302,46.8l-6,3.8l-0.3,0.3l-0.3,0.2l-2.2,1.9"/>
<path id="Layer1_2_MEMBER_27_1_STROKES" class="st0" d="M295.6,58.7l0.1-0.1l0.2-0.1l0.3-0.2l0.3-0.1l0.2-0.2"/>
<path id="Layer1_2_MEMBER_28_1_STROKES" class="st0" d="M303.5,49.3L303.5,49.3l-0.1,0.4l0.1,0.1v0.1l0.1,0.1v0.1l0.2,0.2h0.1"/>
<path id="Layer1_2_MEMBER_29_1_STROKES" class="st0" d="M296.8,58.2l8.4-4.5"/>
<path id="Layer1_2_MEMBER_30_1_STROKES" class="st0" d="M320.2,43.7l0.2-0.2l0.2-0.2l0.6-0.6l0.2-0.2l0.2-0.2l0.5-0.6v-0.1l0.1-0.2
	v-0.1l0.1-0.1V41l0.1-0.1v-0.4l-0.1-0.1v-0.1l-0.1-0.1l-0.1-0.1"/>
<path id="Layer1_2_MEMBER_31_1_STROKES" class="st0" d="M295,55.6l0.1-0.3v-0.3l-0.1-0.3l-0.5-0.9l-0.5-0.4l-0.3-0.2"/>
<path id="Layer1_2_MEMBER_32_1_STROKES" class="st0" d="M294.3,56.8l0.6,0.4"/>
<path id="Layer1_2_MEMBER_33_1_STROKES" class="st0" d="M295.2,58.2l0.1-0.1l0.1-0.1v-0.4"/>
<path id="Layer1_2_MEMBER_34_1_STROKES" class="st0" d="M294.9,58.8l-1.5-0.9"/>
<path id="Layer1_2_MEMBER_35_1_STROKES" class="st0" d="M318.9,39.9h-0.1l-0.2,0.1l-0.3,0.1h-0.4l-0.1,0.1h-0.1l0.2,0.1l0.1,0.1
	l0.2,0.1l0.2,0.2h0.1l0.2,0.2l0.1,0.1l0.1,0.1l0.1,0.1l0.1,0.1v0.1l0.1,0.1h0.1l0.1,0.1h0.1l0.1,0.1h0.1l0.1-0.1h0.2l0.6-0.2
	l0.2-0.1l0.4-0.1l0.2-0.1l0.2-0.1l0.1-0.1l0.2-0.1l0.1-0.1l0.2-0.2v-0.1l0.1-0.1v-0.2l-0.2-0.2h-0.3l-0.1-0.1h-1.2l-0.2,0.1h-0.3
	L318.9,39.9z M316.8,39.8L316.8,39.8l0.4,0.1l0.1,0.1h0.2l0.1,0.1h0.1l0.1,0.1l0.1,0.1h0.1"/>
<path id="Layer1_2_MEMBER_36_1_STROKES" class="st0" d="M305.3,53.6l0.8-0.4l1.7-1.1"/>
<path id="Layer1_2_MEMBER_37_1_STROKES" class="st0" d="M341.6,67.7l-37.7-17.6"/>
<path id="Layer1_2_MEMBER_38_1_STROKES" class="st0" d="M314.2,44.4l-2.7,0.6l-1,0.5"/>
<path id="Layer1_2_MEMBER_39_1_STROKES" class="st0" d="M320.2,43.7l-3.1,2.2"/>
<path id="Layer1_2_MEMBER_40_1_STROKES" class="st0" d="M283.2,25.7l-3.7,0.9l-1,0.4"/>
<path id="Layer1_2_MEMBER_41_1_STROKES" class="st0" d="M271.3,31.7l8.7,5.9"/>
<path id="Layer1_2_MEMBER_42_1_STROKES" class="st0" d="M271.2,31L271.2,31l-0.1,0.3l0.1,0.1v0.2l0.1,0.1"/>
<path id="Layer1_2_MEMBER_43_1_STROKES" class="st0" d="M267.6,29.4L237.8,8.1"/>
<path id="Layer1_2_MEMBER_44_1_STROKES" class="st0" d="M294.8,56.1h0.4l0.1,0.1l0.5,0.2"/>
<path id="Layer1_2_MEMBER_45_1_STROKES" class="st0" d="M260.3,35l-0.2,0.2l-0.2,0.2l-0.3,0.4l-0.3,0.3l-0.2,0.3l-0.1,0.1l-0.1,0.2
	l-0.2,0.3l-0.1,0.2l-0.1,0.1l-0.1,0.2v0.1l-0.1,0.1v0.3l0.1,0.1V38l0.1,0.1h0.1l0.1,0.1h0.1l0.2,0.1h0.3l0.2-0.1h0.2l0.2-0.1h0.2
	l0.4-0.1h0.2l0.2-0.1l0.2-0.1l0.3-0.1l0.8-0.3"/>
<path id="Layer1_2_MEMBER_46_1_STROKES" class="st0" d="M270,27.9l-5.4,3.4l-1.1,0.8l-2.4,2.2"/>
<path id="Layer1_2_MEMBER_47_1_STROKES" class="st0" d="M263.2,40l0.1-0.1l0.2-0.1l0.6-0.2l0.3-0.2"/>
<path id="Layer1_2_MEMBER_48_1_STROKES" class="st0" d="M264.4,39.5l8.2-4.4l0.2-0.2"/>
<path id="Layer1_2_MEMBER_49_1_STROKES" class="st0" d="M287.8,25l0.2-0.2l0.4-0.3l0.2-0.2l0.4-0.4l0.6-0.9l0.2-0.3v-0.2l0.1-0.1
	v-0.1l0.1-0.1v-0.2l-0.1-0.1v-0.1l-0.1-0.1v-0.1l-0.1-0.1l-0.2-0.2"/>
<path id="Layer1_2_MEMBER_50_1_STROKES" class="st0" d="M262.5,37.3l0.2-0.2l0.1-0.5v-0.3l-0.2-0.6l-0.2-0.3l-0.4-0.5l-0.5-0.3
	l-0.3-0.1"/>
<path id="Layer1_2_MEMBER_51_1_STROKES" class="st0" d="M261.9,38l0.6,0.4"/>
<path id="Layer1_2_MEMBER_52_1_STROKES" class="st0" d="M263,39.1v-0.2"/>
<path id="Layer1_2_MEMBER_53_1_STROKES" class="st0" d="M262.6,40.1l-1.5-0.9"/>
<path id="Layer1_2_MEMBER_54_1_STROKES" class="st0" d="M285.8,21.4l-0.4,0.1l0.1,0.1l0.1,0.1l0.3,0.2l0.1,0.1l0.1,0.1l0.2,0.2
	l0.1,0.1l0.1,0.1l0.1,0.1l0.3,0.3h0.4l0.1-0.1h0.2l0.4-0.1l0.2-0.1l0.2-0.1l0.2-0.1l0.2-0.1l0.2-0.1l0.2-0.1l0.1-0.1l0.1-0.1
	l0.1-0.1l0.1-0.1v-0.4l-0.1-0.1H289l-0.1-0.1h-1.3l-0.3,0.1h-0.2l-0.5,0.2h-0.2l-0.2,0.1H286L285.8,21.4z M284.8,21.2L284.8,21.2
	l0.2,0.1l0.1,0.1h0.1l0.1,0.1h0.1l0.1,0.1"/>
<path id="Layer1_2_MEMBER_55_1_STROKES" class="st0" d="M272.9,35l1.8-1"/>
<path id="Layer1_2_MEMBER_56_1_STROKES" class="st0" d="M287.8,25l-2.3,1.7"/>
<path id="Layer1_2_MEMBER_57_1_STROKES" class="st0" d="M262.5,37.4h0.3l0.5,0.2"/>
<path id="Layer1_2_MEMBER_58_1_STROKES" class="st0" d="M344.9,66.4l-2-1.4"/>
<path id="Layer1_2_MEMBER_59_1_STROKES" class="st0" d="M342.9,65l1.5-0.3"/>
<path id="Layer1_2_MEMBER_60_1_STROKES" class="st0" d="M344.4,64.7l-31.2-20"/>
<path id="Layer1_2_MEMBER_61_1_STROKES" class="st0" d="M310.2,42.7L298.6,36"/>
<path id="Layer1_2_MEMBER_62_1_STROKES" class="st0" d="M300.5,35.6l-5,1.5"/>
<path id="Layer1_2_MEMBER_63_1_STROKES" class="st0" d="M304.6,48l-2.5-1.2"/>
<path id="Layer1_2_MEMBER_64_1_STROKES" class="st0" d="M272.4,29.7l-2.5-1.8"/>
<path id="Layer1_2_MEMBER_65_1_STROKES" class="st0" d="M291.8,32.2l-10.5-6"/>
<path id="Layer1_2_MEMBER_66_1_STROKES" class="st0" d="M335.7,58.2l-2.3,0.9"/>
<path id="Layer1_2_MEMBER_67_1_STROKES" class="st0" d="M333.3,59.1l-15.7-10"/>
<path id="Layer1_2_MEMBER_68_1_STROKES" class="st0" d="M317.7,49.1l1.3-0.6"/>
<path id="Layer1_2_MEMBER_69_1_STROKES" class="st0" d="M324.8,53.6l1.4-0.5"/>
<path id="Layer1_2_MEMBER_70_1_STROKES" class="st0" d="M288.5,42.7l-0.2-0.6l0.1-0.6l0.4-0.6l0.6-0.4"/>
<path id="Layer1_2_MEMBER_71_1_STROKES" class="st0" d="M310.5,45.6l-2.9-1.7"/>
<path id="Layer1_2_MEMBER_72_1_STROKES" class="st0" d="M303.6,49l1-1"/>
<path id="Layer1_2_MEMBER_73_1_STROKES" class="st0" d="M271.4,30.6l0.3-0.4l0.4-0.3l0.4-0.2"/>
<path id="Layer1_2_MEMBER_74_1_STROKES" class="st0" d="M275.4,25.2l3.1,1.8"/>
<path id="Layer1_2_MEMBER_75_1_STROKES" class="st0" d="M277.4,24.3L242.5,6.4"/>
<path id="Layer1_2_MEMBER_76_1_STROKES" class="st0" d="M242.5,6.4l-1.6,0.8"/>
<path id="Layer1_2_MEMBER_77_1_STROKES" class="st0" d="M240.9,7.2l-1.7-0.9"/>
<path id="Layer1_2_MEMBER_78_1_STROKES" class="st0" d="M237.4,7.4l1-0.6l2.4-1.1l1.4-0.4"/>
<path id="Layer1_2_MEMBER_79_1_STROKES" class="st0" d="M252.5,10.7l-2.3,0.7"/>
<path id="Layer1_2_MEMBER_80_1_STROKES" class="st0" d="M250.2,11.4l17.2,8.9"/>
<path id="Layer1_2_MEMBER_81_1_STROKES" class="st0" d="M267.4,20.2l1.1-0.5"/>
<path id="Layer1_2_MEMBER_82_1_STROKES" class="st0" d="M258.4,15.6l1.2-0.4"/>
<path id="Layer1_2_MEMBER_83_1_STROKES" class="st0" d="M256.3,12.5L256.3,12.5l0.2-0.1l0.1-0.1h0.2l0.1,0.1h0.2l0.1,0.1h0.1
	l0.1,0.1v0.1h-0.1v0.1"/>
<path id="Layer1_2_MEMBER_84_1_STROKES" class="st0" d="M269.9,19.1l0.1,0.1h0.1l0.1,0.1h0.1l0.1,0.1h0.1v0.2l-0.1,0.1"/>
<path id="Layer1_2_MEMBER_85_1_STROKES" class="st0" d="M321,48.6l0.1-0.1h0.2l0.1,0.1h0.2l0.1,0.1h0.1l0.1,0.1v0.1l-0.1,0.1h-0.1"
	/>
<path id="Layer1_2_MEMBER_86_1_STROKES" class="st0" d="M333.1,56.3h0.3l0.1,0.1h0.1l0.1,0.1h0.1v0.1h0.1v0.1"/>
<path id="Layer1_2_MEMBER_87_1_STROKES" class="st0" d="M302.8,28.8l-0.6-0.2l-1-0.1l-0.9,0.3"/>
<path id="Layer1_2_MEMBER_88_1_STROKES" class="st0" d="M309.2,40.4l0.2-0.6l0.1-1.2l-0.2-1.4l-1-2.9l-0.8-1.4l-2-2.4l-1.1-0.9
	l-0.3-0.2"/>
<path id="Layer1_2_MEMBER_89_1_STROKES" class="st0" d="M270.8,46c1-0.6,2.3-0.4,3.8,0.4c1.5,0.9,2.7,2.2,3.8,4
	c1,1.8,1.6,3.6,1.6,5.3c0,1.8-0.5,2.9-1.6,3.5c-1.1,0.6-2.3,0.5-3.8-0.4c-1.5-0.9-2.8-2.2-3.8-4c-1.1-1.8-1.6-3.6-1.6-5.3
	C269.2,47.7,269.7,46.6,270.8,46z"/>
<path id="Layer1_2_MEMBER_90_1_STROKES" class="st0" d="M304,29.2v-0.3l-0.1-0.1v-0.1l-0.1-0.1v-0.1l-0.1-0.1v-0.1"/>
<path id="Layer1_2_MEMBER_91_1_STROKES" class="st0" d="M290.4,47.8L290.4,47.8L290.4,47.8l-0.1-0.2"/>
<path id="Layer1_2_MEMBER_92_1_STROKES" class="st0" d="M290.2,47.6l-0.1-0.3l-0.2-0.5"/>
<path id="Layer1_2_MEMBER_93_1_STROKES" class="st0" d="M291.3,47l-0.1-0.3l-0.2-0.6"/>
<path id="Layer1_2_MEMBER_94_1_STROKES" class="st0" d="M290.1,46.4L290.1,46.4l-0.1,0.1v0.1H290"/>
<path id="Layer1_2_MEMBER_95_1_STROKES" class="st0" d="M288.6,49h-0.2v-0.1h-0.1v-0.1h-0.1"/>
<path id="Layer1_2_MEMBER_96_1_STROKES" class="st0" d="M288.7,48.9l0.4-0.3"/>
<path id="Layer1_2_MEMBER_97_1_STROKES" class="st0" d="M288.3,48.7l-0.2-0.8"/>
<path id="Layer1_2_MEMBER_98_1_STROKES" class="st0" d="M289.3,48.1l-0.3-0.9"/>
<path id="Layer1_2_MEMBER_99_1_STROKES" class="st0" d="M288.2,47.5L288.2,47.5l-0.1,0.1h-0.1v0.2"/>
<path id="Layer1_2_MEMBER_100_1_STROKES" class="st0" d="M286.8,48.2h0.1v0.1h0.1"/>
<path id="Layer1_2_MEMBER_101_1_STROKES" class="st0" d="M286.7,50l0.1-0.1l0.3-0.2"/>
<path id="Layer1_2_MEMBER_102_1_STROKES" class="st0" d="M286.3,49.8l-0.2-0.8"/>
<path id="Layer1_2_MEMBER_103_1_STROKES" class="st0" d="M287.3,49.2l-0.3-0.9"/>
<path id="Layer1_2_MEMBER_104_1_STROKES" class="st0" d="M284.4,51.3L284.4,51.3L284.4,51.3l-0.1-0.1"/>
<path id="Layer1_2_MEMBER_105_1_STROKES" class="st0" d="M284.8,51.2l0.1-0.1l0.2-0.2"/>
<path id="Layer1_2_MEMBER_106_1_STROKES" class="st0" d="M284.3,51l-0.1-0.3l-0.2-0.5"/>
<path id="Layer1_2_MEMBER_107_1_STROKES" class="st0" d="M285.3,50.4l-0.1-0.3l-0.2-0.6"/>
<path id="Layer1_2_MEMBER_108_1_STROKES" class="st0" d="M282.6,52.4h-0.2"/>
<path id="Layer1_2_MEMBER_109_1_STROKES" class="st0" d="M282.8,52.3l0.2-0.1l0.2-0.2"/>
<path id="Layer1_2_MEMBER_110_1_STROKES" class="st0" d="M282.3,52.1l-0.1-0.3l-0.2-0.5"/>
<path id="Layer1_2_MEMBER_111_1_STROKES" class="st0" d="M283.3,51.6l-0.2-0.9"/>
<path id="Layer1_2_MEMBER_112_1_STROKES" class="st0" d="M282.3,50.9L282.3,50.9L282.3,50.9l-0.1,0.1l-0.1,0.1v0.1l-0.1,0.1"/>
<path id="Layer1_2_MEMBER_113_1_STROKES" class="st0" d="M293.4,46.1L293.4,46.1l-0.1,0.1v-0.1h-0.1l-0.1-0.1"/>
<path id="Layer1_2_MEMBER_114_1_STROKES" class="st0" d="M293.6,46.1l0.2-0.1l0.3-0.1"/>
<path id="Layer1_2_MEMBER_115_1_STROKES" class="st0" d="M293.1,45.8l-0.2-0.8"/>
<path id="Layer1_2_MEMBER_116_1_STROKES" class="st0" d="M307.7,37.9L307.7,37.9l-0.1,0.1"/>
<path id="Layer1_2_MEMBER_117_1_STROKES" class="st0" d="M307.8,37.8l0.4-0.3"/>
<path id="Layer1_2_MEMBER_118_1_STROKES" class="st0" d="M307.4,37.7l-0.1-0.3l-0.2-0.5"/>
<path id="Layer1_2_MEMBER_119_1_STROKES" class="st0" d="M308.4,37.1l-0.1-0.3l-0.2-0.6"/>
<path id="Layer1_2_MEMBER_120_1_STROKES" class="st0" d="M305.9,37.2h0.2v0.1h0.1v0.1"/>
<path id="Layer1_2_MEMBER_121_1_STROKES" class="st0" d="M306.4,38l-0.2-0.7"/>
<path id="Layer1_2_MEMBER_122_1_STROKES" class="st0" d="M316.5,39.8l-8.5,3.9l-0.4,0.2"/>
<path id="Layer1_2_MEMBER_123_1_STROKES" class="st0" d="M284.3,21.1l-8.8,4.1"/>
<path id="Layer1_2_MEMBER_124_1_STROKES" class="st0" d="M280.9,51.6L280.9,51.6L280.9,51.6L280.9,51.6z M280.9,51.6h0.2v0.1"/>
<path id="Layer1_2_MEMBER_125_1_STROKES" class="st0" d="M280.9,53.4l0.2-0.1l0.2-0.2"/>
<path id="Layer1_2_MEMBER_126_1_STROKES" class="st0" d="M280.5,53.2l-0.1-0.3l-0.2-0.5"/>
<path id="Layer1_2_MEMBER_127_1_STROKES" class="st0" d="M281.4,52.6l-0.2-0.9"/>
<path id="Layer1_2_MEMBER_128_1_STROKES" class="st0" d="M280.3,52.1v0.1h-0.1v0.3"/>
<path class="st1" d="M331,58l-0.3-0.4l-1.2,1.1l0.4,0.3L331,58z"/>
<path id="Layer1_2_MEMBER_129_1_STROKES" class="st2" d="M330.7,57.6l-1.2,1.1l0.4,0.3L331,58L330.7,57.6z"/>
<path class="st1" d="M252.7,13l-0.4-0.3l-1,1.2l0.4,0.3L252.7,13z"/>
<path id="Layer1_2_MEMBER_130_1_STROKES" class="st2" d="M252.3,12.6l-1,1.2l0.4,0.3l1-1.2L252.3,12.6z"/>
<path d="M320.7,51.5l-0.3-0.3l-1.2,1.1l0.3,0.4L320.7,51.5z"/>
<path id="Layer1_2_MEMBER_131_1_STROKES" class="st2" d="M320.3,51.1l-1.2,1.1l0.3,0.4l1.2-1.1L320.3,51.1z"/>
<path class="st1" d="M264.5,19.2l-0.3-0.3l-1,1.2l0.4,0.3L264.5,19.2z"/>
<path id="Layer1_2_MEMBER_132_1_STROKES" class="st2" d="M264.1,18.9l-1,1.2l0.4,0.3l1-1.2L264.1,18.9z"/>
<path class="st3" d="M221.3,143.2l0-0.8l0-0.1l-7.2,6c-1.2,0.9-2.9,1.4-5,1.4c-1.7,0-3.2-0.3-4.4-1c-1.1-0.7-1.7-1.5-1.8-2.5v1.8
	c0,0.9,0.6,1.8,1.8,2.5c0.7,0.4,1.3,0.6,1.8,0.7c1.5,0.3,3,0.3,4.7,0c1.3-0.3,2.1-0.6,2.6-0.9l7.2-6L221.3,143.2 M218.4,140.2
	L218.4,140.2l-11.6,2.7c-0.1,0-0.2,0-0.3,0.1c-1,0.3-1.8,0.7-2.5,1.2c-0.6,0.6-1,1.2-1,1.9v0.1c0,1,0.6,1.8,1.8,2.5
	c1.2,0.7,2.7,1,4.4,1c2.1,0,3.8-0.5,5-1.4l7.2-6l-0.1,0L218.4,140.2 M221,140.9c-0.1-0.4-0.5-0.8-1-1.1c-0.3-0.2-0.7-0.3-1-0.2
	l-0.1,0l-0.1,0c0,0-0.1,0-0.1,0c-0.2,0.1-0.3,0.3-0.3,0.6l2.9,2.1C221.2,141.6,221.1,141.1,221,140.9 M236,135.4l-0.3-1.4l-0.9-1.2
	l-0.1-0.1l-1.1-0.3l-14.6,7.1c0.4-0.1,0.7,0,1,0.2c0.5,0.3,0.8,0.7,1,1.1c0.1,0.2,0.3,0.7,0.3,1.4l0.1,0l0,0.1l0,0.8l14.1-6.6l0.6-1
	L236,135.4 M241.8,130l-0.5-0.3l-6.7,3.1l0.9,1.2l0.3,1.4l6.4-3h-0.9l0.4-1.5l0-0.6h-0.2L241.8,130L241.8,130 M232.2,97L232.2,97
	l0.9,0l0.3-0.3l0,0l0.2-0.4l0.1-1.7l-0.7,1.7L232.2,97 M240.5,88.6l-1.8,0.8l1.5,6.4l1.8-1.1L240.5,88.6 M233.6,91.3l0.4,1.3l4-1.9
	l-0.3-1.3L233.6,91.3 M227,87.6l-0.7,1.6v0.3l0.3,2.4l0.8,2.1l0.2,0.3l0.4,0.6l1.5,1.5l1.2,0.6l-2.9-10L227,87.6 M227.9,86.8l0-0.4
	l-0.7,0.4l-0.3,0.3l-0.2,0.3l-0.3,1.8l0.7-1.6l0.8-0.6V86.8 M231,87.4c0.3,0.5,0.6,1.1,0.9,1.6c0.2,0.3,0.4,0.6,0.6,0.9l1,1.3l4-1.8
	l-2.4-3.6l-0.2-0.3L231,87.4 M231.9,89l-1.5-1.5l-1.2-0.6l2.8,9.6l0.2,0.5l0.8-0.6l0.7-1.7v-0.2l0-0.1l-0.3-2.5l-0.9-2
	C232.3,89.6,232.1,89.3,231.9,89 M230.4,87.6l1.5,1.5c-0.3-0.5-0.6-1.1-0.9-1.6l-0.9-0.6l-0.9-0.4l0,0.4V87L230.4,87.6 M230.1,86.1
	l-0.1-0.6l-2.1,1l0,0.4V87l2.9,10l0,0.1l1.2-0.5l-2.8-9.6v-0.1l0-0.4L230.1,86.1 M231.3,85.5l-0.7-0.1l-0.6,0.1l0.1,0.6L231.3,85.5
	 M232.5,84.5l-0.7,0.3l-0.9,0.3l-1,0.4l0.6-0.1l0.7,0.1l-1.2,0.6l-0.8,0.4l0.9,0.4l0.9,0.6l4-1.8l-0.9-0.7l-0.5-0.1l-0.3-0.1
	L232.5,84.5 M235.3,83.9H235h-1.6l-1.8,0.8l0.3,0l0.7-0.3l0.8,0.2h0.2l0.2,0.1l0.5,0.1l0.9,0.7l0.2,0.3l0.3,0.3l3.1,3.3l1.8-0.8
	l-2.6-2.7l-0.6-0.6L235.3,83.9 M243.7,102.2L243.7,102.2c-1.1-0.5-1.9-0.5-2.4-0.3c-0.5,0.2-1,0.8-1.5,1.8l0.6,1.2l1.1,0.4l-0.9-1.6
	l0.9,1.6l5.6,10.8l0.6,1.6l0.5,1.3l0.1,2.8l-0.9,2.7l-1.3,2l-3,2.6l0.1,2.3h1l2.7-2.1l2.5-2.9l1.3-2.5l0.5-2.6l-0.2-2.6L250,116
	l-3-5.7l-3.2-6.1l-0.4-0.8l0.4,0.8l0.4-0.8L243.7,102.2 M243.7,102.2l-1-2.9l-0.7-2l-0.2-0.4l0.2-2.1l-1.8,1.1l-1.5-6.4l-3.1-3.3
	l-0.3-0.3l2.4,3.6l0.3,1.3l-4,1.9l-0.3,1.8l0,0.1v0.2l-0.1,1.7l3.1-1.4l-0.5-1.5l0.5,1.5l0.1,0.3l0.3,0.9l2.7,7.4
	c0.5-1,1-1.6,1.5-1.8C241.7,101.7,242.5,101.7,243.7,102.2z"/>
<path class="st4" d="M230.1,97.1l0.7,0l0-0.1l-1.2-0.6l-1.5-1.5l0,0.1l1.1,1.4L230.1,97.1 M237.1,96.3l-0.3-0.9l-1,0.5L237.1,96.3
	 M236.8,95.3l-0.1-0.3l-3.1,1.4l-0.2,0.4l0,0l2.4-1L236.8,95.3 M233.9,92.6l-0.4-1.3l-1-1.3l0.9,2l0.3,2.5L233.9,92.6 M226.7,92.6
	l0.9,1.4l-0.8-2.1l-0.3-2.4l0,1.8L226.7,92.6 M233.5,84.7h-0.2l0.3,0.1L233.5,84.7 M232,81.8l-0.6-1.1l-0.4,4.4l0.9-0.3l-0.3,0
	l1.8-0.8h1.6L232,81.8 M237.5,84.1l0.5-5.8l-4.6,2.2l-0.3,0.3l0.2,0.4L237.5,84.1 M235.1,74.7c-0.3-0.1-0.6-0.2-1-0.2
	c-1.5-0.2-3.1,0.1-5.1,1.1c-2.7,1.4-5.2,3.7-7.4,6.7c-2.1,3-3.3,6-3.7,9c-0.4,2.8,0,5,1.3,6.5l4.5,3.2l23.9,16.7l-0.6-1.6l-5.6-10.8
	l-1.1-0.4l-0.6-1.2l-2.7-7.4l-1.3-0.5l-2.4,1l-0.3,0.3l-0.9,0V97l-0.2-0.5l-1.2,0.5l-0.7,0l-0.9-0.7l-1.1-1.4l0-0.1l-0.4-0.6
	l-0.2-0.3l-0.9-1.4l-0.3-1.3l0-1.8v-0.3l0.3-1.8l0.2-0.3l0.3-0.3l0.7-0.4l2.1-1l1-0.4l0.4-4.4l0.8-1l5.9-2.7l0-0.1l-2.4-1.8
	C235.5,74.9,235.3,74.8,235.1,74.7 M274.1,106.8l-1-0.5l-0.1-0.1l-0.3,0.2l-0.9,0.4l1.7,0.3l0.8,1.5c0.2-0.2,0.6-0.4,1-0.5
	L274.1,106.8 M259.6,113.5l1.7,1.1c1.7,1.1,3.9,1.5,6.7,1.4c3-0.1,5-0.9,6.2-2.4c0.9-1.2,1-2.4,0.3-3.6c-0.3-0.5-0.5-0.8-0.5-1
	c0-0.1,0.1-0.2,0.3-0.3l-0.8-1.5l-1.7-0.3l-0.2,0.5l0,0h-0.2l-0.1-0.1c-1.6-0.8-3.4-1.1-5.6-1.1c-2.3-0.1-4.2,0.4-5.9,1.6
	c-2,1.4-2.3,3.1-0.9,5.1L259.6,113.5 M258.8,112.9l-1,0.6h0.1l1.1,0.4l1.2,1.2l1-0.5l-1.7-1.1L258.8,112.9L258.8,112.9 M250.5,108.3
	L250.5,108.3l0.7,1.1l6.2,4.3l0.3-0.2l0.1-0.1l0.1,0l1-0.6l0,0c-1.4-2-1.1-3.8,0.9-5.1c1.7-1.2,3.6-1.7,5.9-1.6c2.1,0,4,0.4,5.6,1.1
	l0.1,0.1h0.2l0,0l0.2-0.5l0.9-0.4l-4.9-3.4l-1.2-0.8l-0.9-0.9l0-0.1l-0.6-1l0.6,1l0,0.1l0.9,0.9l1.2,0.8c0.3-1,0.3-2.3,0-3.7
	c-0.4-1.5-0.9-2.6-1.8-3.2c-0.5-0.4-1-0.7-1.6-0.9c-1-0.3-2.3-0.3-3.7-0.1c-1.9,0.4-3.7,1.1-5.3,2.2c-2.1,1.3-4,3.2-5.7,5.5
	c-2,2.7-2.9,5.1-2.8,7.4l3,5.7l1.1,2.9l1,0.9l0.7,0.2l1.2,0.1l0.6-0.1c0.5-0.1,1.3-0.3,2.5-0.9l-6.3-4.6l-0.7-0.2v0l-0.1,0.5
	l-0.3-0.8l-0.3-2.8l0.8-3.3l0.4-1.1L250.5,108.3 M242.4,88.4l1.9-0.3l5.9-2.7l-2.5-0.3l-4.6,2.2l-0.6,0l-0.6-0.2l-4.1-2.8l-0.4-0.3
	l-4.1-2.9l-0.2-0.4l0.3-0.3l4.6-2.2l0-0.3l0.1-1.2l-5.9,2.7l-0.8,1l0.6,1.1l3,2.1h0.3l2.1,1.4l0.6,0.6l2.7,1.9L242.4,88.4
	 M244.4,88.1l-1.9,0.3l-1.8-0.6l-2.7-1.9l2.6,2.7l1.5,6.1l-0.2,2.1l0.2,0.4l1.6-0.3l5.9-2.8l0.8-8.9L244.4,88.1 M260.4,92.4
	l-0.5,0.5l-0.6,0.4l-6.5,3c-4.4,1.9-7.8,2.8-10.2,2.9l1,2.9v0l0.5,1.2l-0.4,0.8l3.2,6.1c-0.1-2.2,0.8-4.7,2.8-7.4
	c1.7-2.4,3.6-4.2,5.7-5.5c1.6-1.1,3.3-1.8,5.3-2.2c1.4-0.3,2.6-0.2,3.7,0.1L260.4,92.4 M260.4,92.4l0-0.1l1.1-14.1
	c-0.4,1.4-1.7,2.5-3.6,3.4c-2.4,1.1-5.3,1.5-8.5,1.2c-3.2-0.3-6-1.2-8.2-2.7c-2-1.4-3-2.9-3-4.5l-0.1,1.1l0,0.1l-0.1,1.2l0,0.3
	l-0.5,5.8l0.4,0.3l1.3-0.7l-1.3,0.7l4.1,2.8l0.6,0.2l0.6,0l4.6-2.2l2.5,0.3l-0.8,8.9l-5.9,2.8l-1.6,0.3l0.7,2
	c2.3-0.1,5.7-1,10.2-2.9l6.5-3l0.6-0.4L260.4,92.4 M244.9,66.7c1.1,0.7,2.4,1.2,3.8,1.5c0.6,0.1,1.1,0.2,1.8,0.3
	c1.8,0.2,3.4,0.1,4.8-0.3c0.5-0.2,1-0.3,1.5-0.5c1.8-0.8,2.8-2,2.9-3.3v0c0-0.1,0-0.3,0-0.5c-0.5,1.1-1.6,2-3.3,2.6
	c-1.7,0.6-3.6,0.8-5.7,0.6c-2.4-0.3-4.4-1-6.1-2.2c-1.6-1.1-2.3-2.4-2.2-3.7l-0.2,2.2C242.4,64.6,243.3,65.7,244.9,66.7 M242.4,61
	c0,0.1,0,0.1,0,0.1l0-0.4C242.5,60.8,242.4,60.9,242.4,61 M242.5,60.1c0,0.1,0,0.2,0,0.3c0.2,1.1,0.9,2,2.2,2.9
	c1.6,1.2,3.6,1.9,6,2.2c2.5,0.3,4.6,0,6.4-0.8c1.8-0.8,2.8-1.9,3-3.3v0c0.1-0.2,0.1-0.4,0-0.6c-0.4,1.1-1.3,1.9-2.8,2.6
	c-1.8,0.8-3.9,1.1-6.4,0.8s-4.4-1-6.1-2.2c-1.5-1.1-2.3-2.3-2.2-3.6l0,0.7L242.5,60.1 M242.5,59.5c0,0.2,0,0.4,0,0.6l0.1-1
	L242.5,59.5 M242.5,60.1l0,0.6c0-0.1,0.1-0.2,0.1-0.3C242.5,60.3,242.5,60.2,242.5,60.1 M256.9,61.8c-1.6,0.7-3.6,0.9-5.9,0.8
	c-2.2-0.3-4.1-0.9-5.6-1.9c-1.5-1.1-2.2-2.2-2.1-3.4c0-0.3,0.1-0.6,0.2-0.8c-0.6,0.5-0.9,1.1-0.9,1.7v0.2c0,0,0,0.1,0,0.1l0,0
	c0,1.3,0.7,2.5,2.2,3.6c1.6,1.2,3.6,1.9,6.1,2.2s4.5,0,6.4-0.8c1.5-0.6,2.4-1.5,2.8-2.6c0.1-0.2,0.2-0.4,0.2-0.6v-0.2
	c0.1-0.9-0.3-1.9-1.1-2.8c0.3,0.6,0.4,1.2,0.4,1.8C259.5,60.1,258.6,61.1,256.9,61.8 M257.6,55.4c-1.5-1.1-3.4-1.7-5.6-1.9
	c-2.3-0.3-4.2,0-5.9,0.8c-1.3,0.5-2.1,1.2-2.5,2.1c-0.1,0.3-0.2,0.5-0.2,0.8c-0.1,1.2,0.5,2.4,2.1,3.4c1.5,1,3.3,1.7,5.6,1.9
	c2.3,0.2,4.3-0.1,5.9-0.8c1.7-0.8,2.6-1.7,2.7-3c0.1-0.6-0.1-1.2-0.4-1.8C258.9,56.5,258.3,56,257.6,55.4 M240,73
	C240,73,240,73,240,73v-0.3l-0.1-0.2c-0.4,0.6-0.7,1.2-0.8,1.9c0,0.2,0,0.4,0,0.5c0.1,1.5,1,2.8,2.8,4c2,1.4,4.5,2.2,7.4,2.4
	c3,0.3,5.6-0.1,7.7-1.1c2.2-1,3.4-2.3,3.6-4c0-0.4,0-0.8,0-1.1v0c0-0.2,0-0.3,0-0.4l0-0.6l0.1-1c-0.1-0.3-0.2-0.4-0.2-0.5
	c0-0.3,0-0.6-0.1-0.8c-0.3-0.3-0.5-0.6-0.6-0.8c-0.1,0-0.2-0.1-0.3-0.2c-0.1-0.1-0.1-0.1-0.1-0.2c0,0,0-0.1,0-0.2s0-0.2,0.1-0.2
	v-0.3c0.1-0.6,0.1-1.1,0.1-1.3c0-0.2,0-0.3,0.1-0.5h-0.2l-0.3,2.4l0.1,0.3c0.8,0.6,1.2,1.5,1.1,2.5c0,0.9-0.3,1.8-1,2.6
	c-1,1.1-2.6,1.9-4.6,2.4c-1.8,0.4-3.5,0.5-5.2,0.3c-1.7-0.2-3.3-0.5-4.8-1.1c-1.7-0.7-3-1.6-3.9-2.7c0,0-0.1-0.1-0.1-0.1
	C240.4,74.3,240.1,73.7,240,73 M239.9,72.6L239.9,72.6l0,0.2C239.9,72.7,239.9,72.6,239.9,72.6 M239.9,72.6c0,0,0-0.1,0-0.1V72.6
	L239.9,72.6 M239.9,72.5C239.9,72.5,239.9,72.4,239.9,72.5c0-0.3,0-0.4,0-0.5c0-0.1,0-0.2,0-0.3l-0.9,1.4c-0.3,0.4-0.5,0.8-0.7,1.3
	c-0.1,0.2-0.1,0.4-0.1,0.7c0,0.1,0,0.1,0,0.2c0,0.2,0,0.3,0,0.5c0,1.6,1,3.2,3,4.5c2.2,1.5,5,2.4,8.2,2.7c3.3,0.3,6.1-0.1,8.5-1.2
	c2-0.9,3.2-2,3.6-3.4c0.1-0.3,0.2-0.6,0.2-0.9c0.1-0.3,0-0.8-0.1-1.3c-0.1-0.6-0.4-1.2-1-1.8l0,0.6c0,0.1,0,0.3,0,0.4v0
	c0,0.3,0,0.7,0,1.1c-0.2,1.7-1.4,3-3.6,4c-2.2,1-4.8,1.4-7.7,1.1c-3-0.2-5.5-1-7.4-2.4c-1.8-1.2-2.7-2.5-2.8-4c0-0.2,0-0.3,0-0.5
	c0.1-0.7,0.3-1.3,0.8-1.9L239.9,72.5 M239.9,72.4l0-0.7c0,0.1,0,0.2,0,0.3C239.9,72.1,239.9,72.2,239.9,72.4 M240.9,70.6l0.5-1.2
	c-0.1,0-0.1,0.1-0.2,0.1c-0.7,0.6-1.1,1.3-1.3,2.2l0,0.7c0,0,0,0.1,0,0.1c0,0.1,0,0.1,0,0.1s0,0.1,0,0.2V73c0,0,0,0.1,0,0.1
	c0.1,0.7,0.4,1.3,0.9,1.9c0,0.1,0.1,0.1,0.1,0.1c0.9,1.1,2.2,2,3.9,2.7c1.5,0.6,3.1,1,4.8,1.1c1.7,0.2,3.4,0.1,5.2-0.3
	c2.1-0.5,3.6-1.3,4.6-2.4c0.7-0.8,1-1.6,1-2.6c0-1-0.3-1.8-1.1-2.5l0.5,1.2c-0.4,1.9-1.7,3.2-4,4c-1.8,0.6-3.8,0.8-6,0.7
	c-2.1-0.1-4-0.7-5.7-1.6c-0.8-0.5-1.5-1-2.1-1.5c-0.8-0.8-1.2-1.7-1.2-2.7c0-0.1,0-0.1,0-0.2V70.6 M237.5,73.6
	c-0.3-0.3-0.7-0.4-1.1-0.6c-0.4-0.2-0.9-0.3-1.3-0.3c-0.3-0.1-0.6-0.1-1-0.1c-1.4,0-2.9,0.4-4.6,1.2c-3.3,1.6-6.2,4.2-8.8,7.9
	c-2.6,3.7-4,7.3-4.4,10.9c-0.3,3.3,0.4,5.8,2.1,7.2c0.1,0.1,0.3,0.2,0.4,0.3c1.3,0.9,3,1.2,5,0.8l-4.5-3.2c-1.3-1.5-1.8-3.6-1.3-6.5
	c0.4-3,1.7-6,3.7-9c2.2-3.1,4.6-5.3,7.4-6.7c1.9-0.9,3.6-1.3,5.1-1.1c0.3,0,0.7,0.1,1,0.2c0.2,0.1,0.4,0.2,0.6,0.3l2.4,1.8l0.1-1.1
	c0-0.1,0-0.3,0-0.5c0-0.1,0-0.1,0-0.2c0-0.2,0.1-0.4,0.1-0.7L237.5,73.6 M241.6,68.3c0,0.1,0,0.1,0,0.2c0,0.4-0.1,0.8-0.3,1
	l-0.5,1.2v0.2c0,0.1,0,0.2,0,0.2c0.1,1,0.5,1.9,1.2,2.7c0.5,0.6,1.2,1.1,2.1,1.5c1.8,1,3.7,1.5,5.7,1.6c2.2,0.2,4.2-0.1,6-0.7
	c2.3-0.8,3.7-2.1,4-4l-0.5-1.2l-0.1-0.3l-0.1,1.2c-0.1,1.4-1.1,2.5-2.9,3.3c-1.8,0.8-4,1.1-6.4,0.8c-2.4-0.3-4.4-1-6-2.1
	c-0.8-0.6-1.3-1.1-1.7-1.8c-0.4-0.7-0.6-1.4-0.5-2.1l0.2-1.7H241.6 M242.1,64.7l-0.1,1.1v0.1c0,0.8,0.2,1.6,0.8,2.3
	c0.4,0.5,0.9,0.9,1.5,1.4c1.6,1.2,3.6,1.9,6.1,2.1c2.4,0.3,4.5,0,6.4-0.8c1.5-0.7,2.5-1.6,2.8-2.7c0.1-0.2,0.1-0.4,0.1-0.6v0
	c0-0.3,0-0.6,0-0.9c-0.2,0.6-0.6,1.1-1.1,1.6c-0.6,0.5-1.3,0.9-2.2,1.2c-1.7,0.6-3.7,0.9-5.9,0.6c-2.2-0.2-4.1-0.8-5.6-1.8
	c-0.1-0.1-0.3-0.2-0.4-0.3C242.9,67,242.2,65.9,242.1,64.7 M242.2,63.7l-0.1,1c0.1,1.2,0.8,2.3,2.2,3.3c0.1,0.1,0.3,0.2,0.4,0.3
	c1.5,1,3.4,1.6,5.6,1.8c2.2,0.2,4.1,0,5.9-0.6c0.9-0.3,1.6-0.7,2.2-1.2c0.5-0.5,0.9-1,1.1-1.6c0.1,0.3,0.1,0.6,0,0.9v0
	c0,0.2-0.1,0.4-0.1,0.6c-0.3,1.1-1.3,2-2.8,2.7c-1.8,0.8-4,1.1-6.4,0.8c-2.4-0.2-4.4-0.9-6.1-2.1c-0.6-0.4-1.1-0.9-1.5-1.4
	c-0.5-0.8-0.8-1.5-0.8-2.3l-0.2,2.3v0c0.1,0.4,0.2,0.7,0.3,1.1c0.4,0.9,1.1,1.6,2.3,2.3c1.6,1,3.5,1.7,5.7,1.9c2,0.2,3.9,0,5.6-0.5
	c1.7-0.6,2.8-1.4,3.4-2.6c-0.6,1.1-1.7,2-3.4,2.6c-1.7,0.6-3.6,0.7-5.6,0.5c-2.2-0.3-4.1-0.9-5.7-1.9c-1.1-0.7-1.9-1.5-2.3-2.3
	c-0.2-0.4-0.3-0.7-0.3-1.1l-0.2,1.7c-0.1,0.8,0.1,1.5,0.5,2.1c0.4,0.6,1,1.2,1.7,1.8c1.6,1.2,3.6,1.9,6,2.1c2.4,0.3,4.6,0,6.4-0.8
	c1.8-0.8,2.8-1.9,2.9-3.3l0.1-1.2l0.3-2.4l0.8-8.2c-0.1,0.2-0.1,0.4-0.2,0.6c0.1,0.2,0.1,0.4,0,0.6v0c-0.2,1.4-1.2,2.5-3,3.3
	c-1.8,0.8-3.9,1.1-6.4,0.8c-2.4-0.3-4.4-1-6-2.2c-1.3-0.9-2-1.9-2.2-2.9c0,0.1-0.1,0.2-0.1,0.3l0,0.4c-0.1,1.3,0.7,2.6,2.2,3.7
	c1.6,1.2,3.6,1.9,6.1,2.2c2.1,0.2,4,0,5.7-0.6c1.7-0.6,2.8-1.4,3.3-2.6c0,0.2,0,0.3,0,0.5v0c-0.1,1.4-1.1,2.5-2.9,3.3
	c-0.5,0.2-1,0.4-1.5,0.5c-1.5,0.4-3.1,0.4-4.8,0.3c-0.6-0.1-1.2-0.1-1.8-0.3c-1.4-0.3-2.7-0.9-3.8-1.5c-1.6-1-2.5-2.1-2.7-3.3V63.7
	 M242.1,64.7l0.1-1l-0.1,0.5C242.1,64.3,242.1,64.5,242.1,64.7 M168.3,56.1c-0.2,0.7-0.3,1.3-0.4,2c-0.5,3.4,0.1,6,1.7,7.7
	l48.8,34.1c-1.8-1.5-2.5-3.9-2.1-7.2c0.4-3.6,1.9-7.3,4.4-10.9c2.6-3.7,5.5-6.3,8.8-7.9c1.7-0.8,3.2-1.2,4.6-1.2c0.3,0,0.7,0,1,0.1
	c0.4,0.1,0.9,0.2,1.3,0.3l-47.9-33.5c-2.1-1.2-4.7-1-7.9,0.6c-0.7,0.3-1.3,0.7-1.9,1.1c-2.4,1.6-4.6,3.8-6.5,6.6
	C170.3,50.6,169,53.3,168.3,56.1 M153.5,42.4l0-0.2l-0.4,1.5l0,0l0.4,0.6l0.3,0.1v-0.1L153.5,42.4 M149.6,41.2l0.3,0.7l3.6,2.6
	l-0.4-0.6L149.6,41.2 M150.5,34.5l-0.5,1l3.6,2.6l0.5-1L150.5,34.5 M149.6,37.5v0.1l-0.1,0.5l0.1,3l3.6,2.6l0,0l0.4-1.5l0.1-2.2l0,0
	l-0.1-1.9l-3.6-2.6v0L149.6,37.5 M156.7,35l-2.5,2l-0.5,1l0.1,1.9l0.6-1.3l0.2-0.3C155.1,37,155.8,36,156.7,35 M160.3,46.8l0.6-3.2
	l-0.2-0.8l-6.3-4.5l-0.2,0.3l-0.6,1.3l0,0l-0.1,2.2l0,0.2l0.3,2v0.1l0,0.4l6.4,4.4l0.2-0.1l0.1-0.1l-0.2-1.1V46.8 M170.8,36.5
	c-0.8,0-1.6,0.3-2.5,0.7c-1.8,0.9-3.5,2.3-4.9,4.4c-1.5,2.1-2.3,4.1-2.5,6.1c-0.1,1,0,1.9,0.2,2.6c0.2,0.8,0.6,1.3,1.2,1.7l0,0
	c0.1,0.1,0.1,0.1,0.1,0.1l0.2,0.1l5.6,3.8c0.7-2.8,2-5.5,3.9-8.3c2-2.8,4.1-5,6.5-6.6l-5.9-4.1C172.2,36.7,171.6,36.5,170.8,36.5
	 M161,31.9l-1.2-0.4l-0.9,0.5l-2.1,2.8c0.3-0.3,0.6-0.6,0.9-0.9C158.8,33,159.9,32.3,161,31.9 M164.5,32.1l-1.5-0.5l-0.3-0.1
	c-0.6,0.1-1.1,0.2-1.7,0.4c-1.1,0.4-2.1,1-3.2,2c-0.3,0.3-0.6,0.6-0.9,0.9v0c0,0,0,0,0,0c0,0.1-0.1,0.1-0.1,0.1
	c-0.9,0.9-1.6,2-2.2,3.3l6.3,4.5l0.2,0.8l-0.6,3.2V48l0.2,1.1l-0.1,0.1l-0.2,0.1l-6.4-4.4l0.9,1.1l6.3,4.3c-0.2-0.7-0.3-1.5-0.2-2.6
	c0.2-2,1-4,2.5-6.1c1.5-2.1,3.1-3.6,4.9-4.4c0.9-0.4,1.7-0.7,2.5-0.7L164.5,32.1 M160.4,29.8l-2.1-0.5l-2.1-0.2l3.6,2.5l1.2,0.4
	c0.5-0.2,1.1-0.4,1.7-0.4l0.3,0.1L160.4,29.8 M156.2,29.1l-0.9,0.4l3.6,2.6l0.9-0.5L156.2,29.1 M155.3,29.5l-0.6,0.5l-1.8,1.4
	l-2.4,3.1l3.7,2.5l2.5-2c0.1,0,0.1-0.1,0.1-0.1c0,0,0,0,0,0v0l2.1-2.8L155.3,29.5 M147.9,29.4c-0.3,0.1-0.4,0.1-0.6,0.2
	c-0.3,0.1-0.5,0-0.7,0c-0.6-0.1-1.7-0.3-3.4-0.6c-1.5-0.3-2.6-0.5-3.5-0.8l-2.2-1.2l-1.5-1.5c-0.4-0.9-0.6-1.6-0.6-2.1
	c0-0.3,0.1-0.6,0.3-0.9l-0.3,0.5l-0.7,1.5l-0.5,3.6c0,1.5,0.5,2.8,1.5,4c1.3,1.2,3.1,2.2,5.5,3c0.3,0.1,2.4,0.6,6.2,1.5l1.1,0.4
	l1.1,0.6l0.5-2v0l0.5-1l2.4-3.1l1.8-1.4l-0.8-0.8l-1.3-2l-0.8-2.7c0,0.1,0,0.3,0,0.5c0.2,1.2,0.4,1.9,0.5,2.2l-0.1,0.3
	c-0.7,0-1.4,0.2-2.2,0.7C149.7,28.3,149.1,28.7,147.9,29.4 M146.6,20c-1.9-0.5-3.7-0.7-5.4-0.4c-1.8,0.1-3.4,0.8-4.9,2.1
	c-0.1,0.1-0.3,0.2-0.3,0.4c-0.1,0.2-0.3,0.3-0.3,0.5c-0.2,0.3-0.3,0.6-0.3,0.9c0,0.4,0.2,1.1,0.6,2.1l1.5,1.5l2.2,1.2
	c0.9,0.3,2,0.5,3.5,0.8c1.7,0.3,2.9,0.5,3.4,0.6c0.2,0.1,0.4,0.1,0.7,0c0.1,0,0.3-0.1,0.6-0.2c1.1-0.7,1.8-1.1,2-1.2
	c0.8-0.4,1.5-0.7,2.2-0.7l0.1-0.3c-0.1-0.3-0.2-1-0.5-2.2c0-0.2,0-0.3,0-0.5c-0.2-0.7-0.4-1.2-0.7-1.6
	C150.2,21.5,148.7,20.6,146.6,20 M277.2,114.6l-0.3-3.3c0,0.3,0,0.6,0,1l-0.8,1.8l-1,1l-2.3,1.3l-1.2,0.4l-2,0.3l-3.1,0.1l-2.9-0.5
	l-2.6-0.8l-0.6-0.3l-0.2-0.2v-0.2l0.1-0.2l-1.2-1.2l-1.1-0.4h-0.1l-0.1,0l-0.1,0.1l-0.3,0.2l-6.2-4.3l-0.7-1l0-0.1l0.2-1.3l-0.4,1.1
	l-0.8,3.3l0.3,2.8l0.3,0.8l0.1-0.5v0l0.7,0.2l6.3,4.6c0.1-0.1,0.2-0.1,0.3-0.2l0.6,0.9l0.7,0.7l1,0.5l0-0.1l0,0h0.2l0.6,0.3l2.6,0.8
	l2.9,0.5l3.1-0.1c3.1-0.4,5.3-1.5,6.6-3.1l1-2.5L277.2,114.6 M276.8,110.6c-0.1-0.3-0.1-0.5-0.2-0.6c-0.4-0.6-0.8-1.1-1.2-1.6
	l-0.1-0.3c-0.4,0.2-0.8,0.3-1,0.5c-0.1,0.1-0.2,0.2-0.3,0.3c0,0.2,0.1,0.5,0.5,1c0.8,1.2,0.7,2.4-0.3,3.6c-1.2,1.5-3.3,2.3-6.2,2.4
	c-2.8,0.1-5-0.4-6.7-1.4l-1,0.5l-0.1,0.2v0.2l0.2,0.2l0.6,0.3l2.6,0.8l2.9,0.5l3.1-0.1l2-0.3l1.2-0.4l2.3-1.3l1-1l0.8-1.8
	c0-0.4,0-0.7,0-1c0,0,0-0.1,0-0.1c0,0,0-0.1,0-0.1c0-0.1,0-0.2,0-0.3C276.8,110.7,276.8,110.6,276.8,110.6z"/>
<path id="Layer0_5_1_STROKES" class="st5" d="M260.8,73.2l-0.1,1c0.6,0.6,0.9,1.2,1,1.8c0.1,0.5,0.1,1,0.1,1.3
	c0,0.3-0.1,0.6-0.2,0.9l-1.1,14.1l0,0.1l4,2.8c0.6,0.2,1.2,0.5,1.6,0.9c0.8,0.6,1.4,1.6,1.8,3.2c0.3,1.4,0.3,2.6,0,3.7l4.9,3.4
	l0.3-0.2l0.1,0.1l1,0.5l1.2,1.2l0.1,0.3c0.4,0.5,0.8,1.1,1.2,1.6c0.1,0.2,0.2,0.4,0.2,0.6c0,0.1,0,0.1,0,0.3c0,0.1,0,0.2,0,0.3
	c0,0,0,0.1,0,0.1c0,0.1,0,0.1,0,0.1l0.3,3.3l-0.4,2.1l-1,2.5c-1.3,1.6-3.5,2.6-6.6,3.1l-3.1,0.1l-2.9-0.5l-2.6-0.8l-0.6-0.3h-0.2
	l0,0l0,0.1l-1-0.5l-0.7-0.7l-0.6-0.9c-0.1,0.1-0.3,0.1-0.3,0.2c-1.2,0.5-2,0.8-2.5,0.9L254,120l-1.2-0.1l-0.7-0.2l-1-0.9l0.2,2.6
	l-0.5,2.6l-1.3,2.5l-2.5,2.9l-2.7,2.1h-1l-0.1-2.3l3-2.6l1.3-2l0.9-2.7l-0.1-2.8l-0.5-1.3L223.8,101c-2,0.4-3.6,0.1-5-0.8
	c-0.1-0.1-0.3-0.2-0.4-0.3l-48.8-34.1c-1.6-1.7-2.2-4.2-1.7-7.7c0.1-0.6,0.2-1.3,0.4-2l-5.6-3.8l-0.2-0.1c0,0-0.1,0-0.1-0.1l0,0
	c-0.6-0.4-1-1-1.2-1.7l-6.3-4.3l-0.9-1.1l0-0.4l-0.3-0.1l-3.6-2.6l-0.3-0.7l-0.1-3l0.1-0.5v-0.1l-1.1-0.6l-1.1-0.4
	c-3.8-0.9-5.8-1.5-6.2-1.5c-2.4-0.8-4.3-1.8-5.5-3c-1-1.2-1.5-2.5-1.5-4l0.5-3.6l0.7-1.5l0.3-0.5c0.1-0.2,0.2-0.3,0.3-0.5
	c0.1-0.1,0.2-0.3,0.3-0.4c1.5-1.3,3.1-2,4.9-2.1c1.8-0.3,3.6-0.1,5.4,0.4c2.1,0.6,3.6,1.5,4.4,2.9c0.3,0.4,0.5,1,0.7,1.6l0.8,2.7
	l1.3,2l0.8,0.8l0.6-0.5l0.9-0.4l2.1,0.2l2.1,0.5l2.6,1.8l1.5,0.5l6.3,4.4c0.8,0,1.4,0.2,2,0.6l5.9,4.1c0.6-0.4,1.3-0.8,1.9-1.1
	c3.2-1.6,5.8-1.8,7.9-0.6L236.4,73c0.4,0.1,0.8,0.3,1.1,0.6l0.9,0.8c0.1-0.4,0.4-0.9,0.7-1.3l0.9-1.4c0.1-0.9,0.6-1.6,1.3-2.2
	c0-0.1,0.1-0.1,0.2-0.1 M241.8,68.3L241.8,68.3l0.2-2.3v-0.1l0.1-1.1c0-0.2,0-0.4,0-0.6l0.1-0.5v-0.3l0.2-2.2c0,0,0-0.1,0-0.1
	c0-0.1,0-0.2,0-0.3l0-0.6c0-0.2,0-0.4,0-0.6l0.1-0.4l0-0.7v0c0,0,0-0.1,0-0.1v-0.2c0-0.6,0.3-1.2,0.9-1.7c0.4-0.9,1.2-1.6,2.5-2.1
	c1.6-0.8,3.6-1,5.9-0.8c2.2,0.2,4.1,0.9,5.6,1.9c0.8,0.5,1.3,1.1,1.6,1.7c0.8,1,1.2,1.9,1.1,2.8v0.2l-0.8,8.2 M275.3,108.1
	c-0.4,0.2-0.8,0.3-1,0.5c-0.1,0.1-0.2,0.2-0.3,0.3c0,0.2,0.1,0.5,0.5,1c0.8,1.2,0.7,2.4-0.3,3.6c-1.2,1.5-3.3,2.3-6.2,2.4
	c-2.8,0.1-5-0.4-6.7-1.4l-1,0.5l-0.1,0.2v0.2l0.2,0.2l0.6,0.3l2.6,0.8l2.9,0.5l3.1-0.1l2-0.3l1.2-0.4l2.3-1.3l1-1l0.8-1.8
	c0-0.4,0-0.7,0-1 M151.7,24.5c0,0.1,0,0.3,0,0.5c0.2,1.2,0.4,1.9,0.5,2.2l-0.1,0.3c-0.7,0-1.4,0.2-2.2,0.7c-0.2,0.1-0.8,0.5-2,1.2
	c-0.3,0.1-0.4,0.1-0.6,0.2c-0.3,0.1-0.5,0-0.7,0c-0.6-0.1-1.7-0.3-3.4-0.6c-1.5-0.3-2.6-0.5-3.5-0.8l-2.2-1.2l-1.5-1.5
	c-0.4-0.9-0.6-1.6-0.6-2.1c0-0.3,0.1-0.6,0.3-0.9 M154.7,29.9l-1.8,1.4l-2.4,3.1l3.7,2.5l2.5-2c0.1,0,0.1-0.1,0.1-0.1c0,0,0,0,0,0v0
	l2.1-2.8l-3.6-2.6 M163,31.6l-0.3-0.1c-0.6,0.1-1.1,0.2-1.7,0.4c-1.1,0.4-2.1,1-3.2,2c-0.3,0.3-0.6,0.6-0.9,0.9 M161,31.9l-1.2-0.4
	l-0.9,0.5 M159.8,31.6l-3.6-2.5 M161.1,50.3c-0.2-0.7-0.3-1.5-0.2-2.6c0.2-2,1-4,2.5-6.1c1.5-2.1,3.1-3.6,4.9-4.4
	c0.9-0.4,1.7-0.7,2.5-0.7 M156.7,35c-0.9,0.9-1.6,2-2.2,3.3l6.3,4.5l0.2,0.8l-0.6,3.2V48l0.2,1.1l-0.1,0.1l-0.2,0.1l-6.4-4.4
	 M149.6,41.2l3.6,2.6l0,0l0.4-1.5l0.1-2.2l0,0l-0.1-1.9l-3.6-2.6v0l-0.5,2 M150.5,34.5l-0.5,1 M153.9,44.5L153.9,44.5l-0.3-2.1
	l0-0.2 M153.7,39.9l0.6-1.3l0.2-0.3 M154.2,37l-0.5,1 M153.2,43.7l0.4,0.6 M168.3,56.1c0.7-2.8,2-5.5,3.9-8.3c2-2.8,4.1-5,6.5-6.6
	 M242.1,64.7l0.1-1 M236.4,73c-0.4-0.2-0.9-0.3-1.3-0.3c-0.3-0.1-0.6-0.1-1-0.1c-1.4,0-2.9,0.4-4.6,1.2c-3.3,1.6-6.2,4.2-8.8,7.9
	c-2.6,3.7-4,7.3-4.4,10.9c-0.3,3.3,0.4,5.8,2.1,7.2 M240,71.7l0,0.7c0,0,0,0.1,0,0.1c0,0.1,0,0.1,0,0.1s0,0.1,0,0.2V73
	c0,0,0,0.1,0,0.1c0.1,0.7,0.4,1.3,0.9,1.9c0,0.1,0.1,0.1,0.1,0.1c0.9,1.1,2.2,2,3.9,2.7c1.5,0.6,3.1,1,4.8,1.1
	c1.7,0.2,3.4,0.1,5.2-0.3c2.1-0.5,3.6-1.3,4.6-2.4c0.7-0.8,1-1.6,1-2.6c0-1-0.3-1.8-1.1-2.5l0.5,1.2c-0.4,1.9-1.7,3.2-4,4
	c-1.8,0.6-3.8,0.8-6,0.7c-2.1-0.1-4-0.7-5.7-1.6c-0.8-0.5-1.5-1-2.1-1.5c-0.8-0.8-1.2-1.7-1.2-2.7c0-0.1,0-0.1,0-0.2v-0.2l0.5-1.2
	 M239.9,72.4c0-0.2,0-0.3,0-0.4c0-0.1,0-0.2,0-0.3 M239.9,72.5l0,0.1h0 M240,72.8l-0.1-0.2c-0.4,0.6-0.7,1.2-0.8,1.9
	c0,0.2,0,0.4,0,0.5c0.1,1.5,1,2.8,2.8,4c2,1.4,4.5,2.2,7.4,2.4c3,0.3,5.6-0.1,7.7-1.1c2.2-1,3.4-2.3,3.6-4c0-0.4,0-0.8,0-1.1v0
	c0-0.2,0-0.3,0-0.4l0-0.6 M259.4,71l-0.1-0.3l-0.1,1.2c-0.1,1.4-1.1,2.5-2.9,3.3c-1.8,0.8-4,1.1-6.4,0.8c-2.4-0.3-4.4-1-6-2.1
	c-0.8-0.6-1.3-1.1-1.7-1.8c-0.4-0.7-0.6-1.4-0.5-2.1l0.2-1.7c0.1,0.4,0.2,0.7,0.3,1.1c0.4,0.9,1.1,1.6,2.3,2.3
	c1.6,1,3.5,1.7,5.7,1.9c2,0.2,3.9,0,5.6-0.5c1.7-0.6,2.8-1.4,3.4-2.6 M259.2,57.1c0.3,0.6,0.4,1.2,0.4,1.8c-0.1,1.2-1,2.2-2.7,3
	c-1.6,0.7-3.6,0.9-5.9,0.8c-2.2-0.3-4.1-0.9-5.6-1.9c-1.5-1.1-2.2-2.2-2.1-3.4c0-0.3,0.1-0.6,0.2-0.8 M242.5,60.7
	c0-0.1,0.1-0.2,0.1-0.3c0-0.1,0-0.2,0-0.3l0.1-1 M242.6,60.4c0.2,1.1,0.9,2,2.2,2.9c1.6,1.2,3.6,1.9,6,2.2c2.5,0.3,4.6,0,6.4-0.8
	c1.8-0.8,2.8-1.9,3-3.3v0c0.1-0.2,0.1-0.4,0-0.6c-0.4,1.1-1.3,1.9-2.8,2.6c-1.8,0.8-3.9,1.1-6.4,0.8s-4.4-1-6.1-2.2
	c-1.5-1.1-2.3-2.3-2.2-3.5 M242.4,61.2l0-0.4 M242,65.9c0,0.8,0.2,1.6,0.8,2.3c0.4,0.5,0.9,0.9,1.5,1.4c1.6,1.2,3.6,1.9,6.1,2.1
	c2.4,0.3,4.5,0,6.4-0.8c1.5-0.7,2.5-1.6,2.8-2.7c0.1-0.2,0.1-0.4,0.1-0.6v0c0-0.3,0-0.6,0-0.9c-0.2,0.6-0.6,1.1-1.1,1.6
	c-0.6,0.5-1.3,0.9-2.2,1.2c-1.7,0.6-3.7,0.9-5.9,0.6c-2.2-0.2-4.1-0.8-5.6-1.8c-0.1-0.1-0.3-0.2-0.4-0.3c-1.4-1-2.1-2.1-2.2-3.3
	 M242.2,63.4c0.2,1.3,1.1,2.4,2.7,3.3c1.1,0.7,2.4,1.2,3.8,1.5c0.6,0.1,1.1,0.2,1.8,0.3c1.8,0.2,3.4,0.1,4.8-0.3
	c0.5-0.2,1-0.3,1.5-0.5c1.8-0.8,2.8-2,2.9-3.3v0c0-0.1,0-0.3,0-0.5c-0.5,1.1-1.6,2-3.3,2.6c-1.7,0.6-3.6,0.8-5.7,0.6
	c-2.4-0.3-4.4-1-6.1-2.2c-1.6-1.1-2.3-2.4-2.2-3.7 M260.1,60.7c0.1-0.2,0.2-0.4,0.2-0.6 M259.6,68.3l-0.3,2.4 M242.7,99.3
	c2.3-0.1,5.7-1,10.2-2.9l6.5-3l0.6-0.4l0.5-0.5 M242,97.3l1.6-0.3l5.9-2.8l0.8-8.9l-5.9,2.7l-1.9,0.3l-1.8-0.6l-2.7-1.9l2.6,2.7
	l1.5,6.1l-0.2,2.1L242,97.3l0.7,2l1,2.9v0l0.5,1.2l-0.4,0.8l3.2,6.1c-0.1-2.2,0.8-4.7,2.8-7.4c1.7-2.4,3.6-4.2,5.7-5.5
	c1.6-1.1,3.3-1.8,5.3-2.2c1.4-0.3,2.6-0.2,3.7,0.1 M239.2,83.7l-1.3,0.7l4.1,2.8l0.6,0.2l0.6,0l4.6-2.2l2.5,0.3 M261.6,78.2
	c-0.4,1.4-1.7,2.5-3.6,3.4c-2.4,1.1-5.3,1.5-8.5,1.2c-3.2-0.3-6-1.2-8.2-2.7c-2-1.4-3-2.9-3-4.5l-0.1,1.1l0,0.1l-0.1,1.2l0,0.3
	l-0.5,5.8l0.4,0.3 M243.8,104.2l-0.4-0.8 M257.1,119.1l-6.3-4.6l-0.7-0.2v0l-0.1,0.5l-0.3-0.8l-0.3-2.8l0.8-3.3l0.4-1.1l-0.2,1.3
	l0,0.1l0.7,1l6.2,4.3l0.3-0.2l0.1-0.1l0.1,0l1-0.6l0,0c-1.4-2-1.1-3.8,0.9-5.1c1.7-1.2,3.6-1.7,5.9-1.6c2.1,0,4,0.4,5.6,1.1l0.1,0.1
	h0.2l0,0l0.2-0.5l0.9-0.4 M260.3,115l-1.2-1.2l-1.1-0.4h-0.1 M267.9,103l-1.2-0.8l-0.9-0.9l0-0.1l-0.6-1 M258.9,112.9l0.7,0.6
	l1.7,1.1 M274.3,108.6l-0.8-1.5l-1.7-0.3 M238.2,75.7c0-0.1,0-0.3,0-0.5c0-0.1,0-0.1,0-0.2c0-0.2,0.1-0.4,0.1-0.7 M238.1,76.8
	l-2.4-1.8c-0.2-0.1-0.4-0.2-0.6-0.3c-0.3-0.1-0.6-0.2-1-0.2c-1.5-0.2-3.1,0.1-5.1,1.1c-2.7,1.4-5.2,3.7-7.4,6.7c-2.1,3-3.3,6-3.7,9
	c-0.4,2.8,0,5,1.3,6.5l4.5,3.2 M235,83.9h0.3l2.1,1.4l0.6,0.6 M238,76.9l-5.9,2.7l-0.8,1l0.6,1.1l3,2.1h-1.6l-1.8,0.8l0.3,0l0.7-0.3
	l0.8,0.2h0.2l0.2,0.1l0.5,0.1l0.9,0.7l0.2,0.3l0.3,0.3l3.1,3.3l1.8-0.8 M238,78.3l-4.6,2.2l-0.3,0.3l0.2,0.4l4.1,2.9 M233.3,84.7
	l0.3,0.1 M231.3,85.5l-0.7-0.1l-0.6,0.1l0.1,0.6L231.3,85.5z M226.4,89.5v-0.3l0.3-1.8l0.2-0.3l0.3-0.3l0.7-0.4l2.1-1l1-0.4l0.4-4.4
	 M230.1,86.8l-0.9-0.4l0,0.4V87l1.2,0.6l1.5,1.5c-0.3-0.5-0.6-1.1-0.9-1.6L230.1,86.8z M231,85.1l0.9-0.3 M226.4,89.2l0.7-1.6
	l0.8-0.6v-0.1l0-0.4 M227.5,94l-0.9-1.4l-0.3-1.3l0-1.8l0.3,2.4L227.5,94l0.2,0.3l0.4,0.6l1.5,1.5l1.2,0.6l-2.9-10 M233.9,92.6
	l-0.4-1.3l-1-1.3l0.9,2l0.3,2.5L233.9,92.6l4-1.9l-0.3-1.3l-4,1.8 M233.7,94.4l0,0.1v0.2l-0.1,1.7l3.1-1.4l-0.5-1.5 M232.5,89.9
	c-0.2-0.3-0.4-0.6-0.6-0.9 M229.2,86.4l0.8-0.4 M235.2,85.9l2.4,3.6 M235,85.6l-4,1.8 M242,94.7l-1.8,1.1l-1.5-6.4 M236.6,95
	l0.1,0.3l0.3,0.9 M236.8,95.3l-1,0.5l1.3,0.5l2.7,7.4c0.5-1,1-1.6,1.5-1.8c0.5-0.3,1.3-0.2,2.4,0.3 M247.8,117.7l-0.6-1.6l-5.6-10.8
	l-1.1-0.4l-0.6-1.2 M233.4,96.8l-0.3,0.3l-0.9,0V97l-0.2-0.5l-1.2,0.5l-0.7,0l-0.9-0.7l-1.1-1.4l0-0.1 M233.6,96.4l-0.2,0.4l0,0
	l2.4-1 M233.7,94.7l-0.7,1.7l-0.8,0.6 M230.9,97.1L230.9,97.1 M241.5,105.3l-0.9-1.6 M229.3,87l2.8,9.6 M241.8,130L241.8,130
	l-0.1,0.4h0.2l0,0.6l-0.4,1.5h0.9l-6.4,3l0,0.2l-0.6,1l-14.1,6.6l-0.1,1.1l-7.2,6c-0.5,0.4-1.4,0.7-2.6,0.9c-1.7,0.4-3.3,0.4-4.7,0
	c-0.5-0.1-1.1-0.3-1.8-0.7c-1.1-0.7-1.7-1.5-1.8-2.5v-1.8v-0.1c0-0.7,0.4-1.4,1-1.9c0.6-0.6,1.5-1,2.5-1.2c0.1-0.1,0.2-0.1,0.3-0.1
	l11.5-2.8l0,0c0-0.3,0.1-0.4,0.3-0.6c0,0,0.1,0,0.1,0l0.1,0l0.1,0l14.6-7.1l1.1,0.3l0.1,0.1l6.7-3.1L241.8,130z M234.7,132.8
	l0.9,1.2l0.3,1.4 M218.4,140.2l2.9,2.1c-0.1-0.7-0.2-1.2-0.3-1.4c-0.1-0.4-0.5-0.8-1-1.1c-0.3-0.2-0.7-0.3-1-0.2 M221.3,143.2l0-0.8
	l0-0.1l-7.2,6c-1.2,0.9-2.9,1.4-5,1.4c-1.7,0-3.2-0.3-4.4-1c-1.1-0.7-1.7-1.5-1.8-2.5 M221.4,142.3L221.4,142.3 M251.1,118.9
	L250,116l-3-5.7"/>
<path id="Layer0_5_MEMBER_0_MEMBER_0_1_STROKES" class="st5" d="M263.6,111.3c0-0.1-0.1-0.3-0.1-0.4 M263.6,111.3
	c0.2-0.4,0.6-0.7,1.1-0.9c0.6-0.2,1.3-0.3,2.1-0.3c0.7,0,1.4,0.2,1.9,0.5c0.6,0.3,0.9,0.7,1.1,1.1c0-0.1,0.1-0.2,0.1-0.4
	c0-0.5-0.3-0.9-0.9-1.3c-0.6-0.4-1.4-0.6-2.2-0.7c-0.9-0.1-1.6,0-2.3,0.4c-0.6,0.3-1,0.7-1,1.2 M269.8,111.7c-0.1,0.3-0.5,0.6-1,0.8
	c-0.6,0.3-1.4,0.4-2.3,0.4c-0.9,0-1.6-0.3-2.2-0.7c-0.4-0.3-0.7-0.6-0.8-0.9 M261.4,110.7c0,0.8,0.4,1.6,1.4,2.2
	c1,0.7,2.2,1,3.7,1.1c1.5,0.1,2.8-0.1,3.8-0.6c1.1-0.5,1.6-1.2,1.7-2c0-0.8-0.4-1.6-1.4-2.2c-1-0.6-2.2-1-3.7-1.1
	c-1.5-0.1-2.8,0.1-3.8,0.6C262,109.2,261.5,109.9,261.4,110.7z M261.2,113.7c1.4,0.9,3.1,1.5,5.2,1.6c2,0.1,3.8-0.1,5.4-0.9
	c1.5-0.7,2.3-1.6,2.4-2.8c0.1-1.2-0.6-2.2-2-3.1c-1.4-0.9-3.2-1.5-5.2-1.6c-2.1-0.2-3.9,0.1-5.4,0.8c-1.5,0.7-2.3,1.7-2.4,2.8
	C259.1,111.8,259.8,112.8,261.2,113.7z M142.1,23.2c-0.6,0.2-1,0.6-1.1,1c0.1,0.3,0.3,0.6,0.7,0.9c0.5,0.4,1.2,0.6,2.1,0.7
	c0.8,0.1,1.5,0,2.1-0.3c0.5-0.2,0.9-0.5,1-0.9c-0.2-0.4-0.5-0.7-1-1c-0.5-0.3-1.1-0.5-1.8-0.5C143.3,22.9,142.7,23,142.1,23.2z
	 M141,24.2c0-0.1-0.1-0.3-0.1-0.4c0-0.5,0.4-0.9,1-1.1c0.6-0.3,1.3-0.4,2.1-0.3c0.8,0.1,1.5,0.3,2.1,0.7c0.5,0.4,0.8,0.8,0.8,1.3
	c0,0,0,0.1,0,0.2 M148.2,24.4c0-0.7-0.3-1.3-1.1-1.8c-0.8-0.5-1.8-0.9-2.9-1c-1.2-0.1-2.2,0-3,0.4c-0.9,0.4-1.3,0.9-1.4,1.6
	c0,0.7,0.3,1.3,1.1,1.9c0.8,0.5,1.7,0.9,2.9,1c1.2,0.1,2.2,0,3-0.4C147.6,25.6,148.1,25.1,148.2,24.4z M206.6,146.1
	c0-0.4,0.3-0.8,0.8-1.1c0.5-0.3,1.1-0.5,1.9-0.5c0.7,0,1.4,0.2,1.9,0.5c0.5,0.3,0.8,0.6,0.8,1.1c0,0.4-0.2,0.7-0.6,1
	c0,0-0.1,0-0.1,0.1c-0.5,0.3-1.2,0.4-1.9,0.4c-0.7,0-1.4-0.1-1.9-0.4c-0.1,0-0.1-0.1-0.2-0.1C206.8,146.8,206.6,146.5,206.6,146.1
	L206.6,146.1z M211.3,147.2c-0.6-0.4-1.3-0.6-2.1-0.6c-0.8,0-1.5,0.2-2,0.5"/>
<path id="Layer0_6_MEMBER_1_1_STROKES" class="st6" d="M145.2,58.3v20.4H11.4V58.3H145.2z"/>
<text transform="matrix(1 0 0 1 15.5311 74.3896)"><tspan x="0" y="0" class="st7 st8">L/H I/B - 2700-P21</tspan><tspan x="0" y="25" class="st7 st8">L/H O/B - 2700-P19</tspan><tspan x="0" y="50" class="st7 st8">R/H I/B - 2700-P22</tspan><tspan x="0" y="75" class="st7 st8">R/H O/B - 2700-P20</tspan></text>
<path id="Layer0_6_MEMBER_1_1_STROKES_1_" class="st6" d="M145.2,134.3v20.4H11.4v-20.4H145.2z"/>
<path id="Layer0_6_MEMBER_1_1_STROKES_2_" class="st6" d="M145.2,84.3v20.4H11.4V84.3H145.2z"/>
<path id="Layer0_6_MEMBER_1_1_STROKES_3_" class="st6" d="M145.2,109.3v20.4H11.4v-20.4H145.2z"/>
<g>
	<path class="st4" d="M216.7,41.1l-2.7-3.2l-1,10.5l10.5,1l-2.7-3.2c12.4-13.3,24.5-21.7,38.1-25.7l1.6-0.7l-2.8,0.2
		C242.9,23.1,229.2,30.1,216.7,41.1z"/>
	<path id="Layer1_10_1_STROKES_4_" class="st9" d="M262.4,19.6l-4.6,0.5c-15,3.1-28.7,10.2-41.1,21l-2.7-3.2l-1,10.5l10.5,1
		l-2.7-3.2c12.4-13.3,25.3-21.9,38.9-25.8C262.4,19.6,262.4,19.6,262.4,19.6z"/>
</g>
</svg>
