<?xml version="1.0" encoding="utf-8"?>
<!-- Generator: Adobe Illustrator 24.2.1, SVG Export Plug-In . SVG Version: 6.00 Build 0)  -->
<svg version="1.1" id="Ebene_1" xmlns="http://www.w3.org/2000/svg" xmlns:xlink="http://www.w3.org/1999/xlink" x="0px" y="0px"
	 viewBox="0 0 349.1 161" style="enable-background:new 0 0 349.1 161;" xml:space="preserve">
<style type="text/css">
	.st0{fill:none;stroke:#000000;stroke-width:0.5;stroke-miterlimit:5;}
	.st1{fill:#FF2A0C;}
	.st2{fill:#0099FF;}
	.st3{fill:#B1B1B1;}
	.st4{fill:#666666;}
	.st5{fill:#009900;}
	.st6{fill:none;stroke:#000000;stroke-width:0.55;stroke-linecap:square;stroke-linejoin:round;}
	.st7{fill:#FF0000;}
	.st8{fill:none;stroke:#FF9900;stroke-linecap:round;stroke-linejoin:round;}
	.st9{font-family:'ArialMT';}
	.st10{font-size:12px;}
	.st11{font-size:14px;}
	.st12{opacity:0.2;fill:#0099FF;enable-background:new    ;}
	.st13{fill:none;stroke:#FF0000;stroke-width:2.0002;stroke-miterlimit:10.0005;}
</style>
<path id="Layer1_2_MEMBER_1_1_STROKES" class="st0" d="M92.8,132.9c0.1,0.1,0.2,0.2,0.3,0.4"/>
<path id="Layer1_2_MEMBER_2_1_STROKES" class="st0" d="M39.7,121.4c0.1,0.2,0,0.3-0.2,0.4"/>
<path id="Layer1_2_MEMBER_3_1_STROKES" class="st0" d="M39,120.8c-0.1,0-0.1,0.1-0.1,0.1l0,0v0l0,0v0l0,0.1v0.2"/>
<path id="Layer1_2_MEMBER_4_1_STROKES" class="st0" d="M39.7,121.4l0-0.2l-0.2-0.6"/>
<path id="Layer1_2_MEMBER_5_1_STROKES" class="st0" d="M38.9,121.9l0-0.2l-0.1-0.4"/>
<path id="Layer1_2_MEMBER_6_1_STROKES" class="st0" d="M39.1,122.1l0.2-0.1l0.2-0.1"/>
<path id="Layer1_2_MEMBER_7_1_STROKES" class="st0" d="M39.3,120.6l-0.4,0.2"/>
<path id="Layer1_2_MEMBER_8_1_STROKES" class="st0" d="M39.1,122.2L39.1,122.2L39.1,122.2L39.1,122.2z M39.1,122.2L39.1,122.2
	L39.1,122.2L39.1,122.2H39v0h0v0"/>
<path id="Layer1_2_MEMBER_9_1_STROKES" class="st0" d="M39.3,120.6L39.3,120.6l0.2,0v0h0v0h0v0h0"/>
<path id="Layer1_2_MEMBER_10_1_STROKES" class="st0" d="M42.1,95.1c-1.1,0.4-2.3,1-3.7,1.6l-3.7,1.7"/>
<path id="Layer1_2_MEMBER_11_1_STROKES" class="st0" d="M69,110.7c-1.6,0.7-4.1,1.8-7.5,3.4"/>
<path id="Layer1_2_MEMBER_12_1_STROKES" class="st0" d="M60.6,109.4c0,0.2,0,0.3-0.2,0.4"/>
<path id="Layer1_2_MEMBER_13_1_STROKES" class="st0" d="M59.6,109.1v0.2"/>
<path id="Layer1_2_MEMBER_14_1_STROKES" class="st0" d="M60.6,109.4l-0.2-0.8"/>
<path id="Layer1_2_MEMBER_15_1_STROKES" class="st0" d="M60.1,108.6l-0.3,0.2"/>
<path id="Layer1_2_MEMBER_16_1_STROKES" class="st0" d="M62.2,108.4c0,0.2,0,0.3-0.2,0.5"/>
<path id="Layer1_2_MEMBER_17_1_STROKES" class="st0" d="M61.4,107.9L61.4,107.9L61.4,107.9L61.4,107.9L61.4,107.9l-0.1,0.1l0,0v0
	l0,0v0.2"/>
<path id="Layer1_2_MEMBER_18_1_STROKES" class="st0" d="M62.2,108.4l-0.2-0.8"/>
<path id="Layer1_2_MEMBER_19_1_STROKES" class="st0" d="M61.4,108.9l-0.2-0.6"/>
<path id="Layer1_2_MEMBER_20_1_STROKES" class="st0" d="M61.7,109.1l0.2-0.1l0.2-0.1"/>
<path id="Layer1_2_MEMBER_21_1_STROKES" class="st0" d="M61.8,107.6l-0.1,0l-0.2,0.2"/>
<path id="Layer1_2_MEMBER_22_1_STROKES" class="st0" d="M61.7,109.1L61.7,109.1L61.7,109.1L61.7,109.1z M61.7,109.1h-0.2v0h0v0h0v0"
	/>
<path id="Layer1_2_MEMBER_23_1_STROKES" class="st0" d="M61.8,107.6L61.8,107.6L61.8,107.6L61.8,107.6z M61.8,107.6L61.8,107.6
	L61.8,107.6l0.1,0v0"/>
<path id="Layer1_2_MEMBER_24_1_STROKES" class="st0" d="M50.3,115.6L50.3,115.6l-0.1,0.1"/>
<path id="Layer1_2_MEMBER_25_1_STROKES" class="st0" d="M49.5,115.8l0-0.2l-0.1-0.4"/>
<path id="Layer1_2_MEMBER_26_1_STROKES" class="st0" d="M49.8,116l0.2-0.1l0.2-0.1"/>
<path id="Layer1_2_MEMBER_27_1_STROKES" class="st0" d="M49.5,115.9L49.5,115.9L49.5,115.9L49.5,115.9L49.5,115.9L49.5,115.9
	L49.5,115.9l0.1,0.1h0.1v0h0l0,0v0h0"/>
<path id="Layer1_2_MEMBER_28_1_STROKES" class="st0" d="M40.5,119.9c-0.1,0.1-0.2,0.1-0.2,0.2l0,0v0.1h0v0.2"/>
<path id="Layer1_2_MEMBER_29_1_STROKES" class="st0" d="M41.3,120.5l-0.2-0.8"/>
<path id="Layer1_2_MEMBER_30_1_STROKES" class="st0" d="M40.4,121l0-0.2l-0.1-0.4"/>
<path id="Layer1_2_MEMBER_31_1_STROKES" class="st0" d="M40.7,121.2l0.2-0.1l0.2-0.1"/>
<path id="Layer1_2_MEMBER_32_1_STROKES" class="st0" d="M40.8,119.7l-0.3,0.2"/>
<path id="Layer1_2_MEMBER_33_1_STROKES" class="st0" d="M40.7,121.2L40.7,121.2L40.7,121.2L40.7,121.2z M40.7,121.2h-0.2"/>
<path id="Layer1_2_MEMBER_34_1_STROKES" class="st0" d="M42.9,119.6c0,0.2,0,0.3-0.2,0.5"/>
<path id="Layer1_2_MEMBER_35_1_STROKES" class="st0" d="M42.1,118.9L42.1,118.9L42.1,118.9L42,119v0l-0.1,0.1v0l0,0v0.1l0,0v0.2"/>
<path id="Layer1_2_MEMBER_36_1_STROKES" class="st0" d="M42.9,119.6l-0.2-0.8"/>
<path id="Layer1_2_MEMBER_37_1_STROKES" class="st0" d="M42.1,120.1l0-0.2l-0.1-0.4"/>
<path id="Layer1_2_MEMBER_38_1_STROKES" class="st0" d="M42.3,120.3l0.1,0l0.3-0.2"/>
<path id="Layer1_2_MEMBER_39_1_STROKES" class="st0" d="M42.5,118.8l-0.3,0.2"/>
<path id="Layer1_2_MEMBER_40_1_STROKES" class="st0" d="M42.2,120.3L42.2,120.3L42.2,120.3L42.2,120.3L42.2,120.3L42.2,120.3
	l-0.1-0.2"/>
<path id="Layer1_2_MEMBER_41_1_STROKES" class="st0" d="M42.5,118.8L42.5,118.8l0.1,0v0h0c0,0,0.1,0,0.1,0.1"/>
<path id="Layer1_2_MEMBER_42_1_STROKES" class="st0" d="M44.6,118.6c0,0.2,0,0.3-0.2,0.5"/>
<path id="Layer1_2_MEMBER_43_1_STROKES" class="st0" d="M43.9,118c-0.1,0-0.2,0.1-0.2,0.2l0,0v0.1l0,0v0.2"/>
<path id="Layer1_2_MEMBER_44_1_STROKES" class="st0" d="M44.6,118.6l0-0.2l-0.2-0.6"/>
<path id="Layer1_2_MEMBER_45_1_STROKES" class="st0" d="M43.8,119.1l-0.2-0.6"/>
<path id="Layer1_2_MEMBER_46_1_STROKES" class="st0" d="M44,119.3l0.4-0.3"/>
<path id="Layer1_2_MEMBER_47_1_STROKES" class="st0" d="M44.1,117.8l-0.3,0.2"/>
<path id="Layer1_2_MEMBER_48_1_STROKES" class="st0" d="M44,119.3L44,119.3L44,119.3L44,119.3z M44,119.3h-0.2v0h0v0"/>
<path id="Layer1_2_MEMBER_49_1_STROKES" class="st0" d="M44.2,117.8L44.2,117.8l0.1,0l0,0h0v0h0v0h0"/>
<path id="Layer1_2_MEMBER_50_1_STROKES" class="st0" d="M46.2,117.7c0,0.2,0,0.3-0.2,0.4"/>
<path id="Layer1_2_MEMBER_51_1_STROKES" class="st0" d="M45.5,117c0,0.1-0.1,0.1-0.1,0.1v0l0,0v0l0,0v0l0,0v0l0,0v0l0,0.2"/>
<path id="Layer1_2_MEMBER_52_1_STROKES" class="st0" d="M46.2,117.7l-0.2-0.8"/>
<path id="Layer1_2_MEMBER_53_1_STROKES" class="st0" d="M45.4,118.2l0-0.2l-0.1-0.4"/>
<path id="Layer1_2_MEMBER_54_1_STROKES" class="st0" d="M45.7,118.4l0.4-0.3"/>
<path id="Layer1_2_MEMBER_55_1_STROKES" class="st0" d="M45.8,116.8l-0.4,0.2"/>
<path id="Layer1_2_MEMBER_56_1_STROKES" class="st0" d="M45.6,118.4L45.6,118.4L45.6,118.4L45.6,118.4z M45.6,118.4L45.6,118.4
	L45.6,118.4l-0.1,0v0c0,0,0,0-0.1,0l0,0v0h0v0l0,0v-0.1"/>
<path id="Layer1_2_MEMBER_57_1_STROKES" class="st0" d="M45.9,116.8L45.9,116.8L45.9,116.8L45.9,116.8"/>
<path id="Layer1_2_MEMBER_58_1_STROKES" class="st0" d="M47.9,116.7c0.1,0.2,0,0.4-0.2,0.5"/>
<path id="Layer1_2_MEMBER_59_1_STROKES" class="st0" d="M47,116.2l-0.1,0.1v0.1l0,0.1"/>
<path id="Layer1_2_MEMBER_60_1_STROKES" class="st0" d="M47.9,116.7l0-0.2l-0.2-0.6"/>
<path id="Layer1_2_MEMBER_61_1_STROKES" class="st0" d="M47.1,117.2l-0.2-0.6"/>
<path id="Layer1_2_MEMBER_62_1_STROKES" class="st0" d="M47.3,117.4l0.1-0.1l0.3-0.2"/>
<path id="Layer1_2_MEMBER_63_1_STROKES" class="st0" d="M47.5,115.9l-0.1,0l-0.1,0.1l-0.1,0.1"/>
<path id="Layer1_2_MEMBER_64_1_STROKES" class="st0" d="M47.3,117.4L47.3,117.4L47.3,117.4l-0.1,0v0h0l0,0v0h0v0l0,0v0"/>
<path id="Layer1_2_MEMBER_65_1_STROKES" class="st0" d="M47.5,115.9h0.2v0"/>
<path id="Layer1_2_MEMBER_66_1_STROKES" class="st0" d="M58.6,102.1c0-0.2,0-0.4-0.1-0.5v0l0,0l0,0l0-0.1l-0.1-0.1
	c-0.1,0-0.1,0-0.2,0c-0.1,0-0.1,0-0.2,0"/>
<path id="Layer1_2_MEMBER_67_1_STROKES" class="st0" d="M37.1,127c0.9-0.5,1.3-1.5,1.3-2.9c0-1.5-0.4-2.9-1.3-4.5
	c-0.9-1.5-1.9-2.7-3.2-3.4c-1.3-0.7-2.3-0.8-3.2-0.3c-0.9,0.5-1.3,1.5-1.3,2.9c0,1.4,0.4,2.9,1.3,4.4c0.9,1.5,2,2.7,3.2,3.4
	C35.2,127.4,36.3,127.5,37.1,127z"/>
<path id="Layer1_2_MEMBER_68_1_STROKES" class="st0" d="M62.9,111.2c0.5-1.5,0.2-3.2-0.7-5.2c-0.9-1.9-2.1-3.2-3.5-4"/>
<path id="Layer1_2_MEMBER_69_1_STROKES" class="st0" d="M57.5,101.6l-0.5-0.2h-0.8l-0.8,0.2l-0.1,0.1"/>
<path id="Layer1_2_MEMBER_70_1_STROKES" class="st0" d="M82.9,124.5H83l0,0h0.1l0.1,0l0,0c0.1,0,0.1,0.1,0.2,0.1
	c0,0.1,0,0.1-0.1,0.2"/>
<path id="Layer1_2_MEMBER_71_1_STROKES" class="st0" d="M72.6,118.1c0.2-0.1,0.4-0.1,0.6,0c0.1,0,0.1,0.1,0.1,0.2
	c0,0.1,0,0.1-0.1,0.1"/>
<path id="Layer1_2_MEMBER_72_1_STROKES" class="st0" d="M29.7,93.4c0.2-0.1,0.4-0.1,0.6,0c0.2,0.1,0.2,0.2,0,0.3"/>
<path id="Layer1_2_MEMBER_73_1_STROKES" class="st0" d="M18.7,87.9c0.2-0.1,0.4-0.1,0.6,0c0.2,0.1,0.2,0.2,0,0.3"/>
<path id="Layer1_2_MEMBER_74_1_STROKES" class="st0" d="M20.4,90.5l1-0.4"/>
<path id="Layer1_2_MEMBER_75_1_STROKES" class="st0" d="M28,94.3l0.9-0.4"/>
<path id="Layer1_2_MEMBER_76_1_STROKES" class="st0" d="M13.5,87L28,94.3"/>
<path id="Layer1_2_MEMBER_77_1_STROKES" class="st0" d="M15.5,86.3l-2,0.6"/>
<path id="Layer1_2_MEMBER_78_1_STROKES" class="st0" d="M2.8,83.6l0.8-0.6l1-0.5l2.2-0.7"/>
<path id="Layer1_2_MEMBER_79_1_STROKES" class="st0" d="M5.8,83.4l-1.4-0.7"/>
<path id="Layer1_2_MEMBER_80_1_STROKES" class="st0" d="M7.2,82.8l-1.3,0.6"/>
<path id="Layer1_2_MEMBER_81_1_STROKES" class="st0" d="M36.3,97.7L7.2,82.8"/>
<path id="Layer1_2_MEMBER_82_1_STROKES" class="st0" d="M34.7,98.5l2.7,1.5"/>
<path id="Layer1_2_MEMBER_83_1_STROKES" class="st0" d="M31.3,103.1l0.3-0.3l0.3-0.3l0.4-0.2"/>
<path id="Layer1_2_MEMBER_84_1_STROKES" class="st0" d="M58.2,118.4l0.2-0.3l0.6-0.5"/>
<path id="Layer1_2_MEMBER_85_1_STROKES" class="st0" d="M64,115.6l-2.5-1.4"/>
<path id="Layer1_2_MEMBER_86_1_STROKES" class="st0" d="M45.6,113.1l-0.2-0.5l0.1-0.5l0.3-0.5l0.5-0.4"/>
<path id="Layer1_2_MEMBER_87_1_STROKES" class="st0" d="M75.9,122.2l1.2-0.4"/>
<path id="Layer1_2_MEMBER_88_1_STROKES" class="st0" d="M70,118.4l1.1-0.5"/>
<path id="Layer1_2_MEMBER_89_1_STROKES" class="st0" d="M83.1,126.9L70,118.4"/>
<path id="Layer1_2_MEMBER_90_1_STROKES" class="st0" d="M85,126.1l-1.9,0.8"/>
<path id="Layer1_2_MEMBER_91_1_STROKES" class="st0" d="M48.3,104.3l-8.8-5"/>
<path id="Layer1_2_MEMBER_92_1_STROKES" class="st0" d="M32.2,102.3l-2.1-1.5"/>
<path id="Layer1_2_MEMBER_93_1_STROKES" class="st0" d="M59,117.5l-2.1-1"/>
<path id="Layer1_2_MEMBER_94_1_STROKES" class="st0" d="M55.6,107.2l-4.2,1.2"/>
<path id="Layer1_2_MEMBER_95_1_STROKES" class="st0" d="M63.8,113.1l-9.7-5.5"/>
<path id="Layer1_2_MEMBER_96_1_STROKES" class="st0" d="M92.3,131.5l-26.1-16.7"/>
<path id="Layer1_2_MEMBER_97_1_STROKES" class="st0" d="M91.1,131.8l1.3-0.2"/>
<path id="Layer1_2_MEMBER_98_1_STROKES" class="st0" d="M92.8,132.9l-1.7-1.1"/>
<path id="Layer1_2_MEMBER_99_1_STROKES" class="st0" d="M22.3,109.6c0,0.1,0,0.2,0.2,0.4c0.1,0.2,0.2,0.3,0.3,0.3"/>
<path id="Layer1_2_MEMBER_100_1_STROKES" class="st0" d="M23.7,108.7c0.3-0.1,0.6-0.1,0.8,0.1"/>
<path id="Layer1_2_MEMBER_101_1_STROKES" class="st0" d="M45,98.3l-1.9,1.4"/>
<path id="Layer1_2_MEMBER_102_1_STROKES" class="st0" d="M32.6,106.7l1.5-0.8"/>
<path id="Layer1_2_MEMBER_103_1_STROKES" class="st0" d="M46,95.1c-0.5-0.1-1-0.1-1.6,0c-0.8,0.1-1.2,0.2-1.5,0.2
	c0.2,0.1,0.3,0.2,0.5,0.3c0.2,0.2,0.4,0.4,0.5,0.6c0.1,0.1,0.4,0.1,0.8,0c0.2-0.1,0.4-0.1,0.7-0.3c0.3-0.1,0.5-0.2,0.6-0.4
	c0.1-0.1,0.1-0.2,0.1-0.3C46.3,95.1,46.2,95.1,46,95.1z M42.1,95.1c0.3,0,0.6,0.1,0.9,0.2"/>
<path id="Layer1_2_MEMBER_104_1_STROKES" class="st0" d="M23.9,110.9l-1.2-0.7"/>
<path id="Layer1_2_MEMBER_105_1_STROKES" class="st0" d="M23.9,110.5c0.3,0.1,0.4,0,0.4-0.3c0-0.3-0.2-0.5-0.4-0.6"/>
<path id="Layer1_2_MEMBER_106_1_STROKES" class="st0" d="M23.4,109.2l0.6,0.3"/>
<path id="Layer1_2_MEMBER_107_1_STROKES" class="st0" d="M23.7,108.7c0.5-0.2,0.5-0.8,0.1-1.6c-0.5-0.8-0.9-1.1-1.4-0.7"/>
<path id="Layer1_2_MEMBER_108_1_STROKES" class="st0" d="M45,98.3c0.5-0.4,0.9-0.8,1.1-1c0.4-0.4,0.6-0.8,0.7-1.2
	c0.1-0.2,0.1-0.4-0.1-0.6c-0.1-0.2-0.3-0.3-0.5-0.4"/>
<path id="Layer1_2_MEMBER_109_1_STROKES" class="st0" d="M25.5,110.5c2.7-1.4,5-2.6,7.1-3.8"/>
<path id="Layer1_2_MEMBER_110_1_STROKES" class="st0" d="M24,110.9L24,110.9l0.3,0l0.1,0c0.1,0,0.5-0.2,1.1-0.5"/>
<path id="Layer1_2_MEMBER_111_1_STROKES" class="st0" d="M30.1,100.8c-0.2,0.1-1.2,0.8-3.1,1.9c-1.2,0.8-2.2,1.5-3,2.1
	c-0.4,0.3-0.7,0.6-0.9,0.8c-0.4,0.4-0.7,0.7-0.8,0.8"/>
<path id="Layer1_2_MEMBER_112_1_STROKES" class="st0" d="M22.4,106.4c-1.4,1.4-2,2.3-1.8,2.8c0.2,0.5,1.2,0.4,3.1-0.4"/>
<path id="Layer1_2_MEMBER_113_1_STROKES" class="st0" d="M49.3,125.3c0.1,0.3,0.2,0.5,0.5,0.6"/>
<path id="Layer1_2_MEMBER_114_1_STROKES" class="st0" d="M50.8,124.3l0.3,0l0.3,0l0.4,0.2"/>
<path id="Layer1_2_MEMBER_115_1_STROKES" class="st0" d="M28.2,102l-25-17.8"/>
<path id="Layer1_2_MEMBER_116_1_STROKES" class="st0" d="M31.3,103.1c-0.2,0.3-0.2,0.6,0,0.9"/>
<path id="Layer1_2_MEMBER_117_1_STROKES" class="st0" d="M31.3,103.9l7.3,5"/>
<path id="Layer1_2_MEMBER_118_1_STROKES" class="st0" d="M41.2,98.9l-2.1,0.4l-1,0.3l-0.8,0.4"/>
<path id="Layer1_2_MEMBER_119_1_STROKES" class="st0" d="M72.1,114l-2.5,1.9"/>
<path id="Layer1_2_MEMBER_120_1_STROKES" class="st0" d="M67.1,114.6l-2.2,0.6l-0.9,0.4"/>
<path id="Layer1_2_MEMBER_121_1_STROKES" class="st0" d="M90,134l-31.5-14.7"/>
<path id="Layer1_2_MEMBER_122_1_STROKES" class="st0" d="M59.6,122.3l2.1-1.2"/>
<path id="Layer1_2_MEMBER_123_1_STROKES" class="st0" d="M69.1,110.7c0.3,0,0.6,0.1,1,0.2c0.3,0,0.8-0.1,1.5-0.3
	c0.6-0.1,1.1-0.1,1.6,0l0.1,0l0.1,0l0,0v0.1c0,0.1,0,0.2-0.2,0.3c-0.2,0.2-0.7,0.4-1.5,0.6c-0.3,0.1-0.6,0.1-0.7-0.1
	c-0.3-0.3-0.4-0.5-0.6-0.6c-0.1-0.1-0.3-0.2-0.4-0.2"/>
<path id="Layer1_2_MEMBER_124_1_STROKES" class="st0" d="M51,126.6l-1.2-0.7"/>
<path id="Layer1_2_MEMBER_125_1_STROKES" class="st0" d="M51,126.1c0.3,0.1,0.4,0,0.4-0.3c0-0.3-0.1-0.5-0.4-0.6"/>
<path id="Layer1_2_MEMBER_126_1_STROKES" class="st0" d="M50.4,124.9l0.5,0.3"/>
<path id="Layer1_2_MEMBER_127_1_STROKES" class="st0" d="M50.8,124.3c0.5-0.2,0.5-0.7,0.1-1.6c-0.5-0.8-0.9-1.1-1.4-0.8"/>
<path id="Layer1_2_MEMBER_128_1_STROKES" class="st0" d="M72.1,114c0.6-0.5,1.1-1,1.5-1.6c0.5-0.8,0.4-1.4-0.3-1.7"/>
<path id="Layer1_2_MEMBER_129_1_STROKES" class="st0" d="M52.5,126.1c2.7-1.4,5.1-2.6,7.1-3.8"/>
<path id="Layer1_2_MEMBER_130_1_STROKES" class="st0" d="M58.3,118.3c-0.1,0.2-0.2,0.4-0.2,0.6c0.1,0.3,0.2,0.4,0.4,0.4"/>
<path id="Layer1_2_MEMBER_131_1_STROKES" class="st0" d="M51,126.6c0.2,0.1,0.4,0,0.8-0.2c0.2-0.1,0.4-0.2,0.8-0.4"/>
<path id="Layer1_2_MEMBER_132_1_STROKES" class="st0" d="M56.9,116.6c-1.3,0.8-2.3,1.4-3,1.9c-1.2,0.8-2.1,1.4-2.9,2
	c-0.9,0.7-1.5,1.3-1.7,1.6"/>
<path id="Layer1_2_MEMBER_133_1_STROKES" class="st0" d="M49.4,122c-0.6,0.6-1,1-1.1,1.3c-0.5,0.6-0.7,1.1-0.6,1.5
	c0,0.1,0.1,0.1,0.2,0.2c0.2,0.1,0.4,0.1,0.7,0.1c0.6-0.1,1.3-0.3,2.2-0.7"/>
<path id="Layer1_2_MEMBER_134_1_STROKES" class="st0" d="M89.9,133.9c0.3,0.2,0.6,0.3,1,0.2"/>
<path id="Layer1_2_MEMBER_135_1_STROKES" class="st0" d="M90.9,134.2l4.1-1.7"/>
<path id="Layer1_2_MEMBER_136_1_STROKES" class="st0" d="M67.1,114.6L95,132.5"/>
<path id="Layer1_2_MEMBER_137_1_STROKES" class="st0" d="M65,112.5l-9.4-5.4"/>
<path id="Layer1_2_MEMBER_138_1_STROKES" class="st0" d="M55.1,117.7l-9.5-4.6"/>
<path id="Layer1_2_MEMBER_139_1_STROKES" class="st0" d="M3.2,84.2c-0.3-0.2-0.5-0.4-0.4-0.6"/>
<path id="Layer1_2_MEMBER_140_1_STROKES" class="st0" d="M37.1,97.4L6.8,81.9"/>
<path id="Layer1_2_MEMBER_141_1_STROKES" class="st0" d="M41.2,98.9l8.6,4.9"/>
<path id="Layer1_2_MEMBER_142_1_STROKES" class="st0" d="M41.3,114.3c0,0.4,0.2,0.8,0.5,1.1c0.3,0.3,0.7,0.5,1.1,0.5
	c0.3,0,0.6-0.1,0.9-0.3"/>
<path id="Layer1_2_MEMBER_143_1_STROKES" class="st0" d="M40.6,112.8l0.3,0.3l0.4,0.8l0.1,0.4"/>
<path id="Layer1_2_MEMBER_144_1_STROKES" class="st0" d="M40.6,112.8c-0.6-0.5-1.3-0.8-2.2-0.8c-0.6,0-1.1,0.1-1.6,0.4"/>
<path id="Layer1_2_MEMBER_145_1_STROKES" class="st0" d="M46.8,113.9l-3,1.7"/>
<path id="Layer1_2_MEMBER_146_1_STROKES" class="st0" d="M56.6,107.8c0.3-0.2,0.6-0.4,0.8-0.7c0.2-0.3,0.3-0.7,0.3-1"/>
<path id="Layer1_2_MEMBER_147_1_STROKES" class="st0" d="M57.7,106c0-0.7-0.3-1.3-0.9-1.6"/>
<path id="Layer1_2_MEMBER_148_1_STROKES" class="st0" d="M55.4,104l1.4,0.4"/>
<path id="Layer1_2_MEMBER_149_1_STROKES" class="st0" d="M53.8,102.6l0.6,0.8"/>
<path id="Layer1_2_MEMBER_150_1_STROKES" class="st0" d="M54,104.6l-4,1.3"/>
<path id="Layer1_2_MEMBER_151_1_STROKES" class="st0" d="M58.1,101.3L50,106"/>
<path id="Layer1_2_MEMBER_152_1_STROKES" class="st0" d="M39.9,107.6l6.5,3.7"/>
<path id="Layer1_2_MEMBER_153_1_STROKES" class="st0" d="M51.4,108.4l-5.7-3.2"/>
<path id="Layer1_2_MEMBER_154_1_STROKES" class="st0" d="M58.6,102l-4.6,2.6"/>
<path id="Layer1_2_MEMBER_155_1_STROKES" class="st0" d="M53.8,102.6l-8,2.6"/>
<path id="Layer1_2_MEMBER_156_1_STROKES" class="st0" d="M37.3,112.1c0.7-0.6,1.1-1.4,1.1-2.4c0-0.9,0.5-1.6,1.5-2.1"/>
<path id="Layer1_2_MEMBER_157_1_STROKES" class="st0" d="M30.8,115.9l6.5-3.8"/>
<path id="Layer1_2_MEMBER_158_1_STROKES" class="st0" d="M53.8,102.6l1.6-0.9"/>
<path id="Layer1_2_MEMBER_159_1_STROKES" class="st0" d="M54,117.3L37.1,127"/>
<path class="st1" d="M50,109.7v1.3h1.7v-1.3H50z"/>
<path class="st1" d="M44.7,104.3v1.3h1.7v-1.3H44.7z"/>
<path class="st2" d="M176.1,128.7l0.2-0.1h0L176.1,128.7 M177.5,130.7l2.7,0.2l-0.3-0.1l-2.8-1.4l-1-0.8l-0.3,0.1L177.5,130.7
	 M220.4,138.8l-0.2,0.2l0.1-0.1L220.4,138.8 M221.6,137.6l-0.3,0.2l-0.5,0.5L221.6,137.6 M226.6,138.3l-1.4-0.8l-0.9-0.3l-1.6-0.1
	l-0.4,0.1l-0.7,0.3l-0.8,0.7l-0.1,0.1l-0.2,0.4l0,0.1l-0.1,0.1l-0.4,0.8l-0.3,1.5l0,1.7l0.8,3.7l1,2.5l1.5,2.2l0.2,0.2l1,1.2
	l1.3,1.1l1.8,0.9l0.8,0.2h0.4h0.8l0.7-0.2l0.7-0.4l0.6-0.5l0.5-0.8l0.5-1.3l0.2-2.2l-0.2-2.4l-1-3.1l-1.6-2.9l-1.2-1.5L226.6,138.3
	 M226.5,142.1l0.8,0.8l0.8,1l0.6,1.1l0.6,1.9l0.1,1.7l-0.2,0.9l-0.4,0.8l-0.6,0.5l-0.3,0.1l-0.4,0.1l-0.8-0.1l-0.5-0.1l-0.4-0.2
	l-0.9-0.7l-0.8-0.9l-1-1.7l-0.5-1.2l-0.2-2.3l0.2-1l0.2-0.4l0.5-0.7l0.3-0.2l0.7-0.2h0.4l0.8,0.2L226.5,142.1 M227.3,142.8l-0.8-0.8
	l-0.9-0.6l-0.8-0.2h-0.4l-0.7,0.2l-0.3,0.2l-0.5,0.7l-0.2,0.4l-0.2,1l0.2,2.3l0.5,1.2l1,1.7l0.8,0.9l0.9,0.7l0.4,0.2l0.5,0.1
	l0.8,0.1l0.4-0.1l0.3-0.1l0.6-0.5l0.4-0.8l0.2-0.9l-0.1-1.7l-0.6-1.9l-0.6-1.1L227.3,142.8 M229.5,137.4l-3.3-2.4l-3.5,1.7l-1.5,1
	l0.3-0.2l0.7-0.3l0.4-0.1l1.6,0.1l0.9,0.3l1.4,0.8l1.7,1.6l1.2,1.5l1.6,2.9l1,3.1l0.2,2.4l-0.2,2.2l-0.5,1.3l-0.5,0.8l-0.6,0.5
	l-0.7,0.4l-0.7,0.2h-0.8l0.9,0.1l1.1-0.2l14.8-6.6l-14-9.9v0L229.5,137.4L229.5,137.4 M261.5,150.8l-0.3-0.2l0,0l-0.5-0.3
	L261.5,150.8 M259.4,148.5l0.3,0.5l-0.4-1v0.1L259.4,148.5 M259.8,149.1L259.8,149.1L259.8,149.1L259.8,149.1 M259.3,148l0-0.5
	l0-0.1v0.1L259.3,148 M259.7,143.8l-0.3,0.9l-0.1,0.7L259.7,143.8 M262.1,139.6l-1,1.6l1.3-1.9L262.1,139.6 M260.8,141.4l-0.1,0.2
	l-0.2,0.5l0.3-0.5L260.8,141.4 M266.1,154L266.1,154l-0.2-0.1L266.1,154 M265.9,153.9l0.1,0L265.9,153.9L265.9,153.9 M262.7,151.6
	L262.7,151.6l0.6,0.4L262.7,151.6 M262.7,151.6L262.7,151.6l-0.1-0.1L262.7,151.6 M262.4,151.4l0.2,0.1l0,0L262.4,151.4
	 M262.4,151.3L262.4,151.3L262.4,151.3L262.4,151.3 M262.4,151.3L262.4,151.3l-1.2-0.8l0,0l0.3,0.2l1.1,0.7L262.4,151.3L262.4,151.3
	 M263.7,152.2L263.7,152.2l0.2,0.2L263.7,152.2 M265.5,153.5l-0.7-0.5l-0.1,0L265.5,153.5 M267.3,154.8l0.4,0.2l-0.7-0.4
	L267.3,154.8 M267.5,135.6L267.5,135.6l-0.3,0.1L267.5,135.6 M270.6,136.1l-0.2-0.2l-0.5-0.2l0.4,0.2L270.6,136.1 M265.6,136.4
	L265.6,136.4l0.7-0.3L265.6,136.4 M262.9,138.6l-0.3,0.3l-0.2,0.3L262.9,138.6 M264.2,137.3l-1.1,1l2.5-2l-0.6,0.4l0,0L264.2,137.3
	 M263,138.5L263,138.5l0.1-0.1L263,138.5 M273.1,137.8l0.3,0.3l1.6,1.1l1.3,0.9l1.1,0.8l0.2,0L273.1,137.8 M272.2,137.2L272.2,137.2
	l0.3,0.1l-0.6-0.4L272.2,137.2 M272.3,137.2l0.5,0.3l-0.3-0.2L272.3,137.2 M269.7,124.9l0.4,0.3L269.7,124.9L269.7,124.9
	 M262.2,124.2l-2.5,0.8l-2.5,1.5l-3.3,2.7l-2.9,3.5l-3.2,5.9l-1.1,4.9l0.2,3.5l0.4,1.5l0.7,1.2l1.3,1.5l1.2,0.6l1.8,0.4l0-0.1
	l-1.4-2l-3.5-6.3l1.6-4.6l2.5-4.9l2.7-4.2l0.2-0.3l3.1-1.9l0,0l8.2-3.3l3.2,2.3l1.1,1.6l0-0.2l-0.9-1.9l-0.9-1l-0.5-0.4l-1.2-0.7
	l-1.3-0.3l-1.5-0.1L262.2,124.2 M242.2,92.6h0.7l-0.9,0L242.2,92.6 M256.8,100.4l3.4-2.1h0l3.7-1.7h0.1l4.3-1.5l3.2,2.2l1.1,1.6
	v-0.2l-0.9-2l-0.5-0.5l-1-0.9l-0.6-0.3l-0.6-0.3l-1.3-0.3l-1.5-0.1l-1.6,0.2l-1.7,0.6l-2.5,1.3l-4.1,3.3l-3.5,4.4l-2.1,4l-1,3
	l-0.6,2.9l0,2.6l0.3,1.6l1.3,2.5l1,0.9l1.2,0.6l1.4,0.3h0.3l-2.1-3.2l-2.7-5.2l1.6-4.5l2.4-4.9L256.8,100.4 M244.4,92.4l-1.1,0.1
	h-0.4h-0.7l-0.2,0l-0.8-0.1l-1.7-0.9l-1.4-1.3l-2.2,1.9l-2.2,2.5l-1.2,1.8l-1.2,2.8l-0.2,0.9v0.1l0,0.2l-0.4,0.5l-0.2,0l-6.7-0.1
	l0.7,1l0.6,0.6l9.5,6.7l17.6,12.4l-1-0.9l-1.3-2.5l-0.3-1.6l0-2.6l0.6-2.9l1-3l2.1-4l3.5-4.4l4.1-3.3l2.5-1.3l1.7-0.6l1.6-0.2
	l1.5,0.1l1.3,0.3l0.6,0.3l-12.2-8.7L244.4,92.4 M236.5,74.4l0.3-0.1l16.8-7.9l0.1-0.1l4.1-1.9l0.7-8l-0.5,1.9l-0.8,1.8l-1.1,1.7
	l-2.3,2.5l-2.9,2.2l-2.3,1.2l-5.2,2l-8.9,1.7l-0.5,5.6l0.5-0.8l0-0.2l0.4-0.5l0.8-0.8L236.5,74.4 M237.7,74.6h-0.4l-0.8,0.1
	l-0.7,0.3l-0.6,0.5l-0.3,0.3l-0.2,0.4l-0.5,0.8l0.5-5.6l-0.9-0.7l-0.8,8.8l0.2,2.5l0.4,1.5v0l0.2-1.7l0.1,0.6l0.8,2.5l1.1,2.4
	l1.9,2.6l0.3,0.3l1.4,1.3l1.7,0.9l0.8,0.1l0.9,0l0.8-0.1l0.7-0.3l0.3-0.2l0.6-0.5l0.7-1.2l0.4-1.4l0.1-2.3l-0.2-1.8l-0.5-1.9l-1-2.4
	l-2.7-3.6l-0.8-0.8l-0.9-0.6l-1.4-0.6L237.7,74.6 M236.8,80.2l0.1-0.4l0.5-0.7l0.7-0.4l0.4-0.1l0.8,0.1l0.9,0.4l0.9,0.7l1.2,1.5
	l0.8,1.7l0.5,2.4l-0.1,1.1l-0.3,0.9l-0.6,0.6l-0.3,0.2l-0.7,0.1l-0.9,0l-0.4-0.1l-1.3-0.9l-0.8-0.9l-0.9-1.7l-0.5-1.2l-0.2-1.2v-1.2
	L236.8,80.2 M236.9,79.8l-0.1,0.4l-0.2,1v1.2l0.2,1.2l0.5,1.2l0.9,1.7l0.8,0.9l1.3,0.9l0.4,0.1l0.9,0l0.7-0.1l0.3-0.2l0.6-0.6
	l0.3-0.9l0.1-1.1l-0.5-2.4l-0.8-1.7l-1.2-1.5l-0.9-0.7l-0.9-0.4l-0.8-0.1l-0.4,0.1l-0.7,0.4L236.9,79.8 M231.3,79.5v0.8l0.1,0.6
	l0.3,0.7l0.4,0.7l0.6,0.7l0.7,0.5l-0.4-1.5l-0.2-2.5l0.8-8.8l-1.7,0.8L231.3,79.5 M244.9,55.8l0.3,0.3l0.6,0.2l0.3,0l0.6-0.1
	l0.2-0.1l0.1-0.2l0-0.2l-0.1-0.5l-0.1-0.2v0l-0.9-0.3h-0.3l-0.8,0.3l-0.1,0.4l0,0.1L244.9,55.8 M250.1,46.4l0.1-0.4v-2.4L250.1,46.4
	 M281,65l-1.2-2.4l-1.6-2l-1.7-1.6l-1.8-0.9l-0.6-0.2l-1.2-0.1l-0.6,0.1l-0.5,0.1l-13.9,6.5l-4.1,1.9l-0.1,0.1l-16.8,7.9l-0.3,0.1
	l-0.6,0.4l-0.8,0.8l-0.4,0.5l0,0.2l0.2-0.4l0.3-0.3l0.6-0.5l0.7-0.3l0.8-0.1h0.4l1.3,0.3l1.4,0.6l0.9,0.6l0.8,0.8l2.7,3.6l1,2.4
	l0.5,1.9l0.2,1.8l-0.1,2.3l-0.4,1.4l-0.7,1.2l-0.6,0.5l-0.3,0.2l-0.7,0.3l-0.8,0.1h0.4l1.1-0.1l13.2-6.1l22.5-10.5l0.9-0.7l0.7-0.9
	l0.6-1.9l0.1-1.5l-0.4-3.3L281,65 M221,117.4l-1.2,1.2l-1.5,1.9l-0.7,1.8l-0.1,1l0.1,1.7v0l0.3,0.9v0l0.3,0.9l1.1,1.9l3.1,3.3
	c1.2,0.8,2.5,1.7,3.7,2.6v0l0.2,0.1l3.3,2.4h0.1l1.4,0.9v0l14,9.9l4.2,3l-1.3-1.5l-0.7-1.2l-0.4-1.5l-0.2-3.5l1.1-4.9l3.2-5.9
	l2.9-3.5l3.3-2.7l2.5-1.5l2.5-0.8l1.6-0.2l1.5,0.1l1.3,0.3l1.2,0.7l-3.6-2.5l-1.7,0.7h0l-4.3,1.5l-3.2-2.2h-0.1h-0.3l-1.4-0.3
	l-1.2-0.6l-17.6-12.4l-4,2l-7.6,4.6l-1.7,1.3L221,117.4 M191.6,113.2l-2.4-4.4l-3.4-2.4l3.7,5.4l2.4,4.6l0.1,4.1l-0.4,4.1v0.1
	l-0.8,4.5l-3.6,1.6l-1.7,0.1l1.5,0.3l1.4,0l1.8-0.8l0.1,0l1.5-1.3l1.1-2l0.7-2.5l0.1-1.9l-0.1-3l-0.4-2.1L191.6,113.2 M186.9,99.4
	l-0.4,0.3l0.3-0.1L186.9,99.4 M223.6,100.9l-2.3-0.1l-2.7-0.5l2.3,1.2l1.4,1l1.1,1.1l0.9,1.5l0.6,1.6l0.1,1.1v0.9l-0.1,0.8l-0.7,1.9
	l-0.5,0.8v0.1l-1.4,1.6l-2.3,2l-19.4,9.2l-1,12.9l0,1.1l0.3,1.4l0.8,1.9l1.3,1.8l1.6,1.6l4.9,3l4.1,1.4h0.1l5.3,0.9l4.8,0l-0.2-0.2
	l-1.5-2.2l-1-2.5l-0.8-3.7l0-1.7l0.3-1.5l0.4-0.8l0.2-0.2l0.2-0.4l0.1-0.1l0.5-0.5l1.5-1l3.5-1.7l-0.2-0.1v0
	c-1.3-0.9-2.5-1.7-3.7-2.6l-3.1-3.3l-1.1-1.9l-0.3-0.9v0l-0.3-0.9v0l-0.1-1.7l0.1-1l0.7-1.8l1.5-1.9l1.2-1.2l0.1-0.2l1.7-1.3
	l7.6-4.6l4-2l-9.5-6.7l-0.6-0.6L223.6,100.9 M218.6,100.3l-3.4-0.6l-18.6,8.7l-2.9,1.4l-1.7,0.9l-2.7-1.9l2.4,4.4l1.3,4.3l0.4,2.1
	l0.1,3l-0.1,1.9l-0.7,2.5l-1.1,2l-1.5,1.3l10.4-4.8l19.4-9.2l2.3-2l1.4-1.6v-0.1l0.5-0.8l0.7-1.9l0.1-0.8v-0.9l-0.1-1.1l-0.6-1.6
	l-0.9-1.5l-1.1-1.1l-1.4-1L218.6,100.3 M167.1,113.8l0.5-0.2l-0.3,0L167.1,113.8 M169.9,107.5l0.2-0.2l-0.5,0.3L169.9,107.5
	 M170.4,107.2l-0.4,0.1l-0.2,0.2l-0.3,0.1l-0.1,0.2l-0.3,1.9l0.2-0.8l0.6-1.3L170.4,107.2 M184.7,100.5l-0.8,0.4l0.3,0L184.7,100.5
	 M180.4,102.6l-1.2,0.6l-0.4,0.2h2.6L180.4,102.6 M194,85.7l-0.1-0.1h-0.1l-0.1,0l-0.2,0.1l-0.1,0.2l-0.1,0.3v0l-0.1,0.2v0.2
	l0.1,0.1h0.3l0.6-0.6v0l0-0.2v-0.1L194,85.7 M189.9,107.5L189.9,107.5l-0.2,0.1h0.1L189.9,107.5 M190.3,100.1
	C190.4,100.1,190.4,100.1,190.3,100.1L190.3,100.1L190.3,100.1 M192.2,104.8l-0.2,0l-0.2,0l-0.1,0.1l-0.3,0.4v0.2h0l0,0.2v0.2
	l0.1,0.1l0.2,0l0.5-0.3l0.2-0.4l0,0l0-0.2V105h0L192.2,104.8L192.2,104.8 M176.4,74.6L176.4,74.6l0,0.1v0.1l0.1,0.1h0.1l0.1,0
	l0.4-0.3l0.2-0.3h0l0-0.2v-0.2l0,0l0-0.1l-0.3-0.1l-0.2,0l-0.4,0.5l0,0.2v0L176.4,74.6 M175,63.4l0,1l0.9-0.4L175,63.4 M223.1,71
	l-4.6-0.7L216,98.5l-0.1,0.3l-0.4,0.7l-0.3,0.1l3.4,0.6l2.7,0.5l2.3,0.1l6.7,0.1l0.2,0l0.4-0.5l0-0.2v-0.1l0.2-0.9l1.2-2.8l1.2-1.8
	l2.2-2.5l2.2-1.9l-0.3-0.3l-1.9-2.6l-1.1-2.4l-0.8-2.5l-0.1-0.6l-0.2,1.7v0l-0.7-0.5l-0.6-0.7l-0.4-0.7l-0.3-0.7l-0.1-0.6v-0.8
	l0.7-8.1l-0.7,0L223.1,71 M198.2,79.7l-0.1,1l0.7,1.5l-2.3,26.1l18.6-8.7l0.3-0.1l0.4-0.7l0.1-0.3l2.5-28.2L198.2,79.7 M200.5,53.4
	v0.2l0.7,1.8l1.6,2.6l1.5,1.6l2.8,2.3l4.7,2.6l6.9,2.4h0l1.4,0.3l6.1,0.9h6.2l4.4-0.6l5.4-1.4l4.6-2.2l2.7-2l1.5-1.6l1.1-1.6
	l0.8-1.7l0.4-1.7l0.1-0.9l0-0.1l-4.1,6.7l-1.1,0.6h0l-2.3,1.1l0,0l-1.3,0.5l-10.9,1.3L221.3,65l-2.2-0.4h0l-1.5-0.4h-0.1l-2.5-0.8
	l-8.5-5.3L200.5,53.4 M194.8,50.3l-0.4,4.1l0.8-0.4l-0.3-1.8L194.8,50.3 M204.9,40.8l-0.1,1.2l0.1,0.5l0.3-2.8L204.9,40.8
	 M200.2,44.2l-0.2,0.2l0,0.2v0.2l0.1,0.1l0.1,0.1v0.1l0.9,0.1l0.3-0.1h0.3L202,45l0.2-0.2l0.1-0.1l0-0.2v-0.2l-0.1-0.1l-0.4-0.3
	l-0.3-0.1l-0.6-0.1l-0.3,0.1l-0.2,0.1v0L200.2,44.2 M198.7,42.4l-0.3,0.3l-1.7,2.1l-1,1.8l-0.7,1.8l-0.2,1.9l0,1.9l0.3,1.8l-0.8,0.4
	L175,63.4l0.9,0.6l22.3,15.7l20.3-9.4l4.6,0.7l8.2,0.5l0.7,0l1.7-0.8l0.9,0.7l8.9-1.7l5.2-2l2.3-1.2l2.9-2.2l2.3-2.5l1.1-1.7
	l0.8-1.8l0.5-1.9l0.1-1.9l0-1l-0.4-1.9l-1.7-3.7l0,0.7l-3.2,6l0,0.1l-0.1,0.9l-0.4,1.7l-0.8,1.7l-1.1,1.6l-1.5,1.6l-2.7,2l-4.6,2.2
	l-5.4,1.4l-4.4,0.6h-6.2l-6.1-0.9l-1.4-0.3h0l-6.9-2.4l-4.7-2.6l-2.8-2.3l-1.5-1.6l-1.6-2.6l-0.7-1.8v-0.2l-1.3-1l-0.4-0.7l-0.7-1.8
	h0l-0.2-0.8v-0.1l0-0.3l0.5-5v-0.1l-0.1-0.3L198.7,42.4 M196.3,63.2l2.4-0.3l2.4,0.5l1,0.4l0.8,0.6l0.8,1l0.1,0.8v0.3l-0.4,0.7
	l-0.2,0.3l-0.8,0.5l-1,0.4l-1.8,0.3H199l-1.2-0.2l-1.7-0.5l-1.1-0.6l-0.6-0.6l-0.4-0.7l-0.1-0.4l0-0.7l0.1-0.4l0.5-0.6l0.3-0.3
	L196.3,63.2 M199.6,65.4l-1.6-0.1l-1.5,0.3l-0.4,0.2l-0.7,0.5l-0.3,0.5l0,0.4v0.3l1.1,0.6l1.7,0.5l1.2,0.2h0.6l1.8-0.3l1-0.4l0-0.7
	l-0.1-0.3l-0.5-0.6l-0.8-0.5L199.6,65.4 M198.7,62.9l-2.4,0.3l-1.4,0.7l-0.3,0.3l-0.5,0.6l-0.1,0.4l0,0.7l0.1,0.4l0.4,0.7l0.6,0.6
	v-0.3l0-0.4l0.3-0.5l0.7-0.5l0.4-0.2l1.5-0.3l1.6,0.1l1.4,0.5l0.8,0.5l0.5,0.6l0.1,0.3l0,0.7l0.8-0.5l0.2-0.3l0.4-0.7v-0.3l-0.1-0.8
	l-0.8-1l-0.8-0.6l-1-0.4L198.7,62.9 M201.3,37.5l-0.3,0.6v0L201.3,37.5 M201.8,36.5l-0.2,0.4l0.1-0.1L201.8,36.5 M242.2,48.8
	L242.2,48.8l-0.9,1.5l0,0.3l0.5-0.2l0.8-1.1l0.3-0.8L242.2,48.8 M210.6,24.7l0-1.1l-0.1,0.7L210.6,24.7 M240.8,28l-0.5-0.1h-0.6
	l-0.4,0.2l-0.1,0.2v0.3l0.1,0.1l0.2,0.1L240,29h0.6l0.4-0.2l0.1-0.1l0-0.2l-0.1-0.3L240.8,28 M240.2,12.1l0.6,0.5l-0.1-0.1
	L240.2,12.1 M220.5,16.4l-0.8-0.1l-0.8,0.1l-0.3,0.1l-0.2,0.1l-0.1,0.1V17l0.3,0.3l1,0.1l1.1-0.1l0.3-0.3v-0.2l-0.1-0.1L220.5,16.4
	 M235.7,20.8l0,0.2l0.1,0.2l0.2,0.2l0.6,0.3l0.7,0.2l0.3,0l0.4-0.2l0.1-0.1v-0.2l-0.1-0.2l-0.5-0.4l-0.7-0.3H236L235.7,20.8
	 M225.7,18.3L225.7,18.3L225.7,18.3L225.7,18.3 M228.2,19.3l-0.2,0l-2.1-0.8l0.5,0.4L227,19v0l2.1,0.5h0L228.2,19.3 M232,17.8
	l-0.1-0.4l-0.4-0.4l-0.3-0.1H231l-0.3,0.1l-0.2,0.1l-0.2,0.3l-0.1,0.6l0,0.3l0.3,0.6l0.2,0.2l0.3,0.1l0.3,0l0.3,0l0.2-0.2l0.3-0.6
	v-0.4L232,17.8 M233.3,9.8l-0.3,0l-0.3,0.1l-0.5,0.3l-0.1,0.4l0.1,0.2l0,0.2l0.5,0.3h0.6l0.6-0.2l0.3-0.5l0-0.2l0-0.2l-0.1-0.2
	l-0.4-0.3L233.3,9.8z"/>
<path class="st3" d="M254.3,152l1.2,2.5l4.3-1.5l-1.5,0.2h-1.4l-1.2-0.3l-0.6-0.3L254.3,152 M259.8,149.1L259.8,149.1l0.2,0.3
	L259.8,149.1 M261,141.2l-0.2,0.3l0,0L261,141.2 M252.7,149.3l-2.1-3.1l-3.3-2.3l3.5,6.3l1.4,2l0,0.1l3.2,2.2l-1.2-2.5L252.7,149.3
	 M252.7,149.3l-0.3-2.6l0.3-2.6l0.7-2.3l-0.2,0.4l-2.5,4L252.7,149.3 M257.4,132.4l-3.2-2.2l-2.7,4.2l-2.5,4.9l-1.6,4.6l3.3,2.3
	l2.5-4l0.2-0.4l2.2-4.4L257.4,132.4 M259.4,132.7l2.3-1.8l-4.2,1.5l-1.8,4.9l2.4-3.1L259.4,132.7 M264.7,152.9L264.7,152.9l0.1,0.1
	L264.7,152.9 M264.7,152.9l-0.8-0.5l-0.2-0.1L264.7,152.9L264.7,152.9 M263.7,152.3L263.7,152.3l-0.4-0.3L263.7,152.3 M270.6,148
	l-0.9,2l-0.4,1.9l0,0.6l0.1,1.1l0.3,0.9l0.6,0.7l0.4,0.3l0.8,0.3h1l1.6-0.5l1.7-1l1-1l1.8-2.4l0.9-2l0.5-1.9l0-1.1l-0.1-0.5
	l-0.4-0.9l-0.2-0.4l-0.7-0.5l-0.4-0.2l-0.9-0.2l-1,0.1l-1.1,0.4l-1.7,1l-2.5,2.7L270.6,148 M270.2,150.3l0.8-2l1.8-2.4l1.1-0.9
	l0.9-0.5l0.2-0.1l1.1-0.4h1l0.8,0.3l0.4,0.2l0.5,0.8l0.3,0.9l0,1.2l-0.2,1.3l-0.5,1.4l-1.2,1.9l-0.9,1.2l-1,0.8l-0.1,0.1l-1.1,0.6
	l-1.1,0.4l-0.5,0l-0.9-0.1l-0.4-0.2l-0.7-0.6l-0.4-0.8l-0.1-0.6l0-1.2l0-0.2L270.2,150.3 M278.1,144.2l-0.8-0.3h-1l-1.1,0.4
	l-0.2,0.1v0.7l-0.1,0.6l-0.2,0.5v0l-0.1,0.5v0.1l-1.1,2l-0.1,0.1l-0.3,0.4l-0.8,0.8l-0.1,0.2l-0.8,0.5l-1.1,0.5l0,0.2l0,1.2l0.1,0.6
	l0.4,0.8l0.7,0.6l0.4,0.2l0.9,0.1l0.5,0l1.1-0.4l1.1-0.6l0.1-0.1l1-0.8l0.9-1.2l1.2-1.9l0.5-1.4l0.2-1.3l0-1.2l-0.3-0.9l-0.5-0.8
	L278.1,144.2 M270.4,144.8l1.2-1.2l2-1.5h0l1.2-0.6h0l0.5-0.2h0.1l0.5-0.1h0.1l0.5,0h0.1l0.9,0.1l0.2,0.1l0.3,0.1l0.1,0.1l0.2,0.1
	l-1-0.8l-0.2,0l-0.9-0.4l-0.5-0.1h-1.1l-0.5,0.1h-0.1l-0.6,0.1l0,0.1l-1.2,0.5l0,0.1l-0.7,0.4l-1.1,0.9l-1.7,1.8l-1.8,2.9l-0.6,1.3
	l-0.4,1.6v0l-0.1,1.4l0,0.7l0,0.1l0,0.5l0,0.1l0.1,0.4l0.1,0.1l0.1,0.4l0.6,0.8l0.7,0.4l1.1,0.8l-0.7-0.7l-0.5-0.8l-0.1-0.6v-0.1
	l-0.1-0.5v-0.7l0.1-1.4V151l0.1-0.7v-0.1l0.9-2.4l0.4-0.8L270.4,144.8 M271.6,143.6l-1.2,1.2l-1.5,2.2l-0.4,0.8l-0.9,2.4v0.1
	l-0.1,0.7v0.1l-0.1,1.4v0.7l0.1,0.5v0.1l0.1,0.6l0.5,0.8l0.7,0.7l0.8,0.4l0.5,0.1h1.1l1.1-0.3h0.1l1.6-0.8l-1.6,0.5h-1l-0.8-0.3
	l-0.4-0.3l-0.6-0.7l-0.3-0.9l-0.1-1.1l0-0.6l0.4-1.9l0.9-2l0.4-0.7l2.5-2.7l1.7-1l1.1-0.4l1-0.1l0.9,0.2l0.4,0.2l0.7,0.5l0.2,0.4
	l0.4,0.9l0.1,0.5l0.1-0.7l0-1.2l-0.2-0.7l-0.4-0.8l-0.8-0.7l-0.2-0.1l-0.1-0.1l-0.3-0.1l-0.2-0.1l-0.9-0.1h-0.1l-0.5,0h-0.1
	l-0.5,0.1h-0.1l-0.5,0.2h0l-1.2,0.6h0L271.6,143.6 M271.3,140.4L271.3,140.4l-0.6,0.4l-0.1,0l-0.7,0.5l-2.5,2.5l-1.1,1.8l-0.7,1.5
	l-0.4,1.4l0,0l-0.1,0.7l0,0l-0.1,1.4l0,0v0.7l0.1,0.5v0.1l0.1,0.5l0.5,0.9l0.3,0.3l0.2,0.1l0.2,0.2l0.7,0.5l-0.6-0.8l-0.1-0.4
	l-0.1-0.1l-0.1-0.4l0-0.1l0-0.5l0-0.1l0-0.7l0.1-1.4v0l0.4-1.6l0.6-1.3l1.8-2.9l1.7-1.8l1.1-0.9l0.7-0.4l0-0.1l1.2-0.5l0-0.1
	l0.6-0.1h0.1l0.5-0.1h1.1l0.5,0.1l0.9,0.4l-1.1-0.8l-0.4-0.2l-1-0.3h-0.4l-0.1,0l-1.1,0.1h0L271.3,140.4 M266.5,137.1L266.5,137.1
	l-2.5,1.9l-1.6,2l-1.8,3.6l-0.3,1.4v0l-0.1,1.4l0,0.7l0.3,1.2l0.4,0.8l0.3,0.4l1.2,0.8l-0.2-0.2l-0.6-0.9l-0.2-0.7l-0.1-1.2l0.1-1.4
	l1.1-3.2l0.7-1.2l2-2.6l2.5-1.9l0,0l1.2-0.6h0.1l0.5-0.1h0.1l0.5-0.1l0.1,0l0.5,0l0.1,0h0.4l0.5,0.1l0.4,0.2l-0.3-0.2l-0.3-0.2
	l-0.3-0.1l-0.1-0.1l-0.3-0.1l-1.1-0.2l-0.8,0l-0.5,0.1h-0.1l-0.6,0.2h0L266.5,137.1 M262.9,138.6L262.9,138.6l0.2-0.2l1.1-1l0.7-0.5
	l0,0l0.6-0.4l0.7-0.3c-0.8-0.5-1.9-0.5-3.2,0.1c-1.3,0.6-2.4,1.6-3.4,3.1c-1,1.4-1.6,2.9-1.7,4.3c-0.1,1.4,0.4,2.4,1.3,3v-0.6
	l0.1-0.7v0l0.1-0.7l0.3-0.9l0.7-1.6l0.2-0.5l0.1-0.2l0.2-0.3l1-1.6l0.3-0.3l0.2-0.3L262.9,138.6 M266.9,135.8l-0.7,0.3l-0.6,0.3
	h-0.1l-2.5,2l-0.2,0.2l-0.6,0.7l-1.3,1.9l-0.2,0.2l0,0l-0.1,0.3l-0.3,0.5l-0.7,1.6l-0.4,1.6v0l-0.1,0.7v0.6v0.8l0,0.1l0,0.5l0.4,1
	l0,0.1l0.2,0.3l0.3,0.5l0.3,0.2l0.1,0.1l0.5,0.3l-0.3-0.4l-0.4-0.8l-0.3-1.2l0-0.7l0.1-1.4v0l0.3-1.4l1.8-3.6l1.6-2l2.4-1.9h0
	l1.3-0.6h0l0.6-0.2h0.1l0.5-0.1l0.8,0l1.1,0.2l0.3,0.1l0.1,0.1l0.3,0.1l-0.9-0.7l-0.3-0.2l-0.4-0.2l-0.1,0h0l-0.7-0.1l-0.2-0.1h-0.1
	l-0.5,0.1h-0.1l-0.5,0.1h-0.1l-0.3,0.1L266.9,135.8L266.9,135.8 M267.8,128.9l1.3,0.1l1.1,0.5l0.9,0.6l-1-1.5L269,127l-3.3,2.2
	l0.7-0.2L267.8,128.9 M272.5,138.7l-0.5,0l0,0l-0.6,0.2l-1.3,0.6h0l-0.7,0.4l-1.7,1.5l-1.6,1.9l-0.2,0.4l-0.2,0.3l-1.4,3l-0.2,0.7
	v0.1l-0.1,0.7l0,0l-0.1,2.1l0.1,0.5v0.1l0.2,0.6l0.4,0.8l0.3,0.3l0.1,0.1l0.7,0.5l0.4,0.3l-0.3-0.3l-0.5-0.9l-0.1-0.5V152l-0.1-0.5
	v-0.7l0,0l0.1-1.4l0,0l0.1-0.7l0,0l0.4-1.4l0.7-1.5l1.1-1.8l2.5-2.5l0.7-0.5l0.1,0l0.6-0.4v0l1.9-0.8h0l1.1-0.1l0.1,0h0.4l1,0.3
	l0.4,0.2l-1.3-0.9l-0.4-0.2l-0.5-0.2l-0.5,0H272.5 M272,138.7l0.5,0h1.1l0.5,0l0.5,0.2l0.4,0.2l-1.6-1.1l-0.5-0.2l-0.9-0.1h-0.1
	l-0.5,0.1h-0.6l-0.1,0l-0.6,0.2h0l-1.3,0.6l-1.4,0.9l-1.9,1.9l-1.6,2.2l-1.1,2.5l-0.3,1.4v0l-0.1,1.4l0.1,1.3l0.3,1l0.8,0.9l0.2,0.2
	l0.8,0.5l-0.3-0.3l-0.4-0.8l-0.2-0.6v-0.1l-0.1-0.5l0.1-2.1l0,0l0.1-0.7v-0.1l0.2-0.7l1.4-3l0.2-0.3l0.2-0.4l1.6-1.9l1.7-1.5
	l0.7-0.4h0l1.3-0.6L272,138.7L272,138.7 M273.1,137.8l-0.3-0.2l-0.5-0.3l-0.1,0l-0.4-0.2l-0.5-0.1h-0.4l-0.1,0l-0.5,0l-0.1,0
	l-0.5,0.1h-0.1l-0.5,0.1h-0.1l-1.2,0.6l0,0l-2.5,1.9l-2,2.6l-0.7,1.2l-1.1,3.2l-0.1,1.4l0.1,1.2l0.2,0.7l0.6,0.9l0.2,0.2l0,0.1
	l0.1,0.1l0,0l0.1,0l0.6,0.4l0.4,0.2l-0.8-0.9l-0.3-1l-0.1-1.3l0.1-1.4v0l0.3-1.4l1.1-2.5l1.6-2.2l1.9-1.9l1.4-0.9l1.3-0.6h0l0.6-0.2
	l0.1,0h0.6l0.5-0.1h0.1l0.9,0.1l0.5,0.2L273.1,137.8 M272.9,133.8l0.1,1.6l-0.2,2.2l0.3,0.2l0.8-2.5l-1.2-2.5L272.9,133.8
	 M273,135.4l-0.1-1.6l-0.2-1l-1.6-2.7l-0.9-0.6l-1.1-0.5l-1.3-0.1l-1.4,0.1l-0.7,0.2h-0.1l-3.7,1.7l0,0.1h-0.1l-2.3,1.8l-1.5,1.5
	l-2.4,3.1l-2.2,4.4l-0.7,2.3l-0.3,2.6l0.3,2.6l1.6,2.7l0.8,0.6l0.6,0.3l1.2,0.3h1.4l1.5-0.2l2.9-1.4l-0.1-0.1l-1.1-0.7l-0.8-0.6
	l-0.1-0.1l-0.3-0.2l-0.3-0.5l-0.2-0.2l0-0.1l0,0v0l-0.3-0.5l-0.1-0.4V148l-0.1-0.5v-0.1v-0.8c-0.9-0.5-1.4-1.5-1.3-3
	c0.1-1.4,0.7-2.9,1.7-4.3c1-1.4,2.1-2.4,3.4-3.1c1.3-0.6,2.4-0.7,3.2-0.1l0.7-0.3h0l0.2,0l0.3-0.1h0h0.1l0.5-0.1h0.1l0.5-0.1h0.1
	l0.2,0.1l0.7,0.1h0l0.1,0l0.5,0.2l0.2,0.2l0.9,0.7l0.3,0.2l0.6,0.4l0.3,0.2L273,135.4 M269,127l-3.2-2.3l-8.2,3.3l0,0l-3.1,1.9
	l-0.2,0.3l3.2,2.2l4.2-1.5h0.1l0-0.1l3.7-1.7h0.1L269,127 M269.3,107.5L269.3,107.5l0.7-0.3c-0.9-0.6-2-0.5-3.3,0.1
	c-1.3,0.6-2.4,1.6-3.4,3.1c-1,1.4-1.6,2.9-1.6,4.3c-0.1,1.4,0.2,2.5,1.1,3.1l0.1,0l0.1-1.4l0.6-2.2l0.1-0.2l0.2-0.6l1-1.8l0.8-1
	l1.7-1.8l0.5-0.4l0.1-0.1l0.5-0.4h0.1L269.3,107.5 M276.1,114.9l-1.1,0.9l-1.7,2.5l-0.9,2l-0.3,1.3l-0.1,1.2l0.1,1l0.4,0.9l0.2,0.4
	l0.7,0.5l0.8,0.4l1.5-0.1l1.1-0.4l1.1-0.7l2.1-1.9l1.3-1.8l0.9-2l0.4-2.5l-0.1-1.1l-0.6-1.3l-0.7-0.6l-0.8-0.3l-0.5,0l-1,0.1
	l-0.6,0.2L276.1,114.9 M277.5,114.7l0.8-0.4l1-0.2l0.9,0.1l0.4,0.1l0.4,0.2l0.6,0.8l0.2,1l0,1.1l-0.3,1.3l-0.5,1.3l-1.6,2.5
	l-1.6,1.4l-0.6,0.4l-1.1,0.5l-1,0.2l-0.9-0.1l-0.8-0.4l-0.3-0.3l-0.2-0.4l-0.4-1.5l0.1-0.9l0.2-1l1.2-2.6l0.9-1.2l1.6-1.5
	L277.5,114.7 M278.3,114.3l-0.8,0.4v0.7l-0.2,1v0l-0.4,1.1l-0.9,1.6l-0.1,0l-0.3,0.4l-2,1.6l-0.9,0.3l-0.1,0.9l0.4,1.5l0.2,0.4
	l0.3,0.3l0.8,0.4l0.9,0.1l1-0.2l1.1-0.5l0.6-0.4l1.6-1.4l1.6-2.5l0.5-1.3l0.3-1.3l0-1.1l-0.2-1l-0.6-0.8l-0.4-0.2l-0.4-0.1l-0.9-0.1
	L278.3,114.3 M276.3,112.3L276.3,112.3l-1.3,0.8l-1.2,1.1l-1.9,2.3l-0.5,0.8l-1.1,2.5l-0.3,1.5l-0.1,1.4l0.1,1.2l0.2,0.7l0.4,0.8
	l0.3,0.4l0.8,0.5l0.4,0.2l0.6,0.1h1l0.1-0.1l0.5,0l0.6-0.2h0l1.7-0.7l-1.1,0.4l-1.5,0.1l-0.8-0.4l-0.7-0.5l-0.2-0.4l-0.4-0.9l-0.1-1
	l0.1-1.2l0.3-1.3l0.9-2l1.7-2.5l1.1-0.9l2.2-1.3l0.6-0.2l1-0.1l0.5,0l0.8,0.3l0.7,0.6l0.6,1.3l0.1,1.1l0-2l-0.3-1.2l-0.2-0.5
	l-0.7-0.8l-0.6-0.4l-1-0.3h-0.5l-0.4,0.1h-0.1l-0.5,0h-0.1l-0.6,0.2h0L276.3,112.3 M276.2,112.4L276.2,112.4l1.3-0.6h0l0.6-0.2h0.1
	l0.5,0h0.1l0.4-0.1h0.5l1,0.3l-0.8-0.6l-0.9-0.4l-0.9-0.1H278l-0.4,0h-0.1l-0.5,0.1h0l-0.6,0.2l0,0l-1.3,0.6l-0.6,0.4l-1.8,1.5
	l-0.6,0.6l-1.3,1.7l-0.4,0.8l-0.2,0.3l-1,2.2l-0.3,1.5h0l-0.1,2.1l0.1,0.5l0,0.1l0.1,0.5l0.5,0.9l0.4,0.4l0.4,0.3l0.9,0.6l-0.3-0.4
	l-0.4-0.8L270,124l-0.1-1.2l0.1-1.4l0.3-1.5l1.1-2.5l0.5-0.8l1.9-2.3l1.2-1.1L276.2,112.4 M273.3,108.1L273.3,108.1l0.6-0.1h0.1
	l0.4,0h0.2l1.3,0.3l-0.3-0.2l-0.3-0.2l-0.1,0l-0.8-0.5l-1.6,0l-1.2,0.3l-1.3,0.6L269,109l-1.7,1.7l-1.3,1.7l-1,1.8l-0.5,1.4
	l-0.1,0.1l-0.4,1.4l0,2.1l0,0.5l0.5,1.3l0.5,0.6l0.3,0.2l0.1,0.1l1,0.7l-0.3-0.2l-0.6-0.8l-0.3-1l-0.1-1.2l0.1-1.4v-0.1l0.1-0.7v0
	l0.2-0.8l0.7-1.6l2-3l1.4-1.4l0.5-0.4l0.1-0.1l1.2-0.9h0l1.3-0.6v0L273.3,108.1 M273.4,108.1L273.4,108.1l-0.7,0.1v0l-1.3,0.6h0
	l-1.2,0.9l-0.1,0.1l-0.5,0.4l-1.4,1.4l-2,3l-0.7,1.6l-0.2,0.8v0l-0.1,0.7v0.1l-0.1,1.4l0.1,1.2l0.3,1l0.6,0.8l0.3,0.2l1.2,0.9
	l-0.6-0.6l-0.6-1.1l-0.1-0.5l0,0l-0.1-1.3l0.1-1.4l0.1-0.7l0.8-2.3l1.8-2.9l1.6-1.8l0.5-0.3l0.1-0.1l0.6-0.4l0,0l0.6-0.3h0l1.3-0.6
	l0,0l0.6-0.2h0l0.5-0.1h1.1l0.5,0.1l0.6,0.3l-1.3-0.9l-1.3-0.3h-0.2l-0.4,0h-0.1L273.4,108.1 M272.9,106.6h-0.4l-0.1,0l-0.5,0
	l-0.1,0l-0.6,0l-0.6,0.2l0,0l-0.6,0.3l-0.7,0.3l0,0l-0.6,0.4h-0.1l-0.5,0.4l-0.1,0.1l-0.5,0.4l-1.7,1.8l-0.8,1l-1,1.8l-0.2,0.6
	l-0.1,0.2l-0.6,2.2l-0.1,1.4l0.1,0.7v0.1l0.2,1l0.1,0.1l0.1,0.4l0.1,0.1l0.1,0.4l0.5,0.5l1.1,0.8l-0.3-0.2l-0.5-0.6l-0.5-1.3l0-0.5
	l0-2.1l0.4-1.4l0.1-0.1l0.5-1.4l1-1.8l1.3-1.7l1.7-1.7l1.2-0.8l1.3-0.6l1.2-0.3l1.6,0l0.8,0.5l-1.3-0.9l-0.5-0.2L272.9,106.6
	 M277.3,109.7l0.5,0.1l0.8,0.4l-1.5-1l-0.6-0.3l-0.5-0.1H275l-0.5,0.1h0l-0.6,0.2l0,0l-1.3,0.6h0l-0.6,0.3l0,0l-0.6,0.4l-0.1,0.1
	l-0.5,0.3l-1.6,1.8l-1.8,2.9l-0.8,2.3l-0.1,0.7l-0.1,1.4l0.1,1.3l0,0l0.1,0.5l0.6,1.1l0.6,0.6l0.9,0.7l-0.4-0.5l-0.2-0.3l-0.5-1.2
	v-2.7l0.4-1.4l0.1-0.1l0.1-0.6l0.1-0.2l0.7-1.6l1-1.5l0.2-0.3l2.3-2.2l0.7-0.5l0,0l1.9-0.9l0.7-0.2l0.5,0l0.1,0l0.5,0l0.1,0H277.3
	 M277.9,109.8l-0.5-0.1h-0.4l-0.1,0l-0.5,0l-0.1,0l-0.5,0L275,110l-1.9,0.9l0,0l-0.7,0.5l-2.3,2.2l-0.2,0.3l-1,1.5l-0.7,1.6
	l-0.1,0.2l-0.1,0.6l-0.1,0.1l-0.4,1.4v2.7l0.5,1.2l0.2,0.3l0.4,0.5l1.2,0.8l-0.4-0.4l-0.5-0.9l-0.1-0.5l0-0.1l-0.1-0.5l0.1-2.1h0
	l0.3-1.5l1-2.2l0.2-0.3l0.4-0.8l1.3-1.7l0.6-0.6l1.8-1.5l0.6-0.4l1.3-0.6l0,0l0.6-0.2h0l0.5-0.1h0.1l0.4,0h0.2l0.9,0.1l0.9,0.4
	l-1.3-0.9L277.9,109.8 M275.3,103.1l0.2,1l-0.2,3.7l0.3,0.2l0.8-2.4L275.3,103.1 M271,99.2l0.7,0.1l1.1,0.5l0.6,0.3l0.3,0.3l-1-1.5
	l-1.1-1.6l-3.4,2.2l1.5-0.3L271,99.2 M260,102.7l-1.8,4.9l3.8-4.6l2.3-1.8L260,102.7 M261.6,123.4l-1.4,0.1l-1.3-0.1l-0.6-0.2
	l-1.4-0.9l1.2,2.5l4.3-1.5L261.6,123.4 M255.3,119.6l-2.1-3.2l-3.3-2.3l2.7,5.2l2.1,3.2h0.1l3.2,2.2l-1.2-2.5L255.3,119.6
	 M258.2,107.6l-2.2,4.5l-0.9,4l0,2.5l0.2,1l1.6,2.7l1.4,0.9l0.6,0.2l1.3,0.1l1.4-0.1l0.7-0.2h0l1.7-0.7l1.2-0.6l-0.1-0.1l-1.1-0.8
	l-0.5-0.5l-0.1-0.4l-0.1-0.1l-0.1-0.4l-0.1-0.1l-0.2-1v-0.1l-0.1-0.7l-0.1,0c-0.8-0.6-1.2-1.6-1.1-3.1c0.1-1.4,0.6-2.8,1.6-4.3
	c1-1.5,2.1-2.5,3.4-3.1c1.3-0.6,2.4-0.7,3.3-0.1l0.6-0.3l0,0l0.6-0.2l0.6,0l0.1,0l0.5,0l0.1,0h0.4l0.5,0.1l0.5,0.2l1.3,0.9l0.1,0
	l0.2-3.7l-0.2-1l-1.6-2.7l-0.3-0.3l-0.6-0.3l-1.1-0.5l-0.7-0.1l-1.3,0l-1.5,0.3l-3.9,1.8L262,103L258.2,107.6 M255.9,112.1l-0.2,0.4
	l-2.5,3.9l2.1,3.2l-0.2-1l0-2.5L255.9,112.1 M260,102.7l-3.2-2.3l-2.8,4.4l-2.4,4.9l-1.6,4.5l3.3,2.3l2.5-3.9l0.2-0.4l2.2-4.5
	L260,102.7 M260.2,98.3l-3.4,2.1l3.2,2.3l4.3-1.5l3.9-1.8l3.4-2.2l-3.2-2.2l-4.3,1.5H264L260.2,98.3L260.2,98.3 M187.4,122.4
	l0.9-4.4l-3.4-4.1l1.8,4.7L187.4,122.4 M187,126.7l-0.2,0.8l-1,1.8l-0.9,0.9l-1.1,0.6l-0.4,0.1l2-0.1l1.7-0.1L187,126.7 M192,120.3
	l-0.1-4.1l-3.5,1.7l-0.9,4.4v0.1l-0.3,4.1v0.1l0.1,4l3.6-1.6l0.8-4.5v-0.1L192,120.3 M198.8,82.2l-2.9,1.3l-2.3,26.3l2.9-1.4
	L198.8,82.2 M170.6,112.9h-0.1l-0.4-0.1h-0.1l-0.8,0.1l-0.2,0.1l-0.2,0l-1,0.5l0.4-0.1l1.6,0.1l1.2,0.6h0l1.7,1.4l0.5,0.5l0.1,0.1
	l0.4,0.5l1.4,2.1l1.2,3.1l0.1,0.6l0.1,0.2l0.1,0.6v3.1l-0.1,0.6l-0.1,0l-0.1,0.5l-0.1,0.1l-0.2,0.4l-0.3,0.4L175,129l-0.7,0.5
	l1.5-0.7l0.3-0.1l0.2-0.1h0l0.1-0.2l0.2-0.1l0.7-0.8l0.4-1v-0.1l0.1-0.6v0l0.1-0.7l0-2.2l-0.8-3.2l-1.4-2.8l-0.2-0.2l-0.3-0.5
	L175,116l-0.4-0.5l-1.2-1.2l-1.2-0.8h0l-0.6-0.3L170.6,112.9 M182.1,109.8l2.8,4.1l3.4,4.1l3.5-1.7l-2.4-4.6l-3.7-5.4l-3.4-2.4
	l-2.6,1.2L182.1,109.8 M176.6,115.2l0.1,0.2l0.8,1.1l1.6,3.9l0.1,0.6l0.1,0.2l0.1,1.5l0,0l-0.1,2.2l0.3-0.1c0.9-0.4,1.4-1.3,1.5-2.7
	c0.1-1.4-0.2-2.8-0.8-4.4c-0.7-1.5-1.6-2.6-2.7-3.4c-1-0.8-1.9-1-2.8-0.8L176.6,115.2 M176.7,115.4l-0.1-0.2l-1.6-1.6l-1.1-0.8h0
	l-1.1-0.6h-0.1l-0.4-0.1l-1.6,0l-1.7,0.8l-0.3,0.2l0.2,0l0.2-0.1l0.8-0.1h0.1l0.4,0.1h0.1l1,0.3l0.6,0.3h0l1.2,0.8l1.2,1.2l0.4,0.5
	l0.2,0.1l0.3,0.5l0.2,0.2l1.4,2.8l0.8,3.2l0,2.2l-0.1,0.7v0l-0.1,0.6v0.1l-0.4,1l-0.7,0.8l-0.2,0.1l-0.1,0.2l1.7-1l0.5-0.5l0.6-1
	l0.1-0.5l0-0.1l0.1-0.6l0.1-2.2l0,0l-0.1-1.5l-0.1-0.2l-0.1-0.6l-1.6-3.9L176.7,115.4 M182.1,109.8l-0.9-1l-2-1.8l-1.5-0.8l-1.7-0.6
	h-1.8l-2,0.9l-1.7,0.8l-0.4,0.5l-0.6,1.3l-0.2,0.8v0l-0.3,3.2l1.7-0.8l1.6,0l0.4,0.1h0.1l1.1,0.6h0l1.1,0.8c0.8-0.3,1.8,0,2.8,0.8
	c1.1,0.8,2,1.9,2.7,3.4c0.7,1.6,1,3,0.8,4.4c-0.1,1.4-0.6,2.3-1.5,2.7l-0.3,0.1l-0.1,0.6l0,0.1l-0.1,0.5l-0.6,1l-0.5,0.5l-1.7,1
	l-0.2,0.1l1,0.8l2.8,1.4l0.3,0.1h3.2l0.4-0.1l1.1-0.6l0.9-0.9l1-1.8l0.2-0.8v-0.1l0.3-4.1v-0.1l-0.6-3.9l-1.8-4.7L182.1,109.8
	 M181.2,108.7l0.9,1l-2.4-4.6l-3.8,0.3l1.7,0.6l1.5,0.8L181.2,108.7 M163.9,117.7l-1.4,0l-0.4,0l-0.4,0.2l-0.7,0.6l-0.5,0.8
	l-0.3,1.1l0,1.8l0.6,2.8l0.9,2.1l1.7,2.3l1,0.8l0.5,0.3l1,0.5l0.9,0.1l0.5,0l0.8-0.3l0.4-0.3l0.3-0.3l0.5-0.8l0.4-1v-2.6l-1.2-3.5
	l-0.8-1.3l-1.4-1.6l-0.9-0.8L163.9,117.7 M163.3,118.4l0.9,0.2l1.3,0.8l1.3,1.2l0.8,1.2l0.7,1.4l0.6,2.1l0.1,0.7h0v1.1v0.2l-0.4,1.6
	l-0.6,0.8l-0.8,0.5l-0.4,0.1h-0.5l-1-0.2l-0.5-0.3l-1-0.8l-1.4-1.5l-1.4-2.7l-0.5-2.1v-1.3l0.4-1.6h0l0.6-0.8l0.8-0.5L163.3,118.4
	 M164.3,118.6l-0.9-0.2l-0.9,0.1l-0.8,0.5l-0.6,0.8h0l-0.4,1.6v1.3l0.5,2.1l1.4,2.7l1.4,1.5l1,0.8l0.5,0.3l1,0.2h0.5l0.4-0.1
	l0.8-0.5l0.6-0.8l0.4-1.6v-0.2l-0.2-0.1v0l-0.8-0.6l-0.8-0.8l0-0.1l-0.3-0.4l0,0l-0.4-0.6l-0.7-1.6l-0.2-0.6l-0.2-1.4v-1.1l0.1-0.4
	L164.3,118.6 M165.7,114.5l0.9-0.2l1.5,0.1l0.1,0l0.5,0.2l0.6,0.3h0.1l1.1,0.8l0,0.1l0.5,0.4l0.1,0.1l1.9,2.4l0.8,1.5l0.8,2.1
	l0.2,0.9l0.1,0.2l0.2,1.4v1.6l-0.1,0.7v0l-0.1,0.6l0,0l-0.1,0.5l-0.3,0.5l-0.1,0.1l-0.1,0.4l-0.1,0.1l-0.4,0.4l-0.4,0.3l1.2-0.6
	l0.7-0.5l0.5-0.5l0.3-0.4l0.2-0.4l0.1-0.1l0.1-0.5l0.1,0l0.1-0.6v-3.1l-0.1-0.6l-0.1-0.2l-0.1-0.6l-1.2-3.1l-1.4-2.1l-0.4-0.5
	L173,116l-0.5-0.5l-1.7-1.4h0l-1.2-0.6l-1.6-0.1l-0.4,0.1l-0.5,0.2L165.7,114.5 M165.5,114.9l0.4,0h0.1l0.4,0.1h0.1l1.1,0.5l1.2,0.8
	l1.1,1l0.1,0.2l1.1,1.3l0.5,0.8l1.1,2.5l0.8,3.3l-0.1,2.3l-0.2,0.6v0.1L173,129l-0.6,0.9l-1.1,1l1.9-0.8l0.4-0.3l0.4-0.4l0.1-0.1
	l0.1-0.4l0.1-0.1l0.3-0.5l0.1-0.5l0,0l0.1-0.6v0l0.1-0.7v-1.6l-0.2-1.4l-0.1-0.2l-0.2-0.9l-0.8-2.1l-0.8-1.5l-1.9-2.4l-0.1-0.1
	l-0.5-0.4l0-0.1l-1.1-0.8h-0.1l-0.6-0.3l-0.5-0.2l-0.1,0l-1.5-0.1l-0.9,0.2l-1.2,0.6l0.3-0.1h0.5L165.5,114.9 M164.2,115.8h-0.9
	l-0.5,0l-0.5,0.2l-0.5,0.2l-0.4,0.3l-0.6,0.8l-0.5,1.1l-0.1,0.6l0,0l-0.1,1.2l0.3-1.1l0.5-0.8l0.7-0.6l0.4-0.2l0.4,0l1.4,0l1.6,0.8
	l0.9,0.8l1.4,1.6l0.8,1.3l1.2,3.5v2.6l-0.4,1l-0.5,0.8l-0.3,0.3l-0.4,0.3l-0.8,0.3l-0.5,0l-0.9-0.1l-1-0.5l1,0.8v0l1.1,0.5h0.1
	l0.6,0.1l0.9,0.1l0.2-0.1l0.3,0l0.8-0.4l0.3-0.1l0.7-0.9l0.5-1.2h0l0.1-0.6v-0.1l0.1-1.4l-0.2-2.3l-1.3-3.6l-0.6-1l-1.5-2l-1.6-1.5
	l-1.1-0.7h-0.1L164.2,115.8 M162.8,115.8L162.8,115.8l-0.5,0.2L162.8,115.8 M164.4,115.1l-1.6,0.8l0.5,0h0.9l1.2,0.4h0.1l1.1,0.7
	l1.6,1.5l1.5,2l0.6,1l1.3,3.6l0.2,2.3l-0.1,1.4v0.1l-0.1,0.6h0l-0.5,1.2l-0.7,0.9l-0.3,0.1l1.3-0.6l1.1-1l0.6-0.9l0.1-0.5v-0.1
	l0.2-0.6l0.1-2.3l-0.8-3.3l-1.1-2.5l-0.5-0.8l-1.1-1.3l-0.1-0.2l-1.1-1l-1.2-0.8l-1.1-0.5h-0.1L166,115h-0.1l-0.4,0l-0.2,0h-0.5
	L164.4,115.1 M160.5,91.1l-2.6-1.8l-0.7-0.3l-1.2-0.3h-1.2l-1.1,0.3l-0.9,0.6l-0.7,0.9l-0.6,1.2l-0.3,1.4l-0.1,1.3v0.6l0.2,2.3
	l0.7,2.7l1.2,2.6l2.1,3.2l1.2,1.3l1.4,1l0.6,0.4l1.3,0.7l1.3,0.3h1.2l1.1-0.3l0.9-0.7l0.4-0.4l0.7-1l0.5-1.3l0.2-1.5l0-1.6l-0.4-2.7
	l-1.3-3.6l-1.4-2.5l-0.5-0.8L160.5,91.1 M157.9,90.6l1.1,0.7l1.2,1l1.1,1.2l1.5,2.1l1.6,4.1l0.3,2.5v1.6l-0.4,2l-0.6,1l-0.8,0.8
	l-0.4,0.3l-0.4,0.2l-0.5,0.1l-1.7,0l-1.7-0.7l-1.8-1.4l-0.6-0.6l-1.5-2l-1.3-2.4l-0.6-1.7l-0.6-3.3l0-1.6l0.2-1.4l0.4-1.2l0.6-0.9
	l0.8-0.6l0.5-0.2l1-0.2h0.6l1.1,0.2L157.9,90.6 M178.8,103.3l-1.7,0.8l-2.7,1.3l-0.2,0.1h1.8l3.8-0.3l2.6-1.2l-0.9-0.7H178.8
	 M167.6,101.8l-0.1-0.8l-0.1-0.2l-0.1-1l-0.8-2.6l-1.3-2.7l-2.3-3.3l-1.2-1.2l0-0.1l-0.7-0.5v0l-1.4-1l-1.5-0.7l-1.4-0.3l-1.1,0
	l-1.1,0.3l-0.5,0.2l-0.3,0.2l-0.2,0.1l-0.5,0.4l-0.3,0.3l-0.4,0.6l-0.6,1.3l-0.1,0.1l-0.1,0.6l0,0.1l-0.1,0.7l0,0l0,0.8l-0.1,0.2
	v1.3l0.1-1.3l0.3-1.4l0.6-1.2l0.7-0.9l0.9-0.6l1.1-0.3h1.2l1.2,0.3l0.7,0.3l2.6,1.8l1.8,2l0.5,0.8l1.4,2.5l1.3,3.6l0.4,2.7l0,1.6
	l-0.2,1.5l-0.5,1.3l-0.7,1l-0.4,0.4l-0.9,0.7l-1.1,0.3h-1.2l-1.3-0.3l-1.3-0.7l-0.6-0.4l1.4,1h0.1l1.3,0.7l1.6,0.4l1,0l1.5-0.4
	l0.3-0.2l0.9-0.6l0.8-1l0.3-0.6l0.5-1.3v-0.1l0.3-1.5L167.6,101.8 M168.5,95.1l-0.9-1.8l-2.1-3.1l-2.1-2l-1.3-0.9v0l-1.4-0.7
	l-1.5-0.4h-1.7l-3.1,1.5l1.1-0.3l1.1,0l1.4,0.3l1.5,0.7l1.4,1v0l0.7,0.5l0,0.1l1.2,1.2l2.3,3.3l1.3,2.7l0.8,2.6l0.1,1l0.1,0.2
	l0.1,0.8l0,2.8l-0.3,1.5v0.1l-0.5,1.3l-0.3,0.6l-0.8,1l-0.9,0.6l2.6-1.2l0.8-0.6l0.8-1l0.6-1.3l0.1-0.6v0l0.2-0.7l0.1-2.6l0-0.1
	l0-0.9l-0.3-1.8L168.5,95.1 M169.7,91.1l-1.8-2.4l-1.9-1.9h-0.1l-1.3-0.9l-1.4-0.7l-1.5-0.4l-1.1,0l-0.2,0.1l-0.4-0.1l-2.5,1.2h1.7
	l1.5,0.4l1.4,0.7v0l1.3,0.9l2.1,2l2.1,3.1l0.9,1.8l1.2,3.8l0.3,1.8l0,0.9l0,0.1l-0.1,2.6l-0.2,0.7v0l-0.1,0.6l-0.6,1.3l-0.8,1
	l-0.8,0.6l2.1-0.9l0.5-0.3l1-0.9l0.5-0.6l0.6-1.2l0.2-0.8v-0.1l0.3-1.5l0-1.7l0-0.1l0-0.8l0-0.1l-0.5-2.7L169.7,91.1 M167.9,88.8
	l1.8,2.4l2.4,5.6l0.5,2.7l0,0.1l0,0.8l0,0.1l0,1.7l-0.3,1.5v0.1l-0.2,0.8l-0.6,1.2l-0.5,0.6l-1,0.9l0.4-0.1l1.7-0.8l0.2-0.2l0.2-0.1
	l0.5-0.4l0.8-1l0.8-1.9v-0.1l0.1-0.8l0.1-3.4l-0.2-0.9v-0.2l-0.4-1.7l-1.2-3.3l-1.8-3.1l-2.4-2.8l-2.2-1.6v0l-0.7-0.3v0l-1.3-0.5
	l-1.9-0.2l-0.2,0.1l-0.4,0l-2.3,1l0.4,0.1l0.2-0.1l1.1,0l1.5,0.4l1.4,0.7l1.3,0.9h0.1L167.9,88.8 M172.2,86l0-0.1l-0.6-0.5l-0.1-0.1
	l-0.7-0.6l-1.4-0.9l-1.4-0.7l-1.5-0.3l-1.1,0l-0.6,0l-2.6,1.2l0.4,0l0.2-0.1l1.9,0.2l1.3,0.5v0l0.7,0.3v0l2.2,1.6l2.4,2.8l1.8,3.1
	l1.2,3.3l0.4,1.7v0.2l0.2,0.9l-0.1,3.4l-0.1,0.8v0.1l-0.8,1.9l-0.8,1l-0.5,0.4l-0.2,0.1l-0.2,0.2l2-0.9l0.2-0.1l0.8-0.5l0.4-0.4
	l0.4-0.5l0.6-0.9l0-0.2l0.2-0.5l0.2-0.8h0.1l0.1-0.8l0.1-2.7l-0.4-2.6l-0.9-2.9l-1.6-3.3l-1.3-2L172.2,86 M178.6,91l-1.1-2.4
	l-2.3-3.3l-2-1.9l-1.3-0.9h0l-0.7-0.4l-2.2-0.7h-1.7l-2.5,1.2l0.6,0l1.1,0l1.5,0.3l1.4,0.7l1.4,0.9l0.7,0.6l0.1,0.1l0.6,0.5l0,0.1
	l1.2,1.3l1.3,2l1.6,3.3l0.9,2.9l0.4,2.6l-0.1,2.7l-0.1,0.8h-0.1l-0.2,0.8l-0.2,0.5l0,0.2L176,104l-0.4,0.5l-0.4,0.4l-0.8,0.5
	l2.7-1.3l0.6-0.3l0.4-0.4l0.8-1l0.8-1.9v-0.1l0.1-0.7v-0.1L180,98l-0.4-3.7L178.6,91 M174.3,78.2l1,0l0.2,0l0.5,0.1h0.1l1.4,0.3
	l1.3,0.7h0l1.4,0.9l2.5,2.7l1.7,2.5l1.1,2.4l1,3.3l0.3,1.7v0.2l0.1,1.8l-0.2,1.6l0,0l0,0.7l-0.6,1.4l0,0.1l-0.6,1l-0.8,0.8l1.7-0.8
	l0.4-0.3h0l0.3-0.3l0.2-0.3l0.2-0.1l0.6-1l0.3-0.7l0.2-0.8l0,0l0.1-0.8l0.1-3.5l-0.1-0.1l-0.2-1.7l-1-3.3l-1.2-2.4l-2.2-3.2l-2-1.9
	l-1.3-0.9h0l-0.8-0.4l-1.3-0.5l-0.7-0.1l-1.3,0l-0.6,0.1L174.3,78.2 M172.6,79.1l1.1,0l1.4,0.4l1.5,0.7l1.4,1v0l0.7,0.5l2.5,2.9
	l2,3.5l1.2,3.8l0.4,3.7l-0.1,1.6v0l-0.2,0.8v0.1l-0.1,0.6l-0.1,0.1l-0.6,1.3l-0.3,0.3l-0.1,0.2l-0.3,0.3l-1.2,0.9l2.3-1.1l0.8-0.4h0
	l0.8-0.8l0.6-1l0-0.1l0.6-1.4l0-0.7l0,0l0.2-1.6l-0.1-1.8v-0.2l-0.3-1.7l-1-3.3l-1.1-2.4l-1.7-2.5l-2.5-2.7l-1.4-0.9h0l-1.3-0.7
	l-1.4-0.3h-0.1l-0.5-0.1l-0.2,0l-1,0l-2.2,1L172.6,79.1 M170.1,80.3l-0.6,0.1l-2.3,1h1.7l2.2,0.7l0.7,0.4h0l1.3,0.9l2,1.9l2.3,3.3
	l1.1,2.4l1,3.3L180,98l-0.2,1.6v0.1l-0.1,0.7v0.1l-0.8,1.9l-0.8,1l-0.4,0.4l-0.6,0.3l1.7-0.8l0.4-0.2l1.5-1.4l0.4-0.6l0.6-1.1
	l0.2-0.7l0-0.1l0.3-2.4l0-0.1L182,94l-0.1-0.1l-0.2-1l-0.8-2.6l-0.6-1.5l-1.6-2.8l-0.6-0.8L178,85l-1.9-2.1l-0.6-0.6h0l-1.4-0.9v0
	l-0.7-0.4l-0.6-0.2l-0.1,0l-1.3-0.3H170.1 M170,80.2l-0.4,0.2l0.6-0.1h1.2l1.3,0.3l0.1,0l0.6,0.2l0.7,0.4v0l1.4,0.9h0l0.6,0.6
	L178,85l0.1,0.2l0.6,0.8l1.6,2.8l0.6,1.5l0.8,2.6l0.2,1L182,94l0.2,2.7l0,0.1l-0.3,2.4l0,0.1l-0.2,0.7l-0.6,1.1l-0.4,0.6l-1.5,1.4
	l1.2-0.6l1.2-0.6l1.2-0.9l0.3-0.3l0.1-0.2l0.3-0.3l0.6-1.3l0.1-0.1l0.1-0.6v-0.1l0.2-0.8v0l0.1-1.6l-0.4-3.7l-1.2-3.8l-2-3.5
	l-2.5-2.9l-0.7-0.5v0l-1.4-1l-1.5-0.7l-1.4-0.4l-1.1,0l-0.5,0.1L170,80.2 M172.9,65.4l-1.8,0.8l-1.2,14l2.2-1l2.2-1l2.1-0.8l0.6-0.1
	l1.3,0l0.7,0.1l1.3,0.5l0.8,0.4h0l1.3,0.9l2,1.9l2.2,3.2l1.2,2.4l1,3.3l0.2,1.7l0.1,0.1l-0.1,3.5l-0.1,0.8l0,0l-0.2,0.8l-0.3,0.7
	l-0.6,1l-0.2,0.1l-0.2,0.3l-0.3,0.3h0l-0.1,0.1l-0.3,0.1l-1.7,0.8h0l-0.5,0.3l-0.3,0l-2.3,1.1l-1.2,0.6l1,0.8l0.9,0.7l3.4,2.4
	l3.4,2.4l2.7,1.9l1.7-0.9l2.3-26.3l-1.4-3L172.9,65.4 M190.8,80.8l0.3,0h0.3l0.7,0.2l0.7,0.5l1,1.2l0.5,1l0.4,1.5l0,0.9l-0.2,0.8
	l-0.2,0.3l-0.5,0.4l-1.9,0.8l-0.6,0.2h-0.4l-0.3-0.1l-0.3,0l-0.3-0.5l0,0l0-0.2l0-0.1v0l-0.2-0.6v-1.3l0.1,0v-0.3l0.2-0.9l0.9-1.8h0
	v-0.2l-0.7-0.5l0.7,0.5v0.2h0l0.5,0.6l0,0.1l0.3,0.5l0.5,1l0.3,1.4l0,0.5l-0.2,1l-0.2,0.4l-0.2,0.2l1.9-0.8l0.5-0.4l0.2-0.3l0.2-0.8
	l0-0.9l-0.4-1.5l-0.5-1l-1-1.2l-0.7-0.5l-0.7-0.2h-0.3L190.8,80.8l-2.3,1l0.2,0l0.1,0h0.3l0.3,0.1h0l0.2,0.1l-0.9,2.1l-0.1,0.7v0
	l-0.1,0.2v1.4l0.2,0.6l0.1,0.3l0.1,0.3l0.1,0.2l-0.1-0.2l-0.1-0.3l-0.2-0.1l-0.3-0.5l0-0.1l-0.3-0.5l-0.3-0.8v-0.1l-0.1-0.9v-0.2
	l0-0.2l0.2-1.1l0-0.1l0.5-0.5l0.2-0.1L190.8,80.8 M175.1,68.8l0.4,0.1l0.7,0.6l0.7,0.7l0.5,0.9l0.4,1l0.2,1.4l-0.1,0.8
	c0,0.1-0.1,0.1-0.1,0.2c-0.1,0.3-0.3,0.6-0.8,0.8l-2.3,1.1h-1l-0.2-0.1l-0.2-0.2l-0.1-0.2l-0.3-0.2h-0.1l-0.1,0h-0.1l0,0l-0.3-0.5v0
	l-0.6-0.7l-0.5-1.3v0l-0.2-1.2v-0.2l0-0.2v-0.2l0.1-0.5l0.3-0.6l0.2-0.2l0.3-0.1l2.3-1.1l0.2,0h0.4L175.1,68.8 M185.9,103.8v-0.1
	l-0.1-0.3v-0.8l0.1-0.5l0.2-0.5l0.4-0.5l0.5-0.2l1.9-0.8c0.2,0,0.3,0,0.6,0c0.2,0,0.3,0,0.5,0c0.1,0,0.2,0.1,0.3,0.1h0l0,0l0.7,0.5
	l1.2,1.6l0.5,1.5l0.1,1l0,0.4l-0.4,1l-0.2,0.2l-2.2,1l0,0l-0.1,0.1h-0.1l-0.2,0l-0.1,0H189l-0.6-0.1l-0.2-0.5l-0.4-0.1v0h0l0,0h-0.1
	l0,0l-0.3-0.5l-0.3-0.3l-0.5-0.9l-0.3-0.9v0L185.9,103.8 M193.9,85.6l0.1,0.1l0.1,0.1V86l0,0.2v0l-0.6,0.6h-0.3l-0.1-0.1v-0.2
	l0.1-0.2v0l0.1-0.3l0.1-0.2l0.2-0.1l0.1,0H193.9 M189.6,102.4l-0.6-0.7l-0.8,1.8l-0.2,0.9v0.1l0,0.1v0.1l0,0.1v1.1l0,0l0.1,0.6
	l0.2,0.4l0.2,0.5l0.6,0.1h0.3l0.1,0l0.2,0l0.3-0.1l0.4-0.5l0.1-0.4l0.1-0.8l-0.2-1.5l-0.1-0.3l-0.1-0.5L189.6,102.4 M190.4,100.2
	C190.4,100.1,190.4,100.1,190.4,100.2c-0.2-0.1-0.3-0.1-0.4-0.1c-0.2,0-0.3,0-0.5,0c-0.2,0-0.4,0-0.6,0l-1.9,0.8h0.4l0.3,0.1h0
	l0.2,0.1l-0.7,1.3l-0.4,1.4v0l0,0.1v0.2l0,0.1v0.3l0,0.1v0.3l0,0.2v0.2l0.1,0.6l0.1,0.1l0,0.3l0.3,0.5l0,0h0.1l0,0h0v0l0.4,0.1
	l-0.2-0.4l-0.1-0.6l0,0V105l0-0.1v-0.1l0-0.1v-0.1l0.2-0.9l0.8-1.8l-0.6-0.7l0.6,0.7l0.6,0.7l0.6,1l0.1,0.5l0.1,0.3l0.2,1.5
	l-0.1,0.8l-0.1,0.4l-0.4,0.5l2.2-1l0.2-0.2l0.4-1l0-0.4l-0.1-1l-0.5-1.5l-1.2-1.6L190.4,100.2 M192,104.8l0.2,0l0.1,0l0,0.1h0v0.2
	l0,0.2l0,0l-0.2,0.4l-0.5,0.3l-0.2,0l-0.1-0.1v-0.2l0-0.2h0v-0.2l0.3-0.4l0.1-0.1L192,104.8 M185.9,103.6v0.1l0.1,0.5v0l0.3,0.9
	l0.5,0.9l0.3,0.3l0-0.3L187,106l-0.1-0.6v-0.2l0-0.2v-0.3l0-0.1v-0.3l0-0.1V104l0-0.1v0l0.4-1.4l0.7-1.3l-0.2-0.1h0l-0.3-0.1H187
	l-0.5,0.2l-0.4,0.5l-0.2,0.5l-0.1,0.5v0.8L185.9,103.6 M172.7,70.8l0.4-0.8l-0.3,0v-0.1h-0.7l-0.3,0.1l-0.3,0.1l-0.2,0.2l-0.3,0.6
	l-0.1,0.5v0.2l0,0.2V72l0.2,1.2v0l0.5,1.3l0.6,0.7l-0.1-0.3v0l-0.1-0.3l0-0.3l0-0.1v-1l0-0.1V73l0-0.1v-0.2L172.7,70.8 M174.7,71.3
	L174.7,71.3l-0.3-0.5l-0.3-0.2l-0.8,1.7l-0.2,0.8v0.3l-0.1,0.2v0.3l0,0v0.8l0,0.2V75l0.1,0.6v0l0.1,0.3l0,0l0.1,0.2l0.2,0.2l0.2,0.1
	h1l0.1-0.1l0.2-0.1l0.2-0.2l0.3-0.4l0.2-0.8v-0.7l-0.2-1l-0.1-0.3l-0.2-0.6L174.7,71.3 M175.5,68.9l-0.4-0.1l-0.3,0h-0.4l-0.2,0
	l-2.3,1.1l0.3-0.1h0.7v0.1l0.3,0l-0.4,0.8l-0.6,1.9v0.2l0,0.1V73l0,0.1v1l0,0.1l0,0.3l0.1,0.3v0l0.1,0.3v0l0.3,0.5l0,0h0.1l0.1,0
	h0.1l0.3,0.2l0,0l-0.1-0.3v0L173,75v-0.1l0-0.2v-0.8l0,0v-0.3l0.1-0.2v-0.3l0.2-0.8l0.8-1.7l0.1-0.1v-0.1l-0.7-0.5l0.7,0.5v0.1
	l-0.1,0.1l0.3,0.2l0.3,0.4l0,0l0.6,0.9l0.2,0.6l0.1,0.3l0.2,1v0.7l-0.2,0.8l-0.3,0.4l-0.2,0.2l-0.2,0.1l-0.1,0.1l2.3-1.1
	c0.4-0.2,0.7-0.4,0.8-0.8c0-0.1,0.1-0.2,0.1-0.2l0.1-0.8l-0.2-1.4l-0.4-1l-0.5-0.9l-0.7-0.7L175.5,68.9 M176.4,74.7L176.4,74.7
	l0-0.3v0l0-0.2l0.4-0.5l0.2,0l0.3,0.1l0,0.1l0,0v0.2l0,0.2h0l-0.2,0.3l-0.4,0.3l-0.1,0h-0.1l-0.1-0.1L176.4,74.7L176.4,74.7
	 M189.9,87.8L189.9,87.8l0-0.2L189.9,87.8 M188.8,81.8l-0.2,0l-0.2,0.1l-0.5,0.5l0,0.1l-0.2,1.1l0,0.2v0.2l0.1,0.9v0.1l0.3,0.8
	l0.3,0.5l0,0.1l0.3,0.5l0.2,0.1l-0.1-0.3l-0.2-0.6v-1.4l0.1-0.2v0l0.1-0.7l0.9-2.1l-0.2-0.1h0l-0.3-0.1L188.8,81.8L188.8,81.8
	 M191.3,83.3L191.3,83.3l-0.6-0.7l-0.9,1.8l-0.2,0.9v0.3l-0.1,0V87l0.2,0.6v0l0,0.1l0.1,0.2l0.3,0.5l0.3,0l0.3,0.1h0.4l0.6-0.2
	l0.2-0.2l0.2-0.4l0.2-1l0-0.5l-0.3-1.4l-0.5-1L191.3,83.3 M198.1,80.7l-0.7-1.6l-2.9,1.3l1.4,3l2.9-1.3L198.1,80.7 M198.1,80.7
	l0.1-1L175.9,64l-0.9,0.4l-2,0.9l21.6,15.1l2.9-1.3L198.1,80.7z"/>
<path class="st4" d="M271.1,148.3l-0.8,2l-0.2,1l1.1-0.5l0.8-0.5l0.1-0.2l0.8-0.8l0.3-0.4l0.1-0.1l1.1-2v-0.1l0.1-0.5v0l0.2-0.5
	l0.1-0.6v-0.7L274,145l-1.1,0.9L271.1,148.3 M277.5,115.4v-0.7l-0.9,0.5l-1.6,1.5L274,118l-1.2,2.6l-0.2,1l0.9-0.3l2-1.6l0.3-0.4
	l0.1,0l0.9-1.6l0.4-1.1v0L277.5,115.4 M166.8,120.6l-1.3-1.2l-0.1,0.4v1.1l0.2,1.4l0.2,0.6l0.7,1.6l0.4,0.6l0,0l0.3,0.4l0,0.1
	l0.8,0.8l0.8,0.6v0l0.2,0.1V126h0l-0.1-0.7l-0.6-2.1l-0.7-1.4L166.8,120.6 M159.1,91.3l-1.1-0.7l-0.6-0.2l-1.1-0.2h-0.6l-1,0.2
	l-0.5,0.2l-0.8,0.6l-0.6,0.9l-0.4,1.2l-0.2,1.4l0,1.6l0.6,3.3l0.6,1.7l1.3,2.4l1.5,2l0.6,0.6l1.8,1.4l1.7,0.7l1.7,0l0.5-0.1l0.4-0.2
	l0.4-0.3l0.8-0.8l0.6-1l0.4-2v-1.6l-0.3-2.5l-1.6-4.1l-1.5-2.1l-1.1-1.2L159.1,91.3z"/>
<path class="st5" d="M253.3,49.3l0.1-0.3L253.3,49.3L253.3,49.3 M256.6,48.6l0-0.7l0.4-4.6l-3.5,5.7l-0.1,0.1l-0.1,0.3l-3.5,6.5
	l-0.5,5.4l4.1-6.7L256.6,48.6 M248.6,56.5L248.6,56.5l-2.4,1.1h-0.1l-1.3,0.5l-0.4,5.3l1.3-0.5l0,0l2.3-1.1h0l1.1-0.6l0.5-5.4
	L248.6,56.5 M245.1,56.1l-0.3-0.3l-0.2,0.1l-1.2,0.5l-7.2,1.7l-1,0.1l9.5-0.1l1.3-0.5h0.1l2.4-1.1h0l1.1-0.7l3.5-6.5l-2.6,3
	l-1.7,1.3l-2.2,1.3v0l0.1,0.2l0.1,0.5l0,0.2l-0.1,0.2l-0.2,0.1l-0.6,0.1l-0.3,0L245.1,56.1 M250.5,40.8l-0.3,2.8V46l-0.1,0.4
	l-0.3,1.1l-1.1,2l-2.9,2.7l0.5-0.3l1.6-1.3l1.8-2.2l0.5-0.8l0.6-1.6l0.2-1.7l0-0.8L250.5,40.8 M257,43.3l0-0.3v0l-0.6-1.9h0
	l-0.7-1.6l-4.7-3.7v0.1l2.7,4l0.7,1.8l0.4,1.7V45l-0.6,2.5l-0.6,1.3L257,43.3 M221.7,59.7l-0.4,5.3l12.2-0.2l10.9-1.3l0.4-5.3
	l-9.5,0.1h-1.2l-0.2,0.1h-0.7L221.7,59.7 M221.7,59.7l-2.1-0.5h-0.1l-1.5-0.4h0l-1.4-0.4l-0.1,0l-1-0.3l-0.5,5.3l2.5,0.8h0.1
	l1.5,0.4h0l2.2,0.4L221.7,59.7 M199.6,47l-0.5,5.4l1.3,1l6,4.7l8.5,5.3l0.5-5.3l-7.9-6.1L199.6,47 M198.5,44.5l-0.2-0.9l-0.5,5
	l0,0.3V49l0.2,0.8h0l0.7,1.8l0.4,0.7l0.5-5.4L198.5,44.5 M209.7,53.4l-3.1-2.1l-1.8-1.5l-2.1-2.5l-1.2-2.2l-0.3,0.1l-0.9-0.1V45
	l-0.1-0.1l-0.1-0.1v-0.2l0-0.2l0.2-0.2l0.2-0.1v0l0.2-0.1l0.3-0.1l-0.4-2.5l0.1-0.6l0.3-2.5l-2.2,4.2l-0.5,0.8l0.1,0.3v0.1l0.2,0.9
	l1.1,2.5l8,5l7.9,6.1l1,0.3l0.1,0l1.4,0.4h0l1.5,0.4h0.1l2.1,0.5l11.5-1.3l-6.9-0.1l-1.1-0.1l-4.9-0.8l-5.7-1.6L209.7,53.4
	 M205.2,39.6l0.2-2.4l-0.9,2.1l-0.2,1.7l0.1,1.7l0.5,1.7l0.8,1.6l2.4,2.9l-1.8-2.4l-1-2.3l-0.2-0.8l-0.1-1.1l-0.1-0.5l0.1-1.2
	L205.2,39.6 M205.7,32.1l0.2-0.3l-3.3,3.5v0l-0.8,1c-0.3,0.6-0.7,1.1-1,1.5c0,0.1,0,0.1,0,0.2c0,0.2-0.3,0.7-0.8,1.5
	c-0.5,0.8-0.8,1.2-0.8,1.2c-0.2,0.6-0.4,1.1-0.7,1.5c-0.1,0.2-0.2,0.3-0.3,0.5h0.2l0.3-0.3l2.2-4.2v0l0.3-0.6l0.3-0.6l0.2-0.4
	l-0.1,0.3l-0.1,0.1l-0.3,0.6l-0.3,0.7l-0.3,2.5l-0.1,0.6l0.4,2.5l0.6,0.1l0.3,0.1l0.4,0.3l0.1,0.1v0.2l0,0.2l-0.1,0.1L202,45
	l-0.3,0.1h-0.3l1.2,2.2l2.1,2.5l1.8,1.5l3.1,2.1l4.9,2.4l5.7,1.6l4.9,0.8h11.1l7.2-1.7l1.2-0.5l0.2-0.1l-0.2-0.3l0-0.1l0.1-0.4
	l0.8-0.3h0.3l0.9,0.3l2.2-1.3l1.7-1.3l2.6-3v0l0.1-0.2l0.1-0.1l0.6-1.3l0.6-2.5v-1.7l-0.4-1.7l-0.7-1.8l-2.7-4l-0.4,4.9v0.2l0.4,2.7
	l0,0.8l-0.2,1.7l-0.6,1.6l-0.5,0.8l-1.8,2.2l-1.6,1.3l-0.5,0.3l-2.5,1.5h0l-1,0.5l-5,1.5l-5.6,0.7l-7.3-0.3l-5.7-1.3l-6.2-2.6
	l-3.1-2l-1.2-1.1l-2.4-2.9l-0.8-1.6l-0.5-1.7l-0.1-1.7l0.2-1.7l0.9-2.1L205.7,32.1 M206.1,34.1L206.1,34.1l-0.1-0.8l0-0.1v-1.5
	l-0.2,0.3l-0.3,5.2l-0.2,2.4l-0.3,2.8l0.1,1.1l0.2,0.8l1,2.3l1.8,2.4l1.2,1.1l3.1,2l6.2,2.6l5.7,1.3l7.3,0.3l5.6-0.7l5-1.5l1-0.5h0
	l2.5-1.5l2.9-2.7l1.1-2l0.3-1.1l0.1-2.8l0.3-2.8v-0.2l0.4-4.9l-0.1,0.7l-0.8,2.3l-0.9,1.4l-1.8,1.8l-0.2,0.1l-1.7,1.2l-0.8,0.4
	l0,0.1l-4.4,1.8l-4.8,1l-5.3,0.2l-6.6-0.7h-0.2l-1.2-0.3h0l-1.3-0.3l-4.8-1.7l-3.2-1.7l-3.4-2.6l-2.3-2.9l-0.4-0.8v0L206.1,34.1
	 M244.1,50.9l-0.6,0.7l-0.6,0.4l-0.3,0.1l-0.4,0l-0.3,0l-0.2,0l-0.3-0.2l-0.1-0.2l-0.1-0.7l0.1-0.5l0-0.3l0.9-1.5l0,0l0.5-0.4
	l0.1-0.1l0.3-0.1l0.7-0.2h0.3l0.2,0.1l0.3,0.4l0.1,0.7l-0.1,0.7L244.1,50.9 M243.5,51.6l0.6-0.7l0.6-1.2l0.1-0.7l-0.1-0.7l-0.3-0.4
	l-0.2-0.1h-0.3l-0.7,0.2l-0.3,0.1l-0.1,0.1l-0.3,0.8l-0.8,1.1l-0.5,0.2l-0.1,0.5l0.1,0.7l0.1,0.2l0.3,0.2l0.2,0l0.3,0l0.4,0l0.3-0.1
	L243.5,51.6 M206.2,30.2l-0.8,0.4l-2.8,4.7l3.3-3.5L206.2,30.2 M212.9,26.4l-0.7-0.5l-1.7,1.6l-0.9,1.4l-0.5,1.2l-0.3,1.5v0.2
	l0.9-2.1l1-1.4l2-1.8L212.9,26.4 M211.8,25.6l-1.6,1.5l-0.9,1.5l-0.6,1.5l-0.2,0.8l0,0.8l0.1,1.6l0.5,1.6l1.7,2.6l-1.4-2.4l-0.4-1.2
	v-0.3l-0.1-0.4l0-1.3v-0.2l0.3-1.5l0.5-1.2l0.9-1.4l1.7-1.6L211.8,25.6 M210.8,21.5c0,0.3,0,0.5,0,0.8l-0.1,1.3l0,1.1v0l0,0.1
	l1.1,0.8l0.5,0.3l0.7,0.5l1,0.7h0l1.1,0.9l2.2,1.8l0.1,0.1l4.2,2.7l0.2,0l4.2,2.9l0.3-4.1l-15.4-10.7L210.8,21.5 M247.6,33l-0.3-0.7
	l-1.1-1.8l-2,1.8l-2.5,1.5l-3,1.1l-3.4,0.7l-4.9,0.3l-4.5-0.4l-4.2-2.9l-0.2,0l-4.2-2.7l-0.1-0.1l-2.2-1.8l-0.3,3.2l0.3-3.2
	l-1.1-0.9h0l-1-0.7l-0.3,0.1l-2,1.8l-1,1.4l-0.9,2.1l0,1.3l0.1,0.4v0.3l0.4,1.2l1.4,2.4l0.3,0.4l2.5,2l3.1,1.8l3.5,1.4l3.9,1
	l5.5,0.6l5.4-0.2l2.5-0.5l3.5-1.1l2.9-1.5l1.2-0.9l1.2-1.2l0.9-1.3l0.7-1.5l0.2-1l0-1L247.6,33 M246.6,30l-0.4,0.5l1.1,1.8l0.3,0.7
	l0.4,1.5l0,1l0.1-0.4l0-0.8l-0.2-1.2v-0.3l-0.5-1.3L246.6,30 M246.9,29.4l1,1.8l0.7,2.4l-0.1,1.6l-0.1,0.8l-0.6,1.5l-0.4,0.8
	l-1.1,1.4l-1.2,0.9l-1.2,0.9l-2.9,1.5l-3.5,1.1l-2.5,0.5l-5.4,0.2l-5.5-0.6l-3.9-1l-3.5-1.4l-3.1-1.8l-2.5-2l-0.3-0.4l-1.7-2.6
	l-0.5-1.6l-0.1-1.6l0-0.8l0.2-0.8l0.6-1.5l0.9-1.5l1.6-1.5l-1.1-0.8l-1.1,0.9l-1.2,1.4l-0.8,1.4l0,0.1l-0.5,1.5l-0.1,0.8v1.6
	l0.3,1.6l0.3,0.8l0.9,1.6l1.9,2.3l3.6,2.7l2.2,1.1l4.9,1.8l6.7,1.1l4.2,0.1l5.3-0.6l3.6-1l3.2-1.4l2.6-1.7l1.3-1.3l1.1-1.5l0.4-0.8
	l0.6-1.5l0.1-2.5l-0.4-1.6l-0.7-1.6v0l-1.6-2.2l-0.5,1.2L246.9,29.4 M248,31.2l-1-1.8l-0.3,0.6l0.9,1.6l0.5,1.3v0.3l0.2,1.2l0,0.8
	l-0.1,0.4l-0.2,1l-0.7,1.5l-0.9,1.3l-1.2,1.2l1.2-0.9l1.1-1.4l0.4-0.8l0.6-1.5l0.1-0.8l0.1-1.6L248,31.2 M247.6,28L247.6,28l1.6,2.3
	v0l0.7,1.6l0.4,1.6l-0.1,2.5l-0.6,1.5l-0.4,0.8l-1.1,1.5l-1.3,1.3l-2.6,1.7l-3.2,1.4l-3.6,1l-5.3,0.6l-4.2-0.1l-6.7-1.1l-4.9-1.8
	l-2.2-1.1l-3.6-2.7l-1.9-2.3l-0.9-1.6l-0.3-0.8l-0.3-1.6V31l0.1-0.8l0.5-1.5l0-0.1l0.8-1.4l1.2-1.4l1.1-0.9l0-0.1v0l-2.2,1.9
	l-1.3,1.7l-0.5,0.8l-0.4,1.1l-0.3,1.6v1.5l0,0.1l0.1,0.7v0.1l0.6,1.6v0l0.4,0.8l2.3,2.9l3.4,2.6l3.2,1.7l4.8,1.7l1.3,0.3h0l1.2,0.3
	h0.2l6.6,0.7l5.3-0.2l4.8-1l4.4-1.8l0-0.1l0.8-0.4l1.7-1.2l0.2-0.1l1.8-1.8l0.9-1.4l0.8-2.3l0.1-0.7v-0.1v-1.5l0-0.1l0-0.7l0-0.1
	l-0.2-0.8l-0.7-1.6l-1.1-1.7L247.6,28 M233.3,31.9h-3.7l-3.3-0.4l-0.3,4.1l4.5,0.4l4.9-0.3l3.4-0.7l3-1.1l2.5-1.5l2-1.8l0.4-0.5
	l0.3-0.6l0.1-0.1l0.5-1.2l0-0.1l0,0l0.5-4.8l-0.4,1.4L247,26l-1,1.2l-1.3,1.2l-1.6,1l-2.8,1.2L233.3,31.9 M229.1,29.3l-3.3-0.5
	l-3-0.9l-1.8-0.8l-2.4-1.5l-1.7-1.6l-1.1-1.8l-0.3-1.3l0.2-4.1l0.1-1.3l0.4-1.3l0.4-0.6l0.1-0.2L217,13v-0.2l1-0.9l0.3-0.2l-2.3,1
	l-1.6,1l-1.9,1.7l-0.9,1.3l-0.6,1.4l-0.2,1.4v0.7v0.5l15.4,10.7l3.3,0.4h3.7l6.9-1.3l2.8-1.2l1.6-1l1.3-1.2l1-1.2l0.8-1.4l0.4-1.4
	l0-1.9l-4.1-2.9v0.5l-0.3,3.5l-0.1,0.6l-0.5,1.2l-1.3,1.6l-1.2,1l-2.4,1.1l-1.8,0.6l-3,0.6L229.1,29.3 M240.2,27.8l0.5,0.1l0.2,0.1
	l0.1,0.3l0,0.2l-0.1,0.1l-0.4,0.2H240l-0.6-0.1l-0.2-0.1l-0.1-0.1v-0.3l0.1-0.2l0.4-0.2H240.2 M232.3,25.5l-5-0.3l-5.8-1.8l-2.5-1.6
	h0l-0.7-0.6l-1.1-1.1l-0.5-0.7l-0.7-1.2l-0.4-1.5l-0.2,4.1l0.3,1.3l1.1,1.8l1.7,1.6l2.4,1.5l1.8,0.8l3,0.9l3.3,0.5l4.3,0l3-0.6
	l1.8-0.6l2.4-1.1l1.2-1l1.3-1.6l0.5-1.2l0.1-0.6l0.3-3.5l-0.2,0.7l-0.7,1.4l-1.6,1.6l-0.6,0.4l-0.1,0.1l-0.7,0.4h0l-1.6,0.8h0
	l-0.8,0.3l-0.1,0l-2.9,0.7L232.3,25.5 M242.8,15.4L243,16l0.1,1.2l-0.1,0.6l-0.4,1.2l-0.3,0.5l-0.9,1.1l-1.2,0.9l-2.3,1.1l-2.7,0.8
	l-3.1,0.4l-3.2-0.1l-5.9-1.5l-2.5-1.3l-1.4-1l-1-1.2l-0.8-1.2l-0.2-0.6l-0.3-1.2v-0.6l0.2-1.2l0.6-1.1l0.8-1l1.2-0.9h-0.2l0,0
	l-1.1,0.7l-0.3,0.2l-1,0.9V13l-0.4,0.4l-0.1,0.2l-0.4,0.6l-0.4,1.3l-0.1,1.3l0.4,1.5l0.7,1.2l0.5,0.7l1.1,1.1l0.7,0.6h0l2.5,1.6
	l5.8,1.8l5,0.3l2.5-0.2l2.9-0.7l0.1,0l0.8-0.3h0l1.6-0.8h0l0.7-0.4l0.1-0.1l0.6-0.4l1.6-1.6l0.7-1.4l0.2-0.7v-0.5l0-1.5l-0.6-1.5
	l-0.9-1.2l-1.1-1.1l-0.7-0.5l0.4,0.4l0.9,1.2L242.8,15.4 M231.9,8.8l-5.2-0.1l-3,0.5l-2.5,0.8l-1.5,0.8l-1.2,0.9l-0.8,1l-0.6,1.1
	l-0.2,1.2v0.6l0.3,1.2l0.2,0.6l0.8,1.2l1,1.2l1.4,1l2.5,1.3l5.9,1.5l3.2,0.1l3.1-0.4l2.7-0.8l2.3-1.1l1.2-0.9l0.9-1.1l0.3-0.5
	l0.4-1.2l0.1-0.6L243,16l-0.2-0.6l-0.6-1.2l-0.9-1.2l-0.4-0.4h0l-0.6-0.5l-0.9-0.7l-1.6-0.9l-2.8-1L231.9,8.8 M233,9.9l0.3,0l0.3,0
	l0.4,0.3l0.1,0.2l0,0.2l0,0.2l-0.3,0.5l-0.6,0.2h-0.6l-0.5-0.3l0-0.2l-0.1-0.2l0.1-0.4l0.5-0.3L233,9.9 M234.6,14.4l1,1.2l0.2,0.5
	l0.1,0.5l0,0.4l-0.3,0.8l-0.7,0.7l-1,0.6l-0.6,0.2l-1.5,0.3l-2,0.1l-0.7-0.1h0l-2.1-0.5v0l-0.7-0.2l-0.5-0.4l-0.2-0.1l-0.1,0
	l-0.7-0.5l-0.3-0.3l-0.4-0.9l-0.1-0.4v-0.5l0.3-0.8l0.3-0.4l0.8-0.7l0.5-0.3l1.9-0.5l1.4-0.1l1.5,0.1l2.1,0.5h0L234.6,14.4
	 M235.8,21l0-0.2l0.2-0.3h0.9l0.7,0.3l0.5,0.4l0.1,0.2v0.2l-0.1,0.1l-0.4,0.2l-0.3,0l-0.7-0.2l-0.6-0.3l-0.2-0.2L235.8,21
	 M219.7,16.3l0.8,0.1l0.5,0.3l0.1,0.1V17l-0.3,0.3l-1.1,0.1l-1-0.1l-0.3-0.3v-0.2l0.1-0.1l0.2-0.1l0.3-0.1L219.7,16.3 M228.7,13
	l-0.6,0.5l-1.9,1.1l-1,0.3l-0.6,0l0,0l0.5,1.9l0.6,1.3l0.1,0.1l0.2,0.1l2.1,0.8l0.2,0L228.7,13 M233.8,18.7l0.4-4.4l-1.7,0l-1.8-0.5
	l-1.9-0.8h0l-0.5,6.3l0.9,0.2l0.7,0.1l2-0.1l1.5-0.6L233.8,18.7 M231.9,17.4l0.1,0.4l0,0.3v0.4l-0.3,0.6l-0.2,0.2l-0.3,0l-0.3,0
	l-0.3-0.1l-0.2-0.2l-0.3-0.6l0-0.3l0.1-0.6l0.2-0.3l0.2-0.1l0.3-0.1h0.2l0.3,0.1L231.9,17.4 M235.4,17.7l-0.5-0.9l-0.8-2.5l-0.4,4.4
	L235.4,17.7 M235.6,15.5l-1-1.2l-1.7-0.9h0l-2.1-0.5l-1.5-0.1l-1.4,0.1l-1.9,0.5l-0.5,0.3l-0.8,0.7l-0.3,0.4l-0.3,0.8v0.5l0.1,0.4
	l0.4,0.9l0.3,0.3l0.7,0.5v0l-0.6-1.3l-0.5-1.9l0,0l0.6,0l1-0.3l1.9-1.1l0.6-0.5h0l1.9,0.8l1.8,0.5l1.7,0l0.8,2.5l0.5,0.9l-1.6,1
	l-0.6,0.3l-1.5,0.6l1.5-0.3l0.6-0.2l1-0.6l0.7-0.7l0.3-0.8l0-0.4l-0.1-0.5L235.6,15.5z"/>
<path id="Layer1_3_1_STROKES" class="st6" d="M233,9.9l-0.3,0.1l-0.5,0.3l-0.1,0.4l0.1,0.2l0,0.2l0.5,0.3h0.6l0.6-0.2l0.3-0.5l0-0.2
	l0-0.2l-0.1-0.2l-0.4-0.3l-0.3,0L233,9.9z M210.9,20.2v-0.7l0.2-1.4l0.6-1.4l0.9-1.3l1.9-1.7l1.6-1l2.3-1l1.1-0.7l0,0h0.2l1.5-0.8
	l2.5-0.8l3-0.5l5.2,0.1l3,0.7l2.8,1l1.6,0.9l0.9,0.7l0.5,0.4l0.1,0.1h0l0.7,0.5l1.1,1.1l0.9,1.2l0.6,1.5l0,1.5l4.1,2.9l0,1.9
	l-0.5,4.8l0,0l1.1,1.3l1.1,1.7l0.7,1.6l0.2,0.8l0,0.1l0,0.7l0,0.1v1.5l4.7,3.7l0.7,1.6h0l0.6,1.9v0l0,0.3l-0.4,4.6l1.7,3.7l0.4,1.9
	l0,1l-0.1,1.9l-0.7,8l13.9-6.5l0.5-0.1l0.6-0.1l1.2,0.1l0.6,0.2l1.8,0.9l1.7,1.6l1.6,2L281,65l0.9,2.6l0.4,3.3l-0.1,1.5l-0.6,1.9
	l-0.7,0.9l-0.9,0.7l-22.5,10.5l12.2,8.7l0.6,0.3l1,0.9l0.5,0.5l0.9,2v0.2l1,1.5l1.6,2.7l1.2,2.5l-0.8,2.4l0.3,0.2l1.3,0.9l1.5,1
	l1.3,0.9l0.8,0.6l0.6,0.4l0.7,0.8l0.2,0.5l0.3,1.2l0,2l-0.4,2.5l-0.9,2L280,123l-2.1,1.9l-1.1,0.7l-1.7,0.7h0l-0.6,0.2l-0.5,0
	l-0.1,0.1h-1l-0.6-0.1l-0.4-0.2l-0.8-0.5l-0.9-0.6l-0.4-0.3v0l-1.2-0.8l-0.9-0.7l-1.2-0.9l-1-0.7l-1.2,0.6l3.6,2.5l0.5,0.4l0.9,1
	l0.9,1.9l0,0.2l1,1.5l1.6,2.7l1.2,2.5l-0.8,2.5l4.5,3.1l1,0.8l0.8,0.7l0.4,0.8l0.2,0.7l0,1.2l-0.1,0.7l0,1.1l-0.5,1.9l-0.9,2
	l-1.8,2.4l-1,1l-1.7,1l-1.6,0.8h-0.1l-1.1,0.3h-1.1l-0.5-0.1l-0.8-0.4l-1.1-0.8l-0.4-0.2l-0.2-0.2l-0.7-0.5l-0.3-0.2l-0.1,0l0-0.1
	l-0.4-0.3l-0.8-0.5l-1-0.7l-0.4-0.3l-0.6-0.4l-2.9,1.4l-4.3,1.5l-3.2-2.2l-1.8-0.4l-1.2-0.6l-4.2-3l-14.8,6.6l-1.1,0.2l-0.9-0.1
	h-0.4l-0.8-0.2l-1.8-0.9l-1.3-1.1l-1-1.2l-4.8,0l-5.3-0.9h-0.1l-4.1-1.4l-4.9-3l-1.6-1.6l-1.3-1.8l-0.8-1.9l-0.3-1.4l0-1.1l1-12.9
	l-10.4,4.8l-0.1,0l-1.8,0.8l-1.4,0l-1.5-0.3l-2,0.1h-3.2l-2.7-0.2l-1.6-1.9l-1.5,0.7l-1.2,0.6l-1.9,0.8l-1.3,0.6l-0.8,0.4l-0.3,0
	l-0.2,0.1l-0.9-0.1l-0.6-0.1H167l-1.1-0.5v0l-1-0.8l-0.5-0.3l-1-0.8l-1.7-2.3l-0.9-2.1l-0.6-2.8l0-1.8l0.1-1.2l0,0l0.1-0.6l0.5-1.1
	l0.6-0.8l0.4-0.3l0.5-0.2l0.4-0.2h0l1.6-0.8l1.2-0.6l1.5-0.7l0.2-0.1l0.3,0l1-0.5l0.3-0.2l0.3-3.2v0l0.3-1.9l0.1-0.2l-2.1,0.9
	l-2.6,1.2l-0.3,0.2l-1.5,0.4l-1,0l-1.6-0.4l-1.3-0.7h-0.1l-1.4-1l-1.4-1l-1.2-1.3l-2.1-3.2l-1.2-2.6l-0.7-2.7l-0.2-2.3l0-0.3l0-0.3
	 M151,93.2l0.1-0.2l0-0.8l0,0l0.1-0.7l0-0.1l0.1-0.6l0.1-0.1l0.6-1.3l0.4-0.6l0.3-0.3l0.5-0.4l0.2-0.1l0.3-0.2l0.5-0.2l3.1-1.5
	l2.5-1.2l2.3-1l2.6-1.2l2.5-1.2l2.3-1l0.4-0.2l1.2-14l1.8-0.8l2-0.9l0-1l19.5-9.1l0.4-4.1l0.2-1.9l0.7-1.8l1-1.8l1.7-2.1
	 M201.8,36.3l0.8-1v0l2.8-4.7l0.8-0.4l0.4-1.1l0.5-0.8l1.3-1.7l2.2-1.9l-0.1-0.4l0.1-0.7l0.1-1.3c0-0.3,0-0.5,0-0.8l0-1.3v0.5
	l15.4,10.7l3.3,0.4h3.7l6.9-1.3l2.8-1.2l1.6-1l1.3-1.2l1-1.2l0.8-1.4l0.4-1.4 M240.2,12.1l0.6,0.5 M240.8,12.6l0.4,0.4l0.9,1.2
	l0.6,1.2L243,16l0.1,1.2l-0.1,0.6l-0.4,1.2l-0.3,0.5l-0.9,1.1l-1.2,0.9l-2.3,1.1l-2.7,0.8l-3.1,0.4l-3.2-0.1l-5.9-1.5l-2.5-1.3
	l-1.4-1l-1-1.2l-0.8-1.2l-0.2-0.6l-0.3-1.2v-0.6l0.2-1.2l0.6-1.1l0.8-1l1.2-0.9 M225.6,18.2l-0.7-0.5l-0.3-0.3l-0.4-0.9l-0.1-0.4
	v-0.5l0.3-0.8l0.3-0.4l0.8-0.7l0.5-0.3l1.9-0.5l1.4-0.1l1.5,0.1l2.1,0.5h0l1.7,0.9l1,1.2l0.2,0.5l0.1,0.5l0,0.4l-0.3,0.8l-0.7,0.7
	l-1,0.6l-0.6,0.2l-1.5,0.3l-2,0.1l-0.7-0.1h0l-2.1-0.5v0l-0.7-0.2l-0.5-0.4L225.6,18.2L225.6,18.2z M225.6,18.2l-0.6-1.3l-0.5-1.9
	l0,0l0.6,0l1-0.3l1.9-1.1l0.6-0.5h0l1.9,0.8l1.8,0.5l1.7,0l0.8,2.5l0.5,0.9l-1.6,1l-0.6,0.3l-1.5,0.6 M235.8,21l0.1,0.2l0.2,0.2
	l0.6,0.3l0.7,0.2l0.3,0l0.4-0.2l0.1-0.1v-0.2l-0.1-0.2l-0.5-0.4l-0.7-0.3H236l-0.2,0.3L235.8,21z M234.2,14.3l-0.4,4.4 M225.9,18.4
	l2.1,0.8l0.2,0l0.5-6.3 M225.6,18.2L225.6,18.2 M231.9,17.4l-0.4-0.4l-0.3-0.1H231l-0.3,0.1l-0.2,0.1l-0.2,0.3l-0.1,0.6l0,0.3
	l0.3,0.6l0.2,0.2l0.3,0.1l0.3,0l0.3,0l0.2-0.2l0.3-0.6v-0.4l0-0.3L231.9,17.4z M228.2,19.3l0.9,0.2 M233.5,29.3l3-0.6l1.8-0.6
	l2.4-1.1l1.2-1l1.3-1.6l0.5-1.2l0.1-0.6l0.3-3.5l-0.2,0.7l-0.7,1.4l-1.6,1.6l-0.6,0.4l-0.1,0.1l-0.7,0.4h0l-1.6,0.8h0l-0.8,0.3
	l-0.1,0l-2.9,0.7l-2.5,0.2l-5-0.3l-5.8-1.8l-2.5-1.6h0l-0.7-0.6l-1.1-1.1l-0.5-0.7l-0.7-1.2l-0.4-1.5l-0.2,4.1l0.3,1.3l1.1,1.8
	l1.7,1.6l2.4,1.5l1.8,0.8l3,0.9l3.3,0.5L233.5,29.3z M239.1,28.2v0.3l0.1,0.1l0.2,0.1L240,29h0.6l0.4-0.2l0.1-0.1l0-0.2l-0.1-0.3
	l-0.2-0.1l-0.5-0.1h-0.6l-0.4,0.2L239.1,28.2z M244.1,18.9v-0.5 M226.3,31.5l-0.3,4.1l4.5,0.4l4.9-0.3l3.4-0.7l3-1.1l2.5-1.5l2-1.8
	l0.4-0.5l0.3-0.6l0.1-0.1l0.5-1.2l0-0.1 M246.6,30l0.9,1.6l0.5,1.3v0.3l0.2,1.2l0,0.8l-0.1,0.4l-0.2,1l-0.7,1.5l-0.9,1.3l-1.2,1.2
	l1.2-0.9l1.1-1.4l0.4-0.8l0.6-1.5l0.1-0.8l0.1-1.6l-0.7-2.4l-1-1.8 M248.1,35.5l0-1l-0.4-1.5l-0.3-0.7l-1.1-1.8 M247.6,28.1l1.6,2.2
	v0l0.7,1.6l0.4,1.6l-0.1,2.5l-0.6,1.5l-0.4,0.8l-1.1,1.5l-1.3,1.3l-2.6,1.7l-3.2,1.4l-3.6,1l-5.3,0.6l-4.2-0.1l-6.7-1.1l-4.9-1.8
	l-2.2-1.1l-3.6-2.7l-1.9-2.3l-0.9-1.6l-0.3-0.8l-0.3-1.6V31l0.1-0.8l0.5-1.5l0-0.1l0.8-1.4l1.2-1.4l1.1-0.9l0-0.1v0l0-1.1
	 M219.7,16.3l-0.8,0.1l-0.3,0.1l-0.2,0.1l-0.1,0.1V17l0.3,0.3l1,0.1l1.1-0.1l0.3-0.3v-0.2l-0.1-0.1l-0.5-0.3L219.7,16.3z
	 M218.4,11.7l-0.3,0.2l-1,0.9V13l-0.4,0.4l-0.1,0.2l-0.4,0.6l-0.4,1.3l-0.1,1.3 M210.8,21.5l0-0.8 M210.2,27.1l-0.9,1.5l-0.6,1.5
	l-0.2,0.8l0,0.8l0.1,1.6l0.5,1.6l1.7,2.6l-1.4-2.4l-0.4-1.2v-0.3l-0.1-0.4l0-1.3v-0.2l0.3-1.5l0.5-1.2l0.9-1.4l1.7-1.6l-0.5-0.3
	L210.2,27.1z M212.2,26l0.7,0.5l1,0.7h0l1.1,0.9l2.2,1.8l0.1,0.1l4.2,2.7l0.2,0l4.2,2.9 M212.9,26.4l-0.3,0.1l-2,1.8l-1,1.4
	l-0.9,2.1 M210.6,24.8l1.1,0.8 M250.2,43.6l0.3-2.8v-0.2l0.4-4.9l-0.1,0.7l-0.8,2.3l-0.9,1.4l-1.8,1.8l-0.2,0.1l-1.7,1.2l-0.8,0.4
	l0,0.1l-4.4,1.8l-4.8,1l-5.3,0.2l-6.6-0.7h-0.2l-1.2-0.3h0l-1.3-0.3l-4.8-1.7l-3.2-1.7l-3.4-2.6l-2.3-2.9l-0.4-0.8v0l-0.6-1.6V34
	l-0.1-0.7l0-0.1v-1.5l-0.2,0.3l-0.3,5.2l-0.2,2.4l-0.3,2.8l0.1,1.1l0.2,0.8l1,2.3l1.8,2.4l1.2,1.1l3.1,2l6.2,2.6l5.7,1.3l7.3,0.3
	l5.6-0.7l5-1.5l1-0.5h0l2.5-1.5l2.9-2.7l1.1-2l0.3-1.1L250.2,43.6V46l-0.1,0.4 M202.6,35.3l3.3-3.5l0.3-1.6 M214.8,31.2l0.3-3.2
	 M210.8,37.5l0.3,0.4l2.5,2l3.1,1.8l3.5,1.4l3.9,1l5.5,0.6l5.4-0.2l2.5-0.5l3.5-1.1l2.9-1.5l1.2-0.9 M205.4,37.3l-0.9,2.1l-0.2,1.7
	l0.1,1.7l0.5,1.7l0.8,1.6l2.4,2.9 M201.4,45.1l1.2,2.2l2.1,2.5l1.8,1.5l3.1,2.1l4.9,2.4l5.7,1.6l4.9,0.8 M236.3,58.1l7.2-1.7
	l1.2-0.5l0.2-0.1l-0.2-0.3l0-0.1l0.1-0.4l0.8-0.3h0.3l0.9,0.3l2.2-1.3l1.7-1.3l2.6-3v0l0.1-0.2l0.1-0.1l0.6-1.3l0.6-2.5v-1.7
	l-0.4-1.7l-0.7-1.8l-2.7-4v-0.1 M201.6,36.9l0.2-0.4L201.6,36.9L201.6,36.9l-0.3,0.6l-0.3,0.7l-0.3,2.5l-0.1,0.6l0.4,2.5l0.6,0.1
	l0.3,0.1l0.4,0.3l0.1,0.1v0.2l0,0.2l-0.1,0.1L202,45l-0.3,0.1h-0.3l-0.3,0.1l-0.9-0.1V45l-0.1-0.1l-0.1-0.1v-0.2l0-0.2l0.2-0.2
	l0.2-0.1v0l0.2-0.1l0.3-0.1 M200.9,38.2L200.9,38.2l0.3-0.7 M200.5,53.4l-1.3-1l-0.4-0.7l-0.7-1.8h0l-0.2-0.8v-0.1l0-0.3l0.5-5v-0.1
	l-0.1-0.3l0.5-0.8l-0.3,0.3 M199.1,52.4l0.5-5.4l-1.1-2.5l-0.2-0.9 M204.9,42.5l-0.1-0.5l0.1-1.2l0.3-1.2 M200.9,38.2l-2.2,4.2
	 M194.4,54.4l0.8-0.4l-0.3-1.8l0-1.9 M253.3,54.6l0,0.1l-0.1,0.9l-0.4,1.7l-0.8,1.7l-1.1,1.6l-1.5,1.6l-2.7,2l-4.6,2.2l-5.4,1.4
	l-4.4,0.6h-6.2l-6.1-0.9l-1.4-0.3h0l-6.9-2.4l-4.7-2.6l-2.8-2.3l-1.5-1.6l-1.6-2.6l-0.7-1.8v-0.2l6,4.7l8.5,5.3l0.5-5.3l-7.9-6.1
	l-8-5 M196.3,63.2l-1.4,0.7l-0.3,0.3l-0.5,0.6l-0.1,0.4l0,0.7l0.1,0.4l0.4,0.7l0.6,0.6v-0.3l0-0.4l0.3-0.5l0.7-0.5l0.4-0.2l1.5-0.3
	l1.6,0.1l1.4,0.5l0.8,0.5l0.5,0.6l0.1,0.3l0,0.7l0.8-0.5l0.2-0.3l0.4-0.7v-0.3l-0.1-0.8l-0.8-1l-0.8-0.6l-1-0.4l-2.4-0.5L196.3,63.2
	z M195,67.5l1.1,0.6l1.7,0.5l1.2,0.2h0.6l1.8-0.3l1-0.4 M189.2,87.7l-0.1-0.2l-0.1-0.3l-0.2-0.1l-0.3-0.5l0-0.1l-0.3-0.5l-0.3-0.8
	v-0.1l-0.1-0.9v-0.2l0-0.2l0.2-1.1l0-0.1l0.5-0.5l0.2-0.1l2.3-1l0.3,0h0.3l0.7,0.2l0.7,0.5l1,1.2l0.5,1l0.4,1.5l0,0.9l-0.2,0.8
	l-0.2,0.3l-0.5,0.4l-1.9,0.8l-0.6,0.2h-0.4l-0.3-0.1l-0.3,0l-0.3-0.5l0,0l0-0.2l0-0.1v0l-0.2-0.6v-1.3l0.1,0v-0.3l0.2-0.9l0.9-1.8h0
	v-0.2l-0.7-0.5 M198.2,79.7l-0.1,1l0.7,1.5l-2.3,26.1l18.6-8.7l0.3-0.1l0.4-0.7l0.1-0.3l2.5-28.2L198.2,79.7L175.9,64l-0.9,0.4
	 M172.9,65.4l21.6,15.1l2.9-1.3l0.7,1.6 M221.3,65l0.4-5.3l-2.1-0.5h-0.1l-1.5-0.4h0l-1.4-0.4l-0.1,0l-1-0.3 M215,63.5l2.5,0.8h0.1
	l1.5,0.4h0l2.2,0.4l12.2-0.2l10.9-1.3l0.4-5.3l-9.5,0.1h-1.2l-0.2,0.1h-0.7l-11.5,1.3 M218.5,70.3l4.6,0.7l8.2,0.5l0.7,0l1.7-0.8
	l0.9,0.7l8.9-1.7l5.2-2l2.3-1.2l2.9-2.2l2.3-2.5l1.1-1.7l0.8-1.8l0.5-1.9 M175.1,68.8l0.4,0.1l0.7,0.6l0.7,0.7l0.5,0.9l0.4,1
	l0.2,1.4l-0.1,0.8c0,0.1-0.1,0.1-0.1,0.2c-0.1,0.3-0.3,0.6-0.8,0.8l-2.3,1.1h-1l-0.2-0.1l-0.2-0.2l-0.1-0.2l-0.3-0.2h-0.1l-0.1,0
	h-0.1l0,0l-0.3-0.5v0l-0.6-0.7l-0.5-1.3v0l-0.2-1.2v-0.2l0-0.2v-0.2l0.1-0.5l0.3-0.6l0.2-0.2l0.3-0.1l2.3-1.1l0.2,0h0.4L175.1,68.8z
	 M175.9,64l-0.9-0.6 M173.4,69.9l0.7,0.5v0.1l-0.1,0.1l0.3,0.2l0.3,0.4l0,0l0.6,0.9l0.2,0.6l0.1,0.3l0.2,1v0.7l-0.2,0.8l-0.3,0.4
	l-0.2,0.2l-0.2,0.1l-0.1,0.1 M172.3,75.2l-0.1-0.3v0l-0.1-0.3l0-0.3l0-0.1v-1l0-0.1V73l0-0.1v-0.2l0.6-1.9l0.4-0.8l-0.3,0v-0.1h-0.7
	l-0.3,0.1 M174.1,70.6l-0.8,1.7l-0.2,0.8v0.3l-0.1,0.2v0.3l0,0v0.8l0,0.2V75l0.1,0.6v0l0.1,0.3l0,0 M176.4,74.7L176.4,74.7l0,0.1
	l0.1,0.1h0.1l0.1,0l0.4-0.3l0.2-0.3h0l0-0.2v-0.2l0,0l0-0.1l-0.3-0.1l-0.2,0l-0.4,0.5l0,0.2v0L176.4,74.7L176.4,74.7z M169.6,80.4
	l0.6-0.1h1.2l1.3,0.3l0.1,0l0.6,0.2l0.7,0.4v0l1.4,0.9h0l0.6,0.6L178,85l0.1,0.2l0.6,0.8l1.6,2.8l0.6,1.5l0.8,2.6l0.2,1L182,94
	l0.2,2.7l0,0.1l-0.3,2.4l0,0.1l-0.2,0.7l-0.6,1.1l-0.4,0.6l-1.5,1.4l1.2-0.6l1.2-0.6l1.2-0.9l0.3-0.3l0.1-0.2l0.3-0.3l0.6-1.3
	l0.1-0.1l0.1-0.6v-0.1l0.2-0.8v0l0.1-1.6l-0.4-3.7l-1.2-3.8l-2-3.5l-2.5-2.9l-0.7-0.5v0l-1.4-1l-1.5-0.7l-1.4-0.4l-1.1,0l-0.5,0.1
	l-2.2,1 M186.9,99.4L186.9,99.4l0.3-0.3l0.2-0.3l0.2-0.1l0.6-1l0.3-0.7l0.2-0.8l0,0l0.1-0.8l0.1-3.5l-0.1-0.1l-0.2-1.7l-1-3.3
	l-1.2-2.4l-2.2-3.2l-2-1.9l-1.3-0.9h0l-0.8-0.4l-1.3-0.5l-0.7-0.1l-1.3,0l-0.6,0.1l-2.1,0.8l1,0l0.2,0l0.5,0.1h0.1l1.4,0.3l1.3,0.7
	h0l1.4,0.9l2.5,2.7l1.7,2.5l1.1,2.4l1,3.3l0.3,1.7v0.2l0.1,1.8l-0.2,1.6l0,0l0,0.7l-0.6,1.4l0,0.1l-0.6,1l-0.8,0.8l1.7-0.8
	L186.9,99.4l-0.1,0.1l-0.3,0.1 M174.3,78.2l-2.2,1 M164.8,82.6l0.6,0l1.1,0l1.5,0.3l1.4,0.7l1.4,0.9l0.7,0.6l0.1,0.1l0.6,0.5l0,0.1
	l1.2,1.3l1.3,2l1.6,3.3l0.9,2.9l0.4,2.6l-0.1,2.7l-0.1,0.8h-0.1l-0.2,0.8l-0.2,0.5l0,0.2L176,104l-0.4,0.5l-0.4,0.4l-0.8,0.5
	l2.7-1.3l0.6-0.3l0.4-0.4l0.8-1l0.8-1.9v-0.1l0.1-0.7v-0.1L180,98l-0.4-3.7l-1-3.3l-1.1-2.4l-2.3-3.3l-2-1.9l-1.3-0.9h0l-0.7-0.4
	l-2.2-0.7h-1.7 M160,84.8l0.4,0.1l0.2-0.1l1.1,0l1.5,0.4l1.4,0.7l1.3,0.9h0.1l1.9,1.9l1.8,2.4l2.4,5.6l0.5,2.7l0,0.1l0,0.8l0,0.1
	l0,1.7l-0.3,1.5v0.1l-0.2,0.8l-0.6,1.2l-0.5,0.6l-1,0.9l0.4-0.1l1.7-0.8l0.2-0.2l0.2-0.1l0.5-0.4l0.8-1l0.8-1.9v-0.1l0.1-0.8
	l0.1-3.4l-0.2-0.9v-0.2l-0.4-1.7l-1.2-3.3l-1.8-3.1l-2.4-2.8l-2.2-1.6v0l-0.7-0.3v0l-1.3-0.5l-1.9-0.2l-0.2,0.1l-0.4,0 M167.5,108.5
	l0.8-0.6l0.8-1l0.6-1.3l0.1-0.6v0l0.2-0.7l0.1-2.6l0-0.1l0-0.9l-0.3-1.8l-1.2-3.8l-0.9-1.8l-2.1-3.1l-2.1-2l-1.3-0.9v0l-1.4-0.7
	l-1.5-0.4h-1.7 M154.4,87.5l1.1-0.3l1.1,0l1.4,0.3l1.5,0.7l1.4,1v0l0.7,0.5l0,0.1l1.2,1.2l2.3,3.3l1.3,2.7l0.8,2.6l0.1,1l0.1,0.2
	l0.1,0.8l0,2.8l-0.3,1.5v0.1l-0.5,1.3l-0.3,0.6l-0.8,1l-0.9,0.6 M177.1,104.1l1.7-0.8l0.4-0.2 M178.8,103.3h2.6l-1-0.8 M184.2,100.9
	l0.5-0.3l-0.8,0.4L184.2,100.9z M184.8,100.5L184.8,100.5 M174.4,105.3l-0.2,0.1h1.8l3.8-0.3l2.6-1.2l-0.9-0.7 M189.7,107.6l-0.2,0
	l-0.1,0H189l-0.6-0.1l-0.2-0.5l-0.4-0.1v0h0l0,0h-0.1l0,0l-0.3-0.5l-0.3-0.3l-0.5-0.9l-0.3-0.9v0l-0.1-0.5v-0.1l-0.1-0.3v-0.8
	l0.1-0.5l0.2-0.5l0.4-0.5l0.5-0.2l1.9-0.8c0.2,0,0.3,0,0.6,0c0.2,0,0.3,0,0.5,0c0.1,0,0.2,0.1,0.3,0.1h0l0,0l0.7,0.5l1.2,1.6
	l0.5,1.5l0.1,1l0,0.4l-0.4,1l-0.2,0.2l-2.2,1l0,0L189.7,107.6L189.7,107.6l0.3-0.1l0.4-0.5l0.1-0.4l0.1-0.8l-0.2-1.5l-0.1-0.3
	l-0.1-0.5l-0.6-1l-0.6-0.7l-0.8,1.8l-0.2,0.9v0.1l0,0.1v0.1l0,0.1v1.1l0,0l0.1,0.6l0.2,0.4 M184,100.9l-2.3,1.1 M157.9,90.6
	l-0.6-0.2l-1.1-0.2h-0.6l-1,0.2l-0.5,0.2l-0.8,0.6l-0.6,0.9l-0.4,1.2l-0.2,1.4l0,1.6l0.6,3.3l0.6,1.7l1.3,2.4l1.5,2l0.6,0.6l1.8,1.4
	l1.7,0.7l1.7,0l0.5-0.1l0.4-0.2l0.4-0.3l0.8-0.8l0.6-1l0.4-2v-1.6l-0.3-2.5l-1.6-4.1l-1.5-2.1l-1.1-1.2l-1.2-1L157.9,90.6z
	 M151,94.5l0.1-1.3l0.3-1.4l0.6-1.2l0.7-0.9l0.9-0.6l1.1-0.3h1.2l1.2,0.3l0.7,0.3l2.6,1.8l1.8,2l0.5,0.8l1.4,2.5l1.3,3.6l0.4,2.7
	l0,1.6l-0.2,1.5l-0.5,1.3l-0.7,1l-0.4,0.4l-0.9,0.7l-1.1,0.3h-1.2l-1.3-0.3l-1.3-0.7l-0.6-0.4 M170,131.5l0.3-0.1l0.7-0.9l0.5-1.2h0
	l0.1-0.6v-0.1l0.1-1.4l-0.2-2.3l-1.3-3.6l-0.6-1l-1.5-2l-1.6-1.5l-1.1-0.7h-0.1l-1.2-0.4h-0.9l-0.5,0l-0.5,0.2 M171.3,130.9l1.1-1
	l0.6-0.9l0.1-0.5v-0.1l0.2-0.6l0.1-2.3l-0.8-3.3l-1.1-2.5l-0.5-0.8l-1.1-1.3l-0.1-0.2l-1.1-1l-1.2-0.8l-1.1-0.5h-0.1L166,115h-0.1
	l-0.4,0l-0.2,0h-0.5l-0.3,0.1 M173.2,130l0.4-0.3l0.4-0.4l0.1-0.1l0.1-0.4l0.1-0.1l0.3-0.5l0.1-0.5l0,0l0.1-0.6v0l0.1-0.7v-1.6
	l-0.2-1.4l-0.1-0.2l-0.2-0.9l-0.8-2.1l-0.8-1.5l-1.9-2.4l-0.1-0.1l-0.5-0.4l0-0.1l-1.1-0.8h-0.1l-0.6-0.3l-0.5-0.2l-0.1,0l-1.5-0.1
	l-0.9,0.2 M169.1,127.1v0.2l-0.4,1.6l-0.6,0.8l-0.8,0.5l-0.4,0.1h-0.5l-1-0.2l-0.5-0.3l-1-0.8l-1.4-1.5l-1.4-2.7l-0.5-2.1v-1.3
	l0.4-1.6h0l0.6-0.8l0.8-0.5l0.9-0.1l0.9,0.2l1.3,0.8l1.3,1.2l0.8,1.2l0.7,1.4l0.6,2.1l0.1,0.7h0V127.1l-0.2-0.1v0l-0.8-0.6l-0.8-0.8
	l0-0.1l-0.3-0.4l0,0l-0.4-0.6l-0.7-1.6l-0.2-0.6l-0.2-1.4v-1.1l0.1-0.4 M160.1,120.4l0.3-1.1l0.5-0.8l0.7-0.6l0.4-0.2l0.4,0l1.4,0
	l1.6,0.8l0.9,0.8l1.4,1.6l0.8,1.3l1.2,3.5v2.6l-0.4,1l-0.5,0.8l-0.3,0.3l-0.4,0.3l-0.8,0.3l-0.5,0l-0.9-0.1l-1-0.5 M176,105.5
	l1.7,0.6l1.5,0.8l2,1.8l0.9,1l-2.4-4.6 M168.6,113.1l0.2,0l0.2-0.1l0.8-0.1h0.1l0.4,0.1h0.1l1,0.3l0.6,0.3h0l1.2,0.8l1.2,1.2
	l0.4,0.5l0.2,0.1l0.3,0.5l0.2,0.2l1.4,2.8l0.8,3.2l0,2.2l-0.1,0.7v0l-0.1,0.6v0.1l-0.4,1l-0.7,0.8l-0.2,0.1l-0.1,0.2l1.7-1l0.5-0.5
	l0.6-1l0.1-0.5l0-0.1l0.1-0.6l0.1-2.2l0,0l-0.1-1.5l-0.1-0.2l-0.1-0.6l-1.6-3.9l-0.8-1.1l-0.1-0.2l-1.6-1.6l-1.1-0.8h0l-1.1-0.6
	h-0.1l-0.4-0.1l-1.6,0l-1.7,0.8 M182.1,109.8l2.8,4.1l3.4,4.1l3.5-1.7l-2.4-4.6l-3.7-5.4l-3.4-2.4 M172.2,106.4l2-0.9 M169.2,109.7
	l0.2-0.8l0.6-1.3l0.4-0.5 M170.1,107.3l-0.2,0.2l-0.3,0.1L170.1,107.3z M167.6,113.6l0.4-0.1l1.6,0.1l1.2,0.6h0l1.7,1.4l0.5,0.5
	l0.1,0.1l0.4,0.5l1.4,2.1l1.2,3.1l0.1,0.6l0.1,0.2l0.1,0.6v3.1l-0.1,0.6l-0.1,0l-0.1,0.5l-0.1,0.1l-0.2,0.4l-0.3,0.4L175,129
	l-0.7,0.5 M167.1,113.8l0.5-0.2 M179.5,124.9l0.3-0.1c0.9-0.4,1.4-1.3,1.5-2.7c0.1-1.4-0.2-2.8-0.8-4.4c-0.7-1.5-1.6-2.6-2.7-3.4
	c-1-0.8-1.9-1-2.8-0.8 M200.6,125.4l19.4-9.2l2.3-2l1.4-1.6v-0.1l0.5-0.8l0.7-1.9l0.1-0.8v-0.9l-0.1-1.1l-0.6-1.6l-0.9-1.5l-1.1-1.1
	l-1.4-1l-2.3-1.2l-3.4-0.6 M222.9,151.6l-0.2-0.2l-1.5-2.2l-1-2.5l-0.8-3.7l0-1.7l0.3-1.5l0.4-0.8l0.2-0.2l0.2-0.4l0.1-0.1l0.5-0.5
	l1.5-1l3.5-1.7l-0.2-0.1v0c-1.3-0.9-2.5-1.7-3.7-2.6l-3.1-3.3l-1.1-1.9l-0.3-0.9v0l-0.3-0.9v0l-0.1-1.7l0.1-1l0.7-1.8l1.5-1.9
	l1.2-1.2l0.1-0.2l1.7-1.3l7.6-4.6l4-2l-9.5-6.7l-0.6-0.6l-0.7-1l-2.3-0.1l-2.7-0.5 M198.8,82.2l-2.9,1.3l-2.3,26.3l2.9-1.4
	 M191.7,88.3l0.2-0.2l0.2-0.4l0.2-1l0-0.5l-0.3-1.4l-0.5-1l-0.3-0.5l0-0.1l-0.5-0.6 M194,85.7l-0.1-0.1h-0.1l-0.1,0l-0.2,0.1
	l-0.1,0.2l-0.1,0.3v0l-0.1,0.2v0.2l0.1,0.1h0.3l0.6-0.6v0l0-0.2v-0.1L194,85.7z M189,87.2l-0.1-0.3l-0.2-0.6v-1.4l0.1-0.2v0l0.1-0.7
	l0.9-2.1l-0.2-0.1h0l-0.3-0.1h-0.3l-0.1,0l-0.2,0 M189.9,87.9l-0.1-0.2 M190.4,100.2C190.4,100.1,190.4,100.1,190.4,100.2
	 M187,100.9h0.4l0.3,0.1h0l0.2,0.1l-0.7,1.3l-0.4,1.4v0l0,0.1v0.2l0,0.1v0.3l0,0.1v0.3l0,0.2v0.2l0.1,0.6l0.1,0.1l0,0.3
	 M188.3,101.1l0.6,0.7 M192.2,104.8l-0.2,0l-0.2,0l-0.1,0.1l-0.3,0.4v0.2h0l0,0.2v0.2l0.1,0.1l0.2,0l0.5-0.3l0.2-0.4l0,0l0-0.2V105
	h0L192.2,104.8L192.2,104.8z M193.7,109.8l-1.7,0.9l-2.7-1.9l2.4,4.4l1.3,4.3l0.4,2.1l0.1,3l-0.1,1.9l-0.7,2.5l-1.1,2l-1.5,1.3
	 M191.8,116.3l0.1,4.1l-0.4,4.1v0.1l-0.8,4.5l-3.6,1.6l-1.7,0.1 M188.3,118l-0.9,4.4v0.1l-0.3,4.1v0.1l0.1,4 M187,126.7l-0.2,0.8
	l-1,1.8l-0.9,0.9l-1.1,0.6l-0.4,0.1 M184.9,113.9l1.8,4.7l0.6,3.9 M195.9,83.5l-1.4-3 M189.2,108.7l-3.4-2.4 M245.8,52.2l0.5-0.3
	l1.6-1.3l1.8-2.2l0.5-0.8l0.6-1.6l0.2-1.7l0-0.8l-0.4-2.7 M241.2,50.6l-0.1,0.5l0.1,0.7l0.1,0.2l0.3,0.2l0.2,0l0.3,0l0.4,0l0.3-0.1
	l0.6-0.4l0.6-0.7l0.6-1.2l0.1-0.7l-0.1-0.7l-0.3-0.4l-0.2-0.1h-0.3l-0.7,0.2l-0.3,0.1l-0.1,0.1l-0.3,0.8l-0.8,1.1L241.2,50.6l0-0.3
	l0.9-1.5l0,0l0.5-0.4 M244.9,55.8l0.3,0.3l0.6,0.2l0.3,0l0.6-0.1l0.2-0.1l0.1-0.2l0-0.2l-0.1-0.5l-0.1-0.2v0 M244.8,58.1l1.3-0.5
	h0.1l2.4-1.1h0l1.1-0.7l3.5-6.5l0.1-0.3 M249.2,61.3l4.1-6.7l3.2-6l0-0.7 M253.5,48.9l3.5-5.7 M235.3,58.3l1-0.1 M225.2,58.1
	l1.1,0.1l6.9,0.1 M232,71.4l-0.7,8.1v0.8l0.1,0.6l0.3,0.7l0.4,0.7l0.6,0.7l0.7,0.5l-0.4-1.5l-0.2-2.5l0.8-8.8 M257.9,64.4l-4.1,1.9
	l-0.1,0.1l-16.8,7.9l-0.3,0.1l-0.6,0.4l-0.8,0.8l-0.4,0.5l0,0.2l0.2-0.4l0.3-0.3l0.6-0.5l0.7-0.3l0.8-0.1h0.4l1.3,0.3l1.4,0.6
	l0.9,0.6l0.8,0.8l2.7,3.6l1,2.4l0.5,1.9l0.2,1.8l-0.1,2.3l-0.4,1.4l-0.7,1.2l-0.6,0.5l-0.3,0.2l-0.7,0.3l-0.8,0.1h0.4l1.1-0.1
	l13.2-6.1 M234.6,76.2l-0.5,0.8l0.5-5.6 M236.8,80.2l-0.2,1v1.2l0.2,1.2l0.5,1.2l0.9,1.7l0.8,0.9l1.3,0.9l0.4,0.1l0.9,0l0.7-0.1
	l0.3-0.2l0.6-0.6l0.3-0.9l0.1-1.1l-0.5-2.4l-0.8-1.7l-1.2-1.5l-0.9-0.7l-0.9-0.4l-0.8-0.1l-0.4,0.1l-0.7,0.4l-0.5,0.7L236.8,80.2z
	 M249.2,61.3l-1.1,0.6h0l-2.3,1.1l0,0l-1.3,0.5 M249.8,55.8l-0.5,5.4 M254.8,122.5l-2.1-3.2l-2.7-5.2l1.6-4.5l2.4-4.9l2.8-4.4
	l3.4-2.1h0l3.7-1.7h0.1l4.3-1.5l3.2,2.2l1.1,1.6 M250,114.2l3.3,2.3l2.5-3.9l0.2-0.4l2.2-4.5l1.8-4.9l-3.2-2.3 M234.4,109.2
	l17.6,12.4l-1-0.9l-1.3-2.5l-0.3-1.6l0-2.6l0.6-2.9l1-3l2.1-4l3.5-4.4l4.1-3.3l2.5-1.3l1.7-0.6l1.6-0.2l1.5,0.1l1.3,0.3l0.6,0.3
	 M233.5,83.5L233.5,83.5l0.2-1.7l0.1,0.6l0.8,2.5l1.1,2.4l1.9,2.6l0.3,0.3l1.4,1.3l1.7,0.9l0.8,0.1l0.9,0h-0.7l-0.2,0 M238,90.2
	l-2.2,1.9l-2.2,2.5l-1.2,1.8l-1.2,2.8l-0.2,0.9v0.1l0,0.2l-0.4,0.5l-0.2,0l-6.7-0.1 M255.9,112.1l-0.9,4l0,2.5l0.2,1l1.6,2.7
	l1.4,0.9l0.6,0.2l1.3,0.1l1.4-0.1l0.7-0.2h0l1.7-0.7 M255.3,119.6l-2.1-3.2 M254.8,122.5h-0.3l-1.4-0.3l-1.2-0.6 M262.4,123.2
	l-4.3,1.5l-3.2-2.2h-0.1 M249.3,151.3l-1.3-1.5l-0.7-1.2l-0.4-1.5l-0.2-3.5l1.1-4.9l3.2-5.9l2.9-3.5l3.3-2.7l2.5-1.5l2.5-0.8
	l1.6-0.2l1.5,0.1l1.3,0.3l1.2,0.7 M256.9,122.3l1.2,2.5 M273.7,100.4l-0.3-0.3l-0.6-0.3l-1.1-0.5l-0.7-0.1l-1.3,0l-1.5,0.3l-3.9,1.8
	L262,103l-3.8,4.6 M271.6,97.2l-3.4,2.2 M265.4,121.9l-0.1-0.1l-1.1-0.8l-0.5-0.5l-0.1-0.4l-0.1-0.1l-0.1-0.4l-0.1-0.1l-0.2-1v-0.1
	l-0.1-0.7l-0.1,0c-0.8-0.6-1.2-1.6-1.1-3.1c0.1-1.4,0.6-2.8,1.6-4.3c1-1.5,2.1-2.5,3.4-3.1c1.3-0.6,2.4-0.7,3.3-0.1l0.6-0.3l0,0
	l0.6-0.2l0.6,0l0.1,0l0.5,0l0.1,0h0.4l0.5,0.1l0.5,0.2l1.3,0.9l0.1,0l0.2-3.7l-0.2-1 M278.7,110.2l-0.8-0.4l-0.5-0.1h-0.4l-0.1,0
	l-0.5,0l-0.1,0l-0.5,0L275,110l-1.9,0.9l0,0l-0.7,0.5l-2.3,2.2l-0.2,0.3l-1,1.5l-0.7,1.6l-0.1,0.2l-0.1,0.6l-0.1,0.1l-0.4,1.4v2.7
	l0.5,1.2l0.2,0.3l0.4,0.5 M275.9,108.2l-1.3-0.3h-0.2l-0.4,0h-0.1l-0.5,0.1h-0.1l-0.6,0.1v0l-1.3,0.6h0l-1.2,0.9l-0.1,0.1l-0.5,0.4
	l-1.4,1.4l-2,3l-0.7,1.6l-0.2,0.8v0l-0.1,0.7v0.1l-0.1,1.4l0.1,1.2l0.3,1l0.6,0.8l0.3,0.2 M277.2,109.2l-0.6-0.3l-0.5-0.1H275
	l-0.5,0.1h0l-0.6,0.2l0,0l-1.3,0.6h0l-0.6,0.3l0,0l-0.6,0.4l-0.1,0.1l-0.5,0.3l-1.6,1.8l-1.8,2.9l-0.8,2.3l-0.1,0.7l-0.1,1.4
	l0.1,1.3l0,0l0.1,0.5l0.6,1.1l0.6,0.6 M265.2,121.8l-0.3-0.2l-0.5-0.6l-0.5-1.3l0-0.5l0-2.1l0.4-1.4l0.1-0.1l0.5-1.4l1-1.8l1.3-1.7
	l1.7-1.7l1.2-0.8l1.3-0.6l1.2-0.3l1.6,0l0.8,0.5 M275.3,107.8l0.3,0.2 M271,125.8l-0.3-0.4l-0.4-0.8L270,124l-0.1-1.2l0.1-1.4
	l0.3-1.5l1.1-2.5l0.5-0.8l1.9-2.3l1.2-1.1l1.2-0.8l0,0l1.3-0.6h0l0.6-0.2h0.1l0.5,0h0.1l0.4-0.1h0.5l1,0.3 M280,111.1l-0.9-0.4
	l-0.9-0.1H278l-0.4,0h-0.1l-0.5,0.1h0l-0.6,0.2l0,0l-1.3,0.6l-0.6,0.4l-1.8,1.5l-0.6,0.6l-1.3,1.7l-0.4,0.8l-0.2,0.3l-1,2.2
	l-0.3,1.5h0l-0.1,2.1l0.1,0.5l0,0.1l0.1,0.5l0.5,0.9l0.4,0.4l0.4,0.3 M282.6,116.6l-0.1-1.1l-0.6-1.3l-0.7-0.6l-0.8-0.3l-0.5,0
	l-1,0.1l-0.6,0.2l-2.2,1.3l-1.1,0.9l-1.7,2.5l-0.9,2l-0.3,1.3l-0.1,1.2l0.1,1l0.4,0.9l0.2,0.4l0.7,0.5l0.8,0.4l1.5-0.1l1.1-0.4
	 M272.6,121.6l-0.1,0.9l0.4,1.5l0.2,0.4l0.3,0.3l0.8,0.4l0.9,0.1l1-0.2l1.1-0.5l0.6-0.4l1.6-1.4l1.6-2.5l0.5-1.3l0.3-1.3l0-1.1
	l-0.2-1l-0.6-0.8l-0.4-0.2l-0.4-0.1l-0.9-0.1l-1,0.2l-0.8,0.4v0.7l-0.2,1v0l-0.4,1.1l-0.9,1.6l-0.1,0l-0.3,0.4l-2,1.6L272.6,121.6
	l0.2-1l1.2-2.6l0.9-1.2l1.6-1.5l0.9-0.5 M270,107.2l-0.7,0.3l0,0l-0.6,0.4h-0.1l-0.5,0.4l-0.1,0.1l-0.5,0.4l-1.7,1.8l-0.8,1l-1,1.8
	l-0.2,0.6l-0.1,0.2l-0.6,2.2l-0.1,1.4 M269,127l-3.2-2.3l-8.2,3.3l0,0l-3.1,1.9l-0.2,0.3l3.2,2.2l4.2-1.5h0.1l0-0.1l3.7-1.7h0.1
	L269,127l1.1,1.6 M264.3,101.2l-4.3,1.5 M272.8,137.5l0.2-2.2l-0.1-1.6l-0.2-1 M273.1,137.8l-0.3-0.2l-0.5-0.3l-0.1,0l-0.4-0.2
	l-0.5-0.1h-0.4l-0.1,0l-0.5,0l-0.1,0l-0.5,0.1h-0.1l-0.5,0.1h-0.1l-1.2,0.6l0,0l-2.5,1.9l-2,2.6l-0.7,1.2l-1.1,3.2l-0.1,1.4l0.1,1.2
	l0.2,0.7l0.6,0.9l0.2,0.2l0,0.1l0.1,0.1l0,0l0.1,0l0.6,0.4l0.4,0.2l-0.8-0.9l-0.3-1l-0.1-1.3l0.1-1.4v0l0.3-1.4l1.1-2.5l1.6-2.2
	l1.9-1.9l1.4-0.9l1.3-0.6h0l0.6-0.2l0.1,0h0.6l0.5-0.1h0.1l0.9,0.1l0.5,0.2L273.1,137.8z M272.3,137.2l0.2,0.1l-0.6-0.4L272.3,137.2
	 M272.5,137.3l0.3,0.2 M263.9,152.4l0.8,0.5l-0.3-0.3l-0.4-0.8l-0.2-0.6v-0.1l-0.1-0.5l0.1-2.1l0,0l0.1-0.7v-0.1l0.2-0.7l1.4-3
	l0.2-0.3l0.2-0.4l1.6-1.9l1.7-1.5l0.7-0.4h0l1.3-0.6l0.6-0.2l0,0l0.5,0h1.1l0.5,0l0.5,0.2l0.4,0.2l-1.6-1.1 M271.1,130.1l-0.9-0.6
	l-1.1-0.5l-1.3-0.1l-1.4,0.1l-0.7,0.2 M267.2,135.7l-0.2,0h0l-0.7,0.3l-0.6,0.3h-0.1l-2.5,2l-0.2,0.2l-0.6,0.7l-1.3,1.9l-0.2,0.2
	l0,0l-0.1,0.3l-0.3,0.5l-0.7,1.6l-0.4,1.6v0l-0.1,0.7v0.6v0.8l0,0.1l0,0.5l0.4,1l0,0.1l0.2,0.3l0.3,0.5l0.3,0.2l0.1,0.1l0.5,0.3
	l-0.3-0.4l-0.4-0.8l-0.3-1.2l0-0.7l0.1-1.4v0l0.3-1.4l1.8-3.6l1.6-2l2.4-1.9h0l1.3-0.6h0l0.6-0.2h0.1l0.5-0.1l0.8,0l1.1,0.2l0.3,0.1
	l0.1,0.1l0.3,0.1l-0.9-0.7l-0.3-0.2l-0.4-0.2l-0.1,0h0l-0.7-0.1l-0.2-0.1h-0.1l-0.5,0.1h-0.1l-0.5,0.1h-0.1L267.2,135.7l0.3-0.1h0
	 M263.1,138.4l-0.1,0.1l0,0.1l-0.3,0.3l-0.2,0.3l-0.3,0.3l-1,1.6l-0.2,0.3l-0.1,0.2l-0.2,0.5 M265.6,136.4l-0.6,0.4l0,0l-0.7,0.5
	l-1.1,1 M266.2,136.1c-0.8-0.5-1.9-0.5-3.2,0.1c-1.3,0.6-2.4,1.6-3.4,3.1c-1,1.4-1.6,2.9-1.7,4.3c-0.1,1.4,0.4,2.4,1.3,3
	 M266.2,136.1l-0.7,0.3 M269.9,135.7l0.5,0.2l0.2,0.2 M271.5,136.7l0.3,0.2 M265.9,153.8l-0.3-0.3l-0.5-0.9l-0.1-0.5V152l-0.1-0.5
	v-0.7l0,0l0.1-1.4l0,0l0.1-0.7l0,0l0.4-1.4l0.7-1.5l1.1-1.8l2.5-2.5l0.7-0.5l0.1,0l0.6-0.4v0l1.9-0.8h0l1.1-0.1l0.1,0h0.4l1,0.3
	l0.4,0.2l-1.3-0.9 M278.6,141.7l-0.2-0.1l-0.1-0.1l-0.3-0.1l-0.2-0.1l-0.9-0.1h-0.1l-0.5,0h-0.1l-0.5,0.1h-0.1l-0.5,0.2h0l-1.2,0.6
	h0l-2,1.5l-1.2,1.2l-1.5,2.2l-0.4,0.8l-0.9,2.4v0.1l-0.1,0.7v0.1l-0.1,1.4v0.7l0.1,0.5v0.1l0.1,0.6l0.5,0.8l0.7,0.7 M277.4,140.8
	l-0.9-0.4l-0.5-0.1h-1.1l-0.5,0.1h-0.1l-0.6,0.1l0,0.1l-1.2,0.5l0,0.1l-0.7,0.4l-1.1,0.9l-1.7,1.8l-1.8,2.9l-0.6,1.3l-0.4,1.6v0
	l-0.1,1.4l0,0.7l0,0.1l0,0.5l0,0.1l0.1,0.4l0.1,0.1l0.1,0.4l0.6,0.8l0.7,0.4 M274.1,155.3l-1.6,0.5h-1l-0.8-0.3l-0.4-0.3l-0.6-0.7
	l-0.3-0.9l-0.1-1.1l0-0.6l0.4-1.9l0.9-2l0.4-0.7l2.5-2.7l1.7-1l1.1-0.4l1-0.1l0.9,0.2l0.4,0.2l0.7,0.5l0.2,0.4l0.4,0.9l0.1,0.5
	 M270,151.3l0.2-1l0.8-2l1.8-2.4l1.1-0.9l0.9-0.5l0.2-0.1l1.1-0.4h1l0.8,0.3l0.4,0.2l0.5,0.8l0.3,0.9l0,1.2l-0.2,1.3l-0.5,1.4
	l-1.2,1.9l-0.9,1.2l-1,0.8l-0.1,0.1l-1.1,0.6l-1.1,0.4l-0.5,0l-0.9-0.1l-0.4-0.2l-0.7-0.6l-0.4-0.8l-0.1-0.6l0-1.2L270,151.3
	l1.1-0.5l0.8-0.5l0.1-0.2l0.8-0.8l0.3-0.4l0.1-0.1l1.1-2v-0.1l0.1-0.5v0l0.2-0.5l0.1-0.6v-0.7 M276.3,140l1.1,0.8l0.2,0
	 M265.5,153.5l-0.7-0.5l-0.1,0l0,0l0.1,0.1 M263.7,152.3l0.2,0.1L263.7,152.3L263.7,152.3z M262.6,151.5l-0.2-0.1l0,0v0l-1.2-0.8
	l0,0l0.3,0.2L262.6,151.5l0.1,0.1v0 M266.4,154.2l-0.2-0.2h0l-0.2-0.1l0.2,0.1 M261.6,130.9l-2.3,1.8l-1.5,1.5l-2.4,3.1l-2.2,4.4
	l-0.7,2.3l-0.3,2.6l0.3,2.6l1.6,2.7l0.8,0.6l0.6,0.3l1.2,0.3h1.4l1.5-0.2 M255.6,137.3l1.8-4.9 M252.7,149.3l-2.1-3.1l-3.3-2.3
	l3.5,6.3l1.4,2l0,0.1 M254.2,130.2l-2.7,4.2l-2.5,4.9l-1.6,4.6 M259.7,143.8l-0.3,0.9l-0.1,0.7 M250.6,146.2l2.5-4l0.2-0.4
	 M259.2,147.4L259.2,147.4l0.1,0.6v0.1l0.1,0.4l0.3,0.5v0l0,0l0,0.1l0.2,0.2 M261.5,150.8l-0.8-0.6 M245.1,148.3l-14-9.9v0l-1.4-0.9
	h-0.1l-3.3-2.4 M228.3,155.1h0.8l0.7-0.2l0.7-0.4l0.6-0.5l0.5-0.8l0.5-1.3l0.2-2.2l-0.2-2.4l-1-3.1l-1.6-2.9l-1.2-1.5l-1.7-1.6
	l-1.4-0.8l-0.9-0.3l-1.6-0.1l-0.4,0.1l-0.7,0.3l-0.8,0.7 M226.5,142.1l-0.9-0.6l-0.8-0.2h-0.4l-0.7,0.2l-0.3,0.2l-0.5,0.7l-0.2,0.4
	l-0.2,1l0.2,2.3l0.5,1.2l1,1.7l0.8,0.9l0.9,0.7l0.4,0.2l0.5,0.1l0.8,0.1l0.4-0.1l0.3-0.1l0.6-0.5l0.4-0.8l0.2-0.9l-0.1-1.7l-0.6-1.9
	l-0.6-1.1l-0.8-1L226.5,142.1z M255.5,154.5l-1.2-2.5 M221.6,137.6l-0.3,0.2 M220.4,138.8l0,0.1l-0.1,0.1 M180.2,130.9l-0.3-0.1
	l-2.8-1.4l-1-0.8l-0.3,0.1 M176.4,128.5L176.4,128.5l-0.2,0.1L176.4,128.5z"/>
<path class="st7" d="M291.8,111.4l-0.9-3.4l13.8-3.7l-1.1-4.1l-13.8,3.7l-0.9-3.4l-4.1,6.9L291.8,111.4z"/>
<path class="st7" d="M157.6,129.4l-7-3.9l0.9,3.4l-13.8,3.7l1.1,4.1l13.8-3.7l1,3.4L157.6,129.4z"/>
<path class="st7" d="M290.8,147.3l-0.9-3.4l13.8-3.7l-1.1-4.1l-13.8,3.7l-0.9-3.4l-4.1,6.9L290.8,147.3z"/>
<path class="st7" d="M258.1,24.3l-1-3.3l-3.9,7l7,3.9l-0.9-3.4l13.8-3.7l-1.1-4.1L258.1,24.3z"/>
<path id="Layer1_9_1_STROKES" class="st8" d="M8.9,6.4h169.2v22.8H8.9V6.4z"/>
<path id="Layer1_9_1_STROKES_1_" class="st8" d="M8.9,32h169.2v22.8H8.9V32z"/>
<text transform="matrix(1 0 0 1 274.9132 25.8389)" class="st9 st10">Solenoid</text>
<text transform="matrix(1 0 0 1 304.8421 98.9976)"><tspan x="0" y="0" class="st9 st10">Return</tspan><tspan x="0" y="14.4" class="st9 st10">Port</tspan></text>
<text transform="matrix(1 0 0 1 310.1625 135.5774)"><tspan x="0" y="0" class="st9 st10">PX</tspan><tspan x="0" y="14.4" class="st9 st10">Port</tspan></text>
<text transform="matrix(1 0 0 1 108.9753 124.6036)"><tspan x="0" y="0" class="st9 st10">Cylinder</tspan><tspan x="0" y="14.4" class="st9 st10">Port</tspan></text>
<text transform="matrix(1 0 0 1 14.2011 22.5132)"><tspan x="0" y="0" class="st9 st11">I/B - 2700-P25 AND P23</tspan><tspan x="0" y="25" class="st9 st11">O/B - 2700-P26 AND P24</tspan></text>
<g>
	<ellipse class="st12" cx="48.1" cy="106.8" rx="13.6" ry="13.6"/>
	<ellipse class="st13" cx="48.1" cy="106.8" rx="13.6" ry="13.6"/>
</g>
</svg>
