<?xml version="1.0" encoding="utf-8"?>
<!-- Generator: Adobe Illustrator 24.2.1, SVG Export Plug-In . SVG Version: 6.00 Build 0)  -->
<svg version="1.1" id="Ebene_1" xmlns="http://www.w3.org/2000/svg" xmlns:xlink="http://www.w3.org/1999/xlink" x="0px" y="0px"
	 viewBox="0 0 349.1 161" style="enable-background:new 0 0 349.1 161;" xml:space="preserve">
<style type="text/css">
	.st0{fill:#0099FF;}
	.st1{fill:#CCCCCC;}
	.st2{fill:#FF0000;}
	.st3{fill:#FF9900;}
	.st4{fill:#FFCC00;}
	.st5{fill:#00CC00;}
	.st6{fill:#00CE00;}
	.st7{fill:none;stroke:#FF0000;stroke-width:0.2;stroke-linecap:round;stroke-linejoin:round;}
	.st8{fill:none;stroke:#000000;stroke-width:0.5;stroke-miterlimit:5;}
	.st9{fill:none;stroke:#000000;stroke-width:0.5;stroke-miterlimit:60;}
	.st10{fill:none;stroke:#B1B1B1;stroke-width:0.5;stroke-linecap:round;stroke-linejoin:round;}
	.st11{fill:none;stroke:#FF9900;stroke-linecap:round;stroke-linejoin:round;}
	.st12{font-family:'ArialMT';}
	.st13{font-size:14px;}
</style>
<g>
	<path class="st0" d="M265.5,121.5h0.5l1.8-0.8h-0.5L265.5,121.5 M248.1,130.6h0.2v-0.1L248.1,130.6 M247.7,129.2h0.4l0.2,0.3
		l0.1-0.4l1.5-0.7h-0.5l-0.9,0.4l0,0L247.7,129.2l-0.1,0.2L247.7,129.2 M265.4,122L265.4,122L265.4,122L265.4,122 M264.8,121.3
		l0.4-0.4l0.6-0.9l-0.8-0.6l0.6,0.5L264.8,121.3l-0.5,0.1H264l-11.1-4.8l-0.1-0.1c-0.1,0.1-0.1,0.2-0.2,0.3c0,0,0,0.1-0.1,0.1
		l12.3,5.2l-0.7-0.5l0,0h0.1l1,0.4v-0.2L264.8,121.3 M256.1,117.2L256.1,117.2c0-0.1-0.1-0.2-0.3-0.3l-0.2-0.1h-0.1l0,0l0.1,0.1
		L256.1,117.2L256.1,117.2 M254.5,116l-0.2,0.4l0.1,0.3l0.2-0.4L254.5,116 M262.4,120.3L262,120l-0.2-0.1h-0.1l0.1,0.1l0.2,0.2
		L262.4,120.3L262.4,120.3 M258.3,117.7L258.3,117.7L258.3,117.7L258.3,117.7 M259.4,118.6L259.4,118.6c-0.3-0.3-0.5-0.4-0.6-0.4
		C258.8,118.2,259,118.4,259.4,118.6L259.4,118.6L259.4,118.6 M257.2,116.5v-0.2v-0.2c0-0.2,0.1-0.4,0.2-0.6l0.2-0.2
		c-0.1,0-0.2,0.1-0.3,0.3C257,115.9,257,116.2,257.2,116.5 M226.1,142.9L226.1,142.9L226.1,142.9L226.1,142.9 M193.9,134.8l0.7,0.5
		c0.1,0.1,0.2,0.2,0.3,0.3c0.2,0.1,0.4,0.1,0.6,0c-0.4-0.1-0.7-0.3-1.1-0.5C194.3,135,194.1,134.9,193.9,134.8 M189.1,126.1l0.6,0.5
		l-0.3-0.5l-0.6-0.5L189.1,126.1 M197.8,120.8c-0.2,0-0.4,0.1-0.5,0.3c-0.2,0.2-0.3,0.4-0.3,0.6L197.8,120.8 M199.2,99.5
		c0,0,0-0.1,0.1-0.1l-0.6,0.3h0.1C199,99.5,199.1,99.5,199.2,99.5 M211.8,100.8c-0.5-1.9-0.8-3-1-3.5c-0.3-0.7-0.6-1.2-1-1.5
		l0.4,0.7l1,3.6l-4.7,2.3v-0.1l-0.3,3.1l-6.9,3.4c-0.6-0.7-1.1-1-1.5-0.8l-0.6,0.4l-0.2-0.2l0.3-3.3c-0.1-0.2-0.2-0.3-0.3-0.5
		s-0.2-0.4-0.2-0.6l-5.9,3l-0.6,7l0.3,0.9l4,3.1l1.3,0.3l0.4-0.2l8.5-4.1c0.7-2,1.7-4,2.8-6c0.3-0.6,0.7-1.3,1.1-1.9
		c0.9-1.6,1.9-3.2,3-4.8C211.6,101,211.7,100.9,211.8,100.8 M208.5,95.5c-0.2,0-0.4,0-0.7-0.1l-1.3,1.1L208.5,95.5 M203.4,96.1
		c0.4-0.2,1-0.5,1.6-0.8c-0.2,0-0.4,0-0.6,0L203.4,96.1 M225.4,64.5L225,66c0.1,0,0.1,0,0.2-0.1l0.4-1.4H225.4 M221.6,60.7l-0.1,0.1
		c0,0.2,0.1,0.4,0.3,0.5l-2.4,6.5c0.1,0,0.1-0.1,0.2-0.1l2.4-6.5c-0.2-0.1-0.2-0.2-0.2-0.3s0.1-0.2,0.3-0.2l3.2-0.6
		c0.2,0,0.4,0,0.6,0c0.2,0.1,0.4,0.2,0.6,0.3l-0.8,2.7l0.2,0.1l0.8-2.9c-0.2-0.2-0.4-0.3-0.8-0.4c-0.3-0.1-0.6-0.1-0.8-0.1l-3.2,0.6
		L221.6,60.7 M192.6,100.3c0-0.2-0.1-0.3-0.4-0.4c-0.2,0.4-0.1,0.7,0.1,1c0.1-0.2,0.2-0.3,0.2-0.4
		C192.6,100.5,192.6,100.4,192.6,100.3 M210.7,86.5c0,0.1,0.1,0.2,0.1,0.4c0,0,0,0,0,0.1l0.3-0.2c0-0.1-0.1-0.1-0.1-0.2
		C210.9,86.5,210.8,86.5,210.7,86.5 M252.5,83.6L252.5,83.6l0.7,0.1L252.5,83.6 M252.5,83.6L252.5,83.6
		C252.5,83.6,252.5,83.7,252.5,83.6c0,0.1,0,0.1,0.1,0.1s0.2,0.1,0.2,0.1L252.5,83.6L252.5,83.6 M251.5,82.8c0.1,0,0.1,0.1,0.2,0.1
		l0.9,0.1l-1.7-0.6C251.1,82.5,251.2,82.7,251.5,82.8C251.4,82.8,251.4,82.8,251.5,82.8 M239.7,80.5l-0.3-0.2l-0.1,0.3
		c0.1,0,0.1,0,0.2,0S239.6,80.5,239.7,80.5 M233.8,111.6c-0.1-0.5-0.4-0.7-0.9-0.7c0.6,0.2,0.9,0.6,0.8,1.3c0,0.6-0.3,1.2-0.8,1.8
		c-0.5,0.7-1,1.1-1.6,1.3s-1.1,0.1-1.4-0.5c0.1,0.5,0.5,0.7,1,0.7s0.9-0.2,1.3-0.5c0.5-0.4,1-0.9,1.3-1.5
		C233.8,112.7,233.9,112.1,233.8,111.6 M232.7,111.8c-0.5-0.3-1-0.1-1.6,0.7s-0.7,1.4-0.2,1.8c0.4,0.2,0.8,0.1,1.3-0.3
		s0.7-0.8,0.8-1.3c0-0.3,0-0.6-0.2-0.8L232.7,111.8 M232,112.2c0.1-0.1,0.2-0.1,0.3-0.1c0.7,0.1,0.7,0.6,0.1,1.4
		c-0.6,0.8-1.1,0.9-1.4,0.3c0-0.1,0-0.2,0-0.3C231.1,112.9,231.4,112.5,232,112.2 M227.9,114.7l1.1,0.8c-0.1-0.1-0.1-0.1-0.2-0.2
		c0-0.1-0.1-0.3-0.4-0.5C228.3,114.7,228.1,114.7,227.9,114.7 M236.4,116.5h0.2l-3.6-1.1l3.1,1.1H236.4 M229,114.6
		c0,0.5,0.1,0.8,0.2,1.1c0,0,0.1,0,0.1,0.1c0,0,0,0.1,0.1,0.1c0.3,0.2,0.6,0.3,1.1,0.3c-0.1,0.1-0.2,0.3-0.3,0.4l0.5-0.5
		c0,0,0.1,0,0.1-0.1h-0.1c-0.1,0-0.1,0-0.1,0c-0.7,0-1.1-0.3-1.3-1s0-1.5,0.5-2.3c0.4-0.8,0.9-1.5,1.6-1.9c0.5-0.4,1.1-0.7,1.7-0.7
		c0.7,0,1.1,0.3,1.3,1l0,0c-0.1-0.3-0.2-0.6-0.3-0.8c-0.3-0.5-0.8-0.6-1.6-0.4c-1.1,0.3-1.9,0.9-2.5,1.8
		C229.3,112.6,229,113.6,229,114.6 M212.9,135.8l-0.1-0.2C212.8,135.6,212.8,135.7,212.9,135.8L212.9,135.8 M219.4,119.2l-1.8,2.2
		l0.2,0.2L219.4,119.2 M219.8,118.7c-0.1,0-0.1,0.1-0.1,0.2l-0.2,0.2c0.1,0,0.1-0.1,0.2-0.1L219.8,118.7 M210.9,129
		c-0.2,0.1-0.4,0.2-0.6,0.3l-0.6,1C210.3,129.8,210.7,129.4,210.9,129 M225.1,105.3L225,105l-0.1,0.3H225.1 M223.9,103.9l0.3,0.2
		L223.9,103.9L223.9,103.9 M222.8,99l0.6-0.1v-0.2L222.8,99 M236.2,107.1c-0.2,0.2-0.4,0.4-0.5,0.6c0.3-0.1,0.5-0.1,0.5-0.2
		C236.4,107.4,236.4,107.3,236.2,107.1 M247.8,105.2l0.4,0.3h0.4L247.8,105.2 M243.2,105.4l0.4,0.3h0.1l-0.1-0.1l-0.5-0.3l0,0
		L243.2,105.4 M246,104.5l-1.3-1l-0.2-0.1L246,104.5 M230.6,97.1L230.6,97.1L230.6,97.1h-0.1c-0.1,0.2-0.2,0.4-0.3,0.5l0.2,0.1
		c0.1,0,0.2-0.1,0.3-0.3C230.7,97.3,230.7,97.2,230.6,97.1 M228.7,97c0.1,0,0.2,0,0.5,0c0,0,0.1,0,0.2,0l-0.2-0.3l-0.3-0.3l-0.3,0.1
		v0.1c0,0.1,0.1,0.2,0.1,0.2C228.7,96.9,228.7,97,228.7,97 M231.6,88c-0.1,0-0.1,0.1-0.2,0.2l-3,7.9c0,0.1,0.1,0.2,0.1,0.3L231.6,88
		 M238.1,85.2c-0.1,0-0.2,0.1-0.2,0.1l-5.5,18.7h0.2l1.7-5.5l0.4-0.6l-0.2-0.2l1.6-5.6L238.1,85.2 M242.6,80.1
		c-0.4,0-0.8,0.1-1.3,0.1l0.3,0.3c3.6-0.4,6.7,0.3,9.2,1.9c-1.1-0.8-2.2-1.3-3.5-1.7c-0.3-0.1-0.6-0.2-1-0.2
		c-0.7-0.1-1.4-0.2-2.1-0.3C243.7,80.1,243.2,80.1,242.6,80.1 M239.5,67.7c-1.5-1.1-3.3-1.8-5.3-2.2c-1.8-0.3-3.8-0.4-5.7-0.2
		l0.3,0.2c2.3-0.3,4.5-0.2,6.5,0.3C236.8,66.3,238.2,66.9,239.5,67.7 M238.4,77.1l-0.4-0.3l-0.7-0.2l0.4,0.3L238.4,77.1 M241.9,72.3
		c-0.5-0.4-1.1-0.6-1.7-0.5l-2.8,0.5l-0.5,0.1l-0.1,0.1l-0.1,0.1v0.1v0.1V73l0.1,0.1l0.2,0.2l0.2-0.1c-0.1-0.1-0.2-0.2-0.2-0.3
		c0-0.1,0.1-0.2,0.3-0.2l3.2-0.6c0.5-0.1,0.9,0,1.3,0.3l-1.9,6.6l0.2,0.2l0.6-2.1L241.9,72.3 M241.1,69c-0.1-0.1-0.1-0.1-0.2-0.2
		c-2.9-1.9-6.5-2.7-10.8-2.2l0.3,0.2C234.6,66.5,238.2,67.2,241.1,69z"/>
	<path class="st1" d="M262.7,122.6c0.2-0.1,0.4,0,0.6,0.3l2.1-0.9l0,0l-1-0.4h-0.1l0,0l0.7,0.5l-12.3-5.2c-0.1,0.1-0.1,0.2-0.2,0.4
		c-0.7,1.2-1.4,2.4-2.2,3.5c-0.1,0.2-0.2,0.3-0.3,0.4c-0.1,0.2-0.2,0.3-0.3,0.4c-0.1,0.2-0.3,0.4-0.4,0.6l3.2,1.1
		c0.1,0.2,0.1,0.4,0,0.7c-0.1,0.2-0.2,0.4-0.3,0.6c-0.2,0.2-0.4,0.5-0.6,0.7l-0.4,0.2L244,129c-0.2,0.2-0.4,0.4-0.6,0.6
		c-1.2,1.2-2.4,2.4-3.6,3.5l2.2-1c0-0.3,0.1-0.5,0.2-0.5l5.3-2.3v-0.2l0.9-0.4l0,0l0.9-0.4h0.5l0.1,0.2l2.1-0.9
		c0-0.4,0.1-0.6,0.3-0.6l3.7-1.6c0.1-0.2,0.2-0.3,0.3-0.3l2.1-1c0.2-0.1,0.3-0.1,0.4,0L262.7,122.6 M265.1,119.4
		c-0.2-0.2-0.5-0.4-0.7-0.5l-9.2-7.1c-0.7,1.6-1.4,3.2-2.3,4.7l0.1,0.1l11.1,4.8h0.3l0.4-0.2l0.9-1.3L265.1,119.4 M257.2,116.3v0.2
		c-0.2-0.2-0.2-0.5,0-0.9c0.1-0.2,0.2-0.3,0.3-0.3l-0.2,0.2c-0.2,0.2-0.2,0.4-0.2,0.6v0.2 M259.4,118.5L259.4,118.5L259.4,118.5
		L259.4,118.5c-0.4-0.2-0.6-0.3-0.6-0.4C258.9,118.1,259.1,118.3,259.4,118.5 M258.3,117.7L258.3,117.7L258.3,117.7L258.3,117.7
		 M262,120l0.3,0.3l0,0l-0.2-0.1l-0.2-0.2l-0.1-0.1h0.1L262,120 M254.3,116.4l0.2-0.4l0.1,0.3l-0.2,0.4L254.3,116.4 M256.1,117.1
		L256.1,117.1L256.1,117.1l-0.6-0.3l-0.1-0.1l0,0h0.1l0.2,0.1C256,116.9,256.1,117,256.1,117.1 M225.6,142.1c-0.1,0-0.3,0.1-0.4,0.1
		l1,0.7l0,0c0.1,0,0.2,0.1,0.2,0.2l36.3-16.4c0.2-0.1,0.4-0.2,0.6-0.2c0-0.2,0-0.4,0.1-0.6h0.1c0.7,0.2,1.4-0.2,2-1
		c0.7-0.7,1-1.4,0.9-2.1l0,0h-0.5l-0.1-0.2l-2,0.9c0,0.3,0,0.5-0.3,0.6l-3.7,1.6c0,0.1-0.1,0.2-0.2,0.3l-2.2,1
		c-0.1,0.1-0.3,0.1-0.4,0l-3.7,1.6c-0.2,0.2-0.4,0.1-0.7-0.2l-2.1,0.9l-0.1,0.5l-1.8,0.8h-0.2h-0.2l-5.4,2.3c-0.1,0.1-0.3,0-0.4-0.2
		l-3.9,1.7C234.2,137.9,229.9,140.4,225.6,142.1 M216,146.3c0.2-0.2,0.6-0.1,0.9,0.2c0.2,0.1,0.4,0.3,0.7,0.6l7.5-3.4l-1.4-1
		c-1.9,0.6-3.8,0.9-5.6,1c-0.2,0-0.3,0-0.5,0c-0.8,0-1.6,0-2.4-0.1c-0.1,0-0.3,0-0.4-0.1c-0.1,0-0.2,0-0.3-0.1
		c-0.9-0.2-1.7-0.4-2.5-0.7l-1.4,4l-0.1,0.5v0.1c0,0.3,0.1,0.5,0.3,0.7l1,0.8c0,0.1,0.1,0.1,0.2,0.2c0.1,0,0.2,0.1,0.3,0.1
		c0.7,0.1,1.3-0.2,1.9-0.9c0,0,0.3-0.4,0.7-1C215.4,146.8,215.7,146.5,216,146.3 M193.9,126.6c0.2,0,0.4-0.1,0.6-0.1
		c0.2,0,0.5-0.2,0.6-0.4c0.2-0.2,0.3-0.4,0.3-0.6l0,0v-0.1l-0.1-0.2l-0.6-0.4L193.9,126.6 M198.4,118.4l-0.7,0.3
		c-0.3,0.2-0.7,0.1-1-0.2l-1.8,5.3c0.3-0.2,0.6-0.5,1-0.8l1.2-1.2c0-0.2,0.1-0.4,0.3-0.6s0.3-0.3,0.5-0.3l0.6-0.6l0.2,0.2l-0.1-0.1
		l-0.1-0.2L198.4,118.4 M221.8,61c0,0.1,0.1,0.2,0.2,0.3l-2.4,6.5c1.8-0.8,3.6-1.4,5.3-1.8l0.4-1.5l-2.5-2c-0.2-0.1-0.2-0.4,0.1-0.7
		c0.2-0.3,0.4-0.4,0.6-0.3l2.2,1.7l0.8-2.7c-0.1-0.1-0.3-0.2-0.6-0.3c-0.2,0-0.5-0.1-0.6,0l-3.2,0.6C221.8,60.8,221.8,60.9,221.8,61
		 M221.8,61.4c-0.2-0.2-0.4-0.4-0.3-0.5l-2.8,7.3c0.2-0.1,0.4-0.2,0.6-0.3L221.8,61.4 M210,86.7l0.1,0.4l-1,2.8
		c0.2-0.1,0.3-0.1,0.5-0.2c0.3-0.2,0.6-0.5,0.8-0.9c0,0,0,0,0.1,0c0.1-0.1,0.2-0.3,0.3-0.4c0.4-0.6,0.5-1.2,0.3-1.7l-0.3,0.2
		c0,0,0,0,0-0.1c0-0.2-0.1-0.3-0.1-0.4C210.4,86.5,210.2,86.6,210,86.7 M236.6,116.5h-0.2h-0.3l-3.1-1.1l-0.3-0.1h-0.2
		c0,0-0.1,0-0.1,0.1c-0.1,0.1-0.2,0.2-0.3,0.3c-0.2,0.1-0.4,0.2-0.5,0.2l-0.1,0.1c-0.1,0-0.1,0-0.1,0c-0.1,0-0.1,0-0.2,0l3.1,1.1
		l10.1,3.5c0.1-0.2,0.2-0.5,0.2-0.6c0-0.2,0.1-0.4,0.1-0.5c0-0.2,0-0.4-0.1-0.6l-0.1-0.1L236.6,116.5 M228.3,135
		c0.2-0.2,0.5-0.3,0.8-0.4l-4.1-3.3c-0.2,0.4-0.3,0.8-0.4,1.2c-0.5,1.4-1.1,2.8-1.7,4c0.1,0.2,0.2,0.3,0.3,0.4c0.2,0,0.4,0,0.8-0.1
		c1.3-0.5,2.6-1.1,4-1.7C228.1,135,228.2,135,228.3,135 M224.8,116.8c-0.2-0.2-0.5-0.3-0.7-0.3c-0.1,0-0.2,0.1-0.3,0.1
		c0,0-0.1,0-0.1,0.1c-1.3,0.8-2.6,1.5-4,2.2l-1.2,3.4c0.1,0.2,0.1,0.5,0.1,0.7c0,0,0,0.1,0,0.2c-0.2,1.1-0.5,2.3-1,3.6
		c-0.3,0.9-0.8,2.1-1.5,3.7c-0.4,0.9-1,1.5-1.8,1.8c-0.7,0.2-1.3,0.7-1.7,1.4c-0.1,0.1-0.1,0.2-0.1,0.3c-0.1,0.2-0.1,0.3-0.2,0.5
		c0,0.3,0.1,0.6,0.3,0.7l0,0l0,0c0,0,0,0,0.1,0.1l0.1,0.2c0.1,0.1,0.2,0.1,0.4,0.2c0.2,0,0.4,0,0.4,0c0.3,0.4,0.3,0.9,0,1.7
		c-1.2-0.4-2.2-0.8-3.2-1.4c0.4,0.3,0.8,0.6,1.3,0.8c1.3,0.7,2.8,1.1,4.5,1.2c0.3,0,0.6-0.1,1-0.3c0.3-0.2,0.6-0.4,0.8-0.7
		c0.3-0.3,0.5-0.7,0.6-1.1c1.5-3.6,2.7-6.5,3.6-9c1.2-3.4,2.1-6.4,2.8-9.2C225.3,117.6,225.2,117.1,224.8,116.8 M214.1,133.7
		c0.1,0,0.2-0.1,0.2-0.1c0,0.2,0,0.5-0.2,0.7s-0.4,0.4-0.6,0.4c0-0.1,0-0.1,0-0.2C213.5,134.2,213.7,133.9,214.1,133.7 M223.4,98.9
		l-0.6,0.1l-1.8,0.4c0,0.1-0.1,0.3-0.2,0.6c0,0,0,0,0,0.1c-0.1,0.3-0.1,0.6-0.1,0.7s0.1,0.4,0.3,0.6s0.3,0.4,0.4,0.4l2.5,2h0.1
		l0.2,0.2l0.1,0.1l0,0c-1,0.5-1.9,1.4-2.6,2.8c-0.8,1.5-0.7,2.6,0.1,3.4l0.7,0.6l0,0l-0.5,1.3l1.5-0.7l0.3-0.2l0.4-0.4
		c0.2-0.2,0.4-0.4,0.6-0.7c0.1-0.2,0.2-0.4,0.4-0.8s0.4-0.8,0.4-1.2V108l-0.7-2.6h-0.1l0.1-0.3l-0.3-1.3l-0.1-0.2v-0.1l-0.3-0.2
		l-0.1-0.4v-0.1l0.1-0.5v-0.5L223.4,98.9 M246,104.5l-1.4-1.1c-0.4,0.7-0.7,1.1-0.9,1.3c-0.3,0.3-0.8,0.2-1.4-0.1
		c-0.2,0.3-0.3,0.6-0.5,1c-0.3,0.6-0.7,1.3-1.1,1.9l1.6,1.2c-0.8,0.2-1.3,0.4-1.6,0.5v0.8v0.1l-1.3-0.5l-4-1.6
		c-0.1,0.1-0.2,0.2-0.2,0.3s0,0.3,0,0.6c0,0.1,0,0.1,0,0.2c0,0.3,0.1,0.5,0.2,0.7l7.1,2.1h0.3l0.2-0.1c0.2,0,0.4-0.1,0.7-0.3v-0.2
		l3.1-4.9l0.1-0.1c0.2-0.2,0.4-0.4,0.6-0.5c0.2-0.1,0.4-0.2,0.7-0.4l-0.4-0.3l-0.5,0.3L246,104.5 M243.6,105.7l-0.4-0.3l-0.1-0.1
		l0,0L243.6,105.7L243.6,105.7L243.6,105.7 M234.3,86.7c-0.9,0.4-1.8,0.8-2.7,1.4l-3.1,8.3v0.2l0.3-0.1l0.3,0.3l0.2,0.3
		c0.1,0,0.2,0.1,0.3,0.2l0.5,0.4c0.2-0.1,0.3-0.3,0.3-0.5l0,0h0.1l0,0c0.1,0.1,0.1,0.2,0,0.3c-0.1,0.2-0.2,0.3-0.3,0.3l1.2,0.9
		l0.1,0.1c0.2,0.1,0.2,0.3,0.2,0.7c-0.1,0.5-0.4,1.4-1,2.5c-0.2,0.5-0.5,0.9-0.6,1.3c0,0.2,0.1,0.4,0.1,0.5l0.7-0.1
		c0.5,0,0.9,0.1,1.2,0.4l5.5-18.7C236.7,85.6,235.5,86.1,234.3,86.7 M240,96.1l0.1-1l-4-3.1l-1.6,5.6l0.2,0.2l-0.2,2.7l0.1-0.1h0.1
		l0.2,0.1l0.8,0.6L240,96.1 M231.3,88.2c-0.2,0.1-0.4,0.2-0.6,0.4l-2.5,6.7c0.1,0.3,0.2,0.6,0.2,0.8L231.3,88.2 M236.1,78.5l0.2-1.1
		l1-0.8l0.7,0.2l0.4,0.3l-0.2,0.7l1.5,1.2l1.9-6.6c-0.4-0.3-0.8-0.4-1.3-0.3l-3.2,0.6c-0.2,0-0.3,0.1-0.3,0.2s0.1,0.2,0.2,0.3
		l-0.2,0.1l-0.2-0.2l-0.1-0.1v-0.2v-0.1l-0.2,0.4l-3.5,9.4c0.2-0.1,0.4-0.2,0.6-0.3c0.1,0,0.2-0.1,0.2-0.1c1.8-0.7,3.7-1.3,5.5-1.7
		l0.1-0.3l-1.8-1.5l-0.3,0.2l-0.7-0.2L236.1,78.5 M238,73.6c0.2-0.3,0.5-0.4,0.6-0.2l0.6,0.5c0.1,0,0.1,0.1,0.1,0.3
		c-0.1,0.3-0.3,0.5-0.5,0.6s-0.3,0.1-0.3,0l-0.5-0.4C237.8,74.1,237.8,73.9,238,73.6z"/>
	<path class="st2" d="M223.8,142.7l1.4,1l0.3,0.2l0,0c0.1,0.1,0.2,0.1,0.3,0c0.1,0,0.3-0.1,0.4-0.3c0.1-0.2,0.2-0.3,0.2-0.4v-0.1
		c0-0.1-0.1-0.2-0.2-0.2h-0.1h0.1l-1-0.7C224.7,142.3,224.3,142.5,223.8,142.7 M236.3,77.4l-0.2,1.1l0.4,0.3l0.7,0.2l0.3-0.2
		l1.8,1.5l0.3,0.2l2.6,2c0,0.1,0.1,0.1,0.3,0.1c0.3-0.1,0.5-0.3,0.5-0.6v-0.1c3.6-0.4,6.7,0.2,9.2,1.8c-1.3-0.9-2.7-1.5-4.4-1.9
		c-1.6-0.3-3.2-0.4-5-0.2l-1.4-1l-0.3-0.3l-1.4-1.1l-0.2-0.2l-1.5-1.2l0.2-0.7l-0.7-0.2l-0.4-0.3L236.3,77.4 M238.7,73.4
		c-0.2-0.2-0.4-0.1-0.6,0.2c-0.2,0.3-0.3,0.5-0.1,0.7l0.5,0.4c0,0.1,0.1,0.1,0.3,0c0.2,0,0.4-0.2,0.5-0.6c0-0.2,0-0.3-0.1-0.3
		L238.7,73.4 M230.4,66.9l-0.3-0.2l-1.4-1.1l-0.3-0.2l-2.5-2l-0.2-0.1l-2.2-1.7c-0.2-0.1-0.4,0-0.6,0.3c-0.2,0.3-0.3,0.5-0.1,0.7
		l2.5,2l0.2,0.1l1.3,1l9.6,7.5l0.2-0.4v-0.1l0.1-0.1l0.1-0.1l0.5-0.1L230.4,66.9z"/>
	<path class="st3" d="M202.3,122.6L202.3,122.6c0-0.6,0.1-1.1,0.2-1.7l-1.6,0.8l-0.2,0.1h-0.1h-0.1h-0.1h-0.1l-0.5-0.4
		c-0.1-0.1-0.2-0.4-0.2-0.9c-0.2,0.1-0.4,0.1-0.5,0.1H199c-0.1,0-0.2,0-0.2-0.1l0,0l-0.2-0.2l-0.6,0.6l-0.9,0.9l-1.2,1.2
		c-0.3,0.3-0.6,0.6-1,0.8c-0.2,0.2-0.5,0.3-0.7,0.5l0.4,0.4l0.6,0.4l0.1,0.2v0.1l0,0c0,0.2-0.1,0.5-0.3,0.6
		c-0.2,0.2-0.4,0.3-0.6,0.4c-0.2,0.1-0.4,0.1-0.6,0.1c-0.3,0-0.5,0-0.7,0c-0.2-0.3-0.4-0.7-0.7-1.2l-2-1.5l-1.7,1.6l0.6,0.5l0.3,0.5
		c0.1,0,0.3,0,0.5,0c0,0.1-0.1,0.2-0.2,0.3l-0.8,0.8c-0.2,0.2-0.3,0.4-0.4,0.6l-0.1-0.3l0.2-0.6l0,0l-0.4-0.6l-0.5-0.4
		c-0.3,0.2-0.5,0.5-0.7,1s-0.3,0.8-0.1,1.1c0.6,1,1.3,1.9,2.2,2.8c0.1,0.1,0.3,0.3,0.4,0.4c0.1,0.1,0.3,0.3,0.5,0.4
		c0,0,0.1,0,0.1,0.1s0.1,0.1,0.2,0.2c0.2,0.2,0.5,0.3,0.7,0.5l0.2,0.1l0.1,0.1c0.1,0.1,0.2,0.2,0.3,0.2l0.1,0.1
		c0.1,0.1,0.2,0.1,0.3,0.2c0.5,0.4,1.1,0.8,1.7,1.2c0.2,0.1,0.4,0.2,0.6,0.3c0.3,0.2,0.7,0.3,1.1,0.5c0.8,0.3,1.6,0.5,2.4,0.7
		c2,0.4,4.1,0.5,6.5,0.2c-1.5-2.2-2.3-5-2.4-8.1c0-0.2,0-0.5,0-0.7c0-0.9,0-1.8,0.1-2.8C202.1,124.1,202.2,123.4,202.3,122.6
		 M232.9,82.6l3.5-9.4l-9.6-7.5c-0.6,0.1-1.2,0.2-1.7,0.3c-0.1,0-0.1,0-0.2,0.1c-1.8,0.5-3.5,1.1-5.3,1.8c-0.1,0-0.1,0-0.2,0.1
		c-0.2,0.1-0.4,0.2-0.6,0.3c-1.6,0.7-3.1,1.5-4.7,2.5c-3.8,2.3-7.4,5.2-10.9,8.6c-4,4-7.5,8.4-10.4,13.2c-1.3,2.1-2.5,4.3-3.6,6.5
		c-0.2,0.5-0.1,0.9,0.1,1.1l0.5,0.4c0.1,0.1,0.2,0.1,0.4,0.1h0.4c0,0.2,0,0.5,0.2,0.6l0.5,0.3c0.1,0.2,0.3,0.2,0.6,0.2l0.2-0.4
		l0.6,0.4h1.6c1-2.4,2-4.2,3.1-5.5c1.6-1.9,3-2.3,4.4-1.4c0.1,0.1,0.3,0.2,0.4,0.4c0.1,0.1,0.2,0.1,0.2,0.2c0.6-0.2,1.1-0.3,1.6-0.3
		c0.1,0,0.3,0,0.4,0c0.2,0,0.4,0,0.6,0c0.1,0,0.3,0,0.4,0c0.7,0,1.5,0.1,2.4,0.1l0,0c0.2,0,0.5,0,0.7,0.1c0.5,0,0.9,0.1,1.2,0.3l0,0
		c0.4,0.2,0.7,0.7,1,1.5c0.1,0.4,0.5,1.6,1,3.5c2.8-3.9,6.1-7.5,9.8-10.8C225.4,86.7,229.1,84.2,232.9,82.6 M210,86.7
		c0.2-0.2,0.5-0.2,0.7-0.2c0.1,0,0.2,0,0.3,0c0,0,0.1,0.1,0.1,0.2c0.2,0.5,0.1,1.1-0.3,1.7c-0.1,0.1-0.2,0.3-0.3,0.4c0,0,0,0-0.1,0
		c-0.3,0.4-0.6,0.7-0.8,0.9c-0.2,0.1-0.3,0.2-0.5,0.2c-0.3,0.1-0.5,0.1-0.8,0c-0.1-0.1-0.1-0.3-0.1-0.5c0-0.5,0.2-1.1,0.5-1.6
		C209,87.4,209.4,87,210,86.7L210,86.7 M192.2,100c0.2,0.1,0.4,0.2,0.4,0.4c0,0,0,0.1-0.1,0.2c0,0.1-0.1,0.2-0.2,0.4
		C192.1,100.7,192,100.4,192.2,100 M228.6,120.2c-0.1,0.1-0.1,0.3-0.2,0.5c-0.4,1.3-0.8,2.5-1.1,3.6c2.3-2.1,4.6-4.5,6.8-7.2
		L231,116h-0.1l-0.1,0.1l-0.5,0.5c-0.1,0.1-0.2,0.3-0.2,0.5C229.6,117.9,229.2,118.9,228.6,120.2 M210.4,129.3c-0.1,0-0.1,0-0.2,0
		c-0.2,0-0.4,0-0.6-0.1l-0.9-0.7c-1,1.2-1.6,2-1.6,2.6c0,0.3,0.1,0.7,0.3,1.1c0.2,0.5,0.5,1.1,1,1.7c0.3,0.5,0.7,0.9,1.1,1.3
		c1-0.3,2-0.7,3-1.1c0-0.1,0.1-0.2,0.1-0.3c0.4-0.7,1-1.2,1.7-1.4c0.7-0.3,1.3-0.9,1.8-1.8c0.7-1.6,1.1-2.9,1.5-3.7
		c0.5-1.4,0.8-2.6,1-3.6c0-0.1,0-0.2,0-0.2c0-0.3,0-0.5-0.1-0.7l1.2-3.4c-0.1,0-0.1,0.1-0.2,0.1l-0.1,0.1l-1.6,2.4l-0.2-0.2
		l-4.7,5.5c-0.1,0.2-0.4,1-1,2.3c-0.2,0.9-0.2,1.5,0.2,1.8l-0.6-0.4c-0.4-0.4-0.5-0.9-0.3-1.7l-0.1,0.1l-0.2,0.1l0,0
		c-0.3,0.4-0.7,0.8-1.2,1.3L210.4,129.3 M222.8,99l0.5-0.3l-1-3.8c-0.5,0.5-1,1-1.5,1.6c-0.2,0.3-0.5,0.5-0.7,0.8
		c-0.4,0.4-0.8,0.9-1.2,1.3c-0.6,0.7-1.2,1.4-1.8,2.1c-0.5,0.6-1,1.2-1.4,1.8c-1.1,1.5-2.2,3.2-3.2,4.9c-0.2,0.3-0.4,0.6-0.5,0.8
		c-0.5,1-0.9,1.7-1,1.9c-0.6,1.2-1,2.1-1.3,2.8c0,0.1,0,0.3,0,0.4c0,0.4,0.1,1,0.3,1.7c0.1,0.3,0.2,0.7,0.1,1
		c0.3,0.5,0.5,1.1,0.4,1.7l11.6-5.6l0.5-1.3l0,0l-0.7-0.6c-0.9-0.7-0.9-1.8-0.1-3.4c0.7-1.4,1.6-2.4,2.6-2.8l0,0l-0.1-0.1l-0.3-0.2
		l-2.5-2c-0.1-0.1-0.2-0.2-0.4-0.4c-0.2-0.3-0.3-0.5-0.3-0.6c0-0.2,0-0.4,0.1-0.7c0,0,0,0,0-0.1c0.1-0.3,0.2-0.5,0.2-0.6L222.8,99
		 M242.7,100c-0.8,0.9-1.5,1.7-2.3,2.5c-1.2,1.3-2.4,2.6-3.6,3.9c-0.2,0.2-0.4,0.5-0.5,0.7c0.2,0.2,0.2,0.3,0,0.5
		c0,0-0.2,0.1-0.5,0.2c-0.1,0.1-0.2,0.2-0.3,0.4l4,1.6c0.5-0.7,0.9-1.4,1.3-2.1c0.4-0.7,0.7-1.3,1.1-1.9c0.2-0.3,0.3-0.6,0.5-1
		c1.4-2.8,2.6-5.6,3.5-8.4C244.7,97.5,243.7,98.8,242.7,100 M234.7,100.4L234.7,100.4c-0.1,0.1-0.1,0.1-0.2,0.1l0.2-2.7l-0.4,0.6
		l-1.7,5.5h-0.2c-0.4-0.3-0.8-0.4-1.2-0.4l-0.7,0.1l0,0c0.2,0.7,0.3,1,0.3,1l0,0c0.2,0.1,0.6,0.1,1.2-0.1c0,0,0.1,0,0.2-0.1
		c0.4-0.2,0.8-0.4,1.2-0.8l0.1-0.1l2.2-2.7l-0.8-0.6L234.7,100.4 M228,90.3c-0.3,0.2-0.6,0.5-0.8,0.7c0,0.7,0.2,1.7,0.5,3.1
		c0.1,0.4,0.3,0.8,0.4,1.2l2.5-6.7C229.8,89.1,228.9,89.7,228,90.3 M241.9,92.3l-0.7,2.6l2.8-3.2L241.9,92.3 M241.3,69.1
		c-0.1,0-0.1-0.1-0.2-0.1c-2.9-1.9-6.5-2.6-10.7-2.1l7,5.5l2.8-0.5c0.6,0,1.1,0.1,1.7,0.5l-1.4,4.7c0.4,0,0.8,0,1.2,0.1
		c0.3,0.6,0.6,1.6,0.9,3.1c0.6,0,1.1,0,1.6,0c0.7,0.1,1.4,0.2,2.1,0.3c0.3,0.1,0.7,0.1,1,0.2l0.4-0.2c-0.7-4.8-2.5-8.3-5.6-10.7
		l-0.1-0.1c-0.1-0.1-0.2-0.1-0.3-0.2l-0.1-0.1C241.5,69.3,241.4,69.2,241.3,69.1 M240.9,68.9c-0.5-0.4-0.9-0.8-1.5-1.2
		c-1.3-0.8-2.7-1.4-4.2-1.8c-2-0.5-4.2-0.6-6.5-0.3l1.4,1.1C234.4,66.2,238,66.9,240.9,68.9z"/>
	<path class="st4" d="M203.1,118.6c0.1-0.4,0.2-0.8,0.3-1.2c0.3-1.2,0.7-2.5,1.2-3.7l-8.5,4.1c0.2,0.2,0.3,0.4,0.5,0.5
		c0.4,0.3,0.7,0.4,1,0.2l0.7-0.3l0.1,1.7l0.1,0.2l0.1,0.1l0,0c0,0.1,0.1,0.1,0.2,0.1h0.1c0.2,0,0.4,0,0.5-0.1c0,0.5,0.1,0.8,0.2,0.9
		l0.5,0.4h0.1h0.1h0.1h0.1l0.2-0.1l1.6-0.8c0-0.1,0-0.2,0.1-0.3c0.1-0.6,0.2-1.2,0.4-1.8C203.1,118.8,203.1,118.7,203.1,118.6
		 M200.8,95.4c-0.2,0.2-0.5,0.5-0.7,0.8s-0.3,0.9-0.5,1.7c-0.1,0.7-0.2,1.2-0.3,1.5c0,0,0,0.1-0.1,0.1s-0.2,0.1-0.4,0.1h-0.1l0,0
		c-0.2,0.1-0.3,0.2-0.4,0.3c-0.3,0.3-0.5,0.6-0.5,0.8c0,0.2-0.1,0.5-0.1,1.1l-0.3,0.2c-0.4,0-0.6,0.3-0.6,1c0,0.3,0,0.5,0.1,0.8
		c0,0.2,0.1,0.4,0.2,0.6c0.1,0.2,0.2,0.3,0.3,0.5l-0.3,3.3l0.2,0.2l0.6-0.4c0.5-0.2,1,0.1,1.5,0.8l6.9-3.4l0.3-3.1v0.1l4.7-2.3
		l-1-3.6l-0.4-0.7l0,0c-0.3-0.1-0.7-0.2-1.2-0.3l-2,1l1.3-1.1l0,0c-0.9,0-1.7-0.1-2.4-0.1c-0.1,0-0.3,0-0.4,0
		c-0.7,0.3-1.2,0.6-1.6,0.8l1.1-0.9c-0.2,0-0.3,0-0.4,0c-0.4,0-1,0.1-1.6,0.3c-0.1-0.1-0.1-0.2-0.2-0.2c-0.1-0.1-0.3-0.3-0.4-0.4
		C201.3,95.1,201,95.3,200.8,95.4 M212.9,126.8l-1.7,1.9c-0.2,0.8-0.2,1.4,0.3,1.7l0.6,0.4c-0.4-0.3-0.4-0.9-0.2-1.8
		C212.5,127.8,212.8,127,212.9,126.8 M210.2,116.1c0,0.4-0.1,0.8-0.4,1.2c-0.2,0.3-0.6,0.8-1.2,1.6l2-1
		C210.6,117.2,210.5,116.6,210.2,116.1z"/>
	<path class="st5" d="M241.7,80.5l1.4,1c1.7-0.2,3.4-0.1,5,0.2c1.7,0.3,3.1,1,4.4,1.9h0.1l-1.6-1.2
		C248.4,80.8,245.3,80.1,241.7,80.5 M242.6,82.5c-0.2,0.1-0.3,0-0.3-0.1l-2.6-2c-0.1,0-0.1,0-0.2,0s-0.1,0-0.2,0
		c-1.8,0.4-3.7,0.9-5.5,1.7c-0.1,0-0.1,0.1-0.2,0.1c-0.2,0.1-0.4,0.2-0.6,0.3c-3.8,1.6-7.6,4.1-11.4,7.4c-3.7,3.3-7,6.9-9.8,10.8
		c-0.1,0.1-0.2,0.2-0.3,0.4c-1.1,1.5-2.1,3.1-3,4.8c-0.4,0.6-0.7,1.2-1.1,1.9c-1.1,2-2,4-2.8,6c-0.5,1.2-0.9,2.4-1.2,3.7
		c-0.1,0.4-0.2,0.8-0.3,1.2c0,0.1,0,0.2-0.1,0.2c-0.1,0.6-0.3,1.2-0.4,1.8c0,0.1-0.1,0.2-0.1,0.3c-0.1,0.5-0.2,1-0.2,1.6v0.1
		c-0.1,0.7-0.2,1.5-0.2,2.2c-0.1,1-0.1,1.9-0.1,2.8c0,0.2,0,0.5,0,0.7c0.2,3.2,1,5.9,2.4,8.1c0.6,1,1.3,1.8,2.2,2.6
		c0,0,0.1,0.1,0.2,0.1c0.1,0.1,0.1,0.1,0.2,0.2l0.1,0.1c0.1,0.1,0.1,0.1,0.2,0.2c0.2,0.2,0.5,0.4,0.8,0.6c0.1,0,0.1,0.1,0.2,0.1
		c0,0,0,0,0.1,0.1s0.2,0.2,0.3,0.3c0,0,0,0,0,0.1c0.1,0.1,0.2,0.1,0.3,0.2c0.9,0.7,1.8,1.3,2.9,1.7c0.8,0.3,1.6,0.5,2.5,0.7
		c0.1,0,0.2,0,0.3,0.1c0.1,0,0.2,0,0.4,0.1c0.8,0.1,1.6,0.1,2.4,0.1c0.2,0,0.3,0,0.5,0c1.8-0.1,3.7-0.4,5.6-1
		c0.5-0.2,0.9-0.3,1.4-0.5c0.1,0,0.2-0.1,0.4-0.1c4.4-1.6,8.6-4.2,12.8-7.7c0.4-0.3,0.8-0.7,1.2-1c0.1-0.1,0.1-0.1,0.2-0.2
		c1.3-1.1,2.5-2.3,3.6-3.5c0.2-0.2,0.4-0.4,0.6-0.6c1.9-2.1,3.7-4.3,5.3-6.6c0.1-0.2,0.3-0.4,0.4-0.6c0.1-0.1,0.2-0.3,0.3-0.4
		s0.2-0.3,0.3-0.4c0.8-1.2,1.5-2.4,2.2-3.5c0.1-0.2,0.2-0.3,0.2-0.4c0,0,0-0.1,0.1-0.1c0-0.1,0.1-0.2,0.2-0.3
		c0.8-1.6,1.6-3.1,2.3-4.7c0.6-1.5,1.2-3,1.6-4.5c1.7-5.5,2.1-10.5,1.2-14.9c-0.7-3.5-2.3-6.2-4.7-8.1L253,84h-0.1l0,0
		c0,0,0,0-0.1-0.1c-0.1,0-0.1-0.1-0.2-0.1c0,0,0,0-0.1-0.1c0,0,0,0-0.1,0h-1.2h1.2c-2.5-1.6-5.6-2.2-9.2-1.8V82
		C243.1,82.2,242.9,82.5,242.6,82.5 M237.9,85.3c0.1,0,0.1-0.1,0.2-0.1c1.4-0.4,2.7-0.7,3.9-0.8c1.3,0,2.6,0.2,3.8,0.6l1.6,0.7
		l0.1,0.2l0.1,0.3v0.1l-0.1,0.5c-0.1,0.3-0.2,0.6-0.4,0.9l-0.4,0.5l-2.9,3.3l-2.8,3.2l-1.1,1.2l-4.4,5l-2.2,2.7l-0.1,0.1
		c-0.4,0.4-0.8,0.7-1.2,0.8c-0.1,0-0.1,0-0.2,0.1c-0.7,0.2-1.1,0.2-1.2,0.1l0,0c0,0-0.1-0.3-0.3-1l0,0c0-0.1-0.1-0.3-0.1-0.5
		c0.2-0.4,0.4-0.8,0.6-1.3c0.6-1.1,0.9-1.9,1-2.5c0-0.3,0-0.6-0.2-0.7c-0.1,0-0.1-0.1-0.1-0.1l-1.2-0.9l-0.2-0.1l-0.5-0.4
		c-0.1-0.1-0.2-0.1-0.3-0.2c-0.1,0-0.1,0-0.2,0c-0.2,0-0.4,0-0.5,0c0,0,0-0.1-0.1-0.1c-0.1-0.1-0.1-0.1-0.1-0.2v-0.1v-0.2
		c0-0.1-0.1-0.2-0.1-0.3c-0.1-0.2-0.1-0.5-0.2-0.8c-0.1-0.3-0.2-0.7-0.4-1.2c-0.4-1.3-0.6-2.3-0.5-3.1c0.2-0.3,0.5-0.5,0.8-0.7
		c0.9-0.6,1.8-1.2,2.7-1.7c0.2-0.1,0.4-0.3,0.6-0.4c0.1-0.1,0.2-0.1,0.2-0.2c0.9-0.5,1.8-1,2.7-1.4
		C235.5,86.1,236.7,85.6,237.9,85.3 M251,90.2c0.2,0,0.4,0,0.6,0l0.8,2.4c0.1,0.2,0.1,0.5,0.2,0.8c0.1,0.3,0.1,0.5,0,0.8
		c0,0.1-0.1,0.2-0.1,0.3c-0.2,0.1-0.5,0.3-0.7,0.6c-0.2,0.3-0.4,0.6-0.4,0.8c-0.2,0.5-0.3,1.2-0.4,2c0,0.2,0,0.8-0.1,2
		c0,0.3,0.1,0.5,0.3,0.6l0,0l-0.1-0.1V100l0.3-3.4c0-0.2,0.1-0.6,0.4-1l0.3-0.4l0.2-0.1c-0.1,0.1-0.1,0.1-0.2,0.2
		c-0.3,0.5-0.4,0.8-0.5,1v0.1l-0.4,3.5v0.3l0.1,0.2c0.1,0.1,0.1,0.1,0.2,0.2c0.1,0.1,0.1,0.1,0.2,0.2l0,0c0.1,0.2,0.1,0.5,0.1,0.8
		c0,0.2-0.1,0.6-0.2,1c-0.1,0.4-0.2,0.8-0.3,1c-0.6,1.1-1.3,1.7-2,1.8c-0.2,0-0.4,0.1-0.5,0.1c-0.6,0.1-1,0.3-1.2,0.5
		c-0.5,0.4-1.1,1.4-1.9,2.8c-0.7,1.3-1.4,2.2-2,2.6l-0.1,0.1c-0.3,0.2-0.5,0.2-0.7,0.3l-0.2,0.1h-0.3l-7.1-2.1
		c-0.1-0.2-0.2-0.4-0.2-0.7c0-0.1,0-0.1,0-0.2c0-0.2,0-0.4,0-0.6c0.1-0.1,0.1-0.2,0.2-0.3c0.1-0.1,0.2-0.3,0.3-0.4
		c0.2-0.2,0.3-0.4,0.5-0.6s0.3-0.5,0.5-0.7c3.3-4.1,7.2-8.6,11.9-13.6C249.4,91.9,250.2,91.1,251,90.2 M223.4,98.7v0.2l0.7,2.9v0.5
		l-0.1,0.5v0.1l0.1,0.4l0.3,0.2v0.1l0.1,0.2l0.3,1.3l0.1,0.3l0.7,2.6v0.3c0,0.4-0.2,0.8-0.4,1.2s-0.3,0.6-0.4,0.8
		c-0.2,0.2-0.4,0.5-0.6,0.7l-0.4,0.4l-0.3,0.2l-1.5,0.7l-11.6,5.6l-2,1c0.6-0.7,1-1.3,1.2-1.6c0.2-0.4,0.4-0.8,0.4-1.2
		c0-0.3,0-0.6-0.1-1c-0.2-0.7-0.3-1.3-0.3-1.7c0-0.2,0-0.3,0-0.4c0.2-0.7,0.6-1.6,1.3-2.8c0.1-0.2,0.5-0.8,1-1.9
		c0.2-0.3,0.3-0.6,0.5-0.8c1-1.7,2.1-3.4,3.2-4.9c0.5-0.6,1-1.2,1.4-1.8c0.6-0.7,1.2-1.4,1.8-2.1c0.4-0.4,0.8-0.9,1.2-1.3
		c0.2-0.3,0.5-0.5,0.7-0.8c0.5-0.6,1.1-1.1,1.5-1.6L223.4,98.7 M205.5,116.5l0.1,0.1L205.5,116.5 M207.4,116.6l-0.1,0.1l-0.1,0.1
		l-0.1,0.1c-0.2,0-0.2,0-0.2-0.2s0.1-0.3,0.2-0.3h0.1l0,0h0.1v0.2 M206.8,117.6c0.1,0,0.2,0,0.2,0.1c-0.1,0.2-0.2,0.3-0.3,0.3
		s-0.2,0-0.1-0.2C206.6,117.7,206.7,117.7,206.8,117.6 M215,122.7c-0.1-0.2-0.1-0.4,0.1-0.7c0.3-0.3,0.5-0.4,0.6-0.2
		c0.2,0.2,0.1,0.4-0.1,0.7C215.3,122.8,215.1,122.9,215,122.7 M211.7,123.6c-0.3,0.3-0.5,0.4-0.6,0.2s-0.1-0.4,0.1-0.7
		c0.3-0.3,0.5-0.4,0.6-0.2C212,123.1,212,123.4,211.7,123.6 M210.5,127.5c0.3-0.3,0.5-0.4,0.6-0.2s0.1,0.4-0.2,0.7s-0.5,0.4-0.6,0.2
		C210.2,128,210.3,127.8,210.5,127.5 M210.2,129.3c0,0,0.1,0,0.2,0c0.1-0.1,0.3-0.2,0.6-0.3l0,0l0.2-0.1l0.1-0.1l1.7-1.9l4.7-5.5
		l1.8-2.2l0.1-0.1l0.2-0.2c0-0.1,0.1-0.1,0.1-0.2c0.2-0.3,0.5-0.5,0.6-0.5c1.7-1,3.4-1.9,5.2-2.7c-0.5,0.3-1.1,0.7-1.6,1
		c0.2,0,0.5,0.1,0.7,0.3c0.4,0.3,0.5,0.8,0.5,1.3c-0.7,2.8-1.6,5.9-2.8,9.2c-0.9,2.4-2.1,5.4-3.6,9c-0.1,0.4-0.4,0.7-0.6,1.1
		c-0.2,0.2-0.5,0.5-0.8,0.7s-0.7,0.3-1,0.3c-1.7-0.1-3.1-0.5-4.5-1.2c-0.5-0.2-0.9-0.5-1.3-0.8c-0.4-0.3-0.8-0.6-1.1-1
		c-0.4-0.4-0.8-0.8-1.1-1.3c-0.5-0.7-0.8-1.2-1-1.7c-0.2-0.4-0.3-0.8-0.3-1.1c0.1-0.6,0.6-1.4,1.6-2.6l0.9,0.7
		C209.8,129.3,210,129.4,210.2,129.3 M229.3,115.7c-0.2-0.2-0.2-0.6-0.2-1.1c0-1,0.3-2,1.1-2.8c0.6-0.9,1.4-1.5,2.5-1.8
		c0.8-0.2,1.3-0.1,1.6,0.4c0.1,0.2,0.2,0.5,0.3,0.8l0,0c-0.2-0.7-0.6-1-1.3-1c-0.6,0-1.2,0.2-1.7,0.7c-0.6,0.5-1.2,1.1-1.6,1.9
		c-0.5,0.9-0.7,1.6-0.5,2.3s0.6,1,1.3,1h0.1h0.1h0.1c0,0,0.1,0,0.2,0h0.1l0.1-0.1c0.2-0.1,0.3-0.1,0.5-0.2c0.1-0.1,0.2-0.2,0.3-0.3
		c0,0,0.1,0,0.1-0.1h0.2l0.3,0.1l3.6,1.1l7.7,2.2l0.1,0.1c0.1,0.2,0.1,0.4,0.1,0.6s0,0.3-0.1,0.5s-0.1,0.4-0.2,0.6
		c-0.1,0.1-0.2,0.3-0.2,0.4c-2.2,2.9-4.6,5.5-7.2,7.9c-2.5,2.3-5.1,4.2-7.8,5.7c-0.3,0.1-0.5,0.3-0.8,0.4c-0.1,0-0.2,0.1-0.3,0.1
		c-1.4,0.7-2.7,1.3-4,1.7c-0.4,0.1-0.7,0.1-0.8,0.1c-0.1-0.1-0.2-0.2-0.3-0.4c0.6-1.3,1.1-2.6,1.7-4c0.1-0.4,0.3-0.8,0.4-1.2
		c0.3-1,0.7-1.9,1-2.9c0.4-1.2,0.9-2.6,1.4-4.1c0.3-1.1,0.7-2.3,1.1-3.6c0-0.2,0.1-0.3,0.2-0.5c0.5-1.3,1-2.3,1.3-3.2
		c0.1-0.2,0.1-0.3,0.2-0.5c0.1-0.2,0.2-0.3,0.3-0.4C229.9,116.1,229.5,116,229.3,115.7c-0.1,0.1-0.1,0-0.2,0
		C229.3,115.7,229.3,115.7,229.3,115.7 M229,115.5l-1.1-0.8c0.2,0,0.4,0.1,0.6,0.2c0.2,0.2,0.4,0.3,0.4,0.5
		C228.9,115.3,229,115.4,229,115.5 M231.1,112.5c0.6-0.7,1.1-1,1.6-0.7l0.1,0.1c0.2,0.2,0.2,0.5,0.2,0.8c0,0.5-0.3,0.9-0.8,1.3
		c-0.5,0.5-0.9,0.6-1.3,0.3C230.4,113.9,230.5,113.3,231.1,112.5 M232.9,110.8c0.5,0,0.8,0.2,0.9,0.7c0.1,0.5,0,1.2-0.4,1.8
		c-0.3,0.6-0.8,1.1-1.3,1.5c-0.4,0.3-0.8,0.5-1.3,0.5s-0.8-0.2-1-0.7c0.3,0.6,0.8,0.7,1.4,0.5c0.6-0.2,1.1-0.6,1.6-1.3
		s0.8-1.3,0.8-1.8C233.8,111.4,233.5,111,232.9,110.8 M232.3,112.1c-0.1,0-0.2,0.1-0.3,0.1c-0.6,0.3-0.9,0.7-1,1.3
		c0,0.1,0,0.2,0,0.3c0.3,0.6,0.7,0.5,1.4-0.3C233,112.7,232.9,112.2,232.3,112.1z"/>
	<path class="st6" d="M224.1,116.5c0.5-0.4,1.1-0.7,1.6-1c-1.8,0.7-3.5,1.6-5.2,2.7c-0.2,0.1-0.4,0.3-0.6,0.5l-0.1,0.3
		c1.4-0.7,2.7-1.5,4-2.2c0.1,0,0.1,0,0.1-0.1C223.9,116.6,224,116.5,224.1,116.5 M211.1,127.3c-0.1-0.2-0.3-0.1-0.6,0.2
		c-0.2,0.3-0.3,0.5-0.2,0.7c0.1,0.2,0.3,0.1,0.6-0.2C211.2,127.7,211.3,127.4,211.1,127.3 M211.1,123.8c0.1,0.2,0.3,0.1,0.6-0.2
		c0.2-0.3,0.3-0.5,0.1-0.7c-0.1-0.2-0.3-0.1-0.6,0.2C211,123.4,211,123.7,211.1,123.8 M215.1,122c-0.2,0.3-0.3,0.5-0.1,0.7
		c0.1,0.2,0.3,0.1,0.6-0.2c0.2-0.3,0.3-0.5,0.1-0.7C215.6,121.7,215.4,121.7,215.1,122 M248.7,105.6l-0.2-0.1h-0.4
		c-0.3,0.2-0.6,0.3-0.7,0.4c-0.3,0.2-0.5,0.3-0.6,0.5l-0.1,0.1l-3.1,4.9v0.2l0.1-0.1c0.6-0.4,1.3-1.3,2-2.6c0.8-1.4,1.5-2.4,1.9-2.8
		C247.8,105.9,248.2,105.8,248.7,105.6 M245.8,96.3c0.9-1.1,1.9-2.3,2.9-3.5c-4.6,5-8.6,9.6-11.9,13.6c1.2-1.2,2.4-2.5,3.6-3.9
		c0.7-0.8,1.5-1.7,2.3-2.5C243.7,98.8,244.7,97.5,245.8,96.3z"/>
	<path id="Layer0_5_MEMBER_0_1_STROKES" class="st7" d="M252.5,83l-1.7-0.6l1.6,1.2l0.7,0.1 M252.6,83.7l0.2,0.2c0,0,0,0,0.1,0.1
		l0,0h0.1 M252.4,83.6L252.4,83.6h0.1 M252.4,83.6h-1.2"/>
	<path id="Layer0_5_MEMBER_0_2_STROKES" class="st8" d="M205.5,116.5l0.1,0.1"/>
	<path class="st5" d="M299.1,92.3L299.1,92.3c-0.1,0.4,0,0.7,0.2,1c0.2,0.1,0.4,0.3,0.6,0.5c0.2,0.1,0.3,0.2,0.5,0.3
		c0.3,0.2,0.6,0.3,0.8,0.3c0.2,0,0.5-0.1,0.7-0.2c1.1-1.2,2.2-2.2,3.4-3c1.2-0.9,2.5-1.5,3.8-2c0.2-0.1,0.5-0.1,0.7-0.2
		c0.1,0,0.2,0,0.4-0.1l-1-0.8c-0.8-0.5-1.7-0.7-2.8-0.6c-0.9,0.1-1.8,0.4-2.8,0.9l4.5,0.4c-0.3,0-0.6,0.1-1,0.2
		c-0.2,0-0.5,0.1-0.7,0.2l-3.7-0.4C301.5,89.9,300.3,91,299.1,92.3 M310.5,90.4c-0.9,0.2-1.8,0.6-2.8,1.2c-2.2,1.3-4.2,3.2-5.9,5.7
		c-1.8,2.7-2.7,5.3-2.7,7.8c0,0,0,0,0,0.1c0.1,0.6,0.4,1.1,0.7,1.5c0.3,0.3,0.6,0.6,1,0.8c0,0,0.1,0,0.1,0.1
		c0.8,0.4,1.8,0.4,2.8,0.2c0.5-0.1,0.9-0.2,1.4-0.4c0.1,0,0.2,0,0.2-0.1c0.9-0.4,1.8-0.9,2.6-1.5c1.2-0.9,2.3-2,3.3-3.3
		c0.7-0.8,1.3-1.8,1.9-3.1c0.6-1.3,1-2.6,1.1-3.9c0.2-2.2-0.2-3.7-1.5-4.5l-0.1-0.1C312,90.7,311.4,90.5,310.5,90.4 M308.5,93.8
		c-0.1-0.2-0.2-0.4-0.4-0.6c0.8,0.7,1,1.6,0.8,2.9c-0.2,1.2-0.8,2.4-1.7,3.6c-0.9,1.2-1.9,2.1-3,2.5c-1.2,0.6-2.2,0.6-3,0
		c0.2,0.1,0.4,0.2,0.7,0.2c0.7,0.1,1.5,0,2.3-0.5c1-0.5,2-1.3,2.9-2.5c0.8-1.1,1.4-2.2,1.7-3.4C308.9,95.2,308.8,94.4,308.5,93.8z"
		/>
	<path class="st0" d="M279.7,81.2c-0.5,0.3-0.7,0.8-0.7,1.4v3l-0.3-0.1h-0.1h0.2v0.1l1.4,0.1l0.2,0.4l1.2,0.1
		c0.2-0.4,0.5-0.5,0.7-0.4l2.8,0.3c0.1-0.1,0.2-0.1,0.4-0.1c0.1,0,0.2,0,0.2,0l1.8,0.2c0.2,0,0.3,0.1,0.4,0.2l2.8,0.3
		c0.3,0.1,0.5,0.3,0.6,0.5l1.2,0.2l0.2-0.3l2.1,0.2l0.1,0.2l4.1,0.4c0.3,0,0.4,0.2,0.5,0.4l4.4,0.5c1-0.5,1.9-0.8,2.8-0.9
		c1.1-0.1,2,0.1,2.8,0.6l1,0.8c-0.1,0-0.3,0-0.4,0.1c-0.2,0-0.5,0.1-0.7,0.2c-1.3,0.4-2.5,1.1-3.8,2c-1.2,0.7-2.3,1.7-3.4,3
		c-0.2,0.1-0.5,0.2-0.7,0.2s-0.5-0.1-0.8-0.3c-0.2-0.1-0.3-0.2-0.5-0.3c-0.2-0.2-0.5-0.4-0.6-0.5c-0.2-0.3-0.3-0.6-0.2-0.9v-0.1
		c1.2-1.4,2.4-2.4,3.7-3.2l-3.5-0.4c-0.1,0.2-0.2,0.3-0.5,0.3l-4.2-0.4v0.1l-1.5-0.2h-0.6l-0.2-0.4l-1.2-0.2
		c-0.1,0.3-0.4,0.4-0.7,0.4l-2.8-0.3c-0.2,0.1-0.3,0.1-0.5,0.1l-1.8-0.2c-0.2,0-0.3-0.1-0.5-0.2l-2.8-0.3H282l-0.2-0.1l-0.1-0.1
		l-0.2-0.2v-0.3l-1.3-0.1l-0.2,0.3c-0.1,0-0.2,0-0.4,0l-1.1-0.1l0,0l0,0h-0.6l0.7,0.1l0,0h0.4v9.1c0,0.5,0.2,0.9,0.5,1.2l8.6,6.7
		v3.8c0,0.2,0.1,0.4,0.2,0.5l1.7,1.4c0.3,0.2,0.6,0.3,0.9,0.3s0.6-0.1,0.8-0.2l5.3-3.1l3.1,2.4c0.1,0.1,0.2,0.2,0.3,0.3
		c0,0,0.1,0.1,0.2,0.2c0.4,0.2,0.8,0.4,1.3,0.6c1.8,0.5,3.8,0,6-1.3c2.3-1.4,4.3-3.4,6-5.9c1.7-2.6,2.6-5.1,2.8-7.5l3.9-2.2
		c0.2-0.1,0.4-0.3,0.5-0.5s0.2-0.5,0.2-0.7V76.5c0-0.5-0.2-0.9-0.6-1.2L319,74c-0.1-0.1-0.3-0.1-0.5-0.1h-0.1h-0.2l-6.1,3.5
		l-9.9-7.7c-0.2-0.2-0.5-0.2-0.8-0.3c-0.3,0-0.6,0.1-0.9,0.2L279.7,81.2 M307.7,91.6c1-0.6,1.9-1,2.8-1.2c0.8,0.1,1.5,0.3,2.1,0.6
		c0,0,0.1,0,0.1,0.1c1.2,0.8,1.7,2.3,1.5,4.5c-0.1,1.3-0.5,2.6-1.1,3.9c-0.5,1.3-1.2,2.3-1.9,3.1c-1,1.3-2.1,2.4-3.3,3.3
		c-0.9,0.7-1.7,1.2-2.6,1.5c0,0-0.1,0-0.2,0.1c-0.5,0.2-0.9,0.3-1.4,0.4c-1.1,0.2-2,0.1-2.8-0.2l-1.2,0.5c-0.1-0.2-0.2-0.4-0.2-0.5
		l0.8-0.4l-0.5-0.4l-0.5,0.1l0,0c0-0.1,0-0.2,0-0.3h0.3l0.3,0.1c-0.4-0.4-0.6-0.9-0.7-1.5c0,0,0,0,0-0.1c0-2.5,0.9-5.1,2.7-7.8
		C303.5,94.8,305.5,92.9,307.7,91.6z"/>
	<path class="st0" d="M299.2,108.2l-0.5-0.4l-25.2,10.8c-0.2-0.2-0.3-0.3-0.5-0.2l-5.3,2.3h0.1l-1.8,0.8h-0.5l-0.1,0.5h0.1h-0.1
		l-2.1,0.9c-0.2-0.2-0.4-0.3-0.6-0.3l-3.7,1.6c-0.2,0-0.3,0-0.5,0l-2.1,1c-0.2,0-0.3,0.1-0.3,0.3l-3.6,1.5c-0.2,0-0.4,0.2-0.3,0.6
		l-2.1,0.9l-0.1-0.2l-1.5,0.7l-0.1,0.4l-0.2-0.3h-0.4l-0.2,0.2l-5.3,2.3c-0.2,0-0.2,0.2-0.2,0.5l-2.2,1c-0.1,0.1-0.2,0.1-0.3,0.2
		c-0.4,0.4-0.8,0.7-1.2,1l3.9-1.7c0.2,0.2,0.3,0.3,0.5,0.2l5.3-2.3l0.3-0.1c0,0,0,0.1-0.1,0.1h0.2l1.8-0.8l0.1-0.5l2.1-0.9
		c0.3,0.3,0.5,0.4,0.6,0.2l3.7-1.6c0.2,0.1,0.3,0.1,0.4,0l2.2-1c0.1,0,0.2-0.1,0.2-0.2l3.7-1.6c0.2-0.1,0.3-0.3,0.3-0.6l2-0.9
		l0.1,0.2h0.5l1.8-0.8v-0.2l5.4-2.3c0.1-0.1,0.2-0.3,0.1-0.5L299.2,108.2 M299.8,106.5l-0.3-0.1h-0.3c0,0.1,0,0.2,0.1,0.3l0,0
		L299.8,106.5l0.5,0.5l-0.8,0.4c0.1,0.2,0.1,0.3,0.2,0.5l1.2-0.5l-0.1-0.1C300.4,107.1,300,106.8,299.8,106.5 M251.6,82.9
		c-0.1,0-0.1-0.1-0.2-0.1l1,0.8l20.7,2.2c0,0,0,0.1,0.1,0.2l0.6,0.2c0.1,0,0.1,0,0.2-0.1c0.2,0.1,0.5,0.1,0.9,0.2
		c0.3,0,0.7,0.1,1.1,0.1c0.2,0,0.4,0,0.6,0l0.1,0.1c0.1,0,0.2,0.1,0.3,0.1c0.2,0,0.5,0.1,0.8,0.1l0,0l0.4,0.1l-0.3-0.1
		c0.1,0,0.3,0,0.5,0c-0.1,0-0.2,0.1-0.2,0.1h0.3l1.1,0.1c0.1,0,0.3,0,0.4,0l0.2-0.3l1.3,0.1V87l0.2,0.2l0.1,0.1l0.2,0.1
		c0,0,0,0,0.1,0l2.8,0.3c0.2,0.1,0.3,0.2,0.5,0.2l1.8,0.2c0.2,0,0.4,0,0.5-0.1l2.8,0.3c0.3,0,0.6-0.2,0.7-0.4l1.2,0.1l0.2,0.4h0.7
		l1.5,0.2l0,0L299,89c0.2,0,0.4-0.1,0.5-0.3l7.2,0.7c0.2-0.1,0.5-0.2,0.7-0.2c0.3-0.1,0.6-0.1,1-0.2l-8.8-0.9c0-0.2-0.2-0.4-0.5-0.4
		l-4.1-0.4v-0.2l-2.1-0.2l-0.2,0.3l-1.2-0.2c-0.1-0.3-0.3-0.5-0.6-0.5l-2.8-0.3c-0.1-0.1-0.3-0.2-0.4-0.2l-1.8-0.2c0,0-0.1,0-0.2,0
		s-0.3,0-0.4,0.1l-2.7-0.3c-0.3-0.1-0.5,0-0.8,0.4l-1.2-0.1l-0.2-0.4l-1.5-0.1v-0.1h-0.1h-0.1h-0.1h-2.2c-0.6-0.1-1.1-0.1-1.4-0.1
		h-0.5h0.3c0,0-0.1,0-0.2,0l-0.5-0.1l0,0c0.1,0,0.1,0,0.2,0.1h-0.1l-0.7,0.2l0,0L251.6,82.9 M250.8,82.4l0.6,0.4c0,0,0-0.1-0.1-0.1
		C251.2,82.6,251,82.5,250.8,82.4z"/>
	<path id="Layer0_5_MEMBER_3_MEMBER_0_1_STROKES" class="st8" d="M201,118.1c0,0.1-0.1,0.3-0.1,0.4c-0.1,0.1-0.2,0.2-0.3,0.3
		c-0.1,0-0.2,0.1-0.3,0.1s-0.2,0.1-0.2,0.1c-0.1,0.2-0.1,0.6,0,1.2c0.1,0.7,0.2,1.2,0.3,1.3l0.1,0.1l0.1,0.1h0.1h0.1h0.1l0.1-0.1
		l1.6-0.8"/>
	<path id="Layer0_5_MEMBER_3_MEMBER_1_1_STROKES" class="st8" d="M205.9,95.7l-2.7,1.4l-0.2,0.1l-0.2,0.2l0,0l-0.2,0.3
		c-0.3,0.4-0.5,1-0.7,1.8s-0.2,1.3-0.2,1.7c0,0.1,0.1,0.4,0.3,0.9c0.1,0.3,0.2,0.7,0.2,1l0.1,0.2v0.5v0.1c0.2,0.2,0.3,0.4,0.3,0.4"
		/>
	<path id="Layer0_5_MEMBER_3_MEMBER_2_1_STROKES" class="st8" d="M202.1,104c-0.3,1.3-0.7,2.2-1,2.8L201,107l0,0l-0.1,0.2l-0.1,0.1
		h-0.2h-0.1l-2.3-1.7"/>
	<path id="Layer0_5_MEMBER_3_MEMBER_3_1_STROKES" class="st8" d="M192.1,133.1l-0.2-0.2"/>
	<path id="Layer0_5_MEMBER_3_MEMBER_4_1_STROKES" class="st8" d="M191.5,132.6c-0.8-0.6-1.5-1.1-1.9-1.6"/>
	<path id="Layer0_5_MEMBER_3_MEMBER_5_1_STROKES" class="st8" d="M191.7,132.8l-1.1-1"/>
	<path id="Layer0_5_MEMBER_3_MEMBER_6_1_STROKES" class="st8" d="M194.4,124.2l0.9,0.7l0.1,0.1l0.2,0.2v0.1l0,0
		c0.1,0.2-0.1,0.5-0.2,0.7c-0.2,0.2-0.4,0.3-0.6,0.3"/>
	<path id="Layer0_5_MEMBER_3_MEMBER_7_1_STROKES" class="st8" d="M200.1,99.1c-0.1,0.3,0.1,0.7,0.3,1"/>
	<path id="Layer0_5_MEMBER_3_MEMBER_8_1_STROKES" class="st8" d="M200.6,100.2c0.1,0.1,0.3,0.1,0.4,0.1c0.1-0.1,0.2-0.2,0.2-0.3"/>
	<path id="Layer0_5_MEMBER_3_MEMBER_9_1_STROKES" class="st8" d="M198.2,118.5l0.1,1.2l0.1,0.1l0.1,0.1l0.1,0.1"/>
	<path id="Layer0_5_MEMBER_3_MEMBER_10_1_STROKES" class="st8" d="M200.1,121.2c-0.2-0.1-0.2-0.5-0.2-1.1c-0.1-0.6-0.1-1.1-0.3-1.3
		c-0.1-0.1-0.1-0.2-0.3-0.4c-0.2-0.2-0.3-0.2-0.5-0.2"/>
	<path id="Layer0_5_MEMBER_3_MEMBER_11_1_STROKES" class="st8" d="M199.8,120.4c-0.2,0.1-0.3,0.1-0.5,0.1s-0.3-0.1-0.4-0.2l-0.1-0.1
		l-0.1-0.1V120l-0.1-1.5v-0.2"/>
	<path id="Layer0_5_MEMBER_3_MEMBER_12_1_STROKES" class="st8" d="M197.7,101.9c0.1-0.5,0.1-0.9,0.2-1c0.1-0.3,0.2-0.6,0.5-0.9
		c0.2-0.1,0.3-0.2,0.6-0.3c0.2-0.1,0.3-0.1,0.4-0.2c0.1-0.2,0.3-0.8,0.4-1.6s0.3-1.3,0.5-1.7c0.2-0.3,0.4-0.6,0.7-0.8
		c0.2-0.1,0.5-0.3,0.9-0.5"/>
	<path id="Layer0_5_MEMBER_3_MEMBER_13_1_STROKES" class="st8" d="M203.6,99c-0.5-0.2-0.4-0.6,0.1-1.3c0.5-0.6,0.9-0.8,1.3-0.4"/>
	<path id="Layer0_5_MEMBER_3_MEMBER_14_1_STROKES" class="st8" d="M203.3,118.6c-0.1-0.1-0.2-0.1-0.3-0.1s-0.2,0.1-0.3,0.1"/>
	<path id="Layer0_5_MEMBER_3_MEMBER_15_1_STROKES" class="st8" d="M242.6,93.2l-0.9-0.7"/>
	<path id="Layer0_5_MEMBER_3_MEMBER_16_1_STROKES" class="st8" d="M191.5,128.6c0.1-0.2,0.2-0.4,0.1-0.6l0,0l-0.1-0.2l0,0l-0.1-0.1
		l-0.1-0.1"/>
	<path id="Layer0_5_MEMBER_3_MEMBER_17_1_STROKES" class="st8" d="M190,126.4c0.1,0,0.3,0,0.5,0.1"/>
	<path id="Layer0_5_MEMBER_3_MEMBER_18_1_STROKES" class="st8" d="M223.5,116.6c0.5-0.2,0.9-0.2,1.3,0.2c0.4,0.3,0.5,0.8,0.4,1.2
		c-0.6,2.8-1.6,5.9-2.8,9.2c-0.9,2.4-2,5.4-3.6,8.9c-0.1,0.4-0.3,0.8-0.7,1c-0.2,0.2-0.5,0.5-0.8,0.7s-0.6,0.3-0.9,0.3
		c-1.6-0.1-3.1-0.5-4.5-1.2c-1.4-0.8-2.6-1.7-3.5-3.1c-0.9-1.2-1.3-2.2-1.2-2.8s0.6-1.5,1.6-2.6"/>
	<path id="Layer0_5_MEMBER_3_MEMBER_21_1_STROKES" class="st8" d="M189.4,127.6c-0.5,0.5-0.7,0.9-0.8,1.4c0,0.1,0,0.3,0.1,0.5
		c0.1,0.1,0.1,0.2,0.2,0.4c0.5,0.7,0.9,1.3,1.4,1.8"/>
	<path id="Layer0_5_MEMBER_3_MEMBER_22_1_STROKES" class="st8" d="M240.9,95l0.8-2.6"/>
	<path id="Layer0_5_MEMBER_3_MEMBER_23_1_STROKES" class="st8" d="M193.4,126.5c0.3,0.1,0.8,0,1.3-0.1"/>
	<path id="Layer0_5_MEMBER_3_MEMBER_25_1_STROKES" class="st8" d="M190.3,126.8c0.2-0.3,0.3-0.5,0.1-0.8c-0.2-0.2-0.4-0.3-0.8-0.2
		l0.3,0.5"/>
	<path id="Layer0_5_MEMBER_3_MEMBER_26_1_STROKES" class="st8" d="M199.5,108.8c-0.5-0.7-1-0.9-1.5-0.8"/>
	<path id="Layer0_5_MEMBER_3_MEMBER_27_1_STROKES" class="st8" d="M202.4,95.4c-0.9,0.3-1.4,0.8-1.7,1.3c-0.1,0.3-0.3,1-0.6,2.3"/>
	<path id="Layer0_5_MEMBER_3_MEMBER_28_1_STROKES" class="st8" d="M200.6,100.2l-0.1-0.1"/>
	<path id="Layer0_5_MEMBER_3_MEMBER_29_1_STROKES" class="st8" d="M201.2,100c0.2-1.5,0.6-2.4,1-2.9c0.2-0.2,1.2-0.7,3-1.6"/>
	<path id="Layer0_5_MEMBER_3_MEMBER_30_1_STROKES" class="st8" d="M205.6,95.4l0.3,0.2l-0.2,3.1V99l0.1,0.1c0.1,0.2,0.2,0.5,0.3,0.8
		c0.4,0.9,0.6,1.6,0.5,2.4"/>
	<path id="Layer0_5_MEMBER_3_MEMBER_31_1_STROKES" class="st8" d="M320.4,91.9c0,0.2-0.1,0.5-0.2,0.7s-0.3,0.4-0.5,0.5"/>
	<path id="Layer0_5_MEMBER_3_MEMBER_32_1_STROKES" class="st8" d="M299.8,69.4c0.2-0.2,0.5-0.2,0.9-0.2c0.3,0,0.6,0.1,0.8,0.3"/>
	<path id="Layer0_5_MEMBER_3_MEMBER_33_1_STROKES" class="st8" d="M279,97.3c-0.3-0.3-0.5-0.6-0.5-1.1"/>
	<path id="Layer0_5_MEMBER_3_MEMBER_34_1_STROKES" class="st8" d="M320.4,91.8V76"/>
	<path id="Layer0_5_MEMBER_3_MEMBER_35_1_STROKES" class="st8" d="M319.8,74.9l-1.7-1.3"/>
	<path id="Layer0_5_MEMBER_3_MEMBER_36_1_STROKES" class="st8" d="M319.8,74.9c0.4,0.3,0.6,0.7,0.6,1.2"/>
	<path id="Layer0_5_MEMBER_3_MEMBER_37_1_STROKES" class="st8" d="M311.2,77.1l-9.7-7.6"/>
	<path id="Layer0_5_MEMBER_3_MEMBER_38_1_STROKES" class="st8" d="M287.5,103.9l-8.4-6.6"/>
	<path id="Layer0_5_MEMBER_3_MEMBER_39_1_STROKES" class="st8" d="M287.7,108.2l1.7,1.3"/>
	<path id="Layer0_5_MEMBER_3_MEMBER_40_1_STROKES" class="st8" d="M278.4,82.7v2.9"/>
	<path id="Layer0_5_MEMBER_3_MEMBER_41_1_STROKES" class="st8" d="M278.4,87.2v9"/>
	<path id="Layer0_5_MEMBER_3_MEMBER_42_1_STROKES" class="st8" d="M291,109.6c-0.2,0.2-0.5,0.2-0.8,0.2s-0.6-0.1-0.8-0.3"/>
	<path id="Layer0_5_MEMBER_3_MEMBER_43_1_STROKES" class="st8" d="M289.5,109.6l-0.1-0.1"/>
	<path id="Layer0_5_MEMBER_3_MEMBER_44_1_STROKES" class="st8" d="M278.4,82.7c0-0.6,0.2-1,0.8-1.3"/>
	<path id="Layer0_5_MEMBER_3_MEMBER_45_1_STROKES" class="st8" d="M279.1,81.3l20.7-11.9"/>
	<path id="Layer0_5_MEMBER_3_MEMBER_46_1_STROKES" class="st8" d="M291,109.6l5.3-3"/>
	<path id="Layer0_5_MEMBER_3_MEMBER_47_1_STROKES" class="st8" d="M315.8,95.3l3.8-2.2"/>
	<path id="Layer0_5_MEMBER_3_MEMBER_48_1_STROKES" class="st8" d="M308.4,88.4l0.9,0.7"/>
	<path id="Layer0_5_MEMBER_3_MEMBER_49_1_STROKES" class="st8" d="M309,89.3c-0.8-0.2-1.6-0.2-2.6,0.1c-0.8,0.2-1.6,0.6-2.4,1"/>
	<path id="Layer0_5_MEMBER_3_MEMBER_50_1_STROKES" class="st8" d="M310.8,90.4l0.2,0.1"/>
	<path id="Layer0_5_MEMBER_3_MEMBER_51_1_STROKES" class="st8" d="M311.9,91.2l-0.7-0.6"/>
	<path id="Layer0_5_MEMBER_3_MEMBER_52_1_STROKES" class="st8" d="M299.7,109.2l0.2,0.2"/>
	<path id="Layer0_5_MEMBER_3_MEMBER_53_1_STROKES" class="st8" d="M294.2,104.9l5.3,4.1"/>
	<path id="Layer0_5_MEMBER_3_MEMBER_54_1_STROKES" class="st8" d="M304,90.4c-1.6,0.9-3,2.2-4.3,3.8"/>
	<path id="Layer0_5_MEMBER_3_MEMBER_55_1_STROKES" class="st8" d="M298.8,106.5l-0.3-0.3l-0.1-0.1"/>
	<path id="Layer0_5_MEMBER_3_MEMBER_56_1_STROKES" class="st8" d="M301.2,94.3c1-1.2,2.2-2.2,3.3-2.9"/>
	<path id="Layer0_5_MEMBER_3_MEMBER_57_1_STROKES" class="st8" d="M299,106.7l0.7,0.6"/>
	<path id="Layer0_5_MEMBER_3_MEMBER_58_1_STROKES" class="st8" d="M308.5,86.5l5.5,4.3"/>
	<path id="Layer0_5_MEMBER_3_MEMBER_59_1_STROKES" class="st8" d="M308.5,86.5l5.5,4.3"/>
	<path id="Layer0_5_MEMBER_3_MEMBER_60_1_STROKES" class="st8" d="M264.4,121.2l0.6,0.5"/>
	<path id="Layer0_5_MEMBER_3_MEMBER_61_1_STROKES" class="st8" d="M298.2,87.9l-4.1-0.4"/>
	<path id="Layer0_5_MEMBER_3_MEMBER_62_1_STROKES" class="st8" d="M298.1,89.1l-4.1-0.4"/>
	<path id="Layer0_5_MEMBER_3_MEMBER_63_1_STROKES" class="st8" d="M272.6,118.4l-5.3,2.3"/>
	<path id="Layer0_5_MEMBER_3_MEMBER_64_1_STROKES" class="st8" d="M273.1,119.6l-5.4,2.3"/>
	<path id="Layer0_5_MEMBER_3_MEMBER_65_1_STROKES" class="st8" d="M292.2,87.4l-1.7-0.2"/>
	<path id="Layer0_5_MEMBER_3_MEMBER_66_1_STROKES" class="st8" d="M265.3,121.7l-2.4,1"/>
	<path id="Layer0_5_MEMBER_3_MEMBER_67_1_STROKES" class="st8" d="M292.1,88.3l-1.7-0.2"/>
	<path id="Layer0_5_MEMBER_3_MEMBER_68_1_STROKES" class="st8" d="M265.7,122.5l-2.4,1"/>
	<path id="Layer0_5_MEMBER_3_MEMBER_69_1_STROKES" class="st8" d="M258.6,124.1l3.7-1.6"/>
	<path id="Layer0_5_MEMBER_3_MEMBER_70_1_STROKES" class="st8" d="M287.1,86.4l2.8,0.3"/>
	<path id="Layer0_5_MEMBER_3_MEMBER_71_1_STROKES" class="st8" d="M259.3,125.8l3.7-1.6"/>
	<path id="Layer0_5_MEMBER_3_MEMBER_72_1_STROKES" class="st8" d="M287,88.1l2.9,0.3"/>
	<path id="Layer0_5_MEMBER_3_MEMBER_73_1_STROKES" class="st8" d="M257.9,117.7l-0.1,0.1v0.1"/>
	<path id="Layer0_5_MEMBER_3_MEMBER_74_1_STROKES" class="st8" d="M298.6,88.8l7.1,0.8"/>
	<path id="Layer0_5_MEMBER_3_MEMBER_75_1_STROKES" class="st8" d="M257,116.6l-0.1-0.1"/>
	<path id="Layer0_5_MEMBER_3_MEMBER_76_1_STROKES" class="st8" d="M256.9,116.4l-0.1-0.2v-0.1"/>
	<path id="Layer0_5_MEMBER_3_MEMBER_77_1_STROKES" class="st8" d="M256.8,116.1c0-0.2,0.1-0.4,0.2-0.6"/>
	<path id="Layer0_5_MEMBER_3_MEMBER_78_1_STROKES" class="st8" d="M257.1,115.5l0.2-0.2l0.1-0.1h0.1"/>
	<path id="Layer0_5_MEMBER_3_MEMBER_79_1_STROKES" class="st8" d="M257.5,115.2h0.1"/>
	<path id="Layer0_5_MEMBER_3_MEMBER_80_1_STROKES" class="st8" d="M298.7,88.3l8.8,0.9"/>
	<path id="Layer0_5_MEMBER_3_MEMBER_81_1_STROKES" class="st8" d="M258.5,116.7l-0.6,0.9"/>
	<path id="Layer0_5_MEMBER_3_MEMBER_82_1_STROKES" class="st8" d="M300.2,107.5l-1,0.5"/>
	<path id="Layer0_5_MEMBER_3_MEMBER_83_1_STROKES" class="st8" d="M298.5,108.2L273.3,119"/>
	<path id="Layer0_5_MEMBER_3_MEMBER_84_1_STROKES" class="st8" d="M258.8,115.9L258.8,115.9"/>
	<path id="Layer0_5_MEMBER_3_MEMBER_85_1_STROKES" class="st8" d="M258.8,115.9c0,0.3-0.1,0.5-0.3,0.8"/>
	<path id="Layer0_5_MEMBER_3_MEMBER_86_1_STROKES" class="st8" d="M258.3,114.8c0.3,0.2,0.5,0.6,0.5,1"/>
	<path id="Layer0_5_MEMBER_3_MEMBER_87_1_STROKES" class="st8" d="M256,125.1l2.2-0.9"/>
	<path id="Layer0_5_MEMBER_3_MEMBER_88_1_STROKES" class="st8" d="M299.6,107.1l-0.8,0.3"/>
	<path id="Layer0_5_MEMBER_3_MEMBER_89_1_STROKES" class="st8" d="M298,107.9l-25,10.7"/>
	<path id="Layer0_5_MEMBER_3_MEMBER_90_1_STROKES" class="st8" d="M257.9,114.6l0.1,0.1"/>
	<path id="Layer0_5_MEMBER_3_MEMBER_91_1_STROKES" class="st8" d="M256.8,127l2.3-1"/>
	<path id="Layer0_5_MEMBER_3_MEMBER_92_1_STROKES" class="st8" d="M285,86l1.7,0.2"/>
	<path id="Layer0_5_MEMBER_3_MEMBER_93_1_STROKES" class="st8" d="M284.7,88.1l1.7,0.2"/>
	<path id="Layer0_5_MEMBER_3_MEMBER_94_1_STROKES" class="st8" d="M252.1,126.9l3.9-1.7"/>
	<path id="Layer0_5_MEMBER_3_MEMBER_95_1_STROKES" class="st8" d="M252.8,128.6l4-1.7"/>
	<path id="Layer0_5_MEMBER_3_MEMBER_96_1_STROKES" class="st8" d="M249.8,128.4l2.4-1"/>
	<path id="Layer0_5_MEMBER_3_MEMBER_97_1_STROKES" class="st8" d="M281.7,85.9l3.1,0.3"/>
	<path id="Layer0_5_MEMBER_3_MEMBER_98_1_STROKES" class="st8" d="M250.1,129.2l2.5-1"/>
	<path id="Layer0_5_MEMBER_3_MEMBER_99_1_STROKES" class="st8" d="M281.5,87.6l3.1,0.3"/>
	<path id="Layer0_5_MEMBER_3_MEMBER_100_1_STROKES" class="st8" d="M279.7,86.1l1.8,0.2"/>
	<path id="Layer0_5_MEMBER_3_MEMBER_101_1_STROKES" class="st8" d="M279.7,86.9l1.8,0.2"/>
	<path id="Layer0_5_MEMBER_3_MEMBER_102_1_STROKES" class="st8" d="M194.9,135.1l-0.8-0.6"/>
	<path id="Layer0_5_MEMBER_3_MEMBER_103_1_STROKES" class="st8" d="M224.9,131.1l4.1,3.2"/>
	<path id="Layer0_5_MEMBER_3_MEMBER_104_1_STROKES" class="st8" d="M224.5,132.2l3.5,2.7"/>
	<path id="Layer0_5_MEMBER_3_MEMBER_105_1_STROKES" class="st8" d="M242,131.5l5.5-2.3"/>
	<path id="Layer0_5_MEMBER_3_MEMBER_106_1_STROKES" class="st8" d="M242.5,132.7l5.5-2.4"/>
	<path id="Layer0_5_MEMBER_3_MEMBER_107_1_STROKES" class="st8" d="M273.2,85.2l4.5,0.5"/>
	<path id="Layer0_5_MEMBER_3_MEMBER_108_1_STROKES" class="st8" d="M273.1,86.5l4.5,0.5"/>
	<path id="Layer0_5_MEMBER_3_MEMBER_109_1_STROKES" class="st8" d="M211.1,147.7l1.2,0.9"/>
	<path id="Layer0_5_MEMBER_3_MEMBER_110_1_STROKES" class="st8" d="M242.3,132.4l-4.1,1.7"/>
	<path id="Layer0_5_MEMBER_3_MEMBER_111_1_STROKES" class="st8" d="M242.2,131.9l-2.5,1.1"/>
	<path id="Layer0_5_MEMBER_3_MEMBER_112_1_STROKES" class="st8" d="M225.2,141.9l0.9,0.8"/>
	<path id="Layer0_5_MEMBER_3_MEMBER_113_1_STROKES" class="st8" d="M249.8,106.4L249.8,106.4"/>
	<path id="Layer0_5_MEMBER_3_MEMBER_114_1_STROKES" class="st8" d="M223.8,142.4l1.6,1.3"/>
	<path id="Layer0_5_MEMBER_3_MEMBER_115_1_STROKES" class="st8" d="M249.7,106.4l1.1,0.9"/>
	<path id="Layer0_5_MEMBER_3_MEMBER_116_1_STROKES" class="st8" d="M251.1,101l-0.2-0.2"/>
	<path id="Layer0_5_MEMBER_3_MEMBER_117_1_STROKES" class="st8" d="M214.1,136l-0.1-0.1"/>
	<path id="Layer0_5_MEMBER_3_MEMBER_118_1_STROKES" class="st8" d="M211.6,130.3l0.5,0.4"/>
	<path id="Layer0_5_MEMBER_3_MEMBER_119_1_STROKES" class="st8" d="M212.7,135.3l0.3,0.2"/>
	<path id="Layer0_5_MEMBER_3_MEMBER_120_1_STROKES" class="st8" d="M202.3,120.6l-0.4-0.3"/>
	<path id="Layer0_5_MEMBER_3_MEMBER_121_1_STROKES" class="st8" d="M242.6,77.9l0.2,0.1"/>
	<path id="Layer0_5_MEMBER_3_MEMBER_122_1_STROKES" class="st8" d="M203.7,117.3l-3,1.5"/>
	<path id="Layer0_5_MEMBER_3_MEMBER_123_1_STROKES" class="st8" d="M197.9,118.7l2-1"/>
	<path id="Layer0_5_MEMBER_3_MEMBER_124_1_STROKES" class="st8" d="M221.8,110.4l0.8,0.6"/>
	<path id="Layer0_5_MEMBER_3_MEMBER_125_1_STROKES" class="st8" d="M200.5,121.6l-0.5-0.3"/>
	<path id="Layer0_5_MEMBER_3_MEMBER_126_1_STROKES" class="st8" d="M198.9,120.4l-0.5-0.3"/>
	<path id="Layer0_5_MEMBER_3_MEMBER_127_1_STROKES" class="st8" d="M211.2,87l-0.3,0.2"/>
	<path id="Layer0_5_MEMBER_3_MEMBER_128_1_STROKES" class="st8" d="M227.9,114.6l1.3,1"/>
	<path id="Layer0_5_MEMBER_3_MEMBER_129_1_STROKES" class="st8" d="M230.7,114.2l0.1,0.1"/>
	<path id="Layer0_5_MEMBER_3_MEMBER_130_1_STROKES" class="st8" d="M230.9,114.3c0.4,0.2,0.8,0.1,1.3-0.3s0.7-0.8,0.8-1.3"/>
	<path id="Layer0_5_MEMBER_3_MEMBER_131_1_STROKES" class="st8" d="M232.7,111.9l-0.1-0.1"/>
	<path id="Layer0_5_MEMBER_3_MEMBER_132_1_STROKES" class="st8" d="M232.9,112.7c0.1-0.3,0-0.6-0.1-0.7"/>
	<path id="Layer0_5_MEMBER_3_MEMBER_133_1_STROKES" class="st8" d="M229.4,115.8l-0.1-0.1"/>
	<path id="Layer0_5_MEMBER_3_MEMBER_134_1_STROKES" class="st8" d="M234.3,111.7v0.2"/>
	<path id="Layer0_5_MEMBER_3_MEMBER_135_1_STROKES" class="st8" d="M231.1,115.9l0.3-0.1"/>
	<path id="Layer0_5_MEMBER_3_MEMBER_136_1_STROKES" class="st8" d="M197.2,108.2l0.2-3.3"/>
	<path id="Layer0_5_MEMBER_3_MEMBER_137_1_STROKES" class="st8" d="M197.4,108.4l0.6-0.3"/>
	<path id="Layer0_5_MEMBER_3_MEMBER_138_1_STROKES" class="st8" d="M230.9,109.6l-0.1-0.1"/>
	<path id="Layer0_5_MEMBER_3_MEMBER_139_1_STROKES" class="st8" d="M233.7,110.1l0.1,0.1"/>
	<path id="Layer0_5_MEMBER_3_MEMBER_140_1_STROKES" class="st8" d="M190.6,131.9l0.3,0.2"/>
	<path id="Layer0_5_MEMBER_3_MEMBER_141_1_STROKES" class="st8" d="M206.6,102.5l4.7-2.3"/>
	<path id="Layer0_5_MEMBER_3_MEMBER_142_1_STROKES" class="st8" d="M199.5,99.4l-0.6,0.3"/>
	<path id="Layer0_5_MEMBER_3_MEMBER_143_1_STROKES" class="st8" d="M193,114.8l0.8-0.4"/>
	<path id="Layer0_5_MEMBER_3_MEMBER_144_1_STROKES" class="st8" d="M192.2,133.2l0.3,0.2"/>
	<path id="Layer0_5_MEMBER_3_MEMBER_145_1_STROKES" class="st8" d="M206.7,96.6l2-1"/>
	<path id="Layer0_5_MEMBER_3_MEMBER_146_1_STROKES" class="st8" d="M191.3,111.4l0.8-0.4"/>
	<path id="Layer0_5_MEMBER_3_MEMBER_147_1_STROKES" class="st8" d="M197.3,102.1l1.9-1"/>
	<path id="Layer0_5_MEMBER_3_MEMBER_148_1_STROKES" class="st8" d="M204.9,97.2l0.4,0.3"/>
	<path id="Layer0_5_MEMBER_3_MEMBER_149_1_STROKES" class="st8" d="M203.5,99l0.3,0.3"/>
	<path id="Layer0_5_MEMBER_3_MEMBER_150_1_STROKES" class="st8" d="M198.9,105.6l1.6-0.8"/>
	<path id="Layer0_5_MEMBER_3_MEMBER_151_1_STROKES" class="st8" d="M252.2,83.9l21,2.2"/>
	<path id="Layer0_5_MEMBER_3_MEMBER_152_1_STROKES" class="st8" d="M273.2,85.6l-22.1-2.3"/>
	<path id="Layer0_5_MEMBER_3_MEMBER_153_1_STROKES" class="st8" d="M218.8,68.6l2.7-7.3"/>
	<path id="Layer0_5_MEMBER_3_MEMBER_154_1_STROKES" class="st8" d="M224.2,104.2l-2.7-2.2"/>
	<path id="Layer0_5_MEMBER_3_MEMBER_155_1_STROKES" class="st8" d="M208.6,128.2l1.1,0.9"/>
	<path id="Layer0_5_MEMBER_3_MEMBER_156_1_STROKES" class="st8" d="M229.6,97.3l2,1.5"/>
	<path id="Layer0_5_MEMBER_3_MEMBER_157_1_STROKES" class="st8" d="M239.1,74.2l-0.6-0.5"/>
	<path id="Layer0_5_MEMBER_3_MEMBER_158_1_STROKES" class="st8" d="M237.2,72.7L223.5,62"/>
	<path id="Layer0_5_MEMBER_3_MEMBER_159_1_STROKES" class="st8" d="M238.4,75.1l-0.6-0.5"/>
	<path id="Layer0_5_MEMBER_3_MEMBER_160_1_STROKES" class="st8" d="M236.3,73.5L222.8,63"/>
	<path id="Layer0_5_MEMBER_3_MEMBER_161_1_STROKES" class="st8" d="M237.9,77.9l5,3.9"/>
	<path id="Layer0_5_MEMBER_3_MEMBER_162_1_STROKES" class="st8" d="M237.2,78.9l5,3.9"/>
	<path id="Layer0_5_MEMBER_3_MEMBER_164_1_STROKES" class="st8" d="M191.5,101.7l-0.4-0.3"/>
	<path id="Layer0_5_MEMBER_3_MEMBER_165_1_STROKES" class="st8" d="M236.5,73.1l-3.7,9.7"/>
	<path id="Layer0_5_MEMBER_3_MEMBER_166_1_STROKES" class="st8" d="M230.6,88.8l-2.4,6.6"/>
	<path id="Layer0_5_MEMBER_3_MEMBER_167_1_STROKES" class="st8" d="M224.8,104.4l-0.2,0.5"/>
	<path id="Layer0_5_MEMBER_3_MEMBER_168_1_STROKES" class="st8" d="M207.3,139.2l0.2,0.2"/>
	<path id="Layer0_5_MEMBER_3_MEMBER_169_1_STROKES" class="st8" d="M209,140.5l0.3,0.2"/>
	<path id="Layer0_5_MEMBER_3_MEMBER_170_1_STROKES" class="st8" d="M241.8,70l-0.3-0.2"/>
	<path id="Layer0_5_MEMBER_3_MEMBER_171_1_STROKES" class="st8" d="M251.4,83.2l-0.3-0.2"/>
	<path id="Layer0_5_MEMBER_3_MEMBER_172_1_STROKES" class="st8" d="M253.1,84.6l-0.3-0.2"/>
	<path id="Layer0_5_MEMBER_3_MEMBER_173_MEMBER_0_1_STROKES" class="st8" d="M211.1,86.7c0.3,0.6,0.2,1.4-0.6,2.3
		c-0.7,0.9-1.4,1.3-2.1,1.2"/>
	<path id="Layer0_5_MEMBER_3_MEMBER_173_MEMBER_1_1_STROKES" class="st8" d="M210.5,87.3c0-0.2,0-0.2,0.1-0.2
		c0.2,0.1,0.2,0.1,0.2-0.1c-0.1-0.2-0.1-0.3-0.1-0.3"/>
	<path id="Layer0_5_MEMBER_3_MEMBER_173_MEMBER_2_1_STROKES" class="st8" d="M210.8,88.6l-0.3-1.3"/>
	<path id="Layer0_5_MEMBER_3_MEMBER_173_MEMBER_3_1_STROKES" class="st8" d="M194,93.4c1.3-2.1,2.6-4,3.9-5.7l0.6,0.4l0.1,0.1"/>
	<path id="Layer0_5_MEMBER_3_MEMBER_173_MEMBER_4_1_STROKES" class="st8" d="M308.5,86.5c-1.2-0.9-2.7-1-4.6-0.5
		c-1.5,0.4-2.9,1.2-4.3,2.3"/>
	<path id="Layer0_5_MEMBER_3_MEMBER_173_MEMBER_5_1_STROKES" class="st8" d="M294.2,104.9c-1.9-1.9-2.2-4.7-0.6-8.5
		c1.3-3.3,3.1-5.8,5.4-7.5"/>
	<path id="Layer0_5_MEMBER_3_MEMBER_173_MEMBER_6_1_STROKES" class="st8" d="M315.8,95c0,2.5-0.9,5.1-2.7,7.8
		c-1.7,2.6-3.7,4.5-5.9,5.9c-2.2,1.3-4.2,1.8-5.9,1.3c-2-0.5-3-2.1-3.1-4.8c0.1-2.5,0.9-5.1,2.7-7.8c1.7-2.6,3.7-4.5,5.9-5.8
		c2.2-1.3,4.2-1.8,5.9-1.3C314.7,90.7,315.7,92.3,315.8,95z"/>
	<path id="Layer0_5_MEMBER_3_MEMBER_173_MEMBER_7_1_STROKES" class="st8" d="M309,87.4c0.4,0.5,0.7,1,0.8,1.7"/>
	<path id="Layer0_5_MEMBER_3_MEMBER_173_MEMBER_8_1_STROKES" class="st8" d="M301,97.3c-1.7,2.6-2.7,5.2-2.7,7.7
		c0.1,2.6,1,4.1,2.9,4.7c1.7,0.5,3.6,0.1,5.7-1.2c2.3-1.3,4.3-3.2,5.9-5.7c1.7-2.7,2.7-5.2,2.7-7.7c-0.1-2.6-1-4.1-2.9-4.7
		c-1.7-0.5-3.6-0.1-5.7,1.2C304.7,92.9,302.7,94.8,301,97.3z"/>
	<path id="Layer0_5_MEMBER_3_MEMBER_173_MEMBER_9_1_STROKES" class="st8" d="M301.9,88.6c1-0.8,2.2-1.3,3.3-1.6
		c1.4-0.4,2.6-0.4,3.6,0c0.4,0.2,0.8,0.5,1.3,0.9c0.1,0.1,0.7,0.5,1.7,1.3c0.1,0.1,0.1,0.1,0.2,0.2l0,0l0,0l0,0l0,0l-0.4-0.1
		c-1-0.2-2.1-0.2-3.3,0.2c-2.3,0.8-4.5,2.3-6.6,4.5c-0.3,0.3-0.8,0.5-1.2,0.5c-0.3,0-0.7-0.2-1.2-0.6s-0.9-0.8-0.9-1
		c-0.2-0.6,0.1-1.3,0.9-2.1c0.5-0.5,1.2-1,2-1.7"/>
	<path id="Layer0_5_MEMBER_3_MEMBER_173_MEMBER_10_1_STROKES" class="st8" d="M301.5,89.1c-1,0.7-1.7,1.3-2.2,1.9
		c-1,1-1.2,1.7-0.6,2.4"/>
	<path id="Layer0_5_MEMBER_3_MEMBER_173_MEMBER_11_1_STROKES" class="st8" d="M302.2,88.6c1-0.6,2-1.1,3-1.3
		c1.2-0.3,2.3-0.3,3.3-0.1l0,0l0.2,0.1l0.1,0.1l0.5,0.3c0.5,0.3,1.3,0.9,2.2,1.7"/>
	<path id="Layer0_5_MEMBER_3_MEMBER_173_MEMBER_12_1_STROKES" class="st8" d="M298.4,108.2l-0.3-0.3"/>
	<path id="Layer0_5_MEMBER_3_MEMBER_173_MEMBER_13_1_STROKES" class="st8" d="M299.5,108.5l0.4,0.2"/>
	<path id="Layer0_5_MEMBER_3_MEMBER_173_MEMBER_14_1_STROKES" class="st8" d="M302.6,108.9l0.7-0.2"/>
	<path id="Layer0_5_MEMBER_3_MEMBER_173_MEMBER_15_1_STROKES" class="st8" d="M303.9,108.5l0.1-0.1"/>
	<path id="Layer0_5_MEMBER_3_MEMBER_173_MEMBER_16_1_STROKES" class="st8" d="M294.9,105.3l0.1,0.2l0.2,0.2"/>
	<path id="Layer0_5_MEMBER_3_MEMBER_173_MEMBER_17_1_STROKES" class="st8" d="M298.7,106.8l0.5-0.1"/>
	<path id="Layer0_5_MEMBER_3_MEMBER_173_MEMBER_18_1_STROKES" class="st8" d="M298.8,106.5h-0.1"/>
	<path id="Layer0_5_MEMBER_3_MEMBER_173_MEMBER_19_1_STROKES" class="st8" d="M304.4,107.4c0.2,0.1,0.3,0.3,0.3,0.5"/>
	<path id="Layer0_5_MEMBER_3_MEMBER_173_MEMBER_20_1_STROKES" class="st8" d="M304.3,108.4c0.2-0.1,0.4-0.2,0.5-0.5
		c0.1-0.2,0-0.4-0.2-0.6"/>
	<path id="Layer0_5_MEMBER_3_MEMBER_173_MEMBER_21_1_STROKES" class="st8" d="M294.6,104.9c-0.2-0.4-0.3-0.6-0.2-0.8
		c0.1-0.1,0.3-0.1,0.7,0.2c0.8,0.5,1.3,1,1.6,1.3c0.3,0.4,0.8,0.9,1.1,1.7"/>
	<path id="Layer0_5_MEMBER_3_MEMBER_173_MEMBER_22_1_STROKES" class="st8" d="M204.2,95.4c1.1,0.1,2.3,0.2,3.7,0.2
		c0.9,0.1,1.6,0.2,1.9,0.3c0.4,0.2,0.8,0.8,1,1.5c0.1,0.4,0.5,1.6,1,3.4"/>
	<path id="Layer0_5_MEMBER_3_MEMBER_173_MEMBER_23_1_STROKES" class="st8" d="M289,95.4c0-0.2-0.1-0.5-0.3-0.7
		c-0.2-0.2-0.4-0.2-0.4,0.1c0,0.2,0.1,0.4,0.3,0.7C288.8,95.8,289,95.7,289,95.4z"/>
	<path id="Layer0_5_MEMBER_3_MEMBER_173_MEMBER_24_1_STROKES" class="st8" d="M289,107.3c0.1-0.2-0.1-0.4-0.3-0.7
		c-0.2-0.2-0.4-0.2-0.4,0.1s0.1,0.5,0.3,0.7c0.1,0.1,0.2,0.1,0.3,0.1C289,107.5,289,107.5,289,107.3z"/>
	<path id="Layer0_5_MEMBER_3_MEMBER_173_MEMBER_25_1_STROKES" class="st8" d="M320.4,91.8L320.4,91.8"/>
	<path id="Layer0_5_MEMBER_3_MEMBER_173_MEMBER_26_1_STROKES" class="st8" d="M287.7,108.2c-0.1-0.1-0.2-0.3-0.2-0.5V91.9l0.1-0.4
		c0.1-0.2,0.2-0.4,0.4-0.7l0.2-0.2l0.1-0.1l3.4-2"/>
	<path id="Layer0_5_MEMBER_3_MEMBER_173_MEMBER_27_1_STROKES" class="st8" d="M293.8,87.2l23.6-13.6l0.1-0.1l0.1-0.1
		c0.2,0,0.4,0,0.5,0.1"/>
	<path id="Layer0_5_MEMBER_3_MEMBER_173_MEMBER_28_1_STROKES" class="st8" d="M298.7,93.3c-0.5-0.6-0.3-1.4,0.6-2.4
		c0.5-0.5,1.3-1.1,2.2-1.9"/>
	<path id="Layer0_5_MEMBER_3_MEMBER_173_MEMBER_29_1_STROKES" class="st8" d="M311.5,89.3c-0.2-0.2-0.6-0.4-1.1-0.8
		c-0.5-0.3-0.8-0.6-1.1-0.8l-0.5-0.3c-0.2-0.1-0.3-0.2-0.3-0.2c-1-0.3-2-0.3-3.3,0.1c-1,0.3-2,0.7-3,1.3"/>
	<path id="Layer0_5_MEMBER_3_MEMBER_173_MEMBER_30_1_STROKES" class="st8" d="M301.9,88.6c1-0.8,2.2-1.3,3.3-1.6
		c1.4-0.4,2.6-0.4,3.6,0c0.4,0.2,0.8,0.5,1.3,0.9c0.1,0.1,0.7,0.5,1.7,1.3c0.1,0.1,0.1,0.1,0.2,0.2l0,0l0,0l0,0l0,0l-0.4-0.1
		c-1-0.2-2.1-0.2-3.3,0.2c-2.3,0.8-4.5,2.3-6.6,4.5c-0.3,0.3-0.8,0.5-1.2,0.5c-0.3,0-0.7-0.2-1.2-0.6s-0.9-0.8-0.9-1
		c-0.2-0.6,0.1-1.3,0.9-2.1c0.5-0.5,1.2-1,2-1.7"/>
	<path id="Layer0_5_MEMBER_3_MEMBER_173_MEMBER_31_1_STROKES" class="st8" d="M298.5,106.5l0.3-0.1"/>
	<path id="Layer0_5_MEMBER_3_MEMBER_173_MEMBER_32_1_STROKES" class="st8" d="M301.7,109l0.8-0.1"/>
	<path id="Layer0_5_MEMBER_3_MEMBER_173_MEMBER_33_1_STROKES" class="st8" d="M303.2,108.8l0.6-0.2"/>
	<path id="Layer0_5_MEMBER_3_MEMBER_173_MEMBER_34_1_STROKES" class="st8" d="M304,108.5l0.3-0.1l1.1-0.5"/>
	<path id="Layer0_5_MEMBER_3_MEMBER_173_MEMBER_35_1_STROKES" class="st8" d="M305.7,107.7l0.6-0.3l0.1-0.1"/>
	<path id="Layer0_5_MEMBER_3_MEMBER_173_MEMBER_36_1_STROKES" class="st8" d="M307,106.9l0.8-0.5"/>
	<path id="Layer0_5_MEMBER_3_MEMBER_173_MEMBER_37_1_STROKES" class="st8" d="M308.3,105.8l0.8-0.8"/>
	<path id="Layer0_5_MEMBER_3_MEMBER_173_MEMBER_38_1_STROKES" class="st8" d="M309.7,104.6l0.5-0.6"/>
	<path id="Layer0_5_MEMBER_3_MEMBER_173_MEMBER_39_1_STROKES" class="st8" d="M298.8,107.2l0.2,0.2"/>
	<path id="Layer0_5_MEMBER_3_MEMBER_173_MEMBER_40_1_STROKES" class="st8" d="M301.7,108.9c-0.7-0.1-1.4-0.5-2.2-1.1"/>
	<path id="Layer0_5_MEMBER_3_MEMBER_173_MEMBER_41_1_STROKES" class="st8" d="M298.7,106.8l0.5-0.1"/>
	<path id="Layer0_5_MEMBER_3_MEMBER_173_MEMBER_42_1_STROKES" class="st8" d="M315.5,95.1c-0.1-2.6-1-4.1-2.9-4.7
		c-1.7-0.5-3.6-0.1-5.7,1.2c-2.3,1.3-4.2,3.2-5.9,5.7c-1.7,2.6-2.7,5.2-2.7,7.7c0.1,2.6,1,4.1,2.9,4.7c1.7,0.5,3.6,0.1,5.7-1.2
		c2.3-1.3,4.3-3.2,5.9-5.7C314.6,100.1,315.5,97.6,315.5,95.1z"/>
	<path id="Layer0_5_MEMBER_3_MEMBER_173_MEMBER_43_1_STROKES" class="st8" d="M309,87.4c0.4,0.5,0.7,1,0.8,1.7"/>
	<path id="Layer0_5_MEMBER_3_MEMBER_173_MEMBER_44_1_STROKES" class="st8" d="M307.2,108.6c-2.2,1.3-4.2,1.8-5.9,1.3
		c-2-0.5-3-2.1-3.1-4.8c0.1-2.5,0.9-5.1,2.7-7.8c1.7-2.6,3.7-4.5,5.9-5.8c2.2-1.3,4.2-1.8,5.9-1.3c2,0.5,3,2.1,3.1,4.8
		c0,2.5-0.9,5.1-2.7,7.8C311.4,105.3,309.4,107.2,307.2,108.6z"/>
	<path id="Layer0_5_MEMBER_3_MEMBER_173_MEMBER_45_1_STROKES" class="st8" d="M308.5,86.5c-1.2-0.9-2.7-1-4.6-0.5
		c-1.5,0.4-2.9,1.2-4.3,2.3"/>
	<path id="Layer0_5_MEMBER_3_MEMBER_173_MEMBER_46_1_STROKES" class="st8" d="M299,88.8c-2.3,1.7-4.1,4.3-5.4,7.5
		c-1.6,3.8-1.3,6.6,0.6,8.5"/>
	<path id="Layer0_5_MEMBER_3_MEMBER_173_MEMBER_47_1_STROKES" class="st8" d="M232.8,110.9c0.6,0.2,0.9,0.6,0.8,1.2
		c-0.1,0.6-0.3,1.2-0.8,1.8c-0.5,0.6-1,1-1.6,1.2s-1.1,0.1-1.4-0.5"/>
	<path id="Layer0_5_MEMBER_3_MEMBER_173_MEMBER_48_1_STROKES" class="st8" d="M232.6,111.8c-0.5-0.3-1-0.1-1.6,0.6s-0.7,1.3-0.3,1.7
		"/>
	<path id="Layer0_5_MEMBER_3_MEMBER_173_MEMBER_49_1_STROKES" class="st8" d="M232.7,112.8c0.1-0.7-0.2-0.9-0.8-0.6s-0.9,0.7-1,1.3
		c-0.1,0.7,0.2,0.9,0.8,0.6S232.7,113.4,232.7,112.8z"/>
	<path id="Layer0_5_MEMBER_3_MEMBER_173_MEMBER_50_1_STROKES" class="st8" d="M232.2,112.1c0.6,0.1,0.7,0.6,0.1,1.3
		c-0.6,0.8-1,0.9-1.3,0.3"/>
	<path id="Layer0_5_MEMBER_3_MEMBER_173_MEMBER_51_1_STROKES" class="st8" d="M252.1,95.3l-0.1,0.1l-0.2,0.3l-0.1,0.2
		c-0.2,0.3-0.3,0.7-0.3,0.9l-0.3,3.3v0.3v0.1l0.1,0.1c0.1,0.2,0.2,0.3,0.5,0.3"/>
	<path id="Layer0_5_MEMBER_3_MEMBER_173_MEMBER_52_1_STROKES" class="st8" d="M252.3,94.8c-0.2,0.1-0.5,0.3-0.8,0.6
		c-0.2,0.3-0.4,0.5-0.5,0.8c-0.2,0.5-0.3,1.2-0.3,2c0,0.2-0.1,0.8-0.1,1.9c0,0.3,0.1,0.5,0.3,0.6"/>
	<path id="Layer0_5_MEMBER_3_MEMBER_173_MEMBER_53_1_STROKES" class="st8" d="M224,101.4l-0.2,0.2l-0.3,1v0.1v0.2v0.1l0.1,0.1
		l0.6,0.9l0.1,0.1c0.2,0.1,0.3,0.1,0.5,0.1"/>
	<path id="Layer0_5_MEMBER_3_MEMBER_173_MEMBER_54_1_STROKES" class="st8" d="M223.8,101.7l-2.7-2.2c0,0.1-0.1,0.3-0.2,0.7
		c-0.1,0.3-0.1,0.5-0.1,0.8c0,0.1,0.1,0.3,0.3,0.6c0.2,0.2,0.3,0.3,0.4,0.5"/>
	<path id="Layer0_5_MEMBER_3_MEMBER_173_MEMBER_55_1_STROKES" class="st8" d="M228.6,97.1l0.5-0.1l0.2,0.3"/>
	<path id="Layer0_5_MEMBER_3_MEMBER_173_MEMBER_56_1_STROKES" class="st8" d="M223.4,99l-2.3,0.4"/>
	<path id="Layer0_5_MEMBER_3_MEMBER_173_MEMBER_57_1_STROKES" class="st8" d="M221,99.5L221,99.5"/>
	<path id="Layer0_5_MEMBER_3_MEMBER_173_MEMBER_58_1_STROKES" class="st8" d="M229.1,96.9l-0.3-0.2"/>
	<path id="Layer0_5_MEMBER_3_MEMBER_173_MEMBER_59_1_STROKES" class="st8" d="M228.8,96.6l-0.3,0.1"/>
	<path id="Layer0_5_MEMBER_3_MEMBER_173_MEMBER_60_1_STROKES" class="st8" d="M243.3,111.6v-0.2l-2.7-2.2v0.8l0.1,0.2l0.1,0.1"/>
	<path id="Layer0_5_MEMBER_3_MEMBER_173_MEMBER_61_1_STROKES" class="st8" d="M243.3,111.4l3.1-4.8l0.1-0.1c0.2-0.2,0.3-0.3,0.6-0.5
		c0.1-0.1,0.3-0.2,0.7-0.3l0.3,0.1"/>
	<path id="Layer0_5_MEMBER_3_MEMBER_173_MEMBER_62_1_STROKES" class="st8" d="M245.7,106.9c-0.5,0.8-1.2,1.2-2.2,1.5
		c-1.6,0.4-2.6,0.6-2.9,0.8"/>
	<path id="Layer0_5_MEMBER_3_MEMBER_173_MEMBER_63_1_STROKES" class="st8" d="M240.6,109.2l0.1-0.1"/>
	<path id="Layer0_5_MEMBER_3_MEMBER_173_MEMBER_64_1_STROKES" class="st8" d="M247.9,105.6l-0.3-0.3"/>
	<path id="Layer0_5_MEMBER_3_MEMBER_173_MEMBER_65_1_STROKES" class="st8" d="M247.5,105.3l0.9,0.3"/>
	<path id="Layer0_5_MEMBER_3_MEMBER_173_MEMBER_66_1_STROKES" class="st8" d="M245.7,106.9c0.3-0.5,0.6-0.9,1-1.1"/>
	<path id="Layer0_5_MEMBER_3_MEMBER_173_MEMBER_67_1_STROKES" class="st8" d="M247.5,105.3l-0.8,0.5"/>
	<path id="Layer0_5_MEMBER_3_MEMBER_173_MEMBER_68_1_STROKES" class="st8" d="M250.7,82.7c-1.3-0.9-2.8-1.6-4.5-1.9
		c-1.6-0.3-3.2-0.4-5-0.2"/>
	<path id="Layer0_5_MEMBER_3_MEMBER_173_MEMBER_69_1_STROKES" class="st8" d="M239.5,80.7c-5.9,1.1-11.9,4.2-17.9,9.4
		c-5.3,4.6-9.6,9.8-13,15.8c-3.2,5.4-5.2,10.9-6.1,16.6c-1,7.2,0.3,12.6,4.3,16.3"/>
	<path id="Layer0_5_MEMBER_3_MEMBER_173_MEMBER_70_1_STROKES" class="st8" d="M206.9,138.9l0.2,0.2"/>
	<path id="Layer0_5_MEMBER_3_MEMBER_173_MEMBER_71_1_STROKES" class="st8" d="M251.4,83.2c-2.6-2-5.9-2.9-10-2.5"/>
	<path id="Layer0_5_MEMBER_3_MEMBER_173_MEMBER_72_1_STROKES" class="st8" d="M202.6,128.3c0.1,2.4,0.6,4.7,1.5,6.6
		c1,2.2,2.4,3.9,4.3,5.1"/>
	<path id="Layer0_5_MEMBER_3_MEMBER_173_MEMBER_73_1_STROKES" class="st8" d="M239.8,81c-4.5,0.8-9.1,2.9-13.8,6.2
		c-4.4,3.1-8.5,7-12.2,11.7s-6.5,9.6-8.5,14.6c-2.1,5.3-3,10.3-2.8,14.9"/>
	<path id="Layer0_5_MEMBER_3_MEMBER_173_MEMBER_74_1_STROKES" class="st8" d="M207.2,105l-0.9,0.4l0.2-3"/>
	<path id="Layer0_5_MEMBER_3_MEMBER_173_MEMBER_75_1_STROKES" class="st8" d="M206.3,105.4l-7,3.6"/>
	<path id="Layer0_5_MEMBER_3_MEMBER_173_MEMBER_76_1_STROKES" class="st8" d="M214.7,115.9l0.3-4v-0.1l0.1-0.2l0.1-0.1l0.1-0.1
		l0.1-0.1l0.1-0.1l4.1-0.4l-4-3.1l-3.4,0.3"/>
	<path id="Layer0_5_MEMBER_3_MEMBER_173_MEMBER_77_1_STROKES" class="st8" d="M219.4,111.1l0.5,2.2"/>
	<path id="Layer0_5_MEMBER_3_MEMBER_173_MEMBER_78_1_STROKES" class="st8" d="M217.6,121.3l0.2,0.2l1.7-2.4"/>
	<path id="Layer0_5_MEMBER_3_MEMBER_173_MEMBER_79_1_STROKES" class="st8" d="M217.8,121.5l-0.2-0.2"/>
	<path id="Layer0_5_MEMBER_3_MEMBER_173_MEMBER_80_1_STROKES" class="st8" d="M198.1,117c0.3,0.9,0.2,1.4-0.2,1.6
		c-0.5,0.2-0.9-0.1-1.5-0.8"/>
	<path id="Layer0_5_MEMBER_3_MEMBER_173_MEMBER_81_1_STROKES" class="st8" d="M198.1,102.4c0.7,0.5,1.1,1.2,1.1,2.3
		s-0.4,1.3-1.3,0.7c-0.7-0.5-1.1-1.2-1.1-2.3C196.7,102,197.2,101.8,198.1,102.4z"/>
	<path id="Layer0_5_MEMBER_3_MEMBER_173_MEMBER_82_1_STROKES" class="st8" d="M190.8,112.2c0.2-1,0.7-1.1,1.5-0.4
		c0.8,0.8,1.2,1.5,1,2.3c-0.2,1-0.7,1.1-1.5,0.3C191,113.8,190.7,113,190.8,112.2z"/>
	<path id="Layer0_5_MEMBER_3_MEMBER_173_MEMBER_83_1_STROKES" class="st8" d="M205.4,98.2c-0.2,0.6-0.5,1-1,1.2
		c-0.6,0.2-0.8-0.1-0.6-0.7c0.1-0.6,0.5-1,0.9-1.2C205.4,97.3,205.6,97.6,205.4,98.2z"/>
	<path id="Layer0_5_MEMBER_3_MEMBER_173_MEMBER_84_1_STROKES" class="st8" d="M203.3,118.8c-0.5,0.1-0.9,0.5-1,1.1s0.1,0.9,0.6,0.7"
		/>
	<path id="Layer0_5_MEMBER_3_MEMBER_173_MEMBER_85_1_STROKES" class="st8" d="M199.2,101.1c0.8-0.3,1.3,0.1,1.8,1.3
		c0.4,1.2,0.3,1.9-0.4,2.3"/>
	<path id="Layer0_5_MEMBER_3_MEMBER_173_MEMBER_86_1_STROKES" class="st8" d="M199.9,116.1c0.3,0.8,0.4,1.3,0.1,1.5"/>
	<path id="Layer0_5_MEMBER_3_MEMBER_173_MEMBER_87_1_STROKES" class="st8" d="M195,105.6l2.2-1.1"/>
	<path id="Layer0_5_MEMBER_3_MEMBER_173_MEMBER_88_1_STROKES" class="st8" d="M192.1,111c0.6-0.3,1.2,0.2,1.7,1.2
		c0.5,1.1,0.5,1.8-0.1,2.2"/>
	<path id="Layer0_5_MEMBER_3_MEMBER_173_MEMBER_89_1_STROKES" class="st8" d="M202.4,95.8c-0.3,0.3-0.7,0.7-0.9,1.2
		c-0.3,0.6-0.3,1,0,1.4"/>
	<path id="Layer0_5_MEMBER_3_MEMBER_173_MEMBER_90_1_STROKES" class="st8" d="M215.6,115.5c-0.1-1.3,0.4-2.2,1.4-2.9
		c0.2-0.1,0.3-0.2,0.6-0.2c0.2-0.1,0.5-0.1,0.6-0.1h0.1l0.2,0.1l0.1,0.1l0.1,0.2l0.1,0.1l0.2,1"/>
	<path id="Layer0_5_MEMBER_3_MEMBER_173_MEMBER_91_1_STROKES" class="st8" d="M234.6,98l-0.5,0.6"/>
	<path id="Layer0_5_MEMBER_3_MEMBER_173_MEMBER_92_1_STROKES" class="st8" d="M236,92.2l4,3.1l-0.1,1"/>
	<path id="Layer0_5_MEMBER_3_MEMBER_173_MEMBER_93_1_STROKES" class="st8" d="M232,104.8l1.3-1"/>
	<path id="Layer0_5_MEMBER_3_MEMBER_173_MEMBER_94_1_STROKES" class="st8" d="M210.3,116.1c0.3,0.5,0.4,1,0.3,1.7"/>
	<path id="Layer0_5_MEMBER_3_MEMBER_173_MEMBER_95_1_STROKES" class="st8" d="M242.5,99.9l-0.1,1.9l-2.2,0.8"/>
	<path id="Layer0_5_MEMBER_3_MEMBER_173_MEMBER_96_1_STROKES" class="st8" d="M213.6,116.4l-3.8-3"/>
	<path id="Layer0_5_MEMBER_3_MEMBER_173_MEMBER_97_1_STROKES" class="st8" d="M207.6,107.8l-0.8-0.6"/>
	<path id="Layer0_5_MEMBER_3_MEMBER_173_MEMBER_98_1_STROKES" class="st8" d="M223.9,104l-8.3,4.1"/>
	<path id="Layer0_5_MEMBER_3_MEMBER_173_MEMBER_99_1_STROKES" class="st8" d="M218.6,123.1l-3.5,6.4c-0.2,0.3-0.5,0.6-0.8,0.8
		c-0.5,0.4-1,0.6-1.5,0.6c-0.9-0.1-1.1-0.8-0.8-2c0.6-1.3,0.9-2,0.9-2.3"/>
	<path id="Layer0_5_MEMBER_3_MEMBER_173_MEMBER_100_1_STROKES" class="st8" d="M213,129.1c0.3-0.1,0.5-0.3,0.8-0.5
		c0.2-0.3,0.3-0.6,0.3-0.9"/>
	<path id="Layer0_5_MEMBER_3_MEMBER_173_MEMBER_101_1_STROKES" class="st8" d="M208,130.1c0.3-0.8,0.6-1.3,1-1.3
		c0.2,0,0.3,0.1,0.3,0.2s0,0.3-0.1,0.4c-0.1,0.1-0.2,0.4-0.4,0.8c-0.2,0.3-0.4,0.5-0.7,0.5c-0.2,0-0.3-0.1-0.3-0.2
		C207.9,130.4,207.9,130.2,208,130.1z"/>
	<path id="Layer0_5_MEMBER_3_MEMBER_173_MEMBER_102_1_STROKES" class="st8" d="M207.5,132.1c0.4,0,0.9-0.2,1.3-0.6
		c0.4-0.3,0.8-0.8,0.9-1.2"/>
	<path id="Layer0_5_MEMBER_3_MEMBER_173_MEMBER_103_1_STROKES" class="st8" d="M211.6,130.3c-0.4-0.3-0.5-0.9-0.2-1.7"/>
	<path id="Layer0_5_MEMBER_3_MEMBER_173_MEMBER_104_1_STROKES" class="st8" d="M214.7,128.4c-0.2,0.6-0.5,1-1,1.2
		c-0.6,0.2-0.8-0.1-0.6-0.7c0.2-0.6,0.5-1,1-1.2C214.6,127.6,214.8,127.8,214.7,128.4z"/>
	<path id="Layer0_5_MEMBER_3_MEMBER_173_MEMBER_105_1_STROKES" class="st8" d="M205.4,116.6c-0.3-0.2-0.4-0.3-0.3-0.5
		c0.1-0.1,0.3-0.2,0.6-0.3l0,0"/>
	<path id="Layer0_5_MEMBER_3_MEMBER_173_MEMBER_106_1_STROKES" class="st8" d="M206,115.4L206,115.4h-0.1l-0.1,0.1
		c-0.1,0.1-0.2,0.2-0.2,0.3"/>
	<path id="Layer0_5_MEMBER_3_MEMBER_173_MEMBER_107_1_STROKES" class="st8" d="M205.6,117c-0.1,0.1-0.2,0-0.3-0.1s0-0.2,0.1-0.3"/>
	<path id="Layer0_5_MEMBER_3_MEMBER_173_MEMBER_108_1_STROKES" class="st8" d="M247.8,112.1c-0.1-0.2-0.2-0.2-0.5-0.1
		c-0.3,0.2-0.4,0.5-0.4,0.7c0,0.1,0.1,0.2,0.2,0.2c0.1,0,0.2,0,0.2-0.1C247.7,112.7,247.8,112.4,247.8,112.1z"/>
	<path id="Layer0_5_MEMBER_3_MEMBER_173_MEMBER_109_1_STROKES" class="st8" d="M207.3,116.4c-0.1,0.1-0.2,0.2-0.2,0.3
		c-0.1,0.2,0,0.2,0.2,0.2l0.1-0.1l0.1-0.1l0.1-0.1l0.1-0.1v-0.1l-0.1-0.1h-0.1L207.3,116.4L207.3,116.4z"/>
	<path id="Layer0_5_MEMBER_3_MEMBER_173_MEMBER_110_1_STROKES" class="st8" d="M207,117.6c-0.1,0.1-0.2,0.1-0.2,0.3
		c-0.1,0.2,0,0.2,0.2,0.2c0.1-0.1,0.2-0.2,0.2-0.3C207.2,117.6,207.1,117.5,207,117.6z"/>
	<path id="Layer0_5_MEMBER_3_MEMBER_173_MEMBER_111_1_STROKES" class="st8" d="M224.9,103.1c-0.1-0.2-0.2-0.5-0.3-0.8
		c-0.1-0.2-0.2-0.3-0.2-0.5l-0.1-0.1l-1.7-6.6l-0.1-0.1"/>
	<path id="Layer0_5_MEMBER_3_MEMBER_173_MEMBER_112_1_STROKES" class="st8" d="M208.2,119.4c7-2.3,12.5-5,16.4-8
		c0.3-0.3,0.8-0.9,1.2-1.7c0.3-0.6,0.3-1,0.2-1.5l-1-3.8v-0.1l0,0c0-0.1,0-0.1,0.1-0.1"/>
	<path id="Layer0_5_MEMBER_3_MEMBER_173_MEMBER_113_1_STROKES" class="st8" d="M235.1,108.5c0,0.2-0.1,0.4-0.1,0.8
		c0,0.3,0.1,0.5,0.2,0.7l0.2,0.2l0.1,0.1l7,2c0.2,0.1,0.5,0.1,0.7-0.1c0.9-0.3,1.6-0.7,2.2-1"/>
	<path id="Layer0_5_MEMBER_3_MEMBER_173_MEMBER_114_1_STROKES" class="st8" d="M249.4,106.3c0.1-0.2,0.2-0.4,0.5-0.6
		c0.4-0.2,0.6-0.4,0.7-0.6c0.6-0.5,0.9-1.1,1-1.8c0.1-0.5,0.2-0.9,0.2-1.2c0.1-0.5-0.1-0.9-0.3-1.1c-0.1-0.1-0.2-0.3-0.2-0.4
		c-0.1-1,0.1-2.3,0.4-3.8c0.1-0.2,0.2-0.5,0.5-0.9c0.2-0.3,0.4-0.7,0.5-0.9c0.1-0.3,0.1-0.9-0.1-1.6c-0.3-0.8-0.4-1.3-0.5-1.6
		c-0.2-0.5-0.3-0.8-0.4-1c-0.2-0.3-0.5-0.4-0.9-0.3"/>
	<path id="Layer0_5_MEMBER_3_MEMBER_173_MEMBER_115_1_STROKES" class="st8" d="M202,120.4c-0.3-0.2-0.3-0.5-0.1-1s0.5-0.7,0.8-0.8"
		/>
	<path id="Layer0_5_MEMBER_3_MEMBER_173_MEMBER_116_1_STROKES" class="st8" d="M189.4,127.6l0.8-0.8"/>
	<path id="Layer0_5_MEMBER_3_MEMBER_173_MEMBER_118_1_STROKES" class="st8" d="M189.7,125.9l-0.6-0.5l1.7-1.6"/>
	<path id="Layer0_5_MEMBER_3_MEMBER_173_MEMBER_119_1_STROKES" class="st8" d="M241.7,92.5l2-0.6"/>
	<path id="Layer0_5_MEMBER_3_MEMBER_173_MEMBER_120_1_STROKES" class="st8" d="M202.2,127.5l-1.9-1.5l-0.2-0.2l-0.1-0.1l-0.1-0.1
		c-0.1-0.1-0.1-0.3-0.1-0.5"/>
	<path id="Layer0_5_MEMBER_3_MEMBER_173_MEMBER_121_1_STROKES" class="st8" d="M235.2,76.5c-5.5-1.5-11.7,0.1-18.6,4.8
		c-5.7,3.9-10.4,8.7-14,14.3c0.6-0.2,1.1-0.3,1.6-0.2"/>
	<path id="Layer0_5_MEMBER_3_MEMBER_173_MEMBER_122_1_STROKES" class="st8" d="M192.5,100.1c0.2,0.1,0.3,0.2,0.3,0.4
		c0,0.1-0.1,0.3-0.2,0.6"/>
	<path id="Layer0_5_MEMBER_3_MEMBER_173_MEMBER_123_1_STROKES" class="st8" d="M192.8,100.7l0.6,0.5L193,102"/>
	<path id="Layer0_5_MEMBER_3_MEMBER_173_MEMBER_124_1_STROKES" class="st8" d="M193.4,101.1c0.6-0.2,1-0.7,1.2-1.3
		c0.1-0.3,0.2-0.5,0.1-0.8c-0.1-0.3-0.2-0.5-0.5-0.5c-0.5-0.1-1,0.2-1.5,0.9c-0.5,0.7-0.6,1.2-0.2,1.6l-0.4,0.8"/>
	<path id="Layer0_5_MEMBER_3_MEMBER_173_MEMBER_125_1_STROKES" class="st8" d="M202.7,95.7c-1.5-1.6-3.2-1.4-5,0.8
		c-1.1,1.3-2.1,3.1-3.1,5.4"/>
	<path id="Layer0_5_MEMBER_3_MEMBER_173_MEMBER_126_1_STROKES" class="st8" d="M236.7,106.7l1.5,1.2l-0.6,1.1"/>
	<path id="Layer0_5_MEMBER_3_MEMBER_173_MEMBER_127_1_STROKES" class="st8" d="M238.2,107.9c-0.4,0.2-1,0.5-1.7,0.8"/>
	<path id="Layer0_5_MEMBER_3_MEMBER_173_MEMBER_128_1_STROKES" class="st8" d="M204.7,136.2c-2.3,0.3-4.4,0.2-6.3-0.2
		c-2.2-0.5-4.1-1.3-5.8-2.6c-0.8-0.6-1.6-1.4-2.2-2.3l-0.9-1.3l-0.1-0.2v-0.1c0-0.1,0-0.2,0.1-0.4s0.1-0.3,0.2-0.4l0.1-0.2l0.3-0.4
		l2.9-2.8c0.6,1,1,1.6,1.1,1.7c0.5,0.6,1,0.9,1.7,0.9c1,0.1,2.2-0.4,3.3-1.3c0.9,0.6,2.1,1.1,3.4,1.4"/>
	<path id="Layer0_5_MEMBER_3_MEMBER_173_MEMBER_129_1_STROKES" class="st8" d="M192.8,125.4l-2-1.5"/>
	<path id="Layer0_5_MEMBER_3_MEMBER_173_MEMBER_130_1_STROKES" class="st8" d="M202.5,122.4c-0.6,0-1.2,0.3-1.7,1
		c-0.5,0.6-0.8,1.2-0.9,1.8"/>
	<path id="Layer0_5_MEMBER_3_MEMBER_173_MEMBER_131_1_STROKES" class="st8" d="M198.7,120.2l-2.7,2.7"/>
	<path id="Layer0_5_MEMBER_3_MEMBER_173_MEMBER_132_1_STROKES" class="st8" d="M218.9,98.7c0.6-0.5,1.3-0.8,1.9-1
		c0.8-0.3,1.5-0.3,2.2-0.2"/>
	<path id="Layer0_5_MEMBER_3_MEMBER_173_MEMBER_133_1_STROKES" class="st8" d="M208.8,88.1c-0.3,0.5-0.5,1-0.5,1.6
		c0,0.5,0.2,0.8,0.6,0.9c0.3,0.1,0.7,0,1.1-0.2c0.5-0.3,0.9-0.6,1.2-1.2s0.5-1,0.5-1.6c0-0.5-0.2-0.8-0.6-0.9
		c-0.3-0.1-0.7,0-1.1,0.2C209.5,87.3,209.1,87.6,208.8,88.1z"/>
	<path id="Layer0_5_MEMBER_3_MEMBER_173_MEMBER_134_1_STROKES" class="st8" d="M191,99.6h0.1h0.1"/>
	<path id="Layer0_5_MEMBER_3_MEMBER_173_MEMBER_135_1_STROKES" class="st8" d="M241.5,77.4c0.3,0.6,0.6,1.6,0.9,3"/>
	<path id="Layer0_5_MEMBER_3_MEMBER_173_MEMBER_136_1_STROKES" class="st8" d="M228.4,65.8c2-0.2,3.9-0.2,5.7,0.2
		c2,0.4,3.7,1.1,5.2,2.2"/>
	<path id="Layer0_5_MEMBER_3_MEMBER_173_MEMBER_137_1_STROKES" class="st8" d="M226.8,66c-4.1,0.8-8.3,2.4-12.6,5.1
		c-3.7,2.3-7.3,5.1-10.8,8.6c-4,4-7.5,8.3-10.3,13c-1.3,2.1-2.5,4.3-3.6,6.5c-0.2,0.5-0.2,0.8,0.1,1"/>
	<path id="Layer0_5_MEMBER_3_MEMBER_173_MEMBER_138_1_STROKES" class="st8" d="M210.1,87l0.5,2"/>
	<path id="Layer0_5_MEMBER_3_MEMBER_173_MEMBER_139_1_STROKES" class="st8" d="M209.8,95.9l0.2,0.3l0.2,0.3l1.3,4.6"/>
	<path id="Layer0_5_MEMBER_3_MEMBER_173_MEMBER_140_1_STROKES" class="st8" d="M240.8,69.3c-1.6-1.4-3.5-2.4-5.7-2.9
		c-2-0.5-4.1-0.6-6.5-0.3"/>
	<path id="Layer0_5_MEMBER_3_MEMBER_173_MEMBER_141_1_STROKES" class="st8" d="M192.4,95.1c0.3-1,0.6-1.7,1-2.3c1.2-2,2.6-4,4.2-6.1
		c2.9-3.7,6-7,9.3-9.9c3.1-2.7,6.2-4.9,9.4-6.7c3.7-2,7.3-3.4,10.8-4"/>
	<path id="Layer0_5_MEMBER_3_MEMBER_173_MEMBER_142_1_STROKES" class="st8" d="M193.3,95.9c0.7-0.7,1.5-1.9,2.6-3.6
		c1.1-1.8,2-3,2.6-3.7c2.7-3.7,5.8-7,9.3-10.1c3.2-2.8,6.4-5.1,9.7-7c3.8-2.1,7.5-3.5,11.1-4.2"/>
	<path id="Layer0_5_MEMBER_3_MEMBER_173_MEMBER_143_1_STROKES" class="st8" d="M230,67.1c4.4-0.5,8,0.3,10.9,2.3"/>
	<path id="Layer0_5_MEMBER_3_MEMBER_173_MEMBER_144_1_STROKES" class="st8" d="M241.1,69.5l0.1,0.1l0.2,0.1"/>
	<path id="Layer0_5_MEMBER_3_MEMBER_173_MEMBER_145_1_STROKES" class="st8" d="M239.8,79.3l0.1,0.1"/>
	<path id="Layer0_5_MEMBER_3_MEMBER_173_MEMBER_146_1_STROKES" class="st8" d="M192.4,97.4c-0.5,0.2-1,0.6-1.3,1.2
		c-0.1,0.2-0.2,0.5-0.2,0.7c0,0.3,0.1,0.5,0.2,0.6"/>
	<path id="Layer0_5_MEMBER_3_MEMBER_173_MEMBER_147_1_STROKES" class="st8" d="M240.4,77.3c1-0.1,1.9,0.2,2.5,0.8
		c0.6,0.5,0.9,1.3,1.2,2.4"/>
	<path id="Layer0_5_MEMBER_3_MEMBER_173_MEMBER_148_1_STROKES" class="st8" d="M204.7,95.4l-1.1,0.9"/>
	<path id="Layer0_5_MEMBER_3_MEMBER_173_MEMBER_149_1_STROKES" class="st8" d="M202.4,95.8l0.2-0.2"/>
	<path id="Layer0_5_MEMBER_3_MEMBER_173_MEMBER_150_1_STROKES" class="st8" d="M205.8,97.3l2.2-1.8"/>
	<path id="Layer0_5_MEMBER_3_MEMBER_173_MEMBER_151_1_STROKES" class="st8" d="M232.7,104.5l-0.1-0.1"/>
	<path id="Layer0_5_MEMBER_3_MEMBER_173_MEMBER_152_1_STROKES" class="st8" d="M210,130.1c0.5-0.5,0.8-0.9,1.1-1.3"/>
	<path id="Layer0_5_MEMBER_3_MEMBER_173_MEMBER_153_1_STROKES" class="st8" d="M232.2,116.4c-1.2,1.4-2.3,2.6-3.5,3.7"/>
	<path id="Layer0_5_MEMBER_3_MEMBER_173_MEMBER_154_1_STROKES" class="st8" d="M216.7,128.7l-1.5,0.6"/>
	<path id="Layer0_5_MEMBER_3_MEMBER_173_MEMBER_155_1_STROKES" class="st8" d="M211.8,130.4c-1,0.2-1.7,0.3-2.3,0.4"/>
	<path id="Layer0_5_MEMBER_3_MEMBER_173_MEMBER_156_1_STROKES" class="st8" d="M202.3,124.7c-0.6,0.8-1.3,1.2-1.9,1.2"/>
	<path id="Layer0_5_MEMBER_3_MEMBER_173_MEMBER_157_1_STROKES" class="st8" d="M192.4,128.2c-0.2,0.8-0.6,1.2-1.2,1.4
		c-0.7,0.2-1-0.1-0.8-0.8c0.2-0.8,0.6-1.2,1.2-1.4C192.3,127.2,192.6,127.5,192.4,128.2z"/>
	<path id="Layer0_5_MEMBER_3_MEMBER_173_MEMBER_158_1_STROKES" class="st8" d="M222.9,97.2c-0.8-0.3-1.7-0.2-2.9,0.2"/>
	<path id="Layer0_5_MEMBER_3_MEMBER_173_MEMBER_159_1_STROKES" class="st8" d="M236.2,107.2c0.2,0.2,0.2,0.3,0,0.4
		c-0.1,0.1-0.2,0.1-0.5,0.2"/>
	<path id="Layer0_5_MEMBER_3_MEMBER_173_MEMBER_160_1_STROKES" class="st8" d="M209.6,135.1c1-0.3,2-0.7,3-1.1"/>
	<path id="Layer0_5_MEMBER_3_MEMBER_173_MEMBER_161_1_STROKES" class="st8" d="M227.3,124.1c2.3-2.1,4.5-4.5,6.7-7.1"/>
	<path id="Layer0_5_MEMBER_3_MEMBER_173_MEMBER_162_1_STROKES" class="st8" d="M239.3,109.7c2.7-4.4,4.8-8.9,6.3-13.3"/>
	<path id="Layer0_5_MEMBER_3_MEMBER_173_MEMBER_163_1_STROKES" class="st8" d="M198.9,126.8l-3-2.3l-0.1-0.1l-0.1-0.1
		c0-0.1,0-0.2,0.1-0.3l0,0l0.1-0.1l0.1-0.1c0.6-0.6,1.7-1.6,3.2-3.3"/>
	<path id="Layer0_5_MEMBER_3_MEMBER_173_MEMBER_164_1_STROKES" class="st8" d="M191.3,107.7l-0.2-0.9l-0.6,7l0.3,0.9"/>
	<path id="Layer0_5_MEMBER_3_MEMBER_173_MEMBER_165_1_STROKES" class="st8" d="M222.6,111c-0.5-0.7-0.5-1.7,0.1-2.9
		c0.5-1,1.1-1.9,1.9-2.4"/>
	<path id="Layer0_5_MEMBER_3_MEMBER_173_MEMBER_166_1_STROKES" class="st8" d="M196.5,111.1l-1.3-0.3l-0.5,7l1.3,0.3L196.5,111.1z"
		/>
	<path id="Layer0_5_MEMBER_3_MEMBER_173_MEMBER_167_1_STROKES" class="st8" d="M196,118.1l8.7-4.4l0.1-0.1h0.1"/>
	<path id="Layer0_5_MEMBER_3_MEMBER_173_MEMBER_168_1_STROKES" class="st8" d="M196.5,111.1l8.7-4.4l0.1-0.1h0.1l0.1-0.1h0.2
		c0.2,0,0.3,0.1,0.5,0.2c0.1,0.1,0.2,0.2,0.5,0.3"/>
	<path id="Layer0_5_MEMBER_3_MEMBER_173_MEMBER_169_1_STROKES" class="st8" d="M195.2,110.7l-4-3.1l-0.3,4"/>
	<path id="Layer0_5_MEMBER_3_MEMBER_173_MEMBER_170_1_STROKES" class="st8" d="M194.7,117.7l-4-3.1l0.1-1.8"/>
	<path id="Layer0_5_MEMBER_3_MEMBER_173_MEMBER_171_1_STROKES" class="st8" d="M207.2,105c0.4-0.2,0.4-0.5,0.1-0.8
		c-0.5-0.3-0.8-0.5-0.9-0.6"/>
	<path id="Layer0_5_MEMBER_3_MEMBER_173_MEMBER_172_1_STROKES" class="st8" d="M199.3,108.9c-0.2,0.1-0.4,0.1-0.7,0.1
		s-0.5-0.1-0.6-0.2l-3.1-2.4l-0.1-0.1l-0.1-0.2l-0.1-0.2c0-0.2,0.1-0.3,0.3-0.4"/>
	<path id="Layer0_5_MEMBER_3_MEMBER_173_MEMBER_173_1_STROKES" class="st8" d="M196.9,103.8l-5.9,3"/>
	<path id="Layer0_5_MEMBER_3_MEMBER_173_MEMBER_176_1_STROKES" class="st8" d="M190.4,129.3c0.3,0,0.8-0.2,1.1-0.7"/>
	<path id="Layer0_5_MEMBER_3_MEMBER_173_MEMBER_177_1_STROKES" class="st8" d="M196,122.9c-0.6,0.6-1.1,1-1.6,1.3"/>
	<path id="Layer0_5_MEMBER_3_MEMBER_173_MEMBER_178_1_STROKES" class="st8" d="M230.1,116.6l0.1-0.2l0.3-0.2l0.1-0.1"/>
	<path id="Layer0_5_MEMBER_3_MEMBER_173_MEMBER_179_1_STROKES" class="st8" d="M223,136.3c0.1,0.3,0.3,0.6,0.6,0.6
		c0.3,0.1,0.8-0.1,1.6-0.3c0.4-0.2,0.9-0.4,1.6-0.7c3.6-1.6,7-4,10.3-6.9c1.3-1.2,2.9-2.7,4.4-4.5c0.3-0.3,0.8-1,1.6-1.9
		c0.7-0.8,1.2-1.5,1.4-2c0.1-0.2,0.2-0.4,0.2-0.7c0.1-0.3,0.1-0.6-0.1-0.8l-0.1-0.2l-0.1-0.1l-0.3-0.2l-11.5-3.4l-0.2-0.1"/>
	<path id="Layer0_5_MEMBER_3_MEMBER_173_MEMBER_180_1_STROKES" class="st8" d="M229.8,114.6c0.1,0.5,0.5,0.8,1,0.8s0.9-0.2,1.3-0.5
		c0.5-0.3,0.9-0.8,1.2-1.5c0.4-0.7,0.5-1.3,0.3-1.9c-0.1-0.5-0.5-0.8-1-0.8c-0.4,0-0.9,0.2-1.3,0.5c-0.5,0.4-0.9,0.9-1.2,1.5
		C229.8,113.5,229.7,114.1,229.8,114.6z"/>
	<path id="Layer0_5_MEMBER_3_MEMBER_173_MEMBER_181_1_STROKES" class="st8" d="M229.2,115.1c0.2,0.7,0.6,1,1.3,0.9
		c0.6-0.1,1.1-0.3,1.6-0.7c0.6-0.5,1.2-1.1,1.6-1.9c0.5-0.9,0.6-1.6,0.5-2.3c-0.2-0.6-0.6-1-1.3-0.9c-0.6,0-1.1,0.2-1.7,0.7
		c-0.6,0.5-1.2,1-1.6,1.9C229.3,113.6,229.1,114.4,229.2,115.1z"/>
	<path id="Layer0_5_MEMBER_3_MEMBER_173_MEMBER_182_1_STROKES" class="st8" d="M230.9,116l0.1-0.1"/>
	<path id="Layer0_5_MEMBER_3_MEMBER_173_MEMBER_183_1_STROKES" class="st8" d="M230.8,116c-1.2,0.2-1.8-0.2-1.8-1.4c0-1,0.3-2,1-2.8
		c0.6-0.9,1.3-1.5,2.4-1.8c1.2-0.3,1.8,0.2,1.9,1.5"/>
	<path id="Layer0_5_MEMBER_3_MEMBER_173_MEMBER_184_1_STROKES" class="st8" d="M206.1,136.9c-2.3-4.4-2.5-10-0.8-16.7
		c1.4-5.5,3.8-10.7,7.1-15.7c3.4-5.4,7.6-10,12.5-14c5.6-4.5,11.1-7.3,16.6-8.3"/>
	<path id="Layer0_5_MEMBER_3_MEMBER_173_MEMBER_185_1_STROKES" class="st8" d="M243,82c3.8-0.4,7,0.3,9.7,2.2
		c2.6,1.8,4.4,4.6,5.1,8.3c0.9,4.4,0.5,9.3-1.2,14.7c-1.5,4.6-3.6,9.1-6.5,13.5c-3,4.7-6.6,8.7-10.7,12.4c-4.5,4-9.1,6.9-13.8,8.6
		c-4,1.5-7.6,1.9-10.9,1.3c-3.8-0.7-6.8-2.8-8.6-6.2"/>
	<path id="Layer0_5_MEMBER_3_MEMBER_173_MEMBER_186_1_STROKES" class="st8" d="M208.6,140.2l0.3,0.2"/>
	<path id="Layer0_5_MEMBER_3_MEMBER_173_MEMBER_187_1_STROKES" class="st8" d="M252.3,83.9c-1.3-0.9-2.8-1.6-4.5-1.9
		c-1.6-0.3-3.2-0.4-5-0.2"/>
	<path id="Layer0_5_MEMBER_3_MEMBER_173_MEMBER_188_1_STROKES" class="st8" d="M227.3,88.3c4.8-3.4,9.4-5.4,13.9-6.2"/>
	<path id="Layer0_5_MEMBER_3_MEMBER_173_MEMBER_189_1_STROKES" class="st8" d="M208.5,140.2c-3-2.7-4.5-6.5-4.6-11.5
		c-0.1-4,0.7-8.2,2.3-12.6c1.9-5.4,4.8-10.5,8.5-15.4c3.7-4.8,7.9-9,12.6-12.3"/>
	<path id="Layer0_5_MEMBER_3_MEMBER_173_MEMBER_190_1_STROKES" class="st8" d="M200.6,115.8c0.1,0.6,0.3,1.3,0.5,2.4
		c0.2-0.3,0.3-0.6,0.3-0.6"/>
	<path id="Layer0_5_MEMBER_3_MEMBER_173_MEMBER_191_1_STROKES" class="st9" d="M286.7,86.2c0.5,0.1,0.8,0.5,0.7,1.1
		c-0.1,0.6-0.4,0.9-0.9,0.9 M284.2,87.9c0.3,0.2,0.6,0.3,0.9,0.1c0.3-0.2,0.5-0.5,0.5-0.8c0-0.5-0.1-0.8-0.3-1
		c-0.1-0.1-0.2-0.1-0.4-0.1c-0.1,0-0.3,0-0.4,0.1 M289.9,86.7c0.5,0.1,0.6,0.4,0.6,0.9c-0.1,0.5-0.3,0.8-0.8,0.8 M292.2,87.4
		c0.2,0.1,0.3,0.2,0.3,0.4c0,0.2-0.1,0.3-0.3,0.3 M291.6,88.2l0.2,0.4h0.7l0.4-0.8l-0.3-0.8h-0.7l-0.2,0.3 M291.8,88.6l1.5,0.2h0.7
		l-1.5-0.2 M293.9,88.8l0.3-0.8l-1.5-0.2 M294.3,88l-0.3-0.8l-1.5-0.2 M298.2,87.9c0.3,0,0.5,0.2,0.5,0.6s-0.2,0.6-0.6,0.6
		 M225.9,63.9l0.8-2.9h-0.2l-0.8,2.7 M226.7,61c-0.2-0.2-0.5-0.3-0.8-0.4c-0.3-0.1-0.6-0.1-0.9-0.1l-3.2,0.6l-0.2,0.1l-0.1,0.1
		l-0.1,0.1c-0.1,0.2,0.1,0.3,0.3,0.6l0.2-0.1c-0.1-0.1-0.2-0.2-0.2-0.3s0.1-0.2,0.3-0.2l3.2-0.6c0.2,0,0.4,0,0.6,0.1
		c0.2,0.1,0.4,0.2,0.6,0.3 M222.8,63c-0.2-0.1-0.2-0.3,0.1-0.7c0.2-0.3,0.5-0.4,0.6-0.2 M222.1,65.8c0.1,0,0.2,0.1,0.2,0.3
		c-0.1,0.3-0.2,0.5-0.5,0.7c-0.1,0.1-0.2,0.1-0.2,0c-0.1-0.1-0.1-0.1-0.1-0.1c0-0.1,0-0.1,0-0.1c0.1-0.3,0.2-0.6,0.5-0.7
		C222.1,65.8,222.1,65.8,222.1,65.8z M222.1,65.8c0.1,0.2,0,0.3-0.2,0.5c-0.1,0.2-0.3,0.3-0.5,0.3 M225.5,65l-0.4,1.3 M224.9,66.4
		l0.5-1.5 M236.6,73.4l0.2,0.2l0.2-0.1c-0.1-0.1-0.2-0.2-0.2-0.3s0.1-0.2,0.3-0.2l3.2-0.6c0.4-0.1,0.9,0.1,1.2,0.3l0.2-0.1
		c-0.5-0.3-1.1-0.5-1.6-0.5l-3.3,0.6l-0.2,0.1l-0.1,0.1l-0.1,0.1v0.1v0.1l0.1,0.1v0.1H236.6z M236.2,77.7l-0.2,1l0.4,0.3l0.2-1
		L236.2,77.7z M236.2,77.7l0.9-0.9l0.8,0.2l0.4,0.3l-0.1,0.7 M228.8,97.2c0.2,0.3,0.6,0.5,1,0.6 M228.7,97.2L228.7,97.2 M228.7,97.2
		c-0.1-0.1-0.2-0.2-0.2-0.3c0,0-0.1-0.1-0.1-0.3c0-0.1-0.1-0.2-0.1-0.3c-0.1-0.4-0.3-1.1-0.6-1.9c-0.4-1.3-0.6-2.3-0.6-3
		c-0.2,0.2-0.3,0.5-0.5,0.8c-0.1,0.2-0.2,0.5-0.2,0.9c0.1,0.8,0.2,1.6,0.5,2.6c0.1,0.5,0.4,1.3,0.8,2.6c0.1,0.2,0.2,0.3,0.3,0.4
		c0.3,0.1,0.9,0.2,1.5,0.2c0.9,0,1.5,0,1.6,0c0.5,0,0.7,0.3,0.6,0.9c-0.1,0.5-0.4,1.3-1,2.4c-0.3,0.5-0.5,0.9-0.6,1.3
		c0.1,0.2,0.1,0.3,0.2,0.5l0.8-0.1c0.5-0.1,0.9,0.1,1.2,0.3l5.4-18.6c-1.2,0.3-2.3,0.8-3.6,1.4c-0.9,0.4-1.7,0.9-2.7,1.3l-3.1,8.1
		 M231.5,88.3c-0.1,0.1-0.2,0.1-0.2,0.2l-2.9,7.8 M237.9,74.6c-0.2-0.1-0.2-0.3,0.1-0.7c0.2-0.3,0.5-0.4,0.6-0.2 M239.2,74.5
		c-0.1,0.3-0.2,0.5-0.5,0.6s-0.4-0.1-0.3-0.3c0.1-0.3,0.2-0.5,0.5-0.6C239.1,74.1,239.2,74.2,239.2,74.5z M237.1,76.9l0.4,0.3
		l0.8,0.2 M236.3,79.1l0.8,0.2l0.2-0.3 M239.6,79.2l1.9-6.5 M239.7,79.4l2-6.7 M232.3,104.1l0.2-0.1l1.8-6.3l3.6-12.3
		c-0.1,0-0.2,0.1-0.2,0.1 M239.9,95.2c-0.6,0.3-0.9,0.5-1,0.6c-0.1,0.2,0.1,0.4,0.6,0.8l6.9-8l0.3-0.5c0.2-0.3,0.3-0.6,0.4-0.9
		l0.1-0.5v-0.2v-0.1l-0.1-0.1l-0.1-0.2V86l-0.8-0.3l-0.9-0.3c-1.2-0.4-2.4-0.6-3.7-0.6c-1.3,0.1-2.6,0.4-3.9,0.8 M242.6,81.9
		c0.3-0.1,0.5,0.1,0.3,0.3c-0.1,0.3-0.2,0.5-0.5,0.6s-0.4,0-0.3-0.3C242.1,82.2,242.3,82,242.6,81.9z M239.1,80.8l0.1-0.3
		 M239.4,80.6l-0.1,0.1 M247.1,81l0.3-0.2c-0.6-4.7-2.5-8.2-5.5-10.6s-6.9-3.3-11.6-2.8 M236.9,99.7l2.7-3.1 M236.9,99.7l-1.3,1.5
		l-2.3,2.7c-0.4,0.5-0.9,0.8-1.3,0.9c-0.6,0.1-1,0.2-1.2,0.1c0.2,0.3,0.6,0.4,1.3,0.2c0.3-0.1,0.7-0.2,1-0.5c2.3-2,4.8-4.7,7.4-7.8
		c1.1-1.3,3.4-4.1,6.7-8.4c0.2-0.3,0.4-0.7,0.5-1.1c0.1-0.5,0.1-0.9-0.1-1.2l-0.1-0.1l-0.1-0.1l-0.2-0.1 M230.2,103.3
		c-0.3,0.6-0.5,1-0.5,1.3c-0.1,0.4-0.1,0.6-0.1,0.8v0.1l1,3.8l0.1,0.1c0.1,0.2,0.3,0.3,0.7,0.3c0.3,0.1,0.6,0.1,0.8-0.1
		c0.1-0.1,0.3-0.1,0.5-0.1s0.3,0,0.3,0c0.2-0.2,0.4-0.3,0.5-0.3l0.1-0.1l0.5-0.3c0.8-0.8,1.7-1.7,2.6-2.6c3.3-4,7.2-8.5,11.8-13.5
		c0.9-1,1.7-2.2,2.6-3.3c0.5-0.6,0.7-1.2,0.8-1.7c0-0.4-0.1-0.7-0.5-1s-0.8-0.5-1-0.7c-1.3-0.8-2.9-1.3-4.5-1.6
		c-1.2-0.2-2.5-0.2-3.8-0.1 M236.8,73.6l-3.4,9 M237.4,77.2l-0.9,0.9 M233.7,82.4l3.3-9 M234.1,113.1l0.1,0.1l0.2,0.1l8.2,2.4
		l0.3,0.1l0.3-0.1c0.6-0.1,1.1-0.5,1.6-1.1c0.4-0.5,1.2-1.7,2.3-3.7c0.9-1.6,1.7-2.7,2.4-3.3c0.2-0.2,0.4-0.3,0.6-0.3
		c0.3-0.1,0.5-0.1,0.7,0c0.7,0.4,0.3,1.7-1.2,4c-1.7,2.7-2.7,4.1-2.7,4.3c-0.2,0.6-0.1,1.1,0.3,1.3c0.4,0.2,0.8,0.3,1.2,0.4
		c0.5,0.1,0.9,0.1,1.2-0.2c0.3-0.1,0.5-0.3,0.8-0.6s0.5-0.5,0.6-0.8c1.2-2.1,2.1-4.3,2.9-6.6c1.7-4.8,2.3-9.1,2-13
		c-0.2-1.9-0.6-3.7-1.3-5.2c-0.3-0.6-0.6-1.2-1-1.8c-0.2-0.1-0.3-0.2-0.6-0.2c-0.5,0-1,0.2-1.5,0.8c-1,1-2,2.2-3,3.1
		c-4,5.1-7.9,9.6-11.8,13.5c-0.5,0.6-0.9,1.1-1.3,1.7l5.3,2.1 M272.7,86c0.1,0.3,0.3,0.5,0.5,0.4s0.4-0.2,0.5-0.5s0-0.6-0.3-0.7
		c-0.2-0.2-0.5-0.1-0.6,0.2 M279.6,85.8l-1.5-0.2l0.3,0.8l1.5,0.2L279.6,85.8z M278.1,85.6h-0.3c0.3,0.1,0.5,0.3,0.5,0.8
		c0,0.4-0.2,0.7-0.6,0.8h0.3l0.3-0.8 M277.7,85.6h-0.3 M277.3,86.9l0.1,0.1h0.3 M279.5,87.2L278,87 M279.5,87.2l0.3-0.8 M277.3,87
		l2.2,0.2 M280.8,87l0.1,0.1l0.1,0.1l0.2,0.2l0.1,0.1l0.1,0.1h0.1c0.2,0,0.3-0.1,0.5-0.2c0.1-0.1,0.2-0.3,0.2-0.5
		c0.1-0.4,0-0.8-0.3-1s-0.6-0.1-0.9,0.3 M253,96.2L253,96.2h0.1v0.1v0.1v0.1c0,0.1-0.1,0.2-0.3,0.4c-0.2,0.1-0.3,0-0.3-0.2
		c0.1-0.2,0.1-0.3,0.3-0.4L253,96.2z M254.9,111.7l7.8,6.1l1.3,1l1.5,1.1l-0.6,0.9l-0.4,0.5l-0.3,0.2l0.9,0.4 M256.1,115.6
		c-0.2,0.3-0.3,0.6-0.5,0.7l-0.1,0.1h-0.1h-0.1h-0.1l-1-0.4l0.1,0.2l0.8,0.6l1,0.6l1,0.4h0.1h0.1h0.1l0.1-0.1
		c0.1-0.1,0.3-0.3,0.6-0.6c0.1-0.2,0.3-0.4,0.4-0.7c0.2-0.3,0.2-0.6,0.2-1s-0.2-0.6-0.5-0.9c-0.2-0.2-0.5-0.2-0.8-0.2
		s-0.5,0.2-0.8,0.4C256.5,115.1,256.4,115.3,256.1,115.6z M254.2,116l-0.2,0.3l0.1,0.2l0.2-0.3 M255.8,117.1L255.8,117.1
		L255.8,117.1l-0.5-0.3v-0.1l-0.1-0.1h0.1l0.1,0.1h0.1l0.1,0.1C255.7,116.9,255.8,117,255.8,117.1L255.8,117.1z M255.1,116.9
		l-0.2,0.3l1,0.6l0.2-0.3 M254.1,116.6l0.8,0.6 M257.8,115.3c0.3,0.3,0.3,0.6,0.1,1c-0.3,0.4-0.6,0.5-0.9,0.2s-0.3-0.6-0.1-1
		C257.2,115.2,257.5,115.1,257.8,115.3z M257.9,117.7c-0.1,0.2-0.1,0.3-0.1,0.3v0.1v0.1l0,0l0.1,0.1l0.1,0.1l2,0.9l-0.1-0.2
		l-0.8-0.6l-1.1-0.7L257.9,117.7 M259,118.5c-0.3-0.2-0.5-0.3-0.6-0.4C258.5,118.1,258.8,118.2,259,118.5L259,118.5L259,118.5
		L259,118.5z M260,119.2l-0.2,0.3l-3.8-1.7 M266,122.9c0.1,0.7-0.2,1.4-0.9,2.2c-0.7,0.8-1.4,1.1-2,0.9l-0.1-0.1
		c-0.1,0.2-0.1,0.4-0.1,0.6c-0.2,0-0.5,0.1-0.6,0.2l-36,16.3v0.1c0,0.1-0.1,0.3-0.2,0.4c-0.1,0.2-0.2,0.2-0.3,0.3s-0.2,0.1-0.3,0
		s-0.1-0.1-0.1-0.3c0.1-0.3,0.2-0.6,0.5-0.7c0.1,0,0.1,0,0.2-0.1l32.9-14.9c0.4-0.2,0.7-0.5,1-1s0.3-1,0.1-1.3 M265.4,119.9
		l-0.1-0.1l-0.6,0.9l-0.3,0.3l-0.3,0.2h-0.3l-11-4.7l-0.1-0.1 M261.7,119.9l-0.2-0.1h-0.1l0.1,0.1l0.2,0.2l0.2,0.1h0.1L261.7,119.9z
		 M264.1,121.5l-0.1,0.1l0,0l0.6,0.5l-12.2-5.2 M260.9,125.1l0.6,0.2c0.3,0.1,0.6,0,0.9-0.2s0.5-0.5,0.7-0.8l0.5-0.8l0.1-0.2
		 M263.8,122.4l-0.1-0.2l-0.2-0.1l-11.4-4.9 M263.9,121.5h-0.4l-11-4.7l-0.1-0.1 M264.4,123.1l-0.7,1c-0.3,0.6-0.6,1.2-0.7,1.7
		 M263.8,124.1c0.1-0.4,0.3-0.6,0.6-0.8c0.4-0.1,0.5,0.1,0.4,0.5s-0.3,0.6-0.6,0.8C263.9,124.7,263.7,124.5,263.8,124.1z M264,118.8
		l1.3,1 M235,109l7.6,2.9h0.1c0.2-0.1,0.5-0.2,0.8-0.3c0.6-0.4,1.2-1.3,2-2.6c0.8-1.4,1.5-2.3,1.9-2.7c0.2-0.2,0.8-0.4,1.7-0.6
		c0.7-0.1,1.4-0.7,2-1.8c0.1-0.2,0.2-0.6,0.3-1c0.1-0.5,0.1-0.8,0.2-1c0-0.3,0-0.6-0.1-0.8c-0.1-0.1-0.1-0.2-0.2-0.2
		c-0.1-0.1-0.1-0.2-0.2-0.2l-0.1-0.1v-0.1v-0.2l0.3-3.4l0.1-0.2c0.1-0.2,0.2-0.5,0.5-0.9c0.2-0.3,0.4-0.7,0.5-1s0.1-0.5,0-0.8
		s-0.1-0.6-0.2-0.8l-0.8-2.3l-0.1-0.1 M242.1,104.7c0.6,0.3,1,0.4,1.4,0.1c0.2-0.2,0.5-0.6,0.9-1.3l0.2,0.1l1.2,1l1.2,0.9
		 M243,105.5l0.2,0.2l0.2,0.1h0.1l-0.1-0.1L243,105.5l-0.1-0.1L243,105.5z M241.6,105.6l3,2.3 M240.6,107.5l1.6,1.2 M252.6,99.6
		c-0.1,0-0.2,0.1-0.2,0.2c-0.1,0.1-0.1,0.2-0.1,0.3c0,0.1,0.1,0.2,0.2,0.2c0.2-0.1,0.3-0.2,0.3-0.4
		C252.8,99.6,252.8,99.5,252.6,99.6z M249.7,108.4c-0.3,0.2-0.5,0.4-0.4,0.8c0,0.2,0.2,0.2,0.4,0.1c0.3-0.2,0.4-0.5,0.4-0.8
		c0-0.1-0.1-0.2-0.2-0.2C249.9,108.3,249.8,108.4,249.7,108.4z M245.8,104.6l-1.4-1 M230.3,97.9c0.1-0.1,0.2-0.1,0.3-0.3
		c0.1-0.1,0.1-0.2,0-0.3h-0.1h-0.1l0,0c-0.1,0.2-0.2,0.4-0.3,0.5 M230.5,97.3L230.5,97.3l-0.1,0.1l-0.1,0.1l-0.1,0.1l-0.1,0.1
		 M229.6,97.3c-0.1-0.1-0.3-0.2-0.5-0.2s-0.4,0-0.5-0.1 M234.4,97.8l0.2,0.2l2.3,1.7 M227.2,91.3c0.2-0.3,0.5-0.5,0.8-0.8
		c1.1-0.8,2.2-1.5,3.3-2.1 M224.9,93.2c-0.6,0.2-1.4,0.8-2.6,1.9l1,3.8l0.8,2.9v0.1v0.5l-0.1,0.5v0.1l0.1,0.1v0.1l0.1,0.1l0.1,0.1
		l0.1,0.1l0.1,0.1l0.1,0.1l1.7,1.3c-0.1-0.1-0.1-0.2-0.1-0.3c-0.1-0.1,0-0.3,0.1-0.7c0.1-0.4,0.3-0.9,0.6-1.5
		c0.3-0.7,0.6-1.2,0.7-1.4c0.1-0.3,0.2-0.6,0.2-0.8c-0.1-1-0.3-2.1-0.6-3.3c-0.2-0.8-0.5-1.8-1-3.1c-0.1-0.2-0.2-0.3-0.4-0.5
		C225.4,93.2,225.2,93.1,224.9,93.2z M222.4,95.1c-0.5,0.5-1,0.9-1.5,1.6c-1.3,1.4-2.6,2.8-3.7,4.2c-0.5,0.6-0.9,1.2-1.4,1.9
		l5.1-2.6 M222.8,99.1l0.5-0.2 M227.9,103.3c0.1-0.3-0.1-0.4-0.3-0.3c-0.3,0.1-0.5,0.3-0.5,0.6c-0.1,0.3,0.1,0.4,0.3,0.3
		C227.7,103.8,227.8,103.6,227.9,103.3z M224.5,103.6L224.5,103.6l0.2,0.2l0.3,1.3l0.1,0.2l0.7,2.6v0.3c0,0.4-0.1,0.8-0.3,1.2
		c-0.2,0.3-0.3,0.6-0.4,0.8c-0.2,0.2-0.3,0.5-0.6,0.7l-0.4,0.4l-0.3,0.2l-1.5,0.7l-13.5,6.5c-0.1,0.1-0.1,0.1-0.2,0.2
		c-0.6,0.7-1,1.3-1.3,1.8c-0.1,0.3-0.2,0.6-0.3,1.1s-0.1,0.9,0,1.1 M224.7,105.2l-2.6,7 M224.7,105.2
		C224.7,105.2,224.7,105.1,224.7,105.2c-0.1-0.2-0.2-0.3-0.1-0.3 M224,109.5v-0.2l0,0l0,0V109v-0.1v-0.2v-0.1l0.1-0.2
		c0.1-0.4,0.2-0.9,0.4-1.5c0.3-0.9,0.5-1.3,0.6-1.5H225c-0.1-0.1-0.1-0.1-0.2-0.2 M224.3,104.3c-1,0.5-1.9,1.4-2.6,2.8
		c-0.8,1.5-0.8,2.6,0.1,3.3 M207,123.1c0.2,0.3,0.4,0.5,0.8,0.4c3.4-0.9,6.9-2.2,10.4-4c0.4-0.2,0.9-0.4,1.3-0.6l0.2-0.2
		c0.1-0.1,0.1-0.1,0.1-0.1c0.3-0.3,0.5-0.5,0.6-0.5c1.7-1,3.4-1.9,5.2-2.7c0.8-0.5,1.5-1,2.2-1.5c0.2-0.2,0.4-0.3,0.7-0.6v-0.1h0.1
		l0.2-0.2c0.1-0.1,0.2-0.2,0.2-0.3c0.1-0.2,0.3-0.5,0.6-0.9c0.2-0.3,0.3-0.6,0.3-1c0.1-0.3,0.2-0.5,0.2-0.7v-0.3l-0.1-0.3l-0.9-3.6
		c-0.1-0.2-0.2-0.4-0.3-0.5l-0.1-0.1l-0.1-0.1l-0.2-0.1l-1.7-0.1c-0.2,0-0.3-0.1-0.4-0.2c-0.1-0.1-0.1-0.1-0.1-0.1 M225,105.1
		l-0.1,0.2 M235.5,101.2l-0.8-0.6l-0.1-0.1l-0.1-0.1h-0.1c-0.1,0-0.1,0.1-0.1,0.1c0,0.1-0.1,0.1-0.1,0.1 M230.3,100.8
		c0.3-0.1,0.5-0.3,0.5-0.6c0.1-0.3-0.1-0.4-0.3-0.3c-0.3,0.1-0.5,0.3-0.5,0.6C229.9,100.8,230,101,230.3,100.8z M230.3,103.9
		L230.3,103.9c0.2,0.7,0.3,1,0.3,1l0,0 M234.6,98l-0.2,2.7 M233.7,113.8h0.3l14.2,4.1c0.2,0.1,0.3,0.1,0.3,0.2
		c0.1,0.1,0.1,0.2,0.2,0.3c0.2,0.6,0.1,1.2-0.5,2c-3.6,5.4-7.7,9.9-12.6,13.6c-2.3,1.7-4.6,3.1-6.8,4.2c-0.9,0.5-1.9,0.9-2.9,1.2
		c-1.3,0.5-2.3,0.8-3,0.8c-0.2,0-0.5-0.1-0.6-0.3s-0.2-0.4-0.2-0.7c0.1-0.6,0.2-1.3,0.4-2.1c-0.3,0.7-0.6,1.3-0.9,2
		c-0.1,0.3-0.3,0.6-0.6,0.8c-0.5,0.5-1,0.8-1.5,0.8c-1.7,0.1-3.4-0.1-4.9-0.6c-1.6-0.5-3-1.3-4.3-2.5c-1.2-1.2-2.1-2.6-2.8-4.4
		c-0.6-1.6-0.9-3.3-1-5.1c-0.1-1.3-0.1-2.2,0.2-2.7c0.3-0.7,1-1.3,2-1.7c0.5-0.2,0.9-0.2,1.2,0.1c0.2,0.3,0.2,1.1-0.1,2.3
		c-0.3,1.3-0.4,2.2-0.4,2.4s0.1,0.4,0.3,0.5s0.3,0.2,0.6,0.1c0.1,0,0.1,0,0.2-0.1c0.2-0.1,0.3-0.2,0.6-0.3l0.2-0.1l0.3-0.2l8-9.5
		c0.1-0.1,0.2-0.1,0.2-0.1l0.1-0.2 M234.1,110c0,0.2,0,0.3-0.1,0.3 M234.1,109.9c0.1-0.3,0.2-0.6,0.4-0.8c0.2-0.3,0.5-0.6,0.8-1
		 M229.5,116.9c0.1-0.3,0.1-0.6,0-0.9c0-0.1-0.1-0.2-0.2-0.2l-0.1-0.1l0,0l-0.1-0.1c-0.1-0.1-0.2-0.2-0.2-0.3
		c-0.1-0.1-0.2-0.3-0.4-0.5s-0.5-0.2-0.9-0.1c-0.6,0.2-1.2,0.5-1.8,0.7c-0.6,0.4-1.2,0.8-1.9,1.2c-0.1,0-0.1,0.1-0.1,0.1l-2.7,7.5
		l0.1,0.1l0.1,0.1v0.2v0.3l-0.1,0.3l-0.1,0.2l-4.1,12.2c0.2-0.1,0.3-0.2,0.5-0.3l1.4-4.2l0.1-0.1l0.2-0.3l0.2-0.3
		c0.2-0.2,0.4-0.4,0.6-0.5 M229.4,117c-0.3,1.2-0.7,2.4-1,3.6c0.6-1.5,1.1-2.7,1.5-3.6c0.2-0.3,0.3-0.7,0.6-0.9 M236.5,116.4
		l-0.1,0.1h-0.2H236l-3.1-1 M217.3,137.3c0.1-0.1,0.1-0.1,0.2-0.2c0.2-0.2,0.5-0.5,0.7-0.8c1.2-2.3,2.4-5.4,3.7-9.2
		c1.3-4.3,2.2-7.3,2.9-9.1c0.1-0.3,0.1-0.6,0.1-0.8c-0.1-0.2-0.2-0.5-0.4-0.7l-1.8,4.9l-0.1,0.1v0.1l-0.1,0.1v0.1l0.1,0.2l0.1,0.1
		c0.1,0.2,0.3,0.3,0.5,0.3 M221.1,119.4c0.1,0.1,0.3,0.1,0.3-0.1c0.1-0.2,0.1-0.3-0.1-0.5c-0.2-0.1-0.3-0.1-0.3,0.1
		S221,119.2,221.1,119.4z M220.1,131.4c-0.2-0.1-0.3-0.2-0.4-0.4v-0.1v-0.1l0.1-0.3l2-5.9c0.1-0.3,0.3-0.6,0.5-0.9
		c0.3-0.3,0.5-0.5,0.8-0.6 M228.4,120.6c-0.8,1.9-1.8,4.3-3,7.1c-1.3,3.5-2.3,6.6-2.9,9.4c1.2-2.7,2.3-5.6,3.4-8.9
		C226.7,126.2,227.5,123.7,228.4,120.6z M235.2,109.9l7,2h0.3h0.1 M237.6,116.7l0.1,0.2l0.1,0.1l0.1,0.1l6.5,2.2
		c0-0.2-0.1-0.5-0.2-0.6 M244.3,119.3c0,0.2,0,0.3-0.1,0.5s-0.1,0.4-0.2,0.6c-0.1,0.1-0.1,0.2-0.2,0.4c-2.1,2.9-4.5,5.5-7.1,7.9
		c-2.7,2.4-5.5,4.5-8.4,6.1c-1.4,0.8-2.9,1.4-4.3,1.9c-0.3,0.1-0.6,0.1-0.8,0.1 M249,122.2l3.1,1.1 M252.2,123.3
		c0.5,0.2,0.5,0.6,0.2,1.3c-0.3,0.6-0.7,1-1.1,1.2l-8.1,3.7 M252.2,123.3c0.1,0.2,0.1,0.3,0.1,0.6c-0.1,0.2-0.1,0.5-0.2,0.6
		c-0.1,0.2-0.3,0.5-0.6,0.7l-0.4,0.2l-7.2,3.3 M249.2,128.2l-1.8,0.8l0.5,0.1l1.8-0.8L249.2,128.2z M244.3,119.8l-12.4-4.3
		 M230.9,116l13,4.5 M249.7,128.3l0.4,0.8l-0.1,0.7l-1.8,0.8h-0.4 M248.2,130.5l0.1-0.7l-0.4-0.8 M247.3,129v0.2 M248,130.3
		c0.2-0.1,0.2-0.4,0.1-0.8s-0.3-0.5-0.6-0.4 M248.3,129.8l1.8-0.8 M242,132.5c0.2,0.2,0.4,0.3,0.5,0.2s0.1-0.3,0-0.6
		s-0.2-0.5-0.5-0.5c-0.2-0.1-0.3,0.1-0.3,0.5 M226.3,142.9c0-0.2-0.1-0.2-0.2-0.2 M257.5,124.4l-8.1-2.8 M249.7,121.2l8.5,2.9
		 M284.9,86.2c0.5,0.1,0.6,0.3,0.6,0.9c-0.1,0.6-0.3,0.8-0.8,0.8 M215.7,102.6c-1.1,1.5-2.2,3.1-3.2,4.8c-0.9,1.6-1.3,2.4-1.5,2.7
		c-0.6,1.1-1,2-1.3,2.8c-0.1,0.5,0.1,1.2,0.3,2.1c0.2,0.8,0.2,1.5-0.2,2.1c-0.2,0.3-0.6,0.8-1.2,1.6 M207.4,96l-0.1,0.3 M194,93.4
		c-0.4,0.6-0.9,1-1.5,1.6c-0.3,0.3-0.9,1.2-1.6,2.8c-0.1,0.2-0.3,0.6-0.6,1.2s-0.4,1-0.3,1.3c0.1,0.3,0.2,0.5,0.6,0.5h0.3
		c0-0.1,0.1-0.2,0.1-0.3c0.3-0.8,1.1-2.3,2.3-4.5 M228.8,67.6c-7.5,1.4-14.8,5.5-22,12.3c-6.5,6.1-11.6,13-15.1,20.6
		c-0.2,0.3-0.2,0.6-0.2,0.9c0.1,0.3,0.3,0.5,0.8,0.4 M190.9,100.7c0,0.2,0.1,0.5,0.2,0.6 M192.4,101.4l0.6,0.5h1.6 M196.3,122.6
		c-0.2-0.2-0.3-0.5-0.2-0.9c0.1-0.3,0.2-0.6,0.3-0.9c0.3-0.4,0.5-0.7,0.8-0.9c0.2-0.1,0.5-0.3,1-0.5 M194.8,124.5l-0.7,2 M198,120.7
		c-0.2,0-0.3,0.1-0.5,0.3c-0.2,0.2-0.3,0.4-0.3,0.6 M196.4,122.4c-0.1-0.5,0.1-1,0.5-1.6c0.2-0.2,0.4-0.5,0.7-0.7l0.5-0.2l0.3-0.1
		 M195.1,123.7l1.8-5.3 M205.6,116.4L205.6,116.4l0.1,0.1l0.1,0.1l0.1,0.1l0,0h0.1 M205.8,115.8c0.3-0.1,0.5-0.2,0.5-0.2
		 M211.2,123.7c0.1,0.2,0.3,0.1,0.6-0.2c0.2-0.3,0.3-0.5,0.1-0.6c-0.1-0.2-0.3-0.1-0.6,0.2C211.1,123.3,211.1,123.6,211.2,123.7z
		 M211.1,127.8c0.2-0.3,0.3-0.5,0.2-0.7c-0.1-0.1-0.3-0.1-0.6,0.2c-0.2,0.3-0.3,0.5-0.2,0.6C210.6,128.2,210.8,128.1,211.1,127.8z
		 M221,124.2l-2.4-1.9c0.1,0.2,0.2,0.5,0.1,0.8c-0.2,1.1-0.5,2.4-1,3.8c-0.3,0.9-0.8,2.1-1.5,3.7c-0.4,0.9-1,1.5-1.7,1.7
		s-1.3,0.7-1.7,1.4c-0.2,0.3-0.2,0.6-0.3,0.9c-0.1,0.3,0.1,0.6,0.2,0.8 M215.7,122.4c0.2-0.3,0.3-0.5,0.1-0.7
		c-0.1-0.1-0.3-0.1-0.6,0.2c-0.2,0.3-0.3,0.5-0.2,0.7C215.2,122.8,215.4,122.7,215.7,122.4z M218.5,122.3l1.2-3.4
		c1.3-0.7,2.7-1.5,4-2.2 M210.7,136c0.9,0.6,2,1.1,3.1,1.4c0.3-0.8,0.3-1.3,0.1-1.6c-0.1-0.1-0.2-0.1-0.4-0.1s-0.3-0.1-0.5-0.2
		c-0.2-0.2-0.2-0.6-0.1-1.2c0.3-0.6,0.6-1,1-1.3c0.2-0.2,0.7-0.4,1.3-0.8l1.7-1.6 M214.4,133.5c0.2-0.1,0.3,0.1,0.3,0.5
		c-0.1,0.3-0.2,0.6-0.6,0.8c-0.3,0.2-0.5,0.1-0.5-0.2c0-0.1,0-0.1,0-0.2c0.1-0.3,0.2-0.6,0.6-0.8
		C214.3,133.5,214.4,133.5,214.4,133.5z M214.4,133.5c0.1,0.2-0.1,0.5-0.2,0.7c-0.2,0.2-0.4,0.4-0.6,0.4 M213.8,137.5
		c0.1,0.1,0.2,0.1,0.3,0.1c0.2,0.1,0.3,0.1,0.4,0.1c0-0.2-0.1-0.6-0.2-1c-0.1-0.2-0.1-0.3-0.1-0.4c-0.1-0.1-0.1-0.2-0.3-0.3
		c-0.1,0-0.1-0.1-0.1-0.1 M214.6,137.7c1,0.2,1.7,0.2,2.3-0.1 M210.5,129.1l-0.6,1.2 M211.1,147.7c-0.2-0.2-0.3-0.4-0.3-0.7v-0.2
		l0.1-0.5l1.3-4 M217.7,143.4c-0.3,0.3-0.5,0.5-0.8,0.6s-0.6,0.2-1,0.2c-0.2,0-0.4-0.1-0.5-0.3s-0.1-0.4,0-0.6 M225.1,143.4
		l-7.4,3.4c-0.3-0.3-0.5-0.5-0.7-0.6c-0.3-0.2-0.6-0.3-0.9-0.2c-0.3,0.2-0.6,0.5-0.9,0.9c-0.4,0.6-0.7,0.9-0.7,1
		c-0.6,0.7-1.2,1-1.9,0.9c-0.6-0.1-0.8-0.6-0.5-1.7l0.9-2.7c0.1-0.3,0.3-0.3,0.5-0.2l0.9,0.7l0.6-1.7 M214.3,146.6
		c-0.1,0.4-0.3,0.6-0.6,0.8c-0.4,0.1-0.5,0-0.4-0.4s0.3-0.7,0.6-0.8C214.3,146,214.4,146.2,214.3,146.6z M214.4,144.9l1.7-0.2
		c0.6-0.1,1.1,0.1,1.4,0.6c0.2,0.4,0.3,0.9,0.2,1.6 M218.2,143.4c-0.2,0.8-0.2,1.3,0.2,1.7c0.3,0.4,0.9,0.5,1.7,0.1l4.7-2.1
		 M194.8,134.9c0.1,0.2,0.2,0.3,0.4,0.5c0.2,0.1,0.4,0.1,0.6,0 M210.2,87.4l-1,2.8 M210.3,88l-0.7,1.9 M221.8,61.9l-2.4,6.5
		 M222,61.9l-2.4,6.4 M225,105.4L225,105.4 M252.2,123.3L252.2,123.3"/>
	<path id="Layer0_5_MEMBER_3_MEMBER_173_MEMBER_192_1_STROKES" class="st8" d="M309.4,89.2l-0.1-0.1 M308.4,88.4
		c-0.8-0.5-1.7-0.8-2.7-0.6c-0.9,0.1-1.8,0.4-2.8,0.9 M277.7,86.4l0.3-0.8h0.7l0.3,0.8l-0.3,0.8H278L277.7,86.4z M252.2,128.3
		c0.3,0.3,0.5,0.4,0.7,0.2s0.2-0.5,0-0.9c-0.1-0.3-0.3-0.6-0.6-0.6c-0.3-0.1-0.4,0.2-0.4,0.6 M255.8,125.4c0.1-0.3,0.3-0.4,0.6-0.2
		c0.3,0.1,0.5,0.3,0.5,0.6c0.2,0.3,0.2,0.6,0.1,0.9s-0.3,0.5-0.6,0.3 M258.2,124.1c0.3-0.2,0.7,0.1,1,0.7s0.2,1-0.1,1.2
		 M256.1,125.2c0.3-0.1,0.6,0.1,0.8,0.6c0.2,0.5,0.2,0.8-0.1,1 M266.9,120.6l-1.8,0.8l0.5,0.1l1.8-0.8L266.9,120.6z M265.1,121.4
		l-0.1,0.5 M265.3,122.7l0.1,0.2h0.5l0.1-0.7l-0.4-0.8 M265.3,121.7c0.1-0.1,0.2,0,0.3,0.2c0.1,0.2,0.1,0.4,0,0.5 M265.9,122.9
		l1.8-0.8l0.1-0.7l-1.8,0.8 M267.8,121.4l-0.5-0.8 M262.3,122.5c0.3-0.1,0.6,0.1,0.8,0.6c0.2,0.5,0.2,0.9-0.1,1 M272.6,118.4
		c0.2-0.1,0.5,0.1,0.6,0.4c0.2,0.4,0.2,0.6-0.1,0.8 M248.2,129.3l0.1-0.7l0.6,0.1l0.4,0.8l-0.1,0.7l-0.5-0.1L248.2,129.3z
		 M309.7,90.5c2.8,0.2,4,1.9,3.7,5.1c-0.1,1.2-0.5,2.6-1.1,3.9s-1.2,2.3-1.9,3c-0.9,1.3-2,2.3-3.2,3.3c-1.4,1-2.8,1.7-4.1,2
		c-1.2,0.2-2.2,0.1-3-0.3c-0.4-0.2-0.8-0.5-1-0.8l-0.2-0.1 M300.4,102.1L300.4,102.1 M302.2,97.4c-1.1,1.6-1.7,3.2-1.7,4.7
		 M305.8,93.9c-1.4,0.8-2.6,2-3.7,3.6 M309.1,93.1c-1-0.2-2,0.1-3.3,0.8 M309.1,93.1c0.2,0,0.3,0.1,0.4,0.1c1.2,0.4,1.7,1.4,1.7,3
		c-0.1,1.6-0.6,3.1-1.7,4.8c-1,1.5-2.3,2.7-3.7,3.6c-1.4,0.8-2.6,1-3.7,0.7c-0.7-0.2-1.2-0.7-1.5-1.3c-0.2-0.5-0.3-1-0.3-1.7
		 M300.7,103.8c1,0.1,2.2-0.1,3.4-0.9c1.1-0.6,2.1-1.6,3-2.8c0.9-1.2,1.6-2.4,1.9-3.7c0.4-1.3,0.4-2.5,0-3.5 M311.2,90.6l-0.2-0.1
		 M300.4,102.2c0.2,0.1,0.5,0.2,0.7,0.2 M303.4,102.2c-1.2,0.5-2.2,0.5-3-0.1 M306.4,99.7c-0.9,1.2-1.9,2-3,2.5 M308.2,96.1
		c-0.2,1.2-0.8,2.3-1.7,3.6 M307.4,93.2c0.8,0.6,1,1.6,0.8,2.9 M307.7,93.9c-0.1-0.2-0.2-0.4-0.4-0.6 M307.7,93.9
		c0.3,0.6,0.3,1.4,0.1,2.3c-0.2,1.1-0.8,2.2-1.7,3.3c-0.9,1.1-1.8,1.9-2.9,2.4c-0.8,0.4-1.6,0.6-2.3,0.5c1.6-0.6,3.1-1.7,4.4-3.4
		C306.9,97.2,307.6,95.5,307.7,93.9z M299.1,106.6c-0.3-0.4-0.6-0.9-0.7-1.5 M300.4,102.2C300.4,102.1,300.4,102.1,300.4,102.2
		 M302.1,89.2c-1.3,0.8-2.6,1.9-3.7,3.3"/>
	<path class="st0" d="M113.2,59.5c2.6,0.4,5.5,0.9,8.8,1.6c6.5,1.3,11.6,2.5,15.2,3.8c3.5,1.2,8.5,3.4,15,6.3c3.2,1.5,6.1,3,8.6,4.2
		l17.4,10.8l-10.6,11.4l-14.3-12.1l-10.7-7.2l-10.3-5.5l-11.1-4.7l-12.7-3.8l-11.2-2l-13.8-1.2l-14,0.4l-16.2,2.2l16.9-4l18-1.5
		h12.4L113.2,59.5z"/>
	<path class="st0" d="M164.7,100.7l16.8-1.5l0.3-16.7L164.7,100.7z"/>
	<path class="st0" d="M170.9,108h-0.6l-12.5,7.2V111l-2.8-1.3l-10,19.8l10,8.6l2.8,1.3v-7l15.7-8.7v-14.5L170.9,108 M158.3,121.1
		l1.2-0.6l1.1,4.8l0.7-5.8l1.3-0.7l0.7,4.9l1.1-5.9l1.3-0.6l-1.7,8.4l-1.2,0.6l-0.9-5.2l-0.9,6.3l-1.1,0.6L158.3,121.1 M158.1,122.6
		l-2.9,1.6v1.7l2.4-1.4v1.3l-2.4,1.4v3.2L154,131v-7.4l4-2.3L158.1,122.6 M171,116.3v0.6l0.1,0.7l-0.1,0.8v0.3l-0.1,0.4v0.4
		l-0.2,0.7l-0.2,0.3l-0.1,0.4l-0.2,0.3l-0.3,0.3l-0.1,0.2l-0.8,0.8l-2.8,1.6v-7.5l2.1-1.3l0.8-0.4h0.7l0.5,0.3L171,116.3
		 M168.9,116.5l-0.4,0.2l-1,0.6v4.8l1.5-0.9l0.1-0.1l0.2-0.3l0.2-0.3v-0.3l0.1-0.2l0.1-0.1l0.1-0.5v-2l-0.1-0.4l-0.1-0.3l-0.3-0.3
		h-0.4L168.9,116.5L168.9,116.5z"/>
	<path class="st2" d="M52.5,62.2C52.4,62.2,52.4,62.3,52.5,62.2h-0.2h-0.1c0,0-0.1,0-0.1,0.1c-0.1,0-0.1,0-0.2,0
		c-0.4,0.1-0.8,0.3-1.1,0.5c-0.9,0.6-1.3,1.2-1.3,2c0,0.5,0.2,0.9,0.4,1.2c0.1,0.2,0.3,0.3,0.5,0.5c0.1,0,0.2,0.1,0.2,0.2l0.1,0.1
		h0.1c0,0,0,0,0,0.1c0.1,0,0.2,0.1,0.3,0.2c0.1,0,0.2,0.1,0.3,0.2h0.1c0.1,0,0.1,0.1,0.2,0.1c0.5,0.2,1.1,0.3,1.8,0.4h0.1
		c0.1,0,0.3,0,0.4,0h0.1c1.3,0,2.3-0.3,3.2-0.9c0.9-0.5,1.3-1.1,1.3-1.9v-0.1c0-0.2,0-0.4-0.1-0.6s-0.2-0.5-0.3-0.7
		c-0.1-0.1-0.1-0.1-0.2-0.2h-0.1c0-0.1-0.1-0.1-0.1-0.2h-0.1l-0.1-0.1c0,0-0.1-0.1-0.2-0.1c-0.1-0.1-0.1-0.1-0.2-0.2
		c-0.2-0.1-0.3-0.2-0.5-0.2c-0.8-0.4-1.8-0.6-2.8-0.6c-0.1,0-0.2,0-0.3,0h-0.1C53.3,62.1,52.9,62.1,52.5,62.2z"/>
	<path d="M43.5,54.2L43.5,54.2L43.5,54.2l1.2,0.8v-0.1L43.5,54.2z"/>
	<path id="Layer0_8_MEMBER_0_1_STROKES" class="st10" d="M78.5,26.8l-0.7,0.1l-0.4,0.2l-4.6,2.7l-0.5,0.4l-0.2,0.6L72,31.1v0.8
		l0.2,0.8l0.2,0.4l0.7,1l2.8,6.2l1.5,6.2l0.1,2.9L77.2,52l-0.7,2.3l-1.1,1.9l-1.3,1.6l8.2-4.8l1.3-1.6l1.1-1.9l0.7-2.3l0.2-2.7
		l-0.1-2.8L85,38.6l-2.2-6.3l-1.6-3.1l-0.9-1.4L79.5,27L78.5,26.8z M60.2,41.2l3.2,6.6l-2.3,1.8l-7.6,2.9c-0.1,0-0.2,0.1-0.3,0.1v1
		l11.2,6.5l0.4-0.2l0.4-2.4l0.1-2.6L65,52.1l-1.6-5.9l-2.8-5.8l-1.8-2.7l-4.2-4.6l-2.2-1.8L47.8,29l-2.2-0.6h-2l-1.9,0.4L40,29.6
		l-1.4,1.3l-1.1,1.7l-0.8,2L36.1,37v2.6l0.1,0.7l0.8,2.5l10.1,0.1V30.6l6.2,3.6v8.3l0.8-0.1l5.1-1.2C59.2,41.2,60.2,41.2,60.2,41.2z
		 M82.4,53.1l11.9-6.9 M71.5,9.8L46.8,24.1l-6.2,4.3L36,32.6c-0.4,0.6-0.7,1.2-0.9,1.7c-0.2,0.6-0.3,1.2-0.2,1.8v0.5l1.3,3.8
		l0.2,2.2l0.2,0.9l0.4-0.7 M36,32.6L28.4,43L28,43.6L27.8,44v0.6l2.4,5.3l5.3-4.8l1-1.8l0.2,0.6L47.1,50v-7.2l3.9-0.2l2.3-0.1v10.1
		c-1,0.3-2.1,0.5-3.2,0.7c-0.7,0.1-1.4,0.2-2.1,0.2c-0.3,0-0.6,0.1-0.9,0.1v0.7l-1.8,1l2.6,1.5l5.4-3.1 M23.5,50.3l4.5-6.8l0.1-0.2
		l0.3-0.3 M43.5,54.2l-1.8-1h-0.1L31,52l-1-2.2l-4,3.8l-4.8,5.3l20.4,11.6l9.3-3.6 M58.3,63.6l1-0.5l5.2-3l0.3,0.2l0.1-0.3
		 M47.1,53.6c-0.2,0-0.4,0-0.7,0c-0.4,0-0.9,0-1.5-0.1c-0.4,0-0.8-0.1-1.2-0.1c-0.1,0-0.1-0.1-0.2-0.1l-1.7-0.1 M44.8,54.9l0.5,0.3
		 M43.5,54.2L43.5,54.2l1.3,0.7V55L43.5,54.2L43.5,54.2z M47.1,50.1v3.5 M51,42.6l-3,10.9 M47.1,50.1l-5.3,3.2 M36.7,44l-1.2,1.2
		l-4.3,6.9 M74.1,57.9l-9.9,5.7l-16.7,8.5l-16.8,6.4l-7.5,2.2 M23.4,50.6C19.8,56.7,17,62.4,15,67.7c-2,5.3-2.9,9-2.7,11.3
		c0,0.7,0.2,1.3,0.7,1.8c0.4,0.4,0.8,0.6,1.2,0.7c0.1,0,0.2,0,0.3,0h1.3c0.5,0,1.1,0,1.7,0c0.5-0.1,1.1-0.1,1.8-0.2
		c0.6-0.1,1.2-0.1,1.8-0.2c0.5-0.1,1.1-0.2,1.6-0.3"/>
	<path id="Layer0_9_MEMBER_1_1_STROKES" class="st11" d="M333.1,55.7h-84V27.9h84V55.7z"/>
</g>
<text transform="matrix(1 0 0 1 254.296 47.1833)" class="st12 st13">2710-P1-A2</text>
</svg>
