<?xml version="1.0" encoding="utf-8"?>
<!-- Generator: Adobe Illustrator 24.1.2, SVG Export Plug-In . SVG Version: 6.00 Build 0)  -->
<svg version="1.1" id="Ebene_1" xmlns="http://www.w3.org/2000/svg" xmlns:xlink="http://www.w3.org/1999/xlink" x="0px" y="0px"
	 viewBox="0 0 349.1 161" style="enable-background:new 0 0 349.1 161;" xml:space="preserve">
<style type="text/css">
	.st0{fill:#00CC00;}
	.st1{fill:#999999;}
	.st2{fill:#CCCCCC;}
	.st3{fill:#0099FF;}
	.st4{fill:#FF9A00;}
	.st5{fill:#FF9900;}
	.st6{fill:none;stroke:#1A181B;stroke-width:0.3;stroke-miterlimit:4.9999;}
	.st7{fill:none;stroke:#1A181B;stroke-width:0.3;stroke-miterlimit:59.9989;}
	.st8{fill:none;stroke:#FF9900;stroke-linecap:round;stroke-linejoin:round;}
	.st9{font-family:'ArialMT';}
	.st10{font-size:14px;}
</style>
<path class="st0" d="M133.3,112.8c1.1,0.3,2.3,0.2,3.5-0.1c-1.1-1.9-2.3-3.8-3.6-5.7c-1.1-1.4-2.2-2.9-3.5-4.2
	c-3.9-4.5-8.3-7.9-13.2-10.2c-1.4-0.6-2.8-1.1-4.1-1.5c-0.3-0.1-0.6-0.2-0.8-0.3l0.4,11.5c0.3,0.9,0.6,1.8,1,2.7
	c0.4,1,0.9,2.1,1.5,3.2c2.1,4,4.9,7.7,8.4,10.9L133.3,112.8z"/>
<path class="st1" d="M136.8,112.7c-1.2,0.4-2.4,0.4-3.5,0.1l-10.6,6.3c-3.5-3.3-6.3-6.9-8.4-10.9c-0.6-1.1-1-2.1-1.5-3.2
	c-0.4-0.9-0.7-1.8-1-2.7l-0.4-11.5c-0.4-0.1-0.8-0.2-1.2-0.3c-2.7-0.6-5.2-0.7-7.7-0.4c-4.6,0.6-8.2,2.7-10.9,6.4
	c-2.9,4-4.4,9.5-4.3,16.5c0,3.6,0.5,7.2,1.6,10.7c1,3.7,2.6,7.4,4.8,11.1l0.4,0.7l0,0c0,0.1,0.1,0.1,0.1,0.2c1.7,2.7,3.7,5.5,6,8.1
	c9.1,10.6,18.7,15,28.8,13.2c4.6-1,8.2-3.6,10.7-7.8c2.2-3.8,3.3-8.1,3.2-13.2c0-1.9-0.1-3.8-0.3-5.7c-0.6-3.9-1.7-7.9-3.4-12
	C138.6,116.3,137.7,114.5,136.8,112.7 M44.4,64.8c-4.9-2.3-9.5-3.1-13.9-2.5c-4.6,0.6-8.2,2.8-10.9,6.5c-3,4.1-4.5,9.6-4.4,16.5
	c0.1,4.3,0.8,8.5,2.2,12.7l1.4,3.7c0.6,1.2,1.2,2.4,1.8,3.6c0.2,0.4,0.4,0.8,0.6,1.1l2,3.4c1.4,2.1,3.1,4.2,4.9,6.4
	c9.1,10.6,18.8,15,29,13.2c4.7-1,8.3-3.6,10.7-7.8c2.2-3.7,3.3-8.1,3.3-13.2c0.1-5.8-1.2-11.7-3.7-17.9C65,84.7,61.7,79.5,57.7,75
	C53.8,70.5,49.4,67.1,44.4,64.8 M208.1,66.1l-0.9,1.8c-0.2,3.8-1,7.2-2.4,10.3c-1.5,3.4-3.6,6.2-6.4,8.3l-0.1-1.5l-6.1,16.4l6,2.3
	l11-6.6l-0.6-16.7L208.1,66.1z"/>
<path class="st2" d="M130.6,23.6L130.6,23.6l2.2,1c0.3,0,0.6,0.1,0.8,0.3c0.6,0.5,0.8,1.2,0.9,2.2c0.1,1-0.2,2.1-0.6,3.1
	c-0.6,1.1-1.2,1.9-2.1,2.5c-0.6,0.3-1.2,0.4-1.7,0.2l-0.6-0.2l0.3,6.2l2.5,1l0,1.2c0.3,0.2,0.5,0.4,0.5,0.6l0.3,1.3
	c0.6,0.2,0.9,0.5,0.9,0.9c0,0.1,0,0.2,0,0.3c0.8,0.4,1,0.8,0.8,1.4c0,0.1-0.1,0.3-0.3,0.5c-0.7,0.7-2,1.1-3.6,1.1
	c-0.9,0-1.4,0-1.6,0.1h-0.2l-0.2,0.1l-0.1,0l-0.1,0.1l-12.9,7.6l0,0.1c-0.3,0.2-0.4,0.5-0.2,0.7c0.2,0.3,0.3,0.6,0.2,0.8
	c-0.2,0.7-0.9,1.2-2,1.5c-0.9,0.2-1.8,0.3-2.6,0.2c-1.2-0.1-2-0.4-2.6-1c-0.1-0.1-0.1-0.2-0.1-0.2c-0.1-0.1-0.1-0.3-0.1-0.4
	c-0.1-0.2,0.1-0.5,0.4-0.8c-0.1-0.1-0.1-0.2-0.1-0.2c-1.8-1.4-4.6-2.7-8.4-4c-0.7-0.2-1.4-0.4-2.1-0.6c-3-1-5-1.7-6.2-2.1
	c-0.2-0.1-0.3-0.1-0.4-0.1c-0.5-0.1-1.1-0.2-1.7-0.2c-1.7,0.5-3.3,0.5-4.8,0c-0.6-0.3-1-0.6-1.1-1.1c0-0.1,0-0.1,0-0.2
	c0-0.4,0.2-0.8,0.7-1.1l0,0c-0.1-0.2-0.1-0.4,0-0.6l0.1-0.1l0.1-0.1l0.6-0.2l0.1-1.5c0.1,0.2,0.2,0.3,0.3,0.4
	c0.4,0.3,0.9,0.5,1.5,0.5c0.8-0.1,1.4-0.2,1.8-0.5l0-0.1l0.1,0v-0.1l0,0l0.1,0.3c0.9-0.1,1.9-0.5,3-1.2c0.3-0.2,0.6-0.3,0.9-0.5
	l-0.4-11.7l-11.2,2.3C67.2,36,54.3,40.7,43.3,47.3c-1.9,1.2-3.7,2.6-5.3,4.2c-1.2,1.3-1.9,2.1-2.2,2.4l-1.4,1.8l-0.3,0.5l-8.9,5.4
	c-0.4,0.2-0.7,0.4-1,0.6c-3.8,2.3-6.5,5.8-8.1,10.5c-1.5,4.5-1.9,9.4-1.2,14.9c0.4,3.6,1.2,7.1,2.5,10.5c-1.4-4.2-2.2-8.4-2.2-12.7
	c0-7,1.4-12.5,4.4-16.5c2.6-3.7,6.3-5.8,10.9-6.5c4.4-0.6,9,0.3,13.9,2.5c5,2.3,9.4,5.7,13.2,10.2c4.1,4.5,7.4,9.7,9.8,15.5
	c2.6,6.1,3.8,12.1,3.7,17.9c0,5.1-1.1,9.5-3.3,13.2c-2.5,4.2-6.1,6.8-10.7,7.8c-10.2,1.8-19.9-2.6-29-13.2c-1.8-2.1-3.4-4.2-4.9-6.4
	c2.5,3.8,5.3,7.4,8.6,10.5c4.3,4.1,8.9,7,13.9,8.8c4.8,1.7,9.3,2,13.5,1c1.6-0.4,3.1-1,4.4-1.8c0.8-0.4,1.6-0.9,2.4-1.5l7.6-4.5
	c4.1-0.3,8.1-1.5,11.8-3.6l1.3-0.7l0.7-0.3c0.1,0.6,0.2,1.2,0.4,1.8c0.3,1.4,0.7,2.8,1.2,4.2c-1-3.5-1.6-7.1-1.6-10.7
	c0-7,1.4-12.5,4.3-16.5c2.7-3.6,6.3-5.8,10.9-6.4c2.5-0.4,5-0.2,7.7,0.4c0.4,0.1,0.8,0.2,1.2,0.3c0.2,0.1,0.5,0.2,0.8,0.3
	c1.4,0.4,2.7,0.9,4.1,1.5c5,2.3,9.4,5.7,13.2,10.2c1.2,1.4,2.4,2.8,3.5,4.2c1.3,1.8,2.5,3.7,3.6,5.7c1,1.8,1.8,3.6,2.6,5.5
	c1.7,4.1,2.8,8.1,3.4,12c0.2,1.9,0.3,3.8,0.3,5.7c0.1,5-1,9.4-3.2,13.2c-2.6,4.2-6.1,6.8-10.7,7.8c-10.1,1.8-19.8-2.6-28.8-13.2
	c-2.3-2.7-4.3-5.4-6-8.1c0.1,0.1,0.2,0.3,0.2,0.4c3.1,5.2,6.5,9.4,10.2,12.5c4.4,4,9,6.8,13.9,8.3c4.8,1.6,9.2,1.8,13.2,0.6
	c1.4-0.4,2.8-0.9,4-1.6c0.6-0.3,1.3-0.7,1.9-1.2l7.8-4.7c4-0.3,8-1.5,12-3.7l0.4-0.2c7.1-4.2,13.1-9.1,18.2-14.6
	c5.4-6,9.5-12.5,12.2-19.6l3.9-10.2l6.1-16.4l0.1,1.5c2.7-2.1,4.9-4.9,6.4-8.3c1.4-3.1,2.1-6.6,2.4-10.3l0.9-1.8l0.5,14.4l2.4-1.4
	c7.4-4.7,10.9-12.7,10.4-23.8c-0.4-9.4-3.2-18.2-8.3-26.2c-4.6-8.1-11-14.6-19-19.3c-9.4-5.5-17.9-6.2-25.4-2L156,15.5
	c-0.2,0-0.3,0.1-0.5,0.2l-2.2,1.1L153,17l-6.3,2.4c-0.4,0.2-2.6,0.9-6.6,2L130.6,23.6 M86.1,43.4c0-0.1,0-0.1,0-0.1
	c0-0.1,0.1-0.2,0.2-0.2c0.7-0.4,1.4-0.4,2.1-0.1c0.3,0.1,0.5,0.2,0.6,0.4c0,0.2-0.1,0.4-0.4,0.6c-0.6,0.4-1.3,0.4-2,0.1
	c-0.3-0.1-0.5-0.2-0.6-0.5C86,43.5,86.1,43.5,86.1,43.4 M103.2,55.3l0.1,0.1l0.1,0.2L103.2,55.3z"/>
<path class="st3" d="M86.2,43.3c0,0,0,0.1,0,0.1c-0.1,0-0.1,0.1-0.1,0.2c0.1,0.2,0.2,0.4,0.6,0.5c0.7,0.3,1.4,0.2,2-0.1
	c0.3-0.2,0.4-0.4,0.4-0.6c-0.1-0.2-0.2-0.3-0.6-0.4c-0.7-0.3-1.4-0.3-2.1,0.1C86.3,43.1,86.2,43.2,86.2,43.3 M129,15.3
	c-0.1-1.4-0.8-2.3-2.1-2.8l-10.3-3.9l-1-0.3c-0.9-0.1-1.7,0.1-2.4,0.5L94.3,19.9c0,0,0,0,0,0c-0.1,0-0.1,0-0.1,0.1
	c-1,0.6-1.5,1.6-1.5,2.7l0.3,8.1l0.4,11.7c-0.3,0.2-0.6,0.4-0.9,0.5c-1.1,0.7-2.2,1.1-3,1.2l-0.1-0.3l0,0V44l-0.1,0l0,0.1
	c-0.4,0.3-1,0.4-1.8,0.5c-0.6,0-1.1-0.2-1.5-0.5c-0.1-0.1-0.2-0.2-0.3-0.4l-0.1,1.5l-0.6,0.2l-0.1,0.1l-0.1,0.1
	c-0.1,0.2-0.1,0.4,0,0.6l0,0c-0.5,0.3-0.7,0.7-0.7,1.1c0,0.1,0,0.1,0,0.2c0.1,0.5,0.4,0.8,1.1,1.1c1.5,0.6,3.1,0.6,4.8,0
	c0.6,0,1.1,0.1,1.7,0.2c0.1,0,0.3,0,0.4,0.1c1.1,0.4,3.2,1.1,6.2,2.1c0.7,0.2,1.4,0.4,2.1,0.6c3.8,1.3,6.6,2.7,8.4,4
	c0,0,0.1,0.1,0.1,0.2c-0.3,0.3-0.5,0.5-0.4,0.8c0,0.2,0,0.3,0.1,0.4c0,0,0,0.1,0.1,0.2c0.6,0.6,1.4,0.9,2.6,1
	c0.8,0.1,1.7,0.1,2.6-0.2c1.1-0.3,1.8-0.8,2-1.5c0-0.2,0-0.5-0.2-0.8c-0.1-0.2,0-0.5,0.2-0.7l0-0.1l12.9-7.6l0.1-0.1l0.1,0l0.2-0.1
	h0.2c0.2-0.1,0.8-0.1,1.6-0.1c1.7,0,2.9-0.4,3.6-1.1c0.2-0.2,0.3-0.3,0.3-0.5c0.2-0.6,0-1-0.8-1.4c0-0.1,0-0.2,0-0.3
	c0-0.4-0.3-0.7-0.9-0.9l-0.3-1.3c0-0.2-0.2-0.4-0.5-0.6l0-1.2l-2.5-1l-0.3-6.2l-2.2-0.8l-2.1,1.1c0.1-0.3,0.1-0.5,0-0.8v-0.5h0
	l-0.1-0.1v0l-0.1-0.1c0,0.1,0,0.3,0,0.5c0,0.2-0.1,0.5-0.2,0.8c-0.1,0.2-0.1,0.3-0.1,0.5l-0.3,0.3h-0.1v0c-0.1,0.1-0.3,0.2-0.5,0.3
	c-0.4-0.2-0.5-0.6-0.3-1.4c0.3-0.8,0.7-1.2,1.2-1.2c-0.1-0.1-0.1-0.1-0.2,0c-0.6-0.1-1,0.3-1.3,1.2c0,0.2-0.1,0.3-0.1,0.4
	c-0.1,0.5,0,0.8,0.2,1.1l-3-1.1c-0.2-0.1-0.3-0.3-0.4-0.7l-0.3-8.1l0-0.1v-0.2l0.1-0.4l0.1-0.1l0.1-0.2l0.1-0.1l0.5-0.5l5.7-3.4
	l1.8,0.5c0.3,0.1,0.7,0.2,1.1,0.3L129,15.3 M111.7,53.4l-0.9-0.3l0.2-0.6l1-0.1l0.8,0.3l-0.1,0.5L111.7,53.4z"/>
<path class="st4" d="M129.1,20.3c0.1-0.2,0.2-0.2,0.3-0.3c0.1-0.2,0.3-0.2,0.4-0.2l-0.7-0.2c-0.4-0.1-0.8-0.2-1.1-0.3l-1.8-0.5
	l-5.7,3.4l-0.5,0.5l-0.1,0.1l-0.1,0.2l-0.1,0.1l-0.1,0.4v0.2l0,0.1l0.3,8.1c0.1,0.4,0.2,0.6,0.4,0.7l3,1.1c-0.2-0.2-0.3-0.6-0.2-1.1
	l-0.2-6.8c-0.1-0.1-0.1-0.3,0-0.5l0.1-1c0.3-0.7,0.6-1.1,1.1-1.2L129.1,20.3z"/>
<path class="st5" d="M129.4,20.4c-0.1,0.2-0.2,0.4-0.3,0.7l-0.1,0.6c-0.1,0.5,0,0.8,0.4,1c0.1,0,0.2,0,0.4,0l0.1-0.1h0.1l0.1-0.1v0
	h0.1c-0.2,0.2-0.3,0.3-0.5,0.3l-0.1,0.1c-0.1,0-0.2,0-0.3,0c0,0-0.1,0-0.1,0c-0.6-0.2-0.7-0.8-0.3-1.8c0.1-0.2,0.2-0.4,0.3-0.6
	c0,0,0-0.1,0-0.1l-5,2.9c-0.5,0.1-0.8,0.5-1.1,1.2l-0.1,1c0,0.1,0,0.2,0,0.4c0,0.1,0.1,0.2,0.1,0.2c-0.1-0.1-0.1-0.1-0.1-0.1
	l0.2,6.8c0.1-0.1,0.1-0.3,0.1-0.4c0.3-0.9,0.8-1.2,1.3-1.2c0.1-0.1,0.1-0.1,0.2,0c-0.5,0.1-0.9,0.5-1.2,1.2
	c-0.2,0.7-0.2,1.2,0.3,1.4c0.2-0.1,0.3-0.2,0.5-0.3v0h0.1l0.3-0.3c0-0.1,0-0.3,0.1-0.5c0.1-0.3,0.2-0.6,0.2-0.8c0-0.2,0-0.3,0-0.5
	l0.1,0.1v0l0.1,0.1h0v0.5c0.1,0.2,0.1,0.5,0,0.8l2.1-1.1l2.2,0.8l0.6,0.2c0.5,0.2,1,0.1,1.7-0.2c0.8-0.6,1.5-1.4,2.1-2.5
	c0.5-1,0.7-2.1,0.6-3.1c0-1-0.3-1.7-0.9-2.2c-0.2-0.2-0.5-0.3-0.8-0.3l-2.3-1h0l-0.2-1.4h0l-0.2,0.2v0l0.2-0.2l0.1-0.2l0,0v-0.1
	c0-0.1,0.1-0.2,0.1-0.2c0-0.2,0-0.4,0-0.6v0c0-0.2,0-0.3,0-0.5h0c-0.1-0.4-0.3-0.6-0.6-0.5c0,0-0.1,0-0.1,0
	C129.8,20,129.6,20.2,129.4,20.4 M125.1,24.5V24c0.1,0.1,0.1,0.3,0.1,0.4c0.1,0.2,0,0.5-0.2,1l-0.3,0.2c0,0,0,0.1-0.1,0.1
	c-0.1,0.1-0.2,0.1-0.3,0.2c0.2-0.1,0.3-0.3,0.4-0.5v-0.1l0.1-0.2L125.1,24.5 M124.3,23.8l-0.1,0L124,24l0,0.1h-0.1l-0.1,0.3
	c-0.2,0.6-0.3,1-0.1,1.4l0.1,0.1c-0.5-0.1-0.7-0.5-0.4-1.3c0.2-0.8,0.6-1.1,1.3-0.8C124.5,23.8,124.4,23.8,124.3,23.8z"/>
<path id="Layer0_6_MEMBER_1_MEMBER_0_1_STROKES" class="st6" d="M87.4,112.8c0,10.6,4.3,20.9,12.9,30.8c9.1,10.6,18.7,15,28.8,13.2
	c4.6-1,8.2-3.6,10.7-7.9c2.2-3.7,3.3-8.1,3.3-13.2c0-5.7-1.2-11.6-3.7-17.7c-2.4-5.8-5.7-10.9-9.7-15.4"/>
<path id="Layer0_6_MEMBER_1_MEMBER_1_1_STROKES" class="st6" d="M96.8,89.2c4.7-2.5,10.1-2.8,16.1-0.9c5.1,1.6,9.9,4.4,14.3,8.5
	c5.2,4.7,9.4,10.3,12.6,16.8c3.3,6.7,5.1,13.4,5.4,20.2"/>
<path id="Layer0_6_MEMBER_1_MEMBER_2_1_STROKES" class="st6" d="M145.2,133.8c0.2,13.1-4.3,20.9-13.5,23.5c-4,1.2-8.5,1-13.3-0.5
	c-4.9-1.6-9.5-4.4-13.9-8.4c-3.7-3.1-7.1-7.2-10.2-12.5c-3.2-5.4-5.4-10.9-6.7-16.7c-3.2-13.8-0.3-23.7,8.5-29.7"/>
<path id="Layer0_6_MEMBER_1_MEMBER_3_1_STROKES" class="st6" d="M141.7,26.7c13-2.6,24.1-6.4,33.4-11.6"/>
<path id="Layer0_6_MEMBER_1_MEMBER_4_1_STROKES" class="st6" d="M175.3,14.9l1.7-1"/>
<path id="Layer0_6_MEMBER_1_MEMBER_5_1_STROKES" class="st6" d="M100.9,52.6l2.2,2.7l0.1,0.1l0.1,0.2l-0.3-0.3"/>
<path id="Layer0_6_MEMBER_1_MEMBER_6_1_STROKES" class="st6" d="M107.8,57.3h0.4"/>
<path id="Layer0_6_MEMBER_1_MEMBER_7_1_STROKES" class="st6" d="M142.7,130c-6-1.6-11.5-4.2-16.5-8.1c-5.1-3.9-9.1-8.5-11.9-13.9
	c-3-5.7-4.3-11.6-4-17.7"/>
<path id="Layer0_6_MEMBER_1_MEMBER_8_1_STROKES" class="st6" d="M130.7,20.3c0,0.5,0,0.9-0.2,1.3l-0.1,0.2l-0.1,0.2l-0.2,0.2l0,0
	c-0.1,0.3-0.3,0.4-0.4,0.4h-0.1 M130.1,22.2L130.1,22.2l-0.2,0.2h-0.1l-0.1,0.1"/>
<path id="Layer0_6_MEMBER_1_MEMBER_9_1_STROKES" class="st6" d="M129.5,22.6l0.2-0.5"/>
<path id="Layer0_6_MEMBER_1_MEMBER_10_1_STROKES" class="st6" d="M130.7,20.3c-0.1-0.4-0.3-0.6-0.7-0.5c-0.4,0.1-0.8,0.4-1.1,0.9
	c-0.2,0.6-0.3,1.1-0.1,1.5c0.2,0.4,0.5,0.5,0.9,0.4"/>
<path id="Layer0_6_MEMBER_1_MEMBER_11_1_STROKES" class="st6" d="M129,22.6c-0.5-0.2-0.6-0.8-0.3-1.7c0.3-0.9,0.7-1.3,1.3-1.1"/>
<path id="Layer0_6_MEMBER_1_MEMBER_12_1_STROKES" class="st6" d="M130.1,20c-0.5-0.1-0.9,0.3-1.1,1.1c-0.3,0.8-0.2,1.2,0.3,1.4"/>
<path id="Layer0_6_MEMBER_1_MEMBER_13_1_STROKES" class="st6" d="M157.2,14.6l11.5-6.9"/>
<path id="Layer0_6_MEMBER_1_MEMBER_14_1_STROKES" class="st6" d="M157.2,14.6l-0.4,0.3"/>
<path id="Layer0_6_MEMBER_1_MEMBER_15_1_STROKES" class="st6" d="M208.5,80.5L211,79"/>
<path id="Layer0_6_MEMBER_1_MEMBER_16_1_STROKES" class="st6" d="M135,22.3l4.9-1.1"/>
<path id="Layer0_6_MEMBER_1_MEMBER_17_1_STROKES" class="st6" d="M139.9,21.3c4-1.2,6.2-1.8,6.7-2"/>
<path id="Layer0_6_MEMBER_1_MEMBER_18_1_STROKES" class="st6" d="M146.6,19.3l3.8-1.4"/>
<path id="Layer0_6_MEMBER_1_MEMBER_19_1_STROKES" class="st6" d="M150.4,17.9l2.5-1"/>
<path id="Layer0_6_MEMBER_1_MEMBER_20_1_STROKES" class="st6" d="M152.9,16.9l0.3-0.2l1.9-0.9"/>
<path id="Layer0_6_MEMBER_1_MEMBER_21_1_STROKES" class="st6" d="M155.1,15.7l0.3-0.1l0.9-0.5"/>
<path id="Layer0_6_MEMBER_1_MEMBER_22_1_STROKES" class="st6" d="M81.7,33l11.2-2.3"/>
<path id="Layer0_6_MEMBER_1_MEMBER_23_1_STROKES" class="st6" d="M130.6,23.2l4.4-0.9"/>
<path id="Layer0_6_MEMBER_1_MEMBER_24_1_STROKES" class="st6" d="M198.7,83.9l-0.1,0.4"/>
<path id="Layer0_6_MEMBER_1_MEMBER_25_1_STROKES" class="st6" d="M43.2,47.2C54.3,40.6,67.1,35.9,81.7,33"/>
<path id="Layer0_6_MEMBER_1_MEMBER_26_1_STROKES" class="st6" d="M85.3,118.5c-3.8,2.2-7.7,3.4-11.9,3.7"/>
<path id="Layer0_6_MEMBER_1_MEMBER_27_1_STROKES" class="st6" d="M116.5,8.4l-1-0.3"/>
<path id="Layer0_6_MEMBER_1_MEMBER_28_1_STROKES" class="st6" d="M115.5,8.1c-0.9-0.1-1.7,0.1-2.4,0.5"/>
<path id="Layer0_6_MEMBER_1_MEMBER_29_1_STROKES" class="st6" d="M116.5,8.4l-1-0.3"/>
<path id="Layer0_6_MEMBER_1_MEMBER_30_1_STROKES" class="st6" d="M115.5,8.1c-0.9-0.1-1.7,0.1-2.4,0.5"/>
<path id="Layer0_6_MEMBER_1_MEMBER_31_1_STROKES" class="st6" d="M133.1,43.8v-0.6"/>
<path id="Layer0_6_MEMBER_1_MEMBER_32_1_STROKES" class="st6" d="M132.9,43.2l-0.1-1.7"/>
<path id="Layer0_6_MEMBER_1_MEMBER_33_1_STROKES" class="st6" d="M89.6,45.9l-0.1-0.5"/>
<path id="Layer0_6_MEMBER_1_MEMBER_34_1_STROKES" class="st6" d="M85.3,118.5l1.3-0.7"/>
<path id="Layer0_6_MEMBER_1_MEMBER_35_1_STROKES" class="st6" d="M87.2,117.5l-0.5,0.3"/>
<path id="Layer0_6_MEMBER_1_MEMBER_36_1_STROKES" class="st6" d="M128.9,44v-0.7"/>
<path id="Layer0_6_MEMBER_1_MEMBER_37_1_STROKES" class="st6" d="M89.4,45.3l-0.1-1.5"/>
<path id="Layer0_6_MEMBER_1_MEMBER_38_1_STROKES" class="st6" d="M134.8,45.1l0.3,6.5"/>
<path id="Layer0_6_MEMBER_1_MEMBER_39_1_STROKES" class="st6" d="M129.1,43.3l-0.1-1.7"/>
<path id="Layer0_6_MEMBER_1_MEMBER_40_1_STROKES" class="st6" d="M129.7,41l-0.3,0.2"/>
<path id="Layer0_6_MEMBER_1_MEMBER_41_1_STROKES" class="st6" d="M85.4,46.1l-0.1-0.6"/>
<path id="Layer0_6_MEMBER_1_MEMBER_42_1_STROKES" class="st6" d="M84.6,46.2l0.1,1.3"/>
<path id="Layer0_6_MEMBER_1_MEMBER_43_1_STROKES" class="st6" d="M85.6,45.4l-0.1-1.7"/>
<path id="Layer0_6_MEMBER_1_MEMBER_44_1_STROKES" class="st6" d="M86.2,43l-0.3,0.2"/>
<path id="Layer0_6_MEMBER_1_MEMBER_45_1_STROKES" class="st6" d="M102.9,53.3l0.1,1.3"/>
<path id="Layer0_6_MEMBER_1_MEMBER_46_1_STROKES" class="st6" d="M84.4,62.6l-0.5-15.1"/>
<path id="Layer0_6_MEMBER_1_MEMBER_47_1_STROKES" class="st6" d="M92,66.9L91.4,49"/>
<path id="Layer0_6_MEMBER_1_MEMBER_48_1_STROKES" class="st6" d="M63.5,128l11.5-6.8"/>
<path id="Layer0_6_MEMBER_1_MEMBER_49_1_STROKES" class="st6" d="M126.8,12.3l-10.3-3.9"/>
<path id="Layer0_6_MEMBER_1_MEMBER_50_1_STROKES" class="st6" d="M126.8,12.3l-10.3-3.9"/>
<path id="Layer0_6_MEMBER_1_MEMBER_51_1_STROKES" class="st6" d="M129.8,40l-0.3-7.4"/>
<path id="Layer0_6_MEMBER_1_MEMBER_52_1_STROKES" class="st6" d="M129.1,19.5l-0.1-4.3"/>
<path id="Layer0_6_MEMBER_1_MEMBER_53_1_STROKES" class="st6" d="M129.8,40l-0.3-7.4"/>
<path id="Layer0_6_MEMBER_1_MEMBER_54_1_STROKES" class="st6" d="M129.1,19.5l-0.1-4.3"/>
<path id="Layer0_6_MEMBER_1_MEMBER_55_1_STROKES" class="st6" d="M128.9,15.1c-0.1-1.4-0.8-2.3-2.1-2.8"/>
<path id="Layer0_6_MEMBER_1_MEMBER_56_1_STROKES" class="st6" d="M128.9,15.1c-0.1-1.4-0.8-2.3-2.1-2.8"/>
<path id="Layer0_6_MEMBER_1_MEMBER_57_1_STROKES" class="st6" d="M34.1,56l0.3-0.5l1.4-1.9c0.2-0.3,0.9-1.1,2.1-2.4
	c1.6-1.6,3.4-2.9,5.3-4.1"/>
<path id="Layer0_6_MEMBER_1_MEMBER_58_1_STROKES" class="st6" d="M116.6,43.8c0.1,0.4,0,0.8-0.1,1.1"/>
<path id="Layer0_6_MEMBER_1_MEMBER_59_1_STROKES" class="st6" d="M116.6,43.8c0.1,0.4,0,0.8-0.1,1.1"/>
<path id="Layer0_6_MEMBER_1_MEMBER_60_1_STROKES" class="st6" d="M126.8,18.6l3,1.1"/>
<path id="Layer0_6_MEMBER_1_MEMBER_61_1_STROKES" class="st6" d="M126.8,18.6l3,1.1"/>
<path id="Layer0_6_MEMBER_1_MEMBER_62_1_STROKES" class="st6" d="M126.8,18.6l3,1.1"/>
<path id="Layer0_6_MEMBER_1_MEMBER_63_1_STROKES" class="st6" d="M130.7,21.8c0.1-0.3,0.2-0.6,0.2-1"/>
<path id="Layer0_6_MEMBER_1_MEMBER_64_1_STROKES" class="st6" d="M130.7,21.8c0.1-0.3,0.2-0.6,0.2-1"/>
<path id="Layer0_6_MEMBER_1_MEMBER_65_1_STROKES" class="st6" d="M130.7,21.8c0.1-0.3,0.2-0.6,0.2-1"/>
<path id="Layer0_6_MEMBER_1_MEMBER_66_1_STROKES" class="st6" d="M36,54.8l-0.4,0.3"/>
<path id="Layer0_6_MEMBER_1_MEMBER_67_1_STROKES" class="st6" d="M99.6,46.8L99.3,47"/>
<path id="Layer0_6_MEMBER_1_MEMBER_68_1_STROKES" class="st6" d="M99.6,46.8L99.3,47"/>
<path id="Layer0_6_MEMBER_1_MEMBER_69_1_STROKES" class="st6" d="M125.2,33c0.1-0.3,0.2-0.6,0.2-0.9"/>
<path id="Layer0_6_MEMBER_1_MEMBER_70_1_STROKES" class="st6" d="M125.2,33c0.1-0.3,0.2-0.6,0.2-0.9"/>
<path id="Layer0_6_MEMBER_1_MEMBER_71_1_STROKES" class="st6" d="M125.2,33c0.1-0.3,0.2-0.6,0.2-0.9"/>
<path id="Layer0_6_MEMBER_1_MEMBER_72_1_STROKES" class="st6" d="M120.3,32.5l3,1.1"/>
<path id="Layer0_6_MEMBER_1_MEMBER_73_1_STROKES" class="st6" d="M120.3,32.5l3,1.1"/>
<path id="Layer0_6_MEMBER_1_MEMBER_74_1_STROKES" class="st6" d="M123.3,33.6l-3-1.1"/>
<path id="Layer0_6_MEMBER_1_MEMBER_75_1_STROKES" class="st6" d="M124.9,25.3c0.2-0.4,0.2-0.8,0.2-1"/>
<path id="Layer0_6_MEMBER_1_MEMBER_76_1_STROKES" class="st6" d="M124.9,25.3c0.2-0.4,0.2-0.8,0.2-1"/>
<path id="Layer0_6_MEMBER_1_MEMBER_77_1_STROKES" class="st6" d="M124.9,25.3c0.2-0.4,0.2-0.8,0.2-1"/>
<path id="Layer0_6_MEMBER_1_MEMBER_78_1_STROKES" class="st6" d="M124.6,25.7l0.1-0.1l0.2-0.3"/>
<path id="Layer0_6_MEMBER_1_MEMBER_79_1_STROKES" class="st6" d="M124.6,25.7l0.1-0.1l0.2-0.3"/>
<path id="Layer0_6_MEMBER_1_MEMBER_80_1_STROKES" class="st6" d="M124.6,25.7l0.1-0.1l0.2-0.3"/>
<path id="Layer0_6_MEMBER_1_MEMBER_81_1_STROKES" class="st6" d="M113.1,8.6L94.2,19.8"/>
<path id="Layer0_6_MEMBER_1_MEMBER_82_1_STROKES" class="st6" d="M113.1,8.6L94.2,19.8"/>
<path id="Layer0_6_MEMBER_1_MEMBER_83_1_STROKES" class="st6" d="M125.3,31l4.8,1.8"/>
<path id="Layer0_6_MEMBER_1_MEMBER_84_1_STROKES" class="st6" d="M125.3,31l4.8,1.8"/>
<path id="Layer0_6_MEMBER_1_MEMBER_85_1_STROKES" class="st6" d="M125.3,31l4.8,1.8"/>
<path id="Layer0_6_MEMBER_1_MEMBER_86_1_STROKES" class="st6" d="M92.6,22.7l0.9,24.8"/>
<path id="Layer0_6_MEMBER_1_MEMBER_87_1_STROKES" class="st6" d="M92.6,22.7l0.9,24.8"/>
<path id="Layer0_6_MEMBER_1_MEMBER_88_1_STROKES" class="st6" d="M113.9,55.2v-0.5"/>
<path id="Layer0_6_MEMBER_1_MEMBER_89_1_STROKES" class="st6" d="M128.3,22.6l4.6,1.8"/>
<path id="Layer0_6_MEMBER_1_MEMBER_90_1_STROKES" class="st6" d="M128.3,22.6l4.6,1.8"/>
<path id="Layer0_6_MEMBER_1_MEMBER_91_1_STROKES" class="st6" d="M128.3,22.6l4.6,1.8"/>
<path id="Layer0_6_MEMBER_1_MEMBER_92_1_STROKES" class="st6" d="M94.2,19.8c-1.1,0.7-1.7,1.6-1.7,2.9"/>
<path id="Layer0_6_MEMBER_1_MEMBER_93_1_STROKES" class="st6" d="M94.2,19.8c-1.1,0.7-1.7,1.6-1.7,2.9"/>
<path id="Layer0_6_MEMBER_1_MEMBER_94_1_STROKES" class="st6" d="M113.6,53l0.1,1.7"/>
<path id="Layer0_6_MEMBER_1_MEMBER_95_1_STROKES" class="st6" d="M113.3,52.5l-0.3-0.2"/>
<path id="Layer0_6_MEMBER_1_MEMBER_96_1_STROKES" class="st6" d="M109.8,55.4l-0.1-0.6"/>
<path id="Layer0_6_MEMBER_1_MEMBER_97_1_STROKES" class="st6" d="M110,54.7l-0.1-1.6"/>
<path id="Layer0_6_MEMBER_1_MEMBER_98_1_STROKES" class="st6" d="M114.8,55.3l0.1,1.2"/>
<path id="Layer0_6_MEMBER_1_MEMBER_99_1_STROKES" class="st6" d="M110.5,52.4l-0.3,0.2"/>
<path id="Layer0_6_MEMBER_1_MEMBER_100_1_STROKES" class="st6" d="M109,79.9l-0.8-23.1"/>
<path id="Layer0_6_MEMBER_1_MEMBER_101_1_STROKES" class="st6" d="M116.3,74.1l-0.6-17.4"/>
<path id="Layer0_6_MEMBER_1_MEMBER_102_1_STROKES" class="st6" d="M35.6,55.1L24.2,62"/>
<path id="Layer0_6_MEMBER_1_MEMBER_103_1_STROKES" class="st6" d="M198.9,83.7l-10.2,27.1"/>
<path id="Layer0_6_MEMBER_1_MEMBER_104_1_STROKES" class="st6" d="M145.5,149.7c4-0.3,8-1.5,12-3.7"/>
<path id="Layer0_6_MEMBER_1_MEMBER_105_1_STROKES" class="st6" d="M135.6,155.6l11.5-6.9"/>
<path id="Layer0_6_MEMBER_1_MEMBER_106_1_STROKES" class="st6" d="M188.3,111.6c-2.7,7.1-6.8,13.7-12.3,19.6
	c-5.1,5.6-11.1,10.4-18.2,14.6"/>
<path id="Layer0_6_MEMBER_1_MEMBER_107_1_STROKES" class="st6" d="M116.1,74.2c-2.3,1.3-4.2,2.8-5.9,4.4c-0.8,0.8-1.5,1.6-2.2,2.4
	l-0.2,0.3l-0.4,0.4l-0.2,0.3l-1.1,1.6"/>
<path id="Layer0_6_MEMBER_1_MEMBER_108_1_STROKES" class="st6" d="M107.7,82.7l0.4-0.3"/>
<path id="Layer0_6_MEMBER_1_MEMBER_109_1_STROKES" class="st6" d="M96.2,89.5l11.5-6.9"/>
<path id="Layer0_6_MEMBER_1_MEMBER_110_1_STROKES" class="st7" d="M168.7,7.7c7.5-4.2,16-3.5,25.4,2.1c8,4.7,14.3,11.1,18.9,19.2
	c5.2,8,7.9,16.7,8.4,26.2c0.5,11.1-3,19.1-10.4,23.8 M197.5,87.2l0.6,16.5l11.1-6.6L208,66l-0.9,1.8l0.9,26.9l-0.1,0.1
	c-0.1,0.4-0.3,0.6-0.5,0.9l-0.1,0.1l-7.8,4.7h-0.1l-0.1,0.1h-0.1l-0.1-0.1l-0.2-0.2v-0.1l-0.1-0.1l-0.1-3.1l0-1.1l-0.3-9.4l-0.1-1.5
	 M207.2,67.8c-0.2,3.8-1,7.2-2.3,10.3c-1.5,3.5-3.6,6.2-6.4,8.3 M177,13.9l-3,1.7 M120.3,32.5c-0.2,0-0.3-0.3-0.4-0.7l-0.3-8.1
	l0.1-0.1v-0.2l0.1-0.4l0.1-0.1l0.1-0.2l0.1-0.1l0.5-0.5l5.7-3.4l0.2-0.1l0.1-0.1h0.3 M124.2,33.8l0.1-0.1l0.4-0.3L125,33l0-0.1
	l0-0.1l0.2-0.7v-0.5v-0.1l-0.1,0l-0.1,0l-0.1,0.3c0,0.2-0.1,0.5-0.2,0.8c0,0,0,0.1,0,0.1c-0.1,0.1-0.1,0.2-0.2,0.3l-0.2,0.3
	c0,0,0,0-0.1,0.1l-0.2,0.4c-0.2,0.2-0.4,0.2-0.6,0c-0.4-0.2-0.5-0.6-0.4-1.2l-0.2-6.8c-0.1-0.1-0.1-0.3-0.1-0.5l0.2-1
	c0.3-0.7,0.6-1.1,1.1-1.2l5.1-3c0.3-0.4,0.6-0.5,0.9-0.3c0,0,0.1,0,0.1,0c0.3,0,0.5,0.2,0.5,0.6h0.1l0.1,0.1v0.1l0.1,0.1
	 M124.4,23.6c0,0-0.1,0-0.2,0l-0.1,0.1l-0.2,0.2l-0.1,0.1h-0.1l-0.1,0.3c-0.2,0.6-0.3,1-0.1,1.4l0.1,0.1c-0.5,0-0.7-0.5-0.4-1.3
	C123.4,23.7,123.8,23.4,124.4,23.6z M124.4,23.6c0.1,0,0.2,0,0.2,0l-0.1-0.1 M123.8,26.1c-0.4,0.2-0.7,0-0.8-0.5
	c-0.1-0.5-0.1-0.9,0.1-1.3c0.3-0.6,0.6-1,1-1.1c0.2,0,0.3,0,0.5,0.1c0.2,0.1,0.3,0.2,0.3,0.4l0.1,0.1v0.1c0.1,0.2,0.1,0.3,0.1,0.4
	c1-1.3,2.1-1.9,3.1-1.6 M124.9,23.7l-0.1-0.1h-0.1 M122.9,25.8L122.9,25.8c-0.1-0.2-0.1-0.3-0.1-0.5 M122.9,25.7
	c0,0.1,0.1,0.1,0.2,0.2c0,0,0.1,0.1,0.1,0.1l0,0c-0.1,0-0.1-0.1-0.2-0.1C123,25.9,122.9,25.8,122.9,25.7 M123.9,26.1L123.9,26.1
	l0.4-0.2c0.2-0.1,0.3-0.3,0.4-0.5l0-0.1l0.1-0.2l0.2-0.7v-0.5 M125,24.4c0-0.1,0.1-0.1,0.1-0.2 M124.6,25.3c0,0.1-0.1,0.2-0.1,0.2
	c0.1-0.2,0.2-0.3,0.3-0.5 M124.5,25.6c-0.1,0.1-0.2,0.2-0.3,0.3 M123.9,26.1h0.3l0.2-0.1l-0.4,1.6c0,0.8,0,1.3,0.1,1.5
	c0.1,0.9,0.4,1.5,0.8,1.9c0.1,0,0.1,0.1,0.2,0.2c0.1,0.1,0.1,0.2,0.2,0.4 M124,25.5l-0.2,0.5 M130,22.4L130,22.4 M130,22.4l-0.1,0.1
	 M130.7,20.3c0,0.5,0,1-0.3,1.5l-0.1,0.2l-0.4,0.4 M129.3,22.5c-0.5-0.2-0.6-0.6-0.3-1.4c0.2-0.7,0.6-1.1,1-1.3
	c-0.4,0.1-0.8,0.4-1.1,0.9c-0.2,0.6-0.3,1.1-0.1,1.5c0.2,0.3,0.4,0.5,0.7,0.4l0.1-0.1l0.1-0.1h0l-0.2,0.1 M129.5,22.7
	c0,0,0.1,0,0.1,0 M130.6,23.5l-0.1-1.4 M129.1,20.1c-0.1,0.2-0.3,0.4-0.4,0.7c-0.4,0.9-0.3,1.5,0.3,1.7 M131.5,24.7
	c-0.9,0.5-1.6,1.4-2.1,2.5c-0.5,1.1-0.8,2.1-0.7,3.1c0,1,0.3,1.7,0.9,2.1c0.6,0.5,1.3,0.6,2.2,0.1c0.8-0.5,1.5-1.4,2.1-2.5
	c0.5-1.1,0.7-2.1,0.7-3.1c0-1-0.3-1.7-0.9-2.2C133,24.2,132.3,24.2,131.5,24.7z M124.1,33.8l0.2-0.4c-0.1,0.1-0.3,0.2-0.4,0.3
	c-0.4-0.2-0.5-0.6-0.3-1.4c0.3-0.8,0.7-1.2,1.2-1.3c-0.1,0-0.1,0-0.2,0c-0.1,0-0.2,0.1-0.3,0.1c-0.4,0.2-0.7,0.6-0.9,1
	c-0.2,0.7-0.2,1.2-0.1,1.5c0,0.1,0.1,0.1,0.1,0.2 M125.4,31.8L125.4,31.8l-0.1-0.2h-0.1 M125.1,31.5L125.1,31.5l-0.1-0.2
	c0,0.1,0,0.3,0,0.5 M124.8,31c0,0-0.1,0-0.1,0 M124.5,30.9c-0.6-0.1-1,0.3-1.3,1.2c-0.1,0.1-0.1,0.3-0.1,0.4 M124.3,33.3L124.3,33.3
	L124.3,33.3 M124.3,33.3C124.3,33.3,124.3,33.3,124.3,33.3 M124.8,32.6c-0.1,0.2-0.1,0.3-0.2,0.4 M131.1,40.8l0.8,0.3l-0.2,0.5
	l-1,0.2l-0.6-0.3l-0.2-0.1l0.2-0.5L131.1,40.8z M131.1,40.8l0.4-0.7l0.2-0.1l0.5-0.3l-2.5-1 M132.3,39.8l0.1,1.2
	c0.3,0.2,0.5,0.4,0.5,0.6v0.1l-0.1,0.1l-0.1,0.1l-0.1,0.1c-0.4,0.4-1,0.5-1.8,0.5c-0.6,0-1.1-0.1-1.5-0.4l-0.3-0.4
	c0-0.3,0.2-0.4,0.3-0.5 M130.1,41v0.6 M85.5,45l-0.2,0.1l-0.2,0.1l-0.3,0.3l-0.1,0.1l-0.1,0.1c-0.1,0.2-0.1,0.3,0,0.5
	c0.1,0.2,0.2,0.3,0.4,0.5c0.6,0.4,1.4,0.6,2.5,0.6c1.5,0,2.4,0,2.6,0c2.3,0.4,5.4,1.4,9.3,3c2.1,0.8,4.7,1.9,7.7,3.2
	c0.8,0.3,1.4,0.8,1.7,1.3c0.1,0.2,0.2,0.5,0.2,0.7c0.1,0.2,0.3,0.4,0.5,0.5c0.6,0.4,1.3,0.5,1.9,0.5c0.7,0,1.4,0,2.1-0.3
	c0.9-0.3,1.4-0.8,1.3-1.3v-0.3l-0.1-0.2l0.1-0.1c0.1-0.4,0.2-0.6,0.4-0.9c2.7-2.5,6.9-5,12.6-7.6c0.7-0.3,1.6-0.5,2.8-0.7
	c1.2-0.1,2-0.3,2.5-0.5c0.5-0.3,0.8-0.6,0.8-0.9c0-0.1,0-0.2,0-0.3c0-0.4-0.4-0.7-1.1-0.9 M127.3,31.7l-2.3,1.2 M114.9,56.5
	c0,0.6-0.6,1.1-1.6,1.4c-0.9,0.2-1.7,0.3-2.3,0.1c-1.1-0.2-1.7-0.5-1.9-0.9c-0.2-0.5-0.4-0.9-0.5-1.1c-0.5,0.4-0.6,0.9-0.1,1.4
	c0.6,0.6,1.4,0.9,2.6,1c0.8,0.1,1.7,0.1,2.6-0.2c1.1-0.3,1.8-0.8,2-1.5c0-0.2,0-0.5-0.2-0.8c-0.1-0.2-0.1-0.5,0.2-0.7l0.1-0.1
	l0.1-0.1l12.7-7.5l0.1-0.1l0.1-0.1l0.2-0.1h0.2c0.2-0.1,0.8-0.1,1.6-0.1c1.7,0,2.9-0.4,3.7-1.1c0.7-0.7,0.5-1.3-0.5-1.9 M116.3,73.9
	l4.4-5.1c0.4-0.5,0.8-0.9,1.3-1.3l-0.5-9.3c3.2-1.2,5.4-2.5,6.7-3.8c0.6-0.7,1.9-1,3.9-1c0.6,0,1.2-0.2,1.9-0.5
	c0.8-0.4,1.2-0.8,1.2-1.3 M133.1,43.8c0,0.7-0.7,1-2,1.1c-1.3,0-2.1-0.3-2.2-0.9 M116.3,43.3L116.3,43.3l0.1,0.1h0.1v0.1l0.1,0.2
	v0.4l-0.2,0.7l-0.1,0.1l-0.3,0.4l-0.1,0.1l-0.1,0.1l-0.3,0.2h-0.1l-0.1-0.1l-0.1-0.1c0,0-0.1,0-0.1-0.1c-0.4,0.1-0.6,0-0.6-0.5
	c0-0.4,0-0.7,0.1-1c0.3-0.8,0.7-1.2,1.3-1.1c-0.4,0.1-0.7,0.6-1,1.3c-0.2,0.7-0.2,1.1,0.2,1.3 M98.9,44.2c0.1,0.1,0.3,0.2,0.4,0.4
	C99.2,44.4,99.1,44.3,98.9,44.2L98.9,44.2z M98.9,44.2c-0.2-0.1-0.3-0.1-0.4-0.1C98.6,44.2,98.8,44.2,98.9,44.2
	c-0.4-0.2-0.7-0.1-1,0.2c-0.1,0.1-0.1,0.2-0.2,0.4c0-0.1,0.1-0.1,0.1-0.1l0.1-0.1l0.1-0.1h0.2c0.5-0.3,0.9-0.1,1.3,0.6
	c0.4,0.7,0.4,1.2-0.1,1.5h-0.1v0.1h-0.1l-0.1,0.1C99.3,47,99.2,47,99.1,47c0.8,0.1,1.2-0.2,1.1-0.8v0.1l-0.2,0.4 M98.9,44.2
	C98.9,44.2,99,44.2,98.9,44.2c0.2,0.1,0.3,0.2,0.4,0.2c0.3,0.2,0.5,0.5,0.7,0.7c0.1,0.4,0.2,0.7,0.2,1.1v0 M98.3,44.6L98.3,44.6
	c0.4,0,0.6,0.1,0.8,0.4h0.1l0.1,0.1l0.1,0.1l0.1,0.2l-0.1,0.1v0.1h0.1c0.1,0.5,0.1,0.8,0,1 M99.3,44.6l0.4,0.6
	c0.3,0.4,0.4,0.8,0.5,1.1 M97.9,46l0.5-0.3 M97.6,45.5v-0.2c0.1-0.2,0.2-0.3,0.2-0.4 M99.1,47c-0.1,0-0.3,0-0.5-0.1l-0.1-0.1
	l-0.1-0.1h-0.1 M84.6,47.5c0.2,0.9,1.6,1.3,4,1.2c0.4,0,0.7,0,1,0c0.8,0,1.5,0.1,2.1,0.3c1.1,0.4,3.2,1.1,6.2,2.1
	c0.6,0.2,1.3,0.4,2.1,0.6c3.8,1.3,6.6,2.7,8.4,4c0,0,0.1,0.1,0.1,0.2 M92,63l2.1-2.2c1.3-1.3,2.4-2.6,3.3-3.8l0.5-0.5l0.1-0.1
	l-0.1-5.2 M115.7,45.5l-0.4,0.2 M110.1,52.6L110.1,52.6l-0.1,0.1H110v0.1l-0.1,0.1v0.3c0,0.1,0.2,0.2,0.3,0.3c0.5,0.3,1,0.4,1.5,0.3
	c0.5,0,1-0.1,1.4-0.3c0.5-0.3,0.6-0.7,0.1-1.1 M112,53.2l-0.1-0.9 M112,53.2l0.6-0.1l0.1-0.5l-0.8-0.3l-1,0.1L111,53l0.6,0.2
	L112,53.2z M110.9,52.4l-0.2,0.5L111,53 M109.8,55.4c0.1,0.7,0.8,1,2.1,0.9c1.3-0.1,2-0.5,2-1.1 M129.6,102.6
	c-3.9-4.5-8.3-7.9-13.3-10.2c-1.4-0.6-2.7-1.2-4.1-1.6l0.5,14 M112.3,90.9c-0.3-0.1-0.6-0.2-0.9-0.3l0.4,11.5 M111.4,90.6
	c-3.1-0.8-6-1-8.9-0.6c-4.6,0.6-8.2,2.8-10.9,6.4c-2.9,4-4.4,9.5-4.3,16.5 M148.5,60.1c-8.3-0.6-15.8,1-22.5,4.7
	c-1.5,0.7-2.9,1.7-4.1,2.8 M104.1,84.8c-1-9.8-3.1-19.3-6.1-28.5 M198.8,95.9c0.4-0.1,0.7-0.1,1.1,0.1c0.2,0.1,0.4,0.2,0.4,0.5
	c0,0.1-0.2,0.3-0.5,0.5h-0.1l-0.2,0.1h-0.6 M192.2,101.4l5.9,2.3 M188.7,110.8l-0.3,0.8 M157.9,145.8l-0.4,0.3 M133.1,106.8l0.2,5.9
	c1.1,0.3,2.3,0.2,3.5-0.1 M133.3,112.7l-10.6,6.3 M15.2,85.1c0,4.3,0.8,8.6,2.2,12.7c0.9,2.5,1.9,4.9,3.2,7.3
	c0.4,0.8,0.8,1.5,1.2,2.3c1.8,2.9,3.9,5.8,6.3,8.6c9.1,10.6,18.8,15,29,13.2c4.7-1,8.2-3.6,10.7-7.9c2.2-3.7,3.3-8.1,3.3-13.2
	c0-5.8-1.2-11.7-3.7-17.9c-2.4-5.8-5.7-10.9-9.8-15.5c-3.9-4.5-8.3-7.9-13.3-10.2c-4.9-2.3-9.5-3.1-13.9-2.5
	c-4.6,0.6-8.3,2.8-10.9,6.5C16.6,72.7,15.1,78.2,15.2,85.1z M25.9,61c4.8-2.1,10.1-2.1,16.1,0.1c5,1.8,9.6,4.7,13.9,8.8
	c4.9,4.6,8.9,10.1,12.1,16.6c3.2,6.6,5,13.2,5.2,19.7c0.2,13.3-4.4,21.2-13.9,23.7c-4.2,1.1-8.7,0.8-13.5-0.9
	c-4.9-1.7-9.5-4.7-13.9-8.8c-3.9-3.7-7.3-8-10-12.7c-1.9-3.2-3.4-6.4-4.5-9.6c-1.2-3.5-2.1-7-2.5-10.5C14.1,81.9,14.5,77,16,72.5
	c1.8-5.2,4.9-9,9.3-11.2 M88.9,43.2c0,0.2-0.1,0.4-0.3,0.6c-0.6,0.4-1.3,0.4-2.1,0.1c-0.3-0.1-0.5-0.2-0.5-0.5
	c0-0.2,0.1-0.4,0.3-0.5c0.7-0.4,1.4-0.4,2.1-0.1C88.6,42.9,88.8,43,88.9,43.2c0.2,0.1,0.4,0.3,0.4,0.4v0.1v0.1l-0.1,0.1v0.1L89.2,44
	l-0.1,0.1c-0.4,0.3-1,0.4-1.8,0.5c-0.6,0-1.1-0.2-1.5-0.5c-0.1-0.1-0.2-0.2-0.3-0.4l0.1-0.1v-0.1l0.1-0.1 M93.3,42.4
	c-0.3,0.2-0.6,0.4-0.9,0.5c-1.3,0.7-2.3,1.2-3.1,1.4 M92.4,42.9c-1.2-2.1-2.3-3.9-3.4-5.4 M89.6,45.9c0,0.7-0.7,1.1-2,1.1
	c-1.3,0-2.1-0.3-2.2-0.9 M89.7,48.7c-1.6,0.5-3.2,0.5-4.7,0c-0.6-0.3-1-0.6-1.1-1.1c-0.1-0.5,0.1-0.9,0.7-1.3 M92,66.9
	c0,1.6-0.5,2.6-1.3,2.8c-0.8,0.2-1.8-0.3-3-1.3h-0.1L87,67.7l-0.2-0.3c-0.3-0.3-0.6-0.7-0.9-1.2c-0.6-0.8-1-1.6-1.3-2.5l-0.2-1.1
	 M88.3,99.7l-4-1.5l0.1,3.2l3.1,1.2 M84.3,98.2c1.6-1,3.5-1.8,5.8-2.4 M123.8,26.1C123.8,26.1,123.8,26.1,123.8,26.1 M124.2,33.3
	L124.2,33.3 M98.9,44.2L98.9,44.2 M129.9,22.5L129.9,22.5 M88.9,43.2C88.9,43.2,88.9,43.2,88.9,43.2"/>
<path id="Layer0_7_MEMBER_1_1_STROKES" class="st8" d="M238.1,52.6V24.9h84v27.8H238.1z"/>
<text transform="matrix(1 0 0 1 254.2958 44.1089)" class="st9 st10">2100-P9</text>
</svg>
