<?xml version="1.0" encoding="utf-8"?>
<!-- Generator: Adobe Illustrator 24.1.2, SVG Export Plug-In . SVG Version: 6.00 Build 0)  -->
<svg version="1.1" id="Ebene_1" xmlns="http://www.w3.org/2000/svg" xmlns:xlink="http://www.w3.org/1999/xlink" x="0px" y="0px"
	 viewBox="0 0 349.1 161" style="enable-background:new 0 0 349.1 161;" xml:space="preserve">
<style type="text/css">
	.st0{fill:#008F3A;}
	.st1{fill:#B1B3B4;}
	.st2{fill:#3EA865;}
	.st3{fill:#E00025;}
	.st4{fill:none;stroke:#1A181B;stroke-width:0.5;stroke-miterlimit:5;}
	.st5{fill:none;stroke:#1A181B;stroke-width:0.3;stroke-miterlimit:5;}
	.st6{fill:none;stroke:#1A181B;stroke-width:0.4;stroke-miterlimit:5;}
	.st7{fill:none;stroke:#1A181B;stroke-width:0.25;stroke-miterlimit:5;}
	.st8{fill:#0099FF;}
	.st9{fill:#009FDE;}
	.st10{fill:none;stroke:#1A181B;stroke-width:0.55;stroke-miterlimit:5;}
	.st11{fill:none;stroke:#FF9900;stroke-linecap:round;stroke-linejoin:round;}
	.st12{font-family:'ArialMT';}
	.st13{font-size:12px;}
	.st14{font-size:14px;}
</style>
<path class="st0" d="M163.9,104.9l-2.4-1.5l-2-2l-1.6-2.9L153,87.7l-5.2,3l3.5,8l3.4,6.1l1,1.2l2.1,2.1l2.7,1.7l34.4,16.4l0.9-0.5
	l0.4-0.7l-0.3-1.2l0.6-0.6l0.5-0.9l-0.1-1.1l-0.7-0.7L163.9,104.9z"/>
<path class="st1" d="M115.1,8.8l-2-0.3l-2,0.9L91.2,37.7l-0.7,1.4L76.1,92.7l35.1,19l81-46.7V49.5l-0.3-1.4l-0.7-1.2l-0.8-0.8
	L115.1,8.8z"/>
<path class="st2" d="M131.8,60.3l-14.3-2.1v3l-0.9,3.4l15.1,1.7l3.4,0.7l2,1l2.2,2.1l0.8,1.3l7.6,18.3l5.2-3l-7.6-18.1l-1-1.6
	l-1.5-1.7l-3.5-2.8l-2.6-1.1L131.8,60.3z"/>
<path class="st3" d="M62.1,36.1l-0.1-0.6l-0.3-0.3l0-0.9c0-0.1,0-0.2-0.1-0.3c-0.2-0.3-0.7-0.5-1.4-0.7c-0.7-0.2-1.3-0.2-1.9,0
	l-0.6,0.3l-0.1,0.8L57,35l-1.8,10.4l0.5,0.5l1,0.7l1.5,0.2h1.2l1.1-0.6L62.1,36.1z"/>
<path class="st1" d="M53.8,30.6l-0.2-1.2l-0.4-0.6l-0.9-0.9l-15-8.5L36,19.5l-0.8,0.3L24.9,35l-6.9,25.3l-0.1,1.4l0.3,7.7l0.3,0.8
	l0.4,0.6l21,12.3l1.3,0.1l1-0.3l1-0.9l5.1-9.6l6.1-21.4L53.8,30.6z"/>
<path class="st0" d="M108.4,57.3c-0.8,0.3-1.2,1.1-1.2,2.6c-0.1,1.4,0.2,2.4,0.9,3c0.3,0.3,0.7,0.4,1,0.4l7.4,1.3l0.9-3.4v-3
	l-7.9-0.9C109.2,57.2,108.8,57.2,108.4,57.3z"/>
<path class="st0" d="M54.2,51.6l-2.1,7.9l0.8-0.6l0.9-0.1l0.6,0.1l0.7,0.7l0.2,1.5l-0.3,0.7l0.2,0.7l0.9,0.2l0.3-0.3l1-4
	c5.9,0.9,9.1,1.3,9.7,1.3c0.8,0.1,1.2-0.7,1.3-2.6c0.1-1.9-0.4-3-1.5-3.3l-7.6-1.3c0.3-2.4,0.6-4.2,0.8-5.1
	c-0.8,0.5-1.8,0.6-2.9,0.3c-0.7-0.2-1.4-0.6-2.1-1.1C54.9,48.1,54.6,49.8,54.2,51.6z"/>
<path id="Layer0_5_MEMBER_7_MEMBER_0_1_STROKES" class="st4" d="M149.3,94.4l3.5,7.3c0.7,1.5,1.5,2.7,2.4,3.7c0.9,1.1,1.9,2.1,3.2,3
	l2.8,1.6c0.8,0.4,2.1,1,3.8,1.9c1.6,0.8,2.9,1.5,3.8,1.9l25.1,12"/>
<path id="Layer0_5_MEMBER_7_MEMBER_1_1_STROKES" class="st4" d="M127.8,66.5l7.3,1.3l1.5,0.7l0.4,0.3l1.7,1.5c0.5,0.5,1,1.2,1.5,2.2
	c0.3,0.6,0.6,1.4,1,2.4l5.1,12.6"/>
<path id="Layer0_5_MEMBER_7_MEMBER_2_1_STROKES" class="st4" d="M118.9,65.4l3.8,0.5"/>
<path id="Layer0_5_MEMBER_7_MEMBER_3_1_STROKES" class="st4" d="M115.5,58.9l-6.2-0.8"/>
<path id="Layer0_5_MEMBER_7_MEMBER_4_1_STROKES" class="st4" d="M109.1,64.1l5.5,0.7"/>
<path id="Layer0_5_MEMBER_7_MEMBER_5_1_STROKES" class="st4" d="M123.9,60l-4.4-0.6"/>
<path id="Layer0_5_MEMBER_7_MEMBER_6_1_STROKES" class="st4" d="M151.9,84.9l-6.6-15.8l-1.8-2.6l-1.3-1.2c-1-0.9-1.8-1.6-2.5-2
	c-0.8-0.5-1.7-0.9-2.9-1.3l-8-1.4"/>
<path id="Layer0_5_MEMBER_7_MEMBER_7_1_STROKES" class="st4" d="M196.3,120.3l-24.9-11.9c-0.9-0.4-2.2-1-3.8-1.9
	c-1.7-0.9-3-1.5-3.8-1.9l-1.9-1.1c-1.2-0.9-2.1-1.9-2.8-3c0-0.1-0.7-1.3-2-3.6l-2.5-5.6"/>
<path id="Layer0_5_MEMBER_7_MEMBER_8_1_STROKES" class="st4" d="M35.8,20H36"/>
<path id="Layer0_5_MEMBER_7_MEMBER_9_1_STROKES" class="st4" d="M24.7,35.7l-6.8,25l-0.1,1l0.2,7.2l0.1,0.9l0.3,0.8l0.4,0.6l0.6,0.4
	l20.4,11.9"/>
<path id="Layer0_5_MEMBER_7_MEMBER_10_1_STROKES" class="st4" d="M42.2,82.6l5.1-9.6l5.8-20.8"/>
<path id="Layer0_5_MEMBER_7_MEMBER_11_1_STROKES" class="st4" d="M53.2,51.2l-0.4-20l-0.2-0.8l-0.3-0.8l-0.4-0.7l-0.6-0.4L37,20.2
	L36.4,20h-0.6l-0.6,0.3l-0.5,0.5L29,29.1"/>
<path id="Layer0_5_MEMBER_7_MEMBER_12_1_STROKES" class="st4" d="M27.4,31.4L25,34.9l-0.4,0.8"/>
<path id="Layer0_5_MEMBER_7_MEMBER_13_1_STROKES" class="st4" d="M28.7,49.9l14.8,8.5L39,75.1l-2.6,0.4"/>
<path id="Layer0_5_MEMBER_7_MEMBER_14_1_STROKES" class="st4" d="M38.1,69l-1.8,6.6"/>
<path id="Layer0_5_MEMBER_7_MEMBER_15_1_STROKES" class="st4" d="M38.1,69l5.5-10.5"/>
<path id="Layer0_5_MEMBER_7_MEMBER_16_1_STROKES" class="st4" d="M23.3,60.4L21.4,67"/>
<path id="Layer0_5_MEMBER_7_MEMBER_17_1_STROKES" class="st4" d="M23.3,60.4l5.4-10.4"/>
<path id="Layer0_5_MEMBER_7_MEMBER_18_1_STROKES" class="st4" d="M21.4,67l15,8.6"/>
<path id="Layer0_5_MEMBER_7_MEMBER_19_1_STROKES" class="st4" d="M23.3,60.4L38.1,69"/>
<path id="Layer0_5_MEMBER_7_MEMBER_20_1_STROKES" class="st4" d="M53.1,52.1l0.1-1"/>
<path id="Layer0_5_MEMBER_7_MEMBER_21_1_STROKES" class="st4" d="M76.1,92.5l14-52.1"/>
<path id="Layer0_5_MEMBER_7_MEMBER_22_1_STROKES" class="st4" d="M91.8,36.7l18.7-26.9"/>
<path id="Layer0_5_MEMBER_7_MEMBER_23_1_STROKES" class="st4" d="M115.1,8.6l10.8,5.6"/>
<path id="Layer0_5_MEMBER_7_MEMBER_24_1_STROKES" class="st5" d="M125.9,14.2l0.2,44.3"/>
<path id="Layer0_5_MEMBER_7_MEMBER_25_1_STROKES" class="st5" d="M125.2,64.1l-14,47.5"/>
<path id="Layer0_5_MEMBER_7_MEMBER_26_1_STROKES" class="st5" d="M76.1,92.5l35.1,19l81-46.7"/>
<path id="Layer0_5_MEMBER_7_MEMBER_27_1_STROKES" class="st4" d="M192.2,64.8V49.9"/>
<path id="Layer0_5_MEMBER_7_MEMBER_28_1_STROKES" class="st4" d="M189.5,45.4l-63.7-31.2"/>
<path id="Layer0_5_MEMBER_7_MEMBER_29_1_STROKES" class="st4" d="M115.1,8.6c-0.5-0.2-1-0.3-1.5-0.3c-1.2,0-2.3,0.5-3.1,1.5"/>
<path id="Layer0_5_MEMBER_7_MEMBER_30_1_STROKES" class="st4" d="M91.8,36.7c-0.9,1.1-1.5,2.4-1.7,3.8"/>
<path id="Layer0_5_MEMBER_7_MEMBER_31_1_STROKES" class="st4" d="M192.2,49.9v-0.3c0-0.9-0.2-1.7-0.7-2.5c-0.5-0.8-1.1-1.3-2-1.7"/>
<path id="Layer0_5_MEMBER_7_MEMBER_32_1_STROKES" class="st5" d="M125.3,64.1c0.5-1.7,0.8-3.5,0.8-5.3v-0.3"/>
<path id="Layer0_5_MEMBER_7_MEMBER_33_1_STROKES" class="st4" d="M36.8,19.8H37"/>
<path id="Layer0_5_MEMBER_7_MEMBER_34_1_STROKES" class="st4" d="M43.1,82.4l5.1-9.6L54.1,52"/>
<path id="Layer0_5_MEMBER_7_MEMBER_35_1_STROKES" class="st4" d="M54.2,51l-0.4-20l-0.2-0.8l-0.3-0.8l-0.4-0.7l-0.6-0.4L38,20
	l-0.6-0.2h-0.6"/>
<path id="Layer0_5_MEMBER_7_MEMBER_36_1_STROKES" class="st4" d="M54.1,52l0.1-1"/>
<path id="Layer0_5_MEMBER_7_MEMBER_37_1_STROKES" class="st4" d="M36.7,19.8L35.8,20"/>
<path id="Layer0_5_MEMBER_7_MEMBER_38_1_STROKES" class="st4" d="M39.8,83.4c0.3,0.1,0.5,0.2,0.7,0.2c0.7,0,1.3-0.3,1.6-0.9"/>
<path id="Layer0_5_MEMBER_7_MEMBER_39_1_STROKES" class="st4" d="M41.1,83.5c0.8,0,1.5-0.4,2-1.1"/>
<path id="Layer0_5_MEMBER_7_MEMBER_40_1_STROKES" class="st5" d="M95,49.3l-5.3,19.6l-0.1,0.8l0.1,5.7l0.1,0.7l0.2,0.6l0.3,0.5
	l0.4,0.3l16.1,9.3"/>
<path id="Layer0_5_MEMBER_7_MEMBER_41_1_STROKES" class="st4" d="M108.8,86.1l4-7.5l4.5-16.4"/>
<path id="Layer0_5_MEMBER_7_MEMBER_42_1_STROKES" class="st4" d="M117.5,61.4l-0.3-15.7l-0.1-0.6l-0.3-0.6l-0.3-0.5l-0.5-0.3
	l-11.3-6.6"/>
<path id="Layer0_5_MEMBER_7_MEMBER_43_1_STROKES" class="st5" d="M104.8,37.1l-0.5-0.2h-0.5l-0.5,0.3l-0.4,0.4l-4.5,6.6"/>
<path id="Layer0_5_MEMBER_7_MEMBER_44_1_STROKES" class="st5" d="M97.3,45.9l-1.9,2.7L95,49.3"/>
<path id="Layer0_5_MEMBER_7_MEMBER_45_1_STROKES" class="st5" d="M106.9,86.8l0.2,0.1c0.6,0.1,1.1-0.1,1.5-0.5l0.1-0.2"/>
<path id="Layer0_5_MEMBER_7_MEMBER_46_1_STROKES" class="st5" d="M97.3,45.9l1.2-1.8"/>
<path id="Layer0_5_MEMBER_7_MEMBER_47_1_STROKES" class="st6" d="M9.5,30l0.3-0.4"/>
<path id="Layer0_5_MEMBER_7_MEMBER_48_1_STROKES" class="st6" d="M10.1,28.2l-0.2-0.4"/>
<path id="Layer0_5_MEMBER_7_MEMBER_49_1_STROKES" class="st6" d="M9,28.2l0.1-0.4l-0.3,0.5l0,0.4"/>
<path id="Layer0_5_MEMBER_7_MEMBER_50_1_STROKES" class="st6" d="M8.6,29.4l0.1,0.4"/>
<path id="Layer0_5_MEMBER_7_MEMBER_51_1_STROKES" class="st6" d="M9.3,28.9l0.2-0.3l0.3-0.3l0.3-0.1"/>
<path id="Layer0_5_MEMBER_7_MEMBER_52_1_STROKES" class="st6" d="M9,28.2L9.3,28l0.3-0.2l0.3-0.1"/>
<path id="Layer0_5_MEMBER_7_MEMBER_53_1_STROKES" class="st6" d="M8.9,29.3c-0.1,0.1-0.1,0.2-0.1,0.3v0.2"/>
<path id="Layer0_5_MEMBER_7_MEMBER_54_1_STROKES" class="st6" d="M8.6,29.3l0.1-0.5"/>
<path id="Layer0_5_MEMBER_7_MEMBER_55_1_STROKES" class="st6" d="M8.9,29.3l0.4,0.5L9.5,30"/>
<path id="Layer0_5_MEMBER_7_MEMBER_56_1_STROKES" class="st6" d="M9.3,28.9l0.3,0.5l0.2,0.2"/>
<path id="Layer0_5_MEMBER_7_MEMBER_57_1_STROKES" class="st6" d="M9.9,30.9H10c0.7-0.1,1-0.7,1.1-1.7c0.1-1-0.1-1.7-0.7-2l-0.2-0.1"
	/>
<path id="Layer0_5_MEMBER_7_MEMBER_58_1_STROKES" class="st6" d="M9.3,30.7c-0.6-0.5-0.8-1.1-0.8-1.9C8.6,28,9,27.5,9.7,27.1L9.7,27
	l0.5,0.1"/>
<path id="Layer0_5_MEMBER_7_MEMBER_59_1_STROKES" class="st6" d="M9.4,30.8l0.5,0"/>
<path id="Layer0_5_MEMBER_7_MEMBER_60_1_STROKES" class="st6" d="M13.2,30.4c0.4-0.1,0.6-0.5,0.7-1.1c0.1-0.7-0.1-1-0.5-1.2"/>
<path id="Layer0_5_MEMBER_7_MEMBER_61_1_STROKES" class="st6" d="M14.1,30.5c0.4-0.1,0.6-0.4,0.7-1.1c0.1-0.7-0.1-1.1-0.5-1.2"/>
<path id="Layer0_5_MEMBER_7_MEMBER_62_1_STROKES" class="st6" d="M14.9,30.6c0.4,0,0.6-0.4,0.7-1c0.1-0.7-0.1-1.1-0.5-1.2"/>
<path id="Layer0_5_MEMBER_7_MEMBER_63_1_STROKES" class="st6" d="M15.8,30.7c0.2,0,0.3-0.1,0.4-0.4c0.1-0.2,0.2-0.4,0.2-0.6l0-0.1
	v-0.1c0-0.5-0.1-0.9-0.4-1"/>
<path id="Layer0_5_MEMBER_7_MEMBER_64_1_STROKES" class="st6" d="M16.5,30.8c0.4-0.1,0.6-0.4,0.7-1.1c0.1-0.7-0.1-1.1-0.4-1.2"/>
<path id="Layer0_5_MEMBER_7_MEMBER_65_1_STROKES" class="st6" d="M16.4,30.8L11,30.2"/>
<path id="Layer0_5_MEMBER_7_MEMBER_66_1_STROKES" class="st6" d="M16.7,28.5l-5.5-0.6"/>
<path id="Layer0_5_MEMBER_7_MEMBER_67_1_STROKES" class="st4" d="M20.9,54.9l-0.2,0l-0.2,0.1c-0.5,0.3-0.7,0.8-0.7,1.7
	c0,0.8,0.3,1.4,0.8,1.5l0.2,0l0.2,0c0.5-0.2,0.8-0.7,0.8-1.5c0-0.8-0.2-1.4-0.6-1.7L21,54.9L20.9,54.9z"/>
<path id="Layer0_5_MEMBER_7_MEMBER_68_1_STROKES" class="st4" d="M21,55.3c-0.2,0.3-0.3,0.7-0.3,1.3c0,0.6,0.1,1,0.4,1.4"/>
<path id="Layer0_5_MEMBER_7_MEMBER_69_1_STROKES" class="st4" d="M30.4,31.6c0-0.5-0.1-0.9-0.3-1.2c-0.2-0.3-0.4-0.5-0.7-0.5
	c-0.3,0-0.5,0.1-0.7,0.5c-0.2,0.3-0.3,0.7-0.3,1.2c0,0.5,0.1,0.9,0.3,1.2c0.2,0.3,0.4,0.5,0.7,0.5s0.5-0.2,0.7-0.5
	C30.3,32.4,30.4,32,30.4,31.6z"/>
<path id="Layer0_5_MEMBER_7_MEMBER_70_1_STROKES" class="st4" d="M29.6,30.2c-0.3,0.4-0.4,0.8-0.4,1.3c0,0.6,0.1,1.1,0.4,1.4"/>
<path id="Layer0_5_MEMBER_7_MEMBER_71_1_STROKES" class="st4" d="M43.6,26.7c0-0.5-0.1-0.9-0.3-1.2c-0.2-0.3-0.4-0.5-0.7-0.5
	c-0.3,0-0.5,0.1-0.7,0.5c-0.2,0.3-0.3,0.7-0.3,1.2s0.1,0.9,0.3,1.2c0.2,0.3,0.4,0.5,0.7,0.5c0.3,0,0.5-0.2,0.7-0.5
	C43.5,27.5,43.6,27.2,43.6,26.7z"/>
<path id="Layer0_5_MEMBER_7_MEMBER_72_1_STROKES" class="st4" d="M42.8,25.4c-0.3,0.3-0.4,0.7-0.4,1.3c0,0.6,0.1,1.1,0.4,1.4"/>
<path id="Layer0_5_MEMBER_7_MEMBER_73_1_STROKES" class="st4" d="M49.8,44.8c0,0.5,0.1,0.9,0.3,1.2c0.2,0.3,0.4,0.5,0.7,0.5
	c0.3,0,0.5-0.2,0.7-0.5c0.2-0.3,0.3-0.7,0.3-1.2c0-0.4-0.1-0.8-0.3-1.2c-0.2-0.3-0.4-0.5-0.7-0.5c-0.3,0-0.5,0.1-0.7,0.5
	C49.9,44,49.8,44.4,49.8,44.8z"/>
<path id="Layer0_5_MEMBER_7_MEMBER_74_1_STROKES" class="st4" d="M50.9,43.5c-0.3,0.4-0.4,0.8-0.4,1.3c0,0.6,0.1,1.1,0.4,1.4"/>
<path id="Layer0_5_MEMBER_7_MEMBER_75_1_STROKES" class="st4" d="M46,72c0,0.5-0.1,0.9-0.3,1.2c-0.2,0.3-0.4,0.5-0.7,0.5
	c-0.3,0-0.5-0.2-0.7-0.5c-0.2-0.3-0.3-0.7-0.3-1.2s0.1-0.9,0.3-1.2c0.2-0.3,0.4-0.5,0.7-0.5c0.3,0,0.5,0.2,0.7,0.5
	C45.9,71.2,46,71.6,46,72z"/>
<path id="Layer0_5_MEMBER_7_MEMBER_76_1_STROKES" class="st4" d="M45.3,70.7c-0.3,0.4-0.4,0.8-0.4,1.3c0,0.6,0.1,1.1,0.4,1.4"/>
<path id="Layer0_5_MEMBER_7_MEMBER_77_1_STROKES" class="st4" d="M29.8,74.7c0-0.5-0.1-0.9-0.3-1.2c-0.2-0.3-0.4-0.5-0.7-0.5
	s-0.5,0.2-0.7,0.5c-0.2,0.3-0.3,0.7-0.3,1.2c0,0.5,0.1,0.9,0.3,1.2c0.2,0.3,0.4,0.5,0.7,0.5c0.3,0,0.5-0.2,0.7-0.5
	C29.7,75.5,29.8,75.1,29.8,74.7z"/>
<path id="Layer0_5_MEMBER_7_MEMBER_78_1_STROKES" class="st4" d="M29,73.4c-0.2,0.3-0.3,0.8-0.3,1.3c0,0.6,0.1,1.1,0.4,1.4"/>
<path id="Layer0_5_MEMBER_7_MEMBER_79_1_STROKES" class="st4" d="M96.3,49.3L91,68.9l-0.1,0.8l0.1,5.6l0.1,0.7l0.2,0.6l0.3,0.5
	l0.4,0.3l16.1,9.3"/>
<path id="Layer0_5_MEMBER_7_MEMBER_80_1_STROKES" class="st4" d="M104.4,37.4l-0.1,0.1l-6,8.7"/>
<path id="Layer0_5_MEMBER_7_MEMBER_81_1_STROKES" class="st4" d="M98.5,45.9l-1.9,2.8l-0.3,0.6"/>
<path id="Layer0_5_MEMBER_7_MEMBER_82_1_STROKES" class="st4" d="M78.4,61.4c-0.5-0.3-0.9-0.8-1.2-1.5c-0.3-0.7-0.4-1.5-0.4-2.4
	c0-0.9,0.1-1.7,0.4-2.4s0.6-1.2,1.1-1.5"/>
<path id="Layer0_5_MEMBER_7_MEMBER_83_1_STROKES" class="st4" d="M81.7,59.4c-0.2,0.7-0.4,1.3-0.8,1.8c-0.5,0.6-1,1-1.6,1h-0.2"/>
<path id="Layer0_5_MEMBER_7_MEMBER_84_1_STROKES" class="st4" d="M81.8,59.3l0-0.2"/>
<path id="Layer0_5_MEMBER_7_MEMBER_85_1_STROKES" class="st4" d="M83.1,58.7L83,58.3l0.3-0.1l-0.1-0.3l0.3-0.1l-0.1-0.3l0.3,0
	l-0.1-0.3l0.3-0.1l-0.1-0.3L82,51.8"/>
<path id="Layer0_5_MEMBER_7_MEMBER_86_1_STROKES" class="st4" d="M79.3,49.3l0.2,0.1l1.5,2"/>
<path id="Layer0_5_MEMBER_7_MEMBER_87_1_STROKES" class="st4" d="M80.4,57.6c0,1.1-0.3,2.1-0.7,2.9c-0.5,0.8-1,1.2-1.7,1.2
	c-0.7,0-1.2-0.4-1.7-1.2c-0.5-0.8-0.7-1.8-0.7-2.9c0-1.2,0.2-2.1,0.7-2.9c0.5-0.8,1-1.2,1.7-1.3c0.5,0,0.9,0.2,1.3,0.7
	c0.4,0.4,0.7,1,0.9,1.8"/>
<path id="Layer0_5_MEMBER_7_MEMBER_88_1_STROKES" class="st4" d="M80.6,59.3c-0.2,0.9-0.5,1.6-1,2.2c-0.5,0.5-1,0.8-1.5,0.8
	c-0.8,0-1.4-0.5-2-1.4c-0.5-0.9-0.8-2.1-0.9-3.4c0-1,0.1-1.9,0.4-2.7c0.3-0.8,0.7-1.4,1.3-1.8"/>
<path id="Layer0_5_MEMBER_7_MEMBER_89_1_STROKES" class="st4" d="M80.5,59.3c0.1-0.6,0.3-0.9,0.7-0.9c0.2,0,0.4,0.1,0.5,0.4"/>
<path id="Layer0_5_MEMBER_7_MEMBER_90_1_STROKES" class="st4" d="M81.8,58.8l0.2-0.1l-0.1-0.3l0.3,0l-0.1-0.4l0.3,0l-0.1-0.4l0.3,0
	l-0.1-0.3l0.3-0.1l-0.1-0.3l-1.9-4.9"/>
<path id="Layer0_5_MEMBER_7_MEMBER_91_1_STROKES" class="st4" d="M81.9,57.1l-0.2-1.2l-0.6-2.3l-1-1.9"/>
<path id="Layer0_5_MEMBER_7_MEMBER_92_1_STROKES" class="st4" d="M80.3,55.7L80.2,55c-0.3-1.2-0.8-2-1.5-2.5l-0.4-0.2"/>
<path id="Layer0_5_MEMBER_7_MEMBER_93_1_STROKES" class="st4" d="M78.3,52.2c-0.1-0.1-0.1-0.2-0.1-0.4c0-0.3,0-0.4,0.2-0.4"/>
<path id="Layer0_5_MEMBER_7_MEMBER_94_1_STROKES" class="st4" d="M81.9,57.1c0,0.3-0.1,0.4-0.3,0.4c-0.1,0-0.2-0.1-0.3-0.3"/>
<path id="Layer0_5_MEMBER_7_MEMBER_95_1_STROKES" class="st4" d="M81.4,57.2l0-0.4l-0.2-0.2l0.3,0l-0.3-0.3l0.2-0.1l-0.3-0.3
	l0.2-0.1l-0.2-0.2l0.2-0.1L81,55.1l0.2-0.2l-0.2-0.2l0.1-0.3h-0.3l0.1-0.3l-0.3,0l0.1-0.4h-0.3l0.1-0.5l-0.3,0v-0.6l-0.3,0.1v-0.5
	l-0.3,0.1l-0.1-0.5L79,52l-0.1-0.6l-0.3,0.3l-0.1-0.3"/>
<path id="Layer0_5_MEMBER_7_MEMBER_96_1_STROKES" class="st4" d="M79.7,52.8l-0.2,0.4"/>
<path id="Layer0_5_MEMBER_7_MEMBER_97_1_STROKES" class="st4" d="M77.2,50.9l0.1-0.3l0.2,0.1l0-0.5l0.2,0.1V50l0.2,0.1l0-0.5
	l0.2,0.1l0-0.5l0.2,0.1l1.8,2.3"/>
<path id="Layer0_5_MEMBER_7_MEMBER_98_1_STROKES" class="st4" d="M80.7,51.7c-0.2-0.1-0.3-0.1-0.4,0"/>
<path id="Layer0_5_MEMBER_7_MEMBER_99_1_STROKES" class="st4" d="M80.3,55.7l-0.1,0.1"/>
<path id="Layer0_5_MEMBER_7_MEMBER_100_1_STROKES" class="st4" d="M76.9,53.1c0.4-0.2,0.5-0.6,0.5-1.2c0-0.4-0.1-0.7-0.2-0.9"/>
<path id="Layer0_5_MEMBER_7_MEMBER_101_1_STROKES" class="st4" d="M80.3,55.7l0.1,1.9"/>
<path id="Layer0_5_MEMBER_7_MEMBER_102_1_STROKES" class="st4" d="M79.3,49.3h-1.2"/>
<path id="Layer0_5_MEMBER_7_MEMBER_103_1_STROKES" class="st4" d="M83.9,57.1h-1.2"/>
<path id="Layer0_5_MEMBER_7_MEMBER_104_1_STROKES" class="st4" d="M83.7,57.5h-1.2"/>
<path id="Layer0_5_MEMBER_7_MEMBER_105_1_STROKES" class="st4" d="M83.5,57.9l-1.2,0"/>
<path id="Layer0_5_MEMBER_7_MEMBER_106_1_STROKES" class="st4" d="M83.3,58.3l-1.2,0"/>
<path id="Layer0_5_MEMBER_7_MEMBER_107_1_STROKES" class="st4" d="M79.3,62.3l-1.2,0"/>
<path id="Layer0_5_MEMBER_7_MEMBER_108_1_STROKES" class="st4" d="M81.4,54.5l-0.4,0.2"/>
<path id="Layer0_5_MEMBER_7_MEMBER_109_1_STROKES" class="st4" d="M81.7,51.6l-1.2,0"/>
<path id="Layer0_5_MEMBER_7_MEMBER_110_1_STROKES" class="st4" d="M83,58.8l-1.2,0"/>
<path id="Layer0_5_MEMBER_7_MEMBER_111_1_STROKES" class="st4" d="M83,58.8l0.2-0.1"/>
<path id="Layer0_5_MEMBER_7_MEMBER_112_1_STROKES" class="st4" d="M108.9,58c0.5,0,0.9,0.3,1.2,0.9c0.3,0.6,0.5,1.3,0.5,2.1
	c0,0.8-0.2,1.5-0.5,2.1c-0.3,0.6-0.7,0.9-1.2,0.9c-0.5,0-0.9-0.3-1.2-0.9c-0.3-0.6-0.5-1.3-0.5-2.1c0-0.8,0.2-1.5,0.5-2.1
	C108.1,58.3,108.5,58,108.9,58z"/>
<path id="Layer0_5_MEMBER_7_MEMBER_113_1_STROKES" class="st4" d="M66.9,59.5c0.5,0,0.9-0.3,1.2-0.9c0.3-0.6,0.5-1.3,0.5-2.1
	c0-0.8-0.1-1.5-0.4-2c-0.3-0.6-0.7-0.9-1.1-1"/>
<path id="Layer0_5_MEMBER_7_MEMBER_114_1_STROKES" class="st4" d="M57.4,58.3l9.3,1.2"/>
<path id="Layer0_5_MEMBER_7_MEMBER_115_1_STROKES" class="st4" d="M67,53.5l-7.1-0.9"/>
<path id="Layer0_5_MEMBER_7_MEMBER_116_1_STROKES" class="st4" d="M53.3,57.8l2.9,0.3"/>
<path id="Layer0_5_MEMBER_7_MEMBER_117_1_STROKES" class="st4" d="M55.2,45.9c0,0.3,0.2,0.6,0.6,0.9c0.5,0.3,1,0.5,1.7,0.6
	c0.7,0.1,1.3,0.1,1.9,0c0.5-0.1,0.9-0.3,0.9-0.6"/>
<path id="Layer0_5_MEMBER_7_MEMBER_118_1_STROKES" class="st4" d="M60.2,47.1l-1,5.8"/>
<path id="Layer0_5_MEMBER_7_MEMBER_119_1_STROKES" class="st4" d="M55.2,46.3l-0.6,3.3"/>
<path id="Layer0_5_MEMBER_7_MEMBER_120_1_STROKES" class="st4" d="M56.6,55.1c1.3-0.3,2.1-1,2.6-2.2"/>
<path id="Layer0_5_MEMBER_7_MEMBER_121_1_STROKES" class="st4" d="M55.4,44.4c0,0.3,0.3,0.6,0.7,0.9c0.5,0.3,1,0.5,1.7,0.6
	c0.7,0.1,1.3,0.1,1.8,0c0.5-0.1,0.8-0.3,0.9-0.6"/>
<path id="Layer0_5_MEMBER_7_MEMBER_122_1_STROKES" class="st4" d="M56.8,36.5c0,0.3,0.2,0.6,0.6,0.9c0.5,0.3,1.1,0.5,1.8,0.6
	c0.7,0.1,1.3,0.1,1.9,0c0.5-0.1,0.8-0.3,0.9-0.6"/>
<path id="Layer0_5_MEMBER_7_MEMBER_123_1_STROKES" class="st4" d="M57.5,35.2c-0.4,0.1-0.6,0.3-0.6,0.6c0,0.3,0.2,0.6,0.6,0.9
	c0.5,0.3,1.1,0.5,1.8,0.6c0.7,0.1,1.3,0.1,1.9,0c0.5-0.1,0.9-0.3,0.9-0.6c0-0.3-0.1-0.5-0.5-0.8"/>
<path id="Layer0_5_MEMBER_7_MEMBER_124_1_STROKES" class="st4" d="M57.5,35.8c0,0.2,0.1,0.5,0.5,0.7c0.3,0.2,0.8,0.4,1.3,0.5
	c0.5,0.1,1,0.1,1.4,0c0.4-0.1,0.6-0.2,0.7-0.5"/>
<path id="Layer0_5_MEMBER_7_MEMBER_125_1_STROKES" class="st4" d="M61.7,35c0,0.2-0.2,0.4-0.7,0.5c-0.4,0.1-0.9,0.1-1.4,0
	c-0.5-0.1-1-0.2-1.3-0.5c-0.3-0.2-0.5-0.5-0.5-0.7c0-0.2,0.3-0.4,0.7-0.5c0.4-0.1,0.9-0.1,1.4,0c0.5,0.1,1,0.3,1.3,0.5
	C61.5,34.6,61.7,34.8,61.7,35z"/>
<path id="Layer0_5_MEMBER_7_MEMBER_126_1_STROKES" class="st4" d="M55.2,46l0.3-1.6"/>
<path id="Layer0_5_MEMBER_7_MEMBER_127_1_STROKES" class="st4" d="M60.6,45.2l-0.3,1.6"/>
<path id="Layer0_5_MEMBER_7_MEMBER_128_1_STROKES" class="st4" d="M60.6,45.2l1.3-7.5"/>
<path id="Layer0_5_MEMBER_7_MEMBER_129_1_STROKES" class="st4" d="M55.4,44.4l1.3-7.7"/>
<path id="Layer0_5_MEMBER_7_MEMBER_130_1_STROKES" class="st4" d="M57.5,35.8l0.3-1.4"/>
<path id="Layer0_5_MEMBER_7_MEMBER_131_1_STROKES" class="st4" d="M61.4,36.4l0.2-1.4"/>
<path id="Layer0_5_MEMBER_7_MEMBER_132_1_STROKES" class="st4" d="M62.1,36.6L62,37.4"/>
<path id="Layer0_5_MEMBER_7_MEMBER_133_1_STROKES" class="st4" d="M56.4,45.4L56.1,47"/>
<path id="Layer0_5_MEMBER_7_MEMBER_134_1_STROKES" class="st4" d="M56.9,35.8l-0.1,0.8"/>
<path id="Layer0_5_MEMBER_7_MEMBER_135_1_STROKES" class="st4" d="M59.1,46l-0.3,1.6"/>
<path id="Layer0_5_MEMBER_7_MEMBER_136_1_STROKES" class="st5" d="M88.3,64.4c-0.5,0.3-0.7,0.8-0.7,1.7c0,0.8,0.3,1.4,0.8,1.5l0.2,0
	l0.2,0c0.5-0.1,0.8-0.7,0.8-1.5c0-0.8-0.2-1.4-0.6-1.7l-0.3-0.1L88.3,64.4z"/>
<path id="Layer0_5_MEMBER_7_MEMBER_137_1_STROKES" class="st5" d="M98.7,41c0-0.5-0.1-0.9-0.3-1.2c-0.2-0.3-0.4-0.5-0.7-0.5
	s-0.5,0.2-0.7,0.5c-0.2,0.3-0.3,0.7-0.3,1.2c0,0.5,0.1,0.9,0.3,1.2c0.2,0.3,0.4,0.5,0.7,0.5s0.5-0.2,0.7-0.5
	C98.6,41.9,98.6,41.5,98.7,41z"/>
<path id="Layer0_5_MEMBER_7_MEMBER_138_1_STROKES" class="st5" d="M111.9,36.2c0-0.5-0.1-0.9-0.3-1.2c-0.2-0.3-0.4-0.5-0.7-0.5
	c-0.3,0-0.5,0.2-0.7,0.5c-0.2,0.3-0.3,0.7-0.3,1.2c0,0.5,0.1,0.9,0.3,1.2c0.2,0.3,0.4,0.5,0.7,0.5c0.3,0,0.5-0.1,0.7-0.5
	C111.8,37.1,111.9,36.7,111.9,36.2z"/>
<path id="Layer0_5_MEMBER_7_MEMBER_139_1_STROKES" class="st5" d="M120,54.3c0-0.4-0.1-0.8-0.3-1.2c-0.2-0.3-0.4-0.5-0.7-0.5
	c-0.3,0-0.5,0.1-0.7,0.5c-0.2,0.3-0.3,0.7-0.3,1.2c0,0.5,0.1,0.9,0.3,1.2c0.2,0.3,0.4,0.5,0.7,0.5c0.3,0,0.5-0.2,0.7-0.5
	C119.9,55.2,120,54.8,120,54.3z"/>
<path id="Layer0_5_MEMBER_7_MEMBER_140_1_STROKES" class="st5" d="M114.3,81.5c0,0.5-0.1,0.9-0.3,1.2s-0.4,0.5-0.7,0.5
	c-0.3,0-0.5-0.2-0.7-0.5c-0.2-0.3-0.3-0.7-0.3-1.2c0-0.5,0.1-0.9,0.3-1.2c0.2-0.3,0.4-0.5,0.7-0.5c0.3,0,0.5,0.2,0.7,0.5
	C114.2,80.6,114.3,81,114.3,81.5z"/>
<path id="Layer0_5_MEMBER_7_MEMBER_141_1_STROKES" class="st5" d="M98.1,84.1c0-0.5-0.1-0.9-0.3-1.2c-0.2-0.3-0.4-0.5-0.7-0.5
	c-0.3,0-0.5,0.2-0.7,0.5c-0.2,0.3-0.3,0.7-0.3,1.2c0,0.5,0.1,0.9,0.3,1.2c0.2,0.3,0.4,0.5,0.7,0.5c0.3,0,0.5-0.2,0.7-0.5
	C98,85,98.1,84.6,98.1,84.1z"/>
<path id="Layer0_5_MEMBER_7_MEMBER_142_1_STROKES" class="st4" d="M108.9,59c0.3,0,0.6,0.2,0.8,0.6c0.2,0.4,0.3,0.9,0.3,1.5
	s-0.1,1.1-0.3,1.5c-0.2,0.4-0.5,0.6-0.9,0.6s-0.6-0.2-0.9-0.6c-0.2-0.4-0.3-0.9-0.3-1.5c0-0.6,0.1-1.1,0.4-1.5
	C108.2,59.2,108.5,59,108.9,59z"/>
<path id="Layer0_5_MEMBER_7_MEMBER_143_1_STROKES" class="st5" d="M108.8,61.3l-7.1-0.9"/>
<path id="Layer0_5_MEMBER_7_MEMBER_144_1_STROKES" class="st5" d="M100,60.2L98.2,60"/>
<path id="Layer0_5_MEMBER_7_MEMBER_145_1_STROKES" class="st5" d="M96.4,59.8l-14.2-1.7"/>
<path id="Layer0_5_MEMBER_7_MEMBER_146_1_STROKES" class="st5" d="M80.5,57.9l-1.8-0.2"/>
<path id="Layer0_5_MEMBER_7_MEMBER_147_1_STROKES" class="st5" d="M77,57.5l-7.1-0.9"/>
<path id="Layer0_5_MEMBER_7_MEMBER_148_1_STROKES" class="st7" d="M21.8,30.4l-1.7-0.2"/>
<path id="Layer0_5_MEMBER_7_MEMBER_149_1_STROKES" class="st7" d="M19.7,30.1l-0.4,0"/>
<path id="Layer0_5_MEMBER_7_MEMBER_150_1_STROKES" class="st7" d="M18.9,30l-1.6-0.2"/>
<path id="Layer0_5_MEMBER_7_MEMBER_151_1_STROKES" class="st7" d="M29.8,31.3L28,31.1"/>
<path id="Layer0_5_MEMBER_7_MEMBER_152_1_STROKES" class="st7" d="M27.6,31.1L27.2,31"/>
<path id="Layer0_5_MEMBER_7_MEMBER_153_1_STROKES" class="st7" d="M26.7,31l-1.7-0.2"/>
<path id="Layer0_5_MEMBER_7_MEMBER_154_1_STROKES" class="st4" d="M56.3,58.1c0.3,0,0.5-0.1,0.6-0.3"/>
<path id="Layer0_5_MEMBER_7_MEMBER_155_1_STROKES" class="st6" d="M55.3,75.4l0.3,0.3"/>
<path id="Layer0_5_MEMBER_7_MEMBER_156_1_STROKES" class="st6" d="M55.3,75.4L55.1,75L55,74.5"/>
<path id="Layer0_5_MEMBER_7_MEMBER_157_1_STROKES" class="st6" d="M56.2,74.7l0.2,0.2"/>
<path id="Layer0_5_MEMBER_7_MEMBER_158_1_STROKES" class="st6" d="M56.2,74.5l0.1,0.2"/>
<path id="Layer0_5_MEMBER_7_MEMBER_159_1_STROKES" class="st6" d="M59,76l-2.6-1.2"/>
<path id="Layer0_5_MEMBER_7_MEMBER_160_1_STROKES" class="st6" d="M58.2,76.9l-2.6-1.2"/>
<path id="Layer0_5_MEMBER_7_MEMBER_161_1_STROKES" class="st6" d="M59.6,76.5l0.3,0.7"/>
<path id="Layer0_5_MEMBER_7_MEMBER_162_1_STROKES" class="st6" d="M59.6,76.5l-0.2-0.3L59.1,76"/>
<path id="Layer0_5_MEMBER_7_MEMBER_163_1_STROKES" class="st6" d="M58.8,77.7l-0.1-0.3l-0.2-0.3l-0.3-0.1"/>
<path id="Layer0_5_MEMBER_7_MEMBER_164_1_STROKES" class="st6" d="M63.4,87.1l-0.4-0.1l-0.3-0.1"/>
<path id="Layer0_5_MEMBER_7_MEMBER_165_1_STROKES" class="st6" d="M64.4,86.4l-0.3,0.3"/>
<path id="Layer0_5_MEMBER_7_MEMBER_166_1_STROKES" class="st6" d="M65.6,84l0.2-0.1"/>
<path id="Layer0_5_MEMBER_7_MEMBER_167_1_STROKES" class="st6" d="M62.2,86.6L62,86.5l-0.1-0.2"/>
<path id="Layer0_5_MEMBER_7_MEMBER_168_1_STROKES" class="st6" d="M61.7,85.9l0.2,0.3"/>
<path id="Layer0_5_MEMBER_7_MEMBER_169_1_STROKES" class="st6" d="M61.7,85.6l0,0.4"/>
<path id="Layer0_5_MEMBER_7_MEMBER_170_1_STROKES" class="st6" d="M64.6,83.1l0.3-0.3"/>
<path id="Layer0_5_MEMBER_7_MEMBER_171_1_STROKES" class="st6" d="M63.8,86.8l0.2-0.2"/>
<path id="Layer0_5_MEMBER_7_MEMBER_172_1_STROKES" class="st6" d="M54.5,58.8l0.4,0.4l0.2,0.6l-0.1,0.7L54.6,61l-0.5,0.4l-0.6,0.2
	l-0.5-0.2L52.5,61l-0.2-0.6"/>
<path id="Layer0_5_MEMBER_7_MEMBER_173_1_STROKES" class="st6" d="M53.3,58.8l0.6-0.2l0.6,0.1"/>
<path id="Layer0_5_MEMBER_7_MEMBER_174_1_STROKES" class="st6" d="M52.2,60.2l0.1-0.9l0.8-0.6l0.7,0.4l-0.1,1"/>
<path id="Layer0_5_MEMBER_7_MEMBER_175_1_STROKES" class="st6" d="M52.9,60.7l-0.7-0.4"/>
<path id="Layer0_5_MEMBER_7_MEMBER_176_1_STROKES" class="st6" d="M53.6,60.1l-0.8,0.5l0.5,0.3"/>
<path id="Layer0_5_MEMBER_7_MEMBER_177_1_STROKES" class="st6" d="M54.2,59.5l-0.5-0.3"/>
<path id="Layer0_5_MEMBER_7_MEMBER_178_1_STROKES" class="st6" d="M54.2,59.5l-0.1,0.4v0.5l-0.8,0.6"/>
<path id="Layer0_5_MEMBER_7_MEMBER_179_1_STROKES" class="st6" d="M53.4,59l0.2-0.1c1,0.1,1.3,0.6,0.7,1.5c-0.5,1-1.1,1-1.7,0.2
	v-0.2"/>
<path id="Layer0_5_MEMBER_7_MEMBER_180_1_STROKES" class="st6" d="M64.4,84.6l1-1"/>
<path id="Layer0_5_MEMBER_7_MEMBER_181_1_STROKES" class="st6" d="M66.1,85.6l-1,0.9"/>
<path id="Layer0_5_MEMBER_7_MEMBER_182_1_STROKES" class="st6" d="M65.4,83.6l-2-1.2L63,82.8"/>
<path id="Layer0_5_MEMBER_7_MEMBER_183_1_STROKES" class="st6" d="M65.1,86.5l-0.2,0.2"/>
<path id="Layer0_5_MEMBER_7_MEMBER_184_1_STROKES" class="st6" d="M62.5,82.8l0.2-0.1l0.3,0.1l0.4,0.3l0.3,0.4"/>
<path id="Layer0_5_MEMBER_7_MEMBER_185_1_STROKES" class="st6" d="M63.6,83.5l0.8,1.1"/>
<path id="Layer0_5_MEMBER_7_MEMBER_186_1_STROKES" class="st6" d="M64.2,84.7l0.2-0.2"/>
<path id="Layer0_5_MEMBER_7_MEMBER_187_1_STROKES" class="st6" d="M64.9,86.7l-0.2,0.6l-0.1,0.1l-0.3-0.1L63.9,87l-0.1-0.2"/>
<path id="Layer0_5_MEMBER_7_MEMBER_188_1_STROKES" class="st6" d="M62.5,82.8l0.3,0.1l0.4,0.3l0.3,0.4l0.7,1.2l0.7,1.9"/>
<path id="Layer0_5_MEMBER_7_MEMBER_189_1_STROKES" class="st6" d="M66.1,85.6l-0.7-2"/>
<path id="Layer0_5_MEMBER_7_MEMBER_190_1_STROKES" class="st6" d="M64.4,86.4l0.1-0.3l-0.2-0.4L64,85.2l-0.5-0.5l-0.4-0.3"/>
<path id="Layer0_5_MEMBER_7_MEMBER_191_1_STROKES" class="st6" d="M63.7,87.1l0.1-0.3l-0.2-0.4l-0.3-0.5"/>
<path id="Layer0_5_MEMBER_7_MEMBER_192_1_STROKES" class="st6" d="M61.5,85.2l0.1-0.3l0.2,0"/>
<path id="Layer0_5_MEMBER_7_MEMBER_193_1_STROKES" class="st6" d="M65.2,83l-0.3-0.1"/>
<path id="Layer0_5_MEMBER_7_MEMBER_194_1_STROKES" class="st6" d="M65.7,83.9l0.1-0.1l-0.1-0.3l-0.3-0.3L65.2,83"/>
<path id="Layer0_5_MEMBER_7_MEMBER_195_1_STROKES" class="st6" d="M62.3,85.3l-0.4-0.2l-0.3,0.1l0,0.3"/>
<path id="Layer0_5_MEMBER_7_MEMBER_196_1_STROKES" class="st6" d="M63.4,87.1l0.2-0.1l0-0.4l-0.2-0.5l-0.5-0.5l-0.5-0.4"/>
<path id="Layer0_5_MEMBER_7_MEMBER_197_1_STROKES" class="st6" d="M61.9,81.2l-0.6-0.3"/>
<path id="Layer0_5_MEMBER_7_MEMBER_198_1_STROKES" class="st6" d="M61.9,81.2l1.3,3.5"/>
<path id="Layer0_5_MEMBER_7_MEMBER_199_1_STROKES" class="st6" d="M59.7,81.5l1.1,3"/>
<path id="Layer0_5_MEMBER_7_MEMBER_200_1_STROKES" class="st6" d="M62.1,85.1l-1.2-0.6"/>
<path id="Layer0_5_MEMBER_7_MEMBER_201_1_STROKES" class="st6" d="M62.8,85.1l-0.8,0"/>
<path id="Layer0_5_MEMBER_7_MEMBER_202_1_STROKES" class="st6" d="M62.8,85.1l0.4-0.4"/>
<path id="Layer0_5_MEMBER_7_MEMBER_203_1_STROKES" class="st6" d="M62.1,85.1l-1.1-3"/>
<path id="Layer0_5_MEMBER_7_MEMBER_204_1_STROKES" class="st6" d="M60.1,81.1l-0.4,0.3"/>
<path id="Layer0_5_MEMBER_7_MEMBER_205_1_STROKES" class="st6" d="M62.8,85.1l0.4,0.6"/>
<path id="Layer0_5_MEMBER_7_MEMBER_206_1_STROKES" class="st6" d="M63.9,85.7l-0.2-0.3"/>
<path id="Layer0_5_MEMBER_7_MEMBER_207_1_STROKES" class="st6" d="M63.6,85.3l-0.4-0.7"/>
<path id="Layer0_5_MEMBER_7_MEMBER_208_1_STROKES" class="st6" d="M61,82.1l-1.2-0.6"/>
<path id="Layer0_5_MEMBER_7_MEMBER_209_1_STROKES" class="st6" d="M61,82.1l0.9-0.9"/>
<path id="Layer0_5_MEMBER_7_MEMBER_210_1_STROKES" class="st6" d="M64,86.6l0.1-0.3l-0.3-0.5"/>
<path id="Layer0_5_MEMBER_7_MEMBER_211_1_STROKES" class="st6" d="M55.1,61.6l0.8,4.7"/>
<path id="Layer0_5_MEMBER_7_MEMBER_212_1_STROKES" class="st6" d="M55.3,66.5l0.5-0.2"/>
<path id="Layer0_5_MEMBER_7_MEMBER_213_1_STROKES" class="st6" d="M55.1,65.9L54.5,62"/>
<path id="Layer0_5_MEMBER_7_MEMBER_214_1_STROKES" class="st6" d="M53,62.5l1.5-0.5l0.3-0.5"/>
<path id="Layer0_5_MEMBER_7_MEMBER_215_1_STROKES" class="st6" d="M53.3,62L53,62.5l0.6,4"/>
<path id="Layer0_5_MEMBER_7_MEMBER_216_1_STROKES" class="st6" d="M55.8,66.3l-0.7-0.4"/>
<path id="Layer0_5_MEMBER_7_MEMBER_217_1_STROKES" class="st6" d="M53.3,62l-0.3-0.6"/>
<path id="Layer0_5_MEMBER_7_MEMBER_218_1_STROKES" class="st6" d="M54.7,61.4L53.3,62"/>
<path id="Layer0_5_MEMBER_7_MEMBER_219_1_STROKES" class="st6" d="M54.9,60.6l-0.1,0.8"/>
<path id="Layer0_5_MEMBER_7_MEMBER_220_1_STROKES" class="st6" d="M55.1,61.6l0.2-1.3"/>
<path id="Layer0_5_MEMBER_7_MEMBER_221_1_STROKES" class="st6" d="M53.6,66.5l1.5-0.6"/>
<path id="Layer0_5_MEMBER_7_MEMBER_222_1_STROKES" class="st6" d="M53.6,66.5l0.6,0.3"/>
<path id="Layer0_5_MEMBER_7_MEMBER_223_1_STROKES" class="st6" d="M55.2,60.3V60l0-0.3l-0.1-0.3l-0.2-0.1"/>
<path id="Layer0_5_MEMBER_7_MEMBER_224_1_STROKES" class="st6" d="M60.2,81.4l0.1,0.3l0.4,0.1l0.4-0.2l0.3-0.3"/>
<path id="Layer0_5_MEMBER_7_MEMBER_225_1_STROKES" class="st6" d="M58.8,77.7l1.4,3.8"/>
<path id="Layer0_5_MEMBER_7_MEMBER_226_1_STROKES" class="st6" d="M61.4,81.3l-1.5-4"/>
<path id="Layer0_5_MEMBER_7_MEMBER_227_1_STROKES" class="st6" d="M59,76l-0.2-0.1"/>
<path id="Layer0_5_MEMBER_7_MEMBER_228_1_STROKES" class="st6" d="M54.8,70.5l0.1,0.6c0,0.2,0,0.7,0,1.6c0,0.7,0,1.2,0.1,1.6v0.2"/>
<path id="Layer0_5_MEMBER_7_MEMBER_229_1_STROKES" class="st6" d="M56.3,75l-0.1-0.3"/>
<path id="Layer0_5_MEMBER_7_MEMBER_230_1_STROKES" class="st6" d="M56.2,74.5l0-0.2c0-0.4-0.1-0.9-0.1-1.6c0-0.8,0-1.4-0.1-1.7
	l-0.1-0.7"/>
<path id="Layer0_5_MEMBER_7_MEMBER_231_1_STROKES" class="st6" d="M55.3,66.3L55,66.1l-0.5,0l-0.4,0.2l-0.1,0.2l0.7,3.9"/>
<path id="Layer0_5_MEMBER_7_MEMBER_232_1_STROKES" class="st6" d="M55.9,70.2l-0.7-4"/>
<path id="Layer0_5_MEMBER_7_MEMBER_233_1_STROKES" class="st6" d="M63.9,85.7l-0.7-1"/>
<path id="Layer0_5_MEMBER_7_MEMBER_234_1_STROKES" class="st4" d="M56.9,57.9l-1,4.1"/>
<path id="Layer0_5_MEMBER_7_MEMBER_235_1_STROKES" class="st6" d="M55.8,62l-0.2,0.2"/>
<path id="Layer0_5_MEMBER_7_MEMBER_236_1_STROKES" class="st4" d="M55.7,62.2l-0.2,0.1"/>
<path id="Layer0_5_MEMBER_7_MEMBER_237_1_STROKES" class="st6" d="M55.4,62.4l-0.2-0.1"/>
<path id="Layer0_5_MEMBER_7_MEMBER_238_1_STROKES" class="st4" d="M57.5,58.3l-0.9,3.8l-0.3,0.3l-0.5,0"/>
<path id="Layer0_5_MEMBER_7_MEMBER_239_1_STROKES" class="st4" d="M194.1,125.8l0.4,0.2c0.3,0.1,0.6,0,1-0.3
	c0.4-0.3,0.6-0.6,0.7-0.9l0.1-0.2l-0.1-0.3c-0.3-0.7-0.4-1.3-0.6-1.6c-0.2-0.7-0.2-1.3-0.1-1.7l0.2-0.3l0.1-0.1l0.1-0.1
	c0.2-0.1,0.4-0.1,0.5-0.1s0.2,0.2,0.4,0.3l0.1,0.3c0.1,0.3,0.1,0.6,0,1c-0.1,0.4-0.2,0.8-0.5,0.9l-0.2,0.2l-0.1,0.1"/>
<path id="Layer0_5_MEMBER_7_MEMBER_240_1_STROKES" class="st6" d="M23.2,30.4c0-0.4,0-0.7-0.2-0.9c-0.1-0.3-0.3-0.4-0.5-0.4
	c-0.2,0-0.4,0.1-0.5,0.3c-0.1,0.3-0.2,0.5-0.3,0.9c0,0.4,0,0.7,0.2,0.9c0.1,0.3,0.3,0.4,0.5,0.4c0.2,0,0.4-0.1,0.5-0.3
	C23.1,31.1,23.2,30.8,23.2,30.4z"/>
<path id="Layer0_5_MEMBER_7_MEMBER_241_1_STROKES" class="st6" d="M22.7,32.9c0.4,0,0.7-0.2,1-0.7c0.3-0.5,0.5-1,0.5-1.7
	c0-0.7-0.1-1.2-0.3-1.7c-0.2-0.5-0.5-0.8-0.9-0.8"/>
<path id="Layer0_5_MEMBER_7_MEMBER_242_1_STROKES" class="st6" d="M22.5,29.3l-0.2,0.3c-0.1,0.3-0.2,0.6-0.2,0.9s0.1,0.7,0.2,0.9
	l0.1,0.1"/>
<path id="Layer0_5_MEMBER_7_MEMBER_243_1_STROKES" class="st6" d="M23.1,28h-0.4"/>
<path id="Layer0_5_MEMBER_7_MEMBER_244_1_STROKES" class="st6" d="M22.6,28h-0.2c-0.8,0.2-1.2,0.9-1.3,2.1c-0.1,1.2,0.1,2.1,0.8,2.5
	l0.2,0.1l0.2,0.1l0.4-0.1l0,0c0.7-0.3,1.1-1.1,1.2-2.4c0-1.3-0.3-2.1-1-2.4L22.6,28z M22.3,32.9l0.2,0l0.2,0"/>
<path id="Layer0_5_MEMBER_7_MEMBER_245_1_STROKES" class="st4" d="M62.6,86.9l-0.4-0.3"/>
<path class="st8" d="M73,22.9L93.5,7.9l-0.7-1.1l-20.4,15l-1.8-2.4l-7.2,9.8l11.5-3.8l-0.2-0.2L73,22.9z"/>
<path class="st9" d="M284.4,29.6l-0.9,0.9l0.2,5.4l0.7,1.1l0.7,0.4l-2.8,1.4l-1.7,1.4l-0.3,1.4l0.5,7.2l-1.2,0.6l-0.6,1.1l-0.2,1.2
	l2.5,42.3l0.7,1.2l2.2,1.5l-1.2,1l-0.5,1.6l1.1,18l-2,1.4l0.4,5.8l1.8,2.2l0.8,7.3l6,3.1l10.5-1.1l4.2-4.3l-0.3-5.4l1.6-1.5
	l-0.4-5.8l-2-2.4L303,99.3V98l-0.7-1.5l-1.4-0.9l2.1-1.8l0.5-1.6l-2.5-42.8l-1.3-1.3l-1-0.3l-0.5-7.4l-0.4-1.2l-1.5-1.1l-3.1-1.2
	l1.1-1l-0.1-4.9l-0.7-1.6l-1.2-0.6l-1.2-0.1v1.8l-1.1,0.9l-1.3,0.2l-1.2-0.1l-0.8-0.8l-0.2-2L284.4,29.6z"/>
<path id="Layer0_8_MEMBER_1_MEMBER_0_1_STROKES" class="st10" d="M305,126l0.4,5.8l-4.2,4.3l-0.5-7.5"/>
<path id="Layer0_8_MEMBER_1_MEMBER_1_1_STROKES" class="st10" d="M301.2,136.1l-10.5,1.1l-0.5-7.6"/>
<path id="Layer0_8_MEMBER_1_MEMBER_2_1_STROKES" class="st10" d="M290.7,137.2l-6.3-3.4l-0.5-7.1"/>
<path id="Layer0_8_MEMBER_1_MEMBER_3_1_STROKES" class="st10" d="M304.1,116.5l0.1,0.2l0.4,1.3l-0.5,1.3l-1.3,1.2l-0.6,0.4l-1.4,0.6
	l-2.5,0.9l-6,0.6l-3-0.2l-2.5-0.5l-2-0.9l-1-0.8l-0.2-0.4l-0.5-1.2l0.5-1.2"/>
<path id="Layer0_8_MEMBER_1_MEMBER_4_1_STROKES" class="st10" d="M283.7,117.3l-2,1.4l0.7,0.5l1.5,1.4l2.4,2.8l0.3,5.9
	c-1.6-1.2-3.1-2.8-4.5-4.7l-0.4-5.8"/>
<path id="Layer0_8_MEMBER_1_MEMBER_5_1_STROKES" class="st10" d="M286.3,123.4l6.1-0.3"/>
<path id="Layer0_8_MEMBER_1_MEMBER_6_1_STROKES" class="st10" d="M292.4,123.1l6.2,0.5l0.3,5.8l-3,0.2l-9.3-0.4"/>
<path id="Layer0_8_MEMBER_1_MEMBER_7_1_STROKES" class="st10" d="M298.6,123.6l0.4-0.4l3.4-2.3"/>
<path id="Layer0_8_MEMBER_1_MEMBER_8_1_STROKES" class="st10" d="M302.3,120.9l0.7-0.4l3.2-1.5l-2.1-2.6"/>
<path id="Layer0_8_MEMBER_1_MEMBER_9_1_STROKES" class="st10" d="M298.9,129.4c2.4-0.9,5-2.4,7.7-4.5l-0.4-5.8"/>
<path id="Layer0_8_MEMBER_1_MEMBER_10_1_STROKES" class="st10" d="M301,97.8c-0.7,1.3-2.2,2.2-4.3,2.8c-1.5,0.4-3.3,0.7-5.2,0.7
	l-3-0.4l-2.5-0.8l-1.4-1.2l-0.2-1.4"/>
<path id="Layer0_8_MEMBER_1_MEMBER_11_1_STROKES" class="st10" d="M300.9,95.7l1.4,0.9L303,98l-0.5,1.5l-1.7,1.4l-2.7,1.1l-3.2,0.8
	l-3.6,0.2l-3.3-0.3l-2.8-0.8l-1.9-1.2l-0.7-1.4l0.5-1.6l1.2-1"/>
<path id="Layer0_8_MEMBER_1_MEMBER_12_1_STROKES" class="st10" d="M304.2,117.8l-0.5,1.5l-1.7,1.4l-2.6,1.1l-3.3,0.7l-3.5,0.2
	l-3.3-0.3l-2.8-0.9l-1.9-1.2l-0.7-1.5"/>
<path id="Layer0_8_MEMBER_1_MEMBER_13_1_STROKES" class="st10" d="M283.5,123.2l0.4,0.9l0.6,0.7l0.2-0.4l-0.3-1l-0.6-0.6
	L283.5,123.2z"/>
<path id="Layer0_8_MEMBER_1_MEMBER_14_1_STROKES" class="st10" d="M303.8,123.5l-0.6-0.4l-1,0.7l-0.5,0.9l0.6,0.4l1-0.6L303.8,123.5
	z"/>
<path id="Layer0_8_MEMBER_1_MEMBER_15_1_STROKES" class="st10" d="M286.5,30.7l0,0.2l0.2,0.2l0.5,0.2l1.2,0.1l0.7-0.1l1.2-0.3
	l0.3-0.2l0.2-0.2"/>
<path id="Layer0_8_MEMBER_1_MEMBER_16_1_STROKES" class="st10" d="M268.1,14.7c0-1.1,0.5-1.6,1.5-1.6c1,0,1.8,0.5,2.2,1.3
	c0.7,1.6,0.3,2.4-1.2,2.3C269.1,16.7,268.3,16,268.1,14.7z"/>
<path id="Layer0_8_MEMBER_1_MEMBER_17_1_STROKES" class="st10" d="M281.4,94c0.4,1.4,1.7,2.5,4.1,3.1c2.2,0.6,4.7,0.9,7.6,0.7
	c2.9-0.2,5.3-0.8,7.2-1.8c2.2-1,3.2-2.3,3.1-3.8"/>
<path id="Layer0_8_MEMBER_1_MEMBER_18_1_STROKES" class="st10" d="M279.8,49.5c-1.8,2.1-1,3.8,2.5,5.1c3,1.1,5.5,1.4,7.7,1
	c2.3,0.2,4.9-0.4,7.9-1.8c3.5-1.7,4.1-3.5,1.8-5.6"/>
<path id="Layer0_8_MEMBER_1_MEMBER_19_1_STROKES" class="st10" d="M281,51.1c0.1,2.6,3,3.7,8.7,3.5c5.7-0.2,8.8-1.6,9.2-4.1"/>
<path id="Layer0_8_MEMBER_1_MEMBER_20_1_STROKES" class="st10" d="M283.7,38.1c-3.8,1.8-4.5,3.5-1.8,5.1c2.4,1.4,5,1.9,7.8,1.4
	c3.1,0,5.7-0.8,7.6-2.5c2.1-1.9,1.2-3.4-2.8-4.6"/>
<path id="Layer0_8_MEMBER_1_MEMBER_21_1_STROKES" class="st10" d="M287.8,40.9l0.1,0.2l0.3,0.1l0.9,0.2l0.5-0.1l0.5-0.1l0.3-0.2
	l0.2-0.2"/>
<path id="Layer0_8_MEMBER_1_MEMBER_22_1_STROKES" class="st10" d="M283.7,35.9c0.1,1.5,1.9,2.2,5.2,2c3.4-0.2,5.1-1,5.3-2.4"/>
<path id="Layer0_8_MEMBER_1_MEMBER_23_1_STROKES" class="st10" d="M285.3,29.1c-2.2,1-2.5,2-1.2,2.9c1.3,0.9,2.8,1.2,4.4,0.9
	c1.8,0.1,3.4-0.4,4.7-1.4c1.4-1.1,0.9-2.1-1.5-2.8"/>
<path id="Layer0_8_MEMBER_1_MEMBER_24_1_STROKES" class="st10" d="M285.8,134.6l0.9,15.9"/>
<path id="Layer0_8_MEMBER_1_MEMBER_25_1_STROKES" class="st10" d="M304,133.1l1.2,18.8"/>
<path id="Layer0_8_MEMBER_1_MEMBER_26_1_STROKES" class="st10" d="M283.7,118.3l-1.2-19.8"/>
<path id="Layer0_8_MEMBER_1_MEMBER_27_1_STROKES" class="st10" d="M284.4,97.5l0-0.8"/>
<path id="Layer0_8_MEMBER_1_MEMBER_28_1_STROKES" class="st10" d="M303,98l1.2,19.8"/>
<path id="Layer0_8_MEMBER_1_MEMBER_29_1_STROKES" class="st10" d="M300.9,95.7l0.1,2.1"/>
<path id="Layer0_8_MEMBER_1_MEMBER_30_1_STROKES" class="st10" d="M287.8,40.9l-0.2-2.9"/>
<path id="Layer0_8_MEMBER_1_MEMBER_31_1_STROKES" class="st10" d="M290.7,40.6l-0.1-2.9"/>
<path id="Layer0_8_MEMBER_1_MEMBER_32_1_STROKES" class="st10" d="M281.4,94l-2.5-42.3"/>
<path id="Layer0_8_MEMBER_1_MEMBER_33_1_STROKES" class="st10" d="M303.5,92.2L300.9,50"/>
<path id="Layer0_8_MEMBER_1_MEMBER_34_1_STROKES" class="st10" d="M281,51.1l-0.5-9.5"/>
<path id="Layer0_8_MEMBER_1_MEMBER_35_1_STROKES" class="st10" d="M283.7,35.9l-0.2-4.6"/>
<path id="Layer0_8_MEMBER_1_MEMBER_36_1_STROKES" class="st10" d="M298.8,50.5l-0.7-10.1"/>
<path id="Layer0_8_MEMBER_1_MEMBER_37_1_STROKES" class="st10" d="M294.2,35.4l-0.3-5"/>
<path id="Layer0_8_MEMBER_1_MEMBER_38_1_STROKES" class="st10" d="M271.9,16.2l2.2-2.6"/>
<path id="Layer0_8_MEMBER_1_MEMBER_39_1_STROKES" class="st10" d="M274.2,13.6l1.8-1.4l1.2-0.5"/>
<path id="Layer0_8_MEMBER_1_MEMBER_40_1_STROKES" class="st10" d="M277.2,11.7l0.5-0.1l1-0.1"/>
<path id="Layer0_8_MEMBER_1_MEMBER_41_1_STROKES" class="st10" d="M279.2,11.6l-0.5-0.1"/>
<path id="Layer0_8_MEMBER_1_MEMBER_42_1_STROKES" class="st10" d="M279.2,11.6l0.4,0.1l1,0.6"/>
<path id="Layer0_8_MEMBER_1_MEMBER_43_1_STROKES" class="st10" d="M280.6,12.4l0.5,0.4l1.8,2.2"/>
<path id="Layer0_8_MEMBER_1_MEMBER_44_1_STROKES" class="st10" d="M282.8,15.1c1.5,2.6,2.5,6.2,3.2,10.9"/>
<path id="Layer0_8_MEMBER_1_MEMBER_45_1_STROKES" class="st10" d="M286,26l0.5,4.7"/>
<path id="Layer0_8_MEMBER_1_MEMBER_46_1_STROKES" class="st10" d="M268.7,13.3c1.8-2.4,3.8-4.2,5.8-5.2c2.6-1.3,5-1.3,7.5,0
	c3,1.6,5.2,4.9,6.8,10.1c1.1,3.6,1.8,7.7,2.1,12.3"/>
<path id="Layer0_9_MEMBER_1_1_STROKES" class="st11" d="M188.2,79.8h84v27.8h-84V79.8z"/>
<text transform="matrix(1 0 0 1 21.5167 128.0402)"><tspan x="0" y="0" class="st12 st13">CO-PILOT (R/H) Rudder</tspan><tspan x="0" y="14.4" class="st12 st13">Pedal cover assembly</tspan></text>
<text transform="matrix(1 0 0 1 200.4242 99.0381)" class="st12 st14">2100-P30</text>
</svg>
