<?xml version="1.0" encoding="utf-8"?>
<!-- Generator: Adobe Illustrator 24.1.2, SVG Export Plug-In . SVG Version: 6.00 Build 0)  -->
<svg version="1.1" id="Ebene_1" xmlns="http://www.w3.org/2000/svg" xmlns:xlink="http://www.w3.org/1999/xlink" x="0px" y="0px"
	 viewBox="0 0 349.1 161" style="enable-background:new 0 0 349.1 161;" xml:space="preserve">
<style type="text/css">
	.st0{fill:#9C9D9F;}
	.st1{fill:#009FDE;}
	.st2{fill:#E23634;}
	.st3{fill:#905E3A;}
	.st4{fill:#58585A;}
	.st5{fill:none;stroke:#1A181B;stroke-width:0.5;stroke-miterlimit:59.9986;}
	.st6{fill:none;stroke:#1A181B;stroke-width:0.5;stroke-miterlimit:4.9998;}
</style>
<path class="st0" d="M230,27.3l-2.4-4.6l-3.2-4.3l-3.9-3.7l-3.5-2.2l-8-3.6l-3.3-0.8l-6.4-0.7l-5.9,0.4l-8.2,2.2l-4.2,1.6l-4.7-3.4
	L171.4,6L165.8,5l-2.9,0.1c-2.6,0-5.9,0.7-9.9,2.2c-8.1,2.8-15.8,8-22.9,15.4c-7.3,7.4-13.2,15.5-18.1,24.4c-2.4,4.4-4.1,8.2-5,11.3
	l-3.4,10.5c-2.1,8.3-3,15.4-2.6,21.3s1.8,11.4,4.3,16.1c1.3,2.4,2.4,4.2,3.6,5.4l-0.8,1.1l-0.2,1.3l1.7,3.4l1.9,2.9l2.7,3.3
	l11.6,10.8l5.5,6.9l2.6,2.1l3.4,2.1l7.4,3.4l3.4,0.9l3.8,0.6l6.7-0.1l1.4-0.4l12.8,7.4l2.9,1.2l2.9,0.7l6.5,0.5l5.5-0.6l4.5-1.2
	l8.7-3.3l8.8-5l9.9-7.9l10.4-11.1l9.1-11.9l9.4-21.1l1.9-5.8l2.9-13.2l0.6-10.8l-0.3-5.2l-0.9-6l-2.4-8.5l-2.9-5.9l-1.8-2.3
	l-4.6-4.4L230,27.3z"/>
<path class="st1" d="M208,54.8h-0.8l-0.8,0.4l-1.1,1.1l-2.9-1.7l-1.8-0.5l-4.6-2.5l-0.8-0.2l-1.2,0.5l-1.3,1.3l-0.8,1.6l-0.2,1.4
	l-0.1,0.7l-0.3,0.8l-4.7,5.4l-2.1,3.7l-0.8,1.8l-0.7,0.5l-0.9,0.2l-1.1,0.7l-1.2,1.4l-0.6,1.5l-0.1,1.2l0.2,1.2l0.5,0.4l2,1.2
	l0.2,2.7l0.5,2.1l-4.9,4l-0.5,0.6v1.1l0.2,1.2l-2.5,2.1l-0.3,0.9l-0.7,0.6l-0.5,1.9l0.2,0.8l0.4,0.8l0.7,0.8l0.7,0.5l0.6,0.2h1.5
	l0.8-0.8h0.6l2.9-2.2l1.1,0.4h1.1l3.7-2.9l8,4.6l1.2,0.1l1.2-0.5l0.7-0.2l0.6-0.6l0.5-1.2l0.1-0.9l0.7-0.7l2.5-0.6l2.9-1.5l3.6-2.8
	l0.6-0.4l1.8,0.7l1.5-0.8l0.7-0.6l0.7-1.3l0.5-2.1l-0.2-0.6l0.4-0.8l0.2-1.2l-0.2-0.9l0.1-1.4l0.9-2.5l0.8-3.9l0.1-2.8l0.3-0.8
	l0.6-0.7l1.2-0.8l0.6-2.2v-1.3l-0.4-0.8l-0.6-0.4L208,54.8z"/>
<path class="st2" d="M175.4,112.3l-1.3,1.7l-0.6,1.3l-0.3,1.9v30.9l0.2,1.3l0.6,0.8l10.8,6.3l0.7,0.1l1.6-0.4l28.8-16.8l0.5-1.2
	l0.7-3.2l-0.1-31.3l-0.3-0.9L216,102l-10.7-6.2l-0.8-0.1l-1.3,0.4L175.4,112.3z"/>
<path class="st3" d="M221.8,69.6l-1.8,2.5l-0.6,1.5l-0.2,1.7v23.6l-2.3,1.6l-0.4,0.8v1.1l0.4,0.5l0.3,0.9l0.1,7l2.7,1.4l2,3l1.7,1.5
	l4.3,1.8l2.2,0.5v1.3l0.4,0.7l0.5,0.4l0.3,0.8l1.3,0.7l1.1,0.2h1.4l1.2-0.4l0.8-0.6l0.2-0.7l0.6-0.6l0.4-0.8l-0.1-1.1l0.7-0.1
	l3.7-1.3l1.5-0.8l1.5-1.1l1.2-1.2l0.6-1.3l0.9-1.3l2.2-1.2l0.7-0.7l0.2-0.8V101l-0.5-0.6l-1.9-1.2V75.4l-0.2-1.7l-0.7-1.5l-1.8-2.3
	l-2.9-2.2l-3.3-1.3l-1.3-0.2l-1.4-1.5l-0.1-1.7l-1.2-1.3l-0.4-0.2L235,61l-1.2-0.1l-0.9,0.2l-1.5,1.1l-0.5,0.6l-0.4,0.8v1.2
	l-1.4,1.6l-0.9,0.2l-2.9,1.2L221.8,69.6z"/>
<path class="st4" d="M152.7,23.1l-7.4,5.3l-7.8,7.6l-6.5,8.4l-5.5,9.3l-2.2,4.5l4.4,2.3l5-9.5l6.5-9.7l3.5-4.3l6.7-7.2l7.5-6.2
	l9.5-5.7l-6.7,1.7L152.7,23.1z"/>
<path class="st4" d="M117.6,76.7l-0.8,9.6l0.3,4.9l0.8,4.5l1.2,3.6l0.2-9.3l1.6-10.1l2.2-8l-4-2.2L117.6,76.7z"/>
<path id="Layer0_5_MEMBER_6_MEMBER_0_1_STROKES" class="st5" d="M234.8,127.3c-9.5,12.6-20,21.5-31.2,26.6c-2.2,1-4.4,1.8-6.5,2.4
	c-4.9,1.8-9.5,2.5-13.9,2.3c-4.4-0.2-8.4-1.3-11.8-3.2l-10.9-6.3c-7.5,1.1-14.1,0.1-19.6-3.1c-1.3-0.4-2.6-1-4.1-1.9
	c-4.3-2.5-7.7-6-10.3-10.2c-0.1-0.1-0.2-0.3-0.2-0.4L115.2,123l-0.6-0.5c-2.2-2.2-4.1-4.9-5.4-7.8l0,0c-0.2-0.3-0.3-0.5-0.4-0.8
	c-0.3-0.7-0.2-1.4,0.2-1.8l0.8-0.8c-6.1-6.5-8.7-16.2-7.7-28.9s5.1-25.5,12.6-38.5c8.6-14.7,18.8-25.6,30.9-32.6
	c12-7,22.4-7.9,30.8-3c0,0,0,0,0.1,0c0.1,0,0.2,0.1,0.3,0.2c0.3,0.2,0.6,0.4,0.8,0.5l0,0c1.3,0.7,2.5,1.6,3.8,2.7
	c0.1,0,0.1,0.1,0.2,0.2c12.1-5.5,22.7-5.9,31.8-0.8c0.2,0.1,0.3,0.1,0.4,0.2c1.4,0.5,2.8,1.1,4.1,2c5.3,3.1,9.4,7.9,12.2,14.4
	l11.6,6.7c3.6,2,6.4,4.9,8.7,8.6c2.2,3.6,3.9,7.7,4.8,12.5c0.1,0.2,0.1,0.4,0.2,0.6c0.3,1.5,0.6,2.9,0.8,4.5
	c1.6,11.1-0.1,23.4-4.9,37 M167.5,9.6L167.5,9.6l-7-2.5l0,0c-0.4-0.1-0.8-0.2-1.3-0.2c-0.6,0-1.3,0.1-1.7,0.4l-7,4.1
	c0.5-0.3,1.1-0.3,1.9-0.1l0.6,0.2l17.1,6c0.3-0.1,0.7-0.3,1-0.4c1.4-0.8,2.6-1.7,4-2.4c1.9-1,3.7-2,5.4-2.8c-3-1.1-6.4-1.6-9.9-1.3
	 M150.5,11.3L150.5,11.3C150.4,11.3,150.4,11.3,150.5,11.3c-0.9,0.5-1.3,1.6-1.1,2.9l0.2,1.5c0,0.3-0.1,0.6-0.3,1
	c-0.3,0.2-0.4,0.4-0.4,0.5c-0.1,0.1-0.2,0.2-0.3,0.3c0,0-0.1,0-0.1,0.1c-4.8,3.3-9.4,7.4-13.8,12.4c-4.6,5-8.6,10.7-12.1,16.7
	c-1.1,2-2.4,4.4-3.9,7.3 M124,58.7c1.3-2.8,2.6-5.5,4.1-8c5.1-8.8,11.1-16,18.1-21.7c7-5.7,13.8-9.1,20.5-9.9c0.1,0,0.1-0.1,0.2-0.1
	l-9.9-2.9l0.1,3.4 M156.9,15.9l-3.7-1c-0.5,0.1-0.8,0.2-0.9,0.3c-0.2,0.1-0.3,0.5-0.4,0.9l0.2,6.4l-1.5,1.8 M171.2,17.1
	c-0.2,0.2-0.5,0.3-0.7,0.5c-13,8.7-24.2,21.2-33.8,37.6c-1.9,3.3-3.7,6.7-5.2,9.9c-0.1,0.3-0.3,0.6-0.4,0.9
	c-1.4,2.8-2.5,5.6-3.6,8.5c-3.6,9.4-5.6,18.6-6.4,27.7c-0.1,1.3-0.2,2.5-0.2,3.8c0,0.9,0,1.9,0,2.7c0,4.8,0.4,9.1,1.1,13
	c0.5,2.3,1,4.5,1.9,6.6c0,0.1,0.1,0.2,0.1,0.3c0.6,1.7,1.4,3.2,2.2,4.6 M170.5,17.6l-0.3-0.1c-1,0.4-2.1,0.8-3.1,1.4 M181.2,11.2
	c-0.3-0.1-0.6-0.3-0.8-0.4c-3.9-1.6-8-2-12.7-1.4l10.2,3.6 M178.7,22.3c-4.6,2.7-9.1,6.2-13.5,10.2 M109.4,110.9l0.3-0.4
	c-5.5-6.8-7.7-16.3-6.7-28.7c1.1-12.4,5.3-25,12.5-37.5c8.6-14.7,18.8-25.6,30.9-32.6c11.5-6.6,21.3-7.8,29.6-3.8 M128.3,61.1
	c1.4-2.8,2.7-5.4,4.1-7.8c5-8.8,11-16.4,17.9-22.8c5.3-5,10.8-8.9,16.3-11.5 M180.6,11.9c0.3-0.1,0.5-0.3,0.8-0.4 M196.2,15.5
	c-4.1,0.6-8.4,2.1-12.9,4.3 M200.4,15.1c5.3-0.3,10,0.8,14.1,3.2h0.1l15.3,8.8 M177.5,8.6c1,0.7,2,1.5,2.8,2.3 M213.1,10.5
	c-9.7-3.4-21-1.5-34,6c-15,8.7-27.8,22.3-38.5,40.6c-10.7,18.4-15.9,36.4-15.9,53.7s5.3,29,15.9,35.2 M150,18.7
	c-5,3.3-9.7,7.5-14.2,12.6c-4.5,5-8.6,10.7-12.1,16.7c-1.5,2.5-2.7,4.9-3.8,7.2 M215.7,78.7c1.5-3.3,2.1-6.5,2-9.3
	c0-0.1,0-0.2,0-0.2c0-0.2,0.1-0.4,0.2-0.6l0.2-0.4l0.4-0.5c-0.2,0.1-0.4,0.1-0.6,0.1c-0.3,0.2-0.7,0.2-1,0l-0.2-0.2l-0.2-0.1
	c-0.3-0.2-0.5-0.6-0.5-1.1c0-0.5,0.2-1.1,0.5-1.7c0.3-0.6,0.7-1,1.3-1.3c0.4-0.3,0.8-0.3,1.1-0.2l0.2,0.2l0.1,0.1
	c0.3,0.2,0.5,0.5,0.5,0.9c0.2,0.2,0.3,0.5,0.3,0.9c0.2-0.7,0.3-1.4,0.2-1.9s-0.3-0.9-0.6-1.1c0,0-0.1,0-0.1-0.1
	c-0.7-0.4-1.6-0.1-2.5,0.7l-0.4,0.3c-0.3,0.4-0.5,0.5-0.8,0.3l-0.1-0.1c-0.5-0.6-1-1.1-1.7-1.5l-0.1-0.1c-1.6-0.8-3.3-0.9-5.4-0.4
	l0,0c-0.1,0-0.2,0-0.3-0.1c-0.1,0-0.2-0.2-0.2-0.4v-0.1v-0.5c0-0.8-0.2-1.4-0.7-1.7c-0.5-0.3-1-0.2-1.8,0.2c-0.7,0.4-1.4,1-1.8,1.9
	c-0.5,0.8-0.7,1.6-0.7,2.4v0.5c0,0.3,0,0.5-0.2,0.8l-0.3,0.4c-2.2,1.9-4.1,4.3-5.6,6.9c-0.5,0.9-1,2-1.6,3c0,0.1-0.1,0.2-0.1,0.3
	c-0.2,0.4-0.5,0.7-0.8,0.7l-0.4,0.1c-1,0.2-1.9,0.9-2.5,2.2c-0.5,0.8-0.7,1.7-0.7,2.4c0,0.6,0.1,1.1,0.5,1.5
	c0.1,0.1,0.1,0.1,0.2,0.1l0,0l0,0c0.2,0.1,0.6,0.2,1,0.1l0.4-0.1h0.2c0.2,0.1,0.2,0.2,0.2,0.4c-0.2,4,0.8,6.8,2.8,8.4l0,0
	c0.1,0.2,0.1,0.3,0.1,0.3c0,0.1,0,0.2-0.1,0.4l-0.2,0.4c-0.5,0.9-0.7,1.8-0.7,2.5c0,0.7,0.2,1.4,0.6,1.6h0.1
	c0.6,0.4,1.4,0.2,2.2-0.5c-0.1,0-0.1,0-0.2,0c-0.4,0.2-0.7,0.2-0.9,0.1l-0.2-0.2l-0.2-0.1c-0.3-0.2-0.5-0.5-0.5-1
	c0-0.5,0.2-1.1,0.5-1.7c0.3-0.6,0.7-1,1.1-1.3c0.4-0.3,0.8-0.3,1.1-0.2h0.1l0.2,0.2l0.2,0.1c0.3,0.2,0.5,0.5,0.5,0.9
	c0.1,0.1,0.1,0.2,0.2,0.3c0.2-0.4,0.4-0.6,0.7-0.7c3-0.3,6-2,8.9-4.9c0.1-0.1,0.1-0.1,0.2-0.2c0.3-0.2,0.5-0.3,0.7-0.1l0.6,0.5
	c0.4,0.2,0.7,0.2,1.1,0.1 M219.6,62.1l-11.2-6.5l0,0c-0.7-0.4-1.6-0.1-2.5,0.7 M207.1,60l-0.1-0.2c-0.3-0.2-0.7-0.2-1.1,0.1
	c-0.5,0.2-0.9,0.6-1.3,1.3c-0.3,0.6-0.5,1.1-0.6,1.7c0,0.5,0.2,0.9,0.4,1l0.3,0.1l0.2,0.2l0,0c0.3,0.2,0.6,0.2,1,0
	c-0.1,0-0.3-0.1-0.4-0.1c-0.5-0.2-0.7-0.6-0.6-1c0-0.5,0.2-1.1,0.7-1.8c0.5-0.7,1-0.9,1.6-0.7c0.3,0.1,0.5,0.2,0.6,0.4
	c0-0.4-0.2-0.7-0.5-0.9H207.1 M195.8,96.8l-7.8-4.6l-2.1,1.7l-1.3,1l-0.1,0.1c-0.5,0.4-1.4,0.2-2.5-0.4l-0.2,0.2l-1.1,1l-1,0.9
	l-0.1,0.1c-0.2,0.1-0.5,0.1-0.9,0.1l-0.7,0.6c-0.1,0.1-0.2,0.1-0.4,0.1l-1.1,0.1c-0.2,0-0.4-0.1-0.6-0.2c-0.4-0.2-0.8-0.6-1.1-1
	c-0.4-0.5-0.6-1-0.7-1.5c-0.1-0.3-0.1-0.6,0-0.8l0.3-1c0.1-0.2,0.1-0.3,0.2-0.4l0,0l0.6-0.6c0-0.4,0.1-0.7,0.3-0.9l0,0l1-0.9
	l1.1-0.9l0.2-0.2c-0.4-1.4-0.4-2.3,0.2-2.7h0.1l1.3-1l0,0l3.6-2.9c-0.5-1.4-0.7-3-0.7-4.8l-2-1.1c-0.5-0.3-0.7-0.8-0.7-1.7
	s0.2-1.7,0.6-2.5c0.7-1.3,1.6-2,2.6-2.2l0.5-0.1c0.3,0,0.6-0.3,0.8-0.7c0-0.1,0.1-0.2,0.1-0.3c0.4-1,0.9-2.1,1.5-3
	c1.7-2.8,3.6-5.1,5.6-7l0.3-0.4c0.2-0.3,0.3-0.5,0.2-0.8v-0.4c0-0.7,0.2-1.6,0.7-2.5c0.5-0.8,1-1.5,1.8-1.9s1.3-0.4,1.8-0.2l4.4,2.6
	c0.8,0,1.7,0.2,2.4,0.6l11.2,6.5 M182.7,82l1.9-1.5c0.7-0.6,1.8-0.6,3.1,0c1.7,1,2.9,2.8,4,5.3c0.3,0.7,0.5,1.5,0.6,2.2l0.1,0.1v0.4
	l-0.1,0.1v0.1v0.1h-0.1l-4.3,3.3 M177.8,86c0.4,0.4,0.8,0.6,1.4,0.7c0.3,0.1,0.8,0.1,1.6,0.1l1.4-1.1c-0.2-0.2-0.4-0.3-0.7-0.4
	c-1-0.6-1.8-0.7-2.3-0.3 M192.3,81.8l0.2,0.2c0.3,0.2,0.7,0.2,1,0c-0.1,0-0.3-0.1-0.4-0.1c-0.4-0.2-0.6-0.5-0.6-0.9
	c-0.1-0.6,0.1-1.1,0.6-1.8c0.5-0.7,1-0.9,1.6-0.7c0.3,0.1,0.5,0.3,0.7,0.4c-0.1-0.5-0.2-0.8-0.5-0.9l-0.2-0.1l-0.2-0.2
	c-0.3-0.2-0.7-0.2-1.1,0.1c-0.5,0.3-0.9,0.7-1.3,1.3c-0.3,0.5-0.5,1.1-0.5,1.7c0,0.5,0.1,0.9,0.4,1L192.3,81.8 M195.4,78.8
	L195.4,78.8c0.2,0.3,0.3,0.7,0.1,1.3c-0.1,0.4-0.3,0.8-0.5,1.1c-0.2,0.2-0.4,0.4-0.7,0.5c-0.3,0.2-0.5,0.2-0.8,0.2 M195.1,81.3
	c-0.4-0.7-0.7-1.1-1-1.5 M191,82.4l-9-5.1 M192.8,74.6l-6.4-3.7 M218.6,67.6c0.1,0,0.1-0.1,0.2-0.1c0.3-0.1,0.5-0.3,0.7-0.6
	c-0.5-0.8-0.9-1.4-1.1-1.5 M219.9,64.3c-0.1-0.2-0.3-0.3-0.6-0.4c-0.5-0.2-1,0-1.6,0.7c-0.5,0.6-0.7,1.3-0.7,1.8
	c0,0.4,0.2,0.8,0.6,1c0.1,0.1,0.3,0.1,0.4,0.1 M219.6,66.8c0.2-0.3,0.4-0.6,0.5-1.1c0-0.2,0.1-0.3,0.1-0.4 M207.4,63.6
	c-0.4-0.7-0.7-1.3-1.1-1.5 M207.4,63.6c0.2-0.3,0.4-0.7,0.5-1.1c0.1-0.5,0-1-0.2-1.4 M206,64.4c0.3,0,0.6,0,0.8-0.2
	c0.3-0.1,0.5-0.3,0.7-0.5 M213.3,85.2c0.2,0.1,0.5,0.6,1,1.4c0.2-0.2,0.3-0.5,0.4-0.7c0.2-0.5,0.2-1,0-1.5 M215.3,85.1
	c0.2-0.6,0.3-1.3,0.3-1.8 M220.9,71.5c-1.1,1.3-1.7,2.5-1.7,3.9c0,2.4,1.5,4.4,4.3,6c2.9,1.7,6.4,2.5,10.3,2.5
	c4.1,0,7.5-0.8,10.4-2.5c2.8-1.7,4.3-3.7,4.3-6c0-1.4-0.5-2.6-1.6-3.8 M201.1,55.2l-0.6-0.3 M202.1,63.8l-6.9-4 M207.1,36.9
	c-6.7,3.8-13.2,8.9-19.3,15.4s-11.7,13.8-16.4,22c-4.8,8.4-8.6,17-11.1,26 M146,56.3l-1.6,2.6c-2.6,4.6-5,9.4-7.1,14.4 M161.4,36.3
	c-4.3,4.4-8.2,9.2-11.7,14.4 M181.7,94.8c0.3-0.3,0.3-0.8,0.2-1.5c-0.2-0.7-0.6-1.5-1.1-2.2c-0.6-0.8-1.3-1.4-1.9-1.8
	c-0.7-0.4-1.3-0.4-1.6-0.2 M177.8,88.6l-0.2,0.2 M175.4,91.4l-0.6,0.5 M175.1,91c0.3-0.2,0.8-0.2,1.5,0.2s1.3,0.9,1.9,1.8
	c0.6,0.8,0.9,1.6,1.1,2.3c0.1,0.6,0.1,1.1-0.1,1.4 M176.1,90c0.3-0.2,0.8-0.1,1.6,0.2c0.7,0.4,1.4,0.9,1.9,1.8
	c0.5,0.8,0.9,1.6,1,2.3c0.2,0.7,0.2,1.3-0.1,1.6 M176.2,97.7c0.1,0,0.2,0,0.2-0.1c0.2-0.2,0.2-0.5,0.2-0.9c-0.1-0.5-0.4-0.9-0.7-1.5
	c-0.4-0.5-0.8-0.9-1.1-1.1s-0.7-0.3-0.9-0.1c-0.1,0-0.1,0.1-0.1,0.2 M174,92.5c0.3-0.2,0.7-0.1,1.3,0.2c0.5,0.3,1,0.8,1.6,1.5
	c0.5,0.7,0.8,1.4,0.9,2c0.1,0.6,0.1,1-0.2,1.3 M178.5,96.9l0.6-0.5 M157.2,116c-0.4,4.4-0.4,8.5-0.1,12.4 M173.6,117.4v30.7
	c0,1,0.3,1.8,0.9,2.1l10.7,6.1c-0.5-0.3-0.8-0.9-0.8-2v-30.7c0-1,0.3-2.1,0.8-3c0.7-1.1,1.5-2,2.3-2.4l26.6-15.4
	c0.7-0.4,1.4-0.5,2-0.4l-10.4-6.1c-0.6-0.3-1.4-0.2-2.2,0.2l-26.6,15.4c-0.8,0.5-1.7,1.3-2.3,2.4
	C173.8,115.4,173.6,116.5,173.6,117.4z M212.3,87.3c-0.5-0.3-0.7-0.8-0.4-1.6 M212.8,87.5c-0.2,0-0.3-0.1-0.5-0.2 M212.8,87.5
	c0.3,0.1,0.7-0.1,1-0.3c0.2-0.1,0.3-0.3,0.4-0.4 M210.8,86c0,0.6,0.2,1,0.5,1.3l0.4,0.3c0.3,0.2,0.6,0.1,1,0 M216.4,102.5l-0.3-0.1
	 M216.4,102.5L216.4,102.5c-0.1-0.1-0.2-0.1-0.3-0.1 M217.4,135.4l-0.1-30.7l0,0c0.1-0.9-0.2-1.7-0.8-2.1 M199.9,93.2
	c-0.1-0.2-0.4-0.4-0.6-0.5c-0.5-0.2-1,0.1-1.6,0.7c-0.5,0.6-0.7,1.1-0.7,1.8c0,0.4,0.2,0.8,0.6,1c0.1,0.1,0.2,0.1,0.3,0.1
	 M198.1,96.4c0.2,0,0.5-0.1,0.7-0.2c0.3-0.1,0.5-0.3,0.7-0.5c-0.4-0.7-0.7-1.1-1-1.5 M199.5,95.6c0.3-0.3,0.4-0.7,0.5-1.1
	c0.1-0.3,0.1-0.6,0-0.9 M185.8,93.9c0.5-0.4,0.6-1.3,0.3-2.3c-0.1-0.4-0.2-0.8-0.4-1.3l-1.4,1.1c-0.2,1-0.2,2.3,0.2,3.6 M182.5,93.4
	c0.3-0.2,0.3-0.6,0.2-1.3c-0.2-0.6-0.5-1.3-0.9-2c-0.5-0.7-1-1.3-1.6-1.6c-0.5-0.3-0.9-0.4-1.3-0.2 M182.3,94.3l-0.4,0.3
	 M185.7,90.2c-0.3-0.7-0.8-1.5-1.4-2.3c-0.7-0.9-1.5-1.7-2.2-2.3 M184.4,91.4c-0.6-0.6-1.8-2.2-3.6-4.6 M242.6,37.1
	c-9.4-5.4-20.7-4.3-34,3.3C195.3,48,184,60,174.6,76.2c-4.7,8-8.3,16.4-10.7,25 M118.6,54.1l-0.2,0.4c-0.3,0.6-0.7,1.1-1.3,1.5
	c-0.5,0.3-0.9,0.5-1.4,0.4l-1.9-0.4 M123.2,57.5l-0.7,0.4l-3.7-0.4 M131,66.2l-17.3-9.9c-1.1,2.6-2.3,5.4-3.3,8.7l3.3,1.9l13.8,7.9
	 M118.3,57.7l13.1,7.5 M119.3,72.3c-1.5,6-2,11.5-1.7,16.7c0.2,4.1,1,7.7,2.3,11c-0.6-7.6,0.4-16,3.2-25.1 M121,102.4
	c-0.4-0.7-0.7-1.6-1.1-2.4c0.2,2.1,0.5,4.2,0.9,6.2 M117.8,105.5v-3.2 M112.9,105C112.9,105,112.9,105.1,112.9,105 M112.9,105
	c0.2,1,0.2,1.8-0.1,2.2l-3,3.2 M117.6,105.7l-4.7,5.1c-0.2,0.3-0.3,0.6-0.3,1.1c0,0.5,0.2,0.9,0.5,1.5s0.6,0.8,0.8,1l8,7.3
	 M114.3,69.4c-2,6.8-3,13.3-3.1,19.3c-0.1,6.2,0.6,11.5,2.4,16.2 M113.6,66.7c-2.3,7.3-3.4,14.3-3.6,21c-0.1,6.6,0.8,12.4,2.9,17.2
	 M123.7,128.5l-14.2-13.1l-0.7-0.8 M130.2,101.6c-0.5,5.5-0.4,10.8,0.4,15.6 M135.1,79.2c-2.1,5.9-3.4,11.6-4.3,17.2 M185.2,156.4
	C185.2,156.5,185.2,156.5,185.2,156.4c0.1,0,0.1,0,0.1,0.1c0.6,0.4,1.4,0.3,2.2-0.2 M191.8,153.8l22.4-13 M160.7,117.9
	c-0.7,8.7,0.2,16.3,2.5,22.7c2.4,6.5,6.2,11.2,11.3,14.1c6.5,3.8,14,4.3,22.5,1.7 M160.4,149.3l-16-9.3c-6.3-3.7-10.6-9.8-12.9-18.5
	 M255.1,55c-2.1-8.4-6.3-14.3-12.5-17.9 M118.6,54.1L118.6,54.1 M185.1,156.4L185.1,156.4"/>
<path id="Layer0_5_MEMBER_6_MEMBER_1_1_STROKES" class="st5" d="M224.1,23.2l-0.2,0.4 M224.8,22.3c-0.3,0.2-0.6,0.4-0.8,0.8
	 M225.5,22.2c-0.2-0.1-0.5-0.1-0.7,0.1 M225.5,22.2l-1.6-0.9l0,0c-0.2-0.1-0.4,0-0.7,0.1c-0.3,0.2-0.6,0.4-0.7,0.7l-0.2,0.4
	 M225.3,24.5l0.3-0.4c0.2-0.3,0.3-0.7,0.3-1s-0.1-0.6-0.3-0.7l0,0 M178.8,21L178.8,21l1.7,0.9c-0.2-0.1-0.3-0.4-0.3-0.7
	c0-0.3,0.1-0.6,0.3-1c0.2-0.3,0.4-0.6,0.7-0.7c0.2-0.2,0.4-0.2,0.6-0.1l-1.6-0.9c-0.4-0.1-0.9,0.1-1.4,0.8c-0.2,0.4-0.4,0.7-0.3,1
	C178.5,20.5,178.6,20.9,178.8,21z M161.7,32.1c-0.3,0.2-0.6,0.4-0.7,0.8c-0.2,0.4-0.3,0.7-0.3,1s0.1,0.6,0.3,0.7l1.6,0.9
	c-0.2-0.1-0.3-0.4-0.3-0.7s0.1-0.7,0.3-1c0.2-0.3,0.5-0.6,0.7-0.7c0.3-0.2,0.5-0.2,0.7-0.1l-1.6-1l0,0
	C162.2,31.9,161.9,31.9,161.7,32.1z M164,33L164,33c0.3,0.2,0.3,0.4,0.3,0.7c0,0.3-0.1,0.7-0.3,1c-0.2,0.4-0.4,0.6-0.7,0.8
	c-0.3,0.2-0.5,0.2-0.7,0.1 M199.3,12.5c-0.2-0.1-0.4-0.1-0.7,0.1c-0.3,0.2-0.6,0.4-0.7,0.7c-0.2,0.4-0.3,0.7-0.3,1s0.1,0.6,0.3,0.7
	c0.2,0.1,0.4,0.1,0.7-0.1c0.3-0.2,0.5-0.4,0.7-0.8c0.2-0.3,0.3-0.6,0.3-0.9C199.7,12.9,199.6,12.7,199.3,12.5L199.3,12.5L199.3,12.5
	z M199.3,12.5l-1.6-0.9c-0.2-0.1-0.5,0-0.7,0.1c-0.3,0.2-0.5,0.4-0.7,0.7c-0.2,0.3-0.3,0.7-0.3,1s0.1,0.5,0.3,0.6l1.6,0.9
	 M180.5,21.9c0.2,0.1,0.4,0.1,0.7-0.1c0.3-0.2,0.5-0.4,0.7-0.7c0.2-0.3,0.3-0.6,0.3-0.9s-0.1-0.6-0.3-0.7l0,0l0,0l0,0 M212.8,13.2
	c-0.3,0.2-0.5,0.5-0.7,0.8c-0.2,0.4-0.3,0.7-0.3,1s0.1,0.6,0.3,0.7l1.4,0.8c-0.1-0.1-0.2-0.3-0.2-0.6c0-0.3,0.1-0.7,0.3-1
	c0.2-0.4,0.4-0.6,0.7-0.8c0.3-0.2,0.5-0.2,0.7-0.1l-1.6-0.8l0,0C213.3,13,213.1,13,212.8,13.2z M213.4,16.7l0.1,0.1
	c0.5,0.2,1-0.1,1.6-0.9c0.2-0.3,0.3-0.7,0.3-1c0-0.3-0.1-0.6-0.3-0.7l0,0 M199.2,78.2l0.1-0.2l0.2-0.7c0.4-1.3,0.8-2.2,1.3-2.8
	c0.7-1.3,1.6-2.4,2.5-3.3c1.4-0.9,3.2-1.5,5.7-1.5l2,1.1c0.5,1,0.9,1.9,1.1,2.6c0.2,0.4,0.3,0.9,0.3,1.5l-0.1-0.8
	c0-0.2-0.1-0.4-0.1-0.6c-0.2-0.6-0.6-1-1.1-1.4c-0.6-0.3-1.3-0.4-1.9-0.3c-0.2,0-0.5,0.1-0.7,0.2c-0.3,0.1-0.6,0.2-0.9,0.4
	c-1.5,0.8-2.6,2.1-3.7,3.8c-1,1.8-1.5,3.4-1.5,5c0,0.5,0,0.9,0.1,1.4l0.1,0.1v0.2c0.2,0.7,0.6,1.4,1.3,1.7c0.6,0.4,1.4,0.4,2.2,0.2
	c0.3-0.1,0.6-0.2,0.9-0.3 M200.8,84.1l2,1.1c0.1-0.4,0.1-0.6,0.1-0.8l-0.3-1.6c0-0.1-0.1-0.2-0.1-0.3l-0.8-2.3l-0.1-0.3l-0.2-0.2
	v-0.2h-0.1l-2-1.1c0,0.4,0.1,1.4,0.2,2.6c0,0.2,0.3,0.9,0.8,2.4l0.2,0.2l0.1,0.2L200.8,84.1L200.8,84.1z M203.4,71l2,1.1
	c1.1,0,2.2-0.1,3-0.3 M205.4,72.2L205.4,72.2l-0.3,1c-0.4,1.3-0.9,2.3-1.3,2.9c-0.5,0.9-1.4,2-2.6,3.3 M209.2,71.6
	c0.7-0.2,1.5-0.5,1.9-0.9 M207.2,78.1c-0.7,1.3-1,2.5-1,3.8c0,1.1,0.3,2,1,2.5l1.5,0.8c-0.7-0.4-1-1.3-1-2.4c0-1.3,0.4-2.5,1.1-3.8
	c0.7-1.3,1.7-2.2,2.7-2.8c1-0.6,1.9-0.7,2.5-0.3l-1.5-0.8c0,0-0.1,0-0.1-0.1c-0.7-0.4-1.6-0.3-2.6,0.3
	C208.9,75.9,208,76.9,207.2,78.1z M207.2,84.4l-1.6-0.9c0,0,0,0-0.1,0c-0.7-0.4-1-1.3-1-2.4s0.4-2.4,1.1-3.7
	c0.7-1.3,1.6-2.2,2.6-2.8c1-0.6,1.9-0.7,2.6-0.3l1.5,0.8 M202.7,85.2c1.1,0,2.3-0.2,3.2-0.5 M208.8,85.2c0.6,0.3,1.3,0.3,2,0
	c-0.2,0-0.3-0.1-0.5-0.2h-0.1c-0.6-0.3-0.8-1-0.8-2c0-1,0.4-2.1,0.9-3.1c0.5-1,1.4-1.9,2.2-2.3c0.9-0.5,1.7-0.6,2.2-0.2
	c0.2,0.1,0.3,0.2,0.4,0.4c-0.1-0.8-0.4-1.4-1-1.7c0,0,0,0-0.1,0h-0.1 M215.3,77.6c0.4,0.4,0.5,1.1,0.4,2.1c0.1,0.2,0.2,0.5,0.2,0.9
	c0,0.7-0.2,1.4-0.6,2.1c-0.4,0.7-0.9,1.3-1.5,1.6c-0.4,0.2-0.7,0.3-1,0.3c-0.7,0.5-1.4,0.7-2,0.6 M215.7,79.7
	c-0.1-0.2-0.2-0.3-0.4-0.4c-0.4-0.2-0.9-0.2-1.5,0.2c-0.6,0.3-1,0.8-1.5,1.6s-0.6,1.5-0.6,2.1s0.2,1.1,0.6,1.4
	c0.1,0.1,0.3,0.1,0.4,0.1 M146,50.9c-0.2-0.1-0.4-0.1-0.6,0.1c-0.3,0.2-0.5,0.5-0.7,0.8c-0.2,0.4-0.3,0.7-0.3,1s0.1,0.6,0.3,0.7
	l1.5,0.8c-0.1-0.1-0.2-0.3-0.2-0.6c0-0.3,0.1-0.6,0.3-1s0.4-0.6,0.7-0.8c0.3-0.2,0.5-0.2,0.7-0.1L146,50.9L146,50.9z M146.1,54.6
	L146.1,54.6c0.3,0.2,0.5,0.2,0.8,0c0.3-0.2,0.5-0.4,0.7-0.8c0.5-0.9,0.5-1.5,0-1.8 M209,112.7c0.4,0.1,0.8,0.3,1.3,0.5
	c2.6,1.5,4,4.4,4,8.7s-1.3,8.7-3.9,13.3s-5.9,7.9-9.5,10c-3.3,2-6.3,2.4-8.7,1.4c-0.3-0.1-0.5-0.2-0.8-0.4c-0.8-0.5-1.7-1.1-2.2-2
	c-0.4-0.5-0.7-1.1-0.9-1.9c-0.3-0.7-0.5-1.6-0.6-2.5c-0.1-0.6-0.1-1.3-0.1-1.9c0-0.1,0-0.3,0-0.4c0-0.4,0-0.9,0.1-1.4
	c0-0.2,0-0.5,0.1-0.7c0.1-0.8,0.2-1.8,0.4-2.6c0.2-0.9,0.4-1.9,0.7-2.8c0,0,0-0.1,0.1-0.1c0.3-0.8,0.6-1.6,0.9-2.4
	c0.1-0.2,0.2-0.5,0.4-0.7c0.2-0.5,0.5-1,0.7-1.5c0.2-0.3,0.3-0.6,0.5-0.9c0.2-0.4,0.4-0.7,0.6-1.1c0.4-0.7,0.9-1.4,1.4-2
	c0.4-0.6,0.9-1.1,1.4-1.8c0.2-0.3,0.4-0.5,0.7-0.8c0.3-0.3,0.5-0.5,0.8-0.8c0.5-0.5,1-1,1.6-1.5c0.5-0.4,1-0.8,1.7-1.3
	c0.4-0.3,0.8-0.5,1.3-0.7c0.1-0.1,0.3-0.2,0.4-0.2c0.6-0.3,1.1-0.6,1.7-0.8c0.6-0.3,1.3-0.5,1.9-0.6c0.5-0.1,1-0.2,1.6-0.2
	c0.2,0,0.4,0,0.6,0C207.7,112.4,208.3,112.5,209,112.7z M209,112.7l0.5,0.2l0.1,0.1c0,0,0.1,0,0.1,0.1c0.5,0.3,1,0.7,1.5,1.3
	c0.5,0.5,0.9,1.1,1.3,1.8c0.3,0.6,0.5,1.3,0.6,2c0.2,1,0.4,2.3,0.4,3.7c0,0.4,0,0.7,0,1c0,0.3,0,0.5,0,0.8c-0.1,0.6-0.1,1.1-0.2,1.8
	c-0.1,0.4-0.1,0.8-0.2,1.1c-0.1,0.5-0.2,1-0.4,1.6c-0.1,0.3-0.2,0.7-0.3,1c-0.5,1.5-1.1,2.9-2,4.5c-0.2,0.3-0.3,0.6-0.5,0.9
	c-0.1,0.1-0.1,0.2-0.2,0.2c-0.2,0.3-0.3,0.6-0.5,0.8c-0.4,0.6-0.8,1.4-1.3,2c-0.4,0.6-0.9,1.3-1.4,1.8c-0.5,0.5-0.9,1.1-1.5,1.6
	c-1,1-2.2,2-3.3,2.8c-0.2,0.1-0.3,0.2-0.5,0.3c-0.4,0.3-0.8,0.5-1.3,0.7c-0.6,0.3-1.3,0.6-1.9,0.9c-0.7,0.3-1.4,0.5-2.1,0.6
	c-0.8,0.1-1.6,0.2-2.3,0.1c-0.5,0-0.9-0.1-1.4-0.2 M217.5,110.9l2.5,1.5v-7.9l-0.1-0.1l-2.4-1.4c-0.6-0.4-0.9-0.9-0.9-1.4
	c0-0.5,0.3-1,0.9-1.4l1.7-0.9V75.6 M219.3,99.1v2.4c0,0.8,0.2,1.8,0.6,2.7 M216.1,109.4c-0.3,0.5-0.7,0.8-1.1,1
	c-0.4,0.2-0.8,0.2-1.1,0.1l0,0c-0.1-0.1-0.2-0.1-0.2-0.2l-1.7-1c-0.4-0.2-0.5-0.6-0.5-1.1c0-0.6,0.2-1.1,0.6-1.8
	c0.4-0.6,0.8-1,1.3-1.4c0.5-0.3,0.9-0.3,1.3-0.1l2,1.1c0.3,0.2,0.5,0.5,0.5,1c0,0.5-0.1,1-0.3,1.6 M216.4,105.8
	c-0.3-0.2-0.7-0.1-1.1,0c-0.5,0.2-0.9,0.6-1.3,1 M213.5,107.9c-0.2,0.6-0.3,1.1-0.3,1.6c0,0.3,0.1,0.6,0.3,0.8 M213.1,107.1l3,1.8
	 M197.8,116.3l0.4,0.7l1.8-1l-0.5-0.9 M195.3,118.6l1-0.4l-0.2-0.4 M198.3,117l-1.9,1l1,1.8l1.9-1L198.3,117z M193.2,121.1l0.5,0.9
	l1.8-1l-0.9-1.6 M192.1,123.4l0.8,1.6l1.9-1l-1-1.8l-1.9,1 M190.9,123.3c0.6-1.4,0.5-2.3-0.2-2.6c-0.3-0.2-0.7-0.1-1.1,0.1
	c-0.4,0.2-0.8,0.6-1.1,1.1 M198.5,121.7l1,1.8l1.8-1l-1-1.8L198.5,121.7z M198.5,121.7l-1-1.8l-1.9,1l1,1.8L198.5,121.7z
	 M196.7,122.8l-1.8,1l1,1.8l1.8-1L196.7,122.8z M199.5,123.6l1,1.8l1.8-1l-1-1.8l1.8-1l-1-1.8l-1.8,1l-1-1.9l1.8-1l-1-1.8l1.7-0.9
	l-0.6-1 M197.7,124.6l1.9-1 M190.7,120.6l-1.9-1.1c-0.4-0.2-0.8-0.1-1.3,0.2c-0.5,0.3-1,0.7-1.4,1.4s-0.5,1.3-0.5,1.8
	c0,0.5,0.2,0.9,0.5,1.1l1.6,0.9c-0.1-0.2-0.2-0.4-0.2-0.7c0-0.5,0.1-1,0.3-1.6 M187.8,125l0.3,0.2 M187.8,125
	c0.1,0.1,0.2,0.2,0.3,0.2l0,0c0.3,0.2,0.7,0.1,1.1-0.1c0.4-0.2,0.8-0.5,1.3-1 M187.8,132.8l1.9-1l-1-1.8 M187.8,132.8l1,1.8l1.9-1
	l-1-1.8l1.8-1l-1-1.8l-1.8,1 M188,137.5l1,1.8l1.8-1l-1-1.8L188,137.5z M188,137.5l-0.7-1.3 M189.9,136.4l-1-1.8l-1.5,0.8
	 M188,137.5l-0.8,0.5 M196.9,127.5l-1.9,1l1,1.9l1.9-1L196.9,127.5z M196.9,127.5l-1-1.8l-1.9,1l1,1.8l-1.8,1l1,1.9l1.8-1l1,1.9
	l1.9-1l-1-1.8l1.8-1l-1-1.9L196.9,127.5z M192.2,127.7l1.8-1l-1-1.8l-1.8,1L192.2,127.7z M192.2,127.7l1,1.8l-1.8,1l1,1.8l1.8-1
	l1,1.9l1.8-1l1,1.8l1.9-1l-1-1.8l1.8-1l-1-1.8l1.9-1l-1-1.9l-1.9,1l-1-1.8 M192.2,127.7l-1.9,1l-0.8-1.4 M192.5,132.6l1,1.8l1.8-1
	l1,1.8l1.8-1l1,1.9l1.9-1l-1-1.8l1.8-1l-1-1.8l1.9-1l-1-1.8l1.8-1l-1-1.9l1.8-1l-1-1.8l1.7-0.9l-1-1.8l-1.7,0.9l-1-1.9l1.7-0.9
	l-1-1.8l1.7-0.9l-0.5-0.9 M189.9,136.4l1.9-1l-1-1.8l1.8-1 M190.9,138.3l1,1.9l1.9-1l-1-1.9L190.9,138.3z M191.7,135.4l1.9-1l1,1.8
	l1.8-1l1,1.8l1.8-1l1,1.9l1.9-1l-1-1.9l1.8-1l-1-1.8l1.9-1l-1-1.8l1.8-1l-1-1.8l1.8-1l-1-1.9l1.7-0.9l-1-1.8l1.7-0.9l-1-1.8
	l-1.7,0.9l-1-1.9l1.7-0.9l-1-1.8l1.7-0.9l-0.3-0.5 M193.9,139l1.9-1l-1-1.9l-1.9,1l-1-1.8 M195.6,138l1,1.9l1.8-1l-1-1.9L195.6,138z
	 M189.9,126.7l1.3-0.7l-0.4-0.8 M187.5,121.9l3,1.8 M212.5,116.2l-0.9,0.5l1,1.8l0.5-0.3 M213.5,123.7l-0.4-0.6l-1.7,0.9l1,1.9
	l0.8-0.4 M213.4,120.4l-1.4,0.7l1,1.8l0.4-0.2 M213.4,119.8l-0.8-1.4l-1.7,0.9l1,1.9l-1.7,0.9l1,1.8l-1.7,0.9l1,1.9l1.7-0.9l0.5,0.8
	 M209.5,112.9l-1.7,0.9l1,1.8l1.7-0.9l-0.7-1.7 M210.6,114.8l0.7-0.5 M207.9,114l-1.7,0.9l1,1.9l1.7-0.9l1,1.8l1.7-0.9l-1-1.8
	 M206.6,119.5l1.7-0.9l-1-1.8l-1.7,0.9l-1-1.9l1.7-0.9l-1-1.8l1.3-0.7 M208.3,118.6l1,1.8l1.7-0.9l-1-1.8L208.3,118.6z M207.7,121.4
	l1,1.9l1.7-0.9l-1-1.9L207.7,121.4z M207.7,121.4l-1-1.8 M208.7,123.2l-1.7,0.9l1,1.8l1.7-1L208.7,123.2z M207,124.2l-1.7,0.9l1,1.8
	l1.7-0.9l1,1.8l1.7-0.9l1,1.8l0.7-0.4 M205.9,122.3l1.7-0.9 M205.9,122.3l1,1.9 M206.4,126.9l1,1.8l1.7-0.9l1,1.8l1.7-0.9l0.4,0.6
	 M206.6,131.7l1,1.9l1.8-1l-1-1.9L206.6,131.7z M206.6,131.7l-1-1.8l-1.8,1l1,1.8L206.6,131.7z M210.2,129.6l1,1.9l-1.7,0.9l0.8,1.3
	 M210.2,129.6l-1.7,0.9l-1-1.9l-1.8,1l-1-1.8l1.8-1 M204.8,132.8l1,1.9l1.8-1l1,1.8l1-0.6 M200.3,137.8l1,1.8l1.9-1l-1-1.9l1.8-1
	l-1-1.9l1.9-1 M205,137.5l1.9-1l-1-1.8l-1.9,1L205,137.5z M205,137.5l1,1.8l0,0 M205,137.5l-1.8,1l1,1.8l1.8-1l0.2,0.4 M208.7,135.4
	l0.3,0.5 M208.7,135.4l-1.8,1l0.8,1.5 M211.7,139.3c-0.3-0.2-0.5-0.6-0.5-1.1c0-0.6,0.2-1.3,0.5-1.9c0.4-0.6,0.8-1,1.4-1.4
	c0.5-0.3,0.9-0.4,1.3-0.2l1.8,1c0.1,0,0.2,0,0.2,0.1l0,0c0.6,0.4,0.7,1.4,0.2,2.7 M216.4,135.8l-0.2-0.1c-0.3-0.1-0.6,0-0.9,0.1
	c-0.4,0.2-0.8,0.6-1.1,1 M207.9,114l-0.8-1.6 M231,119.3c-0.3,0-0.5-0.1-0.8-0.1c0.2,0.5,0.6,1,1.4,1.4c0.7,0.4,1.7,0.5,2.6,0.5
	c1,0,1.9-0.2,2.6-0.5c0.7-0.3,1.3-0.8,1.4-1.4l0.1,0.9c-0.1,0.5-0.4,1-1,1.4c0,0.5-0.3,0.9-0.8,1.4c-0.6,0.3-1.3,0.5-2.1,0.5
	s-1.6-0.2-2.2-0.5c-0.6-0.4-0.8-0.8-0.8-1.4c-0.6-0.4-1-0.9-1-1.5v-0.8c-2.2-0.4-4.2-1-5.9-2.1c-1.9-1.1-3-2.4-3.6-4
	c-0.2-0.2-0.3-0.5-0.5-0.7 M136.5,75c-0.2-0.1-0.4-0.1-0.6,0.1c-0.3,0.2-0.5,0.4-0.7,0.7c-0.2,0.4-0.3,0.7-0.3,1
	c0,0.3,0,0.6,0.2,0.6l0,0c0.2,0.1,0.4,0.1,0.7-0.1c0.3-0.1,0.5-0.4,0.7-0.7C137,75.9,137,75.3,136.5,75L136.5,75L136.5,75z
	 M136.5,75l-1.6-0.9c-0.4-0.2-0.9,0.1-1.6,0.8c-0.2,0.3-0.3,0.7-0.3,1c0,0.3,0.1,0.5,0.2,0.6l0,0l0,0l1.7,0.9 M128.3,96.5
	c-0.3,0.2-0.5,0.4-0.7,0.7c-0.2,0.4-0.3,0.7-0.3,1s0.1,0.6,0.3,0.7l1.6,0.9c-0.2-0.1-0.3-0.4-0.3-0.7c0-0.3,0.1-0.6,0.3-1
	c0.2-0.3,0.4-0.6,0.7-0.7c0.2-0.2,0.5-0.2,0.7-0.1l-1.5-0.9c0,0,0,0-0.1,0C128.9,96.4,128.6,96.4,128.3,96.5z M129.2,100.1
	c0.2,0.1,0.4,0.1,0.7-0.1c0.3-0.2,0.5-0.4,0.7-0.7c0.2-0.3,0.3-0.7,0.3-1c0-0.3-0.1-0.5-0.3-0.6l0,0l0,0 M128.6,121.2l-1.6-0.9
	 M128.6,121.2c-0.2-0.1-0.3-0.4-0.3-0.7c0-0.3,0.1-0.7,0.3-1.1c0.2-0.4,0.4-0.6,0.7-0.8c0.2-0.2,0.5-0.2,0.6-0.1l-1.5-0.8h-0.1
	c-0.2-0.1-0.5-0.1-0.7,0.1c-0.3,0.2-0.5,0.4-0.7,0.8c-0.2,0.4-0.3,0.7-0.3,1c0,0.3,0.1,0.6,0.3,0.7 M130,118.4L130,118.4
	c0.3,0.2,0.4,0.4,0.4,0.7c0,0.3-0.1,0.6-0.3,1c-0.2,0.4-0.5,0.6-0.7,0.8c-0.3,0.2-0.5,0.2-0.7,0.1 M136,134.6
	c-0.2-0.1-0.4,0-0.6,0.1c-0.3,0.2-0.5,0.4-0.7,0.8c-0.2,0.4-0.3,0.7-0.3,1c0,0.3,0.1,0.5,0.2,0.6h0.1c0.2,0.1,0.4,0.1,0.7-0.1
	c0.3-0.2,0.5-0.4,0.7-0.8c0.2-0.3,0.3-0.7,0.3-1C136.4,135.1,136.3,134.9,136,134.6C136.1,134.6,136.1,134.6,136,134.6z M136,134.6
	l-1.6-0.8h-0.1c-0.2-0.1-0.4-0.1-0.6,0.1c-0.3,0.2-0.5,0.4-0.7,0.8c-0.2,0.4-0.3,0.7-0.3,1c0,0.3,0.1,0.6,0.3,0.7l1.6,0.9
	 M213.5,137.9c-0.2,0.6-0.3,1.1-0.2,1.6c0,0.5,0.2,0.8,0.5,0.9c0.3,0.2,0.7,0.2,1.1-0.1c0.5-0.2,0.9-0.5,1.3-1 M203.3,142.8
	l-0.8-1.5l-1.8,1l0.9,1.7 M202.4,141.4l-1-1.8l-1.8,1l1,1.8l-1.8,1l0.9,1.8 M204.9,141.3l-0.6-1l-1.9,1 M196.8,139.9l1,1.8l1.8-1
	l-1-1.8l1.8-1 M197,144.6l1.9-1l-1-1.8l-1.9,1L197,144.6z M197,144.6l0.9,1.6 M192,140.2l1,1.9l1.8-1l-1-1.9 M191.2,143l1,1.8l1.8-1
	l-1-1.8L191.2,143z M191.2,143l-1-1.9l-1.5,0.8l1,1.9L191.2,143z M191,153.5c0.2-0.5,0.3-1,0.3-1.6c0-0.5-0.2-0.8-0.5-1
	c-0.1,0-0.1-0.1-0.1-0.1c-0.3-0.1-0.6,0-1,0.1c-0.4,0.2-0.8,0.5-1.1,1 M195.8,146.8l-0.6-1.1l-1.8,1l0.1,0.3 M193.3,146.7l-1-1.8
	l-1.5,0.8l-1-1.8l-0.7,0.4 M196.8,139.9l-1.9,1l1,1.8l-1.8,1l1,1.8l1.8-1 M189.1,139.3l1,1.9l1.8-1 M188,142.4l0.6-0.4l-1-1.9
	l-0.2-0.3 M189.1,139.3l-1.5,0.8 M190.6,150.7l-1.9-1c-0.3-0.2-0.7-0.1-1.3,0.2c-0.5,0.3-0.9,0.7-1.3,1.4c-0.4,0.6-0.5,1.3-0.5,1.9
	c0,0.6,0.1,1,0.5,1.1h0.1 M187.9,155.3l0.2,0.1 M187.9,155.3l0.1,0.1l0,0c0.3,0.2,0.7,0.2,1.1,0c0.5-0.2,0.9-0.5,1.3-1 M186.1,154.3
	l1.9,1c-0.2-0.2-0.3-0.5-0.4-0.9c0-0.5,0.1-1,0.3-1.6 M187.5,152.1l3,1.8 M147.8,144.4c-0.2-0.1-0.5-0.1-0.7,0.1
	c-0.3,0.2-0.5,0.4-0.7,0.8c-0.2,0.4-0.3,0.7-0.3,1c0,0.2,0,0.4,0.1,0.6c0,0,0.1,0.1,0.2,0.1c0.2,0.1,0.4,0.1,0.7-0.1
	c0.3-0.2,0.5-0.4,0.7-0.8c0.2-0.3,0.3-0.7,0.3-1C148.2,144.8,148.1,144.5,147.8,144.4 M146.3,143.5l1.6,0.8 M146.3,143.4
	L146.3,143.4 M144.8,144.4c0.5-0.8,1-1.1,1.6-0.9 M144.4,145.4c0-0.3,0.1-0.7,0.2-1 M144.8,146.1c-0.2-0.2-0.3-0.4-0.3-0.7
	 M146.1,147l-1.4-0.8 M239.2,67.1c-0.2-0.3-0.4-0.5-0.5-0.7c-0.3-0.4-0.5-0.7-0.8-0.9l-0.6-0.4v1c0,0.5-0.3,1-0.9,1.5
	c-0.6,0.4-1.5,0.5-2.4,0.6c-0.9,0-1.8-0.2-2.4-0.6c-0.6-0.4-0.9-0.8-0.9-1.4v-1l-1.5,1.5l-0.2,0.2l-0.1,0.2l-0.1,0.1v0.1v0.1
	c0.4,0.1,0.9,0.5,1.6,1.1l0.6,0.8l0.1,0.2l0.2,0.2l0.1,0.1l0.1,0.1v0.1c0.9-0.3,1.9-0.4,2.6-0.4h0.4l1.3,0.1c0.1,0,0.4,0.1,0.9,0.2
	v-0.1l0.1-0.1l0.2-0.3c0.7-0.8,1-1.3,1-1.3l0.2-0.3l0.5-0.3l0.1-0.1l0.1-0.1L239.2,67.1L239.2,67.1z M239.2,67.1v1.5
	c-0.3,0.6-0.8,1.1-1.4,1.7l-0.2,0.2L237,71l-0.1,0.1h-0.1l-0.2,0.2h-0.1l-0.1,0.1h-0.1l-0.5,0.1c-1,0.2-1.8,0.2-2,0.2h-0.8l-1.8-0.3
	h-0.1l-0.1-0.1h-0.2l-0.1-0.1l-0.6-0.5l-0.2-0.2c-0.3-0.3-0.7-0.7-1-1.3l-0.2-0.3v-0.1v-1.7 M231,62.7c0.1-0.4,0.4-0.6,1-0.9
	 M231,62.7c0,0.1-0.1,0.2-0.1,0.3c0,0.5,0.3,0.8,0.8,1.1s1.3,0.4,2,0.4c0.7,0,1.5-0.1,2-0.4c0.5-0.3,0.8-0.7,0.8-1.1
	c0-0.1,0-0.2-0.1-0.3c-0.1-0.3-0.4-0.6-0.9-0.8c0,0.1,0.1,0.2,0.1,0.3c0,0.3-0.2,0.5-0.6,0.7c-0.3,0.2-0.7,0.3-1.3,0.3
	s-0.9-0.1-1.3-0.3c-0.4-0.2-0.6-0.5-0.5-0.7c0-0.1,0-0.2,0.1-0.3c0.1-0.2,0.2-0.3,0.5-0.4c0.3-0.2,0.8-0.3,1.3-0.3
	c0.5,0,0.9,0.1,1.3,0.3c0.2,0.1,0.4,0.3,0.5,0.5 M236.6,62.7c0.4,0.3,0.6,0.7,0.6,1.1l0,0V65v0.1c0,0.5-0.4,0.9-0.9,1.3
	c-0.6,0.4-1.5,0.6-2.4,0.6c-0.9,0-1.8-0.2-2.4-0.6c-0.6-0.3-0.9-0.8-0.9-1.3V65v-1.1l0,0c0-0.4,0.2-0.7,0.6-1.1 M237.2,63.8
	c0,0.5-0.3,1-0.9,1.4c-0.6,0.4-1.5,0.5-2.4,0.5c-0.9,0-1.8-0.2-2.4-0.5c-0.6-0.4-0.9-0.8-0.9-1.4 M236.5,71.3V70 M240.8,70.2
	c0-0.8-0.4-1.6-1.1-2.2 M240.8,70.3L240.8,70.3 M240.8,70.3v2.1c0,1.1-0.6,2.1-2,2.8c-1.4,0.7-3,1.1-4.9,1.1c-2,0-3.6-0.4-4.9-1.1
	c-1.4-0.8-2-1.8-2-2.8v-2.1v-0.1c0-0.8,0.4-1.6,1.1-2.2 M226.8,70.3c0,1,0.7,2,2,2.7c1.4,0.7,3,1.1,4.9,1.1c1.9,0,3.6-0.4,4.9-1.1
	c1.4-0.8,2-1.7,2-2.7 M222.6,69.3c-1.6,1.4-2.3,2.8-2.3,4.4c0,2.2,1.4,4,4,5.5c2.7,1.6,5.9,2.3,9.6,2.3c3.8,0,7-0.7,9.6-2.3
	c2.6-1.6,4-3.4,4-5.5c0-1.7-0.8-3.1-2.4-4.4c-0.3-0.3-0.7-0.5-1-0.7c1.7,1.3,2.5,2.7,2.5,4.4c0,2-1.3,3.8-3.7,5.1
	c-2.4,1.5-5.4,2.2-8.9,2.1c-3.4,0-6.5-0.7-8.9-2.1c-2.5-1.4-3.7-3.1-3.7-5.1c0-1.8,1-3.3,3-4.8C223.7,68.5,223.1,68.9,222.6,69.3z
	 M231.1,71.3v-1.5 M228.9,66.5c-1.7,0.4-3.1,0.9-4.4,1.6 M244,68.5c-0.1-0.1-0.3-0.2-0.4-0.2c-1.4-0.8-3-1.5-4.9-1.8 M251.1,101.6
	v7.9 M251.1,101.6c0,0.5-0.3,0.9-0.9,1.4l-2.1,1.1v7.9l2.1-1.1l0,0c0.6-0.4,0.9-0.8,0.9-1.4 M248.7,75.4v23.8l1.5,0.8
	c0.6,0.4,0.9,0.8,0.9,1.4l0,0 M248.2,103.7c0.3-0.7,0.4-1.5,0.4-2.1 M248.7,101v-1.7 M237.9,110l-1.6,0.9 M237.9,110
	c-1.5,0.1-2.7,0.1-3.9,0.1c-1.6,0-3-0.1-4.7-0.4l2.1,1.3c0.6,0.4,1.5,0.6,2.4,0.6c0.9,0,1.8-0.2,2.4-0.6 M229.3,109.7l-0.2-0.1v7.9
	l0,0l2.3,1.3c0.6,0.4,1.5,0.5,2.4,0.5c0.9,0,1.8-0.2,2.4-0.5l2.1-1.3v-0.1v-7.9l-0.5,0.3 M237.1,121.6c-0.1,0-0.1,0.1-0.2,0.1
	c-0.7,0.4-1.7,0.6-2.8,0.6c-1.1,0-2.1-0.2-2.8-0.6c-0.1,0-0.1-0.1-0.2-0.1 M230,119.2L230,119.2 M229.1,117.6c-2.1-0.4-3.9-1-5.4-2
	c-1.3-0.7-2.3-1.6-3-2.4 M243.5,117.2c-2,1.1-4.3,1.8-6.9,2.1 M247.2,113.3c-0.5,1.5-1.8,2.8-3.8,3.9 M247.2,113.3
	c-0.7,0.8-1.6,1.6-2.7,2.2c-1.7,0.9-3.7,1.7-6.1,2.1 M248,112.2c-0.2,0.4-0.5,0.7-0.8,1.1 M199.2,78.3L199.2,78.3 M147.8,144.4
	L147.8,144.4"/>
<path id="Layer0_5_MEMBER_6_MEMBER_2_1_STROKES" class="st6" d="M211.7,139.2l2,1.1 M213.1,137l3,1.8"/>
</svg>
