<?xml version="1.0" encoding="utf-8"?>
<!-- Generator: Adobe Illustrator 24.1.2, SVG Export Plug-In . SVG Version: 6.00 Build 0)  -->
<svg version="1.1" id="Ebene_1" xmlns="http://www.w3.org/2000/svg" xmlns:xlink="http://www.w3.org/1999/xlink" x="0px" y="0px"
	 viewBox="0 0 349.1 161" style="enable-background:new 0 0 349.1 161;" xml:space="preserve">
<style type="text/css">
	.st0{fill:#0099FF;}
	.st1{fill:#CCCCCC;}
	.st2{fill:#FFCC00;}
	.st3{fill:#0066CC;}
	.st4{fill:none;stroke:#FF0000;stroke-width:0.2;stroke-linecap:round;stroke-linejoin:round;}
	.st5{fill:none;stroke:#000000;stroke-width:0.55;stroke-linecap:round;stroke-linejoin:round;}
	.st6{fill:none;stroke:#B1B1B1;stroke-width:0.55;stroke-linecap:round;stroke-linejoin:round;}
	.st7{fill:none;stroke:#FF9900;stroke-linecap:round;stroke-linejoin:round;}
	.st8{fill:none;stroke:#FFFFFF;stroke-miterlimit:5;}
	.st9{font-family:'ArialMT';}
	.st10{font-size:14px;}
</style>
<g>
	<defs>
		<rect id="SVGID_1_" x="213.1" y="-113.9" width="62.5" height="20.9"/>
	</defs>
	<clipPath id="SVGID_2_">
		<use xlink:href="#SVGID_1_"  style="overflow:visible;"/>
	</clipPath>
</g>
<path class="st0" d="M197,96.6l-0.1,5.4l-41.2,23.4v13.9l2.9,1.7l38.2-21.5l0,1.9l3,1.7l10.2-18.2L197,96.6 M163.3,128.9l0.9-0.5
	l2.4,5.5l-0.9,0.6l-0.8-1.7l-2.5,1.5l-0.6,2.5l-0.9,0.5L163.3,128.9 M174.3,123.4c0.2,0.2,0.2,0.5,0.2,0.9c0,0.6-0.2,1.1-0.4,1.5
	c-0.3,0.6-0.7,1-1.2,1.4h0.2l0.2,0.1c0.3,0.1,0.5,0.3,0.7,0.6l1.1,1.4l-1.1,0.5l-1.1-1.4l-0.1-0.1l-0.2-0.1l-0.2-0.1h-0.2l-0.1-0.1
	H172l-0.4,0.1h-0.1l-0.2,0.1l-0.9,0.5v3.1l-0.8,0.5v-7l2.7-1.5c0.5-0.4,0.9-0.5,1.2-0.5C173.8,123.1,174.1,123.2,174.3,123.4
	 M176.7,122v2.2l2.8-1.7v0.8l-2.8,1.7v3.2l-0.8,0.4v-7l4-2.3v0.8L176.7,122 M167.5,126.5l0.8-0.5v7l-0.8,0.5V126.5 M195.1,110.6
	l1-0.6l1.3,5.2l1.2-6.7l0.8-0.4l-1.7,7.9l-0.8,0.5l-1.5-5.3v-0.1l-0.1,0.5v0.2l-0.1,0.2l-1.2,6l-0.8,0.5l-1.6-6.1l0.8-0.4l1.2,5.3
	L195.1,110.6 M190.8,114.7c0.2,0.3,0.4,0.8,0.4,1.6c0,0.8-0.1,1.5-0.4,2.2l-0.1,0.5l-0.3,0.5c-0.2,0.3-0.4,0.6-0.6,0.9
	c-0.5,0.6-1,1-1.4,1.2c-0.4,0.3-0.9,0.4-1.5,0.4c-0.5-0.1-0.8-0.4-1-0.8c-0.2-0.4-0.4-0.9-0.4-1.5c0-1.1,0.3-2.2,0.8-3.2
	c0.5-0.9,1.1-1.6,2.1-2.2c0.7-0.3,1.2-0.4,1.6-0.4C190.3,114,190.6,114.2,190.8,114.7 M180.9,118.8l0.8-0.5v6.2l3.1-1.7v0.8
	l-3.8,2.2V118.8 M190.1,115.5c-0.1-0.3-0.3-0.5-0.7-0.6h-0.2l-0.9,0.2c-0.6,0.4-1.1,0.9-1.4,1.5c-0.4,0.7-0.7,1.5-0.7,2.6
	c0,0.9,0.2,1.5,0.6,1.7c0.4,0.2,0.9,0.2,1.5-0.2c0.6-0.4,1.1-0.9,1.6-1.5c0.3-0.7,0.5-1.5,0.5-2.4
	C190.3,116.2,190.2,115.8,190.1,115.5 M173.5,125.5l0.2-0.7c0-0.4-0.1-0.6-0.3-0.6c-0.2-0.1-0.5,0-1,0.3l-1.9,1v2.4l2.2-1.2l0.4-0.4
	l0.3-0.4L173.5,125.5 M164.1,130.3l-0.3-0.9v-0.1l-0.9,4l2.1-1.2l-0.7-1.5L164.1,130.3z"/>
<path class="st1" d="M246.3,51.3l-4.6-4.4l-8.6-8.3l-7.4,4.3v9.9l2.4,2.1l1.8-0.8l1.7-0.4l3.2,0.2l2.4,0.8l0.9,0.4l0.5,0.3l0.2,0.1
	l-4.5-4.4l1.9-0.7l3.6-0.5l3.2,0.4L246.3,51.3 M230.5,45.5c0.4-0.2,0.7-0.3,0.9-0.1c0.3,0.2,0.4,0.5,0.4,1c0,0.5-0.2,0.9-0.5,1.5
	l-0.1,0.3l-1.6-1.5C229.8,46,230.1,45.7,230.5,45.5 M290.9,5.1l-7.4,4.3v9.9l2.2,2l0.5,0.5l1.2-0.9l1.5-0.4l1.5-0.1l3,0.5l3.3,1.2
	l-4.5-4.4c1-0.6,2-0.9,3.2-1c0.1,0,0.2,0,0.3,0c1-0.1,2.1,0,3.3,0.3c2.7,0.6,5.4,2,8.3,4.1l-10-9.8L290.9,5.1 M289.4,12.3
	c0.3,0.2,0.4,0.5,0.4,1c0,0.5-0.2,1-0.6,1.6l-1.5-1.5c0.3-0.4,0.6-0.7,0.9-0.9C288.9,12.2,289.2,12.2,289.4,12.3z"/>
<path class="st0" d="M286.2,21.8l-0.5-0.5l-44,25.5l4.6,4.4l-3.2-1l-3.2-0.4l-3.6,0.5l-1.9,0.7l4.5,4.4l-0.2-0.1l-0.5-0.3l-0.9-0.4
	l-2.4-0.8l-3.2-0.2l-1.7,0.4l-1.8,0.8l-0.2,0.1l-0.6,0.2l-4.3,2.4c-2.4-0.3-4.5,0-6.3,1.1c-0.1,0.1-0.3,0.1-0.4,0.2l-0.9,0.6
	c-0.5,0.2-0.9,0.3-1.3,0.6c-3.9,2.2-5.6,6.9-5.2,14.1c0.4,7.1,2.9,14.6,7.4,22.4c4.5,7.8,9.7,13.7,15.7,17.6
	c6,3.9,10.9,4.8,14.8,2.5c0.5-0.2,0.9-0.5,1.3-0.9l1-0.4l0.3-0.2c1.9-1.1,3.3-2.7,4.1-4.9l4-2.3c0.5-0.3,0.9-0.6,1.4-1l15.6,9
	l40.6-23.5V76.3h0.2c2,0.2,3.8-0.2,5.3-1.1l9.8-5.6c4-2.3,5.8-7.1,5.4-14.4c-0.5-7.3-3-15-7.6-23c-4.5-7.8-9.8-13.7-15.7-17.8
	c-6-4.1-11-5.1-14.9-3.1l10,9.8c-2.9-2.1-5.7-3.5-8.3-4.1c-1.2-0.2-2.3-0.3-3.3-0.3c-0.1,0-0.2,0-0.3,0c-1.2,0.1-2.3,0.4-3.2,1
	l4.5,4.4l-3.3-1.2l-3-0.5l-1.5,0.1l-1.5,0.4L286.2,21.8 M212.1,76.4c-0.4-6,1.1-10,4.4-11.9c3.3-1.9,7.5-1.2,12.6,2.1
	c5.1,3.3,9.5,8.3,13.3,15c3.8,6.6,5.9,13,6.3,19c0.4,6-1.1,10-4.4,11.9c-3.3,1.9-7.5,1.2-12.6-2.1c-5.1-3.3-9.5-8.3-13.4-15
	C214.6,88.8,212.5,82.5,212.1,76.4 M316.3,49.2v6.3l-11.5,6.7l-11.5-6.7v-6.3l3.9-2.3v-2.8c0-1,0.7-1.8,2.1-2.4c1.4-0.7,3-1,4.9-1
	s3.6,0.3,5,1c1.4,0.7,2,1.5,2,2.4v2.1L316.3,49.2z"/>
<path class="st2" d="M316.3,55.4v-6.3l-5.1-2.9v-2.1c0-1-0.7-1.8-2-2.4c-1.4-0.7-3.1-1-5-1s-3.6,0.3-4.9,1c-1.4,0.7-2.1,1.5-2.1,2.4
	v2.8l-3.9,2.3v6.3l11.5,6.7L316.3,55.4z"/>
<path class="st3" d="M216.5,64.5c-3.3,1.9-4.8,5.9-4.4,11.9c0.4,6,2.5,12.4,6.3,19c3.8,6.7,8.3,11.6,13.4,15c5.1,3.3,9.2,4,12.6,2.1
	c3.3-1.9,4.8-5.9,4.4-11.9c-0.4-6-2.5-12.4-6.3-19c-3.8-6.7-8.3-11.6-13.3-15C224.1,63.3,219.9,62.6,216.5,64.5z"/>
<path id="Layer1_6_MEMBER_1_1_STROKES" class="st4" d="M314.9,76.3h0.2"/>
<path id="Layer1_6_MEMBER_2_1_STROKES" class="st5" d="M315,73.7c1.6-0.1,2.9-0.5,3.9-1c3.6-2.1,5.2-6.5,4.9-13.2
	c-0.4-6.7-2.7-13.6-6.9-20.9c-3.3-5.8-7.2-10.5-11.7-14.2c-4.5-3.7-8.6-5.6-12.2-5.7"/>
<path id="Layer1_6_MEMBER_3_1_STROKES" class="st5" d="M318.9,72.6l-4,2.4"/>
<path id="Layer1_6_MEMBER_4_1_STROKES" class="st5" d="M258.9,107.3l-5.6,3.3"/>
<path id="Layer1_6_MEMBER_5_1_STROKES" class="st5" d="M285.7,21.4l-10.6,6.1"/>
<path id="Layer1_6_MEMBER_6_1_STROKES" class="st5" d="M275.1,27.5l-33.4,19.3"/>
<path id="Layer1_6_MEMBER_7_1_STROKES" class="st5" d="M226.9,55.4l-4.1,2.4"/>
<path id="Layer1_6_MEMBER_8_1_STROKES" class="st5" d="M257.4,108.1c3.6-2.1,5.2-6.5,4.9-13.1c-0.4-6.7-2.7-13.6-6.9-20.9
	c-0.1-0.2-0.4-0.7-0.8-1.3l-0.4-0.5"/>
<path id="Layer1_6_MEMBER_9_1_STROKES" class="st5" d="M228.1,54.8l-0.2,0.1l-0.6,0.2l-0.3,0.2"/>
<path id="Layer1_6_MEMBER_10_1_STROKES" class="st5" d="M238.9,55.6l-13.2-12.8"/>
<path id="Layer1_6_MEMBER_11_1_STROKES" class="st5" d="M233.1,38.5v11.4"/>
<path id="Layer1_6_MEMBER_12_1_STROKES" class="st5" d="M258.8,107.2l15.6,9"/>
<path id="Layer1_6_MEMBER_13_1_STROKES" class="st5" d="M254.4,72.6l38.8-22.4"/>
<path id="Layer1_6_MEMBER_14_1_STROKES" class="st5" d="M274.3,116.2V84.1"/>
<path id="Layer1_6_MEMBER_15_1_STROKES" class="st5" d="M254.4,72.6l19.9,11.5"/>
<path id="Layer1_6_MEMBER_16_1_STROKES" class="st5" d="M274.3,84.1l40.6-23.4"/>
<path id="Layer1_6_MEMBER_17_1_STROKES" class="st5" d="M274.3,116.2l40.6-23.5"/>
<path id="Layer1_6_MEMBER_18_1_STROKES" class="st5" d="M315.1,76.3c2,0.2,3.8-0.2,5.3-1.1c4-2.3,5.8-7.1,5.4-14.4
	c-0.5-7.3-3-15-7.6-23c-3.1-5.4-6.7-10.1-10.9-13.9c-4.1-3.8-8.1-6.3-11.9-7.3"/>
<path id="Layer1_6_MEMBER_19_1_STROKES" class="st5" d="M329.1,70.1l0.3-0.1l0.8-0.3c4-2.3,5.8-7.1,5.4-14.4c-0.5-7.3-3-15-7.6-23
	c-4.5-7.8-9.8-13.7-15.7-17.8c-6-4.1-11-5.2-15-3.1"/>
<path id="Layer1_6_MEMBER_20_1_STROKES" class="st5" d="M330.2,69.6l-9.8,5.6"/>
<path id="Layer1_6_MEMBER_21_1_STROKES" class="st5" d="M216.6,58.8c-0.1,0.1-0.3,0.1-0.4,0.2l-1,0.7"/>
<path id="Layer1_6_MEMBER_22_1_STROKES" class="st5" d="M248,115.9l1-0.4l0.3-0.2c3.9-2.2,5.6-6.9,5.2-14.1
	c-0.4-7.1-2.9-14.6-7.4-22.4c-4.5-7.8-9.7-13.7-15.7-17.6c-6-3.9-10.9-4.8-14.8-2.5"/>
<path id="Layer1_6_MEMBER_23_1_STROKES" class="st5" d="M327.7,71.1c4-2.3,5.8-7.1,5.4-14.4c-0.5-7.3-3-15-7.6-23
	c-3.9-6.7-8.4-12.2-13.6-16.2c-5.2-4.1-9.8-5.9-13.9-5.5"/>
<path id="Layer1_6_MEMBER_24_1_STROKES" class="st5" d="M311,58.4l3.9,2.3"/>
<path id="Layer1_6_MEMBER_25_1_STROKES" class="st5" d="M314.9,92.7v-32"/>
<path id="Layer1_6_MEMBER_26_1_STROKES" class="st5" d="M293.2,55.4l11.5,6.7"/>
<path id="Layer1_6_MEMBER_27_1_STROKES" class="st5" d="M304.7,62.1l11.5-6.7"/>
<path id="Layer1_6_MEMBER_28_1_STROKES" class="st5" d="M293.2,55.4v-6.3"/>
<path id="Layer1_6_MEMBER_29_1_STROKES" class="st5" d="M293.2,49.2l3.9-2.3"/>
<path id="Layer1_6_MEMBER_30_1_STROKES" class="st5" d="M304.7,62.1v-6.3"/>
<path id="Layer1_6_MEMBER_31_1_STROKES" class="st5" d="M311.1,46.2l5.1,2.9"/>
<path id="Layer1_6_MEMBER_32_1_STROKES" class="st5" d="M304.7,55.8l11.5-6.6"/>
<path id="Layer1_6_MEMBER_33_1_STROKES" class="st5" d="M316.3,55.4v-6.3"/>
<path id="Layer1_6_MEMBER_34_1_STROKES" class="st5" d="M293.2,49.2l11.5,6.6"/>
<path id="Layer1_6_MEMBER_35_1_STROKES" class="st5" d="M297.1,49c0,1,0.7,1.8,2.1,2.4c1.4,0.7,3,1,4.9,1s3.6-0.3,5-1
	c1.4-0.7,2-1.5,2-2.4"/>
<path id="Layer1_6_MEMBER_36_1_STROKES" class="st5" d="M309.1,41.7c-1.4-0.7-3.1-1-5-1s-3.6,0.3-4.9,1c-1.4,0.7-2.1,1.5-2.1,2.4
	c0,1,0.7,1.8,2.1,2.5c1.4,0.7,3,1,4.9,1s3.6-0.3,5-1c1.4-0.7,2-1.5,2-2.5C311.1,43.2,310.4,42.3,309.1,41.7z"/>
<path id="Layer1_6_MEMBER_37_1_STROKES" class="st5" d="M297.1,44.1V49"/>
<path id="Layer1_6_MEMBER_38_1_STROKES" class="st5" d="M311.1,44.1V49"/>
<path id="Layer1_6_MEMBER_39_1_STROKES" class="st5" d="M225.7,42.8v9.9"/>
<path id="Layer1_6_MEMBER_40_1_STROKES" class="st5" d="M225.7,42.8l7.4-4.3"/>
<path id="Layer1_6_MEMBER_41_1_STROKES" class="st5" d="M225.7,52.7l2.4,2.1"/>
<path id="Layer1_6_MEMBER_42_1_STROKES" class="st5" d="M308.5,41.9c-1.2-0.6-2.7-0.9-4.4-0.9c-1.7,0-3.2,0.3-4.4,0.9
	c-1.2,0.6-1.8,1.3-1.8,2.2c0,0.8,0.6,1.6,1.8,2.2c1.2,0.6,2.7,0.9,4.4,0.9c1.7,0,3.2-0.3,4.4-0.9c1.2-0.6,1.8-1.3,1.8-2.2
	C310.3,43.3,309.7,42.6,308.5,41.9z"/>
<path id="Layer1_6_MEMBER_43_1_STROKES" class="st5" d="M296.7,22.1L283.5,9.4"/>
<path id="Layer1_6_MEMBER_44_1_STROKES" class="st5" d="M307.3,21c-2.9-2.1-5.7-3.5-8.3-4.1c-2.7-0.6-4.9-0.3-6.9,0.8"/>
<path id="Layer1_6_MEMBER_45_1_STROKES" class="st5" d="M290.9,5.1v11.4"/>
<path id="Layer1_6_MEMBER_46_1_STROKES" class="st5" d="M283.5,9.4v9.9"/>
<path id="Layer1_6_MEMBER_47_1_STROKES" class="st5" d="M283.5,9.4l7.4-4.3"/>
<path id="Layer1_6_MEMBER_48_1_STROKES" class="st5" d="M307.4,21L290.9,5.1"/>
<path id="Layer1_6_MEMBER_49_1_STROKES" class="st5" d="M286.2,21.8l-2.6-2.5"/>
<path id="Layer1_6_MEMBER_50_1_STROKES" class="st5" d="M231.1,48l0.1-0.3c0.3-0.5,0.5-1,0.5-1.5c0-0.5-0.1-0.8-0.4-1
	c-0.2-0.2-0.5-0.1-0.9,0.1c-0.4,0.2-0.7,0.5-1,1"/>
<path id="Layer1_6_MEMBER_51_1_STROKES" class="st5" d="M289.3,14.7c0.3-0.5,0.5-1,0.5-1.5c0-0.5-0.1-0.8-0.4-1
	c-0.2-0.1-0.5-0.1-0.9,0.1c-0.3,0.2-0.7,0.5-1,0.9"/>
<path id="Layer1_6_MEMBER_52_1_STROKES" class="st5" d="M296.7,22.1l-3.3-1.2l-3-0.5l-1.5,0.1l-1.5,0.4l-1.2,0.9"/>
<path id="Layer1_6_MEMBER_53_1_STROKES" class="st5" d="M238.9,55.6l-0.2-0.1l-0.5-0.3l-0.9-0.4l-2.4-0.8l-3.2-0.2l-1.7,0.4
	l-1.8,0.7"/>
<path id="Layer1_6_MEMBER_54_1_STROKES" class="st5" d="M246.3,51.3l-13.2-12.8"/>
<path id="Layer1_6_MEMBER_55_1_STROKES" class="st5" d="M246.3,51.3l-3.2-1l-3.2-0.4l-3.6,0.5l-1.9,0.7"/>
<path id="Layer1_6_MEMBER_56_1_STROKES" class="st5" d="M216.5,64.5c3.3-1.9,7.5-1.2,12.6,2.1c5.1,3.3,9.5,8.3,13.3,15
	c3.8,6.6,5.9,13,6.3,19c0.4,6-1.1,10-4.4,11.9c-3.3,1.9-7.5,1.2-12.6-2.1c-5.1-3.3-9.5-8.3-13.4-15c-3.8-6.6-5.9-13-6.3-19
	C211.7,70.4,213.2,66.4,216.5,64.5z"/>
<path id="Layer1_6_MEMBER_57_1_STROKES" class="st5" d="M214.1,60.2c3.9-2.3,8.8-1.4,14.8,2.5c6,3.9,11.2,9.8,15.7,17.6
	c4.5,7.8,7,15.3,7.4,22.4c0.4,7.1-1.3,11.8-5.3,14.1c-3.9,2.3-8.8,1.4-14.8-2.5c-6-3.9-11.2-9.8-15.7-17.6c-4.5-7.8-7-15.3-7.4-22.4
	C208.5,67.2,210.2,62.5,214.1,60.2z"/>
<path id="Layer1_6_MEMBER_58_1_STROKES" class="st5" d="M199.9,98.3v5.4"/>
<path id="Layer1_6_MEMBER_59_1_STROKES" class="st5" d="M210.1,104.7l-10.2-6.4"/>
<path id="Layer1_6_MEMBER_60_1_STROKES" class="st5" d="M199.9,123v-5.5"/>
<path id="Layer1_6_MEMBER_61_1_STROKES" class="st5" d="M210.1,104.7L199.9,123"/>
<path id="Layer1_6_MEMBER_62_1_STROKES" class="st5" d="M199.9,103.8l-3-1.8"/>
<path id="Layer1_6_MEMBER_63_1_STROKES" class="st5" d="M199.9,123l-3-1.7"/>
<path id="Layer1_6_MEMBER_64_1_STROKES" class="st5" d="M199.9,98.3l-2.9-1.7l-0.1,5.4"/>
<path id="Layer1_6_MEMBER_65_1_STROKES" class="st5" d="M196.9,121.3V120"/>
<path id="Layer1_6_MEMBER_66_1_STROKES" class="st5" d="M199.8,103.8L158.7,127v7"/>
<path id="Layer1_6_MEMBER_67_1_STROKES" class="st5" d="M199.8,117.6l-41.2,23.2V134"/>
<path id="Layer1_6_MEMBER_68_1_STROKES" class="st5" d="M158.7,127l-2.9-1.7"/>
<path id="Layer1_6_MEMBER_69_1_STROKES" class="st5" d="M158.7,140.9l-2.9-1.7"/>
<path id="Layer1_6_MEMBER_70_1_STROKES" class="st5" d="M196.9,102l-41.2,23.4v13.9"/>
<g>
	<path id="Layer1_7_1_STROKES" class="st6" d="M150,12l-1.2,2.8l0.1,0.3v0.2l0.3,1.4l0.3,1.6l0.1,0.1h0.1v0.2l-0.1,0.2v0.1l0.1,0.2
		l0.6,0.1l0.1,0h0.1v0l-0.2-2.2l-0.1-0.5l-0.3-0.3 M149.6,16.3l-0.1-1l1.4-2.8 M148.8,14.8l-0.3-0.2l-0.1-0.1l-0.2-0.1h-0.4
		l-0.4,0.1l-0.5,0.2l-0.1,0.2l-2.9,2.2l-0.5,1l5.3,0.9l0.6-1.1l-0.1-1.2 M149.9,19.3l-0.2-0.2v0 M150.2,16.9l0.4,2.7l-0.3,0.6
		l5.8,1.1l0.6,0.2l0.2,0.1l9.1,3.2l0,0l1.2-0.4l1.2-0.2l0.4,0.1h0.3l0.4,0l0.8,0.2l2.9,1.1l0.7,0.3l1.2,0.9l0.3,0.3l0.8,1l0.6,1.2
		l0.1,0.4l0.2,0.4l0.3,2V33l0.1,0.5l-0.1,2l-0.1,1.1l-0.3,1l-0.1,0.5l-0.5,1.5l-0.2,0.5l-0.2,0.5l-1.4,2.2l-0.9,1.1l-0.6,0.6
		l-1.9,1.5l-0.4,0.2l-1.2,0.6l-0.5,0.2l-1.2,0.2h-0.8l-1.2-0.2l-0.3-0.1l-0.4-0.1l-0.2-0.1l-3-1.2l-0.6-0.4l-0.9-0.8l-0.8-1
		l-0.3-0.6l-6.3-2.4l-0.2-0.1l-0.7-0.2l-11.6-2 M150.4,19.2l0.3,0.4 M149.3,17.9l0.3,0.4 M147.1,14.7l-0.7,0.5l-0.1,0.7l0.6,0.3
		l0.7-0.5l0.1-0.8L147.1,14.7z M147.6,15.6l0.2,0.2l0.1-0.7l-0.2-0.2 M146.3,15.9l0.2,0.3l0.6,0.2l-0.2-0.2 M147.8,15.8l-0.7,0.5
		 M150.4,20.2l-0.2,0.4 M143.4,18.1l0.1,2.2l5.3,0.9l-0.1-2.2 M159.4,42.5l-0.3-0.6l-0.3-0.9l-0.4-2l-0.1-1.1l0.1-0.2l-0.1-0.5
		l0.2-2.6l0.9-3l0.7-1.4l1.2-1.8l0.7-0.7l0.1-0.2l0.8-0.8l0.4-0.3l0.8-0.7l0.8-0.5l1.2-0.6 M165,46.6l-0.8-0.5l-0.3-0.2l-0.8-0.9
		l-0.5-0.7l-0.8-1.7l-0.4-1.4l-0.2-2.1l0.1-1.7l0.5-2.8l0.8-2.2l1.1-2l1.7-2.2l1.1-1.1l2.1-1.3l1.2-0.5l0.4-0.1l0.4,0l0.4-0.1h0.8
		l0.8,0.1l0.8,0.2 M158.5,37.7l0.1-1.9l0.2-1.1l0.9-2.7l0.8-1.5l1.2-1.9l0.3-0.4l0.2-0.3 M173.8,43.8l-1.5,1.2l-0.8,0.4l-0.8,0.4
		L170,46l-0.8,0.1h-1.1l-1.1-0.3l-1.8-0.8l-0.3-0.2l-1.1-1l-0.8-1.5l-0.3-0.8l-0.2-0.9l-0.1-0.5l-0.1-0.4l0-1.5l0.4-3.1l1.2-3
		l1.1-1.8l0.3-0.4l0.4-0.3l0.3-0.4l1.8-1.5l0.8-0.4l0.4-0.2l1.2-0.4l0.8-0.1h0.8l0.7,0.1l0.7,0.2l1.1,0.5l0.7,0.3l1.1,1l0.2,0.3
		l0.8,1.5l0.4,1.2l0.1,0.4l0.1,0.9 M174.2,27.4l-0.6-0.2l-0.8-0.1h-0.8l-0.8,0.1l-0.4,0.1l-1.5,0.7l-0.8,0.5l-0.4,0.3l-0.8,0.6
		l-1.6,1.9l-0.5,0.9l-1.3,2.9l-0.6,3.6l0.2,2.4l0.4,1.3l0.8,1.5l1.1,1.2l0.6,0.4l0.6,0.4 M173.1,28.2l-0.8-0.8h-0.2l-0.8,0.1
		l-1.2,0.3l-1.1,0.6l-0.4,0.3l-0.4,0.2l-1.1,1l-0.3,0.4l-0.4,0.3l-1.1,1.7l-1.4,3.3l-0.4,2.6v1.4l0.1,1l0.3,1.3l0.5,1.2l0.7,1
		l0.6,0.6l0.1,0.1l0.8-0.2l1.6-0.6l1.1-0.7l2.1-1.9l0.9-1.2l0.2-0.5l0.3-0.4l0.7-1.4l0.7-2.5l0.2-2l-0.2-2.4l-0.1-0.4l-0.4-1.2
		l-0.4-0.8L173.1,28.2z M166,44.7l0.3,0.2l1-0.2l2.2-1.2l1.4-1.2l0.9-1.2l1.6-2.8l0.7-2l0.4-2.6v-2l-0.1-0.4l-0.1-0.5l-0.5-1.7
		l-1.1-1.8l-0.1,0h-0.5 M173,27.4l0.4,0.4l0.8,0.8l0.6,1.1l0.4,1.2l0.1,0.4l0.2,2.3v0.5l-0.1,0.5l-0.1,1l-1.4,4l-0.5,0.9l-0.3,0.4
		l-0.2,0.5l-1.3,1.4l-1.4,1.2l-0.4,0.2l-1.5,0.7l-0.4,0.1h-0.4l-0.4,0.1h-0.4l-0.4-0.1l0.3,0.2l0.7,0.3l1,0.2h0.8l0.4-0.1l1.6-0.4
		l1.1-0.6l1.8-1.4l1-1.2l0.2-0.5l0.3-0.4l0.8-1.4L177,38l0.4-2.1l0.1-2.4l-0.1-0.9l-0.4-1.7l-0.8-1.4l-1-1.1l-0.6-0.4l-0.4-0.1
		l-0.3-0.2l-0.7-0.2H173 M166.3,44.9L166.3,44.9 M165.6,46.8l-0.6-0.2 M57.2,39.4h0.3l0.3-0.5l0.3-0.4l0.5-0.8v-0.1l5.4-7.2l0.3-0.3
		l2.8-3.3l0.2-0.1L68,26l2.8-2.9l0.9-0.8l0.2-0.4l2.2-1.9l0.5-0.4l0.2-0.2l8.7-5.9l0.7-0.3l0.3-0.2l1.8-0.8l2.7-0.9l3.8-0.6h0.3
		l0.9-0.1h3.1l0.8,0.1h0.5l3.3,0.4 M94.1,31.3l-6.5,4.5l-1.8,1.6l-7,7.9l-4,5.5l1.7,1.8L76.4,53l1.5,1.7l0.1,0l0.2,0.2l0.1,0h0.1
		l1.1,0.4l0.1,0.6l-0.1,0.2l0.1,0.2l0,0.2v0.1l0.5,0.5 M44,58.8l-0.8,1.1l-0.3-0.8v-0.2l0-0.2v-0.2l0-0.2v-0.2l0.1-0.1l2.2-3.3
		 M17.2,68.3l3.2-1.4l1.8-0.4l0.2-0.1l4.1-0.8l9.8-0.5l0.2,0h0.2l0.1-0.1h0.2l0.6-0.2l0.1,0l0.4-0.1l0.2-0.1l0.2,0l0.2-0.1l0.1-0.1
		l0.9-0.4l0.7-0.5l0.1-0.1l0.2-0.1l0.2-0.2l0.2-0.1l0.2-0.2l0.1-0.2l0.3-0.3l0.1-0.2l0.2-0.2l0.2-0.2l0.1-0.1l0.1-0.2l0.2-0.2l0.7-1
		 M47.1,54.2l-0.2,0.2l0.3,0.1h0.4l1,0.3l3,1.2l4,2.2l5.5,4.2l2.4,2.4l1.1,1.4l0.4,0.9l0.1,0.2 M55.3,42.7l-7.5,11.2l0.4,0l2.2,0.5
		l2.5,1l5.6,3.4l4.6,3.9l0.2,0.4l0.3,0.3l1.3,2.1l0.3-0.4l0.9-1.3 M45.9,54.4h1 M44.7,58.4h0.7l0.6,0.1l0.3,0.1l0.3,0l0.3,0.1
		l3.8,1.6l6.4,4.2l1.2,1.1l0.4,0.3l0.7,0.6l1.8,2.1l0.3,0.5l0.3,0.7 M43,58.1l0.2-0.2l0.2-0.1l0.3-0.1h1l0.6,0.1l2.7,0.9l0.5,0.2
		l1.4,0.6l6.8,4.3l2.9,2.5l0.3,0.4l0.4,0.3l2,2.5l0.1,0.2l0.2,0.2l0.1,0.2l0,0.2l0.1,0.2v0.6l-0.1,0.1l2.2-3.2 M43.6,59.8l0.4-0.1
		h0.2l1.2,0.2l1.4,0.4l3.9,1.9l5.1,3.4l2.6,2.3l1.6,1.8l0.6,1.1l0.1,0.2l0.1,0.6v0.3l0.7-1 M26,74.4l-1.1,0.8l-0.6,0.4L22.1,78
		l-2.2,4.1l-0.6,2.3l-0.4,2.3l0.1,2.7l0.1,1.1l0.4,1.4l0.4,0.9l0.2,0.4l0.7,1.2l1.5,1.3l3.7,1.4l-1.5-0.8L24,95.7L23.4,95l-0.7-1.2
		l-0.7-1.8l-0.3-1.6l0-1.1l0.1-2.8l0.5-2.3l0.2-0.6l0.2-0.6l1-2.1l1.2-2l1.5-1.7L28,76l0.5-0.2l0.4-0.3l0.9-0.4l1.7-0.6l0.8-0.1h0.5
		l1.5,0.3l-3.2-1.2l-1.2-0.2h-0.4l-0.9,0.1l-1.3,0.4L26,74.4z M17,68.5l-0.2,0.1l-0.2,0.1l-0.2,0.2L16,69l-0.5,0.3l-0.2,0.1L15,69.7
		l-0.2,0.2L14.6,70l-0.1,0.1L14,70.5l-0.2,0.2l-0.5,0.3l-0.1,0.2L13,71.5l-0.2,0.1L12.6,72l-0.1,0.1l-1.1,1.6l-0.3,0.6L11,74.4
		l-0.3,0.7l-0.1,0.1l-0.2,0.4l-0.4,1.2l0,0.3L9.8,78v0.1l-0.1,0.7v1.9l0,0.4l0,0.1v0.4l0.1,0.3v0.2l0.1,0.3l0,0.4l0,0.1l0.2,0.7v0.1
		l0.3,0.9l0.2,0.3l0.1,0.1l0.6,1.2l0.3,0.4l0.2,0.3l0.6,0.8l0.2,0.2l0.3,0.4l0.9,0.9l0.8,0.6l0.1,0.2l0.8,0.6l0.1,0.2l0.3,0.1
		l0.2,0.2l0.5,0.2l0.1,0.1l0.5,0.2l0.2,0.1l2.6,1.3 M19.1,90.5L19,90l-0.2-0.4l0-0.5l-0.1-0.4L18.6,87l0.2-2.2l0.1-0.5l1-3.2l1.1-2
		l0.3-0.4l0.6-0.9l2.2-2.2l0.9-0.4 M32.2,96.2l0.7-0.4l0.1-0.1l1.5-1.1l0.8-0.7l1.9-2.6l0.8-1.5l0.9-2.7l0.2-1.3l0.2-1.4v-1.6
		l-0.3-2l-0.2-0.4l0-0.2l-0.1-0.4l-1-1.8l-0.2-0.3L36.4,77l-0.3-0.2l-0.7-0.4l-0.4-0.1l-0.3-0.2L34,76.1L33.6,76h-0.4l-1.6,0.3
		l-1.2,0.5l-1.2,0.8l-1.5,1.3l-1.4,1.7L25,83.1l-0.6,1.5l-0.1,0.6l-0.2,0.5l-0.3,2.2l0,1.6l0.3,2.5l0.5,1.3l0.6,1.1l0.2,0.4l0.5,0.6
		l0.6,0.5l0.3,0.2l0.3,0.2l1.1,0.4l0.3,0.1l0.4,0.1h0.8l1.6-0.3L32.2,96.2z M34.9,78.1l-0.6-0.9l-0.1-0.1L34.1,77l-0.6-0.6h-0.2
		l-0.4,0.1h-0.4l-0.9,0.2l-1.9,1l-2.2,1.9l-1.5,2.2l-1,1.9l-0.8,2.7L24,90l0.2,1.4l0.6,1.8l0.2,0.4l0.5,0.7l0.5,0.6l0.4,0.4h0.2
		l0.4-0.1h0.3l0.2-0.1h0.2l0.3,0l1-0.4h0v-0.1l0.8-0.4l0.3-0.2l0.6-0.2l0-0.2l0.4,0l0.2-0.1l0.2-0.5l1-1.1l0.3-0.4l0-0.1l0.1-0.1v0
		l0-0.1l1.4-2.3l0.2-0.5l0.1-0.4l0.3-0.3L35,87.6l0.3-0.2l0.6-1.8v-0.1l0-0.2l0-0.1l-0.1-0.8l0.1-2.2L35.8,81l0-0.4 M26.8,96
		L26.4,96l-0.6-0.4l-1.2-1l-0.2-0.3L24,93.9l-0.6-1.1L23,91.9l-0.3-1.3L22.6,89l0-1.6l0.5-2.7l0.6-1.6l1.8-3.4l2.5-2.6l1.7-0.9
		l1.2-0.4l1.2-0.2h0.8l0.4,0.1l0.8,0.4 M38.6,79.9L38,78.1l-0.7-1.2l-1.2-1.2l-1-0.6l-0.8-0.3 M37.9,79.2l-0.7-1l-1.2-1.1L35.8,77
		l-1-0.4l-0.7-0.1l0.6,0.4l0.8,0.9l0.2,0.3l0.4,0.8l0.5,1.3l0.3,1.9v2.1l-0.3,2.1l-0.9,2.6L35,90.3l-1.2,1.8l-1.4,1.5l-1.5,1.1
		l-1.1,0.6l-0.4,0.1L28,95.7h-1.1l0.2,0.2l1.1,0.4l1.1,0.1h0.8l0.8-0.1l1.2-0.4l1.2-0.6l1.5-1.2l0.3-0.4l0.4-0.3l1.2-1.7l0.2-0.5
		l0.3-0.5l1.1-2.5l0.5-2.2l0.1-2.6l-0.1-1.4l-0.2-1L37.9,79.2z M38.6,79.9l0,0.1l0.1,0.2 M34.1,77l-0.4-0.6h-0.2 M35.5,79.6l0.5,0.8
		l-0.2-0.6L35.2,78l-0.7-1.1L34,76.4l-0.3-0.1 M34.1,77l0.2,0.2 M34.1,76.4L34.1,76.4 M35.3,79l-0.1-0.2 M36,80.4l0,0.3l0.2,2.1
		l-0.2,2.4v0.1l0,0.1l0,0.3 M35.9,82.1L35.9,82.1l-0.1-0.5v0L35.8,81 M35.1,87.8l0,0.1l0.2-0.6v-0.1 M39,85.8h0.3l0.1-0.1l2.7-0.4
		l4.1-1.2l0.2-0.1l1.2-0.5l2.4-1.2l0.2-0.1l2.8-1.9l0.1-0.1l1.5-1.2l2.4,2.5 M31.4,93.5l0.5-0.4l1-1.2l1.8-2.8l0.5-1.1 M33,91.3
		l0.5-0.8l0-0.1l0.3-0.5v-0.1l0.3-0.4l0.2-0.4 M33,91.3L33,91.3 M28,95.1l-0.7,0.1h0 M31.2,93.6l-0.4,0.3l-0.9,0.7l-1.6,0.8
		l-1.2,0.2h-0.3l0.2,0.1 M26.4,95.3l0.2,0.1l0.2,0.2 M26,97.1l1.2,0.3l0.8,0.1h0.5l0.8-0.1l1.7-0.5l0.4-0.2l0.5-0.2l0.4-0.3l0.5-0.2
		l0.2-0.1 M29.9,94.2L29,94.7 M30.8,93.8v0.1 M32.9,91.5l-0.3,0.4 M78.6,56l0-0.2v-0.1l0.1-0.1l-0.1,0.2L78.6,56L78.6,56l-0.3,0.5
		l0.2,0.3l0.6-0.8l-0.2-0.3l-0.2-0.3L78.5,55l0.1,0.2l-0.1-0.1l0,0l-0.2-0.1h-0.1l0.2,0h0.1 M78.5,56.8l-0.2,0l0.3,0l0.1-0.1
		l0.1-0.1l0.1-0.1l0.2-0.2l0-0.1l0.1-0.4v-0.1l-0.3-0.2 M79.4,56.5l-0.2,0.2l-0.1,0.1L79.1,57l-0.6,0.4l0.4,0.4l0.5,0.1 M79.4,56.1
		l0,0.2l-0.1,0.2L79,56.9L78.7,57l-0.2,0.2l-0.4,0.2H78h-0.1l-0.1,0l-0.1,0l-0.4-0.1L77,57.1L76.7,57l-0.3-0.2L74,55.2l2.6,1.8
		l0.1,0.1h0.1l0.1,0.1H77l0.6,0.2l0.5,0.2l0.2-0.1l0.2-0.1h0.1 M76.4,53l-0.2,0.2L76,53.1l-3.3-3.7l-0.2-0.3l-0.1-0.2l-0.6-0.5
		l-0.2-0.3l-0.1,0l-1.5-1.4l-0.5-0.3L69.1,46l-8.7-5.2l-1.5-0.6l-0.4-0.1l-0.3-0.1l-0.3,0h-0.2L57.3,40h-0.5l-0.4,0.2l-0.3,0.2
		l-0.5,1 M54.7,42.4l0.2-0.2l0.3-0.1l0.2-0.1h0.9l2,0.5l2.5,1.1l0.4,0.2l1.4,0.8l0.5,0.3l0.5,0.2l2.4,1.5l3.8,3.1l1.5,1.5l3.6,4
		l0.3-0.6l-4-4.5l-0.3-0.3l-0.3-0.4l-4.7-3.7l-5.2-3l-2.8-1.1l-0.3-0.1l-0.3-0.1l-0.6-0.1h-0.5 M76.3,56.7l-1.5-1.6L74.4,55l-1-1.3
		l-0.8,1l0.3,0.2l0.3-0.2l0.8,0.6 M74,56.7l-0.4-0.3L74,56.7L74,56.7l0.2,0.2l0.2,0l0.1,0.1l0.1,0l0.1,0.1h0h0.2l1.1,0.5l0.2,0.1
		h0.2l0.2,0.1h0.2l0.6-0.2l0.2-0.2 M77.6,55.2L77.6,55.2l-0.1,0.2L77.6,55.2l0.2-0.1l0.1,0h-0.1L77.6,55.2L77.6,55.2z M76.3,56.7
		l0.1,0.1l-1.6-1.7 M77.9,57.3L77.9,57.3L77.9,57.3l-0.1-0.1l-0.3-0.1 M77.4,56.6l0.3,0.3l0.4-0.1l0.3-0.1 M77.9,57.3l0.2,0
		L77.9,57.3l-0.1-0.1L76.9,57h-0.1l-0.1-0.1l-0.1,0l0-0.1l-0.1,0l0.2,0.2 M74.7,57.2l1.2,0.5 M78.5,57.1l0.2-0.2h0 M78.1,56.9
		l0.5,0.1l0.2-0.2 M74.9,50.8L73.2,49l-0.1-0.2l-0.6-0.7l-3.1-2.7L69,45.1l-0.4-0.3l-5.2-3.3l-2.7-1.2l-2.2-0.7h-0.3l-0.5-0.1h-0.2
		 M71.8,48.4l0.3,0.3l0.2,0.2 M69.2,59.3l4-5.8l-1.9-2.3 M66.9,58.5l-0.3-0.2l-0.2-0.1h-0.2v0.2l0.1,0.1v0.1l0.1,0.3l0,0v0.1
		l0.1,0.2l0.1,0.3l0.1,0.3v0.3l0,0.3l0.1,0v0.2 M66.8,61.1v0.8l-0.1,0.2 M69,62.8l0.2-0.3l0.2-0.7l0-0.1v-0.2l0.1-0.1v-1l-0.1-0.2
		V60l-0.1-0.4 M69.2,62.5l1.8,0.8l0.2,0.1h0.2l0.3,0.2l-0.5-0.2 M70.9,64.4l-0.2,0.3 M70.9,63.3l-0.5,0l-0.2,0.1L70,63.7l-0.3,0.4
		L69,63.9l0.5-0.8l0.8,0.3L70,63.7 M69.7,64.5V65l0.2,0.4v0.2l0.2,0.1l0.3,0.1l-0.1-0.2v-0.2l-0.1-0.2v-0.2l0-0.2l-0.1-0.1v-0.2
		L69.7,64.5L69.7,64.5l-0.1,0.7l0,0.4l0.4,0.2 M68,64l-0.2,0.2l-0.2,0.1l-0.1,0l-0.2,0.2l-0.2,0.1h-0.1L67,64.6l2.6,0.9 M67,64.6
		l-0.2,0.1l-0.2,0.1l-0.1,0L66,64.9h-0.1L65.7,65h-0.3 M62.8,71.4l-0.1,0.1l-0.1,0.1l-0.2,0.1l-0.3,0.2L62,72h-1v-0.1 M59.2,79.3
		L59.2,79.3L59.2,79.3l-0.1,0.2l-0.2,0.2l-0.1,0.1l-0.3,0.2l-0.1,0.2l-0.2,0.1l-0.1,0.2l-0.4,0.2l-0.1,0.1l-0.2,0.2l-0.1,0.1
		l0.2-0.3l0.1-0.1l0.2-0.1l0.7-0.7l0.2-0.1L59.2,79.3l-2.3-2.5l1.7-2.1l0.1-0.1l2-2.8 M74.2,65.3h-0.3l-2.6-1 M74.6,65.6h0.2l0.1,0
		v0.1l0.1,0.1v0.1L74.9,66v0.1l-0.1,0.2l-0.2,0.1h-0.1l-0.1-0.1v-0.1l-0.1-0.1l0.2-0.3L74.6,65.6L74.6,65.6z M74.8,65.6l-0.2,0
		 M74.5,66.4l-0.1-0.2 M72.5,49.1l3.7,4.2 M73.6,66.1l-2.7-1 M72.6,55.6l1,0.8 M73.3,53.6l-0.2-0.2"/>
	<path id="Layer1_7_MEMBER_0_1_STROKES" class="st5" d="M135.8,38.9l3.1,0.5"/>
	<path id="Layer1_7_MEMBER_1_1_STROKES" class="st5" d="M139.5,38l1.2,0.2"/>
	<path id="Layer1_7_MEMBER_2_1_STROKES" class="st5" d="M126.6,15.8l-11.9-2.1"/>
	<path id="Layer1_7_MEMBER_3_1_STROKES" class="st5" d="M131.1,16.6l-0.5,0"/>
	<path id="Layer1_7_MEMBER_4_1_STROKES" class="st5" d="M135.9,17.4l-0.8-0.1"/>
	<path id="Layer1_7_MEMBER_5_1_STROKES" class="st5" d="M139.8,16.5l3.2,0.5"/>
	<path id="Layer1_7_MEMBER_6_1_STROKES" class="st5" d="M142.5,18.5l0.9,0.2"/>
	<path id="Layer1_7_MEMBER_7_1_STROKES" class="st5" d="M123.3,41.3l0.1-0.2"/>
	<path id="Layer1_7_MEMBER_8_1_STROKES" class="st5" d="M122.9,40.8l-0.1,0.2"/>
	<path id="Layer1_7_MEMBER_9_1_STROKES" class="st5" d="M126.3,44.6l0.1-0.2"/>
	<path id="Layer1_7_MEMBER_10_1_STROKES" class="st5" d="M125.7,44.3l0.1-0.2"/>
	<path id="Layer1_7_MEMBER_11_1_STROKES" class="st5" d="M133.5,13.6l0.4-0.8"/>
	<path id="Layer1_7_MEMBER_12_1_STROKES" class="st5" d="M130,10.8l-0.4,0.7"/>
	<path id="Layer1_7_MEMBER_13_1_STROKES" class="st5" d="M133.4,11l0,0.8"/>
	<path id="Layer1_7_MEMBER_14_1_STROKES" class="st5" d="M114.3,39.8l0.1-0.2"/>
	<path id="Layer1_7_MEMBER_15_1_STROKES" class="st5" d="M113.9,39.3l-0.1,0.2"/>
	<path id="Layer1_7_MEMBER_16_1_STROKES" class="st5" d="M131.1,10.6l0.7-0.5"/>
	<path id="Layer1_7_MEMBER_17_1_STROKES" class="st5" d="M106.1,26.9l1.4,1.7"/>
	<path id="Layer1_7_MEMBER_18_1_STROKES" class="st5" d="M101.5,31l1.4,1.5"/>
	<path id="Layer1_7_MEMBER_19_1_STROKES" class="st5" d="M109.1,28.2l0.3,0.3"/>
	<path id="Layer1_7_MEMBER_20_1_STROKES" class="st5" d="M109.4,28.5l1.5,1.8"/>
	<path id="Layer1_7_MEMBER_21_1_STROKES" class="st5" d="M105.3,38.2l0.1-0.2"/>
	<path id="Layer1_7_MEMBER_22_1_STROKES" class="st5" d="M101.3,32.9l0.3,0.4"/>
	<path id="Layer1_7_MEMBER_23_1_STROKES" class="st5" d="M101.6,33.3l1.5,1.7"/>
	<path id="Layer1_7_MEMBER_24_1_STROKES" class="st5" d="M119.6,46.1l0.1-0.2"/>
	<path id="Layer1_7_MEMBER_25_1_STROKES" class="st5" d="M108.2,41.5l0.1-0.2"/>
	<path id="Layer1_7_MEMBER_26_1_STROKES" class="st5" d="M110.1,12l0.5,0.1"/>
	<path id="Layer1_7_MEMBER_27_1_STROKES" class="st5" d="M112.9,10.1l0.4-0.7"/>
	<path id="Layer1_7_MEMBER_28_1_STROKES" class="st5" d="M111.8,15.3l0.2,0.1"/>
	<path id="Layer1_7_MEMBER_29_1_STROKES" class="st5" d="M109,8l0.4-0.8"/>
	<path id="Layer1_7_MEMBER_30_1_STROKES" class="st5" d="M112.8,8.3l-0.1-0.8"/>
	<path id="Layer1_7_MEMBER_31_1_STROKES" class="st5" d="M110.6,44.5l0.1-0.2"/>
	<path id="Layer1_7_MEMBER_32_1_STROKES" class="st5" d="M110.5,7.1l0.7-0.5"/>
	<path id="Layer1_7_MEMBER_33_1_STROKES" class="st5" d="M98.8,31.5L98,31.4"/>
	<path id="Layer1_7_MEMBER_34_1_STROKES" class="st5" d="M102.3,11.1l-0.6-0.1"/>
	<path id="Layer1_7_MEMBER_35_1_STROKES" class="st5" d="M94.1,31.3l0.8-0.2h1.4l0.7,0.1h0.1l0.4,0l0.4,0.1"/>
	<path id="Layer1_7_MEMBER_36_1_STROKES" class="st5" d="M108.2,41.5l2.5,2.8"/>
	<path id="Layer1_7_MEMBER_37_1_STROKES" class="st5" d="M105.3,38.2l2.4,2.8"/>
	<path id="Layer1_7_MEMBER_38_1_STROKES" class="st5" d="M123.2,40.5l6.6,7.4"/>
	<path id="Layer1_7_MEMBER_39_1_STROKES" class="st5" d="M128.1,31l1.3,1.6"/>
	<path id="Layer1_7_MEMBER_40_1_STROKES" class="st5" d="M104.4,37.3l18.8,3.2l4.9-9.5l-18.8-3.2l-0.2,0.4"/>
	<path id="Layer1_7_MEMBER_41_1_STROKES" class="st5" d="M104.8,37.6l-0.4-0.3l1-1.8"/>
	<path id="Layer1_7_MEMBER_42_1_STROKES" class="st5" d="M129.2,47.8l0.6,0.1l4.9-9.4"/>
	<path id="Layer1_7_MEMBER_43_1_STROKES" class="st5" d="M120.2,46.3l8.5,1.4"/>
	<path id="Layer1_7_MEMBER_44_1_STROKES" class="st5" d="M111.1,44.7l8.4,1.4"/>
	<path id="Layer1_7_MEMBER_45_1_STROKES" class="st5" d="M112,12.9l-0.2,0.2l-0.1,0.2l-0.2,0.3l-0.1,0.4v0.3l0.1,0.4v0.1l0.1,0.2
		l0.2,0.2l0.1,0l0.1,0.1h0.2l0.2-0.1l0.1-0.1l0.2-0.1l0.1-0.2l0.1-0.1l0.1-0.3l0.1-0.2v-0.8l-0.1-0.3l0-0.1l-0.1-0.1l-0.1-0.2
		l-0.1-0.1l-0.2,0h-0.2l-0.1,0.1L112,12.9z"/>
	<path id="Layer1_7_MEMBER_46_1_STROKES" class="st5" d="M130.4,21.7l0.2,0.1"/>
	<path id="Layer1_7_MEMBER_47_1_STROKES" class="st5" d="M125.9,21l0.2,0.1l1.2-8.9"/>
	<path id="Layer1_7_MEMBER_48_1_STROKES" class="st5" d="M127.8,11.6l3.5,0.6"/>
	<path id="Layer1_7_MEMBER_49_1_STROKES" class="st5" d="M130.9,22l-0.2-0.1l-0.2-0.2l1.2-8.9v-0.2l-0.2-0.3"/>
	<path id="Layer1_7_MEMBER_50_1_STROKES" class="st5" d="M129.4,17.6l-0.2,0.2"/>
	<path id="Layer1_7_MEMBER_51_1_STROKES" class="st5" d="M129.7,17.5l-0.2,0.2"/>
	<path id="Layer1_7_MEMBER_52_1_STROKES" class="st5" d="M126.4,21.2h-0.3"/>
	<path id="Layer1_7_MEMBER_53_1_STROKES" class="st5" d="M126.4,21.2l-0.2-0.2"/>
	<path id="Layer1_7_MEMBER_54_1_STROKES" class="st5" d="M112.6,8.2L112.4,8l-0.2-0.1l-0.4-0.3l-0.7-0.3l-0.2,0l-0.2-0.1l-0.4-0.1
		h-0.4"/>
	<path id="Layer1_7_MEMBER_55_1_STROKES" class="st5" d="M133.4,11.9l-0.2-0.2l-0.2-0.1l-0.9-0.5l-0.2-0.2l-0.2,0l-0.2-0.1l-0.6-0.2
		"/>
	<path id="Layer1_7_MEMBER_56_1_STROKES" class="st5" d="M133,10.5l-0.3-0.2"/>
	<path id="Layer1_7_MEMBER_57_1_STROKES" class="st5" d="M130.7,15.8l0.1,1.2"/>
	<path id="Layer1_7_MEMBER_58_1_STROKES" class="st5" d="M131.3,15.2l-0.2-0.1"/>
	<path id="Layer1_7_MEMBER_59_1_STROKES" class="st5" d="M133.6,18.6l0.6-0.4"/>
	<path id="Layer1_7_MEMBER_60_1_STROKES" class="st5" d="M133.3,18.9l0.4-0.2"/>
	<path id="Layer1_7_MEMBER_61_1_STROKES" class="st5" d="M132.4,19.8l0.1-0.2"/>
	<path id="Layer1_7_MEMBER_62_1_STROKES" class="st5" d="M132,11.9l-1.4,9.9l0.2,0.2"/>
	<path id="Layer1_7_MEMBER_63_1_STROKES" class="st5" d="M135.2,17.8l-0.1-2.4l-3.1-3.5l-4.8-0.8l-1.3,9.9l0.2,0.2"/>
	<path id="Layer1_7_MEMBER_64_1_STROKES" class="st5" d="M109.7,12.6l0.4-0.2v-0.3l0.1-0.1v-0.2l0.2-0.2h0.1l0.2,0.1"/>
	<path id="Layer1_7_MEMBER_65_1_STROKES" class="st5" d="M105.7,16.4l1.1-7.8l0.1-0.2V8.3l0.1-0.1l0.1-0.1l0.1-0.1h0.1l3.5,0.6
		l0.1,0l0.1,0.1l0.1,0.2l0.1,0.2v0.2l-1.2,8.9"/>
	<path id="Layer1_7_MEMBER_66_1_STROKES" class="st5" d="M111.4,8.4l-4.8-0.8l-1.2,8.8l0.2,0.1"/>
	<path id="Layer1_7_MEMBER_67_1_STROKES" class="st5" d="M109.8,18.2l0.2,0.2l0.2,0.1"/>
	<path id="Layer1_7_MEMBER_68_1_STROKES" class="st5" d="M110.3,18.5l-0.2-0.2l1.3-9.9l3.1,3.5l0.1,2.4"/>
	<path id="Layer1_7_MEMBER_69_1_STROKES" class="st5" d="M106.2,10.2l-0.4-0.1H105l-0.4,0.1l-0.4,0.1l-1.1,0.4l-0.8,0.4l-1.1,0.8
		l-1.4,1.4l-0.6,0.8L98,16.5l-0.8,2.2L96.7,21l-0.2,2.4l0.1,2.2l0.4,2.2l0.5,1.5l0.4,0.8l1,1.6l0.6,0.6l0.9,0.8l1.1,0.5l0.4,0.1"/>
	<path id="Layer1_7_MEMBER_70_1_STROKES" class="st5" d="M106,11.3l-1.1,0.8l-0.3,0.3l-0.4,0.3l-0.4,0.4l-1.6,2l-1.2,2.5l-0.7,2.2
		l-0.2,1.2l-0.2,0.5l-0.1,1.2l-0.1,0.5l0.2,4l0.2,1.1l0.9,2.3l0.5,0.8"/>
	<path id="Layer1_7_MEMBER_71_1_STROKES" class="st5" d="M106.2,34.1l-4.3-0.8"/>
	<path id="Layer1_7_MEMBER_72_1_STROKES" class="st5" d="M107.7,35.9l-4.3-0.8"/>
	<path id="Layer1_7_MEMBER_73_1_STROKES" class="st5" d="M109.4,28.6v0.3l-2.5,4.8"/>
	<path id="Layer1_7_MEMBER_74_1_STROKES" class="st5" d="M110.9,30.7l-2.5,4.8"/>
	<path id="Layer1_7_MEMBER_75_1_STROKES" class="st5" d="M100.9,12.2l-0.4,0.2l-0.9,0.9l-0.9,1.2l-0.5,0.9l-0.9,1.9l-0.7,2.2
		l-0.3,1.6l-0.1,2.2l0.1,2.2l0.5,2l0.5,1.3l0.7,1.2"/>
	<path id="Layer1_7_MEMBER_76_1_STROKES" class="st5" d="M107.9,29.4v0.4l-0.1,0.2l-0.1,0.2l-0.1,0.2l-0.1,0.2l-0.4,0.8l-0.4,0.5
		l-0.4,0.3l-0.8,0.4l-0.2,0.1L105,33l-0.2,0.1H104l-0.2,0"/>
	<path id="Layer1_7_MEMBER_77_1_STROKES" class="st5" d="M101.5,28.3l-0.1,0.2l-0.2,0.2l-0.1,0.2l-0.1,0.2v0.8l0.1,0.4l0.4,0.5
		l0.2,0.1l0.2,0.2l0.2,0.1l0.4,0.1h0.8l0.2-0.1l0.2,0l0.6-0.2l0.2-0.2l0.3-0.2l0.4-0.4l0.6-0.7l0.1-0.2l0.4-1v-0.7l-0.1-0.4
		l-0.1-0.2l-0.1-0.2l-0.3-0.3l-0.4-0.2l-0.5-0.1h-0.5l-0.5,0.1l-0.8,0.3l-0.5,0.3l-0.2,0.2l-0.8,0.8L101.5,28.3z"/>
	<path id="Layer1_7_MEMBER_78_1_STROKES" class="st5" d="M101.8,33.4l4.3,0.8h0.3l0.2-0.1l0.1-0.1l0.2-0.2v-0.1l2.5-4.7"/>
	<path id="Layer1_7_MEMBER_79_1_STROKES" class="st5" d="M106.7,27.7l2.2,0.4h0.1l0.1,0l0.1,0.1l0.1,0.1l0,0.1l0,0.1v0.1l-2.5,4.8
		l0,0.2l-0.2,0.1l-0.1,0.1l-0.1,0l-0.1,0.1h-0.3l-4.4-0.7l-0.1,0l-0.1-0.2l-0.1-0.1v-0.1l0.1-0.1l0.6-1.2"/>
	<path id="Layer1_7_MEMBER_80_1_STROKES" class="st5" d="M133.4,19.8l-0.8,1.1l-0.2,0.4l-0.3,0.4L131,24l-0.1,0.5l-0.2,0.5l-0.4,2.1
		l-0.1,2.7l0.5,2.9l0.3,0.8"/>
	<path id="Layer1_7_MEMBER_81_1_STROKES" class="st5" d="M143.4,18.7h-0.6l-0.4,0.1l-0.7,0.2l-0.7,0.3l-0.9,0.7l-0.4,0.3l-1.2,1.3
		l-0.6,0.8l-0.9,1.8l-0.6,1.5l-0.4,2l-0.2,2.7l0,1l0.1,0.5l0.1,1l0.5,1.8l1.1,1.8l0.8,0.8l0.6,0.4l1.2,0.5h0.3l0.4,0.1h0.6l0.4-0.1"
		/>
	<path id="Layer1_7_MEMBER_82_1_STROKES" class="st5" d="M139.6,37.5l0.4,0.2"/>
	<path id="Layer1_7_MEMBER_83_1_STROKES" class="st5" d="M137.6,35.7l0.3,0.5"/>
	<path id="Layer1_7_MEMBER_84_1_STROKES" class="st5" d="M137.1,34.9l0.2,0.4"/>
	<path id="Layer1_7_MEMBER_85_1_STROKES" class="st5" d="M136.2,31.6v0.2l0.1,0.5"/>
	<path id="Layer1_7_MEMBER_86_1_STROKES" class="st5" d="M136.1,30.2v0.6"/>
	<path id="Layer1_7_MEMBER_87_1_STROKES" class="st5" d="M136.2,28.3l-0.1,0.4"/>
	<path id="Layer1_7_MEMBER_88_1_STROKES" class="st5" d="M136.5,26.4l-0.1,0.8"/>
	<path id="Layer1_7_MEMBER_89_1_STROKES" class="st5" d="M136.9,25.2l-0.1,0.3"/>
	<path id="Layer1_7_MEMBER_90_1_STROKES" class="st5" d="M137.7,23.3l-0.2,0.5"/>
	<path id="Layer1_7_MEMBER_91_1_STROKES" class="st5" d="M138.4,22.1l-0.2,0.4"/>
	<path id="Layer1_7_MEMBER_92_1_STROKES" class="st5" d="M139.2,21l-0.2,0.3"/>
	<path id="Layer1_7_MEMBER_93_1_STROKES" class="st5" d="M140.4,20l-0.2,0.1"/>
	<path id="Layer1_7_MEMBER_94_1_STROKES" class="st5" d="M141.6,19.3l-0.5,0.2"/>
	<path id="Layer1_7_MEMBER_95_1_STROKES" class="st5" d="M143.7,17.3l-0.3-0.2l-0.4-0.1l-0.3-0.1h-0.7l-0.8,0.1l-1.5,0.5l-1.4,1
		l-0.7,0.7l-0.9,1.1l-0.5,0.9l-0.3,0.4l-0.8,1.4l-0.4,1.1l-0.9,4.4v2.8l0.2,1.1l0.8,2.9l0.7,1.2l0.5,0.7l0.8,0.9l0.6,0.4l0.6,0.3
		l1.1,0.3l0.8,0.1h0.4l0.8-0.1l0.7-0.2l1.1-0.6l0.5-0.4"/>
	<path id="Layer1_7_MEMBER_96_1_STROKES" class="st5" d="M139.8,16.5l-0.3-0.1h-0.8l-0.8,0.1l-0.8,0.2l-1.4,0.8l-0.7,0.6l-1.9,2.1
		l-0.8,1.4l-1.1,2.6l-0.6,2.2l-0.2,2.2v1.7l0.2,2.1l0.6,1.9l0.6,1.3l0.2,0.3l0.2,0.4l0.2,0.3l0.6,0.6l0.2,0.3l0.3,0.2l1,0.6l1.1,0.3
		"/>
	<path id="Layer1_7_MEMBER_97_1_STROKES" class="st5" d="M142.5,18.5h-0.4l-0.3-0.1l-0.7,0.1l-0.7,0.2l-1.3,0.7l-1.2,1.2l-0.9,1.1
		l-1.2,2.2l-0.9,3l-0.2,4.2l0.6,2.8l0.9,1.9l0.2,0.3l0.8,0.8l0.6,0.4l0.9,0.5l0.7,0.1"/>
	<path id="Layer1_7_MEMBER_98_1_STROKES" class="st5" d="M114.1,39.2h-0.2"/>
	<path id="Layer1_7_MEMBER_99_1_STROKES" class="st5" d="M114.4,39.3l-0.3-0.2"/>
	<path id="Layer1_7_MEMBER_100_1_STROKES" class="st5" d="M122.8,41L122.8,41L122.8,41v0.1h0.1l0,0.1h0.1l0.1,0l0.1,0.1h0.2v-0.2
		l-0.1-0.1l-0.1-0.1H123L122.8,41L122.8,41z"/>
	<path id="Layer1_7_MEMBER_101_1_STROKES" class="st5" d="M125.9,44.4L125.9,44.4l-0.2-0.1v0.1l0.1,0.1h0.1l0.1,0.1h0.1l0.1,0h0.1
		l0.1,0v-0.1l-0.1,0h-0.1l0-0.1l-0.1,0H125.9z"/>
	<path id="Layer1_7_MEMBER_102_1_STROKES" class="st5" d="M126.3,44.2l-0.3-0.2h-0.3"/>
	<path id="Layer1_7_MEMBER_103_1_STROKES" class="st5" d="M128.6,47.6L128.6,47.6l0.1,0.2h0.1l0.1,0.1l0,0h0.1l0.1,0.1h0.1l0-0.1
		v-0.1l-0.1,0l-0.1-0.1H129l-0.2-0.1H128.6z"/>
	<path id="Layer1_7_MEMBER_104_1_STROKES" class="st5" d="M119.9,46.2l-0.2-0.1h-0.1v0.1l0.1,0.1h0.1l0.1,0.1h0.1l0.1,0h0.1l0.1,0
		v-0.1l-0.1-0.1L119.9,46.2L119.9,46.2z"/>
	<path id="Layer1_7_MEMBER_105_1_STROKES" class="st5" d="M111,44.7L111,44.7L111,44.7l-0.3-0.2h-0.1l-0.1,0v0.1h0.1l0.1,0.1h0
		l0.1,0.1L111,44.7v0.2h0.1l0.1-0.1v-0.1H111z"/>
	<path id="Layer1_7_MEMBER_106_1_STROKES" class="st5" d="M107.8,41.2h-0.1v0.2h0l0.1,0.1h0.2l0.1,0.1h0.2l0,0v-0.1l-0.1-0.2l-0.1,0
		h0L107.8,41.2z"/>
	<path id="Layer1_7_MEMBER_107_1_STROKES" class="st5" d="M108,41h-0.3"/>
	<path id="Layer1_7_MEMBER_108_1_STROKES" class="st5" d="M105.4,38l-0.2-0.2"/>
	<path id="Layer1_7_MEMBER_109_1_STROKES" class="st5" d="M104.7,37.9L104.7,37.9L104.7,37.9V38v0h0.1l0.1,0.1h0.1l0.1,0.1l0.1,0.1
		h0.1l0.1-0.1v-0.1h-0.1l-0.1-0.1h-0.1L105,38h-0.1l-0.1-0.1H104.7z"/>
	<path id="Layer1_7_MEMBER_110_1_STROKES" class="st5" d="M105.4,37.7l-0.3-0.2"/>
	<path id="Layer1_7_MEMBER_111_1_STROKES" class="st5" d="M105.8,32.8L105.8,32.8l-0.1,0.1v0.2l0.1,0.1h0.1l0.1-0.1h0.1l0.1-0.1l0,0
		v-0.2l-0.1-0.1H106l-0.1,0.1H105.8z"/>
	<path id="Layer1_7_MEMBER_112_1_STROKES" class="st5" d="M108.3,28.1L108.3,28.1l-0.2,0l0,0.1l-0.1,0l-0.1,0.1v0.1l0.1,0.1l0.1,0.1
		h0.1l0.1-0.1h0l0.1-0.1l0.1-0.1v-0.2l-0.1-0.1H108.3z"/>
	<path id="Layer1_7_MEMBER_113_1_STROKES" class="st5" d="M101.8,32h-0.1l-0.1,0.1l-0.1,0l-0.1,0.1l-0.1,0.1l-0.1,0.1v0.1h0.1
		l0.1,0.1l0.1,0.1l0-0.1h0.1l0.1-0.2v0l0.1-0.1v-0.2L101.8,32L101.8,32L101.8,32z"/>
	<path id="Layer1_7_MEMBER_114_1_STROKES" class="st5" d="M110.5,13.3l-0.2,0.2h-0.1l-0.6,0.5l-0.1,0.1l-0.3,0.2v0l-0.3,0.2
		l-0.1,0.1l-0.2,0.2l-0.1,0.1l-0.4,0.3l-0.2,0.3l-0.1,0.1l-1,1.6l-0.1,0.2l-0.1,0.2l-0.1,0.3l-0.2,0.5l-0.1,0.2l-0.3,0.9V20
		l-0.2,0.4l-0.1,0.1l-0.1,0.5v0.1l-0.1,0.5v0.1l-0.4,3.3l0.1,0.1v1"/>
	<path id="Layer1_7_MEMBER_115_1_STROKES" class="st5" d="M116.4,13.9l-0.2-0.2l-0.1-0.1l-0.2-0.2l-0.1-0.1l-0.2-0.2h-0.1l-0.2-0.2
		l-0.3-0.2"/>
	<path id="Layer1_7_MEMBER_116_1_STROKES" class="st5" d="M110.2,14.9l-0.6,0.6l-0.9,1l-0.8,1.2l-0.8,1.9l-0.6,2.1l-0.1,0.5
		l-0.2,2.1l0.1,1.6l0.2,1v0.3"/>
	<path id="Layer1_7_MEMBER_117_1_STROKES" class="st5" d="M101.5,32.4l0.2,0.2"/>
	<path id="Layer1_7_MEMBER_118_1_STROKES" class="st5" d="M108.1,28.6l0.1,0.2"/>
	<path id="Layer1_7_MEMBER_119_1_STROKES" class="st5" d="M114.2,39.6L114.2,39.6l0.1,0.2l-0.1,0h-0.1l-0.2-0.1l-0.1-0.1l-0.1-0.1v0
		l0.1-0.1l0.2,0.1L114.2,39.6z"/>
	<path id="Layer1_7_MEMBER_120_1_STROKES" class="st5" d="M104.7,38l0.1-0.2"/>
	<path class="st0" d="M141.2,16.9l-0.4-0.2l-1.2-0.2l-2.1,0.1l-0.8,0.5l-0.9,0.4l-0.6-0.2v-0.4l-0.1-0.3v-0.2l-0.1-0.3v-0.5l0-0.1
		l-0.6-0.8l-0.3-0.2l-0.2-0.3l-0.1-0.2l-0.2-0.2l0.2-0.1v-0.1l0.1-0.1l0-0.1v-0.9l-0.1-0.1v-0.1l-0.1-0.1v-0.1h-0.1l-0.1-0.4l0.1,0
		v-0.1l0.1-0.1v-0.2h-0.1l-0.1-0.1l-0.1,0l0-0.1l-0.1-0.1l-0.1-0.1l-0.1-0.1l-0.1-0.2v0l-0.4-0.3l-0.1-0.1v-0.1h-0.2l-0.1,0.1
		l-0.2,0.1h-0.1l-0.1,0h-0.1l-0.6,0.2h-1l-0.1,0.1l-0.1,0l-0.1,0.2l-0.1,0.1l-0.1,0.2l-0.1,0.2l-0.1,0.1l-0.1,0.1l-2.2-0.2l-0.9,4.8
		l-10-1.9l-0.6-0.6l-0.6-0.4h-0.1l-0.1-0.1l-0.2-0.1l-0.1-0.1v-0.2l-0.1-0.1v-0.1l0,0v-0.2l-1.7-2h0.1l0.1-0.1l0-0.1l0.1-0.1
		l0.1-0.1l0-0.2l0.1-0.1V9.1l-0.1-0.1l0-0.1V8.9l-0.1-0.1l-0.1-0.1l-0.1-0.2l-0.1-0.1L113,8.3l-0.1-0.2l0-0.1v0L112.8,8l-0.1-0.5
		L112.1,7L112,6.9l-0.1-0.1l-0.1-0.2h-0.1l-0.1,0h-0.2l-0.1,0H111L111,6.7l-0.2,0.1v0.1h-0.1l-0.1,0.2l-0.1,0.1v0h-0.1l-0.1,0.1h-1
		L109.1,8l-2.4-0.4l-0.6,2.7h0l-0.1-0.1l-0.1-0.1l-0.1-0.1h-0.2l-0.1-0.1h-0.4l-0.4,0.1l-0.2,0.1l-0.2,0.2l-0.4,0.2h-0.1l-0.1,0
		l-1.7,0.8l-0.1,0h-0.1l-0.2,0.2l-0.2,0.1l-0.4,0.4l-0.3,0.2l-0.1,0l-0.1,0.1l-0.3,0.3l-0.2,0.1l-0.2,0.2l-0.2,0.2l-0.3,0.3v0l0,0.1
		L99,13.9l-0.1,0.2l0,0.2l-0.1,0.2l-0.1,0.1l-0.1,0.2l-0.1,0.1l0,0.1L98.4,15l-0.5,1.1l-0.2,0.2l-0.1,0.2l-0.2,0.2L96.8,18l-0.1,0.2
		l-0.1,0.1v0.1l-0.5,2.4L96.1,21v0.4L96,21.9v0.2L96,22.4v0.7l0.1,0.3v0.3l0.1,0.6v0.5l0.2,2l0.6,1.7l0.1,0v0.2l0.2,0.4l0.1,0.2
		l0.2,0.4l0.1,0.2l0.3,0.3l0.2,0.2l0.2,0.2l0.1,0.2l0.2,0.2V31l1.9,2l0.8,0.3h0.3l0,0h0.1l0.1,0.1l0.1,0.1l0.1,0.2L102,34l0.2,0.2
		l0.8,0.7l0.2,0.1l0,0.1l2.1,0.5v0l-0.1,0.2l0,0.2l-0.3,0.5l-0.2,0.7l-0.1,0.1l6.4,7.5l18.9,3.2l4.8-9.5l0.8,0.2l0.1,0.1h0.1
		l0.1,0.1l0.4,0.1l0.2,0.1l0.2,0.1h0.1l0-0.1l0.1,0h0.1l0.1-0.1h0.5l1,0.2l0.1,0.1l0.1,0h0.1l0.1,0.1l0.1,0.1h0.1l0.2,0h1.4l0.1,0
		h0.2l0.3-0.1h0.2l0.2-0.1l0.8-0.5l0.5-0.5l-2.8-0.1l-1.4-0.8l-1-1.1v-0.1l-0.1-0.2l-0.1-0.1l-0.3-0.4l-0.1-0.2l-0.1-0.2l-0.1-0.2
		l-0.1,0L137,35l-0.1-0.5l-0.2-0.3l-0.1-0.3l-0.4-0.8l0,0v-0.7l-0.1-0.2v-0.2l-0.1-0.2v-0.5l-0.1-0.4v-0.2l-0.1-0.2v-0.4h-0.1
		l0.5-3.5l0.4-1.1l0,0l0.1-0.1l0.1-0.1l0.1-0.2l0.2-0.8l0-0.1v0l0.1-0.4l0.1-0.2l0-0.2l0.2-0.6l0-0.1v-0.2l0.1-0.1l0.1-0.1L138,22
		l0.1-0.2l0.1-0.2l0.1-0.2l0.1-0.2l0.1-0.1l0.3-0.3l0.1-0.2l0.1-0.2l0.2-0.1l0.1-0.2l0.2,0v-0.1l2-1.3l0.8-0.2h1.3V18l0.2-0.7
		L143,17l-0.1,0h-0.5L141.2,16.9z"/>
	<path id="Layer1_7_MEMBER_121_1_STROKES" class="st5" d="M140.8,16.7l-1.2-0.2l-2.1,0.1l-0.8,0.5l-0.9,0.4l-0.6-0.2v-0.4l-0.1-0.3
		v-0.2l-0.1-0.3v-0.5l0-0.1l-0.6-0.8l-0.3-0.2l-0.2-0.3l-0.1-0.2l-0.2-0.2l0.2-0.1v-0.1l0.1-0.1l0-0.1v-0.9l-0.1-0.1v-0.1l-0.1-0.1
		v-0.1h-0.1l-0.1-0.4l0.1,0v-0.1l0.1-0.1v-0.2h-0.1l-0.1-0.1l-0.1,0l0-0.1l-0.1-0.1l-0.1-0.1l-0.1-0.1l-0.1-0.2v0l-0.4-0.3l-0.1-0.1
		v-0.1h-0.2l-0.1,0.1l-0.2,0.1h-0.1l-0.1,0h-0.1l-0.6,0.2h-1l-0.1,0.1l-0.1,0l-0.1,0.2l-0.1,0.1l-0.1,0.2l-0.1,0.2l-0.1,0.1
		l-0.1,0.1l-2.2-0.2l-0.9,4.8l-10-1.9l-0.6-0.6l-0.6-0.4h-0.1l-0.1-0.1l-0.2-0.1l-0.1-0.1v-0.2l-0.1-0.1v-0.1l0,0v-0.2l-1.7-2h0.1
		l0.1-0.1l0-0.1l0.1-0.1l0.1-0.1l0-0.2l0.1-0.1V9.1l-0.1-0.1l0-0.1V8.9l-0.1-0.1l-0.1-0.1l-0.1-0.2l-0.1-0.1L113,8.3l-0.1-0.2l0-0.1
		v0L112.8,8l-0.1-0.5L112.1,7L112,6.9l-0.1-0.1l-0.1-0.2h-0.1l-0.1,0h-0.2l-0.1,0H111L111,6.7l-0.2,0.1v0.1h-0.1l-0.1,0.2l-0.1,0.1
		v0h-0.1l-0.1,0.1h-1L109.1,8l-2.4-0.4l-0.6,2.7h0l-0.1-0.1l-0.1-0.1l-0.1-0.1h-0.2l-0.1-0.1h-0.4l-0.4,0.1l-0.2,0.1l-0.2,0.2
		l-0.4,0.2h-0.1l-0.1,0l-1.7,0.8l-0.1,0h-0.1l-0.2,0.2l-0.2,0.1l-0.4,0.4l-0.3,0.2l-0.1,0l-0.1,0.1l-0.3,0.3l-0.2,0.1l-0.2,0.2
		l-0.2,0.2l-0.3,0.3v0l0,0.1L99,13.9l-0.1,0.2l0,0.2l-0.1,0.2l-0.1,0.1l-0.1,0.2l-0.1,0.1l0,0.1L98.4,15l-0.5,1.1l-0.2,0.2l-0.1,0.2
		l-0.2,0.2L96.8,18l-0.1,0.2l-0.1,0.1v0.1l-0.5,2.4L96.1,21v0.4L96,21.9v0.2L96,22.4v0.7l0.1,0.3v0.3l0.1,0.6v0.5l0.2,2l0.6,1.7
		l0.1,0v0.2l0.2,0.4l0.1,0.2l0.2,0.4l0.1,0.2l0.3,0.3l0.2,0.2l0.2,0.2l0.1,0.2l0.2,0.2V31l1.9,2l0.8,0.3h0.3l0,0h0.1l0.1,0.1
		l0.1,0.1l0.1,0.2L102,34l0.2,0.2l0.8,0.7l0.2,0.1l0,0.1l2.1,0.5v0l-0.1,0.2l0,0.2l-0.3,0.5l-0.2,0.7l-0.1,0.1l6.4,7.5l18.9,3.2
		l4.8-9.5l0.8,0.2l0.1,0.1h0.1l0.1,0.1l0.4,0.1l0.2,0.1l0.2,0.1h0.1l0-0.1l0.1,0h0.1l0.1-0.1h0.5l1,0.2l0.1,0.1l0.1,0h0.1l0.1,0.1
		l0.1,0.1h0.1l0.2,0h1.4l0.1,0h0.2l0.3-0.1h0.2l0.2-0.1l0.8-0.5l0.5-0.5l-2.8-0.1l-1.4-0.8l-1-1.1v-0.1l-0.1-0.2l-0.1-0.1l-0.3-0.4
		l-0.1-0.2l-0.1-0.2l-0.1-0.2l-0.1,0L137,35l-0.1-0.5l-0.2-0.3l-0.1-0.3l-0.4-0.8l0,0v-0.7l-0.1-0.2v-0.2l-0.1-0.2v-0.5l-0.1-0.4
		v-0.2l-0.1-0.2v-0.4h-0.1l0.5-3.5l0.4-1.1l0,0l0.1-0.1l0.1-0.1l0.1-0.2l0.2-0.8l0-0.1v0l0.1-0.4l0.1-0.2l0-0.2l0.2-0.6l0-0.1v-0.2
		l0.1-0.1l0.1-0.1L138,22l0.1-0.2l0.1-0.2l0.1-0.2l0.1-0.2l0.1-0.1l0.3-0.3l0.1-0.2l0.1-0.2l0.2-0.1l0.1-0.2l0.2,0v-0.1l2-1.3
		l0.8-0.2h1.3V18l0.2-0.7L143,17l-0.1,0h-0.5l-1.2-0.2L140.8,16.7z"/>
</g>
<path id="Layer1_8_MEMBER_1_1_STROKES" class="st7" d="M238.4,127h84v27.8h-84V127z"/>
<g>
	<path class="st0" d="M137,19.8c-7.9,0.6-15.1,1.6-20.9,3c5.2-1.1,11.1-1.7,18-1.7c23.3,0.1,47.6,7.9,73.2,23.5l-2.8,6.3l16.2-6.3
		l-6.3-16.2l-2.8,6.3C186.9,23,162,18.1,137,19.8z"/>
	<path id="Layer1_10_1_STROKES_1_" class="st8" d="M133.9,21.1c23.3,0.1,47.6,7.9,73.2,23.5l-2.8,6.3l16.2-6.3l-6.3-16.2l-2.8,6.3
		C187,23.2,162,18.1,136.9,19.9c-7.9,0.6-15.1,1.6-20.9,3C121.2,21.7,127.2,21.2,133.9,21.1z M116,22.8c-3.4,0.9-6.3,1.7-9,2.8"/>
</g>
<text transform="matrix(1 0 0 1 250.5264 144.4449)" class="st9 st10">2100-P22</text>
</svg>
