<?xml version="1.0" encoding="utf-8"?>
<!-- Generator: Adobe Illustrator 24.1.2, SVG Export Plug-In . SVG Version: 6.00 Build 0)  -->
<svg version="1.1" id="Ebene_1" xmlns="http://www.w3.org/2000/svg" xmlns:xlink="http://www.w3.org/1999/xlink" x="0px" y="0px"
	 viewBox="0 0 349.1 161" style="enable-background:new 0 0 349.1 161;" xml:space="preserve">
<style type="text/css">
	.st0{fill:#0099FF;}
	.st1{fill:none;stroke:#FFFFFF;stroke-miterlimit:5;}
	.st2{opacity:0.2;fill:#0099FF;}
	.st3{fill:none;stroke:#0099FF;stroke-miterlimit:10;}
	.st4{fill:none;stroke:#000000;stroke-width:0.25;stroke-linecap:round;stroke-linejoin:round;}
	.st5{fill:#FF0000;}
	.st6{fill:none;stroke:#FF0000;stroke-width:0.25;stroke-linecap:round;stroke-linejoin:round;}
	.st7{fill:#CCCCCC;}
	.st8{fill:#00FF00;}
	.st9{fill:#3366FF;}
	.st10{fill:none;stroke:#000000;stroke-width:0.45;stroke-linecap:round;stroke-linejoin:round;}
	.st11{fill:none;stroke:#000000;stroke-width:2.15;stroke-linecap:round;stroke-linejoin:round;}
	.st12{fill:none;stroke:#000000;stroke-width:0.5;stroke-linecap:round;stroke-linejoin:round;}
	.st13{fill:none;stroke:#000000;stroke-width:0.65;stroke-linecap:round;stroke-linejoin:round;}
	.st14{font-family:'ArialMT';}
	.st15{font-size:11px;}
	.st16{font-size:14px;}
	.st17{fill:none;stroke:#FF9900;stroke-linecap:round;stroke-linejoin:round;}
	.st18{fill:#FFFFFF;}
	.st19{font-size:10px;}
</style>
<g>
	<path class="st0" d="M231.1,120l-1.3,7.4l15.4-10.9l-10.9-15.4l-1.3,7.4c-32.6-1.3-58.2-8.1-79.4-22l-2.7-1.5l3.4,3.6
		C176,105.2,201.5,115.8,231.1,120z"/>
	<path id="Layer1_10_1_STROKES_3_" class="st1" d="M148.2,82.8l6,5.7c21.7,16.8,47.4,27.3,76.6,31.5l-1.3,7.4l15.4-10.9l-10.9-15.4
		l-1.3,7.4c-32.6-1.3-59.4-8.9-80.5-22.9C148.2,82.8,148.2,82.8,148.2,82.8z M151.2,85.4"/>
</g>
<g>
	<circle class="st2" cx="143" cy="87.5" r="21.8"/>
	<circle class="st3" cx="143" cy="87.5" r="21.8"/>
</g>
<path id="Layer1_6_MEMBER_0_1_STROKES" class="st4" d="M97.3,154.6c2.4,2.4,5.4,3.7,8.9,3.7c3.5,0,6.5-1.2,8.9-3.7
	c2.5-2.5,3.7-5.5,3.7-8.9c0-3.5-1.2-6.5-3.7-8.9c-2.4-2.5-5.4-3.8-8.9-3.8c-3.5,0-6.4,1.3-8.9,3.8c-2.5,2.5-3.7,5.5-3.7,8.9
	C93.6,149.1,94.9,152.1,97.3,154.6z"/>
<path id="Layer1_6_MEMBER_1_1_STROKES" class="st4" d="M88.7,7.2V91"/>
<path id="Layer1_6_MEMBER_2_1_STROKES" class="st4" d="M96.9,7.2V91"/>
<path id="Layer1_6_MEMBER_3_1_STROKES" class="st4" d="M137.4,37.9c0-2.3-0.8-4.3-2.5-5.9c-1.6-1.6-3.6-2.5-5.9-2.5
	c-1.8,0-3.5,0.5-5,1.6c-1.5,1.1-2.5,2.4-3,4.2"/>
<path id="Layer1_6_MEMBER_4_1_STROKES" class="st4" d="M136.9,40.9c0.2-0.5,0.3-1,0.4-1.5c0.1-0.5,0.1-1,0.1-1.5"/>
<path id="Layer1_6_MEMBER_5_1_STROKES" class="st4" d="M117.8,96c0.1-0.6-0.6-1.3-2-2.3c-1.4-0.9-3.2-1.6-5.4-2.3
	c-2.2-0.7-4.1-1.1-5.8-1.2c-1.7-0.1-2.6,0.2-2.8,0.8"/>
<path id="Layer1_6_MEMBER_6_1_STROKES" class="st4" d="M117.8,96l9.5-27.3"/>
<path id="Layer1_6_MEMBER_7_1_STROKES" class="st4" d="M128.8,64.4l8.3-24"/>
<path id="Layer1_6_MEMBER_8_1_STROKES" class="st4" d="M101.8,91l9.4-27.1"/>
<path id="Layer1_6_MEMBER_9_1_STROKES" class="st4" d="M112.7,59.6l8.3-24.2"/>
<path id="Layer1_6_MEMBER_10_1_STROKES" class="st4" d="M115.2,136.8v-23.7"/>
<path id="Layer1_6_MEMBER_11_1_STROKES" class="st4" d="M99.4,113.1h15.7"/>
<path id="Layer1_6_MEMBER_12_1_STROKES" class="st4" d="M99.4,113.1l0,4.4l4.6,7.3l0.1,0.8l-5.1,6.8l0,0v2.7"/>
<path id="Layer1_6_MEMBER_13_1_STROKES" class="st4" d="M95.3,135.7c0.5,0,0.9-0.2,1.4-0.6c0.4-0.3,0.9-0.8,1.3-1.5"/>
<path id="Layer1_6_MEMBER_14_1_STROKES" class="st4" d="M98.1,116.1c-0.8-1.5-1.8-2.3-2.8-2.3c-1.3,0-2.4,1.1-3.3,3.2
	c-0.9,2.1-1.4,4.7-1.4,7.8c0,3,0.5,5.6,1.4,7.8c0.9,2.1,2,3.2,3.3,3.2"/>
<path id="Layer1_6_MEMBER_15_1_STROKES" class="st4" d="M75.7,133.5h16.7"/>
<path id="Layer1_6_MEMBER_16_1_STROKES" class="st4" d="M75.7,116h16.7"/>
<path id="Layer1_6_MEMBER_17_1_STROKES" class="st4" d="M58.2,146.5c2.4,0,4.5-0.4,6.2-1.1c1.7-0.7,2.6-1.6,2.6-2.6
	c0-1-0.9-1.9-2.6-2.6c-1.7-0.7-3.8-1.1-6.2-1.1c-2.4,0-4.4,0.4-6.1,1.1c-1.7,0.8-2.5,1.6-2.5,2.6c0,1,0.8,1.9,2.5,2.6
	C53.8,146.2,55.8,146.5,58.2,146.5z"/>
<path id="Layer1_6_MEMBER_18_1_STROKES" class="st4" d="M75.7,133.5l-1,0l-2.5,0.6l-1.4,0.8l-1.4,1.1l-1.2,1.7l-0.9,2.2l-0.4,2.9"/>
<path id="Layer1_6_MEMBER_19_1_STROKES" class="st4" d="M75.7,116l-5.9,0.3l-3.7,1.1l-4,2l-4,3.2l-3.6,4.8l-3,6.7l-2,8.8"/>
<path id="Layer1_6_MEMBER_20_1_STROKES" class="st4" d="M95.3,116c-1,0-1.9,0.8-2.6,2.5c-0.7,1.7-1.1,3.8-1.1,6.2
	c0,2.4,0.4,4.5,1.1,6.2c0.7,1.7,1.6,2.5,2.6,2.5"/>
<path id="Layer1_6_MEMBER_21_1_STROKES" class="st4" d="M99.1,133.5h-3.8"/>
<path id="Layer1_6_MEMBER_22_1_STROKES" class="st4" d="M99.5,116l-4.2,0"/>
<path id="Layer1_6_MEMBER_23_1_STROKES" class="st4" d="M130.1,155.8c2.9-0.9,5.1-2.8,6.6-5.7c1.4-2.9,1.7-6,0.8-9.3
	c-0.8-2.8-2.4-5-4.6-6.8c-2.2-1.7-4.7-2.5-7.3-2.3"/>
<path id="Layer1_6_MEMBER_24_1_STROKES" class="st4" d="M128.2,156.2l1.8-0.4"/>
<path id="Layer1_6_MEMBER_25_1_STROKES" class="st4" d="M125.4,131.8l-10.2,0.6"/>
<path id="Layer1_6_MEMBER_26_1_STROKES" class="st4" d="M128.2,156.2l-20.7,2.1"/>
<path id="Layer1_6_MEMBER_27_1_STROKES" class="st4" d="M106.2,158.3V133"/>
<path id="Layer1_6_MEMBER_28_1_STROKES" class="st4" d="M107.2,10c0-1.2-0.4-2.2-1.2-3c-0.9-0.9-1.9-1.3-3.1-1.3
	c-1.1,0-2.1,0.4-3,1.3c-0.8,0.8-1.2,1.8-1.2,3"/>
<path id="Layer1_6_MEMBER_29_1_STROKES" class="st4" d="M98.6,10v25.1"/>
<path id="Layer1_6_MEMBER_30_1_STROKES" class="st4" d="M107.2,10v25.1"/>
<path id="Layer1_6_MEMBER_31_1_STROKES" class="st4" d="M108.1,41.9c1-0.1,1.8-0.5,2.5-1.4c0.7-0.8,1-1.8,1-2.9c0-1.2-0.4-2.2-1.2-3
	c-0.7-0.9-1.6-1.3-2.7-1.3"/>
<path id="Layer1_6_MEMBER_32_1_STROKES" class="st4" d="M108.9,33.3c-0.3,0-0.6,0-0.9,0.1c-0.3,0.1-0.5,0.2-0.8,0.3"/>
<path id="Layer1_6_MEMBER_33_1_STROKES" class="st4" d="M108.1,41.9c0.3,0.1,0.5,0.1,0.8,0.1c1.1,0,2-0.4,2.8-1.3
	c0.8-0.9,1.2-1.9,1.2-3.1c0-1.2-0.4-2.2-1.2-3c-0.8-0.9-1.7-1.3-2.8-1.3"/>
<path id="Layer1_6_MEMBER_34_1_STROKES" class="st4" d="M110.2,33.5l-0.9,0.2"/>
<path id="Layer1_6_MEMBER_35_1_STROKES" class="st4" d="M108.2,41.9c0.7,0.4,1.4,0.7,2.2,0.7c1.1,0,2.1-0.4,2.9-1.3
	c0.8-0.9,1.2-2,1.2-3.2c0-1.3-0.4-2.3-1.2-3.2c-0.8-0.9-1.8-1.3-2.9-1.3"/>
<path id="Layer1_6_MEMBER_36_1_STROKES" class="st4" d="M118.5,38.2c0-1.1-0.4-2.1-1.2-3c-0.8-0.8-1.8-1.3-3-1.3
	c-0.5,0-1,0.1-1.5,0.3"/>
<path id="Layer1_6_MEMBER_37_1_STROKES" class="st4" d="M110.7,40.3c0.1,0.1,0.2,0.3,0.3,0.4l0.3,0.3"/>
<path id="Layer1_6_MEMBER_38_1_STROKES" class="st4" d="M112.4,42c0.6,0.3,1.3,0.4,1.9,0.4c1.1,0,2.1-0.4,3-1.2
	c0.8-0.8,1.2-1.8,1.2-3"/>
<path id="Layer1_6_MEMBER_39_1_STROKES" class="st4" d="M99.8,38.6l0.1,0.2l1.7,1.5l2.1,1.1l2.8,0.6l1.6-0.1"/>
<path id="Layer1_6_MEMBER_40_1_STROKES" class="st4" d="M98.7,35.5v0.3l0.5,1.4l0.6,1.2l0.4,0.6"/>
<path id="Layer1_6_MEMBER_41_1_STROKES" class="st4" d="M110.8,42.9l2.8,0.5l0.9,0l0.9-0.3l0.8-0.4l0.7-0.8"/>
<path id="Layer1_6_MEMBER_42_1_STROKES" class="st4" d="M126.9,16c-1.5,1-2.3,2.5-2.3,4.3c0,1.4,0.5,2.6,1.5,3.7
	c1,1,2.2,1.5,3.6,1.5c1.1,0,2-0.3,2.9-0.8"/>
<path id="Layer1_6_MEMBER_43_1_STROKES" class="st4" d="M126.9,16l12.5-8.6l5.9,8.4"/>
<path id="Layer1_6_MEMBER_44_1_STROKES" class="st4" d="M132.7,24.5l12.6-8.6"/>
<path id="Layer1_6_MEMBER_45_1_STROKES" class="st4" d="M137.7,8.4l5.8,8.5"/>
<path id="Layer1_6_MEMBER_46_1_STROKES" class="st4" d="M141,42.1c-1.1,0.1-2,0.6-2.8,1.5c-0.8,0.8-1.1,1.8-1.1,2.9
	c0,1.2,0.5,2.3,1.4,3.2c0.8,0.8,1.9,1.3,3.1,1.3c2,0,3.4-0.9,4.1-2.8"/>
<path id="Layer1_6_MEMBER_47_1_STROKES" class="st4" d="M166.1,46.9c0-0.7-0.1-1.3-0.4-2c-0.3-0.6-0.7-1.2-1.1-1.7"/>
<path id="Layer1_6_MEMBER_48_1_STROKES" class="st4" d="M156.9,43.8c-0.7,0.9-1,1.9-1,3.1c0,1.4,0.5,2.6,1.5,3.6
	c1,1,2.2,1.5,3.6,1.5c1.4,0,2.6-0.5,3.6-1.5c1-1,1.5-2.2,1.5-3.6"/>
<path id="Layer1_6_MEMBER_49_1_STROKES" class="st4" d="M164.6,19.2c0-1.1-0.4-2-1.2-2.7c-0.7-0.8-1.6-1.2-2.7-1.2
	c-1.1,0-2,0.4-2.8,1.2c-0.8,0.8-1.2,1.7-1.2,2.7"/>
<path id="Layer1_6_MEMBER_50_1_STROKES" class="st4" d="M156.8,19.2v22.1"/>
<path id="Layer1_6_MEMBER_51_1_STROKES" class="st4" d="M164.6,19.2v22.2"/>
<path id="Layer1_6_MEMBER_52_1_STROKES" class="st4" d="M164,51.8l11.9-5.2"/>
<path id="Layer1_6_MEMBER_53_1_STROKES" class="st4" d="M166.7,61.5l11.9-5.1"/>
<path id="Layer1_6_MEMBER_54_1_STROKES" class="st4" d="M178.5,56.4c0.3-0.1,0.5-0.4,0.7-0.9c0.1-0.5,0.1-1.2,0.1-1.9"/>
<path id="Layer1_6_MEMBER_55_1_STROKES" class="st4" d="M177.9,48.5c-0.3-0.7-0.7-1.2-1-1.5c-0.4-0.4-0.7-0.5-1-0.4
	c-0.5,0.1-0.7,0.7-0.8,1.7c0,1.1,0.1,2.3,0.5,3.6c0.4,1.3,0.8,2.4,1.4,3.3c0.6,0.8,1.1,1.2,1.5,1.2"/>
<path id="Layer1_6_MEMBER_56_1_STROKES" class="st4" d="M176.5,48.9c-0.3,0.1-0.4,0.4-0.4,0.9c0,0.6,0.1,1.2,0.3,1.9
	c0.2,0.7,0.4,1.3,0.7,1.8c0.3,0.4,0.6,0.6,0.8,0.6"/>
<path id="Layer1_6_MEMBER_57_1_STROKES" class="st4" d="M179.6,47.9c-0.3,0.1-0.4,0.4-0.4,1c0,0.5,0,1.1,0.2,1.8
	c0.2,0.7,0.4,1.3,0.7,1.8c0.3,0.4,0.6,0.7,0.8,0.6"/>
<path id="Layer1_6_MEMBER_58_1_STROKES" class="st4" d="M176.5,48.9l3-1"/>
<path id="Layer1_6_MEMBER_59_1_STROKES" class="st4" d="M177.9,54l3.1-1"/>
<path id="Layer1_6_MEMBER_60_1_STROKES" class="st4" d="M180.3,45.5c-0.4,0.1-0.7,0.7-0.8,1.7c-0.1,0.9,0.1,2.1,0.4,3.3
	c0.3,1.3,0.7,2.3,1.3,3.1c0.5,0.8,1,1.2,1.5,1"/>
<path id="Layer1_6_MEMBER_61_1_STROKES" class="st4" d="M184.7,53.8c0.2-0.1,0.4-0.3,0.5-0.6c0.1-0.3,0.2-0.7,0.3-1.2"/>
<path id="Layer1_6_MEMBER_62_1_STROKES" class="st4" d="M184.1,46.4c-0.3-0.6-0.7-1.1-1-1.4c-0.4-0.3-0.7-0.4-0.9-0.3
	c-0.4,0.1-0.7,0.6-0.7,1.7c-0.1,0.9,0.1,2.1,0.5,3.3c0.4,1.2,0.8,2.3,1.4,3.1c0.5,0.8,1,1.1,1.4,1.1"/>
<path id="Layer1_6_MEMBER_63_1_STROKES" class="st4" d="M184.8,53.8l-2,0.9"/>
<path id="Layer1_6_MEMBER_64_1_STROKES" class="st4" d="M182.3,44.7l-2,0.8"/>
<path id="Layer1_6_MEMBER_65_1_STROKES" class="st4" d="M88.7,46.6l-7.9-3.5"/>
<path id="Layer1_6_MEMBER_66_1_STROKES" class="st4" d="M88.7,57.5l-10.5-4.6"/>
<path id="Layer1_6_MEMBER_67_1_STROKES" class="st4" d="M78.2,52.9c0.5,0.1,1-0.3,1.5-1.1c0.6-0.8,1.1-1.9,1.4-3.3
	c0.4-1.3,0.5-2.5,0.4-3.5c-0.1-1.1-0.3-1.6-0.8-1.8c-0.6-0.1-1.2,0.5-1.9,1.8"/>
<path id="Layer1_6_MEMBER_68_1_STROKES" class="st4" d="M77.4,50c-0.1,0.8,0,1.5,0.2,2c0.1,0.5,0.3,0.8,0.6,0.9"/>
<path id="Layer1_6_MEMBER_69_1_STROKES" class="st4" d="M78.8,50.6c0.3,0.1,0.5-0.1,0.8-0.6c0.3-0.4,0.5-1,0.7-1.7
	c0.2-0.7,0.3-1.3,0.3-1.9c-0.1-0.6-0.2-0.8-0.4-0.9"/>
<path id="Layer1_6_MEMBER_70_1_STROKES" class="st4" d="M75.7,49.6c0.3,0.1,0.5-0.2,0.8-0.6c0.3-0.4,0.5-1,0.7-1.7
	c0.2-0.7,0.3-1.3,0.3-1.8c0-0.5-0.1-0.8-0.4-1"/>
<path id="Layer1_6_MEMBER_71_1_STROKES" class="st4" d="M80.2,45.5l-3-1.1"/>
<path id="Layer1_6_MEMBER_72_1_STROKES" class="st4" d="M78.8,50.6l-3.1-1"/>
<path id="Layer1_6_MEMBER_73_1_STROKES" class="st4" d="M74,51.2c0.5,0.1,1-0.3,1.5-1c0.6-0.9,1-1.9,1.3-3.1
	c0.3-1.2,0.5-2.3,0.4-3.3c-0.1-1-0.3-1.6-0.7-1.7"/>
<path id="Layer1_6_MEMBER_74_1_STROKES" class="st4" d="M72,50.4c0.4,0.1,0.9-0.3,1.5-1.1c0.6-0.8,1-1.9,1.3-3.1
	c0.4-1.3,0.5-2.4,0.5-3.4c-0.1-1-0.3-1.5-0.8-1.6c-0.4-0.1-1,0.3-1.7,1.3"/>
<path id="Layer1_6_MEMBER_75_1_STROKES" class="st4" d="M71.3,48.4c0,0.5,0.1,1,0.2,1.3c0.1,0.3,0.3,0.5,0.5,0.6"/>
<path id="Layer1_6_MEMBER_76_1_STROKES" class="st4" d="M72,50.4l2,0.8"/>
<path id="Layer1_6_MEMBER_77_1_STROKES" class="st4" d="M74.5,41.2l2,0.9"/>
<path id="Layer1_6_MEMBER_78_1_STROKES" class="st4" d="M72.2,48.9c0.3,0.1,0.6-0.1,0.9-0.6c0.4-0.5,0.7-1.2,1-1.9
	c0.3-0.8,0.4-1.5,0.4-2.2c0-0.6-0.2-1-0.5-1.1"/>
<path id="Layer1_6_MEMBER_79_1_STROKES" class="st4" d="M88.7,28.1l-5.3,1.9"/>
<path id="Layer1_6_MEMBER_80_1_STROKES" class="st4" d="M75.1,28.8h3.6v3h-3.6V28.8z"/>
<path id="Layer1_6_MEMBER_81_1_STROKES" class="st4" d="M77.8,31.8v3.3h-1.9v-3.3"/>
<path id="Layer1_6_MEMBER_82_1_STROKES" class="st4" d="M83.4,30.1l-0.2-0.1l-0.5-0.3l-0.3-0.1L82,29.4l-0.3-0.1l-0.2-0.1h-0.1
	l-0.1,0L79,28.6h-0.3"/>
<path id="Layer1_6_MEMBER_83_1_STROKES" class="st4" d="M76.8,35.3v2l0.1,0.4l2.8,2.2l3.1,1.7l3.8,1.3l2.1,0.3"/>
<path id="Layer1_6_MEMBER_84_1_STROKES" class="st4" d="M88.7,29.9l-5.9,2.3"/>
<path id="Layer1_6_MEMBER_85_1_STROKES" class="st4" d="M88.7,32.5l-5.3,2.1"/>
<path id="Layer1_6_MEMBER_86_1_STROKES" class="st4" d="M82.8,32.2l0.6,2.4"/>
<path id="Layer1_6_MEMBER_87_1_STROKES" class="st4" d="M85.1,33.9l0.1,0.4l0.6,1.6l0.9,1.3l2,2"/>
<path id="Layer1_6_MEMBER_88_1_STROKES" class="st4" d="M73.9,43l-1.4-0.6L71,41.4l-1.5-1.7l-0.6-1.2"/>
<path id="Layer1_6_MEMBER_89_1_STROKES" class="st4" d="M72.1,48.8l-0.8-0.3L70,47.8l-0.8-0.6l-1.5-1.7L67,44.3"/>
<path id="Layer1_6_MEMBER_90_1_STROKES" class="st4" d="M107.2,23.3h18.5"/>
<path id="Layer1_6_MEMBER_91_1_STROKES" class="st4" d="M134.4,23.3h7.3"/>
<path id="Layer1_6_MEMBER_92_1_STROKES" class="st4" d="M107.7,16.6h18.5"/>
<path id="Layer1_6_MEMBER_93_1_STROKES" class="st4" d="M143.4,16.6h3.6"/>
<path id="Layer1_6_MEMBER_94_1_STROKES" class="st4" d="M141.7,23.3l0.7,0l1.6,0.3l1,0.5l0.9,0.7l0.8,1.1l0.5,1.5l0.3,2.1"/>
<path id="Layer1_6_MEMBER_95_1_STROKES" class="st4" d="M147,16.6l1,0.2l2.2,1l1.3,1.1l1.3,1.6l1,2.2l0.8,3l0.3,3.8"/>
<path id="Layer1_6_MEMBER_96_1_STROKES" class="st4" d="M147.4,29.5h7.3"/>
<path id="Layer1_6_MEMBER_97_1_STROKES" class="st4" d="M117.8,44.6l-13,4.1"/>
<path id="Layer1_6_MEMBER_98_1_STROKES" class="st4" d="M116,50l-10.4,3.3"/>
<path id="Layer1_6_MEMBER_99_1_STROKES" class="st4" d="M138.3,5.7l3.3,4.8"/>
<path id="Layer1_6_MEMBER_100_1_STROKES" class="st4" d="M138.3,5.7l2.9-1.8l6.3,10.1"/>
<path id="Layer1_6_MEMBER_101_1_STROKES" class="st4" d="M147.5,14l-0.2,0.5l-0.4,0.7l-0.6,0.5l-0.5,0.2h-0.5"/>
<path id="Layer1_6_MEMBER_102_1_STROKES" class="st4" d="M147.5,13.9l4.5-3.4l2.4-2.8l0.9-1.5l0.5-1.6"/>
<path id="Layer1_6_MEMBER_103_1_STROKES" class="st4" d="M154.9,6.9l4,1.9l2.7,2.2l1.1,1.4l1,1.7l0.7,1.8l0.3,2.2"/>
<path id="Layer1_6_MEMBER_104_1_STROKES" class="st4" d="M147.2,15.2l0.2,0l6,0.1l0.6,0.1l0.9,0.3l1.6,1.4l0.5,0.8"/>
<path id="Layer1_6_MEMBER_105_1_STROKES" class="st4" d="M147.4,29.5l-0.8,0.6v3"/>
<path id="Layer1_6_MEMBER_106_1_STROKES" class="st4" d="M146.7,33.1h9v-2.9"/>
<path id="Layer1_6_MEMBER_107_1_STROKES" class="st4" d="M154.7,29.5l1,0.8"/>
<path id="Layer1_6_MEMBER_108_1_STROKES" class="st4" d="M147.8,48.1c0.1-0.1,0.2-0.2,0.2-0.2l0.2-0.3"/>
<path id="Layer1_6_MEMBER_109_1_STROKES" class="st4" d="M141.9,40c-0.2,0.1-0.3,0.2-0.4,0.2c-0.6,0.4-0.7,1.2-0.5,2.3
	c0.2,1.1,0.8,2.2,1.7,3.3c0.9,1.1,1.8,1.8,2.8,2.3c1,0.5,1.8,0.6,2.3,0.1"/>
<path id="Layer1_6_MEMBER_110_1_STROKES" class="st4" d="M148.8,47.4c0.3-0.2,0.5-0.6,0.6-1c0.1-0.4,0-1-0.2-1.5"/>
<path id="Layer1_6_MEMBER_111_1_STROKES" class="st4" d="M145,39.6c-1.1-0.6-2-0.7-2.6-0.3c-0.6,0.4-0.7,1.2-0.5,2.3
	c0.3,1.1,0.8,2.2,1.7,3.3c0.9,1.1,1.9,1.9,2.9,2.4c1,0.4,1.8,0.5,2.3,0"/>
<path id="Layer1_6_MEMBER_112_1_STROKES" class="st4" d="M143.8,40.5l-0.2,0l-0.1,0.1c-0.4,0.3-0.5,0.8-0.3,1.5
	c0.2,0.8,0.6,1.5,1.2,2.3c0.6,0.7,1.2,1.3,1.8,1.6c0.7,0.3,1.2,0.3,1.6,0"/>
<path id="Layer1_6_MEMBER_113_1_STROKES" class="st4" d="M143.5,40.7l0.5-0.3l1.1-0.9l1.2-1.8l0.5-1.3l0.3-1.5l0-1.8"/>
<path id="Layer1_6_MEMBER_114_1_STROKES" class="st4" d="M147.7,46.1l0.2-0.3l0.7-0.5l2.2-2.1l2.4-3.2l1-2l0.7-2.3l0.3-2.3"/>
<path id="Layer1_6_MEMBER_115_1_STROKES" class="st4" d="M144.9,40l-0.2,0.1l-0.2,0.1c-0.4,0.3-0.5,0.8-0.3,1.5
	c0.1,0.7,0.5,1.5,1.1,2.2c0.6,0.7,1.2,1.3,1.9,1.6c0.7,0.3,1.2,0.3,1.5,0"/>
<path id="Layer1_6_MEMBER_116_1_STROKES" class="st4" d="M145.9,38.7l-0.3,0.1c-0.4,0.3-0.5,0.8-0.3,1.6c0.2,0.7,0.5,1.5,1.1,2.2
	c0.6,0.8,1.2,1.3,1.9,1.6c0.7,0.3,1.2,0.3,1.6,0"/>
<path id="Layer1_6_MEMBER_117_1_STROKES" class="st4" d="M141.1,43c-0.9,0.1-1.6,0.5-2.2,1.2c-0.6,0.7-0.9,1.5-0.9,2.4
	c0,1,0.4,1.8,1.1,2.5c0.7,0.7,1.5,1,2.5,1c1.6,0,2.8-0.8,3.3-2.3"/>
<path id="Layer1_6_MEMBER_118_1_STROKES" class="st4" d="M140.3,43.5l0.3-0.2h0.3l0.4-0.3"/>
<path id="Layer1_6_MEMBER_119_1_STROKES" class="st4" d="M144.7,48.7l0.2-0.2l0.3-0.8L145,47"/>
<path id="Layer1_6_MEMBER_120_1_STROKES" class="st4" d="M184.5,52.3l0.5-0.2l1.1-0.5l5-4.2l1.7-2l1.4-2.4l1-2.5l0.4-2.8"/>
<path id="Layer1_6_MEMBER_121_1_STROKES" class="st4" d="M182.7,46.6h0.3l0.7-0.1l1-0.3l2.3-1.4l1.2-1.2l1-1.5l0.8-2l0.5-2.4"/>
<path id="Layer1_6_MEMBER_122_1_STROKES" class="st4" d="M182.7,46.7l-0.1,0.8l0.1,1.3l0.2,0.9l0.3,0.9l1.3,1.8"/>
<path id="Layer1_6_MEMBER_123_1_STROKES" class="st4" d="M184.1,46.5l0.2,1.9l0.9,2.3l0.5,0.6l0.5,0.3"/>
<path id="Layer1_6_MEMBER_124_1_STROKES" class="st4" d="M190.4,37.7h5.2"/>
<path id="Layer1_6_MEMBER_125_1_STROKES" class="st4" d="M189.8,34.2h7.1"/>
<path id="Layer1_6_MEMBER_126_1_STROKES" class="st4" d="M190.4,37.7l-0.6-3.5"/>
<path id="Layer1_6_MEMBER_127_1_STROKES" class="st4" d="M190.9,16l1.6-4.2"/>
<path id="Layer1_6_MEMBER_128_1_STROKES" class="st4" d="M183.4,33.3v2.3h-3.2v-2.3H183.4z"/>
<path id="Layer1_6_MEMBER_129_1_STROKES" class="st4" d="M182.6,35.7v3h-1.8v-3"/>
<path id="Layer1_6_MEMBER_130_1_STROKES" class="st4" d="M172.5,43.3v2.5h-3.8v-2.5H172.5z"/>
<path id="Layer1_6_MEMBER_131_1_STROKES" class="st4" d="M172.5,44h1.4v1.3h-1.4"/>
<path id="Layer1_6_MEMBER_132_1_STROKES" class="st4" d="M181.9,39l0,0.5l-0.2,0.6l-0.4,0.8l-0.6,0.9l-1,0.9l-1.4,0.8l-1.8,0.7
	l-2.3,0.5"/>
<path id="Layer1_6_MEMBER_133_1_STROKES" class="st4" d="M156.8,41.3l0.4,5.5l0.2,0.8l0.2,0.4"/>
<path id="Layer1_6_MEMBER_134_1_STROKES" class="st4" d="M164.6,41.5l-0.2,5.5"/>
<path id="Layer1_6_MEMBER_135_1_STROKES" class="st4" d="M157.6,48.2l0.3,0.5l0.6,0.7l0.5,0.4l0.5,0.3l0.7,0.2l0.8,0.1"/>
<path id="Layer1_6_MEMBER_136_1_STROKES" class="st4" d="M164.5,46.9v0.4l-0.2,1l-0.3,0.5l-0.5,0.5l-0.6,0.5l-0.8,0.4l-1.1,0.2"/>
<path id="Layer1_6_MEMBER_137_1_STROKES" class="st4" d="M156.9,29.9h7.8"/>
<path id="Layer1_6_MEMBER_138_1_STROKES" class="st4" d="M156.9,29.9h7.8"/>
<path id="Layer1_6_MEMBER_139_1_STROKES" class="st4" d="M156.9,32.9h7.8"/>
<path id="Layer1_6_MEMBER_140_1_STROKES" class="st4" d="M165.8,10.4l0.3,1.2l1.2,2.5l1.1,1.3l1.6,1.2l2.1,1.1l2.7,0.7l3.3,0.2"/>
<path id="Layer1_6_MEMBER_141_1_STROKES" class="st4" d="M171.8,17.6l-1.5,4.7l-1.5,2.7l-0.9,1.2l-1.1,0.9"/>
<path id="Layer1_6_MEMBER_142_1_STROKES" class="st4" d="M164.8,26.4l12,5.8l1.9,0.7l1.5,0.3"/>
<path id="Layer1_6_MEMBER_143_1_STROKES" class="st4" d="M183.4,33.3l0.1-0.2l1.8-1.8l0.8-1l1.3-2.3l0.4-1.3l0.2-1.3"/>
<path id="Layer1_6_MEMBER_144_1_STROKES" class="st4" d="M189.8,34.2v-0.2l0-0.3v-1.5l0-0.3v-0.1l-0.1-0.1l-2.5-1.6l-0.4-0.1h-0.3"
	/>
<path id="Layer1_6_MEMBER_145_1_STROKES" class="st4" d="M164.9,28.9l10.6,4.9"/>
<path id="Layer1_6_MEMBER_146_1_STROKES" class="st4" d="M175.5,33.8l2.4-0.8l0.3-0.1"/>
<path id="Layer1_6_MEMBER_147_1_STROKES" class="st4" d="M164.8,30.5l11.3,5"/>
<path id="Layer1_6_MEMBER_148_1_STROKES" class="st4" d="M164.6,33.5l10.1,4.4"/>
<path id="Layer1_6_MEMBER_149_1_STROKES" class="st4" d="M174.8,37.9l0.2-0.1l0.5-0.5l0.5-0.6l0.2-0.3l0-0.8"/>
<path id="Layer1_6_MEMBER_150_1_STROKES" class="st4" d="M175.4,34l-0.1,0.7"/>
<path id="Layer1_6_MEMBER_151_1_STROKES" class="st4" d="M173.3,37.5l-3.9,4.2v0.1l-0.1,0.1v0.3l0,0.3v0.8"/>
<path id="Layer1_6_MEMBER_152_1_STROKES" class="st4" d="M165,41.9l1.3,1.2l0.9,1.5l0.3,0.9l0,0.9l-0.2,1.1v0.1l-0.1,0.7l-0.8,1.7
	l-0.6,0.5l-0.8,0.5l-1,0.4"/>
<path id="Layer1_6_MEMBER_153_1_STROKES" class="st4" d="M164.6,19.2l5.8,2.6"/>
<path id="Layer1_6_MEMBER_154_1_STROKES" class="st4" d="M88.7,18h8.2"/>
<path id="Layer1_6_MEMBER_155_1_STROKES" class="st4" d="M98.6,18h8.6"/>
<path id="Layer1_6_MEMBER_156_1_STROKES" class="st4" d="M88.7,21.1h8.2"/>
<path id="Layer1_6_MEMBER_157_1_STROKES" class="st4" d="M98.6,21.1h8.6"/>
<path id="Layer1_6_MEMBER_158_1_STROKES" class="st4" d="M110.4,15.2v8.1"/>
<path id="Layer1_6_MEMBER_159_1_STROKES" class="st4" d="M151.3,18.9l0.5-0.1l0.6-0.3l0.8-0.2l0,0l0.1,0l0.2,0l3.2,1"/>
<path id="Layer1_6_MEMBER_160_1_STROKES" class="st4" d="M153.3,15.3v3"/>
<path id="Layer1_6_MEMBER_161_1_STROKES" class="st4" d="M139,37.9c0-2.7-1-5.1-3-7c-1.9-1.9-4.3-2.9-7-2.9c-2.8,0-5.1,1-7.1,2.9
	c-1.9,1.9-2.9,4.3-2.9,7c0,0.6,0.1,1.4,0.3,2.4"/>
<path id="Layer1_6_MEMBER_162_1_STROKES" class="st4" d="M135.2,45.7c1.2-0.9,2.1-2.1,2.8-3.4c0.7-1.4,1-2.8,1-4.3"/>
<path id="Layer1_6_MEMBER_163_1_STROKES" class="st4" d="M113.2,4.6v18.7"/>
<path id="Layer1_6_MEMBER_164_1_STROKES" class="st4" d="M115.7,4.6v18.7"/>
<path id="Layer1_6_MEMBER_165_1_STROKES" class="st4" d="M107.7,14.9h20.9"/>
<path id="Layer1_6_MEMBER_166_1_STROKES" class="st4" d="M107.2,26.9l7.7-2.7l0.5-0.4l0.3-0.4"/>
<path id="Layer1_6_MEMBER_167_1_STROKES" class="st4" d="M117.8,23.7l0.1,0.8l0,4.1l-0.5,2.1l-0.4,0.7"/>
<path id="Layer1_6_MEMBER_168_1_STROKES" class="st4" d="M107.3,32.2l3.9,0.1l0.1,0.1l0.1,0.1l0.1,0.2l0.1,0.1l0.2,0.1l0,0.1
	l0.1,0.1h1.1l0.4-0.1h1l0-0.1l0.4-0.5l1-0.8l0.4-0.2l0.4,0l0.4,0"/>
<path id="Layer1_6_MEMBER_169_1_STROKES" class="st4" d="M155.5,66.2c0-1-0.4-1.8-1.1-2.5c-0.4-0.5-1-0.8-1.6-0.8
	c-0.6-0.1-1.2-0.1-1.8,0.1"/>
<path id="Layer1_6_MEMBER_170_1_STROKES" class="st4" d="M153.4,69.2c0.6-0.2,1.1-0.6,1.5-1.1c0.4-0.6,0.6-1.2,0.6-1.8"/>
<path id="Layer1_6_MEMBER_171_1_STROKES" class="st4" d="M151,63.1l-11.3,4.5"/>
<path id="Layer1_6_MEMBER_172_1_STROKES" class="st4" d="M153.5,69.2l-9.6,3.5"/>
<path id="Layer1_6_MEMBER_173_1_STROKES" class="st4" d="M131.6,80.6v-2.9h10.7v2.9H131.6z"/>
<path id="Layer1_6_MEMBER_174_1_STROKES" class="st4" d="M139.7,67.7l-0.2,0.1L139,68l-0.7,0.4l-1.8,1.6l-0.9,1.3l-0.8,1.7l-0.5,2.1
	l-0.3,2.6"/>
<path id="Layer1_6_MEMBER_175_1_STROKES" class="st4" d="M143.7,72.8h-0.2L143,73l-1,0.8l-0.5,0.7l-0.5,0.8l-0.5,1.1l-0.3,1.3"/>
<path d="M144.1,79.5l-0.1,0.8l-0.1,0.3v0.3l0,0.2v0.1l0,0.2v0.3l0.3,1.6l0.1,0v0h-0.1l-0.2,0.1l-0.3,0.1l-0.2,0.1l-0.6,0.2h-0.1
	l-1.3,0.4l-0.6-1.3v-0.4l0.1-0.1l0-0.2v-0.1l0-0.1h0.1v0l0.3-0.3l0.5-0.7l0.1-0.2l0.1-0.1l0.1,0h-10.7l-1.3,2.3v0.5l0,0.3v0.8l0,0.1
	v0l2.3,0.6l0.2,0l0,0l0.2,1.5l-2.5,1.2v0.2l0,0.3v1.1l0,0l10.6,0l-0.4-1l0.5-0.7l0.8,1.1l0.1,0.1l0.3,0.2l0.4,0.4l0.1,0l0,0h0.2
	l0.1,0h0.5l0.3,0h0.3l0.3-0.1h0.1v0.1l0.3,1.6v0.1l0,0l0.2,0.4l0.2,0.2l0.1,0.2l0.3,0.3l0.1,0.2l0.2,0l0.2,0l0.3-0.1l1.1-0.5
	l0.1-0.1h0.1l0.1-0.1l0.5-0.2l0.8-0.1h0.3l0.8-0.2l0.5-0.3l0.1-0.1l0.3-0.1l0.1-0.1l0.4-0.2l0.2-0.1l0.8-1l0.2-0.2l0.1-0.1l0.1-0.1
	l0.3-0.3l0.3-0.8l0.2-0.3l0.4-1v-0.1l-0.4-3.6l-0.8-3.2l-0.1,0l-3-1.9l0,0l-1.1-0.8l-0.3-0.1l-0.2-0.2l-3-0.5l0.1,1.2l0,0l-0.1,0.2
	l-0.3,0.2l-1.1,1.3v0.1l0,0.1V79.5z"/>
<path class="st5" d="M144.1,79.5l-0.1,0.8l-0.1,0.3v0.3l0,0.2v0.1l0,0.2v0.3l0.3,1.6l0.1,0v0h-0.1l-0.2,0.1l-0.3,0.1l-0.2,0.1
	l-0.6,0.2h-0.1l-1.3,0.4l-0.6-1.3v-0.1l0-0.1v-0.2l0.1-0.1l0-0.2v-0.1l0-0.1h0.1V82l0.3-0.3l0.5-0.7l0.1-0.2l0.1-0.1l0.1,0h-10.7
	l-1.3,2.3v0.5l0,0.3v0.8l0,0.1v0.1l0.8,0.1l1.5,0.5l0.3,0v0l0.2,1.5l-2.5,1.2v0.2l0,0.3v1.1l10.6,0l-0.4-1l0.5-0.7l0.8,1l0.1,0.1
	l0.3,0.2l0.4,0.4l0.1,0l0,0h0.2l0.1,0h0.5l0.3,0h0.3l0.3-0.1h0.1v0.1l0.3,1.6v0.1l0,0l0.2,0.4l0.2,0.2l0.1,0.2l0.3,0.3l0.1,0.2
	l0.2,0l0.2,0l0.3-0.1l1.1-0.5l0.1-0.1h0.1l0.1-0.1l0.5-0.2l0.8-0.1h0.3l0.8-0.2l0.5-0.3l0.1-0.1l0.3-0.1l0.1-0.1l0.4-0.2l0.2-0.1
	l0.8-1l0.2-0.2l0.1-0.1l0.1-0.1l0.1-0.1l0.2-0.2l0.3-0.8l0.2-0.4l0.4-1v-0.1l-0.4-3.6l-0.8-3.2l-0.1,0l-2.9-1.9l-0.1,0l-1.1-0.8
	l-0.3-0.1l-0.2-0.2l-3-0.5l0.1,1.2l0,0l-0.1,0.2l-0.3,0.2l-1.1,1.3v0.1l0,0.1V79.5z"/>
<path id="Layer1_6_MEMBER_177_1_STROKES" class="st4" d="M144,80.3l-0.1,0.3v0.3l0,0.2v0.1l0,0.2v0.3l0.3,1.6l0.1,0v0h-0.1l-0.2,0.1
	l-0.3,0.1l-0.2,0.1l-0.6,0.2h-0.1l-1.3,0.4l-0.6-1.3v-0.1l0-0.1v-0.2l0.1-0.1l0-0.2v-0.1l0-0.1h0.1V82l0.3-0.3l0.5-0.7l0.1-0.2
	l0.1-0.1l0.1,0h-10.7l-1.3,2.3v0.5l0,0.3v0.8l0,0.1v0.1l0.8,0.1l1.5,0.5l0.3,0v0l0.2,1.5l-2.5,1.2v0.2l0,0.3v1.1l10.6,0l-0.4-1
	l0.5-0.7l0.8,1l0.1,0.1l0.3,0.2l0.4,0.4l0.1,0l0,0h0.2l0.1,0h0.5l0.3,0h0.3l0.3-0.1h0.1v0.1l0.3,1.6v0.1l0,0l0.2,0.4l0.2,0.2
	l0.1,0.2l0.3,0.3l0.1,0.2l0.2,0l0.2,0l0.3-0.1l1.1-0.5l0.1-0.1h0.1l0.1-0.1l0.5-0.2l0.8-0.1h0.3l0.8-0.2l0.5-0.3l0.1-0.1l0.3-0.1
	l0.1-0.1l0.4-0.2l0.2-0.1l0.8-1l0.2-0.2l0.1-0.1l0.1-0.1l0.1-0.1l0.2-0.2l0.3-0.8l0.2-0.4l0.4-1v-0.1l-0.4-3.6l-0.8-3.2l-0.1,0
	l-2.9-1.9l-0.1,0l-1.1-0.8l-0.3-0.1l-0.2-0.2l-3-0.5l0.1,1.2l0,0l-0.1,0.2l-0.3,0.2l-1.1,1.3v0.1l0,0.1v0.3L144,80.3z"/>
<path id="Layer1_6_MEMBER_178_1_STROKES" class="st4" d="M131.3,92.9V90H142v2.9H131.3z"/>
<path id="Layer1_6_MEMBER_179_1_STROKES" class="st4" d="M142.2,93.1l0.8,1.5l0.1,0h4.3l3.3-3.3"/>
<path id="Layer1_6_MEMBER_180_1_STROKES" class="st4" d="M164.1,51.4l-4.3,15.9l-2.2,21.4l-1.9,9.2l-4.2,10.1l-1.3,4"/>
<path id="Layer1_6_MEMBER_181_1_STROKES" class="st4" d="M163.2,50.9l-0.2,0.5l-4.5,18.2l-1.7,18.5l-2,9.2l-4.2,10l-1.2,3.6
	l-0.1,0.5"/>
<path id="Layer1_6_MEMBER_182_1_STROKES" class="st4" d="M168.8,60.6l0,6.8l0,0.2l-2.4,0.3v0l-0.3,1.7v0.1l-0.1,0l-0.3,0l-2.7,0.2
	H163V70l-0.4-1.9l-0.1-0.3h-0.2l-0.2,0H161l-0.3-0.1h-0.3l-0.2,0"/>
<path id="Layer1_6_MEMBER_183_1_STROKES" class="st4" d="M162.5,67.8l3.9,0.1"/>
<path id="Layer1_6_MEMBER_184_1_STROKES" class="st4" d="M160.6,64.7l6,0.2"/>
<path id="Layer1_6_MEMBER_185_1_STROKES" class="st4" d="M166.4,59.6l-0.3,0.1l-1.5,0l-0.7,0.1h-0.3l-0.5,1.5"/>
<path id="Layer1_6_MEMBER_186_1_STROKES" class="st4" d="M166.7,61.5l-5.4,0.1"/>
<path id="Layer1_6_MEMBER_187_1_STROKES" class="st4" d="M116.8,111.7H97v-5.5h19.9V111.7z"/>
<path id="Layer1_6_MEMBER_188_1_STROKES" class="st4" d="M99.4,113.1v-1.4"/>
<path id="Layer1_6_MEMBER_189_1_STROKES" class="st4" d="M115.2,113.1v-1.4"/>
<path id="Layer1_6_MEMBER_190_1_STROKES" class="st4" d="M101.8,91l-0.1,0.3l-1.8,8.4l-0.3,4.5l0.1,2"/>
<path id="Layer1_6_MEMBER_191_1_STROKES" class="st4" d="M117.8,96l-1.1,7.5l0.1,2.8"/>
<path id="Layer1_6_MEMBER_192_1_STROKES" class="st4" d="M99,95.4H85.9v-4H99V95.4z"/>
<path id="Layer1_6_MEMBER_193_1_STROKES" class="st4" d="M88.7,91v11"/>
<path id="Layer1_6_MEMBER_194_1_STROKES" class="st4" d="M96.9,91v9.2"/>
<path id="Layer1_6_MEMBER_195_1_STROKES" class="st4" d="M88.7,102l0.1,1.5l0.9,3.3l0.9,2l1.3,2l1.8,1.8l2.5,1.5l3.2,1"/>
<path id="Layer1_6_MEMBER_196_1_STROKES" class="st4" d="M96.9,100.4l0.2,1.6l0.3,0.8l0.9,1.8l1.6,1.7"/>
<path id="Layer1_6_MEMBER_197_1_STROKES" class="st4" d="M66.3,116.1V95.8h2.7v20.3H66.3z"/>
<path id="Layer1_6_MEMBER_198_1_STROKES" class="st4" d="M68.9,96.8l18.2,0"/>
<path id="Layer1_6_MEMBER_199_1_STROKES" class="st4" d="M82.9,96.7L82.4,116"/>
<path id="Layer1_6_MEMBER_200_1_STROKES" class="st4" d="M85.5,96.7L84.9,116"/>
<path id="Layer1_6_MEMBER_201_1_STROKES" class="st4" d="M87.2,96.7L86.6,116"/>
<path id="Layer1_6_MEMBER_202_1_STROKES" class="st4" d="M88.8,100.2L88.4,116"/>
<path id="Layer1_6_MEMBER_203_1_STROKES" class="st4" d="M73.4,115.9l3.9-8.9l2.5,8.9"/>
<path id="Layer1_6_MEMBER_204_1_STROKES" class="st4" d="M94,143.6l-0.2,0l-2.5,1.4l-0.8,0.9l-0.2,0.4l0,0.4l0.2,0.4l0.3,0.4
	l0.4,0.4l1,0.8l2,0.9"/>
<path id="Layer1_6_MEMBER_205_1_STROKES" class="st4" d="M91.8,145.8v1.3H87v-1.3H91.8z"/>
<path id="Layer1_6_MEMBER_206_1_STROKES" class="st4" d="M151,113.1v7.8h-2.5v-7.8H151z"/>
<path id="Layer1_6_MEMBER_207_1_STROKES" class="st4" d="M150.2,112.5v0.5"/>
<path id="Layer1_6_MEMBER_208_1_STROKES" class="st4" d="M149.3,111.4v1.7"/>
<path id="Layer1_6_MEMBER_209_1_STROKES" class="st4" d="M148.5,121l-6.8,18.4l-4,6.8"/>
<path id="Layer1_6_MEMBER_210_1_STROKES" class="st4" d="M134.4,153.3l-2.9,7.1l-0.5,2"/>
<path id="Layer1_6_MEMBER_211_1_STROKES" class="st4" d="M151,121l-6.8,18.4l-1.7,2.7l-5.6,11l-3.2,8l-0.3,1.4"/>
<path id="Layer1_6_MEMBER_212_1_STROKES" class="st4" d="M132.7,154.7c0.4-0.2,0.9-0.5,1.4-1c2.7-2,4.3-4.7,4.7-8.1
	c0.4-3.4-0.4-6.4-2.5-9.1c-2.6-3.4-6-5-10.3-4.8"/>
<path id="Layer1_6_MEMBER_213_1_STROKES" class="st4" d="M131,155.5l0.4-0.2l1.3-0.7"/>
<path id="Layer1_6_MEMBER_214_1_STROKES" class="st4" d="M116.9,102.5H145v19.7h-29.8"/>
<path id="Layer1_6_MEMBER_215_1_STROKES" class="st4" d="M116.9,102.5H145"/>
<path id="Layer1_6_MEMBER_216_1_STROKES" class="st4" d="M135.6,109.4H134v-3.7h1.6V109.4z"/>
<path id="Layer1_6_MEMBER_217_1_STROKES" class="st4" d="M135.6,114.9v3.7H134v-3.7H135.6z"/>
<path id="Layer1_6_MEMBER_218_1_STROKES" class="st4" d="M144.1,105.3l-7,7"/>
<path id="Layer1_6_MEMBER_219_1_STROKES" class="st4" d="M144.1,119.2l-7-6.9"/>
<path id="Layer1_6_MEMBER_220_1_STROKES" class="st4" d="M150,114.1c-2.5,2.4-3.8,5.4-3.8,8.9c0,3.5,1.3,6.5,3.8,8.9
	c2.4,2.5,5.4,3.8,8.9,3.8s6.5-1.3,8.9-3.8c2.5-2.4,3.7-5.4,3.7-8.9c0-3.5-1.2-6.4-3.7-8.9c-2.4-2.5-5.4-3.7-8.9-3.7
	C155.3,110.3,152.4,111.6,150,114.1z"/>
<path id="Layer1_6_MEMBER_221_1_STROKES" class="st4" d="M163.7,131.9c1.2-1.2,1.8-2.6,1.8-4.3c0-1.7-0.6-3.1-1.8-4.3
	c-1.2-1.2-2.6-1.8-4.3-1.8s-3.1,0.6-4.3,1.8c-1.2,1.2-1.8,2.6-1.8,4.3c0,1.7,0.6,3.1,1.8,4.3c1.2,1.2,2.6,1.8,4.3,1.8
	C161.1,133.7,162.5,133.1,163.7,131.9z"/>
<path id="Layer1_6_MEMBER_222_1_STROKES" class="st4" d="M163,131.2c1-1,1.5-2.2,1.5-3.6c0-1.4-0.5-2.6-1.5-3.6
	c-1-1-2.2-1.5-3.6-1.5c-1.4,0-2.6,0.5-3.6,1.5c-1,1-1.5,2.2-1.5,3.6c0,1.4,0.5,2.6,1.5,3.6c1,1,2.2,1.5,3.6,1.5
	C160.8,132.7,162,132.2,163,131.2z"/>
<path id="Layer1_6_MEMBER_223_1_STROKES" class="st4" d="M157.7,138.8c-0.3-0.3-0.6-0.6-0.9-1.1c-0.2-0.4-0.3-0.8-0.3-1.3
	s0.1-0.7,0.3-0.8c0.3-0.1,0.5,0,0.9,0.2c0.3,0.2,0.6,0.5,0.8,1c0.2,0.5,0.3,1,0.3,1.4c0,0.4-0.1,0.6-0.3,0.8
	C158.3,139.1,158.1,139,157.7,138.8z"/>
<path id="Layer1_6_MEMBER_224_1_STROKES" class="st4" d="M160.9,137.4c0.1-0.1,0.2-0.2,0.2-0.5c0-0.2-0.1-0.5-0.2-0.8
	c-0.1-0.2-0.3-0.4-0.5-0.5c-0.2-0.2-0.3-0.2-0.5-0.2"/>
<path id="Layer1_6_MEMBER_225_1_STROKES" class="st4" d="M158.6,138.9l2.3-1.5"/>
<path id="Layer1_6_MEMBER_226_1_STROKES" class="st4" d="M157.1,135.6l2.9-0.3"/>
<path id="Layer1_6_MEMBER_227_1_STROKES" class="st4" d="M115.2,128.1h14.4"/>
<path id="Layer1_6_MEMBER_228_1_STROKES" class="st4" d="M129.6,128.1l1-1l0.8-0.5l1.1-0.5l1.5-0.3l2-0.1l5.5,1"/>
<path id="Layer1_6_MEMBER_229_1_STROKES" class="st4" d="M129.6,128.1l0.2,0.2l0.6,0.6l4,3.1l4.1,2.1l5,1.3"/>
<path id="Layer1_6_MEMBER_230_1_STROKES" class="st4" d="M141.4,126.6l2.1-1l3.1,0.2"/>
<path id="Layer1_6_MEMBER_231_1_STROKES" class="st4" d="M143.5,125.6l0.8-3.1"/>
<path id="Layer1_6_MEMBER_232_1_STROKES" class="st4" d="M127.3,124.5v2.3H126v-2.3H127.3z"/>
<path id="Layer1_6_MEMBER_233_1_STROKES" class="st4" d="M136.9,137.3l0.3-0.5l0.3-0.3l1.4-2.3"/>
<path id="Layer1_6_MEMBER_234_1_STROKES" class="st4" d="M117.4,98l29.6,3.5l7.8,6.6l6.3,6l5,5.5l1.3,2.2l1,3.4l0,2.6l-0.5,1.9
	l-0.3,0.7l-0.8,1l-0.5,0.4l-4.4,3.2l-1.1,1.2l-0.1,0.5"/>
<path id="Layer1_6_MEMBER_235_1_STROKES" class="st4" d="M117.2,99.3l28.9,3.5l7.8,6.6l6.3,6l5,5.6l1.2,2.2l0.6,1.8l0.5,2.9l0,1.2
	L167,131l-0.3,0.8l-0.8,1l-5.3,4"/>
<path id="Layer1_6_MEMBER_236_1_STROKES" class="st4" d="M110.9,59.9l0.4-0.1l2.6-0.4l4.5,0.1l2.7,0.6l2.9,1.1l3,1.7l3,2.5"/>
<path id="Layer1_6_MEMBER_237_1_STROKES" class="st4" d="M109.6,64.3l0.3-0.2l2.7-0.4l4.4,0.1l2.7,0.6l2.9,1.1l3,1.8l3,2.5"/>
<path id="Layer1_6_MEMBER_238_1_STROKES" class="st4" d="M110.9,59.9l-1.3,4.4"/>
<path id="Layer1_6_MEMBER_239_1_STROKES" class="st4" d="M129.9,65.5l-1.3,4.3"/>
<path id="Layer1_6_MEMBER_240_1_STROKES" class="st4" d="M109.5,64.6l0,0.5l0.1,0.3l0.8,0.9"/>
<path id="Layer1_6_MEMBER_241_1_STROKES" class="st4" d="M128.6,69.9l-0.4,0.2l-0.3,0.1l-0.2,0.1l-0.2,0h-0.2l-0.3,0"/>
<path id="Layer1_6_MEMBER_245_1_STROKES" class="st4" d="M105.9,51.6c0-0.9-0.2-1.7-0.7-2.4c-0.4-0.7-1.1-1.3-1.8-1.7"/>
<path id="Layer1_6_MEMBER_246_1_STROKES" class="st4" d="M96.9,50.8l-0.1,0.8c0,1.2,0.4,2.3,1.3,3.2c0.9,0.9,1.9,1.3,3.2,1.3
	c1.2,0,2.3-0.4,3.2-1.3c0.9-0.9,1.3-1.9,1.3-3.2"/>
<path id="Layer1_6_MEMBER_247_1_STROKES" class="st4" d="M97.3,50.7c0.8,0.5,1.8,0.5,2.8,0.1c1-0.4,1.9-1.1,2.5-2.1
	c0.7-1.1,1-2.2,1-3.3c-0.1-1.1-0.6-2-1.4-2.5c-0.7-0.5-1.5-0.6-2.4-0.4c-0.9,0.2-1.7,0.7-2.5,1.5"/>
<path id="Layer1_6_MEMBER_248_1_STROKES" class="st4" d="M96.9,49.9c0.8,0.3,1.7,0.3,2.7-0.2c1-0.4,1.8-1.1,2.4-2
	c0.7-1.1,1-2.2,0.9-3.4c-0.1-1.2-0.6-2-1.4-2.5c-0.6-0.4-1.4-0.5-2.2-0.4c-0.9,0.1-1.6,0.5-2.3,1.1"/>
<path id="Layer1_6_MEMBER_249_1_STROKES" class="st4" d="M124.4,76.8l21-18.2l3.4-3.9l2-3.6l1.6-4.2l2-9.3"/>
<path id="Layer1_6_MEMBER_250_1_STROKES" class="st4" d="M155.3,29.9l0.2-10.6l-0.2-0.5"/>
<path id="Layer1_6_MEMBER_251_1_STROKES" class="st4" d="M101.3,59.7v2.5h-3v-2.5H101.3z"/>
<path id="Layer1_6_MEMBER_252_1_STROKES" class="st4" d="M115.2,52.5l-18.4,6.1"/>
<path id="Layer1_6_MEMBER_253_1_STROKES" class="st4" d="M114.5,54l-17.4,5.8"/>
<path id="Layer1_6_MEMBER_254_1_STROKES" class="st4" d="M100.3,62.2l0.8,1.6v0l0.5,2.5l0.4,0.8l0.4,0.4l3.3,2.3l3,1.4"/>
<path id="Layer1_6_MEMBER_255_1_STROKES" class="st4" d="M133.5,50.7l14.6,4.9"/>
<path id="Layer1_6_MEMBER_256_1_STROKES" class="st4" d="M137.4,52l-0.1,1.1l-0.5,1.9l-0.6,1l-0.3,0.3l-1,0.3l-0.3,0.4l-0.3,0.5
	l0,1.3l0.3,1.3l0.2,0.5l0.4,0.6l1.9,5"/>
<path id="Layer1_6_MEMBER_257_1_STROKES" class="st4" d="M140.1,52.9l0.2,5.4l0,0.2l0.1,0l4.3,0.8"/>
<path id="Layer1_6_MEMBER_258_1_STROKES" class="st4" d="M124.8,79.6l-0.5,4.6l-2.5,0.5"/>
<path id="Layer1_6_MEMBER_259_1_STROKES" class="st4" d="M102.5,88.8l-0.9,0.2l-1-9l2.1-2.3l3.9-0.5"/>
<path id="Layer1_6_MEMBER_260_1_STROKES" class="st4" d="M124.3,77.4l0.5,2.2"/>
<path d="M102.8,77.7h-0.2l-2.1,2.3l1,9h0.1l0,0h0.1l0.2,0l0.2-0.1l0.3,0l4-11.7l-3.6,0.5L102.8,77.7z"/>
<path class="st5" d="M102.8,77.7h-0.2l-2.1,2.3l1,9h0.1l0,0h0.1l0.2,0l0.2-0.1l0.3,0l4-11.7l-3.6,0.5L102.8,77.7z"/>
<path id="Layer1_6_MEMBER_262_1_STROKES" class="st6" d="M102.8,77.7h-0.2l-2.1,2.3l1,9h0.1l0,0h0.1l0.2,0l0.2-0.1l0.3,0l4-11.7
	l-3.6,0.5L102.8,77.7z"/>
<path d="M124.8,79.6l-0.1-0.2l-0.4-2l-2.6,7.3l2-0.4l0.2-0.1l0.2,0l0.1,0h0.1L124.8,79.6z"/>
<path class="st5" d="M124.8,79.6l-0.1-0.2l-0.4-2l-2.6,7.3l2-0.4l0.2-0.1l0.2,0l0.1,0h0.1L124.8,79.6z"/>
<path id="Layer1_6_MEMBER_264_1_STROKES" class="st6" d="M124.7,79.4l-0.4-2l-2.6,7.3l2-0.4l0.2-0.1l0.2,0l0.1,0h0.1l0.5-4.6
	L124.7,79.4z"/>
<path id="Layer1_6_MEMBER_265_1_STROKES" class="st4" d="M118.6,93.7l11.7,0.5l7.4,1.2l1.9,0.8l5.8,3.9l0.6,0.6l0.3,0.4"/>
<path id="Layer1_6_MEMBER_266_1_STROKES" class="st4" d="M143.5,94.7l1.4,4.7l0.1,0.3"/>
<path id="Layer1_6_MEMBER_267_1_STROKES" class="st4" d="M122.4,85.2l-0.3,1.8l0,0.8l0,0.3l0.2,0.2l0.2,0l1.6,0l0.4,0.1l0.1,0.1
	l0,0.1l0,0.3v0.3l-0.1,0.7l-0.2,0.7l-0.1,0H124l-4.7,1"/>
<path id="Layer1_6_MEMBER_268_1_STROKES" class="st4" d="M96.9,68.3l3.8,10l0.5,0.7l0.3,0.4"/>
<path id="Layer1_6_MEMBER_269_1_STROKES" class="st4" d="M147.3,35.2l-0.5-0.4l-2.3-2.3l-0.1,0l-2.3-1h-0.1l-0.1,0l-1.4,2.4
	l-0.2,0.2l0,0.1h0l0.1,0.1l0.3,0.1l0.2,0.2l0.7,0.3l0.1,0.2l1.4,0.8l0.6,0.4l2.6,1.3"/>
<path id="Layer1_6_MEMBER_270_1_STROKES" class="st4" d="M121.3,23.3l-0.2,4.9l-3.3,0.6"/>
<path id="Layer1_6_MEMBER_271_1_STROKES" class="st4" d="M123.2,23.5v3l-0.3,0.1l-1,0.9l-0.3,0.3l-0.3,0.3l-0.2,0.1"/>
<path id="Layer1_6_MEMBER_272_1_STROKES" class="st4" d="M126.2,23.9l-0.2,2.4l-2.8,0.1"/>
<path id="Layer1_6_MEMBER_273_1_STROKES" class="st4" d="M133.4,24.7l-0.2,1V26h0.1l2,0.3l0.4,0.1l0.3,0h0.1v0l0.7-1.5"/>
<path id="Layer1_6_MEMBER_274_1_STROKES" class="st4" d="M133.5,24.3l0.3,0l6.3,0.1l4.8,0.6l0.7,0.4"/>
<path id="Layer1_6_MEMBER_275_1_STROKES" class="st4" d="M142.1,31.4v-0.4l-0.5-2.8l-0.1-0.2v-0.1l-5.5-1.5"/>
<path id="Layer1_6_MEMBER_276_1_STROKES" class="st4" d="M146.9,28.4l-5.2-0.4"/>
<path id="Layer1_6_MEMBER_277_1_STROKES" class="st4" d="M160.1,56.2l-0.4,0.2l-0.8,0.7l-0.1,0.1l-3.5-1.3v-4l5.6,2.5v1L160.1,56.2z
	"/>
<path id="Layer1_6_MEMBER_278_1_STROKES" class="st4" d="M153.3,50.2l0.2,0h0.6l0,5.5h0l-2.4-1l0-0.1l1-4.3l0.1-0.1H153.3z"/>
<path id="Layer1_6_MEMBER_279_1_STROKES" class="st4" d="M151.9,69.7l-3.3,6.8"/>
<path id="Layer1_6_MEMBER_280_1_STROKES" class="st4" d="M153.6,69l-3.5,7.6l-0.6,0.9"/>
<path id="Layer1_6_MEMBER_281_1_STROKES" class="st4" d="M160.1,60.9l-2.6-0.5h-0.3"/>
<path id="Layer1_6_MEMBER_282_1_STROKES" class="st4" d="M158.9,64.3l-3-1.4v-0.9l0-0.2l0-0.1h0.2l0.1-0.1l0.8-1.2"/>
<path id="Layer1_6_MEMBER_283_1_STROKES" class="st4" d="M136.8,54.8l-4.2-1.5"/>
<path id="Layer1_6_MEMBER_284_1_STROKES" class="st4" d="M125.5,6.8v0.4l0.1,0.5l0.7,1.3l0.6,0.7l0.9,0.5l1.1,0.5l1.5,0.3l0.2-0.1
	l1.1-0.1l1.6-0.5l0.8-0.5l0.6-0.6l0.4-0.8l0.2-1.1"/>
<path id="Layer1_6_MEMBER_287_1_STROKES" class="st4" d="M120.2,157l1.5,1.2l1,0.5l1.2,0.4l3,0l1.8-0.5l4.1-2"/>
<path id="Layer1_6_MEMBER_288_1_STROKES" class="st4" d="M126.2,159.1l5.7,0.3"/>
<g>
	<path class="st7" d="M228.4,148.2c-0.2,0.1-0.3,0.3-0.4,0.5l-0.1,0.6l-0.2,0.2l-0.1,0.2l-0.1,0.4l0,0.4l0.3,0.7l0.5,0.6l0.4,0.3
		l0.2,0.1l0.4,0.1l0.3-0.1l0.1-0.1l0.1-0.1c0.4,0.2,0.7,0.2,0.9,0.1c0.1,0,0.1-0.1,0.1-0.1l0.5,0.3c0.8,0.7,1.6,1.2,2.3,1.3
		c0.3,0.1,0.6,0.1,0.9,0l1.7,0l2.4-1.4l0.6-1l0.2-0.4l0.2-1l-0.1-1.8l2.7-1.5l0.1-0.2l0.9-1.3l0.4-0.8l-0.1-1.2l-0.6-1.3l-0.9-1
		l-1-0.5l-1.7,0.1l-0.1,0l-0.9,0.3l-1.7,1.1l-0.4,0.1l-0.3,0.1l-0.2-0.2l-0.6-0.4l-0.9-0.4l-0.6-0.2l-0.6,0l-0.3,0l-0.5,0.1l-3,1.7
		h0v0l0,0.1l-0.2,0.2l-0.4,0.9l-0.2,0.6l0,0.6c-0.1,0.4-0.1,0.8,0,1.3c0,0.2,0.1,0.5,0.1,0.8l0.2,0.8
		C228.6,148.1,228.5,148.1,228.4,148.2z"/>
	<path class="st8" d="M291.3,114.3c-0.4-0.7-0.9-1.3-1.5-1.7c-0.6-0.4-1.1-0.4-1.6,0c-0.2,0-0.4,0-0.6,0.1c-0.3,0.2-0.5,0.7-0.5,1.3
		l-5.5,3.5l0.2-0.1l-0.7,0.4l0.6-0.4l-2.6,0.9c-0.1,0-0.2,0.1-0.2,0.1l-1.4,0.8c0,0-0.1,0-0.1,0c-0.3,0.2-0.5,0.6-0.6,1.1
		c0,0.5,0.1,1.1,0.4,1.7l0.6,1c0.4,0.4,0.8,0.7,1.1,0.9c0.4,0.1,0.7,0.1,1,0c0,0,0.1,0,0.1,0c0.1-0.1,0.2-0.1,0.2-0.2l1.6-0.9
		c0.3-0.2,0.5-0.5,0.5-1v0l7-3.9c0.7,0.4,1.2,0.6,1.5,0.3c0.2-0.1,0.3-0.2,0.4-0.4c0.5-0.2,0.8-0.6,0.8-1.4
		C292,115.8,291.7,115.1,291.3,114.3 M264.3,126.6H264l-0.2,0.1l-0.4,0.3l-0.1,0.2l-0.9,0.3l-1.1,0.8l-0.6,0.1l-0.9,0.8l-0.4,0
		l-0.4,0.3l-0.2,0.5l-1,0.2l-0.8,0.7l-0.2,0h-0.1l-0.2,0l-0.1,0.1l-0.1,0l0,0.1l-0.1,0.1l-0.2,0.4l-0.1,0.2l-0.2-0.1l-0.4,0l-0.3,0
		l-0.2,0.2l-0.1,0.2l-0.1,0.2l-0.1,0.5v0.5l0.2,0.6l0.3,0.7l0.6,1l0.4,0.5l0.9,0.6l0.6,0.3l0.3,0l0.4,0l0.4-0.1l0.3-0.1l0.1-0.1
		l0.4-0.6l0,0h0.4l0.6-0.3l0.2-0.2l0.2-0.3l0.7-0.1l1.7-1.1l0.3-0.2l0.2-0.4l0.4,0l0.5-0.2l0.3-0.3l0.2-0.3l0.5,0l0.5-0.3l0.4-0.5
		l0.1-0.3l0.1-1l0-0.8l-0.2-0.7l-0.4-0.7L266,128l-0.8-0.9l-0.6-0.4L264.3,126.6z"/>
	<path class="st0" d="M311.4,77.3l-1.9,0.6l-1.8,0.6v-0.8l-4.3-10.8l0-0.2l1.8-0.3l1.7-2l0.1,0l-0.7-2.3l-0.6-1.3l-1.3,0.4
		c-0.1-0.4-0.3-0.8-0.4-1.1c0.1-0.1,0.1-0.2,0.1-0.4c0-0.3-0.2-0.5-0.5-0.5c-0.1,0-0.1,0-0.2,0c0,0,0,0,0,0c-0.6,0-1.3,0.2-2,0.6
		c-0.7,0.4-1,0.8-1,1.2c0,0,0,0.1,0,0.1l-0.6-1l-3.2-8.9c-0.1-0.1-0.1-0.3-0.2-0.4c-0.4-1.4-1.9-2.1-4.4-2.2
		c-2.5-0.1-5.3,0.5-8.4,1.6c-1.9,0.7-3.6,1.5-5,2.5l-1.4-0.3l-1.2,0.1l-1,0.4l-0.8,0.6l-0.6,0.7l-0.8,1.3l-0.2,0.6l1.1,2.9l0.6,0.3
		l0,0c0,0.2,0,0.3,0,0.5l3.6,10l-0.2,0.1l-0.8,0.5l-0.5,0.7l0.6,1.5l-2.1,1.3l0.7,1.3l0.6-0.4l1.5,2.7l2,0.1l0.3-0.2l0.4,0.9v0
		l4.2,9.9l0.5-0.3l-1.9,1.1l-1.5,2.2l-0.6,1.3l-0.2,0.9l0,1l0.2,1.2l0.4,1.5l1.1,2l1,1.3l3,7.2l3.7-1l3.2,6.8l5.2-1.1l0.1,0.8
		l4.1-2.4c0.4,0.4,0.9,0.8,1.4,1c0.1,0.1,0.3,0.1,0.4,0.2l2.4,0c0.6,0.1,1.1,0.1,1.6-0.2c0.1-0.1,0.2-0.1,0.2-0.2
		c0.1-0.1,0.1-0.1,0.2-0.1c0.2-0.2,0.3-0.3,0.4-0.5c0.2-0.1,0.4-0.2,0.6-0.4c0.7-0.5,1.2-1.3,1.5-2.4l5.1-2.8
		c0.8-0.4,1.4-1.2,1.6-2.4c0.2-1.1,0.1-2.2-0.5-3.4c-0.3-0.6-0.6-1.1-1.1-1.6c-0.2-0.2-0.4-0.4-0.6-0.5l-2-1.5l-0.5,0.2l0,0h0l0.1,0
		l0.2-0.2l0.3-0.1l3.2-1.6l0.2-0.4c0.1,0,0.2,0,0.3,0c0.5,0,0.9-0.1,1.2-0.2c0.4-0.2,0.6-0.4,0.6-0.8c0-0.1,0-0.1,0-0.2
		c0-0.1,0-0.1,0-0.2l0.4-0.2l0.2-0.7l0-0.7l-0.1-0.6l-0.5-1.2l-0.3-0.4l-0.4-0.5l-0.4-0.2l-2.7-6.8l0.2-0.3l0.2-1l0-0.8l-0.3-0.7
		l-0.4-0.5l-0.4-0.4l-0.8-0.5l-0.3,0.1l0.1,0.5l-0.2-0.2l-0.4-0.2L311.4,77.3 M300.7,61.8c0,0,0.1,0,0.1,0h0c0,0,0,0.1,0.1,0.1
		l-0.2,0L300.7,61.8 M296.2,96.4c0.1-0.1,0.1-0.1,0.2-0.1c0.1,0,0.1,0,0.1,0L296.2,96.4 M302.8,95l-0.6,0.3l0.3-0.3L302.8,95z"/>
	<path class="st9" d="M322.2,70l-6.5,1l-1.8,0.6l-2.7,1.4l-1.4,1.2l-0.5,0.5l0.2,3.2l1.9-0.6l1.4-0.4l0.9-0.2l0.3,0.1l0.8,0.5
		l0.4,0.4l0.4,0.5l0.3,0.7l0,0.8l-0.2,1l-0.2,0.3l2.7,6.8l0.4,0.2l0.4,0.5l0.3,0.4l0.5,1.2l0.1,0.6l0,0.7l-0.2,0.7l-0.3,0.4
		c0,0.1,0,0.1,0,0.2c0,0.4-0.2,0.6-0.6,0.8v0l0.4,0.3l0.6,0.2l0.8,0.2l2.6,0.1l3.9-0.8l3.1-1.1l0.7-0.4l0.6-0.6l0-2.1l-1.7-7.3
		l3.2-1.1c0.4,0.2,0.8,0.2,1.2,0.2c0.1,0,0.3,0,0.4,0c0.4,0.1,0.8,0.1,1.2,0.1c0.4,0,0.8-0.1,1.2-0.3c1.1-0.5,1.8-1.4,2.1-2.8
		c0-0.1,0-0.1,0-0.2c0.2-1.3,0.1-2.6-0.6-4c-0.5-1.1-1.1-1.9-1.9-2.5c-0.3-0.2-0.6-0.4-0.9-0.6c-1.2-0.6-2.4-0.7-3.4-0.2
		c-0.7,0.3-1.2,0.8-1.6,1.5l-0.6,1.2l-2,0.7l-0.9-2.3l-0.6-0.7l-0.8-0.6l-0.9-0.4L323,70H322.2z"/>
	<path id="Layer1_13_MEMBER_0_MEMBER_0_MEMBER_0_1_STROKES" class="st10" d="M278.1,122.5c0.4,0.5,0.9,0.7,1.2,0.5
		c0.2-0.1,0.3-0.4,0.3-0.8c0-0.3-0.1-0.7-0.3-1.1c-0.2-0.4-0.5-0.7-0.8-0.8c-0.3-0.2-0.6-0.2-0.8-0.1c-0.2,0.1-0.3,0.3-0.3,0.6
		c0,0.3,0,0.6,0.1,0.9"/>
	<path id="Layer1_13_MEMBER_0_MEMBER_0_MEMBER_1_1_STROKES" class="st10" d="M277.6,123c0.4,0.4,0.8,0.7,1.1,0.9
		c0.4,0.2,0.8,0.2,1.1,0c0.3-0.2,0.5-0.6,0.5-1.2c0-0.6-0.2-1.2-0.6-1.9c-0.4-0.6-0.8-1.1-1.3-1.4c-0.5-0.3-1-0.4-1.3-0.2
		c-0.3,0.2-0.5,0.6-0.6,1.1c0,0.5,0.1,1.1,0.4,1.7"/>
	<path id="Layer1_13_MEMBER_0_MEMBER_0_MEMBER_2_1_STROKES" class="st10" d="M281.7,122.9c0.3-0.2,0.5-0.6,0.5-1.2
		c0-0.6-0.2-1.2-0.6-1.9c-0.3-0.6-0.8-1.1-1.3-1.3c-0.5-0.3-0.9-0.3-1.3-0.1"/>
	<path id="Layer1_13_MEMBER_0_MEMBER_0_MEMBER_3_1_STROKES" class="st10" d="M279.2,118.3l-1.9,1.1"/>
	<path id="Layer1_13_MEMBER_0_MEMBER_0_MEMBER_4_1_STROKES" class="st10" d="M281.6,122.9l-1.9,1"/>
	<path id="Layer1_13_MEMBER_0_MEMBER_0_MEMBER_5_1_STROKES" class="st10" d="M281.2,123.1c0.4-0.2,0.6-0.6,0.6-1.2
		c0-0.6-0.2-1.2-0.6-1.8c-0.3-0.6-0.8-1.1-1.3-1.4c-0.5-0.3-0.9-0.3-1.3-0.1"/>
	<path id="Layer1_13_MEMBER_0_MEMBER_0_MEMBER_6_1_STROKES" class="st10" d="M280.4,123.6c0.4-0.2,0.6-0.6,0.6-1.2
		c0-0.6-0.2-1.2-0.6-1.8c-0.3-0.6-0.8-1.1-1.3-1.4c-0.5-0.3-1-0.4-1.3-0.2"/>
	<path id="Layer1_13_MEMBER_0_MEMBER_0_MEMBER_7_1_STROKES" class="st10" d="M282.4,121.8c0.2-0.2,0.3-0.5,0.3-1
		c0-0.4-0.2-0.9-0.4-1.3c-0.2-0.4-0.5-0.8-0.9-1c-0.3-0.2-0.7-0.3-1-0.3"/>
	<path id="Layer1_13_MEMBER_0_MEMBER_0_MEMBER_8_1_STROKES" class="st10" d="M289.5,117.8c0.3-0.2,0.4-0.5,0.4-1
		c0-0.5-0.1-1-0.4-1.5s-0.6-0.9-1.1-1.1c-0.4-0.3-0.7-0.3-1-0.1"/>
	<path id="Layer1_13_MEMBER_0_MEMBER_0_MEMBER_9_1_STROKES" class="st10" d="M287.4,114.1l-7,4.1"/>
	<path id="Layer1_13_MEMBER_0_MEMBER_0_MEMBER_10_1_STROKES" class="st10" d="M289.4,117.8l-6.6,3.8"/>
	<path id="Layer1_13_MEMBER_0_MEMBER_0_MEMBER_11_1_STROKES" class="st10" d="M289.9,117.8c0.2,0,0.3-0.1,0.4-0.1
		c0.4-0.2,0.6-0.6,0.6-1.1c0-0.6-0.2-1.2-0.6-1.7c-0.3-0.6-0.8-1-1.2-1.3c-0.5-0.3-0.9-0.3-1.2-0.1c-0.1,0.1-0.3,0.2-0.4,0.4"/>
	<path id="Layer1_13_MEMBER_0_MEMBER_0_MEMBER_12_1_STROKES" class="st10" d="M289.3,118.1c0.6,0.3,1.1,0.4,1.5,0.2
		c0.4-0.2,0.7-0.7,0.7-1.5c0-0.7-0.2-1.4-0.7-2.2c-0.4-0.8-1-1.3-1.6-1.7c-0.6-0.3-1.1-0.4-1.6-0.2c-0.4,0.2-0.6,0.7-0.6,1.4"/>
	<path id="Layer1_13_MEMBER_0_MEMBER_0_MEMBER_13_1_STROKES" class="st10" d="M291.3,117.9c0.4-0.2,0.7-0.7,0.7-1.5
		c0-0.7-0.2-1.4-0.7-2.2c-0.4-0.7-0.9-1.3-1.5-1.7c-0.6-0.4-1.1-0.4-1.6-0.2"/>
	<path id="Layer1_13_MEMBER_0_MEMBER_0_MEMBER_14_1_STROKES" class="st10" d="M281.1,122.5c0.2-0.2,0.3-0.6,0.2-1
		c-0.1-0.4-0.2-0.8-0.4-1.2c-0.2-0.4-0.5-0.8-0.9-1c-0.3-0.2-0.7-0.3-1-0.2"/>
	<path id="Layer1_13_MEMBER_0_MEMBER_0_MEMBER_15_1_STROKES" class="st10" d="M279.1,122l0.4,0.3"/>
	<path id="Layer1_13_MEMBER_0_MEMBER_0_MEMBER_16_1_STROKES" class="st10" d="M278.4,120.6l0.1,0.5"/>
	<path id="Layer1_13_MEMBER_0_MEMBER_0_MEMBER_17_1_STROKES" class="st10" d="M286.4,116.9c-0.3-0.5-0.6-0.8-1-1s-0.7-0.2-1,0"/>
	<path id="Layer1_13_MEMBER_0_MEMBER_0_MEMBER_18_1_STROKES" class="st10" d="M287.3,116.4c-0.3-0.5-0.6-0.8-1-1
		c-0.4-0.2-0.7-0.2-1-0.1"/>
	<path id="Layer1_13_MEMBER_0_MEMBER_0_MEMBER_19_1_STROKES" class="st10" d="M285.5,117.4c-0.3-0.4-0.6-0.8-1-1
		c-0.4-0.2-0.7-0.2-1-0.1"/>
	<path id="Layer1_13_MEMBER_0_MEMBER_0_MEMBER_20_1_STROKES" class="st10" d="M284.7,118c-0.3-0.4-0.6-0.8-1-1c-0.4-0.2-0.7-0.2-1,0
		"/>
	<path id="Layer1_13_MEMBER_0_MEMBER_0_MEMBER_21_1_STROKES" class="st10" d="M283.8,118.7l-0.1-0.2c-0.3-0.4-0.6-0.8-1-1
		c-0.4-0.2-0.7-0.2-1-0.1"/>
	<path id="Layer1_13_MEMBER_0_MEMBER_0_MEMBER_22_1_STROKES" class="st10" d="M286,114.9c-0.3,0.2-0.4,0.5-0.4,0.9
		c0,0.4,0.1,0.9,0.4,1.4"/>
	<path id="Layer1_13_MEMBER_0_MEMBER_0_MEMBER_23_1_STROKES" class="st10" d="M287,114.4c-0.3,0.1-0.4,0.4-0.4,0.9
		c0,0.4,0.1,0.9,0.4,1.3"/>
	<path id="Layer1_13_MEMBER_0_MEMBER_0_MEMBER_24_1_STROKES" class="st10" d="M285.1,115.5c-0.3,0.1-0.4,0.4-0.4,0.9
		c0,0.4,0.1,0.9,0.4,1.4"/>
	<path id="Layer1_13_MEMBER_0_MEMBER_0_MEMBER_25_1_STROKES" class="st10" d="M284.3,116c-0.3,0.2-0.4,0.4-0.4,0.9
		c0,0.5,0.1,0.9,0.4,1.4"/>
	<path id="Layer1_13_MEMBER_0_MEMBER_0_MEMBER_26_1_STROKES" class="st10" d="M283.4,116.5c-0.3,0.2-0.4,0.5-0.4,0.9
		c0,0.4,0.1,0.9,0.4,1.4"/>
	<path id="Layer1_13_MEMBER_0_MEMBER_0_MEMBER_27_1_STROKES" class="st10" d="M229.9,152.1c0.3,0.1,0.5,0.1,0.8,0
		c0.3-0.2,0.5-0.5,0.5-1c0-0.5-0.2-1-0.5-1.5c-0.3-0.5-0.7-0.9-1.1-1.2c-0.4-0.2-0.8-0.3-1.1-0.1c-0.2,0.1-0.3,0.3-0.4,0.6"/>
	<path id="Layer1_13_MEMBER_0_MEMBER_0_MEMBER_28_1_STROKES" class="st10" d="M228.1,148.7l-0.2,0.6"/>
	<path id="Layer1_13_MEMBER_0_MEMBER_0_MEMBER_29_1_STROKES" class="st10" d="M235,153.7h0.8l0.3,0h0.1l0.2-1.1v-0.3l0-0.2v-0.1
		l0.2-0.7v-0.1l0.1-0.1V151l0.2-0.4v-0.1l0-0.1l0.1-0.1l0-0.2l0.5-0.8l0,0h0v0l-0.2-0.1l0-0.1l-0.4-0.3l-0.3-0.3l-0.1,0l-0.1-0.1
		l0-0.1l-0.4-0.4l-1.2-1.7l0-0.2l-0.2-0.2l-0.5-1v-0.2l-0.1-0.2l-0.1-0.3l-0.1-0.6v0h-0.4l-0.1,0h-0.7l-0.1,0h-0.1l-0.1,0H232
		l-0.9-0.2l-0.1,0l-1.8-0.6v0l0,0.1l-0.2,0.2l-0.4,0.9l-0.2,0.6l0,0.4l0,0.2"/>
	<path id="Layer1_13_MEMBER_0_MEMBER_0_MEMBER_30_1_STROKES" class="st10" d="M232.2,141.1l-3,1.7"/>
	<path id="Layer1_13_MEMBER_0_MEMBER_0_MEMBER_31_1_STROKES" class="st10" d="M236.6,141.9l-2.7,1.6"/>
	<path id="Layer1_13_MEMBER_0_MEMBER_0_MEMBER_32_1_STROKES" class="st10" d="M240,147.9l-2.4,1.4"/>
	<path id="Layer1_13_MEMBER_0_MEMBER_0_MEMBER_33_1_STROKES" class="st10" d="M238.7,152.3l-2.5,1.4"/>
	<path id="Layer1_13_MEMBER_0_MEMBER_0_MEMBER_34_1_STROKES" class="st10" d="M238.4,140.9l0.9-0.3l1.1,0.4l1.1,0.9l0.8,1.3l0.5,1.4
		v1.3l-0.5,0.8"/>
	<path id="Layer1_13_MEMBER_0_MEMBER_0_MEMBER_35_1_STROKES" class="st10" d="M237.3,141.5l0.9-0.2l1.1,0.4l1.1,0.9l0.8,1.3l0.5,1.4
		l0,1.3l-0.5,0.9"/>
	<path id="Layer1_13_MEMBER_0_MEMBER_0_MEMBER_36_1_STROKES" class="st10" d="M236.3,142.1l0.8-0.2l1.1,0.4l1.1,0.9l0.9,1.3l0.4,1.4
		l0,1.3l-0.5,0.8"/>
	<path id="Layer1_13_MEMBER_0_MEMBER_0_MEMBER_37_1_STROKES" class="st10" d="M241.1,140.5l1,0.5l0.9,1l0.6,1.3l0.1,1.2l-0.4,0.8"/>
	<path id="Layer1_13_MEMBER_0_MEMBER_0_MEMBER_38_1_STROKES" class="st10" d="M241.1,140.5l-1.8,0.1"/>
	<path id="Layer1_13_MEMBER_0_MEMBER_0_MEMBER_39_1_STROKES" class="st10" d="M243.3,145.3l-1.1,1.4"/>
	<path id="Layer1_13_MEMBER_0_MEMBER_0_MEMBER_40_1_STROKES" class="st10" d="M236.5,142.6l0.6,0.2l1.1,0.9l0.9,1.3l0.6,1.4l0,1.3
		l-0.2,0.4"/>
	<path id="Layer1_13_MEMBER_0_MEMBER_0_MEMBER_41_1_STROKES" class="st10" d="M231.7,141.4l0.2-0.1l0.4-0.2l0.5-0.1l0.3,0l0.6,0
		l0.6,0.2l0.9,0.4l0.6,0.4l0.9,0.8l0.9,1l0.7,1.1l1,2l0.3,1.3l0.1,1.9l-0.2,1l-0.2,0.4l-0.6,0.9"/>
	<path id="Layer1_13_MEMBER_0_MEMBER_0_MEMBER_42_1_STROKES" class="st10" d="M233.5,150.5c0.3-0.2,0.5-0.5,0.5-1
		c0-0.5-0.2-1.1-0.5-1.6c-0.3-0.5-0.6-0.9-1.1-1.1c-0.4-0.3-0.8-0.3-1.1-0.2"/>
	<path id="Layer1_13_MEMBER_0_MEMBER_0_MEMBER_43_1_STROKES" class="st10" d="M232.8,150.8c0.3-0.2,0.5-0.5,0.5-1
		c0-0.5-0.1-1-0.4-1.5c-0.3-0.5-0.7-0.9-1.1-1.2c-0.4-0.3-0.8-0.3-1.1-0.2"/>
	<path id="Layer1_13_MEMBER_0_MEMBER_0_MEMBER_44_1_STROKES" class="st10" d="M232.2,151.2c0.3-0.2,0.4-0.5,0.4-1
		c0-0.5-0.1-1-0.4-1.6c-0.3-0.5-0.6-0.9-1.1-1.1c-0.4-0.3-0.8-0.3-1.1-0.2"/>
	<path id="Layer1_13_MEMBER_0_MEMBER_0_MEMBER_45_1_STROKES" class="st10" d="M231.4,151.7c0.3-0.2,0.5-0.5,0.5-1
		c0-0.5-0.2-1.1-0.5-1.6c-0.3-0.5-0.6-0.9-1.1-1.1c-0.4-0.3-0.8-0.3-1.1-0.2"/>
	<path id="Layer1_13_MEMBER_0_MEMBER_0_MEMBER_46_1_STROKES" class="st10" d="M231.3,146.6l-2.5,1.5"/>
	<path id="Layer1_13_MEMBER_0_MEMBER_0_MEMBER_47_1_STROKES" class="st10" d="M233.4,150.5l-2.6,1.5"/>
	<path id="Layer1_13_MEMBER_0_MEMBER_0_MEMBER_48_1_STROKES" class="st11" d="M251.6,137.2c0.6,1.1,1,2.2,1,3.2c0,1-0.3,1.7-1,2.1
		c-0.6,0.4-1.4,0.3-2.3-0.2c-0.9-0.5-1.7-1.3-2.3-2.5c-0.6-1.1-1-2.2-1-3.2c0-1.1,0.3-1.8,1-2.1c0.6-0.4,1.4-0.3,2.3,0.2
		C250.2,135.3,251,136.1,251.6,137.2z"/>
	<path id="Layer1_13_MEMBER_0_MEMBER_0_MEMBER_49_1_STROKES" class="st4" d="M258.5,133.4l-3.5,2.1"/>
	<path id="Layer1_13_MEMBER_0_MEMBER_0_MEMBER_50_1_STROKES" class="st4" d="M260.1,132.5l-0.7,0.4"/>
	<path id="Layer1_13_MEMBER_0_MEMBER_0_MEMBER_51_1_STROKES" class="st4" d="M261.6,131.7l-0.8,0.4"/>
	<path id="Layer1_13_MEMBER_0_MEMBER_0_MEMBER_52_1_STROKES" class="st4" d="M263,130.8l-0.7,0.4"/>
	<path id="Layer1_13_MEMBER_0_MEMBER_0_MEMBER_53_1_STROKES" class="st4" d="M264.4,130l-0.7,0.4"/>
	<path id="Layer1_13_MEMBER_0_MEMBER_0_MEMBER_54_1_STROKES" class="st4" d="M265.9,129.1l-0.7,0.4"/>
	<path id="Layer1_13_MEMBER_0_MEMBER_0_MEMBER_55_1_STROKES" class="st4" d="M267.3,128.2l-0.7,0.4"/>
	<path id="Layer1_13_MEMBER_0_MEMBER_0_MEMBER_56_1_STROKES" class="st10" d="M264.8,127.5v0.2l0.3,0.8l0.6,0.9l0.3,0.4l0.2,0.2"/>
	<path id="Layer1_13_MEMBER_0_MEMBER_0_MEMBER_57_1_STROKES" class="st10" d="M263.3,128.4l0.1,0.4l0.4,0.8l0.6,0.8l0.2,0.2l0.2,0.2
		"/>
	<path id="Layer1_13_MEMBER_0_MEMBER_0_MEMBER_58_1_STROKES" class="st10" d="M265.9,132.7l0.5-0.3l0.4-0.5l0.1-0.3l0.1-1l0-0.8
		l-0.2-0.7l-0.4-0.7l-0.3-0.5l-0.8-0.9l-0.6-0.4l-0.3-0.1H264l-0.2,0.1l-0.4,0.3l-0.1,0.2l-0.1,0.4"/>
	<path id="Layer1_13_MEMBER_0_MEMBER_0_MEMBER_59_1_STROKES" class="st10" d="M264,133.6h0.4l0.5-0.2l0.3-0.3l0.2-0.3l0.2-0.6l0-0.5
		l-0.2-1.2l-0.4-1l-0.1-0.1l-0.2-0.3l-0.3-0.4l-0.7-0.8l-0.6-0.3l-0.3-0.1l-0.1,0h-0.4l-0.2,0.1l-0.4,0.4l-0.1,0.1v0.3l0,0.1v0.2
		l0,0.4l0.1,0.5l0.2,0.6l0.7,1.1l0.5,0.5"/>
	<path id="Layer1_13_MEMBER_0_MEMBER_0_MEMBER_60_1_STROKES" class="st10" d="M260.4,130.2l0.4,1l0.4,0.7l0.2,0.2l0.4,0.4"/>
	<path id="Layer1_13_MEMBER_0_MEMBER_0_MEMBER_61_1_STROKES" class="st10" d="M262.6,134.4l0.3,0l0.5-0.2l0.3-0.2l0.2-0.4l0.2-0.6
		l0-0.8l-0.2-0.9l-0.3-0.7l-0.3-0.6l-0.8-0.9l-0.6-0.4l-0.4-0.2l-0.3-0.1h-0.2l-0.3,0.1l-0.2,0.2l-0.1,0.2"/>
	<path id="Layer1_13_MEMBER_0_MEMBER_0_MEMBER_62_1_STROKES" class="st10" d="M261.2,134l0.3,0.2"/>
	<path id="Layer1_13_MEMBER_0_MEMBER_0_MEMBER_63_1_STROKES" class="st10" d="M259,131l0.5,1.2l0.8,1.1"/>
	<path id="Layer1_13_MEMBER_0_MEMBER_0_MEMBER_64_1_STROKES" class="st10" d="M261.2,135.3l0.5-0.2l0.5-0.3l0.1-0.1l0.4-0.7l0.1-0.6
		l-0.1-1.1l-0.2-0.5l-0.7-1.3l-0.6-0.7l-0.5-0.4l-0.2-0.1l-0.4-0.1h-0.3l-0.2,0l-0.3,0.2l-0.1,0.1l-0.2,0.5"/>
	<path id="Layer1_13_MEMBER_0_MEMBER_0_MEMBER_65_1_STROKES" class="st10" d="M259.8,135l0.4,0.2"/>
	<path id="Layer1_13_MEMBER_0_MEMBER_0_MEMBER_66_1_STROKES" class="st10" d="M257.6,131.9l0.1,0.5l0.9,1.5l0.4,0.4"/>
	<path id="Layer1_13_MEMBER_0_MEMBER_0_MEMBER_67_1_STROKES" class="st10" d="M259.9,136.1l0.6-0.3l0.2-0.2l0.2-0.3l0.2-0.4l0-1.3
		l-0.2-0.9l-0.3-0.7l-0.2-0.2l-0.1-0.2l-0.2-0.3l-0.8-0.7l-0.4-0.2l-0.4-0.1h-0.4l-0.1,0l-0.2,0.1l-0.2,0.2l-0.2,0.3l-0.1,0.3"/>
	<path id="Layer1_13_MEMBER_0_MEMBER_0_MEMBER_68_1_STROKES" class="st10" d="M256.1,132.8l0.1,0.5l0.8,1.4l0.3,0.3l0.5,0.5l0.5,0.3
		l0.5,0.2"/>
	<path id="Layer1_13_MEMBER_0_MEMBER_0_MEMBER_69_1_STROKES" class="st10" d="M257.7,133.9l-0.6-0.9l-0.6-0.7l-0.2-0.2l-0.4-0.2
		l-0.2-0.1l-0.4,0l-0.3,0l-0.2,0.2l-0.1,0.2l-0.1,0.2l-0.1,0.5v0.5l0.2,0.6l0.3,0.7l0.6,1l0.4,0.5l0.9,0.6l0.6,0.3l0.3,0l0.4,0
		l0.4-0.1l0.3-0.1l0.1-0.1l0.4-0.6l0.1-0.2l0.1-0.5l0-0.6l0-0.5l-0.3-1l-0.4-0.8l-0.3-0.4l-0.6-0.6l-0.6-0.4l-0.3-0.1l-0.2,0h-0.1
		l-0.2,0l-0.1,0.1l-0.1,0l0,0.1l-0.1,0.1l-0.2,0.4l-0.1,0.2"/>
	<path id="Layer1_13_MEMBER_0_MEMBER_0_MEMBER_70_1_STROKES" class="st10" d="M265.6,130.8l0.2,0.2l0.1,0l0.4,0.2"/>
	<path id="Layer1_13_MEMBER_0_MEMBER_0_MEMBER_71_1_STROKES" class="st10" d="M266.2,131.8l0.2-0.4l0.1-0.6l0-0.4l-0.4-1.3l-0.1-0.2
		l0-0.2l-0.4-0.6l-0.2-0.2l-0.1-0.2l-0.6-0.5l-0.2,0h-0.2l-0.1,0h0l-0.1,0.1l-0.1,0.1l0,0.2v0.2"/>
	<path id="Layer1_13_MEMBER_0_MEMBER_0_MEMBER_72_1_STROKES" class="st10" d="M264.2,131.7l0.6,0.3"/>
	<path id="Layer1_13_MEMBER_0_MEMBER_0_MEMBER_73_1_STROKES" class="st10" d="M264.4,133l0.3-0.2l0.1-0.1l0.2-0.7l0-0.7l-0.2-0.7
		l-0.3-0.8l-0.4-0.7l-0.4-0.5l-0.5-0.4l-0.4-0.1h-0.2"/>
	<path id="Layer1_13_MEMBER_0_MEMBER_0_MEMBER_74_1_STROKES" class="st10" d="M262.6,132.5l0.5,0.4l0.3,0.1"/>
	<path id="Layer1_13_MEMBER_0_MEMBER_0_MEMBER_75_1_STROKES" class="st10" d="M263.1,133.7l0.2-0.2l0.1-0.1l0-0.2l0.1-0.2l0-0.4
		l0-0.6l-0.5-1.5l-0.4-0.6l-0.8-0.8l-0.2-0.1l-0.1,0l-0.1,0h-0.2l-0.1,0L261,129l-0.1,0.2l0,0.1v0.2"/>
	<path id="Layer1_13_MEMBER_0_MEMBER_0_MEMBER_76_1_STROKES" class="st10" d="M261.3,133.4l0.5,0.3"/>
	<path id="Layer1_13_MEMBER_0_MEMBER_0_MEMBER_77_1_STROKES" class="st10" d="M261.4,134.8l0.2-0.2l0.2-0.2l0.1-0.3l0-0.2l0.1-0.2
		l0-0.4l0-0.7l-0.2-0.7l-0.2-0.6l-0.8-1.2l-0.3-0.3l-0.4-0.2l-0.3-0.2h-0.2l-0.2,0.1l-0.1,0.2l0,0.3l0,0.2"/>
	<path id="Layer1_13_MEMBER_0_MEMBER_0_MEMBER_78_1_STROKES" class="st10" d="M259.8,134.4l0.3,0.2l0.3,0.1"/>
	<path id="Layer1_13_MEMBER_0_MEMBER_0_MEMBER_79_1_STROKES" class="st10" d="M259.7,135.6h0.2l0.2-0.1l0-0.1l0.1-0.1l0-0.1l0.1-0.1
		l0.2-0.4l0-0.2l0-1l-0.1-0.2l0-0.2l-0.1-0.4l-0.1-0.2l-0.1-0.1l-0.5-1l-0.4-0.5l-0.2-0.2l-0.5-0.2h-0.3l-0.1,0.1l-0.1,0.2l0,0.2
		v0.3"/>
	<path id="Layer1_13_MEMBER_0_MEMBER_0_MEMBER_80_1_STROKES" class="st10" d="M257.4,134.3l0.5,0.6l0.8,0.6l0.2,0.1"/>
	<path id="Layer1_13_MEMBER_0_MEMBER_0_MEMBER_81_1_STROKES" class="st10" d="M257.2,134.2l-0.4-0.7l-0.6-0.7l-0.1-0.1l-0.1-0.1
		l-0.3-0.2h-0.1l-0.1,0l-0.1,0h-0.1l-0.2,0.1l-0.2,0.2l-0.1,0.3v0.4l0.7,1.7l0.2,0.3l0.7,0.7l0.5,0.3l0.6,0.3h0.1l0.1,0h0.5l0.2-0.1
		l0.1-0.1l0.3-0.4l0.1-0.2l0.1-0.4l0-0.9l-0.5-1.3l-0.3-0.6l-0.4-0.5l-0.5-0.4l-0.4-0.2h-0.2l-0.1,0l-0.1,0.1l-0.1,0.2"/>
	<path id="Layer1_13_MEMBER_0_MEMBER_0_MEMBER_82_1_STROKES" class="st11" d="M273.2,126.4c0,0.5-0.2,0.9-0.5,1.1
		c-0.3,0.2-0.7,0.1-1.1-0.1c-0.5-0.3-0.9-0.7-1.2-1.2s-0.5-1.1-0.5-1.6s0.2-0.9,0.5-1.1c0.3-0.2,0.7-0.1,1.2,0.1
		c0.4,0.3,0.8,0.7,1.1,1.2C273,125.3,273.2,125.8,273.2,126.4z"/>
	<path id="Layer1_13_MEMBER_0_MEMBER_0_MEMBER_83_1_STROKES" class="st10" d="M242.2,146.7l-2.1,1.3"/>
	<path id="Layer1_13_MEMBER_0_MEMBER_0_MEMBER_84_1_STROKES" class="st10" d="M238.4,140.9l-1.8,1"/>
	<path id="Layer1_13_MEMBER_0_MEMBER_0_MEMBER_85_1_STROKES" class="st10" d="M228,149.3l-0.2,0.2l-0.1,0.2l-0.1,0.4l0,0.4l0.3,0.7
		l0.5,0.6l0.4,0.3l0.2,0.1l0.4,0.1l0.3-0.1l0.1-0.1l0.2-0.3l0-0.4v-0.2l-0.1-0.5l-0.2-0.5l-0.5-0.6l-0.2-0.2l-0.4-0.2l-0.4,0h-0.2
		L228,149.3z"/>
	<path id="Layer1_13_MEMBER_0_MEMBER_0_MEMBER_86_1_STROKES" class="st4" d="M252.7,137l0.8-0.5"/>
	<path id="Layer1_13_MEMBER_0_MEMBER_0_MEMBER_87_1_STROKES" class="st4" d="M253.8,136.4l0.2-0.1"/>
	<path id="Layer1_13_MEMBER_0_MEMBER_0_MEMBER_88_1_STROKES" class="st4" d="M254.2,136.2l0.8-0.5"/>
	<path id="Layer1_13_MEMBER_0_MEMBER_0_MEMBER_89_1_STROKES" class="st4" d="M244,141.9l2.5-1.4"/>
	<path id="Layer1_13_MEMBER_0_MEMBER_0_MEMBER_90_1_STROKES" class="st4" d="M247,140.2l0.6-0.4"/>
	<path id="Layer1_13_MEMBER_0_MEMBER_0_MEMBER_91_1_STROKES" class="st4" d="M248.2,139.5l2.5-1.4"/>
	<path id="Layer1_13_MEMBER_0_MEMBER_0_MEMBER_92_1_STROKES" class="st4" d="M267.4,128.2l4.3-2.5"/>
	<path id="Layer1_13_MEMBER_0_MEMBER_0_MEMBER_93_1_STROKES" class="st4" d="M272.7,125.1l1.1-0.6"/>
	<path id="Layer1_13_MEMBER_0_MEMBER_0_MEMBER_94_1_STROKES" class="st4" d="M274.9,123.9l4.3-2.5"/>
	<path id="Layer1_13_MEMBER_0_MEMBER_0_MEMBER_95_1_STROKES" class="st10" d="M231.3,152.3c1.5,1.4,2.8,1.7,3.9,1.1
		c0.8-0.4,1.1-1.3,1.1-2.6c0-1.3-0.4-2.6-1.1-3.9c-0.8-1.3-1.7-2.4-2.8-3c-1.1-0.6-2.1-0.7-2.9-0.3c-1,0.6-1.4,1.9-1,3.7"/>
	<path id="Layer1_13_MEMBER_0_MEMBER_0_MEMBER_96_1_STROKES" class="st10" d="M236.7,144.8c0.1,0.1,0.3,0.2,0.4,0.4
		c0.1,0.2,0.2,0.4,0.2,0.5c0,0.2,0,0.3-0.1,0.4c-0.1,0.1-0.2,0-0.4-0.1c-0.1-0.1-0.3-0.2-0.4-0.4c-0.1-0.2-0.2-0.4-0.2-0.5
		c0-0.2,0-0.3,0.1-0.3C236.4,144.7,236.5,144.7,236.7,144.8z"/>
	<path id="Layer1_13_MEMBER_0_MEMBER_0_MEMBER_97_1_STROKES" class="st12" d="M274.1,59.6l3.2,8.9"/>
	<path id="Layer1_13_MEMBER_0_MEMBER_0_MEMBER_98_1_STROKES" class="st12" d="M296.4,51.1l3.2,8.9"/>
	<path id="Layer1_13_MEMBER_0_MEMBER_0_MEMBER_99_1_STROKES" class="st12" d="M296.4,51.1c-0.3-0.8-1.6-1.1-4-0.8
		c-2.4,0.3-5.1,1-8.2,2.2c-3.1,1.2-5.6,2.4-7.5,3.8c-2,1.4-2.8,2.5-2.5,3.3"/>
	<path id="Layer1_13_MEMBER_0_MEMBER_0_MEMBER_100_1_STROKES" class="st12" d="M296.2,50.6c-0.5-1.3-2-2-4.5-2.1
		c-2.5-0.1-5.3,0.5-8.4,1.6c-3.1,1.2-5.5,2.6-7.3,4.4c-1.8,1.7-2.5,3.3-2,4.6"/>
	<path id="Layer1_13_MEMBER_0_MEMBER_0_MEMBER_101_1_STROKES" class="st12" d="M280.9,76.9l4.9,10.4"/>
	<path id="Layer1_13_MEMBER_0_MEMBER_0_MEMBER_102_1_STROKES" class="st12" d="M303.4,66.8l4.3,10.8"/>
	<path id="Layer1_13_MEMBER_0_MEMBER_0_MEMBER_103_1_STROKES" class="st12" d="M274.7,73.7l7-4.4l7.9-3.8l4.8-1.9l11.2-3"/>
	<path id="Layer1_13_MEMBER_0_MEMBER_0_MEMBER_104_1_STROKES" class="st12" d="M274.7,73.7l0.3,0.6"/>
	<path id="Layer1_13_MEMBER_0_MEMBER_0_MEMBER_105_1_STROKES" class="st12" d="M275,74.3l7-4.4l7.9-3.8l10.2-3.5l5.9-1.3"/>
	<path id="Layer1_13_MEMBER_0_MEMBER_0_MEMBER_106_1_STROKES" class="st12" d="M275,74.3l0.4,0.6"/>
	<path id="Layer1_13_MEMBER_0_MEMBER_0_MEMBER_107_1_STROKES" class="st12" d="M275.3,75l4-2.7l6.6-3.6l9.2-3.8l5.3-1.7l5.8-1.3"/>
	<path id="Layer1_13_MEMBER_0_MEMBER_0_MEMBER_108_1_STROKES" class="st12" d="M306,61.3l0.9,2.9"/>
	<path id="Layer1_13_MEMBER_0_MEMBER_0_MEMBER_109_1_STROKES" class="st12" d="M275.9,74.6l1.5,2.7"/>
	<path id="Layer1_13_MEMBER_0_MEMBER_0_MEMBER_110_1_STROKES" class="st12" d="M276.8,73.9l1.5,2.7"/>
	<path id="Layer1_13_MEMBER_0_MEMBER_0_MEMBER_111_1_STROKES" class="st12" d="M277.4,77.3l2,0.1"/>
	<path id="Layer1_13_MEMBER_0_MEMBER_0_MEMBER_112_1_STROKES" class="st12" d="M277.4,77.3l3.2-2.2l1-0.4l0.2,0.1l0.2,0l0.9,0.4"/>
	<path id="Layer1_13_MEMBER_0_MEMBER_0_MEMBER_113_1_STROKES" class="st12" d="M279.5,77.3l1.1-0.9l1-0.6l0.6-0.3l0.6-0.2"/>
	<path id="Layer1_13_MEMBER_0_MEMBER_0_MEMBER_114_1_STROKES" class="st12" d="M281.7,74.4l0.1-0.8l0.1-0.2l0.2-0.3l0.5-0.4l0.8-0.5
		l1.3-0.4"/>
	<path id="Layer1_13_MEMBER_0_MEMBER_0_MEMBER_115_1_STROKES" class="st12" d="M282.9,75.4l0-2l0-0.1v-0.2l0.1-0.2l0.3-0.4l0.3-0.2
		l1-0.6"/>
	<path id="Layer1_13_MEMBER_0_MEMBER_0_MEMBER_116_1_STROKES" class="st12" d="M284.1,69.6l1.5,3"/>
	<path id="Layer1_13_MEMBER_0_MEMBER_0_MEMBER_117_1_STROKES" class="st12" d="M288.7,68l0.2,0l0.5,0.2l0.6,0.5l0.5,0.9l0.7-0.6
		l1.1-0.8l1.6-0.6l1-0.2l1.1,0v-0.2l0-0.5l-0.2-1.1v0l0-0.1l0.7-1"/>
	<path id="Layer1_13_MEMBER_0_MEMBER_0_MEMBER_118_1_STROKES" class="st12" d="M285.7,72.5l0.2-0.2l0.8-0.7l0.6-0.4l0.9-0.4l1-0.2
		l2.7-0.2"/>
	<path id="Layer1_13_MEMBER_0_MEMBER_0_MEMBER_119_1_STROKES" class="st12" d="M285.6,72.6l2.1,0.2l3.6-1.8l0.4-0.3l0.1-0.2"/>
	<path id="Layer1_13_MEMBER_0_MEMBER_0_MEMBER_120_1_STROKES" class="st12" d="M291.9,70.4l0-1.3"/>
	<path id="Layer1_13_MEMBER_0_MEMBER_0_MEMBER_121_1_STROKES" class="st12" d="M294,67.7l2,1.4l1.8-2.1l-1-2.6"/>
	<path id="Layer1_13_MEMBER_0_MEMBER_0_MEMBER_122_1_STROKES" class="st12" d="M297.8,67l6.3-2.2l2.8-0.6"/>
	<path id="Layer1_13_MEMBER_0_MEMBER_0_MEMBER_123_1_STROKES" class="st12" d="M296,69.1l6.5-2.4l2.7-0.5l1.7-2"/>
	<path id="Layer1_13_MEMBER_0_MEMBER_0_MEMBER_124_1_STROKES" class="st12" d="M276.2,70.9l0.5,1.5"/>
	<path id="Layer1_13_MEMBER_0_MEMBER_0_MEMBER_125_1_STROKES" class="st12" d="M279.6,69.3l0.3,1"/>
	<path id="Layer1_13_MEMBER_0_MEMBER_0_MEMBER_126_1_STROKES" class="st12" d="M293.6,62.6l0.2-0.2l0.6-0.5l0.5-0.3l0.6-0.2l1.5-0.2
		"/>
	<path id="Layer1_13_MEMBER_0_MEMBER_0_MEMBER_127_1_STROKES" class="st12" d="M283.5,67l0.4,1.1"/>
	<path id="Layer1_13_MEMBER_0_MEMBER_0_MEMBER_128_1_STROKES" class="st12" d="M287,65.4l0.3,1"/>
	<path id="Layer1_13_MEMBER_0_MEMBER_0_MEMBER_129_1_STROKES" class="st12" d="M283.6,66.9l0.5-0.6l0.3-0.3l1-0.5l1.5-0.2"/>
	<path id="Layer1_13_MEMBER_0_MEMBER_0_MEMBER_130_1_STROKES" class="st12" d="M276.2,70.9l0.5,1.5"/>
	<path id="Layer1_13_MEMBER_0_MEMBER_0_MEMBER_131_1_STROKES" class="st12" d="M279.6,69.3l0.3,1"/>
	<path id="Layer1_13_MEMBER_0_MEMBER_0_MEMBER_132_1_STROKES" class="st12" d="M293.5,62.8l0.3,1"/>
	<path id="Layer1_13_MEMBER_0_MEMBER_0_MEMBER_133_1_STROKES" class="st12" d="M296.9,61.2l0.5,1.4"/>
	<path id="Layer1_13_MEMBER_0_MEMBER_0_MEMBER_134_1_STROKES" class="st12" d="M293.5,62.8l0.3,1"/>
	<path id="Layer1_13_MEMBER_0_MEMBER_0_MEMBER_135_1_STROKES" class="st12" d="M296.9,61.2l0.5,1.4"/>
	<path id="Layer1_13_MEMBER_0_MEMBER_0_MEMBER_136_1_STROKES" class="st12" d="M300.3,60.5l0.4-0.5l0.4-0.3l1-0.5l0.7-0.1l0.8,0"/>
	<path id="Layer1_13_MEMBER_0_MEMBER_0_MEMBER_137_1_STROKES" class="st12" d="M300.2,60.7l0.4,1"/>
	<path id="Layer1_13_MEMBER_0_MEMBER_0_MEMBER_138_1_STROKES" class="st12" d="M303.6,59.1l0.5,1.4"/>
	<path id="Layer1_13_MEMBER_0_MEMBER_0_MEMBER_139_1_STROKES" class="st12" d="M300.2,60.7l0.4,1"/>
	<path id="Layer1_13_MEMBER_0_MEMBER_0_MEMBER_140_1_STROKES" class="st12" d="M303.6,59.1l0.7,1.9"/>
	<path id="Layer1_13_MEMBER_0_MEMBER_0_MEMBER_141_1_STROKES" class="st12" d="M276.2,70.8l0.5-0.6l0.8-0.5l0.6-0.2l0.7-0.1l0.8,0"
		/>
	<path id="Layer1_13_MEMBER_0_MEMBER_0_MEMBER_142_1_STROKES" class="st12" d="M273.9,59.1l-0.5-0.3l-1.1-2.9l0.2-0.6l0.8-1.3
		l0.6-0.7l0.8-0.6l1-0.4l1.2-0.1l1.4,0.3"/>
	<path id="Layer1_13_MEMBER_0_MEMBER_0_MEMBER_143_1_STROKES" class="st12" d="M273.8,55.7l0.1-0.4l0.3-0.5l0.6-0.6l1-0.4"/>
	<path id="Layer1_13_MEMBER_0_MEMBER_0_MEMBER_144_1_STROKES" class="st12" d="M285.8,87.3l13.3-6.5l5.9-2.2l2.4-0.5"/>
	<path id="Layer1_13_MEMBER_0_MEMBER_0_MEMBER_145_1_STROKES" class="st12" d="M307.6,78.4l3.4-1.1"/>
	<path id="Layer1_13_MEMBER_0_MEMBER_0_MEMBER_146_1_STROKES" class="st12" d="M311.4,77.3l0.2,0.1l0.5,0.4l0.3,0.3l0.3,0.5"/>
	<path id="Layer1_13_MEMBER_0_MEMBER_0_MEMBER_147_1_STROKES" class="st12" d="M312.8,76.8h0.3l0.5,0.3l0.2,0.2l0.6,0.8"/>
	<path id="Layer1_13_MEMBER_0_MEMBER_0_MEMBER_148_1_STROKES" class="st12" d="M312.7,76.8l-1.7,0.5"/>
	<path id="Layer1_13_MEMBER_0_MEMBER_0_MEMBER_149_1_STROKES" class="st12" d="M312.7,78.6l4.3,10.9"/>
	<path id="Layer1_13_MEMBER_0_MEMBER_0_MEMBER_150_1_STROKES" class="st12" d="M317,89.5l0.5,3l-0.2,1.2l-0.2,0.4"/>
	<path id="Layer1_13_MEMBER_0_MEMBER_0_MEMBER_151_1_STROKES" class="st12" d="M314.4,78.1l4.3,10.9"/>
	<path id="Layer1_13_MEMBER_0_MEMBER_0_MEMBER_152_1_STROKES" class="st12" d="M318.7,89.1l0.4,2.1v1.3l-0.1,0.5l-0.2,0.4"/>
	<path id="Layer1_13_MEMBER_0_MEMBER_0_MEMBER_153_1_STROKES" class="st12" d="M317.1,94l1.7-0.5"/>
	<path id="Layer1_13_MEMBER_0_MEMBER_0_MEMBER_154_1_STROKES" class="st12" d="M279.8,77.3l4.6,11.2"/>
	<path id="Layer1_13_MEMBER_0_MEMBER_0_MEMBER_155_1_STROKES" class="st12" d="M283.8,88.4l-0.6,0.4l-0.3,0.2l-0.4,0.6l-0.1,0.3
		l0,0.4"/>
	<path id="Layer1_13_MEMBER_0_MEMBER_0_MEMBER_156_1_STROKES" class="st12" d="M285.7,89.9l-0.4-0.2l-0.9-0.1l-0.5,0l-1.2,0.4
		l-0.7,0.4l-0.1,0.1l-0.5,0.6l-0.6,1.3l-0.2,0.9l0,1l0.2,1.2l0.4,1.5l1.1,2l1,1.3l1.3,1"/>
	<path id="Layer1_13_MEMBER_0_MEMBER_0_MEMBER_157_1_STROKES" class="st12" d="M280.9,92.2l0.9-0.3l0.5-0.1h1.1l0.6,0.1l1.3,0.6
		l0.6,0.5"/>
	<path id="Layer1_13_MEMBER_0_MEMBER_0_MEMBER_158_1_STROKES" class="st12" d="M281.3,92l0.4-0.4l0.6-0.4l0.4-0.2l0.5-0.1l1.1,0"/>
	<path id="Layer1_13_MEMBER_0_MEMBER_0_MEMBER_159_1_STROKES" class="st12" d="M284.3,90.9l4.8,1"/>
	<path id="Layer1_13_MEMBER_0_MEMBER_0_MEMBER_160_1_STROKES" class="st12" d="M289.1,91.9l1.3,0.8l0.3,0.3l0.2,0.3l0.1,0.3"/>
	<path id="Layer1_13_MEMBER_0_MEMBER_0_MEMBER_161_1_STROKES" class="st12" d="M284.5,101.3l0.7-0.3l0.9-0.7l1-1.1l0.3-0.7l0.2-0.8
		l0.1-0.9"/>
	<path id="Layer1_13_MEMBER_0_MEMBER_0_MEMBER_162_1_STROKES" class="st12" d="M284.6,101.3l0.5,0l0.8-0.1l0.9-0.3l0.5-0.2l0.6-0.6
		l2.8-3.7"/>
	<path id="Layer1_13_MEMBER_0_MEMBER_0_MEMBER_163_1_STROKES" class="st12" d="M283.2,89.9l0.2-0.2l0.6-0.4l0.7-0.3l0.3,0"/>
	<path id="Layer1_13_MEMBER_0_MEMBER_0_MEMBER_164_1_STROKES" class="st12" d="M285.7,89.9l1-0.6l0.4-0.2"/>
	<path id="Layer1_13_MEMBER_0_MEMBER_0_MEMBER_165_1_STROKES" class="st12" d="M284.9,88.9l0.6-0.1l1.3,0.2l0.4,0.2"/>
	<path id="Layer1_13_MEMBER_0_MEMBER_0_MEMBER_166_1_STROKES" class="st12" d="M283.7,89.3l3.4-0.2"/>
	<path id="Layer1_13_MEMBER_0_MEMBER_0_MEMBER_167_1_STROKES" class="st12" d="M286.6,87.5l1.4,2.4l0.1,0.1l0.4,0.3l0.6,0.3l0.7,0.2
		l0.4,0"/>
	<path id="Layer1_13_MEMBER_0_MEMBER_0_MEMBER_168_1_STROKES" class="st12" d="M289.5,88.5l0.9,2.6v0.1l0.1,0h0.1l0.6,0.3l0.2,0.2
		l0.3,0.6l0.1,0.4"/>
	<path id="Layer1_13_MEMBER_0_MEMBER_0_MEMBER_169_1_STROKES" class="st12" d="M291,91.4l5.3-2.2h0l0.2,0l0.3,0.2l0.2,0.2l0.1,0.2
		v0.3l0,0.3"/>
	<path id="Layer1_13_MEMBER_0_MEMBER_0_MEMBER_170_1_STROKES" class="st12" d="M289.5,88.4l7.4-3.1l1.5-1.3"/>
	<path id="Layer1_13_MEMBER_0_MEMBER_0_MEMBER_171_1_STROKES" class="st12" d="M300.5,88l0.5,0.2l1.1,0.8l0.6,0.6l0.5,0.8l0.4,1
		l0.2,1.1l-0.2,1.3"/>
	<path id="Layer1_13_MEMBER_0_MEMBER_0_MEMBER_172_1_STROKES" class="st12" d="M300.4,88l-1.4-0.2h-0.3l-0.5-0.2l-0.4-0.4l-0.7-1.4"
		/>
	<path id="Layer1_13_MEMBER_0_MEMBER_0_MEMBER_173_1_STROKES" class="st12" d="M298.3,84.3l1.2,2.2"/>
	<path id="Layer1_13_MEMBER_0_MEMBER_0_MEMBER_174_1_STROKES" class="st12" d="M299.6,86.7l0.1,0.2l0.1,0.1l0.4,0.3l0.2,0.1l0.8,0.1
		l0.5,0.2l0.6,0.3l1.1,0.8l0.5,0.6l0.4,0.6l0.2,0.7l0.1,0.8"/>
	<path id="Layer1_13_MEMBER_0_MEMBER_0_MEMBER_175_1_STROKES" class="st12" d="M297.6,83.5l1.2-0.2h0.2l0.3,0.3l0.4,0.7l0.6,1.5
		l0.4,0.6l0.4,0.4h0.1l1.1,0.3l1,0.4l0.5,0.4l0.4,0.4l0.4,0.5l0.4,0.6l0.5,1.5l0,0.7l-0.1,0.7l-0.2,0.7"/>
	<path id="Layer1_13_MEMBER_0_MEMBER_0_MEMBER_176_1_STROKES" class="st12" d="M303.4,93.9l-0.2,0.5l-0.6,0.7l-0.4,0.4l-0.5,0.3
		l-0.5,0.2l-0.6,0.1h-0.2l-0.6-0.1l-0.5-0.2"/>
	<path id="Layer1_13_MEMBER_0_MEMBER_0_MEMBER_177_1_STROKES" class="st12" d="M299.7,81.9l0.3,0.8l0.2,0.3l0.6,0.6l0.4,0.2l0.4,0.2
		"/>
	<path id="Layer1_13_MEMBER_0_MEMBER_0_MEMBER_178_1_STROKES" class="st12" d="M300.8,81.2l0.1,0.2l0.4,0.9l0.6,0.6l0.4,0.2l0.4,0.2
		"/>
	<path id="Layer1_13_MEMBER_0_MEMBER_0_MEMBER_179_1_STROKES" class="st12" d="M304.6,86.9l0.7,0.6l0.8,1l0.3,0.8l0.2,0.9v1.1
		l-0.2,1.2"/>
	<path id="Layer1_13_MEMBER_0_MEMBER_0_MEMBER_180_1_STROKES" class="st12" d="M306.2,86.7l0.6,0.7l0.7,1.1l0.5,1.6l0,0.9l-0.2,1"/>
	<path id="Layer1_13_MEMBER_0_MEMBER_0_MEMBER_181_1_STROKES" class="st12" d="M304.4,91.6l0,0.2l-0.1,0.8l-0.2,0.6l-0.2,0.6
		l-0.4,0.6l-0.6,0.5l-0.7,0.4"/>
	<path id="Layer1_13_MEMBER_0_MEMBER_0_MEMBER_182_1_STROKES" class="st12" d="M305.3,93.1l-0.4,0.6l-0.6,0.6l-1,0.5l-0.7,0.2"/>
	<path id="Layer1_13_MEMBER_0_MEMBER_0_MEMBER_183_1_STROKES" class="st12" d="M302.5,84.1l2.2-1.4l1.7-0.8l0.8-0.3l0.8-0.1"/>
	<path id="Layer1_13_MEMBER_0_MEMBER_0_MEMBER_184_1_STROKES" class="st12" d="M302.1,84.6l-0.1,0.5l0.3,0.9l0.3,0.6l0,0l0,0.1
		l0.3,0.2l0.2,0.1h0.4l2.1-0.6l0.1-0.1l4.2-1.9l0.2-0.1"/>
	<path id="Layer1_13_MEMBER_0_MEMBER_0_MEMBER_185_1_STROKES" class="st12" d="M312,84.3l0.6,0.8l0.6,1l0.3,0.7l0.4,1.7"/>
	<path id="Layer1_13_MEMBER_0_MEMBER_0_MEMBER_186_1_STROKES" class="st12" d="M299.5,94.8l-5.3,2.5"/>
	<path id="Layer1_13_MEMBER_0_MEMBER_0_MEMBER_187_1_STROKES" class="st12" d="M297.3,91.1l-5,2.3"/>
	<path id="Layer1_13_MEMBER_0_MEMBER_0_MEMBER_188_1_STROKES" class="st12" d="M299.7,95.3c0.5-0.2,0.9-0.7,1-1.3
		c0.1-0.7,0.1-1.3-0.2-2c-0.3-0.7-0.8-1.2-1.3-1.5c-0.6-0.3-1.1-0.3-1.7-0.1c-0.4,0.2-0.7,0.5-0.9,1"/>
	<path id="Layer1_13_MEMBER_0_MEMBER_0_MEMBER_189_1_STROKES" class="st12" d="M298.4,95.3c0.2,0.1,0.4,0.1,0.7,0.1
		c0.2,0,0.4,0,0.6-0.1"/>
	<path id="Layer1_13_MEMBER_0_MEMBER_0_MEMBER_190_1_STROKES" class="st12" d="M301,94.6c0.5-0.2,0.9-0.7,1-1.3
		c0.2-0.6,0.1-1.3-0.2-1.9c-0.3-0.7-0.7-1.2-1.3-1.5c-0.6-0.3-1.1-0.4-1.7-0.1c-0.2,0.1-0.4,0.3-0.6,0.5"/>
	<path id="Layer1_13_MEMBER_0_MEMBER_0_MEMBER_191_1_STROKES" class="st12" d="M300.3,94.8c0.1,0,0.3,0,0.4,0
		c0.1-0.1,0.2-0.1,0.3-0.1"/>
	<path id="Layer1_13_MEMBER_0_MEMBER_0_MEMBER_192_1_STROKES" class="st12" d="M301,94.6l-1.3,0.6"/>
	<path id="Layer1_13_MEMBER_0_MEMBER_0_MEMBER_193_1_STROKES" class="st12" d="M298.8,89.7l-1.3,0.7"/>
	<path id="Layer1_13_MEMBER_0_MEMBER_0_MEMBER_194_1_STROKES" class="st12" d="M294.5,97.1l0.3,0"/>
	<path id="Layer1_13_MEMBER_0_MEMBER_0_MEMBER_195_1_STROKES" class="st12" d="M295.6,96.6c0.1,0,0.2,0,0.3,0"/>
	<path id="Layer1_13_MEMBER_0_MEMBER_0_MEMBER_196_1_STROKES" class="st12" d="M296.2,96.2c0.1,0,0.2,0,0.3,0c0.1,0,0.2-0.1,0.2-0.1
		"/>
	<path id="Layer1_13_MEMBER_0_MEMBER_0_MEMBER_197_1_STROKES" class="st12" d="M297.2,95.8c0.1,0,0.2,0,0.3,0c0.1,0,0.2-0.1,0.2-0.1
		"/>
	<path id="Layer1_13_MEMBER_0_MEMBER_0_MEMBER_198_1_STROKES" class="st12" d="M298.4,95.3c0.1,0,0.2,0,0.3,0"/>
	<path id="Layer1_13_MEMBER_0_MEMBER_0_MEMBER_199_1_STROKES" class="st13" d="M309.1,80.2c-0.1,0.4,0,0.9,0.2,1.4s0.4,0.9,0.8,1.2
		c0.3,0.3,0.7,0.4,1,0.3s0.5-0.4,0.6-0.8c0.1-0.4,0-0.9-0.2-1.5c-0.2-0.5-0.4-0.9-0.8-1.2c-0.3-0.3-0.7-0.4-1-0.3
		S309.2,79.7,309.1,80.2z"/>
	<path id="Layer1_13_MEMBER_0_MEMBER_0_MEMBER_200_1_STROKES" class="st13" d="M312.3,82.8c0.3-0.1,0.5-0.4,0.6-0.9
		c0.1-0.5,0-1-0.2-1.5c-0.2-0.6-0.4-1-0.8-1.3c-0.4-0.3-0.7-0.4-1-0.4"/>
	<path id="Layer1_13_MEMBER_0_MEMBER_0_MEMBER_201_1_STROKES" class="st13" d="M310.9,78.8l-1,0.4"/>
	<path id="Layer1_13_MEMBER_0_MEMBER_0_MEMBER_202_1_STROKES" class="st13" d="M312.2,79.4l-0.9,0.3"/>
	<path id="Layer1_13_MEMBER_0_MEMBER_0_MEMBER_203_1_STROKES" class="st13" d="M312.9,81.6l-0.9,0.3"/>
	<path id="Layer1_13_MEMBER_0_MEMBER_0_MEMBER_204_1_STROKES" class="st13" d="M309.8,79.1l0.2,0.1l0.5,0.2l0.8,0.2"/>
	<path id="Layer1_13_MEMBER_0_MEMBER_0_MEMBER_205_1_STROKES" class="st13" d="M312,81.9l-0.2,0.2l-0.4,0.5l-0.2,0.5l0,0.2"/>
	<path id="Layer1_13_MEMBER_0_MEMBER_0_MEMBER_206_1_STROKES" class="st13" d="M309.7,79.2l-0.2,0.2"/>
	<path id="Layer1_13_MEMBER_0_MEMBER_0_MEMBER_207_1_STROKES" class="st13" d="M311.2,83.2h-0.4l-0.3,0l-0.3-0.1"/>
	<path id="Layer1_13_MEMBER_0_MEMBER_0_MEMBER_208_1_STROKES" class="st13" d="M311.2,79.6c0,0.2,0,0.4,0,0.6c0,0.2,0.1,0.4,0.2,0.6
		c0.1,0.2,0.1,0.4,0.3,0.6c0.1,0.2,0.2,0.3,0.4,0.5"/>
	<path id="Layer1_13_MEMBER_0_MEMBER_0_MEMBER_209_1_STROKES" class="st13" d="M312.3,82.8l-1,0.4"/>
	<path id="Layer1_13_MEMBER_0_MEMBER_0_MEMBER_210_1_STROKES" class="st12" d="M313.7,76.6l0.3,0.1l0.8,0.5l0.4,0.4l0.4,0.5l0.3,0.7
		l0,0.8l-0.2,1"/>
	<path id="Layer1_13_MEMBER_0_MEMBER_0_MEMBER_211_1_STROKES" class="st13" d="M312.8,90.4c-0.1,0.4-0.1,0.9,0,1.5
		c0.1,0.5,0.4,1,0.7,1.3c0.3,0.3,0.6,0.4,0.9,0.4c0.3-0.1,0.5-0.3,0.6-0.8c0.1-0.4,0.1-1,0-1.5c-0.1-0.5-0.4-1-0.7-1.3
		c-0.3-0.3-0.6-0.4-0.9-0.4C313.2,89.7,313,89.9,312.8,90.4z"/>
	<path id="Layer1_13_MEMBER_0_MEMBER_0_MEMBER_212_1_STROKES" class="st13" d="M315.8,93.3c0.3-0.1,0.6-0.4,0.7-0.8
		c0.1-0.4,0.1-1,0-1.5c-0.2-0.6-0.4-1-0.7-1.4c-0.3-0.3-0.7-0.5-1-0.4"/>
	<path id="Layer1_13_MEMBER_0_MEMBER_0_MEMBER_213_1_STROKES" class="st13" d="M314.7,89.1l-1.1,0.2"/>
	<path id="Layer1_13_MEMBER_0_MEMBER_0_MEMBER_214_1_STROKES" class="st13" d="M316,89.8l-0.9,0.3"/>
	<path id="Layer1_13_MEMBER_0_MEMBER_0_MEMBER_215_1_STROKES" class="st13" d="M316.6,92.2l-0.9,0.2"/>
	<path id="Layer1_13_MEMBER_0_MEMBER_0_MEMBER_216_1_STROKES" class="st13" d="M313.8,89.5l0.5,0.3l0.8,0.3"/>
	<path id="Layer1_13_MEMBER_0_MEMBER_0_MEMBER_217_1_STROKES" class="st13" d="M315.6,92.4l-0.2,0.1l-0.4,0.4l-0.3,0.5l0,0.2"/>
	<path id="Layer1_13_MEMBER_0_MEMBER_0_MEMBER_218_1_STROKES" class="st13" d="M313.7,89.4l-0.2,0.1l-0.1,0.1l-0.2,0.2L313,90"/>
	<path id="Layer1_13_MEMBER_0_MEMBER_0_MEMBER_219_1_STROKES" class="st13" d="M314.7,93.6l-0.6-0.1l-0.3-0.2"/>
	<path id="Layer1_13_MEMBER_0_MEMBER_0_MEMBER_220_1_STROKES" class="st13" d="M315,90.1c0,0.2,0,0.4,0,0.6c0,0.2,0,0.4,0.1,0.6
		c0.1,0.2,0.1,0.4,0.2,0.6c0.1,0.2,0.2,0.4,0.3,0.5"/>
	<path id="Layer1_13_MEMBER_0_MEMBER_0_MEMBER_221_1_STROKES" class="st13" d="M315.8,93.3l-1.1,0.3"/>
	<path id="Layer1_13_MEMBER_0_MEMBER_0_MEMBER_222_1_STROKES" class="st12" d="M318.6,88l0.4,0.5l0.3,0.4l0.5,1.2l0.1,0.6l0,0.7
		l-0.2,0.7l-0.5,0.6"/>
	<path id="Layer1_13_MEMBER_0_MEMBER_0_MEMBER_223_1_STROKES" class="st12" d="M307.1,93.1l-0.9,0.9l-0.4,0.7V95l0.2,0.3l0.3,0.2
		l0.2,0.2l0.2,0.1l0.3,0l1.1-0.2"/>
	<path id="Layer1_13_MEMBER_0_MEMBER_0_MEMBER_224_1_STROKES" class="st12" d="M307.2,93l0.2-0.2l2.1-1.2l2.4-0.8"/>
	<path id="Layer1_13_MEMBER_0_MEMBER_0_MEMBER_225_1_STROKES" class="st12" d="M308.2,95.6l5.1-2"/>
	<path id="Layer1_13_MEMBER_0_MEMBER_0_MEMBER_226_1_STROKES" class="st12" d="M307,96.6l-0.2,0.8l-0.1,1.1l0.1,0.6l0.2,0.5l0.5,0.4
		l0.7,0.2h0.1l0,0l0.3-0.1l5.2-2.7"/>
	<path id="Layer1_13_MEMBER_0_MEMBER_0_MEMBER_227_1_STROKES" class="st12" d="M306.3,96l0,0.2l-0.8,2.8l-0.9,1.5L304,101l-0.6,0.2"
		/>
	<path id="Layer1_13_MEMBER_0_MEMBER_0_MEMBER_228_1_STROKES" class="st12" d="M295.2,98.3l3.2,7.1"/>
	<path id="Layer1_13_MEMBER_0_MEMBER_0_MEMBER_229_1_STROKES" class="st12" d="M296.2,97.3l3.2,7.3"/>
	<path id="Layer1_13_MEMBER_0_MEMBER_0_MEMBER_230_1_STROKES" class="st12" d="M309.1,110.6c1.1-0.5,1.7-1.4,2.1-2.7
		c0.3-1.3,0.1-2.7-0.5-4.1c-0.4-0.9-1-1.7-1.7-2.3"/>
	<path id="Layer1_13_MEMBER_0_MEMBER_0_MEMBER_231_1_STROKES" class="st12" d="M316.3,105.1c0.8-0.4,1.4-1.2,1.6-2.4
		c0.2-1.1,0.1-2.2-0.5-3.4c-0.3-0.6-0.6-1.1-1.1-1.6c-0.4-0.4-0.9-0.8-1.4-1.1"/>
	<path id="Layer1_13_MEMBER_0_MEMBER_0_MEMBER_232_1_STROKES" class="st12" d="M316.3,105.1l-5.1,2.8"/>
	<path id="Layer1_13_MEMBER_0_MEMBER_0_MEMBER_233_1_STROKES" class="st12" d="M308.9,101.4v-0.2l0.1-0.4l0.1-0.2l0.2-0.2l4.8-2.6"
		/>
	<path id="Layer1_13_MEMBER_0_MEMBER_0_MEMBER_234_1_STROKES" class="st12" d="M313.5,93.9l-0.3,2l0,0h0l0,0l0.2-0.2l0.2-0.1"/>
	<path id="Layer1_13_MEMBER_0_MEMBER_0_MEMBER_235_1_STROKES" class="st12" d="M298.3,111.5l0.2,1.4"/>
	<path id="Layer1_13_MEMBER_0_MEMBER_0_MEMBER_236_1_STROKES" class="st12" d="M284.1,102.6l2.2,4.9l0.9-1.3l0.7-0.7l0.9-0.6
		l1.1-0.4l1.3-0.1l1.5,0.3l1.7,0.8l0.5,0.4l1.1,1.2l1.3,1.8l0.4,1"/>
	<path id="Layer1_13_MEMBER_0_MEMBER_0_MEMBER_237_1_STROKES" class="st12" d="M296.1,112.6l1.4-0.4"/>
	<path id="Layer1_13_MEMBER_0_MEMBER_0_MEMBER_238_1_STROKES" class="st12" d="M286.3,107.5l3.7-1l3.1,6.7"/>
	<path id="Layer1_13_MEMBER_0_MEMBER_0_MEMBER_239_1_STROKES" class="st12" d="M290,106.3l0.2-0.4l0.1-0.2l0.2-0.2l0.5-0.4l0.3-0.1"
		/>
	<path id="Layer1_13_MEMBER_0_MEMBER_0_MEMBER_240_1_STROKES" class="st12" d="M298.4,112.8l1.1-0.4"/>
	<path id="Layer1_13_MEMBER_0_MEMBER_0_MEMBER_241_1_STROKES" class="st12" d="M300.1,111.9l1.1-0.7"/>
	<path id="Layer1_13_MEMBER_0_MEMBER_0_MEMBER_242_1_STROKES" class="st12" d="M309.5,76.8l0.3-0.2l2.1-1.2l4-1.6l5.5-1l3.1,0
		l3.4,0.5"/>
	<path id="Layer1_13_MEMBER_0_MEMBER_0_MEMBER_243_1_STROKES" class="st12" d="M328,73.3l1.5,6.7"/>
	<path id="Layer1_13_MEMBER_0_MEMBER_0_MEMBER_244_1_STROKES" class="st12" d="M329.8,81.4l1.8,7.8"/>
	<path id="Layer1_13_MEMBER_0_MEMBER_0_MEMBER_245_1_STROKES" class="st12" d="M309.4,74.6l0.5-0.5l1.4-1.2l2.7-1.4l1.8-0.6l6.5-1
		h0.8l1.9,0.2l0.9,0.4l0.8,0.6l0.6,0.7"/>
	<path id="Layer1_13_MEMBER_0_MEMBER_0_MEMBER_246_1_STROKES" class="st12" d="M310.1,75.3V75l0-0.1l0.4-0.6l1.2-1l2.3-1.1l3.8-1
		l0.6-0.1l4.4-0.2l2.6,0.4l1.1,0.4"/>
	<path id="Layer1_13_MEMBER_0_MEMBER_0_MEMBER_247_1_STROKES" class="st12" d="M314.3,76.1l5.9-2.5"/>
	<path id="Layer1_13_MEMBER_0_MEMBER_0_MEMBER_248_1_STROKES" class="st12" d="M320.3,73.5l0.2-0.2l0.2-0.1l0.3-0.1h0.4l0.4,0.1
		l0.6,0.2"/>
	<path id="Layer1_13_MEMBER_0_MEMBER_0_MEMBER_249_1_STROKES" class="st12" d="M315.7,77.1l7.1-2.9"/>
	<path id="Layer1_13_MEMBER_0_MEMBER_0_MEMBER_250_1_STROKES" class="st12" d="M317.6,85.2l12.1-5.3"/>
	<path id="Layer1_13_MEMBER_0_MEMBER_0_MEMBER_251_1_STROKES" class="st12" d="M317.9,86.9l1.8-1l9.1-4.2l1.4-0.4"/>
	<path id="Layer1_13_MEMBER_0_MEMBER_0_MEMBER_252_1_STROKES" class="st12" d="M330,80.1l0.3,0.3l0.1,0.4l-0.1,0.3l-0.2,0.3"/>
	<path id="Layer1_13_MEMBER_0_MEMBER_0_MEMBER_253_1_STROKES" class="st12" d="M318.9,93.6l0.3,0.2l0.6,0.2l0.8,0.2l2.6,0.1l3.9-0.8
		l3.1-1.1l0.7-0.4l0.6-0.6l0.2-0.4l0.1-0.4l0-0.1l-0.3-0.4l-0.3-0.3l-0.4-0.3l-0.5-0.3l-0.8-0.2l-0.9-0.1l-6.2,0.6l-0.8,0.2
		l-0.6,0.2"/>
	<path id="Layer1_13_MEMBER_0_MEMBER_0_MEMBER_254_1_STROKES" class="st12" d="M320.6,91.6l0.2-0.1l5.2-1l4.7-0.1"/>
	<path id="Layer1_13_MEMBER_0_MEMBER_0_MEMBER_255_1_STROKES" class="st12" d="M319.9,93.1l3.4-0.9l1.3-0.2l0.5,0.1"/>
	<path id="Layer1_13_MEMBER_0_MEMBER_0_MEMBER_256_1_STROKES" class="st12" d="M335.2,80.1c0.8-0.3,1.3-1,1.5-2
		c0.2-1,0.1-1.9-0.4-2.9c-0.4-1-1.1-1.7-2-2.2c-0.9-0.5-1.7-0.5-2.5-0.2"/>
	<path id="Layer1_13_MEMBER_0_MEMBER_0_MEMBER_257_1_STROKES" class="st12" d="M334.8,80.2l0.4-0.2"/>
	<path id="Layer1_13_MEMBER_0_MEMBER_0_MEMBER_258_1_STROKES" class="st12" d="M329.9,82l5.3-1.9"/>
	<path id="Layer1_13_MEMBER_0_MEMBER_0_MEMBER_259_1_STROKES" class="st12" d="M328.1,74.1l3.7-1.3"/>
	<path id="Layer1_13_MEMBER_0_MEMBER_0_MEMBER_260_1_STROKES" class="st12" d="M335.5,80.8c0.9-0.4,1.5-1.2,1.8-2.4
		c0.3-1.1,0.1-2.3-0.4-3.5c-0.6-1.2-1.4-2.1-2.4-2.7c-1-0.6-2-0.6-2.9-0.2c-0.6,0.2-1,0.7-1.4,1.3"/>
	<path id="Layer1_13_MEMBER_0_MEMBER_0_MEMBER_261_1_STROKES" class="st12" d="M333,80.8c0.4,0.2,0.8,0.2,1.2,0.2
		c0.4,0,0.8-0.1,1.2-0.2"/>
	<path id="Layer1_13_MEMBER_0_MEMBER_0_MEMBER_262_1_STROKES" class="st12" d="M337,80.9c1.1-0.5,1.8-1.4,2.1-2.8
		c0.3-1.3,0.1-2.7-0.5-4.1c-0.7-1.4-1.6-2.5-2.8-3.1c-1.2-0.6-2.4-0.7-3.4-0.2c-0.7,0.3-1.2,0.8-1.6,1.5"/>
	<path id="Layer1_13_MEMBER_0_MEMBER_0_MEMBER_263_1_STROKES" class="st12" d="M334.6,81c0.4,0.1,0.8,0.2,1.3,0.2
		c0.4,0,0.8-0.1,1.2-0.3"/>
	<path id="Layer1_13_MEMBER_0_MEMBER_0_MEMBER_264_1_STROKES" class="st12" d="M334,72.1l1.5-0.1l0.1,0h0l0,0l0.6-0.3l0.2,0l0.3-0.2
		"/>
	<path id="Layer1_13_MEMBER_0_MEMBER_0_MEMBER_265_1_STROKES" class="st12" d="M337.5,76.8l0.5,1.5h0l0.1,0l1.1-0.3"/>
	<path id="Layer1_13_MEMBER_0_MEMBER_0_MEMBER_266_1_STROKES" class="st12" d="M335.6,72.3l0.6,1.5"/>
	<path id="Layer1_13_MEMBER_0_MEMBER_0_MEMBER_267_1_STROKES" class="st12" d="M337.8,78.4l-0.7,0.7"/>
	<path id="Layer1_13_MEMBER_0_MEMBER_0_MEMBER_268_1_STROKES" class="st4" d="M305.1,106.5l-4.8,2.7"/>
	<path id="Layer1_13_MEMBER_0_MEMBER_0_MEMBER_269_1_STROKES" class="st4" d="M299.1,109.9l-1.2,0.7"/>
	<path id="Layer1_13_MEMBER_0_MEMBER_0_MEMBER_270_1_STROKES" class="st4" d="M296.7,111.2l-4.8,2.7"/>
	<path id="Layer1_13_MEMBER_0_MEMBER_0_MEMBER_271_1_STROKES" class="st10" d="M302.3,108.7c0.5,0.7,1,1.2,1.6,1.5
		c0.6,0.3,1.1,0.3,1.5,0.1c0.4-0.3,0.7-0.8,0.7-1.5c0-0.7-0.2-1.5-0.7-2.3c-0.5-0.8-1-1.4-1.7-1.8c-0.7-0.4-1.2-0.4-1.7-0.2
		c-0.4,0.3-0.6,0.7-0.7,1.3c0,0.7,0.1,1.4,0.5,2.1"/>
	<path id="Layer1_13_MEMBER_0_MEMBER_0_MEMBER_272_1_STROKES" class="st10" d="M301.6,109.2c0.7,1,1.5,1.8,2.3,2.2
		c0.9,0.4,1.7,0.5,2.3,0.1c0.7-0.4,1-1.1,1-2.3c0-1.1-0.4-2.2-1.1-3.4c-0.7-1.2-1.5-2-2.4-2.6c-1-0.6-1.8-0.6-2.5-0.2
		c-0.6,0.3-0.9,1-1,2c-0.1,1,0.2,2,0.8,3.1"/>
	<path id="Layer1_13_MEMBER_0_MEMBER_0_MEMBER_273_1_STROKES" class="st10" d="M307.2,111c0.6-0.4,0.9-1.2,0.9-2.3
		c0-1.1-0.3-2.2-1-3.3c-0.7-1.2-1.5-2.1-2.5-2.6c-1-0.6-1.8-0.6-2.5-0.2"/>
	<path id="Layer1_13_MEMBER_0_MEMBER_0_MEMBER_274_1_STROKES" class="st10" d="M306.7,111.6c0.6,0.1,1.1,0.1,1.6-0.2
		c0.8-0.4,1.2-1.3,1.2-2.6c0-1.3-0.4-2.6-1.2-4c-0.8-1.4-1.7-2.4-2.9-3c-1.1-0.7-2.1-0.8-2.9-0.3c-0.4,0.2-0.7,0.6-1,1.2"/>
	<path id="Layer1_13_MEMBER_0_MEMBER_0_MEMBER_275_1_STROKES" class="st10" d="M303.1,108.2l0.3,0.4l0.7,0.7l0.8,0.4l0.4,0.1"/>
	<path id="Layer1_13_MEMBER_0_MEMBER_0_MEMBER_276_1_STROKES" class="st10" d="M302.2,104.7l-0.1,0.7l0.1,0.9l0.4,1.1"/>
	<path id="Layer1_13_MEMBER_0_MEMBER_0_MEMBER_277_1_STROKES" class="st10" d="M304.1,107.6l0.6,0.8l0.8,0.6l0.3,0.2"/>
	<path id="Layer1_13_MEMBER_0_MEMBER_0_MEMBER_278_1_STROKES" class="st10" d="M303.1,104.8l0.1,0.9l0.1,0.5l0.3,0.6"/>
	<path id="Layer1_13_MEMBER_0_MEMBER_0_MEMBER_279_1_STROKES" class="st10" d="M287.5,96.1c-0.3-0.2-0.5-0.4-0.8-0.8
		c-0.2-0.3-0.3-0.7-0.3-1c0-0.3,0.1-0.6,0.3-0.7c0.2-0.1,0.5-0.1,0.8,0.1c0.3,0.2,0.5,0.4,0.7,0.8c0.2,0.3,0.3,0.7,0.3,1
		c0,0.4-0.1,0.6-0.3,0.7C288,96.3,287.8,96.3,287.5,96.1z"/>
	<path id="Layer1_13_MEMBER_0_MEMBER_0_MEMBER_280_1_STROKES" class="st10" d="M287.5,93.4c0.4,0.2,0.7,0.5,0.9,1
		c0.3,0.5,0.4,0.9,0.4,1.3c0,0.4-0.1,0.7-0.4,0.9c-0.2,0.2-0.5,0.1-0.9-0.1c-0.4-0.2-0.7-0.5-0.9-1c-0.3-0.4-0.4-0.9-0.4-1.3
		c0-0.4,0.1-0.7,0.4-0.9C286.8,93.1,287.1,93.2,287.5,93.4z"/>
	<path id="Layer1_13_MEMBER_0_MEMBER_0_MEMBER_281_1_STROKES" class="st10" d="M290,95.7c0.3-0.2,0.4-0.4,0.4-0.9
		c0-0.4-0.1-0.9-0.4-1.3c-0.2-0.4-0.5-0.7-0.9-1c-0.3-0.2-0.6-0.3-0.9-0.2"/>
	<path id="Layer1_13_MEMBER_0_MEMBER_0_MEMBER_282_1_STROKES" class="st10" d="M288.2,92.4l-1.7,0.9"/>
	<path id="Layer1_13_MEMBER_0_MEMBER_0_MEMBER_283_1_STROKES" class="st10" d="M290.1,95.6l-1.7,1"/>
	<path id="Layer1_13_MEMBER_0_MEMBER_0_MEMBER_284_1_STROKES" class="st10" d="M292.8,93.9c-0.4-0.2-0.8-0.3-1.1-0.1
		c-0.3,0.2-0.4,0.5-0.4,1c0,0.5,0.1,1,0.4,1.5c0.3,0.5,0.7,0.9,1.1,1.1c0.4,0.2,0.8,0.3,1.1,0.1c0.3-0.2,0.5-0.5,0.5-1
		c0-0.5-0.2-1-0.5-1.5C293.6,94.5,293.2,94.1,292.8,93.9z"/>
	<path id="Layer1_13_MEMBER_0_MEMBER_0_MEMBER_285_1_STROKES" class="st10" d="M294.9,97c0.3-0.2,0.4-0.5,0.4-1c0-0.5-0.1-1-0.4-1.5
		c-0.3-0.5-0.6-0.9-1-1.1c-0.4-0.2-0.7-0.3-1-0.2"/>
	<path id="Layer1_13_MEMBER_0_MEMBER_0_MEMBER_286_1_STROKES" class="st10" d="M295.8,96.6c0.3-0.2,0.4-0.5,0.4-1
		c0-0.5-0.1-1-0.4-1.5c-0.3-0.5-0.6-0.8-1-1.1c-0.4-0.3-0.8-0.3-1.1-0.2"/>
	<path id="Layer1_13_MEMBER_0_MEMBER_0_MEMBER_287_1_STROKES" class="st10" d="M296.8,96.2c0.3-0.2,0.5-0.5,0.5-1
		c0-0.5-0.2-1-0.5-1.5c-0.3-0.5-0.6-0.8-1-1.1c-0.4-0.3-0.8-0.3-1.1-0.2"/>
	<path id="Layer1_13_MEMBER_0_MEMBER_0_MEMBER_288_1_STROKES" class="st10" d="M297.6,95.8c0.3-0.2,0.5-0.5,0.5-1
		c0-0.5-0.2-1-0.5-1.5c-0.3-0.5-0.6-0.8-1-1.1s-0.8-0.3-1.1-0.2"/>
	<path id="Layer1_13_MEMBER_0_MEMBER_0_MEMBER_289_1_STROKES" class="st10" d="M298.5,95.3c0.3-0.2,0.5-0.5,0.5-1
		c0-0.5-0.2-1-0.5-1.5c-0.3-0.5-0.6-0.9-1-1.1s-0.7-0.3-1-0.2"/>
	<path id="Layer1_13_MEMBER_0_MEMBER_0_MEMBER_290_1_STROKES" class="st10" d="M299.2,95c0.3-0.2,0.5-0.5,0.5-1c0-0.5-0.1-1-0.4-1.5
		c-0.3-0.5-0.6-0.8-1-1.1c-0.4-0.3-0.8-0.3-1.1-0.2"/>
</g>
<text transform="matrix(1 0 0 1 3.1121 57.1444)" class="st14 st15">CABIN</text>
<text transform="matrix(1 0 0 1 11.9838 78.3629)" class="st14 st16">2100-P17</text>
<path id="Layer1_12_MEMBER_1_1_STROKES_2_" class="st17" d="M3.1,61.2h77v24.3h-77V61.2z"/>
<rect x="171.3" y="32.5" class="st18" width="59.5" height="41.9"/>
<text transform="matrix(1 0 0 1 174.5101 44.0383)" class="st14 st19">FLIGHT COMP</text>
<text transform="matrix(1 0 0 1 182.411 63.1696)" class="st14 st16">2100-P15</text>
<path id="Layer1_12_MEMBER_1_1_STROKES_1_" class="st17" d="M174.2,47.9h77v24.3h-77V47.9z"/>
</svg>
