<?xml version="1.0" encoding="iso-8859-1"?>
<!-- Generator: Adobe Illustrator 25.0.0, SVG Export Plug-In . SVG Version: 6.00 Build 0)  -->
<svg version="1.1" id="fuselage-rh" xmlns="http://www.w3.org/2000/svg" xmlns:xlink="http://www.w3.org/1999/xlink" x="0px"
	 y="0px" width="842px" height="396.9px" viewBox="0 0 842 396.9" style="enable-background:new 0 0 842 396.9;"
	 xml:space="preserve">
<g id="clp-hintergrund">
	<path style="fill-rule:evenodd;clip-rule:evenodd;fill:#CCCCCC;" d="M569.2,159h23.2v84.9h-51.9V159H569.2l0.3,0.8L569.2,159z
		 M480.7,170h18.8v17.5h-18.8V170z M675.4,174.5c1.5,0.2,2.8,0.8,3.8,1.8s1.5,2.1,1.8,3.4v43.7c-0.2,1.4-0.8,2.7-1.8,3.7
		s-2.3,1.5-3.7,1.7h-10.2c-1.3-0.2-2.4-0.8-3.3-1.8c-1-1-1.6-2.2-1.7-3.7v-43.5c0.2-1.3,0.7-2.5,1.7-3.4c1.1-1,2.3-1.6,3.8-1.8
		L675.4,174.5L675.4,174.5z M718.7,174.8l-0.2,0.5L718.7,174.8h7.7c1.5,0.1,2.8,0.7,3.8,1.8c0.9,0.9,1.5,2,1.7,3.3
		c0,0.1,0.1,0.2,0.1,0.3v43.3c-0.2,1.4-0.8,2.7-1.8,3.7s-2.3,1.6-3.7,1.8h-14.8c-1.5-0.2-2.8-0.8-3.8-1.8s-1.6-2.2-1.7-3.7v-43.7
		c0.2-1.3,0.7-2.4,1.7-3.3c1.1-1,2.3-1.6,3.8-1.8L718.7,174.8L718.7,174.8z M778.6,239.6h-11.8v-8.8h11.8V239.6z M747,239.7h-3.5
		V231h11.7v8.7L747,239.7z M423.9,192.2v-22.1h28v22.1h-5.3H423.9z"/>
	<path style="fill-rule:evenodd;clip-rule:evenodd;fill:#CCCCCC;" d="M412.3,192.2l-0.1-0.4L412.3,192.2h-16.4v-22.1h28v22.1H412.3z
		 M378.1,191.8l-0.2,0.5L378.1,191.8z M378,192.2h-10.4V170h28v22.2H378L378,192.2z M353.3,192.2l0.6-0.4L353.3,192.2h-13.7v-22.1
		h28v22.1H353.3z M311.5,162.2l-2-1v-0.6l16.8-3.1l6.6-1.2v5.3h0.1l-0.1,16.2l-23.4,0.2v-16.7L311.5,162.2L311.5,162.2z
		 M203.8,224.4h155.4L340,235.2c-2.5,1.4-5.5,2.2-8.9,2.3l-123.4-0.8c-1,0-2-0.3-2.8-1c-0.7-0.8-1.1-1.7-1.1-2.8L203.8,224.4
		L203.8,224.4z M190.3,233.2l-0.1,0.2L190.3,233.2z M190.2,233.5h-1.5v-8.8h11.8v8.8H190.2z M127.8,231.7l0.1-0.4L127.8,231.7h-0.2
		c-1.4-0.2-2.6-0.8-3.6-1.8s-1.6-2.2-1.7-3.7v-44.7c0.1-1.4,0.7-2.6,1.8-3.6c1-1,2.3-1.6,3.7-1.8H140c1.4,0.2,2.6,0.8,3.6,1.8
		s1.6,2.3,1.7,3.7v44.6c-0.1,1.4-0.7,2.7-1.8,3.7s-2.3,1.6-3.7,1.7L127.8,231.7L127.8,231.7z"/>
	<path style="fill-rule:evenodd;clip-rule:evenodd;fill:#CCCCCC;" d="M343.1,150.6l-4.7,5.7L343.1,150.6h0.4c1.3-0.1,2.7-0.2,4-0.3
		l42.4-2.4c1.3,0,2.1,0.1,2.6,0.2c-9.1,1.7-18.1,3.6-26.9,5.5l-24.1,5.2l-7.1,2.2h1c-0.8,0.2-1.6,0.4-2.5,0.6v-5.3h-0.1l-6.6,1.2
		v-4.9l15-1.8C341.9,150.7,342.5,150.6,343.1,150.6L343.1,150.6z"/>
</g>
<g id="clp-fwd-bagg-door">
	<path id="clp-fwd-bagg-door-hl" style="fill:none;" d="M718.7,174.8l-0.2,0.5L718.7,174.8h7.7c1.5,0.1,2.8,0.7,3.8,1.8
		c0.9,0.9,1.5,2,1.7,3.3c0,0.1,0.1,0.2,0.1,0.3v43.3c-0.2,1.4-0.8,2.7-1.8,3.7s-2.3,1.6-3.7,1.8h-14.8c-1.5-0.2-2.8-0.8-3.8-1.8
		s-1.6-2.2-1.7-3.7v-43.7c0.2-1.3,0.7-2.4,1.7-3.3c1.1-1,2.3-1.6,3.8-1.8L718.7,174.8L718.7,174.8z M792,151.8h-53.5
		c-2.5,0-4.5-2-4.5-4.5v-36c0-2.5,2-4.5,4.5-4.5H792c2.5,0,4.5,2,4.5,4.5v36C796.5,149.8,794.5,151.8,792,151.8z"/>
</g>
<g id="clp-ereg-exit-door">
	<path id="clp-ereg-exit-door-hl" style="fill:none;" d="M675.4,174.5c1.5,0.2,2.8,0.8,3.8,1.8s1.5,2.1,1.8,3.4v43.7
		c-0.2,1.4-0.8,2.7-1.8,3.7s-2.3,1.5-3.7,1.7h-10.2c-1.3-0.2-2.4-0.8-3.3-1.8c-1-1-1.6-2.2-1.7-3.7v-43.5c0.2-1.3,0.7-2.5,1.7-3.4
		c1.1-1,2.3-1.6,3.8-1.8L675.4,174.5L675.4,174.5z M712.8,132.4h-57.5c-2.5,0-4.5-2-4.5-4.5v-38c0-2.5,2-4.5,4.5-4.5h57.5
		c2.5,0,4.5,2,4.5,4.5v38C717.3,130.4,715.2,132.4,712.8,132.4z"/>
</g>
<g id="clp-eng-insp-lt">
	<path id="clp-eng-insp-lt-hl" style="fill:none;" d="M630.2,151.7c3.5,0,6.6,1.2,9.1,3.8c2.5,2.5,3.8,5.6,3.8,9.1s-1.3,6.6-3.8,9.1
		c-2.5,2.6-5.5,3.8-9,3.8s-6.6-1.3-9.1-3.8s-3.8-5.5-3.8-9.1s1.2-6.6,3.8-9.1C623.7,153,626.7,151.8,630.2,151.7z M750.1,70.9h-93.5
		c-2.5,0-4.5-2-4.5-4.5v-24c0-2.5,2-4.5,4.5-4.5h93.5c2.5,0,4.5,2,4.5,4.5v24C754.6,68.8,752.6,70.9,750.1,70.9z"/>
</g>
<g id="clp-gnd-recog-lt">
	<path id="clp-gnd-recog-lt-hl" style="fill:none;" d="M601.6,142.5c3.6,0,6.6,1.2,9.1,3.8c2.5,2.5,3.8,5.6,3.8,9.2
		c0,3.5-1.3,6.5-3.8,9c-2.5,2.6-5.5,3.8-9,3.8s-6.6-1.3-9.2-3.8c-2.5-2.5-3.8-5.5-3.8-9c0-3.6,1.2-6.6,3.8-9.2
		c2.5-2.5,5.5-3.7,9-3.8H601.6L601.6,142.5z M587.5,75.6H496c-2.5,0-4.5-2-4.5-4.5v-26c0-2.5,2-4.5,4.5-4.5h91.5
		c2.5,0,4.5,2,4.5,4.5v26C592,73.6,590,75.6,587.5,75.6z"/>
</g>
<g id="clp-rh-ice-shield">
	<path id="clp-rh-ice-shield-hl" style="fill:none;" d="M569.2,159h23.2v84.9h-51.9V159H569.2l0.3,0.8L569.2,159z"/>
</g>
<g id="clp-261mr">
	<path id="clp-261mr-hl" style="fill:none;" d="M480.7,170h18.8v17.5h-18.8V170z M502.6,119.3H451c-2.5,0-4.5-2-4.5-4.5v-16
		c0-2.5,2-4.5,4.5-4.5h51.5c2.5,0,4.5,2,4.5,4.5v16C507.1,117.3,505,119.3,502.6,119.3L502.6,119.3z"/>
</g>
<g id="clp-266ar">
	<path id="clp-266ar-hl" style="fill:none;" d="M343.1,150.6l-4.7,5.7L343.1,150.6h0.4c1.3-0.1,2.7-0.2,4-0.3l42.4-2.4
		c1.3,0,2.1,0.1,2.6,0.2c-9.1,1.7-18.1,3.6-26.9,5.5l-24.1,5.2l-7.1,2.2h1c-0.8,0.2-1.6,0.4-2.5,0.6v-5.3h-0.1l-6.6,1.2v-4.9l15-1.8
		C341.9,150.7,342.5,150.6,343.1,150.6L343.1,150.6z M388.8,131.3h-51.5c-2.5,0-4.5-2-4.5-4.5v-16c0-2.5,2-4.5,4.5-4.5h51.5
		c2.5,0,4.5,2,4.5,4.5v16C393.3,129.3,391.3,131.3,388.8,131.3z"/>
</g>
<g id="clp-262nr">
	<path id="clp-262nr-hl" style="fill:none;" d="M311.5,162.2l-2-1v-0.6l16.8-3.1l6.6-1.2v5.3h0.1l-0.1,16.2l-23.4,0.2v-16.7
		L311.5,162.2L311.5,162.2z M289.7,139.3h-51.5c-2.5,0-4.5-2-4.5-4.5v-16c0-2.5,2-4.5,4.5-4.5h51.5c2.5,0,4.5,2,4.5,4.5v16
		C294.2,137.2,292.2,139.3,289.7,139.3z"/>
</g>
<g id="clp-aft-svc-door">
	<path id="clp-aft-svc-door-hl" style="fill:none;" d="M127.8,231.7l0.1-0.4L127.8,231.7h-0.2c-1.4-0.2-2.6-0.8-3.6-1.8
		s-1.6-2.2-1.7-3.7v-44.7c0.1-1.4,0.7-2.6,1.8-3.6c1-1,2.3-1.6,3.7-1.8H140c1.4,0.2,2.6,0.8,3.6,1.8s1.6,2.3,1.7,3.7v44.6
		c-0.1,1.4-0.7,2.7-1.8,3.7s-2.3,1.6-3.7,1.7L127.8,231.7L127.8,231.7z M137.8,329.5H87.3c-2.5,0-4.5-2-4.5-4.5v-38
		c0-2.5,2-4.5,4.5-4.5h50.5c2.5,0,4.5,2,4.5,4.5v38C142.3,327.5,140.3,329.5,137.8,329.5z"/>
</g>
<g id="clp-142ar">
	<path id="clp-142ar-hl" style="fill:none;" d="M190.3,233.2l-0.1,0.2L190.3,233.2z M190.2,233.5h-1.5v-8.8h11.8v8.8H190.2z
		 M203.3,281.2h-51.5c-2.5,0-4.5-2-4.5-4.5v-16c0-2.5,2-4.5,4.5-4.5h51.5c2.5,0,4.5,2,4.5,4.5v16
		C207.8,279.2,205.8,281.2,203.3,281.2z"/>
</g>
<g id="clp-strakes">
	<path id="clp-strakes-hl" style="fill:none;" d="M203.8,224.4h155.4L340,235.2c-2.5,1.4-5.5,2.2-8.9,2.3l-123.4-0.8
		c-1,0-2-0.3-2.8-1c-0.7-0.8-1.1-1.7-1.1-2.8L203.8,224.4L203.8,224.4z M258.9,213.1h-81.5c-2.5,0-4.5-2-4.5-4.5v-16
		c0-2.5,2-4.5,4.5-4.5h81.5c2.5,0,4.5,2,4.5,4.5v16C263.4,211.1,261.4,213.1,258.9,213.1z"/>
</g>
<g id="clp-264dr">
	<path id="clp-264dr-hl" style="fill:none;" d="M353.3,192.2l0.6-0.4L353.3,192.2h-13.7v-22.1h28v22.1H353.3z M296.4,280.6h-51.5
		c-2.5,0-4.5-2-4.5-4.5v-16c0-2.5,2-4.5,4.5-4.5h51.5c2.5,0,4.5,2,4.5,4.5v16C300.9,278.6,298.9,280.6,296.4,280.6z"/>
</g>
<g id="clp-264cr">
	<path id="clp-264cr-hl" style="fill:none;" d="M378.1,191.8l-0.2,0.5L378.1,191.8z M378,192.2h-10.4V170h28v22.2H378z M368.6,302.9
		H317c-2.5,0-4.5-2-4.5-4.5v-16c0-2.5,2-4.5,4.5-4.5h51.5c2.5,0,4.5,2,4.5,4.5v16C373,300.8,371,302.9,368.6,302.9z"/>
</g>
<g id="clp-264br">
	<path id="clp-264br-hl" style="fill:none;" d="M412.3,192.2l-0.1-0.4L412.3,192.2h-16.4v-22.1h28v22.1H412.3z M443.4,310.5h-51.5
		c-2.5,0-4.5-2-4.5-4.5v-16c0-2.5,2-4.5,4.5-4.5h51.5c2.5,0,4.5,2,4.5,4.5v16C447.9,308.5,445.8,310.5,443.4,310.5z"/>
</g>
<g id="clp-264ar">
	<path id="clp-264ar-hl" style="fill:none;" d="M423.9,192.2v-22.1h28v22.1H423.9z M498.6,284.6H447c-2.5,0-4.5-2-4.5-4.5v-16
		c0-2.5,2-4.5,4.5-4.5h51.5c2.5,0,4.5,2,4.5,4.5v16C503.1,282.6,501.1,284.6,498.6,284.6z"/>
</g>
<g id="clp-anti-coll-lt">
	<path id="clp-anti-coll-lt-hl" style="fill:none;" d="M509.5,253.8c-0.4,0.4-0.7,0.9-1.2,1.3c-2.5,2.6-5.5,3.8-9,3.8
		s-6.6-1.3-9.2-3.8c-2.5-2.5-3.8-5.5-3.8-9.1s1.2-6.6,3.8-9.1c2.5-2.5,5.5-3.7,9-3.8h0.2c3.5,0,6.5,1.2,9,3.8
		c2.5,2.5,3.8,5.6,3.8,9.1C512.1,249,511.2,251.6,509.5,253.8L509.5,253.8z M613.4,289.6h-77.2c-2.5,0-4.5-2-4.5-4.5v-34.4
		c0-2.5,2-4.5,4.5-4.5h77.2c2.5,0,4.5,2,4.5,4.5v34.4C617.9,287.6,615.9,289.6,613.4,289.6z"/>
</g>
<g id="clp-emerg-ext-lt">
	<path id="clp-emerg-ext-lt-hl" style="fill:none;" d="M103.4,229.4c-1.9-2-2.8-4.3-2.8-7.1c0-2.9,1-5.4,3.1-7.5
		c2.1-2,4.6-3.1,7.4-3.1h0.2c2.9,0,5.4,1,7.4,3.1c2.1,2.1,3.1,4.6,3.1,7.5s-1.1,5.4-3.1,7.5c-2.1,2.1-4.6,3.2-7.4,3.2
		c-2.9,0-5.4-1.1-7.6-3.2C103.6,229.6,103.5,229.5,103.4,229.4L103.4,229.4z M73.3,284.3H8.8c-2.5,0-4.5-2-4.5-4.5v-26
		c0-2.5,2-4.5,4.5-4.5h64.5c2.5,0,4.5,2,4.5,4.5v26C77.8,282.2,75.8,284.3,73.3,284.3L73.3,284.3z M646.8,235.2
		c-3.5,0-6.5-1.3-9.1-3.9c-2.5-2.5-3.8-5.5-3.8-9c0-3.6,1.2-6.6,3.8-9.2c2.5-2.5,5.5-3.7,8.9-3.8h0.2c3.5,0,6.5,1.2,9,3.8
		c2.5,2.5,3.8,5.6,3.8,9.2c0,3.5-1.3,6.5-3.8,9C653.3,233.9,650.3,235.2,646.8,235.2L646.8,235.2z M738.7,333.2h-63.5
		c-2.5,0-4.5-2-4.5-4.5v-21c0-2.5,2-4.5,4.5-4.5h63.5c2.5,0,4.5,2,4.5,4.5v21C743.2,331.2,741.2,333.2,738.7,333.2z"/>
</g>
<g id="clp-134ar">
	<path id="clp-134ar-hl" style="fill:none;" d="M747,239.7h-3.5V231h11.7v8.7H747z M763.3,291.8h-51.5c-2.5,0-4.5-2-4.5-4.5v-16
		c0-2.5,2-4.5,4.5-4.5h51.5c2.5,0,4.5,2,4.5,4.5v16C767.8,289.8,765.8,291.8,763.3,291.8z"/>
</g>
<g id="clp-134br">
	<path id="clp-134br-hl" style="fill:none;" d="M778.6,239.6h-11.8v-8.8h11.8V239.6z M828.9,284.2h-51.5c-2.5,0-4.5-2-4.5-4.5v-16
		c0-2.5,2-4.5,4.5-4.5h51.5c2.5,0,4.5,2,4.5,4.5v16C833.4,282.2,831.4,284.2,828.9,284.2z"/>
</g>
<g id="clp-system">
	<path style="fill:none;stroke:#000000;stroke-width:0.25;stroke-linecap:round;stroke-linejoin:round;stroke-miterlimit:3;" d="
		M480.8,116.7l9.5,53"/>
	<text transform="matrix(1.2824 0 0 1 449.0938 111.9171)" style="font-family:'Tahoma'; font-size:14.1849px;">261MR</text>
	<path style="fill:none;stroke:#000000;stroke-width:0.25;stroke-linecap:round;stroke-linejoin:round;stroke-miterlimit:3;" d="
		M670.6,174.3l12.4-41.4 M731,176l-0.5,0.3 M763.4,150L731,176 M773.4,239.6l27.6,23"/>
	<text transform="matrix(1.2831 0 0 1 776.0918 277.0182)" style="font-family:'Tahoma'; font-size:14.1849px;">134BR</text>
	<path style="fill:none;stroke:#000000;stroke-width:0.25;stroke-linecap:round;stroke-linejoin:round;stroke-miterlimit:3;" d="
		M747,239.7l-9.8,28"/>
	<text transform="matrix(1.2831 0 0 1 710.5898 283.6671)" style="font-family:'Tahoma'; font-size:14.1849px;">134AR</text>
	<path style="fill:none;stroke:#000000;stroke-width:0.25;stroke-linecap:round;stroke-linejoin:round;stroke-miterlimit:3;" d="
		M473,263l-26.4-70.8"/>
	<text transform="matrix(1.2831 0 0 1 447.8418 277.4679)" style="font-family:'Tahoma'; font-size:14.1849px;">264AR</text>
	<path style="fill:none;stroke:#000000;stroke-width:0.25;stroke-linecap:round;stroke-linejoin:round;stroke-miterlimit:3;" d="
		M412.3,192.2v-0.4 M417.4,289.2l-5.1-97"/>
	<text transform="matrix(1.2831 0 0 1 391.1396 303.7682)" style="font-family:'Tahoma'; font-size:14.1849px;">264BR</text>
	<path style="fill:none;stroke:#000000;stroke-width:0.25;stroke-linecap:round;stroke-linejoin:round;stroke-miterlimit:3;" d="
		M378.1,191.8l-0.1,0.4l-33.8,88.6"/>
	<text transform="matrix(1.2824 0 0 1 316.6426 295.7682)" style="font-family:'Tahoma'; font-size:14.1849px;">264CR</text>
	<path style="fill:none;stroke:#000000;stroke-width:0.25;stroke-linecap:round;stroke-linejoin:round;stroke-miterlimit:3;" d="
		M353.3,192.2l0.5-0.5 M353.3,192.2l-82.2,66.5"/>
	<text transform="matrix(1.2824 0 0 1 243.5928 273.567)" style="font-family:'Tahoma'; font-size:14.1849px;">264DR</text>
	<path style="fill:none;stroke:#000000;stroke-width:0.3;stroke-linecap:round;stroke-linejoin:round;stroke-miterlimit:3;" d="
		M343.1,150.6l-4.7,5.7 M360.1,130l-17,20.6"/>
	<text transform="matrix(1.2831 0 0 1 336.1895 123.7179)" style="font-family:'Tahoma'; font-size:14.1849px;">266AR</text>
	<path style="fill:none;stroke:#000000;stroke-width:0.25;stroke-linecap:round;stroke-linejoin:round;stroke-miterlimit:3;" d="
		M309.5,161.2l-45-23.7 M311.5,162.2l-2-1"/>
	<text transform="matrix(1.2824 0 0 1 237.6919 131.3678)" style="font-family:'Tahoma'; font-size:14.1849px;">262NR</text>
	<path style="fill:none;stroke:#1A181B;stroke-width:0.55;stroke-miterlimit:5;" d="M217,210.7l24.9,13.3"/>
	<text transform="matrix(1.2848 0 0 1 177.7363 205.7682)" style="font-family:'Tahoma'; font-size:14.1849px;">Strake LH</text>
	<path style="fill:none;stroke:#000000;stroke-width:0.25;stroke-linecap:round;stroke-linejoin:round;stroke-miterlimit:3;" d="
		M190.3,233.2l-0.1,0.3l-9.8,27.8"/>
	<text transform="matrix(1.2831 0 0 1 150.8364 274.317)" style="font-family:'Tahoma'; font-size:14.1849px;">142AR</text>
	<path style="fill:none;stroke:#000000;stroke-width:0.25;stroke-linecap:round;stroke-linejoin:round;stroke-miterlimit:3;" d="
		M127.8,231.7l0.1-0.4 M127.8,231.7l-14,54.7 M509.5,253.8c-0.4,0.4-0.7,0.9-1.2,1.3c-2.5,2.6-5.5,3.8-9,3.8s-6.6-1.3-9.2-3.8
		c-2.5-2.5-3.8-5.5-3.8-9.1s1.2-6.6,3.8-9.1c2.5-2.5,5.5-3.7,9-3.8h0.2c3.5,0,6.5,1.2,9,3.8c2.5,2.5,3.8,5.6,3.8,9.1
		C512.1,249,511.2,251.6,509.5,253.8z"/>
	<path style="fill:none;stroke:#000000;stroke-width:0.2;stroke-miterlimit:6.92;" d="M509.5,253.8l26,13.9"/>
	<text transform="matrix(1 0 0 1 558.016 259.96)" style="font-family:'Tahoma'; font-size:11px;">ANTI&#x2212;</text>
	<text transform="matrix(1 0 0 1 546.852 271.46)" style="font-family:'Tahoma'; font-size:11px;">COLLISION</text>
	<text transform="matrix(1 0 0 1 537.239 282.96)" style="font-family:'Tahoma'; font-size:11px;">STROBE LIGHT</text>
	<path style="fill:none;stroke:#000000;stroke-width:0.25;stroke-linecap:round;stroke-linejoin:round;stroke-miterlimit:3;" d="
		M601.6,142.5c3.6,0,6.6,1.2,9.1,3.8c2.5,2.5,3.8,5.6,3.8,9.2c0,3.5-1.3,6.5-3.8,9c-2.5,2.6-5.5,3.8-9,3.8s-6.6-1.3-9.2-3.8
		c-2.5-2.5-3.8-5.5-3.8-9c0-3.6,1.2-6.6,3.8-9.2c2.5-2.5,5.5-3.7,9-3.8H601.6L601.6,142.5z"/>
	<path style="fill:none;stroke:#000000;stroke-miterlimit:6.92;" d="M601.6,142.5V57.3h-11.8"/>
	<text transform="matrix(1 0 0 1 521.667 53.726)" style="font-family:'Tahoma'; font-size:12px;">Ground</text>
	<text transform="matrix(1 0 0 1 495.276 69.726)" style="font-family:'Tahoma'; font-size:12px;">Recognition Light</text>
	<path style="fill:none;stroke:#000000;stroke-miterlimit:6.92;" d="M630.2,151.7V52.4h22.6"/>
	<path style="fill:none;stroke:#000000;stroke-width:0.25;stroke-linecap:round;stroke-linejoin:round;stroke-miterlimit:3;" d="
		M630.2,151.7c3.5,0,6.6,1.2,9.1,3.8c2.5,2.5,3.8,5.6,3.8,9.1s-1.3,6.6-3.8,9.1c-2.5,2.6-5.5,3.8-9,3.8s-6.6-1.3-9.1-3.8
		s-3.8-5.5-3.8-9.1s1.2-6.6,3.8-9.1C623.7,153,626.7,151.8,630.2,151.7z"/>
	<text transform="matrix(1 0 0 1 683.497 48.826)" style="font-family:'Tahoma'; font-size:12px;">Engine</text>
	<text transform="matrix(1 0 0 1 656.336 64.826)" style="font-family:'Tahoma'; font-size:12px;">Inspection Lights</text>
	<path style="fill:none;stroke:#000000;stroke-width:0.25;stroke-linecap:round;stroke-linejoin:round;stroke-miterlimit:3;" d="
		M646.8,235.2c-3.5,0-6.5-1.3-9.1-3.9c-2.5-2.5-3.8-5.5-3.8-9c0-3.6,1.2-6.6,3.8-9.2c2.5-2.5,5.5-3.7,8.9-3.8h0.2
		c3.5,0,6.5,1.2,9,3.8c2.5,2.5,3.8,5.6,3.8,9.2c0,3.5-1.3,6.5-3.8,9C653.3,233.9,650.3,235.2,646.8,235.2L646.8,235.2z"/>
	<path style="fill:none;stroke:#000000;stroke-miterlimit:6.92;" d="M646.8,235.2v83.9h25.5"/>
	<text transform="matrix(1 0 0 1 675.627 317.46)" style="font-family:'Tahoma'; font-size:11px;">EMERGENCY</text>
	<text transform="matrix(1 0 0 1 690.964 328.96)" style="font-family:'Tahoma'; font-size:11px;">LIGHT</text>
	<path style="fill:none;stroke:#000000;stroke-width:0.25;stroke-linecap:round;stroke-linejoin:round;stroke-miterlimit:3;" d="
		M103.4,229.4c-1.9-2-2.8-4.3-2.8-7.1c0-2.9,1-5.4,3.1-7.5c2.1-2,4.6-3.1,7.4-3.1h0.2c2.9,0,5.4,1,7.4,3.1c2.1,2.1,3.1,4.6,3.1,7.5
		s-1.1,5.4-3.1,7.5c-2.1,2.1-4.6,3.2-7.4,3.2c-2.9,0-5.4-1.1-7.6-3.2C103.6,229.6,103.5,229.5,103.4,229.4L103.4,229.4z"/>
	<path style="fill:none;stroke:#000000;stroke-width:0.2;stroke-miterlimit:6.92;" d="M103.4,229.4l-30.7,26.4"/>
	<text transform="matrix(1 0 0 1 9.978 266.661)" style="font-family:'Tahoma'; font-size:11px;">EMERGENCY</text>
	<text transform="matrix(1 0 0 1 25.314 278.161)" style="font-family:'Tahoma'; font-size:11px;">LIGHT</text>
	<path style="fill:none;stroke:#1A171B;stroke-width:0.5;stroke-miterlimit:6.92;" d="M766.8,230.8h11.8v8.8h-11.8V230.8z"/>
	<path style="fill:none;stroke:#000000;stroke-width:0.55;stroke-linecap:round;stroke-linejoin:round;stroke-miterlimit:3;" d="
		M109.4,150.1L15.2,135 M30,231.3l53,10 M726.7,174.5H712 M732.2,180c-0.1-1.4-0.7-2.6-1.7-3.7s-2.2-1.7-3.6-1.8 M712,174.5
		c-1.4,0.1-2.7,0.7-3.7,1.7s-1.6,2.2-1.7,3.6 M726.7,228.7H712 M726.7,228.7c1.4-0.1,2.6-0.6,3.7-1.7c1-1,1.6-2.3,1.8-3.7
		 M706.5,223.2c0.1,1.4,0.7,2.6,1.7,3.7c1,1,2.3,1.6,3.7,1.7 M732.2,223.2v-43.5 M706.5,223.2v-43.7 M145.7,181.3
		c-0.1-1.4-0.6-2.6-1.7-3.7c-1-1-2.3-1.6-3.7-1.8 M128.1,175.9c-1.5,0.1-2.7,0.7-3.7,1.7s-1.6,2.2-1.7,3.6 M140.3,175.9h-12.2
		 M140.3,231.3c1.4-0.1,2.6-0.6,3.7-1.7c1-1,1.6-2.3,1.7-3.7 M122.7,225.9c0.1,1.4,0.6,2.6,1.7,3.7c1,1,2.3,1.6,3.7,1.7
		 M107.1,243.6h660.7 M109.4,150.1h206.7 M270.2,157.4h-255 M15.2,135v22.4 M140.3,231.3h-12.2 M30,231.3l7-73.9 M122.6,225.8v-44.5
		 M145.7,225.8v-44.5 M524.4,158.6h243.4 M283.7,193.2l-8.7-1.1l-9.9-2.9l-8-4l-4.4-2.9l-2.8-2.6l-1-1.2l-0.8-1.2l-0.9-1.9l-0.2-0.7
		v-1.2l0.2-1.3l0.6-1.7l0.3-0.9l1.8-2.7l1.4-1.4l2.1-1.5l4.2-2l2-0.6l5.9-1.2l80.3-9.9l46.1-2.5 M283.7,193.2l8.9,0.9 M292.6,194.1
		h174.9l24.2-1.2l24.4-2.9l8.3-1.7l6.1-2.4l2.6-1.7l1.1-1.1l1.6-2.1l0.3-1l0.4-2.3v-1.2l-0.1-0.9l-0.3-0.9l-1.2-2.1l-0.9-1.3
		l-12.8-10.7l-0.3-0.4l-0.5-0.8l-0.1-0.4l-0.1-0.3v-0.3l0.1-0.2v-0.1l-0.6-0.1l-51.1-7.7l-1.1-0.3"/>
	<path style="fill:none;stroke:#000000;stroke-width:0.55;stroke-linecap:round;stroke-linejoin:round;stroke-miterlimit:3;" d="
		M474.2,158.1l-0.1,0.7l-0.3,0.8l-0.4,0.7l-1.3,1.4l-0.8,0.6l-5.4,1.5l-23.2,3.1l-8,0.6l-36.5-0.4l-41.8-5.5l-15.2-0.7l-7.2,0.2
		l7.1-2.1l17.1-3.9l44.2-8.5l24.9-1.3l25.7,1.2l11.1,2l3.2,1.3l3.1,2.2l2.2,2.3l1.4,2.1l0.2,0.5L474.2,158.1z M675.7,174.2h-9.9
		 M681.2,179.7c-0.1-1.4-0.7-2.6-1.7-3.7c-1-1-2.2-1.6-3.6-1.8 M666,174.2c-1.4,0.1-2.7,0.7-3.7,1.7s-1.6,2.2-1.7,3.6 M675.7,228.4
		h-10.2 M675.7,228.4c1.4-0.1,2.7-0.7,3.7-1.7s1.6-2.3,1.8-3.7 M660.5,223c0.1,1.4,0.7,2.6,1.7,3.7c1,1,2.3,1.6,3.7,1.8
		 M681.2,222.9v-43.6 M660.5,223v-43.7"/>
	<path style="fill:none;stroke:#1A171B;stroke-width:0.55;stroke-miterlimit:6.92;" d="M107.1,243.6L83,241.3"/>
	<path style="fill:none;stroke:#1A181B;stroke-width:0.55;stroke-miterlimit:5;" d="M204.1,224.1h155.4l-19.2,10.8
		c-2.5,1.4-5.5,2.2-8.9,2.3L208,236.3c-1,0-2-0.3-2.8-1c-0.7-0.8-1.1-1.7-1.1-2.8V224.1L204.1,224.1z"/>
	<path style="fill:none;stroke:#1A171B;stroke-width:0.5;stroke-miterlimit:6.92;" d="M339.9,169.8h28V192h-28V169.8z M367.9,169.8
		h28V192h-28V169.8z M396.1,169.8h28V192h-28V169.8z M424.2,169.8h28V192h-28V169.8z M309,178v-17.2l23.5-4.4l-0.1,21.5L309,178z"/>
	<path style="fill:none;stroke:#1A171B;stroke-width:0.5;stroke-miterlimit:6.92;" d="M366.1,149c-14.8,0.9-28.2,2.1-40.3,3.5v5.2
		l6.6-1.3v5.3c19.2-5.1,39.1-9.6,59.8-13.5C390.1,147.7,381.4,147.9,366.1,149z M481,169.7h18.8v17.5H481V169.7z M540.8,158.5h52
		v85.1h-52V158.5z M743.8,230.6h11.8v8.8h-11.8V230.6z M189,224.4h11.8v8.8H189V224.4z"/>
	<path style="fill-rule:evenodd;clip-rule:evenodd;fill:#FFFF00;" d="M111.8,219.3c0.8,0,1.4,0.3,2,0.9s0.9,1.2,0.9,2
		s-0.3,1.5-0.9,2c-0.6,0.6-1.2,0.9-2,0.9s-1.5-0.3-2.1-0.9c-0.6-0.5-0.9-1.2-0.9-2s0.3-1.5,0.9-2
		C110.3,219.6,110.9,219.3,111.8,219.3z"/>
	<path style="fill:none;stroke:#2D2C2E;stroke-miterlimit:5;" d="M111.8,219.3c0.8,0,1.4,0.3,2,0.9s0.9,1.2,0.9,2s-0.3,1.5-0.9,2
		c-0.6,0.6-1.2,0.9-2,0.9s-1.5-0.3-2.1-0.9c-0.6-0.5-0.9-1.2-0.9-2s0.3-1.5,0.9-2C110.3,219.6,110.9,219.3,111.8,219.3z"/>
	<path style="fill-rule:evenodd;clip-rule:evenodd;fill:#CCCCCC;" d="M492.8,244.4l-0.8,0.1v-1.1h14.2v1.1H505L492.8,244.4z"/>
	<path style="fill-rule:evenodd;clip-rule:evenodd;fill:#FFFF00;" d="M505,244.5c-0.3,0.7-0.7,1.4-1.2,2.1c-0.9,1.4-1.7,2.2-2.3,2.2
		H499c-0.6,0-1.8-0.7-3.6-2.1c-0.9-0.8-1.7-1.5-2.5-2.2H505z"/>
	<path style="fill:none;stroke:#2D2C2E;stroke-miterlimit:5;" d="M492.8,244.4h13.4v-1H492v1H492.8z M505,244.5
		c-0.3,0.7-0.7,1.4-1.2,2.1c-0.9,1.4-1.7,2.2-2.3,2.2H499c-0.6,0-1.8-0.7-3.6-2.1c-0.9-0.8-1.7-1.5-2.5-2.2"/>
	<path style="fill-rule:evenodd;clip-rule:evenodd;fill:#FFFF00;" d="M646.8,219.3c0.8,0,1.4,0.3,2,0.9s0.8,1.2,0.8,2
		s-0.3,1.5-0.8,2c-0.6,0.6-1.2,0.9-2,0.9s-1.5-0.3-2-0.9c-0.6-0.5-0.9-1.2-0.9-2s0.3-1.5,0.9-2C645.3,219.6,646,219.3,646.8,219.3z"
		/>
	<path style="fill:none;stroke:#2D2C2E;stroke-miterlimit:5;" d="M646.8,219.3c0.8,0,1.4,0.3,2,0.9s0.8,1.2,0.8,2s-0.3,1.5-0.8,2
		c-0.6,0.6-1.2,0.9-2,0.9s-1.5-0.3-2-0.9c-0.6-0.5-0.9-1.2-0.9-2s0.3-1.5,0.9-2C645.3,219.6,646,219.3,646.8,219.3z"/>
	<path style="fill-rule:evenodd;clip-rule:evenodd;fill:#CCCCCC;" d="M607.3,157.1h1.4v1.1h-14.3v-1.1l0.8,0.1L607.3,157.1z"/>
	<path style="fill-rule:evenodd;clip-rule:evenodd;fill:#FFFF00;" d="M607.3,157.1l-12.1,0.1c0.8-0.7,1.6-1.5,2.5-2.2
		c1.8-1.5,3-2.2,3.5-2.2h2.5c0.6,0,1.4,0.8,2.3,2.2C606.6,155.7,607,156.4,607.3,157.1L607.3,157.1z"/>
	<path style="fill:none;stroke:#2D2C2E;stroke-miterlimit:5;" d="M607.3,157.1c-0.3-0.7-0.7-1.4-1.2-2.1c-0.9-1.4-1.7-2.2-2.3-2.2
		h-2.5c-0.6,0-1.8,0.7-3.5,2.2c-0.9,0.7-1.8,1.5-2.5,2.2L607.3,157.1L607.3,157.1z M595.2,157.2l-0.8-0.1v1.1h14.2v-1.1h-1.3"/>
	<path style="fill-rule:evenodd;clip-rule:evenodd;fill:#FFFF00;" d="M630.2,161.7c0.8,0,1.4,0.3,2,0.8s0.8,1.2,0.8,2
		s-0.3,1.5-0.8,2c-0.6,0.6-1.2,0.9-2,0.9s-1.5-0.3-2-0.9c-0.6-0.5-0.9-1.2-0.9-2s0.3-1.5,0.9-2S629.5,161.7,630.2,161.7z"/>
	<path style="fill:none;stroke:#2D2C2E;stroke-miterlimit:5;" d="M630.2,161.7c0.8,0,1.4,0.3,2,0.8s0.8,1.2,0.8,2s-0.3,1.5-0.8,2
		c-0.6,0.6-1.2,0.9-2,0.9s-1.5-0.3-2-0.9c-0.6-0.5-0.9-1.2-0.9-2s0.3-1.5,0.9-2S629.5,161.7,630.2,161.7z"/>
	<text transform="matrix(1 0 0 1 323.484 373.7)" style="font-family:'Tahoma-Bold'; font-size:17px;">RH SIDE</text>
	<text transform="matrix(1 0 0 1 103.822 298)" style="font-family:'Tahoma'; font-size:11px;">AFT</text>
	<text transform="matrix(1 0 0 1 91.922 311.2)" style="font-family:'Tahoma'; font-size:11px;">SERVICE</text>
	<text transform="matrix(1 0 0 1 98.322 324.4)" style="font-family:'Tahoma'; font-size:11px;">DOOR</text>
	<text transform="matrix(1 0 0 1 652.774 100.218)" style="font-family:'Tahoma'; font-size:11px;">EMERGENCY</text>
	<text transform="matrix(1 0 0 1 671.974 113.418)" style="font-family:'Tahoma'; font-size:11px;">EXIT</text>
	<text transform="matrix(1 0 0 1 668.574 126.618)" style="font-family:'Tahoma'; font-size:11px;">DOOR</text>
	<text transform="matrix(1 0 0 1 755.241 119.8)" style="font-family:'Tahoma'; font-size:11px;">FWD</text>
	<text transform="matrix(1 0 0 1 742.841 133)" style="font-family:'Tahoma'; font-size:11px;">BAGGAGE</text>
	<text transform="matrix(1 0 0 1 751.841 146.2)" style="font-family:'Tahoma'; font-size:11px;">DOOR</text>
	<text transform="matrix(1 0 0 1 549.277 191.505)" style="font-family:'Tahoma'; font-size:12px;">RIGHT</text>
	<text transform="matrix(1 0 0 1 557.577 205.905)" style="font-family:'Tahoma'; font-size:12px;">ICE</text>
	<text transform="matrix(1 0 0 1 546.777 220.305)" style="font-family:'Tahoma'; font-size:12px;">SHIELD</text>
</g>
</svg>
