<?xml version="1.0" encoding="utf-8"?>
<!-- Generator: Adobe Illustrator 24.2.3, SVG Export Plug-In . SVG Version: 6.00 Build 0)  -->
<svg version="1.1" id="eng-lh-access" xmlns="http://www.w3.org/2000/svg" xmlns:xlink="http://www.w3.org/1999/xlink" x="0px"
	 y="0px" viewBox="0 0 978 368.5" style="enable-background:new 0 0 978 368.5;" xml:space="preserve">
<style type="text/css">
	.st0{fill-rule:evenodd;clip-rule:evenodd;fill:#B1B1B1;}
	.st1{fill-rule:evenodd;clip-rule:evenodd;fill:#868686;}
	.st2{fill:#868686;}
	.st3{fill:none;}
	.st4{fill:none;stroke:#1A171B;stroke-width:0.2;stroke-miterlimit:6.92;}
	.st5{font-family:'Tahoma';}
	.st6{font-size:12.1353px;}
	.st7{fill-rule:evenodd;clip-rule:evenodd;fill:#FF0000;}
	.st8{fill:none;stroke:#000000;stroke-width:0.5;stroke-miterlimit:6.92;}
	.st9{font-size:14px;}
	.st10{fill:none;stroke:#000000;stroke-width:0.25;stroke-linecap:round;stroke-linejoin:round;stroke-miterlimit:3;}
	.st11{fill:none;stroke:#000000;stroke-width:0.5;stroke-linecap:round;stroke-linejoin:round;stroke-miterlimit:3;}
	.st12{fill:none;stroke:#1A171B;stroke-width:0.5;stroke-linecap:round;stroke-miterlimit:6.92;}
	.st13{fill:none;stroke:#000000;stroke-width:0.55;stroke-linecap:round;stroke-linejoin:round;stroke-miterlimit:3;}
	.st14{font-family:'Tahoma-Bold';}
	.st15{font-size:17px;}
	.st16{fill-rule:evenodd;clip-rule:evenodd;}
	.st17{fill:none;stroke:#2D2C2E;stroke-miterlimit:5;}
	.st18{fill:none;stroke:#000000;stroke-miterlimit:10;}
	.st19{fill:none;stroke:#000000;stroke-width:0.25;stroke-miterlimit:10;}
</style>
<g id="clp-hintergrund">
	<path class="st0" d="M101,163.5l-0.4-45l23.9-3.2l-0.1,45.4h-16.6l-2.1,3.9c-1.5-0.4-2.4-0.6-2.8-0.6
		C102.6,163.6,101.9,163.5,101,163.5z M48,142c0.5-4.5,4.9-9.2,13.4-14c11.3-4.3,24.4-7.4,39.2-9.4l0.1,44.9
		C84,163.2,70.8,161,61.2,157C51.9,152,47.5,147,48,142z M178.6,175.6v-65.5L157,111c-4.4,0.1-8.8,0.4-13.1,0.9
		c-6.6,0.7-13,1.8-19.2,3.2l0.1,45.4h0.1v8.3L178.6,175.6L178.6,175.6z"/>
	<path class="st0" d="M244.8,108.6c-7.3,0-16.1,0.1-26.5,0.3c-1.3,0-2.6,0.1-4,0.1c-14.8,0.4-26.8,0.8-35.8,1v30.5h66.3V108.6z
		 M178.6,140.5l-0.1,35.1l30.9,3.9l35.5,4.5v-43.5H178.6z M460.1,151c-5.4-2.9-9.4-5.5-12-7.6c-3.2-2.8-5-5.7-5.5-8.7v-0.3l1.7-9.5
		l-41.6-6.5v31.2h0.2c17,2.1,36.2,4.7,57.6,7.9L460.1,151L460.1,151z M463.4,158l-2.7,29.9c7.8-1.6,14.9-3.2,21.2-4.8
		c1.1-0.3,2.2-0.5,3.2-0.8c3.2-0.8,5-3.6,5.2-8.5l0.2-11.3L463.4,158L463.4,158z"/>
	<path class="st0" d="M124.7,168.6v-8.3h-16.8l-2.1,3.9c1.4,0.8,2.2,1.6,2.6,2.5c0.3,0.9,0,1.8-1,2.5c-0.8,0.3-1.2,0.7-1.4,1.3
		l0.6,18v0.9c0.3,1.8,4.1,3.1,11.5,3.7c5.2,0.4,13.5,0.6,25,0.5h101.6v-9.8L124.7,168.6L124.7,168.6z M239,189.9
		c0,0.9-0.5,1.3-1.6,1.3h-7.6c-1.1,0-1.7-0.4-1.7-1.3v-4.4c0-0.9,0.6-1.3,1.7-1.3h7.6c1.1,0,1.6,0.5,1.6,1.3V189.9z M402.8,139.3
		h-0.2l-0.4-0.1l-0.6-0.1l-8.5-1v-16.5l8.9,1.1h0.2l0.5,0.1h0.1v-4.7l-44.8-5.5l-3.7-0.1v31.8l48.5,5.1v-0.2h-0.1v-9.9H402.8z
		 M256.9,155.4h8.5v8.1h-8.5V155.4z M262.2,192.7H262v0.1h-8.8v-0.1h-2.3v-8h11.2v8H262.2z M272.9,190.7h-10.1v-7.3h10.1V190.7z"/>
	<path class="st1" d="M256.8,155.4v8.2h8.6v-8.2H256.8z M254.7,135.3c-3.2-0.3-6.4-0.7-9.6-1.3v11.6H259v-10
		C257.5,135.4,256.1,135.4,254.7,135.3L254.7,135.3z M305.8,134.8c-5,0.5-9.7,0.8-14,1v5.2l5.2,0.1v4.4h6.1V141h6.2v-6.5
		C308.2,134.5,307,134.7,305.8,134.8L305.8,134.8z M250.8,184.7v7.9h11.3v-7.9H250.8z M262.7,183.3v7.2h10.2v-7.2H262.7z
		 M393.4,121.8v16.5l9.4,1.1l0.1-12.1l0.1-4.3L393.4,121.8z"/>
	<circle class="st2" cx="253" cy="178.9" r="3.5"/>
</g>
<g id="clp-413el">
	<path id="clp-413el-hl" class="st3" d="M330.1,182.1h-36.5c-2.5,0-4.5-2-4.5-4.5v-13c0-2.5,2-4.5,4.5-4.5h36.5c2.5,0,4.5,2,4.5,4.5
		v13C334.5,180.1,332.5,182.1,330.1,182.1z M256.8,155.4v8.2h8.6v-8.2H256.8z"/>
</g>
<g id="clp-413dl">
	<path id="clp-413dl-hl" class="st3" d="M305.5,70.5H269c-2.5,0-4.5-2-4.5-4.5V53c0-2.5,2-4.5,4.5-4.5h36.5c2.5,0,4.5,2,4.5,4.5v13
		C310,68.5,308,70.5,305.5,70.5z M254.7,135.3c-3.2-0.3-6.4-0.7-9.6-1.3v11.6H259v-10C257.5,135.4,256.1,135.4,254.7,135.3z"/>
</g>
<g id="clp-413bl">
	<path id="clp-413bl-hl" class="st3" d="M414.3,58.5h-36.5c-2.5,0-4.5-2-4.5-4.5V41c0-2.5,2-4.5,4.5-4.5h36.5c2.5,0,4.5,2,4.5,4.5
		v13C418.8,56.5,416.7,58.5,414.3,58.5z M305.8,134.8c-5,0.5-9.7,0.8-14,1v5.2l5.2,0.1v4.4h6.1V141h6.2v-6.5
		C308.2,134.5,307,134.7,305.8,134.8L305.8,134.8z"/>
</g>
<g id="clp-415cl">
	<path id="clp-415cl-hl" class="st3" d="M261.6,263.4h-36.5c-2.5,0-4.5-2-4.5-4.5v-13c0-2.5,2-4.5,4.5-4.5h36.5c2.5,0,4.5,2,4.5,4.5
		v13C266.1,261.4,264.1,263.4,261.6,263.4z M250.8,184.7v7.9h11.3v-7.9H250.8z"/>
</g>
<g id="clp-415dl">
	<path id="clp-415dl-hl" class="st3" d="M332.7,256.7h-36.5c-2.5,0-4.5-2-4.5-4.5v-13c0-2.5,2-4.5,4.5-4.5h36.5c2.5,0,4.5,2,4.5,4.5
		v13C337.2,254.7,335.2,256.7,332.7,256.7z M262.7,183.3v7.2h10.2v-7.2H262.7z"/>
</g>
<g id="clp-412bl">
	<path id="clp-412bl-hl" class="st3" d="M168.9,247.1h-36.5c-2.5,0-4.5-2-4.5-4.5v-13c0-2.5,2-4.5,4.5-4.5h36.5c2.5,0,4.5,2,4.5,4.5
		v13C173.3,245.1,171.3,247.1,168.9,247.1z M178.6,140.5l-0.1,35.1l30.9,3.9l35.5,4.5v-43.5H178.6L178.6,140.5z"/>
</g>
<g id="clp-414bl">
	<path id="clp-414bl-hl" class="st3" d="M508.4,107.1h-36.5c-2.5,0-4.5-2-4.5-4.5v-13c0-2.5,2-4.5,4.5-4.5h36.5c2.5,0,4.5,2,4.5,4.5
		v13C512.9,105.1,510.8,107.1,508.4,107.1L508.4,107.1z M393.4,121.8v16.5l9.4,1.1l0.1-12.1l0.1-4.3L393.4,121.8z"/>
</g>
<g id="clp-414al">
	<path id="clp-414al-hl" class="st3" d="M506,147h-36.5c-2.5,0-4.5-2-4.5-4.5v-13c0-2.5,2-4.5,4.5-4.5H506c2.5,0,4.5,2,4.5,4.5v13
		C510.5,145,508.5,147,506,147z M460.1,151c-5.4-2.9-9.4-5.5-12-7.6c-3.2-2.8-5-5.7-5.5-8.7v-0.3l1.7-9.5l-41.6-6.5v31.2h0.2
		c17,2.1,36.2,4.7,57.6,7.9L460.1,151L460.1,151z"/>
</g>
<g id="clp-414bb">
	<path id="clp-414bb-hl" class="st3" d="M548.3,190.9h-36.5c-2.5,0-4.5-2-4.5-4.5v-13c0-2.5,2-4.5,4.5-4.5h36.5c2.5,0,4.5,2,4.5,4.5
		v13C552.8,188.9,550.8,190.9,548.3,190.9z M463.4,158l-2.7,29.9c7.8-1.6,14.9-3.2,21.2-4.8c1.1-0.3,2.2-0.5,3.2-0.8
		c3.2-0.8,5-3.6,5.2-8.5l0.2-11.3L463.4,158L463.4,158z"/>
</g>
<g id="clp-412ct">
	<path id="clp-412ct-hl" class="st3" d="M237,70.8h-36.5c-2.5,0-4.5-2-4.5-4.5v-13c0-2.5,2-4.5,4.5-4.5H237c2.5,0,4.5,2,4.5,4.5v13
		C241.5,68.8,239.5,70.8,237,70.8z M244.8,108.6c-7.3,0-16.1,0.1-26.5,0.3c-1.3,0-2.6,0.1-4,0.1c-14.8,0.4-26.8,0.8-35.8,1v30.5
		h66.3C244.8,140.5,244.8,108.6,244.8,108.6z"/>
</g>
<g id="clp-412at">
	<path id="clp-412at-hl" class="st3" d="M101,163.5l-0.4-45l23.9-3.2l-0.1,45.4h-16.6l-2.1,3.9c-1.5-0.4-2.4-0.6-2.8-0.6
		C102.6,163.6,101.9,163.5,101,163.5z"/>
</g>
<g id="clp-411al">
	<path id="clp-411al-hl" class="st3" d="M48,142c0.5-4.5,4.9-9.2,13.4-14c11.3-4.3,24.4-7.4,39.2-9.4l0.1,44.9
		C84,163.2,70.8,161,61.2,157C51.9,152,47.5,147,48,142z"/>
</g>
<g id="clp-412al">
	<path id="clp-412al-hl" class="st3" d="M118,69.2H81.4c-2.5,0-4.5-2-4.5-4.5v-13c0-2.5,2-4.5,4.5-4.5H118c2.5,0,4.5,2,4.5,4.5v13
		C122.5,67.2,120.4,69.2,118,69.2z M178.6,175.6v-65.5L157,111c-4.4,0.1-8.8,0.4-13.1,0.9c-6.6,0.7-13,1.8-19.2,3.2l0.1,45.4h0.1
		v8.3L178.6,175.6L178.6,175.6z"/>
</g>
<g id="clp-nac-drain-ext">
	<path id="clp-nac-drain-ext-hl" class="st3" d="M172.3,300.3H91.7c-2.5,0-4.5-2-4.5-4.5v-31c0-2.5,2-4.5,4.5-4.5h80.5
		c2.5,0,4.5,2,4.5,4.5v31C176.7,298.3,174.7,300.3,172.3,300.3z M237.9,191.3H229c-0.5,0-1-0.4-1-1v-4.9c0-0.5,0.4-1,1-1h8.9
		c0.5,0,1,0.4,1,1v4.9C238.9,190.8,238.5,191.3,237.9,191.3z"/>
</g>
<g id="clp-414at">
	<path id="clp-414at-hl" class="st3" d="M402.8,139.3h-0.2l-0.4-0.1l-0.6-0.1l-8.5-1v-16.5l8.9,1.1h0.2l0.5,0.1h0.1v-4.7l-44.8-5.5
		l-3.7-0.1v31.8l48.5,5.1v-0.2h-0.1v-9.9H402.8z"/>
</g>
<g id="clp-415bl">
	<path id="clp-415bl-hl" class="st3" d="M325,221.7h-36.5c-2.5,0-4.5-2-4.5-4.5v-13c0-2.5,2-4.5,4.5-4.5H325c2.5,0,4.5,2,4.5,4.5v13
		C329.5,219.7,327.4,221.7,325,221.7z M256.5,178.9c0,1.9-1.6,3.5-3.5,3.5s-3.5-1.6-3.5-3.5s1.6-3.5,3.5-3.5S256.5,177,256.5,178.9z
		"/>
</g>
<g id="clp-412ab">
	<path id="clp-412ab-hl" class="st3" d="M85.4,206.2H48.8c-2.5,0-4.5-2-4.5-4.5v-13c0-2.5,2-4.5,4.5-4.5h36.5c2.5,0,4.5,2,4.5,4.5
		v13C89.9,204.2,87.9,206.2,85.4,206.2z M124.7,168.6v-8.3h-16.8l-2.1,3.9c1.4,0.8,2.2,1.6,2.6,2.5c0.3,0.9,0,1.8-1,2.5
		c-0.8,0.3-1.2,0.7-1.4,1.3l0.6,18v0.9c0.3,1.8,4.1,3.1,11.5,3.7c5.2,0.4,13.5,0.6,25,0.5h101.6v-9.8L124.7,168.6L124.7,168.6z
		 M239,189.9c0,0.9-0.5,1.3-1.6,1.3h-7.6c-1.1,0-1.7-0.4-1.7-1.3v-4.4c0-0.9,0.6-1.3,1.7-1.3h7.6c1.1,0,1.6,0.5,1.6,1.3V189.9z"/>
</g>
<g id="clp-system">
	<path class="st4" d="M106.9,188.6L86.3,195 M128.2,182l1.3-0.4 M128.2,182l-21.3,6.6"/>
	<text transform="matrix(1 0 0 1 49.89 199.276)" class="st5 st6">412AB</text>
	<path class="st4" d="M158.6,127l1,1 M144,111.9l14.6,15.1 M103.7,70.5l40.2,41.4"/>
	<text transform="matrix(1 0 0 1 83.59 62.575)" class="st5 st6">412AL</text>
	<path class="st4" d="M218.1,126.2v1.4 M218.5,108.8l-0.4,17.4 M219.4,66.8l-0.9,42"/>
	<text transform="matrix(1 0 0 1 201.941 63.575)" class="st5 st6">412CT</text>
	<path class="st4" d="M220.3,170.3l1-0.9 M209.5,179.4l-57.2,48.9 M220.3,170.3l-10.7,9.1"/>
	<text transform="matrix(1 0 0 1 134.34 240.375)" class="st5 st6">412BL</text>
	<path class="st7" d="M233.4,190.2l0.3-0.8L233.4,190.2h-2.3c-0.8,0-1.1-0.3-1.1-0.9v-2.9c0-0.6,0.4-0.9,1.1-0.9h5.1
		c0.7,0,1.1,0.3,1.1,0.9v2.9c0,0.6-0.4,0.9-1.1,0.9H233.4z"/>
	<path class="st8" d="M233.3,191.4l-36,88.9l-21.1-0.1 M233.3,191.4h4.2c1.1,0,1.6-0.4,1.6-1.3v-4.4c0-0.9-0.5-1.4-1.6-1.4h-7.6
		c-1.1,0-1.7,0.5-1.7,1.4v4.4c0,0.9,0.6,1.3,1.7,1.3H233.3l0.5-1.2"/>
	<text transform="matrix(1 0 0 1 104.603 276.608)" class="st5 st9">NACELLE</text>
	<text transform="matrix(1 0 0 1 92.158 293.608)" class="st5 st9">DRAIN MAST</text>
	<path class="st7" d="M231.3,190.2c-0.8,0-1.1-0.3-1.1-0.9v-2.9c0-0.6,0.4-0.9,1.1-0.9h5c0.7,0,1,0.3,1,0.9v2.9c0,0.6-0.4,0.9-1,0.9
		H231.3z"/>
	<path class="st8" d="M231.3,190.2h5c0.7,0,1-0.3,1-0.9v-2.9c0-0.6-0.4-0.9-1-0.9h-5c-0.8,0-1.1,0.3-1.1,0.9v2.9
		C230.1,189.9,230.5,190.2,231.3,190.2z"/>
	<path class="st4" d="M254.8,135.2L288.2,67 M253,139l-0.6,1.2 M254.8,135.2L253,139"/>
	<text transform="matrix(1 0 0 1 271.14 63.526)" class="st5 st6">413DL</text>
	<path class="st10" d="M305.9,134.7l90.5-79.5 M302.1,138.1l-1,0.9 M302.1,138.1l3.8-3.4"/>
	<text transform="matrix(1 0 0 1 380.34 52.526)" class="st5 st6">413BL</text>
	<path class="st4" d="M440,134.1l-10.7-0.4 M440,134.1l29.2,0.9"/>
	<text transform="matrix(1 0 0 1 471.54 140.326)" class="st5 st6">414AL</text>
	<path class="st4" d="M402.8,127.3l69.3-30.1 M399.6,128.7l-1.3,0.5 M399.6,128.7l3.2-1.4"/>
	<text transform="matrix(1 0 0 1 474.44 101.026)" class="st5 st6">414BL</text>
	<path class="st4" d="M510.5,180l-35.2-5.4"/>
	<text transform="matrix(1 0 0 1 512.9 184.3)" class="st5 st6">414BB</text>
	<path class="st4" d="M256.5,189.1l-9.9,55"/>
	<text transform="matrix(1 0 0 1 229.691 255.375)" class="st5 st6">415CL</text>
	<text transform="matrix(1 0 0 1 290.09 214.776)" class="st5 st6">415BL</text>
	<path class="st4" d="M313.4,206.1"/>
	<text transform="matrix(1 0 0 1 295.793 175.244)" class="st5 st6">413EL</text>
	<path class="st4" d="M268.2,189.1l-0.2-0.5 M267.6,187.4l0.4,1.2 M268.2,189.1l18.5,55.9h7.2"/>
	<text transform="matrix(1 0 0 1 297.661 249.345)" class="st5 st6">415DL</text>
	<path class="st11" d="M245,110.8v-2.3h-1 M264,108.6l28.1,1c-5.6-0.6-11.2-0.9-16.7-1C271.4,108.5,267.6,108.5,264,108.6z
		 M245,108.5l19,0.1c-6.2,0.2-11.7,0.7-16.7,1.6l31.9,11.5l29.9-9.6c-5.8-1.1-11.5-2-17-2.5 M258.6,135.4l-0.3-0.1l-0.2-0.1h-5.5
		l-0.5-0.1h-1.7l-0.5-0.1h-0.3l-0.5-0.1h-0.5l-0.5-0.1H248l-1.2-0.3h-0.5l-0.8-0.1 M259.1,139h32.8 M292.5,135.6
		c1.7-0.1,3.5-0.2,5.4-0.3l5.1-0.4c1-0.1,2.1-0.2,3.1-0.3l1.8-0.2c0.6-0.1,1.2-0.2,1.8-0.2v4.6h44.8v-26.4l-62.3-2.9 M259.1,145.4
		v-9.9 M247.3,110.3V132l0.3-0.1l31.6-10.1 M245,140.5v-29.7 M245.1,145.4H245v4.4 M245.1,145.4h8.8 M245,145.4v-4.9 M245,185.7v-36
		 M247.6,131.9c8,1.3,17.9,2,29.6,2.2c6.1,0.1,12.1,0.1,18-0.2c5.5-0.3,10.3-0.7,14.5-1.2l-30.4-11 M357.1,112.7h0.9l1.2,0.1
		l14.2,1.7 M403,118.3l37.9,6l3.4,0.6 M458,149.7l2.3,1l16.4,7.1l13.8,4.6 M490.8,162.6l-0.2,10.3l-0.1,0.9v1.1l-0.1,0.6l-0.1,0.5
		l-0.6,2l-0.8,1.8c-0.2,0.3-0.4,0.6-0.7,0.9c-0.2,0.2-0.5,0.5-0.8,0.6c-0.5,0.4-1.2,0.6-1.9,0.8l-0.2,0.1l-1.8,0.5l-0.6,0.1
		c-2,0.5-4.1,1-6.3,1.5 M460.9,187.8v-0.3l-15.2,3l-12.4,1.5l-18.4,0.5l-12.1,0.3l-0.1,0.4 M106.9,189.4l-0.6-18.6 M106.3,170.4
		c0-0.1,0.1-0.2,0.1-0.3l0.2-0.4l0.2-0.1l0.1-0.2l0.5-0.2c0.8-0.4,1.1-1.1,1.1-2c0-0.7-0.3-1.4-0.9-1.9c-0.5-0.5-1.1-0.8-1.7-1.1
		c-1-0.3-1.8-0.4-2.3-0.5 M124.5,115.1c5.6-1.1,10.2-1.9,13.8-2.5c9.2-1.3,17.2-2.1,24.1-2.4h3.6l12.8-0.3 M354.4,112.5h0.1
		 M309.2,112.2l0.5-0.1v20.7h0.3 M309.6,139v1.9h-6.3v4.5h-6.1v-4.6H292V139h-0.1 M292,139v-3.3 M354.5,144.5l1.3,0.1l19.1,2v-0.2
		 M354.4,139v5.5h0.1 M402.8,118.3v31.2l1.4,0.2l13,1.6c3.8,0.5,7.7,1,11.7,1.6l25,3.6l6.6,1v-0.1l-0.1-2.1l-0.1-4.5 M393.3,121.9
		L393.3,121.9l9.5,1.1 M402.7,139.4h0.1 M401.5,149.4l1.3,0.1 M375,146.6l26.6,2.8 M393.3,121.9v16.4l9.3,1.2 M444.3,124.9l-0.7,4.2
		 M463.6,158l-2.6,29.5 M460.5,157.5l3.1,0.5 M490.8,162.6l-0.3-0.1 M354.4,144.5v42.2h48.4v6.1h-0.1 M354.4,186.7h-45.8
		 M262.1,184.7h-11.2v8h11.2V184.7z M245,193.6v-7.9"/>
	<path class="st12" d="M244,108.5h1v2.2 M245.3,133.9c4.3,0.9,8.8,1.4,13.3,1.5h0.5v3.5 M291.9,139v-3.3h0.6 M245,140.5v-2.2
		 M245.1,145.4v-4.9 M245,149.7v-4.4 M253.9,145.4h5.2 M245,140.5h-66.2v35.1L245,184v1.8 M245.1,144.2l0.2-10.4 M244,108.5
		c-8.1,0-17.9,0.1-29.5,0.4c-14.8,0.4-26.8,0.8-35.8,1v30.5 M354.5,112.5l2.6,0.2 M358,112.8h0.2l1,0.1 M373.5,114.6l29.6,3.7h-0.2
		 M490.5,162.5h0.3 M490.3,176c-0.3,1.6-0.8,2.9-1.5,3.9 M476.6,184.5c-4.8,1.1-10,2.3-15.7,3.4 M402.8,193.2v0.1h-94.2l-63.6,0.3
		l-70-0.1 M175,193.6l-31.6,0.1c-11.5,0.1-19.8-0.1-25-0.5c-7.3-0.6-11.1-1.9-11.4-3.7v-0.1 M106.2,170.8v-0.1c0-0.1,0-0.2,0.1-0.2
		 M108.6,167.3c0-0.2,0-0.3-0.1-0.5c-0.3-0.9-1.2-1.7-2.6-2.5 M103.7,163.8c-0.2,0-0.4-0.1-0.5-0.1c-0.5-0.1-1.2-0.2-2.1-0.2
		l-0.1-9.6l-0.1,9.6C84.2,163.2,71,161,61.4,157c-9.4-4.9-13.9-9.9-13.4-14.9c0.5-4.5,4.9-9.2,13.4-14c11.3-4.3,24.4-7.4,39.3-9.4
		v-0.2l23.7-3.2h0.2V152l0.1,8.5 M308,140.8l-4.7,0.1 M297.2,140.9l-5.1-0.1 M292,140l-0.1-1 M307.8,134.5c0.6-0.1,1.2-0.1,1.8-0.2
		 M354.5,144.5l1.3,0.1 M354.5,144.5v-0.2 M402.8,149.5h0.2c0.4,0.1,0.8,0.1,1.2,0.2 M454,156.5l6.6,0.9h0.1l-0.1-2.1l-0.2-4.3
		c-0.8-0.4-1.5-0.8-2.2-1.2 M402.7,139.4l-9.4-1v-16.6h0.1l9.5,1.2 M402.8,132.1v8.6 M402.8,133.4l-0.1,6.1 M402.8,149.5h0.2
		 M401.5,149.4l1.3,0.1 M490.5,162.5l-26.9-4.5 M490.6,173.8l0.2-11.2 M490.3,176c0.1-0.7,0.2-1.4,0.2-2.2 M106.4,170.1
		c0.2-0.3,0.6-0.6,1.2-0.8c0.8-0.6,1.1-1.3,1.1-2 M178.7,175.6l-53.8-6.8v-8.3H108l-2.1,3.9 M101.1,153.8l-0.2-35.2 M124.7,152
		l-0.1,8.5 M483.5,182.8c0.6-0.2,1.2-0.3,1.8-0.5h0.1 M402.8,193.2v-2.7 M308.6,186.7v6.6"/>
	<path class="st10" d="M402.8,175v-5.7 M402.8,165.7V160 M402.8,156.4v-2.9 M402.8,181.5v-2.9"/>
	<path class="st13" d="M257,155.4h8.5v8.1H257V155.4z M262.7,183.4h10.1v7.3h-10.1V183.4z"/>
	<text transform="matrix(1 0 0 1 216.3 336.2)" class="st14 st15">LH SIDE</text>
	<circle class="st16" cx="129.5" cy="181.5" r="1.5"/>
	<circle class="st16" cx="159.6" cy="128" r="1.5"/>
	<circle class="st16" cx="218.1" cy="127.9" r="1.5"/>
	<circle class="st16" cx="252.4" cy="140.7" r="1.5"/>
	<circle class="st16" cx="301.1" cy="139" r="1.5"/>
	<circle class="st16" cx="260.8" cy="159.5" r="1.5"/>
	<circle class="st16" cx="256.5" cy="189.1" r="1.5"/>
	<circle class="st16" cx="267.9" cy="187.4" r="1.5"/>
	<circle class="st16" cx="253" cy="178.9" r="1.5"/>
	<circle class="st16" cx="398.3" cy="129.2" r="1.5"/>
	<circle class="st16" cx="429.3" cy="133.7" r="1.5"/>
	<circle class="st16" cx="475.3" cy="174.6" r="1.5"/>
	<circle class="st16" cx="221.3" cy="169.4" r="1.5"/>
	<path class="st12" d="M443.6,129.1c-1.9,9.7-1.2,11.2,14.6,20.7"/>
	<path class="st8" d="M233.1,191.4h4.2c1.1,0,1.6-0.4,1.6-1.3v-4.4c0-0.9-0.5-1.4-1.6-1.4h-7.6c-1.1,0-1.7,0.5-1.7,1.4v4.4
		c0,0.9,0.6,1.3,1.7,1.3H233.1l0.5-1.2"/>
	<path class="st17" d="M186.9,187.1c-0.4-0.5-0.5-1.2-0.5-1.9c0-1,0.4-1.8,1-2.5c0.7-0.7,1.5-1,2.5-1c0.9,0,1.8,0.4,2.5,1
		c0.7,0.7,1,1.5,1,2.5s-0.4,1.8-1,2.5c-0.7,0.7-1.5,1.1-2.5,1.1s-1.8-0.4-2.5-1.1C187.2,187.5,187,187.3,186.9,187.1z"/>
	<circle class="st18" cx="253" cy="178.9" r="3.5"/>
	<polyline class="st19" points="253,178.9 280.1,178.9 280.1,210.2 286,210.2 	"/>
	<polyline class="st19" points="260.8,159.7 287.9,159.7 287.9,170.9 293.8,170.9 	"/>
</g>
</svg>
