<?xml version="1.0" encoding="iso-8859-1"?>
<!-- Generator: Adobe Illustrator 25.0.0, SVG Export Plug-In . SVG Version: 6.00 Build 0)  -->
<svg version="1.1" id="stab-horiz-top" xmlns="http://www.w3.org/2000/svg" xmlns:xlink="http://www.w3.org/1999/xlink" x="0px"
	 y="0px" width="661px" height="453.5px" viewBox="0 0 661 453.5" style="enable-background:new 0 0 661 453.5;"
	 xml:space="preserve">
<path id="clp-hintergrund" style="fill-rule:evenodd;clip-rule:evenodd;fill:#CCCCCC;" d="M445.6,230.2h4c0.6,0,1.2,0.2,1.6,0.7
	c0.4,0.4,0.6,1,0.6,1.6v7.6c0,0.7-0.2,1.2-0.6,1.7s-1,0.7-1.6,0.7h-7.7c-0.6,0-1.1-0.2-1.6-0.7c-0.4-0.4-0.6-1-0.6-1.7v-7.6
	c0-0.6,0.2-1.2,0.6-1.6c0.5-0.5,1-0.7,1.6-0.7H445.6z M460.6,242.5h-4.2c-0.6,0-1.2-0.2-1.6-0.7c-0.5-0.4-0.7-1-0.7-1.7v-7.6
	c0-0.6,0.2-1.2,0.7-1.6c0.4-0.5,1-0.7,1.6-0.7h7.6c0.7,0,1.2,0.2,1.7,0.7c0.5,0.4,0.7,1,0.7,1.6v7.6c0,0.7-0.2,1.2-0.7,1.7
	c-0.4,0.5-1,0.7-1.7,0.7H460.6L460.6,242.5z M475.2,230.1h3.9c0.7,0,1.2,0.2,1.7,0.7c0.5,0.4,0.7,1,0.7,1.6v7.6
	c0,0.7-0.2,1.2-0.7,1.7c-0.4,0.5-1,0.7-1.7,0.7h-7.6c-0.7,0-1.2-0.2-1.6-0.7c-0.5-0.4-0.7-1-0.7-1.7v-7.6c0-0.6,0.2-1.2,0.7-1.6
	c0.4-0.5,0.9-0.7,1.6-0.7H475.2L475.2,230.1z M208.7,229.9h4c0.6,0,1.2,0.2,1.6,0.7c0.4,0.4,0.6,1,0.6,1.6v7.6
	c0,0.7-0.2,1.2-0.6,1.7s-1,0.7-1.6,0.7H205c-0.6,0-1.1-0.2-1.6-0.7c-0.4-0.4-0.6-1-0.6-1.7v-7.6c0-0.6,0.2-1.2,0.6-1.6
	c0.5-0.5,1-0.7,1.6-0.7H208.7L208.7,229.9z M223.9,242.2h-4.2c-0.6,0-1.2-0.2-1.6-0.7c-0.5-0.4-0.7-1-0.7-1.7v-7.6
	c0-0.6,0.2-1.2,0.7-1.6c0.4-0.5,1-0.7,1.6-0.7h7.6c0.7,0,1.2,0.2,1.7,0.7c0.5,0.4,0.7,1,0.7,1.6v7.6c0,0.7-0.2,1.2-0.7,1.7
	c-0.4,0.5-1,0.7-1.7,0.7H223.9z M238.4,230h3.9c0.7,0,1.2,0.2,1.7,0.7c0.5,0.4,0.7,1,0.7,1.6v7.6c0,0.7-0.2,1.2-0.7,1.7
	c-0.4,0.5-1,0.7-1.7,0.7h-7.6c-0.7,0-1.2-0.2-1.6-0.7c-0.5-0.4-0.7-1-0.7-1.7v-7.6c0-0.6,0.2-1.2,0.7-1.6c0.4-0.5,0.9-0.7,1.6-0.7
	H238.4z M604.6,208.2c-0.1,0.8-0.1,1.7-0.2,2.5c-0.5,6.6-1.1,10.8-1.8,12.6l-3.9,11.2v-56.8c1.2,0,1.9,0.2,2.3,0.5
	c1.3,1,2.2,2.7,2.8,4.9c0.6,2.1,0.9,5.2,1,9.3C605.1,197.2,605,202.4,604.6,208.2L604.6,208.2z M598.7,177.8v10.9l-118.6-13.6v-13.8
	l58.3,8.1L598.7,177.8z M422.1,153.3l58,8v13.8l-97-11.2h-28.5v-20L422.1,153.3z M323.7,143.7v20.2h-28.6l-97,11.1v-13.7l63.7-8.9
	L323.7,143.7z M79.5,188.5v-10.8l76.7-10.7l41.9-5.8V175L79.5,188.5z M77.1,178.2c0.4-0.4,1.2-0.6,2.3-0.6v56.9l-3.8-11.3
	c-0.7-1.8-1.3-6-1.8-12.6c-0.1-0.8-0.1-1.6-0.2-2.4c-0.4-5.9-0.5-11.2-0.3-15.8c0.1-4.1,0.5-7.2,1.1-9.4
	C74.9,180.9,75.8,179.3,77.1,178.2L77.1,178.2z M418.1,243.5v-7.4h13.8v7.4h-6.7H418.1z M248.3,236.1h13.8v7.4h-13.8V236.1z"/>
<g id="clp-static-disch">
	<path id="clp-static-disch-hl" style="fill:none;" d="M581.1,334.3h-64.5c-2.5,0-4.5-2-4.5-4.5v-21c0-2.5,2-4.5,4.5-4.5h64.5
		c2.5,0,4.5,2,4.5,4.5v21C585.6,332.3,583.6,334.3,581.1,334.3z M597.5,249.9H590c-2.1-1.1-4.4-1.7-7-1.7h-0.2
		c-4.1,0-7.6,1.5-10.6,4.5l-0.1,0.1c-2.3,2-3.8,4.7-4.1,7.9c-0.2,0.9-0.3,1.9-0.3,2.9c0,4.2,1.5,7.8,4.5,10.8
		c3.1,3.1,6.7,4.6,10.8,4.6h0.1c4.1,0,7.6-1.5,10.6-4.5h3.8c6.6,0,12-5.4,12-12v-0.6C609.5,255.3,604.1,249.9,597.5,249.9z
		 M139.5,335.2H75c-2.5,0-4.5-2-4.5-4.5v-21c0-2.5,2-4.5,4.5-4.5h64.5c2.5,0,4.5,2,4.5,4.5v21C144,333.2,142,335.2,139.5,335.2z
		 M109.6,261c-0.3-3.1-1.9-5.9-4.1-7.9l-0.1-0.1c-3-2.9-6.5-4.4-10.6-4.5h-0.2c-2.5,0-4.9,0.6-7,1.7H80c-6.6,0-12,5.4-12,12v0.6
		c0,6.6,5.4,12,12,12h3.8c3,3,6.5,4.5,10.6,4.5h0.1c4.2,0,7.8-1.5,10.8-4.6c3-3,4.5-6.5,4.5-10.8C109.9,263,109.8,262,109.6,261
		L109.6,261z"/>
</g>
<g id="clp-331al">
	<path id="clp-331al-hl" style="fill:none;" d="M323.7,143.7v20.2h-28.6l-97,11.1v-13.7l63.7-8.9L323.7,143.7L323.7,143.7z
		 M240,94.3h-55.5c-2.5,0-4.5-2-4.5-4.5v-16c0-2.5,2-4.5,4.5-4.5H240c2.5,0,4.5,2,4.5,4.5v16C244.5,92.3,242.5,94.3,240,94.3z"/>
</g>
<g id="clp-331bl">
	<path id="clp-331bl-hl" style="fill:none;" d="M79.5,188.5v-10.8l76.7-10.7l41.9-5.8V175L79.5,188.5z M167.3,147.1h-55.5
		c-2.5,0-4.5-2-4.5-4.5v-16c0-2.5,2-4.5,4.5-4.5h55.5c2.5,0,4.5,2,4.5,4.5v16C171.8,145.1,169.8,147.1,167.3,147.1z"/>
</g>
<g id="clp-334al">
	<path id="clp-334al-hl" style="fill:none;" d="M77.1,178.2c0.4-0.4,1.2-0.6,2.3-0.6v56.9l-3.8-11.3c-0.7-1.8-1.3-6-1.8-12.6
		c-0.1-0.8-0.1-1.6-0.2-2.4c-0.4-5.9-0.5-11.2-0.3-15.8c0.1-4.1,0.5-7.2,1.1-9.4C74.9,180.9,75.8,179.3,77.1,178.2z M57.8,304.5H2.2
		c-2.5,0-4.5-2-4.5-4.5v-16c0-2.5,2-4.5,4.5-4.5h55.5c2.5,0,4.5,2,4.5,4.5v16C62.3,302.5,60.3,304.5,57.8,304.5z"/>
</g>
<g id="clp-332ct">
	<path id="clp-332ct-hl" style="fill:none;" d="M208.7,229.9h4c0.6,0,1.2,0.2,1.6,0.7c0.4,0.4,0.6,1,0.6,1.6v7.6
		c0,0.7-0.2,1.2-0.6,1.7s-1,0.7-1.6,0.7H205c-0.6,0-1.1-0.2-1.6-0.7c-0.4-0.4-0.6-1-0.6-1.7v-7.6c0-0.6,0.2-1.2,0.6-1.6
		c0.5-0.5,1-0.7,1.6-0.7H208.7z M218.3,207.4h-55.5c-2.5,0-4.5-2-4.5-4.5v-16c0-2.5,2-4.5,4.5-4.5h55.5c2.5,0,4.5,2,4.5,4.5v16
		C222.8,205.4,220.8,207.4,218.3,207.4z"/>
</g>
<g id="clp-332bt">
	<path id="clp-332bt-hl" style="fill:none;" d="M223.9,242.2h-4.2c-0.6,0-1.2-0.2-1.6-0.7c-0.5-0.4-0.7-1-0.7-1.7v-7.6
		c0-0.6,0.2-1.2,0.7-1.6c0.4-0.5,1-0.7,1.6-0.7h7.6c0.7,0,1.2,0.2,1.7,0.7c0.5,0.4,0.7,1,0.7,1.6v7.6c0,0.7-0.2,1.2-0.7,1.7
		c-0.4,0.5-1,0.7-1.7,0.7H223.9z M228.5,312.5H173c-2.5,0-4.5-2-4.5-4.5v-16c0-2.5,2-4.5,4.5-4.5h55.5c2.5,0,4.5,2,4.5,4.5v16
		C233,310.5,231,312.5,228.5,312.5z"/>
</g>
<g id="clp-332at">
	<path id="clp-332at-hl" style="fill:none;" d="M238.4,230h3.9c0.7,0,1.2,0.2,1.7,0.7c0.5,0.4,0.7,1,0.7,1.6v7.6
		c0,0.7-0.2,1.2-0.7,1.7c-0.4,0.5-1,0.7-1.7,0.7h-7.6c-0.7,0-1.2-0.2-1.6-0.7c-0.5-0.4-0.7-1-0.7-1.7v-7.6c0-0.6,0.2-1.2,0.7-1.6
		c0.4-0.5,0.9-0.7,1.6-0.7H238.4z M284.4,206.9h-55.5c-2.5,0-4.5-2-4.5-4.5v-16c0-2.5,2-4.5,4.5-4.5h55.5c2.5,0,4.5,2,4.5,4.5v16
		C288.8,204.9,286.8,206.9,284.4,206.9z"/>
</g>
<g id="clp-333at">
	<path id="clp-333at-hl" style="fill:none;" d="M248.3,236.1h13.8v7.4h-13.8V236.1z M305.2,313.4h-55.5c-2.5,0-4.5-2-4.5-4.5v-16
		c0-2.5,2-4.5,4.5-4.5h55.5c2.5,0,4.5,2,4.5,4.5v16C309.7,311.3,307.7,313.4,305.2,313.4z"/>
</g>
<g id="clp-343at">
	<path id="clp-343at-hl" style="fill:none;" d="M418.1,243.5v-7.4h13.8v7.4H418.1L418.1,243.5z M422.2,312.5h-55.5
		c-2.5,0-4.5-2-4.5-4.5v-16c0-2.5,2-4.5,4.5-4.5h55.5c2.5,0,4.5,2,4.5,4.5v16C426.7,310.5,424.7,312.5,422.2,312.5z"/>
</g>
<g id="clp-342at">
	<path id="clp-342at-hl" style="fill:none;" d="M445.6,230.2h4c0.6,0,1.2,0.2,1.6,0.7c0.4,0.4,0.6,1,0.6,1.6v7.6
		c0,0.7-0.2,1.2-0.6,1.7s-1,0.7-1.6,0.7h-7.7c-0.6,0-1.1-0.2-1.6-0.7c-0.4-0.4-0.6-1-0.6-1.7v-7.6c0-0.6,0.2-1.2,0.6-1.6
		c0.5-0.5,1-0.7,1.6-0.7H445.6z M449.7,206.5h-55.5c-2.5,0-4.5-2-4.5-4.5v-16c0-2.5,2-4.5,4.5-4.5h55.5c2.5,0,4.5,2,4.5,4.5v16
		C454.2,204.5,452.2,206.5,449.7,206.5z"/>
</g>
<g id="clp-342ct">
	<path id="clp-342ct-hl" style="fill:none;" d="M475.2,230.1h3.9c0.7,0,1.2,0.2,1.7,0.7c0.5,0.4,0.7,1,0.7,1.6v7.6
		c0,0.7-0.2,1.2-0.7,1.7c-0.4,0.5-1,0.7-1.7,0.7h-7.6c-0.7,0-1.2-0.2-1.6-0.7c-0.5-0.4-0.7-1-0.7-1.7v-7.6c0-0.6,0.2-1.2,0.7-1.6
		c0.4-0.5,0.9-0.7,1.6-0.7H475.2L475.2,230.1z M522.5,207.4H467c-2.5,0-4.5-2-4.5-4.5v-16c0-2.5,2-4.5,4.5-4.5h55.5
		c2.5,0,4.5,2,4.5,4.5v16C526.9,205.4,524.9,207.4,522.5,207.4z"/>
</g>
<g id="clp-342bt">
	<path id="clp-342bt-hl" style="fill:none;" d="M460.6,242.5h-4.2c-0.6,0-1.2-0.2-1.6-0.7c-0.5-0.4-0.7-1-0.7-1.7v-7.6
		c0-0.6,0.2-1.2,0.7-1.6c0.4-0.5,1-0.7,1.6-0.7h7.6c0.7,0,1.2,0.2,1.7,0.7c0.5,0.4,0.7,1,0.7,1.6v7.6c0,0.7-0.2,1.2-0.7,1.7
		c-0.4,0.5-1,0.7-1.7,0.7H460.6L460.6,242.5z M499.4,312.5h-55.5c-2.5,0-4.5-2-4.5-4.5v-16c0-2.5,2-4.5,4.5-4.5h55.5
		c2.5,0,4.5,2,4.5,4.5v16C503.9,310.5,501.9,312.5,499.4,312.5z"/>
</g>
<g id="clp-344ar">
	<path id="clp-344ar-hl" style="fill:none;" d="M604.6,208.2c-0.1,0.8-0.1,1.7-0.2,2.5c-0.5,6.6-1.1,10.8-1.8,12.6l-3.9,11.2v-56.8
		c1.2,0,1.9,0.2,2.3,0.5c1.3,1,2.2,2.7,2.8,4.9c0.6,2.1,0.9,5.2,1,9.3C605.1,197.2,605,202.4,604.6,208.2L604.6,208.2z M652.8,303.6
		h-55.5c-2.5,0-4.5-2-4.5-4.5v-16c0-2.5,2-4.5,4.5-4.5h55.5c2.5,0,4.5,2,4.5,4.5v16C657.3,301.6,655.3,303.6,652.8,303.6z"/>
</g>
<g id="clp-341br">
	<path id="clp-341br-hl" style="fill:none;" d="M598.7,177.8v10.9l-118.6-13.6v-13.8l58.3,8.1L598.7,177.8L598.7,177.8z
		 M577.9,149.7h-55.5c-2.5,0-4.5-2-4.5-4.5v-16c0-2.5,2-4.5,4.5-4.5h55.5c2.5,0,4.5,2,4.5,4.5v16
		C582.4,147.7,580.3,149.7,577.9,149.7z"/>
</g>
<g id="clp-341ar">
	<path id="clp-341ar-hl" style="fill:none;" d="M422.1,153.3l58,8v13.8l-97-11.2h-28.5v-20L422.1,153.3L422.1,153.3z M414.7,93.9
		h-55.5c-2.5,0-4.5-2-4.5-4.5v-16c0-2.5,2-4.5,4.5-4.5h55.5c2.5,0,4.5,2,4.5,4.5v16C419.2,91.9,417.2,93.9,414.7,93.9z"/>
</g>
<g id="clp-system">
	<path style="fill:none;stroke:#000000;stroke-width:0.25;stroke-linecap:round;stroke-linejoin:round;stroke-miterlimit:3;" d="
		M604.6,208.2l17.5,75.3"/>
	<text transform="matrix(1.2825 0 0 1 600.375 295.9298)" style="font-family:'Tahoma'; font-size:13.1033px;">344AR</text>
	<path style="fill:none;stroke:#000000;stroke-width:0.25;stroke-linecap:round;stroke-linejoin:round;stroke-miterlimit:3;" d="
		M538.4,169.4l14-18.5"/>
	<text transform="matrix(1.2825 0 0 1 527.4746 142.3312)" style="font-family:'Tahoma'; font-size:13.1033px;">341BR</text>
	<path style="fill:none;stroke:#000000;stroke-width:0.25;stroke-linecap:round;stroke-linejoin:round;stroke-miterlimit:3;" d="
		M422.1,153.3L394.9,96"/>
	<text transform="matrix(1.2825 0 0 1 363.9736 86.1798)" style="font-family:'Tahoma'; font-size:13.1033px;">341AR</text>
	<path style="fill:none;stroke:#000000;stroke-width:0.25;stroke-linecap:round;stroke-linejoin:round;stroke-miterlimit:3;" d="
		M261.8,152.4l-45.9-57"/>
	<text transform="matrix(1.2814 0 0 1 190.7759 86.1798)" style="font-family:'Tahoma'; font-size:13.1033px;">331AL</text>
	<path style="fill:none;stroke:#000000;stroke-width:0.25;stroke-linecap:round;stroke-linejoin:round;stroke-miterlimit:3;" d="
		M156.2,167l-10.8-19"/>
	<text transform="matrix(1.2814 0 0 1 116.626 139.5812)" style="font-family:'Tahoma'; font-size:13.1033px;">331BL</text>
	<path style="fill:none;stroke:#000000;stroke-width:0.25;stroke-linecap:round;stroke-linejoin:round;stroke-miterlimit:3;" d="
		M208.7,229.9l-13.1-20.1"/>
	<text transform="matrix(1.2801 0 0 1 168.73 199.5812)" style="font-family:'Tahoma'; font-size:13.1033px;">332CT</text>
	<path style="fill:none;stroke:#000000;stroke-width:0.25;stroke-linecap:round;stroke-linejoin:round;stroke-miterlimit:3;" d="
		M238.4,230l12.9-20.2"/>
	<text transform="matrix(1.2801 0 0 1 229.9297 199.0812)" style="font-family:'Tahoma'; font-size:13.1033px;">332AT</text>
	<path style="fill:none;stroke:#000000;stroke-width:0.25;stroke-linecap:round;stroke-linejoin:round;stroke-miterlimit:3;" d="
		M223.9,242.2l-15.5,50.3"/>
	<text transform="matrix(1.2801 0 0 1 179.7803 305.38)" style="font-family:'Tahoma'; font-size:13.1033px;">332BT</text>
	<path style="fill:none;stroke:#000000;stroke-width:0.25;stroke-linecap:round;stroke-linejoin:round;stroke-miterlimit:3;" d="
		M277.8,293.5l-22.2-50"/>
	<text transform="matrix(1.2801 0 0 1 254.4805 305.63)" style="font-family:'Tahoma'; font-size:13.1033px;">333AT</text>
	<path style="fill:none;stroke:#000000;stroke-width:0.25;stroke-linecap:round;stroke-linejoin:round;stroke-miterlimit:3;" d="
		M425.2,243.5l-23.5,49.7"/>
	<text transform="matrix(1.2801 0 0 1 370.6797 305.63)" style="font-family:'Tahoma'; font-size:13.1033px;">343AT</text>
	<path style="fill:none;stroke:#000000;stroke-width:0.25;stroke-linecap:round;stroke-linejoin:round;stroke-miterlimit:3;" d="
		M445.6,230.2L432,209.4"/>
	<text transform="matrix(1.2801 0 0 1 401.7305 198.5812)" style="font-family:'Tahoma'; font-size:13.1033px;">342AT</text>
	<path style="fill:none;stroke:#000000;stroke-width:0.25;stroke-linecap:round;stroke-linejoin:round;stroke-miterlimit:3;" d="
		M460.6,242.5l13.9,49.7"/>
	<text transform="matrix(1.2801 0 0 1 448.6797 304.63)" style="font-family:'Tahoma'; font-size:13.1033px;">342BT</text>
	<path style="fill:none;stroke:#000000;stroke-width:0.25;stroke-linecap:round;stroke-linejoin:round;stroke-miterlimit:3;" d="
		M475.2,230.1l12.5-20.7"/>
	<text transform="matrix(1.2801 0 0 1 471.1289 199.5812)" style="font-family:'Tahoma'; font-size:13.1033px;">342CT</text>
	<path style="fill:none;stroke:#000000;stroke-width:0.25;stroke-linecap:round;stroke-linejoin:round;stroke-miterlimit:3;" d="
		M73.5,208.2l-45.4,75.3"/>
	<text transform="matrix(1.2814 0 0 1 6.4268 295.9298)" style="font-family:'Tahoma'; font-size:13.1033px;">334AL</text>
	<path style="fill:none;stroke:#000000;stroke-width:0.25;stroke-miterlimit:5;" d="M94.2,279l10.2,25.9"/>
	<text transform="matrix(1 0 0 1 88.48 318.185)" style="font-family:'Tahoma'; font-size:11px;">STATIC</text>
	<text transform="matrix(1 0 0 1 73.877 330.835)" style="font-family:'Tahoma'; font-size:11px;">DISCHARGER</text>
	<path style="fill:none;stroke:#000000;stroke-width:0.25;stroke-miterlimit:5;" d="M583,279l-32.1,25"/>
	<text transform="matrix(1 0 0 1 529.889 316.855)" style="font-family:'Tahoma'; font-size:11px;">STATIC</text>
	<text transform="matrix(1 0 0 1 515.285 329.505)" style="font-family:'Tahoma'; font-size:11px;">DISCHARGER</text>
	<text transform="matrix(1 0 0 1 320.98 35.057)" style="fill:#1A171B; font-family:'Tahoma-Bold'; font-size:18px;">TOP</text>
	<path d="M328.6,121.7h-5.7v2.7h5.5v1.1h-5.5v4.6h-1.6v-9.5h7.3L328.6,121.7L328.6,121.7z M343.7,120.6l-3.1,9.5h-1.8l-2.5-7.9
		l-2.4,7.9h-1.8l-3.1-9.5h1.7l2.5,7.9l2.4-7.9h1.7l2.5,8l2.4-8L343.7,120.6L343.7,120.6z M354.8,125.3c0,0.9-0.2,1.7-0.7,2.4
		s-1.1,1.2-1.8,1.6c-0.6,0.3-1.2,0.5-1.9,0.6s-1.5,0.2-2.4,0.2h-2.8v-9.5h2.8c1.2,0,2.1,0.1,2.7,0.2s1.2,0.3,1.7,0.6
		c0.8,0.4,1.4,0.9,1.8,1.6C354.6,123.6,354.8,124.4,354.8,125.3L354.8,125.3z M353.1,125.3c0-0.7-0.2-1.4-0.5-1.9s-0.8-0.9-1.4-1.2
		c-0.4-0.2-0.9-0.4-1.4-0.4c-0.5-0.1-1.1-0.1-1.8-0.1h-1.2v7.4h1.2c0.7,0,1.4,0,1.9-0.1s1-0.3,1.5-0.5c0.6-0.3,1-0.7,1.3-1.2
		C353,126.7,353.1,126,353.1,125.3z"/>
	<path style="fill:none;stroke:#1A171B;stroke-width:0.5;stroke-miterlimit:6.92;" d="M600.6,178.1c0.2,0.1,0.4,0.2,0.5,0.3
		c0.5,0.4,1,1,1.4,1.7c0.6,0.9,1,2,1.4,3.2c0.5,2.1,0.9,5,1,8.9 M354.6,143.9l125.6,17.5l118.6,16.5c0.8,0,1.4,0.1,1.8,0.2
		 M604.9,192.2v0.4c0.3,5.2,0.1,11.2-0.5,18.2c-0.1,1.3-0.2,2.6-0.3,3.7c-0.5,4.5-0.9,7.5-1.5,8.9l-0.4,1.1l-3.5,10.2 M79.4,231.7
		v-54.1c-1.1,0-1.9,0.2-2.3,0.6c-1.3,1.1-2.2,2.7-2.8,4.9c-0.6,2.1-0.9,5.2-1.1,9.4c-0.3,5.2-0.1,11.2,0.5,18.1
		c0.5,6.6,1.1,10.8,1.8,12.6l3.8,11.1l0.1,0.2V231.7z M79.5,188.5L198.1,175v-13.8L79.5,177.7L79.5,188.5L79.5,188.5z M439.5,236.3
		v-3.8c0-0.6,0.2-1.2,0.6-1.6c0.5-0.5,1-0.7,1.6-0.7h7.8c0.6,0,1.2,0.2,1.6,0.7c0.4,0.4,0.6,1,0.6,1.6v7.6c0,0.7-0.2,1.2-0.6,1.7
		c-0.4,0.5-1,0.7-1.6,0.7h-7.8c-0.6,0-1.1-0.2-1.6-0.7c-0.4-0.4-0.6-1-0.6-1.7V236.3z M454.1,236.3v-3.8c0-0.6,0.2-1.2,0.7-1.6
		c0.4-0.5,1-0.7,1.6-0.7h7.6c0.7,0,1.2,0.2,1.7,0.7c0.5,0.4,0.7,1,0.7,1.6v7.6c0,0.7-0.2,1.2-0.7,1.7c-0.4,0.5-1,0.7-1.7,0.7h-7.6
		c-0.6,0-1.2-0.2-1.6-0.7c-0.5-0.4-0.7-1-0.7-1.7V236.3z M469.2,236.3v-3.8c0-0.6,0.2-1.2,0.7-1.6c0.4-0.5,0.9-0.7,1.6-0.7h7.6
		c0.7,0,1.2,0.2,1.7,0.7c0.5,0.4,0.7,1,0.7,1.6v7.6c0,0.7-0.2,1.2-0.7,1.7c-0.4,0.5-1,0.7-1.7,0.7h-7.6c-0.7,0-1.2-0.2-1.6-0.7
		c-0.5-0.4-0.7-1-0.7-1.7V236.3z M323.5,163.9h0.1v-20.1h-0.2L198,161.3 M198.1,175l96.8-11.1h28.6 M248.3,236.1v7.4h13.8v-7.4
		 M418.1,236.1v7.4h13.8v-7.4 M202.7,236.1v-3.8c0-0.6,0.2-1.2,0.6-1.6c0.5-0.5,1-0.7,1.6-0.7h7.8c0.6,0,1.2,0.2,1.6,0.7
		c0.4,0.4,0.6,1,0.6,1.6v7.6c0,0.7-0.2,1.2-0.6,1.7s-1,0.7-1.6,0.7h-7.8c-0.6,0-1.1-0.2-1.6-0.7c-0.4-0.4-0.6-1-0.6-1.7V236.1z
		 M217.3,236.1v-3.8c0-0.6,0.2-1.2,0.7-1.6c0.4-0.5,1-0.7,1.6-0.7h7.6c0.7,0,1.2,0.2,1.7,0.7c0.5,0.4,0.7,1,0.7,1.6v7.6
		c0,0.7-0.2,1.2-0.7,1.7c-0.4,0.5-1,0.7-1.7,0.7h-7.6c-0.6,0-1.2-0.2-1.6-0.7c-0.5-0.4-0.7-1-0.7-1.7V236.1z M232.4,236.1v-3.8
		c0-0.6,0.2-1.2,0.7-1.6c0.4-0.5,0.9-0.7,1.6-0.7h7.6c0.7,0,1.2,0.2,1.7,0.7c0.5,0.4,0.7,1,0.7,1.6v7.6c0,0.7-0.2,1.2-0.7,1.7
		c-0.4,0.5-1,0.7-1.7,0.7h-7.6c-0.7,0-1.2-0.2-1.6-0.7c-0.5-0.4-0.7-1-0.7-1.7V236.1z"/>
	<path style="fill:none;stroke:#000000;stroke-width:0.5;stroke-linecap:round;stroke-linejoin:round;stroke-miterlimit:3;" d="
		M602.5,180c-0.5-1.1-1.2-1.7-1.9-1.9 M604.9,192.6c0.3,4.7,0.3,9.9-0.2,15.7c-0.2,2.1-0.4,4.2-0.6,6.2 M598.7,234.6v27.2h-9.5
		 M604.9,192.1c-0.1-1.6-0.3-3.1-0.5-4.5c-0.5-3.5-1.1-6-1.9-7.6 M598.7,177.8v56.8 M584.3,261.7h4.9 M584.3,261.7H347.8V236h-17.6
		v25.7H103.9 M602.2,224.4l0.3-1.1c0.6-2.8,1.1-5.8,1.5-8.9 M79.3,234.3v-2.6 M79.3,234.3v1.8h127.9 M216.9,236.1h1.8 M228.2,236.1
		h2.2 M240,236.1h90.2v-0.5l-3.5-21.8h24.6l-3.5,21.8v0.5h250.8 M99,261.7h4.9 M94.1,261.7H99 M89.2,261.7h4.9 M79.3,236.1v25.7h9.9
		 M323.5,143.8V164h31v-20.1 M323.5,163.9h-28.6 M240,236.1h-9.6 M216.9,236.1h-9.6 M228.2,236.1h-9.6 M480.1,161.3v13.8l118.6,13.6
		 M480.1,175.1L383,164h-28.5"/>
	<path style="fill:none;stroke:#FF0000;stroke-miterlimit:6.92;" d="M589.2,261.7v12.8 M584.3,261.7v12.8 M584.3,257v4.7
		 M589.2,261.7V257 M579.4,261.7v12.8 M579.4,256.7v5 M574.5,261.7v12.8 M574.5,256.9v4.9 M599.3,253l4.5,16.8 M99,256.7v17.8
		 M103.9,261.7v-4.9 M94.1,257v17.5 M89.2,257v17.5 M79.3,253l-4.6,16.8 M103.9,261.7v12.8"/>
	<path style="fill:none;stroke:#000000;stroke-width:0.45;stroke-linecap:round;stroke-linejoin:round;stroke-miterlimit:3;" d="
		M324.1,115.2h26.5v-10.4h13.2l-26.5-13.3l-26.4,13.3h13.2L324.1,115.2z"/>
	<path style="fill:none;stroke:#000000;stroke-width:0.25;stroke-miterlimit:10;" d="M109.6,261c-0.3-3.1-1.9-5.9-4.1-7.9l-0.1-0.1
		c-3-2.9-6.5-4.4-10.6-4.5h-0.2c-2.5,0-4.9,0.6-7,1.7H80c-6.6,0-12,5.4-12,12v0.6c0,6.6,5.4,12,12,12h3.8c3,3,6.5,4.5,10.6,4.5h0.1
		c4.2,0,7.8-1.5,10.8-4.6c3-3,4.5-6.5,4.5-10.8C109.9,263,109.8,262,109.6,261L109.6,261z M597.5,249.9H590c-2.1-1.1-4.4-1.7-7-1.7
		h-0.2c-4.1,0-7.6,1.5-10.6,4.5l-0.1,0.1c-2.3,2-3.8,4.7-4.1,7.9c-0.2,0.9-0.3,1.9-0.3,2.9c0,4.2,1.5,7.8,4.5,10.8
		c3.1,3.1,6.7,4.6,10.8,4.6h0.1c4.1,0,7.6-1.5,10.6-4.5h3.8c6.6,0,12-5.4,12-12v-0.6C609.5,255.3,604.1,249.9,597.5,249.9z"/>
</g>
</svg>
