<svg id="stab-horiz-bottom" xmlns="http://www.w3.org/2000/svg" viewBox="0 0 978 453.5">
  <style>
    .st0,.st1{fill-rule:evenodd;clip-rule:evenodd;fill:#ccc}.st1{fill:none}.st2{fill:none;stroke:#000;stroke-width:.25;stroke-linecap:round;stroke-linejoin:round;stroke-miterlimit:3}.st3{font-family:&apos;Tahoma&apos;}.st4{font-size:13.1033px}.st5{font-size:13px}.st6{font-size:11px}.st7{fill:none;stroke:#000;stroke-width:.25;stroke-miterlimit:5}.st8{fill:#1a171b}.st9{font-family:&apos;Tahoma-Bold&apos;}.st10{font-size:18px}.st11{fill:none;stroke:#1a171b;stroke-miterlimit:6.92}.st11,.st12{stroke-width:.5}.st12,.st13{fill:none}.st12,.st13{stroke:#000;stroke-linecap:round;stroke-linejoin:round;stroke-miterlimit:3}.st13{stroke-width:.2}.st14,.st15{fill:none;stroke:red;stroke-miterlimit:6.92}.st15{stroke:#000;stroke-width:.25;stroke-miterlimit:10}
  </style>
  <g id="clp-hintergrund">
    <path class="st0" d="M278.8 160.9v13.7l-117.9 13.5v-10.8z"/>
    <path class="st0" d="M401 163.4l-25.6.1-96.6 11.1.1-13.7L401 143.8zm161.3 11.2l-96.5-11-25.6-.3v-19.5l122.1 17.1zm-403.9 3.2c.4-.3 1.1-.4 2.4-.4v56.4l-3.8-11.2c-1.9-10.6-2.7-19.6-2.4-27.1.2-9.9 1.5-15.8 3.8-17.7zm527.1 4.5c.7 2.5 1.2 5.7 1.5 9.7.2 5.2.1 11.2-.5 18.1-.5 6.6-1.1 10.7-1.9 12.5l-3.8 11.2v-56.5c1.1 0 1.9.2 2.3.6 1 .5 1.8 2 2.4 4.4zm-5.2 5.9l-117.9-13.6h-.1v-13.7l118 16.4zm-145.4 38V212h25.8v14.2zm-24.1.1v-14.1H534v14.1zM434.6 212h72.5v14.2h-74.6zm-70.2.3v-.2.2zm.1-.3h42.1l2.1 14.1h-74.5V212h30.3zM309 226.2V212h23.2v14.2zm-28.4 0V212h25.8v14.2zm.3 4.2v-2.7h26.4v6.3h-26.4zm52.4 0l.5.4-.5-.4zm.5.4v3.2h-26.4v-6.3h26.4v3.1zm50.9-.8v-2.3h24.1l1.1 6.4-25.2-.1zm122.8.7l.4-.3-.4.3v-3.1H534v6.3h-26.5zm53 .1l-.3-.4.3.4v3.1H534v-6.3h26.5zm-104.3-3.1v6.3l-25.2.1 1.1-6.4zm193.6-11.9s0 .1 0 0c1.3 1.2 1.9 2.6 1.9 4.3 0 1.7-.6 3.1-1.8 4.3-1.2 1.1-2.6 1.7-4.2 1.7s-3-.6-4.2-1.7c-1.2-1.2-1.8-2.6-1.8-4.3 0-1.6.6-3 1.8-4.2.7-.7 1.6-1.2 2.5-1.5.6-.2 1.1-.3 1.8-.3 1.4 0 2.8.6 4 1.7zm25.2 4.3c0 1.7-.6 3.1-1.8 4.3-1.2 1.1-2.6 1.7-4.2 1.7-1.7 0-3.1-.6-4.3-1.7-1.2-1.2-1.8-2.6-1.8-4.3 0-1.6.6-3 1.8-4.2s2.6-1.8 4.3-1.8c1.5 0 2.8.5 4 1.6l.2.2c1.2 1.2 1.8 2.6 1.8 4.2zm-84.2-21.6l.3-.3-.3.3zm.3-.2c1.2 1.2 1.7 2.6 1.7 4.1 0 1.6-.6 3-1.8 4.2-1.1 1.2-2.5 1.8-4.2 1.8-1.6 0-3-.6-4.2-1.8-1.1-1.2-1.7-2.6-1.7-4.2s.6-3 1.7-4.2c1.2-1.2 2.6-1.8 4.2-1.8 1.7 0 3.1.6 4.3 1.9 0-.1 0-.1 0 0zm-16.2 15.9v.4-.4c1.2.2 2.3.8 3.2 1.7 1.2 1.2 1.8 2.6 1.8 4.2 0 1.7-.6 3.1-1.8 4.3-1.2 1.1-2.6 1.7-4.2 1.7s-3-.6-4.2-1.7c-1.1-1.2-1.7-2.6-1.7-4.3 0-1.6.6-3 1.7-4.2 1.2-1.2 2.6-1.8 4.2-1.8.3 0 .6 0 1 .1zm-50.7-25.7h3.3c.8 0 1.5.3 2.1.9.6.6.9 1.3.9 2.1 0 .9-.3 1.6-.9 2.2-.6.6-1.3.9-2.1.9h-5c-.9 0-1.6-.3-2.2-.9-.6-.6-.9-1.3-.9-2.2 0-.8.3-1.6.9-2.1.6-.6 1.3-.9 2.2-.9h1.7zm-207.3-.2h1.9c.9 0 1.6.3 2.2.9.6.6.9 1.3.9 2.1 0 .9-.3 1.6-.9 2.2-.6.6-1.3.9-2.2.9h-5c-.8 0-1.5-.3-2.1-.9-.6-.6-.9-1.3-.9-2.2 0-.8.3-1.6.9-2.1.6-.6 1.3-.9 2.1-.9h3.1zm-45.4 36.3c-1.1 1.1-2.5 1.7-4.2 1.7-1.6 0-3-.6-4.2-1.7-1.1-1.2-1.7-2.6-1.7-4.3 0-1.6.6-3 1.7-4.2 1.1-1 2.3-1.6 3.8-1.7h.5c1.7 0 3.1.6 4.2 1.7 1.2 1.2 1.8 2.6 1.8 4.2-.1 1.7-.7 3.1-1.9 4.3zm-21.4-17.7c-1.2-1.2-1.8-2.6-1.8-4.3 0-1.6.6-3.1 1.8-4.2 1.2-1.1 2.6-1.7 4.2-1.7 1.7 0 3.1.6 4.2 1.7 1.2 1.2 1.8 2.6 1.8 4.2 0 1.7-.6 3.1-1.8 4.3-1.2 1.1-2.6 1.7-4.2 1.7-1.7 0-3.1-.6-4.2-1.7zm-55.8 7.6l.5.2-.5-.2c.4-.1.8-.1 1.2-.1 1.7 0 3.1.6 4.2 1.7 1.2 1.2 1.8 2.6 1.8 4.2 0 1.7-.6 3.1-1.8 4.3-1.2 1.1-2.6 1.7-4.2 1.7s-3-.6-4.2-1.7c-1.2-1.2-1.8-2.6-1.8-4.3 0-1.6.6-3 1.8-4.2.9-.9 1.9-1.4 3-1.6zm-22.2-.2c1.6 0 3.1.6 4.2 1.7 1.2 1.2 1.8 2.6 1.8 4.2 0 1.7-.6 3.1-1.8 4.3-1.2 1.1-2.6 1.7-4.2 1.7-1.7 0-3.1-.6-4.2-1.7-1.2-1.2-1.8-2.6-1.8-4.3 0-1.1.3-2.1.8-3l.9-1.2c1.2-1.1 2.7-1.7 4.3-1.7zm45.2 11.9l.2-.6-.2.6c-1.2-.2-2.3-.7-3.2-1.6-1.2-1.2-1.8-2.6-1.8-4.3 0-1.6.6-3 1.8-4.2 1.2-1.1 2.6-1.7 4.2-1.7 1.7 0 3.1.6 4.2 1.7 1.2 1.2 1.8 2.6 1.8 4.2 0 1.7-.6 3.1-1.8 4.3-1.1 1.1-2.5 1.7-4.2 1.7-.3 0-.7 0-1-.1zm26.3.1l.1-.3-.1.3c-1.6 0-3-.6-4.1-1.7-1.2-1.2-1.8-2.6-1.8-4.3 0-1.6.6-3 1.8-4.2 1.2-1.1 2.6-1.7 4.2-1.7 1.7 0 3.1.6 4.2 1.7 1.2 1.2 1.8 2.6 1.8 4.2 0 1.7-.6 3.1-1.8 4.3-1.2 1.1-2.6 1.7-4.3 1.7zm349.6-10.4c1.2-1.2 2.6-1.8 4.2-1.8 1.7 0 3.1.6 4.2 1.8 1.2 1.2 1.8 2.6 1.8 4.2 0 1.7-.6 3.1-1.8 4.3-1.1 1.1-2.5 1.7-4.2 1.7-1.6 0-3-.6-4.2-1.7-1.1-1.2-1.7-2.6-1.7-4.3 0-1.6.5-3 1.7-4.2zm30.3 10.2l-.2-.4.2.4h-.7c-1.7 0-3.1-.6-4.2-1.7-1.2-1.2-1.8-2.6-1.8-4.3 0-1.6.6-3 1.8-4.2s2.6-1.8 4.2-1.8 3 .6 4.2 1.8c1.1 1.2 1.7 2.6 1.7 4.2 0 1.7-.6 3.1-1.7 4.3-1 1-2.1 1.5-3.5 1.7zm44.7 4l.3-.1-.3.1zm.3-.1v3.9h-23.9v-6.4h23.9v2.5zm-471.7-2.4v6.3H173v-6.3zM657.9 240h-13.3v-5.9h23.9v5.9h-10.3zm-461.1-5.9v6.3H173v-6.3zm84.1 5.9v-5.8h26.4v5.8h-15.7zm52.9-5.8v6h-26.4v-6zm50.9 6.4v-6.4l25.2-.1v6.5h-13.2zm149.3-6.5v5.9h-26.5v-5.9zm0 6.1v-6.1h26.5v6.1h-11zm-89.5 0H431v-6.1l25.2.1v6z"/>
  </g>
  <g id="clp-332bb">
    <path id="clp-332bb-hl" class="st1" d="M434.6 212h72.5v14.2h-74.6l2.1-14.2zm60.5-12.8h-55.5c-2.5 0-4.5-2-4.5-4.5v-16c0-2.5 2-4.5 4.5-4.5h55.5c2.5 0 4.5 2 4.5 4.5v16c0 2.4-2 4.5-4.5 4.5z"/>
  </g>
  <g id="clp-342bb">
    <path id="clp-342bb-hl" class="st1" d="M364.4 212.3v-.2.2zm.1-.3h42.1l2.1 14.1h-74.5V212h30.3zm31-12.8H340c-2.5 0-4.5-2-4.5-4.5v-16c0-2.5 2-4.5 4.5-4.5h55.5c2.5 0 4.5 2 4.5 4.5v16c0 2.4-2 4.5-4.5 4.5z"/>
  </g>
  <g id="clp-static-disch">
    <path id="clp-static-disch-hl" class="st1" d="M766.4 306.7h-64.5c-2.5 0-4.5-2-4.5-4.5v-21c0-2.5 2-4.5 4.5-4.5h64.5c2.5 0 4.5 2 4.5 4.5v21c0 2.4-2 4.5-4.5 4.5zm-630.5 8.4H71.4c-2.5 0-4.5-2-4.5-4.5v-21c0-2.5 2-4.5 4.5-4.5h64.5c2.5 0 4.5 2 4.5 4.5v21c0 2.5-2 4.5-4.5 4.5zm542.8-60h-7.5c-2.1-1.1-4.4-1.7-7-1.7h-.2c-4.1 0-7.6 1.5-10.6 4.4l-.1.1c-2.3 2-3.8 4.7-4.1 7.9-.2.9-.3 1.9-.3 2.9 0 4.2 1.5 7.8 4.5 10.8 3.1 3.1 6.7 4.6 10.8 4.6h.1c4.1 0 7.6-1.5 10.6-4.5h3.8c6.6 0 12-5.4 12-12v-.6c0-6.5-5.4-11.9-12-11.9zm-487.8 11.2c-.3-3.1-1.9-5.9-4.1-7.9l-.1-.1c-3-2.9-6.5-4.4-10.6-4.4h-.2c-2.5 0-4.9.6-7 1.7h-7.5c-6.6 0-12 5.4-12 12v.6c0 6.6 5.4 12 12 12h3.8c3 3 6.5 4.5 10.6 4.5h.1c4.2 0 7.8-1.5 10.8-4.6 3-3 4.5-6.5 4.5-10.8-.1-1.1-.1-2.1-.3-3z"/>
  </g>
  <g id="clp-331al">
    <path id="clp-331al-hl" class="st1" d="M401 163.4l-25.6.1-96.6 11.1.1-13.7L401 143.8v19.6zm13.1-93.2h-55.5c-2.5 0-4.5-2-4.5-4.5v-16c0-2.5 2-4.5 4.5-4.5h55.5c2.5 0 4.5 2 4.5 4.5v16c0 2.5-2 4.5-4.5 4.5z"/>
  </g>
  <g id="clp-342db">
    <path id="clp-342db-hl" class="st1" d="M309 226.2V212h23.2v14.2H309zm48.6-125.8H302c-2.5 0-4.5-2-4.5-4.5v-16c0-2.5 2-4.5 4.5-4.5h55.5c2.5 0 4.5 2 4.5 4.5v16c.1 2.4-1.9 4.5-4.4 4.5z"/>
  </g>
  <g id="clp-342ab">
    <path id="clp-342ab-hl" class="st1" d="M316.9 188.3h1.9c.9 0 1.6.3 2.2.9.6.6.9 1.3.9 2.1 0 .9-.3 1.6-.9 2.2-.6.6-1.3.9-2.2.9h-5c-.8 0-1.5-.3-2.1-.9-.6-.6-.9-1.3-.9-2.2 0-.8.3-1.6.9-2.1.6-.6 1.3-.9 2.1-.9h3.1zm29.5-114.1h-55.5c-2.5 0-4.5-2-4.5-4.5v-16c0-2.5 2-4.5 4.5-4.5h55.5c2.5 0 4.5 2 4.5 4.5v16c0 2.5-2 4.5-4.5 4.5z"/>
  </g>
  <g id="clp-342eb">
    <path id="clp-342eb-hl" class="st1" d="M280.6 226.2V212h25.8v14.2h-25.8zm34.9-181.7H260c-2.5 0-4.5-2-4.5-4.5V24c0-2.5 2-4.5 4.5-4.5h55.5c2.5 0 4.5 2 4.5 4.5v16c0 2.5-2.1 4.5-4.5 4.5z"/>
  </g>
  <g id="clp-342hb">
    <path id="clp-342hb-hl" class="st1" d="M271.5 224.6c-1.1 1.1-2.5 1.7-4.2 1.7-1.6 0-3-.6-4.2-1.7-1.1-1.2-1.7-2.6-1.7-4.3 0-1.6.6-3 1.7-4.2 1.1-1 2.3-1.6 3.8-1.7h.5c1.7 0 3.1.6 4.2 1.7 1.2 1.2 1.8 2.6 1.8 4.2-.1 1.7-.7 3.1-1.9 4.3zm-35-149.5H181c-2.5 0-4.5-2-4.5-4.5v-16c0-2.5 2-4.5 4.5-4.5h55.5c2.5 0 4.5 2 4.5 4.5v16c0 2.5-2 4.5-4.5 4.5z"/>
  </g>
  <g id="clp-342pb">
    <path id="clp-342pb-hl" class="st1" d="M250.1 206.9c-1.2-1.2-1.8-2.6-1.8-4.3 0-1.6.6-3.1 1.8-4.2 1.2-1.1 2.6-1.7 4.2-1.7 1.7 0 3.1.6 4.2 1.7 1.2 1.2 1.8 2.6 1.8 4.2 0 1.7-.6 3.1-1.8 4.3-1.2 1.1-2.6 1.7-4.2 1.7-1.7 0-3.1-.6-4.2-1.7zm-21.7-71h-55.5c-2.5 0-4.5-2-4.5-4.5v-36c0-2.5 2-4.5 4.5-4.5h55.5c2.5 0 4.5 2 4.5 4.5v36c0 2.5-2 4.5-4.5 4.5z"/>
  </g>
  <g id="clp-331bl">
    <path id="clp-331bl-hl" class="st1" d="M278.8 160.9v13.7l-117.9 13.5v-10.8l117.9-16.4zm-122.4-19.7h-55.5c-2.5 0-4.5-2-4.5-4.5v-16c0-2.5 2-4.5 4.5-4.5h55.5c2.5 0 4.5 2 4.5 4.5v16c0 2.5-2 4.5-4.5 4.5z"/>
  </g>
  <g id="clp-344ar">
    <path id="clp-344ar-hl" class="st1" d="M158.4 177.8c.4-.3 1.1-.4 2.4-.4v56.4l-3.8-11.2c-1.9-10.6-2.7-19.6-2.4-27.1.2-9.9 1.5-15.8 3.8-17.7zm-28.6-8.2H74.3c-2.5 0-4.5-2-4.5-4.5v-16c0-2.5 2-4.5 4.5-4.5h55.5c2.5 0 4.5 2 4.5 4.5v16c0 2.5-2 4.5-4.5 4.5z"/>
  </g>
  <g id="clp-342lb">
    <path id="clp-342lb-hl" class="st1" d="M194.3 214.5l.5.2-.5-.2c.4-.1.8-.1 1.2-.1 1.7 0 3.1.6 4.2 1.7 1.2 1.2 1.8 2.6 1.8 4.2 0 1.7-.6 3.1-1.8 4.3-1.2 1.1-2.6 1.7-4.2 1.7s-3-.6-4.2-1.7c-1.2-1.2-1.8-2.6-1.8-4.3 0-1.6.6-3 1.8-4.2.9-.9 1.9-1.4 3-1.6zm-76.6-17.9H62.2c-2.5 0-4.5-2-4.5-4.5v-16c0-2.5 2-4.5 4.5-4.5h55.5c2.5 0 4.5 2 4.5 4.5v16c0 2.5-2 4.5-4.5 4.5z"/>
  </g>
  <g id="clp-342mb">
    <path id="clp-342mb-hl" class="st1" d="M172.1 214.3c1.6 0 3.1.6 4.2 1.7 1.2 1.2 1.8 2.6 1.8 4.2 0 1.7-.6 3.1-1.8 4.3-1.2 1.1-2.6 1.7-4.2 1.7-1.7 0-3.1-.6-4.2-1.7-1.2-1.2-1.8-2.6-1.8-4.3 0-1.1.3-2.1.8-3l.9-1.2c1.2-1.1 2.7-1.7 4.3-1.7zm-59.7 7.5H56.9c-2.5 0-4.5-2-4.5-4.5v-16c0-2.5 2-4.5 4.5-4.5h55.5c2.5 0 4.5 2 4.5 4.5v16c0 2.5-2 4.5-4.5 4.5z"/>
  </g>
  <g id="clp-343db">
    <g id="clp-343db-hl_1_">
      <path id="clp-343db-hl" class="st1" d="M196.8 234.1v6.3H173v-6.3h23.8zm-80.5 46.3H60.7c-2.5 0-4.5-2-4.5-4.5v-16c0-2.5 2-4.5 4.5-4.5h55.5c2.5 0 4.5 2 4.5 4.5v16c.1 2.5-1.9 4.5-4.4 4.5z"/>
    </g>
  </g>
  <g id="clp-342nb">
    <path id="clp-342nb-hl" class="st1" d="M196.8 227.6v6.3H173v-6.3h23.8zM112.7 248H57.2c-2.5 0-4.5-2-4.5-4.5v-16c0-2.5 2-4.5 4.5-4.5h55.5c2.5 0 4.5 2 4.5 4.5v16c0 2.5-2 4.5-4.5 4.5z"/>
  </g>
  <g id="clp-342kb">
    <path id="clp-342kb-hl" class="st1" d="M217.3 226.2l.2-.6-.2.6c-1.2-.2-2.3-.7-3.2-1.6-1.2-1.2-1.8-2.6-1.8-4.3 0-1.6.6-3 1.8-4.2 1.2-1.1 2.6-1.7 4.2-1.7 1.7 0 3.1.6 4.2 1.7 1.2 1.2 1.8 2.6 1.8 4.2 0 1.7-.6 3.1-1.8 4.3-1.1 1.1-2.5 1.7-4.2 1.7-.3 0-.7 0-1-.1zm-73.5 118H88.2c-2.5 0-4.5-2-4.5-4.5v-16c0-2.5 2-4.5 4.5-4.5h55.5c2.5 0 4.5 2 4.5 4.5v16c.1 2.5-2 4.5-4.4 4.5z"/>
  </g>
  <g id="clp-342jb">
    <path id="clp-342jb-hl" class="st1" d="M243.6 226.3l.1-.3-.1.3c-1.6 0-3-.6-4.1-1.7-1.2-1.2-1.8-2.6-1.8-4.3 0-1.6.6-3 1.8-4.2 1.2-1.1 2.6-1.7 4.2-1.7 1.7 0 3.1.6 4.2 1.7 1.2 1.2 1.8 2.6 1.8 4.2 0 1.7-.6 3.1-1.8 4.3-1.2 1.1-2.6 1.7-4.3 1.7zm-75.4 147.6h-55.6c-2.5 0-4.5-2-4.5-4.5v-16c0-2.5 2-4.5 4.5-4.5h55.5c2.5 0 4.5 2 4.5 4.5v16c0 2.5-2 4.5-4.4 4.5z"/>
  </g>
  <g id="clp-342gb">
    <path id="clp-342gb-hl" class="st1" d="M280.9 230.4v-2.7h26.4v6.3h-26.4v-3.6zm-38.2 144h-55.5c-2.5 0-4.5-2-4.5-4.5v-16c0-2.5 2-4.5 4.5-4.5h55.5c2.5 0 4.5 2 4.5 4.5v16c-.1 2.5-2.1 4.5-4.5 4.5z"/>
  </g>
  <g id="clp-343cb">
    <path id="clp-343cb-hl" class="st1" d="M280.9 240v-5.8h26.4v5.8h-26.4zm3.9 107.3h-55.5c-2.5 0-4.5-2-4.5-4.5v-16c0-2.5 2-4.5 4.5-4.5h55.5c2.5 0 4.5 2 4.5 4.5v16c0 2.5-2.1 4.5-4.5 4.5z"/>
  </g>
  <g id="clp-342fb">
    <path id="clp-342fb-hl" class="st1" d="M333.3 230.4l.5.4-.5-.4zm.5.4v3.2h-26.4v-6.3h26.4v3.1zm29.5 117.4h-55.5c-2.5 0-4.5-2-4.5-4.5v-16c0-2.5 2-4.5 4.5-4.5h55.5c2.5 0 4.5 2 4.5 4.5v16c-.1 2.5-2.1 4.5-4.5 4.5z"/>
  </g>
  <g id="clp-343bb">
    <path id="clp-343bb-hl" class="st1" d="M333.8 234.2v5.8h-26.4v-5.8h26.4zm31.7 140.2H310c-2.5 0-4.5-2-4.5-4.5v-16c0-2.5 2-4.5 4.5-4.5h55.5c2.5 0 4.5 2 4.5 4.5v16c0 2.5-2.1 4.5-4.5 4.5z"/>
  </g>
  <g id="clp-342cb">
    <path id="clp-342cb-hl" class="st1" d="M384.7 230v-2.3h24.1l1.1 6.4-25.2-.1v-4zm12.7 179.8h-55.5c-2.5 0-4.5-2-4.5-4.5v-16c0-2.5 2-4.5 4.5-4.5h55.5c2.5 0 4.5 2 4.5 4.5v16c0 2.5-2 4.5-4.5 4.5z"/>
  </g>
  <g id="clp-343ab">
    <path id="clp-343ab-hl" class="st1" d="M384.7 240.4v-6.2l25.2-.1v6.3h-25.2zm8.3 196.9h-55.5c-2.5 0-4.5-2-4.5-4.5v-16c0-2.5 2-4.5 4.5-4.5H393c2.5 0 4.5 2 4.5 4.5v16c-.1 2.5-2.1 4.5-4.5 4.5z"/>
  </g>
  <g id="clp-332cb">
    <path id="clp-332cb-hl" class="st1" d="M456.2 227.7v6.3l-25.2.1 1.1-6.4h24.1zm29.4 181.7h-55.5c-2.5 0-4.5-2-4.5-4.5v-16c0-2.5 2-4.5 4.5-4.5h55.5c2.5 0 4.5 2 4.5 4.5v16c0 2.5-2 4.5-4.5 4.5z"/>
  </g>
  <g id="clp-333ab">
    <path id="clp-333ab-hl" class="st1" d="M444.5 240.4H431v-6.3l25.2.1v6.2h-11.7zm50.4 196h-55.5c-2.5 0-4.5-2-4.5-4.5v-16c0-2.5 2-4.5 4.5-4.5h55.5c2.5 0 4.5 2 4.5 4.5v16c0 2.5-2 4.5-4.5 4.5z"/>
  </g>
  <g id="clp-332fb">
    <path id="clp-332fb-hl" class="st1" d="M507.5 230.7l.4-.3-.4.3v-3.1H534v6.3h-26.5v-3.2zm11.8 100.2h-55.5c-2.5 0-4.5-2-4.5-4.5v-16c0-2.5 2-4.5 4.5-4.5h55.5c2.5 0 4.5 2 4.5 4.5v16c0 2.5-2 4.5-4.5 4.5z"/>
  </g>
  <g id="clp-333bb">
    <path id="clp-333bb-hl" class="st1" d="M534 234.1v5.9h-26.5v-5.9H534zm-5.8 123.4h-55.5c-2.5 0-4.5-2-4.5-4.5v-16c0-2.5 2-4.5 4.5-4.5h55.5c2.5 0 4.5 2 4.5 4.5v16c0 2.5-2 4.5-4.5 4.5z"/>
  </g>
  <g id="clp-332gb">
    <path id="clp-332gb-hl" class="st1" d="M560.5 230.8l-.3-.4.3.4v3.1H534v-6.3h26.5v3.2zm66.6 97.9h-55.5c-2.5 0-4.5-2-4.5-4.5v-16c0-2.5 2-4.5 4.5-4.5h55.5c2.5 0 4.5 2 4.5 4.5v16c0 2.5-2.1 4.5-4.5 4.5z"/>
  </g>
  <g id="clp-333cb">
    <path id="clp-333cb-hl" class="st1" d="M534 240.4v-6.3h26.5v6.3H534zm94.4 114.9h-55.5c-2.5 0-4.5-2-4.5-4.5v-16c0-2.5 2-4.5 4.5-4.5h55.5c2.5 0 4.5 2 4.5 4.5v16c0 2.5-2 4.5-4.5 4.5z"/>
  </g>
  <g id="clp-332jb">
    <path id="clp-332jb-hl" class="st1" d="M593.2 215.9c1.2-1.2 2.6-1.8 4.2-1.8 1.7 0 3.1.6 4.2 1.8 1.2 1.2 1.8 2.6 1.8 4.2 0 1.7-.6 3.1-1.8 4.3-1.1 1.1-2.5 1.7-4.2 1.7-1.6 0-3-.6-4.2-1.7-1.1-1.2-1.7-2.6-1.7-4.3 0-1.6.5-3 1.7-4.2zm102.1 135h-55.5c-2.5 0-4.5-2-4.5-4.5v-16c0-2.5 2-4.5 4.5-4.5h55.5c2.5 0 4.5 2 4.5 4.5v16c0 2.5-2 4.5-4.5 4.5z"/>
  </g>
  <g id="clp-332kb">
    <path id="clp-332kb-hl" class="st1" d="M766 343.2h-57.4c-1.9 0-3.5-1.6-3.5-3.5v-17.9c0-1.9 1.6-3.5 3.5-3.5H766c1.9 0 3.5 1.6 3.5 3.5v17.9c0 1.9-1.6 3.5-3.5 3.5zM627 224.4c1.1-1.2 1.7-2.6 1.7-4.3 0-1.6-.6-3-1.7-4.2-1.2-1.2-2.6-1.8-4.2-1.8s-3 .6-4.2 1.8c-1.2 1.2-1.8 2.6-1.8 4.2 0 1.7.6 3.1 1.8 4.3 1.1 1.1 2.5 1.7 4.2 1.7h.7l-.2-.4.2.4c1.4-.2 2.5-.7 3.5-1.7z"/>
  </g>
  <g id="clp-333db">
    <path id="clp-333db-hl" class="st1" d="M657.9 240h-13.3v-5.9h23.9v5.9h-10.6zM765 275.1h-55.5c-2.5 0-4.5-2-4.5-4.5v-16c0-2.5 2-4.5 4.5-4.5H765c2.5 0 4.5 2 4.5 4.5v16c-.1 2.5-2.1 4.5-4.5 4.5z"/>
  </g>
  <g id="clp-332nb">
    <path id="clp-332nb-hl" class="st1" d="M668.2 230.1l.3-.1-.3.1zm.3-.1v3.9h-23.9v-6.4h23.9v2.5zm94.2 16.2h-55.5c-2.5 0-4.5-2-4.5-4.5v-16c0-2.5 2-4.5 4.5-4.5h55.5c2.5 0 4.5 2 4.5 4.5v16c0 2.4-2 4.5-4.5 4.5z"/>
  </g>
  <g id="clp-332mb">
    <path id="clp-332mb-hl" class="st1" d="M675 220.1c0 1.7-.6 3.1-1.8 4.3-1.2 1.1-2.6 1.7-4.2 1.7-1.7 0-3.1-.6-4.3-1.7-1.2-1.2-1.8-2.6-1.8-4.3 0-1.6.6-3 1.8-4.2s2.6-1.8 4.3-1.8c1.5 0 2.8.5 4 1.6l.2.2c1.2 1.2 1.8 2.6 1.8 4.2zm88.6-1.9h-55.5c-2.5 0-4.5-2-4.5-4.5v-16c0-2.5 2-4.5 4.5-4.5h55.5c2.5 0 4.5 2 4.5 4.5v16c0 2.5-2 4.5-4.5 4.5z"/>
  </g>
  <g id="clp-334al">
    <path id="clp-334al-hl" class="st1" d="M685.5 182.3c.7 2.5 1.2 5.7 1.5 9.7.2 5.2.1 11.2-.5 18.1-.5 6.6-1.1 10.7-1.9 12.5l-3.8 11.2v-56.5c1.1 0 1.9.2 2.3.6 1 .5 1.8 2 2.4 4.4zm78.1 9.3h-55.5c-2.5 0-4.5-2-4.5-4.5v-16c0-2.5 2-4.5 4.5-4.5h55.5c2.5 0 4.5 2 4.5 4.5v16c0 2.5-2 4.5-4.5 4.5z"/>
  </g>
  <g id="clp-332lb">
    <path id="clp-332lb-hl" class="st1" d="M649.8 215.8s0 .1 0 0c1.3 1.2 1.9 2.6 1.9 4.3 0 1.7-.6 3.1-1.8 4.3-1.2 1.1-2.6 1.7-4.2 1.7s-3-.6-4.2-1.7c-1.2-1.2-1.8-2.6-1.8-4.3 0-1.6.6-3 1.8-4.2.7-.7 1.6-1.2 2.5-1.5.6-.2 1.1-.3 1.8-.3 1.4 0 2.8.6 4 1.7zM761 165.1h-55.5c-2.5 0-4.5-2-4.5-4.5v-16c0-2.5 2-4.5 4.5-4.5H761c2.5 0 4.5 2 4.5 4.5v16c0 2.5-2.1 4.5-4.5 4.5z"/>
  </g>
  <g id="clp-341br">
    <path id="clp-341br-hl" class="st1" d="M680.3 188.2l-117.9-13.6h-.1v-13.7l118 16.4v10.9zm71.5-52.1h-55.5c-2.5 0-4.5-2-4.5-4.5v-16c0-2.5 2-4.5 4.5-4.5h55.5c2.5 0 4.5 2 4.5 4.5v16c0 2.5-2.1 4.5-4.5 4.5z"/>
  </g>
  <g id="clp-332pb">
    <path id="clp-332pb-hl" class="st1" d="M590.8 198.5l.3-.3-.3.3zm.3-.2c1.2 1.2 1.7 2.6 1.7 4.1 0 1.6-.6 3-1.8 4.2-1.1 1.2-2.5 1.8-4.2 1.8-1.6 0-3-.6-4.2-1.8-1.1-1.2-1.7-2.6-1.7-4.2s.6-3 1.7-4.2c1.2-1.2 2.6-1.8 4.2-1.8 1.7 0 3.1.6 4.3 1.9 0-.1 0-.1 0 0zm96.2-83.3h-55.5c-2.5 0-4.5-2-4.5-4.5v-36c0-2.5 2-4.5 4.5-4.5h55.5c2.5 0 4.5 2 4.5 4.5v36c0 2.5-2 4.5-4.5 4.5z"/>
  </g>
  <g id="clp-332hb">
    <path id="clp-332hb-hl" class="st1" d="M574.9 214.2v.4-.4c1.2.2 2.3.8 3.2 1.7 1.2 1.2 1.8 2.6 1.8 4.2 0 1.7-.6 3.1-1.8 4.3-1.2 1.1-2.6 1.7-4.2 1.7s-3-.6-4.2-1.7c-1.1-1.2-1.7-2.6-1.7-4.3 0-1.6.6-3 1.7-4.2 1.2-1.2 2.6-1.8 4.2-1.8.3 0 .6 0 1 .1zm48.2-85.5h-55.5c-2.5 0-4.5-2-4.5-4.5v-16c0-2.5 2-4.5 4.5-4.5h55.5c2.5 0 4.5 2 4.5 4.5v16c0 2.5-2.1 4.5-4.5 4.5z"/>
  </g>
  <g id="clp-332eb">
    <path id="clp-332eb-hl" class="st1" d="M534.9 226.2V212h25.8v14.2h-25.8zm62.9-130.3h-55.5c-2.5 0-4.5-2-4.5-4.5v-16c0-2.5 2-4.5 4.5-4.5h55.5c2.5 0 4.5 2 4.5 4.5v16c0 2.5-2 4.5-4.5 4.5z"/>
  </g>
  <g id="clp-332ab">
    <path id="clp-332ab-hl" class="st1" d="M524.2 188.5h3.3c.8 0 1.5.3 2.1.9.6.6.9 1.3.9 2.1 0 .9-.3 1.6-.9 2.2-.6.6-1.3.9-2.1.9h-5c-.9 0-1.6-.3-2.2-.9-.6-.6-.9-1.3-.9-2.2 0-.8.3-1.6.9-2.1.6-.6 1.3-.9 2.2-.9h1.7zM561.1 64h-55.5c-2.5 0-4.5-2-4.5-4.5v-16c0-2.5 2-4.5 4.5-4.5h55.5c2.5 0 4.5 2 4.5 4.5v16c0 2.5-2 4.5-4.5 4.5z"/>
  </g>
  <g id="clp-332db">
    <path id="clp-332db-hl" class="st1" d="M510.8 226.3v-14.1H534v14.1h-23.2zm5.1-125.5h-55.5c-2.5 0-4.5-2-4.5-4.5v-16c0-2.5 2-4.5 4.5-4.5h55.5c2.5 0 4.5 2 4.5 4.5v16c0 2.5-2.1 4.5-4.5 4.5z"/>
  </g>
  <g id="clp-341ar">
    <path id="clp-341ar-hl" class="st1" d="M562.3 174.6l-96.5-11-25.6-.3v-19.5l122.1 17.1v13.7zM480.7 70.7h-55.5c-2.5 0-4.5-2-4.5-4.5v-16c0-2.5 2-4.5 4.5-4.5h55.5c2.5 0 4.5 2 4.5 4.5v16c0 2.4-2 4.5-4.5 4.5z"/>
  </g>
  <g id="clp-system">
    <path class="st2" d="M649.8 215.8l58.6-62.8"/>
    <text transform="matrix(1.2814 0 0 1 711.727 157.08)" class="st3 st4">
      332LB
    </text>
    <text transform="matrix(1.2814 0 0 1 702.21 128.4)" class="st3 st4">
      341BR
    </text>
    <path class="st2" d="M673 215.7l35-10m-24.5-11l21.9-13.7"/>
    <text transform="matrix(1.2836 0 0 1 711.393 211.114)" class="st3 st4">
      332MB
    </text>
    <text transform="matrix(1.2836 0 0 1 709.941 184.4)" class="st3 st4">
      334AL
    </text>
    <path class="st2" d="M668.2 230.1h.3l39.5 3.6"/>
    <text transform="matrix(1.2825 0 0 1 709.941 239.958)" class="st3 st4">
      332NB
    </text>
    <path class="st2" d="M657.9 238.1h.3l50.2 21.3"/>
    <text transform="matrix(1.2825 0 0 1 712.602 266.824)" class="st3 st4">
      333DB
    </text>
    <path class="st2" d="M590.8 198.5l.3-.3 60.6-85.3"/>
    <text transform="matrix(1.2825 0 0 1 635.85 85.734)" class="st3 st4">
      332PB
    </text>
    <path class="st2" d="M574.9 214.2v.4m0-.4l5.5-87.6"/>
    <text transform="matrix(1.2825 0 0 1 570.94 120.731)" class="st3 st4">
      332HB
    </text>
    <path class="st2" d="M548.9 212l10.3-114.6"/>
    <text transform="matrix(1.2825 0 0 1 545.323 89.68)" class="st3 st4">
      332EB
    </text>
    <path class="st2" d="M524.2 188.5l8.5-120.2"/>
    <text transform="matrix(1.2825 0 0 1 507.973 56.58)" class="st3 st4">
      332AB
    </text>
    <path class="st2" d="M512.3 212.2L494.6 107"/>
    <text transform="matrix(1.2825 0 0 1 464.223 94.28)" class="st3 st4">
      332DB
    </text>
    <path class="st2" d="M472 211.3l-6.4-16.7"/>
    <text transform="matrix(1.2825 0 0 1 441.943 191.35)" class="st3 st4">
      332BB
    </text>
    <path class="st2" d="M364.4 212.3l3.2-17.7"/>
    <text transform="matrix(1.2825 0 0 1 343.873 192.114)" class="st3 st4">
      342BB
    </text>
    <path class="st2" d="M328.9 212l1.6-107.7"/>
    <text transform="matrix(1.2825 0 0 1 304.926 92.731)" class="st3 st4">
      342DB
    </text>
    <path class="st2" d="M316.9 188.3L279.6 62.5h12.2"/>
    <text transform="matrix(1.2825 0 0 1 295.877 67.08)" class="st3 st4">
      342AB
    </text>
    <path class="st2" d="M292.3 212L254.2 38.5h9.7"/>
    <text transform="matrix(1.2825 0 0 1 264.977 37.18)" class="st3 st4">
      342EB
    </text>
    <path class="st2" d="M266.8 214.4L249.2 62.2H237"/>
    <text transform="matrix(1.2825 0 0 1 184.276 66.53)" class="st3 st4">
      342HB
    </text>
    <path class="st2" d="M248.4 199.2l-43.5-58"/>
    <text transform="matrix(1.2825 0 0 1 175.833 107.63)" class="st3 st5">
      342PB
    </text>
    <text transform="matrix(1.2825 0 0 1 181.314 119.336)" class="st3 st6">
      LOGO
    </text>
    <text transform="matrix(1.2825 0 0 1 179.489 130.405)" class="st3 st6">
      LIGHT
    </text>
    <path class="st2" d="M194.3 214.5l.5.2m-.5-.2l-75.8-25.9"/>
    <text transform="matrix(1.2814 0 0 1 67.977 189.678)" class="st3 st4">
      342LB
    </text>
    <path class="st2" d="M166.9 217.3l-46.9-7"/>
    <text transform="matrix(1.2836 0 0 1 61.002 214.521)" class="st3 st4">
      342MB
    </text>
    <path class="st2" d="M173 230.8l-56.8 4.2"/>
    <text transform="matrix(1.2825 0 0 1 60.276 241.632)" class="st3 st4">
      342NB
    </text>
    <path class="st2" d="M183 238.1l-65.3 28.4"/>
    <text transform="matrix(1.2825 0 0 1 65.153 273.581)" class="st3 st4">
      343DB
    </text>
    <path class="st2" d="M217.3 226.2l.2-.6m-.2.6l-42.2 106.4h-30.8"/>
    <text transform="matrix(1.2825 0 0 1 92.214 336.988)" class="st3 st4">
      342KB
    </text>
    <path class="st2" d="M243.6 226.3l.1-.3m-.1.3l-66.9 136.3h-10.6"/>
    <text transform="matrix(1.2833 0 0 1 119.382 366.721)" class="st3 st4">
      342JB
    </text>
    <path class="st2" d="M280.9 230.4l-15.2 7.9-53.5 114.1"/>
    <text transform="matrix(1.2836 0 0 1 188.172 366.03)" class="st3 st4">
      342GB
    </text>
    <path class="st2" d="M291.6 238.2l-37.4 90.2"/>
    <text transform="matrix(1.2825 0 0 1 232.776 340.231)" class="st3 st4">
      343CB
    </text>
    <path class="st2" d="M317.5 238.2l-19.4 121.9H309"/>
    <text transform="matrix(1.2825 0 0 1 314.497 365.778)" class="st3 st4">
      343BB
    </text>
    <path class="st2" d="M333.8 230.8l9.8 7.2-11.4 88.9m1.1-96.5l.5.4"/>
    <text transform="matrix(1.2815 0 0 1 311.428 339.731)" class="st3 st4">
      342FB
    </text>
    <path class="st2" d="M384.7 230l-10.9 8.1 7.2 150.1"/>
    <text transform="matrix(1.2825 0 0 1 343.873 402.368)" class="st3 st4">
      342CB
    </text>
    <path class="st2" d="M396.7 238.5l14.3 43.7v142.7l-13.8-.1"/>
    <text transform="matrix(1.2825 0 0 1 342.402 429.765)" class="st3 st4">
      343AB
    </text>
    <path class="st2" d="M507.5 230.7l.3-.3m-.3.3l-9.9 7.7-4 73"/>
    <text transform="matrix(1.2815 0 0 1 468.883 322.641)" class="st3 st4">
      332FB
    </text>
    <path class="st2" d="M525.2 238.1l12.2 106.1h-11.3"/>
    <text transform="matrix(1.2825 0 0 1 475.481 349.271)" class="st3 st4">
      333BB
    </text>
    <path class="st2" d="M549.5 238.1l7.3 104.6h14.1"/>
    <text transform="matrix(1.2825 0 0 1 573.96 347.689)" class="st3 st4">
      333CB
    </text>
    <path class="st2" d="M560.5 230.8l38.7 55.5v21.6m-38.7-77.1l-.3-.4"/>
    <text transform="matrix(1.2836 0 0 1 573.172 320.231)" class="st3 st4">
      332GB
    </text>
    <path class="st2" d="M597.5 226.1l62.1 101.6"/>
    <text transform="matrix(1.2833 0 0 1 644.021 342.18)" class="st3 st4">
      332JB
    </text>
    <path class="st2" d="M623.5 226.1l-.2-.4m.2.4l26 60 58.5 44.2"/>
    <text transform="matrix(1.2825 0 0 1 712.394 335.458)" class="st3 st4">
      332KB
    </text>
    <path class="st2" d="M445.4 238.5l-21.9 40.9-.1 143.7 15.1-.1"/>
    <text transform="matrix(1.2825 0 0 1 444.168 428.09)" class="st3 st4">
      333AB
    </text>
    <path class="st2" d="M456.5 229.9l10.9 8.2L455.8 389"/>
    <text transform="matrix(1.2825 0 0 1 431.373 401.482)" class="st3 st4">
      332CB
    </text>
    <path class="st7" d="M164 278.5l-32.8 16.6"/>
    <text transform="translate(84.406 296.975)" class="st3 st6">
      STATIC
    </text>
    <text transform="translate(69.802 309.625)" class="st3 st6">
      DISCHARGER
    </text>
    <path class="st7" d="M677.7 281l26.1 6.2"/>
    <text transform="translate(716.815 288.616)" class="st3 st6">
      STATIC
    </text>
    <text transform="translate(702.211 301.266)" class="st3 st6">
      DISCHARGER
    </text>
    <text transform="translate(379.25 28.872)" class="st8 st9 st10">
      BOTTOM
    </text>
    <path class="st0" d="M680.9 177.3v55.2l-.5 1.3v-56.5h.5z"/>
    <path class="st11" d="M680.3 188.2l-117.9-13.6-96.5-11.1-25.6-.2v-19.5l122.1 17.1 118 16.4-.1 10.9zm.1 45.6v-56.5h.5v-.1c1.1 0 1.9.2 2.3.6.9.6 1.6 2.1 2.3 4.4.7 2.5 1.2 5.7 1.5 9.7.2 5.2.1 11.2-.5 18.1-.5 6.6-1.1 10.7-1.9 12.5l-3.8 11.2v-1.2l-.4 1.3v27.3m-5.4-41c0-1.6-.6-3-1.8-4.2s-2.6-1.8-4.2-1.8c-1.7 0-3.1.6-4.3 1.8-1.2 1.2-1.8 2.6-1.8 4.2 0 1.7.6 3.1 1.8 4.3 1.2 1.1 2.6 1.7 4.3 1.7 1.6 0 3-.6 4.2-1.7 1.2-1.2 1.8-2.6 1.8-4.3zm-56.4-4.2c-1.2 1.2-1.8 2.6-1.8 4.2 0 1.7.6 3.1 1.8 4.3 1.2 1.1 2.6 1.7 4.2 1.7s3-.6 4.2-1.7c1.1-1.2 1.7-2.6 1.7-4.3 0-1.6-.6-3-1.7-4.2-1.2-1.2-2.6-1.8-4.2-1.8s-3.1.6-4.2 1.8zm-25.4 0c-1.1 1.2-1.7 2.6-1.7 4.2 0 1.7.6 3.1 1.7 4.3 1.2 1.1 2.6 1.7 4.2 1.7 1.7 0 3.1-.6 4.2-1.7 1.2-1.2 1.8-2.6 1.8-4.3 0-1.6-.6-3-1.8-4.2-1.1-1.2-2.5-1.8-4.2-1.8-1.6 0-3 .6-4.2 1.8zm-2.2-17.7c-1.1-1.2-2.5-1.8-4.2-1.8-1.6 0-3 .6-4.2 1.8-1.1 1.2-1.7 2.6-1.7 4.2s.6 3.1 1.7 4.2c1.2 1.2 2.6 1.8 4.2 1.8 1.7 0 3.1-.6 4.2-1.8 1.2-1.2 1.8-2.6 1.8-4.2s-.6-3-1.8-4.2zm50.4 17.7c-1.2 1.2-1.8 2.6-1.8 4.2 0 1.7.6 3.1 1.8 4.3 1.2 1.1 2.6 1.7 4.2 1.7 1.7 0 3.1-.6 4.2-1.7 1.2-1.2 1.8-2.6 1.8-4.3 0-1.6-.6-3-1.8-4.2s-2.6-1.8-4.2-1.8-3 .6-4.2 1.8zm3.2 18h23.9v-6.4h-23.9v6.4zm0 6.2h23.9v-6h-23.9v6zM384.7 234l9.5.1H410l-1.1-6.4h-24.1l-.1 6.3zm9.4.1l-9.5.1v6.3h25.2v-6.4m-3.2-22.1h-72.4v14.1h74.5l-2.1-14.1zm-5.6-48.6v-19.6l-122.1 17.1v13.7l96.5-11.1 25.6-.1zm-82.2 24.9c.9 0 1.6.3 2.2.9.6.6.9 1.3.9 2.1 0 .9-.3 1.6-.9 2.2-.6.6-1.3.9-2.2.9h-5c-.8 0-1.5-.3-2.1-.9-.6-.6-.9-1.3-.9-2.2 0-.8.3-1.6.9-2.1.6-.6 1.3-.9 2.1-.9h5zm-39.9-24.8v-2.6l-118 16.5v10.8l118-13.5m2 59.3h26.4v-6.3h-26.4v6.3zm0 6.2h26.4v-6h-26.4v6zm-.3-14h25.8V212h-25.8v14.2zm-9.1-1.6c1.2-1.2 1.8-2.6 1.8-4.3 0-1.6-.6-3-1.8-4.2-1.1-1.1-2.5-1.7-4.2-1.7-1.6 0-3 .6-4.2 1.7-1.1 1.2-1.7 2.6-1.7 4.2 0 1.7.6 3.1 1.7 4.3 1.2 1.1 2.6 1.7 4.2 1.7s3-.6 4.2-1.7zm35.9 9.4h26.4v-6.3h-26.4v6.3zm0 6.2h26.4v-6h-26.4v6zM309 212v14.1h23.1V212H309zm253.3-37.4v-13.7m-42 28.4c.6-.6 1.3-.9 2.2-.9h5c.8 0 1.5.3 2.1.9.6.6.9 1.3.9 2.1 0 .9-.3 1.6-.9 2.2-.6.6-1.3.9-2.1.9h-5c-.9 0-1.6-.3-2.2-.9-.6-.6-.9-1.3-.9-2.2 0-.7.3-1.5.9-2.1zm13.7 50.8h26.4v-6H534v6zm0-6h-26.4v6H534v-6zm0-.2h26.4v-6.4H534v6.4zm0-6.3h-26.4v6.4H534v-6.4zm0-1.3v-14.1h-23.2v14.1H534zm.9-.1h25.9V212h-25.9v14.2zm34.7-10.3c-1.1 1.2-1.7 2.6-1.7 4.2 0 1.7.6 3.1 1.7 4.3 1.2 1.1 2.6 1.7 4.2 1.7 1.7 0 3.1-.6 4.2-1.7 1.2-1.2 1.8-2.6 1.8-4.3 0-1.6-.6-3-1.8-4.2s-2.6-1.8-4.2-1.8-3 .6-4.2 1.8zm-137.5 11.8h24.1v6.2l-9.4.1 9.4.1v6.3H431V234l1.1-6.3zm-1.1 6.4h15.8M434.6 212h72.5v14.1h-74.5l2-14.1zm-220.5 4c-1.2 1.2-1.8 2.6-1.8 4.2 0 1.7.6 3.1 1.8 4.3 1.2 1.1 2.6 1.7 4.2 1.7 1.7 0 3.1-.6 4.2-1.7 1.2-1.2 1.8-2.6 1.8-4.3 0-1.6-.6-3-1.8-4.2-1.1-1.1-2.5-1.7-4.2-1.7-1.6 0-3 .6-4.2 1.7zm-18.6-1.7c-1.6 0-3 .6-4.2 1.7-1.2 1.2-1.8 2.6-1.8 4.2 0 1.7.6 3.1 1.8 4.3 1.2 1.1 2.6 1.7 4.2 1.7 1.7 0 3.1-.6 4.2-1.7 1.2-1.2 1.8-2.6 1.8-4.3 0-1.6-.6-3-1.8-4.2-1.1-1.1-2.6-1.7-4.2-1.7zm1.3 13.3H173v6.3h23.9l-.1-6.3zm0 6.5H173v6h23.9l-.1-6zm51.5-31.5c0 1.7.6 3.1 1.8 4.3 1.2 1.1 2.6 1.7 4.2 1.7 1.7 0 3.1-.6 4.2-1.7 1.2-1.2 1.8-2.6 1.8-4.3 0-1.6-.6-3.1-1.8-4.2-1.2-1.1-2.6-1.7-4.2-1.7s-3 .6-4.2 1.7c-1.2 1.1-1.8 2.6-1.8 4.2zm-8.8 13.4c-1.2 1.2-1.8 2.6-1.8 4.2 0 1.7.6 3.1 1.8 4.3 1.2 1.1 2.6 1.7 4.2 1.7 1.7 0 3.1-.6 4.2-1.7 1.2-1.2 1.8-2.6 1.8-4.3 0-1.6-.6-3-1.8-4.2-1.2-1.1-2.6-1.7-4.2-1.7-1.7 0-3.1.6-4.2 1.7zm-81.1-38.2c-2.2 1.9-3.5 7.8-3.9 17.7-.3 7.5.5 16.5 2.4 27.1l3.8 11.2v-56.4c-1.2 0-2 .1-2.3.4zm2.5-.5h-.1m7.1 38.7c-1.2 1.2-1.8 2.6-1.8 4.2 0 1.7.6 3.1 1.8 4.3 1.2 1.1 2.6 1.7 4.2 1.7s3.1-.6 4.2-1.7c1.2-1.2 1.8-2.6 1.8-4.3 0-1.6-.6-3-1.8-4.2-1.2-1.1-2.6-1.7-4.2-1.7s-3.1.6-4.2 1.7zm-7.2 45.1v-27.4"/>
    <path class="st12" d="M457.9 163.4h-81.2m-215.8 97.7h250.9M408 212l3.8 23.1m0 0v26m-1.9-27.1h-249m268.5 1.5h-17.6m-252.6-58c-1.8.4-3.2 3.5-4 9.4s-.9 12.8-.3 20.8c.4 4.9 1 9.8 2 14.8m.1.2l3.9 11.3M408 212h12.6M401 163.4v-19.5m279.3 117.2H429.4m3.7-49.1l-3.7 23.1m0 0v26m2-27.1h248.9m-247.2-22h-12.5m19.6-48.6v-19.5"/>
    <path class="st13" d="M401 144.6l-.7-.6"/>
    <path class="st14" d="M170.6 261.3v17.5m4.9-17.5v17.5m4.9-17.8v17.8m4.9-17.6v17.6m-24.7-21.5l-4.5 16.8m514.5-12.8v17.5m-4.9-17.5v17.5m-4.9-17.8v17.8m-4.9-17.6v17.6m24.8-21.5l4.5 16.8"/>
    <path class="st15" d="M190.9 266.3c-.3-3.1-1.9-5.9-4.1-7.9l-.1-.1c-3-2.9-6.5-4.4-10.6-4.4h-.2c-2.5 0-4.9.6-7 1.7h-7.5c-6.6 0-12 5.4-12 12v.6c0 6.6 5.4 12 12 12h3.8c3 3 6.5 4.5 10.6 4.5h.1c4.2 0 7.8-1.5 10.8-4.6 3-3 4.5-6.5 4.5-10.8-.1-1.1-.1-2.1-.3-3zm487.8-11.2h-7.5c-2.1-1.1-4.4-1.7-7-1.7h-.2c-4.1 0-7.6 1.5-10.6 4.4l-.1.1c-2.3 2-3.8 4.7-4.1 7.9-.2.9-.3 1.9-.3 2.9 0 4.2 1.5 7.8 4.5 10.8 3.1 3.1 6.7 4.6 10.8 4.6h.1c4.1 0 7.6-1.5 10.6-4.5h3.8c6.6 0 12-5.4 12-12v-.6c0-6.5-5.4-11.9-12-11.9z"/>
    <text transform="matrix(1.2825 0 0 1 365.848 61.7)" class="st3 st4">
      331AL
    </text>
    <text transform="matrix(1.2825 0 0 1 431.374 62.2)" class="st3 st4">
      341AR
    </text>
    <text transform="matrix(1.2825 0 0 1 106.7 133.471)" class="st3 st4">
      331BL
    </text>
    <text transform="matrix(1.2825 0 0 1 77.763 161.9)" class="st3 st4">
      344AR
    </text>
    <path class="st2" d="M192.2 178.8l-37.8-41m2.7 56.1l-28.5-34.3m239.6-1v-.2l16.5-91.3m72.4 91.1L445.4 64"/>
    <text transform="matrix(1.2825 0 0 1 640.152 97.998)" class="st3 st6">
      LOGO
    </text>
    <text transform="matrix(1.2825 0 0 1 638.326 109.067)" class="st3 st6">
      LIGHT
    </text>
    <path class="st2" d="M641.3 179l58.5-55.4"/>
  </g>
</svg>
