<svg version="1.1" id="Ebene_1" xmlns="http://www.w3.org/2000/svg" xmlns:xlink="http://www.w3.org/1999/xlink" x="0" y="0" viewBox="0 0 714.4 624.8" xml:space="preserve">
  <style>
    .st1{fill:none;stroke:#020203;stroke-width:.45;stroke-linecap:round;stroke-linejoin:round}.st5{font-family:&apos;ArialMT&apos;}.st7{fill:#020203}.st8{font-size:10px}.st9{fill:#24211d}.st10{fill:#2d83c5}.st11{fill:#049148}.st12{fill:#e73f11}.st13{font-size:8.5864px}.st14{font-size:11px}.st15{font-size:9px}.st16{fill:#fff}.st18{fill:#009fe3}.st19{fill:#009640}.st20{fill:none;stroke:#e73f11;stroke-miterlimit:10}
  </style>
  <path d="M400.4 76.1V60.9h-27.6v15.2h27.6zM419 184.7h-42.9l-.4.1-.1.1h-.2l-.2.1-.6.4-.2.1-.2.1-.2.2-.1.1-.2.1-.2.2-.1.2-.1.1-.3 1.1v.2l-.1.2v32.4l.1.2v.2l.3 1.1.1.1.1.2.2.2.2.1.1.1.2.3h.2l.2.1.6.4.2.1.7.2h43.1l.7-.2.2-.1.1-.1.2-.1.3-.2.2-.1h.1l.2-.3.1-.1.1-.1.2-.2.1-.2.1-.1.1-.2.3-1.1v-32.8l-.3-1.1-.1-.2-.1-.1-.1-.2-.2-.2-.1-.1-.1-.1-.2-.2-.1-.1-.2-.1-.3-.2-.2-.1-.1-.1-.2-.1h-.2l-.2-.1-.3-.1h-.2zm-23.9 66.9l-.2.1-.5.1-.2.1-.1.1-.2.1-.2.1-.2.3-.3.2-.4.6v.1l-.1.2v.2l-.1.1-.1.4v33.4l.1.4.1.2v.1l.1.1v.2l.1.1.1.2.2.2.3.3.1.1.1.1.2.1.2.1.6.4.4.1.2.1h43.3l.2-.1.4-.1.2-.1.2-.1.1-.1.2-.1.5-.3.1-.1.1-.1.1-.1.1-.1.1-.1.1-.2.1-.1v-.2l.2-.3.2-.8v-33.1l-.2-.7-.2-.4v-.1l-.2-.3-.1-.1-.1-.1-.1-.1-.1-.1-.3-.3-.3-.2-.2-.1-.1-.1-.5-.1-.2-.1-.5-.1h-.4l-.2-.1h-41.5l-.2.1h-.4l-.6.1zm6.8-132.9l-.2-.1-.1-.2-.2-.2-.2-.1-.2-.1-.2-.1h-.1l-1-.2h-42.3l-1.1.2-.3.2-.2.1-.3.2-.1.2-.2.1-.3.3-.1.2-.2.1-.1.2-.1.1-.1.1-.1.2-.1.1-.1.1V154l.2.6.1.3.1.2.3.6.2.1.1.1.7.6.1.1.2.1 1.2.4h.4l.2.1h41.5l.2-.1h.4l.9-.2.2-.1.2-.1.2-.1.1-.1.3-.2.5-.4v-.1l.2-.1.2-.2.1-.2.1-.1.1-.2.2-1.1v-32.8l-.2-1.1-.1-.1-.1-.2-.3-.4-.2-.1v-.2l-.4-.3z" fill="#da271e"/>
  <path id="Layer15_16_MEMBER_4_1_STROKES" class="st1" d="M397.8 39.4h-.5v.9l-1.1.2-.8-.2-.4-.9.4-.7.8-.4 1.1.4v.7m-3.8 0h-.2l-2 4.8L387 46l-4.5-1.8-2-4.8 2-4.5 4.5-1.6 4.3 1.6 2 4.5M241.3 324h-.5l3.9 3.9h282.1l3.9-3.9V35l-3.9-3.9h-282l-3.9 3.9h.5m285.4-3.9h.5m-226.7 8.3h-.2l-.5 1.6-2 .8-1.6-.8-.6-1.6.6-1.6 1.6-.7 2 .7.5 1.6m-.9 0h-.5l-.2.9-.9.2-.7-.2-.5-.9.5-.7.7-.4.9.4.2.7m-6.1-4.5l-4.5-1.6-4.3 1.6-2 4.5 2 4.8 4.3 1.8 4.5-1.8 2.1-4.8-2.1-4.5zm-12.1 4.5l-.4 1.6-1.8.8-1.6-.8-.8-1.6.8-1.6 1.6-.7 1.8.7.4 1.6h.5m-1.6 0l-.4.9-.7.2-.9-.2-.2-.9.2-.7.9-.4.7.4.4.7h.5m5.6-2.7l-1.1 2.7 1.1 2.8 2.5.9 2.8-.9 1.1-2.8-1.1-2.7-2.8-.7-2.5.7zm92.7 2.7h-.4v.9l-1.2.2-.9-.2-.2-.9.2-.7.9-.4 1.2.4v.7m-2.8 1.6l1.6.8 1.8-.8 1-1.6-1-1.6-1.8-.7-1.6.7-.9 1.6.9 1.6zm8.9-4.3l-1.1 2.7 1.1 2.8 2.7.9 2.3-.9 1.3-2.8-1.3-2.7-2.3-.7-2.7.7zm6.3 2.7h.2m140 284.6h.4M240.9 34.9v289"/>
  <path id="Layer15_16_MEMBER_5_1_STROKES" class="st1" d="M394.6 41l1.6.8 2-.8.7-1.6-.7-1.6-2-.7-1.6.7-.7 1.6.7 1.6zm4.3-1.6h.5m74.3 1.6l1.8.8 1.6-.8.9-1.6-.9-1.6-1.6-.7-1.8.7-.5 1.6.5 1.6zm23.6-1.6l-.7 1.6-1.7.8-2-.8-.2-1.6.2-1.6 2-.7 1.7.7.7 1.6h.4m-1 0h-.5l-.4.9-.7.2-.8-.2-.2-.9.2-.7.8-.4.7.4.4.7m-21.4-.7l-.5.7.5.9.7.2.9-.2.2-.9-.2-.7-.9-.4-.7.4zm1.8.7h.5m5.4 2.8l2.8.9 2.8-.9.7-2.8-.7-2.7-2.8-.7-2.8.7-1.1 2.7 1.1 2.8zm9.4-2.8h-.4l-1.8 4.8-4.3 1.8-4.5-1.8-2-4.8 2-4.5 4.5-1.6 4.3 1.6 1.8 4.5m-2.8 0h.4M288.3 312l-4.3 1.9-2 4.8 2 4.2 4.3 1.8 4.5-1.8 2.1-4.2-2.1-4.8-4.5-1.9zm8.9 5.6l-.5 1 .5.6.7.4.9-.4.2-.6-.2-1-.9-.2-.7.2zm1.8 1h.5m1.1 0h-.2l-.5 1.5-2 .7-1.6-.7-.6-1.5.6-2.1 1.6-.2 2 .2.5 2.1m-15.7 0l1.1 2.6 2.5.7 2.8-.7 1.1-2.6-1.1-2.8-2.8-1.1-2.5 1.1-1.1 2.8zm-7.7-2.1l-.8 2.1.8 1.5 1.6.7 1.8-.7.4-1.5-.4-2.1-1.8-.2-1.6.2zm.7 1.1l-.2 1 .2.6.9.4.7-.4.4-.6-.4-1-.7-.2-.9.2zm3.1 1h.5m-1.6 0h.5"/>
  <path id="Layer15_16_MEMBER_6_1_STROKES" class="st1" d="M254.1 179h-.5l-.7 2.2-2.8 1.1-2.8-1.1-.9-2.2.9-2.7 2.8-1.1 2.8 1.1.7 2.7m139.9 139.6h-.2l-2 4.2-4.3 1.8-4.5-1.8-2-4.2 2-4.8 4.5-1.9 4.3 1.9 2 4.8m-4.1-2.8l-2.3-1.1-2.7 1.1-1.1 2.8 1.1 2.6 2.7.7 2.3-.7 1.3-2.6-1.3-2.8zm1.3 2.8h.2m-12.6 0v.6l-1.2.4-.9-.4-.2-.6.2-1 .9-.2 1.2.2v1h.4m1.2 0l-1-2.1-1.8-.2-1.6.2-.9 2.1.9 1.5 1.6.7 1.8-.7 1-1.5zm112.2 0h-.4l-1.8 4.2-4.3 1.8-4.5-1.8-2-4.2 2-4.8 4.5-1.9 4.3 1.9 1.8 4.8m3.5-2.3l-2 .2-.2 2.1.2 1.5 2 .7 1.7-.7.7-1.5-.7-2.1-1.7-.2zm0 1.1l-.8.2-.2 1 .2.6.8.4.7-.4.4-.6-.4-1-.7-.2zm1.2 1.2h.5m.6 0h.4m-9 0l-.7-2.8-2.8-1.1-2.8 1.1-1.1 2.8 1.1 2.6 2.8.7 2.8-.7.7-2.6h.4m-13.6-1.2l-.7.2-.5 1 .5.6.7.4.9-.4.2-.6-.2-1-.9-.2zm2.5 1.2l-.9-2.1-1.6-.2-1.8.2-.5 2.1.5 1.5 1.8.7 1.6-.7.9-1.5zm-1.4 0h.5m-78.2 0l-.7 1.5-2 .7-1.6-.7-.7-1.5.7-2.1 1.6-.2 2 .2.7 2.1h.5m-3.1-1.2l-.8.2-.4 1 .4.6.8.4 1.1-.4v-1.6l-1.1-.2zm1.1 1.2h.5"/>
  <path id="Layer15_16_MEMBER_7_1_STROKES" class="st1" d="M252.9 68.3h-.5l-.7 2.1-1.6.2-1.6-.2-.7-2.1.7-1.6 1.6-.7 1.6.7.7 1.6m-2.2-1.1l-.9.5-.2.6.2.9.9.2.7-.2.5-.9-.5-.6-.7-.5zm6.6 10.8l-2 4.5-4.5 1.6-4.8-1.6L244 78l1.4-4.8 4.8-1.3 4.5 1.3 2.1 4.8h.5m-3.7 0l-.7 2.8-2.8.7-2.8-.7-.9-2.8.9-2.6 2.8-.9 2.8.9.7 2.6h.5m-1.2 9.8h-.5l-.7 1.8-1.6.4-1.6-.4-.7-1.8.7-1.6 1.6-.9 1.6.9.7 1.6m-3.4 0l.2.7.9.4.7-.4.5-.7-.5-.9-.7-.5-.9.5-.2.9zm2.3 0h.4m-.4-19.5h.4m1.2 101h-.5l-.7 1.6-1.6.9-1.6-.9-.7-1.6.7-1.8 1.6-.5 1.6.5.7 1.8m4.8 9.7h-.5l-2 4.4-4.5 1.8-4.8-1.8-1.4-4.4 1.4-4.5 4.8-2 4.5 2 2 4.5m-4.3 9.7l-.7 1.5-1.6.7-1.6-.7-.7-1.5.7-1.6 1.6-.9 1.6.9.7 1.6h.5m-1.1-19.4h-.4l-.5 1-.7.1-.9-.1-.2-1 .2-.6.9-.5.7.5.5.6m-2.1 18.5l-.2.9.2.6.9.5.7-.5.5-.6-.5-.9-.7-.2-.9.2zm2 .9h.4m2.4 91.2h-.5l-.7 2.7-2.8 1.1-2.8-1.1-.9-2.7.9-2.2 2.8-1.1 2.8 1.1.7 2.2m3.6 0h-.5l-2 4.8-4.5 1.8-4.8-1.8-1.4-4.8 1.4-4.2 4.8-1.8 4.5 1.8 2 4.2"/>
  <path id="Layer15_16_MEMBER_8_1_STROKES" class="st1" d="M528.4 179h-.4l-1.8 4.4-4.8 1.8-4.3-1.8-1.8-4.4 1.8-4.5 4.3-2 4.8 2 1.8 4.5M240.9 59.5h-1.2l-2.6 2.2h-.1v20.6l.1.1 2.6 2.1h1.6m-.4 149.6h-1.2l-2.6 2.1-.1.1V257l2.7 2.5h1.6m11.6 10.7h-.5l-.7 2-1.6.6-1.6-.6-.7-2 .7-1.4 1.6-.9 1.6.9.7 1.4m.5 19.9h-.5l-.7 1.3-1.6 1-1.6-1-.7-1.3.7-2.1 1.6-.6 1.6.6.7 2.1m-1.6-20.6h-1.6l-.2.7.2 1.4h1.6l.5-1.4-.5-.7zm-1.8 20.6l.2.6h1.6l.5-.6-.5-1.4h-1.6l-.2 1.4zm2.3 0h.4m-.4-19.9h.4m268.1-1.4l-.7 1.4.7 2 1.7.6 2-.6.2-2-.2-1.4-2-.9-1.7.9zm.5 1.4l.4 1.4h1.6l.2-1.4-.2-.7h-1.6l-.4.7zm2.2 0h.5m.7 0h.4m1.6 9.7h-.4l-1.2 2.7-2.7 1.1-2.3-1.1-1.1-2.7 1.1-2.2 2.3-1.1 2.7 1.1 1.2 2.2m-8.2-4.2l-1.8 4.2 1.8 4.8 4.3 1.8 4.8-1.8 1.8-4.8-1.8-4.2-4.8-1.8-4.3 1.8zm5.9 14.4h-.5l-.2.6h-1.6l-.4-.6.4-1.4h1.6l.2 1.4m1.6 0h-.4l-.2 1.3-2 1-1.7-1-.7-1.3.7-2.1 1.7-.6 2 .6.2 2.1m4.3-10.2h.4"/>
  <path id="Layer15_16_MEMBER_9_1_STROKES" class="st1" d="M523 68.3h-.5l-.2.9-.8.2-.8-.2-.4-.9.4-.6.8-.5.8.5.2.6m1.6 0h-.4l-.2 2.1-2 .2-1.7-.2-.7-2.1.7-1.6 1.7-.7 2 .7.2 1.6m4.7 9.7h-.4l-1.8 4.5-4.8 1.6-4.3-1.6-1.8-4.5 1.8-4.8 4.3-1.3 4.8 1.3L528 78m-2.7 0l-1.2 2.8-2.7.7-2.3-.7L518 78l1.1-2.6 2.3-.9 2.7.9 1.2 2.6h.4m-5.9 8.2l-.7 1.6.7 1.8 1.7.4 2-.4.2-1.8-.2-1.6-2-.9-1.7.9zm3.2 1.6h-.5l-.2.7-.8.4-.8-.4-.4-.7.4-.9.8-.5.8.5.2.9m1.2 0h.4m6.6 30.7h11.8l.7-.5.4-.7-.4-.6-.7-.4h-11.8m0-6h11.8m-11.8-1.7h11.8M525.3 179l-1.2 2.2-2.7 1.1-2.3-1.1-1.1-2.2 1.1-2.7 2.3-1.1 2.7 1.1 1.2 2.7h.4m-3.4-10.4l-.8-.5-.8.5-.4.6.4 1 .8.1.8-.1.2-1-.2-.6zm1.1-1.1l-2-.5-1.7.5-.7 1.8.7 1.6 1.7.9 2-.9.2-1.6-.2-1.8zm.3 1.8h.4m-1.6 0h.5m-2.3 18.5l-.4.9.4.6.8.5.8-.5.2-.6-.2-.9-.8-.2-.8.2zm-.9-.7l-.7 1.6.7 1.5 1.7.7 2-.7.2-1.5-.2-1.6-2-.9-1.7.9zm3.9 1.6h.4m-1.6 0h.5"/>
  <path id="Layer15_16_MEMBER_10_1_STROKES" class="st1" d="M530.7 86.4h11.8l.7-.2.4-.4-.4-.7-.6-.3-.2-.1h-11.8m.1 17.5h12.5l.4-.7-.4-.6-.7-.5h-11.8m0-5.9h11.8l.7-.2.4-.9-.4-.6-.7-.5h-11.8m11.8 18l.7-.2.4-.9-.4-.7h-.5m-12 17.7h12.5l.4-.7-.4-.9-.7-.2h-11.8m0 9.9h11.8l.7-.4.4-.7-.4-.9-.7-.2h-11.8m0 9.4h12.5l.4-.7-.4-.7-.7-.5h-11.8m0 10h11.8l.7-.2.4-.9-.4-.7h-12.5m0 7.7h11.8l.7.5.4.6-.4.5-.7.1h-11.8m0 8.3h11.8l.7-.2.4-.9-.4-.7-.7-.4h-11.8m11.8 17.7l.7-.4.4-.9-.4-.7h-.5m-12-5.9h11.8l.7-.2.4-.9-.4-.6-.7-.5h-11.8"/>
  <path id="Layer15_16_MEMBER_11_1_STROKES" class="st1" d="M530.7 59.5H542m.6 25l1.8-2V62.3l-2.8-2.8m3.2 2.8h-.4m-13.7 12.1l2.5.9 1.8-.9 1.1-2.2L535 70l-1.8-.7-2.5.7m13.7 12.5h.4m-14.1 106.4h11.8l.7-.2.4-.9-.4-.7-.7-.5h-11.8m0 10.2h11.8l.7-.4.4-.5-.4-.7-.7-.4h-11.8m0 7.2h11.8l.7.5.4.9-.4.7-.7.4h-11.8m0 7.7h12.5l.4-.9-.4-.6-.7-.5h-11.8m0-31.2h11.8m-11.8 2h11.8m-11.8 39.3h11.8l.7-.4.4-.7-.4-.9h-12.5m0 9.7h11.8l.7-.5.4-.4-.4-.7-.7-.4h-11.8m0 34.7h10.2l.1-.1 2.6-2.1v-20.6l-2-1.8h-10.9m13.2 1.8h-.2m-2.1-1.8h.9l.7-.5.4-.9-.4-.6-.7-.5h-11.8m0 16.7l2.5.7 1.8-.7 1.1-2.2-1.1-2.5-1.8-.7-2.5.7m12.9 12.9h.2"/>
  <path id="Layer15_16_MEMBER_12_1_STROKES" class="st1" d="M329.9 237.5l-2.5 2.4.5-.4.9-.4.7-.2h1.5l.7.2.9.4.2.5.9.6.2 1.1v.9l.4 1.2v1.1l-.4.7-.2 1.1-.9 1.6-1.6.9-.6.2h-.8l-.9-.2-.7-.5-1-.4-.2-.7-1-.9-.2-1.1v-3l.7-2 .5-.5-1 .9m1.4 9.3l-.7.2-.7-.2-.9.2H324l-.6-.2-1.6-1.6-.9-.7-.2-1.4-.5-1.1v-3.4l.7-1.1.4-1.1.7-.9.9-.2.7-.5 1.1-.5h2.2l.4-.4m-1.3 12.9l-1.3-.5-.8-.4-.6-.7-.5-.7-.9-2.5-.2-1.1.2-1.1v-1.1l.5-1.1.9-1.1.2-.9.9-.2 1.2-.9m1.8-.1h-.4l-3.4 3.2h.4m3.2-1l.2-.2-.1.1-.1.1zm-4.8 24.5l-1.6 1.1-.2 1.2-.9 2.2v2.5l.9 2.2 1.4 1.6.9.2.7.4 1.1.4.8-.4-3.8-2.8v-6.5l3.7-3.2h-2l-1 1.1zm-.7 2.2h1.9l2.6-2.1v-.2h.2l1.4-1.2h-2.2l-.1.2-.1.1m1.1 1l-.2.2-.2.5-.9.4-.4.8-.2 1.3-.5.7v3.2l.6 1.3.1.5.9.9 1.8 1.1h1l1.1-.5.4-.4.8-.2 1.1-1.6.5-1.1v-3.2l-.5-.7-.7-2.1-.9-.4-.2-.2-.6-.4h-.5l-1.1-.5-.7.5h-.7zm1.8-1.2h-.5l1.5 1.2h.1l.5.4m-6.3 1.8v6.2l.4-.1h.6m.9 3.3l.5.4h1.9l-4.3-3.1v-.5l-1.9.4m9.3.9h-.4l-2.8 2.2h.5"/>
  <path id="Layer15_16_MEMBER_13_1_STROKES" class="st1" d="M421.9 186.7l-.7-1.1-1.1-.7h-44.3l-1.7.7-.4 1.1h.4m46 37l1.1-.6.7-1.6h.5m-76.1-8.6v-8.1m-11.9 10.1h10.2m-23.3-22.3h3.9m7.4 24.1v22.9h.2m-1.1-.5l-1.7-1.5-.1-.1h-2.5m3.2 13.1h-2.7l-4.3-3v-6.5h2.6m.1 6.1h-.3v.4l4.1 3 2.5-2.2h.2m-9.2-.8l2.4-.4v-6.1m47.8-19.7l.4 1.6 1.7.6m-54.6 54.5h9.8m-11.9-83.8V276h.5"/>
  <path id="Layer15_16_MEMBER_14_1_STROKES" class="st1" d="M414.9 223.7h-1.8l-1 1.2.5 1.1 1.1.4 1.2-.4.5-1.1-.5-1.2h5.2m1.8-37v34.8h.5m-46.4 2.2h17.5l1.1-.4 1.4.4h17.1m-6.6 0l-.9 1.2.9 1.1 1.1.4 1.1-.4.5-1.1-.9-1.2m-12.3 0l.2 1.2h.4m-3.1-1.2h2.5m.3 1.2l-.3 1.1-1.4.4-1.1-.4-.6-1.1.6-1.2m6.6 0l-.7 1.2.5 1.1 1.1.4 1.2-.4.4-1.1-.4-1.2m-28.4-2.3v-34.8h.4m-53.6 29l-.9 2.2v2.4l.9 2.3 1.4 1.5.9.8h.7l1.1.4.8-.4-3.8-2.8v-6.5l.2-.1 3.5-3.1h-.9l-2 .9-1.6 1.1-.3 1.3zm4.8-3.2l.1-.1.1-.2h2.7m-.4.1l-4.3 3.4v6.2l.4-.1h.6l-.6-1.4v-3.1l.5-.7.7-2.1.9-.4.2-.2 1-.4h1.8l.5.4 1.5.6.2 1.2.9 1.6v3.1l-.5 1.1-1.1 1.6-.8.2-.4.4-1.1.5h-1l-1.8-1.1-.9-.9-.1-.5m-.9.2v.4l4.3 3.1h.5m-.5 0H326l-.5-.4m-1.9-3.1l-1.9.4m67.5 1.5l.4 1.2-.4 1.1-1.1.4-1.2-.4-.5-1.1.9-1.2m-4.2 0l.6 1.2-.2 1.1-1.1.4-1.2-.4-.4-1.1.4-1.2"/>
  <path id="Layer15_16_MEMBER_15_1_STROKES" class="st1" d="M265 55.7h-.5v15.8h1.6V55.7l.7-1.1 1.4-.5v-1.8l-2.5 1.1-1.2 2.2m13.6 8.4h-3.5v-2.9h-1v-2.3h-5v-1.6h1.2V54H268v1.6h.2m-27.3-4.9h27.5m-.3 0v1.6m-2 3.4h2m-7.5 0v-4.9m58 10.5h4.8v-2.5h-44.8v2.3h.2m-4.1 0h3.9m-.9 2.9v-2.9m.9-2.3h-4.8m-3.9-1.5h2.8v-3.2h-2.8m53.4 10.4h-4.2v-3.2m186.4-7.2H327.2v3.2h1.1v1.6h-3.9V80h.2m-1.3-18.7h.2m1-2.5h-1.1m-.5 2.5v3.2m-50.2-10.4h54.5m0 3.2h-54.5m-6.6 14.2h.4m53.2 122.8h-.5l.9-1.6 1.1-.2h-1.6l-1.6.2-.2 1.6v81.8l.2 1.5 1.6.5h1.6l-1.1-.5-.9-1.6m2.5-83.4h-.5m8.7 21.2l-2-1.6h.5m-6.7 3.4h2.2m20.3-.7l1.6-.9.4-1.1m-11.8 2l-1.5.2-.2 1.5m-4.8 8.7l2.8-2.2h.4M272.7 79.9h51.8m6.1 198.2l1.1-.5.9-1.6h.2m-11.5 2.1h.5m-80.9 28h23.6m0-234.6v230.8h.5"/>
  <path id="Layer15_16_MEMBER_16_1_STROKES" class="st1" d="M354.7 120.1h-.5v35l.5 1.1 1.6 1h17.9l1.2-.5.7.5h24.4l1.2-1 .9-1.1v-35l-.9-1.1-1.2-.9h-44.2l-1.6.9-.5 1.1m46.3-2.1h.5m1.6 37h.2m-9.5 2.1l-.4 1.1.4 1.1 1.2.4 1.1-.4.5-1.1-.5-1.1m-2.3 96.6h-.4v34.8l.4 1.6 1.4.6h44.1l1.6-.6.6-1.6v-34.8l-.6-1.1-1.6-.7h-44.1l-1.4.7-.4 1.1m-128.4-198h-3.8m57.9 3.1v2.5h.4m5.5-4v-3.2h.2m39.1 103l.7 1.1-.5 1.1-1.1.4-1.2-.4-.7-1.1.7-1.1m8.2 0l.4 1.1-.4 1.1-1.2.4-1.1-.4-.5-1.1.7-1.1m12.5 0l-.5 1.1.5 1.1 1.1.4 1.2-.4.5-1.1-.5-1.1m-5.4 1.1h-.2l-.9 1.1-.7.4-1.2-.4-.8-1.1.8-1.1h1.8l.9 1.1m10-1.1l-.7 1.1.2 1.1 1.6.4 1.1-.4.4-1.1-.7-1.1M272.7 58.8v21.1h.5m44.9 130.7h-4.5v17.6h-49.1m49.1-17.6V209h-49.1M441 288.5h.5"/>
  <path id="Layer15_16_MEMBER_17_1_STROKES" class="st1" d="M264.5 200.7h25.7V186h-25.7m26.1 14.7h-.5m.1-14.7h.5m-26.2 6.1h2.3v2.2h-2.3m0 40.2h1.7m-.6 0v5.7H277v-3h13.6v4.1l3.8.4v-7.2h24.8m-51.5 6.8h-.5v.9h4.3m0 3.4h-4.3v.5h.5m-.5-.5v-3.4m3.9 3.4v-3.4m-6.6 11.1h1.2v-13.1m-.1 13.1h.5m-.5-7.2h1.6m0-4.8h-1.6m11.8-1.1h-.4v8.1h.4m14.3-5.4H282v3.6h9.7v-3.6zm-1.1-1.6v1.5m29.1 10.5h-25.2v-6.1l-3.8.4v4.3H277v-3.6h-11.4m23.4 3.6v-5.4m-3.4 5.4v-5.4m1.4 5.4v-5.4m-5 0v5.4m8.6-5.4v1.1m4.4-5.8h-.5v5.5h.5m-13-10.1v5.6m7 .1v-5.6m-2-.1v5.6m-1.4.1v-5.6m-21.1 22.5h49.1v1.6h4.5m-4.5-35h4.5m0 50.8h-4.5v2h-49.1m0 6.6h2m0 16.5h-.4l.7 1.1.9.5v-2h-1.6v.4m1.6-.4h.5m-7.6 0v4.2h.5m7-.6h-.5v.6h.5m-3.6-3.8l.9 2.1 2.3 1.1v-1.6h237.8m-241 2.2h3.2m-1.6-20.3v16.1m47.5-40.5v15.8"/>
  <path id="Layer15_16_MEMBER_18_1_STROKES" class="st1" d="M278.8 251.9l1.6 7.9h.4m5-7.9l1.6 7.9h.5m-1.2-31.6l-1.1 9m-5.9-9l-1.1 9m25.7 42.1l25.2 12 27.5 3.4h.4v-4.2h4.3v-1.2h.5v-2.7h5.5m-5.5 3.7h-.5v2.2h6.2v-3.4h-5.7m.7-.6v-1.6h3.4v1.6h-3.4zm4.3-2v2.7m5 1.1h-.5v2.2h.5m-4.4-3.3h.4m-.4 1.1h3.8m-4.9 2.3v.9h1m-10.3 1.1v5.9h2.1v-1.1h1.1v-1.6h-.9v-3.1h2.5v-1.1h.7v-.9m-.7 1.9h5v-1.1m-.5 0h-3.8m-3.4 7h10.9v-1.1h-9.8m11.6 1.1h-.5v3.4h.5m-1.9-3.4h1.3v-7.9h-3.8m2.8 6.8h-.2m-1.6 0v-1.6h-8.2m8.2 0h.7v-3.1h-2.2m-2.4 3.1v-3.1m-2.7-.1v.4m-68.9-16.2l19.3 12.6 21.8 8 23 2.2v-1.1m.5 1.1h-.5v2.2m4.3-11.2h-4.3m-64.1-8.8l1.1.4.7-.4 1-1.1-1-1.1-.7-.4-1.1.4-.5 1.1.5 1.1zm2.8 2l.6 1.1.9.5 1.1-.5.2-1.1-.2-1.1-1.1-.5-.9.5-.6 1.1zm2.9 0h.5m-.5 3l.5 1.4 1.2.2 1.1-.2.4-1.4-.4-1.1-1.1-.2-1.2.2-.5 1.1zm3.2 0h.5m2.7 2.4l-1.1-.5-1.1.5-.5 1.1.5.6 1.1.5 1.1-.5.5-.6-.5-1.1zm.4 1.2h.2"/>
  <path id="Layer15_16_MEMBER_19_1_STROKES" class="st1" d="M394 251.9V244h-35.5v12.9h12.1M358.5 244v-2.2H394v-8.1l2.7-2.9h1.6m-4.3 11v2.2h.5m-.5-10.4h.5m42.2-2.9l2.8 2.9h.4m-.5 0v2.8h.4m-118.1 42.4h12.7v-18.5h-1.8m34.6 3.4l-4.3 2-1.6 3.9 1.6 3.9 4.3 1.5 3.8-1.5 1.6-3.9-1.6-3.9-3.8-2zm-8.2-3.9h-.5v-2.9m34.4 9.3l-4.4-2-4.3 1.1-1.8 4.3 1.8 4.3 4.3 1.1 4.4-2.2h.4m-22.3-3.3l-1.1 2.8-2.8 1.1-2.8-1.1-1.2-2.8 1.2-2.7 2.8-1.2 2.8 1.2 1.1 2.7h.5m-1.6 0l-1.7-2.2h-2.7l-1.2 2.2 1.2 2.3h2.7l1.7-2.3zm2.7 0h.5m-77 19.3l-1-1.1-.7-.2-1.1.2-.5 1.1.5 1.4 1.1.2.7-.2 1-1.4zm13.6-6.6l-.4-1.1-1.1-.7-1 .4-.2.1m-5.2 4.5l.4 1.1 1 .4h1.3m1.3 1.1v1.1l.7 1 1.2.2.9-.7m-.5 4.6l-1.2-.2-.8.2-.2 1.1.2 1.4.8.2 1.2-.2.5-1.4-.5-1.1zm-5.9 1.1l-.4 1.4-1.1.2-1.2-.2-.5-1.4.5-.6 1.2-.7 1.1.7.4.6h.5m-3.7-2.9l-.2.6-1.1.5-1.4-.5-.2-.6.2-1.1 1.4-.5 1.1.5.2 1.1h.5m-6.2 3.8l1.1.5.7-.5 1-1.1-1-1.1-.7-.4-1.1.4-.5 1.1.5 1.1zm100-17.4h-58.8m58.8-18.5h-58.8"/>
  <path id="Layer15_16_MEMBER_20_1_STROKES" class="st1" d="M392.4 269.5h-.5l-1.2 2.8-2.7 1.1-2.8-1.1-1.1-2.8 1.1-2.7 2.8-1.2 2.7 1.2 1.2 2.7m-1.1 0l-1.1-2.2h-3.2l-1.1 2.2 1.1 2.3h3.2l1.1-2.3z"/>
  <path id="Layer15_16_MEMBER_21_1_STROKES" class="st1" d="M383.1 244.9h-.5l3.1 5.7-2.2 6.3-6.3 2.7-5.7-2.7-2.5-6.3 3.2-5.7h10.5m-5.5 3.9l-1.3.7-.9 1.5.9 2.1 1.3.6 2-.6.7-2.1-.7-1.5-2-.7zm2.7 2.2h.5m.8 13.1h-.4v10.8h.4m-.4-10.8l.6-2.3 2.2-.7h8.7m-22-4.2l6.8 3.4 7.5-3.4h8.6m-.3 21.2h-9.2l-2.2-.9-.6-2.3m-9.2 19.7h9.8l3.7-4.5-.5-6-3.8-3.8-1-.4-5.7.4-4.2 3.8v6.2h.4M359 278.8h-.5v3.1h12.1l6.6-3.1 2.7 1.2.5-.1.5.5 3.3 1.5h9m-17.4 4.1l-.9 2 .9 1.6 1.3.7 2-.7.7-1.6-.7-2-2-.6-1.3.6zm4.1 2h.5m-21.9 2.3v-8.4h-.2m120.8-7.6h-.4l-16.4 11.5-18.2 7.2-7.5 1.1v.5h.5m-65.4 7h52.5l21.2-3.2 19.8-7.6 17-12h.4m-45.9 11.5v3.8l-12.5 1.6h-52.5m39.1-1.5l.7-.7.5-.9-.5-1.2-.7-.2-1.3.2-.2 1.2.2.9 1.3.7zm-5.5-.7l.2-.9-.2-1.2-1.4-.2-1.1.2-.2 1.2.2.9 1.1.7 1.4-.7zm.3-.9h.4m-24.5 2h14.8v-3.9m.4 3.9h-.4v1.1m28.8-3.1h-.5l-.5.9-1.2.7-1.5-1.6.9-1.2.6-.2 1.2.2.5 1.2m-7.7-1.4l-1.1.2-.4 1.2.4.9 1.1.7 1.1-.7.5-.9-.5-1.2-1.1-.2zm1.6 1.4h.2"/>
  <path id="Layer15_16_MEMBER_22_1_STROKES" class="st1" d="M472.8 269.5h-.2l-2.1 4.3-3.8 1.6-4.3-1.6-1.8-4.3 1.8-4.3 4.3-1.6 3.8 1.6 2.1 4.3m-31.6 8.6h8.9l2.5-.9 1.1-2.3v-10.8l-1.1-2.3-2.5-.7H441m.4 11.6l3.9 2.2 4.3-1.1 1.8-4.3-1.8-4.3-4.3-1.1-3.7 2m49.1 8.8l3.2-3.3-.5-4.3-2.7-3.1-4.8-.5-2.9 3.2h.5m13.3 12.4l2.5-.9.8-2.2v-12.4l-.8-2.2-2.5-.7h-30.2m33.9 2.8h-.4m0 12.4h.4m-29.5-6.6h-.5l-1.1 2.8-2.7 1.1-2.8-1.1-1.2-2.8 1.2-2.7 2.8-1.2 2.7 1.2 1.1 2.7m-2.3-2.2h-.5l1.6 2.2-1.6 2.3H465l-1.2-2.3 1.2-2.2h2.7m-18.1 2.2l-1.1 2.8-2.8 1.1-2.7-1.1-1.3-2.8 1.3-2.7 2.7-1.2 2.8 1.2 1.1 2.7h.2m-2.2-2.2h-.5l1.4 2.2-1.4 2.3h-2.7l-1.4-2.3 1.4-2.2h2.7m6.6 7.6h-.2m-12.5 4.4h31.9m-57.6 16.9l-.5-1.1-.7-.9-2 .9v1.1h.5m-3.9 0V295l-.6-.9h-1.4l-.7.9v1.6h.5m-4.3 0v-1.4l-1-1.1h-1.1l-.7 1.1v1.4h.5m30.6-3.1l.5-.9-.5-1.2-1.1-.2-.9.2-.8 1.2.8.9.9.7 1.1-.7zm-2.7 1.8l-.8-.6h-1.4l-.9 1.1h.5m-3.7-.1l-.2-1.1-1.1-.5-1.4.5-.2 1.5"/>
  <path id="Layer15_16_MEMBER_23_1_STROKES" class="st1" d="M441 257.1h8.1m7.8-35l3.2 20.1 7 19.2h.2m-15.4-29.6l8.9 31.6h.4m-10.9-18.5h4.3m-15.2-.4h15.2m-15.2-2.3h14.8m26.1 5.4l.5 1.1 1.1.5 1.2-.5.5-1.1-.5-.9-1.2-.6-1.1.6-.5.9zm-5-5.4v18.5m20.9-14.2l-.4 1.1.4 1.1.7.5 1.4-.5.2-1.1-.2-1.1-1.4-.4-.7.4zm2.2 1.1h.5m-234.4 54.3h-3.8M508.6 55.2v232.1h.2m22.4 19.7h-26.3v-4.7h1.3v-14.9h2.4v14.9h2.8v4.8m-19.1-37.6h-.5l-1.1 2.8-2.7 1.1-2.8-1.1-1.2-2.8 1.2-2.7 2.8-1.2 2.7 1.2 1.1 2.7m-1.8-2.2h-.4l1.2 2.2-1.2 2.3h-2.7l-1.6-2.3 1.6-2.2h2.7m1.6 7.6h-.4l-7.2 3.4-1.1.4-3.8-4.2.6-1.1 3.7-6.5h.5m-11.4 12.6l3.4 4.7h.5m7.6-5.9l-4.2-5M455 295.7h20.2v-1.1h-18.4m18.5 1.1v2.3h-28.2m61.5 4.3v.5h.2m-2.2-.5h-.4v.5h.4m-1.8 1.1l1.2-.5.2-.6m2.4-.1l-1.1 2.2-2.5 1.1h-.2m-22.9-26.7h15.5m-22.1 5.4v10m-7.1-12.1h-5.5l-7-3.4-7 3.4H441m17.5 5l-1.6-1.6H455l-1.5 1.6.2 2.5h.4m7.1 4.5l2.3-3.2h.4"/>
  <path id="Layer15_16_MEMBER_24_1_STROKES" class="st1" d="M362.2 74.4h-.5l4.5 5.4h40.9l5.4-5V54.1h.5m-3.8 19.2h-9.1v2.5h-27v-2.5h-8.7v-9.4h8.7v-2.7h27v2.7h9.1m-1.1 4.4h-.5l-.9 2.1-1.8.6-2-.6-.7-2.1.7-1.8 2-.9 1.8.9.9 1.8h-.4l-.7 1.6-1.6.7-2-.7-.2-1.6.2-1.6 2-.7 1.6.7.7 1.6m-3.3-1.1l-.7 1.1.7 1.6h1.7l.9-1.6-.9-1.1h-1.7zm105 15.3h-2.7V56.4h-.7v-2.1l-.5-.2h.5V51h25.7m-25.7 3.1v.2l.5.2.2.7v1.1h.4m2-1.1l-.8-2.2-2.3-1.2m3.1 4.6h3V51M407.2 79.9h.4m5.5-5h-.5m36.1 182.2l5 3.1 5.4-.4h.4m-9.2-14.9l-2.7 5 1.2 5.9 4.8 3.4 5.7-.4h.4m-4.4-9.6l-1.5 1.1-.2 1.8 1.5 1.6h2.3m6.5.5v-4.9l-2.2-4.2m-1.2 24l.2-5.7 5.9-2.2h.4m-6.9 1.1l6.1-2.5h.5m.4 1.6l3.9 3.8m-14.1-11l6.4-2.2m-3.7 8.7H441m24.1-3.6h10.4M399.4 74.9h-25.7V61.8h25.7v13.1zm.7-1.6v-9.4m8.6 9.4v-9.4m-35.6-.1v9.4h.2m-11.6-19.1v20.4"/>
  <path id="Layer15_16_MEMBER_25_1_STROKES" class="st1" d="M371 68.3l-.7 1.6-1.6.7-1.6-.7-.9-1.6.9-1.6 1.6-.7 1.6.7.7 1.6h.5l-.9-1.8-1.8-.9-2.1.9-.7 1.8.7 2.1 2.1.6 1.8-.6.9-2.1m-.9 0h-.2l-.9 1.6h-1.6l-.7-1.6.7-1.1h1.6l.9 1.1m-75.3 74.6l.5-.5h.5v-.5l.2-.4v-1.9l-.2-.4-.5-.2h-.5v-.4m-4.9-2.7v.6h8.8m-8.8 0v14h.5m8.1-5.8h-4.3l-1.6 2.7h.5m1.7-1.8l-1.1 1.8h.5m-1.6 0h-.5v-4.5m8.6-3.6v11.5h.5m-11.3-.3h-25.7m31.1 38.4h-2.3l.5.5v.5l.2.4v1.4l-.2.4-.5.5v.2h1.8l.5-.2h.5v-.5l.2-.4v-1.8h-.2v-.5l-.5-.5zm-2.3 3.9h-.9v5.2h.5l1.6-2.8h3.2v-8.6h-5.2v2.2h.9m4.2-2.1h1.3m-6.5 6.1h-.7l-.4-.2v-.5h-.2v-2.2l.2-.5v-.5h1.1m9.1 5.4h-.5l-1.1 2.5-2.3 1.1h-4.7m6.1-2.7h-1.3m-2.6.3L294 198m4.8-11.3v8.6m-8.6 2.7h2.2m0-11.3h-2.2"/>
  <path id="Layer15_16_MEMBER_26_1_STROKES" class="st1" d="M421.9 211.3h8.6l3.1-2.6.3-.8h.5l-.8.8-.8 1.5-2.3 1.1m-4.7-14.2l-3.9 2.2h.5l-.5 6.5 3.9 2.5 4.3-1.6 2-4.3-2-4.3-4.3-1zm5.6-2.6l1.5.7 1.1 2.3-2.6-3-.9-.4h.5l.4.4zm-166.9-50.3h.5l-.5-2.2h2.3v2.2H265m29.5-8.3l-1.1.6h-.5l1.6-.6h4.3l.4.4 1.5.8 1.1 2.2.4 11.5h-.4v-11.5l-1.6-1.9.9 1.9-2.2-2.4.2 7.8h-.2v-7.8l-.6-.8-.5-.2m-2.8 7h-2.8l-.5-.5h-.4v-.5l-.2-.4v-2.2h.2v-.3h.4l.5-.4h.2v-2.1l.5 2.1h2.1m-2.1 4.3l1-1v-.4l.2-.2v-1.6l-.2-.4-.5-.2h-.5l-.5-.4h.5m6.2-2.4l.5.6.2.1.2.4-.5-.5-.8-.4-.1.4m-.7-1l.2.2.7.4m-.4-.6l.8.4m-1.3 8.4l-.2-8.1v8.1h.2zm-33.4-8.8h26.2m6.9 62.1h.8l3-3 .3-.7h.4l-.8.7-.8 1.8-2.2 1.1m66.8 4.6l1.1 2.7 2.8 1.2 2.7-1.2 1.4-2.7-1.4-2.7-2.7-1.1-2.8 1.1-1.1 2.7zm.5-4.3l-1.8 4.3 1.8 4.3 4.3 1.6 3.8-2.5h.4l-.4-6.5-3.8-2.2-4.3 1zm2.2 2l-1.6 2.2 1.6 2.2h2.8l1.1-2.2-1.1-2.2h-2.8zm-6.1-2.7h.5l3-3.4-2.8 1.1-.7 2.3.5 10.4h-.5l3.9 3.4h8.6m-8.6 0h-.5l-2.8-1.1-.7-2.2v-10.4m11.5 4.9h.2m-8.2-8.4h8.6"/>
  <path id="Layer15_16_MEMBER_27_1_STROKES" class="st1" d="M433.9 197.5v10.4h.5m-5-8.1l-2.8-1.1-3.2 1.1-1.1 2.7 1.1 2.7 3.2 1.2 2.8-1.2 1.1-2.7-1.1-2.7zm-1.1.4h-.5l1.7 2.2-1.7 2.2h-2.7l-1.6-2.2 1.6-2.2h2.7m2.7 2.3h.5m-9.1-8.4h9.1m-126.1 13.1v-15.5h.5m59.5 23.9l-5.4-2.8-.5.1-.6 2.6-.1.1v2.7l1.9.5.9 1.8-.9 2.1-1.9.7v3.9h5.7l2.7-5.5-1.8-6.2zm9.3 0h-8.6l-4.7-3.2-1.5.4m1.2-.6l.3.2.8-.2h-1.1zm13.6 0h-12.5m-27.7 2.7V226h.4m-2.2 2.2l1.6-.7.2-1.5m-1.4 8.5h2.3l3.2-1.1 1.1-2.6v-16.3m-4.3 39.7h-.5v-.4h-1.8v22.3h.2m-.2-22.4v-5.4m25.9-11.1h-.2l-2.4 8.4-6.2 6.3-8.2 1.8h-7.1v-19m42.8-11v4.3h.4m-.4 0v2.3h.4m-13.6-3.2h.5m-6.2 0v.9h18.9m-18.9-9.7v5m18.9 7h-18.9v7m0-9.3v2.3m-5.9 19.6l.7 1.1h1.1l.9-1.1v-1.1l-.9-.7h.5"/>
  <path id="Layer15_16_MEMBER_28_1_STROKES" class="st1" d="M324.5 192.1V160h.2m-60.2 13.6h6.7v-10.8h-6.7m6.6-.1h.4m28.9-33.9l-1.4.5-.2 1.1.2 1.2 1.4.4 1.1-.4.2-1.2-.2-1.1-1.1-.5zm-3.2 6.1l1.2-.2.6-.9v-1.2l-1.1-.6-1.2.2m5.1-1.8h.4m2.7 14.3h-1.2l-.6.9v1.1l.6.7h1.6m-13.1.4v2.9m10.5 7.5v.6l.5 1.1 1.1.5.7-.5h.5m-.6 4l-.7-.2-1.1.2-.5 1.4.5.6 1.1.7.7-.7h.5m-15.2-2h-19m14 44.7l2.7-7.7h.5m17.4-4.5h-.5l-.9 1.1-.7.5-1.1-.5-.5-1.1.5-.9 1.1-.6 1.6 1.6m.5 6h-.5l-.9 1.1-.7.5-1.1-.5-.5-1.1.5-.6 1.1-.9.7.9.9.6m-13.6 7l1-3-.3-.9.5-.9.7-.5.9-2.4h.5m1.1 1.1l.2 1.2 1.4.4.8-.4.6-1.2-.6-1.1-.8-.5-1.4.5-.2 1.1zm3.4-3.1l.5 1.1 1.1.4.8-.4.9-1.1-1-1.4m-2.8 4.5h.5m1.1 1.2l-1.2.4-.5 1.1.5 1.1 1.2.4 1.1-.4.4-1.1-.4-1.1-1.1-.4zm-1.1 4.9l-.5-1.1-1.1-.8-1.2.8-.5 1.1h.5m-3.1-4.7l.4-.2 1.1.6.5.9h.5m-2.5-1.3l-.8 2.2.1.2 1.1.4 1.1-.4.5-1.1m6.6.1h.5m3.1 3.3v-1.1l-.9-.8h-1.2l-.6.8v1.1h.2m-32.2-35.4h.4"/>
  <path id="Layer15_16_MEMBER_29_1_STROKES" class="st1" d="M272.7 79.9l2 1.6h48.2l1.6-1.6h.2m-1.8 1.5h.5m-6 71.9l-2-21.7h.5m-7.1-.7l5-.9h.5m-10.5-31.9l3.9 23.7h.5M294 81.4l3.2 54.5h.4m13.9 14.9l-1.1-11.8h.5m-19.6-2.5h-.2l-3.6-55.1m4.7 78.6h-2.5v4.8l1.4.7 1.1-.2m13.2 10.5h-.5l.2 4.8 4.6-10.9 1.8-12h.5m-6.9 23l-.2.4.5-.4h.7l.8.4h.2l1 .2.5.5.2.4.5.2.4 1 .2.1v.5l.3.3 5.6-12.5 2-15.1m-7.9 28.4l.2-.4-.2.1v.3l-4 6.2-.1.1-.5.2H304l-2.2 3.2m8.5-10.5l-.1.5.2-.3-.1-.2zm-5.4-3.3h-.5l-2.7 4.1h.4m3.7 6.3l.2-.4v-.5l-.2-.6v-.5l-.5-.5-.5-.2-.5-.5-.2-.4-.9-.2-.2-.5-1-.5h-.4m.2 4.4l.4.4h1l.2.2h.6l.5-.7h.5m-3.2-1.1l2.5 1.1.7-.5-.7-1.6-2.5-1.3M277 163.9v8.1h12.7v-7.2m.5 7.2h-.5v6.6l2.5.9m2.9 18.5l1.6 1.8h2.8l2-1.6v-2.7h.2m-2.2 3.2l-.5-1.1h.5m-7.8.4l1.2 2.7 3.2 1.2 2.4-1.5-1.8 1-2.9-.7-1.6-2.7m7.7 1.8h-.5l-1 .6M271.1 172h5.9m69.3 27.8h-1.6v.5l-.5.4v2.2l.7.7h.9v-.2h.4v-.5l.2-.4v-1.8l-.2-.4v-.5z"/>
  <path id="Layer15_16_MEMBER_30_1_STROKES" class="st1" d="M335.4 179h-.5l.5.5h4.5l.9-.5h1.1l1.2-.4h.7l.9-.2h.2l.9-.5v-.5h.4m.1 27.8h-.4l-2.3 2h-.8l-.8.2-.9.5h-2.7l-1.6-1.1-1.1-1.6-.2-1.1-.5-1.2-.5-11-1.6.2-7.2-.4 2.2-16 7 .6h.5m-.5 15.1h-.5v.5l1.2-.1v-.4l.5.2 7-1.4-1.2.2H336l-1.1-11.5m12.5 10h-.5l-.5.5h-.2l-.4.5h-.9l-1.2.4h-.7l1.6 6.8.2 1.1h.4l2.3 1.2.5 2.5-.5 2.2-2.3 1.1h.5m.1-27.8l1.1 11.5m-.6 9.3v-2.7l-.9-1.8-1.6-1.1h.5m.6 10.8h.4v-.9l.5-.5v-1.1l-.5-.2v-.4l-.4-.5h.4m-.4-1.6h-2.7l-2.2 1.2-.7 2.5.7 2.2 2.2 1.1h3.2l-2.2-1.1-.4-2.2.4-2.5 2.2-1.2m.9 3.6h-.4m-2.8 5.4l-3.2-.4-2.3-2-.9-2.2 1.6-5 3.2-1.6 3.2 1.2m-8.6-5.5l-.5.1.4 11.1.5 1.2.2 1.1.5.7 1.6 1.5.7.5m5.2-9.7l-2.5-1.1-2.8.9-1.3 3.9 1.3 3.8 2.8.7 2.5-1.2m-9.8-28.9l-2 15.8"/>
  <path id="Layer15_16_MEMBER_31_1_STROKES" class="st1" d="M324.7 145.1l-.2 10.9v-10.9h.2zm-22.9 29l.3 20.2h-.4l.1-20.2-.1-15.9H299l-.2-.5-.4-.5-.8-.1v-.5l-.9-1.1v-2l.9-1.4v-.5l.8-.4.4-.5h12.8l.9.5.2.4.9 1.1v.4l6.5.8 7.8 5 4.8 8.1.2 8.8-3.7-3.9.2 3.6-17-18.4-.5.5-.7.5h-9.5m11.9-5l.1 2.2 1.2 1.2 4.1.5 6.2 4.2 3.9 6.5.2 4.1-14.3-15.4-1.5-.2-.8.9-.9-1-1.7.4-1.2-2.2.9-2 2.3.4v.1l1.5.3zm.1 2.3v.8h-.2l-.2.2-1.6-.1h-.1l-.3-.1h-.9v-.2h-.5l-.2-.5v-2l.2-.2v-.5h1.3l.1.1h.6l.1.7 1.7 1.8zm-2.9 2.8l-.5-.5h-.5l-.7-.5-.5-.6v-.5l-.2-.6v-2.8l.7-1.1.4-.4h.2l.9-.5m.2 2.1l.4 3.4h.2l.1.1h.1l.2-.1h.5l-.3-2.5-.7-.8-.5-.1zm-10.9 5.4l-.5-7.5m30.1 43.4v1.7l.4-1.7h-.4l3.4-1.5v-.5h.4l-.4.5h2.1m-2.1 6.7h-.2l-1.2 2.4.2.1h-.3l-.2.2-2 1.1-.2.2.5.2h-.5l-.6.1-.5.4-.5-.2-1.3.2-2.7-1.6-.9-3.1 1.5-6.8h.5l-2 6.8.7.4-.2-.6 1.8-6.5.9-.9h.4l-1.3.9h.4l2.4.5 2.6.5h-.2l-2.4-.5m-2.5-.5l-2.2 6.5.7.2 1.5-2.9 2.8-.9v.4l.8-.4.7.4v.1-.1l1.8 1 1.4 2.5m-7.5-6.8h-.4m-1.6 7.1l1.3 3.2 2.9 1 1.1-.2.6-.3h-.2l-.4-.1v.1h-.5l-2.8-1.4-1-1.6-1-.7zm1.1.7l1.5.9-.8-1.5-1.3-.4.6 1zm1.8 1.6l2.3 1.2-.1-.4-2.6-1.6.4.8zm1.4-2.7h.8l-.2-3.5-1.9 1-1.3 2.5.2.4 3.3 1v-1.4h1.3v-2.5l.2 2.5h2m-2.3 0h.2l.2 1.9 1.6.5v.1h-.2l-2 1.3m.2-2v.7h.4v-.6l-.4-.1-1.3-.4.1 2.1.8.5m.4-2.2v-1.8m0-5.2l3.8-1.5"/>
  <path id="Layer15_16_MEMBER_32_1_STROKES" class="st1" d="M296.7 153.5v-.7l-.5-.6-.2-.5-1-.4-.2-.5-1-.2h-1.1l-.7.2-.5.5-.6.4-.5.5-.5.6v3.2l.5.2.5 1 1.1.6.7.5h1.1l1-.5h.2l1-.5.2-.6.5-.6v-.5h.5m.7-3.9l-.2-.9-.9-.2-.5-.4-.2-.5H294l-.7.5-.5.4m-.4 1.5v2.2h2m1.7-4.7l2.9 1.1m-.6 6.6h-.5l-.2.5-.9.5-.5.4-.6.2H294l-.7-.2-.5-.4m.1-1.7h-.5v-2.2h-1.1m4.3 8.3v.5h-.5l-.2.4v.2l-.5.5v2l.5.2v.4l.2.5v.4h.5l.5.2h.2v-.2h.5l.5-.4v-.4l.4-.4v-2.7l-.4-.2v-.4h-.5l-.5-.5h-.7zm8.7 3.9h-.5v2.5l1.2.2v-11h.5m-1.7 8.3h-2m3.1 2.7l2.2 1h.5m-3.3 10.3h-2.5v-7.8l2-.5V169m.5 3.5h-.5v-.1l1.2-.4h.5m-.6 0v3.6l.5.1 1.8-.6v-4.9l-3.4.1m-2 5.5l2-.2h1.2m.4.1l-1.7.5v2.7h1.6m-1.5-2.6v-.6m3.4-.6h.5m-3.9 3.9v1.6m-2.8-22.4v36.1h.5m-9.3-36.5v28.5"/>
  <path id="Layer15_16_MEMBER_33_1_STROKES" class="st1" d="M414.6 130.9v10.6h.2m-12.2-2.2l3 2.2 3.8-.2 2.7-3.1v-3.9l-2.7-3.1-3.8-.2-2.9 2.2m-.1-5.5h9.3m-57.7-.6h-8.4l-2.3 1.1-1.3 2.2h.5m-10.5 10l2.2-3.4-.4-3.9-3-2.8-3.8.5m27.5 13.4h-8.8l-2.3-1.1-1.3-2.2v-10.4m-11 8.5l1.6-2.5-.2-2.7-2-1.6-2.8-.2m21.8 7.7l3.2-1.1 1.1-3.2-1.1-2.8-3.2-1.1-2.8 1.1-1.1 2.8 1.1 3.2 2.8 1.1zm1.5-6.5l1.7 2.2-1.7 2.2h-2.6l-1.2-2.2 1.2-2.2h2.6zm-8.5 7.6h-.5m-11.6-3.4l1.1-1.5-1.1-2.3H329m-18.2-52.4l4.3 24.1 10 22.4h.5m10.4 51.8l-7.2-24.5-11.8-22.7h.5m27.4 45.6l-.2-.8-7.1-24.9-12.5-24.4m28.9 7.6h.2m-52.7-54l2.8 18.9 5.7 18.6h.5m54.4 58.5h-.5l3.2 5.9-2.5 6-5.7 2.7-6.4-2.7-2.2-6 3.1-5.9h10.5m-2.2 6.6h-.5l-.7 1.6-2 .6-1.6-.6-.7-1.6.7-1.8 1.6-.9 2 .9.7 1.8m-15.4 23.4l4.1-.2 2.8-2.6v-4.3l-2.8-3.1h-3.9m-.2-7.8h5.7l7.5 3.4 6.8-3.4h7.9m-14.7 3.4h14.7m-27.3 11.7h2.3l1.6-2.5-1.6-2.2h-1.6m-1.3 6.1h3l2.2-1.8v-3.2l-1.8-2.2h-3.2m-1.8-5.9h14.8m15.4-18.3h-30m-.2 2.5l30.6-.1"/>
  <path id="Layer15_16_MEMBER_34_1_STROKES" class="st1" d="M414.6 130.9l-.9-2.5-2.2-.7m-8.7 17h8.6l2.2-.6.9-2.5h.2m-10.3-8l-1.2 2.8 1.2 2.7 2.8 1.1 2.7-1.1 1.1-2.7-1.1-2.8-2.7-1.3-2.8 1.3zm4.3.2h-.5l1.6 2.5-1.6 2.2h-2.7l-1.2-2.2 1.2-2.5h2.7m2.8 2.5h.5m-90.9-28.2v2.2h.2m23.9.5H334l-2.8 6.1 2 6.3 6.2 2.2 5.9-2.2 2.3-6.3-2.9-6.1zm-2 6.5h-.5l-.7 1.9-2.1.9-1.8-.9-.9-1.9.9-1.6 1.8-.7 2.1.7.7 1.6m-19.8 5.9h10.2l6.8 2.9 7-2.9h8.2m-25.1 38.2h1.8m.4 1.8h-.5m-4 0h-2.5m-.2-14.7h1.8m-2.3-3.4h.8m-.3 16.3h1.2m13.5-4.8l1.8-.6.9-1.6-.9-2-1.8-.7-1.6.5m3.2 8.3h3.8l2.8-5-1.2-5.9-5.2-3.4-5.6.6m-.5-.5l6.1-.7 5.2 2.9h8m4.1 8.6v4.2h.2m-.2.1v1.9h.2m-34-53h32.2m-.4-2.2h-26.1m28.1 53.3h-17.4m17.4 1.8h-16.8m-7.1-18.1h19.8m-29.7-18.5h30.2M334 182.2l1.4-.4m-1.4 1.5l1.4-.5m-2.1 6.6l1.2-.5.5-1.1-1-1.5m-5.2-10.7h-.4V167h.7"/>
  <path id="Layer15_16_MEMBER_35_1_STROKES" class="st1" d="M444.8 59.1h59.5v-1.6h-59.5v1.6zm1.2-1.6v-3.4m3.1 3.4v-3.4m54.4 3.4v-3.4h.4m-3.8 5v21.7h.4m-39.7 164.1h1.1m-1.8-2.7h15.4m-14.7 2.3h14.7M449.1 80.8h51m-204.5 87.1h-.5v-2.6l2.8 1.1m-.7.2l-2.1-.7"/>
  <path id="Layer15_16_MEMBER_36_1_STROKES" class="st1" d="M454.6 64.9h-3.8v-3.2h-.5V59m.5 2.8h3.8v-2.7h.4m0 2.7h-.4m-.4 0V65m45.9-7.5v-3.4h.4m-.9 7.7h-.6V65h.4m-.5-3.2H495V65h3.9m-4.3-5.9v2.7h.4m4.3 0v-2.7h.2m-49.9 21.7h-.5l1.7 1.1h48.6l.1-.1.7-1h.4m-78.7 134.3h8.2l1.8-.5.2-.6 3-.4 4.3-1.4v-.4h3.8v-1.1h-10.4m8.9 2.2v3.6h-1.3v-3.6h1.3zm-2.3-.7v5l2.7.2v-5.6m1.6-1.2h-.5v-3.2h14.1v3.6h49.3v-1.1h2m-69.2 3l-4.3.7-3.2 1-3.4 5.9 3.2 7h.5m20.8-20.1v12h.5m-7-1.8h-.5v4h7v-2.2h-.7v-.7h-3.2V211h3.2v-.9h.7m-3.9 4.8h3.2V211m-9.1.8h2.8v-4.4m7 14.3h4.3V211M446 221.7h-2.8v-4l.5-.1-1.6-.1v.3h.5m3.4-.2l-2.2-.1M418 230.3h30.5M418 228h31.6m-3.6-16.2v5.9m-5.4-1.2v-3.1m11.8 5.3v-3.9m54.2-3.8v8.8h2.2m-51.5-.6h49.3M449.1 59.1v21.7"/>
  <path id="Layer15_16_MEMBER_37_1_STROKES" class="st1" d="M450.3 194.8h-14v15.8h.5M418 223.7v6.6h.5m21.3 6.1l.5-.2v-.2l-8.7 1.5-.5.1h-14.3l-.4.4h-.4l-.2.5-.4.5v1.8l.4.5v.2h.2l.5.4h.4l14.3-.4.5-.1 12-2.2V238l-.5-.4v-.2l-.2-.5v-.4l-.4-.2-.5-.5h-.5l-1.3.2v-.2l.2-.4.4-.5h.7v-.2h.5l.5-.4h1.1l.5.4h.2l.5.2.5.9v.5l.4.2v.4l.2.7v.4l6.4-7 .1-.6.3-3.2-3.2-.2m-33.1 14.8h-1.1l-.5-.4h-.2v-.2l-.5-.5v-1.8l.5-.5v-.5h.7l.4-.4h1.1m39.5-15.8h-.2v6.3h.2m-.2 0v2.3h.2m-2.7-8.6h-.2l-.7 5.4h.9m-22 .4h10.9l3.2-5.9h.2m-6.6-.6l-.7 2-1.6.6-2-.6-.7-2 .7-1.6 2-.7 1.6.7.7 1.6h.4m3.2 6.5h-.4m-.9 7.3h.5l.9.9.2.5.5.2v.4l.5.5v2.3h1.2v-.4l.4-.2v-.5l.2-.5m-1.3.8h.5v-1.6h-.5v-.9l-.5-.2v-.5h-.2v-.4h-1v-.5h.5v.5m-4.2 1.2v.4h.4m4.4 2.7v.5h-.5l-.5.2h-1.1l-.7-.2m1.8-.5l.5-.4h.5m-4.8 1.5v11.3h.4m12.7-21.6h3.7m0-2.3H453m-20.2-33.2h3.4"/>
  <path id="Layer15_16_MEMBER_38_1_STROKES" class="st1" d="M508.6 153.9H506v33.7h.6m-.6-33.7v-27.3m-60.7 80.8h-.5l-2.2-2.9v-4.3l3.2-2.7h4l-.1-6.1h.2m-5.7 9.5v3.2l2.3 2.2 3.4-.5v-2.2l-.7 1.1h-2.6l-1.7-2.2 1.7-2.2h2.6l.7.9v-1.8l-2.9-.7-2.8 2.2zm5.6.3l.1 2.5v-.1h.4m-.5-4.3v-1.8m.5 8.4h-.4v1.5m9.7-12.6V211h.5m29.5 0h-.5l3.9-3.9V204h-31.8v-9.8h40.4v-3.8h-5.4v-6h-2v-9.3h2v-5.8h5.4v-1.4h4.4m-52.3 39.5v-16h.4m-9.9 43.1l4.6-5.4.9-7h.2m-7.3 13.1h1.1m.5 3.9l.7-.2h.5m50.8-66h5.4v-3.6m0 3.6h.5m-5.9 2.2v9.3h.5m5.4 1.8h-.5v1.4h4.4v6.7h-4.4m0-6.7v2.9h.5m-5.9-4.3h5.4v-13.4m0 18.6h4.4m0-19.6h-4.4m-8.2 35.4h-.4m13 3.8v-6.9h-4.4v6.9h.5m-.5-3.1h-4.9v3.1m-3.7-6.9h8.6m4.4 15.1v9.1h2.9m-12.2-2.3h4.9v-6.8m0 6.8v1.1h4.4m-3.9 2.5h-.5v1.1h4.4v-2.5m-4.4 1.4h-4.9m9.3 1.1v1.1h2.9m-7.3-4.7v2.5m-7.4-10.4v4.1h2.7"/>
  <path id="Layer15_16_MEMBER_39_1_STROKES" class="st1" d="M421.5 236.8h-1.2v5.9h2.5v-5.9h-1.3l-3-2.6-4.3.4-3.2 2.7h.5m-.5-.1h-6.5v.7h7.5l2.2-2.7 3.4-.5 3.2 2m15.9.5h-.5v-7h-5v.5h.5m4.3 6.5h-.5l-2-.5-1.8.7m-.5.1v-6.8h-28.6v7.2h.2m-.2-7.2v-.5h-4.8l.2 7.8.2-.5 1.8-.7 1.5.5.5.2.3.5.1-.1m1.3 1.6h-.5l-.8 1.7.2 8h-4.8v-8.1l.1-.1-.6-1.5.6-1.5m4.2-.5l-.5-.2-3.6 3.7v.1h.3m4.1.1l-.2.5-2.1.9-1.4-.7-.4-.1-.3-.7h-.1m5.4-1.6l-.8-1.5-3.8 3.9m22.1.7l-3.2 2.3-3.4-.9-2.2-2.7h-7.5v.9h7m25.2-.9h-.5v7.9h-5v-7.9h.5l.5.3.2-.3h.5m-21.9.9l3.2 3.1h4.3l3.4-2.8m15.2-11.8h-.9m-4 11l1.8 1 2.3-1.3v-.2m51-70.3h-.5l-.4 1.1-1.2.5-1.2-.5-.4-1.1.4-.6 1.2-1 1.2 1 .4.6m3.5 39l1.2.7 1.3-.5.2-1.1-.7-1.1h.4m.3-2.2l.4 1.1 1.2.4 1.2-.4.4-1.1-.4-.9-1.2-.6-1.2.6-.4.9zm3.2 0h.5m2.2 2.2l-.7-.8-1.4.2-.7 1.2.5 1.3m4.6-2.4h5m-9.5 11.8v10.4"/>
  <path id="Layer15_16_MEMBER_40_1_STROKES" class="st1" d="M392.4 170.2h-.5l3.6-2.8h4.4l2.8 2.4-1.5-3.2-.2-.2h-17.3m28.9 0h-4.5l-6.9.2m6.9-.2H401m2.3 4l-.5-.5m-10.9 5.2l3.6 3.2 4.6-.5 3.2-3.4h.5m-.5.1l-1.9 4.1h8.5m-8.5 0l-.2.4h11.9m8.4 57.8l-1.3-3.1v-.2h-6.7l-.1.2h.4m15.6 3.8l-.5-1.8-.7-1.5-1.3-.4-.2-.1h-6.5m8.3 3.8h-.2v-2.2H424v2.2m-.1-2.3l2.3-.7 2 .7m3.5-1.8h-11.5m-14.6 3.8v-2l2-.7 2.3.7h2.5l.1-.1.9-1.5h-6.9l-1.1.5-1.4 1.5h.5m7.8-.4l-1.4 2m-.6 0h-.5v-2h-4.3m5.5 7l1.2 1.8h.4m-9.3-1.1h-.4l.9 2 1.6.7h7.9l-1-1.6h-7.8v-1.8m5.4 0v1.8m-.7-5.6v3h.2m-3.8 2.6v-1.8h.4m0-4.3v3.4h.5m21.8 0v2.7h.7v-2.7h.5m-.1 2.7h-.5m-.6 0h-7l-.8 1.6h8l1.6-.7.4-2h.5m-7.1 1.1v-2.2h.2m-2.8 2.2l.6-1.4m-8.7 3l.2.5h6.8l.2-.5m11.3.5h-11.4m-6.8 0h-10.6m-.1-12.7h10.6m-10.6 9.5l1.1-7.2m-28.1-50.8h44.4m-19-5.9h-17.5m-.2-15.4h29.1"/>
  <path id="Layer15_16_MEMBER_41_1_STROKES" class="st1" d="M392.9 174.5l2.6 2.9h4.4l2.7-2.9h.2m-8.4 4.5l-.3-.4h-7.9l-1.6-.7-1.1-2v6.3h-4.8V174h.5m-4.3 10.9v-18.3h.4m12.5 0l-1.6.4-.9 1.6h.4m-2.2 5.9v1.4m10.6 2.7l-1-1.6h-7.7v-1.9h7.1m-6 0v1.9m4.3 0v-1.9m1.1 0l1.2 1.9h.4m-8.2-6.8h7m-7 .7h7.9"/>
  <path id="Layer15_16_MEMBER_42_1_STROKES" class="st1" d="M387.8 166.6h6.7l.1-.2h.5m25.7 1.7h-.5v-1.5l-2.7-3h-.7m1.1 0h-.4m2.7 3h.5m19.5 18.3h-.5l-.9 1.4-1.8.9-1.6-.9-.7-1.4.7-2 1.6-.7 1.8.7.9 2m-26.7-10.2l.4-.2h.2m35.4 2.9h-28.8v7.5h.5m27.9-9.8h-28.5v2.3m.1-3.8v1.5m-7.7-.6h-.5v7.7h5.2V174m-6.5-4.3h-.4l-1.2-2.7-1.6-.4m-2.8 3.6v-2.1l2.3-.6 2.2.6v1.6h.5m-7.6 7.3h2.7v-2.5h.5m4 4.1l1.5-.7 1-2h.2m-2.7-2.3v3.4h.5v-2.5h.5m-.1 2.5h-.5m-5 0h4.6m-4.6-8.9h4.6m-7.2 2.3l-2.8-2.5-3.9.2-2.6 2.8h.4m-6.8-.7v-2.1l2.5-.6 1.8.6h2.6l1.1-1.5m-19.6 0l3.2-3h.6v-.4h4.8v7.1l.2.5.5 1.6h.2l.9-3.9m-6.1-4.9h-.5v7.2m12.1-2.7v2.1h.5m-7.6.7h-.2l-3.9 4 1.6.8 2.3-.9.7-2.2m-.7-1.7v-.5l-.5-.1-4 3.6.2.9.4.1m-.9-.9l.2-.2-.5-1.4.7-2.1 2-.6 1.8.5h.5m1.9 0v.6h.4m.1 4.3h-.4v-.6h1.6v-3.6m-2.8 4.9h-.5l.8-3.4m2.4 2.1h3.2v-3.1m.7-3.3h-4.3m3.6 6.4h3.1m-1.3-4.3l1.5-2.1"/>
  <path id="Layer15_16_MEMBER_43_1_STROKES" class="st1" d="M425.5 170.9h-.4l-27.2 3.9-1.6-.2-.2-1.6.2-1.5 1.6-.5 14.3-1.9v-5.8h4.8v5.2l7.3-.9h.5m12.3-3.7l5.9-3.9 2.7-6.1h.2m-1.5-.6V148h.5m9.7 5.5h-.4v-7.2l-6.2-.6h-.6l2.8 13.2m-2.8-13.3l-.6-2.7m-24.9 47.4h8.2l7 3.4 7-3.4h4.3v-.9h.2v-.5h.9l-2.5-24.1h.5m-8.6 2.2l7.9-5.4h.2m2.6 27.3l.2-.2h2.7l.5.2h.5l-1.2-11.5-1.3-12.7h.4m2.1 24.2h.2l.4.5v.5h.4m-12.4-12h-.5l3.7 5.6-2.1 6.8-6.1 2.5-6.1-2.5-2.1-6.8 3.4-5.6h9.3m6.9 11.9h.2m-.2.5h.2m5 2.3h.4v-.9h-.4l-.2-.2h-1l-.2-.4h-1.6l-.5.4H449v.2h-.6v.4h.2v.5h.4v.2h1.2m4-1.1v-1.8m-.5 4.9h6.3m-11.5-4.5v1.4m4-16.6h2.8m-3 2.3h2.3m-39.3-4.5h-.5l-2 2 .2.3 2.2.5 1.5-1.1.7-2h.4m-4.1.5h-.2l-1.1.8.1.1.4.8m4-6.4v.2h.5m2.9 3.4v12.9h.5m-3.9-10.4v7.7h-4.8v-6.3h-.2l-1-2.2m1.2 2.1V174l.2-.1-.5-.8m.3.9h.3m4.5-5.6l-4.8.6m18.4 72.3v1.5h.5"/>
  <path id="Layer15_16_MEMBER_44_1_STROKES" class="st1" d="M425.5 148.5l-7.5-2.9-6.6 2.8-.5.1m13 11.5l2.3-5.6-2.3-5.9-5.9-2.2-5.9 2.2-2.2 5.9 2.2 5.6h.5m12.1 6.4h-.5l-.2.2.7-.2 2-.5h1.1v.5l.4.1 9-2.6h.5m-13 2.5l.4.2h.4l.2.4v.5l.5.4.5.2v2.1l-.5.1v.5l-.5.5-.2.4 2.2-.9h.5v-.5h.4l.3-.3v-2l-.4-.6v-.4l-.2-.4-.1-.1m-4.3.1h-.4l-.5.4v.5h.5l.4-.5h.7l1.1 1.1v2.2h-.2v.5h-.4m-22.5-25.2h23.6m-23.6-18.5h22m37.1 67.2h-.5l-.4-5.4h.9V184h2.2v-.6h.4v-1.2h1.8v-6.5h21.2v7.7h2.3m-25.7.6h2.2v-.6h-1.8m2.4.6h-.5v4.8h21.2v-5.4h-.5m-20.2-1.2h-.5v1.2h.5m2.2 10.9h-.4v-5.4h-6.8m-32.8-18.8l10-3.1h.5m33.2 42.9h8.4l.4-1.6h-9.8l1 1.6zm-1-1.6v-14m-43-23.9l.3-.1v-.1m-3.4 1.6h-1.3l-.2-.4m-.5-3.9h.4m63.4 16.9h4m-1.7-.4h-.5v-.6m2.1 1v4.5h1.6m-1.6 0h-7.5v5.4h.4m-3.1 15.6h.4m.5-15.6h-.4v14h.4m10.9-14h-.4v-5.4m-8.7 0h-15.2"/>
  <path id="Layer15_16_MEMBER_45_1_STROKES" class="st1" d="M483.7 165.2l.4.6 1.2.7 1.2-.7.4-.6-.4-1.4-1.2-.2-1.2.2-.4 1.4zm.9-3.2h-2.7v11.1h2.8l1.9 2h.8m-2.8-15.1h-.5v2m2.8 3.2h.5m-84.8-16.7h8.9m26.1 14.7h-38.2v-6.7m26.1-8h.7m-5 5.9h-.5l-.5 1.6-1.8.6-2-.6-.7-1.6.7-2 2-.7 1.8.7.5 2m-8.6 5.6h12m24.6-9.2h1.1l.9-1.1v-1.1l-1.2-.7-1.1.2m-10.8 13.3h-.5v1.9m.5-4.4h-.5v2.5h-37.7m50.5-10.6l9.8 2.7h1.6m9.7 5.9h-5.9l2.7.6 2.1.5v-.5h14.3m-19.1-.6h-.5m3.2.6h-.4l-1.3 5.5 3.1.9.2-1.2.5-.1-1.6-.3.7-3.1.9.4v-1.5m0 4.5l.6.1 1.1.2V162h-1.8m.3 9.3l1.1-5.5h.4v-.4m-1.1-.2h-.4l-1.2 5.1m1.6-16.8v5.9m-4.5 6.1l-2.7-.8m-13.7-11.2h10m12 12.4v2.2h.5m-5.4 7.5l.6-.5 1.7-1.5h2.7v-5.5l-.6 3.2m-3.8 3.8h4.3v-1.5h.5m0 1.5h-.5v.5m-14.7-8.1h-.4l-2.2-.5v2.8h.4m-10.3-.1l3.6 1.1h.5m5.7-1.1l-2.3.6m30.2 5.3h-.2v-2.5m5 2.5l-.4-.5h-4.6m-27.7-8.5v.4l-2.8-.6m16.8 3.8l.9-3.8m12.8-4.4h-10.2"/>
  <path id="Layer15_16_MEMBER_46_1_STROKES" class="st1" d="M487.3 154.4l-.5.6.5 1.1 1.1.5 1.2-.5.4-1.1-.4-.6-1.2-.5-1.1.5zm0-2h-.5l-.4 1.1-1.2.4-1.2-.4-.4-1.1.4-1.1 1.2-.5 1.2.5.4 1.1m-4.9 16.9l1.2-.2.5-1.2-.5-1.3-1.2-.2M490 155h.2m-3.3 2.8l-.9-.6h-1.1l-.7.1m2.2 4.7l.9 1.2h1.1l.7-.5.5-1.1-.5-1.1-1.1-.5m8.7 1.6h-.5l-.4 1.1-1.2.5-1.2-.5-.4-1.1.4-1.1 1.2-.5 1.2.5.4 1.1m-6.2 4.3l1.2.5 1.2-.5.4-1.1-.4-.9-1.2-.6-1.2.6-.4.9.4 1.1zm2.8-1.1h.2m3.2 0l.5 1.1 1.1.5 1.2-.5.4-1.1-.4-.9-1.2-.6-1.1.6-.5.9zm3.1 0h.2m-2.8 3.3h-.5l-.4 1-1.2.6-1.2-.6-.4-1 .4-1.1 1.2-.4 1.2.4.4 1.1m-.5 7l.4-.6-.4-1.4-1.2-.2-1.2.2-.3.9.4 1.1.8.7h.4m-4.6-7.7h-.4l-.5 1.1-1.1.5-1.2-.5-.4-1.1.4-1.1 1.2-.4 1.1.4.5 1.1m3.4 2.8h-.2l-.4 1.1-1.2.5-1.2-.5-.4-1.1.4-.6 1.2-1 1.2 1 .4.6m-2.5 3.6h-.3l-.4 1.1-1.2.2-1.1-.2-.5-1.1.5-1.4 1.1-.2 1.2.2.4 1.4m3.4 2.9h-.4l-.2 1.2-1.3.4-1.2-.4-.2-1.2.2-1.1 1.2-.4 1.3.4.2 1.1"/>
  <path id="Layer15_16_MEMBER_47_1_STROKES" class="st1" d="M493 152.4h-.2l-.4 1.1-1.2.4-1.2-.4-.4-1.1.4-1.1 1.2-.5 1.2.5.4 1.1m-12.5-.7h-.4v1.1h.9v-2.6h-8.6v2.6h1.7v-1.1h6.1m.7-1.6h.2m-.2 2.7h.2m-1.8-2.7v-4.4h.2m-7.2 4.4h-.9v3.1h10.9v1.4h2.5m-2.5 0v2.6h.9v2.1h-.5v.6m-.4 4.9h2v-10.1m-2 2.6h-11.6m26.2-2.3l-.9-.6-1.2-.5-.7.5-.5 1.1.5 1.1h.2m-4.1.7l-.4 1 .4 1.1 1.2.4 1.2-.4.4-1.1-.4-1-1.2-.1-1.2.1zm2.8.9h.2m-8.9-.4h4.3m0 4.2h-4.3m3.9-4.2v4.2m-3.9 2.8h.5m-8-7.5v-4m32-2.8h-10.2m-25.8-4.9h-.5v4.5m-1.1 7.2v-4h.2m-.7 6.7v-.6h-.4m-5.5 13.1l1.4.4 1.1-.4.2-1.1-.2-1.1-1.1-.5-1.4.5-.2 1.1.2 1.1zm2.7-1.2h.4m-1.5 5h-1.1l-.7.7v1.4l.7.6h1.6m-1.6 15.3v9.8h.4m28.7-24.6l-.8.2-.4 1.3.4.7.8.6h.4m-5 1.7l.4 1.1 1.2.5 1.2-.5.4-1.1-.4-1.1-1.2-.5-1.2.5-.4 1.1zm3.2 0h.2m-10.5-24.6h-12m9.3-6.6h-6.1"/>
  <path id="Layer15_16_MEMBER_48_1_STROKES" class="st1" d="M502.1 154.6v8.6h-.9v-11.1h.9v2.5h1.4v-28h.4m-4.6 25.1v10.9h-2.7v-10.9h2.7zm6.9 13.8l-2.7-.7v-10.1m-53.2 4.7h8.7m7.7-5.9h.9l3.4-10.6m0 10.6h-3.4l-5.1 15.8 8.7 2.1h.4m-14.7 36h-.4l4.3-32.9 1.7-5.2-.6-.1m34.3 17l-.7-.2h-1.3l-.8.7v1.2l.8.9h1.3l.7-.5h.5m-9.4-6.6h1.1l.7-.7v-1.4l-.7-.7h-.9m8.2 15.4v-1.1l-.2-.6-1.3-.9-1.2 1.6v1.1h.4m-27.9-54l-12 43"/>
  <path id="Layer15_16_MEMBER_49_1_STROKES" class="st1" d="M484.8 81.9v12l3.2 11.9 6.2 10.4h.4m-17 10.4h16L481 101.5l-1.9-19.6m-8.1 61l11.5-36.4h.5m-20.2-5.4l-2.7 20.1 1.4 5.4h8.8l3.7-10.9 5.2-25.5h.2m20.7 36.4h6.1m-6.6 33.4h-5.7v-5h2.8m7.2-10.8h-5.6v7.5m1.3 2.9h-2.8m4.4 7h-1.6m3.9-1.8h-1.2m-1.1-6.5h-1.6m-5-26.7h-1l2.1 4.3 2.5 12.6v.6m-4-27.9l7 13.1 2.3 14.2m-40.2 3.2l-6.4-15.1-1.6-16.3 2.8-15.8 3.7-17.6m.1 20.1l4.3-9.7V81.9h.5m-42.1 50.4l-1.6 4.2 1.6 3.9 3.9 1.5 3.8-1.5 2.1-3.9-2.1-4.2-3.8-1.4-3.9 1.4zm1.2 1.3l-1.1 2.9 1.1 2.8 2.8 1.1 2.7-1.1 1.2-2.8-1.2-2.9-2.7-1.3-2.8 1.3zm6.5 2.9h.5m33.2 4.8h-.5l-.2-.8-3.8-13.9h-.8m10.5 0h-.9l-5 13.9m-30.9-4h.4m16 22.4h-.5l.5 3.1.2.5h.4l.4.2h.5m-1.5-.7H448l-.4.5h-.7l-.4.2h-.5v.5h.5m.4-.7v-.5h.2m.9 4.4h-1.2l-.4-.5-.5-2.6m1 2.6h-.4v-.6h.4l.2-.5h.9l.7-.4h2l.2.4h.9v-2m.1 2v.5h.5l-.5.2v.4h-.4m46.7-20.3h-28.4"/>
  <path id="Layer15_16_MEMBER_50_1_STROKES" class="st1" d="M378.7 108.1l27.2-6.6h.5m21 37.5l-1.6-2.5 1.6-2.7h2.7l1.1 2.7-1.1 2.5h-2.7zm17 19.9h-7.2l-8.6-4.2-2.5-8.4-2.5-8.1h.4m-22.8-35.1v15.4h.5m30.9 30h4.5v-2.9h-5l.1.7.4 2.2.2 2 4.3 2.8v-4.8h.5m-5 0h-.5m-6.1-2.2h6.2m3.8-20.1h-.5l6.7 15.3.4-.2.4-.4h.2l.5-.5h2.3l-7.1-16.1h.5m-7.3 21.3l1.8-7.9h.5m7.8 3.8h-.5v.4h-.2l.2.5h.5m3.8-2h.9l.2.5h.5m-.5-.1l.9 2.2v.4h-.4v.5h-.5m-5.4-1.5l.5 2.2v-.5l.5-.1.4-.5h.2l1-.4h.2l.5-.2h2.8v.2h.4m-2.5 10.8l-.1-.6h-8.5m5-8.6h.5l.4.5h.4l-.4-1.6m.7 1.5h-.3l.2.5h.6m1.4 7.7l-2-7.7h-6.5m7.3 24.1v-5.9h.5m-80.5-60h-.3l1 1.6m-2.9 0l1.8-1.6h.1l-.3-.5h-2.5l-1.8 1.6m1.1 3.7l.4-.5h.2m-5.4 9.9v-9.9h.4m16 2.2h-4.5v-1.6h-1.4m7 0h-1.7v1.6m-.6-5.6v1.1h.5m-6.4 1.8l-.2 2.1m2.9-5v1.1h.4m-.6 2.9h4m6.9-4.5l-1.4 1m-10.8 2.9h7.9m-7 4.3h8.2"/>
  <path id="Layer15_16_MEMBER_51_1_STROKES" class="st1" d="M374.2 104.7h-7.9v-.9h1.4V102l2.3-.9 1.8.9v1.8h1.4l2.9-2.9h4.3l3.1 2.2 2.3-.6v-.5l2.3-.9 1.6.6 15.2-3.6h.5m-11.9 9.5h-.2v4.9h.7m3.8-4.9v8.1h-4.6v-3.2h-28.4m29.2-3.9l.5-.5m6.7-1.1v11.5h.5M355.8 100l3.1-2.8h.7v-.7h4.8v.7h29.1m-17.7 2.8h-7.1l-1.6.9-.9 1.1h.4m-1.7 2.2h-.5v-7m7.3 4.8h-4m4 1.8h-4m-7.6-6.6h-.5v7.5m4.8 2.9v8.1h-4.8v-8.1h.5m7.7 2.7h-1.6V108m.1.7h.4m-1.8 1l.7 1.8 1.6.9.5.2m23.1-10.6h-2.4l-2.6.6v.6m-2.4-.1l.3.2m6.8-1.3l-.8-.3-1.3.3h-2.6m-12 2.7l2.2-2.8 3.9-.9 3 2.2.5-.1m-.5.2l-4.4 1m-4.5 6l.6-.1-1.5-1.5.9 1.6 1.3 2.2m7.1.1l.1-.2.9-2.1.4-1.1m-9.2 1l1.8 1.7h4.4l2.9-3.2h.5m-10.4-.6l2.7 3.2h4.4l2.7-3.2m6.9-2.3v4.5h.2v-2.2h.5m.5-2.7l1.2 3.9h.4m-2.1 1h-.5m-7.4 0h2.4V107h.5m-3.7 5.4h8l1.4-1.1 1-2m-2.4 1h-4.8m-3.3-10.3h6.6m-15 10.3h-2.3m-6.8-10.8h28.6"/>
  <path id="Layer15_16_MEMBER_52_1_STROKES" class="st1" d="M425.5 103.1h-.4l7.1 8.4 11.5-6.6h.5m-49.8-24.1l3.8 3.9h.5m-5.2 16.4v-4.5h4.8v.7h.5l1.8 2h.5m-7.8 6.1v2.2l.2.1v-.1l3.6-3.4h.2m-3.8 3.6l.9.4 3.8-3.4-.4-1h.4v.4h.5m.1-4.2h-.5v-2.8h-.4m.9 7.5h-.5v.1l.5 1.2-.6 1.5.1 8.2h-4.8v-8m.5-.1h-.5m4.7 0l-.3 1-2.3.2-1.1-.6-.5.4m22.9-10.2l-.9 1.1-.6.5-.7 1.5v.5l-.5.7v1.1h.5l.1.2 2.6 2.1v-.2l-.5-.4.5-.4V104l.2-.5 1.6-2.4 1-.5.1-.4.3-.2-.3-.2h.5l.5-.2h1.2l-3.2-2h-.7l-.5.5-1.2.3zm.5 7.7h.6l.5-.2.2-.4h.1l-1.3-1-.1-.1m3.4-4.9l-.2.2 1.8 1.3v-1.8m-3.6 6.2l.2.2 2.5 1.9h.4m-.4-.1l6 6.8 4.8-2.7m-7.2-8.4l-2.7-2.1m28.4 16.8l-24.1 13.1-2.5-4.8h.5m22.9 19.5h15.2m-22.5-19h15.8m-6.5 26.9l-2-.7-1.6.6m-18.6-39.1l-7.3 4.2m-32.7-38.6l.7 2h.4m-6.1 17.6h-.5l1.2 2.5h3.1m-2.5 1.3l-.6-1.3h-.5m8.2 0l-.6-1.1-1.6-.9m-15.5 3.8l1.1-1.8h-2.5m2.5 0l1.6-2.5m15.4 8.6h-.5v.5l.5.2h-7.5m-.2-.7h7.2"/>
  <path id="Layer15_16_MEMBER_53_1_STROKES" class="st1" d="M449.1 113.1l-1.5 3.2-3.2 1.6-3.4-1.6-1.5-3.2 1.5-3.4 3.4-1.6 3.2 1.6 1.5 3.4h.5v-3.5l-5.9-4.6-.5-.7.5-.9.7-.2 1.4.2.2.9h.5m-2.3.6h-.5l.7.4 1.4-.4.2-.7m-5.7 8.9l1.1 2.7 2.3.9v-7.6l-2.2 1.1-1.2 2.9zm5.4 3.6h-.4v-.2l-1 .4-.2-.1-.5.1v-.2l.5.2m-4.7-9.3v-6.1h10.2v8.1l.7.6.5 7.7m-5.5-1.4v-7.3l-1-.5-.7.3m1.7 7.5l1.8-.8 1.4-2.7-1.4-2.9-1.8-.9m3.2 3.9h.2m-17 4.2h-.5l-1.2.6-.3.1-5 2.4.8 1.2h.7m5.5-10.4h1.6m-30.7 12.7h8.4l5.5 3.2 5.9-1.4-.4-.7h-.1l-5.9.7-4.5-3.4-1.1-5.4 2.8-5H424m-.5 0l2.2 3.1m-24-6.9h21.1m-22.3 3.1h24.6m4.6 6.8l-2.3-3.8m-4.6 11.5h-.4l.4.9 2.2-1 1.2-.6.8-.3.8-.4-2-2.6-2.4 1.2.1.3h.4m3.9 1.1h.5m-1.3.4l2.7 4.6h.5m-10.1-10.8l2.5 4.8.7-.3-3.1-4.9m2.5 5.2l-1.2.7.5 1.1h.4m.4 1.5l.2.5m2-1.5l2.8 4.8h.5m-2.1-5.4l2.7 5m10.5-5.7l5 1.2 5.2-1.2v-11.2m.3 11.2h-.2m-6.5-2.5l1 .9h.7l.9-.4.2-.6-.2-.9m-16.2-12.7h9.1m-16.3 8.8l2.3 3.5"/>
  <path id="Layer15_16_MEMBER_54_1_STROKES" class="st1" d="M404.8 96.6l-.8-1.4-2.2-1.9-.5.1-.2.5H400l-2.6-1.9-.1-.2-.5-.2v-1.4l.5-.2v-.9l.2-.6.5-.5.9-.7.2-.4.5-.7.7-.4.4-.5h.5l.2-.2h.5v.2h.5m-4.1-.7l-2.8 4.5h.5m3.9 4.8v-2.1l.2-.7.4-.9.5-.2.2-.9 1-.2.4-.9.2-.2.4-.5h.7l.4-.3-2.7-1.7m2.7 1.7l.1-.1.4.4-.1 1.8 12.8 8.7m-14.7-8.9l3.1 2.2h.5m-2.1-4.1l.5.3m0 1.8l-1.9-1.3m11.3 14.4l-4.8-3.7-.2-.1v.1l-1 3-3.2.5m4.1-3.5v-.1l-3.2-1.8-2.7 1.8m2.8-7.3l2.8 3.4.4 3.9m-5.2-3.2l-.1-.2h.5m1.6 6.5h.5l.2-.4h.5l.4-.2h.5v-.9l.2-.5v-.2l-.2-.4v-.4l-.5-.2v-.4h-.4l-.5-.5h-1.1l-.2.5h-.5v.4h.5m15.4 19.7l-.6-2.3-2.1-.7-2 1.2-.2 1.8.7 2.1 2.2.4 1.5-1.3h.5m3.4 3.1l-2.7-5h.4m-22-25.5l1.9 1.5m25.6 25.9l2.7 5.1h.1l2.2-1.4 1.5-1.1-2-3.4-.7.1 2.1 2.7-1.6.6-2-2.6.4-.2 1.2-.5m-3.9 7.7l.3-.2 2.5-1.7m2.2-1.4l2.5 3.7h.2m-.7-4.8h-.5m-2-3.4l-.7-1.1m-41.1-37.4l-.9.4-.2.5-.5.7-.4.4-.2.6v.5l-.5.5.5.2v.4h.2"/>
  <path id="Layer15_16_MEMBER_55_1_STROKES" class="st1" d="M396 82.4l.2-.5v-1.1h-1.6l-.2.5h-.9l-.2.6-1.3.6-.2 1-.9.2-.2.9v.4l-.4.2v1.1h1.1l.5-.2h.2"/>
  <path id="Layer15_16_MEMBER_56_1_STROKES" class="st1" d="M396.3 80.8l-1.1-.9m-4.7 5.1l2.8 2.2h.2m-5.7-3.5l2.3 2.6h.4M356.3 100h-.4v4.9l8.1.4 1-.6h.2m-5.5 3.4l2.5.7 2.2-1.1-25-.2-12.7 1.8-6 8.7m43.7-10.4h1.2l.7.4 18.4-2.2h.5m-.6-1.1l-18.6.6-.4.1-1.7-.1m2.4-3.3l-.7 3.4m11.3 2l.7.6h1.6m-20.9-1.5l-18.8-1.1-.2-.1-14.5 3.2-5 8.1h.5m1-5.1l-.7.4v.6h.2m-.2-.6l-2.5 1.6h.5m5.4-5.4h-3.1m34.9-3.2l-13.2-.6-13.2 1.6L318 112m-2.8 16.8l-2.8 3.8.2.5.4.4.2.1 3-2.8m-2.9 2.9l.3.2v1.1l.2.5-.2.5v.5l-.5.2-7.1 5.8-.1.1-.5.5h-.5l-.5-.5h-1.1l-.2-.5-.5-.4v-.2l-.9-.9v-1.8l.4-.5h.5v-.5h.5l6.5-5.4h1.8l.5.4h.5m-6.6 9.6l.2-.5v-.4l.4-.2v-.4l-.4-.5v-.2l-.2-.5v-.4l-.5-.2-.9-.9h-.2l-.9-.5h-.2l-.5.5m2.8 3.3l-2-.7-.2-1.8 1.3.6.9 1.9h.5"/>
  <path d="M391.1 65.7c-.2-.1-.5-.2-.8-.2l-.2-.1h-3v5.8h.8v-2.4h1.5c.8 0 1.4-.2 1.8-.5.3-.4.5-.8.5-1.2 0-.3-.1-.6-.2-.8-.1-.2-.2-.4-.4-.6m-1 .4l.1.1c.2 0 .3.1.5.3.1.2.2.4.2.6 0 .3-.1.6-.3.8-.2.2-.5.3-1.1.3H388v-2.1h2.1m-7.2.8v.6c.2 0 .5-.2.8-.4l.2-.1.5-.3v4.5h.8v-5.9h-.5c0 .1-.1.3-.2.4l-.4.4c-.5.4-.8.6-1.2.8m-4.9-1.5h-.8v5.8h.8v-2l1-1 2.1 3h1l-2.5-3.5 2.5-2.3h-1l-3 2.8v-2.8m18.7 1.5c0-.2-.1-.5-.2-.8-.2-.3-.4-.4-.7-.6-.2-.1-.6-.1-1-.1h-2.2v5.8h2.5l.7-.1.6-.2.2-.2.2-.4c.1-.3.2-.6.2-.8 0-.3-.1-.6-.3-.8-.2-.3-.5-.5-.9-.6.2-.1.4-.3.6-.5.2-.2.3-.5.3-.7m-1.4-.8c.3.1.4.2.5.4v.5c0 .2 0 .4-.1.5-.1.1-.2.2-.5.3l-.1.1h-1.9v-1.8h2.1m.8 3.9l-.3.3-.5.2h-2v-1.9h1.3c.4 0 .7 0 .9.1.2 0 .4.1.5.3.1.2.1.4.1.5.1.2 0 .4 0 .5zm-20.4 62.1h-2.1l-5.7 5.8v-5.8h-1.5v11.5h1.5v-4l1.9-1.8 4.1 5.8h2l-5.1-6.9 4.9-4.6m3.1 1.8c.4-.4.9-.6 1.7-.6.6 0 1.1.2 1.5.6.4.5.6.9.6 1.4s-.2 1.1-.6 1.7c-.4.6-1.3 1.4-2.6 2.4-.8.6-1.5 1.2-1.9 1.7-.5.6-.8 1.1-.9 1.5-.1.4-.1.7-.1 1h7.6v-1.4h-5.7c.2-.3.4-.6.6-.8l1.6-1.4c1-.8 1.7-1.5 2.2-2.1.4-.5.8-1 1-1.4.2-.4.3-.9.3-1.4 0-.9-.3-1.6-1-2.2-.7-.6-1.6-.9-2.6-.9-1.1 0-2 .3-2.7.8-.6.6-1 1.4-1.1 2.5l1.5.2c0-.7.2-1.2.6-1.6m14.4 7v-1.3h-1.5v-7.5h-1.2l-5.3 7.5v1.3h5.1v2.7h1.4v-2.7h1.5m-6.6-1.3l3.7-5.2v5.2h-3.7zm-2.2 58.7v11.5h1.6v-4l1.9-1.8 4.1 5.8h2l-5-6.9 4.8-4.6h-2l-5.8 5.8v-5.8h-1.6m11.9 3.4c0-.7.2-1.3.6-1.7.4-.4 1-.6 1.7-.6s1.2.2 1.5.6c.4.4.6.8.6 1.4 0 .5-.2 1.1-.7 1.8-.5.7-1.3 1.5-2.5 2.5-.9.7-1.5 1.2-1.9 1.7-.4.5-.7 1-.9 1.5-.1.3-.2.6-.2 1h7.6v-1.4h-5.6c.2-.2.4-.5.6-.8l1.7-1.4c1-.9 1.8-1.6 2.2-2.1.4-.5.7-1 .9-1.4.2-.4.2-.9.2-1.4 0-.9-.3-1.6-.9-2.2s-1.5-.9-2.6-.9-2 .3-2.6.9c-.7.6-1 1.4-1.2 2.5h1.5m9.3 1.2l.7-3.1h4.6v-1.4h-5.8l-1.1 5.9 1.3.2c.2-.4.5-.6.9-.8.3-.2.7-.4 1.2-.4.7 0 1.3.2 1.8.8.4.5.6 1.1.6 1.9 0 .8-.2 1.5-.7 2-.5.5-1 .8-1.8.8-.6 0-1-.2-1.4-.6-.4-.3-.7-.9-.8-1.6l-1.5.1c.1.9.4 1.7 1.1 2.4.7.6 1.5.9 2.5.9 1.3 0 2.3-.5 3.1-1.4.6-.8.9-1.7.9-2.8 0-1.1-.3-2-1-2.6-.7-.7-1.5-1.1-2.5-1.1-.7.1-1.4.3-2.1.8zm13.3 63.6c.7 0 1.2.2 1.5.6.4.4.6.9.6 1.4 0 .5-.2 1.1-.7 1.7-.4.6-1.2 1.4-2.5 2.4-.8.7-1.5 1.3-1.8 1.8-.4.5-.8 1-1 1.5-.1.3-.2.6-.2 1h7.7v-1.4h-5.7l.4-.5 1.9-1.6c1.1-1 1.8-1.7 2.2-2.1.4-.5.8-1 1-1.4.2-.4.3-.9.3-1.4 0-.9-.3-1.6-1-2.2-.6-.6-1.5-.9-2.6-.9s-2 .3-2.6.8c-.7.6-1.1 1.4-1.2 2.5l1.5.1c0-.7.2-1.2.6-1.6.3-.5.9-.7 1.6-.7m10.5-.8c-.5-.3-1.1-.4-1.7-.4-.9 0-1.7.3-2.3.8-.7.5-1 1.3-1.1 2.2l1.4.2c.1-.7.3-1.2.7-1.6.4-.4.8-.5 1.3-.5.6 0 1 .2 1.4.5.3.3.5.7.5 1.2 0 .7-.2 1.2-.7 1.5-.4.3-1 .5-1.6.5h-.2l-.2 1.2.8-.1h.2c.7 0 1.2.2 1.7.6.4.4.6 1 .6 1.6 0 .6-.2 1.2-.7 1.7-.5.5-1 .7-1.7.7-.5 0-1-.2-1.5-.5-.4-.4-.7-1-.8-1.8l-1.4.2c.1 1 .5 1.8 1.1 2.4.7.6 1.6.9 2.6.9 1.1 0 2-.4 2.8-1.1.7-.6 1.1-1.5 1.1-2.5 0-.7-.2-1.3-.5-1.9-.4-.5-.9-.8-1.6-1 .5-.3.9-.6 1.2-1 .3-.4.4-.9.4-1.3 0-.5-.1-1-.5-1.5-.4-.3-.8-.7-1.3-1m-15.3-.3h-2l-5.8 5.7v-5.7h-1.6v11.5h1.6v-4l1.8-1.8 4.2 5.8h2l-5-6.8 4.8-4.7z" fill="#201b18"/>
  <path d="M359.4 41.6l-5.8 3.3 17.2 7.8 1.8-18.8-5.8 3.3-7.7-13.4-7.6 4.4 7.9 13.4z" fill="#2b4b9b"/>
  <text transform="translate(309.661 19.953)" class="st5" font-size="14" fill="#e52521">
    RELAY RL4
  </text>
  <text transform="matrix(1.0059 0 0 1 389.738 339.192)" class="st7 st5 st8">
    Standby Battery Contactor Box
  </text>
  <path class="st9" d="M229.1 389.3v3.6h287.8v-3.6H229.1z" id="Layer15_0_MEMBER_0_FILL"/>
  <path class="st9" d="M226.2 591.2v4.3h291.3v-4.3H226.2z" id="Layer15_0_MEMBER_1_FILL"/>
  <path class="st9" d="M293.3 441.4v2.2h52.9v-2.2h-52.9z" id="Layer15_0_MEMBER_2_FILL"/>
  <path class="st9" d="M346.2 515.6v-2.9h-52.9v2.9h52.9z" id="Layer15_0_MEMBER_3_FILL"/>
  <path class="st9" d="M346.2 525.6v-2.9h-52.9v2.9h52.9z" id="Layer15_0_MEMBER_4_FILL"/>
  <path class="st9" d="M292.6 568.4v2.8h52.1v-2.8h-52.1z" id="Layer15_0_MEMBER_5_FILL"/>
  <path class="st9" d="M456.2 499.2v-2.9H404v2.9h52.2z" id="Layer15_0_MEMBER_6_FILL"/>
  <path class="st9" d="M403.3 416.4v2.2h53.6v-2.2h-53.6z" id="Layer15_0_MEMBER_7_FILL"/>
  <path class="st9" d="M229.8 491.3h-3.6v104.1h3.6V491.3z" id="Layer15_0_MEMBER_8_FILL"/>
  <path class="st9" d="M229.8 389.3h-3.6v40.8h3.6v-40.8z" id="Layer15_0_MEMBER_9_FILL"/>
  <path class="st9" d="M226.2 478.5h3.6V462h-3.6v16.5z" id="Layer15_0_MEMBER_10_FILL"/>
  <path class="st9" d="M518.3 447.1H514v148.3h4.3V447.1z" id="Layer15_0_MEMBER_11_FILL"/>
  <path class="st9" d="M518.3 389.3H514v20.4h4.3v-20.4z" id="Layer15_0_MEMBER_12_FILL"/>
  <path class="st9" d="M346.2 441.4h-2.9v74.2h2.9v-74.2z" id="Layer15_0_MEMBER_13_FILL"/>
  <path class="st9" d="M294.8 441.4h-2.1v74.2h2.1v-74.2z" id="Layer15_0_MEMBER_14_FILL"/>
  <path class="st9" d="M458.3 447.1h-2.8v52h2.8v-52z" id="Layer15_0_MEMBER_15_FILL"/>
  <path class="st9" d="M346.2 532v-8.5h-2.9v8.5h2.9z" id="Layer15_0_MEMBER_16_FILL"/>
  <path class="st9" d="M294.8 531.3v-8.6h-2.1v8.6h2.1z" id="Layer15_0_MEMBER_17_FILL"/>
  <path class="st9" d="M294.8 551.2h-2.1v19.3h2.1v-19.3z" id="Layer15_0_MEMBER_18_FILL"/>
  <path class="st9" d="M346.2 546.2h-2.9v25h2.9v-25z" id="Layer15_0_MEMBER_19_FILL"/>
  <path class="st9" d="M401.9 426.4h2.8v-10h-2.8v10z" id="Layer15_0_MEMBER_20_FILL"/>
  <path class="st9" d="M455.5 416.4v9.2h2.8v-9.2h-2.8z" id="Layer15_0_MEMBER_21_FILL"/>
  <path class="st9" d="M401.9 485.6v13.5h2.8v-13.5h-2.8z" id="Layer15_0_MEMBER_22_FILL"/>
  <path class="st9" d="M140.6 442.1v-2.9H19.2v2.9h121.4z" id="Layer15_0_MEMBER_23_FILL"/>
  <path class="st9" d="M140.6 514.8v-2.1H19.2v2.1h121.4z" id="Layer15_0_MEMBER_24_FILL"/>
  <path class="st9" d="M21.3 439.2h-2.9v75.6h2.9v-75.6z" id="Layer15_0_MEMBER_25_FILL"/>
  <path class="st9" d="M139.1 445h2.8v-5.8h-2.8v5.8z" id="Layer15_0_MEMBER_26_FILL"/>
  <path class="st9" d="M141.3 508.5h-2.1v6.4h2.1v-6.4z" id="Layer15_0_MEMBER_27_FILL"/>
  <path class="st10" d="M400.5 438.5v-.7h-17.1v.7h17.1z" id="Layer15_0_MEMBER_29_FILL"/>
  <path class="st11" d="M329.1 458.5v.7h67.1v-.7h-67.1z" id="Layer15_0_MEMBER_30_FILL"/>
  <path class="st10" d="M349.8 416.4v.8h34.3v-.8h-34.3z" id="Layer15_0_MEMBER_31_FILL"/>
  <path class="st10" d="M299.8 419.3v-2.9h19.3v-.7h-19.3v-2.1l-8.5 2.8 8.5 2.9z" id="Layer15_0_MEMBER_32_FILL"/>
  <path class="st11" d="M241.3 458.5v.7h61.4v-.7h-61.4z" id="Layer15_0_MEMBER_33_FILL"/>
  <path class="st12" d="M145.6 483.5v.7h74.6v-.7h-74.6z" id="Layer15_0_MEMBER_34_FILL"/>
  <path class="st12" d="M131.3 496.3v-.7H87.7v.7h43.6z" id="Layer15_0_MEMBER_35_FILL"/>
  <path class="st12" d="M145.6 496.3v.8h12.1v-.8h-12.1z" id="Layer15_0_MEMBER_36_FILL"/>
  <path class="st9" d="M132 461.4h-22.8v.7l3.5 5.7 2.9-5.7H132v-.7z" id="Layer15_0_MEMBER_37_FILL"/>
  <path class="st12" d="M132 484.2v-.7h-16.4l-2.9-5.7-3.5 5.7v.7H132z" id="Layer15_0_MEMBER_38_FILL"/>
  <path class="st10" d="M409.1 438.5v.7H422v-.7l-3.6-5.7-2.8 5.7h-6.5z" id="Layer15_0_MEMBER_39_FILL"/>
  <path class="st10" d="M436.2 437.8v.7h16.5v-.7h-10l-2.9-5.7-3.6 5.7z" id="Layer15_0_MEMBER_40_FILL"/>
  <path class="st10" d="M463.3 438.5v.7h43.6v-.7h-43.6z" id="Layer15_0_MEMBER_41_FILL"/>
  <path class="st10" d="M563.1 439.2v.8h20.6v62.9h10.7v-.8h-10v-62.9h-21.3m-11.4.8v-.8h-25.5v.8h25.5z" id="Layer15_0_MEMBER_42_FILL"/>
  <path class="st11" d="M371.9 476.4v.7h23.5v-.7h-23.5z" id="Layer15_0_MEMBER_43_FILL"/>
  <path class="st11" d="M372.6 476.4h-.7v52h.7v-52z" id="Layer15_0_MEMBER_44_FILL"/>
  <path class="st10" d="M384.1 438.5v-21.4h-.7v21.4h.7z" id="Layer15_0_MEMBER_45_FILL"/>
  <path class="st11" d="M371.9 527.7v.7h15.7v-.7h-15.7z" id="Layer15_0_MEMBER_46_FILL"/>
  <path class="st9" d="M404.8 452.1v-5H402v5h2.8z" id="Layer15_0_MEMBER_47_FILL"/>
  <path class="st12" d="M331.2 538v-.7h-22.8v.7h22.8z" id="Layer15_0_MEMBER_49_FILL"/>
  <path class="st12" d="M348.3 540.6v.7h38.6v-.7h-38.6z" id="Layer15_0_MEMBER_50_FILL"/>
  <path class="st12" d="M332.7 540.6v.7h7.8v-.7h-7.8z" id="Layer15_0_MEMBER_51_FILL"/>
  <path class="st12" d="M298.4 540.6v.7h7.8v-.7h-7.8z" id="Layer15_0_MEMBER_52_FILL"/>
  <path class="st12" d="M87.7 496.3v-16.4H87v16.4h.7z" id="Layer15_0_MEMBER_54_FILL"/>
  <path class="st12" d="M92.4 474.1h-.8l-4.6 5.8h.8l4.6-5.8z" id="Layer15_0_MEMBER_55_FILL"/>
  <path class="st11" d="M190.5 454.2h-.7v10h.7v-10z" id="Layer15_0_MEMBER_57_FILL"/>
  <path class="st11" d="M187.7 455.7h-.7v6.4h.7v-6.4z" id="Layer15_0_MEMBER_58_FILL"/>
  <path class="st11" d="M185.5 457.1h-.7v3.6h.7v-3.6z" id="Layer15_0_MEMBER_59_FILL"/>
  <path class="st11" d="M220.1 459.2v-.7h-28.9v.7h28.9z" id="Layer15_0_MEMBER_60_FILL"/>
  <path class="st9" d="M396.2 541.3v-13.6h-.7v13.6h.7z" id="Layer15_0_MEMBER_74_FILL"/>
  <path class="st9" d="M391.9 523.4l-.7.8 4.3 4.2h.7l-4.3-5z" id="Layer15_0_MEMBER_75_FILL"/>
  <path class="st9" d="M391.9 545.5h.8l3.5-4.2-.7-.7-3.6 4.9z" id="Layer15_0_MEMBER_76_FILL"/>
  <path class="st10" d="M678.1 507.4h.8v-10h-.8v10z" id="Layer15_0_MEMBER_77_FILL"/>
  <path class="st10" d="M680.9 505.9h.7v-6.5h-.7v6.5z" id="Layer15_0_MEMBER_78_FILL"/>
  <path class="st10" d="M683.1 504.5h1.4v-3.6h-1.4v3.6z" id="Layer15_0_MEMBER_79_FILL"/>
  <path class="st10" d="M678.1 503.1v-.7h-32.2v.7h32.2z" id="Layer15_0_MEMBER_80_FILL"/>
  <path class="st10" d="M337.9 404.7v-.7h-7.2v.8h7.2z" id="Layer15_0_MEMBER_84_FILL"/>
  <path class="st10" d="M333.9 408.3h.8v-3.6h-.8v3.6z" id="Layer15_0_MEMBER_85_FILL"/>
  <path class="st10" d="M554.3 439.2v.8h6.3v-.8h-6.3z" id="Layer15_0_MEMBER_86_FILL"/>
  <path class="st10" d="M557.2 442.8h.7V437h-.7v5.8z" id="Layer15_0_MEMBER_87_FILL"/>
  <g transform="translate(678.9 589.35) scale(.95404)">
    <defs>
      <path id="SVGID_1_" d="M-624.8-140.2h24.5v14.2h-24.5z"/>
    </defs>
    <clipPath id="SVGID_2_">
      <use xlink:href="#SVGID_1_" overflow="visible"/>
    </clipPath>
  </g>
  <g transform="translate(623.95 593.65) scale(.95404)">
    <defs>
      <path id="SVGID_3_" d="M-624.3-140.2h45.9v14.2h-45.9z"/>
    </defs>
    <clipPath id="SVGID_4_">
      <use xlink:href="#SVGID_3_" overflow="visible"/>
    </clipPath>
  </g>
  <g transform="translate(623.95 602.9) scale(.95404)">
    <defs>
      <path id="SVGID_5_" d="M-624.3-140.2h44.7v14.2h-44.7z"/>
    </defs>
    <clipPath id="SVGID_6_">
      <use xlink:href="#SVGID_5_" overflow="visible"/>
    </clipPath>
  </g>
  <g transform="translate(623.95 615.75) scale(.95404)">
    <defs>
      <path id="SVGID_7_" d="M-624.3-140.2h47.1v14.2h-47.1z"/>
    </defs>
    <clipPath id="SVGID_8_">
      <use xlink:href="#SVGID_7_" overflow="visible"/>
    </clipPath>
  </g>
  <g transform="translate(623.95 625) scale(.95404)">
    <defs>
      <path id="SVGID_9_" d="M-624.2-140.2h48.9v14.2h-48.9z"/>
    </defs>
    <clipPath id="SVGID_10_">
      <use xlink:href="#SVGID_9_" overflow="visible"/>
    </clipPath>
  </g>
  <g transform="translate(906.05 684.9) scale(.95404)">
    <defs>
      <path id="SVGID_11_" d="M-625-140.2h18.4v14.2H-625z"/>
    </defs>
    <clipPath id="SVGID_12_">
      <use xlink:href="#SVGID_11_" overflow="visible"/>
    </clipPath>
  </g>
  <g transform="translate(1016 612.2) scale(.95404)">
    <defs>
      <path id="SVGID_13_" d="M-623.7-133.8h18.4v14.2h-18.4z"/>
    </defs>
    <clipPath id="SVGID_14_">
      <use xlink:href="#SVGID_13_" overflow="visible"/>
    </clipPath>
    <text transform="translate(-622.105 -123.147) scale(1.0482)" class="st9 st5 st13">
      K23
    </text>
  </g>
  <g transform="translate(1001.75 513.05) scale(.95404)">
    <defs>
      <path id="SVGID_15_" d="M-623.3-140.2h87.6v14.2h-87.6z"/>
    </defs>
    <clipPath id="SVGID_16_">
      <use xlink:href="#SVGID_15_" overflow="visible"/>
    </clipPath>
  </g>
  <path class="st9" d="M319.1 455.5h-.8v12.1h.8v-12.1z" id="Layer15_0_MEMBER_137_FILL"/>
  <path class="st9" d="M319.1 489.8v-15.7h-.8v15.7h.8z" id="Layer15_0_MEMBER_138_FILL"/>
  <path class="st9" d="M319.4 552h.8v-5.8h-.8v5.8z" id="Layer15_0_MEMBER_139_FILL"/>
  <path class="st9" d="M319.4 539.8h.8v-5.7h-.8v5.7z" id="Layer15_0_MEMBER_140_FILL"/>
  <path class="st9" d="M318.3 506.2h.8v-8.5h-.8v8.5z" id="Layer15_0_MEMBER_141_FILL"/>
  <path class="st9" d="M429.4 440.7v-11.4h-.7v11.4h.7z" id="Layer15_0_MEMBER_142_FILL"/>
  <path class="st9" d="M429.4 447.1h-.7v16.4h.7v-16.4z" id="Layer15_0_MEMBER_143_FILL"/>
  <path class="st9" d="M428.7 479.2h.7v-8.6h-.7v8.6z" id="Layer15_0_MEMBER_144_FILL"/>
  <text transform="matrix(1.0059 0 0 1 228.036 606.563)" class="st7 st5 st14">
    Standby Battery Contactor Box
  </text>
  <text transform="translate(399.411 528.352)">
    <tspan x="0" y="0" class="st9 st5 st13">SEE BATT.</tspan><tspan x="0" y="10.3" class="st9 st5 st13">SYS.</tspan><tspan x="0" y="20.6" class="st9 st5 st13">(24-32-00)</tspan>
  </text>
  <text transform="translate(550.356 452.052)" class="st9 st5 st13">
    P22
  </text>
  <text transform="translate(504.905 419.951)">
    <tspan x="0" y="0" class="st9 st5 st13">2431-</tspan><tspan x="3.3" y="10.3" class="st9 st5 st13">P10</tspan>
  </text>
  <text transform="translate(512.113 442.427)" class="st9 st5 st14">
    C
  </text>
  <text transform="translate(291.311 544.377)" class="st5 st8">
    7
  </text>
  <text transform="translate(341.486 544.652)" class="st5 st8">
    8
  </text>
  <text transform="translate(323.561 510.194)" class="st5 st8">
    RL4
  </text>
  <text transform="translate(320.086 401.818)" class="st9 st5 st14">
    CB50
  </text>
  <text transform="translate(326.136 421.402)" class="st9 st5 st13">
    100
  </text>
  <text transform="translate(311.986 565.011)" class="st9 st5 st13">
    K24
  </text>
  <text transform="translate(454.56 441.197)" class="st5 st8">
    2
  </text>
  <text transform="translate(400.422 439.952)" class="st5 st8">
    1
  </text>
  <text transform="translate(397.641 463.077)" class="st5 st8">
    12
  </text>
  <text transform="translate(398.012 480.952)" class="st5 st8">
    11
  </text>
  <text transform="translate(241.915 408.022)">
    <tspan x="0" y="0" class="st9 st5 st13">SEE BATT.</tspan><tspan x="24.3" y="10.3" class="st9 st5 st13">SYS.</tspan><tspan x="3.8" y="20.6" class="st9 st5 st13">(24-32-00)</tspan>
  </text>
  <text transform="translate(217.056 437.802)">
    <tspan x="0" y="0" class="st9 st5 st13">2431-</tspan><tspan x="5.7" y="10.3" class="st9 st5 st13">P9</tspan>
  </text>
  <text transform="translate(224.11 461.202)" class="st5 st14">
    P
  </text>
  <text transform="translate(223.502 488.752)" class="st5 st14">
    R
  </text>
  <text transform="translate(602.677 529.006)">
    <tspan x="0" y="0" class="st9 st5 st13">HYD SYS # 3</tspan><tspan x="2.6" y="10.3" class="st9 st5 st13">DC MOTOR</tspan>
  </text>
  <text transform="translate(425.401 386.412)" class="st9 st5 st13">
    NOSE COMPARTMENT
  </text>
  <text transform="translate(161.282 494.074)">
    <tspan x="0" y="0" class="st9 st5 st13">SEE RELAY</tspan><tspan x="0" y="10.3" class="st9 st5 st13">GROUNDS</tspan>
  </text>
  <text transform="translate(31.389 461.352)">
    <tspan x="0" y="0" class="st9 st5 st15">HI &gt; 3250</tspan><tspan x="22.3" y="10.8" class="st9 st5 st15">MAX</tspan>
  </text>
  <text transform="translate(28.383 498.027)">
    <tspan x="0" y="0" class="st9 st5 st15">LO &lt; 2600</tspan><tspan x="28.3" y="10.8" class="st9 st5 st15">MIN</tspan>
  </text>
  <text transform="translate(20.398 523.972)" class="st9 st5 st15">
    HYD SYS # 3 PRESS SW
  </text>
  <text transform="translate(92.746 435.512)" class="st9 st5 st15">
    EMPEN. RH
  </text>
  <text transform="translate(142.213 456.64)" class="st5 st8">
    P5
  </text>
  <text transform="translate(135.405 465.864)" class="st5 st14">
    A
  </text>
  <text transform="translate(135.71 487.752)" class="st5 st14">
    C
  </text>
  <text transform="translate(136.014 500.142)" class="st5 st14">
    B
  </text>
  <path d="M592.7 493h63.4v17.9h-63.4z"/>
  <path class="st16" d="M593.8 494h61.3v16h-61.3z"/>
  <circle class="st9" cx="624.4" cy="501.9" r="14.2"/>
  <circle class="st16" cx="624.4" cy="501.9" r="11.6"/>
  <path class="st10" d="M440.5 431.7v-1.8h-22.8v1.8h22.8z" id="Layer15_0_MEMBER_28_FILL"/>
  <path d="M432.5 459.2c2.5 0 4.5 2.1 4.5 4.6 0 2.6-2 4.6-4.5 4.6m.2.1c2.5 0 4.5 2.1 4.5 4.6 0 2.6-2 4.6-4.5 4.6m-.2-18.5h-21.6m21.8 18.6h-21.5" fill="none" stroke="#008d36" stroke-miterlimit="10"/>
  <circle class="st18" cx="347.5" cy="416.8" r="3.9"/>
  <circle class="st16" cx="347.5" cy="416.8" r="3.1"/>
  <circle class="st18" cx="320.9" cy="416" r="3.9"/>
  <circle class="st16" cx="320.9" cy="416" r="3.1"/>
  <path class="st18" d="M344.6 414.6c.1 0 .1 0 0 0l1.5-1c-2.6-3.8-7-6.4-12-6.4-4.7 0-8.9 2.2-11.5 5.7l1.3 1.2c2.3-3.1 6-5.2 10.2-5.2 4.4.1 8.3 2.3 10.5 5.7z"/>
  <circle class="st19" cx="302.9" cy="458.9" r="3.2"/>
  <circle class="st16" cx="302.9" cy="458.9" r="2.5"/>
  <path class="st11" d="M303.6 455v.7l21.4 2.5v-.7l-21.4-2.5z" id="Layer15_0_MEMBER_61_FILL"/>
  <path class="st20" d="M322.8 483.8c2.5 0 4.5 2.1 4.5 4.6 0 2.6-2 4.6-4.5 4.6m.3.1c2.5 0 4.5 2.1 4.5 4.6 0 2.6-2 4.6-4.5 4.6m-.3-18.5h-82.5m82.8 18.6h-46.6"/>
  <circle class="st19" cx="327.3" cy="458.9" r="3.2"/>
  <circle class="st16" cx="327.3" cy="458.9" r="2.5"/>
  <circle class="st12" cx="308.8" cy="540.9" r="3.2"/>
  <circle class="st16" cx="308.8" cy="540.9" r="2.5"/>
  <circle class="st12" cx="330.9" cy="540.9" r="3.2"/>
  <circle class="st16" cx="330.9" cy="540.9" r="2.5"/>
  <path class="st20" d="M276.5 501.8v39.6m0-.5H289"/>
  <circle class="st12" cx="94.1" cy="473.2" r="3.2"/>
  <circle class="st16" cx="94.1" cy="473.2" r="2.5"/>
  <path d="M101.9 497.6c-3.7 0-6.7 3-6.7 6.7v4.5h13.4v-4.5c0-3.7-3-6.7-6.7-6.7zm5.6 10.3H96.3v-3.8c0-3.1 2.5-5.6 5.6-5.6 3.1 0 5.6 2.5 5.6 5.6v3.8zm-6-34.2h.7v12.1h-.7z"/>
  <path d="M101.5 490h.7v12.1h-.7z"/>
  <path class="st12" d="M117.7 478.5L97 472.1v.7l20 6.4.7-.7z" id="Layer15_0_MEMBER_56_FILL"/>
  <text transform="translate(108.7 494.074)" class="st9 st5 st8">
    LOW
  </text>
  <text transform="translate(108.558 458.852)" class="st9 st5 st8">
    HIGH
  </text>
</svg>
