<?xml version="1.0" encoding="utf-8"?>
<!-- Generator: Adobe Illustrator 24.1.2, SVG Export Plug-In . SVG Version: 6.00 Build 0)  -->
<svg version="1.1" id="Ebene_1" xmlns="http://www.w3.org/2000/svg" xmlns:xlink="http://www.w3.org/1999/xlink" x="0px" y="0px"
	 viewBox="0 0 349.1 161" style="enable-background:new 0 0 349.1 161;" xml:space="preserve">
<style type="text/css">
	.st0{fill:none;stroke:#B1B1B1;stroke-width:0.5;stroke-miterlimit:5;}
	.st1{fill:none;stroke:#B1B1B1;stroke-width:0.3;stroke-miterlimit:5;}
	.st2{fill:none;stroke:#000000;stroke-width:0.5;stroke-miterlimit:5;}
	.st3{fill:#FFFFFF;}
	.st4{fill:#CCCCCC;}
	.st5{fill:#FF9900;}
	.st6{fill:#0099FF;}
	.st7{fill:none;stroke:#000000;stroke-width:0.5;stroke-miterlimit:60;}
	.st8{fill:#FF0000;}
	.st9{fill:none;stroke:#000000;stroke-width:0.2;stroke-miterlimit:5;}
	.st10{fill:none;stroke:#FF9900;stroke-linecap:round;stroke-linejoin:round;}
	.st11{fill:none;stroke:#FFFFFF;stroke-miterlimit:5;}
	.st12{font-family:'ArialMT';}
	.st13{font-size:14px;}
	.st14{font-size:12px;}
</style>
<path id="units_eng_RH_0_Layer0_0_MEMBER_0_1_STROKES" class="st0" d="M290.5,22.7h-0.3v0.1h-0.1v1.7h0.1v0.1h-0.5v2.2h-0.1v0.4H288
	v0.4c-0.5,0.1-1.2,0.2-2,0.4c-0.9,0.2-1.6,0.3-2,0.4v-0.2l-0.1-0.1h-0.8V29h-0.3v-2.1h-2.2v2h0.2v0.2h-4v3.4l0,0.1l0.2,0.1h3.8v0.2
	h3.2v0.6c1.2,0.1,1.9,0.2,2,0.2c0.7,0,1.4,0,2.1-0.2v0.4h4.5v0.2h0.7"/>
<path id="units_eng_RH_0_Layer0_0_MEMBER_1_1_STROKES" class="st0" d="M294.2,34.6h0.6l0.1,0h0.1l0.2-0.1l0.1-0.1v-0.4h1v1h1.3v-0.8
	h0.2l0.2,0h0.6l0.1,0.1l0.1,0.1V35l0.1,0.1l0.1,0.1h0.6v0h0.2"/>
<path id="units_eng_RH_0_Layer0_0_MEMBER_2_1_STROKES" class="st0" d="M292.4,22.5l0.7,0l0.5,0.1l0.1,0.1l0.1,0.1v1.8h1.2v2.2h0.1
	v0.4h1.5v-1h1.3V27h0.2l0.1,0.3h0l0,0h0.2V27l0.1-0.2l0.2-0.2l0.9-0.6h0.3V26h0.2"/>
<path id="units_eng_RH_0_Layer0_0_MEMBER_3_1_STROKES" class="st0" d="M239.8,48.6h0.5"/>
<path id="units_eng_RH_0_Layer0_0_MEMBER_4_1_STROKES" class="st0" d="M239.8,45.9h0.5"/>
<path id="units_eng_RH_0_Layer0_0_MEMBER_5_1_STROKES" class="st0" d="M241.6,48.5h0.2"/>
<path id="units_eng_RH_0_Layer0_0_MEMBER_6_1_STROKES" class="st0" d="M240.9,49.3l0.5-0.9"/>
<path id="units_eng_RH_0_Layer0_0_MEMBER_7_1_STROKES" class="st0" d="M241.5,48.6l-0.5,0.9"/>
<path id="units_eng_RH_0_Layer0_0_MEMBER_8_1_STROKES" class="st0" d="M240.9,45.1l0.5,0.9"/>
<path id="units_eng_RH_0_Layer0_0_MEMBER_9_1_STROKES" class="st0" d="M241.5,45.9l-0.5-0.8"/>
<path id="units_eng_RH_0_Layer0_0_MEMBER_10_1_STROKES" class="st0" d="M242.8,48.6v-0.2"/>
<path id="units_eng_RH_0_Layer0_0_MEMBER_11_1_STROKES" class="st0" d="M242.9,48.6l0.3,0.6"/>
<path id="units_eng_RH_0_Layer0_0_MEMBER_12_1_STROKES" class="st0" d="M242.7,48.7l0.3,0.6"/>
<path id="units_eng_RH_0_Layer0_0_MEMBER_13_1_STROKES" class="st0" d="M242.9,45.8l0.3-0.6"/>
<path id="units_eng_RH_0_Layer0_0_MEMBER_14_1_STROKES" class="st0" d="M242.7,45.8l0.3-0.6"/>
<path id="units_eng_RH_0_Layer0_0_MEMBER_15_1_STROKES" class="st0" d="M241.1,50.1c0,0.2,0.1,0.3,0.3,0.3"/>
<path id="units_eng_RH_0_Layer0_0_MEMBER_16_1_STROKES" class="st0" d="M242.5,50.5c0.2,0,0.3-0.1,0.3-0.3"/>
<path id="units_eng_RH_0_Layer0_0_MEMBER_17_1_STROKES" class="st0" d="M243.6,49.4c0.2,0,0.3-0.1,0.3-0.2"/>
<path id="units_eng_RH_0_Layer0_0_MEMBER_18_1_STROKES" class="st0" d="M240.3,49.2c0,0.2,0.1,0.2,0.2,0.2"/>
<path id="units_eng_RH_0_Layer0_0_MEMBER_19_1_STROKES" class="st0" d="M241.1,50v0.2"/>
<path id="units_eng_RH_0_Layer0_0_MEMBER_20_1_STROKES" class="st0" d="M243.4,49.4h0.2"/>
<path id="units_eng_RH_0_Layer0_0_MEMBER_21_1_STROKES" class="st0" d="M242.8,50v0.2"/>
<path id="units_eng_RH_0_Layer0_0_MEMBER_22_1_STROKES" class="st0" d="M240.5,45c-0.1,0-0.2,0.1-0.2,0.2"/>
<path id="units_eng_RH_0_Layer0_0_MEMBER_23_1_STROKES" class="st0" d="M243.9,45.4c0-0.3-0.1-0.4-0.4-0.4"/>
<path id="units_eng_RH_0_Layer0_0_MEMBER_24_1_STROKES" class="st0" d="M242.8,44.3c0-0.2-0.1-0.3-0.3-0.3"/>
<path id="units_eng_RH_0_Layer0_0_MEMBER_25_1_STROKES" class="st0" d="M241.4,44c-0.2,0-0.3,0.1-0.3,0.3"/>
<path id="units_eng_RH_0_Layer0_0_MEMBER_26_1_STROKES" class="st0" d="M242.8,44.5v-0.2"/>
<path id="units_eng_RH_0_Layer0_0_MEMBER_27_1_STROKES" class="st0" d="M241.1,44.5v-0.2"/>
<path id="units_eng_RH_0_Layer0_0_MEMBER_28_1_STROKES" class="st0" d="M240.3,49.2v-4"/>
<path id="units_eng_RH_0_Layer0_0_MEMBER_29_1_STROKES" class="st0" d="M243.9,49.2v-3.8"/>
<path id="units_eng_RH_0_Layer0_0_MEMBER_30_1_STROKES" class="st0" d="M241.4,44h1.1"/>
<path id="units_eng_RH_0_Layer0_0_MEMBER_31_1_STROKES" class="st0" d="M241.4,50.5h1.1"/>
<path id="units_eng_RH_0_Layer0_0_MEMBER_32_1_STROKES" class="st0" d="M244,50c0-0.4-0.2-0.6-0.5-0.6c-0.4,0-0.6,0.2-0.6,0.5
	c0,0.4,0.2,0.6,0.5,0.6C243.8,50.6,244,50.4,244,50z"/>
<path id="units_eng_RH_0_Layer0_0_MEMBER_33_1_STROKES" class="st0" d="M241.1,50c0-0.4-0.2-0.6-0.5-0.6c-0.3,0-0.5,0.1-0.6,0.5
	c0,0.4,0.2,0.6,0.5,0.6S241.1,50.4,241.1,50z"/>
<path id="units_eng_RH_0_Layer0_0_MEMBER_34_1_STROKES" class="st0" d="M244,44.5c0-0.4-0.2-0.6-0.5-0.6c-0.4,0-0.6,0.2-0.6,0.5
	c0,0.4,0.2,0.6,0.5,0.6C243.7,45,243.9,44.9,244,44.5z"/>
<path id="units_eng_RH_0_Layer0_0_MEMBER_35_1_STROKES" class="st0" d="M241.1,44.5c0-0.4-0.2-0.6-0.5-0.6c-0.4,0-0.6,0.2-0.6,0.5
	c0,0.4,0.2,0.6,0.5,0.6C240.9,45,241.1,44.9,241.1,44.5z"/>
<path id="units_eng_RH_0_Layer0_0_MEMBER_36_1_STROKES" class="st0" d="M299.9,20.3h-7.2v0.4l-0.2,0.1v1l-0.2,0.3v0.7l-0.2,0.3h-1.6
	l-0.2-0.3l0-0.7l-0.2-0.3v-1l-0.2-0.1v-0.6h-2.4v-0.9h-0.1l-0.2-0.1h-0.8V20h-1V19h-0.8l-0.5,0.6h-1.5v-0.1h-0.2v0.8h-1.4v-1h-0.5
	v-0.6l0-0.1v-2l0-0.1l0.1-0.1h3.2v0l0.1-0.1v0l0.1,0h3.6v-1h2.4v-0.2h0.5V15l0-0.1l0.1,0h1.2l0.1,0l0.1,0.1v0.3h7.7"/>
<path id="units_eng_RH_0_Layer0_0_MEMBER_37_1_STROKES" class="st0" d="M243.1,47.7c0.3-0.6,0.2-1-0.4-1.4c-0.5-0.3-1-0.2-1.4,0.4
	c-0.3,0.6-0.2,1,0.3,1.4C242.2,48.4,242.7,48.3,243.1,47.7z"/>
<path id="units_eng_RH_0_Layer0_0_MEMBER_38_1_STROKES" class="st0" d="M243.7,49.9c0-0.1-0.1-0.1-0.2-0.2h-0.2v0l0,0h0l-0.1,0.1
	l0,0.2v0.1l0,0v0.1h0v0l0.1,0.1h0l0,0c0.1,0,0.2,0,0.3-0.1C243.7,50.1,243.7,50,243.7,49.9L243.7,49.9z"/>
<path id="units_eng_RH_0_Layer0_0_MEMBER_39_1_STROKES" class="st0" d="M240.8,49.8L240.8,49.8L240.8,49.8L240.8,49.8L240.8,49.8
	l-0.3-0.1l0,0c-0.2,0.1-0.2,0.2-0.1,0.4c0.1,0.1,0.2,0.2,0.4,0.1C240.9,50.2,240.9,50,240.8,49.8L240.8,49.8z"/>
<path id="units_eng_RH_0_Layer0_0_MEMBER_40_1_STROKES" class="st0" d="M243.6,44.3c0-0.1-0.1-0.1-0.2-0.1h-0.2v0
	c-0.1,0-0.1,0.1-0.2,0.2l0,0.2h0v0h0l0,0h0v0h0.1c0.1,0,0.2,0,0.2,0c0.1,0,0.1-0.1,0.1-0.2C243.7,44.5,243.7,44.4,243.6,44.3z"/>
<path id="units_eng_RH_0_Layer0_0_MEMBER_41_1_STROKES" class="st0" d="M240.4,44.2c-0.2,0.1-0.2,0.2-0.1,0.4
	c0.1,0.1,0.2,0.2,0.4,0.1c0.2-0.1,0.2-0.2,0.1-0.4C240.7,44.2,240.6,44.1,240.4,44.2z"/>
<path id="units_eng_RH_0_Layer0_0_MEMBER_42_1_STROKES" class="st0" d="M243.3,46.6c-0.4-0.7-1-0.9-1.7-0.5
	c-0.7,0.4-0.9,0.9-0.5,1.7c0.4,0.7,1,0.9,1.7,0.5C243.5,48,243.7,47.4,243.3,46.6z"/>
<path id="units_eng_RH_0_Layer0_0_MEMBER_43_1_STROKES" class="st0" d="M239.8,50.6h4.2v-6.7h-4.2V50.6z"/>
<path id="units_eng_RH_0_Layer0_0_MEMBER_44_1_STROKES" class="st0" d="M238.7,59.9h0.6"/>
<path id="units_eng_RH_0_Layer0_0_MEMBER_45_1_STROKES" class="st0" d="M223,64.1h-0.2l-0.1,0V65h-0.1v0h-0.2v-0.9"/>
<path id="units_eng_RH_0_Layer0_0_MEMBER_46_1_STROKES" class="st0" d="M234.7,64.1h-11.6"/>
<path id="units_eng_RH_0_Layer0_0_MEMBER_47_1_STROKES" class="st0" d="M234.7,64.1c0.6,0,1.2-0.2,1.7-0.5c0.5-0.3,0.9-0.8,1.1-1.3"
	/>
<path id="units_eng_RH_0_Layer0_0_MEMBER_48_1_STROKES" class="st0" d="M238.5,60l-1,2.3"/>
<path id="units_eng_RH_0_Layer0_0_MEMBER_49_1_STROKES" class="st0" d="M330.9,26.7v8.5"/>
<path id="units_eng_RH_0_Layer0_0_MEMBER_50_1_STROKES" class="st0" d="M317.5,52.8V13.4"/>
<path id="units_eng_RH_0_Layer0_0_MEMBER_51_1_STROKES" class="st0" d="M294.2,57.4V34.8"/>
<path id="units_eng_RH_0_Layer0_0_MEMBER_52_1_STROKES" class="st0" d="M295.2,56.1V36.3"/>
<path id="units_eng_RH_0_Layer0_0_MEMBER_53_1_STROKES" class="st0" d="M220.5,62.6l1.1,0.9l0.2,0.3l0,0.2l0.2,0.2h0.4"/>
<path id="units_eng_RH_0_Layer0_0_MEMBER_54_1_STROKES" class="st0" d="M217.6,29l4.7,0.2v0h1.9l0,0v-0.3"/>
<path id="units_eng_RH_0_Layer0_0_MEMBER_55_1_STROKES" class="st0" d="M216.6,29.5v-0.2h0.1l0.1-0.1h0.6"/>
<path id="units_eng_RH_0_Layer0_0_MEMBER_56_1_STROKES" class="st0" d="M226.1,30.2c0-0.1-0.1-0.1-0.3-0.2c-0.2-0.1-0.4-0.2-0.5-0.2
	H225l-0.2,0l-0.5,0.2l-0.1,0.1v0.2h-1.2l-0.1-0.1h-0.2l-0.1,0v-0.9h-0.1v0h-0.2v0.9l-0.1,0H222l-0.2,0.1l0,0.2l-0.2,0.3l-0.1,0
	l-1,0.8l-0.1,0h0l-0.5-0.7l-0.1-0.1l-0.2-0.3l-0.2,0.1v0l0-0.2v-0.6l0-0.1l0-0.1l-0.1-0.2l-0.1,0c-0.2-0.1-0.4-0.1-0.6,0.1v0
	c-0.5,0-0.8,0-0.8,0c-0.3,0-0.6,0.2-0.8,0.4v-0.7h0l-0.2-0.1"/>
<path id="units_eng_RH_0_Layer0_0_MEMBER_57_1_STROKES" class="st0" d="M238.5,34.5c-0.1-0.2-0.4-0.8-0.9-1.9
	c-0.3-0.7-0.7-1.3-1.2-1.6l-0.5-0.3l-0.3-0.1l-0.6-0.2h-9v-0.2"/>
<path id="units_eng_RH_0_Layer0_0_MEMBER_58_1_STROKES" class="st0" d="M238.7,34.6h0.6l0.1,0h0.2l0-0.1v-0.4l-0.3-0.2h0l-0.1,0.1
	l-0.3,0.1h-0.2l-0.4-0.2l-0.1-0.1l-0.1-0.1v-0.1l0.2-0.5l0.1-0.2l0.1-0.1l0.1,0h0c0.2-0.7,0.3-1.2,0.5-1.5c0.2-0.7,0.4-1.1,0.6-1.4
	l-4.9-1l-0.4,0"/>
<path id="units_eng_RH_0_Layer0_0_MEMBER_59_1_STROKES" class="st0" d="M218.5,28.5c0.8,0.2,2.2,0.4,4.1,0.4v0h0.9v0h11"/>
<path id="units_eng_RH_0_Layer0_0_MEMBER_60_1_STROKES" class="st0" d="M210.1,27.6v0.2l-0.1,0.1l-0.8,0.1"/>
<path id="units_eng_RH_0_Layer0_0_MEMBER_61_1_STROKES" class="st0" d="M213,28.2c0.6,0.1,1.6,0.1,2.8,0.2l0-0.1l0.1,0l0.9,0
	l0.1,0.1v0l1.7,0.1c-1.3-0.6-2.5-0.8-3.7-0.8c-2.4,0.1-4,0.1-4.6,0C211.1,27.9,212.1,28.1,213,28.2z"/>
<path id="units_eng_RH_0_Layer0_0_MEMBER_62_1_STROKES" class="st0" d="M202.1,30.2v0.5h0v0.1l0.2,0.2l0,0.1v0.2l-0.1,0.1l0.1,0
	l0.1-0.1h3.7l0.3,0l6.1,2.6h2.9v-0.6l-0.3-0.1l-0.1-0.1v-0.3c-0.5-0.2-0.8-0.5-0.8-0.9c0-0.4,0.3-0.6,0.8-0.8v-0.2l0.1-0.4l0.3-0.6
	l0.1-0.1v-0.1l0.1,0l0.3-0.3v0h-0.2l-0.1-0.1v-0.1L215,29h0l0-0.1c-1.2-0.1-2-0.1-2.4-0.2c-0.9-0.1-1.6-0.3-2.3-0.5l-0.8-0.2h-2.2
	l-0.8-0.1l-0.1,0l0,0v-0.2H206l-0.2,0.1l0,0v0h0l-0.5,0.3l0,0.1l-0.1,0.1l-0.3,0.2h0.1v0.1h-0.1v0.1h-0.2l-1.2,1l-0.1,0.1l-0.1,0.1
	l-0.1,0.1l-0.9,0.3L202.1,30.2l-0.1,0l0,0H202.1z"/>
<path id="units_eng_RH_0_Layer0_0_MEMBER_63_1_STROKES" class="st0" d="M196.3,30.3v33.8"/>
<path id="units_eng_RH_0_Layer0_0_MEMBER_64_1_STROKES" class="st0" d="M206.1,63.4h-3.7l-0.1-0.1l-0.1,0h-0.4v1l0.2,0l0.1,0.1
	l0.1,0.1l0,0.1v0.1l0,0.1l-0.1,0.1l-0.1,0.1h-0.5v0.2h-0.2v0.2h-0.1l0,0v0h0l0.1,0.1V66l-0.1,0.1v0.1l0,0.1h0.1v0.3h0l0,0.1V67
	l0,0.1h0.2v0.4h-0.1c0.2,0.2,0.4,0.3,0.6,0.3l0.1,0.1h0.2l0.1,0h0.9l13.9-1.1h0.5l-0.1-0.3l-0.1-0.4l0-0.4l-0.8,0.1
	c0,0.3,0,0.5-0.2,0.7c-0.1,0.2-0.3,0.2-0.6,0.1h-0.1l-0.2-0.2l0-0.1l-0.3-0.5v-0.1l0-0.1v-0.2l0-0.1l0.1-0.1l0.2-0.2l0.1-0.1h0v-0.4
	h-0.1v-0.3l0.1-0.1l0,0v-0.1l-0.1-0.1v-0.4c-0.9-0.1-1.4-0.5-1.4-0.9s0.4-0.8,1.3-1v-0.9h-3l-6.1,2.7L206.1,63.4z"/>
<path id="units_eng_RH_0_Layer0_0_MEMBER_65_1_STROKES" class="st0" d="M310.1,61.8c0.3,0.1,0.6,0.1,0.6-0.3
	c0.1-0.3-0.1-0.5-0.4-0.5h-0.1l-0.1,0.1l-0.1,0.1l0,0.1l-0.1,0.1h-0.1l-0.2-0.1l-0.1-0.1V61l-0.1-0.3l-0.1-0.1v-1.3l4.2-5h2.2v2.8
	h1.2v-2.8"/>
<path id="units_eng_RH_0_Layer0_0_MEMBER_66_1_STROKES" class="st0" d="M200,64.8v0.3h0.2v0.2h0.1l0,0l-0.1,0.1V66l0.1,0.1h0v0.1
	l0,0.1h-0.1v0.3h0.1v0.5h-0.2v0.4h0.2c0.2,0.7,0.6,1.1,1.1,1.2l0.2,0h0.3l0.1-0.1l0.1,0h1.2l14.8-1.1l0.3,0.3l0.5,0.3l0.7,0.3
	l0.4,0.1c0.6,0.1,1.3,0.2,2.2,0.3c0.5,0,1.2,0,2.2,0v-0.2l0.2,0l0.3,0.2h0.1V69h0.2v1.7h3v-0.5h6.3v-2.7h1.9l0.6-0.1l0.4-0.2h3.1
	v1.1h3.3v-0.5l0.4,0.1l1.1,1.5l-0.4,0.3l0.5,0.6l0.1-0.1v2.7h0.1l0.1-0.3l1.8-0.1v0.9l0.1,0.1l0.1,0.1l0.1,0.1l0.3,0.1h0.4l0.1,0V74
	l0.1,0.1l0.1,0.1h2.4l0.2,0v0h0.5l0,0h0.2l0.1,0h0.2v-0.8l0.6,0l0.4,0.2v0l0.1-0.1l0.4-0.7l0.5,0.2l0.3,0.1l0.3,0l0.5,0
	c0.2,0,0.4-0.1,0.6-0.3c0.2-0.1,0.4-0.2,0.5-0.2c0.3-0.1,0.4-0.3,0.3-0.7c0.1-0.6,0.2-1,0.1-1.3l2.4-0.6l0.1,0.1l0.1,0.1l0.2,0.1h0
	l0.2,0h0.1l0.1-0.1l0.2-0.2l0.2-0.3l2-0.5c2.6,0.2,4-0.6,4.2-2.4c0-1,0-1.8,0-2.2c0-0.8,0.2-1.3,0.5-1.5v1.1l0,0.1l0,0.1l0,0.1
	l0.1,0.2c0.1,0.2,0.4,0.4,1,0.5l-1.4,0.7l0.1,0.3l28.6-6.6l-0.1-0.3l-1.5-0.1l-0.1-0.5l-1.5,0.3l-0.2-1.1l-0.2-0.5h1.4v0.1h0.9v-0.1
	h0.4v-0.1h0.6v-1.2h7.2l2.7,3.2v1.3l-0.1,0.1l-0.1,0.3l-0.1,0.6V62l0.1,0.4l-0.1,0.2l-0.1,0.2l0,0.2l0.1,0.1l0.2,0.2l0.2,0.1h0.1
	l0.2,0.3l0.2,0.2l0.3,0.2l0.3,0.2c0.4,0.2,0.9,0.3,1.4,0.2c0.5-0.1,0.9-0.3,1.2-0.6l0.3-0.4h0.2l0.1-0.1l0.1-0.1l0.1-0.1l0.1-0.1
	l0-0.2l-0.1-0.2l-0.1-0.1c0.1-0.2,0.1-0.3,0.1-0.4c0,0,0.1-0.1,0.4-0.2"/>
<path id="units_eng_RH_0_Layer0_0_MEMBER_67_1_STROKES" class="st0" d="M261.3,24.4h-2.1v-0.8l-0.1-0.1h-1.3l-0.1,0.1v0.8h-0.5v-0.3
	l-0.7-0.1l0.2-1l0-0.1v-0.1l0-0.1v-0.1l-0.3-1.1l-0.1-0.1l-0.1-0.1l-0.2-0.1l0-0.1l-0.1,0l-0.1-0.1l0.9-0.4l0.1,0.2l0.5-0.2l0,0
	l-0.5-1l-0.5,0.2l0.1,0.2l-1.3,0.6c0,0.1,0,0.2,0,0.2c0,0.1-0.1,0.1-0.2,0.2l-0.2,0.1h-1.4l-0.1,0l-0.1,0.1l-0.1,0.1v0.2l-5.3,0.3
	l-0.2,0l-0.1,0V25h0.1L248,25l0.3,0v0.4c-0.2,0.1-0.4,0.3-0.5,0.5c0,0.1-0.1,0.3-0.3,0.7h-0.5l0,0v0.1c-0.9,0.3-1.6,0.7-1.9,1.1
	l-0.2-0.2h0v-0.2H244V28h-1.3l-0.2,0l-0.2,0.1l-0.1,0.1l-0.3,0h-0.1v0l-0.8-0.3h0l0,0l-0.2,0.3c-3.6-0.7-5.7-1.1-6.3-1.2
	c-2.3-0.3-4.4-0.3-6.4,0v0h-0.8v0h-3.8v-0.2h-0.9v0.2h-0.3v-0.1h-0.7v0.1c-0.8,0-1.5,0-1.9-0.1c-0.5-0.1-1.1-0.3-1.8-0.6
	c-1-0.3-2.2-0.5-3.9-0.5c-2.2,0-3.5,0-3.9,0v-0.2l0,0l0-0.1l-0.8-0.1h-2.1l-0.8,0.1l-0.1,0.1v0.2c-2.5-0.2-4.4,0.2-5.5,1.3v-0.5
	l0.2-0.1l0.1-0.1v-0.2l0-0.1l-0.3-0.2l-0.1,0h-0.6l0,0l-0.3,0.2l-0.1,0.1v0.2l0.1,0.1l0.2,0.1v1.7l-0.1,0.2l0,0.2l-0.1,0.1l-0.1,0.2
	l0,0.1c-0.1,0.2-0.1,0.6-0.2,1h0v0.2l-0.2,0h-0.1l-0.7,0.3V31l0.1,0.1v0.1l0,0h-1.7l0-0.1h-0.1l0,0v-0.8h-0.2v0h-0.2v0h-0.1v-2.5
	h-0.2v3.9l-0.5,0.3H195v0h-0.4l-0.3,0l-0.1-0.1l-0.1-0.2h-0.2v0.3h-0.1v30.4h0.1v0.2h0.2l0.1-0.2l0.1,0h0l0.3-0.1h0.4v0.1h0.7
	l0.5,0.3l0.1,0.1v1.2h0.4v-0.8l0,0h0.1l0-0.1h0.9v1h1.1l-1.7,1.6h0V66l0,0.1l0,0h0.5c0.1-0.1,0.5-0.3,1.2-0.7c0.5-0.3,0.9-0.5,1-0.7
	"/>
<path id="units_eng_RH_0_Layer0_0_MEMBER_68_1_STROKES" class="st0" d="M317.1,54.3h0.2l0.1,0l0.1,0l0.1-0.1l0-0.1v-1.2h0.2V52h3
	l0.1-0.1l0.1-0.1l0.1-0.1v-0.3h0.2v-1.1l0.1,0h0.1v-0.2l0.1-0.1l0.1-0.1l1.2-0.7l0.1-0.1l0.1-0.2v-5.6l-0.1-0.2l-0.1-0.1l-0.1-0.1
	l-0.6-0.3l2.7-2.7l0.6-0.3l0.2,0l1.6,0l0.2-0.1h0.4v-1.8l0.2-0.2l0.8,0v1.3l-0.1,0.1h0v0.5h0.4v0.1l-0.1,0v0.3l0.1,0.1v0.1l0.1,0.1
	h0.4l0.1-0.1V40l0-0.1v-0.3l0,0v-0.1h0.3V39l-0.1-0.1V37h0.2v-0.7h1.2v-1.1h1.7l0.2,0l2.3,0.6l0.5,0.3l0.5,0.4l0.2,0.2l0.1,0.2v2.9
	h1v-2.9l0-0.1l0.1-0.1l0.1,0h0.2l0.1-0.1V25.3l-0.1-0.1h-0.3l-0.1-0.1l0-0.1v-2.9h-1V25l-0.3,0.4l-0.5,0.4l-0.5,0.3l-2.3,0.6l-1.9,0
	v-1.1h-1.2v-0.7h-0.8v-0.5h-1.1l-0.2-0.2v-0.5l0.6-0.2h3.8l0.2,0l0.2,0.1l0.1,0.1v0.5h2.1V21h0.2v-1h0.8v-1.2l0,0l0.1-0.1v-0.3
	l-0.1-0.1l0,0V18h-0.1v-1.9l0-0.1v-0.1l0-0.1v-0.3l0-0.1l-0.3-0.2h-0.4l-0.3,0.2l-0.1,0.1v0.3l0.1,0.1v0.1l-0.1,0.1V18h-1.9v0.5
	l-0.1-0.1l-0.3-0.2l-0.3-0.1l-0.2-0.1l-0.4,0l-0.4,0c-1.1,0.3-1.6,1.1-1.4,2.4h-1L327,22h-1.3v-1.1h-0.2v-0.2l-0.1-0.1l-0.1,0h-2
	l-5.2-5.1l-0.2-0.4V12h-0.4v1.4h-3.1V9.6l0-0.1l-0.1-0.1l-0.1,0l-0.1,0h-9.9l-0.2,0.1l0,0.1l0,0.1v0.8h-2.3V9.6h-0.9v1h-0.9v11.5
	h-0.2v14.2h-4.5v-1.2h-0.6v-0.3h-0.4v-1.7h-1.1v3h-1.8v0.2H291l-0.1,0l-0.2,0v-0.1h-7.7v-0.1c-1.6,0.1-2.8,0.1-3.6,0.1
	c-1.4-0.1-2.5-0.5-3.4-1.2h-2.7l0.4-1l-1.4-0.5l-0.5,1.2h-2.8l-0.4,0.1l-0.2,0.2l-0.3,0.4l-0.1,0.6l-0.4,0l-0.3-0.3v-3l1.6-0.9h2.2
	v-7.6h2.3v-5.6h-13.5v3.8h3.7l0,2.7h-1.5l-0.4-0.2l-0.6-0.2"/>
<path id="units_eng_RH_0_Layer0_0_MEMBER_69_1_STROKES" class="st0" d="M309.7,61.6c0-0.6-0.3-1.2-0.8-1.6c-0.5-0.4-1-0.7-1.7-0.7"
	/>
<path id="units_eng_RH_0_Layer0_0_MEMBER_70_1_STROKES" class="st0" d="M222.4,64.2V29.5"/>
<path id="units_eng_RH_0_Layer0_0_MEMBER_71_1_STROKES" class="st0" d="M307.3,59.3c-0.5,0-1.1,0.2-1.6,0.5"/>
<path id="units_eng_RH_0_Layer0_0_MEMBER_72_1_STROKES" class="st0" d="M222.7,64.2V29.4"/>
<path id="units_eng_RH_0_Layer0_0_MEMBER_73_1_STROKES" class="st0" d="M196.8,64.1V30.3"/>
<path id="units_eng_RH_0_Layer0_0_MEMBER_75_1_STROKES" class="st1" d="M260.3,27.7h3.9v-2.9h-3.9V27.7z"/>
<path id="Layer4_8_MEMBER_1_1_STROKES" class="st2" d="M244,49.7c0.2,0,0.3-0.1,0.3-0.2"/>
<path id="Layer4_8_MEMBER_2_1_STROKES" class="st2" d="M310.1,61.8c0-0.6-0.3-1.2-0.8-1.6c-0.5-0.4-1-0.7-1.7-0.7"/>
<path id="Layer4_8_MEMBER_3_1_STROKES" class="st2" d="M307.6,59.6c-0.5,0-1.1,0.2-1.6,0.5"/>
<path class="st3" d="M260.4,25.2l0.6-0.4l-5.8-7.3l-1.8,0.7l6.7,7.7L260.4,25.2z"/>
<path class="st4" d="M163.8,128l2.4,1.6c-0.5,0.4-0.9,0.8-1.2,1.3l8.5,4.9l-1.1,1.9l-8.7-5c-0.3,0.5-0.5,1.1-0.8,1.7l-2.2-1.4
	c-1.2,2.6-1.9,5.1-1.9,7.6c0,1.5,0.2,2.8,0.7,3.8c0,0.1,0.1,0.1,0.1,0.2c0,0.1,0.1,0.1,0.2,0.2c0,0,0,0.1,0,0.1l0.4,0.7
	c0.1,0.2,0.3,0.4,0.5,0.5c0.3,0.3,0.5,0.5,0.9,0.6l5.2,3c1,0.5,2.1,0.7,3.4,0.5c1.2-0.2,2.4-0.7,3.5-1.5c0.7-0.4,1.5-1,2.2-1.5
	c1.5-1.4,2.9-3.1,4.1-5.1c1.3-2.3,2.2-4.5,2.6-6.7c0.1-0.7,0.2-1.5,0.2-2.2c0.1-1.5,0-2.8-0.4-4c-0.4-1.4-1.2-2.4-2.2-3
	c-0.1,0-0.1-0.1-0.1-0.1l-5-2.9c-1.5-0.9-3.3-0.9-5.4,0C167.7,124.2,165.7,125.8,163.8,128z"/>
<path class="st5" d="M72.9,68.9c-0.3-0.3-0.6-0.5-0.9-0.7l-2.8-1.6H69L69,66.6c-0.2-0.1-0.4-0.2-0.6-0.2c-0.2-0.2-0.5-0.4-0.8-0.6
	l-2.6-1.4v-0.1c-0.9-0.5-2-0.5-3.2-0.1l-8.1-4.5c-0.7-0.4-1.5-0.5-2.4-0.3c-0.8,0.2-1.5,0.5-2.2,1.1l-1.6,0.9l-0.1-0.1l-0.2-0.1
	l-2.5-1.4l-0.1-0.1c-0.4-0.2-0.9-0.2-1.5,0c-0.4,0.2-0.8,0.5-1.2,0.9c-0.1-0.1-0.1-0.1-0.1-0.2c-0.4-0.4-1-0.7-1.8-1.1
	c-0.4-0.2-1-0.4-1.9-0.7C37,58.2,35.9,58,34.7,58c-1,0-2.1,0-3.5,0.2c-0.7,0.1-1.6,0.2-2.9,0.5C27,59,26.2,59.2,26,59.4v-0.1
	c-4.7,2.1-7.9,6-9.6,11.7l3.2,0.8l0.8-2.1l1.7-3.1l0.6-0.8c0.9-1.1,1.8-1.9,2.7-2.5c1.2-0.6,2.3-1.2,3.1-1.7
	c1.9-0.4,3.4-0.5,4.5-0.5c1.3,0.1,2.8,0.4,4.5,1c1.3,0.5,2.2,1,2.5,1.5c0,0.1,0.1,0.2,0.2,0.4c-0.1,1.1,0.1,1.8,0.8,2.1H41l2.6,1.4
	l0.2,0.1V70c0,1.9,0.6,3.1,1.7,3.8h0.1l8.3,4.6c0.2,1.2,0.8,2.1,1.8,2.6l2.6,1.4c0.3,0.1,0.5,0.2,0.8,0.3c0.2,0.2,0.4,0.3,0.6,0.4
	c0.1,0,0.1,0.1,0.2,0.1l0.1,0.1l2.8,1.5c0.3,0.2,0.6,0.3,0.9,0.3c0.5,0.1,0.9,0.1,1.4,0.1c0.2,0,0.5-0.1,0.7-0.1
	c1.4,0.6,2.8,0.3,4.4-0.7c1.4-1,2.6-2.4,3.7-4.2c1-1.9,1.6-3.7,1.6-5.4c0.1-1.9-0.5-3.3-1.7-4.1c-0.1-0.2-0.1-0.5-0.2-0.7
	C73.3,69.6,73.1,69.2,72.9,68.9z"/>
<path class="st6" d="M108.1,90.5c0-0.4-0.1-0.9-0.1-1.3l-0.2-0.6l-1.3-0.8l-1.9,0.3l-0.5-1.8l-0.4-0.3l0.1-0.7l-1.4-0.8l-1.1,0
	l-1.1,0.4l-0.1-1.8l-1.6-0.9l-2.4,0.8L93,81.6l-0.8-0.3h-1.1c-0.4-0.2-0.7-0.3-1-0.3c-0.5-0.1-1.3,0.1-2.4,0.6
	c-0.7,0.3-1.4,0.8-2.1,1.5c-0.6,0.6-1.2,1.2-1.7,1.9l-1.2,2.2l-0.6,1.8c-0.3,1.3-0.5,2.2-0.4,2.7c0.1,1.2,0.4,2,0.7,2.3
	c0.2,0.2,0.4,0.4,0.7,0.6l0.1,0.1l0.6,0.9l0.6,0.5l4.2,2.4l-0.9,1.6l0.2,0.5c0.2,0.3,0.4,0.6,0.7,0.9c0.3,0.3,0.9,0.7,1.9,1.2
	c0.1,0.1,0.3,0.2,0.5,0.2c0.3,0,0.7,0.2,1.1,0.5L94,105l1.4,0.6l1.6,0.2l1-0.2l0.9-2.2l0.8-0.9l2.8,1.6l0.9,1.1l1.4,0.8l0.9-0.4
	l20.7,11.8l0.9,0c0.3-0.1,0.6-0.2,0.9-0.4c0.4-0.2,0.8-0.5,1.2-0.8l5.2,2.9c0.6-0.1,1-0.4,1.2-0.7c0.2-0.3,0.4-0.6,0.4-1l0.1-0.6
	l-0.3-0.5l-0.9-0.7l0.5-1.2l-0.4-0.6l-3.1-1.8l0.3-0.9l0.2-1.4l-0.1-1.1l-0.8-1.2l-23.9-13.9C108,92.3,108.1,91.4,108.1,90.5z"/>
<path id="Layer4_9_MEMBER_0_MEMBER_2_MEMBER_0_1_STROKES" class="st7" d="M16.1,70.9c1.7-5.8,4.9-9.7,9.6-11.8l0,0
	c0.2-0.1,1-0.4,2.3-0.7c1.2-0.3,2.2-0.5,2.9-0.5c1.4-0.1,2.5-0.2,3.5-0.2c1.2,0,2.3,0.2,3.4,0.6c0.9,0.3,1.6,0.6,1.9,0.7
	c0.7,0.3,1.3,0.7,1.7,1c0.1,0,0.1,0.1,0.2,0.1c0.4-0.4,0.8-0.6,1.2-0.8c0.6-0.2,1-0.2,1.5,0l2.6,1.5l0.1,0.1l0.1,0l1.6-0.9
	c0.7-0.5,1.4-0.9,2.2-1c0.9-0.2,1.7-0.1,2.4,0.3l8.2,4.6c1.1-0.4,2.2-0.3,3.1,0.2l0,0l2.7,1.5c0.3,0.2,0.5,0.3,0.7,0.5
	c0.2,0,0.5,0.1,0.7,0.2c0,0,0,0,0.1,0l0.1,0l2.9,1.6c0.3,0.2,0.6,0.4,0.9,0.7c0.3,0.3,0.5,0.7,0.7,1.1c0.1,0.2,0.2,0.5,0.2,0.7
	c1.2,0.8,1.8,2.2,1.7,4.1c-0.1,1.7-0.6,3.5-1.7,5.4c-1,1.9-2.3,3.3-3.7,4.3c-1.6,1-3,1.3-4.4,0.7c-0.2,0.1-0.5,0.1-0.7,0.2
	c-0.5,0.1-1,0.1-1.5,0c-0.3-0.1-0.6-0.2-0.9-0.3l-2.8-1.6c0,0-0.1,0-0.1-0.1c-0.2-0.1-0.4-0.3-0.6-0.5c-0.3-0.1-0.5-0.2-0.7-0.3
	l-2.7-1.5c-0.9-0.5-1.5-1.4-1.7-2.6l-8.3-4.6l-0.1,0c-1.1-0.7-1.7-2-1.7-3.8v-2.2l-0.2-0.1L40.7,66h0l0,0c-0.6-0.3-0.9-1-0.8-2.1
	c-0.1-0.2-0.1-0.3-0.2-0.4c-0.3-0.5-1.1-1-2.5-1.5c-1.7-0.6-3.2-0.9-4.5-1c-1.1,0-2.6,0.1-4.5,0.5c-0.9,0.5-1.9,1.1-3.1,1.7
	c-0.9,0.6-1.8,1.4-2.7,2.5l-0.6,0.8l-1.7,3.1l-0.8,2.2 M65.5,64.9c-0.3-0.3-0.6-0.6-0.9-0.8 M65.5,64.9l2.6,1.4c0,0-0.1-0.1-0.1-0.1
	 M55.4,80.9c0.3,0.1,0.6,0.3,0.9,0.3c0.5,0.1,1,0.1,1.5,0c0.4-0.1,0.8-0.2,1.2-0.3c0.4-0.1,0.7-0.3,1.1-0.5c0,0,0,0,0.1,0
	c0.4-0.2,0.7-0.5,1.1-0.7c0.3-0.2,0.6-0.5,0.9-0.8c0.3-0.3,0.6-0.6,0.8-0.9c0.3-0.3,0.5-0.6,0.8-1l-0.4-0.3c0.8-1,1.4-2.2,2-3.5
	l0.4,0.2l0,0c0.2-0.4,0.3-0.8,0.4-1.2c0.1-0.4,0.2-0.8,0.3-1.2c0.1-0.4,0.1-0.8,0.2-1.2c0-0.4,0.1-0.9,0.1-1.3c0,0,0-0.1,0-0.1
	c0-0.4,0-0.8-0.1-1.1c-0.1-0.4-0.2-0.8-0.3-1.2c-0.2-0.4-0.4-0.8-0.7-1.1 M72.5,68.7l-2.9-1.6c0.3,0.3,0.5,0.7,0.7,1.2l2.9,1.5
	 M70.3,68.3c0.1,0.3,0.2,0.7,0.3,1.1l3,1.6c0-0.2-0.1-0.3-0.1-0.5 M70.6,69.5c0,0.2,0.1,0.5,0.1,0.8c0,0.2,0,0.3,0,0.5l3,1.6
	c0,0,0-0.1,0-0.1c0-0.4,0-0.8-0.1-1.2 M66.6,68.5l2.7,1.5c0,0,0-0.1,0-0.1c0-0.4,0-0.8-0.1-1.2l-2.7-1.5 M69.2,68.7
	c-0.1-0.5-0.2-0.9-0.4-1.3L66.2,66 M68.8,66.4c0.3,0.2,0.6,0.4,0.8,0.7 M68.9,67.4c-0.2-0.4-0.4-0.8-0.7-1.1 M43.5,67.6l0.7,0.4h0
	c0.5,0.3,1.1,0.2,1.8-0.2c0.7-0.4,1.3-1.1,1.8-2c0.5-0.9,0.7-1.8,0.7-2.6c0-0.8-0.3-1.4-0.8-1.7L47.1,61l0,0
	c0.4,0.3,0.6,0.8,0.6,1.6c0,0.8-0.2,1.7-0.7,2.6c-0.5,0.9-1.1,1.6-1.8,2c-0.7,0.4-1.3,0.5-1.8,0.2 M47.1,61C47.1,61,47.1,61,47.1,61
	 M44.3,59.4c0.5,0.3,0.8,0.9,0.8,1.7c0,0.8-0.2,1.7-0.7,2.6c-0.5,0.9-1.1,1.6-1.8,2c-0.7,0.4-1.3,0.5-1.8,0.2 M53.6,78.3l0.8,0.4
	l0.1,0.1c0.8,0.5,1.8,0.5,2.9,0.1c0.4-0.1,0.8-0.3,1.2-0.6c1.6-1,2.9-2.4,4-4.4c1.1-1.9,1.6-3.8,1.6-5.7c0-0.5-0.1-1-0.2-1.4
	c-0.2-1.1-0.7-1.8-1.5-2.3l-1-0.6 M53.3,59.4c1,0.6,1.5,1.7,1.6,3.2c0.1,1.2-0.1,2.4-0.5,3.7 M58.8,82.6
	C58.8,82.6,58.8,82.6,58.8,82.6l-2.5-1.5 M64.7,85.1l-2.9-1.6c-0.5,0.1-1,0.1-1.5,0l2.9,1.6 M57.7,81.2l2.6,1.5
	c0.4-0.1,0.8-0.2,1.2-0.3l-2.7-1.5 M67.1,84.2l-3-1.6 M67.1,84.2c0.4-0.2,0.7-0.5,1-0.7l-2.9-1.6c-0.3,0.3-0.7,0.5-1.1,0.7
	c-0.1,0.1-0.3,0.2-0.4,0.2c-0.2,0.1-0.5,0.2-0.7,0.3l2.9,1.6C66.3,84.6,66.6,84.5,67.1,84.2C67,84.2,67.1,84.2,67.1,84.2z
	 M61.6,82.4c0.4-0.1,0.7-0.3,1.1-0.5c0,0,0,0,0.1,0L60,80.3 M62.7,81.8c0.4-0.2,0.7-0.5,1-0.7l-2.7-1.5 M63.8,81.1
	c0.3-0.2,0.6-0.5,0.9-0.8L62,78.8 M63,83.1c-0.4,0.2-0.8,0.3-1.2,0.3 M60.3,83.5c-0.3-0.1-0.5-0.2-0.8-0.3 M58.9,82.7
	c0.5,0.1,1,0.1,1.5,0.1 M57.4,78.8c2.2-0.2,4.1-1.7,5.8-4.7c1.6-3,1.9-5.4,0.9-7.4 M53.4,68.8c-0.8,1.6-2,2.9-3.4,4
	c-1.8,1.3-3.3,1.6-4.7,0.9 M70.7,70.7c0,0.4,0,0.9,0,1.3l2.9,1.6c0-0.4,0.1-0.8,0.1-1.3 M73.4,74.8l-3-1.6c-0.1,0.4-0.2,0.8-0.3,1.1
	l3,1.6C73.3,75.6,73.4,75.2,73.4,74.8z M73.4,74.8c0.1-0.4,0.1-0.8,0.2-1.2 M70.2,74.4c-0.1,0.4-0.3,0.8-0.4,1.1l2.5,1.4l0.4,0.3
	c0.2-0.4,0.3-0.8,0.4-1.1 M66.1,72.1l2.7,1.5c0.1-0.4,0.2-0.8,0.3-1.1l-2.7-1.5 M69.1,72.4c0.1-0.4,0.1-0.8,0.2-1.2l-2.7-1.5
	 M70.7,72c0,0.4-0.1,0.8-0.2,1.2 M68.3,74.7l-0.4-0.2c-0.5,1.3-1.2,2.5-2.1,3.7l0.4,0.3l1,0.5c0.8-1.1,1.5-2.4,2.1-3.8L68.3,74.7
	c0.2-0.4,0.3-0.8,0.4-1.1 M69.7,75.5l-0.4-0.3 M67.9,74.5l-2.2-1.2 M67.2,79l0.4,0.3l2.5,1.4c0.9-1.2,1.6-2.4,2.1-3.8 M62.8,77.9
	l2.7,1.5c0.3-0.3,0.5-0.6,0.8-1 M67.7,79.2c-0.2,0.3-0.5,0.7-0.7,1l2.9,1.6c0.3-0.3,0.5-0.6,0.7-1l-0.4-0.3 M66.9,80.2
	c-0.3,0.3-0.5,0.6-0.8,0.9l2.9,1.6c0.3-0.3,0.6-0.6,0.8-0.9 M68.1,83.5c0.3-0.2,0.6-0.5,0.9-0.8 M65.4,85c0.2-0.1,0.3-0.1,0.5-0.2
	 M87.9,86c0.2-0.5,0.6-0.6,1.1-0.4l2,1.1c0.2-0.9,0.2-1.8-0.1-2.6c-0.7-1.5-1.8-1.8-3.4-0.9c-1.4,0.7-2.4,1.8-3.1,3.1
	c-0.5,0.8-0.9,1.7-1.1,2.5c-0.3,1-0.3,1.9-0.1,2.7c0.1,0.6,0.4,1,0.8,1.3c0.4,0.3,0.9,0.4,1.5,0.4c0.7-0.1,1.3-0.3,1.9-0.8l-1.6-0.9
	c-0.2-0.1-0.3-0.2-0.4-0.4c-0.1-0.2-0.1-0.4,0-0.6c0.1-0.2,0.2-0.4,0.4-0.4C86,90,86.1,90,86.2,90l-0.8-0.5l-0.1-0.1
	c-0.2-0.1-0.3-0.3-0.3-0.5c0-0.2,0-0.4,0.2-0.6c0.1-0.1,0.3-0.2,0.4-0.3c0.2,0,0.4,0,0.6,0.1l0.4,0.3c0-0.1,0.1-0.2,0.1-0.3
	c0,0,0-0.1,0.1-0.1l-0.2-0.1c-0.5-0.3-0.6-0.6-0.3-1.1c0.2-0.5,0.6-0.6,1.1-0.4l0.5,0.3C87.8,86.5,87.8,86.2,87.9,86z M86.6,88.4
	c-0.1,0.3,0.1,0.6,0.4,0.8l0.2,0.1c0.2-0.2,0.5-0.2,0.9,0l1.4,0.8c0.1-0.1,0.1-0.2,0.2-0.3c0.3-0.5,0.5-0.9,0.7-1.4L88.3,87
	c-0.2-0.1-0.3-0.2-0.4-0.4 M87.4,92.5c0.4-0.3,0.8-0.7,1.2-1.1l-1.1-0.7c-0.2-0.1-0.3-0.2-0.3-0.3l-0.5-0.3l-0.1,0
	c-0.1,0-0.1,0-0.2,0 M87.3,89.3c-0.1,0.1-0.2,0.2-0.2,0.3c-0.2,0.3-0.2,0.6,0,0.8 M90.2,89l-2.4-1.3c-0.4-0.2-0.8-0.1-1,0.3
	 M83.3,94.7L83.3,94.7l0.5,0.2l0.3,0.1l0.8,0l0.9-0.2c1.6-0.5,3.2-1.8,4.6-3.9c1-1.3,1.6-2.9,2-4.6c0.4-2.1,0.1-3.6-0.9-4.6
	c0,0-0.1-0.1-0.1-0.1c-0.1-0.1-0.2-0.2-0.3-0.2c-0.9-0.5-2.1-0.4-3.5,0.4c-1.3,0.7-2.3,1.7-3.1,2.8c-1.1,1.3-1.9,3-2.4,5.1
	C81.5,92.1,81.9,93.8,83.3,94.7l0.1,0.4l0.5,0.7l0.7,0.5l0.6,0.2c1.3,0.3,2.6-0.1,4.1-1.2c1.3-1,2.5-2.3,3.5-4.1
	c1-1.7,1.6-3.4,1.8-5.1c0.2-1.8-0.1-3.2-1-4.1l-0.2-0.3l-0.8-0.4l-0.8-0.1L91,81.3 M91.2,103.3l1,0.3h0.1l1,0.1l0.9-0.1
	c0.4-1.7,1.4-3.4,2.9-5c1.8-1.8,3.5-2.5,5-2l-1.5-0.9c-1.5-0.5-3.2,0.2-5,2c-1.6,1.7-2.6,3.3-3,5l-0.9,0.1l-1.1-0.1l-1-0.3l-0.8-0.6
	l-0.7-0.8l-0.4-0.8l0.8-1.7L87.4,98l-1-0.5l-0.9-0.5l-1-0.6 M63.6,76.9l2.2,1.3 M66.1,81.1c-0.3,0.3-0.6,0.6-0.9,0.8 M64.7,80.3
	c0.3-0.3,0.6-0.6,0.8-0.9 M69.3,71.2c0-0.4,0.1-0.8,0.1-1.3 M43.3,60.5c-0.3,0.1-0.6,0.1-1,0c-0.3-0.1-0.5-0.2-0.7-0.3 M39.9,63.9
	c0,0.1,0.1,0.3,0.1,0.4c0.1,0.3,0.2,0.6,0.4,0.8 M99.8,83.4l-1.5-0.9c-0.1,0.7-0.1,1.4,0.2,2.1c0.3,0.7,0.7,1.2,1.4,1.4l0.6,0.1
	l-0.2-0.3l-0.2-0.7L99.9,85l-0.1-1L99.8,83.4z M85.6,96.9c1.1,0.6,2.4,0.4,4-0.6c1.6-1,3-2.5,4.1-4.5c1.2-2,1.8-4,1.9-5.9
	c0.1-1.6-0.3-2.8-1.1-3.5c-0.1-0.1-0.1-0.1-0.2-0.1l-0.5-0.3l-0.3-0.1l-0.2-0.1 M94.3,82.4c-0.1-0.1-0.2-0.1-0.3-0.2l-0.2-0.1
	 M94.5,82.5l0.2,0.1l-0.3-0.2 M94.7,82.6l0.3,0.1c0.1,0.1,0.2,0.1,0.3,0.2l0.4,0.3l0.1,0l0.2-0.1l1.2-0.4l1.1-0.2 M95.8,83.2
	l0.2,0.1c0.1,0.1,0.3,0.2,0.4,0.3L97,84l0.4,0.2c1.1,0.7,1.6,1.9,1.6,3.8c-0.1,1.9-0.7,3.8-1.9,5.9c-1.2,2-2.6,3.5-4.2,4.4
	s-3,1.2-4.1,0.6l-0.3-0.2 M87.4,98c1.1,0.6,2.5,0.4,4.1-0.6c1.6-1,3-2.4,4.1-4.4c1.2-2,1.8-4,1.9-5.9c0-1.7-0.3-2.9-1.2-3.6
	l-0.7-0.4 M86.5,97.4c1.1,0.5,2.4,0.3,4-0.6c1.6-1,3-2.5,4.1-4.5c1.2-2,1.8-4,1.9-5.9c0.1-1.7-0.4-2.9-1.3-3.6l-0.6-0.3 M91,86.7
	c-0.1,0.5-0.3,1-0.5,1.6 M91.4,81.7c1.4,0.5,2.1,1.8,1.9,3.9c-0.1,1.7-0.6,3.3-1.5,4.6c-0.7,1.5-1.8,2.9-3.5,4.1
	c-1.9,1.4-3.5,1.6-4.7,0.5 M89.6,90c-0.3,0.5-0.6,0.9-1,1.3 M102,84.7l1.5,0.9l0,0.7l0.5,0.3l0.2,0.8l0.1,1v0l0.8-0.1l0.9-0.3
	l0.2-0.1l1.5,0.9l0.2,0.8l0.1,1.3l0,1.5l-0.1,0.8c0,0.1,0,0.2-0.1,0.4l7.6,4.4l0.3,0.3l0.3,0.1l0.5,0.3l4.2,2.4l0.3,0.3l0.3,0.1
	l0.5,0.3c0,0,0,0,0,0l10,5.8c0.7,0.5,0.9,1.4,0.9,2.6c0,0.7-0.2,1.4-0.4,2l3.1,1.8c0.3,0.2,0.4,0.5,0.3,1c-0.1,0.4-0.2,0.7-0.4,1
	l1,0.6c0.2,0.1,0.3,0.4,0.3,0.8c0,0.4-0.1,0.7-0.4,1.1c-0.2,0.4-0.4,0.6-0.7,0.8c-0.3,0.2-0.5,0.3-0.7,0.2l-5.2-3
	c-0.3,0.2-0.6,0.4-0.9,0.6c-1.1,0.7-2,0.8-2.7,0.4l-10-5.8l0,0l-0.4-0.4l0-0.1h0l-0.5-0.2l-4.2-2.4l-0.4-0.4l-0.1-0.1l-0.5-0.2
	l-4-2.3c-0.2,0.2-0.5,0.4-0.7,0.5l-1.4-0.8l-0.8-1.1l-3-1.7 M99.6,102.4l-0.6,0.9l-1,2.4l0,0 M98,105.7l-0.9,0.1l-1.1-0.1l-1-0.3
	 M103.5,86.3l-1.1-0.6c0.5,1.4,0.5,3.1,0.1,5.2c-0.4,1.7-1,3.4-1.9,4.8 M102.4,85.6l-0.2,0.1l-0.2,0.1l-0.7,0.2l-0.8,0.1l-0.1,0
	 M102,85.8l-0.1-0.5l0-0.6l-1.1,0.2l-1,0.3 M102.2,96.5c0.7-1.2,1.3-2.6,1.7-4c0.4-1.6,0.6-3,0.5-4.2 M107.6,94.9l2.7,3.5
	 M107.6,94.9c-0.1,0.3-0.2,0.7-0.3,1.1v0l0.8,0.5l0.9,1.1l1.4,0.8c-0.4,1.3-1.1,2.7-2.2,4.2c-0.8,1.1-1.7,2.1-2.6,2.8 M107.9,93.4
	c-0.1,0.5-0.2,0.9-0.3,1.5 M92.3,103.6l0.3,0.4l0.8,0.6l1,0.3l1.1,0.1l1-0.2v0c0.4-1.7,1.4-3.3,2.9-5c1.8-1.9,3.5-2.5,5-2
	c0.9-1.5,1.5-3.1,1.9-4.9c0.4-2,0.4-3.7-0.1-5.1 M116.6,98.4c0.7,0.5,0.9,1.4,0.9,2.6s-0.5,2.5-1.3,3.8c-0.8,1.4-1.8,2.4-2.9,3
	c-1.1,0.7-2,0.8-2.8,0.4 M121.3,101.2l0.5,0.3c0.6,0.5,0.9,1.4,0.8,2.6c-0.1,1.3-0.5,2.5-1.3,3.8c-0.8,1.3-1.7,2.4-2.8,3
	c-1.1,0.7-2,0.8-2.8,0.4 M115.3,110.9c1.8,0.2,3.5-1,5.1-3.6c1.6-2.7,1.8-4.7,0.6-6.2 M115.8,98.1c1.1,1.4,0.9,3.5-0.6,6.2
	c-1.6,2.7-3.3,3.9-5.1,3.6 M131.5,113.5l3.7,2.1 M131.5,113.5c0,0.1-0.1,0.1-0.1,0.2c-0.6,1-1.2,1.8-2,2.4 M132.2,111.9
	c-0.2,0.5-0.5,1.1-0.8,1.6 M107.2,96c-0.4,1-0.8,1.9-1.3,2.7c-1.1-0.4-2.3-0.1-3.6,0.8c-1.1,0.8-2,1.7-2.7,2.8 M108.9,97.6
	c-0.4,1.3-1.1,2.7-2.2,4.2c-1.1,1.4-2.2,2.6-3.3,3.4 M98,105.7l-1.5-0.9 M140.7,124.8h-0.3l-0.3-0.1l-0.3-0.1l-0.1-0.1l-0.1-0.1
	 M139.6,124.5l0.2,0.1l0.2,0h0.2 M102.5,104.1l5.5-7.6 M105.9,98.7l-1.5-0.9 M43.3,67.5L43.3,67.5 M68.4,74.7L68.4,74.7 M83.3,94.6
	C83.3,94.7,83.3,94.7,83.3,94.6 M89.6,90L89.6,90 M99.6,102.3C99.6,102.4,99.6,102.4,99.6,102.3 M98,105.7L98,105.7 M102,84.7
	L102,84.7"/>
<path d="M142.9,113.9c-1.3,0.8-2.3,2-3.3,3.6c-0.9,1.6-1.4,3.2-1.5,4.7c-0.1,1.6,0.4,2.8,1.5,3.6c1.2,0.6,2.4,0.4,3.8-0.5
	c1.3-0.8,2.3-2,3.3-3.6c0.9-1.6,1.4-3.2,1.5-4.6c0.1-1.6-0.4-2.8-1.5-3.6C145.5,112.9,144.2,113,142.9,113.9 M140.1,124.6
	c-1.3-1.3-1.1-3.4,0.6-6.3c1.7-2.9,3.4-4.2,5.2-3.7l-0.1-0.2l-0.3-0.2l-0.1-0.1c1,0.5,1.5,1.5,1.4,2.9c-0.1,1.3-0.5,2.6-1.3,4.1
	c-0.8,1.4-1.8,2.5-2.8,3.2c-1.1,0.7-2.2,0.8-3.1,0.3l0.2,0.1l0.2,0H140.1z"/>
<path id="Layer4_9_MEMBER_0_MEMBER_2_MEMBER_2_1_STROKES" class="st2" d="M150.4,130.4h-0.3l-0.3-0.1l-0.6-0.3l0.3,0.1l0.2,0l0.2,0"
	/>
<path d="M157.8,122.6c0.1-1.7-0.4-2.9-1.5-3.6c-1.2-0.5-2.5-0.4-3.8,0.5c-1.3,0.8-2.3,2-3.2,3.7c-0.9,1.6-1.4,3.2-1.5,4.6
	c-0.1,1.6,0.4,2.8,1.5,3.6c1.2,0.5,2.4,0.4,3.8-0.5c1.3-0.8,2.3-2,3.3-3.6C157.3,125.6,157.8,124.1,157.8,122.6 M155.6,120.1
	l-0.1-0.2l-0.1-0.1l-0.1-0.1c0.9,0.5,1.3,1.4,1.2,2.7c-0.1,1.3-0.5,2.7-1.3,4.1c-0.8,1.4-1.8,2.5-2.8,3.2c-1.2,0.8-2.3,0.8-3.2,0.3
	l0.3,0.1l0.2,0l0.2,0c-0.7-0.5-0.9-1.6-0.6-3.1c0.2-1.3,0.6-2.4,1.2-3.2c0.4-0.9,1.2-1.8,2.2-2.6
	C153.7,120.2,154.7,119.8,155.6,120.1z"/>
<path id="Layer4_9_MEMBER_0_MEMBER_2_MEMBER_4_1_STROKES" class="st7" d="M160.2,132.7l0.1,0.1l0.4,0.3l1.8,1.2
	c0.7-1.9,1.8-3.5,3.3-4.9l-1.9-1.3l-0.4-0.3c1.9-2.3,3.9-3.9,6-4.7c2.1-0.9,3.9-0.9,5.4,0l1,0.6l4,2.3c0.1,0,0.1,0.1,0.2,0.1
	c1,0.7,1.8,1.7,2.2,3.1c0.4,1.2,0.5,2.5,0.4,4c0,0.7-0.1,1.4-0.3,2.2c-0.4,2.2-1.3,4.4-2.6,6.6c-1.2,2.1-2.6,3.8-4.2,5.1
	c-0.7,0.6-1.4,1.1-2.2,1.6c-1.1,0.7-2.3,1.2-3.5,1.4c-1.4,0.2-2.5,0.1-3.5-0.4l-0.2-0.1l-2.8-1.6l-2.2-1.3c-0.5-0.3-1-0.7-1.4-1.2
	l-0.4-0.7c0,0,0-0.1,0-0.1c0-0.1-0.1-0.1-0.1-0.2c0-0.1-0.1-0.1-0.1-0.2c-0.5-1-0.7-2.3-0.7-3.8c0-2.5,0.6-5,1.8-7.6 M89.7,102.4
	l1.5,0.9 M93.5,104.6l1.5,0.9 M94.2,103.5l-1.5-0.8 M177.4,125.5l0.3,0.3l0.3,0.4l0.2,0.5c0.2,0.9,0,1.2-0.6,1
	c-0.5-0.3-0.8-0.8-0.9-1.5v-0.4l0.1-0.3l0.3-0.1L177.4,125.5z M163.9,128.1c1.3-1.6,2.8-2.9,4.6-3.8c2.2-1.1,4-1.2,5.6-0.2l1,0.9
	l0.6,1.1l0-0.9l0.2-1.6 M175.7,126.1c0.5,1.1,0.8,2.4,0.7,4l0-0.3l0.5,1.2l1.1,1.7l0,0l4.3,2.4 M173.3,129.7c-2.3,0.3-4.3,1.9-6,4.8
	c-1.7,2.9-2.3,5.4-1.6,7.6c0.6-0.1,1.1-0.3,1.7-0.5c0-1.9,0.6-3.9,1.8-5.9c1.2-2,2.7-3.4,4.4-4.3
	C173.6,130.7,173.5,130.1,173.3,129.7z M173.3,129.7c-0.1-0.4-0.3-0.8-0.6-1.1c-0.8-0.2-1.7-0.1-2.7,0.4c-0.8,0.4-1.5,0.9-2.3,1.6
	l0.6,0.3c-1.5,1.4-2.6,3-3.3,4.9l-0.6-0.3c-0.4,1.1-0.7,2.1-0.7,3.2c-0.1,1.4,0.2,2.5,0.8,3.3c0.3,0.1,0.7,0.1,1.1,0.1
	c0,0,0,0,0.1,0 M176.5,130.1l-0.1,1.5l-0.4,2.1l-0.7,1.9l0.4,0.2l0.3-0.4l2.3-2.6 M172.8,128.5C172.8,128.5,172.8,128.5,172.8,128.5
	c-0.8-1-1.9-1.3-3.4-0.9c-1.1,0.3-2.2,1-3.2,1.9 M166.2,129.6l1.6,0.9 M170.2,139.3l1.6,1l2.8-5.1l-1.4-0.9
	C171.8,135.8,170.8,137.5,170.2,139.3C170.2,139.3,170.2,139.3,170.2,139.3z M175.2,135.6L175.2,135.6l-0.6-0.4 M171.8,140.3
	l0.5,0.3l0.4,0.2l1.9,1.1l2.8-5.1l-1.8-1.1 M173.2,134.4l-0.2-0.1c0.3-1,0.5-2,0.5-2.9 M166.2,129.6l-0.3-0.2 M172.3,140.6
	c-1.5,2.2-3.5,3.8-5.9,4.8c-1.7,0.7-3.1,0.7-4.2,0.2c-0.5-0.2-0.9-0.5-1.3-0.9c-0.3-0.3-0.6-0.7-0.8-1.1c-0.1-0.1-0.1-0.2-0.2-0.3
	c-0.4-1-0.6-2.1-0.6-3.4v-1l0.3-2.1l0.6-2.1l0.7-1.5 M164.5,135.5l-1.6-0.9c-0.7,1.6-0.9,3.3-0.6,4.8c0.3,1.5,1,2.4,2.2,2.6
	 M162.9,134.5l-0.4-0.3 M162.1,145.7c-0.3-0.2-0.4-0.3-0.5-0.3c-0.3-0.2-0.6-0.4-0.8-0.6 M160.4,146c-0.2-0.2-0.4-0.4-0.5-0.6
	 M165.9,147.2c-0.2,0.1-0.3,0.3-0.3,0.5c0,0.2,0.2,0.3,0.4,0.4c0.3,0.1,0.6,0.1,0.9,0c0.4-0.1,0.6-0.2,0.9-0.3
	c0.2-0.2,0.3-0.3,0.3-0.5c0-0.2-0.2-0.3-0.4-0.4c-0.3-0.1-0.6-0.1-0.9-0.1C166.4,146.9,166.1,147,165.9,147.2z M163.5,147.9
	c1-1,2.2-1.8,3.6-2.4c1.4-0.6,2.8-0.9,4.2-0.9l0,0l1.1-3.2l0.2-0.5 M175.6,147l-4.3-2.5 M167.4,141.5c0.9-0.5,1.8-1.2,2.7-2.2
	 M175.7,126.1C175.7,126.1,175.7,126.1,175.7,126.1 M166.2,129.6L166.2,129.6"/>
<path class="st3" d="M172,137.5l1.1-1.9l-12.3-7.1l-1.1,2L172,137.5z"/>
<path id="Layer4_9_MEMBER_0_MEMBER_2_MEMBER_6_1_STROKES" class="st2" d="M172.5,136.4l-15.5-8.8"/>
<path class="st3" d="M151.6,125.6l2.6-0.7l-5.9-3.3l-0.8,1.6L151.6,125.6z"/>
<path id="Layer4_9_MEMBER_0_MEMBER_2_MEMBER_8_1_STROKES" class="st2" d="M147.1,121.9l7.2,4.1"/>
<path class="st3" d="M142.6,120.5l1.3-1.3l-5.1-3.2l-1.1,1.8L142.6,120.5z"/>
<path id="Layer4_9_MEMBER_0_MEMBER_2_MEMBER_10_1_STROKES" class="st2" d="M137,116.1l8.1,4.7"/>
<path class="st3" d="M84.7,87.7l1.2-1.6l-4.5-2.6l-0.9,2L84.7,87.7z"/>
<path id="Layer4_9_MEMBER_0_MEMBER_2_MEMBER_12_1_STROKES" class="st2" d="M73.9,80.3L85.5,87"/>
<path class="st6" d="M97.1,122.7l3.6,3.6l0.1-14.3H86.4l3.7,3.7l-8.2,8.2l7,7L97.1,122.7z"/>
<path class="st8" d="M258.2,31.1h8.8v-8.8h-8.8V31.1z"/>
<path id="Layer4_10_1_STROKES" class="st9" d="M266.9,31.1h-8.8v-8.8h8.8V31.1z"/>
<path id="Layer4_12_MEMBER_1_1_STROKES" class="st10" d="M98,39.6H14V11.8h84V39.6z"/>
<g>
	<path d="M267.9,86.9v-8.6h3.7c0.9,0,1.6,0.1,2,0.2s0.7,0.4,1,0.8s0.4,0.8,0.4,1.4c0,0.6-0.2,1.2-0.6,1.6s-0.9,0.7-1.7,0.8
		c0.4,0.2,0.7,0.5,0.9,0.7s0.6,0.7,1,1.4l1,1.7h-2.1l-1.3-1.9c-0.4-0.7-0.8-1.1-0.9-1.3s-0.3-0.3-0.5-0.4s-0.5-0.1-0.9-0.1h-0.4v3.6
		H267.9z M269.6,81.9h1.3c0.8,0,1.4,0,1.6-0.1s0.4-0.2,0.5-0.4s0.2-0.4,0.2-0.6c0-0.3-0.1-0.5-0.2-0.7s-0.4-0.3-0.7-0.3
		c-0.1,0-0.6,0-1.3,0h-1.4V81.9z"/>
	<path d="M276.5,86.9v-8.6h1.7v8.6H276.5z"/>
	<path d="M283.9,83.7v-1.4h3.7v3.4c-0.4,0.4-0.9,0.7-1.6,0.9s-1.4,0.4-2.1,0.4c-0.9,0-1.7-0.2-2.3-0.6s-1.2-0.9-1.5-1.6
		s-0.5-1.5-0.5-2.3c0-0.9,0.2-1.7,0.6-2.4s0.9-1.2,1.6-1.6c0.6-0.3,1.2-0.4,2.1-0.4c1.1,0,1.9,0.2,2.5,0.7s1,1.1,1.2,1.9l-1.7,0.3
		c-0.1-0.4-0.3-0.8-0.7-1s-0.8-0.4-1.3-0.4c-0.8,0-1.4,0.2-1.8,0.7s-0.7,1.2-0.7,2.1c0,1,0.2,1.8,0.7,2.3s1,0.8,1.8,0.8
		c0.4,0,0.7-0.1,1.1-0.2s0.7-0.3,0.9-0.5v-1.1H283.9z"/>
	<path d="M289.2,86.9v-8.6h1.7v3.4h3.4v-3.4h1.7v8.6h-1.7v-3.8h-3.4v3.8H289.2z"/>
	<path d="M299.8,86.9v-7.1h-2.5v-1.5h6.8v1.5h-2.5v7.1H299.8z"/>
	<path d="M308.1,84.1l1.7-0.2c0.1,0.6,0.3,1,0.6,1.2s0.7,0.4,1.3,0.4c0.6,0,1-0.1,1.3-0.4s0.4-0.5,0.4-0.8c0-0.2-0.1-0.4-0.2-0.5
		s-0.3-0.3-0.6-0.4c-0.2-0.1-0.7-0.2-1.4-0.4c-0.9-0.2-1.6-0.5-2-0.8c-0.5-0.5-0.8-1-0.8-1.7c0-0.4,0.1-0.8,0.4-1.2s0.6-0.7,1.1-0.9
		s1-0.3,1.7-0.3c1.1,0,1.9,0.2,2.4,0.7s0.8,1.1,0.9,1.9l-1.7,0.1c-0.1-0.4-0.2-0.8-0.5-1s-0.6-0.3-1.1-0.3c-0.5,0-0.9,0.1-1.2,0.3
		c-0.2,0.1-0.3,0.3-0.3,0.5c0,0.2,0.1,0.4,0.3,0.5c0.2,0.2,0.8,0.4,1.6,0.6s1.5,0.4,1.9,0.6s0.7,0.5,0.9,0.9s0.3,0.8,0.3,1.4
		c0,0.5-0.1,1-0.4,1.4s-0.7,0.7-1.2,1s-1.1,0.3-1.9,0.3c-1.1,0-1.9-0.3-2.5-0.8S308.2,85.1,308.1,84.1z"/>
	<path d="M316.5,86.9v-8.6h1.7v8.6H316.5z"/>
	<path d="M319.9,78.3h3.2c0.7,0,1.3,0.1,1.6,0.2c0.5,0.1,0.9,0.4,1.3,0.8s0.6,0.8,0.8,1.4s0.3,1.2,0.3,2c0,0.7-0.1,1.3-0.3,1.8
		c-0.2,0.6-0.5,1.1-0.9,1.5c-0.3,0.3-0.7,0.5-1.2,0.7c-0.4,0.1-0.9,0.2-1.5,0.2h-3.3V78.3z M321.6,79.8v5.7h1.3c0.5,0,0.8,0,1-0.1
		c0.3-0.1,0.5-0.2,0.7-0.4s0.3-0.4,0.5-0.8s0.2-0.9,0.2-1.6s-0.1-1.2-0.2-1.5s-0.3-0.6-0.5-0.8s-0.5-0.3-0.8-0.4
		c-0.2-0.1-0.7-0.1-1.4-0.1H321.6z"/>
	<path d="M328.5,86.9v-8.6h6.4v1.5h-4.6v1.9h4.3v1.4h-4.3v2.3h4.8v1.4H328.5z"/>
</g>
<g>
	<path class="st6" d="M163.1,61.9l-4.9-7.2L154,76.3l21.6,4.2l-4.9-7.2c28.4-25.1,55.3-40,84.2-45.3l3.5-1l-5.8-0.2
		C221.1,30.1,191.2,41.7,163.1,61.9z"/>
	<path id="Layer1_10_1_STROKES_4_" class="st11" d="M262.4,26.7l-9.6,0c-31.6,3.3-61.6,15.2-89.5,35.1l-4.9-7.2l-4.2,21.6l21.6,4.2
		l-4.9-7.2c28.4-25.1,56.9-40.2,85.9-45.5C262.4,26.7,262.4,26.7,262.4,26.7z"/>
</g>
<text transform="matrix(1 0 0 1 24.8421 30.0514)" class="st12 st13">7321-P43</text>
<text transform="matrix(1 0 0 1 38.5871 145.3321)" class="st12 st14">CHIP DETECTOR</text>
</svg>
