<?xml version="1.0" encoding="utf-8"?>
<!-- Generator: Adobe Illustrator 24.1.2, SVG Export Plug-In . SVG Version: 6.00 Build 0)  -->
<svg version="1.1" id="Ebene_1" xmlns="http://www.w3.org/2000/svg" xmlns:xlink="http://www.w3.org/1999/xlink" x="0px" y="0px"
	 viewBox="0 0 349.1 161" style="enable-background:new 0 0 349.1 161;" xml:space="preserve">
<style type="text/css">
	.st0{fill:#0099FF;}
	.st1{fill:#999999;}
	.st2{fill:#C9C9C9;}
	.st3{fill:#FF9900;}
	.st4{fill:#30AECE;}
	.st5{fill:none;stroke:#000000;stroke-width:0.5;stroke-miterlimit:60;}
	.st6{fill:none;stroke:#000000;stroke-width:0.5;stroke-miterlimit:5;}
	.st7{fill:none;stroke:#000000;stroke-width:0.25;stroke-miterlimit:5;}
	.st8{fill:none;stroke:#1D1D1D;stroke-width:0.2;stroke-linejoin:bevel;stroke-miterlimit:4;}
	.st9{fill:none;stroke:#1D1D1D;stroke-width:0.7;stroke-linejoin:bevel;stroke-miterlimit:4;}
	.st10{fill:none;stroke:#FF9900;stroke-linecap:round;stroke-linejoin:round;}
	.st11{font-family:'ArialMT';}
	.st12{font-size:14px;}
</style>
<path class="st0" d="M115.3,26l-2,7.4l7.3,2c0.3,0.1,0.6,0.3,0.7,0.5c0.1,0.3,0.2,0.6,0.1,0.8l-0.9,3.1c0,0.3,0,0.5,0.1,0.7
	c0.1,0.1,0.4,0.1,0.7-0.1l10.1-5.4c0.3-0.1,0.4-0.3,0.5-0.7c0.1-0.3,0-0.5-0.1-0.8l-6-9.6c-0.2-0.3-0.4-0.4-0.5-0.4
	c-0.2,0.1-0.3,0.2-0.4,0.5l-0.8,3.1c-0.1,0.3-0.2,0.5-0.5,0.7c-0.3,0.1-0.5,0.2-0.8,0.1L115.3,26z"/>
<path class="st1" d="M145,121.1l-3.8-1.2l-8.8-5.1l-0.8,2l2.3,1.3c0.4,0.2,0.5,0.6,0.3,1.1l-9.4,24.3h7.9v4l4.5,2h3.5l1.9,2.1h4.5
	l7.7,2.2l3.8,0.8l10.1-28.1l0.7-0.9l-6.2-3.6l-0.3,0.8L145,121.1 M144.5,79.5l-3.8,2.2l-0.6,1.3c-0.1,0.6,0.6,1.3,2.3,2.2
	c1.5,0.7,2.7,1.1,3.4,1.2l10,1.8c1.9,0.4,3.2,0.3,4,0l3.8-2.2l0.6-1.3c0.1-0.6-0.7-1.4-2.4-2.2c-1.5-0.7-2.6-1.1-3.3-1.1l-10-1.9
	c-1.1-0.2-2-0.2-2.8-0.2C145.2,79.3,144.8,79.4,144.5,79.5 M154.1,85.3c-1.7-0.4-3.3-1-4.7-2c-0.6-0.4-1.1-0.8-1.3-1.1
	c1-0.1,2.2,0.1,3.6,0.5c1.2,0.4,2.3,0.9,3.2,1.5c0.6,0.4,1,0.8,1.2,1.2c-0.2,0-0.4,0-0.6,0C155.1,85.5,154.6,85.4,154.1,85.3
	 M183,131l-1.2,0c-0.9,0.2-1.8,0.6-2.6,1.1l-2.4,6c0.2-0.1,0.4-0.1,0.6-0.2c1.1-0.8,2.3-1.1,3.4-0.9l2.2,0.2
	c1.5,0.1,2.7,0.8,3.6,1.9c0,0.1,0.1,0.1,0.1,0.1c0.4,0.6,0.8,1.3,1.1,2c0.9,2.3,0.8,4.4,0,6.6c-0.5,1.3-1.2,2.4-2.3,3.2l0,0
	c-1.2,0.9-2.4,1.3-3.7,1.2l-2-0.1l-0.1,0c-0.5,0-1-0.2-1.6-0.4l-0.6-0.3l-1-0.8c-0.4-0.2-0.9-0.4-1.3-0.8c-0.5-0.4-0.9-0.9-1.2-1.4
	l0.1,0.6l0.4,1.1l11.5,7.4c0.9-0.2,1.8-0.5,2.6-1.1l1.2,0l1.8-4.5l0-0.1l3.9-9.9c-0.1-1.1-0.4-2.2-0.7-3.1c0-0.1-0.1-0.2-0.1-0.3
	c-0.9-1-1.9-1.7-3.1-1.9l-0.3-0.2L183,131 M192.6,141.9l-0.4,0.1c-0.4-0.3-0.5-0.7-0.5-1.2c0.1-0.6,0.3-0.9,0.7-1.1l0.4-0.2
	c0.1,0.1,0.1,0.1,0.2,0.2c0.1,0.2,0.3,0.4,0.3,0.7c0,0,0,0.1,0,0.1C193.4,141.2,193.2,141.7,192.6,141.9 M181.3,134.6l-0.2-0.9
	c-0.2-0.6-0.1-1.1,0.4-1.5c0.1,0.1,0.3,0.4,0.4,0.7l0.2,0.9c0.1,0.4,0.1,0.7-0.1,1.1c-0.1,0.1-0.1,0.2-0.2,0.3
	C181.6,135.1,181.4,134.9,181.3,134.6 M187,153.1c0.2,0.2,0.3,0.4,0.4,0.6l0.3,0.9c0.1,0.4,0.1,0.8-0.1,1.1
	c-0.1,0.1-0.1,0.3-0.2,0.4c-0.2-0.2-0.3-0.4-0.4-0.7l-0.2-0.9c-0.1-0.3-0.1-0.6,0-0.8C186.7,153.5,186.8,153.3,187,153.1
	C186.9,153.1,187,153.1,187,153.1z"/>
<path class="st2" d="M141.2,119.9l3.8,1.2l17.9,1.6l0.3-0.8l2.4-6l-0.3-1l-1.1-0.5h0l0-0.1l0.7-1.8v0c-0.1-0.2-0.2-0.5-0.4-0.7
	c-0.1-0.1-0.3-0.3-0.4-0.4c-0.9-0.9-2.6-1.6-4.9-2.1h0l1.2-3l-10.1-6l-21.8-2l-2.4,6l7.4,4.3l0,0l0.6,0.8l0,0.9l-1.7,4.3l0.1,0
	l0.2,0.1l-0.2,0L141.2,119.9 M140.3,31c0.2,0.2,0.6,0.5,1.1,0.9c1.2,0.7,2.5,1.3,3.9,1.6c0.6,0.1,1.2,0.2,1.6,0.2
	c0.1-0.1,0.3-0.1,0.5-0.1l0.2-0.2v0l0.2-0.6c0.1-0.4-0.3-0.9-1.3-1.6c-0.6-0.4-1.3-0.7-2-1c-0.6-0.2-1.2-0.4-1.9-0.6
	c-1.4-0.3-2.2-0.2-2.4,0.2l-0.3,0.7L140.3,31 M152.7,3.6c-0.4-0.1-0.7-0.1-0.9-0.1c-0.4,0-0.8,0.1-1.3,0.3l-0.7,1.7l1.2,1.6l0.3,0.1
	L146,20.7v0.2c0.2,0.3,0.7,0.7,1.5,1c0.7,0.3,1.4,0.5,1.9,0.5l0.8-1.5L155,8.8l2.3,0l0.6-1.7c0-0.2-0.1-0.4-0.3-0.8L157.5,6
	c-0.1-0.1-0.1-0.2-0.3-0.4c-0.1-0.1-0.4-0.3-0.8-0.6c-0.7-0.4-1.5-0.8-2.5-1.2C153.4,3.7,152.9,3.6,152.7,3.6z"/>
<path class="st0" d="M185.7,157.4h1.2c0.9-0.2,1.7-0.5,2.6-1.1l-1.2,0C187.5,156.8,186.7,157.2,185.7,157.4 M173.6,16.5
	c-0.3-0.2-0.6-0.4-1-0.4l-0.4-0.1h-0.1c-0.7,0-1.3,0.1-1.9,0.5c-0.3,0.2-0.6,0.5-0.8,0.9c-0.1,0.2-0.2,0.4-0.3,0.6l-7.6,19.6
	c-0.2,0-0.4,0-0.5,0h-0.1c-0.3,0.1-0.5,0.2-0.6,0.3l-0.8,1.9v0.1c0,0.1,0,0.3,0.2,0.5c-0.1-0.1-0.2-0.3-0.2-0.4v0l-6.3,16.3
	c-0.4,1-0.8,2-1.2,3l-0.5,1.4l-3.4,0.2l-2.8,2l-0.8,2.8l1.6,1.4c0,0,0.1,0,0.1,0c0.1,0,0.1,0.1,0.2,0.1l0.7,0.3h0l0,0
	c0,0,0.1,0,0.1,0l2.7,0.9l10.3,2.5c0.2,0,0.5,0.1,0.7,0.2h0.2c0.1,0,0.1,0,0.1,0l2.3,0.2h0.1c0,0,0.1,0,0.1,0l4.3-1.5l1-2.4
	l-0.7-1.8l-2.9-1.4l0,0l8.2-21.2c0.1-0.3-0.2-0.6-0.7-1.1l3.6-9.5l5.2,3c0.6,0.3,1.2,0.4,1.9,0.2v0c-0.1-0.1-0.1-0.2-0.1-0.2
	c-0.1-0.3-0.1-0.6-0.1-0.9c0-0.1,0-0.2,0-0.3v-0.1c0-0.2,0-0.3,0-0.5c0.1-1.2,0.5-2.4,1.2-3.6c0.2-0.4,0.4-0.7,0.7-1
	c0.1-0.1,0.2-0.2,0.2-0.3c0.2-0.3,0.4-0.5,0.6-0.7l0.4-0.4c0.4-0.3,0.8-0.6,1.2-0.9c0.4-0.2,0.8-0.4,1.1-0.4c0.1,0,0.1,0,0.2,0v0
	c-0.1-0.1-0.1-0.3-0.1-0.4c-0.2-0.5-0.5-0.8-1-1.1L173.6,16.5 M146.2,64c-0.1-0.1-0.3-0.3-0.4-0.4l-0.1-0.1l-0.1-0.1v-0.1l0,0
	c0,0.1,0,0.2,0.1,0.4l0,0c0.2,0.2,0.5,0.4,0.9,0.7l0.2,0.1C146.8,64.4,146.5,64.3,146.2,64z"/>
<path class="st3" d="M194.6,138.4c0,0.1,0.1,0.1,0.1,0.3c0.3,0.9,0.6,2,0.7,3.1l-3.9,9.9l0,0.1l3.6-0.1c1.2,0,2.3-0.5,3.2-1.3
	c0.9-0.8,1.6-1.7,2-2.9c1-2.3,1-4.7-0.1-7.2c-1.2-2.7-3-4-5.5-4l-3.5,0.1l0.3,0.2C192.7,136.7,193.7,137.3,194.6,138.4 M193.2,140.3
	l-0.2-0.5c-0.1-0.1-0.1-0.1-0.2-0.2l-0.4,0.2c-0.4,0.2-0.7,0.5-0.7,1.1c0,0.6,0.2,1,0.5,1.2l0.4-0.1c0.5-0.2,0.8-0.7,0.7-1.4
	c0,0,0-0.1,0-0.1L193.2,140.3 M189.4,26.4c-0.1,0-0.2,0-0.2,0c-0.4,0.1-0.7,0.2-1.1,0.4c-0.4,0.3-0.8,0.6-1.2,0.9l-0.4,0.4
	c-0.2,0.2-0.4,0.4-0.6,0.7c-0.1,0.1-0.1,0.2-0.2,0.3c-0.2,0.3-0.5,0.7-0.7,1c-0.7,1.2-1.1,2.4-1.2,3.6c0,0.1,0,0.3,0,0.5v0.1
	c0,0.1,0,0.2,0,0.3c0,0.4,0.1,0.8,0.2,1.2h0v0c0.2,0.6,0.5,1,1.1,1.3l6.9,4c0.3,0.2,0.6,0.3,0.9,0.3c0.6,0.1,1.3-0.1,2.1-0.6
	l0.4-0.3c0.2,0,0.5-0.1,0.9-0.2l1.5,1.4c0.7,0.6,1,1.2,0.8,1.7l-1,5.7c0,0.1-0.1,0.3-0.2,0.4l-5.1,8l-3,7.8l-0.4,3.3L188.6,81
	c0,1.2-0.3,2.3-0.9,3.4l-2.7,5.2l-1,0.1v0l-5.9,15.3l0.1,0.6l-6,15l-0.1,0.1l0.8,0.7l2,1.2l-2.3-1.2l-0.8-0.8l-1.3,3.7l0.5,0.5
	l-0.3,0.6l-0.2,0.2l-0.2,0.1l-0.6,0.2l0.3,0.3l0,0.5l0,0.2l-2.4,6.4l-1.3,1.4l-3.2,8.7c-0.2,0.6-0.3,1.1-0.1,1.6
	c0.1,0.6,0.5,1,1,1.3c0.3,0.2,0.7,0.3,1.2,0.4l8.1,0.8c0.1,0.2,0.2,0.5,0.4,0.7c0.3,0.5,0.7,1,1.2,1.4c0.4,0.4,0.8,0.6,1.3,0.8
	l1,0.8l0.6,0.3c0.6,0.3,1.1,0.4,1.6,0.4l0.1,0l2,0.1c1.3,0.1,2.6-0.3,3.7-1.2l0,0c1-0.8,1.8-1.9,2.3-3.2c0.9-2.1,0.9-4.3,0-6.6
	c-0.3-0.8-0.6-1.5-1.1-2c0,0-0.1-0.1-0.1-0.1c-0.9-1.1-2.1-1.7-3.6-1.9l-2.2-0.2c-1.1-0.1-2.3,0.2-3.4,0.9c-0.2,0-0.4,0.1-0.6,0.2
	c-0.3,0.1-0.5,0.2-0.8,0.4c-0.8,0.4-1.5,1.1-2,1.8l-1.6-0.1l1.1-2.8l0.1-2.4l2.2-5.7l0.1-0.2l0.2-0.3l0.5,0l-0.3-0.4l-0.1-0.3
	l0.1-0.4l0.2-0.3l0.2-0.2l0.7,0l1.3-3.6l-0.3-0.4l5.9-15l1.2-1.5l5.4-14.2l-0.5-0.6l2.4-4.7c1-2,1.5-4,1.6-6l0.2-11.1l0.3-2.9
	l2.6-6.7l4.8-7.7c0.5-0.8,0.8-1.6,1-2.5l1-5.7c0.2-1.2,0.1-2.4-0.4-3.7c-0.5-1.2-1.2-2.2-2.2-3.1l-2.1-2c0.1-0.8,0-1.3-0.3-1.7v-0.5
	c0-1.4-0.4-2.3-1.2-2.8l0,0l-7.6-4.1H189.4z"/>
<path class="st2" d="M128.4,98.3l-2.4,6l7.4,4.3l0.6,0.8l-0.1,0.9l-1.7,4.3l8.9,5.1l3.7,1.3l17.9,1.6l2.6-6.8l-0.2-1l-1.1-0.5
	l0.7-1.9c-0.5-1.4-2.4-2.5-5.8-3.2l1.2-3l-10.1-6L128.4,98.3z"/>
<path class="st4" d="M189.4,26.4L189.4,26.4l1,0C190,26.4,189.7,26.3,189.4,26.4z"/>
<path id="Layer6_7_MEMBER_1_MEMBER_2_1_STROKES" class="st5" d="M182.3,29.2c-1.4,2.7-1.3,4.5,0.2,5.6l1.3,0.7
	c-0.1-0.3-0.1-0.7-0.1-1.2v-0.2c0-0.2,0-0.3,0-0.5c0.1-1.2,0.5-2.4,1.2-3.6c0.9-1.4,1.9-2.5,3.1-3.2c0.4-0.2,0.8-0.4,1.1-0.5
	l-1.4-0.8c-0.2-0.1-0.4-0.2-0.7-0.2C185.2,25.3,183.6,26.6,182.3,29.2z M175.9,32.1l0.9,0.5l5.2,3c-0.8-0.5-1.2-1.4-1.3-2.6
	c0-1,0.2-2.1,0.6-3.1c0.5-1.4,1.3-2.7,2.7-3.9c1.5-1.4,2.9-1.8,4.2-1.1l-14.6-8.4c-0.3-0.2-0.6-0.3-1-0.4l-0.4-0.1h-0.1
	c-0.7,0-1.3,0.1-1.9,0.5c-0.5,0.4-0.9,0.9-1.1,1.5l-7.6,19.6l-0.1,0.4 M161.6,37.6c-0.7,0-1.2,0.1-1.2,0.4c-0.1,0.4,0.4,1,1.7,1.9
	c0.8,0.5,1.6,1,2.4,1.3c3,1.4,5.6,2.2,7.8,2.4c1,0.1,1.5,0,1.6-0.4c0.1-0.3-0.2-0.6-0.7-1.1l-0.1,0.4 M173.9,43.2l-0.7,1.9l0,0.1
	c-0.1,0.2-0.4,0.3-0.8,0.3c-0.4,0-0.7,0-0.8,0c-0.9-0.1-1.8-0.3-2.7-0.5l-2.4-0.8c-1-0.4-2-0.8-3-1.3c-0.4-0.2-0.9-0.4-1.3-0.7
	c0,0-0.1-0.1-0.1-0.1c-0.2-0.1-0.4-0.2-0.6-0.4c-0.8-0.5-1.3-1-1.6-1.3c-0.1-0.2-0.2-0.3-0.2-0.5l0-0.1v0l-8.6,22.1 M159.8,40.4
	c-0.1-0.2-0.2-0.4-0.2-0.5v0 M160.4,37.9l-0.7,1.9 M166.4,44.1c-0.8-0.3-1.7-0.7-2.6-1.1c-0.1,0-0.3-0.1-0.4-0.2 M197.9,30.6
	l-7.6-4.1 M198,30.6L198,30.6 M199.2,33.4c0-1.4-0.4-2.3-1.2-2.8 M199.2,33.9v-0.5 M199.2,33.9c0.3,0.4,0.3,1,0.3,1.7l2.1,2
	c1,0.9,1.7,1.9,2.2,3.1c0.5,1.2,0.6,2.5,0.4,3.7l-1,5.7c-0.1,0.9-0.5,1.7-1,2.5l-4.8,7.7l-2.6,6.6l-0.3,2.9l-0.2,11c0,2-0.5,4-1.6,6
	l-2.5,4.7l0.6,0.6l-6,15.4l-1.2,0l-2.5-0.7l-2.4-1.1l-0.8-0.8l5.9-15.3l0,0h0l1-0.1l2.7-5.3c0.6-1.1,0.9-2.3,0.9-3.4l0.3-12.1
	l0.4-3.3l3-7.8l5.1-8c0.1-0.2,0.2-0.3,0.2-0.5l1-5.7c0.1-0.5-0.2-1.1-0.9-1.7l-1.5-1.4c-0.4,0.1-0.7,0.2-0.9,0.2l-0.5,0.3
	c-0.8,0.5-1.5,0.6-2.1,0.6c-0.3,0-0.6-0.1-0.9-0.3l-6.9-4c-0.5-0.3-0.9-0.8-1.1-1.4c-0.7,0.2-1.3,0.1-1.8-0.2 M183.8,35.6
	c0,0.1,0,0.2,0.1,0.3 M164.3,67.7l8.8-22.7v0 M176.8,32.6l-3.7,9.5 M147,64.5c-0.2-0.1-0.5-0.3-0.8-0.5c-0.2-0.1-0.3-0.3-0.4-0.4
	l-0.1-0.1l-0.1-0.1v-0.1l0,0c0,0.1,0,0.2,0.1,0.4l0.1,0.1c0.2,0.2,0.5,0.4,0.9,0.7L147,64.5z M147,64.5c0.5,0.3,1.1,0.6,1.7,0.8
	l1,0.4c0.3,0.1,0.7,0.2,1,0.3c0.2,0,0.3,0.1,0.5,0.1l10,2.5c1.1,0.2,1.8,0.4,2.1,0.4c0.9,0.1,1.5,0.1,2,0l3.7-1.2l0.1-0.1l0,0l0,0
	l0.2-0.6 M169.2,67.7L169.2,67.7l-0.9,2.3 M145.4,62.8l-0.7,2.8c0,0.5,0.9,1.1,2.5,1.8c0.6,0.3,1.2,0.5,1.7,0.7
	c0.4,0.1,0.9,0.3,1.3,0.4l0.1,0c0,0,0,0,0.1,0l0.6,0.2l0.2,0.1l8.1,2l1.2,0.3c0.2,0.1,0.5,0.1,0.7,0.2l0.2,0.1
	c0.3,0.1,0.6,0.1,0.9,0.1c0.1,0,0.2,0,0.2,0l1,0.1c0.3,0,0.6,0,0.9-0.1l0.5-0.2l3.3-1 M163.4,71.5c0.4,0,0.8,0,1-0.1l0.4-0.1
	 M159.2,70.7l1.1,0.3c0.3,0.1,0.5,0.1,0.8,0.2 M144.7,65.6c-0.1,0.3,0.5,0.8,1.7,1.5l0.2,0.1c0.7,0.4,1.5,0.7,2.2,0.9
	c0.6,0.2,1.1,0.4,1.4,0.4l0.7,0.2 M184.8,89.9l0.2-0.3 M184,89.7L184,89.7l0.8,0.8l2.4,1.1l2.5,0.7l1.2,0 M172.6,121.6l2.4,1.1
	l2.5,0.7l1.2,0l-0.3-0.4l-0.1,0.1l-1,0l-2.2-0.7l-2.1-1l-0.7-0.7l0.1-0.1l-0.5,0.1L172.6,121.6z M178.3,105.7l-6,15 M189.4,26.4
	c0.2,0,0.5-0.1,0.7-0.1 M189.4,26.4c-0.1,0-0.1,0-0.2,0.1 M188.3,24.9c0.6,0.3,0.9,0.8,1.1,1.6 M195.4,40.6c-0.1,0-0.1,0-0.2,0
	c-0.3,0-0.5-0.1-0.6-0.2c-0.1-0.1-0.2-0.1-0.3-0.2c-0.9-0.9-0.9-2.2,0.1-4.1c1-2.1,2.2-3,3.7-2.9c0.1,0,0.2,0,0.3,0.1
	c0.1,0,0.2,0.1,0.3,0.1h0c0.2,0.1,0.4,0.3,0.5,0.6 M191.9,41.2c-1.8-1.2-1.9-3.4-0.3-6.5c1.5-3.1,3.4-4.5,5.5-4.3
	c0.3,0,0.6,0.1,0.8,0.2 M199.5,35.6l-0.4-0.4c-0.5-0.5-1-0.8-1.6-1.2 M195.3,39.4l1,1 M190.3,91.7l-0.2,0.3 M194.8,138.6
	c1,1.2,1.6,2.7,1.7,4.3c0.2,1.6,0,3.2-0.6,4.6c-0.5,1.2-1.1,2.1-1.9,2.7c-0.4,0.4-0.9,0.7-1.4,1l-0.3,0.1l-0.9,0.2h0l0,0.1l3.7-0.1
	c1.2,0,2.3-0.5,3.2-1.3c0.9-0.8,1.6-1.7,2-2.9c1-2.3,1-4.7-0.1-7.2c-1.1-2.7-3-4-5.5-4l-3.5,0.1l3.3,2.1l-1.2,0l-11.5-7.4
	c-0.9,0.2-1.8,0.6-2.6,1.1l-2.2,5.6 M192.3,139.4c0.2,0,0.4,0.1,0.6,0.2c0.3,0.2,0.4,0.5,0.5,1c0.1,0.7-0.1,1.2-0.7,1.4l-0.3,0.1
	l-0.4,0.2h-0.1l-0.1,0h-0.1c-0.6,0-1-0.4-1.1-1.1c-0.1-0.7,0.1-1.2,0.7-1.5l0.7-0.3l0.1,0h0.1L192.3,139.4L192.3,139.4z
	 M173.7,148.3l0.1,0.6l0.4,1.1l11.5,7.4c1-0.2,1.8-0.5,2.6-1.1l5.8-14.5l1.2,0l-0.2,0.5c0.4,1.7,0.3,3.4-0.4,5
	c-0.6,1.5-1.6,2.6-2.9,3.3l-0.5,1.2 M192.8,139.5l-0.3,0.1c-0.4,0.2-0.7,0.6-0.7,1.1c0,0.5,0.2,1,0.5,1.2 M187.6,147.7
	c-0.5,1.3-1.2,2.4-2.3,3.2c1.5-0.6,2.5-1.8,3.2-3.5c0.6-1.4,0.7-3,0.4-4.6c-0.3-1.7-1.1-2.9-2.3-3.7c0.4,0.6,0.8,1.2,1.1,2
	C188.5,143.4,188.4,145.6,187.6,147.7z M188.4,156.3l1.2,0l1.8-4.5 M191.9,150.5l3.3-8.3 M178.6,123.4l-1.3,3.7l-0.7,0l-0.1,0.2
	l-0.2,0.3l-0.1,0.4l0.1,0.3l0.3,0.4l-0.5,0l-0.2,0.3l-0.1,0.2l-2.5,6.5 M176,128.7l-0.6,0l-2.5-0.7l-2.4-1.1l-0.5-0.5l0,0.5l0,0.2
	l-2.4,6.3 M171.8,120.8l-1.3,3.7l0.9,0.8l2.4,1.1l2.5,0.8l0.5,0 M177.3,137.9c0.4-0.1,0.8-0.1,1.2-0.1 M177.3,137.9
	c-0.5,0.1-0.9,0.3-1.4,0.5c-0.8,0.5-1.4,1.1-1.9,1.9l4.1,0.4 M181.1,135.5c-0.5,0-0.8-0.3-1-0.9l-0.2-0.9 M179.2,137.9l0.2,0.1
	c1.6,0.6,2.7,1.9,3.3,3.8c0.5,1.8,0.4,3.5-0.2,5.2c-0.5,1.1-1.1,2.1-2,2.8c-1,0.8-2.1,1.1-3.2,1c-0.4,0-0.8-0.1-1.1-0.2
	 M176.2,150.5l1,0.8l0.5,0.3c0.6,0.3,1.1,0.4,1.6,0.4l0.1,0c1.3,0.1,2.5-0.4,3.6-1.2c1-0.8,1.8-1.9,2.3-3.2c0.9-2.1,0.9-4.3,0.1-6.6
	c-0.9-2.4-2.5-3.8-4.7-4c-1.1-0.1-2.3,0.2-3.4,0.9 M167.4,133.2l-0.5,0.1l0.9,0.8l2.4,1.1l2.5,0.8l1.2,0l-0.3-0.4 M181.8,135.2
	c-0.2-0.2-0.3-0.4-0.4-0.6l-0.2-0.9 M180.9,132c0.5,0,0.8,0.3,1,0.9l0.2,0.9 M186.5,139.1c0,0-0.1-0.1-0.1-0.1
	c-0.9-1.1-2.1-1.7-3.5-1.9l-2.2-0.2 M181.7,131l1.2,0l8.2,5.3 M170.1,126.4l-0.3-0.3l0.3-0.1l0.3-0.1l0.2-0.1l0.2-0.2l0.1-0.5
	 M173.7,148.2c-0.1-0.2-0.3-0.5-0.4-0.7l-8.1-0.7c-0.5,0-0.9-0.2-1.2-0.4c-0.5-0.3-0.9-0.7-1-1.3c-0.1-0.5-0.1-1.1,0.1-1.6l3.7-10.2
	 M177.4,147.9l-4.1-0.4 M176.2,150.5c-0.5-0.2-0.9-0.4-1.3-0.8c-0.5-0.4-0.9-0.9-1.2-1.4 M186.3,152.8c0.2,0,0.5,0.1,0.6,0.3
	c0.2,0.2,0.3,0.4,0.4,0.6 M187.2,156.1c-0.2-0.2-0.3-0.4-0.4-0.7l-0.2-0.9 M186.6,156.4c-0.5,0-0.8-0.3-1-0.9l-0.2-0.9 M179.5,152
	l2.1,0.2c1.3,0.1,2.6-0.3,3.7-1.2c0,0,0,0,0.1-0.1 M174,140.2l-1.6-0.1l1.6-4.1 M185.7,157.4h1.2c0.9-0.2,1.7-0.6,2.6-1.1
	 M184.2,108l-5.9,15 M169.2,67.7L169.2,67.7 M176.2,150.5L176.2,150.5 M173.7,148.2L173.7,148.2"/>
<path id="Layer6_7_MEMBER_1_MEMBER_3_1_STROKES" class="st6" d="M149.3,12.4l0.4,0.4l1.2,0.6l1.3,0.5h0.6"/>
<path id="Layer6_7_MEMBER_1_MEMBER_4_1_STROKES" class="st6" d="M148.7,14.1l0.5,0.4l1.2,0.6l1.4,0.5h0.6"/>
<path id="Layer6_7_MEMBER_1_MEMBER_5_1_STROKES" class="st6" d="M148,15.8l0.4,0.4l1.2,0.6l1.3,0.5h0.6"/>
<path id="Layer6_7_MEMBER_1_MEMBER_6_1_STROKES" class="st6" d="M147.3,17.6l0.4,0.4l1.2,0.6l1.3,0.5h0.6"/>
<path id="Layer6_7_MEMBER_1_MEMBER_7_1_STROKES" class="st6" d="M146.7,19.2l0.4,0.4l1.2,0.6l1.4,0.5h0.6"/>
<path id="Layer6_7_MEMBER_1_MEMBER_8_1_STROKES" class="st6" d="M157.3,5.7c0.4,0.4,0.4,0.7,0.1,0.9c-0.2,0.1-0.6,0.2-1,0.1
	c-1.4-0.2-2.8-0.7-4.1-1.5"/>
<path id="Layer6_7_MEMBER_1_MEMBER_9_1_STROKES" class="st6" d="M157.4,5.8l0.1,0.1l0.1,0l0,0.1l0,0.1c0.2,0.3,0.3,0.6,0.3,0.8"/>
<path id="Layer6_7_MEMBER_1_MEMBER_10_1_STROKES" class="st6" d="M155.5,7c-1.1-0.9-2.3-1.4-3.7-1.6"/>
<path id="Layer6_7_MEMBER_1_MEMBER_11_1_STROKES" class="st6" d="M156.5,5c0.5,0.3,0.7,0.5,0.8,0.6"/>
<path id="Layer6_7_MEMBER_1_MEMBER_12_1_STROKES" class="st6" d="M152.2,5.1c-0.5-0.3-0.8-0.5-1-0.9c-0.3-0.4-0.1-0.7,0.5-0.7"/>
<path id="Layer6_7_MEMBER_1_MEMBER_13_1_STROKES" class="st6" d="M158,7c-0.7-0.3-1.5-0.3-2.5,0.1"/>
<path id="Layer6_7_MEMBER_1_MEMBER_14_1_STROKES" class="st6" d="M154.8,8.8l-3.7-1.6"/>
<path id="Layer6_7_MEMBER_1_MEMBER_15_1_STROKES" class="st6" d="M151.1,7.1l-1.2-1.6"/>
<path id="Layer6_7_MEMBER_1_MEMBER_16_1_STROKES" class="st6" d="M146.5,31.2c1,0.6,1.4,1.1,1.3,1.6"/>
<path id="Layer6_7_MEMBER_1_MEMBER_17_1_STROKES" class="st6" d="M157.3,8.7l-2.5,0.1"/>
<path id="Layer6_7_MEMBER_1_MEMBER_18_1_STROKES" class="st6" d="M151.8,3.5c0.1,0,0.4,0,0.9,0.1c0.3,0,0.7,0.1,1.3,0.3
	c1,0.3,1.8,0.7,2.5,1.1"/>
<path id="Layer6_7_MEMBER_1_MEMBER_19_1_STROKES" class="st6" d="M151.8,5.4c-0.3-0.9-0.7-1.5-1.2-1.6"/>
<path id="Layer6_7_MEMBER_1_MEMBER_20_1_STROKES" class="st6" d="M146.1,20.9c0.2,0.3,0.7,0.7,1.4,1c0.7,0.3,1.3,0.5,1.7,0.4"/>
<path id="Layer6_7_MEMBER_1_MEMBER_21_1_STROKES" class="st6" d="M145.6,32.2l-0.5-0.4"/>
<path id="Layer6_7_MEMBER_1_MEMBER_22_1_STROKES" class="st6" d="M141.6,31.3c-0.3-0.2-0.6-0.4-0.9-0.6c-0.4-0.4-0.5-0.7-0.5-0.9"/>
<path id="Layer6_7_MEMBER_1_MEMBER_23_1_STROKES" class="st6" d="M141.3,31.9c-0.5-0.4-0.8-0.7-1-0.9l-0.2-0.4"/>
<path id="Layer6_7_MEMBER_1_MEMBER_24_1_STROKES" class="st6" d="M145.4,31.2c-0.6-0.4-1.3-0.7-2-0.9c-0.3-0.1-0.6-0.1-0.8-0.1
	l-0.2,0"/>
<path id="Layer6_7_MEMBER_1_MEMBER_25_1_STROKES" class="st6" d="M145.1,31.8c-1-0.6-1.9-0.9-2.8-0.9"/>
<path id="Layer6_7_MEMBER_1_MEMBER_26_1_STROKES" class="st6" d="M142.7,31.2c0.5,0.4,1.2,0.6,2,0.9c0.5,0.1,0.7,0.1,0.8,0.1l0.2,0"
	/>
<path id="Layer6_7_MEMBER_1_MEMBER_27_1_STROKES" class="st6" d="M143.5,31.6c-0.1,0-0.3-0.2-0.6-0.4"/>
<path id="Layer6_7_MEMBER_1_MEMBER_28_1_STROKES" class="st6" d="M158,7l-0.6,1.7"/>
<path id="Layer6_7_MEMBER_1_MEMBER_29_1_STROKES" class="st6" d="M147.8,32.7l-0.2,0.6"/>
<path id="Layer6_7_MEMBER_1_MEMBER_30_1_STROKES" class="st6" d="M149.7,22.2L155,8.7"/>
<path id="Layer6_7_MEMBER_1_MEMBER_31_1_STROKES" class="st6" d="M155.5,7l-0.6,1.7"/>
<path id="Layer6_7_MEMBER_1_MEMBER_32_1_STROKES" class="st6" d="M145.9,31.7c0-0.1-0.2-0.2-0.5-0.5"/>
<path id="Layer6_7_MEMBER_1_MEMBER_33_1_STROKES" class="st6" d="M142.1,30.6c0,0.1,0,0.1,0.1,0.2l0.6,0.5"/>
<path id="Layer6_7_MEMBER_1_MEMBER_34_1_STROKES" class="st6" d="M147.6,33.3l-0.2,0.2c-0.2,0-0.4,0.1-0.5,0.1c-0.5,0-1.1,0-1.7-0.2
	c-1.4-0.3-2.7-0.9-3.9-1.6"/>
<path id="Layer6_7_MEMBER_1_MEMBER_35_1_STROKES" class="st6" d="M147.8,32.7c-0.1,0.2-0.5,0.4-1.1,0.4c-0.4,0-0.8-0.1-1.2-0.2
	c-1.4-0.3-2.7-0.9-3.9-1.6"/>
<path id="Layer6_7_MEMBER_1_MEMBER_36_1_STROKES" class="st6" d="M140.3,29.7c0.2-0.4,1-0.5,2.4-0.2c1.5,0.4,2.8,1,3.9,1.6"/>
<path id="Layer6_7_MEMBER_1_MEMBER_37_1_STROKES" class="st6" d="M151.8,5.4l-0.7,1.7"/>
<path id="Layer6_7_MEMBER_1_MEMBER_38_1_STROKES" class="st6" d="M150.5,3.8l-0.7,1.7"/>
<path id="Layer6_7_MEMBER_1_MEMBER_39_1_STROKES" class="st6" d="M140.3,29.7l-0.2,0.6"/>
<path id="Layer6_7_MEMBER_1_MEMBER_40_1_STROKES" class="st6" d="M149.5,22.3l0.1-0.1"/>
<path id="Layer6_7_MEMBER_1_MEMBER_41_1_STROKES" class="st6" d="M150.5,3.8c0.4-0.2,0.8-0.3,1.2-0.3"/>
<path id="Layer6_7_MEMBER_1_MEMBER_42_1_STROKES" class="st6" d="M157.3,5.7c0.4,0.4,0.4,0.7,0.1,0.9c-0.2,0.1-0.6,0.2-1,0.1
	c-1.4-0.2-2.8-0.7-4.1-1.5"/>
<path id="Layer6_7_MEMBER_1_MEMBER_43_1_STROKES" class="st6" d="M157.4,5.8l0.1,0.1l0.1,0l0,0.1l0,0.1c0.2,0.3,0.3,0.6,0.3,0.8"/>
<path id="Layer6_7_MEMBER_1_MEMBER_44_1_STROKES" class="st6" d="M155.5,7c-1.1-0.9-2.3-1.4-3.7-1.6"/>
<path id="Layer6_7_MEMBER_1_MEMBER_45_1_STROKES" class="st6" d="M156.5,5c0.5,0.3,0.7,0.5,0.8,0.6"/>
<path id="Layer6_7_MEMBER_1_MEMBER_46_1_STROKES" class="st6" d="M152.2,5.1c-0.5-0.3-0.8-0.5-1-0.9c-0.3-0.4-0.1-0.7,0.5-0.7"/>
<path id="Layer6_7_MEMBER_1_MEMBER_47_1_STROKES" class="st6" d="M158,7c-0.7-0.3-1.5-0.3-2.5,0.1"/>
<path id="Layer6_7_MEMBER_1_MEMBER_48_1_STROKES" class="st6" d="M154.8,8.8l-3.7-1.6"/>
<path id="Layer6_7_MEMBER_1_MEMBER_49_1_STROKES" class="st6" d="M151.1,7.1l-1.2-1.6"/>
<path id="Layer6_7_MEMBER_1_MEMBER_50_1_STROKES" class="st6" d="M146.5,31.2c1,0.6,1.4,1.1,1.3,1.6"/>
<path id="Layer6_7_MEMBER_1_MEMBER_51_1_STROKES" class="st6" d="M157.3,8.7l-2.5,0.1"/>
<path id="Layer6_7_MEMBER_1_MEMBER_52_1_STROKES" class="st6" d="M151.8,3.5c0.1,0,0.4,0,0.9,0.1c0.3,0,0.7,0.1,1.3,0.3
	c1,0.3,1.8,0.7,2.5,1.1"/>
<path id="Layer6_7_MEMBER_1_MEMBER_53_1_STROKES" class="st6" d="M151.8,5.4c-0.3-0.9-0.7-1.5-1.2-1.6"/>
<path id="Layer6_7_MEMBER_1_MEMBER_54_1_STROKES" class="st6" d="M146.1,20.9c0.2,0.3,0.7,0.7,1.4,1c0.7,0.3,1.3,0.5,1.7,0.4"/>
<path id="Layer6_7_MEMBER_1_MEMBER_55_1_STROKES" class="st6" d="M145.6,32.2l-0.5-0.4"/>
<path id="Layer6_7_MEMBER_1_MEMBER_56_1_STROKES" class="st6" d="M141.6,31.3c-0.3-0.2-0.6-0.4-0.9-0.6c-0.4-0.4-0.5-0.7-0.5-0.9"/>
<path id="Layer6_7_MEMBER_1_MEMBER_57_1_STROKES" class="st6" d="M141.3,31.9c-0.5-0.4-0.8-0.7-1-0.9l-0.2-0.4"/>
<path id="Layer6_7_MEMBER_1_MEMBER_58_1_STROKES" class="st6" d="M145.4,31.2c-0.6-0.4-1.3-0.7-2-0.9c-0.3-0.1-0.6-0.1-0.8-0.1
	l-0.2,0"/>
<path id="Layer6_7_MEMBER_1_MEMBER_59_1_STROKES" class="st6" d="M145.1,31.8c-1-0.6-1.9-0.9-2.8-0.9"/>
<path id="Layer6_7_MEMBER_1_MEMBER_60_1_STROKES" class="st6" d="M142.7,31.2c0.5,0.4,1.2,0.6,2,0.9c0.5,0.1,0.7,0.1,0.8,0.1l0.2,0"
	/>
<path id="Layer6_7_MEMBER_1_MEMBER_61_1_STROKES" class="st6" d="M143.5,31.6c-0.1,0-0.3-0.2-0.6-0.4"/>
<path id="Layer6_7_MEMBER_1_MEMBER_62_1_STROKES" class="st6" d="M158,7l-0.6,1.7"/>
<path id="Layer6_7_MEMBER_1_MEMBER_63_1_STROKES" class="st6" d="M147.8,32.7l-0.2,0.6"/>
<path id="Layer6_7_MEMBER_1_MEMBER_64_1_STROKES" class="st6" d="M149.7,22.2L155,8.7"/>
<path id="Layer6_7_MEMBER_1_MEMBER_65_1_STROKES" class="st6" d="M155.5,7l-0.6,1.7"/>
<path id="Layer6_7_MEMBER_1_MEMBER_66_1_STROKES" class="st6" d="M145.9,31.7c0-0.1-0.2-0.2-0.5-0.5"/>
<path id="Layer6_7_MEMBER_1_MEMBER_67_1_STROKES" class="st6" d="M142.1,30.6c0,0.1,0,0.1,0.1,0.2l0.6,0.5"/>
<path id="Layer6_7_MEMBER_1_MEMBER_68_1_STROKES" class="st6" d="M147.6,33.3l-0.2,0.2c-0.2,0-0.4,0.1-0.5,0.1c-0.5,0-1.1,0-1.7-0.2
	c-1.4-0.3-2.7-0.9-3.9-1.6"/>
<path id="Layer6_7_MEMBER_1_MEMBER_69_1_STROKES" class="st6" d="M147.8,32.7c-0.1,0.2-0.5,0.4-1.1,0.4c-0.4,0-0.8-0.1-1.2-0.2
	c-1.4-0.3-2.7-0.9-3.9-1.6"/>
<path id="Layer6_7_MEMBER_1_MEMBER_70_1_STROKES" class="st6" d="M140.3,29.7c0.2-0.4,1-0.5,2.4-0.2c1.5,0.4,2.8,1,3.9,1.6"/>
<path id="Layer6_7_MEMBER_1_MEMBER_71_1_STROKES" class="st6" d="M146,20.7l5.3-13.4"/>
<path id="Layer6_7_MEMBER_1_MEMBER_72_1_STROKES" class="st6" d="M151.8,5.4l-0.7,1.7"/>
<path id="Layer6_7_MEMBER_1_MEMBER_73_1_STROKES" class="st6" d="M150.5,3.8l-0.7,1.7"/>
<path id="Layer6_7_MEMBER_1_MEMBER_74_1_STROKES" class="st6" d="M140.3,29.7l-0.2,0.6"/>
<path id="Layer6_7_MEMBER_1_MEMBER_75_1_STROKES" class="st6" d="M149.5,22.3l0.1-0.1"/>
<path id="Layer6_7_MEMBER_1_MEMBER_76_1_STROKES" class="st6" d="M150.5,3.8c0.4-0.2,0.8-0.3,1.2-0.3"/>
<path id="Layer6_7_MEMBER_1_MEMBER_77_1_STROKES" class="st6" d="M157.4,5.8l0.1,0.1l0.1,0l0,0.1l0,0.1c0.2,0.3,0.3,0.6,0.3,0.8"/>
<path id="Layer6_7_MEMBER_1_MEMBER_78_1_STROKES" class="st6" d="M156.5,5c0.5,0.3,0.7,0.5,0.8,0.6"/>
<path id="Layer6_7_MEMBER_1_MEMBER_79_1_STROKES" class="st6" d="M158,7c-0.7-0.3-1.5-0.3-2.5,0.1"/>
<path id="Layer6_7_MEMBER_1_MEMBER_80_1_STROKES" class="st6" d="M158,7l-0.6,1.7l-2.5,0.1"/>
<path id="Layer6_7_MEMBER_1_MEMBER_81_1_STROKES" class="st6" d="M155.5,7l-0.6,1.7"/>
<path id="Layer6_7_MEMBER_1_MEMBER_82_1_STROKES" class="st6" d="M157.4,5.8l0.1,0.1l0.1,0l0,0.1l0,0.1c0.2,0.3,0.3,0.6,0.3,0.8"/>
<path id="Layer6_7_MEMBER_1_MEMBER_83_1_STROKES" class="st6" d="M156.5,5c0.5,0.3,0.7,0.5,0.8,0.6"/>
<path id="Layer6_7_MEMBER_1_MEMBER_84_1_STROKES" class="st6" d="M158,7c-0.7-0.3-1.5-0.3-2.5,0.1"/>
<path id="Layer6_7_MEMBER_1_MEMBER_85_1_STROKES" class="st6" d="M158,7l-0.6,1.7l-2.5,0.1"/>
<path id="Layer6_7_MEMBER_1_MEMBER_86_1_STROKES" class="st6" d="M155.5,7l-0.6,1.7"/>
<path id="Layer6_7_MEMBER_1_MEMBER_87_1_STROKES" class="st6" d="M165.1,65.7l0.2,0.2l1.1,0.8l1.2,0.5l0.7-0.1"/>
<path id="Layer6_7_MEMBER_1_MEMBER_88_1_STROKES" class="st6" d="M168.4,67.2l-0.3-0.6l-1.1-0.8l-1.3-0.5l-0.4,0"/>
<path id="Layer6_7_MEMBER_1_MEMBER_89_1_STROKES" class="st6" d="M152.9,65.1l-0.3-0.6l-1.1-0.8l-1.2-0.5l-0.7,0.1l0.3,0.6l1.1,0.8
	l1.2,0.5L152.9,65.1z"/>
<path id="Layer6_7_MEMBER_1_MEMBER_90_1_STROKES" class="st6" d="M145.5,62.7l2.7-1.9"/>
<path id="Layer6_7_MEMBER_1_MEMBER_91_1_STROKES" class="st6" d="M151.6,60.6l-2-0.1l-1.4,0.4"/>
<path id="Layer6_7_MEMBER_1_MEMBER_92_1_STROKES" class="st6" d="M169.4,67l-0.9-1.2l-2.8-1.4"/>
<path id="Layer6_7_MEMBER_1_MEMBER_93_1_STROKES" class="st6" d="M155.4,83.1c-1.5-0.9-3.1-1.6-4.7-1.9c-0.7-0.2-1.3-0.2-1.9-0.2
	c-0.3,0-0.5,0.1-0.6,0.1"/>
<path id="Layer6_7_MEMBER_1_MEMBER_94_1_STROKES" class="st6" d="M155,84.2c-0.9-0.6-2-1.1-3.2-1.5c-1.4-0.5-2.6-0.7-3.5-0.6"/>
<path id="Layer6_7_MEMBER_1_MEMBER_95_1_STROKES" class="st6" d="M149.4,83.3c1.4,0.9,3,1.6,4.7,2c0.5,0.1,1,0.2,1.5,0.2
	c0.8,0,1.2-0.1,1.3-0.4"/>
<path id="Layer6_7_MEMBER_1_MEMBER_96_1_STROKES" class="st6" d="M161.7,83c-0.3-0.2-0.9-0.5-1.6-0.7c-0.9-0.3-1.4-0.3-1.6,0"/>
<path id="Layer6_7_MEMBER_1_MEMBER_97_1_STROKES" class="st6" d="M161.4,83.7c-0.9-0.6-1.8-0.9-2.7-1"/>
<path id="Layer6_7_MEMBER_1_MEMBER_98_1_STROKES" class="st6" d="M159.1,83.1c0.3,0.3,0.9,0.5,1.6,0.7c0.9,0.3,1.4,0.3,1.6,0"/>
<path id="Layer6_7_MEMBER_1_MEMBER_99_1_STROKES" class="st6" d="M145.7,83.4c-0.3-0.2-0.8-0.5-1.6-0.7c-0.9-0.3-1.4-0.3-1.6,0"/>
<path id="Layer6_7_MEMBER_1_MEMBER_100_1_STROKES" class="st6" d="M158.6,81.3c0.8,0,1.9,0.4,3.4,1.1c1.7,0.8,2.4,1.6,2.4,2.2"/>
<path id="Layer6_7_MEMBER_1_MEMBER_101_1_STROKES" class="st6" d="M148.5,79.4l10.1,1.9"/>
<path id="Layer6_7_MEMBER_1_MEMBER_102_1_STROKES" class="st6" d="M145.8,84.4l-0.1-0.1l-0.2-0.1"/>
<path id="Layer6_7_MEMBER_1_MEMBER_103_1_STROKES" class="st6" d="M145.5,84.1c-0.9-0.5-1.8-0.9-2.7-0.9"/>
<path id="Layer6_7_MEMBER_1_MEMBER_104_1_STROKES" class="st6" d="M143.2,83.4c0.3,0.2,0.8,0.5,1.6,0.7c0.9,0.3,1.4,0.3,1.6,0"/>
<path id="Layer6_7_MEMBER_1_MEMBER_105_1_STROKES" class="st6" d="M146.3,85.2c-0.8,0-1.9-0.4-3.4-1.2c-1.7-0.8-2.4-1.6-2.3-2.2"/>
<path id="Layer6_7_MEMBER_1_MEMBER_106_1_STROKES" class="st6" d="M145.9,86.3c-0.7,0-1.9-0.4-3.4-1.2c-1.7-0.8-2.5-1.6-2.3-2.2"/>
<path id="Layer6_7_MEMBER_1_MEMBER_107_1_STROKES" class="st6" d="M156.3,87.1l-10-1.9"/>
<path id="Layer6_7_MEMBER_1_MEMBER_108_1_STROKES" class="st6" d="M155.9,88.2l-10-1.9"/>
<path id="Layer6_7_MEMBER_1_MEMBER_109_1_STROKES" class="st6" d="M156.2,85.2c-0.2-0.3-0.6-0.6-1.2-1"/>
<path id="Layer6_7_MEMBER_1_MEMBER_110_1_STROKES" class="st6" d="M164.3,84.6l-0.4,1"/>
<path id="Layer6_7_MEMBER_1_MEMBER_111_1_STROKES" class="st6" d="M156.9,85c0.2-0.5-0.3-1.1-1.5-1.9"/>
<path id="Layer6_7_MEMBER_1_MEMBER_112_1_STROKES" class="st6" d="M162.4,83.7L162.4,83.7l0-0.1l0,0l0-0.1l-0.6-0.5"/>
<path id="Layer6_7_MEMBER_1_MEMBER_113_1_STROKES" class="st6" d="M158.4,82.3c-0.1,0.2,0.1,0.4,0.6,0.8"/>
<path id="Layer6_7_MEMBER_1_MEMBER_114_1_STROKES" class="st6" d="M147.9,81.4c-0.2,0.5,0.3,1.1,1.5,1.9"/>
<path id="Layer6_7_MEMBER_1_MEMBER_115_1_STROKES" class="st6" d="M146.4,84.2c0.1-0.3-0.1-0.6-0.7-0.8"/>
<path id="Layer6_7_MEMBER_1_MEMBER_116_1_STROKES" class="st6" d="M142.5,82.6c-0.1,0.1,0,0.2,0.2,0.5c0.2,0.2,0.3,0.3,0.5,0.3"/>
<path id="Layer6_7_MEMBER_1_MEMBER_117_1_STROKES" class="st6" d="M140.4,82.3l-0.3,0.7"/>
<path id="Layer6_7_MEMBER_1_MEMBER_118_1_STROKES" class="st6" d="M163.6,85.9l-3.7,2.2"/>
<path id="Layer6_7_MEMBER_1_MEMBER_119_1_STROKES" class="st6" d="M164.1,84.8l-3.8,2.2"/>
<path id="Layer6_7_MEMBER_1_MEMBER_120_1_STROKES" class="st6" d="M159.9,88.1c-0.8,0.4-2.2,0.4-4,0.1"/>
<path id="Layer6_7_MEMBER_1_MEMBER_121_1_STROKES" class="st6" d="M160.3,87c-0.8,0.5-2.1,0.5-4,0.1"/>
<path id="Layer6_7_MEMBER_1_MEMBER_122_1_STROKES" class="st6" d="M144.5,79.5c0.7-0.4,2.1-0.4,4-0.1"/>
<path id="Layer6_7_MEMBER_1_MEMBER_123_1_STROKES" class="st6" d="M140.8,81.6l3.8-2.2"/>
<path id="Layer6_7_MEMBER_1_MEMBER_124_1_STROKES" class="st6" d="M193.3,140.4l-0.1-0.1l-0.2-0.6"/>
<path id="Layer6_7_MEMBER_1_MEMBER_125_1_STROKES" class="st6" d="M194.8,138.6c-0.9-1.2-2-1.9-3.4-2.2"/>
<path id="Layer6_7_MEMBER_1_MEMBER_126_1_STROKES" class="st6" d="M195.4,141.7c-0.2-1.3-0.5-2.4-0.9-3.4"/>
<path id="Layer6_7_MEMBER_1_MEMBER_127_1_STROKES" class="st6" d="M194.1,141.8c-0.2-1.1-0.5-2.2-0.9-3.4"/>
<path id="Layer6_7_MEMBER_1_MEMBER_128_1_STROKES" class="st6" d="M187.6,154.6c0.1,0.4,0.1,0.7-0.1,1.1c-0.2,0.4-0.5,0.6-0.9,0.6"
	/>
<path id="Layer6_7_MEMBER_1_MEMBER_129_1_STROKES" class="st6" d="M182.1,133.8c0.1,0.4,0.1,0.7-0.1,1.1c-0.2,0.4-0.5,0.6-0.9,0.6"
	/>
<path id="Layer6_7_MEMBER_1_MEMBER_130_1_STROKES" class="st6" d="M186.6,154.5c-0.1-0.3-0.1-0.6,0-0.8c0-0.3,0.2-0.5,0.3-0.6"/>
<path id="Layer6_7_MEMBER_1_MEMBER_131_1_STROKES" class="st6" d="M181.1,133.7c-0.2-0.6-0.1-1.1,0.4-1.5"/>
<path id="Layer6_7_MEMBER_1_MEMBER_132_1_STROKES" class="st6" d="M185.4,154.6c-0.1-0.4-0.1-0.7,0.1-1.1c0.2-0.4,0.5-0.6,0.9-0.6"
	/>
<path id="Layer6_7_MEMBER_1_MEMBER_133_1_STROKES" class="st6" d="M179.9,133.7c-0.1-0.4-0.1-0.7,0.1-1.1c0.2-0.4,0.5-0.6,0.9-0.6"
	/>
<path id="Layer6_7_MEMBER_1_MEMBER_134_1_STROKES" class="st6" d="M187.3,153.8l0.2,0.9"/>
<path id="Layer6_7_MEMBER_1_MEMBER_135_1_STROKES" class="st6" d="M153.1,103.9l-0.3-0.6l-1.1-0.8l-1.2-0.5l-0.7,0l0.3,0.6l1.1,0.8
	l1.2,0.5L153.1,103.9z"/>
<path id="Layer6_7_MEMBER_1_MEMBER_136_1_STROKES" class="st6" d="M138,102.3l-0.3-0.6l-1.1-0.8l-1.2-0.5l-0.7,0l0.3,0.6l1.1,0.7
	l1.2,0.5L138,102.3z"/>
<path id="Layer6_7_MEMBER_1_MEMBER_137_1_STROKES" class="st6" d="M150.2,100.3l-21.4-1.9"/>
<path id="Layer6_7_MEMBER_1_MEMBER_138_1_STROKES" class="st6" d="M159.2,110.4c-0.2-0.1-0.5-0.3-0.7-0.5c-0.4-0.3-0.5-0.5-0.2-0.6"
	/>
<path id="Layer6_7_MEMBER_1_MEMBER_139_1_STROKES" class="st6" d="M160.3,106.2l-10.2-5.9"/>
<path id="Layer6_7_MEMBER_1_MEMBER_140_1_STROKES" class="st6" d="M160.3,106.2l-21.4-1.9"/>
<path id="Layer6_7_MEMBER_1_MEMBER_141_1_STROKES" class="st6" d="M142.5,107.8c0.7,0,1.5,0.2,2.6,0.5c0.9,0.3,1.7,0.6,2.4,1.1"/>
<path id="Layer6_7_MEMBER_1_MEMBER_142_1_STROKES" class="st6" d="M158.5,109.2c0.7,0,1.5,0.2,2.6,0.5c0.9,0.3,1.7,0.7,2.4,1.1"/>
<path id="Layer6_7_MEMBER_1_MEMBER_143_1_STROKES" class="st6" d="M142.5,107.8l-0.2,0"/>
<path id="Layer6_7_MEMBER_1_MEMBER_144_1_STROKES" class="st6" d="M141.6,108l0.7-0.1"/>
<path id="Layer6_7_MEMBER_1_MEMBER_145_1_STROKES" class="st6" d="M146.6,110.9c-1.1-0.9-2.3-1.4-3.7-1.6"/>
<path id="Layer6_7_MEMBER_1_MEMBER_146_1_STROKES" class="st6" d="M138,109.5c-0.3-0.1-0.4-0.4-0.5-0.7c-0.1-0.3,0-0.6,0.1-0.9"/>
<path id="Layer6_7_MEMBER_1_MEMBER_147_1_STROKES" class="st6" d="M147.5,109.4c0.4,0.3,0.7,0.5,1,0.7"/>
<path id="Layer6_7_MEMBER_1_MEMBER_148_1_STROKES" class="st6" d="M143.3,109c-0.4-0.2-0.7-0.4-1-0.7c-0.1-0.1-0.1-0.2-0.1-0.2
	c0-0.1,0-0.2,0.1-0.2"/>
<path id="Layer6_7_MEMBER_1_MEMBER_149_1_STROKES" class="st6" d="M141.9,111.7c-0.5-0.3-0.8-0.5-1-0.7c-0.1,0-0.1-0.1-0.2-0.2
	c-0.1-0.1-0.1-0.2-0.1-0.2"/>
<path id="Layer6_7_MEMBER_1_MEMBER_150_1_STROKES" class="st6" d="M138.9,104.3l-10.5-6"/>
<path id="Layer6_7_MEMBER_1_MEMBER_151_1_STROKES" class="st6" d="M143.9,113l-6-3.5"/>
<path id="Layer6_7_MEMBER_1_MEMBER_152_1_STROKES" class="st6" d="M126.1,104.3l7.6,4.3"/>
<path id="Layer6_7_MEMBER_1_MEMBER_153_1_STROKES" class="st6" d="M158.5,109.2l-0.2,0"/>
<path id="Layer6_7_MEMBER_1_MEMBER_154_1_STROKES" class="st6" d="M164.5,111.7c0.3,0.5-0.2,0.5-1.5,0.3c-1.4-0.3-2.6-0.8-3.8-1.5"
	/>
<path id="Layer6_7_MEMBER_1_MEMBER_155_1_STROKES" class="st6" d="M148.6,110.2L148.6,110.2l0.1,0.1l0,0.1l0.1,0.1l0,0.1l0.2,0.6"/>
<path id="Layer6_7_MEMBER_1_MEMBER_156_1_STROKES" class="st6" d="M141.5,110.7c-0.2-0.1-0.3-0.3-0.4-0.4c-0.2-0.2-0.3-0.4-0.2-0.5"
	/>
<path id="Layer6_7_MEMBER_1_MEMBER_157_1_STROKES" class="st6" d="M133.7,108.7c0.3,0.1,0.4,0.4,0.5,0.7c0.1,0.3,0,0.6-0.1,0.9"/>
<path id="Layer6_7_MEMBER_1_MEMBER_158_1_STROKES" class="st6" d="M158.8,110.7c-0.3-0.8-0.7-1.2-1.2-1.3"/>
<path id="Layer6_7_MEMBER_1_MEMBER_159_1_STROKES" class="st6" d="M148.6,110.2c0.2,0.3,0,0.4-0.5,0.4c-0.4,0-0.7,0-1-0.1
	c-1.3-0.3-2.5-0.8-3.8-1.5"/>
<path id="Layer6_7_MEMBER_1_MEMBER_160_1_STROKES" class="st6" d="M142.8,109.3c-0.3-0.8-0.7-1.2-1.2-1.3"/>
<path id="Layer6_7_MEMBER_1_MEMBER_161_1_STROKES" class="st6" d="M159.1,109.3l1.2-3"/>
<path id="Layer6_7_MEMBER_1_MEMBER_162_1_STROKES" class="st6" d="M157.5,109.4l-0.7,1.7"/>
<path id="Layer6_7_MEMBER_1_MEMBER_163_1_STROKES" class="st6" d="M142.8,109.3l-0.7,1.7"/>
<path id="Layer6_7_MEMBER_1_MEMBER_164_1_STROKES" class="st6" d="M141.6,108l-0.7,1.7"/>
<path id="Layer6_7_MEMBER_1_MEMBER_165_1_STROKES" class="st6" d="M140.8,109.8l-0.2,0.6"/>
<path id="Layer6_7_MEMBER_1_MEMBER_166_1_STROKES" class="st6" d="M137.5,107.9l1.4-3.6"/>
<path id="Layer6_7_MEMBER_1_MEMBER_167_1_STROKES" class="st6" d="M134.1,110.3l-1.7,4.3"/>
<path id="Layer6_7_MEMBER_1_MEMBER_168_1_STROKES" class="st6" d="M126.1,104.3l2.4-6"/>
<path id="Layer6_7_MEMBER_1_MEMBER_169_1_STROKES" class="st6" d="M148.2,113.4c0,0.1-0.2,0.2-0.4,0.2"/>
<path id="Layer6_7_MEMBER_1_MEMBER_170_1_STROKES" class="st6" d="M148.4,112.8l-0.2,0.6"/>
<path id="Layer6_7_MEMBER_1_MEMBER_171_1_STROKES" class="st6" d="M149,111.1l-0.7,1.7"/>
<path id="Layer6_7_MEMBER_1_MEMBER_172_1_STROKES" class="st6" d="M145,121.1l2.7-6.8"/>
<path id="Layer6_7_MEMBER_1_MEMBER_173_1_STROKES" class="st6" d="M146.6,110.9l-0.7,1.7"/>
<path id="Layer6_7_MEMBER_1_MEMBER_174_1_STROKES" class="st6" d="M141.3,119.8l2.6-6.8"/>
<path id="Layer6_7_MEMBER_1_MEMBER_175_1_STROKES" class="st6" d="M134.2,119.1l-9.4,24.3"/>
<path id="Layer6_7_MEMBER_1_MEMBER_176_1_STROKES" class="st6" d="M132.4,114.8l-0.8,2"/>
<path id="Layer6_7_MEMBER_1_MEMBER_177_1_STROKES" class="st6" d="M134.2,119.1c0.2-0.5,0.1-0.8-0.3-1.1"/>
<path id="Layer6_7_MEMBER_1_MEMBER_178_1_STROKES" class="st6" d="M164.3,114.3c-0.4,0.2-1.1,0.2-2.3-0.2"/>
<path id="Layer6_7_MEMBER_1_MEMBER_179_1_STROKES" class="st6" d="M148.3,112.8c-0.2,0.1-0.6,0.2-1.1,0.1c-0.4,0-0.8-0.1-1.2-0.2"/>
<path id="Layer6_7_MEMBER_1_MEMBER_180_1_STROKES" class="st6" d="M165.3,114.9l0.2,1"/>
<path id="Layer6_7_MEMBER_1_MEMBER_181_1_STROKES" class="st6" d="M163,122.7l2.6-6.8"/>
<path id="Layer6_7_MEMBER_1_MEMBER_182_1_STROKES" class="st6" d="M164.3,114.2l-0.2,0.6"/>
<path id="Layer6_7_MEMBER_1_MEMBER_183_1_STROKES" class="st6" d="M165,112.5l-0.7,1.7"/>
<path id="Layer6_7_MEMBER_1_MEMBER_184_1_STROKES" class="st6" d="M162.5,112.3l-0.7,1.7"/>
<path id="Layer6_7_MEMBER_1_MEMBER_185_1_STROKES" class="st6" d="M158.8,110.7l-0.7,1.7"/>
<path id="Layer6_7_MEMBER_1_MEMBER_186_1_STROKES" class="st6" d="M156.8,111.3l-0.2,0.6"/>
<path id="Layer6_7_MEMBER_1_MEMBER_187_1_STROKES" class="st6" d="M168.7,126.3l-10.1,28.2"/>
<path id="Layer6_7_MEMBER_1_MEMBER_188_1_STROKES" class="st6" d="M168.7,126.3l-17.3-1.5"/>
<path id="Layer6_7_MEMBER_1_MEMBER_189_1_STROKES" class="st6" d="M163.3,121.9l6.2,3.6"/>
<path id="Layer6_7_MEMBER_1_MEMBER_190_1_STROKES" class="st6" d="M151.1,126.5l-9.4,24.2"/>
<path id="Layer6_7_MEMBER_1_MEMBER_191_1_STROKES" class="st6" d="M146.4,125.4l-9.4,24.2"/>
<path id="Layer6_7_MEMBER_1_MEMBER_192_1_STROKES" class="st6" d="M165,112.5c-0.7-0.5-1.5-0.5-2.5-0.2"/>
<path id="Layer6_7_MEMBER_1_MEMBER_193_1_STROKES" class="st6" d="M163.5,110.8c0.4,0.2,0.7,0.5,1,0.7"/>
<path id="Layer6_7_MEMBER_1_MEMBER_194_1_STROKES" class="st6" d="M165.3,114.9l-1.1-0.6"/>
<path id="Layer6_7_MEMBER_1_MEMBER_195_1_STROKES" class="st6" d="M161.8,114c-1.4-0.4-2.6-0.9-3.6-1.5"/>
<path id="Layer6_7_MEMBER_1_MEMBER_196_1_STROKES" class="st6" d="M162,114.1l-0.2,0"/>
<path id="Layer6_7_MEMBER_1_MEMBER_197_1_STROKES" class="st6" d="M164.5,111.7L164.5,111.7l0.2,0.2l0.1,0.1l0.2,0.5"/>
<path id="Layer6_7_MEMBER_1_MEMBER_198_1_STROKES" class="st6" d="M162.5,112.3c-1.1-0.9-2.3-1.4-3.7-1.6"/>
<path id="Layer6_7_MEMBER_1_MEMBER_199_1_STROKES" class="st6" d="M157.4,112.1c-0.5-0.4-0.7-0.7-0.7-0.9"/>
<path id="Layer6_7_MEMBER_1_MEMBER_200_1_STROKES" class="st6" d="M149,111.1c-0.7-0.5-1.5-0.6-2.5-0.2"/>
<path id="Layer6_7_MEMBER_1_MEMBER_201_1_STROKES" class="st6" d="M158,112.5l-0.6-0.4"/>
<path id="Layer6_7_MEMBER_1_MEMBER_202_1_STROKES" class="st6" d="M157.8,113.1c-0.4-0.2-0.8-0.5-1.1-0.7l-0.2-0.3"/>
<path id="Layer6_7_MEMBER_1_MEMBER_203_1_STROKES" class="st6" d="M142.1,111.1l-0.6-0.4"/>
<path id="Layer6_7_MEMBER_1_MEMBER_204_1_STROKES" class="st6" d="M158.2,112.6l-0.1-0.1"/>
<path id="Layer6_7_MEMBER_1_MEMBER_205_1_STROKES" class="st6" d="M143.9,113l3.8,1.3"/>
<path id="Layer6_7_MEMBER_1_MEMBER_206_1_STROKES" class="st6" d="M145.9,112.6c-1.4-0.4-2.6-0.9-3.6-1.5"/>
<path id="Layer6_7_MEMBER_1_MEMBER_207_1_STROKES" class="st6" d="M146,112.7l-0.2,0"/>
<path id="Layer6_7_MEMBER_1_MEMBER_208_1_STROKES" class="st6" d="M162.6,114.9c-1.6-0.3-3.2-0.9-4.8-1.8"/>
<path id="Layer6_7_MEMBER_1_MEMBER_209_1_STROKES" class="st6" d="M146.7,113.5c-1.6-0.3-3.2-0.9-4.8-1.8"/>
<path id="Layer6_7_MEMBER_1_MEMBER_210_1_STROKES" class="st6" d="M165.6,115.9l-17.9-1.6"/>
<path id="Layer6_7_MEMBER_1_MEMBER_211_1_STROKES" class="st6" d="M132.6,114.8l-0.2,0"/>
<path id="Layer6_7_MEMBER_1_MEMBER_212_1_STROKES" class="st6" d="M163,122.7l-17.9-1.6"/>
<path id="Layer6_7_MEMBER_1_MEMBER_213_1_STROKES" class="st6" d="M147.8,113.5c-0.2,0-0.5,0-1-0.1"/>
<path id="Layer6_7_MEMBER_1_MEMBER_214_1_STROKES" class="st6" d="M163.7,115c-0.1,0-0.5,0-1-0.1"/>
<path id="Layer6_7_MEMBER_1_MEMBER_215_1_STROKES" class="st6" d="M132.4,114.7l8.9,5.1"/>
<path id="Layer6_7_MEMBER_1_MEMBER_216_1_STROKES" class="st6" d="M132.4,114.8l15.1,8.7"/>
<path id="Layer6_7_MEMBER_1_MEMBER_217_1_STROKES" class="st6" d="M131.6,116.8l2.3,1.3"/>
<path id="Layer6_7_MEMBER_1_MEMBER_218_1_STROKES" class="st6" d="M148.2,123.9l-0.7-0.4"/>
<path id="Layer6_7_MEMBER_1_MEMBER_219_1_STROKES" class="st6" d="M141.3,119.8l3.7,1.3"/>
<path id="Layer6_7_MEMBER_1_MEMBER_220_1_STROKES" class="st6" d="M151.4,124.9c-1-0.1-2-0.4-3.2-1"/>
<path id="Layer6_7_MEMBER_1_MEMBER_221_1_STROKES" class="st7" d="M146.2,25.8l1.2-3.2"/>
<path id="Layer6_7_MEMBER_1_MEMBER_222_1_STROKES" class="st7" d="M145.6,27.4l0.3-0.8"/>
<path id="Layer6_7_MEMBER_1_MEMBER_223_1_STROKES" class="st7" d="M144,31.3l1.2-3.2"/>
<path id="Layer6_7_MEMBER_1_MEMBER_224_1_STROKES" class="st7" d="M143,86l-3.2,8.6"/>
<path id="Layer6_7_MEMBER_1_MEMBER_225_1_STROKES" class="st7" d="M141.2,38.6l1.9-5"/>
<path id="Layer6_7_MEMBER_1_MEMBER_226_1_STROKES" class="st7" d="M140.3,41.1l0.5-1.2"/>
<path id="Layer6_7_MEMBER_1_MEMBER_227_1_STROKES" class="st7" d="M143.7,50.7l-5.9-3.4l1.9-5"/>
<path id="Layer6_7_MEMBER_1_MEMBER_228_1_STROKES" class="st7" d="M146.7,52.4l-1.5-0.9"/>
<path id="Layer6_7_MEMBER_1_MEMBER_229_1_STROKES" class="st7" d="M153,59.4l1.1-2.8l-5.9-3.4"/>
<path id="Layer6_7_MEMBER_1_MEMBER_230_1_STROKES" class="st7" d="M152.5,60.8l0.3-0.7"/>
<path id="Layer6_7_MEMBER_1_MEMBER_231_1_STROKES" class="st7" d="M151.2,64.3l1.1-2.8"/>
<path id="Layer6_7_MEMBER_1_MEMBER_232_1_STROKES" class="st7" d="M147.5,74.6l1.9-5"/>
<path id="Layer6_7_MEMBER_1_MEMBER_233_1_STROKES" class="st7" d="M146.6,77l0.5-1.2"/>
<path id="Layer6_7_MEMBER_1_MEMBER_234_1_STROKES" class="st7" d="M144.2,83.3l1.9-5"/>
<path class="st0" d="M68.8,80l-3.6,1.6L52,92.8l13.2,25.9l3.6-1.7v-5.3l16.6,9.3l3.7-1.6v-18.9L68.8,89V80 M69.8,98.2l1.7,1.1l1,7.5
	l1.3-6.2l1.7,0.9l-2.2,8.6l-1.6-0.8l-1.2-8.2l-1.1,6.8L68,107l-2-11l1.5,0.8l1.3,7.7L69.8,98.2 M79.9,103.9l0.3,0.4l1.1,1l0.3,0.4
	l0.5,1.1l0.1,0.6l0.2,0.6v0.5l0.2,0.5v2.9l-0.2,0.3v0.5l-0.2,0.3L82,113l-0.3,0.5l-0.4,0.2h-1.2l-0.5-0.4l-3.2-1.6v-9.9L79.9,103.9
	 M65.7,95.9v1.7L62,95.5v2.2l3.2,1.8v1.7L62,99.3v4.2l-1.5-0.8v-9.8L65.7,95.9 M80.7,106.8l-0.8-1.2l-2-1.3v6.4l1.6,1.1h0.9v-0.2
	l0.4-0.3v-0.6L81,110v-2L80.7,106.8z"/>
<path id="Layer6_7_MEMBER_1_MEMBER_235_MEMBER_1_1_STROKES" class="st8" d="M85.4,102.3L65.2,90.8"/>
<path id="Layer6_7_MEMBER_1_MEMBER_235_MEMBER_2_1_STROKES" class="st8" d="M85.4,102.3v18.8"/>
<path id="Layer6_7_MEMBER_1_MEMBER_235_MEMBER_3_1_STROKES" class="st9" d="M65.2,118.8L52,92.9l13.2-11.2 M89,119.4l-3.7,1.7
	l-20.2-11.3"/>
<path id="Layer6_7_MEMBER_1_MEMBER_235_MEMBER_4_1_STROKES" class="st8" d="M65.2,81.8v9 M65.2,109.8v9"/>
<path id="Layer6_7_MEMBER_1_MEMBER_235_MEMBER_5_1_STROKES" class="st9" d="M89,100.6v18.8"/>
<path id="Layer6_7_MEMBER_1_MEMBER_235_MEMBER_6_1_STROKES" class="st8" d="M89,100.6l-3.7,1.7"/>
<path id="Layer6_7_MEMBER_1_MEMBER_235_MEMBER_7_1_STROKES" class="st9" d="M89,100.6L68.7,89.1"/>
<path id="Layer6_7_MEMBER_1_MEMBER_235_MEMBER_8_1_STROKES" class="st8" d="M68.7,89.1l-3.5,1.7"/>
<path id="Layer6_7_MEMBER_1_MEMBER_235_MEMBER_9_1_STROKES" class="st9" d="M68.7,89.1v-9l-3.5,1.7 M68.7,111.8v5.3l-3.5,1.7"/>
<path id="Layer6_8_MEMBER_1_1_STROKES" class="st10" d="M304.6,116.1h-84V88.3h84V116.1z"/>
<text transform="matrix(1 0 0 1 232.0153 106.979)" class="st11 st12">7321-P22</text>
</svg>
