<?xml version="1.0" encoding="utf-8"?>
<!-- Generator: Adobe Illustrator 24.1.2, SVG Export Plug-In . SVG Version: 6.00 Build 0)  -->
<svg version="1.1" id="Ebene_1" xmlns="http://www.w3.org/2000/svg" xmlns:xlink="http://www.w3.org/1999/xlink" x="0px" y="0px"
	 viewBox="0 0 349.1 161" style="enable-background:new 0 0 349.1 161;" xml:space="preserve">
<style type="text/css">
	.st0{fill:none;stroke:#000000;stroke-width:0.5;stroke-miterlimit:5;}
	.st1{fill:#00CC00;}
	.st2{fill:#0099FF;}
	.st3{fill:none;stroke:#000001;stroke-width:0.2;stroke-miterlimit:9.9999;}
</style>
<path id="Layer5_8_1_STROKES" class="st0" d="M83.1,21.4c0.2,0,0.3-0.1,0.3-0.2"/>
<path class="st1" d="M212.3,42.2l-0.2-0.1l-13.5-3.5l-3.5-0.9l-2.8,0.7l-2.7,2.1l-2,3.3l-1.1,3.9v3.9l1.1,3.3l2.1,2.2l5.1,1.4
	l0.4,0.2l6.3,1.6l0.3,0.2l14,3.6l4.4,1.8l0.3,0.2l0.3,0.1l0.7,0.3l0.2,0.2l0.4,0.1l0.6,0.3l0.3,0.2l2.4,1.3l0.3,0.2l0.3,0.1l0.3,0.3
	l1.1,0.6l0.3,0.2l0.6,0.4l0.3,0.3l0.3,0.1l0.3,0.3l0.3,0.1l0.2,0.3l0.8,0.6l0.2,0.2l0.8,0.6l0.5,0.5l0.4,0.1l0.2,0.3l0.3,0.2
	l0.2,0.2l0.3,0.2l0.5,0.5l0.8,0.5l0.5,0.5l0.2,0.2l0.3,0.3l0.5,0.4l0.5,0.5l0.3,0.1l0.7,0.7l0.3,0.1l1,1l0.2,0.2l1.4,1.4l0.2,0.2
	l1.2,1.2l0.2,0.2l0.7,0.7l0.2,0.2l0.5,0.5l0.1,0.3l0.3,0.2l0.4,0.6l0.9,1l0,0.1l0.4,0.5l0.2,0.2l1.4,1.8l0.6-0.3l0.2,0l4.3-2.6
	l0.2-0.2l0.3-0.1l2.8-2.3l1.5-2.1l2.5-2l0.1-0.1l0.4-0.4l1.5-2.1l0-0.1l0.1,0l0.3-0.4l0.2-0.4l0.2-0.1l0.2-0.3l-3.4-4.4
	c-0.1-0.1-0.2-0.2-0.3-0.4l-0.5-0.4l-0.2-0.4l-0.3-0.3l-0.3-0.4l-0.7-0.7l-0.2-0.3l-1.3-1.3l-0.3-0.3l-2.8-2.8l-0.4-0.3l-0.6-0.6
	l-0.4-0.3l-0.6-0.7l-0.4-0.2l-0.6-0.7l-1.1-0.8l-0.3-0.3l-1.1-0.8l-0.3-0.4l-0.7-0.5l-0.3-0.3l-0.7-0.5l-0.3-0.3l-1.1-0.7l-0.4-0.3
	l-1.9-1.4l-0.2-0.3l-0.3-0.1l-0.4-0.3l-0.3-0.1l-0.2-0.3l-1.5-1.1l-0.3-0.1l-0.4-0.3l-0.6-0.3l-2.2-1.4l-5.2-2.6l-0.7-0.2l-1-0.5
	l-0.4-0.1l-0.7-0.3l-0.3-0.1l-0.4-0.2l-0.3,0l-0.4-0.2l-0.3-0.1l-0.4-0.2l-0.3,0l-0.4-0.2l-0.7-0.2l-0.3-0.1l-0.7-0.2l-0.4-0.2
	l-0.7-0.1L212.3,42.2 M155.1,65.9l-3.8-1.5l-4.3-0.2l-3.8,1.2l-2.5,2.2l-0.8,3v0.3v0l-2.7,21.6L137,93l-0.1,7.3l0.9,6.8l2,6.9
	l3.9,8.4l4,6.4l5.1,6.3l6,5.9l14.5,10.4l2,0.7l1.3-0.9l1.8-2.4l2.8-5.4l2.1-5.4l0.4-2.4l-0.5-0.7l-7.4-4.6l-7.8-7l-6.2-7.7l-3.7-7
	l-1.8-6.7l-0.1-8l1.4-11.2l1.4-11.1l-1.1-3L155.1,65.9z"/>
<path class="st2" d="M152.4,18.9l-1,0.6l-6.4-5.8l-1.4-0.4l-2,0.8l-1.9,1.8l-1.5,2.1l-0.8,2.1l0,0l0.3,1.3l6.7,6l-0.5,1.1l0,1h0
	l-3.2,0.5l0.6,0.5l-0.2,0.4l-2.9,0.4l-3,0.9l-2.6,2l-1.8,2.7L130,40l0.1,1.4l-3.7,0.7l0.3,2.7L114.3,47l0,0.1l1.4,8.3l12.4-2.2v0
	l0.6,2.6l4.9-0.9l3.7,11l2.5,5v-0.3l0.8-3l2.5-2.2l3.8-1.2l4.3,0.2l3.8,1.5l2.7,2.5l1.1,3l-1.4,11.1l6.2-0.2l26.7-3.8l3.1-1.1l2.5-2
	l1.8-2.7l0.8-2.9v0c-0.1-0.7-0.2-1.4-0.3-2.1l-0.1-0.7l-2.7-8.1h0l6,1.5l-0.3-0.2l-6.3-1.6l-0.4-0.2l-5.1-1.4l-2.1-2.2l-1.1-3.3
	v-3.9l1.1-3.9l2-3.3l2.7-2.1l2.8-0.7l3.5,0.9l-3.4-0.9l-2.9,0.7l-2.6,2.1l-0.6-1.3l-1.2-0.9l-0.1-0.4l-7.3-7.1l-4.9-2.8l-5.6-1.4
	l-6.9,0.1l-8.7-7.9h0L152.4,18.9 M190,67l2.5-0.4l0.3,1.2l-0.9,2.7l-2.1,1.9l-2.4,0.4l-0.4-1.2l0.9-2.6L190,67 M141.4,37.1l0.4,1.3
	l-0.4,1.1l-4.9,0.9l0.3-0.9l2.1-1.9L141.4,37.1z"/>
<path id="Layer5_9_MEMBER_1_MEMBER_0_1_STROKES" class="st3" d="M133.7,54.7l3.8,10.9l2.4,5"/>
<path id="Layer5_9_MEMBER_1_MEMBER_1_1_STROKES" class="st3" d="M157.7,82.2l6.2-0.2l26.8-3.8l3-1l2.6-2l1.8-2.7l0.8-3l-0.3-2.9
	l-2.7-8.1"/>
<path id="Layer5_9_MEMBER_1_MEMBER_2_1_STROKES" class="st3" d="M114.3,46.8l1.4,7.8"/>
<path id="Layer5_9_MEMBER_1_MEMBER_3_1_STROKES" class="st3" d="M115.7,54.6l0.2,0.5"/>
<path id="Layer5_9_MEMBER_1_MEMBER_4_1_STROKES" class="st3" d="M154.7,62.7l-0.3-1.9"/>
<path id="Layer5_9_MEMBER_1_MEMBER_5_1_STROKES" class="st3" d="M154.4,60.8l-1.8-1.4l-2.6-0.5l-2.3,0.6l-1.3,1.6"/>
<path id="Layer5_9_MEMBER_1_MEMBER_6_1_STROKES" class="st3" d="M163.3,37.1l2.2-2.6l2.6-1.6h2.4"/>
<path id="Layer5_9_MEMBER_1_MEMBER_7_1_STROKES" class="st3" d="M186,76.3l2.2-0.3"/>
<path id="Layer5_9_MEMBER_1_MEMBER_8_1_STROKES" class="st3" d="M188.1,76l3-1l2.6-2l1.8-2.7l0.8-3l-0.3-2.8"/>
<path id="Layer5_9_MEMBER_1_MEMBER_9_1_STROKES" class="st3" d="M192.2,65.2l0.6,2.3l-0.9,2.6l-2.2,1.9l-2.6,0.4l-2.1-1.1l-0.7-2.4
	l1-2.6l2.2-1.8l2.6-0.5L192.2,65.2z"/>
<path id="Layer5_9_MEMBER_1_MEMBER_10_1_STROKES" class="st3" d="M195.3,62.5l-0.3-0.8v-0.1l-0.3-0.5"/>
<path id="Layer5_9_MEMBER_1_MEMBER_11_1_STROKES" class="st3" d="M184.4,76.3l0.5,0.1h0.2l0.9-0.1"/>
<path id="Layer5_9_MEMBER_1_MEMBER_12_1_STROKES" class="st3" d="M194.7,61.1l-0.6-0.6"/>
<path id="Layer5_9_MEMBER_1_MEMBER_13_1_STROKES" class="st3" d="M183.8,75.7l0.6,0.6"/>
<path id="Layer5_9_MEMBER_1_MEMBER_14_1_STROKES" class="st3" d="M171.5,49.7l1,0.6"/>
<path id="Layer5_9_MEMBER_1_MEMBER_15_1_STROKES" class="st3" d="M140.7,29.7l0.6,0.6"/>
<path id="Layer5_9_MEMBER_1_MEMBER_16_1_STROKES" class="st3" d="M193.1,57.9l0.9,2.6l-2.6-1.4l-3.7-0.1l-3.7,1.7l-2.9,3"/>
<path id="Layer5_9_MEMBER_1_MEMBER_17_1_STROKES" class="st3" d="M181.2,63.7l-1.6,3.7l0.1,3.8l1.6,3l2.6,1.6"/>
<path id="Layer5_9_MEMBER_1_MEMBER_18_1_STROKES" class="st3" d="M183.8,75.7l-4.7,0.7"/>
<path id="Layer5_9_MEMBER_1_MEMBER_19_1_STROKES" class="st3" d="M195.9,64.5l-0.6-2"/>
<path id="Layer5_9_MEMBER_1_MEMBER_20_1_STROKES" class="st3" d="M140.3,30.7l-2.2,0.3"/>
<path id="Layer5_9_MEMBER_1_MEMBER_21_1_STROKES" class="st3" d="M144.7,38.5l0.2-0.4v-3.8l-1.6-3l-2.6-1.6"/>
<path id="Layer5_9_MEMBER_1_MEMBER_22_1_STROKES" class="st3" d="M140.7,29.7l3.2-0.4"/>
<path id="Layer5_9_MEMBER_1_MEMBER_23_1_STROKES" class="st3" d="M138.1,31.1l-2.9,1l-2.6,2l-1.8,2.7l-0.8,3l0.2,1.4"/>
<path id="Layer5_9_MEMBER_1_MEMBER_24_1_STROKES" class="st3" d="M133.7,40.5l-0.2-1l0.8-2.6"/>
<path id="Layer5_9_MEMBER_1_MEMBER_25_1_STROKES" class="st3" d="M134.2,36.9l2.2-1.9l2.6-0.5l2,1.2l0.8,2.4l-0.4,1"/>
<path id="Layer5_9_MEMBER_1_MEMBER_26_1_STROKES" class="st3" d="M141.2,30.5l-0.2,0.1l-0.7,0.2"/>
<path id="Layer5_9_MEMBER_1_MEMBER_27_1_STROKES" class="st3" d="M169,47.3l2.5,2.4"/>
<path id="Layer5_9_MEMBER_1_MEMBER_28_1_STROKES" class="st3" d="M162.5,38.3l0.7-1.2"/>
<path id="Layer5_9_MEMBER_1_MEMBER_29_1_STROKES" class="st3" d="M165.2,41.1l0.2,0.3l2.1,4.1l0.2,0.3l1.3,1.4"/>
<path id="Layer5_9_MEMBER_1_MEMBER_30_1_STROKES" class="st3" d="M179.1,76.4l0.9-0.7"/>
<path id="Layer5_9_MEMBER_1_MEMBER_31_1_STROKES" class="st3" d="M171.8,64.3l-2.6-3.3l-3.6-3.4l-1.9-2.3L159,51l-0.1-1.2l-0.6-2.2
	l-1.1-2.7l-0.2-0.3l-0.7-2.2"/>
<path id="Layer5_9_MEMBER_1_MEMBER_32_1_STROKES" class="st3" d="M180,75.7L158.9,51l-0.1,0.8"/>
<path id="Layer5_9_MEMBER_1_MEMBER_33_1_STROKES" class="st3" d="M158.5,54l19.7,23.1"/>
<path id="Layer5_9_MEMBER_1_MEMBER_34_1_STROKES" class="st3" d="M180,75.7l-8.2-11.3"/>
<path id="Layer5_9_MEMBER_1_MEMBER_35_1_STROKES" class="st3" d="M177.8,76.5L160.5,79"/>
<path id="Layer5_9_MEMBER_1_MEMBER_36_1_STROKES" class="st3" d="M179.1,76.4l-0.9,0.7"/>
<path id="Layer5_9_MEMBER_1_MEMBER_37_1_STROKES" class="st3" d="M136.5,40l0.3-0.9"/>
<path id="Layer5_9_MEMBER_1_MEMBER_38_1_STROKES" class="st3" d="M136.8,39.1l2.2-1.9l2.5-0.4"/>
<path id="Layer5_9_MEMBER_1_MEMBER_39_1_STROKES" class="st3" d="M187.4,72.5l-0.4-1.2l0.9-2.6"/>
<path id="Layer5_9_MEMBER_1_MEMBER_40_1_STROKES" class="st3" d="M187.9,68.6l2.2-1.9l2.5-0.4"/>
<path id="Layer5_9_MEMBER_1_MEMBER_41_1_STROKES" class="st3" d="M155.2,65.7l1-0.6l1.2-2.4l-0.6-2.6l-2.3-2L151,57l-3.5,0.3
	l-2.7,1.4l-1.1,2.4l0.6,2.6l1,0.9"/>
<path id="Layer5_9_MEMBER_1_MEMBER_42_1_STROKES" class="st3" d="M128.9,55.5l-0.2-0.9l-2.2-12.8"/>
<path id="Layer5_9_MEMBER_1_MEMBER_43_1_STROKES" class="st3" d="M149.5,41.3l2.2-2.2"/>
<path id="Layer5_9_MEMBER_1_MEMBER_44_1_STROKES" class="st3" d="M155.4,39.7l-2.2-0.5l-1.5-0.1l1.6-0.4"/>
<path id="Layer5_9_MEMBER_1_MEMBER_45_1_STROKES" class="st3" d="M156.3,42.2l-0.9-2.5l-2.1-1"/>
<path id="Layer5_9_MEMBER_1_MEMBER_46_1_STROKES" class="st3" d="M151.7,39.1l-0.2-1.7"/>
<path id="Layer5_9_MEMBER_1_MEMBER_47_1_STROKES" class="st3" d="M153.3,38.7l-1.8-1.3"/>
<path id="Layer5_9_MEMBER_1_MEMBER_48_1_STROKES" class="st3" d="M151.5,37.5l-2.8,0.3"/>
<path id="Layer5_9_MEMBER_1_MEMBER_49_1_STROKES" class="st3" d="M145.1,49.1l0.9-2.8l0.5-1l3-4.1"/>
<path id="Layer5_9_MEMBER_1_MEMBER_50_1_STROKES" class="st3" d="M189.8,40.3l-0.6-1.4l-2.1-1.5l-2.6-0.1l-2.5,1.6l-1.9,2.7"/>
<path id="Layer5_9_MEMBER_1_MEMBER_51_1_STROKES" class="st3" d="M180.2,41.6l-1,3.5l0.1,3.4l1.2,2.8l2,1.6h2.6l1.8-1.1"/>
<path id="Layer5_9_MEMBER_1_MEMBER_52_1_STROKES" class="st3" d="M143.9,30.3v-2.2l1.2-2.7l2.1-2.9"/>
<path id="Layer5_9_MEMBER_1_MEMBER_53_1_STROKES" class="st3" d="M147.2,22.6l2.6-2.4l2.6-1.4l2.2-0.2"/>
<path id="Layer5_9_MEMBER_1_MEMBER_54_1_STROKES" class="st3" d="M160.5,79l-2.4,0.1"/>
<path id="Layer5_9_MEMBER_1_MEMBER_55_1_STROKES" class="st3" d="M162.2,38.1l-3.1-2.8"/>
<path id="Layer5_9_MEMBER_1_MEMBER_56_1_STROKES" class="st3" d="M158.1,34.9l1,0.4"/>
<path id="Layer5_9_MEMBER_1_MEMBER_57_1_STROKES" class="st3" d="M188.1,38.1l-0.2-0.4l-3.8-4.2"/>
<path id="Layer5_9_MEMBER_1_MEMBER_58_1_STROKES" class="st3" d="M145,13.4l-1.3-0.3l-1.9,0.8l-2,1.7l-1.6,2.2l-0.7,2.1l0.3,1.4"/>
<path id="Layer5_9_MEMBER_1_MEMBER_59_1_STROKES" class="st3" d="M185.4,39.9l-2,0.8l-1.5,2"/>
<path id="Layer5_9_MEMBER_1_MEMBER_60_1_STROKES" class="st3" d="M181.9,42.7l-0.8,2.6l0.2,2.6l1.1,1.8l1.8,0.6"/>
<path id="Layer5_9_MEMBER_1_MEMBER_61_1_STROKES" class="st3" d="M151.5,19.3l-6.6-5.9"/>
<path id="Layer5_9_MEMBER_1_MEMBER_62_1_STROKES" class="st3" d="M144.4,27.1l-6.6-6"/>
<path id="Layer5_9_MEMBER_1_MEMBER_63_1_STROKES" class="st3" d="M180.7,30.5l3.4,3"/>
<path id="Layer5_9_MEMBER_1_MEMBER_64_1_STROKES" class="st3" d="M170.4,32.9l-15.8-14.4"/>
<path id="Layer5_9_MEMBER_1_MEMBER_65_1_STROKES" class="st3" d="M143.9,30.3l5.3,5"/>
<path id="Layer5_9_MEMBER_1_MEMBER_66_1_STROKES" class="st3" d="M162.2,38.1l0.9,0.6"/>
<path id="Layer5_9_MEMBER_1_MEMBER_67_1_STROKES" class="st3" d="M165.2,41.1l-0.5-0.6l-1.6-1.8"/>
<path id="Layer5_9_MEMBER_1_MEMBER_68_1_STROKES" class="st3" d="M158.1,34.9l-2.9-1"/>
<path id="Layer5_9_MEMBER_1_MEMBER_69_1_STROKES" class="st3" d="M155.2,33.9l-3.4,0.2"/>
<path id="Layer5_9_MEMBER_1_MEMBER_70_1_STROKES" class="st3" d="M151.8,34.1l-3.2,1.4"/>
<path id="Layer5_9_MEMBER_1_MEMBER_71_1_STROKES" class="st3" d="M148.6,35.5l-0.4,0.2l-2.5,2.1"/>
<path id="Layer5_9_MEMBER_1_MEMBER_72_1_STROKES" class="st3" d="M145.8,37.8l-0.5,0.6"/>
<path id="Layer5_9_MEMBER_1_MEMBER_73_1_STROKES" class="st3" d="M128.3,52.9l-12.5,2.2"/>
<path id="Layer5_9_MEMBER_1_MEMBER_74_1_STROKES" class="st3" d="M126.8,44.6l-12.5,2.2"/>
<path id="Layer5_9_MEMBER_1_MEMBER_75_1_STROKES" class="st3" d="M170.4,32.9l16.7,4.5"/>
<path id="Layer5_9_MEMBER_1_MEMBER_76_1_STROKES" class="st3" d="M172.4,50.3l10,2.6"/>
<path id="Layer5_9_MEMBER_1_MEMBER_77_1_STROKES" class="st3" d="M185.4,39.9l3.9,1"/>
<path id="Layer5_9_MEMBER_1_MEMBER_78_1_STROKES" class="st3" d="M184.2,50.3l2.4,0.6"/>
<path id="Layer5_9_MEMBER_1_MEMBER_79_1_STROKES" class="st3" d="M128.9,55.5l15.7-2.8"/>
<path id="Layer5_9_MEMBER_1_MEMBER_80_1_STROKES" class="st3" d="M126.4,41.9l22.1-4"/>
<path id="Layer5_9_MEMBER_1_MEMBER_81_1_STROKES" class="st3" d="M143.7,61.1l1.4-12"/>
<path id="Layer5_9_MEMBER_1_MEMBER_82_1_STROKES" class="st3" d="M154.7,62.7l-0.3,2.6"/>
<path id="Layer5_9_MEMBER_1_MEMBER_83_1_STROKES" class="st3" d="M157.4,62.7l1.4-10.9"/>
<path id="Layer5_9_MEMBER_1_MEMBER_84_1_STROKES" class="st3" d="M146.4,61.1l-0.4,3.2"/>
<path id="Layer5_9_MEMBER_1_MEMBER_85_1_STROKES" class="st3" d="M185.6,37l-1.1-2.4l-3.8-4.1l-4.9-2.8l-5.7-1.4l-6.2,0.2l-0.6,0.1"
	/>
<path id="Layer5_9_MEMBER_1_MEMBER_86_1_STROKES" class="st3" d="M159,71.2l-2.8,22.4l0.1,7.9l1.8,6.7l3.7,7l6.2,7.7l7.8,7l7.4,4.6
	l0.5,0.7l-0.3,2.3L182,141l-3.7,7.4l-1.8,2.5l-1.2,0.9l-1.8-0.6l-0.6-0.3l-7.4-4.9l-6.7-5.4l-5.9-5.8l-5.1-6.2l-4-6.5l-3.8-8.4
	l-2-6.9L137,100l0.2-7.3l2.8-22.4l0.8-3l2.6-2.2L147,64l4.3,0.2l3.8,1.5l2.7,2.5L159,71.2z"/>
<path id="Layer5_9_MEMBER_1_MEMBER_87_1_STROKES" class="st3" d="M242.8,55.2l0.3,0.3l1.1,0.7l0.3,0.3l0.7,0.5l0.3,0.3l0.7,0.5
	l0.3,0.3l1,0.8l0.3,0.3l1,0.8l0.6,0.6L250,61l0.6,0.6l0.3,0.2l0.6,0.6l0.3,0.2l1.6,1.6l0.3,0.2l1,1l0.2,0.3l1.3,1.3l0.2,0.3l0.6,0.6
	l0.2,0.4l0.3,0.3l0.2,0.3l0.6,0.6l0.8,1l0.3,0.3l2.4,3.1l-0.2,0.3l-0.2,0.2l-0.2,0.2l-0.2,0.3l-0.2,0.2l-0.2,0.2l-0.2,0.3l-0.2,0.2
	l-0.2,0.2l-0.2,0.2l-0.6,0.8l-0.5,0.5l-0.2,0.2l-0.5,0.5l-0.2,0.2l-1.2,1.2l-0.2,0.2l-0.5,0.5l-0.2,0.2l-0.7,0.7l-0.2,0.2l-0.5,0.5
	l-0.6,0.4l-0.2,0.2l-0.2,0.2l-0.2,0.2l-0.8,0.6l-0.2,0.2l-0.2,0.2l-0.3,0.2l-0.2,0.2l-0.2,0.2l-0.3,0.2l-0.2,0.2l-0.3,0.2l-0.5,0.3
	l-0.3,0.2l-0.8,0.6l-0.3,0.2l-0.2,0.2l-0.6,0.3l-0.2,0.2l-0.3,0.1l-0.2,0.2l-0.3,0.2l-0.6-0.8l-0.2-0.2l-0.6-0.8l-0.5-0.5l-0.2-0.3
	l-0.2-0.2l-0.2-0.2l-0.5-0.5l-0.4-0.6l-0.2-0.2l-0.2-0.2l-0.5-0.5l-0.2-0.2l-0.7-0.7l-0.2-0.2l-1.2-1.2l-0.2-0.2l-1.4-1.4l-0.2-0.2
	l-1-1l-0.2-0.2l-0.7-0.7l-0.2-0.2l-0.5-0.5l-0.6-0.4l-0.2-0.2l-0.2-0.2l-0.5-0.5l-0.8-0.6l-0.5-0.5l-0.3-0.2l-0.2-0.2l-0.2-0.2
	l-0.2-0.2l-0.3-0.2l-0.5-0.5l-0.8-0.6l-0.2-0.2l-0.8-0.6l-0.2-0.2l-0.3-0.2l-0.2-0.2l-0.3-0.2l-0.2-0.2l-0.3-0.2l-1-0.7l-0.6-0.3
	l-0.2-0.2l-0.3-0.2l-0.2-0.2l-0.6-0.3l-0.2-0.2l-0.3-0.2l-0.2-0.2l-1-0.5l-0.2-0.2l-0.6-0.3l-0.3-0.1l-0.2-0.2l-0.6-0.3l-0.3-0.1
	l-0.2-0.2l-0.3-0.2l-0.3-0.1l-0.3-0.2l-0.3-0.1l-0.3-0.2l-0.3-0.1l-0.3-0.2l-0.2-0.1l-0.3-0.2l-0.3-0.1l-0.3-0.2l-0.6-0.2l-0.3-0.2
	l-1.3-0.3l-0.3-0.2l-12.4-3.2l-0.3-0.2l-6.2-1.6l-0.4-0.2l-5.1-1.4l-2.1-2.2l-1-3.3v-3.9l1.1-3.9l2-3.3l2.7-2.2l2.8-0.7l3.8,0.9
	l1.6,0.5l0.4,0.1l11,2.9l0.4,0.2l8.6,2.3l0.7,0.2l0.4,0.2l0.7,0.2l0.3,0.2l0.7,0.2l0.3,0.2l0.3,0.1l0.4,0.2l0.3,0.1l0.3,0.2l0.3,0.1
	l0.4,0.2l0.3,0.1l0.6,0.3l0.4,0.1l1,0.5l0.3,0.1l0.4,0.2l5.2,2.6l0.3,0.2l0.6,0.3l0.3,0.2l0.3,0.2l0.6,0.4l0.6,0.3l0.3,0.2l0.3,0.2
	l0.9,0.6l0.3,0.2l0.3,0.2l0.2,0.2l0.3,0.2l0.3,0.2l0.3,0.2l0.2,0.2l1.5,1.1L242.8,55.2z"/>
</svg>
