<?xml version="1.0" encoding="utf-8"?>
<!-- Generator: Adobe Illustrator 24.1.2, SVG Export Plug-In . SVG Version: 6.00 Build 0)  -->
<svg version="1.1" id="Ebene_1" xmlns="http://www.w3.org/2000/svg" xmlns:xlink="http://www.w3.org/1999/xlink" x="0px" y="0px"
	 viewBox="0 0 349.1 161" style="enable-background:new 0 0 349.1 161;" xml:space="preserve">
<style type="text/css">
	.st0{fill:#0099FF;}
	.st1{fill:#FB0219;}
	.st2{fill:none;stroke:#000000;stroke-width:0.55;stroke-miterlimit:5;}
	.st3{fill:#39ACE0;}
	.st4{fill:none;stroke:#000000;stroke-width:0.55;stroke-miterlimit:60;}
	.st5{fill:none;stroke:#000000;stroke-width:0.25;stroke-miterlimit:5;}
	.st6{fill:#FF9900;}
	.st7{fill:#CCCCCC;}
	.st8{fill:#999999;}
	.st9{fill:none;stroke:#000000;stroke-width:0.55;stroke-miterlimit:4.9999;}
	.st10{fill:none;stroke:#000000;stroke-width:0.25;stroke-miterlimit:4.9999;}
	.st11{fill:none;stroke:#FFFFFF;stroke-miterlimit:5;}
	.st12{fill:none;stroke:#FF9900;stroke-linecap:round;stroke-linejoin:round;}
	.st13{font-family:'ArialMT';}
	.st14{font-size:14px;}
</style>
<path class="st0" d="M277.3,43.2C277.3,43.2,277.2,43.2,277.3,43.2l-3.9-5.7c-0.3-0.3-0.6-0.6-1.1-0.7c-0.4-0.1-0.8-0.1-1.2,0.2
	l-21.4,12.4c-0.4,0.2-0.7,0.5-0.7,1c-0.1,0.4,0,0.8,0.2,1.2h0l3.9,5.6c0.3,0.3,0.6,0.6,1.1,0.7c0.5,0.1,0.9,0,1.3-0.2l21.4-12.4
	c0.4-0.2,0.7-0.5,0.7-1C277.6,43.9,277.5,43.6,277.3,43.2 M273.5,39.2c-0.1,0.1-0.2,0-0.3,0c-0.1-0.1,0-0.2,0-0.2
	c0.1-0.1,0.2-0.1,0.3,0C273.6,39,273.6,39.1,273.5,39.2 M275.9,42.7c0.1-0.1,0.2,0,0.3,0c0.1,0.1,0.1,0.2,0,0.3
	c-0.1,0.1-0.2,0-0.3,0C275.8,42.9,275.8,42.8,275.9,42.7 M275.5,45.6L275.5,45.6c-0.1,0-0.2,0-0.3,0c-0.1-0.1-0.1-0.2,0-0.3
	c0.1-0.1,0.2,0,0.3,0C275.6,45.4,275.6,45.5,275.5,45.6 M270.2,38.4c-0.1-0.1-0.1-0.2,0-0.3c0.1-0.1,0.2,0,0.3,0
	c0.1,0.1,0.1,0.1,0,0.2C270.4,38.5,270.3,38.5,270.2,38.4 M265.7,41.1c-0.1,0.1-0.2,0.1-0.3,0c-0.1-0.1,0-0.2,0-0.3
	c0.1-0.1,0.2-0.1,0.3,0C265.9,40.9,265.8,41,265.7,41.1 M270.5,48.3c-0.1-0.1-0.1-0.2,0-0.3c0.1-0.1,0.2,0,0.3,0
	c0.1,0.1,0,0.2,0,0.3C270.7,48.4,270.6,48.4,270.5,48.3 M266,51.1c-0.1,0.1-0.2,0-0.3,0c-0.1-0.1,0-0.2,0-0.3c0.1-0.1,0.2,0,0.3,0
	C266.1,50.9,266.1,51,266,51.1 M264.7,47.5c0.4,0.6,0.3,1.1-0.3,1.4c-0.6,0.3-1.1,0.2-1.5-0.3l-1.1-1.6c0,0,0-0.1,0-0.1
	c-0.4-0.6-0.3-1,0.3-1.4c0.7-0.3,1.2-0.2,1.6,0.4L264.7,47.5 M260.8,43.6c0.1-0.1,0.2-0.1,0.3,0c0.1,0.1,0.1,0.2,0,0.3
	c-0.1,0.1-0.2,0-0.3,0C260.7,43.7,260.7,43.6,260.8,43.6 M251.6,49.3c-0.1,0.1-0.2,0-0.3,0c-0.1-0.1-0.1-0.2,0-0.3
	c0.1-0.1,0.2,0,0.3,0C251.7,49.1,251.7,49.2,251.6,49.3 M250.5,52.3c-0.1-0.1-0.1-0.2,0-0.3c0.1-0.1,0.2,0,0.3,0
	c0.1,0.1,0.1,0.2,0,0.2C250.7,52.4,250.6,52.4,250.5,52.3 M253.2,56.1c-0.1-0.1-0.1-0.2,0-0.3c0.1-0.1,0.2-0.1,0.3,0
	c0.1,0.1,0.1,0.1,0,0.2C253.3,56.2,253.2,56.2,253.2,56.1 M256.6,51.5c-0.1-0.1-0.1-0.2,0-0.3c0.1-0.1,0.2-0.1,0.3,0
	c0.1,0.1,0,0.2,0,0.3C256.8,51.6,256.7,51.6,256.6,51.5 M256.3,46.3c0.1,0.1,0.1,0.2,0,0.3c-0.1,0.1-0.2,0-0.3,0
	c-0.1-0.1-0.1-0.2,0-0.2C256.1,46.2,256.2,46.2,256.3,46.3 M256.6,56.2c0.1,0.1,0.1,0.2,0,0.3c-0.1,0.1-0.2,0.1-0.3,0
	c-0.1-0.1,0-0.2,0-0.3C256.5,56.2,256.5,56.2,256.6,56.2 M261.3,53.6c0.1,0.1,0.1,0.2,0,0.2c-0.1,0.1-0.2,0.1-0.3,0
	c-0.1-0.1,0-0.2,0-0.3C261.2,53.5,261.3,53.5,261.3,53.6z"/>
<path class="st1" d="M83.9,48.5l4.6-2.7l-2.1-1.3l-4.6,2.7L83.9,48.5z"/>
<path id="Layer0_8_MEMBER_1_1_STROKES" class="st2" d="M93.7,17.6l-7.3,4.3c-0.1,0.1-0.2,0.2-0.3,0.3c-0.1,0.1-0.1,0.2-0.2,0.3
	c-0.2,0.7-0.2,1.3,0.2,1.9c0.9,0.9,1.9,1.7,2.8,2.5c0.7,0.6,1.5,1.2,2.2,1.8c2.9,2.3,5.9,4.3,9,6.1c1.1,0.6,2.2,1.2,3.3,1.8
	c3.1,1.6,6.3,2.9,9.6,4c0.3,0.1,0.6,0.2,1,0.4l0.1-0.1c0-0.1-0.1-0.1-0.1-0.2 M88.9,26.8v2.6l2.1,1.2l0.1-2 M91,30.6l9,5.2l0.1-1.1
	 M95.3,36.7v-1.4L94,34.6V36L95.3,36.7z M88.9,40.8c0.1,0.6-0.1,1.2-0.5,1.9c-0.3,0.6-0.7,1.1-1.2,1.4l-0.8,0.5l2.1,1.3l0.9-0.5
	c0.5-0.3,0.9-0.7,1.2-1.3l14.7,8.5c0,0,0-0.1,0.1-0.1c0.4-0.7,0.5-1.3,0.5-1.9L88.9,40.8L88.9,40.8z M88.5,45.8l-3,1.7l14.7,8.5
	l3.9-2.2c0.5-0.3,0.9-0.7,1.2-1.3 M85.5,47.6l-1.6,0.9l-1.4,0.8c-0.3,0.2-0.5,0.2-0.7,0.2h-0.3l-0.1,0l-0.1,0l-0.1,0l10.6,6.1
	l4.1,2.4c0.3,0.2,0.7,0.1,1.3-0.1l3.1-1.8l20.3,11.7l3.1-1.8l0.3-0.2c0.4-0.3,0.8-0.7,1.1-1.3c0.4-0.7,0.5-1.3,0.5-1.9
	c-1.6-1.3-3.4-2.6-5.4-3.9l-7-4l-7.2-4.2 M113.1,40.5v1.8l0.3,0.2l0.1,0h0.1l0,0h0l0,0v0h0l0.5-1.3V41c0,0,0-0.1-0.1-0.1l1.3-0.9
	l7.2-4.8 M115.5,40l0.8,0.6c0,0,0.1,0,0.1,0.1c3,2.4,5.7,5,8.3,7.8c0,0,0,0,0,0l0,0c1.6,1.8,3.1,3.6,4.5,5.6c0.3,0.5,0.5,1,0.6,1.5
	c0.3,2.7,1,5.3,2.1,7.8c0.4,0.8,0.8,1.6,1.2,2.4c0.8,1.4,1.9,2.7,3.1,3.8v0l0.1,0.1l0,0l0,0l0,0v0c0.1,0.1,0.1,0.3,0.1,0.4
	c0,0.1,0,0.1,0,0.2c0.1,1.2,0.1,2.3,0,3.2c0,0.3-0.1,0.5-0.3,0.6c-0.2,0.1-0.3,0.1-0.5,0.1c0,0-0.1,0-0.1,0
	c-2.6-0.3-5.1-0.7-7.6-1.3c-0.1,0-0.2,0-0.3-0.1c-1.9-0.5-3.7-1-5.6-1.6c-4.5-1.5-8.7-3.4-12.8-5.7L95.8,58 M103.5,36.5v1.1
	 M100.8,36.3l-0.1-0.1V38l1.8,1l0.1-1.8l1.1,0.6l0.1,0.1l9.3,6.6v-2.3 M113,54.6l0-10.1l6.3,4.5c2.2,1.6,4.2,3.4,6,5.3 M100.7,36.2
	l-0.7-0.4 M88.9,29.4v11.3 M124.1,50.5c0,0,0,0.1,0,0.1c0,0.3,0.1,0.5,0.4,0.8l0,0l0.9,1v-1.9l-0.8-1c-0.1-0.2-0.3-0.2-0.4-0.2
	c-0.1,0-0.1,0.1-0.2,0.3c0,0,0,0.1,0,0.1c0,0,0,0,0,0l0,0.8 M125.5,52.5L125.5,52.5l0,1.9 M124.7,48.5c0.4,0.5,0.7,1.2,0.7,2
	 M57.9,11.3c-2-0.7-4-1.3-5.9-1.7c-1.6-0.2-3.1-0.3-4.7-0.1c-1.1,0.1-1.9,0.6-2.4,1.5c-0.5,0.9-0.6,1.8-0.2,2.8
	c0.6,1.5,1.5,2.8,2.4,3.9c1.4,1.5,2.8,2.9,4.2,4.1c0.1,0.1,0.2,0.2,0.3,0.2c0,0,0.1,0.1,0.1,0.1c0,0,0.1,0.1,0.1,0.1
	c0.9,0.7,2.1,0.6,3.5-0.2c1.4-0.9,2.5-2,3.1-3.4c0.7-1.2,1.1-2.5,1.2-3.9c0.1-1.7-0.4-2.8-1.5-3.3c0,0-0.1,0-0.1,0
	C58,11.3,57.9,11.3,57.9,11.3z M57.9,11.3l5.6,0.9l0.1,0c0,0,0.1,0,0.1,0c0.1,0,0.1,0,0.2,0.1c1.6,0.4,3.1,1,4.5,1.6l6.4,3l0.3,0.2
	l10.9,5.1 M63.9,12.3c0.4,0.1,0.8,0.4,1.1,0.8c0.3,0.4,0.5,1,0.6,1.7l0,5.8c0,0.4-0.1,0.9-0.1,1.4c0,0.1,0,0.2-0.1,0.3
	c0,0.4-0.1,0.8-0.1,1.2c1,0.8,2.1,1.5,3.1,2c0.8,0.5,1.4,0.9,2,1.3l0,0l6,4.8l0.1,0v-9.3v-2.8c-0.1-1.2-0.5-2-1.3-2.4 M65.3,23.5
	c0,0.4,0,0.7,0.1,1.1 M63.1,31.9c0.8-0.5,1.5-1.3,2.1-2.3c0.4-0.7,0.5-1.4,0.5-2v0c0-0.4-0.1-1-0.2-1.7v0 M65.5,25.8l-0.2-1.3
	 M63.7,12.2c-0.1,0-0.1,0-0.2,0 M65.4,21c-1.5-0.7-3-1.2-4.6-1.4c-0.2-0.1-0.5-0.1-0.8,0c-0.2,0.1-0.4,0.3-0.6,0.5
	c-0.7,1-1.6,1.8-2.5,2.5c-1.1,0.8-2.2,1.1-3.2,1l-0.2,0h0l0,0h-0.1l0,0h0l0,0c-0.2,0.1-0.3,0.2-0.4,0.4c0.1,0.3,0.3,0.6,0.4,0.9
	 M51.5,22c0.1,0.1,0.2,0.2,0.3,0.2c0.5,0.5,0.9,1.1,1.3,1.7 M51.6,30c-0.2-0.5-0.2-1-0.2-1.6c0-0.5,0.1-0.9,0.4-1.4
	c0.3-0.5,0.6-0.8,1-1.1l5.3-3c0,0,0,0,0,0c0.4-0.1,0.7-0.1,0.9,0c0.7,0.4,1.5,0.5,2.4,0.4 M59.6,26c-0.1,0.4-0.4,0.8-0.7,1.2
	c-0.3,0.4-0.6,0.7-1,0.9l-4.7,2.7c-0.6,0.2-1.1,0.1-1.4-0.3c0.4,0.9,0.9,1.7,1.6,2.4c0.8,0.8,1.6,1.5,2.6,2c0,0,0,0,0,0c0,0,0,0,0,0
	l0,0c0.6,0.3,1.3,0.2,2.1-0.2l4.9-2.9 M51.8,30.5c-0.1-0.1-0.1-0.2-0.2-0.4 M52,29.6c0.3,0.3,0.7,0.4,1.2,0.1c0,0,0,0,0,0l3.9-2.3
	 M57.1,27.4c0.6-0.3,1-1,1.3-1.9c0.3-1,0.1-1.6-0.5-1.9c-0.2-0.1-0.5-0.1-0.8,0.1 M50.1,43.4l10.2-6L56.1,35 M83.9,48.5l-2.1-1.3
	l-1.5,0.8c-0.5,0.3-0.9,0.3-1.3,0.1l2.1,1.2 M79,48.2L60.2,37.4 M125.4,54.4c1.7,1.8,3.1,3.8,4.1,6c0.6,1.5,1.4,3.1,2.3,4.8l0-1.8
	 M127.8,73c0.4,0,0.8-0.1,1.2-0.3l-8.6-5l-2.6,1.5c-0.2,0.1-0.4,0.2-0.6,0.2H117l-0.2,0 M131.8,65.2c0.2,0.4,0.4,0.8,0.7,1.2
	c0.1,0.1,0.2,0.3,0.2,0.4c0.3,0.5,0.8,1.1,1.3,1.6l0.1-0.1 M136.5,70.5c-1-0.8-1.8-1.4-2.2-1.9c-0.1-0.1-0.2-0.2-0.3-0.2l-2,1.9
	c-0.3,0.3-0.6,0.6-0.9,1c0,0,0,0,0,0c-0.3,0.4-0.7,0.7-1.2,0.9l-0.8,0.5c0,0-0.1,0-0.1,0.1 M88.9,29.4l-12.5-7.2 M86.4,44.6
	l-4.7,2.7 M76.5,31.5l12.3,9.3 M82,62.1l9.7-6.5"/>
<path class="st3" d="M269.9,22l-0.7-1l-8,4.6l-3,3.3l2,2.9l8.2-4.8l2.4-2.4l-0.1-0.3l1.8-0.8l-1.2-1.8L269.9,22z"/>
<path id="Layer0_9_MEMBER_0_MEMBER_1_MEMBER_0_1_STROKES" class="st2" d="M286.3,1.2c0.1,2.7-0.7,4.1-1.9,6.2
	c-1.8,3.4-4.6,5.7-7.3,7.3l-3.9,2.3l11.1,6.4l4-2.3c1.3-0.7,2.4-1.7,3.6-2.9c1-1.1,1.9-2.3,2.7-3.6 M273.2,17l-5.4,3.1 M304.3,20.1
	l-9.7-5.6 M291.1,0.9l13.6,10.5 M267.9,37.5l-4-2.3l-1.9,1.1 M237.4,38.9l5.7,8.3l14.3-8.2 M218.2,45.8c0.9,0.5,2,0.7,3.3,0.5
	c1-0.2,2.1-0.6,3.1-1.2l7.5-4.3l4.3-2.5 M229.1,52.1c1,0.6,2.1,0.8,3.3,0.6c1.1-0.2,2.1-0.6,3.2-1.2l7.5-4.3l-11.1-6.4 M212.7,42.7
	l35,20.3 M284.3,23.5l-20.3,11.7 M236.8,38l30.4-17.6"/>
<path id="Layer0_9_MEMBER_0_MEMBER_1_MEMBER_1_1_STROKES" class="st2" d="M267.3,20.4l0.3,0.2l0.1,0.1c0.2,0.1,0.3,0.1,0.4,0
	c0,0,0,0,0,0l0.4-0.2c-0.1,0.1-0.2,0-0.4,0c0,0-0.1,0-0.1-0.1l-0.3-0.2 M268.8,19.8c0.1,0.3,0,0.5-0.1,0.6c0,0,0,0-0.1,0.1l0,0h0
	 M236.9,38l0.3,0.2c0,0,0.1,0,0.1,0.1c0.2,0.1,0.3,0.1,0.4,0c0,0,0.1,0,0.1,0c0.1-0.1,0.1-0.1,0.1-0.3v-0.1l0,0v-0.1l0-0.1v-0.1
	l0-0.1 M236.4,38.3l0.3,0.2l0.1,0.1c0.2,0.1,0.3,0.1,0.4,0l0,0c0,0,0,0,0,0l0.4-0.2"/>
<path id="Layer0_9_MEMBER_0_MEMBER_1_MEMBER_2_1_STROKES" class="st4" d="M272,21.3c0.1-0.1,0.1-0.2,0-0.2c-0.1-0.1-0.2-0.1-0.3,0
	c-0.1,0.1-0.1,0.2,0,0.3C271.8,21.4,271.9,21.4,272,21.3z M274.7,24.9c-0.1-0.1-0.2-0.1-0.3,0c-0.1,0.1-0.1,0.2,0,0.3
	c0.1,0.1,0.2,0.1,0.3,0C274.7,25,274.7,24.9,274.7,24.9z M263.9,32.3l9.5-5.5l0.2-0.1l0.1-0.1l0.1-0.2l0.1-0.2c0-0.1,0-0.3,0-0.4
	c0-0.2-0.1-0.3-0.2-0.4l-2.8-4.1c-0.2-0.3-0.4-0.4-0.8-0.5c-0.3-0.1-0.6,0-0.9,0.1l-19.4,11.2c-0.3,0.2-0.4,0.4-0.5,0.7
	c-0.1,0.3,0,0.6,0.2,0.8l2.8,4.1c0.2,0.3,0.4,0.4,0.8,0.5c0.3,0.1,0.7,0,0.9-0.2l8.4-4.8 M269.9,25l-0.3,0.1l-0.3-0.1l-1.2-1.7
	l0-0.3l0.9-0.9l0.2-0.1l0.3,0.1 M265.6,24.6l0.8-0.5l0,0l2.8-3l0.4,0.5 M268.1,23.3l0.3-0.1l0-0.3l-0.3,0.1 M268.3,22.8l0.8-0.9
	 M269.7,24.2c-0.3,0-0.5-0.2-0.7-0.6c-0.2-0.3-0.2-0.6-0.1-0.9 M269.9,25l-0.3-0.1l-0.3,0.1 M264.7,29.1l3.7-2.1l-2-2.8 M266.1,23.2
	c-0.4,0.5-0.6,0.8-0.8,1c-0.3,0.4-0.5,0.8-0.6,1.2c-0.2,0.7-0.5,1.8-0.7,3.3c-0.2,1.5-0.5,2.6-0.7,3.3c-0.5,1.4-0.7,2.2-0.8,2.2
	c-0.3,0.7-0.7,1.4-1.2,2c-0.5,0.6-1.5,1.4-2.9,2.4c-1.4,1-2.4,1.7-2.8,2.3c-0.8,1-1,2.5-0.6,4.4 M269.6,24.9l-1.2-1.7 M269.2,30.5
	c0.1-0.1,0.1-0.2,0-0.2c-0.1-0.1-0.2-0.1-0.3,0c-0.1,0.1-0.1,0.2,0,0.3C269.1,30.5,269.2,30.5,269.2,30.5z M274,27.7
	c0.1-0.1,0.1-0.2,0-0.3c-0.1-0.1-0.2-0.1-0.3,0c-0.1,0.1-0.1,0.2,0,0.2C273.8,27.8,273.9,27.8,274,27.7z M270.7,24.4l-2.3,2.5
	 M270.4,24.4l-0.5,0.6 M277.3,42.7l-3.9-5.6c-0.2-0.4-0.6-0.6-1-0.7c-0.5-0.1-0.9,0-1.2,0.2c0,0,0,0,0,0l-21.4,12.4
	c-0.4,0.2-0.6,0.5-0.7,1c-0.1,0.4,0,0.8,0.2,1.1c0,0,0,0,0,0l3.9,5.6c0.2,0.4,0.6,0.6,1.1,0.7c0.5,0.1,0.9,0,1.3-0.2l21.4-12.3
	c0.4-0.2,0.6-0.5,0.7-1C277.7,43.4,277.6,43,277.3,42.7C277.3,42.7,277.3,42.7,277.3,42.7z M276.2,42.5c0.1-0.1,0.1-0.2,0-0.2
	c-0.1-0.1-0.2-0.1-0.3,0c-0.1,0.1-0.1,0.2,0,0.2C276.1,42.6,276.1,42.6,276.2,42.5z M270.3,37.6c-0.1,0.1-0.1,0.2,0,0.2
	c0.1,0.1,0.2,0.1,0.3,0c0.1-0.1,0.1-0.2,0-0.2C270.5,37.5,270.4,37.5,270.3,37.6z M273.6,38.4c-0.1-0.1-0.2-0.1-0.3,0
	c-0.1,0.1-0.1,0.2,0,0.2c0.1,0.1,0.2,0.1,0.3,0C273.7,38.6,273.7,38.5,273.6,38.4z M265.6,40.3c-0.1,0.1-0.1,0.2,0,0.3
	c0.1,0.1,0.2,0.1,0.3,0c0.1-0.1,0.1-0.2,0-0.3C265.8,40.3,265.7,40.3,265.6,40.3z M275.6,45.1c0.1-0.1,0.1-0.2,0-0.2
	c-0.1-0.1-0.2-0.1-0.3,0c-0.1,0.1-0.1,0.2,0,0.3C275.4,45.2,275.5,45.2,275.6,45.1z M270.9,47.8c0.1-0.1,0.1-0.2,0-0.3
	c-0.1-0.1-0.2-0.1-0.3,0c-0.1,0.1-0.1,0.2,0,0.2C270.7,47.9,270.8,47.9,270.9,47.8z M266.1,50.6c0.1-0.1,0.1-0.2,0-0.3
	c-0.1-0.1-0.2-0.1-0.3,0c-0.1,0.1-0.1,0.2,0,0.2C266,50.6,266,50.6,266.1,50.6z M250.1,31.4c0.1-0.1,0.1-0.2,0-0.2
	c-0.1-0.1-0.2-0.1-0.3,0c-0.1,0.1-0.1,0.2,0,0.3C249.9,31.5,250,31.5,250.1,31.4z M264.2,23.2c0.1-0.1,0.1-0.2,0-0.3
	c-0.1-0.1-0.2-0.1-0.3,0c-0.1,0.1-0.1,0.2,0,0.2C264.1,23.3,264.1,23.3,264.2,23.2z M259.5,25.7c-0.1-0.1-0.2-0.1-0.3,0
	c-0.1,0.1-0.1,0.2,0,0.3c0.1,0.1,0.2,0.1,0.3,0C259.6,25.9,259.6,25.8,259.5,25.7z M254.8,28.7c0.1-0.1,0.1-0.2,0-0.2
	c-0.1-0.1-0.2-0.1-0.3,0c-0.1,0.1-0.1,0.2,0,0.2C254.6,28.7,254.7,28.8,254.8,28.7z M262,29.2c-0.1-0.1-0.3-0.1-0.4,0l-0.5,0.6
	l-0.1,0l-0.1,0h-0.1c0.1,0.1,0.1,0.2,0.2,0.2c0.1,0.1,0.3,0.2,0.4,0.3c0,0,0-0.1,0-0.1l0.6-0.7C262.2,29.4,262.2,29.3,262,29.2z
	 M263.1,27.1c0.3,0,0.6,0.2,0.8,0.4 M262.3,27.3c0.2-0.2,0.5-0.3,0.9-0.2 M261.1,28.6l1.2-1.3 M261.1,28.6
	C261.1,28.6,261.1,28.6,261.1,28.6c0.6-0.4,1.1-0.4,1.6,0.1c0.4,0.4,0.5,0.9,0.1,1.3l1-1 M262.7,30L262.7,30
	c-0.1,0.1-0.1,0.1-0.2,0.2c-0.4,0.3-0.8,0.3-1.1,0.2c0,0,0,0.1,0,0.1c0,0.1,0,0.2,0,0.2c0,0,0,0,0,0c0.1,0.4,0,0.6-0.1,0.7
	c0,0-0.1,0-0.1,0l-0.4,0.2c-0.1,0.1-0.3,0-0.5-0.1c-0.2-0.1-0.3-0.3-0.4-0.5c-0.1-0.2-0.2-0.5-0.2-0.7c0-0.2,0.1-0.3,0.2-0.4l0.1,0
	l0.3-0.2l0.1,0l0.1,0h0.1l0.1,0l0.1,0l0,0l0.1,0 M260.8,29.8c-0.2-0.4-0.2-0.7,0.1-1.1c0,0,0,0,0.1-0.1c0,0,0,0,0,0 M259.8,30
	L259.8,30 M260.4,30.4c0,0.1,0,0.2,0.1,0.3c0.1,0.1,0.1,0.2,0.2,0.2s0.1,0.1,0.2,0c0.1,0,0.1-0.1,0.1-0.2c0-0.1,0-0.2-0.1-0.3
	c-0.1-0.1-0.1-0.2-0.2-0.2c-0.1,0-0.1,0-0.2,0C260.5,30.3,260.4,30.3,260.4,30.4z M260.2,29.7L260.2,29.7l-0.1,0.1
	c-0.1,0.1-0.1,0.3,0,0.5c0,0.2,0.1,0.4,0.2,0.5c0.2,0.4,0.5,0.6,0.8,0.6c0,0,0.1,0,0.1,0 M258.2,28.9l2,2.8l0.1,0 M264.5,33.2
	c0.1-0.1,0.1-0.2,0-0.3c-0.1-0.1-0.2-0.1-0.3,0c-0.1,0.1-0.1,0.2,0,0.2C264.3,33.2,264.4,33.3,264.5,33.2z M261.5,30.9l2.1-1.2
	 M261,25.9l-2.8,3l6.3-3.6 M259.8,35.9c0.1-0.1,0.1-0.2,0-0.2c-0.1-0.1-0.2-0.1-0.3,0c-0.1,0.1-0.1,0.2,0,0.3
	C259.6,36,259.7,36,259.8,35.9z M255.1,38.4c-0.1-0.1-0.2-0.1-0.3,0c-0.1,0.1-0.1,0.2,0,0.2c0.1,0.1,0.2,0.1,0.3,0
	C255.2,38.6,255.2,38.5,255.1,38.4z M256.4,46.1c0.1-0.1,0.1-0.2,0-0.3c-0.1-0.1-0.2-0.1-0.3,0c-0.1,0.1-0.1,0.2,0,0.2
	C256.2,46.1,256.3,46.1,256.4,46.1z M263,48c0.4,0.5,0.9,0.6,1.5,0.3c0.6-0.3,0.7-0.8,0.3-1.4l-1.1-1.5c-0.4-0.6-0.9-0.8-1.5-0.4
	c-0.7,0.3-0.8,0.8-0.3,1.5 M261.1,43.3c0.1-0.1,0.1-0.2,0-0.2c-0.1-0.1-0.2-0.1-0.3,0c-0.1,0.1-0.1,0.2,0,0.2S261,43.4,261.1,43.3z
	 M249.3,34.4c0.1-0.1,0.1-0.2,0-0.2c-0.1-0.1-0.2-0.1-0.3,0c-0.1,0.1-0.1,0.2,0,0.2C249.1,34.5,249.2,34.5,249.3,34.4z M251.9,38.2
	c0.1-0.1,0.1-0.2,0-0.2c-0.1-0.1-0.2-0.1-0.3,0c-0.1,0.1-0.1,0.2,0,0.2C251.7,38.3,251.8,38.3,251.9,38.2z M251.7,48.8
	c0.1-0.1,0.1-0.2,0-0.2c-0.1-0.1-0.2-0.1-0.3,0c-0.1,0.1-0.1,0.2,0,0.3C251.5,48.8,251.6,48.8,251.7,48.8z M250.9,51.8
	c0.1-0.1,0.1-0.1,0-0.2s-0.2-0.1-0.3,0c-0.1,0.1-0.1,0.2,0,0.3C250.7,51.9,250.8,51.9,250.9,51.8z M253.5,55.6
	c0.1-0.1,0.1-0.2,0-0.2c-0.1-0.1-0.2-0.1-0.3,0c-0.1,0.1-0.1,0.2,0,0.2C253.3,55.7,253.4,55.7,253.5,55.6z M261.4,53.3
	c0.1-0.1,0.1-0.2,0-0.2c-0.1-0.1-0.2-0.1-0.3,0c-0.1,0.1-0.1,0.2,0,0.3C261.2,53.3,261.3,53.3,261.4,53.3z M256.9,51
	c0.1-0.1,0.1-0.2,0-0.3c-0.1-0.1-0.2-0.1-0.3,0c-0.1,0.1-0.1,0.2,0,0.3C256.7,51,256.8,51,256.9,51z M256.7,55.7
	c-0.1-0.1-0.2-0.1-0.3,0c-0.1,0.1-0.1,0.2,0,0.2c0.1,0.1,0.2,0.1,0.3,0C256.8,55.9,256.8,55.8,256.7,55.7z M269.9,25L269.9,25
	 M259.8,30C259.8,30,259.8,30,259.8,30 M260.8,29.8L260.8,29.8"/>
<path id="Layer0_9_MEMBER_0_MEMBER_1_MEMBER_3_1_STROKES" class="st5" d="M273.8,27.6l0.1,1.3 M275.5,44.9l0.1,1.3 M274.6,35.6
	l0.1,1.3 M276.2,52.9l0.1,1.1 M275.7,47.6l0.4,4 M274.1,30.2l0.4,4"/>
<path id="Layer0_9_MEMBER_0_MEMBER_1_MEMBER_4_1_STROKES" class="st4" d="M269.5,22.2c-0.4,0.2-0.4,0.6-0.1,1.2
	c0.3,0.6,0.6,0.9,1,0.7 M276.6,55.2c0.2,0,0.3,0.1,0.3,0.2 M276.6,54.9c0.1,0,0.2,0.1,0.3,0.2 M276,55.2c0-0.1,0-0.1,0.1-0.2
	l0.1-0.1 M276.1,55.8c0-0.1,0.1-0.1,0.2-0.2c0.1,0,0.1-0.1,0.2-0.1 M276,55.5c0-0.1,0.1-0.1,0.1-0.1c0.1,0,0.2-0.1,0.3-0.1
	 M276.7,55.5l0.2,0.1c0.1,0,0.1,0.1,0.1,0.1 M276.7,56.1c0.2,0,0.2,0.1,0.3,0.2 M276.1,56.4c0-0.2,0.2-0.2,0.4-0.3 M276.7,55.8
	c0.2,0,0.2,0.1,0.3,0.2 M276.1,56.1c0-0.1,0.2-0.2,0.4-0.3 M277.3,57.8c-0.2-0.1-0.4-0.2-0.7-0.2c-0.3,0-0.5,0.1-0.7,0.3
	c-0.2,0.3,0,0.5,0.5,0.6c0.5,0.1,0.8-0.1,1-0.4l0-0.1l0-0.1L277.3,57.8L277.3,57.8 M277.3,57.8l-0.3-0.3l-0.1,0l-0.1,0l-0.1,0
	c-0.2,0-0.4,0-0.5,0.1c-0.1,0-0.2,0.2-0.3,0.4 M276.2,58L276.2,58L276.2,58l0.2-0.1l0.1,0h0l0,0h0l0,0h0l0,0h0.1v0h0v0h0l0,0h0v0h0
	v0l0.1-0.1h0v0h0.1l0.1,0 M277.1,58.2l-0.2-0.1 M276.3,58.3l0.2-0.1 M263,48l-1.1-1.6 M277.3,57.8L277.3,57.8"/>
<path id="Layer0_9_MEMBER_0_MEMBER_1_MEMBER_5_1_STROKES" class="st2" d="M271.3,22.4c-0.1,0.1-0.1,0.1-0.1,0.2
	c0.1,0.1,0.1,0.1,0.3,0.1 M270.9,21.7C270.9,21.7,270.8,21.7,270.9,21.7c-0.4,0.2-0.4,0.5-0.2,1c0,0.1,0.1,0.1,0.1,0.2
	c0.1,0.2,0.2,0.4,0.4,0.5c0.2,0.2,0.4,0.2,0.7,0.1 M270.4,24.1l1.3-0.5 M271.1,23.4l-1.3,0.5 M270.7,22.7l-1.3,0.6 M270.8,21.7
	l-1.4,0.6 M269.5,23.6l1.3-0.5 M277.1,57.5l-0.2-2.4v0l-0.1-0.3l0,0v0l-0.1-0.1c-0.1-0.1-0.2-0.1-0.3-0.1c-0.1,0-0.2,0-0.3,0.1
	c0,0-0.1,0.1-0.1,0.1l0,0v0l0,0l0,0.3l0.2,2.4"/>
<path id="Layer0_9_MEMBER_0_MEMBER_1_MEMBER_6_1_STROKES" class="st2" d="M269.3,22.8l1.3-0.5"/>
<path id="Layer0_9_MEMBER_0_MEMBER_1_MEMBER_7_1_STROKES" class="st2" d="M271.4,22.7l0.3-0.1 M271.2,22.4l0.3-0.1"/>
<path id="Layer0_9_MEMBER_0_MEMBER_1_MEMBER_8_1_STROKES" class="st2" d="M266.6,22.9l-1.1,1.6c-0.3,0.6-0.6,1.6-0.8,2.9
	c-0.3,1.8-0.5,2.8-0.5,3c-0.7,2.8-1.5,4.6-2.3,5.6c-0.4,0.5-1.1,1.1-1.9,1.7c-1.2,0.9-2.2,1.6-3,2.2l-0.8,0.8
	c-0.8,1.1-1,2.5-0.6,4.4"/>
<path class="st6" d="M291.3,141c-2.1-0.8-4.1-1-5.8-0.3c-5.1,1.2-8.1,1.8-8.9,1.9c-3,0.3-5.5-0.1-7.5-1.3c0.5-1.5,0.3-2.3-0.5-2.5
	l-1-0.6l0.1-0.6c0-1.5-0.4-2.4-1.1-2.6c-0.1-0.1-0.2-0.1-0.3-0.1l-4.8-2.6c-0.7-0.3-1.4-0.4-2.1,0c-1.3-0.8-2.6-0.1-4,2.2
	c-1.4,2.3-1.4,3.8-0.1,4.7c0.1,0.9,0.5,1.6,1.2,2.1h0l4.6,2.6c0.1,0.2,0.3,0.3,0.5,0.4c0.7,0.3,1.6,0.1,2.8-0.7l0.6-0.3l0.7,0.4
	c0.1,0.1,0.1,0.1,0.3,0.2c0.5,0.3,1.2,0,2-0.8c2.1,1.1,4.6,1.5,7.6,1.2c1-0.1,3.9-0.7,9-1.9c1.8-0.6,3.7-0.5,5.7,0.3
	c1.2,0.5,3,1.3,5.4,2.5c0.1-0.3,0.2-0.7,0.5-1.2c0.1-0.1,0.2-0.3,0.3-0.4C294.3,142.3,292.5,141.5,291.3,141z"/>
<path class="st7" d="M139.1,128.1c0.3,0.1,0.8,0.4,1.3,0.7c0.1,0.1,0.3,0.2,0.5,0.5l1.5-1.7c4.2-5.1,8.6-7.9,13.3-8.2
	c2.2-0.1,5.4,0.4,9.6,1.3c-5.4-1.4-9.4-2-12-1.9C148.3,119.1,143.6,122.2,139.1,128.1 M273.4,104.7c-0.1,0.1-0.3,0.1-0.3,0.1
	c-0.5,0.1-1.1,0.2-1.6,0.3l-0.4,0.1l0,0H271l-0.1,0h0l0,0.1v0.1l-0.1,0l-1.4,2.3l-0.3,0.6c0,0.1,0,0.2,0,0.3c0,0.1,0,0.2,0,0.3
	c0.1,0.8,0.3,1.4,0.5,1.8l0.1,0.2l0.1,0.3v0.1l1.8,1h0l0.1,0h0.1l0.1-0.1h0l1-0.2c0.1,0,0.4-0.1,0.7-0.2l0.7-0.2
	c0.4-0.6,0.9-1.4,1.4-2.3l0.3-0.5l0.2-0.7l0-0.4v0l0-0.1v-0.2l0-0.1v-0.1l-0.4-1.4l0-0.1v-0.1l0-0.1v0l-1.8-1L273.4,104.7
	L273.4,104.7 M258.9,98.7c-0.5-0.2-0.8-0.3-1-0.3c-0.2-0.1-0.5-0.1-0.8,0.1c-0.5,0.3-0.7,0.6-0.8,1c-0.3,0.4-0.3,0.8-0.3,1.1v0.2
	l0,0v0.2l0.1,0.1v0l1,0.8c0,0.1,0.1,0.1,0.1,0.1l0.1,0.1l8.7,4.9l0.1-0.7l0.6-1.2l0.9-1l0.3-0.2l-8.8-5.1h0L258.9,98.7 M184.1,53.3
	L184.1,53.3L184.1,53.3l0-0.1l-0.1-0.1v0l-2.2-1.3l-0.7-0.2c-0.7-0.4-1.4-0.4-2.3,0c-0.6,0.3-1.2,0.7-1.6,1.3l1.2,0.7l0.3,0.3
	l-0.6,1l-0.4-0.1l-1.3-0.7c-0.3,0.7-0.5,1.4-0.3,2.2c0.1,0.5,0.2,0.9,0.5,1.3c0.2,0.2,0.5,0.4,0.8,0.6l1.3,1.1l1.3,0.7h0l0.1,0h0.1
	l0.4,0l0.7-0.2c0.6-0.1,1-0.3,1.3-0.4l1.1-1.6l0.9-1.7v-0.3l0-0.3L184.1,53.3 M192.6,122.5c0.1,0,0.2-0.1,0.5-0.2
	c1-0.4,3.7-1.5,7.8-3.3c2.7-1.1,6.5-3.2,11.4-6.2c5-3.1,8.7-5.1,11.2-6.2c1.4-0.5,3.1-0.9,4.9-1c0.8-0.1,2-0.2,3.6-0.2l-1.1-0.7
	c-0.9,0.1-2.4,0.2-4.3,0.3c-2.1,0.1-3.9,0.4-5.4,1c-2.5,1.1-6.3,3.1-11.3,6.2c-4.9,3-8.7,5.1-11.4,6.2c-3.3,1.4-5.7,2.4-7.1,2.9
	c-0.7,0.3-1.1,0.5-1.3,0.5c-2.8,1-5.8,1.5-9,1.5c-2.4,0.1-5.7-0.3-9.9-1.3c5.4,1.4,9.5,2,12.3,1.9
	C186.8,123.9,189.8,123.4,192.6,122.5 M194.5,63.6c1.2-2.2,1.2-3.7-0.1-4.6c-1.4-1.2-3-0.8-4.6,1.1c-0.6,0.9-1,1.8-1.2,2.8
	c-0.2,1.2,0.1,2.1,0.8,2.7l1,0.5c0.1,0,0.1,0.1,0.3,0.1C191.9,66.7,193.2,65.8,194.5,63.6C194.5,63.6,194.5,63.6,194.5,63.6
	 M190.9,64c-0.2-0.7-0.1-1.4,0.3-2c0.4-0.8,1-1.3,1.7-1.4h0c0.2,0.6,0.1,1.3-0.3,2.1C192.1,63.4,191.5,63.9,190.9,64L190.9,64z"/>
<path class="st8" d="M269.5,103l-0.9,0.3l-0.7,0.5l-0.3,0.2l-0.9,1l-0.6,1.2l-0.1,0.7l-0.2,0.5l0.1,1l0.4,0.8l3.1,1.8l-0.1-0.2
	c-0.2-0.5-0.3-1.1-0.5-1.8c0-0.1,0-0.2,0-0.3c0-0.1,0-0.2,0-0.3l0.3-0.6l1.4-2.3l0.1,0v-0.1l0-0.1h0l0.1,0h0.1l0,0l0.4-0.1
	c0.5-0.2,1-0.3,1.6-0.3l-2.7-1.7l0,0L269.5,103z"/>
<path class="st3" d="M188.2,136.6l2.4,1.5l-3.8,6.2l0,0l-0.3,0.4l-2.2,2.5c-0.1,0.2-0.3,0.3-0.5,0.5l-1.5,1.7
	c-0.1,0.1-0.1,0.2-0.2,0.4l-0.3,0.7c-0.1,0.3-0.3,0.7-0.4,1.2c-0.2,0.9-0.3,1.6-0.2,2.2l0.5,1c0.1,0.1,0.2,0.3,0.4,0.4l0.1,0.1
	l0.3-0.3c0.1,0.4,0.4,0.7,0.7,0.9c0.2,0.1,0.5,0.2,0.7,0.3l1.9-0.6l1.5-1.3l1.4-2.3l0.2-1v0l0.9-4.6l0.1-0.1v-0.8l0-0.3l-0.1-0.3
	l-0.2-0.2l-0.3-0.1l-0.3,0l0,0v0l0.3,0l0.3,0l0.3,0.1l0.2,0.2l0.2,0.5v0.8l3.8-6.7L188.2,136.6 M186.1,150.2l0.1,0.3
	c0,0.6-0.1,1.2-0.5,1.7c-0.3,0.6-0.7,1-1.3,1.3l-0.3,0.3c-0.3-0.5-0.2-1.1,0.2-2C184.9,150.8,185.4,150.2,186.1,150.2z"/>
<path class="st0" d="M194.5,123.1l-0.2-0.1l-7.1,13.1h0l1,0.6l5.6,3.2l3.3,1.9l7.2-13.1l17.7,10.3h0l10.6,6.1l6.2-11.2l1.8,1
	l3.1-5.6c0.2-0.3,0.4-0.5,0.6-0.8c0.2-0.3,0.3-0.6,0.5-0.9c0.1-0.2,0.2-0.4,0.3-0.7l2.9-5.2l-1.6-1l2.9-5.4v0l-8.8-5.1l2-3.6
	l-7.4-4.2l-1.8,3.1c-0.3,0-0.6,0-1,0c-1.6,0.1-2.7,0.1-3.6,0.2c-1.9,0.1-3.5,0.5-4.9,1c-2.5,1.1-6.3,3.1-11.2,6.2
	c-4.9,3-8.7,5.1-11.4,6.2c-4.2,1.7-6.8,2.8-7.8,3.3L194.5,123.1L194.5,123.1 M217.1,77.2c-0.4,0.5-0.8,1.1-1.1,1.7l-1.8,3.3
	l-3.2-1.8l-5.3,9.8l-16-9.1l-2,2.1l-9.7-0.4l-1.3,2.3l-5.7-3.2l-1.6,2.8l-1.9-1.1l-0.7,1.5l5.1,2.9l-3,1.5l-3.6-1.9v0l-0.6,0.9
	l-0.2,0.3l5.2,3.2l-2.6,0.9l-3.4-2l-0.1,0l-0.1,0l-5.9,10.9h0l0,0l34,19.5c1.4-0.5,3.7-1.5,7.1-2.9c2.7-1.1,6.5-3.2,11.4-6.2
	c5-3,8.7-5.1,11.3-6.2c1.6-0.6,3.4-1,5.4-1c2-0.1,3.4-0.3,4.3-0.3l-8.6-4.9l1.4-2.6c0.6-1.2,1.3-2.4,2-3.6l1.9-3.6h0l0-0.1l-2.3-1.6
	l1.6-2.9c0.1-0.2,0.2-0.3,0.3-0.5c0.3-0.5,0.6-1.1,0.9-1.6l0.3-0.7l0.9-4.2l-0.1-0.5c0-0.1,0-0.1,0-0.1c0-0.5-0.1-1.1-0.3-1.5l0-0.1
	l-1.4-1.8l-2.7-1.5l-0.1,0.1c-1.7-0.5-3.5,0.1-5.5,1.8C218.5,75.5,217.7,76.4,217.1,77.2 M222,79.9c0.7-1.5,1.6-2.3,2.6-2.3v0.5
	c0.1,0.8-0.1,1.6-0.6,2.5c0,0,0,0,0,0c-0.5,0.9-1.1,1.5-1.9,1.8h-0.5C221.4,81.8,221.5,81,222,79.9z"/>
<path id="Layer0_10_MEMBER_1_MEMBER_0_1_STROKES" class="st9" d="M190.1,145.9l-0.5,0.9l-0.1,0.4"/>
<path id="Layer0_10_MEMBER_1_MEMBER_1_1_STROKES" class="st9" d="M186.6,144.3l0.6-0.9"/>
<path id="Layer0_10_MEMBER_1_MEMBER_2_1_STROKES" class="st9" d="M190.1,145.9l3.1-5.7"/>
<path id="Layer0_10_MEMBER_1_MEMBER_3_1_STROKES" class="st9" d="M187.3,143.4l2.8-5.1"/>
<path id="Layer0_10_MEMBER_1_MEMBER_4_1_STROKES" class="st9" d="M183.1,148.1l3.5-3.9"/>
<path id="Layer0_10_MEMBER_1_MEMBER_5_1_STROKES" class="st9" d="M188.8,151.1l0.9-4.8"/>
<path id="Layer0_10_MEMBER_1_MEMBER_6_1_STROKES" class="st9" d="M183.2,148.1c-0.9,0.8-1.6,2-2.1,3.6c-0.5,1.8-0.3,3,0.7,3.6"/>
<path id="Layer0_10_MEMBER_1_MEMBER_7_1_STROKES" class="st9" d="M184.4,148.9l3.3-3.6"/>
<path id="Layer0_10_MEMBER_1_MEMBER_8_1_STROKES" class="st9" d="M165,87.4l-0.8,1.4"/>
<path id="Layer0_10_MEMBER_1_MEMBER_9_1_STROKES" class="st9" d="M189.7,146.3l0.1-0.4v-0.4l-0.1-0.3l-0.1-0.3l-0.2-0.2l-0.3-0.1
	l-0.3-0.1l-0.3,0.1L188,145l-0.3,0.3"/>
<path id="Layer0_10_MEMBER_1_MEMBER_10_1_STROKES" class="st9" d="M184.4,148.9l-1.1,1.4l-0.8,1.7c-0.2,0.7-0.3,1.4-0.3,2.1
	c0,0.8,0.3,1.5,0.8,1.9c1.1,0.7,2.3,0.3,3.7-1.1c1.3-1.3,1.9-2.6,2.1-3.9"/>
<path id="Layer0_10_MEMBER_1_MEMBER_11_1_STROKES" class="st9" d="M184.4,153.2c0.5-0.2,0.9-0.7,1.3-1.3c0.3-0.6,0.5-1.1,0.5-1.7"/>
<path id="Layer0_10_MEMBER_1_MEMBER_12_1_STROKES" class="st9" d="M186.5,150c-0.8-0.2-1.6,0.3-2.2,1.6c-0.6,1.3-0.5,2.1,0.3,2.4
	c0.8,0.2,1.5-0.3,2.1-1.6C187.4,151.1,187.3,150.3,186.5,150z"/>
<path id="Layer0_10_MEMBER_1_MEMBER_13_1_STROKES" class="st9" d="M167.2,83.4l-0.8,1.4"/>
<path id="Layer0_10_MEMBER_1_MEMBER_14_1_STROKES" class="st9" d="M247.7,121.4l-1.5,2.6"/>
<path id="Layer0_10_MEMBER_1_MEMBER_15_1_STROKES" class="st9" d="M166.5,84.8l5.3,3"/>
<path id="Layer0_10_MEMBER_1_MEMBER_16_1_STROKES" class="st9" d="M164.2,88.8l5.4,3.1"/>
<path id="Layer0_10_MEMBER_1_MEMBER_17_1_STROKES" class="st9" d="M187.6,82.9l1.8-2.1"/>
<path id="Layer0_10_MEMBER_1_MEMBER_18_1_STROKES" class="st9" d="M177.8,82.6l9.8,0.4"/>
<path id="Layer0_10_MEMBER_1_MEMBER_19_1_STROKES" class="st9" d="M176.5,84.9l1.3-2.3"/>
<path id="Layer0_10_MEMBER_1_MEMBER_20_1_STROKES" class="st9" d="M170.8,81.6l5.7,3.3"/>
<path id="Layer0_10_MEMBER_1_MEMBER_21_1_STROKES" class="st9" d="M169.3,84.4l1.5-2.8"/>
<path id="Layer0_10_MEMBER_1_MEMBER_22_1_STROKES" class="st9" d="M171.8,87.7l-3.3,1.6"/>
<path id="Layer0_10_MEMBER_1_MEMBER_23_1_STROKES" class="st9" d="M169.7,91.8l-2.8,0.9"/>
<path id="Layer0_10_MEMBER_1_MEMBER_24_1_STROKES" class="st9" d="M167.2,83.4l5.3,3.1"/>
<path id="Layer0_10_MEMBER_1_MEMBER_25_1_STROKES" class="st9" d="M165,87.4l5.4,3.1"/>
<path id="Layer0_10_MEMBER_1_MEMBER_26_1_STROKES" class="st9" d="M163.2,90.6l3.6,2.1"/>
<path id="Layer0_10_MEMBER_1_MEMBER_27_1_STROKES" class="st9" d="M182,95c0.5-1,1.2-1.8,2.2-2.2c1-0.5,2-0.6,3.1-0.4"/>
<path id="Layer0_10_MEMBER_1_MEMBER_28_1_STROKES" class="st9" d="M187.3,96.4c0.2-1-0.1-1.6-1-1.9c-0.9-0.3-1.5,0-1.9,1
	c-0.2,1,0.1,1.7,1,2C186.3,97.7,187,97.4,187.3,96.4z"/>
<path id="Layer0_10_MEMBER_1_MEMBER_29_1_STROKES" class="st9" d="M179.7,110.2c0.3-1,0-1.6-0.9-1.9c-0.9-0.3-1.6,0-1.9,0.9
	c-0.3,1,0.1,1.6,1,1.9C178.7,111.5,179.4,111.2,179.7,110.2z"/>
<path id="Layer0_10_MEMBER_1_MEMBER_30_1_STROKES" class="st9" d="M221.6,134.3c0.2-1-0.1-1.6-1-1.9c-0.9-0.3-1.6,0-1.9,1
	c-0.2,1,0.1,1.7,1,1.9C220.6,135.6,221.3,135.2,221.6,134.3z"/>
<path id="Layer0_10_MEMBER_1_MEMBER_31_1_STROKES" class="st9" d="M234.7,110.5c0.3-1,0-1.6-0.9-1.9c-0.9-0.3-1.5,0-1.9,1
	c-0.2,1,0.1,1.6,1,1.9C233.7,111.8,234.3,111.5,234.7,110.5z"/>
<path id="Layer0_10_MEMBER_1_MEMBER_32_1_STROKES" class="st9" d="M220.8,102.5c0.3-1-0.1-1.6-1-1.9c-0.9-0.3-1.5,0-1.9,1
	c-0.3,0.9,0.1,1.6,1,1.9C219.9,103.8,220.5,103.5,220.8,102.5z"/>
<path id="Layer0_10_MEMBER_1_MEMBER_33_1_STROKES" class="st9" d="M239.2,130.9c-0.2,0.7-0.2,1.1,0.2,1.2c0.4,0.1,0.7-0.1,1-0.7"/>
<path id="Layer0_10_MEMBER_1_MEMBER_34_1_STROKES" class="st9" d="M245.1,123c0.5-0.6,0.6-1.1,0.3-1.5c-0.3-0.4-0.7-0.2-1.3,0.5"/>
<path id="Layer0_10_MEMBER_1_MEMBER_35_1_STROKES" class="st9" d="M232.8,126.2c-0.5,0.6-0.7,1.1-0.6,1.6c0.1,0.3,0.2,0.4,0.4,0.4
	c0.2,0,0.4-0.1,0.6-0.3c0.5-0.4,0.7-0.9,0.6-1.6C233.7,125.9,233.3,125.9,232.8,126.2z"/>
<path id="Layer0_10_MEMBER_1_MEMBER_36_1_STROKES" class="st9" d="M238,119.3c0.5-0.4,0.7-0.9,0.6-1.5c-0.1-0.2-0.2-0.4-0.5-0.4
	c-0.2,0-0.4,0.1-0.5,0.3c-0.5,0.4-0.7,0.9-0.6,1.5c0.1,0.2,0.2,0.4,0.5,0.4C237.7,119.5,237.9,119.4,238,119.3z"/>
<path id="Layer0_10_MEMBER_1_MEMBER_37_1_STROKES" class="st9" d="M241.9,131.8l-1.5,2.8"/>
<path id="Layer0_10_MEMBER_1_MEMBER_38_1_STROKES" class="st9" d="M229.7,128.4l7.2-13.1"/>
<path id="Layer0_10_MEMBER_1_MEMBER_39_1_STROKES" class="st9" d="M228,127.4l12.5,7.2"/>
<path id="Layer0_10_MEMBER_1_MEMBER_40_1_STROKES" class="st9" d="M235.2,114.2l12.5,7.2"/>
<path id="Layer0_10_MEMBER_1_MEMBER_41_1_STROKES" class="st9" d="M210.8,80.2l16.7,9.6"/>
<path id="Layer0_10_MEMBER_1_MEMBER_42_1_STROKES" class="st9" d="M182.4,94.5l-9.1,16.4"/>
<path id="Layer0_10_MEMBER_1_MEMBER_43_1_STROKES" class="st9" d="M211.3,100.1l-24-7.8"/>
<path id="Layer0_10_MEMBER_1_MEMBER_44_1_STROKES" class="st9" d="M219.1,97.6c-0.9,1.3-2.1,2.1-3.6,2.6c-1.5,0.5-3,0.5-4.5-0.1"/>
<path id="Layer0_10_MEMBER_1_MEMBER_45_1_STROKES" class="st9" d="M186.9,135.8l9.9,5.7"/>
<path id="Layer0_10_MEMBER_1_MEMBER_46_1_STROKES" class="st9" d="M221.8,82.2c0.7-0.3,1.4-0.9,1.9-1.8c0.5-0.9,0.7-1.7,0.6-2.5"/>
<path id="Layer0_10_MEMBER_1_MEMBER_47_1_STROKES" class="st9" d="M224.9,77.4c-1.2-0.3-2.3,0.5-3.1,2.3c-0.9,1.8-0.7,2.9,0.4,3.4
	c1.1,0.3,2.2-0.4,3.1-2.2C226.2,79.1,226,77.9,224.9,77.4z"/>
<path id="Layer0_10_MEMBER_1_MEMBER_48_1_STROKES" class="st9" d="M163.3,90.9l-5.9,10.7"/>
<path id="Layer0_10_MEMBER_1_MEMBER_49_1_STROKES" class="st9" d="M224.9,88.6l2.1-3.8"/>
<path id="Layer0_10_MEMBER_1_MEMBER_50_1_STROKES" class="st9" d="M215.6,83.1l1.9-3.4"/>
<path id="Layer0_10_MEMBER_1_MEMBER_51_1_STROKES" class="st9" d="M222.2,99.5l5.3-9.7"/>
<path id="Layer0_10_MEMBER_1_MEMBER_52_1_STROKES" class="st9" d="M205.5,89.9l5.4-9.7"/>
<path id="Layer0_10_MEMBER_1_MEMBER_53_1_STROKES" class="st9" d="M186.9,135.8l7.1-13"/>
<path id="Layer0_10_MEMBER_1_MEMBER_54_1_STROKES" class="st9" d="M196.8,141.5l7.2-13"/>
<path id="Layer0_10_MEMBER_1_MEMBER_55_1_STROKES" class="st9" d="M226.9,85.3c1.6-2.9,2.3-5.5,2.1-7.6c-0.1-1.9-0.9-3.2-2.3-3.8
	c-1.4-0.6-3-0.3-4.7,0.8c-1.9,1.3-3.6,3.3-5,6"/>
<path id="Layer0_10_MEMBER_1_MEMBER_56_1_STROKES" class="st9" d="M221.7,138.7l10.7,6.1"/>
<path id="Layer0_10_MEMBER_1_MEMBER_57_1_STROKES" class="st9" d="M238.2,108.9l10.7,6.2"/>
<path id="Layer0_10_MEMBER_1_MEMBER_58_1_STROKES" class="st9" d="M236.3,128.1l4,2.2"/>
<path id="Layer0_10_MEMBER_1_MEMBER_59_1_STROKES" class="st9" d="M240.1,121l3.9,2.2"/>
<path id="Layer0_10_MEMBER_1_MEMBER_60_1_STROKES" class="st9" d="M239.8,126.4c-0.5,1-0.6,2-0.4,2.8c0.2,0.8,0.7,1.3,1.5,1.3
	c0.7,0,1.4-0.3,2-0.9c0.7-0.6,1.3-1.4,1.7-2.3c0.5-1,0.6-2,0.4-2.8c-0.2-0.8-0.7-1.3-1.5-1.3c-0.7,0-1.4,0.3-2,0.9
	C240.7,124.7,240.2,125.5,239.8,126.4z"/>
<path id="Layer0_10_MEMBER_1_MEMBER_61_1_STROKES" class="st9" d="M240.3,121.2c-1.4-0.8-2.7-0.1-4.1,2.2c-1.4,2.3-1.4,3.8,0,4.6"/>
<path id="Layer0_10_MEMBER_1_MEMBER_62_1_STROKES" class="st9" d="M248.9,115l-2.9,5.2"/>
<path id="Layer0_10_MEMBER_1_MEMBER_63_1_STROKES" class="st9" d="M238.6,133.6l-6.3,11.4"/>
<path id="Layer0_10_MEMBER_1_MEMBER_64_1_STROKES" class="st9" d="M157.3,101.7l32.1,18.5"/>
<path id="Layer0_10_MEMBER_1_MEMBER_65_1_STROKES" class="st9" d="M194,122.7l27.8,16"/>
<path id="Layer0_10_MEMBER_1_MEMBER_66_1_STROKES" class="st9" d="M238.2,108.9l-16.5,30"/>
<path id="Layer0_10_MEMBER_1_MEMBER_67_1_STROKES" class="st9" d="M189.3,80.8l39.8,22.8"/>
<path id="Layer0_10_MEMBER_1_MEMBER_68_1_STROKES" class="st9" d="M232.9,105.9l5.3,3"/>
<path id="Layer0_10_MEMBER_1_MEMBER_69_1_STROKES" class="st9" d="M214.1,94.6l5.2-9.4"/>
<path id="Layer0_10_MEMBER_1_MEMBER_70_1_STROKES" class="st10" d="M232.1,63.2l7.4-13.4 M227.2,72.2l2.5-4.5"/>
<path id="Layer0_10_MEMBER_1_MEMBER_71_1_STROKES" class="st9" d="M194.1,58.8l-0.5-0.2h-0.5l-0.6,0.2L192,59 M190.7,63.8
	c0.2,0.7,0.8,0.7,1.6,0.2 M190.7,63.8L190.7,63.8c-0.3-0.7-0.2-1.4,0.3-2.1c0.4-0.8,1-1.3,1.7-1.4c0,0,0,0,0.1,0
	c0.7-0.1,1.1,0.3,1,1.4 M192.7,60.3c0.2,0.6,0.1,1.3-0.4,2.1c-0.5,0.8-1,1.3-1.6,1.4 M181.7,155.2l1.3,0.7"/>
<path id="Layer0_10_MEMBER_1_MEMBER_72_1_STROKES" class="st10" d="M207.3,70.9l-13.2-7.7 M227.7,82.6l-4.4-2.6 M245.4,92.8
	l-13.3-7.7 M254.2,98l-4.4-2.6 M216.2,76l-4.4-2.6"/>
<path id="Layer0_10_MEMBER_1_MEMBER_73_1_STROKES" class="st9" d="M189.5,63.9l-0.1,0.2l0.1,0.6l0.2,0.5l0.3,0.4l0.3,0.3
	c1.3,0.5,2.6-0.3,3.9-2.5c1.3-2.3,1.3-3.8-0.1-4.7c-1.4-1.2-3-0.8-4.6,1.1c-0.6,0.9-1,1.8-1.2,2.8c-0.2,1.3,0.1,2.1,0.8,2.7l0.9,0.5
	c0.1,0,0.2,0.1,0.2,0.1 M258.8,98.6L258.8,98.6l0.2,0.1l3.3,1.9l1.1,0.7l4.2,2.5l0.7-0.5l0.9-0.3l0.8,0.1l0.1,0.1l2.7,1.6
	c0.1,0,0.3-0.1,0.4-0.1l0.1-0.1h0.1l1.8,1v0.1l0.1,0.1v0.1l0.1,0.1l0.4,1.4v0.1l0.1,0.1v0.2l0.1,0.1v0.1l0.1,0.4l-0.2,0.6l-0.3,0.5
	c-0.5,0.9-1,1.7-1.5,2.3l-0.6,0.2c-0.3,0.1-0.5,0.2-0.7,0.2l-1,0.2h-0.1l-0.1,0.1h-0.2l-0.1,0.1h-0.1l-1.8-1v-0.1l-0.1-0.3l-2.8-1.6
	l-0.3-0.2l-0.4-0.8l-0.1-1l0.1-0.5l-4.2-2.4l-1.3-0.7l-1.1-0.6l-1.1-0.7l-1-0.6l-0.1-0.1c0,0-0.1,0-0.1-0.1l-0.9-0.8v-0.1l-0.2-0.2
	v-0.2l-0.1-0.1v-0.2c-0.1-0.4,0-0.8,0.3-1.1c0.1-0.3,0.4-0.6,0.8-0.9c0.3-0.2,0.6-0.2,0.8-0.1c0.2,0,0.5,0.2,1,0.4L258.8,98.6z
	 M258.8,98.6c-0.4-0.1-0.9,0.1-1.3,0.6 M258.7,99.8c0.5-0.5,0.9-0.7,1.3-0.6 M259.8,100.4c0.2-0.1,0.4-0.2,0.6-0.4
	c0.2-0.1,0.4-0.2,0.7-0.1 M259,98.6l-0.2-0.1 M261,101.1c0.4-0.5,0.9-0.7,1.4-0.6 M269.2,110.9l-0.1-0.2c-0.2-0.5-0.3-1.1-0.5-1.8
	c0-0.1,0-0.2,0-0.3c0-0.1,0-0.2,0.1-0.3l0.3-0.6l1.4-2.3l0.1-0.1v-0.1l0.1-0.1h0.1l0.1-0.1h0.1l0.1-0.1l0.4-0.1
	c0.5-0.2,1-0.3,1.5-0.4 M275.1,105.5c-1,0.9-1.9,1.1-2.7,0.7l-0.2,0.9l-0.4,0.9c-0.3,0.7-0.8,1.2-1.4,1.6c0.3,0.3,0.5,0.7,0.7,1.3
	c0.1,0.5,0.1,1,0.1,1.5 M272.4,106.2l-1.8-1 M267.6,103.6l-0.3,0.2l-0.8,1l-0.6,1.2l-0.2,0.7 M261.6,104.4c-0.4-0.4-0.4-1.1,0.1-2.1
	 M260.3,103.7c-0.1-0.2-0.2-0.5-0.1-0.9c0-0.4,0.2-0.7,0.4-1 M270.4,109.6l-1.7-1 M259.4,101.1c-0.5,0.9-0.5,1.5-0.1,2 M262.1,101.8
	c0.5-0.5,0.9-0.7,1.3-0.6 M256.9,101.7c-0.1-0.1-0.2-0.4-0.2-0.8c0-0.3,0.1-0.7,0.3-1.1 M234.6,102l1.9,1.1l3.3,1.9l2.2,1.3
	l-1.4,2.6 M236.6,103.1l-1.6,2.8 M238.4,107.7l1.5-2.7 M258.1,102.4c-0.4-0.5-0.4-1.1,0.1-2 M264.7,143.6c-1.2,0.8-2.1,1-2.8,0.7
	c-0.2-0.1-0.4-0.2-0.5-0.4l-4.6-2.6c0,0,0,0-0.1,0c-0.8-0.5-1.2-1.2-1.2-2.1c-1.3-0.9-1.3-2.4,0.1-4.7c1.4-2.3,2.7-3,4-2.2
	c0.7-0.3,1.4-0.3,2.1,0l0.3,0.2l4.5,2.5c0.1,0,0.2,0,0.3,0.1c0.7,0.3,1.1,1.2,1.1,2.7 M255.5,139.2c0-0.1,0-0.1,0-0.2
	c0-0.5,0.1-1.1,0.4-1.8c0.2-0.6,0.5-1.2,0.9-1.9c0,0,0-0.1,0.1-0.1c0.4-0.7,0.8-1.3,1.3-1.7c0.4-0.5,0.9-0.9,1.3-1.1
	c0.1,0,0.1-0.1,0.2-0.1 M266.4,135c-0.4-0.1-0.8,0-1.3,0.2c-0.2,0.1-0.5,0.2-0.7,0.3c-0.5,0.2-1,0.6-1.4,0.9c-0.5,0.5-0.9,1-1.2,1.6
	c-0.1,0.2-0.1,0.3-0.2,0.5c-0.3,0.5-0.6,1-0.7,1.5c-0.2,0.6-0.3,1.2-0.2,1.8c0,0.4,0.1,0.8,0.3,1.3c0.1,0.3,0.3,0.6,0.4,0.8
	 M268.7,138.9c0.8,0.2,1,1,0.5,2.5 M268.7,138.9c-0.1,0-0.1,0-0.2,0c-1,0-1.8,0.6-2.4,1.9c-0.7,1.3-0.7,2.2-0.1,2.9
	c0.1,0.1,0.2,0.1,0.2,0.2c0.6,0.4,1.4,0,2.3-1 M266.1,137.4l0.2,0.1l2.4,1.4 M264.4,135.4l-5-3 M265.9,143.6l-2.5-1.4
	c-0.9-0.6-0.9-1.6,0-3.2c0.9-1.6,1.9-2.1,2.8-1.5 M255.5,139l5.1,2.9 M258.1,133.5l4.9,2.9 M261.8,138l-5-2.8 M260.9,140l-5-2.8"/>
<path id="Layer0_10_MEMBER_1_MEMBER_74_1_STROKES" class="st10" d="M253.4,133.5l-4.4-2.6 M244.5,128.4l-2.2-1.3"/>
<path id="Layer0_10_MEMBER_1_MEMBER_75_1_STROKES" class="st9" d="M183.9,53.1L183.9,53.1l-0.1-0.1l-0.1-0.1v-0.1
	c-0.5,0.3-1.2,0.5-1.9,0.6c-0.1,0.1-0.2,0.1-0.5,0.2h-0.3c-0.1,0.3-0.1,0.4-0.2,0.4l-1.5,2.6l-0.1,0.1l-0.1,0.1l-0.1,0.1l-0.1,0.1
	v0.1l0.1,0.1l0.2,0.6l0.4,1.5v0.2l0.1,0.1v0.2l0.1,0.1h0.1l0.1-0.1h0.2l0.4-0.1l0.7-0.2c0.6-0.1,1-0.3,1.3-0.4l1.1-1.6l0.9-1.8v-0.3
	l-0.1-0.4L183.9,53.1L183.9,53.1z M183.8,52.8l-2.2-1.3l-2.4,0.8l0,0l1.9,1.1 M183.4,56.5c0.3-0.7,0.3-1.3-0.1-1.7
	c-0.3-0.5-0.9-0.4-1.6,0.2c-0.5,0.3-0.9,0.9-1.1,1.8c-0.2,0.9,0,1.4,0.6,1.6c0.6,0,1.1-0.3,1.6-0.9 M177.6,54.5l-1.3-0.7
	c-0.3,0.7-0.5,1.5-0.4,2.2c0.1,0.9,0.6,1.5,1.4,1.9l-0.2-2l2-3.4 M180.8,51.4c-0.7-0.4-1.4-0.4-2.2-0.1c-0.6,0.3-1.2,0.7-1.7,1.4
	l1.2,0.6 M177.3,57.9l0,0.3l2.5,1.5 M177.1,55.9l2,1.1 M296.8,143.6c-0.2,0.1-0.3,0.3-0.3,0.4 M296.8,143.6c-2.4-1.1-4.1-2-5.3-2.5
	c-2.1-0.8-4-1-5.7-0.4c-5.1,1.2-8.1,1.8-9,1.9c-3.4,0.3-6.2-0.3-8.4-1.8c-0.1,0-0.2-0.1-0.2-0.2c-0.3,0-0.5,0.2-0.8,0.7
	c-0.2,0.4-0.3,0.7-0.2,1c2.3,1.6,5.2,2.3,8.7,1.9c0.9-0.1,3.9-0.7,9-1.9c1.8-0.6,3.7-0.5,5.7,0.3c1.2,0.4,3,1.3,5.4,2.4
	c0.1-0.3,0.3-0.7,0.5-1.1 M295.9,145.1c-0.1,0.4-0.1,0.7,0,1c0.2,0.6,0.2,1.1,0,1.6 M297.8,141.5c-0.1,0.9-0.3,1.5-0.6,1.7
	c-0.2,0.2-0.4,0.3-0.5,0.5 M267.4,142.6c-0.1-0.1-0.2-0.1-0.3-0.2 M268.1,140.8L268.1,140.8"/>
<path id="Layer0_10_MEMBER_1_MEMBER_76_1_STROKES" class="st9" d="M213.9,82.1l1.3-2.4l0.5-1c0.8-1.5,1.9-2.8,3.4-4.1
	c2.1-1.8,4-2.3,5.7-1.7c0,0,0,0,0.1,0l1.7,1"/>
<path id="Layer0_10_MEMBER_1_MEMBER_77_1_STROKES" class="st9" d="M136.5,127.6c0.5,0.3,1,0.3,1.6,0.2c0.5-0.1,1.2,0.1,2,0.8
	c0.2,0.1,0.5,0.5,0.7,0.9c0.2,0.3,0.7,0.6,1.7,0.8"/>
<path id="Layer0_10_MEMBER_1_MEMBER_78_1_STROKES" class="st9" d="M233.3,105.1c-2.3,0.1-3.9,0.2-5,0.3c-1.9,0.1-3.5,0.5-5,1
	c-2.5,1.1-6.3,3.1-11.3,6.2c-4.9,3-8.7,5.1-11.4,6.2c-5.3,2.2-8.1,3.3-8.4,3.4c-2.8,0.9-5.8,1.5-9,1.6c-3.1,0.1-7.8-0.7-14.1-2.3
	c-6.3-1.7-10.9-2.5-13.9-2.3c-4.9,0.3-9.7,3.4-14.2,9.3"/>
<path id="Layer0_10_MEMBER_1_MEMBER_79_1_STROKES" class="st9" d="M231.9,104.4c-0.4,0.1-2.2,0.2-5.4,0.4c-2.1,0.1-3.9,0.5-5.4,1
	c-2.5,1.1-6.3,3.1-11.3,6.2c-4.9,3-8.7,5.1-11.4,6.2c-5,2.1-7.8,3.3-8.4,3.5c-2.8,0.9-5.8,1.4-9,1.5c-3.2,0.1-7.9-0.7-14.2-2.3
	c-6.3-1.6-10.9-2.4-13.8-2.3c-5,0.4-9.7,3.5-14.2,9.3"/>
<path id="Layer0_10_MEMBER_1_MEMBER_80_1_STROKES" class="st9" d="M203.1,123.4c0.3-1,0-1.6-0.9-1.9c-0.9-0.3-1.6,0-1.9,1
	c-0.3,1,0.1,1.6,1,1.9C202.1,124.7,202.8,124.3,203.1,123.4z"/>
<path class="st0" d="M239,36.8c-14.4,7.5-26.5,18.7-36.2,33.4l-3.7-2.6l2,11.1l11-2l-3.6-2.6c8.9-17.2,19.7-29.8,32.6-37.7
	c3.8-2.3,7.3-4.1,10.5-5.2C247.9,32.6,243.7,34.4,239,36.8z"/>
<path id="Layer0_11_1_STROKES" class="st11" d="M257.7,30c-1.9,0.3-3.9,0.8-5.9,1.4c-3.8,1.2-8.1,3-12.7,5.4
	c-14.4,7.5-26.5,18.7-36.2,33.4l-3.7-2.6l2,11.1l11-2l-3.6-2.6c8.9-17.2,19.7-29.8,32.6-37.7c3.8-2.3,7.3-4.1,10.5-5.2"/>
<path id="Layer0_12_MEMBER_1_1_STROKES" class="st12" d="M36.1,88.7H131v23.6H36.1V88.7z"/>
<text transform="matrix(1 0 0 1 40.177 104.9836)"><tspan x="0" y="0" class="st13 st14">L/H  7900-P1</tspan><tspan x="0" y="33.6" class="st13 st14">R/H  7900-P2</tspan></text>
<path id="Layer0_12_MEMBER_1_1_STROKES_1_" class="st12" d="M36.1,121.7H131v23.6H36.1V121.7z"/>
</svg>
