<?xml version="1.0" encoding="utf-8"?>
<!-- Generator: Adobe Illustrator 24.1.2, SVG Export Plug-In . SVG Version: 6.00 Build 0)  -->
<svg version="1.1" id="Ebene_1" xmlns="http://www.w3.org/2000/svg" xmlns:xlink="http://www.w3.org/1999/xlink" x="0px" y="0px"
	 viewBox="0 0 349.1 161" style="enable-background:new 0 0 349.1 161;" xml:space="preserve">
<style type="text/css">
	.st0{fill:#CCCCCC;}
	.st1{fill:#0099FF;}
	.st2{fill:none;stroke:#000000;stroke-width:0.5;stroke-miterlimit:5;}
	.st3{fill:none;stroke:#000000;stroke-width:5.000000e-02;stroke-miterlimit:5;}
</style>
<path class="st0" d="M120.2,132.7l-1.7-0.4l-0.1,0.6c-0.7-0.1-1.4-0.1-2.2,0.2c-2.2,0.8-3.8,2.8-5,5.8c-0.8,2-1.3,4.1-1.4,6.2h0.8
	v0.1h-0.8c0,0.4,0,0.9,0,1.4c0.1,3.4,0.8,6.1,2.1,8.1c1,1.6,2.3,2.5,3.8,2.7c0.2,0,0.3,0,0.5,0l5.8,0.6l0.7-0.1l1.5-0.7l1.5-1.5
	l-0.1,1.5l0.3,0.2l1.3,0.2l0.7-0.3l0.1-2l0.7,0.1l0.8-0.3V155l0.2-2.1l-0.5-0.6l0.7-0.8c0.8-0.9,1.4-1.5,1.9-2l0.4-0.5l0.4-1
	l0.1-1.1l-0.1-1l-0.4-0.8l-0.5-0.4l-2-0.2l0.5,0.4l-1-0.1l0.1-2.3l1.5,0.2l0.6-0.3l0.5-0.7l0.4-1l0.1-1.1l-0.2-1l-0.4-0.8l-6.1-4.4
	L120.2,132.7 M121.1,139l0.2-0.2c0.5,0.9,0.8,1.9,0.9,3l2.6,0.2h0.1l1.8,0.2l0.3-0.1v2.1l-1.4-0.1c-0.3-0.2-0.7,0-1.1,0.3
	c-0.1,0.1-0.2,0.2-0.3,0.3l-1.9-0.1c0,2.3-0.5,4.3-1.4,6.2c-0.3,0.6-0.7,1.1-1,1.6l-0.2-0.3c-0.8-1.7-1.1-3.8-1-6.3l-3.9-0.2v-0.2
	l3.9,0.2c0-0.1,0-0.1,0-0.2C119,142.7,119.8,140.6,121.1,139 M113.4,145.2v0.2l-1.3-0.1v-0.2L113.4,145.2 M273.6,13.1l-0.3-1.1
	l-0.5-0.9l-0.7-0.6l-0.6-0.1l-2,0.7l0.7,0.1l-1,0.1l-0.7-2l1.5-0.5l0.4-0.5l0.2-0.9v-1l-0.3-1l-0.5-0.9l-0.7-0.6l-7.2-1.6l-7.3,1.9
	l0.1,0.5c-0.7,0.2-1.3,0.6-2,1.1c-1.6,1.6-2.4,4-2.3,7.2c0.1,2.2,0.5,4.2,1.2,6.2l2.5-1v0.1l-2.5,1c0.1,0.5,0.3,0.9,0.5,1.3
	c1.4,3.1,3.1,5.4,5.1,6.7c1.5,1,3,1.4,4.5,1c0.2-0.1,0.4-0.1,0.6-0.2l5.5-1.8l0.6-0.4l1.1-1.3l0.8-1.9l0.5,1.4l0.4,0.2l1.3-0.3
	l0.5-0.5l-0.7-1.9l0.7-0.2l0.6-0.6l-0.7-2.1l-0.7-0.4l0,0l0.6-1.5c0.1-0.4,0.3-0.7,0.4-0.9c0.1-0.5,0.3-0.8,0.5-1.2l0.1-0.6
	L273.6,13.1 M259.4,9.4l0.1-0.2c0.8,0.6,1.4,1.4,2,2.4l4.3-1.4L266,10l0.8,1.9l-1.3,0.4c-0.4,0-0.7,0.2-0.9,0.7
	c-0.1,0.1-0.1,0.3-0.1,0.4l-1.7,0.7c0.9,2.1,1.3,4.2,1.1,6.2c-0.1,0.6-0.2,1.2-0.3,1.8l-1.1-0.9c-1.1-1.2-2-2.9-2.6-4.9l-2.5,0.9
	v-0.1l2.5-0.9C259,13.5,258.9,11.3,259.4,9.4 M256.2,17.6l-1.1,0.4v-0.1l1.1-0.5V17.6z"/>
<path class="st1" d="M220.2,42.9c1-0.3,1.6-1.7,1.7-4l20.8-6.8c1.4,1.8,2.7,2.6,3.8,2.3l2.1-0.6l0,0c1-0.4,1.6-1.9,1.7-4.4
	c0-2.5-0.5-5.4-1.5-8.6c-1.1-3.2-2.4-5.9-3.9-7.9s-2.8-2.9-3.9-2.5l-2.1,0.7c-1.1,0.3-1.6,1.7-1.7,4.2L216.3,22
	c-1.4-1.7-2.6-2.4-3.6-2.1l-8.3,2.7l-0.4,0.2l-1.6,0.4c-1,0.3-1.5,1.6-1.7,3.7l-39.1,12.7c-1.4-1.8-2.6-2.5-3.7-2.2l0,0l-6,1.9
	c-0.1,0-0.2,0.1-0.3,0.1l-1.7,0.5c-1,0.3-1.5,1.5-1.6,3.7l-1.9,0.6l0,0l-33.6,10.4c-1.6-1.8-2.9-2.5-4-2.1l0,0
	c-0.1,0-0.2,0.1-0.2,0.1L103,55c-0.1,0-0.2,0.1-0.3,0.1l-1.7,0.8c-0.9,0.4-1.4,1.6-1.3,3.9l-1.9,0.7c-3.7,0.8-7.2,2.6-10.4,5.3
	l-3.1,2.9l-2.9,3.9l-2.3,4.9l-1.7,6.1l-7.3,35.7l-0.9,7.4v5.3l1,5.7l2.3,5.4l4,4.8l6.1,3.5l6.8,1.4c0.2,0.2,0.4,0.4,0.7,0.4h0.1
	c0.8,2,2,3.1,3.5,3.2l3.2,0.3c1.7,0.2,3.2-0.8,4.7-3.1s2.4-5,2.9-8.4c0.4-3.4,0.1-6.3-0.8-8.9c-0.8-2.5-2.2-3.9-4-4.1l-3-0.3
	c-0.8-0.1-1.7,0.1-2.5,0.7c-0.9,0.6-1.7,1.4-2.3,2.5l-2-0.9l-1.6-1.6l-1-1.9c-0.8-2.5-0.7-5.5,0.2-8.9l7.7-34.3c0.8-2.7,2-5,3.4-6.9
	c1.7-2.3,3.5-3.6,5.6-4c0.2,0,0.4,0,0.6-0.1l1.8-0.7c1.5,1.7,2.8,2.4,3.9,2l7.8-3.3c0.9-0.4,1.4-1.6,1.3-3.8l32.3-9.7h0.1l1.7-0.5
	c1.4,1.9,2.7,2.6,3.8,2.3l7.9-2.5l0,0c1-0.3,1.6-1.6,1.7-3.9l39.1-12.7c1.4,1.9,2.6,2.7,3.7,2.3l2-0.6l0,0L220.2,42.9z"/>
<path id="Layer0_13_MEMBER_1_MEMBER_0_1_STROKES" class="st2" d="M92.5,152.8l-1.5-0.2"/>
<path id="Layer0_13_MEMBER_1_MEMBER_1_1_STROKES" class="st2" d="M94.2,135.2L92,135"/>
<path id="Layer0_13_MEMBER_1_MEMBER_2_1_STROKES" class="st2" d="M94.2,135.2c1.2,0.1,2.2,1.1,2.9,2.9c0.7,1.8,0.9,3.9,0.7,6.4
	c-0.2,2.4-0.9,4.5-1.9,6.1s-2.1,2.4-3.4,2.3"/>
<path id="Layer0_13_MEMBER_1_MEMBER_3_1_STROKES" class="st2" d="M97,156.4l-3.1-0.3"/>
<path id="Layer0_13_MEMBER_1_MEMBER_4_1_STROKES" class="st2" d="M100,132l-3.1-0.3"/>
<path id="Layer0_13_MEMBER_1_MEMBER_5_1_STROKES" class="st2" d="M98.3,132.2c0.6-0.2,1.2-0.3,1.7-0.3"/>
<path id="Layer0_13_MEMBER_1_MEMBER_6_1_STROKES" class="st2" d="M93.2,152.6L93.2,152.6L93.2,152.6L93.2,152.6"/>
<path id="Layer0_13_MEMBER_1_MEMBER_7_1_STROKES" class="st2" d="M100,132c1.7,0.2,3,1.6,3.9,4.1s1.1,5.5,0.7,8.8
	c-0.4,3.4-1.4,6.1-2.8,8.4c-1.5,2.2-3.1,3.3-4.7,3.1c-0.5-0.1-0.9-0.2-1.4-0.5"/>
<path id="Layer0_13_MEMBER_1_MEMBER_8_1_STROKES" class="st2" d="M92,135c0.7-1.2,1.5-2,2.4-2.6s1.7-0.8,2.5-0.7"/>
<path id="Layer0_13_MEMBER_1_MEMBER_9_1_STROKES" class="st2" d="M96.9,131.7c1.7,0.2,3,1.6,3.9,4.1s1.1,5.5,0.7,8.8
	c-0.4,3.4-1.4,6.1-2.8,8.4c-1.5,2.2-3.1,3.3-4.7,3c-1.5-0.2-2.7-1.3-3.6-3.5"/>
<path id="Layer0_13_MEMBER_1_MEMBER_10_1_STROKES" class="st2" d="M241,9.9l-2.1,0.7"/>
<path id="Layer0_13_MEMBER_1_MEMBER_11_1_STROKES" class="st2" d="M248.6,33.2l-2.1,0.7"/>
<path id="Layer0_13_MEMBER_1_MEMBER_12_1_STROKES" class="st2" d="M240.2,10.6c0.3-0.4,0.6-0.7,0.9-0.7c1.1-0.4,2.4,0.5,3.9,2.5
	s2.8,4.7,3.8,7.9s1.6,6.1,1.5,8.6c0,2.5-0.6,4-1.7,4.4"/>
<path id="Layer0_13_MEMBER_1_MEMBER_13_1_STROKES" class="st2" d="M248.6,33.2c-0.3,0.1-0.7,0.1-1.2-0.1"/>
<path id="Layer0_13_MEMBER_1_MEMBER_14_1_STROKES" class="st2" d="M237.3,14.7c0.1-2.5,0.6-3.9,1.7-4.2c1.1-0.3,2.4,0.5,3.9,2.5
	s2.8,4.7,3.8,7.9s1.6,6.1,1.5,8.6c0,2.5-0.6,4-1.7,4.4"/>
<path id="Layer0_13_MEMBER_1_MEMBER_15_1_STROKES" class="st2" d="M246.6,33.9c-1,0.3-2.3-0.4-3.7-2.3"/>
<path id="Layer0_13_MEMBER_1_MEMBER_16_1_STROKES" class="st2" d="M238.5,14.3c0.8-0.3,1.8,0.4,2.8,1.8c1.1,1.5,2,3.4,2.8,5.7
	s1.1,4.4,1.1,6.2c0,1.8-0.4,2.9-1.2,3.1"/>
<path id="Layer0_13_MEMBER_1_MEMBER_17_1_STROKES" class="st2" d="M242.7,31.7L222,38.4"/>
<path id="Layer0_13_MEMBER_1_MEMBER_18_1_STROKES" class="st2" d="M237.1,14.8l-20.7,6.7"/>
<path id="Layer0_13_MEMBER_1_MEMBER_19_1_STROKES" class="st2" d="M122.2,157.6l-6.3-0.6"/>
<path id="Layer0_13_MEMBER_1_MEMBER_20_1_STROKES" class="st2" d="M116.4,154.8l2.6,0.2"/>
<path id="Layer0_13_MEMBER_1_MEMBER_21_1_STROKES" class="st2" d="M123.5,146.9c-0.6,2.9-1.5,5.3-2.9,6.9c-1.3,1.5-2.7,2.2-4.2,2.1
	c-1.5-0.1-2.8-0.9-3.9-2.6c-1.2-1.8-1.8-4.2-1.9-7.3c-0.1-2.4,0.3-4.7,1.2-7.1c1.1-2.8,2.6-4.5,4.5-5.3c1.9-0.7,3.6-0.2,5,1.4
	c1.1,1.3,1.8,3,2.3,5.1"/>
<path id="Layer0_13_MEMBER_1_MEMBER_22_1_STROKES" class="st2" d="M124.1,146.7c-0.6,3.3-1.6,5.9-3.1,7.7c-1.4,1.7-3,2.6-4.6,2.5
	c-1.7,0-3.1-1-4.3-2.8c-1.3-2-2-4.7-2.1-8.2c-0.1-2.6,0.4-5.2,1.4-7.7c1.2-3,2.8-4.9,5-5.7c2-0.7,3.8-0.2,5.3,1.6
	c1.2,1.5,2,3.3,2.4,5.5"/>
<path id="Layer0_13_MEMBER_1_MEMBER_23_1_STROKES" class="st2" d="M122.5,144.1c0,2.3-0.5,4.4-1.4,6.2c-0.9,1.7-2,2.8-3.3,3.3
	c-1.4,0.5-2.6,0.2-3.6-0.9c-1.2-1.2-1.9-3.3-2.3-6.2c-0.1-2,0.1-3.9,0.8-5.9c0.8-2.3,1.9-3.8,3.4-4.6c1.6-0.8,3.1-0.5,4.3,1
	c1,1.2,1.7,2.7,1.9,4.5"/>
<path id="Layer0_13_MEMBER_1_MEMBER_24_1_STROKES" class="st2" d="M124.1,146.7l0.3-1.1"/>
<path id="Layer0_13_MEMBER_1_MEMBER_25_1_STROKES" class="st2" d="M122.3,141.5l1.6,0.1"/>
<path id="Layer0_13_MEMBER_1_MEMBER_26_1_STROKES" class="st2" d="M122.5,144.1l1.8,0.1"/>
<path id="Layer0_13_MEMBER_1_MEMBER_27_1_STROKES" class="st2" d="M118.8,134.7l2.3,0.3"/>
<path id="Layer0_13_MEMBER_1_MEMBER_28_1_STROKES" class="st2" d="M119.8,151.6c-0.9-1.8-1.2-4-0.9-6.7c0.3-2.7,1-4.8,2.3-6.3"/>
<path id="Layer0_13_MEMBER_1_MEMBER_29_1_STROKES" class="st2" d="M118.7,152.7c-1.5-1.9-2-4.6-1.6-8c0.4-3.5,1.5-6,3.3-7.5"/>
<path id="Layer0_13_MEMBER_1_MEMBER_30_1_STROKES" class="st2" d="M117,153.6c-2.3-1.6-3.2-4.6-2.8-9.1c0.4-4.5,2-7.3,4.5-8.4"/>
<path id="Layer0_13_MEMBER_1_MEMBER_31_1_STROKES" class="st2" d="M128.1,156.9l-0.7,0.3l-1.3-0.2l-0.3-0.3"/>
<path id="Layer0_13_MEMBER_1_MEMBER_32_1_STROKES" class="st2" d="M125.4,137.3l-4.1-3.3"/>
<path id="Layer0_13_MEMBER_1_MEMBER_33_1_STROKES" class="st2" d="M126,136.7l-4-3.3"/>
<path id="Layer0_13_MEMBER_1_MEMBER_34_1_STROKES" class="st2" d="M118.7,131.8l-0.1,0.5"/>
<path id="Layer0_13_MEMBER_1_MEMBER_35_1_STROKES" class="st2" d="M132.1,137.3l-6-4.3l-5.7-0.8"/>
<path id="Layer0_13_MEMBER_1_MEMBER_36_1_STROKES" class="st2" d="M125.6,155.6l-1.2,1.1l-1.5,0.8l-0.7,0.1"/>
<path id="Layer0_13_MEMBER_1_MEMBER_37_1_STROKES" class="st2" d="M127.9,148.6c-0.3,0.3-0.7,0.7-1.2,1.1c-0.3,0.4-0.4,0.9-0.5,1.5"
	/>
<path id="Layer0_13_MEMBER_1_MEMBER_38_1_STROKES" class="st2" d="M132.1,149.1c-0.5,0.4-1.2,1.1-1.9,2"/>
<path id="Layer0_13_MEMBER_1_MEMBER_39_1_STROKES" class="st2" d="M126,154.6l-0.2,2.1"/>
<path id="Layer0_13_MEMBER_1_MEMBER_40_1_STROKES" class="st2" d="M128.3,155l-0.2,2"/>
<path id="Layer0_13_MEMBER_1_MEMBER_41_1_STROKES" class="st2" d="M128.5,154.2l0.2-1.8"/>
<path id="Layer0_13_MEMBER_1_MEMBER_42_1_STROKES" class="st2" d="M126.1,154.1l0.1-1.9"/>
<path id="Layer0_13_MEMBER_1_MEMBER_43_1_STROKES" class="st2" d="M129.4,151.8l0.5,0.6l-0.2,2.2l-0.8,0.4l-3.4-0.5l-0.4-0.4
	l0.2-2.2l1.1-0.4L129.4,151.8z"/>
<path id="Layer0_13_MEMBER_1_MEMBER_44_1_STROKES" class="st2" d="M118.7,131.8l1.7,0.4l1.6,1.2"/>
<path id="Layer0_13_MEMBER_1_MEMBER_45_1_STROKES" class="st2" d="M128.6,154.2l0.4,0.5l0.5-0.1"/>
<path id="Layer0_13_MEMBER_1_MEMBER_46_1_STROKES" class="st2" d="M128.7,152.4l1-0.1"/>
<path id="Layer0_13_MEMBER_1_MEMBER_47_1_STROKES" class="st2" d="M126.2,152.2l1.3-0.4l1.2,0.6"/>
<path id="Layer0_13_MEMBER_1_MEMBER_48_1_STROKES" class="st2" d="M125.3,151.8l0.8,0.3"/>
<path id="Layer0_13_MEMBER_1_MEMBER_49_1_STROKES" class="st2" d="M126,153.9l-0.9,0.3"/>
<path id="Layer0_13_MEMBER_1_MEMBER_50_1_STROKES" class="st2" d="M128.5,154.2l-1.3,0.3l-1.2-0.4"/>
<path id="Layer0_13_MEMBER_1_MEMBER_51_1_STROKES" class="st2" d="M123.8,150.9l1.1-1.6l1.2-1"/>
<path id="Layer0_13_MEMBER_1_MEMBER_52_1_STROKES" class="st2" d="M123.1,150.6l1-1.7l1.5-1.4"/>
<path id="Layer0_13_MEMBER_1_MEMBER_53_1_STROKES" class="st2" d="M130.1,148.8l-0.8,0.5"/>
<path id="Layer0_13_MEMBER_1_MEMBER_54_1_STROKES" class="st2" d="M127.8,136.9l-2.3-1.8l2.5,0.4l2.1,1.7"/>
<path id="Layer0_13_MEMBER_1_MEMBER_55_1_STROKES" class="st2" d="M129.4,137.7l-1-0.2"/>
<path id="Layer0_13_MEMBER_1_MEMBER_56_1_STROKES" class="st2" d="M129.6,140.7l-0.2-0.7l-0.4-0.3"/>
<path id="Layer0_13_MEMBER_1_MEMBER_57_1_STROKES" class="st2" d="M129.9,144l0.5,0.4l0.4,0.8l0.2,1l-0.1,1.1l-0.4,1l-0.4,0.4"/>
<path id="Layer0_13_MEMBER_1_MEMBER_58_1_STROKES" class="st2" d="M122.2,153.9l2.5,0.3"/>
<path id="Layer0_13_MEMBER_1_MEMBER_59_1_STROKES" class="st2" d="M121.9,153.2l0.3,0.8l1.6-3.1"/>
<path id="Layer0_13_MEMBER_1_MEMBER_60_1_STROKES" class="st2" d="M127,143.6l0.1-1.8"/>
<path id="Layer0_13_MEMBER_1_MEMBER_61_1_STROKES" class="st2" d="M129.6,140.7l-0.8,11"/>
<path id="Layer0_13_MEMBER_1_MEMBER_62_1_STROKES" class="st2" d="M126.8,141.8l-1.9-0.2"/>
<path id="Layer0_13_MEMBER_1_MEMBER_63_1_STROKES" class="st2" d="M131.1,142.2l-1.3-0.2"/>
<path id="Layer0_13_MEMBER_1_MEMBER_64_1_STROKES" class="st2" d="M127.6,143.8l-1.9-0.2"/>
<path id="Layer0_13_MEMBER_1_MEMBER_65_1_STROKES" class="st2" d="M131.9,144.2l-2-0.2"/>
<path id="Layer0_13_MEMBER_1_MEMBER_66_1_STROKES" class="st2" d="M132.2,137.4l0.4,0.8l0.2,1l-0.1,1.1l-0.4,1l-0.5,0.7l-0.6,0.3"/>
<path id="Layer0_13_MEMBER_1_MEMBER_67_1_STROKES" class="st2" d="M131.9,144.2l0.6,0.4l0.4,0.8l0.1,1l-0.1,1.1l-0.4,1l-0.4,0.5"/>
<path id="Layer0_13_MEMBER_1_MEMBER_68_1_STROKES" class="st2" d="M130,137l0.2,0.1l0.4,0.8l0.2,1l-0.1,1.1l-0.4,1l-0.5,0.7"/>
<path id="Layer0_13_MEMBER_1_MEMBER_69_1_STROKES" class="st2" d="M129.4,137.7l0.2,0.1l0.4,0.4l0.2,0.7l-0.1,0.9l-0.3,0.7l-0.2,0.2
	"/>
<path id="Layer0_13_MEMBER_1_MEMBER_70_1_STROKES" class="st2" d="M129.6,145.1h0.2l0.4,0.4l0.2,0.7l-0.1,0.8l-0.3,0.7l-0.4,0.4"/>
<path id="Layer0_13_MEMBER_1_MEMBER_71_1_STROKES" class="st2" d="M127.9,136.9l0.4,0.8l0.1,1.1l-0.1,1.1l-0.4,1l-0.5,0.7l-0.6,0.3"
	/>
<path id="Layer0_13_MEMBER_1_MEMBER_72_1_STROKES" class="st2" d="M127.6,143.8l0.6,0.4l0.4,0.8l0.2,1l-0.1,1.1l-0.4,1l-0.4,0.5"/>
<path id="Layer0_13_MEMBER_1_MEMBER_73_1_STROKES" class="st2" d="M125.9,136.7c0.9,1.2,0.9,2.5,0,4.1c-0.4,0.6-0.8,0.9-1.2,0.9
	c-0.5,0-0.9-0.5-1.2-1.4"/>
<path id="Layer0_13_MEMBER_1_MEMBER_74_1_STROKES" class="st2" d="M124.8,140.7c-0.3,0-0.5-0.2-0.7-0.6c-0.1-0.4-0.2-0.8-0.2-1.2
	c0-0.5,0.2-0.9,0.4-1.2c0.2-0.3,0.5-0.5,0.7-0.4c0.3,0,0.5,0.2,0.7,0.6c0.1,0.3,0.2,0.8,0.2,1.2c0,0.5-0.2,0.9-0.4,1.2
	C125.4,140.6,125.1,140.7,124.8,140.7z"/>
<path id="Layer0_13_MEMBER_1_MEMBER_75_1_STROKES" class="st2" d="M123.5,146.9c0.2-1.5,0.6-2.5,1.1-3s0.9-0.5,1.4-0.1
	s0.8,0.9,0.8,1.8c0.1,0.9-0.2,1.8-0.8,2.7"/>
<path id="Layer0_13_MEMBER_1_MEMBER_76_1_STROKES" class="st2" d="M126,145.2l0.2,0.7l-0.1,0.8l-0.3,0.7l-0.4,0.4l-0.5-0.1l-0.4-0.5
	l-0.1-0.7l0.1-0.8l0.3-0.6l0.4-0.4l0.5,0.1L126,145.2z"/>
<path id="Layer0_13_MEMBER_1_MEMBER_77_1_STROKES" class="st2" d="M200.9,26.5c0.8-0.3,1.8,0.4,2.8,1.8c1.1,1.5,2,3.4,2.8,5.7
	c0.7,2.3,1.1,4.4,1.1,6.3c0,1.8-0.5,2.9-1.2,3.1"/>
<path id="Layer0_13_MEMBER_1_MEMBER_78_1_STROKES" class="st2" d="M210.3,45.6l10-3.2"/>
<path id="Layer0_13_MEMBER_1_MEMBER_79_1_STROKES" class="st2" d="M202.9,22.7l2-0.6"/>
<path id="Layer0_13_MEMBER_1_MEMBER_80_1_STROKES" class="st2" d="M202.6,22.8l2-0.6"/>
<path id="Layer0_13_MEMBER_1_MEMBER_81_1_STROKES" class="st2" d="M210,45.8l2-0.6"/>
<path id="Layer0_13_MEMBER_1_MEMBER_82_1_STROKES" class="st2" d="M200.9,26.6c0.1-2.2,0.7-3.4,1.7-3.7l0.4-0.1"/>
<path id="Layer0_13_MEMBER_1_MEMBER_83_1_STROKES" class="st2" d="M210,45.8c-1,0.4-2.3-0.4-3.7-2.3"/>
<path id="Layer0_13_MEMBER_1_MEMBER_84_1_STROKES" class="st2" d="M204.2,22.3l0.3-0.1c1.1-0.4,2.4,0.5,3.9,2.5s2.8,4.6,3.8,7.7
	c1,3.2,1.5,6,1.5,8.5s-0.6,3.9-1.7,4.3"/>
<path id="Layer0_13_MEMBER_1_MEMBER_85_1_STROKES" class="st2" d="M212,45.1l-0.2,0.1"/>
<path id="Layer0_13_MEMBER_1_MEMBER_86_1_STROKES" class="st2" d="M204.6,22.2l8.1-2.6"/>
<path id="Layer0_13_MEMBER_1_MEMBER_87_1_STROKES" class="st2" d="M212.6,19.6l0.3-0.1c1.1-0.3,2.4,0.5,3.9,2.5s2.8,4.6,3.8,7.7
	c1,3.2,1.5,6,1.5,8.5s-0.6,3.9-1.7,4.3"/>
<path id="Layer0_13_MEMBER_1_MEMBER_88_1_STROKES" class="st2" d="M90.9,152.7c-0.3,0.1-0.6,0.1-0.8,0.1c-0.3,0-0.5-0.1-0.7-0.2"/>
<path id="Layer0_13_MEMBER_1_MEMBER_89_1_STROKES" class="st2" d="M200.9,26.5L159.2,40"/>
<path id="Layer0_13_MEMBER_1_MEMBER_90_1_STROKES" class="st2" d="M206.4,43.5L164.6,57"/>
<path id="Layer0_13_MEMBER_1_MEMBER_91_1_STROKES" class="st2" d="M146.6,43.9l1.9-0.6"/>
<path id="Layer0_13_MEMBER_1_MEMBER_92_1_STROKES" class="st2" d="M152.1,60.9l1.8-0.6"/>
<path id="Layer0_13_MEMBER_1_MEMBER_93_1_STROKES" class="st2" d="M152.1,60.8c-0.8,0.3-1.8-0.4-2.8-1.8c-1.1-1.5-2-3.4-2.8-5.7
	c-0.7-2.3-1.1-4.4-1.1-6.2s0.5-2.9,1.2-3.1"/>
<path id="Layer0_13_MEMBER_1_MEMBER_94_1_STROKES" class="st2" d="M157.9,62.4l2-0.6"/>
<path id="Layer0_13_MEMBER_1_MEMBER_95_1_STROKES" class="st2" d="M150.5,39.6l2-0.6"/>
<path id="Layer0_13_MEMBER_1_MEMBER_96_1_STROKES" class="st2" d="M150.2,39.6l2-0.6"/>
<path id="Layer0_13_MEMBER_1_MEMBER_97_1_STROKES" class="st2" d="M157.6,62.6l2-0.6"/>
<path id="Layer0_13_MEMBER_1_MEMBER_98_1_STROKES" class="st2" d="M157.9,62.4l-0.2,0.1l-0.2,0.1"/>
<path id="Layer0_13_MEMBER_1_MEMBER_99_1_STROKES" class="st2" d="M157.6,62.6c-1.1,0.4-2.4-0.5-3.9-2.5s-2.8-4.6-3.8-7.7
	c-1-3.2-1.5-6-1.5-8.5s0.6-3.9,1.7-4.3l0.4-0.1"/>
<path id="Layer0_13_MEMBER_1_MEMBER_100_1_STROKES" class="st2" d="M159.9,61.8l-0.2,0.1l-0.2,0.1"/>
<path id="Layer0_13_MEMBER_1_MEMBER_101_1_STROKES" class="st2" d="M159.6,62c-1.1,0.4-2.4-0.5-3.9-2.5s-2.8-4.6-3.8-7.7
	c-1-3.2-1.5-6-1.5-8.5s0.6-3.9,1.7-4.3l0.4-0.1"/>
<path id="Layer0_13_MEMBER_1_MEMBER_102_1_STROKES" class="st2" d="M152.1,39l6-2"/>
<path id="Layer0_13_MEMBER_1_MEMBER_103_1_STROKES" class="st2" d="M159.6,62l6-2"/>
<path id="Layer0_13_MEMBER_1_MEMBER_104_1_STROKES" class="st2" d="M164.6,57c-0.8,0.3-1.8-0.4-2.8-1.8c-1.1-1.5-2-3.4-2.8-5.7
	c-0.7-2.3-1.1-4.4-1.1-6.2s0.5-2.9,1.2-3.2"/>
<path id="Layer0_13_MEMBER_1_MEMBER_105_1_STROKES" class="st2" d="M167.3,56.1c-0.1,2.3-0.7,3.6-1.7,3.9"/>
<path id="Layer0_13_MEMBER_1_MEMBER_106_1_STROKES" class="st2" d="M165.6,60c-1.1,0.3-2.4-0.5-3.9-2.5s-2.8-4.6-3.8-7.7
	c-1-3.2-1.5-6-1.5-8.5s0.6-3.9,1.7-4.3c1-0.3,2.3,0.4,3.6,2.2"/>
<path id="Layer0_13_MEMBER_1_MEMBER_107_1_STROKES" class="st2" d="M146.6,43.9L110.2,55"/>
<path id="Layer0_13_MEMBER_1_MEMBER_108_1_STROKES" class="st2" d="M152.1,60.9l-35,10.5"/>
<path id="Layer0_13_MEMBER_1_MEMBER_109_1_STROKES" class="st2" d="M267.8,26l-6.1,2"/>
<path id="Layer0_13_MEMBER_1_MEMBER_110_1_STROKES" class="st2" d="M261.4,25.8l2.5-0.8"/>
<path id="Layer0_13_MEMBER_1_MEMBER_111_1_STROKES" class="st2" d="M264.9,15.7c0.6,2.9,0.6,5.4,0,7.5c-0.6,1.9-1.6,3.1-3,3.6
	s-3,0.3-4.6-0.8c-1.8-1.2-3.3-3.2-4.6-6c-1-2.2-1.5-4.5-1.6-7c-0.1-3,0.6-5.2,2-6.7c1.5-1.4,3.2-1.6,5.1-0.6c1.5,0.8,2.9,2,4.1,3.8"
	/>
<path id="Layer0_13_MEMBER_1_MEMBER_112_1_STROKES" class="st2" d="M265.4,15.3c0.8,3.2,0.8,6,0.2,8.4c-0.6,2.1-1.7,3.5-3.3,4.2
	c-1.6,0.6-3.3,0.3-5-0.9c-2-1.3-3.7-3.6-5.1-6.7c-1.1-2.4-1.6-5-1.7-7.7c-0.1-3.2,0.7-5.6,2.3-7.2c1.6-1.4,3.4-1.6,5.5-0.6
	c1.7,0.9,3.2,2.2,4.4,4.1"/>
<path id="Layer0_13_MEMBER_1_MEMBER_113_1_STROKES" class="st2" d="M262.9,13.5c0.9,2.1,1.2,4.2,1.1,6.2c-0.2,1.9-0.8,3.3-1.8,4.3
	s-2.3,1.2-3.6,0.6c-1.6-0.7-3.1-2.3-4.5-4.8c-0.9-1.8-1.4-3.7-1.6-5.7c-0.2-2.4,0.3-4.3,1.3-5.6c1.2-1.4,2.6-1.6,4.4-0.8
	c1.4,0.7,2.6,1.8,3.5,3.4"/>
<path id="Layer0_13_MEMBER_1_MEMBER_114_1_STROKES" class="st2" d="M265.4,15.3l-0.1-1.1"/>
<path id="Layer0_13_MEMBER_1_MEMBER_115_1_STROKES" class="st2" d="M261.7,11.1l1.5-0.5"/>
<path id="Layer0_13_MEMBER_1_MEMBER_116_1_STROKES" class="st2" d="M262.9,13.5l1.7-0.6"/>
<path id="Layer0_13_MEMBER_1_MEMBER_117_1_STROKES" class="st2" d="M255.8,6.3l2.2-0.7"/>
<path id="Layer0_13_MEMBER_1_MEMBER_118_1_STROKES" class="st2" d="M263.3,21.4c-1.5-1.3-2.6-3.2-3.4-5.8c-0.8-2.5-0.9-4.8-0.4-6.7"
	/>
<path id="Layer0_13_MEMBER_1_MEMBER_119_1_STROKES" class="st2" d="M273.1,23.1l-0.5,0.5l-1.3,0.4l-0.4-0.2"/>
<path id="Layer0_13_MEMBER_1_MEMBER_120_1_STROKES" class="st2" d="M262.9,6.1l-5.1-1.5"/>
<path id="Layer0_13_MEMBER_1_MEMBER_121_1_STROKES" class="st2" d="M263.2,5.3l-5-1.5"/>
<path id="Layer0_13_MEMBER_1_MEMBER_124_1_STROKES" class="st2" d="M270.2,22.9l-0.7,1.4l-1.1,1.3l-0.7,0.4"/>
<path id="Layer0_13_MEMBER_1_MEMBER_125_1_STROKES" class="st2" d="M269.6,15.5c-0.4,0.9-0.6,1.4-0.6,1.5c-0.1,0.5-0.1,1,0.1,1.6"/>
<path id="Layer0_13_MEMBER_1_MEMBER_126_1_STROKES" class="st2" d="M273.6,14.3c-0.3,0.7-0.7,1.5-1,2.6"/>
<path id="Layer0_13_MEMBER_1_MEMBER_127_1_STROKES" class="st2" d="M270.2,21.8l0.6,2"/>
<path id="Layer0_13_MEMBER_1_MEMBER_128_1_STROKES" class="st2" d="M272.4,21.2l0.6,1.9"/>
<path id="Layer0_13_MEMBER_1_MEMBER_129_1_STROKES" class="st2" d="M272.4,20.4l-0.5-1.8"/>
<path id="Layer0_13_MEMBER_1_MEMBER_130_1_STROKES" class="st2" d="M270,21.2l-0.6-1.7"/>
<path id="Layer0_13_MEMBER_1_MEMBER_131_1_STROKES" class="st2" d="M272.9,18.3l0.7,2.1L273,21l-3.3,0.8l-0.6-0.2l-0.7-2.1l0.8-0.8
	l2.9-0.8L272.9,18.3z"/>
<path id="Layer0_13_MEMBER_1_MEMBER_133_1_STROKES" class="st2" d="M272.4,20.3l0.6,0.3l0.4-0.3"/>
<path id="Layer0_13_MEMBER_1_MEMBER_134_1_STROKES" class="st2" d="M271.8,18.7l0.9-0.4"/>
<path id="Layer0_13_MEMBER_1_MEMBER_135_1_STROKES" class="st2" d="M269.4,19.5l1.1-0.9h1.4"/>
<path id="Layer0_13_MEMBER_1_MEMBER_136_1_STROKES" class="st2" d="M268.5,19.4h0.9"/>
<path id="Layer0_13_MEMBER_1_MEMBER_137_1_STROKES" class="st2" d="M269.9,21.1l-0.7,0.6"/>
<path id="Layer0_13_MEMBER_1_MEMBER_138_1_STROKES" class="st2" d="M272.4,20.4l-1.1,0.8H270"/>
<path id="Layer0_13_MEMBER_1_MEMBER_139_1_STROKES" class="st2" d="M266.7,19.2l0.4-1.9l0.7-1.4"/>
<path id="Layer0_13_MEMBER_1_MEMBER_140_1_STROKES" class="st2" d="M266,19.3l0.3-2l0.8-1.9"/>
<path id="Layer0_13_MEMBER_1_MEMBER_141_1_STROKES" class="st2" d="M271.7,14.8l-0.5,0.8"/>
<path id="Layer0_13_MEMBER_1_MEMBER_143_1_STROKES" class="st2" d="M266.7,4.9l-1,0.3"/>
<path id="Layer0_13_MEMBER_1_MEMBER_144_1_STROKES" class="st2" d="M268.1,7.6L267.7,7l-0.5-0.1"/>
<path id="Layer0_13_MEMBER_1_MEMBER_145_1_STROKES" class="st2" d="M269.6,10.5l0.7,0.2l0.7,0.6l0.5,0.9l0.3,1.1l0.1,1l-0.2,0.6"/>
<path id="Layer0_13_MEMBER_1_MEMBER_146_1_STROKES" class="st2" d="M266.4,22.6l2.4-0.7"/>
<path id="Layer0_13_MEMBER_1_MEMBER_147_1_STROKES" class="st2" d="M265.9,22.1l0.5,0.6l0.3-3.5"/>
<path id="Layer0_13_MEMBER_1_MEMBER_148_1_STROKES" class="st2" d="M266.9,11.2l-0.6-1.6"/>
<path id="Layer0_13_MEMBER_1_MEMBER_149_1_STROKES" class="st2" d="M268.1,7.6l3.5,10.5"/>
<path id="Layer0_13_MEMBER_1_MEMBER_150_1_STROKES" class="st2" d="M265.9,9.7l-1.9,0.5"/>
<path id="Layer0_13_MEMBER_1_MEMBER_151_1_STROKES" class="st2" d="M270,8.4l-1.3,0.4"/>
<path id="Layer0_13_MEMBER_1_MEMBER_152_1_STROKES" class="st2" d="M267.5,11.2l-1.9,0.6"/>
<path id="Layer0_13_MEMBER_1_MEMBER_153_1_STROKES" class="st2" d="M271.6,9.9l-2,0.6"/>
<path id="Layer0_13_MEMBER_1_MEMBER_154_1_STROKES" class="st2" d="M269.2,3.5l0.6,0.6l0.5,0.9l0.4,1.1v1L270.4,8L270,8.4"/>
<path id="Layer0_13_MEMBER_1_MEMBER_155_1_STROKES" class="st2" d="M271.6,9.9l0.7,0.2l0.7,0.6l0.5,0.9l0.4,1.1v1.1l-0.2,0.6"/>
<path id="Layer0_13_MEMBER_1_MEMBER_156_1_STROKES" class="st2" d="M267,4h0.2l0.7,0.6l0.5,0.9l0.3,1.1v1.1l-0.2,0.8"/>
<path id="Layer0_13_MEMBER_1_MEMBER_157_1_STROKES" class="st2" d="M266.7,4.9l0.2-0.1l0.5,0.3l0.4,0.6l0.3,0.8v0.8L268,7.6"/>
<path id="Layer0_13_MEMBER_1_MEMBER_158_1_STROKES" class="st2" d="M269.8,11.6h0.2l0.5,0.3l0.4,0.6l0.2,0.8V14l-0.3,0.5"/>
<path id="Layer0_13_MEMBER_1_MEMBER_159_1_STROKES" class="st2" d="M265.1,4.8l0.7,0.6l0.5,0.9l0.3,1.1v1.1l-0.2,0.8l-0.5,0.5"/>
<path id="Layer0_13_MEMBER_1_MEMBER_160_1_STROKES" class="st2" d="M267.5,11.2l0.7,0.2l0.7,0.6l0.5,0.9l0.3,1.1l0.1,1.1l-0.2,0.6"
	/>
<path id="Layer0_13_MEMBER_1_MEMBER_161_1_STROKES" class="st2" d="M263.2,5.3l0.7,0.6l0.5,0.9l0.3,1.1V9c-0.1,0.8-0.4,1.3-0.9,1.4
	c-0.5,0.1-1-0.2-1.5-0.8"/>
<path id="Layer0_13_MEMBER_1_MEMBER_162_1_STROKES" class="st2" d="M262.1,8c-0.1-0.5-0.2-0.9-0.1-1.2c0.1-0.4,0.3-0.6,0.5-0.7
	c0.3-0.1,0.5,0,0.8,0.3c0.3,0.3,0.5,0.6,0.6,1.1c0.1,0.5,0.2,0.9,0.1,1.3c-0.1,0.4-0.3,0.6-0.5,0.7c-0.3,0.1-0.5,0-0.8-0.3
	C262.5,8.9,262.3,8.5,262.1,8z"/>
<path id="Layer0_13_MEMBER_1_MEMBER_163_1_STROKES" class="st2" d="M264.9,15.7c-0.4-1.4-0.5-2.5-0.2-3.2c0.3-0.6,0.7-0.8,1.2-0.7
	c0.6,0.2,1.1,0.6,1.4,1.3c0.4,0.8,0.5,1.8,0.3,2.8"/>
<path id="Layer0_13_MEMBER_1_MEMBER_164_1_STROKES" class="st2" d="M265.3,13.4l0.3-0.5l0.4-0.1l0.5,0.3l0.4,0.6l0.2,0.8v0.7
	l-0.3,0.5l-0.4,0.1l-0.5-0.3l-0.4-0.6l-0.3-0.8L265.3,13.4z"/>
<path id="Layer0_13_MEMBER_1_MEMBER_165_1_STROKES" class="st2" d="M98,60l1.8-0.8"/>
<path id="Layer0_13_MEMBER_1_MEMBER_166_1_STROKES" class="st2" d="M105,76.4l1.7-0.7"/>
<path id="Layer0_13_MEMBER_1_MEMBER_167_1_STROKES" class="st2" d="M105,76.4c-0.8,0.3-1.8-0.2-3-1.5c-1.2-1.4-2.3-3.2-3.3-5.4
	c-1-2.3-1.5-4.3-1.6-6.1c-0.1-1.8,0.2-2.9,1-3.2"/>
<path id="Layer0_13_MEMBER_1_MEMBER_168_1_STROKES" class="st2" d="M110.9,77.5l1.9-0.8"/>
<path id="Layer0_13_MEMBER_1_MEMBER_169_1_STROKES" class="st2" d="M101.5,55.3l1.9-0.8"/>
<path id="Layer0_13_MEMBER_1_MEMBER_170_1_STROKES" class="st2" d="M101.2,55.4l1.9-0.8"/>
<path id="Layer0_13_MEMBER_1_MEMBER_171_1_STROKES" class="st2" d="M110.6,77.6l1.9-0.8"/>
<path id="Layer0_13_MEMBER_1_MEMBER_172_1_STROKES" class="st2" d="M110.9,77.5L110.9,77.5l-0.3,0.2"/>
<path id="Layer0_13_MEMBER_1_MEMBER_173_1_STROKES" class="st2" d="M110.6,77.6c-1.1,0.4-2.4-0.3-4.1-2.1c-1.7-1.9-3.1-4.3-4.4-7.4
	c-1.3-3.1-2-5.8-2.2-8.3c-0.2-2.5,0.2-4,1.3-4.4c0.1-0.1,0.2-0.1,0.4-0.1"/>
<path id="Layer0_13_MEMBER_1_MEMBER_174_1_STROKES" class="st2" d="M112.7,76.7L112.7,76.7L112.7,76.7L112.7,76.7L112.7,76.7
	L112.7,76.7"/>
<path id="Layer0_13_MEMBER_1_MEMBER_175_1_STROKES" class="st2" d="M112.5,76.8c-1.1,0.4-2.4-0.3-4.1-2.1c-1.7-1.9-3.1-4.3-4.4-7.4
	s-2-5.8-2.2-8.3c-0.2-2.5,0.3-4,1.3-4.4l0.4-0.1"/>
<path id="Layer0_13_MEMBER_1_MEMBER_176_1_STROKES" class="st2" d="M103.1,54.6l5.9-2.5"/>
<path id="Layer0_13_MEMBER_1_MEMBER_177_1_STROKES" class="st2" d="M112.5,76.8l5.8-2.5"/>
<path id="Layer0_13_MEMBER_1_MEMBER_178_1_STROKES" class="st2" d="M117.1,71.4c-0.8,0.3-1.8-0.2-3-1.5c-1.2-1.4-2.3-3.2-3.3-5.4
	c-1-2.3-1.5-4.3-1.6-6.1c-0.1-1.8,0.2-2.9,1-3.2l0.2-0.1"/>
<path id="Layer0_13_MEMBER_1_MEMBER_179_1_STROKES" class="st2" d="M119.7,70.6c0,2.1-0.4,3.3-1.3,3.7"/>
<path id="Layer0_13_MEMBER_1_MEMBER_180_1_STROKES" class="st2" d="M118.4,74.4c-1.1,0.4-2.4-0.3-4.1-2.1c-1.7-1.9-3.1-4.3-4.4-7.4
	c-1.3-3.1-2-5.8-2.2-8.3c-0.2-2.5,0.3-4,1.3-4.4c1.1-0.4,2.4,0.3,4.1,2.1"/>
<path id="Layer0_13_MEMBER_1_MEMBER_181_1_STROKES" class="st2" d="M98,60c-3.7,0.9-7.2,2.6-10.4,5.3l-3.1,3l-2.9,3.9l-2.4,4.9
	l-1.7,6"/>
<path id="Layer0_13_MEMBER_1_MEMBER_182_1_STROKES" class="st2" d="M105,76.4c-2.3,0.2-4.4,1.6-6.2,4.1c-1.5,1.9-2.6,4.2-3.4,6.9
	L94.2,92"/>
<path id="Layer0_13_MEMBER_1_MEMBER_183_1_STROKES" class="st2" d="M87.7,121.7c-1,3.5-1.1,6.4-0.2,9l1,1.9l1.6,1.5l2.3,1"/>
<path id="Layer0_13_MEMBER_1_MEMBER_184_1_STROKES" class="st2" d="M70.5,117.7l-0.3,1.2l-1,7.5l0.1,5.3l1,5.6l2.3,5.4l4,4.8
	l6.1,3.5l8.5,1.8"/>
<path id="Layer0_13_MEMBER_1_MEMBER_185_1_STROKES" class="st2" d="M94.2,92l-6.5,29.6"/>
<path id="Layer0_13_MEMBER_1_MEMBER_186_1_STROKES" class="st2" d="M77.6,83.2l-7,34.5"/>
<path d="M254.1,17.8l0.1,0.2l-4.4,1.7l-0.1-0.2L254.1,17.8z"/>
<path id="Layer0_13_MEMBER_1_MEMBER_188_1_STROKES" class="st3" d="M254.1,17.8l-4.4,1.7l0.1,0.2l4.4-1.7L254.1,17.8z"/>
<path d="M255.3,17.6l-0.1-0.2l1.1-0.4v0.2L255.3,17.6z"/>
<path id="Layer0_13_MEMBER_1_MEMBER_190_1_STROKES" class="st3" d="M255.3,17.6l1.1-0.4V17l-1.1,0.4V17.6z"/>
<path d="M257.5,16.7l-0.1-0.2l4.4-1.7l0.1,0.2L257.5,16.7z"/>
<path id="Layer0_13_MEMBER_1_MEMBER_192_1_STROKES" class="st3" d="M257.5,16.7l4.4-1.7l-0.1-0.2l-4.4,1.7L257.5,16.7z"/>
<path d="M105.4,144.5v-0.2l5.5,0.4v0.2L105.4,144.5z"/>
<path id="Layer0_13_MEMBER_1_MEMBER_194_1_STROKES" class="st3" d="M105.4,144.5l5.5,0.4v-0.2l-5.5-0.4V144.5z"/>
<path d="M112.2,144.9v-0.2l1.3,0.1v0.2L112.2,144.9z"/>
<path id="Layer0_13_MEMBER_1_MEMBER_196_1_STROKES" class="st3" d="M112.2,144.9l1.4,0.1v-0.2l-1.3-0.1L112.2,144.9z"/>
<path d="M120.4,145.3v0.2l-5.4-0.4v-0.2L120.4,145.3z"/>
<path id="Layer0_13_MEMBER_1_MEMBER_198_1_STROKES" class="st3" d="M120.5,145.3l-5.5-0.4v0.2l5.4,0.4L120.5,145.3z"/>
</svg>
