<?xml version="1.0" encoding="utf-8"?>
<!-- Generator: Adobe Illustrator 24.2.3, SVG Export Plug-In . SVG Version: 6.00 Build 0)  -->
<svg version="1.1" id="Ebene_1" xmlns="http://www.w3.org/2000/svg" xmlns:xlink="http://www.w3.org/1999/xlink" x="0px" y="0px"
	 viewBox="0 0 349.1 166" style="enable-background:new 0 0 349.1 166;" xml:space="preserve">
<style type="text/css">
	.st0{fill:#F2AA0B;}
	.st1{fill:#0099FF;}
	.st2{fill:none;stroke:#000000;stroke-width:0.53;stroke-miterlimit:5;}
</style>
<polygon class="st0" points="138.2,157.3 241.4,98.8 241.4,105.4 139,164.5 "/>
<polygon class="st1" points="241.4,98.8 139,157.8 138.2,157.3 138.2,51.8 138.5,50.7 140.5,49.1 194,12.7 195,12.6 200.7,15.5 
	202.8,16.8 202.8,18.3 194.9,23.7 195.8,24.8 197.5,25 200.3,24.2 240.6,1.9 241.4,2.4 "/>
<line class="st2" x1="241.4" y1="98.8" x2="241.4" y2="2.4"/>
<line class="st2" x1="139" y1="157.8" x2="139" y2="63.9"/>
<line class="st2" x1="241.4" y1="98.8" x2="139" y2="157.8"/>
<line class="st2" x1="138.2" y1="63.5" x2="138.2" y2="157.3"/>
<line class="st2" x1="139" y1="157.8" x2="138.2" y2="157.3"/>
<line class="st2" x1="240.6" y1="1.9" x2="200.3" y2="24.2"/>
<polyline class="st2" points="144.7,58.3 144.9,57.7 145.3,57.2 145.8,57.2 146,57.6 145.8,58.2 145.3,58.7 144.9,58.7 144.7,58.3 
	"/>
<polyline class="st2" points="144.8,58.1 144.9,57.7 145.2,57.4 145.5,57.4 145.6,57.6 145.5,58 145.2,58.3 144.9,58.4 144.8,58.1 
	"/>
<polyline class="st2" points="155.9,52.1 156.1,51.5 156.6,51 157,51 157.2,51.4 157,52 156.6,52.5 156.1,52.5 155.9,52.1 "/>
<polyline class="st2" points="156,51.9 156.1,51.5 156.4,51.2 156.7,51.1 156.8,51.4 156.7,51.8 156.4,52.1 156.1,52.1 156,51.9 "/>
<polyline class="st2" points="167.2,45.9 167.3,45.3 167.8,44.8 168.2,44.8 168.4,45.2 168.2,45.8 167.8,46.2 167.3,46.3 
	167.2,45.9 "/>
<polyline class="st2" points="167.2,45.7 167.3,45.3 167.6,44.9 167.9,44.9 168,45.2 167.9,45.6 167.6,45.9 167.3,45.9 167.2,45.7 
	"/>
<polyline class="st2" points="178.4,39.7 178.6,39.1 179,38.6 179.5,38.5 179.6,38.9 179.5,39.6 179,40 178.6,40.1 178.4,39.7 "/>
<polyline class="st2" points="178.4,39.5 178.5,39 178.8,38.7 179.1,38.7 179.2,39 179.1,39.4 178.8,39.7 178.5,39.7 178.4,39.5 "/>
<polyline class="st2" points="189.6,33.5 189.8,32.8 190.2,32.4 190.7,32.4 190.9,32.7 190.7,33.4 190.2,33.8 189.8,33.9 
	189.6,33.5 "/>
<polyline class="st2" points="189.6,33.2 189.8,32.8 190.1,32.5 190.3,32.5 190.5,32.8 190.3,33.2 190.1,33.5 189.8,33.5 
	189.6,33.2 "/>
<polyline class="st2" points="200.8,27.3 201,26.6 201.5,26.2 201.9,26.1 202.1,26.5 201.9,27.1 201.5,27.6 201,27.6 200.8,27.3 "/>
<polyline class="st2" points="200.9,27 201,26.6 201.3,26.3 201.6,26.3 201.7,26.6 201.6,27 201.3,27.3 201,27.3 200.9,27 "/>
<polyline class="st2" points="212,21 212.2,20.4 212.7,20 213.1,19.9 213.3,20.3 213.1,20.9 212.7,21.4 212.2,21.4 212,21 "/>
<polyline class="st2" points="212.1,20.8 212.2,20.4 212.5,20.1 212.8,20.1 212.9,20.3 212.8,20.7 212.5,21.1 212.2,21.1 
	212.1,20.8 "/>
<polyline class="st2" points="223.3,14.8 223.5,14.2 223.9,13.7 224.3,13.7 224.5,14.1 224.3,14.7 223.9,15.2 223.5,15.2 
	223.3,14.8 "/>
<polyline class="st2" points="223.3,14.6 223.4,14.2 223.7,13.9 224,13.8 224.1,14.1 224,14.5 223.7,14.8 223.4,14.9 223.3,14.6 "/>
<polyline class="st2" points="234.5,8.6 234.7,8 235.1,7.5 235.6,7.5 235.7,7.9 235.6,8.5 235.1,9 234.7,9 234.5,8.6 "/>
<polyline class="st2" points="234.5,8.4 234.6,8 234.9,7.7 235.2,7.6 235.3,7.9 235.2,8.3 234.9,8.6 234.6,8.7 234.5,8.4 "/>
<polyline class="st2" points="238.7,11.1 238.9,10.5 239.3,10 239.8,10 240,10.4 239.8,11 239.3,11.5 238.9,11.5 238.7,11.1 "/>
<polyline class="st2" points="238.7,10.9 238.9,10.5 239.1,10.2 239.4,10.1 239.6,10.4 239.4,10.8 239.1,11.1 238.9,11.2 
	238.7,10.9 "/>
<polyline class="st2" points="238.7,25 238.9,24.4 239.3,24 239.8,23.9 240,24.3 239.8,24.9 239.3,25.4 238.9,25.5 238.7,25 "/>
<polyline class="st2" points="238.7,24.8 238.9,24.4 239.1,24.1 239.4,24.1 239.6,24.4 239.4,24.8 239.1,25.1 238.9,25.1 
	238.7,24.8 "/>
<polyline class="st2" points="238.7,39 238.9,38.4 239.3,37.9 239.8,37.9 240,38.3 239.8,38.9 239.3,39.3 238.9,39.4 238.7,39 "/>
<polyline class="st2" points="238.7,38.8 238.9,38.4 239.1,38 239.4,38 239.6,38.3 239.4,38.7 239.1,39 238.9,39 238.7,38.8 "/>
<polyline class="st2" points="238.7,52.9 238.9,52.3 239.3,51.8 239.8,51.8 240,52.2 239.8,52.8 239.3,53.3 238.9,53.3 238.7,52.9 
	"/>
<polyline class="st2" points="238.7,52.7 238.9,52.3 239.1,52 239.4,52 239.6,52.2 239.4,52.6 239.1,52.9 238.9,53 238.7,52.7 "/>
<polyline class="st2" points="238.7,66.8 238.9,66.3 239.3,65.8 239.8,65.7 240,66.1 239.8,66.7 239.3,67.2 238.9,67.2 238.7,66.8 
	"/>
<polyline class="st2" points="238.7,66.6 238.9,66.2 239.1,65.9 239.4,65.9 239.6,66.2 239.4,66.6 239.1,66.9 238.9,66.9 
	238.7,66.6 "/>
<polyline class="st2" points="238.7,80.8 238.9,80.2 239.3,79.7 239.8,79.7 240,80.1 239.8,80.7 239.3,81.1 238.9,81.2 238.7,80.8 
	"/>
<polyline class="st2" points="238.7,80.6 238.9,80.2 239.1,79.8 239.4,79.8 239.6,80.1 239.4,80.5 239.1,80.8 238.9,80.8 
	238.7,80.6 "/>
<polyline class="st2" points="234.5,88 234.7,87.4 235.2,86.9 235.6,86.9 235.8,87.3 235.6,87.9 235.2,88.4 234.7,88.4 234.5,88 "/>
<polyline class="st2" points="234.6,87.8 234.7,87.4 235,87 235.3,87 235.4,87.3 235.3,87.7 235,88 234.7,88 234.6,87.8 "/>
<polyline class="st2" points="221.7,95.4 221.9,94.8 222.3,94.3 222.8,94.3 223,94.7 222.8,95.3 222.3,95.8 221.9,95.8 221.7,95.4 
	"/>
<polyline class="st2" points="221.7,95.2 221.9,94.8 222.1,94.5 222.4,94.4 222.6,94.7 222.4,95.1 222.1,95.4 221.9,95.4 
	221.7,95.2 "/>
<polyline class="st2" points="208.8,102.8 209,102.2 209.5,101.7 209.9,101.7 210.1,102.1 209.9,102.7 209.5,103.2 209,103.2 
	208.8,102.8 "/>
<polyline class="st2" points="208.9,102.6 209,102.2 209.3,101.9 209.6,101.9 209.7,102.1 209.6,102.5 209.3,102.8 209,102.9 
	208.9,102.6 "/>
<polyline class="st2" points="196,110.2 196.2,109.6 196.6,109.1 197.1,109.1 197.3,109.5 197.1,110.1 196.6,110.6 196.2,110.6 
	196,110.2 "/>
<polyline class="st2" points="196.1,110 196.2,109.6 196.5,109.3 196.8,109.3 196.9,109.5 196.8,109.9 196.5,110.3 196.2,110.3 
	196.1,110 "/>
<polyline class="st2" points="183.2,117.6 183.4,117 183.8,116.6 184.2,116.5 184.4,116.9 184.2,117.5 183.8,118 183.4,118 
	183.2,117.6 "/>
<polyline class="st2" points="183.2,117.4 183.3,117 183.6,116.7 183.9,116.7 184.1,116.9 183.9,117.3 183.6,117.7 183.3,117.7 
	183.2,117.4 "/>
<polyline class="st2" points="170.3,125.1 170.5,124.4 171,124 171.4,123.9 171.6,124.3 171.4,124.9 171,125.4 170.5,125.5 
	170.3,125.1 "/>
<polyline class="st2" points="170.4,124.8 170.5,124.4 170.8,124.1 171.1,124.1 171.2,124.4 171.1,124.8 170.8,125.1 170.5,125.1 
	170.4,124.8 "/>
<polyline class="st2" points="157.5,132.5 157.7,131.9 158.1,131.4 158.6,131.3 158.7,131.7 158.6,132.4 158.1,132.8 157.7,132.9 
	157.5,132.5 "/>
<polyline class="st2" points="157.5,132.3 157.7,131.8 158,131.5 158.3,131.5 158.4,131.8 158.3,132.2 158,132.5 157.7,132.5 
	157.5,132.3 "/>
<polyline class="st2" points="148.3,137.8 148.5,137.2 148.9,136.7 149.4,136.7 149.6,137.1 149.4,137.7 148.9,138.1 148.5,138.2 
	148.3,137.8 "/>
<polyline class="st2" points="148.3,137.6 148.4,137.2 148.7,136.9 149,136.8 149.1,137.1 149,137.5 148.7,137.8 148.4,137.8 
	148.3,137.6 "/>
<polyline class="st2" points="140.5,142.3 140.7,141.7 141.1,141.2 141.6,141.2 141.7,141.6 141.6,142.2 141.1,142.6 140.7,142.7 
	140.5,142.3 "/>
<polyline class="st2" points="140.5,142.1 140.7,141.6 141,141.3 141.3,141.3 141.4,141.6 141.3,142 141,142.3 140.7,142.3 
	140.5,142.1 "/>
<polyline class="st2" points="140.5,129.5 140.7,128.8 141.1,128.4 141.6,128.3 141.7,128.7 141.6,129.4 141.1,129.8 140.7,129.9 
	140.5,129.5 "/>
<polyline class="st2" points="140.5,129.2 140.7,128.8 141,128.5 141.3,128.5 141.4,128.8 141.3,129.2 141,129.5 140.7,129.5 
	140.5,129.2 "/>
<polyline class="st2" points="140.5,116.6 140.7,116 141.1,115.6 141.6,115.5 141.7,115.9 141.6,116.6 141.1,117 140.7,117.1 
	140.5,116.6 "/>
<polyline class="st2" points="140.5,116.4 140.7,116 141,115.7 141.3,115.7 141.4,116 141.3,116.4 141,116.7 140.7,116.7 
	140.5,116.4 "/>
<polyline class="st2" points="140.5,103.8 140.7,103.2 141.1,102.8 141.6,102.7 141.7,103.1 141.6,103.7 141.1,104.2 140.7,104.3 
	140.5,103.8 "/>
<polyline class="st2" points="140.5,103.6 140.7,103.2 141,102.9 141.3,102.9 141.4,103.1 141.3,103.6 141,103.9 140.7,103.9 
	140.5,103.6 "/>
<polyline class="st2" points="140.5,91 140.7,90.4 141.1,89.9 141.6,89.9 141.7,90.3 141.6,90.9 141.1,91.4 140.7,91.4 140.5,91 "/>
<polyline class="st2" points="140.5,90.8 140.7,90.4 141,90.1 141.3,90.1 141.4,90.3 141.3,90.7 141,91.1 140.7,91.1 140.5,90.8 "/>
<polyline class="st2" points="140.5,78.2 140.7,77.6 141.1,77.1 141.6,77.1 141.7,77.5 141.6,78.1 141.1,78.6 140.7,78.6 
	140.5,78.2 "/>
<polyline class="st2" points="140.5,78 140.7,77.6 141,77.3 141.3,77.2 141.4,77.5 141.3,77.9 141,78.2 140.7,78.3 140.5,78 "/>
<polyline class="st2" points="140.5,65.4 140.7,64.8 141.1,64.3 141.6,64.3 141.7,64.7 141.6,65.3 141.1,65.8 140.7,65.8 
	140.5,65.4 "/>
<polyline class="st2" points="140.5,65.2 140.7,64.8 141,64.5 141.3,64.4 141.4,64.7 141.3,65.1 141,65.4 140.7,65.5 140.5,65.2 "/>
<polyline class="st2" points="176.9,70.2 177.5,68.1 179,66.6 180.5,66.4 181.1,67.8 180.5,69.8 179,71.4 177.5,71.5 176.9,70.2 "/>
<path class="st2" d="M177.2,71.2l0.6-0.1c1.5-0.6,2.6-2.6,2.4-4.2l-0.2-0.6"/>
<line class="st2" x1="241.4" y1="2.4" x2="240.6" y2="1.9"/>
<line class="st2" x1="241.4" y1="105.4" x2="139" y2="164.5"/>
<line class="st2" x1="139" y1="164.5" x2="139" y2="157.8"/>
<line class="st2" x1="139" y1="164.5" x2="138.2" y2="157.3"/>
<line class="st2" x1="241.4" y1="105.4" x2="241.4" y2="98.8"/>
<line class="st2" x1="147.7" y1="55.4" x2="147.7" y2="54.8"/>
<line class="st2" x1="138.9" y1="50.3" x2="194" y2="12.7"/>
<path class="st2" d="M194.9,23.7l0.6,0.8c1.3,1.3,2.9,1.3,4.6,0.7l1.1-0.5l40.3-22.3"/>
<line class="st2" x1="140.2" y1="51.3" x2="145.6" y2="54.4"/>
<line class="st2" x1="145.6" y1="53.1" x2="200.7" y2="15.5"/>
<polyline class="st2" points="138.9,50.3 138.7,50.4 138.5,50.7 138.3,51 138.2,51.4 138.2,51.8 "/>
<line class="st2" x1="138.2" y1="63.5" x2="138.2" y2="51.8"/>
<line class="st2" x1="145.6" y1="53.5" x2="147.7" y2="54.8"/>
<polyline class="st2" points="195.7,12.9 195.3,12.7 195,12.6 194.6,12.6 194.3,12.6 194,12.7 "/>
<line class="st2" x1="202.8" y1="18.3" x2="202.8" y2="16.8"/>
<line class="st2" x1="195.7" y1="12.9" x2="200.5" y2="15.7"/>
<polyline class="st2" points="140.2,51.3 139.9,51.2 139.6,51.1 139.4,51.2 139.2,51.4 139.1,51.6 139,52 "/>
<line class="st2" x1="139" y1="64" x2="139" y2="52"/>
<polyline class="st2" points="195.8,24.8 196.6,25 197.5,25 198.4,24.9 199.3,24.6 200.3,24.2 "/>
<line class="st2" x1="147.7" y1="55.8" x2="202.8" y2="18.3"/>
<line class="st2" x1="145.6" y1="53.5" x2="145.6" y2="53.1"/>
<line class="st2" x1="200.7" y1="15.5" x2="202.8" y2="16.8"/>
<line class="st2" x1="145.6" y1="54.5" x2="147.7" y2="55.8"/>
<line class="st2" x1="145.6" y1="54.5" x2="145.6" y2="54.4"/>
</svg>
