<?xml version="1.0" encoding="utf-8"?>
<!-- Generator: Adobe Illustrator 24.2.1, SVG Export Plug-In . SVG Version: 6.00 Build 0)  -->
<svg version="1.1" id="Ebene_1" xmlns="http://www.w3.org/2000/svg" xmlns:xlink="http://www.w3.org/1999/xlink" x="0px" y="0px"
	 viewBox="0 0 349.1 161" style="enable-background:new 0 0 349.1 161;" xml:space="preserve">
<style type="text/css">
	.st0{fill:#999999;}
	.st1{fill:#CCCCCC;}
	.st2{fill:#666666;}
	.st3{fill:#0099FF;}
	.st4{fill:none;stroke:#2B2B2A;stroke-width:0.5;stroke-miterlimit:5;}
	.st5{fill:none;stroke:#2B2B2A;stroke-width:0.35;stroke-miterlimit:5;}
	.st6{fill:#2B2B2A;}
	.st7{font-family:'ArialMT';}
	.st8{font-size:13.1376px;}
	.st9{fill:none;stroke:#2B2B2A;stroke-width:0.25;stroke-miterlimit:5;}
	.st10{font-size:14px;}
</style>
<path class="st0" d="M257.1,125.5c-1.2,0.3-2.5,0.6-3.8,0.8c-1.2,0.2-2.4,0.3-3.6,0.5c-1.2,0.1-2.5,0.1-3.7,0.2c-0.7,0-1.3,0-2,0
	c-0.6,0-1.2,0-1.7,0c-1.2-0.1-2.5-0.1-3.6-0.2c-0.9-0.1-1.9-0.2-2.8-0.4c-1.4-0.2-2.9-0.5-4.3-0.8v7c1.4-0.2,2.9-0.4,4.3-0.5
	c0.9-0.1,1.8-0.2,2.8-0.2c1.1-0.1,2.3-0.1,3.5-0.1c0.1,0,0.1,0,0.2,0c1.2,0,2.5,0,3.7,0c1.2,0,2.5,0.1,3.7,0.2
	c1.2,0.1,2.4,0.2,3.6,0.3c1.2,0.1,2.5,0.3,3.8,0.5V125.5z"/>
<path class="st1" d="M297.7,153.2l-0.1-2.6l-2-1.7c-7.2-5.7-15.6-10-25-13c-4-1.2-8-2.2-12.1-2.9c-0.5-0.1-1-0.1-1.5-0.2
	c-1.3-0.2-2.5-0.4-3.8-0.5c-1.2-0.1-2.4-0.2-3.6-0.3c-1.2-0.1-2.5-0.1-3.7-0.2c-1.2,0-2.5,0-3.7,0c-0.1,0-0.1,0-0.2,0
	c-1.2,0-2.3,0.1-3.5,0.1c-0.9,0.1-1.9,0.1-2.8,0.2c-1.4,0.1-2.9,0.3-4.3,0.5c-1.4,0.2-2.8,0.4-4.1,0.7c-4.6,0.9-9.2,2.1-13.6,3.7
	c-9.3,3.5-17.4,8.5-24,14.9l-0.5,0.6v2.6l0.6-0.4c1.5-1.1,2.8-1.1,3.8,0c0.5,0.5,0.9,0.8,1.2,0.8c0.4,0.1,0.9-0.3,1.5-1.1l0.2-0.1
	l0,0.1v0.3l1.8-0.9c1.4-0.9,2.7-1.1,3.8-0.6c1.2,0.6,2,0.8,2.6,0.6l1.8-1.2l0.6-0.1l0.7,0.1l2.3,1.6l1.2,0.4h0.4
	c5-3.2,10.5-5.5,16.6-7.1c6.2-1.5,12.5-2.1,18.9-1.7c5.3,0.3,10.5,1.2,15.5,2.7c5,1.5,9.6,3.6,13.8,6.3l0.3,0.6l1.1-1.6l0.4-0.4
	l0.4-0.2l0.4,0l0.8,0.6l0.4,0.3l0.5,0.2l0.7-0.1l1.4-0.7c0.9-0.4,1.5-0.4,2-0.1c0.1,0.1,0.4,0.5,0.8,1.2c0.7,1.1,2.2,1.1,4.4,0
	l2-0.3c0.7-0.3,1.3-0.4,1.8-0.2c0.3,0.1,0.8,0.4,1.5,0.8l0.4,0l0.4-0.3l0.3-0.4l0.5-1l0.1-0.2h0.2L297.7,153.2z"/>
<path class="st2" d="M297.6,73.5c0-14.8-5.2-27.4-15.7-37.9C271.4,25.3,258.8,20,244,20c-14.8,0-27.4,5.2-37.8,15.6
	c-10.5,10.5-15.7,23.1-15.7,37.9c0,14.8,5.2,27.4,15.7,37.9c7.4,7.4,15.8,12.2,25.3,14.3h0c1.4,0.3,2.8,0.6,4.3,0.8
	c0.9,0.1,1.8,0.2,2.8,0.4c1.2,0.1,2.4,0.1,3.6,0.2c0.6,0,1.1,0,1.7,0c0.7,0,1.3,0,2,0c1.3,0,2.5-0.1,3.7-0.2
	c1.2-0.1,2.4-0.3,3.6-0.5c1.3-0.2,2.5-0.5,3.8-0.8h0c9.3-2.2,17.5-6.9,24.7-14.2C292.3,100.9,297.6,88.3,297.6,73.5 M291.1,65.3
	c0.5-0.4,1-0.7,1.7-0.7c0.6,0,1.1,0.2,1.5,0.6c0.5,0.4,0.7,0.9,0.8,1.4l0.6,5.3l-0.1,6.2l-0.8,5.8c0,0.1,0,0.2,0,0.3
	c-0.1,0.4-0.4,0.8-0.7,1.1c-0.4,0.4-1,0.5-1.6,0.5c-0.6,0-1.1-0.2-1.6-0.7c-0.4-0.4-0.7-1-0.7-1.6l0-0.4l0.2-0.8l0.6-5.9l-0.1-5.9
	l-0.5-3.3V67C290.5,66.3,290.7,65.8,291.1,65.3 M195.2,66.7c0.7,0,1.2,0.2,1.7,0.7c0.2,0.2,0.4,0.5,0.6,0.8c0.1,0.1,0.1,0.3,0.1,0.5
	c0,0.1,0,0.2,0,0.3l-0.1,0.3l-0.4,3.5l0.1,6l0.5,3.5c0,0.7-0.2,1.2-0.7,1.6c-0.4,0.4-1,0.7-1.6,0.7c-0.5,0-1-0.2-1.4-0.5
	c-0.4-0.3-0.7-0.8-0.8-1.3l-0.4-2.4l-0.3-6.2l0.4-5.5c0.1-0.6,0.4-1.1,0.8-1.4C194.2,66.9,194.7,66.7,195.2,66.7 M244,28.2
	c12.5,0,23.2,4.4,32,13.3c8.8,8.8,13.3,19.5,13.3,32c0,12.5-4.4,23.2-13.3,32c-8.8,8.8-19.5,13.3-32,13.3c-12.5,0-23.2-4.4-32-13.3
	c-8.8-8.8-13.3-19.5-13.3-32c0-12.5,4.4-23.2,13.3-32C220.8,32.7,231.5,28.2,244,28.2z"/>
<path class="st3" d="M276,41.5c-8.8-8.9-19.5-13.3-32-13.3c-12.5,0-23.2,4.4-32,13.3c-8.8,8.8-13.3,19.5-13.3,32
	c0,12.5,4.4,23.2,13.3,32c8.8,8.8,19.5,13.3,32,13.3c12.5,0,23.2-4.4,32-13.3c8.8-8.8,13.3-19.5,13.3-32
	C289.3,61,284.9,50.4,276,41.5 M196.9,67.4c-0.5-0.5-1-0.7-1.7-0.7c-0.6,0-1.1,0.2-1.5,0.6c-0.4,0.4-0.7,0.8-0.8,1.4l-0.4,5.5
	l0.3,6.2l0.4,2.4c0.1,0.5,0.4,1,0.8,1.3c0.4,0.3,0.9,0.5,1.4,0.5c0.6,0,1.2-0.2,1.6-0.7c0.4-0.4,0.7-1,0.7-1.6l-0.5-3.5l-0.1-6
	l0.4-3.5l0.1-0.3c0-0.1,0-0.2,0-0.3c0-0.2-0.1-0.3-0.1-0.5C197.3,67.9,197.1,67.6,196.9,67.4 M292.8,64.6c-0.7,0-1.2,0.2-1.7,0.7
	c-0.4,0.5-0.7,1-0.7,1.6v0.2l0.5,3.3l0.1,5.9l-0.6,5.9l-0.2,0.8l0,0.4c0,0.6,0.2,1.2,0.7,1.6c0.5,0.4,1,0.7,1.6,0.7
	c0.6,0,1.1-0.2,1.6-0.5c0.3-0.3,0.6-0.6,0.7-1.1c0-0.1,0-0.2,0-0.3l0.8-5.8l0.1-6.2l-0.6-5.3c0-0.6-0.3-1-0.8-1.4
	C293.9,64.9,293.4,64.6,292.8,64.6 M284.2,28.7l-3.7-1.3l-1.7-1l-1.5-1.2l-6.2-3.8l-5.9-2.7l-6.3-2l-6.5-1.3l-6.5-0.6l-6.6,0.2
	l-6.5,0.9l-6.4,1.6l-6.2,2.4l-5.9,3l-6.9,4.4l-3.7,1.3l-6.8,0.6l-1.4,0.9l-1,1.4l-0.3,1.6l0.4,1.6l0.6,0.8l0.8,1.5l0.2,1.7l-0.5,1.6
	l-0.1,0.2l-0.3,0.2l-3.4,5.6l-2.8,6l-2,6.3l-1.3,6.5l-0.2,1.9l-0.8,1.4l-1.4,0.9l-0.2,0l-1.2,1.1l-0.6,1.5l0.1,1.6l0.8,1.4l1.4,1.5
	l1.5,2.7l0.8,3l0.3,2.6l1.6,6.3l2.3,6.2l2.4,4.9l0,1.7l-0.6,1.5l-1.2,1.2l-0.5,0.3l-1,1.3l-0.4,1.6l0.3,1.6l0.9,1.3l1.4,0.9l1.6,0.3
	l0.4-0.1l1.9-0.1l3.5,0.6l3.3,1.3l3.1,2l0.7,0.6l5.3,3.9l5.6,3.4l7.5,3.2c1.7,1,2.8,2.5,3.2,4.6c1.4-0.3,2.7-0.5,4.1-0.7v-7h0
	c-9.5-2.2-17.9-6.9-25.3-14.3c-10.5-10.4-15.7-23.1-15.7-37.9c0-14.8,5.2-27.4,15.7-37.9C216.6,25.3,229.2,20,244,20
	c14.8,0,27.4,5.2,37.9,15.6c10.5,10.5,15.7,23.1,15.7,37.9c0,14.8-5.2,27.4-15.7,37.9c-7.2,7.2-15.5,11.9-24.7,14.2h0v7.3
	c0.5,0.1,1,0.1,1.5,0.2c0.5-1.5,1.6-2.7,3.1-3.5l6.1-2.3l5.9-3l5.5-3.6l5.1-4.3l2.3-2.4l2.8-2.1l3.2-1.6l3.5-0.9l1.9-0.1l0.4,0.1
	l1.6-0.4l1.3-1l0.8-1.5l0.2-1.6l-0.5-1.6l-1.2-1.2l-0.5-0.2l-1.3-1.1l-0.8-1.5l-0.2-1.9l1.2-2.7l2-6.3l1.7-8.3l1.1-1.3l1.5-0.6
	l0.9-0.3l1.3-1.1l0.8-1.6l0.1-1.7l-0.3-7.1l-0.4-1.6l-1.1-1.3l-1.8-0.8H304l-1.6-0.8l-1.2-1.4l-1.3-4.7l-2.3-6.1l-3-5.9l-2.4-3.5
	l-0.5-1.6l0.2-1.7l0.8-1.5l0.6-0.8l0.4-1.7l-0.3-1.7l-1-1.3l-1.5-0.9L284.2,28.7z"/>
<path id="Layer2_2_MEMBER_1_MEMBER_0_1_STROKES" class="st4" d="M211.6,41.7c-8.9,8.8-13.3,19.5-13.3,32s4.4,23.2,13.3,32
	c8.8,8.9,19.5,13.3,32,13.3c12.5,0,23.2-4.4,32-13.3c8.9-8.8,13.3-19.5,13.3-32c0-12.5-4.4-23.2-13.3-32c-8.8-8.9-19.5-13.3-32-13.3
	C231.1,28.4,220.4,32.9,211.6,41.7z"/>
<path id="Layer2_2_MEMBER_1_MEMBER_1_1_STROKES" class="st4" d="M205.8,35.9c-10.5,10.5-15.7,23.1-15.7,37.8s5.2,27.4,15.7,37.8
	c10.4,10.4,23,15.6,37.8,15.6c14.8,0,27.4-5.2,37.8-15.6c10.5-10.5,15.7-23.1,15.7-37.8c0-14.8-5.2-27.4-15.7-37.8
	c-10.4-10.4-23.1-15.6-37.8-15.6C228.8,20.2,216.2,25.5,205.8,35.9z"/>
<path id="Layer2_2_MEMBER_1_MEMBER_2_1_STROKES" class="st4" d="M276.9,25.4l-6.2-3.7l-6-2.7l-6.3-2l-6.5-1.3l-6.5-0.6l-6.6,0.2
	l-6.5,0.9l-6.4,1.6l-6.2,2.3l-5.9,3l-3.7,2.4"/>
<path id="Layer2_2_MEMBER_1_MEMBER_3_1_STROKES" class="st4" d="M300.4,59.3l-0.8-3.2l-2.3-6.1l-3-5.9l-2.1-3.2"/>
<path id="Layer2_2_MEMBER_1_MEMBER_4_1_STROKES" class="st4" d="M261.2,129.6l6.1-2.3l5.9-3l5.5-3.6l5-4.2l2.3-2.5"/>
<path id="Layer2_2_MEMBER_1_MEMBER_5_1_STROKES" class="st4" d="M297.1,97.6l1.2-2.7l2-6.2l1.3-6.7"/>
<path id="Layer2_2_MEMBER_1_MEMBER_6_1_STROKES" class="st4" d="M204.9,117.7l0.7,0.6l5.2,4l5.7,3.4l6,2.7l1.5,0.5"/>
<path id="Layer2_2_MEMBER_1_MEMBER_7_1_STROKES" class="st4" d="M185.6,82.3l0.3,2.6l1.6,6.4l2.3,6.2l2.5,4.8"/>
<path id="Layer2_2_MEMBER_1_MEMBER_8_1_STROKES" class="st4" d="M195.2,40.6l-0.2,0.3l-3.4,5.6l-2.7,6l-2,6.3l-1.3,6.5l-0.2,1.9"/>
<path id="Layer2_2_MEMBER_1_MEMBER_9_1_STROKES" class="st4" d="M240.3,63.3c-5.2,0-9.6,1.8-13.3,5.5c-3.7,3.7-5.5,8.1-5.5,13.3
	c0,5.2,1.8,9.6,5.5,13.3c3.7,3.7,8.1,5.5,13.3,5.5c5.2,0,9.6-1.8,13.3-5.5c3.7-3.7,5.5-8.1,5.5-13.3c0-5.2-1.8-9.6-5.5-13.3
	C249.9,65.1,245.5,63.3,240.3,63.3z"/>
<path id="Layer2_2_MEMBER_1_MEMBER_10_1_STROKES" class="st4" d="M192.5,68.9l-0.4,5.5l0.3,6.2l0.4,2.5"/>
<path id="Layer2_2_MEMBER_1_MEMBER_11_1_STROKES" class="st4" d="M294.3,84.4l0.8-6.1l0.1-6.2l-0.5-5.3"/>
<path id="Layer2_2_MEMBER_1_MEMBER_12_1_STROKES" class="st4" d="M197.2,68.3l-0.5,4.7l0.1,6l0.4,3"/>
<path id="Layer2_2_MEMBER_1_MEMBER_13_1_STROKES" class="st4" d="M289.8,83.4l0.2-0.8l0.6-5.9l-0.1-6l-0.5-3.3"/>
<path id="Layer2_2_MEMBER_1_MEMBER_14_1_STROKES" class="st4" d="M294.7,66.9c0-0.6-0.3-1.1-0.7-1.5c-0.4-0.4-1-0.6-1.5-0.6
	c-0.6,0-1.2,0.2-1.7,0.7c-0.4,0.5-0.7,1-0.7,1.7l0,0.2"/>
<path id="Layer2_2_MEMBER_1_MEMBER_15_1_STROKES" class="st4" d="M289.8,83.3l0,0.4c0,0.6,0.2,1.2,0.7,1.6c0.5,0.4,1,0.7,1.6,0.7
	c0.6,0,1.1-0.2,1.5-0.5c0.4-0.4,0.7-0.8,0.7-1.4"/>
<path id="Layer2_2_MEMBER_1_MEMBER_16_1_STROKES" class="st4" d="M197.2,69.5l0-0.3c0-0.6-0.2-1.2-0.7-1.7c-0.5-0.4-1-0.7-1.7-0.7
	c-0.6,0-1.1,0.2-1.5,0.6c-0.4,0.4-0.7,0.8-0.8,1.4"/>
<path id="Layer2_2_MEMBER_1_MEMBER_17_1_STROKES" class="st4" d="M192.8,82.9c0.1,0.5,0.4,1,0.8,1.3c0.4,0.3,0.9,0.5,1.4,0.5
	c0.6,0,1.2-0.2,1.6-0.7c0.4-0.4,0.7-1,0.7-1.6l-0.1-0.5"/>
<path id="Layer2_2_MEMBER_1_MEMBER_18_1_STROKES" class="st4" d="M256.3,30.8l-5.1,18.6"/>
<path id="Layer2_2_MEMBER_1_MEMBER_19_1_STROKES" class="st4" d="M254,30.1L249.4,49"/>
<path id="Layer2_2_MEMBER_1_MEMBER_20_1_STROKES" class="st4" d="M249.4,49c0.8,0.8,1.8,1.2,3,1.2c0.9,0,1.7-0.2,2.4-0.7
	c0.7-0.5,1.2-1.1,1.6-1.9"/>
<path id="Layer2_2_MEMBER_1_MEMBER_21_1_STROKES" class="st4" d="M260.6,32l-4.3,15.6"/>
<path id="Layer2_2_MEMBER_1_MEMBER_22_1_STROKES" class="st4" d="M230.8,30.8l6.7,18.1"/>
<path id="Layer2_2_MEMBER_1_MEMBER_23_1_STROKES" class="st4" d="M233.1,30l6.2,18.4"/>
<path id="Layer2_2_MEMBER_1_MEMBER_24_1_STROKES" class="st4" d="M232.3,47.6c0.4,0.7,0.9,1.2,1.6,1.6c0.7,0.4,1.4,0.6,2.2,0.6
	c1.3,0,2.4-0.5,3.2-1.4"/>
<path id="Layer2_2_MEMBER_1_MEMBER_25_1_STROKES" class="st4" d="M195.1,40.9l0.3-0.3l0.5-1.6l-0.2-1.7l-0.8-1.5"/>
<path id="Layer2_2_MEMBER_1_MEMBER_26_1_STROKES" class="st4" d="M183.2,69.5l1.4-0.9l0.8-1.4"/>
<path id="Layer2_2_MEMBER_1_MEMBER_27_1_STROKES" class="st4" d="M190.5,106.6l1.2-1.1l0.6-1.5l0-1.7"/>
<path id="Layer2_2_MEMBER_1_MEMBER_28_1_STROKES" class="st4" d="M300.4,59.1l0.4,1.7l1.1,1.4l1.6,0.8l0.7,0"/>
<path id="Layer2_2_MEMBER_1_MEMBER_29_1_STROKES" class="st4" d="M198.2,29.3l1.4,0l3.9-0.5l3.7-1.3l3.4-2"/>
<path id="Layer2_2_MEMBER_1_MEMBER_30_1_STROKES" class="st4" d="M198.2,29.1l-1.7,0.2l-1.4,0.9l-1,1.4l-0.3,1.7l0.4,1.6l0.9,1.2"/>
<path id="Layer2_2_MEMBER_1_MEMBER_31_1_STROKES" class="st4" d="M183.2,69.5l-0.2,0.1l-1.2,1.1l-0.6,1.5l0.1,1.6l0.8,1.5"/>
<path id="Layer2_2_MEMBER_1_MEMBER_32_1_STROKES" class="st4" d="M185.6,82.3l-0.7-3l-1.5-2.7l-1.4-1.5"/>
<path id="Layer2_2_MEMBER_1_MEMBER_33_1_STROKES" class="st4" d="M190.5,106.7L190,107l-1,1.3l-0.4,1.6l0.3,1.6l0.9,1.4l1.4,0.9
	l1.6,0.2l0.4-0.1"/>
<path id="Layer2_2_MEMBER_1_MEMBER_34_1_STROKES" class="st4" d="M204.8,117.7l-3-2l-3.3-1.3l-3.5-0.6l-1.8,0.1"/>
<path id="Layer2_2_MEMBER_1_MEMBER_35_1_STROKES" class="st4" d="M304.6,78.3l0.9-0.2l1.3-1.1l0.8-1.5l0.1-1.7"/>
<path id="Layer2_2_MEMBER_1_MEMBER_36_1_STROKES" class="st4" d="M304.6,78.3l-1.4,0.7l-1.1,1.3l-0.4,1.7"/>
<path id="Layer2_2_MEMBER_1_MEMBER_37_1_STROKES" class="st4" d="M307.5,66.7l-0.5-1.6l-1.1-1.3l-1.5-0.7l-0.2,0"/>
<path id="Layer2_2_MEMBER_1_MEMBER_38_1_STROKES" class="st4" d="M226.7,32.4l5.6,15.2"/>
<path id="Layer2_2_MEMBER_1_MEMBER_39_1_STROKES" class="st4" d="M292.1,41l-0.3-0.3l-0.5-1.6l0.2-1.7l0.9-1.5"/>
<path id="Layer2_2_MEMBER_1_MEMBER_40_1_STROKES" class="st4" d="M289,29.4l-1.4,0l-3.8-0.5l-3.7-1.3l-3.3-1.9"/>
<path id="Layer2_2_MEMBER_1_MEMBER_41_1_STROKES" class="st4" d="M289,29.3l1.6,0.2l1.5,0.9l1,1.4l0.3,1.7l-0.4,1.7l-0.9,1.1"/>
<path id="Layer2_2_MEMBER_1_MEMBER_42_1_STROKES" class="st4" d="M299.4,101.9l-1.3-1l-0.8-1.5l-0.1-1.6"/>
<path id="Layer2_2_MEMBER_1_MEMBER_43_1_STROKES" class="st4" d="M299.4,101.9l0.5,0.2l1.2,1.2l0.5,1.6l-0.2,1.6l-0.7,1.5l-1.3,1
	l-1.6,0.4l-0.4-0.1"/>
<path id="Layer2_2_MEMBER_1_MEMBER_44_1_STROKES" class="st4" d="M286.1,114.1l2.7-2.2l3.2-1.6l3.5-0.9l1.8-0.1"/>
<path id="Layer2_2_MEMBER_1_MEMBER_45_1_STROKES" class="st4" d="M307.5,66.7l0.3,7.1"/>
<path id="Layer2_2_MEMBER_1_MEMBER_46_1_STROKES" class="st4" d="M256.7,125.5l0,7.6"/>
<path id="Layer2_2_MEMBER_1_MEMBER_47_1_STROKES" class="st4" d="M252.9,132.4l0-6"/>
<path id="Layer2_2_MEMBER_1_MEMBER_48_1_STROKES" class="st4" d="M249.3,126.7l0,5.5"/>
<path id="Layer2_2_MEMBER_1_MEMBER_49_1_STROKES" class="st4" d="M245.6,132.1l0-4.8"/>
<path id="Layer2_2_MEMBER_1_MEMBER_50_1_STROKES" class="st4" d="M241.8,132.1l0-5"/>
<path id="Layer2_2_MEMBER_1_MEMBER_51_1_STROKES" class="st4" d="M238.2,132.1l0-5.2"/>
<path id="Layer2_2_MEMBER_1_MEMBER_52_1_STROKES" class="st4" d="M235.4,132.1l0-5.5"/>
<path id="Layer2_2_MEMBER_1_MEMBER_53_1_STROKES" class="st4" d="M227.1,133.5c-0.4-2-1.4-3.6-3.2-4.6"/>
<path id="Layer2_2_MEMBER_1_MEMBER_54_1_STROKES" class="st4" d="M261.2,129.6c-1.6,0.8-2.6,2-3.1,3.6"/>
<path id="Layer2_2_MEMBER_1_MEMBER_55_1_STROKES" class="st4" d="M297.4,150.7l-2.1-1.7c-7.2-5.7-15.6-10-25-13
	c-9.2-2.9-18.7-4.2-28.6-4c-10,0.2-19.4,1.9-28.2,5.2c-9.3,3.5-17.3,8.4-24,14.9l-0.5,0.5"/>
<path id="Layer2_2_MEMBER_1_MEMBER_56_1_STROKES" class="st4" d="M196.2,152.4c6.3-5.9,14-10.4,23.1-13.4c9.1-3,18.6-4.3,28.6-3.7
	c8.2,0.4,16,2.1,23.4,4.8c7.4,2.8,14,6.6,19.6,11.3"/>
<path id="Layer2_2_MEMBER_1_MEMBER_57_1_STROKES" class="st4" d="M211.3,152.1c5-3,10.6-5.2,16.6-6.6s12.3-1.9,18.7-1.6
	c5.4,0.3,10.7,1.2,15.7,2.7c5.1,1.5,9.8,3.6,14.1,6.2"/>
<path id="Layer2_2_MEMBER_1_MEMBER_58_1_STROKES" class="st4" d="M211.3,154.7c5-3.2,10.5-5.5,16.6-7.1c6.1-1.5,12.4-2.1,18.9-1.7
	c5.3,0.3,10.5,1.2,15.5,2.7c5,1.5,9.6,3.6,13.8,6.2"/>
<path id="Layer2_2_MEMBER_1_MEMBER_59_1_STROKES" class="st4" d="M189,152.6l0.6-0.3c1.5-1.1,2.7-1.1,3.8,0c0.5,0.5,0.9,0.8,1.1,0.8
	c0.4,0.1,0.9-0.3,1.5-1.1l0.2-0.1l0,0.1l0,0.3"/>
<path id="Layer2_2_MEMBER_1_MEMBER_60_1_STROKES" class="st4" d="M196.4,152.3l1.7-0.9c1.4-0.9,2.6-1.1,3.7-0.6
	c1.2,0.6,2.1,0.8,2.7,0.5l1.2-0.9l0.6-0.3l0.6-0.1l0.7,0.2l0.7,0.3l1.6,1.2l0.9,0.3l0.6,0.1"/>
<path id="Layer2_2_MEMBER_1_MEMBER_61_1_STROKES" class="st4" d="M276.4,152.9l1-1.6l0.4-0.4l0.4-0.2l0.4,0l0.4,0.2l0.4,0.3l0.5,0.3
	l0.5,0.2l0.7-0.1l1.4-0.7c0.8-0.4,1.5-0.4,1.9-0.1c0.1,0.1,0.4,0.5,0.9,1.1c0.7,1.1,2.2,1.1,4.4,0l0.9-0.4l0.3-0.2"/>
<path id="Layer2_2_MEMBER_1_MEMBER_62_1_STROKES" class="st4" d="M290.8,152.2l0.5-0.2l0.4-0.2c0.7-0.3,1.3-0.3,1.8-0.2
	c0.3,0.1,0.8,0.4,1.5,0.8h0.5l0.4-0.2l0.3-0.5l0.5-1l0.2-0.2h0.2l0.3,0.1"/>
<path id="Layer2_2_MEMBER_1_MEMBER_63_1_STROKES" class="st4" d="M189,155.2l0.6-0.3c1.5-1.1,2.7-1.1,3.8,0c0.5,0.5,0.9,0.8,1.1,0.8
	c0.4,0.1,0.9-0.3,1.5-1.1l0.2-0.1l0,0.1l0,0.3"/>
<path id="Layer2_2_MEMBER_1_MEMBER_64_1_STROKES" class="st4" d="M196.4,154.9l1.7-1c1.4-0.9,2.7-1.1,3.7-0.5c1.2,0.6,2,0.8,2.6,0.5
	l1.8-1.2l0.6-0.2l0.7,0.2l0.7,0.4l1.6,1.2l1.2,0.4l0.2,0"/>
<path id="Layer2_2_MEMBER_1_MEMBER_65_1_STROKES" class="st4" d="M276.4,155.5l1-1.6l0.4-0.4l0.4-0.2l0.4,0l0.4,0.2l0.4,0.3l0.5,0.3
	l0.5,0.2l0.7-0.1l1.4-0.7c0.8-0.4,1.5-0.4,1.9-0.1c0.1,0.1,0.4,0.5,0.9,1.1c0.7,1.1,2.2,1.1,4.4,0l0.9-0.4l0.3-0.2"/>
<path id="Layer2_2_MEMBER_1_MEMBER_66_1_STROKES" class="st4" d="M290.8,154.7l0.9-0.3c0.7-0.3,1.3-0.4,1.8-0.2
	c0.3,0.1,0.8,0.4,1.5,0.8l0.5,0l0.4-0.3l0.3-0.4l0.5-1l0.2-0.2h0.2l0.4,0.1"/>
<path id="Layer2_2_MEMBER_1_MEMBER_67_1_STROKES" class="st4" d="M231.2,133l0-7.3"/>
<path id="Layer2_2_MEMBER_1_MEMBER_68_1_STROKES" class="st4" d="M211.3,152.2l0,2.6"/>
<path id="Layer2_2_MEMBER_1_MEMBER_69_1_STROKES" class="st4" d="M189,155.2l0-2.6"/>
<path id="Layer2_2_MEMBER_1_MEMBER_70_1_STROKES" class="st4" d="M276.4,155.5l0-2.6"/>
<path id="Layer2_2_MEMBER_1_MEMBER_71_1_STROKES" class="st4" d="M297.4,153.4l0-2.6"/>
<path id="Layer2_2_MEMBER_2_1_STROKES" class="st5" d="M292.6,31l14.4-18.1"/>
<path id="Layer2_2_MEMBER_3_1_STROKES" class="st5" d="M194.1,67.8l-24.9-11.6"/>
<g>
	<text transform="matrix(1 0 0 1 261.4311 13.9571)" class="st6 st7 st8">RECEPTACLE</text>
</g>
<g>
	<text transform="matrix(1 0 0 1 131.884 44.4109)" class="st6 st7 st8">LOCKING</text>
	<text transform="matrix(1 0 0 1 131.884 61.6775)" class="st6 st7 st8">SLOT</text>
</g>
<path class="st3" d="M32.4,37.6C21.6,48.4,16.2,61.4,16.2,76.6s5.4,28.3,16.2,39.1c6.8,6.8,14.5,11.5,23.1,14h0v8.4l4.5,4.2h23.6
	l4.5-4.2v-8.6c8.3-2.6,15.7-7.2,22.3-13.8c10.8-10.8,16.2-23.8,16.2-39.1s-5.4-28.3-16.2-39.1C99.6,26.8,86.6,21.4,71.4,21.4
	S43.1,26.8,32.4,37.6 M71.1,49.7c1.4,0,2.6,0.5,3.6,1.6c1,1,1.6,2.2,1.6,3.7s-0.5,2.7-1.6,3.6c-1,1-2.2,1.6-3.6,1.6
	c-1.4,0-2.7-0.5-3.7-1.6c-1-1-1.6-2.2-1.6-3.6s0.5-2.7,1.6-3.7C68.4,50.3,69.7,49.7,71.1,49.7 M75.9,68.2c1.4,1.4,2,3,2,4.9
	c0,1.9-0.7,3.6-2,4.9c-1.4,1.4-3,2-4.9,2c-1.9,0-3.6-0.7-4.9-2s-2-3-2-4.9c0-1.9,0.7-3.6,2-4.9c1.4-1.4,3-2,4.9-2
	C72.9,66.2,74.6,66.9,75.9,68.2z"/>
<path class="st1" d="M78,73.2c0-1.9-0.7-3.6-2-4.9c-1.4-1.4-3-2-4.9-2c-1.9,0-3.6,0.7-4.9,2c-1.4,1.4-2,3-2,4.9c0,1.9,0.7,3.6,2,4.9
	s3,2,4.9,2c1.9,0,3.5-0.7,4.9-2C77.3,76.7,78,75.1,78,73.2 M74.7,51.3c-1-1-2.2-1.6-3.6-1.6c-1.4,0-2.7,0.5-3.7,1.6
	c-1,1-1.6,2.2-1.6,3.7s0.5,2.7,1.6,3.6c1,1,2.2,1.6,3.7,1.6c1.4,0,2.6-0.5,3.6-1.6c1-1,1.6-2.2,1.6-3.6S75.8,52.3,74.7,51.3z"/>
<path id="Layer1_5_MEMBER_1_1_STROKES" class="st5" d="M68.7,42.9L49.9,16.7"/>
<path id="Layer1_5_MEMBER_2_1_STROKES" class="st4" d="M32.5,38.4c-10.8,10.8-16.2,23.8-16.2,39c0,15.2,5.4,28.3,16.2,39.1
	c10.8,10.8,23.8,16.2,39,16.2s28.3-5.4,39.1-16.2c10.8-10.8,16.2-23.8,16.2-39.1s-5.4-28.2-16.2-39C99.8,27.6,86.8,22.2,71.5,22.2
	S43.3,27.6,32.5,38.4z"/>
<path id="Layer1_5_MEMBER_3_1_STROKES" class="st4" d="M78.1,74c0-1.9-0.7-3.6-2-4.9c-1.4-1.4-3-2-4.9-2s-3.6,0.7-4.9,2
	c-1.4,1.4-2,3-2,4.9c0,1.9,0.7,3.6,2,4.9s3,2,4.9,2s3.6-0.7,4.9-2S78.1,75.9,78.1,74z"/>
<path id="Layer1_5_MEMBER_4_1_STROKES" class="st4" d="M76.4,55.8c0-1.4-0.5-2.7-1.5-3.7c-1-1-2.2-1.5-3.7-1.5s-2.7,0.5-3.7,1.5
	c-1,1-1.5,2.2-1.5,3.7c0,1.4,0.5,2.7,1.5,3.7c1,1,2.2,1.5,3.7,1.5s2.7-0.5,3.7-1.5C75.9,58.4,76.4,57.2,76.4,55.8z"/>
<path id="Layer1_5_MEMBER_5_1_STROKES" class="st9" d="M64.6,42.9h1.8"/>
<path id="Layer1_5_MEMBER_6_1_STROKES" class="st9" d="M68.7,42.9h3.7"/>
<path id="Layer1_5_MEMBER_7_1_STROKES" class="st9" d="M74.6,42.9h3.6"/>
<path id="Layer1_5_MEMBER_8_1_STROKES" class="st9" d="M80.4,43.5l1.1,0.7l1,1.5l0.1,0.5"/>
<path id="Layer1_5_MEMBER_9_1_STROKES" class="st9" d="M82.9,48.5v3.7"/>
<path id="Layer1_5_MEMBER_10_1_STROKES" class="st9" d="M82.9,54.5v3.6"/>
<path id="Layer1_5_MEMBER_11_1_STROKES" class="st9" d="M82.9,60.4v3.7"/>
<path id="Layer1_5_MEMBER_12_1_STROKES" class="st9" d="M82.9,66.3V70"/>
<path id="Layer1_5_MEMBER_13_1_STROKES" class="st9" d="M82.9,72.3v3.7"/>
<path id="Layer1_5_MEMBER_14_1_STROKES" class="st9" d="M82.9,78.2v3.5l0,0.2"/>
<path id="Layer1_5_MEMBER_15_1_STROKES" class="st9" d="M82.2,84l-0.7,1l-1.5,1l-0.7,0.2"/>
<path id="Layer1_5_MEMBER_16_1_STROKES" class="st9" d="M77.1,86.3h-3.7"/>
<path id="Layer1_5_MEMBER_17_1_STROKES" class="st9" d="M71.2,86.3h-3.7"/>
<path id="Layer1_5_MEMBER_18_1_STROKES" class="st9" d="M65.3,86.3h-0.6L62.9,86l-1-0.7"/>
<path id="Layer1_5_MEMBER_19_1_STROKES" class="st9" d="M60.4,83.5L60,81.7v-1.7"/>
<path id="Layer1_5_MEMBER_20_1_STROKES" class="st9" d="M60,77.6V74"/>
<path id="Layer1_5_MEMBER_21_1_STROKES" class="st9" d="M60,71.7v-3.6"/>
<path id="Layer1_5_MEMBER_22_1_STROKES" class="st9" d="M60,65.8v-3.7"/>
<path id="Layer1_5_MEMBER_23_1_STROKES" class="st9" d="M60,59.8v-3.6"/>
<path id="Layer1_5_MEMBER_24_1_STROKES" class="st9" d="M60,53.9v-3.7"/>
<path id="Layer1_5_MEMBER_25_1_STROKES" class="st9" d="M60,47.9v-0.4l0.4-1.8l0.8-1.2"/>
<path id="Layer1_5_MEMBER_26_1_STROKES" class="st9" d="M63,43.2l1.7-0.3"/>
<path id="Layer1_5_MEMBER_27_1_STROKES" class="st4" d="M55.7,130.3v8.6l4.5,4.2h23.6"/>
<path id="Layer1_5_MEMBER_28_1_STROKES" class="st4" d="M88.3,130.3v8.6l-4.5,4.2"/>
<path id="Layer1_5_MEMBER_29_1_STROKES" class="st4" d="M71.7,136.1h4"/>
<path id="Layer1_5_MEMBER_30_1_STROKES" class="st4" d="M79.7,136.1h4"/>
<path id="Layer1_5_MEMBER_31_1_STROKES" class="st4" d="M63.7,136.1h3.9"/>
<path id="Layer1_5_MEMBER_32_1_STROKES" class="st4" d="M55.7,136.1h4"/>
<path id="Layer1_5_MEMBER_33_1_STROKES" class="st4" d="M67.6,133.1h4"/>
<path id="Layer1_5_MEMBER_34_1_STROKES" class="st4" d="M75.7,133.1h4"/>
<path id="Layer1_5_MEMBER_35_1_STROKES" class="st4" d="M83.8,133.1h4.4"/>
<path id="Layer1_5_MEMBER_36_1_STROKES" class="st4" d="M59.7,133.1h4"/>
<path id="Layer1_5_MEMBER_37_1_STROKES" class="st4" d="M59.7,133.1v3.2"/>
<path id="Layer1_5_MEMBER_38_1_STROKES" class="st4" d="M63.7,133.2v3.2"/>
<path id="Layer1_5_MEMBER_39_1_STROKES" class="st4" d="M67.6,133.3v2.8"/>
<path id="Layer1_5_MEMBER_40_1_STROKES" class="st4" d="M71.7,133.1v3.2"/>
<path id="Layer1_5_MEMBER_41_1_STROKES" class="st4" d="M75.7,133.3v2.9"/>
<path id="Layer1_5_MEMBER_42_1_STROKES" class="st4" d="M79.7,133.2v3"/>
<path id="Layer1_5_MEMBER_43_1_STROKES" class="st4" d="M83.8,133.3v2.8"/>
<g>
	<text transform="matrix(1 0 0 1 13.0176 13.5476)" class="st6 st7 st10">LATCH</text>
</g>
</svg>
