<?xml version="1.0" encoding="utf-8"?>
<!-- Generator: Adobe Illustrator 24.2.1, SVG Export Plug-In . SVG Version: 6.00 Build 0)  -->
<svg version="1.1" id="Ebene_1" xmlns="http://www.w3.org/2000/svg" xmlns:xlink="http://www.w3.org/1999/xlink" x="0px" y="0px"
	 viewBox="0 0 349.1 161" style="enable-background:new 0 0 349.1 161;" xml:space="preserve">
<style type="text/css">
	.st0{fill:#0099FF;}
	.st1{fill:#B1B1B1;}
	.st2{fill:none;stroke:#373535;stroke-width:0.5;stroke-miterlimit:4.9999;}
	.st3{fill:#373535;}
</style>
<path class="st0" d="M289,42.9l0.1-0.6l-3.2-1.9c-0.3-0.3-0.5-0.6-0.4-1c0-0.4,0.2-0.8,0.5-1.1l3.5-2l-0.4-0.4
	c-10.2-5.9-17.8-10.3-22.8-13.3L242.5,9.3l-4.9,2.8h-0.1l-0.5,0.2h-0.1l-0.1-0.1l-2.5-1.5l-0.8-0.2h-0.3v-0.1h-0.7l-0.1,0.1h-0.2
	c-0.2,0.1-0.4,0.1-0.6,0.2l-3.8,2.1l-0.3,0.3l0.1,1.2l2.3,1.2v1c0,0-0.1,0-0.1,0c-0.1,0.1-0.3,0.2-0.5,0.2h-0.1
	c-0.1,0-0.3-0.1-0.4-0.2l-2.1-1.1l-1.4-0.5l-0.1-0.1h-0.5l0,0.1l-0.5-0.1l-8.7,5.1c-14.1,8.2-26.4,15.4-36.8,21.5
	c-8.2,4.8-15.3,9-21.1,12.6l-8.4,5.1l-0.3,0.2v0.1l-0.1,0.1v0.2l0.9,0.9l2.1,1l-0.2,0.7l-0.8,0.4h-0.2v0.1h-0.1l-0.5-0.1l-3.1-1.6
	l-0.5,0.1h-0.1l-0.1,0.1h-0.3l-1.6,0.8l-7.7,4.8C116.5,79.7,97.3,92.8,79,106.1l-8.8,6.5l3.4,1.8l-1.2,1.2c-0.1,0-0.2,0-0.3,0
	l-0.1-0.1l-3.2-1.1h-0.3l-1.7,0.8l-3.6,2.6v0.1h-0.1l0,0.1v0.1l-0.1,0v0.5l1.6,0.8l0.8,0.4v0.3l-0.2,0.9l-5.3,4h0.4l0.1,0.1h0
	c3.6,1.5,6.6,2.9,9,4.2l0.2,0.1l0.2,0.1l13.8,7.9l0.3,0.2l0.4,0.2l0.3,0.2l0.3,0.1l12.4,7.2l0.3,0.2l0.2,0.1l0.2,0.1l9.1,6.3
	l5.9-4.4c0.6-0.3,1.3,0,2.1,0.7l2.3,1.8c0.5,0.3,1.1,0.5,1.6,0.5c0.5,0,1-0.1,1.4-0.3v-0.1l3.3-2.6c0.3-0.2,0.5-0.5,0.5-0.9
	c0-0.4-0.1-0.7-0.4-0.9l-0.6-0.3l-0.2-0.2l-1.5-1.2l-0.2-0.1l-0.6-0.4l-0.1-0.1l-0.4-0.6c-0.2-0.3-0.3-0.5-0.4-0.7
	c0.5-0.3,1.2-0.6,1.9-0.8c0.1,0.1,0.1,0.2,0.2,0.3l0,0.2l0.3,0.4l0.1,0.1c0.2,0.1,0.4,0.2,0.6,0.4l0.1,0.1l1.5,1.1l0.1,0.1l1.7,0.9
	h0.4l0.9-0.4l8.1-5.8c17.5-12.8,36.8-25.9,57.8-39.2l8.5-5.3l0.3-0.3l-0.8-1.5l-1.7-1.1l-0.2-1.5l0.1-0.1h0.4l1.4,0.5l3.1,1.7h0.7
	l0.6-0.3l8.2-5c15.2-9.2,34.6-20.6,58.1-34.1l8.4-4.9h0.1v-0.1l0-0.1h0.1v-0.1l0.1,0v-0.2l-1.6-1.3l1.6-1.1l0.5,0.3l1.6,0.6h0.8
	l1.4-0.6L289,42.9 M245.7,12.2c0.4,0.2,0.5,0.4,0.5,0.7c0,0.8-0.6,1.2-1.9,1.2c-0.5,0-1-0.1-1.4-0.3c-0.4-0.2-0.6-0.5-0.6-0.8
	c0-0.3,0.2-0.5,0.6-0.7c0.4-0.3,0.8-0.4,1.4-0.4C244.8,11.8,245.3,11.9,245.7,12.2 M251.9,18.5c0-0.3,0.2-0.6,0.6-0.8
	c0.4-0.2,0.8-0.3,1.4-0.3c0.5,0,1,0.1,1.4,0.3c0.4,0.2,0.6,0.4,0.6,0.8c0,0.7-0.7,1-2,1C252.6,19.5,251.9,19.2,251.9,18.5
	 M264.8,24.8c-0.4,0.2-0.9,0.4-1.4,0.4c-0.5,0-1-0.1-1.4-0.4c-0.4-0.2-0.6-0.5-0.6-0.8s0.2-0.6,0.6-0.8c0.4-0.2,0.9-0.3,1.4-0.3
	c0.5,0,1,0.1,1.4,0.3c0.4,0.2,0.5,0.5,0.5,0.8S265.2,24.6,264.8,24.8 M271.1,29.5c0-0.3,0.2-0.6,0.6-0.8c0.4-0.2,0.8-0.3,1.4-0.3
	c0.5,0,1,0.1,1.3,0.3c0.4,0.2,0.6,0.5,0.6,0.8c0,0.3-0.2,0.6-0.6,0.8c-0.3,0.2-0.8,0.4-1.3,0.4c-0.5,0-1-0.1-1.4-0.4
	C271.3,30.1,271.1,29.8,271.1,29.5 M282.6,36.1c-0.5,0-1-0.1-1.4-0.3c-0.4-0.2-0.6-0.5-0.6-0.8c0-0.3,0.2-0.6,0.6-0.8
	c0.4-0.3,0.8-0.4,1.4-0.4c0.5,0,1,0.1,1.4,0.4c0.4,0.2,0.6,0.4,0.6,0.8c0,0.3-0.2,0.6-0.6,0.8C283.6,36,283.1,36.1,282.6,36.1
	 M219.3,56.3c-0.2,0-0.3-0.1-0.4-0.1l-11-6.6l1.4-0.9l0.1-0.4l0.1-0.1h0.2v-0.1h0l0.1-0.1h0.1V48l0.4-0.1v0h0.2l0.1-0.1L215,45v-0.1
	h0.1l23.3-15.2l13.1,7.4L221.1,56l-0.8,0.4L219.3,56.3L219.3,56.3 M85.4,134.3c0.5-0.1,1,0,1.4,0.2c0.4,0.2,0.6,0.5,0.6,0.8
	c0.1,0.4-0.1,0.7-0.4,1c-0.3,0.3-0.8,0.5-1.3,0.6c-0.5,0.1-1,0-1.4-0.2c-0.4-0.2-0.6-0.5-0.7-0.9c0-0.3,0.1-0.6,0.4-0.9
	C84.4,134.5,84.9,134.3,85.4,134.3 M97.6,141.1c0.1,0.4-0.1,0.7-0.4,0.9c-0.4,0.3-0.9,0.5-1.4,0.6c-0.5,0.1-0.9,0.1-1.4-0.2
	c-0.4-0.2-0.6-0.5-0.6-0.8c0-0.4,0.1-0.7,0.4-1c0.3-0.3,0.8-0.5,1.3-0.6C96.8,140,97.5,140.3,97.6,141.1 M83.4,119.9
	c-0.1,0-0.2-0.1-0.3-0.2l0.5,0.2H83.4 M77.2,129.6c0.1,0.3,0,0.7-0.4,1c-0.3,0.3-0.8,0.5-1.3,0.5c-0.5,0.1-1,0.1-1.4-0.1
	c-0.4-0.2-0.6-0.4-0.7-0.8c0-0.4,0.1-0.7,0.5-1c0.3-0.3,0.8-0.5,1.3-0.6c0.5,0,1,0,1.3,0.2C77,129,77.2,129.2,77.2,129.6 M63.4,125
	c-0.1-0.3,0.1-0.6,0.4-0.8c0.3-0.3,0.7-0.6,1.2-0.7c1.2-0.3,1.9-0.2,2.1,0.5c0.1,0.7-0.4,1.3-1.6,1.6c-0.5,0.1-0.9,0.2-1.4,0.1
	C63.8,125.5,63.5,125.3,63.4,125 M105.9,149.3c-0.5,0-1-0.1-1.4-0.3c-0.4-0.3-0.6-0.6-0.6-1c0-0.4,0.2-0.8,0.6-1.1
	c0.3-0.3,0.8-0.4,1.3-0.4c0.5,0,1,0.1,1.3,0.4c0.4,0.3,0.6,0.6,0.6,1c0,0.4-0.2,0.7-0.5,1C106.9,149.1,106.4,149.3,105.9,149.3z"/>
<path class="st1" d="M218.8,56.2c0.1,0.1,0.3,0.1,0.4,0.1l0.1,0.1h0.9l0.8-0.4l30.4-18.9l-13.1-7.4l-23.3,15.2L215,45l-4.4,2.9
	l0,0.1h-0.1l-1.2,0.8l-1.4,0.9L218.8,56.2 M244.4,37.1h-0.2v-0.1C244.3,37.1,244.3,37.1,244.4,37.1 M222.6,52.4L222.6,52.4l0,1.1
	l-0.1-1.5L222.6,52.4z"/>
<path id="Layer2_2_MEMBER_0_MEMBER_0_1_STROKES" class="st2" d="M227.5,13.7l0.2,1.1"/>
<path id="Layer2_2_MEMBER_0_MEMBER_1_1_STROKES" class="st2" d="M178.6,41.1l1-1"/>
<path id="Layer2_2_MEMBER_0_MEMBER_2_1_STROKES" class="st2" d="M121.5,141.3c-0.6,0.2-1.1,0.4-1.5,0.5"/>
<path id="Layer2_2_MEMBER_0_MEMBER_3_1_STROKES" class="st2" d="M279.5,45.6l1.6-1"/>
<path id="Layer2_2_MEMBER_0_MEMBER_4_1_STROKES" class="st2" d="M227.8,12.6l-0.4,0.3v0.1l-0.1,0.1v0.1l-0.1,0.1v0.1l0.1,0.1v0.1
	h0.1v0.1l0.1,0.1v0.1h0.1"/>
<path id="Layer2_2_MEMBER_0_MEMBER_5_1_STROKES" class="st2" d="M224.1,14.7L224.1,14.7l0.5-0.1l0.1-0.1h0.5l0.1,0.1h0.4l0.1,0.1
	h0.1l0.1,0.1h0.1"/>
<path id="Layer2_2_MEMBER_0_MEMBER_6_1_STROKES" class="st2" d="M149.1,58.9l-0.3,0.3v0.1l-0.1,0.1v0.4h0.1"/>
<path id="Layer2_2_MEMBER_0_MEMBER_7_1_STROKES" class="st2" d="M150,62.5l0.5,0.1h0.1v-0.1h0.2l0.9-0.5l0.1-0.1"/>
<path id="Layer2_2_MEMBER_0_MEMBER_8_1_STROKES" class="st2" d="M145.5,61.2L145.5,61.2l0.1-0.1h0.3l0.1-0.1h0.4l0.1-0.1h0.1
	l0.4,0.1h0.3l0.1,0.1"/>
<path id="Layer2_2_MEMBER_0_MEMBER_9_1_STROKES" class="st2" d="M70.5,112.2L70.5,112.2L70.5,112.2l-0.1,0.1v0.4"/>
<path id="Layer2_2_MEMBER_0_MEMBER_10_1_STROKES" class="st2" d="M67.4,114.5h0.1v-0.1h0.2l0.1-0.1H68v-0.1h1"/>
<path id="Layer2_2_MEMBER_0_MEMBER_11_1_STROKES" class="st2" d="M63,118.7l-0.1-0.1V118l0.1-0.1v-0.1l0.1-0.1h0.1v-0.1l0.3-0.2"/>
<path id="Layer2_2_MEMBER_0_MEMBER_12_1_STROKES" class="st2" d="M110.1,135.3L110.1,135.3L110.1,135.3l-0.1-0.1v-0.1h-0.1v-0.1
	h-0.1v-0.4h0.1v-0.1h0.1v-0.1h0.1v-0.1h0.1l0.1-0.1h0.1v-0.1h0.3v-0.1h0.6"/>
<path id="Layer2_2_MEMBER_0_MEMBER_13_1_STROKES" class="st2" d="M127.1,144.9h-0.9v-0.1h-0.2l-0.1-0.1h-0.1l-0.1-0.1h-0.1v-0.1
	h-0.1l-0.1-0.1"/>
<path id="Layer2_2_MEMBER_0_MEMBER_14_1_STROKES" class="st2" d="M202.1,94.1l0.3-0.3h0.1v-0.1l0.1-0.1v-0.1h0.1"/>
<path id="Layer2_2_MEMBER_0_MEMBER_15_1_STROKES" class="st2" d="M205.8,91.7L205.8,91.7l-0.2,0.1l-0.1,0.1h-1.1l-0.1-0.1h-0.1
	l-0.1-0.1h-0.1l-0.1-0.1"/>
<path id="Layer2_2_MEMBER_0_MEMBER_16_1_STROKES" class="st2" d="M280.6,47.6h0.1v-0.1h0.1v-0.1l0.1-0.1h0.1v-0.1l0.1-0.1v-0.6H281
	v-0.1h-0.1v-0.1h-0.1v-0.1h-0.1v-0.1h-0.1v-0.1"/>
<path id="Layer2_2_MEMBER_0_MEMBER_17_1_STROKES" class="st2" d="M277.8,44.3L278,44v-0.1h0.1v-0.1h0.1v-0.1h0.1l0.1-0.1h0.2v-0.1
	l1.3,0.3"/>
<path id="Layer2_2_MEMBER_0_MEMBER_18_1_STROKES" class="st2" d="M284.4,45.4L284.4,45.4l-0.3,0.1l-0.1,0.1h-0.9l-0.4-0.1"/>
<path id="Layer2_2_MEMBER_0_MEMBER_19_1_STROKES" class="st2" d="M288.7,42c0.1,0,0.1,0.1,0.1,0.2v0.4h-0.1v0.2h-0.1l-0.1,0.1
	l-0.1,0.1l-0.1,0.1h-0.1"/>
<path id="Layer2_2_MEMBER_0_MEMBER_20_1_STROKES" class="st2" d="M285.9,38.2l3.4-2"/>
<path id="Layer2_2_MEMBER_0_MEMBER_21_1_STROKES" class="st2" d="M238.9,11.1l3.5-2"/>
<path id="Layer2_2_MEMBER_0_MEMBER_22_1_STROKES" class="st2" d="M234.2,10.4H234l-0.1-0.1h-0.1l-0.1-0.1h-0.1l-0.1-0.1h-0.4v-0.1
	h-0.7l-0.1,0.1h-0.2c-0.2,0.1-0.4,0.2-0.6,0.2"/>
<path id="Layer2_2_MEMBER_0_MEMBER_23_1_STROKES" class="st2" d="M245.1,12.5L245.1,12.5L245.1,12.5l-0.1-0.1h-0.1v-0.1h-0.3v-0.1
	h-0.6v0.1h-0.3v0.1h-0.1v0.1h-0.1v0.1h-0.1v0.1h-0.1v0.1l-0.1,0.1v0.1h0.1V13h0.1v0.1l0.1,0.1h0.1v0.1h0.1l0.1,0.1h0.1v0.1h0.1
	l0.8-0.1h0.1v-0.1h0.1v-0.1h0.1l0.2-0.2v-0.3h-0.1v-0.1H245.1z"/>
<path id="Layer2_2_MEMBER_0_MEMBER_24_1_STROKES" class="st2" d="M254.5,18.8L254.5,18.8l0.1-0.1l0.1-0.1v-0.1h0.1v-0.1l-0.1-0.3V18
	h-0.1V18h-0.1l-0.1-0.1h-0.1v-0.1h-0.1v-0.1h-1v0.1h-0.2v0.1h-0.1V18h-0.1V18l-0.1,0.1v0.4h0.1v0.1h0.1v0.1h0.1v0.1h0.1v0.1h0.2
	l0.1,0.1h0.6"/>
<path id="Layer2_2_MEMBER_0_MEMBER_25_1_STROKES" class="st2" d="M273.6,29.7h0.1v-0.1h0.1v-0.1h0.1v-0.1h0.1v-0.4h-0.1V29h-0.1V29
	h-0.1v-0.1h-0.2v-0.1h-0.2v-0.1h-0.7l-0.1,0.1h-0.1v0.1h-0.1l-0.1,0.1h-0.1v0.1H272v0.1H272v0.3h0.1v0.1l0.1,0.1h0.1v0.1h0.1v0.1
	h0.3v0.1"/>
<path id="Layer2_2_MEMBER_0_MEMBER_26_1_STROKES" class="st2" d="M264.4,23.6L264.4,23.6L264.4,23.6l-0.1-0.1h-0.1v-0.1h-0.1
	l-0.1-0.1H264l-0.1-0.1h-0.1l-0.1-0.1h-0.6l-0.1,0.1h-0.2v0.1h-0.1l-0.1,0.1h-0.1v0.1h-0.1l-0.1,0.4V24h0.1v0.1l0.2,0.1l0.1,0.1h0.1
	l0.1,0.1h0.6"/>
<path id="Layer2_2_MEMBER_0_MEMBER_27_1_STROKES" class="st2" d="M263.6,24.4l0.4-0.1"/>
<path id="Layer2_2_MEMBER_0_MEMBER_28_1_STROKES" class="st2" d="M106.9,147.5L106.9,147.5l-0.1-0.1h-0.1l-0.1-0.1v-0.1l-0.1-0.1
	h-0.1l-0.1-0.1h-0.1V147h-0.1l-0.2-0.1h-0.4v0.1h-0.2l-0.1,0.1h-0.1l-0.1,0.1h-0.1l-0.1,0.1H105v0.1h-0.1v0.1h-0.1v0.2h-0.1v0.1h0.1
	v0.1l0.1,0.1v0.1h0.1v0.1h0.1v0.1h0.1v0.1l0.2,0.1h0.6"/>
<path id="Layer2_2_MEMBER_0_MEMBER_29_1_STROKES" class="st2" d="M106.2,148.3c0.3-0.1,0.5-0.3,0.6-0.5"/>
<path id="Layer2_2_MEMBER_0_MEMBER_30_1_STROKES" class="st2" d="M281.7,34.6L281.7,34.6L281.7,34.6l-0.1,0.1V35h0.1v0.1h0.1v0.1
	h0.1v0.1h0.1v0.1h0.1l0.1,0.1h0.2v0.1l0.9-0.1h0.1l0.1-0.1h0.1v-0.1h0.1v-0.1h0.1v-0.1c0-0.1,0-0.2-0.1-0.3v-0.1h-0.1v-0.1h-0.1
	v-0.1h-0.1v-0.1h-0.3v-0.1h-0.8l-0.1,0.1h-0.2v0.1h-0.1v0.1L281.7,34.6L281.7,34.6z"/>
<path id="Layer2_2_MEMBER_0_MEMBER_31_1_STROKES" class="st2" d="M86.5,135.5v-0.4l-0.1-0.1l-0.2-0.1v-0.1h-0.3v-0.1h-0.5"/>
<path id="Layer2_2_MEMBER_0_MEMBER_32_1_STROKES" class="st2" d="M84.8,134.9L84.8,134.9L84.8,134.9l-0.1,0.1h-0.1v0.1h-0.1v0.4
	l0.3,0.3h0.1v0.1h0.8"/>
<path id="Layer2_2_MEMBER_0_MEMBER_33_1_STROKES" class="st2" d="M96.7,141.3v-0.4h-0.1v-0.1l-0.1-0.1h-0.1l-0.1-0.1h-0.1v-0.1H96
	l-0.1-0.1h-0.2v0.1"/>
<path id="Layer2_2_MEMBER_0_MEMBER_34_1_STROKES" class="st2" d="M94.8,141.6L94.8,141.6L94.8,141.6l0.1,0.1H95v0.1h0.1v0.1h0.6"/>
<path id="Layer2_2_MEMBER_0_MEMBER_35_1_STROKES" class="st2" d="M65.4,124.9l0.4-0.2"/>
<path id="Layer2_2_MEMBER_0_MEMBER_36_1_STROKES" class="st2" d="M66.1,124.3v-0.4h-0.1v-0.1H66l-0.1-0.1h-0.1l-0.1-0.1h-0.7"/>
<path id="Layer2_2_MEMBER_0_MEMBER_37_1_STROKES" class="st2" d="M64.4,123.9L64.4,123.9l-0.2,0.3v0.4h0.1l0.1,0.1h0.1v0.1h0.1v0.1
	h0.9"/>
<path id="Layer2_2_MEMBER_0_MEMBER_38_1_STROKES" class="st2" d="M75.6,130.2l0.5-0.2l0.1-0.1l0.1-0.1v-0.1h0.1v-0.3l-0.1-0.1v-0.1
	h-0.1l-0.1-0.1h-0.1V129h-0.1l-0.1-0.1h-0.6"/>
<path id="Layer2_2_MEMBER_0_MEMBER_39_1_STROKES" class="st2" d="M74.4,129.5L74.4,129.5l-0.1,0.3h0.1v0.1h0.1v0.1h0.1v0.1h0.1
	l0.1,0.1h0.1v0.1h0.6"/>
<path id="Layer2_2_MEMBER_0_MEMBER_40_1_STROKES" class="st2" d="M115.1,148.2l2.3,1.9"/>
<path id="Layer2_2_MEMBER_0_MEMBER_41_1_STROKES" class="st2" d="M112.9,147.6c0.6-0.2,1.2-0.1,1.9,0.5"/>
<path id="Layer2_2_MEMBER_0_MEMBER_42_1_STROKES" class="st2" d="M117.4,150.1c0.5,0.3,1.1,0.5,1.6,0.5c0.5,0,1-0.1,1.4-0.4"/>
<path id="Layer2_2_MEMBER_0_MEMBER_43_1_STROKES" class="st2" d="M120.3,150.1l3.4-2.6"/>
<path id="Layer2_2_MEMBER_0_MEMBER_44_1_STROKES" class="st2" d="M124.2,146.7c0-0.4-0.1-0.7-0.4-0.9"/>
<path id="Layer2_2_MEMBER_0_MEMBER_45_1_STROKES" class="st2" d="M123.8,147.6c0.3-0.2,0.4-0.5,0.4-0.9"/>
<path id="Layer2_2_MEMBER_0_MEMBER_46_1_STROKES" class="st2" d="M110.2,135.4l9.2,6c0.1,0.1,0.4,0.6,0.9,1.3l0.4,0.6l0.1,0.1
	l0.6,0.4l0.1,0.1l1.5,1.1l0.2,0.2l0.3,0.2"/>
<path id="Layer2_2_MEMBER_0_MEMBER_47_1_STROKES" class="st2" d="M106.7,152.2l6-4.5"/>
<path id="Layer2_2_MEMBER_0_MEMBER_48_1_STROKES" class="st2" d="M59.8,124.9h0.4l0.1,0.1h0.1c3.6,1.5,6.6,2.9,9,4.2l0.1,0.1
	l0.3,0.1l13.8,7.9l0.3,0.2l0.4,0.1l0.3,0.2l0.3,0.1l12.4,7.3l0.3,0.1l0.2,0.1l0.2,0.1l8.3,5.8"/>
<path id="Layer2_2_MEMBER_0_MEMBER_49_1_STROKES" class="st2" d="M59.6,125.1l5.9-4.5"/>
<path id="Layer2_2_MEMBER_0_MEMBER_50_1_STROKES" class="st2" d="M111.8,134.2l9.3,6.1c0.1,0,0.4,0.5,0.9,1.2l0.1,0.2l0.3,0.4
	l0.1,0.1c0.1,0.1,0.3,0.2,0.6,0.4l0.1,0.1l1.5,1.1l0.2,0.2l0.3,0.2"/>
<path id="Layer2_2_MEMBER_0_MEMBER_51_1_STROKES" class="st2" d="M63.6,119l1.8,0.6l0.3,0.1v0.1h0.1v0.1H66l0.1,0.1h0.1v0.1
	l-0.1,0.1l-0.1,0.1l-0.2,0.1"/>
<path id="Layer2_2_MEMBER_0_MEMBER_52_1_STROKES" class="st2" d="M63.4,117.4l3.4-2.5"/>
<path id="Layer2_2_MEMBER_0_MEMBER_53_1_STROKES" class="st2" d="M69.9,114.7l2.1,0.7l0.1,0.1c0.2,0,0.5-0.1,0.9-0.4l0.3-0.1
	l0.2,0.1c1.2,0.5,3.8,1.7,7.7,3.7l1.4,0.9"/>
<path id="Layer2_2_MEMBER_0_MEMBER_54_1_STROKES" class="st2" d="M84.2,118.3c0.1,0.1,0.2,0.2,0.3,0.4l0.1,0.1v0.1l-0.1,0.3h-0.1
	v0.1l-0.1,0.1h-0.1v0.1H84l-0.1,0.1h-0.1v0.1h-0.4l-0.1,0.1h-0.1c-0.1,0-0.2-0.1-0.4-0.1"/>
<path id="Layer2_2_MEMBER_0_MEMBER_55_1_STROKES" class="st2" d="M71.6,113.4l2.1,0.9c0.2,0,0.6-0.1,0.9-0.4l0.1-0.1h0.4
	c2.5,1.1,5.1,2.3,7.7,3.8l1.5,0.8"/>
<path id="Layer2_2_MEMBER_0_MEMBER_56_1_STROKES" class="st2" d="M127.8,144.5l8-5.9c17.5-12.8,36.8-25.9,57.8-39.2l8.5-5.3"/>
<path id="Layer2_2_MEMBER_0_MEMBER_57_1_STROKES" class="st2" d="M199.6,91l2.4,1.6"/>
<path id="Layer2_2_MEMBER_0_MEMBER_58_1_STROKES" class="st2" d="M201.3,90l2.4,1.6"/>
<path id="Layer2_2_MEMBER_0_MEMBER_59_1_STROKES" class="st2" d="M199.5,90.9L199.5,90.9l-0.1-0.1l-0.1-0.1v-0.6l0.2-0.2l0.1-0.1
	l0.1-0.1h0.4l0.4,0.1"/>
<path id="Layer2_2_MEMBER_0_MEMBER_60_1_STROKES" class="st2" d="M206.1,91.6l8.2-5c15.2-9.2,34.6-20.6,58-34.1l8.3-4.8"/>
<path id="Layer2_2_MEMBER_0_MEMBER_61_1_STROKES" class="st2" d="M279.9,43.9l2.4,1.4"/>
<path id="Layer2_2_MEMBER_0_MEMBER_62_1_STROKES" class="st2" d="M278.2,44.9l2.4,1.4"/>
<path id="Layer2_2_MEMBER_0_MEMBER_63_1_STROKES" class="st2" d="M284.7,45.3l3.6-2"/>
<path id="Layer2_2_MEMBER_0_MEMBER_64_1_STROKES" class="st2" d="M285.7,40.2l2.5,1.4"/>
<path id="Layer2_2_MEMBER_0_MEMBER_65_1_STROKES" class="st2" d="M285.8,38.2c-0.3,0.2-0.5,0.5-0.5,0.9c0,0.4,0,0.7,0.3,0.9"/>
<path id="Layer2_2_MEMBER_0_MEMBER_66_1_STROKES" class="st2" d="M289.3,36.1l-0.4-0.4c-10.2-5.8-17.8-10.2-22.8-13.2L242.6,9.1"/>
<path id="Layer2_2_MEMBER_0_MEMBER_67_1_STROKES" class="st2" d="M234.2,10.5l2.5,1.4l0.1,0.1h0.1l0.5-0.1h0.1l1.1-0.6"/>
<path id="Layer2_2_MEMBER_0_MEMBER_68_1_STROKES" class="st2" d="M227.8,12.5l3.6-2"/>
<path id="Layer2_2_MEMBER_0_MEMBER_69_1_STROKES" class="st2" d="M227.8,13.9l2.4,1.4"/>
<path id="Layer2_2_MEMBER_0_MEMBER_70_1_STROKES" class="st2" d="M228.7,16.3c0.1,0.1,0.3,0.1,0.4,0.1h0.1c0.6-0.2,1-0.4,1.2-0.6
	l0.1-0.1"/>
<path id="Layer2_2_MEMBER_0_MEMBER_71_1_STROKES" class="st2" d="M226.1,14.9l2.4,1.4"/>
<path id="Layer2_2_MEMBER_0_MEMBER_72_1_STROKES" class="st2" d="M223.8,14.9l-8.3,4.8c-25.2,14.6-44.6,26-58,34.1l-8.3,5"/>
<path id="Layer2_2_MEMBER_0_MEMBER_73_1_STROKES" class="st2" d="M149.2,60.2l2.4,1.1"/>
<path id="Layer2_2_MEMBER_0_MEMBER_74_1_STROKES" class="st2" d="M147.5,61.2l2.4,1.2"/>
<path id="Layer2_2_MEMBER_0_MEMBER_75_1_STROKES" class="st2" d="M145.2,61.4l-8.5,5.3c-20.3,12.9-39.5,26-57.8,39.2l-8,6"/>
<path id="Layer2_2_MEMBER_0_MEMBER_76_1_STROKES" class="st2" d="M207.8,49.6l10.9,6.4"/>
<path id="Layer2_2_MEMBER_0_MEMBER_77_1_STROKES" class="st2" d="M249.6,38.1L221,55.9"/>
<path id="Layer2_2_MEMBER_0_MEMBER_78_1_STROKES" class="st2" d="M250,37.6L250,37.6l0.1-0.3H250v-0.2L250,37v-0.1"/>
<path id="Layer2_2_MEMBER_0_MEMBER_79_1_STROKES" class="st2" d="M207.6,48.4L207.6,48.4L207.6,48.4l-0.1,0.1h-0.1v0.1l-0.1,0.1v0.1
	h-0.1V49h0.1v0.2h0.1v0.1l0.1,0.1h0.1v0.1"/>
<path id="Layer2_2_MEMBER_0_MEMBER_80_1_STROKES" class="st2" d="M218.8,56c0.1,0.1,0.2,0.1,0.4,0.1l0.1,0.1h1.1l0.1-0.1h0.1V56h0.1
	l0.1-0.1"/>
<path id="Layer2_2_MEMBER_0_MEMBER_81_1_STROKES" class="st2" d="M219.1,52.2l-7.5-4.3"/>
<path id="Layer2_2_MEMBER_0_MEMBER_82_1_STROKES" class="st2" d="M211,47.6h-0.4l-0.1,0.1h-0.3l-0.1,0.1l-0.3,0.1h-0.1v0.1h-0.1
	l-0.1,0.1h-0.1v0.1h-0.1l-0.1,0.1l-0.3,0.2h-0.1l-0.2,0.2h-0.1l-0.1,0.1v0.1h-0.1"/>
<path id="Layer2_2_MEMBER_0_MEMBER_83_1_STROKES" class="st2" d="M219.9,55.4L219.9,55.4L220,55l0.1-0.1V54H220v-0.4h-0.1v-0.2h-0.1
	v-0.3h-0.1V53l-0.1-0.1v-0.1l-0.1-0.1v-0.1h-0.1v-0.1h-0.1v-0.1"/>
<path id="Layer2_2_MEMBER_0_MEMBER_84_1_STROKES" class="st2" d="M221.3,53.8L221.3,53.8c-0.3-0.4-1-0.9-2-1.5"/>
<path id="Layer2_2_MEMBER_0_MEMBER_85_1_STROKES" class="st2" d="M219.9,56.1v-0.4"/>
<path id="Layer2_2_MEMBER_0_MEMBER_86_1_STROKES" class="st2" d="M246.5,35.2l-7.5-4.3"/>
<path id="Layer2_2_MEMBER_0_MEMBER_87_1_STROKES" class="st2" d="M238.6,30.8L238.6,30.8l-0.9-0.1l-0.1,0.1h-0.3l-0.1,0.1h-0.1v0.1
	H237L237,31h-0.1l-0.1,0.1h-0.1l-0.1,0.1h-0.1l-0.1,0.1h-0.1v0.1h-0.1v0.1h-0.1v0.1H236v0.1l-0.1,0.1"/>
<path id="Layer2_2_MEMBER_0_MEMBER_88_1_STROKES" class="st2" d="M247.4,37.9v-1.3l-0.1-0.1v-0.1l-0.1-0.1v-0.1h-0.1V36l-0.1-0.1
	v-0.1l-0.1-0.1v-0.1H247"/>
<path id="Layer2_2_MEMBER_0_MEMBER_89_1_STROKES" class="st2" d="M248.5,36.6l-0.5-0.4"/>
<path id="Layer2_2_MEMBER_0_MEMBER_90_1_STROKES" class="st2" d="M247.3,39.2v-0.4"/>
<path id="Layer2_2_MEMBER_0_MEMBER_91_1_STROKES" class="st2" d="M243.9,36.7l-7.5-4.3"/>
<path id="Layer2_2_MEMBER_0_MEMBER_92_1_STROKES" class="st2" d="M236.3,32.3L236.3,32.3l-0.2-0.1v-0.1h-0.8l-0.1,0.1H235v0.1h-0.1
	l-0.1,0.1h-0.1l-0.1,0.1h-0.1l-0.1,0.1h-0.1l-0.1,0.1h-0.1v0.1"/>
<path id="Layer2_2_MEMBER_0_MEMBER_93_1_STROKES" class="st2" d="M244.9,40v-0.4h0.1v-1.1l-0.1-0.1v-0.3h-0.1v-0.2h-0.1v-0.1
	l-0.1-0.1v-0.1l-0.1-0.1v-0.1h-0.1v-0.1h-0.1v-0.1h-0.1v-0.1h-0.1v-0.1h-0.1v-0.1h-0.1v-0.1"/>
<path id="Layer2_2_MEMBER_0_MEMBER_94_1_STROKES" class="st2" d="M246.1,38.2L246.1,38.2c-0.5-0.4-1.1-0.8-1.9-1.3"/>
<path id="Layer2_2_MEMBER_0_MEMBER_95_1_STROKES" class="st2" d="M244.8,40.7v-0.4"/>
<path id="Layer2_2_MEMBER_0_MEMBER_96_1_STROKES" class="st2" d="M241.4,38.3L234,34"/>
<path id="Layer2_2_MEMBER_0_MEMBER_97_1_STROKES" class="st2" d="M233.9,33.9L233.9,33.9l-0.3-0.1v-0.1h-0.9v0.1h-0.3l-0.1,0.1h-0.1
	V34H232v0.1h-0.1l-0.1,0.1l-0.2,0.1h-0.1v0.1h-0.1l-0.1,0.1h-0.1v0.1h-0.1"/>
<path id="Layer2_2_MEMBER_0_MEMBER_98_1_STROKES" class="st2" d="M242.4,40.9v-1.1l-0.1-0.1v-0.2l-0.1-0.1v-0.1h-0.1v-0.1h-0.1v-0.2
	h-0.1v-0.1l-0.1-0.1l-0.1-0.2h-0.1v-0.1"/>
<path id="Layer2_2_MEMBER_0_MEMBER_99_1_STROKES" class="st2" d="M243.7,39.9L243.7,39.9l-0.1-0.1v-0.1c-0.2-0.2-0.9-0.7-1.9-1.4"/>
<path id="Layer2_2_MEMBER_0_MEMBER_100_1_STROKES" class="st2" d="M242.4,42.2v-0.4"/>
<path id="Layer2_2_MEMBER_0_MEMBER_101_1_STROKES" class="st2" d="M239,39.8l-7.5-4.3"/>
<path id="Layer2_2_MEMBER_0_MEMBER_102_1_STROKES" class="st2" d="M231.4,35.4L231.4,35.4L231.4,35.4l-0.4-0.1v-0.1h-0.7v0.1H230
	v0.1h-0.1l-0.4,0.1h-0.1l-0.1,0.1h-0.1l-0.1,0.1h-0.1v0.1l-0.1,0.1H229l-0.1,0.1h-0.1V36h-0.1l-0.1,0.1h-0.1"/>
<path id="Layer2_2_MEMBER_0_MEMBER_103_1_STROKES" class="st2" d="M240,42.3v-0.6l-0.1-0.1v-0.4l-0.1-0.1V41l-0.1-0.1v-0.1h-0.1
	v-0.2h-0.1v-0.1h-0.1v-0.1l-0.1-0.1v-0.1"/>
<path id="Layer2_2_MEMBER_0_MEMBER_104_1_STROKES" class="st2" d="M240.9,41l-1.4-1"/>
<path id="Layer2_2_MEMBER_0_MEMBER_105_1_STROKES" class="st2" d="M239.8,43.8v-0.5"/>
<path id="Layer2_2_MEMBER_0_MEMBER_106_1_STROKES" class="st2" d="M236.5,41.4l-7.4-4.3"/>
<path id="Layer2_2_MEMBER_0_MEMBER_107_1_STROKES" class="st2" d="M229,37.1L229,37.1L229,37.1l-0.1-0.1h-0.3v-0.1h-0.8l-0.1,0.1
	h-0.3l-0.1,0.1h-0.1l-0.1,0.1h-0.1v0.1h-0.1l-0.1,0.1h-0.1l-0.1,0.1h-0.1v0.1h-0.1v0.1h-0.1l-0.1,0.1h-0.1"/>
<path id="Layer2_2_MEMBER_0_MEMBER_108_1_STROKES" class="st2" d="M237.5,44.4V43l-0.1-0.1v-0.2l-0.1-0.1v-0.2h-0.1v-0.1l-0.1-0.1
	v-0.1l-0.1-0.1V42H237v-0.1H237v-0.1l-0.1-0.1h-0.1v-0.1h-0.1v-0.1"/>
<path id="Layer2_2_MEMBER_0_MEMBER_109_1_STROKES" class="st2" d="M238.8,43c-0.5-0.5-1.2-1-2.1-1.5"/>
<path id="Layer2_2_MEMBER_0_MEMBER_110_1_STROKES" class="st2" d="M234,42.9l-7.5-4.3"/>
<path id="Layer2_2_MEMBER_0_MEMBER_111_1_STROKES" class="st2" d="M226.3,38.4h-0.2l-0.1-0.1h-0.6l-0.1,0.1H225l-0.1,0.1h-0.1
	l-0.1,0.1h-0.2l-0.1,0.1h-0.1v0.1h-0.1l-0.1,0.1h-0.1v0.1h-0.1v0.1H224l-0.2,0.2l-0.3,0.2"/>
<path id="Layer2_2_MEMBER_0_MEMBER_112_1_STROKES" class="st2" d="M235,45.5v-1.1l-0.1-0.1V44h-0.1v-0.1"/>
<path id="Layer2_2_MEMBER_0_MEMBER_113_1_STROKES" class="st2" d="M236.3,44.5L236.3,44.5l-0.1-0.2l-1.7-1.2"/>
<path id="Layer2_2_MEMBER_0_MEMBER_114_1_STROKES" class="st2" d="M234.9,46.8v-0.4"/>
<path id="Layer2_2_MEMBER_0_MEMBER_115_1_STROKES" class="st2" d="M231.5,44.5l-7.5-4.3"/>
<path id="Layer2_2_MEMBER_0_MEMBER_116_1_STROKES" class="st2" d="M223.5,39.9h-0.7V40h-0.1l-0.3,0.1h-0.1v0.1h-0.1l-0.1,0.1H222
	l-0.1,0.1h-0.1l-0.1,0.1h-0.1l-0.1,0.1h-0.1v0.1h-0.1l-0.1,0.1v0.1h-0.1L221,41h-0.1"/>
<path id="Layer2_2_MEMBER_0_MEMBER_117_1_STROKES" class="st2" d="M232.5,47.1v-0.6l-0.1-0.1v-0.5l-0.1-0.1v-0.1l-0.1-0.1v-0.1h-0.1
	v-0.1l-0.1-0.1v-0.1l-0.1-0.1V45H232v-0.1h-0.1v-0.1h-0.1"/>
<path id="Layer2_2_MEMBER_0_MEMBER_118_1_STROKES" class="st2" d="M233.2,45.5l-1.2-0.8"/>
<path id="Layer2_2_MEMBER_0_MEMBER_119_1_STROKES" class="st2" d="M232.4,48.4V48"/>
<path id="Layer2_2_MEMBER_0_MEMBER_120_1_STROKES" class="st2" d="M229.1,46l-7.5-4.3"/>
<path id="Layer2_2_MEMBER_0_MEMBER_121_1_STROKES" class="st2" d="M219.9,41.7h-0.2l-0.1,0.1h-0.1l-0.1,0.1h-0.1V42h-0.1l-0.1,0.1
	h-0.1l-0.1,0.1h-0.1v0.1h-0.1v0.1h-0.1v0.1"/>
<path id="Layer2_2_MEMBER_0_MEMBER_122_1_STROKES" class="st2" d="M230,48.8v-1.1l-0.1-0.1v-0.2l-0.1-0.1V47h-0.1v-0.1h-0.1v-0.1
	h-0.1v-0.1h-0.1v-0.1l-0.1-0.1h-0.1v-0.1h-0.1l-0.1-0.1h-0.1v-0.1h-0.1"/>
<path id="Layer2_2_MEMBER_0_MEMBER_123_1_STROKES" class="st2" d="M231.3,47.6L231.3,47.6L231.3,47.6l-0.1-0.1
	c-0.4-0.5-1-0.9-1.9-1.4"/>
<path id="Layer2_2_MEMBER_0_MEMBER_124_1_STROKES" class="st2" d="M229.9,50v-0.4"/>
<path id="Layer2_2_MEMBER_0_MEMBER_125_1_STROKES" class="st2" d="M226.6,47.6l-7.5-4.3"/>
<path id="Layer2_2_MEMBER_0_MEMBER_126_1_STROKES" class="st2" d="M219,43.2L219,43.2l-0.1-0.1h-0.2V43h-0.9v0.1h-0.4v0.1h-0.1v0.1
	h-0.1l-0.1,0.1h-0.1v0.1h-0.1l-0.1,0.1h-0.1"/>
<path id="Layer2_2_MEMBER_0_MEMBER_127_1_STROKES" class="st2" d="M227.4,50.7l0.1-0.9v-0.6l-0.1-0.3v-0.3h-0.1v-0.1h-0.1v-0.2
	l-0.1-0.1v-0.1l-0.1-0.1V48l-0.1-0.1h-0.1"/>
<path id="Layer2_2_MEMBER_0_MEMBER_128_1_STROKES" class="st2" d="M228.6,49c-0.3-0.4-0.9-0.8-1.9-1.4"/>
<path id="Layer2_2_MEMBER_0_MEMBER_129_1_STROKES" class="st2" d="M224,49.1l-7.4-4.3"/>
<path id="Layer2_2_MEMBER_0_MEMBER_130_1_STROKES" class="st2" d="M216,44.5h-0.4c0,0-0.1,0.1-0.3,0.1h-0.1v0.1h-0.2v0.1h-0.2
	l-0.1,0.1h-0.1l-0.1,0.1h-0.1V45h-0.1l-0.1,0.1h-0.1v0.1h-0.1v0.1h-0.1v0.1h-0.1l-0.1,0.1v0.1h-0.1l-0.1,0.1"/>
<path id="Layer2_2_MEMBER_0_MEMBER_131_1_STROKES" class="st2" d="M225,52L225,52l0.1-1c0,0-0.1-0.1-0.1-0.3v-0.2l-0.1-0.1v-0.3
	h-0.1V50h-0.1v-0.1h-0.1v-0.1h-0.1v-0.1h-0.1v-0.1h-0.1v-0.1h-0.1v-0.1l-0.1-0.1h-0.1v-0.1"/>
<path id="Layer2_2_MEMBER_0_MEMBER_132_1_STROKES" class="st2" d="M226.3,50.6L226.3,50.6L226.3,50.6l-0.4-0.4l-0.5-0.4l-0.2-0.2
	l-0.3-0.1l-0.2-0.1"/>
<path id="Layer2_2_MEMBER_0_MEMBER_133_1_STROKES" class="st2" d="M224.9,53v-0.4"/>
<path id="Layer2_2_MEMBER_0_MEMBER_134_1_STROKES" class="st2" d="M221.6,50.6l-7.5-4.3"/>
<path id="Layer2_2_MEMBER_0_MEMBER_135_1_STROKES" class="st2" d="M212.5,46.2L212.5,46.2l-0.2,0.1v0.1h-0.1l-0.1,0.1H212l-0.1,0.1
	h-0.1v0.1l-0.1,0.1h-0.1l-0.1,0.1h-0.1l-0.2,0.2h-0.1v0.1"/>
<path id="Layer2_2_MEMBER_0_MEMBER_136_1_STROKES" class="st2" d="M222.5,53.4v-1.1l-0.1-0.1v-0.4l-0.1-0.1v-0.1h-0.1v-0.1h-0.1
	v-0.2"/>
<path id="Layer2_2_MEMBER_0_MEMBER_137_1_STROKES" class="st2" d="M223.5,51.9l-0.3-0.3l-0.3-0.1l-0.4-0.3"/>
<path id="Layer2_2_MEMBER_0_MEMBER_138_1_STROKES" class="st2" d="M222.5,54.6v-0.4"/>
<path class="st3" d="M64.1,125.4c0.4,0.1,0.9,0.1,1.4-0.1c1.2-0.3,1.7-0.9,1.6-1.6c-0.2-0.7-0.9-0.8-2.1-0.5
	c-0.5,0.1-0.9,0.3-1.2,0.6c-0.3,0.3-0.5,0.6-0.4,0.9C63.5,125.1,63.7,125.3,64.1,125.4z"/>
<path class="st3" d="M74.1,130.8c0.4,0.2,0.8,0.2,1.4,0.1c0.5,0,1-0.2,1.3-0.5c0.4-0.3,0.5-0.7,0.4-1c0-0.3-0.3-0.6-0.6-0.8
	c-0.4-0.2-0.8-0.3-1.4-0.2c-0.5,0.1-1,0.3-1.3,0.6c-0.4,0.3-0.6,0.6-0.5,1C73.5,130.3,73.7,130.6,74.1,130.8z"/>
<path class="st3" d="M86.7,134.3c-0.4-0.2-0.9-0.3-1.4-0.2c-0.5,0.1-0.9,0.3-1.3,0.6c-0.3,0.3-0.5,0.6-0.4,0.9
	c0,0.4,0.3,0.7,0.6,0.9c0.4,0.2,0.9,0.3,1.4,0.2c0.5,0,1-0.2,1.3-0.6c0.3-0.3,0.5-0.6,0.4-1C87.3,134.7,87.1,134.5,86.7,134.3z"/>
<path class="st3" d="M94.4,142.3c0.4,0.2,0.8,0.2,1.4,0.1c0.5,0,1-0.2,1.4-0.6c0.3-0.3,0.5-0.6,0.4-0.9c-0.1-0.8-0.8-1.1-2.1-1
	c-0.5,0.1-1,0.3-1.3,0.6c-0.3,0.3-0.5,0.6-0.4,0.9C93.8,141.8,94,142.1,94.4,142.3z"/>
<path class="st3" d="M104.5,148.7c0.4,0.2,0.8,0.4,1.4,0.4c0.5,0,1-0.1,1.4-0.4c0.3-0.3,0.5-0.6,0.5-1c0-0.4-0.2-0.7-0.6-1
	c-0.4-0.2-0.8-0.4-1.4-0.4c-0.5,0-1,0.1-1.3,0.4c-0.4,0.3-0.6,0.6-0.6,1C103.9,148.1,104.1,148.4,104.5,148.7z"/>
<path class="st3" d="M244.3,13.9c1.2,0,1.9-0.4,1.9-1.1c0-0.3-0.2-0.5-0.5-0.7c-0.4-0.2-0.8-0.4-1.4-0.4c-0.5,0-1,0.1-1.4,0.4
	c-0.4,0.2-0.6,0.4-0.6,0.7c0,0.3,0.2,0.6,0.6,0.8C243.3,13.8,243.7,13.9,244.3,13.9z"/>
<path class="st3" d="M253.8,19.3c1.3,0,1.9-0.4,1.9-1.1c0-0.3-0.2-0.5-0.6-0.7c-0.4-0.2-0.8-0.4-1.4-0.4c-0.5,0-1,0.1-1.4,0.4
	c-0.4,0.2-0.6,0.4-0.6,0.7C251.9,19,252.5,19.3,253.8,19.3z"/>
<path class="st3" d="M264.7,24.6c0.4-0.2,0.6-0.5,0.6-0.8c0-0.3-0.2-0.6-0.6-0.8c-0.4-0.2-0.8-0.4-1.4-0.4c-0.5,0-1,0.1-1.4,0.4
	c-0.4,0.2-0.6,0.5-0.6,0.8c0,0.3,0.2,0.6,0.6,0.8c0.4,0.2,0.8,0.4,1.4,0.4C263.9,24.9,264.3,24.8,264.7,24.6z"/>
<path class="st3" d="M274.3,30.1c0.4-0.2,0.6-0.5,0.6-0.8c0-0.3-0.2-0.6-0.6-0.8c-0.3-0.2-0.8-0.4-1.3-0.4c-0.5,0-1,0.1-1.4,0.4
	c-0.4,0.2-0.6,0.5-0.6,0.8c0,0.3,0.2,0.6,0.6,0.8c0.4,0.2,0.8,0.4,1.4,0.4C273.5,30.5,273.9,30.4,274.3,30.1z"/>
<path class="st3" d="M283.9,35.7c0.4-0.2,0.6-0.5,0.6-0.8c0-0.3-0.2-0.6-0.6-0.8c-0.4-0.2-0.8-0.4-1.4-0.4c-0.5,0-1,0.1-1.4,0.4
	c-0.4,0.2-0.6,0.5-0.6,0.8c0,0.3,0.2,0.6,0.6,0.8c0.4,0.2,0.8,0.3,1.4,0.3C283.1,35.9,283.5,35.8,283.9,35.7z"/>
</svg>
