<?xml version="1.0" encoding="utf-8"?>
<!-- Generator: Adobe Illustrator 24.2.1, SVG Export Plug-In . SVG Version: 6.00 Build 0)  -->
<svg version="1.1" id="Ebene_1" xmlns="http://www.w3.org/2000/svg" xmlns:xlink="http://www.w3.org/1999/xlink" x="0px" y="0px"
	 viewBox="0 0 349.1 161" style="enable-background:new 0 0 349.1 161;" xml:space="preserve">
<style type="text/css">
	.st0{fill:#0099FF;}
	.st1{fill:#666666;}
	.st2{fill:none;stroke:#373535;stroke-width:0.55;stroke-miterlimit:4.9999;}
	.st3{fill:none;stroke:#373535;stroke-width:0.25;stroke-miterlimit:4.9999;}
</style>
<path class="st0" d="M272,99.7c-4-2.2-8-4.3-12-6.4c-36.7-19.5-74.9-36.9-114.7-52.1l-2.8-1c-3.9-0.9-7.5-1.1-10.8-0.7l-1.1,0.1
	c-6.3,0.9-12.2,2.3-17.8,4.4c-6.2,2.3-11.5,5.3-15.8,8.9L95.8,54c-7.6,6.2-11.5,13.1-11.5,20.7c0,0.6,0,1.1,0.1,1.6
	c-0.5,8,3.3,15.3,11.5,22.1l2.2,1.9c13,11.1,29.1,20.1,48.5,26.9c16.8,5.9,34.8,9.9,54.2,12l4.1,0.6c13.1,1.9,26.3,1.2,39.6-2.1
	c15.4-3.7,26.6-10.1,33.6-19.3l0.9-1.2c1.5-1.8,2.1-3.8,1.6-5.8c0.4-1.6,0.3-3.2-0.4-4.8c-1-2.3-2.9-4.1-5.6-5.4L272,99.7
	 M153.6,49.2l-0.6,1.3l-2.1,0.6l-2.1-0.6l-0.6-1.3l1.4-1.1l2.4-0.1L153.6,49.2 M178,62.8l-2.1-0.6l-0.6-1.4l1.4-1.1l2.4,0l1.5,1
	l-0.5,1.3L178,62.8 M202.5,74.4l-0.6-1.4l1.4-1.1h2.4l1.6,1l-0.5,1.3l-2.1,0.7L202.5,74.4 M235.2,86.6l-0.4,1.4l-2.2,0.6l-2.1-0.5
	l-0.6-1.3l1.4-1.1h2.4L235.2,86.6 M258.9,99.6l2.4-0.1l1.5,1.1l-0.5,1.3l-2.1,0.6l-2.2-0.5l-0.6-1.4L258.9,99.6 M120.5,49.2h2.5
	l1.6,1l-0.6,1.3l-2.1,0.6l-2.1-0.5l-0.5-1.4L120.5,49.2 M98.3,70l-2.2-0.6l-0.6-1.4L97,67h2.3l1.5,1l-0.4,1.3L98.3,70 M103.2,94.1
	l1.4-1.1h2.4l1.5,1l-0.5,1.4l-2.1,0.7l-2.2-0.6L103.2,94.1 M134.1,111l-0.4,1.4l-2.2,0.6l-2.1-0.6l-0.6-1.3l1.4-1.2h2.4L134.1,111
	 M250.1,121.7l-0.6,1.4l-2.1,0.6l-2.2-0.6l-0.6-1.4l1.4-1l2.4-0.1L250.1,121.7 M191.2,127.3l-0.5,1.4l-2.1,0.6l-2.2-0.6l-0.6-1.4
	l1.6-1h2.3L191.2,127.3 M220.2,130.3l-2.1,0.7l-2.2-0.6l-0.6-1.4l1.6-1.1h2.4l1.6,1.1L220.2,130.3 M157,123.4l-0.6-1.4l1.6-1.1h2.4
	l1.6,1.1l-0.5,1.3l-2.2,0.6L157,123.4z"/>
<path class="st1" d="M256.4,19.1l0.1,0.7c0.1,0.1,0.1,0.2,0.2,0.3c0.1,0.1,0.3,0.2,0.4,0.3l0.8,1.1l0,15.7c0.3,0.9,1.1,1.3,2.5,1.2
	c1.4,0,2.1-0.4,2.2-1.2l-0.1-15.7l0.9-1.2c0.1-0.1,0.2-0.2,0.3-0.3c0.1-0.2,0.2-0.5,0.3-0.7l0-0.4l0-0.4c-0.5-1.1-1.7-1.7-3.7-1.8
	c-1.9-0.1-3.2,0.5-3.9,1.7L256.4,19.1z"/>
<path id="Layer0_0_MEMBER_0_MEMBER_0_1_STROKES" class="st2" d="M180.1,62.1l0.5-1.4l-1.5-1l-2.4,0.1l-1.5,1l0.6,1.4l2.1,0.6
	L180.1,62.1z"/>
<path id="Layer0_0_MEMBER_0_MEMBER_1_1_STROKES" class="st2" d="M206.7,74.3l0.5-1.4l-1.5-1h-2.4l-1.5,1.1l0.6,1.4l2.1,0.6
	L206.7,74.3z"/>
<path id="Layer0_0_MEMBER_0_MEMBER_2_1_STROKES" class="st2" d="M234.7,88l0.4-1.4l-1.5-1h-2.4l-1.5,1.1l0.6,1.4l2.1,0.5L234.7,88z"
	/>
<path id="Layer0_0_MEMBER_0_MEMBER_3_1_STROKES" class="st2" d="M262.3,102.1l0.5-1.4l-1.5-1.1l-2.4,0.1l-1.5,1.1l0.5,1.4l2.2,0.5
	L262.3,102.1z"/>
<path id="Layer0_0_MEMBER_0_MEMBER_4_1_STROKES" class="st2" d="M249.5,123.1l0.5-1.4l-1.6-1.1l-2.4,0.1l-1.5,1l0.6,1.4l2.2,0.6
	L249.5,123.1z"/>
<path id="Layer0_0_MEMBER_0_MEMBER_5_1_STROKES" class="st2" d="M220.2,130.3l0.5-1.3l-1.5-1.1h-2.4l-1.5,1.1l0.6,1.4l2.2,0.6
	L220.2,130.3z"/>
<path id="Layer0_0_MEMBER_0_MEMBER_6_1_STROKES" class="st2" d="M190.7,128.7l0.5-1.4l-1.5-1h-2.4l-1.5,1l0.6,1.4l2.2,0.6
	L190.7,128.7z"/>
<path id="Layer0_0_MEMBER_0_MEMBER_7_1_STROKES" class="st2" d="M161.3,123.3l0.5-1.4l-1.5-1h-2.4l-1.5,1.1l0.6,1.4l2.2,0.5
	L161.3,123.3z"/>
<path id="Layer0_0_MEMBER_0_MEMBER_8_1_STROKES" class="st2" d="M133.7,112.4l0.4-1.4l-1.5-1.1h-2.4l-1.5,1.2l0.6,1.3l2.1,0.6
	L133.7,112.4z"/>
<path id="Layer0_0_MEMBER_0_MEMBER_9_1_STROKES" class="st2" d="M108,95.4l0.5-1.4l-1.5-1h-2.4l-1.5,1.1l0.6,1.4l2.1,0.6L108,95.4z"
	/>
<path id="Layer0_0_MEMBER_0_MEMBER_10_1_STROKES" class="st2" d="M100.4,69.4l0.4-1.4l-1.5-1H97l-1.5,1.1l0.6,1.4l2.2,0.6
	L100.4,69.4z"/>
<path id="Layer0_0_MEMBER_0_MEMBER_11_1_STROKES" class="st2" d="M123.9,51.6l0.6-1.4l-1.5-1h-2.5l-1.4,1l0.5,1.5l2.1,0.5
	L123.9,51.6z"/>
<path id="Layer0_0_MEMBER_0_MEMBER_12_1_STROKES" class="st2" d="M153,50.6l0.5-1.4l-1.5-1.1l-2.4,0.1l-1.5,1l0.6,1.4l2.1,0.6
	L153,50.6z"/>
<path id="Layer0_0_MEMBER_0_MEMBER_13_1_STROKES" class="st3" d="M260,43.1v20.7"/>
<path id="Layer0_0_MEMBER_0_MEMBER_14_1_STROKES" class="st3" d="M260,69v5.1"/>
<path id="Layer0_0_MEMBER_0_MEMBER_15_1_STROKES" class="st3" d="M260,79.4v20.7"/>
<path id="Layer0_0_MEMBER_0_MEMBER_16_1_STROKES" class="st2" d="M258,37.3l-0.1-15.7"/>
<path id="Layer0_0_MEMBER_0_MEMBER_17_1_STROKES" class="st2" d="M258,30.1c0.2,0.9,1,1.3,2.4,1.2c1.4,0,2.2-0.5,2.2-1.4"/>
<path id="Layer0_0_MEMBER_0_MEMBER_18_1_STROKES" class="st2" d="M258,33.8c0.2,0.8,1,1.2,2.3,1.2c1.4,0,2.1-0.4,2.3-1.2"/>
<path id="Layer0_0_MEMBER_0_MEMBER_19_1_STROKES" class="st2" d="M258,37.5c0.3,0.8,1.1,1.2,2.5,1.1c1.4,0,2.1-0.4,2.2-1.3"/>
<path id="Layer0_0_MEMBER_0_MEMBER_20_1_STROKES" class="st2" d="M263.7,20l-1.3,1.9"/>
<path id="Layer0_0_MEMBER_0_MEMBER_21_1_STROKES" class="st2" d="M256.9,20l1.2,1.8"/>
<path id="Layer0_0_MEMBER_0_MEMBER_22_1_STROKES" class="st2" d="M256.5,19.8c0.7,1,2,1.5,4,1.5c2-0.1,3.2-0.7,3.5-1.9l0.1-0.4
	l-0.1-0.3c-0.5-1.1-1.7-1.7-3.7-1.8c-1.9-0.1-3.2,0.5-3.8,1.6l-0.1,0.3l-0.1,0.4L256.5,19.8z"/>
<path id="Layer0_0_MEMBER_0_MEMBER_23_1_STROKES" class="st2" d="M262.6,37V21.6"/>
<path id="Layer0_0_MEMBER_0_MEMBER_24_1_STROKES" class="st2" d="M203.3,136.4l1.6,0.3c13.2,1.9,26.4,1.2,39.6-2
	c15.3-3.8,26.5-10.2,33.6-19.4l0.7-0.9l0.2-0.3c2-2.4,2.4-5,1.2-7.6c-1.1-2.4-3.1-4.3-6-5.6"/>
<path id="Layer0_0_MEMBER_0_MEMBER_25_1_STROKES" class="st2" d="M142.5,40.2c-3.9-0.9-7.5-1.1-10.8-0.7"/>
<path id="Layer0_0_MEMBER_0_MEMBER_26_1_STROKES" class="st2" d="M96.6,53.2L95.8,54c-7.6,6.2-11.4,13.1-11.4,20.7
	c0.1,7.6,3.9,14.5,11.5,20.7l0.9,0.7"/>
<path id="Layer0_0_MEMBER_0_MEMBER_27_1_STROKES" class="st2" d="M96.6,53.2l0.4-0.3c4.3-3.6,9.5-6.5,15.8-8.9
	c5.5-2,11.4-3.5,17.7-4.4l0.9-0.1"/>
<path id="Layer0_0_MEMBER_0_MEMBER_28_1_STROKES" class="st2" d="M96.7,96.2l1.4,1.2c13,11.1,29.1,20.1,48.4,26.9
	c16.7,5.9,34.8,9.9,54.4,12l2.5,0.2"/>
<path id="Layer0_0_MEMBER_0_MEMBER_29_1_STROKES" class="st2" d="M203.3,139.4l1.6,0.3c13.1,1.9,26.3,1.2,39.6-2
	c15.4-3.7,26.6-10.1,33.6-19.3l0.9-1.2c1.5-1.8,2.1-3.8,1.7-5.8"/>
<path id="Layer0_0_MEMBER_0_MEMBER_30_1_STROKES" class="st2" d="M84.3,76.4c-0.5,8,3.4,15.3,11.5,22l2.2,2
	c13,11.1,29.1,20.1,48.5,26.9c16.8,5.9,34.9,9.9,54.3,11.9l2.5,0.3"/>
<path id="Layer0_0_MEMBER_0_MEMBER_31_1_STROKES" class="st2" d="M142.5,40.2l2.7,1c44.1,16.9,86.4,36.4,126.7,58.5l2.6,1.5"/>
</svg>
