<?xml version="1.0" encoding="utf-8"?>
<!-- Generator: Adobe Illustrator 24.2.1, SVG Export Plug-In . SVG Version: 6.00 Build 0)  -->
<svg version="1.1" id="Ebene_1" xmlns="http://www.w3.org/2000/svg" xmlns:xlink="http://www.w3.org/1999/xlink" x="0px" y="0px"
	 viewBox="0 0 349.1 161" style="enable-background:new 0 0 349.1 161;" xml:space="preserve">
<style type="text/css">
	.st0{fill:#0099FF;}
	.st1{fill:none;stroke:#373535;stroke-width:0.55;stroke-miterlimit:5;}
</style>
<path class="st0" d="M201.9,16.5c-0.4-0.1-0.9,0.1-1.4,0.4L164.7,42l-16.8,11.3l-0.2,0.2c-1.1,0.9-1.6,2-1.6,3.2v34
	c0,0.1-0.1,0.3-0.1,0.4c0,0.5,0.2,0.9,0.6,1.1c0,0,0.1,0,0.1,0.1l1.7,0.9c0.3,0.1,0.8,0,1.2-0.3l0.9-0.6c1.6-0.8,2.9-0.9,4.1-0.4
	l0.8,2l0.1,1.1l0.5,34.6l0.3,1.3l0.5,1.1l0.6,0.9l0.8,0.6l0.8,0.4c0.4,0.3,0.8,0.6,1.2,0.8c1.5,0.6,3.3,0.3,5.2-0.8l22.8-13.3
	c2.3-1.3,4.2-3.3,5.9-6.1c1.3-2.2,2.1-4.4,2.4-6.6c0.1-0.4,0.1-0.8,0.1-1.2c0-0.1,0-0.2,0-0.4l0-0.3l2.7-34.3
	c0.2-2.5,1.1-4.9,2.6-7.4c1.5-2.5,3.2-4.4,5.3-5.7l6.3-3.6c0.6-0.4,1-0.9,1.4-1.5c0.4-0.7,0.5-1.3,0.5-1.9V21.8c0-0.4-0.1-0.8-0.4-1
	c-0.1-0.1-0.3-0.2-0.4-0.2c-0.2-0.1-0.4-0.1-0.6,0l-5.1-0.7L201.9,16.5 M198.9,24.1l0.2-0.2c0.4-0.5,0.8-0.6,1.1-0.4
	c0.3,0.2,0.4,0.6,0.1,1.2l-0.1,0.2l-0.1,0.2l-0.2,0.2l-0.1,0.1c-0.5,0.5-0.9,0.5-1.1,0.2c-0.2-0.3-0.2-0.8,0.1-1.2L198.9,24.1
	 M209.4,24.9c0.4-0.5,0.8-0.7,1.1-0.4c0.3,0.2,0.4,0.5,0.1,1.1l-0.1,0.2l-0.1,0.2l-0.2,0.3c-0.5,0.4-0.8,0.5-1.1,0.2
	c-0.2-0.3-0.2-0.7,0.1-1.2L209.4,24.9 M212.5,35.9l-0.1,0.1c-0.5,0.4-0.9,0.5-1.1,0.2c-0.2-0.3-0.2-0.7,0.1-1.2l0.1-0.2l0.1-0.1
	c0.4-0.5,0.7-0.7,1-0.5c0.3,0.2,0.4,0.6,0.2,1.2l-0.2,0.3L212.5,35.9 M211.4,51.4l0.2-0.3c0.4-0.5,0.7-0.7,1-0.4
	c0.3,0.2,0.4,0.6,0.2,1.2l-0.1,0.2l-0.3,0.5c-0.5,0.5-0.9,0.5-1.1,0.2C211.1,52.3,211.1,51.9,211.4,51.4 M211.4,43l0.2-0.3
	c0.4-0.5,0.7-0.7,1-0.5c0.3,0.2,0.4,0.6,0.2,1.2l-0.1,0.2l-0.3,0.5c-0.5,0.5-0.9,0.5-1.1,0.2C211.1,43.9,211.1,43.5,211.4,43
	 M192,29.8l0.1-0.2l0.1-0.1c0.4-0.5,0.8-0.7,1.1-0.5c0.3,0.2,0.4,0.6,0.2,1.2l-0.2,0.3l-0.1,0.2l-0.2,0.1c-0.5,0.5-0.8,0.5-1,0.2
	C191.6,30.7,191.7,30.3,192,29.8 M185.2,36l-0.3,0.5l-0.2,0.1c-0.5,0.5-0.8,0.6-1.1,0.2c-0.2-0.3-0.2-0.7,0.1-1.2l0.1-0.2l0.1-0.2
	c0.4-0.5,0.8-0.6,1.1-0.4C185.3,35,185.4,35.4,185.2,36 M199.6,60.2l-0.1,0.1l-0.1,0.1c-0.5,0.5-0.8,0.5-1,0.2
	c-0.3-0.3-0.3-0.7,0-1.2l0.1-0.2l0.1-0.2c0.4-0.5,0.8-0.6,1.1-0.4c0.3,0.2,0.3,0.6,0.1,1.2l-0.1,0.2L199.6,60.2 M161.8,50.9l0.2-0.3
	c0.4-0.5,0.8-0.7,1.1-0.4c0.3,0.2,0.4,0.5,0.1,1.1l-0.1,0.2l-0.2,0.3l-0.1,0.2c-0.5,0.5-0.8,0.5-1.1,0.2
	C161.5,51.8,161.5,51.4,161.8,50.9 M152.4,60.1c0.3,0.2,0.4,0.6,0.1,1.1l-0.1,0.2l-0.3,0.4c-0.5,0.5-0.9,0.5-1.1,0.2
	c-0.2-0.3-0.2-0.7,0.1-1.2l0.1-0.2l0.1-0.2C151.7,60.1,152,59.9,152.4,60.1 M149.7,72.8l0.2-0.3c0.4-0.5,0.8-0.7,1.1-0.5
	s0.3,0.6,0.1,1.2l-0.1,0.2l-0.1,0.1l-0.1,0.2l-0.1,0.1c-0.5,0.4-0.8,0.5-1.1,0.2C149.4,73.7,149.4,73.3,149.7,72.8 M151.2,86.1
	l-0.1,0.2l-0.2,0.3l-0.1,0.2c-0.5,0.5-0.8,0.5-1.1,0.2c-0.2-0.3-0.2-0.8,0.1-1.2l0.1-0.1l0.2-0.2c0.4-0.5,0.8-0.6,1.1-0.4
	C151.4,85.1,151.5,85.5,151.2,86.1 M171.6,125.8c0.2,0.1,0.2,0.3,0.2,0.6c0,0.3-0.1,0.6-0.2,0.9c-0.1,0.3-0.3,0.5-0.6,0.7
	c-0.2,0.1-0.4,0.2-0.6,0.1c-0.2-0.1-0.3-0.3-0.3-0.6c0-0.3,0.1-0.6,0.2-0.9C170.7,125.8,171.1,125.5,171.6,125.8 M192.1,112.6
	c0.2,0.1,0.3,0.3,0.3,0.6c0,0.3-0.1,0.5-0.2,0.8c-0.4,0.7-0.9,0.9-1.2,0.7c-0.2-0.1-0.2-0.3-0.2-0.6c0-0.3,0.1-0.6,0.2-0.9
	c0.1-0.3,0.3-0.5,0.6-0.6C191.7,112.5,191.9,112.5,192.1,112.6 M182.7,119.3c0.4-0.5,0.8-0.6,1.1-0.4c0.3,0.2,0.4,0.6,0.1,1.1l0,0.2
	l-0.1,0.1l-0.1,0.1l-0.1,0.2c-0.5,0.5-0.8,0.5-1.1,0.2c-0.2-0.3-0.2-0.7,0.1-1.2l0.1-0.2L182.7,119.3 M161.7,129.2
	c0.4-0.7,0.9-0.9,1.2-0.7c0.4,0.2,0.4,0.7,0.1,1.5c-0.4,0.7-0.8,0.9-1.2,0.7C161.3,130.4,161.3,129.9,161.7,129.2z"/>
<path id="Layer1_3_MEMBER_0_1_STROKES" class="st1" d="M149,54.3l17.1-11.4L202,17.7"/>
<path id="Layer1_3_MEMBER_1_1_STROKES" class="st1" d="M157.3,129l0.1,1.4c0.3,2.2,1.3,3.6,2.9,4.2c1.5,0.6,3.3,0.4,5.2-0.8l0.9-0.6
	"/>
<path id="Layer1_3_MEMBER_2_1_STROKES" class="st1" d="M149.6,92.9l0.9-0.5c1.7-0.9,3.2-1,4.4-0.3c1.2,0.6,1.9,1.9,2,3.8v0.8"/>
<path id="Layer1_3_MEMBER_3_1_STROKES" class="st1" d="M199.3,72.3v-0.4c0.2-2.5,1.1-4.9,2.5-7.3c1.5-2.5,3.2-4.4,5.3-5.7l0.7-0.4"
	/>
<path id="Layer1_3_MEMBER_4_1_STROKES" class="st1" d="M147.4,57.5c0-0.6,0.1-1.2,0.5-1.8c0.3-0.6,0.7-1.1,1.1-1.4l0.2-0.2"/>
<path id="Layer1_3_MEMBER_5_1_STROKES" class="st1" d="M149.5,92.9c-0.6,0.4-1.1,0.4-1.5,0.2c-0.4-0.3-0.6-0.8-0.5-1.5"/>
<path id="Layer1_3_MEMBER_6_1_STROKES" class="st1" d="M202.1,17.6l0.3-0.2l0.3-0.1l0.3,0h0.2l0.2,0.1"/>
<path id="Layer1_3_MEMBER_7_1_STROKES" class="st1" d="M213.9,20.5c0.4-0.1,0.8,0,1,0.2c0.2,0.2,0.4,0.6,0.4,1v0.3"/>
<path id="Layer1_3_MEMBER_8_1_STROKES" class="st1" d="M215.3,51.8c0,0.6-0.1,1.3-0.5,1.9c-0.3,0.6-0.8,1.1-1.4,1.4"/>
<path id="Layer1_3_MEMBER_9_1_STROKES" class="st1" d="M156.9,95.8l0.4,33.1"/>
<path id="Layer1_3_MEMBER_10_1_STROKES" class="st1" d="M147.4,91.9V57.5"/>
<path id="Layer1_3_MEMBER_11_1_STROKES" class="st1" d="M215.3,21.7v30.1"/>
<path id="Layer1_3_MEMBER_12_1_STROKES" class="st1" d="M213.5,55.2l-6.3,3.6"/>
<path id="Layer1_3_MEMBER_13_1_STROKES" class="st1" d="M188,120.8l0.3-0.2c2.3-1.3,4.2-3.3,5.9-6.1c1.6-2.8,2.5-5.5,2.5-8.1v-0.3"
	/>
<path id="Layer1_3_MEMBER_14_1_STROKES" class="st1" d="M165.5,133.9l22.8-13.2"/>
<path id="Layer1_3_MEMBER_15_1_STROKES" class="st1" d="M196.5,108l2.8-36.2"/>
<path id="Layer1_3_MEMBER_16_1_STROKES" class="st1" d="M203.4,17.4l5.4,2.4l4.9,0.8"/>
<path id="Layer1_3_MEMBER_17_1_STROKES" class="st1" d="M193.2,30.4l0.2-0.3c0.2-0.6,0.2-1-0.2-1.2c-0.3-0.2-0.6,0-1,0.5l-0.1,0.2
	l-0.1,0.2c-0.3,0.5-0.3,0.9-0.1,1.2c0.2,0.3,0.6,0.3,1-0.2l0.2-0.1L193.2,30.4z"/>
<path id="Layer1_3_MEMBER_18_1_STROKES" class="st1" d="M183.8,35.5c-0.3,0.5-0.3,0.9-0.1,1.2c0.2,0.3,0.6,0.2,1.1-0.2l0.1-0.2
	l0.3-0.4c0.2-0.6,0.2-1-0.1-1.2c-0.3-0.2-0.6-0.1-1,0.4l-0.1,0.2L183.8,35.5z"/>
<path id="Layer1_3_MEMBER_19_1_STROKES" class="st1" d="M198.7,25.5c0.2,0.3,0.6,0.3,1.1-0.2l0.1-0.2l0.2-0.2l0.1-0.2l0-0.2
	c0.3-0.6,0.2-0.9-0.1-1.2c-0.3-0.2-0.6-0.1-1,0.4l-0.2,0.2l-0.1,0.2C198.5,24.7,198.5,25.1,198.7,25.5z"/>
<path id="Layer1_3_MEMBER_20_1_STROKES" class="st1" d="M212.4,36l0.1-0.2l0.1-0.2l0.2-0.3c0.2-0.6,0.2-1-0.2-1.2
	c-0.3-0.2-0.7-0.1-1,0.4l-0.1,0.2l-0.1,0.2c-0.3,0.5-0.3,0.9-0.1,1.2C211.5,36.5,211.9,36.4,212.4,36z"/>
<path id="Layer1_3_MEMBER_21_1_STROKES" class="st1" d="M212.8,43.3c0.2-0.6,0.2-0.9-0.2-1.2c-0.3-0.2-0.7-0.1-1,0.4l-0.2,0.3
	c-0.3,0.5-0.3,1-0.1,1.2c0.2,0.3,0.6,0.3,1.1-0.2l0.3-0.4L212.8,43.3z"/>
<path id="Layer1_3_MEMBER_22_1_STROKES" class="st1" d="M211.6,51l-0.2,0.3c-0.3,0.5-0.3,0.9-0.1,1.2c0.2,0.3,0.6,0.3,1.1-0.2
	l0.3-0.4l0.1-0.2c0.2-0.6,0.2-0.9-0.2-1.1C212.4,50.4,212,50.5,211.6,51z"/>
<path id="Layer1_3_MEMBER_23_1_STROKES" class="st1" d="M199.6,60.1l0.1-0.2l0.1-0.1c0.2-0.6,0.2-1-0.1-1.2s-0.7,0-1.1,0.4l-0.1,0.1
	l-0.1,0.2c-0.3,0.5-0.3,0.9,0,1.2c0.2,0.3,0.6,0.2,1-0.2l0.1-0.1L199.6,60.1z"/>
<path id="Layer1_3_MEMBER_24_1_STROKES" class="st1" d="M192.1,114c0.2-0.3,0.2-0.6,0.2-0.9c0-0.3-0.1-0.5-0.3-0.6
	c-0.2-0.1-0.4-0.1-0.6,0.1c-0.3,0.1-0.5,0.3-0.6,0.6c-0.2,0.3-0.2,0.6-0.2,0.9c0,0.3,0.1,0.4,0.2,0.6
	C191.3,114.9,191.7,114.7,192.1,114z"/>
<path id="Layer1_3_MEMBER_25_1_STROKES" class="st1" d="M182.7,119.3l-0.1,0.1l-0.1,0.2c-0.3,0.5-0.3,0.9-0.1,1.2
	c0.3,0.3,0.6,0.3,1.1-0.2l0.1-0.1l0.1-0.1l0.1-0.2l0-0.2c0.3-0.6,0.2-0.9-0.1-1.1C183.5,118.6,183.1,118.8,182.7,119.3z"/>
<path id="Layer1_3_MEMBER_26_1_STROKES" class="st1" d="M171.6,127.1c-0.1,0.3-0.3,0.5-0.6,0.7c-0.2,0.1-0.4,0.1-0.6,0
	c-0.2-0.1-0.3-0.3-0.3-0.5c0-0.3,0.1-0.6,0.2-0.9c0.4-0.7,0.8-0.9,1.2-0.7c0.2,0.1,0.3,0.3,0.2,0.6
	C171.8,126.6,171.7,126.8,171.6,127.1z"/>
<path id="Layer1_3_MEMBER_27_1_STROKES" class="st1" d="M163,129.9c-0.4,0.7-0.8,0.9-1.2,0.7c-0.4-0.2-0.4-0.7-0.1-1.4
	c0.4-0.7,0.9-0.9,1.2-0.7S163.3,129.2,163,129.9z"/>
<path id="Layer1_3_MEMBER_28_1_STROKES" class="st1" d="M151.2,86.2l0.1-0.1c0.3-0.6,0.2-1-0.1-1.2c-0.3-0.2-0.6-0.1-1,0.4l-0.2,0.1
	l-0.1,0.2c-0.3,0.5-0.3,0.9-0.1,1.2c0.3,0.3,0.6,0.3,1.1-0.2l0.1-0.1L151.2,86.2z"/>
<path id="Layer1_3_MEMBER_29_1_STROKES" class="st1" d="M149.7,72.7c-0.3,0.5-0.3,0.9-0.1,1.2c0.3,0.3,0.6,0.2,1.1-0.2l0.1-0.2
	l0.1-0.1l0-0.1l0.1-0.2c0.2-0.6,0.2-0.9-0.1-1.1s-0.7-0.1-1.1,0.4L149.7,72.7z"/>
<path id="Layer1_3_MEMBER_30_1_STROKES" class="st1" d="M151.2,60.7l-0.1,0.2c-0.3,0.5-0.3,0.9-0.1,1.2c0.2,0.3,0.6,0.3,1.1-0.2
	l0.3-0.4l0.1-0.2c0.3-0.6,0.2-0.9-0.1-1.1s-0.7-0.1-1.1,0.4L151.2,60.7z"/>
<path id="Layer1_3_MEMBER_31_1_STROKES" class="st1" d="M161.8,50.9c-0.3,0.5-0.3,0.9-0.1,1.2s0.6,0.3,1-0.2l0.1-0.1l0.2-0.3
	l0.1-0.2c0.2-0.6,0.1-1-0.1-1.2c-0.3-0.2-0.6,0-1.1,0.5L161.8,50.9z"/>
<path id="Layer1_3_MEMBER_32_1_STROKES" class="st1" d="M209.2,25.1c-0.3,0.5-0.3,0.9-0.1,1.2c0.3,0.3,0.6,0.2,1.1-0.2l0.2-0.3
	l0.1-0.2l0.1-0.1c0.3-0.6,0.2-1-0.1-1.2c-0.3-0.2-0.7-0.1-1.1,0.4L209.2,25.1z"/>
<path id="Layer1_3_MEMBER_33_1_STROKES" class="st1" d="M147.5,53.4L164.7,42l35.9-25.1"/>
<path id="Layer1_3_MEMBER_34_1_STROKES" class="st1" d="M155.9,128.2l0.1,1.4l0.3,1.3l0.5,1.2l0.6,0.9l0.8,0.7l0.8,0.3"/>
<path id="Layer1_3_MEMBER_35_1_STROKES" class="st1" d="M154.5,92.1l0.4,0.8l0.4,1l0.1,1.1v0.9"/>
<path id="Layer1_3_MEMBER_36_1_STROKES" class="st1" d="M146,56.7c-0.1-1.2,0.5-2.3,1.6-3.2l0.2-0.2"/>
<path id="Layer1_3_MEMBER_37_1_STROKES" class="st1" d="M146.6,92.3c-0.5-0.3-0.7-0.8-0.6-1.6"/>
<path id="Layer1_3_MEMBER_38_1_STROKES" class="st1" d="M200.6,16.7c0.5-0.3,1-0.4,1.5-0.2"/>
<path id="Layer1_3_MEMBER_39_1_STROKES" class="st1" d="M211.7,19.9l0.8-0.2l0.3,0h0.3"/>
<path id="Layer1_3_MEMBER_40_1_STROKES" class="st1" d="M155.5,95l0.4,33.1"/>
<path id="Layer1_3_MEMBER_41_1_STROKES" class="st1" d="M146,91.1V56.7"/>
<path id="Layer1_3_MEMBER_42_1_STROKES" class="st1" d="M203.8,17.5l-1.9-1"/>
<path id="Layer1_3_MEMBER_43_1_STROKES" class="st1" d="M215,20.7l-1.9-1"/>
<path id="Layer1_3_MEMBER_44_1_STROKES" class="st1" d="M148.4,93.2l-1.9-1"/>
</svg>
