<?xml version="1.0" encoding="utf-8"?>
<!-- Generator: Adobe Illustrator 24.2.1, SVG Export Plug-In . SVG Version: 6.00 Build 0)  -->
<svg version="1.1" id="Ebene_1" xmlns="http://www.w3.org/2000/svg" xmlns:xlink="http://www.w3.org/1999/xlink" x="0px" y="0px"
	 viewBox="0 0 349.1 161" style="enable-background:new 0 0 349.1 161;" xml:space="preserve">
<style type="text/css">
	.st0{fill:#666666;}
	.st1{fill:#0099FF;}
	.st2{fill:none;stroke:#373535;stroke-width:0.55;stroke-miterlimit:5;}
	.st3{fill:none;stroke:#373535;stroke-width:0.25;stroke-miterlimit:5;}
	.st4{fill:none;stroke:#373535;stroke-width:0.4;stroke-miterlimit:5;}
</style>
<path class="st0" d="M148.4,151.3c-0.6,0.4-0.9,1-0.9,2c0,1,0.3,2,0.9,3c0.6,1.1,1.3,1.8,2.2,2.3c0.8,0.5,1.5,0.5,2.1,0.2
	c0.4-0.2,0.7-0.6,0.8-1.1l0.8-1.8l15.1-8.7c0.8-0.6,0.8-1.5,0-2.9c-0.8-1.4-1.6-1.9-2.6-1.5l-15.1,8.7l-2-0.3
	C149.2,151,148.8,151.1,148.4,151.3z"/>
<path class="st1" d="M190,9.5c-3-1.7-6.1-2.9-9.4-3.5c-3.5-0.6-6.8-0.5-10,0.3l-0.5,0.2c-0.1,0-0.2,0-0.4,0.1
	c-1.1,0.2-2.2,0.5-3.3,0.8c-7.2,2.4-12.3,7.4-15.3,15.1l-1,2.8l-8.9,33.3l-1.7,13.5c0,0.1,0,0.1,0,0.2c-0.8,6.2,0.1,12.2,2.8,18.1
	c2.7,6,6.7,10.8,12,14.2l52.6,33l2.2-0.5l1.3-15.8l2.5-16.4l3.6-16.7l4.7-17l5.8-16.9l6.8-17L190,9.5 M195.2,22.4
	c0.2,0.2,0.4,0.5,0.5,0.9c0.1,0.3,0.2,0.6,0.2,0.9c0.1,0.4,0,0.8,0,1.2c-0.2,0.7-0.5,1.1-1,1.3c-0.5,0.2-1.1,0.1-1.7-0.2
	c-0.5-0.4-1-0.9-1.3-1.6c-0.3-0.7-0.3-1.4-0.2-2c0.2-0.7,0.5-1.1,1.1-1.3c0.5-0.2,1.1-0.2,1.6,0.2C194.7,21.9,194.9,22.1,195.2,22.4
	 M222.8,38.9c0.5-0.2,1.1-0.1,1.6,0.2c0.2,0.1,0.3,0.2,0.5,0.3c0.4,0.4,0.7,0.8,0.9,1.3c0.2,0.5,0.3,1.1,0.3,1.6
	c0,0.1,0,0.3-0.1,0.4c-0.2,0.6-0.5,1.1-1,1.3c-0.5,0.2-1.1,0.2-1.7-0.2c-0.6-0.3-1-0.8-1.3-1.5c-0.3-0.7-0.4-1.4-0.2-2.1
	C221.9,39.6,222.3,39.2,222.8,38.9 M159.4,21.8c0.2,0.1,0.3,0.3,0.5,0.5c0.3,0.3,0.6,0.7,0.8,1.2c0.3,0.6,0.4,1.2,0.3,1.9
	c0,0.1,0,0.1,0,0.2c-0.2,0.6-0.6,1.1-1.1,1.3c-0.5,0.2-1.1,0.2-1.6-0.2c-0.5-0.3-1-0.8-1.3-1.5c-0.3-0.7-0.3-1.4-0.2-2
	c0.2-0.7,0.5-1.2,1-1.4C158.3,21.4,158.9,21.5,159.4,21.8 M209.4,80.4c0.1,0.1,0.1,0.1,0.2,0.2c0.5,0.3,0.8,0.8,1.2,1.4
	c0.2,0.4,0.4,0.8,0.5,1.2c0.1,0.2,0.1,0.5,0.1,0.7c0,0.7-0.2,1.1-0.6,1.4c-0.4,0.2-0.9,0.1-1.4-0.2c-0.6-0.3-1.1-0.8-1.5-1.5
	c-0.4-0.7-0.6-1.3-0.6-2c0-0.7,0.2-1.1,0.6-1.4C208.3,80,208.8,80.1,209.4,80.4 M148,73c0,0.2,0,0.3,0,0.5c0,0.6-0.2,1-0.6,1.2
	c-0.4,0.2-0.9,0.2-1.5-0.1c-0.6-0.3-1.1-0.8-1.5-1.5c-0.4-0.7-0.6-1.4-0.6-2c0-0.7,0.2-1.1,0.6-1.3c0.4-0.2,0.9-0.2,1.5,0.1
	c0,0.1,0.1,0.1,0.2,0.1c0.4,0.3,0.8,0.8,1.3,1.4C147.7,72,147.9,72.5,148,73 M200.7,123.5c0.1,0,0.2,0.1,0.3,0.2
	c0.5,0.3,0.8,0.8,1.2,1.3c0.2,0.4,0.3,0.7,0.5,1.1c0.1,0.3,0.1,0.7,0.1,1c0,0.7-0.2,1.1-0.6,1.3c-0.4,0.2-0.9,0.2-1.5-0.1
	c-0.5-0.3-0.9-0.7-1.3-1.2c-0.1-0.1-0.2-0.2-0.2-0.3c-0.4-0.7-0.6-1.3-0.6-2c0-0.7,0.2-1.2,0.6-1.4
	C199.6,123.2,200.1,123.2,200.7,123.5 M167.9,106.4c0-0.7,0.2-1.1,0.6-1.3c0.4-0.2,0.9-0.2,1.5,0.1c0,0,0.1,0.1,0.2,0.1
	c0.5,0.3,0.8,0.8,1.2,1.4c0.2,0.4,0.4,0.7,0.5,1.1c0.1,0.3,0.1,0.6,0.1,1c0,0.6-0.2,1.1-0.6,1.3c-0.4,0.2-0.9,0.2-1.4-0.1
	c-0.6-0.3-1.1-0.8-1.5-1.5C168.1,107.7,167.9,107,167.9,106.4z"/>
<path id="Layer0_0_MEMBER_0_MEMBER_0_1_STROKES" class="st2" d="M206.8,137.4l-52.6-33c-5.3-3.4-9.3-8.1-12-14.2
	c-2.7-6-3.7-12.1-2.8-18.3l0.1-0.7"/>
<path id="Layer0_0_MEMBER_0_MEMBER_1_1_STROKES" class="st2" d="M150.3,24.4l0.7-2c3-7.7,8.1-12.7,15.3-15.1
	c7.2-2.4,14.3-1.5,21.5,2.6l1.3,0.8"/>
<path id="Layer0_0_MEMBER_0_MEMBER_2_1_STROKES" class="st2" d="M139.5,72.2l1.6-13.7l8.9-33.3l0.4-0.8"/>
<path id="Layer0_0_MEMBER_0_MEMBER_3_1_STROKES" class="st2" d="M189.2,10.7l42.3,27"/>
<path id="Layer0_0_MEMBER_0_MEMBER_4_1_STROKES" class="st3" d="M171.1,143.2l10.2-5.9"/>
<path id="Layer0_0_MEMBER_0_MEMBER_5_1_STROKES" class="st3" d="M183.9,135.8l2.6-1.4"/>
<path id="Layer0_0_MEMBER_0_MEMBER_6_1_STROKES" class="st3" d="M189,132.9l10.2-5.8"/>
<path id="Layer0_0_MEMBER_0_MEMBER_7_1_STROKES" class="st2" d="M167,142.6l-15.2,8.7"/>
<path id="Layer0_0_MEMBER_0_MEMBER_8_1_STROKES" class="st2" d="M160.6,146.3c0.9-0.2,1.8,0.3,2.5,1.7c0.7,1.4,0.7,2.4-0.1,2.9"/>
<path id="Layer0_0_MEMBER_0_MEMBER_9_1_STROKES" class="st2" d="M162.3,145.3c0.9-0.2,1.7,0.3,2.4,1.6c0.8,1.3,0.8,2.3,0.2,2.9"/>
<path id="Layer0_0_MEMBER_0_MEMBER_10_1_STROKES" class="st2" d="M164.1,144.3c0.9-0.2,1.7,0.3,2.4,1.6c0.8,1.3,0.8,2.3,0.2,2.9"/>
<path id="Layer0_0_MEMBER_0_MEMBER_11_1_STROKES" class="st2" d="M166,143.2c0.8,0,1.6,0.5,2.3,1.7c0.7,1.2,0.7,2.1,0.1,2.8"/>
<path id="Layer0_0_MEMBER_0_MEMBER_12_1_STROKES" class="st2" d="M167,142.6l0.2-0.1c0.9-0.2,1.7,0.3,2.5,1.7
	c0.7,1.4,0.7,2.3-0.1,2.9"/>
<path id="Layer0_0_MEMBER_0_MEMBER_13_1_STROKES" class="st2" d="M152.1,151.3c0.7,0.1,1.4,0.6,2,1.6c0.6,0.9,0.7,1.7,0.4,2.5"/>
<path id="Layer0_0_MEMBER_0_MEMBER_14_1_STROKES" class="st2" d="M153.5,157.8l1.1-2.3"/>
<path id="Layer0_0_MEMBER_0_MEMBER_15_1_STROKES" class="st2" d="M149.7,151.1l2.4,0.2"/>
<path id="Layer0_0_MEMBER_0_MEMBER_16_1_STROKES" class="st2" d="M152.8,158.7c-0.6,0.4-1.3,0.3-2.2-0.2c-0.8-0.5-1.6-1.2-2.2-2.3
	c-0.6-1-0.8-2-0.8-3c0-1,0.3-1.6,0.8-2c0.6-0.3,1.3-0.2,2.2,0.2c0.8,0.5,1.5,1.2,2.1,2.3c0.6,1,0.9,2,0.9,3
	C153.7,157.7,153.4,158.4,152.8,158.7z"/>
<path id="Layer0_0_MEMBER_0_MEMBER_17_1_STROKES" class="st2" d="M169.3,147.2l-14.9,8.6"/>
<path id="Layer0_0_MEMBER_0_MEMBER_18_1_STROKES" class="st2" d="M151.1,154.9l2.1,1.4"/>
<path id="Layer0_0_MEMBER_0_MEMBER_19_1_STROKES" class="st2" d="M151.1,156l-0.2,2"/>
<path id="Layer0_0_MEMBER_0_MEMBER_20_1_STROKES" class="st2" d="M151.1,154.8l-0.2-2.5"/>
<path id="Layer0_0_MEMBER_0_MEMBER_21_1_STROKES" class="st2" d="M150,154.3l-1.8-0.9"/>
<path id="Layer0_0_MEMBER_0_MEMBER_22_1_STROKES" class="st2" d="M169.7,6.5l0.8-0.2c3.2-0.8,6.6-0.9,10.1-0.3
	c3.3,0.6,6.4,1.8,9.4,3.5l1.3,0.8"/>
<path id="Layer0_0_MEMBER_0_MEMBER_23_1_STROKES" class="st2" d="M191.3,10.2l42.3,27"/>
<path id="Layer0_0_MEMBER_0_MEMBER_24_1_STROKES" class="st2" d="M147.4,74.8c-0.4,0.2-0.9,0.2-1.4-0.1c-0.6-0.3-1-0.8-1.4-1.5
	c-0.4-0.7-0.6-1.3-0.6-2c0-0.7,0.2-1.1,0.6-1.3c0.4-0.2,0.9-0.2,1.4,0.1c0.5,0.3,1,0.8,1.4,1.5c0.4,0.7,0.6,1.4,0.6,2
	C148,74.2,147.8,74.6,147.4,74.8z"/>
<path id="Layer0_0_MEMBER_0_MEMBER_25_1_STROKES" class="st2" d="M147.3,76.2c-0.5,0.3-1.2,0.3-1.9-0.2c-0.8-0.4-1.4-1.1-2-2.1
	c-0.6-1-0.8-1.9-0.8-2.8c0-0.9,0.2-1.5,0.8-1.8c0.5-0.3,1.2-0.3,2,0.2c0.8,0.5,1.4,1.2,2,2.1c0.6,1,0.8,1.9,0.8,2.8
	C148.2,75.3,147.9,75.9,147.3,76.2z"/>
<path id="Layer0_0_MEMBER_0_MEMBER_26_1_STROKES" class="st2" d="M171.4,110c-0.4,0.2-0.9,0.2-1.4-0.1c-0.6-0.3-1-0.8-1.4-1.5
	c-0.4-0.7-0.6-1.3-0.6-2c0-0.7,0.3-1.1,0.7-1.3c0.4-0.2,0.9-0.2,1.4,0.1c0.5,0.3,1,0.8,1.4,1.5c0.4,0.7,0.6,1.4,0.6,2
	C172,109.3,171.8,109.8,171.4,110z"/>
<path id="Layer0_0_MEMBER_0_MEMBER_27_1_STROKES" class="st2" d="M171.4,111.4c-0.6,0.3-1.2,0.2-2-0.2c-0.8-0.4-1.5-1.1-2-2.1
	c-0.6-0.9-0.8-1.8-0.8-2.8c0-0.9,0.3-1.5,0.8-1.8c0.5-0.3,1.2-0.3,2,0.2c0.8,0.5,1.4,1.2,2,2.1c0.6,1,0.8,1.9,0.8,2.8
	C172.2,110.5,171.9,111.1,171.4,111.4z"/>
<path id="Layer0_0_MEMBER_0_MEMBER_28_1_STROKES" class="st2" d="M202.1,128.4c-0.4,0.2-0.9,0.2-1.4-0.1c-0.5-0.3-1-0.8-1.4-1.5
	c-0.4-0.7-0.6-1.3-0.6-2c0-0.7,0.2-1.1,0.6-1.3c0.4-0.2,0.9-0.2,1.4,0.1c0.6,0.3,1,0.8,1.4,1.5c0.4,0.7,0.6,1.4,0.6,2
	C202.7,127.7,202.5,128.2,202.1,128.4z"/>
<path id="Layer0_0_MEMBER_0_MEMBER_29_1_STROKES" class="st2" d="M202.1,129.7c-0.6,0.3-1.2,0.3-2-0.2c-0.8-0.4-1.5-1.1-2-2.1
	c-0.5-1-0.8-1.9-0.8-2.8s0.3-1.5,0.8-1.8c0.6-0.3,1.2-0.2,2,0.2c0.8,0.4,1.4,1.1,2,2c0.6,1,0.8,1.9,0.8,2.8
	C202.9,128.9,202.6,129.5,202.1,129.7z"/>
<path id="Layer0_0_MEMBER_0_MEMBER_30_1_STROKES" class="st2" d="M209.3,80.4c0.6,0.3,1,0.8,1.4,1.5c0.4,0.7,0.6,1.3,0.6,2
	c0,0.6-0.2,1.1-0.6,1.3c-0.4,0.2-0.9,0.1-1.4-0.2c-0.6-0.3-1-0.8-1.4-1.5c-0.4-0.7-0.6-1.3-0.6-2s0.2-1.1,0.6-1.3
	C208.3,80,208.7,80,209.3,80.4z"/>
<path id="Layer0_0_MEMBER_0_MEMBER_31_1_STROKES" class="st2" d="M205.9,81.6c0-0.9,0.3-1.5,0.8-1.8c0.6-0.3,1.2-0.3,2,0.2
	c0.8,0.4,1.4,1.1,2,2.1c0.6,1,0.8,1.9,0.8,2.8c0,0.9-0.3,1.5-0.8,1.8c-0.6,0.3-1.2,0.3-2-0.2s-1.4-1.1-2-2.1
	C206.2,83.4,205.9,82.5,205.9,81.6z"/>
<path id="Layer0_0_MEMBER_0_MEMBER_32_1_STROKES" class="st4" d="M224.9,44.1c0.5-0.2,0.9-0.6,1-1.3c0.2-0.7,0.1-1.4-0.2-2
	c-0.3-0.7-0.7-1.3-1.3-1.6c-0.6-0.3-1.1-0.4-1.6-0.2c-0.5,0.2-0.9,0.6-1.1,1.3c-0.2,0.6-0.1,1.3,0.2,2c0.3,0.7,0.8,1.2,1.3,1.6
	C223.8,44.2,224.3,44.3,224.9,44.1z"/>
<path id="Layer0_0_MEMBER_0_MEMBER_33_1_STROKES" class="st4" d="M224.4,45.3c0.7-0.3,1.2-0.9,1.4-1.8c0.2-0.9,0.2-1.8-0.2-2.8
	c-0.4-1-1-1.7-1.8-2.2c-0.8-0.4-1.6-0.5-2.3-0.2c-0.8,0.3-1.3,0.9-1.5,1.8c-0.2,0.9-0.1,1.8,0.3,2.8c0.4,1,1,1.7,1.8,2.2
	C222.8,45.6,223.6,45.7,224.4,45.3z"/>
<path id="Layer0_0_MEMBER_0_MEMBER_34_1_STROKES" class="st4" d="M194.8,26.6c0.5-0.2,0.9-0.6,1-1.3c0.2-0.6,0.1-1.3-0.2-2
	c-0.3-0.7-0.7-1.2-1.3-1.6c-0.6-0.3-1.1-0.4-1.6-0.2c-0.6,0.2-0.9,0.6-1.1,1.3c-0.2,0.6-0.1,1.3,0.2,2c0.3,0.7,0.8,1.2,1.3,1.6
	C193.7,26.8,194.3,26.8,194.8,26.6z"/>
<path id="Layer0_0_MEMBER_0_MEMBER_35_1_STROKES" class="st4" d="M191.5,20.8c-0.7,0.3-1.2,0.9-1.4,1.8c-0.2,0.9-0.2,1.9,0.2,2.9
	c0.4,1,1.1,1.7,1.9,2.2c0.8,0.5,1.6,0.6,2.3,0.2c0.8-0.3,1.3-0.9,1.5-1.8c0.2-0.9,0.1-1.8-0.3-2.8c-0.4-1-1-1.7-1.8-2.2
	C193,20.6,192.2,20.5,191.5,20.8z"/>
<path id="Layer0_0_MEMBER_0_MEMBER_36_1_STROKES" class="st4" d="M158.2,26.5c0.6,0.4,1.1,0.4,1.6,0.2c0.5-0.2,0.9-0.6,1.1-1.3
	c0.2-0.7,0.1-1.4-0.2-2c-0.3-0.7-0.7-1.3-1.3-1.6c-0.6-0.3-1.1-0.4-1.6-0.2c-0.5,0.2-0.9,0.6-1,1.3c-0.2,0.6-0.1,1.3,0.2,2
	C157.2,25.7,157.7,26.2,158.2,26.5z"/>
<path id="Layer0_0_MEMBER_0_MEMBER_37_1_STROKES" class="st4" d="M157.1,27.7c0.8,0.4,1.6,0.5,2.4,0.2c0.7-0.3,1.2-0.9,1.4-1.8
	c0.2-0.9,0.1-1.8-0.3-2.8c-0.4-1-1-1.7-1.8-2.2c-0.8-0.4-1.6-0.5-2.3-0.2c-0.8,0.3-1.2,0.9-1.4,1.8c-0.2,0.9-0.2,1.8,0.2,2.8
	C155.7,26.5,156.3,27.2,157.1,27.7z"/>
<path id="Layer0_0_MEMBER_0_MEMBER_38_1_STROKES" class="st2" d="M231.5,37.7l-6.8,16.9l-5.8,17l-4.7,16.9l-3.6,16.7l-2.5,16.3
	l-1.3,15.9"/>
<path id="Layer0_0_MEMBER_0_MEMBER_39_1_STROKES" class="st2" d="M233.7,37.2l-6.8,16.9l-5.8,16.9L216.4,88l-3.6,16.7l-2.5,16.3
	l-1.3,15.9"/>
<path id="Layer0_0_MEMBER_0_MEMBER_40_1_STROKES" class="st2" d="M231.5,37.7l2.2-0.5"/>
<path id="Layer0_0_MEMBER_0_MEMBER_41_1_STROKES" class="st2" d="M209,136.9l-2.2,0.5"/>
</svg>
