<?xml version="1.0" encoding="utf-8"?>
<!-- Generator: Adobe Illustrator 24.2.1, SVG Export Plug-In . SVG Version: 6.00 Build 0)  -->
<svg version="1.1" id="Ebene_1" xmlns="http://www.w3.org/2000/svg" xmlns:xlink="http://www.w3.org/1999/xlink" x="0px" y="0px"
	 viewBox="0 0 349.1 161" style="enable-background:new 0 0 349.1 161;" xml:space="preserve">
<style type="text/css">
	.st0{font-family:'ArialMT';}
	.st1{font-size:12.5632px;}
	.st2{fill:#0099FF;fill-opacity:0.298;}
	.st3{fill:none;stroke:#B1B1B1;stroke-linecap:round;stroke-linejoin:round;}
	.st4{fill:#0099FF;}
	.st5{fill:#666666;}
	.st6{fill:#CCCCCC;}
	.st7{fill:none;stroke:#2B2B2A;stroke-width:0.55;stroke-miterlimit:4.9999;}
</style>
<g>
	<text transform="matrix(1 0 0 1 17.8359 13.5568)" class="st0 st1">If MISSING Check Configuration Deviation List (CDL)</text>
</g>
<path class="st2" d="M4.9,0.1L4.9,0.1h-9.4v18.8h9.3h0.1c2.6,0,4.8-0.9,6.7-2.8c1.8-1.8,2.8-4,2.8-6.7c0-2.6-0.9-4.8-2.8-6.6
	C9.8,1.1,7.5,0.1,4.9,0.1z"/>
<path id="Layer1_9_MEMBER_0_1_STROKES" class="st3" d="M-4.5,0.1h9.3h0.1c2.6,0,4.8,0.9,6.7,2.8c1.8,1.8,2.8,4,2.8,6.6
	s-0.9,4.8-2.8,6.7C9.8,18,7.5,19,4.9,19H4.8h-9.3"/>
<path d="M3,14.8v1.5h5v-1.5H7V6.9H3v1.5h1.1v6.4C4.1,14.8,3,14.8,3,14.8z"/>
<path d="M3.3,4c0,0.5,0.2,1,0.6,1.3c0.4,0.4,0.8,0.6,1.3,0.6s1-0.2,1.4-0.6C6.9,5,7.1,4.6,7.1,4c0-0.5-0.2-1-0.6-1.3
	C6.2,2.3,5.7,2.1,5.2,2.1s-1,0.2-1.3,0.6C3.5,3,3.3,3.5,3.3,4z"/>
<path class="st4" d="M138.4,81.8L138.4,81.8c0.3-0.6,0.8-0.9,1.5-0.9h9.9v3.6h-19.2c-1.4,0-2.7,0.5-3.7,1.5c-1,1-1.5,2.2-1.5,3.6
	l0.1,60.8l0,0.3c0,1.4,0.5,2.7,1.5,3.7c1,1,2.2,1.4,3.6,1.4h91.4c1.4,0,2.6-0.5,3.6-1.4c1-1,1.5-2.2,1.5-3.7l-0.1-61.1
	c0-1.4-0.5-2.6-1.5-3.6c-0.9-0.9-1.9-1.4-3.2-1.5h-18.8v-3.7h7.4c0.6,0,1.1,0.3,1.4,0.9l0,0c0.3,0.5,0.8,0.8,1.5,0.8h7.2
	c1.4,0,2.7-0.5,3.7-1.4c1-1,1.4-2.2,1.4-3.7V26c0-1.4-0.5-2.6-1.5-3.6c-0.9-1-2-1.5-3.2-1.5c-0.1,0-0.2,0-0.3,0h-91.5
	c-1.4,0-2.6,0.5-3.6,1.6c-1,1-1.5,2.2-1.5,3.5v51.6c0,1.4,0.5,2.6,1.5,3.6c1,1,2.2,1.5,3.6,1.5h7.2
	C137.6,82.6,138.1,82.4,138.4,81.8 M204.5,52.1V37.7h1.9V23.2h7.2v14.5h1.8l0,14.6c-1.7,0.6-3.5,0.9-5.4,0.9
	C208.1,53.2,206.2,52.8,204.5,52.1 M144.2,37.6h1.9l0,14.6c-1.9,0.6-3.7,0.9-5.4,0.9c-1.9,0-3.8-0.3-5.7-1V37.6h1.9V23h7.3V37.6
	 M141.5,95.3c0.9-1,2.1-1.5,3.5-1.5h63.8c1.3,0,2.5,0.5,3.4,1.5c1,0.9,1.5,2,1.5,3.4l-0.1,37.3l0.1,0.7c0,1.3-0.5,2.5-1.4,3.5
	c-0.9,0.8-1.9,1.3-3.1,1.4c-0.1,0-0.2,0-0.3,0l-65.3-0.2c-0.8-0.2-1.5-0.6-2.1-1.2c-1-1-1.4-2.1-1.4-3.5l0-0.7l0-37.3
	C140.1,97.4,140.5,96.2,141.5,95.3 M144.8,96c-0.8,0-1.6,0.3-2.2,0.9c-0.6,0.6-0.9,1.4-0.9,2.2v37.2c0,0.9,0.3,1.6,0.9,2.2
	c0.6,0.6,1.4,0.9,2.2,0.9l0.4,0h63l0.6,0c0.9,0,1.6-0.3,2.2-0.9c0.6-0.6,0.9-1.3,0.9-2.2V99.5c0-0.9-0.3-1.8-0.9-2.5
	c-0.6-0.7-1.3-1-2.2-1l-0.9,0.1h-62.2L144.8,96 M154,102c0.3-1.1,0.8-1.9,1.7-2.6s1.8-1,2.9-1c1,0,2,0.4,2.8,1.1
	c0.9,0.7,1.4,1.5,1.6,2.6l0,6.8c-0.2,1-0.8,1.9-1.6,2.6c-0.8,0.7-1.8,1-2.9,1c-1.1,0-2-0.3-2.9-1c-0.8-0.7-1.4-1.5-1.6-2.6L154,102
	 M178.1,98.4c1.1,0,2.1,0.4,2.9,1.1c0.8,0.7,1.4,1.5,1.6,2.6v6.7c-0.2,1.1-0.8,2-1.6,2.7c-0.8,0.7-1.8,1-2.9,1c-1,0-2-0.3-2.8-1
	c-0.8-0.7-1.4-1.6-1.7-2.6V102c0.2-1.1,0.7-1.9,1.6-2.6C176.1,98.7,177,98.4,178.1,98.4 M198.9,99c0.8,0.7,1.4,1.6,1.6,2.6l0,6.7
	c-0.2,1-0.7,1.9-1.6,2.6c-0.8,0.7-1.8,1-2.9,1c-1.1,0-2-0.3-2.9-1c-0.8-0.7-1.4-1.5-1.6-2.5l0-6.8c0.3-1,0.8-1.9,1.7-2.6
	c0.8-0.7,1.8-1,2.9-1C197.1,98,198.1,98.3,198.9,99 M194,126.8l-0.1-6.9c0.3-1,0.8-1.9,1.7-2.6c0.8-0.7,1.8-1,2.8-1
	c1.1,0,2,0.4,2.9,1.1c0.8,0.6,1.3,1.5,1.6,2.6l0,6.7c-0.2,1-0.7,1.9-1.6,2.7c-0.9,0.7-1.8,1-2.9,1c-1.1,0-2-0.3-2.9-1
	C194.8,128.6,194.3,127.8,194,126.8 M179.4,118.6c0.6,0.5,0.9,1.1,1.1,1.8v4.8c-0.2,0.7-0.6,1.4-1.1,1.8c-0.6,0.5-1.3,0.7-2.1,0.7
	c-0.7,0-1.4-0.2-2.1-0.7c-0.5-0.4-0.9-1-1.1-1.7l0-4.9c0.2-0.7,0.6-1.3,1.1-1.8c0.6-0.5,1.3-0.7,2.1-0.7
	C178.1,117.9,178.8,118.1,179.4,118.6 M160.8,119.7l0,4.7c-0.2,0.7-0.6,1.4-1.1,1.9c-0.6,0.5-1.3,0.7-2.1,0.7c-0.7,0-1.4-0.2-2-0.7
	c-0.6-0.4-1-1-1.2-1.8v-4.9c0.2-0.7,0.6-1.3,1.1-1.8c0.6-0.5,1.2-0.8,2-0.8c0.8,0,1.5,0.3,2.1,0.8
	C160.3,118.4,160.6,119,160.8,119.7z"/>
<path class="st5" d="M144.9,93.9c-1.4,0-2.5,0.5-3.5,1.5c-0.9,0.9-1.4,2-1.4,3.4l0,37.3l0,0.7c0,1.3,0.5,2.5,1.4,3.5
	c0.6,0.6,1.3,1,2.1,1.2l65.3,0.2c0.1,0,0.2,0,0.3,0c1.1-0.1,2.2-0.6,3.1-1.4c0.9-1,1.4-2.1,1.4-3.5l-0.1-0.7l0.1-37.3
	c0-1.3-0.5-2.5-1.5-3.4c-0.9-1-2-1.5-3.4-1.5H144.9 M142.6,96.9c0.6-0.6,1.4-0.9,2.2-0.9l0.9,0.1h62.2l0.9-0.1c0.9,0,1.6,0.3,2.2,1
	c0.6,0.7,0.9,1.5,0.9,2.5v36.9c0,0.9-0.3,1.6-0.9,2.2c-0.6,0.6-1.3,0.9-2.2,0.9l-0.6,0h-63l-0.4,0c-0.8,0-1.6-0.3-2.2-0.9
	c-0.6-0.6-0.9-1.3-0.9-2.2V99.1C141.7,98.3,142,97.5,142.6,96.9z"/>
<path class="st6" d="M160.8,124.5l0-4.7c-0.1-0.7-0.5-1.4-1.1-1.8c-0.6-0.5-1.3-0.8-2.1-0.8c-0.8,0-1.5,0.3-2,0.8
	c-0.6,0.5-0.9,1.1-1.1,1.8v4.9c0.2,0.7,0.6,1.3,1.2,1.8c0.6,0.5,1.2,0.7,2,0.7c0.7,0,1.4-0.2,2.1-0.7
	C160.3,125.8,160.6,125.2,160.8,124.5 M180.5,120.5c-0.2-0.7-0.6-1.4-1.1-1.8c-0.6-0.5-1.3-0.7-2.1-0.7c-0.7,0-1.4,0.2-2.1,0.7
	c-0.6,0.4-0.9,1-1.1,1.8l0,4.9c0.2,0.7,0.5,1.3,1.1,1.7c0.6,0.5,1.3,0.7,2.1,0.7c0.7,0,1.4-0.2,2.1-0.7c0.6-0.5,0.9-1.1,1.1-1.8
	V120.5 M193.9,119.8l0.1,6.9c0.3,1,0.8,1.9,1.6,2.5c0.8,0.7,1.8,1,2.9,1c1,0,2-0.3,2.9-1c0.8-0.7,1.4-1.6,1.6-2.7l0-6.7
	c-0.3-1.1-0.8-1.9-1.6-2.6c-0.8-0.7-1.8-1.1-2.9-1.1c-1,0-2,0.3-2.8,1C194.7,118,194.2,118.8,193.9,119.8 M200.5,101.6
	c-0.2-1-0.8-1.9-1.6-2.6c-0.8-0.7-1.8-1-2.8-1c-1.1,0-2,0.3-2.9,1c-0.8,0.7-1.4,1.5-1.7,2.6l0,6.8c0.2,1,0.8,1.9,1.6,2.5
	c0.8,0.7,1.8,1,2.9,1c1.1,0,2.1-0.3,2.9-1c0.8-0.7,1.4-1.5,1.6-2.6L200.5,101.6 M181,99.5c-0.8-0.7-1.8-1.1-2.9-1.1
	c-1.1,0-2,0.3-2.9,1c-0.8,0.7-1.4,1.5-1.6,2.6v6.8c0.3,1,0.8,1.9,1.7,2.6c0.8,0.7,1.8,1,2.8,1c1.1,0,2-0.3,2.9-1
	c0.8-0.7,1.4-1.6,1.6-2.7V102C182.4,101,181.9,100.1,181,99.5 M155.7,99.4c-0.8,0.7-1.4,1.5-1.7,2.6l0.1,6.8c0.2,1,0.7,1.9,1.6,2.6
	c0.8,0.7,1.8,1,2.9,1c1.1,0,2.1-0.3,2.9-1c0.8-0.7,1.3-1.5,1.6-2.6l0-6.8c-0.2-1-0.7-1.9-1.6-2.6c-0.8-0.7-1.8-1.1-2.8-1.1
	C157.5,98.4,156.5,98.7,155.7,99.4 M146.1,37.6h-1.9V23H137v14.5h-1.9V52c1.8,0.7,3.7,1,5.7,1c1.8,0,3.6-0.3,5.4-0.9L146.1,37.6
	 M204.5,37.7v14.5c1.7,0.7,3.6,1,5.6,1c1.9,0,3.7-0.3,5.4-0.9l0-14.6h-1.8V23.2h-7.2v14.5H204.5z"/>
<path id="Layer0_0_MEMBER_1_1_STROKES" class="st7" d="M221.1,82.7c1.4,0,2.6-0.5,3.7-1.5c1-1,1.5-2.2,1.5-3.7v-0.5"/>
<path id="Layer0_0_MEMBER_2_1_STROKES" class="st7" d="M226.2,77.1V26.4"/>
<path id="Layer0_0_MEMBER_3_1_STROKES" class="st7" d="M226.2,26.5l0.1-0.5c0-1.4-0.5-2.6-1.5-3.7c-1-1-2.2-1.5-3.7-1.5"/>
<path id="Layer0_0_MEMBER_4_1_STROKES" class="st7" d="M221.1,82.7h-7.2"/>
<path id="Layer0_0_MEMBER_5_1_STROKES" class="st7" d="M212.3,81.8c0.3,0.6,0.8,0.9,1.4,0.9"/>
<path id="Layer0_0_MEMBER_6_1_STROKES" class="st7" d="M212.3,81.9c-0.3-0.6-0.7-0.9-1.4-0.9"/>
<path id="Layer0_0_MEMBER_7_1_STROKES" class="st7" d="M210.8,81h-70.9"/>
<path id="Layer0_0_MEMBER_8_1_STROKES" class="st7" d="M124.5,77.1v0.5c0,1.4,0.5,2.6,1.5,3.6c1,1,2.2,1.5,3.6,1.5"/>
<path id="Layer0_0_MEMBER_9_1_STROKES" class="st7" d="M124.5,77V26.4"/>
<path id="Layer0_0_MEMBER_10_1_STROKES" class="st7" d="M129.7,20.8c-1.4,0-2.6,0.5-3.6,1.5c-1,1-1.5,2.2-1.5,3.6v0.5"/>
<path id="Layer0_0_MEMBER_11_1_STROKES" class="st7" d="M129.7,82.7h7.3"/>
<path id="Layer0_0_MEMBER_12_1_STROKES" class="st7" d="M137,82.7c0.7,0,1.1-0.3,1.4-0.9"/>
<path id="Layer0_0_MEMBER_13_1_STROKES" class="st7" d="M139.8,81c-0.7,0-1.1,0.3-1.4,0.9"/>
<path id="Layer0_0_MEMBER_14_1_STROKES" class="st7" d="M129.7,20.8h91.7"/>
<path id="Layer0_0_MEMBER_15_1_STROKES" class="st7" d="M204.5,52.2c1.7,0.7,3.6,1.1,5.6,1.1c1.9,0,3.7-0.3,5.5-1"/>
<path id="Layer0_0_MEMBER_16_1_STROKES" class="st7" d="M204.5,52.2V37.7h1.9V23.2h7.4"/>
<path id="Layer0_0_MEMBER_17_1_STROKES" class="st7" d="M215.5,52.2V37.7h-1.9V23.2"/>
<path id="Layer0_0_MEMBER_18_1_STROKES" class="st7" d="M135.1,52.1c1.8,0.7,3.7,1,5.7,1c1.8,0,3.6-0.3,5.5-0.9"/>
<path id="Layer0_0_MEMBER_19_1_STROKES" class="st7" d="M135.1,52.1V37.6h1.9V23.1h7.4"/>
<path id="Layer0_0_MEMBER_20_1_STROKES" class="st7" d="M146.1,52.1V37.6h-1.9V23.1"/>
<path id="Layer0_0_MEMBER_21_1_STROKES" class="st7" d="M222.1,156c1.4,0,2.6-0.5,3.6-1.5c1-1,1.5-2.2,1.5-3.7v-0.5"/>
<path id="Layer0_0_MEMBER_22_1_STROKES" class="st7" d="M227.1,150.9V90.2"/>
<path id="Layer0_0_MEMBER_23_1_STROKES" class="st7" d="M227,90.2l0.1-0.5c0-1.4-0.5-2.6-1.5-3.6c-1-1-2.2-1.5-3.6-1.5"/>
<path id="Layer0_0_MEMBER_24_1_STROKES" class="st7" d="M222,156h-7.2"/>
<path id="Layer0_0_MEMBER_25_1_STROKES" class="st7" d="M125.5,150.4l-0.1,0.5c0,1.4,0.5,2.6,1.5,3.7c1,1,2.2,1.5,3.7,1.5"/>
<path id="Layer0_0_MEMBER_26_1_STROKES" class="st7" d="M125.4,150.5V90.2"/>
<path id="Layer0_0_MEMBER_27_1_STROKES" class="st7" d="M130.6,84.6c-1.4,0-2.6,0.5-3.7,1.5c-1,1-1.5,2.2-1.5,3.7l0.1,0.5"/>
<path id="Layer0_0_MEMBER_28_1_STROKES" class="st7" d="M130.7,156h84.7"/>
<path id="Layer0_0_MEMBER_29_1_STROKES" class="st7" d="M130.6,84.6h91.8"/>
<path id="Layer0_0_MEMBER_30_1_STROKES" class="st7" d="M149.8,80.8v3.4"/>
<path id="Layer0_0_MEMBER_31_1_STROKES" class="st7" d="M161.4,80.8v3.4"/>
<path id="Layer0_0_MEMBER_32_1_STROKES" class="st7" d="M170.8,80.8v3.4"/>
<path id="Layer0_0_MEMBER_33_1_STROKES" class="st7" d="M183.1,81v3.4"/>
<path id="Layer0_0_MEMBER_34_1_STROKES" class="st7" d="M192.6,80.9v3.4"/>
<path id="Layer0_0_MEMBER_35_1_STROKES" class="st7" d="M203.6,81v3.4"/>
<path id="Layer0_0_MEMBER_36_1_STROKES" class="st7" d="M216,119.9l0.7,0.1c1.1,0,2-0.4,2.8-1.2c0.8-0.8,1.1-1.7,1.1-2.8
	c0-1.1-0.4-2-1.1-2.8c-0.8-0.8-1.7-1.1-2.8-1.1l-0.8,0.1"/>
<path id="Layer0_0_MEMBER_37_1_STROKES" class="st7" d="M220,111.6c-1-1.5-2.4-2.3-4.1-2.4"/>
<path id="Layer0_0_MEMBER_38_1_STROKES" class="st7" d="M173.2,143.2c0.3,0.9,0.9,1.6,1.7,2.2c0.8,0.5,1.7,0.8,2.7,0.8
	s1.9-0.3,2.7-0.8c0.8-0.6,1.4-1.3,1.7-2.2"/>
<path id="Layer0_0_MEMBER_39_1_STROKES" class="st7" d="M172.6,87.9v0.3c0,1.4,0.5,2.5,1.5,3.5c0.9,1,2.1,1.5,3.4,1.5
	c1.4,0,2.5-0.5,3.5-1.5c1-0.9,1.5-2.1,1.5-3.5"/>
<path id="Layer0_0_MEMBER_40_1_STROKES" class="st7" d="M212.9,95.7c0.1-0.3,0.1-0.7,0.1-1.2c0-1.4-0.5-2.6-1.5-3.7
	c-1-1-2.2-1.5-3.7-1.5l-0.6,0.1"/>
<path id="Layer0_0_MEMBER_41_1_STROKES" class="st7" d="M144.6,88.9c-1.5,0.3-2.7,1-3.7,2.2c-1,1.2-1.5,2.5-1.5,4.1"/>
<path id="Layer0_0_MEMBER_42_1_STROKES" class="st7" d="M207.3,89.3h-23.9"/>
<path id="Layer0_0_MEMBER_43_1_STROKES" class="st7" d="M144.6,88.9h26.3"/>
<path id="Layer0_0_MEMBER_44_1_STROKES" class="st7" d="M211.9,99.2c0-0.8-0.3-1.6-0.9-2.2c-0.6-0.6-1.3-0.9-2.2-0.9l-0.9,0.1"/>
<path id="Layer0_0_MEMBER_45_1_STROKES" class="st7" d="M213.5,99.6l0.1-0.7c0-1.4-0.5-2.5-1.5-3.5c-0.9-1-2.1-1.5-3.5-1.5"/>
<path id="Layer0_0_MEMBER_46_1_STROKES" class="st7" d="M190.6,97.2c-2.2,1.6-3.2,3.7-3.1,6.5c0,1.3,0.4,2.5,1,3.7
	c0.6,1.1,1.5,2,2.5,2.7"/>
<path id="Layer0_0_MEMBER_47_1_STROKES" class="st7" d="M201.9,108l0.5-0.7c0.8-1.5,1.2-3.1,1-4.8c-0.2-1.7-0.9-3.2-2.1-4.5
	l-0.6-0.7"/>
<path id="Layer0_0_MEMBER_48_1_STROKES" class="st7" d="M183.4,109c1.7-1.7,2.5-3.8,2.2-6.4c-0.2-2.4-1.3-4.2-3.1-5.6"/>
<path id="Layer0_0_MEMBER_49_1_STROKES" class="st7" d="M172.6,97.1c-2.1,1.6-3.1,3.8-3,6.5c0.1,2.8,1.3,5,3.6,6.5"/>
<path id="Layer0_0_MEMBER_50_1_STROKES" class="st7" d="M200.6,101.7c-0.2-1.1-0.8-1.9-1.6-2.6c-0.8-0.7-1.8-1-2.9-1
	c-1.1,0-2,0.3-2.9,1c-0.8,0.7-1.4,1.5-1.7,2.5"/>
<path id="Layer0_0_MEMBER_51_1_STROKES" class="st7" d="M191.6,108.4c0.2,1,0.8,1.9,1.6,2.5c0.8,0.7,1.8,1,2.9,1
	c1.1,0,2.1-0.3,2.9-1c0.8-0.7,1.4-1.6,1.6-2.6"/>
<path id="Layer0_0_MEMBER_52_1_STROKES" class="st7" d="M191.6,101.5v6.9"/>
<path id="Layer0_0_MEMBER_53_1_STROKES" class="st7" d="M200.6,101.7v6.9"/>
<path id="Layer0_0_MEMBER_54_1_STROKES" class="st7" d="M182.7,102.1c-0.2-1.1-0.8-1.9-1.6-2.6c-0.8-0.7-1.8-1.1-2.9-1.1
	c-1.1,0-2,0.3-2.9,1c-0.8,0.7-1.4,1.5-1.6,2.6"/>
<path id="Layer0_0_MEMBER_55_1_STROKES" class="st7" d="M173.7,108.8c0.3,1.1,0.8,1.9,1.7,2.6s1.8,1,2.9,1s2-0.3,2.9-1
	c0.8-0.7,1.4-1.6,1.6-2.7"/>
<path id="Layer0_0_MEMBER_56_1_STROKES" class="st7" d="M173.7,102v6.9"/>
<path id="Layer0_0_MEMBER_57_1_STROKES" class="st7" d="M182.7,102.1v6.9"/>
<path id="Layer0_0_MEMBER_58_1_STROKES" class="st7" d="M163.8,109c1.8-1.7,2.5-3.9,2.3-6.4c-0.3-2.4-1.3-4.2-3.1-5.6"/>
<path id="Layer0_0_MEMBER_59_1_STROKES" class="st7" d="M153,97.1c-2.1,1.6-3.1,3.8-3.1,6.5c0.1,2.8,1.3,4.9,3.7,6.5"/>
<path id="Layer0_0_MEMBER_60_1_STROKES" class="st7" d="M163,102.1c-0.2-1.1-0.8-1.9-1.6-2.6c-0.8-0.7-1.8-1.1-2.9-1.1
	c-1.1,0-2,0.3-2.9,1c-0.8,0.7-1.4,1.5-1.7,2.6"/>
<path id="Layer0_0_MEMBER_61_1_STROKES" class="st7" d="M154.1,108.8c0.2,1.1,0.8,1.9,1.6,2.6c0.8,0.7,1.8,1,2.9,1
	c1.1,0,2.1-0.3,2.9-1c0.8-0.7,1.4-1.6,1.6-2.7"/>
<path id="Layer0_0_MEMBER_62_1_STROKES" class="st7" d="M154.1,102v6.9"/>
<path id="Layer0_0_MEMBER_63_1_STROKES" class="st7" d="M163,102.1v6.9"/>
<path id="Layer0_0_MEMBER_64_1_STROKES" class="st7" d="M202.9,120c-0.2-1.1-0.8-1.9-1.6-2.6c-0.8-0.7-1.8-1.1-2.9-1.1
	c-1.1,0-2,0.3-2.9,1c-0.8,0.7-1.4,1.5-1.7,2.5"/>
<path id="Layer0_0_MEMBER_65_1_STROKES" class="st7" d="M194,126.7c0.3,1.1,0.8,1.9,1.7,2.6c0.8,0.7,1.8,1,2.9,1c1.1,0,2-0.3,2.9-1
	c0.8-0.7,1.4-1.6,1.6-2.7"/>
<path id="Layer0_0_MEMBER_66_1_STROKES" class="st7" d="M193.9,119.9v6.9"/>
<path id="Layer0_0_MEMBER_67_1_STROKES" class="st7" d="M203,120v6.9"/>
<path id="Layer0_0_MEMBER_68_1_STROKES" class="st7" d="M204.9,125.5c1-1.3,1.5-2.8,1.5-4.5c0-2.1-0.8-3.9-2.3-5.4
	c-1.5-1.5-3.3-2.2-5.4-2.2s-3.9,0.7-5.4,2.2c-1.5,1.5-2.3,3.3-2.3,5.4c0,2,0.7,3.7,2,5.1"/>
<path id="Layer0_0_MEMBER_69_1_STROKES" class="st7" d="M180.5,120.5c-0.2-0.8-0.6-1.4-1.1-1.9c-0.6-0.5-1.3-0.7-2.1-0.7
	s-1.4,0.2-2.1,0.7c-0.6,0.4-1,1-1.1,1.8"/>
<path id="Layer0_0_MEMBER_70_1_STROKES" class="st7" d="M174.2,125.3c0.2,0.8,0.6,1.4,1.1,1.8c0.6,0.5,1.3,0.7,2.1,0.7
	c0.8,0,1.4-0.2,2.1-0.7c0.6-0.5,1-1.1,1.1-1.9"/>
<path id="Layer0_0_MEMBER_71_1_STROKES" class="st7" d="M174.1,120.5v4.9"/>
<path id="Layer0_0_MEMBER_72_1_STROKES" class="st7" d="M180.5,120.5v4.9"/>
<path id="Layer0_0_MEMBER_73_1_STROKES" class="st7" d="M182,124.5c0.7-1,1-2.1,1-3.1c0-1.5-0.5-2.8-1.6-3.9
	c-1.1-1.1-2.4-1.6-3.9-1.6c-1.5,0-2.8,0.5-3.8,1.6c-1.1,1.1-1.6,2.4-1.6,3.9c0,1.4,0.5,2.6,1.4,3.6"/>
<path id="Layer0_0_MEMBER_74_1_STROKES" class="st7" d="M160.8,119.8c-0.1-0.8-0.5-1.4-1.1-1.9c-0.6-0.5-1.3-0.7-2.1-0.7
	c-0.8,0-1.4,0.2-2,0.7c-0.6,0.5-1,1.1-1.1,1.8"/>
<path id="Layer0_0_MEMBER_75_1_STROKES" class="st7" d="M154.5,124.6c0.2,0.8,0.6,1.4,1.2,1.8c0.6,0.5,1.2,0.7,2,0.7
	c0.8,0,1.4-0.2,2.1-0.7c0.6-0.5,1-1.1,1.1-1.9"/>
<path id="Layer0_0_MEMBER_76_1_STROKES" class="st7" d="M154.5,119.7v4.9"/>
<path id="Layer0_0_MEMBER_77_1_STROKES" class="st7" d="M160.8,119.8v4.8"/>
<path id="Layer0_0_MEMBER_78_1_STROKES" class="st7" d="M162.3,123.7c0.7-0.9,1-2,1-3.2c0-1.5-0.5-2.8-1.6-3.8
	c-1.1-1.1-2.4-1.6-3.9-1.6c-1.5,0-2.8,0.5-3.8,1.6c-1.1,1-1.6,2.3-1.6,3.8c0,1.5,0.5,2.7,1.4,3.7"/>
<path id="Layer0_0_MEMBER_79_1_STROKES" class="st7" d="M139.1,110.8l-0.9-0.1c-1.1,0-2,0.4-2.8,1.1c-0.8,0.8-1.1,1.7-1.1,2.8
	c0,1.1,0.4,2,1.1,2.8c0.8,0.8,1.7,1.1,2.8,1.1l0.7-0.1"/>
<path id="Layer0_0_MEMBER_80_1_STROKES" class="st7" d="M139.1,107.8c-1.7,0.2-3.1,1-4.1,2.4"/>
<path id="Layer0_0_MEMBER_81_1_STROKES" class="st7" d="M207.9,139.5l0.9,0.1c0.9,0,1.6-0.3,2.2-0.9c0.6-0.6,0.9-1.3,0.9-2.2"/>
<path id="Layer0_0_MEMBER_82_1_STROKES" class="st7" d="M208.7,141.7c1.3,0,2.5-0.5,3.5-1.4c0.9-1,1.4-2.1,1.4-3.5l-0.1-0.7"/>
<path id="Layer0_0_MEMBER_83_1_STROKES" class="st7" d="M213.6,98.8V136"/>
<path id="Layer0_0_MEMBER_84_1_STROKES" class="st7" d="M211.9,99.5v36.6"/>
<path id="Layer0_0_MEMBER_85_1_STROKES" class="st7" d="M145.7,96.2l-0.9-0.1c-0.8,0-1.6,0.3-2.2,0.9c-0.6,0.6-0.9,1.4-0.9,2.2"/>
<path id="Layer0_0_MEMBER_86_1_STROKES" class="st7" d="M145,93.9c-1.4,0-2.5,0.5-3.5,1.5c-1,0.9-1.5,2.1-1.5,3.5l0.1,0.7"/>
<path id="Layer0_0_MEMBER_87_1_STROKES" class="st7" d="M141.7,136.4c0,0.9,0.3,1.6,0.9,2.2c0.6,0.6,1.4,0.9,2.2,0.9l0.9-0.1"/>
<path id="Layer0_0_MEMBER_88_1_STROKES" class="st7" d="M140.1,136.1l-0.1,0.7c0,1.3,0.5,2.5,1.5,3.5c0.9,0.9,2.1,1.4,3.5,1.4"/>
<path id="Layer0_0_MEMBER_89_1_STROKES" class="st7" d="M140,98.8V136"/>
<path id="Layer0_0_MEMBER_90_1_STROKES" class="st7" d="M141.7,99.5v36.6"/>
<path id="Layer0_0_MEMBER_91_1_STROKES" class="st7" d="M145.2,93.9h63.5"/>
<path id="Layer0_0_MEMBER_92_1_STROKES" class="st7" d="M145.8,96.2h62.6"/>
<path id="Layer0_0_MEMBER_93_1_STROKES" class="st7" d="M145.2,139.6h63"/>
<path id="Layer0_0_MEMBER_94_1_STROKES" class="st7" d="M145.2,141.7h64"/>
<path id="Layer0_0_MEMBER_95_1_STROKES" class="st7" d="M145.1,134.5h63.3"/>
<path id="Layer0_0_MEMBER_96_1_STROKES" class="st7" d="M208.4,134.5c1.3,0,2.3-0.6,3-1.7"/>
<path id="Layer0_0_MEMBER_97_1_STROKES" class="st7" d="M142.4,133.1c0.9,0.6,1.8,1,2.7,1.4"/>
</svg>
