<?xml version="1.0" encoding="utf-8"?>
<!-- Generator: Adobe Illustrator 24.2.3, SVG Export Plug-In . SVG Version: 6.00 Build 0)  -->
<svg version="1.1" id="Ebene_1" xmlns="http://www.w3.org/2000/svg" xmlns:xlink="http://www.w3.org/1999/xlink" x="0px" y="0px"
	 viewBox="0 0 349.1 166" style="enable-background:new 0 0 349.1 166;" xml:space="preserve">
<style type="text/css">
	.st0{fill:#0099FF;}
	.st1{fill:none;stroke:#000000;stroke-width:0.26;stroke-miterlimit:5;}
	.st2{fill:none;stroke:#000000;stroke-width:0.53;stroke-miterlimit:5;}
</style>
<polygon class="st0" points="252.2,61.9 232.6,75 215.9,87.1 199.5,99.8 192.3,105.8 189.9,107.5 187.1,108.9 184.2,109.8 
	181.2,110.3 178.2,110.3 175.5,109.8 172.7,108.7 95.5,63.8 93.6,62.4 92.3,60.6 91.5,57.7 91.5,54.3 92.2,52 93.5,49.8 108,37.6 
	126.4,23.9 153.9,5.2 252.2,59.9 "/>
<g>
	<path class="st1" d="M91.5,107.4l1.3-2.2l0.1,0l1.8-1.9"/>
	<path class="st2" d="M120.3,80.4l-3.2,2.4l-3.9,2.9l-1,0.8l-4.9,3.8l-3.4,2.7l-1.6,1.2l-4.9,4l-2.8,2.4 M191.4,156.4l3.3-2.8l5-4.1
		l1.3-1l3.8-3l5.1-3.9l0.8-0.7l4.3-3.2l5.1-3.8l0.4-0.3l4.7-3.4l5.1-3.6l5.6-3.8 M94.5,100.5l-1.8,1.9l-0.1,0l-1.3,2.2l-0.7,2.3
		l-0.1,1.4l0.1,0.8l0.7,2l1.4,1.8l1.9,1.4 M94.6,114.4l77.2,44.9 M171.9,159.3l0.3,0.2l2.5,0.9l2.8,0.5h3l1.7-0.2l1.4-0.3l2.9-0.9
		l2.8-1.3l0.5-0.3l1.9-1.4"/>
	<polyline class="st1" points="94.6,103.4 97.4,101 102.3,97 107.2,93.1 112.2,89.3 113.2,88.5 117.1,85.5 122.1,82 122.6,81.6 	"/>
	<line class="st2" x1="214.3" y1="91.8" x2="251" y2="112.7"/>
	<polyline class="st2" points="235.9,122.8 240.7,119.6 251,112.7 251.4,112.5 	"/>
	<path class="st2" d="M205.4,98.6l35.7,19.9 M211,93.2l36.6,20.3"/>
	<path class="st2" d="M236.8,72.2l4.7-3.2l10.4-6.9l0.3-0.2 M192.3,105.8l3.3-2.8l5-4.1l1.3-1.1l3.8-3l5.1-3.9l0.8-0.7l4.2-3.2
		l5.1-3.7l0.4-0.3l4.7-3.4l5.1-3.6l5.6-3.8 M91.5,56.2L91.5,56.2l-0.1,1.5l0.1,0.8l0.7,2l1.4,1.8l1.9,1.4 M95.5,63.8l77.2,44.9
		 M172.7,108.7l0.3,0.2l2.5,0.9l2.8,0.5h3l1.7-0.2l1.4-0.3l2.9-0.9l2.8-1.3l0.5-0.3l1.9-1.4 M204.1,99.8l35.7,19.8"/>
	<path class="st1" d="M95.5,61.8l77.2,44.9 M172.7,106.6l0.3,0.2l2.5,0.9l2.8,0.5h3l1.7-0.2l1.4-0.3l2.9-0.9l2.8-1.3l0.5-0.3
		l1.9-1.4"/>
	<polyline class="st2" points="95.3,47.9 93.5,49.8 93.5,49.8 92.2,52 91.5,54.3 91.5,55.6 91.6,56.5 92.3,58.5 93.6,60.3 
		95.5,61.8 	"/>
	<path class="st1" d="M192.3,103.8l8.3-6.9l1.3-1l3.8-3l5.1-3.9l0.8-0.7l4.2-3.2l5.1-3.8l0.4-0.3l4.7-3.4l5.1-3.6l5.6-3.8"/>
	<path class="st2" d="M153.9,5.2l-1.1,0.7l-10,6.7l-4.3,2.9 M138.5,15.5l-5.7,3.9l-5,3.5l-4.4,3.2l-0.5,0.4l-5,3.6L114,33l-1,0.8
		l-4.9,3.8l-3.4,2.7l-1.6,1.2l-4.9,4l-2.8,2.4"/>
	<path class="st1" d="M236.8,70.2l4.7-3.2l10.4-6.9l0.3-0.2"/>
	<path class="st2" d="M252.2,61.9v-2 M252.2,59.9L153.9,5.2"/>
	<path class="st1" d="M158.4,146.4l0-0.2 M158.3,146.2l-0.1-1.1 M127.4,132.5l0.2-0.3 M127.5,132.2l0.7-1.1l0.3-1.1l-0.2-1.1
		 M101.6,106.7l0.1-0.5l0.3-0.5l0.5-0.5 M109,99.8l0.7-0.4l0.8-0.3l0.9-0.1 M111.4,99l1.3-0.1l1.3-0.3l0.6-0.2l0.6-0.3l1-0.6
		 M118,96l0.8-0.8l0.5-0.8l0.3-0.8l0-0.8 M119.6,92.7l0-0.6l0.3-0.6l0.5-0.5 M102.4,105.2l0.1-0.1l4.9-4l1.6-1.3 M116.1,97.4L118,96
		 M120.3,91.1l2-1.5l5-3.6l1.2-0.9 M128.2,127.2l0.1,0.5 M158.1,144.6l0.1,0.5 M154,10.5c-1.2,0-2.2-0.5-2.2-1.2s1-1.2,2.2-1.2
		c1.2,0,2.2,0.5,2.2,1.2S155.2,10.5,154,10.5z M133.8,23.9c-1.2,0-2.1-0.5-2.1-1.2s1-1.2,2.1-1.2c1.2,0,2.1,0.5,2.1,1.2
		S134.9,23.9,133.8,23.9z M112.7,39.1c-1.2,0-2.2-0.6-2.2-1.2c0-0.7,1-1.2,2.2-1.2c1.2,0,2.2,0.6,2.2,1.2
		C114.9,38.5,113.9,39.1,112.7,39.1z M98.4,54.3c0,0.7-1,1.2-2.2,1.2c-1.2,0-2.2-0.6-2.2-1.2c0-0.7,1-1.2,2.2-1.2
		C97.4,53,98.4,53.6,98.4,54.3z M122.4,74.2c1.2,0,2.1-0.6,2.1-1.2s-1-1.2-2.1-1.2c-1.2,0-2.1,0.6-2.1,1.2S121.3,74.2,122.4,74.2z
		 M154,90c0,0.7-1,1.2-2.1,1.2c-1.2,0-2.1-0.6-2.1-1.2c0-0.7,1-1.2,2.1-1.2C153,88.8,154,89.3,154,90z M185,104.7
		c0,0.7-1,1.2-2.1,1.2c-1.2,0-2.1-0.6-2.1-1.2s1-1.2,2.1-1.2C184,103.5,185,104,185,104.7z M204.8,90.3c1.2,0,2.1-0.5,2.1-1.2
		s-1-1.2-2.1-1.2c-1.2,0-2.1,0.5-2.1,1.2S203.6,90.3,204.8,90.3z M225.8,75.4c-1.2,0-2.1-0.6-2.1-1.2s1-1.2,2.1-1.2
		c1.2,0,2.1,0.6,2.1,1.2S227,75.4,225.8,75.4z M246,61.4c-1.2,0-2.2-0.6-2.2-1.2c0-0.7,1-1.2,2.2-1.2c1.2,0,2.2,0.6,2.2,1.2
		C248.1,60.8,247.2,61.4,246,61.4z"/>
	<path class="st2" d="M230.4,124.4l2.8-1.9 M221.5,127.7l1.9-1.3 M233.2,122.4l3-1.9l1.9-1.2"/>
	<path class="st1" d="M108.9,98l-1.6,1.3l-4.9,4l-0.1,0.1 M117.9,94.1l-1.9,1.5 M127.5,83.9l-0.2,0.1l-5,3.7l-2,1.5"/>
	<path class="st2" d="M125.1,124.5l1.6,0.9 M102.4,114.2l16.3,9.5"/>
	<line class="st1" x1="127.7" y1="132.9" x2="144.5" y2="142.7"/>
	<path class="st2" d="M228.1,125l0.8-0.1l0.8-0.2l0.7-0.4 M202.8,141.4l1-0.6l0.6-0.3l0.5-0.2l1.2-0.3l1.3-0.1l0.8-0.1l0.8-0.3
		l0.7-0.4l1.8-1.4l5.1-3.8l2.4-1.8l0.5-0.5l0.3-0.5l0-0.5l0-0.8l0.2-0.6l0.1-0.2l0.5-0.8l0.8-0.7 M200.9,142.9l1.9-1.5 M159,147.1
		l16.4,9.5 M155,141.9l1.6,0.9"/>
	<path class="st1" d="M116,95.6l-1,0.6l-0.6,0.3l-0.6,0.2l-1.3,0.3l-1.3,0.1l-0.9,0.1l-0.8,0.3l-0.7,0.4 M120.3,89.2l-0.5,0.5
		l-0.3,0.6v0.6l0,0.9l-0.3,0.9l0,0l-0.5,0.8l-0.8,0.7"/>
	<path class="st2" d="M223.4,126.3l1.5-0.8l0.7-0.2l0.8-0.2l0.8-0.1l0.9,0 M175.5,156.6l0.6,0.2l0.7,0.1l0.7,0l5.3-0.7l5.5-0.7
		l0.7-0.2l0.7-0.3l0.6-0.4l6-4.9l2.3-1.9l0.5-0.5l0.3-0.6l0-0.6l0-0.8l0.2-0.7l0.1-0.1l0.5-0.8l0.8-0.8 M156.6,142.8l0.9,0.8l0.6,1
		l0.1,1.1l0.1,0.6l0.3,0.5l0.5,0.4 M144.5,142.7l0.8,0.3l0.9,0.1l0.7-0.1l0.3-0.1l0.9-0.4l1.4-0.7l1.5-0.4l1.5-0.1l1.4,0.2l1.2,0.5
		 M126.7,125.5l0.9,0.8l0.5,0.9l0.1,1.1l-0.3,1.1l-0.7,1.1l-0.4,0.7l-0.1,0.3v0.4l0.3,0.6l0.5,0.5 M118.7,123.7l0.6,0.3l0.7,0.1
		l2.4-0.2l1.5,0.2l1.3,0.5 M102.3,103.4l-0.4,0.5l-0.3,0.5l-0.1,0.5l0.1,4.9l0,3.1l0.1,0.5l0.3,0.4l0.4,0.4"/>
	<path class="st1" d="M112.8,94c-1.2,0-2.1-0.6-2.1-1.2s1-1.2,2.1-1.2c1.2,0,2.1,0.6,2.1,1.2S113.9,94,112.8,94z M96.2,110.4
		c-1.2,0-2.1-0.6-2.1-1.2c0-0.7,1-1.2,2.1-1.2c1.2,0,2.1,0.6,2.1,1.2C98.4,109.8,97.4,110.4,96.2,110.4z M122.5,129
		c-1.2,0-2.1-0.5-2.1-1.2c0-0.7,1-1.2,2.1-1.2c1.2,0,2.1,0.5,2.1,1.2C124.6,128.5,123.6,129,122.5,129z M151.9,146.2
		c1.2,0,2.1-0.5,2.1-1.2c0-0.7-1-1.2-2.1-1.2c-1.2,0-2.1,0.5-2.1,1.2C149.7,145.6,150.7,146.2,151.9,146.2z M185,159.3l-0.5-0.6
		l-0.9-0.3l-1.1,0l-1,0.3l-0.6,0.5l0,0.6l0.3,0.3 M206.4,143.2L206.4,143.2l-1-0.4l-1.1,0l-1,0.3l-0.6,0.5l0,0.6l0.5,0.6l0.8,0.3
		 M227.4,128.2l-0.9-0.3h-1.1l-1,0.3l-0.6,0.5l0,0.6l0.5,0.6l0.1,0 M246.1,114.7L246.1,114.7l-1-0.4l-1.1,0l-1,0.3l-0.6,0.5l0,0.6
		l0.5,0.5l0.3,0.1"/>
	<path class="st1" d="M225.8,43.6V26.1 M225.8,52.3v-4.4 M225.8,74.2V56.7 M225.8,98.2V80.7 M225.8,106.9v-4.3 M225.8,128.7v-17.4"
		/>
	<path class="st2" d="M228.3,24.2l0-9.8 M223.3,23.6l0-9.3"/>
	<path class="st1" d="M223.3,21.7c0,0,0,0.1,0,0.1c0,0.8,1.1,1.4,2.5,1.4c1.4,0,2.5-0.6,2.5-1.4 M228.3,21.9l0-0.1 M223.3,19.9
		c0,0,0,0.1,0,0.1c0,0.8,1.1,1.4,2.5,1.4c1.4,0,2.5-0.6,2.5-1.4 M228.3,20l0-0.2 M223.3,17.9c0,0,0,0.1,0,0.1c0,0.8,1.1,1.4,2.5,1.4
		c1.4,0,2.5-0.6,2.5-1.4 M228.3,18.1l0-0.2 M223.3,16c0,0,0,0.1,0,0.1c0,0.8,1.1,1.4,2.5,1.4c1.4,0,2.5-0.6,2.5-1.4 M228.3,16.1
		l0-0.2"/>
	<path class="st2" d="M223.4,23.2c0,0,0,0.1,0,0.1c0,0.8,1.1,1.4,2.5,1.4s2.5-0.6,2.5-1.4 M228.4,23.4l0-0.2"/>
	<path class="st1" d="M223.4,14.6c0.4,0.6,1.3,0.9,2.3,0.9c1,0,1.9-0.3,2.3-0.9"/>
	<path class="st2" d="M225.8,14c2.3,0,4.2-1.1,4.2-2.4c0-1.3-1.9-2.4-4.2-2.4c-2.3,0-4.2,1.1-4.2,2.4C221.6,12.9,223.5,14,225.8,14z
		 M222.1,12.8l1.3,1.8 M229.5,12.6l-1.4,2"/>
	<path class="st1" d="M182.1,24.2c0,0.7-1,1.2-2.1,1.2c-1.2,0-2.1-0.5-2.1-1.2s1-1.2,2.1-1.2C181.1,23,182.1,23.6,182.1,24.2z
		 M210.1,42.6c-1.2,0-2.1-0.5-2.1-1.2s1-1.2,2.1-1.2c1.2,0,2.1,0.5,2.1,1.2S211.3,42.6,210.1,42.6z"/>
</g>
</svg>
