<?xml version="1.0" encoding="utf-8"?>
<!-- Generator: Adobe Illustrator 24.2.3, SVG Export Plug-In . SVG Version: 6.00 Build 0)  -->
<svg version="1.1" id="Ebene_1" xmlns="http://www.w3.org/2000/svg" xmlns:xlink="http://www.w3.org/1999/xlink" x="0px" y="0px"
	 viewBox="0 0 349.1 166" style="enable-background:new 0 0 349.1 166;" xml:space="preserve">
<style type="text/css">
	.st0{fill:#0099FF;}
	.st1{fill:none;stroke:#000000;stroke-width:0.53;stroke-miterlimit:5;}
	.st2{fill:none;stroke:#000000;stroke-width:0.26;stroke-miterlimit:5;}
</style>
<polygon class="st0" points="222.8,45.6 222.7,48.1 221,51.1 219.1,52.9 197.4,65.5 194.6,66.8 191.2,67.7 186.6,68.3 183.4,68.2 
	180.2,67.8 176.5,66.8 173.3,65.3 136.9,44.3 134.7,42.9 132.7,41.1 131,38 130.8,34.6 131.5,32.5 133,30.2 155.8,16.9 158.7,15.4 
	162.3,14.3 165.4,13.8 169.6,13.6 172.9,13.9 176,14.6 178.9,15.6 181.2,16.7 217.3,37.5 219.7,39.2 221.2,40.9 222.2,42.5 "/>
<path class="st1" d="M156.3,76.1c3.4-2,8-3,12.9-2.9c4.5,0.1,8.8,1.2,12,3.1 M135,88.4l-1.7,1.2l-1.4,1.3l-1,1.4l-0.5,1.5l-0.1,1.5
	l0.3,1.5 M222.5,107.4l0.5-1.8l0-1.8l-0.6-1.8l-1.1-1.7l-1.6-1.6l-2-1.4 M156.3,76.1L135,88.4 M217.6,97.4l-36.4-21 M145.6,93.6
	l-0.7,0.5l-0.6,0.5l-0.4,0.6l-0.3,0.6l-0.1,0.6l0.1,0.6l0.3,0.6l0.4,0.6l0.6,0.5l0.7,0.5 M164.3,82.8l0.7-0.3l0.8-0.3l0.8-0.2
	l0.9-0.1l0.9,0l0.9,0l0.9,0.1l0.8,0.2l0.8,0.3l0.7,0.3 M178.8,118.3c1.3,1.1,3.4,1.8,5.7,1.8c1.7,0,3.4-0.4,4.7-1.1 M207.5,103.1
	l0.7,0.5l0.5,0.6l0.3,0.6l0.1,0.7l0,0.7l-0.2,0.7l-0.4,0.6l-0.6,0.6l-0.7,0.5l-0.9,0.4 M145.6,99.2l33.1,19.1 M164.3,82.8
	l-18.7,10.8 M207.5,103.1l-35.1-20.3 M189.2,119l17.2-9.9 M156.4,77.6c3.3-1.9,7.9-3,12.7-2.8c4.5,0.1,8.7,1.2,11.9,3 M135.4,89.7
	c-2.9,1.7-4.6,4-4.7,6.4c-0.1,2.6,1.7,5.1,5,7 M197.1,124.9c-3.3,1.9-7.7,2.9-12.4,2.8c-4.3-0.1-8.5-1.2-11.6-3 M217.5,113.1
	c3.2-1.8,5-4.3,5-6.9c0.1-2.8-1.9-5.5-5.4-7.6 M135.7,103.2l37.3,21.6 M156.4,77.6l-21.1,12.1 M217.2,98.6l-36.1-20.8 M197.1,124.9
	l20.5-11.8 M164.8,160v2.9 M264.7,105.2v4.3 M87.7,100.3v4.3 M87.7,104.5l3,3.1l2.7,3l2.5,2.8l2.5,2.7l2.5,2.6l2.8,2.6l3.1,2.6
	l3.1,2.3l2.8,1.8l2.7,1.5l2.7,1.4l2.8,1.5l3.2,1.8l3.7,2.2l4.3,2.7l4.7,3.1l4.8,3.2l4.7,3.1l4.2,2.9l3.5,2.5l2.5,1.9l2.1,2.1
	l1.4,1.9l1.1,1.6l1.2,1.2l1.6,0.8l1.7,0.2l1.4-0.3l1.5-0.6l1.8-0.9l2.4-1.1l2.5-1.1l3.9-1.9l5-2.5l5.7-2.9l6-3.2l6-3.2l5.5-3.1
	l4.8-2.8l4.6-2.9l4-2.8l3.5-2.7l3.2-2.5l2.9-2.2l2.8-2l2.8-1.7l3-1.4l2.5-0.9l2.2-0.7l2.1-0.6l2.2-0.8l2.6-1.1l2.9-1.5l2.9-1.6
	l2.7-1.7l2.4-1.5l2-1.2l1.4-0.8 M87.7,100.3l2.3-2l2-1.9l1.9-1.8l1.9-1.7l2.1-1.8l2.5-1.9l2.7-1.7l2.7-1.5l5.2-2.5l2.6-1.3l2.5-1.5
	l2.2-1.6l1.7-1.4l1.5-1.4l1.5-1.4l1.7-1.4l2.2-1.6l2.6-1.6l2.8-1.5l2.8-1.4l2.7-1.3l2.5-1.3l2.2-1.2l2.3-1.5l2.1-1.4l1.7-1.2
	l1.3-0.9l0.7-0.5 M264.7,105.2l-9.4-8.5l-8.4-7.6l-9.8-7.7l-4.8-3.2l-4.7-2.7l-4.6-2.4l-4.4-2.2l-4.2-2.2l-4-2.3l-3.8-2.6
	 M87.7,100.3l3,3.1l2.7,2.9l2.5,2.8l2.5,2.7l2.5,2.6l2.8,2.6l3.1,2.6l3.1,2.3l2.8,1.8l2.7,1.5l2.7,1.4l2.8,1.5l3.2,1.8l3.7,2.2
	l4.3,2.7l4.7,3.1l4.8,3.2l4.7,3.1l4.2,2.9l3.5,2.5l2.5,1.9l2.1,2.1l1.4,1.9l1.1,1.6l1.2,1.2l1.6,0.8l1.7,0.2l1.4-0.3l1.5-0.6
	l1.8-0.9l2.4-1.1l2.5-1.1l3.9-1.9l5-2.5l5.7-2.9l6-3.1l6-3.2l5.5-3.1l4.8-2.8l4.6-2.9l4-2.8l3.5-2.7l3.2-2.5l2.9-2.2l2.8-2l2.8-1.7
	l3-1.4l2.5-0.9l2.2-0.7l2.1-0.6l2.2-0.7l2.6-1.1l2.9-1.5l2.9-1.7l2.7-1.7l2.4-1.5l2-1.2l1.4-0.8 M131.1,35.9L131.1,35.9L131,37
	l0.1,1.1l0.3,1l0.5,1l0.7,1l0.9,0.9l1.1,0.9l1.2,0.8 M197.4,65.5c-3.3,1.9-7.7,2.9-12.4,2.8c-4.3-0.1-8.5-1.2-11.6-3 M217.8,53.7
	l1.2-0.8l1.1-0.8l0.9-0.9l0.7-1l0.5-1l0.4-1l0.2-1.1l0-1.1l-0.1-0.3 M136,43.8l37.4,21.6 M197.4,65.5l20.5-11.8 M156.5,16.5
	c3.3-1.9,7.9-3,12.7-2.9c4.5,0.1,8.7,1.2,11.9,3 M135.4,28.6c-2.9,1.7-4.6,4-4.7,6.4c-0.1,2.6,1.7,5.1,5,7 M197.1,63.8
	c-3.3,1.9-7.7,2.9-12.4,2.8c-4.3-0.1-8.5-1.2-11.6-3 M217.6,52c3.2-1.8,5-4.3,5-6.9c0.1-2.8-1.9-5.5-5.4-7.6 M135.8,42.1l37.4,21.6
	 M156.5,16.5l-21.1,12.2 M217.3,37.5l-36.1-20.9 M197.1,63.8L217.6,52"/>
<path class="st2" d="M137.4,23v-6.7 M137.4,26.4v-1.7 M137.4,34.8V28 M137.3,55.7v-8.9 M137.3,60.2v-2.2 M137.3,80.3V62.4
	 M137.3,84.8v-2.2 M137.3,96v-9"/>
<path class="st1" d="M136.3,9.4l-0.2-0.2L136,9l-0.1-0.2l-0.1-0.2l-0.1-0.1l0,0l0,0l0,0l0,0l0,0l0,0l0,0l0,0l0,0v0l0,0v0l0,0v0l0,0
	V8l0,0v0l0,0l0,0l0,0l0,0l0,0l0,0l0,0l0,0l0-0.1l0,0l0,0l0,0l0,0l0,0l0,0l0,0l0,0l0,0l0,0l0,0l0,0l0,0l0.1,0l0,0l0,0l0,0l0,0l0.1,0
	l0,0l0,0l0.1,0l0.1,0l0,0h0.1l0.1,0l0.1,0l0.1,0h0l0,0h0.1l0,0h0.4l0.1,0h0l0.1,0l0,0h0.1l0,0l0,0h0l0,0h0l0,0h0l0,0l0,0l0,0l0.1,0
	l0.1,0l0,0l0.1,0l0,0l0.1,0l0,0l0.1,0l0.1,0l0,0l0.1,0l0,0l0,0l0,0l0,0l0,0l0,0l0,0l0.1,0.1l0,0l0,0l0,0l0,0l0,0l0,0l0,0v0l0,0v0.1
	l0,0v0l0,0l0,0l0,0v0l0,0l0,0v0l0,0l0,0v0l0,0l0,0l0,0l-0.1,0.1l-0.2,0.2l-0.2,0.3l-0.2,0.2l-0.1,0.1v5.2l0,0v0l0,0l0,0l0,0l0,0l0,0
	l-0.1,0.1l0,0.1l-0.1,0.1l0,0l0,0l0,0l0,0l0,0l0,0l0,0l0,0l0,0l0,0l0,0l0,0l0,0l0,0l0,0l-0.1,0l-0.1,0h-0.3l0,0h0l0,0l-0.1,0l0,0
	l-0.1,0l0,0l0,0l0,0l0,0l0,0l0,0l0,0l0,0l0,0l0,0l0,0l0,0h0v0l0,0v0l0,0l-0.1-0.1l-0.1-0.1l-0.1-0.1l0-0.1l0-0.1l0,0l0,0l0,0V9.4
	 M137.6,14.6c0.4-0.1,0.8-0.3,0.8-0.6 M136.3,14c0,0.2,0.3,0.5,0.6,0.5 M137.6,13.9c0.4-0.1,0.8-0.3,0.8-0.6 M136.3,13.4
	c0,0.2,0.3,0.5,0.7,0.5 M137.6,13.2c0.4-0.1,0.8-0.3,0.8-0.6 M136.3,12.7c0,0.2,0.3,0.4,0.7,0.5 M137.6,12.6
	c0.4-0.1,0.8-0.3,0.8-0.6 M136.3,12c0,0.2,0.3,0.4,0.7,0.5 M137.6,11.9c0.4-0.1,0.7-0.3,0.8-0.6 M136.3,11.3c0,0.2,0.3,0.5,0.7,0.5
	 M137.6,15.1c0.3-0.1,0.6-0.2,0.7-0.4 M136.4,14.7c0.1,0.2,0.3,0.3,0.6,0.4 M136.4,9.5c0.1,0.2,0.5,0.4,1,0.4c0.4,0,0.8-0.1,0.9-0.4
	 M137.7,9.1c0.6-0.1,1.2-0.3,1.4-0.7 M135.7,8.4c0.2,0.4,0.7,0.6,1.4,0.7 M136.7,8.1l0.2,0.5 M136.9,8.2l-0.2-0.7 M137.8,8.2
	l0.2-0.7 M137.9,8.6l0.2-0.6 M136.8,8.3L136.8,8.3L136.8,8.3l0.1-0.1l0,0h0v0h0l0,0l0,0l0,0l0,0l0,0l0,0l0,0l0,0l0,0l0,0l0,0l0,0h0
	l0,0h0l0,0h0.1l0,0h0.1l0,0h0l0,0h0l0,0h0l0,0l0,0h0l0,0h0l0,0h0l0,0l0,0h0l0,0l0,0l0,0l0,0l0,0l0,0v0l0,0l0,0l0,0l0,0l0,0
	 M136.4,8.4L136.4,8.4L136.4,8.4L136.4,8.4L136.4,8.4L136.4,8.4L136.4,8.4L136.4,8.4L136.4,8.4l0,0.1l0.1,0.1l0.1,0.1l0,0
	 M136.8,8.7L136.8,8.7L136.8,8.7L136.8,8.7L136.8,8.7L136.8,8.7L136.8,8.7l0.1-0.1l0,0l0,0h0l0,0l0,0l0,0l0,0l0,0l0,0l0,0h0l0,0h0
	l0,0h0l0,0h0.2l0,0h0.1l0,0h0l0,0h0l0,0h0l0,0h0l0,0l0,0l0,0l0,0l0,0l0,0l0,0l0,0l0,0l0,0l0,0l0,0l0,0l0,0l0,0l0.1-0.1l0.1-0.1
	l0.1-0.1l0,0h0l0,0h0l0,0l0,0l0,0l0,0l0,0l0,0l0,0l0,0l0,0v0h0l0,0l0,0l0,0l0,0l0,0l0,0l0,0v0l0,0v0l0,0v0l0,0v0l0,0v0l0,0l0,0l0,0
	l0,0l0,0l0,0l0,0l0,0l0,0l0,0l0,0l0,0l0,0l0,0l0,0l0,0h0l0,0h0l0,0h0v0l0,0l-0.1-0.1l-0.1-0.1L138,7.6l0,0h0v0l0,0l0,0l0,0l0,0l0,0
	l0,0l0,0l0,0l0,0l0,0h0l0,0l0,0l0,0l0,0l0,0h0l0,0h0l0,0h-0.1l0,0h-0.1l0,0h0l0,0l0,0l0,0l0,0l-0.1,0l0,0l0,0l0,0l0,0l0,0l0,0h0l0,0
	l0,0l0,0l0,0l0,0l0,0l-0.1,0.1l-0.1,0.1l-0.1,0.1l-0.1,0h0l0,0l0,0h0l0,0l0,0h0l0,0l0,0l0,0l0,0l0,0l0,0l0,0l0,0l0,0l0,0l0,0l0,0v0
	l0,0l0,0v0l0,0v0l0,0v0.1l0,0v0l0,0v0l0,0l0,0l0,0l0,0l0,0l0,0l0,0l0,0l0,0l0,0l0,0l0,0l0,0h0l0,0l0,0l0,0l0,0h0l0,0"/>
<path class="st1" d="M194.5,91.1c0.2-0.2,0.6-0.3,1.1-0.3c0.5,0,0.9,0.1,1.1,0.4"/>
<path class="st1" d="M195.6,91.4c-0.7,0-1.3-0.3-1.3-0.8c0-0.4,0.6-0.8,1.3-0.8c0.7,0,1.3,0.3,1.3,0.8
	C196.9,91,196.4,91.4,195.6,91.4z"/>
<path class="st1" d="M215.1,106.8c0.2-0.2,0.6-0.3,1.1-0.3c0.5,0,0.9,0.1,1.1,0.4"/>
<path class="st1" d="M217.5,106.4c0-0.4-0.6-0.8-1.3-0.8s-1.3,0.3-1.3,0.8c0,0.4,0.6,0.8,1.3,0.8S217.5,106.8,217.5,106.4z"/>
<path class="st1" d="M201.5,117.5c0.2-0.2,0.6-0.3,1.1-0.3c0.5,0,0.9,0.1,1.1,0.4"/>
<ellipse class="st1" cx="202.6" cy="117.1" rx="1.3" ry="0.8"/>
<path class="st1" d="M183.1,124.6c0.2-0.2,0.6-0.3,1.1-0.3c0.5,0,0.9,0.1,1.1,0.4"/>
<ellipse class="st1" cx="184.1" cy="124.2" rx="1.3" ry="0.8"/>
<path class="st1" d="M156.6,112.2c0.2-0.2,0.7-0.3,1.1-0.3c0.5,0,0.9,0.1,1.1,0.4"/>
<ellipse class="st1" cx="157.7" cy="111.8" rx="1.3" ry="0.8"/>
<path class="st1" d="M136.1,96.4c0.2-0.2,0.6-0.3,1.1-0.3c0.5,0,0.9,0.1,1.1,0.4"/>
<path class="st1" d="M137.2,96.8c-0.7,0-1.3-0.3-1.3-0.8c0-0.4,0.6-0.8,1.3-0.8s1.3,0.3,1.3,0.8C138.5,96.5,138,96.8,137.2,96.8z"/>
<path class="st1" d="M149.5,86.1c0.2-0.2,0.6-0.3,1.1-0.3c0.5,0,0.9,0.1,1.1,0.4"/>
<ellipse class="st1" cx="150.6" cy="85.7" rx="1.3" ry="0.8"/>
<path class="st1" d="M168.2,78.3c0.2-0.2,0.6-0.3,1.1-0.3c0.5,0,0.9,0.1,1.1,0.4"/>
<path class="st1" d="M169.3,78.7c-0.7,0-1.3-0.3-1.3-0.8c0-0.4,0.6-0.8,1.3-0.8s1.3,0.3,1.3,0.8C170.6,78.3,170,78.7,169.3,78.7z"/>
<path class="st1" d="M194.6,29.9c0.2-0.2,0.6-0.3,1.1-0.3c0.5,0,0.9,0.1,1.1,0.4"/>
<path class="st1" d="M197,29.5c0-0.4-0.6-0.8-1.3-0.8c-0.7,0-1.3,0.3-1.3,0.8c0,0.4,0.6,0.8,1.3,0.8C196.4,30.3,197,29.9,197,29.5z"
	/>
<path class="st1" d="M215.2,45.7c0.2-0.2,0.6-0.3,1.1-0.3c0.5,0,0.9,0.1,1.1,0.4"/>
<path class="st1" d="M216.3,46c-0.7,0-1.3-0.3-1.3-0.8s0.6-0.8,1.3-0.8c0.7,0,1.3,0.3,1.3,0.8S217,46,216.3,46z"/>
<path class="st1" d="M201.6,56.4c0.2-0.2,0.6-0.3,1.1-0.3c0.5,0,0.9,0.1,1.1,0.4"/>
<path class="st1" d="M202.7,56.7c-0.7,0-1.3-0.3-1.3-0.8c0-0.4,0.6-0.8,1.3-0.8c0.7,0,1.3,0.3,1.3,0.8
	C204,56.4,203.4,56.7,202.7,56.7z"/>
<path class="st1" d="M183.1,63.5c0.2-0.2,0.6-0.3,1.1-0.3c0.5,0,0.9,0.1,1.1,0.4"/>
<path class="st1" d="M184.2,63.8c-0.7,0-1.3-0.3-1.3-0.8s0.6-0.8,1.3-0.8c0.7,0,1.3,0.3,1.3,0.8S185,63.8,184.2,63.8z"/>
<path class="st1" d="M156.7,51.1c0.2-0.2,0.7-0.3,1.1-0.3c0.5,0,0.9,0.1,1.1,0.3"/>
<path class="st1" d="M157.8,51.5c-0.7,0-1.3-0.3-1.3-0.8c0-0.4,0.6-0.8,1.3-0.8c0.7,0,1.3,0.3,1.3,0.8
	C159.1,51.1,158.5,51.5,157.8,51.5z"/>
<path class="st1" d="M136.2,35.3c0.2-0.2,0.6-0.3,1.1-0.3c0.5,0,0.9,0.1,1.1,0.4"/>
<ellipse class="st1" cx="137.3" cy="34.9" rx="1.3" ry="0.8"/>
<path class="st1" d="M149.6,25c0.2-0.2,0.7-0.3,1.1-0.3c0.5,0,0.9,0.1,1.1,0.4"/>
<path class="st1" d="M150.7,25.3c-0.7,0-1.3-0.3-1.3-0.8c0-0.4,0.6-0.8,1.3-0.8c0.7,0,1.3,0.3,1.3,0.8C152,25,151.4,25.3,150.7,25.3
	z"/>
<path class="st1" d="M168.3,17.2c0.2-0.2,0.6-0.3,1.1-0.3c0.5,0,0.9,0.1,1.1,0.4"/>
<path class="st1" d="M170.7,16.8c0-0.4-0.6-0.8-1.3-0.8s-1.3,0.3-1.3,0.8c0,0.4,0.6,0.8,1.3,0.8S170.7,17.2,170.7,16.8z"/>
<polyline class="st1" points="145.7,94.9 145,95.4 144.4,95.9 144,96.5 143.8,97.1 "/>
<polyline class="st1" points="164.4,84.1 165.1,83.8 165.8,83.5 166.6,83.3 167.5,83.2 168.4,83.2 169.3,83.2 170.2,83.3 171,83.5 
	171.8,83.8 172.5,84.1 "/>
<polyline class="st1" points="207.6,104.4 208.2,105 208.8,105.6 209.1,106.2 209.1,106.4 "/>
<line class="st1" x1="164.4" y1="84.1" x2="145.7" y2="94.9"/>
<line class="st1" x1="207.6" y1="104.4" x2="172.5" y2="84.1"/>
</svg>
