<?xml version="1.0" encoding="utf-8"?>
<!-- Generator: Adobe Illustrator 24.2.3, SVG Export Plug-In . SVG Version: 6.00 Build 0)  -->
<svg version="1.1" id="Ebene_1" xmlns="http://www.w3.org/2000/svg" xmlns:xlink="http://www.w3.org/1999/xlink" x="0px" y="0px"
	 viewBox="0 0 349.1 166" style="enable-background:new 0 0 349.1 166;" xml:space="preserve">
<style type="text/css">
	.st0{fill:#AAD6FF;}
	.st1{fill:#0099FF;}
	.st2{fill:none;stroke:#000000;stroke-width:0.56;stroke-miterlimit:5;}
</style>
<g>
	<polygon class="st0" points="95.6,97.3 153,64.2 180.5,71.6 229.9,38.6 251.6,55.6 269.1,80 275.3,94.2 268.8,102.2 127.8,156.1 	
		"/>
	<path class="st1" d="M84,104.8c-7.3-7.4-17-15-27.2-23.4l0.5-1.9c-4.4-3.5-0.4,0.4-5-3.2L210.5,8.4c16.6,8.7,34.7,20.5,51.2,34
		c11.9,10,20.8,19.7,25.7,27.5c7.8,12.4,7,21.1-1.2,25.5l-17.3,6.6l-1.4,0.1l2.6-2.4l1.4-4.7l-0.4-4.6l-0.8-2.3l-2-5.2l-2.6-4.8
		l-5.4-7.8l-7.1-8.3l-7.2-7.1l-11.2-9.3l-3.2-1.3l-2.8-0.4h-2.6l-3.5,1.1l-41.1,25l-1.1,1.4l-0.2,2.7l0.8,1.7l1.6,1.5l8.4,7.9
		l8.2,9.3l5.9,8.4l3.5,6.6l1,3.6l0.6,3.6l-0.1,2.7l-0.6,2.4l-1.2,2.3l-1.4,1.7l-16.3,6.3l1.6-2.1l1.3-2.2l1-2.9l-0.1-3.8l-1.5-6.5
		l-3.3-7.2l-4-6.4l-5.4-7.3l-9.8-10.3l-15.4-13.2l-2.3-1.1l-3.5-0.6l-2.4,0.4l-3.1,1.2l-4.4,2.7l-37,22.5l-1.3,2l-0.2,2.2l1,2
		l1.7,1.5l7,6.3l7.3,7.8l6.3,8.1l4.5,7.2l2.3,4.6l1.5,4.3l0.7,4.7l-0.6,3.8L131,153l-3.1,3.2l-9,3.4l-5.5,1.5l-5.8,0.5l-4.5-0.1
		l-9.1-1l-0.1-1.4l11.9-6.8C111.1,141,103.3,124.6,84,104.8z"/>
	<g>
		<line class="st2" x1="148.4" y1="148.3" x2="286.1" y2="95.5"/>
		<path class="st2" d="M286,95.5c2.4-1.2,4.2-2.7,5.3-4.6c9.1-15.4-24.3-50.7-74.5-78.9c-2.1-1.2-4.3-2.4-6.4-3.5"/>
		<path class="st2" d="M158.1,69.6c0.1-0.7,0.9-1.1,1.8-1s1.5,0.7,1.4,1.4s-0.9,1.1-1.8,1C158.6,70.8,157.9,70.2,158.1,69.6z"/>
		<path class="st2" d="M133.5,70.8c0-0.7,0.8-1.1,1.7-1c0.8,0.1,1.5,0.7,1.4,1.4c0,0.7-0.8,1.1-1.7,1
			C134.1,72,133.4,71.4,133.5,70.8z"/>
		<path class="st2" d="M102.7,89.6c0.1-0.6,0.9-1,1.8-0.9s1.5,0.8,1.4,1.4s-0.9,1-1.8,0.9C103.2,90.8,102.6,90.2,102.7,89.6z"/>
		<path class="st2" d="M103.3,105.8c0.1-0.7-0.5-1.3-1.4-1.4c-0.8-0.1-1.6,0.3-1.7,1c-0.1,0.7,0.5,1.3,1.4,1.4
			C102.4,106.9,103.2,106.5,103.3,105.8z"/>
		<path class="st2" d="M121.7,130.4c0.3-0.6,1.2-0.8,2-0.5c0.8,0.3,1.3,1.1,1,1.7s-1.2,0.8-2,0.5S121.4,131,121.7,130.4z"/>
		<polyline class="st2" points="161.1,70.2 161.1,70.1 160.4,69.6 159.6,69.4 158.7,69.6 158.2,70.1 		"/>
		<polyline class="st2" points="136.6,71.5 136.6,71.4 135.9,70.9 135,70.7 134.2,70.9 133.7,71.4 		"/>
		<polyline class="st2" points="105.8,90.2 105.7,90.1 105.1,89.6 104.2,89.5 103.3,89.7 102.9,90.1 		"/>
		<polyline class="st2" points="103.1,106.1 103.1,106 102.5,105.5 101.6,105.3 100.7,105.5 100.3,106 		"/>
		<polyline class="st2" points="124.5,131.9 124.5,131.8 124,131.1 123.2,130.7 122.3,130.7 121.7,131 		"/>
		<path class="st2" d="M184,97c0.3-0.6,1.2-0.8,2-0.5c0.8,0.3,1.3,1.1,1,1.7s-1.2,0.8-2,0.5S183.8,97.6,184,97z"/>
		<polyline class="st2" points="186.8,98.4 186.8,98.3 186.3,97.7 185.5,97.3 184.6,97.2 184,97.6 		"/>
		<path class="st2" d="M268.8,84.5c-5.1-11.7-17.4-25.9-33.2-38.1"/>
		<path class="st2" d="M235.6,46.3c-1.6-1.1-3.7-1.9-5.9-2.2c-2.9-0.3-5.8,0.2-7.8,1.5"/>
		<path class="st2" d="M206.4,126.1c0.8-0.5,1.5-1.2,2-1.9c6.5-8.7-4-28-25.7-46.8"/>
		<line class="st2" x1="181.5" y1="70.2" x2="221.9" y2="45.6"/>
		<path class="st2" d="M181.6,70.3c-1.7,1.2-1.9,3.8-0.5,5.7c0.4,0.6,1,1,1.6,1.4"/>
		<line class="st2" x1="166.5" y1="71.6" x2="229.9" y2="33"/>
		<path class="st2" d="M277.7,90.8v-0.3c-2.7-20-31.8-44.9-46.8-56.9l-1-0.8"/>
		<path class="st2" d="M241.1,45.5c0.1-0.7-0.5-1.3-1.4-1.4c-0.9-0.1-1.7,0.3-1.8,1c-0.1,0.7,0.5,1.3,1.4,1.4
			C240.1,46.6,240.9,46.2,241.1,45.5z"/>
		<path class="st2" d="M216.2,44.9c0.1-0.7,0.9-1.1,1.8-1c0.9,0.1,1.5,0.7,1.4,1.4s-0.9,1.1-1.8,1C216.7,46.2,216.1,45.6,216.2,44.9
			z"/>
		<path class="st2" d="M185.4,63.6c0-0.7,0.8-1.1,1.7-1c0.8,0.1,1.5,0.7,1.4,1.4c-0.1,0.7-0.9,1.1-1.8,1
			C185.8,64.8,185.2,64.2,185.4,63.6z"/>
		<path class="st2" d="M183,81.4c0.1-0.7-0.5-1.3-1.4-1.4c-0.9-0.1-1.7,0.3-1.8,1c-0.1,0.7,0.5,1.3,1.4,1.4
			C182.1,82.5,182.9,82.1,183,81.4z"/>
		<path class="st2" d="M201.5,106.1c0.2-0.6,1.1-0.8,1.9-0.5c0.8,0.3,1.3,1.1,1,1.7c-0.2,0.6-1.1,0.8-1.9,0.5
			C201.7,107.4,201.3,106.6,201.5,106.1z"/>
		<polyline class="st2" points="240.9,45.8 240.9,45.7 240.2,45.2 239.3,45.1 238.5,45.2 238,45.7 		"/>
		<polyline class="st2" points="219.2,45.5 219.2,45.4 218.5,44.9 217.6,44.7 216.8,44.9 216.3,45.4 		"/>
		<polyline class="st2" points="188.3,64.2 188.3,64.2 187.6,63.7 186.8,63.5 185.9,63.7 185.4,64.1 		"/>
		<polyline class="st2" points="182.9,81.7 182.9,81.6 182.2,81.1 181.3,80.9 180.5,81.1 180,81.6 		"/>
		<polyline class="st2" points="204.2,107.5 204.2,107.4 203.7,106.7 202.9,106.3 202.1,106.3 201.5,106.6 		"/>
		<path class="st2" d="M266.8,73.8c0.3-0.6-0.2-1.4-1-1.7c-0.9-0.3-1.7-0.1-2,0.5c-0.3,0.6,0.2,1.4,1,1.7S266.5,74.4,266.8,73.8z"/>
		<polyline class="st2" points="266.6,74 266.6,73.9 266.1,73.3 265.3,72.9 264.4,72.8 263.8,73.2 		"/>
		<polyline class="st2" points="270.8,101.4 274.6,99.4 277.3,95.5 277.8,90.8 		"/>
		<polyline class="st2" points="266.9,102.9 270,99.9 271.3,95.7 271,90.6 268.8,84.5 		"/>
		<line class="st2" x1="52.2" y1="76.5" x2="210.3" y2="8.5"/>
		<path class="st2" d="M212.4,12.9c0-0.8-1.1-1.4-2.4-1.4c-1.3,0-2.4,0.6-2.4,1.4c0,0.8,1.1,1.4,2.4,1.4S212.4,13.6,212.4,12.9z"/>
		<path class="st2" d="M63.7,76.6c0-0.7-1.1-1.3-2.5-1.3s-2.5,0.6-2.5,1.3c0,0.7,1.1,1.3,2.5,1.3C62.5,77.9,63.6,77.3,63.7,76.6z"/>
		<path class="st2" d="M68.8,72.6c0-0.7,1.1-1.3,2.4-1.3s2.4,0.6,2.4,1.3c0,0.7-1.1,1.3-2.4,1.3C69.9,73.9,68.8,73.3,68.8,72.6z"/>
		<path class="st2" d="M81.1,67.1c1.4,0,2.5,0.6,2.5,1.3s-1.1,1.3-2.5,1.3s-2.5-0.6-2.5-1.3C78.6,67.6,79.7,67,81.1,67.1z"/>
		<path class="st2" d="M93.6,64.2c0-0.7-1.1-1.3-2.5-1.3s-2.5,0.6-2.5,1.3c0,0.7,1.1,1.3,2.5,1.3S93.6,64.9,93.6,64.2z"/>
		<path class="st2" d="M101,61.4c1.3,0,2.4-0.6,2.4-1.4c0-0.8-1.1-1.4-2.4-1.4c-1.3,0-2.4,0.6-2.4,1.4C98.6,60.7,99.7,61.3,101,61.4
			z"/>
		<path class="st2" d="M113.4,55.6c0-0.8-1.1-1.4-2.5-1.4s-2.5,0.6-2.5,1.4c0,0.8,1.1,1.4,2.5,1.4C112.2,57,113.3,56.4,113.4,55.6z"
			/>
		<path class="st2" d="M118.4,51.3c0-0.8,1.1-1.4,2.4-1.4c1.3,0,2.4,0.6,2.4,1.4c0,0.8-1.1,1.4-2.4,1.4S118.4,52.1,118.4,51.3z"/>
		<path class="st2" d="M130.8,45.7c1.4,0,2.5,0.6,2.5,1.4c0,0.8-1.1,1.4-2.5,1.4s-2.5-0.6-2.5-1.4C128.3,46.4,129.4,45.8,130.8,45.7
			z"/>
		<path class="st2" d="M143.1,43c0-0.7-1.1-1.3-2.5-1.3s-2.5,0.6-2.5,1.3s1.1,1.3,2.5,1.3S143.1,43.7,143.1,43z"/>
		<path class="st2" d="M150.5,37.3c1.4,0,2.5,0.6,2.5,1.3s-1.1,1.3-2.5,1.3s-2.5-0.6-2.5-1.3S149.1,37.3,150.5,37.3z"/>
		<path class="st2" d="M158.1,34.5c0-0.7,1.1-1.3,2.4-1.3c1.3,0,2.4,0.6,2.4,1.3s-1.1,1.3-2.4,1.3C159.1,35.8,158,35.2,158.1,34.5z"
			/>
		<path class="st2" d="M170.5,28.7c1.4,0,2.5,0.6,2.5,1.4s-1.1,1.4-2.5,1.4s-2.5-0.6-2.5-1.4S169.1,28.7,170.5,28.7z"/>
		<path class="st2" d="M180.3,24.6c1.4,0,2.5,0.6,2.5,1.3c0,0.7-1.1,1.3-2.5,1.3s-2.5-0.6-2.5-1.3S178.9,24.6,180.3,24.6z"/>
		<path class="st2" d="M192.6,21.7c0-0.8-1.1-1.4-2.5-1.4s-2.5,0.6-2.5,1.4s1.1,1.4,2.5,1.4S192.6,22.5,192.6,21.7z"/>
		<path class="st2" d="M200.3,16.1c1.4,0,2.5,0.6,2.5,1.4c0,0.8-1.1,1.4-2.5,1.4s-2.5-0.6-2.5-1.4C197.8,16.7,198.9,16.1,200.3,16.1
			z"/>
		<line class="st2" x1="60.6" y1="81.7" x2="219.3" y2="13.4"/>
		<path class="st2" d="M188.6,132.9c1.5-0.7,2.7-1.6,3.6-2.8c8.6-10.8-8.1-37.6-37.3-59.8"/>
		<path class="st2" d="M126,156.8l2-1.1c17.4-11.5-14.2-44.5-23.5-51.9l-0.9-0.8"/>
		<line class="st2" x1="102.4" y1="95.3" x2="143.5" y2="70.3"/>
		<path class="st2" d="M102.4,95.3c-1.7,1.3-2,4-0.5,6.1c0.4,0.7,1,1.2,1.7,1.6"/>
		<path class="st2" d="M117.8,160l2.1-1.1c21.8-13.5-21.9-52.4-32.2-60l-1.4-1.1"/>
		<path class="st2" d="M196.3,130l0.2-0.2c17.4-19.4-32.7-61.4-45.4-71.2l-0.2-0.2"/>
		<line class="st2" x1="86.3" y1="97.8" x2="150.9" y2="58.4"/>
		<path class="st2" d="M93.9,159l0.1,1.4l1,0.2c7.2,1,15.8,1.7,22.8-0.7l30.6-11.6"/>
		<path class="st2" d="M86.3,100.1L86.3,100.1l1.2,1c12.2,9.8,33.2,28.2,36.3,44.2l0.1,0.6l0.1,0.6c1.2,14.6-17.9,14.2-27.9,12.9
			l-1.1-0.2l-1.1-0.2l29.1-17"/>
		<line class="st2" x1="86.3" y1="100" x2="86.3" y2="97.8"/>
		<path class="st2" d="M155,70.2l-0.3-0.2c-2.9-1.8-8-1.8-10.9,0.1l-0.3,0.2"/>
		<path class="st2" d="M110.3,152.2c0.8-0.1,1.5-0.6,1.4-1s-0.9-0.6-1.8-0.4c-0.8,0.1-1.5,0.6-1.4,1S109.4,152.4,110.3,152.2z"/>
		<path class="st2" d="M104.9,157.7c0.8-0.2,1.6,0,1.7,0.4c0.1,0.3-0.6,0.8-1.4,1s-1.6,0-1.7-0.4
			C103.5,158.3,104.1,157.9,104.9,157.7z"/>
		<path class="st2" d="M86.3,100l-3.6-2.7C75.1,91,67.6,85.8,59,80.8l-6.8-4.3"/>
		<polyline class="st2" points="262.1,84.4 257.5,81.3 247,75.2 236.3,69.6 225.2,64.8 223.5,64.1 		"/>
		<polyline class="st2" points="239.5,76.4 233.1,73.1 222,68.2 210.7,64 		"/>
		<polyline class="st2" points="235.2,104.3 229.2,100.8 218.4,95.2 207.3,90.3 206.9,90.2 		"/>
		<polyline class="st2" points="239.5,109.6 238.4,108.8 228,102.7 217.2,97.2 206.1,92.3 194.8,88 		"/>
		<polyline class="st2" points="185.9,107.9 181.3,104.8 170.9,98.7 160.1,93.2 149,88.3 147.3,87.7 		"/>
		<polyline class="st2" points="163.3,99.9 156.9,96.7 145.8,91.8 134.5,87.5 		"/>
		<polyline class="st2" points="159.1,127.9 153,124.3 142.2,118.8 131.1,113.9 130.7,113.7 		"/>
		<polyline class="st2" points="163.4,133.1 162.2,132.4 151.8,126.2 141,120.7 129.9,115.8 118.6,111.6 		"/>
		<path class="st2" d="M100.5,156.1l0.9,0.2c4.4,0.7,10,1.3,14.5,0.7l3.9-0.6"/>
		<path class="st2" d="M107.1,142.3l-0.1-0.8c-4.3-19.9-23.4-38.2-38.7-50.7l-11.6-9.3"/>
		<polyline class="st2" points="101.2,155 102.3,154.8 103.1,154.5 103.9,154.2 104.6,153.8 105,153.5 		"/>
		<polyline class="st2" points="105,153.5 106.8,150.8 107.6,146.9 107.1,142.3 		"/>
		<polyline class="st2" points="57.7,79.9 56.9,80.6 56.7,81.5 		"/>
		<line class="st2" x1="100.5" y1="156.2" x2="101.2" y2="155"/>
	</g>
</g>
</svg>
