<?xml version="1.0" encoding="utf-8"?>
<!-- Generator: Adobe Illustrator 24.2.3, SVG Export Plug-In . SVG Version: 6.00 Build 0)  -->
<svg version="1.1" id="Ebene_1" xmlns="http://www.w3.org/2000/svg" xmlns:xlink="http://www.w3.org/1999/xlink" x="0px" y="0px"
	 viewBox="0 0 349.1 166" style="enable-background:new 0 0 349.1 166;" xml:space="preserve">
<style type="text/css">
	.st0{fill:#0099FF;}
	.st1{fill:none;stroke:#000000;stroke-width:0.26;stroke-miterlimit:5;}
	.st2{fill:none;stroke:#000000;stroke-width:0.53;stroke-miterlimit:5;}
</style>
<g>
	<polygon class="st0" points="239.1,134.1 234.2,133.8 228.3,133 223.4,131.8 218.2,130 92.1,63.6 88.4,61.2 86.2,59.2 84.4,57.1 
		83,54.9 81.9,51.8 81.5,49.3 81.7,45.1 83.4,40.7 86.2,37.1 90.9,33.3 95,31.1 100.9,28.9 106.4,27.5 111.3,26.8 117.5,26.5 
		122.4,26.7 127.2,27.3 132.2,28.2 136.2,29.6 268.7,99.5 271.9,102.6 273.9,105.5 275.1,108.3 275.4,112 275.3,115.6 274.6,118.6 
		272.5,121.6 269.3,125 265.2,127.8 260.8,130.1 255.6,131.9 249.9,133.3 244.4,133.9 	"/>
	<g>
		<path class="st1" d="M270.1,109.2c-1.2,0-2.2-0.6-2.2-1.3c0-0.7,1-1.3,2.2-1.3c1.2,0,2.2,0.6,2.2,1.3
			C272.3,108.6,271.3,109.2,270.1,109.2z"/>
		<path class="st1" d="M271.1,108.8c0.1-0.1,0.2-0.2,0.2-0.4c0-0.4-0.5-0.7-1.2-0.7s-1.2,0.3-1.2,0.7c0,0.2,0.1,0.3,0.3,0.4"/>
		<path class="st1" d="M268.9,102.6c0-0.7-1-1.3-2.2-1.3c-1.2,0-2.2,0.6-2.2,1.3c0,0.7,1,1.3,2.2,1.3
			C268,103.8,268.9,103.3,268.9,102.6z"/>
		<path class="st1" d="M267.7,103.4c0.1-0.1,0.2-0.2,0.2-0.4c0-0.4-0.5-0.7-1.2-0.7s-1.2,0.3-1.2,0.7c0,0.2,0.1,0.3,0.3,0.4"/>
		<path class="st1" d="M261,99.4c-1.2,0-2.2-0.6-2.2-1.3c0-0.7,1-1.3,2.2-1.3c1.2,0,2.2,0.6,2.2,1.3C263.2,98.9,262.2,99.4,261,99.4
			z"/>
		<path class="st1" d="M262,99.1c0.1-0.1,0.2-0.2,0.2-0.4c0-0.4-0.5-0.7-1.2-0.7c-0.6,0-1.2,0.3-1.2,0.7c0,0.2,0.1,0.3,0.3,0.4"/>
		<path class="st1" d="M256.3,94.5c0-0.7-1-1.3-2.2-1.3c-1.2,0-2.2,0.6-2.2,1.3c0,0.7,1,1.3,2.2,1.3
			C255.3,95.7,256.3,95.2,256.3,94.5z"/>
		<path class="st1" d="M255,95.3c0.1-0.1,0.2-0.2,0.2-0.4c0-0.4-0.5-0.7-1.2-0.7c-0.6,0-1.2,0.3-1.2,0.7c0,0.2,0.1,0.3,0.3,0.4"/>
		<path class="st1" d="M270.3,114.6c-1.2,0-2.2-0.6-2.2-1.3c0-0.7,1-1.3,2.2-1.3c1.2,0,2.2,0.6,2.2,1.3
			C272.5,114,271.5,114.6,270.3,114.6z"/>
		<path class="st1" d="M271.2,114.2c0.1-0.1,0.2-0.2,0.2-0.4c0-0.4-0.5-0.7-1.2-0.7s-1.2,0.3-1.2,0.7c0,0.2,0.1,0.3,0.3,0.4"/>
		<path class="st1" d="M267.8,120c-1.2,0-2.2-0.6-2.2-1.3c0-0.7,1-1.3,2.2-1.3c1.2,0,2.2,0.6,2.2,1.3C269.9,119.5,269,120,267.8,120
			z"/>
		<path class="st1" d="M268.7,119.7c0.1-0.1,0.2-0.2,0.2-0.4c0-0.4-0.5-0.7-1.2-0.7c-0.6,0-1.2,0.3-1.2,0.7c0,0.2,0.1,0.3,0.3,0.4"
			/>
		<path class="st1" d="M262.4,124.6c-1.2,0-2.2-0.6-2.2-1.3c0-0.7,1-1.3,2.2-1.3s2.2,0.6,2.2,1.3
			C264.6,124.1,263.6,124.6,262.4,124.6z"/>
		<path class="st1" d="M263.3,124.2c0.1-0.1,0.2-0.2,0.2-0.4c0-0.4-0.5-0.7-1.2-0.7c-0.6,0-1.2,0.3-1.2,0.7c0,0.2,0.1,0.3,0.3,0.4"
			/>
		<path class="st1" d="M257.1,126.9c0-0.7-1-1.3-2.2-1.3c-1.2,0-2.2,0.6-2.2,1.3c0,0.7,1,1.3,2.2,1.3
			C256.2,128.1,257.1,127.6,257.1,126.9z"/>
		<path class="st1" d="M255.9,127.8c0.1-0.1,0.2-0.2,0.2-0.4c0-0.4-0.5-0.7-1.2-0.7s-1.2,0.3-1.2,0.7c0,0.2,0.1,0.3,0.3,0.4"/>
		<path class="st1" d="M248.1,128.9c0-0.7-1-1.3-2.2-1.3c-1.2,0-2.2,0.6-2.2,1.3c0,0.7,1,1.3,2.2,1.3
			C247.2,130.2,248.1,129.6,248.1,128.9z"/>
		<path class="st1" d="M246.9,129.8c0.1-0.1,0.2-0.2,0.2-0.4c0-0.4-0.5-0.7-1.2-0.7c-0.6,0-1.2,0.3-1.2,0.7c0,0.2,0.1,0.3,0.3,0.4"
			/>
		<path class="st1" d="M236.4,130.4c-1.2,0-2.2-0.6-2.2-1.3c0-0.7,1-1.3,2.2-1.3c1.2,0,2.2,0.6,2.2,1.3
			C238.6,129.8,237.6,130.4,236.4,130.4z"/>
		<path class="st1" d="M237.4,130c0.1-0.1,0.2-0.2,0.2-0.4c0-0.4-0.5-0.7-1.2-0.7c-0.6,0-1.2,0.3-1.2,0.7c0,0.2,0.1,0.3,0.3,0.4"/>
		<path class="st1" d="M227.1,129.1c-1.2,0-2.2-0.6-2.2-1.3c0-0.7,1-1.3,2.2-1.3c1.2,0,2.2,0.6,2.2,1.3
			C229.3,128.5,228.3,129.1,227.1,129.1z"/>
		<path class="st1" d="M228.1,128.7c0.1-0.1,0.2-0.2,0.2-0.4c0-0.4-0.5-0.7-1.2-0.7c-0.6,0-1.2,0.3-1.1,0.7c0,0.2,0.1,0.3,0.3,0.4"
			/>
		<path class="st1" d="M218.9,126.3c-1.2,0-2.2-0.6-2.2-1.3c0-0.7,1-1.3,2.2-1.3s2.2,0.6,2.2,1.3
			C221.1,125.7,220.1,126.3,218.9,126.3z"/>
		<path class="st1" d="M219.8,125.9c0.1-0.1,0.2-0.2,0.2-0.4c0-0.4-0.5-0.7-1.2-0.7s-1.2,0.3-1.2,0.7c0,0.2,0.1,0.3,0.3,0.4"/>
		<path class="st1" d="M214.1,121.4c0-0.7-1-1.3-2.2-1.3c-1.2,0-2.2,0.6-2.2,1.3c0,0.7,1,1.3,2.2,1.3
			C213.1,122.7,214.1,122.1,214.1,121.4z"/>
		<path class="st1" d="M212.9,122.3c0.1-0.1,0.2-0.2,0.2-0.4c0-0.4-0.5-0.7-1.2-0.7c-0.6,0-1.2,0.3-1.2,0.7c0,0.2,0.1,0.3,0.3,0.4"
			/>
		<path class="st1" d="M204.7,118.9c-1.2,0-2.2-0.6-2.2-1.3c0-0.7,1-1.3,2.2-1.3c1.2,0,2.2,0.6,2.2,1.3
			C206.9,118.3,205.9,118.9,204.7,118.9z"/>
		<path class="st1" d="M205.7,118.5c0.1-0.1,0.2-0.2,0.2-0.4c0-0.4-0.5-0.7-1.2-0.7c-0.6,0-1.2,0.3-1.2,0.7c0,0.2,0.1,0.3,0.3,0.4"
			/>
		<path class="st1" d="M197.6,115.2c-1.2,0-2.2-0.6-2.2-1.3c0-0.7,1-1.3,2.2-1.3c1.2,0,2.2,0.6,2.2,1.3
			C199.7,114.6,198.8,115.2,197.6,115.2z"/>
		<path class="st1" d="M198.5,114.8c0.1-0.1,0.2-0.2,0.2-0.4c0-0.4-0.5-0.7-1.2-0.7c-0.6,0-1.2,0.3-1.2,0.7c0,0.2,0.1,0.3,0.3,0.4"
			/>
		<path class="st1" d="M192.6,110.2c0-0.7-1-1.3-2.2-1.3c-1.2,0-2.2,0.6-2.2,1.3c0,0.7,1,1.3,2.2,1.3
			C191.7,111.4,192.6,110.8,192.6,110.2z"/>
		<path class="st1" d="M191.4,111c0.1-0.1,0.2-0.2,0.2-0.4c0-0.4-0.5-0.7-1.2-0.7s-1.2,0.3-1.2,0.7c0,0.2,0.1,0.3,0.3,0.4"/>
		<path class="st1" d="M183.3,107.7c-1.2,0-2.2-0.6-2.2-1.3c0-0.7,1-1.3,2.2-1.3c1.2,0,2.2,0.6,2.2,1.3
			C185.4,107.1,184.5,107.7,183.3,107.7z"/>
		<path class="st1" d="M184.2,107.3c0.1-0.1,0.2-0.2,0.2-0.4c0-0.4-0.5-0.7-1.2-0.7c-0.6,0-1.2,0.3-1.2,0.7c0,0.2,0.1,0.3,0.3,0.4"
			/>
		<path class="st1" d="M176.1,103.9c-1.2,0-2.2-0.6-2.2-1.3c0-0.7,1-1.3,2.2-1.3c1.2,0,2.2,0.6,2.2,1.3
			C178.3,103.3,177.3,103.9,176.1,103.9z"/>
		<path class="st1" d="M177.1,103.5c0.1-0.1,0.2-0.2,0.2-0.4c0-0.4-0.5-0.7-1.2-0.7c-0.6,0-1.2,0.3-1.2,0.7c0,0.2,0.1,0.3,0.3,0.4"
			/>
		<path class="st1" d="M171.2,99c0-0.7-1-1.3-2.2-1.3c-1.2,0-2.2,0.6-2.2,1.3c0,0.7,1,1.3,2.2,1.3C170.2,100.2,171.2,99.7,171.2,99z
			"/>
		<path class="st1" d="M169.9,99.8c0.1-0.1,0.2-0.2,0.2-0.4c0-0.4-0.5-0.7-1.2-0.7c-0.6,0-1.2,0.3-1.2,0.7c0,0.2,0.1,0.3,0.3,0.4"/>
		<path class="st1" d="M164,95.2c0-0.7-1-1.3-2.2-1.3c-1.2,0-2.2,0.6-2.2,1.3c0,0.7,1,1.3,2.2,1.3C163,96.4,164,95.9,164,95.2z"/>
		<path class="st1" d="M162.7,96.1c0.1-0.1,0.2-0.2,0.2-0.4c0-0.4-0.5-0.7-1.2-0.7c-0.6,0-1.2,0.3-1.2,0.7c0,0.2,0.1,0.3,0.3,0.4"/>
		<path class="st1" d="M154.6,92.7c-1.2,0-2.2-0.6-2.2-1.3c0-0.7,1-1.3,2.2-1.3c1.2,0,2.2,0.6,2.2,1.3
			C156.8,92.2,155.9,92.7,154.6,92.7z"/>
		<path class="st1" d="M155.6,92.4c0.1-0.1,0.2-0.2,0.2-0.4c0-0.4-0.5-0.7-1.2-0.7c-0.6,0-1.2,0.3-1.2,0.7c0,0.2,0.1,0.3,0.3,0.4"/>
		<path class="st1" d="M147.5,88.9c-1.2,0-2.2-0.6-2.2-1.3c0-0.7,1-1.3,2.2-1.3s2.2,0.6,2.2,1.3C149.7,88.4,148.7,88.9,147.5,88.9z"
			/>
		<path class="st1" d="M148.4,88.6c0.1-0.1,0.2-0.2,0.2-0.4c0-0.4-0.5-0.7-1.2-0.7c-0.6,0-1.2,0.3-1.2,0.7c0,0.2,0.1,0.3,0.3,0.4"/>
		<path class="st1" d="M140.4,85.2c-1.2,0-2.2-0.6-2.2-1.3c0-0.7,1-1.3,2.2-1.3s2.2,0.6,2.2,1.3C142.6,84.7,141.6,85.2,140.4,85.2z"
			/>
		<path class="st1" d="M141.3,84.8c0.1-0.1,0.2-0.2,0.2-0.4c0-0.4-0.5-0.7-1.2-0.7c-0.6,0-1.2,0.3-1.2,0.7c0,0.2,0.1,0.3,0.3,0.4"/>
		<path class="st1" d="M133.2,81.4c-1.2,0-2.2-0.6-2.2-1.3c0-0.7,1-1.3,2.2-1.3s2.2,0.6,2.2,1.3C135.4,80.9,134.4,81.4,133.2,81.4z"
			/>
		<path class="st1" d="M134.1,81.1c0.1-0.1,0.2-0.2,0.2-0.4c0-0.4-0.5-0.7-1.2-0.7c-0.6,0-1.2,0.3-1.2,0.7c0,0.2,0.1,0.3,0.3,0.5"/>
		<path class="st1" d="M125.9,77.8c-1.2,0-2.2-0.6-2.2-1.3c0-0.7,1-1.3,2.2-1.3c1.2,0,2.2,0.6,2.2,1.3
			C128.1,77.2,127.2,77.8,125.9,77.8z"/>
		<path class="st1" d="M126.9,77.4c0.1-0.1,0.2-0.2,0.2-0.4c0-0.4-0.5-0.7-1.2-0.7c-0.6,0-1.2,0.3-1.2,0.7c0,0.2,0.1,0.3,0.3,0.4"/>
		<path class="st1" d="M121,72.7c0-0.7-1-1.3-2.2-1.3c-1.2,0-2.2,0.6-2.2,1.3c0,0.7,1,1.3,2.2,1.3C120,74,121,73.4,121,72.7z"/>
		<path class="st1" d="M119.8,73.6c0.1-0.1,0.2-0.2,0.2-0.4c0-0.4-0.5-0.7-1.2-0.7c-0.6,0-1.2,0.3-1.2,0.7c0,0.2,0.1,0.3,0.3,0.4"/>
		<path class="st1" d="M111.7,70.2c-1.2,0-2.2-0.6-2.2-1.3c0-0.7,1-1.3,2.2-1.3c1.2,0,2.2,0.6,2.2,1.3
			C113.9,69.7,112.9,70.2,111.7,70.2z"/>
		<path class="st1" d="M112.7,69.9c0.1-0.1,0.2-0.2,0.2-0.4c0-0.4-0.5-0.7-1.2-0.7s-1.2,0.3-1.2,0.7c0,0.2,0.1,0.3,0.3,0.4"/>
		<path class="st1" d="M106.7,65.2c0-0.7-1-1.3-2.2-1.3c-1.2,0-2.2,0.6-2.2,1.3c0,0.7,1,1.3,2.2,1.3
			C105.8,66.5,106.7,65.9,106.7,65.2z"/>
		<path class="st1" d="M105.5,66.1c0.1-0.1,0.2-0.2,0.2-0.4c0-0.4-0.5-0.7-1.2-0.7s-1.2,0.3-1.2,0.7c0,0.2,0.1,0.3,0.3,0.4"/>
		<path class="st1" d="M97.4,62.8c-1.2,0-2.2-0.6-2.2-1.3c0-0.7,1-1.3,2.2-1.3s2.2,0.6,2.2,1.3C99.6,62.2,98.6,62.8,97.4,62.8z"/>
		<path class="st1" d="M98.3,62.4c0.1-0.1,0.2-0.2,0.2-0.4c0-0.4-0.5-0.7-1.2-0.7c-0.6,0-1.2,0.3-1.2,0.7c0,0.2,0.1,0.3,0.3,0.4"/>
		<path class="st1" d="M91.2,58.8c-1.2,0-2.2-0.6-2.2-1.3c0-0.7,1-1.3,2.2-1.3c1.2,0,2.2,0.6,2.2,1.3C93.4,58.2,92.4,58.8,91.2,58.8
			z"/>
		<path class="st1" d="M92.1,58.4c0.1-0.1,0.2-0.2,0.2-0.4c0-0.4-0.5-0.7-1.2-0.7c-0.6,0-1.2,0.3-1.2,0.7c0,0.2,0.1,0.3,0.3,0.4"/>
		<path class="st1" d="M87.3,54c-1.2,0-2.2-0.6-2.2-1.3c0-0.7,1-1.3,2.2-1.3c1.2,0,2.2,0.6,2.2,1.3C89.5,53.4,88.5,54,87.3,54z"/>
		<path class="st1" d="M88.3,53.6c0.1-0.1,0.2-0.2,0.2-0.4c0-0.4-0.5-0.7-1.2-0.7c-0.6,0-1.2,0.3-1.2,0.7c0,0.2,0.1,0.3,0.3,0.4"/>
		<path class="st1" d="M86.1,48.7c-1.2,0-2.2-0.6-2.2-1.3c0-0.7,1-1.3,2.2-1.3c1.2,0,2.2,0.6,2.2,1.3C88.2,48.2,87.3,48.7,86.1,48.7
			z"/>
		<path class="st1" d="M87,48.4c0.1-0.1,0.2-0.2,0.2-0.4c0-0.4-0.5-0.7-1.2-0.7c-0.6,0-1.2,0.3-1.2,0.7c0,0.2,0.1,0.3,0.3,0.4"/>
		<path class="st1" d="M89.6,42.3c0-0.7-1-1.3-2.2-1.3c-1.2,0-2.2,0.6-2.2,1.3c0,0.7,1,1.3,2.2,1.3C88.6,43.5,89.6,43,89.6,42.3z"/>
		<path class="st1" d="M88.4,43.1c0.1-0.1,0.2-0.2,0.2-0.4c0-0.4-0.5-0.7-1.2-0.7s-1.2,0.3-1.2,0.7c0,0.2,0.1,0.3,0.3,0.4"/>
		<path class="st1" d="M91.4,38.7c-1.2,0-2.2-0.6-2.2-1.3c0-0.7,1-1.3,2.2-1.3c1.2,0,2.2,0.6,2.2,1.3C93.6,38.1,92.6,38.7,91.4,38.7
			z"/>
		<path class="st1" d="M92.4,38.3c0.1-0.1,0.2-0.2,0.2-0.4c0-0.4-0.5-0.7-1.2-0.7c-0.6,0-1.2,0.3-1.2,0.7c0,0.2,0.1,0.3,0.3,0.4"/>
		<path class="st1" d="M99.8,33.5c0-0.7-1-1.3-2.2-1.3c-1.2,0-2.2,0.6-2.2,1.3c0,0.7,1,1.3,2.2,1.3C98.8,34.8,99.8,34.2,99.8,33.5z"
			/>
		<path class="st1" d="M98.5,34.4c0.1-0.1,0.2-0.2,0.2-0.4c0-0.4-0.5-0.7-1.2-0.7c-0.6,0-1.2,0.3-1.2,0.7c0,0.2,0.1,0.3,0.3,0.4"/>
		<path class="st1" d="M107.6,30.8c0-0.7-1-1.3-2.2-1.3s-2.2,0.6-2.2,1.3c0,0.7,1,1.3,2.2,1.3S107.6,31.5,107.6,30.8z"/>
		<path class="st1" d="M106.4,31.7c0.1-0.1,0.2-0.2,0.2-0.4c0-0.4-0.5-0.7-1.2-0.7s-1.2,0.3-1.2,0.7c0,0.2,0.1,0.3,0.3,0.4"/>
		<path class="st1" d="M114.3,30.8c-1.2,0-2.2-0.6-2.2-1.3c0-0.7,1-1.3,2.2-1.3c1.2,0,2.2,0.6,2.2,1.3
			C116.5,30.2,115.6,30.8,114.3,30.8z"/>
		<path class="st1" d="M115.3,30.4c0.1-0.1,0.2-0.2,0.2-0.4c0-0.4-0.5-0.7-1.2-0.7c-0.6,0-1.2,0.3-1.2,0.7c0,0.2,0.1,0.3,0.3,0.4"/>
		<path class="st1" d="M125.8,29.7c0-0.7-1-1.3-2.2-1.3s-2.2,0.6-2.2,1.3c0,0.7,1,1.3,2.2,1.3S125.8,30.4,125.8,29.7z"/>
		<path class="st1" d="M124.5,30.5c0.1-0.1,0.2-0.2,0.2-0.4c0-0.4-0.5-0.7-1.2-0.7c-0.6,0-1.2,0.3-1.2,0.7c0,0.2,0.1,0.3,0.3,0.4"/>
		<path class="st1" d="M132.2,32.7c-1.2,0-2.2-0.6-2.2-1.3c0-0.7,1-1.3,2.2-1.3c1.2,0,2.2,0.6,2.2,1.3
			C134.4,32.1,133.4,32.7,132.2,32.7z"/>
		<path class="st1" d="M133.2,32.3c0.1-0.1,0.2-0.2,0.2-0.4c0-0.4-0.5-0.7-1.2-0.7c-0.6,0-1.2,0.3-1.2,0.7c0,0.2,0.1,0.3,0.3,0.4"/>
		<path class="st1" d="M139.6,35.9c-1.2,0-2.2-0.6-2.2-1.3c0-0.7,1-1.3,2.2-1.3c1.2,0,2.2,0.6,2.2,1.3
			C141.8,35.3,140.8,35.9,139.6,35.9z"/>
		<path class="st1" d="M140.6,35.5c0.1-0.1,0.2-0.2,0.2-0.4c0-0.4-0.5-0.7-1.2-0.7c-0.6,0-1.2,0.3-1.2,0.7c0,0.2,0.1,0.3,0.3,0.4"/>
		<path class="st1" d="M146.8,39.6c-1.2,0-2.2-0.6-2.2-1.3c0-0.7,1-1.3,2.2-1.3c1.2,0,2.2,0.6,2.2,1.3C149,39,148,39.6,146.8,39.6z"
			/>
		<path class="st1" d="M147.7,39.2c0.1-0.1,0.2-0.2,0.2-0.4c0-0.4-0.5-0.7-1.2-0.7s-1.2,0.3-1.2,0.7c0,0.2,0.1,0.3,0.3,0.4"/>
		<path class="st1" d="M156.1,42.1c0-0.7-1-1.3-2.2-1.3c-1.2,0-2.2,0.6-2.2,1.3c0,0.7,1,1.3,2.2,1.3
			C155.1,43.4,156.1,42.8,156.1,42.1z"/>
		<path class="st1" d="M154.9,43c0.1-0.1,0.2-0.2,0.2-0.4c0-0.4-0.5-0.7-1.2-0.7c-0.6,0-1.2,0.3-1.2,0.7c0,0.2,0.1,0.3,0.3,0.4"/>
		<path class="st1" d="M163.2,45.8c0-0.7-1-1.3-2.2-1.3c-1.2,0-2.2,0.6-2.2,1.3c0,0.7,1,1.3,2.2,1.3
			C162.3,47.1,163.2,46.5,163.2,45.8z"/>
		<path class="st1" d="M162,46.7c0.1-0.1,0.2-0.2,0.2-0.4c0-0.4-0.5-0.7-1.2-0.7c-0.6,0-1.2,0.3-1.2,0.7c0,0.2,0.1,0.3,0.3,0.4"/>
		<path class="st1" d="M168.2,50.8c-1.2,0-2.2-0.6-2.2-1.3c0-0.7,1-1.3,2.2-1.3c1.2,0,2.2,0.6,2.2,1.3
			C170.4,50.3,169.4,50.8,168.2,50.8z"/>
		<path class="st1" d="M169.2,50.5c0.1-0.1,0.2-0.2,0.2-0.4c0-0.4-0.5-0.7-1.2-0.7c-0.6,0-1.2,0.3-1.2,0.7c0,0.2,0.1,0.3,0.3,0.4"/>
		<path class="st1" d="M175.4,54.6c-1.2,0-2.2-0.6-2.2-1.3c0-0.7,1-1.3,2.2-1.3c1.2,0,2.2,0.6,2.2,1.3
			C177.6,54,176.6,54.6,175.4,54.6z"/>
		<path class="st1" d="M176.3,54.2c0.1-0.1,0.2-0.2,0.2-0.4c0-0.4-0.5-0.7-1.2-0.7c-0.6,0-1.2,0.3-1.2,0.7c0,0.2,0.1,0.3,0.3,0.4"/>
		<path class="st1" d="M184.8,57c0-0.7-1-1.3-2.2-1.3c-1.2,0-2.2,0.6-2.2,1.3c0,0.7,1,1.3,2.2,1.3C183.8,58.3,184.8,57.7,184.8,57z"
			/>
		<path class="st1" d="M183.5,57.9c0.1-0.1,0.2-0.2,0.2-0.4c0-0.4-0.5-0.7-1.2-0.7c-0.6,0-1.2,0.3-1.2,0.7c0,0.2,0.1,0.3,0.3,0.5"/>
		<path class="st1" d="M191.9,60.8c0-0.7-1-1.3-2.2-1.3c-1.2,0-2.2,0.6-2.2,1.3c0,0.7,1,1.3,2.2,1.3
			C190.9,62.1,191.9,61.5,191.9,60.8z"/>
		<path class="st1" d="M190.7,61.7c0.1-0.1,0.2-0.2,0.2-0.4c0-0.4-0.5-0.7-1.2-0.7c-0.6,0-1.2,0.3-1.2,0.7c0,0.2,0.1,0.3,0.3,0.4"/>
		<path class="st1" d="M196.8,65.8c-1.2,0-2.2-0.6-2.2-1.3c0-0.7,1-1.3,2.2-1.3c1.2,0,2.2,0.6,2.2,1.3C199,65.3,198,65.8,196.8,65.8
			z"/>
		<path class="st1" d="M197.8,65.4c0.1-0.1,0.2-0.2,0.2-0.4c0-0.4-0.5-0.7-1.2-0.7c-0.6,0-1.2,0.3-1.1,0.7c0,0.2,0.1,0.3,0.3,0.4"/>
		<path class="st1" d="M204.1,69.5c-1.2,0-2.2-0.6-2.2-1.3c0-0.7,1-1.3,2.2-1.3c1.2,0,2.2,0.6,2.2,1.3
			C206.3,69,205.3,69.5,204.1,69.5z"/>
		<path class="st1" d="M205,69.2c0.1-0.1,0.2-0.2,0.2-0.4c0-0.4-0.5-0.7-1.2-0.7s-1.2,0.3-1.2,0.7c0,0.2,0.1,0.3,0.3,0.4"/>
		<path class="st1" d="M211.2,73.3c-1.2,0-2.2-0.6-2.2-1.3c0-0.7,1-1.3,2.2-1.3c1.2,0,2.2,0.6,2.2,1.3
			C213.4,72.7,212.4,73.3,211.2,73.3z"/>
		<path class="st1" d="M212.2,72.9c0.1-0.1,0.2-0.2,0.2-0.4c0-0.4-0.5-0.7-1.2-0.7c-0.6,0-1.2,0.3-1.2,0.7c0,0.2,0.1,0.3,0.3,0.4"/>
		<path class="st1" d="M218.3,77.1c-1.2,0-2.2-0.6-2.2-1.3c0-0.7,1-1.3,2.2-1.3s2.2,0.6,2.2,1.3C220.5,76.5,219.5,77.1,218.3,77.1z"
			/>
		<path class="st1" d="M219.3,76.7c0.1-0.1,0.2-0.2,0.2-0.4c0-0.4-0.5-0.7-1.2-0.7c-0.6,0-1.2,0.3-1.2,0.7c0,0.2,0.1,0.3,0.3,0.4"/>
		<path class="st1" d="M225.6,80.8c-1.2,0-2.2-0.6-2.2-1.3c0-0.7,1-1.3,2.2-1.3c1.2,0,2.2,0.6,2.2,1.3
			C227.7,80.2,226.8,80.8,225.6,80.8z"/>
		<path class="st1" d="M226.5,80.4c0.1-0.1,0.2-0.2,0.2-0.4c0-0.4-0.5-0.7-1.2-0.7s-1.2,0.3-1.2,0.7c0,0.2,0.1,0.3,0.3,0.4"/>
		<path class="st1" d="M234.8,83.3c0-0.7-1-1.3-2.2-1.3c-1.2,0-2.2,0.6-2.2,1.3c0,0.7,1,1.3,2.2,1.3C233.9,84.5,234.8,84,234.8,83.3
			z"/>
		<path class="st1" d="M233.6,84.2c0.1-0.1,0.2-0.2,0.2-0.4c0-0.4-0.5-0.7-1.2-0.7c-0.6,0-1.2,0.3-1.2,0.7c0,0.2,0.1,0.3,0.3,0.4"/>
		<path class="st1" d="M242,87c0-0.7-1-1.3-2.2-1.3c-1.2,0-2.2,0.6-2.2,1.3c0,0.7,1,1.3,2.2,1.3C241,88.3,242,87.7,242,87z"/>
		<path class="st1" d="M240.8,87.9c0.1-0.1,0.2-0.2,0.2-0.4c0-0.4-0.5-0.7-1.2-0.7s-1.2,0.3-1.2,0.7c0,0.2,0.1,0.3,0.3,0.4"/>
		<path class="st1" d="M247,92.1c-1.2,0-2.2-0.6-2.2-1.3c0-0.7,1-1.3,2.2-1.3c1.2,0,2.2,0.6,2.2,1.3C249.2,91.5,248.2,92.1,247,92.1
			z"/>
		<path class="st1" d="M247.9,91.7c0.1-0.1,0.2-0.2,0.2-0.4c0-0.4-0.5-0.7-1.2-0.7s-1.2,0.3-1.1,0.7c0,0.2,0.1,0.3,0.3,0.4"/>
		<polyline class="st2" points="266,98 260.3,95 254.8,92.1 139.6,31.1 		"/>
		<line class="st2" x1="218.2" y1="128.2" x2="93.1" y2="62.4"/>
		<path class="st2" d="M268.7,99.5l2.3,2c7.3,7.5,5.4,16.3-2.5,22.4l-2.5,1.7"/>
		<line class="st2" x1="268.7" y1="99.5" x2="266" y2="98"/>
		<line class="st2" x1="219.8" y1="128.8" x2="218.2" y2="128.2"/>
		<path class="st2" d="M219.8,128.8l4.7,1.5c12.3,3.3,27.6,2.5,39-3.4l2.3-1.3"/>
		<path class="st2" d="M134.9,29.1l-3.3-0.9c-11.9-3-27.3-2.1-38.2,3.7l-2.3,1.3"/>
		<line class="st2" x1="136.2" y1="29.6" x2="134.9" y2="29.1"/>
		<path class="st2" d="M88.6,59.5l-2.4-2.1c-7.4-7.7-5.6-16.3,2.5-22.5l2.1-1.5"/>
		<line class="st2" x1="218.2" y1="130" x2="93" y2="64.2"/>
		<path class="st2" d="M275.4,112l0.1,1c0.2,5.2-3.1,9.7-7.1,12.7l-2.5,1.7"/>
		<path class="st2" d="M219.8,130.6l4.7,1.5c12.4,3.3,27.5,2.5,39-3.4l2.3-1.3"/>
		<line class="st2" x1="90.6" y1="61" x2="88.6" y2="59.5"/>
		<line class="st2" x1="88.4" y1="61.2" x2="90.4" y2="62.6"/>
		<line class="st2" x1="219.8" y1="130.6" x2="218.2" y2="130"/>
		<polyline class="st2" points="88.4,61.2 86.2,59.2 84.4,57.1 83,54.9 82.2,53 81.7,51.1 81.5,49.3 81.5,49.3 		"/>
		<line class="st2" x1="81.5" y1="49.3" x2="81.5" y2="47.4"/>
		<line class="st2" x1="139.6" y1="31.1" x2="136.2" y2="29.6"/>
		<line class="st2" x1="93.1" y1="62.4" x2="90.6" y2="61"/>
		<line class="st2" x1="90.4" y1="62.6" x2="93" y2="64.2"/>
	</g>
</g>
</svg>
