<?xml version="1.0" encoding="utf-8"?>
<!-- Generator: Adobe Illustrator 24.2.3, SVG Export Plug-In . SVG Version: 6.00 Build 0)  -->
<svg version="1.1" id="Ebene_1" xmlns="http://www.w3.org/2000/svg" xmlns:xlink="http://www.w3.org/1999/xlink" x="0px" y="0px"
	 viewBox="0 0 349.1 166" style="enable-background:new 0 0 349.1 166;" xml:space="preserve">
<style type="text/css">
	.st0{fill:#0099FF;}
	.st1{fill:none;stroke:#000000;stroke-width:0.53;stroke-miterlimit:5;}
	.st2{fill:none;stroke:#000000;stroke-width:0.26;stroke-miterlimit:5;}
</style>
<path class="st0" d="M200.4,115.2c-2,6.9-5.7,12.6-11.5,16.9l-44.1,25.3c-3.4,1.6-6.9,0.4-10.5-2c-4.1-1.5-6.3-4.2-6-8.4
	c9.2-33.1,15.7-65.3,15.4-95c0.6-8.4,4.2-10.7,7.9-13.1L203.7,9c5.5-2.4,6.4-0.2,8.2,1.2c1.7,0.6,2.9,1.9,3.4,4.1
	C216.6,34.8,211.9,78.6,200.4,115.2z"/>
<g>
	<path class="st1" d="M198.1,11.8c-0.4-0.3-1-0.2-1.4,0.1c-0.4,0.3-0.6,0.9-0.5,1.4"/>
	<path class="st1" d="M187.2,18.3c-0.4-0.2-0.9-0.2-1.3,0c-0.4,0.2-0.7,0.7-0.7,1.2"/>
	<path class="st1" d="M176.1,24.6c-0.4-0.2-0.9-0.2-1.3,0c-0.4,0.2-0.7,0.7-0.6,1.2"/>
	<path class="st1" d="M164.6,31.2c-0.4-0.3-0.9-0.2-1.4,0c-0.4,0.3-0.6,0.7-0.6,1.2"/>
	<path class="st1" d="M153.6,37.7c-0.4-0.2-0.9-0.3-1.3,0c-0.4,0.2-0.7,0.7-0.6,1.2"/>
	<line class="st1" x1="142.5" y1="54.2" x2="143.6" y2="54.8"/>
	<path class="st1" d="M143.8,51.9c-0.1-0.1-0.2-0.1-0.3-0.1c-0.7-0.3-1.4,0-1.7,0.7c-0.3,0.7,0,1.4,0.7,1.7c0,0,0,0,0,0"/>
	<polyline class="st1" points="170.1,36.4 170.2,36.3 170.3,36.2 170.5,36.1 170.5,36 170.6,35.9 170.7,35.8 170.8,35.7 170.9,35.6 
		171,35.4 171,35.3 171.1,35.1 171.1,35 171.2,34.9 171.2,34.7 171.2,34.6 171.2,34.2 171.2,34.1 171.2,34 171.1,34 171.1,33.9 
		171,33.8 170.9,33.8 170.9,33.7 170.8,33.7 170.7,33.7 170.6,33.7 170.5,33.7 170.4,33.7 170.3,33.8 170.1,33.9 170,33.9 169.9,34 
		169.8,34.1 169.7,34.2 169.6,34.3 169.5,34.4 169.4,34.6 169.3,34.7 169.3,34.8 169.2,35 169.1,35.1 169.1,35.2 169.1,35.4 
		169.1,35.5 169,35.6 169,35.9 169.1,36 169.1,36.1 169.1,36.2 169.2,36.3 169.2,36.3 169.3,36.4 169.4,36.4 169.4,36.5 169.5,36.5 
		169.6,36.5 169.7,36.5 169.8,36.5 169.9,36.5 170,36.4 170.1,36.4 	"/>
	<line class="st1" x1="207.5" y1="17.6" x2="209.5" y2="18.8"/>
	<line class="st1" x1="209.2" y1="8.5" x2="211.4" y2="9.8"/>
	<polyline class="st1" points="197.9,111.1 197.8,111.4 197.7,111.7 197.6,112.1 197.5,112.4 197.4,112.7 197.2,113.1 197.1,113.4 
		197,113.7 196.9,114 196.7,114.4 196.6,114.7 196.4,115 196.3,115.4 196.1,115.7 195.9,116 195.8,116.3 195.6,116.6 195.4,117 
		195.3,117.3 195.1,117.6 194.9,117.9 194.7,118.2 194.5,118.5 194.3,118.8 194.1,119.1 194,119.4 193.7,119.7 193.5,120 
		193.3,120.3 193.1,120.6 192.9,120.9 192.7,121.2 192.5,121.5 192.3,121.7 192,122 191.8,122.3 191.4,122.8 191.1,123.1 
		190.9,123.3 190.7,123.6 190.4,123.8 190.2,124.1 190,124.3 189.7,124.6 189.5,124.8 189.3,125 189,125.3 188.8,125.5 188.5,125.7 
		188.3,125.9 188,126.1 187.8,126.3 187.5,126.5 187.3,126.7 187,126.9 186.8,127.1 186.5,127.2 186.2,127.4 186,127.6 185.9,127.7 
			"/>
	<line class="st1" x1="147.3" y1="149.9" x2="177" y2="132.7"/>
	<line class="st1" x1="177" y1="132.7" x2="185.9" y2="127.7"/>
	<polyline class="st1" points="211.1,21.9 211.1,23.8 211.1,27.8 211.1,29.2 211.1,30.6 211,31.9 211,33.3 210.9,34.7 210.9,36.1 
		210.8,37.4 210.7,38.8 210.7,40.2 210.2,48.6 	"/>
	<polyline class="st1" points="210.2,48.6 209.1,57.2 209,58.6 208.8,60 208.6,61.5 208.4,62.9 208.2,64.3 208,65.8 207.8,67.3 
		207.5,68.7 207.3,70.1 207,71.6 206.8,73.1 206.5,74.5 206.3,76 206,77.5 205.7,78.9 205.4,80.4 205.1,81.9 204.8,83.4 204.5,84.8 
		204.2,86.3 203.9,87.8 203.6,89.3 203.2,90.7 202.9,92.2 202.5,93.7 202.2,95.2 201.8,96.7 201.4,98.2 201,99.7 200.7,101.2 
		200.3,102.7 199.9,104.2 199.5,105.7 199,107.2 198.2,110.2 197.9,111.1 	"/>
	<polyline class="st1" points="147.3,149.9 147.1,150.1 146.9,150.2 146.7,150.3 146.5,150.5 146.3,150.6 146.1,150.7 145.9,150.8 
		145.7,150.8 145.5,150.9 145.3,151 145.1,151.1 144.9,151.1 144.7,151.2 144.3,151.2 144.2,151.3 144,151.3 143.8,151.3 
		143.6,151.3 143.5,151.3 143.1,151.2 143,151.2 142.8,151.2 142.6,151.1 142.5,151.1 142.4,151 142.2,150.9 142.1,150.8 
		141.9,150.8 141.8,150.7 141.7,150.6 141.6,150.5 141.4,150.3 141.3,150.2 141.2,150.1 141.1,149.9 141,149.8 140.9,149.6 
		140.9,149.5 140.8,149.3 140.7,149.2 140.7,149 140.6,148.8 140.5,148.6 140.5,148.4 140.4,148.2 140.4,148 140.4,147.8 
		140.4,147.6 140.3,147.4 140.3,147.2 140.3,146.5 140.3,146.2 140.4,146 140.4,145.8 140.4,145.5 140.5,145.3 140.5,145 
		140.6,144.8 140.6,144.5 140.7,144.3 140.8,144 	"/>
	<polyline class="st1" points="206.5,19.2 206.6,19.2 206.8,19.1 206.9,19.1 207,19 207.1,19 207.2,18.9 207.3,18.9 207.4,18.8 
		207.5,18.8 207.6,18.8 207.7,18.7 207.8,18.7 207.9,18.7 208,18.7 208.1,18.6 208.2,18.6 208.4,18.6 208.5,18.6 208.7,18.6 
		208.7,18.6 208.8,18.6 208.9,18.6 209,18.7 209.1,18.7 209.2,18.7 209.3,18.7 209.4,18.7 209.5,18.8 209.5,18.8 209.6,18.9 
		209.7,18.9 209.8,18.9 209.9,19 209.9,19 210,19.1 210.2,19.2 210.2,19.3 210.3,19.3 210.3,19.4 210.4,19.5 210.5,19.5 210.5,19.6 
		210.6,19.7 210.6,19.8 210.7,19.9 210.7,20 210.7,20.1 210.8,20.2 210.8,20.2 210.9,20.4 210.9,20.5 210.9,20.6 211,20.7 211,20.8 
		211,20.9 211,21 211,21.1 211.1,21.2 211.1,21.3 211.1,21.5 211.1,21.6 211.1,21.8 	"/>
	<polyline class="st1" points="153.9,55.9 153.9,55.7 153.9,55.6 153.9,55.4 153.9,54.8 153.9,54.6 153.9,54.4 153.9,54.3 154,54.1 
		154,53.9 154,53.7 154,53.6 154.1,53.4 154.1,53.2 154.2,53 154.2,52.8 154.3,52.7 154.3,52.5 154.4,52.3 154.5,52.1 154.5,51.9 
		154.6,51.8 154.7,51.6 154.8,51.4 154.8,51.2 154.9,51 155,50.8 155.1,50.7 155.2,50.5 155.3,50.3 155.4,50.2 155.5,50 155.6,49.8 
		155.7,49.7 155.8,49.5 155.9,49.3 156.1,49.2 156.2,49 156.4,48.7 156.6,48.6 156.7,48.4 156.8,48.3 156.9,48.2 157.1,48 
		157.2,47.9 157.3,47.8 157.5,47.6 157.6,47.5 157.7,47.4 157.9,47.3 158,47.2 158.2,47.1 158.3,47 158.4,46.9 158.6,46.8 
		158.7,46.7 158.9,46.7 159,46.6 159.1,46.5 159.3,46.5 159.4,46.4 159.6,46.4 	"/>
	<polyline class="st1" points="153.9,55.9 153.9,56.8 153.9,60.9 153.9,62.2 153.9,63.6 153.8,64.9 153.8,66.3 153.8,67.7 
		153.7,69.1 153.6,70.4 153.6,71.8 153.5,73.2 153.4,74.6 153.3,76 153.2,77.4 153.1,78.8 153,80.2 152.9,81.6 152.7,83 152.6,84.4 
		152.5,85.9 152.3,87.3 152.1,88.7 152,90.2 151.8,91.6 151.6,93 151.4,94.5 151.2,95.9 151,97.4 150.8,98.8 150.6,100.3 
		150.4,101.7 150.1,103.2 149.9,104.6 149.6,106.1 149.4,107.5 149.1,109 148.8,110.5 148.6,111.9 148.3,113.4 148,114.9 
		147.7,116.4 147.4,117.8 147.1,119.3 146.7,120.8 146.4,122.3 146.1,123.8 145.7,125.3 145.4,126.7 145,128.2 144.6,129.7 
		144.3,131.2 143.9,132.7 143.5,134.2 143.1,135.7 142.7,137.2 142.3,138.7 141.9,140.2 141.4,141.7 141,143.2 140.8,144 	"/>
	<line class="st1" x1="159.6" y1="46.4" x2="206.5" y2="19.2"/>
	<polyline class="st1" points="209.2,8.5 209.2,8.5 209.1,8.4 208.9,8.3 208.8,8.3 208.6,8.2 208.4,8.2 208.3,8.1 208.1,8.1 
		207.9,8.1 207.7,8 207.6,8 207.4,8 207,8 206.8,8 206.7,8 206.5,8.1 206.3,8.1 206.1,8.1 205.9,8.2 205.7,8.2 205.5,8.3 205.1,8.4 
		204.9,8.5 204.7,8.5 204.5,8.6 204.3,8.7 204.1,8.8 203.9,8.9 203.7,9 203.5,9.1 	"/>
	<polyline class="st1" points="143.7,50.3 143.7,50.3 143.7,50.2 143.8,50 143.8,49.8 143.8,49.6 143.8,49.4 143.9,49.2 143.9,49 
		144,48.8 144,48.7 144,48.5 144.1,48.3 144.1,48.1 144.2,47.9 144.3,47.7 144.3,47.5 144.4,47.3 144.4,47.1 144.5,46.9 144.6,46.7 
		144.7,46.6 144.8,46.4 144.8,46.2 144.9,46 145,45.8 145.1,45.6 145.2,45.4 145.3,45.2 145.4,45.1 145.6,44.7 145.7,44.5 
		145.8,44.3 145.9,44.2 146.1,44 146.2,43.8 146.6,43.1 146.8,43 146.9,42.8 147,42.6 147.2,42.5 147.3,42.3 147.4,42.2 147.6,42 
		147.7,41.9 147.8,41.7 148,41.6 148.1,41.5 148.3,41.3 148.4,41.2 148.6,41.1 148.7,41 148.8,40.8 149,40.7 149.1,40.6 149.3,40.5 
		149.4,40.4 149.6,40.3 149.7,40.2 149.9,40.1 150,40 	"/>
	<line class="st1" x1="150" y1="40" x2="203.5" y2="9.1"/>
	<polyline class="st1" points="204.2,17.9 204.3,17.8 204.4,17.7 204.5,17.7 204.6,17.6 204.7,17.6 204.8,17.6 204.9,17.5 205,17.5 
		205.2,17.4 205.3,17.4 205.4,17.4 205.5,17.3 205.6,17.3 205.7,17.3 205.8,17.3 205.9,17.3 206,17.3 206.1,17.3 206.3,17.3 
		206.4,17.3 206.5,17.3 206.6,17.3 206.7,17.3 206.7,17.3 206.8,17.3 206.9,17.4 207,17.4 207.1,17.4 207.2,17.5 207.3,17.5 
		207.3,17.5 207.4,17.6 207.5,17.6 	"/>
	<polyline class="st1" points="151.6,54.5 151.6,54.4 151.5,54.2 151.5,54.1 151.5,53.4 151.5,53.2 151.6,53.1 151.6,52.9 
		151.6,52.7 151.6,52.5 151.7,52.4 151.7,52.2 151.7,52 151.8,51.8 151.8,51.7 151.9,51.5 151.9,51.3 152,51.1 152,50.9 152.1,50.7 
		152.2,50.6 152.3,50.4 152.3,50.2 152.4,50 152.5,49.8 152.6,49.7 152.7,49.5 152.7,49.3 152.8,49.1 152.9,49 153,48.8 153.2,48.6 
		153.4,48.3 153.5,48.1 153.6,48 153.7,47.8 153.8,47.7 154,47.5 154.1,47.4 154.2,47.2 154.3,47.1 154.4,46.9 154.6,46.8 
		154.7,46.7 154.8,46.5 155,46.4 155.1,46.3 155.2,46.2 155.4,46.1 155.5,45.9 155.8,45.7 155.9,45.7 156.1,45.6 156.2,45.5 
		156.4,45.4 156.5,45.3 156.6,45.2 156.8,45.2 156.9,45.1 157.1,45 157.2,45 	"/>
	<polyline class="st1" points="151.6,54.5 151.6,55.8 151.6,57.1 151.6,58.4 151.6,59.8 151.6,61.1 151.5,62.4 151.5,63.8 
		151.4,65.1 151.4,66.5 151.3,67.8 151.3,69.2 151.2,70.6 151.1,71.9 151.1,73.3 151,74.6 150.9,76 150.8,77.4 150.6,78.8 
		150.5,80.2 150.4,81.6 150.3,82.9 150.1,84.3 150,85.7 149.8,87.1 149.6,88.5 149.5,89.9 149.3,91.3 149.1,92.8 148.9,94.2 
		148.7,95.6 148.5,97 148.3,98.4 148.1,99.9 147.9,101.3 147.6,102.7 147.4,104.2 147.1,105.6 146.9,107 146.6,108.5 146.3,109.9 
		146.1,111.3 145.5,114.2 145.2,115.7 144.9,117.1 144.6,118.6 144.2,120 143.9,121.5 143.6,123 143.2,124.4 142.9,125.9 
		142.5,127.3 142.2,128.8 141.8,130.3 141.4,131.7 141,133.2 140.6,134.7 140.2,136.1 139.8,137.6 139.4,139.1 139,140.5 138.6,142 
		138.2,143.5 138.1,143.7 	"/>
	<line class="st1" x1="157.2" y1="45" x2="204.2" y2="17.9"/>
	<path class="st1" d="M212.1,10.4l-0.1-0.1l-0.1-0.1l-0.1-0.1l-0.1-0.1l-0.1-0.1l-0.1-0.1l-0.1-0.1l-0.3-0.1l-0.2-0.1l-0.2,0l-0.2,0
		l-0.2,0l-0.2,0l-0.2,0l-0.2,0l-0.2,0l-0.2,0H209l-0.2,0h-0.2l-0.2,0l-0.2,0c0,0-0.4,0.1-0.2,0s-0.2,0-0.2,0l-0.2,0l-0.2,0l-0.2,0.1
		L207,9.7l-0.2,0.1l-0.2,0.1l-0.2,0.1l-0.2,0.1l-0.2,0.1l-0.2,0.1l-0.2,0.1l-0.2,0.1"/>
	<polyline class="st1" points="145.6,52.4 145.7,51.8 145.7,51.6 145.7,51.4 145.7,51.2 145.7,51.1 145.8,50.9 145.8,50.7 
		145.8,50.5 145.9,50.3 145.9,50.1 145.9,49.9 146,49.7 146.1,49.6 146.1,49.4 146.2,49.2 146.2,49 146.3,48.8 146.4,48.6 
		146.4,48.4 146.5,48.2 146.6,48 146.6,47.8 146.7,47.6 146.8,47.4 146.9,47.3 147,47.1 147.1,46.9 147.2,46.7 147.3,46.5 
		147.4,46.3 147.5,46.1 147.6,46 147.7,45.8 147.8,45.6 147.9,45.4 148,45.2 148.5,44.6 148.6,44.4 148.7,44.2 148.9,44.1 149,43.9 
		149.1,43.7 149.4,43.4 149.5,43.3 149.7,43.2 149.8,43 150,42.9 150.1,42.7 150.2,42.6 150.4,42.5 150.5,42.4 150.7,42.2 
		150.8,42.1 151,42 151.1,41.9 151.2,41.8 151.4,41.7 151.5,41.6 151.7,41.4 151.8,41.4 152,41.3 	"/>
	<line class="st1" x1="152" y1="41.3" x2="205.4" y2="10.4"/>
	<path class="st1" d="M128.4,146.9c-0.7,3.5,1.9,7,6,8.4 M130.5,147.6l-0.2,1.7l0.1,1.2l0.4,1.2l0.6,1.1l0.8,1l1,1l1.1,0.8l0.9,0.5
		 M132.1,148.1c-0.1,0.3-0.2,0.6-0.2,0.8c-0.8,3.9,2.5,7.9,7.3,8.9c2.6,0.5,5.3,0.1,7.3-1.2 M141.2,150H141l-0.2,0l-0.2,0l-0.2,0
		l-0.1,0l-0.2,0l-0.1-0.1l-0.2-0.1l-0.1-0.1l-0.1-0.1l-0.1-0.1l-0.1-0.1l-0.1-0.1l-0.1-0.1l-0.1-0.1l-0.1-0.1l-0.1-0.1l-0.1-0.1
		l-0.1-0.1l-0.1-0.2l-0.1-0.2l-0.1-0.1l-0.1-0.2l-0.1-0.2l-0.1-0.2l-0.1-0.2l0-0.2l-0.1-0.2l0-0.2l0-0.2l0-0.2l0-0.2l0-0.2v-0.5
		l0-0.2l0-0.2l0-0.2l0-0.2l0-0.2l0-0.2l0-0.2l0-0.1 M180.1,135.4l0.2-0.1l0.1-0.1l0.1-0.1l0.1-0.1l0.1-0.1l0.1-0.1l0.1-0.1l0.1-0.1
		l0.1-0.1l0.1-0.1l0.1-0.1l0-0.1l0-0.1l0-0.1v-0.3l0-0.1l0-0.1l0-0.1l0-0.1l-0.1-0.1l-0.1-0.1l-0.1-0.1l-0.1,0l-0.1,0l-0.1,0h-0.2
		l-0.1,0l-0.1,0l-0.2,0.1l-0.1,0.1l-0.1,0.1l-0.1,0.1l-0.1,0.1l-0.1,0.1l-0.1,0.1l-0.1,0.1l-0.1,0.1l-0.1,0.1l-0.1,0.1l-0.1,0.1
		l0,0.1l0,0.1l0,0.1v0.4l0,0.1l0,0.1l0,0.1l0.1,0.1l0.1,0.1l0.1,0.1l0.1,0l0.1,0l0.1,0l0.1,0h0.1l0.1,0l0.1,0l0.1,0L180.1,135.4
		 M187.1,133.1c2.7-1.4,5.5-3.9,7.9-6.9c2.4-3,4.1-6.3,4.9-9.3 M143.7,50.3l-0.8,19.8L141,89.4l-3,19.1l-4.1,18.9l-5.5,19.6
		 M145.6,52.4l-0.7,18.8L143,90.5l-3,19.1l-4.1,18.9l-5.4,19.1 M147.3,52.9l-0.8,19.9l-2,19.8l-3.2,19.6l-4.4,19.4l-5,17.2
		 M200.8,103.2c0,0,0.1,0.1,0.1,0.1c0.4,0.3,1.1-0.1,1.6-0.9c0.4-0.7,0.4-1.6,0-1.8c-0.3-0.2-0.7-0.1-1.1,0.3 M204.7,87.4
		c0.4,0.2,1.1-0.2,1.5-0.9c0.4-0.7,0.4-1.5,0-1.8c-0.3-0.2-0.7,0-1.1,0.4 M207.5,72.2c0.4,0.1,1-0.3,1.4-1c0.4-0.7,0.4-1.5,0-1.8
		c-0.3-0.2-0.8,0-1.2,0.4 M210.2,53.8c0.4,0,0.9-0.4,1.3-1c0.4-0.7,0.4-1.5,0-1.8c-0.3-0.2-0.8,0-1.2,0.5 M211.5,37.8
		c0.4,0,0.9-0.4,1.2-1c0.4-0.7,0.4-1.5,0-1.8c-0.3-0.2-0.8,0-1.2,0.5 M196.8,119.7l0.2-0.1l0.1-0.1l0.1-0.1l0.1-0.1l0.1-0.1l0.1-0.1
		l0.1-0.1l0.1-0.1l0.1-0.1l0.1-0.1l0-0.1l0-0.1l0-0.1l0-0.1v-0.2l0-0.1l0-0.1l0-0.1l0-0.1l-0.1-0.1l-0.1-0.1l-0.1,0l-0.1,0l-0.1,0
		l-0.1,0h-0.1l-0.2,0l-0.1,0l-0.1,0l-0.1,0.1l-0.1,0.1l-0.1,0.1l-0.1,0.1l-0.1,0.1l-0.1,0.1l-0.1,0.1l-0.1,0.1L196,118l-0.1,0.1
		l-0.1,0.1l-0.1,0.1l0,0.1l0,0.1l0,0.1v0.4l0,0.1l0,0.1l0,0.1l0.1,0.1l0.1,0.1l0.1,0l0.1,0l0.1,0l0.1,0h0.2l0.1,0l0.1,0L196.8,119.7
		L196.8,119.7 M211.7,22.2L211.7,22.2l0.2,0l0.1,0l0.1,0l0.1-0.1l0.1-0.1l0.1-0.1l0.1-0.1l0.1-0.1l0.1-0.1l0.1-0.1l0.1-0.1l0.1-0.1
		l0.1-0.1l0.1-0.1l0-0.1l0.1-0.1l0.1-0.3l0-0.1l0-0.1l0-0.1v-0.1l0-0.1l0-0.1l0-0.1l-0.1-0.1l-0.1-0.1l-0.1,0l-0.1,0l-0.1,0l-0.1,0
		h-0.1l-0.1,0l-0.1,0l-0.1,0l-0.1,0l-0.2,0.1l-0.1,0.1l-0.1,0.1l-0.1,0.1l-0.1,0.1l-0.1,0.1 M192.9,23.5l0.1-0.1l0.1-0.1l0.1-0.1
		l0.1-0.1l0.1-0.1l0.1-0.1l0.1-0.1l0.1-0.1l0.1-0.1l0.1-0.1l0.1-0.1l0-0.1l0-0.1l0-0.1l0-0.1l0-0.1v-0.1l0-0.1l0-0.1l0-0.1l-0.1-0.1
		l0-0.1l-0.1-0.1l-0.1,0l-0.1,0l-0.1,0l-0.1,0h-0.1l-0.1,0l-0.1,0l-0.1,0l-0.1,0.1l-0.1,0.1l-0.1,0.1l-0.1,0.1l-0.1,0.1l-0.1,0.1
		l-0.1,0.1l-0.1,0.1l-0.1,0.1l-0.1,0.1l-0.1,0.1l0,0.1l-0.1,0.1l-0.1,0.1l0,0.1l0,0.1l0,0.1v0.1l0,0.1l0,0.1l0,0.1l0.1,0.1l0,0.1
		l0.1,0.1l0.1,0.1l0.1,0l0.1,0l0.1,0h0.2l0.1,0l0.1,0l0.1,0L192.9,23.5 M181.7,29.8L181.7,29.8l0.2-0.1l0.1-0.1l0.1-0.1l0.1-0.1
		l0.1-0.1l0.1-0.1l0.1-0.1l0.1-0.1l0.1-0.1l0.1-0.1l0.1-0.1l0-0.1l0-0.1l0-0.1v-0.3l0-0.1l0-0.1l0-0.1l0-0.1l-0.1-0.1l-0.1-0.1
		l-0.1,0l-0.1,0l-0.1,0l-0.1,0h-0.2l-0.1,0l-0.1,0l-0.2,0.1l-0.1,0.1l-0.1,0.1l-0.1,0.1l-0.1,0.1l-0.1,0.1l-0.1,0.1L181,28l-0.1,0.1
		l-0.1,0.1l-0.1,0.1l-0.1,0.1l0,0.1l0,0.1l0,0.1v0.4l0,0.1l0,0.1l0,0.1l0.1,0.1l0.1,0.1l0.1,0.1l0.1,0l0.1,0l0.1,0l0.1,0h0.1l0.1,0
		l0.1,0l0.1-0.1L181.7,29.8 M203.6,17l0.1-0.1l0.1-0.1l0.1-0.1l0.1-0.1l0.1-0.1l0.1-0.1l0.1-0.1l0.1-0.1l0.1-0.1l0.1-0.1l0.1-0.1
		l0.1-0.1l0-0.1l0-0.1l0-0.1v-0.4l0-0.1l0-0.1l0-0.1l-0.1-0.1l-0.1-0.1l-0.1-0.1l-0.1,0l-0.1,0l-0.1,0h-0.1l-0.1,0l-0.1,0l-0.1,0
		l-0.1,0l-0.2,0.1l-0.1,0.1l-0.1,0.1l-0.1,0.1l-0.1,0.1l-0.1,0.1l-0.1,0.1l-0.1,0.1l-0.1,0.1l-0.1,0.1l-0.1,0.1l0,0.1l0,0.1l0,0.1
		l0,0.1v0.2l0,0.1l0,0.1l0,0.1l0,0.1l0.1,0.1l0.1,0l0.1,0l0.1,0h0.2l0.1,0l0.1,0l0.1,0L203.6,17 M158.8,42.9L158.8,42.9l0.2-0.2
		l0.1-0.1l0.1-0.1l0.1-0.1l0.1-0.1l0.1-0.1l0.1-0.1l0.1-0.1l0.1-0.1l0.1-0.1l0.1-0.1l0-0.1l0-0.1l0-0.1v-0.2l0-0.1l0-0.1l0-0.1
		l0-0.1l-0.1-0.1l-0.1-0.1l-0.1,0l-0.1-0.1l-0.1,0h-0.1l-0.1,0l-0.1,0l-0.1,0l-0.1,0l-0.1,0l-0.1,0.1l-0.1,0.1l-0.1,0.1l-0.1,0.1
		l-0.1,0.1l-0.1,0.1l-0.1,0.1l-0.1,0.1l-0.1,0.1l-0.1,0.1l-0.1,0.1l-0.1,0.1l0,0.1l0,0.1l0,0.1v0.1l0,0.1l0,0.1l0,0.1l0,0.1l0,0.1
		l0,0.1l0.1,0.1l0.1,0l0.1,0l0.1,0h0.2l0.1,0l0.1,0l0.1,0L158.8,42.9 M158.7,147.9l0.1-0.1l0.1-0.1l0.1-0.1l0.1-0.1l0.1-0.1l0.1-0.1
		l0.1-0.1l0.1-0.1l0.1-0.1l0.1-0.1l0.1-0.1l0-0.1l0.1-0.1l0-0.1l0-0.1l0-0.1v-0.1l0-0.1l0-0.1l0-0.1l-0.1-0.1l-0.1-0.1l-0.1-0.1
		l-0.1-0.1l-0.1,0l-0.1,0l-0.1,0h-0.1l-0.1,0l-0.1,0l-0.1,0l-0.1,0.1l-0.1,0.1l-0.1,0.1l-0.1,0.1l-0.1,0.1l-0.1,0.1l-0.1,0.1
		l-0.1,0.1l-0.1,0.1l-0.1,0.1l-0.1,0.1l-0.1,0.1l-0.1,0.1l-0.1,0.1l0,0.1l0,0.1l0,0.1v0.1l0,0.1l0,0.1l0,0.1l0,0.1l0.1,0.1l0.1,0.1
		l0.1,0l0.1,0l0.1,0h0.2l0.1,0l0.1,0L158.7,147.9L158.7,147.9 M169.4,141.6l0.1-0.1l0.1-0.1l0.1-0.1l0.1-0.1l0.1-0.1l0.1-0.1
		l0.1-0.1l0.1-0.1l0.1-0.1l0.1-0.1l0.1-0.1l0-0.1l0-0.1l0-0.1l0-0.1v-0.2l0-0.1l0-0.1l0-0.1l-0.1-0.1l0-0.1l-0.1-0.1l-0.1-0.1
		l-0.1,0l-0.1,0l-0.1,0h-0.1l-0.1,0l-0.1,0l-0.1,0l-0.1,0.1l-0.1,0.1l-0.1,0.1l-0.1,0.1l-0.1,0.1l-0.1,0.1l-0.1,0.1l-0.1,0.1
		l-0.1,0.1l-0.1,0.1l-0.1,0.1l-0.1,0.1l-0.1,0.1l-0.1,0.1l0,0.1l0,0.1l0,0.1v0.1l0,0.1l0,0.1l0,0.1l0.1,0.1l0,0.1l0.1,0.1l0.1,0.1
		l0.1,0l0.1,0l0.1,0h0.2l0.1,0l0.1,0l0.1,0L169.4,141.6 M189.6,129.8l0.2-0.1l0.1-0.1l0.1-0.1l0.1-0.1l0.1-0.1l0.1-0.1l0.1-0.1
		l0.1-0.3l0.1-0.1l0.1-0.1l0-0.1l0-0.1l0-0.1v-0.3l0-0.1l0-0.1l0-0.1l0-0.1l-0.1-0.1l-0.1-0.1l-0.1,0l-0.1,0l-0.1,0l-0.1,0H190
		l-0.1,0l-0.1,0l-0.1,0l-0.1,0.1l-0.1,0.1l-0.1,0.1l-0.1,0.1l-0.1,0.1l-0.1,0.1l-0.1,0.1l-0.1,0.1l-0.1,0.1l-0.1,0.1l-0.1,0.1
		l-0.1,0.1l0,0.1l0,0.1l0,0.1l0,0.1v0.3l0,0.1l0,0.1l0,0.1l0,0.1l0.1,0.1l0.1,0l0.1,0.1l0.1,0l0.1,0l0.1,0h0.1l0.1,0l0.1,0l0.1,0
		L189.6,129.8 M146.5,154.6l0.1-0.1l0.1-0.1l0.1-0.1l0.1-0.1l0.1-0.1l0.1-0.1l0.1-0.1l0.1-0.1l0.1-0.1l0.1-0.1l0.1-0.1l0.1-0.1
		l0-0.1l0-0.1l0-0.1v-0.3l0-0.1l0-0.1l0-0.1l0-0.1l-0.1-0.1l-0.1-0.1l-0.1,0l-0.1,0l-0.1,0l-0.1,0h-0.2l-0.1,0l-0.1,0l-0.1,0.1
		l-0.1,0l-0.1,0.1l-0.1,0.1l-0.1,0.1l-0.1,0.1l-0.1,0.1l-0.1,0.1l-0.1,0.1l-0.1,0.1l-0.1,0.1l-0.1,0.1l-0.1,0.1l0,0.1l0,0.1l0,0.1
		v0.4l0,0.1l0,0.1l0,0.1l0.1,0.1l0.1,0.1l0.1,0l0.1,0.1l0.1,0l0.1,0l0.1,0h0.1l0.1,0l0.1,0L146.5,154.6 M137.1,140.3l0.1-0.1
		l0.1-0.1l0.2-0.2l0.1-0.1l0.1-0.1l0.1-0.1l0.1-0.1l0.1-0.1l0.1-0.1l0.1-0.1l0.1-0.1l0-0.1l0-0.1l0-0.1l0-0.1l0-0.1v-0.1l0-0.1
		l0-0.1l0-0.1l-0.1-0.1l-0.1-0.1l-0.1,0l-0.1,0l-0.1,0h-0.2l-0.1,0l-0.1,0l-0.1,0l-0.1,0.1l-0.1,0.1l-0.1,0.1l-0.1,0.1l-0.1,0.1
		l-0.1,0.1l-0.1,0.1l-0.1,0.1l-0.1,0.1l-0.1,0.1l-0.1,0.1l-0.1,0.1l0,0.1l0,0.1l0,0.1l0,0.1v0.2l0,0.1l0,0.1l0,0.1l0.1,0.1l0.1,0.1
		l0.1,0.1l0.1,0l0.1,0l0.1,0l0.1,0h0.1l0.1,0l0.1,0L137.1,140.3L137.1,140.3 M141.3,124.4L141.3,124.4l0.2-0.1l0.1-0.1l0.1-0.1
		l0.1-0.1l0.1-0.1l0.1-0.1l0.1-0.1l0.1-0.1l0.1-0.1l0.1-0.1l0.1-0.1l0-0.1l0-0.1l0-0.1v-0.4l0-0.1l0-0.1l0-0.1l-0.1-0.1l-0.1-0.1
		l-0.1-0.1l-0.1,0l-0.1,0l-0.1,0h-0.2l-0.1,0l-0.1,0l-0.2,0.1l-0.1,0.1l-0.1,0.1l-0.1,0.1l-0.1,0.1l-0.1,0.1l-0.1,0.1l-0.1,0.1
		l-0.1,0.1l-0.1,0.1l-0.1,0.1l-0.1,0.1l0,0.1l0,0.1l0,0.1l0,0.1v0.2l0,0.1l0,0.1l0,0.1l0.1,0.1l0,0.1l0.1,0l0.1,0.1l0.1,0l0.1,0
		l0.1,0h0.1l0.1,0l0.1,0l0.1,0L141.3,124.4 M147.4,90.1l0.1-0.1l0.1-0.1l0.1-0.1l0.2-0.2l0.1-0.1l0.1-0.1l0.1-0.1l0.1-0.1l0.1-0.1
		l0.1-0.1l0.1-0.1l0-0.1l0-0.1l0-0.1v-0.2l0-0.1l0-0.1l0-0.1l0-0.1l0-0.1l-0.1-0.1l-0.1,0l-0.1,0l-0.1,0h-0.1l-0.1,0l-0.1,0l-0.1,0
		l-0.1,0l-0.1,0.1l-0.1,0.1l-0.1,0.1l-0.1,0.1l-0.2,0.2l-0.1,0.1l-0.1,0.1l-0.1,0.1l-0.1,0.1l-0.1,0.3l0,0.1l0,0.1l0,0.1l0,0.1v0.2
		l0,0.1l0,0.1l0,0.1l0.1,0.1l0,0.1l0.1,0.1l0.1,0l0.1,0l0.1,0h0.2l0.1,0l0.1,0l0.1,0L147.4,90.1 M148.8,74.2l0.1-0.1l0.1-0.1
		l0.1-0.1l0.1-0.1l0.1-0.1l0.1-0.1l0.1-0.1l0.1-0.1l0.1-0.3l0.1-0.1l0-0.1l0-0.1l0-0.1l0-0.1l0-0.1l0-0.1v-0.1l0-0.1l0-0.1l0-0.1
		l-0.1-0.1l-0.1,0l-0.1-0.1l-0.1,0l-0.1,0l-0.1,0h-0.1l-0.1,0l-0.1,0l-0.1,0l-0.1,0.1l-0.1,0.1l-0.1,0.1l-0.1,0.1l-0.1,0.1l-0.1,0.1
		l-0.1,0.1l-0.1,0.1l-0.1,0.1l-0.1,0.1l-0.1,0.1l-0.1,0.1l0,0.1l-0.1,0.1l0,0.1l0,0.1l0,0.1v0.2l0,0.1l0,0.1l0,0.1l0.1,0.1l0.1,0.1
		l0.1,0.1l0.1,0l0.1,0l0.1,0h0.2l0.1,0l0.1,0l0.1,0L148.8,74.2 M144.4,108.8L144.4,108.8l0.2-0.1l0.1-0.1l0.1-0.1l0.1-0.1l0.1-0.1
		l0.1-0.1l0.1-0.1l0.1-0.1l0.1-0.1l0.1-0.1l0.1-0.1l0-0.1l0-0.1l0-0.1l0-0.1l0-0.1v-0.1l0-0.1l0-0.1l0-0.1l0-0.1l-0.1-0.1l-0.1-0.1
		l-0.1,0l-0.1,0h-0.2l-0.2,0.1l-0.1,0.1l-0.2,0.1l-0.1,0.1l-0.1,0.1l-0.1,0.1l-0.1,0.1l-0.1,0.1l-0.1,0.1l-0.1,0.1l-0.1,0.1l0,0.1
		l-0.1,0.1l-0.1,0.1l0,0.1l0,0.1l0,0.1v0.2l0,0.1l0,0.1l0,0.1l0.1,0.1l0,0.1l0.1,0.1l0.1,0l0.1,0l0.1,0l0.1,0l0.1,0l0.1,0l0.1,0
		L144.4,108.8 M136.7,152.2l0.1-0.1l0.1-0.1l0.1-0.1l0.1-0.1l0.1-0.1l0.1-0.1l0.1-0.1l0.1-0.1l0.1-0.1l0.1-0.1l0.1-0.1l0-0.1
		l0.1-0.1l0-0.1l0-0.1l0-0.1v-0.1l0-0.1l0-0.1l0-0.1l0-0.1l-0.1-0.1l-0.1-0.1l-0.1,0l-0.1,0l-0.1,0l-0.1,0h-0.1l-0.2,0l-0.1,0
		l-0.1,0l-0.2,0.1l-0.1,0.1l-0.1,0.1l-0.1,0.1l-0.1,0.1l-0.1,0.1l-0.1,0.1l-0.1,0.1l-0.1,0.1l-0.1,0.1l-0.1,0.1l-0.1,0.1l0,0.1
		l0,0.1l0,0.1v0.1l0,0.1l0,0.1l0,0.1l0,0.1l0.1,0.1l0.1,0.1l0.1,0.1l0.1,0l0.1,0l0.1,0h0.1l0.1,0l0.1,0l0.1,0L136.7,152.2
		 M149.6,58.2l0.2-0.1l0.1-0.1l0.1-0.1l0.1-0.1l0.1-0.1l0.1-0.1l0.1-0.1l0.1-0.1l0.1-0.1l0-0.1l0.1-0.1l0-0.1l0-0.1l0-0.1v-0.2
		l0-0.1l0-0.1l0-0.1l0-0.1l0-0.1l-0.1-0.1l-0.1,0l-0.1,0l-0.1,0l-0.1,0H150l-0.1,0l-0.1,0l-0.1,0l-0.1,0.1l-0.1,0.1l-0.1,0.1
		l-0.1,0.1l-0.1,0.1l-0.1,0.1l-0.1,0.1l-0.1,0.1l-0.1,0.1l-0.1,0.1l-0.1,0.1l-0.1,0.1l0,0.1l0,0.1l0,0.1l0,0.1l0,0.1v0.2l0,0.1
		l0,0.1l0,0.1l0.1,0.1l0,0.1l0.1,0.1l0.1,0l0.1,0l0.1,0l0.1,0h0.1l0.1,0l0.1,0l0.1,0L149.6,58.2 M215.4,16.3v-0.5l0-0.2l0-0.2l0-0.2
		l0-0.2l0-0.2l0-0.2l0-0.2l0-0.2l-0.1-0.2l0-0.2l-0.1-0.2l-0.1-0.2l-0.1-0.2l-0.1-0.2l-0.1-0.2l-0.1-0.2l-0.1-0.1l-0.1-0.2l-0.1-0.2
		l-0.2-0.3l-0.1-0.1l-0.1-0.1l-0.1-0.1l-0.1-0.1l-0.1-0.1l-0.1-0.1l-0.1-0.1l-0.1-0.1l-0.1-0.1l-0.2-0.1l-0.1-0.1l-0.1-0.1l-0.2-0.1
		l-0.2-0.1l-0.2-0.1l-0.1,0l-0.2,0l-0.3-0.1l-0.2,0l-0.2,0l-0.2,0h-0.4l-0.2,0l-0.4,0l-0.2,0l-0.2,0l-0.2,0l-0.2,0l-0.2,0.1
		l-0.4,0.1l-0.2,0.1l-0.2,0.1l-0.2,0.1l-0.2,0.1l-0.2,0.1l-0.2,0.1l-0.2,0.1l-0.2,0.1 M147.3,52.9l0-0.2v-0.2l0-0.2l0-0.2l0-0.2
		l0-0.2l0-0.2l0-0.2l0.1-0.2l0-0.2l0-0.2l0.1-0.2l0-0.2l0.1-0.2l0.1-0.2l0.1-0.2l0.1-0.2l0.1-0.2l0.1-0.2l0.1-0.2l0.1-0.2l0.1-0.2
		l0.1-0.2l0.1-0.2l0.1-0.2l0.1-0.2l0.1-0.2l0.1-0.2l0.1-0.2l0.1-0.2l0.1-0.2l0.1-0.2l0.1-0.2l0.1-0.2l0.1-0.2l0.1-0.2l0.1-0.2
		l0.1-0.2l0.2-0.3l0.1-0.2l0.1-0.1l0.1-0.2l0.1-0.2l0.1-0.1l0.1-0.1l0.1-0.2l0.1-0.1l0.7-0.7l0.1-0.1l0.1-0.1l0.1-0.1l0.1-0.1
		l0.2-0.1l0.1-0.1l0.1-0.1l0.2-0.1l0.1-0.1l0.1-0.1l0.2-0.1l0.1-0.1 M146.5,156.6l42.4-24.5 M215.4,16.3v4.8l0,1.5l0,1.5l0,1.5
		l-0.1,1.5l0,1.5l-0.1,1.5l-0.1,1.6l-0.1,1.5l-0.1,1.6l-0.1,1.6l-0.1,1.6l-0.1,1.6l-0.7,8.7 M214,48.3l-1.1,8.9l-0.2,1.6l-0.2,1.6
		l-0.2,1.6l-0.2,1.6l-0.2,1.6l-0.3,1.6l-0.3,1.6l-0.3,1.6l-0.3,1.6l-0.3,1.6l-0.3,1.7l-0.3,1.6l-0.3,1.6l-0.3,1.6l-0.3,1.7l-0.3,1.7
		l-0.3,1.6l-0.4,1.7l-0.4,1.7l-0.4,1.7l-0.4,1.7l-0.4,1.7l-0.4,1.7l-0.8,3.3l-0.4,1.7l-0.4,1.7l-0.4,1.7l-0.4,1.7l-0.4,1.7l-0.5,1.7
		l-0.5,1.7l-0.5,1.7l-0.5,1.7l-0.5,1.7l-0.5,1.7l-0.3,0.9 M153.6,42.2L207,11.3"/>
	<path class="st2" d="M179,86.1l1.4-0.6 M175.8,87l0.2,0.1l0.2,0l0.2,0l0.2-0.1l0.6-0.2 M175.8,84.7L175.8,84.7l-0.1,0.4l-0.1,0.3
		l-0.1,0.3l0,0.3l0,0.3l0,0.2l0.1,0.2l0.1,0.2l0.1,0.1 M182.1,80l-0.9,0.3l-0.3,0.1l-0.3,0.2l-2.6,2 M184.9,82.4l0.2-0.2l0.2-0.2
		l0.2-0.2l0.2-0.3l0.2-0.3l0.1-0.3l0.1-0.3l0.1-0.3l0-0.3v-0.2l0-0.3l-0.1-0.2L186,79l-0.1-0.1l-0.2-0.1l-0.2-0.1l-0.2,0l-0.2,0.1
		l-0.1,0 M180.4,85.6l0.3-0.1l0.4-0.2l1.4-1 M181.4,83.3c-0.3,0.6-0.9,0.9-1.2,0.7c-0.3-0.2-0.3-0.8,0-1.4c0.3-0.6,0.9-0.9,1.2-0.7
		C181.8,82.1,181.8,82.7,181.4,83.3z"/>
	<path class="st1" d="M130.1,136.3l1,0.6 M131.8,134.4l-0.6-0.4l-0.2-0.1l-0.2-0.1l-0.2,0h-0.2l-0.2,0L130,134l-0.2,0.1l-0.2,0.1
		l-0.1,0.1l-0.1,0.2l-0.1,0.2l-0.1,0.2l0,0.2l0,0.2l0,0.2l0.1,0.2l0.1,0.2l0.1,0.1l0.1,0.1l0.2,0.1l0.2,0.1 M134.3,120.4l1,0.6
		 M135.9,118.4l-0.5-0.4l-0.2-0.1l-0.2,0l-0.2,0h-0.2l-0.2,0.1l-0.2,0.1l-0.2,0.1l-0.2,0.1l-0.1,0.2l-0.1,0.2l-0.1,0.2l-0.1,0.2
		l0,0.2l0,0.2l0,0.2l0.1,0.2l0.1,0.2l0.1,0.2l0.2,0.1l0.2,0.1l0.2,0.1 M137.4,104.8l1,0.6 M138.9,102.8l-0.4-0.3l-0.2-0.1l-0.2-0.1
		l-0.2,0h-0.2l-0.2,0l-0.2,0.1l-0.2,0.1l-0.2,0.1l-0.1,0.1l-0.1,0.2l-0.1,0.2l0,0.2l0,0.2v0.2l0,0.2l0.1,0.2l0.1,0.2l0.1,0.1
		l0.2,0.1l0.2,0.1l0.2,0.1 M140.4,86.1l1,0.6 M141.7,83.9C141.7,83.9,141.7,83.9,141.7,83.9c-0.6-0.4-1.4-0.3-1.8,0.2
		c-0.4,0.6-0.3,1.4,0.3,1.8c0.1,0.1,0.2,0.1,0.3,0.2 M141.8,70.3l1.1,0.6 M143,68.1c-0.3-0.3-0.8-0.3-1.2-0.2
		c-0.7,0.2-1.1,0.9-0.9,1.6c0.1,0.4,0.4,0.7,0.8,0.9"/>
</g>
</svg>
