<?xml version="1.0" encoding="utf-8"?>
<!-- Generator: Adobe Illustrator 24.3.0, SVG Export Plug-In . SVG Version: 6.00 Build 0)  -->
<svg version="1.1" id="Ebene_1" xmlns="http://www.w3.org/2000/svg" xmlns:xlink="http://www.w3.org/1999/xlink" x="0px" y="0px"
	 viewBox="0 0 349.1 161" style="enable-background:new 0 0 349.1 161;" xml:space="preserve">
<style type="text/css">
	.st0{fill:#D7EBFF;stroke:#0099FF;stroke-width:0.75;stroke-miterlimit:10;}
	.st1{fill:#999999;}
	.st2{fill:#FF9900;}
	.st3{fill:#0099FF;}
	.st4{fill:#00CC00;}
	.st5{fill:#CCCCCC;}
	.st6{fill:none;stroke:#1D1D1C;stroke-width:0.5;stroke-miterlimit:5;}
	.st7{fill:none;stroke:#000000;stroke-width:0.5;stroke-miterlimit:5;}
	.st8{fill:none;stroke:#FFFFFF;stroke-width:0.25;stroke-miterlimit:5;}
	.st9{fill:none;stroke:#FF0000;stroke-width:2;stroke-linecap:round;stroke-linejoin:round;}
	.st10{fill:#0099FF;fill-opacity:0.2;}
	.st11{fill:#FF0000;}
	.st12{font-family:'ArialMT';}
	.st13{font-size:14px;}
</style>
<path class="st0" d="M341.5,44.5h-76.8c-2,0-3.8-1.8-3.8-4.1V7.7c0-2.2,1.7-4.1,3.8-4.1h76.8c2,0,3.8,1.8,3.8,4.1v32.7
	C345.3,42.7,343.5,44.5,341.5,44.5z"/>
<path class="st0" d="M88.6,47.3H8.1c-2.1,0-4-1.7-4-4V11.7c0-2.1,1.7-4,4-4h80.5c2.1,0,4,1.7,4,4v31.7
	C92.5,45.6,90.7,47.3,88.6,47.3z"/>
<path class="st0" d="M68.3,136.5H13.4c-2.1,0-3.9-2-3.9-4.5V96.3c0-2.4,1.7-4.5,3.9-4.5h54.9c2.1,0,3.9,2,3.9,4.5V132
	C72.3,134.5,70.5,136.5,68.3,136.5z"/>
<path class="st1" d="M188.9,145.6L188.9,145.6L188.9,145.6L188.9,145.6 M193.2,135.7l-7.8-4.4l-10.9,6.3l0.5,0.2l13.9,7.9v-0.1
	c0.4,0.1,0.8,0.1,1.1-0.1c0.4-0.1,0.6-0.2,0.6-0.3l3.4-1.8l-5.3-3.1v-1.5h0.1v-0.1h0v-0.1l0.1,0v-0.2l0,0v-0.1h0.1l0,0v-0.1l0.2,0
	l0.2-0.3L193.2,135.7 M142.2,142.6L142.2,142.6l-4.1,2.4c-0.1,0-0.1,0.1-0.2,0.1c-0.2,0.1-0.4,0.3-0.6,0.5l-0.2,0.3l-0.1,0
	c0,0-0.1,0-0.1,0c-0.5,0-0.9,0.2-1.3,0.5c-0.1,0.1-0.1,0.1-0.2,0.2l-4.8,4.1h0c-0.5,0.4-0.8,0.9-0.8,1.6v0.8c0,0.8,0.3,1.6,0.7,2.5
	c0.4,0.8,1,1.5,1.6,2.1l1,0.8l0.6,0.3l0.3,0c0.3,0.1,0.6,0.2,0.8,0.1c0.1,0,0.1,0,0.2,0l6.7-1.8c0.5-0.3,0.9-0.6,1.2-1h0.4l0.3-0.2
	c0.1,0,0.2-0.1,0.3-0.1l3.9-2.3h0c0.1,0,0.2-0.1,0.3-0.1c0.9-0.6,1.3-1.5,1.3-2.8c0-0.8-0.1-1.6-0.4-2.4l0.4,0.3
	c1.2,0.8,2.2,0.9,2.8,0.4l1.1-0.6l0.1-0.1c0.5-0.5,0.7-1.1,0.8-1.9l3.3,1.9l4.3-2.5l1.6-3.1l-1.7-0.9l-9.1-5.2l0,4.4l-0.8,0.4
	c-0.3-0.3-0.6-0.5-0.9-0.7c-0.9-0.6-1.7-0.7-2.5-0.3l-0.8,0.4c0,0-0.1,0-0.1,0c-0.8,0.3-1.2,1.1-1.1,2.6l0.1,0.7
	c-0.4-0.4-0.8-0.7-1.2-1C144.4,142.2,143.2,142.1,142.2,142.6 M133.5,133.8c0.3,0.4,0.6,0.7,1,1l8.1,4.6c0.2,0.1,0.4,0.2,0.7,0.2
	c0.2,0,0.4,0,0.7-0.1c0.1,0,0.1-0.1,0.1-0.1h0.1l1.5-1.6v-5.5l-12.4-7.2l0,7.4C133.1,132.9,133.3,133.4,133.5,133.8 M107.4,127.4
	L107.4,127.4c-0.3,0.1-0.5,0.3-0.6,0.5l-0.3,0.4c0,0-0.1,0-0.1,0c-0.5,0-0.9,0.2-1.3,0.5c0,0-0.1,0.1-0.1,0.1h0L100,133
	c-0.4,0.4-0.7,1-0.8,1.7v0.7c0,0.7,0.3,1.5,0.8,2.5c0.4,0.9,0.9,1.6,1.5,2.1l0.4,0.3l1.2,0.7h0.3c0.3,0.1,0.6,0.2,0.9,0.1
	c0.1,0,0.1-0.1,0.2-0.1l6.7-1.7l0.3-0.2c0.3-0.2,0.6-0.5,0.8-0.8h0.4l0.3-0.2c0.1,0,0.2-0.1,0.3-0.1l4-2.4c0.1,0,0.1-0.1,0.2-0.1
	c0.9-0.6,1.3-1.5,1.3-2.8c0-0.8-0.1-1.6-0.4-2.4l0.5,0.4c1.3,0.8,2.2,0.9,2.8,0.3l1.1-0.7c0.5-0.5,0.8-1.1,0.8-1.9l3.3,1.9l4.3-2.5
	l1.5-3.1l-10.7-6.2l-0.1,4.4l-0.8,0.4c-0.3-0.3-0.6-0.5-0.9-0.8c-0.9-0.5-1.8-0.6-2.5-0.2l-0.7,0.4c-0.1,0-0.1,0-0.2,0.1
	c-0.8,0.3-1.2,1.1-1.1,2.6l0.1,0.8c-0.4-0.4-0.8-0.7-1.2-1c-1.3-0.8-2.4-1-3.4-0.5L107.4,127.4 M133.4,100.8l-10-5.8l-3.3,2
	l-1.5,1.6v3.4v3.1l4.1,2.4L133.4,100.8 M143.3,78.9h-0.1c-0.2,0-0.4,0.1-0.6,0.2c0,0-0.1,0-0.1,0l-0.1,0c-0.1,0.1-0.1,0.1-0.2,0.2
	c-0.1,0.1-0.1,0.1-0.1,0.1c-0.1,0.1-0.2,0.2-0.2,0.3c-0.1,0.1-0.1,0.1-0.2,0.1h0v0.1l-0.5,0.3c0.1,0.3,0.3,0.7,0.4,1.2
	c0.1,0.9,0,1.9-0.2,2.9c-0.1,0.5-0.2,1-0.4,1.5c-0.1,0.1-0.1,0.3-0.1,0.5l-0.4,0.9c-0.1,0.2-0.2,0.3-0.3,0.5l5.6-3.2l0.4-0.5
	l0.1-0.2v-3c0-0.3-0.1-0.6-0.5-0.9c-0.3-0.3-0.8-0.5-1.4-0.5v0h-0.1l0-0.1c0,0-0.1-0.1-0.2-0.1l0,0l-0.1-0.1h-0.1v0h-0.1
	c0,0-0.1-0.1-0.1-0.1C143.7,78.9,143.5,78.9,143.3,78.9 M129.5,72.4c-0.5,0.1-1,0.4-1.5,0.7c-2.2,1.3-4,3.2-5.5,5.9
	c-1.5,2.6-2.3,5.2-2.3,7.7c0,0.6,0.1,1.2,0.2,1.8c0.3,1.5,1,2.6,2.1,3.3l0.2,0l3.1,1.9c1.1,0.6,2.3,0.6,3.8,0.1l-2.9-1.8
	c-1.3-0.7-1.9-2.1-1.9-4.2c0-2.1,0.6-4.2,1.9-6.4c1.3-2.2,2.8-3.8,4.6-4.8c1.8-1.1,3.4-1.2,4.6-0.5l3,1.8c-0.3-1.6-1-2.7-2-3.4h0
	l-3.3-1.9C132.3,71.9,131,71.8,129.5,72.4 M113.7,73.9c1.3-2.2,2.8-3.9,4.6-4.9c1.8-1,3.3-1.2,4.6-0.5l0.1,0.1l3,1.7
	c-0.3-1.6-1-2.7-2.1-3.3l-3.2-2c-1.3-0.7-2.7-0.7-4.3,0c-0.4,0.2-0.8,0.4-1.2,0.6c-2.1,1.3-3.9,3.2-5.4,5.8
	c-1.5,2.6-2.3,5.2-2.3,7.7c0,0.4,0,0.9,0.1,1.3c0.3,1.8,1,3,2.2,3.7l3,1.9c0.1,0,0.1,0,0.2,0v0.1h0c1.1,0.6,2.4,0.7,3.9,0.2
	l-2.9-1.8l-0.1,0c-1.3-0.8-1.9-2.2-1.9-4.2C111.8,78.2,112.4,76.1,113.7,73.9z"/>
<path class="st2" d="M141.6,81.4c-0.1-0.5-0.2-0.9-0.4-1.2c-0.3-0.9-0.8-1.5-1.5-1.9l-0.9-0.5l-3-1.8c-1.3-0.7-2.8-0.6-4.6,0.5
	c-1.8,1-3.3,2.7-4.6,4.8c-1.3,2.2-1.9,4.4-1.9,6.4c0,2.1,0.6,3.5,1.9,4.2l2.9,1.8l0.6,0.3c0.1,0.1,0.3,0.1,0.4,0.2v0
	c1.3,0.7,2.8,0.5,4.6-0.5c1.8-1,3.4-2.6,4.6-4.8c0.2-0.3,0.4-0.7,0.6-1.2c0.1-0.1,0.1-0.3,0.3-0.5l0.4-0.9c0-0.2,0.1-0.4,0.1-0.5
	c0.2-0.5,0.3-1,0.4-1.5C141.6,83.2,141.7,82.2,141.6,81.4 M118.3,69c-1.8,1-3.4,2.7-4.6,4.9c-1.3,2.2-1.9,4.3-1.9,6.4
	c0,2.1,0.6,3.5,1.9,4.2l0.1,0l2.9,1.8l3.6,2.1c-0.1-0.5-0.2-1.1-0.2-1.8c0-2.5,0.8-5,2.3-7.7c1.5-2.6,3.3-4.6,5.5-5.9
	c0.5-0.3,1-0.5,1.5-0.7l-3.6-2.1l-3-1.7l-0.1-0.1C121.6,67.8,120.1,67.9,118.3,69 M112.1,66.5c-0.7,0.5-1.3,1-1.9,1.7
	c-0.7,0.8-1.3,1.6-1.9,2.6c-1,1.8-1.6,3.7-1.8,5.5c-0.2,1.8,0.1,3.2,0.8,4.2c-0.1-0.4-0.1-0.8-0.1-1.3c0-2.5,0.8-5.1,2.3-7.7
	c1.5-2.6,3.3-4.5,5.4-5.8c0.4-0.3,0.8-0.5,1.2-0.6c-0.1,0-0.3,0-0.5,0C114.6,65,113.4,65.5,112.1,66.5z"/>
<path class="st3" d="M181.4,32.4c-0.1-0.1-0.1-0.1-0.3-0.1l-0.3-0.2l-0.7,0.2l-0.4,0.4l-0.2,0.3V33c0,0,0,0.1,0,0.1
	c0,0.1,0,0.1,0,0.2v0.4l-1.5-0.8l-1.7,0.9h-0.7l-0.7,0.5l0,0.1l1.5,12.6v0.9l0.1,0.1l1.4,0.7c0.1,0,0.1,0.1,0.2,0.1
	c0.1,0.1,0.3,0.1,0.6,0l0.3,0l0.4-0.2l0.1,0.2V49l0,0.2v0.1l0.3,0.4l0.1,0.1l3.1,1.7c0.1,0.1,0.3,0.1,0.5,0.1l0.3-0.1l2.8-1.6
	l0.3-0.6l-0.1-1l-0.8-0.9l0.3-0.2v-0.5l0.9,0.5l0.8-0.4l0,0l0-2.7l-0.5-0.2l0.5-0.4h0l0-2.6l-1.7-1v-2.2l-4.2-2.5l0.1-0.4l-0.1-0.5
	l0.1-0.4l-0.1-1L181.4,32.4z"/>
<path class="st4" d="M173,21c0.3-0.8,0.5-1.5,0.5-2.3c0-2.5-1.5-4.6-4.6-6.4c-3.1-1.7-6.8-2.6-11.1-2.6c-4.4,0-8.1,0.9-11.1,2.6
	c-3.1,1.8-4.6,3.9-4.6,6.4c0,1,0.2,1.9,0.7,2.7l-3.6,25.8c-0.1,0.3-0.1,0.6-0.1,0.9c0,0.3,0,0.6,0.1,0.9l0,1.3l0.3,0.8l-0.1,0.3
	l-0.2,0.1l0,2.5c0,0.2,0,0.3,0,0.5c0.1,1.1,0.4,2.2,1.1,3.2v8.1c0,0.2,0.1,0.4,0.4,0.5c0.2,0.1,0.5,0.2,0.8,0.2
	c0.3,0,0.6-0.1,0.8-0.2c0.2-0.1,0.3-0.2,0.3-0.4c0,0.1,0,0.3,0.1,0.4c0.1,0.3,0.2,0.8,0.5,1.4l0.2,0.6l0.9,1.4c1,1.2,2.5,2.2,4.3,3
	c1.6,0.7,3.2,1.2,5.1,1.4l2.5,0.3v0.7c0,0.2,0.1,0.4,0.4,0.5c0.2,0.1,0.5,0.2,0.8,0.2c0.3,0,0.5-0.1,0.8-0.2
	c0.3-0.1,0.4-0.3,0.4-0.5v-0.7l2.6-0.2c2.3-0.3,4.4-0.9,6.3-1.7c2.3-1.1,3.9-2.4,5-4.1l0.6-1.5l0.1-1.4c0.1,0.2,0.2,0.3,0.4,0.4
	c0.3,0.1,0.5,0.2,0.8,0.2c0.3,0,0.6-0.1,0.8-0.2c0.2-0.1,0.3-0.3,0.3-0.4v-7.9c0.6-1,1-2,1-3.1c0-0.2,0-0.4,0-0.6l0-5
	c0-0.1,0-0.3,0-0.4c0-0.1,0-0.3,0-0.5l-0.1-0.1V47l-1.5-12.6l-0.1,0.1L173,21z"/>
<path class="st5" d="M254.7,39V28.2L210.3,2.5l-5.2,3v9.1l-1.4,0.8l-14.1,32.4l-1.6-1l-0.8,0.4l-0.9-0.5v0.5l-0.3,0.2l0.8,0.9l0.1,1
	l-0.3,0.6l-2.8,1.6l-0.3,0.1c-0.2,0-0.4,0-0.5-0.1l-3.1-1.7l-0.1-0.1l-0.3-0.4v-0.1l0-0.2v-0.2l-0.1-0.2l-0.4,0.2l-0.3,0
	c-0.3,0.1-0.4,0.1-0.6,0c-0.1,0-0.1,0-0.2-0.1l-1.4-0.7c0,0.2,0,0.4,0,0.5c0,0.1,0,0.3,0,0.4l0,5c0,0.2,0,0.4,0,0.6
	c-0.1,1.1-0.4,2.1-1,3.1v7.9c0,0.2-0.1,0.3-0.3,0.4c-0.2,0.1-0.5,0.2-0.8,0.2c-0.3,0-0.6-0.1-0.8-0.2c-0.2-0.1-0.3-0.3-0.4-0.4
	l-0.1,1.4l-0.6,1.5c-1,1.7-2.7,3-5,4.1c-1.9,0.8-4,1.4-6.3,1.7l-2.6,0.2v0.7c0,0.2-0.1,0.3-0.4,0.5c-0.2,0.1-0.5,0.2-0.8,0.2
	c-0.3,0-0.6-0.1-0.8-0.2c-0.3-0.1-0.4-0.3-0.4-0.5v-0.7l-2.5-0.3c-1.8-0.3-3.5-0.8-5.1-1.4c-1.8-0.8-3.3-1.8-4.3-3l-0.9-1.4
	l-0.2-0.6c-0.2-0.6-0.4-1-0.5-1.4c-0.1-0.1-0.1-0.3-0.1-0.4c0,0.1-0.2,0.3-0.3,0.4c-0.2,0.1-0.5,0.2-0.8,0.2c-0.3,0-0.6-0.1-0.8-0.2
	c-0.3-0.1-0.4-0.3-0.4-0.5v-8.1c-0.6-1-1-2.1-1.1-3.2c0-0.1,0-0.3,0-0.5l0-2.5L115.7,65c0.2,0,0.4,0,0.5,0c1.6-0.7,3.1-0.7,4.3,0
	l3.2,2c1.1,0.6,1.8,1.7,2.1,3.3l3.6,2.1c1.5-0.5,2.8-0.5,3.9,0.1l3.3,1.9h0c1,0.7,1.7,1.8,2,3.4l0.9,0.5c0.7,0.4,1.2,1,1.5,1.9
	l0.5-0.3v-0.1h0c0,0,0.1-0.1,0.2-0.1c0-0.1,0.1-0.1,0.2-0.3c0,0,0.1-0.1,0.1-0.1c0.1,0,0.1-0.1,0.2-0.2l0.1,0c0.1,0,0.1,0,0.1,0
	c0.2-0.1,0.4-0.2,0.6-0.2h0.1c0.2,0,0.3,0,0.5,0.1c0,0,0.1,0,0.1,0.1h0.1v0h0.1l0.1,0.1l0,0c0.1,0,0.1,0.1,0.2,0.1l0,0.1h0.1v0
	c0.6,0.1,1,0.2,1.4,0.5c0.4,0.3,0.5,0.5,0.5,0.9v3l-0.1,0.2l-0.4,0.5l-5.6,3.2c-0.2,0.5-0.4,0.9-0.6,1.2c-1.3,2.2-2.8,3.8-4.6,4.8
	c-1.8,1-3.3,1.2-4.6,0.5v0c-0.2,0-0.3-0.1-0.4-0.2l-0.6-0.3c-1.5,0.5-2.7,0.5-3.8-0.1l-3.1-1.9l-0.2,0c-1.1-0.7-1.8-1.8-2.1-3.3
	l-3.6-2.1c-1.5,0.5-2.8,0.4-3.9-0.2h0V86c-0.1,0-0.1,0-0.2,0l-3-1.9c-1.2-0.7-2-1.9-2.2-3.7c-0.7-1-1-2.4-0.8-4.2
	c0.2-1.8,0.8-3.7,1.8-5.5c0.6-1,1.2-1.8,1.9-2.6l-14.1,8.1c-0.5,0.3-0.9,0.7-1.2,1.2c-0.3,0.4-0.4,0.9-0.4,1.4c0,0.1,0,0.1,0,0.2
	v1.7c0,0.6,0.1,1.2,0.4,1.7c0.3,0.4,0.6,0.7,0.9,1v3.8c0.1,1,0.5,1.7,1.3,2.3l0.3,0.2l21,12.1v-3.4L120,97l3.3-2l10,5.8l-10.8,6.7
	l-2.7,1.7c-0.4,0.3-0.8,0.8-1.1,1.4c-0.3,0.5-0.5,1.1-0.5,1.7v3.1c0,0.3,0.1,0.6,0.3,0.9v0.1l0,0.1c0,0.1,0.1,0.1,0.1,0.1l0.6,0.5
	l3,1.8L133,125l0.2,0.1l12.4,7.2l7.3,4.1l9.1,5.2l3.2,1.4l0-0.1l9.3-5.3l10.9-6.3l70.8-40.9V39.8L254.7,39 M252,64.5
	c0-0.3,0.2-0.6,0.3-1c0.2-0.3,0.4-0.6,0.7-0.8c0,0.6-0.3,1.1-0.8,1.5L252,64.5 M253.2,86.4c0,0.3-0.1,0.6-0.3,0.8
	c-0.1,0.3-0.3,0.6-0.5,0.7l-0.3,0.1c0-0.3,0.2-0.6,0.3-0.9C252.8,86.8,253,86.6,253.2,86.4 M196.9,50.3c-0.2-0.3-0.3-0.7-0.3-1.3
	c0-0.9,0.3-1.9,0.8-3c0.6-1,1.3-1.7,2.1-2.1c0.5-0.3,1-0.5,1.4-0.5v0.2c0.2,0.5,0.3,1.1,0.2,1.9c-0.1,0.8-0.4,1.5-0.8,2.2
	c-0.4,0.7-0.9,1.3-1.5,1.8c-0.6,0.5-1.1,0.7-1.6,0.8H196.9 M225.8,24.6l1.6-0.8v1.8l11.4,6.5c0.7,0.4,1.2,1,1.5,1.9
	c0.3,0.7,0.4,1.4,0.4,2v26.2l-3.6,8.5l-4.2-2.4c-5.3-3.1-9.4-5.4-12-6.9l-2.8-1.6c-0.1,0.1-0.4,0.2-0.9,0.3V19.7L225.8,24.6
	 M234.1,71.5l0.6-0.3l0,0.2L234.1,71.5 M225.1,93.9c0.6,0.4,0.9,0.8,0.9,1.4c0,0.5-0.3,1-0.9,1.3c-0.6,0.4-1.4,0.5-2.3,0.5
	c-0.9,0-1.7-0.2-2.3-0.5c-0.7-0.3-1-0.8-1-1.3c0-0.5,0.3-1,1-1.4c0.2-0.1,0.3-0.2,0.4-0.2c0.6-0.3,1.2-0.4,1.9-0.4
	C223.7,93.4,224.5,93.6,225.1,93.9 M212.2,87.4c0.3,0,0.7,0,1,0.1c0.5,0.1,0.9,0.3,1.3,0.5c0.7,0.4,1,0.8,1,1.4c0,0.5-0.3,0.9-1,1.3
	c-0.6,0.4-1.4,0.6-2.3,0.6c-0.9,0-1.6-0.2-2.3-0.6c-0.6-0.4-0.9-0.8-0.9-1.3c0-0.5,0.3-1,0.9-1.4c0.3-0.1,0.6-0.3,0.9-0.3
	C211.3,87.5,211.7,87.4,212.2,87.4 M199.1,83.7c0-0.5,0.3-1,0.9-1.4c0.7-0.3,1.4-0.5,2.3-0.5s1.6,0.2,2.3,0.5
	c0.6,0.4,0.9,0.8,0.9,1.4c0,0.5-0.3,1-0.9,1.3c-0.7,0.3-1.4,0.5-2.3,0.5c-0.9,0-1.7-0.2-2.3-0.5C199.4,84.7,199.1,84.2,199.1,83.7
	 M208.2,97.1c0-0.5,0.3-0.9,0.9-1.3c0.1-0.1,0.3-0.1,0.5-0.2c0.5-0.3,1.1-0.4,1.8-0.4c0.5,0,0.9,0.1,1.3,0.2c0.4,0.1,0.7,0.2,1,0.4
	c0.6,0.4,0.9,0.8,0.9,1.3c0,0.5-0.3,1-0.9,1.4c-0.7,0.4-1.4,0.6-2.3,0.6s-1.6-0.2-2.3-0.6C208.5,98.1,208.2,97.6,208.2,97.1
	 M199.8,95.8c0.2,0.1,0.4,0.2,0.6,0.3c0.6,0.4,0.9,0.8,0.9,1.4c0,0.5-0.3,0.9-0.9,1.3c-0.6,0.4-1.4,0.6-2.3,0.6s-1.7-0.2-2.3-0.6
	c-0.7-0.4-1-0.8-1-1.3c0-0.5,0.3-1,1-1.4c0.1-0.1,0.2-0.1,0.4-0.2c0.6-0.3,1.2-0.4,1.9-0.4C198.8,95.6,199.3,95.7,199.8,95.8
	 M203.7,90c0.6,0.4,0.9,0.8,0.9,1.4c0,0.5-0.3,1-0.9,1.4c-0.7,0.3-1.4,0.5-2.3,0.5c-0.9,0-1.7-0.2-2.3-0.5c-0.7-0.4-1-0.8-1-1.4
	c0-0.5,0.3-1,1-1.4c0.6-0.4,1.4-0.5,2.3-0.5C202.3,89.4,203.1,89.6,203.7,90 M199,103.5c0.3,0.1,0.5,0.2,0.7,0.3
	c0.6,0.4,0.9,0.8,0.9,1.4c0,0.5-0.3,0.9-0.9,1.3c-0.6,0.4-1.4,0.6-2.3,0.6c-0.9,0-1.7-0.2-2.3-0.6c-0.6-0.4-0.9-0.8-0.9-1.3
	c0-0.5,0.3-1,0.9-1.4c0.2-0.1,0.5-0.2,0.8-0.3c0.5-0.1,1-0.2,1.5-0.2C198,103.3,198.5,103.4,199,103.5 M206.4,104.9
	c-0.7-0.3-1-0.8-1-1.3c0-0.5,0.3-0.9,1-1.3c0.6-0.4,1.4-0.6,2.3-0.6c0.9,0,1.7,0.2,2.3,0.6c0.7,0.4,1,0.8,1,1.3c0,0.5-0.3,1-1,1.3
	c-0.6,0.4-1.4,0.6-2.3,0.6C207.8,105.4,207,105.2,206.4,104.9 M175.1,98.2c0.9,0,1.7,0.2,2.4,0.6c0.6,0.4,0.9,0.8,0.9,1.3
	c0,0.5-0.3,1-0.9,1.3c-0.7,0.4-1.4,0.6-2.4,0.6c-0.9,0-1.6-0.2-2.3-0.6c-0.6-0.3-0.9-0.8-0.9-1.3c0-0.5,0.3-0.9,0.9-1.3
	C173.5,98.4,174.3,98.2,175.1,98.2 M184.8,104c0.1,0,0.2-0.1,0.3-0.1h0.1c0.1,0,0.3,0,0.5,0.1c0.1,0,0.2,0,0.3,0
	c0.6,0.1,1.1,0.2,1.6,0.5c0.6,0.4,0.9,0.8,0.9,1.3c0,0.5-0.3,1-0.9,1.4c-0.7,0.4-1.4,0.6-2.4,0.6c-0.9,0-1.7-0.2-2.3-0.6
	c-0.6-0.4-0.9-0.8-0.9-1.4c0-0.5,0.3-0.9,0.9-1.3C183.4,104.2,184,104,184.8,104 M184.1,99.4c0-0.5,0.3-1,0.9-1.3
	c0.3-0.2,0.7-0.3,1-0.4c0.4-0.1,0.8-0.1,1.3-0.1c0.6,0,1.1,0.1,1.6,0.2c0.3,0.1,0.5,0.2,0.7,0.3c0.6,0.4,0.9,0.8,0.9,1.3
	c0,0.5-0.3,1-0.9,1.4c-0.6,0.3-1.4,0.5-2.3,0.5c-0.9,0-1.7-0.2-2.4-0.5C184.4,100.4,184.1,99.9,184.1,99.4 M190.6,93.1
	c-0.7,0.4-1.4,0.6-2.3,0.6c-0.9,0-1.7-0.2-2.3-0.6c-0.7-0.4-1-0.8-1-1.4c0-0.5,0.3-0.9,1-1.3c0.6-0.4,1.4-0.6,2.3-0.6
	c0.9,0,1.6,0.2,2.3,0.6c0.6,0.4,0.9,0.8,0.9,1.3C191.5,92.3,191.2,92.7,190.6,93.1 M197.7,110.2c0.1,0.1,0.2,0.1,0.3,0.2
	c0.6,0.4,0.9,0.8,0.9,1.3c0,0.5-0.3,1-0.9,1.3c-0.6,0.4-1.4,0.6-2.2,0.6c-0.9,0-1.7-0.2-2.4-0.6c-0.7-0.3-1-0.8-1-1.3
	c0-0.5,0.3-0.9,1-1.3c0.3-0.2,0.7-0.3,1.1-0.4c0.4-0.1,0.8-0.2,1.3-0.2C196.4,109.9,197.1,110,197.7,110.2z"/>
<path id="Layer4_3_MEMBER_0_1_STROKES" class="st6" d="M188.8,140.2l5.3,3.1"/>
<path id="Layer4_3_MEMBER_1_1_STROKES" class="st6" d="M165.9,141.8v-2.4"/>
<path id="Layer4_3_MEMBER_2_1_STROKES" class="st6" d="M210.1,110.1l13.1-8.4"/>
<path id="Layer4_3_MEMBER_3_1_STROKES" class="st6" d="M167.5,136.4l42.6-26.3"/>
<path id="Layer4_3_MEMBER_4_1_STROKES" class="st6" d="M246,55l5.4-12.4l5.2-3v50.7"/>
<path id="Layer4_3_MEMBER_5_1_STROKES" class="st6" d="M228.4,95.4L246,55"/>
<path id="Layer4_3_MEMBER_6_1_STROKES" class="st6" d="M256.5,90.3l-90.9,52.5"/>
<path id="Layer4_3_MEMBER_7_1_STROKES" class="st6" d="M165.9,139.3c0-0.7,0.3-1.3,0.7-2l0,0l0-0.1c0.3-0.3,0.6-0.6,0.9-0.8"/>
<path id="Layer4_3_MEMBER_8_1_STROKES" class="st6" d="M228.4,95.4l-0.1,0.1c-1.2,2.7-2.9,4.7-5,6.2"/>
<path id="Layer4_3_MEMBER_9_1_STROKES" class="st6" d="M164.4,142.7l-44.8-25.9"/>
<path id="Layer4_3_MEMBER_10_1_STROKES" class="st6" d="M220.3,60.7l0.9,0.5c2.7,1.5,6.7,3.8,12,6.9l4.2,2.4"/>
<path id="Layer4_3_MEMBER_11_1_STROKES" class="st6" d="M118.6,115.1V112"/>
<path id="Layer4_3_MEMBER_12_1_STROKES" class="st6" d="M120.2,109l55.7-34.6"/>
<path id="Layer4_3_MEMBER_13_1_STROKES" class="st6" d="M181.1,68.1l23-52.8l1.5-0.8"/>
<path id="Layer4_3_MEMBER_14_1_STROKES" class="st6" d="M118.6,112c0-0.5,0.2-1.1,0.5-1.6c0.3-0.6,0.7-1,1.2-1.3"/>
<path id="Layer4_3_MEMBER_15_1_STROKES" class="st6" d="M181.1,68.1l-0.1,0.1c-1.2,2.7-2.8,4.7-5,6.2l-0.1,0.1"/>
<path id="Layer4_3_MEMBER_16_1_STROKES" class="st6" d="M203.3,67.7l-5.2,2.9c-10.2,5.8-30,17.2-59.6,34.2l-15.7,9"/>
<path id="Layer4_3_MEMBER_17_1_STROKES" class="st6" d="M164.5,138.6v1.7"/>
<path id="Layer4_3_MEMBER_18_1_STROKES" class="st6" d="M215.5,104.9l6.3-4"/>
<path id="Layer4_3_MEMBER_19_1_STROKES" class="st6" d="M166.2,135.5l49.3-30.5"/>
<path id="Layer4_3_MEMBER_20_1_STROKES" class="st6" d="M255.1,38.8l-5.2,3"/>
<path id="Layer4_3_MEMBER_21_1_STROKES" class="st6" d="M226.9,94.6l23-52.8"/>
<path id="Layer4_3_MEMBER_22_1_STROKES" class="st6" d="M164.5,138.4c0-0.5,0.2-1,0.5-1.5l0,0l0-0.1l0,0l0.4-0.6l0-0.1l0.1,0
	l0.2-0.2l0-0.1l0.1,0l0.2-0.2"/>
<path id="Layer4_3_MEMBER_23_1_STROKES" class="st6" d="M226.9,94.7c-1.2,2.7-2.9,4.8-5,6.2"/>
<path id="Layer4_3_MEMBER_24_1_STROKES" class="st6" d="M120.1,112.7v1.9"/>
<path id="Layer4_3_MEMBER_25_1_STROKES" class="st6" d="M121.7,109.9l55.7-34.6"/>
<path id="Layer4_3_MEMBER_26_1_STROKES" class="st6" d="M182.5,68.9l23-52.8"/>
<path id="Layer4_3_MEMBER_27_1_STROKES" class="st6" d="M120.1,112.9v-0.1l0-0.1v-0.2l0,0v-0.1l0-0.1v-0.1l0-0.1v-0.1l0-0.1V112
	c0.2-0.4,0.3-0.7,0.3-0.7v-0.1l0,0l0-0.1c0.3-0.5,0.6-0.9,1.1-1.2"/>
<path id="Layer4_3_MEMBER_28_1_STROKES" class="st6" d="M182.5,68.9l-0.1,0.1c-1.2,2.8-2.9,4.8-5,6.2"/>
<path id="Layer4_3_MEMBER_29_1_STROKES" class="st6" d="M218.4,59.6c-0.1,0.1-0.4,0.2-0.8,0.3"/>
<path id="Layer4_3_MEMBER_30_1_STROKES" class="st6" d="M256.5,39.6l-1.5-0.9"/>
<path id="Layer4_3_MEMBER_31_1_STROKES" class="st6" d="M251.4,42.6l-1.5-0.8"/>
<path id="Layer4_3_MEMBER_32_1_STROKES" class="st6" d="M205.5,16.1l-1.5-0.8"/>
<path id="Layer4_3_MEMBER_33_1_STROKES" class="st6" d="M120.5,115.6l-0.1-0.1v0l0,0h0c0-0.1-0.1-0.1-0.1-0.1v0l-0.1-0.1v-0.1h0v0
	l0,0v0l0,0v-0.1l0,0v-0.1"/>
<path id="Layer4_3_MEMBER_34_1_STROKES" class="st6" d="M119.5,116.8l-0.3-0.2l-0.1-0.1v0l-0.1,0v0l-0.1-0.1v0c0,0-0.1,0-0.1-0.1
	l0,0v0l0,0v0c-0.2-0.3-0.3-0.6-0.3-0.9"/>
<path id="Layer4_3_MEMBER_35_1_STROKES" class="st6" d="M164.4,140.6L164.4,140.6L164.4,140.6L164.4,140.6L164.4,140.6l-0.1,0.1h0v0
	h0v0h-0.1v0h0l-0.1,0H164v0H164l0,0h-0.1"/>
<path id="Layer4_3_MEMBER_36_1_STROKES" class="st6" d="M165.9,141.8v0.1c0,0.1,0,0.2-0.1,0.5l0,0v0.1l-0.1,0.1h0v0.1l0,0h0v0.1h0
	l-0.1,0.1h0l0,0.1h0l0,0h0l0,0c-0.2,0.1-0.3,0.1-0.4,0.1h-0.1l0,0h-0.1l0,0h-0.1l-0.1-0.1l-0.1,0l0,0"/>
<path id="Layer4_3_MEMBER_37_1_STROKES" class="st6" d="M217.5,53.9h0.2v0h0.1l0,0h0.2l0,0h0.1"/>
<path id="Layer4_3_MEMBER_38_1_STROKES" class="st6" d="M217.6,55.5h0.2l0,0h0.2l0,0h0.1v0"/>
<path id="Layer4_3_MEMBER_39_1_STROKES" class="st6" d="M217.7,62.4c0.6-0.3,1.3-0.4,1.9-0.3c0.6,0.1,0.9,0.3,1.2,0.7
	c0.3,0.4,0.2,0.7-0.1,0.9c-0.4,0.3-1,0.5-2,0.5h-0.2"/>
<path id="Layer4_3_MEMBER_40_1_STROKES" class="st6" d="M153.2,136.3v4.3"/>
<path id="Layer4_3_MEMBER_41_1_STROKES" class="st6" d="M158.1,139.1v8.9l4.4-2.5"/>
<path id="Layer4_3_MEMBER_42_1_STROKES" class="st6" d="M163.9,142.5l-1.5,3"/>
<path id="Layer4_3_MEMBER_43_1_STROKES" class="st6" d="M160.8,144.8c-0.3,0.8-0.7,1.2-1.3,1.2c-0.6,0-0.7-0.5-0.3-1.5"/>
<path id="Layer4_3_MEMBER_44_1_STROKES" class="st6" d="M149.1,140.1c0.8-0.4,1.6-0.3,2.4,0.3c0.8,0.5,1.5,1.3,2.1,2.3
	c0.6,1,1,2,1.1,3c0.1,1.1-0.1,1.9-0.8,2.4l-0.2,0.1"/>
<path id="Layer4_3_MEMBER_45_1_STROKES" class="st6" d="M132.4,152.7c0.7-0.2,1.4,0.2,2,1.2c0.6,1,0.7,1.8,0.2,2.4"/>
<path id="Layer4_3_MEMBER_46_1_STROKES" class="st6" d="M149.1,143l-1.8,1"/>
<path id="Layer4_3_MEMBER_47_1_STROKES" class="st6" d="M154.5,139.9l-2,1.2"/>
<path id="Layer4_3_MEMBER_48_1_STROKES" class="st6" d="M154.6,144.8l1.6-0.9"/>
<path id="Layer4_3_MEMBER_49_1_STROKES" class="st6" d="M149.5,147.7l1.9-1.1"/>
<path id="Layer4_3_MEMBER_50_1_STROKES" class="st6" d="M153.9,148.1l-1.1,0.6"/>
<path id="Layer4_3_MEMBER_51_1_STROKES" class="st6" d="M148.2,140.6l0.9-0.5"/>
<path id="Layer4_3_MEMBER_52_1_STROKES" class="st6" d="M158.1,148l-3.3-1.9"/>
<path id="Layer4_3_MEMBER_53_1_STROKES" class="st6" d="M154.5,139.9c0.7-0.1,1.4,0.3,1.9,1.4c0.6,1,0.6,1.8,0.1,2.3l-0.3,0.2"/>
<path id="Layer4_3_MEMBER_54_1_STROKES" class="st6" d="M205.5,16.1V66l27.1,15.6"/>
<path id="Layer4_3_MEMBER_55_1_STROKES" class="st6" d="M205.5,5.3L249.9,31"/>
<path id="Layer4_3_MEMBER_56_1_STROKES" class="st6" d="M210.6,2.4L255.1,28"/>
<path id="Layer4_3_MEMBER_57_1_STROKES" class="st6" d="M213.2,19v-0.2c0-0.5,0.2-0.8,0.5-1c0.3-0.2,0.7-0.2,1.1,0.1"/>
<path id="Layer4_3_MEMBER_58_1_STROKES" class="st6" d="M213.2,19v45"/>
<path id="Layer4_3_MEMBER_59_1_STROKES" class="st6" d="M226.2,24.5L214.9,18"/>
<path id="Layer4_3_MEMBER_60_1_STROKES" class="st6" d="M239.1,31.9l-11.3-6.6"/>
<path id="Layer4_3_MEMBER_61_1_STROKES" class="st6" d="M239.1,31.9c0.7,0.4,1.2,1,1.6,1.9c0.3,0.7,0.4,1.4,0.4,2"/>
<path id="Layer4_3_MEMBER_62_1_STROKES" class="st6" d="M241.1,62.1V35.8"/>
<path id="Layer4_3_MEMBER_63_1_STROKES" class="st6" d="M214.9,67.4c-0.6-0.4-1.1-1.1-1.4-1.9c-0.2-0.6-0.3-1.1-0.3-1.6"/>
<path id="Layer4_3_MEMBER_64_1_STROKES" class="st6" d="M233.9,78.4l-19.1-11"/>
<path id="Layer4_3_MEMBER_65_1_STROKES" class="st6" d="M217.5,19.5v42.4"/>
<path id="Layer4_3_MEMBER_66_1_STROKES" class="st6" d="M219.1,64.7c-0.6-0.4-1-1-1.3-1.9c-0.1-0.3-0.2-0.6-0.3-1"/>
<path id="Layer4_3_MEMBER_67_1_STROKES" class="st6" d="M235.5,74.2l-16.4-9.5"/>
<path id="Layer4_3_MEMBER_68_1_STROKES" class="st6" d="M233.4,72.8l-0.1-0.5l0.1-0.2l0.1-0.2l0.2-0.2"/>
<path id="Layer4_3_MEMBER_69_1_STROKES" class="st6" d="M233.5,71.7c0.3-0.3,0.6-0.6,0.9-0.7c0.5-0.3,1-0.4,1.6-0.3"/>
<path id="Layer4_3_MEMBER_70_1_STROKES" class="st6" d="M234.9,72.5l-0.5-0.3"/>
<path id="Layer4_3_MEMBER_71_1_STROKES" class="st6" d="M235.7,71.7l-0.4,0.2l-0.3,0.3l-0.2,0.3"/>
<path id="Layer4_3_MEMBER_72_1_STROKES" class="st6" d="M235.1,71.2l-0.5,0l0.6-0.3"/>
<path id="Layer4_3_MEMBER_73_1_STROKES" class="st6" d="M147.2,143.9l-0.1-0.3l0-0.4c-0.1-2,0.6-2.9,2.1-2.7c1.4,0.2,2.4,1,3.3,2.5
	l0.5,0.8c0.9,1.4,1,2.8,0.5,4.1c-0.5,1.4-1.7,1.5-3.4,0.4l-0.3-0.2l-0.1-0.1"/>
<path id="Layer4_3_MEMBER_74_1_STROKES" class="st6" d="M149.1,143c0.7-0.5,1.4-0.1,2.2,1.1c0.7,1.2,0.8,2.1,0.1,2.5"/>
<path id="Layer4_3_MEMBER_75_1_STROKES" class="st6" d="M142.5,142.4c1.1-0.5,2.2-0.3,3.4,0.5c1.1,0.8,2.1,1.9,2.9,3.3
	s1.2,2.8,1.2,4.1c0,1.4-0.5,2.4-1.6,2.9"/>
<path id="Layer4_3_MEMBER_76_1_STROKES" class="st6" d="M137.4,145.8l0.1-0.2l0.2-0.3c0.9-0.9,2-1,3.3-0.3c1.1,0.5,2,1.4,2.8,2.4
	l0.7,1c0.7,1.2,1.2,2.5,1.3,3.9c0.1,1.7-0.4,2.8-1.6,3.4l-0.3,0.1l-0.3,0.1"/>
<path id="Layer4_3_MEMBER_77_1_STROKES" class="st6" d="M139,145.9c1.5-0.5,2.9,0.4,4.3,2.6c1.4,2.3,1.5,4,0.5,5.2"/>
<path id="Layer4_3_MEMBER_78_1_STROKES" class="st6" d="M135.6,146.7c0.9-1.1,2.1-1.3,3.4-0.7c1.2,0.5,2.3,1.6,3.3,3.1
	c1,1.5,1.5,3,1.6,4.5c0.1,1.6-0.4,2.7-1.6,3.3l-0.3,0.1"/>
<path id="Layer4_3_MEMBER_79_1_STROKES" class="st6" d="M131,155.4c-0.5-0.9-0.7-1.7-0.8-2.5v-0.7c0-0.8,0.3-1.3,0.8-1.7
	c0.5-0.4,1.1-0.4,1.9-0.2l0.9,0.5l0.3,0.3c0.6,0.5,1.2,1.1,1.7,2c0.5,0.9,0.8,1.7,0.9,2.5l0.1,0.4v0.3c0,0.7-0.2,1.3-0.6,1.8
	c-0.4,0.5-1,0.7-1.7,0.5l-0.3-0.1l-0.6-0.3l-1-0.7C131.9,157,131.4,156.3,131,155.4z"/>
<path id="Layer4_3_MEMBER_80_1_STROKES" class="st6" d="M132.5,156.8l-0.3-0.2c-0.7-0.5-1.1-1.2-1.2-2.3c-0.1-1.1,0.4-1.4,1.3-1.1
	l0.3,0.2c0.7,0.4,1.2,1.2,1.3,2.2c0.2,1.1-0.2,1.5-1.2,1.3l-0.1-0.1L132.5,156.8z"/>
<path id="Layer4_3_MEMBER_81_1_STROKES" class="st6" d="M132.3,152.7l-0.9,0.5"/>
<path id="Layer4_3_MEMBER_83_1_STROKES" class="st6" d="M142.5,142.4l-4.3,2.5"/>
<path id="Layer4_3_MEMBER_84_1_STROKES" class="st6" d="M148.7,153.1l-4.2,2.4"/>
<path id="Layer4_3_MEMBER_85_1_STROKES" class="st6" d="M136.1,146.2l-5.1,4.4"/>
<path id="Layer4_3_MEMBER_87_1_STROKES" class="st6" d="M160.9,140.7l-1.8,4.1"/>
<path id="Layer4_3_MEMBER_88_1_STROKES" class="st6" d="M160.7,145l1.6-3.7"/>
<path id="Layer4_3_MEMBER_89_1_STROKES" class="st6" d="M122.6,118.6v4.4"/>
<path id="Layer4_3_MEMBER_90_1_STROKES" class="st6" d="M127.4,121.5v8.9l4.4-2.5"/>
<path id="Layer4_3_MEMBER_91_1_STROKES" class="st6" d="M133.3,124.8l-1.5,3"/>
<path id="Layer4_3_MEMBER_92_1_STROKES" class="st6" d="M130.2,127.1c-0.3,0.8-0.7,1.2-1.3,1.2c-0.6,0-0.7-0.5-0.3-1.5"/>
<path id="Layer4_3_MEMBER_93_1_STROKES" class="st6" d="M118.4,122.4c0.8-0.4,1.6-0.3,2.5,0.3c0.8,0.5,1.5,1.2,2.1,2.3
	c0.6,1,1,2,1.1,3c0.1,1.1-0.1,1.9-0.8,2.4l-0.2,0.1"/>
<path id="Layer4_3_MEMBER_94_1_STROKES" class="st6" d="M101.8,135c0.7-0.2,1.3,0.2,2,1.2c0.6,1,0.7,1.8,0.3,2.4"/>
<path id="Layer4_3_MEMBER_95_1_STROKES" class="st6" d="M118.4,125.3l-1.8,1"/>
<path id="Layer4_3_MEMBER_96_1_STROKES" class="st6" d="M123.9,122.2l-2,1.2"/>
<path id="Layer4_3_MEMBER_97_1_STROKES" class="st6" d="M124,127.1l1.6-0.9"/>
<path id="Layer4_3_MEMBER_98_1_STROKES" class="st6" d="M118.8,130.1l1.9-1.1"/>
<path id="Layer4_3_MEMBER_99_1_STROKES" class="st6" d="M123.3,130.4l-1.1,0.6"/>
<path id="Layer4_3_MEMBER_100_1_STROKES" class="st6" d="M117.6,122.9l0.9-0.5"/>
<path id="Layer4_3_MEMBER_101_1_STROKES" class="st6" d="M127.4,130.3l-3.3-1.9"/>
<path id="Layer4_3_MEMBER_102_1_STROKES" class="st6" d="M123.9,122.2c0.7-0.1,1.4,0.3,2,1.4c0.6,1,0.6,1.8,0.1,2.3l-0.3,0.2"/>
<path id="Layer4_3_MEMBER_103_1_STROKES" class="st6" d="M116.6,126.2l-0.1-0.3l0-0.4c-0.1-2,0.6-2.9,2.1-2.7c1.4,0.2,2.5,1,3.3,2.5
	l0.5,0.8c0.8,1.4,1,2.8,0.5,4.1c-0.5,1.4-1.7,1.5-3.4,0.5l-0.3-0.2l-0.1-0.1"/>
<path id="Layer4_3_MEMBER_104_1_STROKES" class="st6" d="M118.5,125.3c0.7-0.5,1.4-0.1,2.2,1.1c0.7,1.2,0.8,2.1,0.1,2.5"/>
<path id="Layer4_3_MEMBER_105_1_STROKES" class="st6" d="M111.9,124.8c1-0.5,2.2-0.3,3.4,0.5c1.1,0.7,2.1,1.8,2.9,3.3
	s1.2,2.8,1.2,4.1c0,1.4-0.5,2.4-1.6,2.9"/>
<path id="Layer4_3_MEMBER_106_1_STROKES" class="st6" d="M106.8,128.1l0.1-0.2l0.2-0.3c0.9-0.9,2-1,3.3-0.3c1.1,0.5,2,1.4,2.8,2.4
	l0.7,1c0.7,1.2,1.2,2.5,1.3,3.9c0.1,1.7-0.4,2.9-1.6,3.4l-0.3,0.1l-0.3,0"/>
<path id="Layer4_3_MEMBER_107_1_STROKES" class="st6" d="M108.4,128.2c1.5-0.5,2.9,0.4,4.3,2.6c1.4,2.2,1.5,4,0.5,5.2"/>
<path id="Layer4_3_MEMBER_108_1_STROKES" class="st6" d="M105,129.1l0.2-0.3c0.9-0.9,2-1,3.3-0.3c1,0.5,2,1.3,2.8,2.4l0.6,1
	c0.7,1.1,1.1,2.4,1.3,3.7c0.2,1.6-0.2,2.8-1.3,3.4l-0.3,0.2l-0.3,0.1"/>
<path id="Layer4_3_MEMBER_109_1_STROKES" class="st6" d="M100.4,132.8c0.5-0.4,1.1-0.4,1.8-0.2l0.6,0.3l0.6,0.5
	c0.6,0.5,1.2,1.2,1.7,2c0.5,0.9,0.8,1.7,0.9,2.5l0.1,0.8c0,0.8-0.2,1.4-0.6,1.8c-0.4,0.5-1,0.7-1.7,0.5l-0.3-0.1l-0.6-0.3l-0.6-0.4
	l-0.3-0.3c-0.6-0.5-1.1-1.2-1.6-2.1c-0.5-0.9-0.7-1.8-0.8-2.5l0-0.3l0-0.4C99.7,133.8,99.9,133.2,100.4,132.8z"/>
<path id="Layer4_3_MEMBER_110_1_STROKES" class="st6" d="M101.9,139.1l-0.3-0.2c-0.7-0.4-1.1-1.2-1.2-2.3c-0.1-1.1,0.4-1.5,1.4-1.1
	l0.3,0.2c0.7,0.4,1.2,1.1,1.3,2.2c0.2,1.1-0.2,1.5-1.2,1.3L101.9,139.1z"/>
<path id="Layer4_3_MEMBER_111_1_STROKES" class="st6" d="M101.7,135l-0.9,0.5"/>
<path id="Layer4_3_MEMBER_112_1_STROKES" class="st6" d="M103.8,138.7l-0.9,0.5"/>
<path id="Layer4_3_MEMBER_113_1_STROKES" class="st6" d="M111.9,124.8l-4.2,2.4"/>
<path id="Layer4_3_MEMBER_114_1_STROKES" class="st6" d="M118.1,135.5l-4.2,2.4"/>
<path id="Layer4_3_MEMBER_115_1_STROKES" class="st6" d="M105.5,128.5l-5.1,4.4"/>
<path id="Layer4_3_MEMBER_116_1_STROKES" class="st6" d="M111.3,139.3l-6.5,1.7"/>
<path id="Layer4_3_MEMBER_117_1_STROKES" class="st6" d="M130.3,123l-1.8,4.1"/>
<path id="Layer4_3_MEMBER_118_1_STROKES" class="st6" d="M130.1,127.4l1.6-3.7"/>
<path id="Layer4_3_MEMBER_119_1_STROKES" class="st6" d="M163.9,140.7l-43.1-24.9"/>
<path id="Layer4_3_MEMBER_120_1_STROKES" class="st6" d="M133.5,124.9v7.4"/>
<path id="Layer4_3_MEMBER_121_1_STROKES" class="st6" d="M142.9,139.2l-8.1-4.6"/>
<path id="Layer4_3_MEMBER_122_1_STROKES" class="st6" d="M145.1,131.6v6.3"/>
<path id="Layer4_3_MEMBER_123_1_STROKES" class="st6" d="M142.9,139.2c0.2,0.1,0.4,0.2,0.7,0.2c0.4,0,0.8-0.1,1-0.4
	c0.3-0.3,0.4-0.6,0.4-1"/>
<path id="Layer4_3_MEMBER_124_1_STROKES" class="st6" d="M133.5,132.3c0,0.5,0.1,0.9,0.3,1.3c0.3,0.4,0.6,0.7,1,1"/>
<path id="Layer4_3_MEMBER_125_1_STROKES" class="st6" d="M146,132.1v5.3"/>
<path id="Layer4_3_MEMBER_126_1_STROKES" class="st6" d="M145.4,138.6c0.4-0.3,0.6-0.6,0.6-1v-0.2"/>
<path id="Layer4_3_MEMBER_127_1_STROKES" class="st6" d="M145.2,138.8l-0.9,0.5"/>
<path id="Layer4_3_MEMBER_128_1_STROKES" class="st6" d="M188.7,118.2l-25.8-14.9"/>
<path id="Layer4_3_MEMBER_129_1_STROKES" class="st6" d="M195.9,78l-28.2,16.2"/>
<path id="Layer4_3_MEMBER_130_1_STROKES" class="st6" d="M202.8,76.4l15.3,1"/>
<path id="Layer4_3_MEMBER_131_1_STROKES" class="st6" d="M224,80.8l5.4,8.1"/>
<path id="Layer4_3_MEMBER_132_1_STROKES" class="st6" d="M224,80.8c-0.7-1-1.5-1.8-2.5-2.4c-1-0.6-2.1-0.9-3.3-1"/>
<path id="Layer4_3_MEMBER_133_1_STROKES" class="st6" d="M202.8,76.4l-0.8,0c-2.2,0-4.2,0.5-6.1,1.6"/>
<path id="Layer4_3_MEMBER_134_1_STROKES" class="st6" d="M162.9,103.3l-0.4-0.3c-0.8-0.7-1.2-1.5-1.2-2.6c0-1.1,0.4-1.9,1.2-2.6
	l5.2-3.6"/>
<path id="Layer4_3_MEMBER_135_1_STROKES" class="st6" d="M188.7,118.2l1.8,0.9l1.5,0.5"/>
<path id="Layer4_3_MEMBER_136_1_STROKES" class="st6" d="M189,118l-24.6-14.2"/>
<path id="Layer4_3_MEMBER_137_1_STROKES" class="st6" d="M196.1,79.4l-27,15.5"/>
<path id="Layer4_3_MEMBER_138_1_STROKES" class="st6" d="M202.7,77.9l14.6,1"/>
<path id="Layer4_3_MEMBER_139_1_STROKES" class="st6" d="M223,82.1l5.7,8.5"/>
<path id="Layer4_3_MEMBER_140_1_STROKES" class="st6" d="M223,82.1c-0.6-0.9-1.4-1.7-2.4-2.3c-1-0.6-2-0.9-3.1-1"/>
<path id="Layer4_3_MEMBER_141_1_STROKES" class="st6" d="M202.7,77.9l-0.8,0c-2.1,0-4,0.5-5.8,1.6"/>
<path id="Layer4_3_MEMBER_142_1_STROKES" class="st6" d="M164.4,103.8l-0.4-0.3c-0.8-0.7-1.2-1.5-1.2-2.5s0.4-1.8,1.2-2.4l5.2-3.6"
	/>
<path id="Layer4_3_MEMBER_143_1_STROKES" class="st6" d="M189,118l1.7,0.8l1.6,0.5"/>
<path id="Layer4_3_MEMBER_144_1_STROKES" class="st6" d="M190,116.2l-22.8-13.1"/>
<path id="Layer4_3_MEMBER_145_1_STROKES" class="st6" d="M196.9,80.4L172,94.7"/>
<path id="Layer4_3_MEMBER_146_1_STROKES" class="st6" d="M203,78.9l13.5,0.9"/>
<path id="Layer4_3_MEMBER_147_1_STROKES" class="st6" d="M221.7,82.8l6.3,9.4"/>
<path id="Layer4_3_MEMBER_148_1_STROKES" class="st6" d="M221.7,82.8c-0.6-0.9-1.3-1.6-2.2-2.1c-0.9-0.5-1.9-0.8-2.9-0.9"/>
<path id="Layer4_3_MEMBER_149_1_STROKES" class="st6" d="M203,79l-0.8,0c-1.9,0-3.7,0.5-5.4,1.4"/>
<path id="Layer4_3_MEMBER_150_1_STROKES" class="st6" d="M167.2,103c-0.9-0.7-1.4-1.4-1.5-2.2c-0.2-2,1.9-4,6.3-6.2"/>
<path id="Layer4_3_MEMBER_151_1_STROKES" class="st6" d="M190,116.2c1.5,0.9,3.1,1.4,4.9,1.5"/>
<path id="Layer4_3_MEMBER_152_1_STROKES" class="st6" d="M224.9,98.1c-0.6,0.2-1.2,0.2-1.8,0.2c-1.2,0-2.2-0.2-3-0.7
	c-0.8-0.5-1.3-1.1-1.3-1.8c0-0.7,0.4-1.3,1.3-1.7c0.8-0.5,1.9-0.7,3-0.7c0.8,0,1.6,0.1,2.3,0.4c0.7,0.3,1.2,0.6,1.6,1"/>
<path id="Layer4_3_MEMBER_153_1_STROKES" class="st6" d="M217,89.8c0,0.7-0.4,1.3-1.3,1.7c-0.8,0.5-1.9,0.7-3,0.7
	c-1.2,0-2.2-0.2-3-0.7c-0.8-0.5-1.3-1.1-1.3-1.7c0-0.7,0.4-1.3,1.3-1.8c0.8-0.5,1.9-0.7,3-0.7c1.2,0,2.2,0.2,3,0.7
	C216.6,88.5,217,89.1,217,89.8z"/>
<path id="Layer4_3_MEMBER_154_1_STROKES" class="st6" d="M207,84.1c0,0.7-0.4,1.3-1.3,1.7c-0.8,0.5-1.9,0.7-3,0.7s-2.2-0.2-3-0.7
	c-0.8-0.5-1.3-1.1-1.3-1.7c0-0.7,0.4-1.3,1.3-1.7c0.8-0.5,1.9-0.7,3-0.7s2.2,0.2,3,0.7C206.6,82.8,207,83.4,207,84.1z"/>
<path id="Layer4_3_MEMBER_155_1_STROKES" class="st6" d="M211.9,100.1c-1.2,0-2.2-0.2-3-0.7c-0.8-0.5-1.3-1.1-1.3-1.7
	c0-0.7,0.4-1.3,1.3-1.7c0.8-0.5,1.9-0.7,3-0.7s2.2,0.2,3,0.7s1.3,1.1,1.3,1.7c0,0.7-0.4,1.3-1.3,1.7S213.1,100.1,211.9,100.1z"/>
<path id="Layer4_3_MEMBER_156_1_STROKES" class="st6" d="M206.1,91.8c0,0.7-0.4,1.3-1.3,1.7c-0.8,0.5-1.8,0.7-3,0.7
	c-1.2,0-2.2-0.2-3-0.7c-0.8-0.5-1.3-1.1-1.3-1.7s0.4-1.3,1.3-1.8c0.8-0.5,1.8-0.7,3-0.7c1.2,0,2.2,0.2,3,0.7
	C205.7,90.5,206.1,91.1,206.1,91.8z"/>
<path id="Layer4_3_MEMBER_157_1_STROKES" class="st6" d="M213.3,103.9c0,0.7-0.4,1.3-1.3,1.8c-0.8,0.5-1.9,0.7-3,0.7
	c-1.2,0-2.2-0.2-3-0.7c-0.8-0.5-1.3-1.1-1.3-1.8c0-0.7,0.4-1.3,1.3-1.7c0.8-0.5,1.9-0.7,3-0.7s2.2,0.2,3,0.7
	C212.9,102.7,213.3,103.2,213.3,103.9z"/>
<path id="Layer4_3_MEMBER_158_1_STROKES" class="st6" d="M202.9,97.9c0,0.7-0.4,1.3-1.3,1.7c-0.8,0.5-1.9,0.7-3,0.7
	c-1.2,0-2.2-0.2-3-0.7c-0.8-0.5-1.3-1.1-1.3-1.7c0-0.7,0.4-1.3,1.3-1.7c0.8-0.5,1.8-0.7,3-0.7c1.2,0,2.2,0.2,3,0.7
	C202.4,96.7,202.9,97.3,202.9,97.9z"/>
<path id="Layer4_3_MEMBER_159_1_STROKES" class="st6" d="M185.6,90.4c0.8-0.5,1.9-0.7,3-0.7c1.2,0,2.2,0.2,3,0.7
	c0.8,0.5,1.2,1.1,1.2,1.7c0,0.7-0.4,1.3-1.2,1.7c-0.8,0.5-1.9,0.7-3,0.7c-1.2,0-2.2-0.2-3-0.7c-0.8-0.5-1.3-1.1-1.3-1.7
	C184.3,91.4,184.8,90.9,185.6,90.4z"/>
<path id="Layer4_3_MEMBER_160_1_STROKES" class="st6" d="M200.8,103.9c0.8,0.5,1.3,1.1,1.3,1.7c0,0.7-0.4,1.3-1.3,1.7
	c-0.8,0.5-1.8,0.7-3,0.7c-1.2,0-2.2-0.2-3-0.7c-0.8-0.5-1.3-1.1-1.3-1.7c0-0.7,0.4-1.3,1.3-1.7c0.8-0.5,1.8-0.7,3-0.7
	C199,103.2,200,103.4,200.8,103.9z"/>
<path id="Layer4_3_MEMBER_161_1_STROKES" class="st6" d="M187.7,97.4c1.2,0,2.2,0.2,3,0.7c0.8,0.5,1.3,1.1,1.3,1.7
	c0,0.7-0.4,1.3-1.3,1.7c-0.8,0.5-1.9,0.7-3,0.7c-1.2,0-2.2-0.2-3-0.7c-0.8-0.5-1.3-1.1-1.3-1.7c0-0.7,0.4-1.3,1.3-1.7
	C185.5,97.6,186.5,97.4,187.7,97.4z"/>
<path id="Layer4_3_MEMBER_162_1_STROKES" class="st6" d="M200.2,112.3c0,0.7-0.4,1.3-1.3,1.7c-0.8,0.5-1.9,0.7-3,0.7s-2.2-0.2-3-0.7
	c-0.8-0.5-1.3-1.1-1.3-1.7c0-0.7,0.4-1.3,1.3-1.7c0.8-0.5,1.9-0.7,3-0.7s2.2,0.2,3,0.7C199.8,111,200.2,111.6,200.2,112.3z"/>
<path id="Layer4_3_MEMBER_163_1_STROKES" class="st6" d="M182.4,104.5c-0.8,0.5-1.3,1.1-1.3,1.8c0,0.7,0.4,1.3,1.3,1.7
	c0.8,0.5,1.9,0.7,3,0.7s2.2-0.2,3-0.7c0.8-0.5,1.3-1.1,1.3-1.7c0-0.7-0.4-1.3-1.3-1.8c-0.8-0.5-1.9-0.7-3-0.7S183.3,104,182.4,104.5
	z"/>
<path id="Layer4_3_MEMBER_164_1_STROKES" class="st6" d="M179.8,100.5c0,0.7-0.4,1.3-1.3,1.7c-0.8,0.5-1.8,0.7-3,0.7
	c-1.2,0-2.2-0.2-3-0.7c-0.8-0.5-1.3-1.1-1.3-1.7c0-0.7,0.4-1.3,1.3-1.7c0.8-0.5,1.8-0.7,3-0.7c1.2,0,2.2,0.2,3,0.7
	C179.4,99.3,179.8,99.8,179.8,100.5z"/>
<path id="Layer4_3_MEMBER_165_1_STROKES" class="st6" d="M226.4,95.1c0,0.5-0.3,1-0.9,1.3c-0.6,0.4-1.4,0.6-2.3,0.6
	c-0.9,0-1.7-0.2-2.3-0.6c-0.6-0.4-1-0.8-1-1.3c0-0.5,0.3-1,1-1.3c0.6-0.4,1.4-0.6,2.3-0.6c0.9,0,1.7,0.2,2.3,0.6
	C226.1,94.1,226.4,94.6,226.4,95.1z"/>
<path id="Layer4_3_MEMBER_166_1_STROKES" class="st6" d="M215.9,89.2c0,0.5-0.3,1-0.9,1.3c-0.6,0.4-1.4,0.6-2.3,0.6
	c-0.9,0-1.7-0.2-2.3-0.6c-0.6-0.4-0.9-0.8-0.9-1.3c0-0.5,0.3-1,0.9-1.3c0.6-0.4,1.4-0.5,2.3-0.5c0.9,0,1.7,0.2,2.3,0.5
	C215.6,88.2,215.9,88.7,215.9,89.2z"/>
<path id="Layer4_3_MEMBER_167_1_STROKES" class="st6" d="M202.7,85.4c0.9,0,1.7-0.2,2.3-0.6c0.6-0.4,1-0.8,1-1.3c0-0.5-0.3-1-1-1.3
	c-0.6-0.4-1.4-0.5-2.3-0.5c-0.9,0-1.7,0.2-2.3,0.5c-0.6,0.4-0.9,0.8-0.9,1.3c0,0.5,0.3,1,0.9,1.3C201.1,85.2,201.8,85.4,202.7,85.4z
	"/>
<path id="Layer4_3_MEMBER_168_1_STROKES" class="st6" d="M215.1,96.9c0,0.5-0.3,1-1,1.3c-0.6,0.4-1.4,0.5-2.3,0.5
	c-0.9,0-1.7-0.2-2.3-0.5c-0.6-0.4-0.9-0.8-0.9-1.3c0-0.5,0.3-1,0.9-1.3c0.6-0.4,1.4-0.5,2.3-0.5c0.9,0,1.7,0.2,2.3,0.5
	C214.7,96,215.1,96.4,215.1,96.9z"/>
<path id="Layer4_3_MEMBER_169_1_STROKES" class="st6" d="M201.8,93c0.9,0,1.7-0.2,2.3-0.5c0.6-0.4,1-0.8,1-1.3s-0.3-1-1-1.3
	c-0.6-0.4-1.4-0.5-2.3-0.5c-0.9,0-1.7,0.2-2.3,0.5c-0.6,0.4-0.9,0.8-0.9,1.3c0,0.5,0.3,1,0.9,1.3C200.1,92.9,200.9,93,201.8,93z"/>
<path id="Layer4_3_MEMBER_170_1_STROKES" class="st6" d="M212.3,103.4c0,0.5-0.3,1-1,1.3c-0.6,0.4-1.4,0.6-2.3,0.6
	c-0.9,0-1.7-0.2-2.3-0.6c-0.6-0.4-0.9-0.8-0.9-1.3c0-0.5,0.3-1,0.9-1.3c0.6-0.4,1.4-0.5,2.3-0.5c0.9,0,1.7,0.2,2.3,0.5
	C212,102.4,212.3,102.8,212.3,103.4z"/>
<path id="Layer4_3_MEMBER_171_1_STROKES" class="st6" d="M201.1,105c0,0.5-0.3,1-0.9,1.3c-0.6,0.4-1.4,0.5-2.3,0.5
	c-0.9,0-1.7-0.2-2.3-0.5c-0.6-0.4-0.9-0.8-0.9-1.3c0-0.5,0.3-1,0.9-1.3c0.6-0.4,1.4-0.5,2.3-0.5c0.9,0,1.7,0.2,2.3,0.5
	C200.7,104.1,201.1,104.5,201.1,105z"/>
<path id="Layer4_3_MEMBER_172_1_STROKES" class="st6" d="M201.8,97.3c0,0.5-0.3,1-0.9,1.3c-0.6,0.4-1.4,0.5-2.3,0.5
	c-0.9,0-1.7-0.2-2.3-0.5c-0.6-0.4-1-0.8-1-1.3c0-0.5,0.3-1,1-1.3c0.6-0.4,1.4-0.5,2.3-0.5c0.9,0,1.7,0.2,2.3,0.5
	C201.4,96.3,201.8,96.7,201.8,97.3z"/>
<path id="Layer4_3_MEMBER_173_1_STROKES" class="st6" d="M186.3,93c0.6,0.4,1.4,0.5,2.3,0.5c0.9,0,1.7-0.2,2.3-0.5
	c0.6-0.4,0.9-0.8,0.9-1.3c0-0.5-0.3-1-0.9-1.3c-0.6-0.4-1.4-0.5-2.3-0.5s-1.7,0.2-2.3,0.5c-0.6,0.4-1,0.8-1,1.3
	C185.4,92.1,185.7,92.6,186.3,93z"/>
<path id="Layer4_3_MEMBER_174_1_STROKES" class="st6" d="M187.8,97.3c0.9,0,1.7,0.2,2.3,0.6c0.6,0.4,0.9,0.8,0.9,1.3
	c0,0.5-0.3,1-0.9,1.3c-0.6,0.4-1.4,0.5-2.3,0.5c-0.9,0-1.7-0.2-2.3-0.5c-0.6-0.4-0.9-0.8-0.9-1.3c0-0.5,0.3-1,0.9-1.3
	C186.1,97.5,186.9,97.3,187.8,97.3z"/>
<path id="Layer4_3_MEMBER_175_1_STROKES" class="st6" d="M175.5,101.9c0.9,0,1.7-0.2,2.3-0.6c0.6-0.4,0.9-0.8,0.9-1.3
	c0-0.5-0.3-1-0.9-1.3c-0.6-0.4-1.4-0.6-2.3-0.6c-0.9,0-1.7,0.2-2.3,0.6c-0.6,0.4-0.9,0.8-0.9,1.3c0,0.5,0.3,1,0.9,1.3
	C173.9,101.7,174.6,101.9,175.5,101.9z"/>
<path id="Layer4_3_MEMBER_176_1_STROKES" class="st6" d="M183.2,104.3c-0.6,0.4-0.9,0.8-0.9,1.3c0,0.5,0.3,1,0.9,1.3
	c0.6,0.4,1.4,0.5,2.3,0.5c0.9,0,1.7-0.2,2.3-0.5c0.6-0.4,0.9-0.8,0.9-1.3c0-0.5-0.3-1-0.9-1.3c-0.6-0.4-1.4-0.5-2.3-0.5
	C184.6,103.8,183.9,103.9,183.2,104.3z"/>
<path id="Layer4_3_MEMBER_177_1_STROKES" class="st6" d="M199.3,111.6c0,0.5-0.3,1-0.9,1.3c-0.6,0.4-1.4,0.5-2.3,0.5
	s-1.7-0.2-2.3-0.5c-0.6-0.4-1-0.8-1-1.3c0-0.5,0.3-1,1-1.3c0.6-0.4,1.4-0.5,2.3-0.5s1.7,0.2,2.3,0.5
	C199,110.6,199.3,111.1,199.3,111.6z"/>
<path id="Layer4_3_MEMBER_178_1_STROKES" class="st6" d="M202,48.4c0.6-1,0.9-2,0.9-2.9c0-0.9-0.3-1.6-0.9-1.9
	c-0.6-0.3-1.3-0.3-2.1,0.2c-0.8,0.5-1.5,1.2-2.1,2.2c-0.6,1-0.9,2-0.9,2.9c0,0.9,0.3,1.6,0.9,1.9c0.6,0.3,1.3,0.3,2.1-0.2
	C200.7,50.1,201.4,49.4,202,48.4z"/>
<path id="Layer4_3_MEMBER_179_1_STROKES" class="st6" d="M202,61.7c0.6-1,0.9-2,0.9-2.9c0-0.9-0.3-1.6-0.9-1.9
	c-0.6-0.3-1.3-0.3-2.1,0.2c-0.8,0.5-1.5,1.2-2.1,2.2c-0.6,1-0.9,2-0.9,2.9c0,0.9,0.3,1.6,0.9,1.9c0.6,0.3,1.3,0.3,2.1-0.2
	C200.7,63.5,201.4,62.7,202,61.7z"/>
<path id="Layer4_3_MEMBER_180_1_STROKES" class="st6" d="M192.1,67.3c-0.6,1-1.3,1.7-2.1,2.2c-0.8,0.5-1.5,0.5-2.1,0.2
	c-0.6-0.3-0.8-1-0.8-1.9c0-0.9,0.3-1.9,0.8-2.9c0.6-1,1.3-1.7,2.1-2.2c0.8-0.5,1.5-0.6,2.1-0.2c0.6,0.3,0.9,1,0.9,1.9
	C193,65.3,192.7,66.3,192.1,67.3z"/>
<path id="Layer4_3_MEMBER_181_1_STROKES" class="st6" d="M201.3,43.5c0.2,0.5,0.3,1.1,0.2,1.9c-0.1,0.8-0.4,1.5-0.8,2.2
	c-0.4,0.7-0.9,1.3-1.5,1.8c-0.6,0.5-1.1,0.7-1.7,0.8"/>
<path id="Layer4_3_MEMBER_182_1_STROKES" class="st6" d="M201.3,56.9c0.2,0.5,0.3,1.1,0.2,1.9c-0.1,0.8-0.4,1.5-0.8,2.2
	c-0.4,0.7-0.9,1.3-1.5,1.8c-0.6,0.5-1.1,0.7-1.7,0.8"/>
<path id="Layer4_3_MEMBER_183_1_STROKES" class="st6" d="M191.4,62.5c0.2,0.5,0.3,1.1,0.2,1.9c-0.1,0.7-0.4,1.5-0.8,2.2
	c-0.4,0.7-0.9,1.3-1.5,1.8c-0.6,0.5-1.1,0.7-1.7,0.8"/>
<path id="Layer4_3_MEMBER_184_1_STROKES" class="st6" d="M249.9,41.7V31l5.1-3v10.7"/>
<path id="Layer4_3_MEMBER_185_1_STROKES" class="st6" d="M210.6,2.4l-5.2,3v10.8"/>
<path id="Layer4_3_MEMBER_186_1_STROKES" class="st6" d="M196.9,82.6L172,97"/>
<path id="Layer4_3_MEMBER_187_1_STROKES" class="st6" d="M203,81.2l13.5,0.9"/>
<path id="Layer4_3_MEMBER_188_1_STROKES" class="st6" d="M221.7,85.1l5.6,8.5"/>
<path id="Layer4_3_MEMBER_189_1_STROKES" class="st6" d="M221.7,85.1c-0.6-0.9-1.3-1.5-2.2-2.1c-0.9-0.5-1.9-0.8-2.9-0.9"/>
<path id="Layer4_3_MEMBER_190_1_STROKES" class="st6" d="M203,81.2l-0.8,0c-1.9,0-3.7,0.5-5.4,1.5"/>
<path id="Layer4_3_MEMBER_191_1_STROKES" class="st6" d="M166,101.7l0.5-0.8l0.3-0.3L172,97"/>
<path id="Layer4_3_MEMBER_192_1_STROKES" class="st6" d="M216.5,82.1v-2.3"/>
<path id="Layer4_3_MEMBER_193_1_STROKES" class="st6" d="M204.9,81.4v-2.3"/>
<path id="Layer4_3_MEMBER_194_1_STROKES" class="st6" d="M196.5,82.9v-2.3"/>
<path id="Layer4_3_MEMBER_195_1_STROKES" class="st6" d="M221.9,85.4v-2.3"/>
<path id="Layer4_3_MEMBER_196_1_STROKES" class="st6" d="M227.7,25.4v-3.9"/>
<path id="Layer4_3_MEMBER_197_1_STROKES" class="st6" d="M226.2,24.5v-3.9"/>
<path id="Layer4_3_MEMBER_198_1_STROKES" class="st6" d="M227.7,21.5l-1.5-0.9"/>
<path id="Layer4_3_MEMBER_199_1_STROKES" class="st6" d="M226.2,24.5l1.5-0.9"/>
<path id="Layer4_3_MEMBER_200_1_STROKES" class="st6" d="M229.8,25.4c0.3,0.1,0.5,0.2,0.6,0.1c0.2-0.1,0.3-0.3,0.3-0.6
	c0-0.3-0.1-0.6-0.3-0.9c-0.2-0.3-0.4-0.5-0.6-0.7c-0.3-0.1-0.5-0.2-0.7-0.1c-0.2,0.1-0.3,0.3-0.3,0.6c0,0.3,0.1,0.6,0.3,0.9
	C229.3,25,229.5,25.2,229.8,25.4z"/>
<path id="Layer4_3_MEMBER_201_1_STROKES" class="st6" d="M233.2,25.2c0.3,0.1,0.5,0.4,0.7,0.7s0.3,0.6,0.3,0.9
	c0,0.3-0.1,0.5-0.3,0.6c-0.2,0.1-0.4,0.1-0.6-0.1c-0.3-0.2-0.5-0.4-0.7-0.7c-0.2-0.3-0.3-0.6-0.3-0.9c0-0.3,0.1-0.5,0.3-0.6
	C232.7,25,233,25.1,233.2,25.2z"/>
<path id="Layer4_3_MEMBER_202_1_STROKES" class="st6" d="M236.7,29c0.2-0.1,0.3-0.3,0.3-0.6c0-0.3-0.1-0.6-0.3-0.9
	c-0.2-0.3-0.4-0.5-0.7-0.7c-0.3-0.1-0.5-0.2-0.6-0.1s-0.3,0.3-0.3,0.6c0,0.3,0.1,0.6,0.3,0.9c0.2,0.3,0.4,0.6,0.6,0.7
	C236.2,29.1,236.5,29.1,236.7,29z"/>
<path id="Layer4_3_MEMBER_203_1_STROKES" class="st6" d="M240.4,31.2c0.2-0.1,0.3-0.3,0.3-0.6c0-0.3-0.1-0.6-0.3-0.9
	c-0.2-0.3-0.4-0.6-0.6-0.7c-0.3-0.1-0.5-0.2-0.7-0.1c-0.2,0.1-0.3,0.3-0.3,0.6c0,0.3,0.1,0.6,0.3,0.9c0.2,0.3,0.4,0.6,0.7,0.7
	C240,31.3,240.2,31.3,240.4,31.2z"/>
<path id="Layer4_3_MEMBER_204_1_STROKES" class="st6" d="M215.1,16.6c-0.2,0.1-0.4,0.1-0.6-0.1c-0.3-0.2-0.5-0.4-0.7-0.7
	c-0.2-0.3-0.3-0.6-0.3-0.9c0-0.3,0.1-0.5,0.3-0.6c0.2-0.1,0.4-0.1,0.6,0.1c0.3,0.2,0.5,0.4,0.7,0.7c0.2,0.3,0.3,0.6,0.3,0.9
	C215.4,16.3,215.3,16.5,215.1,16.6z"/>
<path id="Layer4_3_MEMBER_205_1_STROKES" class="st6" d="M218.5,18.6c0.2-0.1,0.3-0.3,0.3-0.6c0-0.3-0.1-0.6-0.3-0.9
	c-0.2-0.3-0.4-0.6-0.7-0.7c-0.3-0.2-0.5-0.2-0.7-0.1c-0.2,0.1-0.3,0.3-0.3,0.6c0,0.3,0.1,0.6,0.3,0.9c0.2,0.3,0.4,0.6,0.7,0.7
	C218.1,18.7,218.4,18.7,218.5,18.6z"/>
<path id="Layer4_3_MEMBER_206_1_STROKES" class="st6" d="M221.3,20.2c0.2-0.1,0.3-0.3,0.3-0.6c0-0.3-0.1-0.6-0.3-0.9
	c-0.2-0.3-0.4-0.6-0.7-0.7c-0.3-0.1-0.5-0.2-0.6-0.1c-0.2,0.1-0.3,0.3-0.3,0.6c0,0.3,0.1,0.6,0.3,0.9c0.2,0.3,0.4,0.5,0.6,0.7
	C220.9,20.3,221.1,20.3,221.3,20.2z"/>
<path id="Layer4_3_MEMBER_207_1_STROKES" class="st6" d="M225.1,22.3c-0.2,0.1-0.4,0.1-0.7-0.1c-0.3-0.1-0.5-0.4-0.6-0.7
	c-0.2-0.3-0.3-0.6-0.3-0.9c0-0.3,0.1-0.5,0.3-0.6s0.4-0.1,0.6,0.1c0.3,0.2,0.5,0.4,0.7,0.7c0.2,0.3,0.3,0.6,0.3,0.9
	C225.3,22,225.2,22.2,225.1,22.3z"/>
<path id="Layer4_3_MEMBER_208_1_STROKES" class="st6" d="M161.3,133.4c0-0.3-0.2-0.5-0.5-0.7c-0.3-0.2-0.7-0.3-1.2-0.3
	c-0.4,0-0.8,0.1-1.2,0.3c-0.3,0.2-0.5,0.4-0.5,0.7c0,0.3,0.2,0.5,0.5,0.7c0.3,0.2,0.7,0.3,1.2,0.3c0.5,0,0.9-0.1,1.2-0.3
	C161.1,133.9,161.3,133.7,161.3,133.4z"/>
<path id="Layer4_3_MEMBER_209_1_STROKES" class="st6" d="M159.7,133.5l-0.9,0.4l-0.2-0.2"/>
<path id="Layer4_3_MEMBER_210_1_STROKES" class="st6" d="M159.3,133.3l-0.6-0.4"/>
<path id="Layer4_3_MEMBER_211_1_STROKES" class="st6" d="M158.9,132.7l-0.2,0.2"/>
<path id="Layer4_3_MEMBER_212_1_STROKES" class="st6" d="M159.7,133.5l0.9,0.4l0.2-0.2"/>
<path id="Layer4_3_MEMBER_213_1_STROKES" class="st6" d="M160.1,133.3l0.6-0.4"/>
<path id="Layer4_3_MEMBER_214_1_STROKES" class="st6" d="M160.4,132.7l0.2,0.2"/>
<path id="Layer4_3_MEMBER_215_1_STROKES" class="st6" d="M165.5,131c0,0.3-0.2,0.5-0.5,0.7c-0.3,0.2-0.7,0.3-1.2,0.3
	c-0.5,0-0.9-0.1-1.2-0.3c-0.3-0.2-0.5-0.4-0.5-0.7c0-0.3,0.2-0.5,0.5-0.7c0.3-0.2,0.7-0.3,1.2-0.3c0.4,0,0.8,0.1,1.2,0.3
	C165.3,130.5,165.5,130.8,165.5,131z"/>
<path id="Layer4_3_MEMBER_216_1_STROKES" class="st6" d="M163.9,131.1l-0.9,0.4l-0.2-0.2"/>
<path id="Layer4_3_MEMBER_217_1_STROKES" class="st6" d="M163.5,130.9l-0.6-0.4"/>
<path id="Layer4_3_MEMBER_218_1_STROKES" class="st6" d="M163.1,130.3l-0.2,0.1"/>
<path id="Layer4_3_MEMBER_219_1_STROKES" class="st6" d="M163.9,131.1l0.9,0.4l0.2-0.2"/>
<path id="Layer4_3_MEMBER_220_1_STROKES" class="st6" d="M164.2,130.9l0.6-0.4"/>
<path id="Layer4_3_MEMBER_221_1_STROKES" class="st6" d="M164.6,130.3l0.2,0.1"/>
<path id="Layer4_3_MEMBER_222_1_STROKES" class="st6" d="M168.1,129.5c0.5,0,0.9-0.1,1.2-0.3c0.3-0.2,0.5-0.4,0.5-0.7
	c0-0.3-0.2-0.5-0.5-0.7c-0.3-0.2-0.7-0.3-1.2-0.3s-0.8,0.1-1.1,0.3c-0.3,0.2-0.5,0.4-0.5,0.7c0,0.3,0.2,0.5,0.5,0.7
	C167.3,129.4,167.7,129.5,168.1,129.5z"/>
<path id="Layer4_3_MEMBER_223_1_STROKES" class="st6" d="M131,115.9c0-0.3-0.2-0.5-0.5-0.7c-0.3-0.2-0.7-0.3-1.2-0.3
	s-0.9,0.1-1.2,0.3c-0.3,0.2-0.5,0.4-0.5,0.7c0,0.3,0.2,0.5,0.5,0.7c0.3,0.2,0.7,0.3,1.2,0.3s0.8-0.1,1.2-0.3
	C130.8,116.4,131,116.2,131,115.9z"/>
<path id="Layer4_3_MEMBER_224_1_STROKES" class="st6" d="M129.4,116l-0.9,0.4l-0.2-0.1"/>
<path id="Layer4_3_MEMBER_225_1_STROKES" class="st6" d="M129,115.8l-0.6-0.4"/>
<path id="Layer4_3_MEMBER_226_1_STROKES" class="st6" d="M128.6,115.3l-0.2,0.1"/>
<path id="Layer4_3_MEMBER_227_1_STROKES" class="st6" d="M129.4,116l0.9,0.4l0.2-0.1"/>
<path id="Layer4_3_MEMBER_228_1_STROKES" class="st6" d="M129.8,115.8l0.6-0.4"/>
<path id="Layer4_3_MEMBER_229_1_STROKES" class="st6" d="M130.2,115.3l0.2,0.1"/>
<path id="Layer4_3_MEMBER_230_1_STROKES" class="st6" d="M135.2,113.5c0,0.3-0.2,0.5-0.5,0.7c-0.3,0.2-0.7,0.3-1.2,0.3
	c-0.4,0-0.8-0.1-1.2-0.3c-0.3-0.2-0.5-0.4-0.5-0.7s0.2-0.5,0.5-0.7c0.3-0.2,0.7-0.3,1.2-0.3c0.4,0,0.8,0.1,1.2,0.3
	C135,113.1,135.2,113.3,135.2,113.5z"/>
<path id="Layer4_3_MEMBER_231_1_STROKES" class="st6" d="M133.6,113.6l-0.9,0.4l-0.2-0.1"/>
<path id="Layer4_3_MEMBER_232_1_STROKES" class="st6" d="M133.2,113.4l-0.6-0.5"/>
<path id="Layer4_3_MEMBER_233_1_STROKES" class="st6" d="M132.8,112.9l-0.2,0.1"/>
<path id="Layer4_3_MEMBER_234_1_STROKES" class="st6" d="M133.6,113.6l0.9,0.4l0.2-0.1"/>
<path id="Layer4_3_MEMBER_235_1_STROKES" class="st6" d="M133.9,113.4l0.6-0.5"/>
<path id="Layer4_3_MEMBER_236_1_STROKES" class="st6" d="M134.4,112.9l0.2,0.1"/>
<path id="Layer4_3_MEMBER_237_1_STROKES" class="st6" d="M139.4,111.1c0,0.3-0.2,0.5-0.5,0.7c-0.3,0.2-0.7,0.3-1.2,0.3
	s-0.8-0.1-1.1-0.3c-0.3-0.2-0.5-0.4-0.5-0.7c0-0.3,0.2-0.5,0.5-0.7c0.3-0.2,0.7-0.3,1.1-0.3c0.5,0,0.9,0.1,1.2,0.3
	C139.3,110.6,139.4,110.8,139.4,111.1z"/>
<path id="Layer4_3_MEMBER_238_1_STROKES" class="st6" d="M143.5,104.9c0.5,0.3,0.8,0.7,0.8,1.1s-0.3,0.8-0.8,1.1
	c-0.5,0.3-1.1,0.4-1.9,0.4s-1.3-0.1-1.8-0.4c-0.5-0.3-0.8-0.7-0.8-1.1s0.3-0.8,0.8-1.1c0.5-0.3,1.1-0.4,1.8-0.4
	S143,104.6,143.5,104.9z"/>
<path id="Layer4_3_MEMBER_239_1_STROKES" class="st6" d="M193.5,135.6l-3.7,2.1"/>
<path id="Layer4_3_MEMBER_240_1_STROKES" class="st6" d="M189.1,138.9v6.1"/>
<path id="Layer4_3_MEMBER_241_1_STROKES" class="st6" d="M190.1,145.5l4.3-2.4"/>
<path id="Layer4_3_MEMBER_242_1_STROKES" class="st6" d="M189.8,145.7h-0.3l-0.1-0.1l-0.1-0.1h0v0h0v0h0v-0.1h0v-0.1h0
	c-0.1-0.1-0.1-0.2-0.1-0.4"/>
<path id="Layer4_3_MEMBER_243_1_STROKES" class="st6" d="M189.1,138.9v-0.2l0,0v-0.1l0,0v-0.1l0,0v0h0v-0.1l0,0v-0.1l0.1-0.1v0l0,0
	v0h0v-0.1h0l0,0v0l0.1-0.2"/>
<path id="Layer4_3_MEMBER_244_1_STROKES" class="st6" d="M123,107.4l-3.7-2.2"/>
<path id="Layer4_3_MEMBER_245_1_STROKES" class="st6" d="M189.3,145.5l-13.9-8"/>
<path id="Layer4_3_MEMBER_246_1_STROKES" class="st6" d="M194.4,143.1l-5.2-3"/>
<path id="Layer4_3_MEMBER_247_1_STROKES" class="st6" d="M133.8,100.6l-10.1-5.8"/>
<path id="Layer4_3_MEMBER_248_1_STROKES" class="st6" d="M193.5,135.6l-7.8-4.5"/>
<path id="Layer4_3_MEMBER_249_1_STROKES" class="st6" d="M187.6,137.5l-6.3-3.5"/>
<path id="Layer4_3_MEMBER_250_1_STROKES" class="st6" d="M123.7,94.8l-4.2,2.4"/>
<path id="Layer4_3_MEMBER_251_1_STROKES" class="st6" d="M118.8,98.4v6.1"/>
<path id="Layer4_3_MEMBER_252_1_STROKES" class="st6" d="M119.1,105.1L119.1,105.1L119.1,105.1L119.1,105.1L119,105l-0.1-0.2"/>
<path id="Layer4_3_MEMBER_253_1_STROKES" class="st6" d="M118.8,98.2L118.8,98.2l0-0.1l0,0v0l0,0v-0.1l0,0v0l0,0v0h0v-0.1l0.1-0.1v0
	h0v-0.1h0l0,0"/>
<path id="Layer4_3_MEMBER_254_1_STROKES" class="st6" d="M128.9,103.7l-9.9-5.8"/>
<path id="Layer4_3_MEMBER_255_1_STROKES" class="st6" d="M141.7,107.1c-0.4,0-0.8-0.1-1.1-0.2c-0.3-0.2-0.4-0.4-0.4-0.6
	c0-0.3,0.1-0.5,0.4-0.6c0.3-0.2,0.7-0.3,1.1-0.3c0.4,0,0.8,0.1,1.1,0.3c0.3,0.2,0.4,0.4,0.4,0.6c0,0.3-0.1,0.5-0.4,0.6
	C142.5,107,142.1,107.1,141.7,107.1z"/>
<path id="Layer4_3_MEMBER_256_1_STROKES" class="st6" d="M163.7,107.6c0,0.3-0.2,0.5-0.5,0.7c-0.3,0.2-0.7,0.3-1.2,0.3
	c-0.5,0-0.9-0.1-1.2-0.3c-0.3-0.2-0.5-0.4-0.5-0.7c0-0.3,0.2-0.5,0.5-0.7c0.3-0.2,0.7-0.3,1.2-0.3c0.4,0,0.8,0.1,1.2,0.3
	C163.5,107.1,163.7,107.4,163.7,107.6z"/>
<path id="Layer4_3_MEMBER_257_1_STROKES" class="st6" d="M162.1,107.7l-0.9,0.4L161,108"/>
<path id="Layer4_3_MEMBER_258_1_STROKES" class="st6" d="M161.7,107.5l-0.6-0.5"/>
<path id="Layer4_3_MEMBER_259_1_STROKES" class="st6" d="M161.3,106.9l-0.2,0.1"/>
<path id="Layer4_3_MEMBER_260_1_STROKES" class="st6" d="M162.1,107.7l0.9,0.4l0.2-0.2"/>
<path id="Layer4_3_MEMBER_261_1_STROKES" class="st6" d="M162.5,107.5l0.6-0.5"/>
<path id="Layer4_3_MEMBER_262_1_STROKES" class="st6" d="M162.9,106.9l0.2,0.1"/>
<path id="Layer4_3_MEMBER_263_1_STROKES" class="st6" d="M178.2,117.8c0.4,0,0.8-0.1,1.2-0.3c0.3-0.2,0.5-0.4,0.5-0.7
	c0-0.3-0.2-0.5-0.5-0.7c-0.3-0.2-0.7-0.3-1.2-0.3c-0.5,0-0.9,0.1-1.2,0.3c-0.3,0.2-0.5,0.4-0.5,0.7c0,0.3,0.2,0.5,0.5,0.7
	C177.4,117.8,177.7,117.8,178.2,117.8z"/>
<path id="Layer4_3_MEMBER_264_1_STROKES" class="st6" d="M178.2,117l-0.9,0.4l-0.2-0.2"/>
<path id="Layer4_3_MEMBER_265_1_STROKES" class="st6" d="M177.8,116.8l-0.6-0.5"/>
<path id="Layer4_3_MEMBER_266_1_STROKES" class="st6" d="M177.4,116.2l-0.2,0.1"/>
<path id="Layer4_3_MEMBER_267_1_STROKES" class="st6" d="M178.2,117l0.9,0.4l0.2-0.2"/>
<path id="Layer4_3_MEMBER_268_1_STROKES" class="st6" d="M178.6,116.8l0.6-0.5"/>
<path id="Layer4_3_MEMBER_269_1_STROKES" class="st6" d="M179,116.2l0.2,0.1"/>
<path id="Layer4_3_MEMBER_270_1_STROKES" class="st6" d="M160.9,95.9c0,0.3-0.2,0.5-0.5,0.7c-0.3,0.2-0.7,0.3-1.2,0.3
	c-0.4,0-0.8-0.1-1.2-0.3s-0.5-0.4-0.5-0.7c0-0.3,0.2-0.5,0.5-0.6s0.7-0.3,1.2-0.3c0.5,0,0.9,0.1,1.2,0.3
	C160.7,95.4,160.9,95.6,160.9,95.9z"/>
<path id="Layer4_3_MEMBER_271_1_STROKES" class="st6" d="M159.2,96l-0.9,0.4l-0.2-0.2"/>
<path id="Layer4_3_MEMBER_272_1_STROKES" class="st6" d="M158.8,95.8l-0.6-0.4"/>
<path id="Layer4_3_MEMBER_273_1_STROKES" class="st6" d="M158.4,95.2l-0.2,0.2"/>
<path id="Layer4_3_MEMBER_274_1_STROKES" class="st6" d="M159.2,96l0.9,0.4l0.2-0.2"/>
<path id="Layer4_3_MEMBER_275_1_STROKES" class="st6" d="M159.6,95.8l0.6-0.4"/>
<path id="Layer4_3_MEMBER_276_1_STROKES" class="st6" d="M160,95.2l0.2,0.2"/>
<path id="Layer4_3_MEMBER_277_1_STROKES" class="st6" d="M181.8,83.9c0-0.3-0.2-0.5-0.5-0.7c-0.3-0.2-0.7-0.3-1.2-0.3
	s-0.8,0.1-1.2,0.3c-0.3,0.2-0.5,0.4-0.5,0.7c0,0.3,0.2,0.5,0.5,0.7c0.3,0.2,0.7,0.3,1.2,0.3s0.8-0.1,1.2-0.3
	C181.6,84.4,181.8,84.1,181.8,83.9z"/>
<path id="Layer4_3_MEMBER_278_1_STROKES" class="st6" d="M180.1,84l-0.9,0.4l-0.2-0.2"/>
<path id="Layer4_3_MEMBER_279_1_STROKES" class="st6" d="M179.8,83.7l-0.6-0.4"/>
<path id="Layer4_3_MEMBER_280_1_STROKES" class="st6" d="M179.4,83.2l-0.2,0.2"/>
<path id="Layer4_3_MEMBER_281_1_STROKES" class="st6" d="M180.1,84l0.9,0.4l0.2-0.2"/>
<path id="Layer4_3_MEMBER_282_1_STROKES" class="st6" d="M180.5,83.7l0.6-0.4"/>
<path id="Layer4_3_MEMBER_283_1_STROKES" class="st6" d="M180.9,83.2l0.2,0.2"/>
<path id="Layer4_3_MEMBER_284_1_STROKES" class="st6" d="M203.8,71.2c0,0.3-0.2,0.5-0.5,0.7c-0.3,0.2-0.7,0.3-1.2,0.3
	c-0.4,0-0.8-0.1-1.2-0.3c-0.3-0.2-0.5-0.4-0.5-0.7c0-0.3,0.2-0.5,0.5-0.7c0.3-0.2,0.7-0.3,1.2-0.3c0.4,0,0.8,0.1,1.2,0.3
	C203.7,70.7,203.8,70.9,203.8,71.2z"/>
<path id="Layer4_3_MEMBER_285_1_STROKES" class="st6" d="M202.2,71.3l-0.9,0.4l-0.2-0.2"/>
<path id="Layer4_3_MEMBER_286_1_STROKES" class="st6" d="M201.8,71.1l-0.6-0.5"/>
<path id="Layer4_3_MEMBER_287_1_STROKES" class="st6" d="M201.4,70.5l-0.2,0.1"/>
<path id="Layer4_3_MEMBER_288_1_STROKES" class="st6" d="M202.2,71.3l0.8,0.4l0.2-0.2"/>
<path id="Layer4_3_MEMBER_289_1_STROKES" class="st6" d="M202.6,71.1l0.6-0.5"/>
<path id="Layer4_3_MEMBER_290_1_STROKES" class="st6" d="M203,70.5l0.2,0.1"/>
<path id="Layer4_3_MEMBER_291_1_STROKES" class="st6" d="M164.3,117.6c0-0.4-0.2-0.7-0.7-1c-0.5-0.3-1.1-0.4-1.8-0.4
	s-1.3,0.1-1.8,0.4c-0.5,0.3-0.8,0.6-0.8,1c0,0.4,0.3,0.8,0.8,1c0.5,0.3,1.1,0.4,1.8,0.4s1.3-0.1,1.8-0.4
	C164,118.3,164.3,118,164.3,117.6z"/>
<path id="Layer4_3_MEMBER_292_1_STROKES" class="st6" d="M161.8,117.7l-1.3,0.7l-0.4-0.2"/>
<path id="Layer4_3_MEMBER_293_1_STROKES" class="st6" d="M161.2,117.4l-1-0.7"/>
<path id="Layer4_3_MEMBER_294_1_STROKES" class="st6" d="M160.6,116.5l-0.4,0.2"/>
<path id="Layer4_3_MEMBER_295_1_STROKES" class="st6" d="M161.8,117.7l1.3,0.7l0.3-0.2"/>
<path id="Layer4_3_MEMBER_296_1_STROKES" class="st6" d="M162.4,117.4l1-0.7"/>
<path id="Layer4_3_MEMBER_297_1_STROKES" class="st6" d="M163,116.5l0.4,0.2"/>
<path id="Layer4_3_MEMBER_298_1_STROKES" class="st6" d="M218,63.4l0.2,0c0.9-0.3,1.7-0.2,2.3,0.3l0.1,0.1"/>
<path id="Layer4_3_MEMBER_299_1_STROKES" class="st6" d="M166.9,129.2c0.3-0.2,0.7-0.3,1.2-0.3c0.5,0,0.9,0.1,1.3,0.3"/>
<path id="Layer4_3_MEMBER_300_1_STROKES" class="st6" d="M136.6,111.7c0.3-0.3,0.7-0.4,1.3-0.4c0.5,0,0.9,0.1,1.2,0.3"/>
<path id="Layer4_3_MEMBER_301_1_STROKES" class="st6" d="M188.2,46.6l1.7,1"/>
<path id="Layer4_3_MEMBER_302_1_STROKES" class="st6" d="M118.8,101.8l-21-12.1"/>
<path id="Layer4_3_MEMBER_303_1_STROKES" class="st6" d="M121.8,95.9l-25.3-14"/>
<path id="Layer4_3_MEMBER_304_1_STROKES" class="st6" d="M107.8,80.4c-0.8-1-1.1-2.4-0.9-4.3c0.2-1.8,0.8-3.6,1.9-5.5
	c1.1-1.8,2.3-3.2,3.8-4.3c1.5-1.1,2.8-1.5,4.1-1.4"/>
<path id="Layer4_3_MEMBER_305_1_STROKES" class="st6" d="M127.2,91.9l-0.3-0.2c-1.3-0.7-1.9-2.1-1.9-4.2c0-2.1,0.6-4.2,1.9-6.4
	c1.3-2.2,2.8-3.8,4.6-4.8c1.8-1,3.3-1.2,4.6-0.5"/>
<path id="Layer4_3_MEMBER_306_1_STROKES" class="st6" d="M129.9,93.6c-1.5,0.5-2.8,0.4-3.8-0.2c-1.5-0.9-2.3-2.6-2.3-5
	c0-2.5,0.8-5.1,2.3-7.7c1.5-2.7,3.4-4.6,5.5-5.8c2.1-1.3,4-1.4,5.5-0.6c1.1,0.6,1.8,1.7,2.1,3.2"/>
<path id="Layer4_3_MEMBER_307_1_STROKES" class="st6" d="M123,91.6l-0.2-0.1c-1.5-0.9-2.3-2.6-2.3-5.1c0-2.5,0.8-5.1,2.3-7.7
	c1.5-2.6,3.3-4.6,5.5-5.8c2.1-1.2,4-1.4,5.5-0.6"/>
<path id="Layer4_3_MEMBER_308_1_STROKES" class="st6" d="M114.4,84.4l-0.3-0.1c-1.3-0.7-1.9-2.1-1.9-4.2c0-2.1,0.6-4.2,1.9-6.4
	c1.3-2.2,2.8-3.8,4.6-4.9c1.8-1,3.3-1.2,4.6-0.5l0.2,0.1"/>
<path id="Layer4_3_MEMBER_309_1_STROKES" class="st6" d="M117.2,86c-1.6,0.6-2.9,0.5-4-0.1c-1.5-0.9-2.3-2.6-2.3-5.1
	c0-2.5,0.8-5.1,2.3-7.7s3.4-4.6,5.5-5.8c2.1-1.2,4-1.4,5.5-0.5c1.1,0.6,1.8,1.7,2.1,3.3"/>
<path id="Layer4_3_MEMBER_310_1_STROKES" class="st6" d="M110,84c-1.5-0.9-2.3-2.6-2.3-5c0-2.5,0.8-5.1,2.3-7.7
	c1.5-2.6,3.3-4.6,5.5-5.8c2.1-1.2,4-1.4,5.5-0.6"/>
<path id="Layer4_3_MEMBER_311_1_STROKES" class="st6" d="M137,74.2l-3.2-1.9"/>
<path id="Layer4_3_MEMBER_312_1_STROKES" class="st6" d="M124.2,66.7l-3.3-1.9"/>
<path id="Layer4_3_MEMBER_313_1_STROKES" class="st6" d="M126.1,93.4l-3.2-1.9"/>
<path id="Layer4_3_MEMBER_314_1_STROKES" class="st6" d="M113.2,85.9L110,84"/>
<path id="Layer4_3_MEMBER_315_1_STROKES" class="st6" d="M129.9,72.2l-6.7-3.9"/>
<path id="Layer4_3_MEMBER_316_1_STROKES" class="st6" d="M120.7,88.2l-6.6-3.8"/>
<path id="Layer4_3_MEMBER_317_1_STROKES" class="st6" d="M140,78l-3.9-2.3"/>
<path id="Layer4_3_MEMBER_318_1_STROKES" class="st6" d="M130.9,94.1l-3.9-2.3"/>
<path id="Layer4_3_MEMBER_319_1_STROKES" class="st6" d="M176.9,53.2v0.5c0,3-1.8,5.5-5.5,7.6c-3.7,2.1-8.1,3.1-13.2,3.1
	c-5.2,0-9.6-1-13.2-3.1c-3.7-2.1-5.5-4.6-5.5-7.6l0.1-0.8"/>
<path id="Layer4_3_MEMBER_320_1_STROKES" class="st6" d="M176.7,51.1l0.2,0.6v1.7l-0.5,1.7l-0.9,1.6c-1.6,2.1-4,3.8-7.3,5
	c-3,1.1-6.4,1.7-10,1.6c-3.7,0-7-0.6-10-1.7c-3.2-1.2-5.7-2.9-7.2-5l-0.9-1.6l-0.5-1.7l0-1.7l0.2-0.8"/>
<path id="Layer4_3_MEMBER_321_1_STROKES" class="st6" d="M176.9,54.3v-2.2"/>
<path id="Layer4_3_MEMBER_322_1_STROKES" class="st6" d="M139.6,54.2v-0.5"/>
<path id="Layer4_3_MEMBER_323_1_STROKES" class="st6" d="M176.9,48.4v1.7l-0.5,1.7l-0.9,1.6c-1.6,2.1-4,3.8-7.3,5
	c-3,1.1-6.4,1.7-10,1.6c-3.6,0-7-0.6-10-1.7c-3.2-1.2-5.7-2.9-7.3-5l-0.9-1.6l-0.5-1.7v-1.3"/>
<path id="Layer4_3_MEMBER_324_1_STROKES" class="st6" d="M176.9,47l0.1,0.8c0,3-1.8,5.5-5.5,7.6c-3.7,2.1-8.1,3.1-13.2,3.1
	c-5.2,0-9.6-1-13.2-3.1c-3.7-2.1-5.5-4.7-5.5-7.6c0-0.3,0-0.6,0.1-0.9"/>
<path id="Layer4_3_MEMBER_325_1_STROKES" class="st6" d="M176.9,47l-3.5-26.3"/>
<path id="Layer4_3_MEMBER_326_1_STROKES" class="st6" d="M143.2,21L139.6,47"/>
<path id="Layer4_3_MEMBER_327_1_STROKES" class="st6" d="M158.2,9.4c4.3,0,8,0.9,11.1,2.6c3.1,1.8,4.6,3.9,4.6,6.4
	c0,2.5-1.5,4.6-4.6,6.4c-3.1,1.8-6.8,2.7-11.1,2.7c-4.3,0-8-0.9-11.1-2.7c-3.1-1.8-4.6-3.9-4.6-6.4c0-2.5,1.5-4.6,4.6-6.4
	C150.2,10.3,153.9,9.4,158.2,9.4z"/>
<path id="Layer4_3_MEMBER_328_1_STROKES" class="st6" d="M148.2,12.7c-2.8,1.6-4.1,3.5-4.1,5.8c0,2.2,1.4,4.2,4.1,5.8
	c2.8,1.6,6.1,2.4,10,2.4s7.2-0.8,10-2.4c2.8-1.6,4.1-3.5,4.1-5.8c0-2.2-1.4-4.2-4.1-5.8c-2.8-1.6-6.1-2.4-10-2.4
	S151,11.1,148.2,12.7z"/>
<path id="Layer4_3_MEMBER_329_1_STROKES" class="st6" d="M156.6,74l-2.5-0.3c-1.8-0.3-3.5-0.8-5.1-1.5c-1.8-0.8-3.3-1.8-4.3-3
	l-1-1.3"/>
<path id="Layer4_3_MEMBER_330_1_STROKES" class="st6" d="M173.5,65.1l-0.2,1.5l-0.6,1.5c-1,1.7-2.7,3-5,4.1
	c-1.8,0.8-3.9,1.4-6.3,1.7l-2.6,0.2"/>
<path id="Layer4_3_MEMBER_331_1_STROKES" class="st6" d="M143.5,62l0.5-0.9l0.3-0.3"/>
<path id="Layer4_3_MEMBER_332_1_STROKES" class="st6" d="M156.6,73.1l-2.5-0.3c-1.9-0.3-3.6-0.8-5.2-1.5c-1.9-0.9-3.4-1.9-4.4-3.1
	l-0.9-1.4"/>
<path id="Layer4_3_MEMBER_333_1_STROKES" class="st6" d="M173.2,62.4c0.3,0.6,0.4,1.3,0.4,1.9c0,2.4-1.4,4.4-4.2,6.1
	c-2.8,1.7-6.3,2.6-10.4,2.7"/>
<path id="Layer4_3_MEMBER_334_1_STROKES" class="st6" d="M172.2,60.8l0.6,0.8l0.3,0.7"/>
<path id="Layer4_3_MEMBER_335_1_STROKES" class="st6" d="M156.4,72l-2.1-0.2c-2.1-0.4-4-1-5.6-1.9c-2-1.2-3.3-2.6-3.8-4.3l-0.2-1.2"
	/>
<path id="Layer4_3_MEMBER_336_1_STROKES" class="st6" d="M171.7,63.7l0,1.2c-0.3,2-1.7,3.7-4.2,5.1c-2,1.1-4.2,1.7-6.6,2l-2.1,0.2"
	/>
<path id="Layer4_3_MEMBER_337_1_STROKES" class="st6" d="M171.7,63.8v-2.7"/>
<path id="Layer4_3_MEMBER_338_1_STROKES" class="st6" d="M144.7,64.3V61"/>
<path id="Layer4_3_MEMBER_339_1_STROKES" class="st6" d="M175.8,51.6l-3.8-28.8"/>
<path id="Layer4_3_MEMBER_340_1_STROKES" class="st6" d="M174.1,53.6l-3.9-29.3"/>
<path id="Layer4_3_MEMBER_341_1_STROKES" class="st6" d="M172.2,55l-3.9-29.6"/>
<path id="Layer4_3_MEMBER_342_1_STROKES" class="st6" d="M170.4,56l-4-29.9"/>
<path id="Layer4_3_MEMBER_343_1_STROKES" class="st6" d="M168.3,56.9l-3.5-30.2"/>
<path id="Layer4_3_MEMBER_344_1_STROKES" class="st6" d="M157.8,27.5v31.1"/>
<path id="Layer4_3_MEMBER_345_1_STROKES" class="st6" d="M162.9,27.1l2.4,30.7"/>
<path id="Layer4_3_MEMBER_346_1_STROKES" class="st6" d="M161,27.4l1.7,31"/>
<path id="Layer4_3_MEMBER_347_1_STROKES" class="st6" d="M159.5,27.5l0.6,31.1"/>
<path id="Layer4_3_MEMBER_348_1_STROKES" class="st6" d="M140,50.2l3.7-28.2"/>
<path id="Layer4_3_MEMBER_349_1_STROKES" class="st6" d="M141.7,52.7l3.8-28.9"/>
<path id="Layer4_3_MEMBER_350_1_STROKES" class="st6" d="M143.4,54.4l3.9-29.4"/>
<path id="Layer4_3_MEMBER_351_1_STROKES" class="st6" d="M145.3,55.6l4-29.7"/>
<path id="Layer4_3_MEMBER_352_1_STROKES" class="st6" d="M147.4,56.6l3.5-30.1"/>
<path id="Layer4_3_MEMBER_353_1_STROKES" class="st6" d="M152.7,26.9l-2.4,30.6"/>
<path id="Layer4_3_MEMBER_354_1_STROKES" class="st6" d="M154.6,27.3l-1.6,30.9"/>
<path id="Layer4_3_MEMBER_355_1_STROKES" class="st6" d="M156.1,27.4l-0.6,31"/>
<path id="Layer4_3_MEMBER_356_1_STROKES" class="st6" d="M158.9,74.8c0,0.2-0.1,0.3-0.3,0.5c-0.2,0.1-0.5,0.2-0.8,0.2
	c-0.3,0-0.6-0.1-0.8-0.2c-0.2-0.1-0.3-0.3-0.3-0.5"/>
<path id="Layer4_3_MEMBER_357_1_STROKES" class="st6" d="M158.9,61.8c0,0.2-0.1,0.4-0.3,0.5c-0.2,0.1-0.5,0.2-0.8,0.2
	s-0.6-0.1-0.8-0.2c-0.2-0.1-0.3-0.3-0.3-0.5c0-0.2,0.1-0.3,0.3-0.5c0.2-0.1,0.5-0.2,0.8-0.2s0.6,0.1,0.8,0.2
	C158.8,61.5,158.9,61.6,158.9,61.8z"/>
<path id="Layer4_3_MEMBER_358_1_STROKES" class="st6" d="M158.9,74.8V64.4"/>
<path id="Layer4_3_MEMBER_359_1_STROKES" class="st6" d="M156.6,64.4v10.3"/>
<path id="Layer4_3_MEMBER_360_1_STROKES" class="st6" d="M175.9,65.2c0,0.2-0.1,0.4-0.3,0.5c-0.2,0.1-0.5,0.2-0.8,0.2
	c-0.3,0-0.6-0.1-0.8-0.2c-0.2-0.1-0.3-0.3-0.3-0.5"/>
<path id="Layer4_3_MEMBER_361_1_STROKES" class="st6" d="M175.9,65.2v-7.9"/>
<path id="Layer4_3_MEMBER_362_1_STROKES" class="st6" d="M173.6,60v5.1"/>
<path id="Layer4_3_MEMBER_363_1_STROKES" class="st6" d="M158.2,11.9c3.3,0,6.2,0.7,8.5,2c2.3,1.4,3.5,3,3.5,4.9
	c0,1.9-1.2,3.6-3.5,4.9c-2.4,1.4-5.2,2-8.5,2c-3.3,0-6.2-0.7-8.5-2c-2.4-1.4-3.5-3-3.5-4.9c0-1.9,1.2-3.6,3.5-4.9
	C152,12.5,154.9,11.9,158.2,11.9z"/>
<path id="Layer4_3_MEMBER_364_1_STROKES" class="st6" d="M158.5,24.9c-2.6,0-4.9-0.5-6.7-1.6c-1.9-1.1-2.8-2.4-2.8-3.9
	c0-1.5,0.9-2.8,2.8-3.9c1.9-1.1,4.1-1.6,6.7-1.6c2.6,0,4.9,0.5,6.7,1.6c1.9,1.1,2.8,2.4,2.8,3.9c0,1.5-0.9,2.8-2.8,3.9
	C163.4,24.4,161.1,24.9,158.5,24.9z"/>
<path id="Layer4_3_MEMBER_365_1_STROKES" class="st6" d="M149,20c0.3-1.4,1.3-2.6,3.1-3.5c1.8-0.9,4-1.4,6.4-1.4
	c2.5,0,4.6,0.5,6.4,1.4c1.8,0.9,2.9,2.1,3.1,3.5"/>
<path id="Layer4_3_MEMBER_366_1_STROKES" class="st6" d="M143.8,91.9c0.5-0.3,0.7-0.6,0.7-1c0-0.4-0.2-0.7-0.7-1
	c-0.5-0.3-1.1-0.4-1.8-0.4c-0.7,0-1.3,0.1-1.8,0.4c-0.5,0.3-0.8,0.6-0.8,1c0,0.4,0.3,0.8,0.8,1c0.5,0.3,1.1,0.4,1.8,0.4
	C142.7,92.4,143.3,92.2,143.8,91.9z"/>
<path id="Layer4_3_MEMBER_367_1_STROKES" class="st6" d="M142,91.1l-1.3,0.6l-0.3-0.2"/>
<path id="Layer4_3_MEMBER_368_1_STROKES" class="st6" d="M141.4,90.7l-1-0.7"/>
<path id="Layer4_3_MEMBER_369_1_STROKES" class="st6" d="M140.8,89.8l-0.4,0.2"/>
<path id="Layer4_3_MEMBER_370_1_STROKES" class="st6" d="M142,91.1l1.3,0.6l0.3-0.2"/>
<path id="Layer4_3_MEMBER_371_1_STROKES" class="st6" d="M142.6,90.7l1-0.7"/>
<path id="Layer4_3_MEMBER_372_1_STROKES" class="st6" d="M143.2,89.8l0.4,0.2"/>
<path id="Layer4_3_MEMBER_373_1_STROKES" class="st6" d="M99.2,81.9c0.5,0.3,1.1,0.4,1.8,0.4c0.7,0,1.3-0.1,1.8-0.4
	c0.5-0.3,0.7-0.6,0.7-1c0-0.4-0.2-0.7-0.7-1c-0.5-0.3-1.1-0.4-1.8-0.4c-0.7,0-1.3,0.1-1.8,0.4c-0.5,0.3-0.7,0.6-0.7,1
	C98.5,81.2,98.7,81.6,99.2,81.9z"/>
<path id="Layer4_3_MEMBER_374_1_STROKES" class="st6" d="M101,81l-1.3,0.6l-0.3-0.2"/>
<path id="Layer4_3_MEMBER_375_1_STROKES" class="st6" d="M100.4,80.7l-1-0.7"/>
<path id="Layer4_3_MEMBER_376_1_STROKES" class="st6" d="M99.8,79.8L99.4,80"/>
<path id="Layer4_3_MEMBER_377_1_STROKES" class="st6" d="M101,81l1.3,0.6l0.3-0.2"/>
<path id="Layer4_3_MEMBER_378_1_STROKES" class="st6" d="M101.6,80.7l1-0.7"/>
<path id="Layer4_3_MEMBER_379_1_STROKES" class="st6" d="M102.2,79.8l0.4,0.2"/>
<path id="Layer4_3_MEMBER_380_1_STROKES" class="st6" d="M146.3,18.8c0.4-1.7,1.7-3.2,4-4.3c2.3-1.2,4.9-1.7,8-1.7
	c3.2,0,5.9,0.6,8.2,1.9c2.3,1.3,3.6,2.8,3.8,4.6"/>
<path id="Layer4_3_MEMBER_381_1_STROKES" class="st6" d="M144.2,18.7c0.3-2.1,1.8-3.9,4.5-5.3c2.7-1.4,5.9-2.1,9.5-2.1
	c3.6,0,6.8,0.7,9.5,2.1c2.7,1.4,4.2,3.2,4.5,5.2"/>
<path id="Layer4_3_MEMBER_382_1_STROKES" class="st6" d="M143.6,66.8l-0.1-0.5c-0.3-0.8-0.4-1.4-0.4-2c0-0.4,0.2-1.1,0.4-2l0.1-0.2"
	/>
<path id="Layer4_3_MEMBER_383_1_STROKES" class="st6" d="M143.7,67.9l-0.2-0.6c-0.2-0.6-0.4-1-0.5-1.3c-0.2-0.5-0.2-1-0.2-1.4"/>
<path id="Layer4_3_MEMBER_384_1_STROKES" class="st6" d="M119.1,93c-0.7,0-1.3-0.1-1.8-0.4c-0.5-0.3-0.8-0.6-0.8-1s0.3-0.7,0.8-1
	c0.5-0.3,1.1-0.4,1.8-0.4c0.7,0,1.3,0.1,1.8,0.4c0.5,0.3,0.7,0.6,0.7,1s-0.2,0.7-0.7,1C120.4,92.9,119.8,93,119.1,93z"/>
<path id="Layer4_3_MEMBER_385_1_STROKES" class="st6" d="M119.1,91.8l-1.3,0.6l-0.3-0.2"/>
<path id="Layer4_3_MEMBER_386_1_STROKES" class="st6" d="M118.5,91.4l-1-0.7"/>
<path id="Layer4_3_MEMBER_387_1_STROKES" class="st6" d="M117.9,90.5l-0.3,0.2"/>
<path id="Layer4_3_MEMBER_388_1_STROKES" class="st6" d="M119.1,91.8l1.3,0.6l0.3-0.2"/>
<path id="Layer4_3_MEMBER_389_1_STROKES" class="st6" d="M119.7,91.4l1-0.7"/>
<path id="Layer4_3_MEMBER_390_1_STROKES" class="st6" d="M120.3,90.5l0.4,0.2"/>
<path id="Layer4_3_MEMBER_391_1_STROKES" class="st6" d="M120.4,96.8L96.5,83.6"/>
<path id="Layer4_3_MEMBER_392_1_STROKES" class="st6" d="M140.9,87.1c-0.3,0.7-0.6,1.2-0.8,1.6c-1.3,2.2-2.8,3.8-4.6,4.9
	c-1.8,1.1-3.4,1.2-4.6,0.5c-1.3-0.7-1.9-2.1-1.9-4.2s0.6-4.2,1.9-6.4c1.3-2.2,2.8-3.8,4.6-4.9c1.8-1,3.3-1.2,4.6-0.5
	c1,0.6,1.6,1.6,1.9,3.1c0.2,1.5,0,3.2-0.7,5"/>
<path id="Layer4_3_MEMBER_393_1_STROKES" class="st6" d="M141.3,86.1l-0.4,0.9"/>
<path id="Layer4_3_MEMBER_394_1_STROKES" class="st6" d="M144.9,79.8l-0.1,0.1l-0.3,0.4l0,0.1l0,0h-0.1c-0.5-0.1-1-0.1-1.5,0h-0.1
	l0,0c-0.2-0.3-0.5-0.6-0.7-0.7"/>
<path id="Layer4_3_MEMBER_395_1_STROKES" class="st6" d="M143.6,80.4c0.4,0,0.7-0.1,1-0.2c0.3-0.2,0.4-0.3,0.4-0.6
	c0-0.2-0.1-0.4-0.4-0.6c-0.3-0.2-0.6-0.2-1-0.2s-0.7,0.1-0.9,0.2c-0.3,0.2-0.4,0.3-0.4,0.6c0,0.2,0.1,0.4,0.4,0.6
	C142.9,80.3,143.2,80.4,143.6,80.4z"/>
<path id="Layer4_3_MEMBER_396_1_STROKES" class="st6" d="M142.8,80.4v0.9"/>
<path id="Layer4_3_MEMBER_397_1_STROKES" class="st6" d="M144.4,80.4v0.9"/>
<path id="Layer4_3_MEMBER_398_1_STROKES" class="st6" d="M144.1,78.8c-0.3-0.1-0.7-0.1-1.3,0.1l0,0c-0.3,0.2-0.5,0.4-0.6,0.6
	l-0.1,0.1l0,0.1v0.9l0,0l0,0.1l0,0l0,0.1l0.1,0.1l0,0.1l0.1,0.1l0,0.1l0.2,0.2l0.1,0.1l0.1,0.1h0l0,0h0l0.1,0h0.1
	c0.3,0.1,0.6,0.1,0.9,0.1l0.1,0h0.1l0.3-0.1h0l0,0l0.1,0l0,0c0.1,0,0.2-0.1,0.3-0.3l0.1-0.1l0.1-0.1l0-0.1l0.1-0.1l0-0.1h0v-0.9
	l-0.1-0.1l-0.1-0.1c0-0.1-0.2-0.2-0.5-0.5l-0.1,0l-0.1-0.1h-0.1v0h-0.1l-0.1,0h-0.1l-0.1,0H144.1z"/>
<path id="Layer4_3_MEMBER_399_1_STROKES" class="st6" d="M142.7,81.4c-0.4-0.2-0.7-0.4-0.7-0.7"/>
<path id="Layer4_3_MEMBER_400_1_STROKES" class="st6" d="M145.2,80.8c-0.1,0.3-0.3,0.5-0.6,0.6"/>
<path id="Layer4_3_MEMBER_401_1_STROKES" class="st6" d="M143.6,78.7c-0.3,0-0.6,0.1-0.8,0.1v0h0c-0.1,0.1-0.2,0.2-0.4,0.3
	c-0.1,0.1-0.3,0.3-0.3,0.4v0.8h0l0,0.7l0,0v0c0,0.1,0.1,0.3,0.2,0.4l0.1,0.1h0c0.1,0.1,0.3,0.2,0.5,0.2l0,0h0
	c0.4,0.1,0.6,0.1,0.8,0.1h0.2c0.1,0,0.3,0,0.5-0.1h0.1c0.2-0.1,0.4-0.2,0.6-0.3l0,0h0v0l0,0l0.1-0.1l0,0v0l0,0v0l0,0v-0.1h0v-0.6
	l0,0v-0.9l-0.1-0.1c0-0.1-0.1-0.2-0.3-0.3l0-0.1l0,0l-0.1,0l-0.1-0.1l-0.1,0l0-0.1h-0.1v0h-0.1l-0.7-0.1H143.6z"/>
<path id="Layer4_3_MEMBER_402_1_STROKES" class="st6" d="M144.9,79.2c0.6,0.1,1,0.3,1.4,0.5c0.4,0.3,0.5,0.6,0.5,0.9
	c0,0.4-0.3,0.8-0.8,1.1"/>
<path id="Layer4_3_MEMBER_403_1_STROKES" class="st6" d="M146.7,81.9l0,0.2l-0.1,0.2l-0.2,0.2L146,83"/>
<path id="Layer4_3_MEMBER_404_1_STROKES" class="st6" d="M146.7,83.4l0,0.2l-0.1,0.2l-0.2,0.2l-0.2,0.2l-0.3,0.2"/>
<path id="Layer4_3_MEMBER_405_1_STROKES" class="st6" d="M146.7,81.9v-1.3"/>
<path id="Layer4_3_MEMBER_406_1_STROKES" class="st6" d="M146.7,83.4v-1.5"/>
<path id="Layer4_3_MEMBER_407_1_STROKES" class="st6" d="M141.8,84.1l4.2-2.4"/>
<path id="Layer4_3_MEMBER_408_1_STROKES" class="st6" d="M146,83l-4.5,2.6"/>
<path id="Layer4_3_MEMBER_409_1_STROKES" class="st6" d="M140.7,87.5l5.3-3.1"/>
<path id="Layer4_3_MEMBER_410_1_STROKES" class="st6" d="M141.6,79.9l0.6-0.4"/>
<path id="Layer4_3_MEMBER_411_1_STROKES" class="st6" d="M138.7,51.8l-21.6,12.4"/>
<path id="Layer4_3_MEMBER_412_1_STROKES" class="st6" d="M109.4,68.7l-12.9,7.4"/>
<path id="Layer4_3_MEMBER_413_1_STROKES" class="st6" d="M96.5,76.1c-0.5,0.3-0.9,0.7-1.2,1.2c-0.3,0.5-0.4,1.1-0.4,1.7
	c0,0.6,0.2,1.2,0.5,1.7c0.3,0.5,0.7,0.9,1.2,1.2"/>
<path id="Layer4_3_MEMBER_414_1_STROKES" class="st6" d="M94.9,80.4v0.3c0,0.6,0.2,1.1,0.5,1.7c0.3,0.5,0.7,0.9,1.2,1.2"/>
<path id="Layer4_3_MEMBER_415_1_STROKES" class="st6" d="M94.9,80.4v-1.6"/>
<path id="Layer4_3_MEMBER_416_1_STROKES" class="st6" d="M97.8,89.7l-0.3-0.2c-0.7-0.6-1.2-1.4-1.3-2.3l0-3.8"/>
<path id="Layer4_3_MEMBER_417_1_STROKES" class="st6" d="M254.8,50c-0.2,0.4-0.5,0.8-0.9,1c-0.4,0.2-0.7,0.2-0.9,0.1
	c-0.3-0.1-0.4-0.4-0.4-0.9c0-0.4,0.1-0.8,0.4-1.3c0.3-0.4,0.6-0.8,0.9-1c0.4-0.2,0.7-0.3,0.9-0.1c0.3,0.2,0.4,0.4,0.4,0.9
	C255.2,49.2,255,49.6,254.8,50z"/>
<path id="Layer4_3_MEMBER_418_1_STROKES" class="st6" d="M253.8,49.4l0.1-1.1l0.3-0.1"/>
<path id="Layer4_3_MEMBER_419_1_STROKES" class="st6" d="M254.2,49.2l0.8-0.4"/>
<path id="Layer4_3_MEMBER_420_1_STROKES" class="st6" d="M255,49.1l0-0.3"/>
<path id="Layer4_3_MEMBER_421_1_STROKES" class="st6" d="M253.7,49.5l-0.9,0.6l0,0.3"/>
<path id="Layer4_3_MEMBER_422_1_STROKES" class="st6" d="M253.7,49.9l0.1,0.9"/>
<path id="Layer4_3_MEMBER_423_1_STROKES" class="st6" d="M254.1,50.6l-0.3,0.2"/>
<path id="Layer4_3_MEMBER_424_1_STROKES" class="st6" d="M143,65.6c0,0.2-0.1,0.3-0.3,0.5c-0.2,0.1-0.5,0.2-0.8,0.2
	c-0.3,0-0.6-0.1-0.8-0.2c-0.2-0.1-0.3-0.3-0.3-0.5"/>
<path id="Layer4_3_MEMBER_425_1_STROKES" class="st6" d="M141.7,54.2c-0.3,0-0.6-0.1-0.8-0.2s-0.3-0.3-0.3-0.5
	c0-0.2,0.1-0.3,0.3-0.4"/>
<path id="Layer4_3_MEMBER_426_1_STROKES" class="st6" d="M143,65.6v-5.8"/>
<path id="Layer4_3_MEMBER_427_1_STROKES" class="st6" d="M140.7,56.8v8.7"/>
<path id="Layer4_3_MEMBER_428_1_STROKES" class="st7" d="M174.9,34.5l0.1-0.1l0.2-0.1l0.2-0.1l0.2,0l0.4,0.1l0.2,0.1l4.8,2.8
	l0.4,0.3c0.6,0.7,1,1.4,1.1,2.2v11"/>
<path id="Layer4_3_MEMBER_429_1_STROKES" class="st7" d="M178,47.8V43c0.1-0.7,0.4-0.8,1-0.4c0.6,0.4,0.9,0.9,0.8,1.5v4.7"/>
<path id="Layer4_3_MEMBER_430_1_STROKES" class="st7" d="M176.9,47.6l1.6,0.9"/>
<path id="Layer4_3_MEMBER_431_1_STROKES" class="st7" d="M180.4,49.6l3,1.7"/>
<path id="Layer4_3_MEMBER_432_1_STROKES" class="st7" d="M186.3,47.2l0.1,0.1c0.5,0.3,0.7,0.6,0.7,1c0,0.4-0.2,0.7-0.7,1l-2.3,1.3"
	/>
<path id="Layer4_3_MEMBER_433_1_STROKES" class="st7" d="M187.1,49v0.2c0,0.2-0.1,0.3-0.2,0.5c-0.1,0.2-0.3,0.3-0.5,0.3l-2.3,1.3"/>
<path id="Layer4_3_MEMBER_434_1_STROKES" class="st7" d="M176,33.8l0.1-0.1l0.2-0.1l0.2,0l0.4,0.1l0.2,0.1l4.6,2.7l0.4,0.3l0.4,0.4
	c0.5,0.6,0.8,1.3,0.9,2v11.1"/>
<path id="Layer4_3_MEMBER_435_1_STROKES" class="st7" d="M178.7,47.5v-5"/>
<path id="Layer4_3_MEMBER_436_1_STROKES" class="st7" d="M175.5,34.1l0.6-0.4"/>
<path id="Layer4_3_MEMBER_437_1_STROKES" class="st7" d="M187.1,48.4v0.8"/>
<path id="Layer4_3_MEMBER_438_1_STROKES" class="st7" d="M183.4,50.2l0,0.1c0.1,0.3,0.3,0.4,0.6,0.3l0.1-0.1"/>
<path id="Layer4_3_MEMBER_439_1_STROKES" class="st7" d="M182.7,50.5l0.1,0.3c0.2,0.5,0.5,0.7,1,0.6l0.3-0.1"/>
<path id="Layer4_3_MEMBER_440_1_STROKES" class="st7" d="M179.8,47.6l-0.4,0.2"/>
<path id="Layer4_3_MEMBER_441_1_STROKES" class="st7" d="M179.8,48.4l-0.4,0.2"/>
<path id="Layer4_3_MEMBER_442_1_STROKES" class="st7" d="M178.7,47.6c0,0.1,0.1,0.2,0.2,0.3c0.1,0.1,0.3,0,0.4,0l0.1,0"/>
<path id="Layer4_3_MEMBER_443_1_STROKES" class="st7" d="M178,47.8l0.1,0.3c0.2,0.5,0.5,0.7,1,0.6l0.3-0.1"/>
<path id="Layer4_3_MEMBER_444_1_STROKES" class="st7" d="M179.8,48.8l0.1,0.3l0.1,0.2l0.2,0.2l0.2,0.1"/>
<path id="Layer4_3_MEMBER_445_1_STROKES" class="st7" d="M185.3,39.9l2.2,1.3v2.6l-2.2-1.3V39.9z"/>
<path id="Layer4_3_MEMBER_446_1_STROKES" class="st7" d="M186.1,39.4l2.2,1.3v2.7"/>
<path id="Layer4_3_MEMBER_447_1_STROKES" class="st7" d="M187.5,41.1l0.8-0.5"/>
<path id="Layer4_3_MEMBER_448_1_STROKES" class="st7" d="M187.5,43.8l0.8-0.5"/>
<path id="Layer4_3_MEMBER_449_1_STROKES" class="st7" d="M185.3,39.9l0.9-0.5"/>
<path id="Layer4_3_MEMBER_450_1_STROKES" class="st7" d="M185.3,43.1l2.2,1.3V47l-2.2-1.2V43.1z"/>
<path id="Layer4_3_MEMBER_451_1_STROKES" class="st7" d="M187.8,43.6l0.5,0.3v2.7"/>
<path id="Layer4_3_MEMBER_452_1_STROKES" class="st7" d="M187.5,44.4l0.8-0.5"/>
<path id="Layer4_3_MEMBER_453_1_STROKES" class="st7" d="M187.5,47l0.8-0.5"/>
<path id="Layer4_3_MEMBER_454_1_STROKES" class="st7" d="M185.3,43.1l0.6-0.3"/>
<path id="Layer4_3_MEMBER_455_1_STROKES" class="st7" d="M178.4,32.7l1.5,0.9"/>
<path id="Layer4_3_MEMBER_456_1_STROKES" class="st7" d="M182.3,34.9l4.3,2.5v2.3"/>
<path id="Layer4_3_MEMBER_457_1_STROKES" class="st7" d="M186.6,46.6V47"/>
<path id="Layer4_3_MEMBER_458_1_STROKES" class="st7" d="M183.4,39.3l3.3-1.9"/>
<path id="Layer4_3_MEMBER_459_1_STROKES" class="st7" d="M176.7,33.7l1.7-1"/>
<path id="Layer4_3_MEMBER_460_1_STROKES" class="st7" d="M183.4,48.9l3.3-1.9"/>
<path id="Layer4_3_MEMBER_461_1_STROKES" class="st7" d="M186.2,39.5v-0.3l-1.1,0.6v6.3l0.3-0.2"/>
<path id="Layer4_3_MEMBER_462_1_STROKES" class="st7" d="M182.1,36.6c0.4-0.3,0.4-0.5,0.2-0.8"/>
<path id="Layer4_3_MEMBER_463_1_STROKES" class="st7" d="M179.9,35l-0.1,0.1l0,0.1"/>
<path id="Layer4_3_MEMBER_464_1_STROKES" class="st7" d="M181.2,36c0.4,0,0.7-0.1,0.9-0.2c0.3-0.1,0.4-0.3,0.4-0.5
	c0-0.1,0-0.2-0.1-0.3"/>
<path id="Layer4_3_MEMBER_465_1_STROKES" class="st7" d="M180,34.1c-0.1,0.2-0.2,0.3-0.2,0.4c0,0.2,0.1,0.4,0.4,0.5
	c0.3,0.1,0.6,0.2,0.9,0.2c0.4,0,0.7-0.1,0.9-0.2c0.3-0.1,0.4-0.3,0.4-0.5c0-0.1-0.1-0.2-0.2-0.4"/>
<path id="Layer4_3_MEMBER_466_1_STROKES" class="st7" d="M180,33.4c-0.1,0.1-0.2,0.2-0.2,0.3c0,0.2,0.1,0.4,0.4,0.6
	c0.3,0.1,0.6,0.2,0.9,0.2c0.4,0,0.7-0.1,0.9-0.2c0.3-0.2,0.4-0.3,0.4-0.6c0-0.1,0-0.2-0.1-0.3"/>
<path id="Layer4_3_MEMBER_467_1_STROKES" class="st7" d="M180.1,32.5c-0.2,0.1-0.3,0.3-0.3,0.5c0,0.2,0.1,0.4,0.4,0.5
	c0.3,0.1,0.6,0.2,0.9,0.2c0.4,0,0.7-0.1,0.9-0.2c0.3-0.1,0.4-0.3,0.4-0.5c0-0.2-0.1-0.3-0.3-0.5"/>
<path id="Layer4_3_MEMBER_468_1_STROKES" class="st7" d="M181.8,32.4c0-0.3-0.2-0.4-0.7-0.4c-0.4,0-0.7,0.1-0.7,0.4
	c0,0.3,0.2,0.4,0.7,0.4C181.6,32.8,181.8,32.7,181.8,32.4z"/>
<path id="Layer4_3_MEMBER_469_1_STROKES" class="st7" d="M180.1,32.5l0.5-0.3"/>
<path id="Layer4_3_MEMBER_470_1_STROKES" class="st7" d="M181.6,32.2l0.5,0.3"/>
<path id="Layer4_3_MEMBER_471_1_STROKES" class="st8" d="M181.7,40.8c0.1-0.1,0.2-0.2,0.2-0.4c0-0.2-0.1-0.4-0.2-0.6
	c-0.1-0.2-0.2-0.3-0.4-0.4c-0.2-0.1-0.3-0.1-0.4-0.1c-0.1,0.1-0.2,0.2-0.2,0.4c0,0.2,0.1,0.4,0.2,0.6c0.1,0.2,0.3,0.3,0.4,0.5
	C181.4,40.9,181.5,40.9,181.7,40.8z"/>
<path id="Layer4_3_MEMBER_472_1_STROKES" class="st7" d="M181.8,40.8c-0.1-0.1,0-0.3,0.2-0.6l0,0c-0.3-0.3-0.4-0.5-0.5-0.8v0
	c-0.4,0-0.6-0.1-0.6-0.2"/>
<path id="Layer4_3_MEMBER_473_1_STROKES" class="st7" d="M182.3,39.8l-0.1-0.2l-0.2-0.2l-0.1-0.2"/>
<path id="Layer4_3_MEMBER_474_1_STROKES" class="st7" d="M181.5,39.4l0.4-0.2"/>
<path id="Layer4_3_MEMBER_475_1_STROKES" class="st7" d="M182,40.2l0.4-0.2"/>
<path id="Layer4_3_MEMBER_476_1_STROKES" class="st7" d="M181.8,39.1l-0.1-0.1l-0.4-0.1h0l-0.1,0l-0.1,0.1l-0.1,0.1l-0.1,0.1h0v0h0
	l0,0.1l0,0.1l0,0v0.1l0,0v0l0,0v0.1l0,0v0.3l0,0V40l0,0v0.1l0,0v0l0,0l0,0.1v0l0,0v0c0.1,0.1,0.1,0.2,0.2,0.2v0.1h0l0.1,0.1h0v0
	l0.1,0v0h0l0,0h0l0,0h0c0.1,0.1,0.2,0.1,0.4,0.1h0.1l0.3-0.1l0.1-0.1l0.1,0h0v0h0v-0.1l0.1-0.3l0-0.2"/>
<path id="Layer4_3_MEMBER_477_1_STROKES" class="st7" d="M175.3,36c0.1,0.1,0.3,0.2,0.4,0.4c0.1,0.2,0.2,0.4,0.2,0.6
	c0,0.2-0.1,0.3-0.2,0.4c-0.1,0-0.1,0-0.2,0"/>
<path id="Layer4_3_MEMBER_478_1_STROKES" class="st7" d="M175.9,37.4c0-0.1,0-0.3,0.2-0.6l-0.3-0.3l-0.1-0.1
	c-0.1-0.1-0.1-0.3-0.1-0.3"/>
<path id="Layer4_3_MEMBER_479_1_STROKES" class="st7" d="M176.4,36.4l-0.1-0.2l-0.2-0.4"/>
<path id="Layer4_3_MEMBER_480_1_STROKES" class="st7" d="M175.6,36l0.4-0.2"/>
<path id="Layer4_3_MEMBER_481_1_STROKES" class="st7" d="M176.1,36.8l0.4-0.2"/>
<path id="Layer4_3_MEMBER_482_1_STROKES" class="st7" d="M175.9,35.7l-0.3-0.1l-0.2,0"/>
<path id="Layer4_3_MEMBER_483_1_STROKES" class="st7" d="M175.7,37.4h0.2l0.1-0.1l0.1-0.1l0.1-0.1l0.1,0h0v0l0.1-0.2l0-0.2l0.1-0.2"
	/>
<path id="Layer4_3_MEMBER_484_1_STROKES" class="st8" d="M181.7,49.5c-0.1,0.1-0.2,0.1-0.4,0c-0.2-0.1-0.3-0.3-0.4-0.5
	c-0.1-0.2-0.2-0.4-0.2-0.6c0-0.2,0.1-0.3,0.2-0.4c0.1-0.1,0.3-0.1,0.4,0.1c0.2,0.1,0.3,0.2,0.4,0.4c0.1,0.2,0.2,0.4,0.2,0.6
	C181.8,49.3,181.8,49.4,181.7,49.5z"/>
<path id="Layer4_3_MEMBER_485_1_STROKES" class="st7" d="M181.8,49.5v-0.2l0-0.1v-0.1l0.2-0.3l0,0c-0.3-0.3-0.4-0.5-0.5-0.8
	c-0.3,0-0.5-0.1-0.6-0.2"/>
<path id="Layer4_3_MEMBER_486_1_STROKES" class="st7" d="M182.4,48.6L182.4,48.6l-0.1-0.3l-0.3-0.4"/>
<path id="Layer4_3_MEMBER_487_1_STROKES" class="st7" d="M181.5,48.1l0.4-0.2"/>
<path id="Layer4_3_MEMBER_488_1_STROKES" class="st7" d="M182,48.9l0.4-0.2"/>
<path id="Layer4_3_MEMBER_489_1_STROKES" class="st7" d="M181.8,47.8l-0.1-0.1l-0.4-0.1h0l-0.1,0l-0.1,0.1l-0.1,0.1l-0.1,0.1l0,0
	l-0.1,0.3v0h0v0.1l0,0v0.3l0,0v0.1l0,0.1v0.1l0,0v0l0,0v0h0v0c0.1,0.2,0.2,0.3,0.4,0.5v0h0l0,0h0v0h0.1l0,0h0.1l0,0h0l0.1,0h0.2l0,0
	h0.1l0.2-0.1l0.2-0.1l0.1,0h0v0h0v-0.1l0.1-0.1l0.1-0.3"/>
<path id="Layer4_3_MEMBER_490_1_STROKES" class="st6" d="M247.8,74.8c-0.6,1-1.3,1.7-2.1,2.2c-0.8,0.5-1.5,0.5-2.1,0.2
	s-0.9-1-0.9-1.9c0-0.9,0.3-1.9,0.9-2.9c0.6-1,1.3-1.7,2.1-2.2c0.8-0.5,1.5-0.5,2.1-0.2c0.6,0.3,0.9,1,0.9,1.9
	C248.7,72.9,248.4,73.8,247.8,74.8z"/>
<path id="Layer4_3_MEMBER_491_1_STROKES" class="st6" d="M247.8,88.2c-0.6,1-1.3,1.7-2.1,2.2c-0.8,0.5-1.5,0.5-2.1,0.2
	c-0.6-0.3-0.9-1-0.9-1.9c0-0.9,0.3-1.9,0.9-2.9c0.6-1,1.3-1.7,2.1-2.2c0.8-0.5,1.5-0.5,2.1-0.2s0.9,1,0.9,1.9
	C248.7,86.3,248.4,87.2,247.8,88.2z"/>
<path id="Layer4_3_MEMBER_492_1_STROKES" class="st6" d="M238,93.8c0.6-1,0.9-2,0.9-2.9c0-0.9-0.3-1.6-0.9-1.9
	c-0.6-0.3-1.2-0.3-2.1,0.2c-0.8,0.5-1.5,1.2-2.1,2.2c-0.6,1-0.9,2-0.9,2.9c0,0.9,0.3,1.6,0.9,1.9c0.6,0.3,1.3,0.3,2.1-0.2
	C236.7,95.6,237.4,94.8,238,93.8z"/>
<path id="Layer4_3_MEMBER_493_1_STROKES" class="st6" d="M247.1,70c0.2,0.5,0.3,1.1,0.2,1.9c-0.1,0.8-0.4,1.5-0.8,2.2
	c-0.4,0.7-0.9,1.3-1.5,1.8c-0.6,0.5-1.2,0.8-1.7,0.8"/>
<path id="Layer4_3_MEMBER_494_1_STROKES" class="st6" d="M247.1,83.4c0.2,0.5,0.3,1.1,0.2,1.9c-0.1,0.8-0.4,1.5-0.8,2.2
	c-0.4,0.7-0.9,1.3-1.5,1.8c-0.6,0.5-1.2,0.7-1.7,0.8"/>
<path id="Layer4_3_MEMBER_495_1_STROKES" class="st6" d="M237.3,89c0.2,0.5,0.3,1.1,0.2,1.9c-0.1,0.8-0.4,1.5-0.8,2.2
	c-0.4,0.7-0.9,1.3-1.5,1.8c-0.6,0.5-1.1,0.7-1.7,0.8"/>
<path id="Layer4_3_MEMBER_496_1_STROKES" class="st6" d="M254.8,45.1c-0.2,0.4-0.5,0.8-0.9,1c-0.4,0.2-0.7,0.2-0.9,0.1
	c-0.3-0.1-0.4-0.4-0.4-0.8c0-0.4,0.1-0.8,0.4-1.3c0.3-0.4,0.6-0.8,0.9-1c0.4-0.2,0.7-0.2,0.9-0.1c0.3,0.1,0.4,0.4,0.4,0.8
	C255.2,44.2,255,44.7,254.8,45.1z"/>
<path id="Layer4_3_MEMBER_497_1_STROKES" class="st6" d="M253.7,43.3c-0.1,0.6-0.4,1.1-0.8,1.6l-0.2,0.2"/>
<path id="Layer4_3_MEMBER_498_1_STROKES" class="st6" d="M252.9,81.9c0.3-0.4,0.6-0.8,0.9-1c0.4-0.2,0.7-0.3,0.9-0.1
	c0.3,0.1,0.4,0.4,0.4,0.9c0,0.4-0.1,0.8-0.4,1.3c-0.2,0.4-0.5,0.8-0.9,1c-0.4,0.2-0.7,0.2-0.9,0.1c-0.3-0.1-0.4-0.4-0.4-0.8
	C252.6,82.7,252.7,82.3,252.9,81.9z"/>
<path id="Layer4_3_MEMBER_499_1_STROKES" class="st6" d="M253.8,82.3l0.1-1.1l0.3-0.1"/>
<path id="Layer4_3_MEMBER_500_1_STROKES" class="st6" d="M254.2,82.1l0.8-0.4"/>
<path id="Layer4_3_MEMBER_501_1_STROKES" class="st6" d="M255,82.1l0-0.3"/>
<path id="Layer4_3_MEMBER_502_1_STROKES" class="st6" d="M253.7,82.3l-0.9,0.6l0,0.3"/>
<path id="Layer4_3_MEMBER_503_1_STROKES" class="st6" d="M253.7,82.9l0.1,0.9"/>
<path id="Layer4_3_MEMBER_504_1_STROKES" class="st6" d="M254.1,83.6l-0.3,0.2"/>
<path id="Layer4_3_MEMBER_505_1_STROKES" class="st6" d="M252.9,89.1c0.3,0.1,0.6,0.1,0.9-0.1c0.4-0.2,0.7-0.5,0.9-1
	c0.3-0.4,0.4-0.9,0.4-1.3c0-0.4-0.1-0.7-0.4-0.8c-0.3-0.1-0.6-0.1-0.9,0.1c-0.4,0.2-0.7,0.5-0.9,1c-0.3,0.4-0.4,0.9-0.4,1.3
	S252.7,89,252.9,89.1z"/>
<path id="Layer4_3_MEMBER_506_1_STROKES" class="st6" d="M253.7,86.2c0,0.3-0.1,0.5-0.3,0.8c-0.2,0.3-0.3,0.5-0.5,0.7l-0.2,0.2"/>
<path id="Layer4_3_MEMBER_507_1_STROKES" class="st6" d="M252.8,70.5c0.3,0.1,0.6,0.1,0.9-0.1c0.4-0.2,0.7-0.5,0.9-1
	c0.3-0.4,0.4-0.9,0.4-1.3c0-0.4-0.1-0.7-0.4-0.8c-0.3-0.1-0.6-0.1-0.9,0.1c-0.4,0.2-0.7,0.5-0.9,1c-0.3,0.4-0.4,0.9-0.4,1.3
	C252.4,70,252.5,70.3,252.8,70.5z"/>
<path id="Layer4_3_MEMBER_508_1_STROKES" class="st6" d="M253.5,68.8l0.1-1l0.3-0.2"/>
<path id="Layer4_3_MEMBER_509_1_STROKES" class="st6" d="M254,68.6l0.8-0.4"/>
<path id="Layer4_3_MEMBER_510_1_STROKES" class="st6" d="M254.7,68.5v-0.3"/>
<path id="Layer4_3_MEMBER_511_1_STROKES" class="st6" d="M253.5,68.8l-0.9,0.6v0.3"/>
<path id="Layer4_3_MEMBER_512_1_STROKES" class="st6" d="M253.5,69.3l0.1,0.9"/>
<path id="Layer4_3_MEMBER_513_1_STROKES" class="st6" d="M253.9,70l-0.3,0.2"/>
<path id="Layer4_3_MEMBER_514_1_STROKES" class="st6" d="M252.8,63.4c0.3-0.4,0.6-0.8,0.9-1c0.4-0.2,0.7-0.2,0.9-0.1
	c0.3,0.1,0.4,0.4,0.4,0.8c0,0.4-0.1,0.8-0.4,1.3c-0.3,0.4-0.6,0.8-0.9,1c-0.4,0.2-0.7,0.2-0.9,0.1c-0.3-0.1-0.4-0.4-0.4-0.8
	C252.4,64.3,252.5,63.8,252.8,63.4z"/>
<path id="Layer4_3_MEMBER_515_1_STROKES" class="st6" d="M253.5,62.7c-0.1,0.6-0.3,1.1-0.8,1.5l-0.2,0.2"/>
<path id="Layer4_4_1_STROKES" class="st9" d="M191.8,39.6l68.5-17.5"/>
<path class="st10" d="M189.6,35.7c-1.5-2.2-3.5-3.5-6-4c-2.5-0.5-4.9,0-7.1,1.4c-2.2,1.5-3.5,3.5-4,6c-0.5,2.6,0,4.9,1.4,7.1
	c1.4,2.2,3.4,3.5,6,4c2.5,0.5,4.9,0,7-1.4c2.2-1.4,3.5-3.4,4-6C191.5,40.3,191,37.9,189.6,35.7z"/>
<path id="Layer4_4_MEMBER_0_1_STROKES" class="st9" d="M183.5,31.8c2.6,0.5,4.6,1.8,6,4c1.5,2.2,1.9,4.5,1.4,7.1
	c-0.5,2.6-1.8,4.6-4,6c-2.2,1.5-4.5,2-7,1.4c-2.6-0.5-4.6-1.8-6-4c-1.5-2.2-2-4.5-1.4-7.1c0.5-2.5,1.8-4.5,4-6
	C178.6,31.7,181,31.3,183.5,31.8z"/>
<path class="st10" d="M110.5,64.7c0,0-0.1,0.1-0.1,0.1c-4.3,4.3-6.4,9.4-6.4,15.4c0,6,2.2,11.2,6.4,15.4c4.3,4.3,9.4,6.4,15.4,6.4
	c6,0,11.1-2.1,15.4-6.4c4.3-4.3,6.4-9.4,6.4-15.4c0-6-2.2-11.1-6.4-15.3c-4.3-4.3-9.4-6.4-15.4-6.4
	C119.9,58.5,114.8,60.6,110.5,64.7z"/>
<path id="Layer4_5_1_STROKES" class="st9" d="M107.4,90.7c-3-5.2-3.7-10.6-2.2-16.4c1.6-5.8,5-10.2,10.2-13.3
	c5.2-3,10.7-3.8,16.5-2.3c5.8,1.6,10.2,4.9,13.3,10.1c3,5.2,3.8,10.7,2.2,16.5c-1.5,5.8-4.9,10.2-10.1,13.3
	c-5.2,3-10.7,3.8-16.6,2.3c-5.8-1.6-10.2-5-13.3-10.2C107.5,90.8,107.4,90.8,107.4,90.7l-35.9,21"/>
<g>
	<path class="st11" d="M132.6,39.2l7.2-4.9l-5-7.2L132.6,39.2z"/>
	<path id="Layer4_6_MEMBER_0_1_STROKES" class="st9" d="M134.2,33.1l-42.6-7.8"/>
</g>
<g>
	<text transform="matrix(1 0 0 1 14.5429 109.0386)" class="st12 st13">FILTER,</text>
	<text transform="matrix(1 0 0 1 26.2429 127.9386)" class="st12 st13">EMI </text>
</g>
<g>
	<text transform="matrix(1 0 0 1 11.2091 23.391)" class="st12 st13">FILTER KIT</text>
	<text transform="matrix(1 0 0 1 11.2091 42.2909)" class="st12 st13">ASSY, FAN</text>
</g>
<g>
	<text transform="matrix(1 0 0 1 269.7855 18.7103)" class="st12 st13">SENSOR,</text>
	<text transform="matrix(1 0 0 1 264.8855 37.6103)" class="st12 st13">PRESSURE</text>
</g>
</svg>
