<?xml version="1.0" encoding="utf-8"?>
<!-- Generator: Adobe Illustrator 24.2.0, SVG Export Plug-In . SVG Version: 6.00 Build 0)  -->
<svg version="1.1" id="Ebene_1" xmlns="http://www.w3.org/2000/svg" xmlns:xlink="http://www.w3.org/1999/xlink" x="0px" y="0px"
	 viewBox="0 0 349.1 161" style="enable-background:new 0 0 349.1 161;" xml:space="preserve">
<style type="text/css">
	.st0{fill:#CCCCCC;fill-opacity:0.498;}
	.st1{fill:#CCCCCC;}
	.st2{fill:none;stroke:#000000;stroke-width:0.5;stroke-miterlimit:4.9999;}
	.st3{fill:none;stroke:#000000;stroke-width:0.25;stroke-miterlimit:4.9999;}
	.st4{fill:none;stroke:#000000;stroke-width:0.5;stroke-miterlimit:5;}
	.st5{fill:#0099FF;}
	.st6{fill:none;stroke:#FFFFFF;stroke-miterlimit:5;}
	.st7{fill:#666666;}
	.st8{fill:#0066FF;}
	.st9{fill:#FF0000;}
</style>
<path class="st0" d="M54.6,25l0.1,0.3L68.7,36c0.1-0.2,0.2-0.4,0.5-0.7c0.4-0.3,0.7-0.5,1-0.7L55.6,24.2L54.6,25z"/>
<path class="st0" d="M81.6,42.9l-11.4-8.2c-0.3,0.1-0.6,0.4-1,0.7c-0.3,0.3-0.5,0.5-0.5,0.7l10.8,8.2L81.6,42.9z"/>
<path class="st0" d="M104.2,55.4c0.5-0.3,0.9-0.6,1.2-0.7l-17.1-8.3l-0.2,0.2c0,0-0.1,0.1-0.2,0.1c-0.1,0.1-0.2,0.2-0.2,0.2
	l-1.2,1.1V48l-0.1,0.2c0,0.1,0,0.1,0,0.2c-0.1,0.2,0,0.4,0.2,0.6l0.1,0.1l0.2,0.1l16.7,7.4C103.4,56.2,103.6,55.9,104.2,55.4z"/>
<path class="st0" d="M105.4,54.7c-0.4,0.1-0.8,0.4-1.2,0.7c-0.6,0.5-0.8,0.8-0.6,1.1l19.9,8.7l0.2,0.1h0.3l0.1-0.1h0.2l0.6-0.1
	l0.1-0.1v-0.9L105.4,54.7z"/>
<path class="st1" d="M62,20.3c-2.6,1.5-5.1,3-7.3,4.7c-0.2,0.2-0.2,0.3,0,0.5l25,19.1c-2.6,1.8-4.3,3.6-5.2,5.2
	c-0.8,1.6-0.6,2.8,0.4,3.7c1,0.9,2.5,1.2,4.6,0.8c0.1,0,0.2,0,0.3-0.1L67.2,91.2h-0.1c-0.1,0-0.2,0-0.2,0.1l-26.8,21.8
	c-0.1,0-0.2,0.2-0.2,0.4l-0.7,4.6c-1.4-0.3-2.7-0.2-3.8,0.3c-0.2,0.1-0.5,0.3-0.7,0.4c-1.6,1.6-2.1,4-1.2,7.2
	c0.8,2.9,2.3,5.8,4.7,8.8c2.3,3,4.8,5.1,7.5,6.5c2.9,1.5,5.3,1.6,7.2,0.3c0,0,0.1-0.1,0.2-0.1c0.2-0.2,0.4-0.5,0.6-0.8l35.1-34.5
	l4.1-5.5l2.9-5.8l0.4-1.1l0.1-1.1l-0.4-1.9l-1-1.6c0.2-0.2,0.3-0.3,0.5-0.5l6.4-32.8l-14.7-6.5l-0.2-0.1l-0.1,0
	c-0.2-0.2-0.3-0.4-0.2-0.6c0-0.1,0-0.1,0-0.2c0-0.1,0-0.2,0.1-0.2v-0.1l1.2-1.1c0.1-0.1,0.2-0.2,0.2-0.2c0.1,0,0.1-0.1,0.1-0.1
	l0.2-0.2L125,64.3v0.9c1.6-0.6,4-2,7.2-4.2l3.1-2.2L102,39.5l4.4-3.2v-6l-10.8,5.5l-30-17.4C64.4,19.1,63.1,19.7,62,20.3 M54.7,25.2
	l1-0.8l26,18.7l-2.1,1.4l-24.9-19L54.7,25.2 M41.7,118.9L41.7,118.9C41.7,118.9,41.7,118.9,41.7,118.9L41.7,118.9z"/>
<path id="Layer2_12_MEMBER_0_1_STROKES" class="st2" d="M95.3,89l6.4-33.1"/>
<path id="Layer2_12_MEMBER_1_1_STROKES" class="st2" d="M39.5,113.7l0.1-0.1h0.1l0.1,0c0.4,0.3,0.6,0.6,0.7,1.1"/>
<path id="Layer2_12_MEMBER_2_1_STROKES" class="st3" d="M79.6,54.4L66.9,91.6"/>
<path id="Layer2_12_MEMBER_3_1_STROKES" class="st4" d="M38.3,117.1l-3.1,1.7c1-0.4,2.1-0.5,3.5-0.1l0.7-4.8 M38.8,118.7
	c0.7,0.2,1.4,0.4,2.2,0.8c0.1,0,0.1,0.1,0.2,0.1l-0.5-4.8 M88.7,106.8l-35.1,34.5c-0.2,0.4-0.5,0.7-0.8,1c-0.1,0-0.1,0.1-0.2,0.1
	c-1.6,1.3-3.8,1.2-6.8-0.1c-2.9-1.4-5.6-3.6-8.2-6.8c-2.5-3.2-4.1-6.4-4.8-9.5c-0.6-3.1-0.2-5.3,1.4-6.6c0.2-0.2,0.4-0.3,0.6-0.4
	c0.1-0.1,0.2-0.1,0.4-0.1 M67.2,92l-5.9,17.5l-20.2,10.1c2.8,1.4,5.5,3.6,8,6.6c2.6,3.2,4.2,6.3,4.8,9.5c0.5,2.4,0.4,4.2-0.4,5.5
	 M132.3,61.2l-34-19.7 M86.9,49.4l8.3,3.7l3.3,1.4l25.3,11.1 M93.7,36.7l1.8-0.8L65.3,18.3 M87,95.9l8.2-42.7 M98.6,54.6l-7.3,38.1
	 M61.6,20.2l30.1,17.4 M66.6,91.7l-27,22 M79.4,44.6L54.2,25.4 M95.5,35.8l11-5.6v6.1 M135.5,59l-34.2-19.9"/>
<path id="Layer2_12_MEMBER_4_1_STROKES" class="st3" d="M66.6,91.7c0.1-0.1,0.3-0.1,0.4,0c0.1,0.1,0.2,0.2,0.2,0.3"/>
<path id="Layer2_12_MEMBER_5_1_STROKES" class="st2" d="M101.2,39.1c-6.5,2.8-11.3,5.8-14.7,9c-0.2,0.3-0.3,0.5-0.2,0.7
	c0,0.3,0.2,0.5,0.5,0.6 M93.6,36.6c-5,2.4-9.5,4.9-13.6,7.6c-2.8,1.8-4.7,3.5-5.6,5.4c-0.9,1.6-0.9,2.9,0,3.9c0.9,1,2.3,1.4,4.4,1.1
	c2.3-0.3,4.8-1.4,7.7-3.2 M106.4,36.3l-4.4,3.2 M135.5,59l-3.2,2.2c-2.3,1.7-4.6,3-6.8,4.1c-0.5,0.2-0.8,0.4-1,0.4l-0.3,0
	 M88.7,106.8c2.9-3.4,5.3-7.2,7.1-11.4c0.5-1,0.6-2,0.4-3.1c-0.2-1.1-0.7-2-1.5-2.8c-5.1,5-13,10.4-23.7,16.3
	c-2.1,1.1-3.6,1.8-4.7,2.3c-1.9,0.8-3.6,1.3-5,1.4 M94.7,89.5c0.2-0.2,0.4-0.3,0.5-0.5 M65.3,18.2c-4.2,2.1-7.9,4.3-11,6.7L54.1,25
	v0.3"/>
<g>
	<path class="st5" d="M180.8,73.7l0,7.2l12.7-12.9l-12.9-12.7l0,7.2c-31,4.3-56.4,2.3-78.8-7.3l-2.8-1l3.8,2.8
		C126.3,69.3,152.2,74.9,180.8,73.7z"/>
	<path id="Layer1_10_1_STROKES_5_" class="st6" d="M96.2,52.7l6.6,4.3c23.4,12.2,49.4,17.7,77.7,16.8l0,7.2l12.7-12.9l-12.9-12.7
		l0,7.2c-31,4.3-57.5,1.7-79.9-7.9C96.2,52.7,96.2,52.7,96.2,52.7z"/>
</g>
<path class="st7" d="M330.5,98.2l0.6-0.4l-189.8-85l-2.4,1.6c-3.9,2.8-7,5.2-9.1,7.3c-2.2,2.1-3.3,3.9-3.3,5.4c0,1.1,0.7,2,2,2.8
	l190,83.6c1.7,0.8,4.4,0.6,8.3-0.4l2.3-1.3c-1.7,0.5-3,0.9-4,1.1c-2.7,0.6-4.9,0.6-6.8,0c-0.7-0.5-1.1-1.2-1.1-1.9v-0.1
	c0-0.1,0-0.1,0-0.2c0.1-1.2,1.1-2.8,3.1-4.6c1.1-1,2.6-2.2,4.6-3.8L330.5,98.2L330.5,98.2z"/>
<path class="st8" d="M331.9,97.5l-1.4,1l0,0.1l-5.6,3.9c-2,1.6-3.5,2.8-4.6,3.8c-2,1.8-3,3.3-3.1,4.6v0.1c0,0.8,0.4,1.4,1.1,1.9
	c1.9,0.6,4.1,0.6,6.8,0c1-0.2,2.3-0.6,4-1.1l-2.3,1.3l-0.9,0.4c0.3-0.1,0.6-0.1,1-0.2l2.2-0.8c1.3-0.4,3.1-1,5.4-1.8l0-0.5l-8.7-3.9
	c0-0.1,0.1-0.1,0.1-0.2c0.3-1,0.8-1.8,1.5-2.4l4.7-4.7h0V98L331.9,97.5 M328.1,107.7h0.1v0.2h0l-0.1,0h-0.5l0,0h-0.1l0-0.1v-0.1h0
	l0.1-0.1L328.1,107.7L328.1,107.7 M326,108.7c-0.2-0.3-0.4-0.6-0.4-1h0.1l2.1,1H326z"/>
<path class="st5" d="M334.5,95.9v-0.4l-142-65.4L151.7,5.8l-10.4,7l189.8,85l-0.6,0.4l0,0.1l-5.6,3.9c-2,1.6-3.5,2.8-4.6,3.8
	c-2,1.8-3,3.4-3.1,4.6c0,0.1,0,0.1,0,0.2c0.1-1.2,1.1-2.8,3.1-4.6c1.1-1,2.6-2.2,4.6-3.8l5.6-3.9l0-0.1l1.4-1l0.4-0.2l0.2,0.1
	L334.5,95.9 M317.2,88.8c0-0.1,0-0.1,0-0.1c0-0.2,0.1-0.2,0.4-0.2c0.3,0,0.4,0,0.5,0.2v0.1l0,0.1c0,0,0,0.1,0,0.1v0.1l-0.2,0.2h-0.1
	l-0.1,0.1h0c-0.3,0-0.5-0.1-0.5-0.2v0C317.1,88.9,317.1,88.9,317.2,88.8 M320.6,90.5C320.6,90.5,320.6,90.5,320.6,90.5
	c0-0.2,0-0.2,0-0.3c0.2-0.1,0.3-0.2,0.5-0.2c0.3,0,0.4,0.1,0.3,0.2c0,0,0,0.1,0,0.1c0,0,0,0.1,0,0.1c0,0.1-0.1,0.2-0.2,0.2
	c-0.1,0-0.2,0.1-0.4,0.1C320.6,90.7,320.5,90.6,320.6,90.5 M324.3,92.3c-0.3,0-0.4-0.1-0.2-0.2V92c-0.1-0.1-0.1-0.1,0-0.2
	c0-0.1,0.2-0.2,0.4-0.2l0.1,0.1h0.1l0.1,0.1v0.1c0,0,0,0.1,0,0.1l0,0.1v0.1c-0.1,0.1-0.1,0.2-0.2,0.2
	C324.6,92.4,324.5,92.4,324.3,92.3 M311.5,85.8v0.1c-0.1,0.2-0.2,0.3-0.4,0.3c-0.1,0-0.1,0-0.2,0c-0.2,0-0.3-0.1-0.3-0.2
	c0,0,0-0.1,0-0.1c-0.1-0.1-0.1-0.2,0-0.3c0.1-0.2,0.3-0.2,0.5-0.1h0.1l0.1,0h0.1l0.1,0.1v0.1C311.5,85.7,311.5,85.8,311.5,85.8
	L311.5,85.8 M304.9,82.6v0.1c0,0,0,0.1,0,0.1v0.2c0,0.2-0.2,0.3-0.5,0.3c0,0-0.1,0-0.1,0c-0.1,0-0.1-0.1-0.2-0.1
	c-0.1-0.1-0.1-0.1,0-0.2c-0.1-0.1-0.1-0.2,0-0.3c0.2-0.1,0.4-0.2,0.5-0.1h0.2v0h0L304.9,82.6 M331.5,94.8c0.3,0,0.3,0.1,0.2,0.3
	c0.1,0.1,0.1,0.2,0,0.2c-0.1,0.2-0.2,0.3-0.5,0.2c-0.3-0.1-0.4-0.2-0.3-0.4h0.1c-0.1-0.1-0.1-0.1-0.1-0.2
	C331,94.8,331.2,94.8,331.5,94.8 M151.5,7.2c0-0.1,0-0.1,0-0.2c0,0,0-0.1,0-0.1c0-0.2,0.1-0.2,0.4-0.2l0.1-0.1l0.1,0.1h0.1l0.1,0h0
	v0.1l0.1,0c0,0,0,0.1-0.1,0.2v0.1l0.1,0c0,0.2-0.2,0.2-0.4,0.2C151.7,7.5,151.5,7.5,151.5,7.2 M187,28.4c-0.3,0-0.4-0.1-0.4-0.2
	c0,0,0-0.1,0.1-0.1c0-0.1-0.1-0.1-0.1-0.1c0-0.2,0.1-0.2,0.4-0.2c0.2,0,0.3,0.1,0.4,0.2c0,0.1,0,0.1-0.1,0.1c0,0,0.1,0.1,0.1,0.1
	C187.4,28.3,187.2,28.4,187,28.4 M183.5,26.2C183.4,26.2,183.4,26.1,183.5,26.2c-0.1-0.3,0.1-0.4,0.3-0.4c0.3,0,0.4,0.1,0.4,0.2
	c0,0.1,0,0.2,0,0.2c0.1,0.2,0,0.3-0.3,0.3c-0.3,0.1-0.5,0-0.6-0.2C183.4,26.3,183.4,26.2,183.5,26.2 M189.6,30
	C189.6,29.9,189.6,29.9,189.6,30c0-0.2,0-0.2,0-0.2c0-0.2,0.1-0.2,0.4-0.2c0.3,0,0.4,0,0.5,0.2c0,0.1,0,0.1-0.1,0.2
	c0,0,0.1,0.1,0.1,0.1c0,0.2-0.1,0.3-0.4,0.3C189.8,30.3,189.7,30.2,189.6,30 M192.5,31.5c0-0.1,0-0.1,0-0.1c0,0,0-0.1,0-0.1
	c0-0.2,0.1-0.3,0.4-0.3c0.3,0,0.4,0.1,0.5,0.3c0,0.1,0,0.1-0.1,0.2c0,0,0.1,0.1,0.1,0.1c0,0.2-0.1,0.2-0.4,0.2
	C192.7,31.8,192.5,31.7,192.5,31.5 M200.2,34.3c0,0.1,0,0.1,0,0.2v0.1c0,0.2-0.1,0.3-0.4,0.3c-0.3,0-0.4-0.1-0.4-0.2
	c0-0.1,0-0.1,0.1-0.2c0,0-0.1-0.1-0.1-0.1c0-0.2,0.1-0.3,0.4-0.3C200,34.1,200.2,34.2,200.2,34.3 M202.9,36.4
	c-0.1-0.1-0.1-0.2,0-0.2c-0.2-0.1-0.1-0.2,0.1-0.3c0.3-0.1,0.5-0.1,0.6,0c0.1,0.1,0.1,0.2,0,0.3c0.1,0.2,0,0.3-0.2,0.3
	C203.2,36.6,203,36.5,202.9,36.4 M196.2,32.5h0.1c0.3,0,0.4,0.1,0.4,0.3c0,0,0,0.1,0,0.2v0.1c0,0.2-0.1,0.2-0.4,0.2
	s-0.4-0.1-0.5-0.2L196,33c0,0-0.1-0.1-0.1-0.2l0.1-0.1v-0.1h0l0.1,0L196.2,32.5 M213.6,40.5c0,0.1,0,0.1,0,0.2c0,0,0,0.1,0,0.1
	c0,0.2-0.1,0.3-0.4,0.3c-0.3,0-0.4,0-0.5-0.2c0-0.1,0-0.1,0.1-0.2c0,0-0.1-0.1-0.1-0.1c0-0.2,0.1-0.3,0.4-0.4
	C213.4,40.3,213.6,40.4,213.6,40.5 M219.4,44c-0.2-0.1-0.2-0.2-0.1-0.3c-0.2-0.1-0.1-0.3,0.2-0.4c0.2-0.1,0.4-0.1,0.6,0.1v0l0.1,0.1
	l-0.1,0.1v0.1l0.1,0.1l-0.1,0.1v0.1l-0.1,0h0l-0.1,0.1C219.7,44.2,219.5,44.1,219.4,44 M206.2,37.9L206.2,37.9c0-0.1,0-0.2,0-0.2
	l0,0v-0.1c0-0.2,0.2-0.3,0.4-0.4c0.2,0,0.4,0.1,0.4,0.2c0,0.1,0,0.1,0,0.2c0,0,0,0.1,0,0.1c0,0.2-0.1,0.3-0.4,0.3h-0.2l-0.1-0.1
	L206.2,37.9L206.2,37.9 M173.2,19.4c0.2,0,0.4,0.1,0.4,0.2c0,0.1,0,0.1,0,0.2v0.1c0,0.2-0.1,0.3-0.4,0.3c-0.3,0-0.5,0-0.5-0.2
	c0-0.1,0-0.1,0.1-0.2c0,0-0.1-0.1-0.1-0.1C172.8,19.6,172.9,19.5,173.2,19.4 M164.3,14.1c0.2,0,0.4,0.1,0.4,0.2c0,0.1,0,0.1-0.1,0.2
	c0,0,0.1,0.1,0.1,0.1c0,0.2-0.1,0.2-0.4,0.2c-0.3,0.1-0.4,0-0.4-0.2c0,0,0-0.1,0.1-0.1c0,0-0.1-0.1-0.1-0.1
	C163.9,14.2,164,14.1,164.3,14.1 M168.3,17.2c0,0,0.1-0.1,0.1-0.1c0,0-0.1-0.1-0.1-0.2c0.1-0.2,0.2-0.2,0.5-0.2
	c0.2,0,0.3,0.1,0.4,0.2c0,0.1,0,0.1-0.1,0.2c0,0,0.1,0,0.1,0.1c0,0.2-0.1,0.3-0.4,0.3C168.5,17.5,168.3,17.4,168.3,17.2 M178.1,22.5
	L178.1,22.5c0,0.2-0.1,0.3-0.2,0.3c-0.2,0.1-0.3,0-0.4-0.1c-0.2-0.1-0.2-0.2-0.2-0.3h0.1c-0.1-0.1-0.1-0.1-0.1-0.2
	c0.1-0.1,0.2-0.1,0.4-0.1h0.2l0.1,0.1h0v0l0.1,0.1v0.1C178.1,22.4,178.1,22.4,178.1,22.5L178.1,22.5 M180.4,24.5
	c0-0.1,0-0.1,0.1-0.2c0,0-0.1-0.1-0.1-0.1c0-0.2,0.1-0.3,0.4-0.3c0.3,0,0.4,0,0.5,0.2c0,0.1,0,0.1,0,0.1c0,0,0,0.1,0,0.1
	c0,0.2-0.1,0.3-0.4,0.3C180.6,24.7,180.4,24.7,180.4,24.5 M158.5,10.8c0,0.2-0.1,0.3-0.4,0.3c-0.3,0-0.4-0.1-0.4-0.2
	c0,0,0-0.1,0.1-0.1c0-0.1-0.1-0.1-0.1-0.2c0-0.1,0.1-0.2,0.4-0.3c0.3,0,0.4,0.1,0.4,0.2C158.5,10.7,158.5,10.7,158.5,10.8
	C158.5,10.8,158.5,10.8,158.5,10.8 M160.8,12.6c0,0,0-0.1,0-0.1c0-0.2,0.1-0.3,0.4-0.3c0.3,0,0.4,0.1,0.5,0.3c0,0.1,0,0.1-0.1,0.2
	c0,0,0.1,0.1,0.1,0.1c0,0.2-0.1,0.3-0.4,0.3c-0.3,0-0.4-0.1-0.5-0.2C160.7,12.7,160.7,12.7,160.8,12.6 M155.4,9
	c0,0.2-0.1,0.3-0.4,0.3c-0.3,0-0.5,0-0.5-0.2c0,0,0-0.1,0.1-0.1c0,0-0.1-0.1-0.1-0.1c0.1-0.2,0.2-0.3,0.5-0.4c0.2,0,0.3,0.1,0.4,0.2
	C155.4,8.9,155.4,8.9,155.4,9C155.4,9,155.4,9,155.4,9 M233.1,49.4L233.1,49.4l0.1,0.5l-0.1,0H233l0,0.1c-0.2,0.1-0.4,0-0.6-0.1
	c-0.1-0.1-0.1-0.2-0.1-0.3c-0.1-0.1,0-0.3,0.2-0.4C232.8,49.3,233,49.3,233.1,49.4 M226.6,46.9L226.6,46.9l-0.1,0l-0.1,0.1
	c-0.2,0.1-0.4,0-0.6-0.1c-0.1-0.1-0.1-0.2,0-0.2c-0.1-0.2-0.1-0.3,0.2-0.4c0.3-0.1,0.5,0,0.6,0.1V46.9 M238.9,52.7
	c-0.1-0.2-0.1-0.3,0.1-0.4c0.3-0.1,0.5,0,0.6,0.1c0.1,0.1,0.1,0.2,0,0.3c0.1,0.1,0.1,0.2-0.1,0.3c-0.2,0.1-0.4,0.1-0.5,0
	C238.9,53,238.9,52.8,238.9,52.7 M245.8,55.3c0.3,0,0.4,0,0.4,0.2c0,0.1,0,0.1,0,0.2c0,0,0,0.1,0,0.1c0,0.2-0.1,0.3-0.4,0.4
	c-0.3,0-0.4-0.1-0.5-0.2c0-0.1,0-0.1,0-0.2c0,0,0-0.1,0-0.1C245.4,55.4,245.5,55.3,245.8,55.3 M259.3,61.5V62h-0.1l0,0.1h0
	c-0.1,0.1-0.3,0.1-0.6,0c-0.1-0.1-0.1-0.2,0-0.4c-0.1-0.2-0.1-0.3,0.1-0.4C258.8,61.3,259.1,61.3,259.3,61.5 M252,59.1
	c-0.1-0.1-0.1-0.2-0.1-0.3c-0.1-0.2,0-0.4,0.2-0.4c0.3-0.1,0.5,0,0.6,0.1l0,0.1v0.2h0v0l0,0.1v0.2h0l-0.1,0.1
	C252.4,59.2,252.2,59.2,252,59.1 M285.4,73.6c0,0.1,0,0.1,0,0.1c0,0,0,0.1,0,0.1c0,0.2-0.2,0.2-0.4,0.2c-0.3,0.1-0.4,0-0.5-0.2
	c0-0.1,0-0.1,0.1-0.1c0-0.1-0.1-0.1-0.1-0.1c0-0.2,0.1-0.3,0.4-0.3C285.2,73.4,285.3,73.5,285.4,73.6 M291.1,76.8c0,0,0-0.1,0-0.1
	c0-0.2,0.1-0.3,0.4-0.3c0.3,0,0.4,0.1,0.4,0.2c0,0.1,0,0.1,0,0.1c0,0,0,0.1,0,0.1c0,0.2-0.1,0.2-0.4,0.2c-0.3,0.1-0.4,0-0.4-0.2
	C291.1,76.9,291.1,76.9,291.1,76.8 M298.4,79.8v0.1c-0.1,0.2-0.3,0.3-0.5,0.3c-0.3-0.1-0.4-0.2-0.2-0.4c-0.1-0.1-0.1-0.2,0-0.2
	c0.2-0.1,0.3-0.2,0.5-0.1h0.1l0.1,0.1v0.1C298.4,79.7,298.4,79.8,298.4,79.8L298.4,79.8 M265.4,64.3c0.2,0,0.4,0.1,0.4,0.3
	c0,0.1,0,0.1,0,0.1c0,0,0,0.1,0,0.1c0,0.2-0.1,0.2-0.4,0.2s-0.4-0.1-0.5-0.2c0-0.1,0-0.1,0.1-0.1c0-0.1-0.1-0.1-0.1-0.1
	C265,64.4,265.1,64.3,265.4,64.3 M271.7,67.4c0.2-0.1,0.4-0.1,0.6,0l0.1,0.1v0.1l-0.1,0l0.1,0.1v0.1l-0.2,0.1h0
	c-0.2,0.2-0.4,0.2-0.5,0c-0.1-0.1-0.1-0.2-0.1-0.3C271.4,67.7,271.5,67.5,271.7,67.4 M278.8,70.5l0.1,0.1v0.1l0,0.1l0,0.1v0.1
	l-0.2,0.2c-0.3,0.1-0.5,0.1-0.6-0.1c-0.1-0.1-0.1-0.2,0-0.2c-0.1-0.2-0.1-0.3,0.2-0.3C278.5,70.3,278.6,70.4,278.8,70.5z"/>
<path id="Layer2_17_MEMBER_1_MEMBER_0_1_STROKES" class="st4" d="M320.6,90.4c0.2-0.1,0.3-0.2,0.5-0.2c0.3,0,0.4,0.1,0.3,0.2
	c-0.1,0.2-0.2,0.3-0.5,0.3C320.6,90.7,320.5,90.6,320.6,90.4z M327.4,93.8c0-0.1,0-0.2,0.1-0.3c0.1-0.1,0.3-0.2,0.5-0.1
	c0.2,0,0.3,0.1,0.2,0.3c0,0.1-0.2,0.2-0.4,0.2C327.6,93.9,327.5,93.9,327.4,93.8L143.7,11.3l-2.5,1.8l189.8,85.1l0.8-0.6l0.4-0.2
	l0.2,0.1l2-1.4v-0.4l-142-65.4L151.7,5.8l-8,5.4 M331.5,95c0.3,0,0.3,0.1,0.2,0.3c-0.1,0.2-0.2,0.3-0.5,0.2
	c-0.3-0.1-0.4-0.2-0.3-0.4C331,95.1,331.2,95,331.5,95z M327.3,109.3c-0.6,0-1-0.2-1.3-0.6c-0.2-0.3-0.4-0.6-0.4-1
	c0-0.3,0-0.6,0-0.9c0-0.2,0.1-0.4,0.2-0.6c0.3-1.1,0.8-1.9,1.6-2.6l4.7-4.7h0v-0.7l-7.1,4.9c-1.7,1.3-3.1,2.4-4.1,3.3
	c-1.9,1.7-2.9,3-3,3.9c0.1,0.7,0.5,1.2,1.2,1.6c0.5,0.3,1.2,0.5,2,0.6c1,0,2.4-0.1,4.1-0.4c1.2-0.2,2.3-0.5,3.1-0.8 M331.1,98.1
	l-0.6,0.4l0,0.1l-5.6,3.9c-2,1.6-3.5,2.8-4.6,3.8c-2,1.8-3,3.4-3.1,4.6c0,0.8,0.4,1.4,1.1,1.9c1.9,0.6,4.1,0.6,6.8,0
	c1.5-0.4,3.8-1,6.7-2l0-0.1l0.2-0.3v-0.7l0-0.4l-0.4-0.4l-0.6-0.3l-3.3,0.1H326 M332.1,98.3V98l-0.2-0.6 M324.9,92.1
	c-0.1,0.2-0.3,0.3-0.5,0.2c-0.3,0-0.4-0.1-0.2-0.3c0-0.1,0.2-0.2,0.4-0.2l0.1,0.1h0.1l0.1,0.1V92.1z M325.3,104.8l-5.9,3.4l-0.1,0.4
	v3.4h0.1l5.9-3.4v-0.1h0.1v0h0.1v-3.6H325.3z M328.3,108h-0.1l0-0.1h-0.5l-0.1,0.1h0v0.1l0,0.1h0.1l0,0h0.5l0.1,0h0V108z
	 M327.8,108.7l-2.2-1 M328.7,99.3L138.9,14.4c-3.9,2.8-7,5.2-9.1,7.3c-4,3.9-4.5,6.7-1.3,8.4l190,83.6c1.7,0.8,4.5,0.6,8.4-0.5
	l2.2-0.8c1.3-0.4,3.1-1,5.4-1.8l0-0.5l-8.7-3.9 M199.8,34.9c0.3,0,0.4-0.1,0.4-0.4c0-0.2-0.2-0.2-0.5-0.2c-0.3,0-0.4,0.1-0.4,0.3
	C199.4,34.9,199.6,35,199.8,34.9z M206.4,38.1h0.2c0.3,0,0.4-0.1,0.4-0.3c0-0.2-0.2-0.2-0.4-0.2c-0.3,0-0.4,0.1-0.4,0.4v0.1l0,0h0.1
	L206.4,38.1z M203.4,36.5c-0.2,0.1-0.4,0-0.6-0.1c-0.2-0.1-0.1-0.2,0.1-0.3c0.3-0.1,0.5-0.1,0.6,0C203.7,36.3,203.7,36.4,203.4,36.5
	z M213.2,41.1c0.3,0,0.4-0.1,0.4-0.3c0-0.2-0.2-0.2-0.4-0.2c-0.3,0-0.4,0.1-0.4,0.4C212.8,41.1,213,41.1,213.2,41.1z M158.5,10.8
	c0,0.2-0.1,0.3-0.4,0.3c-0.3,0-0.4-0.1-0.4-0.2c0-0.1,0.1-0.2,0.4-0.3C158.3,10.6,158.5,10.7,158.5,10.8z M161.1,12.4
	c-0.3,0.1-0.4,0.2-0.4,0.3c0.1,0.2,0.2,0.2,0.5,0.2c0.3,0,0.4-0.1,0.4-0.3C161.6,12.5,161.4,12.4,161.1,12.4z M164.3,14.3
	c-0.3,0-0.4,0.1-0.4,0.3c0,0.2,0.2,0.3,0.4,0.2c0.3,0,0.4-0.1,0.4-0.2C164.6,14.4,164.5,14.3,164.3,14.3z M173.2,19.6
	c0.2,0,0.4,0.1,0.4,0.2c0,0.2-0.1,0.3-0.4,0.3c-0.3,0-0.5,0-0.5-0.2C172.8,19.8,172.9,19.7,173.2,19.6z M177.3,22.4
	c0.1-0.1,0.2-0.1,0.4-0.1h0.2l0.1,0.1h0v0.1l0.1,0.1v0.1c0,0.1-0.1,0.2-0.2,0.2c-0.2,0.1-0.3,0.1-0.4-0.1
	C177.3,22.7,177.2,22.6,177.3,22.4z M168.8,17.5c0.3,0,0.4-0.1,0.4-0.3c-0.1-0.2-0.2-0.2-0.4-0.2c-0.3,0-0.4,0.1-0.5,0.2
	C168.3,17.4,168.5,17.5,168.8,17.5z M180.8,24.7c0.3,0,0.4-0.1,0.4-0.3c0-0.2-0.2-0.2-0.5-0.2c-0.3,0-0.4,0.1-0.4,0.3
	C180.4,24.7,180.6,24.7,180.8,24.7z M187.4,28.1c-0.1-0.2-0.2-0.2-0.4-0.2c-0.3,0-0.4,0.1-0.4,0.2c0,0.2,0.1,0.2,0.4,0.2
	C187.2,28.4,187.4,28.3,187.4,28.1z M184.3,26.2c0.1,0.2,0,0.3-0.3,0.3c-0.3,0.1-0.5,0-0.6-0.2c0-0.2,0.1-0.3,0.4-0.4
	C184.1,26,184.2,26.1,184.3,26.2z M193.4,31.5c-0.1-0.2-0.2-0.3-0.5-0.3c-0.3,0.1-0.4,0.2-0.4,0.3c0.1,0.2,0.2,0.2,0.5,0.2
	C193.2,31.7,193.4,31.7,193.4,31.5z M196.2,32.8l-0.2,0.1l-0.1,0.1h0v0l-0.1,0.1c0.1,0.2,0.2,0.2,0.5,0.2s0.4-0.1,0.4-0.2
	c0-0.2-0.1-0.3-0.4-0.3H196.2z M190.5,29.9c0-0.2-0.2-0.2-0.5-0.2c-0.3,0-0.4,0.1-0.4,0.2c0,0.2,0.2,0.3,0.4,0.3
	C190.3,30.2,190.5,30.1,190.5,29.9z M233.2,49.9L233.2,49.9l-0.2,0l0,0.1c-0.2,0.1-0.4,0-0.6-0.1c-0.2-0.2-0.1-0.3,0.1-0.4
	c0.3-0.1,0.5,0,0.6,0.1l0.1,0V49.9z M226.4,47.1c-0.2,0.1-0.4,0-0.6-0.1c-0.1-0.2-0.1-0.3,0.2-0.4c0.3-0.1,0.5,0,0.6,0.1v0.2l-0.1,0
	h-0.1L226.4,47.1z M220.1,43.9l-0.1,0h0l-0.1,0.1c-0.2,0.1-0.4,0-0.6-0.1c-0.2-0.2-0.2-0.3,0.1-0.4c0.2-0.1,0.4-0.1,0.6,0.1v0
	l0.1,0.1L220.1,43.9L220.1,43.9z M259.3,62h-0.1l0,0.1h0c-0.1,0.1-0.3,0.1-0.6,0c-0.2-0.2-0.1-0.4,0.1-0.5c0.3-0.1,0.5,0,0.7,0.1V62
	z M265.8,64.9c0-0.2-0.2-0.3-0.4-0.3c-0.3,0-0.4,0.1-0.5,0.3c0,0.2,0.2,0.2,0.5,0.2S265.8,65.1,265.8,64.9z M239.5,53.1
	c-0.2,0.1-0.4,0.1-0.5,0c-0.2-0.2-0.2-0.4,0-0.5c0.3-0.1,0.5,0,0.6,0.1C239.8,52.9,239.7,53,239.5,53.1z M245.4,55.9
	c0,0.2,0.2,0.2,0.4,0.2c0.3,0,0.4-0.1,0.4-0.4c0-0.2-0.1-0.2-0.4-0.2C245.5,55.6,245.4,55.7,245.4,55.9z M252.6,59.1
	c-0.2,0.1-0.4,0.1-0.6,0c-0.1-0.2-0.1-0.4,0.1-0.5c0.3-0.1,0.5,0,0.6,0.1l0,0.1v0.2h0L252.6,59.1z M278.1,71
	c-0.1-0.2-0.1-0.3,0.2-0.3c0.2-0.1,0.4-0.1,0.5,0l0.1,0.1v0.1l-0.2,0.2C278.4,71.2,278.2,71.2,278.1,71z M272.2,68.1L272.2,68.1
	c-0.2,0.2-0.4,0.2-0.6,0c-0.2-0.2-0.1-0.3,0.1-0.4c0.2-0.1,0.4-0.1,0.6,0l0.1,0.1v0.1L272.2,68.1z M291.9,76.9
	c0-0.2-0.1-0.2-0.4-0.2c-0.3,0-0.4,0.1-0.4,0.3c0,0.2,0.1,0.3,0.4,0.2C291.8,77.1,291.9,77.1,291.9,76.9z M285.4,73.9
	c0-0.2-0.2-0.2-0.5-0.2c-0.3,0-0.4,0.1-0.4,0.3c0,0.2,0.2,0.3,0.5,0.2C285.2,74.1,285.3,74.1,285.4,73.9z M297.6,79.8
	c0.2-0.1,0.3-0.2,0.5-0.1h0.1l0.1,0.1v0.1c-0.1,0.2-0.3,0.3-0.5,0.3C297.6,80.2,297.5,80,297.6,79.8z M304.1,82.8
	c0.2-0.1,0.4-0.2,0.5-0.1h0.2v0h0l0,0.1v0.1c0,0.2-0.2,0.3-0.5,0.3C304.1,83.2,304,83,304.1,82.8z M310.7,85.8
	c0.1-0.2,0.3-0.2,0.5-0.1h0.1l0.1,0h0.1l0.1,0.1v0.1c-0.1,0.2-0.3,0.3-0.6,0.3C310.6,86.2,310.5,86,310.7,85.8z M317.5,88.7
	c-0.3,0-0.4,0.1-0.4,0.2c0,0.2,0.2,0.3,0.5,0.3h0l0.1-0.1h0.1l0.2-0.2v-0.1C318,88.7,317.8,88.7,317.5,88.7z M141.2,13l-2.3,1.4
	 M155,8.8c-0.3,0-0.4,0.2-0.5,0.4c0,0.2,0.2,0.2,0.5,0.2c0.3,0,0.4-0.1,0.4-0.3C155.4,8.9,155.2,8.8,155,8.8z M152.2,7L152.2,7
	l0,0.1l0.1,0c0,0.2-0.2,0.2-0.4,0.2c-0.3,0.1-0.4,0-0.4-0.2c0-0.2,0.1-0.2,0.4-0.2l0.1-0.1L152,7h0.1L152.2,7z"/>
<path class="st9" d="M88.3,47.1c-0.1,0.1-0.1,0.2-0.2,0.2l-1.2,1.1v0.1l-0.1,0.2c0,0.1,0,0.1,0,0.2c-0.1,0.2,0,0.4,0.2,0.6l0.1,0.1
	l0.2,0.1l16.7,7.4c-0.2-0.3,0-0.7,0.6-1.1c0.5-0.3,0.9-0.6,1.2-0.7l-17.1-8.3L88.5,47C88.4,47.1,88.4,47.1,88.3,47.1z"/>
</svg>
