<?xml version="1.0" encoding="utf-8"?>
<!-- Generator: Adobe Illustrator 24.2.0, SVG Export Plug-In . SVG Version: 6.00 Build 0)  -->
<svg version="1.1" id="Ebene_1" xmlns="http://www.w3.org/2000/svg" xmlns:xlink="http://www.w3.org/1999/xlink" x="0px" y="0px"
	 viewBox="0 0 349.1 161" style="enable-background:new 0 0 349.1 161;" xml:space="preserve">
<style type="text/css">
	.st0{fill:#CCCCCC;fill-opacity:0.498;}
	.st1{fill:#CCCCCC;}
	.st2{fill:none;stroke:#000000;stroke-width:0.5;stroke-miterlimit:4.9999;}
	.st3{fill:none;stroke:#000000;stroke-width:0.25;stroke-miterlimit:4.9999;}
	.st4{fill:none;stroke:#000000;stroke-width:0.5;stroke-miterlimit:5;}
	.st5{fill:#0099FF;}
	.st6{fill:none;stroke:#FFFFFF;stroke-miterlimit:5;}
	.st7{fill:#FF0000;}
	.st8{fill:#666666;}
</style>
<path class="st0" d="M54.6,25l0.1,0.3L68.7,36c0.1-0.2,0.2-0.4,0.5-0.7c0.4-0.3,0.7-0.5,1-0.7L55.6,24.2L54.6,25z"/>
<path class="st0" d="M81.6,42.9l-11.4-8.2c-0.3,0.1-0.6,0.4-1,0.7c-0.3,0.3-0.5,0.5-0.5,0.7l10.8,8.2L81.6,42.9z"/>
<path class="st0" d="M104.2,55.4c0.5-0.3,0.9-0.6,1.2-0.7l-17.1-8.3l-0.2,0.2c0,0-0.1,0.1-0.2,0.1c-0.1,0.1-0.2,0.2-0.2,0.2
	l-1.2,1.1V48l-0.1,0.2c0,0.1,0,0.1,0,0.2c-0.1,0.2,0,0.4,0.2,0.6l0.1,0.1l0.2,0.1l16.7,7.4C103.4,56.2,103.6,55.9,104.2,55.4z"/>
<path class="st0" d="M105.4,54.7c-0.4,0.1-0.8,0.4-1.2,0.7c-0.6,0.5-0.8,0.8-0.6,1.1l19.9,8.7l0.2,0.1h0.3l0.1-0.1h0.2l0.6-0.1
	l0.1-0.1v-0.9L105.4,54.7z"/>
<path class="st1" d="M62,20.3c-2.6,1.5-5.1,3-7.3,4.7c-0.2,0.2-0.2,0.3,0,0.5l25,19.1c-2.6,1.8-4.3,3.6-5.2,5.2
	c-0.8,1.6-0.6,2.8,0.4,3.7c1,0.9,2.5,1.2,4.6,0.8c0.1,0,0.2,0,0.3-0.1L67.2,91.2h-0.1c-0.1,0-0.2,0-0.2,0.1l-26.8,21.8
	c-0.1,0-0.2,0.2-0.2,0.4l-0.7,4.6c-1.4-0.3-2.7-0.2-3.8,0.3c-0.2,0.1-0.5,0.3-0.7,0.4c-1.6,1.6-2.1,4-1.2,7.2
	c0.8,2.9,2.3,5.8,4.7,8.8c2.3,3,4.8,5.1,7.5,6.5c2.9,1.5,5.3,1.6,7.2,0.3c0,0,0.1-0.1,0.2-0.1c0.2-0.2,0.4-0.5,0.6-0.8l35.1-34.5
	l4.1-5.5l2.9-5.8l0.4-1.1l0.1-1.1l-0.4-1.9l-1-1.6c0.2-0.2,0.3-0.3,0.5-0.5l6.4-32.8l-14.7-6.5l-0.2-0.1l-0.1,0
	c-0.2-0.2-0.3-0.4-0.2-0.6c0-0.1,0-0.1,0-0.2c0-0.1,0-0.2,0.1-0.2v-0.1l1.2-1.1c0.1-0.1,0.2-0.2,0.2-0.2c0.1,0,0.1-0.1,0.1-0.1
	l0.2-0.2L125,64.3v0.9c1.6-0.6,4-2,7.2-4.2l3.1-2.2L102,39.5l4.4-3.2v-6l-10.8,5.5l-30-17.4C64.4,19.1,63.1,19.7,62,20.3 M54.7,25.2
	l1-0.8l26,18.7l-2.1,1.4l-24.9-19L54.7,25.2 M41.7,118.9L41.7,118.9C41.7,118.9,41.7,118.9,41.7,118.9L41.7,118.9z"/>
<path id="Layer2_12_MEMBER_0_1_STROKES" class="st2" d="M95.3,89l6.4-33.1"/>
<path id="Layer2_12_MEMBER_1_1_STROKES" class="st2" d="M39.5,113.7l0.1-0.1h0.1l0.1,0c0.4,0.3,0.6,0.6,0.7,1.1"/>
<path id="Layer2_12_MEMBER_2_1_STROKES" class="st3" d="M79.6,54.4L66.9,91.6"/>
<path id="Layer2_12_MEMBER_3_1_STROKES" class="st4" d="M38.3,117.1l-3.1,1.7c1-0.4,2.1-0.5,3.5-0.1l0.7-4.8 M38.8,118.7
	c0.7,0.2,1.4,0.4,2.2,0.8c0.1,0,0.1,0.1,0.2,0.1l-0.5-4.8 M88.7,106.8l-35.1,34.5c-0.2,0.4-0.5,0.7-0.8,1c-0.1,0-0.1,0.1-0.2,0.1
	c-1.6,1.3-3.8,1.2-6.8-0.1c-2.9-1.4-5.6-3.6-8.2-6.8c-2.5-3.2-4.1-6.4-4.8-9.5c-0.6-3.1-0.2-5.3,1.4-6.6c0.2-0.2,0.4-0.3,0.6-0.4
	c0.1-0.1,0.2-0.1,0.4-0.1 M67.2,92l-5.9,17.5l-20.2,10.1c2.8,1.4,5.5,3.6,8,6.6c2.6,3.2,4.2,6.3,4.8,9.5c0.5,2.4,0.4,4.2-0.4,5.5
	 M132.3,61.2l-34-19.7 M86.9,49.4l8.3,3.7l3.3,1.4l25.3,11.1 M93.7,36.7l1.8-0.8L65.3,18.3 M87,95.9l8.2-42.7 M98.6,54.6l-7.3,38.1
	 M61.6,20.2l30.1,17.4 M66.6,91.7l-27,22 M79.4,44.6L54.2,25.4 M95.5,35.8l11-5.6v6.1 M135.5,59l-34.2-19.9"/>
<path id="Layer2_12_MEMBER_4_1_STROKES" class="st3" d="M66.6,91.7c0.1-0.1,0.3-0.1,0.4,0c0.1,0.1,0.2,0.2,0.2,0.3"/>
<path id="Layer2_12_MEMBER_5_1_STROKES" class="st2" d="M101.2,39.1c-6.5,2.8-11.3,5.8-14.7,9c-0.2,0.3-0.3,0.5-0.2,0.7
	c0,0.3,0.2,0.5,0.5,0.6 M93.6,36.6c-5,2.4-9.5,4.9-13.6,7.6c-2.8,1.8-4.7,3.5-5.6,5.4c-0.9,1.6-0.9,2.9,0,3.9c0.9,1,2.3,1.4,4.4,1.1
	c2.3-0.3,4.8-1.4,7.7-3.2 M106.4,36.3l-4.4,3.2 M135.5,59l-3.2,2.2c-2.3,1.7-4.6,3-6.8,4.1c-0.5,0.2-0.8,0.4-1,0.4l-0.3,0
	 M88.7,106.8c2.9-3.4,5.3-7.2,7.1-11.4c0.5-1,0.6-2,0.4-3.1c-0.2-1.1-0.7-2-1.5-2.8c-5.1,5-13,10.4-23.7,16.3
	c-2.1,1.1-3.6,1.8-4.7,2.3c-1.9,0.8-3.6,1.3-5,1.4 M94.7,89.5c0.2-0.2,0.4-0.3,0.5-0.5 M65.3,18.2c-4.2,2.1-7.9,4.3-11,6.7L54.1,25
	v0.3"/>
<g>
	<path class="st5" d="M150.1,54.3l0,7.2l12.7-12.9L149.9,36l0,7.2c-31,4.3-56.4,2.3-78.8-7.3l-2.8-1l3.8,2.8
		C95.6,49.9,121.5,55.5,150.1,54.3z"/>
	<path id="Layer1_10_1_STROKES_5_" class="st6" d="M65.6,33.3l6.6,4.3c23.4,12.2,49.4,17.7,77.7,16.8l0,7.2l12.7-12.9l-12.9-12.7
		l0,7.2c-31,4.3-57.5,1.7-79.9-7.9C65.6,33.3,65.6,33.3,65.6,33.3z"/>
</g>
<path class="st7" d="M54.6,25.1l0,0.3l14.1,10.8c0.1-0.2,0.3-0.4,0.6-0.7c0.4-0.3,0.7-0.5,0.9-0.7L55.6,24.4L54.6,25.1z"/>
<g>
	<path class="st8" d="M321.7,90.4c1.7-1.5,4-3.2,6.8-5.2L171.7,14.9c-3.2,2.2-5.7,4.1-7.5,5.8c-3.4,3.2-3.9,5.4-1.4,6.7l157.3,69
		C318,95.2,318.5,93.2,321.7,90.4z"/>
	<path class="st5" d="M328.5,85.3l3.7,0.1L173.7,13.7l-2,1.2L328.5,85.3 M331.8,86.4l-0.2-0.4l-1.1,0.8l-0.1,0.1l-1.6,1.2h0
		l-0.8,0.5c-1.6,1.2-2.9,2.3-3.9,3.1c-1.8,1.5-2.7,2.8-2.8,3.8c0,0.5,0.4,1,1.1,1.4c1,0.4,2.8,0.3,5.4-0.3l0.5-0.1h0l2.4-0.7h0.1
		l0.8-0.4l0.2-0.2h0.1v-0.6c0-0.2,0-0.3-0.1-0.4V94l-0.8-0.5h-3.8c0.2,0.3,0.5,0.4,0.9,0.4c-0.4,0-0.7-0.2-0.9-0.4
		c-0.1-0.3-0.1-0.6,0-1c0-0.2,0.1-0.5,0.2-0.7c0.2-0.4,0.5-0.8,0.9-1.1l3.6-3.4v-0.1h0.1v-0.7l-0.9,0.6c-0.5,0.4-1.4,1-2.6,1.8
		l-0.2,0.1l-0.1,0.1l-0.1,0.1c-0.8,0.5-1.9,1.4-3.3,2.7l-1.6,1.3c-0.7,0.7-1.1,1.4-1.1,1.9c0.1,0.6,0.4,1,1.1,1.2
		c0.4,0.1,1,0.2,1.8,0.2c1.3-0.1,2.6-0.2,3.7-0.6c-1.1,0.3-2.4,0.5-3.7,0.6c-0.7,0-1.3-0.1-1.8-0.2c-0.7-0.2-1.1-0.6-1.1-1.2
		c0-0.5,0.4-1.1,1.1-1.9l1.6-1.3c1.4-1.2,2.5-2.1,3.3-2.7l0.1-0.1l0.1-0.1l0.2-0.1c1.2-0.8,2-1.4,2.6-1.8l0.9-0.6V86.4 M333.9,84.6
		l0-0.3L176.5,11.8l-2.8,2l158.5,71.7l-3.7-0.1c-2.9,1.9-5.1,3.7-6.8,5.2c-3.2,2.8-3.7,4.8-1.5,5.9l2,0.9c1.2,0.5,3.1,0.5,5.8-0.2
		c1.1-0.3,3.1-0.9,5.8-1.9l0-0.4l-6.6-3c-0.1,0.2-0.2,0.5-0.2,0.7c-0.1,0.4,0,0.7,0,1h3.8l0.8,0.5v0.1c0.1,0.1,0.1,0.2,0.1,0.4v0.6
		h-0.1l-0.2,0.2l-0.8,0.4h-0.1l-2.4,0.7h0l-0.5,0.1c-2.6,0.6-4.4,0.7-5.4,0.3c-0.7-0.4-1.1-0.8-1.1-1.4c0-1,1-2.3,2.8-3.8
		c1-0.8,2.3-1.9,3.9-3.1l0.8-0.5h0l1.6-1.2l0.1-0.1l1.1-0.8l0.4-0.3l0.2,0.1L333.9,84.6 M328.8,83.3c-0.2-0.1-0.2-0.2-0.1-0.4
		s0.3-0.2,0.5-0.1c0.2,0.1,0.2,0.2,0.1,0.3C329.2,83.3,329.1,83.3,328.8,83.3 M332.2,84.2L332.2,84.2L332.2,84.2l0.1,0.1v0.2l0,0.1
		c-0.2,0.1-0.3,0.1-0.5,0.1c-0.3-0.1-0.3-0.2-0.1-0.4C331.8,84.2,332,84.1,332.2,84.2 M326.3,81.5L326.3,81.5L326.3,81.5l0.1,0.2
		v0.1l-0.1,0.1c-0.1,0.1-0.3,0.1-0.4,0.1c-0.2-0.1-0.3-0.2-0.1-0.4C325.9,81.5,326.1,81.4,326.3,81.5 M322.8,80.3
		c0.1-0.1,0.2-0.2,0.4-0.1c0.2,0,0.3,0.1,0.2,0.2c0,0.2-0.2,0.2-0.4,0.2C322.9,80.6,322.8,80.5,322.8,80.3 M320.6,79
		c0,0.1-0.1,0.2-0.3,0.2c-0.2,0.1-0.4,0-0.4-0.1c0-0.2,0.1-0.3,0.3-0.3C320.4,78.8,320.5,78.8,320.6,79 M328,93.1
		c-0.2,0-0.3-0.1-0.3-0.2s0.1-0.2,0.4-0.1c0.2,0,0.3,0.1,0.3,0.2C328.4,93,328.3,93.1,328,93.1 M332.1,94.7c0.1-0.1,0.2-0.1,0.4-0.1
		c0.3,0,0.4,0.1,0.4,0.2l-0.4,0.1C332.2,94.9,332.1,94.8,332.1,94.7 M177.6,13.4c-0.1,0.1-0.3,0.1-0.4,0c-0.2-0.2-0.2-0.3,0.1-0.4
		c0.2-0.1,0.4,0,0.6,0.1C178,13.2,177.9,13.3,177.6,13.4 M180.7,14.5L180.7,14.5L180.7,14.5L180.7,14.5v0.2l-0.1,0.1h0
		c-0.1,0.1-0.3,0.1-0.5,0c-0.2-0.2-0.1-0.3,0.1-0.3C180.4,14.2,180.5,14.3,180.7,14.5 M183.6,16L183.6,16L183.6,16L183.6,16
		l-0.2,0.2h-0.1c-0.2,0.1-0.4,0-0.4-0.1c0-0.2,0.1-0.3,0.4-0.3C183.5,15.7,183.6,15.7,183.6,16l0.1-0.1L183.6,16 M186.5,17.4h-0.1
		c-0.1,0.1-0.2,0.1-0.4,0c-0.1-0.1-0.1-0.2,0.1-0.3c0.2-0.1,0.4-0.1,0.6,0l0,0.1v0L186.5,17.4 M194.6,21.4c-0.1-0.1-0.1-0.2,0-0.3
		c0.2-0.1,0.4-0.1,0.6,0.1c0.1,0.1,0.1,0.2-0.1,0.3C194.9,21.5,194.7,21.5,194.6,21.4 M189.5,18.5L189.5,18.5v0.1v0.1l-0.1,0
		c-0.1,0.1-0.2,0.1-0.4,0.1c-0.1,0-0.1,0-0.1-0.1c-0.1-0.1-0.1-0.2,0-0.2c0.1-0.1,0.3-0.1,0.5-0.1L189.5,18.5L189.5,18.5L189.5,18.5
		 M200.9,23.7L200.9,23.7l0.1,0.2l-0.1,0V24h0l-0.1,0h-0.1c-0.2,0.1-0.3,0.1-0.4,0c-0.2-0.1-0.2-0.2,0.1-0.3
		C200.6,23.6,200.7,23.6,200.9,23.7 M206.5,26.7L206.5,26.7c-0.2,0.1-0.4,0.1-0.5,0c-0.2-0.2-0.2-0.3,0.1-0.3
		c0.2-0.1,0.4-0.1,0.6,0.1l0,0v0.2L206.5,26.7 M212.3,29.2L212.3,29.2c-0.1,0.2-0.3,0.2-0.5,0.2c-0.2-0.1-0.3-0.3-0.1-0.4
		c0.2-0.2,0.3-0.2,0.5-0.1L212.3,29.2L212.3,29.2L212.3,29.2L212.3,29.2 M229.1,37.2c-0.2,0-0.4,0-0.4-0.2c0-0.1,0.1-0.2,0.4-0.3
		c0.2,0,0.3,0.1,0.3,0.2C229.4,37.1,229.3,37.2,229.1,37.2 M234.7,39.4c0.2,0,0.4,0.1,0.4,0.2c0,0.1-0.1,0.2-0.4,0.2
		c-0.2,0-0.4,0-0.4-0.2C234.3,39.5,234.5,39.4,234.7,39.4 M223.1,34.6c-0.2-0.2-0.2-0.3,0-0.3c0.2-0.1,0.4-0.1,0.6,0v0l0.1,0.1
		l-0.1,0.1v0.1l-0.1,0h0v0.1C223.4,34.6,223.2,34.6,223.1,34.6 M217.3,31.7c0.2-0.2,0.3-0.2,0.5-0.2c0.2,0.1,0.3,0.2,0.1,0.4
		c-0.1,0.1-0.3,0.1-0.5,0.1C217.3,31.9,217.2,31.8,217.3,31.7 M292.1,65.8c0,0.2-0.1,0.3-0.3,0.3c-0.3,0-0.4,0-0.5-0.2
		c0-0.2,0.1-0.3,0.4-0.3C291.9,65.6,292.1,65.7,292.1,65.8 M280,60.7c0-0.1,0.1-0.2,0.4-0.3c0.2,0,0.4,0.1,0.4,0.2
		c0,0.2-0.1,0.2-0.3,0.2C280.2,60.9,280,60.9,280,60.7 M285.7,63.3c-0.1-0.2,0-0.3,0.3-0.3c0.3,0,0.4,0.1,0.4,0.2v0.1h-0.1l-0.1,0.1
		h0l0,0h-0.1C285.9,63.6,285.8,63.5,285.7,63.3 M297.8,68.5c0,0.2-0.1,0.3-0.4,0.3c-0.2,0-0.4,0-0.4-0.2c0-0.1,0.1-0.2,0.3-0.2
		C297.6,68.3,297.8,68.3,297.8,68.5 M303.2,71.4c-0.2,0-0.4-0.1-0.4-0.2c0-0.2,0.1-0.2,0.4-0.2c0.2,0,0.4,0,0.4,0.2
		C303.5,71.2,303.4,71.3,303.2,71.4 M309.2,73.7c0,0.2-0.1,0.2-0.3,0.2c-0.2,0-0.4,0-0.4-0.1c0-0.2,0.1-0.3,0.4-0.3
		C309.1,73.5,309.2,73.6,309.2,73.7 M314.9,76.4c-0.1,0.2-0.3,0.2-0.5,0.2c-0.3,0-0.4-0.2-0.3-0.4c0.1-0.2,0.2-0.2,0.4-0.1l0.1,0
		h0.1l0,0.1v0.1L314.9,76.4L314.9,76.4 M257.5,49.9c0.2,0,0.4,0.1,0.4,0.2c0,0.2-0.1,0.3-0.4,0.3c-0.3,0-0.4-0.1-0.4-0.2
		C257.1,50,257.3,49.9,257.5,49.9 M263.5,52.6L263.5,52.6L263.5,52.6l0.1,0.1v0.1c0,0.1-0.1,0.2-0.3,0.3c-0.3,0-0.4,0-0.5-0.2
		c0-0.1,0.1-0.2,0.4-0.2H263.5 M240.5,42.5c-0.3,0-0.4,0-0.4-0.2c0-0.2,0.1-0.3,0.3-0.3c0.2,0,0.4,0,0.4,0.2
		C240.9,42.3,240.8,42.4,240.5,42.5 M246.2,45.1c-0.2,0-0.4,0-0.4-0.2c0-0.1,0.1-0.2,0.3-0.2c0.2,0,0.4,0.1,0.4,0.2
		C246.5,45,246.4,45.1,246.2,45.1 M251.5,47.6c0-0.2,0.1-0.3,0.4-0.3c0.3,0,0.4,0.1,0.4,0.2c0,0.2-0.1,0.2-0.3,0.2
		C251.7,47.8,251.5,47.7,251.5,47.6 M274.3,58.1c0-0.2,0.1-0.3,0.4-0.4c0.2,0,0.3,0.1,0.4,0.2c0,0.1-0.1,0.2-0.3,0.2
		C274.5,58.3,274.3,58.2,274.3,58.1 M269,55.2h0.2l0,0.1v0.1l0.1,0.1c0,0.1-0.1,0.2-0.3,0.2c-0.3,0.1-0.4,0.1-0.4-0.1
		C268.5,55.3,268.7,55.2,269,55.2L269,55.2L269,55.2 M269.2,55.2H269l0,0l0,0c-0.3,0-0.4,0.1-0.4,0.3c0,0.2,0.2,0.2,0.4,0.1
		c0.2,0,0.3-0.1,0.3-0.2l-0.1-0.1L269.2,55.2L269.2,55.2 M274.6,57.8c-0.3,0.1-0.4,0.2-0.4,0.4c0,0.1,0.2,0.2,0.5,0.1
		c0.2,0,0.3-0.1,0.3-0.2C275,57.8,274.8,57.8,274.6,57.8 M251.8,47.3c-0.3,0-0.4,0.1-0.4,0.3s0.2,0.2,0.5,0.2c0.2,0,0.3-0.1,0.3-0.2
		C252.2,47.3,252.1,47.3,251.8,47.3 M245.8,44.9c0,0.2,0.2,0.2,0.4,0.2c0.2,0,0.4-0.1,0.4-0.2c0-0.1-0.2-0.2-0.4-0.2
		C245.9,44.7,245.8,44.8,245.8,44.9 M240.1,42.3c0,0.1,0.2,0.2,0.4,0.2c0.2,0,0.3-0.1,0.3-0.3c0-0.1-0.2-0.2-0.4-0.2
		C240.2,42,240,42.1,240.1,42.3 M263.5,52.6L263.5,52.6l-0.2-0.1c-0.3,0-0.4,0.1-0.4,0.2c0,0.2,0.2,0.2,0.5,0.2
		c0.2-0.1,0.3-0.2,0.3-0.3v-0.1L263.5,52.6L263.5,52.6 M257.9,50.1c0-0.1-0.2-0.2-0.4-0.2c-0.3,0-0.4,0.1-0.3,0.2
		c0,0.1,0.1,0.2,0.4,0.2C257.8,50.4,257.9,50.3,257.9,50.1 M314.5,76.7c0.2,0,0.4-0.1,0.5-0.2v-0.1l-0.1-0.1v-0.1l0-0.1h-0.1l-0.1,0
		c-0.2-0.1-0.4,0-0.4,0.1C314.1,76.5,314.2,76.6,314.5,76.7 M308.9,74c0.2,0,0.3-0.1,0.3-0.2c0-0.1-0.1-0.2-0.3-0.2
		c-0.3,0-0.4,0.1-0.4,0.3C308.5,73.9,308.6,74,308.9,74 M302.8,71.2c0,0.2,0.2,0.2,0.4,0.2c0.2-0.1,0.3-0.2,0.3-0.3
		c0-0.2-0.2-0.2-0.4-0.2C302.9,70.9,302.8,71,302.8,71.2 M297.5,68.8c0.2,0,0.4-0.1,0.4-0.3c-0.1-0.1-0.2-0.2-0.5-0.1
		c-0.2,0-0.3,0.1-0.3,0.2C297.1,68.7,297.2,68.8,297.5,68.8 M286,63c-0.3,0-0.4,0.1-0.3,0.3c0,0.2,0.2,0.2,0.4,0.1h0.1l0,0h0
		l0.1-0.1h0.1v-0.1C286.4,63.1,286.3,63,286,63 M280.3,60.4c-0.3,0.1-0.4,0.2-0.4,0.3c0,0.2,0.2,0.2,0.5,0.2c0.2,0,0.3-0.1,0.3-0.2
		C280.7,60.5,280.6,60.4,280.3,60.4 M291.8,66.1c0.2,0,0.3-0.1,0.3-0.3c-0.1-0.1-0.2-0.2-0.4-0.1c-0.3,0-0.4,0.1-0.4,0.3
		C291.4,66.1,291.6,66.1,291.8,66.1 M217.8,31.5c-0.2-0.1-0.3,0-0.5,0.2c-0.1,0.1-0.1,0.2,0.1,0.3c0.2,0,0.4,0,0.5-0.1
		C218.1,31.7,218.1,31.6,217.8,31.5 M223.1,34.2c-0.2,0.1-0.2,0.2,0,0.3c0.2,0.1,0.3,0.1,0.5,0v-0.1h0l0.1,0v-0.1l0.1-0.1l-0.1-0.1
		v0C223.5,34.1,223.4,34.1,223.1,34.2 M235.1,39.6c0-0.2-0.2-0.2-0.4-0.2c-0.3,0-0.4,0.1-0.4,0.3c0,0.1,0.1,0.2,0.4,0.2
		C235,39.8,235.1,39.7,235.1,39.6 M228.7,37c0,0.2,0.2,0.2,0.4,0.2c0.2,0,0.3-0.1,0.3-0.2c0-0.2-0.1-0.2-0.3-0.2
		C228.8,36.8,228.7,36.9,228.7,37 M212.2,29.2L212.2,29.2L212.2,29.2l0.1-0.1v-0.1l-0.2-0.2c-0.2-0.1-0.3-0.1-0.5,0.1
		c-0.2,0.1-0.1,0.2,0.1,0.4C212,29.4,212.2,29.3,212.2,29.2 M206.4,26.7L206.4,26.7l0.2-0.1v-0.2l0,0c-0.2-0.1-0.4-0.2-0.6-0.1
		c-0.3,0.1-0.3,0.2-0.1,0.3C206.1,26.7,206.3,26.7,206.4,26.7 M200.9,23.8L200.9,23.8c-0.1-0.2-0.3-0.2-0.5-0.2
		c-0.2,0.1-0.3,0.2-0.1,0.3c0.1,0.1,0.2,0.1,0.4,0h0.1l0.1,0h0V23.8L200.9,23.8L200.9,23.8 M189.5,18.6L189.5,18.6L189.5,18.6
		l-0.1-0.2h-0.1c-0.2-0.1-0.4-0.1-0.5,0.1c-0.1,0.1-0.1,0.1,0,0.2c0,0.1,0.1,0.1,0.1,0.1c0.2,0.1,0.3,0,0.4-0.1l0.1,0L189.5,18.6
		L189.5,18.6 M194.6,21.1c-0.2,0.1-0.2,0.2,0,0.3c0.1,0.1,0.3,0.2,0.4,0.1c0.2-0.1,0.2-0.2,0.1-0.3C195,21,194.9,21,194.6,21.1
		 M186.4,17.4h0.1l0.1-0.2v0l0-0.1c-0.2-0.2-0.4-0.2-0.6,0c-0.2,0.1-0.2,0.2-0.1,0.3C186.1,17.5,186.3,17.5,186.4,17.4 M183.6,16
		L183.6,16l0.1-0.1h-0.1c0-0.1-0.1-0.2-0.3-0.2c-0.3,0-0.4,0.2-0.4,0.3c0,0.1,0.2,0.2,0.4,0.1h0.1L183.6,16L183.6,16L183.6,16
		 M180.7,14.5L180.7,14.5c-0.2-0.2-0.4-0.3-0.5-0.1c-0.3,0.1-0.3,0.2-0.1,0.3c0.2,0.1,0.4,0.1,0.5,0h0l0.1-0.1V14.5L180.7,14.5
		L180.7,14.5 M177.2,13.4c0.2,0.1,0.3,0.2,0.4,0c0.3-0.1,0.3-0.2,0.2-0.3c-0.2-0.1-0.4-0.1-0.6-0.1C177,13.1,177,13.2,177.2,13.4
		 M332.5,94.6c-0.2,0-0.3,0.1-0.4,0.1c0,0.1,0.1,0.2,0.4,0.2l0.4-0.1C332.9,94.6,332.7,94.6,332.5,94.6 M327.7,92.9
		c0,0.1,0.1,0.2,0.3,0.2c0.3,0,0.4-0.1,0.4-0.1c0-0.1-0.1-0.2-0.3-0.2C327.8,92.7,327.7,92.7,327.7,92.9 M320.3,79.2
		c0.2,0,0.3-0.1,0.3-0.2c0-0.2-0.2-0.2-0.4-0.2c-0.2,0-0.3,0.1-0.3,0.3C319.9,79.2,320,79.3,320.3,79.2 M323.3,80.2
		c-0.2,0-0.4,0-0.4,0.1c-0.1,0.2,0,0.3,0.3,0.3c0.2,0,0.4-0.1,0.4-0.2C323.6,80.3,323.5,80.2,323.3,80.2 M326.4,81.5L326.4,81.5
		c-0.3-0.1-0.5,0-0.5,0.1c-0.2,0.2-0.1,0.3,0.1,0.4c0.2,0,0.3,0,0.4-0.1l0.1-0.1v-0.1L326.4,81.5L326.4,81.5 M332.2,84.2L332.2,84.2
		c-0.2-0.1-0.4-0.1-0.5,0.1c-0.2,0.2-0.2,0.3,0.1,0.4c0.1,0,0.3,0,0.5-0.1l0-0.1v-0.2L332.2,84.2L332.2,84.2 M328.7,83
		c-0.1,0.2-0.1,0.3,0.1,0.4c0.2,0,0.4,0,0.5-0.1c0.1-0.1,0.1-0.2-0.1-0.3C329,82.8,328.9,82.8,328.7,83z"/>
	<path id="Layer2_14_1_STROKES" class="st4" d="M331.6,86l0.4-0.3l0.2,0.1l1.7-1.2l0-0.3L176.5,11.8l-2.8,2l158.5,71.7l-3.7-0.1
		c-2.9,1.9-5.1,3.7-6.8,5.2c-3.2,2.8-3.7,4.8-1.5,5.9l2,0.9c1.2,0.5,3.1,0.5,5.8-0.2c1.1-0.3,3.1-0.9,5.8-1.9l0-0.4l-6.6-3
		c-0.1,0.2-0.2,0.5-0.2,0.7c-0.1,0.4,0,0.7,0,1h3.8l0.8,0.5v0.1c0.1,0.1,0.1,0.2,0.1,0.4v0.6h-0.1l-0.2,0.2l-0.8,0.4h-0.1l-2.4,0.7
		h0l-0.5,0.1c-2.6,0.6-4.4,0.7-5.4,0.3c-0.7-0.4-1.1-0.8-1.1-1.4c0-1,1-2.3,2.8-3.8c1-0.8,2.3-1.9,3.9-3.1l0.8-0.5h0l1.6-1.2
		l0.1-0.1L331.6,86l0.2,0.4v0.1v0.7h-0.1v0.1l-3.6,3.4c-0.4,0.3-0.6,0.7-0.9,1.1 M328.7,83c0.1-0.2,0.3-0.2,0.5-0.1
		c0.2,0.1,0.2,0.2,0.1,0.3c-0.1,0.1-0.3,0.1-0.5,0.1C328.6,83.2,328.6,83.1,328.7,83z M332.3,84.5L332.3,84.5
		c-0.2,0.1-0.4,0.1-0.5,0.1c-0.3-0.1-0.3-0.2-0.1-0.4c0.1-0.1,0.3-0.1,0.5-0.1h0v0.1l0,0.1V84.5z M331.8,86.6l-0.9,0.6
		c-0.5,0.4-1.4,1-2.6,1.8l-0.2,0.1l-0.1,0.1l-0.1,0.1c-0.8,0.5-1.9,1.4-3.3,2.7l-1.6,1.3c-0.7,0.7-1.1,1.4-1.1,1.9
		c0.1,0.6,0.4,1,1.1,1.2c0.4,0.1,1,0.2,1.8,0.2c1.3-0.1,2.6-0.2,3.7-0.6 M326.4,81.5L326.4,81.5l0.1,0.2v0.1l-0.1,0.1
		c-0.1,0.1-0.3,0.1-0.4,0.1c-0.2-0.1-0.3-0.2-0.1-0.4C325.9,81.5,326.1,81.4,326.4,81.5L326.4,81.5z M322.8,80.3
		c0.1-0.1,0.2-0.2,0.4-0.1c0.2,0,0.3,0.1,0.2,0.2c0,0.2-0.2,0.2-0.4,0.2C322.9,80.6,322.8,80.5,322.8,80.3z M320.3,79.2
		c0.2,0,0.3-0.1,0.3-0.2c0-0.2-0.2-0.2-0.4-0.2c-0.2,0-0.3,0.1-0.3,0.3C319.9,79.2,320,79.3,320.3,79.2z M327.7,92.9
		c0-0.1,0.1-0.2,0.4-0.1c0.2,0,0.3,0.1,0.3,0.2c0,0.1-0.1,0.1-0.4,0.1C327.8,93.1,327.7,93,327.7,92.9z M327.1,93.5
		c0.2,0.3,0.5,0.4,0.9,0.4 M332.1,94.7c0.1-0.1,0.2-0.1,0.4-0.1c0.3,0,0.4,0.1,0.4,0.2l-0.4,0.1C332.2,94.9,332.1,94.8,332.1,94.7z
		 M320.2,96.4l-157.3-69c-2.5-1.3-2.1-3.5,1.4-6.7c1.8-1.7,4.3-3.6,7.5-5.8l2-1.2 M177.6,13.4c-0.1,0.1-0.3,0.1-0.4,0
		c-0.2-0.2-0.2-0.3,0.1-0.4c0.2-0.1,0.4,0,0.6,0.1C178,13.2,177.9,13.3,177.6,13.4z M180.8,14.6L180.8,14.6L180.8,14.6l-0.2,0.2h0
		c-0.1,0.1-0.3,0.1-0.5,0c-0.2-0.2-0.1-0.3,0.1-0.3C180.4,14.2,180.5,14.3,180.8,14.6L180.8,14.6L180.8,14.6z M183.6,16L183.6,16
		L183.6,16l-0.2,0.1h-0.1c-0.2,0.1-0.4,0-0.4-0.1c0-0.2,0.1-0.3,0.4-0.3c0.2,0,0.3,0.1,0.3,0.2h0.1L183.6,16L183.6,16z M186.6,17.2
		L186.6,17.2L186.6,17.2l-0.1,0.2h-0.1c-0.1,0.1-0.2,0.1-0.4,0c-0.1-0.1-0.1-0.2,0.1-0.3C186.2,17,186.4,17,186.6,17.2z M194.6,21.4
		c-0.1-0.1-0.1-0.2,0-0.3c0.2-0.1,0.4-0.1,0.6,0.1c0.1,0.1,0.1,0.2-0.1,0.3C194.9,21.5,194.7,21.5,194.6,21.4z M189.5,18.5
		L189.5,18.5L189.5,18.5v0.2v0.1l-0.1,0c-0.1,0.1-0.2,0.1-0.4,0.1c-0.1,0-0.1,0-0.1-0.1c-0.1-0.1-0.1-0.2,0-0.2
		c0.1-0.1,0.3-0.1,0.5-0.1L189.5,18.5L189.5,18.5z M200.9,23.8L200.9,23.8L200.9,23.8V24h0l-0.1,0h-0.1c-0.2,0.1-0.3,0.1-0.4,0
		c-0.2-0.1-0.2-0.2,0.1-0.3C200.6,23.6,200.7,23.6,200.9,23.8L200.9,23.8z M206.5,26.7L206.5,26.7c-0.2,0.1-0.4,0.1-0.5,0
		c-0.2-0.2-0.2-0.3,0.1-0.3c0.2-0.1,0.4-0.1,0.6,0.1l0,0v0.2L206.5,26.7z M212.3,29.2L212.3,29.2c-0.1,0.2-0.3,0.2-0.5,0.2
		c-0.2-0.1-0.3-0.3-0.1-0.4c0.2-0.2,0.3-0.2,0.5-0.1L212.3,29.2L212.3,29.2L212.3,29.2L212.3,29.2z M228.7,37c0,0.2,0.2,0.2,0.4,0.2
		c0.2,0,0.3-0.1,0.3-0.2c0-0.2-0.1-0.2-0.3-0.2C228.8,36.8,228.7,36.9,228.7,37z M234.7,39.4c0.2,0,0.4,0.1,0.4,0.2
		c0,0.1-0.1,0.2-0.4,0.2c-0.2,0-0.4,0-0.4-0.2C234.3,39.5,234.5,39.4,234.7,39.4z M223.1,34.2c0.2-0.1,0.4-0.1,0.6,0v0l0.1,0.1
		l-0.1,0.1v0.1l-0.1,0h0v0.1c-0.2,0.1-0.3,0.1-0.5,0C222.9,34.4,222.9,34.3,223.1,34.2z M217.3,31.7c0.2-0.2,0.3-0.2,0.5-0.2
		c0.2,0.1,0.3,0.2,0.1,0.4c-0.1,0.1-0.3,0.1-0.5,0.1C217.3,31.9,217.2,31.8,217.3,31.7z M292.1,65.8c0,0.2-0.1,0.3-0.3,0.3
		c-0.3,0-0.4,0-0.5-0.2c0-0.2,0.1-0.3,0.4-0.3C291.9,65.6,292.1,65.7,292.1,65.8z M280,60.7c0-0.1,0.1-0.2,0.4-0.3
		c0.2,0,0.4,0.1,0.4,0.2c0,0.2-0.1,0.2-0.3,0.2C280.2,60.9,280,60.9,280,60.7z M286,63c0.3,0,0.4,0.1,0.4,0.2v0.1h-0.1l-0.1,0.1h0
		l0,0h-0.1c-0.2,0.1-0.4,0.1-0.4-0.1C285.7,63.1,285.8,63,286,63z M297.5,68.8c0.2,0,0.4-0.1,0.4-0.3c-0.1-0.1-0.2-0.2-0.5-0.1
		c-0.2,0-0.3,0.1-0.3,0.2C297.1,68.7,297.2,68.8,297.5,68.8z M302.8,71.2c0,0.2,0.2,0.2,0.4,0.2c0.2-0.1,0.3-0.2,0.3-0.3
		c0-0.2-0.2-0.2-0.4-0.2C302.9,70.9,302.8,71,302.8,71.2z M308.9,74c0.2,0,0.3-0.1,0.3-0.2c0-0.1-0.1-0.2-0.3-0.2
		c-0.3,0-0.4,0.1-0.4,0.3C308.5,73.9,308.6,74,308.9,74z M314.9,76.3L314.9,76.3l0.1,0.1v0.1c-0.1,0.2-0.3,0.2-0.5,0.2
		c-0.3,0-0.4-0.2-0.3-0.4c0.1-0.2,0.2-0.2,0.4-0.1l0.1,0L314.9,76.3L314.9,76.3z M257.6,50.4c-0.3,0-0.4-0.1-0.4-0.2
		c0-0.1,0.1-0.2,0.3-0.2c0.2,0,0.4,0.1,0.4,0.2C257.9,50.3,257.8,50.4,257.6,50.4z M263.6,52.7c0,0.1-0.1,0.2-0.3,0.3
		c-0.3,0-0.4,0-0.5-0.2c0-0.1,0.1-0.2,0.4-0.2h0.2v0.1h0L263.6,52.7L263.6,52.7z M240.5,42.5c-0.3,0-0.4,0-0.4-0.2
		c0-0.2,0.1-0.3,0.3-0.3c0.2,0,0.4,0,0.4,0.2C240.9,42.3,240.8,42.4,240.5,42.5z M245.8,44.9c0,0.2,0.2,0.2,0.4,0.2
		c0.2,0,0.4-0.1,0.4-0.2c0-0.1-0.2-0.2-0.4-0.2C245.9,44.7,245.8,44.8,245.8,44.9z M251.5,47.6c0-0.2,0.1-0.3,0.4-0.3
		c0.3,0,0.4,0.1,0.4,0.2c0,0.2-0.1,0.2-0.3,0.2C251.7,47.8,251.5,47.7,251.5,47.6z M274.3,58.1c0-0.2,0.1-0.3,0.4-0.4
		c0.2,0,0.3,0.1,0.4,0.2c0,0.1-0.1,0.2-0.3,0.2C274.5,58.3,274.3,58.2,274.3,58.1z M269,55.2h0.2l0,0.1v0.1l0.1,0.1
		c0,0.1-0.1,0.2-0.3,0.2c-0.3,0.1-0.4,0.1-0.4-0.1C268.5,55.3,268.7,55.2,269,55.2L269,55.2L269,55.2z M171.7,14.9l156.8,70.3"/>
</g>
</svg>
