<?xml version="1.0" encoding="utf-8"?>
<!-- Generator: Adobe Illustrator 24.2.0, SVG Export Plug-In . SVG Version: 6.00 Build 0)  -->
<svg version="1.1" id="Ebene_1" xmlns="http://www.w3.org/2000/svg" xmlns:xlink="http://www.w3.org/1999/xlink" x="0px" y="0px"
	 viewBox="0 0 349.1 161" style="enable-background:new 0 0 349.1 161;" xml:space="preserve">
<style type="text/css">
	.st0{fill:#0099FF;}
	.st1{fill:#666666;}
	.st2{fill:none;stroke:#000000;stroke-width:0.5;stroke-miterlimit:4.9999;}
</style>
<path class="st0" d="M212,96.6c-0.5,0.5-1.1,0.9-1.6,1.4c-8.5,8.1-12.4,15.2-11.8,21.4c0.1,1.2,0.8,2.1,1.9,2.6
	c0.9,0.4,2.1,0.6,3.6,0.6c0.5,0,2.9-0.3,7.4-1l3.2-0.9c4.3-1.1,7.6-2.1,9.9-3.1l-0.1-0.5l-16.7-6.6c1.6-6,6.8-12.7,15.6-20l-0.3-1.3
	l-0.6-0.5c0.6-0.5,1.3-0.9,1.9-1.4v-0.8c0,0-0.1,0.1-0.1,0.1l-93.3-41.2c-1.4,1.1-2.7,2.1-4,3c-3.6,2.7-6.4,5-8.6,6.9L212,96.6
	 M138.6,52.2c-0.3-0.1-0.4-0.3-0.4-0.5c0-0.5,0.5-0.8,1.4-0.8c1,0,1.4,0.3,1.4,0.8c0,0.6-0.5,0.8-1.4,0.8
	C139.2,52.5,138.9,52.4,138.6,52.2 M181,70.7c-0.4,0-0.7-0.1-0.9-0.3c-0.3-0.1-0.4-0.3-0.4-0.5c0-0.5,0.4-0.8,1.4-0.8
	c0.9,0,1.4,0.3,1.4,0.8c0,0.2-0.1,0.4-0.4,0.5C181.7,70.6,181.4,70.7,181,70.7 M191.3,73.7c1,0,1.4,0.3,1.4,0.9
	c0,0.2-0.1,0.4-0.4,0.5c-0.3,0.2-0.7,0.3-1,0.3c-0.3,0-0.7-0.1-1-0.3c-0.3-0.1-0.4-0.3-0.4-0.5C189.9,74,190.4,73.7,191.3,73.7
	 M213.1,83c0.3,0.2,0.4,0.4,0.4,0.6c0,0.6-0.4,0.8-1.4,0.8c-1,0-1.4-0.3-1.4-0.8c0-0.5,0.5-0.8,1.4-0.8
	C212.5,82.8,212.8,82.9,213.1,83 M203.1,79c0,0.5-0.5,0.8-1.4,0.8c-0.9,0-1.4-0.3-1.4-0.8c0-0.2,0.1-0.4,0.4-0.6
	c0.3-0.2,0.6-0.3,0.9-0.2C202.7,78.2,203.1,78.4,203.1,79 M160.3,61.5c-0.9,0-1.4-0.3-1.4-0.8c0-0.5,0.5-0.8,1.4-0.8
	c1,0,1.4,0.2,1.4,0.8C161.7,61.3,161.3,61.5,160.3,61.5 M170.6,66.2c-0.9,0-1.4-0.3-1.4-0.8c0-0.2,0.1-0.4,0.4-0.5
	c0.3-0.2,0.6-0.3,1-0.3c1,0,1.4,0.3,1.4,0.8C172,65.9,171.6,66.2,170.6,66.2 M150.9,56.8c-0.3,0.2-0.6,0.2-0.9,0.2
	c-0.4,0-0.8-0.1-1.1-0.2c-0.3-0.2-0.4-0.3-0.4-0.5c0-0.6,0.5-0.9,1.4-0.9c0.9,0,1.4,0.3,1.4,0.9C151.3,56.5,151.2,56.7,150.9,56.8
	 M211.9,112.6l-0.3,0.2l-0.3-0.2l0.1-0.1h0.2L211.9,112.6L211.9,112.6 M219.2,85.8c0.9,0,1.4,0.3,1.4,0.8c0,0.5-0.5,0.8-1.4,0.8
	c-0.9,0-1.4-0.2-1.4-0.8C217.8,86.1,218.3,85.8,219.2,85.8 M215.3,114l0.2,0.1l0.1,0.1l-0.1,0.1h-0.2l-0.4-0.1l0.2-0.1L215.3,114
	 M222.8,117l0,0.1l0,0.1h-0.2l-0.2-0.1l-0.1-0.1l0.3-0.1L222.8,117 M218.7,115.5h0.2l0.2,0.1l0.1,0.1l-0.1,0.1h-0.4l-0.1-0.1
	L218.7,115.5 M130.8,48.3c0-0.6,0.5-0.9,1.4-0.9c0.9,0,1.4,0.3,1.4,0.9c0,0.5-0.5,0.8-1.4,0.8C131.3,49.1,130.8,48.8,130.8,48.3z"/>
<path class="st1" d="M210.5,98c0.5-0.5,1-1,1.6-1.4l-93.5-41.2c-0.5,0.5-1,0.9-1.4,1.3c-0.1,0.1-0.2,0.2-0.3,0.2
	c-5.2,4.8-9,9.6-11.5,14.3c-1.2,2.3-1.9,4.7-2.2,7c-0.4,2.8,0.2,4.7,1.6,5.6l95.9,38.2c-1.1-0.5-1.7-1.4-1.9-2.6
	C198.1,113.2,202,106.1,210.5,98z"/>
<path id="Layer3_2_MEMBER_1_MEMBER_0_1_STROKES" class="st2" d="M117.1,56.8l93.2,41.2"/>
<path id="Layer3_2_MEMBER_1_MEMBER_1_1_STROKES" class="st2" d="M118.5,55.3l93.4,41.2"/>
<path id="Layer3_2_MEMBER_1_MEMBER_2_1_STROKES" class="st2" d="M224.5,117.2l0.1,0.5"/>
<path id="Layer3_2_MEMBER_1_MEMBER_3_1_STROKES" class="st2" d="M224.5,86.5v0.8"/>
<path id="Layer3_2_MEMBER_1_MEMBER_4_1_STROKES" class="st2" d="M223.1,89.2l-0.5-0.5"/>
<path id="Layer3_2_MEMBER_1_MEMBER_5_1_STROKES" class="st2" d="M223.5,90.5l-0.3-1.3"/>
<path id="Layer3_2_MEMBER_1_MEMBER_6_1_STROKES" class="st2" d="M207.6,111.9l-0.1,1.8l0.3,1.6l0.7,1.1"/>
<path id="Layer3_2_MEMBER_1_MEMBER_7_1_STROKES" class="st2" d="M211.5,121.2c-4,0.6-6.3,0.9-7,0.9c-3.2,0-5-1-5.2-3.1
	c-0.9-8.7,7.5-19.3,25.2-31.7"/>
<path id="Layer3_2_MEMBER_1_MEMBER_8_1_STROKES" class="st2" d="M214.6,120.4c4.4-1.1,7.8-2.2,10-3.3"/>
<path id="Layer3_2_MEMBER_1_MEMBER_9_1_STROKES" class="st2" d="M211.5,121.2l2.9-0.7"/>
<path id="Layer3_2_MEMBER_1_MEMBER_10_1_STROKES" class="st2" d="M220.5,116l0.7,1.1"/>
<path id="Layer3_2_MEMBER_1_MEMBER_11_1_STROKES" class="st2" d="M208.5,116.4c0.2,0.3,0.7,0.5,1.5,0.6"/>
<path id="Layer3_2_MEMBER_1_MEMBER_12_1_STROKES" class="st2" d="M210,117c2.1,0.4,5.6,0,10.4-1.1"/>
<path id="Layer3_2_MEMBER_1_MEMBER_13_1_STROKES" class="st2" d="M223.5,90.5c-9.4,7.9-14.7,15-15.9,21.4"/>
<path id="Layer3_2_MEMBER_1_MEMBER_14_1_STROKES" class="st2" d="M222.8,117l-0.2-0.1l-0.2,0.1l-0.1,0.1l0.1,0.1l0.2,0.1h0.2
	l0.1-0.1L222.8,117z"/>
<path id="Layer3_2_MEMBER_1_MEMBER_15_1_STROKES" class="st2" d="M219.1,115.7L219.1,115.7v-0.1l-0.2-0.1h-0.2l-0.1,0.1l0.1,0.1
	H219.1z"/>
<path id="Layer3_2_MEMBER_1_MEMBER_16_1_STROKES" class="st2" d="M215.5,114l-0.2-0.1L215,114l-0.1,0.1l0.1,0.1l0.2,0.1h0.2l0.1-0.1
	L215.5,114z"/>
<path id="Layer3_2_MEMBER_1_MEMBER_17_1_STROKES" class="st2" d="M211.7,112.5l-0.2-0.1h-0.2l-0.1,0.1l0.1,0.1l0.2,0.1l0.2-0.1
	l0.1-0.1L211.7,112.5z"/>
<path id="Layer3_2_MEMBER_1_MEMBER_18_1_STROKES" class="st2" d="M224.5,117.2l-16.6-6.6"/>
<path id="Layer3_2_MEMBER_1_MEMBER_19_1_STROKES" class="st2" d="M211.5,121.7c-4.4,0.7-6.8,1-7.3,1c-3.4,0-5.2-1.1-5.5-3.3
	c-0.9-9,7.7-20,25.8-32.9"/>
<path id="Layer3_2_MEMBER_1_MEMBER_20_1_STROKES" class="st2" d="M210.9,116.8l5.1-1.5"/>
<path id="Layer3_2_MEMBER_1_MEMBER_21_1_STROKES" class="st2" d="M216,115.3l-8.4-3.5"/>
<path id="Layer3_2_MEMBER_1_MEMBER_22_1_STROKES" class="st2" d="M210,117l0.9-0.2"/>
<path id="Layer3_2_MEMBER_1_MEMBER_23_1_STROKES" class="st2" d="M199.9,120.2c0.3,0.3,0.8,0.5,1.6,0.6"/>
<path id="Layer3_2_MEMBER_1_MEMBER_24_1_STROKES" class="st2" d="M217.6,116.6l-2.4-0.9"/>
<path id="Layer3_2_MEMBER_1_MEMBER_25_1_STROKES" class="st2" d="M212.1,117.2l3.9-1.2"/>
<path id="Layer3_2_MEMBER_1_MEMBER_26_1_STROKES" class="st2" d="M213,116.2l0.9,0.4"/>
<path id="Layer3_2_MEMBER_1_MEMBER_27_1_STROKES" class="st2" d="M201.5,120.8c1.4,0.3,3.4,0.2,6.1-0.2c4.8-0.8,9.4-1.9,13.6-3.5"/>
<path id="Layer3_2_MEMBER_1_MEMBER_28_1_STROKES" class="st2" d="M214.8,120.8c4.3-1.1,7.6-2.1,9.9-3.2"/>
<path id="Layer3_2_MEMBER_1_MEMBER_29_1_STROKES" class="st2" d="M211.5,121.7l3.1-0.7"/>
<path id="Layer3_2_MEMBER_1_MEMBER_30_1_STROKES" class="st2" d="M105.6,84.2c-2.1-0.6-3-2.6-2.6-6c0.3-2.4,1.1-4.7,2.2-7
	c2.4-4.7,6.3-9.5,11.5-14.3c3-2.7,7.8-6.5,14.4-11.5"/>
<path id="Layer3_2_MEMBER_1_MEMBER_31_1_STROKES" class="st2" d="M104.6,83.8l95.9,38.3"/>
<path id="Layer3_2_MEMBER_1_MEMBER_32_1_STROKES" class="st2" d="M131.2,45.4l93.1,41"/>
<path id="Layer3_2_MEMBER_1_MEMBER_33_1_STROKES" class="st2" d="M127.1,48.4l93.1,41.1"/>
<path id="Layer3_2_MEMBER_1_MEMBER_34_1_STROKES" class="st2" d="M132.2,49c0.9,0,1.4-0.3,1.4-0.8c0-0.5-0.5-0.8-1.4-0.8
	s-1.4,0.3-1.4,0.8C130.8,48.8,131.2,49,132.2,49z"/>
<path id="Layer3_2_MEMBER_1_MEMBER_35_1_STROKES" class="st2" d="M140.9,51.6c0,0.5-0.5,0.8-1.4,0.8c-0.4,0-0.7-0.1-0.9-0.3
	c-0.3-0.1-0.4-0.3-0.4-0.5c0-0.5,0.5-0.8,1.4-0.8C140.4,50.8,140.9,51.1,140.9,51.6z"/>
<path id="Layer3_2_MEMBER_1_MEMBER_36_1_STROKES" class="st2" d="M151.2,56.2c0,0.2-0.1,0.4-0.4,0.5c-0.3,0.2-0.6,0.3-0.9,0.3
	c-0.4,0-0.7-0.1-1-0.3c-0.3-0.1-0.4-0.3-0.4-0.5c0-0.5,0.5-0.8,1.4-0.8C150.8,55.4,151.2,55.7,151.2,56.2z"/>
<path id="Layer3_2_MEMBER_1_MEMBER_37_1_STROKES" class="st2" d="M161.7,60.7c0,0.5-0.5,0.8-1.4,0.8c-0.9,0-1.4-0.3-1.4-0.8
	c0-0.5,0.5-0.7,1.4-0.7S161.7,60.2,161.7,60.7z"/>
<path id="Layer3_2_MEMBER_1_MEMBER_38_1_STROKES" class="st2" d="M172,65.3c0,0.5-0.5,0.8-1.4,0.8c-0.9,0-1.4-0.3-1.4-0.8
	c0-0.2,0.1-0.4,0.4-0.5c0.3-0.2,0.6-0.3,0.9-0.3C171.5,64.5,172,64.8,172,65.3z"/>
<path id="Layer3_2_MEMBER_1_MEMBER_39_1_STROKES" class="st2" d="M180.9,70.7c0.4,0,0.7-0.1,1-0.3c0.3-0.1,0.4-0.3,0.4-0.5
	c0-0.5-0.5-0.8-1.4-0.8c-0.9,0-1.4,0.3-1.4,0.8c0,0.2,0.1,0.4,0.4,0.5C180.3,70.6,180.6,70.7,180.9,70.7z"/>
<path id="Layer3_2_MEMBER_1_MEMBER_40_1_STROKES" class="st2" d="M191.3,75.3c0.4,0,0.7-0.1,1-0.3c0.3-0.1,0.4-0.3,0.4-0.5
	c0-0.5-0.5-0.8-1.4-0.8c-0.9,0-1.4,0.3-1.4,0.8c0,0.2,0.1,0.4,0.4,0.5C190.6,75.2,190.9,75.3,191.3,75.3z"/>
<path id="Layer3_2_MEMBER_1_MEMBER_41_1_STROKES" class="st2" d="M201.7,79.7c0.9,0,1.4-0.3,1.4-0.8c0-0.5-0.5-0.8-1.4-0.8
	c-0.4,0-0.7,0.1-0.9,0.3c-0.3,0.1-0.4,0.3-0.4,0.5C200.3,79.5,200.8,79.7,201.7,79.7z"/>
<path id="Layer3_2_MEMBER_1_MEMBER_42_1_STROKES" class="st2" d="M213.4,83.5c0,0.5-0.5,0.8-1.4,0.8c-0.9,0-1.4-0.3-1.4-0.8
	c0-0.5,0.5-0.8,1.4-0.8c0.4,0,0.7,0.1,0.9,0.3C213.3,83.1,213.4,83.3,213.4,83.5z"/>
<path id="Layer3_2_MEMBER_1_MEMBER_43_1_STROKES" class="st2" d="M220.5,86.6c0,0.5-0.5,0.7-1.4,0.7c-0.9,0-1.4-0.2-1.4-0.7
	c0-0.5,0.5-0.8,1.4-0.8C220.1,85.8,220.5,86.1,220.5,86.6z"/>
</svg>
