<?xml version="1.0" encoding="utf-8"?>
<!-- Generator: Adobe Illustrator 24.2.0, SVG Export Plug-In . SVG Version: 6.00 Build 0)  -->
<svg version="1.1" id="Ebene_1" xmlns="http://www.w3.org/2000/svg" xmlns:xlink="http://www.w3.org/1999/xlink" x="0px" y="0px"
	 viewBox="0 0 349.1 161" style="enable-background:new 0 0 349.1 161;" xml:space="preserve">
<style type="text/css">
	.st0{fill:#0099FF;}
	.st1{fill:none;stroke:#000000;stroke-width:0.55;stroke-miterlimit:5;}
	.st2{fill:none;stroke:#000000;stroke-width:0.25;stroke-miterlimit:5;}
	.st3{fill:none;stroke:#B1B1B1;stroke-width:0.55;stroke-miterlimit:5;}
	.st4{fill:none;stroke:#0099FF;stroke-width:0.55;stroke-miterlimit:5;}
	.st5{fill:none;stroke:#1D1D1D;stroke-width:0.7;stroke-linejoin:bevel;stroke-miterlimit:4;}
	.st6{fill:none;stroke:#1D1D1D;stroke-width:0.2;stroke-linejoin:bevel;stroke-miterlimit:4;}
	.st7{fill:none;stroke:#FF9900;stroke-linecap:round;stroke-linejoin:round;}
	.st8{font-family:'ArialMT';}
	.st9{font-size:14px;}
</style>
<path class="st0" d="M147.6,142.2l-3.5-3.7l-6.3-5.8l-7.1-4.9l-16.5-9.8l-13.8-6L88,104.3L81.1,99l-7.7-4.8l6.5-14.1l2.2-0.9
	l2.9-1.7l1.9-1.5l1.7-2.2l1.1-2.2l1.1-3.5l0.4-4.6l-0.2-4.8l-0.8-4.3l0.3-2.6l2.4-1.5l0.5-1.9L92.5,47l-0.7-0.4l-1.7-0.1l-2,1.1
	l-3-6.4l-3.7-5.9c3.4-1.8,5.3-3.2,5.7-4.1c1.7-3.1,0.5-5.7-3.7-7.8l-0.6,0.2l-1.7-0.1l-3.5,2l-1.9-0.8h-1.6l-1.7,1l-4.3-2.9
	l-4.7-2.3l-5.2-1l-3.9,0.3L51.5,21l-4.7,3.2l-2,2.9l-1.4,3.4l-0.8,4.1l0.2,6.5l-16,34.4l3.5,5.1l2.5,2.9l3.4,3L53.1,98l18.3,11
	l7.4,3.6l5,2l6.6,3.4l6.9,4.6l9.7,7.1l8.6,5.2l8.9,4.7l8.6,3.7l6.9,2.5l4.7,0.9l1.2-0.3l1.5-1.7l0.4-1.4L147.6,142.2z"/>
<path id="Layer1_1_MEMBER_0_1_STROKES" class="st1" d="M49.7,22.1l1.9-1.1c4.5-2.6,10-2.1,16.4,1.6c6.4,3.7,11.9,9.5,16.4,17.3
	c4.5,7.8,6.8,15.5,6.8,22.9c0,7.4-2.3,12.4-6.8,15l-1.8,1l-0.3,0.2c-0.7,0.4-1.5,0.8-2.3,1l-6.6,14.3l8,4.7
	c6.4,5.3,13.9,10.2,22.4,14.6l10.6,4.4l7.1,3.9l7.3,4.5l9.2,6.3l6.5,5.8l0.1,0.1l3,3.2c0.3,0.2,0.4,0.6,0.4,1.1
	c0,0.6-0.2,1.3-0.6,1.9c-0.4,0.6-0.8,1.1-1.4,1.4c-0.5,0.3-0.9,0.3-1.3,0.2c-1.4-0.1-2.8-0.4-4.2-0.7c0,0-0.1,0-0.1,0
	c-0.4-0.1-0.9-0.2-1.3-0.4c-1.5-0.5-3.3-1.1-5.4-2c-5.4-2.2-10.4-4.6-15.1-7.1c-6.3-3.4-11.7-6.8-16.2-10.1
	c-6.8-5.2-12.8-9.1-18.1-11.6l-7.3-3l-5.2-2.6l-13.5-8l-15.2-9.9l-7.7-5.7l-4.6-4.8l-3.8-5.3l16-34.5c-0.5-4.4-0.1-8.3,1-11.6
	c1.2-3.3,3-5.7,5.6-7.2L49.7,22.1c4.5-2.5,9.9-1.9,16.2,1.7c6.4,3.7,11.9,9.5,16.4,17.3C86.8,49,89,56.6,89,64
	c0,7.2-2.2,12.2-6.5,14.9 M48.2,28.9c0.4,0.3,0.8,0.7,1.1,1.2c0.3,0.5,0.4,1,0.4,1.5c0,0.5-0.1,0.8-0.4,1c-0.3,0.2-0.6,0.2-1.1-0.1
	c-0.4-0.2-0.8-0.6-1.1-1.2c-0.3-0.5-0.4-1-0.4-1.5c0-0.5,0.1-0.8,0.4-1C47.5,28.6,47.8,28.6,48.2,28.9z M79.8,80.1l3.6-7.8l1.1-2.4
	l3.1-6.7L85,59.8l-2.8-2.7l-8.1-5.6l-7.1-4.2c-3.9-2.2-6.9-3.8-9.1-4.8c-3.3-1.6-6.5-2.8-9.6-3.7l-4.3-0.6L42.9,41 M66.9,29.9
	c-0.3,0.2-0.7,0.1-1.1-0.1c-0.4-0.2-0.8-0.6-1.1-1.1c-0.3-0.5-0.4-1-0.4-1.5c0-0.5,0.1-0.8,0.4-1c0.3-0.2,0.7-0.1,1.1,0.1
	c0.4,0.2,0.8,0.6,1.1,1.1c0.3,0.5,0.4,1,0.4,1.5C67.4,29.4,67.2,29.7,66.9,29.9z M36.4,38.9c0,0,0.1-0.1,0.1-0.1l-0.9,0.5l-0.2,0.1
	l-0.9,0.5c0,0-0.1,0.1-0.1,0.1h-0.1l-4.5,2.6c0.2,0.7,0,1.2-0.5,1.5c0,0-0.1,0-0.1,0l-0.6,0.3c-1.1-0.1-1.9-0.6-2.4-1.5
	c-0.5-0.9-0.6-1.9,0-2.8l0.6-0.3c0,0,0,0,0,0c0.5-0.3,1-0.2,1.5,0.2l4.5-2.6l0.1-0.1l1-0.6c0,0,0.1,0,0.1,0l0.9-0.5l0.2-0.1l0.8-0.4
	c0,0,0,0,0.1,0l0,0l0.7-0.4c0.5-0.4,1-0.1,1.5,0.7c0.5,0.9,0.6,1.5,0,1.8l-0.7,0.4c0,0,0,0-0.1,0l-0.1,0l-0.8,0.4
	c0.4-0.4,0.3-0.9-0.2-1.7c-0.5-0.7-0.9-1-1.3-0.9 M27.3,41.5l-0.6-0.3l-0.3,0.7l0,0.5l0.8-0.3L27.3,41.5z M26.3,42.4
	c-0.2-0.1-0.4-0.3-0.4-0.6l0,0.5c0.1,0.3,0.2,0.5,0.5,0.8l0.7-0.4l-0.1,0l0.1-0.5 M26.5,43.1l0.3,0.4l0.6,0.4L27,43.4l0.7-0.5
	l-0.2-0.1l-0.4-0.2 M27,43.4l0.5,0.1l0.4,0l0.4,0l0-0.6h-0.4l-0.2-0.1 M32.9,37.4c0.2-0.1,0.5,0,0.8,0.1c0.3,0.2,0.5,0.4,0.6,0.7
	c0.2,0.3,0.3,0.6,0.3,0.9c0,0.3,0,0.6-0.2,0.8L34.3,40h0 M35.5,39.3c0.3-0.4,0.2-0.9-0.2-1.7c-0.5-0.8-0.9-1.1-1.4-0.9 M28.2,40
	c0.3,0.3,0.7,0.7,1,1.3c0.3,0.5,0.5,0.9,0.5,1.3 M35.9,35.7c0.5-0.2,0.9,0,1.4,0.8c0.5,0.8,0.5,1.4,0.1,1.8l-0.1,0.1 M73.2,94.3
	l-7.6-4.5l-14.7-7.3l-12.9-5l-9.1-2.1l-2,0 M81.5,46.6c-0.3,0.2-0.4,0.5-0.4,1c0,0.5,0.1,0.9,0.4,1.5c0.3,0.5,0.7,0.9,1.1,1.1
	c0.4,0.2,0.8,0.3,1.1,0.1c0.3-0.2,0.4-0.5,0.4-1c0-0.5-0.1-1-0.4-1.5c-0.3-0.5-0.7-0.9-1.1-1.1C82.1,46.5,81.8,46.5,81.5,46.6z
	 M83.4,72.3c0.4,0.3,0.8,0.4,1.1,0.2c0.3-0.2,0.4-0.5,0.4-1c0-0.5-0.2-1-0.5-1.5 M144.5,146.5c0,0-0.1,0-0.1-0.1
	c-0.4-0.2-0.5-0.6-0.5-1.3c0-0.6,0.2-1.2,0.5-1.9c0.4-0.7,0.8-1.2,1.4-1.5c0.5-0.3,1-0.3,1.4-0.1c0.1,0,0.1,0.1,0.2,0.1
	 M145.8,145.8c-0.4,0.2-0.8,0.2-1.1,0.1c-0.3-0.2-0.4-0.5-0.4-0.9c0-0.5,0.1-0.9,0.4-1.5c0.3-0.5,0.6-0.8,1-1.1
	c0.4-0.2,0.7-0.3,1-0.1c0.3,0.2,0.4,0.5,0.4,1c0,0.5-0.1,0.9-0.4,1.4C146.5,145.2,146.2,145.6,145.8,145.8z M144.4,138.7
	c-0.6-0.2-1.2-0.1-1.9,0.4c-0.8,0.5-1.4,1.2-1.9,2.1c-0.5,0.9-0.8,1.8-0.9,2.7c0,0.9,0.2,1.5,0.7,1.9 M144.3,138.7
	c-0.6-0.3-1.2-0.3-2,0.2c-0.8,0.5-1.5,1.2-2.1,2.1c-0.6,1-0.9,2-0.9,2.9s0.3,1.5,0.8,1.9h0v0"/>
<path id="Layer1_1_MEMBER_1_1_STROKES" class="st1" d="M90.2,53.6c0.2-0.5,0.3-1.1,0.2-1.8c-0.1-0.7-0.4-1.4-0.8-2.1
	c-0.4-0.6-0.7-1-1.1-1.4"/>
<path id="Layer1_1_MEMBER_2_1_STROKES" class="st1" d="M92.8,49.8l0.3-0.5"/>
<path id="Layer1_1_MEMBER_3_1_STROKES" class="st1" d="M90.9,46.6l0.6,0"/>
<path id="Layer1_1_MEMBER_4_1_STROKES" class="st1" d="M92.3,50.8c0.4-0.2,0.5-0.6,0.5-1.1c0-0.5-0.2-1.1-0.5-1.7
	c-0.3-0.6-0.7-1-1.2-1.3c-0.5-0.3-0.9-0.3-1.2-0.1"/>
<path id="Layer1_1_MEMBER_5_1_STROKES" class="st1" d="M92.8,49.7c0.1-0.6,0-1.2-0.4-1.9c-0.4-0.7-0.9-1.1-1.4-1.2"/>
<path id="Layer1_1_MEMBER_6_1_STROKES" class="st1" d="M92.3,50.8l-1.9,1.1"/>
<path id="Layer1_1_MEMBER_7_1_STROKES" class="st1" d="M89.9,46.6l-1.7,1"/>
<path id="Layer1_1_MEMBER_8_1_STROKES" class="st1" d="M93.2,49.3c0.2-0.4,0.1-1-0.2-1.7c-0.4-0.7-0.9-1-1.4-1"/>
<path id="Layer1_1_MEMBER_9_1_STROKES" class="st1" d="M73.7,25l-1.3,0.7"/>
<path id="Layer1_1_MEMBER_10_1_STROKES" class="st1" d="M86,32.5c0.7-0.4,1.1-1.2,1.1-2.3c0-1.2-0.4-2.4-1.1-3.6
	c-0.7-1.2-1.6-2.1-2.6-2.7c-1-0.6-1.9-0.6-2.6-0.2"/>
<path id="Layer1_1_MEMBER_11_1_STROKES" class="st1" d="M81.8,35.2c0.3-0.8,0.3-1.8,0.1-3c-0.2-1.1-0.6-2.3-1.3-3.4
	c-0.9-1.6-2.1-2.9-3.4-3.6c-1.4-0.8-2.5-0.9-3.4-0.3"/>
<path id="Layer1_1_MEMBER_12_1_STROKES" class="st1" d="M80.9,23.7l-3.3,1.9"/>
<path id="Layer1_1_MEMBER_13_1_STROKES" class="st1" d="M86,32.6L81.8,35"/>
<path id="Layer1_1_MEMBER_14_1_STROKES" class="st1" d="M86.9,31.2c0.6-0.4,0.8-1.1,0.8-2c0-1-0.3-2-0.9-3s-1.3-1.8-2.1-2.3
	c-0.8-0.5-1.6-0.6-2.2-0.3"/>
<path id="Layer1_1_MEMBER_15_1_STROKES" class="st2" d="M70.5,18l-5.3,3 M73.2,16.4l-1.3,0.8 M48.1,30.9l-3.2,1.8 M42.5,34.1
	l-3.2,1.9 M44.1,33.2l-0.8,0.4"/>
<path id="Layer1_2_MEMBER_0_1_STROKES" class="st3" d="M196.9,92.5l24.2,12.2c7.4,3.6,14.6,7,21.6,10c2.3,1,4.5,1.9,6.8,2.9
	c10.4,4.3,20.3,7.9,29.7,10.8c0.6,0.2,1.2,0.4,1.8,0.6l10.2,2.8c1,0.2,2,0.5,3.1,0.8c0.2,0,0.3,0.1,0.5,0.2c2.1,0.5,4.1,0.9,6.2,1.3
	c-0.4-0.1-0.8-0.2-1.1-0.3h-0.1c-1.1-0.5-1.8-1.4-2.2-2.6c-0.1-0.3-0.2-0.6-0.3-1l-0.2-0.6c-0.1-0.2-0.1-0.4-0.1-0.7
	c0-0.3,0-0.7,0-1.1v-0.8c0.1-1.2,0.3-2.5,0.7-3.9c0-0.1,0-0.1,0-0.2l0.2-0.4c0.4-1.4,1.1-2.9,1.8-4.2c0.2-0.3,0.3-0.6,0.5-0.9
	l0.2-0.4c0.2-0.3,0.4-0.6,0.6-0.9c1.8-2.5,3.8-4.1,5.9-4.9c1.6-0.9,3.3-1.2,4.9-0.9c1.6,0.3,2.8,1.2,3.6,2.6l-8-17.4l-10-17.4
	l-0.8-1.2L289,65.6l0.5,0.9l0.3,0.8l0.1,0.2l0.1,0.7l-0.1,0.3l-5.8,13.8l-0.1,0.1h-0.1l-0.3,0.1l-31.3,4.1c-0.9,0.1-1.6,0.1-2.3-0.1
	l-0.4-0.1h-0.1l-1.2-0.1l-5.5-1.1l-0.2,0l-15.9-4.8l-5.7-3.8l4.5-12.1l0.5,0.1h4.9l11.2,2.4h0.2l0.3,0.1h0.5c1,0.1,2,0.1,2.8,0.1
	l26.4-1.2l0.3-0.1h0.1l0-0.2l3.3-13l0.1-0.2l-0.1-1l0-0.1L276,51v-0.1l0-0.2l-0.4-0.8l-0.9-1.4c-0.2-0.2-0.4-0.4-0.6-0.6
	c-0.2-0.2-0.7-0.8-1.3-1.6l-0.1-0.1c-1.7-1.8-3.3-3.2-4.8-4.2c-0.1-0.1-0.3-0.2-0.4-0.3l-0.4-0.3c-0.6-0.5-1.8-1.2-3.8-2.3
	c-0.2-0.2-0.5-0.3-0.7-0.4c-0.4-0.2-0.8-0.4-1.2-0.7l-26.1-13.2 M274.7,48.5l-0.4-0.4l-0.2-0.2 M289,65.6l-0.2-0.2l-0.6-0.8
	c-5.9-7-10.4-12.4-13.5-16.1 M246,66.9l6.3,19.4l0,0.1 M284.1,82.2l-11.3-16.8 M272.7,65.6l11.2,16.7 M283.6,82.4l-11.3-16.7
	 M296.8,76.8l2.8-0.4c0.9,0.7,1.7,1.5,2.3,2.6l0.2,0.4v0.1l-0.1,0h-0.1l-0.9-0.9l-0.6-0.7l-0.1-0.2l-2.6,0.4 M301.8,79.5v-0.1h0.2
	 M299.5,76.4l0.5,0.4v0.2l0.2,0.4l0.1,0.2 M301,134L301,134c4,0.7,6.7,1.1,8.3,1.2c3.5,0.3,6.2,0,8.1-0.9c3.1-1.3,3.9-4.6,2.5-9.9
	c-2.2-5.8-3.5-9.4-3.8-10.8l-0.2-0.3l-0.2-0.5 M300.4,117.3c0.4-0.6,0.7-1.1,1.1-1.6c-0.1,0.1-0.1,0.1-0.2,0.2
	c-0.2,0.3-0.5,0.6-0.7,0.9 M301.5,115.7c1.6-2.1,3.5-3.6,5.6-4.6 M291.2,131.7c1.2,0.3,2.4,0.6,3.6,0.9 M300.4,117.3l-2.3,5.1
	c-0.6,1.8-0.9,3.7-0.8,5.6c0,0.8,0,1.5,0.2,2.1 M297.2,129.4c-0.1-0.6-0.1-1.2-0.1-1.8 M264,104.4c-1.7-0.4-3.2-1.1-4.6-2l-0.5,0
	l-0.5-0.2L258,102l-0.2-0.4l0-0.6l0.1-0.5l0.4-0.5l0.2-0.1l0.5-0.2l0.5,0.1l0.5,0.3l0.1,0.2l0.1,0.3l0.2,0.6l-0.2,0.6v0h0l0.3,0.8
	C261.7,103,262.8,103.6,264,104.4z M259.4,102.4C259.4,102.4,259.4,102.4,259.4,102.4l-0.3-0.2l-0.1,0l-0.1-0.1l-0.6-0.4l-0.4-1.2
	l2.2,1v0.1l0,0.1l0.1-0.8l-0.2-0.7l-0.6-0.4l-0.6-0.1l-0.5,0.2 M259.5,100.2L259.5,100.2l-0.1-0.1c0-0.1,0-0.2,0-0.2
	c0.1,0,0.2,0,0.2,0.1v0.1L259.5,100.2L259.5,100.2z M259.5,99.9L259.5,99.9L259.5,99.9l-0.1,0.1L259.5,99.9l-0.1,0.1h0.1V99.9z
	 M259.5,100.1L259.5,100.1L259.5,100.1h-0.1V100V100l0,0 M260.2,101L260.2,101L260.2,101L260.2,101L260.2,101L260.2,101L260.2,101
	L260.2,101L260.2,101L260.2,101l0.1,0.1v0.1l-0.1,0.1h0l-0.2-0.1l0-0.1H260.2L260.2,101 M260.2,101.1v0.1h0h0L260.2,101.1
	L260.2,101.1 M260.2,101.2L260.2,101.2 M258.4,100.1L258.4,100.1c0,0.1,0,0.1,0,0.1h-0.2l0-0.1l0-0.1V100h0.1
	C258.3,100.1,258.4,100.1,258.4,100.1c-0.1,0-0.1,0-0.1,0h0l0,0.1v0L258.4,100.1L258.4,100.1 M258.2,100.1L258.2,100.1L258.2,100.1
	 M258,101v0.1v0.1l-0.1,0l-0.1,0h-0.1V101l0.1,0L258,101L258,101h-0.2v0.1l0.1,0.1v0.1l0.1-0.1 M257.8,101.1L257.8,101.1
	L257.8,101.1 M258.4,101.7L258.4,101.7L258.4,101.7C258.5,101.7,258.5,101.7,258.4,101.7z M258.6,102.1L258.6,102.1l0,0.1v0h0.1l0,0
	L258.6,102.1L258.6,102.1L258.6,102.1z M258.7,102.1L258.7,102.1l-0.1-0.2h0l-0.1,0.1v0.1l0,0.1h0.2L258.7,102.1L258.7,102.1
	 M258.6,102.2L258.6,102.2v-0.1 M258.5,101.8l1,0.4l-0.6-0.2L258.5,101.8c0.1,0.1,0.3,0.2,0.5,0.4 M259.5,102.1h0.2v0.1
	c0.3,0.1,0.5,0.2,0.8,0.3"/>
<path id="Layer1_2_MEMBER_0_2_STROKES" class="st4" d="M222.8,90.5L222.8,90.5L222.8,90.5L222.8,90.5z M222.9,90.5l0.3,0.1l0.3,0.1
	l0.2,0.1l0.2,0.2l0.1,0.1l0.1,0.1l0.1,0.2l0.2,0.6l-0.1,0.5v0.1h0l0,0.1l0.3,0.8c1.1,0.5,2.2,1.1,3.5,1.9c-1.6-0.4-3.1-1.1-4.6-2
	h-0.5l-0.4-0.1l-0.5-0.4l-0.2-0.4l-0.1-0.5l0.2-0.5l0.4-0.6l0.2-0.1l0.3-0.1 M223.2,90.6l0.3,0.1l0.2,0.1l0.3,0.3 M224.1,91.8
	L224.1,91.8L224.1,91.8L224.1,91.8L224.1,91.8l0,0.1l0,0V92h0l0-0.1v0L224.1,91.8 M224.1,92L224.1,92L224.1,92l0-0.1l0-0.1h0
	l-0.1,0.1l0,0.1H224.1L224.1,92h0.1v-0.1l-0.1-0.1 M224.1,91.2l0.2,0.6l-0.1,0.7 M223.4,90.9L223.4,90.9L223.4,90.9v-0.1V90.9z
	 M223.4,90.8L223.4,90.8L223.4,90.8L223.4,90.8L223.4,90.8l0.1,0.2h-0.1 M223.6,90.8v0.2l-0.1,0.1l-0.1-0.1l0,0
	C223.3,90.7,223.3,90.6,223.6,90.8z M222.4,91c0,0,0,0.1,0,0.1h-0.2l-0.1-0.1l0-0.1l0-0.1l0-0.1l0.1-0.1
	C222.3,90.9,222.3,90.9,222.4,91L222.4,91L222.4,91l-0.1,0.1l0-0.1v-0.1L222.4,91 M224.2,92.6l0-0.1v-0.1l-2.2-1l0.5,1.1h0v0.1
	l1.1,0.4h0.1l0.1,0V93c0.3,0.1,0.5,0.2,0.8,0.3 M222.7,93L222.7,93c0,0.2-0.1,0.2-0.2,0.2l0-0.1v-0.1l0-0.1v-0.1h0.1
	C222.7,92.9,222.7,92.9,222.7,93L222.7,93l-0.2,0V93L222.7,93 M222.4,92.6c0.2,0.2,0.5,0.3,0.8,0.5c0.1,0,0.1,0.1,0.1,0.1
	c0.1,0,0.1,0.1,0.2,0.1 M222.3,91.1L222.3,91.1L222.3,91.1 M222,91.8c0.1,0.1,0.1,0.2,0,0.3l-0.1-0.1l-0.1-0.1l0-0.1l0.1-0.1H222z
	 M221.8,91.9L221.8,91.9L221.8,91.9L221.8,91.9h0.1v-0.1h-0.1V91.9z M221.9,92L221.9,92 M222.3,92.5L222.3,92.5"/>
<path class="st0" d="M212.7,99l-5.4,4.9l5.7,6.1l5.2-4.8l2.4,2.6l0.4-10.9l-10.9-0.5L212.7,99z"/>
<path class="st0" d="M123,51l-3.1,1.5v16.8l17.9,10.1v8.1L141,86l11.5-9.9L141,53.2l-3.2,1.5v4.7L123,51 M122.7,58.5l4.6,2.6v1.5
	l-3.3-1.9v2.1l2.8,1.6v1.5l-2.8-1.6V68l-1.3-0.7V58.5 M127.6,61.3l1.4,0.8l1.1,6.8l0.9-5.6l1.5,0.9l0.9,6.7l1.2-5.5L136,66l-1.9,7.5
	l-1.3-0.7l-1.1-7.3l-1,6.2l-1.3-0.7L127.6,61.3 M140.1,68.6l0.3,0.1l0.3,0.3l0.9,1.3l0.6,1.9V73l0.2,1l-0.2,0.8v0.4l-0.2,0.3v0.4
	l-0.1,0.3l-0.3,0.3l-0.1,0.3h-0.2L141,77h-0.7l-1.3-0.6l-2.2-1.3v-8.6l3.1,1.7L140.1,68.6 M139.9,69.9l-0.2-0.2l-1.7-1v5.6l1.5,0.9
	h0.7l0.4-0.4l0.2-0.5V72l-0.3-1l-0.3-0.6l-0.3-0.3L139.9,69.9z"/>
<path id="Layer1_3_MEMBER_1_MEMBER_0_1_STROKES" class="st5" d="M137.8,79.4l-17.9-10V52.5"/>
<path id="Layer1_3_MEMBER_1_MEMBER_1_1_STROKES" class="st6" d="M137.8,54.7l11.7,22.9l-11.7,9.9 M119.9,52.5l17.9,10.2"/>
<path id="Layer1_3_MEMBER_1_MEMBER_2_1_STROKES" class="st5" d="M119.9,52.5L123,51 M137.8,87.5v-8.1 M137.8,62.7v-8"/>
<path id="Layer1_3_MEMBER_1_MEMBER_3_1_STROKES" class="st6" d="M149.4,77.6l3.1-1.5"/>
<path id="Layer1_3_MEMBER_1_MEMBER_4_1_STROKES" class="st5" d="M137.8,87.5l3.2-1.5l11.5-9.9L141,53.2l-3.2,1.5 M123,51l14.8,8.4"
	/>
<path id="Layer1_4_MEMBER_1_1_STROKES" class="st7" d="M189.2,39.6h-84V11.8h84V39.6z"/>
<text transform="matrix(1 0 0 1 121.4932 29.6735)" class="st8 st9">3410-P3</text>
</svg>
