<?xml version="1.0" encoding="utf-8"?>
<!-- Generator: Adobe Illustrator 24.2.1, SVG Export Plug-In . SVG Version: 6.00 Build 0)  -->
<svg version="1.1" id="Ebene_1" xmlns="http://www.w3.org/2000/svg" xmlns:xlink="http://www.w3.org/1999/xlink" x="0px" y="0px"
	 viewBox="0 0 273.6 288.6" style="enable-background:new 0 0 273.6 288.6;" xml:space="preserve">
<style type="text/css">
	.st0{fill:#0099FF;}
	.st1{fill:#009900;}
	.st2{fill:none;stroke:#000000;stroke-width:0.25;stroke-miterlimit:10;}
	.st3{fill:#1A1B1C;}
	.st4{font-family:'Arial-BoldMT';}
	.st5{font-size:16px;}
</style>
<path class="st0" d="M135.1,227.5l0.1-1.3l-2.2-1.3l-0.7,0.4l-1.6,0.5v0.6l-0.6,0.5v3.4l-0.5,0.6l-0.1,3.5l0.6,0.9l3.9,2.2v10.7
	l5.6,3.7l0.5-0.5l5.1-2.8l0.5-0.6v-0.5v-13.4h-0.5l0.3-0.1l-10.3-6V227.5 M91.2,226.4l0.1,0.8l-3.4,2.2l-0.5,0.6l-0.5,1.1v11.1
	l1.1,1.1h0.6l3.3-2.2l10.6,6.1l11.7-6.6v-0.6l0.6-0.6v-12.8l-0.9-0.9l-11.3,6.5L91.8,226L91.2,226.4 M118.1,182v16.7l3.3,1.6l6-3.3
	l5.2,2.8h2.2l1.6-1.1l2.2-1.1l3.3-4.5l1.1-2.8l0.5-2.2v-2.8l-0.5-1.7l-1.1-1.1l-4.5-2.7v-7.3L137,172l-0.7-0.5l-2.1,1.1H132
	l-1.6,0.5l-10.6,6.1L118.1,182z"/>
<path class="st1" d="M141.4,223.8v0.6l-4.5,2.8V226h-0.5l-1.6,1.1v0.5l10.3,6l0.2,0.1v13.4h1.1l5-2.8l1.1-1.1v-12.8l-0.6-0.6
	L141.4,223.8 M91.8,211.3l-0.5,0.3v0.8l-3.4,1.6l-1.1,2.2v11.1l1.6,0.5l2.6-1.3l0.6-0.4l10.6,6.1l11.3-6.5l0.4-0.2v-0.5l0.6-0.5
	v-13.4h-0.6l-0.6-0.8l-11.1,6.3h-0.6v-0.3L91.8,211.3 M143.7,165.4l-1.6,2.8v14.5l1.1,1.1l0.5,1.7l0.6,1.1l0.6,0.5l6.4-3.7l3.6,2.1
	l1.6,0.5h1.6l2.2-0.5l3.9-3.9l2.2-4.4l0.6-2.8v-2.2l-0.6-2.2l-1.1-1.1l-3.9-2.2v-7.8l-1.1-0.5l-0.8-0.5l-1.9,0.5l-0.4-0.2
	L143.7,165.4z"/>
<path id="Layer0_3_MEMBER_0_1_STROKES" class="st2" d="M68.6,39.7l-0.6-0.5"/>
<path id="Layer0_3_MEMBER_1_1_STROKES" class="st2" d="M99.2,6.3l1.1-1.1 M92.5,39.2v-0.5 M78.1,26.3l1.1,0.6 M56.9,263.9V67.5"/>
<path id="Layer0_3_MEMBER_2_1_STROKES" class="st2" d="M137.5,60.9l-3.9-2.2v0.5 M143.1,57.5l-3.9-2.2v0.5 M132.6,74.8l-6.1-3.9"/>
<path id="Layer0_3_MEMBER_3_1_STROKES" class="st2" d="M113.7,6.3l-0.5-0.5"/>
<path id="Layer0_3_MEMBER_4_1_STROKES" class="st2" d="M138.7,71.4l-1.2-0.5"/>
<path id="Layer0_3_MEMBER_5_1_STROKES" class="st2" d="M159.8,78.6L147,42.5 M103.7,154.8l-10-5.6 M113.1,138.7l-10-6.1"/>
<path id="Layer0_3_MEMBER_6_1_STROKES" class="st2" d="M114.8,10.8l-0.6-0.6"/>
<path id="Layer0_3_MEMBER_7_1_STROKES" class="st2" d="M100.3,5.2h1.1l1.7,0.6L122,16.9l1.1,1.6l1.1,3.4v20.6l-0.6,1.6l-1.6,1.6
	l-1.1,0.6l-1.6,1.1l-6.7,2.2h-2.2l-2.2-0.5l-1.6-1.1l-12.8-6.6l-1.1-1.1v-1.1v-2.2l1.1-1.1l2.8-1.6l1.6-1.6V8.6l0.6-1.6l0.5-0.6
	l1.1-0.5l1.6,0.5l18.9,11.1l1.1,1.7l1.1,3.9v18.9l-0.5,1.6l-0.6,1.2l-1.1,0.5l-1.6,1.1l-1.1,0.5l-5.6,1.7h-2.2l-3.9-1.1l-12.8-7.2
	l-1.1-1.1 M144.3,41.9h-0.6 M168.1,139.3v-17.8 M114.2,195.4l-0.5-0.5 M114.2,180.4l-0.5-0.6 M114.2,149.8l-1.1-0.6 M114.2,164.8
	h-0.5 M168.1,197.1v-47.8 M106.4,131v-0.6 M102.5,186l-10.6-5.5 M87.5,182.1v-0.6 M102.5,171l-10.6-6.1 M87.5,167.1v-0.5 M89.8,151
	h-0.6 M87.5,212.7v-0.5 M102.5,216.6L91.9,211 M83.6,280.5V280 M159.3,238.8l0.5,0.5 M166.5,234.9l0.6,0.5 M168.1,213.2v-10
	 M162,211.6l11.2,6.1 M152,242.7l1.1,0.6 M148.7,219.9l10.5,6.1 M155.4,215.4l10.5,6.1 M85.8,281.6l52.3-30.1 M102.5,201.6
	l-10.6-6.1 M168.1,104.2V80.3"/>
<path id="Layer0_3_MEMBER_8_1_STROKES" class="st2" d="M102.5,16.9l1.6-1.6l1.7-0.6h2.2l5.1,2.8l2.2,2.2l2.8,6.1l1.1,3.4v2.8
	l-2.2,3.9l-1.6,0.6h-1.7 M103.1,11.3l0.5,0.5V13h-0.5l-1.2-1.2l0.6-0.5 M57.5,65.8h1.7 M73.1,26.9l2.2-0.6h1.1h1.6l1.1,0.6l1.1,1.6
	l1.1,3.4l0.5,1.1l0.5,0.2l1.2-0.2l1.6-0.5l8.9-5.1l1.6-1.1l1.2-1.1 M97.5,25.8L97,26.9L87,33l-1.7,0.5h-1.6l-1.2-0.4 M76.4,26.3
	l-1.6,1.1 M66.9,51.4l-2.2-2.2v-1.6 M65.8,47.5l1.1,2.2l0.6,0.6 M84.8,81.4l6.1-3.4l0.5-1.6l1.1-1.6v-1.1 M88.6,78.1l-4.5,2.8
	 M80.9,81.4L57.5,68.1 M58.6,67.5l22.8,13.4 M118.1,20.2l1.1,1.1l-0.5,0.6h-0.6l-0.6-0.6v-1.1 M145.9,41.9l-1.1-0.5l-0.6,0.5
	l1.1,0.6 M144.8,45.3l-1.2-2.2v-1.1h0.6 M119.2,39.7h-0.5h-0.6l-0.6-0.5V38 M118.1,38l1.1,1.1l-0.5,0.5 M165.9,79.2l-7.2-4.4
	 M158.1,73.6l9.5,5.5 M159.3,80.9l-1.1,1.6l-0.5,1.6l0.5,1.1l0.6,0.6l8.9-4.5 M87,280.5v-1.6l-1.2-1.1h-1.1 M86.4,279.4v0.6
	 M57.5,264.4l23.4,13.4 M165.9,80.9l-6.1,3.9"/>
<path id="Layer0_3_MEMBER_9_1_STROKES" class="st2" d="M107,7.4l1.6-1.1 M60.8,68.1V67l-0.6-0.6l-1.1-0.6l-0.6,0.6h-0.5V67l0.5,0.5
	 M57.5,68.1l-0.5-0.5v-1.1l0.5-0.6 M64.8,47.5v-8.4l1.1-5l3.4-4.5l1.7-1.6l2.2-1.1 M74.8,27.5l-2.8,1.1l-3.3,3.4l-1.7,2.8l-1.1,4.4
	v8.4 M81.4,80.9h2.8 M92.5,73.6v-7.8l-2.2-2.2L67.5,50.3 M66.9,51.4l23.9,13.9l0.5,1.1v7.8l-0.5,1.6l-2.2,2.2 M116.4,13v-2.8
	l-1.1-3.3L112,5.8l-1.6,1.1l-1.6,0.5 M124.8,25.3l17.2,10l0.6,1.6v7.2l0.5,1.1l0.5,0.5h1.2l2.2-2.2v-1.1l-1.1-0.6 M145.4,42.5
	l0.5,0.5v0.5l-0.5,1.2l-1.1,0.5h-0.6 M159.8,78.6v1.1l-0.5,1.1 M165.9,80.9l0.6-0.6v-0.5l-0.6-0.6 M167.6,79.2l0.5,0.6v0.5l-0.5,1.1
	 M159.8,84.8h-1.1 M84.8,81.4l-1.1,0.5h-1.7l-1.1-0.5 M56.9,262.8v1.1l0.5,0.5 M85.3,281.1h1.1V280 M85.8,277.8l0.6,0.6v1.1
	 M87,280.5v1.1h-1.7 M80.9,277.8l1.1,0.6h1.7l1.1-0.6"/>
<path id="Layer0_3_MEMBER_10_1_STROKES" class="st2" d="M108.7,6.3l2.2-0.5h2.2 M93.1,137.6l12.2-7.2 M91.4,151.5v-1.1 M91.4,166.6
	v-1.2 M91.4,181.5V181 M91.4,196.6V196 M85.3,281.6l-0.5-0.6l-1.1-0.5 M84.8,277.8l-1.1,1.1v1.1l1.1,0.5l0.5,0.5 M155.4,214.9
	l1.7-1.1 M148.7,218.8l1.6-1.1"/>
<path id="Layer0_3_MEMBER_11_1_STROKES" class="st2" d="M79.2,32.5l-5.5,2.8v6.1l5.5-2.8V33V32.5l-2.8-1.7h-0.6l-4.9,2.8l0.5,0.6
	l2.2,1.1 M76.4,35.3H77l0.5,0.5v0.6L77,37.5l-1.2,1.2L75.3,38v-1.1l0.5-0.5L76.4,35.3z M76.4,30.8h2.2l1.1,1.1L79.2,33 M68.1,39.2
	l-0.5-0.5l1.1-2.2l2.2-2.8 M69.7,38.6l0.6-0.6v-1.1h-0.6l-0.5,0.5v1.2 M73.6,41.4l-2.2-1.7h-2.8 M71.4,39.7v-5.5 M111.4,10.2h2.8
	l1.2,1.1 M137,53.6h0.5v0.6 M131.5,57l1.6-1.2 M127,71.4h-0.5V59.7l0.5-0.5"/>
<path id="Layer0_3_MEMBER_12_1_STROKES" class="st2" d="M157.6,213.2v1.7l4.4-2.8 M166.5,222.2l0.6-1.1h0.5l5-3.4h0.6v14.5h-0.6
	l-5,3.3"/>
<path id="Layer0_3_MEMBER_13_1_STROKES" class="st2" d="M137.5,54.2l1.7,1.1l-3.4,2.2h-0.5l-1.7-1.1l-0.5-0.6v-2.8h0.5l2.8-2.2h0.5
	v2.7 M130.9,54.2l-2.8,1.6l-0.6,0.6v3.3l2.2,1.2h0.6l3.3-2.2l-2.2-1.1v-3.4H130.9z M128.7,57v-0.6l0.5-0.6h0.5l0.6,0.6l-0.6,0.6
	l-0.5,1.1h-0.5v-0.5 M132.6,63.6v11.1h0.5l3.9-2.2l0.5-0.6V60.9H137l-3.9,2.2L132.6,63.6z M130.4,73.1l-2.2,1.1h-0.6v-2.2
	 M138.7,71.4l3.9-2.2l0.5-0.5V57.5h-0.5l-3.9,2.2v0.6l-0.6,0.6 M134.3,53.6v-0.5l1.1-0.5h0.5v1.6l-0.5,0.6h-0.5l-0.6-0.6"/>
<path id="Layer0_3_MEMBER_14_1_STROKES" class="st2" d="M94.2,138.1h-0.5v0.6 M89.8,139.3l3.4-1.6 M90.3,151.5l3.4-2.2v-0.5"/>
<path id="Layer0_3_MEMBER_15_1_STROKES" class="st2" d="M94.2,138.1l-3.9,1.6 M106.4,131l-3.9,2.2"/>
<path id="Layer0_3_MEMBER_16_1_STROKES" class="st2" d="M93.7,147.6v1.1 M89.8,139.3l-0.6,1.1l-0.5,0.6 M93.7,138.7v3.4"/>
<path id="Layer0_3_MEMBER_17_1_STROKES" class="st2" d="M89.8,141.5V141l0.5-1.2"/>
<path id="Layer0_3_MEMBER_18_1_STROKES" class="st2" d="M88.6,141v9.5"/>
<path id="Layer0_3_MEMBER_19_1_STROKES" class="st2" d="M89.8,151v-9.5"/>
<path id="Layer0_3_MEMBER_20_1_STROKES" class="st2" d="M88.6,150.4l0.5,0.5"/>
<path id="Layer0_3_MEMBER_21_1_STROKES" class="st2" d="M90.3,151.5h-0.5V151"/>
<path id="Layer0_3_MEMBER_22_1_STROKES" class="st2" d="M107.5,131.5v3.9 M106.4,130.4h-1.1"/>
<path id="Layer0_3_MEMBER_23_1_STROKES" class="st2" d="M106.4,131h0.6l0.5,0.5"/>
<path id="Layer0_3_MEMBER_24_1_STROKES" class="st2" d="M104.2,143.7l-0.5,0.6v10.5h0.5l8.4-5l0.6-0.6v-10.5h-0.6 M91.9,162.6v2.2
	 M91.9,152.1v5.5 M159.8,226v-0.6l0.6-0.5l5-3.4h0.5l0.6,0.6v13.3l-1.1,1.2l-5,2.7 M153.1,229.9v-0.6l0.6-0.5l5-2.8h0.5v13.9
	l-0.5,0.6l-5,2.8h-0.6 M154.8,211.6l-3.4,1.6l-0.5,0.6v5l4.4-2.8v-4.5H154.8z M143.7,221.6v1.1l5.1-2.2V216l-0.6-0.6h-0.5l-1.1,1.1
	 M154.3,214.4l-0.5,0.5l-0.6,1.1h-0.5l-0.6-0.6l0.6-1.1l0.5-0.6h0.6 M147,218.3l-0.5,1.1l-0.6,0.6h-0.5v-1.6l0.5-0.6h1.1"/>
<path id="Layer0_3_MEMBER_25_1_STROKES" class="st2" d="M91.9,151.5l-3.3,2.2"/>
<path id="Layer0_3_MEMBER_26_1_STROKES" class="st2" d="M102.5,156.5v0.5l-0.6,0.5v12.8l0.6,0.5l11.7-6.6v-0.6l0.6-0.5v-12.8
	 M87,154.8l0.5-1.1l0.5-0.5l3.4-2.2l0.5,0.5v0.6 M88.6,167.1l3.3-2.2"/>
<path id="Layer0_3_MEMBER_27_1_STROKES" class="st2" d="M88.6,153.7l-0.6,0.6l-0.5,1.1"/>
<path id="Layer0_3_MEMBER_28_1_STROKES" class="st2" d="M114.8,150.4l-0.6-0.6"/>
<path id="Layer0_3_MEMBER_29_1_STROKES" class="st2" d="M87.5,166.6l0.5,0.5h0.6"/>
<path id="Layer0_3_MEMBER_30_1_STROKES" class="st2" d="M87.5,166.6L87,166"/>
<path id="Layer0_3_MEMBER_31_1_STROKES" class="st2" d="M87.5,155.4v11.2"/>
<path id="Layer0_3_MEMBER_32_1_STROKES" class="st2" d="M87,166v-11.1 M91.9,177.6v2.2 M91.9,167.1v5.6"/>
<path id="Layer0_3_MEMBER_33_1_STROKES" class="st2" d="M91.9,167.1l-3.3,1.6"/>
<path id="Layer0_3_MEMBER_34_1_STROKES" class="st2" d="M102.5,171.5v0.6l-0.6,0.6V186h0.6l11.7-6.1v-0.5l0.6-0.6v-13.4 M87,169.8
	l0.5-0.5l0.5-1.1l3.4-1.6l0.5,0.5 M91.9,179.9v0.6l-3.3,1.6"/>
<path id="Layer0_3_MEMBER_35_1_STROKES" class="st2" d="M88.6,168.7l-0.6,0.6l-0.5,1.1"/>
<path id="Layer0_3_MEMBER_36_1_STROKES" class="st2" d="M114.8,165.4l-0.6-0.5v0.5"/>
<path id="Layer0_3_MEMBER_37_1_STROKES" class="st2" d="M87.5,181.5l0.5,0.6h0.6"/>
<path id="Layer0_3_MEMBER_38_1_STROKES" class="st2" d="M87.5,181.5L87,181"/>
<path id="Layer0_3_MEMBER_39_1_STROKES" class="st2" d="M87.5,170.4v11.1"/>
<path id="Layer0_3_MEMBER_40_1_STROKES" class="st2" d="M87,181v-11.1 M91.9,193.2v2.2 M91.9,182.1v5.5"/>
<path id="Layer0_3_MEMBER_41_1_STROKES" class="st2" d="M91.9,182.1l-3.3,2.2"/>
<path id="Layer0_3_MEMBER_42_1_STROKES" class="st2" d="M102.5,187.1v0.5l-0.6,0.6V201l0.6,0.6l11.7-6.6v-0.6l0.6-0.6V181
	 M88.6,197.7l3.3-2.2 M87,185.4l0.5-1.1l0.5-0.6l3.4-2.2l0.5,0.6"/>
<path id="Layer0_3_MEMBER_43_1_STROKES" class="st2" d="M88.6,184.3l-0.6,0.5l-0.5,1.1"/>
<path id="Layer0_3_MEMBER_44_1_STROKES" class="st2" d="M114.8,181l-0.6-0.5"/>
<path id="Layer0_3_MEMBER_45_1_STROKES" class="st2" d="M87.5,197.1l0.5,0.6h0.6"/>
<path id="Layer0_3_MEMBER_46_1_STROKES" class="st2" d="M87.5,197.1l-0.5-0.5"/>
<path id="Layer0_3_MEMBER_47_1_STROKES" class="st2" d="M87.5,186v11.1"/>
<path id="Layer0_3_MEMBER_48_1_STROKES" class="st2" d="M87,196.6v-11.1 M91.9,208.3v2.2 M91.9,197.7v5.5"/>
<path id="Layer0_3_MEMBER_49_1_STROKES" class="st2" d="M91.9,197.1l-3.3,2.2"/>
<path id="Layer0_3_MEMBER_50_1_STROKES" class="st2" d="M87,200.4l0.5-1.1l0.5-0.5l3.4-1.7h0.5v0.6 M102.5,202.2v0.5l-0.6,0.5v13.4
	h0.6l11.7-6.6l0.6-0.6V196 M91.9,210.4v0.6l-3.3,1.6"/>
<path id="Layer0_3_MEMBER_51_1_STROKES" class="st2" d="M88.6,199.3l-0.6,0.6l-0.5,1.1"/>
<path id="Layer0_3_MEMBER_52_1_STROKES" class="st2" d="M114.8,196l-0.6-0.5"/>
<path id="Layer0_3_MEMBER_53_1_STROKES" class="st2" d="M87.5,212.2l0.5,0.5h0.6"/>
<path id="Layer0_3_MEMBER_54_1_STROKES" class="st2" d="M87.5,212.2l-0.5-0.6"/>
<path id="Layer0_3_MEMBER_55_1_STROKES" class="st2" d="M87.5,201v11.2"/>
<path id="Layer0_3_MEMBER_56_1_STROKES" class="st2" d="M87,211.6v-11.1"/>
<path id="Layer0_3_MEMBER_57_1_STROKES" class="st2" d="M66.9,48.6l30.6-17.8 M132.6,63.6l-5.6-3.4 M141.5,36.9L93.1,64.8
	 M98.1,33.6l20.7,12.2 M82.5,83.1v191.8"/>
<path id="Layer0_3_MEMBER_58_1_STROKES" class="st2" d="M146.5,168.7c-0.7,0.7-1.3,1.1-1.6,1.1c-0.4-0.7-0.4-1.3,0-1.6
	c0.7-0.7,1.3-1.1,1.6-1.1V168.7z M147,181l-1.1-1.1l-0.5-2.2v-2.2l0.5-2.7l1.1-2.2l3.4-4.5l2.2-1.6l1.6-0.6h1.6l1.7,0.6 M142,181.5
	v-13.3l1.6-2.8l12.2-6.6 M122.6,182.7c-0.8,0.7-1.4,0.9-1.7,0.5v-1.7c0.7-0.7,1.3-0.9,1.7-0.5C123,181.3,123,181.9,122.6,182.7z
	 M130.4,173.2l-10.6,6.1l1.6,0.5l11.2-6.1 M136.5,182.7l3.8-1.1l-2.7-1.6l-3.9-2.4l-1.1-0.5h-1.7l-4.4,2.2l-3.4,4.4l-1.1,2.8
	l-0.6,2.8v2.2l0.6,1.7l1.1,1.7l4.3,2.2l4.1,2.2l-1.1-1.6l-0.6-1.7v-2.2l0.6-2.8l2.2-5l2.2-1.6 M119.8,179.3l-1.6,2.8l1.6,0.6
	l1.6-2.8 M122.6,196.6c0.4,0.7,0.4,1.3,0,1.7c-0.8,0.7-1.4,1.1-1.7,1.1v-1.6C121.6,196.9,122.2,196.6,122.6,196.6z M136.5,174.3
	c-0.7,0.7-1.3,1.1-1.6,1.1c-0.4-0.7-0.4-1.3,0-1.6c0.7-0.7,1.3-1.1,1.6-1.1C136.8,173.4,136.8,173.9,136.5,174.3z M137,172.1
	l0.5,0.6v7.3 M140.3,181.6l0.1-0.1l1.6,1.2l1.1,1.1l0.5,1.7v2.8l-0.5,2.2l-1.1,2.8l-3.3,4.5l-2.2,1.1l-1.6,1.1h-2.2l-1.1-0.6
	 M142,182.7l-1.8-1.1 M143.7,183.2v-13.9l1.2-2.8l13.9-7.8 M144.8,185.4c0.7,0,1.3-0.2,1.6-0.6v-1.6c-0.7,0-1.3,0.2-1.6,0.5
	C144.4,184.9,144.4,185.4,144.8,185.4z M151.5,183.2l-6.6,3.9l-0.6-0.5 M158.7,161.5c0.7,0,1.3-0.2,1.6-0.5v-1.7
	c-0.7,0-1.3,0.2-1.6,0.6C158.3,160.9,158.3,161.5,158.7,161.5z M160.4,158.2l1.1,0.5v7.8 M127.4,197.1l-6,3.3l-1.6-0.8l-1.6-0.9
	v-16.7 M119.8,182.7v17"/>
<path id="Layer0_3_MEMBER_59_1_STROKES" class="st2" d="M144.8,166.6l-1.2-1.2 M144.8,207.7V196l1.6-2.8l11.1-6.6 M147,181l7.8,4.5
	l-1.1-1.1l-0.6-2.2v-2.2l0.6-2.2l1.1-2.8l3.3-4.4 M157.6,164.3l7.8,4.4l1.1,1.1l0.6,2.2v2.2l-0.6,2.8l-2.2,4.4l-3.9,3.9l-2.2,0.5
	h-1.6l-1.6-0.5 M142,168.2l1.6,1.1 M160.4,168.7l1.6-0.5h2.2l1.1,0.5 M161.5,187.6c0.4-1.1,0.4-1.6,0-1.6c-0.7,0-1.3,0.2-1.7,0.6
	v2.2C160.6,188.4,161.1,188,161.5,187.6z M162,184.9l0.6,0.6v7.8 M137.5,209.9l-2.2,2.2l-2.2,4.9l-0.5,2.8v2.2l0.5,1.6l1.1,1.6
	l1.1,0.6h2.2l3.9-2.8l1.6-1.6l2.8-5l0.6-2.8v-2.2l-0.6-1.6l-1.1-1.6l-1.7-0.6h-1.6l-2.2,1.1 M133.7,200.4l-9.4,5.6l-1.6,2.8v17
	l1.6,0.8l6.1-3.4l-4.5-2.7l-1.1-1.2l-0.5-1.6v-2.8l0.5-2.2l1.1-2.8l3.4-4.5l2.2-1.1l1.6-1.1h2.2l5,2.6v-7.6h-0.6 M137.5,201.6
	c-0.4-0.7-0.4-1.3,0-1.6c0.8-0.7,1.4-1.1,1.7-1.1c0.4,0.7,0.4,1.3,0,1.6C138.5,201.2,137.9,201.6,137.5,201.6z M140.4,205.9l4.5,2.4
	 M152.6,209.9l-5,3.3 M124.2,206l-1.6-0.6l-1.7,2.2l1.7,1.1 M123.7,209.3v-1.6c0.7-0.7,1.3-1.1,1.7-1.1c0.4,0.7,0.4,1.5,0,2.2
	C124.6,209.5,124.1,209.7,123.7,209.3z M130.9,200.4l-8.3,5 M125.4,224.4c-0.7,0.7-1.3,1.1-1.7,1.1v-2.2c0.7-0.7,1.3-0.9,1.7-0.5
	C125.7,223.4,125.7,224,125.4,224.4z M120.9,207.7v17.2l1.7,0.9 M134.3,225.5l-3.9-2.2"/>
<path id="Layer0_3_MEMBER_60_1_STROKES" class="st2" d="M126.5,86.5v1.6c-0.7,0.7-1.3,1.1-1.7,1.1c-0.4-0.7-0.4-1.3,0-1.7
	C125.5,86.8,126.1,86.5,126.5,86.5z M117.5,110.9l-6.6,3.4l-1.1-0.6l-1.7-1V95.3l1.7-2.2l14.5-8.9l1.8,0.9l1.5,0.8v7.8 M113.1,108.1
	L112,107l-0.5-2.2v-2.2l0.5-2.2l1.2-2.8l3.3-4.4l2.3-1.1l1.6-1.1h1.6l1.6,0.5 M126.5,96.5l1.6-1.2h2.2l1.1,0.6l1.1,1.6l0.5,1.7v2.2
	l-0.5,2.8l-2.2,5l-2.2,1.6l-1.6,1.7l-3.9,1.1l-1.7-1.1l-1.1-1.1l-0.5-1.7v-2.2l0.5-2.8l1.1-2.8l3.4-4.5 M112.5,94.2
	c0.4,0.7,0.4,1.5,0,2.2c-0.7,0.7-1.3,0.9-1.6,0.5c-0.4-0.7-0.4-1.3,0-1.7C111.6,94.6,112.1,94.2,112.5,94.2z M126,85.1l-14.6,8.5
	l-1.6,2.8v17.1 M110.9,110.9c0.7-0.7,1.3-0.9,1.6-0.5c0.4,0.7,0.4,1.3,0,1.6c-0.7,0.7-1.3,1.1-1.6,1.1
	C110.5,112.4,110.5,111.6,110.9,110.9z M146.5,193.2l-1.6-1.1l-1.2,2.8l1.2,1.1 M146.5,194.9l1.1-1.2c0.4,0.8,0.4,1.4,0,1.7
	l-1.1,1.1C146.1,195.8,146.1,195.3,146.5,194.9z M161.5,196l2.2-1.1h1.6l1.7,0.5l-7.8-4.5l-1.6-0.5h-1.7l-2.2,0.5l-3.9,3.9l-2.2,5
	l-0.6,2.2v2.2l0.6,2.2l1.1,1.1l7.8,4.5l-1.1-1.1l-0.5-1.7v-2.8l0.5-2.2l1.1-2.8l3.3-4.5 M144.8,192.1l10-5.5 M167.1,195.4l1.1,1.1
	l0.6,2.2v2.2l-0.6,2.8l-2.8,5l-1.6,1.6l-2.2,1.7l-1.7,0.5h-1.6l-1.6-0.5 M147,212.2l0.6-0.6c0.4-1.1,0.4-1.6,0-1.6h-1.1
	 M143.7,206.6v-11.7"/>
<path id="Layer0_3_MEMBER_61_1_STROKES" class="st2" d="M133.7,78.6l-1.6,2.8l1.6,1.1l1.7-2.8L133.7,78.6l15.1-8.4l1.7,1.1l1.1,0.6
	v7.5l4.4,2.5l1.2,1.7l0.5,1.6v2.2l-0.5,2.8l-2.8,4.9l-1.6,1.7l-2.2,1.7l-3.9,1.1l-1.1-1.1l-8.4-4.5l-1.6-3.4v-2.2l1.1-2.2l0.5-2.8
	l3.4-4.5l2.2-1.6l2.2-0.5h1.6l1.6,0.5l3.4,1.9 M136.5,80.3c0.4,0.7,0.4,1.3,0,1.6c-0.7,0.8-1.3,1.2-1.6,1.2v-1.7
	C135.5,80.7,136.1,80.3,136.5,80.3z M150.4,72.5c0.4,0.7,0.4,1.3,0,1.6c-0.7,0.7-1.3,1.1-1.6,1.1v-2.2
	C149.4,72.3,150,72.1,150.4,72.5z M150.4,82.5l2.2-1.1h1.6l1.6,0.5 M135.4,79.8l15.1-8.4 M145.4,98.7l-1.1-1.2l-0.6-1.6v-2.8
	l0.6-2.2l2.2-5l2.2-2.2 M141.5,97l-6.1,3.4l-1.1-0.6 M134.8,97v1.7c0.7,0,1.3-0.2,1.6-0.6c0.4-1.1,0.4-1.6,0-1.6
	C135.7,96.5,135.2,96.7,134.8,97z M133.7,97.5v-15 M131.5,95.9l-7.8-4.5 M111.4,93.7l-1.6-0.5 M113.1,108.1l7.8,4.5 M137,142.6
	l1.1,0.5v7.8 M137,145.4c-0.7,0.7-1.3,1.1-1.6,1.1c-0.4-0.7-0.4-1.5,0-2.2c0.7-0.8,1.3-1,1.6-0.6V145.4z M121.4,154.3
	c-0.7,0.7-1.1,0.9-1.1,0.5c-0.4-0.7-0.4-1.3,0-1.6c0.4-0.7,0.7-0.9,1.1-0.6C121.8,153,121.8,153.6,121.4,154.3z M122.6,167.6
	l-1.2-1.6l-0.5-2.2v-2.2l0.5-2.8l1.2-2.8l3.3-5l4.5-2.2h2.2l1.6,0.5 M128.7,144.8l-10,6.1l-1.7,2.8v18.9l1.6,0.8l0.1-19.1l1.6-2.8
	l11.7-6.6 M127,170.4l-6.6,3.9l-1.8-0.9 M121.4,171.5l-1.1,1.2c-0.4-0.8-0.4-1.4,0-1.7c0.4-0.7,0.7-1.1,1.1-1.1
	C121.8,170.6,121.8,171.1,121.4,171.5z M108.1,95.3l1.7,1.2 M132,95.3V81.4"/>
<path id="Layer0_3_MEMBER_62_1_STROKES" class="st2" d="M144.8,158.7l1.1,0.5l6.8-4l-4.6-2.6l-1.1-1.1l-0.5-2.2v-2.8l0.5-2.8
	l1.1-2.8l3.4-4.5l2.2-1.6l2.2-1.2h2.2l1.1,1.2l4.4,2.4l0.1-9.1l-0.6-0.5 M162,128.7c0.4,0.7,0.4,1.5,0,2.2c-0.7,0.7-1.1,0.9-1.1,0.5
	c-0.4-0.7-0.4-1.3,0-1.7L162,128.7z M163.7,137.2l2,1.1l0.2-0.1l1.7,1.1l1.1,1.1l0.5,2.2v2.8l-0.5,2.2l-1.1,2.8l-1.7,2.8l-2.2,2.2
	l-2.2,1.7l-3.9,1.1l-1.7-1.1l-3.2-1.8 M167.6,139.3l-1.9-1l-4.2,1 M134.8,108.1l3.3,2.2v9.4 M113.7,144.8l1.1,0.5v-21.7l2.2-3.3
	l18.9-11.1 M134.8,113.7c-0.4-0.7-0.4-1.3,0-1.6c0.7-0.7,1.3-1.1,1.6-1.1v1.7C135.7,113.3,135.2,113.7,134.8,113.7z M144.3,139.8
	l1.6-2.8l-1.6-1.1l-1.6,2.8L144.3,139.8V156 M147,137.6c0.4,0.7,0.4,1.3,0,1.6c-0.7,0.7-1.3,1.1-1.6,1.1v-1.6
	C146.1,138,146.7,137.6,147,137.6z M156.5,128.7l-12.2,7.2 M159.8,141l-2.2,2.2l-1.7,2.8l-1.1,2.8l-0.6,2.8v2.2l0.6,2.2l1.1,1.1
	 M134.3,149.3l7.8,4.5l1.1,1.6l0.5,2.2v2.2l-0.5,2.8l-1.1,2.8l-1.6,2.8l-2.2,1.6l-1.6,1.6l-2.2,1.2H132l-1.6-0.6l-7.8-4.5
	 M136.5,154.3l1.6-1.1h2.2l1.6,0.5 M145.4,157.6V156c0.7-0.7,1.3-0.9,1.6-0.6c0.4,0.4,0.4,1,0,1.7
	C146.3,157.8,145.7,158,145.4,157.6z M117,153.7l1.7,0.6 M124.2,142.6l-7.2,3.9l-2.2-1.1 M120.4,151.5l-1.6-0.5 M130.4,172.1
	l-1.1-1.6l-0.5-1.7V166l0.5-2.8l1.1-2.8l1.6-2.2l2.2-2.2 M142.6,153.2v-14.5 M145.9,137l13.9-8.3"/>
<path id="Layer0_3_MEMBER_63_1_STROKES" class="st2" d="M163.1,95.3c-0.4,1.1-0.4,1.7,0,1.7c0.7,0,1.3-0.2,1.7-0.5
	c0.4-1.1,0.4-1.7,0-1.7C164.1,94.8,163.5,94.9,163.1,95.3z M153.1,97.5l10-5.5l1.1,0.6l2.2,1.1v9.5 M148.1,122.6l-1.1-1.1l-1.1-2.2
	v-5.6l2.2-6.1l2.2-2.8l2.2-2.2l2.2-1.7l2.2-1.1h2.2l2.2,0.6 M162.6,105.4l2.8-1.1h2.2l1.6,0.5l1.7,1.1l1.1,2.2v5.5L171,117l-3.4,5.6
	l-5,4.4l-4.5,1.1l-1.6-0.5l-1.6-1.7l-1.1-1.6v-5.5l1.1-3.4l3.3-5.6l2.2-2.8 M142,120.9v-14.4l1.6-3.9l4.5-2.2 M147,106.5v-1.7
	c-0.7,0-1.3,0.4-1.6,1.1s-0.4,1.3,0,1.6L147,106.5z M143.1,122.6V107l2.2-3.4l18.9-11.1 M130.9,115.9l2.2,0.6l7.8,5l1.6,1.1l1.1,4.4
	l-1.1,6.1l-3.4,6.1l-2.2,2.2l-5,2.8h-2.2l-1.6-0.6l-8.4-4.5l-1.1-1.1l-1.2-2.2l-0.5-2.8l0.5-2.8l2.2-6.1l6.7-7.2L130.9,115.9z
	 M117,122c0.7-0.7,1.3-0.9,1.7-0.5v1.6c-0.8,0.7-1.4,0.9-1.7,0.5C116.6,123,116.6,122.4,117,122z M117,120.4l-1.6-1.1l-1.7,3.4
	l1.1,1.1 M132,123.7l-2.2,2.2l-3.3,6.1l-1.1,2.8v5.5l1.1,2.2l1.6,1.1 M115.4,119.2l8.3-4.4 M141,121.5l-1.7-0.6H137l-2.8,1.1
	 M152.6,125.9l-7.2,4.5l-1.1-0.6 M147,127.6c-0.7,0.7-1.3,0.9-1.6,0.5c-0.4-0.7-0.4-1.3,0-1.6c0.7-0.7,1.3-1.1,1.6-1.1V127.6z
	 M129.2,110.9l5.6-2.8 M118.7,143.7c-0.8,0.7-1.4,1.1-1.7,1.1c-0.4-0.7-0.4-1.3,0-1.7c0.7-0.7,1.3-1.1,1.7-1.1V143.7z M113.7,144.8
	v-22.2"/>
<path id="Layer0_3_MEMBER_64_1_STROKES" class="st2" d="M161.5,100.4l7.8,4.4 M145.4,103.7l-1.7-1.1 M156.5,127.6l-8.4-5 M142,106.5
	l1.1,0.5 M89.8,106.5l-4.5,12.2l1.7,1.1l4.4-12.2L89.8,106.5l9.4-5.1l1.7,0.6l4.2,5.8c0.1,0.1,0.2,0.2,0.2,0.2c2,2,1.8,5.7-0.6,11.2
	c-3.3,5.2-6.7,7-10,5.6c-0.3-0.2-0.5-0.3-0.7-0.5l-2.6,1.5l-1.1-0.5l-5-6.6 M105.1,107.8c-0.1-0.1-0.2-0.2-0.4-0.3
	c-0.2-0.1-0.4-0.1-0.5-0.2c-0.2-0.1-0.5-0.1-0.7-0.2c-2.9-0.5-5.9,1.4-8.8,5.9c-3.1,5.5-3.3,9.2-0.7,11.2 M103.5,107.2l-3.2-1.8
	c-3.3-1.1-6.3,0.9-8.9,6.1c-3.3,5.2-3.5,8.9-0.5,11.1 M91.4,107.5l9.5-5.5 M87,119.8l4.4,6.1"/>
<path id="Layer0_3_MEMBER_65_1_STROKES" class="st2" d="M104.8,92.6l-9.5-1.2l-1.6-0.5V77l10.5-12.8l10,1.1l1.7,0.5v4.6
	c0.2,0.1,0.4,0.2,0.6,0.2c0.2,0.1,0.3,0.2,0.5,0.2c3.7,2.6,3.7,7.4,0,14.4c-4.1,7.1-8.2,9.3-12.2,6.7l-0.2-0.1l-4.8-2.1l-1.1-1.1
	l-1.1-3.4v-2.2l1.1-5.1l1.1-2.2l3.4-4.4l1.6-1.6l1.6-1.1l3.9-1.1l1.6,0.5l3.6,2.2c0.1,0,0.2,0.1,0.4,0.1 M115.9,65.8l-10-0.5
	L95.3,78.1v13.4 M95.3,78.1L93.7,77 M104.2,64.2l1.7,1.1 M115.5,70.3c-3.9-1.1-7.5,1.5-10.8,7.8c-4,7.3-4.1,11.9-0.2,13.8
	 M90.9,122.6l3.9,2.2 M127.5,233.2l2.2,1.2 M126.5,232.7l-1.1,1.1h-0.6 M123.7,237.7l-1.6-1.1l-0.6-0.6v-2.2l-3.3,1.6v0.6h-0.6v2.2
	l0.6,0.5l1.6,1.1h1.1l2.8-1.6h0.6L123.7,237.7z M127.5,240.5l-3.9,2.2h-0.5v11.2h0.5l3.9-2.3l0.6-1.1v-10l-0.6-0.6V240.5z
	 M127.5,239.9l-3.3-1.6 M133.7,247.7v-10.5l-3.9-2.2l-3.3,1.7 M119.2,236l0.5-1.1h0.6v1.7l-0.6,0.5h-0.5l-0.5-0.5L119.2,236z
	 M118.1,253.9l2.2-1.1 M128.7,251l-0.6-0.5 M123.1,253.9l-5-2.8"/>
<path id="Layer0_3_MEMBER_66_1_STROKES" class="st2" d="M94.8,263.3l0.5,0.3v-0.3l5.6-3.3l1.1,0.5l-6.1,3.4l0.6,1.6l-0.6,1.1
	l-0.5,0.5l-1.1,0.6v-1.1v-1.7l-3.9,2.2h-0.5v-0.5l-0.6-11.1l0.6-0.6h0.5v-1.6l0.9-1.8l0.2-0.4h0.5l0.6,1.1v1.7l3.9-2.8v-1.6l0.6-1.1
	l0.5-0.6h0.5l0.6,0.6v1.6l0.5,0.6 M91.2,251.5l0.2,1.3l1.1,1.1 M97.5,247.7v1.7l1.1,0.5 M98.7,251.6h-0.6l1.1,1.2 M108.1,247.2v0.5
	 M107.5,263.3l-7.8-4.5 M95.8,263.9l-0.5-0.3v1.4l-0.5,1.2l-0.6,0.5 M94.2,264.9l-1.1-0.5l-3.4,2.2 M127.5,233.2v-2.7H127l-3.4,1.6
	v3.3l2.2,1.2v0.5l0.6-0.5 M124.8,233.2v-0.5l0.6-0.5h1.1v0.5 M133.7,237.2h-0.5l-3.9,2.2h-0.5v0.6 M117.5,246l-3.4-2.2v0.6
	 M129.2,250.5l3.9-2.2h0.5v-0.6 M122.6,242.7l-6.2-3.4 M113.1,260l-0.6-0.6 M112,249.4l-3.3-2.2"/>
<path id="Layer0_3_MEMBER_67_1_STROKES" class="st2" d="M106.4,19.7l-2.2-1.1h-2.2l-1.6,0.6l-1.1,1.6l-0.5,1.6v2.8l0.5,2.8l1.1,2.8
	l1.6,2.2l2.2,2.2l2.2,1.6l2.2,1.1h1.6l1.6-0.6l1.2-1.6l0.5-2.2v-2.2l-0.5-2.8l-1.2-2.8l-3.3-5 M101.4,157.1l-8.3-5.6 M103.1,143.7
	l-8.9-5 M105.9,245.5l0.5,0.6l1.6,1.1l-2.8,2.2h-1.1l-1.6-1.1v-0.6h-0.6 M98.7,251.6l0.5,0.6v-2.2 M99.2,252.2v1.7v0.5v1.1v0.6v2.2
	l0.6,0.5 M99.2,253.9l-0.5-0.6l-0.6,0.6h0.6l0.5,0.5 M99.2,256.1l-0.5-0.6h-0.6 M99.2,255.5h-0.5 M107,252.8v10l0.5,0.5h0.5l3.4-2.2
	l1.1-1.1v-10.1l-0.6-0.5h-0.5l-3.4,2.2L107,252.8z M107,251.6l-5.6-2.8 M101.9,260.5v2.2h0.6l2.2-1.1 M113.7,260l3.9-2.2v-0.6
	l0.6-0.5v-10l-0.6-0.6l-3.9,2.2l-0.5,0.5v0.6 M108.1,244.9l2.2,1.1h0.6l3.3-1.6v-0.6l-2.2-1.1v-0.5h-0.5"/>
<path id="Layer0_3_MEMBER_68_1_STROKES" class="st2" d="M107.5,15.3l-7.2,3.9 M112,37.5l5.6-3.3 M65.3,128.1l-0.5,0.6 M63.6,128.7
	l-1.6-1.7v-1.6"/>
<path id="Layer0_3_MEMBER_69_1_STROKES" class="st2" d="M64.8,124.8h-0.6 M65.8,127h-0.5"/>
<path id="Layer0_3_MEMBER_70_1_STROKES" class="st2" d="M63.1,124.2l-0.5,0.6"/>
<path id="Layer0_3_MEMBER_71_1_STROKES" class="st2" d="M64.2,124.8h-1.6 M64.8,128.7v-1.1l0.5-0.6"/>
<path id="Layer0_3_MEMBER_72_1_STROKES" class="st2" d="M62.5,124.8h-0.6v0.5 M64.8,128.7h-1.2"/>
<path id="Layer0_3_MEMBER_73_1_STROKES" class="st2" d="M65.3,127l-1.1-1.1v-1.1"/>
<path id="Layer0_3_MEMBER_74_1_STROKES" class="st2" d="M62.5,124.8c0-0.8,0.2-1.2,0.5-1.2c1.1,0,2.1,0.6,2.8,1.7
	c0.4,1.8,0.4,3,0,3.4h-1.1 M63.6,146.5l-1.1-1.1v-0.5h-0.6v-1.7 M65.3,146l-0.5,0.5"/>
<path id="Layer0_3_MEMBER_75_1_STROKES" class="st2" d="M64.8,142.1l-0.6,0.5 M65.8,144.3l-0.5,0.5"/>
<path id="Layer0_3_MEMBER_76_1_STROKES" class="st2" d="M63.1,142.1l-0.5,0.5"/>
<path id="Layer0_3_MEMBER_77_1_STROKES" class="st2" d="M64.8,146.5v-1.1l0.5-0.5 M64.2,142.6h-1.6"/>
<path id="Layer0_3_MEMBER_78_1_STROKES" class="st2" d="M64.8,146.5h-1.2 M62.5,142.6h-0.6v0.5"/>
<path id="Layer0_3_MEMBER_79_1_STROKES" class="st2" d="M65.3,144.8l-1.1-1.1v-1.1"/>
<path id="Layer0_3_MEMBER_80_1_STROKES" class="st2" d="M62.5,142.1c0-0.4,0.2-0.6,0.5-0.6c1.1,0,2.1,0.5,2.8,1.6
	c0.4,1.9,0.4,3,0,3.4h-1.1 M65.3,163.2l-0.5,0.5 M63.6,163.7v-0.5h-0.5l-0.5-0.6v-0.5h-0.6v-1.6"/>
<path id="Layer0_3_MEMBER_81_1_STROKES" class="st2" d="M64.8,159.3l-0.6,0.6 M65.8,161.5l-0.5,0.6"/>
<path id="Layer0_3_MEMBER_82_1_STROKES" class="st2" d="M63.1,159.3h-0.5"/>
<path id="Layer0_3_MEMBER_83_1_STROKES" class="st2" d="M64.2,159.8h-1.6v-0.6 M64.8,163.7v-1.1l0.5-0.5"/>
<path id="Layer0_3_MEMBER_84_1_STROKES" class="st2" d="M62.5,159.3l-0.6,0.6v0.6 M64.8,163.7h-1.2"/>
<path id="Layer0_3_MEMBER_85_1_STROKES" class="st2" d="M65.3,162.1l-1.1-1.1v-1.1"/>
<path id="Layer0_3_MEMBER_86_1_STROKES" class="st2" d="M65.3,197.1l-0.5,0.6 M63.6,197.7l-1.6-1.7v-1.6 M62.5,159.3
	c0-0.4,0.2-0.5,0.5-0.5c1.1,0,2.1,0.6,2.8,1.7c0.4,1.8,0.4,2.9,0,3.3h-1.1"/>
<path id="Layer0_3_MEMBER_87_1_STROKES" class="st2" d="M64.8,193.7h-0.6 M65.8,195.4l-0.5,0.5"/>
<path id="Layer0_3_MEMBER_88_1_STROKES" class="st2" d="M63.1,193.2l-0.5,0.5"/>
<path id="Layer0_3_MEMBER_89_1_STROKES" class="st2" d="M64.2,193.7h-1.6 M64.8,197.7v-1.1l0.5-0.6"/>
<path id="Layer0_3_MEMBER_90_1_STROKES" class="st2" d="M62.5,193.7h-0.6v0.6 M64.8,197.7h-1.2"/>
<path id="Layer0_3_MEMBER_91_1_STROKES" class="st2" d="M65.3,196l-1.1-1.1v-1.2"/>
<path id="Layer0_3_MEMBER_92_1_STROKES" class="st2" d="M62.5,193.2c0-0.4,0.2-0.5,0.5-0.5c1.1,0,2.1,0.5,2.8,1.6
	c0.4,1.8,0.4,3,0,3.4h-1.1 M65.3,244.4l-0.5,0.5 M63.6,244.9l-1.1-1.1v-0.5h-0.6v-1.7"/>
<path id="Layer0_3_MEMBER_93_1_STROKES" class="st2" d="M64.8,240.5l-0.6,0.5 M65.8,242.7l-0.5,0.6"/>
<path id="Layer0_3_MEMBER_94_1_STROKES" class="st2" d="M63.1,240.5l-0.5,0.5"/>
<path id="Layer0_3_MEMBER_95_1_STROKES" class="st2" d="M64.2,241h-1.6 M64.8,244.9v-1.1l0.5-0.5"/>
<path id="Layer0_3_MEMBER_96_1_STROKES" class="st2" d="M62.5,241h-0.6v0.5 M64.8,244.9h-1.2"/>
<path id="Layer0_3_MEMBER_97_1_STROKES" class="st2" d="M65.3,243.3l-1.1-1.1V241"/>
<path id="Layer0_3_MEMBER_98_1_STROKES" class="st2" d="M62.5,240.5c0-0.4,0.2-0.6,0.5-0.6c1.1,0,2.1,0.5,2.8,1.6
	c0.4,1.9,0.4,3,0,3.4h-1.1 M63.6,261.6l-1.6-1.6v-1.7 M65.3,261l-0.5,0.6"/>
<path id="Layer0_3_MEMBER_99_1_STROKES" class="st2" d="M64.8,257.2l-0.6,0.6 M65.8,259.4l-0.5,0.6"/>
<path id="Layer0_3_MEMBER_100_1_STROKES" class="st2" d="M63.1,257.2l-0.5,0.6"/>
<path id="Layer0_3_MEMBER_101_1_STROKES" class="st2" d="M64.8,261.6v-1.1l0.5-0.5 M64.2,257.8h-1.6"/>
<path id="Layer0_3_MEMBER_102_1_STROKES" class="st2" d="M64.8,261.6h-1.2 M62.5,257.8h-0.6v0.5"/>
<path id="Layer0_3_MEMBER_103_1_STROKES" class="st2" d="M65.3,260l-1.1-1.2v-1.1"/>
<path id="Layer0_3_MEMBER_104_1_STROKES" class="st2" d="M109.8,119.2v1.6l-1.7,1.7 M108.7,118.1l0.6,0.6 M62.5,257.2
	c0-0.4,0.2-0.5,0.5-0.5c1.1,0,2.1,0.5,2.8,1.6c0.4,1.8,0.4,3,0,3.4h-1.1"/>
<path id="Layer0_3_MEMBER_105_1_STROKES" class="st2" d="M107,118.7h0.5 M105.9,120.9h0.5"/>
<path id="Layer0_3_MEMBER_106_1_STROKES" class="st2" d="M106.4,122l0.6,0.6"/>
<path id="Layer0_3_MEMBER_107_1_STROKES" class="st2" d="M106.4,120.9v1.1h0.6v0.6 M109.2,118.7h-1.7"/>
<path id="Layer0_3_MEMBER_108_1_STROKES" class="st2" d="M107,122.6h1.1 M109.2,118.7l0.5,0.5"/>
<path id="Layer0_3_MEMBER_109_1_STROKES" class="st2" d="M107.5,118.7c0,0.7-0.2,1.1-0.5,1.1l-0.6,1.1"/>
<path id="Layer0_3_MEMBER_110_1_STROKES" class="st2" d="M107,122.6h-1.1c-0.7-1.1-0.7-2.3,0-3.4c1.1-1.5,2-2.1,2.8-1.7l0.6,0.6
	 M98.7,249.9l3.3-1.6 M123.1,235.5L122,236 M115.4,240.5v3.9 M117.5,238.3l-2.2,1.6"/>
<path id="Layer0_3_MEMBER_111_1_STROKES" class="st2" d="M87.5,243.3v-0.6 M102.5,247.2L91.9,241 M91.4,227.2v-0.6 M91.9,212.7v5.6
	 M91.4,212.2V211 M91.9,223.2v2.8l10.6,6.1 M114.2,226l-0.5-0.6 M114.2,211l-0.5-0.6"/>
<path id="Layer0_3_MEMBER_112_1_STROKES" class="st2" d="M91.9,212.7l-3.3,1.7"/>
<path id="Layer0_3_MEMBER_113_1_STROKES" class="st2" d="M87,216l1.1-2.2l3.4-1.6l0.5,0.5 M102.5,217.7l-0.6,0.6v13.3l0.6,0.6
	l11.7-6.7v-0.5l0.6-0.5V211 M88.6,227.7l3.3-1.6"/>
<path id="Layer0_3_MEMBER_114_1_STROKES" class="st2" d="M88.6,214.4l-0.6,1.1l-0.5,0.6"/>
<path id="Layer0_3_MEMBER_115_1_STROKES" class="st2" d="M114.8,211h-0.6"/>
<path id="Layer0_3_MEMBER_116_1_STROKES" class="st2" d="M87.5,227.2l0.5,0.5h0.6"/>
<path id="Layer0_3_MEMBER_117_1_STROKES" class="st2" d="M87.5,227.7l-0.5-0.5"/>
<path id="Layer0_3_MEMBER_118_1_STROKES" class="st2" d="M87.5,216v11.1"/>
<path id="Layer0_3_MEMBER_119_1_STROKES" class="st2" d="M91.9,238.8v2.2 M91.9,227.7v5.5 M87,227.2V216"/>
<path id="Layer0_3_MEMBER_120_1_STROKES" class="st2" d="M91.9,227.7l-3.3,2.2"/>
<path id="Layer0_3_MEMBER_121_1_STROKES" class="st2" d="M102.5,232.7v0.5l-0.6,0.6v12.8l0.6,0.5l11.7-6.6v-0.6l0.6-0.6v-12.8
	 M88.6,243.3l3.3-2.2 M87,231l0.5-1.1l0.5-0.6l3.4-2.2l0.5,0.5"/>
<path id="Layer0_3_MEMBER_122_1_STROKES" class="st2" d="M88.6,229.9l-0.6,0.6l-0.5,1.1"/>
<path id="Layer0_3_MEMBER_123_1_STROKES" class="st2" d="M114.8,226.6l-0.6-0.5"/>
<path id="Layer0_3_MEMBER_124_1_STROKES" class="st2" d="M87.5,242.7l0.5,0.6h0.6"/>
<path id="Layer0_3_MEMBER_125_1_STROKES" class="st2" d="M87.5,242.7l-0.5-0.5"/>
<path id="Layer0_3_MEMBER_126_1_STROKES" class="st2" d="M87.5,231.6v11.1"/>
<path id="Layer0_3_MEMBER_127_1_STROKES" class="st2" d="M90.9,238.8h-1.1v-0.5l-0.6-0.6v-0.5l0.6-0.5V236l0.5-0.6v-0.5 M90.3,234.4
	h2.2v1.1 M87,242.2V231"/>
<path id="Layer0_3_MEMBER_128_1_STROKES" class="st2" d="M90.9,238.3v-1.1l-1.1,0.5v-0.5l1.1-0.5v-1.2h0.5v1.2l1.1-0.6"/>
<path id="Layer0_3_MEMBER_129_1_STROKES" class="st2" d="M89.2,233.8l0.6,0.3l0.5-0.3h0.6l1.6,0.6 M90.3,234.4l-0.5-0.3l-0.6,0.3
	l-0.5,0.5l-0.6,1.7l1.1,0.5 M88.1,236.6v1.1l0.6,0.6l1.1,0.5"/>
<path id="Layer0_3_MEMBER_130_1_STROKES" class="st2" d="M90.9,238.3h0.5v-1.1l1.1-0.5V236"/>
<path id="Layer0_3_MEMBER_131_1_STROKES" class="st2" d="M90.9,223.8h-1.1v-0.6l-0.6-0.5v-0.5l0.6-0.6V221l0.5-0.5v-1.2h2.2v0.6
	 M92.5,235.5h0.6v0.6l-0.6,0.6v1.1h-0.6v0.6h-0.5v0.5h-0.5"/>
<path id="Layer0_3_MEMBER_132_1_STROKES" class="st2" d="M90.9,223.2v-1.1l-1.1,0.5v-0.5l1.1-0.6v-1.1l0.5-0.6v1.1h1.1"/>
<path id="Layer0_3_MEMBER_133_1_STROKES" class="st2" d="M90.3,219.3l-1.1-0.5l-1.1,2.2v0.5l1.1,0.6 M89.2,218.8l1.1-0.5h0.6
	l1.6,1.1 M89.8,223.8l-1.7-1.6v-0.6"/>
<path id="Layer0_3_MEMBER_134_1_STROKES" class="st2" d="M92.5,221l-1.1,0.5v1.1l-0.5,0.5"/>
<path id="Layer0_3_MEMBER_135_1_STROKES" class="st2" d="M90.9,208.3h-1.1v-0.6h-0.6v-1.1l0.6-0.5v-0.6h0.5v-1.1h1.1l0.5-0.5h0.6
	v1.1 M92.5,219.9l0.6,0.6v0.5l-0.6,0.5v0.6l-0.6,0.5v0.5h-0.5v0.6h-0.5"/>
<path id="Layer0_3_MEMBER_136_1_STROKES" class="st2" d="M90.9,207.7v-1.1l-1.1,0.5l1.1-1.1v-1.1h0.5v1.1l1.1-0.6"/>
<path id="Layer0_3_MEMBER_137_1_STROKES" class="st2" d="M89.8,208.3l-1.1-0.6l-0.6-0.6V206l1.1-2.2l1.1-0.6h0.6l1.6,0.6
	 M90.3,204.3l-1.1-0.5 M88.1,206l1.1,0.5"/>
<path id="Layer0_3_MEMBER_138_1_STROKES" class="st2" d="M90.9,207.7h0.5v-1.1l1.1-0.5v-0.6"/>
<path id="Layer0_3_MEMBER_139_1_STROKES" class="st2" d="M90.3,188.8h2.2v0.5 M90.9,193.2h-1.1v-0.5l-0.6-0.6v-0.6l0.6-0.5v-0.5
	l0.5-0.6v-0.5 M92.5,204.9h0.6v1.1h-0.6v1.1h-0.6v0.6h-0.5v0.6h-0.5"/>
<path id="Layer0_3_MEMBER_140_1_STROKES" class="st2" d="M90.9,192.7v-1.2l-1.1,0.6v-0.6l1.1-0.5v-1.1l0.5-0.5v1.1h1.1"/>
<path id="Layer0_3_MEMBER_141_1_STROKES" class="st2" d="M90.3,188.8l-1.1-0.6l-1.1,2.2v0.5l1.1,0.5 M89.2,188.2l1.1-0.6h0.6
	l1.6,1.2 M89.8,193.2l-1.1-0.5l-0.6-1.2V191"/>
<path id="Layer0_3_MEMBER_142_1_STROKES" class="st2" d="M92.5,190.4l-1.1,0.5v1.7h-0.5"/>
<path id="Layer0_3_MEMBER_143_1_STROKES" class="st2" d="M90.9,178.2h-1.1v-1.1h-0.6V176l0.6-0.6v-0.5h0.5v-1.1h1.6v-0.5h0.6v1.1
	 M92.5,189.3l0.6,0.5v0.6l-0.6,0.5v0.5l-0.6,0.6v0.6h-0.5v0.5h-0.5"/>
<path id="Layer0_3_MEMBER_144_1_STROKES" class="st2" d="M90.9,177.1v-0.5h-1.1l1.1-0.6v-1.6h0.5v1.1l1.1-0.5"/>
<path id="Layer0_3_MEMBER_145_1_STROKES" class="st2" d="M89.8,177.6l-1.1-0.5l-0.6-0.5v-1.2l1.1-2.2l1.1-0.5h0.6l1.6,0.5
	 M88.1,175.4l1.1,0.6 M90.3,173.7l-1.1-0.5"/>
<path id="Layer0_3_MEMBER_146_1_STROKES" class="st2" d="M90.9,177.1h0.5V176l1.1-0.6v-0.5"/>
<path id="Layer0_3_MEMBER_147_1_STROKES" class="st2" d="M90.3,158.2h2.2v1.1 M90.9,162.6h-1.1v-0.5l-0.6-0.6V161l0.6-0.5v-0.6
	l0.5-0.6v-0.5 M92.5,174.3h0.6v1.1h-0.6v1.2h-0.6v0.5l-0.5,0.5h-0.5v0.6"/>
<path id="Layer0_3_MEMBER_148_1_STROKES" class="st2" d="M90.9,162.1V161l-1.1,0.5V161l1.1-0.5v-1.2h0.5v1.2l1.1-0.6"/>
<path id="Layer0_3_MEMBER_149_1_STROKES" class="st2" d="M89.2,157.6l0.6,0.3l0.5-0.3h0.6l1.6,0.6 M89.2,161l-1.1-0.5v0.5l0.6,1.1
	l1.1,0.5 M90.3,158.2l-0.5-0.3l-0.6,0.3l-0.5,0.5l-0.6,1.7"/>
<path id="Layer0_3_MEMBER_150_1_STROKES" class="st2" d="M92.5,159.8l-1.1,1.1v1.1h-0.5"/>
<path id="Layer0_3_MEMBER_151_1_STROKES" class="st2" d="M92.5,143.1v0.6l0.6-0.6h1.6v1.2 M92.5,147.6h-1.1v-1.1l-0.5-0.5l1.1-1.1
	v-0.5l0.6-0.6 M92.5,159.3h0.6v0.6l-0.6,0.6v0.5l-0.6,0.5v0.6h-0.5v0.5h-0.5"/>
<path id="Layer0_3_MEMBER_152_1_STROKES" class="st2" d="M93.1,147.1V146l-1.2,0.5V146l1.2-0.6v-1.1l0.5,1.1l0.5-0.5"/>
<path id="Layer0_3_MEMBER_153_1_STROKES" class="st2" d="M91.4,142.6l0.4,0.2l0.1-0.2h1.2l1.1,0.5 M92.5,143.1l-0.7-0.4l-1.5,1.5
	l-0.5,1.1l1.1,0.6 M89.8,145.4v1.1l0.5,0.6l1.1,0.5"/>
<path id="Layer0_3_MEMBER_154_1_STROKES" class="st2" d="M93.1,147.1l0.5-1.1l0.5-0.6v-0.5"/>
<path id="Layer0_3_MEMBER_155_1_STROKES" class="st2" d="M94.8,144.3v1.6l-0.6,0.5v0.6h-0.5l-0.5,0.5h-0.6"/>
<path id="Layer0_3_MEMBER_156_1_STROKES" class="st2" d="M97.5,234.9l-49.1-3.4 M97,220.5l-50.1-20.1"/>
<path id="Layer0_3_MEMBER_161_1_STROKES" class="st2" d="M134.8,226v1.1l1.6-1.1 M137,226v1.1l4.5-2.8v-0.6l10.5,6.1l0.6,0.6v12.8
	l-1.1,1.1l-5,2.8h-0.6 M139.3,251v-13.9l0.5-0.5l5.1-2.8h0.5l-10.5-6.1v0.6l-5.1,2.8v-4.5l0.6-0.5v-0.6l1.6-0.5 M133.1,226v1.1
	l-0.5,0.5h-1.1v-1.1l1.1-1.1h0.5 M145.9,233.8v-0.6l0.6-0.5l5-2.8h0.5 M145.4,233.8v13.9l-0.5,0.6l-5.1,2.8l-0.5,0.5l-5-3.3
	 M138.7,237.2l-9.5-5.6 M134.8,227.2v0.5"/>
<path id="Layer0_3_MEMBER_162_1_STROKES" class="st2" d="M142,246.6l10,18.3 M148.7,242.7l20.5,10.6"/>
<path id="Layer0_3_MEMBER_167_1_STROKES" class="st2" d="M160.4,176l25.6-28.4 M137.5,190.7l46.2-2.5"/>
<g>
	<text transform="matrix(1 0 0 1 36.7236 236.8662)" class="st3 st4 st5">2</text>
</g>
<g>
	<text transform="matrix(1 0 0 1 173.2024 260.8134)" class="st3 st4 st5">4</text>
</g>
<g>
	<text transform="matrix(1 0 0 1 153.9913 277.7591)" class="st3 st4 st5">5</text>
</g>
<g>
	<text transform="matrix(1 0 0 1 188.0304 194.5599)" class="st3 st4 st5">7</text>
</g>
<g>
	<text transform="matrix(1 0 0 1 188.3243 151.3128)" class="st3 st4 st5">6</text>
</g>
<g>
	<text transform="matrix(1 0 0 1 36.7235 204.3278)" class="st3 st4 st5">3</text>
</g>
<circle cx="97.5" cy="234.9" r="1.3"/>
<circle cx="97" cy="220.5" r="1.3"/>
<circle cx="137.5" cy="190.7" r="1.3"/>
<circle cx="160.4" cy="176" r="1.3"/>
<circle cx="148.7" cy="242.7" r="1.3"/>
<circle cx="142" cy="246.6" r="1.3"/>
</svg>
