<?xml version="1.0" encoding="utf-8"?>
<!-- Generator: Adobe Illustrator 24.1.2, SVG Export Plug-In . SVG Version: 6.00 Build 0)  -->
<svg version="1.1" id="Ebene_1" xmlns="http://www.w3.org/2000/svg" xmlns:xlink="http://www.w3.org/1999/xlink" x="0px" y="0px"
	 viewBox="0 0 349.1 161" style="enable-background:new 0 0 349.1 161;" xml:space="preserve">
<style type="text/css">
	.st0{fill:#666666;}
	.st1{fill:#DDDDDC;}
	.st2{fill:#333333;}
	.st3{fill:#CCCCCC;}
	.st4{fill:#999999;}
	.st5{fill:none;stroke:#231F20;stroke-width:0.241;stroke-miterlimit:4.8205;}
	.st6{fill:none;stroke:#333333;stroke-width:0.9641;stroke-linecap:round;stroke-linejoin:round;stroke-miterlimit:3.8564;}
	.st7{fill:none;stroke:#333333;stroke-width:2.1321;stroke-linecap:round;stroke-linejoin:round;stroke-miterlimit:8.5283;}
	.st8{fill:none;stroke:#999999;stroke-width:2.1321;stroke-linecap:round;stroke-linejoin:round;stroke-miterlimit:8.5283;}
	.st9{clip-path:url(#SVGID_2_);enable-background:new    ;}
	.st10{fill:#FFFFFF;}
	.st11{font-family:'ArialMT';}
	.st12{font-size:4.585px;}
	.st13{clip-path:url(#SVGID_4_);enable-background:new    ;}
	.st14{font-size:2.9208px;}
	.st15{clip-path:url(#SVGID_6_);enable-background:new    ;}
	.st16{clip-path:url(#SVGID_8_);enable-background:new    ;}
	.st17{clip-path:url(#SVGID_10_);enable-background:new    ;}
	.st18{clip-path:url(#SVGID_12_);enable-background:new    ;}
	.st19{clip-path:url(#SVGID_14_);enable-background:new    ;}
	.st20{clip-path:url(#SVGID_16_);enable-background:new    ;}
	.st21{fill:#FF0000;}
	.st22{fill:none;stroke:#FFFFFF;stroke-width:0.5;stroke-linecap:round;stroke-linejoin:round;stroke-miterlimit:8.5283;}
	.st23{fill:#66CC00;}
	.st24{fill:#FFFF00;}
	.st25{fill:none;stroke:#231F20;stroke-width:0.5;stroke-miterlimit:10.6603;}
	.st26{fill:none;stroke:#FFFFFF;stroke-width:0.8528;stroke-miterlimit:10.6603;}
	.st27{fill:none;stroke:#FF9900;stroke-linecap:round;stroke-linejoin:round;}
	.st28{font-size:3.7359px;}
	.st29{font-size:4.2272px;}
	.st30{fill:none;stroke:#231F20;stroke-width:0.4821;stroke-miterlimit:4.8205;}
	.st31{font-size:5.4001px;}
	.st32{font-size:14px;}
</style>
<path class="st0" d="M167.2,4.6H48.6v153.7h118.5V4.6z"/>
<path class="st1" d="M124.5,106.8c-0.6,0.6-0.8,1.3-0.8,2c0,0.7,0.3,1.4,0.8,2c0.8-0.6,1.2-1.3,1.2-2
	C125.6,108,125.3,107.3,124.5,106.8z"/>
<path class="st2" d="M122.3,112.2c0.9,1,2.1,1.6,3.4,1.6c1.4,0,2.6-0.5,3.6-1.6c0.9-0.9,1.4-2,1.4-3.4c0-1.4-0.5-2.6-1.4-3.6
	c-1-0.9-2.2-1.3-3.6-1.3c-1.4,0-2.5,0.4-3.4,1.3c-1,1-1.5,2.2-1.5,3.6C120.8,110.1,121.3,111.3,122.3,112.2z"/>
<path class="st2" d="M128.1,106.5c-0.7-0.6-1.4-0.9-2.3-0.9s-1.6,0.3-2.2,0.9c-0.7,0.7-1,1.4-1,2.3c0,0.9,0.3,1.7,1,2.2
	c0.6,0.7,1.3,1,2.2,1s1.7-0.3,2.3-1c0.6-0.6,0.9-1.3,0.9-2.2C129,107.9,128.7,107.1,128.1,106.5z"/>
<path class="st3" d="M128,110.9c0.6-0.6,0.9-1.3,0.9-2.2c0-0.9-0.3-1.6-0.9-2.2c-0.6-0.6-1.3-0.9-2.2-0.9c-0.9,0-1.6,0.3-2.2,0.9
	c-0.6,0.6-0.9,1.3-0.9,2.2c0,0.9,0.3,1.6,0.9,2.2c0.6,0.6,1.3,0.9,2.2,0.9C126.7,111.8,127.4,111.5,128,110.9z"/>
<path class="st0" d="M125.6,104.1l0.5,0c0.5-0.1,0.9-0.2,1.3-0.5c0.3-0.2,0.5-0.5,0.6-0.8c0.1-0.2,0.1-0.3,0.1-0.5
	c0-0.5-0.2-0.9-0.7-1.3c-0.4-0.3-0.8-0.4-1.3-0.5l-0.5,0c-0.7,0-1.3,0.2-1.8,0.5c-0.5,0.4-0.7,0.8-0.7,1.3c0,0.2,0,0.3,0.1,0.5
	c0.1,0.3,0.3,0.6,0.7,0.8c0.2,0.2,0.4,0.3,0.6,0.3C124.8,104.1,125.2,104.1,125.6,104.1z"/>
<path class="st4" d="M124,108.6l0.6,0.8l1,0.3l0.9-0.2l0.7-0.7l0.8-6.1h0c-0.1,0.3-0.3,0.6-0.6,0.8c-0.4,0.3-0.8,0.4-1.3,0.5l-0.5,0
	c-0.4,0-0.8-0.1-1.1-0.2c-0.2-0.1-0.4-0.2-0.6-0.3c-0.3-0.2-0.6-0.5-0.7-0.8L124,108.6z"/>
<path id="SCHALTER_4_0_Layer0_0_MEMBER_2_MEMBER_0_MEMBER_0_1_STROKES" class="st5" d="M128.1,103.2c0.1-0.9-0.1-1.6-0.6-2.1
	c-0.5-0.5-1.1-0.7-1.8-0.7c-1.8,0-2.6,1-2.4,2.9"/>
<path id="SCHALTER_4_0_Layer0_0_MEMBER_2_MEMBER_0_MEMBER_1_1_STROKES" class="st5" d="M124,108.4c0.1,0.4,0.3,0.7,0.6,1
	c0.3,0.2,0.7,0.4,1.1,0.4c0.4,0,0.8-0.1,1.1-0.4c0.3-0.3,0.5-0.6,0.5-1.1"/>
<path id="SCHALTER_4_0_Layer0_0_MEMBER_2_MEMBER_0_MEMBER_2_1_STROKES" class="st5" d="M128.1,103.2l-0.8,5.2"/>
<path id="SCHALTER_4_0_Layer0_0_MEMBER_2_MEMBER_0_MEMBER_3_1_STROKES" class="st5" d="M124,108.4l-0.8-5.2"/>
<path id="SCHALTER_4_0_Layer0_0_MEMBER_2_MEMBER_1_1_STROKES" class="st5" d="M126.9,101.6c-0.5-0.6-1.1-0.7-1.9-0.4
	c-0.8,0.3-1.2,0.8-1.2,1.5"/>
<path class="st1" d="M87.8,106.8c-0.6,0.6-0.8,1.3-0.8,2c0,0.7,0.3,1.4,0.8,2c0.8-0.6,1.2-1.3,1.2-2C89,108,88.6,107.3,87.8,106.8z"
	/>
<path class="st2" d="M85.7,112.2c0.9,1,2.1,1.6,3.4,1.6c1.4,0,2.6-0.5,3.6-1.6c0.9-0.9,1.4-2,1.4-3.4c0-1.4-0.5-2.6-1.4-3.6
	c-1-0.9-2.2-1.3-3.6-1.3c-1.4,0-2.5,0.4-3.4,1.3c-1,1-1.5,2.2-1.5,3.6C84.2,110.1,84.7,111.3,85.7,112.2z"/>
<path class="st2" d="M91.5,106.5c-0.7-0.6-1.4-0.9-2.3-0.9c-0.9,0-1.6,0.3-2.2,0.9c-0.7,0.7-1,1.4-1,2.3c0,0.9,0.3,1.7,1,2.2
	c0.6,0.7,1.3,1,2.2,1c0.9,0,1.7-0.3,2.3-1c0.6-0.6,0.9-1.3,0.9-2.2C92.4,107.9,92.1,107.1,91.5,106.5z"/>
<path class="st3" d="M91.4,110.9c0.6-0.6,0.9-1.3,0.9-2.2c0-0.9-0.3-1.6-0.9-2.2c-0.6-0.6-1.3-0.9-2.2-0.9c-0.9,0-1.6,0.3-2.2,0.9
	c-0.6,0.6-0.9,1.3-0.9,2.2c0,0.9,0.3,1.6,0.9,2.2c0.6,0.6,1.3,0.9,2.2,0.9C90,111.8,90.8,111.5,91.4,110.9z"/>
<path class="st0" d="M88.9,104.1l0.5,0c0.5-0.1,0.9-0.2,1.3-0.5c0.3-0.2,0.5-0.5,0.6-0.8c0.1-0.2,0.1-0.3,0.1-0.5
	c0-0.5-0.2-0.9-0.7-1.3c-0.4-0.3-0.8-0.4-1.3-0.5l-0.5,0c-0.7,0-1.3,0.2-1.8,0.5s-0.7,0.8-0.7,1.3c0,0.2,0,0.3,0.1,0.5
	c0.1,0.3,0.3,0.6,0.7,0.8c0.2,0.2,0.4,0.3,0.6,0.3C88.2,104.1,88.5,104.1,88.9,104.1z"/>
<path class="st4" d="M87.4,108.6l0.6,0.8l1,0.3l0.9-0.2l0.7-0.7l0.8-6.1h0c-0.1,0.3-0.3,0.6-0.6,0.8c-0.4,0.3-0.8,0.4-1.3,0.5
	l-0.5,0c-0.4,0-0.8-0.1-1.1-0.2c-0.2-0.1-0.4-0.2-0.6-0.3c-0.3-0.2-0.6-0.5-0.7-0.8L87.4,108.6z"/>
<path id="SCHALTER_4_0_Layer0_0_MEMBER_2_MEMBER_0_MEMBER_0_1_STROKES_1_" class="st5" d="M91.4,103.2c0.1-0.9-0.1-1.6-0.6-2.1
	c-0.5-0.5-1.1-0.7-1.8-0.7c-1.8,0-2.6,1-2.4,2.9"/>
<path id="SCHALTER_4_0_Layer0_0_MEMBER_2_MEMBER_0_MEMBER_1_1_STROKES_1_" class="st5" d="M87.4,108.4c0.1,0.4,0.3,0.7,0.6,1
	c0.3,0.2,0.7,0.4,1.1,0.4c0.4,0,0.8-0.1,1.1-0.4c0.3-0.3,0.5-0.6,0.5-1.1"/>
<path id="SCHALTER_4_0_Layer0_0_MEMBER_2_MEMBER_0_MEMBER_2_1_STROKES_1_" class="st5" d="M91.4,103.2l-0.8,5.2"/>
<path id="SCHALTER_4_0_Layer0_0_MEMBER_2_MEMBER_0_MEMBER_3_1_STROKES_1_" class="st5" d="M87.4,108.4l-0.8-5.2"/>
<path id="SCHALTER_4_0_Layer0_0_MEMBER_2_MEMBER_1_1_STROKES_1_" class="st5" d="M90.3,101.6c-0.5-0.6-1.1-0.7-1.9-0.4
	c-0.8,0.3-1.2,0.8-1.2,1.5"/>
<g>
	<path class="st2" d="M142.1,30.6c-0.9-1-2.1-1.6-3.4-1.6c-1.4,0-2.6,0.5-3.6,1.6c-0.9,0.9-1.4,2-1.4,3.4c0,1.4,0.5,2.6,1.4,3.6
		c1,0.9,2.2,1.3,3.6,1.3c1.4,0,2.5-0.4,3.4-1.3c1-1,1.5-2.2,1.5-3.6C143.6,32.6,143.1,31.5,142.1,30.6z"/>
	<path class="st3" d="M136.4,31.9c-0.6,0.6-0.9,1.3-0.9,2.2c0,0.9,0.3,1.6,0.9,2.2c0.6,0.6,1.3,0.9,2.2,0.9c0.9,0,1.6-0.3,2.2-0.9
		c0.6-0.6,0.9-1.3,0.9-2.2c0-0.9-0.3-1.6-0.9-2.2c-0.6-0.6-1.3-0.9-2.2-0.9C137.8,31,137,31.3,136.4,31.9z"/>
	<path id="SCHALTER_3_0_Layer0_0_1_STROKES_1_" class="st6" d="M138.2,32.2c1.6,0.2,2.5,1.1,2.7,2.9"/>
	<path class="st1" d="M136.1,33.3c-0.2,0.8-0.1,1.5,0.2,2.2c0.4,0.7,0.9,1.1,1.7,1.4c0.4-0.9,0.4-1.7,0.1-2.3
		C137.7,33.8,137,33.4,136.1,33.3z"/>
</g>
<g>
	<path class="st2" d="M102.1,91.5c1.4,1.5,3.1,2.2,5.2,2.2c2,0,3.7-0.7,5.2-2.2c1.4-1.4,2.1-3,2.1-5H99.9
		C100,88.5,100.7,90.1,102.1,91.5z"/>
	<path class="st3" d="M114.6,86.4c0-2-0.7-3.7-2.1-5.2c-1.5-1.4-3.2-2.1-5.1-2.1c-2,0-3.7,0.7-5.1,2.1c-1.5,1.5-2.2,3.2-2.2,5.1
		c0,0.1,0,0.1,0,0.2h14.6C114.6,86.5,114.6,86.4,114.6,86.4z"/>
	<path d="M100.9,86.4c0,1.8,0.6,3.4,1.9,4.6c1.3,1.3,2.8,1.9,4.6,1.9c1.8,0,3.3-0.6,4.6-1.8c1.3-1.3,1.9-2.8,1.9-4.6
		c0-1.8-0.6-3.3-1.9-4.6c-1.2-1.2-2.8-1.9-4.6-1.9c-1.8,0-3.3,0.7-4.6,1.9C101.5,83.1,100.9,84.6,100.9,86.4z"/>
	<path class="st4" d="M111,82.8c-1-1-2.2-1.5-3.7-1.6c-1.4,0-2.6,0.5-3.7,1.6c-1,1-1.5,2.2-1.5,3.6c0,1.5,0.5,2.7,1.5,3.7
		c1,1,2.2,1.5,3.7,1.5c1.4,0,2.7-0.5,3.7-1.5c1-1,1.5-2.3,1.5-3.7C112.5,85,112,83.8,111,82.8z"/>
	<path id="BUTTON_TURN_5_0_Layer0_2_1_STROKES" d="M102.8,87.8c-0.3-0.3-0.4-0.7-0.4-1.1c0-0.4,0.1-0.7,0.4-1
		c0.3-0.3,0.7-0.5,1.1-0.5c0.4,0,0.8,0.2,1.1,0.5c0.3,0.3,0.4,0.6,0.4,1c0,0.4-0.1,0.8-0.4,1.1c-0.3,0.3-0.7,0.4-1.1,0.4
		C103.4,88.2,103.1,88.1,102.8,87.8z"/>
</g>
<path d="M50.7,79.4c-0.7,0.7-1,1.6-1,2.6c0,1,0.3,1.8,1,2.5l5.1-5c-0.7-0.6-1.5-1-2.4-1C52.3,78.4,51.4,78.8,50.7,79.4z"/>
<path class="st4" d="M55.8,79.5C55.8,79.4,55.7,79.4,55.8,79.5l-5.1,5c0,0,0.1,0.1,0.1,0.1c0.7,0.7,1.5,1,2.5,1c1,0,1.9-0.3,2.6-1
	c0.7-0.7,1-1.5,1-2.6C56.8,81,56.5,80.2,55.8,79.5z"/>
<path class="st0" d="M51,84.1c0.6,0.6,1.4,1,2.2,1c0.8,0,1.6-0.3,2.2-1c0.6-0.6,0.9-1.3,0.9-2.2c0-0.8-0.3-1.6-0.9-2.2
	c-0.6-0.6-1.3-0.9-2.2-0.9c-0.9,0-1.6,0.3-2.2,0.9c-0.6,0.6-0.9,1.3-0.9,2.2C50.1,82.8,50.4,83.5,51,84.1z"/>
<path class="st2" d="M56.1,81.5h-5.7v0.9h5.7V81.5z"/>
<path d="M49.5,146.5c-0.7,0.7-1,1.6-1,2.6c0,1,0.3,1.8,1,2.5l5.1-5c-0.7-0.6-1.5-1-2.4-1C51.1,145.5,50.2,145.8,49.5,146.5z"/>
<path class="st4" d="M54.6,146.5C54.6,146.5,54.5,146.5,54.6,146.5l-5.1,5c0,0,0.1,0.1,0.1,0.1c0.7,0.7,1.5,1,2.5,1s1.9-0.3,2.6-1
	c0.7-0.7,1-1.5,1-2.6C55.6,148.1,55.3,147.2,54.6,146.5z"/>
<path class="st0" d="M49.8,151.2c0.6,0.6,1.4,1,2.2,1c0.8,0,1.6-0.3,2.2-1c0.6-0.6,0.9-1.3,0.9-2.2c0-0.8-0.3-1.6-0.9-2.2
	c-0.6-0.6-1.3-0.9-2.2-0.9c-0.9,0-1.6,0.3-2.2,0.9c-0.6,0.6-0.9,1.3-0.9,2.2C48.9,149.9,49.2,150.6,49.8,151.2z"/>
<path class="st2" d="M54.9,148.6h-5.7v0.9h5.7V148.6z"/>
<path d="M159.3,79.6c-0.7,0.7-1,1.6-1,2.6c0,1,0.3,1.8,1,2.5l5.1-5c-0.7-0.6-1.5-1-2.4-1C160.9,78.6,160,78.9,159.3,79.6z"/>
<path class="st4" d="M164.4,79.6C164.4,79.6,164.3,79.6,164.4,79.6l-5.1,5c0,0,0.1,0.1,0.1,0.1c0.7,0.7,1.5,1,2.5,1s1.9-0.3,2.6-1
	c0.7-0.7,1-1.5,1-2.6C165.4,81.1,165.1,80.3,164.4,79.6z"/>
<path class="st0" d="M159.6,84.3c0.6,0.6,1.4,1,2.2,1c0.8,0,1.6-0.3,2.2-1c0.6-0.6,0.9-1.3,0.9-2.2c0-0.8-0.3-1.6-0.9-2.2
	c-0.6-0.6-1.3-0.9-2.2-0.9c-0.9,0-1.6,0.3-2.2,0.9c-0.6,0.6-0.9,1.3-0.9,2.2C158.7,83,159,83.7,159.6,84.3z"/>
<path class="st2" d="M164.7,81.7H159v0.9h5.7V81.7z"/>
<path d="M158.7,147.7c-0.7,0.7-1,1.6-1,2.6c0,1,0.3,1.8,1,2.5l5.1-5c-0.7-0.6-1.5-1-2.4-1C160.2,146.7,159.3,147,158.7,147.7z"/>
<path class="st4" d="M163.7,147.7C163.7,147.7,163.7,147.7,163.7,147.7l-5.1,5c0,0,0.1,0.1,0.1,0.1c0.7,0.7,1.5,1,2.5,1
	s1.9-0.3,2.6-1c0.7-0.7,1-1.5,1-2.6C164.7,149.3,164.4,148.4,163.7,147.7z"/>
<path class="st0" d="M159,152.4c0.6,0.6,1.4,1,2.2,1c0.8,0,1.6-0.3,2.2-1c0.6-0.6,0.9-1.3,0.9-2.2c0-0.8-0.3-1.6-0.9-2.2
	c-0.6-0.6-1.3-0.9-2.2-0.9c-0.9,0-1.6,0.3-2.2,0.9c-0.6,0.6-0.9,1.3-0.9,2.2C158.1,151.1,158.4,151.8,159,152.4z"/>
<path class="st2" d="M164,149.8h-5.7v0.9h5.7V149.8z"/>
<path id="panel_accp_0_Layer0_0_MEMBER_39_MEMBER_0_1_STROKES" class="st7" d="M157.2,156.5v-7.1c0-2.3,1.1-3.4,3.4-3.4h4.4"/>
<path id="panel_accp_0_Layer0_0_MEMBER_39_MEMBER_1_1_STROKES" class="st8" d="M50.4,19.8H54c2.3,0,3.4-1.1,3.4-3.4V6.7"/>
<path id="panel_accp_0_Layer0_0_MEMBER_39_MEMBER_2_1_STROKES" class="st7" d="M157.1,6.9v9.7c0,2.3,1.1,3.4,3.4,3.4h4.3"/>
<path id="panel_accp_0_Layer0_0_MEMBER_39_MEMBER_3_1_STROKES" class="st7" d="M57.9,147.3c-0.1-2.3-1.2-3.4-3.4-3.4h-4.1"/>
<path id="panel_accp_0_Layer0_0_MEMBER_39_MEMBER_3_2_STROKES" class="st8" d="M57.9,156v-8.6"/>
<path id="panel_accp_0_Layer0_0_MEMBER_39_MEMBER_4_1_STROKES" class="st8" d="M50.1,143.3V87.5"/>
<path id="panel_accp_0_Layer0_0_MEMBER_39_MEMBER_5_1_STROKES" class="st7" d="M165.3,145.9V87"/>
<path id="panel_accp_0_Layer0_0_MEMBER_39_MEMBER_6_1_STROKES" class="st8" d="M57.9,6.7h98.8"/>
<path id="panel_accp_0_Layer0_0_MEMBER_39_MEMBER_7_1_STROKES" class="st7" d="M58.2,156.5h98.6"/>
<path id="panel_accp_0_Layer0_0_MEMBER_39_MEMBER_8_1_STROKES" class="st7" d="M165.3,77V19.9"/>
<path id="panel_accp_0_Layer0_0_MEMBER_39_MEMBER_9_1_STROKES" class="st8" d="M50.1,77.1V19.8"/>
<path class="st2" d="M158.2,78.9c0.9-0.9,2-1.3,3.2-1.3h0.1c0.2,0,0.4,0,0.6,0h3.3v-0.5h-3.6c-0.3,0-0.5,0-0.7,0
	c-1.4,0-2.5,0.5-3.5,1.4c-1,1-1.5,2.2-1.5,3.5c0,1.5,0.5,2.7,1.5,3.6c0.9,0.9,2,1.4,3.2,1.4v0.1h4.6v-0.5h-4.3
	c-1.2-0.1-2.1-0.5-2.9-1.4c-0.9-0.9-1.4-1.9-1.4-3.2S157.3,79.8,158.2,78.9z"/>
<path class="st4" d="M53,77.8c0.2-0.1,0.4-0.1,0.6-0.1c0.1,0,0.1,0,0.2,0c1.2,0,2.3,0.4,3.2,1.3c0.9,0.9,1.3,2,1.3,3.2
	c0,1.3-0.4,2.4-1.3,3.2c-0.9,0.9-1.9,1.3-3,1.4v0.1h-4.3v0.5h4.6v-0.1c1.3-0.1,2.3-0.6,3.2-1.5c1-1,1.5-2.1,1.5-3.5
	c0-1.4-0.5-2.6-1.5-3.6c-1-1-2.2-1.4-3.5-1.4c-0.2,0-0.4,0-0.7,0.1h-3.6v0.5H53z"/>
<path d="M50.4,11.3c-0.7,0.7-1,1.6-1,2.6c0,1,0.3,1.8,1,2.5l5.1-5c-0.7-0.6-1.5-1-2.4-1C52,10.3,51.1,10.6,50.4,11.3z"/>
<path class="st4" d="M55.5,11.3C55.5,11.3,55.4,11.3,55.5,11.3l-5.1,5c0,0,0.1,0.1,0.1,0.1c0.7,0.7,1.5,1,2.5,1s1.9-0.3,2.6-1
	c0.7-0.7,1-1.5,1-2.6C56.5,12.9,56.2,12,55.5,11.3z"/>
<path class="st0" d="M50.7,16c0.6,0.6,1.4,1,2.2,1c0.8,0,1.6-0.3,2.2-1c0.6-0.6,0.9-1.3,0.9-2.2c0-0.8-0.3-1.6-0.9-2.2
	s-1.3-0.9-2.2-0.9c-0.9,0-1.6,0.3-2.2,0.9c-0.6,0.6-0.9,1.3-0.9,2.2C49.8,14.7,50.1,15.4,50.7,16z"/>
<path class="st2" d="M55.8,13.4h-5.7v0.9h5.7V13.4z"/>
<path d="M159,11.5c-0.7,0.7-1,1.6-1,2.6c0,1,0.3,1.8,1,2.5l5.1-5c-0.7-0.6-1.5-1-2.4-1C160.6,10.4,159.7,10.8,159,11.5z"/>
<path class="st4" d="M164.1,11.5C164.1,11.5,164,11.5,164.1,11.5l-5.1,5c0,0,0.1,0.1,0.1,0.1c0.7,0.7,1.5,1,2.5,1c1,0,1.9-0.3,2.6-1
	c0.7-0.7,1-1.5,1-2.6C165.1,13,164.8,12.2,164.1,11.5z"/>
<path class="st0" d="M159.3,16.2c0.6,0.6,1.4,1,2.2,1c0.8,0,1.6-0.3,2.2-1c0.6-0.6,0.9-1.3,0.9-2.2c0-0.8-0.3-1.6-0.9-2.2
	c-0.6-0.6-1.3-0.9-2.2-0.9c-0.9,0-1.6,0.3-2.2,0.9c-0.6,0.6-0.9,1.3-0.9,2.2C158.4,14.8,158.7,15.6,159.3,16.2z"/>
<path class="st2" d="M164.4,13.6h-5.7v0.9h5.7V13.6z"/>
<g>
	<defs>
		<rect id="SVGID_1_" x="66.6" y="67.3" width="6.9" height="7.8"/>
	</defs>
	<clipPath id="SVGID_2_">
		<use xlink:href="#SVGID_1_"  style="overflow:visible;"/>
	</clipPath>
	<g class="st9">
		<text transform="matrix(1 0 0 1 67.937 72.7558)" class="st10 st11 st12">0</text>
	</g>
</g>
<g>
	<defs>
		<rect id="SVGID_3_" x="70" y="62.7" width="6.9" height="6"/>
	</defs>
	<clipPath id="SVGID_4_">
		<use xlink:href="#SVGID_3_"  style="overflow:visible;"/>
	</clipPath>
	<g class="st13">
		<text transform="matrix(1 0 0 1 71.3173 66.7553)" class="st10 st11 st14">20</text>
	</g>
</g>
<g>
	<defs>
		<rect id="SVGID_5_" x="76.8" y="62.4" width="6.9" height="6"/>
	</defs>
	<clipPath id="SVGID_6_">
		<use xlink:href="#SVGID_5_"  style="overflow:visible;"/>
	</clipPath>
	<g class="st15">
		<text transform="matrix(1 0 0 1 78.1518 66.3794)" class="st10 st11 st14">40</text>
	</g>
</g>
<g>
	<defs>
		<rect id="SVGID_7_" x="80.5" y="67" width="6.9" height="6"/>
	</defs>
	<clipPath id="SVGID_8_">
		<use xlink:href="#SVGID_7_"  style="overflow:visible;"/>
	</clipPath>
	<g class="st16">
		<text transform="matrix(1 0 0 1 81.832 70.9614)" class="st10 st11 st14">60</text>
	</g>
</g>
<g>
	<defs>
		<rect id="SVGID_9_" x="79.6" y="72.2" width="6.9" height="6"/>
	</defs>
	<clipPath id="SVGID_10_">
		<use xlink:href="#SVGID_9_"  style="overflow:visible;"/>
	</clipPath>
	<g class="st17">
		<text transform="matrix(1 0 0 1 81.0058 76.2182)" class="st10 st11 st14">80</text>
	</g>
</g>
<g>
	<defs>
		<rect id="SVGID_11_" x="73" y="77.6" width="7.6" height="6"/>
	</defs>
	<clipPath id="SVGID_12_">
		<use xlink:href="#SVGID_11_"  style="overflow:visible;"/>
	</clipPath>
	<g class="st18">
		<text transform="matrix(1 0 0 1 74.3959 81.6264)" class="st10 st11 st14">100</text>
	</g>
</g>
<g>
	<defs>
		<rect id="SVGID_13_" x="64.8" y="71.9" width="10.9" height="6"/>
	</defs>
	<clipPath id="SVGID_14_">
		<use xlink:href="#SVGID_13_"  style="overflow:visible;"/>
	</clipPath>
	<g class="st19">
		<text transform="matrix(1 0 0 1 66.1347 75.9184)" class="st10 st11 st14">DUCT</text>
	</g>
</g>
<g>
	<defs>
		<rect id="SVGID_15_" x="64.8" y="75.3" width="10.9" height="6"/>
	</defs>
	<clipPath id="SVGID_16_">
		<use xlink:href="#SVGID_15_"  style="overflow:visible;"/>
	</clipPath>
	<g class="st20">
		<text transform="matrix(1 0 0 1 66.1347 79.2978)" class="st10 st11 st14">TEMP</text>
	</g>
</g>
<path class="st21" d="M81.9,78.4l-0.5,0.2l1.2,3.5h0.2l0.4-0.1l0.5-0.5v-0.4L81.9,78.4z"/>
<path id="panel_accp_0_Layer0_0_MEMBER_53_1_STROKES" class="st22" d="M82.6,82.1l-1.2-3.5l0.5-0.2l1.8,2.7c0.6-0.5,1.2-0.9,1.7-1.4
	c2.5-2.6,3.8-5.6,3.8-9.2s-1.3-6.7-3.8-9.2c-2.6-2.6-5.6-3.8-9.2-3.8c-3.6,0-6.7,1.3-9.2,3.8c-2.5,2.5-3.8,5.6-3.8,9.2
	s1.3,6.7,3.8,9.2c2.6,2.6,5.6,3.8,9.2,3.8C78.9,83.5,81,83,82.6,82.1z M82.8,82.1l0.9-0.6v-0.4 M82.8,82.1l-0.2,0.1l-0.1-0.1"/>
<path class="st23" d="M68.4,63.4c-1.8,1.9-2.9,4-3.2,6.5l1.9,0.3c0.2-2.2,1.1-4.1,2.6-5.6c1.8-1.8,4-2.7,6.5-2.7s4.7,0.9,6.5,2.7
	c1.8,1.8,2.7,4,2.7,6.5s-0.9,4.7-2.7,6.5c-0.4,0.4-0.7,0.7-1.1,1l1.2,1.7c0.5-0.4,0.9-0.7,1.3-1.1c2.2-2.2,3.3-4.9,3.3-8
	c0-3.1-1.1-5.7-3.3-7.9c-2.2-2.2-4.8-3.3-7.9-3.3S70.6,61.2,68.4,63.4z"/>
<path class="st24" d="M65.2,70l2,0.2c0-0.6,0.1-1.1,0.2-1.6L65.7,68C65.5,68.6,65.3,69.3,65.2,70 M87.5,71.8h-2
	c-0.2,2.3-1.1,4.2-2.8,5.9c-0.3,0.4-0.7,0.7-1.1,0.9l1.2,1.7c0.5-0.4,0.9-0.7,1.3-1.1C86.3,77.1,87.4,74.7,87.5,71.8z"/>
<path id="panel_accp_0_Layer0_0_MEMBER_53_MEMBER_2_MEMBER_0_1_STROKES" class="st25" d="M77.4,53.4c-0.3,0-0.6,0-0.8,0
	c0.7,0,1.5,0,2.4,0.1L77.4,53.4z M62.3,70.4c0,3.8,1.4,7.1,4.1,9.9c2.7,2.7,6,4.1,9.9,4.1c3.8,0,7.1-1.4,9.9-4.1
	c2.7-2.7,4.1-6,4.1-9.9c0-3.8-1.4-7.1-4.1-9.9c-2.7-2.7-6-4.1-9.9-4.1c-3.9,0-7.2,1.4-9.9,4.1C63.7,63.3,62.3,66.6,62.3,70.4z
	 M65.4,69.7c0.4-2.7,1.6-5,3.7-6.8c2.1-1.8,4.5-2.7,7.3-2.7c3,0,5.6,1.1,7.8,3.2c2.2,2.2,3.2,4.8,3.2,7.8c0,1.7-0.4,3.4-1.2,5
	s-1.9,2.9-3.3,3.9 M78.9,53.5c3.2,0,7.5,0.1,12.8,0.1c0.2,0,0.5,0,0.9,0c0.1,0,0.3,0,0.4,0l0.1,0h0.1l0,0l0.1,0l0.2,0.2l0.1,0.1
	l0.1,0.1l0.1,0.1l0.1,0.1l0,0.1c0,0.2,0.1,0.5,0.2,0.9l0,0.2v0.1l0,0l0,14.3l0,0.2c0,4.6-1.6,8.6-4.9,11.8
	c-3.3,3.3-7.2,4.9-11.8,4.9c-4.6,0-8.6-1.6-11.8-4.9c-3.3-3.3-4.9-7.2-4.9-11.8c0-4.6,1.6-8.6,4.9-11.8c3.1-3.1,6.7-4.7,11-4.9
	 M67.1,70c0.1-1.1,0.5-2.2,1-3.1c0.5-1,1.2-1.9,2.1-2.7c1.7-1.5,3.7-2.3,6.1-2.3c2.6,0,4.7,0.9,6.5,2.7c1.8,1.8,2.7,4,2.7,6.5
	c0,1.5-0.3,2.9-1,4.2c-0.7,1.3-1.7,2.4-2.9,3.3l1.2,3.4"/>
<path id="panel_accp_0_Layer0_0_MEMBER_53_MEMBER_2_MEMBER_0_2_STROKES" class="st26" d="M63.9,69.5l1.5,0.2l1.7,0.3"/>
<path id="panel_accp_0_Layer0_0_MEMBER_53_MEMBER_2_MEMBER_1_1_STROKES" class="st26" d="M65.8,68.2l1.5,0.5 M68.3,66.5l-2-1.2
	 M75.4,61.9l-0.2-2.5 M71.4,63.3L69,59.3 M80.1,63l2.4-4.7 M83.1,65l1.8-1.6 M76.8,83.5l0-2.2 M84.9,68.2l3.1-2 M85.5,71.9h2.2
	 M84.7,75l2.9,2.1"/>
<path id="panel_accp_0_Layer0_0_MEMBER_53_MEMBER_2_MEMBER_2_1_STROKES" class="st25" d="M83,80.4l-0.4,1.3 M82.4,79.4l-0.3,0.7"/>
<path class="st10" d="M77.2,69.1l-4.4-8l1.4,8.9L77.2,69.1z"/>
<path class="st2" d="M77.6,69c-0.7-0.3-1.3-0.3-2-0.1c-0.8,0.3-1.3,0.8-1.6,1.4c-0.4,0.8-0.4,1.5-0.2,2.2c0.3,0.7,0.8,1.2,1.5,1.6
	c0.7,0.3,1.4,0.3,2.1,0c0.8-0.3,1.3-0.7,1.6-1.4c0.4-0.7,0.4-1.4,0.1-2.2C78.8,69.8,78.3,69.3,77.6,69z"/>
<path id="Layer0_6_1_STROKES" class="st27" d="M176.8,119.5h144.3V145H176.8V119.5z"/>
<g>
	<path class="st2" d="M152.4,131.1c0-1.9-0.7-3.6-2.1-5L140,136.4c1.4,1.3,3.1,2,5.1,1.9c2,0.1,3.7-0.6,5.2-2.1
		C151.7,134.9,152.4,133.2,152.4,131.1z"/>
	<path class="st3" d="M150.3,126.1C150.3,126,150.3,126,150.3,126.1c-1.5-1.5-3.2-2.2-5.2-2.2c-2.1,0.1-3.8,0.8-5.2,2.2
		c-1.4,1.4-2.2,3.1-2.2,5.1c0,2.1,0.7,3.8,2.1,5.2c0.1,0.1,0.1,0.1,0.2,0.2L150.3,126.1z"/>
	<path d="M140.6,126.4c-1.2,1.3-1.9,2.8-1.9,4.6c0,1.8,0.6,3.3,1.9,4.5c1.3,1.3,2.8,1.9,4.6,1.9c1.8,0,3.4-0.6,4.6-1.9
		c1.3-1.2,1.9-2.7,1.9-4.5c0-1.8-0.6-3.4-1.9-4.6c-1.3-1.2-2.8-1.9-4.6-1.9C143.4,124.6,141.9,125.2,140.6,126.4z"/>
	<path class="st4" d="M145.2,125.9c-1.4,0-2.7,0.5-3.7,1.5c-1,1-1.5,2.2-1.5,3.6s0.5,2.7,1.5,3.6c1,1,2.3,1.5,3.7,1.5
		s2.7-0.5,3.6-1.5c1-1,1.5-2.2,1.5-3.6s-0.5-2.7-1.5-3.6C147.9,126.4,146.7,125.9,145.2,125.9z"/>
	<path class="st10" d="M145.6,124.7h-0.7l-0.2,5.4h0.7L145.6,124.7z"/>
	<path id="panel_accp_0_Layer0_0_MEMBER_42_MEMBER_0_1_STROKES" class="st26" d="M141.7,122.6c-1.8,0.7-3.2,1.8-4.3,3.4
		c-1.1,1.6-1.6,3.3-1.6,5.2c0,1.9,0.5,3.6,1.6,5.2c1.1,1.6,2.5,2.7,4.3,3.4 M147.4,140c0.1,0,0.3-0.1,0.4-0.1
		c1.8-0.6,3.3-1.6,4.5-3.2c1.2-1.7,1.9-3.5,1.9-5.6c0-2-0.6-3.8-1.7-5.4c-1.2-1.6-2.7-2.7-4.6-3.4"/>
	<path class="st10" d="M148.4,137.9l-1.7,2.3h0l2.9,0.7L148.4,137.9z"/>
	<path class="st10" d="M140.4,141l2.9-0.7h0l-1.7-2.3L140.4,141z"/>
	<text transform="matrix(1 0 0 1 134.3745 145.208)" class="st10 st11 st28">FLT COMP</text>
	<g>
		<text transform="matrix(1 0 0 1 128.6977 121.6631)" class="st10 st11 st28">COOL</text>
		<text transform="matrix(1 0 0 1 148.1816 121.6631)" class="st10 st11 st28">WARM</text>
	</g>
</g>
<g>
	<path class="st2" d="M85.5,131.1c0-1.9-0.7-3.6-2.1-5l-10.3,10.4c1.4,1.3,3.1,2,5.1,1.9c2,0.1,3.7-0.6,5.2-2.1
		C84.8,134.9,85.5,133.2,85.5,131.1z"/>
	<path class="st3" d="M83.4,126.1C83.4,126,83.4,126,83.4,126.1c-1.5-1.5-3.2-2.2-5.2-2.2c-2.1,0.1-3.8,0.8-5.2,2.2
		c-1.4,1.4-2.2,3.1-2.2,5.1c0,2.1,0.7,3.8,2.1,5.2c0.1,0.1,0.1,0.1,0.2,0.2L83.4,126.1z"/>
	<path d="M73.6,126.4c-1.2,1.3-1.9,2.8-1.9,4.6c0,1.8,0.6,3.3,1.9,4.5c1.3,1.3,2.8,1.9,4.6,1.9c1.8,0,3.4-0.6,4.6-1.9
		c1.3-1.2,1.9-2.7,1.9-4.5c0-1.8-0.6-3.4-1.9-4.6c-1.3-1.2-2.8-1.9-4.6-1.9C76.5,124.6,74.9,125.2,73.6,126.4z"/>
	<path class="st4" d="M78.3,125.9c-1.4,0-2.7,0.5-3.7,1.5c-1,1-1.5,2.2-1.5,3.6s0.5,2.7,1.5,3.6c1,1,2.3,1.5,3.7,1.5
		s2.7-0.5,3.6-1.5c1-1,1.5-2.2,1.5-3.6s-0.5-2.7-1.5-3.6C80.9,126.4,79.7,125.9,78.3,125.9z"/>
	<path class="st10" d="M78.7,124.7H78l-0.2,5.4h0.7L78.7,124.7z"/>
	<path id="panel_accp_0_Layer0_0_MEMBER_42_MEMBER_0_1_STROKES_1_" class="st26" d="M74.7,122.6c-1.8,0.7-3.2,1.8-4.3,3.4
		c-1.1,1.6-1.6,3.3-1.6,5.2c0,1.9,0.5,3.6,1.6,5.2c1.1,1.6,2.5,2.7,4.3,3.4 M80.5,140c0.1,0,0.3-0.1,0.4-0.1
		c1.8-0.6,3.3-1.6,4.5-3.2c1.2-1.7,1.9-3.5,1.9-5.6c0-2-0.6-3.8-1.7-5.4c-1.2-1.6-2.7-2.7-4.6-3.4"/>
	<path class="st10" d="M81.5,137.9l-1.7,2.3h0l2.9,0.7L81.5,137.9z"/>
	<path class="st10" d="M73.4,141l2.9-0.7h0l-1.7-2.3L73.4,141z"/>
	<text transform="matrix(1 0 0 1 71.6298 145.208)" class="st10 st11 st28">CABIN</text>
	<g>
		<text transform="matrix(1 0 0 1 61.767 121.6631)" class="st10 st11 st28">COOL</text>
		<text transform="matrix(1 0 0 1 81.2509 121.6631)" class="st10 st11 st28">WARM</text>
	</g>
	<text transform="matrix(1 0 0 1 64.6625 141.0097)" class="st10 st11 st29">F/A</text>
</g>
<text transform="matrix(1 0 0 1 103.8471 106.25)"><tspan x="0" y="0" class="st10 st11 st28">OFF</tspan><tspan x="-0.4" y="4.9" class="st10 st11 st28">MAN</tspan><tspan x="-1.6" y="9.9" class="st10 st11 st28">AUTO</tspan><tspan x="-2.9" y="14.8" class="st10 st11 st28">PACKS</tspan></text>
<text transform="matrix(1 0 0 1 104.9257 147.3232)"><tspan x="0" y="0" class="st10 st11 st28">TEMP</tspan><tspan x="-4.4" y="4.5" class="st10 st11 st28">CONTROL</tspan></text>
<text transform="matrix(1 0 0 1 99.6782 97.3535)" class="st10 st11 st28">GAUGE</text>
<text transform="matrix(1 0 0 1 100.7158 78.2754)" class="st10 st11 st28">CABIN</text>
<g>
	<text transform="matrix(1 0 0 1 120.3832 87.9297)"><tspan x="0" y="0" class="st10 st11 st28">FC</tspan><tspan x="-6.1" y="4.5" class="st10 st11 st28">DUCT</tspan></text>
	<text transform="matrix(1 0 0 1 88.4955 87.9297)"><tspan x="0" y="0" class="st10 st11 st28">CAB</tspan><tspan x="0" y="4.5" class="st10 st11 st28">DUCT</tspan></text>
</g>
<polygon class="st10" points="117.4,75.2 118.5,75.2 117.1,73.2 115.7,75.2 116.8,75.2 116.8,79.5 115.7,79.5 117.1,81.6 
	118.5,79.5 117.4,79.5 "/>
<polygon class="st10" points="94.8,79.3 95.3,78.4 92.9,78.6 94,80.8 94.5,79.8 98.3,81.9 97.8,82.8 100.2,82.6 99.1,80.4 
	98.6,81.3 "/>
<g>
	<g>
		<path class="st2" d="M132.7,60.9c-2,2-3,4.4-3,7.2c0,2.8,1,5.2,3,7.2c2,2,4.4,3,7.2,3c2.8,0,5.2-1,7.2-3c2-2,3-4.4,3-7.2
			c0-2.8-1-5.2-3-7.2c-2-2-4.4-3-7.2-3C137.1,57.9,134.7,58.9,132.7,60.9z"/>
		<path class="st0" d="M136.2,71.1c-0.3-0.7-0.4-1.5-0.4-2.4c0-0.9,0.2-1.8,0.5-2.6l2.1-6.9c-0.5,1-1.3,2.3-2.2,4
			c-1,1.9-1.6,3.6-1.7,4.9c0,2.1,0.8,5,2.4,8.7c0.2,0.3,0.4,0.5,0.6,0.6c0.2,0.1,0.5,0.2,0.7,0.2h1.1c-0.6,0-1.2-0.1-1.7-0.2
			L136.2,71.1 M144.3,72.7c0.6-1.6,0.9-3,1-4.4c-0.5-1.6-1.2-3.4-2.2-5.4c-0.7-1.4-1.3-2.6-1.8-3.5l2,6.7c0.4,0.8,0.5,1.7,0.5,2.6
			c0,0.8-0.2,1.6-0.5,2.4l-1.5,6.3c-0.6,0.1-1.1,0.2-1.7,0.2h1.3c0.2,0,0.4,0,0.5,0c0.6-0.1,0.8-0.5,0.8-1.1
			C143.5,74.9,144,73.6,144.3,72.7z"/>
		<path id="SCHALTER_7_0_Layer0_0_MEMBER_1_1_STROKES" class="st30" d="M141.3,59.4l2,6.7c0.4,0.8,0.5,1.7,0.5,2.6
			c0,0.8-0.2,1.6-0.5,2.4l-1.5,6.3c-0.6,0.1-1.1,0.2-1.7,0.2h-0.8 M138.4,59.2l0.3-1.1c0.3,0,0.7-0.1,1.1-0.1c0.4,0,0.8,0,1.1,0.1
			l0.4,1.3l0,0.1 M138.4,59.2l-2.1,6.9c-0.3,0.8-0.5,1.7-0.5,2.6c0,0.9,0.1,1.7,0.4,2.4l1.5,6.3c0.5,0.1,1.1,0.1,1.7,0.2"/>
		<path class="st10" d="M140.3,58.1h-1v13.1h1V58.1z"/>
	</g>
	<text transform="matrix(1 0 0 1 133.4868 55.5337)" class="st10 st11 st28">NORM</text>
	<g>
		<text transform="matrix(1 0 0 1 148.8896 61.3911)" class="st10 st11 st28">MAX</text>
		<text transform="matrix(1 0 0 1 122.3759 61.3911)" class="st10 st11 st28">MIN</text>
	</g>
	<text transform="matrix(1 0 0 1 132.8998 82.1343)" class="st10 st11 st28">BLEED</text>
</g>
<text transform="matrix(1 0 0 1 84.9726 35.5024)" class="st10 st11 st28">OFF</text>
<text transform="matrix(1 0 0 1 117.0966 44.1943)" class="st10 st11 st28">BLEED</text>
<text transform="matrix(1 0 0 1 67.1757 44.1943)" class="st10 st11 st28">RECIRC</text>
<text transform="matrix(1 0 0 1 82.2006 15.1191)" class="st10 st11 st31">AIR CONDITIONING</text>
<text transform="matrix(1 0 0 1 105.9277 44.1938)" class="st10 st11 st28">1</text>
<text transform="matrix(1 0 0 1 137.4921 44.1943)" class="st10 st11 st28">2</text>
<text transform="matrix(1 0 0 1 118.7905 35.5024)" class="st10 st11 st28">OFF</text>
<g>
	<path class="st2" d="M110.6,30.6c-0.9-1-2.1-1.6-3.4-1.6c-1.4,0-2.6,0.5-3.6,1.6c-0.9,0.9-1.4,2-1.4,3.4c0,1.4,0.5,2.6,1.4,3.6
		c1,0.9,2.2,1.3,3.6,1.3c1.4,0,2.5-0.4,3.4-1.3c1-1,1.5-2.2,1.5-3.6C112.1,32.6,111.6,31.5,110.6,30.6z"/>
	<path class="st3" d="M104.9,31.9c-0.6,0.6-0.9,1.3-0.9,2.2c0,0.9,0.3,1.6,0.9,2.2c0.6,0.6,1.3,0.9,2.2,0.9c0.9,0,1.6-0.3,2.2-0.9
		c0.6-0.6,0.9-1.3,0.9-2.2c0-0.9-0.3-1.6-0.9-2.2c-0.6-0.6-1.3-0.9-2.2-0.9C106.2,31,105.5,31.3,104.9,31.9z"/>
	<path id="SCHALTER_3_0_Layer0_0_1_STROKES_3_" class="st6" d="M106.6,32.2c1.6,0.2,2.5,1.1,2.7,2.9"/>
	<path class="st1" d="M104.5,33.3c-0.2,0.8-0.1,1.5,0.2,2.2c0.4,0.7,0.9,1.1,1.7,1.4c0.4-0.9,0.4-1.7,0.1-2.3
		C106.1,33.8,105.5,33.4,104.5,33.3z"/>
</g>
<g>
	<path class="st2" d="M78.8,30.6c-0.9-1-2.1-1.6-3.4-1.6c-1.4,0-2.6,0.5-3.6,1.6c-0.9,0.9-1.4,2-1.4,3.4c0,1.4,0.5,2.6,1.4,3.6
		c1,0.9,2.2,1.3,3.6,1.3c1.4,0,2.5-0.4,3.4-1.3c1-1,1.5-2.2,1.5-3.6C80.3,32.6,79.8,31.5,78.8,30.6z"/>
	<path class="st3" d="M73.1,31.9c-0.6,0.6-0.9,1.3-0.9,2.2c0,0.9,0.3,1.6,0.9,2.2c0.6,0.6,1.3,0.9,2.2,0.9c0.9,0,1.6-0.3,2.2-0.9
		c0.6-0.6,0.9-1.3,0.9-2.2c0-0.9-0.3-1.6-0.9-2.2c-0.6-0.6-1.3-0.9-2.2-0.9C74.4,31,73.7,31.3,73.1,31.9z"/>
	<path id="SCHALTER_3_0_Layer0_0_1_STROKES_4_" class="st6" d="M74.8,32.2c1.6,0.2,2.5,1.1,2.7,2.9"/>
	<path class="st1" d="M72.7,33.3c-0.2,0.8-0.1,1.5,0.2,2.2c0.4,0.7,0.9,1.1,1.7,1.4c0.4-0.9,0.4-1.7,0.1-2.3
		C74.3,33.8,73.7,33.4,72.7,33.3z"/>
</g>
<text transform="matrix(1 0 0 1 184.3957 136.321)" class="st11 st32">2100-P100 TO P102</text>
</svg>
