<?xml version="1.0" encoding="utf-8"?>
<!-- Generator: Adobe Illustrator 24.2.3, SVG Export Plug-In . SVG Version: 6.00 Build 0)  -->
<svg version="1.1" id="Ebene_1" xmlns="http://www.w3.org/2000/svg" xmlns:xlink="http://www.w3.org/1999/xlink" x="0px" y="0px"
	 viewBox="0 0 349.1 161" style="enable-background:new 0 0 349.1 161;" xml:space="preserve">
<text transform="matrix(1 0 0 1 267.6454 27.0855)" style="font-family:'ArialMT'; font-size:14px;">9811-P168</text>
<path id="Layer0_7_MEMBER_1_1_STROKES" style="fill:none;stroke:#FF9900;stroke-linecap:round;stroke-linejoin:round;" d="M258.6,9
	h84v27.8h-84V9z"/>
<g id="co-pilot-side-panel">
	<path style="fill:#333333;" d="M290.1,131.4L253.1,30.7c-3.9-11.1-11.1-16.8-21.7-17L33.1,12.9c-14.7,0.2-21,8.2-21.4,21.7v95.4
		C11.6,144,18,152,33.1,151.8h243C290.4,151.3,294.4,144.1,290.1,131.4z"/>
	<path style="fill:#666666;" d="M251.2,32c-5.8-12.1-13.1-16.4-21.3-16.5L34.4,14.8c-14.2,0.7-20.4,8.4-21.2,21V128
		c0.1,12.1,4.2,21.4,21.2,21.2H274c12.5,0.1,18.8-6.3,13.8-19.8L251.2,32z"/>
	<path d="M217.2,135.1c-1.3,1.4-2,2.9-2,4.8c0.1,1.8,0.7,3.4,1.8,4.6l9.4-9.4c-1.2-1.2-2.8-1.8-4.5-2
		C220,133.2,218.4,133.9,217.2,135.1z"/>
	<path style="fill:#999999;" d="M226.6,135.2c-0.1-0.1-0.1-0.1-0.2-0.1l-9.4,9.4c0.1,0.1,0.1,0.1,0.2,0.2c1.2,1.2,2.8,1.9,4.7,1.9
		c1.9,0,3.5-0.7,4.8-2c1.2-1.2,1.9-2.8,2-4.8C228.5,138,227.9,136.5,226.6,135.2z"/>
	<path style="fill:#666666;" d="M227.6,139.8c0-1.6-0.6-2.9-1.7-4.1c-1.1-1.1-2.5-1.7-4.1-1.7c-1.6,0-3,0.6-4.1,1.7
		c-1.1,1.1-1.6,2.5-1.6,4.1c0,1.6,0.5,3,1.6,4.1c1.1,1.2,2.5,1.8,4.1,1.8c1.6,0,2.9-0.6,4.1-1.8
		C227.1,142.8,227.6,141.4,227.6,139.8z"/>
	<path style="fill:#333333;" d="M227.2,140.7V139h-10.6v1.7H227.2z"/>
	<path d="M64.7,135.1c-1.3,1.4-2,2.9-2,4.8c0.1,1.8,0.7,3.4,1.8,4.6l9.4-9.4c-1.2-1.2-2.8-1.8-4.5-2C67.6,133.2,66,133.9,64.7,135.1
		z"/>
	<path style="fill:#999999;" d="M74.2,135.2c-0.1-0.1-0.1-0.1-0.2-0.1l-9.4,9.4c0.1,0.1,0.1,0.1,0.2,0.2c1.2,1.2,2.8,1.9,4.7,1.9
		c1.9,0,3.5-0.7,4.8-2c1.2-1.2,1.9-2.8,2-4.8C76.1,138,75.4,136.5,74.2,135.2z"/>
	<path style="fill:#666666;" d="M75.2,139.8c0-1.6-0.6-2.9-1.7-4.1c-1.1-1.1-2.5-1.7-4.1-1.7c-1.6,0-3,0.6-4.1,1.7
		c-1.1,1.1-1.6,2.5-1.6,4.1c0,1.6,0.5,3,1.6,4.1c1.1,1.2,2.5,1.8,4.1,1.8c1.6,0,2.9-0.6,4.1-1.8C74.6,142.8,75.2,141.4,75.2,139.8z"
		/>
	<path style="fill:#333333;" d="M74.7,140.7V139H64.1v1.7H74.7z"/>
	<path d="M258.8,81c-1.3,1.4-2,2.9-2,4.8c0.1,1.8,0.7,3.4,1.8,4.6l9.4-9.4c-1.2-1.2-2.8-1.8-4.5-2C261.6,79.1,260.1,79.8,258.8,81z"
		/>
	<path style="fill:#999999;" d="M268.2,81.1c-0.1-0.1-0.1-0.1-0.2-0.1l-9.4,9.4c0.1,0.1,0.1,0.1,0.2,0.2c1.2,1.2,2.8,1.9,4.7,1.9
		s3.5-0.7,4.8-2c1.2-1.2,1.9-2.8,2-4.8C270.1,83.9,269.5,82.4,268.2,81.1z"/>
	<path style="fill:#666666;" d="M269.3,85.7c0-1.6-0.6-2.9-1.7-4.1c-1.1-1.1-2.5-1.7-4.1-1.7c-1.6,0-3,0.6-4.1,1.7
		c-1.1,1.1-1.6,2.5-1.6,4.1c0,1.6,0.5,3,1.6,4.1c1.1,1.2,2.5,1.8,4.1,1.8c1.6,0,2.9-0.6,4.1-1.8C268.7,88.7,269.3,87.3,269.3,85.7z"
		/>
	<path style="fill:#333333;" d="M268.8,86.7v-1.7h-10.6v1.7H268.8z"/>
	<path d="M15.8,77.4c-1.3,1.4-2,2.9-2,4.8c0.1,1.8,0.7,3.4,1.8,4.6l9.4-9.4c-1.2-1.2-2.8-1.8-4.5-2C18.6,75.5,17.1,76.2,15.8,77.4z"
		/>
	<path style="fill:#999999;" d="M25.2,77.5c-0.1-0.1-0.1-0.1-0.2-0.1l-9.4,9.4c0.1,0.1,0.1,0.1,0.2,0.2c1.2,1.2,2.8,1.9,4.7,1.9
		c1.9,0,3.5-0.7,4.8-2c1.2-1.2,1.9-2.8,2-4.8C27.1,80.3,26.5,78.8,25.2,77.5z"/>
	<path style="fill:#666666;" d="M26.3,82.1c0-1.6-0.6-2.9-1.7-4.1s-2.5-1.7-4.1-1.7c-1.6,0-3,0.6-4.1,1.7c-1.1,1.1-1.6,2.5-1.6,4.1
		c0,1.6,0.5,3,1.6,4.1c1.1,1.2,2.5,1.8,4.1,1.8c1.6,0,2.9-0.6,4.1-1.8C25.7,85.1,26.3,83.7,26.3,82.1z"/>
	<path style="fill:#333333;" d="M25.8,83v-1.7H15.2V83H25.8z"/>
	
		<path id="panel_copilot_side_0_Layer0_0_MEMBER_0_MEMBER_0_MEMBER_5_1_STROKES" style="fill:none;stroke:#000000;stroke-width:0.5;stroke-miterlimit:5;" d="
		M274,92.1l-0.5-0.1h-0.8l-0.2,0.1h-0.3l-5.9,2.1l-1.6,0.3c-1.5,0.2-3,0.1-4.4-0.4c-1.4-0.6-2.6-1.4-3.6-2.6l-0.9-1.2l-0.6-1.5
		l-0.5-3c0.1-1.6,0.5-3,1.3-4.3c0.7-1.3,1.8-2.4,3.2-3.1l1.3-0.7l6.3-2.1l0.3-0.2l0.6-0.4 M211.9,149.2l0.5-0.3l0.7-0.7l0.5-1.4
		v-0.2l0.1-0.1v-6.3c0-1.8,0.5-3.5,1.5-5c1-1.4,2.4-2.5,4.1-3.2l1.5-0.4h3.1l1.5,0.4c1.4,0.5,2.6,1.4,3.6,2.6c1,1.1,1.7,2.5,1.9,4
		l0.2,7.8c0.2,0.8,0.5,1.5,0.9,2l0.8,0.7 M13.5,72.3l0.3,0.4c0.2,0.2,0.5,0.3,0.7,0.5c0.4,0.2,0.8,0.4,1.3,0.5h6.6
		c1.8,0,3.4,0.5,4.9,1.5c1.5,1,2.6,2.4,3.2,4l0.5,3l-0.5,3c-0.6,1.7-1.7,3-3.2,4.1c-1.5,1-3.1,1.5-4.9,1.5h-6.6
		c-0.7,0.1-1.3,0.5-2,1l-0.3,0.3 M59.3,149.2l0.8-0.7c0.4-0.5,0.7-1.1,0.9-1.9v-6.4c0.1-1.6,0.4-3.1,1.1-4.4
		c0.7-1.3,1.8-2.3,3.2-3.1l1.4-0.7l1.5-0.4h3.1c1.4,0.3,2.8,0.9,4,1.9c1.2,1,2.1,2.2,2.6,3.6l0.4,1.5l0.1,7.9l0.1,0.2v0.3l0.3,0.7
		l0.5,0.8l0.9,0.7"/>
	<text transform="matrix(1 0 0 1 51.9629 31.3585)" style="fill:#FFFFFF; font-family:'ArialMT'; font-size:7.0568px;">W/S WIPER </text>
	<text transform="matrix(1 0 0 1 50.9209 39.8605)" style="fill:#FFFFFF; font-family:'ArialMT'; font-size:7.0568px;">ICE DETECT</text>
	<text transform="matrix(1 0 0 1 120.8662 29.6388)" style="fill:#FFFFFF; font-family:'ArialMT'; font-size:7.0568px;">COPILOT’S</text>
	<text transform="matrix(1 0 0 1 125.5576 38.1407)" style="fill:#FFFFFF; font-family:'ArialMT'; font-size:7.0568px;">FLT PNL</text>
	<text transform="matrix(1 0 0 1 180.6533 22.8605)" style="fill:#FFFFFF; font-family:'ArialMT'; font-size:7.0568px;">CIRCUIT</text>
	<text transform="matrix(1 0 0 1 179.4502 31.3605)" style="fill:#FFFFFF; font-family:'ArialMT'; font-size:7.0568px;">BREAKER</text>
	<text transform="matrix(1 0 0 1 181.0547 39.8605)" style="fill:#FFFFFF; font-family:'ArialMT'; font-size:7.0568px;">PNL LTG</text>
	<text transform="matrix(1 0 0 1 40.4497 114.7667)" style="fill:#FFFFFF; font-family:'ArialMT'; font-size:7.0568px;">INPH</text>
	<text transform="matrix(1 0 0 1 85.3862 114.7667)" style="fill:#FFFFFF; font-family:'ArialMT'; font-size:7.0568px;">XMIT</text>
	<text transform="matrix(1 0 0 1 61.334 71.2579)" style="fill:#FFFFFF; font-family:'ArialMT'; font-size:7.0568px;">LIGHT</text>
	<text transform="matrix(1 0 0 1 172.335 55.9523)" style="fill:#FFFFFF; font-family:'ArialMT'; font-size:7.0568px;">OFF</text>
	<path style="fill:#333333;" d="M139.4,64.8c3.4,0,6.3-1.1,8.7-3.5c2.4-2.3,3.5-5.2,3.5-8.7c0-3.2-1.1-6-3.4-8.4l-17.4,17.4
		C133.3,63.7,136.1,64.8,139.4,64.8z"/>
	<path style="fill:#CCCCCC;" d="M148.1,43.9c-2.4-2.3-5.2-3.5-8.7-3.6c-3.4,0.1-6.3,1.3-8.6,3.6c-2.4,2.4-3.6,5.3-3.6,8.6
		c0,3.5,1.2,6.4,3.5,8.7c0.1,0.1,0.1,0.2,0.2,0.2l17.4-17.4C148.2,44,148.2,44,148.1,43.9z"/>
	<path d="M150.5,52.5c0-3-1.1-5.6-3.3-7.8c-2.1-2.1-4.7-3.1-7.7-3.1c-3,0-5.5,1-7.7,3.1c-2.1,2.2-3.1,4.8-3.1,7.8c0,3,1,5.5,3.1,7.6
		c2.2,2.2,4.7,3.3,7.7,3.3c3,0,5.6-1.1,7.7-3.3C149.4,58,150.5,55.5,150.5,52.5z"/>
	<path style="fill:#999999;" d="M133.4,58.7c1.7,1.7,3.8,2.6,6.2,2.6c2.4,0,4.4-0.9,6.1-2.6c1.7-1.7,2.6-3.7,2.6-6.1
		c0-2.4-0.9-4.5-2.6-6.2c-1.7-1.7-3.7-2.5-6.1-2.5c-2.4,0-4.5,0.8-6.2,2.5c-1.7,1.7-2.5,3.8-2.5,6.2C130.9,55,131.7,57,133.4,58.7z"
		/>
	<path d="M136.6,57.5c0-0.5-0.2-0.9-0.5-1.2c-0.3-0.3-0.7-0.5-1.1-0.5c-0.5,0-0.9,0.2-1.2,0.5c-0.3,0.3-0.5,0.7-0.5,1.2
		c0,0.5,0.2,0.8,0.5,1.1c0.3,0.3,0.7,0.5,1.2,0.5c0.5,0,0.8-0.2,1.1-0.5C136.4,58.3,136.6,57.9,136.6,57.5z"/>
	
		<path id="BUTTON_TURN_5_0_Layer0_2_1_STROKES" style="fill:none;stroke:#000000;stroke-width:0.6633;stroke-linecap:round;stroke-linejoin:round;stroke-miterlimit:2.6533;" d="
		M136.1,56.3c0.3,0.3,0.5,0.7,0.5,1.2c0,0.5-0.2,0.8-0.5,1.1c-0.3,0.3-0.7,0.5-1.1,0.5c-0.5,0-0.9-0.2-1.2-0.5
		c-0.3-0.3-0.5-0.7-0.5-1.1c0-0.5,0.2-0.9,0.5-1.2c0.3-0.3,0.7-0.5,1.2-0.5C135.4,55.8,135.8,56,136.1,56.3z"/>
	<path style="fill:#DDDDDC;" d="M73.1,52.7c0,1.4,0.7,2.7,2.1,3.7c1-1.1,1.6-2.3,1.6-3.7c0-1.4-0.5-2.6-1.6-3.7
		C73.8,50.2,73.1,51.4,73.1,52.7z"/>
	<path style="fill:#333333;" d="M79.1,46.6c-1.7-1.9-3.8-2.9-6.3-2.9c-2.5,0-4.7,1-6.5,2.9c-1.7,1.7-2.5,3.7-2.5,6.2
		c0,2.5,0.8,4.7,2.5,6.6c1.8,1.6,4,2.4,6.5,2.4c2.5,0,4.6-0.8,6.3-2.4c1.8-1.9,2.7-4.1,2.7-6.6C81.8,50.3,80.9,48.2,79.1,46.6z"/>
	<path style="fill:#333333;" d="M72.8,46.8c-1.6,0-3,0.6-4.2,1.8c-1.1,1.1-1.7,2.4-1.7,4.1c0,1.6,0.6,3,1.7,4.2
		c1.2,1.1,2.6,1.6,4.2,1.6c1.6,0,3-0.5,4-1.6c1.2-1.2,1.8-2.6,1.8-4.2c0-1.7-0.6-3-1.8-4.1C75.7,47.4,74.4,46.8,72.8,46.8z"/>
	<path style="fill:#CCCCCC;" d="M72.7,58.6c1.6,0,2.9-0.6,4-1.7c1.1-1,1.7-2.4,1.7-4c0-1.6-0.6-2.9-1.7-4c-1.1-1.1-2.4-1.6-4-1.6
		c-1.6,0-2.9,0.5-4,1.6c-1.1,1.1-1.6,2.5-1.6,4c0,1.6,0.5,2.9,1.6,4C69.8,58,71.1,58.6,72.7,58.6z"/>
	
		<path id="SCHALTER_3_0_Layer0_0_1_STROKES" style="fill:none;stroke:#333333;stroke-width:0.7239;stroke-linecap:round;stroke-linejoin:round;stroke-miterlimit:2.8956;" d="
		M71.9,49.4c2.9,0.3,4.5,2.1,5,5.3"/>
	<path style="fill:#DDDDDC;" d="M198.1,52.7c0,1.4,0.7,2.7,2.1,3.7c1-1.1,1.6-2.3,1.6-3.7c0-1.4-0.5-2.6-1.6-3.7
		C198.8,50.2,198.1,51.4,198.1,52.7z"/>
	<path style="fill:#333333;" d="M204.1,46.6c-1.7-1.9-3.8-2.9-6.3-2.9c-2.5,0-4.7,1-6.5,2.9c-1.7,1.7-2.5,3.7-2.5,6.2
		c0,2.5,0.8,4.7,2.5,6.6c1.8,1.6,4,2.4,6.5,2.4c2.5,0,4.6-0.8,6.3-2.4c1.8-1.9,2.7-4.1,2.7-6.6C206.9,50.3,206,48.2,204.1,46.6z"/>
	<path style="fill:#333333;" d="M197.8,46.8c-1.6,0-3,0.6-4.2,1.8c-1.1,1.1-1.7,2.4-1.7,4.1c0,1.6,0.6,3,1.7,4.2
		c1.2,1.1,2.6,1.6,4.2,1.6s3-0.5,4-1.6c1.2-1.2,1.8-2.6,1.8-4.2c0-1.7-0.6-3-1.8-4.1C200.7,47.4,199.4,46.8,197.8,46.8z"/>
	<path style="fill:#CCCCCC;" d="M197.7,58.6c1.6,0,2.9-0.6,4-1.7c1.1-1,1.7-2.4,1.7-4c0-1.6-0.6-2.9-1.7-4c-1.1-1.1-2.4-1.6-4-1.6
		c-1.6,0-2.9,0.5-4,1.6c-1.1,1.1-1.6,2.5-1.6,4c0,1.6,0.5,2.9,1.6,4C194.8,58,196.1,58.6,197.7,58.6z"/>
	
		<path id="SCHALTER_3_0_Layer0_0_1_STROKES_1_" style="fill:none;stroke:#333333;stroke-width:0.7239;stroke-linecap:round;stroke-linejoin:round;stroke-miterlimit:2.8956;" d="
		M196.9,49.4c2.9,0.3,4.5,2.1,5,5.3"/>
	<path style="fill:#333333;" d="M79.2,119.6c1.9-1.9,2.8-4.1,2.8-6.6c0-2.5-0.9-4.6-2.8-6.2c-1.7-1.9-3.8-2.9-6.3-2.9
		c-2.6,0-4.8,1-6.6,2.9c-1.7,1.7-2.5,3.7-2.5,6.2c0,2.5,0.8,4.7,2.5,6.6c1.9,1.7,4.1,2.5,6.6,2.5C75.3,122.1,77.4,121.2,79.2,119.6z
		"/>
	<path style="fill:#333333;" d="M66.9,112.9c0,1.6,0.5,3,1.6,4.3c1.2,1.1,2.7,1.6,4.3,1.6c1.6,0,2.9-0.5,4-1.6
		c1.3-1.3,1.9-2.7,1.9-4.3c0-1.7-0.6-3-1.9-4.1c-1.1-1.2-2.4-1.8-4-1.8c-1.7,0-3.1,0.6-4.3,1.8C67.4,109.9,66.9,111.3,66.9,112.9z"
		/>
	<path style="fill:#999999;" d="M69.7,105.3v15h5.5v-15H69.7z"/>
	<text transform="matrix(1 0 0 1 120.9497 73.5802)" style="fill:#FFFFFF; font-family:'ArialMT'; font-size:7.0568px;">OFF  BRT</text>
</g>
</svg>
