<?xml version="1.0" encoding="utf-8"?>
<!-- Generator: Adobe Illustrator 24.2.1, SVG Export Plug-In . SVG Version: 6.00 Build 0)  -->
<svg version="1.1" id="Ebene_1" xmlns="http://www.w3.org/2000/svg" xmlns:xlink="http://www.w3.org/1999/xlink" x="0px" y="0px"
	 viewBox="0 0 349.1 161" style="enable-background:new 0 0 349.1 161;" xml:space="preserve">
<style type="text/css">
	.st0{fill:#666666;}
	.st1{fill:none;stroke:#333333;stroke-linecap:round;stroke-linejoin:round;}
	.st2{fill:#DDDDDC;}
	.st3{fill:#333333;}
	.st4{fill:#CCCCCC;}
	.st5{fill:none;stroke:#333333;stroke-width:1.7644;stroke-linecap:round;stroke-linejoin:round;stroke-miterlimit:7.0576;}
	.st6{fill:#FFFFFF;}
	.st7{font-family:'ArialMT';}
	.st8{font-size:10.5873px;}
	.st9{fill:none;stroke:#000000;stroke-linecap:round;stroke-linejoin:round;}
	.st10{fill:#999999;}
	.st11{fill:none;stroke:#000000;stroke-width:1.0568;stroke-linecap:round;stroke-linejoin:round;stroke-miterlimit:16.9082;}
	.st12{fill:#FFFF00;}
	.st13{font-size:7.4408px;}
	.st14{font-size:8.8041px;}
	.st15{font-size:11.4457px;}
	.st16{fill:none;stroke:#FF9900;stroke-linecap:round;stroke-linejoin:round;}
	.st17{font-size:14px;}
</style>
<path class="st0" d="M73.3,121.7h191V8.4h-191V121.7z"/>
<path d="M175.6,92.6V40.6h-65.5v52.1H175.6z"/>
<path id="Layer1_3_1_STROKES" class="st1" d="M175.6,92.6h-65.5V40.6h65.5V92.6z"/>
<path class="st0" d="M199.8,49.1c-2.6,0-4.8,1.9-6.6,5.6c-1.8,3.8-2.7,8.3-2.7,13.7c0,5.4,0.9,9.9,2.7,13.7c1.8,3.8,4,5.6,6.6,5.6
	c2.5,0,4.7-1.9,6.5-5.6c1.8-3.8,2.8-8.3,2.8-13.7c0-5.4-0.9-9.9-2.8-13.7C204.5,51,202.3,49.1,199.8,49.1z"/>
<path id="Layer1_3_MEMBER_0_1_STROKES" class="st1" d="M206.3,54.7c1.8,3.8,2.8,8.3,2.8,13.7c0,5.4-0.9,9.9-2.8,13.7
	c-1.8,3.8-4,5.6-6.5,5.6c-2.6,0-4.8-1.9-6.6-5.6c-1.8-3.8-2.7-8.3-2.7-13.7c0-5.4,0.9-9.9,2.7-13.7c1.8-3.8,4-5.6,6.6-5.6
	C202.3,49.1,204.5,51,206.3,54.7z"/>
<path class="st2" d="M203.1,73.6c1.5-1.5,2.2-3.3,2.2-5.3c0-1.9-0.7-3.7-2.2-5.2c-2,1.5-3,3.3-3,5.2C200.1,70.3,201.1,72,203.1,73.6
	z"/>
<path class="st3" d="M208.7,59.5c-2.4-2.7-5.4-4.1-8.9-4.1c-3.6,0-6.7,1.4-9.3,4.1c-2.4,2.4-3.5,5.3-3.5,8.7c0,3.5,1.2,6.6,3.5,9.4
	c2.6,2.3,5.7,3.4,9.3,3.4c3.5,0,6.5-1.1,8.9-3.4c2.6-2.7,3.9-5.8,3.9-9.4C212.5,64.8,211.2,61.9,208.7,59.5z"/>
<path class="st3" d="M193.7,74.3c1.7,1.5,3.7,2.3,6,2.3s4.2-0.8,5.7-2.3c1.7-1.7,2.6-3.7,2.6-6c0-2.4-0.9-4.3-2.6-5.8
	c-1.5-1.7-3.4-2.6-5.7-2.6s-4.3,0.9-6,2.6c-1.6,1.5-2.4,3.5-2.4,5.8C191.3,70.6,192.1,72.6,193.7,74.3z"/>
<path class="st4" d="M193.8,62.8c-1.5,1.6-2.3,3.5-2.3,5.7c0,2.3,0.8,4.2,2.3,5.6c1.6,1.6,3.5,2.4,5.7,2.4c2.2,0,4.1-0.8,5.6-2.4
	c1.6-1.5,2.4-3.4,2.4-5.6c0-2.2-0.8-4.1-2.4-5.7c-1.5-1.5-3.4-2.3-5.6-2.3C197.3,60.5,195.4,61.3,193.8,62.8z"/>
<path id="SCHALTER_3_0_Layer0_0_1_STROKES" class="st5" d="M198.4,63.5c4.1,0.5,6.4,3,7.1,7.5"/>
<path class="st6" d="M131.1,27v-1.1h-25.3V27H131.1z"/>
<path class="st6" d="M208.3,25.9V27h25.3v-1.1H208.3z"/>
<path class="st6" d="M233.6,41.1V25.9h-1.1v15.2H233.6z"/>
<path class="st6" d="M105.8,41.1h1.1V25.9h-1.1V41.1z"/>
<g>
	<text transform="matrix(1 0 0 1 181.3123 46.7766)" class="st6 st7 st8">FLIGHT</text>
</g>
<g>
	<text transform="matrix(1 0 0 1 139.8622 30.5266)" class="st6 st7 st8">SPOILERS</text>
</g>
<path class="st3" d="M174.7,91.3V43.5H111v47.8H174.7z"/>
<path id="Layer1_3_MEMBER_8_1_STROKES" class="st9" d="M174.7,91.3H111V43.5h63.7V91.3z"/>
<path class="st10" d="M173.2,46.9c0-1.4-0.7-2.1-2.1-2.1h-56c-1.4,0-2.1,0.7-2.1,2.1v16.9c0,1.4,0.7,2.1,2.1,2.1h56
	c1.4,0,2.1-0.7,2.1-2.1V46.9z"/>
<path id="BUTTON_7_0_Layer0_0_1_STROKES" class="st11" d="M173.2,46.9c0-1.4-0.7-2.1-2.1-2.1h-56c-1.4,0-2.1,0.7-2.1,2.1v16.9
	c0,1.4,0.7,2.1,2.1,2.1h56c1.4,0,2.1-0.7,2.1-2.1V46.9z"/>
<path class="st3" d="M170.5,46.9h-55v16.3h55V46.9z"/>
<path id="BUTTON_7_0_Layer0_0_MEMBER_0_1_STROKES" class="st11" d="M115.5,46.9h55v16.3h-55V46.9z"/>
<path class="st10" d="M173.2,70.6c0-1.4-0.7-2.1-2.1-2.1h-56c-1.4,0-2.1,0.7-2.1,2.1v16.9c0,1.4,0.7,2.1,2.1,2.1h56
	c1.4,0,2.1-0.7,2.1-2.1V70.6z"/>
<path id="BUTTON_7_0_Layer0_0_1_STROKES_1_" class="st11" d="M173.2,70.6c0-1.4-0.7-2.1-2.1-2.1h-56c-1.4,0-2.1,0.7-2.1,2.1v16.9
	c0,1.4,0.7,2.1,2.1,2.1h56c1.4,0,2.1-0.7,2.1-2.1V70.6z"/>
<path class="st3" d="M170.5,70.6h-55v16.3h55V70.6z"/>
<path id="BUTTON_7_0_Layer0_0_MEMBER_0_1_STROKES_1_" class="st11" d="M115.5,70.6h55v16.3h-55V70.6z"/>
<g>
	<text transform="matrix(1.0838 0 0 1 117.3291 57.4733)" class="st12 st7 st13">ROLL OUTBD</text>
</g>
<g>
	<text transform="matrix(1 0 0 1 119.5912 81.6429)" class="st12 st7 st14">ROLL INBD</text>
</g>
<g>
	<text transform="matrix(1 0 0 1 186.3123 105.2351)" class="st6 st7 st15">TAXI</text>
</g>
<path id="Layer1_4_1_STROKES" class="st16" d="M87.9,124.8h152.2v25.5H87.9V124.8z"/>
<g>
	<text transform="matrix(1 0 0 1 97.4916 143.4219)" class="st7 st17">9811-P165 AND P177 </text>
</g>
</svg>
