<?xml version="1.0" encoding="utf-8"?>
<!-- Generator: Adobe Illustrator 24.2.3, SVG Export Plug-In . SVG Version: 6.00 Build 0)  -->
<svg version="1.1" id="Ebene_1" xmlns="http://www.w3.org/2000/svg" xmlns:xlink="http://www.w3.org/1999/xlink" x="0px" y="0px"
	 viewBox="0 0 349.1 161" style="enable-background:new 0 0 349.1 161;" xml:space="preserve">
<g id="sp-rtip">
	<path d="M320.4,114.7c6.8,0,10.2-3.5,10.2-10.6V31.7H20.5v72.4c0,7.1,3.4,10.6,10.2,10.6H320.4z"/>
	<path style="fill:#666666;" d="M316.9,109.8c6.6,0,9.9-3.3,9.9-9.9V32.5H25.2V100c0,6.6,3.3,9.9,9.9,9.9H316.9z"/>
	<path d="M46.2,54.2v40.3l122-40.3H46.2z"/>
	<path style="fill:#666666;" d="M168.2,94.6V54.2l-122,40.3H168.2z"/>
	<path style="fill:#333333;" d="M166.6,93V55.4H48.2V93H166.6z"/>
	<path style="fill:#707173;" d="M159.8,58.5h-25.5c-1.2,0-2.2,0.5-3.1,1.6c-0.9,1.1-1.3,2.4-1.3,3.9v22.1l34.3-22.1
		c0-1.5-0.4-2.8-1.3-3.9C162,59.1,161,58.5,159.8,58.5z"/>
	<path style="fill:#1A181B;" d="M129.9,85.7c0,1.5,0.4,2.8,1.3,3.7c0.9,1.1,1.9,1.6,3.1,1.6h25.5c1.2,0,2.2-0.5,3.1-1.6
		c0.9-1,1.3-2.2,1.3-3.7V63.4L129.9,85.7z"/>
	<path style="fill:#3E3E40;" d="M158.6,59.4h-23.1c-1.1,0-2,0.5-2.8,1.5c-0.8,0.9-1.1,2-1.1,3.4v20.2c0,1.4,0.4,2.5,1.1,3.4
		c0.8,1,1.7,1.5,2.8,1.5h23.1c1.2,0,2.2-0.5,2.9-1.5c0.8-0.9,1.1-2,1.1-3.4V64.3c0-1.4-0.4-2.5-1.1-3.4
		C160.7,59.9,159.7,59.4,158.6,59.4z"/>
	<path style="fill:#707173;" d="M120.5,58.8H95c-1.2,0-2.2,0.5-3.1,1.6c-0.9,1.1-1.3,2.4-1.3,3.9v22.1l34.3-22.1
		c0-1.5-0.4-2.8-1.3-3.9C122.8,59.3,121.7,58.8,120.5,58.8z"/>
	<path style="fill:#1A181B;" d="M90.6,86c0,1.5,0.4,2.8,1.3,3.7c0.9,1.1,1.9,1.6,3.1,1.6h25.5c1.2,0,2.2-0.5,3.1-1.6
		c0.9-1,1.3-2.2,1.3-3.7V63.7L90.6,86z"/>
	<path style="fill:#3E3E40;" d="M118.5,59.4H95.3c-1.1,0-2,0.5-2.8,1.5c-0.8,0.9-1.1,2-1.1,3.4v20.2c0,1.4,0.4,2.5,1.1,3.4
		c0.8,1,1.7,1.5,2.8,1.5h23.1c1.2,0,2.2-0.5,2.9-1.5c0.8-0.9,1.1-2,1.1-3.4V64.3c0-1.4-0.4-2.5-1.1-3.4
		C120.6,59.9,119.6,59.4,118.5,59.4z"/>
	<path style="fill:#707173;" d="M81,58.8H55.5c-1.2,0-2.2,0.5-3.1,1.6c-0.9,1.1-1.3,2.4-1.3,3.9v22.1l34.3-22.1
		c0-1.5-0.4-2.8-1.3-3.9C83.3,59.3,82.2,58.8,81,58.8z"/>
	<path style="fill:#1A181B;" d="M51.1,86c0,1.5,0.4,2.8,1.3,3.7c0.9,1.1,1.9,1.6,3.1,1.6H81c1.2,0,2.2-0.5,3.1-1.6
		c0.9-1,1.3-2.2,1.3-3.7V63.7L51.1,86z"/>
	<path style="fill:#3E3E40;" d="M79.1,59.4H55.9c-1.1,0-2,0.5-2.8,1.5c-0.8,0.9-1.1,2-1.1,3.4v20.2c0,1.4,0.4,2.5,1.1,3.4
		c0.8,1,1.7,1.5,2.8,1.5h23.1c1.2,0,2.2-0.5,2.9-1.5c0.8-0.9,1.1-2,1.1-3.4V64.3c0-1.4-0.4-2.5-1.1-3.4
		C81.2,59.9,80.3,59.4,79.1,59.4z"/>
	<g>
		<text transform="matrix(1 0 0 1 46.6182 45.3214)" style="fill:#FFFFFF; font-family:'ArialMT'; font-size:7.3919px;">RETARDANT TANK INDICATORS</text>
	</g>
	<g>
		<defs>
			<rect id="SVGID_1_" x="57.3" y="94.5" width="17.6" height="12.6"/>
		</defs>
		<clipPath id="SVGID_2_">
			<use xlink:href="#SVGID_1_"  style="overflow:visible;"/>
		</clipPath>
		<g style="clip-path:url(#SVGID_2_);enable-background:new    ;">
			<text transform="matrix(1 0 0 1 59.1065 103.7452)" style="fill:#FFFFFF; font-family:'ArialMT'; font-size:7.3919px;">PTT</text>
		</g>
	</g>
	<path style="fill:#3E3E40;" d="M218.7,48.9v44.2c0,1.8,0.9,2.6,2.7,2.6H295c1.7,0,2.6-0.9,2.6-2.6V48.9c0-1.7-0.9-2.6-2.6-2.6
		h-73.6C219.6,46.3,218.7,47.2,218.7,48.9z"/>
	<path id="Layer1_0_MEMBER_4_MEMBER_0_1_STROKES" style="fill:none;stroke:#000000;stroke-width:0.5;stroke-linejoin:round;" d="
		M218.7,93.1V48.9c0-1.7,0.9-2.6,2.7-2.6H295c1.7,0,2.6,0.9,2.6,2.6v44.2c0,1.8-0.9,2.6-2.6,2.6h-73.6
		C219.6,95.8,218.7,94.9,218.7,93.1z"/>
	<path style="fill:#CC0066;" d="M291.8,89.2V52.1l-66.4,37.1c0,1.5,0.7,2.2,2.2,2.2h62C291,91.5,291.8,90.7,291.8,89.2z"/>
	<path style="fill:#FF3300;" d="M225.4,52.1v37.1l66.4-37.1c0-1.5-0.7-2.2-2.2-2.2h-62C226.1,49.8,225.4,50.6,225.4,52.1z"/>
	<path style="fill:#FF0000;" d="M287.9,90.4c1.4,0,2.1-0.7,2.1-2.1V53.7c0-1.4-0.7-2-2.1-2h-57.8c-1.4,0-2.1,0.7-2.1,2v34.7
		c0,1.4,0.7,2.1,2.1,2.1H287.9z"/>
	<g>
		<text transform="matrix(1 0 0 1 230.7784 68.673)" style="fill:#FFFFFF; font-family:'ArialMT'; font-size:8.17px;">EMERGENCY</text>
		<text transform="matrix(1 0 0 1 244.3565 78.5265)" style="fill:#FFFFFF; font-family:'ArialMT'; font-size:8.17px;">DROP</text>
	</g>
	<path style="fill:#FFFF00;" d="M246.8,104.9l8.2-6.7h-13.5l-8.2,6.7H246.8 M263.9,98.2l-8.2,6.7h13.4l8.3-6.7H263.9 M211,104.9
		h13.5l8.2-6.7h-13.4L211,104.9 M207.5,64.4l9.4-7.7V45.8l-9.4,7.7V64.4 M216.9,82l-9.4,7.6v10.9l9.4-7.6V82 M207.5,82.5l9.4-7.7
		V63.8l-9.4,7.7V82.5 M218,37.8h-10.5v8.5L218,37.8 M285,37.8h-13.5l-8.2,6.7h13.4L285,37.8 M293.8,37.8l-8.3,6.7H299l8.2-6.7H293.8
		 M232.1,44.5l8.2-6.7h-13.4l-8.3,6.7H232.1 M249.2,37.8l-8.2,6.7h13.5l8.2-6.7H249.2 M308.9,54.6V43.6l-9.4,7.7v10.9L308.9,54.6
		 M308.9,104.9v-7l-8.6,7H308.9 M308.9,90.8v-11l-9.4,7.6v10.8h-13.2l-8.2,6.7h13.4L308.9,90.8 M308.9,72.6V61.7l-9.4,7.7v10.9
		L308.9,72.6z"/>
	<path d="M36.9,78.8c1.9,0,3.5-0.7,4.8-2c1.3-1.3,2-2.9,2-4.8c0-1.9-0.7-3.5-2-4.8c-1.3-1.3-2.9-2-4.8-2c-1.9,0-3.5,0.7-4.8,2
		c-1.3,1.3-2,2.9-2,4.8c0,1.9,0.7,3.5,2,4.8C33.5,78.1,35.1,78.8,36.9,78.8z"/>
	
		<path id="Layer1_0_MEMBER_6_MEMBER_0_MEMBER_0_1_STROKES" style="fill:none;stroke:#000000;stroke-width:0.5;stroke-linejoin:round;" d="
		M41.8,76.8c-1.3,1.4-2.9,2-4.8,2c-1.9,0-3.5-0.7-4.8-2c-1.3-1.3-2-2.9-2-4.8c0-1.9,0.7-3.5,2-4.8c1.4-1.3,3-2,4.8-2
		c1.9,0,3.5,0.7,4.8,2c1.3,1.3,2,2.9,2,4.8C43.8,73.9,43.1,75.5,41.8,76.8z"/>
	<path id="Layer1_0_MEMBER_6_MEMBER_1_1_STROKES" style="fill:none;stroke:#333333;stroke-width:0.5;stroke-miterlimit:5;" d="
		M38.1,65.6v1.6c0.1,0.8,0.5,1.6,1,2.3c0.6,0.7,1.4,1,2.3,1h1.6v2.2h-1.6c-0.9,0.1-1.7,0.5-2.2,1c-0.7,0.7-1.1,1.5-1.2,2.4v1.6h-2.2
		v-1.6c-0.1-0.9-0.5-1.7-1-2.4c-0.7-0.6-1.5-0.9-2.4-1h-1.6v-2.2h1.6c2-0.4,3.2-1.5,3.5-3.4v-1.6H38.1z"/>
	<path d="M319.7,67.1c-1.3-1.3-2.9-2-4.8-2c-1.9,0-3.5,0.7-4.8,2c-1.3,1.3-2,2.9-2,4.8c0,1.9,0.7,3.5,2,4.8c1.4,1.4,3,2,4.8,2
		c1.9,0,3.5-0.7,4.8-2c1.3-1.3,2-2.9,2-4.8C321.7,70.1,321,68.5,319.7,67.1z"/>
	
		<path id="Layer1_0_MEMBER_7_MEMBER_0_MEMBER_0_1_STROKES" style="fill:none;stroke:#000000;stroke-width:0.5;stroke-linejoin:round;" d="
		M314.8,65.1c1.9,0,3.5,0.7,4.8,2c1.3,1.3,2,2.9,2,4.8c0,1.9-0.7,3.5-2,4.8c-1.3,1.4-2.9,2-4.8,2c-1.9,0-3.5-0.7-4.8-2
		c-1.3-1.3-2-2.9-2-4.8c0-1.9,0.7-3.5,2-4.8C311.3,65.8,312.9,65.1,314.8,65.1z"/>
	<path id="Layer1_0_MEMBER_7_MEMBER_1_1_STROKES" style="fill:none;stroke:#333333;stroke-width:0.5;stroke-miterlimit:5;" d="
		M316,65.6v1.6c0.2,0.8,0.5,1.6,1,2.3c0.6,0.7,1.4,1,2.4,1h1.6v2.2h-1.6c-1,0.1-1.7,0.5-2.2,1c-0.6,0.7-1,1.5-1.2,2.4v1.6h-2.2v-1.6
		c-0.1-0.9-0.5-1.7-1-2.4c-0.7-0.6-1.5-0.9-2.5-1h-1.6v-2.2h1.6c2-0.4,3.2-1.5,3.5-3.4v-1.6H316z"/>
	<path d="M45.8,54v41l124-41H45.8z"/>
	<path style="fill:#525352;" d="M169.8,95V54l-124,41H169.8z"/>
	<path style="fill:#333333;" d="M168.1,93.4V55.3H47.8v38.1H168.1z"/>
	<path style="fill:#707173;" d="M161,58.5h-25.9c-1.2,0-2.3,0.6-3.1,1.7c-0.9,1.1-1.3,2.4-1.3,4v22.5l34.9-22.5c0-1.5-0.4-2.9-1.3-4
		C163.3,59.1,162.2,58.5,161,58.5z"/>
	<path style="fill:#1A181B;" d="M130.6,86.1c0,1.5,0.4,2.8,1.3,3.8c0.9,1.1,1.9,1.7,3.1,1.7H161c1.2,0,2.3-0.6,3.1-1.7
		c0.9-1,1.3-2.3,1.3-3.8V63.5L130.6,86.1z"/>
	<path style="fill:#3E3E40;" d="M159.7,59.6h-23.5c-1.1,0-2,0.5-2.8,1.5c-0.8,0.9-1.2,2-1.2,3.5V85c0,1.4,0.4,2.6,1.2,3.5
		c0.8,1,1.7,1.5,2.8,1.5h23.5c1.2,0,2.2-0.5,3-1.5c0.8-0.9,1.2-2,1.2-3.5V64.5c0-1.4-0.4-2.6-1.2-3.5
		C161.9,60.1,161,59.6,159.7,59.6z"/>
	<path style="fill:#707173;" d="M120.5,58.5H94.6c-1.2,0-2.3,0.6-3.1,1.7c-0.9,1.1-1.3,2.4-1.3,4v22.5L125,64.1c0-1.5-0.4-2.9-1.3-4
		C122.8,59,121.7,58.5,120.5,58.5z"/>
	<path style="fill:#1A181B;" d="M90.1,86.1c0,1.5,0.4,2.8,1.3,3.8c0.9,1.1,1.9,1.7,3.1,1.7h25.9c1.2,0,2.3-0.6,3.1-1.7
		c0.9-1,1.3-2.3,1.3-3.8V63.4L90.1,86.1z"/>
	<path style="fill:#3E3E40;" d="M119.3,59.6H95.8c-1.1,0-2,0.5-2.8,1.5c-0.8,0.9-1.2,2-1.2,3.5V85c0,1.4,0.4,2.6,1.2,3.5
		c0.8,1,1.7,1.5,2.8,1.5h23.5c1.2,0,2.2-0.5,3-1.5c0.8-0.9,1.2-2,1.2-3.5V64.5c0-1.4-0.4-2.6-1.2-3.5
		C121.5,60.1,120.5,59.6,119.3,59.6z"/>
	<path style="fill:#707173;" d="M80.8,58.5H54.9c-1.2,0-2.3,0.6-3.1,1.7c-0.9,1.1-1.3,2.4-1.3,4v22.5l34.9-22.5c0-1.5-0.4-2.9-1.3-4
		C83.1,59,82,58.5,80.8,58.5z"/>
	<path style="fill:#1A181B;" d="M50.4,86.1c0,1.5,0.4,2.8,1.3,3.8c0.9,1.1,1.9,1.7,3.1,1.7h25.9c1.2,0,2.3-0.6,3.1-1.7
		c0.9-1,1.3-2.3,1.3-3.8V63.4L50.4,86.1z"/>
	<path style="fill:#3E3E40;" d="M78.9,59.6H55.4c-1.1,0-2,0.5-2.8,1.5c-0.8,0.9-1.2,2-1.2,3.5V85c0,1.4,0.4,2.6,1.2,3.5
		c0.8,1,1.7,1.5,2.8,1.5h23.5c1.2,0,2.2-0.5,3-1.5c0.8-0.9,1.2-2,1.2-3.5V64.5c0-1.4-0.4-2.6-1.2-3.5C81.1,60.1,80.1,59.6,78.9,59.6
		z"/>
	<g>
		<text transform="matrix(1 0 0 1 96.9532 82.0079)" style="fill:#FF9900; font-family:'ArialMT'; font-size:7.2241px;">DOOR</text>
	</g>
	<g>
		<text transform="matrix(1 0 0 1 97.5547 88.3468)" style="fill:#FF9900; font-family:'ArialMT'; font-size:7.2241px;">OPEN</text>
	</g>
	<g>
		<text transform="matrix(1 0 0 1 94.752 70.5206)" style="fill:#33FF00; font-family:'ArialMT'; font-size:7.2241px;">ARMED</text>
	</g>
	<path style="fill:#FFFFFF;" d="M122.3,75.2v-0.6H92.4v0.6H122.3z"/>
	<g>
		<text transform="matrix(1 0 0 1 57.1983 88.3468)" style="fill:#FF9900; font-family:'ArialMT'; font-size:7.2241px;">ELEC</text>
	</g>
	<g>
		<text transform="matrix(1 0 0 1 52.6514 82.0079)" style="fill:#FF9900; font-family:'ArialMT'; font-size:7.2241px;">E-DROP</text>
	</g>
	<g>
		<text transform="matrix(1 0 0 1 51.7803 67.0284)" style="fill:#FF9900; font-family:'ArialMT'; font-size:7.2241px;">SYSTEM</text>
	</g>
	<g>
		<text transform="matrix(1 0 0 1 58.4082 73.1193)" style="fill:#FF9900; font-family:'ArialMT'; font-size:7.2241px;">LOW</text>
	</g>
	<path style="fill:#FFFFFF;" d="M53,74.4V75h29.9v-0.6H53z"/>
	<g>
		<text transform="matrix(1 0 0 1 134.5928 82.0079)" style="fill:#FF9900; font-family:'ArialMT'; font-size:7.2241px;">E-DROP</text>
	</g>
	<g>
		<text transform="matrix(1 0 0 1 140.3457 88.3468)" style="fill:#FF9900; font-family:'ArialMT'; font-size:7.2241px;">LOW</text>
	</g>
	<g>
		<text transform="matrix(1 0 0 1 141.2774 73.1193)" style="fill:#FF9900; font-family:'ArialMT'; font-size:7.2241px;">FAIL</text>
	</g>
	<g>
		<text transform="matrix(1 0 0 1 133.7227 67.0284)" style="fill:#FF9900; font-family:'ArialMT'; font-size:7.2241px;">SYSTEM</text>
	</g>
	<path style="fill:#FFFFFF;" d="M163.4,75.2v-0.6h-29.9v0.6H163.4z"/>
</g>
</svg>
