<?xml version="1.0" encoding="utf-8"?>
<!-- Generator: Adobe Illustrator 24.3.0, SVG Export Plug-In . SVG Version: 6.00 Build 0)  -->
<svg version="1.1" id="Ebene_1" xmlns="http://www.w3.org/2000/svg" xmlns:xlink="http://www.w3.org/1999/xlink" x="0px" y="0px"
	 viewBox="0 0 270 227" style="enable-background:new 0 0 270 227;" xml:space="preserve">
<style type="text/css">
	.st0{fill:none;stroke:#2D2C2E;stroke-width:0.5;stroke-miterlimit:5;}
	.st1{fill:none;stroke:#2D2C2E;stroke-width:0.5;stroke-miterlimit:59.9994;}
	.st2{fill:#2D2C2E;}
	.st3{fill:none;stroke:#FF0000;stroke-width:0.25;stroke-miterlimit:5;}
	.st4{fill:#FF0000;}
</style>
<path id="Layer0_0_MEMBER_0_MEMBER_0_1_STROKES" class="st0" d="M234.1,152.3l0.1,0.7"/>
<path id="Layer0_0_MEMBER_0_MEMBER_1_1_STROKES" class="st0" d="M234.3,152.3l-0.1-0.7"/>
<path id="Layer0_0_MEMBER_0_MEMBER_2_1_STROKES" class="st0" d="M234.3,152.3l-0.1-0.6"/>
<path id="Layer0_0_MEMBER_0_MEMBER_3_1_STROKES" class="st0" d="M234.8,148.5l-0.7-0.4"/>
<path id="Layer0_0_MEMBER_0_MEMBER_4_1_STROKES" class="st0" d="M235.7,148.4v0.9"/>
<path id="Layer0_0_MEMBER_0_MEMBER_5_1_STROKES" class="st0" d="M234,151.2l-0.4-0.3"/>
<path id="Layer0_0_MEMBER_0_MEMBER_6_1_STROKES" class="st0" d="M233.8,150.7l-0.4,0.3"/>
<path id="Layer0_0_MEMBER_0_MEMBER_7_1_STROKES" class="st0" d="M233.2,148.6l0.8,0.4"/>
<path id="Layer0_0_MEMBER_0_MEMBER_8_1_STROKES" class="st0" d="M234.2,147.3v0.2h-0.1v0.1h-0.4v-0.1l-0.1-0.1h0.1v-0.1H234.2z"/>
<path id="Layer0_0_MEMBER_0_MEMBER_9_1_STROKES" class="st0" d="M234.3,151.3v0.2h-0.7"/>
<path id="Layer0_0_MEMBER_0_MEMBER_10_1_STROKES" class="st0" d="M91.6,184.9c0.6-0.4,0.9-0.9,0.9-1.7l-0.1-0.6"/>
<path id="Layer0_0_MEMBER_0_MEMBER_11_1_STROKES" class="st0" d="M88,179.9l-0.4,0.7v0.2l-0.1,0.1v0.2l-0.1,0.1v0.8"/>
<path id="Layer0_0_MEMBER_0_MEMBER_12_1_STROKES" class="st0" d="M92.5,182.7l-0.2-1.1l-0.9-2.8"/>
<path id="Layer0_0_MEMBER_0_MEMBER_13_1_STROKES" class="st0" d="M88.3,185.1l-0.9-3.1"/>
<path id="Layer0_0_MEMBER_0_MEMBER_14_1_STROKES" class="st0" d="M89.5,186.1l0.7-0.2l0.7-0.3l0.9-0.7"/>
<path id="Layer0_0_MEMBER_0_MEMBER_15_1_STROKES" class="st0" d="M90.2,178.6l-0.7,0.2l-0.6,0.3l-0.6,0.4"/>
<path id="Layer0_0_MEMBER_0_MEMBER_16_1_STROKES" class="st0" d="M89.5,186.2l-0.7,0.1c-0.3-0.2-0.5-0.7-0.7-1.3"/>
<path id="Layer0_0_MEMBER_0_MEMBER_17_1_STROKES" class="st0" d="M90.2,178.5c0.3-0.1,0.6-0.1,0.8,0l0.4,0.4"/>
<path id="Layer0_0_MEMBER_0_MEMBER_18_1_STROKES" class="st0" d="M104.4,50.9c-8.9,3.7-21.3,9.4-37,17"/>
<path id="Layer0_0_MEMBER_0_MEMBER_19_1_STROKES" class="st0" d="M239.4,129.1c-5.9,2.4-18.4,8.1-37.5,17.1"/>
<path id="Layer0_0_MEMBER_0_MEMBER_20_1_STROKES" class="st0" d="M196.1,124.5c0.6-0.4,0.9-0.9,0.9-1.7l-0.1-0.6"/>
<path id="Layer0_0_MEMBER_0_MEMBER_21_1_STROKES" class="st0" d="M193.3,119.1c-1,0.4-1.5,1.2-1.3,2.5"/>
<path id="Layer0_0_MEMBER_0_MEMBER_22_1_STROKES" class="st0" d="M196.9,122.3l-1-3.9"/>
<path id="Layer0_0_MEMBER_0_MEMBER_23_1_STROKES" class="st0" d="M194.7,118.1l-1.1,0.7l-0.6,0.4"/>
<path id="Layer0_0_MEMBER_0_MEMBER_24_1_STROKES" class="st0" d="M194.8,118.1c0.2-0.1,0.4-0.1,0.7,0c0.1,0,0.3,0.1,0.4,0.4"/>
<path id="Layer0_0_MEMBER_0_MEMBER_25_1_STROKES" class="st0" d="M204.6,119.8c0.6-0.4,0.9-1,0.9-1.7l-0.1-0.6"/>
<path id="Layer0_0_MEMBER_0_MEMBER_26_1_STROKES" class="st0" d="M201.6,114.2c-0.1,0-0.4,0.1-0.7,0.4l-0.3,0.8
	c-0.1,0.2-0.2,0.7-0.2,1.3"/>
<path id="Layer0_0_MEMBER_0_MEMBER_27_1_STROKES" class="st0" d="M205.3,117.4l-1-3.9"/>
<path id="Layer0_0_MEMBER_0_MEMBER_28_1_STROKES" class="st0" d="M201.1,119.9l-0.8-3.1"/>
<path id="Layer0_0_MEMBER_0_MEMBER_29_1_STROKES" class="st0" d="M202.5,121l1.2-0.7l0.9-0.7"/>
<path id="Layer0_0_MEMBER_0_MEMBER_30_1_STROKES" class="st0" d="M203.1,113.4l-1.8,1"/>
<path id="Layer0_0_MEMBER_0_MEMBER_31_1_STROKES" class="st0" d="M202.3,121l-0.7,0.1c-0.4-0.2-0.6-0.7-0.6-1.3"/>
<path id="Layer0_0_MEMBER_0_MEMBER_32_1_STROKES" class="st0" d="M203.2,113.4c0.3-0.1,0.5-0.2,0.7-0.1l0.4,0.4"/>
<path id="Layer0_0_MEMBER_0_MEMBER_33_1_STROKES" class="st0" d="M141.5,154.4l-0.2-1.1l-0.7-2"/>
<path id="Layer0_0_MEMBER_0_MEMBER_34_1_STROKES" class="st0" d="M142.8,155.5l0.7-0.3l1.5-1"/>
<path id="Layer0_0_MEMBER_0_MEMBER_35_1_STROKES" class="st0" d="M142.8,155.5c-0.2,0.1-0.4,0.1-0.7,0c-0.4-0.1-0.6-0.6-0.6-1.3"/>
<path id="Layer0_0_MEMBER_0_MEMBER_36_1_STROKES" class="st0" d="M99.5,180.4c0.6-0.4,0.9-0.9,0.9-1.7l-0.1-0.6"/>
<path id="Layer0_0_MEMBER_0_MEMBER_37_1_STROKES" class="st0" d="M96.5,174.8c-0.4,0.2-0.7,0.6-1.1,1.2l-0.1,0.7"/>
<path id="Layer0_0_MEMBER_0_MEMBER_38_1_STROKES" class="st0" d="M100.3,178.1l-0.2-1.1l-0.9-2.8"/>
<path id="Layer0_0_MEMBER_0_MEMBER_39_1_STROKES" class="st0" d="M96.1,180.6l-0.8-3.1"/>
<path id="Layer0_0_MEMBER_0_MEMBER_40_1_STROKES" class="st0" d="M97.4,181.7l1.2-0.7l0.9-0.7"/>
<path id="Layer0_0_MEMBER_0_MEMBER_41_1_STROKES" class="st0" d="M98.1,173.9l-1.2,0.7l-0.6,0.4"/>
<path id="Layer0_0_MEMBER_0_MEMBER_42_1_STROKES" class="st0" d="M97.3,181.7c-0.2,0.1-0.4,0.1-0.7,0c-0.3-0.1-0.5-0.5-0.7-1.2"/>
<path id="Layer0_0_MEMBER_0_MEMBER_43_1_STROKES" class="st0" d="M98.2,173.9l0.7-0.1l0.4,0.6"/>
<path id="Layer0_0_MEMBER_0_MEMBER_44_1_STROKES" class="st0" d="M107.7,175.6c0.6-0.4,0.9-0.9,0.9-1.7l-0.1-0.6"/>
<path id="Layer0_0_MEMBER_0_MEMBER_45_1_STROKES" class="st0" d="M104.8,170.1c-0.4,0.1-0.7,0.6-1.1,1.2c-0.1,0.2-0.2,0.7-0.2,1.4"
	/>
<path id="Layer0_0_MEMBER_0_MEMBER_46_1_STROKES" class="st0" d="M108.5,173.4l-1-3.9"/>
<path id="Layer0_0_MEMBER_0_MEMBER_47_1_STROKES" class="st0" d="M104.3,175.8l-0.8-3.1"/>
<path id="Layer0_0_MEMBER_0_MEMBER_48_1_STROKES" class="st0" d="M105.6,176.9l1.2-0.7l1-0.7"/>
<path id="Layer0_0_MEMBER_0_MEMBER_49_1_STROKES" class="st0" d="M106.3,169.3l-0.6,0.2l-1.2,0.8"/>
<path id="Layer0_0_MEMBER_0_MEMBER_50_1_STROKES" class="st0" d="M105.6,176.9c-0.3,0.1-0.5,0.1-0.7,0c-0.3-0.1-0.5-0.5-0.7-1.3"/>
<path id="Layer0_0_MEMBER_0_MEMBER_51_1_STROKES" class="st0" d="M106.4,169.2c0.2-0.1,0.4-0.1,0.7,0c0.1,0,0.3,0.1,0.4,0.4"/>
<path id="Layer0_0_MEMBER_0_MEMBER_52_1_STROKES" class="st0" d="M116.1,170.7c0.6-0.4,0.9-0.9,0.9-1.7l-0.1-0.6"/>
<path id="Layer0_0_MEMBER_0_MEMBER_53_1_STROKES" class="st0" d="M113.2,165.2l-0.7,0.6l-0.2,0.2v0.1l-0.1,0.1l-0.1,0.2l-0.2,0.7"/>
<path id="Layer0_0_MEMBER_0_MEMBER_54_1_STROKES" class="st0" d="M116.9,168.5l-0.1-1l-0.9-2.9"/>
<path id="Layer0_0_MEMBER_0_MEMBER_55_1_STROKES" class="st0" d="M112.7,171l-0.8-3.1"/>
<path id="Layer0_0_MEMBER_0_MEMBER_56_1_STROKES" class="st0" d="M114,172.1l1.2-0.7l1-0.7"/>
<path id="Layer0_0_MEMBER_0_MEMBER_57_1_STROKES" class="st0" d="M114.7,164.4l-0.6,0.2l-0.6,0.3l-0.6,0.4"/>
<path id="Layer0_0_MEMBER_0_MEMBER_58_1_STROKES" class="st0" d="M114,172.1c-0.3,0.1-0.6,0.1-0.8,0c-0.2-0.1-0.4-0.5-0.6-1.2"/>
<path id="Layer0_0_MEMBER_0_MEMBER_59_1_STROKES" class="st0" d="M114.8,164.3l0.7-0.1c0.1,0.1,0.3,0.3,0.4,0.6"/>
<path id="Layer0_0_MEMBER_0_MEMBER_60_1_STROKES" class="st0" d="M124.4,166c0.5-0.4,0.8-0.9,0.8-1.7v-0.6"/>
<path id="Layer0_0_MEMBER_0_MEMBER_61_1_STROKES" class="st0" d="M121.2,160.7h-0.1l-0.3,0.3l-0.4,0.8c-0.1,0.1-0.1,0.6-0.1,1.3"/>
<path id="Layer0_0_MEMBER_0_MEMBER_62_1_STROKES" class="st0" d="M125.2,163.8l-1-3.9"/>
<path id="Layer0_0_MEMBER_0_MEMBER_63_1_STROKES" class="st0" d="M121,166.2l-0.8-3.1"/>
<path id="Layer0_0_MEMBER_0_MEMBER_64_1_STROKES" class="st0" d="M122.3,167.3l2.1-1.3"/>
<path id="Layer0_0_MEMBER_0_MEMBER_65_1_STROKES" class="st0" d="M123,159.6l-1.8,1.1"/>
<path id="Layer0_0_MEMBER_0_MEMBER_66_1_STROKES" class="st0" d="M122.2,167.3c-0.2,0.1-0.4,0.1-0.7,0c-0.4-0.1-0.6-0.6-0.6-1.2"/>
<path id="Layer0_0_MEMBER_0_MEMBER_67_1_STROKES" class="st0" d="M123.1,159.6c0.2-0.1,0.4-0.1,0.7,0l0.4,0.4"/>
<path id="Layer0_0_MEMBER_0_MEMBER_68_1_STROKES" class="st0" d="M132.7,161.2c0.6-0.4,0.9-1,0.9-1.8l-0.1-0.6"/>
<path id="Layer0_0_MEMBER_0_MEMBER_69_1_STROKES" class="st0" d="M129.8,155.7c-0.2,0.2-0.4,0.4-0.7,0.4l-0.2,0.2v0.1l-0.1,0.1v0.2
	l-0.1,0.1c-0.1,0.4-0.2,0.8-0.2,1.3"/>
<path id="Layer0_0_MEMBER_0_MEMBER_70_1_STROKES" class="st0" d="M133.6,158.9l-0.2-1l-0.9-2.8"/>
<path id="Layer0_0_MEMBER_0_MEMBER_71_1_STROKES" class="st0" d="M129.4,161.3l-0.9-3.1"/>
<path id="Layer0_0_MEMBER_0_MEMBER_72_1_STROKES" class="st0" d="M130.6,162.4l0.7-0.2l1.5-1.1"/>
<path id="Layer0_0_MEMBER_0_MEMBER_73_1_STROKES" class="st0" d="M131.4,154.8l-1.8,1"/>
<path id="Layer0_0_MEMBER_0_MEMBER_74_1_STROKES" class="st0" d="M130.6,162.4c-0.3,0.1-0.5,0.1-0.7,0c-0.3-0.1-0.5-0.5-0.7-1.2"/>
<path id="Layer0_0_MEMBER_0_MEMBER_75_1_STROKES" class="st0" d="M131.4,154.8c0.3-0.2,0.6-0.3,0.8-0.1l0.4,0.4"/>
<path id="Layer0_0_MEMBER_0_MEMBER_76_1_STROKES" class="st0" d="M187.2,85.6c-0.1-1.8-0.6-3.1-1.2-3.9c-0.2-0.1-0.5-0.2-0.8-0.2
	h-0.4l-0.1,0.1"/>
<path id="Layer0_0_MEMBER_0_MEMBER_77_1_STROKES" class="st0" d="M86.3,195.7c0,7.3-2.2,12.2-6.6,14.7c-4.4,2.6-9.8,2-16-1.7
	c-6.3-3.6-11.6-9.2-16-16.9c-4.4-7.6-6.6-15-6.6-22.2c0-7.2,2.2-12.1,6.6-14.7c4.4-2.6,9.8-2.1,16,1.5c6.3,3.6,11.6,9.2,16,16.9
	C84,181.1,86.3,188.5,86.3,195.7z"/>
<path id="Layer0_0_MEMBER_0_MEMBER_78_1_STROKES" class="st0" d="M208.5,131.6c2.5-7.1,1.3-15.7-3.6-25.9
	c-4.8-9.7-10.6-16.4-17.5-20.1"/>
<path id="Layer0_0_MEMBER_0_MEMBER_79_1_STROKES" class="st0" d="M181.8,83.1l-2.5-0.8H175l-3.8,1.2l-0.4,0.3"/>
<path id="Layer0_0_MEMBER_0_MEMBER_80_1_STROKES" class="st0" d="M28.1,44.2l5.5,2.9l4.6-2.1"/>
<path id="Layer0_0_MEMBER_0_MEMBER_81_1_STROKES" class="st0" d="M75.4,64.1L31.9,41.6"/>
<path id="Layer0_0_MEMBER_0_MEMBER_82_1_STROKES" class="st0" d="M67.4,67.9l13.2,7.6"/>
<path id="Layer0_0_MEMBER_0_MEMBER_83_1_STROKES" class="st0" d="M54.9,86.7c-1.9,1-3.5,2.2-4.6,3.9"/>
<path id="Layer0_0_MEMBER_0_MEMBER_84_1_STROKES" class="st0" d="M189.3,163.2c-1.5,1.5-2.9,2.8-4,4.1"/>
<path id="Layer0_0_MEMBER_0_MEMBER_85_1_STROKES" class="st0" d="M214.1,153.3l-12.2-7.1"/>
<path id="Layer0_0_MEMBER_0_MEMBER_86_1_STROKES" class="st0" d="M122.1,141.1l-0.9-2.4l0.4-2.4l1.7-2.3l2.7-1.9"/>
<path id="Layer0_0_MEMBER_0_MEMBER_87_1_STROKES" class="st0" d="M253.5,173.7l-9.4-6.1l5.6-2.4"/>
<path id="Layer0_0_MEMBER_0_MEMBER_88_1_STROKES" class="st0" d="M94.1,73.2l-2.4-1.4"/>
<path id="Layer0_0_MEMBER_0_MEMBER_89_1_STROKES" class="st0" d="M135.6,97L102,77.8"/>
<path id="Layer0_0_MEMBER_0_MEMBER_90_1_STROKES" class="st0" d="M54.9,86.7l-10.5-7.4"/>
<path id="Layer0_0_MEMBER_0_MEMBER_91_1_STROKES" class="st0" d="M189.3,163.2l-10.6-5"/>
<path id="Layer0_0_MEMBER_0_MEMBER_92_1_STROKES" class="st0" d="M172,111.3l-20.9,6.2"/>
<path id="Layer0_0_MEMBER_0_MEMBER_93_1_STROKES" class="st0" d="M212.8,141l-48.5-27.9"/>
<path id="Layer0_0_MEMBER_0_MEMBER_94_1_STROKES" class="st0" d="M227.4,150.8l-2-1.2"/>
<path id="Layer0_0_MEMBER_0_MEMBER_95_1_STROKES" class="st0" d="M256.7,169.6l-24.1-15.4"/>
<path id="Layer0_0_MEMBER_0_MEMBER_96_1_STROKES" class="st0" d="M5.1,123.1c0.1,1.5,1,2.7,2.4,3.5"/>
<path id="Layer0_0_MEMBER_0_MEMBER_97_1_STROKES" class="st0" d="M12.4,119.1c1-0.4,2.4-0.3,4.2,0.4"/>
<path id="Layer0_0_MEMBER_0_MEMBER_98_1_STROKES" class="st0" d="M119.2,67l-9.5,7"/>
<path id="Layer0_0_MEMBER_0_MEMBER_99_1_STROKES" class="st0" d="M56.6,108.8l7.4-4.3"/>
<path id="Layer0_0_MEMBER_0_MEMBER_100_1_STROKES" class="st0" d="M108.8,51.9c0.7,0.4,1.6,0.9,2.5,1.5c1.1,0.9,2,1.8,2.7,2.9
	c0.6,0.5,1.9,0.5,4-0.1c0.7-0.2,2-0.6,3.6-1.2c1.5-0.6,2.6-1.3,3.2-2c0.4-0.7,0.6-1.2,0.6-1.7c-0.1-0.5-0.5-0.8-1.3-0.8
	c-2.4-0.4-5-0.3-7.8,0.2C112.2,51.5,109.7,51.8,108.8,51.9z M108.8,51.9c-0.5-0.3-0.9-0.5-1.2-0.6l-3.2-0.4"/>
<path id="Layer0_0_MEMBER_0_MEMBER_101_1_STROKES" class="st0" d="M13.5,130.1l-6.1-3.5"/>
<path id="Layer0_0_MEMBER_0_MEMBER_102_1_STROKES" class="st0" d="M13.4,127.8c0.6,0.2,1,0.3,1.3,0.1c0.4-0.2,0.6-0.7,0.6-1.3
	s-0.2-1.3-0.6-2s-0.8-1.1-1.3-1.4"/>
<path id="Layer0_0_MEMBER_0_MEMBER_103_1_STROKES" class="st0" d="M10.5,121.7l2.9,1.5"/>
<path id="Layer0_0_MEMBER_0_MEMBER_104_1_STROKES" class="st0" d="M12.7,118.9c1-0.5,1.4-1.5,1.4-3c0-1.5-0.5-3.1-1.4-4.8
	c-1-1.6-2.1-2.8-3.3-3.6c-1.3-0.7-2.5-0.8-3.4-0.3"/>
<path id="Layer0_0_MEMBER_0_MEMBER_105_1_STROKES" class="st0" d="M119.2,67c5.5-4.6,8.4-8.4,8.7-11.2c0.4-1,0.3-2.1-0.3-3.2
	c-0.6-1-1.4-1.7-2.5-1.9"/>
<path id="Layer0_0_MEMBER_0_MEMBER_106_1_STROKES" class="st0" d="M21.3,127.6c11.1-5.4,22.9-11.6,35.4-18.8"/>
<path id="Layer0_0_MEMBER_0_MEMBER_107_1_STROKES" class="st0" d="M13.5,130.1c0.9,0.3,2.2,0.1,4-0.7c1-0.4,2.2-1,3.8-1.8"/>
<path id="Layer0_0_MEMBER_0_MEMBER_108_1_STROKES" class="st0" d="M44.4,79.3c-1.5,1-6.7,4.3-15.4,9.7c-6.3,3.9-11.3,7.4-14.9,10.5
	c-4.8,4.1-7.7,6.9-8.6,8.2"/>
<path id="Layer0_0_MEMBER_0_MEMBER_109_1_STROKES" class="st0" d="M5.7,107.3c-3.1,3.4-5,5.5-5.6,6.4c-2.6,3.3-3.7,5.8-3.3,7.5
	c0.1,0.4,0.4,0.7,0.9,0.9c1.2,0.4,2.4,0.5,3.6,0.3c1.7-0.2,3.6-0.7,5.6-1.3c1.3-0.4,3.1-1,5.5-2"/>
<path id="Layer0_0_MEMBER_0_MEMBER_110_1_STROKES" class="st0" d="M140.8,202.2l0.3,0.7l0.4,0.6l0.3,0.6l1,0.8"/>
<path id="Layer0_0_MEMBER_0_MEMBER_111_1_STROKES" class="st0" d="M147.8,197.3c1.1-0.5,2.6-0.3,4.5,0.7"/>
<path id="Layer0_0_MEMBER_0_MEMBER_112_1_STROKES" class="st0" d="M34.7,85.4L-0.2,60.5"/>
<path id="Layer0_0_MEMBER_0_MEMBER_113_1_STROKES" class="st0" d="M50.2,90.6c-1,1.5-1.1,3.1-0.1,4.5"/>
<path id="Layer0_0_MEMBER_0_MEMBER_114_1_STROKES" class="st0" d="M50,95l36.5,24.8"/>
<path id="Layer0_0_MEMBER_0_MEMBER_115_1_STROKES" class="st0" d="M96.4,70.6l-11.9,3.1l-4,1.9"/>
<path id="Layer0_0_MEMBER_0_MEMBER_116_1_STROKES" class="st0" d="M254.6,145.2l-12.6,9.3"/>
<path id="Layer0_0_MEMBER_0_MEMBER_117_1_STROKES" class="st0" d="M229.5,148.3l-6,1.3l-9.5,3.6"/>
<path id="Layer0_0_MEMBER_0_MEMBER_118_1_STROKES" class="st0" d="M227.4,191.2l-40.9-19"/>
<path id="Layer0_0_MEMBER_0_MEMBER_119_1_STROKES" class="st0" d="M192.2,187l10.4-6.1"/>
<path id="Layer0_0_MEMBER_0_MEMBER_120_1_STROKES" class="st0" d="M244.3,130.2c0.7,0.3,1.4,0.7,2.2,1.2c0.4,0.2,1.3,1.1,2.7,2.8
	c0.7,0.8,1.9,1,3.5,0.6c0.7-0.2,2-0.6,3.9-1.2c1.7-0.6,2.9-1.3,3.5-2c0.4-0.4,0.7-0.9,0.8-1.5c0.1-0.7-0.1-1-0.9-1.1
	c-2.5-0.4-5.2-0.4-8.1,0.1C247.8,129.7,245.3,130.1,244.3,130.2z M244.3,130.2c-1.6-0.7-3.3-1-4.9-1"/>
<path id="Layer0_0_MEMBER_0_MEMBER_121_1_STROKES" class="st0" d="M148.9,208.2l-6.1-3.4"/>
<path id="Layer0_0_MEMBER_0_MEMBER_122_1_STROKES" class="st0" d="M148.8,206c0.5,0.3,1,0.3,1.4,0.1c0.4-0.2,0.6-0.6,0.6-1.2
	c0-0.7-0.2-1.3-0.6-2c-0.5-0.7-1-1.3-1.4-1.5"/>
<path id="Layer0_0_MEMBER_0_MEMBER_123_1_STROKES" class="st0" d="M146.2,199.9l2.7,1.5"/>
<path id="Layer0_0_MEMBER_0_MEMBER_124_1_STROKES" class="st0" d="M148.3,197.2c0.9-0.5,1.3-1.5,1.3-3.1s-0.4-3.1-1.3-4.8
	c-1-1.6-2.1-2.8-3.3-3.5c-1.3-0.8-2.5-1-3.4-0.4"/>
<path id="Layer0_0_MEMBER_0_MEMBER_125_1_STROKES" class="st0" d="M254.6,145.2c3-2.2,5.5-4.8,7.4-7.8c2.6-4.2,2.1-7-1.5-8.3"/>
<path id="Layer0_0_MEMBER_0_MEMBER_126_1_STROKES" class="st0" d="M156.8,205.9c11.3-5.7,23.1-12,35.4-18.9"/>
<path id="Layer0_0_MEMBER_0_MEMBER_127_1_STROKES" class="st0" d="M185.4,167.1c-0.7,1-0.9,1.9-0.8,2.9c0.1,0.7,0.3,1.2,0.6,1.4
	c0.2,0.3,0.7,0.6,1.4,0.8"/>
<path id="Layer0_0_MEMBER_0_MEMBER_128_1_STROKES" class="st0" d="M148.9,208.2c0.9,0.3,2.2,0.1,4-0.7c1-0.4,2.2-0.9,3.8-1.7"/>
<path id="Layer0_0_MEMBER_0_MEMBER_129_1_STROKES" class="st0" d="M178.7,158.2c-1,0.7-6,3.9-14.8,9.4c-6,3.7-10.8,7-14.3,10.1
	c-3.2,2.7-5.9,5.2-8.1,7.3"/>
<path id="Layer0_0_MEMBER_0_MEMBER_130_1_STROKES" class="st0" d="M141.2,185.5l-0.4,0.3l-5.9,6.9c-1.9,2.2-2.8,4.3-2.8,6.4
	c0.2,0.6,0.4,1,0.7,1.1c0.3,0.2,0.9,0.4,1.9,0.4c0.9,0.1,1.5,0,2-0.1c2.4-0.2,6.1-1.3,11.2-3.3"/>
<path id="Layer0_0_MEMBER_0_MEMBER_131_1_STROKES" class="st0" d="M218.9,138.1L172,111.3"/>
<path id="Layer0_0_MEMBER_0_MEMBER_132_1_STROKES" class="st0" d="M169.6,164l-47.5-22.9"/>
<path id="Layer0_0_MEMBER_0_MEMBER_133_1_STROKES" class="st0" d="M79.4,62.2L35.2,39.5"/>
<path id="Layer0_0_MEMBER_0_MEMBER_134_1_STROKES" class="st0" d="M105.2,72.7l38,21.8"/>
<path id="Layer0_0_MEMBER_0_MEMBER_135_1_STROKES" class="st0" d="M100.5,147.1c0,2.1,0.8,4,2.3,5.5c1.5,1.5,3.4,2.3,5.6,2.3
	c1.6,0,3.1-0.5,4.5-1.5"/>
<path id="Layer0_0_MEMBER_0_MEMBER_136_1_STROKES" class="st0" d="M100.5,147.2c-0.2-3-1.4-5.6-3.5-7.7"/>
<path id="Layer0_0_MEMBER_0_MEMBER_137_1_STROKES" class="st0" d="M97,139.4c-3.2-2.8-6.8-4.2-10.9-4.2c-2.7,0-5.4,0.7-8,2.1"/>
<path id="Layer0_0_MEMBER_0_MEMBER_138_1_STROKES" class="st0" d="M128,144.8l-14.9,8.6"/>
<path id="Layer0_0_MEMBER_0_MEMBER_139_1_STROKES" class="st0" d="M177.1,114.1c1.6-0.8,2.9-2,4-3.6c1-1.5,1.4-3.2,1.4-5.1
	c0-3.5-1.5-6.3-4.4-8.3"/>
<path id="Layer0_0_MEMBER_0_MEMBER_140_1_STROKES" class="st0" d="M170.9,95.1l7.2,2"/>
<path id="Layer0_0_MEMBER_0_MEMBER_141_1_STROKES" class="st0" d="M162.9,88.4l3.1,3.8"/>
<path id="Layer0_0_MEMBER_0_MEMBER_142_1_STROKES" class="st0" d="M164.2,98.5l-20.2,6.5"/>
<path id="Layer0_0_MEMBER_0_MEMBER_143_1_STROKES" class="st0" d="M184.3,81.7L144,105.1"/>
<path id="Layer0_0_MEMBER_0_MEMBER_144_1_STROKES" class="st0" d="M93.4,113.4l32.5,18.7"/>
<path id="Layer0_0_MEMBER_0_MEMBER_145_1_STROKES" class="st0" d="M151.2,117.4l-28.4-16.4"/>
<path id="Layer0_0_MEMBER_0_MEMBER_146_1_STROKES" class="st0" d="M187,85.5l-22.8,13"/>
<path id="Layer0_0_MEMBER_0_MEMBER_147_1_STROKES" class="st0" d="M162.9,88.3l-40.1,12.8"/>
<path id="Layer0_0_MEMBER_0_MEMBER_148_1_STROKES" class="st0" d="M80.5,135.8c3.7-3,5.5-7,5.5-12.1c0-4.3,2.5-7.8,7.4-10.4"/>
<path id="Layer0_0_MEMBER_0_MEMBER_149_1_STROKES" class="st0" d="M47.8,154.7l32.6-18.8"/>
<path id="Layer0_0_MEMBER_0_MEMBER_150_1_STROKES" class="st0" d="M162.9,88.3l8-4.5"/>
<path id="Layer0_0_MEMBER_0_MEMBER_151_1_STROKES" class="st0" d="M163.9,161.8l-84.6,48.9"/>
<path id="Layer0_0_MEMBER_0_MEMBER_152_1_STROKES" class="st0" d="M233.8,152.3v-0.1h0.2v-0.1l0.1,0.1v0.1h-0.1v-0.1"/>
<path id="Layer0_0_MEMBER_0_MEMBER_153_1_STROKES" class="st1" d="M235.4,148.2h0.1l-0.7-0.4l-0.3,0.2l-0.2,0.1v0.1 M234.8,147.3
	h0.1 M234.8,147.1v0.2 M235,147.1h-0.1 M235,147.3v-0.2 M235,147.3h0.1v0.1 M232.5,148.3h0.1v0.1h-0.1v0.1h-0.4v-0.3h0.3h0.1V148.3
	l0.6,0.1h0.1h0.1l0.3-0.2v-0.6 M234.3,147.9v0.1h0.1l0.1-0.1h0.1v-0.1h-0.1l-0.1,0.1H234.3z M234.3,147.9l-0.1-0.1v0.1H234.3z
	 M234.3,147.9v-0.1v-0.1h-0.1v0.1 M234.3,147.6v-0.1h0.2v0.1v0.1h-0.1v0.1 M234.3,148h-0.1v-0.1 M234.4,148h0.1v-0.1 M234.5,147.6
	l-0.1,0.1h-0.1 M234.6,147.9l0.1-0.1h0.1l-0.1,0.1l-0.1-0.1 M234.3,147.6h0.2 M234.8,148.5l-0.2,0.4v0.6h-0.1v0.1h-0.1l-0.1,0.1
	h-0.1v-0.4l-0.2-0.2h-0.1l-0.3-0.8l-0.3,0.1 M234.1,148.6l-0.1-0.1v0.6h0.1V148.6z M234.1,148.6l0.6,0.4 M234.6,149.5l-0.4-0.2
	 M235.5,149.7v0.1h-0.1l-0.4,0.2v0.1h-0.1v0.4v0.1l-0.1,0.1 M234.7,150.8l-0.2,0.1v0.1l-0.2,0.1h-0.1v0.1h-0.1v-0.1h0.1 M235,150.1
	v-0.7l-1.1,0.7v0.6L235,150.1z M234.5,151.1h-0.2v0.1 M233.6,151.7v-0.1h0.1h0.4h0.1 M234.8,150.6l-0.4,0.2l-0.4,0.3l0.3-0.2v0.1
	 M230.4,150.3l0.1-0.1 M230.4,150.2v0.1 M230.5,150.2h-0.1 M230.5,150.2h0.2v0.1 M233.7,151.6v0.1h0.1l0.1,0.1l0.1-0.1h0.1v-0.1
	 M233.5,148.3v-0.1 M232.5,148.2l-0.1-0.1 M232.5,148.2L232.5,148.2 M234.7,150.8L234.7,150.8L234.7,150.8L234.7,150.8z"/>
<path id="Layer0_0_MEMBER_0_MEMBER_154_1_STROKES" class="st0" d="M233,148.5v0.1l-0.1,0.1h-0.1v0.1h0.2v-0.1h0.1v-0.2H233z
	 M233,148.5l-0.1,0.1v0.1 M233,148.8h0.1v-0.1L233,148.8z M233,148.8l-0.2,0.1v0.1l0.7,0.3v0.1h-0.1l-0.2,0.4v1l0.1,0.1l0.3,0.2
	h-0.1l-0.2-0.2 M232.5,151.3v0.1h-0.4v-0.1H232.5z M232.5,151.3h0.1v-0.7l-0.2-0.2v-0.2h-0.1v-0.1h-0.1V150h0.1v-0.1h0.1v-0.3
	l0.3-0.5l-0.1-0.1h0.1v-0.1h-0.1v-0.1v-0.1v-0.1h-0.1v0.1h-0.4 M232.6,148.6l0.1,0.1v-0.1v-0.1h-0.1 M232.9,148.6v-0.1l-0.1,0.1
	 M232.7,148.7h-0.1 M232.7,148.5v-0.1h0.1v0.1h0.1 M232.9,148.5h-0.1 M232.4,149.5l0.7,0.3 M232.3,150h0.1v-0.1 M232.3,150.1V150
	 M232.4,150.2l-0.1-0.1 M232.7,151.3h-0.1 M232.7,151.4v-0.1 M232.9,151.4h-0.1 M232.9,150.7v0.7 M232.9,150.7l-0.2-0.1
	 M232.6,151.3v0.2h0.3v-0.1h0.1v-0.1l-0.2,0.1 M233.3,151.6v-0.1h0.1L233.3,151.6z M233.1,151.3v-0.4l-0.2-0.1 M232.1,149.6v-0.1
	H232L232.1,149.6z M231.6,152.3v-0.3l0.1-0.1v-0.3h-0.3v0.2h-0.1v0.7h0.1v-0.1H231.6z M231.6,152.3v0.1h-0.2 M231.4,151.5l-0.1-0.1
	v0.1H231.4z"/>
<path id="Layer0_0_MEMBER_0_MEMBER_155_1_STROKES" class="st1" d="M232,148.3v-0.1h-0.1v0.1h-0.1v0.1h0.2V148.3z M232,148.3h0.1
	l0.3-0.2V148l0.1-0.1v-0.4h0.1v-0.1h0.1v-0.1 M233.4,147.9l-0.2-0.1L233.4,147.9l0.1,0.1L233.4,147.9z M233.4,151.3l0.1-0.1h0.2
	l0.1,0.1h0.2v-0.1h0.2v0.1h-0.2v0.1h-0.2v-0.1h-0.3v-0.1 M231.2,149.6h0.1v-0.1l0.2-0.1l-0.9-0.2L231.2,149.6z M231.2,149.6v0.4
	l0.2-0.1l-0.1-0.1v-0.2h0.1l0.3-0.2l0.2-0.1v-0.2l-0.8-0.4 M231.4,150v-0.2v-0.1 M231.4,149.7h0.1v0.2h0.1v0.9h-0.2v0.1h0.1v0.1
	h-0.1v0.1h0.1l0.1-0.1l0.1-0.1h0.1l-0.1-1.5 M232,148.4v0.7 M230.6,149.2L230.6,149.2l-0.2,1.1l-0.1,0.1h0.2h0.1l0.1-0.1l-0.2-0.1
	v-0.6l0.7,0.4 M230.5,150.4l-0.3,0.2v0.1l0.1,0.1v0.1l0.3-0.2v-0.2h-0.1V150.4z M230.8,150.6l-0.1-0.1 M230.8,150.6v-0.1h-0.1v-0.1
	 M230.6,150.7h0.1v-0.1l0.1,0.1l0.1-0.1l-0.2-0.3 M230.3,150.4l-0.3,0.1v0.1h0.1h0.1 M230,150.6l-0.1,0.1h0.1v0.1h0.1v0.3l0.1-0.1
	h0.1v-0.1 M230.3,150.8l-0.2-0.1v-0.1 M229.9,150.7l-0.9,0.9h-0.1v0.1h0.1v0.1h0.1v-0.1l0.1,0.1v0.1l0.2-0.1v-0.1l0.1-0.1v-0.1h0.1
	v-0.1h0.1v-0.1h0.1v-0.1h0.2 M230.3,151.2l0.2-0.1 M230.3,151.1v0.1 M230.6,150.8v-0.1 M230.6,150.8h0.1v-0.1 M230.5,150.9
	L230.5,150.9 M230.6,150.9h-0.1 M230.6,150.9v-0.1 M230.5,151l0.1-0.1 M231.5,150v0.8h-0.1l-0.1,0.1v0.2l0.1,0.1h-0.1h-0.1v-0.1
	l-0.4-0.3l0.1-0.1 M231,150.5v0.1v0.1l0.2,0.1l0.2-0.1v-0.1l-0.2-0.1 M231.4,150.6V150h0.1 M231.2,150.8v0.3l0.1,0.1 M231.4,150.9
	v0.1 M231.5,151.2h0.1v-0.1 M231.6,151.2l0.1-0.1l0.1-0.1v-0.1 M231.6,151.2h0.1 M230.8,150.8h0.1l0.1-0.2 M229.1,151.8v0.1h0.1
	 M233.3,147.9L233.3,147.9 M230.5,151L230.5,151 M230.5,151.1L230.5,151.1 M231.7,151.2L231.7,151.2 M230.5,151.1L230.5,151.1"/>
<path id="Layer0_0_MEMBER_0_MEMBER_156_1_STROKES" class="st0" d="M231.7,148.3l0.1-0.1h-0.1V148.3z M231.7,148.3v0.1h-0.1v-0.1
	v-0.1v-0.1h0.1V148h0.1v0.1h0.1 M231.7,148.2h-0.1 M232.7,147.5l0.1-0.1v-0.1h0.2v0.1v0.1h0.1v0.1h-0.1v0.1H233h-0.1v-0.1v-0.2h0.1
	h0.1 M233.1,147.5l-0.1,0.1 M233.1,147.5l-0.1-0.1l-0.1,0.2h0.1h0.1V147.5z M232.9,147.6l0.1,0.1v-0.1 M230.8,150.9v0.1v0.1
	l-0.1-0.1h0.1 M231.6,148.3h0.1"/>
<path class="st2" d="M235,147.5v-0.1h-0.1v-0.2h-0.1l-0.1,0.1h-0.4v0.1h-0.7v0.1h-0.1v0.1l-0.1,0.1h-0.1v0.1h-0.1l-0.1-0.1h0.1v-0.1
	H233v-0.2h-0.2v-0.1h-0.1v0.1h-0.1v0.1l-0.1,0.1v0.3l-0.1,0.1v0.1l-0.2,0.1l0,0l-0.2,0.1v-0.2h-0.1V148h-0.4v0.6l-0.2,0.1v0.2
	l-0.3,0.1h-0.1l-0.2,0.2h-0.1v1.2h-0.1l-0.3,0.1v0.1l-0.1,0.1l-0.6,0.4l-0.1,0.1v0.1H229v0.1l-0.1,0.1h-0.1v0.1h0.1v0.1h0.1v0.1h0.1
	v-0.1h0.2v-0.1l0.1-0.1v-0.1h0.1v-0.1h0.1v-0.1h0.1v-0.1h0.4l0.1-0.1h0.1l0.1,0.1h0.2v-0.1h0.1l0.3,0.1v0.3h0.1v0.2h-0.1v0.7h0.3
	V152l0.1-0.1v-0.6h0.3v0.1h0.4l0.3,0.1h0.4v0.1l0.1-0.1v-0.2l0.1,0.1v0.1l0.1,0.1v0.1l-0.1,0.1v0.1h0.2v0.2h0.1
	c0,0.4,0.1,0.6,0.3,0.7v0.4h0.1l0.2-0.1V153h-0.1v-0.2l-0.1-0.1v-0.1l-0.1-0.1v-0.1h0.1v-0.8l0.1-0.1v-0.2l0.1-0.1V151l0.1-0.1h0.1
	v-0.1h0.1v-0.6h0.1v-0.1l0.4-0.2h0.1v-0.1l0.2-0.4v-1l-0.2-0.1l-0.7-0.4h-0.3v-0.1h0.3v-0.1h0.1v-0.1H235z"/>
<path id="Layer0_0_MEMBER_0_MEMBER_158_1_STROKES" class="st1" d="M236.1,152.5l26.2,16.8 M100.3,70.6h0.1v0.1h0.4v-0.1h0.1v-0.1
	h-0.1v-0.1h-0.4v0.1h-0.1V70.6z M100.3,70.6v0.2h0.3h0.2v-0.1 M100.6,70.8v0.1h-0.3v-0.1 M100,71.7l0.4,0.6 M102.4,71.5v0.9
	 M101.6,71.5l-0.7-0.3 M101,74.6l0.1-0.1h0.1v0.1H101z M101,74.6v0.1h-0.6v-0.1H101z M100.9,75.3l-0.1-0.1v0.1v0.1h0.1V75.3z
	 M100.9,75.3v-0.2h-0.1v0.1 M101,75.1v0.1v0.1h0.1L101,75.1L101,75.1z M101,75.1l-0.1-0.1v0.1H101z M101,75.1V75v-0.2L101,75
	 M101.1,75.1V75 M101,75.1L101,75.1 M101,75.2l-0.1,0.1h0.1v0.2l0.2,0.2V76l-0.1-0.1v0.2v0.1H101V76l-0.1-0.3v0.1v0.1
	c-0.2-0.1-0.3-0.3-0.3-0.8V75v-0.1l-0.2-0.1 M101,75.2l-0.1-0.1 M101,75.1L101,75.1L101,75.1 M101.1,75L101.1,75 M100.9,75.7h-0.1
	l0.1,0.1 M100.7,75.7v-0.1h-0.1L100.7,75.7z M101.1,75.9l-0.1-0.1V76l0.1,0.1 M100.9,75.6L100.9,75.6l-0.1,0.1h0.1V75.6z
	 M100.9,75.6l-0.1-0.2 M101.1,75.9v-0.1l-0.1-0.1v0.1 M101,76l-0.1-0.3 M101.1,76.2L101,76 M101,75.6v0.1 M100.9,75.6h-0.1v-0.1
	h-0.1v0.1 M100.7,75.4l0.1,0.1v-0.1 M100.5,74.1l0.2,0.1L100.5,74.1h-0.2 M100.3,75v-0.1 M100.6,75.4v-0.2l0.1,0.1 M100.9,75h-0.3
	 M101.1,75L101.1,75 M101,75.1L101,75.1 M101,75.7L101,75.7 M100.9,75.6L100.9,75.6 M101,75.1L101,75.1 M100.5,74.1L100.5,74.1"/>
<path id="Layer0_0_MEMBER_0_MEMBER_159_1_STROKES" class="st1" d="M100.6,71.7v0.4l0.2,0.2h0.1l0.3,0.2h0.1V72l-0.7-0.3L100.6,71.7z
	 M100.6,71.7h0.1v0.1 M101.5,70.2h0.1v0.1h0.1 M102.2,71.2l-0.9-0.4v0.1V71h-0.1h-0.1H101v-0.1h-0.1v-0.1h0.1v-0.1v-0.1h0.2v0.1h0.1
	v0.1l-0.1,0.1h0.1 M101,70.8h0.2v-0.1H101 M101.2,70.9V71 M101.1,71l-0.1-0.1 M101,70.8l0.1,0.1h0.1v-0.1 M101.6,71.6l-0.2,0.4
	 M101,72.3v0.4l0.2-0.1h0.1v-0.1 M100.7,73.8v0.4l0.2-0.1l0.2-0.1v0.1l0.1-0.1l0.2-0.1l0.3-0.2v-0.6l-1,0.6v-0.6l1-0.6v0.6l0.6-0.2
	l0.2-0.6 M101.4,73.9l0.1-0.1l0.1-0.1v-0.1 M101,74.2l-0.1,0.1v-0.1H101z M101,74.2h0.1v-0.1H101l-0.2,0.1 M101.2,74l-0.1,0.1
	 M101.4,73.9l-0.2,0.1 M101,74.1l0.1-0.1 M101.2,74v0.1l-0.1,0.1 M101.5,73.9h-0.1 M101,74.7l-0.1,0.1 M101,74.8v-0.1 M100.9,74.8
	h0.1 M100.9,74.8h-0.1v0.1h-0.1v-0.1h-0.1h-0.1l0.1,0.1V75v0.1h-0.1l0.1-0.1 M100.5,74.8v-0.1h-0.1v0.1 M100.6,74.8h0.1 M101.1,74.1
	L101.1,74.1 M101.4,73.9L101.4,73.9 M100.9,74.1L100.9,74.1 M101.5,73.8L101.5,73.8"/>
<path id="Layer0_0_MEMBER_0_MEMBER_160_1_STROKES" class="st1" d="M98.9,71.8v-0.1h-0.1v-0.1v-0.1v-0.1h0.1v-0.1h0.3h0.1v0.1
	l0.7,0.2l0.3-0.1v-0.7h-0.2 M98.8,71.6l0.1,0.1h0.6v-0.2l-0.1,0.1h-0.4v-0.1h-0.1 M98.8,72.6v0.1h0.1L98.8,72.6z M100.1,72.3
	L99.5,72l0.2-0.2h-0.1h-0.1h-0.1v-0.1h0.2h0.2v-0.1h-0.1h-0.1v-0.1h0.1v0.1 M99.7,71.8h0.1v-0.1h-0.1l-0.1,0.1 M99.3,71.3h0.1v0.1
	 M99.4,71.7l0.1,0.1 M99.7,71.7l0.6-0.3 M99.2,71.2l0.1,0.1 M101,71.1h0.1 M101.2,70.7h0.1 M100.2,74l0.1,0.1v0.1l-0.1-0.1V74z
	 M100.2,74h-0.1l-0.2-0.1v0.4l-0.2,0.1h-0.2h-0.7v-0.2h0.1v0.1h0.6v-0.7l0.2,0.1l0.2,0.1 M99.4,74.4v-0.1 M99.6,73.8v0.7 M98.1,74.6
	v0.6H98v0.3h0.3v-0.2h0.1v-0.7H98.1z M97.2,73.3v-0.1h0.2v0.1h0.2 M99.3,71.3L99.3,71.3"/>
<path id="Layer0_0_MEMBER_0_MEMBER_161_1_STROKES" class="st1" d="M97.4,73.1l-0.1,0.1v-0.6l0.7,0.4v-0.2v-0.1v-0.1L97.4,72l0.9,0.4
	v0.1l0.4-0.2v-0.1l-0.4-0.3L98,71.7 M98.6,72.6h-0.1l-0.2,0.1v0.1h-0.1v0.1h0.1h0.1v1h-0.1V74v0.1h-0.1v0.1h0.1l0.1-0.1l0.1-0.1h0.1
	V72.6z M98.6,72.6h0.1v-0.2 M96.8,73.7c-0.6,0.3-1,0.6-1.1,1 M97.1,73.5l-0.3,0.2 M97.2,73.5h-0.1 M97.3,73.5h-0.1 M97.3,73.6v-0.1
	 M97.4,73.6h-0.1 M97.4,73.5v0.1 M97.5,73.3l-0.1,0.1 M97.6,73.7l-0.1-0.3 M97.8,73.7h-0.1 M97.8,73.8v-0.1 M98,73.9l-0.2-0.1
	 M98.1,73.8L98,73.9 M98.1,73.8L98.1,73.8 M98.2,73.8h-0.1 M98.2,73v0.8 M98.2,73l-0.1-0.1H98 M98.1,72.9h0.1V73h0.1v-0.1
	 M98.3,72.5l-0.2,0.1v0.1l0.2-0.1 M98,72.8h0.1v-0.1H98 M100.1,72.3v0.1l-0.2,0.4l-0.4,0.8l-0.2-0.2v-0.2h-0.1v-0.1H99v-0.2h0.1h0.1
	v-0.3l0.2-0.6l0.1-0.1h-0.1v-0.1h-0.1 M99.7,71.9h-0.2 M99.7,71.8v0.1 M99.7,71.8l0.1-0.1l0.1-0.1l-0.1,0.1H99.7z M99.4,71.8v-0.2
	 M99.2,72.6l0.7,0.3 M99.1,73v-0.1 M99.1,73h0.1v-0.1 M99.1,73.1V73 M98.2,73.8h0.1V73 M98.3,74.2h0.1v-0.1 M98.1,74.1H98v0.1h0.2
	L98.1,74.1z M98.1,74.1V74H98v0.1 M98.1,74.1h0.1V74h-0.1v-0.2l0.1-0.1 M98,74v-0.1 M98.3,74h-0.1 M98.5,74.1l0.1-0.1 M98.5,74.1
	v0.1h-0.1L98.5,74.1z M97.5,73.8l-0.1-0.2v0.2V74L97.5,73.8z M97.5,73.8l0.1-0.1v0.2L97.4,74l0.6,0.2 M97.8,73.2h0.1v0.1H98
	 M97.4,73.8l-0.1-0.1v-0.1h-0.1v-0.1L97,73.7v0.1l0.1,0.1V74L97.4,73.8z M97,73.7h-0.1v0.1l0.1,0.1v0.2l0.1-0.1 M96.9,73.7h-0.1
	 M97.4,74h-0.1L97,74.2h-0.1h-0.2v0.1h-0.1v0.1 M97,74.2v-0.1l-0.1,0.1 M99.9,71.8L99.9,71.8"/>
<path id="Layer0_0_MEMBER_0_MEMBER_162_1_STROKES" class="st1" d="M98.1,71.2h0.1v-0.1h0.1V71h0.1l0.2,0.1v0.1l0.1,0.1l0.3-0.2h0.1
	V71l0.1-0.1v-0.3h0.1v-0.2h0.1v-0.1h0.1v0.1l0.1,0.1l0.1,0.1v0.1v0.1l0.1,0.1h0.2v0.1l0.1,0.1l-0.2-0.1l-0.2-0.1h-0.1h-0.1h-0.1
	v-0.1h-0.1v-0.1v-0.1h0.1h0.1 M99.6,70.6v-0.1 M99.6,70.6h0.1v-0.1h0.1 M99.7,70.6h0.1 M99.5,70.6h0.1v0.1l0.1-0.1v0.1v0.1l-0.1-0.1
	h0.1 M99.9,70.8v-0.1 M100.2,70.9l-0.2-0.1 M98.5,71.2h-0.1v0.1L98.5,71.2z M98.5,71.2h0.1v0.1h0.1 M98.3,71.2h0.1v-0.1h0.2
	 M98.5,71.3h-0.1v0.1h0.1V71.3z M98.5,71.3h0.1l-0.1-0.1 M98.5,71.5h0.1v-0.1 M100.9,70.4h0.2v-0.1h0.4 M100.9,74.2v0.1h-0.3v-0.1
	h-0.2v0.1h0.1v0.1h0.6v-0.1h0.1 M97.2,72.3v1l-0.1,0.1h0.3v0.2h0.1v0.2h-0.1V74v0.1l0.1-0.1v0.2h-0.2v-0.1V74h0.1 M96.7,73.8
	l0.1,0.1h0.1 M97.3,74.1h0.1l0.1,0.1 M96.4,74.6h-0.1v0.1L96,75h-0.1v-0.1h-0.1v-0.1h-0.1 M96,75v-0.1h-0.1 M99.7,70.4L99.7,70.4
	 M100.1,70.9L100.1,70.9"/>
<path class="st2" d="M97.3,72.1l-0.2,0.2v1.2H97l-0.3,0.2h-0.1v0.1h-0.1l-0.6,0.4v0.2h-0.1l-0.2,0.2v0.1h0.1v0.1h0.1v0.1h0.1v-0.1
	H96l0.2-0.2v-0.1h0.1v-0.1h0.1v-0.1h0.1v-0.1h0.3l0.2-0.1l0.1,0.1h0.3v-0.2l0.3,0.2H98v0.9h-0.1v0.3h0.3v-0.2h0.1v-0.7h0.1v-0.1
	l0.2-0.1v0.1h0.4l0.2,0.1h0.8v-0.1h0.1v0.2h0.1v0.1h-0.1v0.2l0.1,0.1h0.1v0.1c0,0.4,0.1,0.6,0.3,0.7v0.4h0.1l0.1-0.1h0.1v-0.4
	l-0.2-0.2v-0.2h0.1v-0.3h-0.1v-0.3l0.1-0.1h0.1v-0.6l0.1-0.1h0.2v-0.1h0.1v-0.7l0.6-0.2l0.2-0.6v-1l-0.2-0.1l-0.6-0.4h-0.1l-0.2,0.1
	v-0.2h0.2l0.2-0.1v-0.2l-0.1-0.1v-0.1h-0.1v0.1H101v0.1h-0.7v0.1h-0.1v0.1l-0.2,0.1h-0.1v0.1h-0.1v-0.3l-0.2-0.1v-0.1h-0.1v0.1h-0.1
	v0.2h-0.1V71l-0.1,0.1v0.1H99l-0.2,0.1l0,0l-0.1,0.1h-0.1v-0.2l-0.2-0.1h-0.1v0.1h-0.1v0.1H98v0.4h-0.1v0.1h-0.1l-0.3,0.2H97.3z"/>
<path id="Layer0_0_MEMBER_1_MEMBER_0_1_STROKES" class="st3" d="M235.3,147.9l13.5-90.7 M233.4,42.7l-132,28.6"/>
<path class="st4" d="M268.1,47.2c2.4-4.6,2.5-9.8,0.4-15.5c-2.4-5.2-6-8.6-10.7-10.4c-4.3-1.5-8.6-1.5-13,0.2
	c-4.4,1.7-7.7,4.6-9.8,8.6c-2.4,4.5-2.7,9.5-1,14.9c2.3,5.5,5.9,9.2,10.7,11.2c4.3,1.7,8.8,1.7,13.4-0.1
	C262.7,54.4,266.1,51.4,268.1,47.2z"/>
</svg>
