<?xml version="1.0" encoding="utf-8"?>
<!-- Generator: Adobe Illustrator 24.1.0, SVG Export Plug-In . SVG Version: 6.00 Build 0)  -->
<svg version="1.1" id="Ebene_1" xmlns="http://www.w3.org/2000/svg" xmlns:xlink="http://www.w3.org/1999/xlink" x="0px" y="0px"
	 viewBox="0 0 349.1 161" style="enable-background:new 0 0 349.1 161;" xml:space="preserve">
<style type="text/css">
	.st0{font-family:'ArialMT';}
	.st1{font-size:14px;}
	.st2{fill:#E6E6E6;}
	.st3{fill:none;stroke:#000000;stroke-width:0.5;stroke-linecap:round;stroke-linejoin:round;}
	.st4{fill:#39ACE0;}
	.st5{fill:none;stroke:#000000;stroke-miterlimit:5;}
	.st6{fill:#FFFFFF;}
	.st7{font-size:9px;}
	.st8{font-size:12px;}
	.st9{fill:none;stroke:#000000;stroke-width:2;stroke-linecap:round;stroke-linejoin:round;}
	.st10{font-size:15.1723px;}
</style>
<text transform="matrix(1 0 0 1 46 19.8898)" class="st0 st1">SEE SERVICE BULLETIN 84-29-22</text>
<g transform="matrix( 1, 0, 0, 1, 0,0) ">
	<g>
		<g id="Layer3_1_MEMBER_0_FILL">
			<path class="st2" d="M343.2,141.2V61.6H5.8v79.6H343.2z"/>
		</g>
	</g>
	<g>
		<path id="Layer3_1_MEMBER_0_1_STROKES" class="st3" d="M343.2,61.6H5.8 M5.8,141.2h337.5"/>
	</g>
</g>
<g transform="matrix( 1, 0, 0, 1, -140.35,-181.65) ">
	<g>
		<g id="Layer3_1_MEMBER_1_MEMBER_0_FILL">
			<path class="st4" d="M444.7,290.9v-15.8h-30.5v15.8H444.7z"/>
		</g>
	</g>
	<g>
		<path id="Layer3_1_MEMBER_1_MEMBER_0_1_STROKES" class="st5" d="M444.7,290.9h-30.5v-15.8h30.5V290.9z"/>
	</g>
</g>
<g transform="matrix( 1, 0, 0, 1, -140.35,-181.65) ">
	<g>
		<g id="Layer3_1_MEMBER_1_MEMBER_1_FILL">
			<path class="st6" d="M413.8,276.9h-8.6v12.3h8.6V276.9z"/>
		</g>
	</g>
	<g>
		<path id="Layer3_1_MEMBER_1_MEMBER_1_1_STROKES" class="st5" d="M413.8,276.9v12.3h-8.6v-12.3H413.8z"/>
	</g>
</g>
<g transform="matrix( 1, 0, 0, 1, -140.35,-181.65) ">
	<g>
		<g id="Layer3_1_MEMBER_1_MEMBER_2_FILL">
			<path class="st6" d="M453.9,276.9h-8.6v12.3h8.6V276.9z"/>
		</g>
	</g>
	<g>
		<path id="Layer3_1_MEMBER_1_MEMBER_2_1_STROKES" class="st5" d="M453.9,276.9v12.3h-8.6v-12.3H453.9z"/>
	</g>
</g>
<g transform="matrix( 1, 0, 0, 1, -140.35,-181.65) ">
	<g>
		<path id="Layer3_1_MEMBER_1_MEMBER_3_1_STROKES" class="st5" d="M448.6,283c0-0.4,0.1-0.7,0.4-1s0.6-0.4,1-0.4s0.7,0.1,1,0.4
			s0.4,0.6,0.4,1s-0.1,0.7-0.4,1s-0.6,0.4-1,0.4s-0.7-0.1-1-0.4S448.6,283.4,448.6,283z"/>
	</g>
</g>
<g transform="matrix( 1, 0, 0, 1, -140.35,-181.65) ">
	<g>
		<path id="Layer3_1_MEMBER_1_MEMBER_4_1_STROKES" class="st5" d="M408,283c0-0.4,0.1-0.7,0.4-1s0.6-0.4,1-0.4s0.7,0.1,1,0.4
			s0.4,0.6,0.4,1s-0.1,0.7-0.4,1s-0.6,0.4-1,0.4s-0.7-0.1-1-0.4C408.2,283.8,408,283.4,408,283z"/>
	</g>
</g>
<g transform="matrix( 1, 0, 0, 1, -140.35,-181.65) ">
	<g>
		<path id="Layer3_1_MEMBER_2_MEMBER_0_1_STROKES" class="st5" d="M361.8,296.3h-26.5v-26.6h26.5V296.3z"/>
	</g>
</g>
<g transform="matrix( 1, 0, 0, 1, -140.35,-181.65) ">
	<g>
		<path id="Layer3_1_MEMBER_2_MEMBER_1_MEMBER_0_1_STROKES" class="st5" d="M361.8,294.5v-23h7.7v23H361.8z"/>
	</g>
</g>
<g transform="matrix( 1, 0, 0, 1, -140.35,-181.65) ">
	<g>
		<path id="Layer3_1_MEMBER_2_MEMBER_1_MEMBER_1_1_STROKES" class="st5" d="M366.5,284.4c-0.4,0-0.7-0.1-1-0.4s-0.4-0.6-0.4-1
			s0.1-0.7,0.4-1s0.6-0.4,1-0.4s0.7,0.1,1,0.4s0.4,0.6,0.4,1s-0.1,0.7-0.4,1S366.9,284.4,366.5,284.4z"/>
	</g>
</g>
<g transform="matrix( 1, 0, 0, 1, -140.35,-181.65) ">
	<g>
		<path id="Layer3_1_MEMBER_2_MEMBER_2_MEMBER_0_1_STROKES" class="st5" d="M327.5,294.5v-23h7.7v23H327.5z"/>
	</g>
</g>
<g transform="matrix( 1, 0, 0, 1, -140.35,-181.65) ">
	<g>
		<path id="Layer3_1_MEMBER_2_MEMBER_2_MEMBER_1_MEMBER_0_1_STROKES" class="st5" d="M330.9,291.6c-0.4,0-0.7-0.1-1-0.4
			s-0.4-0.6-0.4-1s0.1-0.7,0.4-1s0.6-0.4,1-0.4s0.7,0.1,1,0.4s0.4,0.6,0.4,1s-0.1,0.7-0.4,1S331.3,291.6,330.9,291.6z"/>
	</g>
</g>
<g transform="matrix( 1, 0, 0, 1, -140.35,-181.65) ">
	<g>
		<path id="Layer3_1_MEMBER_2_MEMBER_2_MEMBER_1_MEMBER_1_1_STROKES" class="st5" d="M330.9,277.2c-0.4,0-0.7-0.1-1-0.4
			s-0.4-0.6-0.4-1s0.1-0.7,0.4-1s0.6-0.4,1-0.4s0.7,0.1,1,0.4s0.4,0.6,0.4,1s-0.1,0.7-0.4,1S331.3,277.2,330.9,277.2z"/>
	</g>
</g>
<g transform="matrix( 1, 0, 0, 1, -140.35,-181.65) ">
	<g>
		<g id="Layer3_1_MEMBER_2_MEMBER_3_FILL">
			<path class="st4" d="M361.8,296.3v-26.6h-26.5v26.6H361.8z"/>
		</g>
	</g>
	<g>
		<path id="Layer3_1_MEMBER_2_MEMBER_3_1_STROKES" class="st5" d="M361.8,296.3h-26.5v-26.6h26.5V296.3z"/>
	</g>
</g>
<g transform="matrix( 1, 0, 0, 1, -140.35,-181.65) ">
	<g>
		<path id="Layer3_1_MEMBER_3_MEMBER_0_1_STROKES" class="st5" d="M284.6,296.3h-26.5v-26.6h26.5V296.3z"/>
	</g>
</g>
<g transform="matrix( 1, 0, 0, 1, -140.35,-181.65) ">
	<g>
		<path id="Layer3_1_MEMBER_3_MEMBER_1_MEMBER_0_1_STROKES" class="st5" d="M284.6,294.5v-23h7.7v23H284.6z"/>
	</g>
</g>
<g transform="matrix( 1, 0, 0, 1, -140.35,-181.65) ">
	<g>
		<path id="Layer3_1_MEMBER_3_MEMBER_1_MEMBER_1_1_STROKES" class="st5" d="M289.4,284.4c-0.4,0-0.7-0.1-1-0.4s-0.4-0.6-0.4-1
			s0.1-0.7,0.4-1s0.6-0.4,1-0.4s0.7,0.1,1,0.4s0.4,0.6,0.4,1s-0.1,0.7-0.4,1S289.8,284.4,289.4,284.4z"/>
	</g>
</g>
<g transform="matrix( 1, 0, 0, 1, -140.35,-181.65) ">
	<g>
		<path id="Layer3_1_MEMBER_3_MEMBER_2_MEMBER_0_1_STROKES" class="st5" d="M250.4,294.5v-23h7.7v23H250.4z"/>
	</g>
</g>
<g transform="matrix( 1, 0, 0, 1, -140.35,-181.65) ">
	<g>
		<path id="Layer3_1_MEMBER_3_MEMBER_2_MEMBER_1_MEMBER_0_1_STROKES" class="st5" d="M253.8,291.6c-0.4,0-0.7-0.1-1-0.4
			s-0.4-0.6-0.4-1s0.1-0.7,0.4-1c0.3-0.3,0.6-0.4,1-0.4s0.7,0.1,1,0.4s0.4,0.6,0.4,1s-0.1,0.7-0.4,1
			C254.4,291.5,254.1,291.6,253.8,291.6z"/>
	</g>
</g>
<g transform="matrix( 1, 0, 0, 1, -140.35,-181.65) ">
	<g>
		<path id="Layer3_1_MEMBER_3_MEMBER_2_MEMBER_1_MEMBER_1_1_STROKES" class="st5" d="M253.8,277.2c-0.4,0-0.7-0.1-1-0.4
			s-0.4-0.6-0.4-1s0.1-0.7,0.4-1c0.3-0.3,0.6-0.4,1-0.4s0.7,0.1,1,0.4s0.4,0.6,0.4,1s-0.1,0.7-0.4,1
			C254.4,277.1,254.1,277.2,253.8,277.2z"/>
	</g>
</g>
<g transform="matrix( 1, 0, 0, 1, -140.35,-181.65) ">
	<g>
		<g id="Layer3_1_MEMBER_3_MEMBER_3_FILL">
			<path class="st4" d="M284.6,296.3v-26.6h-26.5v26.6H284.6z"/>
		</g>
	</g>
	<g>
		<path id="Layer3_1_MEMBER_3_MEMBER_3_1_STROKES" class="st5" d="M284.6,296.3h-26.5v-26.6h26.5V296.3z"/>
	</g>
</g>
<g transform="matrix( 1, 0, 0, 1, -140.35,-181.65) ">
	<g>
		<path id="Layer3_1_MEMBER_4_MEMBER_0_1_STROKES" class="st5" d="M206.1,296.3h-26.5v-26.6h26.5V296.3z"/>
	</g>
</g>
<g transform="matrix( 1, 0, 0, 1, -140.35,-181.65) ">
	<g>
		<path id="Layer3_1_MEMBER_4_MEMBER_1_MEMBER_0_1_STROKES" class="st5" d="M206.1,294.5v-23h7.7v23H206.1z"/>
	</g>
</g>
<g transform="matrix( 1, 0, 0, 1, -140.35,-181.65) ">
	<g>
		<path id="Layer3_1_MEMBER_4_MEMBER_1_MEMBER_1_1_STROKES" class="st5" d="M210.8,284.4c-0.4,0-0.7-0.1-0.9-0.4
			c-0.3-0.3-0.4-0.6-0.4-1s0.1-0.7,0.4-1c0.3-0.3,0.6-0.4,0.9-0.4c0.4,0,0.7,0.1,1,0.4s0.4,0.6,0.4,1s-0.1,0.7-0.4,1
			C211.5,284.3,211.2,284.4,210.8,284.4z"/>
	</g>
</g>
<g transform="matrix( 1, 0, 0, 1, -140.35,-181.65) ">
	<g>
		<path id="Layer3_1_MEMBER_4_MEMBER_2_MEMBER_0_1_STROKES" class="st5" d="M171.8,294.5v-23h7.7v23H171.8z"/>
	</g>
</g>
<g transform="matrix( 1, 0, 0, 1, -140.35,-181.65) ">
	<g>
		<path id="Layer3_1_MEMBER_4_MEMBER_2_MEMBER_1_MEMBER_0_1_STROKES" class="st5" d="M175.2,291.6c-0.4,0-0.7-0.1-1-0.4
			s-0.4-0.6-0.4-1s0.1-0.7,0.4-1c0.3-0.3,0.6-0.4,1-0.4s0.7,0.1,0.9,0.4c0.3,0.3,0.4,0.6,0.4,1s-0.1,0.7-0.4,1
			C175.9,291.5,175.6,291.6,175.2,291.6z"/>
	</g>
</g>
<g transform="matrix( 1, 0, 0, 1, -140.35,-181.65) ">
	<g>
		<path id="Layer3_1_MEMBER_4_MEMBER_2_MEMBER_1_MEMBER_1_1_STROKES" class="st5" d="M175.2,277.2c-0.4,0-0.7-0.1-1-0.4
			s-0.4-0.6-0.4-1s0.1-0.7,0.4-1c0.3-0.3,0.6-0.4,1-0.4s0.7,0.1,0.9,0.4c0.3,0.3,0.4,0.6,0.4,1s-0.1,0.7-0.4,1
			C175.9,277.1,175.6,277.2,175.2,277.2z"/>
	</g>
</g>
<g transform="matrix( 1, 0, 0, 1, -140.35,-181.65) ">
	<g>
		<g id="Layer3_1_MEMBER_4_MEMBER_3_FILL">
			<path class="st4" d="M206.1,296.3v-26.6h-26.5v26.6H206.1z"/>
		</g>
	</g>
	<g>
		<path id="Layer3_1_MEMBER_4_MEMBER_3_1_STROKES" class="st5" d="M206.1,296.3h-26.5v-26.6h26.5V296.3z"/>
	</g>
</g>
<g transform="matrix( 1, 0, 0, 1, -140.35,-181.65) ">
	<g>
		<g id="Layer3_1_MEMBER_5_MEMBER_0_FILL">
			<path class="st6" d="M214.1,249.2h-42.5v14.5h42.5V249.2z"/>
		</g>
	</g>
	<g>
		<path id="Layer3_1_MEMBER_5_MEMBER_0_1_STROKES" class="st3" d="M214.1,249.2v14.5h-42.5v-14.5L214.1,249.2L214.1,249.2z"/>
	</g>
</g>
<g transform="matrix( 1, 0, 0, 1, 57.2,204.85) ">
	<g>
		<text transform="matrix(1 0 0 1 -22.75 -127.1603)" class="st0 st7">2921-K5</text>
	</g>
</g>
<g transform="matrix( 1, 0, 0, 1, -140.35,-181.65) ">
	<g>
		<g id="Layer3_1_MEMBER_6_MEMBER_0_FILL">
			<path class="st6" d="M293.4,249.2h-44v14.5h44V249.2z"/>
		</g>
	</g>
	<g>
		<path id="Layer3_1_MEMBER_6_MEMBER_0_1_STROKES" class="st3" d="M293.4,249.2v14.5h-44v-14.5L293.4,249.2L293.4,249.2z"/>
	</g>
</g>
<g transform="matrix( 1, 0, 0, 1, 135,204.85) ">
	<g>
		<text transform="matrix(1 0 0 1 -22.75 -127.1603)" class="st0 st7">2921-K11</text>
	</g>
</g>
<g transform="matrix( 1, 0, 0, 1, -140.35,-181.65) ">
	<g>
		<g id="Layer3_1_MEMBER_7_MEMBER_0_FILL">
			<path class="st6" d="M370,249.2h-43v14.5h43V249.2z"/>
		</g>
	</g>
	<g>
		<path id="Layer3_1_MEMBER_7_MEMBER_0_1_STROKES" class="st3" d="M370,249.2v14.5h-43v-14.5L370,249.2L370,249.2z"/>
	</g>
</g>
<g transform="matrix( 1, 0, 0, 1, 212.15,204.85) ">
	<g>
		<text transform="matrix(1 0 0 1 -22.75 -127.1603)" class="st0 st7">2921-K12</text>
	</g>
</g>
<g transform="matrix( 1, 0, 0, 1, -140.35,-181.65) ">
	<g>
		<g id="Layer3_1_MEMBER_8_MEMBER_0_FILL">
			<path class="st6" d="M451.8,249.2h-44.5v14.5h44.5V249.2z"/>
		</g>
	</g>
	<g>
		<path id="Layer3_1_MEMBER_8_MEMBER_0_1_STROKES" class="st3" d="M451.8,249.2v14.5h-44.5v-14.5L451.8,249.2L451.8,249.2z"/>
	</g>
</g>
<g transform="matrix( 1, 0, 0, 1, 292.9,204.85) ">
	<g>
		<text transform="matrix(1 0 0 1 -22.75 -127.1603)" class="st0 st7">2921-K13</text>
	</g>
</g>
<g transform="matrix( 1, 0, 0, 1, 296.65,168.05) ">
	<g>
		<text transform="matrix(1 0 0 1 -22.75 -114.1602)" class="st0 st8">J-D4N</text>
	</g>
</g>
<g transform="matrix( 1, 0, 0, 1, 196.9,296.4) ">
	<g>
		<text transform="matrix(1 0 0 1 -22.75 -144.1602)" class="st0 st8">K-D4L-050</text>
	</g>
</g>
<g transform="matrix( 1, 0, 0, 1, 34.25,296.4) ">
	<g>
		<text transform="matrix(1 0 0 1 -22.75 -144.1602)" class="st0 st8">TDH-7060-1002</text>
	</g>
</g>
<g transform="matrix( 1, 0, 0, 1, 121.65,168.05) ">
	<g>
		<text transform="matrix(1 0 0 1 -22.75 -114.1602)" class="st0 st8">K-D4L-050</text>
	</g>
</g>
<g transform="matrix( 1, 0, 0, 1, 0,0) ">
	<g>
		<g id="Layer3_6_MEMBER_0_FILL">
			<path class="st6" d="M328.3,5.6v7.4h-33.8v24.3h33.8v7.4l14.3-19.4L328.3,5.6z"/>
		</g>
	</g>
	<g>
		<path id="Layer3_6_MEMBER_0_1_STROKES" class="st9" d="M328.3,5.6l14.1,19.6l-14.3,19.4v-7.4h-33.8V13h33.8L328.3,5.6z"/>
	</g>
</g>
<g transform="matrix( 1, 0, 0, 1, 299.9,348.45) ">
	<g>
		<text transform="matrix(1 0 0 1 -1.4286 -317.1901)" class="st0 st10">FWD</text>
	</g>
</g>
</svg>
