<?xml version="1.0" encoding="utf-8"?>
<!-- Generator: Adobe Illustrator 24.1.0, SVG Export Plug-In . SVG Version: 6.00 Build 0)  -->
<svg version="1.1" id="Ebene_1" xmlns="http://www.w3.org/2000/svg" xmlns:xlink="http://www.w3.org/1999/xlink" x="0px" y="0px"
	 viewBox="0 0 349.1 161" style="enable-background:new 0 0 349.1 161;" xml:space="preserve">
<style type="text/css">
	.st0{fill:none;stroke:#E52521;stroke-width:3;stroke-linecap:round;stroke-linejoin:round;}
	.st1{fill:#1E73B9;}
	.st2{fill:#3AACE1;}
	.st3{fill:#020203;}
	.st4{font-family:'ArialMT';}
	.st5{font-size:15.7843px;}
	.st6{fill:none;stroke:#E52521;stroke-width:4;stroke-linecap:round;stroke-linejoin:round;}
	.st7{fill:none;stroke:#B2B2B2;stroke-width:0.55;stroke-miterlimit:5;}
	.st8{fill:none;stroke:#B2B2B2;stroke-linecap:round;stroke-linejoin:round;}
	.st9{fill:none;stroke:#020203;stroke-linecap:round;stroke-linejoin:round;}
	.st10{fill:none;stroke:#020203;stroke-width:0.5;stroke-linecap:round;stroke-linejoin:round;}
	.st11{fill:none;stroke:#B2B2B2;stroke-width:0.25;stroke-miterlimit:5;}
</style>
<g transform="matrix( 1, 0, 0, 1, 0,0) ">
	<g>
		<path id="Layer3_0_1_STROKES" class="st0" d="M142.5,88.6l-34.4-8.2 M155.9,105.2L110,127.8"/>
	</g>
</g>
<g transform="matrix( 1.701904296875, 0, 0, 1.701904296875, -943.25,-646.75) ">
	<g>
		<g id="Layer3_0_MEMBER_0_FILL">
			<path class="st1" d="M654.5,429.8l-0.2-1.1l-1-0.6l-2.6,1.5l-4.2-2.4l-3.2,1.9v11.7l4.9,2.9l6-3.5l0.2-1V429.8z"/>
		</g>
	</g>
</g>
<g transform="matrix( 1.701904296875, 0, 0, 1.701904296875, -943.25,-646.75) ">
	<g>
		<g id="Layer3_0_MEMBER_1_FILL">
			<path class="st2" d="M643.3,429.2l6.2-3.6l-1.2-0.7l-3,1.7l-9-5.3l-3.2,1.9v11.7l10.4,5.8L643.3,429.2L643.3,429.2z"/>
		</g>
	</g>
</g>
<g transform="matrix( 1.1274871826171875, 0, 0, 1.1274871826171875, 57.2,160.35) ">
	<g>
		<text transform="matrix(0.8869 0 0 0.8869 -17.6904 -65.9747)" class="st3 st4 st5">3351-K1</text>
	</g>
</g>
<g transform="matrix( 1.1274871826171875, 0, 0, 1.1274871826171875, 159,253.1) ">
	<g>
		<text transform="matrix(0.8869 0 0 0.8869 -75.1934 -96.6485)" class="st3 st4 st5">3351-K2</text>
	</g>
</g>
<g transform="matrix( 1, 0, 0, 1, 0,0) ">
	<g>
		<path id="Layer3_0_MEMBER_6_1_STROKES" class="st6" d="M26.8,69.5h79.4v22.7H26.8V69.5z"/>
	</g>
</g>
<g transform="matrix( 1, 0, 0, 1, 0,0) ">
	<g>
		<path id="Layer3_0_MEMBER_7_1_STROKES" class="st6" d="M60.4,127.8h84.5v22.7H60.4V127.8z"/>
	</g>
</g>
<g transform="matrix( 1, 0, 0, 1, 0,0) ">
	<g>
		<path id="Layer3_1_1_STROKES" class="st7" d="M156.7,7.1l0.2-0.2 M170.9,13.8l0.4,1.4v3.2l-1,2.5l-0.8,0.6l-1.8,1.4l-2.4,0.2
			l-2.7-1.1l-1.7-1.4L160,21l-0.5-0.2l-1.7,1l-1.6,0.9l-2.1-0.6l-2-1.8l-1.6-2.7l-0.6-2.7l0.6-2.1l1.6-0.9l1.8-1l0.5-1.1l-0.1-0.3
			V7.7l-0.3-0.9 M166.4,11l0.2,0.5 M170.9,13.8l-0.2-0.6 M160.8,20.8l0.8-0.3l0.9-1.6v-2.3l-0.9-2.6l-1.6-2.4l-2-1.7l-2-0.6
			l-1.6,0.5l0.3-0.2l1.9-2.7 M137.4,2.2l-0.1,69.7 M153.9,11.1l0.2-0.2l1.4,0.4l0.7-0.4 M155.6,11.2l0.7,0.2l2.1,1.8l1.6,2.7
			l0.6,2.8l-0.2,0.8l0.7-0.5 M154.8,9.8l2.1-1.3 M157.9,22l0.6-2.1l-0.5-2.8l-1.6-2.6l-2.1-1.9l-2-0.6 M160.3,19.4l-0.4,1.4
			l-0.4,0.2 M154.4,31.5v-1.7l-0.3-1l0.3-0.5v-0.1l1-2.5l1.8-1.4l0.8-0.5l2.4-0.2l2.9,1l2.8,2.3l2.5,3.1l1.8,3.5l1,3.6v3.3l-1,2.6
			l-0.8,0.5l-1.8,1.4l-2.4,0.2l-2.7-1l-1.7-1.4l-0.8,0.2h-0.1l-0.5-0.1l-1.7,0.9l-1.6,0.9l-2.1-0.6l-2-1.9l-1.6-2.6l-0.6-2.8
			l0.5-2.1l1.6-0.9l1.7-1.1l0.2-0.3l0.5-0.8l0.3-0.2l2.6-3.7l2-1.1l5.9,3.5l3.1,7.8l-3.1,4.3l-2,1.1l-1.8-1.1l-0.1,0.1l-0.8,0.3
			 M169.4,43.3L169.4,43.3l0.9-2.6v-3.2l-0.9-3.6l-1.8-3.5l-2.4-3.1l-2.7-2.2l-2.9-1.1l-2.4,0.2 M166.6,11.5l1.8,4.7l-3.1,4.4
			l-2,1.1l-1.9-1.1l2.4-1.4 M163.4,21.6l3-4.3L164,11 M154.4,6.9V8 M169.4,21.6L169.4,21.6l0.9-2.6v-3.3l-0.6-2.6 M183.3,21.6
			l0.2-0.2 M180.6,21.5L180.6,21.5L180.6,21.5L180.6,21.5l0.6-1.4 M214.6,46.2l-0.2-0.4 M180.6,21.6l-0.3,0.5l0.3,1V21.6z
			 M187.1,34.1l-0.6,0.4l-0.5,1.4l-0.4,0.2l0.5,0.2L187,36l0.8-0.3l0.9-1.6v-2.3l-0.9-2.6l-1.6-2.3l-2-1.7l-1.9-0.6l-1.2,0.5H181
			l-0.3,0.2v0.1l-0.6,0.9l0.3-0.2l1.4,0.5l0.7-0.5 M180.7,25.1l-0.2-0.3v-1.7 M181,25l2.3-3.3 M181,25l2.1-1.3 M166.4,17.3l2-1.1
			 M190.4,26.8l2.2,5.6l2-1.2l-3,4.4l-2,1.1l-2-1.1l2.4-1.4 M184.1,32.3l-1.6-2.7l-2.1-1.9l-2-0.5l-1.6,0.9l-0.6,2.1l0.6,2.8
			l1.6,2.6l2,1.8l2.1,0.6l1.6-0.9l0.6-2.1L184.1,32.3z M181.8,26.3l0.7,0.2l2.1,1.9L186,31l0.7,2.6l-0.2,0.8 M185.7,36l-1.7,1
			 M186.6,38.7l2.8,1l2.9,2.2l2.4,3.1l1.8,3.6l1.1,3.6v3.3l-1.1,2.5l-0.8,0.6l-1.8,1.4l-2.5,0.2l-2.7-1.1l-1.7-1.4l-0.8,0.2
			l-0.4-0.1l-1.7,0.9l-1.6,1l-2.1-0.6l-2-1.9l-1.6-2.6l-0.6-2.7l0.6-2l1.6-1l1.8-1.1l0.5-0.9l-0.1-0.4v-1.8l-0.3-0.9l0.3-0.5
			l1.1-2.6l1.8-1.4l0.8-0.5L186.6,38.7z M195.6,58.5L195.6,58.5l0.9-2.6l0.1-3.2l-1-3.6l-1.8-3.5l-2.5-3.1l-2.7-2.2l-2.9-1.1
			l-2.4,0.2 M197.4,33.6l-1.1,2.5l-0.8,0.5l-1.8,1.4l-2.5,0.2l-2.7-1l-1.7-1.3 M195.6,36.7L195.6,36.7l0.9-2.6 M192.6,32.4l-3,4.3
			 M178.4,27.2l1.7-1.1 M186.9,57.7l0.8-0.2l0.9-1.7v-2.3l-0.9-2.6l-1.6-2.3l-2-1.7l-1.9-0.6l-1.2,0.5H181l-0.3,0.2l-0.1,0.1
			 M180.2,47.9l0.2-0.2l1.4,0.4l0.7-0.4 M181.8,48.1l0.7,0.2l2.1,1.9l1.4,2.6l0.7,2.8l-0.2,0.7l0.6-0.4 M181,46.7l2.1-1.4
			 M184.1,58.8l0.6-2l-0.5-2.7l-1.6-2.6l-2.1-1.8l-2-0.6 M168.5,66l-0.9,0.5l-2.4,0.2l-2.7-1l-1.7-1.4l-0.7,0.2l-0.5-0.2l-1.7,1.1
			l-1.6,0.8l-2.1-0.5l-2-2l-1.6-2.6l-0.6-2.7l0.6-2.1l1.6-0.9l1.7-1.1l0.2-0.3l0.4-0.6l-0.1-0.5v-1.7l-0.3-0.9l0.3-0.5l1-2.6
			l1.8-1.4l0.8-0.5l2.4-0.2l2.9,1l2.8,2.2l2.5,3.1l1.8,3.6l1,3.6V62l-1,2.6l-0.8,0.5l-1.8,1.5 M169.4,65l0.9-2.5v-3.3l-0.9-3.6
			l-1.8-3.6l-2.4-3l-2.7-2.3l-2.9-1l-2.4,0.2 M183.4,61.1l0.8-0.5l2.5-0.3l2.8,1.1l2.9,2.2l2.4,3l1.8,3.5l1.1,3.6v3.3l-1.1,2.5
			l-0.8,0.5l-1.8,1.4l-2.5,0.3l-2.7-1.1l-1.7-1.4l-0.8,0.2l-0.5-0.1l-1.7,0.9l-1.6,0.9l-2.1-0.5l-2-1.8l-1.6-2.7l-0.6-2.7l0.6-2.1
			l1.6-0.9l1.7-1l0.6-1l-0.2-0.4v-1.7l-0.3-0.9l0.3-0.6l1.1-2.5L183.4,61.1l2.4-0.2l2.9,1.1l2.7,2.2l2.5,3l1.8,3.6l1,3.6l-0.1,3.2
			l-0.9,2.5v0.1 M181,46.7l2.6-3.9l2-1.1l6,3.5l3,7.8l-3,4.2l-2,1.2l-2-1.1l2.4-1.5 M186.5,56.2l-0.5,1.4l-0.3,0.2 M191.6,45.3
			l-2,1.1l3,7.8l2-1.1 M192.6,54.3l-3,4.3 M189.6,46.4l-6.1-3.5 M180.6,43.3v1.5 M165.4,30.2l-2,1.1l3,7.8l2-1.2 M154.4,28.2v1.4
			 M161.5,42.3L161.5,42.3l0.9-1.6v-2.3l-0.9-2.6l-1.6-2.3l-2-1.7l-2-0.6l-1.6,0.6 M154.1,32.5l1.5,0.5l0.7-0.4 M155.6,33l0.7,0.2
			l2.1,1.8l1.6,2.6l0.6,2.7l-0.2,0.8l0.7-0.4 M157,30.3l-2.1,1.2 M160.3,41.1l-0.4,1.4 M157.9,43.7l0.6-2.1l-0.5-2.7l-1.6-2.7
			l-2.1-2l-2-0.5 M161.5,42.3L161.5,42.3l2.4-1.4 M163.4,43.4l3-4.3 M163.4,31.3l-6-3.5 M165.4,51.9l-5.9-3.5l-2,1.1l6,3.5
			L165.4,51.9l3.1,7.8l-3.1,4.3l-2,1.1l-1.9-1.1l-0.8,0.3 M154.4,50v1.4 M154.5,53.7l0.1-0.2l0.4-0.2l2.6-3.8 M154.8,53.4l2.1-1.3
			 M161.5,64.1l0.9-1.6v-2.3l-0.9-2.6l-1.6-2.3l-2-1.6l-2-0.7l-1.6,0.6 M154.1,54.3l1.5,0.5l0.7-0.4 M155.6,54.7l0.7,0.2l2.1,1.9
			l1.6,2.6l0.6,2.8l-0.2,0.7l0.7-0.4 M157.9,65.5l0.6-2.1l-0.5-2.7l-1.6-2.6l-2.1-1.9l-2-0.6 M163.4,65.2l3-4.3l-3-7.8 M160.3,62.8
			l-0.4,1.4l-0.4,0.2 M162.2,78.4v-0.5l-0.1-0.1 M186.9,79.5l0.8-0.3l0.9-1.6v-2.3l-0.9-2.6l-1.6-2.4l-2-1.6l-1.9-0.6l-1.6,0.5v0.1
			 M184.1,80.5l0.6-2l-0.5-2.8l-1.6-2.6l-2.1-1.9l-2-0.6 M180.1,69.7l0.3-0.2l2.1,0.6l2.1,1.8l1.4,2.7l0.7,2.7l-0.7,2.1l-0.4,0.3
			 M190.1,77.8l-2.4,1.4l2,1.1l3-4.3l-3-7.8l-6.1-3.5l-2.6,3.8l2.1-1.3 M192.6,76l2-1.1l-3-7.8l-2,1.1 M194.6,74.9l-3,4.4l-2,1.1
			 M183.6,64.7l2-1.3l6,3.5 M180.6,65v1.6 M180.7,68.6l0.3-0.2 M169.3,82.2l0.4,0.5 M180.4,93.9l0.7-0.4h3.9l9,5.2l3.9,4.4l1.1,1.8
			l0.5,2l-0.5,1.4l-1.4,0.8l-1.1,0.5l-3.9-0.1l-3.7,2.2l-9-5.3v-6.1l-1.4-2.2l-0.5-2l0.5-1.4l1.2-0.5L180.4,93.9z M184.1,94.1
			l-0.6,0.5l-3.6,2.1l9,5.1l3.7-2.1l0.6-0.4 M179.7,94.5l3.8,0.1 M164,62.7l-2.4,1.4 M166.4,60.9l2-1.2 M248.2,62.3v-0.5
			 M221.7,51.9l-1.7,1.2l-2.4,0.2l-2.9-1.1l-1.7-1.4l-0.8,0.2l-0.5-0.1l-1.7,0.9l-1.5,1l-2.1-0.6l-2.1-2l-1.4-2.6l-0.7-2.7l0.7-2.1
			l1.4-0.9l1.8-1l0.5-0.8 M208.4,41.2l-0.3,0.2l0.6,0.2l2.1,1.9l1.5,2.6l0.6,2.7l-0.2,0.7l0.8-0.3 M208.1,41.5l-1.5-0.5l-0.3,0.2
			 M204.5,42.2l2.1,0.6l2.1,2l1.5,2.6l0.6,2.8l-0.6,2 M211.9,51.2l0.4-0.2l0.4-1.4 M214.6,46.2l0.2,0.7v2.3l-0.8,1.6l-0.8,0.3
			 M206.4,62.7l0.5-0.7l-0.2-0.3v-1.8l-0.3-0.9l0.3-0.5l0.9-2.6l1.8-1.4l0.8-0.5l2.4-0.2l2.9,1.1l2.9,2.2l2.4,3.1l1.8,3.5l1.1,3.7
			v3.2l-1.1,2.5l-0.8,0.5l-1.8,1.4l-2.4,0.2l-2.9-1L213,73l-0.8,0.3h-0.1l-0.4-0.2l-1.7,1.1l-1.5,0.8l-2.1-0.5l-2.1-1.8L203,70
			l-0.7-2.7l0.7-2l1.4-0.9l1.8-1.1L206.4,62.7l0.2,0.1l1.4,0.5l0.6-0.4 M209.3,60.6l-2,1.2l-0.2,0.2l1.2-0.5l2,0.6l2,1.7l1.6,2.4
			l0.8,2.6V71l-0.8,1.6l2.4-1.4 M206.9,62L206.9,62l0.5-0.3l2.4-3.7l2-1.2l6,3.5l3,7.8l-3,4.3l-2,1.1l-2-1.1l-0.8,0.3 M206.9,62
			l0.3-0.1 M221.8,73.5L221.8,73.5l0.9-2.6l0.1-3.3l-1-3.6l-1.8-3.6l-2.5-3l-2.7-2.2l-2.8-1l-2.5,0.2 M206.8,59.9v-1.4 M206.6,62.8
			l-0.4,0.2 M221.7,51.9l0.4-0.3 M217.9,49l-2.1,2.9l2-1.2l0.7-0.9 M217.8,60.4l-2,1.2l3,7.8l2-1.1 M215.9,61.6l-6.1-3.5
			 M216.3,49.4l-2.4,1.4l1.9,1.1 M215.9,73.6l3-4.3 M204.5,64l2.1,0.6l2.1,1.9l1.5,2.6l0.6,2.8l-0.6,2.1 M211.9,72.9l0.5-0.2
			l0.3-1.4l0.2-0.7l-0.6-2.7l-1.5-2.7l-2.1-1.8l-0.6-0.2 M213.3,71l-0.7,0.4 M212.2,73.1l0.1-0.3 M231.7,126.5v10.1l3.7-2.1v-10.1
			L231.7,126.5l-9-5.1v3.9v6.1l9,5.3 M236,124l-0.7,0.4l3.9,4.4l1.1,2l0.3,2l-0.4,1.3l1.4-0.8l0.5-1.4l-0.5-2l-1.1-1.7l-3.9-4.5
			l-9-5.2h-3.9l-0.7,0.3l-0.8,0.5l3.9,0.1l0.7-0.4 M238,132.1l0.9-0.1v-1.1l-0.9-1.1l-0.9,0.1v1.1L238,132.1z M240.4,133.9l-1.1,0.6
			l-3.9-0.1 M222.7,121.3l3.7-2.1 M222.4,119.1l-1.1,0.5l-0.5,1.4l0.5,1.9l1.4,2.3 M162.2,107.4l80.2,46.1l-0.3-0.2l0.1-0.3l0.8-0.7
			l1.6-0.4l0.2,0.1l0.5,0.1c0.7,0.4,1.7,0.6,3.2,0.8c1.7,0.2,2.8,0.4,3.5,0.7l0.8,0.5l0.5,0.2 M244.6,152l-0.5,1l-0.4,0.5l-0.5,0.3
			h-0.5l-0.4-0.2 M194.4,106.3l0.9,1.2l0.8-0.1v-1.2l-0.8-1.1l-0.9,0.2V106.3z M192.6,99.7l3.9,4.5l1.1,1.9l0.4,1.9l-0.4,1.4
			 M188.9,111.8v-10.2 M248.2,62.3v88.8 M192.6,99.7v10.1 M179.9,96.6v3.8"/>
	</g>
	<g>
		<path id="Layer3_1_2_STROKES" class="st8" d="M166.6,11.5c1.1,0.5,2.1,1.1,3.2,1.7c0.4,0.2,0.7,0.4,1.1,0.6 M137.4,2.2
			c6.3,0.8,12.7,2.3,19.3,4.9c3.2,1.3,6.5,2.7,9.9,4.4 M181.2,20.2c-2.9-2-5.6-3.7-8.1-5.1c-0.8-0.5-1.4-0.8-2.1-1.2 M181.2,20.2
			c0.7,0.5,1.4,0.9,2.1,1.4c2.3,1.6,4.7,3.3,7.2,5.2c4.1,3.2,8.6,6.6,13.4,10.5c1.7,1.4,3.2,2.6,4.7,3.8c2.2,1.8,4.3,3.5,6.2,5
			 M221.7,51.9c3.2,2.6,5.6,4.3,7,5.2c8,5.3,14.3,7,19,5.3c0.2-0.1,0.3-0.1,0.5-0.2 M214.6,46.2c1.2,1,2.3,1.9,3.3,2.8
			c1.4,1.1,2.6,2,3.8,2.9 M136.6,2.1c0.3,0,0.5,0.1,0.8,0.1"/>
	</g>
	<g>
		<path id="Layer3_1_3_STROKES" class="st9" d="M137.3,71.9l6.9-4.1 M159.6,76.8l-15-8.6l-4.6,2.6l15,8.7L159.6,76.8v-5.1l-15-8.6
			v5.1 M162.1,77.8l-10.5,6.1l8.6,5l10.2-5.9 M162.2,77.9v-4.6l6.5,3.8v5l-4.4,2.5l-6.5-3.7l4.4-2.6l6.5,3.8 M162.1,77.8l-2.1-1.2
			 M170.4,83.9l0.2,1.1v16l-0.2,0.7 M151,103.2l-17-9.9V73.8l3.2-1.9 M170.4,102.6l-1.6,0.9v4.4l-3.8-2.2l-2.7,1.6l-2,1.1l-8.6-5
			V83.8 M164.9,105.8l3.8-2.3 M160.2,88.9v19.6 M134,73.8l17,9.8"/>
	</g>
	<g>
		<path id="Layer3_1_4_STROKES" class="st10" d="M163.8,77.1l0.2,0.5l0.3-0.8l0.2-0.2l0.5,0.2l-0.2,0.3l-0.1,0.4v0.5l0.6,0.2
			l0.3,0.1v0.6l-0.7-0.1l-0.3-0.1h-0.1l0,0l0.1,0.1v0.2 M164.4,75.6c0.8-0.4,1.5,0.1,2.2,1.3c0.8,1.2,0.8,2,0,2.5l-0.6,0.3
			c-0.9-0.1-1.7-0.5-2.1-1.3c-0.5-0.8-0.5-1.6-0.1-2.4L164.4,75.6z M151.5,68.9l-0.5-0.2l-0.2,0.2l-0.2,0.8l-0.3-0.4l-0.1,0.7
			c0.1,0.2,0.2,0.5,0.2,0.7c0.2,0.4,0.5,0.6,0.8,0.8c-0.2-0.2-0.2-0.5-0.1-0.7l0.7,0.2h0.3v-0.6l-0.3-0.1l-0.6-0.3v-0.5l0.1-0.4
			L151.5,68.9z M150.2,70c-0.2-0.6-0.1-1.3,0.2-1.8l0.6-0.3c0.7-0.4,1.4,0.1,2.1,1.2c0.7,1.2,0.7,2.1,0,2.6l-0.6,0.3
			c-0.5,0-1-0.2-1.4-0.5"/>
	</g>
	<g>
		<path id="Layer3_1_5_STROKES" class="st11" d="M225.2,128.2c0.2,1.6,0.9,2.6,2.1,3.1c1.2,0.5,1.8,0.1,1.8-1
			c-0.7-0.3-1.2-0.8-1.7-1.7c-0.5-0.7-0.6-1.4-0.6-2.1C225.5,126.1,224.9,126.6,225.2,128.2z M226.9,126.5c1.2,0.5,2,1.4,2.2,3.1
			c0.1,0.2,0.1,0.5,0.1,0.7 M184.1,101.8c-0.1,0.7,0.1,1.4,0.5,2.2c0.5,0.8,1.1,1.3,1.7,1.6c0-0.1,0-0.2,0-0.2
			c0.1-0.7-0.2-1.4-0.6-2.1C185.2,102.6,184.7,102.1,184.1,101.8c-1.4-0.5-2,0.1-1.7,1.7c0.3,1.6,1.1,2.6,2.2,3.1
			c0.5,0.2,0.9,0.2,1.3,0c0.3-0.2,0.5-0.5,0.5-1.1"/>
	</g>
</g>
</svg>
