<svg xmlns="http://www.w3.org/2000/svg" viewBox="0 0 16.7 20.6">
  <path d="M3.8 1.1S3.9 1 4 1s.2 0 .3.1c.2.2.2.4 0 .5-1.4 1.4-2.1 3-2.1 4.9s.7 3.6 2.1 4.9c.2.2.2.4 0 .5-.1.1-.2.1-.3.1-.1 0-.2 0-.3-.1-1.5-1.5-2.3-3.3-2.3-5.5.1-1.9.8-3.7 2.4-5.3zm1.5 1.1c.2.2.2.4 0 .5-1 1.1-1.6 2.4-1.6 3.9s.5 2.8 1.6 3.9c.2.2.2.4 0 .5-.1.1-.2.1-.3.1s-.2 0-.3-.1C3.6 9.9 3 8.4 3 6.6c0-1.7.6-3.2 1.8-4.5h.3c.1 0 .2 0 .2.1zM3.3.1c.2.2.2.4 0 .5C1.7 2.2.8 4.3.8 6.6s.8 4.4 2.5 6c.2.2.2.3 0 .5-.1.1-.2.1-.3.1s-.2 0-.3-.1c-.9-.9-1.6-1.9-2.1-3C.2 9 0 7.9 0 6.6s.2-2.4.7-3.5C1.1 2 1.8 1 2.7.1c.1-.1.2-.1.3-.1s.2 0 .3.1zm5.1 3.6c.8 0 1.5.3 2.1.9s.9 1.3.9 2.1c0 .7-.2 1.3-.6 1.8-.4.5-1 .9-1.6 1.1v10.3c0 .2-.1.4-.2.5-.2.1-.3.2-.5.2s-.4-.1-.5-.2c-.2-.2-.2-.3-.2-.5V9.6C7 9.4 6.4 9.1 6 8.5c-.4-.5-.6-1.1-.6-1.8 0-.9.3-1.6.9-2.1.5-.6 1.3-.9 2.1-.9zm4.1-2.6s.1-.1.2-.1.2 0 .3.1c1.5 1.5 2.3 3.4 2.3 5.5 0 2.2-.8 4-2.3 5.5-.1.1-.2.1-.3.1s-.2 0-.3-.1c-.2-.2-.2-.4 0-.5 1.4-1.4 2.1-3 2.1-4.9s-.7-3.6-2.1-4.9c-.1-.3-.1-.5.1-.7zm-1.1 1.6c-.2-.2-.2-.4 0-.5.2-.2.4-.2.6 0 1.2 1.2 1.8 2.7 1.8 4.5 0 1.7-.6 3.2-1.8 4.5-.1.1-.2.1-.3.1s-.2 0-.3-.1c-.2-.2-.2-.4 0-.5C12.5 9.5 13 8.2 13 6.6s-.5-2.8-1.6-3.9zM13.8 0c.1 0 .2 0 .2.1.9.9 1.6 1.9 2 3 .5 1.1.7 2.3.7 3.5 0 2.6-.9 4.8-2.7 6.5-.1.1-.1.1-.3.1-.1 0-.2 0-.3-.1s-.1-.2-.1-.3 0-.2.1-.3C15.2 11 16 9 16 6.6s-.8-4.4-2.5-6c-.1-.1-.1-.2-.1-.3s0-.2.1-.3h.3z" fill-rule="evenodd" clip-rule="evenodd" fill="#e5e5e5"/>
</svg>
