<svg xmlns="http://www.w3.org/2000/svg" viewBox="0 0 11.6 19.4">
  <path d="M7.5 15.9c0 .3.1.6.3.8.2.3.5.4.8.4s.6-.1.8-.3c.2-.2.3-.5.3-.8 0-.3-.1-.6-.3-.8s-.5-.3-.8-.3-.6 0-.8.2c-.2.2-.3.5-.3.8zm-2.6-.8c-.2.2-.3.5-.3.8 0 .3.1.6.3.8.2.2.5.3.8.3s.6-.1.8-.3c.2-.2.3-.5.3-.8 0-.3-.1-.6-.3-.8-.2-.2-.5-.3-.8-.3-.2 0-.5.1-.8.3zm2-2.2c0-.3-.1-.6-.3-.8-.2-.2-.5-.3-.8-.3s-.6.1-.8.3c-.2.2-.3.5-.3.8s.1.6.3.8c.2.2.5.3.8.3s.6-.1.8-.3.3-.5.3-.8zm.9-.8c-.2.2-.3.5-.3.8s.1.6.3.8c.2.3.5.4.8.4s.6-.1.8-.3.3-.5.3-.8-.1-.6-.3-.8-.5-.3-.8-.3-.6 0-.8.2zM4.9 9.4c-.2.2-.3.5-.3.8s.1.6.3.8c.2.2.5.3.8.3s.6-.1.8-.3c.2-.2.3-.5.3-.8s-.1-.6-.3-.8c-.1-.2-.4-.3-.7-.3-.3 0-.6.1-.9.3zm4.5 0c-.2-.2-.5-.3-.8-.3s-.6.1-.8.3-.3.5-.3.8.1.6.3.8c.2.2.5.3.8.3s.6-.1.8-.3.3-.5.3-.8c0-.3-.1-.6-.3-.8zm.2-1.8V7c0-.3-.1-.5-.4-.5H6.9c-.3 0-.4.2-.4.5v.7c0 .3.1.5.4.5h2.3c.3-.1.4-.2.4-.6zm-7.5 4.5c-.2.2-.3.5-.3.8s.1.6.3.8.5.3.8.3.6-.1.8-.3c.2-.2.3-.5.3-.8s-.1-.6-.3-.8-.5-.3-.8-.3-.6.1-.8.3zm.8 2.7c-.3 0-.6.1-.8.3s-.3.5-.3.8c0 .3.1.6.3.8s.5.3.8.3.6-.1.8-.3c.2-.2.3-.5.3-.8 0-.3-.1-.6-.3-.8-.2-.2-.5-.3-.8-.3zm-1.1-4.6c0 .3.1.6.3.8s.5.3.8.3.6-.1.8-.3c.2-.2.3-.5.3-.8s-.1-.6-.3-.8-.5-.3-.8-.3-.6.1-.8.3c-.2.2-.3.5-.3.8zm.6-3.7c-.3 0-.4.2-.4.5v.7c0 .3.1.4.4.4h2.4c.3 0 .4-.2.4-.5V7c0-.3-.1-.5-.4-.5H2.4zM9.6 0c.6 0 1 .2 1.4.6s.6.8.6 1.4v15.4c0 .6-.2 1-.6 1.4-.4.4-.9.6-1.4.6H2c-.5 0-1-.2-1.4-.6s-.6-.9-.6-1.4V2C0 1.5.2 1 .6.6S1.4 0 2 0h7.6zm.6 4.9c.3-.2.4-.6.4-1V2.8c0-.4-.1-.7-.4-1-.3-.3-.6-.4-1-.4H2.4c-.4 0-.7.1-1 .4-.3.2-.4.6-.4 1v1.1c0 .4.1.7.4 1s.6.4 1 .4h6.8c.4 0 .7-.1 1-.4z" fill-rule="evenodd" clip-rule="evenodd" fill="#e5e5e5"/>
</svg>
