<?xml version="1.0" encoding="iso-8859-1"?>
<!-- Generator: Adobe Illustrator 25.0.0, SVG Export Plug-In . SVG Version: 6.00 Build 0)  -->
<svg version="1.1" id="bleed-scem" xmlns="http://www.w3.org/2000/svg" xmlns:xlink="http://www.w3.org/1999/xlink" x="0px" y="0px"
	 width="642.8px" height="452.1px" viewBox="0 0 642.8 452.1" style="enable-background:new 0 0 642.8 452.1;" xml:space="preserve"
	>
<g id="clp-hintergrund">
	<polygon style="fill:#5FB130;" points="506.1,164.8 455.9,164.8 443.5,143.2 455,123.2 507,123.2 518.6,143.2 	"/>
	<polygon style="fill:#5FB130;" points="506.3,325.5 456.1,325.5 443.7,303.9 455.2,283.9 507.2,283.9 518.8,303.9 	"/>
</g>
<path id="clp-turbine-sov-scem" style="fill:none;" d="M437.4,97.2h-65c-2.3,0-4.1,1.9-4.1,4.1V124c0,2.3,1.9,4.1,4.1,4.1h11.7v33
	c0,2,1.6,3.6,3.6,3.6H422c2,0,3.6-1.6,3.6-3.6v-33h11.7c2.2,0,4.1-1.8,4.1-4.1v-22.7C441.5,99,439.6,97.2,437.4,97.2z M372.4,350.7
	h65c2.3,0,4.1-1.9,4.1-4.1v-22.7c0-2.3-1.9-4.1-4.1-4.1h-11.7v-33c0-2-1.6-3.6-3.6-3.6h-34.3c-2,0-3.6,1.6-3.6,3.6v33h-11.7
	c-2.2,0-4.1,1.8-4.1,4.1v22.7C368.3,348.9,370.2,350.7,372.4,350.7z"/>
<path id="clp-pack-byp-vlv-scem" style="fill:none;" d="M550,165.8h-34.3c-2,0-3.6,1.6-3.6,3.6v0.7h-49.3c-2.3,0-4.1,1.9-4.1,4.1
	v24.7c0,2.3,1.9,4.1,4.1,4.1h49.3v0.7c0,2,1.6,3.6,3.6,3.6H550c2,0,3.6-1.6,3.6-3.6v-34.3C553.6,167.4,552,165.8,550,165.8z
	 M550,239.5h-34.3c-2,0-3.6,1.6-3.6,3.6v0.7h-49.3c-2.3,0-4.1,1.9-4.1,4.1v24.7c0,2.3,1.9,4.1,4.1,4.1h49.3v0.7c0,2,1.6,3.6,3.6,3.6
	H550c2,0,3.6-1.6,3.6-3.6v-34.3C553.6,241.1,552,239.5,550,239.5z"/>
<path id="clp-heat-exch-scem" style="fill:none;" d="M441.3,245.2h-63.6v-1.4c0-2-1.6-3.6-3.6-3.6h-34.3c-2,0-3.6,1.6-3.6,3.6v34.3
	c0,2,1.6,3.6,3.6,3.6h34.3c2,0,3.6-1.6,3.6-3.6v-1.4h63.6c2,0,3.7-1.6,3.7-3.7v-24.2C445,246.9,443.3,245.2,441.3,245.2z
	 M441.3,171.2h-63.6v-1.4c0-2-1.6-3.6-3.6-3.6h-34.3c-2,0-3.6,1.6-3.6,3.6v34.3c0,2,1.6,3.6,3.6,3.6h34.3c2,0,3.6-1.6,3.6-3.6v-1.4
	h63.6c2,0,3.7-1.6,3.7-3.7v-24.2C445,172.9,443.3,171.2,441.3,171.2z"/>
<path id="clp-pack-flowcont-sov-scem" style="fill:none;" d="M327.9,237.6h-6.1v-31c0-2-1.6-3.6-3.6-3.6h-34.3c-2,0-3.6,1.6-3.6,3.6
	v31H274c-2,0-3.7,1.6-3.7,3.7v24.2c0,2,1.6,3.7,3.7,3.7h53.8c2,0,3.7-1.6,3.7-3.7v-24.2C331.5,239.2,329.9,237.6,327.9,237.6z"/>
<path id="clp-nac-sov-scem" style="fill:none;" d="M212.6,100.2h-62c-2.3,0-4.1,1.9-4.1,4.1V127c0,2.3,1.9,4.1,4.1,4.1h10.2v30.2
	c0,2,1.6,3.6,3.6,3.6h34.3c2,0,3.6-1.6,3.6-3.6v-30.2h10.2c2.2,0,4.1-1.8,4.1-4.1v-22.7C216.7,102,214.8,100.2,212.6,100.2z
	 M212.6,348.9h-62c-2.3,0-4.1-1.9-4.1-4.1v-22.7c0-2.3,1.9-4.1,4.1-4.1h10.2v-30.2c0-2,1.6-3.6,3.6-3.6h34.3c2,0,3.6,1.6,3.6,3.6
	V318h10.2c2.2,0,4.1,1.8,4.1,4.1v22.7C216.7,347.1,214.8,348.9,212.6,348.9z"/>
<path id="clp-hp-sov-scem" style="fill:none;stroke:#0099FF;stroke-width:0.75;stroke-miterlimit:10;" d="M113.7,402H5.4
	c-2,0-3.6-1.6-3.6-3.6v-34.3c0-2,1.6-3.6,3.6-3.6h108.3c2,0,3.6,1.6,3.6,3.6v34.3C117.3,400.4,115.7,402,113.7,402z M113.7,90H5.4
	c-2,0-3.6-1.6-3.6-3.6V52.1c0-2,1.6-3.6,3.6-3.6h108.3c2,0,3.6,1.6,3.6,3.6v34.3C117.3,88.4,115.7,90,113.7,90z"/>
<path id="clp-apu-bl-vlv-scem" style="fill:none;" d="M323.6,147.5h-74.5c-1.3,0-2.4-1.1-2.4-2.4v-32.6c0-1.3,1.1-2.4,2.4-2.4h74.5
	c1.3,0,2.4,1.1,2.4,2.4V145C326,146.4,324.9,147.5,323.6,147.5z"/>
<path id="clp-air-cond-pack-scem" style="fill:none;" d="M512.7,117.9h-62.2l-13.7,24.4l14.8,26.4h60l14.9-26.4L512.7,117.9z
	 M512.7,278.9h-62.2l-13.7,24.4l14.8,26.4h60l14.9-26.4L512.7,278.9z"/>
<path id="clp-wing-ckvlv-scem" style="fill:none;" d="M239.3,211.2h-19.1c-1.7,0-3.1-1.4-3.1-3.1v-45.1c0-1.7,1.4-3.1,3.1-3.1h19.1
	c1.7,0,3.1,1.4,3.1,3.1v45.1C242.3,209.9,241,211.2,239.3,211.2z M242,288.6v-45.1c0-1.7-1.4-3.1-3.1-3.1h-19.1
	c-1.7,0-3.1,1.4-3.1,3.1v45.1c0,1.7,1.4,3.1,3.1,3.1h19.1C240.6,291.7,242,290.3,242,288.6z"/>
<path id="clp-apu-ckvlv-scem" style="fill:none;" d="M273.8,203.4h-19.1c-1.7,0-3.1-1.4-3.1-3.1v-45.1c0-1.7,1.4-3.1,3.1-3.1h19.1
	c1.7,0,3.1,1.4,3.1,3.1v45.1C276.9,202,275.5,203.4,273.8,203.4z"/>
<g id="clp-system">
	<path style="fill:#FBBE4B;" d="M558.8,143.2l29.7,70c0.9,1.5,2.1,2.7,4.2,2.8h32.7c2.5,0.5,4.4,1.8,4.5,5.7v159.1
		c-0.4,2.8-2,4.4-4.9,4.9h-50.2v-13.9h35.9c2.9-0.3,5-1.7,5.2-5.3V235.2c-0.3-3.4-2.2-4.7-4.8-5.2l-17.6,0.1
		c-1.9,0.2-3.2,1.2-4.3,3.5l-30,71.4c-1.3,1.4-2.7,2.2-4.3,2.7l-12.4-0.2l0.1-7.2l7.1-0.1c1.9-0.2,3.4-1.2,4.7-3.1l29.9-70.5
		c0.3-1.3,0.4-2.7,0-4l-30.5-71.8c-0.9-1.8-2.4-2.6-4.3-2.6h-6v-7.5h10.8C556.3,140.4,557.8,141.3,558.8,143.2z"/>
	<path style="fill:#4AC1EE;" d="M518.6,303.7l-2.3-3.7l25.2-0.2l7.6,4.1l-5.6,3.4l-26.9,0.3L518.6,303.7z"/>
	<rect x="342.1" y="169.9" style="fill:#5FB130;" width="28.6" height="33.8"/>
	<rect x="342.1" y="244.1" style="fill:#5FB130;" width="28.6" height="33.8"/>
	<path style="fill:#4AC1EE;" d="M357.8,140.3c-2.4,0-5.2,2.1-5.3,4.9v2.6l0.1,0.1v22.3h7.5v-18.3c0.4-2.1,2.5-4.1,4.7-4.1h81.3
		l-2.6-4.6l1.6-2.9H357.8z"/>
	<path style="fill:#4AC1EE;" d="M515.8,147.9l25.4-0.1l7.6-4.1l-5.6-3.4l-26.3,0.1l1.7,2.8L515.8,147.9z"/>
	<rect x="390" y="129.8" style="fill:#0099FF;" width="29.2" height="29.1"/>
	<rect x="250.3" y="113.8" style="fill:#0099FF;" width="28.9" height="29.3"/>
	<rect x="167.2" y="129.6" style="fill:#0099FF;" width="29.4" height="29.3"/>
	<rect x="286.2" y="208.5" style="fill:#0099FF;" width="29.4" height="29.3"/>
	<rect x="167.3" y="289.3" style="fill:#0099FF;" width="28.9" height="29.3"/>
	<rect x="82" y="365.9" style="fill:#0099FF;" width="28.9" height="29.4"/>
	<rect x="390" y="289.4" style="fill:#0099FF;" width="29.3" height="29.3"/>
	<rect x="518.7" y="171.3" style="fill:#0099FF;" width="28.9" height="29.3"/>
	<rect x="518.7" y="245.8" style="fill:#0099FF;" width="28.9" height="29.3"/>
	<rect x="82.4" y="54.8" style="fill:#0099FF;" width="28.9" height="29.3"/>
	<rect x="223" y="247" style="fill:#0099FF;stroke:#000000;stroke-width:0.55;stroke-linecap:round;" width="13.5" height="38.5"/>
	<rect x="222.7" y="165.6" style="fill:#0099FF;" width="13.5" height="38.5"/>
	<rect x="258" y="157.2" style="fill:#0099FF;" width="13.5" height="38.5"/>
	<path style="fill:#4AC1EE;" d="M357.8,307.3c-2.4,0-5.2-2.1-5.3-4.9v-2.6l0.1-0.1v-22h7.5v18c0.4,2.1,2.5,4.1,4.7,4.1l80.8,0.3
		l-2.1,3.6l2.1,3.9L357.8,307.3z"/>
	<path style="fill:#E94B33;" d="M541.7,300.1c-2.8-0.7-4.3-2.3-4.5-5.1l-0.1-142c0.2-2.8,1.8-4.5,4.5-5.1h2.2l5.3-4.2
		c-7.1-0.7-15.2,0.5-24.5,4.1c2.8,0.4,4.7,1.8,4.9,5.1v61.5c0,2.6-1.8,4.5-4.2,5H364.9c-3.2-0.5-4.7-2.3-4.8-5.5v-10.2h-7.5V214
		c0,3.2-1.8,4.7-4.5,5.4h-75.4c-2.5-0.8-4.1-2.6-4.2-5.2v-18.6H261v18.7c0,2.7-1.3,4.3-3.4,5.1h-24.1v-68.3l0.1-5.8c0-2-2.2-5-5.4-5
		l-90.9-0.1c-3.2,0-4.8-2.8-4.8-5.4L132.3,49h-7.5v41.3h-24.4V48.7h-7.6L93,97.8h31.9v44.8c0.1,2.7,2,5.2,5.5,5.3l6.3-0.1l83.3,0.1
		c3.7-0.1,5.9,2.4,6,4.8V296c-1.1,2.8-3.1,4.1-6.2,3.9L136,300h-5.5c-4.6,0-6.1,3-6,5.4v46.5H92.8L92.6,401h7.6v-41.6h24.3v42.2h7.5
		v-87.9c0.1-4.3,3-6.1,5.1-6.1l90.8-0.1c2.7-0.1,5.7-0.7,5.5-7.5v-4.2V227h114.8c2.7,0.7,4.3,2.2,4.3,5.3v11.8h7.5v-11.7
		c0.1-3.1,1.5-4.9,4.5-5.4h159.4c3,0,5.5,2,5.5,5.1v61.5h0.1v1.6c-0.1,3.3-2,4.7-4.9,5.1c9.3,3.6,17.2,4.4,24.4,3.7l-5.1-3.9
		L541.7,300.1L541.7,300.1z"/>
	<g>
		<path id="units_0_Layer4_0_1_STROKES" style="fill:none;stroke:#000000;stroke-width:0.55;" d="M271.8,157.2v38.5h-13.5v-38.5
			H271.8z"/>
		<path id="units_0_Layer4_0_2_STROKES" style="fill:none;stroke:#000000;stroke-width:0.55;stroke-linecap:round;" d="M137.1,140.4
			h30.1 M129.6,147.9h37.6 M129.7,300.1H167 M137.2,307.6h30"/>
		<path id="units_0_Layer4_0_MEMBER_0_1_STROKES" style="fill:none;stroke:#000000;stroke-width:0.55;stroke-linecap:round;" d="
			M132.3,135.4V48.9 M124.7,348.1h-47v99.1h66.9v-99.1h-12.4V401 M132.2,348.1v-35 M124.7,305.1v47 M124.7,400.4v-40.8 M124.7,5.1
			h-47v99.1h66.9V5.1h-12.4H124.7"/>
		<path id="units_0_Layer4_0_MEMBER_1_1_STROKES" style="fill:none;stroke:#000000;stroke-width:0.55;" d="M236.4,165.6v38.5h-13.5
			v-38.5H236.4z"/>
		<path id="units_0_Layer4_0_MEMBER_2_1_STROKES" style="fill:none;stroke:#000000;stroke-width:0.55;" d="M229.7,193.2v-20.8"/>
		<path d="M233,192.2h-6.6l3.2,5.6L233,192.2z"/>
		<path id="units_0_Layer4_0_MEMBER_4_1_STROKES" style="fill:none;stroke:#000000;stroke-width:0.55;" d="M226.4,192.2l3.2,5.6
			l3.3-5.6H226.4z"/>
		<path id="units_0_Layer4_0_MEMBER_5_1_STROKES" style="fill:none;stroke:#000000;stroke-width:0.55;stroke-linecap:round;" d="
			M194,147.9h27 M193.9,140.4h34.5 M233.5,226.9V247 M226,204v43 M233.5,204v15.4 M193.9,307.6h34.8 M193.8,300.1h27.5"/>
		<path id="units_0_Layer4_0_MEMBER_6_1_STROKES" style="fill:none;stroke:#000000;stroke-width:0.55;" d="M236.5,247v38.5H223V247
			H236.5L236.5,247z"/>
		<path id="units_0_Layer4_0_MEMBER_7_1_STROKES" style="fill:none;stroke:#000000;stroke-width:0.55;" d="M229.7,257.9v20.8"/>
		<path d="M226.5,258.8h6.5l-3.2-5.6L226.5,258.8z"/>
		<path id="units_0_Layer4_0_MEMBER_9_1_STROKES" style="fill:none;stroke:#000000;stroke-width:0.55;" d="M233,258.8l-3.2-5.6
			l-3.3,5.6H233z"/>
		<path id="units_0_Layer4_0_MEMBER_10_1_STROKES" style="fill:none;stroke:#000000;stroke-width:0.55;stroke-linecap:round;" d="
			M541.9,147.9h7.6 M515.8,147.9h8.9 M558.8,143.2l29.7,70 M553.8,150.5l30.5,71.8 M529.5,214.5v-61.4 M516.9,140.4h37.4 M541.8,300
			h7.8 M516.3,300h7.6 M516.3,307.5h38.1 M629.9,380.8V221.6 M616,366.2v-131 M537,295.4V152.6 M559.2,304.5l30.5-71.8 M554.3,296.9
			l29.9-70.5 M529.5,294.8v-63.1 M592.5,216h32.9 M594.5,229.9h16.7 M446.1,147.8h-26.9 M445.1,140.3h-25.8 M360.1,153.2V170
			 M352.6,145.3v24.6 M315.8,226.9H348 M315.7,219.4H348 M360.1,203.7v10.8 M352.6,203.7v10.6 M352.6,244v-11.9 M360.1,231.8V244
			 M389.9,147.9h-25.2 M389.9,140.4h-32.6 M268.5,214.3v-18.6 M261,214.4v-18.8 M256.1,219.4h-22.6 M445.6,307.6h-26.4 M445.6,300.1
			h-26.3 M390.1,307.6h-32.4 M390.2,300.1h-25 M352.6,277.8v24.9 M360.1,294.9v-17 M233.7,226.9h52.4 M273.8,219.4h12.4
			 M524.7,226.9H364.4 M524.3,219.4H365"/>
		<path id="units_0_Layer4_0_MEMBER_11_1_STROKES" style="fill:none;stroke:#000000;stroke-width:0.55;stroke-linecap:round;" d="
			M529.5,153.1c0-1.4-0.5-2.6-1.4-3.6c-1-1-2.1-1.6-3.5-1.7 M558.8,143.2c-0.5-0.9-1.1-1.6-2-2.1s-1.8-0.7-2.8-0.7 M553.8,150.5
			c-0.9-1.7-2.4-2.6-4.3-2.7 M541.9,147.9c-1.3,0.1-2.3,0.6-3.2,1.5s-1.4,1.9-1.6,3.2 M588.4,212.8c0.4,0.9,1,1.6,1.8,2.2
			c0.8,0.5,1.6,0.9,2.6,0.9 M584.2,226.4c0.3-0.6,0.4-1.2,0.4-2c0-0.7-0.1-1.4-0.4-2 M616,235.2c0-1.3-0.5-2.5-1.4-3.5
			s-2-1.6-3.4-1.8 M629.9,221.7l0.1-0.5c0-1.4-0.5-2.6-1.4-3.6s-2-1.6-3.4-1.7 M529.5,231.7c-0.1-1.3-0.6-2.4-1.5-3.3
			c-0.9-0.9-2-1.4-3.2-1.5 M524.3,219.4c1.4,0,2.5-0.5,3.5-1.4s1.5-2.1,1.7-3.4 M549.7,300c1,0,2-0.3,2.8-0.9s1.4-1.3,1.8-2.2
			 M554.4,307.5c1,0,2-0.3,2.8-0.8c0.8-0.6,1.5-1.3,2-2.2 M537,295.4c0.2,1.2,0.7,2.3,1.6,3.2c0.9,0.9,2,1.3,3.2,1.4 M523.9,300
			L523.9,300c1.5,0,3-0.4,4.1-1.5c1-1,1.5-2.2,1.5-3.7 M610.7,371.7c1.4,0,2.7-0.5,3.7-1.6c1-1,1.5-2.3,1.5-3.8 M625,385.6
			c1.3-0.1,2.5-0.6,3.4-1.5s1.5-2.1,1.5-3.4 M357.3,140.4c-1.3,0.1-2.4,0.6-3.2,1.6c-0.9,0.9-1.4,2-1.5,3.3 M364.8,147.9
			c-1.3,0.2-2.5,0.8-3.3,1.8c-0.9,1-1.4,2.2-1.4,3.5 M360.1,214.5c0.1,1.3,0.6,2.5,1.5,3.4s2.1,1.4,3.4,1.6 M347.9,219.4
			c1.3-0.1,2.4-0.7,3.2-1.7c0.9-1,1.4-2.1,1.4-3.4 M364.4,226.9c-1.3,0.2-2.4,0.9-3.2,1.9c-0.7,0.9-1.1,1.9-1.2,3v0.6 M352.6,232.2
			c0-1.3-0.4-2.5-1.3-3.5s-1.9-1.6-3.2-1.8 M352.6,302.8c0.1,1.4,0.7,2.5,1.7,3.5c1,0.9,2.1,1.4,3.5,1.4 M360.1,294.9
			c0,1.5,0.5,2.7,1.5,3.7s2.3,1.5,3.8,1.5"/>
		<path id="units_0_Layer4_0_MEMBER_15_1_STROKES" style="fill:none;stroke:#000000;stroke-width:0.55;stroke-linecap:round;" d="
			M167.2,158.5h29.3v-29h-29.3V158.5z"/>
		<path id="units_0_Layer4_0_MEMBER_19_1_STROKES" style="fill:none;stroke:#000000;stroke-width:0.55;stroke-linecap:round;" d="
			M167.2,140.4h29.2v7.5h-29.2V140.4z"/>
		<path id="units_0_Layer4_0_MEMBER_34_1_STROKES" style="fill:none;stroke:#000000;stroke-width:0.55;stroke-linecap:round;" d="
			M390,140.4h29.3v7.5H390V140.4z"/>
		<path id="units_0_Layer4_0_MEMBER_39_1_STROKES" style="fill:none;stroke:#000000;stroke-width:0.55;stroke-linecap:round;" d="
			M390,300.1h29.3v7.5H390"/>
		<path id="units_0_Layer4_0_MEMBER_40_1_STROKES" style="fill:none;stroke:#000000;stroke-width:0.55;stroke-linecap:round;" d="
			M547.9,171.3h-29.1v29.2h29.1V171.3z"/>
		<path id="units_0_Layer4_0_MEMBER_44_1_STROKES" style="fill:none;stroke:#000000;stroke-width:0.55;stroke-linecap:round;" d="
			M537,200.6h-7.5v-29.2h7.5V200.6z"/>
		<path id="units_0_Layer4_0_MEMBER_45_1_STROKES" style="fill:none;stroke:#000000;stroke-width:0.55;stroke-linecap:round;" d="
			M518.9,245.7V275H548v-29.3H518.9L518.9,245.7z"/>
		<g>
			<path style="fill:#1D1D1B;" d="M523.2,250c-2.8,2.8-4.2,6.2-4.2,10.2s1.4,7.4,4.2,10.2c1.8,1.8,3.9,3.1,6.3,3.7v-27.8
				C527.2,246.9,525,248.2,523.2,250z"/>
			<path style="fill:#1D1D1B;" d="M547.8,260.2c0-4-1.4-7.4-4.2-10.2c-1.9-1.9-4.1-3.2-6.6-3.8v27.9c2.5-0.6,4.7-1.8,6.6-3.8
				C546.4,267.6,547.8,264.2,547.8,260.2z"/>
			<path style="fill:#1D1D1B;" d="M529.5,274.1v0.9h7.5v-0.8c-1.1,0.3-2.3,0.4-3.6,0.4C532,274.6,530.7,274.4,529.5,274.1z"/>
			<path style="fill:#1D1D1B;" d="M537,246.2v-0.5h-7.5v0.6c1.2-0.3,2.5-0.5,3.9-0.5C534.7,245.8,535.9,246,537,246.2z"/>
		</g>
		<path id="units_0_Layer4_0_MEMBER_49_1_STROKES" style="fill:none;stroke:#000000;stroke-width:0.55;stroke-linecap:round;" d="
			M537,245.7V275h-7.5v-29.3H537L537,245.7z"/>
		<path id="units_0_Layer4_0_MEMBER_50_1_STROKES" style="fill:none;stroke:#000000;stroke-width:0.55;stroke-linecap:round;" d="
			M507,123.2h-52l-11.5,20l12.4,21.6h50.2l12.5-21.6L507,123.2z M594.4,229.9c-1.1,0-2,0.3-2.9,0.8c-0.8,0.5-1.5,1.3-2,2.2
			 M507,283.8h-52l-11.5,19.9l12.4,21.6h50.2l12.5-21.6L507,283.8z M574.8,371.7h35.9 M574.8,385.6H625 M360.1,203.7h10.6v-33.8
			h-10.6 M352.6,169.9h-10.5v33.8h10.5 M352.6,244h-10.5v33.8h10.5 M360.1,287.5v-9.7h10.6V244h-10.6"/>
		<g>
			<text transform="matrix(1 0 0 1 377.0999 112.7391)" style="font-family:'ArialMT'; font-size:13px;">TURBINE</text>
			<text transform="matrix(1 0 0 1 391.8999 124.7391)" style="font-family:'ArialMT'; font-size:13px;">SOV</text>
		</g>
		<g>
			<text transform="matrix(1 0 0 1 288.5451 127.0694)" style="font-family:'ArialMT'; font-size:13px;">APU</text>
			<text transform="matrix(1 0 0 1 288.1451 139.0694)" style="font-family:'ArialMT'; font-size:13px;">SOV</text>
		</g>
		<g>
			<text transform="matrix(1 0 0 1 376.2955 332.8493)" style="font-family:'ArialMT'; font-size:13px;">TURBINE</text>
			<text transform="matrix(1 0 0 1 391.0955 344.8493)" style="font-family:'ArialMT'; font-size:13px;">SOV</text>
		</g>
		<g>
			<text transform="matrix(1 0 0 1 247.9467 70.5451)" style="font-family:'ArialMT'; font-size:11.5px;">FROM</text>
		</g>
		<g>
			<text transform="matrix(1 0 0 1 252.5467 83.2451)" style="font-family:'ArialMT'; font-size:11.5px;">APU</text>
		</g>
		<path id="units_0_Layer4_0_MEMBER_63_1_STROKES" style="fill:none;stroke:#000000;stroke-width:0.55;stroke-linecap:round;" d="
			M100.2,400.6v-5.3"/>
		<path id="units_0_Layer4_0_MEMBER_64_1_STROKES" style="fill:none;stroke:#000000;stroke-width:0.55;stroke-linecap:round;" d="
			M92.6,400.6v-5.3"/>
		<path id="units_0_Layer4_0_MEMBER_65_1_STROKES" style="fill:none;stroke:#000000;stroke-width:0.55;stroke-linecap:round;" d="
			M100.2,366v-6.5"/>
		<path id="units_0_Layer4_0_MEMBER_66_1_STROKES" style="fill:none;stroke:#000000;stroke-width:0.55;stroke-linecap:round;" d="
			M92.7,366v-13.9"/>
		<path id="units_0_Layer4_0_MEMBER_67_1_STROKES" style="fill:none;stroke:#000000;stroke-width:0.55;stroke-linecap:round;" d="
			M82,366v29.3h29V366H82z"/>
		<path id="units_0_Layer4_0_MEMBER_72_1_STROKES" style="fill:none;stroke:#000000;stroke-width:0.55;stroke-linecap:round;" d="
			M100.2,359.5h24.5"/>
		<path id="units_0_Layer4_0_MEMBER_73_1_STROKES" style="fill:none;stroke:#000000;stroke-width:0.55;stroke-linecap:round;" d="
			M92.7,352.1h32"/>
		<path id="units_0_Layer4_0_MEMBER_74_1_STROKES" style="fill:none;stroke:#000000;stroke-width:0.55;stroke-linecap:round;" d="
			M268.4,113.9v-14"/>
		<path id="units_0_Layer4_0_MEMBER_75_1_STROKES" style="fill:none;stroke:#000000;stroke-width:0.55;stroke-linecap:round;" d="
			M260.9,113.9v-14"/>
		<path id="units_0_Layer4_0_MEMBER_76_1_STROKES" style="fill:none;stroke:#000000;stroke-width:0.55;stroke-linecap:round;" d="
			M250.3,143.1h29v-29.3h-29L250.3,143.1L250.3,143.1z"/>
		<path d="M264.8,142.7c4,0,7.4-1.4,10.2-4.2c2.8-2.8,4.2-6.2,4.2-10.2c0-4-1.4-7.4-4.2-10.2c-2.8-2.8-6.2-4.2-10.2-4.2
			s-7.4,1.4-10.2,4.2c-2.8,2.8-4.2,6.2-4.2,10.2c0,4,1.4,7.4,4.2,10.2C257.5,141.3,260.9,142.7,264.8,142.7z"/>
		<path id="units_0_Layer4_0_MEMBER_78_1_STROKES" style="fill:none;stroke:#000000;stroke-width:0.55;stroke-linecap:round;" d="
			M275,138.5c2.8-2.8,4.2-6.2,4.2-10.2c0-4-1.4-7.4-4.2-10.2c-2.8-2.8-6.2-4.2-10.2-4.2s-7.4,1.4-10.2,4.2
			c-2.8,2.8-4.2,6.2-4.2,10.2c0,4,1.4,7.4,4.2,10.2s6.2,4.2,10.2,4.2S272.2,141.3,275,138.5z"/>
		<path style="fill:#FFFFFF;" d="M260.9,143.1h7.5v-29.2h-7.5V143.1L260.9,143.1z"/>
		<path id="units_0_Layer4_0_MEMBER_80_1_STROKES" style="fill:none;stroke:#000000;stroke-width:0.55;stroke-linecap:round;" d="
			M260.9,143.1v-29.2h7.5v29.2H260.9z"/>
		
			<path id="units_0_Layer4_0_MEMBER_81_MEMBER_0_1_STROKES" style="fill:none;stroke:#000000;stroke-width:0.55;stroke-linecap:round;" d="
			M124.8,143.1v-45"/>
		
			<path id="units_0_Layer4_0_MEMBER_81_MEMBER_1_1_STROKES" style="fill:none;stroke:#000000;stroke-width:0.55;stroke-linecap:round;" d="
			M124.8,90.4V48.8"/>
		
			<path id="units_0_Layer4_0_MEMBER_81_MEMBER_4_1_STROKES" style="fill:none;stroke:#000000;stroke-width:0.55;stroke-linecap:round;" d="
			M100.3,90.5V48.4"/>
		
			<path id="units_0_Layer4_0_MEMBER_81_MEMBER_5_1_STROKES" style="fill:none;stroke:#000000;stroke-width:0.55;stroke-linecap:round;" d="
			M92.9,98l-0.1-49.6"/>
		
			<path id="units_0_Layer4_0_MEMBER_81_MEMBER_6_1_STROKES" style="fill:none;stroke:#000000;stroke-width:0.55;stroke-linecap:round;" d="
			M111.1,54.7h-29v29.2h29V54.7z"/>
		
			<path id="units_0_Layer4_0_MEMBER_81_MEMBER_11_1_STROKES" style="fill:none;stroke:#000000;stroke-width:0.55;stroke-linecap:round;" d="
			M100.3,90.5h24.5"/>
		
			<path id="units_0_Layer4_0_MEMBER_81_MEMBER_12_1_STROKES" style="fill:none;stroke:#000000;stroke-width:0.55;stroke-linecap:round;" d="
			M92.9,98h31.9"/>
		<path id="units_0_Layer4_0_MEMBER_89_1_STROKES" style="fill:none;stroke:#000000;stroke-width:0.55;" d="M229.7,193.2v-20.8"/>
		<path id="units_0_Layer4_0_MEMBER_90_1_STROKES" style="fill:none;stroke:#000000;stroke-width:0.55;" d="M226.4,192.2l3.2,5.6
			l3.3-5.6H226.4z"/>
		<path d="M268.2,182.5h-6.6l3.2,5.6L268.2,182.5z"/>
		<path id="units_0_Layer4_0_MEMBER_92_1_STROKES" style="fill:none;stroke:#000000;stroke-width:0.55;" d="M264.9,183.4v-20.8"/>
		<path id="units_0_Layer4_0_MEMBER_93_1_STROKES" style="fill:none;stroke:#000000;stroke-width:0.55;" d="M261.7,182.5l3.2,5.6
			l3.3-5.6H261.7z"/>
		<g>
			<path style="fill:none;stroke:#00FF33;stroke-miterlimit:10;" d="M287,55h-44.9c-3.6,0-6.5,2.9-6.5,6.5v24.4
				c0,3.6,2.9,6.5,6.5,6.5h15.4h14.1H287c3.6,0,6.5-2.9,6.5-6.5V61.5C293.5,58,290.6,55,287,55z"/>
			<path style="fill:#00FF33;stroke:#FFFFFF;stroke-miterlimit:10;" d="M257.1,87.2h14.5l-7.1,14.2L257.1,87.2z"/>
		</g>
		<text transform="matrix(1 0 0 1 372.8996 183.4866)" style="font-family:'ArialMT'; font-size:13px;">SEC. HEAT </text>
		<text transform="matrix(1 0 0 1 372.8996 195.4866)" style="font-family:'ArialMT'; font-size:13px;">EXCH.</text>
		<text transform="matrix(1 0 0 1 372.8996 258.4867)" style="font-family:'ArialMT'; font-size:13px;">SEC. HEAT </text>
		<text transform="matrix(1 0 0 1 372.8996 270.4867)" style="font-family:'ArialMT'; font-size:13px;">EXCH.</text>
		<text transform="matrix(1 0 0 1 465.0103 184.942)" style="font-family:'ArialMT'; font-size:13px;">BYPASS</text>
		<text transform="matrix(1 0 0 1 475.1103 196.942)" style="font-family:'ArialMT'; font-size:13px;">VALVE</text>
		<text transform="matrix(1 0 0 1 464.5767 258.2871)" style="font-family:'ArialMT'; font-size:13px;">BYPASS</text>
		<text transform="matrix(1 0 0 1 474.6767 270.2871)" style="font-family:'ArialMT'; font-size:13px;">VALVE</text>
		<text transform="matrix(1 0 0 1 283.8332 251.1917)" style="font-family:'ArialMT'; font-size:13px;">PACK</text>
		<text transform="matrix(1 0 0 1 279.1332 263.1917)" style="font-family:'ArialMT'; font-size:13px;">FCSOV</text>
		<text transform="matrix(1 0 0 1 152.5206 115.7738)" style="font-family:'ArialMT'; font-size:13px;">NACELLE</text>
		<text transform="matrix(1 0 0 1 159.7206 127.7738)" style="font-family:'ArialMT'; font-size:13px;">FCSOV</text>
		<text transform="matrix(1 0 0 1 152.6182 331.5373)" style="font-family:'ArialMT'; font-size:13px;">NACELLE</text>
		<text transform="matrix(1 0 0 1 159.8182 343.5372)" style="font-family:'ArialMT'; font-size:13px;">FCSOV</text>
		<text transform="matrix(1 0 0 1 41.8684 61.3527)" style="font-family:'ArialMT'; font-size:13px;">HIGH</text>
		<text transform="matrix(1 0 0 1 2.8684 73.3528)" style="font-family:'ArialMT'; font-size:13px;">PRESSURE</text>
		<text transform="matrix(1 0 0 1 46.8684 85.3528)" style="font-family:'ArialMT'; font-size:13px;">SOV</text>
		<text transform="matrix(1 0 0 1 43.0495 374.6346)" style="font-family:'ArialMT'; font-size:13px;">HIGH</text>
		<text transform="matrix(1 0 0 1 4.0495 386.6346)" style="font-family:'ArialMT'; font-size:13px;">PRESSURE</text>
		<text transform="matrix(1 0 0 1 48.0495 398.6346)" style="font-family:'ArialMT'; font-size:13px;">SOV</text>
		<text transform="matrix(1 0 0 1 147.9267 445.2907)" style="font-family:'ArialMT'; font-size:13px;">ENG 1</text>
		<text transform="matrix(1 0 0 1 147.9265 17.19)" style="font-family:'ArialMT'; font-size:13px;">ENG 2</text>
		<text transform="matrix(1 0 0 1 468.6288 383.263)" style="font-family:'ArialMT'; font-size:13px;">TO AIRCRAFT</text>
		<path style="fill:#00FF33;stroke:#FFFFFF;stroke-miterlimit:10;" d="M557.3,378.5l14.2-7.1v14.5L557.3,378.5z"/>
		<text transform="matrix(1 0 0 1 462.2972 141.5126)" style="font-family:'ArialMT'; font-size:13px;">CABIN</text>
		<text transform="matrix(1 0 0 1 464.4973 153.5126)" style="font-family:'ArialMT'; font-size:13px;">PACK</text>
		<text transform="matrix(1 0 0 1 450.0743 303.7141)" style="font-family:'ArialMT'; font-size:12px;">FLT COMP</text>
		<text transform="matrix(1 0 0 1 464.0743 316.7141)" style="font-family:'ArialMT'; font-size:12px;">PACK</text>
		<path style="fill:none;stroke:#000000;stroke-width:0.55;stroke-linecap:round;" d="M226,165.6v-12.4c0-1.5-0.6-2.7-1.6-3.7
			s-2.3-1.5-3.7-1.5h-0.4"/>
		<path style="fill:none;stroke:#000000;stroke-width:0.55;stroke-linecap:round;" d="M233.5,165.6v-19.9c0-1.5-0.5-2.7-1.5-3.8
			c-1-1-2.2-1.5-3.7-1.5h-0.2"/>
		<path style="fill:none;stroke:#000000;stroke-width:0.55;stroke-linecap:round;" d="M124.8,143.1c0.1,1.3,0.7,2.4,1.6,3.2
			c0.9,0.9,1.9,1.4,3.2,1.5"/>
		<path style="fill:none;stroke:#000000;stroke-width:0.55;stroke-linecap:round;" d="M132.3,135.4c0.1,1.3,0.5,2.5,1.5,3.4
			c0.9,0.9,2,1.5,3.3,1.6"/>
		<path style="fill:none;stroke:#000000;stroke-width:0.55;stroke-linecap:round;" d="M256.1,219.4c1.6,0,2.5-0.4,3.5-1.4
			c0.9-1,1.4-2.2,1.4-3.6"/>
		<path style="fill:none;stroke:#000000;stroke-width:0.55;stroke-linecap:round;" d="M268.5,214.1c0,1.5,0.5,2.7,1.5,3.8
			c1,1,2.3,1.5,3.8,1.5"/>
		<path style="fill:none;stroke:#000000;stroke-width:0.55;stroke-linecap:round;" d="M130.3,300.1H130c-1.5,0-2.7,0.5-3.8,1.5
			c-1,1-1.5,2.3-1.5,3.8v0.3"/>
		<path style="fill:none;stroke:#000000;stroke-width:0.55;stroke-linecap:round;" d="M137.8,307.6h-0.3c-1.5,0-2.7,0.5-3.7,1.5
			s-1.6,2.3-1.6,3.8"/>
		<path style="fill:none;stroke:#000000;stroke-width:0.55;stroke-linecap:round;" d="M227.7,307.6h0.5c1.4,0,2.7-0.5,3.7-1.5
			s1.6-2.2,1.6-3.6v-17.1"/>
		<path style="fill:none;stroke:#000000;stroke-width:0.55;stroke-linecap:round;" d="M220.1,300.1h0.6c1.5,0,2.7-0.5,3.8-1.5
			s1.5-2.3,1.5-3.7v-9.5"/>
		<line style="fill:none;stroke:#000000;stroke-width:0.55;stroke-linecap:round;" x1="261" y1="157.4" x2="261" y2="143.1"/>
		<line style="fill:none;stroke:#000000;stroke-width:0.55;stroke-linecap:round;" x1="268.5" y1="157.3" x2="268.5" y2="143.1"/>
		<g>
			<path style="fill:#1D1D1B;" d="M523.1,175.6c-2.8,2.8-4.2,6.2-4.2,10.2s1.4,7.4,4.2,10.2c1.8,1.8,3.9,3.1,6.3,3.7v-27.8
				C527,172.5,524.9,173.7,523.1,175.6z"/>
			<path style="fill:#1D1D1B;" d="M547.7,185.8c0-4-1.4-7.4-4.2-10.2c-1.9-1.9-4.1-3.2-6.6-3.8v27.9c2.5-0.6,4.7-1.8,6.6-3.8
				C546.3,193.2,547.7,189.8,547.7,185.8z"/>
			<path style="fill:#1D1D1B;" d="M529.4,199.7v0.9h7.5v-0.8c-1.1,0.3-2.3,0.4-3.6,0.4C531.9,200.2,530.6,200,529.4,199.7z"/>
			<path style="fill:#1D1D1B;" d="M536.9,171.8v-0.5h-7.5v0.6c1.2-0.3,2.5-0.5,3.9-0.5C534.6,171.4,535.8,171.5,536.9,171.8z"/>
		</g>
		<g>
			<path style="fill:#1D1D1B;" d="M171.5,154.1c2.8,2.8,6.2,4.2,10.2,4.2s7.4-1.4,10.2-4.2c1.8-1.8,3.1-3.9,3.7-6.3h-27.8
				C168.4,150.2,169.6,152.3,171.5,154.1z"/>
			<path style="fill:#1D1D1B;" d="M181.9,129.7c-4,0-7.4,1.4-10.2,4.2c-1.9,1.9-3.2,4.1-3.8,6.6h27.9c-0.6-2.5-1.8-4.7-3.8-6.6
				C189.3,131.1,185.9,129.7,181.9,129.7z"/>
		</g>
		<g>
			
				<path id="units_0_Layer4_0_MEMBER_15_1_STROKES_2_" style="fill:none;stroke:#000000;stroke-width:0.55;stroke-linecap:round;" d="
				M286.4,237.7h29.3v-29h-29.3V237.7z"/>
			<g>
				<path style="fill:#1D1D1B;" d="M290.8,233.3c2.8,2.8,6.2,4.2,10.2,4.2s7.4-1.4,10.2-4.2c1.8-1.8,3.1-3.9,3.7-6.3h-27.8
					C287.7,229.4,288.9,231.5,290.8,233.3z"/>
				<path style="fill:#1D1D1B;" d="M301.2,208.9c-4,0-7.4,1.4-10.2,4.2c-1.9,1.9-3.2,4.1-3.8,6.6h27.9c-0.6-2.5-1.8-4.7-3.8-6.6
					C308.6,210.3,305.2,208.9,301.2,208.9z"/>
			</g>
		</g>
		<g>
			
				<path id="units_0_Layer4_0_MEMBER_15_1_STROKES_3_" style="fill:none;stroke:#000000;stroke-width:0.55;stroke-linecap:round;" d="
				M390,158.8h29.3v-29H390V158.8z"/>
			<g>
				<path style="fill:#1D1D1B;" d="M394.4,154.5c2.8,2.8,6.2,4.2,10.2,4.2s7.4-1.4,10.2-4.2c1.8-1.8,3.1-3.9,3.7-6.3h-27.8
					C391.3,150.5,392.5,152.6,394.4,154.5z"/>
				<path style="fill:#1D1D1B;" d="M404.8,130.1c-4,0-7.4,1.4-10.2,4.2c-1.9,1.9-3.2,4.1-3.8,6.6h27.9c-0.6-2.5-1.8-4.7-3.8-6.6
					C412.2,131.5,408.8,130.1,404.8,130.1z"/>
			</g>
		</g>
		<g>
			
				<path id="units_0_Layer4_0_MEMBER_15_1_STROKES_4_" style="fill:none;stroke:#000000;stroke-width:0.55;stroke-linecap:round;" d="
				M390,318.7h29.3v-29H390V318.7z"/>
			<g>
				<path style="fill:#1D1D1B;" d="M394.4,314.3c2.8,2.8,6.2,4.2,10.2,4.2s7.4-1.4,10.2-4.2c1.8-1.8,3.1-3.9,3.7-6.3h-27.8
					C391.3,310.4,392.5,312.5,394.4,314.3z"/>
				<path style="fill:#1D1D1B;" d="M404.8,289.9c-4,0-7.4,1.4-10.2,4.2c-1.9,1.9-3.2,4.1-3.8,6.6h27.9c-0.6-2.5-1.8-4.7-3.8-6.6
					C412.2,291.3,408.8,289.9,404.8,289.9z"/>
			</g>
		</g>
		<g>
			
				<path id="units_0_Layer4_0_MEMBER_15_1_STROKES_5_" style="fill:none;stroke:#000000;stroke-width:0.55;stroke-linecap:round;" d="
				M167.2,318.2h29.3v-29h-29.3V318.2z"/>
			<g>
				<path style="fill:#1D1D1B;" d="M171.6,313.9c2.8,2.8,6.2,4.2,10.2,4.2s7.4-1.4,10.2-4.2c1.8-1.8,3.1-3.9,3.7-6.3h-27.8
					C168.5,309.9,169.7,312,171.6,313.9z"/>
				<path style="fill:#1D1D1B;" d="M182,289.5c-4,0-7.4,1.4-10.2,4.2c-1.9,1.9-3.2,4.1-3.8,6.6h28c-0.6-2.5-1.8-4.7-3.8-6.6
					C189.4,290.9,186,289.5,182,289.5z"/>
			</g>
		</g>
		<g>
			<path style="fill:#1D1D1B;" d="M86.7,59.1c-2.8,2.8-4.2,6.2-4.2,10.2s1.4,7.4,4.2,10.2c1.8,1.8,3.9,3.1,6.3,3.7V55.4
				C90.6,56,88.5,57.2,86.7,59.1z"/>
			<path style="fill:#1D1D1B;" d="M111.3,69.3c0-4-1.4-7.4-4.2-10.2c-1.9-1.9-4.1-3.2-6.6-3.8v27.9c2.5-0.6,4.7-1.8,6.6-3.8
				C109.9,76.7,111.3,73.3,111.3,69.3z"/>
		</g>
		<g>
			<path style="fill:#1D1D1B;" d="M86.3,370.4c-2.8,2.8-4.2,6.2-4.2,10.2s1.4,7.4,4.2,10.2c1.8,1.8,3.9,3.1,6.3,3.7v-27.8
				C90.3,367.4,88.2,368.6,86.3,370.4z"/>
			<path style="fill:#1D1D1B;" d="M110.9,380.6c0-4-1.4-7.4-4.2-10.2c-1.9-1.9-4.1-3.2-6.6-3.8v27.9c2.5-0.6,4.7-1.8,6.6-3.8
				C109.5,388,110.9,384.6,110.9,380.6z"/>
		</g>
	</g>
	<g>
		<text transform="matrix(1 0 0 1 117.5922 427.3372)" style="font-family:'MyriadPro-Regular'; font-size:12px;">P2.7</text>
		<circle style="fill:none;stroke:#E94B33;stroke-width:2;" cx="128.2" cy="423.5" r="14"/>
		<path style="fill:#E94B33;stroke:#FFFFFF;stroke-miterlimit:10;" d="M136.6,417.2h-16.9l8.3-16.6L136.6,417.2z"/>
	</g>
	<g>
		<text transform="matrix(1 0 0 1 90.0008 427.3372)" style="font-family:'MyriadPro-Regular'; font-size:12px;">P3</text>
		<circle style="fill:none;stroke:#E94B33;stroke-width:2;" cx="96.6" cy="423.5" r="14"/>
		<path style="fill:#E94B33;stroke:#FFFFFF;stroke-miterlimit:10;" d="M105.1,417.2h-17l8.3-16.6L105.1,417.2z"/>
	</g>
	<g>
		<text transform="matrix(1 0 0 1 117.5922 30.8579)" style="font-family:'MyriadPro-Regular'; font-size:12px;">P2.7</text>
		<circle style="fill:none;stroke:#E94B33;stroke-width:2;" cx="128.2" cy="27.7" r="14"/>
		<path style="fill:#E94B33;stroke:#FFFFFF;stroke-miterlimit:10;" d="M128,50.5L119.7,34h16.9L128,50.5z"/>
	</g>
	<g>
		<text transform="matrix(1 0 0 1 90.0008 30.8579)" style="font-family:'MyriadPro-Regular'; font-size:12px;">P3</text>
		<circle style="fill:none;stroke:#E94B33;stroke-width:2;" cx="96.6" cy="27.7" r="14"/>
		<path style="fill:#E94B33;stroke:#FFFFFF;stroke-miterlimit:10;" d="M96.4,50.5L88.1,34H105L96.4,50.5z"/>
	</g>
</g>
</svg>
