<?xml version="1.0" encoding="utf-8"?>
<!-- Generator: Adobe Illustrator 25.0.1, SVG Export Plug-In . SVG Version: 6.00 Build 0)  -->
<svg version="1.1" id="Ebene_1" xmlns="http://www.w3.org/2000/svg" xmlns:xlink="http://www.w3.org/1999/xlink" x="0px" y="0px"
	 viewBox="0 0 429.7 314.5" style="enable-background:new 0 0 429.7 314.5;" xml:space="preserve">
<polygon style="fill:#4AC1EE;" points="220.4,133 173.2,160.2 169.4,149.8 216.5,122.6 "/>
<g>
	<path style="fill:#D8EBFA;stroke:#448ECC;stroke-width:0.75;stroke-miterlimit:10;" d="M146.2,134.8h-115c-2.2,0-4.1-1.8-4.1-4.1
		V98c0-2.2,1.8-4.1,4.1-4.1h115c2.2,0,4.1,1.8,4.1,4.1v32.7C150.3,133,148.4,134.8,146.2,134.8z"/>
	<path style="fill:#D8EBFA;stroke:#448ECC;stroke-width:0.75;stroke-miterlimit:10;" d="M218.9,79.4h-84c-2.2,0-4.1-1.8-4.1-4.1
		V42.6c0-2.2,1.8-4.1,4.1-4.1h84c2.2,0,4.1,1.8,4.1,4.1v32.7C223,77.6,221.1,79.4,218.9,79.4z"/>
	<path style="fill:none;stroke:#000000;stroke-width:0.52;stroke-miterlimit:5;" d="M16.2,209l-2.1,1.3l-1.8,1.6
		c-19.4,21.9,13.5,79.1,42.2,74l2.3-0.7L59,284l1.9-1.4c10.5-9.5,6.7-29.2,1.6-40.5l-1.8-3.8l-1.9-3.7c-6.6-12-20.7-27.1-35.4-27.3
		l-2.6,0.2l-2.4,0.5L16.2,209"/>
	<line style="fill:none;stroke:#000000;stroke-width:0.52;stroke-miterlimit:5;" x1="62.3" y1="241.1" x2="412" y2="39.2"/>
	<line style="fill:none;stroke:#000000;stroke-width:0.52;stroke-miterlimit:5;" x1="58.2" y1="226.6" x2="362.2" y2="51.1"/>
	<line style="fill:none;stroke:#000000;stroke-width:0.52;stroke-miterlimit:5;" x1="12.4" y1="253" x2="52" y2="230.2"/>
	<line style="fill:none;stroke:#000000;stroke-width:0.52;stroke-miterlimit:5;" x1="50.9" y1="218.2" x2="342" y2="50.1"/>
	<line style="fill:none;stroke:#000000;stroke-width:0.52;stroke-miterlimit:5;" x1="8.6" y1="242.6" x2="45.5" y2="221.3"/>
	<line style="fill:none;stroke:#000000;stroke-width:0.52;stroke-miterlimit:5;" x1="66.6" y1="272.6" x2="368.8" y2="98.1"/>
	<path style="fill:none;stroke:#000000;stroke-width:0.52;stroke-miterlimit:5;" d="M409.9,81l0.8-0.6l1.7-1.8
		c14.2-19.2-4.6-55.4-22-67l-2.9-1.9l-3-1.6l-2.9-1.3c-6.7-2.6-14.2-2.6-19.5,2.8l-1.6,1.9l-1.4,2.2c-4.5,8.7-2.9,20.8,0.1,29.8
		l1.4,3.8l1.6,3.8l0,0.1"/>
	<line style="fill:none;stroke:#000000;stroke-width:0.52;stroke-miterlimit:5;" x1="16.3" y1="208.7" x2="364.4" y2="7.7"/>
	<line style="fill:none;stroke:#000000;stroke-width:0.52;stroke-miterlimit:5;" x1="61" y1="282.3" x2="71.2" y2="276.4"/>
	<line style="fill:none;stroke:#000000;stroke-width:0.52;stroke-miterlimit:5;" x1="72.4" y1="275.8" x2="97.2" y2="261.4"/>
	<line style="fill:none;stroke:#000000;stroke-width:0.52;stroke-miterlimit:5;" x1="98.3" y1="260.8" x2="107.8" y2="255.3"/>
	<polyline style="fill:none;stroke:#000000;stroke-width:0.52;stroke-miterlimit:5;" points="108.9,254.7 119.9,248.3 138.2,237.8 	
		"/>
	<line style="fill:none;stroke:#000000;stroke-width:0.52;stroke-miterlimit:5;" x1="139.2" y1="237.1" x2="148.2" y2="232"/>
	<line style="fill:none;stroke:#000000;stroke-width:0.52;stroke-miterlimit:5;" x1="149.3" y1="231.3" x2="178.3" y2="214.5"/>
	<line style="fill:none;stroke:#000000;stroke-width:0.52;stroke-miterlimit:5;" x1="179.3" y1="214" x2="196.8" y2="203.9"/>
	<line style="fill:none;stroke:#000000;stroke-width:0.52;stroke-miterlimit:5;" x1="197.9" y1="203.3" x2="238.6" y2="179.8"/>
	<line style="fill:none;stroke:#000000;stroke-width:0.52;stroke-miterlimit:5;" x1="239.6" y1="179.2" x2="262.1" y2="166.2"/>
	<line style="fill:none;stroke:#000000;stroke-width:0.52;stroke-miterlimit:5;" x1="263.2" y1="165.6" x2="284.5" y2="153.3"/>
	<line style="fill:none;stroke:#000000;stroke-width:0.52;stroke-miterlimit:5;" x1="285.5" y1="152.7" x2="310" y2="138.5"/>
	<line style="fill:none;stroke:#000000;stroke-width:0.52;stroke-miterlimit:5;" x1="311.1" y1="137.9" x2="327.1" y2="128.6"/>
	<line style="fill:none;stroke:#000000;stroke-width:0.52;stroke-miterlimit:5;" x1="328.3" y1="128" x2="349.6" y2="115.7"/>
	<line style="fill:none;stroke:#000000;stroke-width:0.52;stroke-miterlimit:5;" x1="350.7" y1="115" x2="364.2" y2="107.2"/>
	<line style="fill:none;stroke:#000000;stroke-width:0.52;stroke-miterlimit:5;" x1="367.1" y1="105.6" x2="410.3" y2="80.6"/>
	<line style="fill:none;stroke:#000000;stroke-width:0.52;stroke-miterlimit:5;" x1="61" y1="282.3" x2="12.4" y2="253.4"/>
	<path style="fill:none;stroke:#000000;stroke-width:0.52;stroke-miterlimit:5;" d="M71.5,249.8l0.1-0.3l0.1-0.3
		c4.2-6.3,6.1,3,4.9,6.1l-0.1,0.3l-0.2,0.3l-0.2,0.2c-0.7,0.8-1.8,1.6-3,1.2l-0.1-0.1l-0.1-0.1c-1-1.4-1.6-4-1.5-5.7v-0.8l0-0.7
		V249.8"/>
	<path style="fill:none;stroke:#000000;stroke-width:0.52;stroke-miterlimit:5;" d="M82.3,243.7l0.2-0.3l0.1-0.3l0.1-0.3
		c0.4-0.9,2.3-2.4,3.3-1.6l0.2,0.2l0.2,0.2c1.2,1.5,1.5,5.4,1.1,7.2l-0.1,0.4l-0.2,0.3l-0.2,0.3c-4.1,4.7-4.9-2.2-4.9-5.2l0-0.7
		V243.7"/>
	<path style="fill:none;stroke:#000000;stroke-width:0.52;stroke-miterlimit:5;" d="M12.6,220.3l0.2-0.4l0.3-0.7l0.2-0.3l0.3-0.3
		l0.4-0.3l0.4-0.3l0.5-0.2l0.4-0.1l0.4-0.1l0.3,0l0.2,0l0.2,0.1l0.2,0.1l0.2,0.2l0.2,0.3l0.1,0.3c0.5,1.2,0.9,6.2,0.1,7.3l-0.2,0.3
		l-0.2,0.2l-0.2,0.2c-4.8,4.8-4.9-3.1-4.3-6.1L12.6,220.3L12.6,220.3"/>
	<path style="fill:none;stroke:#000000;stroke-width:0.52;stroke-miterlimit:5;" d="M23.2,214.3l0.2-0.4l0.2-0.4l0.2-0.3l0.2-0.3
		l0.3-0.3l0.4-0.3l0.5-0.3l0.5-0.2l0.4-0.1l0.4-0.1l0.3,0l0.2,0l0.2,0.1l0.2,0.1l0.2,0.2l0.2,0.2l0.1,0.3c0.5,1.2,0.9,6.2,0.1,7.3
		l-0.2,0.3l-0.2,0.2l-0.2,0.2c-4.8,4.8-4.9-3.1-4.3-6.1L23.2,214.3L23.2,214.3"/>
	<path style="fill:none;stroke:#000000;stroke-width:0.52;stroke-miterlimit:5;" d="M176.8,116l-2,1.2c-9.2,6.9-8.6,21.8-5.9,31.7
		l0.3,0.9"/>
	<path style="fill:none;stroke:#000000;stroke-width:0.52;stroke-miterlimit:5;" d="M203.1,100.8l-2.1,1.2c-9.2,7-8.5,21.8-5.9,31.8
		l0.3,0.9"/>
	<path style="fill:none;stroke:#000000;stroke-width:0.52;stroke-miterlimit:5;" d="M224.2,88.7l-2,1.3c-9.2,6.8-8.6,21.9-5.9,31.7
		l0.3,0.9"/>
	<path style="fill:none;stroke:#000000;stroke-width:0.52;stroke-miterlimit:5;" d="M245.3,76.5l-2,1.3c-9.3,6.9-8.5,21.8-5.9,31.7
		l0.3,0.9"/>
	<path style="fill:none;stroke:#000000;stroke-width:0.52;stroke-miterlimit:5;" d="M267,63.9l-2.1,1.2c-9.2,7-8.5,21.8-5.9,31.8
		l0.3,0.9"/>
	<path style="fill:none;stroke:#000000;stroke-width:0.52;stroke-miterlimit:5;" d="M289.1,51.2l-2.1,1.2c-9.2,7-8.5,21.7-5.9,31.7
		l0.3,0.9"/>
	<path style="fill:none;stroke:#000000;stroke-width:0.52;stroke-miterlimit:5;" d="M310.7,38.7l-2.1,1.3
		c-9.2,6.9-8.6,21.8-5.9,31.8l0.3,0.9"/>
	<path style="fill:none;stroke:#000000;stroke-width:0.52;stroke-miterlimit:5;" d="M331.5,26.7l-2.1,1.2
		c-9.2,6.8-8.6,21.9-5.9,31.7l0.3,0.9"/>
	<path style="fill:none;stroke:#000000;stroke-width:0.52;stroke-miterlimit:5;" d="M342.6,20.3l-2.1,1.3
		c-9.3,7.1-8.5,21.7-5.9,31.8l0.3,0.9"/>
	<path style="fill:none;stroke:#000000;stroke-width:0.52;stroke-miterlimit:5;" d="M253,165l0.5-2.1c1.7-9.4-0.8-20.1-4.5-28.7
		l-0.4-0.8"/>
	<path style="fill:none;stroke:#000000;stroke-width:0.52;stroke-miterlimit:5;" d="M274.5,152.5l0.5-2.1c1.7-9.4-0.8-20.1-4.5-28.7
		l-0.4-0.8"/>
	<path style="fill:none;stroke:#000000;stroke-width:0.52;stroke-miterlimit:5;" d="M296.6,139.8l0.5-2.1c1.7-9.5-0.7-20-4.5-28.7
		l-0.4-0.8"/>
	<path style="fill:none;stroke:#000000;stroke-width:0.52;stroke-miterlimit:5;" d="M317.7,127.6l0.5-2.1c1.7-9.4-0.8-20-4.5-28.7
		l-0.4-0.8"/>
	<path style="fill:none;stroke:#000000;stroke-width:0.52;stroke-miterlimit:5;" d="M339.6,115l0.5-2.1c1.7-9.5-0.8-19.9-4.5-28.7
		l-0.4-0.8"/>
	<path style="fill:none;stroke:#000000;stroke-width:0.52;stroke-miterlimit:5;" d="M361.4,102.4l0.5-2.1c1.7-9.4-0.8-20-4.5-28.7
		l-0.4-0.8"/>
	<path style="fill:none;stroke:#000000;stroke-width:0.52;stroke-miterlimit:5;" d="M369.6,100.5v0.2l0,0.2l0,0.2l0,0.1l0.1,0.1
		l0.1,0.1l0.2,0.1l0.2,0h0.3l0.4-0.1l1-0.5l2-1.1l2.3-1.3l2-1.2l1.1-0.7l0.4-0.3c1-1.3,1.8-2.5,2.1-4.2l0.2-1l0.2-1.1l0.2-1.2
		c1.2-7.9-0.3-17.3-3.5-24.6l-0.2-0.2l-0.2-0.2l-0.2-0.1l-0.2-0.1l-0.2-0.1l-0.2-0.1l-0.2-0.1l-0.2-0.1h-0.3l-0.4,0.1l-1,0.5
		l-1.9,1.1l-2.2,1.3l-1.9,1.2l-1,0.7l-0.3,0.3l-0.2,0.3c-1.1,1.4,0,2.8,0.5,4.3l0.4,1.1l0.4,1.1l0.3,1.1c1.9,8.1,2.6,15.2,0.2,23.2
		l-0.1,0.3L369.6,100.5L369.6,100.5"/>
	<line style="fill:none;stroke:#000000;stroke-width:0.52;stroke-miterlimit:5;" x1="362.2" y1="51.1" x2="372.9" y2="57.3"/>
	<path style="fill:none;stroke:#000000;stroke-width:0.52;stroke-miterlimit:5;" d="M95,236.2l0.1-0.3l0.1-0.3
		c4.1-6.3,6.1,3,4.9,6.2l-0.2,0.3l-0.2,0.2l-0.2,0.2c-0.5,0.7-2.1,1.6-2.9,1.2l-0.1-0.1l-0.1-0.1c-1.1-1.4-1.6-3.9-1.5-5.7v-0.8
		l0-0.7V236.2"/>
	<path style="fill:none;stroke:#000000;stroke-width:0.52;stroke-miterlimit:5;" d="M105.8,230.1l0.1-0.3l0.1-0.3l0.1-0.3
		c0.4-0.9,2.3-2.4,3.4-1.6l0.2,0.2l0.2,0.2c1.2,1.4,1.6,5.5,1.1,7.2l-0.2,0.4l-0.2,0.3l-0.2,0.3l-0.2,0.2c-0.6,0.8-1.9,1.6-2.9,1.2
		l-0.1-0.1l-0.1-0.1c-1-1.3-1.7-4.1-1.6-5.7V231l0-0.7V230.1"/>
	<path style="fill:none;stroke:#000000;stroke-width:0.52;stroke-miterlimit:5;" d="M116.8,223.8l0.1-0.3l0.1-0.3
		c4.2-6.2,6.1,3,4.9,6.2l-0.1,0.3l-0.2,0.3l-0.2,0.2c-0.6,0.8-1.9,1.6-2.9,1.2l-0.1-0.1l-0.1-0.1c-1.1-1.5-1.6-3.9-1.5-5.7v-0.8
		l0-0.7V223.8"/>
	<path style="fill:none;stroke:#000000;stroke-width:0.52;stroke-miterlimit:5;" d="M127.6,217.5l0.1-0.3l0.1-0.3l0.1-0.3
		c0.4-0.9,2.3-2.4,3.4-1.6l0.2,0.2l0.2,0.2c1.2,1.5,1.5,5.5,1.1,7.2l-0.1,0.4l-0.1,0.3l-0.2,0.3l-0.2,0.2c-0.6,0.8-1.9,1.6-2.9,1.2
		l-0.1-0.1l-0.1-0.1c-1.1-1.6-1.6-3.8-1.5-5.7v-0.8l0-0.7V217.5"/>
	<path style="fill:none;stroke:#000000;stroke-width:0.52;stroke-miterlimit:5;" d="M138.4,211.3l0.1-0.3l0.1-0.3
		c4.1-6.3,6.1,3,4.9,6.1l-0.1,0.4l-0.2,0.2c-4.1,4.7-5-2.2-4.8-5.2V211.3"/>
	<path style="fill:none;stroke:#000000;stroke-width:0.52;stroke-miterlimit:5;" d="M148.9,205.2l0.1-0.3l0.1-0.3
		c4.1-6.3,6.1,2.9,4.9,6.1l-0.1,0.3l-0.2,0.3l-0.2,0.2c-0.6,0.8-2,1.6-2.9,1.2l-0.1-0.1l-0.1-0.1c-1.1-1.6-1.6-3.7-1.5-5.7v-0.8
		l0-0.7V205.2"/>
	<path style="fill:none;stroke:#000000;stroke-width:0.52;stroke-miterlimit:5;" d="M160,198.9l0.1-0.3l0.1-0.3
		c4.1-6.3,6.1,3,4.9,6.1l-0.1,0.3l-0.2,0.2l-0.2,0.2c-0.6,0.7-2,1.6-2.9,1.2l-0.1,0l-0.1-0.1c-1.1-1.5-1.6-3.9-1.5-5.7v-0.8l0-0.7
		V198.9"/>
	<path style="fill:none;stroke:#000000;stroke-width:0.52;stroke-miterlimit:5;" d="M170.3,192.9l0.1-0.3l0.2-0.6
		c0.5-0.9,2.3-2.4,3.4-1.6l0.2,0.2l0.2,0.2c1.1,1.3,1.6,5.6,1.1,7.2l-0.1,0.4l-0.1,0.3l-0.2,0.2l-0.2,0.2c-0.6,0.8-2,1.6-2.9,1.2
		l-0.1,0l-0.1-0.1c-1-1.5-1.7-3.9-1.5-5.7v-0.8l0-0.7V192.9"/>
	<path style="fill:none;stroke:#000000;stroke-width:0.52;stroke-miterlimit:5;" d="M181.5,186.4l0.1-0.3l0.1-0.3
		c4.2-6.3,6.1,2.9,4.9,6.1l-0.1,0.3l-0.2,0.2l-0.2,0.3c-0.5,0.8-2,1.6-2.9,1.2l-0.1,0l-0.1-0.1c-1.1-1.6-1.6-3.8-1.5-5.7l0-0.8
		V186.4"/>
	<path style="fill:none;stroke:#000000;stroke-width:0.52;stroke-miterlimit:5;" d="M192.2,180.3l0.1-0.3l0.1-0.3
		c4.1-6.3,6.1,3,4.9,6.1l-0.1,0.3l-0.2,0.3l-0.2,0.2c-0.7,0.8-1.8,1.6-3,1.2l-0.1-0.1l-0.1-0.1c-1.1-1.5-1.6-3.8-1.5-5.7l0-0.8
		V180.3"/>
	<path style="fill:none;stroke:#000000;stroke-width:0.52;stroke-miterlimit:5;" d="M204.9,172.9l0.1-0.3l0.1-0.3l0.1-0.3
		c0.5-0.9,2.3-2.4,3.4-1.6l0.2,0.2l0.2,0.2c1.2,1.5,1.5,5.4,1.1,7.2l-0.1,0.4l-0.1,0.3l-0.2,0.3l-0.2,0.2c-0.6,0.8-1.9,1.6-2.9,1.2
		l-0.1-0.1l-0.1-0.1c-1-1.3-1.7-4.1-1.5-5.7l0-0.8V172.9"/>
	<path style="fill:none;stroke:#000000;stroke-width:0.52;stroke-miterlimit:5;" d="M233.8,156.2l0.1-0.3l0.1-0.3l0.1-0.3l0.2-0.3
		l0.2-0.3l0.3-0.3l0.4-0.3l0.4-0.3l0.4-0.2l0.4-0.1l0.3-0.1l0.2,0l0.2,0l0.2,0.1l0.2,0.1l0.2,0.2l0.2,0.2c1.2,1.4,1.6,5.5,1.1,7.2
		l-0.2,0.4l-0.1,0.3l-0.2,0.3l-0.2,0.2c-0.6,0.8-1.9,1.6-2.9,1.2l-0.1-0.1l-0.1-0.1c-1-1.5-1.6-3.8-1.5-5.7v-0.9l0-0.6V156.2"/>
	<path style="fill:none;stroke:#000000;stroke-width:0.52;stroke-miterlimit:5;" d="M255.7,143.6l0.1-0.3l0.1-0.3l0.1-0.3l0.1-0.3
		l0.2-0.3l0.3-0.3l0.4-0.3l0.4-0.3l0.4-0.2l0.4-0.1l0.3,0h0.2l0.2,0l0.2,0.1l0.2,0.1l0.2,0.2l0.2,0.2c1.2,1.4,1.5,5.5,1.2,7.2
		l-0.2,0.4l-0.1,0.3l-0.2,0.2l-0.2,0.3c-0.5,0.7-2.1,1.6-2.9,1.2l-0.1,0l-0.1-0.1c-1.1-1.5-1.6-3.8-1.5-5.7v-0.8l0-0.6V143.6"/>
	<path style="fill:none;stroke:#000000;stroke-width:0.52;stroke-miterlimit:5;" d="M266.4,137.4l0.2-0.3l0.1-0.3
		c4.1-6.3,6.1,3,4.9,6.1l-0.2,0.3l-0.2,0.3l-0.2,0.2c-0.5,0.7-2,1.6-2.9,1.2l-0.1-0.1l-0.1-0.1c-1-1.4-1.7-4-1.5-5.7l0-0.9V137.4"/>
	<path style="fill:none;stroke:#000000;stroke-width:0.52;stroke-miterlimit:5;" d="M277.5,131l0.1-0.3l0.1-0.3l0.1-0.3
		c0.4-0.9,2.3-2.5,3.4-1.6l0.2,0.2l0.2,0.2c1.2,1.3,1.6,5.5,1.1,7.2l-0.1,0.4l-0.2,0.3l-0.2,0.3c-4.1,4.7-4.9-2.2-4.9-5.2l0-0.6V131
		"/>
	<path style="fill:none;stroke:#000000;stroke-width:0.52;stroke-miterlimit:5;" d="M288.3,124.8l0.1-0.3l0.1-0.3l0.1-0.3
		c0.4-0.9,2.3-2.4,3.4-1.6l0.2,0.2l0.2,0.2c1.2,1.4,1.6,5.5,1.1,7.2l-0.1,0.4l-0.1,0.3l-0.2,0.3l-0.2,0.2c-0.4,0.7-2.2,1.7-2.9,1.2
		l-0.1-0.1l-0.1-0.1c-1.1-1.5-1.6-3.8-1.5-5.7V124.8"/>
	<path style="fill:none;stroke:#000000;stroke-width:0.52;stroke-miterlimit:5;" d="M299.5,118.3l0.1-0.3l0.1-0.3l0.1-0.3
		c0.4-0.9,2.4-2.4,3.4-1.6l0.2,0.2l0.2,0.2c1.2,1.3,1.6,5.6,1.1,7.2l-0.1,0.4l-0.1,0.3l-0.2,0.3l-0.2,0.2c-0.6,0.8-1.9,1.6-2.9,1.2
		l-0.1-0.1l-0.1-0.1c-1.1-1.4-1.6-3.9-1.5-5.7v-1.5L299.5,118.3"/>
	<path style="fill:none;stroke:#000000;stroke-width:0.52;stroke-miterlimit:5;" d="M309.9,112.3l0.1-0.3l0.1-0.3
		c4.1-6.3,6.1,3,4.9,6.1l-0.2,0.3l-0.2,0.3c-4.1,4.7-4.9-2.2-4.9-5.2l0-0.6V112.3"/>
	<path style="fill:none;stroke:#000000;stroke-width:0.52;stroke-miterlimit:5;" d="M320.9,105.9l0.1-0.3l0.1-0.3l0.1-0.3
		c0.4-0.9,2.3-2.4,3.4-1.6l0.2,0.2l0.2,0.2c1.1,1.2,1.6,5.8,1.1,7.2l-0.1,0.4l-0.1,0.3l-0.2,0.2l-0.2,0.2c-0.4,0.7-2.1,1.6-2.9,1.2
		l-0.1,0l-0.1-0.1c-1-1.3-1.7-4-1.5-5.7v-1.5L320.9,105.9"/>
	<path style="fill:none;stroke:#000000;stroke-width:0.52;stroke-miterlimit:5;" d="M331.7,99.7l0.1-0.3l0.1-0.3l0.1-0.3
		c0.4-0.9,2.3-2.4,3.4-1.6l0.2,0.2l0.2,0.2c1.2,1.3,1.6,5.5,1.2,7.2l-0.2,0.4l-0.1,0.3l-0.2,0.3l-0.2,0.2c-0.5,0.8-2,1.6-2.9,1.2
		l-0.1-0.1l-0.1-0.1c-1.1-1.5-1.6-3.8-1.5-5.7v-0.9l0-0.6V99.7"/>
	<path style="fill:none;stroke:#000000;stroke-width:0.52;stroke-miterlimit:5;" d="M342.5,93.5l0.1-0.3l0.1-0.3l0.1-0.3
		c0.4-0.9,2.3-2.4,3.4-1.6l0.2,0.2l0.2,0.2c1.2,1.5,1.6,5.4,1.1,7.2l-0.1,0.4l-0.1,0.3l-0.2,0.3l-0.2,0.2c-0.5,0.8-2.1,1.6-2.9,1.2
		l-0.1-0.1l-0.1-0.1c-1.1-1.4-1.6-3.9-1.5-5.7v-1.5L342.5,93.5"/>
	<path style="fill:none;stroke:#000000;stroke-width:0.52;stroke-miterlimit:5;" d="M352.7,87.6l0.1-0.3l0.1-0.3l0.1-0.3
		c0.4-0.9,2.4-2.5,3.4-1.6l0.2,0.2l0.2,0.2c1.2,1.4,1.6,5.6,1.1,7.2l-0.1,0.4l-0.1,0.3l-0.2,0.3l-0.2,0.2c-0.5,0.7-2.1,1.6-2.9,1.2
		l-0.1-0.1l-0.1-0.1c-1.1-1.3-1.7-4-1.5-5.7v-1.5L352.7,87.6"/>
	<path style="fill:none;stroke:#000000;stroke-width:0.52;stroke-miterlimit:5;" d="M373.6,75.5l0.1-0.3l0.1-0.3
		c4.1-6.3,6.1,3,4.9,6.1l-0.1,0.3l-0.2,0.3l-0.2,0.2c-0.6,0.8-1.9,1.6-3,1.2l-0.1-0.1l-0.1-0.1c-1.1-1.4-1.7-4-1.5-5.7v-0.8l0-0.7
		V75.5"/>
	<path style="fill:none;stroke:#000000;stroke-width:0.52;stroke-miterlimit:5;" d="M39.1,214.2l-0.2,0.2c-1.7,1-2.7,0.1-3-1.7
		l-0.1-0.4"/>
	<path style="fill:none;stroke:#000000;stroke-width:0.52;stroke-miterlimit:5;" d="M35.7,208.5l0-0.4l0-0.4
		c0.2-1.9,1.5-3.3,3.4-3.5l0.3,0l0.2,0.1l0.2,0.1c0.4,0.2,0.8,0.8,0.8,1.3l0.1,0.5l0.1,0.5c0.2,1.3,0.3,3,0.2,4.4l-0.1,0.4l-0.1,0.3
		v0"/>
	<path style="fill:none;stroke:#000000;stroke-width:0.52;stroke-miterlimit:5;" d="M46.5,200.9l0.2-0.4l0.2-0.4l0.2-0.3l0.2-0.3
		l0.3-0.3l0.4-0.3l0.5-0.2l0.5-0.2l0.4-0.1l0.4,0l0.3,0l0.2,0.1l0.2,0.1l0.2,0.1l0.2,0.2l0.2,0.2l0.1,0.3c0.5,1.3,0.9,6.1,0.1,7.3
		l-0.2,0.3l-0.2,0.2l-0.2,0.2c-4.8,4.8-4.9-3.1-4.3-6.1L46.5,200.9L46.5,200.9"/>
	<path style="fill:none;stroke:#000000;stroke-width:0.52;stroke-miterlimit:5;" d="M58.2,194.1l0.2-0.4l0.2-0.4l0.2-0.3l0.2-0.3
		l0.3-0.3l0.4-0.3l0.5-0.3l0.5-0.2l0.4-0.1l0.4-0.1l0.3,0l0.2,0l0.2,0.1l0.2,0.1l0.2,0.2l0.2,0.3l0.1,0.3c0.5,1.2,0.9,6.2,0.1,7.3
		l-0.1,0.3l-0.2,0.2l-0.2,0.2c-4.8,4.8-4.9-3.1-4.3-6.1L58.2,194.1L58.2,194.1"/>
	<path style="fill:none;stroke:#000000;stroke-width:0.52;stroke-miterlimit:5;" d="M70.2,187.2l0.2-0.4l0.2-0.4l0.2-0.3l0.2-0.3
		l0.3-0.3l0.4-0.3l0.5-0.2l0.5-0.2l0.4-0.1l0.4-0.1l0.3,0l0.2,0l0.2,0.1l0.2,0.1l0.2,0.2l0.2,0.2l0.2,0.3c0.5,1.4,0.9,6.1,0.1,7.3
		l-0.2,0.3l-0.2,0.2l-0.2,0.2c-4.8,4.8-4.8-3.1-4.3-6.1L70.2,187.2L70.2,187.2"/>
	<path style="fill:none;stroke:#000000;stroke-width:0.52;stroke-miterlimit:5;" d="M78.9,182l0.2-0.4l0.2-0.4l0.2-0.3l0.2-0.3
		l0.3-0.3l0.4-0.3l0.4-0.3l0.5-0.2l0.4-0.1l0.4,0l0.3,0l0.2,0l0.2,0.1l0.2,0.1l0.2,0.2l0.2,0.2l0.1,0.3c0.5,1.3,0.9,6.1,0.1,7.3
		l-0.2,0.3l-0.2,0.2l-0.2,0.2c-4.8,4.8-4.9-3.1-4.4-6.1L78.9,182L78.9,182"/>
	<path style="fill:none;stroke:#000000;stroke-width:0.52;stroke-miterlimit:5;" d="M89.5,176l0.2-0.4l0.2-0.4L90,175l0.2-0.3
		l0.3-0.3L91,174l0.5-0.2l0.5-0.2l0.4-0.1l0.4-0.1l0.3,0l0.2,0l0.2,0.1l0.2,0.1l0.2,0.2l0.2,0.2l0.1,0.3c0.5,1.2,0.9,6.2,0.1,7.3
		l-0.2,0.3l-0.2,0.3l-0.2,0.2c-4.8,4.8-4.9-3.1-4.3-6.1L89.5,176L89.5,176"/>
	<path style="fill:none;stroke:#000000;stroke-width:0.52;stroke-miterlimit:5;" d="M101.2,169.2l0.2-0.4l0.2-0.4l0.2-0.3
		c0.4-1,3-2.3,3.8-1.1l0.2,0.3l0.1,0.3c0.5,1.2,0.9,6.2,0.1,7.3l-0.2,0.3l-0.2,0.2l-0.2,0.2l-0.2,0.2c-0.9,1-2.1,1.9-3.4,0.9
		l-0.1-0.1l-0.1-0.2c-0.9-1.8-0.9-4.7-0.6-6.6l0.1-0.3L101.2,169.2L101.2,169.2"/>
	<path style="fill:none;stroke:#000000;stroke-width:0.52;stroke-miterlimit:5;" d="M109.7,164.4l0.2-0.4l0.2-0.4l0.2-0.3
		c0.5-1,2.9-2.3,3.8-1.1l0.2,0.3l0.2,0.3c0.5,1.3,0.9,6.1,0.1,7.3l-0.2,0.3l-0.2,0.2l-0.2,0.2c-4.8,4.8-4.9-3.1-4.3-6.1L109.7,164.4
		L109.7,164.4"/>
	<path style="fill:none;stroke:#000000;stroke-width:0.52;stroke-miterlimit:5;" d="M123,156.6l0.2-0.4l0.2-0.4l0.2-0.3l0.2-0.3
		l0.3-0.3l0.4-0.3l0.5-0.3l0.5-0.2l0.4-0.1l0.4-0.1l0.3,0l0.2,0l0.2,0.1l0.2,0.1l0.2,0.2l0.2,0.2l0.1,0.3c0.5,1.2,0.9,6.2,0.1,7.3
		l-0.2,0.3l-0.2,0.2l-0.2,0.2c-4.9,4.8-4.9-3-4.4-6.1L123,156.6L123,156.6"/>
	<path style="fill:none;stroke:#000000;stroke-width:0.52;stroke-miterlimit:5;" d="M131.5,151.8l0.2-0.4l0.2-0.4l0.2-0.3
		c0.6-1,2.8-2.3,3.8-1.1l0.2,0.3l0.1,0.3c0.6,2,1,5.3,0.1,7.3l-0.2,0.3l-0.2,0.2l-0.2,0.2c-4.8,4.8-4.9-3.1-4.3-6.1L131.5,151.8
		L131.5,151.8"/>
	<path style="fill:none;stroke:#000000;stroke-width:0.52;stroke-miterlimit:5;" d="M146.7,142.9l0.2-0.4l0.2-0.4l0.2-0.3
		c0.5-1,2.9-2.3,3.8-1.1l0.2,0.2l0.1,0.3c0.5,1.2,0.9,6.2,0.1,7.3l-0.2,0.3l-0.2,0.2l-0.2,0.2c-4.8,4.8-4.9-3.1-4.4-6.1L146.7,142.9
		L146.7,142.9"/>
	<path style="fill:none;stroke:#000000;stroke-width:0.52;stroke-miterlimit:5;" d="M175.4,126.3l0.2-0.4l0.2-0.4l0.2-0.3
		c0.5-1,2.9-2.3,3.8-1.1l0.2,0.2l0.1,0.3c0.5,1.4,0.9,6,0.1,7.3l-0.2,0.3l-0.2,0.2l-0.2,0.2c-4.8,4.8-4.9-3.1-4.4-6.1L175.4,126.3
		L175.4,126.3"/>
	<path style="fill:none;stroke:#000000;stroke-width:0.52;stroke-miterlimit:5;" d="M183.9,121.5l0.2-0.4l0.2-0.4l0.2-0.3l0.2-0.3
		l0.3-0.3l0.4-0.3l0.5-0.2l0.5-0.2l0.5-0.1l0.4-0.1l0.3,0l0.2,0l0.2,0.1l0.2,0.1l0.2,0.2l0.2,0.2l0.1,0.3c0.5,1.3,0.9,6.1,0.1,7.3
		l-0.2,0.3l-0.2,0.2l-0.2,0.2c-4.8,4.8-4.9-3.1-4.4-6.1L183.9,121.5L183.9,121.5"/>
	<path style="fill:none;stroke:#000000;stroke-width:0.52;stroke-miterlimit:5;" d="M197.4,113.6l0.2-0.4l0.2-0.4l0.2-0.3
		c0.4-0.9,3-2.3,3.8-1.1l0.2,0.2l0.1,0.3c0.5,1.3,0.9,6,0.1,7.3l-0.2,0.3l-0.2,0.2l-0.2,0.2c-4.8,4.8-4.9-3.1-4.3-6.1L197.4,113.6
		L197.4,113.6"/>
	<path style="fill:none;stroke:#000000;stroke-width:0.52;stroke-miterlimit:5;" d="M205.9,108.8l0.2-0.4l0.2-0.4l0.2-0.3l0.2-0.3
		l0.3-0.3l0.4-0.3l0.5-0.2l0.5-0.2l0.5-0.2l0.4,0h0.3l0.2,0.1l0.2,0.1l0.2,0.1l0.2,0.2l0.2,0.2l0.1,0.3c0.5,1.3,0.9,6.1,0.1,7.3
		l-0.2,0.3l-0.2,0.2l-0.2,0.2c-4.8,4.8-4.9-3.1-4.4-6.1L205.9,108.8L205.9,108.8"/>
	<path style="fill:none;stroke:#000000;stroke-width:0.52;stroke-miterlimit:5;" d="M219.1,101.1l0.2-0.4l0.2-0.4l0.2-0.3
		c0.4-0.9,2.9-2.3,3.8-1.1l0.2,0.2l0.1,0.3c0.5,1.3,0.9,6.1,0.1,7.3l-0.2,0.3l-0.2,0.2l-0.2,0.2c-4.8,4.8-4.9-3.1-4.4-6.1
		L219.1,101.1L219.1,101.1"/>
	<path style="fill:none;stroke:#000000;stroke-width:0.52;stroke-miterlimit:5;" d="M227.7,96.2l0.2-0.4l0.2-0.4l0.2-0.3l0.2-0.3
		l0.3-0.3l0.4-0.3l0.5-0.2l0.5-0.2l0.5-0.1l0.4-0.1l0.3,0l0.2,0l0.2,0.1l0.2,0.1l0.2,0.2l0.2,0.2l0.1,0.3c0.5,1.3,0.9,6.1,0.1,7.3
		l-0.2,0.3l-0.2,0.2l-0.2,0.2l-0.2,0.2c-0.9,0.9-2.2,1.9-3.4,0.9l-0.1-0.1l-0.1-0.2c-1-1.8-0.8-4.6-0.6-6.6l0-0.3L227.7,96.2
		L227.7,96.2"/>
	<path style="fill:none;stroke:#000000;stroke-width:0.52;stroke-miterlimit:5;" d="M240.6,88.7l0.2-0.4l0.2-0.4l0.2-0.4
		c0.4-0.9,3-2.3,3.8-1.1l0.2,0.2l0.1,0.3c0.5,1.1,0.9,6.2,0.2,7.3l-0.2,0.3l-0.2,0.2l-0.2,0.2c-4.8,4.8-4.9-3.1-4.3-6.1L240.6,88.7
		L240.6,88.7"/>
	<path style="fill:none;stroke:#000000;stroke-width:0.52;stroke-miterlimit:5;" d="M249.2,83.8l0.2-0.4l0.3-0.7l0.2-0.3l0.3-0.3
		l0.4-0.3l0.5-0.2l0.5-0.2l0.5-0.1l0.4,0l0.3,0l0.2,0l0.2,0.1l0.2,0.2l0.2,0.2l0.2,0.2l0.1,0.3c0.5,1.2,0.9,6.2,0.1,7.3l-0.2,0.3
		l-0.2,0.2l-0.2,0.2l-0.2,0.2c-0.9,0.9-2.2,1.9-3.4,0.9l-0.1-0.1l-0.1-0.2c-1-1.9-0.9-4.5-0.6-6.6l0.1-0.3L249.2,83.8L249.2,83.8"/>
	<path style="fill:none;stroke:#000000;stroke-width:0.52;stroke-miterlimit:5;" d="M262.3,76.1l0.2-0.4l0.2-0.4l0.2-0.4l0.2-0.3
		l0.3-0.3l0.4-0.3l0.5-0.3l0.5-0.2l0.4-0.1l0.4-0.1l0.3,0l0.2,0l0.2,0.1l0.2,0.1l0.2,0.2l0.2,0.2l0.1,0.3c0.5,1.3,0.9,6,0.1,7.3
		l-0.2,0.3l-0.2,0.2l-0.2,0.2c-4.8,4.8-4.9-3.1-4.4-6.1L262.3,76.1L262.3,76.1"/>
	<path style="fill:none;stroke:#000000;stroke-width:0.52;stroke-miterlimit:5;" d="M270.9,71.3l0.2-0.4l0.2-0.4l0.2-0.3
		c0.4-0.9,3-2.3,3.8-1.1l0.2,0.2l0.1,0.3c0.5,1.3,0.9,6.1,0.1,7.3l-0.2,0.3l-0.2,0.2l-0.2,0.2c-4.8,4.8-4.8-3.1-4.3-6.1L270.9,71.3
		L270.9,71.3"/>
	<path style="fill:none;stroke:#000000;stroke-width:0.52;stroke-miterlimit:5;" d="M283.9,63.7l0.2-0.4l0.2-0.4l0.2-0.4
		c0.5-1,2.9-2.3,3.8-1.1l0.2,0.2l0.1,0.3c0.5,1.3,0.9,6.1,0.1,7.3l-0.2,0.3l-0.2,0.2l-0.2,0.2c-4.8,4.8-4.9-3.1-4.4-6.1L283.9,63.7
		L283.9,63.7"/>
	<path style="fill:none;stroke:#000000;stroke-width:0.52;stroke-miterlimit:5;" d="M292.5,58.8l0.2-0.4l0.2-0.3l0.2-0.3l0.2-0.3
		l0.3-0.3l0.4-0.3l0.5-0.3l0.5-0.2l0.4-0.1l0.4-0.1l0.3,0l0.2,0l0.2,0.1l0.2,0.1l0.2,0.2l0.2,0.2l0.1,0.3c0.5,1.4,0.9,6,0.1,7.3
		l-0.2,0.3l-0.2,0.2l-0.2,0.2c-4.8,4.8-4.9-3.1-4.3-6.1L292.5,58.8L292.5,58.8"/>
	<path style="fill:none;stroke:#000000;stroke-width:0.52;stroke-miterlimit:5;" d="M305,51.5l0.2-0.4l0.2-0.4l0.2-0.3l0.2-0.3
		l0.3-0.3l0.4-0.3l0.5-0.2l0.5-0.2l0.5-0.1l0.4-0.1l0.3,0l0.2,0L309,49l0.2,0.1l0.2,0.2l0.2,0.2l0.1,0.3c0.5,1.3,0.9,6.1,0.1,7.3
		l-0.2,0.3l-0.2,0.2l-0.2,0.2c-4.9,4.8-4.9-3.1-4.4-6.1L305,51.5L305,51.5"/>
	<path style="fill:none;stroke:#000000;stroke-width:0.52;stroke-miterlimit:5;" d="M313.6,46.7l0.2-0.4l0.2-0.4l0.2-0.3l0.2-0.3
		l0.3-0.3l0.4-0.3l0.4-0.3l0.5-0.2l0.5-0.1l0.4,0l0.3,0l0.2,0l0.2,0.1l0.2,0.1l0.2,0.2l0.2,0.2l0.1,0.3c0.5,1.2,0.9,6.1,0.1,7.3
		l-0.1,0.3l-0.2,0.2l-0.2,0.2c-4.8,4.8-4.9-3.1-4.4-6.1L313.6,46.7L313.6,46.7"/>
	<path style="fill:none;stroke:#000000;stroke-width:0.52;stroke-miterlimit:5;" d="M324.5,40.3l0.2-0.4l0.2-0.4l0.2-0.3l0.2-0.3
		l0.3-0.3l0.4-0.3l0.5-0.2l0.5-0.2l0.5-0.1l0.4,0l0.3,0l0.2,0l0.2,0.1l0.2,0.1l0.2,0.2l0.2,0.2l0.1,0.3c0.5,1.3,0.9,6.1,0.1,7.3
		l-0.2,0.3l-0.2,0.2l-0.2,0.2c-4.8,4.8-4.9-3.1-4.4-6.1L324.5,40.3L324.5,40.3"/>
	<path style="fill:none;stroke:#000000;stroke-width:0.52;stroke-miterlimit:5;" d="M352.9,14.5l-1.7,1.5
		c-9.8,10.3-5.4,30.2,0.1,41.5l0,0.1"/>
	<path style="fill:none;stroke:#000000;stroke-width:0.52;stroke-miterlimit:5;" d="M347.3,17.7l-1.5,1.3c-7.2,7.4-6.5,20.9-4,30.1
		l0.1,0.5"/>
	<line style="fill:none;stroke:#000000;stroke-width:0.23;stroke-miterlimit:5;" x1="63.6" y1="283.9" x2="74.1" y2="290"/>
	<line style="fill:none;stroke:#000000;stroke-width:0.23;stroke-miterlimit:5;" x1="76.8" y1="291.5" x2="79.4" y2="293"/>
	<line style="fill:none;stroke:#000000;stroke-width:0.23;stroke-miterlimit:5;" x1="82.1" y1="294.5" x2="92.6" y2="300.6"/>
	<path style="fill:none;stroke:#000000;stroke-width:0.52;stroke-miterlimit:5;" d="M244.6,150l0.1-0.3l0.1-0.3
		c4.1-6.3,6.1,3,4.9,6.1l-0.1,0.3l-0.2,0.3l-0.2,0.2c-0.6,0.7-2,1.6-3,1.2l-0.1,0l-0.1-0.1c-1.1-1.5-1.6-3.8-1.5-5.7v-0.9l0-0.6V150
		"/>
	<line style="fill:none;stroke:#000000;stroke-width:0.23;stroke-miterlimit:5;" x1="376.5" y1="115.8" x2="378.8" y2="117.2"/>
	<line style="fill:none;stroke:#000000;stroke-width:0.23;stroke-miterlimit:5;" x1="381.2" y1="118.6" x2="390.7" y2="124.1"/>
	<polyline style="fill:none;stroke:#000000;stroke-width:0.52;stroke-miterlimit:5;" points="45.5,221.3 46.3,224.2 47.7,228 
		49.3,231.8 	"/>
	<polyline style="fill:none;stroke:#000000;stroke-width:0.52;stroke-miterlimit:5;" points="87.9,196.7 88.7,199.5 91.7,207.1 	"/>
	<polyline style="fill:none;stroke:#000000;stroke-width:0.52;stroke-miterlimit:5;" points="218,191.7 218.6,191.3 220.3,189.6 
		221.8,187.5 223,185.1 224,182.4 224.1,181.8 	"/>
	<polyline style="fill:none;stroke:#000000;stroke-width:0.52;stroke-miterlimit:5;" points="127.8,173.5 128.6,176.4 130,180.2 
		131.6,183.9 	"/>
	<polyline style="fill:none;stroke:#000000;stroke-width:0.52;stroke-miterlimit:5;" points="169.4,149.8 170.2,152.7 171.6,156.5 
		173.2,160.2 	"/>
	<polyline style="fill:none;stroke:#000000;stroke-width:0.52;stroke-miterlimit:5;" points="216.6,122.6 217.4,125.4 218.8,129.2 
		220.4,133 	"/>
	<polyline style="fill:none;stroke:#000000;stroke-width:0.52;stroke-miterlimit:5;" points="259.5,97.8 260.3,100.7 261.7,104.5 
		263.3,108.2 	"/>
	<polyline style="fill:none;stroke:#000000;stroke-width:0.52;stroke-miterlimit:5;" points="303.3,72.5 304.1,75.4 305.5,79.2 
		307.1,82.9 	"/>
	<polyline style="fill:none;stroke:#000000;stroke-width:0.52;stroke-miterlimit:5;" points="341.9,50.2 342.8,53.1 344.1,56.9 
		345.7,60.6 	"/>
	<polyline style="fill:none;stroke:#000000;stroke-width:0.52;stroke-miterlimit:5;" points="268.2,162.8 268.7,162.4 270.5,160.6 
		271.9,158.5 273.2,156.1 274.2,153.5 274.3,152.8 	"/>
	<polyline style="fill:none;stroke:#000000;stroke-width:0.52;stroke-miterlimit:5;" points="311.2,137.9 311.7,137.5 313.4,135.8 
		314.9,133.7 316.2,131.3 317.1,128.7 317.3,128 	"/>
	<polyline style="fill:none;stroke:#000000;stroke-width:0.52;stroke-miterlimit:5;" points="355,112.6 355.6,112.2 357.3,110.5 
		358.8,108.4 360,106 361,103.3 361.2,102.7 	"/>
	<polyline style="fill:none;stroke:#000000;stroke-width:0.52;stroke-miterlimit:5;" points="364.2,107.3 364.8,106.9 365.6,106 	
		"/>
	<polyline style="fill:none;stroke:#000000;stroke-width:0.52;stroke-miterlimit:5;" points="366.2,104.3 366.4,104 367.6,101.6 
		368.6,99 368.8,98.3 	"/>
	<line style="fill:none;stroke:#000000;stroke-width:0.23;stroke-miterlimit:5;" x1="331.7" y1="53" x2="324.1" y2="48.5"/>
	<line style="fill:none;stroke:#000000;stroke-width:0.23;stroke-miterlimit:5;" x1="314.8" y1="43.2" x2="311.7" y2="41.4"/>
	<line style="fill:none;stroke:#000000;stroke-width:0.23;stroke-miterlimit:5;" x1="306.7" y1="38.5" x2="293" y2="30.6"/>
	<line style="fill:none;stroke:#000000;stroke-width:0.23;stroke-miterlimit:5;" x1="344.4" y1="60.3" x2="337.5" y2="56.3"/>
	<path style="fill-rule:evenodd;clip-rule:evenodd;" d="M202.8,138.6l0-0.2l0-0.2c-0.4-1.2-2.1-1.2-2.5,0l-0.1,0.2l0,0.2
		c0,1.4,1.9,1.9,2.5,0.6l0.1-0.2l0-0.2"/>
	<path style="fill-rule:evenodd;clip-rule:evenodd;" d="M179.3,129.4l0-0.2l0-0.2c-0.4-1.2-2.1-1.2-2.5,0l-0.1,0.2l0,0.2
		c0,1.4,1.9,1.9,2.5,0.6l0.1-0.2l0-0.2"/>
	<line style="fill:none;stroke:#000000;stroke-width:0.23;stroke-miterlimit:5;" x1="201.5" y1="138.6" x2="181.3" y2="83.3"/>
	<line style="fill:none;stroke:#000000;stroke-width:0.23;stroke-miterlimit:5;" x1="178" y1="129.2" x2="151.2" y2="112.1"/>
	<polyline style="fill:none;stroke:#000000;stroke-width:0.52;stroke-miterlimit:5;" points="195.2,140.1 195.1,140.1 194.9,140.1 
		194.7,140.2 194.6,140.4 194.4,140.5 	"/>
	<path style="fill:none;stroke:#000000;stroke-width:0.52;stroke-miterlimit:5;" d="M194.1,141.8c0,0.4,0.2,0.7,0.5,0.8
		c0.4,0.1,0.9-0.4,1-1.1c0.2-0.7,0-1.3-0.4-1.4c0,0,0,0,0,0"/>
	<path style="fill:none;stroke:#000000;stroke-width:0.52;stroke-miterlimit:5;" d="M174.6,149.7c-0.4-0.1-0.9,0.4-1,1.1
		c-0.2,0.7,0,1.3,0.4,1.4c0.3,0.1,0.7-0.2,1-0.8"/>
	<polyline style="fill:none;stroke:#000000;stroke-width:0.52;stroke-miterlimit:5;" points="175,150.2 175,150.1 174.9,149.9 
		174.8,149.8 174.7,149.8 174.6,149.7 	"/>
	<line style="fill:none;stroke:#000000;stroke-width:0.52;stroke-miterlimit:5;" x1="192.5" y1="141.8" x2="179" y2="153"/>
	<path style="fill:none;stroke:#000000;stroke-width:0.52;stroke-miterlimit:5;" d="M179.1,152.9l-0.3,0.3c-0.6,0.6-1,1.7-1,2.5
		l0,0.5"/>
	<line style="fill:none;stroke:#000000;stroke-width:0.52;stroke-miterlimit:5;" x1="192.2" y1="140.6" x2="182.4" y2="148.8"/>
	<line style="fill:none;stroke:#000000;stroke-width:0.52;stroke-miterlimit:5;" x1="180.5" y1="150.4" x2="178.1" y2="152.3"/>
	<line style="fill:none;stroke:#000000;stroke-width:0.52;stroke-miterlimit:5;" x1="175" y1="150.2" x2="182.4" y2="148.7"/>
	<line style="fill:none;stroke:#000000;stroke-width:0.52;stroke-miterlimit:5;" x1="174.8" y1="151.5" x2="180.6" y2="150.3"/>
	<line style="fill:none;stroke:#000000;stroke-width:0.52;stroke-miterlimit:5;" x1="192.2" y1="140.6" x2="194.4" y2="140.5"/>
	<line style="fill:none;stroke:#000000;stroke-width:0.52;stroke-miterlimit:5;" x1="192.2" y1="140.6" x2="194.4" y2="140.5"/>
	<line style="fill:none;stroke:#000000;stroke-width:0.52;stroke-miterlimit:5;" x1="192.4" y1="141.9" x2="194" y2="141.7"/>
	<path style="fill:none;stroke:#000000;stroke-width:0.52;stroke-miterlimit:5;" d="M178.1,152.3l-0.3,0.3c-0.6,0.7-0.9,1.6-1,2.4
		l0,0.5l0,0.9"/>
	<polyline style="fill:none;stroke:#000000;stroke-width:0.52;stroke-miterlimit:5;" points="177.9,156.4 177.7,156.8 177.4,157 
		177,157 176.6,156.8 	"/>
	<line style="fill:none;stroke:#000000;stroke-width:0.52;stroke-miterlimit:5;" x1="178.8" y1="147.6" x2="191.1" y2="145.8"/>
	<polyline style="fill:none;stroke:#000000;stroke-width:0.52;stroke-miterlimit:5;" points="182.5,150 182.7,150.8 182.7,151.6 
		183,152.3 183.7,152.9 	"/>
	<polyline style="fill-rule:evenodd;clip-rule:evenodd;" points="194,141.7 192.4,141.9 179.1,152.9 178.4,154.6 177.7,156.2 
		178.1,156.8 177.7,157.1 176.6,156.8 176.7,156.5 176.7,155.6 177,154 177.6,152.9 178.6,151.9 180.6,150.3 174.8,151.5 174.6,152 
		174,152.2 173.6,151.8 173.5,150.9 174,150 174.6,149.7 175,150.2 182.4,148.7 192.2,140.6 193.3,140.5 194.4,140.5 195.2,140.1 
		195.6,140.6 195.7,141.5 195.2,142.4 194.6,142.6 194.1,142.1 	"/>
	<polyline style="fill:none;stroke:#000000;stroke-width:0.52;stroke-miterlimit:5;" points="194,141.7 192.4,141.9 179.1,152.9 
		178.4,154.6 177.7,156.2 178.1,156.8 177.7,157.1 176.6,156.8 176.7,156.5 176.7,155.6 177,154 177.6,152.9 178.6,151.9 
		180.6,150.3 174.8,151.5 174.6,152 174,152.2 173.6,151.8 173.5,150.9 174,150 174.6,149.7 175,150.2 182.4,148.7 192.2,140.6 
		193.3,140.5 194.4,140.5 195.2,140.1 195.6,140.6 195.7,141.5 195.2,142.4 194.6,142.6 194.1,142.1 194,141.7 	"/>
	<text transform="matrix(1 0 0 1 270.1385 28.478)" style="font-family:'Helvetica'; font-size:9.15px;">X39.49</text>
	<text transform="matrix(1 0 0 1 388.0984 132.2182)" style="font-family:'Helvetica'; font-size:9.15px;">X101.43</text>
	<text transform="matrix(1 0 0 1 93.4383 308.6977)" style="font-family:'Helvetica'; font-size:9.15px;">X665.25</text>
	<polyline style="fill:none;stroke:#000000;stroke-width:0.52;stroke-miterlimit:5;" points="69.3,274.8 69.4,274.9 69.6,274.9 
		69.8,274.8 70,274.7 70.2,274.6 	"/>
	<polyline style="fill:none;stroke:#000000;stroke-width:0.52;stroke-miterlimit:5;" points="70.8,273.5 70.8,273.3 70.8,273.1 
		70.7,272.9 70.6,272.8 70.5,272.7 	"/>
	<path style="fill:none;stroke:#000000;stroke-width:0.52;stroke-miterlimit:5;" d="M70.5,272.7c-0.3-0.2-0.9,0.1-1.2,0.7
		c-0.4,0.6-0.4,1.2,0,1.4c0,0,0,0,0,0"/>
	<path style="fill:none;stroke:#000000;stroke-width:0.52;stroke-miterlimit:5;" d="M69.8,274.4l0.3,0.1c1.5,0.7,1.1,2.4,1.1,3.8
		l0,0.1"/>
	<path style="fill:none;stroke:#000000;stroke-width:0.52;stroke-miterlimit:5;" d="M70.2,273.2l0.5,0.2c2,1,1.7,3,1.8,4.9v0.1"/>
	<polyline style="fill:none;stroke:#000000;stroke-width:0.52;stroke-miterlimit:5;" points="72.5,278.6 72.2,278.8 71.8,278.9 
		71.5,278.8 71.2,278.6 	"/>
	<path style="fill-rule:evenodd;clip-rule:evenodd;" d="M72.3,278.8L72.3,278.8l-0.6,0.2l-0.3-0.2l-0.2-0.4v-2l-0.1-0.8l-0.3-0.6
		l-0.3-0.4l-0.2-0.1l-0.3,0.2l-0.6,0.1l-0.3-0.3l0-0.6l0.3-0.7l0.4-0.5l0.4-0.2l0.4,0l0.2,0.3l0,0.5l0.6,0.3c1.1,1.5,1.4,2.2,1.1,4
		l0.1,0.8"/>
	<path style="fill:none;stroke:#000000;stroke-width:0.52;stroke-miterlimit:5;" d="M72.3,278.8L72.3,278.8l-0.6,0.2l-0.3-0.2
		l-0.2-0.4v-2l-0.1-0.8l-0.3-0.6l-0.4-0.3l-0.2-0.1l-0.3,0.2l-0.6,0.1l-0.3-0.3l0-0.6l0.3-0.7l0.4-0.5l0.4-0.2l0.4,0l0.2,0.3l0,0.5
		l0.6,0.3c1.1,1.5,1.4,2.2,1.1,4l0.1,0.8L72.3,278.8"/>
	<polyline style="fill:none;stroke:#000000;stroke-width:0.52;stroke-miterlimit:5;" points="95.4,260.3 95.5,260.4 95.7,260.4 
		95.9,260.3 96.1,260.2 96.3,260.1 	"/>
	<polyline style="fill:none;stroke:#000000;stroke-width:0.52;stroke-miterlimit:5;" points="96.9,259 96.9,258.8 96.9,258.6 
		96.8,258.4 96.7,258.3 96.6,258.2 	"/>
	<path style="fill:none;stroke:#000000;stroke-width:0.52;stroke-miterlimit:5;" d="M96.6,258.2C96.6,258.2,96.6,258.2,96.6,258.2
		c-0.4-0.2-0.9,0.1-1.3,0.7c-0.3,0.6-0.3,1.2,0,1.4"/>
	<path style="fill:none;stroke:#000000;stroke-width:0.52;stroke-miterlimit:5;" d="M95.8,259.9l0.3,0.1c1.4,0.7,1.1,2.5,1.1,3.8
		v0.1"/>
	<path style="fill:none;stroke:#000000;stroke-width:0.52;stroke-miterlimit:5;" d="M96.3,258.7l0.5,0.2c1.9,0.9,1.8,3.1,1.8,4.9
		v0.1"/>
	<polyline style="fill:none;stroke:#000000;stroke-width:0.52;stroke-miterlimit:5;" points="98.6,264.1 98.2,264.3 97.9,264.4 
		97.6,264.3 97.3,264.1 	"/>
	<path style="fill:none;stroke:#000000;stroke-width:0.52;stroke-miterlimit:5;" d="M98.4,264.3L98.4,264.3l-0.6,0.2l-0.3-0.2
		l-0.2-0.4v-2l-0.1-0.8l-0.3-0.6l-0.4-0.4l-0.2-0.1l-0.2,0.2l-0.6,0l-0.3-0.3l0-0.6l0.3-0.7l0.4-0.5l0.4-0.2l0.4,0l0.2,0.3l0,0.5
		l0.6,0.3c1.1,1.5,1.3,2.1,1.1,4l0.1,0.8L98.4,264.3"/>
	<polyline style="fill:none;stroke:#000000;stroke-width:0.52;stroke-miterlimit:5;" points="136.4,237 136.6,237 136.7,237 
		136.9,237 137.1,236.9 137.3,236.7 	"/>
	<polyline style="fill:none;stroke:#000000;stroke-width:0.52;stroke-miterlimit:5;" points="137.9,235.6 137.9,235.4 137.9,235.2 
		137.9,235.1 137.8,234.9 137.7,234.8 	"/>
	<path style="fill:none;stroke:#000000;stroke-width:0.52;stroke-miterlimit:5;" d="M137.7,234.8c-0.3-0.2-0.9,0.1-1.2,0.7
		c-0.3,0.6-0.3,1.2,0,1.4"/>
	<path style="fill:none;stroke:#000000;stroke-width:0.52;stroke-miterlimit:5;" d="M136.9,236.5l0.3,0.1c1.4,0.7,1.1,2.5,1.1,3.8
		v0.1"/>
	<path style="fill:none;stroke:#000000;stroke-width:0.52;stroke-miterlimit:5;" d="M137.3,235.3l0.5,0.2c2,1.1,1.8,3,1.8,4.9v0.1"
		/>
	<polyline style="fill:none;stroke:#000000;stroke-width:0.52;stroke-miterlimit:5;" points="139.6,240.8 139.3,241 139,241.1 
		138.6,241 138.3,240.8 	"/>
	<path style="fill:none;stroke:#000000;stroke-width:0.52;stroke-miterlimit:5;" d="M139.4,241L139.4,241l-0.6,0.2l-0.3-0.2
		l-0.2-0.4v-2l-0.1-0.8l-0.3-0.6l-0.3-0.4l-0.2-0.1l-0.3,0.2l-0.6,0.1l-0.3-0.3l0-0.6l0.3-0.7l0.4-0.5l0.4-0.2l0.4,0.1l0.2,0.3
		l0,0.5l0.6,0.3c1.7,2.3,1,2.3,1.1,4.8L139.4,241"/>
	<polyline style="fill:none;stroke:#000000;stroke-width:0.52;stroke-miterlimit:5;" points="146.8,231.8 147,231.9 147.1,231.9 
		147.3,231.8 147.5,231.7 147.7,231.6 	"/>
	<polyline style="fill:none;stroke:#000000;stroke-width:0.52;stroke-miterlimit:5;" points="148.3,230.5 148.3,230.3 148.3,230.1 
		148.2,229.9 148.2,229.8 148,229.7 	"/>
	<path style="fill:none;stroke:#000000;stroke-width:0.52;stroke-miterlimit:5;" d="M148.1,229.7C148,229.7,148,229.7,148.1,229.7
		c-0.3-0.2-0.9,0.1-1.2,0.7c-0.3,0.6-0.3,1.2,0,1.4"/>
	<path style="fill:none;stroke:#000000;stroke-width:0.52;stroke-miterlimit:5;" d="M147.3,231.4l0.3,0.1c1.4,0.7,1.1,2.5,1.1,3.8
		v0.1"/>
	<path style="fill:none;stroke:#000000;stroke-width:0.52;stroke-miterlimit:5;" d="M147.7,230.2l0.5,0.2c2,1,1.8,3,1.8,4.9v0.1"/>
	<polyline style="fill:none;stroke:#000000;stroke-width:0.52;stroke-miterlimit:5;" points="150,235.6 149.7,235.8 149.3,235.9 
		149,235.8 148.7,235.6 	"/>
	<path style="fill:none;stroke:#000000;stroke-width:0.52;stroke-miterlimit:5;" d="M149.8,235.8L149.8,235.8l-0.6,0.2l-0.3-0.2
		l-0.2-0.4v-2l-0.1-0.8l-0.3-0.6l-0.4-0.3l-0.2-0.1l-0.3,0.2l-0.6,0.1l-0.3-0.3l0-0.6l0.3-0.7l0.4-0.5l0.4-0.2l0.4,0l0.2,0.3l0,0.5
		l0.6,0.3c1.8,2.4,1,2.3,1.1,4.8L149.8,235.8"/>
	<polyline style="fill:none;stroke:#000000;stroke-width:0.52;stroke-miterlimit:5;" points="146.8,231.8 147,231.9 147.1,231.9 
		147.3,231.8 147.5,231.7 147.7,231.6 	"/>
	<polyline style="fill:none;stroke:#000000;stroke-width:0.52;stroke-miterlimit:5;" points="148.3,230.5 148.3,230.3 148.3,230.1 
		148.2,229.9 148.2,229.8 148,229.7 	"/>
	<path style="fill:none;stroke:#000000;stroke-width:0.52;stroke-miterlimit:5;" d="M148.1,229.7C148,229.7,148,229.7,148.1,229.7
		c-0.3-0.2-0.9,0.1-1.2,0.7c-0.3,0.6-0.3,1.2,0,1.4"/>
	<path style="fill:none;stroke:#000000;stroke-width:0.52;stroke-miterlimit:5;" d="M147.3,231.4l0.3,0.1c1.4,0.7,1.1,2.5,1.1,3.8
		v0.1"/>
	<path style="fill:none;stroke:#000000;stroke-width:0.52;stroke-miterlimit:5;" d="M147.7,230.2l0.5,0.2c2,1,1.8,3,1.8,4.9v0.1"/>
	<polyline style="fill:none;stroke:#000000;stroke-width:0.52;stroke-miterlimit:5;" points="150,235.6 149.7,235.8 149.3,235.9 
		149,235.8 148.7,235.6 	"/>
	<path style="fill:none;stroke:#000000;stroke-width:0.52;stroke-miterlimit:5;" d="M149.8,235.8L149.8,235.8l-0.6,0.2l-0.3-0.2
		l-0.2-0.4v-2l-0.1-0.8l-0.3-0.6l-0.4-0.3l-0.2-0.1l-0.3,0.2l-0.6,0.1l-0.3-0.3l0-0.6l0.3-0.7l0.4-0.5l0.4-0.2l0.4,0l0.2,0.3l0,0.5
		l0.6,0.3c1.8,2.4,1,2.3,1.1,4.8L149.8,235.8"/>
	<polyline style="fill:none;stroke:#000000;stroke-width:0.52;stroke-miterlimit:5;" points="146.8,231.8 147,231.9 147.1,231.9 
		147.3,231.8 147.5,231.7 147.7,231.6 	"/>
	<polyline style="fill:none;stroke:#000000;stroke-width:0.52;stroke-miterlimit:5;" points="148.3,230.5 148.3,230.3 148.3,230.1 
		148.2,229.9 148.2,229.8 148,229.7 	"/>
	<path style="fill:none;stroke:#000000;stroke-width:0.52;stroke-miterlimit:5;" d="M148.1,229.7C148,229.7,148,229.7,148.1,229.7
		c-0.3-0.2-0.9,0.1-1.2,0.7c-0.3,0.6-0.3,1.2,0,1.4"/>
	<path style="fill:none;stroke:#000000;stroke-width:0.52;stroke-miterlimit:5;" d="M147.3,231.4l0.3,0.1c1.4,0.7,1.1,2.5,1.1,3.8
		v0.1"/>
	<path style="fill:none;stroke:#000000;stroke-width:0.52;stroke-miterlimit:5;" d="M147.7,230.2l0.5,0.2c2,1,1.8,3,1.8,4.9v0.1"/>
	<polyline style="fill:none;stroke:#000000;stroke-width:0.52;stroke-miterlimit:5;" points="150,235.6 149.7,235.8 149.3,235.9 
		149,235.8 148.7,235.6 	"/>
	<path style="fill:none;stroke:#000000;stroke-width:0.52;stroke-miterlimit:5;" d="M149.8,235.8L149.8,235.8l-0.6,0.2l-0.3-0.2
		l-0.2-0.4v-2l-0.1-0.8l-0.3-0.6l-0.4-0.3l-0.2-0.1l-0.3,0.2l-0.6,0.1l-0.3-0.3l0-0.6l0.3-0.7l0.4-0.5l0.4-0.2l0.4,0l0.2,0.3l0,0.5
		l0.6,0.3c1.8,2.4,1,2.3,1.1,4.8L149.8,235.8"/>
	<polyline style="fill:none;stroke:#000000;stroke-width:0.52;stroke-miterlimit:5;" points="364.2,105.8 364.4,105.8 364.5,105.8 
		364.7,105.8 364.9,105.7 365.1,105.5 	"/>
	<polyline style="fill:none;stroke:#000000;stroke-width:0.52;stroke-miterlimit:5;" points="365.7,104.4 365.7,104.2 365.7,104 
		365.6,103.9 365.6,103.7 365.5,103.6 	"/>
	<path style="fill:none;stroke:#000000;stroke-width:0.52;stroke-miterlimit:5;" d="M365.5,103.6
		C365.5,103.6,365.5,103.6,365.5,103.6c-0.4-0.2-0.9,0.1-1.3,0.7c-0.3,0.6-0.3,1.2,0,1.4"/>
	<path style="fill:none;stroke:#000000;stroke-width:0.52;stroke-miterlimit:5;" d="M364.7,105.3l0.3,0.1c1.5,0.7,1.1,2.5,1.1,3.8
		v0.1"/>
	<path style="fill:none;stroke:#000000;stroke-width:0.52;stroke-miterlimit:5;" d="M365.1,104.1l0.5,0.2c1.9,0.9,1.8,3.1,1.8,4.9
		v0.1"/>
	<polyline style="fill:none;stroke:#000000;stroke-width:0.52;stroke-miterlimit:5;" points="367.4,109.6 367.1,109.8 366.8,109.9 
		366.4,109.8 366.1,109.6 	"/>
	<path style="fill:none;stroke:#000000;stroke-width:0.52;stroke-miterlimit:5;" d="M367.2,109.7L367.2,109.7l-0.6,0.2l-0.3-0.2
		l-0.2-0.4v-2l-0.1-0.8l-0.3-0.6l-0.4-0.3l-0.2-0.1l-0.2,0.2l-0.6,0l-0.3-0.3l0-0.6l0.3-0.7l0.4-0.5l0.4-0.2l0.4,0l0.2,0.3l0,0.5
		l0.6,0.3c1.1,1.4,1.3,2.2,1.1,4l0,0.8L367.2,109.7"/>
	<polyline style="fill:none;stroke:#000000;stroke-width:0.52;stroke-miterlimit:5;" points="347.8,114.7 348,114.7 348.1,114.7 
		348.3,114.7 348.5,114.6 348.7,114.4 	"/>
	<polyline style="fill:none;stroke:#000000;stroke-width:0.52;stroke-miterlimit:5;" points="349.3,113.3 349.3,113.1 349.3,112.9 
		349.3,112.8 349.2,112.6 349.1,112.5 	"/>
	<path style="fill:none;stroke:#000000;stroke-width:0.52;stroke-miterlimit:5;" d="M349.1,112.5
		C349.1,112.5,349.1,112.5,349.1,112.5c-0.3-0.2-0.9,0.1-1.2,0.7c-0.3,0.6-0.3,1.2,0,1.4"/>
	<path style="fill:none;stroke:#000000;stroke-width:0.52;stroke-miterlimit:5;" d="M348.3,114.2l0.3,0.1c1.4,0.7,1.1,2.5,1.1,3.8
		v0.1"/>
	<path style="fill:none;stroke:#000000;stroke-width:0.52;stroke-miterlimit:5;" d="M348.7,113.1l0.5,0.2c2,1.1,1.7,3,1.8,4.9v0.1"
		/>
	<polyline style="fill:none;stroke:#000000;stroke-width:0.52;stroke-miterlimit:5;" points="351,118.5 350.7,118.7 350.4,118.8 
		350,118.7 349.7,118.5 	"/>
	<path style="fill:none;stroke:#000000;stroke-width:0.52;stroke-miterlimit:5;" d="M350.8,118.7L350.8,118.7l-0.6,0.2l-0.3-0.2
		l-0.2-0.4v-2l-0.1-0.8l-0.3-0.6l-0.4-0.3l-0.2-0.1l-0.3,0.2l-0.6,0.1l-0.3-0.3l0-0.6l0.3-0.7l0.4-0.5l0.4-0.2l0.4,0l0.2,0.3l0,0.5
		l0.6,0.3c1.1,1.6,1.3,2,1.1,4l0.1,0.8L350.8,118.7"/>
	<polyline style="fill:none;stroke:#000000;stroke-width:0.52;stroke-miterlimit:5;" points="325.4,127.7 325.5,127.7 325.7,127.7 
		325.9,127.7 326.1,127.6 326.2,127.4 	"/>
	<path style="fill:none;stroke:#000000;stroke-width:0.52;stroke-miterlimit:5;" d="M326.8,126.3c0.1-0.4,0-0.7-0.2-0.8
		c-0.3-0.2-0.9,0.1-1.2,0.7c-0.3,0.6-0.4,1.2,0,1.4c0,0,0,0,0,0"/>
	<path style="fill:none;stroke:#000000;stroke-width:0.52;stroke-miterlimit:5;" d="M325.8,127.2l0.3,0.1c1.4,0.7,1.1,2.5,1.1,3.8
		v0.1"/>
	<path style="fill:none;stroke:#000000;stroke-width:0.52;stroke-miterlimit:5;" d="M326.3,126.1l0.5,0.2c2,1,1.7,3,1.8,4.9v0.1"/>
	<polyline style="fill:none;stroke:#000000;stroke-width:0.52;stroke-miterlimit:5;" points="328.6,131.4 328.2,131.7 327.9,131.7 
		327.6,131.7 327.2,131.4 	"/>
	<path style="fill:none;stroke:#000000;stroke-width:0.52;stroke-miterlimit:5;" d="M328.3,131.7L328.3,131.7l-0.6,0.2l-0.3-0.2
		l-0.2-0.4v-2l-0.1-0.8l-0.3-0.6l-0.4-0.4l-0.2-0.1l-0.3,0.2l-0.6,0.1l-0.3-0.3l0-0.6l0.3-0.7l0.4-0.5l0.4-0.2l0.4,0.1l0.2,0.3
		l0,0.5l0.6,0.3c1.7,2.4,1,2.2,1.1,4.8L328.3,131.7"/>
	<polyline style="fill:none;stroke:#000000;stroke-width:0.52;stroke-miterlimit:5;" points="308.2,137.5 308.4,137.5 308.5,137.5 
		308.7,137.5 308.9,137.4 309.1,137.2 	"/>
	<path style="fill:none;stroke:#000000;stroke-width:0.52;stroke-miterlimit:5;" d="M309.7,136.2c0.1-0.4,0-0.7-0.2-0.8
		c-0.3-0.2-0.9,0.1-1.2,0.7c-0.3,0.6-0.3,1.2,0,1.4"/>
	<path style="fill:none;stroke:#000000;stroke-width:0.52;stroke-miterlimit:5;" d="M308.7,137l0.3,0.1c1.5,0.7,1.1,2.5,1.1,3.8v0.1
		"/>
	<path style="fill:none;stroke:#000000;stroke-width:0.52;stroke-miterlimit:5;" d="M309.1,135.9l0.5,0.2c1.9,0.9,1.8,3.1,1.8,4.9
		v0.1"/>
	<polyline style="fill:none;stroke:#000000;stroke-width:0.52;stroke-miterlimit:5;" points="311.4,141.3 311.1,141.5 310.8,141.6 
		310.4,141.5 310.1,141.3 	"/>
	<path style="fill:none;stroke:#000000;stroke-width:0.52;stroke-miterlimit:5;" d="M311.2,141.5L311.2,141.5l-0.6,0.2l-0.3-0.2
		l-0.2-0.4v-2l-0.1-0.8l-0.3-0.6l-0.4-0.3l-0.2-0.1l-0.3,0.2l-0.6,0.1l-0.3-0.3l0-0.6l0.3-0.7l0.4-0.5l0.4-0.2l0.4,0l0.2,0.3l0,0.5
		l0.6,0.3c1.1,1.6,1.3,2.1,1.1,4l0.1,0.8L311.2,141.5"/>
	<polyline style="fill:none;stroke:#000000;stroke-width:0.52;stroke-miterlimit:5;" points="282.9,152.8 283,152.9 283.2,152.9 
		283.4,152.8 283.6,152.7 283.7,152.6 	"/>
	<path style="fill:none;stroke:#000000;stroke-width:0.52;stroke-miterlimit:5;" d="M284.3,151.5c0.1-0.4,0-0.7-0.2-0.8
		c-0.3-0.2-0.9,0.1-1.2,0.7c-0.3,0.6-0.3,1.2,0,1.4"/>
	<path style="fill:none;stroke:#000000;stroke-width:0.52;stroke-miterlimit:5;" d="M283.3,152.4l0.3,0.1c1.5,0.7,1.1,2.5,1.1,3.8
		v0.1"/>
	<path style="fill:none;stroke:#000000;stroke-width:0.52;stroke-miterlimit:5;" d="M283.8,151.2l0.5,0.2c2,1,1.7,3,1.8,4.9v0.1"/>
	<polyline style="fill:none;stroke:#000000;stroke-width:0.52;stroke-miterlimit:5;" points="286.1,156.6 285.7,156.8 285.4,156.9 
		285.1,156.8 284.7,156.6 	"/>
	<path style="fill:none;stroke:#000000;stroke-width:0.52;stroke-miterlimit:5;" d="M285.8,156.8L285.8,156.8l-0.6,0.2l-0.3-0.2
		l-0.2-0.4v-2l-0.1-0.8l-0.3-0.6l-0.3-0.3l-0.2-0.1l-0.3,0.2l-0.6,0.1l-0.3-0.3l0-0.6l0.3-0.7l0.4-0.5l0.4-0.2l0.4,0.1l0.2,0.3
		l0,0.5l0.6,0.3c1.2,1.6,1.3,2,1.1,4l0.1,0.8L285.8,156.8"/>
	<polyline style="fill:none;stroke:#000000;stroke-width:0.52;stroke-miterlimit:5;" points="260.4,165.5 260.6,165.6 260.8,165.6 
		260.9,165.5 261.1,165.4 261.3,165.2 	"/>
	<path style="fill:none;stroke:#000000;stroke-width:0.52;stroke-miterlimit:5;" d="M261.9,164.1c0.1-0.4,0-0.7-0.2-0.8
		c-0.3-0.2-0.9,0.1-1.2,0.7c-0.3,0.6-0.3,1.2,0,1.4"/>
	<path style="fill:none;stroke:#000000;stroke-width:0.52;stroke-miterlimit:5;" d="M260.9,165l0.3,0.2c1.5,0.7,1.1,2.5,1.1,3.8v0.1
		"/>
	<path style="fill:none;stroke:#000000;stroke-width:0.52;stroke-miterlimit:5;" d="M261.3,163.9l0.5,0.2c1.9,0.9,1.8,3.1,1.8,4.9
		v0.1"/>
	<polyline style="fill:none;stroke:#000000;stroke-width:0.52;stroke-miterlimit:5;" points="263.6,169.3 263.3,169.5 263,169.6 
		262.6,169.5 262.3,169.3 	"/>
	<path style="fill:none;stroke:#000000;stroke-width:0.52;stroke-miterlimit:5;" d="M263.4,169.5L263.4,169.5l-0.6,0.2l-0.3-0.2
		l-0.2-0.4v-2l-0.1-0.8l-0.3-0.6l-0.4-0.3l-0.2-0.1l-0.3,0.2l-0.6,0.1l-0.3-0.3l0-0.6l0.3-0.7l0.4-0.5l0.4-0.2l0.4,0.1l0.2,0.3
		l0,0.5l0.6,0.3c1.1,1.5,1.3,2.2,1.1,4l0,0.8L263.4,169.5"/>
	<polyline style="fill:none;stroke:#000000;stroke-width:0.52;stroke-miterlimit:5;" points="236.9,179.2 237,179.2 237.2,179.2 
		237.4,179.2 237.6,179.1 237.8,178.9 	"/>
	<path style="fill:none;stroke:#000000;stroke-width:0.52;stroke-miterlimit:5;" d="M238.4,177.8c0.1-0.4,0-0.7-0.2-0.8
		c-0.3-0.2-0.9,0.1-1.2,0.7c-0.3,0.6-0.3,1.2,0,1.4"/>
	<path style="fill:none;stroke:#000000;stroke-width:0.52;stroke-miterlimit:5;" d="M237.3,178.7l0.3,0.1c1.5,0.7,1.1,2.5,1.1,3.8
		v0.1"/>
	<path style="fill:none;stroke:#000000;stroke-width:0.52;stroke-miterlimit:5;" d="M237.8,177.5l0.5,0.2c1.9,1,1.8,3.1,1.8,4.9v0.1
		"/>
	<polyline style="fill:none;stroke:#000000;stroke-width:0.52;stroke-miterlimit:5;" points="240.1,182.9 239.7,183.2 239.4,183.2 
		239.1,183.2 238.8,182.9 	"/>
	<path style="fill:none;stroke:#000000;stroke-width:0.52;stroke-miterlimit:5;" d="M239.9,183.1L239.9,183.1l-0.6,0.2l-0.3-0.2
		l-0.2-0.4v-2l-0.1-0.8l-0.3-0.6L238,179l-0.2-0.1l-0.3,0.2l-0.6,0.1l-0.3-0.3l0-0.6l0.3-0.7l0.4-0.5l0.4-0.2l0.4,0l0.2,0.3l0,0.5
		l0.6,0.3c1.1,1.5,1.3,2.1,1.1,4l0,0.8L239.9,183.1"/>
	<path style="fill:none;stroke:#000000;stroke-width:0.52;stroke-miterlimit:5;" d="M215.4,186.7l0.5-2.1c1.7-9.3-0.8-20.1-4.5-28.7
		l-0.4-0.8"/>
	<path style="fill:none;stroke:#000000;stroke-width:0.52;stroke-miterlimit:5;" d="M215.4,186.7l0.5-2.1c1.7-9.3-0.8-20.1-4.5-28.7
		l-0.4-0.8"/>
	<path style="fill:none;stroke:#000000;stroke-width:0.52;stroke-miterlimit:5;" d="M215.4,186.7l0.5-2.1c1.7-9.3-0.8-20.1-4.5-28.7
		l-0.4-0.8"/>
	<path style="fill:none;stroke:#000000;stroke-width:0.52;stroke-miterlimit:5;" d="M224,182.4l0.5-2.1c1.7-9.5-0.8-19.9-4.5-28.7
		l-0.4-0.8"/>
	<path style="fill:none;stroke:#000000;stroke-width:0.52;stroke-miterlimit:5;" d="M224,182.4l0.5-2.1c1.7-9.5-0.8-19.9-4.5-28.7
		l-0.4-0.8"/>
	<path style="fill:none;stroke:#000000;stroke-width:0.52;stroke-miterlimit:5;" d="M224,182.4l0.5-2.1c1.7-9.5-0.8-19.9-4.5-28.7
		l-0.4-0.8"/>
	<path style="fill:none;stroke:#000000;stroke-width:0.52;stroke-miterlimit:5;" d="M189,202l0.5-2.1c1.7-9.5-0.8-19.9-4.5-28.7
		l-0.4-0.8"/>
	<path style="fill:none;stroke:#000000;stroke-width:0.52;stroke-miterlimit:5;" d="M189,202l0.5-2.1c1.7-9.5-0.8-19.9-4.5-28.7
		l-0.4-0.8"/>
	<path style="fill:none;stroke:#000000;stroke-width:0.52;stroke-miterlimit:5;" d="M189,202l0.5-2.1c1.7-9.5-0.8-19.9-4.5-28.7
		l-0.4-0.8"/>
	<polyline style="fill:none;stroke:#000000;stroke-width:0.52;stroke-miterlimit:5;" points="140.5,236.1 141.1,235.7 142.8,233.9 
		144.3,231.6 145.5,229.4 146.5,226.8 146.6,226.1 	"/>
	<polyline style="fill:none;stroke:#000000;stroke-width:0.52;stroke-miterlimit:5;" points="140.5,236.1 141.1,235.7 142.8,233.9 
		145.5,229.4 146.5,226.8 146.6,226.1 	"/>
	<path style="fill:none;stroke:#000000;stroke-width:0.52;stroke-miterlimit:5;" d="M167.8,214.3l0.5-2.1c1.7-9.5-0.8-20-4.5-28.7
		l-0.3-0.8"/>
	<path style="fill:none;stroke:#000000;stroke-width:0.52;stroke-miterlimit:5;" d="M167.8,214.3l0.5-2.1c1.7-9.5-0.8-20-4.5-28.7
		l-0.3-0.8"/>
	<path style="fill:none;stroke:#000000;stroke-width:0.52;stroke-miterlimit:5;" d="M167.8,214.3l0.5-2.1c1.7-9.5-0.8-20-4.5-28.7
		l-0.3-0.8"/>
	<path style="fill:none;stroke:#000000;stroke-width:0.52;stroke-miterlimit:5;" d="M146.5,226.8l0.5-2.1c1.7-9.5-0.8-19.9-4.5-28.7
		l-0.3-0.8"/>
	<path style="fill:none;stroke:#000000;stroke-width:0.52;stroke-miterlimit:5;" d="M146.5,226.8l0.5-2.1c1.7-9.5-0.8-19.9-4.5-28.7
		l-0.3-0.8"/>
	<path style="fill:none;stroke:#000000;stroke-width:0.52;stroke-miterlimit:5;" d="M146.5,226.8l0.5-2.1c1.7-9.5-0.8-19.9-4.5-28.7
		l-0.3-0.8"/>
	<path style="fill:none;stroke:#000000;stroke-width:0.52;stroke-miterlimit:5;" d="M113.8,245.7l0.5-2.1c1.7-9.4-0.8-20-4.5-28.7
		l-0.4-0.8"/>
	<path style="fill:none;stroke:#000000;stroke-width:0.52;stroke-miterlimit:5;" d="M113.8,245.7l0.5-2.1c1.7-9.4-0.8-20-4.5-28.7
		l-0.4-0.8"/>
	<path style="fill:none;stroke:#000000;stroke-width:0.52;stroke-miterlimit:5;" d="M113.8,245.7l0.5-2.1c1.7-9.4-0.8-20-4.5-28.7
		l-0.4-0.8"/>
	<path style="fill:none;stroke:#000000;stroke-width:0.52;stroke-miterlimit:5;" d="M103,251.7l0.5-2.1c1.7-9.4-0.8-20.1-4.5-28.7
		l-0.4-0.8"/>
	<path style="fill:none;stroke:#000000;stroke-width:0.52;stroke-miterlimit:5;" d="M103,251.7l0.5-2.1c1.7-9.4-0.8-20.1-4.5-28.7
		l-0.4-0.8"/>
	<path style="fill:none;stroke:#000000;stroke-width:0.52;stroke-miterlimit:5;" d="M103,251.7l0.5-2.1c1.7-9.4-0.8-20.1-4.5-28.7
		l-0.4-0.8"/>
	<path style="fill:none;stroke:#000000;stroke-width:0.52;stroke-miterlimit:5;" d="M78.7,265.7l0.5-2.1c1.7-9.3-0.8-20.1-4.5-28.7
		l-0.4-0.8"/>
	<path style="fill:none;stroke:#000000;stroke-width:0.52;stroke-miterlimit:5;" d="M78.7,265.7l0.5-2.1c1.7-9.3-0.8-20.1-4.5-28.7
		l-0.4-0.8"/>
	<path style="fill:none;stroke:#000000;stroke-width:0.52;stroke-miterlimit:5;" d="M78.7,265.7l0.5-2.1c1.7-9.3-0.8-20.1-4.5-28.7
		l-0.4-0.8"/>
	<polyline style="fill:none;stroke:#000000;stroke-width:0.52;stroke-miterlimit:5;" points="98.1,260.3 99.4,259 100.9,256.9 
		102.1,254.5 103.1,251.9 103.3,251.2 	"/>
	<polyline style="fill:none;stroke:#000000;stroke-width:0.52;stroke-miterlimit:5;" points="106,254.5 106.2,254.6 106.4,254.6 
		106.5,254.5 106.7,254.4 106.9,254.3 	"/>
	<polyline style="fill:none;stroke:#000000;stroke-width:0.52;stroke-miterlimit:5;" points="107.5,253.2 107.5,253 107.5,252.8 
		107.5,252.6 107.4,252.5 107.3,252.4 	"/>
	<path style="fill:none;stroke:#000000;stroke-width:0.52;stroke-miterlimit:5;" d="M107.3,252.4c-0.3-0.2-0.9,0.1-1.2,0.7
		c-0.4,0.6-0.4,1.2,0,1.4c0,0,0,0,0,0"/>
	<path style="fill:none;stroke:#000000;stroke-width:0.52;stroke-miterlimit:5;" d="M106.5,254.1l0.3,0.1c1.5,0.7,1.1,2.5,1.1,3.8
		l0,0.1"/>
	<path style="fill:none;stroke:#000000;stroke-width:0.52;stroke-miterlimit:5;" d="M107,252.9l0.5,0.2c2,1,1.7,3,1.8,4.9v0.1"/>
	<polyline style="fill:none;stroke:#000000;stroke-width:0.52;stroke-miterlimit:5;" points="109.3,258.3 108.9,258.5 108.6,258.6 
		108.3,258.5 107.9,258.3 	"/>
	<path style="fill:none;stroke:#000000;stroke-width:0.52;stroke-miterlimit:5;" d="M109,258.5L109,258.5l-0.6,0.2l-0.3-0.2
		l-0.2-0.4v-2l-0.1-0.8l-0.3-0.6l-0.4-0.3l-0.2-0.1l-0.3,0.2l-0.6,0.1l-0.3-0.3l0-0.6l0.3-0.7l0.4-0.5l0.4-0.2l0.4,0l0.2,0.3l0,0.5
		l0.6,0.3c1.1,1.4,1.4,2.2,1.1,4l0.1,0.8L109,258.5"/>
	<polyline style="fill:none;stroke:#000000;stroke-width:0.52;stroke-miterlimit:5;" points="195.1,203.1 195.2,203.2 195.4,203.2 
		195.6,203.1 195.8,203 196,202.9 	"/>
	<path style="fill:none;stroke:#000000;stroke-width:0.52;stroke-miterlimit:5;" d="M196.6,201.8c0.1-0.4,0-0.7-0.2-0.8
		c-0.3-0.2-0.9,0.1-1.2,0.7c-0.3,0.6-0.4,1.2,0,1.4c0,0,0,0,0,0"/>
	<path style="fill:none;stroke:#000000;stroke-width:0.52;stroke-miterlimit:5;" d="M195.5,202.7l0.3,0.1c1.4,0.7,1.1,2.5,1.1,3.8
		v0.1"/>
	<path style="fill:none;stroke:#000000;stroke-width:0.52;stroke-miterlimit:5;" d="M196,201.5l0.5,0.2c2,1.1,1.7,2.9,1.8,4.9v0.1"
		/>
	<polyline style="fill:none;stroke:#000000;stroke-width:0.52;stroke-miterlimit:5;" points="198.3,206.9 197.9,207.1 197.6,207.2 
		197.3,207.1 197,206.9 	"/>
	<path style="fill:none;stroke:#000000;stroke-width:0.52;stroke-miterlimit:5;" d="M198.1,207.1L198.1,207.1l-0.6,0.2l-0.3-0.2
		l-0.2-0.4v-2l-0.1-0.8l-0.3-0.6l-0.4-0.3l-0.2-0.1l-0.3,0.2l-0.6,0.1l-0.3-0.3l0-0.6l0.3-0.7l0.4-0.5l0.4-0.2l0.4,0l0.2,0.3l0,0.5
		l0.6,0.4c1.1,1.6,1.3,2,1.1,4l0.1,0.8L198.1,207.1"/>
	<polyline style="fill:none;stroke:#000000;stroke-width:0.52;stroke-miterlimit:5;" points="176.5,213.8 176.7,213.8 176.8,213.8 
		177,213.8 177.2,213.7 177.4,213.5 	"/>
	<path style="fill:none;stroke:#000000;stroke-width:0.52;stroke-miterlimit:5;" d="M178,212.4c0.1-0.4,0-0.7-0.2-0.8
		c-0.3-0.2-0.9,0.1-1.2,0.7c-0.3,0.6-0.3,1.2,0,1.4"/>
	<path style="fill:none;stroke:#000000;stroke-width:0.52;stroke-miterlimit:5;" d="M177,213.3l0.3,0.1c1.4,0.7,1.1,2.5,1.1,3.8v0.1
		"/>
	<path style="fill:none;stroke:#000000;stroke-width:0.52;stroke-miterlimit:5;" d="M177.4,212.1l0.5,0.2c2,1,1.8,3,1.8,4.9l0,0.1"
		/>
	<polyline style="fill:none;stroke:#000000;stroke-width:0.52;stroke-miterlimit:5;" points="179.7,217.6 179.4,217.8 179.1,217.9 
		178.7,217.8 178.4,217.6 	"/>
	<path style="fill:none;stroke:#000000;stroke-width:0.52;stroke-miterlimit:5;" d="M179.5,217.8L179.5,217.8l-0.6,0.2l-0.3-0.2
		l-0.2-0.4v-2l-0.1-0.8L178,214l-0.3-0.4l-0.2-0.1l-0.3,0.2l-0.6,0.1l-0.3-0.3l0-0.6l0.3-0.7l0.4-0.5l0.4-0.2l0.4,0.1l0.2,0.3l0,0.5
		l0.6,0.3c1.7,2.3,1,2.3,1.1,4.8L179.5,217.8"/>
	<polyline style="fill:none;stroke:#000000;stroke-width:0.52;stroke-miterlimit:5;" points="179.2,213.8 179.2,213.8 180.5,212.4 
		183.3,208 184.2,205.3 184.4,204.7 	"/>
	<polyline style="fill:none;stroke:#000000;stroke-width:0.52;stroke-miterlimit:5;" points="29.7,201.2 26.7,203.3 24.2,206.2 
		22.3,209.8 20.9,214 20.2,218.7 20.1,224 20.7,229.5 21.8,235.3 	"/>
	<polyline style="fill:none;stroke:#000000;stroke-width:0.52;stroke-miterlimit:5;" points="53.4,187.3 50.4,189.4 47.9,192.3 
		45.9,195.8 44.6,200.1 43.8,204.8 43.8,210.1 44.3,215.6 45.5,221.3 	"/>
	<polyline style="fill:none;stroke:#000000;stroke-width:0.52;stroke-miterlimit:5;" points="64.1,181.1 61.1,183.2 58.5,186.1 
		56.6,189.7 55.2,193.9 54.5,198.7 54.4,203.9 55,209.4 56.1,215.2 	"/>
	<polyline style="fill:none;stroke:#000000;stroke-width:0.52;stroke-miterlimit:5;" points="95.8,162.6 92.8,164.7 90.3,167.5 
		88.3,171.1 87,175.4 86.2,180.1 86.2,185.4 86.7,190.9 87.9,196.7 	"/>
	<polyline style="fill:none;stroke:#000000;stroke-width:0.52;stroke-miterlimit:5;" points="117.7,150.3 114.7,152.4 112.2,155.3 
		110.2,158.9 108.9,163.1 108.1,167.9 108,173.1 108.6,178.7 109.7,184.4 	"/>
	<polyline style="fill:none;stroke:#000000;stroke-width:0.52;stroke-miterlimit:5;" points="139,137.7 136,139.8 133.5,142.7 
		131.5,146.3 130.2,150.5 129.5,155.3 129.4,160.5 129.9,166 131.1,171.8 	"/>
	<polyline style="fill:none;stroke:#000000;stroke-width:0.52;stroke-miterlimit:5;" points="164.6,123 161.6,125.1 159.1,127.9 
		157.1,131.5 155.8,135.7 155.1,140.5 155,145.7 155.5,151.3 156.7,157 	"/>
	<path style="fill:none;stroke:#000000;stroke-width:0.52;stroke-miterlimit:5;" d="M368.7,98.5l0.6-2.5c1.6-9.4-0.7-20-4.5-28.7
		l-0.4-0.7"/>
	<polyline style="fill-rule:evenodd;clip-rule:evenodd;fill:#FFFFFF;" points="374.5,113.7 365,108.2 364.2,109.6 373.7,115.1 	"/>
	<line style="fill:none;stroke:#000000;stroke-width:0.23;stroke-miterlimit:5;" x1="364.6" y1="108.9" x2="374.1" y2="114.4"/>
	<path style="fill:none;stroke:#000000;stroke-width:0.52;stroke-miterlimit:5;" d="M399.9,83.1v0.2l0,0.2l0,0.2l0,0.1l0.1,0.1
		l0.1,0.1l0.2,0.1l0.2,0h0.3l0.4-0.1l1.1-0.5l2-1.1l2.3-1.3l2-1.2l1.1-0.7L410,79c1-1.3,1.8-2.5,2.1-4.2l0.2-1l0.2-1.1l0.2-1.2
		c1.2-7.9-0.3-17.3-3.5-24.6l-0.2-0.2l-0.2-0.2l-0.2-0.1l-0.2-0.1l-0.2-0.1l-0.2-0.1l-0.2-0.1l-0.2-0.1h-0.3l-0.4,0.1l-1,0.5
		l-1.9,1.1l-2.2,1.4l-1.9,1.2l-1,0.7l-0.3,0.3l-0.2,0.3c-1,1.5,0,2.8,0.5,4.3l0.4,1.1l0.4,1.1l0.3,1.1c1.9,8.1,2.6,15.1,0.2,23.2
		l-0.1,0.3L399.9,83.1L399.9,83.1"/>
	<path style="fill:none;stroke:#000000;stroke-width:0.52;stroke-miterlimit:5;" d="M403.9,58l0.1-0.3l0.1-0.3l0.1-0.3l0.1-0.3
		l0.2-0.3l0.3-0.3l0.4-0.3l0.4-0.3l0.4-0.2l0.4-0.1l0.3,0l0.2,0l0.2,0l0.2,0.1l0.2,0.1l0.2,0.2L408,56c1.2,1.3,1.5,5.5,1.1,7.2
		l-0.1,0.4l-0.1,0.3l-0.2,0.3l-0.2,0.2c-0.6,0.7-2,1.6-3,1.2l-0.1-0.1l-0.1-0.1c-1-1.4-1.6-3.9-1.5-5.7v-0.8l0-0.6V58"/>
	<g>
		<path style="fill:#448ECC;" d="M343.2,143.6l-3.9-1.9v10.1l-22.9,13v21.4l3.9,1.6l19-10.6v6.1l3.9,1.9l14.7-29L343.2,143.6
			 M349.2,158l0.2,0.3v0.4l0.1,0.5v1.2l-0.1,1.1v1.1l-0.2,0.5l-0.1,0.6l-0.2,0.4l-0.4,1l-0.6,0.9l-0.2,0.4l-0.4,0.1l-0.1,0.4
			l-0.5,0.4l-0.7,0.3l-0.7,0.6l-2.8,1.5v-10.9l3.2-1.9l1-0.4l0.3-0.2l0.4-0.1h0.2l0.3,0.1h0.4l0.5,0.6L349.2,158 M330.4,165.7v1.9
			l-4.1,2.2v2.6l3.6-2.1v1.9l-3.6,2.1v4.7l-1.6,0.9v-11.1L330.4,165.7 M335.1,162.9l1.8-0.9l1.4,7.1l1.4-8.6l1.9-1l-2.4,12.2l-1.8,1
			l-1.3-7.8l-1.4,9.2l-1.5,1l-2.4-9.6l1.7-1.1l1.5,7L335.1,162.9 M346.9,158.7L346.9,158.7l-0.3-0.1l-0.2,0.1l-0.7,0.2l-1.5,1v7.1
			l2.1-1.3l0.6-0.5l0.5-0.8V164l0.2-0.3l0.1-0.8V160l-0.4-1L346.9,158.7z"/>
		
			<path id="Layer7_6_MEMBER_1_1_STROKES" style="fill:none;stroke:#1E1E1E;stroke-width:0.35;stroke-linejoin:bevel;stroke-miterlimit:3.9999;" d="
			M343.1,153.6l-22.9,13v21.2"/>
		
			<path id="Layer7_6_MEMBER_2_1_STROKES" style="fill:none;stroke:#1E1E1E;stroke-width:0.6;stroke-linejoin:bevel;stroke-miterlimit:3.9999;" d="
			M343.1,185.2l14.7-29.1l-14.7-12.6 M316.3,186.2l3.9,1.6l22.9-12.7"/>
		
			<path id="Layer7_6_MEMBER_3_1_STROKES" style="fill:none;stroke:#1E1E1E;stroke-width:0.35;stroke-linejoin:bevel;stroke-miterlimit:3.9999;" d="
			M343.1,143.5v10.1 M343.1,175.1v10.2"/>
		
			<path id="Layer7_6_MEMBER_4_1_STROKES" style="fill:none;stroke:#1E1E1E;stroke-width:0.6;stroke-linejoin:bevel;stroke-miterlimit:3.9999;" d="
			M316.3,164.7v21.4"/>
		
			<path id="Layer7_6_MEMBER_5_1_STROKES" style="fill:none;stroke:#1E1E1E;stroke-width:0.35;stroke-linejoin:bevel;stroke-miterlimit:3.9999;" d="
			M316.3,164.7l3.9,1.9"/>
		
			<path id="Layer7_6_MEMBER_6_1_STROKES" style="fill:none;stroke:#1E1E1E;stroke-width:0.6;stroke-linejoin:bevel;stroke-miterlimit:3.9999;" d="
			M316.3,164.7l22.9-13"/>
		
			<path id="Layer7_6_MEMBER_7_1_STROKES" style="fill:none;stroke:#1E1E1E;stroke-width:0.35;stroke-linejoin:bevel;stroke-miterlimit:3.9999;" d="
			M339.2,151.8l3.9,1.9"/>
		
			<path id="Layer7_6_MEMBER_8_1_STROKES" style="fill:none;stroke:#1E1E1E;stroke-width:0.6;stroke-linejoin:bevel;stroke-miterlimit:3.9999;" d="
			M339.2,151.8v-10.1l3.9,1.9 M339.2,177.3v6l3.9,1.9"/>
	</g>
	<text transform="matrix(1 0 0 1 143.4325 56.7399)"><tspan x="0" y="0" style="font-family:'Tahoma'; font-size:14px;">Dado Panel</tspan><tspan x="0" y="16.8" style="font-family:'Tahoma'; font-size:14px;">231LZ</tspan></text>
	<text transform="matrix(1 0 0 1 35.7081 109.8783)"><tspan x="0" y="0" style="font-family:'Tahoma'; font-size:14px;">Passenger Comp.</tspan><tspan x="0" y="16.8" style="font-family:'Tahoma'; font-size:14px;">Window #15</tspan></text>
</g>
</svg>
