<?xml version="1.0" encoding="utf-8"?>
<!-- Generator: Adobe Illustrator 24.2.3, SVG Export Plug-In . SVG Version: 6.00 Build 0)  -->
<svg version="1.1" id="Ebene_1" xmlns="http://www.w3.org/2000/svg" xmlns:xlink="http://www.w3.org/1999/xlink" x="0px" y="0px"
	 viewBox="0 0 349.1 166" style="enable-background:new 0 0 349.1 166;" xml:space="preserve">
<style type="text/css">
	.st0{font-family:'ArialMT';}
	.st1{font-size:12px;}
	.st2{fill:#0099FF;}
	.st3{fill:#FFFF00;fill-opacity:0.8;}
	.st4{fill:#CCCCCC;}
	.st5{fill:#666666;}
	.st6{fill:#0099FF;fill-opacity:0.498;}
	.st7{fill:none;stroke:#2D2C2E;stroke-width:0.5;stroke-miterlimit:5;}
	.st8{fill:none;stroke:#2D2C2E;stroke-width:0.25;stroke-miterlimit:5;}
	.st9{fill:#FF0000;}
	.st10{fill:none;stroke:#FF0000;stroke-width:0.2;stroke-linecap:round;stroke-linejoin:round;}
	.st11{fill:none;stroke:#FF0000;stroke-width:1.5;stroke-linecap:round;stroke-linejoin:round;}
	.st12{font-size:14px;}
	.st13{fill:none;stroke:#FF9900;stroke-linecap:round;stroke-linejoin:round;}
	.st14{fill:#FFFFFF;}
</style>
<g>
	<text transform="matrix(1 0 0 1 169.9618 130.0354)" class="st0 st1">LAMP ASSY, STROBE</text>
</g>
<path class="st2" d="M98.9,125v-0.6c-0.2-0.1-0.3-0.1-0.4-0.2c-1.2-0.5-2.1-1.2-2.7-2l0-0.1L83,132l-0.8,0.8l-0.5,0.9l-0.2,0.9
	l0.1,1.6l0.4,0.9l0.6,0.9l0.9,0.8h0l6.1,3.5l1.4,0.5c2.6,0.8,5.2,0.9,7.9,0.2l1.3-0.5l17-7.4l15.2-11.2l0.5-0.5l6.1-8.2l0.3-0.8
	l0.1-1.4c0-0.7-0.4-1.3-1.1-1.9c-0.7-0.6-1.7-1.1-2.9-1.4l-0.6-0.1c-1.3-0.2-2.7-0.2-4.1,0l-15.3,3.8l-7.3,3.2l1.1,0.5
	c0.9,0.5,1.5,1.1,1.9,1.7c0.5,0.8,0.6,1.7,0.3,2.5l-0.4,0.9c-0.6,0.8-1.4,1.4-2.5,1.9l1.4,0.6v0.8l-0.4,0.2c0.2,0.1,0.3,0.2,0.5,0.3
	c0.4,0,0.7,0,0.9-0.2l0.5-0.3l1,0.8l0.1,0.2c0.4,0.1,0.6,0.3,0.8,0.7v0.3l0.5,0.8v0.7l-4.1,3.9l-1.1,0.6l-6.7,2.4l-1.8-0.3
	c-3-0.7-5.1-1.9-6.4-3.7l-0.6-1v-0.8l2.3-2.2c0.1-0.3,0.2-0.5,0.3-0.8c0.4-0.7,1.1-1.3,1.9-1.7L98.9,125 M115.7,133.7
	c0,0,0.1,0,0.1,0c-0.2,0-0.3,0-0.5,0C115.5,133.7,115.6,133.7,115.7,133.7 M93.3,139.4c-0.4,0.1-0.7,0.1-0.8,0
	C92.7,139.3,93,139.3,93.3,139.4L93.3,139.4 M126.6,120c-0.2,0-0.3,0-0.5,0c0.1,0,0.2,0,0.3,0C126.5,120,126.5,120,126.6,120z"/>
<path class="st3" d="M99.6,109.5l-1.1,0.5c-1,0.6-1.6,1.2-1.9,2.1c-0.3,0.9-0.1,1.8,0.7,2.6l0.4,0.3l0.8,0.6l0.5,0.2l0,0.8l-1.3,0.6
	c-0.9,0.5-1.5,1-1.9,1.7c-0.5,0.8-0.6,1.6-0.3,2.5l0.2,0.5l0.3,0.4c0.6,0.8,1.5,1.5,2.7,2c0.1,0.1,0.3,0.1,0.4,0.2v0.6l-1.3,0.6
	c-0.9,0.5-1.5,1.1-1.9,1.8c-0.2,0.3-0.3,0.5-0.3,0.8l-2.3,2.2v0.7l0.6,1.1c1.2,1.7,3.3,2.9,6.4,3.7l1.7,0.3l6.1-2.1l1.7-0.9l4.1-3.9
	v-0.7l-0.5-0.9v-0.2c-0.2-0.4-0.4-0.6-0.8-0.7l-0.2-0.2l-1-0.8l-0.5,0.3c-0.2,0.1-0.5,0.2-0.9,0.2c-0.2-0.1-0.3-0.2-0.5-0.3l0.4-0.2
	v-0.8l-1.4-0.6c1.1-0.5,2-1.1,2.5-1.9l0.3-0.4l0.2-0.5c0.3-0.9,0.2-1.7-0.3-2.5c-0.4-0.7-1-1.3-1.9-1.7l-1.1-0.5l-0.2-0.1v-0.8
	l0.9-0.5c0.9-0.6,1.4-1.4,1.5-2.3c0.1-0.9-0.3-1.7-1.2-2.4l-0.8-0.6l-1.1-0.5c-1.2-0.5-2.4-0.7-3.8-0.7
	C102,108.9,100.7,109.1,99.6,109.5 M104.8,125.2c-0.9,0.4-1.9,0.4-2.8,0L104.8,125.2 M95.7,130.6c-0.1-0.2-0.2-0.4-0.4-0.5l0-0.8
	c0,0.2,0.1,0.3,0.1,0.5L95.7,130.6 M106.1,133.9l2.9-1.2l1-0.7l1-0.9c-0.6,1-1.8,1.8-3.5,2.4C107,133.6,106.6,133.8,106.1,133.9z"/>
<path class="st4" d="M89,114.5l0.1,0.1c0,0.1,0,0.1,0.1,0.1l0.4,0.6l0,5.6c0.1,0.4,0.3,0.5,0.8,0.6h0c0.5,0,0.8-0.2,0.8-0.6l0-5.6
	l0.3-0.4c0.1,0,0.1-0.1,0.1-0.2c0.1-0.1,0.1-0.1,0.1-0.2v-0.2l0-0.1c-0.2-0.4-0.6-0.7-1.3-0.7c-0.7,0-1.2,0.2-1.4,0.6l-0.1,0.3
	L89,114.5z"/>
<path class="st2" d="M115.1,141.8l0.1,0c0.3,0.2,0.6,0.1,1,0c0.4-0.2,0.4-0.4,0.1-0.7l-0.2-0.1h-0.1c-0.4-0.2-0.7-0.1-1,0.1
	C114.7,141.3,114.7,141.5,115.1,141.8L115.1,141.8 M89.4,153.3c0.1-0.1,0.2-0.1,0.2-0.1l2.7-1.5c1-0.3,2,0.3,2.9,1.8
	c0.9,1.5,1,2.6,0.3,3.4l-0.2,0.2l-2.6,1.5c-0.1,0.1-0.1,0.1-0.1,0.1c-0.1,0-0.1,0.1-0.2,0.1c-0.2,0.1-0.5,0.1-0.8,0l-0.2,0l-0.2-0.1
	l-0.1,0c0,0.1-0.1,0.1-0.1,0.1l7.5,4.4l0.7,0.2l0.8,0.1l0.8-0.1l0.7-0.2l20.2-11.6l4.4-3.4l0.4-1.7V139l-1,0.2l-1,0.4l-4.1,3l-1,0.5
	c-1.6,0.6-2.7,1.1-3.5,1.4c-1.4,0.6-2.4,1.2-3.2,2l-1.2,1.1c-0.7,0.6-1.8,1.1-3.3,1.8c-1.6,0.7-2.7,1.3-3.4,1.8l-1.9,1.5l-1,0.6
	l-1.1,0.3l-1.1,0l-1-0.2l-4.9-1.9l-2.6-1.3l-1.7-1.4l0,4.7C89.3,153.4,89.4,153.4,89.4,153.3 M91.3,145.8L91.3,145.8l-0.2-0.1
	l-0.1,0c-0.2-0.1-0.3-0.1-0.5-0.1c-0.2,0-0.4,0-0.5,0.1l-0.1,0l0,0c-0.2,0.2-0.3,0.4-0.1,0.5l0,0.1l0.1,0c0.1,0.1,0.3,0.2,0.6,0.2
	c0.1,0,0.2-0.1,0.4-0.1C91.4,146.3,91.5,146.1,91.3,145.8 M89.2,142.1v1.7l8,4.6l0.5,0.2l0.6,0.1l0.6-0.1l0.5-0.2l22-12.7l5.2-3.7
	v-3.8l-9.4,6.8l-17,7.4l-1.4,0.4c-2.6,0.7-5.3,0.6-7.9-0.2l-1.4-0.5L89.2,142.1z"/>
<path class="st4" d="M83.4,138.8L83.4,138.8l-0.4,0.7l-0.5,0.6l-0.6,0.5l-1.1,0.7l-0.4,0.4l-0.1,0.2v1.7l0.2,0.5l0.5,0.4
	c0.8,0.7,1.8,1.2,3.1,1.4c1.3,0.3,2.4,0.8,3.4,1.7l3.3,2.7l7.6,3.2l1,0.2l1.1,0l1.1-0.3l1-0.6l2-1.5c0.7-0.5,1.8-1.1,3.4-1.8
	c1.5-0.6,2.6-1.2,3.3-1.8l1.2-1.1c0.8-0.8,1.9-1.4,3.2-2c0.7-0.3,1.9-0.8,3.5-1.4l1-0.5l4.1-3l1-0.4l2.7-0.6l0.8-0.4l0.6-0.5
	l1.1-1.5l0.5-0.5l0.8-0.4l2.7-0.9l0.5-0.4l0.3-0.4l0.2-0.4l0.1-0.4v-1.5l-0.2-0.4l-0.3-0.4l-1.8-0.8l-0.6-0.3l-2-1.6l-2.4-1.1
	l-2.3,1.7v2.6l0.9,0.5l-6.1,4.4l-22,12.7l-0.5,0.2l-0.6,0.1l-0.6-0.1l-11.2-6.4l-0.3-0.3l-0.1-0.3l0.1-0.3l0.6-0.6L83.4,138.8
	 M91.1,145.7L91.1,145.7c0.3,0.4,0.2,0.6-0.3,0.8c-0.2,0.1-0.3,0.1-0.4,0.1c-0.3,0-0.4-0.1-0.6-0.2l-0.1,0l0-0.1
	c-0.2-0.2-0.2-0.4,0-0.5l0.2-0.1c0.2-0.1,0.4-0.1,0.5-0.1c0.2,0,0.3,0,0.5,0.1L91.1,145.7 M115,141.8c-0.4-0.3-0.4-0.5,0-0.7
	c0.4-0.2,0.7-0.2,1-0.1h0.1l0.2,0.1c0.3,0.3,0.3,0.5-0.1,0.7c-0.4,0.2-0.7,0.2-1,0L115,141.8L115,141.8z"/>
<path class="st5" d="M134.3,86l0-0.7l-0.5-0.7l-1.2-0.9l-0.7-0.4c-0.9-0.5-1.9-0.8-3.1-0.7l-0.5,0.1c-0.5,0.1-1,0.3-1.7,0.6L95,97.7
	l-1,0.6l-0.4,0.2l-1,0.6l-0.8,0.7l-0.8,1.1l-0.5,1l0,0.4l0.1,3.2l0.4,0.7l0.7,0.7l0.9,0.6l1.2,0.4l1.3,0.2l3.8,0.1
	c3.9-0.2,7.3-1,10.1-2.6l24.3-17.3l0.6-0.6l0.3-0.6l0-0.2L134.3,86L134.3,86 M133.1,86.5l-0.5,0.5l-24.6,17.2
	c-2.5,1.4-5.5,2.1-8.9,2.3l-3.3,0l-1.2-0.2l-1-0.4l-0.9-0.5l-0.6-0.6l-0.3-0.7l0-1l0.4-0.9l0.7-1l0.8-0.6l0.9-0.6l0.3-0.2l0.9-0.5
	L127.2,85c0-0.1,0.1-0.1,0.2-0.1c0.4-0.2,0.7-0.3,1.1-0.3l0.5-0.1c1-0.1,1.8,0.1,2.5,0.5l0.6,0.3l1,0.8l0.3,0.2L133.1,86.5z"/>
<path class="st4" d="M133.7,13.3v0.2l0,0.1l0,0c-0.1,0.7,0.4,1,1.5,1h0c1,0,1.5-0.3,1.5-1c0-0.1,0.1-0.2,0.1-0.2v-0.2
	c-0.1-0.5-0.6-0.8-1.5-0.8h0C134.4,12.4,133.9,12.7,133.7,13.3L133.7,13.3 M136.5,3.8c-0.1-0.4-0.5-0.6-1.2-0.6
	c-0.7,0-1.1,0.2-1.3,0.5V4l0,0.1c0,0.1,0.1,0.1,0.1,0.1l0.4,0.6v5.1c0.1,0.3,0.3,0.5,0.8,0.5h0c0.5,0,0.7-0.2,0.8-0.5l0-5.1l0.4-0.6
	c0.1-0.1,0.1-0.2,0.1-0.2V3.9L136.5,3.8z"/>
<path class="st2" d="M137.2,17.4l-1-0.5l-1.1-0.3l-2.4-0.2l-2.4,0.3L96.5,32.1l-4.4,2.4l-2.4,1.8L87,39.2l-1,1.6l-0.7,1.6L85,44.1
	v2.3l0.2,0.7l0.5,0.7l0.6,0.6l0.9,0.5l1.1,0.4l2.6,0.3l2.9-0.2c7-0.8,12.9-2.8,17.6-6.2l0.2-0.2l26.8-19.6l0.5-0.7l0.2-0.6l0-3
	l-0.3-0.7l-0.6-0.6L137.2,17.4 M129.4,20.7c0.4,0.1,0.7,0.3,1.1,0.5l1.9,1.4l0.5,0.6v0.1l-0.3,0.6l-0.6,0.6l-22.1,15.9l-1.4,0.8
	c-2.7,1.5-6,2.3-9.7,2.4l-3.7-0.1l-1.2-0.2l-1.1-0.4l-0.9-0.6l-0.7-0.6L90.8,41l-0.1-1.6l0.1-0.4l0,0l0.9-0.6l4.4-2.4L129.4,20.7
	 M135.9,18.5L135.9,18.5c0.4,0.3,0.3,0.5-0.1,0.7c-0.1,0.1-0.2,0.1-0.3,0.1c-0.1,0-0.1,0-0.2,0c-0.1,0-0.1,0-0.2,0
	c-0.1,0-0.1,0-0.2,0c-0.1,0-0.2,0-0.3-0.1l-0.1,0c-0.4-0.3-0.4-0.5,0-0.7c0.2-0.1,0.4-0.2,0.6-0.2c0.2,0,0.3,0,0.5,0.1h0.1
	L135.9,18.5 M93.1,45.8L93.1,45.8c0.4,0.3,0.3,0.6-0.1,0.8c-0.1,0-0.2,0.1-0.3,0.1c-0.1,0-0.1,0-0.2,0c-0.1,0-0.2,0-0.3,0
	c-0.1,0-0.2-0.1-0.3-0.1l-0.1,0c-0.4-0.3-0.4-0.5,0-0.7c0.4-0.2,0.7-0.2,1-0.1L93.1,45.8 M88.4,43.1c0.3,0.3,0.3,0.5-0.1,0.7
	c-0.1,0.1-0.2,0.1-0.3,0.1c-0.2,0.1-0.3,0.1-0.5,0c-0.1,0-0.2,0-0.3-0.1l-0.1,0l-0.1,0c-0.3-0.2-0.3-0.4,0-0.6l0,0l0.1,0
	c0.3-0.2,0.6-0.2,0.9-0.1h0L88.4,43.1z"/>
<path class="st4" d="M100.4,56.7l-0.2,0.1c-0.3,0.2-0.4,0.4-0.4,0.6c0,0.1,0,0.1,0,0.2v0.7c0.1,0.3,0.3,0.5,0.6,0.7v0.9
	c0.1,0.4,0.5,0.5,1.1,0.6c0,0,0.1,0,0.1,0c0.7,0,1-0.2,1.1-0.6l0-0.9c0.3-0.2,0.5-0.4,0.6-0.7v-0.7c0,0,0.1-0.1,0.1-0.1
	c0.1-0.3-0.2-0.6-0.8-0.8c-0.4-0.1-0.7-0.2-1-0.2C101,56.4,100.7,56.5,100.4,56.7 M100.2,50.7l-0.2,0.2c-0.3,0.2-0.4,0.4-0.4,0.6
	c0,0.1,0,0.2,0,0.3V52c0.1,0.4,0.3,0.6,0.7,0.7v1.2c0.1,0.4,0.4,0.6,1,0.6c0.6,0,0.9-0.2,1-0.6l0-1.2c0.3-0.2,0.5-0.4,0.6-0.7v-0.4
	c0.1-0.4-0.1-0.7-0.7-0.9C101.5,50.4,100.8,50.4,100.2,50.7z"/>
<path class="st6" d="M127,63.9l-0.4-0.1c-2.4-1-4.8-1.6-7.2-1.9l-0.5-0.1c-1.7-0.4-3.8-0.6-6.4-0.8c-3-0.1-5.1-0.2-6.5-0.3l-1.1,0.1
	c-0.7,0.1-1.4,0.2-2,0.5c-0.4,0.1-0.7,0.3-1.1,0.5l-1.2,0.6c-0.2,0.2-0.4,0.3-0.6,0.4c-1,0.6-1.6,1-2,1.2c-0.9,0.6-1.7,1.3-2.3,2
	L95.6,66l-3.5,14.9l-0.3,1.1l0.1,2l0.3,0.7l0.6,0.6l0.9,0.5l1,0.4l1.2,0.2l3.4,0c3.5-0.1,6.5-0.9,9.1-2.3l2.7-1.6L130,69.2l1.2-1.2
	l0.3-0.6l0-0.6l-0.4-0.6l-1.1-0.9l-1.4-0.8l-0.9-0.4L127,63.9z"/>
<path class="st2" d="M133.6,65.8l-1.2-1l-0.7-0.4c-0.8-0.5-1.9-0.7-3.1-0.6l-0.5,0.1l-0.4,0.2l0.9,0.4l1.4,0.8l1.1,0.9l0.4,0.6
	l0,0.6l-0.3,0.6l-1.2,1.2l-18.6,13.4l-2.7,1.6c-2.6,1.5-5.7,2.2-9.1,2.3l-3.4,0l-1.2-0.2l-1-0.4L93,85.3l-0.6-0.6L92,84.1l-0.1-2
	l0.3-1.1l-1.1,1l-0.4,1l0,0.3l0.1,3.2l0.4,0.8l0.7,0.6l1,0.6l1.1,0.5l1.3,0.2l3.7,0c3.9-0.2,7.2-1,10-2.6l1.4-0.8l22.8-16.4l0.6-0.6
	l0.3-0.7v-1.1l-0.1-0.6L133.6,65.8z"/>
<path id="Layer2_5_MEMBER_9_1_STROKES" class="st7" d="M99.9,142l17-7.4"/>
<path id="Layer2_5_MEMBER_10_1_STROKES" class="st7" d="M118.4,133.6l13.6-10.2"/>
<path id="Layer2_5_MEMBER_11_1_STROKES" class="st7" d="M132.5,122.8l6-8.2"/>
<path id="Layer2_5_MEMBER_12_1_STROKES" class="st7" d="M89.2,141.7l1.4,0.5c1.2,0.4,2.6,0.6,3.9,0.6c1.4,0,2.7-0.1,3.9-0.5l1.4-0.5
	"/>
<path id="Layer2_5_MEMBER_13_1_STROKES" class="st7" d="M116.8,134.6l0.6-0.3l1-0.7"/>
<path id="Layer2_5_MEMBER_14_1_STROKES" class="st7" d="M132.5,122.8l-0.1,0.2l-0.3,0.3"/>
<path id="Layer2_5_MEMBER_15_1_STROKES" class="st7" d="M82.7,132.1l12.8-9.8"/>
<path id="Layer2_5_MEMBER_16_1_STROKES" class="st7" d="M107.7,116.7l7.3-3.2"/>
<path id="Layer2_5_MEMBER_17_1_STROKES" class="st7" d="M115.9,113.2l14.2-3.5"/>
<path id="Layer2_5_MEMBER_18_1_STROKES" class="st7" d="M83.1,138.2l-0.9-0.8l-0.6-0.9l-0.4-0.9l-0.1-1l0.3-0.9l0.5-0.9l0.8-0.8"/>
<path id="Layer2_5_MEMBER_19_1_STROKES" class="st7" d="M115.9,113.2l-0.9,0.3"/>
<path id="Layer2_5_MEMBER_20_1_STROKES" class="st7" d="M89.2,141.7l-6.1-3.5"/>
<path id="Layer2_5_MEMBER_21_1_STROKES" class="st7" d="M135,109.8l-0.6-0.1c-1.3-0.2-2.7-0.2-4.2,0l-0.2,0.1"/>
<path id="Layer2_5_MEMBER_22_1_STROKES" class="st7" d="M138.6,114.6c0.3-0.5,0.4-0.9,0.4-1.4c0-0.8-0.4-1.4-1.1-2.1
	c-0.7-0.6-1.7-1.1-2.9-1.4"/>
<path id="Layer2_5_MEMBER_23_1_STROKES" class="st7" d="M115.8,141L115.8,141c-0.4-0.2-0.8-0.1-1.1,0.1c-0.4,0.2-0.4,0.4,0,0.7
	l0.1,0l0.1,0c0.3,0.2,0.6,0.1,1,0c0.4-0.2,0.4-0.4,0.1-0.7L115.8,141z"/>
<path id="Layer2_5_MEMBER_24_1_STROKES" class="st7" d="M97.7,132c-0.3-0.3-0.2-0.5,0.2-0.7c0.4-0.2,0.7-0.2,1,0l0.1,0l0.1,0.1
	l0.1,0l0,0c0.2,0.3,0.1,0.5-0.3,0.7c-0.4,0.1-0.8,0.1-1-0.1L97.7,132z"/>
<path id="Layer2_5_MEMBER_25_1_STROKES" class="st7" d="M88.4,135.9L88.4,135.9l-0.1-0.1c-0.3-0.1-0.7-0.1-1,0.1
	c-0.4,0.2-0.4,0.4,0,0.7l0.1,0l0.1,0c0.3,0.2,0.6,0.1,1,0c0.4-0.2,0.4-0.4,0.1-0.7L88.4,135.9z"/>
<path id="Layer2_5_MEMBER_26_1_STROKES" class="st7" d="M93.2,138.7L93.2,138.7L93.2,138.7c0.3,0.4,0.2,0.6-0.3,0.7
	c-0.5,0.1-0.8,0.1-1-0.1l-0.1-0.1c-0.3-0.3-0.2-0.5,0.2-0.7c0.4-0.2,0.8-0.2,1,0L93.2,138.7L93.2,138.7z"/>
<path id="Layer2_5_MEMBER_27_1_STROKES" class="st7" d="M101.5,136.2l6-2.1"/>
<path id="Layer2_5_MEMBER_28_1_STROKES" class="st7" d="M92.8,131.1l0.6,1c1.2,1.7,3.4,2.9,6.4,3.7l1.7,0.3"/>
<path id="Layer2_5_MEMBER_29_1_STROKES" class="st7" d="M113.4,129.3l-3.6,3.5"/>
<path id="Layer2_5_MEMBER_30_1_STROKES" class="st7" d="M109.1,125.9l0.4-0.2"/>
<path id="Layer2_5_MEMBER_31_1_STROKES" class="st7" d="M107.5,134.1l0.6-0.3l1.1-0.6l0.9-0.7"/>
<path id="Layer2_5_MEMBER_32_1_STROKES" class="st7" d="M99,148.6l22-12.7l5.8-4.2l0.4-0.3l0.2-0.4l-0.1-0.4l-0.3-0.3"/>
<path id="Layer2_5_MEMBER_33_1_STROKES" class="st7" d="M99,148.6l-0.5,0.2l-0.6,0.1l-0.6-0.1l-0.5-0.2"/>
<path id="Layer2_5_MEMBER_34_1_STROKES" class="st7" d="M86.5,140.7l-0.6,0.7l-0.1,0.3l0.1,0.3l0.3,0.3"/>
<path id="Layer2_5_MEMBER_35_1_STROKES" class="st7" d="M96.9,148.5l-10.7-6.2"/>
<path id="Layer2_5_MEMBER_36_1_STROKES" class="st7" d="M126.9,130.2l-0.7-0.4"/>
<path id="Layer2_5_MEMBER_37_1_STROKES" class="st7" d="M101.5,135.4l6-2.1"/>
<path id="Layer2_5_MEMBER_38_1_STROKES" class="st7" d="M92.8,130.4l2.3-2.2"/>
<path id="Layer2_5_MEMBER_39_1_STROKES" class="st7" d="M92.8,130.4l0.6,1c1.2,1.7,3.3,3,6.4,3.7l1.7,0.3"/>
<path id="Layer2_5_MEMBER_40_1_STROKES" class="st7" d="M113.4,128.5l-3.6,3.5"/>
<path id="Layer2_5_MEMBER_41_1_STROKES" class="st7" d="M112.9,127.7l0.5,0.8"/>
<path id="Layer2_5_MEMBER_42_1_STROKES" class="st7" d="M111,125.7l1,0.8l0.1,0.2"/>
<path id="Layer2_5_MEMBER_43_1_STROKES" class="st7" d="M108.2,124.3l1.4,0.6"/>
<path id="Layer2_5_MEMBER_44_1_STROKES" class="st7" d="M109.6,126.2c0.4,0,0.6,0,0.9-0.1"/>
<path id="Layer2_5_MEMBER_45_1_STROKES" class="st7" d="M109.1,125.2c-0.2,0.1-0.3,0.3-0.3,0.5"/>
<path id="Layer2_5_MEMBER_46_1_STROKES" class="st7" d="M109.1,125.2l0.5-0.3"/>
<path id="Layer2_5_MEMBER_47_1_STROKES" class="st7" d="M110.6,126l0.5-0.3"/>
<path id="Layer2_5_MEMBER_48_1_STROKES" class="st7" d="M107.5,133.3l1.2-0.6l1-0.7l0.4-0.4"/>
<path id="Layer2_5_MEMBER_49_1_STROKES" class="st7" d="M98.7,125.4v0.3c0.4,1.5,1.8,2.3,4.4,2.3c2.6,0,4-0.8,4.4-2.3v-0.3"/>
<path id="Layer2_5_MEMBER_50_1_STROKES" class="st7" d="M101.7,125.2c0.9,0.3,1.9,0.3,2.8,0"/>
<path id="Layer2_5_MEMBER_51_1_STROKES" class="st7" d="M98.6,116.7l-1.2,0.6c-0.8,0.5-1.5,1.1-1.9,1.7c-0.5,0.8-0.6,1.6-0.3,2.5
	l0.2,0.5l0.3,0.4c0.6,0.8,1.5,1.5,2.7,2c1,0.4,2.1,0.7,3.2,0.8l0.8,0.1l2.4-0.1c1.2-0.1,2.3-0.4,3.3-0.8c1.2-0.5,2.1-1.2,2.6-2
	l0.3-0.4l0.2-0.5c0.3-0.8,0.2-1.7-0.3-2.5c-0.4-0.7-1.1-1.3-1.9-1.7l-1.2-0.6"/>
<path id="Layer2_5_MEMBER_52_1_STROKES" class="st7" d="M98.7,117.2v0.3c0.4,1.5,1.8,2.3,4.4,2.3c2.6,0,4-0.8,4.4-2.3v-0.3"/>
<path id="Layer2_5_MEMBER_53_1_STROKES" class="st7" d="M101.2,116.7c0.5,0.4,1.2,0.5,1.9,0.5c0.8,0,1.4-0.2,1.9-0.5"/>
<path id="Layer2_5_MEMBER_54_1_STROKES" class="st7" d="M99.3,109.6l-1,0.5c-1,0.6-1.6,1.3-1.9,2.1c-0.3,0.9-0.1,1.8,0.7,2.6
	l0.4,0.3l0.8,0.6l1,0.5l0.6,0.2c1.2,0.4,2.5,0.5,3.9,0.5c1.4-0.1,2.6-0.4,3.7-0.9l1-0.6c0.9-0.6,1.5-1.4,1.5-2.3
	c0.1-0.9-0.3-1.7-1.2-2.4L108,110l-1-0.5c-1.2-0.5-2.4-0.7-3.8-0.7C101.7,108.9,100.5,109.1,99.3,109.6z"/>
<path id="Layer2_5_MEMBER_55_1_STROKES" class="st7" d="M101.3,134l0.2,0.1c1.8,0.3,3.7,0.1,5.7-0.6c2.3-0.8,3.6-2,4-3.6l0.1-0.5"/>
<path id="Layer2_5_MEMBER_56_1_STROKES" class="st7" d="M95.5,131.1l0.1,0.2c0.8,1,2,1.8,3.7,2.3l0.2,0.1"/>
<path id="Layer2_5_MEMBER_57_1_STROKES" class="st7" d="M95,129.5l0.1,0.8"/>
<path id="Layer2_5_MEMBER_58_1_STROKES" class="st7" d="M98.6,125.1l-1.2,0.6c-0.9,0.5-1.5,1.1-1.9,1.7c-0.5,0.8-0.6,1.6-0.3,2.5
	l0.2,0.5l0.3,0.4c0.6,0.8,1.5,1.5,2.7,2c1,0.4,2.1,0.7,3.2,0.8l0.8,0.1l2.4-0.1c1.2-0.1,2.2-0.4,3.2-0.8c1.2-0.5,2.1-1.2,2.7-2
	l0.3-0.4l0.2-0.5c0.3-0.8,0.2-1.7-0.3-2.5c-0.4-0.7-1.1-1.3-1.9-1.7l-1.2-0.6"/>
<path id="Layer2_5_MEMBER_59_1_STROKES" class="st7" d="M101.2,162.3l20.1-11.6l4.5-3.5"/>
<path id="Layer2_5_MEMBER_60_1_STROKES" class="st7" d="M98.3,162.3l0.7,0.2l0.8,0.1l0.8-0.1l0.7-0.3"/>
<path id="Layer2_5_MEMBER_61_1_STROKES" class="st7" d="M98.3,162.3l-6.1-3.5"/>
<path id="Layer2_5_MEMBER_62_1_STROKES" class="st7" d="M101.2,163.2l20.1-11.6l4.4-3.4"/>
<path id="Layer2_5_MEMBER_63_1_STROKES" class="st7" d="M98.3,163.2l0.7,0.2l0.8,0.1l0.8-0.1l0.7-0.2"/>
<path id="Layer2_5_MEMBER_64_1_STROKES" class="st7" d="M98.3,163.2l-7.6-4.4"/>
<path id="Layer2_5_MEMBER_65_1_STROKES" class="st7" d="M99.9,142.6l17-7.4"/>
<path id="Layer2_5_MEMBER_66_1_STROKES" class="st7" d="M118.4,134.2L132,124"/>
<path id="Layer2_5_MEMBER_67_1_STROKES" class="st7" d="M132.5,123.4l6-8.2"/>
<path id="Layer2_5_MEMBER_68_1_STROKES" class="st7" d="M89.2,142.3l1.4,0.5c2.6,0.8,5.2,0.8,7.9,0.2l1.4-0.5"/>
<path id="Layer2_5_MEMBER_69_1_STROKES" class="st7" d="M116.8,135.2l1.6-1"/>
<path id="Layer2_5_MEMBER_70_1_STROKES" class="st7" d="M83.1,138.9l-0.9-0.8l-0.6-0.9l-0.4-0.9"/>
<path id="Layer2_5_MEMBER_71_1_STROKES" class="st7" d="M89.2,142.3l-6.1-3.5"/>
<path id="Layer2_5_MEMBER_72_1_STROKES" class="st7" d="M138.6,115.3l0.4-0.8l0.1-0.8"/>
<path id="Layer2_5_MEMBER_73_1_STROKES" class="st7" d="M97,158.1v-4.8"/>
<path id="Layer2_5_MEMBER_74_1_STROKES" class="st7" d="M96.6,158.3v-4.8"/>
<path id="Layer2_5_MEMBER_75_1_STROKES" class="st7" d="M90.5,152.6v-2.4"/>
<path id="Layer2_5_MEMBER_76_1_STROKES" class="st7" d="M94.1,157.9l1.5,0.9"/>
<path id="Layer2_5_MEMBER_77_1_STROKES" class="st7" d="M95.2,152.7c0,0.3,0.2,0.6,0.4,0.8l0.1,0.1c0.1,0.1,0.2,0.1,0.3,0.1
	c0.1,0,0.2-0.1,0.2-0.3"/>
<path id="Layer2_5_MEMBER_78_1_STROKES" class="st7" d="M95.7,157.2L95.7,157.2c0.3,0.2,0.4,0.4,0.5,0.8c0.1,0.4,0,0.6-0.4,0.5h-0.1
	l-0.1-0.1l-0.1,0c-0.3-0.2-0.4-0.4-0.5-0.8C95.1,157.3,95.3,157.1,95.7,157.2L95.7,157.2z"/>
<path id="Layer2_5_MEMBER_79_1_STROKES" class="st7" d="M126.2,132.1v-3.8"/>
<path id="Layer2_5_MEMBER_80_1_STROKES" class="st7" d="M126.2,147.3V139"/>
<path id="Layer2_5_MEMBER_81_1_STROKES" class="st7" d="M88.9,143.9v-1.7"/>
<path id="Layer2_5_MEMBER_82_1_STROKES" class="st7" d="M88.9,153.5V149"/>
<path id="Layer2_5_MEMBER_83_1_STROKES" class="st7" d="M121.3,141.9v8.8"/>
<path id="Layer2_5_MEMBER_84_1_STROKES" class="st7" d="M121.3,132v3.6"/>
<path id="Layer2_5_MEMBER_85_1_STROKES" class="st7" d="M92.8,131.1v-0.7"/>
<path id="Layer2_5_MEMBER_86_1_STROKES" class="st7" d="M101.5,136.2v-0.7"/>
<path id="Layer2_5_MEMBER_87_1_STROKES" class="st7" d="M113.4,129.3v-0.7"/>
<path id="Layer2_5_MEMBER_88_1_STROKES" class="st7" d="M109.5,125.6v-0.8"/>
<path id="Layer2_5_MEMBER_89_1_STROKES" class="st7" d="M95,129.5V129"/>
<path id="Layer2_5_MEMBER_90_1_STROKES" class="st7" d="M111.2,129.5V129"/>
<path id="Layer2_5_MEMBER_91_1_STROKES" class="st7" d="M132.5,123.4L132,124"/>
<path id="Layer2_5_MEMBER_92_1_STROKES" class="st7" d="M81.3,136.3l-0.1-1.6"/>
<path id="Layer2_5_MEMBER_93_1_STROKES" class="st7" d="M139,113.7v-0.6"/>
<path id="Layer2_5_MEMBER_94_1_STROKES" class="st7" d="M99.8,148.1v-5.4"/>
<path id="Layer2_5_MEMBER_95_1_STROKES" class="st7" d="M99.8,162.6v-8.9"/>
<path id="Layer2_5_MEMBER_96_1_STROKES" class="st7" d="M98.7,125.4v-0.9"/>
<path id="Layer2_5_MEMBER_97_1_STROKES" class="st7" d="M107.5,125.4v-0.9"/>
<path id="Layer2_5_MEMBER_98_1_STROKES" class="st7" d="M98.7,117.2v-1.3"/>
<path id="Layer2_5_MEMBER_99_1_STROKES" class="st7" d="M107.5,117.2v-1.3"/>
<path id="Layer2_5_MEMBER_100_1_STROKES" class="st7" d="M83.1,138.8l-0.4,0.7l-0.4,0.6l-0.6,0.5l-1.1,0.7l-0.4,0.4l-0.2,0.4
	l0.1,0.5l0.3,0.4c0.3,0.4,0.8,0.7,1.3,1.1c0.6,0.4,1.1,0.6,1.5,0.6l1.6,0.3l0.9,0.4l0.8,0.5c0.4,0.3,1,0.8,2,1.7
	c0.8,0.7,1.5,1.3,2.1,1.6l1.9,1c0.5,0.2,1.3,0.5,2.4,0.9c1,0.4,1.8,0.7,2.4,1l1,0.3l1,0.2l1.2-0.1l1.1-0.3l1-0.6l3-2.2l3.9-1.8
	l1.7-1.1l1.2-1.1l1.5-1.1l5.1-2.2l2-1.2l2.3-1.9l0.9-0.5l1-0.4l2.8-0.6l0.8-0.4l0.6-0.5l0.4-0.5l0.3-0.5l0.4-0.5l0.6-0.5l0.8-0.5
	l2.7-0.9l0.5-0.4l0.3-0.4l0.2-0.4l0.1-0.4v-0.4l-0.1-0.4l-0.3-0.4l-1.8-0.8l-0.6-0.3l-0.5-0.3l-0.6-0.6l-0.9-0.7l-2.4-1.1"/>
<path id="Layer2_5_MEMBER_101_1_STROKES" class="st7" d="M127.1,131.5l-0.1-0.1"/>
<path id="Layer2_5_MEMBER_102_1_STROKES" class="st7" d="M86.1,142.2l1.5-0.8"/>
<path id="Layer2_5_MEMBER_103_1_STROKES" class="st7" d="M126.9,131.3l-0.7-0.4"/>
<path id="Layer2_5_MEMBER_104_1_STROKES" class="st7" d="M88.3,136.7c-0.3-0.1-0.6-0.1-0.9,0"/>
<path id="Layer2_5_MEMBER_105_1_STROKES" class="st7" d="M92.2,139.4c0.3-0.1,0.6-0.1,0.9,0"/>
<path id="Layer2_5_MEMBER_106_1_STROKES" class="st7" d="M89.4,121l0-5.6"/>
<path id="Layer2_5_MEMBER_107_1_STROKES" class="st7" d="M91.1,121l0-5.6"/>
<path id="Layer2_5_MEMBER_108_1_STROKES" class="st7" d="M89.4,121c0,0.3,0.3,0.5,0.8,0.5c0.5,0,0.8-0.2,0.9-0.5"/>
<path id="Layer2_5_MEMBER_109_1_STROKES" class="st7" d="M89.5,115.5c0.2,0.2,0.5,0.2,0.7,0.3c0.3,0,0.5-0.1,0.7-0.2"/>
<path id="Layer2_5_MEMBER_110_1_STROKES" class="st7" d="M91.5,114.8l-0.5,0.7"/>
<path id="Layer2_5_MEMBER_111_1_STROKES" class="st7" d="M89,114.8l0.5,0.6"/>
<path id="Layer2_5_MEMBER_112_1_STROKES" class="st7" d="M91.6,114.3c-0.2-0.4-0.6-0.7-1.3-0.7c-0.7,0-1.2,0.2-1.4,0.6l-0.1,0.3
	l0,0.1l0.1,0.1c0.2,0.4,0.7,0.6,1.4,0.5c0.7,0,1.2-0.3,1.3-0.7v-0.1L91.6,114.3z"/>
<path id="Layer2_5_MEMBER_113_1_STROKES" class="st7" d="M90.3,114.6l0.7,0.4l0.2-0.1"/>
<path id="Layer2_5_MEMBER_114_1_STROKES" class="st7" d="M90.6,114.4l0.5-0.4"/>
<path id="Layer2_5_MEMBER_115_1_STROKES" class="st7" d="M90.9,113.9l0.2,0.1"/>
<path id="Layer2_5_MEMBER_116_1_STROKES" class="st7" d="M90.2,114.6l-0.7,0.4l-0.2-0.1"/>
<path id="Layer2_5_MEMBER_117_1_STROKES" class="st7" d="M89.9,114.4l-0.6-0.4"/>
<path id="Layer2_5_MEMBER_118_1_STROKES" class="st7" d="M89.6,113.9l-0.2,0.1"/>
<path id="Layer2_5_MEMBER_119_1_STROKES" class="st7" d="M89.4,119.6c0,0.3,0.3,0.5,0.8,0.5c0.5,0,0.8-0.2,0.9-0.5"/>
<path id="Layer2_5_MEMBER_120_1_STROKES" class="st7" d="M89.4,120.4c0,0.3,0.3,0.5,0.8,0.5c0.5,0,0.8-0.1,0.9-0.4"/>
<path id="Layer2_5_MEMBER_121_1_STROKES" class="st7" d="M115.9,132.9L115.9,132.9l-0.1-0.1l-0.1,0c-0.4-0.1-0.7,0-0.9,0.1l-0.1,0.1
	c-0.2,0.2-0.2,0.4,0,0.6l0.2,0.1c0.3,0.2,0.6,0.1,1,0c0.4-0.2,0.4-0.4,0.1-0.7L115.9,132.9z"/>
<path id="Layer2_5_MEMBER_122_1_STROKES" class="st7" d="M113.9,133L113.9,133c0.2,0.5,0.7,0.7,1.5,0.7c0.8,0,1.2-0.3,1.3-0.7v-0.1
	l0-0.1c-0.1-0.5-0.6-0.7-1.4-0.7c-0.8,0-1.3,0.2-1.4,0.7l0,0.1V133z"/>
<path id="Layer2_5_MEMBER_123_1_STROKES" class="st7" d="M126.7,119.2L126.7,119.2l-0.1-0.1h-0.1c-0.3-0.1-0.6-0.1-0.9,0.1l-0.1,0
	l-0.1,0.1c-0.1,0.1-0.2,0.2-0.1,0.3c0,0.1,0.1,0.2,0.2,0.3l0.1,0.1l0.1,0.1c0.3,0.2,0.6,0.1,1,0c0.4-0.2,0.4-0.4,0.1-0.7
	L126.7,119.2L126.7,119.2z"/>
<path id="Layer2_5_MEMBER_124_1_STROKES" class="st7" d="M127.5,119.2c-0.1-0.5-0.6-0.7-1.4-0.7c-0.8,0-1.3,0.2-1.4,0.7l0,0.1v0.1
	l0.1,0.2c0.2,0.5,0.7,0.7,1.4,0.6c0.8,0,1.2-0.3,1.3-0.8V119.2z"/>
<path id="Layer2_5_MEMBER_125_1_STROKES" class="st7" d="M122.5,116.9l-0.2-0.1c-0.3-0.1-0.6-0.1-0.9,0.1l-0.1,0.1
	c-0.1,0.1-0.2,0.2-0.1,0.3c0,0.1,0.1,0.2,0.2,0.3l0.2,0.1c0.3,0.2,0.6,0.1,1,0c0.4-0.2,0.4-0.4,0.1-0.7L122.5,116.9z"/>
<path id="Layer2_5_MEMBER_126_1_STROKES" class="st7" d="M120.6,117L120.6,117c0.2,0.5,0.7,0.7,1.5,0.7c0.8,0,1.2-0.3,1.3-0.7v-0.2
	c-0.1-0.5-0.6-0.7-1.4-0.7c-0.8,0-1.3,0.2-1.4,0.7V117z"/>
<path id="Layer2_5_MEMBER_127_1_STROKES" class="st7" d="M92.8,131.1v-0.7"/>
<path id="Layer2_5_MEMBER_128_1_STROKES" class="st7" d="M95.5,131.2c-0.1,0.4-0.5,0.5-1.1,0.5c-0.6,0-1-0.2-1.1-0.5"/>
<path id="Layer2_5_MEMBER_129_1_STROKES" class="st7" d="M95.5,131.1v-0.4"/>
<path id="Layer2_5_MEMBER_130_1_STROKES" class="st7" d="M93.3,131.1v-0.4"/>
<path id="Layer2_5_MEMBER_131_1_STROKES" class="st7" d="M93.8,130.6l0.2,0.1"/>
<path id="Layer2_5_MEMBER_132_1_STROKES" class="st7" d="M94.8,130.8l0.2-0.1"/>
<path id="Layer2_5_MEMBER_133_1_STROKES" class="st7" d="M94.4,130.4l0.2,0.1l0.1,0.1l0.1,0.1"/>
<path id="Layer2_5_MEMBER_134_1_STROKES" class="st7" d="M94.4,130.4l-0.3,0.2l-0.1,0.1"/>
<path id="Layer2_5_MEMBER_135_1_STROKES" class="st7" d="M93.3,130.7c0.2-0.5,0.6-0.7,1.1-0.7s0.9,0.2,1.1,0.7"/>
<path id="Layer2_5_MEMBER_136_1_STROKES" class="st7" d="M112.9,127.9c-0.1,0.3-0.4,0.4-0.8,0.5c-0.4,0.1-0.7,0-1-0.1"/>
<path id="Layer2_5_MEMBER_137_1_STROKES" class="st7" d="M112.9,127.9v-0.4"/>
<path id="Layer2_5_MEMBER_138_1_STROKES" class="st7" d="M111.3,127.3l0.2,0.1"/>
<path id="Layer2_5_MEMBER_139_1_STROKES" class="st7" d="M112.3,127.5l0.2-0.1"/>
<path id="Layer2_5_MEMBER_140_1_STROKES" class="st7" d="M111.9,127.2l0.3,0.2l0.1,0.1"/>
<path id="Layer2_5_MEMBER_141_1_STROKES" class="st7" d="M111.9,127.2l-0.1,0.1l-0.2,0.2"/>
<path id="Layer2_5_MEMBER_142_1_STROKES" class="st7" d="M110.7,127.4c0.2-0.5,0.6-0.7,1.1-0.7c0.5,0,0.9,0.2,1.1,0.7"/>
<path id="Layer2_5_MEMBER_143_1_STROKES" class="st7" d="M99.7,127.1l-0.2,0.4L99,128l-0.6,0.3"/>
<path id="Layer2_5_MEMBER_144_1_STROKES" class="st7" d="M106.5,127.1l0.2,0.4l0.5,0.5l0.6,0.3"/>
<path id="Layer2_5_MEMBER_145_1_STROKES" class="st7" d="M99.7,118.8l-0.2,0.4l-0.5,0.5l-0.6,0.4"/>
<path id="Layer2_5_MEMBER_146_1_STROKES" class="st7" d="M106.5,118.8l0.2,0.4l0.5,0.5l0.6,0.4"/>
<path id="Layer2_5_MEMBER_147_1_STROKES" class="st7" d="M101.3,134.6c-0.1,0.4-0.5,0.5-1.1,0.5c-0.6,0-0.9-0.2-1.1-0.5"/>
<path id="Layer2_5_MEMBER_148_1_STROKES" class="st7" d="M101.3,134.6v-0.4"/>
<path id="Layer2_5_MEMBER_149_1_STROKES" class="st7" d="M99.1,134.6v-0.4"/>
<path id="Layer2_5_MEMBER_150_1_STROKES" class="st7" d="M99.7,134l0.2,0.2"/>
<path id="Layer2_5_MEMBER_151_1_STROKES" class="st7" d="M100.6,134.2l0.2-0.1"/>
<path id="Layer2_5_MEMBER_152_1_STROKES" class="st7" d="M100.2,133.8l0.2,0.1l0.1,0.1l0.1,0.1"/>
<path id="Layer2_5_MEMBER_153_1_STROKES" class="st7" d="M100.2,133.8l-0.1,0.1l-0.2,0.2"/>
<path id="Layer2_5_MEMBER_154_1_STROKES" class="st7" d="M99.1,134.1c0.2-0.5,0.6-0.7,1.1-0.7c0.5,0,0.9,0.2,1.1,0.7"/>
<path id="Layer2_5_MEMBER_155_1_STROKES" class="st7" d="M95,157.1l0.2-0.1c0.7-0.8,0.6-1.9-0.3-3.5c-0.9-1.5-1.9-2.1-2.9-1.8
	l-0.2,0.1"/>
<path id="Layer2_5_MEMBER_156_1_STROKES" class="st7" d="M91,158.7l0.2,0.1l0.3,0.1c0.9,0.1,1.4-0.2,1.5-1.1c0.1-0.7,0-1.4-0.4-2.1
	l-0.4-0.7c-0.4-0.7-1-1.2-1.8-1.5c-0.9-0.4-1.5-0.1-1.8,0.8l-0.1,0.3"/>
<path id="Layer2_5_MEMBER_157_1_STROKES" class="st7" d="M91.8,151.8l-2.7,1.5"/>
<path id="Layer2_5_MEMBER_158_1_STROKES" class="st7" d="M95,157.1l-2.7,1.5"/>
<path id="Layer2_5_MEMBER_159_1_STROKES" class="st7" d="M93.5,158l0.2-0.1c0.7-0.8,0.6-2-0.3-3.5c-0.9-1.5-1.9-2.1-2.9-1.8
	l-0.2,0.1"/>
<path id="Layer2_5_MEMBER_160_1_STROKES" class="st7" d="M94.5,157.4l0.2-0.1c0.7-0.8,0.6-2-0.3-3.5c-0.9-1.5-1.9-2.1-2.9-1.8
	l-0.2,0.1"/>
<path id="Layer2_5_MEMBER_161_1_STROKES" class="st7" d="M91.9,158.1l0.1-0.1c0.5-0.6,0.4-1.5-0.3-2.7c-0.7-1.1-1.4-1.6-2.2-1.4
	l-0.2,0.1l-1.1,0.6"/>
<path id="Layer2_5_MEMBER_162_1_STROKES" class="st7" d="M91.9,158.1l-1.2,0.6"/>
<path id="Layer2_5_MEMBER_163_1_STROKES" class="st7" d="M89.4,158.6l0.4,0.2c0.7,0.2,1.1,0.1,1.3-0.5c0.2-0.5,0.2-1-0.1-1.6
	l-0.1-0.3l-0.1-0.3c-0.2-0.6-0.7-1.1-1.3-1.4c-0.7-0.4-1.2-0.3-1.5,0.3l-0.1,0.2l0,0.2"/>
<path id="Layer2_5_MEMBER_164_1_STROKES" class="st7" d="M90,158.2c0.9-0.1,1-0.7,0.4-1.9c-0.7-1.2-1.3-1.4-1.9-0.7"/>
<path id="Layer2_5_MEMBER_165_1_STROKES" class="st7" d="M84.4,157.8l-2.5,1.5"/>
<path id="Layer2_5_MEMBER_166_1_STROKES" class="st7" d="M89.3,155.5l-0.3,0.2c-0.5,0.3-1.5,0.7-3,1.3l-0.5,0.2"/>
<path id="Layer2_5_MEMBER_167_1_STROKES" class="st7" d="M84.9,158.1l-2.8,1.7"/>
<path id="Layer2_5_MEMBER_168_1_STROKES" class="st7" d="M89.9,155.8l-0.3,0.2c-0.7,0.4-1.8,0.8-3.3,1.5l-0.3,0.1"/>
<path id="Layer2_5_MEMBER_169_1_STROKES" class="st7" d="M85,158.3l-0.2,0.1c-0.5,0.2-1.4,0.6-2.5,1.3"/>
<path id="Layer2_5_MEMBER_170_1_STROKES" class="st7" d="M90.2,156.2l-0.4,0.2c-1.1,0.6-2.3,1.1-3.4,1.4l-0.3,0.1"/>
<path id="Layer2_5_MEMBER_171_1_STROKES" class="st7" d="M85.3,158.7l-0.3,0.1c-0.6,0.2-1.6,0.7-3,1.5l-0.1,0.1"/>
<path id="Layer2_5_MEMBER_172_1_STROKES" class="st7" d="M90.5,156.7l-0.4,0.2c-1.1,0.6-2.3,1.1-3.5,1.4l-0.3,0.1"/>
<path id="Layer2_5_MEMBER_173_1_STROKES" class="st7" d="M85.3,159l-0.4,0.1c-0.9,0.4-1.9,0.8-2.9,1.3l-0.1,0.1"/>
<path id="Layer2_5_MEMBER_174_1_STROKES" class="st7" d="M90.6,157.1l-0.5,0.2c-0.8,0.4-1.3,0.7-1.7,0.9c-0.5,0.2-1.2,0.4-1.9,0.5"
	/>
<path id="Layer2_5_MEMBER_175_1_STROKES" class="st7" d="M85.4,159.5l-0.1,0.1c-0.7,0.3-1.7,0.7-3,1.4l-0.1,0.1"/>
<path id="Layer2_5_MEMBER_176_1_STROKES" class="st7" d="M90.7,157.7l-0.4,0.2c-0.8,0.5-1.4,0.8-1.9,0.9c-0.3,0.1-1,0.2-2,0.3"/>
<path id="Layer2_5_MEMBER_177_1_STROKES" class="st7" d="M85.1,160c0.7-0.3,0.7-0.9-0.1-1.9c-0.8-1-1.2-1-1.5-0.1"/>
<path id="Layer2_5_MEMBER_178_1_STROKES" class="st7" d="M86.1,159.4c0.3-0.4,0.3-0.9-0.1-1.5c-0.4-0.7-0.8-0.9-1.3-0.8"/>
<path id="Layer2_5_MEMBER_179_1_STROKES" class="st7" d="M84.7,157.1l-0.8,0.5"/>
<path id="Layer2_5_MEMBER_180_1_STROKES" class="st7" d="M86.1,159.4l-0.7,0.4"/>
<path id="Layer2_5_MEMBER_181_1_STROKES" class="st7" d="M87.9,155.5c-0.1,0.3-0.4,0.6-0.9,0.9l0,0l-0.7,0.4"/>
<path id="Layer2_5_MEMBER_182_1_STROKES" class="st7" d="M79.9,142.2l0.3,1.4l0.3,0.5l0.4,0.4c0.8,0.7,1.8,1.2,3.1,1.4
	c1.3,0.2,2.4,0.8,3.4,1.7l3.3,2.7l2.6,1.4l4.9,1.9l1,0.2l1.1,0l1.1-0.3l1-0.6l1.9-1.5c0.7-0.5,1.8-1.1,3.4-1.8
	c1.5-0.6,2.7-1.2,3.3-1.8l1.2-1.1c0.8-0.7,1.9-1.4,3.2-1.9c0.8-0.3,1.9-0.8,3.5-1.4l1-0.5l1-0.7l1.5-1.3l1.6-1.1l1-0.4l2.7-0.6
	l0.8-0.4l0.6-0.5l1.1-1.5l0.5-0.5l0.8-0.4l2.7-0.9l0.5-0.4l0.3-0.4l0.2-0.4l0.1-0.4v-1.1"/>
<path id="Layer2_5_MEMBER_183_1_STROKES" class="st7" d="M84.4,159.6l2.4-1.4"/>
<path id="Layer2_5_MEMBER_184_1_STROKES" class="st7" d="M125.8,148.1L125.8,148.1L125.8,148.1L125.8,148.1L125.8,148.1L125.8,148.1
	L125.8,148.1l0.1-0.1h0v0l0,0v0h0v0l0,0v0h0v-0.1h0v-0.1h0v-0.1h0v-0.1h0v-0.1"/>
<path id="Layer2_5_MEMBER_185_1_STROKES" class="st7" d="M125.9,147.2c0.1-0.1,0.2-0.2,0.2-0.3l0,0c0.1-0.2,0.1-0.3,0.1-0.4"/>
<path id="Layer2_5_MEMBER_186_1_STROKES" class="st7" d="M88.9,156.2l0,0.2l0,0v0l0.1,0.2l0,0c0.1,0.2,0.2,0.3,0.3,0.4"/>
<path id="Layer2_5_MEMBER_187_1_STROKES" class="st7" d="M95.7,158.8c0.2,0.1,0.5,0.2,0.6,0.1c0.2-0.1,0.2-0.3,0.3-0.6"/>
<path id="Layer2_5_MEMBER_188_1_STROKES" class="st7" d="M96.8,158.6c0,0,0.1-0.1,0.2-0.2v-0.1h0"/>
<path id="Layer2_5_MEMBER_189_1_STROKES" class="st7" d="M96.3,158.9l0.5-0.3"/>
<path id="Layer2_5_MEMBER_190_1_STROKES" class="st7" d="M133,68.4l-22.8,16.4l-1.4,0.8c-2.8,1.6-6.2,2.4-10,2.6l-2.4,0"/>
<path id="Layer2_5_MEMBER_191_1_STROKES" class="st7" d="M133,68.4l0.6-0.6l0.3-0.7l-0.1-0.6l-0.4-0.6"/>
<path id="Layer2_5_MEMBER_192_1_STROKES" class="st7" d="M90.3,83.3l0.1,2.2l0.4,0.7l0.7,0.7l1,0.6l1.2,0.4l1.3,0.2l1.4,0.1"/>
<path id="Layer2_5_MEMBER_193_1_STROKES" class="st7" d="M131.4,64.5l0.7,0.4l1.2,1"/>
<path id="Layer2_5_MEMBER_194_1_STROKES" class="st7" d="M91.3,81.4L90.8,82l-0.4,1l-0.1,0.4"/>
<path id="Layer2_5_MEMBER_195_1_STROKES" class="st7" d="M131.4,64.4c-0.8-0.5-1.9-0.7-3.1-0.6l-0.5,0.1"/>
<path id="Layer2_5_MEMBER_196_1_STROKES" class="st7" d="M133,69.4l-22.8,16.4l-1.4,0.8c-2.8,1.6-6.2,2.4-10,2.6h-2.4"/>
<path id="Layer2_5_MEMBER_197_1_STROKES" class="st7" d="M133,69.4l0.6-0.6l0.3-0.6l0-0.2"/>
<path id="Layer2_5_MEMBER_198_1_STROKES" class="st7" d="M90.3,84.3l0.1,2.2l0.4,0.8l0.7,0.6l1,0.6l1.2,0.4l1.3,0.2l1.4,0.1"/>
<path id="Layer2_5_MEMBER_199_1_STROKES" class="st7" d="M133.8,68v-0.9"/>
<path id="Layer2_5_MEMBER_200_1_STROKES" class="st7" d="M111.1,82.6l-2.7,1.6c-2.6,1.4-5.7,2.2-9.1,2.3l-2.2,0"/>
<path id="Layer2_5_MEMBER_201_1_STROKES" class="st7" d="M129.8,69.2L131,68l0.3-0.6l-0.1-0.6l-0.4-0.6"/>
<path id="Layer2_5_MEMBER_202_1_STROKES" class="st7" d="M91.6,82.1l0,1.3"/>
<path id="Layer2_5_MEMBER_203_1_STROKES" class="st7" d="M126.4,63.8l0.4,0.1"/>
<path id="Layer2_5_MEMBER_204_1_STROKES" class="st7" d="M91.6,83.4l0.1,0.7l0.4,0.7l0.6,0.6l0.9,0.5l1,0.4l1.2,0.2l1.2,0"/>
<path id="Layer2_5_MEMBER_205_1_STROKES" class="st7" d="M126.8,63.9l1.5,0.6l1.4,0.8l1.1,0.9"/>
<path id="Layer2_5_MEMBER_206_1_STROKES" class="st7" d="M99.5,58.3c0.2,0.6,0.7,0.9,1.7,0.9c1,0,1.5-0.3,1.7-0.9"/>
<path id="Layer2_5_MEMBER_207_1_STROKES" class="st7" d="M105.1,60.7h0.6c1.4,0.1,3.5,0.2,6.5,0.3c2.6,0.2,4.8,0.4,6.4,0.8l0.5,0.1"
	/>
<path id="Layer2_5_MEMBER_208_1_STROKES" class="st7" d="M126.4,63.8c-2.4-1-4.8-1.6-7.2-1.9"/>
<path id="Layer2_5_MEMBER_209_1_STROKES" class="st7" d="M91.6,82.1l3.7-16"/>
<path id="Layer2_5_MEMBER_210_1_STROKES" class="st7" d="M99.5,58.2v-0.8"/>
<path id="Layer2_5_MEMBER_211_1_STROKES" class="st7" d="M102.8,58.2v-0.7"/>
<path id="Layer2_5_MEMBER_212_1_STROKES" class="st7" d="M100.1,59.9c0.1,0.4,0.5,0.6,1.1,0.6s1-0.2,1.1-0.6"/>
<path id="Layer2_5_MEMBER_213_1_STROKES" class="st7" d="M100,59.8V59"/>
<path id="Layer2_5_MEMBER_214_1_STROKES" class="st7" d="M102.3,59.8V59"/>
<path id="Layer2_5_MEMBER_215_1_STROKES" class="st7" d="M100.1,52.7V54c0.1,0.4,0.4,0.6,1,0.6c0.6,0,1-0.2,1-0.6l0-1.3"/>
<path id="Layer2_5_MEMBER_216_1_STROKES" class="st7" d="M102.4,52c0.5-0.6,0.4-1-0.4-1.3c-0.8-0.3-1.5-0.3-2,0l-0.1,0.1l-0.1,0.1
	c-0.6,0.5-0.6,1,0.2,1.4c0.8,0.4,1.4,0.4,2,0.1l0.3-0.1L102.4,52z"/>
<path id="Layer2_5_MEMBER_217_1_STROKES" class="st7" d="M99.4,52c0.1,0.6,0.7,0.9,1.7,0.9c1,0,1.5-0.3,1.7-0.9"/>
<path id="Layer2_5_MEMBER_218_1_STROKES" class="st7" d="M99.4,52v-0.5"/>
<path id="Layer2_5_MEMBER_219_1_STROKES" class="st7" d="M102.7,51.9v-0.4"/>
<path id="Layer2_5_MEMBER_220_1_STROKES" class="st7" d="M100.1,53.4c0.1,0.4,0.4,0.6,1,0.6c0.6,0,1-0.2,1-0.6"/>
<path id="Layer2_5_MEMBER_221_1_STROKES" class="st7" d="M100.1,52.8c0.1,0.4,0.4,0.6,1,0.6c0.6,0,1-0.2,1-0.6"/>
<path id="Layer2_5_MEMBER_222_1_STROKES" class="st7" d="M97,66.8l1.4,0.7c2.9,1.5,4.6,2.4,5.1,2.8c1.7,1.2,2.9,2.7,3.5,4.5L107,75"
	/>
<path id="Layer2_5_MEMBER_223_1_STROKES" class="st7" d="M106.5,61.9l1.4,0.7c2.9,1.5,4.7,2.4,5.1,2.8c1.7,1.2,2.9,2.7,3.5,4.5
	l0.1,0.2"/>
<path id="Layer2_5_MEMBER_224_1_STROKES" class="st7" d="M99.7,62.7l5.5,3.2l2.7-1.5l-5.3-3"/>
<path id="Layer2_5_MEMBER_225_1_STROKES" class="st7" d="M101.3,61.8l-0.9,0.5c-1.3,0.8-2.1,1.3-2.6,1.6c-0.9,0.6-1.7,1.3-2.3,2
	l-0.2,0.2"/>
<path id="Layer2_5_MEMBER_226_1_STROKES" class="st7" d="M105.3,60.6l-0.6,0.1c-1.1,0.1-2.1,0.4-3.2,0.9l-0.3,0.1"/>
<path id="Layer2_5_MEMBER_227_1_STROKES" class="st7" d="M105.6,92.9l-10.8,4.9"/>
<path id="Layer2_5_MEMBER_228_1_STROKES" class="st7" d="M126.1,83.5l-9,4.1"/>
<path id="Layer2_5_MEMBER_229_1_STROKES" class="st7" d="M133.2,87.3l-23,16.5l-1.4,0.8c-2.9,1.6-6.2,2.4-10.1,2.6h-2.4"/>
<path id="Layer2_5_MEMBER_230_1_STROKES" class="st7" d="M133.2,87.3l0.6-0.6l0.3-0.7l-0.1-0.7l-0.4-0.6"/>
<path id="Layer2_5_MEMBER_231_1_STROKES" class="st7" d="M90.3,102.3l0.1,2.2l0.4,0.7l0.7,0.7l1,0.6l1.2,0.4l1.3,0.3l1.4,0.1"/>
<path id="Layer2_5_MEMBER_232_1_STROKES" class="st7" d="M131.6,83.4l0.7,0.4l1.3,1"/>
<path id="Layer2_5_MEMBER_233_1_STROKES" class="st7" d="M91.3,100.3l-0.5,0.6l-0.5,1l-0.1,0.4"/>
<path id="Layer2_5_MEMBER_234_1_STROKES" class="st7" d="M131.6,83.3c-0.9-0.5-1.9-0.7-3.1-0.6l-0.5,0.1"/>
<path id="Layer2_5_MEMBER_235_1_STROKES" class="st7" d="M133.2,88.3l-23,16.5l-1.4,0.8c-2.8,1.6-6.2,2.4-10.1,2.6l-2.4,0"/>
<path id="Layer2_5_MEMBER_236_1_STROKES" class="st7" d="M133.2,88.3l0.6-0.6l0.3-0.6l0-0.2"/>
<path id="Layer2_5_MEMBER_237_1_STROKES" class="st7" d="M90.3,103.3l0.1,2.2l0.4,0.7l0.7,0.7l1,0.6l1.2,0.4l1.3,0.2l1.4,0.1"/>
<path id="Layer2_5_MEMBER_238_1_STROKES" class="st7" d="M134,86.9V86"/>
<path id="Layer2_5_MEMBER_239_1_STROKES" class="st7" d="M93.8,98.4l-0.4,0.2l-1,0.6l-0.8,0.7l-0.5,0.7"/>
<path id="Layer2_5_MEMBER_240_1_STROKES" class="st7" d="M93.8,98.4l1-0.6"/>
<path id="Layer2_5_MEMBER_241_1_STROKES" class="st7" d="M105.6,92.9l11.4-5.2"/>
<path id="Layer2_5_MEMBER_242_1_STROKES" class="st7" d="M126.1,83.5l0.2-0.1c0.7-0.3,1.2-0.5,1.7-0.6"/>
<path id="Layer2_5_MEMBER_243_1_STROKES" class="st7" d="M105,93.8l-9.6,4.4"/>
<path id="Layer2_5_MEMBER_244_1_STROKES" class="st7" d="M109.1,103.4l-1.2,0.7c-2.5,1.4-5.4,2.1-8.9,2.3l-2.1,0"/>
<path id="Layer2_5_MEMBER_245_1_STROKES" class="st7" d="M132.5,87l0.5-0.5l0.2-0.5l-0.1-0.6l-0.3-0.5"/>
<path id="Layer2_5_MEMBER_246_1_STROKES" class="st7" d="M91.5,102.1l0.1,1.9l0.3,0.6l0.6,0.6l0.9,0.5l1,0.4l1.2,0.2l1.2,0"/>
<path id="Layer2_5_MEMBER_247_1_STROKES" class="st7" d="M131.2,83.8l0.6,0.3l1,0.8"/>
<path id="Layer2_5_MEMBER_248_1_STROKES" class="st7" d="M92.3,100.4l-0.4,0.6l-0.4,0.9l-0.1,0.3"/>
<path id="Layer2_5_MEMBER_249_1_STROKES" class="st7" d="M131.1,83.8c-0.7-0.4-1.5-0.5-2.5-0.5l-0.5,0.1"/>
<path id="Layer2_5_MEMBER_250_1_STROKES" class="st7" d="M94.6,98.7l-0.3,0.2l-0.9,0.6l-0.7,0.6l-0.5,0.6"/>
<path id="Layer2_5_MEMBER_251_1_STROKES" class="st7" d="M94.6,98.7l0.9-0.5"/>
<path id="Layer2_5_MEMBER_252_1_STROKES" class="st7" d="M126.6,84l0.2-0.1c0.6-0.3,1.1-0.4,1.4-0.5"/>
<path id="Layer2_5_MEMBER_253_1_STROKES" class="st7" d="M109.1,103.4L132.5,87"/>
<path id="Layer2_5_MEMBER_254_1_STROKES" class="st7" d="M105,93.8l22.1-10"/>
<path id="Layer2_5_MEMBER_255_1_STROKES" class="st7" d="M105,95l-9.6,4.3"/>
<path id="Layer2_5_MEMBER_256_1_STROKES" class="st7" d="M131.2,85l0.6,0.3l1,0.8"/>
<path id="Layer2_5_MEMBER_257_1_STROKES" class="st7" d="M92.3,101.6l-0.4,0.6l-0.4,0.9l-0.1,0.3"/>
<path id="Layer2_5_MEMBER_258_1_STROKES" class="st7" d="M131.1,85c-0.7-0.4-1.5-0.5-2.5-0.5l-0.5,0.1"/>
<path id="Layer2_5_MEMBER_259_1_STROKES" class="st7" d="M94.6,99.9l-0.3,0.1l-0.9,0.6l-0.7,0.6l-0.5,0.6"/>
<path id="Layer2_5_MEMBER_260_1_STROKES" class="st7" d="M94.6,99.9l0.9-0.5"/>
<path id="Layer2_5_MEMBER_261_1_STROKES" class="st7" d="M126.6,85.2l0.2-0.1c0.5-0.2,0.9-0.4,1.4-0.5"/>
<path id="Layer2_5_MEMBER_262_1_STROKES" class="st7" d="M105,95l22.1-10.1"/>
<path id="Layer2_5_MEMBER_263_1_STROKES" class="st7" d="M138.3,23.4l-26.9,19.7l-0.2,0.2c-4.8,3.4-10.7,5.5-17.7,6.2l-2.9,0.2"/>
<path id="Layer2_5_MEMBER_264_1_STROKES" class="st7" d="M126.5,20.1L94.8,34.5"/>
<path id="Layer2_5_MEMBER_265_1_STROKES" class="st7" d="M90.6,49.7l-1.3-0.1L88,49.4L86.9,49L86,48.5l-0.7-0.6l-0.5-0.7l-0.1-0.7"
	/>
<path id="Layer2_5_MEMBER_266_1_STROKES" class="st7" d="M138.1,23.5l0.5-0.7l0.2-0.7"/>
<path id="Layer2_5_MEMBER_267_1_STROKES" class="st7" d="M138.1,21.2l-26.7,19.5l-0.2,0.2l-2.5,1.6c-4.3,2.5-9.3,4-15.1,4.6
	l-2.9,0.2"/>
<path id="Layer2_5_MEMBER_268_1_STROKES" class="st7" d="M125.5,18.7L96.3,32.1"/>
<path id="Layer2_5_MEMBER_269_1_STROKES" class="st7" d="M130.1,16.7l-4.9,2.2"/>
<path id="Layer2_5_MEMBER_270_1_STROKES" class="st7" d="M91.9,34.5l-2.4,1.8l-2.7,3l-1,1.6l-0.7,1.6l-0.4,1.7"/>
<path id="Layer2_5_MEMBER_271_1_STROKES" class="st7" d="M95.3,32.6l-3.6,2"/>
<path id="Layer2_5_MEMBER_272_1_STROKES" class="st7" d="M90.6,47.4l-1.3-0.1L88,47.1l-1.1-0.4L86,46.2l-0.7-0.6"/>
<path id="Layer2_5_MEMBER_273_1_STROKES" class="st7" d="M134.9,16.6l-1.2-0.2l-1.2,0l-2.4,0.4"/>
<path id="Layer2_5_MEMBER_274_1_STROKES" class="st7" d="M138.8,20l-0.1-0.7l-0.3-0.7l-0.6-0.6l-0.8-0.6l-1-0.5l-1.1-0.3"/>
<path id="Layer2_5_MEMBER_275_1_STROKES" class="st7" d="M131.8,24.4l-22.1,15.9l-1.4,0.8c-2.7,1.5-6,2.3-9.7,2.5l-2.3,0"/>
<path id="Layer2_5_MEMBER_276_1_STROKES" class="st7" d="M131.8,24.4l0.6-0.6l0.3-0.6l-0.1-0.6l-0.4-0.6"/>
<path id="Layer2_5_MEMBER_277_1_STROKES" class="st7" d="M90.5,38.8l0.1,2.1l0.4,0.7l0.7,0.6l0.9,0.5l1.1,0.4l1.2,0.2l1.3,0.1"/>
<path id="Layer2_5_MEMBER_278_1_STROKES" class="st7" d="M130.2,20.6l0.7,0.4l1.2,0.9"/>
<path id="Layer2_5_MEMBER_279_1_STROKES" class="st7" d="M84.7,46.4v-2.3"/>
<path id="Layer2_5_MEMBER_280_1_STROKES" class="st7" d="M138.8,22.3V20"/>
<path id="Layer2_5_MEMBER_281_1_STROKES" class="st7" d="M95.3,32.6l1-0.5"/>
<path id="Layer2_5_MEMBER_282_1_STROKES" class="st7" d="M134.3,9.9V4.8"/>
<path id="Layer2_5_MEMBER_283_1_STROKES" class="st7" d="M135.8,9.9l0-5.1"/>
<path id="Layer2_5_MEMBER_284_1_STROKES" class="st7" d="M134.3,10c0,0.3,0.3,0.4,0.8,0.5c0.5,0,0.7-0.1,0.8-0.4"/>
<path id="Layer2_5_MEMBER_285_1_STROKES" class="st7" d="M134.4,4.9c0.2,0.2,0.4,0.2,0.6,0.2c0.3,0,0.5-0.1,0.7-0.2"/>
<path id="Layer2_5_MEMBER_286_1_STROKES" class="st7" d="M136.2,4.2l-0.5,0.6"/>
<path id="Layer2_5_MEMBER_287_1_STROKES" class="st7" d="M133.9,4.3l0.4,0.6"/>
<path id="Layer2_5_MEMBER_288_1_STROKES" class="st7" d="M133.8,3.8V4l0.1,0.1c0.2,0.4,0.7,0.5,1.3,0.5c0.7,0,1.1-0.2,1.2-0.6V3.9
	l0-0.1c-0.1-0.4-0.5-0.6-1.2-0.6c-0.7,0-1.1,0.2-1.3,0.5L133.8,3.8z"/>
<path id="Layer2_5_MEMBER_289_1_STROKES" class="st7" d="M135.1,4l0.7,0.3l0.2-0.1"/>
<path id="Layer2_5_MEMBER_290_1_STROKES" class="st7" d="M135.1,4l-0.7,0.3l-0.2-0.1"/>
<path id="Layer2_5_MEMBER_291_1_STROKES" class="st7" d="M134.3,8.6c0,0.3,0.3,0.5,0.8,0.5c0.5,0,0.7-0.1,0.8-0.4"/>
<path id="Layer2_5_MEMBER_292_1_STROKES" class="st7" d="M134.3,9.4c0,0.3,0.3,0.4,0.7,0.5c0.5,0,0.8-0.1,0.8-0.4"/>
<path id="Layer2_5_MEMBER_293_1_STROKES" class="st7" d="M91.8,46.5c0.3,0.2,0.7,0.1,1,0c0.4-0.2,0.4-0.4,0.1-0.7l-0.1-0.1l-0.1-0.1
	l-0.1,0c-0.3-0.1-0.7-0.1-1,0.1c-0.4,0.2-0.4,0.4,0,0.7L91.8,46.5z"/>
<path id="Layer2_5_MEMBER_294_1_STROKES" class="st7" d="M90.9,46c0.2,0.5,0.7,0.7,1.5,0.6c0.8,0,1.2-0.3,1.3-0.8v-0.1
	c-0.1-0.5-0.6-0.7-1.4-0.7c-0.8,0-1.3,0.2-1.4,0.6v0.1l0,0.1L90.9,46z"/>
<path id="Layer2_5_MEMBER_295_1_STROKES" class="st7" d="M87,43.7L87,43.7c0.4,0.2,0.7,0.2,1.1,0c0.4-0.2,0.4-0.4,0.1-0.7L88,43
	L88,43l-0.1,0c-0.3-0.1-0.6-0.1-0.9,0.1l-0.1,0.1l0,0c-0.2,0.2-0.2,0.4,0,0.6L87,43.7z"/>
<path id="Layer2_5_MEMBER_296_1_STROKES" class="st7" d="M86.2,43.2L86.2,43.2c0.2,0.5,0.7,0.7,1.5,0.7c0.8,0,1.2-0.3,1.3-0.7V43
	c-0.1-0.5-0.6-0.7-1.4-0.7c-0.8,0-1.3,0.2-1.4,0.7V43.2z"/>
<path id="Layer2_5_MEMBER_297_1_STROKES" class="st7" d="M94.8,34.5L93.7,35l-1.1,0.7l-0.9,0.8L91,37.5l-0.4,0.9l-0.1,0.4"/>
<path id="Layer2_5_MEMBER_298_1_STROKES" class="st7" d="M130.2,20.6c-0.6-0.4-1.5-0.6-2.5-0.6c-0.8,0-1.5,0.1-2,0.4"/>
<path id="Layer2_5_MEMBER_299_1_STROKES" class="st7" d="M125.2,22.6L96,35.9"/>
<path id="Layer2_5_MEMBER_300_1_STROKES" class="st7" d="M129.2,20.8l-4.3,1.9"/>
<path id="Layer2_5_MEMBER_301_1_STROKES" class="st7" d="M95,36.4l-3.6,2"/>
<path id="Layer2_5_MEMBER_302_1_STROKES" class="st7" d="M95,36.4l1-0.5"/>
<path id="Layer2_5_MEMBER_303_1_STROKES" class="st7" d="M91.6,38.3l-0.7,0.5L90.6,39"/>
<path id="Layer2_5_MEMBER_304_1_STROKES" class="st7" d="M137.9,21.4l0.1-0.1l0.3-0.5l0.2-0.5l0.1-0.4"/>
<path id="Layer2_5_MEMBER_305_1_STROKES" class="st7" d="M129.8,69.2l-18.7,13.4"/>
<path id="Layer2_5_MEMBER_306_1_STROKES" class="st8" d="M90.2,138.5v-6.2"/>
<path id="Layer2_5_MEMBER_307_1_STROKES" class="st8" d="M90.2,130.8v-1.5"/>
<path id="Layer2_5_MEMBER_308_1_STROKES" class="st8" d="M90.2,127.7v-6.2"/>
<path id="Layer2_5_MEMBER_309_1_STROKES" class="st7" d="M104.2,116.5c0.1-0.1,0.1-0.2,0.1-0.3c0-0.2-0.1-0.3-0.4-0.5
	c-0.2-0.2-0.5-0.2-0.8-0.2c-0.3,0-0.6,0.1-0.9,0.2c-0.2,0.1-0.4,0.3-0.4,0.5l0.1,0.2"/>
<path id="Layer2_5_MEMBER_310_1_STROKES" class="st7" d="M126.5,20.7L94.8,35.1"/>
<path id="Layer2_5_MEMBER_311_1_STROKES" class="st7" d="M132.5,23.1l-0.4-0.6"/>
<path id="Layer2_5_MEMBER_312_1_STROKES" class="st7" d="M130.2,21.2l0.7,0.4l1.2,1"/>
<path id="Layer2_5_MEMBER_313_1_STROKES" class="st7" d="M94.8,35.1l-2.2,1.2l-0.9,0.8L91,38l-0.4,1l-0.1,0.4"/>
<path id="Layer2_5_MEMBER_314_1_STROKES" class="st7" d="M130.2,21.2c-0.7-0.4-1.5-0.6-2.5-0.6c-0.7,0-1.4,0.1-2,0.4"/>
<path id="Layer2_5_MEMBER_315_1_STROKES" class="st7" d="M134.5,18.4c-0.4,0.2-0.4,0.4,0,0.7l0.1,0.1c0.3,0.2,0.7,0.1,1,0
	c0.4-0.2,0.4-0.4,0.1-0.7l-0.1,0l-0.1-0.1l-0.1,0l-0.1,0C135.2,18.2,134.8,18.2,134.5,18.4z"/>
<path id="Layer2_5_MEMBER_316_1_STROKES" class="st7" d="M133.7,18.5L133.7,18.5c0.2,0.5,0.7,0.7,1.5,0.7c0.8,0,1.2-0.3,1.3-0.8
	v-0.1c-0.1-0.5-0.6-0.7-1.4-0.7c-0.8,0-1.3,0.2-1.4,0.7V18.5z"/>
<path id="Layer2_5_MEMBER_317_1_STROKES" class="st7" d="M136.6,13.3c-0.1-0.5-0.6-0.8-1.5-0.8c-0.9,0-1.4,0.3-1.6,0.8l0,0.1v0.2
	l0,0.1c0.2,0.5,0.8,0.7,1.7,0.7c0.9,0,1.4-0.3,1.5-0.8V13.3z"/>
<path id="Layer2_5_MEMBER_318_1_STROKES" class="st7" d="M133.5,13.7c0,0.6,0.5,1,1.5,1c1.1,0,1.6-0.3,1.6-1"/>
<path id="Layer2_5_MEMBER_319_1_STROKES" class="st7" d="M134.3,13.5c0.1,0.3,0.4,0.4,0.8,0.4c0.4,0,0.7-0.1,0.7-0.4v-0.1
	c-0.1-0.3-0.3-0.4-0.8-0.4c-0.4,0-0.7,0.1-0.8,0.4V13.5z"/>
<path id="Layer2_5_MEMBER_320_1_STROKES" class="st7" d="M135.7,13.6c-0.2-0.2-0.4-0.2-0.7-0.2c-0.3,0-0.5,0-0.7,0.2"/>
<path id="Layer2_5_MEMBER_321_1_STROKES" class="st7" d="M102.6,58c0.5-0.6,0.4-1-0.4-1.3c-0.8-0.3-1.5-0.3-2,0.1l-0.2,0.1
	c-0.6,0.5-0.6,1,0.2,1.3c0.8,0.4,1.4,0.4,2,0.1l0.1,0L102.6,58z"/>
<path id="Layer2_5_MEMBER_322_1_STROKES" class="st7" d="M101.8,57.9l0.1-0.1l0.1-0.1c0.3-0.3,0.2-0.6-0.3-0.8
	c-0.5-0.2-0.8-0.2-1.2,0l-0.1,0l-0.1,0.1c-0.4,0.3-0.3,0.6,0.1,0.8C100.9,58.1,101.3,58.1,101.8,57.9L101.8,57.9z"/>
<path id="Layer2_5_MEMBER_323_1_STROKES" class="st7" d="M102,57.7c-0.2-0.2-0.5-0.3-0.9-0.3c-0.4,0-0.7,0.1-0.9,0.3"/>
<path id="Layer2_5_MEMBER_324_1_STROKES" class="st7" d="M101.7,57.9c-0.4-0.1-0.7-0.1-1.1,0"/>
<path id="Layer2_5_MEMBER_325_1_STROKES" class="st8" d="M101.1,58.1v-1.3"/>
<path id="Layer2_5_MEMBER_326_1_STROKES" class="st8" d="M101.1,56.4v-0.3"/>
<path id="Layer2_5_MEMBER_327_1_STROKES" class="st8" d="M101.1,55.8v-1.3"/>
<path id="Layer2_5_MEMBER_328_1_STROKES" class="st8" d="M135,13.8v-1.2"/>
<path id="Layer2_5_MEMBER_329_1_STROKES" class="st8" d="M135,12.3V12"/>
<path id="Layer2_5_MEMBER_330_1_STROKES" class="st8" d="M135,11.7v-1.2"/>
<path id="Layer2_5_MEMBER_331_1_STROKES" class="st8" d="M135,19.2v-1.7"/>
<path id="Layer2_5_MEMBER_332_1_STROKES" class="st8" d="M135,17.1v-0.4"/>
<path id="Layer2_5_MEMBER_333_1_STROKES" class="st8" d="M135,16.3v-1.7"/>
<path id="Layer2_5_MEMBER_334_1_STROKES" class="st7" d="M101.8,65.5L101.8,65.5l0.1-0.1c0.3-0.3,0.2-0.6-0.2-0.8
	c-0.5-0.2-0.9-0.2-1.2,0l-0.1,0.1l-0.1,0c-0.4,0.3-0.3,0.6,0.1,0.8c0.4,0.2,0.8,0.2,1.2,0.1L101.8,65.5L101.8,65.5z"/>
<path id="Layer2_5_MEMBER_335_1_STROKES" class="st7" d="M102,65.4c-0.2-0.2-0.5-0.3-0.9-0.3c-0.4,0-0.7,0.1-0.9,0.3"/>
<path id="Layer2_5_MEMBER_336_1_STROKES" class="st7" d="M101.7,65.6c-0.4-0.1-0.7-0.1-1.1,0"/>
<path id="Layer2_5_MEMBER_337_1_STROKES" class="st8" d="M101.1,65.7v-1.9"/>
<path id="Layer2_5_MEMBER_338_1_STROKES" class="st8" d="M101.1,63.3v-0.5"/>
<path id="Layer2_5_MEMBER_339_1_STROKES" class="st8" d="M101.1,62.4v-1.9"/>
<path id="Layer2_5_MEMBER_340_1_STROKES" class="st7" d="M89.8,138.4c0.3,0.2,0.7,0.1,1,0c0.4-0.2,0.4-0.4,0.1-0.7l-0.1-0.1
	l-0.1-0.1l-0.1,0c-0.3-0.1-0.7-0.1-1,0.1c-0.4,0.2-0.4,0.4,0,0.7L89.8,138.4z"/>
<path id="Layer2_5_MEMBER_341_1_STROKES" class="st7" d="M88.8,137.6L88.8,137.6l0.1,0.3c0.2,0.5,0.7,0.7,1.4,0.6
	c0.8,0,1.2-0.3,1.3-0.8v-0.1l0-0.1c-0.1-0.5-0.6-0.7-1.4-0.7C89.5,136.9,89,137.1,88.8,137.6L88.8,137.6z"/>
<path id="Layer2_5_MEMBER_342_1_STROKES" class="st7" d="M134.2,111.2c-0.4,0.3-0.3,0.6,0.1,0.8c0.4,0.2,0.8,0.2,1.2,0.1l0.1,0
	l0.1,0l0.1-0.1l0.1,0c0.2-0.2,0.2-0.5-0.1-0.6l-0.1,0l-0.1-0.1c-0.4-0.2-0.8-0.2-1.2,0l-0.1,0L134.2,111.2L134.2,111.2z"/>
<path id="Layer2_5_MEMBER_343_1_STROKES" class="st7" d="M135.8,111.8c-0.2-0.2-0.5-0.3-0.9-0.3s-0.7,0.1-0.9,0.3"/>
<path id="Layer2_5_MEMBER_344_1_STROKES" class="st7" d="M135.5,112c-0.4-0.2-0.8-0.2-1.1,0"/>
<path id="Layer2_5_MEMBER_345_1_STROKES" class="st8" d="M135,25.8v4.5"/>
<path id="Layer2_5_MEMBER_346_1_STROKES" class="st8" d="M135,31.4v1.1"/>
<path id="Layer2_5_MEMBER_347_1_STROKES" class="st8" d="M135,33.7v9"/>
<path id="Layer2_5_MEMBER_348_1_STROKES" class="st8" d="M135,43.8v1.1"/>
<path id="Layer2_5_MEMBER_349_1_STROKES" class="st8" d="M135,46v9"/>
<path id="Layer2_5_MEMBER_350_1_STROKES" class="st8" d="M135,56.1v1.1"/>
<path id="Layer2_5_MEMBER_351_1_STROKES" class="st8" d="M135,58.3v9"/>
<path id="Layer2_5_MEMBER_352_1_STROKES" class="st8" d="M135,68.4v1.1"/>
<path id="Layer2_5_MEMBER_353_1_STROKES" class="st8" d="M135,70.7v9"/>
<path id="Layer2_5_MEMBER_354_1_STROKES" class="st8" d="M135,80.8v1.1"/>
<path id="Layer2_5_MEMBER_355_1_STROKES" class="st8" d="M135,83v9"/>
<path id="Layer2_5_MEMBER_356_1_STROKES" class="st8" d="M135,93.1v1.1"/>
<path id="Layer2_5_MEMBER_357_1_STROKES" class="st8" d="M135,95.4v9"/>
<path id="Layer2_5_MEMBER_358_1_STROKES" class="st8" d="M135,105.5v1.1"/>
<path id="Layer2_5_MEMBER_359_1_STROKES" class="st8" d="M135,107.7v4.5"/>
<path id="Layer2_5_MEMBER_360_1_STROKES" class="st7" d="M89.5,146.4L89.5,146.4c-0.2-0.2-0.2-0.4,0-0.6l0.1,0l0.1-0.1
	c0.3-0.2,0.6-0.2,1,0l0.1,0l0.1,0.1l0.1,0.1c0.2,0.3,0.1,0.5-0.3,0.7c-0.5,0.1-0.8,0.1-1-0.1L89.5,146.4z"/>
<path id="Layer2_5_MEMBER_361_1_STROKES" class="st8" d="M90.2,146.7v-1.4"/>
<path id="Layer2_5_MEMBER_362_1_STROKES" class="st8" d="M90.2,144.9v-0.4"/>
<path id="Layer2_5_MEMBER_363_1_STROKES" class="st8" d="M90.2,144.2v-1.4"/>
<path class="st9" d="M105.4,122.4c-0.7-0.7-1.5-1-2.5-1c-1,0-1.8,0.3-2.5,1c-0.7,0.7-1,1.5-1,2.5c0,1,0.3,1.8,1,2.5
	c0.7,0.7,1.5,1.1,2.5,1.1c1,0,1.8-0.4,2.5-1.1c0.7-0.7,1.1-1.5,1.1-2.5C106.5,123.9,106.1,123.1,105.4,122.4z"/>
<path id="Layer2_6_1_STROKES" class="st10" d="M103,121.4c1,0,1.8,0.3,2.5,1c0.7,0.7,1.1,1.5,1.1,2.5c0,1-0.4,1.8-1.1,2.5
	c-0.7,0.7-1.5,1.1-2.5,1.1c-1,0-1.8-0.4-2.5-1.1c-0.7-0.7-1-1.5-1-2.5c0-1,0.3-1.8,1-2.5C101.1,121.7,102,121.4,103,121.4z"/>
<path id="Layer2_7_1_STROKES_1_" class="st11" d="M106.3,126H164"/>
<g>
	<text transform="matrix(1 0 0 1 177.5117 48.0905)" class="st0 st12">UPPER - 3340-P2</text>
</g>
<path id="Layer2_8_MEMBER_1_1_STROKES" class="st13" d="M311.7,55.7H170.5V28h141.2V55.7z"/>
<g>
	<text transform="matrix(1 0 0 1 177.5119 83.1905)" class="st0 st12"> LOWER - 3340-P3</text>
</g>
<path id="Layer2_9_MEMBER_1_1_STROKES" class="st13" d="M311.7,90.8H170.5V63.1h141.2V90.8z"/>
<g>
	<polygon class="st14" points="163,40.5 162.9,50.1 156.6,50.1 156.6,40.5 152,40.5 159.8,32.8 167.6,40.5 	"/>
	<polygon class="st9" points="162.5,39.8 162.5,49.5 157.1,49.5 157.1,39.8 153.9,39.7 159.8,33.9 165.6,39.7 	"/>
</g>
<g>
	<polygon class="st14" points="156.6,78.4 156.7,68.8 163,68.8 163,78.4 167.6,78.4 159.8,86.1 152,78.4 	"/>
	<polygon class="st9" points="157.1,79.1 157.1,69.4 162.5,69.4 162.5,79.1 165.7,79.2 159.8,85 154,79.2 	"/>
</g>
</svg>
