<?xml version="1.0" encoding="utf-8"?>
<!-- Generator: Adobe Illustrator 24.1.2, SVG Export Plug-In . SVG Version: 6.00 Build 0)  -->
<svg version="1.1" id="Ebene_1" xmlns="http://www.w3.org/2000/svg" xmlns:xlink="http://www.w3.org/1999/xlink" x="0px" y="0px"
	 viewBox="0 0 349.1 161" style="enable-background:new 0 0 349.1 161;" xml:space="preserve">
<style type="text/css">
	.st0{fill:#0099FF;}
	.st1{fill:#B1B1B1;}
	.st2{fill:#666666;}
	.st3{fill:#FFCC00;}
	.st4{fill:#008F3A;}
	.st5{fill:#009FDE;}
	.st6{fill:#B1B3B4;}
	.st7{fill:#41AADA;}
	.st8{fill:none;stroke:#1A181B;stroke-width:0.25;stroke-miterlimit:4.9999;}
	.st9{fill:none;stroke:#1A181B;stroke-width:0.55;stroke-miterlimit:59.9993;}
	.st10{fill:none;stroke:#1A181B;stroke-width:0.55;stroke-miterlimit:4.9999;}
	.st11{fill:#1A181B;}
	.st12{fill:none;stroke:#FF9900;stroke-linecap:round;stroke-linejoin:round;}
	.st13{font-family:'ArialMT';}
	.st14{font-size:14px;}
</style>
<path class="st0" d="M173,109.4l-3-5.2l11.8-6.8l-5.7-9.9l-11.8,6.8l-3-5.1l-4.3,15.8L173,109.4z"/>
<path class="st0" d="M161.8,11.4l-0.7-5.9l-10.1,13l13.1,10.2l-0.8-6l13.5-1.8l-1.5-11.4L161.8,11.4z"/>
<path class="st1" d="M210.1,144.5c-0.5-1.2-1.2-1.8-2.1-1.8c-0.9-1.2-2.1-1.4-3.7-0.4c-1.3,0.8-2.3,1.9-3,3.2
	c-0.8,1.2-1.2,2.6-1.2,4.1c0,1.9,0.7,2.9,2.2,3c0.4,0.9,1.3,1.3,2.6,1l4.5,2.6c0.8,0.2,1.5-0.3,2.1-1.5c0.6-1.2,0.7-2.1,0.4-2.6
	c0.6,0.5,1.4,0,2.2-1.4c1-1.6,1.1-2.7,0.5-3.6L210.1,144.5 M67.1,62L67.1,62L67.1,62L67.1,62l0.4-0.2l-5.2-3.3
	c-0.9-0.5-2-0.3-3.1,0.4c-1,0.7-1.9,1.7-2.7,3c-0.8,1.3-1.2,2.6-1.2,3.8c-0.1,1.4,0.4,2.4,1.2,3l6.7,3.4l0.5,0v-0.2h0v0h0l0.2-0.1h0
	v-0.1h0c0-0.1,0-0.2,0-0.2c0.3-0.1,0.5,0,0.7,0.4c0,0.1,0.1,0.2,0.1,0.3c0,0,0,0.1,0,0.1c0,0.1,0.1,0.1,0.1,0.2l0.2,0l0.5-0.4
	c0,0,0.1-0.1,0.1-0.1l2.8-3c0.1-0.1,0.2-0.3,0.2-0.4c0-0.1,0.1-0.2,0.1-0.3c0.2-0.4,0.3-0.7,0.5-1.1l0.1-3.8L69.2,63l-0.9-0.2
	c-0.2,0-0.4,0-0.6,0c-0.4,0-0.7-0.1-0.8-0.2c0-0.1,0-0.1,0-0.2c0-0.1,0.1-0.2,0.2-0.3l0,0L67.1,62 M35.1,46
	c-0.6,1.2-0.7,2.1-0.3,2.7c-0.7-0.5-1.5,0-2.4,1.5c-1,1.6-1.2,2.8-0.6,3.7c0.1,0.1,0.2,0.1,0.3,0.2c0,0,0.1,0,0.1,0l4.5,2.7
	c0.3,0.8,1,1.2,2,1.3c0.2,0.3,0.5,0.6,0.8,0.7c0.8,0.5,1.8,0.4,3-0.3c1.1-0.7,2.1-1.7,3-3.1c0.8-1.4,1.2-2.8,1.2-4.1
	c0-1.3-0.4-2.2-1.2-2.7c-0.3-0.2-0.7-0.3-1.1-0.3c-0.6-0.8-1.3-1.2-2.2-1.1l-5.1-3C36.4,44.2,35.7,44.7,35.1,46 M171.4,123.7
	c-1,0.6-1.9,1.6-2.7,3c-0.8,1.4-1.2,2.6-1.2,3.8c-0.1,1.3,0.4,2.3,1.2,2.9l6.4,3.7c-0.3-0.2-0.6-0.5-0.8-0.7l1.7,1v-0.6l0.2-0.1
	c0-0.2,0.1-0.3,0.1-0.4c0,0,0.1,0,0.1,0c0.1,0,0.1,0,0.2,0c0,0,0.1,0,0.1,0.1c0.1,0.1,0.3,0.4,0.4,0.7c0.1,0.1,0.1,0.2,0.3,0.3h0
	l1.1-0.8c0.1-0.1,0.3-0.2,0.4-0.4c0.7-0.6,1.4-1.3,1.9-2.2c0.1-0.1,0.1-0.2,0.1-0.2c0.5-0.9,0.9-1.9,1.1-2.8c0-0.2,0.1-0.4,0.1-0.7
	l0.1-0.7c-0.2,0-0.3-0.1-0.3-0.4c0,0,0-0.1,0-0.1c0-0.1,0.1-0.2,0.3-0.3l0.1-0.1l0-0.5c0-0.1-0.1-0.1-0.2-0.1l-1.8-0.4
	c-0.2,0-0.3,0-0.4,0c0,0-0.1,0-0.1,0c-0.2,0-0.4-0.1-0.5-0.2c-0.1-0.1-0.1-0.2,0-0.3c0-0.1,0-0.1,0-0.1l0-0.4l0.4-0.3l-5.3-3
	C173.6,122.9,172.5,123,171.4,123.7z"/>
<path class="st2" d="M84,102.1c-0.9,1.5-0.9,2.5,0,3.1l0.4,0.2c0.9,0.4,1.8-0.1,2.7-1.5v0c0.9-1.5,0.9-2.5,0-3.1l-0.4-0.2
	C85.7,100.1,84.8,100.6,84,102.1 M84.8,104.1c0.4,0,0.8-0.2,1.2-0.8l0.4,0.2c-0.4,0.8-0.9,1-1.4,0.7
	C84.9,104.2,84.8,104.2,84.8,104.1 M72.5,93l-1-0.6c-0.5-0.2-1-0.1-1.4,0.4c-0.3,0.2-0.5,0.5-0.7,1c-0.3,0.4-0.4,0.8-0.5,1.1
	c-0.1,0.6,0,1,0.4,1.3l1,0.6l0.4,0h0.1c0.1,0,0.1,0,0.2,0c0.1,0,0.2,0,0.2,0c0.1,0,0.3-0.1,0.5-0.2l5.1,3c0.5,0.2,0.9,0,1.3-0.7v0
	c0.4-0.7,0.4-1.2,0-1.5l-5.2-3c0-0.2,0-0.4,0-0.5c0-0.1-0.1-0.2-0.1-0.3C72.8,93.3,72.7,93.2,72.5,93L72.5,93 M99.4,26.1
	c0,0,0,0.1,0,0.1v1.6c0,0.4,0.3,0.7,0.7,0.9v6.1c0.1,0.4,0.4,0.5,1,0.5c0.6,0,0.9-0.2,1-0.5v-6.2c0.5-0.1,0.7-0.4,0.7-0.9v-1.6
	c0-0.1,0-0.2,0-0.3c-0.2-0.6-0.9-0.9-1.9-0.8C99.9,25.2,99.4,25.5,99.4,26.1 M101.6,25.6l0.1,0.4l-0.5,0.2l-0.7,0l-0.2-0.5l0.6-0.3
	L101.6,25.6z"/>
<path class="st3" d="M173.3,39.4l-7.2-4.2c-1.4-0.8-3-0.6-4.7,0.5c-1.6,0.9-2.9,2.4-4.1,4.4c-1.1,2-1.8,3.9-1.9,5.7
	c-0.1,2.1,0.5,3.6,1.8,4.5l7.5,4.3l0,0c0.3,0.2,0.6,0.3,1,0.4c0.9,0.2,1.9,0,3-0.5l0.2,0.2c0.1,0,0.2,0.1,0.2,0.1
	c0.6,0.4,1.3,0.5,2.2,0.3c0.5-0.1,1.1-0.4,1.7-0.7l0.7-0.3c0.9,0.4,1.7,0.8,2.4,1l1.2,0.3l4.6,0.6c0.1,0.3,0.3,0.6,0.6,0.8l1.3,0.7
	l3,0.4c1,0.4,2.2,1,3.6,1.6l1.9-4.4l-2.4-1.4l-1.4-2.5l-2.2-1.3c-0.8-0.3-1.6-0.1-2.3,0.5c-0.2-0.2-0.9-0.5-1.9-1l-1.9-1.2
	c-0.7-0.4-1.3-0.8-1.7-1.1c-0.5-0.5-0.8-1-1.1-1.7c-0.1-1.1-0.6-1.8-1.2-2.2c0,0-0.1,0-0.1,0v0l-0.6-0.3c0-1.3-0.4-2.3-1.2-3
	c-0.1-0.1-0.3-0.3-0.4-0.4h0C173.4,39.5,173.4,39.4,173.3,39.4z"/>
<path class="st4" d="M77,59.5c-0.1-0.3-0.2-0.5-0.2-0.7c-0.1-0.2-0.3-0.4-0.7-0.5c-0.7-0.2-1.4-0.3-1.9-0.3
	c-0.6,0.1-1.1,0.2-1.6,0.3c-0.5,0.2-1,0.5-1.4,1.1c-0.2,0.2-0.4,0.5-0.9,0.8l-0.6,0.4c-0.8,0.5-1.3,0.7-1.5,0.7l-0.5,0.3
	c0,0-0.2,0.2-0.5,0.5c-0.2,0.2-0.3,0.4-0.2,0.5c0.2,0.2,0.6,0.3,1.4,0.2l1.3,0.3c0.2,0.1,0.3,0.2,0.4,0.5c0,0.2,0,0.4-0.1,0.7
	c0,0.5,0.4,0.5,1.2,0.2c0.1,0,0.5,0.1,1.1,0.3c0.6,0.2,1,0.2,1.1,0.2c0,0,0.1-0.3,0.4-0.7c0.2-0.4,0.4-0.5,0.5-0.6h0.6
	c0.2,0.1,0.3,0.2,0.3,0.3c0,0.2-0.2,0.5-0.6,1c-0.4,0.8-0.7,1.4-0.9,1.6l-1.1,1.1c-0.3,0.4-0.5,0.6-0.7,0.6
	c-0.1,0.7,0.1,1.2,0.5,1.5c0.1,0.1,0.2,0.1,0.4,0.2c0.2,0.1,0.3,0.2,0.4,0.3c0.1,0.1,0.1,0.3,0,0.4C73,70.9,72.9,71,72.9,71
	c-0.1,0.3-0.2,0.4-0.2,0.5c-0.1,0.2-0.3,0.3-0.5,0.2c-0.1,0-0.3-0.1-0.5-0.2c-0.2-0.2-0.3-0.2-0.4-0.3c-0.1,0-0.1-0.1-0.2-0.2
	C71.1,71,71,71,70.9,71c-0.1,0-0.2,0.1-0.4,0.3c-0.2,0.2-0.3,0.2-0.4,0.2c0,0.1-0.1,0.2-0.2,0.4c-0.1,0.2-0.2,0.3-0.2,0.4
	c0,0.3-0.1,0.8-0.3,1.4c-0.1,0.5-0.4,1.1-0.9,1.8l-0.8,1.2c-0.1,0.2-0.1,0.2-0.2,0.3c-0.1,0.1-0.2,0.1-0.3,0s-0.4-0.2-0.5-0.4
	c-0.3-0.3-0.4-0.5-0.5-0.6c-0.2-0.2-0.3-0.5-0.3-0.8c0-0.2,0.1-0.4,0.3-0.6c0.1-0.1,0.3-0.3,0.5-0.5c0.1-0.2,0.1-0.3-0.1-0.5
	c-0.3-0.2-0.4-0.4-0.5-0.5l-0.5-0.5c-0.2-0.2-0.4-0.4-0.5-0.6c-0.2-0.6-0.5-0.9-0.8-0.8c-0.1,0.3-0.1,0.6-0.2,1.1
	C64,72.8,64,73.2,64,73.8c0,0.2,0,0.6,0,1.3c0,0.6,0,1,0.1,1.2c0,0.1-0.2,0-0.6-0.2c-0.5-0.3-0.8-0.5-0.9-0.6c-0.2,0-0.2-0.1,0-0.3
	c0.2-0.3,0.3-0.4,0.2-0.6c-0.6,0.2-0.9,0.5-1,1c-0.1,1-0.1,1.6,0,1.9c0.1,0.4,0.2,0.8,0.3,1c0.1,0.2,0.4,0.4,0.8,0.7
	c0.2,0.2,0.5,0.5,0.8,1c0.2,0.1,0.4,0.2,0.6,0.3c0.1,0.1,0.3,0.2,0.7,0.2c0.3,0.1,0.8,0.3,1.4,0.6c0.1,0.1,0.3,0.2,0.6,0.3
	c0.1,0.1,0.2,0.2,0.3,0.3c0.1,0.1,0.3,0.2,0.4,0.2c0.2,0.1,0.5,0.3,1,0.8c0.5,0.4,0.8,0.6,1,0.6c0.8,0.1,1.3,0.2,1.6,0.3
	c1.1,0.3,2.3-0.1,3.6-1.3c1.2-1,2.1-2.2,2.6-3.5c0.5-1.2,0.8-2.1,0.9-2.7c0.1-0.6-0.1-1-0.4-1.3l-1-0.6c0.2-0.4,0.3-0.6,0.3-0.9
	c0.2-0.4,0.4-0.6,0.5-0.6c0.2-0.1,0.4,0.1,0.8,0.3c0.1,0,0.2,0.1,0.4,0.3c0.1,0.1,0.2,0.2,0.3,0.2l1.4-1.4c0.3-0.3,0.6-0.6,0.8-1.1
	c0.2-0.5,0.7-1.1,1.3-1.8c0.9-1.6,1.2-3.3,0.8-5.2c-0.1-0.4-0.3-0.8-0.6-1.1c-0.1-0.1-0.2-0.2-0.5-0.4c-0.2-0.1-0.4-0.3-0.5-0.4
	c-0.1-0.3-0.2-0.4-0.3-0.6c-0.1-0.2-0.3-0.3-0.5-0.4l-0.8,0c-0.3,0-0.6-0.1-0.7-0.3c-0.1,0-0.2-0.1-0.2-0.2
	c-0.1-0.1-0.2-0.2-0.2-0.2l-0.8-0.4c-0.3-0.2-0.6-0.3-1.1-0.4C77.3,59.7,77.1,59.6,77,59.5z"/>
<path class="st4" d="M193.5,126.2l-0.8,0c-0.3,0-0.6-0.1-0.7-0.3c-0.1,0-0.2-0.1-0.2-0.2c-0.1-0.1-0.2-0.2-0.2-0.2
	c-0.3-0.2-0.5-0.3-0.8-0.4c-0.3-0.2-0.6-0.3-1.1-0.4c-0.3-0.1-0.4-0.2-0.5-0.3c-0.1-0.3-0.2-0.5-0.2-0.7c-0.1-0.2-0.3-0.4-0.7-0.5
	c-0.4-0.1-1.1-0.2-1.9-0.1c-0.7-0.1-1.3,0-1.6,0.1c-0.5,0.2-1,0.5-1.3,1.1c-0.2,0.2-0.4,0.5-0.9,0.8l-0.6,0.4
	c-0.8,0.5-1.3,0.7-1.5,0.7l-0.5,0.3c-0.1,0.1-0.2,0.3-0.3,0.5c-0.1,0.2-0.1,0.3,0,0.5c0.1,0.2,0.3,0.2,0.5,0.2c0.1,0,0.3,0,0.6,0
	l1.7,0.3c0.2,0.1,0.4,0.1,0.4,0.3c0,0.1-0.1,0.3-0.3,0.5c-0.2,0.2-0.3,0.3-0.3,0.4c0,0.5,0.4,0.5,1.2,0.2c0.1,0,0.5,0.1,1.1,0.3
	c0.6,0.2,1,0.2,1.1,0.2c0,0,0.1-0.3,0.4-0.7c0.2-0.4,0.4-0.5,0.5-0.6h0.6c0.2,0.1,0.3,0.2,0.3,0.3c0,0-0.2,0.4-0.5,1.1
	c-0.2,0.5-0.6,1-1.1,1.5l-1.1,1.1c-0.3,0.4-0.5,0.6-0.7,0.6c-0.1,0.7,0.1,1.2,0.5,1.5c0.1,0.1,0.2,0.1,0.4,0.2
	c0.2,0.1,0.3,0.2,0.4,0.3c0.1,0.1,0.1,0.3,0,0.4c-0.1,0.1-0.2,0.2-0.3,0.3c-0.1,0.3-0.2,0.4-0.2,0.5c-0.1,0.2-0.3,0.3-0.5,0.2
	c-0.1,0-0.3-0.1-0.5-0.2c-0.2-0.2-0.3-0.2-0.4-0.3c-0.1,0-0.1-0.1-0.2-0.2c-0.1-0.1-0.1-0.1-0.2-0.1c-0.1,0-0.2,0.1-0.4,0.3
	c-0.2,0.2-0.3,0.2-0.4,0.2c0,0.1-0.1,0.2-0.2,0.4c-0.1,0.2-0.2,0.3-0.2,0.4c0,0.3-0.1,0.8-0.3,1.4c-0.1,0.5-0.4,1.1-0.9,1.8
	l-0.8,1.2c-0.1,0.2-0.1,0.2-0.2,0.3c-0.1,0.1-0.2,0.1-0.3,0c-0.2-0.1-0.4-0.2-0.5-0.4c-0.3-0.3-0.4-0.5-0.5-0.6
	c-0.2-0.2-0.3-0.5-0.3-0.8c0-0.2,0.1-0.4,0.3-0.6c0.1-0.1,0.3-0.3,0.5-0.5c0.1-0.2,0.1-0.3-0.1-0.5c-0.3-0.2-0.4-0.4-0.5-0.5
	l-0.5-0.5c-0.2-0.2-0.4-0.4-0.5-0.6c-0.2-0.6-0.5-0.9-0.8-0.8c-0.1,0.3-0.1,0.6-0.2,1.1c-0.1,0.3-0.1,0.7-0.1,1.3c0,0.2,0,0.6,0,1.3
	c0,0.6,0,1,0.1,1.2c0,0.1-0.2,0-0.6-0.2c-0.5-0.3-0.8-0.5-0.9-0.6c-0.2,0-0.2-0.1,0-0.3c0.2-0.3,0.3-0.4,0.2-0.6
	c-0.6,0.2-0.9,0.5-1,1c-0.1,1-0.1,1.6,0,1.9c0,0.3,0.2,0.6,0.6,0.9c0.1,0.2,0.3,0.4,0.5,0.8c0.2,0.2,0.5,0.4,1,0.7
	c0.1,0.1,0.3,0.3,0.5,0.6c0.1,0.1,0.3,0.2,0.7,0.2c0.3,0,0.7,0.2,1.4,0.6l0.6,0.3l0.3,0.3c0.1,0.1,0.3,0.2,0.4,0.3
	c0.2,0.1,0.5,0.3,1,0.8c0.5,0.4,0.8,0.6,1,0.6c0.8,0.1,1.3,0.2,1.6,0.3c1.1,0.3,2.3-0.1,3.6-1.3c1.2-1,2.1-2.2,2.6-3.5
	c0.5-1.2,0.8-2.1,0.9-2.7c0.1-0.6-0.1-1-0.4-1.3l-1-0.6c0.2-0.4,0.3-0.6,0.3-0.9c0.2-0.4,0.4-0.6,0.5-0.6c0.2-0.1,0.5,0,0.9,0.3
	c0.3,0.2,0.5,0.3,0.7,0.3c0.2-0.2,0.4-0.4,0.7-0.6l0.7-0.5c0.3-0.3,0.6-0.6,0.8-1.1c0.2-0.5,0.7-1.1,1.3-1.8
	c0.9-1.6,1.2-3.3,0.8-5.2c-0.1-0.4-0.3-0.8-0.6-1.1c-0.4-0.3-0.6-0.6-0.8-0.8C194.2,126.6,193.8,126.3,193.5,126.2z"/>
<path class="st5" d="M127.3,3.6c-1-1-1.9-1.5-2.8-1.3c-0.7,0.1-1.5,0.5-2.4,1.1c-0.6,0.4-1.4,0.9-2.3,1.4c-1.5,0.8-2.3,1.3-2.3,1.3
	c-2,1.2-3.4,2.1-4.2,2.6c-1.4,0.7-2.4,1.3-3,1.7l-0.6,0.5l-0.8,0.4l-0.5,0.7c-0.2,0.3-0.3,0.6-0.3,1.1l0.1,12.2c0,0.2,0,0.7,0.1,1.6
	c0,0.6,0,1.2,0,1.6c0,0.1,0,0.4,0,1c0,0.4,0,0.7-0.1,0.9c-0.1,0.2-0.4,0.5-1,0.7c-0.6,0.2-0.9,0.4-0.9,0.6c-0.1,0.3-0.1,1.8-0.2,4.5
	c0,1.8,0,4.8,0.1,9l0,7.2l-3.6,1.9c-0.4,0.3-0.7,0.5-0.7,0.8c-0.1,0.8-0.2,1.2-0.2,1.2c-0.1,0.4,0,0.9,0.3,1.4
	c0.3,0.5,0.7,0.8,1.1,1c0.6,0.2,1,0.2,1.3,0.3c0.3,0,0.7,0,1.3,0c0.3,0,0.7-0.2,1.3-0.5c0.7-0.4,1.1-0.5,1.2-0.6
	c0.4-0.1,0.9,0.1,1.3,0.5l3,1.6c0.3,0.2,0.6,0.4,1,0.7c0.1,0.1,0.3,0.2,0.7,0.3c0.4,0.2,0.6,0.3,0.6,0.4c-0.1,0.1-0.2,0.2-0.3,0.3
	c-0.2,0.3-0.3,0.6-0.3,0.8c0,0.2,0,0.6,0,1.2c0,0.6,0.1,0.9,0.3,1.1c0.1,0.1,0.4,0.3,0.9,0.6c0.5,0.3,0.8,0.5,1,0.5
	c0.2,0,0.8,0,1.9,0c0.2,0.4,0.3,0.8,0.3,1.3c0.1,0.4,0.5,0.7,1,0.9c1,0.3,1.9,0.3,2.9,0c0.4-0.2,0.7-0.4,0.9-0.8
	c0.2-0.4,0.4-0.7,0.4-0.7l0.6,0.4c0.5,0.2,0.8,0.3,1,0.2c0.2-0.1,1-0.4,2.2-1.1l13.8-7.9l1.6-1.1l0.6-0.1c0.1,0,0.7,0,1.7,0.1
	c0.5,0,1.1,0,1.8,0l2.3,0c0.7-0.1,1.4-0.3,2.3-0.8c0.2-0.2,0.4-0.5,0.4-1.1c-0.1-0.7-0.1-1.1-0.1-1.3c0-0.8-0.5-1.2-1.4-1.4
	c-0.4-0.1-1.1-0.2-1.9-0.2c-0.9,0.1-1.5,0.1-1.9,0c-1.4-0.1-2.4,0-3,0.1l-0.2-4.3l0.2-6l0.8,0.5c0.6,0.2,1.2,0.2,1.9,0.1
	c1.2-0.2,2.4-0.9,3.5-2.1c0.5-0.4,1-0.8,1.3-1.1c0.3-0.3,0.7-0.9,1.2-1.8c0.3-0.4,0.5-0.9,0.8-1.4c0.2-0.4,0.4-1,0.5-1.7
	c0.2-0.9,0.3-2,0.4-3.3c0-0.5-0.1-1-0.4-1.5c-0.4-0.6-0.7-1.1-0.8-1.4c-0.1-0.1-0.8-0.5-2.1-1.2c-1.7-0.8-2.8-1.5-3.5-1.9
	c-0.4-0.2-0.6-0.4-0.8-0.5c-0.3-0.2-0.6-0.4-0.7-0.6c-0.1-0.1-0.2-0.5-0.5-1.1c-0.1-0.3-0.4-0.6-0.8-1c-0.4-0.4-0.8-0.6-1.1-0.8
	c-0.4-0.2-0.6-0.3-0.6-0.3c-0.1,0-0.1-0.3-0.2-0.7c-0.1-0.3-0.1-0.5-0.2-0.6c-0.1-0.2,0-0.4,0.1-0.5c0.3-0.2,0.6-0.5,0.9-1
	c0.2-0.4,0.4-0.8,0.5-1.2c0.1-0.4,0-0.6-0.3-0.8c-0.4-0.2-0.7-0.4-0.8-0.6c-0.1-0.2-0.2-0.5-0.2-1c0-0.5-0.1-0.8-0.2-1
	c-0.1-0.1-0.2-0.1-0.3-0.2c-0.1,0-0.2-0.1-0.3-0.2c-0.1-0.1-0.1-0.3-0.1-0.4c0-0.2,0-0.4,0-0.5c-0.1-0.3-0.4-0.6-1.1-1L127.3,3.6z"
	/>
<path class="st6" d="M104.7,92.2c-0.1-0.1-0.4-0.2-0.7-0.2c-0.4,0-0.7-0.1-0.8-0.1c-0.2-0.1-0.9-0.3-2-0.8l-2.7-0.9
	c-0.4-0.2-1-0.2-1.8-0.2c-0.6,0-0.9,0-1,0c-0.2,0.2-0.4,0.2-0.5,0.3v0c0,0.2,0,0.5,0,0.9c0,0.4-0.1,0.7-0.2,0.9
	c-0.1,0.3-0.3,0.6-0.5,0.9c-0.3,0.4-0.4,0.7-0.6,0.9c0,0-0.3,0.1-0.9,0.4c-0.2,0.2-0.4,0.5-0.5,1.1c-0.1,0.9-0.1,1.8,0.1,2.7
	c0.1,0.4,0.1,1.1,0,1.9c0,0.2-0.1,0.4-0.2,0.6c-0.1,0.2-0.1,0.4-0.3,0.6c0,0.1-0.1,0.4-0.2,0.9c-0.1,0.6-0.5,1.4-1,2.4l-0.6,1.7
	c-0.4,0.7-0.4,1.4,0,2.1c0.2,0.4,0.5,0.9,0.8,1.5c0.4,0.7,0.6,1.1,0.6,1.4v0.9c0,0.2-0.1,0.7-0.2,1.4l-0.2,1.1l-0.3,0.7l-0.2,0.9
	c0,0.2,0,0.4-0.1,0.6c0,0.2,0,0.4,0.1,0.5c0.4,0.6,0.6,1,0.8,1.1c0.1,0.1,0.3,0.2,0.6,0.2c0.3,0.1,0.5,0.2,0.6,0.2
	c0.4,0.5,0.8,0.9,1.1,1.1c0.8,0.6,1.3,1,1.3,1c0.5,0.3,1,0.4,1.4,0.4c0.5,0,0.7-0.7,0.5-1.9c0.3-1.1,1.8-1.4,4.6-0.7
	c0.6,0.1,0.9,0,1-0.4c0.1-0.4,0.1-0.8,0.1-1.3c0-0.3,0-0.6,0.1-0.8c0.1-0.3,0.5-0.6,1.1-1c0.5-0.3,0.8-0.6,0.8-1
	c0.1-0.6,0.1-1,0.1-1.3c-0.1-0.6-0.2-1.1-0.2-1.4c-0.1-1.3,0-2.3,0-2.7c0.3-1.8,0.4-3.2,0.4-4.1c-0.1-2.7-0.1-4.8-0.2-6.2v-3.3
	c0.1-0.7,0.1-1.2,0-1.5C105.3,92.9,105.1,92.4,104.7,92.2z"/>
<path class="st7" d="M137.6,78.3l-0.7-1.2l-1-0.4l-1.5-0.2l-1.1,0.3l-1,0.8l-0.1,2.7l-6.9-4l-0.1-5.5l-0.6-0.7l-1-0.5l-1.3-0.2
	l-1.1,0.2l-0.8,0.3l-0.5,1.1l-0.1,4.5l-12,6.9l0-1.1l-0.3-1.1l-1.1-0.7l-1.1-0.2l-2.3,0.6l-0.6,0.8l0,1.1l-4-2.3l-0.5-1.1L97,78.1
	L96,78l-0.2-0.5l-1.1-0.5l-1.3,0.1l-1.7,1l-1.6,1.7L89,81.6l-0.5,1.6l-0.1,1.4l0.1,1.6l0.7,1.2l1.3,0.4l0.7,0.8l2,0.3l3.4,2l1.6,0.6
	l1.3-0.2l4.3,2.3l-1.6,5.5l0,3.1l0.4,3.3l1.3,2.2l-3.2,5.7l-0.1,1.8l0.5,1.1l5.5,3.2l1.4-0.2l1.6-1.1l2.7-4.7l2.1,0.3l2-0.2l8.7,5
	l1.8,0.5l2.7-0.3l1.8-0.8l4.8,2.7l0.9,1.5l1.1,0.9l1.1,0.3l1.6,1.2l1.6,0.4l1.9-0.3l1.8-0.6l1.9-1.1l1.1-1.1l1.8,0.9l0.6,0.6
	l1.1,0.4l1.4-0.2l1.8-1.2l1-1l1-1.4l0.9-2l0.4-1.9l-0.2-1.6l-0.8-1.3l-1.2-0.2l-1.8-1.3l0.3-1.4l0.1-1.9l-0.3-2.4l-0.9-1.9l-1.1-1
	l-1.4-0.6l-1-0.9l-1.4-0.5l-1.8-0.1l-4.7-2.9l-0.2-1.5l-0.9-2.2l-1.4-1.6l-7.4-4.3l4.7-3L137.6,78.3z"/>
<path id="Layer0_5_MEMBER_4_MEMBER_0_MEMBER_5_MEMBER_0_MEMBER_0_1_STROKES" class="st8" d="M70.6,70l-13.4-5.5"/>
<path id="Layer0_5_MEMBER_4_MEMBER_0_MEMBER_5_MEMBER_1_1_STROKES" class="st9" d="M125.3,22.8L125.3,22.8c0.1-0.2,0.2-0.4,0.3-0.7
	l0,0v0l0,0l0,0l0,0l0.1-0.2l0.3-0.3l14.7-8.5c0.2-0.1,0.4-0.1,0.6,0l0.9,0.5h0v0l0,0 M142.4,13.5L142.4,13.5c0,0,0.1,0.1,0.1,0.1
	l0.1,0.1l0,0.3v0.8 M142.4,13.5L142.4,13.5l-0.2,0c-0.1,0-0.2,0-0.3,0.1L127.2,22c-0.2,0.1-0.4,0.3-0.6,0.6
	c-0.2,0.3-0.2,0.5-0.2,0.8v17l0.1,0.3c0,0.1,0.1,0.1,0.2,0.2h0v0h0.2l0.3-0.1l0.6-0.3 M108.2,31.5L108.2,31.5v-1.1l-2,1.1l4.2,2.5
	l1-0.6L108.2,31.5 M106.2,31.4L106.2,31.4l0,22.9l19,10.9l18.5-10.7V42.4 M110.4,33.9v3.9l10.6,6.1v-1.1l-9.6-5.5v-3.9 M128.5,26.9
	c-0.6,1.6-0.9,3.1-0.8,4.7c0.1,1.9,0.7,3.3,1.9,4l4.5,2.6c-0.8-0.5-1.3-1.2-1.6-2.3c-0.4-1.4-0.4-2.9,0-4.6c0.3-1.5,0.9-2.9,1.7-4.3
	c0.8-1.4,1.8-2.6,2.9-3.7c1.3-1.2,2.7-2,4-2.3c1.1-0.2,2-0.2,2.8,0.3l-1.2-0.7l-3.2-1.9c-1.3-0.7-2.8-0.6-4.6,0.3
	c-1.5,0.8-2.8,1.9-3.9,3.4 M126.6,40.9l-1-0.6l-0.1-0.1h0v0l0,0v0c0,0,0-0.1,0-0.1l-0.1-0.2v1.5l-3.2-1.9l-1,0.6l4.2,2.4l1.7-1
	 M121,40v2.7 M143.9,21.3L143.9,21.3C143.9,21.3,144,21.3,143.9,21.3c0.2,0.1,0.2,0.2,0.3,0.2c0.8,0.6,1.4,1.5,1.6,2.7l0.9,0.5
	l5.6,3.2l0.1,0c0,0,0,0,0.1,0c1.1,0.7,1.7,1.9,1.7,3.8c0,1.9-0.6,3.8-1.7,5.8c-1.1,2-2.5,3.4-4.1,4.4c-1.6,0.9-3,1-4.2,0.4l-0.1,0
	l-5.7-3.3l-0.8-0.5c-1.2,0.4-2.2,0.3-3.1-0.1c-0.1,0-0.2-0.1-0.2-0.1c0,0,0,0,0,0l0,0 M132.6,37.7l-0.7,0.4 M125.3,22.8v17
	 M108.2,30.3V12.5 M109.1,12.2l15.3,8.8 M143.6,15.8c-0.1,0-0.1-0.1-0.2-0.1c-0.7-0.2-1.3,0.3-1.9,1.4c-0.5,1-0.4,1.6,0.1,1.9
	c0,0,0,0,0.1,0c0.1,0,0.1,0.1,0.2,0.1c0.7,0.2,1.4-0.3,1.9-1.4C144.1,16.8,144.1,16.1,143.6,15.8z M143.6,15.8l-1.7-1
	c-0.7-0.3-1.3,0-1.9,1.1c-0.6,1.1-0.6,1.8,0,2.2l1.6,0.9 M142.9,16.9l-0.5,0.6l0,0.7l0.5,0.1l0.5-0.6l0-0.7L142.9,16.9z M141.7,12.7
	v-0.4 M142.4,13.5L142.4,13.5L142.4,13.5 M142.7,19.7v0.9 M145.8,24.1l-1.9-1.1c-0.1,0-0.1-0.1-0.2-0.1c-1.3-0.8-2.9-0.5-4.7,0.8
	c-1.6,1.1-2.8,2.4-3.6,4c-0.9,1.5-1.5,3.2-1.7,5c-0.2,2.2,0.4,3.8,1.8,4.6l2,1.2 M138.3,38.9c-0.7-0.5-1.1-1.2-1.3-2.1
	c0-0.1,0-0.2-0.1-0.2c-0.9-2-0.5-4.4,1-7.3c1.7-2.9,3.6-4.6,5.8-4.8c1-0.3,2-0.3,2.9,0.1 M136.9,36.7c-0.1-0.6-0.2-1.2-0.1-1.9
	c0.1-1.7,0.7-3.5,1.8-5.3c1.1-1.8,2.3-3.2,3.7-4.1c0.5-0.3,1-0.6,1.5-0.7 M152.3,27.9c-1.1-0.6-2.4-0.4-4,0.5
	c-1.6,0.9-3,2.4-4.2,4.3c-1.1,2-1.7,3.9-1.7,5.8c0,1.8,0.6,3.1,1.7,3.7 M140.7,12.4l-14.6,8.5 M125.4,2.4l15.9,9.2 M124.1,2.4
	L109,11.1 M128.9,116.6c-1.7-1.2-2.5-3.1-2.4-5.7c0.1-2.4,0.9-4.8,2.4-7.4c1.5-2.6,3.2-4.5,5.2-5.8c2.2-1.4,4.2-1.7,6.1-0.8
	 M113.8,112.2c-2.3-1.4-3.3-4.1-3.1-7.9c0.2-3.1,1.1-6,2.7-8.7 M151.7,102.6c-2-2-4.5-2-7.6,0c-2.6,1.7-4.5,3.8-5.8,6.3
	c-1.6,2.4-2.4,5.1-2.6,8.1c-0.2,3.7,1.1,5.8,3.8,6.6c-1.3-1.6-1.8-3.8-1.3-6.7c0.4-2.4,1.2-4.6,2.4-6.7c1.1-2,2.6-3.7,4.3-5.1
	c2.1-1.8,4.1-2.6,6.1-2.6C151.1,102.6,151.4,102.6,151.7,102.6z M151.7,102.6c1.7,0.3,2.8,1.5,3.4,3.3c0.6,1.8,0.6,3.8,0,5.9
	 M148.8,119.9c0,0.9,0.2,1.6,0.5,2c0.4,0.5,0.9,0.8,1.7,0.9c-0.3-0.5-0.4-1.1-0.4-1.9c0-1.3,0.4-2.7,1.2-4.1
	c0.8-1.4,1.8-2.5,2.9-3.1c0.7-0.4,1.3-0.6,1.9-0.6c-0.9-1.3-2.1-1.4-3.7-0.5c-1.3,0.8-2.4,1.8-3,3.2
	C149.2,116.9,148.8,118.3,148.8,119.9z M143.8,118.4c-1.6-1.3-1.5-3.4,0.3-6.3c1.7-2.9,3.5-3.9,5.4-3.1 M138.1,121.4
	c-1.7-3-1.3-6.8,1.2-11.4c2.5-4.6,5.5-7,9-7.4 M151.1,122.8c0.2,0.3,0.5,0.6,0.8,0.8c0.8,0.5,1.8,0.4,2.9-0.3c1.2-0.7,2.2-1.7,3-3.1
	c0.8-1.4,1.2-2.8,1.2-4.1c0-1.3-0.4-2.2-1.2-2.7c-0.3-0.2-0.7-0.3-1.1-0.3 M150.6,122.3c-1.3-1.4-1.1-3.4,0.4-6s3.2-3.8,5-3.4
	 M119.4,96.4l17.9-10.3 M149.3,122c-1.6,1.5-3.2,2.5-4.9,2.9c-2.1,0.6-3.7,0.1-5-1.3 M99.7,91.3c-1.3,0.5-2.2,0.4-2.8-0.5
	c-0.5-0.8-0.6-1.8-0.3-3.1c0.3-1.3,0.9-2.5,1.8-3.6c1.1-1.3,2.2-1.9,3.4-1.9 M96.2,78c0.9,0,1.6,0.5,2.1,1.7 M96.2,78
	c-0.5,0-1.1,0.2-1.8,0.6c-1.6,0.9-2.8,2.1-3.4,3.7c-0.8,1.3-1.1,2.8-0.9,4.3c0.1,0.5,0.2,0.8,0.3,1.1c0.5,0.9,1.4,1.3,2.7,1
	 M90.5,87.8c-1.5-0.2-2.2-1.2-2.2-3c0-1.5,0.4-2.9,1.2-4.1c0.6-1.3,1.6-2.3,2.9-3.1c1.6-0.9,2.8-0.8,3.7,0.4 M102.2,85.4l-1.9,1.1
	l1.8,1.1c0-0.1,0-0.3,0.1-0.4 M98.6,90.8c-0.7-0.2-1-0.8-1.1-1.7c-0.1-0.7,0.1-1.4,0.3-2.2c0.3-0.9,0.8-1.7,1.5-2.4
	c0.8-0.9,1.6-1.3,2.4-1.3 M102.2,87.6c0,0.6,0.3,1.1,0.9,1.5 M142.4,13.5L142.4,13.5 M142.4,13.5L142.4,13.5"/>
<path id="Layer0_5_MEMBER_4_MEMBER_0_MEMBER_5_MEMBER_2_1_STROKES" class="st8" d="M143.8,16.5c-0.3-0.6-0.8-0.5-1.4,0.2
	c-0.6,0.7-0.8,1.3-0.6,1.9c0.3,0.6,0.8,0.5,1.4-0.2C143.8,17.7,144,17.1,143.8,16.5z"/>
<path id="Layer0_5_MEMBER_4_MEMBER_0_MEMBER_5_MEMBER_3_1_STROKES" class="st9" d="M129.8,24.8l0,0.7l0.5,0.1l0.5-0.6l0-0.7
	l-0.5-0.1L129.8,24.8z M129.1,26.3c0.1,0,0.1,0.1,0.2,0.1c0.7,0.2,1.3-0.3,1.9-1.4c0.5-1,0.4-1.6-0.1-1.9c-0.1,0-0.1-0.1-0.2-0.1
	c-0.7-0.2-1.4,0.3-1.9,1.4C128.5,25.4,128.5,26,129.1,26.3l-1.7-1c-0.6-0.4-0.6-1.1,0-2.2c0.6-1,1.3-1.4,1.9-1.1l1.7,1 M129,26.3
	L129,26.3"/>
<path id="Layer0_5_MEMBER_4_MEMBER_0_MEMBER_5_MEMBER_4_1_STROKES" class="st8" d="M131.2,23.7c-0.3-0.6-0.8-0.5-1.4,0.2
	c-0.6,0.7-0.8,1.3-0.5,1.9c0.3,0.6,0.8,0.5,1.4-0.2C131.3,24.9,131.4,24.3,131.2,23.7z"/>
<path id="Layer0_5_MEMBER_4_MEMBER_0_MEMBER_5_MEMBER_5_1_STROKES" class="st9" d="M129.1,40.8c0.1,0,0.1,0.1,0.2,0.1
	c0.7,0.2,1.3-0.3,1.9-1.4c0.5-1,0.4-1.7-0.1-2c-0.1,0-0.1-0.1-0.2-0.1c-0.7-0.1-1.4,0.4-1.9,1.4C128.5,39.8,128.5,40.5,129.1,40.8
	 M129.8,39.2l0,0.7l0.5,0.1l0.5-0.6l0-0.7l-0.5-0.1L129.8,39.2z M130.8,37.4l-1.5-0.9c-0.7-0.3-1.3,0-1.9,1.1c-0.6,1-0.6,1.8,0,2.2
	l1.7,1l0,0"/>
<path id="Layer0_5_MEMBER_4_MEMBER_0_MEMBER_5_MEMBER_6_1_STROKES" class="st8" d="M131.2,38.2c-0.3-0.6-0.8-0.5-1.4,0.2
	c-0.6,0.7-0.8,1.3-0.5,1.9c0.3,0.6,0.8,0.5,1.4-0.2C131.3,39.4,131.4,38.7,131.2,38.2z"/>
<path id="Layer0_5_MEMBER_4_MEMBER_0_MEMBER_5_MEMBER_7_1_STROKES" class="st10" d="M125.2,2.4l-0.2,0l-0.4,0
	c-0.3,0-0.5,0.1-0.6,0.2 M109,11.1c-0.2,0.2-0.4,0.4-0.6,0.6v0h0v0.1h0v0.1h0l-0.1,0.2l0,0.4 M141.7,12.2L141.7,12.2l0-0.2h0V12h0
	v-0.1h0v0l0,0v0h0v0h0v0h0v0h0v0 M140.2,40c-1.1-0.9-1.7-2.3-1.5-4.2c0.1-1.7,0.7-3.5,1.8-5.3c1.1-1.8,2.3-3.2,3.7-4.1
	c1.6-1,3-1.2,4.4-0.6 M139.3,39.5c-1.1-0.9-1.7-2.3-1.5-4.2c0.1-1.7,0.7-3.5,1.8-5.3c1.1-1.8,2.3-3.2,3.7-4.1c1.6-1,3-1.2,4.4-0.6
	 M141.2,40.6c-1.1-0.9-1.7-2.3-1.5-4.2c0.1-1.7,0.7-3.5,1.8-5.3c1.1-1.8,2.3-3.2,3.7-4.1c1.6-1,3-1.2,4.4-0.6 M143.4,36.8
	c-0.3,1.9,0,3.3,1,4.2c1.1,0.8,2.4,0.7,3.9-0.2c1.2-0.8,2.3-1.8,3.1-3.1c0.9-1.3,1.4-2.7,1.7-4.3c0.3-1.9,0-3.3-1-4.2
	c-1.1-0.8-2.4-0.7-4,0.2c-1.3,0.8-2.3,1.8-3,3.1C144.2,33.8,143.7,35.2,143.4,36.8z M143.1,41.6c-1.1-0.9-1.7-2.3-1.5-4.2
	c0.1-1.7,0.7-3.5,1.8-5.3c1.1-1.8,2.3-3.2,3.7-4.1c1.6-1,3-1.2,4.4-0.6 M142.1,41.1c-1.1-0.9-1.7-2.3-1.5-4.2
	c0.1-1.7,0.7-3.5,1.8-5.3c1.1-1.9,2.3-3.2,3.8-4.1c1.6-1,3-1.2,4.4-0.6 M100.4,86.6v3.8c0,0.9,0.3,1.5,0.8,1.8l2.5,1.4l2.4,1.4
	c-0.5-0.3-0.7-0.9-0.8-1.8l0-2.8l-2.3-1.4 M103.7,93.6c-1,2.3-1.6,4.6-1.7,7.1c-0.2,2.9,0.4,5.2,1.7,6.9l4.9,2.9
	c-1.3-1.7-1.8-3.9-1.6-6.9c0.1-2.4,0.7-4.8,1.6-7.1l-2.5-1.4c0,0,0,0-0.1,0 M105.4,90.4l10.1,6l0.2,0.1l0.5,0.2l0.3,0l0.3,0.1h0.6
	c0.8,0,1.5-0.2,2.1-0.5 M104.1,88.2l10.9,6.5 M125.2,118.7l-8.9-5.1c-1.4,0.3-2.8,0.2-4.1-0.2l-2.1,3.6c-1.4,2.3-2.7,3.1-4,2.3
	l-4.9-2.9c-0.7-0.4-0.9-1.2-0.8-2.2c0.1-0.9,0.3-1.7,0.8-2.4l2.5-4.3 M107.1,116.5c0.1,0.8,0.5,1,1.1,0.5c0.7-0.5,1-1.1,0.9-1.7
	c-0.1-0.8-0.4-1-1.1-0.5C107.4,115.2,107.1,115.8,107.1,116.5z M106.2,119.4c-1.2-0.8-1.2-2.3,0-4.6l2.5-4.3 M113.8,112.2l2.5,1.4
	 M155.3,114.5c0.8-0.5,1.5-0.6,2-0.3c0.5,0.3,0.7,0.9,0.7,1.9c0,1.2-0.4,2.4-1.1,3.7c-0.7,1.3-1.6,2.2-2.6,2.8
	c-0.9,0.5-1.5,0.5-2,0.3c-0.5-0.3-0.7-0.9-0.8-1.9c0-1.2,0.4-2.4,1.1-3.7C153.4,116,154.3,115.1,155.3,114.5z M147.7,101.2l-7.5-4.3
	 M154.6,112l-5.1-2.9 M144,118.6l5.1,3 M139.4,92.4l-6.3-3.6 M119.8,94.8l16.2-9.4 M136.3,120.9l-7.4-4.3 M125.2,65.2V42.4
	 M97.5,91.3l-5.6-3.2c-1.6-1.1-1.6-3.1,0-5.9c1.6-2.8,3.3-3.8,5.1-3l5,2.9 M89.8,86.6c-0.7-1.4-0.5-3.1,0.6-5.1c1.1-2,2.5-3.1,4-3.3
	 M98.5,90.8l1.8,1 M96.2,91.2c0,0.5,0,1,0,1.6c-0.1,0.5-0.4,1-1,1.4c-1.1,0.7-1.6,1.6-1.5,2.6c0.1,0.6,0.2,1.6,0.3,3.1
	c-0.1,0.8-0.3,1.8-0.7,3.1c-0.4,1.3-0.8,2.2-1.1,2.9c-0.7,1.2-0.8,2.3-0.2,3.5c0.9,1.8,1.3,2.9,1.3,3.4l-0.1,1.1l-0.8,2.1l-0.3,1
	l0.2,1l0.6,1.1l1,1l0.8,0.6l0.4,0.3l1.1,0.5l0.7,0.1l0.3-0.3l0.1-0.5l0.2-1.4l0.4-0.5l0.8-0.2l3.5,0.3l0.5,0l0.2-0.2l0.1-0.2v-0.2
	 M94.7,120.5l-0.8-0.4l-1.1-0.8l-1-1l-0.6-1.1l-0.2-1l0.3-1l0.8-2.1l0.2-1.1c-0.1-0.5-0.5-1.6-1.4-3.4c-0.6-1.2-0.5-2.4,0.2-3.5
	c0.4-0.7,0.8-1.7,1.1-2.9c0.4-1.2,0.6-2.2,0.7-3c-0.2-1.5-0.3-2.5-0.3-3.1c-0.1-1,0.4-1.8,1.5-2.6c0.6-0.4,0.9-0.9,1-1.4
	c0-0.6,0-1.2,0-1.6 M96.6,108.2c-0.7,0.5-1,1-1,1.7c0.1,0.8,0.5,1,1.1,0.5c0.7-0.5,1-1,0.9-1.7C97.7,107.9,97.3,107.7,96.6,108.2z"
	/>
<path id="Layer0_5_MEMBER_4_MEMBER_0_MEMBER_5_MEMBER_8_1_STROKES" class="st8" d="M83.4,101.6l-5.5-3.2 M90.1,105.4l-4.7-2.7
	 M100.8,111.6l-4-2.3"/>
<path id="Layer0_5_MEMBER_4_MEMBER_0_MEMBER_5_MEMBER_9_1_STROKES" class="st9" d="M69.4,93.6C69.2,94,69,94.4,69,94.7l0.9,0.5
	c0.2-0.2,0.4-0.4,0.6-0.6c0.1-0.1,0.1-0.3,0.2-0.4c0.1-0.1,0.1-0.3,0.2-0.4c0.1-0.2,0.1-0.5,0.2-0.8l-0.9-0.5
	C69.9,92.8,69.7,93.2,69.4,93.6z M71.9,93.1c0,0,0.1,0,0.1,0 M71.9,93.1c0.1,0,0.2,0,0.3-0.1c-0.1,0-0.1,0-0.2,0 M72.2,93
	c0.1,0,0.2-0.1,0.3-0.1l0,0l-1-0.6c-0.5-0.2-1-0.1-1.4,0.3 M71,93.1c0.3,0,0.6,0,0.9,0c-0.4,0.2-0.8,0.4-1,0.8
	c-0.1,0.3-0.2,0.5-0.4,0.8c-0.2,0.5-0.2,0.9-0.1,1.4c0,0,0,0.1,0,0.1v0c0.1,0.4,0.4,0.6,0.8,0.6c0.1,0,0.1,0,0.2-0.1
	c0.2,0,0.3-0.1,0.5-0.2L71.2,96c-0.4-0.3-0.4-0.8,0.1-1.5c0.4-0.7,0.9-0.9,1.3-0.7l0.5,0.3c0-0.2,0-0.4,0-0.5c0-0.1-0.1-0.2-0.1-0.3
	c-0.1-0.3-0.4-0.4-0.7-0.3 M69.9,95.2c0.2,0.3,0.4,0.5,0.4,0.8 M69,94.7c-0.1,0.6,0,1,0.4,1.4l1,0.6c0-0.2,0-0.3-0.1-0.5 M70.4,96.6
	l0.3,0.1H71l0,0 M73.1,94.1l1.9,1.1l0.9,0.5l0.8,0.5l0.9,0.5l0.6,0.4c0.4,0.3,0.4,0.8,0,1.5c-0.4,0.7-0.8,1-1.3,0.8 M76.9,99.4
	L76.3,99l-0.9-0.5L74.6,98l-0.9-0.5l-1.9-1.1 M78.2,97.1c-0.5-0.2-0.9,0.1-1.3,0.8c-0.4,0.7-0.4,1.2,0,1.5 M75.9,95.8
	c-0.5-0.2-0.9,0-1.3,0.7s-0.4,1.2,0,1.5 M75.4,98.5c-0.4-0.3-0.3-0.8,0.1-1.5c0.4-0.7,0.8-0.9,1.2-0.7 M73.7,97.5
	c-0.4-0.3-0.3-0.8,0.1-1.5c0.4-0.7,0.8-0.9,1.2-0.7 M76.3,99c-0.4-0.3-0.4-0.8,0-1.5c0.4-0.7,0.8-0.9,1.2-0.7 M86.2,101.6
	c0.1,0,0.1,0,0.2,0.1c0.4,0.3,0.4,0.8,0,1.6c-0.4,0.8-0.9,1-1.4,0.8c-0.1,0-0.1-0.1-0.2-0.2c-0.3-0.3-0.2-0.8,0.2-1.4
	C85.4,101.8,85.8,101.6,86.2,101.6z M86.2,101.6c0.2,0.4,0.2,0.9-0.2,1.5c-0.4,0.6-0.8,0.9-1.2,0.8 M87,100.6l-0.3-0.2
	c-0.9-0.4-1.8,0.1-2.7,1.6c-0.9,1.5-0.9,2.5,0,3.1l0.4,0.2c-0.9-0.6-0.9-1.6,0-3.1C85.2,100.7,86.1,100.1,87,100.6z M87,100.6
	c0.9,0.6,0.9,1.6,0,3.1c-0.8,1.5-1.7,2-2.7,1.6 M72.9,93.4c-0.1-0.2-0.2-0.4-0.4-0.5 M76.9,99.4L76.9,99.4"/>
<path id="Layer0_5_MEMBER_4_MEMBER_0_MEMBER_5_MEMBER_10_1_STROKES" class="st10" d="M184,133c1.5-0.9,2.6-2.3,3.2-4.2"/>
<path id="Layer0_5_MEMBER_4_MEMBER_0_MEMBER_5_MEMBER_11_1_STROKES" class="st10" d="M184.9,133.8c0.9-0.5,1.7-1.3,2.4-2.3
	c0.7-0.9,1.1-1.9,1.4-3"/>
<path id="Layer0_5_MEMBER_4_MEMBER_0_MEMBER_5_MEMBER_12_1_STROKES" class="st10" d="M178.5,126.9c-1.7,0.6-3,2.2-4,4.7
	c-1.1,2.7-0.8,4.5,0.9,5.5"/>
<path id="Layer0_5_MEMBER_4_MEMBER_0_MEMBER_5_MEMBER_13_1_STROKES" class="st10" d="M178.1,136.7c1.1-0.6,2-1.6,2.8-2.8
	c0.7-1.2,1.2-2.5,1.3-3.7"/>
<path id="Layer0_5_MEMBER_4_MEMBER_0_MEMBER_5_MEMBER_14_1_STROKES" class="st10" d="M187.4,123.1c-0.8-0.4-1.7-0.4-2.8,0"/>
<path id="Layer0_5_MEMBER_4_MEMBER_0_MEMBER_5_MEMBER_15_1_STROKES" class="st10" d="M189.7,124.4c-0.4-0.7-1-1.2-1.8-1.3
	c-0.7-0.1-1.4,0.1-2.2,0.5"/>
<path id="Layer0_5_MEMBER_4_MEMBER_0_MEMBER_5_MEMBER_16_1_STROKES" class="st10" d="M189.1,124.2c-0.8-0.5-1.7-0.4-2.9,0.2"/>
<path id="Layer0_5_MEMBER_4_MEMBER_0_MEMBER_5_MEMBER_17_1_STROKES" class="st10" d="M194.5,127.2c-0.5-0.9-1.3-1.3-2.4-1.1
	c-0.9,0.1-1.7,0.5-2.6,1.2"/>
<path id="Layer0_5_MEMBER_4_MEMBER_0_MEMBER_5_MEMBER_18_1_STROKES" class="st10" d="M191.3,138.5c1.4-0.8,2.5-2,3.5-3.7
	c0.9-1.8,1.3-3.4,1.1-5c-0.2-1.7-0.9-2.5-2.2-2.7c-1.2-0.1-2.3,0.3-3.5,1.4"/>
<path id="Layer0_5_MEMBER_4_MEMBER_0_MEMBER_5_MEMBER_19_1_STROKES" class="st10" d="M191.3,137.3c1.1-0.6,2-1.6,2.8-3
	c0.8-1.4,1.1-2.8,0.9-4c-0.2-1.3-0.9-2-2-2c-0.9,0-1.9,0.4-2.8,1.3"/>
<path id="Layer0_5_MEMBER_4_MEMBER_0_MEMBER_5_MEMBER_20_1_STROKES" class="st10" d="M179.1,142.2c0.8-0.7,1.5-1.6,2-2.6
	c0.5-1.1,0.8-2.1,0.8-3.2"/>
<path id="Layer0_5_MEMBER_4_MEMBER_0_MEMBER_5_MEMBER_21_1_STROKES" class="st10" d="M180.4,142.7c0.8-0.8,1.4-1.7,2-2.7
	c0.5-1.1,0.8-2.2,0.8-3.2"/>
<path id="Layer0_5_MEMBER_4_MEMBER_0_MEMBER_5_MEMBER_22_1_STROKES" class="st10" d="M173.9,139.9c-0.2,0.8-0.2,1.6-0.1,2.3l0,0.1
	c0.2,1,0.7,1.7,1.4,2"/>
<path id="Layer0_5_MEMBER_4_MEMBER_0_MEMBER_5_MEMBER_23_1_STROKES" class="st10" d="M175,141.4c-0.2,1.1-0.1,2,0.3,2.7
	c0.4,0.9,1.1,1.4,2.1,1.5"/>
<path id="Layer0_5_MEMBER_4_MEMBER_0_MEMBER_5_MEMBER_24_1_STROKES" class="st10" d="M175.6,142.7c0.1,1.2,0.5,2.1,1.3,2.6"/>
<path id="Layer0_5_MEMBER_4_MEMBER_0_MEMBER_5_MEMBER_25_1_STROKES" class="st10" d="M179.7,144.2c-0.2,1.1-0.1,2,0.3,2.8
	c0.4,1,1.2,1.5,2.2,1.5"/>
<path id="Layer0_5_MEMBER_4_MEMBER_0_MEMBER_5_MEMBER_26_1_STROKES" class="st10" d="M181.2,144.1c-0.3,1.6-0.2,2.8,0.5,3.7
	c0.8,1,1.9,1.2,3.4,0.6c1.4-0.6,2.7-1.8,3.7-3.5c1-1.7,1.5-3.3,1.5-4.9"/>
<path id="Layer0_5_MEMBER_4_MEMBER_0_MEMBER_5_MEMBER_27_1_STROKES" class="st10" d="M182.1,143.8c-0.3,1.2-0.2,2.3,0.4,3
	c0.6,0.8,1.5,1,2.7,0.5c1.1-0.5,2.1-1.4,2.9-2.7c0.8-1.3,1.2-2.6,1.2-3.9"/>
<path id="Layer0_5_MEMBER_4_MEMBER_0_MEMBER_5_MEMBER_28_1_STROKES" class="st10" d="M189.9,126.7v-0.2l-0.1-0.2
	c-0.1-0.1-0.2-0.1-0.3,0"/>
<path id="Layer0_5_MEMBER_4_MEMBER_0_MEMBER_5_MEMBER_29_1_STROKES" class="st10" d="M168.8,133.3l6.3,3.7"/>
<path id="Layer0_5_MEMBER_4_MEMBER_0_MEMBER_5_MEMBER_30_1_STROKES" class="st10" d="M174.7,123.2l4.7,2.7"/>
<path id="Layer0_5_MEMBER_4_MEMBER_0_MEMBER_5_MEMBER_31_1_STROKES" class="st10" d="M174.7,123.2c-1-0.5-2-0.3-3.2,0.4
	c-1,0.7-1.9,1.7-2.7,3c-0.8,1.3-1.2,2.6-1.2,3.8c-0.1,1.3,0.3,2.3,1.2,2.9"/>
<path id="Layer0_5_MEMBER_4_MEMBER_0_MEMBER_5_MEMBER_32_1_STROKES" class="st10" d="M178.9,141.6l0,1.6"/>
<path id="Layer0_5_MEMBER_4_MEMBER_0_MEMBER_5_MEMBER_33_1_STROKES" class="st10" d="M175.7,141.3l0.6,0.3"/>
<path id="Layer0_5_MEMBER_4_MEMBER_0_MEMBER_5_MEMBER_34_1_STROKES" class="st10" d="M175.2,142.1l1.3,0.7"/>
<path id="Layer0_5_MEMBER_4_MEMBER_0_MEMBER_5_MEMBER_35_1_STROKES" class="st10" d="M177.3,142.2l0.4,0.3"/>
<path id="Layer0_5_MEMBER_4_MEMBER_0_MEMBER_5_MEMBER_36_1_STROKES" class="st10" d="M178.8,143.1l1.4,0.8"/>
<path id="Layer0_5_MEMBER_4_MEMBER_0_MEMBER_5_MEMBER_37_1_STROKES" class="st10" d="M176.8,143l1.1,0.6"/>
<path id="Layer0_5_MEMBER_4_MEMBER_0_MEMBER_5_MEMBER_38_1_STROKES" class="st10" d="M178.3,143.9l1.4,0.8"/>
<path id="Layer0_5_MEMBER_4_MEMBER_0_MEMBER_5_MEMBER_39_1_STROKES" class="st10" d="M176.8,143c-0.2-0.1-0.2-0.3,0-0.5
	c0.2-0.3,0.3-0.3,0.5-0.3"/>
<path id="Layer0_5_MEMBER_4_MEMBER_0_MEMBER_5_MEMBER_40_1_STROKES" class="st10" d="M176.1,141l0.4,2.1"/>
<path id="Layer0_5_MEMBER_4_MEMBER_0_MEMBER_5_MEMBER_41_1_STROKES" class="st10" d="M177.2,143.2c-0.1,0.1-0.3,0.2-0.4,0.2
	c-0.1,0-0.1-0.1-0.1-0.1l-0.1-0.2"/>
<path id="Layer0_5_MEMBER_4_MEMBER_0_MEMBER_5_MEMBER_42_1_STROKES" class="st10" d="M176.1,140.6v-4"/>
<path id="Layer0_5_MEMBER_4_MEMBER_0_MEMBER_5_MEMBER_43_1_STROKES" class="st10" d="M178.1,140.2c0-0.1,0-0.2,0-0.4
	c0.1-0.2,0.2-0.3,0.3-0.3"/>
<path id="Layer0_5_MEMBER_4_MEMBER_0_MEMBER_5_MEMBER_44_1_STROKES" class="st10" d="M178.3,143.9c-0.1-0.1-0.1-0.3,0-0.5
	c0.1-0.2,0.3-0.3,0.4-0.3"/>
<path id="Layer0_5_MEMBER_4_MEMBER_0_MEMBER_5_MEMBER_45_1_STROKES" class="st10" d="M177.6,141.8l0.4,2.1"/>
<path id="Layer0_5_MEMBER_4_MEMBER_0_MEMBER_5_MEMBER_46_1_STROKES" class="st10" d="M178.6,144c-0.1,0.1-0.2,0.2-0.3,0.2
	c-0.2,0-0.2-0.1-0.3-0.3"/>
<path id="Layer0_5_MEMBER_4_MEMBER_0_MEMBER_5_MEMBER_47_1_STROKES" class="st10" d="M178.8,141.2l-0.6-1"/>
<path id="Layer0_5_MEMBER_4_MEMBER_0_MEMBER_5_MEMBER_48_1_STROKES" class="st10" d="M178.8,138.5v0.3h0v0.1h0v0.1l0,0v0h0v0.1h0v0
	l-0.3,0.2"/>
<path id="Layer0_5_MEMBER_4_MEMBER_0_MEMBER_5_MEMBER_49_1_STROKES" class="st10" d="M177.5,137.4l1.2,1"/>
<path id="Layer0_5_MEMBER_4_MEMBER_0_MEMBER_5_MEMBER_50_1_STROKES" class="st10" d="M176.2,140.3l1.3,0.7"/>
<path id="Layer0_5_MEMBER_4_MEMBER_0_MEMBER_5_MEMBER_51_1_STROKES" class="st10" d="M177.3,136.9v-0.4"/>
<path id="Layer0_5_MEMBER_4_MEMBER_0_MEMBER_5_MEMBER_52_1_STROKES" class="st10" d="M177.5,137.3l-0.2-0.3"/>
<path id="Layer0_5_MEMBER_4_MEMBER_0_MEMBER_5_MEMBER_53_1_STROKES" class="st10" d="M177.6,141.5v-0.4"/>
<path id="Layer0_5_MEMBER_4_MEMBER_0_MEMBER_5_MEMBER_54_1_STROKES" class="st10" d="M177.6,140.5v-2.5"/>
<path id="Layer0_5_MEMBER_4_MEMBER_0_MEMBER_5_MEMBER_55_1_STROKES" class="st10" d="M176.4,136.4V136"/>
<path id="Layer0_5_MEMBER_4_MEMBER_0_MEMBER_5_MEMBER_56_1_STROKES" class="st10" d="M176.2,136.5l0.2,0"/>
<path id="Layer0_5_MEMBER_4_MEMBER_0_MEMBER_5_MEMBER_57_1_STROKES" class="st10" d="M176.7,136l0.2,0.1v0h0"/>
<path id="Layer0_5_MEMBER_4_MEMBER_0_MEMBER_5_MEMBER_58_1_STROKES" class="st10" d="M183.8,124.1l0.3,0.2"/>
<path id="Layer0_5_MEMBER_4_MEMBER_0_MEMBER_5_MEMBER_59_1_STROKES" class="st10" d="M184.2,123.4l0.5,0.3"/>
<path id="Layer0_5_MEMBER_4_MEMBER_0_MEMBER_5_MEMBER_60_1_STROKES" class="st10" d="M184.3,123.4c-0.2-0.1-0.3,0-0.5,0.3
	c-0.2,0.3-0.1,0.5,0,0.5"/>
<path id="Layer0_5_MEMBER_4_MEMBER_0_MEMBER_5_MEMBER_61_1_STROKES" class="st10" d="M185,124.8l0.4,0.2"/>
<path id="Layer0_5_MEMBER_4_MEMBER_0_MEMBER_5_MEMBER_62_1_STROKES" class="st10" d="M187.9,126.5l0.5,0.3"/>
<path id="Layer0_5_MEMBER_4_MEMBER_0_MEMBER_5_MEMBER_63_1_STROKES" class="st10" d="M186.5,125.7l0.4,0.3"/>
<path id="Layer0_5_MEMBER_4_MEMBER_0_MEMBER_5_MEMBER_64_1_STROKES" class="st10" d="M185.4,124l1.1,0.6"/>
<path id="Layer0_5_MEMBER_4_MEMBER_0_MEMBER_5_MEMBER_65_1_STROKES" class="st10" d="M188.4,125.7l1.1,0.6"/>
<path id="Layer0_5_MEMBER_4_MEMBER_0_MEMBER_5_MEMBER_66_1_STROKES" class="st10" d="M186.9,124.9l1.1,0.6"/>
<path id="Layer0_5_MEMBER_4_MEMBER_0_MEMBER_5_MEMBER_67_1_STROKES" class="st10" d="M185.5,124.1c-0.1-0.1-0.2,0-0.3,0
	c-0.1,0.1-0.2,0.1-0.2,0.2c0,0,0,0.1-0.1,0.3v0.1l0,0"/>
<path id="Layer0_5_MEMBER_4_MEMBER_0_MEMBER_5_MEMBER_68_1_STROKES" class="st10" d="M183.3,124.4l2-0.7"/>
<path id="Layer0_5_MEMBER_4_MEMBER_0_MEMBER_5_MEMBER_69_1_STROKES" class="st10" d="M185.8,124L185.8,124l0-0.1h0v0l0,0l-0.1-0.1
	h-0.1"/>
<path id="Layer0_5_MEMBER_4_MEMBER_0_MEMBER_5_MEMBER_70_1_STROKES" class="st10" d="M183,124.6l-3.4,2"/>
<path id="Layer0_5_MEMBER_4_MEMBER_0_MEMBER_5_MEMBER_71_1_STROKES" class="st10" d="M184.6,125.4L184.6,125.4"/>
<path id="Layer0_5_MEMBER_4_MEMBER_0_MEMBER_5_MEMBER_72_1_STROKES" class="st10" d="M183.6,126.5c-0.3,0.1-0.5,0.3-0.5,0.6"/>
<path id="Layer0_5_MEMBER_4_MEMBER_0_MEMBER_5_MEMBER_73_1_STROKES" class="st10" d="M186.9,124.9c-0.2,0-0.3,0.1-0.4,0.3
	c-0.1,0.2-0.1,0.4,0,0.5"/>
<path id="Layer0_5_MEMBER_4_MEMBER_0_MEMBER_5_MEMBER_74_1_STROKES" class="st10" d="M184.8,125.3l2-0.7"/>
<path id="Layer0_5_MEMBER_4_MEMBER_0_MEMBER_5_MEMBER_75_1_STROKES" class="st10" d="M187.2,125c0.1-0.4-0.1-0.6-0.5-0.5"/>
<path id="Layer0_5_MEMBER_4_MEMBER_0_MEMBER_5_MEMBER_76_1_STROKES" class="st10" d="M184.7,126.6l-1-0.1"/>
<path id="Layer0_5_MEMBER_4_MEMBER_0_MEMBER_5_MEMBER_77_1_STROKES" class="st10" d="M182.9,127.8L182.9,127.8L182.9,127.8
	L182.9,127.8L182.9,127.8l0.1-0.1l0.1-0.2l0.1-0.3"/>
<path id="Layer0_5_MEMBER_4_MEMBER_0_MEMBER_5_MEMBER_78_1_STROKES" class="st10" d="M180.9,127.5l1.4,0.5"/>
<path id="Layer0_5_MEMBER_4_MEMBER_0_MEMBER_5_MEMBER_79_1_STROKES" class="st10" d="M182.7,124.9l1.3,0.7"/>
<path id="Layer0_5_MEMBER_4_MEMBER_0_MEMBER_5_MEMBER_80_1_STROKES" class="st10" d="M180.3,127.5l-0.3,0.2"/>
<path id="Layer0_5_MEMBER_4_MEMBER_0_MEMBER_5_MEMBER_81_1_STROKES" class="st10" d="M180.9,127.5l-0.4,0"/>
<path id="Layer0_5_MEMBER_4_MEMBER_0_MEMBER_5_MEMBER_82_1_STROKES" class="st10" d="M184.4,125.5l-0.4,0.2"/>
<path id="Layer0_5_MEMBER_4_MEMBER_0_MEMBER_5_MEMBER_83_1_STROKES" class="st10" d="M183.6,126l-2.1,1.2"/>
<path id="Layer0_5_MEMBER_4_MEMBER_0_MEMBER_5_MEMBER_84_1_STROKES" class="st10" d="M179.5,127l-0.3,0.2"/>
<path id="Layer0_5_MEMBER_4_MEMBER_0_MEMBER_5_MEMBER_85_1_STROKES" class="st10" d="M179.5,126.7l0,0.2"/>
<path id="Layer0_5_MEMBER_4_MEMBER_0_MEMBER_5_MEMBER_86_1_STROKES" class="st10" d="M188.3,125.7c-0.1-0.1-0.3,0-0.4,0.2
	c-0.2,0.2-0.2,0.4-0.1,0.5"/>
<path id="Layer0_5_MEMBER_4_MEMBER_0_MEMBER_5_MEMBER_87_1_STROKES" class="st10" d="M186.2,126.2L186.2,126.2l-0.1,0v0"/>
<path id="Layer0_5_MEMBER_4_MEMBER_0_MEMBER_5_MEMBER_88_1_STROKES" class="st10" d="M186.2,126.1l2-0.7"/>
<path id="Layer0_5_MEMBER_4_MEMBER_0_MEMBER_5_MEMBER_89_1_STROKES" class="st10" d="M188.7,125.8c0.1-0.4-0.1-0.5-0.5-0.4"/>
<path id="Layer0_5_MEMBER_4_MEMBER_0_MEMBER_5_MEMBER_90_1_STROKES" class="st10" d="M185.9,126.3l-3.5,2"/>
<path id="Layer0_5_MEMBER_4_MEMBER_0_MEMBER_5_MEMBER_91_1_STROKES" class="st10" d="M186.5,128.3c-0.1,0-0.2,0.1-0.3,0.2
	c-0.1,0.1-0.1,0.3-0.1,0.4"/>
<path id="Layer0_5_MEMBER_4_MEMBER_0_MEMBER_5_MEMBER_92_1_STROKES" class="st10" d="M190.5,127.2c-0.2,0.1-0.2,0.3-0.2,0.5
	c0,0.3,0.1,0.3,0.3,0.2c0.2-0.2,0.3-0.4,0.3-0.6C190.8,127.1,190.7,127,190.5,127.2z"/>
<path id="Layer0_5_MEMBER_4_MEMBER_0_MEMBER_5_MEMBER_93_1_STROKES" class="st10" d="M187.7,127l2-0.7"/>
<path id="Layer0_5_MEMBER_4_MEMBER_0_MEMBER_5_MEMBER_94_1_STROKES" class="st10" d="M187.7,128.3l-1.2-0.1"/>
<path id="Layer0_5_MEMBER_4_MEMBER_0_MEMBER_5_MEMBER_95_1_STROKES" class="st10" d="M185.6,129.7l0.2-0.2v0l0.1-0.1v0h0l0.1-0.2
	l0.1-0.3"/>
<path id="Layer0_5_MEMBER_4_MEMBER_0_MEMBER_5_MEMBER_96_1_STROKES" class="st10" d="M183.8,129.2l1.5,0.5"/>
<path id="Layer0_5_MEMBER_4_MEMBER_0_MEMBER_5_MEMBER_97_1_STROKES" class="st10" d="M189,127.8l-0.2,0l-0.7,0.4"/>
<path id="Layer0_5_MEMBER_4_MEMBER_0_MEMBER_5_MEMBER_98_1_STROKES" class="st10" d="M179.1,127.3L179.1,127.3L179.1,127.3
	L179.1,127.3L179.1,127.3l0.1,0.1l0,0h0v0h0l0,0h0l0,0h0l0,0"/>
<path id="Layer0_5_MEMBER_4_MEMBER_0_MEMBER_5_MEMBER_99_1_STROKES" class="st10" d="M185.7,126.6l1.3,0.7"/>
<path id="Layer0_5_MEMBER_4_MEMBER_0_MEMBER_5_MEMBER_100_1_STROKES" class="st10" d="M183.2,129.2l-0.3,0.2"/>
<path id="Layer0_5_MEMBER_4_MEMBER_0_MEMBER_5_MEMBER_101_1_STROKES" class="st10" d="M183.8,129.2h-0.4"/>
<path id="Layer0_5_MEMBER_4_MEMBER_0_MEMBER_5_MEMBER_102_1_STROKES" class="st10" d="M187.4,127.1l-0.4,0.2"/>
<path id="Layer0_5_MEMBER_4_MEMBER_0_MEMBER_5_MEMBER_103_1_STROKES" class="st10" d="M186.4,127.7l-1.9,1.1"/>
<path id="Layer0_5_MEMBER_4_MEMBER_0_MEMBER_5_MEMBER_104_1_STROKES" class="st10" d="M182.4,128.7l-0.3,0.2"/>
<path id="Layer0_5_MEMBER_4_MEMBER_0_MEMBER_5_MEMBER_105_1_STROKES" class="st10" d="M182.4,128.4l0,0.2"/>
<path id="Layer0_5_MEMBER_4_MEMBER_0_MEMBER_5_MEMBER_106_1_STROKES" class="st10" d="M182.9,124.3l0.2-0.2l0.3-0.2l0.2-0.2"/>
<path id="Layer0_5_MEMBER_4_MEMBER_0_MEMBER_5_MEMBER_107_1_STROKES" class="st10" d="M189,126.9l0.5,0.3"/>
<path id="Layer0_5_MEMBER_4_MEMBER_0_MEMBER_5_MEMBER_108_1_STROKES" class="st10" d="M191.3,127.1c1-0.5,1.9-0.5,2.6-0.1"/>
<path id="Layer0_5_MEMBER_4_MEMBER_0_MEMBER_5_MEMBER_109_1_STROKES" class="st10" d="M191.5,130.6c1,0.7,1.1,1.8,0.3,3.1
	c-0.8,1.3-1.7,1.7-2.8,1.1c-1-0.7-1.2-1.7-0.3-3.1C189.4,130.3,190.4,129.9,191.5,130.6z"/>
<path id="Layer0_5_MEMBER_4_MEMBER_0_MEMBER_5_MEMBER_110_1_STROKES" class="st10" d="M191.3,137.3v1.2l-7.4-4.2V133"/>
<path id="Layer0_5_MEMBER_4_MEMBER_0_MEMBER_5_MEMBER_111_1_STROKES" class="st10" d="M191.7,125.7l-2.6-1.5"/>
<path id="Layer0_5_MEMBER_4_MEMBER_0_MEMBER_5_MEMBER_112_1_STROKES" class="st10" d="M189.5,128.1v-0.9"/>
<path id="Layer0_5_MEMBER_4_MEMBER_0_MEMBER_5_MEMBER_113_1_STROKES" class="st10" d="M182.9,124.3l0.3,0.2"/>
<path id="Layer0_5_MEMBER_4_MEMBER_0_MEMBER_5_MEMBER_114_1_STROKES" class="st10" d="M189.5,128.1l0.7,0.4"/>
<path id="Layer0_5_MEMBER_4_MEMBER_0_MEMBER_5_MEMBER_115_1_STROKES" class="st10" d="M190.2,128.5v1.1"/>
<path id="Layer0_5_MEMBER_4_MEMBER_0_MEMBER_5_MEMBER_116_1_STROKES" class="st10" d="M175.7,141l-0.1,0.5"/>
<path id="Layer0_5_MEMBER_4_MEMBER_0_MEMBER_5_MEMBER_117_1_STROKES" class="st10" d="M175.7,141l-0.8,0.5"/>
<path id="Layer0_5_MEMBER_4_MEMBER_0_MEMBER_5_MEMBER_118_1_STROKES" class="st10" d="M180.5,145.6c0.1,1.1,0.5,2,1.3,2.4"/>
<path id="Layer0_5_MEMBER_4_MEMBER_0_MEMBER_5_MEMBER_119_1_STROKES" class="st10" d="M185.5,135.1l-1,1.6"/>
<path id="Layer0_5_MEMBER_4_MEMBER_0_MEMBER_5_MEMBER_120_1_STROKES" class="st10" d="M190,137.7l-1,1.6"/>
<path id="Layer0_5_MEMBER_4_MEMBER_0_MEMBER_5_MEMBER_121_1_STROKES" class="st10" d="M183.6,144.1c1.1,0.5,2.1,0.1,2.9-1.2
	c0.8-1.4,0.6-2.4-0.5-3.1c-1.1-0.5-2.1-0.1-2.9,1.3C182.3,142.4,182.5,143.5,183.6,144.1z"/>
<path id="Layer0_5_MEMBER_4_MEMBER_0_MEMBER_5_MEMBER_122_1_STROKES" class="st10" d="M180.7,144.3h-0.2l-0.2,0.2
	c-0.2,0.2-0.2,0.4,0,0.5c0.2,0.1,0.3,0,0.4-0.2C180.8,144.6,180.8,144.4,180.7,144.3z"/>
<path id="Layer0_5_MEMBER_4_MEMBER_0_MEMBER_5_MEMBER_123_1_STROKES" class="st10" d="M189.3,140.7l1.1-0.6l-7.4-4.2l-1.1,0.6"/>
<path id="Layer0_5_MEMBER_4_MEMBER_0_MEMBER_5_MEMBER_124_1_STROKES" class="st10" d="M179.6,146.8l-2.6-1.5"/>
<path id="Layer0_5_MEMBER_4_MEMBER_0_MEMBER_5_MEMBER_125_1_STROKES" class="st10" d="M180.5,143.7l-0.8,0.5"/>
<path id="Layer0_5_MEMBER_4_MEMBER_0_MEMBER_5_MEMBER_126_1_STROKES" class="st10" d="M173.9,139.9l1.8,1"/>
<path id="Layer0_5_MEMBER_4_MEMBER_0_MEMBER_5_MEMBER_127_1_STROKES" class="st10" d="M175.7,141l0.2,0.2"/>
<path id="Layer0_5_MEMBER_4_MEMBER_0_MEMBER_5_MEMBER_128_1_STROKES" class="st10" d="M180.5,143.7l0.7,0.4"/>
<path id="Layer0_5_MEMBER_4_MEMBER_0_MEMBER_5_MEMBER_129_1_STROKES" class="st10" d="M174.9,139.3l-1,0.6"/>
<path id="Layer0_5_MEMBER_4_MEMBER_0_MEMBER_5_MEMBER_130_1_STROKES" class="st10" d="M181.2,144.1l0.9-0.5"/>
<path id="Layer0_5_MEMBER_4_MEMBER_0_MEMBER_5_MEMBER_131_1_STROKES" class="st10" d="M125.8,40.9l-0.5,0.3"/>
<path id="Layer0_5_MEMBER_4_MEMBER_0_MEMBER_5_MEMBER_132_1_STROKES" class="st10" d="M139,40l-13.7,7.9"/>
<path id="Layer0_5_MEMBER_4_MEMBER_0_MEMBER_5_MEMBER_133_1_STROKES" class="st10" d="M106.2,36.9l19.1,11"/>
<path id="Layer0_5_MEMBER_4_MEMBER_0_MEMBER_5_MEMBER_134_1_STROKES" class="st8" d="M154.8,118.5l5.1,2.9 M186.8,136.9l4.8,2.8
	 M184.3,135.5l1.2,0.7 M178.3,132l4.8,2.8 M195.6,142.1l5.3,3.1 M163.9,123.7l4.4,2.6"/>
<path id="Layer0_5_MEMBER_4_MEMBER_0_MEMBER_5_MEMBER_135_1_STROKES" class="st10" d="M198.8,136.3c-1.1-0.5-2.2-0.4-3.5,0.5
	c-1.1,0.7-2.1,1.9-3,3.4c-0.9,1.5-1.3,2.9-1.4,4.3c-0.1,1.5,0.4,2.6,1.3,3.3c1.1,0.5,2.3,0.4,3.5-0.5c1.1-0.7,2.1-1.8,3-3.3
	c0.9-1.5,1.3-2.9,1.4-4.3C200.2,138.1,199.8,137,198.8,136.3z"/>
<path class="st11" d="M198.5,144.3c2-3.2,2.3-5.7,0.8-7.6c-1-1.1-2.4-1.1-4,0c-1.4,0.9-2.4,2-3.1,3.4c-0.7,1.2-1.2,2.5-1.3,3.9
	c-0.2,1.7,0.3,2.9,1.3,3.7C194.4,148.7,196.5,147.6,198.5,144.3 M199.2,139l-0.4-0.3l-0.1-0.1c0.3,1.4,0,2.9-1,4.7
	c-1,1.7-2.1,2.7-3.5,3.2l0.6,0.3h0.1l0.5,0.1c-0.9,0.3-1.7,0.3-2.3-0.2c-0.5-0.4-0.8-1.1-0.9-2.1c0-0.9,0.2-1.8,0.5-2.7
	c0.4-0.9,0.8-1.7,1.4-2.4c0.8-1.1,1.8-1.7,2.9-1.9c1.3-0.3,2.1,0.4,2.4,1.8L199.2,139z"/>
<path id="Layer0_5_MEMBER_4_MEMBER_0_MEMBER_5_MEMBER_137_1_STROKES" class="st9" d="M198.6,138.5c0.3,1.4,0,2.9-1,4.6
	c-1,1.7-2.1,2.7-3.5,3.2l0,0l0.1,0l0.1,0l0.1,0.1h0.1l0.1,0l0.5,0.2c-1.9,0.5-2.9-0.2-3-2.1c-0.1-1.9,0.5-3.4,1.6-4.8
	c0.7-1.2,1.7-2,3-2.4c1.4-0.4,2.3,0.2,2.7,1.8C199.1,138.9,198.8,138.6,198.6,138.5z M210.3,144.5l3.8,2.2 M210.3,144.5l-1.2-0.7
	c-1.8-0.8-3.6,0.2-5.2,3.1c-1.7,2.9-1.7,4.9,0,6l1.3,0.7l4.5,2.6c0.8,0.2,1.5-0.3,2.1-1.5c0.6-1.2,0.7-2.1,0.3-2.7
	c-0.1-0.1-0.2-0.1-0.2-0.2c-0.6-0.8-0.4-2,0.6-3.5c0.7-1.1,1.3-1.6,1.8-1.6l0.7,0.4c0.6,0.8,0.4,2-0.5,3.6c-0.9,1.4-1.6,1.8-2.3,1.4
	 M202.4,152.6c-1.5-0.2-2.2-1.2-2.2-3 M202.4,152.6c-0.2-0.3-0.3-0.7-0.3-1.1c-0.2-1.6,0.1-3,0.9-4.4c0.6-1.6,1.8-2.8,3.4-3.8
	c0.7-0.4,1.3-0.6,1.8-0.6c-0.9-1.2-2.1-1.4-3.7-0.4c-1.3,0.8-2.4,1.8-3,3.2c-0.8,1.2-1.2,2.6-1.2,4.1 M208.2,142.7
	c0.9,0,1.6,0.6,2.1,1.8 M201.8,151.4c-0.7-1.4-0.5-3.1,0.6-5.2c1.2-2.1,2.5-3.2,4.1-3.4 M205.1,153.6c-1.3,0.3-2.2-0.1-2.7-1
	 M182.2,129.1L182.2,129.1L182.2,129.1L182.2,129.1L182.2,129.1l0.2,0.2 M79.5,60.9l-2.1-1.2l-0.6-0.3C76,58.9,75.1,59,74,59.7
	l0.4,0.2l0.3-0.1c0.1-0.1,0.2,0,0.3,0C75,59.9,75,60,75,60.2l0.8,0.4l0.3-0.1c0.2-0.1,0.3,0,0.3,0.1c0.1,0.1,0.1,0.2,0.1,0.4
	l0.8,0.5l0.2-0.1c0.1,0,0.1,0,0.2,0.1v0l0.1,0.1l0.1,0.4c0.7-0.5,1.4-0.8,2.1-0.9c1-0.1,1.8,0.3,2.3,1.3c0.8,0.3,1.3,1.2,1.5,2.5
	c0.2,1.6-0.2,3.2-1.1,5c-0.9,1.7-2.1,3-3.5,3.7v0l-1.4-0.8l-1,1.6l1.4,0.8c0,1.6-0.5,3.2-1.5,4.8c-1,1.7-2.3,2.9-3.7,3.5
	c-1.2,0.5-2.2,0.5-2.9-0.1c-1.1,0-1.8-0.4-2.3-1.4c-0.3-0.7-0.4-1.4-0.3-2.3l-1.1-0.6c-0.2,0.1-0.3,0.1-0.4,0.1l-0.2-0.1l-0.1-0.2
	l0-0.2l-0.8-0.5c-0.1,0.1-0.3,0.2-0.4,0.2c-0.2,0-0.2-0.1-0.3-0.3l0-0.2L63,77.3 M73.4,59L73.4,59L73.4,59L73.4,59L73.4,59l-0.1-0.1
	h-0.1h0v0h0h0l-1.2,0.4l-0.2,0.1l-0.1,0l-0.6,0.2H71 M71,59.7L71,59.7L71,59.7l-0.2,0v0h-0.1l-0.3,0.2l1.4,0.9l0.4-0.2h0v0h0.1v0
	h0.1v0h0.1v0h0l0.6-0.2L72.8,60c-0.2-0.1-0.2-0.3,0-0.5c0.1-0.3,0.3-0.4,0.4-0.3c0,0,0,0,0,0l0.3,0.2v-0.2L73.5,59l0,0 M75,60.2
	l-0.3-0.2c-0.1,0-0.2,0-0.3,0.1c-0.1,0.1-0.1,0.2-0.2,0.2c-0.2,0.2-0.2,0.4,0,0.5l0.4,0.2l1.1-0.4 M74,59.7l-0.4-0.2 M74.3,59.9
	l-1.1,0.4 M72.4,58.3c1.1-0.4,2.1-0.4,2.8,0c0.2,0,0.4,0,0.5,0c0.8,0.1,1.4,0.6,1.7,1.4 M73.4,59c0.6-0.4,1.2-0.6,1.8-0.6
	 M76.4,61.1l-0.3-0.2c-0.2-0.1-0.3,0-0.4,0.3c-0.1,0.2-0.1,0.4,0,0.5l0.5,0.3l1.1-0.4 M76.1,61.9l-0.7,0.2h-0.1v0h-0.1v0h-0.1v0
	h-0.1v0l-0.4,0.2l-1.4-0.9l-3.1,1.8v0h0v0h0v0l0,0.2v0.1h0l-0.3,0.2 M74.7,61.1L74,61.3h0v0h-0.1v0h-0.1v0h-0.1v0l-0.3,0.2 M76.8,63
	l-0.9,0.4v0h-0.1v0h-0.2v0h-0.2l-1.2-0.1c-0.3,0-0.4,0.2-0.5,0.6c0.1,0.2,0,0.4-0.2,0.6l-0.2,0.2l-0.2,0h-0.1l-1.5-0.5h-0.1l-0.4,0
	H71v0l-0.3,0.2 M79.1,73.6v-1.2c1.1-0.6,2-1.6,2.7-3c0.8-1.4,1.1-2.7,0.9-4c-0.2-1.3-0.9-2-2-2c-1,0-1.9,0.4-2.8,1.3v-1.1l-0.7-0.4
	v-0.9l-0.5-0.3 M78,63c0.1,0.2,0.2,0.2,0.4,0.1c0.2-0.1,0.3-0.3,0.3-0.5c0-0.2-0.2-0.3-0.4-0.1C78.1,62.5,78,62.7,78,63z M77.8,62.1
	c-0.2,0.1-0.3,0.2-0.5,0.4 M78,63.7c1.2-1,2.3-1.5,3.5-1.4c0,0,0.1,0,0.1,0c-0.8-0.5-1.6-0.5-2.6-0.1 M81.7,62.3
	c0.2,0,0.4,0.1,0.6,0.2 M79.5,68.9c-0.8,1.3-1.7,1.7-2.8,1.1c-1-0.7-1.2-1.8-0.3-3.1c0.8-1.3,1.8-1.7,2.9-1.1
	C80.2,66.5,80.3,67.5,79.5,68.9z M75,64c-0.7,1.9-1.8,3.3-3.2,4.2v1.2l1.5,0.9l4.5,2.6 M69.9,79c-0.3,1.2-0.2,2.3,0.4,3
	c0.6,0.8,1.5,1,2.7,0.5c1.1-0.5,2.1-1.4,2.9-2.8c0.8-1.3,1.2-2.6,1.2-3.9l1.1-0.6 M73.9,75.1L73.8,75h0c-1.1-0.6-2.1-0.2-2.9,1.2
	c-0.8,1.4-0.6,2.4,0.5,3.1c0.5,0.3,1.1,0.2,1.6-0.1c0.5-0.3,0.9-0.6,1.2-1.2c0.3-0.6,0.5-1.2,0.4-1.8l0-0.2l-0.2-0.4l-0.1-0.2
	l-0.1-0.2l-0.2-0.1L73.9,75.1z M72.6,69c0.9-0.5,1.7-1.3,2.4-2.3c0.7-1,1.1-2,1.4-3.1 M67.2,61.1l-4.7-2.7c-1-0.5-2-0.3-3.2,0.4
	c-1,0.7-1.9,1.7-2.7,3c-0.8,1.3-1.2,2.6-1.2,3.8c-0.1,1.3,0.4,2.3,1.2,2.9l6.4,3.6c-1.5-1-1.7-2.8-0.7-5.3c1-2.6,2.4-4.1,4-4.7
	 M71.7,59.4c-0.2-0.1-0.2-0.3-0.1-0.6c0.1-0.3,0.3-0.4,0.4-0.3c0,0,0,0,0,0l0.4,0.3 M71,59.6l-0.3-0.2l0.7-0.6 M70.5,59.9l-3.1,1.8
	h0v0l0,0v0l0,0.2v0.1h0v0l-0.3,0.2h0 M66.9,62.5L66.9,62.5L66.9,62.5L66.9,62.5L66.9,62.5l0.1,0.1h0l0,0h0l0.1,0.1h0l0,0h0l0.1,0v0
	h0.1 M67.8,62.9L67.8,62.9l0.3-0.2h0.6l1.4,0.5 M72.5,61.8l-1.1-0.1c-0.1,0-0.2,0.1-0.3,0.2c-0.1,0.1-0.2,0.3-0.2,0.4
	c0,0.2-0.1,0.4-0.2,0.6 M71.6,64.4L71.6,64.4 M71.4,61.2l-2.1,1.2 M65.4,72.6L65.4,72.6L65.4,72.6L65.4,72.6z M65.4,72.6l1.1,1h0v0
	h0v0.1h0V74l0,0.2l-0.2,0.3l-0.3,0.2c-0.3,0.2-0.4,0.4-0.3,0.7l0.6,1v0h0v0h0v0.1h0v0.1l0,0l0,1.6v0.1l1.3,0.7l0.4-0.2l0.7,0.4
	l0.9-0.6 M65.3,72.6L65.3,72.6l-0.2-0.4l0,0v-0.5h0v-0.1 M76.8,74.5l-4.5-2.6L70.8,71l-1,0.6c0,1.1-0.3,2.1-0.8,3.1
	c-0.5,1-1.2,1.9-2,2.6 M65.9,71.9c1.1-0.6,2-1.6,2.8-2.8c0.8-1.3,1.2-2.5,1.3-3.8 M62.7,74.4l-1,0.6l1.8,1.1l0.1,0l0.4,0.1l0-0.1V76
	h0v-0.6v-3.7h0v0h0l0.2-0.1h0v-0.1h0v-0.5h0l0,0h0.1v0l0.1,0h0.1v0h0l0.1,0l0,0h0v0h0v0h0v0 M63,72.1c0.1,0,0.1,0.1,0.2,0.1
	 M63.5,76.2l0,0.3v0.1l0.6,0.3l-0.1-0.6 M61.7,75c-0.2,0.9-0.2,1.7,0,2.5c0.2,0.9,0.7,1.6,1.5,1.9c0,0,0-0.1-0.1-0.1
	c-0.3-0.8-0.4-1.7-0.3-2.7l0.7-0.4 M65.7,78.9l-0.2-1.2l-0.4-0.2c-0.1-0.1-0.3,0-0.5,0.3L64.5,78c0,0.1,0.1,0.2,0.1,0.2l0.3,0.2
	 M64.3,78L64,76.8 M63.4,77.9c0.1,1.2,0.5,2.1,1.3,2.6l0.5,0.3l2.2,1.2 M65.2,80.8c-1,0-1.7-0.5-2.1-1.3 M65.5,77.7L65.4,77v-0.1h0
	v-0.3l-0.1-0.5l-1.4-0.8 M66.4,79.2l-0.3-0.2c-0.1-0.1-0.1-0.3,0-0.5c0.1-0.2,0.3-0.3,0.6-0.3 M67.5,79.9c0-0.2,0-0.3,0.1-0.5
	l0.4-0.2 M68,80.2c0.2,0.1,0.3,0,0.4-0.2c0.1-0.2,0.1-0.4,0-0.5c-0.1-0.1-0.3,0-0.4,0.2C67.9,79.9,67.9,80.1,68,80.2z M70.1,83.6
	c-0.2-0.1-0.3-0.3-0.4-0.4c-0.8-0.4-1.3-1.2-1.4-2.3 M69.6,83.2C69.6,83.1,69.6,83.1,69.6,83.2c-0.8-1-0.9-2.3-0.6-3.8 M68.1,77.9
	c0.8-0.7,1.5-1.6,2-2.7c0.5-1.1,0.8-2.2,0.8-3.2 M65.4,75.7v-2.5 M72.3,71.9l1-1.6 M74.2,62.9L72.3,64 M71,59.6L71,59.6 M73.4,59
	L73.4,59 M64.6,78.2C64.6,78.2,64.6,78.2,64.6,78.2"/>
<path id="Layer0_5_MEMBER_4_MEMBER_0_MEMBER_5_MEMBER_138_1_STROKES" class="st8" d="M83.4,77.3l5.5,3.1 M74.3,72l4.7,2.7
	 M42.6,53.6l5,2.9 M66.1,67.2l4.7,2.7 M51.7,58.9l4.2,2.4 M71.9,70.6l1.2,0.7"/>
<path id="Layer0_5_MEMBER_4_MEMBER_0_MEMBER_5_MEMBER_139_1_STROKES" class="st10" d="M80,82.8c1.1,0.5,2.3,0.4,3.5-0.5
	c1.1-0.7,2.1-1.8,3-3.3c0.9-1.5,1.3-2.9,1.4-4.3c0.1-1.5-0.4-2.6-1.4-3.3C85.5,71,84.3,71.1,83,72c-1.1,0.7-2.1,1.8-3,3.3
	c-0.9,1.5-1.3,2.9-1.4,4.3C78.6,81.1,79,82.2,80,82.8z M44.5,48.3c0.4,0,0.7,0.1,1.1,0.3 M44.5,48.3c-0.6,0-1.2,0.2-1.9,0.6
	c-1.2,0.7-2.2,1.7-3,3.1c-0.8,1.4-1.2,2.8-1.2,4.1c0,0.8,0.1,1.4,0.4,1.9c0.2,0.3,0.5,0.6,0.8,0.8c0.8,0.5,1.8,0.4,3-0.3
	c1.1-0.7,2.1-1.7,2.9-3.1c0.8-1.4,1.2-2.8,1.2-4.1c0-1.3-0.4-2.2-1.2-2.7 M37.3,44.3l5.1,3c0.9-0.1,1.6,0.2,2.2,1 M45.1,49.4
	c0.5,0.3,0.7,0.9,0.8,1.9c0,1.2-0.4,2.4-1.1,3.7c-0.7,1.3-1.6,2.2-2.6,2.8c-0.8,0.5-1.5,0.6-2,0.3c-0.5-0.3-0.8-0.9-0.8-1.9
	c0-1.2,0.4-2.4,1.1-3.6c0.7-1.3,1.6-2.2,2.6-2.8C43.9,49.2,44.6,49.1,45.1,49.4z M36.9,56.7L32.3,54 M36.9,56.7
	c-0.2-0.4-0.3-1-0.3-1.6c0-1.6,0.4-3,1.2-4.2c0.6-1.3,1.6-2.3,3-3.1c0.5-0.3,1.1-0.5,1.5-0.6 M38.9,58c-1-0.1-1.6-0.5-2-1.3
	 M38.4,57.5c-1.3-1.3-1.2-3.3,0.3-6c1.5-2.6,3.2-3.8,5-3.4"/>
<path class="st11" d="M87.2,72c-1-1.1-2.4-1.1-4,0c-1.3,0.8-2.4,1.9-3.1,3.3c-0.7,1.2-1.2,2.5-1.3,4c-0.2,1.8,0.3,3,1.3,3.6
	c2.1,1,4.2-0.1,6.3-3.4C88.3,76.3,88.6,73.8,87.2,72 M87,74.2l-0.4-0.4l-0.1,0c0.3,1.4,0,2.9-1,4.6c-1,1.7-2.2,2.8-3.5,3.2l0.3,0.2
	l0.5,0.2l0.4,0.1c-0.9,0.3-1.7,0.3-2.2-0.2c-0.5-0.4-0.8-1.1-0.9-2.1c0-1.8,0.6-3.5,2-5.1c0.8-1.1,1.8-1.7,2.9-1.9
	c1.3-0.3,2.1,0.4,2.4,1.8L87,74.2z"/>
<path id="Layer0_5_MEMBER_4_MEMBER_0_MEMBER_5_MEMBER_141_1_STROKES" class="st10" d="M86.4,73.7c0.3,1.4,0,3-1,4.7
	c-1,1.7-2.1,2.7-3.5,3.1h0l0.1,0l0.1,0.1l0.2,0.1h0.1l0.5,0.2c-1.9,0.5-2.9-0.2-3-2.2c0-1.9,0.5-3.4,1.6-4.7c0.7-1.2,1.7-2,3-2.3
	c1.4-0.4,2.3,0.2,2.7,1.8C86.8,74,86.5,73.8,86.4,73.7z M48.2,64.5c1.1,0.5,2.2,0.4,3.5-0.5c1.2-0.7,2.2-1.8,3.1-3.3
	c0.8-1.5,1.3-2.9,1.4-4.3c0.1-1.5-0.4-2.6-1.3-3.3c-1.1-0.5-2.3-0.4-3.5,0.5c-1.1,0.7-2.1,1.9-3,3.4c-0.9,1.5-1.3,2.9-1.4,4.3
	C46.8,62.7,47.2,63.8,48.2,64.5z"/>
<path class="st11" d="M55.3,53.6c-1-1.1-2.4-1.1-4,0c-1.4,0.9-2.4,2-3.1,3.4c-0.7,1.2-1.2,2.5-1.3,3.9c-0.2,1.8,0.3,3,1.3,3.7
	c2.1,1,4.2-0.1,6.3-3.4C56.6,57.9,56.8,55.4,55.3,53.6 M55.2,55.8l-0.4-0.3l-0.1,0c0.3,1.4,0,2.9-1,4.6c-1,1.7-2.1,2.8-3.5,3.2
	l0.6,0.3h0.1l0.5,0.1c-0.9,0.3-1.7,0.3-2.3-0.2c-0.5-0.4-0.8-1.1-0.9-2.1c0-1.8,0.6-3.5,2-5.1c0.8-1.1,1.8-1.7,2.9-1.9
	c1.3-0.3,2.1,0.4,2.4,1.8L55.2,55.8z"/>
<path id="Layer0_5_MEMBER_4_MEMBER_0_MEMBER_5_MEMBER_143_1_STROKES" class="st10" d="M37.3,44.3c-0.7-0.2-1.4,0.4-2.1,1.6
	c-0.6,1.2-0.7,2.1-0.3,2.7c0.1,0.1,0.2,0.1,0.2,0.2c0.6,0.9,0.4,2.1-0.6,3.7c-1,1.6-1.9,2-2.6,1.2c-0.6-0.8-0.4-2.1,0.6-3.7
	c0.9-1.5,1.7-1.9,2.4-1.4 M54.8,55.4L54.8,55.4l-0.1,0l0,0h0c0.3,1.4,0,3-1,4.6c-1,1.7-2.1,2.7-3.5,3.2c0.2,0.2,0.6,0.3,1,0.4
	c-1.9,0.5-2.9-0.2-2.9-2.2c-0.1-1.9,0.5-3.4,1.6-4.7c0.7-1.2,1.7-2,3-2.4c1.4-0.4,2.3,0.2,2.7,1.8L55,55.6l0,0L54.8,55.4L54.8,55.4z
	"/>
<path id="Layer0_5_MEMBER_4_MEMBER_0_MEMBER_5_MEMBER_144_1_STROKES" class="st10" d="M143.7,52.3l5.1,0c0.1,0,0.2,0,0.3,0
	c1.8,0,2.7,0.5,2.8,1.5c0,0.1,0,0.2,0,0.2v1.4c0,0.6-0.4,1-1.1,1.3c-0.6,0.3-1.2,0.4-1.8,0.3l-5.7,0.1l-17.1,9.9c0,0-0.1,0-0.1,0.1
	c-0.2,0.1-0.5,0.2-0.8,0.2c-0.4,0-0.7-0.1-1-0.2l-0.6-0.4v0.4v0 M106.2,52.1l-3.5,2.1c-0.6,0.3-0.9,0.8-0.9,1.3v0
	c0,0.5,0.3,0.9,0.9,1.2c0.6,0.4,1.3,0.5,2.2,0.5c0.8,0,1.4-0.1,2-0.4l0.2-0.1l0.7-0.4l0,0h0.1v0h0.1v0h0.5v0c0.1,0,0.1,0,0.1,0h0.1
	v0h0l7.2,4.1v0h0v0h0v0h0v0.1h0v0.1h0v0.1h0v0l-0.1,0.1h0v0l-0.7,0.4l-0.2,0.1h0c-0.5,0.3-0.7,0.7-0.7,1.1c0,0,0,0.1,0,0.1
	c0,0.4,0.3,0.8,0.9,1.1c0.6,0.4,1.3,0.5,2.2,0.5c0.9,0,1.6-0.2,2.2-0.5l0.8-0.5h0l0,0l0.2,0h0.4l0.1,0h0v0h0l3.2,1.9
	c0.4,0.2,0.7,0.2,1,0.2c0.3,0,0.6-0.1,0.9-0.2l17.8-10.3l0.3-0.3l0.1-0.2v0h0v-0.1l0-0.2v0l0,0v0l-0.1-0.1v0h0v0h0l0,0h0v0h0v0
	l-0.2-0.1 M143.2,57l0.7-0.4c0.3-0.1,0.4-0.3,0.4-0.5l0-0.6l0-0.8 M148.2,54c0.2,0.4,0.6,0.5,1.2,0.4c0.7-0.1,1-0.4,0.8-0.8
	c-0.2-0.4-0.6-0.5-1.2-0.4C148.3,53.4,148,53.6,148.2,54z M151.9,54c-0.1,0.9-1,1.4-2.9,1.4l-4.7,0 M125.3,76.3l6.8,4v-2.3
	c0.1-1,1-1.5,2.7-1.5c1.7,0,2.6,0.5,2.7,1.5l0,5.6c0.1,0.2,0.2,0.4,0.1,0.6v1.2c0,0.2-0.2,0.4-0.4,0.6 M137.5,78.1
	c-0.1,1-1,1.6-2.7,1.6c-1.7,0-2.6-0.5-2.7-1.6 M135.5,78.5c-0.3,0.3-0.7,0.3-1.2,0.1c-0.5-0.2-0.6-0.5-0.2-0.8
	c0.3-0.3,0.8-0.3,1.3-0.1C135.8,77.9,135.9,78.1,135.5,78.5z M119.3,65.6L119.3,65.6c0.1,0,0.2-0.1,0.2-0.1l0.6-0.3l0.2-0.1v0h0
	l0.1,0h0l0.1,0h0.4v0h0.1l0,0h0.1v0l0.8,0.5l0.9,0.5l0.9,0.5v0 M105.6,55.8c-0.4,0.3-0.9,0.3-1.3,0.1c-0.2-0.1-0.3-0.2-0.3-0.3
	c-0.1-0.2,0-0.3,0.2-0.4c0.3-0.3,0.8-0.3,1.3-0.1C105.9,55.2,106,55.5,105.6,55.8z M114.9,61.5l-6.2-3.6h0v0h-0.1v0h-0.2l0,0h-0.2v0
	H108v0h-0.1l0,0h0l-0.7,0.4l-0.2,0.1c-0.7,0.4-1.7,0.5-2.9,0.3c-1.4-0.2-2.1-0.8-2.2-1.7l-0.1-1.5 M123.6,66.9c0,0.6-0.3,1-0.8,1.2
	c-0.3,0.1-0.6,0.2-0.9,0.3c-0.3,0-0.5,0.1-0.8,0.1c0,0-0.1,0-0.1,0c-1.6,0-2.5-0.5-2.6-1.5v-1c-0.6,0.1-1.2,0.1-1.9,0
	c-1.3-0.2-2.1-0.8-2.2-1.7l-0.1-1.4 M115.1,61.4c-0.1,0-0.1,0.1-0.2,0.1 M118,62.3c-0.5-0.3-0.9-0.3-1.3-0.1c-0.5,0.3-0.5,0.6,0,0.8
	c0.5,0.2,0.9,0.2,1.2,0c0.2-0.1,0.3-0.2,0.3-0.3C118.3,62.5,118.2,62.4,118,62.3z M102.2,81.1c0.1-1,1-1.5,2.7-1.5 M102.2,81.1
	c0.1,1,1,1.6,2.7,1.6c1.7,0,2.6-0.5,2.7-1.6c-0.1-1-1-1.5-2.7-1.5 M105.4,80.7c0.2,0.1,0.3,0.2,0.3,0.3c0,0.2,0,0.3-0.2,0.4
	c-0.3,0.3-0.8,0.3-1.3,0.1c-0.5-0.2-0.5-0.5-0.2-0.8C104.5,80.4,105,80.4,105.4,80.7z M107.6,81.1v1.4l12.1-6.9V71
	c0.1-1,1-1.5,2.7-1.5s2.6,0.5,2.7,1.5l0,5.5c-0.1,1-1,1.6-2.7,1.6s-2.6-0.5-2.7-1.6v-0.9 M121.9,65.5v2.9 M122.8,68.1l0-2.1
	 M119.3,68.1v-2.4c-0.3,0.1-0.6,0.2-0.9,0.3 M119.7,71c0.1,1,1,1.6,2.7,1.6s2.6-0.5,2.7-1.6 M123,71.4c0.5-0.3,0.5-0.5,0.1-0.8
	c-0.4-0.3-0.8-0.3-1.3,0c-0.5,0.3-0.5,0.5-0.1,0.8C122.1,71.6,122.5,71.6,123,71.4z M118,84.5c0.7-0.8,1.7-1.1,3.2-1.1
	c1.5,0,2.5,0.5,3.1,1.3c0.1-0.3,0.1-0.5,0.1-0.9c-0.3-1.2-1.5-1.8-3.6-1.7c-2.2,0.1-3.2,0.8-3.1,2.1c0.3,1.3,1.5,1.9,3.7,1.8
	c1.6-0.1,2.6-0.5,2.9-1.3 M132.1,80.4v3.3c0.1,1,1,1.6,2.7,1.6c1,0,1.7-0.2,2.2-0.5c0.3-0.2,0.5-0.6,0.5-1 M120.1,68.4v-3.2 M121,65
	v3.5 M120,88.2c-0.1,1-1,1.6-2.7,1.6c-1.7,0-2.6-0.5-2.7-1.6v5.5c0.1,1,1,1.6,2.7,1.6c1.7,0,2.6-0.5,2.7-1.6L120,88.2z M120,88.2
	c-0.1-1-1-1.5-2.7-1.5c-1.7,0-2.6,0.5-2.7,1.5 M116.6,88.6c0.4,0.3,0.9,0.3,1.3,0.1c0.5-0.3,0.5-0.6,0-0.8c-0.5-0.3-0.9-0.3-1.2,0
	C116.2,88.1,116.2,88.4,116.6,88.6z M107.6,82.5v4.1c-0.1,1-1,1.6-2.7,1.6c-1.6,0-2.5-0.4-2.7-1.3l0,1 M137,84.7
	c0.4-0.1,0.6-0.2,0.6-0.4 M102.2,86.8c0-0.1,0-0.2,0-0.2v-5.5"/>
<path id="Layer0_5_MEMBER_4_MEMBER_0_MEMBER_5_MEMBER_145_1_STROKES" class="st8" d="M104.9,67.3v-7.9 M104.9,71.2v-1.9 M104.9,81.1
	v-7.9"/>
<path id="Layer0_5_MEMBER_4_MEMBER_0_MEMBER_5_MEMBER_146_1_STROKES" class="st10" d="M142.8,98.5c-0.1-1.9-0.6-3.5-1.6-4.7
	c-1.1-1.3-2.6-2-4.4-1.9c-2.2,0.1-4.4,1.1-6.7,3c-1.9,1.6-3.6,3.5-4.9,5.7c-1.4,2.3-2.4,4.7-3,7.2c-0.7,2.9-0.6,5.5,0.2,7.6
	c0.7,2,2,3.2,3.8,3.6c1.6,0.4,3.4,0.1,5.3-0.8 M99.4,26.1c0.2,0.6,0.9,0.9,1.9,0.8c0.9-0.1,1.4-0.3,1.5-0.8c0-0.1,0-0.2,0-0.3
	c-0.2-0.6-0.9-0.9-2-0.8c-1,0.1-1.5,0.4-1.5,1C99.4,26,99.4,26,99.4,26.1z M99.4,26.1v1.6c0,0.4,0.3,0.7,0.8,0.9
	c0.3,0.1,0.6,0.1,1,0.1c0.4,0,0.7,0,1-0.1c0.5-0.1,0.7-0.4,0.8-0.9v-1.6 M100.6,26l0.7,0.1l0.5-0.3l-0.2-0.4l-0.7-0.2l-0.5,0.3
	L100.6,26z M102.1,28.6v0.6V30v0.7v0.9v0.8v0.7v0.8v0.8c-0.1,0.3-0.4,0.5-1,0.5s-0.9-0.2-1-0.5v-0.8v-0.8v-0.7v-0.9v-0.7V30v-0.8
	v-0.6 M102.1,29.2c0,0.4-0.3,0.5-1,0.5c-0.6,0-0.9-0.2-1-0.5 M100.2,31.5c0,0.4,0.3,0.6,0.9,0.6c0.6,0,0.9-0.1,1-0.5 M100.2,30
	c0.1,0.4,0.4,0.5,1,0.5c0.6,0,0.9-0.2,0.9-0.5 M102.1,30.7c0,0.3-0.3,0.5-0.9,0.6c-0.6,0-0.9-0.1-1-0.5 M102.1,32.4
	c0,0.4-0.3,0.5-1,0.5c-0.6,0-0.9-0.2-1-0.5 M102.1,33.1c0,0.4-0.3,0.5-1,0.6c-0.6,0-0.9-0.2-1-0.6 M100.2,33.9
	c0.1,0.4,0.4,0.6,1,0.5c0.6,0,0.9-0.2,0.9-0.5"/>
<path id="Layer0_5_MEMBER_4_MEMBER_0_MEMBER_5_MEMBER_147_1_STROKES" class="st10" d="M162.8,36.5c1.7-1,3.3-1.2,4.7-0.5l-1.4-0.8
	c-1.4-0.7-3-0.6-4.7,0.5c-1.6,0.9-2.9,2.4-4.1,4.4c-1.2,2-1.8,3.9-1.9,5.7c-0.1,2,0.4,3.5,1.7,4.5l1.2,0.7c-1.2-1-1.7-2.4-1.6-4.4
	c0.1-1.9,0.8-3.8,1.9-5.7C159.9,38.9,161.3,37.5,162.8,36.5z M173.4,39.5c-0.6-0.3-1.4-0.4-2.3-0.2 M173.4,39.5l-3-1.8
	c-1.4-0.6-2.9-0.5-4.6,0.5c-1.5,1-2.9,2.4-4,4.4c-1.2,2-1.8,3.9-1.9,5.8c-0.1,2,0.4,3.5,1.7,4.5l3.2,1.9c-0.5-0.3-0.9-0.8-1.3-1.5
	c-0.5-1.2-0.6-2.6-0.2-4.2c0.3-1.4,0.7-2.7,1.4-4c0.7-1.3,1.6-2.5,2.7-3.5c1.2-1.2,2.5-1.9,3.8-2.2 M164.8,54.7
	c0.3,0.2,0.6,0.3,1,0.4c0.9,0.2,1.9,0.1,3-0.5l-2.7-1.6c-0.9-0.8-1.3-1.9-1.2-3.5c0.1-1.4,0.6-2.9,1.6-4.4s2-2.6,3.1-3.3
	c1.3-0.8,2.5-0.8,3.6-0.2l2.4,1.4c-0.1-1.3-0.5-2.3-1.2-3c-0.1-0.1-0.3-0.3-0.5-0.4c0,0,0,0,0,0c-0.1-0.1-0.2-0.1-0.3-0.2 M175.4,43
	L175.4,43l0.6,0.3c0.7,0.4,1.1,1.2,1.3,2.2c0.3,0.6,0.6,1.2,1.1,1.6c0.4,0.4,0.9,0.7,1.6,1.1l1.9,1.3c1.1,0.5,1.7,0.7,1.8,0.8
	 M176.1,43.4C176.1,43.4,176,43.4,176.1,43.4c-0.8-0.5-1.7-0.5-2.7-0.1c-1,0.4-1.9,1.1-2.8,2.1c-0.8,0.9-1.4,1.9-1.9,3
	c-1,2.2-1.2,4-0.3,5.6c0.2,0.3,0.4,0.6,0.6,0.8c0.1,0.1,0.1,0.1,0.2,0.2c0.9,0.7,2.2,0.5,3.9-0.5 M170.4,37.7l-2.8-1.7 M171.6,53.4
	c-1.2,0.2-1.9-0.3-2.1-1.5c0-0.1,0-0.3-0.1-0.4c-0.1-1.2,0.1-2.4,0.8-3.4c0.5-1.2,1.4-2.1,2.6-2.7c1.4-0.7,2.3-0.4,2.9,0.9
	 M169.7,50.4c0.5,0.2,1.4,0.7,2.7,1.5c1.1,0.6,2.1,1.1,2.8,1.4c1,0.5,2,0.8,3.1,1c0.4,0.1,1.5,0.3,3.4,0.6c0.1-0.7,0.4-1.5,0.9-2.4
	c1.2-2.1,2.4-2.8,3.8-2.4l2.2,1.2c0.1,0,0.2,0.1,0.3,0.2c0.4,0.3,0.6,0.7,0.7,1.5 M181.7,54.9c0,0.5,0,0.9,0.2,1.2
	c0.1,0.3,0.4,0.5,0.6,0.8l2,1.1c-0.5-0.4-0.6-1.1-0.5-2.1c0.2-1.3,0.6-2.3,1.3-2.9c0.7-0.9,1.4-1.4,2.4-1.6c0.3-0.1,0.6,0,0.8,0
	 M185.3,58.3c-0.3-0.1-0.6-0.2-0.8-0.4 M185.8,53.1c2.2,1.3,4.8,2.8,7.8,4.6c0,0,0.1,0,0.1,0.1 M184.8,54.9c1.5,0.5,3.1,1.2,5,2.1
	c0.6,0.3,2.2,1.2,4.7,2.6 M185.5,53.6c1.9,0.7,4.6,2.1,8.1,4.1 M187,52.1l7.4,4.3 M184.5,55.7c2,0.7,5.3,2.2,9.8,4.3 M184.4,57
	c1.9,0.7,4.9,2.1,9.2,4.3 M181.9,56.1l-4.6-0.6l-1.2-0.3c-0.9-0.3-2-0.8-3.3-1.5c-2.1-1.1-3.2-1.7-3.3-1.7 M170.7,47.9
	c0.7,0.3,1.6,0.8,2.9,1.5c1.1,0.6,2.1,1,2.9,1.3c0.7,0.3,1.6,0.6,2.8,1c1.5,0.4,2.4,0.7,2.8,0.8 M171.8,46.5
	c3.3,1.7,5.1,2.6,5.3,2.7c0.6,0.3,1.5,0.6,2.9,1.1c1.2,0.5,2.2,0.9,2.9,1.2 M169.9,49.3c0.7,0.3,1.6,0.8,2.9,1.5
	c1.1,0.6,2.1,1,2.9,1.4c1.3,0.5,3.3,1.1,5.9,1.8 M168.7,54.6l0.2,0.1 M182,49.6c-0.9-0.4-2-0.8-3.5-1.4c-2.1-0.9-3.8-1.7-5.3-2.6
	 M158.4,51l3.1,1.8"/>
<path id="Layer0_5_MEMBER_4_MEMBER_0_MEMBER_5_MEMBER_148_1_STROKES" class="st10" d="M166.9,117.9c-1.1-0.5-2.2-0.4-3.5,0.5
	c-1.2,0.7-2.2,1.9-3,3.4c-0.9,1.5-1.3,2.9-1.4,4.3c-0.1,1.5,0.4,2.6,1.4,3.3c1.1,0.5,2.2,0.4,3.5-0.5c1.2-0.7,2.2-1.8,3.1-3.3
	c0.8-1.5,1.3-2.9,1.4-4.3C168.4,119.7,167.9,118.6,166.9,117.9z"/>
<path class="st11" d="M163.5,118.3c-1.4,0.9-2.4,2-3.1,3.4c-0.7,1.2-1.2,2.5-1.3,3.9c-0.2,1.8,0.3,3,1.3,3.7c2.1,1,4.2-0.1,6.3-3.4
	c2-3.2,2.3-5.7,0.8-7.6C166.5,117.3,165.1,117.3,163.5,118.3 M167.3,120.5l-0.4-0.3l-0.1-0.1c0.3,1.4,0,2.9-1,4.7
	c-1,1.7-2.2,2.7-3.5,3.1l0.3,0.2l0.9,0.3c-0.9,0.3-1.7,0.3-2.2-0.2c-0.6-0.4-0.9-1.1-0.9-2.1c0-1.8,0.7-3.5,2-5.1
	c0.8-1.1,1.8-1.7,2.9-1.9c1.3-0.3,2.1,0.4,2.4,1.8L167.3,120.5z"/>
<path id="Layer0_5_MEMBER_4_MEMBER_0_MEMBER_5_MEMBER_150_1_STROKES" class="st10" d="M166.8,120.1c0.3,1.4,0,3-1,4.7
	c-1,1.7-2.1,2.7-3.5,3.2h0l0.1,0l0.1,0l0.1,0l0.1,0l0.1,0l0.1,0l0.5,0.2c-1.9,0.5-2.9-0.2-3-2.3c0-1.9,0.5-3.4,1.6-4.7
	c0.7-1.2,1.7-2,3-2.4c1.4-0.4,2.3,0.2,2.7,1.8C167.2,120.4,166.9,120.2,166.8,120.1z"/>
<path id="Layer0_11_MEMBER_1_1_STROKES" class="st12" d="M289.8,67.5h-84V39.8h84V67.5z"/>
<text transform="matrix(1 0 0 1 180.1513 17.2057)" class="st13 st14">Valve Actuator </text>
<text transform="matrix(1 0 0 1 188.2835 94.9982)" class="st13 st14">Shut-off Valve</text>
<text transform="matrix(1 0 0 1 221.8639 59.0877)" class="st13 st14">4900-P7</text>
</svg>
