<?xml version="1.0" encoding="utf-8"?>
<!-- Generator: Adobe Illustrator 24.3.0, SVG Export Plug-In . SVG Version: 6.00 Build 0)  -->
<svg version="1.1" id="Ebene_1" xmlns="http://www.w3.org/2000/svg" xmlns:xlink="http://www.w3.org/1999/xlink" x="0px" y="0px"
	 viewBox="0 0 349.1 161" style="enable-background:new 0 0 349.1 161;" xml:space="preserve">
<style type="text/css">
	.st0{fill:#2D2C2E;}
	.st1{fill:#0099FF;}
	.st2{fill:#FF9900;}
	.st3{fill:#CCCCCC;}
</style>
<path class="st0" d="M106.8,146.6l0.2,0l0.3-2.1l-0.3,0L106.8,146.6 M106.7,148.7l-0.2-0.1l-0.3,2.1l0.2,0L106.7,148.7 M106.2,152.8
	l-0.2,0l-1,6.7l0.3,0L106.2,152.8 M97.1,150.2v0.2l9.1,0.8l0-0.2L97.1,150.2 M97.2,152.1h-0.3l-0.1,6.7h0.3L97.2,152.1 M97.2,148.1
	H97l-0.1,2h0.3V148.1 M97.1,144l0,2h0.2l0-2H97.1 M97.7,125.8h-0.3v2h0.2L97.7,125.8 M97.5,129.8h-0.2L97.1,142h0.3L97.5,129.8
	 M97.5,121.8l0,2h0.3v-2H97.5 M97.9,112.9h-0.2l-0.1,6.8h0.2L97.9,112.9 M97.7,40.5h-0.2l0.1,6.8h0.2L97.7,40.5 M97.7,36.5h-0.3l0,2
	h0.2V36.5 M97.4,32.5v2h0.3l-0.1-2H97.4 M107.3,15.8l-0.3-2.1l-0.2,0l0.2,2H107.3 M106.4,9.5l-0.2,0.1l0.3,2l0.2,0L106.4,9.5
	 M97.4,18.3h-0.3l0.2,12.1h0.2L97.4,18.3 M97.3,14.3h-0.2l0,2h0.2L97.3,14.3 M97.2,10.2h-0.3l0.1,2.1h0.2V10.2 M97.1,9.8v0.2
	l9.2-0.9l0-0.2L97.1,9.8 M97.1,1.4h-0.3l0.1,6.8h0.3L97.1,1.4 M105.3,0.8l-0.3,0l1,6.7h0.2L105.3,0.8 M230.4,80v0.2h5.3V80H230.4
	 M229.5,80h-0.5v0.2h0.5V80 M127.8,4.4l-0.1-0.2V4.1l-0.3-0.2h-0.1l-0.2-0.2l-0.3-0.1h0l-0.3,0h-0.1l-0.3,0l-0.3,0.1h-0.1l-0.2,0.2
	L125,4.4l-0.2,0.5V5l0,0.3v0l0.1,0.7l0.1,0.2l0.2,0.3h0l0.2,0.2v0l0.2,0.2h0.1l0.3,0.1l0.3,0l0.1-0.1V7l0.3,0h0l0.3-0.1l0.2-0.2
	l0.1,0l0.3-0.2l0.1-0.3h0l0.2-0.6l0-0.4v0l0-0.3V4.9L128,4.7V4.6L127.8,4.4L127.8,4.4 M127.8,4.7L127.8,4.7l0,0.2l0,0.3v0l0,0.3
	l-0.1,0.5l-0.2,0.2v0L127,6.6V6.6l-0.3,0.1h-0.5l-0.3-0.1v0.1l-0.3-0.1h0l-0.2-0.2v0l-0.2-0.2h0l-0.2-0.2v0L125,5.3v0l0.1-0.5
	l0.2-0.3l0.3-0.3l0.3-0.2l0.3-0.1h0l0.2,0h0.1L127,4l0.2,0.2V4.1l0.3,0.2h0l0.2,0.2V4.4L127.8,4.7 M216.6,51.3L216.6,51.3l-0.4,0.2
	l-0.3,0.2v0l-0.5,0.7v0.1l-0.1,0.4v1l0.1,0.4l0.5,0.7l0.3,0.2l0.4,0.2l0.4,0.1h0l0.4,0l0.1-0.1v0.1l0.4,0l0.4-0.1l0.4-0.2h0l0.3-0.2
	l0.3-0.4l0.3-0.8v-1l-0.1-0.4v-0.1l-0.2-0.4h0l-0.3-0.3v0l-0.3-0.2h0l-0.4-0.2v-0.1l-0.8-0.2h-0.1l-0.4,0.1h0L216.6,51.3
	 M216.3,51.8l0.4-0.2l0.7-0.2l0.8,0.2h0l0.4,0.2v0l0.4,0.2h-0.1l0.3,0.3l0.2,0.4h0l0.1,0.4l0,0.4l0,0.5l-0.1,0.4h0l-0.4,0.6l-0.1,0
	l-0.3,0.2l-0.4,0.2h0l-0.4,0.1l-0.4,0l-0.4,0l-0.7-0.3h0l-0.3-0.3v0l-0.5-0.7l-0.1-0.4l0-0.4l0-0.5l0.1-0.4L216,52L216.3,51.8
	 M160.9,65.6L160.9,65.6l0-0.2h-0.2v0.1l-0.1,0.2h0l-0.1,0.1v-0.1l-0.2,0.2h0l-0.2,0.1l0.1-0.1l-0.2,0.1h-0.1l0,0.3l0.3-0.1h0
	l0.2-0.1l0.3-0.4L160.9,65.6 M181,41.9L181,41.9L181,41.9L181,41.9 M190.8,63.7h-0.1v33h11.9v-0.1h0.1V63.7h-0.1v-0.1h-11.8V63.7
	 M190.9,63.8h11.5v32.6h-11.5V63.8 M181.1,35.5v0.1V35.5l-0.8,0.7l0.1,0.1h-0.2v5h0.2l-0.1,0.1l0.6,0.6l0,0l0.1-0.1v0.1v0h-0.1h0
	v0.9h0.2V42h7.7v0.9l0.1,0.2h-7.8l0-0.1v-0.2h-0.2v0l0,0.1l0-0.1l0,0.1V43l-0.1,0.1l-0.2,0.1h-2.3l-1.1,0.2l0.1,0.1h-0.1v3.6h0.1v0
	h-0.8l0,0h0.1v-3.6h-0.1l0-0.1l-1.1-0.2h-2.4l-0.1-0.1v0.1l-0.1-0.2V42l0-0.1l0.6-0.6l-0.1,0v0h0.1v-5h-0.1l0.1-0.1l-0.7-0.7
	l-0.1,0.1v-0.1h-7.9v0.1l-0.1-0.1l-0.7,0.7l0.1,0.1h-0.1v5h0.1v0l-0.1,0l0.6,0.6l0.1-0.2l0,0l-0.1-0.1v-0.2h8.1v0.2l-0.2,0.2h-7.8
	v0.1l-0.1,0.1h0v0.9h0.2V42h7.7V43l0.1,0.2h-7.8l0-0.1V43l0-0.1h-0.2v0l0,0.1l-0.1,0.1l-0.1,0.1h-2.4l-1,0.2l0,0.1H161v3.6h0.1v0
	h-37.7v-4.5h-6.2l13.1-35.9l-0.2-0.1l-2.9,7.8l-8.2-3.5l3.8-7.5l0.3-0.5l0.7-0.7l0.5-0.4l1-0.4l1.1-0.2l0.7,0.1l0.8,0.3l0.7,0.4V1.9
	l0.6,0.5h0l0.3,0.3l0.2,0.3v0l0.2,0.4l0.3,0.7l0-0.1l0.1,0.4V6l-0.2,0.7l0.2,0l0.2-0.7l0-0.4V4.8l-0.1-0.4V4.4l-0.1-0.3l-0.3-0.8v0
	l-0.7-0.9v0l-0.6-0.5h-0.1l-0.7-0.4l-0.4-0.1h0L126.8,1l-1,0.1l-0.6,0.1h0l-0.5,0.2h0l-1,0.6h0l-0.4,0.4v0L123,2.9l-0.3,0.5
	l-13.4,26.2l-1.7-11.8l-0.3,0.1L109,30l-8.8,17.2l0.1,0.1l-0.2,0.1l-0.8,0.4h0l-0.6,0.4l-0.3,0.3h0l-0.7,1v0l-0.3,0.7h0l-0.1,0.4v0
	L97.1,51v2.3L87.6,72l-0.2,0.6h0l-0.1,0.4v0l-0.5,3.5l0.2,0l-0.1,0.1l4.9,2.6l0.1-0.1l0.1,0.1l0.6-1.2l3.7,2l-3.7,2l-0.6-1.2
	L91.8,81l-0.1-0.1l-4.9,2.6l0.1,0.1h-0.2l0.5,3.9v0.1l0.1,0.3h0l9.7,19.1l0.1,2.8l0.1,0.4l0.6,1.1v0.1l0.5,0.5h0l0.6,0.5v0.1
	l0.3,0.2h0.1l0.7,0.3l0.2,0l-0.1,0l8.8,17.3l-1.7,12.2h0.3l1.7-11.7l13.4,26.2l0.3,0.5v0l0.8,0.8v0l0.9,0.6h0l1.1,0.3h1.1l0.8-0.2h0
	l0.4-0.1l0.7-0.4h0.1l0.3-0.2v0l0.6-0.6l0.2-0.3l0,0l0.2-0.3l0.3-0.7v-0.1l0.1-0.8l-0.1-1.2l-0.1-0.3v-0.1l-0.1-0.3l-13.2-35.9h6.1
	v-0.1h0.1v-4.4h64v0.1h-0.1v3.6h0.1l0,0.1l1,0.2l0-0.1v0.1h2.4l0.1,0.1l0.1,0v0l0,0.2h0v0.9l-0.7,0.6l0.1,0.1h-0.1v5h0.1l-0.1,0.1
	l0.7,0.7l0.1-0.1v0.1h7.9v-0.1l0.1,0.1l0.7-0.7l-0.1-0.1h0.1v-5h-0.1l0.1-0.1l-0.7-0.6v-0.9l0-0.1h0l0-0.1v0.1l0-0.1h0l0.2,0h-0.1
	l0.1-0.1h2.3l1.1-0.2v-0.1h0.1v-3.6h-0.1v-0.1h15l1.6-0.3h0l1.4-0.6l0.7-0.5l0,0l1.8-1.6l0.9-1.3l0.6-1.4v0l0.3-1.6l0-7.3h2.4v-0.1
	h1.1v-0.1h0.1v-0.2h2.6v-0.1l0.1,0.1l0.4-0.3l-0.1-0.1h0.1V93h-0.1l0.1-0.1l-0.6-0.5v0.2h-1.5v-6.4h1.7V86l0.1,0.1l0.4-0.4l-0.1-0.1
	h0.1v-4.5h0l-0.4-0.4v0.1h-0.1v-0.1h-2.6v-0.2h-0.1v-0.1h-1.1v-0.1h0.5V80h-2.9v0h2.4v-0.1h1.1v-0.1h0.1v-0.2h2.6v-0.1l0.1,0.1
	l0.4-0.3l-0.1-0.1h0.1v-4.6h0l-0.3-0.3v-0.1h-1.8v-6.5h1.7v-0.1l0.1,0.1l0.4-0.3l-0.1-0.1h0.1v-4.5h-0.1l0.1-0.1l-0.4-0.3l-0.1,0.1
	v-0.1h-2.6v-0.2h-0.1V62h-1.1v-0.1h-2.4v-6.4l-0.1-1.7l-0.5-1.5l-0.4-0.7v0l-0.4-0.7h-0.1l-1-1.2v0l-1.2-1.1h0l-0.6-0.4l-1.5-0.6
	l0,0l-0.8-0.2l-1.7-0.1l0,0.3l0.9,0l1.6,0.3l1.4,0.6l0.6,0.4v0l1.2,1l1,1.2l0.7,1.4h0l0.5,1.5l0.1,1.6v6.1h-12.3l-1.2-0.2l0,0.1
	l-0.7-0.4l-0.6-0.4l-0.3-0.3v0l-0.2-0.3l-0.4-0.6v0l-0.2-0.4l-0.3-1.6l-0.2,0l0.1,0.8l0.1,0.4v0l0.1,0.4h0l0.2,0.4v0.1l1,1.2h0
	l0.3,0.2v0l0.3,0.2h0l1.1,0.5v6l0.1,0.2l0,0.2h0l0.1,0.2v0l0.5,0.4l0.2,0H225V80h-2.2v0.2h2.2v11.2h-12l-0.2,0.1h-0.2l-0.3,0.2
	l-0.2,0.2l-0.1,0.1v0.1l-0.2,0.3v5.9h-4.7l-0.8,0.1h-0.1l-0.7,0.2v0l-0.4,0.2l-0.9,0.7v0l-0.3,0.3l-0.5,0.6l-0.2,0.4l-0.1,0
	l-0.2,0.7v0.1l-0.1,0.4v10.7h-1l-0.2-0.1h-13.3v0.1l0-0.1l-0.2,0.1H187V94.8l0-0.2l-0.2-0.4h0l-0.1-0.1l0,0l-0.3-0.2l0,0l-0.4-0.1
	h-33.7l-0.2,0h0l-0.2,0l0,0l-0.3,0.2h0l-0.1,0.1l-0.2,0.5v18.1h-7.6V47.4h7.6v18.1l0,0l0.1,0.3v0l0.2,0.2h0l0.2,0.1l0.1,0.1h0.1
	l0.3,0.1h7.7v-0.3h-7.7l-0.3-0.1v0.1l-0.4-0.3v0l-0.1-0.1l-0.1-0.3v-7.8l0.1,0.2h0l0.1,0.4L152,59l0.6,0.6l0.6,0.5h0l1.1,0.4h3.1
	l0.4-0.1h0.1l1.1-0.5l0.8-0.8h0l0.5-0.7l0.3-0.6v7.5h0.2V47.4h0.9l0.3,0.1h13.3l0.4-0.1h0.6v9.5l0.1,0.7l0.1,0l0.3,0.7l0.4,0.7
	l0.6,0.5v0.1l0.7,0.4h0l1.1,0.4h6.6l0.4-0.1h0l1.1-0.5h0l0.3-0.2v-0.1l0.3-0.2l0.5-0.6h0.1l0.4-0.6l0.3-0.8v0l0.1-0.8v-9h1.9v-0.1
	h0.1v0.1l0.3-0.1h1.4l1.7,0.7l0.1,0l-0.1,0.1l10.9,4.5h0l1.3,0.5l0.1,0v0l0.2,0l1.1,0.4v3.9h0.2v-4h-0.1l0.1-0.1l-0.5-0.2v-0.1
	l0.1,0l1.3-3.3h-0.1l0.1-0.1l-0.8-0.6l-0.1,0.1l0-0.1l-0.8-0.4v-0.1l-1.4-0.5v0l-0.1-0.1l0-0.1v-0.1l0.3-0.6h10v-0.3h-9.8l0.7-0.3
	l-0.1-0.1l0.1,0l1.8-4.6l-0.1-0.1h0.1l-0.3-0.9l-0.1,0.1v-0.1l-7.3-3v0.1l-0.1-0.1l-0.9,0.4l0.1,0.1l-0.1-0.1l-1.9,4.6l0.1,0l-0.1,0
	l0.3,0.8h0.1v0l-0.1,0l-0.3,0.8l-0.1,0.1h-0.2l-2.2-0.9l0,0.1v-0.1l-1.1-0.1v0.1l-0.1,0l-1.3,3h-1.5v0h0.1v-3.6h-0.1v-0.1l-1-0.2
	l-0.1,0.1v-0.1h-2.3l-0.2-0.1v0.1l-0.1-0.1h0.1l-0.1-0.2V42h-0.1v0h0.1l0.1,0l0.6-0.6l-0.1-0.1h0.1v-5h-0.1l0.1-0.1l-0.6-0.7
	l-0.1,0.1v-0.1H181.1 M180.9,35.9l0.2-0.2h7.7l0.2,0.2v0.3h-8.1V35.9 M180.5,36.4h0.2v1.3h0.2v-1.3h8.1v1.3h0.3v-1.3h0.2v4.7h-0.2
	v-1.3H189v1.3h-8.1v-1.3h-0.2v1.3h-0.2V36.4 M164.8,36.2v-0.2l0.2-0.2h7.7l0.2,0.3v0.2H164.8 M164.3,36.4h0.2v1.3h0.3v-1.3h8.1v1.3
	h0.2v-1.3h0.2v4.7h-0.2v-1.3h-0.2v1.3h-8.1v-1.3h-0.3v1.3h-0.2V36.4 M172.8,42L172.8,42L172.8,42L172.8,42 M172.8,43.7l0.4-0.1
	l1-0.1h1.4l0.9,0.3v3.4l-0.5,0.1h-2.4l-0.7-0.2V43.7 M163.5,43.4l1.3,0.3v3.4l-1,0.1h-2.1l-0.5-0.1v-3.4l0.9-0.3H163.5 M165.1,43.7
	l2-0.3l5.4,0.3v3.4l-7.4-0.1V43.7 M177.4,47.1v-3.4l0.9-0.3h1.3l0.5,0.1l0.8,0.2v3.4l-0.3,0.1l-2.8,0L177.4,47.1 M189,41.6l-0.1,0.1
	v0h-7.8l0,0l-0.2-0.1v-0.2h8.1V41.6 M189,43.7l0.4-0.1l1-0.1h1.3l1,0.2v3.4l-0.5,0.1l-2.8,0l-0.4-0.1V43.7 M181.3,43.7l1-0.2
	l6.5,0.2V47l-5.1,0.2l-2.3-0.2V43.7 M178,47.4l0.3,0.1h11.2v9.4l-0.4,1.1l0,0l-0.2,0.4l-0.7,0.8l0,0l-0.5,0.5l-0.7,0.4l-0.7,0.2h0
	l-0.4,0.1h-5.7l-0.7-0.1v0l-0.4-0.1l-0.6-0.4l-0.8-0.7l-0.5-0.7v0.1l-0.4-1.1l-0.1-0.8v-9H178 M151.3,47.4h9.4v9l-0.2,1.2h0
	l-0.3,0.8v-0.1l-0.7,0.9l-0.6,0.5l-0.4,0.2l-0.7,0.3v0l-0.4,0.1h0l-0.4,0.1l-2.7-0.1l-0.7-0.2V60l-0.4-0.1h0.1l-0.7-0.5l-0.5-0.6v0
	l-0.5-0.6v0l-0.3-0.7l-0.1-0.5v0l-0.1-0.8V47.4 M201.8,38.5l0.3-0.1l7.2,2.9l0.1,0.3l-0.1,0.2l-7.5-3.1L201.8,38.5 M201.4,38.8
	l-0.5,1.2l0.2,0.1l0.5-1.3l7.5,3.1l-0.5,1.2l0.2,0.1l0.5-1.2l0.2,0l-1.8,4.4l-0.2-0.1l0.5-1.2l-0.2-0.1l-0.5,1.2l-7.5-3.1l0.5-1.3
	l-0.2-0.1l-0.5,1.2l-0.1,0l1.8-4.4L201.4,38.8 M199.7,44l-0.1-0.1l0.1-0.3l7.5,3.1l-0.1,0.3l-0.2,0.1l0.1,0.2h-0.1V47L199.7,44
	 M199.3,45l0.1,0l0.3-0.8l7,3l-0.3,0.8l-0.1,0.2l0.1,0.1l-4.4-1.8v0l-0.3-0.1l-2.5-1l0-0.1L199.3,45L199.3,45 M195.6,44.3l0.9,0.1
	l0.8,0.4h0l1.6,0.9l-1.2,3.1l-0.5,0l-0.5-0.1l-1.8-0.7l-0.6-0.5L195.6,44.3 M194.2,47.5l-0.2-0.1L194.2,47.5L194.2,47.5 M199.1,45.5
	l0-0.1l0.1,0.1H199.1 M199.2,45.8l2.7,0.8l4.1,2l-1.2,3.1l-1.8-0.6h0.1l-0.4-0.1l-4.8-2.3L199.2,45.8 M205.3,52.1l-0.3-0.2l1.3-3.1
	h0.4l2.2,0.7l0.7,0.6l-1.3,3.1l-0.8-0.1l-1.9-0.8L205.3,52.1L205.3,52.1 M207.5,46.8L207.5,46.8L207.5,46.8L207.5,46.8 M206.3,48.5
	l-0.1,0v0l-0.5-0.3L206.3,48.5 M212.1,61.8l0.6,0.1H225v6.6h-12.2l-0.1,0l-0.3-0.2h0l-0.1-0.1l-0.1-0.1v0l-0.1-0.2v0.1l-0.1-0.2
	V61.8 M227.8,62.3h0.8V63h-0.8V62.3 M228.8,62.6h2.5v4.9h-1.5v-4.4h-0.1V63h-0.9V62.6 M225.2,62.1h2.3v1h0.1v0.1h1.9v10.1h-1.9v0.1
	h-0.1v6.3h-2.3V62.1 M231.6,62.8L231.6,62.8l0,4.4l0,0V62.8 M231.6,74.6L231.6,74.6l0,4.4h0V74.6 M227.8,74.1h0.8v5.5h-0.8V74.1
	 M228.7,73.8h-0.9v-0.2h1.8v0.6h-0.7v-0.2h-0.1V73.8 M228.8,74.4h2.5v4.8h-2.5V74.4 M227.5,80.5v6.3h0.1v0.1h1.9V97h-1.9v0.2h-0.1v1
	h-2.3V80.5H227.5 M231.6,81.2L231.6,81.2l0,4.4l0,0V81.2 M227.8,80.7h0.8v5.5h-0.8V80.7 M229.6,86.1v0.6h-1.8v-0.2h0.9v-0.1h0.1
	v-0.2H229.6 M231.3,85.9h-2.5V81h2.5V85.9 M118.9,11.2l8.3,3.5l-11.9,32.5h-3.5l-1-6.6l-0.3,0.1l1,6.5h-4.7l-4.4-1.8l-0.1,0.2
	l3.8,1.6h-4.8v0.1h-0.1l0.1-0.1l-0.8,0.1l0.8-1.5l0.5-0.3h0.4l0.1,0.1l0.1-0.2l-0.1-0.1h-0.5l-0.2,0.1l7.7-15l0.1,0l0-0.2
	L118.9,11.2 M115.6,47.2l1.6-4.3h6v4.3H115.6 M98.8,48.4L98.8,48.4l0.6-0.4l0.7-0.3h0l0.4-0.1l0.8-0.1h41.8v65.4l-42.6-0.1l-0.4-0.1
	v0l-1.1-0.5h0.1l-0.3-0.2l-0.3-0.3v0l-0.5-0.6l-0.2-0.4v0.1l-0.3-0.7l-0.2-1.2V51l0.1-0.8v0l0.3-0.8l0.2-0.3l0,0.1l0.5-0.7
	L98.8,48.4 M91.9,72.7L91.9,72.7l0,0.2l0.1,0.2l0.2,0.1l3.4,1.8h-1.4l-0.2,0.1h0l-0.2,0.1l0.1,0.1l-0.1,0l-1.9,3.7L87,76.5l0.3-3
	l0.2-0.8v0.1l1.5-3l3.4,1.8L92,72.3l0.1,0.1H92l0,0v0h0v-0.1l0,0L91.9,72.7 M87.5,87.5l-0.2-0.7l-0.3-3l4.8-2.6l1.9,3.7l0.1,0
	l-0.1,0.1l0.1,0.1h0l0.2,0.2l0.2,0l2.9,0.1v21.2L87.5,87.5 M97.1,75l-1,0.1l-3.7-2v0l-0.2-0.1v0l-0.1-0.1h0l0-0.1l0-0.1v-0.1
	l0.4-0.7l4.5,2.4V75 M94,75.4l0.2-0.1l2.9-0.1v2l-3.2-1.7L94,75.4L94,75.4 M94.6,76.2l0.7,0.4l-1.2,2.2l-0.7-0.4L94.6,76.2 M94,76
	l-0.2-0.1L93,77.4l0.8-1.6l0.6,0.3l-1.2,2.2l-0.5-0.3l0.1-0.1L93,78L94,76 M95.2,79.3l-0.8-0.4l1.2-2.2l0.7,0.4L95.2,79.3
	 M97.1,77.6V78l-1,1.9l-0.8-0.4l1.2-2.2L97.1,77.6 M96.5,80L96.4,80l0.7-1.5v0.7l-0.4,0.7L96.5,80 M96.2,80.5l1,1.8v0.5l-0.5,0.3
	l-1.2-2.2L96.2,80.5 M97.1,81.2v0.7l-0.7-1.4l0.7-0.4v0.6l-0.2-0.4l-0.2,0.1L97.1,81.2 M96.4,83.2l-0.8,0.4l-1.2-2.1l0.8-0.5
	L96.4,83.2 M92.7,82.3l0.5-0.2l1.2,2.2l-0.5,0.2l0-0.1l0.2-0.1l-1-2l-0.2,0.1L92.7,82.3 M95.3,83.8l-0.7,0.4L93.4,82l0.8-0.4
	L95.3,83.8 M94,84.8L94,84.8l3.1-1.7v2l-3-0.1L94,84.8 M97.1,73.9l-8-4.3l8-15.8V73.9 M117.2,117.4l-1.6-4.3h7.6v4.3H117.2
	 M111.5,113.1l-1,6.6l0.3,0.1l1-6.7h3.5l12,32.6l-8.3,3.5l-9.6-18.8l0-0.2h-0.1l-7.7-15l0.1,0h0.4l0.2-0.1v-0.2l0,0.2l4.5-1.9H111.5
	 M101.3,114.6l-0.1-0.1l-0.7-1.4l0.4,0.1h5.3l-3.9,1.7l0,0l-0.3,0.1h-0.2l-0.2-0.1L101.3,114.6L101.3,114.6 M123.2,157.3
	L123.2,157.3l-0.3-0.5l-3.8-7.4l8.2-3.5l2.9,7.8l0.2,0.7v1.4l-0.1,0.4h0l-0.3,0.7v0l-0.2,0.4l-0.2,0.3l-0.6,0.6h0l-1,0.6v0l-0.8,0.2
	l-0.8,0.1l-0.5,0l-0.6-0.1h0l-0.6-0.2v0l-0.5-0.2h0l-0.4-0.3l-0.4-0.4v0L123.2,157.3 M231.6,93L231.6,93l0,4.4h0V93 M227.8,97.3h0.8
	V98h-0.8V97.3 M229.7,97.2h0.1v-4.4h1.5v4.9h-2.5v-0.4h0.9V97.2 M225,98.7v6.2l-0.1,0.8l-0.3,1.6h0l-0.3,0.7v0l-0.8,1.4l-1,1.2l0,0
	l-1.1,1l-0.7,0.4l-1.4,0.6v0l-0.8,0.2l-1.6,0.2h-13.7v-10.3l0.1-0.8l0.7-1.4v0l0.5-0.6l1.2-0.8l0.8-0.2l0.7-0.1H225 M225,91.7v6.7
	h-12.9v-5.8l0.2-0.5l0,0l0.3-0.2h0l0.4-0.1H225 M199.1,113.3l0.2,0l0.4-0.1h2.4l0.6,0.2v3.4l-0.9,0.3h-0.8l-1.4-0.2l-0.4-0.1V113.3
	 M193.3,113.1l5.6,0.2v3.3l-3.8,0.3l-3.6-0.3v-3.4L193.3,113.1 M198.4,116.9l0.5,0l0.2,0H198.4 M199,117.2v1h-7.7v-1l0-0.1h7.8
	L199,117.2 M199.1,118.4L199.1,118.4L199.1,118.4L199.1,118.4 M199.5,119.1h0.1v4.8h-0.1v-1.3h-0.2v1.3h-8.1v-1.3h-0.3v1.3h-0.1
	v-4.8h0.1v1.4h0.3v-1.4h8.1v1.4h0.2V119.1 M199.2,118.7v0.2h-8.1v-0.2l0.2-0.2h7.8L199.2,118.7 M199.2,124.4l-0.2,0.2h-7.7l-0.2-0.2
	v-0.2h8.1V124.4 M186.7,94.7L186.7,94.7v0.1v7.6l-0.2-0.5v-0.1l-0.4-0.7l-0.3-0.3l-1.3-0.9l-0.4-0.2l-0.8-0.1h-0.5l0,0.2l0.8,0.1
	l0.7,0.2l1,0.6l0.8,0.8v0l0.5,1.1h0l0.1,0.4l0.1,0.8v9h-35.4l0-9.3l0.1-0.8v0l0.1-0.4l0.4-0.7v0.1l0.2-0.3l0.5-0.6v0.1l0.3-0.2H153
	l1.4-0.6l0.8-0.1h27.4v-0.2h-27.9l-0.8,0.1v0.1l-0.7,0.3h0l-0.7,0.4l-0.6,0.6l-0.2,0.3l-0.4,0.7h0l-0.1,0.3v-7.8l0.1-0.3v0l0.1-0.1
	l0.1-0.1l0.1-0.1v0l0.2-0.1h-0.1l0.2,0h34l0.2,0h-0.1l0.3,0.2l0.2,0.2L186.7,94.7 M187.6,113.3l0.6-0.2h2.2l0.8,0.2v3.4l-1,0.2
	l-1.6,0.1l-1-0.3V113.3 M191.3,113.1L191.3,113.1L191.3,113.1L191.3,113.1 M191.3,116.7L191.3,116.7L191.3,116.7L191.3,116.7
	 M191.2,116.9l0.1,0l0.5,0H191.2 M153.9,105.9l-0.1,0.4v0.1l-0.1,0.4v0l0.1,0.8l0,0l0.2,0.4v0.1l0.2,0.3h0l0.3,0.2v0.1l0.4,0.2
	l0.5,0.1h0l0.4,0.1l0-0.1v0.1l0.8-0.2h0l0.4-0.2l0-0.1l0.6-0.6l0.2-0.4v0l0.1-0.4v-1l-0.3-0.8h0l-0.3-0.3v0l-0.3-0.2h0l-0.4-0.2
	l-0.8-0.2h0l-0.4,0.1h0l-0.5,0.1v0l-0.4,0.2l-0.3,0.2l0,0L153.9,105.9L153.9,105.9 M154.2,106l0.2-0.4v0.1l0.2-0.3l0.3-0.2l0.4-0.2
	h0l0.4-0.1h0.8l0.4,0.1h0l0.4,0.2v0l0.3,0.3l0.2,0.3v-0.1l0.2,0.4h-0.1l0.1,0.4l0,0.4l0,0.4l-0.1,0.4h0.1l-0.5,0.7v-0.1l-0.3,0.3
	l-0.4,0.2l0-0.1l-0.4,0.2h-0.8l-0.4-0.2v0.1l-0.4-0.2h0l-0.3-0.3v0.1l-0.5-0.7l-0.1-0.8l0-0.4L154.2,106 M216.6,104.7L216.6,104.7
	l-0.4,0.2l-0.3,0.2v0l-0.5,0.7l-0.1,0.4v1l0.1,0.4v0l0.2,0.4v0.1l0.3,0.3l0.3,0.2v0.1l0.4,0.2l0.4,0.1h0l0.4,0.1l0.1-0.1v0.1
	l0.8-0.2l0.4-0.2l0-0.1l0.3-0.2l0.3-0.4l0.2-0.4v0l0.1-0.4v-1l-0.3-0.8h0l-0.3-0.3v0l-0.3-0.2h0l-0.4-0.2v0l-0.8-0.2h-0.1l-0.4,0.1
	h0L216.6,104.7 M216.3,105.1l0.4-0.2l0.4-0.1h0.8l0.4,0.1h0l0.4,0.2v0l0.4,0.3h-0.1l0.3,0.3v-0.1l0.2,0.4h0l0.1,0.4l0,0.4l0,0.4
	l-0.1,0.4h0l-0.2,0.4l-0.3,0.3l-0.3,0.2l-0.4,0.2l0-0.1l-0.4,0.2H217l-0.4-0.2v0.1l-0.4-0.2h0l-0.3-0.3v0.1l-0.5-0.7l-0.1-0.8l0-0.4
	l0.1-0.4l0.2-0.4v0.1l0.2-0.3L216.3,105.1 M125.8,153.5l-0.3,0.1L125,154v0l-0.1,0.3l-0.1,0.6v0l0,0.4l0.2,0.6v0l0.2,0.2h0l0.2,0.1
	v0.1l0.6,0.2h0.3l0.1-0.1v0.1h0.4l0.5-0.2l0.1-0.1l0.3-0.1l0.4-0.8l0-0.4v0l0-0.3l-0.2-0.6l0,0l-0.1-0.2v-0.1l-0.3-0.2h-0.1
	l-0.2-0.1v0l-0.3-0.1h0l-0.3,0l-0.4,0L125.8,153.5L125.8,153.5 M125.3,154.2L125.3,154.2l0.3-0.3l0.6-0.3l0.2,0h0.1l0.2,0l0.3,0.1
	l0.2,0.1v-0.1l0.3,0.2h0l0.2,0.2l0.1,0.3h0l0.1,0.3v-0.1l0,0.3v0l0,0.3v0l-0.1,0.3h0l-0.1,0.3v0l-0.2,0.2v0.1l-0.5,0.3v-0.1
	l-0.5,0.1h-0.1l-0.2-0.1h0l-0.3-0.1v0.1l-0.3-0.1h0l-0.2-0.2v0.1l-0.2-0.2l0,0l-0.2-0.3l-0.1-0.3v0l0-0.3v0l0-0.3v0.1l0.1-0.3
	L125.3,154.2 M109.7,125.8l-0.3,2.1l0.2,0l0.3-2.1L109.7,125.8 M110.4,121.8h-0.2l-0.3,2.1h0.2L110.4,121.8 M94,81.8l-0.2,0.1l1.1,2
	l0.2-0.1L94,81.8 M95.8,83.4l0.2-0.2l-1.1-1.9l-0.2,0.1L95.8,83.4 M96,80.7l-0.2,0.1l1.1,2l0.2-0.1L96,80.7 M97,77.6l-0.2-0.1
	l-1.1,2l0.2,0.1L97,77.6 M94.7,78.9l0.2,0.1L96,77l-0.2-0.1L94.7,78.9 M95,76.5l-0.2-0.1l-1.1,1.9l0.2,0.2L95,76.5 M121.7,97.4v-0.1
	h-0.3l-0.1,0l-21.6,0v0.2l-0.1-0.1L98,98.9l0.1,0.1h-0.1v11.4H98l0,0.3l0.4,0.7v0l0.3,0.3l0.6,0.4h0l0.1,0v0.2h22.1v-0.2l0.1,0.1
	l1.5-1.4l-0.1-0.1h0.1V99.3h-0.1l0-0.2v0l-0.1-0.5v0l-0.1-0.1h0.3v-0.3H123l0,0l0.1-0.2l0,0l0.1-0.2l0.4-0.2l0.4-0.5l0-0.1l0.6-0.1
	v-0.1l0.1,0l-0.1-0.4v-0.2l-0.5,0.1V96l-0.5-0.1V96l-0.1,0l0,0.5l-0.1,0.1h-0.1l-0.2,0.1l0,0l-0.3,0.5v0.1l-0.5,0.3v-0.2h-0.2v0.4
	L121.7,97.4 M120.5,97.6h0.1l0,0.1v0h-0.2l-0.4,0.1l0,0.1l-0.6,0.4l0,0l-0.4,0.6h0l0.1-0.4l0.6-0.6v0l0.4-0.2L120.5,97.6
	 M121.3,97.6l0.1,0l0.3,0.1h0l0.2,0.1l0.1,0.1H122l-0.3-0.1v-0.1l-0.7-0.1l0.1,0H121.3 M124,96.1L124,96.1l-0.1,0.6h0.1l-0.3,0.4V97
	l-0.2,0.2l-0.1,0.1l0.2-0.2l-0.1-0.1l0.2,0.1l0.3-0.5L124,96.1 M123.1,97.3l0,0.1h0l-0.2,0.4v0l-0.1,0.1v0l-0.2,0.2l0,0h0l0.1,0
	l0-0.1h0v0.1l0.1-0.1l0.1-0.1l0.2-0.3L123.1,97.3L123.1,97.3v-0.1l0.1-0.2h0l0.2-0.2v0.1l0.1-0.1l-0.1,0.1l0,0l-0.2,0.3L123.1,97.3
	L123.1,97.3 M124.3,96.6L124.3,96.6l0.4-0.2v0.1L124.3,96.6 M122.6,97.8L122.6,97.8l-0.2,0v0.1l-0.1,0.1l0.1-0.2h-0.1v0l0.1,0v-0.1
	h0.1l0.2-0.1L122.6,97.8 M122.5,98.5L122.5,98.5l-0.1,0L122.5,98.5l0.2,0.2h-0.1l0,0.1L122.5,98.5 M122.4,98.2L122.4,98.2
	L122.4,98.2L122.4,98.2 M122.8,99.2l-0.1-0.4L122.8,99.2l0.1,0.8l0,0.1v0.2h0l-0.5,0.7l-0.3,0.4v0l-0.7,0.5h0.1L121,102v-0.1
	l-0.9,0.1l0,0.2l0.4-0.1l-0.2,0.1l-0.2,0.1v-0.1l-0.2,0.1h-0.2l-0.3-0.1v0.1l-0.2-0.1h-0.5v0.2l0.2,0h0.1l-0.2,0.1h0l-0.2,0.1v0
	l-0.2,0l-0.2,0H118l-0.2,0h-0.1l-0.1,0h-0.1l-0.2,0h0l0.5-0.2h0.2l0.3,0.1h0.4l0.1-0.1l0-0.2h-0.1l0.2-0.1h0.3l0.6,0.1h0.3v-0.2
	l0.1,0.1h0.3V102H120l-0.1,0h-0.1v0.1l-0.1-0.1v0h-0.2l0.2-0.1l0.8-0.1h0l0.5-0.1h0l0.5-0.2l0.3-0.2l0.6-0.6l0.2-0.3l0.1-0.7v0
	L122.8,99.2L122.8,99.2 M122.4,99.1v-0.4l0.1,0.2h-0.1l0.1,0.2H122.4 M121.6,98L121.6,98l0.2,0.1h-0.6v0.3h0.9v0.7l-2.9,0l0-0.1
	l0.2-0.3h0l0.2-0.3l0.2-0.2l0.3-0.1h-0.1l0.7-0.2h0.1l0.4,0.1h0L121.6,98 M120.5,101.5L120.5,101.5l-0.3,0v0l-0.3-0.1l-0.6-0.5
	l-0.2-0.3v0l-0.2-0.4l-0.1-0.7l0-0.4l0.1-0.3l-0.1,0.3v0.1l0,0.4v0l0.1,0.7h0.1l0.2,0.3v0l0.2,0.3h0l0.3,0.2v0l0.3,0.2h0
	L120.5,101.5L120.5,101.5 M121.2,101.3h-0.7l-0.3-0.1v0l-0.3-0.1l-0.2-0.2l-0.2-0.3h0l-0.2-0.3v0l0-0.2l3.3,0.1l-0.1,0.1l0.1,0
	l-0.4,0.6l-0.2,0.1l-0.1,0.1l-0.3,0.1l0,0L121.2,101.3 M121.9,101.8L121.9,101.8l0.3-0.3l0.6-0.7l0-0.1l0.1-0.1v9.9l-1.5,1.4h-20.2
	l0.2-0.1l0.1-0.1l0.3-0.2l0.5-0.8v0l0.2-0.8v0l-0.1-0.4v-0.4l-0.3-0.6l-0.2-0.3v-0.1l-0.2-0.2h0l-0.3-0.1l1.2-0.3l-0.1-0.1l0.1,0.1
	l0.6-0.3h0.3l0.2-0.1h0.1l0.4-0.2l0,0l0.1,0h0.2l0.2-0.1h0l0.4-0.1l0.3-0.2h0.6l0.3-0.1l-0.1-0.2l-0.3,0.1l0-0.1l-0.3,0.1h0
	l-0.5-0.1h-0.7l0.2-0.1l0.3,0l0.6,0.1h0l0.5-0.1h0.2l-0.1,0v0.1h0l0.1,0.2l0.3-0.2h0.4l0.2-0.1h0l0.2-0.1l0.1-0.1h0.5l0.2-0.1h0
	l0.1-0.1l0.4-0.2h0.3l0.4-0.1h0l0.3-0.3l0.1,0h0.3l0.2,0h0l0.2,0l0.2-0.1h0.1l0.1-0.1h0.3l0.2,0h0l0.2,0l0.4-0.2l0.6,0l0.4-0.1
	l0.2-0.2h0.6l0.4-0.2l0,0l0.1-0.1h0.7l0.3-0.2l0.2-0.1h0.5l0.5-0.2h0.1l-0.2-0.2l-0.7,0.1l-0.1,0h0.1l-0.1,0l0,0.1v-0.1h-0.5l-0.1,0
	l0.1,0.3l0.2-0.1h0.1l-0.1,0l0.1,0l-0.3,0.1l0,0l-0.2,0H115l-0.2,0h-0.1l-0.1,0H114l-0.2,0l0.1,0l0.4-0.1h0.1l0.4,0.1h0.5l0-0.3
	l-0.1,0H115l0.2-0.1h0.3l0.6,0.1h0l0.6-0.1h0h0l0.1,0.2l0.2-0.1h0.4l0.6-0.3l0.1-0.1h0l0.2,0h0.1l0.2,0h0l0.6-0.3l0.2,0h0.4l0.2,0h0
	l0.2-0.1h0l0.2-0.2l0.1-0.2l0.2,0L121.9,101.8 M122.6,99.4v0.5h-3.4l0-0.2l0-0.3L122.6,99.4 M107,105.7h-0.2l0.4-0.2h0.1l0.5,0.1
	h0.1l0.3-0.1l-0.1-0.2l-0.1,0.1h-0.1l0.2-0.1l0.3,0l0.5,0.1h0.3l0.1,0l-0.1-0.2l-0.1,0h-0.1l0.2-0.1h0l0.2,0h0.2l0.3,0.1h0.4l0.1,0
	h0.2h0.1l-0.1,0l0.1,0l-0.2,0.1l-0.2,0h-0.2l-0.4-0.1h-0.3l-0.2,0l0,0.2l0.1,0h0.2l-0.2,0.1l0.1,0l-0.4,0.1H109l-0.2-0.1v0.1h0v-0.1
	l-0.1,0l-0.5,0l0,0.2l0.2,0h0.2l-0.4,0.2v-0.1l-0.2,0.1h-0.5l-0.1-0.1h-0.4L107,105.7 M106.8,105.4L106.8,105.4l-0.2,0.1l-0.2,0.2
	l-0.1-0.1H106l-0.4,0.1l0,0l-0.4,0.2h-0.6l-0.2,0.2h-0.1l-0.2,0.1h-0.7v0.1l-0.3,0.1l-0.2,0.1h-0.4l-0.2,0.1l-1.9,0.7l0,0.1h0l0,0
	h-0.1l0,0h0l0,0l-0.8,0.2h0l-0.3,0.2l-0.2,0.2h-0.1l-0.2,0.3l-0.2,0.5V99l1.4-1.5h20.2l-0.2,0.1l-0.4,0.3V98l-0.3,0.3l-0.1,0.4l0,0
	l-0.1,0.4v0l-0.1,0.4v0.1l0.2,0.8l0,0.1l0.1,0.4l0.2,0.3h0l0.3,0.3v0l0.3,0.2h0l0.2,0.1h-0.2l-0.3,0.2h-0.2l-0.1,0.1l-0.2,0l-0.4,0
	l0,0l-0.3,0.1h0l-0.2,0.1h-0.5l-0.2,0.1v0l-0.2,0.1l-0.2,0.1h-0.5l-0.2,0.1l-0.1,0l-0.2,0.2h-0.6l0,0l-0.3,0.1h0l-0.2,0.2H114
	l-0.2,0.1l0,0.1l-0.4,0.2l-0.3,0l-0.5,0.1v0l-0.2,0.1l-0.1,0.1l-0.1,0h-0.2l-0.2,0h-0.1l-0.2,0.1v0l-0.3,0.2h-0.4l-0.2,0.1l-0.3,0.1
	l-0.1,0.1l-0.2,0h-0.2l-0.2,0l-0.5,0.2h-0.1l-0.1,0.1l-0.2,0h0l-0.3,0v0l-0.3,0.1l-0.2,0.1l-0.1,0h-0.3L106.8,105.4 M106.2,105.9
	l0.4,0.1h-0.9l-0.1,0.1l0-0.1l0.4-0.1H106.2 M107.2,105.9h0.2H107.2L107,106L107.2,105.9 M112.7,104.1L112.7,104.1L112.7,104.1
	l0.4-0.2l0.4,0.1h0.4l0.4-0.1h0.1l-0.2,0.1l-0.4,0l-0.2,0l-0.1,0H113L112.7,104.1 M111.3,104.6h0.2l0.1,0h0.1l0.1,0h0.1l-0.1,0.1v0
	l-0.1,0.1l-0.2,0h-0.2l-0.4-0.1h-0.4l-0.2,0.1h-0.1l0.1-0.1h0.7L111.3,104.6 M111.4,104.4l0.1-0.1l0.4-0.1h0.1l0.1,0h0.6l0.2,0h0.1
	v0l-0.3,0.1l0.1-0.1l-0.3,0.1l-0.5-0.1h-0.4L111.4,104.4 M116.2,103l0.4-0.1h0.2l0.3,0.1l0.7,0l-0.3,0.1l-1,0H116.2L116.2,103
	 M105,106.6L105,106.6l-0.4,0.1h0.1l-0.2,0.1h0l-0.5-0.1h-0.3l0,0.3h0.3h0.1l-0.1,0.1l0-0.1l-0.2,0.1l-0.2,0h-0.2l-0.2,0h-0.5v0
	l-0.1,0.1V107l-0.5,0.1l0.4-0.1l0.4-0.1h0.4l0.1,0.1h0.1l0.1-0.1v-0.3h-0.1l-0.1,0.1h-0.1l0.1-0.1l0.2-0.1h0.2l0.1,0h0.1l0.2,0.1
	h0.1l0.5-0.1L105,106.6L105,106.6L105,106.6 M102.9,107.2l-0.1,0.1l-0.3,0.1v0l-2.7,0.6v0l-0.4,0.1v0l-0.3,0.1l-0.3,0.3v0l-0.4,0.5
	l0,0.1l-0.1,0.4l0,0.4v0l0,0.4v0.1l0.1,0.3h0l0.2,0.4v0l0.5,0.5l0.7,0.3h0l-0.4-0.1v0.1l-0.3-0.2h0.1l-0.6-0.5h0l-0.2-0.2l-0.2-0.7
	v-0.7l0.1-0.4v0l0.4-0.6l0.5-0.4l0.3-0.1l0.4-0.1l3-0.7H102.9 M101.7,108.4L101.7,108.4l0.2,0.3v-0.1l0.3,0.6l-0.1,0l0.1,0.6
	l-0.1,0.8v-0.1l-0.2,0.4l-0.2,0.3l-0.7,0.5v-0.1l-0.4,0.1l-0.5,0H100l-0.2-0.1l0.2,0.1l0-0.1h0.5l0.3-0.1h0.1l0.3-0.1l0.6-0.6
	l0.1-0.4l0.2-0.7v0l-0.2-0.7v-0.1l-0.1-0.2h0l-0.2-0.3L101.7,108.4l-0.4-0.2L101,108l-0.1,0l0.1,0l0.5,0.2L101.7,108.4 M101.2,108.5
	L101.2,108.5l0.3,0.2h0l0.2,0.3v0l0.1,0.3v0l0.1,0.2l-3.3,0.1l0.2-0.5l0.2-0.3l0.3-0.2l0,0.1l0.3-0.2h0l0.7-0.1l0.7,0.1h0
	L101.2,108.5 M102,109.9L102,109.9l0,0.2l-3.4,0.1v-0.6l3.4,0L102,109.9 M101.9,110.3l-0.1,0.2v0l-0.1,0.3l-0.2,0.2l-0.3,0.2
	l-0.3,0.1l0,0l-0.4,0.1h0l-0.4,0.1l-0.7-0.2v0l-0.3-0.1h0l-0.3-0.3v0l-0.2-0.2h0l-0.2-0.3v0l-0.1-0.1L101.9,110.3 M104.2,78.8
	l-0.2,0.2l-0.3,0.5l-0.1,0l-0.1,0.3v0l-0.1,0.4l0.1,0.6l0.1,0.1l0.1,0.2l0.4,0.4v0.1l0.2,0.1h0l0.3,0.1h0.8l0.5-0.2l0.5-0.5l0.1-0.2
	v-0.1l0.1-0.3l0-0.3l0-0.4v0l-0.1-0.3v0l-0.1-0.2l-0.2-0.3l-0.2-0.2l-0.3-0.1v-0.1l-0.2-0.1h-0.8l-0.3,0.1l0,0.1L104.2,78.8
	 M104.4,78.9L104.4,78.9l0.5-0.2l0.3,0l0.3,0h-0.1l0.3,0.1h0l0.5,0.3h0l0.2,0.3v0l0.1,0.2h-0.1l0.1,0.3v0.5l-0.1,0.3l0.1,0l-0.1,0.3
	l-0.2,0.2h0l-0.5,0.3l0-0.1l-0.3,0.1h0.1l-0.3,0.1l-0.3-0.1h0l-0.2-0.1v0.1l-0.3-0.2h0l-0.2-0.1l-0.2-0.2l-0.1-0.3v0l-0.1-0.5
	l0.1-0.6l0.1-0.2v0l0.2-0.3L104.4,78.9 M121.5,48.2v-0.1H99.4v0.1h-0.1l-0.4,0.2l-0.4,0.3l-0.5,0.7h-0.1L98,49.9V50h-0.1v11.3H98
	l-0.1,0.1l1.6,1.5l0.1-0.1v0.1h20.6l0.7,0.1l0.5-0.1l0.1,0h0.2v0h0l0-0.2v0l-0.2,0.1h-0.5h-0.1h-0.5l-0.5-0.1h0.1l-0.4-0.1L119,62
	l-0.2-0.2v0.1l-0.2-0.3l-0.2,0.1l0.1,0.1l-0.1-0.1v0.1l-0.2-0.1h0.1l-0.3-0.2l-0.2-0.4l-0.1,0.1l0.1-0.1l-0.4-0.5l-0.2,0.1l0.1,0.2
	l-0.2-0.2l-0.2-0.2v0l-0.4-0.7l-0.1-0.1l-0.2,0.2l0.1,0.1h0l0.1,0.1l-0.3-0.2v0l-0.2-0.2h0.1l-0.2-0.3l-0.1,0.1l0.1-0.1l-0.2-0.3
	l-0.2-0.2l-0.2,0.2l0.2,0.2l-0.1,0v0l-0.2-0.2h0l-0.2-0.2l-0.2-0.3l-0.1-0.2l-0.3-0.2l-0.1-0.1l0.4,0.2l0.1,0.2L115,59v0l0.1,0.1
	l0.1,0.1l0.1-0.2h0.1l-0.1-0.1v0l0-0.1l0.3,0.2l0.2,0.2v-0.1l0.1,0.3l0,0v0l0.1,0.2v0.1l0.2,0.2l0.2-0.2l-0.2-0.2h0l0.2,0.2v-0.1
	l0.2,0.2v0l0.1,0.2l0.1,0.1l0.1,0.1l0.1,0.2l0.2,0.1l0.1-0.2l-0.1-0.1l0.3,0.2l0.1,0.1v0l0.1,0.2v0l0,0.1l0.2,0.2l0.4,0.4l0.2-0.2
	l-0.1-0.1l-0.1-0.1l0-0.1v0l-0.2-0.2h0.2l0.1,0.1l0.1,0.2l0.4,0.4l0.5,0.3h0l0.5,0.2l0.5,0.1l0.5,0l0.1-0.1v0.1l0.7-0.1l0.3-0.2v0
	l0.3-0.2l0.2-0.3h0.1v0.1l-0.3,0.4v0l-0.4,0.3l-0.2,0.1l0.1,0.2l0.3-0.1l0.5-0.3l0.4-0.4l0,0l0.3-0.5h0.8l0.1,0.1h0l0.2,0.1l0.2,0
	h0.3l0.2,0h0l0.5,0.5l0.1-0.1l0.1,0.1l0.2-0.2l-0.1-0.1l0.1-0.1l-0.3-0.2l0.2-0.1l-0.1-0.1l0.1-0.1l-0.2-0.2l-0.1,0.1l-0.1-0.1
	l-0.3,0.2l-0.2-0.1h0l-0.5-0.1h-0.4l-0.2,0l-0.2-0.1v0l-0.3-0.1h-0.2v-0.2l0-0.1V49.8H123l0.1-0.1L121.5,48.2L121.5,48.2
	 M107.3,52.8l-0.1-0.2l-0.2-0.3h0l-0.3-0.2l-0.2,0l-0.3-0.4v-0.1l-0.2-0.1h-0.1l-0.2-0.1l-0.2-0.1v0h0l-0.4-0.4l-0.2-0.2l-0.3-0.1
	l0,0.1l0-0.1h0v0l-0.1-0.1l-0.1-0.1h0l-1.9-1.3h-0.1v-0.1h-0.1l-0.6-0.5h0l-0.1,0h20.1l1.4,1.5v9.7l0-0.1l0,0l-0.1-0.1l-0.2-0.2v0
	l-0.4-0.4H122l-0.3-0.1v0l-0.2-0.1l-0.6-0.1h-0.5l-0.4,0.1l-0.1,0l-0.7,0.5l-0.3,0.3l-0.2,0.4l-0.2,0.9l0,0.3l0.1,0.2l-0.2-0.2h-0.1
	l-0.2-0.1H118l-0.4-0.5v0l-0.2-0.2l-0.3-0.1v0H117l-0.1-0.2l-0.5-0.4l0,0l-0.3-0.1v0.1l0,0l-0.1-0.2l-0.2-0.2h0l-0.6-0.4l-0.1-0.1
	h-0.1l-0.1-0.2v0l-0.2-0.1h0l-0.3-0.1v0l-0.1,0h-0.1l-0.1-0.2l-0.2-0.3h0l-0.3-0.1l0-0.1l-0.3-0.1l0-0.1l-0.4-0.4h-0.1l-0.2-0.1v0
	h-0.2l-0.1-0.2l-0.3-0.3h0l-0.2-0.1h0l-0.2-0.1l0,0l-0.4-0.5l-0.1,0.2l0.2,0.1l0.1,0.2l0.1,0.1l0.1,0.1v0l0.1,0.1l0.4,0.4v0l0,0h0
	l-0.3-0.2h0l-0.2-0.2l-0.3-0.5l0,0l-0.1,0.2l0,0.1l-0.2-0.1h0.1l-0.2-0.1v0l-0.2-0.2l-0.1-0.3l0-0.1l-0.1-0.1l-0.1-0.2l-0.1-0.1
	l-0.2,0.1l0.2,0.3l-0.2-0.1h0.1l-0.2-0.1l-0.1-0.1l-0.2-0.5l-0.3-0.2l-0.1,0.2l0.1,0.1l0.1,0.1l-0.3-0.2h0l-0.2-0.2l-0.1-0.2
	l-0.1-0.2l-0.1,0v0l-0.1-0.2v0l-0.1-0.1l-0.2,0.1l0.1,0.2l0.1,0.1l-0.3-0.2h0.1l-0.2-0.2l-0.2-0.4l-0.1-0.1v0l-0.1-0.1h0l-0.1-0.1
	l-0.1-0.1v0.1l-0.1-0.1l0.3,0.1l0.2,0.2v0l0.4,0.7h0.1l0.1-0.2v-0.1l0.3,0.3l0.2,0.3v0.1h0l0.1,0.1v0l0.1,0.1l0.1,0.1l0.2-0.2
	l-0.1-0.1v-0.1l0.2,0.1l0.2,0.2v-0.1l0.2,0.5v0l0.1,0.1l0.1,0.1l0.2-0.1l-0.2-0.2h0l0.5,0.4h-0.1l0.4,0.6l0.1,0.2l0.2-0.2l-0.1-0.2
	l0.2,0.1l0.2-0.2l-0.3-0.1l-0.1-0.1h-0.2l-0.1-0.3h-0.1l-0.2-0.2l-0.3-0.2v0l-0.3,0l-0.1-0.2l-0.3-0.2h0l-0.2-0.1l-0.4-0.2l-0.1-0.1
	l-0.2-0.2h0l-0.2-0.2l-0.1,0L107.3,52.8 M106.3,52.5L106.3,52.5l0.1,0.2l0.2,0.1l0.1-0.1l-0.1,0.1l0.1,0v0.1l-0.2-0.1l-0.2-0.2
	L106.3,52.5l-0.2-0.4h0l-0.4-0.4l0.1,0l0,0l0.2,0.1h0l0.3,0.4l0,0.1L106.3,52.5 M106.7,53.2l0.3,0.1l0.1,0.1v0.1l0.3,0.2l0.3,0.2
	l0.3,0.1l0.1,0.2v0l0.5,0.4h0.1l0.2,0.1l0.1,0.1v0.1l0.2,0.2l0.4,0.2h0.1l0.2,0.1l0.1,0.2l0.2,0.2v0.1l0.2,0.1h0l0.4,0.1l0.1,0.1
	l0.1,0.1v0l0.2,0.2l0.3,0.2h0l0.3,0.1l0.1,0.1l0.5,0.5h0l0.3,0.1l0.1,0.2l0.3,0.3l0.3,0.1h0l0.2,0.1l0.1,0.2v0l0.5,0.4l0.1,0
	l0.2,0.1l0.1,0.1v0.1l0.2,0.2h0.1l0.2,0.2h0l0.4,0.1l0.1,0.1v0l0.2,0.2v0.1l0.6,0.2l0.1,0.1v0l0.2,0.2l0.6,0.3l0.1,0.1v0.1l0.1,0.1
	v0l0.3,0.3h0.1l0.2,0.2h0.2l0.2,0.1h0.2l0,0l0.3,0.2v0l0.3,0.1H99.6l-1.4-1.4v-9.8l0.2,0.3v0l0.4,0.5l0.5,0.3h0l0.6,0.1h0l0.3,0
	l0.5,0l0.4-0.1l0.3-0.2h0.1l0.3-0.2l0.3-0.4v0l0.2-0.4v0l0.2-0.8l-0.1-0.3l1.2,0.9v0.1l0.2,0l0.2,0.1l0.1,0.1v0l0.2,0.2h0l0.2,0.2h0
	l0.3,0.1l0.1,0.1l0.2,0.2l0.3,0.2h0l0.3,0.1l0.1,0.2v0L106.7,53.2L106.7,53.2 M98.6,49.3l-0.2,0.3l0,0L98.3,50l0,0.4l0,0.4v0
	l0.1,0.4h0l0,0.1l0.1,0h-0.1v0h-0.1l-0.1-0.4l0-0.8L98.6,49.3l0.5-0.6l0.4-0.2l0.4-0.1h0.6l0.2,0l0.3,0l0.4,0.2h-0.1l0.3,0.2h0.1
	l2.2,1.8h0l0.1,0.1l-0.2-0.1l-0.1-0.1l-1.9-1.6l0,0V49l-0.1-0.1l-0.2-0.1l-0.7-0.3h-0.8l-0.4,0.1l-0.3,0.2L98.8,49V49L98.6,49.3
	 M99,49.2L99,49.2l0.3-0.3h0.1l2.1,2.6h0l-0.3,0.2l-0.1,0.1L99,49.2 M98.7,51.1L98.7,51.1l-0.1-0.4v-0.6l0.3-0.6l2,2.5l-0.3,0.1h0
	l-0.4,0.1L99.5,52l-0.3-0.1h0L99,51.6v0l-0.2-0.2h0L98.7,51.1 M98.5,51.5L98.5,51.5l-0.1-0.1L98.5,51.5 M98.5,51.5L98.5,51.5
	L98.5,51.5l0.6,0.5l0.3,0.1l0.4,0.1h0l0.4,0.1l0.4-0.1l0.3-0.1h0.1l0.3-0.1l0.6-0.6l0.1-0.3v0l0.2-0.7l-0.1-0.7l0.1,0.1l0.1,0.6
	l-0.1,0.8v0l-0.2,0.4l-0.3,0.3l-0.7,0.5l-0.4,0.1l-0.4,0l-0.6-0.1l-0.3-0.1v0.1L98.9,52h0l-0.2-0.2v0L98.5,51.5 M99.6,48.8l0.6-0.1
	l0.7,0.1h0l0.6,0.4h0l0.2,0.3v-0.1l0.1,0.3v0l0.2,0.7l-0.1,0.4v-0.1l-0.1,0.4v0l-0.1,0.3L99.6,48.8 M104.6,51.4L104.6,51.4l-0.1-0.2
	l-0.2-0.4l0,0l-0.1,0.1h0l0.1-0.1l-0.2-0.2v0l-0.1-0.1v0.1l-0.6-0.5l0.7,0.5l0.2,0.2v0l0.1,0.2h-0.1l0.1,0.2V51l0.2-0.1l0.4,0.3
	l0.3,0.5v0l0.4,0.4v0l-0.2-0.1l-0.2-0.2l-0.2-0.5l-0.1-0.1H105l-0.1,0.2v0L104.6,51.4 M122.8,60L122.8,60l-0.3-0.4h0l-0.1,0l0.1,0
	l0,0h0L122.8,60l0.1,0.2l0,0l0,0.6h0L122.8,60 M122.3,59.8L122.3,59.8l0.2,0.3l-0.1-0.1l0.1,0.4v0.5h-0.8V61l-1.4-1.9l0.2-0.1h0.7
	l0.4,0.1h0l0.6,0.4L122.3,59.8 M121.7,58.8L121.7,58.8l0.5,0.4v0l0.2,0.2l-0.1,0v0l-0.6-0.4L121.7,58.8l-0.8-0.1h-0.1l-0.3,0.1h-0.1
	l-0.4,0.1l0,0l-0.6,0.4l0,0l-0.4,0.6H119l-0.1,0.8l0.1,0.8h0.1l0.1,0.1h0v0l-0.1,0l-0.2-0.7l0-0.7l0.1-0.4l0.2-0.4l0.2-0.3l0.3-0.2
	l0.4-0.2l0.4-0.1l1,0L121.7,58.8 M120.9,62.4h-0.4l-0.4-0.1v0l-0.5-0.4v0l-0.2-0.3h0l-0.2-0.3v0l-0.1-0.7l0.1-0.7V60l0.2-0.4h0
	l1.9,2.6L120.9,62.4 M122.2,61.9L122.2,61.9L122.2,61.9l-0.5,0.3l-2-2.7v0l0.2-0.2l0.2-0.1L122.2,61.9 M123.2,61.2l0-0.1h0.1v0.1
	h0.5l0.1-0.1l0.2-0.1l0.5,0l0.1,0h-0.6l-0.3,0.1l-0.2,0.1v0h-0.2l-0.5-0.1l-0.1-0.1l-0.1,0.3v-0.3h0.1v0h0.2v0.1H123.2 M122.4,61.4
	L122.4,61.4l-0.1,0.3l-0.5-0.6h0.7L122.4,61.4 M125.3,61.6L125.3,61.6l0.3,0.2h0L125.3,61.6 M125.2,61.4L125.2,61.4l-0.2,0l-0.2,0.1
	h-0.2l-0.4-0.1h0.8L125.2,61.4l0.4-0.3l0,0L125.2,61.4 M113.6,57.8L113.6,57.8l-0.1-0.1v0.1h-0.1l0.1-0.1l-0.1-0.1h0l0-0.1l0.2,0.1
	l0.2,0.2v-0.1l0.1,0.3l0.1,0v0.1h0l0,0l0.1,0.2l0.2,0.2l0.1,0.1l0.1,0.1h0.1v0l-0.1,0l-0.2-0.2l-0.4-0.4l-0.1-0.3h0L113.6,57.8
	 M113.4,58L113.4,58l-0.2-0.1h0l-0.2-0.1l-0.1-0.1l-0.1-0.1v-0.1l-0.1-0.1l-0.2-0.3l-0.2-0.1l-0.1-0.1h0.1l0.1,0l0.4,0.4v0l0.1,0.2
	v0.2l0.4,0.3L113.4,58L113.4,58 M119.3,61.8L119.3,61.8L119.3,61.8L119.3,61.8 M111.6,56.2l0.2,0.2v-0.1l0.3,0.5v0.1l0.1,0.1
	l0.2,0.1h0l0.2,0.2h-0.1l-0.4-0.4v0l-0.3-0.5h0l-0.4-0.4L111.6,56.2 M113.2,57.5L113.2,57.5L113.2,57.5L113.2,57.5L113.2,57.5
	 M104.9,51.2L104.9,51.2l-0.1-0.1l-0.1,0.1l0.1,0.1h0l0.1,0.1l0.2-0.2L104.9,51.2 M104.8,51.1L104.8,51.1l-0.2,0.1l0.1,0L104.8,51.1
	 M110.4,55.7l0.2,0.2l0.2-0.2l-0.2-0.2L110.4,55.7 M135.7,88.7L135.7,88.7l-0.2,0.2l-0.1,0.2l-0.1,0.2v0.1l0.1,0.2h0l0.1,0.2v0
	l0.2,0.1h0.2l0-0.1v0.1h0.2l0.2-0.1l0.1,0l0.1-0.2v0l0-0.2l0-0.2v-0.1l-0.1-0.2h-0.1l-0.2-0.1v0H135.7 M136.3,89.1l0,0.1v0.2
	l-0.1,0.2l-0.1,0.1l0-0.1l-0.1,0.1h0l-0.2-0.1l-0.1-0.2v0.1l0-0.2l0.1-0.3l0.1-0.1h0l0.2,0h0l0.1,0h0L136.3,89.1 M136,70.3L136,70.3
	l-0.5,0.2v0l-0.1,0.2h0l-0.1,0.2V71l0.1,0.2h0l0.1,0.2v0l0.2,0.1h0l0.2,0.1l0.1-0.1l0,0.1l0.2-0.1l0.3-0.1l0.1-0.2v0l0-0.2v0l0-0.2
	v-0.1l-0.1-0.2l-0.3-0.1L136,70.3 M135.5,71l0.1-0.3l0.1-0.1h0l0.2,0h0l0.1,0h0l0.2,0.1l0,0.1v0.3l-0.1,0.1h0.1l-0.2,0.1h0l-0.2,0.1
	l-0.3-0.1h0L135.5,71 M110.2,36.5H110l0.3,2.1l0.2-0.1L110.2,36.5 M109.9,34.4l-0.3-2.1l-0.2,0.1l0.3,2H109.9 M155.2,51.4l-0.4,0.2
	l-0.3,0.2l0,0l-0.5,0.7l0,0.1l-0.1,0.4v0l-0.1,0.4v0.1l0.1,0.8l0,0l0.5,0.7h0l0.7,0.5l0.5,0.1h0l0.4,0l0-0.1v0.1l0.5,0l0.4-0.1h0
	l0.4-0.2h0l0.6-0.6l0.3-0.8v-1l-0.1-0.4v-0.1l-0.2-0.4h0l-0.3-0.3v0l-0.3-0.2h0l-0.4-0.2l0-0.1l-0.8-0.2h0l-0.4,0.1h0L155.2,51.4
	L155.2,51.4 M155.3,51.6L155.3,51.6l0.7-0.2l0.8,0.2h0l0.4,0.2v0l0.3,0.2l0.5,0.7h-0.1l0.1,0.4l0,0.4l0,0.5l-0.1,0.4h0.1l-0.5,0.7v0
	l-0.3,0.3l-0.4,0.2h0l-0.4,0.1l-0.4,0l-0.4,0l-0.4-0.1h0l-0.4-0.2h0l-0.3-0.3v0l-0.5-0.7l-0.1-0.4l0-0.4l0-0.5l0.1-0.4l0.5-0.7
	l0.3-0.2L155.3,51.6z"/>
<path class="st1" d="M199.2,117.3L199.2,117.3L199.2,117.3L199.2,117.3 M127.7,4.7L127.7,4.7l-0.1-0.3v0.1l-0.2-0.2h0l-0.3-0.2v0.1
	L127,4l-0.5-0.1h-0.1l-0.2,0h0L125.9,4l-0.3,0.2l-0.3,0.3l-0.2,0.3L125,5.3v0l0.1,0.6v0l0.2,0.2h0l0.2,0.2v0l0.2,0.2h0l0.3,0.1V6.6
	l0.3,0.1h0.5l0.3-0.1v0.1l0.5-0.3v0l0.2-0.2l0.1-0.5l0-0.3v0l0-0.3L127.7,4.7 M221.5,48.8L221.5,48.8l-0.6-0.4l-1.4-0.6l-1.6-0.3
	l-0.9,0h-10l-0.3,0.6v0.1l0,0.1l0.1,0.1v0l1.4,0.5V49l0.8,0.4l0,0.1l0.1-0.1l0.8,0.6l-0.1,0.1h0.1l-1.3,3.3l-0.1,0v0.1l0.5,0.2
	l-0.1,0.1h0.1v4l0.3,1.6l0.2,0.4v0l0.4,0.6l0.2,0.3v0l0.3,0.3l0.6,0.4l0.7,0.4l0-0.1l1.2,0.2H225v-6.1l-0.1-1.6l-0.5-1.5h0l-0.7-1.4
	l-1-1.2L221.5,48.8 M216.6,51.4L216.6,51.4l0.4-0.2h0l0.4-0.1h0.1l0.8,0.2v0.1l0.4,0.2h0l0.3,0.2v0l0.3,0.3h0l0.2,0.4v0.1l0.1,0.4v1
	l-0.3,0.8l-0.3,0.4l-0.3,0.2h0l-0.4,0.2l-0.4,0.1l-0.4,0v-0.1l-0.1,0.1l-0.4,0h0l-0.4-0.1l-0.4-0.2l-0.3-0.2l-0.5-0.7l-0.1-0.4v-1
	l0.1-0.4v-0.1l0.5-0.7v0l0.3-0.2L216.6,51.4 M216.7,51.6l-0.4,0.2L216,52l-0.5,0.7l-0.1,0.4l0,0.5l0,0.4l0.1,0.4l0.5,0.7v0l0.3,0.3
	h0l0.7,0.3l0.4,0l0.4,0l0.4-0.1h0l0.4-0.2l0.3-0.2l0.1,0l0.4-0.6h0l0.1-0.4l0-0.5l0-0.4l-0.1-0.4h0l-0.2-0.4l-0.3-0.3h0.1l-0.4-0.2
	v0l-0.4-0.2h0l-0.8-0.2L216.7,51.6 M180.9,42L180.9,42L180.9,42L180.9,42 M180.9,42L180.9,42L180.9,42L180.9,42 M180.9,41.9
	L180.9,41.9l0.1-0.1L180.9,41.9 M189.2,43.1L189.2,43.1L189.2,43.1L189.2,43.1 M189,41.9L189,41.9L189,41.9L189,41.9L189,41.9
	 M176.4,47.4h-0.6l-0.4,0.1h-13.3l-0.3-0.1H161v17.9h-0.2v-7.5l-0.3,0.6l-0.5,0.7h0l-0.8,0.8l-1.1,0.5h-0.1l-0.4,0.1h-3.1l-1.1-0.4
	h0l-0.6-0.5L152,59l-0.5-0.7l-0.1-0.4h0l-0.1-0.2v7.8l0.1,0.3l0.1,0.1v0l0.4,0.3v-0.1l0.3,0.1h7.7h0.1l0.2-0.1l-0.1,0.1l0.2-0.1h0
	l0.2-0.2v0.1l0.1-0.1h0l0.1-0.2v-0.1h0.2l0,0.2v0l-0.1,0.4l-0.3,0.4l-0.2,0.1h0l-0.3,0.1l0-0.3v0.3h-7.7l-0.3-0.1h-0.1l-0.1-0.1
	l-0.2-0.1h0l-0.2-0.2v0l-0.1-0.3l0,0V47.4h-7.6v65.4h7.6V94.7l0.2-0.5l0.1-0.1h0l0.3-0.2l0,0l0.2,0h0l0.2,0h33.7l0.4,0.1l0,0
	l0.3,0.2l0,0l0.1,0.1h0l0.2,0.4l0,0.2v18.1h1.3l0.2-0.1l0,0.1v-0.1h13.3l0.2,0.1h1v-10.7l0.1-0.4v-0.1l0.2-0.7l0.1,0l0.2-0.4
	l0.5-0.6l0.3-0.3v0l0.9-0.7l0.4-0.2v0l0.7-0.2h0.1l0.8-0.1h4.7v-5.9l0.2-0.3v-0.1l0.1-0.1l0.2-0.2l0.3-0.2h0.2l0.2-0.1h12V80.3h-2.2
	V80h2.2V68.7h-12.2l-0.2,0l-0.5-0.4v0l-0.1-0.2h0l0-0.2l-0.1-0.2v-6l-1.1-0.5h0l-0.3-0.2v0l-0.3-0.2h0l-1-1.2v-0.1l-0.2-0.4h0
	l-0.1-0.4v0l-0.1-0.4l-0.1-0.8l0.2,0h-0.2v-3.9l-1.1-0.4l-0.2,0v0l-0.1,0l-1.3-0.5h0L195,48.2l0.1-0.1l-0.1,0l-1.7-0.7H192l-0.3,0.1
	v-0.1h-0.1v0.1h-1.9v9l-0.1,0.8v0l-0.3,0.8l-0.4,0.6H189l-0.5,0.6l-0.3,0.2v0.1l-0.3,0.2h0l-1.1,0.5h0l-0.4,0.1h-6.6l-1.1-0.4h0
	l-0.7-0.4v-0.1l-0.6-0.5l-0.4-0.7l-0.3-0.7l-0.1,0l-0.1-0.7V47.4 M190.7,63.7h0.1v-0.1h11.8v0.1h0.1v32.9h-0.1v0.1h-11.9V63.7
	 M202.5,63.8h-11.5v32.6h11.5V63.8 M191.3,116.9l-0.1,0h0.7L191.3,116.9 M191.3,116.7L191.3,116.7L191.3,116.7L191.3,116.7
	 M191.3,113.1L191.3,113.1L191.3,113.1L191.3,113.1 M183.5,100l-0.8-0.1h-27.4l-0.8,0.1l-1.4,0.6h0.1l-0.3,0.2v-0.1l-0.5,0.6
	l-0.2,0.3v-0.1l-0.4,0.7l-0.1,0.4v0l-0.1,0.8l0,9.3h35.4v-9l-0.1-0.8l-0.1-0.4h0l-0.5-1.1v0l-0.8-0.8l-1-0.6L183.5,100 M153.8,106.3
	l0.1-0.4h0l0.5-0.7l0,0l0.3-0.2l0.4-0.2v0l0.5-0.1h0l0.4-0.1h0l0.8,0.2l0.4,0.2h0l0.3,0.2v0l0.3,0.3h0l0.3,0.8v1l-0.1,0.4v0
	l-0.2,0.4l-0.6,0.6l0,0.1L157,109h0l-0.8,0.2V109l0,0.1l-0.4-0.1h0l-0.5-0.1l-0.4-0.2v-0.1l-0.3-0.2h0l-0.2-0.3v-0.1l-0.2-0.4l0,0
	l-0.1-0.8v0L153.8,106.3L153.8,106.3 M154.4,105.6l-0.2,0.4l-0.1,0.4l0,0.4l0.1,0.8l0.5,0.7v-0.1l0.3,0.3h0l0.4,0.2v-0.1l0.4,0.2
	h0.8l0.4-0.2l0,0.1l0.4-0.2l0.3-0.3v0.1l0.5-0.7h-0.1l0.1-0.4l0-0.4l0-0.4l-0.1-0.4h0.1l-0.2-0.4v0.1l-0.2-0.3l-0.3-0.3v0l-0.4-0.2
	h0l-0.4-0.1h-0.8l-0.4,0.1h0l-0.4,0.2l-0.3,0.2L154.4,105.6L154.4,105.6 M186.7,94.7L186.7,94.7l0-0.2l-0.2-0.2l-0.3-0.2h0.1l-0.2,0
	h-34l-0.2,0h0.1l-0.2,0.1v0l-0.1,0.1l-0.1,0.1l-0.1,0.1v0l-0.1,0.3v7.8l0.1-0.3h0l0.4-0.7l0.2-0.3l0.6-0.6l0.7-0.4h0l0.7-0.3v-0.1
	l0.8-0.1h27.9v0.2l0-0.2h0.5l0.8,0.1l0.4,0.2l1.3,0.9l0.3,0.3l0.4,0.7v0.1l0.2,0.5v-7.6L186.7,94.7 M199.1,118.4L199.1,118.4
	L199.1,118.4L199.1,118.4 M199,116.9l-0.5,0h0.7L199,116.9 M225,98.4v-6.7h-12l-0.4,0.1h0l-0.3,0.2l0,0l-0.2,0.5v5.8H225 M225,104.9
	v-6.2h-17.8l-0.7,0.1l-0.8,0.2l-1.2,0.8l-0.5,0.6v0l-0.7,1.4l-0.1,0.8v10.3H217l1.6-0.2l0.8-0.2v0l1.4-0.6l0.7-0.4l1.1-1l0,0l1-1.2
	l0.8-1.4v0l0.3-0.7h0l0.3-1.6L225,104.9 M216.6,104.7L216.6,104.7l0.4-0.1h0l0.4-0.1h0.1l0.8,0.2v0l0.4,0.2h0l0.3,0.2v0l0.3,0.3h0
	l0.3,0.8v1l-0.1,0.4v0l-0.2,0.4l-0.3,0.4l-0.3,0.2l0,0.1l-0.4,0.2l-0.8,0.2V109l-0.1,0.1l-0.4-0.1h0l-0.4-0.1l-0.4-0.2v-0.1
	l-0.3-0.2l-0.3-0.3v-0.1l-0.2-0.4v0l-0.1-0.4v-1l0.1-0.4l0.5-0.7v0l0.3-0.2L216.6,104.7 M216.7,104.9l-0.4,0.2l-0.3,0.2l-0.2,0.3
	v-0.1l-0.2,0.4l-0.1,0.4l0,0.4l0.1,0.8l0.5,0.7v-0.1l0.3,0.3h0l0.4,0.2v-0.1l0.4,0.2h0.8l0.4-0.2l0,0.1l0.4-0.2l0.3-0.2l0.3-0.3
	l0.2-0.4h0l0.1-0.4l0-0.4l0-0.4l-0.1-0.4h0l-0.2-0.4v0.1l-0.3-0.3h0.1l-0.4-0.3v0l-0.4-0.2h0l-0.4-0.1H217L216.7,104.9 M229.8,97.2
	h-0.1v0.1h-0.9v0.4h2.5v-4.9h-1.5V97.2 M228.6,97.3h-0.8V98h0.8V97.3 M231.7,93.1L231.7,93.1l0,4.3h0V93.1 M125.2,154.2L125.2,154.2
	l-0.1,0.3l-0.1,0.3v-0.1l0,0.3v0l0,0.3v0l0.1,0.3l0.2,0.3l0,0l0.2,0.2V156l0.2,0.2h0l0.3,0.1v-0.1l0.3,0.1h0l0.2,0.1h0.1l0.5-0.1
	v0.1l0.5-0.3V156l0.2-0.2v0l0.1-0.3h0l0.1-0.3v0l0-0.3v0l0-0.3v0.1l-0.1-0.3h0l-0.1-0.3l-0.2-0.2h0l-0.3-0.2v0.1l-0.2-0.1l-0.3-0.1
	l-0.2,0h-0.1l-0.2,0l-0.6,0.3L125.2,154.2 M115.6,113.1l1.6,4.3h6v-4.3H115.6 M92,72.4L92,72.4L92,72.4L92,72.4 M92,72.3L92,72.3
	l0.1,0.1L92,72.3 M98.8,48.4L98.8,48.4l-0.3,0.2L98,49.2l0-0.1l-0.2,0.3l-0.3,0.8v0L97.4,51V109l0.2,1.2l0.3,0.7v-0.1l0.2,0.4
	l0.5,0.6v0l0.3,0.3l0.3,0.2h-0.1l1.1,0.5v0l0.4,0.1l42.6,0.1V47.4h-41.8l-0.8,0.1l-0.4,0.1h0L99.4,48L98.8,48.4 M135.9,70.3
	L135.9,70.3l0.2,0.1l0.3,0.1l0.1,0.2v0.1l0,0.2v0l0,0.2v0l-0.1,0.2l-0.3,0.1l-0.2,0.1l0-0.1l-0.1,0.1l-0.2-0.1h0l-0.2-0.1v0
	l-0.1-0.2h0l-0.1-0.2v-0.1l0.1-0.2h0l0.1-0.2v0L135.9,70.3 M135.7,88.7L135.7,88.7l0.5,0v0l0.2,0.1h0.1l0.1,0.2v0.1l0,0.2l0,0.2v0
	l-0.1,0.2l-0.1,0l-0.2,0.1H136v-0.1l0,0.1h-0.2l-0.2-0.1v0l-0.1-0.2h0l-0.1-0.2v-0.1l0.1-0.2l0.1-0.2L135.7,88.7 M121.5,48.1v0.1
	V48.1l1.6,1.6l-0.1,0.1h0.2v10.5l0,0.1v0.2h0.2l0.3,0.1v0l0.2,0.1l0.2,0h0.4l0.5,0.1h0l0.2,0.1l0.3-0.2l0.1,0.1l0.1-0.1l0.2,0.2
	l-0.1,0.1l0.1,0.1l-0.2,0.1l0.3,0.2l-0.1,0.1l0.1,0.1l-0.2,0.2l-0.1-0.1l-0.1,0.1l-0.5-0.5h0l-0.2,0h-0.3l-0.2,0l-0.2-0.1h0
	l-0.1-0.1h-0.8l-0.3,0.5l0,0l-0.4,0.4l-0.5,0.3l-0.3,0.1l-0.1-0.2l0,0.2h0v0h-0.2l-0.1,0l-0.5,0.1l-0.7-0.1H99.5v-0.1l-0.1,0.1
	l-1.6-1.5l0.1-0.1h-0.1V50H98v-0.1l0.1-0.4h0.1l0.5-0.7l0.4-0.3l0.4-0.2h0.1v-0.1H121.5 M104,78.9l0.2-0.2l0.2-0.1l0-0.1l0.3-0.1
	h0.8l0.2,0.1v0.1l0.3,0.1l0.2,0.2l0.2,0.3l0.1,0.2v0l0.1,0.3v0l0,0.4l0,0.3l-0.1,0.3v0.1l-0.1,0.2l-0.5,0.5l-0.5,0.2h-0.8l-0.3-0.1
	h0l-0.2-0.1v-0.1l-0.4-0.4l-0.1-0.2l-0.1-0.1l-0.1-0.6l0.1-0.4v0l0.1-0.3l0.1,0L104,78.9 M121.7,97.3v0.1l0.5,0.2v-0.4h0.2v0.2
	l0.5-0.3v-0.1l0.3-0.5l0,0l0.2-0.1h0.1l0.1-0.1l0-0.5l0.1,0v-0.2l0.5,0.1v0.3l0.5-0.1v0.2l0.1,0.4l-0.1,0v0.1l-0.6,0.1l0,0.1
	l-0.4,0.5l-0.4,0.2l-0.1,0.2l0,0l-0.1,0.2l0,0h0.2v0.3h-0.3l0.1,0.1v0l0.1,0.5v0l0,0.2h0.1v11.3h-0.1l0.1,0.1l-1.5,1.4l-0.1-0.1v0.2
	H99.4v-0.2l-0.1,0h0l-0.6-0.4l-0.3-0.3v0l-0.4-0.7l0-0.3h-0.1V98.9H98L98,98.9l1.5-1.5l0.1,0.1v-0.2l21.6,0l0.1,0H121.7
	 M101.8,110.6l0.1-0.2l-3.3,0.1l0.1,0.1v0l0.2,0.3h0l0.2,0.2v0l0.3,0.3h0l0.3,0.1v0l0.7,0.2l0.4-0.1h0l0.4-0.1l0,0l0.3-0.1l0.3-0.2
	l0.2-0.2L101.8,110.6L101.8,110.6 M102,109.9L102,109.9l0-0.3l-3.4,0v0.6l3.4-0.1L102,109.9 M101.2,108.4L101.2,108.4l-0.3-0.1h0
	l-0.7-0.1l-0.7,0.1h0l-0.3,0.2l0-0.1l-0.3,0.2l-0.2,0.3l-0.2,0.5l3.3-0.1l-0.1-0.2v0l-0.1-0.3v0l-0.2-0.3h0L101.2,108.4 M100,112
	L100,112l-0.2-0.1L100,112 M101.7,108.4L101.7,108.4l-0.2-0.2L101,108l-0.1,0l0.1,0l0.4,0.2L101.7,108.4l0,0.1l0.2,0.3h0l0.1,0.2
	v0.1l0.2,0.7v0l-0.2,0.7l-0.1,0.4l-0.6,0.6l-0.3,0.1H101l-0.3,0.1h-0.5l0,0.1l0.5,0l0.4-0.1v0.1l0.7-0.5l0.2-0.3l0.2-0.4v0.1
	l0.1-0.8l-0.1-0.6l0.1,0l-0.3-0.6v0.1L101.7,108.4 M99.8,108L99.8,108l-0.4,0l-0.3,0.1l-0.5,0.4l-0.4,0.6v0l-0.1,0.4v0.7l0.2,0.7
	l0.2,0.2h0l0.6,0.5h-0.1l0.3,0.2v-0.1l0.4,0.1h0l-0.7-0.3l-0.5-0.5v0l-0.2-0.4h0l-0.1-0.3v-0.1l0-0.4v0l0-0.4l0.1-0.4l0-0.1l0.4-0.5
	v0l0.3-0.3l0.3-0.1v0L99.8,108 M102.8,107.3l0.1-0.1L102.8,107.3l-3,0.6l2.7-0.6v0L102.8,107.3 M103.5,106.6l-0.1,0.1L103.5,106.6
	L103.5,106.6 M103.9,106.9h-0.3l0-0.3v0.3l-0.1,0.1h-0.1l-0.1-0.1h-0.4l-0.4,0.1l-0.4,0.1l0.5-0.1v0.1l0.1-0.1v0h0.5l0.2,0h0.2
	l0.2,0L103.9,106.9 M103.9,106.9L103.9,106.9l-0.1,0.1L103.9,106.9 M105,106.5h-0.1l-0.5,0.1h-0.1l-0.2-0.1H104l-0.1,0h-0.2
	l-0.2,0.1h0.1h0.3l0.5,0.1h0l0.2-0.1h-0.1L105,106.5 M105,106.5L105,106.5L105,106.5L105,106.5 M116.5,103l-0.4,0.1l0,0l0.2,0l1,0
	l0.3-0.1l-0.7,0l-0.3-0.1H116.5 M111.5,104.3l-0.1,0.1l0.4-0.1h0.4l0.5,0.1l0.3-0.1l-0.1,0.1l0.3-0.1v0h-0.1l-0.2,0h-0.6l-0.1,0H112
	L111.5,104.3 M111.5,104.6h-0.2l-0.1,0h-0.7l-0.1,0.1h0.1l0.2-0.1h0.4l0.4,0.1L111.5,104.6l0.2,0l0.1-0.1v0l0.1-0.1h-0.1l-0.1,0
	h-0.1L111.5,104.6 M112.6,104.1L112.6,104.1l0.3-0.1h0.4l0.1,0l0.2,0l0.4,0l0.2-0.1h-0.1l-0.4,0.1h-0.4l-0.4-0.1L112.6,104.1
	L112.6,104.1 M107.4,105.9h-0.2L107,106h0.2L107.4,105.9 M106.6,106l-0.4-0.1h-0.1l-0.4,0.1l0,0.1l0.1-0.1H106.6 M106.7,105.5
	L106.7,105.5l0.5-0.2h0.3l0.1,0l0.2-0.1l0.3-0.1v0l0.3,0h0l0.2,0l0.1-0.1h0.1l0.5-0.2l0.2,0h0.2l0.2,0l0.1-0.1l0.3-0.1l0.2-0.1h0.4
	l0.3-0.2v0l0.2-0.1h0.1l0.2,0h0.2l0.1,0l0.1-0.1l0.2-0.1v0l0.5-0.1l0.3,0l0.4-0.2l0-0.1l0.2-0.1h0.6l0.2-0.2h0l0.3-0.1l0,0h0.6
	l0.2-0.2l0.1,0l0.2-0.1h0.5l0.2-0.1l0.2-0.1v0l0.2-0.1h0.5l0.2-0.1h0l0.3-0.1l0,0l0.4,0l0.2,0l0.1-0.1h0.2l0.3-0.2h0.2l-0.2-0.1h0
	l-0.3-0.2v0l-0.3-0.3h0l-0.2-0.3l-0.1-0.4l0-0.1l-0.2-0.8v-0.1l0.1-0.4v0l0.1-0.4l0,0l0.1-0.4l0.3-0.3v-0.1l0.4-0.3l0.2-0.1H99.7
	L98.2,99v9.8l0.2-0.5l0.2-0.3h0.1l0.2-0.2l0.3-0.2h0l0.8-0.2l0,0h0l0,0h0.1l0,0h0l0-0.1l1.9-0.7l0.2-0.1h0.4l0.2-0.1l0.3-0.1v-0.1
	h0.7l0.2-0.1h0.1l0.2-0.2h0.6l0.4-0.2l0,0l0.4-0.1h0.3l0.1,0.1l0.2-0.2L106.7,105.5 M110.8,104.9L110.8,104.9L110.8,104.9
	L110.8,104.9 M109.7,105.2h-0.2l-0.1,0l-0.1,0h-0.3l-0.5-0.1l-0.3,0l-0.2,0.1h0.1l0.1-0.1l0.1,0.2l0-0.2l0.5,0l0.1,0v0.1h0v-0.1
	l0.2,0.1h0.2l0.4-0.1l-0.1,0L109.7,105.2 M109.2,105l0.1,0l0.1,0.2l0-0.2l0.2,0h0.3l0.4,0.1h0.2l0.2,0l0.2-0.1h-0.2l-0.1,0h-0.4
	l-0.3-0.1h-0.2l-0.2,0h0L109.2,105L109.2,105 M106.8,105.7h0.2l0.1-0.1h0.4l0.1,0.1h0.5l0.2-0.1v0.1l0.4-0.2h-0.2l-0.2,0l-0.3,0.1
	h-0.1l-0.5-0.1h-0.1L106.8,105.7 M122.6,99.9v-0.5l-3.4,0l0,0.3l0,0.2H122.6 M116.7,103.3l0.2,0.2L116.7,103.3L116.7,103.3
	 M115.3,103.7L115.3,103.7l0.3,0l-0.1,0l0.1,0h-0.1L115.3,103.7l-0.1-0.3L115.3,103.7l-0.5,0l-0.4-0.1h-0.1l-0.4,0.1l-0.1,0l0.2,0
	h0.6l0.1,0h0.1l0.2,0h0.1L115.3,103.7 M115.8,103.3v0.1V103.3l0.2,0h-0.1l0.1,0l0.7-0.1h0l-0.6,0.1h0l-0.6-0.1h-0.3l-0.2,0.1h0.1
	l0.1,0l0.1,0H115.8 M106.2,106.3L106.2,106.3l0.1,0.2L106.2,106.3 M106.2,106.2L106.2,106.2l-0.1,0l-0.5,0.1h0l-0.6-0.1l-0.3,0
	l-0.2,0.1h0.7l0.5,0.1h0l0.3-0.1l0,0.1L106.2,106.2L106.2,106.2 M122,101.7L122,101.7l-0.9,0.5l-0.2,0l-0.1,0.2l-0.2,0.2h0l-0.2,0.1
	h0l-0.2,0h-0.4l-0.2,0l-0.6,0.3h0l-0.2,0h-0.1l-0.2,0h0l-0.1,0.1l-0.6,0.3h-0.4l-0.2,0.1h-0.1l-0.5,0.2h-0.5l-0.2,0.1l-0.3,0.2h-0.7
	l-0.1,0.1l0,0l-0.4,0.2h-0.6l-0.2,0.2l-0.4,0.1l-0.6,0l-0.4,0.2l-0.2,0h0l-0.2,0h-0.3l-0.1,0.1H111l-0.2,0.1l-0.2,0h0l-0.2,0h-0.3
	l-0.1,0l-0.3,0.3h0l-0.4,0.1h-0.3l-0.4,0.2l-0.1,0.1h0l-0.2,0.1h-0.5l-0.1,0.1l-0.2,0.1h0l-0.2,0.1h-0.4l-0.3,0.2l-0.3,0.1h-0.6
	l-0.3,0.2l-0.4,0.1h0l-0.2,0.1h-0.2l-0.1,0l0,0l-0.4,0.2h-0.1l-0.2,0.1h-0.3l-0.6,0.3l-0.1-0.1l0.1,0.1l-1.2,0.3l0.3,0.1h0l0.2,0.2
	v0.1l0.2,0.3l0.3,0.6v0.4l0.1,0.4v0l-0.2,0.8v0l-0.5,0.8l-0.3,0.2l-0.1,0.1l-0.2,0.1h20.2l1.5-1.4v-9.9l-0.1,0.1l0,0.1l-0.6,0.7
	L122,101.7 M120.5,101.3h0.7l0.4-0.1l0,0l0.3-0.1l0.1-0.1l0.2-0.1l0.4-0.6l-0.1,0l0.1-0.1l-3.3-0.1l0,0.2v0l0.2,0.3h0l0.2,0.3
	l0.2,0.2l0.3,0.1v0L120.5,101.3 M120.5,101.6L120.5,101.6L120.5,101.6l-0.4-0.2h0l-0.3-0.2v0l-0.3-0.2h0l-0.2-0.3v0l-0.2-0.3H119
	l-0.1-0.7v0l0-0.4v-0.1l0.1-0.3l-0.1,0.3l0,0.4l0.1,0.7l0.2,0.4v0l0.2,0.3l0.6,0.5l0.3,0.1v0L120.5,101.6 M121.6,98L121.6,98
	l-0.3-0.1h0l-0.4-0.1h-0.1l-0.7,0.2h0.1l-0.3,0.1l-0.2,0.2l-0.2,0.3h0l-0.2,0.3l0,0.1l2.9,0v-0.7h-0.9v-0.3h0.6L121.6,98
	 M122.4,98.7v0.4h0.2l-0.1-0.2h0.1L122.4,98.7 M119,102.6h-0.1l-0.2,0l-0.1,0.1h-0.4l-0.3-0.1h-0.2l-0.5,0.2h0l0.2,0h0.1l0.1,0h0.1
	l0.2,0h0.3l0.2,0l0.2,0v0l0.2-0.1h0L119,102.6 M120.2,102.3l0-0.2L120.2,102.3h-0.3l-0.1-0.1v0.2h-0.3l-0.6-0.1h-0.3l-0.2,0.1h0.1
	l0,0.2v-0.2h0.5l0.2,0.1v-0.1l0.3,0.1h0.2l0.2-0.1v0.1l0.2-0.1l0.2-0.1L120.2,102.3 M122.8,98.8l0.1,0.4v0.1l0,0.4v0l-0.1,0.7
	l-0.2,0.3l-0.6,0.6l-0.3,0.2l-0.5,0.2h0l-0.5,0.1h0l-0.8,0.1l-0.2,0.1h0.2v0l0.1,0.1v-0.1h0.1l0.1,0h0.1l0.9-0.1v0.1l0.4-0.2h-0.1
	l0.7-0.5v0l0.3-0.4l0.5-0.7h0v-0.2l0-0.1l0-0.9L122.8,98.8 M122.4,98.2L122.4,98.2L122.4,98.2L122.4,98.2 M122.5,98.5L122.5,98.5
	l0.2,0.2l0-0.1h0.1L122.5,98.5L122.5,98.5L122.5,98.5 M122.4,98L122.4,98l0.1-0.2L122.4,98 M122.4,97.8L122.4,97.8L122.4,97.8
	L122.4,97.8 M122.6,97.7L122.6,97.7l0.1-0.1L122.6,97.7h-0.1v0.1L122.6,97.7 M124.3,96.6L124.3,96.6h0.4v-0.1L124.3,96.6
	 M122.6,98.2L122.6,98.2L122.6,98.2L122.6,98.2 M123.1,97.5l0-0.1l0,0l0-0.1l0.2-0.3l0,0l0.1-0.1l-0.1,0.1v-0.1l-0.2,0.2h0l-0.1,0.2
	l0,0.1V97.5L123.1,97.5l-0.2,0.3l-0.1,0.1l-0.1,0.1V98h0l0,0.1l0.2-0.2v0l0.1-0.1v0L123.1,97.5L123.1,97.5 M124.1,96.2L124.1,96.2
	l-0.1,0.4l-0.3,0.5l-0.2-0.1l0.1,0.1l-0.2,0.2l0.1-0.1l0.2-0.2v0.1l0.3-0.4H124L124.1,96.2 M121.4,97.6l-0.1,0h-0.2l-0.1,0l0.7,0.1
	v0.1l0.3,0.1h0.1l-0.1-0.1l-0.2-0.1h0L121.4,97.6 M120.7,97.6h-0.1l-0.4,0.1l-0.4,0.2v0l-0.6,0.6l-0.1,0.4h0l0.4-0.6l0,0l0.6-0.4
	l0-0.1l0.4-0.1h0.2L120.7,97.6L120.7,97.6 M104.4,78.9L104.4,78.9l-0.2,0.2l-0.2,0.3v0l-0.1,0.2l-0.1,0.6l0.1,0.5v0l0.1,0.3l0.2,0.2
	l0.2,0.1h0l0.3,0.2v-0.1l0.2,0.1h0l0.3,0.1l0.3-0.1h-0.1l0.3-0.1l0,0.1l0.5-0.3h0l0.2-0.2l0.1-0.3l-0.1,0l0.1-0.3v-0.5l-0.1-0.3h0.1
	l-0.1-0.2v0l-0.2-0.3h0l-0.5-0.3h0l-0.3-0.1h0.1l-0.3,0l-0.3,0L104.4,78.9 M118.3,61.3L118.3,61.3l0.1,0.1l0.1,0.1l-0.2,0.2l0.2-0.1
	l0.2,0.3v-0.1L119,62l0.5,0.4l0.4,0.1h-0.1l0.5,0.1h0.5l-0.5,0l-0.5-0.1l-0.5-0.2h0l-0.5-0.3l-0.4-0.4l-0.1-0.2l-0.1-0.1h-0.2
	L118.3,61.3L118.3,61.3 M116.4,59.8L116.4,59.8l-0.2-0.1h0L116.4,59.8l0.1,0.1l0.4,0.7v0l0.2,0.2l0.2,0.2l-0.1-0.2l0.2-0.1l0.4,0.5
	l-0.1,0.1l0.1-0.1l0.2,0.4l0.3,0.2h-0.1l0.2,0.1v-0.1l0.1,0.1l-0.1-0.1l-0.4-0.4l-0.2-0.2l0-0.1v0l-0.1-0.2v0l-0.1-0.1l-0.3-0.2
	l0.1,0.1l-0.1,0.2l-0.2-0.1l-0.1-0.2l-0.1-0.1l-0.1-0.1l-0.1-0.2v0L116.4,59.8 M116,59.9L116,59.9l0.1,0.2v0l0.3,0.2l-0.1-0.1h0
	l-0.1-0.1l0.2-0.2l-0.2,0.2L116,59.9 M116,59.9L116,59.9l-0.1-0.3v0l0,0L116,59.9 M115.2,59.4L115.2,59.4l0.2,0.2v0l0.1,0
	L115.2,59.4l-0.1-0.1l-0.1-0.1v0l-0.1-0.2l-0.1-0.2l-0.4-0.2l0.1,0.1l0.3,0.2l0.1,0.2l0.2,0.3L115.2,59.4 M115.2,59.3l0.2-0.2h-0.1
	L115.2,59.3 M115.5,59.2l-0.3-0.2l0,0.1v0l0.1,0.1l0.2,0.2l0.2,0.3l-0.1,0.1l0.1-0.1l-0.1-0.3v0.1L115.5,59.2 M120.9,62.6
	L120.9,62.6l0.1-0.1L120.9,62.6 M120.9,62.6h0.5l0.2-0.1v0l0.2-0.1l0.4-0.3v0l0.3-0.4v-0.1h-0.1l-0.2,0.3l-0.3,0.2v0l-0.3,0.2
	L120.9,62.6 M113.3,57.5L113.3,57.5L113.3,57.5L113.3,57.5L113.3,57.5 M111.8,56.4l-0.2-0.2l-0.3-0.1L111.8,56.4L111.8,56.4l0.2,0.6
	v0l0.4,0.4h0.1l-0.2-0.2h0l-0.2-0.1l-0.1-0.1v-0.1L111.8,56.4L111.8,56.4 M119.3,61.9L119.3,61.9l-0.1-0.1L119.3,61.9 M112.8,57.1
	L112.8,57.1l-0.4-0.3l-0.1,0h-0.1l0.1,0.1l0.2,0.1l0.2,0.3l0.1,0.1v0.1l0.1,0.1v-0.2L112.8,57.1 M113.5,58L113.5,58L113.5,58
	l-0.2-0.2l-0.4-0.3l0.1,0.1l0.2,0.1h0L113.5,58 M114.5,58.8L114.5,58.8L114.5,58.8L114.5,58.8 M114.4,58.7l-0.1-0.1l0.2,0.2
	L114.4,58.7 M113.6,57.7L113.6,57.7l0.1,0.2h0l0.1,0.3l0.4,0.4l-0.2-0.2l-0.1-0.2l0,0h0V58l-0.1,0l-0.1-0.3v0.1l-0.2-0.2l-0.2-0.1
	l0,0.1h0l0.1,0.1l-0.1,0.1h0.1v-0.1L113.6,57.7 M125.1,61.3L125.1,61.3l0.5-0.2l0,0L125.1,61.3H125h-0.8l0.4,0.1h0.2l0.2-0.1
	L125.1,61.3 M125.4,61.6L125.4,61.6l0.2,0.2h0L125.4,61.6 M122.5,61.3L122.5,61.3l0.1-0.2h-0.7l0.5,0.6L122.5,61.3 M122.9,61.1
	L122.9,61.1l-0.1,0.3L122.9,61.1L122.9,61.1 M123.3,61.1l0,0.1h-0.1v-0.1h-0.2l0.1,0.1l0.5,0.1h0.2v0l0.2-0.1l0.3-0.1h0.6l-0.1,0
	l-0.5,0l-0.2,0.1l-0.1,0.1h-0.5L123.3,61.1L123.3,61.1 M122.1,61.9L122.1,61.9l-2-2.8l-0.2,0.1l-0.2,0.2v0l2,2.7L122.1,61.9
	L122.1,61.9 M120.5,62.4h0.4l0.5-0.1l-1.9-2.6h0l-0.2,0.4V60l-0.1,0.7l0.1,0.7v0l0.2,0.3h0l0.2,0.3v0l0.5,0.4v0L120.5,62.4
	 M119,59.9l-0.1,0.4l0,0.7l0.2,0.7l0.1,0v0h0l-0.1-0.1H119l-0.1-0.8L119,59.9 M121.7,58.8L121.7,58.8l-0.2-0.1l-1,0l-0.4,0.1
	l-0.4,0.2l-0.3,0.2l-0.2,0.3l-0.2,0.4h0.1l0.4-0.6l0,0l0.6-0.4l0,0l0.4-0.1h0.1l0.3-0.1h0.1L121.7,58.8v0.1l0.6,0.4v0l0.1,0
	l-0.2-0.2v0L121.7,58.8 M122.3,59.7L122.3,59.7l-0.2-0.2l-0.6-0.4h0l-0.4-0.1h-0.7l-0.2,0.1l1.4,1.9v-0.1h0.8v-0.5l-0.1-0.4l0.1,0.1
	L122.3,59.7 M122.9,60.1L122.9,60.1l0-0.1l0,0.7h0L122.9,60.1 M122.8,60L122.8,60l-0.1-0.4h0l0,0l-0.1,0l0.1,0h0L122.8,60
	 M104.1,50.9L104.1,50.9l0.1-0.1L104.1,50.9 M104.9,51.2L104.9,51.2l0.1,0.1h0.1l0.1,0.1l0.2,0.5l0.2,0.2l0.2,0.1v0l-0.4-0.4v0
	l-0.3-0.5l-0.4-0.3l-0.2,0.1v0.1l-0.1-0.2h0.1l-0.1-0.2v0l-0.2-0.2l-0.7-0.5l0.6,0.5v-0.1l0.1,0.1v0l0.2,0.2l0,0l0.2,0.4l0.2,0.2
	h-0.1l0.2,0.1v0l0.1-0.2l-0.2,0.2l-0.1-0.1h0l-0.1-0.1l0.1-0.1L104.9,51.2 M104.7,51L104.7,51l-0.1,0.2l-0.1,0L104.7,51 M100.2,48.7
	l-0.6,0.1l2.1,2.6l0.1-0.3v0l0.1-0.4v0.1l0.1-0.4l-0.2-0.7v0l-0.1-0.3v0.1l-0.2-0.3h0l-0.6-0.4h0L100.2,48.7 M98.6,51.5L98.6,51.5
	l0.1,0.3v0l0.2,0.2h0l0.5,0.3v-0.1l0.3,0.1l0.6,0.1l0.4,0l0.4-0.1l0.7-0.5l0.3-0.3l0.2-0.4v0l0.1-0.8l-0.1-0.6l-0.1-0.1l0.1,0.7
	l-0.2,0.7v0l-0.1,0.3l-0.6,0.6l-0.3,0.1H101l-0.3,0.1l-0.4,0.1l-0.4-0.1h0l-0.4-0.1l-0.3-0.1L98.6,51.5L98.6,51.5 M98.5,51.5
	L98.5,51.5L98.5,51.5L98.5,51.5 M98.7,51.1L98.7,51.1l0.2,0.3h0l0.2,0.2v0l0.3,0.3h0l0.3,0.1l0.7,0.1l0.4-0.1h0l0.3-0.1l-2-2.5
	l-0.3,0.6v0.6L98.7,51.1 M99,49.2L99,49.2l2.1,2.8l0.1-0.1l0.3-0.2h0L99.4,49h-0.1L99,49.2 M101.3,48.7l0.2,0.1l-0.3-0.2h0.1
	l-0.4-0.2l-0.3,0L101.3,48.7 M101.7,49L101.7,49l0,0.1l1.9,1.6l0.1,0.1l0.2,0.1l-0.1-0.1h0L101.7,49l-0.1-0.1L101.7,49 M98.5,51.3
	L98.5,51.3L98.5,51.3L98.5,51.3 M98.4,49.6l0.2-0.3l0.2-0.3V49l0.3-0.2l0.3-0.2l0.4-0.1h0.8l-0.2,0h-0.6l-0.4,0.1l-0.4,0.2l-0.5,0.5
	L98.2,50l0,0.8l0.1,0.4h0.1l0-0.1h0l-0.1-0.4v0l0-0.4l0-0.4L98.4,49.6L98.4,49.6 M107,53.3l-0.3-0.1h0l-0.5-0.5v0l-0.1-0.2l-0.3-0.1
	h0l-0.3-0.2l-0.2-0.2l-0.1-0.1l-0.3-0.1h0l-0.2-0.2h0l-0.2-0.2v0l-0.1-0.1l-0.2-0.1l-0.2,0V51l-1.2-0.9l0.1,0.3l-0.2,0.8v0l-0.2,0.4
	v0l-0.3,0.4l-0.3,0.2h-0.1l-0.3,0.2l-0.4,0.1l-0.5,0l-0.3,0h0l-0.6-0.1h0l-0.5-0.3l-0.4-0.5v0l-0.2-0.3v9.8l1.4,1.4h19.9l-0.3-0.1v0
	l-0.3-0.2l0,0h-0.2l-0.2-0.1h-0.2l-0.2-0.2H118l-0.3-0.3v0l-0.1-0.1v-0.1l-0.1-0.1l-0.6-0.3l-0.2-0.2v0l-0.1-0.1l-0.6-0.2v-0.1
	l-0.2-0.2v0l-0.1-0.1l-0.4-0.1h0l-0.2-0.2H115l-0.2-0.2v-0.1l-0.1-0.1l-0.2-0.1l-0.1,0l-0.5-0.4v0l-0.1-0.2l-0.2-0.1h0l-0.3-0.1
	l-0.3-0.3l-0.1-0.2l-0.3-0.1h0l-0.5-0.5l-0.1-0.1l-0.3-0.1h0l-0.3-0.2l-0.2-0.2v0l-0.1-0.1l-0.1-0.1l-0.4-0.1h0l-0.2-0.1v-0.1
	l-0.2-0.2l-0.1-0.2l-0.2-0.1h-0.1l-0.4-0.2l-0.2-0.2v-0.1l-0.1-0.1l-0.2-0.1h-0.1l-0.5-0.4v0l-0.1-0.2l-0.3-0.1l-0.3-0.2l-0.3-0.2
	v-0.1L107,53.3 M106.3,52.5L106.3,52.5l0.2,0.3l0.2,0.1v-0.1l-0.1,0l0.1-0.1l-0.1,0.1l-0.2-0.1L106.3,52.5 M106.3,52.5L106.3,52.5
	l-0.1-0.2l0-0.1l-0.3-0.4h0l-0.2-0.1l0,0l-0.1,0l0.4,0.4h0L106.3,52.5 M111.6,56.6L111.6,56.6L111.6,56.6L111.6,56.6 M110.4,55.3
	l0.1,0.2l0.2,0.2l0,0l0.3,0.5l0.2,0.2h0l0.3,0.2l-0.4-0.4l-0.1-0.1v0l-0.1-0.1l-0.1-0.1l-0.1-0.2l-0.2-0.1l0.1-0.2l-0.2,0.2
	L110.4,55.3 M109.8,54.9L109.8,54.9l-0.4-0.4h0l0.2,0.2l0.1,0.1l0.1,0.2l0.1,0.1l0,0.1l0.1,0.3l0.2,0.2v0l0.2,0.1h-0.1l0.2,0.1
	l0-0.1l0.1-0.2l-0.2,0.2l-0.2-0.2l0.1-0.2l-0.2,0.2l-0.1-0.2L109.8,54.9 M108.5,53.8v0.1l0.1,0.1l0.3,0.2l0.2,0.5l0.1,0.1l0.2,0.1
	h-0.1l0.2,0.1l-0.2-0.3l0.2-0.1l-0.2,0.1l-0.1-0.1l-0.1-0.1v0l-0.2-0.5v0.1l-0.2-0.2L108.5,53.8 M108.2,53.8L108.2,53.8l0.1,0.2
	l0.2,0.2h0l0.3,0.2l-0.1-0.1l-0.1-0.1l0.1-0.2l-0.2,0.2l-0.1-0.1l-0.1-0.1v0L108.2,53.8 M107.6,53.2v0.1l-0.1,0.2l0.2-0.1l0.1,0.1v0
	l0.1,0.2v0l0.1,0l0.1,0.2v-0.1l-0.2-0.3L107.6,53.2 M106.5,52.4l0.1,0.1v-0.1l0.1,0.1l0.1,0.1h0l0.1,0.1v0l0.1,0.1l0.2,0.4l0.2,0.2
	h-0.1l0.3,0.2l-0.1-0.1l-0.1-0.2h-0.1l-0.4-0.7v0l-0.2-0.2L106.5,52.4 M107.2,52.6l0.1,0.2l0.2,0l0.1,0l0.2,0.2h0l0.2,0.2l0.1,0.1
	l0.4,0.2l0.2,0.1h0l0.3,0.2l0.1,0.2l0.3,0v0l0.3,0.2l0.2,0.2h0.1l0.1,0.3h0.2l0.1,0.1l0.3,0.1l0.4,0.5l0,0l0.2,0.1h0l0.2,0.1h0
	l0.3,0.3l0.1,0.2h0.2v0l0.2,0.1h0.1L113,57l0,0.1l0.3,0.1l0,0.1l0.3,0.1h0l0.2,0.3l0.1,0.2h0.1l0.1,0v0l0.3,0.1h0l0.2,0.1v0l0.1,0.2
	h0.1l0.1,0.1l0.6,0.4h0l0.2,0.2l0.1,0.2l0,0v-0.1l0.3,0.1l0,0l0.5,0.4l0.1,0.2h0.1v0l0.3,0.1l0.2,0.2v0l0.4,0.5h0.1l0.2,0.1h0.1
	l0.2,0.2l-0.1-0.2l0-0.3l0.2-0.9l0.2-0.4l0.3-0.3l0.7-0.5l0.1,0l0.4-0.1h0.5l0.6,0.1l0.2,0.1v0l0.3,0.1h0.1l0.4,0.4v0l0.2,0.2
	l0.1,0.1l0,0l0,0.1v-9.7l-1.4-1.5h-20.1l0.1,0h0l0.6,0.5h0.1V49h0.1l1.9,1.3h0l0.1,0.1l0.1,0.1v0h0l0,0.1l0-0.1l0.3,0.1l0.2,0.2
	l0.4,0.4h0v0l0.2,0.1l0.2,0.1h0.1l0.2,0.1v0.1l0.3,0.4l0.2,0l0.3,0.2h0L107.2,52.6 M136.3,89.2l0-0.1l-0.2-0.1h0l-0.1,0h0l-0.2,0h0
	l-0.1,0.1l-0.1,0.3l0,0.2v-0.1l0.1,0.2l0.2,0.1h0l0.1-0.1l0,0.1l0.1-0.1l0.1-0.2V89.2 M135.7,70.7l-0.1,0.3l0.2,0.2h0l0.3,0.1
	l0.2-0.1h0l0.2-0.1h-0.1l0.1-0.1v-0.3l0-0.1l-0.2-0.1h0l-0.1,0h0l-0.2,0h0L135.7,70.7 M117.2,42.9l-1.6,4.3h7.6v-4.3H117.2
	 M101.3,47.2l-0.1,0.1h0.1V47.2 M228.8,85.9h2.5V81h-2.5V85.9 M229.6,86.7v-0.6h-0.7v0.2h-0.1v0.1h-0.9v0.2H229.6 M228.6,80.7h-0.8
	v5.5h0.8V80.7 M231.7,81.3L231.7,81.3l0,4.4l0,0V81.3 M227.5,86.8v-6.3h-2.3v17.7h2.3v-1h0.1V97h1.9V86.9h-1.9v-0.1H227.5
	 M231.3,74.4h-2.5v4.8h2.5V74.4 M227.8,73.8h0.9v0.1h0.1v0.2h0.7v-0.6h-1.8V73.8 M228.6,74.1h-0.8v5.5h0.8V74.1 M231.7,74.6
	L231.7,74.6l0,4.4h0V74.6 M231.7,62.9L231.7,62.9l0,4.4l0,0V62.9 M227.5,62.1h-2.3v17.6h2.3v-6.3h0.1v-0.1h1.9V63.2h-1.9v-0.1h-0.1
	V62.1 M231.3,62.6h-2.5V63h0.9v0.1h0.1v4.4h1.5V62.6 M228.6,62.3h-0.8V63h0.8V62.3 M212.7,61.9l-0.6-0.1v5.9l0.1,0.2v-0.1l0.1,0.2v0
	l0.1,0.1l0.1,0.1h0l0.3,0.2l0.1,0H225v-6.6H212.7 M206.2,48.4l0.1,0l-0.6-0.3L206.2,48.4L206.2,48.4 M207.5,46.7L207.5,46.7
	L207.5,46.7L207.5,46.7 M199.1,45.4l0,0.1h0.1L199.1,45.4 M194,47.4l0.2,0.1l0-0.1H194 M207,47.2l-0.1-0.2v0.2H207 M160.7,47.4h-9.4
	v8.9l0.1,0.8v0l0.1,0.5l0.3,0.7v0l0.5,0.6v0l0.5,0.6l0.7,0.5h-0.1l0.4,0.1V60l0.7,0.2l2.7,0.1l0.4-0.1h0l0.4-0.1v0l0.7-0.3l0.4-0.2
	l0.6-0.5l0.7-0.9v0.1l0.3-0.8h0l0.2-1.2V47.4 M154.8,51.6l0.4-0.2v-0.1l0.5-0.1h0l0.4-0.1h0l0.8,0.2l0,0.1l0.4,0.2h0l0.3,0.2v0
	l0.3,0.3h0l0.2,0.4v0.1l0.1,0.4v1l-0.3,0.8l-0.6,0.6h0l-0.4,0.2h0l-0.4,0.1l-0.5,0v-0.1l0,0.1l-0.4,0h0l-0.5-0.1l-0.7-0.5h0
	l-0.5-0.7l0,0l-0.1-0.8v-0.1l0.1-0.4v0l0.1-0.4l0-0.1l0.5-0.7l0,0L154.8,51.6 M155.3,51.6L155.3,51.6l-0.4,0.2l-0.3,0.2l-0.5,0.7
	l-0.1,0.4l0,0.5l0,0.4l0.1,0.4l0.5,0.7v0l0.3,0.3h0l0.4,0.2h0l0.4,0.1l0.4,0l0.4,0l0.4-0.1h0l0.4-0.2l0.3-0.3v0l0.5-0.7h-0.1
	l0.1-0.4l0-0.5l0-0.4l-0.1-0.4h0.1l-0.5-0.7l-0.3-0.2v0l-0.4-0.2h0l-0.8-0.2L155.3,51.6 M178.3,47.5l-0.3-0.1h-1.4v9l0.1,0.8
	l0.4,1.1v-0.1l0.5,0.7l0.8,0.7l0.6,0.4l0.4,0.1v0l0.7,0.1h5.7l0.4-0.1h0l0.7-0.2l0.7-0.4l0.5-0.5l0,0l0.7-0.8l0.2-0.4l0,0l0.4-1.1
	v-9.4H178.3 M172.7,42L172.7,42L172.7,42L172.7,42z"/>
<path class="st2" d="M127.2,1.3l-0.7-0.1l-1.1,0.2l-1,0.4l-0.5,0.4l-0.7,0.7l-0.3,0.5l-3.8,7.5l8.2,3.5l2.9-7.8l0.2-0.7V4.4
	l-0.1-0.4l0,0.1l-0.3-0.7L129.7,3v0l-0.2-0.3l-0.3-0.3h0l-0.6-0.5V2L128,1.6L127.2,1.3 M127.7,4.1l0.1,0.2h0l0.1,0.2v0.1l0.1,0.2V5
	l0,0.3v0l0,0.4l-0.2,0.6h0l-0.1,0.3l-0.3,0.2l-0.1,0l-0.2,0.2L126.8,7h0l-0.3,0V6.9L126.4,7l-0.3,0l-0.3-0.1h-0.1l-0.2-0.2v0
	l-0.2-0.2h0L125,6.2L124.9,6l-0.1-0.7v0l0-0.3V4.9l0.2-0.5l0.5-0.5l0.2-0.2h0.1l0.3-0.1l0.3,0h0.1l0.3,0h0l0.3,0.1l0.2,0.2h0.1
	L127.7,4.1L127.7,4.1 M123.2,157.3L123.2,157.3l0.4,0.5v0l0.4,0.4l0.4,0.3h0l0.5,0.2v0l0.6,0.2h0l0.6,0.1l0.5,0l0.8-0.1l0.8-0.2v0
	l1-0.6h0l0.6-0.6l0.2-0.3l0.2-0.4v0l0.3-0.7h0l0.1-0.4v-1.4l-0.2-0.7l-2.9-7.8l-8.2,3.5l3.8,7.4L123.2,157.3 M125.5,153.6l0.3-0.1v0
	l0.3-0.1l0.4,0l0.3,0h0l0.3,0.1v0l0.2,0.1h0.1l0.3,0.2v0.1l0.1,0.2l0,0l0.2,0.6l0,0.3v0l0,0.4l-0.4,0.8l-0.3,0.1l-0.1,0.1l-0.5,0.2
	h-0.4v-0.1l-0.1,0.1h-0.3l-0.6-0.2v-0.1l-0.2-0.1h0L125,156v0l-0.2-0.6l0-0.4v0l0.1-0.6l0.1-0.3v0L125.5,153.6 M101.2,114.5l0.1,0.1
	v-0.1l0.2,0.2l0.2,0.1h0.2l0.3-0.1l0,0l3.9-1.7H101l-0.4-0.1L101.2,114.5 M110.5,119.7l1-6.6h-4.6l-4.5,1.9l0-0.2v0.2l-0.2,0.1h-0.4
	l-0.1,0l7.7,15h0.1l0,0.2l9.6,18.8l8.3-3.5l-12-32.6h-3.5l-1,6.7L110.5,119.7 M110.2,121.8h0.2l-0.2,2.1H110L110.2,121.8
	 M109.4,127.9l0.3-2.1l0.2,0l-0.3,2.1L109.4,127.9 M89.1,69.6l8,4.3V53.8L89.1,69.6 M94.6,84.2l0.7-0.4l-1.1-2.2L93.4,82L94.6,84.2
	 M93.7,81.9l0.2-0.1l1,2l-0.2,0.1L93.7,81.9 M93.2,82.1l-0.5,0.2l0.1,0.1l0.2-0.1l1,2l-0.2,0.1l0,0.1l0.5-0.2L93.2,82.1 M95.6,83.6
	l0.8-0.4L95.2,81l-0.8,0.5L95.6,83.6 M96,83.2l-0.2,0.2l-1.1-2l0.2-0.1L96,83.2 M97.1,81.8v-0.7l-0.4-0.8l0.2-0.1l0.2,0.4V80
	l-0.7,0.4L97.1,81.8 M97.1,82.3l-1-1.8l-0.8,0.4l1.2,2.2l0.5-0.3V82.3 M95.7,80.8l0.2-0.1l1.1,2l-0.2,0.1L95.7,80.8 M96.4,80
	l0.1,0.1l0.2-0.1l0.4-0.7v-0.7L96.4,80 M97.1,78v-0.4l-0.6-0.3l-1.2,2.2l0.8,0.4L97.1,78 M96.8,77.5l0.2,0.1l-1.1,2l-0.2-0.1
	L96.8,77.5 M94.4,78.9l0.8,0.4l1.1-2.1l-0.7-0.4L94.4,78.9 M94.9,79l-0.2-0.1l1.1-1.9L96,77L94.9,79 M93.8,75.8L94,76l-1,2l-0.2-0.1
	l-0.1,0.1l0.5,0.3l1.2-2.2L93.8,75.8L93,77.4L93.8,75.8 M95.3,76.5l-0.7-0.4l-1.2,2.2l0.7,0.4L95.3,76.5 M94.8,76.4l0.2,0.1l-1,1.9
	l-0.2-0.2L94.8,76.4 M96.2,75l1-0.1v-0.8l-4.5-2.4l-0.4,0.7v0.1l0,0.1l0,0.1h0l0.1,0.1v0l0.2,0.1v0L96.2,75 M87.3,86.8l0.2,0.7
	l9.6,19V85.3l-2.9-0.1l-0.2,0L93.8,85h0l-0.1-0.1l0.1-0.1l-0.1,0l-1.9-3.7L87,83.7L87.3,86.8 M91.9,72.7L91.9,72.7l0.1-0.3l0,0
	l0.4-0.7L89,69.8l-1.5,3v-0.1l-0.2,0.8l-0.3,3l4.8,2.6l1.9-3.7l0.1,0l-0.1-0.1l0.2-0.1h0l0.2-0.1h1.4l-3.4-1.8L92.1,73l-0.1-0.2
	L91.9,72.7 M102.3,45.5l0.1-0.2L102.3,45.5l-0.1-0.1h-0.4l-0.5,0.3l-0.8,1.5l0.8-0.1h4.8L102.3,45.5 M127.2,14.7l-8.3-3.5l-9.6,18.8
	l0,0.2l-0.1,0l-7.7,15l0.2-0.1h0.5l0.1,0.1l4.4,1.8h4.7l-1-6.5l0.3-0.1l1,6.6h3.5L127.2,14.7 M109.6,32.3l0.3,2.1h-0.2l-0.3-2
	L109.6,32.3 M110,36.5h0.2l0.2,2l-0.2,0.1L110,36.5z"/>
<path class="st3" d="M188.8,42.9V42h-7.7v0.8h-0.2v0h0.2v0.2l0,0.1h7.8L188.8,42.9 M172.6,43V42H165v0.8h-0.2v0h0.2l0,0.1v0.1l0,0.1
	h7.8L172.6,43 M172.6,41.8l0.2-0.2v-0.2h-8.1v0.2l0.1,0.1l0,0H172.6 M188.2,113.1l-0.6,0.2v3.4l1,0.3l1.6-0.1l1-0.2v-3.4l-0.8-0.2
	H188.2 M199,124.6l0.2-0.2v-0.2h-8.1v0.2l0.2,0.2H199 M199.2,118.9v-0.2l-0.2-0.2h-7.8l-0.2,0.2v0.2H199.2 M199.6,119.1h-0.1v1.4
	h-0.2v-1.4h-8.1v1.4h-0.3v-1.4h-0.1v4.8h0.1v-1.3h0.3v1.3h8.1v-1.3h0.2v1.3h0.1V119.1 M199,118.2v-1l0.1-0.1h-7.8l0,0.1v1H199
	 M198.9,113.3l-5.6-0.2l-1.9,0.2v3.4l3.6,0.3l3.8-0.3V113.3 M199.4,113.2l-0.2,0v3.4l0.4,0.1l1.4,0.2h0.8l0.9-0.3v-3.4l-0.6-0.2
	h-2.4L199.4,113.2 M205,51.8l0.3,0.2h0l0.3,0.2l1.9,0.8l0.8,0.1l1.3-3.1l-0.7-0.6l-2.2-0.7h-0.4L205,51.8 M201.9,46.6l-2.7-0.8
	l-1.3,3l4.8,2.3l0.4,0.1H203l1.8,0.6l1.2-3.1L201.9,46.6 M196.5,44.4l-0.9-0.1l-1.3,3.1l0.6,0.5l1.8,0.7l0.5,0.1l0.5,0l1.2-3.1
	l-1.6-0.9h0L196.5,44.4 M199.4,45l-0.1,0L199.4,45l-0.2,0.1l0,0.1l2.5,1l0.3,0.1v0l4.4,1.8l-0.1-0.1l0.1-0.2l0.3-0.8l-7-3L199.4,45
	 M199.6,43.8l0.1,0.1l7.2,3l0.2-0.1l0.1-0.3l-7.5-3.1L199.6,43.8 M200.9,40.1l0.5-1.2l-0.1-0.1l-1.8,4.4l0.1,0l0.5-1.2l0.2,0.1
	l-0.5,1.3l7.5,3.1l0.5-1.2l0.2,0.1l-0.5,1.2l0.2,0.1l1.8-4.4l-0.2,0l-0.5,1.2l-0.2-0.1l0.5-1.2l-7.5-3.1l-0.5,1.3L200.9,40.1
	 M202.1,38.4l-0.3,0.1l-0.1,0.2l7.5,3.1l0.1-0.2l-0.1-0.3L202.1,38.4 M182.3,43.5l-1,0.2V47l2.3,0.2l5.1-0.2v-3.3L182.3,43.5
	 M189.3,43.6l-0.4,0.1v3.4l0.4,0.1l2.8,0l0.5-0.1v-3.4l-1-0.2h-1.3L189.3,43.6 M188.9,41.8l0.1-0.1v-0.2h-8.1v0.2l0.2,0.1l0,0
	L188.9,41.8L188.9,41.8 M177.4,43.7v3.4l0.5,0.1l2.8,0l0.3-0.1v-3.4l-0.8-0.2l-0.5-0.1h-1.3L177.4,43.7 M167.1,43.4l-2,0.3V47
	l7.4,0.1v-3.4L167.1,43.4 M164.8,43.7l-1.3-0.3h-1.4l-0.9,0.3v3.4l0.5,0.1h2.1l1-0.1V43.7 M173.1,43.6l-0.4,0.1V47l0.7,0.2h2.4
	l0.5-0.1v-3.4l-0.9-0.3h-1.4L173.1,43.6 M164.5,36.4h-0.2v4.7h0.2v-1.3h0.3v1.3h8.1v-1.3h0.2v1.3h0.2v-4.7h-0.2v1.3h-0.2v-1.3h-8.1
	v1.3h-0.3V36.4 M164.8,35.9v0.2h8.1v-0.2l-0.2-0.3h-7.7L164.8,35.9 M180.7,36.4h-0.2v4.7h0.2v-1.3h0.2v1.3h8.1v-1.3h0.3v1.3h0.2
	v-4.7h-0.2v1.3H189v-1.3h-8.1v1.3h-0.2V36.4 M181.1,35.7l-0.2,0.2v0.2h8.1v-0.3l-0.2-0.2H181.1z"/>
</svg>
