<?xml version="1.0" encoding="utf-8"?>
<!-- Generator: Adobe Illustrator 24.3.0, SVG Export Plug-In . SVG Version: 6.00 Build 0)  -->
<svg version="1.1" id="Ebene_1" xmlns="http://www.w3.org/2000/svg" xmlns:xlink="http://www.w3.org/1999/xlink" x="0px" y="0px"
	 viewBox="0 0 349.1 161" style="enable-background:new 0 0 349.1 161;" xml:space="preserve">
<style type="text/css">
	.st0{fill:#CCCCCC;}
	.st1{fill:none;stroke:#000000;stroke-width:0.25;stroke-miterlimit:5;}
	.st2{fill:#0099FF;}
	.st3{fill:#00CC33;}
	.st4{fill:#1A181B;}
	.st5{font-family:'ArialMT';}
	.st6{font-size:14px;}
	.st7{fill:none;stroke:#FF9900;stroke-linecap:round;stroke-linejoin:round;}
</style>
<path d="M262,103.8L262,103.8l-0.7,0L262,103.8 M262.1,103.8l0.5-0.1C262.4,103.7,262.2,103.7,262.1,103.8L262.1,103.8 M87.9,80.8
	l0.4,0.7l10.2,5.9l0.1-0.1l0,0.1l1.2,0.3l0,0.3l3.2,0.7L98.7,87L87.9,80.8 M101.4,87.8l0-0.2L98.7,87L101.4,87.8 M101.4,87.9l0-0.1
	L98.7,87l4.3,1.6L251.4,119l0.5-0.3L101.4,87.9 M123.8,68.2c0.5-0.2,1-0.3,1.4-0.5c0.4-0.2,0.8-0.4,1.1-0.6l-5.1,1.8l0.9-0.2
	C122.8,68.5,123.3,68.4,123.8,68.2 M117,68.1c0.2,0.1,0.5,0.2,0.7,0.4l-0.5-0.3L117,68.1 M114.2,65.8l0.4,0.5
	c0.2,0.1,0.4,0.3,0.6,0.5c0.2,0.2,0.5,0.4,0.7,0.6c0.3,0.2,0.6,0.4,0.9,0.6c0,0,0.1,0.1,0.2,0.1L114.2,65.8 M114,65.8l0.1,0.1l0,0.1
	l0.4,0.4l-0.4-0.5l-0.4-0.3l-0.1-0.1C113.8,65.5,113.9,65.6,114,65.8 M114.2,65.8L114.2,65.8l-0.4-0.3L114.2,65.8 M113,64.1
	c-0.4-0.5-0.9-0.9-1.3-1.4l2.5,3.1l0.1,0.1l2.8,2.2h0l0.3,0.1l1.3,0.2c0,0-0.1,0-0.2,0c-0.2-0.1-0.4-0.2-0.6-0.2
	c-0.2-0.1-0.4-0.2-0.6-0.3c-0.2-0.1-0.3-0.2-0.5-0.3c-0.4-0.2-0.7-0.4-0.9-0.7c-0.3-0.2-0.5-0.4-0.7-0.6c-0.2-0.2-0.3-0.3-0.4-0.4
	l-0.3-0.3C113.8,65,113.4,64.6,113,64.1 M88.8,64.5l-0.2,0l-1.1,16.4l0.2,0.1L87.6,81l0.7,0.4l-0.4-0.7L89,65.3l0-0.7l0.2-0.1
	l0.2-0.6l-0.5,0.3l-0.1,0v0.1L88.8,64.5 M108.8,59l-0.2-0.2L108.8,59L108.8,59l0.4,0.7c0.2,0.4,0.4,0.7,0.7,1.1
	c0.2,0.3,0.5,0.7,0.8,1c0.2,0.4,0.5,0.7,0.8,1c0.3,0.3,0.6,0.7,0.8,1c0.3,0.3,0.6,0.6,0.9,0.9c0.1,0.1,0.3,0.3,0.4,0.4
	c0.1,0.1,0.2,0.1,0.2,0.2l0.1,0.1l0.3,0.2l-2.5-3.1l-0.2-0.4c-0.3-0.4-0.6-0.8-0.9-1.2c-0.4-0.5-0.7-1.1-1.1-1.7l-0.4-0.7h0
	L108.8,59 M109.9,57.9L109.9,57.9l-0.2,0.1l-0.1-0.2l-19.9,5.9v0l0,0.1l-0.1-0.1l-0.5,0.2l-0.2,0.6l19.4-5.7l0.2,0.2l0.2-0.2
	l-0.1-0.2l0.8-0.4l0.3,0.6c0.3,0.6,0.7,1.1,1.1,1.7c0.4,0.5,0.8,1.1,1.2,1.6c0.4,0.5,0.8,1,1.3,1.4c0.4,0.4,0.8,0.9,1.2,1.3l0.1,0.1
	h0l0.3-0.2v-0.1l-1.4-1.4l-2.4-3L109.9,57.9 M133,11.4h-0.4v14.1l-17.7,13l-0.1,0l-0.1,0.6l0.2,0l-0.1,0.2l0.3,0.1
	c0.4,0.2,0.9,0.4,1.4,0.6c0.5,0.2,0.9,0.5,1.4,0.8c0.5,0.3,0.9,0.6,1.4,0.9c0.4,0.4,0.9,0.7,1.3,1.1c0.4,0.4,0.8,0.8,1.2,1.2
	c0.4,0.5,0.8,0.9,1.2,1.4c0.4,0.5,0.8,0.9,1.2,1.4c0.3,0.5,0.7,1.1,1,1.6c0.3,0.5,0.7,1.1,1,1.6c0.3,0.5,0.6,1.1,0.8,1.7
	c0.2,0.5,0.5,1.1,0.7,1.7c0.2,0.6,0.4,1.1,0.6,1.7c0.2,0.6,0.3,1.2,0.4,1.7s0.2,1.1,0.3,1.7c0,0.5,0.1,1.1,0.1,1.7
	c0,0.5,0,1.1-0.1,1.6v0.1l0,0.2c0,0.1-0.1,0.3-0.1,0.5c-0.1,0.2-0.2,0.5-0.3,0.8c-0.1,0.3-0.3,0.6-0.5,1c-0.2,0.3-0.5,0.6-0.8,1
	c-0.2,0.2-0.4,0.3-0.6,0.5c-0.2,0.2-0.4,0.3-0.7,0.5c-0.2,0.1-0.5,0.3-0.8,0.4c-0.3,0.1-0.6,0.3-0.9,0.4c-0.3,0.1-0.7,0.2-1.1,0.3
	c-0.4,0.1-0.8,0.2-1.2,0.3c-0.2,0.1-0.5,0.2-0.7,0.2c-0.3,0-0.5,0.1-0.7,0.1h-0.2c-0.2,0-0.4,0-0.6,0c-0.2,0-0.4,0-0.6-0.1
	c-0.2-0.1-0.4-0.1-0.5-0.2l-1.3-0.2l0.5,0.3c0,0,0,0,0.1,0c0.4,0.1,0.8,0.2,1.2,0.3c0.4,0.1,0.8,0.1,1.3,0.1c0.3,0,0.6,0,0.9-0.1
	l5.1-1.8c0.4-0.2,0.7-0.5,0.9-0.7c0.2-0.2,0.5-0.5,0.7-0.7c0.2-0.2,0.4-0.5,0.5-0.7c0.2-0.2,0.3-0.5,0.4-0.7
	c0.1-0.2,0.2-0.4,0.2-0.6c0.1-0.4,0.2-0.7,0.3-1l0-0.3v-0.2c0.1-1.5,0.1-3-0.2-4.5c-0.3-1.6-0.8-3.2-1.4-4.7c-0.3-0.8-0.7-1.5-1-2.3
	c-0.4-0.8-0.8-1.5-1.3-2.2c-0.9-1.5-1.9-2.8-3-4.1c-1.1-1.2-2.3-2.3-3.6-3.2c-1.2-0.9-2.5-1.6-3.8-2h-0.1l0.1-0.2l17.8-13l0-0.1
	V11.4 M177.6,87.6c-0.2-0.3-0.5-0.6-0.7-0.8c-0.2-0.2-0.5-0.4-0.8-0.5c-0.3-0.2-0.5-0.3-0.8-0.3h-0.2c-0.3,0-0.6,0.1-0.8,0.3
	c-0.2,0.1-0.4,0.4-0.5,0.6c-0.1,0.2-0.2,0.6-0.2,0.9c0,0.2,0,0.5,0.1,0.7c0.1,0.2,0.1,0.5,0.2,0.7c0.1,0.2,0.2,0.5,0.3,0.7
	c0.1,0.2,0.3,0.5,0.4,0.7c0.2,0.2,0.3,0.4,0.5,0.6c0.1,0.2,0.3,0.4,0.6,0.5c0.2,0.1,0.4,0.3,0.6,0.4c0.2,0.1,0.4,0.2,0.7,0.2l0.4,0
	c0.3-0.1,0.6-0.2,0.8-0.3c0.2-0.2,0.4-0.4,0.5-0.7c0.1-0.3,0.1-0.6,0.1-1c0-0.3-0.1-0.7-0.2-1c-0.1-0.3-0.2-0.7-0.4-1
	C178,88.2,177.8,87.9,177.6,87.6 M176.8,87.3c0.1,0.1,0.3,0.3,0.4,0.5c0.1,0.2,0.3,0.4,0.4,0.6c0.1,0.2,0.2,0.4,0.3,0.7
	c0.1,0.2,0.2,0.4,0.2,0.7c0,0.2,0.1,0.5,0.1,0.7c0,0.3,0,0.6-0.1,0.9c-0.2,0.3-0.5,0.5-0.9,0.6h0l-0.3,0c-0.2-0.1-0.5-0.2-0.7-0.3
	c-0.2-0.1-0.4-0.3-0.7-0.6c-0.2-0.2-0.4-0.4-0.6-0.7c-0.2-0.3-0.4-0.6-0.5-0.9c-0.1-0.3-0.2-0.6-0.3-0.9c-0.1-0.3-0.1-0.6-0.1-0.8
	c0-0.1,0-0.3,0-0.5c0-0.2,0.1-0.3,0.2-0.4c0.1-0.1,0.2-0.3,0.3-0.3s0.3-0.1,0.6-0.2h0.2c0.2,0,0.3,0.1,0.5,0.2
	c0.2,0.1,0.4,0.2,0.6,0.3C176.5,87,176.7,87.2,176.8,87.3 M177.3,89.1c0-0.1,0-0.2-0.1-0.2l-0.2-0.2c0-0.1-0.1-0.2-0.2-0.2
	c0-0.1-0.1-0.2-0.2-0.3c-0.1-0.1-0.2-0.2-0.3-0.2c-0.1-0.1-0.2-0.1-0.4-0.2c-0.1-0.1-0.2-0.1-0.4-0.1c-0.1,0-0.2,0-0.3,0.1l-0.1,0
	l-0.1,0.1h0l-0.1,0.1c-0.2,0.3-0.3,0.6-0.3,1c0.1,0.4,0.2,0.7,0.3,1.1l0.1,0.1c0.1,0.2,0.3,0.4,0.5,0.7c0.3,0.2,0.6,0.3,0.9,0.3
	l0.2,0l0.2-0.1l0.2-0.2l0.2-0.6v-0.3c0-0.1,0-0.2-0.1-0.3L177.3,89.1 M176.7,88.8l0.1,0.2c0,0,0.1,0.1,0.1,0.2l0.1,0.3l0,0.6l0,0
	v0.1l-0.1,0.1l0,0h0l-0.1,0.2c-0.1,0-0.2,0-0.2,0h-0.1c-0.1,0-0.2-0.1-0.3-0.1c-0.1-0.1-0.2-0.1-0.3-0.2c-0.1-0.1-0.2-0.2-0.3-0.2
	c0-0.1-0.1-0.2-0.2-0.2l-0.2-0.4c0-0.1-0.1-0.2-0.1-0.3c0-0.1-0.1-0.2-0.1-0.4c0-0.1,0-0.2,0.1-0.3c0-0.1,0.1-0.2,0.2-0.3l0.1,0h0.1
	c0,0,0.1,0,0.2,0c0.1,0,0.2,0.1,0.4,0.2c0.1,0,0.2,0.1,0.3,0.2C176.6,88.6,176.7,88.7,176.7,88.8 M195.9,97.9
	c-0.1-0.1-0.3-0.3-0.5-0.4c-0.1-0.1-0.3-0.2-0.5-0.3c-0.3-0.2-0.6-0.2-0.9-0.2c-0.3,0-0.5,0.1-0.7,0.2c-0.2,0.1-0.4,0.3-0.6,0.5
	c-0.1,0.2-0.2,0.4-0.2,0.7c-0.1,0.2-0.1,0.5,0,0.8c0,0.3,0.1,0.6,0.2,0.9c0.1,0.3,0.2,0.6,0.4,1l0.3,0.5c0.2,0.3,0.4,0.6,0.7,0.8
	c0.2,0.2,0.4,0.4,0.7,0.6c0.2,0.2,0.5,0.3,0.7,0.4c0.2,0.1,0.4,0.1,0.7,0.1c0.1,0,0.3,0,0.5-0.1c0.1-0.1,0.3-0.1,0.4-0.2
	c0.1-0.1,0.2-0.3,0.3-0.4c0.1-0.2,0.2-0.4,0.2-0.7c0-0.3,0.1-0.6,0-0.9c0-0.3-0.1-0.6-0.2-0.9c-0.1-0.3-0.3-0.7-0.4-1l-0.2-0.3
	c-0.1-0.2-0.3-0.4-0.4-0.6C196.3,98.2,196.1,98,195.9,97.9 M194.1,97.4c0.2,0,0.4,0,0.6,0.1c0.2,0.1,0.4,0.2,0.6,0.4
	c0.2,0.2,0.4,0.4,0.6,0.6c0.2,0.2,0.4,0.5,0.6,0.8l0.2,0.2c0.1,0.3,0.3,0.6,0.4,0.9c0.1,0.3,0.1,0.6,0.2,0.8c0,0.3,0,0.5,0,0.7
	c-0.1,0.2-0.1,0.4-0.2,0.6c-0.1,0.2-0.2,0.3-0.4,0.4c-0.2,0.1-0.3,0.1-0.5,0.1c-0.2,0-0.5-0.1-0.8-0.2c-0.3-0.1-0.5-0.3-0.8-0.6
	c-0.1-0.1-0.3-0.3-0.4-0.4c-0.1-0.2-0.3-0.3-0.4-0.5l-0.3-0.5c-0.1-0.3-0.3-0.6-0.3-0.9c-0.1-0.3-0.1-0.6-0.2-0.8c0-0.3,0-0.5,0-0.7
	c0-0.2,0.1-0.4,0.2-0.6c0.1-0.1,0.2-0.3,0.4-0.4C193.7,97.4,193.9,97.4,194.1,97.4 M194.6,98.5c-0.1,0-0.2,0-0.3,0l-0.2,0.1
	c-0.1,0.1-0.2,0.2-0.3,0.4c-0.1,0.2-0.1,0.4-0.1,0.6c0,0.2,0,0.4,0.1,0.6c0.1,0.2,0.2,0.4,0.3,0.6c0.1,0.2,0.2,0.4,0.4,0.5
	c0.1,0.2,0.3,0.3,0.5,0.4c0.1,0.1,0.3,0.1,0.5,0.2c0.1,0,0.2-0.1,0.3-0.1l0.2-0.1l0-0.1c0.1-0.1,0.2-0.2,0.2-0.3
	c0-0.1,0.1-0.3,0.1-0.4c0-0.2,0-0.3,0-0.5c-0.1-0.2-0.1-0.3-0.2-0.4c0-0.1-0.1-0.3-0.2-0.3l-0.1-0.1c-0.1-0.1-0.2-0.2-0.2-0.3
	c-0.1-0.1-0.2-0.2-0.3-0.3c-0.1-0.1-0.3-0.2-0.4-0.3C194.9,98.5,194.7,98.5,194.6,98.5 M194.4,98.9h0.2c0.1,0,0.2,0,0.3,0
	c0.1,0,0.2,0.1,0.3,0.2c0.1,0.1,0.2,0.2,0.3,0.2l0.3,0.4c0.1,0.2,0.2,0.5,0.3,0.8c0,0.3,0,0.5-0.2,0.7l0,0.1c-0.1,0-0.2,0-0.2,0
	h-0.1c-0.1,0-0.2-0.1-0.4-0.2s-0.2-0.2-0.3-0.3c-0.1-0.1-0.2-0.3-0.2-0.4c-0.1-0.1-0.2-0.3-0.2-0.5c-0.1-0.2-0.1-0.3-0.1-0.5
	c0-0.2,0-0.3,0-0.4C194.3,99.1,194.3,99,194.4,98.9L194.4,98.9 M243.1,88.9c-0.2-0.3-0.5-0.6-0.7-1c-0.3-0.4-0.6-0.7-0.9-1
	c-0.3-0.4-0.6-0.7-1-1c-0.3-0.4-0.7-0.7-1-1c-0.4-0.3-0.7-0.6-1.1-0.9c-0.4-0.3-0.8-0.6-1.2-0.9c-0.4-0.3-0.8-0.6-1.3-0.8
	c-0.4-0.2-0.8-0.5-1.3-0.7c-0.5-0.2-0.9-0.4-1.3-0.5c-0.5-0.1-0.9-0.2-1.4-0.3c-0.5-0.1-0.9-0.1-1.3-0.1c-0.2,0-0.5,0-0.7,0
	c-0.2,0-0.4,0.1-0.6,0.1c-0.4,0.1-0.9,0.2-1.3,0.3l-0.7,0.4c-0.7,0.4-1.3,0.9-1.8,1.6c-0.2,0.3-0.5,0.6-0.6,1
	c-0.2,0.3-0.3,0.7-0.5,1.1c-0.1,0.4-0.3,0.7-0.3,1.2c-0.1,0.4-0.2,0.8-0.2,1.2c-0.1,0.4-0.1,0.8-0.1,1.3c0,0.4,0,0.8,0,1.3
	c0,0.4,0,0.8,0.1,1.3c0,0.4,0.1,0.9,0.2,1.3c0.1,0.4,0.2,0.9,0.3,1.3c0.1,0.4,0.2,0.8,0.3,1.2c0.1,0.4,0.2,0.8,0.4,1.2
	c0.1,0.4,0.2,0.8,0.4,1.2c0.1,0.3,0.3,0.7,0.4,1c0.1,0.3,0.3,0.6,0.5,0.9l1.9,3.3c0.5,0.7,1,1.4,1.6,2.1c0.5,0.7,1.1,1.3,1.6,1.9
	c1.1,1.1,2.2,2.1,3.3,2.9c1.1,0.8,2.2,1.4,3.3,1.8c1.1,0.4,2.2,0.6,3.2,0.6c0.3,0,0.6,0,0.9,0c0.3-0.1,0.6-0.1,0.8-0.2
	c0.2-0.1,0.5-0.1,0.8-0.2c0.2-0.1,0.5-0.2,0.7-0.4c0.2-0.1,0.3-0.2,0.5-0.3l0.2-0.1v-0.1c0,0,0,0,0,0c0.2-0.2,0.4-0.4,0.6-0.6
	c0.2-0.2,0.4-0.4,0.6-0.6c0.2-0.2,0.3-0.5,0.5-0.7c0.2-0.3,0.4-0.7,0.5-1c0.1-0.4,0.3-0.7,0.4-1.1c0.1-0.4,0.2-0.8,0.3-1.2
	c0-0.4,0.1-0.8,0.2-1.2c0-0.5,0-0.9,0-1.4c0-0.5-0.1-0.9-0.1-1.4c0-0.5-0.1-1-0.2-1.5c-0.1-0.5-0.2-1-0.3-1.5
	c-0.1-0.5-0.3-1-0.5-1.6c-0.2-0.5-0.4-1.1-0.6-1.6c-0.2-0.6-0.5-1.1-0.7-1.7c-0.3-0.6-0.5-1.1-0.8-1.7l-1.2-2
	C243.5,89.5,243.3,89.2,243.1,88.9 M239.8,85.6c0.2,0.2,0.5,0.5,0.7,0.7c0.2,0.2,0.5,0.5,0.7,0.8l1.7,2.2l1.6,2.7
	c0.5,0.8,0.8,1.6,1.2,2.4c0.4,0.8,0.7,1.6,0.9,2.4c0.2,0.8,0.4,1.5,0.6,2.2c0,0,0,0.1,0,0.1l-18.2,1.7l-0.7-1.2
	c-0.2-0.4-0.5-0.9-0.7-1.3c-0.2-0.5-0.4-1-0.6-1.5c-0.2-0.5-0.4-1-0.6-1.6c-0.2-0.5-0.4-1.1-0.5-1.7c-0.1-0.6-0.2-1.1-0.4-1.7
	c-0.1-0.6-0.1-1.2-0.2-1.7c-0.1-0.6-0.1-1.1-0.1-1.7c0-0.6,0-1.1,0.1-1.7c0.1-0.5,0.2-1.1,0.3-1.6c0.1-0.5,0.3-1,0.5-1.4
	c0.4-0.9,0.9-1.7,1.7-2.4l0.4-0.2c0.2-0.1,0.4-0.2,0.6-0.2c0.2,0,0.4-0.1,0.6-0.1c0.2,0,0.4-0.1,0.6-0.1c0.2,0,0.4,0,0.7,0
	c0.3,0,0.6,0,1,0c0.3,0,0.6,0.1,1,0.2c0.3,0.1,0.6,0.2,1,0.3c0.3,0.1,0.6,0.2,1,0.4c0.3,0.1,0.6,0.3,0.9,0.5c0.3,0.1,0.6,0.3,1,0.5
	c0.3,0.2,0.6,0.4,0.9,0.6c0.3,0.2,0.6,0.4,0.9,0.7c0.3,0.2,0.5,0.4,0.8,0.7C239.3,85.1,239.5,85.4,239.8,85.6 M247.3,99.5
	c0.1,0.6,0.2,1.2,0.3,1.8c0.1,1.3,0.1,2.6,0,3.7l-14.2,1.3c-0.1-0.1-0.2-0.2-0.3-0.3c-0.4-0.4-0.8-0.8-1.2-1.2
	c-0.4-0.4-0.7-0.9-1.1-1.3c-0.4-0.5-0.7-0.9-1-1.3c-0.2-0.4-0.5-0.7-0.7-1.1L247.3,99.5 M225.5,84.6c-0.1,0.4-0.3,0.8-0.4,1.2
	c-0.1,0.4-0.1,0.8-0.2,1.2c0,0.4-0.1,0.8-0.1,1.2c0,0.4,0,0.8,0,1.2c0,0.4,0,0.7,0.1,1.1c0,0.4,0.1,0.8,0.2,1.2
	c0,0.4,0.1,0.8,0.2,1.2c0.1,0.4,0.2,0.8,0.3,1.2c0.1,0.4,0.2,0.8,0.4,1.2c0.1,0.4,0.2,0.8,0.4,1.2c0.2,0.4,0.3,0.8,0.5,1.2
	c0.2,0.4,0.4,0.7,0.6,1.1c0.2,0.4,0.4,0.7,0.6,1.1l0.4,0.6h0l0.4,0.7c0.3,0.6,0.7,1.2,1.1,1.7c0.4,0.6,0.9,1.2,1.4,1.7
	c1,1.2,2.1,2.3,3.3,3.2c1.2,1,2.5,1.8,3.8,2.4c1.3,0.6,2.7,0.9,4.1,0.9l0.8-0.1c-0.2,0-0.3,0.1-0.5,0.2c-0.3,0-0.5,0.1-0.8,0.2
	c-0.3,0-0.6,0-0.8,0c-0.4,0-0.8,0-1.2-0.1c-0.4-0.1-0.8-0.1-1.3-0.2c-0.4-0.1-0.8-0.3-1.2-0.5c-0.4-0.2-0.9-0.4-1.3-0.7
	c-0.4-0.2-0.9-0.5-1.3-0.9c-0.4-0.3-0.9-0.7-1.3-1c-0.5-0.4-0.9-0.7-1.3-1.2c-0.5-0.4-0.9-0.9-1.3-1.3c-0.4-0.5-0.8-1-1.2-1.5
	c-0.4-0.5-0.9-1.1-1.2-1.7l-0.4-0.6l-1.4-2.7c-0.2-0.4-0.4-0.8-0.6-1.2c-0.2-0.4-0.4-0.9-0.5-1.3c-0.2-0.5-0.4-1-0.5-1.5
	c-0.2-0.5-0.3-1.1-0.4-1.6c-0.1-0.6-0.2-1.1-0.2-1.7c-0.1-0.6-0.1-1.2-0.2-1.7c0-0.6,0-1.1,0-1.7c0-0.5,0.1-1.1,0.2-1.6
	c0.2-1,0.6-2,1.1-2.8c0.3-0.6,0.7-1.1,1.2-1.5c-0.3,0.3-0.5,0.7-0.7,1C225.7,83.8,225.6,84.2,225.5,84.6 M234.4,107.3
	c-0.2-0.2-0.4-0.4-0.7-0.6l13.8-1.3c-0.2,1.1-0.6,2.1-1.1,3c-0.2,0.2-0.3,0.5-0.5,0.7c-0.2,0.2-0.4,0.4-0.5,0.6
	c-0.2,0.2-0.4,0.3-0.6,0.5c-0.1,0.1-0.2,0.1-0.3,0.1c-0.4,0.1-0.7,0.2-1.1,0.3c-0.4,0-0.7,0.1-1.1,0.1c-0.3,0-0.5,0-0.8,0
	c-0.5-0.1-1-0.2-1.5-0.3c-0.5-0.1-1-0.3-1.5-0.5c-0.5-0.2-1-0.5-1.4-0.8c-0.5-0.2-1-0.5-1.4-0.9C235.3,108,234.8,107.6,234.4,107.3
	 M175.1,61.1L175.1,61.1c-0.2,0-0.2,0-0.3,0v0l-0.3-0.2l-0.4,0.6c-0.2,0.1-0.3,0.3-0.4,0.5c-0.1,0.2-0.2,0.6-0.2,0.9
	c0,0.2,0,0.5,0.1,0.7c0.1,0.2,0.1,0.5,0.2,0.7c0.1,0.2,0.2,0.5,0.3,0.7s0.3,0.5,0.4,0.7c0.1,0.2,0.3,0.4,0.5,0.7
	c0.2,0.2,0.4,0.3,0.6,0.5c0.2,0.2,0.4,0.3,0.6,0.4c0.2,0.1,0.4,0.2,0.7,0.2l0.1,0h0.4c0.1,0,0.3-0.1,0.4-0.1l0.7-0.1l0-0.3l-0.1,0
	c0-0.1,0-0.1,0.1-0.1c0.1-0.1,0.1-0.3,0.2-0.4c0-0.2,0.1-0.3,0.1-0.5c0-0.2,0-0.3,0-0.5c0-0.2,0-0.3-0.1-0.5c0-0.2-0.1-0.3-0.1-0.4
	l-0.1-0.3c-0.1-0.2-0.2-0.4-0.3-0.7c-0.1-0.2-0.3-0.5-0.4-0.7c-0.1-0.2-0.3-0.4-0.5-0.6c-0.2-0.2-0.4-0.4-0.6-0.5
	c-0.2-0.2-0.4-0.3-0.6-0.4c-0.2-0.1-0.4-0.2-0.7-0.2L175.1,61.1 M174.1,62.2c0-0.1,0.1-0.3,0.2-0.3c0.1-0.1,0.2-0.2,0.3-0.2
	c0.1-0.1,0.3-0.1,0.5-0.1h0.2c0.3,0.1,0.6,0.2,0.9,0.4c0.3,0.2,0.5,0.4,0.8,0.7c0.2,0.3,0.4,0.6,0.6,0.8c0.2,0.3,0.3,0.6,0.4,1
	l0.1,0.3c0.1,0.3,0.1,0.7,0.1,1.1c0,0.2,0,0.3-0.1,0.5c0,0.2-0.1,0.3-0.2,0.4c-0.1,0.1-0.2,0.2-0.3,0.3c-0.1,0.1-0.2,0.1-0.4,0.2
	h-0.2l-0.3,0c-0.2,0-0.5-0.1-0.7-0.2c-0.2-0.1-0.4-0.3-0.7-0.6c-0.2-0.2-0.4-0.5-0.6-0.7c-0.2-0.3-0.4-0.6-0.5-0.9
	c-0.1-0.3-0.2-0.6-0.3-0.9c-0.1-0.3-0.1-0.6-0.1-0.9c0-0.1,0-0.2,0-0.4C174,62.4,174.1,62.3,174.1,62.2 M175.3,62.7L175.3,62.7
	L175.3,62.7l-0.2,0.2c-0.1,0.1-0.2,0.2-0.2,0.4c-0.1,0.1-0.1,0.3-0.1,0.5c0,0.2,0.1,0.5,0.2,0.7c0.1,0.4,0.4,0.7,0.7,1
	c0.3,0.3,0.6,0.4,1,0.5h0.2l0.2-0.1l0.1,0l0.1-0.1c0.1-0.1,0.2-0.3,0.2-0.5c0.1-0.2,0.1-0.5,0-0.7c0-0.2-0.1-0.5-0.2-0.8l-0.1-0.1
	c-0.1-0.1-0.1-0.2-0.2-0.3c-0.1-0.1-0.2-0.2-0.3-0.3c-0.1-0.1-0.2-0.2-0.4-0.2c-0.1-0.1-0.2-0.1-0.4-0.2h-0.2
	C175.5,62.7,175.5,62.7,175.3,62.7L175.3,62.7 M175.5,63.1h0.2c0.2,0,0.4,0.1,0.6,0.2c0.2,0.2,0.4,0.4,0.5,0.6l0.1,0.1
	c0.1,0.2,0.2,0.5,0.2,0.7c0.1,0.3,0,0.5-0.2,0.7v0c-0.1,0-0.2,0-0.2,0h-0.1c-0.1,0-0.2-0.1-0.3-0.2c-0.1-0.1-0.2-0.1-0.3-0.2
	c-0.1-0.1-0.2-0.3-0.3-0.4c-0.1-0.1-0.2-0.3-0.2-0.5c-0.1-0.2-0.1-0.4-0.1-0.5c0-0.1,0-0.3,0-0.4C175.3,63.3,175.3,63.2,175.5,63.1
	L175.5,63.1 M133,2.8V2.3l-5.8,3.4v2.1h0.2l-0.1,0.2l5.4,3.1v-0.4l-5.1-2.9V6.1l5.2,3V8.7l-5-2.9L133,2.8 M278.3,88.2l0-0.9H278
	c-0.1,0.7-0.2,1.4-0.3,2.1c-0.1,0.7-0.3,1.3-0.5,2c-0.4,1.3-1,2.6-1.7,3.7c-0.7,1.2-1.5,2.2-2.5,3.2c-0.9,1-2,1.8-3.1,2.6
	c-1.1,0.8-2.4,1.4-3.7,1.9c-0.6,0.2-1.3,0.4-2,0.6c-0.5,0.1-1.1,0.2-1.6,0.3l-0.5,0.1l0.1,0.3c1.5-0.2,2.9-0.5,4.2-0.9
	c1.4-0.5,2.6-1.1,3.8-1.9c1.1-0.8,2.2-1.6,3.2-2.6c1-1,1.8-2.1,2.6-3.3c0.7-1.2,1.3-2.5,1.7-3.8C277.9,90.5,278.2,89.4,278.3,88.2
	 M278.3,87.3l0,0.9C278.3,87.9,278.4,87.6,278.3,87.3L278.3,87.3 M278.4,45.8L278.4,45.8L278.4,45.8l0-0.2c0-0.1-0.1-0.2-0.2-0.3
	c-0.1-0.1-0.2-0.2-0.3-0.3c-0.1-0.1-0.2-0.1-0.3-0.2c-0.1,0-0.3,0-0.4,0c-0.1,0-0.3,0-0.4,0h-0.2c-0.1,0-0.3,0-0.4,0
	c-0.1,0-0.3,0-0.4,0.1c-0.1,0.1-0.3,0.1-0.4,0.2c-0.1,0.1-0.2,0.1-0.2,0.2l-0.2-0.2h0l0,0l-0.1-0.1c-0.1-0.1-0.2-0.1-0.3-0.2
	l-0.9-0.1l-0.6,0.1l-0.7,0.4c-0.1,0.1-0.1,0.2-0.2,0.2c0,0.1-0.1,0.1-0.1,0.2v9.9l-0.8,0.4l0.1,0.2l0.7-0.4V56h0l-0.6,0.3v0l-1,0.6
	l0.1,0.2h-0.2v0.2l-0.5-0.3l0.7-0.4l-0.1-0.1l-0.8,0.4l-5.4-3.1h0l-0.1,0.2l-0.1-0.2l-1.2,0.7l-0.2,0.1c-0.7,0.5-1.1,1.1-1.4,1.8
	c-0.1,0.4-0.2,0.8-0.2,1.2c0,0.4,0,0.9,0,1.2s0.1,0.8,0.2,1.2c0,0.4,0.1,0.8,0.3,1.2c0.1,0.4,0.3,0.7,0.4,1c0.1,0.3,0.3,0.6,0.4,0.8
	l0.3,0.4l0.1,0.1l0.1-0.1l0,0.1l4.7,2.7v1h0.2l-0.1,0.2l3.7,2.2v0l0.2,0.1c0.1,0.1,0.3,0.2,0.5,0.3v16.8h0c0,0.5-0.1,0.9-0.2,1.4
	c-0.1,0.5-0.2,0.9-0.4,1.3c-0.1,0.4-0.3,0.8-0.5,1.3c-0.2,0.4-0.4,0.8-0.6,1.2c-0.2,0.4-0.5,0.7-0.8,1.1c-0.3,0.4-0.6,0.7-0.9,1
	c-0.3,0.3-0.6,0.6-1,0.9c-0.4,0.3-0.8,0.6-1.2,0.8c-0.4,0.2-0.8,0.5-1.2,0.7c-0.4,0.2-0.8,0.4-1.2,0.6c-0.4,0.1-0.9,0.2-1.3,0.4
	c-0.5,0.1-0.9,0.2-1.4,0.2v0l-3.1,0.3l1-1.4L256.7,86l2.9-12.1l-0.2,0h0.1v-2h-0.1l-0.1,0l0.1-0.2L136.2,0.6l-0.1,0.1l-0.1-0.1H136
	l-3,1.7v0.5l3.1-1.8l122.9,71l-8.4,4.8l-118-68.1v0.4l117.7,68v1.6l-117.8-68l0,0V11l117.9,68v0.2l0,0l7.3-4.2l-2.9,11.6l0.2,0
	l-0.2,0v0l2.6,10.6l-3.7,5.7v0l0.1,0.1h-0.2l0,0.1l0.8,9.1l-2.6,6.4l0.6-0.3l2.4-6v0l-0.7-9.1l3.8-5.8l-2.7-10.8h0l2.9-11.8v0l0-0.2
	h-0.1l-0.1-0.2h0l-7.1,4.1v-1.5l8.3-4.8v1.6l-3,12.1l0,0.1l2.7,10.7l-3.8,5.7l0.8,9.2l-2.7,6.4l-0.7,0.4l-0.6,0.3l-0.5,0.3l0.6,0.1
	l0-0.1l0.1,0.1l0.1-0.1l1.2-0.7l-0.1-0.2l0.2,0.1l2.7-6.6v-0.1l-0.6-6.8l6.3-0.7l0-0.3l-0.7,0l-5.7,0.6l-0.2-1.9l2.6-3.9l3.3-0.3v0
	c0.5,0,1-0.1,1.5-0.2c0.5-0.1,0.9-0.3,1.4-0.4c0.5-0.2,0.9-0.4,1.3-0.6c0.4-0.2,0.8-0.5,1.2-0.7c0.4-0.2,0.7-0.5,1.1-0.8
	c0.4-0.3,0.7-0.6,1.1-0.9c0.3-0.4,0.6-0.7,0.9-1.1c0.3-0.4,0.6-0.8,0.8-1.2c0.2-0.4,0.4-0.8,0.7-1.2c0.2-0.4,0.4-0.9,0.5-1.3
	c0.1-0.5,0.2-0.9,0.3-1.4c0.1-0.5,0.2-0.9,0.2-1.5h-0.1V70.1c0.2,0.1,0.5,0.1,0.8,0.2c0.3,0.1,0.6,0.1,0.9,0.2c0.3,0,0.7,0,1.1,0
	c0.3,0,0.6,0,0.9,0c0.3,0,0.6-0.1,0.9-0.1c0.3,0,0.6-0.1,0.9-0.2c0,0,0,0,0.1,0v16.9h0.3v-1.5V70c0.1,0,0.2-0.1,0.3-0.2
	c0.3-0.1,0.6-0.3,0.8-0.5c0.2-0.2,0.4-0.3,0.6-0.5c0.4-0.4,0.6-0.9,0.7-1.4v-0.1h0v-8.4c0,0,0-0.1,0-0.1v-0.2c0-0.2-0.1-0.4-0.1-0.6
	c-0.1-0.2-0.2-0.3-0.3-0.5c-0.1-0.2-0.3-0.3-0.4-0.5c-0.1-0.2-0.3-0.3-0.5-0.4c-0.2-0.1-0.3-0.2-0.5-0.3c-0.2-0.1-0.3-0.2-0.5-0.2
	V45.8 M277.7,45.3c0.1,0,0.2,0.1,0.2,0.2c0,0,0.1,0.1,0.1,0.2v12.9h0c0,0.1-0.1,0.3-0.1,0.4c-0.1,0.1-0.2,0.2-0.2,0.3
	c-0.1,0.1-0.2,0.1-0.3,0.2c-0.1,0.1-0.2,0.1-0.3,0.2c-0.2,0.1-0.4,0.1-0.6,0.2c-0.2,0-0.5,0.1-0.7,0.2H275c-0.2,0-0.4,0-0.7-0.1
	c-0.2,0-0.4-0.1-0.6-0.1c-0.2-0.1-0.3-0.1-0.5-0.2l0-0.1h-0.1l-0.7-0.4V46.5l0.2,0.2l0.2,0.1l0.1,0l0.3,0h0.1l0.3,0.1h0.2
	c0.3,0,0.6-0.1,1-0.2c0.3-0.1,0.5-0.4,0.6-0.7v-0.2c0-0.1,0.1-0.2,0.2-0.2c0.1-0.1,0.2-0.2,0.3-0.2c0.1-0.1,0.2-0.1,0.4-0.1
	c0.1,0,0.2-0.1,0.4,0h0.4l0.3,0C277.5,45.2,277.6,45.3,277.7,45.3 M278.4,56.4c0.1,0.1,0.3,0.2,0.5,0.3c0.2,0.1,0.5,0.3,0.7,0.5
	c0.2,0.2,0.4,0.4,0.5,0.7c0.1,0.2,0.2,0.4,0.2,0.7v0.2c-0.1,0.3-0.2,0.5-0.3,0.7c-0.1,0.2-0.3,0.4-0.4,0.6c-0.2,0.2-0.4,0.3-0.5,0.5
	c-0.2,0.1-0.4,0.2-0.6,0.3c-0.4,0.1-0.7,0.3-1.1,0.4l-1.2,0.2c-0.3,0-0.6,0.1-0.8,0.1h-0.3l-1.2-0.1c-0.4-0.1-0.7-0.2-1.1-0.2
	c-0.3-0.1-0.6-0.2-0.8-0.4l-0.2-0.1l-0.2,0.3l0.2,0.1c0.2,0.1,0.5,0.3,0.7,0.4c0.3,0.1,0.6,0.2,0.9,0.3c0.3,0,0.6,0.1,0.9,0.1
	c0.3,0,0.7,0,1,0.1c0.3,0,0.6,0,0.9-0.1c0.3,0,0.6-0.1,0.9-0.1c0.3-0.1,0.6-0.2,0.8-0.2c0.3-0.1,0.6-0.2,0.8-0.3
	c0.3-0.1,0.6-0.3,0.8-0.4c0.2-0.2,0.4-0.4,0.6-0.6c0.1-0.1,0.2-0.3,0.3-0.4v7.6h0l0,0.1c-0.1,0.3-0.2,0.5-0.3,0.7
	c-0.1,0.2-0.3,0.4-0.5,0.6c-0.2,0.2-0.4,0.3-0.5,0.5c-0.2,0.1-0.4,0.2-0.6,0.3c-0.2,0.1-0.4,0.1-0.5,0.2c-0.2,0-0.4,0.1-0.6,0.2
	l-1.2,0.2c-0.3,0-0.6,0-0.9,0h-0.4l-2.2-0.4c-0.3-0.1-0.6-0.2-0.8-0.4l-0.2-0.1h0l-3.7-2.1v-8.3l3.4,2l0.2-0.3l-3.4-2l1.3-0.7
	l0.2,0.2l0,0l0,0c0.1,0.1,0.2,0.1,0.3,0.1l3,1.7H273v0l0.1,0.1c0.2,0.1,0.6,0.3,0.9,0.3c0.2,0,0.4,0.1,0.6,0.1c0.2,0,0.4,0,0.6,0
	c0.2,0,0.4,0,0.7,0c0.2,0,0.5-0.1,0.7-0.2c0.2-0.1,0.4-0.1,0.6-0.2c0.3-0.2,0.6-0.4,0.8-0.6c0.2-0.2,0.3-0.5,0.4-0.9v0h0V56.4
	 M274.7,45.3l0.3,0.2c0,0,0,0.1,0,0.2l0,0.1c0,0.1-0.1,0.2-0.2,0.3c-0.1,0.1-0.2,0.1-0.2,0.2c-0.1,0-0.2,0.1-0.4,0.1
	c-0.1,0-0.2,0-0.3,0.1h-0.2l-0.2-0.1h-0.2l-0.4-0.2l-0.1-0.1l-0.1-0.1l0-0.1l-0.1-0.1l0-0.1v-0.2c0,0,0,0,0,0v0l0.2-0.1
	c0,0,0.1-0.1,0.2-0.1l0.2-0.2h1.3L274.7,45.3 M267.8,58.5l0,0.2h-0.2v7.2l-4.5-2.6l-0.2-0.5c-0.1-0.2-0.2-0.3-0.3-0.5l-0.3-0.6
	c-0.1-0.2-0.2-0.5-0.2-0.7c-0.1-0.2-0.2-0.5-0.2-0.7c0-0.3-0.1-0.6-0.1-0.8c-0.1-0.2-0.1-0.5-0.1-0.7c0-0.3-0.1-0.5,0-0.7
	c0-0.2,0-0.5,0-0.7c0-0.2,0.1-0.5,0.2-0.7c0-0.2,0.1-0.4,0.2-0.6c0.1-0.2,0.2-0.4,0.4-0.5c0.2-0.2,0.4-0.3,0.6-0.4l0,0l5.5,3.1
	L267.8,58.5 M269.1,57.7l-0.2,0.2l-5.5-3.1l0.3-0.2L269.1,57.7 M271.2,58h-0.2l-0.3-0.1c-0.2,0-0.3,0-0.4-0.1
	c-0.1,0-0.3-0.1-0.4-0.1l-0.1,0h0l-5.9-3.4l0.2-0.2l6.1,3.5l0,0l0.1,0c0.2,0.1,0.4,0.1,0.6,0.1l0.2,0l0.1,0h0.1l0.2,0l0.2,0.1h0
	C271.5,58,271.4,58,271.2,58 M270.8,57.5C270.8,57.5,270.7,57.5,270.8,57.5L270.8,57.5L270.8,57.5L270.8,57.5 M271.6,56.7
	L271.6,56.7l0.2-0.1l0.2-0.1v1.3l-1.2-0.7L271.6,56.7 M272.1,58.2V59l-1.1-0.6l0.4,0c0.1,0,0.2-0.1,0.4-0.1
	C272,58.3,272.1,58.3,272.1,58.2 M265.8,59c-0.1-0.2-0.3-0.3-0.4-0.5c-0.2-0.2-0.3-0.3-0.5-0.4c-0.2-0.2-0.5-0.3-0.7-0.3h-0.2
	c-0.2,0-0.3,0-0.5,0.1h-0.1v0l0.1,0.2l-0.2-0.2l-0.1,0c-0.2,0.1-0.3,0.2-0.3,0.4c-0.1,0.2-0.1,0.3-0.2,0.5c0,0.2,0,0.3,0,0.5
	c0,0.2,0,0.3,0.1,0.5L263,60c0,0.1,0.1,0.3,0.2,0.5c0.1,0.2,0.2,0.3,0.3,0.5c0.1,0.2,0.2,0.4,0.4,0.5c0.2,0.2,0.3,0.3,0.5,0.4
	l0.2,0.1l0.3,0.1l0.6,0.1l0.2,0c0.1,0,0.1,0,0.2-0.1h0v0l0-0.1l0.1,0.1l0,0c0.1,0,0.2-0.1,0.2-0.2c0-0.1,0.1-0.1,0.1-0.2
	c0-0.1,0.1-0.2,0.1-0.3l0.1-0.3c0-0.1,0-0.2,0-0.2h0v-0.1c0-0.2-0.1-0.4-0.1-0.6c-0.1-0.2-0.1-0.4-0.2-0.6
	C266.1,59.5,266,59.3,265.8,59 M266.1,60.8V61h0.2l-0.2,0c0,0.1,0,0.1,0,0.2l-0.1,0.3c0,0-0.1,0-0.1,0.1h-0.1l-0.4-0.1l0,0l-0.1-0.1
	c-0.2-0.1-0.3-0.2-0.5-0.3c-0.2-0.2-0.3-0.3-0.4-0.5c-0.1-0.2-0.2-0.4-0.3-0.6c-0.1-0.2-0.2-0.4-0.2-0.6c0-0.2-0.1-0.4-0.1-0.6
	c0-0.2,0-0.3,0.1-0.5c0.2,0,0.4,0.1,0.7,0.3c0.2,0.1,0.4,0.3,0.6,0.5c0.1,0.2,0.3,0.4,0.4,0.7c0.1,0.2,0.2,0.4,0.3,0.7
	C266,60.5,266,60.7,266.1,60.8 M265.2,61.7L265.2,61.7c0.1,0,0.2,0.1,0.3,0.1h0c0,0-0.1,0-0.1,0h-0.2l-0.5-0.2v0l-0.1-0.1
	c-0.2-0.1-0.3-0.2-0.5-0.4c-0.2-0.2-0.3-0.4-0.4-0.6c-0.1-0.2-0.3-0.5-0.3-0.7l0-0.2c-0.1-0.1-0.1-0.2-0.1-0.3v-0.4
	c0-0.1,0-0.2,0.1-0.3c0-0.1,0-0.2,0.1-0.3c0-0.1,0.1-0.2,0.2-0.2c0,0.2-0.1,0.4,0,0.6c0,0.4,0.1,0.7,0.3,1.1c0.1,0.4,0.3,0.7,0.6,1
	c0.2,0.3,0.5,0.5,0.7,0.7L265.2,61.7l0.1-0.2L265.2,61.7L265.2,61.7z"/>
<path class="st0" d="M118.6,68.3c0.1,0,0.3,0.1,0.5,0.2c0.2,0,0.4,0,0.6,0.1c0.2,0,0.4,0,0.6,0L118.6,68.3 M89.2,64.5L89,64.6l0,0.7
	L89.2,64.5 M132.6,11v0.4h0.4v14.3l0,0.1l-17.8,13l-0.1,0.2h0.1c1.3,0.4,2.6,1.1,3.8,2c1.2,0.9,2.4,2,3.6,3.2c1.1,1.2,2.1,2.6,3,4.1
	c0.5,0.7,0.9,1.5,1.3,2.2c0.4,0.8,0.7,1.5,1,2.3c0.6,1.6,1.1,3.1,1.4,4.7c0.3,1.5,0.3,3,0.2,4.5v0.2l0,0.3c0,0.2-0.1,0.6-0.3,1
	c-0.1,0.2-0.2,0.4-0.2,0.6c-0.1,0.2-0.3,0.4-0.4,0.7c-0.1,0.3-0.3,0.5-0.5,0.7c-0.2,0.2-0.5,0.5-0.7,0.7c-0.3,0.2-0.6,0.5-0.9,0.7
	c-0.3,0.2-0.7,0.4-1.1,0.6c-0.4,0.2-0.9,0.3-1.4,0.5c-0.5,0.2-1.1,0.3-1.7,0.4l-0.9,0.2c-0.3,0-0.6,0.1-0.9,0.1
	c-0.5,0-0.9,0-1.3-0.1c-0.4-0.1-0.8-0.2-1.2-0.3c0,0,0,0-0.1,0c-0.3-0.1-0.5-0.2-0.7-0.4h0c-0.1-0.1-0.1-0.1-0.2-0.1
	c-0.3-0.2-0.6-0.4-0.9-0.6c-0.3-0.2-0.5-0.4-0.7-0.6c-0.2-0.2-0.4-0.3-0.6-0.5l-0.4-0.4l0-0.1l-0.1-0.1c-0.1-0.1-0.2-0.2-0.3-0.3
	c-0.1,0-0.1-0.1-0.2-0.2c-0.1-0.1-0.3-0.3-0.4-0.4c-0.3-0.3-0.6-0.6-0.9-0.9c-0.3-0.3-0.6-0.6-0.8-1c-0.3-0.3-0.5-0.7-0.8-1
	c-0.3-0.4-0.5-0.7-0.8-1c-0.2-0.4-0.5-0.8-0.7-1.1l-0.4-0.7h0l-0.1-0.2l-19.4,5.7L89,65.3l-1.1,15.5L98.7,87l2.7,0.6l0,0.2l0,0.1
	l150.6,30.8l2.6-6.4l-0.8-9.1l0-0.1h0.2l-0.1-0.1v0l3.7-5.7l-2.6-10.6v0l0.2,0l-0.2,0l2.9-11.6l-7.3,4.2l0,0V79L132.6,11
	 M175.1,61.1L175.1,61.1l0.4,0c0.2,0,0.4,0.1,0.7,0.2c0.2,0.1,0.4,0.2,0.6,0.4c0.2,0.1,0.4,0.3,0.6,0.5c0.2,0.2,0.3,0.4,0.5,0.6
	c0.1,0.2,0.3,0.5,0.4,0.7c0.1,0.2,0.2,0.4,0.3,0.7l0.1,0.3c0,0.1,0.1,0.3,0.1,0.4c0,0.2,0.1,0.3,0.1,0.5c0,0.2,0,0.3,0,0.5
	c0,0.2-0.1,0.3-0.1,0.5c-0.1,0.1-0.1,0.3-0.2,0.4c0,0,0,0.1-0.1,0.1l0.1,0l0,0.3l-0.7,0.1c-0.1,0-0.2,0.1-0.4,0.1H177l-0.1,0
	c-0.2,0-0.5-0.1-0.7-0.2c-0.2-0.1-0.4-0.2-0.6-0.4c-0.2-0.1-0.4-0.3-0.6-0.5c-0.2-0.2-0.4-0.4-0.5-0.7c-0.1-0.2-0.3-0.4-0.4-0.7
	s-0.2-0.5-0.3-0.7c-0.1-0.2-0.1-0.5-0.2-0.7c0-0.2-0.1-0.5-0.1-0.7c0-0.4,0-0.7,0.2-0.9c0.1-0.2,0.2-0.4,0.4-0.5l0.4-0.6l0.3,0.2v0
	C174.9,61.1,175,61.1,175.1,61.1 M242.4,87.9c0.3,0.4,0.5,0.7,0.7,1c0.2,0.3,0.4,0.7,0.6,1l1.2,2c0.3,0.5,0.5,1.1,0.8,1.7
	c0.2,0.5,0.5,1.1,0.7,1.7c0.2,0.5,0.4,1.1,0.6,1.6c0.2,0.5,0.3,1,0.5,1.6c0.1,0.5,0.3,1,0.3,1.5c0.1,0.5,0.2,1,0.2,1.5
	c0.1,0.5,0.1,0.9,0.1,1.4c0,0.5,0,0.9,0,1.4c-0.1,0.4-0.1,0.9-0.2,1.2c-0.1,0.4-0.2,0.8-0.3,1.2c-0.1,0.4-0.2,0.7-0.4,1.1
	c-0.2,0.4-0.3,0.7-0.5,1c-0.2,0.2-0.4,0.5-0.5,0.7c-0.2,0.2-0.4,0.4-0.6,0.6c-0.2,0.2-0.4,0.4-0.6,0.6c0,0,0,0,0,0v0.1l-0.2,0.1
	c-0.1,0.1-0.3,0.2-0.5,0.3c-0.2,0.1-0.5,0.2-0.7,0.4c-0.3,0.1-0.5,0.2-0.8,0.2c-0.3,0.1-0.6,0.1-0.8,0.2c-0.3,0-0.6,0-0.9,0
	c-1,0-2.1-0.2-3.2-0.6c-1.1-0.4-2.2-1-3.3-1.8c-1.1-0.8-2.2-1.8-3.3-2.9c-0.5-0.6-1.1-1.2-1.6-1.9c-0.6-0.6-1.1-1.3-1.6-2.1
	l-1.9-3.3c-0.2-0.3-0.3-0.6-0.5-0.9c-0.1-0.4-0.3-0.7-0.4-1c-0.2-0.4-0.3-0.8-0.4-1.2c-0.1-0.4-0.3-0.8-0.4-1.2
	c-0.1-0.4-0.2-0.8-0.3-1.2c-0.1-0.4-0.2-0.8-0.3-1.3c-0.1-0.4-0.1-0.9-0.2-1.3c-0.1-0.4-0.1-0.9-0.1-1.3c0-0.5,0-0.9,0-1.3
	c0-0.5,0-0.9,0.1-1.3c0.1-0.4,0.1-0.8,0.2-1.2c0.1-0.4,0.2-0.8,0.3-1.2c0.2-0.4,0.3-0.7,0.5-1.1c0.2-0.4,0.4-0.7,0.6-1
	c0.5-0.6,1.1-1.2,1.8-1.6l0.7-0.4c0.4-0.1,0.8-0.2,1.3-0.3c0.2,0,0.4-0.1,0.6-0.1c0.2,0,0.4,0,0.7,0c0.4,0,0.9,0,1.3,0.1
	c0.4,0.1,0.9,0.2,1.4,0.3c0.4,0.1,0.9,0.3,1.3,0.5c0.4,0.2,0.9,0.4,1.3,0.7c0.4,0.2,0.9,0.5,1.3,0.8c0.4,0.3,0.8,0.6,1.2,0.9
	c0.4,0.3,0.7,0.6,1.1,0.9c0.4,0.3,0.7,0.7,1,1c0.4,0.3,0.7,0.7,1,1C241.8,87.2,242.1,87.5,242.4,87.9 M195.5,97.5
	c0.2,0.1,0.3,0.3,0.5,0.4c0.2,0.2,0.3,0.3,0.5,0.5c0.1,0.2,0.3,0.4,0.4,0.6l0.2,0.3c0.2,0.3,0.3,0.7,0.4,1c0.1,0.3,0.1,0.6,0.2,0.9
	c0,0.3,0,0.6,0,0.9c0,0.2-0.1,0.5-0.2,0.7c-0.1,0.1-0.2,0.3-0.3,0.4c-0.1,0.1-0.3,0.2-0.4,0.2c-0.2,0-0.4,0.1-0.5,0.1
	c-0.2,0-0.4,0-0.7-0.1c-0.2-0.1-0.5-0.2-0.7-0.4c-0.2-0.1-0.5-0.3-0.7-0.6c-0.2-0.2-0.4-0.5-0.7-0.8l-0.3-0.5
	c-0.2-0.4-0.3-0.7-0.4-1c-0.1-0.3-0.1-0.6-0.2-0.9c-0.1-0.3-0.1-0.6,0-0.8c0-0.2,0.1-0.5,0.2-0.7c0.1-0.2,0.3-0.4,0.6-0.5
	c0.2-0.1,0.4-0.2,0.7-0.2c0.3,0,0.6,0.1,0.9,0.2C195.2,97.3,195.3,97.4,195.5,97.5 M176.9,86.9c0.2,0.2,0.5,0.5,0.7,0.8
	c0.2,0.3,0.4,0.6,0.5,0.9c0.2,0.3,0.3,0.7,0.4,1c0.1,0.3,0.1,0.6,0.2,1c0,0.4,0,0.7-0.1,1c-0.1,0.3-0.3,0.5-0.5,0.7
	c-0.2,0.1-0.5,0.3-0.8,0.3l-0.4,0c-0.2,0-0.5-0.1-0.7-0.2c-0.2-0.1-0.4-0.2-0.6-0.4c-0.2-0.1-0.4-0.3-0.6-0.5
	c-0.2-0.2-0.4-0.4-0.5-0.6c-0.1-0.2-0.3-0.5-0.4-0.7c-0.1-0.2-0.2-0.5-0.3-0.7c-0.1-0.2-0.1-0.5-0.2-0.7c0-0.2-0.1-0.5-0.1-0.7
	c0-0.4,0.1-0.7,0.2-0.9c0.1-0.3,0.3-0.5,0.5-0.6c0.2-0.2,0.4-0.3,0.8-0.3h0.2c0.3,0,0.5,0.1,0.8,0.3
	C176.4,86.4,176.6,86.6,176.9,86.9 M177.3,87.9c-0.1-0.2-0.3-0.4-0.4-0.5c-0.2-0.2-0.3-0.3-0.5-0.5c-0.2-0.1-0.4-0.2-0.6-0.3
	c-0.2-0.1-0.3-0.1-0.5-0.2h-0.2c-0.2,0-0.4,0.1-0.6,0.2s-0.3,0.2-0.3,0.3c-0.1,0.1-0.1,0.3-0.2,0.4c0,0.2-0.1,0.3,0,0.5
	c0,0.3,0,0.6,0.1,0.8c0,0.3,0.1,0.6,0.3,0.9c0.1,0.3,0.3,0.6,0.5,0.9c0.2,0.3,0.4,0.5,0.6,0.7c0.2,0.2,0.4,0.4,0.7,0.6
	c0.2,0.1,0.5,0.2,0.7,0.3l0.3,0h0c0.4-0.1,0.7-0.3,0.9-0.6c0.1-0.3,0.2-0.6,0.1-0.9c0-0.2,0-0.5-0.1-0.7c-0.1-0.2-0.1-0.4-0.2-0.7
	c-0.1-0.2-0.2-0.5-0.3-0.7C177.6,88.3,177.4,88.1,177.3,87.9 M177.2,88.8c0,0.1,0,0.2,0.1,0.2l0.1,0.4c0,0.1,0,0.2,0.1,0.3v0.3
	l-0.2,0.6l-0.2,0.2l-0.2,0.1l-0.2,0c-0.3,0-0.6-0.1-0.9-0.3c-0.2-0.2-0.4-0.5-0.5-0.7l-0.1-0.1c-0.2-0.3-0.3-0.7-0.3-1.1
	c-0.1-0.4,0-0.7,0.3-1l0.1-0.1h0l0.1-0.1l0.1,0c0.1-0.1,0.2-0.1,0.3-0.1c0.1,0,0.2,0,0.4,0.1c0.1,0,0.2,0.1,0.4,0.2
	c0.1,0,0.2,0.1,0.3,0.2c0.1,0.1,0.2,0.2,0.2,0.3c0.1,0.1,0.1,0.2,0.2,0.2L177.2,88.8 M176.9,89l-0.1-0.2c-0.1-0.1-0.1-0.2-0.2-0.3
	c-0.1-0.1-0.2-0.2-0.3-0.2c-0.1-0.1-0.2-0.2-0.4-0.2c-0.1-0.1-0.1-0.1-0.2,0h-0.1l-0.1,0c-0.1,0.1-0.1,0.2-0.2,0.3
	c-0.1,0.1-0.1,0.2-0.1,0.3c0,0.1,0,0.2,0.1,0.4c0,0.1,0.1,0.2,0.1,0.3l0.2,0.4c0.1,0.1,0.1,0.1,0.2,0.2c0.1,0.1,0.2,0.2,0.3,0.2
	c0.1,0.1,0.2,0.1,0.3,0.2c0.1,0.1,0.2,0.1,0.3,0.1h0.1c0.1,0,0.1,0,0.2,0l0.1-0.2h0l0,0l0.1-0.1v-0.1l0,0l0-0.6l-0.1-0.3
	C176.9,89.2,176.9,89.1,176.9,89 M194.7,97.5c-0.2-0.1-0.4-0.1-0.6-0.1c-0.2,0-0.4,0-0.5,0.1c-0.1,0.1-0.3,0.2-0.4,0.4
	c-0.1,0.2-0.2,0.4-0.2,0.6c-0.1,0.2-0.1,0.4,0,0.7c0,0.2,0.1,0.5,0.2,0.8c0.1,0.3,0.2,0.6,0.3,0.9l0.3,0.5c0.1,0.2,0.2,0.4,0.4,0.5
	c0.1,0.1,0.3,0.3,0.4,0.4c0.2,0.2,0.5,0.4,0.8,0.6c0.3,0.1,0.5,0.2,0.8,0.2c0.2,0,0.4,0,0.5-0.1c0.1-0.1,0.3-0.2,0.4-0.4
	c0.1-0.2,0.1-0.4,0.2-0.6c0-0.2,0.1-0.5,0-0.7c0-0.3-0.1-0.6-0.2-0.8c-0.1-0.3-0.3-0.6-0.4-0.9l-0.2-0.2c-0.2-0.3-0.4-0.6-0.6-0.8
	c-0.2-0.2-0.4-0.4-0.6-0.6C195.1,97.7,194.9,97.6,194.7,97.5 M194.3,98.5c0.1,0,0.2-0.1,0.3,0c0.1,0,0.3,0,0.5,0.1
	c0.1,0.1,0.3,0.2,0.4,0.3c0.1,0.1,0.2,0.2,0.3,0.3c0.1,0.1,0.1,0.2,0.2,0.3l0.1,0.1c0.1,0.1,0.1,0.2,0.2,0.3c0,0.1,0.1,0.3,0.2,0.4
	c0,0.1,0,0.3,0,0.5c0,0.1,0,0.3-0.1,0.4c-0.1,0.1-0.2,0.2-0.2,0.3l0,0.1l-0.2,0.1c-0.1,0-0.2,0.1-0.3,0.1c-0.2,0-0.4-0.1-0.5-0.2
	c-0.2-0.1-0.4-0.2-0.5-0.4c-0.2-0.1-0.3-0.3-0.4-0.5c-0.1-0.2-0.2-0.4-0.3-0.6c-0.1-0.2-0.1-0.4-0.1-0.6c0-0.2,0-0.4,0.1-0.6
	c0.1-0.1,0.2-0.3,0.3-0.4L194.3,98.5 M194.6,98.9h-0.2l0,0c-0.1,0.1-0.1,0.2-0.2,0.3c0,0.1-0.1,0.2,0,0.4c0,0.1,0,0.3,0.1,0.5
	c0,0.2,0.1,0.3,0.2,0.5c0.1,0.1,0.1,0.3,0.2,0.4c0.1,0.1,0.2,0.2,0.3,0.3s0.2,0.1,0.4,0.2h0.1c0.1,0,0.2,0,0.2,0l0-0.1
	c0.1-0.2,0.2-0.4,0.2-0.7c-0.1-0.3-0.2-0.6-0.3-0.8l-0.3-0.4c-0.1-0.1-0.2-0.2-0.3-0.2c-0.1-0.1-0.2-0.2-0.3-0.2
	C194.7,98.9,194.7,98.9,194.6,98.9 M225.1,85.8c0.1-0.4,0.2-0.8,0.4-1.2c0.1-0.4,0.3-0.8,0.5-1.2c0.2-0.4,0.4-0.7,0.7-1
	c-0.5,0.4-0.9,0.9-1.2,1.5c-0.5,0.9-0.9,1.8-1.1,2.8c-0.1,0.5-0.2,1.1-0.2,1.6c0,0.5,0,1.1,0,1.7c0,0.6,0.1,1.1,0.2,1.7
	c0,0.5,0.1,1.1,0.2,1.7c0.1,0.6,0.2,1.1,0.4,1.6c0.1,0.5,0.3,1,0.5,1.5c0.2,0.5,0.3,0.9,0.5,1.3c0.2,0.4,0.4,0.8,0.6,1.2l1.4,2.7
	l0.4,0.6c0.4,0.6,0.8,1.1,1.2,1.7c0.4,0.5,0.8,1,1.2,1.5c0.4,0.5,0.9,0.9,1.3,1.3c0.4,0.4,0.8,0.8,1.3,1.2c0.4,0.4,0.8,0.7,1.3,1
	c0.4,0.3,0.9,0.6,1.3,0.9c0.4,0.2,0.8,0.5,1.3,0.7c0.4,0.2,0.8,0.4,1.2,0.5c0.5,0.1,0.9,0.2,1.3,0.2c0.4,0.1,0.8,0.1,1.2,0.1
	c0.3,0,0.6,0,0.8,0c0.3-0.1,0.5-0.1,0.8-0.2c0.1-0.1,0.3-0.1,0.5-0.2l-0.8,0.1c-1.4,0-2.7-0.3-4.1-0.9c-1.4-0.6-2.6-1.4-3.8-2.4
	c-1.2-1-2.3-2-3.3-3.2c-0.5-0.6-1-1.2-1.4-1.7c-0.4-0.6-0.8-1.1-1.1-1.7l-0.4-0.7h0l-0.4-0.6c-0.2-0.4-0.4-0.7-0.6-1.1
	c-0.2-0.4-0.4-0.8-0.6-1.1c-0.1-0.4-0.3-0.8-0.5-1.2c-0.2-0.4-0.3-0.8-0.4-1.2c-0.1-0.4-0.2-0.8-0.4-1.2c-0.1-0.5-0.2-0.9-0.3-1.2
	c-0.1-0.4-0.2-0.8-0.2-1.2c-0.1-0.4-0.1-0.8-0.2-1.2c0-0.4-0.1-0.7-0.1-1.1c0-0.4,0-0.8,0-1.2c0-0.4,0-0.9,0.1-1.2
	C224.9,86.6,225,86.2,225.1,85.8 M247.6,101.3c-0.1-0.6-0.2-1.2-0.3-1.8l-18.1,1.7c0.2,0.4,0.4,0.7,0.7,1.1c0.3,0.4,0.6,0.8,1,1.3
	c0.4,0.4,0.7,0.8,1.1,1.3c0.4,0.4,0.7,0.8,1.2,1.2c0.1,0.1,0.2,0.2,0.3,0.3l14.2-1.3C247.8,103.9,247.8,102.6,247.6,101.3
	 M174.3,61.9c-0.1,0.1-0.2,0.2-0.2,0.3c-0.1,0.1-0.1,0.2-0.1,0.3c0,0.1,0,0.2,0,0.4c0,0.3,0,0.6,0.1,0.9c0,0.3,0.1,0.6,0.3,0.9
	c0.1,0.3,0.3,0.6,0.5,0.9c0.2,0.3,0.4,0.5,0.6,0.7c0.2,0.2,0.4,0.4,0.7,0.6c0.2,0.1,0.5,0.2,0.7,0.2l0.3,0h0.2
	c0.1,0,0.3-0.1,0.4-0.2c0.1,0,0.2-0.1,0.3-0.3c0.1-0.1,0.1-0.3,0.2-0.4c0-0.2,0.1-0.4,0.1-0.5c0-0.4,0-0.7-0.1-1.1l-0.1-0.3
	c-0.1-0.3-0.3-0.7-0.4-1c-0.2-0.3-0.4-0.6-0.6-0.8c-0.2-0.3-0.5-0.5-0.8-0.7c-0.3-0.2-0.6-0.3-0.9-0.4h-0.2c-0.2,0-0.4,0-0.5,0.1
	C174.5,61.7,174.4,61.8,174.3,61.9 M175.3,62.7L175.3,62.7L175.3,62.7c0.1-0.1,0.2-0.1,0.3-0.1h0.2c0.1,0,0.2,0.1,0.4,0.2
	c0.2,0,0.3,0.1,0.4,0.2c0.1,0.1,0.2,0.2,0.3,0.3c0.1,0.1,0.2,0.2,0.2,0.3l0.1,0.1c0.1,0.3,0.2,0.5,0.2,0.8c0.1,0.2,0.1,0.5,0,0.7
	c0,0.2-0.1,0.4-0.2,0.5l-0.1,0.1l-0.1,0l-0.2,0.1h-0.2c-0.4,0-0.7-0.2-1-0.5c-0.3-0.3-0.6-0.7-0.7-1c-0.1-0.2-0.2-0.5-0.2-0.7
	c0-0.2,0-0.4,0.1-0.5c0-0.2,0.1-0.3,0.2-0.4L175.3,62.7L175.3,62.7 M175.6,63.1h-0.2l-0.1,0.1c-0.1,0.1-0.2,0.2-0.2,0.3
	c0,0.1,0,0.3,0,0.4c0,0.1,0,0.3,0.1,0.5c0.1,0.2,0.1,0.3,0.2,0.5c0.1,0.1,0.2,0.3,0.3,0.4c0.1,0.1,0.2,0.2,0.3,0.2
	c0.1,0.1,0.2,0.1,0.3,0.2h0.1c0.1,0,0.1,0,0.2,0v0c0.2-0.2,0.2-0.5,0.2-0.7c-0.1-0.3-0.1-0.5-0.2-0.7l-0.1-0.1
	c-0.1-0.2-0.3-0.4-0.5-0.6C176,63.2,175.8,63.1,175.6,63.1 M127.6,6.1v1.6l5.1,2.9l0,0l117.8,68V77l-117.7-68L127.6,6.1 M136.1,0.9
	L133,2.8l-5.2,3l5,2.9l118,68.1l8.4-4.8L136.1,0.9 M258,74.5L258,74.5l0.2,0.2h0.1l0,0.2v0l-2.9,11.8h0l2.7,10.8l-3.8,5.8l0.7,9.1v0
	l-2.4,6l0.7-0.4l2.7-6.4l-0.8-9.2l3.8-5.7L256.2,86l0-0.1l3-12.1v-1.6l-8.3,4.8v1.5L258,74.5 M276.1,70.5c-0.3,0-0.6,0-0.9,0
	c-0.4,0-0.7,0-1.1,0c-0.3,0-0.6-0.1-0.9-0.2c-0.3-0.1-0.6-0.2-0.8-0.2v16.7h0.1c-0.1,0.5-0.1,1-0.2,1.5c-0.1,0.5-0.2,1-0.3,1.4
	c-0.2,0.4-0.3,0.9-0.5,1.3c-0.2,0.4-0.4,0.9-0.7,1.2c-0.2,0.4-0.5,0.8-0.8,1.2c-0.3,0.4-0.6,0.7-0.9,1.1c-0.3,0.3-0.7,0.6-1.1,0.9
	c-0.4,0.3-0.7,0.6-1.1,0.8c-0.4,0.2-0.8,0.5-1.2,0.7c-0.4,0.2-0.9,0.4-1.3,0.6c-0.5,0.1-0.9,0.3-1.4,0.4c-0.5,0.1-1,0.2-1.5,0.2v0
	l-3.3,0.3l-2.6,3.9l0.2,1.9l5.7-0.6l0.7-0.1v0h0v-0.1c0.2,0,0.3-0.1,0.5-0.1c0.5-0.1,1.1-0.2,1.6-0.3c0.7-0.2,1.4-0.4,2-0.6
	c1.3-0.5,2.6-1.1,3.7-1.9c1.1-0.7,2.2-1.6,3.1-2.6c1-1,1.8-2.1,2.5-3.2c0.7-1.2,1.3-2.4,1.7-3.7c0.2-0.7,0.4-1.4,0.5-2
	c0.1-0.7,0.2-1.4,0.3-2.1h0.3v-0.2H278V70.2c0,0,0,0-0.1,0c-0.3,0.1-0.6,0.2-0.9,0.2C276.7,70.4,276.4,70.5,276.1,70.5 M272.1,59
	v-0.8c-0.1,0-0.1,0-0.2,0.1c-0.1,0-0.2,0.1-0.4,0.1l-0.4,0L272.1,59 M271.7,56.7L271.7,56.7l-0.8,0.4l1.2,0.7v-1.3l-0.2,0.1
	L271.7,56.7 M270.7,57.5C270.7,57.5,270.8,57.5,270.7,57.5h0.2H270.7L270.7,57.5 M271.1,58h0.2c0.1,0,0.3-0.1,0.4-0.1h0l-0.2-0.1
	l-0.2,0h-0.1l-0.1,0l-0.2,0c-0.2,0-0.4,0-0.6-0.1l-0.1,0l0,0l-6.1-3.5l-0.2,0.2l5.9,3.4h0l0.1,0c0.1,0,0.2,0.1,0.4,0.1
	c0.1,0,0.3,0,0.4,0.1L271.1,58 M268.9,57.9l0.2-0.2l-5.4-3.1l-0.3,0.2L268.9,57.9 M267.8,58.7l0-0.2l0.7-0.4L263,55l0,0
	c-0.2,0.1-0.4,0.3-0.6,0.4c-0.1,0.1-0.3,0.3-0.4,0.5c-0.1,0.2-0.2,0.4-0.2,0.6c-0.1,0.2-0.1,0.5-0.2,0.7c0,0.2,0,0.5,0,0.7
	c0,0.2,0,0.5,0,0.7c0,0.2,0.1,0.5,0.1,0.7c0,0.2,0.1,0.5,0.1,0.8c0.1,0.2,0.1,0.5,0.2,0.7c0.1,0.2,0.1,0.5,0.2,0.7l0.3,0.6
	c0.1,0.2,0.2,0.4,0.3,0.5l0.2,0.5l4.5,2.6v-7.2H267.8 M265.4,58.5c0.2,0.2,0.3,0.3,0.4,0.5c0.1,0.2,0.2,0.4,0.3,0.6
	c0.1,0.2,0.1,0.4,0.2,0.6c0,0.2,0.1,0.4,0.1,0.6V61h0c0,0,0,0.1,0,0.2l-0.1,0.3c0,0.1-0.1,0.2-0.1,0.3c0,0.1-0.1,0.2-0.1,0.2
	c-0.1,0.1-0.1,0.1-0.2,0.2l0,0l-0.1-0.1l0,0.1v0h0c-0.1,0-0.2,0-0.2,0.1l-0.2,0l-0.6-0.1l-0.3-0.1l-0.2-0.1
	c-0.2-0.1-0.3-0.3-0.5-0.4c-0.2-0.1-0.3-0.3-0.4-0.5c-0.1-0.2-0.2-0.3-0.3-0.5c-0.1-0.2-0.1-0.4-0.2-0.5l-0.1-0.2
	c-0.1-0.1-0.1-0.3-0.1-0.5c0-0.2,0-0.4,0-0.5c0-0.2,0.1-0.4,0.2-0.5c0-0.1,0.1-0.3,0.3-0.4l0.1,0l0.2,0.2l-0.1-0.2v0h0.1
	c0.1-0.1,0.3-0.1,0.5-0.1h0.2c0.2,0.1,0.5,0.2,0.7,0.3C265.1,58.2,265.2,58.3,265.4,58.5 M265.3,61.7L265.3,61.7L265.3,61.7v-0.2
	l-0.1,0.1l-0.1-0.1c-0.3-0.1-0.5-0.4-0.7-0.7c-0.2-0.3-0.4-0.6-0.6-1c-0.2-0.4-0.3-0.7-0.3-1.1c0-0.2,0-0.4,0-0.6
	c-0.1,0-0.1,0.1-0.2,0.2c0,0.1-0.1,0.2-0.1,0.3c0,0.1-0.1,0.2-0.1,0.3v0.4c0,0.1,0,0.2,0.1,0.3l0,0.2c0.1,0.2,0.2,0.5,0.3,0.7
	c0.1,0.2,0.2,0.4,0.4,0.6c0.1,0.2,0.3,0.3,0.5,0.4l0.1,0.1v0l0.5,0.2h0.2c0,0,0.1,0,0.1,0h0C265.4,61.8,265.4,61.8,265.3,61.7
	 M266.1,61v-0.1c0-0.2-0.1-0.4-0.1-0.6c-0.1-0.2-0.2-0.4-0.3-0.7c-0.1-0.2-0.3-0.5-0.4-0.7c-0.2-0.2-0.4-0.4-0.6-0.5
	c-0.3-0.2-0.5-0.3-0.7-0.3c-0.1,0.2-0.1,0.3-0.1,0.5c0,0.2,0,0.4,0.1,0.6c0,0.2,0.1,0.4,0.2,0.6c0.1,0.2,0.2,0.4,0.3,0.6
	c0.1,0.2,0.2,0.4,0.4,0.5c0.1,0.1,0.3,0.2,0.5,0.3l0.1,0.1l0,0l0.4,0.1h0.1c0,0,0,0,0.1-0.1l0.1-0.3C266,61.1,266,61.1,266.1,61h0.2
	H266.1 M275,45.6l-0.3-0.2l-0.2-0.1h-1.3l-0.2,0.2c-0.1,0-0.1,0.1-0.2,0.1l-0.2,0.1v0c0,0,0,0,0,0v0.2l0,0.1l0.1,0.1l0,0.1l0.1,0.1
	l0.1,0.1l0.4,0.2h0.2l0.2,0.1h0.2c0.1,0,0.2-0.1,0.3-0.1c0.1,0,0.3-0.1,0.4-0.1c0.1-0.1,0.2-0.1,0.2-0.2c0.1-0.1,0.1-0.2,0.2-0.3
	l0-0.1C275,45.7,275,45.6,275,45.6 M277,61.7c-0.3,0-0.6,0.1-0.9,0.1c-0.3,0-0.6,0.1-0.9,0.1c-0.4,0-0.7-0.1-1-0.1
	c-0.3,0-0.6-0.1-0.9-0.1c-0.3-0.1-0.6-0.2-0.9-0.3c-0.3-0.1-0.5-0.2-0.7-0.4l-0.2-0.1l0.2-0.3l-0.2,0.3l-3.4-2v8.3l3.7,2.1h0
	l0.2,0.1c0.2,0.1,0.5,0.3,0.8,0.4l2.2,0.4h0.4c0.3,0,0.6,0,0.9,0l1.2-0.2c0.2-0.1,0.4-0.1,0.6-0.2c0.2-0.1,0.3-0.1,0.5-0.2
	c0.2-0.1,0.4-0.2,0.6-0.3c0.2-0.1,0.3-0.3,0.5-0.5c0.2-0.1,0.3-0.3,0.5-0.6c0.1-0.2,0.2-0.4,0.3-0.7l0-0.1h0v-7.6
	c-0.1,0.1-0.2,0.3-0.3,0.4c-0.2,0.2-0.4,0.4-0.6,0.6c-0.2,0.2-0.5,0.3-0.8,0.4c-0.2,0.1-0.5,0.2-0.8,0.3
	C277.6,61.6,277.3,61.6,277,61.7 M278.9,56.7c-0.2-0.1-0.4-0.2-0.5-0.3v2.2h0v0c-0.1,0.3-0.2,0.6-0.4,0.9c-0.2,0.2-0.5,0.5-0.8,0.6
	c-0.2,0-0.4,0.1-0.6,0.2c-0.2,0.1-0.5,0.1-0.7,0.2c-0.2,0-0.4,0-0.7,0c-0.2,0-0.4,0-0.6,0c-0.2,0-0.4-0.1-0.6-0.1
	c-0.4-0.1-0.7-0.2-0.9-0.3L273,60v0h0.1l-3-1.7c-0.1,0-0.2-0.1-0.3-0.1l0,0l0,0l-0.2-0.2l-1.3,0.7l3.4,2l0.2,0.1
	c0.2,0.1,0.5,0.3,0.8,0.4c0.3,0.1,0.7,0.2,1.1,0.2l1.2,0.1h0.3c0.3,0,0.6,0,0.8-0.1l1.2-0.2c0.4-0.1,0.8-0.3,1.1-0.4
	c0.2-0.1,0.4-0.2,0.6-0.3c0.2-0.1,0.3-0.3,0.5-0.5c0.2-0.2,0.3-0.4,0.4-0.6c0.1-0.2,0.2-0.5,0.3-0.7v-0.2c0-0.2-0.1-0.5-0.2-0.7
	c-0.1-0.2-0.3-0.4-0.5-0.7C279.3,57,279.1,56.9,278.9,56.7 M277.9,45.5c-0.1-0.1-0.2-0.1-0.2-0.2c-0.1-0.1-0.2-0.1-0.3-0.1l-0.3,0
	h-0.4c-0.1,0-0.2,0-0.4,0c-0.1,0-0.3,0-0.4,0.1c-0.1,0-0.2,0.1-0.3,0.2c-0.1,0-0.2,0.1-0.2,0.2v0.2c-0.1,0.3-0.3,0.6-0.6,0.7
	c-0.3,0.1-0.7,0.2-1,0.2h-0.2l-0.3-0.1h-0.1l-0.3,0l-0.1,0l-0.2-0.1l-0.2-0.2v12.7l0.7,0.4h0.1l0,0.1c0.1,0,0.3,0.1,0.5,0.2
	c0.2,0.1,0.4,0.1,0.6,0.1c0.2,0.1,0.4,0.1,0.7,0.1h0.7c0.2-0.1,0.5-0.1,0.7-0.2c0.2,0,0.4-0.1,0.6-0.2c0.1-0.1,0.2-0.1,0.3-0.2
	c0.1-0.1,0.2-0.2,0.3-0.2c0.1-0.1,0.2-0.2,0.2-0.3c0-0.1,0.1-0.3,0.1-0.4h0V45.8C278,45.6,278,45.6,277.9,45.5z"/>
<path id="Layer0_5_MEMBER_0_1_STROKES" class="st1" d="M278.3,85.6v1.5 M262.1,103.8L262.1,103.8 M111.4,62.3l0.2,0.4 M132.6,11
	v-0.4 M132.8,9.1V8.7 M133,2.8V2.3 M261.4,103.8l0.7,0 M278.3,87.3l0,0.9 M113.7,65.4c-0.1,0-0.1-0.1-0.2-0.2 M89.2,64.5L89,65.3
	 M108.6,58.8l0.2,0.2 M89.2,64.5l0.2-0.6 M114.2,65.8l-0.3-0.2L114.2,65.8L114.2,65.8l-2.5-3.1 M113.7,65.4l0.1,0.1 M117,68.1
	l-2.8-2.2l0.4,0.5 M118.6,68.3l-1.3-0.2l0.5,0.3 M117,68.1l0.3,0.1 M121.2,68.9l5.1-1.8 M87.9,80.8l0.4,0.7 M101.4,87.8L98.7,87
	l4.3,1.6 M262.1,103.8l0.5-0.1 M251.4,119l0.5-0.3l0.6-0.3"/>
<path class="st2" d="M190,112.8L190,112.8L190,112.8L190,112.8L190,112.8L190,112.8 M209.2,93.3L209.2,93.3L209.2,93.3l0-0.1
	L209.2,93.3L209.2,93.3L209.2,93.3 M190.4,67.5c-0.1,0-0.3,0-0.4,0.1l-0.5,0.3l0,0h-0.1l-2.1-1.2v-1.9v-8.1V46.1c0-0.1,0-0.2,0-0.4
	c0-0.2,0-0.4,0-0.6c-0.2-0.9-0.6-1.8-1.4-2.5c-0.6-1-1.7-1.8-3.2-2.5c-1.9-0.8-3.8-1.3-5.9-1.3h-0.5h-0.6c-2,0-3.9,0.4-5.8,1.3
	c-1.5,0.7-2.5,1.5-3.2,2.5l-0.1,0.1c-0.7,0.7-1.2,1.6-1.3,2.5l-0.9-0.5v-3.5l0,0v-0.1l-0.1,0l-0.1,0h0l-1-0.6l-0.1,0l-0.6-0.4l0,0h0
	l-0.1,0.1l-0.7,0.3l-0.5-0.3H161l0,0h-0.1c-0.2,0-0.3,0.1-0.4,0.1l-0.1,0.1h-0.1l-0.1,0.1l-0.2,0.2v0l-0.1,0v0l-0.1,0l-0.1,0.2
	l-0.1,0l0,0.1l0,0.1V41l0,0l0,0.1v0.1l-0.3-0.3c-0.2-0.2-0.3-0.3-0.5-0.5L158,40l-0.1-0.4c-0.1-0.2-0.2-0.3-0.3-0.4
	c-0.1-0.2-0.3-0.4-0.5-0.6l-2-1.2c-0.2-0.1-0.3-0.1-0.5-0.2c-0.2,0-0.3-0.1-0.5-0.1h-0.2l-0.5,0.1h-0.1h-0.1
	c-0.2-0.1-0.3-0.1-0.5-0.2c-0.2,0-0.3-0.1-0.5-0.1c-0.2,0-0.4,0-0.7,0.1c-0.2,0.1-0.5,0.2-0.7,0.3l-4.1-2.3l-0.6-0.2l-0.6,0
	l-0.5,0.3l-0.4,0.5l-0.2,0.7l-0.1,0.8l0,0.4l0.1,0.4l0,0l0.1,1l-1,0.1l-0.5,0.3l-0.3,0.6l-0.1,0.6l0.1,0.5l0.2,0.4l0.1,0l4,2.3
	c0,1,0.4,1.8,1,2.2l0.1,0.1c0,0.2,0.1,0.3,0.2,0.4c0.2,0.4,0.5,0.7,0.9,0.9l1.8,1c0.1,0,0.2,0.1,0.2,0.2l0.5,0.2
	c0.2,0,0.4,0.1,0.6,0.1l0.6-0.1l0.4,0.2l0.3,0.2c0.3,0.2,0.6,0.2,0.9,0.2l0.3,0h0h0.1h0.1l0.3,0.2v0.1l0,0l0,0l0,0l-0.1,0.1h0l0,0v0
	l0,0l-0.1,0l0,0.1v0l-0.1,0.1l-0.1,0.1l-0.2,0.5v0.1v0.2l0,0.2c0,0.1,0,0.1,0,0.1l0.1,0.1v0.1l0.1,0.1h0.1l0.4,0.2l0,0.8v0.1l0,0
	l0.1,0l0,0l0.6,0.4l0.3,0.2l0.8,0.4l0,0h0h0.1l0,0h0.2l0,0v-0.1l2.9-1.7l4.5,2.6l0,9.2v1v0.9c-0.8,0.4-1.5,1-2.3,1.8h-0.1l-0.1-0.1
	h-0.1c-0.1,0-0.3-0.1-0.4-0.1c-0.2,0-0.4-0.1-0.6-0.1l-0.2,0.1H161l-0.1,0.1l-0.1,0.1l-0.1,0l-0.1,0l0,0.1l-0.2,0.1l0,0h0h-0.1
	l-0.1,0.1l-0.2,0.1c-0.1,0.1-0.2,0.2-0.3,0.3l0,0.1l0,0.1l0,0.2l0,1.3h0l0,0c0,0,0,0.1-0.1,0.1c-0.1,0.1-0.1,0.1-0.1,0.2
	c0,0.1,0,0.1,0,0.2v0.3l-0.2,0.3l0.2,0.5v1.3c0,0.2,0.1,0.3,0.1,0.5l0.2,0.2c0.1,0.1,0.2,0.2,0.3,0.3l1.3,0.8l0.4,0.5l1.6,2.3
	l1.1,0.6c0.2,0.4,0.5,0.7,0.8,0.9l3.2,1.9v6.1l-3.6-2.1c-0.2-0.1-0.4-0.2-0.6-0.2c-0.2-0.1-0.4-0.1-0.7-0.1l-0.2-0.1l-2.5-1.5
	l-0.8,0.5l-0.5,0.3l-3.5,2l-0.6,0.7c-1.2,1.7-1.7,3.3-1.5,4.9l-0.3,0.7l0.8,1.2l1.5,2.2l1,0.6c0.1,0.2,0.3,0.4,0.4,0.5
	c0.1,0.2,0.3,0.3,0.5,0.4l0.5,0.3l-3.2,1.9l-0.1,0.1l-0.1,0c-0.3,0.2-0.5,0.4-0.6,0.8c-0.1,0.2-0.1,0.4-0.1,0.7c0,0.2,0,0.5,0,0.7
	l-0.1,0.1l-0.1,0c-0.1,0.1-0.1,0.1-0.2,0.2c0,0.1-0.1,0.2-0.1,0.3l-0.1,0.2v0.1l0,0.1v0.1l0,0.1v0.1l0,0.1v0.1l0,0.1v0.1
	c0,0.1,0,0.2,0.1,0.3v0.1l0.1,0.1l0.1,0.2l0.1,0.3c0.3,0.4,0.5,0.6,0.7,0.8c0.1,0.1,0.2,0.1,0.3,0.2l0.1,0.1l0.1,0l0.1,0.1l0.1,0
	l0.1,0l0.1,0.1h0.1c0.2,0,0.4,0.1,0.4,0.1h0.1l0,0h0.1l0.1,0h0.1v0l0.1,0c0.6,0.4,1.2,0.6,1.6,0.6c0.2,0,0.5-0.1,0.6-0.2l0.2-0.1
	l7-4.1l2.4,1.4v2.2c0,1,0.5,1.8,1.4,2.6c0.3,0.2,0.5,0.4,0.8,0.6c0.3,0.2,0.6,0.3,0.9,0.5l0.1,0.1l0.1,0l0.2,0.1l0.1,0l0.1,0.1
	l0.1,0l0,0l0.1,0h0l0.1,0.1c-0.2,0.1-0.4,0.4-0.5,0.7c-0.1,0.2-0.1,0.4-0.1,0.7c0,0.2,0,0.5,0,0.7l-0.1,0.1l-0.1,0.1
	c-0.2,0.2-0.3,0.5-0.3,1v0.1c0,0.4,0.1,0.7,0.1,1c0.1,0.2,0.2,0.4,0.3,0.6c0.1,0.2,0.3,0.4,0.4,0.5l0.2,0.2c0.1,0.1,0.2,0.1,0.3,0.1
	l0.1,0.1h0.1l0,0l0.1,0.1l0.5,0.1h0.1l0.1,0h0.1l0.1,0h0.1l0.1-0.1h0.1l0.1,0c0.6,0.4,1.1,0.6,1.6,0.6c0.2,0,0.4-0.1,0.6-0.2
	l0.1-0.1l0,0l0.1,0l0.1-0.1l4.6-2.7c0.2,0,0.4,0.1,0.6,0.1l2.3,1.3c0.2,0,0.4,0,0.6-0.1c0.2,0,0.5-0.1,0.7-0.2l0.2-0.1
	c0.2-0.1,0.4-0.1,0.5-0.2c0.2-0.1,0.3-0.1,0.4-0.2v0c0,0-0.1-0.1-0.1-0.1c-0.1-0.2-0.2-0.3-0.3-0.5c-0.1-0.2-0.2-0.4-0.2-0.6
	c0-0.1,0-0.3-0.1-0.4c0-0.1,0-0.3,0-0.4c0-0.2,0.1-0.4,0.1-0.6c0.1-0.7,0.5-1.5,0.9-2.3c0.5-0.8,1-1.5,1.6-2
	c0.1-0.1,0.3-0.2,0.4-0.3c0.3-0.2,0.6-0.3,0.8-0.4c0.3-0.1,0.5-0.1,0.8-0.1c0.1,0,0.3,0,0.4,0l0.4,0.1h0l1.2,0.7l5.1-3
	c0.3-0.1,0.5-0.4,0.6-0.8c0.1-0.2,0.1-0.3,0.1-0.5c0-0.2,0-0.3,0-0.5c0-0.6-0.1-1.3-0.5-2.1c-0.3-0.7-0.7-1.3-1.2-1.8
	c-0.4-0.4-0.8-0.7-1.3-0.9c-0.3-0.1-0.6-0.2-0.8-0.2c-0.3,0-0.5,0.1-0.7,0.2l-6.5,3.7l-0.3-0.1l-2.8-1.6v-8.9l6.5,3.7
	c0.1,0.1,0.2,0.1,0.2,0.2c0.3,0.2,0.7,0.3,1.1,0.3h0.2l2.3,1.3c0.8-0.1,1.6-0.4,2.5-0.9v0l-0.1,0c0,0-0.1,0-0.1-0.1
	c-0.4-0.3-0.6-0.7-0.7-1.3l0,0c0-0.1,0-0.3,0-0.5c0-0.2,0-0.3,0-0.5l0-0.3v-0.2c0.1-0.8,0.4-1.5,0.8-2.1c0.4-0.8,1-1.6,1.8-2.2
	c0.1,0,0.1-0.1,0.1-0.1c0.2-0.1,0.4-0.2,0.6-0.3c0.2-0.1,0.4-0.2,0.5-0.2c0.3-0.1,0.5-0.1,0.7-0.1c0.2,0,0.5,0.1,0.7,0.1
	c0.1,0,0.1,0,0.1,0l0.3,0.1h0v-0.3c-0.5-1.3-1.3-2.4-2.4-3.4l-0.6-0.3c-0.1-0.2-0.3-0.4-0.4-0.5c-0.1-0.1-0.3-0.3-0.4-0.4
	c-0.1,0-0.2-0.1-0.3-0.1l-1.1-0.6l1.1-0.7c0.3-0.1,0.5-0.3,0.6-0.7c0.1-0.2,0.1-0.3,0.1-0.5c0-0.2,0-0.3,0-0.5
	c0.1-1.1-0.3-2.3-1.4-3.5c-0.8-1-1.6-1.5-2.4-1.5c-0.3,0-0.5,0.1-0.8,0.2l-4.8,2.8l-0.7-0.4l4.3-2.5c0.4-0.3,0.7-0.6,0.7-0.9v-2.3
	v-0.2l0-0.1l-0.1-0.2l-0.1,0V70l-0.1,0v-1.1v-0.2l0,0v-0.1l0-0.1l0-0.1l-0.1,0l-0.1-0.2c-0.1-0.1-0.2-0.2-0.3-0.3h-0.1
	c-0.2-0.1-0.4-0.2-0.7-0.3c-0.2-0.1-0.4-0.1-0.6-0.1L190.4,67.5z"/>
<path class="st3" d="M149.8,78.8l-0.3,0.1l-0.8,0.5l-1.9-1.1c-0.2-0.1-0.4-0.2-0.6-0.2c-0.2,0-0.4,0-0.6,0.1l-4.2-2.5
	c-0.2-0.1-0.4-0.1-0.6-0.1c-0.4,0-0.6,0.2-0.9,0.5c-0.2,0.3-0.3,0.7-0.3,1.1c0,0.2,0.1,0.4,0.1,0.6l0.1,0.7l-0.8,0.1l-0.3,0.3
	l-0.2,0.4l-0.1,0.5l0.1,0.4l0.2,0.3l0,0.1l4.1,2.4c0.1,0.5,0.3,0.8,0.7,1l2,1.1v0.8l0.2,0.7l0.3,0.5l0.4,0.4
	c0.2,0.8,0.5,1.5,1.2,1.9l5.5,3.2l0.7,0.3l0.7,0.1v-0.1l-0.8-1.2l0.2-0.7c-0.2-1.5,0.3-3.1,1.5-4.8c1.2-1.7,2.6-2.6,4.1-2.6h0.1
	l0.5-0.3v-0.1l-0.3-0.5l-0.6-0.3l-5.6-3.2c-0.2-0.1-0.3-0.1-0.5-0.2c-0.2,0-0.4-0.1-0.5-0.1c-0.2,0-0.3,0-0.5,0
	c-0.2,0-0.3,0.1-0.5,0.1l-0.3-0.3l-0.6-0.1L149.8,78.8 M162.1,67.6c0.2,0,0.3,0.1,0.4,0.1h0l0.1,0.1l0.1,0c0.7-0.9,1.5-1.5,2.3-1.8
	v-1v-1l-4.6-2.7c-0.2-0.1-0.3-0.1-0.5-0.2c-0.2,0-0.4,0-0.5-0.1c-0.3,0-0.6,0.1-0.9,0.1l-0.4-0.2l-0.6-0.1l-0.7,0.1l-0.3,0.1
	l-0.7,0.3l-0.1,0.1l-1.9-1.2c-0.2-0.1-0.4-0.1-0.6-0.1c-0.2,0-0.4,0-0.6,0.1l-4.3-2.5c-0.2-0.1-0.4-0.2-0.6-0.2
	c-0.3,0-0.6,0.2-0.8,0.6c-0.1,0.2-0.2,0.4-0.2,0.5c0,0.2,0,0.4,0,0.6c0,0.2,0,0.3,0.1,0.5l0.1,0.8l-0.8,0.1l-0.3,0.3l-0.2,0.4
	l-0.1,0.4l0,0.4l0.2,0.3l0.1,0.1l0.1,0v0.1l3.8,2.2c0.1,0.5,0.3,0.8,0.7,1.1l1.9,1.1l0.1,0.8l0.2,0.7l0.3,0.5l0.2,0.2l0.3,0.1
	c0.1,0.8,0.5,1.4,1.1,1.9l5.6,3.2l0.7,0.3l0.9,0.1V75l-0.4-0.5l-1.3-0.8c-0.1-0.1-0.2-0.2-0.3-0.3l-0.2-0.2
	c-0.1-0.2-0.1-0.3-0.1-0.5v-1.3l-0.2-0.5l0.2-0.3v-0.3c0-0.1,0-0.1,0-0.2c0,0,0-0.1,0.1-0.1c0-0.1,0.1-0.1,0.1-0.1l0.1,0l0,0l0-1.3
	v-0.2l0.1-0.1v-0.1c0.1,0,0.2-0.1,0.3-0.3l0.2-0.1l0.1-0.1h0.1l0.1,0l0,0l0.2-0.1l0.1-0.1h0.1l0.1,0l0.1-0.1l0.1-0.1h0.5l0.2-0.1
	C161.7,67.5,161.9,67.5,162.1,67.6 M195.2,107.8l-3.1-1.8l-1.2-0.7c0,0,0,0-0.1,0l-0.4-0.1c-0.1,0-0.3,0-0.4,0c-0.2,0-0.5,0-0.8,0.1
	c-0.2,0.1-0.5,0.2-0.8,0.4c-0.1,0.1-0.3,0.2-0.4,0.3c-0.6,0.5-1.1,1.1-1.6,2c-0.5,0.8-0.8,1.6-0.9,2.3c0,0.2-0.1,0.4-0.1,0.6
	c0,0.2,0,0.3,0,0.4c0,0.2,0,0.3,0.1,0.4c0,0.2,0.1,0.5,0.2,0.6c0.1,0.2,0.2,0.4,0.3,0.6c0,0,0.1,0,0.1,0.1c0.1,0.1,0.1,0.1,0.2,0.2
	l4.3,2.5l0.5,0.1h0.6l0.2,0l0.4,0.3c0.1,0.1,0.3,0.1,0.4,0.1c0.1,0,0.2,0,0.3,0c0.3,0,0.6,0,0.9-0.1l0.9,0.5l0.2,0.1l0.5,0.1h0.5
	c0,0,0.1,0,0.2-0.1l3.3,1.9c0.3,0.1,0.5,0.2,0.7,0.2c0.3,0,0.6-0.2,0.8-0.5c0.1-0.2,0.2-0.3,0.2-0.5c0.1-0.2,0.1-0.4,0-0.6
	c0-0.2,0-0.4-0.1-0.5l-0.1-0.8l0.7-0.1l0.3-0.3l0.3-0.4l0-0.5l0-0.4l-0.2-0.3l-0.3-0.1l-3-1.7c0-0.1,0-0.2-0.1-0.4
	c0-0.2-0.1-0.3-0.2-0.3c-0.1-0.1-0.2-0.2-0.3-0.2l-0.1-0.1l-1-0.6c0-0.2-0.1-0.4-0.1-0.6c-0.1-0.2-0.2-0.3-0.3-0.5l-0.3-0.2l0,0
	l-0.1,0l-0.4-0.2l0-0.2l-0.3-0.6L195.2,107.8 M206.1,89.8l-0.3-0.5l-0.3-0.3l-0.1-0.1l-4.1-2.3l-0.3-0.1c-0.1,0-0.1,0-0.2,0
	c-0.2-0.1-0.4-0.1-0.7-0.1c-0.2,0-0.5,0.1-0.8,0.1c-0.2,0.1-0.3,0.1-0.5,0.2c-0.2,0.1-0.4,0.2-0.6,0.4c0,0,0,0.1-0.1,0.1
	c-0.8,0.6-1.4,1.3-1.8,2.2c-0.4,0.6-0.6,1.3-0.8,2.1c0,0.1,0,0.3,0,0.5c0,0.2,0,0.3,0,0.5c0,0.2,0,0.3,0.1,0.5
	c0.1,0.6,0.3,1.1,0.7,1.4c0.1,0.1,0.1,0.1,0.1,0.1l0.1,0l4.2,2.5l0.5,0.2h0.6l0.3-0.1l0.1,0.1c0.1,0.1,0.2,0.2,0.3,0.2
	c0.2,0.1,0.4,0.2,0.7,0.1c0.3,0,0.6,0,0.9-0.1l0.9,0.5l0.1,0.1l0.1,0c0.1,0.1,0.2,0.1,0.3,0.1l0.1,0l0.4,0h0h0.1
	c0.1,0,0.1,0,0.2-0.1l3.7,2.1h0l0.4-0.1l0.4-0.3l0.3-0.3l0.2-0.5V98l-0.1-0.3l-0.1-0.7l0.8-0.1l0.3-0.3l0.2-0.4l0.1-0.5l-0.1-0.4
	l-0.2-0.3h-0.1l-0.2-0.1l-3-1.7l-0.1,0v0v-0.1L209,93v-0.1c-0.1-0.2-0.2-0.3-0.3-0.4c0-0.1-0.1-0.2-0.2-0.3c-0.1,0-0.1,0-0.2-0.1
	l-0.9-0.6c-0.1-0.6-0.4-1.1-0.8-1.3c-0.1,0-0.2-0.1-0.3-0.1l-0.2-0.1L206.1,89.8z"/>
<path class="st4" d="M187.4,45.1c-0.2-1-0.6-1.8-1.4-2.6c-0.7-1-1.8-1.9-3.3-2.6c-1.9-0.9-3.9-1.3-5.9-1.3h-0.5h-0.6
	c-2,0-4,0.4-5.9,1.3c-1.5,0.7-2.6,1.6-3.2,2.5c0,0-0.1,0.1-0.1,0.1c-0.7,0.7-1.1,1.5-1.3,2.3l-0.6-0.3l0-3.5v0l0-0.2l-0.1,0h-0.1
	l0,0h-0.1l-1-0.5l-0.6-0.4l-0.2-0.1l-0.2,0.2l-0.6,0.3l-0.4-0.3h-0.1l0,0h-0.2c-0.2,0-0.4,0.1-0.5,0.2l-0.1,0.1h-0.1l0,0.1l-0.3,0.2
	h-0.1l0,0v0.1l-0.1,0.2l-0.1,0l-0.1,0.3l-0.1-0.1c-0.2-0.2-0.4-0.4-0.5-0.5l-0.8-0.4l-0.1-0.3l-0.1-0.2l-0.1-0.2
	c-0.1-0.2-0.3-0.5-0.6-0.6l-2-1.2c-0.2-0.1-0.4-0.2-0.7-0.3c-0.1,0-0.3,0-0.5,0h-0.2l-0.5,0.1h-0.1c-0.2-0.1-0.3-0.1-0.5-0.2
	c-0.2,0-0.4-0.1-0.5-0.1c-0.2,0-0.4,0-0.7,0.1c-0.2,0.1-0.5,0.2-0.7,0.3l-4.1-2.3l-0.6-0.2l-0.6,0l-0.6,0.3l-0.5,0.6l-0.2,0.7
	l-0.1,0.8l0,0.5l0.1,0.4l0,0l0.1,0.9l-0.8,0.1l-0.6,0.4l-0.3,0.6l-0.1,0.6l0.1,0.6l0.3,0.5l4,2.3c0,1,0.4,1.8,1.1,2.2l0.1,0.1
	l0.1,0.2l0.1,0.2c0.2,0.4,0.5,0.8,0.9,1l1.8,1c0.1,0,0.1,0.1,0.2,0.1l0.1,0l0.3,0.1l0.3,0.1l0.3,0.1l0.3,0l0.1,0l0.5-0.1l0.3,0.2
	l0.3,0.2c0.2,0.1,0.4,0.2,0.6,0.2c0.1,0,0.3,0,0.4,0l0.3,0h0.1h0.1h0.1l0.1,0.1h-0.1l0,0.1v0.1l-0.1,0l0,0.1l-0.2,0.1l0,0.1
	l-0.2,0.6v0.4c0,0.1,0,0.2,0,0.3c0,0.1,0,0.1,0.1,0.2v0.1l0.2,0.2h0.1l0.3,0.1v0.7l0.1,0.2h0l0.1,0.1h0.1l0.5,0.3l0,0.1h0.1l1.1,0.6
	v0.1l0,0l0.3,0h0h0.3l0,0v-0.1l2.7-1.6L165,55l0,8.8l-4.4-2.5c-0.2-0.1-0.4-0.2-0.5-0.2c-0.2,0-0.4,0-0.6-0.1
	c-0.3,0-0.6,0.1-0.9,0.1l-0.3-0.2l-0.6-0.1l-0.7,0.1l-0.3,0.1l-0.7,0.3l-0.1,0.1l-1.9-1.1c-0.2-0.1-0.4-0.1-0.7-0.1
	c-0.2,0-0.4,0-0.6,0.1l-4.2-2.4c-0.2-0.1-0.5-0.2-0.7-0.2c-0.1,0-0.2,0-0.3,0c-0.3,0.1-0.5,0.3-0.7,0.6c-0.1,0.2-0.2,0.4-0.3,0.6
	c0,0.2,0,0.4,0,0.6c0,0.2,0,0.4,0.1,0.5l0.1,0.6l-0.6,0.1l-0.3,0.3l-0.3,0.4l-0.1,0.5l0,0.5l0.3,0.3l4.1,2.4
	c0.1,0.5,0.3,0.9,0.8,1.1l1.9,1l0.1,0.7l0.2,0.7l0.4,0.6l0.2,0.2l0.2,0.1c0.1,0.8,0.5,1.4,1.2,1.9l5.6,3.2l0.7,0.3l0.8,0.1l1.5,2.3
	l1.1,0.6c0.2,0.4,0.5,0.7,0.9,0.9l3.1,1.8v5.8l-3.4-1.9c-0.2-0.1-0.4-0.2-0.6-0.3c-0.2,0-0.4-0.1-0.7-0.1l-2.7-1.6l-0.8,0.5
	l-0.3-0.4l-6.2-3.6c-0.2-0.1-0.4-0.2-0.5-0.2c-0.2,0-0.4-0.1-0.6-0.1c-0.3,0-0.6,0-1,0.1l-0.3-0.2l-0.7-0.1l-0.7,0.1l-0.3,0.1
	l-0.8,0.4l-1.9-1c-0.2-0.1-0.5-0.2-0.7-0.2c-0.2,0-0.4,0-0.6,0.1l-4.1-2.4c-0.2-0.1-0.4-0.2-0.6-0.2h-0.1c-0.1,0-0.3,0-0.4,0.1
	c-0.1,0.1-0.2,0.1-0.3,0.2c-0.1,0.1-0.2,0.2-0.2,0.3c-0.2,0.4-0.4,0.8-0.3,1.2l0.1,0.3l0.1,0.3l0.1,0.6l-0.6,0.1l-0.3,0.3l-0.3,0.4
	l-0.1,0.6l0.1,0.5l0.3,0.3l4.1,2.4c0.1,0.5,0.3,0.8,0.7,1l1.9,1.1V86l0.2,0.8l0.4,0.5l0.4,0.4c0.2,0.8,0.6,1.5,1.2,1.9l5.6,3.2
	l0.7,0.3l0.6,0.1l1.5,2.1l1,0.6c0.3,0.4,0.6,0.7,0.9,1l0.3,0.2l-3,1.8l-0.1,0l-0.1,0l-0.1,0c-0.3,0.2-0.5,0.5-0.7,0.8
	c-0.1,0.2-0.1,0.4-0.1,0.7c0,0.2,0,0.5,0,0.7h0l0,0c-0.1,0.1-0.2,0.2-0.2,0.3c-0.1,0.1-0.1,0.2-0.1,0.3l-0.1,0.2v0.1l0,0.1v0.2
	l0,0.1l0,0l0,0.3c0,0.1,0,0.2,0.1,0.4l0,0.1l0,0.1l0.1,0.2l0.1,0.3c0.3,0.4,0.5,0.7,0.7,0.8c0.1,0.1,0.2,0.1,0.3,0.2l0,0.1h0.1
	l0.1,0l0.1,0.1l0.2,0.1l0.1,0.1l0.1,0l0.3,0.1h0.2h0.1l0,0l0.3-0.1c0.6,0.4,1.1,0.6,1.6,0.6c0.3,0,0.5-0.1,0.7-0.2l0.2-0.1l6.9-4.1
	l2.2,1.3v2.1c0,1,0.5,1.9,1.4,2.7c0.3,0.2,0.5,0.4,0.8,0.6c0.3,0.2,0.6,0.3,0.9,0.5l0,0.1l0.1,0l0.1,0.1l0.1,0.1l0.1,0.1l0.1,0
	c-0.2,0.2-0.3,0.4-0.4,0.6c-0.1,0.2-0.1,0.4-0.1,0.7c0,0.2,0,0.5,0,0.8l-0.1,0.1c-0.1,0.1-0.2,0.3-0.3,0.5c-0.1,0.2-0.1,0.4-0.1,0.7
	v0.1c0,0.2,0,0.5,0.1,0.6l-0.1,0.2h0l0.1-0.1l0.1,0.3c0.1,0.2,0.2,0.5,0.3,0.6c0.1,0.2,0.3,0.4,0.4,0.5l0.2,0.2
	c0.1,0.1,0.2,0.1,0.2,0.1l0.1,0.1h0.1l0.1,0.1l0.5,0.1l0.3,0l0.3-0.1h0.1l0.1,0c0.6,0.4,1.1,0.6,1.6,0.6c0.3,0,0.5-0.1,0.7-0.2
	c0.1,0,0.1-0.1,0.1-0.1c0,0,0,0,0.1,0l4.7-2.7c0.2,0,0.3,0.1,0.5,0.1l2.3,1.3l0,0c0.2,0,0.4,0,0.6-0.1c0.2-0.1,0.5-0.1,0.7-0.2
	l0.2-0.1c0.3-0.1,0.6-0.2,0.9-0.4l0.1,0.1l4.3,2.5l0.5,0.1h0.7h0.2l0.4,0.2c0.1,0.1,0.3,0.1,0.4,0.1c0.1,0,0.2,0.1,0.4,0.1h0.2
	c0.2,0,0.4-0.1,0.7-0.1l1,0.6h0l0.2,0.1l0.3,0.1h0.5c0.1,0,0.1,0,0.2-0.1l3.2,1.9c0.3,0.1,0.5,0.2,0.7,0.2c0.4,0,0.7-0.2,1-0.6
	c0.1-0.2,0.2-0.4,0.2-0.6c0.1-0.2,0.1-0.4,0-0.7l0-0.3l-0.1-0.3l-0.1-0.6l0.6,0l0.3-0.3l0.3-0.4l0-0.5l0-0.4l-0.2-0.4l-0.3-0.1
	l-3-1.7c0-0.1,0-0.2-0.1-0.3c0-0.1-0.1-0.2-0.1-0.2c0-0.1-0.1-0.1-0.1-0.1c0-0.1-0.1-0.1-0.1-0.2c-0.1,0-0.1-0.1-0.2-0.1l0,0l-1-0.6
	c0-0.2-0.1-0.4-0.2-0.6c-0.1-0.2-0.2-0.4-0.4-0.5l-0.2-0.2l-0.5-0.3l0-0.1l-0.3-0.6l-0.3-0.3l-3-1.7l4.8-2.8
	c0.3-0.2,0.6-0.4,0.7-0.8c0.1-0.2,0.1-0.3,0.1-0.5c0-0.2,0.1-0.3,0.1-0.5c0-0.6-0.2-1.4-0.5-2.1c-0.3-0.7-0.7-1.3-1.2-1.8
	c-0.4-0.4-0.8-0.7-1.4-0.9c-0.2-0.1-0.3-0.1-0.5-0.2c-0.1,0-0.3,0-0.4,0c-0.3,0-0.5,0.1-0.8,0.2l-6.5,3.7l-0.2-0.1l-2.7-1.6V90
	l6.3,3.6c0.1,0.1,0.2,0.2,0.3,0.2c0.3,0.2,0.7,0.3,1.1,0.3h0.1l2.3,1.3l0.1,0c0.8-0.1,1.6-0.4,2.4-0.9l4.1,2.4l0.5,0.2l0.7,0l0.2,0
	l0.1,0c0,0.1,0.1,0.1,0.1,0.1c0.1,0.1,0.1,0.1,0.2,0.1c0.2,0.1,0.5,0.2,0.7,0.2c0.1,0,0.3,0,0.4,0c0.2,0,0.3-0.1,0.5-0.1l0.8,0.5
	l0.1,0.1l0.1,0.1c0.1,0.1,0.2,0.1,0.3,0.1l0.1,0l0.5,0h0l0.1,0l0.1,0h0.1l0.1,0l3.7,2.1l0.5-0.1l0.4-0.2l0.3-0.4l0.3-0.6l0-1
	l-0.1-0.8l0.6-0.1l0.4-0.3l0.3-0.4l0.1-0.5l-0.1-0.4l-0.3-0.5h-0.1l-3.1-1.8l-0.1-0.3c0-0.1-0.1-0.2-0.1-0.3c0-0.1-0.1-0.1-0.1-0.2
	c0,0-0.1-0.1-0.1-0.1c0,0-0.1-0.1-0.2-0.1c-0.1,0-0.1-0.1-0.2-0.1l-0.8-0.5c-0.1-0.7-0.4-1.1-0.8-1.4l-0.2-0.1l-0.1-0.1l-0.1,0
	l-0.1-0.2l-0.3-0.5l-0.3-0.3l-0.1-0.1l-4-2.3v-0.1l0-0.1c-0.5-1.4-1.3-2.5-2.4-3.5l-0.6-0.3c-0.1-0.2-0.3-0.4-0.4-0.5
	c-0.1-0.1-0.3-0.3-0.5-0.4l-0.2-0.1l-0.1-0.1l-0.9-0.5l0.8-0.5c0.3-0.1,0.5-0.4,0.7-0.8c0.1-0.2,0.1-0.4,0.1-0.5l0-0.3v-0.2
	c0.1-1.1-0.4-2.3-1.4-3.6c-0.8-1-1.7-1.5-2.5-1.5c-0.3,0-0.6,0.1-0.9,0.2l-4.8,2.8l-0.4-0.2l4.1-2.3c0.5-0.3,0.7-0.7,0.8-1.1l0-2.5
	L193,70l0-0.1l0,0l0-1.3v0l0-0.1l-0.1-0.2h-0.1l-0.1-0.1l0-0.1l-0.2-0.1l-0.1-0.1l-0.1-0.1h-0.2c-0.2-0.1-0.4-0.2-0.7-0.3
	c-0.2-0.1-0.4-0.1-0.7-0.1l-0.3,0.1l-0.2,0l-0.2,0.1l-0.5,0.3l-2-1.2l0-20.5c0-0.1,0.1-0.3,0.1-0.4
	C187.4,45.5,187.4,45.3,187.4,45.1 M185.7,42.7c0.4,0.6,0.6,1.3,0.6,2c-0.1,1.9-1.3,3.4-3.8,4.5c-1.9,0.9-3.7,1.3-5.6,1.3l-0.7,0
	c-0.2,0-0.5,0-0.7,0c-1.8,0-3.7-0.4-5.6-1.3c-2.5-1.1-3.7-2.6-3.8-4.5c0-0.7,0.2-1.3,0.6-2l0,0l0.1-0.1c0.6-1,1.7-1.8,3.1-2.5
	c1.9-0.8,3.8-1.3,5.8-1.3l0.6,0l0.5,0c2,0,3.9,0.4,5.8,1.3C184,40.9,185.1,41.7,185.7,42.7 M186.7,44.7c0-0.3-0.1-0.7-0.2-1
	c0.1,0.2,0.2,0.4,0.3,0.6c0.1,0.3,0.2,0.5,0.2,0.8c0,0.2,0,0.4,0,0.6v0.2l0,0.2c0,0.6-0.3,1.2-0.7,1.8c-1,1.4-2.5,2.5-4.5,3.2
	c-1.7,0.6-3.6,0.9-5.6,0.9c-2.1,0-4-0.3-5.6-0.9c-2-0.7-3.5-1.8-4.6-3.2c-0.4-0.6-0.6-1.3-0.7-1.9v-0.2c0-0.1,0-0.2,0-0.3l0.1,0
	l0-0.3c0-0.2,0.1-0.5,0.2-0.7c0.1-0.2,0.2-0.4,0.3-0.7c-0.1,0.3-0.1,0.7-0.2,1c0.1,2,1.4,3.6,4,4.8c1.9,0.9,3.9,1.3,5.8,1.3h0.4h0.3
	h0.7c1.9,0,3.9-0.4,5.8-1.3C185.3,48.4,186.6,46.8,186.7,44.7 M186.6,48c0.2-0.2,0.3-0.5,0.4-0.7v9.3c0,0.6-0.2,1.2-0.7,1.8
	c-0.5,0.8-1.3,1.6-2.5,2.2c-1,0.6-2.1,1.1-3.2,1.3h-0.1c-1.7,0.4-3.2,0.6-4.4,0.5h-0.2c-1.1,0-2.5-0.2-4.2-0.5
	c-0.3-0.1-0.6-0.1-0.9-0.2c-0.3-0.1-0.6-0.2-0.8-0.3l-0.2-0.1h0l0,8.7l0.1,0c1.6,0.6,3.3,0.9,5.3,1l1.2,0.1c1.5,0,2.8-0.2,4.1-0.5
	c1.6-0.3,3.1-1,4.4-2c1-0.7,1.7-1.5,2-2.4v4.3c0,1.8-1.1,3.2-3.2,4.4c-1.7,1-3.6,1.5-5.6,1.7l-0.1-0.2l-0.2-0.1l-0.1-0.1l-0.2-0.1
	l0,0l-0.2-0.1c-0.1-0.1-0.3-0.1-0.5-0.2c-0.2,0-0.4-0.1-0.6-0.1c-0.6,0-1,0.1-1.3,0.3h-0.1l0,0.1l-0.1,0.1l-0.2,0.2
	c-0.1,0.1-0.1,0.1-0.2,0.2c-2-0.1-3.9-0.7-5.6-1.7c-2.1-1.2-3.2-2.7-3.3-4.4v-4.1l0-11.5v-7.6c0.1,0.2,0.2,0.5,0.4,0.7
	c1.1,1.5,2.7,2.6,4.7,3.3c1.7,0.6,3.6,0.9,5.8,0.9c2.1,0,4-0.3,5.7-0.9C184.1,50.6,185.6,49.5,186.6,48 M186.6,58.7
	c0.2-0.2,0.3-0.4,0.4-0.7v6.8c0,1.3-0.8,2.5-2.2,3.6c-1.3,1-2.7,1.6-4.3,2c-1.3,0.3-2.6,0.5-4.1,0.5l-1.2,0
	c-1.9-0.1-3.5-0.4-5.1-0.9v-8c0.2,0.1,0.5,0.2,0.7,0.3c0.3,0.1,0.6,0.2,0.8,0.2c0.4,0.1,0.8,0.2,1.2,0.3c0.4,0.1,0.8,0.1,1.2,0.2
	c0.3,0,0.7,0.1,1,0.1c0.3,0,0.6,0.1,0.9,0.1h0.2c1.3,0,2.7-0.2,4.4-0.5l0.1,0c1.2-0.2,2.3-0.7,3.4-1.3
	C185.2,60.3,186.1,59.5,186.6,58.7 M192.6,68.6v0.1l0,0v0.1c0,0.1-0.1,0.2-0.2,0.3c-0.1,0.1-0.3,0.2-0.5,0.3
	c-0.4,0.1-0.7,0.2-0.9,0.2l-0.3,0h-0.2l-0.3,0l-0.3-0.1l-0.4-0.1c-0.1,0-0.2-0.1-0.3-0.1l-0.3-0.2l-0.1-0.1l0-0.1l0-0.1v-0.3h0
	l0,0.1l0.1,0.1c0,0,0.1,0,0.1,0.1c0,0.1,0.1,0.2,0.2,0.2c0.1,0.1,0.3,0.2,0.4,0.2c0.1,0.1,0.2,0.1,0.4,0.1c0.2,0,0.4,0.1,0.7,0.1
	l0.3,0l0.2,0c0.1,0,0.1,0,0.2-0.1l0.3-0.1l0.3-0.3l0.3-0.3l0.1,0L192.6,68.6 M192.2,68.2L192.2,68.2L192.2,68.2l0.1,0.2l0,0.1l0,0
	v0.1l-0.1,0.1l-0.4,0.3l-0.3,0.1l-0.1,0l0.5-0.3l0.3-0.3l-0.4-0.7l0.2,0.1l0.1,0v0.1L192.2,68.2 M191.1,70.1c0.1,0,0.3,0,0.4-0.1
	c0.2,0,0.4-0.1,0.6-0.2c0.2-0.1,0.4-0.2,0.5-0.3v1c0,0.1,0,0.3-0.1,0.4c-0.1,0.1-0.2,0.2-0.4,0.3c-0.2,0.1-0.3,0.2-0.5,0.2
	c-0.2,0.1-0.3,0.1-0.5,0.1h-0.2c-0.2,0-0.5,0-0.7,0c-0.2,0-0.4-0.1-0.5-0.1c-0.2-0.1-0.3-0.1-0.4-0.3l-0.1-0.1l-0.1-0.2l-0.1,0
	l-0.1-0.2v-0.2v-1l0.3,0.3c0.1,0.1,0.2,0.1,0.3,0.1L190,70c0.2,0.1,0.4,0.1,0.6,0.1h0.2C190.9,70.1,191,70.1,191.1,70.1 M191.5,68.2
	l0.1,0.6l-0.5,0.3l-1-0.2l-0.2-0.5l0.5-0.3v0.7l0,0h0.3l0,0V68L191.5,68.2 M190.2,67.8L190.2,67.8l-0.8,0.5l0.4,0.8
	c-0.1,0-0.1-0.1-0.2-0.1l-0.1,0l-0.1-0.1v0c0-0.1-0.1-0.1-0.1-0.1v-0.1l0,0v-0.1l0.1-0.1l0-0.1l0.1-0.1l0.1-0.1l0.6-0.3L190.2,67.8
	 M188.7,68.3l-0.1,0.2l-0.1,2.1l0,0.1l0.1,0.1v0.1l0.1,0.2l0.1,0.1l0.2,0.1c0.1,0.2,0.3,0.3,0.5,0.3c0.2,0.1,0.4,0.1,0.6,0.1
	c0.2,0,0.4,0.1,0.7,0.1h0.2l0.3-0.1l-13.2,7.6c0.1-0.1,0.1-0.1,0.1-0.2c0-0.1,0-0.2,0-0.2l0-2c2-0.2,3.9-0.7,5.6-1.7
	c2.2-1.2,3.4-2.8,3.4-4.7V67l1.7,1l-0.2,0.1L188.7,68.3 M192.9,72.9c0,0.3-0.2,0.6-0.6,0.8l-14.6,8.4c-0.1,0.1-0.2,0.1-0.3,0.1
	c-0.1,0.1-0.2,0.1-0.3,0.1c-0.4,0.1-0.7,0.1-0.8,0.1c-0.6,0-1.1-0.1-1.5-0.4l-14.6-8.4l-0.1-0.1l-0.1-0.1l-0.1-0.1l-0.2-0.2
	c-0.1-0.1-0.1-0.3-0.1-0.4v-1.3v-0.3c0.1,0.1,0.2,0.2,0.4,0.3l14.6,8.4c0.4,0.3,1,0.4,1.7,0.4c0.7,0,1.2-0.1,1.6-0.4l14.5-8.4
	c0.2-0.1,0.3-0.2,0.4-0.3V72.9 M194.4,73.9c0.7,0,1.5,0.5,2.3,1.4c1,1.2,1.4,2.3,1.3,3.4c0,0.1,0,0.3,0,0.4c0,0.1-0.1,0.3-0.1,0.4
	c-0.2,0.4-0.3,0.6-0.6,0.7l-1,0.6l-7.1-4.1l4.6-2.7C193.9,73.9,194.2,73.9,194.4,73.9 M194.4,82.3c0.3-0.2,0.7-0.3,1-0.4
	c0.3-0.1,0.6-0.2,0.8-0.2l-4,2.3C192.8,83.3,193.5,82.7,194.4,82.3 M196.4,81.3c-0.1,0-0.3,0-0.5,0c-0.2,0-0.3,0.1-0.5,0.1
	c-0.2,0.1-0.4,0.1-0.6,0.2c-0.2,0.1-0.4,0.2-0.6,0.3c-1.6,0.9-2.8,2.2-3.6,3.7c-0.7,1.2-1.1,2.5-1.4,3.9l0,0.3
	c-0.1,1.1,0.1,2,0.5,2.8l0.1,0.2l-6.2-3.6l-0.1,0c-0.1,0-0.3-0.1-0.4-0.1c-0.1,0-0.3,0-0.4,0c-0.2,0-0.4,0-0.7,0.1
	c-0.2,0.1-0.4,0.1-0.7,0.2l-4.6,2.7c0-0.1,0.1-0.3,0.1-0.4c0.1-0.2,0.1-0.3,0.1-0.5c0-0.2,0-0.3,0-0.5c0-0.2,0-0.3-0.1-0.5
	c0-0.2-0.1-0.4-0.1-0.7c-0.1-0.2-0.1-0.4-0.2-0.6c-0.1-0.2-0.2-0.4-0.3-0.5c-0.4-0.7-0.9-1.3-1.4-1.8c-0.5-0.4-1.1-0.7-1.6-0.7
	l3-1.7l0-0.1c0.2-0.2,0.3-0.5,0.3-0.7c0-0.2,0-0.3-0.1-0.5l1.1,0c0.4,0,0.7-0.1,1-0.2l0.2-0.1c0.7-0.4,1.2-0.6,1.7-0.7h0.1
	c0.1,0,0.2,0,0.3,0c0.1,0,0.2,0.1,0.3,0.1l0.2,0.2l0.2,0.3c0.1,0.2,0.2,0.4,0.3,0.7l0.8,2.5l0,0l0.3-0.1v0l-0.8-2.6
	c-0.1-0.3-0.2-0.5-0.3-0.7l-0.3-0.4c-0.1-0.1-0.2-0.2-0.3-0.3c-0.1-0.1-0.3-0.2-0.4-0.2c0.7-0.6,1.4-1.3,2-2.2l5.3-3.1l8.1,4.7
	L196.4,81.3 M192.1,84.4l4.5-2.6l1.8,1.1l0.5,0.3c-1.2,1.3-2.7,2.2-4.5,2.5L192.1,84.4 M189.6,89.8v-0.2c0.3-1.3,0.7-2.6,1.4-3.8
	c0.1-0.3,0.3-0.6,0.5-0.9L189.6,89.8 M189.7,91.7c-0.1-0.2-0.1-0.5-0.1-0.8l1.9,2.8c-0.2,0-0.5-0.1-0.7-0.2c0,0-0.1-0.1-0.2-0.1l0,0
	c-0.1-0.1-0.3-0.2-0.4-0.3c-0.1-0.1-0.2-0.3-0.3-0.5C189.8,92.3,189.8,92,189.7,91.7 M196,85.5c-0.7,0.6-1.3,1.4-1.9,2.3
	c0.1-0.3,0.1-0.6,0.2-0.9c0.1-0.3,0.1-0.6,0.1-0.9c0.3,0,0.6-0.1,0.8-0.2C195.5,85.7,195.8,85.6,196,85.5 M194.5,87.9
	c0.5-0.9,1.2-1.7,1.9-2.3c0.8-0.7,1.6-1.1,2.5-1.1h0.3c0.5,0,0.9,0.2,1.2,0.5c0.1,0.2,0.3,0.3,0.3,0.5c0.1,0.2,0.2,0.4,0.2,0.7
	c-0.2,0-0.3,0-0.5-0.1h-0.1c-0.2,0-0.4,0.1-0.6,0.1c-0.3-0.2-0.5-0.2-0.8-0.2c-0.5,0-1,0.2-1.6,0.6c-0.7,0.5-1.2,1.2-1.6,1.9
	c-0.1,0.2-0.2,0.4-0.3,0.6c-0.1,0.2-0.2,0.5-0.3,0.7c-0.1,0.3-0.1,0.6-0.1,0.8c0,0.2,0,0.5,0,0.6l0.1,0.6l0.1,0.3l0.3,0.4l0.3,0.3
	c0.1,0.5,0.3,0.9,0.5,1.2c-0.3,0.1-0.5,0.1-0.7,0.1l-0.2,0c-0.1,0-0.3,0-0.4-0.1c-0.5-0.1-0.9-0.4-1.2-1
	C193,91.8,193.3,90,194.5,87.9 M192.7,91.2c0.2-0.2,0.3-0.5,0.4-0.7c-0.2,0.9-0.1,1.8,0.1,2.6c-0.2-0.2-0.3-0.4-0.5-0.6
	c-0.2-0.2-0.3-0.4-0.5-0.6C192.4,91.7,192.5,91.5,192.7,91.2 M195.6,89.4c0.1-0.2,0.2-0.4,0.3-0.6c0.4-0.7,0.9-1.4,1.6-1.9
	c0.5-0.4,1-0.5,1.4-0.5c0.1,0,0.3,0,0.4,0.1c-0.2,0.1-0.5,0.3-0.8,0.5l-0.1,0l0,0.1l0,0l-0.2,0.1c-0.7,0.6-1.3,1.3-1.7,2.1
	c-0.4,0.7-0.7,1.4-0.8,2.2c0,0.1,0,0.3,0,0.4c0,0.2,0,0.4,0,0.6h0l-0.2-0.4l-0.1-0.2l-0.1-0.5c0-0.2,0-0.4,0-0.6
	c0-0.2,0.1-0.5,0.1-0.8C195.4,89.9,195.5,89.6,195.6,89.4 M196,92l0-0.2l4.1,2.4l0.5,1.4l0.1,1l-3.9-2.3l0,0l-0.1,0l-0.1,0
	c-0.4-0.3-0.6-0.7-0.7-1.2C195.9,92.7,195.9,92.3,196,92 M196.1,90.9c0.1-0.2,0.1-0.3,0.2-0.5c0.1-0.3,0.3-0.6,0.5-1
	c0.4-0.8,0.9-1.5,1.6-2l4.1,2.3l-1.1,2.1l-1.3,1.9l-4.1-2.4C196.1,91.3,196.1,91.1,196.1,90.9 M194.2,85.9c-0.2,2.1-0.9,4.1-2.2,5.8
	l-2.3-1.3l2.2-5.8L194.2,85.9 M199.1,84.2l-0.3,0c-0.3,0-0.6,0.1-0.8,0.1c0.4-0.3,0.8-0.7,1.1-1c0.2,0.2,0.4,0.4,0.6,0.6
	c0.2,0.2,0.4,0.4,0.5,0.7C200,84.3,199.6,84.2,199.1,84.2 M201.1,86l0.2,0.4h-0.1L201.1,86 M201.2,86.8L201.2,86.8l4,2.3l-1,0.3
	l-1.4,0.1l-4.1-2.3c0.2-0.1,0.3-0.2,0.5-0.3c0.2-0.1,0.3-0.1,0.5-0.2l0.1,0c0.2-0.1,0.5-0.1,0.7-0.1c0.2,0,0.4,0.1,0.6,0.1
	L201.2,86.8 M205.2,89.4l0.3-0.1l0.2,0.2l0.1,0.2l-0.2-0.1C205.5,89.5,205.4,89.4,205.2,89.4 M204.8,89.7c0.2,0,0.5,0.1,0.7,0.2
	l0.3,0.2c-0.2,0-0.4,0.1-0.6,0.1c-1.1,0.5-2,1.3-2.5,2.4c-0.7,1-1,2.2-0.8,3.4c0,0.3,0.1,0.5,0.1,0.7l-0.3-0.2
	c-0.6-0.4-0.8-1.1-0.7-2.1c0.1-0.8,0.3-1.6,0.8-2.3V92c0.5-0.7,1-1.3,1.6-1.8c0.2-0.1,0.4-0.3,0.6-0.3c0.2-0.1,0.4-0.2,0.5-0.2
	C204.6,89.7,204.7,89.7,204.8,89.7 M202.8,89.9l0.7-0.1l-0.3,0.2c-0.2,0.2-0.5,0.4-0.7,0.6L202.8,89.9 M205.5,91c0.1,0,0.2,0,0.2,0
	c0.2,0,0.4,0.1,0.5,0.1l1.2,0.7l0.3,0.2c-1,0.2-1.8,0.8-2.5,2.1c-0.2,0.2-0.3,0.5-0.4,0.8c-0.1,0.3-0.2,0.5-0.3,0.8
	c0,0.3-0.1,0.6-0.1,0.8c0,0.3,0.1,0.5,0.1,0.7l-0.3-0.2l-1.3-0.7l0,0h0l-0.1-0.1l-0.1-0.2h0l-0.1-0.1c-0.1-0.2-0.2-0.5-0.2-0.9
	c0-0.1,0-0.3,0-0.5c0-0.2,0.1-0.4,0.1-0.6c0.1-0.2,0.1-0.4,0.2-0.6c0.1-0.2,0.2-0.3,0.3-0.5c0.3-0.6,0.8-1.1,1.3-1.5
	c0.2-0.1,0.3-0.2,0.5-0.3C205.2,91.1,205.3,91.1,205.5,91 M205.7,90.7c-0.4,0-0.9,0.2-1.4,0.5c-0.5,0.4-1,1-1.4,1.6
	c-0.1,0.2-0.2,0.4-0.3,0.5c-0.1,0.2-0.2,0.4-0.2,0.6c-0.1,0.2-0.1,0.5-0.2,0.7c0,0.2,0,0.4,0,0.6c0,0.2,0,0.4,0.1,0.5
	c0,0.2,0.1,0.3,0.2,0.5l0.1,0.1v0.2h0h0.1l0,0.1l0,0l0.1,0.1l0.1,0.1c0.1,0,0.1,0.1,0.1,0.1l0.8,0.4c-0.2,0-0.3,0.1-0.5,0.1
	c-0.2,0-0.4,0-0.6-0.1l0,0c0,0-0.1,0-0.1,0c0,0,0,0-0.1-0.1l-0.1-0.1c-0.1-0.1-0.2-0.2-0.3-0.4c-0.1-0.2-0.1-0.4-0.1-0.6
	c-0.2-1.1,0.1-2.2,0.8-3.2c0.5-1,1.3-1.8,2.4-2.2c0.2-0.1,0.4-0.1,0.6-0.1h0.1c0.1,0,0.3,0,0.4,0l0.1,0.1l0.1,0.1
	c0.3,0.2,0.4,0.4,0.6,0.8l-0.8-0.5C206.2,90.8,206,90.7,205.7,90.7 M162.4,40.1l0.2,0.1l-6.1,3.6v0l0.1,0.2l0,0l6.2-3.6v0l-0.1-0.1
	l0.1,0.1l-6,3.6v0l0.1,0.2l0,0l6.1-3.6v0l-0.1-0.1l0.5,0.3l-6,3.5v0l0.1,0.2l0,0l6.1-3.6v0l-0.1-0.1l0.1,0.1l0,0.1l0.1,0l0,0l0,0
	v3.2c-0.3-0.5-0.4-1-0.3-1.5v0l-0.3-0.1l0,0c0,0.2,0,0.5,0,0.7c0,0.2,0.1,0.5,0.2,0.7c-0.2,0-0.3-0.1-0.5-0.1
	c-0.5,0-1.1,0.2-1.7,0.7c-0.8,0.6-1.4,1.3-1.8,2.1c-0.5,0.8-0.8,1.6-0.9,2.6c-0.1,1,0.1,1.7,0.6,2.2c-0.2,0-0.4,0.1-0.6,0.2
	c-0.2,0.1-0.4,0.2-0.6,0.3v0l0.2,0.2h0c0.4-0.3,0.9-0.5,1.4-0.5l0.6,0.3l-2.7,1.6h-0.1l0,0l-0.1-8.5l0-0.2l0.1-0.1l0.1-0.1v-0.1
	l0-0.1v0l-0.2-0.2h0l-0.2,0.1v0.1l-0.1,0.1v0l-0.1,0.1l0,0.3v8.3l-0.3-0.2l-0.1-0.1l0-8.6h-0.3v0v-0.2l0.1,0v-0.1h0.1l0,0v-0.2l0,0
	h-0.1l0-0.1h-0.1l0,0v0.1l0,0.1l-0.1,0.1v0.1l0,0.1v0.1c0,0.1,0,0.1,0,0.2V53l-0.2-0.2l-0.1,0l0-8.6l0,0v0h0.1l0,0V44l0-0.1v-0.1
	l0.1-0.1v0l-0.2-0.2h0l-0.1,0.1c-0.1,0-0.1,0.1-0.1,0.1l0,0.1h-0.1l0,0V44l0,0.1v0l0,0.1v0.9l-0.2-0.1l-0.1-0.1l0-0.1l0,0l0-0.6
	l0.1-0.1V44l0.3-0.5v-0.1l0.1-0.1l0,0l0.3-0.3l0.2,0h0h0.1l0.3,0.1l-0.5,0.3v0l0.1,0.2l0,0l0.8-0.5l2.7-1.6l2.1-1.2L162.4,40.1
	 M163.2,44.5c0.3,0,0.5,0.1,0.8,0.2l1.1,0.6c0,0.2,0,0.3,0,0.5v8.9l-4.4-2.5l-0.8-0.4c-0.6-0.4-0.9-1.1-0.8-2.2
	c0.1-0.9,0.3-1.7,0.8-2.4c0.4-0.8,1-1.4,1.7-2C162.2,44.6,162.7,44.5,163.2,44.5 M157.5,39.4l0.1,0.2l0.1,0.1l-0.9-0.5
	c-0.2-0.1-0.3-0.2-0.5-0.2c-0.2,0-0.4-0.1-0.5-0.1c-0.6,0-1.3,0.3-2.1,0.8c-1,0.7-1.7,1.5-2.1,2.5c-0.6,0.9-0.9,1.9-1.1,3.1
	c-0.1,1.4,0.2,2.4,1.1,3l1,0.5l-0.1,0h-0.3l-0.3-0.1l-0.5-0.1c-0.1-0.1-0.2-0.1-0.2-0.2c-0.1-0.1-0.2-0.2-0.3-0.3
	c-0.1-0.1-0.1-0.2-0.2-0.4l0-0.1v0c-0.1-0.1-0.1-0.2-0.2-0.3c0-0.1-0.1-0.2-0.1-0.3c0-0.3-0.1-0.6-0.1-0.8v-0.5l0-0.5l0.1-0.3
	l0.2-0.7c0.1-0.3,0.2-0.6,0.4-1c0.1-0.2,0.2-0.3,0.2-0.5c0.1-0.2,0.2-0.3,0.3-0.5c0.1-0.2,0.2-0.4,0.3-0.5c0.1-0.2,0.3-0.3,0.4-0.5
	l0.3-0.4l0.3-0.4l0.3-0.3l0.3-0.2l0.1-0.1l0.1-0.1c0.3-0.2,0.5-0.4,0.8-0.5c0.3-0.2,0.5-0.3,0.8-0.4c0.1,0,0.2-0.1,0.3-0.1
	c0.1,0,0.3,0,0.4,0l0.1,0c0.1,0,0.2,0,0.2,0c0.2,0,0.4,0,0.6,0.1l0.2,0.1c0.1,0.1,0.2,0.1,0.3,0.2C157.4,39.2,157.4,39.3,157.5,39.4
	 M157.7,40.4l0.3,0c0.1,0,0.2,0.1,0.3,0.1c0.1,0.1,0.2,0.1,0.4,0.2c0.1,0.1,0.2,0.1,0.2,0.2c0.1,0.1,0.2,0.2,0.2,0.2l0.1,0.2
	l-0.3-0.2c-0.2-0.1-0.3-0.2-0.5-0.2c-0.2,0-0.3-0.1-0.5-0.1c-0.6,0-1.2,0.3-1.8,0.7c-0.9,0.6-1.5,1.4-2,2.2
	c-0.5,0.8-0.8,1.7-0.9,2.7c-0.1,1.3,0.2,2.2,1,2.7l0.3,0.2c-0.1,0-0.3,0-0.4,0c-0.1,0-0.3-0.1-0.4-0.1l-0.3-0.2
	c-0.4-0.3-0.7-1-0.7-1.9c0-1.4,0.3-2.6,1-3.6c0.4-0.7,0.9-1.3,1.4-1.9c0.7-0.6,1.3-1,1.9-1.2L157.7,40.4 M158,41.1
	c0.3,0,0.6,0.1,0.8,0.2l0.3,0.2l-2.4,1.4l-0.3-0.2l-0.1,0l-0.1-0.1h-0.3l0,0l-0.3,0.1l-0.1,0.1l-0.3,0.3l0,0h-0.1l-0.3,0.7l-0.1,0.2
	l0.1,0.8l0.1,0.1v0.1l0.2,0.2l0.4,0.2v0.4l-0.2,0.5l-0.1,0.5c-0.1,0.3-0.1,0.6-0.1,1c0,0.3,0,0.5,0.1,0.7c0,0.2,0.1,0.4,0.1,0.6
	l0.2,0.3v0.1l-0.1-0.1l-0.1,0l-0.7-0.4c-0.7-0.4-0.9-1.2-0.8-2.4c0.1-0.9,0.4-1.8,0.9-2.6c0.4-0.8,1.1-1.5,1.9-2.1
	C157,41.4,157.5,41.1,158,41.1 M156.7,39.5l1.1,0.6c-0.2,0-0.4,0-0.6,0.1c-0.7,0.2-1.4,0.6-2.1,1.2c-0.6,0.6-1.1,1.2-1.5,1.9
	c-0.7,1.1-1.1,2.3-1.1,3.8c0,0.3,0,0.5,0.1,0.8c0.1,0.2,0.1,0.4,0.2,0.6l-1-0.6c-0.8-0.5-1.1-1.4-1-2.7c0.1-1.1,0.5-2.1,1-3
	c0.5-0.9,1.1-1.7,2.1-2.4c0.7-0.5,1.3-0.7,1.9-0.7C156.1,39.2,156.4,39.3,156.7,39.5 M160,40.9c0.1-0.1,0.1-0.2,0.2-0.2l0,0l0.1-0.1
	l0-0.1l0.1-0.1l0.1-0.1h0l0.1-0.1l0.1,0c0.1-0.1,0.2-0.1,0.3-0.1h0l0.1,0h0.1l0.2,0.1l-1.4,0.8L160,40.9 M155.9,38.3l-1.4-0.8
	c0.2,0.1,0.3,0.1,0.5,0.2l1,0.6L155.9,38.3 M153.4,37.5l0.4,0l1.5,0.9l-0.3,0.1L153.4,37.5 M150.5,37.5l-0.3,0.2
	c-0.9,0.7-1.6,1.5-2.2,2.5c-0.6,0.9-0.9,2-1.1,3.1c0,0.1,0,0.2,0,0.3l-3-1.7l0.1,0l0.4-0.4l0.3-0.5l0.1-0.7l-0.2-1.2l-0.1-1.1
	l-0.1-0.4l0-0.4l0.1-0.7l0.2-0.6l0.4-0.5l0.4-0.3h0.5l0.5,0.2L150.5,37.5 M150.9,37.6c0.2-0.1,0.5-0.2,0.7-0.3
	c0.2,0,0.4-0.1,0.6-0.1c0.2,0,0.4,0.1,0.6,0.1c-0.2,0.1-0.5,0.2-0.7,0.3l-0.5,0.3l-0.3,0.3c-0.1,0.1-0.3,0.2-0.4,0.3
	c-0.1,0.1-0.2,0.2-0.3,0.3c-0.3,0.3-0.5,0.5-0.8,0.8c-0.1,0.2-0.2,0.3-0.3,0.5c-0.1,0.2-0.2,0.4-0.3,0.5c-0.1,0.2-0.2,0.4-0.3,0.5
	c-0.1,0.2-0.2,0.4-0.2,0.5c-0.1,0.2-0.2,0.4-0.2,0.5c-0.1,0.2-0.1,0.4-0.1,0.5c-0.1,0.2-0.1,0.3-0.1,0.5l0,0.3l0,0.2
	c0,0.2-0.1,0.3-0.1,0.4c0,0.2,0,0.4,0,0.6c0,0.2,0,0.3,0,0.5l0.1,0.4c-0.5-0.4-0.7-1-0.7-1.9l0-0.1c0-0.2,0-0.4,0-0.5
	c0.1-1.1,0.5-2.1,1-3c0.5-1,1.2-1.8,2.1-2.4C150.5,37.8,150.7,37.7,150.9,37.6L150.9,37.6 M152.5,37.8c0.2-0.1,0.3-0.1,0.5-0.2
	l1.6,1c-0.1,0.1-0.3,0.1-0.4,0.2L152.5,37.8 M151.8,38.3l0.4-0.3l1.7,1c-0.2,0.1-0.3,0.2-0.5,0.3l-1.7-1L151.8,38.3 M150.9,39
	c0.2-0.1,0.3-0.3,0.5-0.4l1.7,1l0,0l-0.5,0.4L150.9,39 M150.1,39.8c0.2-0.2,0.3-0.4,0.5-0.5l1.7,1c-0.1,0.2-0.3,0.4-0.4,0.6
	L150.1,39.8 M151.7,41.1c-0.2,0.2-0.3,0.5-0.5,0.8l-1.7-1c0.1-0.3,0.3-0.5,0.5-0.8L151.7,41.1 M151.1,42.1l-0.2,0.4l-0.2,0.4l-1.8-1
	c0.1-0.2,0.2-0.5,0.4-0.8L151.1,42.1 M150.6,43.2c-0.1,0.2-0.2,0.5-0.3,0.7l-1.7-1c0.1-0.2,0.1-0.5,0.2-0.7L150.6,43.2 M150.3,47.8
	L150.3,47.8l0.1,0.2l-1-0.6c-0.2-0.1-0.3-0.2-0.4-0.3L150.3,47.8 M155.3,48.3c0-0.2,0-0.4,0-0.6c0-0.2,0-0.5,0.1-0.7v1.6L155.3,48.3
	 M144.5,39.2l0.2,1l-0.1,0.5l-0.3,0.5l-0.3,0.3l-0.3,0.1l-0.3-0.1l-0.2-0.3l-0.1-0.5l0.1-0.5l0.3-0.5l0.4-0.3L144.5,39.2
	 M148.3,44.9v-0.5l0.1-0.2l1.7,1c0,0.2,0,0.4-0.1,0.6L148.3,44.9 M150.1,44.8L150.1,44.8l-1.7-0.9c0-0.2,0.1-0.5,0.1-0.7l1.7,1
	L150.1,44.8 M149.9,46.2c0,0.2,0,0.3,0,0.5l-1.6-1c0-0.1,0-0.3-0.1-0.5L149.9,46.2 M148.5,46.5c-0.1-0.1-0.1-0.2-0.1-0.4l1.6,0.9
	l0.1,0.3L148.5,46.5 M147.6,58c0.1,0,0.1,0,0.2,0c0.2,0,0.4,0.1,0.5,0.2l4,2.3c-0.1,0.1-0.3,0.2-0.4,0.3c-0.6,0.4-1.1,0.9-1.4,1.6
	c-0.4,0.6-0.6,1.3-0.7,2c0,0.2,0,0.4,0,0.5l-3.3-1.9l0.3-0.3l0.3-0.4l0.1-0.5l-0.2-0.9l-0.1-0.8l0-0.1c0-0.2-0.1-0.3-0.1-0.5
	c0-0.2,0-0.4,0.1-0.5c0-0.2,0.1-0.3,0.2-0.5C147.2,58.2,147.4,58.1,147.6,58 M146.2,61.1l0.5-0.1l0.1,0.7l-0.1,0.4l-0.2,0.3
	l-0.3,0.2l-0.2,0.1l-0.1,0l-0.1-0.1l-0.2-0.2V62l0.1-0.4l0.2-0.3L146.2,61.1 M155.3,50.3C155.3,50.2,155.3,50.2,155.3,50.3l0.1,1.5
	l-0.2-0.1l-0.1-0.1l0-0.1l-0.1-0.1v-0.1v-0.2v-0.1l0-0.1l0-0.1l0.2-0.5L155.3,50.3 M152.7,60.7L152.7,60.7c0.3-0.1,0.5-0.1,0.6-0.1
	c0.2,0,0.3,0,0.5,0.1l1.7,1l-1.1,0.9l-0.6,0.8l-0.8,1.3l-0.4,0.9l-0.3,1.3V67l-1.7-1c-0.3-0.2-0.6-0.5-0.6-1v-0.4v-0.4
	c0.1-0.6,0.3-1.3,0.7-1.9c0.3-0.6,0.8-1.1,1.3-1.5C152.3,60.8,152.5,60.7,152.7,60.7 M154.7,62.8l1.2-0.9l0.2-0.2l0.6-0.3l0.3-0.1
	l0.7,0l0.5,0.1c-0.3,0.1-0.6,0.2-0.8,0.4c-0.2,0.1-0.4,0.2-0.5,0.3l-0.1,0.1c-0.8,0.6-1.4,1.5-2.1,2.5c-0.6,1-1,2.1-1.2,3.1
	l-0.1,0.4l0,0.4c0,0.3,0,0.5,0,0.7l-0.1-0.1l-0.3-0.5l-0.2-0.6l0-0.8v-0.4l0.3-1.3l0.4-0.8l0.7-1.3L154.7,62.8 M158.6,61.5
	L158.6,61.5c0.3-0.1,0.6-0.1,0.9-0.1c0.2,0,0.3,0,0.5,0c0.2,0,0.3,0.1,0.5,0.2l4.5,2.6v0.7l-1.5,0.4l-1,0l-5.3-3.2l0.3-0.2
	c0.2-0.1,0.4-0.2,0.5-0.3C158.3,61.6,158.4,61.5,158.6,61.5 M161,67.4l-0.4,0.2h-0.1l0,0.1l-0.1,0.1h-0.1l-0.1,0.1l-0.2,0.1l0,0.1
	c-0.1,0.1-0.1,0.2-0.2,0.2l-0.1,0v0.1l0,0.1l0,0.1h-0.1l0,0l0.1,0.2v1.1l-0.1,0v0.1l0,0.1c0,0.1-0.1,0.1-0.1,0.1c0,0,0,0.1,0,0.1
	c0,0.1,0,0.1,0,0.2v0.2l-0.1,0.1l-5.4-3.1c0.2-0.9,0.6-1.9,1.1-2.8c0.6-1.1,1.3-1.9,2-2.5l5.4,3.2l-0.5,1.3l-0.3,0.5H161
	 M160.7,67.9L160.7,67.9l0.4-0.2h0.1l-0.9,0.5l0.1-0.1h0l0.1,0L160.7,67.9 M160.7,68.4l0.5-0.3v0.7l0,0h0.3l0,0V68l0.8,0.1l0.1,0.6
	l-0.5,0.3l-1-0.2L160.7,68.4 M160.2,68.4L160.2,68.4L160.2,68.4l0.4,0.8c-0.1,0-0.2-0.1-0.2-0.1l-0.1-0.1l-0.1-0.2l0-0.2l0,0l0.1,0
	L160.2,68.4L160.2,68.4 M159.9,68.9L160,69l0.1,0.2l0,0c0.1,0.1,0.2,0.2,0.4,0.2c0.1,0.1,0.2,0.1,0.4,0.1c0.2,0,0.4,0.1,0.6,0.1
	l0.6-0.1h0.1l0.1,0l0.5-0.2c0.1,0,0.1-0.1,0.2-0.1l0.2-0.2l0.1-0.1l0.1,0l0.1,0l0-0.2l0,0.1l0,0v0.1l-0.1,0.1V69v0l-0.1,0.1
	c0,0.1-0.1,0.1-0.2,0.2l-0.3,0.2l-0.1,0.1c-0.1,0.1-0.3,0.1-0.5,0.2c-0.2,0-0.3,0.1-0.5,0.1l-0.3,0c-0.2,0-0.4,0-0.6-0.1
	c-0.2,0-0.4-0.1-0.5-0.2l-0.3-0.2l-0.1-0.1h0V68.9L159.9,68.9l-0.1-0.2L159.9,68.9 M159.8,69.5l0.2,0.2c0.4,0.3,0.8,0.4,1.4,0.4
	l0.3,0c0.2,0,0.4,0,0.6-0.1c0.2,0,0.4-0.1,0.5-0.2c0.1,0,0.2,0,0.2-0.1c0.1,0,0.2-0.1,0.3-0.2l0.1-0.1l0,1.2l0,0.1v0.1v0.1
	c0,0,0,0.1-0.1,0.1c0,0.1-0.1,0.1-0.2,0.1c-0.1,0.1-0.3,0.2-0.4,0.3l-0.6,0.2h-0.7c-0.3,0-0.5-0.1-0.6-0.1c-0.1,0-0.2,0-0.3-0.1
	c-0.1,0-0.2-0.1-0.3-0.1L160,71l-0.1,0l-0.1-0.2l-0.1,0l-0.1-0.3V69.5 M161.7,69.3L161.7,69.3l-0.8-0.1L161.7,69.3 M153.7,69.1
	c0-0.2,0-0.3,0-0.5l0.1-0.5l5.4,3.1l0.2,0.4v1.3c0,0.1,0,0.2,0.1,0.3c0,0.1,0.1,0.2,0.1,0.3l0.2,0.2c0,0.1,0.1,0.1,0.1,0.1L160,74
	l1.3,0.7l0.1,0.2l-0.5,0l-0.6-0.3l-5.6-3.2c-0.6-0.4-0.9-1-1-1.8C153.7,69.5,153.7,69.3,153.7,69.1 M161,71.8l0.4,0.1l0.8,0l0.3-0.1
	l0.3-0.1c0.2-0.1,0.3-0.2,0.5-0.3c0.2-0.2,0.4-0.3,0.4-0.5l0,0l0-2.2l0,0l0-0.2l-0.1-0.1l0-0.1l-0.3-0.3l-0.1,0l0,0l1.7-1v3.6
	c0.1,1.9,1.2,3.4,3.4,4.7c1.8,1,3.7,1.6,5.6,1.7c0,0.1,0,0.2,0,0.3v1.8l0.1,0.2v0.1l0.1,0.1L161,71.8 M140.6,75.9c0.1,0,0.1,0,0.2,0
	c0.2,0,0.4,0.1,0.5,0.1l3.9,2.3c-0.1,0.1-0.3,0.2-0.4,0.3c-0.6,0.5-1.1,1-1.4,1.6c-0.4,0.7-0.6,1.3-0.7,2c0,0.2,0,0.4,0,0.5
	l-3.2-1.9l0.3-0.3l0.3-0.5l0.1-0.5l-0.1-0.8l-0.1-0.9c0-0.2-0.1-0.4-0.1-0.6c0-0.2,0-0.3,0.1-0.5c0-0.2,0.1-0.3,0.2-0.5
	C140.2,76.1,140.4,76,140.6,75.9 M148.5,79.5l-1,0.9l-1.1,1.6l-0.6,1.4l-0.3,1.4v0.1l-1.7-1c-0.3-0.2-0.5-0.5-0.6-0.9
	c0-0.1,0-0.2,0-0.4v-0.4c0.1-0.6,0.3-1.3,0.7-1.9c0.3-0.6,0.7-1.1,1.3-1.5c0.2-0.1,0.4-0.2,0.6-0.3l0.1,0c0.2-0.1,0.4-0.1,0.5-0.1h0
	c0.2,0,0.4,0.1,0.5,0.2L148.5,79.5 M149.7,79.2l0.3-0.1l0.6-0.1l0.5,0.1l0.1,0c-0.2,0.1-0.5,0.2-0.8,0.4c-0.2,0.1-0.4,0.3-0.6,0.4
	c-0.8,0.7-1.5,1.5-2.2,2.6c-0.6,1-1,2.1-1.2,3.1c0,0.1,0,0.3-0.1,0.4c0,0.1,0,0.3,0,0.4c0,0.2,0,0.5,0,0.7l-0.1-0.1l-0.3-0.5
	l-0.2-0.6l0-1.1l0.3-1.3l0.5-1.3l1.1-1.5l1-0.9L149.7,79.2 M147.9,82.8c0.6-1,1.3-1.8,2-2.5l5.3,3.1l-2.3,4.2l-0.8,1.1l-5.4-3.1
	C146.9,84.7,147.3,83.7,147.9,82.8 M139.2,79l0.5-0.1l0.1,0.7l-0.1,0.3l-0.2,0.3l-0.2,0.2l-0.2,0l-0.2-0.1l-0.2-0.2l0-0.3l0.1-0.4
	l0.2-0.3L139.2,79 M146.7,86.5c0-0.2,0-0.3,0-0.5l5.3,3.1l0.4,0.8l0.3,1l0.2,1.4l-5.2-3.1c-0.6-0.4-0.9-1-1.1-1.7c0-0.2,0-0.3,0-0.5
	L146.7,86.5 M158.7,82.5l-1.3,0.5l-1,0.2l-1,0l-5.3-3.1c0.1-0.1,0.2-0.2,0.4-0.2c0.3-0.2,0.6-0.3,0.9-0.4l0.1,0
	c0.2-0.1,0.3-0.1,0.5-0.1c0.2,0,0.3,0,0.5,0h0.1c0.2,0,0.3,0,0.5,0.1c0.2,0,0.3,0.1,0.5,0.2L158.7,82.5 M156.5,83.5l1-0.2l1.6-0.6
	l0.5,0.3l0.2,0.3l-0.3,0.1c-1.6,0-3,0.9-4.2,2.7c-1.2,1.7-1.7,3.3-1.5,4.9l-0.3,0.7l0.7,1l-0.3-0.1l-0.6-0.2l-0.3-1.7l-0.3-1
	l-0.4-0.8l0.9-1.2l2.3-4.3L156.5,83.5 M159.9,86c-0.3,0.2-0.5,0.5-0.7,0.7l-0.1,0.1l-0.5,0.1l-2.2-1.3l4.5-2.5l2.1,1.3
	c-0.7,0.1-1.4,0.4-2.2,1c-0.2,0.1-0.3,0.2-0.5,0.3C160.2,85.8,160.1,85.9,159.9,86 M159.4,87c0.2-0.3,0.5-0.5,0.7-0.7
	c0.3-0.2,0.5-0.5,0.8-0.7c0.8-0.6,1.6-0.9,2.3-1h0.3c0.2,0,0.4,0,0.6,0.1c0.2,0.1,0.4,0.1,0.6,0.2l3.5,2v9c0,0.2,0,0.5,0.1,0.7
	c0.1,0.2,0.2,0.5,0.3,0.7l0.2,1c0.1,0.2,0.1,0.4,0.2,0.6c0,0.2,0.1,0.3,0.1,0.5l0,0l0.3,0v0c0-0.1,0-0.3-0.1-0.5
	c0-0.2-0.1-0.4-0.2-0.6l-0.2-1.1c-0.1-0.2-0.2-0.4-0.3-0.6c-0.1-0.2-0.1-0.4-0.1-0.6V79l5.9,3.4c0.2,0.1,0.4,0.2,0.6,0.3
	c0.2,0.1,0.4,0.1,0.6,0.1l0.2,0.2c0.1,0.1,0.2,0.2,0.2,0.3c0,0.1,0.1,0.2,0.1,0.3c0,0.1-0.1,0.3-0.2,0.4l-3.6,2.1l-0.1,0.1
	c-0.3,0.2-0.6,0.5-0.7,0.9c-0.1,0.2-0.1,0.4-0.1,0.6c0,0.2,0,0.4,0,0.7l-0.2,0.2l-0.2,0.1c-0.2,0.2-0.4,0.6-0.4,1.2l0,0.1l0,0V90
	l0.2,0.9l0.5,0.9l0.5,0.5l0.1,0l0.1,0.1h0.1l0,0.1h0.2l0.2,0.1l0.3,0.1h0.5l0.1,0l0.5-0.2l0.3,0.2l0.1,0.1l0.2,0l0.1,0.1l0.2,0.1
	c0.2,0.1,0.3,0.1,0.5,0.1c0.2,0,0.5,0,0.7-0.2h0.1l0,0v-0.1l0.1,0.1l5.2-3.1c0.2-0.1,0.4-0.2,0.6-0.2c0.2,0,0.4-0.1,0.6-0.1
	c0.3,0,0.5,0,0.8,0.1l0.4,0.3v8.9l2.1,1.2c-0.6,0-1.4,0.2-2.2,0.7c-1.6,1-2.8,2.2-3.5,3.7c-0.8,1.2-1.3,2.7-1.4,4.3l-0.1-0.4
	c-0.3-1-0.9-1.6-1.7-1.6v0l0,0.3c0.4,0,0.6,0.2,0.9,0.4c0.1,0.1,0.2,0.3,0.3,0.4c0.1,0.2,0.2,0.4,0.2,0.6l0.1,0.3l0,0l0.1,0.6
	l0.2,0.7c0,0.2,0.1,0.4,0.1,0.6c0.3,1,0.8,1.6,1.6,1.9l-3.8,2.2l0.1-0.3c0.1-0.3,0.1-0.7,0.1-1c0-0.8-0.3-1.6-0.7-2.3
	c-0.4-0.7-0.8-1.3-1.4-1.8c-0.5-0.4-1-0.7-1.6-0.8l0.3-0.2l2.6-1.5l0,0c0.2-0.2,0.3-0.4,0.3-0.7c0-0.3-0.1-0.5-0.4-0.8h0l-0.2,0.2v0
	c0.1,0.1,0.2,0.2,0.2,0.3c0,0.1,0.1,0.2,0.1,0.3c0,0.2,0,0.3-0.2,0.4l-2.3,1.4c-1.3-1.3-2.2-2.8-2.6-4.5v0l-0.3,0.1l0,0
	c0.4,1.7,1.3,3.3,2.6,4.6l-0.9,0.5l-0.4-0.2l-0.4-0.2h-0.1c-0.3-0.1-0.6-0.3-0.9-0.5c-0.3-0.2-0.5-0.4-0.8-0.6
	c-0.9-0.7-1.3-1.5-1.3-2.4v-2.1c0.2,0,0.3-0.1,0.5-0.2c0.1-0.1,0.3-0.3,0.3-0.5v0l-0.3-0.1h0c0,0.2-0.1,0.3-0.2,0.4
	c-0.1,0.1-0.2,0.1-0.4,0.1l-2.3-1.4c0-0.2-0.1-0.3-0.1-0.5c0-0.1-0.1-0.3-0.1-0.4h0h-0.3l0,0c0,0.3,0.1,0.6,0.2,0.9l-6.3,3.7l0-0.1
	c0.5-1.1,0.3-2.3-0.5-3.6c-0.4-0.7-0.9-1.3-1.4-1.8c-0.5-0.4-1.1-0.7-1.6-0.8l2.7-1.5l4.6-2.7l0.3-0.1l0.3,0h0h0.3
	c0.2,0.1,0.4,0.3,0.6,0.6c0.1,0.4,0.2,0.9,0.3,1.3c0.1,0.4,0.2,0.8,0.2,1.2c0.1,0.4,0.1,0.8,0.1,1.2c0,0.4,0.1,0.8,0.1,1.1l0,0
	l0.3,0l0,0c-0.1-1.4-0.3-3-0.8-4.9v0c-0.3-0.4-0.6-0.7-0.9-0.8h-0.3h-0.4l-0.4,0.1l-4.6,2.6l-0.5-0.3c-0.2-0.1-0.3-0.2-0.5-0.4
	c-0.1-0.1-0.3-0.3-0.4-0.5c-0.3-0.5-0.5-1.2-0.5-2.1c0-0.2,0-0.5,0-0.8c0.1-1.4,0.6-2.8,1.4-4c0.1-0.2,0.3-0.5,0.4-0.7h0.1V88
	c0.1-0.2,0.2-0.3,0.3-0.5C159.2,87.3,159.3,87.2,159.4,87 M156.2,85.8l2.2,1.3l0,0.3l-0.1,0.4l-0.2,0.4l-0.2,0.4
	c-0.8,1.3-1.2,2.6-1.4,4.1l0,0.4l-0.1-0.1l-2.4-1.4L156.2,85.8 M174.7,76.8l0.2-0.2l0.1,0v0l0.1,0l0.1,0c0.1-0.1,0.3-0.2,0.6-0.3
	L174.7,76.8l0.5,0.8l-0.3-0.2l0-0.1l-0.1-0.1l-0.1-0.1V76.8 M174.4,77v0.1l0.1,0.2h0l0.1,0.1l0.1,0.1l0,0.1l0.4,0.2
	c0.1,0.1,0.2,0.1,0.4,0.1c0.2,0,0.4,0.1,0.6,0.1c0.2,0,0.4,0,0.5-0.1c0.2,0,0.3-0.1,0.5-0.1l0.4-0.2l0.2-0.1l0.1-0.1l0,0l0.1,0v-0.1
	l0.1,0v-0.2v0.1v0.1l-0.1,0.2c-0.1,0.1-0.2,0.2-0.3,0.3c-0.1,0.1-0.3,0.2-0.4,0.2c-0.3,0.1-0.6,0.2-0.9,0.2h-0.1
	c-0.2,0-0.4,0-0.5-0.1c-0.2,0-0.4-0.1-0.5-0.1l-0.1-0.1h-0.1l-0.1-0.1l-0.1-0.1l-0.1-0.1h-0.1l-0.1-0.1l-0.1-0.3
	C174.4,77.2,174.4,77.1,174.4,77 M175.4,77.6L175.4,77.6l0.8,0.1h-0.1L175.4,77.6 M176.1,77.3L176.1,77.3l0-0.9l0.8,0.1l0,0.6
	l-0.4,0.3l-0.7-0.1H176.1 M175.2,76.8l0.5-0.3v0.8l-0.3,0L175.2,76.8 M177.3,76.4l0.2,0.1l0.1,0.1l0,0.1v0.1l0,0v0.1l0,0v0.1l-0.1,0
	v0l-0.4-0.8L177.3,76.4L177.3,76.4 M177.1,76.3L177.1,76.3L177.1,76.3L177.1,76.3 M176.8,77.6l0.2-0.1l0.6-0.3l-0.2,0.2l-0.3,0.2
	L176.8,77.6 M165,66.3v0.3l-1.6,0.9c0.3-0.3,0.5-0.5,0.8-0.7C164.5,66.6,164.7,66.4,165,66.3 M165,65.3v0.6
	c-0.7,0.4-1.4,0.9-2.1,1.7l-0.1-0.1h-0.1c-0.1,0-0.2-0.1-0.4-0.1c-0.1,0-0.3,0-0.5-0.1L162,67l0.6-1.4l0.9,0L165,65.3 M162.7,68
	L162.7,68l0.1,0.1h0.1l0.2,0.2l0,0.2l0,0v0.1l-0.1,0.1v0l-0.2,0.2l-0.3,0.2l-0.1,0l-0.1,0.1l-0.1,0l0.8-0.5L162.7,68 M163.4,77.2
	l-1.4-2.1l1.7,1c0,0.3,0.1,0.5,0.1,0.8c0.1,0.3,0.1,0.5,0.2,0.7L163.4,77.2 M164.1,76.9c0-0.2-0.1-0.4-0.1-0.6l4.2,2.5v1.7l-3-1.7
	c-0.3-0.1-0.6-0.4-0.8-0.8l0-0.1c-0.1-0.1-0.1-0.2-0.2-0.3C164.3,77.4,164.2,77.1,164.1,76.9 M172.4,86.4l0.3-0.1c0.1,0,0.2,0,0.3,0
	c0.5,0,1.1,0.2,1.6,0.7c0.5,0.5,1,1,1.4,1.7c0.1,0.1,0.2,0.3,0.2,0.5c0.1,0.2,0.2,0.4,0.2,0.5c0.1,0.2,0.1,0.4,0.1,0.6
	c0,0.2,0.1,0.4,0.1,0.5c0,0.1,0,0.3,0,0.4c0,0.1,0,0.3-0.1,0.4c0,0.2-0.1,0.3-0.1,0.4c0,0.1-0.1,0.2-0.1,0.3l-0.2,0.2H176l0,0
	c-0.2,0.1-0.4,0.2-0.6,0.2c-0.1,0-0.3,0-0.4-0.1l-0.2,0l-0.1-0.1l-0.1,0l-0.1-0.1l-0.2-0.1l0.5-0.2v0l0.4-0.3c0.8-0.6,0.9-1.6,0.1-3
	c-0.6-1.1-1.3-1.6-2-1.6c-0.2,0-0.5,0-0.7,0.1l-0.9,0.6c0-0.3,0-0.6,0.1-0.9c0.1-0.2,0.1-0.3,0.2-0.4
	C172.2,86.6,172.3,86.5,172.4,86.4 M171.8,88.4L171.8,88.4l0.4-0.4l0.1,0l0.1-0.1l0.3-0.1l0.3,0.1l0.2,0.1l0.3,0.2l0.1,0l0.1,0.1
	l0.1,0.1l0.1,0.1c0.1,0.1,0.2,0.2,0.3,0.3c0.1,0.1,0.2,0.3,0.3,0.4c0.3,0.6,0.5,1.1,0.5,1.6c0,0.4-0.1,0.8-0.4,0.9l-0.2,0.1l0,0
	l-0.5,0.2c0.3-0.8,0.1-1.6-0.5-2.4C173,89,172.5,88.6,171.8,88.4 M173.1,87.6c0.1,0,0.1,0,0.2,0c0.3,0,0.5,0.1,0.8,0.2
	c0.2,0.1,0.3,0.3,0.5,0.5c0.2,0.2,0.3,0.4,0.5,0.7c0.6,1.1,0.7,1.9,0.3,2.4c0-0.1,0.1-0.3,0.1-0.5c0-0.5-0.2-1.1-0.5-1.8
	c-0.1-0.1-0.2-0.3-0.3-0.4c-0.1-0.1-0.2-0.3-0.3-0.4l-0.1-0.1l-0.1-0.1l-0.1-0.1l-0.3-0.1c-0.1,0-0.1-0.1-0.2-0.1L173.1,87.6
	 M172.4,89.3l-0.2-0.1c-0.1-0.1-0.3-0.2-0.4-0.2c-0.1,0-0.2-0.1-0.3-0.1h-0.1h-0.2l0,0.1l-0.1,0c0,0,0.1-0.1,0.1-0.1l0.1-0.1
	c0.1,0,0.1,0,0.2-0.1c0.1,0,0.1,0,0.2,0c0.5,0.1,1,0.5,1.4,1.1c0.6,0.7,0.7,1.5,0.5,2.1l-0.1,0.1l-0.2,0.1v0.1l-0.1,0h-0.1l0-0.1
	c0.1-0.1,0.1-0.2,0.2-0.3l0-0.1c0-0.1,0-0.3,0-0.3l0-0.1l0,0c0-0.3,0-0.5,0-0.7l0-0.1c-0.1-0.3-0.2-0.5-0.3-0.6
	c-0.1-0.2-0.2-0.3-0.2-0.4L172.4,89.3 M172.2,89.5l0.3,0.3l-0.2-0.1v-0.1l-0.8-0.3l-0.5,0.8l0.1,0.1l-0.1,0l0-0.2v-0.3l0.1,0l0-0.1
	l0.1-0.1c0,0,0-0.1,0.1-0.1l0.1,0l0.1,0l0.1,0l0,0h0.1c0.1,0,0.2,0,0.3,0.1c0.1,0,0.2,0.1,0.3,0.2L172.2,89.5 M172.7,90.2
	L172.7,90.2l0.4,0.8v0.2L172.7,90.2 M171.3,90.2l0.6-0.4l0.5,0.3l0.4,1.1l-0.3,0.5l-0.6-0.3l0.8-0.4l-0.1-0.3h0l-0.8,0.4L171.3,90.2
	 M171,90.4v-0.1l0.3,0.8l-0.2-0.3L171,90.4 M172,92l-0.4-0.4l1,0.6l0.5-0.8l0,0.2c0,0.1,0,0.2-0.1,0.4l-0.1,0.1l0,0l0,0l-0.1,0
	l0,0.1h-0.1h-0.3l-0.1,0l-0.3-0.2H172 M182.1,79.9c-0.5,0.7-1.1,1.3-1.8,1.8c-0.5,0-1.1,0.3-1.8,0.7l-0.1,0
	c-0.3,0.1-0.7,0.1-1.1,0.2c0.2-0.1,0.4-0.2,0.6-0.3L182.1,79.9 M178,79.1c0,0.1,0,0.1-0.1,0.2l-0.4,0.4c-0.1,0.1-0.3,0.2-0.6,0.2
	c-0.1,0-0.2,0.1-0.3,0.1l-0.3,0c-0.3,0-0.6,0-0.8-0.1c-0.2-0.1-0.4-0.1-0.5-0.2l-0.1-0.1l-0.2-0.2l-0.1-0.3v-1.1l0.1,0.1h0l0,0.1
	l0.1,0l0.1,0.1l0.2,0.1c0.2,0.1,0.4,0.1,0.6,0.2c0.2,0,0.4,0.1,0.6,0.1h0.1c0.2,0,0.3,0,0.5-0.1c0.2,0,0.3-0.1,0.5-0.1
	c0.3-0.1,0.5-0.3,0.7-0.4V79.1C178.1,79,178.1,79.1,178,79.1 M183.9,100.9c0.3-0.2,0.7-0.3,1-0.4c0.3-0.1,0.6-0.2,0.9-0.2l-3.9,2.2
	C182.4,101.9,183.1,101.4,183.9,100.9 M184,104.6c0.3-0.1,0.6-0.1,0.8-0.2c0.3-0.1,0.5-0.2,0.8-0.3c-0.7,0.6-1.3,1.4-1.9,2.3l0,0
	c0.1-0.3,0.1-0.6,0.2-0.9C184,105.2,184,104.9,184,104.6 M181.5,103.2l2.3,1.3c-0.2,2.1-0.9,4.1-2.3,5.8l-2.3-1.3L181.5,103.2
	 M183.9,104.2l-2.2-1.3l4.5-2.6l2.2,1.3c-0.5,0.6-1.2,1.2-2,1.6C185.6,103.8,184.8,104.1,183.9,104.2 M173.5,109.8
	c-0.2,0-0.4,0.1-0.5,0.1l-0.4,0.2h-0.1l-0.2,0.1v0l-0.6,0.5c0-0.2,0-0.4,0-0.5c0-0.2,0.1-0.4,0.1-0.5c0.1-0.3,0.3-0.5,0.5-0.6
	l0.1-0.1l0.1,0l0.2-0.1h0.1c0.6,0,1.2,0.3,1.8,0.7c0.6,0.5,1,1,1.4,1.7c0.4,0.7,0.6,1.4,0.6,2.2l0,0.4l-0.1,0.4l-0.1,0.4v0.1
	l-0.1,0.1l-0.1,0.2l-0.1,0.1h-0.1l-0.1,0.1l-0.1,0c-0.2,0.1-0.3,0.1-0.5,0.1c-0.2,0-0.4,0-0.5-0.1c-0.2-0.1-0.4-0.2-0.7-0.3l0.7-0.3
	h0.1l0.6-0.3c0.4-0.3,0.6-0.8,0.5-1.5c0-0.3-0.1-0.6-0.2-0.8c0-0.1-0.1-0.3-0.1-0.4c0-0.1-0.1-0.2-0.2-0.3c-0.2-0.4-0.6-0.8-1.1-1.2
	c-0.2-0.1-0.3-0.2-0.5-0.3C173.8,109.8,173.7,109.8,173.5,109.8 M173.4,110.1h0.1c0.2,0,0.5,0.1,0.8,0.3c0.5,0.3,0.8,0.7,1,1.1
	c0.1,0.2,0.2,0.4,0.3,0.6c0.1,0.2,0.1,0.5,0.1,0.8c0,0.4,0,0.7-0.1,0.8c0-0.1,0-0.2,0-0.3c0-0.4-0.2-1-0.5-1.9l-0.3-0.3l-0.2-0.2
	l-0.1-0.1l-0.1-0.1c-0.2-0.2-0.4-0.4-0.7-0.5c-0.1,0-0.2-0.1-0.3-0.1L173.4,110.1 M172.9,110.4h0.2c0.2,0,0.4,0.1,0.5,0.2
	c0.1,0.1,0.2,0.1,0.3,0.2c0.1,0.1,0.2,0.2,0.2,0.2l0.2,0.2l0.4,0.5c0.2,0.4,0.3,0.7,0.3,1c0.1,0.3,0.1,0.5,0.1,0.7
	c0,0.2,0,0.4-0.1,0.6l0,0.1v0l-0.1,0.1l-0.1,0.1l-0.7,0.3l0-0.1c0.1-0.1,0.1-0.3,0.1-0.4c0-0.2,0-0.4,0-0.6c0-0.1,0-0.3-0.1-0.5
	c-0.1-0.2-0.2-0.4-0.3-0.6c-0.1-0.2-0.2-0.4-0.4-0.6c-0.1-0.1-0.2-0.3-0.4-0.3l-0.2-0.2l-0.1-0.1l-0.2-0.2l-0.1,0l-0.2-0.1l-0.2-0.1
	l0.5-0.4l0.1,0l0.1,0l0,0C172.8,110.4,172.9,110.4,172.9,110.4 M172.3,111.5l-0.2-0.1l-0.1-0.1h-0.5l-0.1,0.1l0.1-0.1h0.1h0
	c0.1-0.1,0.2-0.1,0.3-0.1h0.1c0.1,0,0.1,0,0.2,0l0.1,0h0.1l0.1,0.1l0.1,0l0.1,0.1l0.1,0.1l0.1,0.1l0.1,0.1c0.2,0.1,0.4,0.4,0.7,0.9
	c0.3,0.4,0.4,0.7,0.4,1c0,0.2,0,0.3,0,0.5c0,0.1,0,0.3-0.1,0.3l0,0.2l-0.2,0.1v0l-0.1,0l0,0l-0.2,0.1l0.1,0l0.1-0.1l0.1,0v-0.1
	l0.1-0.3c0-0.1,0.1-0.1,0.1-0.2l0-0.5v-0.1l0-0.1l0-0.1v-0.1c0-0.1-0.1-0.1-0.1-0.3l-0.1-0.2l-0.1-0.1v-0.1l0-0.1l-0.1-0.1
	c-0.1-0.2-0.2-0.3-0.3-0.5c-0.1-0.1-0.3-0.3-0.4-0.4l0-0.1L172.3,111.5 M171.6,111.7L171.6,111.7h0.3l0.3,0.1l0.1,0.1
	c0.2,0.1,0.4,0.3,0.5,0.5l-0.5-0.3l-0.5-0.3l-0.6,0.8v-0.2v-0.1c0-0.1,0.1-0.1,0.1-0.2l0.1-0.2l0.1-0.1L171.6,111.7L171.6,111.7
	 M171.4,113.3c0-0.1,0-0.2-0.1-0.3l0.4,0.9C171.6,113.7,171.5,113.5,171.4,113.3 M173.1,112.7l0.1,0.3l0.1,0.1l0,0.1l0.1,0.3l0,0.2
	l0,0.1v0.1L173.1,112.7 M172.9,113.5l-0.1-0.3h0l-0.8,0.5l-0.4-0.9l0.6-0.4l0.5,0.3l0.4,1.1l-0.3,0.5l-0.6-0.3L172.9,113.5
	L172.9,113.5 M173.5,113.8v0.3v0.1l-0.1,0.2l-0.1,0.1v0.1l-0.1,0.1l0,0l-0.1,0h-0.1l0,0l0,0l-0.1-0.1h-0.1l-0.1,0h-0.1l-0.1-0.1
	l-0.1,0l-0.1,0l-0.1-0.1l-0.2-0.1l-0.2-0.3l1,0.6L173.5,113.8 M182.3,111.1c-0.2-0.2-0.3-0.4-0.5-0.5c0.2-0.2,0.3-0.4,0.5-0.7
	c0.1-0.2,0.3-0.5,0.4-0.7c0,0.3-0.1,0.6-0.1,1c0,0.3,0,0.7,0.1,1c0,0.2,0.1,0.4,0.1,0.5C182.6,111.5,182.4,111.3,182.3,111.1
	 M181.1,112.4L181.1,112.4c-1-0.2-1.6-0.8-1.8-1.9c0-0.2-0.1-0.4-0.1-0.6v-0.3L181.1,112.4 M181.7,112.5l-0.2-0.1l-1.9-2.7l1.9,1.1
	c0.9,0.8,1.6,1.7,2.1,2.8L181.7,112.5 M185.2,111l-0.2-0.7c0-0.9,0.2-1.7,0.7-2.6c0.4-0.7,0.9-1.3,1.5-1.9c0.5-0.3,0.9-0.5,1.4-0.5
	c0.1,0,0.3,0,0.4,0.1c-0.1,0.1-0.3,0.2-0.5,0.3l-0.2,0.1l-0.2,0.2c-0.6,0.5-1.2,1.2-1.6,2c-0.5,0.8-0.8,1.6-1,2.4
	c0,0.2-0.1,0.4-0.1,0.6c0,0.2,0,0.3,0,0.5L185.2,111 M184.9,111.1l0.3,0.5l0.3,0.3c0,0.2,0.1,0.4,0.1,0.5c0.1,0.2,0.2,0.3,0.3,0.5
	c-0.2,0.1-0.4,0.1-0.6,0.1c-0.2,0-0.3,0.1-0.5,0.1c-0.4,0-0.7-0.1-1-0.2c-0.5-0.3-0.8-0.8-0.9-1.7c-0.2-1.6,0.1-3.2,1.1-4.6
	c1.3-2.1,2.7-3.2,4.3-3.4l0.2,0c0.5,0,1,0.2,1.3,0.5c0.1,0.2,0.3,0.4,0.3,0.6c0.1,0.2,0.2,0.5,0.2,0.8h-0.2c-0.2,0-0.5,0-0.8,0.1
	c-0.3-0.1-0.5-0.2-0.8-0.2c-0.5,0-1,0.2-1.6,0.6c-0.7,0.5-1.2,1.2-1.6,2c-0.5,0.9-0.8,1.9-0.8,2.8L184.9,111.1 M183.6,113l0.1,0.1
	c0.2,0.1,0.3,0.2,0.5,0.2c0.2,0,0.4,0.1,0.6,0.1c0.2,0,0.3,0,0.5,0l-0.1,0.1l-0.1,0c-0.2,0.1-0.4,0.2-0.6,0.2
	c-0.2,0.1-0.3,0.1-0.5,0.1C183.9,113.5,183.8,113.2,183.6,113 M156.1,93.3l0.3,0.3l0,0.5l0.1,0.4c0,0.3,0.1,0.5,0.2,0.8l-0.5-0.3
	l-1.5-2.1l-0.4-0.6L156.1,93.3 M155.5,99h0.2c0.5,0,1.1,0.2,1.6,0.7c0.5,0.5,1,1,1.4,1.7c0.7,1.2,0.9,2.3,0.5,3.3
	c-0.1,0.2-0.2,0.4-0.3,0.5l-0.2,0.1c-0.2,0.1-0.3,0.2-0.5,0.1c-0.2,0-0.4,0-0.6-0.1c-0.2-0.1-0.4-0.2-0.7-0.3l0.7-0.3h0.2h0.1l0,0
	v-0.1l0.3-0.2c0.2-0.1,0.4-0.3,0.5-0.5c0.1-0.1,0.1-0.3,0.1-0.4c0-0.1,0-0.2,0-0.3c0-0.6-0.1-1.2-0.5-1.8c-0.3-0.6-0.7-1-1.3-1.4
	c-0.1-0.1-0.3-0.1-0.4-0.2c-0.1,0-0.2-0.1-0.3-0.1h-0.3l-0.5,0.3l-0.1,0.1c0,0-0.1,0-0.1,0.1l-0.2,0.1v0.1l-0.5,0.4
	c0-0.2,0-0.3,0-0.5c0-0.2,0.1-0.3,0.1-0.5c0.1-0.2,0.1-0.3,0.2-0.4c0.1-0.1,0.2-0.2,0.3-0.3l0.2-0.1L155.5,99 M155.6,100.4h0.2
	c0.2,0,0.4,0.1,0.6,0.2l0.1,0.1l0.1,0.1l0.4,0.4c0.1,0.1,0.2,0.2,0.3,0.3c0.1,0.1,0.2,0.3,0.3,0.4c0.2,0.4,0.3,0.7,0.3,1
	c0,0.1,0.1,0.3,0.1,0.4c0,0.1,0,0.2,0,0.3v0l0,0.1l-0.1,0.2l-0.1,0.3v0.1l-0.1,0.1l0,0h-0.1l0,0.1l-0.7,0.3l0-0.1
	c0.1-0.1,0.1-0.3,0.1-0.4c0-0.2,0-0.4,0-0.6c0-0.2-0.1-0.3-0.1-0.5c-0.1-0.2-0.2-0.4-0.3-0.6c-0.1-0.2-0.3-0.4-0.4-0.6
	c-0.1-0.1-0.3-0.3-0.4-0.3c-0.1-0.1-0.2-0.2-0.3-0.3c-0.1-0.1-0.2-0.1-0.4-0.2c-0.1,0-0.2,0-0.3-0.1l0.5-0.4l0.1,0h0l0.1,0
	L155.6,100.4L155.6,100.4 M154.2,101.4l0.1-0.1c0.1,0,0.2-0.1,0.3-0.1c0.1,0,0.2,0,0.4,0.1c0.1,0,0.2,0.1,0.3,0.1
	c0.1,0.1,0.2,0.2,0.3,0.3l0,0c0.2,0.1,0.5,0.4,0.7,0.8c0.2,0.4,0.4,0.7,0.4,1c0.1,0.4,0.1,0.7,0,0.8c0,0.1-0.1,0.2-0.1,0.3l-0.2,0.2
	l-0.2,0l0.1-0.1l0.1-0.1l0.1-0.1l0.1-0.2l0-0.1l0-0.1v-0.1v-0.1c0.1-0.6-0.2-1.2-0.6-1.8c-0.2-0.3-0.5-0.6-0.8-0.7
	c-0.2-0.1-0.4-0.2-0.6-0.2h-0.2L154.2,101.4L154.2,101.4L154.2,101.4 M154.2,101.9L154.2,101.9l0.1-0.1h0.1c0.1,0,0.3,0,0.3,0h0.1
	l-0.1,0l-0.1,0.1l-0.6,0.8v-0.1v-0.1v0v-0.1c0,0,0-0.1,0.1-0.1v-0.1l0-0.1l0,0l0,0L154.2,101.9 M154.9,102.4l0.5,0.3l0.4,1.1
	l-0.3,0.5l-0.5-0.3l0.8-0.4v0l-0.1-0.3h0l-0.8,0.5l-0.4-0.9L154.9,102.4 M154.7,104.3l-0.1-0.2l1.1,0.6l0.6-0.9v0.2l0,0.1v0.1l0,0.1
	l-0.1,0.1l0,0l-0.1,0.1c-0.1,0-0.1,0.1-0.2,0.1h-0.1l0,0.1h-0.1l-0.1-0.1h-0.2h-0.1l0-0.1h-0.1c-0.1-0.1-0.2-0.1-0.3-0.2
	C154.8,104.4,154.8,104.4,154.7,104.3 M154,102.9L154,102.9l0.4,1l-0.1-0.1l-0.1-0.4l-0.1-0.2l0-0.1l0,0V103L154,102.9 M156.2,100.2
	L156.2,100.2c0.2,0,0.3,0,0.4,0c0.1,0,0.2,0.1,0.3,0.1c0.5,0.3,0.9,0.7,1.1,1.2c0.4,0.5,0.5,1.1,0.5,1.6c0,0.2,0,0.4-0.1,0.6
	l-0.1,0.2l-0.1,0.1l0.1-0.2l0.1-0.2v-0.1l0-0.1c0-0.2,0-0.5-0.1-0.8c-0.1-0.3-0.2-0.7-0.4-1.1c-0.1-0.2-0.2-0.3-0.3-0.4
	c-0.1-0.1-0.2-0.2-0.3-0.3l-0.4-0.4l-0.1-0.1l-0.1,0l-0.1-0.1l0,0C156.5,100.3,156.3,100.2,156.2,100.2 M211.9,95.3l0.3-0.1l0.2,0.1
	h0l0.1,0.2l0.1,0.3l-0.1,0.4l-0.2,0.3l-0.2,0.2l-0.6,0.1l-0.1-0.7l0.1-0.4l0.2-0.3L211.9,95.3 M208.7,92.7L208.7,92.7
	c0.1,0.1,0.2,0.2,0.2,0.3l-0.5-0.3l-0.3-0.1c0,0-0.1,0-0.1-0.1h-0.1h-0.1l-0.1,0l-0.4,0.1l-0.5,0.2c-0.5,0.3-1,0.8-1.4,1.5
	c-0.3,0.5-0.5,1-0.6,1.6c-0.1,0.8,0.1,1.4,0.6,1.6l0.5,0.3h-0.3l-0.1,0h-0.1c-0.1,0-0.1,0-0.2-0.1l-0.1,0l-0.1-0.1l-0.1-0.1
	l-0.1-0.1l0-0.1c-0.2-0.4-0.3-0.9-0.2-1.6c0.1-0.3,0.2-0.5,0.3-0.8c0.1-0.3,0.2-0.5,0.4-0.7c0.7-1.2,1.5-1.9,2.4-2
	c0.1,0,0.3,0,0.4,0.1l0.1,0h0h0.1C208.6,92.5,208.7,92.6,208.7,92.7 M211.2,95.7l-0.1,0.5l0.1,0.7l0.2,0.9l0.1,0.3v0.9l-0.2,0.5
	l-0.2,0.3l-0.3,0.2l-0.3,0.1l-3.7-2.1l-0.9-0.5c-0.4-0.2-0.5-0.7-0.5-1.3c0.1-0.6,0.2-1.1,0.5-1.5c0.4-0.7,0.8-1.1,1.2-1.4l0.4-0.2
	l0.3-0.1l0.1,0l0.1,0h0l0.1,0l1.1,0.6l2.7,1.6l-0.4,0.2L211.2,95.7 M200.6,94.3l0,0.3l-0.2-0.6l0.4-0.6
	C200.7,93.8,200.6,94.1,200.6,94.3 M201.5,96.8l0.2,0.1h-0.3l-0.3-0.1l-0.1-0.5C201.2,96.5,201.3,96.6,201.5,96.8 M197.8,102.3
	c0,0.2-0.1,0.3-0.2,0.4c-0.1,0.1-0.2,0.2-0.3,0.3l-5,2.9l-1.1-0.6v-0.1V105c-0.5-1.2-1.3-2.3-2.3-3.4v0l-0.7-0.4
	c-0.1-0.2-0.2-0.3-0.4-0.5c-0.1-0.1-0.2-0.2-0.4-0.3l6.3-3.6c0.2-0.1,0.4-0.2,0.6-0.2c0.2,0,0.5,0.1,0.8,0.2
	c0.5,0.2,0.9,0.5,1.2,0.9c0.5,0.5,0.9,1,1.2,1.7c0.3,0.7,0.5,1.4,0.5,2c0,0.1,0,0.3,0,0.4C197.9,102,197.9,102.1,197.8,102.3
	 M194.9,94.7c0.1,0,0.3,0.1,0.4,0.1c0.2,0,0.4,0,0.6-0.1c-0.2,0.1-0.5,0.2-0.7,0.3c-0.2,0.1-0.5,0.1-0.7,0.2
	c-0.1-0.3-0.3-0.6-0.4-0.9C194.3,94.5,194.5,94.6,194.9,94.7 M191.9,92.1c0.9,0.8,1.6,1.8,2.1,2.8l-1.9-1.1l-0.2-0.1L190,91
	L191.9,92.1 M188.6,101.9c0.2,0.2,0.4,0.4,0.6,0.6c0.2,0.2,0.3,0.4,0.5,0.6c-0.2-0.1-0.3-0.2-0.5-0.2c-0.2,0-0.4-0.1-0.6-0.1h-0.2
	c-0.3,0-0.6,0.1-1,0.2c0.2-0.2,0.4-0.3,0.6-0.5C188.3,102.3,188.4,102.1,188.6,101.9 M188.5,106l0.2-0.1c0.3-0.2,0.5-0.3,0.8-0.4
	c0.2-0.1,0.4-0.1,0.5-0.1h0.1c0.1,0,0.2,0,0.3,0l0.4,0.1l4.1,2.4l-0.2,0.1l-1.6,0.4l-0.7,0L188.5,106 M190.8,105.1l0-0.2
	L190.8,105.1L190.8,105.1 M195.5,108.3l-0.3-0.1l-0.1,0l0.3-0.1l0.2,0.2l0.1,0.3L195.5,108.3 M194.1,108.6c0.2-0.1,0.4-0.1,0.5-0.1
	h0l0.1,0l0.2,0l0.4,0.1l0.3,0.2c-1.2,0.2-2.3,1-3.2,2.5c-0.9,1.6-1,2.9-0.6,4.1l-0.3-0.2c-0.6-0.4-0.8-1.1-0.7-2.1
	c0.1-0.8,0.3-1.5,0.7-2.2l0,0h0.1l0,0v-0.2c0.6-0.9,1.2-1.6,1.9-1.9C193.7,108.7,193.9,108.6,194.1,108.6 M195.7,109.1h0.1
	c0.2,0,0.3,0,0.5,0.1v0.1l0,0h0.1l0.2,0.2c0.2,0.2,0.3,0.4,0.4,0.7l-0.8-0.5c-0.2-0.1-0.5-0.2-0.7-0.2c-0.4,0-0.8,0.2-1.3,0.5
	c-0.7,0.5-1.1,1-1.4,1.6c-0.1,0.2-0.2,0.4-0.3,0.5c-0.1,0.2-0.2,0.4-0.3,0.6c-0.1,0.3-0.1,0.5-0.1,0.7c0,0.2,0,0.4,0,0.5
	c0,0.2,0,0.4,0.1,0.6c0,0.2,0.1,0.3,0.2,0.5l0.2,0.3l0.1,0.1l0.1,0.2l0.1,0l0.8,0.5c-0.2,0-0.3,0-0.5,0c-0.1,0-0.2,0-0.3,0
	c-0.1,0-0.2-0.1-0.3-0.1c-0.1-0.1-0.2-0.1-0.3-0.2c-0.1-0.1-0.2-0.2-0.2-0.3c-0.4-1.1-0.3-2.3,0.5-3.8
	C193.6,110.1,194.6,109.3,195.7,109.1 M192.7,108.7h0.5c-0.3,0.2-0.5,0.4-0.8,0.6L192.7,108.7 M191.3,110.7L191.3,110.7L191.3,110.7
	l-1.3,2l-4.1-2.4c0-0.2,0.1-0.3,0.1-0.5c0.1-0.2,0.1-0.4,0.2-0.5c0.1-0.2,0.2-0.4,0.3-0.5c0.1-0.2,0.2-0.4,0.3-0.5
	c0.4-0.8,0.9-1.4,1.5-1.9l4.1,2.4L191.3,110.7 M192.5,113.4c0-0.2,0.1-0.4,0.1-0.6c0.1-0.4,0.3-0.7,0.5-1.1c0.3-0.5,0.7-1,1.3-1.4
	c0.2-0.1,0.4-0.2,0.6-0.3c0.2-0.1,0.4-0.1,0.5-0.1c0.2,0,0.4,0,0.5,0.1l1.1,0.6l0.3,0.2c-0.9,0.2-1.7,0.8-2.5,2.1
	c-0.2,0.3-0.3,0.6-0.4,0.9c-0.1,0.3-0.2,0.6-0.2,0.8c0,0.3,0,0.5,0,0.8c0,0.2,0.1,0.5,0.1,0.7l-0.3-0.2l-1.1-0.6l-0.1,0l-0.1-0.1
	l-0.1-0.1l-0.2-0.3c-0.1-0.2-0.2-0.5-0.2-0.9C192.4,113.7,192.4,113.6,192.5,113.4 M185.8,111.7L185.8,111.7c0-0.2,0-0.3-0.1-0.4
	c0-0.1,0-0.3,0-0.4l0.1-0.3l4.1,2.4l0.5,1.4l0.2,0.8l0,0.2l-4.1-2.3c0,0-0.1-0.1-0.1-0.1c0-0.1-0.1-0.1-0.1-0.1
	c-0.1-0.1-0.2-0.3-0.3-0.5C185.9,112.1,185.8,111.9,185.8,111.7 M190.2,112.9l0.4-0.6c-0.1,0.3-0.1,0.6-0.1,0.9l0,0.4L190.2,112.9
	 M190.9,115.6l0-0.4c0.1,0.1,0.3,0.3,0.4,0.4l0.2,0.1h-0.3L190.9,115.6 M195.1,116.5c0,0-0.1-0.1-0.1-0.2l-0.1-0.2
	c-0.1-0.2-0.1-0.4-0.1-0.7c0.1,0.4,0.3,0.7,0.6,0.9l0.5,0.3h-0.2l-0.4-0.1L195.1,116.5 M196.3,116.5l-0.8-0.4
	c-0.7-0.5-0.7-1.5,0.1-2.9c0.6-1.1,1.3-1.6,1.9-1.6c0.2,0,0.3,0.1,0.5,0.1l3.5,2.1l-0.3,0.3l-0.3,0.4l-0.1,0.5l0.2,0.8l0.1,0.8
	c0,0.2,0.1,0.3,0.1,0.5c0,0.2,0,0.4,0,0.5c0,0.2-0.1,0.4-0.2,0.5c-0.2,0.3-0.4,0.4-0.7,0.4c-0.2,0-0.3,0-0.5-0.1L196.3,116.5
	 M198.6,111.5L198.6,111.5l0.1,0.1l0.1,0.1l-0.5-0.3c-0.2-0.1-0.4-0.2-0.7-0.2c-0.2,0-0.4,0.1-0.6,0.1c0.3-0.2,0.6-0.3,0.8-0.3h0.1
	c0.1,0,0.3,0,0.4,0.1l0.1,0.1l0.1,0C198.5,111.3,198.5,111.4,198.6,111.5 M202.2,114.1l0.1,0.2l0,0.3l0,0.4l-0.2,0.3l-0.3,0.2
	l-0.5,0l-0.1-0.6l0.1-0.4l0.2-0.3l0.3-0.2l0.2-0.1L202.2,114.1 M182,98.8l-0.4,0.2c-0.2,0.1-0.4,0.2-0.5,0.3
	c-0.2,0.1-0.4,0.2-0.6,0.3c-0.2,0.1-0.4,0.1-0.6,0.2c-0.2,0.1-0.4,0.1-0.6,0.2c-0.4,0.1-0.9,0.2-1.4,0.3c-0.5,0.1-1.1,0.1-1.6,0.1
	l-1.8-0.1c-1,0-1.9,0.2-2.8,0.7v0l0.1,0.3h0c0.9-0.4,1.7-0.7,2.7-0.7l1.8,0.1c0.6,0,1.1,0,1.6-0.1c0.5-0.1,1-0.2,1.5-0.3
	c0.2,0,0.4-0.1,0.6-0.2c0.2-0.1,0.4-0.1,0.6-0.2c0.2-0.1,0.4-0.2,0.6-0.3c0.2-0.1,0.4-0.2,0.6-0.3l0.4-0.2c0.2-0.1,0.4-0.2,0.6-0.3
	c0.2-0.1,0.5-0.1,0.7-0.1h0.2h0l0-0.3l0,0h-0.2c-0.2,0-0.5,0-0.7,0.1c-0.1,0-0.3,0.1-0.4,0.1C182.3,98.7,182.1,98.7,182,98.8
	 M183,86.4l-0.1-0.2h0l-0.3,0.1l0,0l0.1,0.2l0.1,1c0,0.1,0,0.3,0,0.4c0,0.2-0.1,0.3-0.1,0.5l0,0l0.3,0.1c0.1-0.4,0.2-0.7,0.2-1.1
	L183,86.4z"/>
<g>
	<text transform="matrix(1 0 0 1 30.4937 140.9414)" class="st5 st6">L/H - 3261-P51</text>
</g>
<path id="Layer0_6_MEMBER_1_1_STROKES" class="st7" d="M18.3,123.3h119.6v27.8H18.3V123.3z"/>
<path id="Layer0_6_MEMBER_1_1_STROKES_1_" class="st7" d="M144.7,123.3h119.6v27.8H144.7V123.3z"/>
<g>
	<text transform="matrix(1 0 0 1 159.9584 140.9416)" class="st5 st6">R/H - 3261-P52</text>
</g>
</svg>
