<?xml version="1.0" encoding="utf-8"?>
<!-- Generator: Adobe Illustrator 24.3.0, SVG Export Plug-In . SVG Version: 6.00 Build 0)  -->
<svg version="1.1" id="Ebene_1" xmlns="http://www.w3.org/2000/svg" xmlns:xlink="http://www.w3.org/1999/xlink" x="0px" y="0px"
	 viewBox="0 0 349.1 161" style="enable-background:new 0 0 349.1 161;" xml:space="preserve">
<style type="text/css">
	.st0{fill:#0099FF;}
	.st1{fill:none;stroke:#2D2C2E;stroke-width:0.5;stroke-linecap:round;stroke-linejoin:bevel;stroke-miterlimit:4;}
	.st2{fill:#1D1D1C;}
	.st3{fill:#CCCCCC;}
	.st4{fill:#00CC00;}
	.st5{fill:none;stroke:#000000;stroke-width:0.5;stroke-linecap:round;stroke-linejoin:round;}
	.st6{fill:none;stroke:#000000;stroke-width:0.1;stroke-linecap:round;stroke-linejoin:round;}
</style>
<path class="st0" d="M106.5,100.4l-3.5-1.6H102L84.1,109v-5.9l-4-1.8l-14.2,28.3l14.2,12.2l4,1.8v-10l22.3-12.5V100.4 M101.6,108.7
	l0.8,0.4l0.7,1.5v0.9l0.2,1l-0.2,1.2v0.5l-0.2,0.5v0.6l-0.3,1l-0.2,0.4l-0.1,0.5l-0.2,0.4l-0.4,0.4l-0.1,0.3l-1.1,1.2l-4,2.3v-10.8
	l3.1-1.9l1.2-0.5H101.6 M93.7,112.5l1.8-0.9l-2.4,12l-1.6,0.9l-1.3-7.4l-1.3,8.9l-1.6,0.9l-2.2-9.4l1.6-0.9l1.5,6.8l1.1-8.3l1.8-1.1
	l1.1,6.9L93.7,112.5 M80.7,124.3l3.4-2v1.8l-3.4,2v4.6l-1.6,0.9V121l5.7-3.3v1.9l-4.1,2.3V124.3 M99.4,111.1l-1.4,0.9v6.9l2.2-1.3
	l0.1-0.1l0.2-0.4l0.3-0.4v-0.4l0.2-0.3l0.2-0.1l0.1-0.8v-2.9l-0.1-0.5l-0.2-0.4l-0.4-0.4h-0.7L99.4,111.1z"/>
<path id="Layer0_5_MEMBER_1_1_STROKES" class="st1" d="M84.1,133.6l22.3-12.5v-20.7"/>
<path id="Layer0_5_MEMBER_2_1_STROKES" class="st1" d="M84.1,103l-14.2,28.2l14.2,12.2 M106.4,100.3l-22.3,12.5"/>
<path id="Layer0_5_MEMBER_3_1_STROKES" class="st1" d="M106.4,100.3l-4.1-1.9 M84.1,112.8V103 M84.1,143.5v-10"/>
<path id="Layer0_5_MEMBER_4_1_STROKES" class="st1" d="M69.9,131.2l-4.1-1.8"/>
<path id="Layer0_5_MEMBER_5_1_STROKES" class="st1" d="M102.4,98.5l-18.3,10.4 M84.1,103.1l-4-1.8l-14.3,28.2l14.3,12.2l4,1.8"/>
<path class="st2" d="M152,99.2l1.1-1.4l-1.4,1.2L152,99.2 M150,100.4l1.6-1.4l-0.2-0.2L150,100.4 M159.6,78.9l-1,1.4l-1.5,3.1
	l-2.3,9.5l-1.5,3.1l-2.1,2.8l0.3,0.3l1.4-1.2l1-1.5l1.5-3.2l2.3-9.5l1.5-3l1.8-2.7l-0.6-0.5L159.6,78.9 M161.5,76.1l-0.6,0.8
	l-0.3,0.5l0.5,0.4l1-1.2L161.5,76.1 M160.9,77l-0.4,0.4l0.1,0.1L160.9,77 M227,18L227,18l-2.8,2.3L227,18 M224.2,20.3
	c-1,0.7-1.9,1.5-2.8,2.2l-1.7,1.3c0.6-0.1,1.2-0.4,1.8-0.9l0.2,0.3l5.8-4.6l-0.3-0.4l8.3,4.8v1c0,1.3,0.1,3.3,0.3,5.9l0.2,3h0.1
	l0.3,1.4l0.8,1.5l1.1,1l0.3-0.3l-0.3,0.4l1.4,1l3,1.6l0.1,0v0.1l1,0.4l0.1,0l0.5,0.1l0.8,0l2.2-0.4l1.9-1.3l1.3-1.9l-0.3-0.2
	l0.3,0.1l0.5-1.6c0.6-1.4,1.5-2.4,2.8-3.1c0.9-0.4,1.7-0.4,2.5-0.1l0.5,0.2l0.3,0.2l0.1,0l0.5,0.5l0.2,0.4c0.3,0.5,0.5,1,0.6,1.5
	c0.1,0.5,0.1,1.2,0,1.8v0.4l-0.3,1.1l-0.1,0.1V38l-0.1,0v0.2l0,0.1v0l-0.6,1.3l-0.4,2.8l0.7,3.3l1.8,2.9l2.5,1.8l-24.3,59l-3.1,5.8
	l-4.4,4.9l-5.5,3.9v0l0-0.1l-12.2,8.4v0c-1.1,0.9-2.2,2-3.4,3.4c-1.1,1.4-2,2.7-2.7,4c-2.5,4.4-3.7,8.5-3.6,12.4
	c0.2,2.4,0.8,4.4,1.8,5.9l-58.7-34c-1.7-1.1-2.8-3-3.1-5.5c-0.3-2.6,0.3-5.4,1.6-8.6c1.2-3,2.7-5.5,4.5-7.3l3-3.4l-0.3-0.3l-1.6,1.4
	l-1.6,1.8c-1.8,1.9-3.4,4.4-4.6,7.6c-1.4,3.4-1.9,6.4-1.6,9c0.3,2.8,1.4,4.8,3.3,6.1l0.3-0.3l-0.2,0.3l60.9,35.2l0.1-0.1
	c0.9,0.6,2.1,0.9,3.4,0.9c3.8,0,7.7-2.5,11.8-7.4v-1.3h1.1l7.2-7.4l4.7-2.9h0l2.3-1.7l0.2,0l0.4-0.1l-0.1-0.3v0l0.1,0.2h0.1l5.9-4.6
	l0.9-1l0.9-0.7l5.8-6.7l0.3-0.6l0.4-0.4l4.7-8.7l23.7-57.8l-0.1,0l0.2,0l0.3-1.1l0.2-2.3h0l-0.5-3.1l-1-2.8l-1.8-2.5h0
	c-0.4-0.4-0.9-0.8-1.5-1.2l-1.2-0.6l-0.1,0.1l0.1-0.2c-1.7-0.8-3.3-1-4.8-0.4v0l-1.5,0.6l-3.6,2.3l-1,0.5l-0.9,0.2l-1.9-1.5
	l-1.4-2.2l-0.5-2.6l0.4-2.4l0.9-1.8l0-0.3l0.1-0.3l0.2-1.6V35l-0.1-0.3c-0.1-0.8-0.4-1.4-0.7-1.8l-0.8-1l0,0l-0.3-0.1
	c-0.2-0.2-0.4-0.3-0.8-0.4l-1.3-0.4c-1-0.4-2-0.3-3.1,0.2c-1.5,0.7-2.5,1.8-3.1,3.4l-0.1,0.4l-0.5-0.2v0.4l0.4,0.1L250,36l-1,1.6
	l-1.6,1.2l-2,0.4l-1.2-0.2l-1.3-0.6l-2.8-1.9h0l-1.1-1l-0.6-1.2l-0.4-1.4h-0.1c-0.3-3.6-0.4-6.7-0.4-9.4v-0.3l-0.5,0l0.2-0.4
	l-8.5-4.9l-0.1,0.2v0l0-0.2l-1.3-0.5l-0.1,0.4l-0.2,0.3V18L224.2,20.3 M236.7,23.5v0.2c0,3.5,0.2,6.7,0.5,9.6h0.1l0.4,1.4l0.3,0.6
	l-0.2-0.1l-0.7-1.2l-0.3-1.4h-0.1l-0.1-2.8c-0.2-2.2-0.3-4.1-0.3-5.9v-0.8L236.7,23.5 M271.5,46.9l-0.3-0.7l-1.5,0.6l-4,2.6
	l-1.4,0.5l-1.4,0.2l-2.5-1.8l-1.6-2.6l-0.6-3.2l0-1.2l0.3-1.3l0.5-1.1l0.1,0l0.6-2.1v-0.4c0.1-0.9,0-1.6-0.1-2.1
	c-0.1-0.6-0.3-1.1-0.4-1.3l0.2,0.3c0.2,0.3,0.4,0.8,0.6,1.5l0.1,1v0.6l-0.1,0v0.1c0.1,0.1,0,0.4,0,0.7l-0.1,0.6l-0.1,0.2l0,0.3
	l-0.8,1.8l-0.3,1.4l-0.1,1.3l0.5,2.8l1.5,2.5l2.3,1.8l0.3-0.3l0.1,0.4l1.1-0.4l1.1-0.5l3.5-2.3l1.5-0.5c0.7-0.2,1.4-0.3,1.8-0.3
	c-0.3,0-0.6,0.1-0.9,0.2L271.5,46.9c1-0.3,2-0.3,3,0c1,0.2,1.8,0.7,2.4,1.4v0l1.7,2.4l1,2.7l0.5,3.1l-0.1,1.9l-0.3,1l-23.8,57.8
	l-4.9,8.9l-6.8,7.8l-7,5.4l0,0l-0.6,0.5v0l-2.1,1.5v0l-4.6,2.9l-1.5,1.3l-0.6-0.2l-0.2,0.8l-0.2,0.3l-1.9,1.6l-3.4,3.9l-4.8-2.7
	c0-0.1,0-0.2,0-0.2c0.8-1.5,1.2-2.8,1.2-4.1c0-0.7-0.1-1.4-0.4-1.9l-0.2-0.5l-0.3-0.2l-0.1-0.2l-0.6-0.3l-0.5-0.1l-1.4,0l-0.3,0.2
	l-0.5,0.1l-0.2,0.2c-1.1,0.5-2.1,1.5-3,3.1c-0.9,1.5-1.3,2.9-1.2,4.1c0,0.8,0.1,1.4,0.4,1.8l0.3,0.6l0,0v0.1l0.6,0.3
	c0.4,0.1,0.6,0.2,0.7,0.2l0.1,0.1h0.5l0.5-0.1c0.7-0.2,1.1-0.4,1.3-0.5c1-0.5,1.9-1.4,2.7-2.6l4.8,2.9h0l0,0c-3,3.7-5.9,6.1-8.7,7.2
	c-2.4,0.9-4.4,0.8-6.2-0.4c-2-1.3-3-3.6-3.1-6.9c-0.1-3.7,1.1-7.6,3.5-11.7l-0.3-0.2l0.3,0.1c1.5-2.6,3.3-4.9,5.6-6.9h0l18-12.4
	l4.6-5.1l3.1-5.9h0.1L263,50.9l1.5-0.3l1.6-0.5l3.9-2.6L271.5,46.9 M214.7,142.5l0.8-0.2l0,0l0.1,0.1l0.3,0.9v1.2l0,0v0.5
	c-0.1,0.1-0.1,0.2-0.1,0.4l-0.1,0.4l-0.1,0.1v0.1l-0.7,1.5l0.2,0.3l-2.5-1.5l-0.2,0.3l2.2,1.3l-0.4,0.5l-0.2,0.1v0.1l-0.1,0
	l-0.1,0.2c-0.1,0.1-0.2,0.2-0.3,0.3l-0.2,0.1l0,0.1l-0.8,0.6h-0.1l-0.4,0.2l0,0.1h-0.4l-0.6,0.1l0-0.1c-0.1-0.2-0.2-0.5-0.3-1.1
	v-0.8c0-1,0.5-2.2,1.3-3.5c0.8-1.4,1.6-2.2,2.5-2.6L214.7,142.5 M215,149.3V149l0.2-0.4h0.1l0.7,0.4c-0.7,1-1.5,1.8-2.4,2.3
	c-0.3,0.2-0.7,0.3-1.1,0.3l-0.4,0.1H212l-0.5-0.1l0.7-0.1l1-0.6h0l0.7-0.6l0.1-0.1l0.3-0.3h0.1l0-0.2l0.2-0.2l0-0.1L215,149.3
	 M217,143l0.1,0.2c0.2,0.5,0.3,1.1,0.3,1.6c0,1.2-0.4,2.4-1.1,3.7c0,0,0,0.1,0,0.2l-0.8-0.5l0.4-0.8l0.2-0.3v-0.2l0.1-0.3l0.1-0.1
	v-0.2l0.1-0.7c0.2-0.2,0.2-0.3,0.2-0.5l0-0.1v-1.8l-0.1-0.4L217,143 M234.3,136.5l-2,0.6l-2.4,2l-1.5,2.7l-0.7,3l0.5,0.1l-0.5,0h0.8
	l0.6-2.8l1.4-2.5l2.1-1.9l1.7-0.5l1.3,0.5l0.7,1.6l0.7-0.3l-0.8-1.9L234.3,136.5 M208.4,2.1h-0.1c-0.5-0.2-1-0.3-1.2-0.2
	c-0.4,0-0.8,0-1.2,0.1l-0.3,0.1c-0.7,0.2-1.4,0.7-2,1.3c-0.3,0.3-0.5,0.6-0.8,0.9v0.7h-0.5c0,0.1-0.1,0.2-0.1,0.3l-1.5-0.3l-1.2,0
	l-0.4,0h-1.2l0.4,0.1l-2.2,0.3l-3.1,1.3l-1.9,1.5c-0.3,0.1-0.5,0.3-0.7,0.6l-0.1,0.2l-22.7,56.9h0l-1.6,3.5l-3.3,5l-1,1.5l0.6,0.4
	l4.4-6.5l24.4-60.5l0.4-0.3c0.1-0.1,0.2,0,0.3,0l0.3-0.2l-0.2,0.3l1.4,0.8l1.4,0.5l1.6,0.2l1.7-0.3h0.2l0.5-0.1l2.1-1.4l1.6-2
	l-0.3-0.2l0.3,0.1l0.4-0.9l-0.3-0.2l0.3,0.1c0.2-0.6,0.6-1.3,1.3-1.8c0.5-0.6,1.1-1,1.8-1.3l0.4,0c0.2-0.1,0.5-0.1,0.9-0.1
	c0.4,0,0.7,0.1,1,0.2l0.2-0.3L208,2.8l0.5,0.3l0.7,0.5l0.2,0.5c0.3,0.5,0.5,0.9,0.5,1.1l0.1,0.1c0.5,1.2,0.3,2.6-0.3,4.1
	c-0.7,1.6-1.1,3.1-1.1,4.5c0,2.7,1.1,5.2,3.4,7.3l0.3-0.2l-0.2,0.3l1.5,0.9h0c0.9,0.6,1.9,1.1,3,1.5l0.4,0.2l0.7,0.1h0
	c0.4,0,0.9,0,1.6-0.1l0.2,0l1.7-1.3l-0.2-0.3l-0.7,0.5l-0.1,0.1l-0.8,0.2l-0.1,0.1h-1.5l-0.5-0.1l-2.3-1.2l-1.1-0.8
	c-2.2-1.8-3.2-4.1-3.2-6.9c0-1.3,0.3-2.7,1-4.1c0.3-0.7,0.4-1.2,0.5-1.5l0.1-0.8c0.1-0.4,0-0.9,0-1.5l-0.1-0.7V5.4l0,0l-0.3-0.6
	c-0.1-0.2-0.2-0.5-0.5-0.7l-0.1-0.3l-0.5-0.6l-1.2-0.7l-0.1,0.3v0l0-0.2L208.4,2.1 M210.5,4.2l0.1,0.3c0.2,0.1,0.3,0.3,0.4,0.4
	l0.1,0.8l0.1,0.1l0.2,1.8l-0.2,0.8c-0.1,0.6-0.2,1.1-0.3,1.3c-0.7,1.5-1,3-1,4.4c0,1.6,0.4,3.2,1.2,4.7c-1.1-1.6-1.6-3.2-1.6-5
	c0-1.4,0.3-2.8,0.9-4.2c0.3-0.6,0.5-1.4,0.6-2.3c0.1-0.9,0-1.7-0.2-2.4L210.5,4.2 M201.6,6.3l0-0.1L201.6,6.3L201.6,6.3 M200.8,5.9
	l-0.1,0.2l0.2,0.1c-2.5-0.2-4.8,0.3-6.9,1.4l-0.5,0.5v0.5l0.1,0.1l0,0.1l0.1,0v0l0.3-0.2l-0.2,0.3l1.3,0.7l-0.5,0l-1.3-0.4l-1.3-0.8
	l-0.1-0.1l1.3-1l2.9-1.2l3.2-0.5l0.6,0l0.5,0L200.8,5.9 M197.8,9.7l-1,0l-1.3-0.4l-1-0.7l-0.1,0l0.1-0.1c2.1-1.1,4.3-1.5,6.7-1.3
	l-1.1,1.3l-1.8,1.3L197.8,9.7z"/>
<path class="st3" d="M227,18.1l0.2-0.3L227,18.1L227,18.1 M201.7,6.2l0,0.1h0V6.2z"/>
<path class="st4" d="M217.1,143.2L217,143l-0.3-0.3l0.1,0.4v1.8l0,0.1c0,0.2-0.1,0.3-0.2,0.5l-0.1,0.7v0.2l-0.1,0.1l-0.1,0.3v0.2
	l-0.2,0.3l-0.4,0.8l0.8,0.5c0-0.1,0-0.2,0-0.2c0.7-1.3,1.1-2.5,1.1-3.7C217.5,144.3,217.4,143.8,217.1,143.2 M215,149v0.2l-0.3,0.1
	l0,0.1l-0.2,0.2l0,0.2h-0.1l-0.3,0.3l-0.1,0.1l-0.7,0.6h0l-1,0.6l-0.7,0.1l0.5,0.1h0.2l0.4-0.1c0.4,0,0.8-0.1,1.1-0.3
	c0.9-0.5,1.7-1.3,2.4-2.3l-0.7-0.4h-0.1L215,149 M271.2,46.2l0.3,0.7l-1.5,0.6l-3.9,2.6l-1.6,0.5l-1.5,0.3l-24.3,59.2h-0.1l-3.1,5.9
	l-4.6,5.1l-18,12.4h0c-2.3,1.9-4.2,4.2-5.6,6.9l-0.3-0.1l0.3,0.2c-2.4,4.2-3.6,8.1-3.5,11.7c0.1,3.3,1.1,5.6,3.1,6.9
	c1.7,1.2,3.8,1.3,6.2,0.4c2.8-1.1,5.8-3.5,8.7-7.2l0,0h0l-4.8-2.9c-0.8,1.2-1.7,2-2.7,2.6c-0.2,0.1-0.6,0.3-1.3,0.5l-0.5,0.1h-0.5
	l-0.1-0.1c0,0-0.3-0.1-0.7-0.2l-0.6-0.3v-0.1l0,0l-0.3-0.6c-0.3-0.4-0.4-1-0.4-1.8c-0.1-1.2,0.3-2.6,1.2-4.1c0.9-1.6,1.9-2.6,3-3.1
	l0.2-0.2l0.5-0.1l0.3-0.2l1.4,0l0.5,0.1l0.6,0.3l0.1,0.2l0.3,0.2l0.2,0.5c0.3,0.5,0.4,1.2,0.4,1.9c0,1.3-0.4,2.7-1.2,4.1
	c0,0.1,0,0.1,0,0.2l4.8,2.7l3.4-3.9l1.9-1.6l0.2-0.3l0.2-0.8l0.6,0.2l1.5-1.3l4.6-2.9v0l2.1-1.5v0l0.6-0.5l0,0l7-5.4l6.8-7.8
	l4.9-8.9l23.8-57.8l0.3-1l0.1-1.9l-0.5-3.1l-1-2.7l-1.7-2.4v0c-0.6-0.7-1.5-1.1-2.4-1.4c-1-0.3-1.9-0.3-2.9,0L271.2,46.2
	c0.4-0.1,0.6-0.2,1-0.2c-0.5,0-1.1,0.1-1.8,0.3l-1.5,0.5l-3.5,2.3l-1.1,0.5l-1.1,0.4l-0.1-0.4l-0.3,0.3l-2.3-1.8l-1.5-2.5l-0.5-2.8
	l0.1-1.3l0.3-1.4l0.8-1.8l0-0.3l0.1-0.2l0.1-0.6c0.1-0.4,0.1-0.6,0-0.7v-0.1l0.1,0v-0.6l-0.1-1c-0.2-0.7-0.4-1.2-0.6-1.5l-0.2-0.3
	c0.1,0.2,0.3,0.6,0.4,1.3c0.1,0.5,0.2,1.2,0.1,2.1v0.4l-0.6,2.1l-0.1,0l-0.5,1.1l-0.3,1.3l0,1.2l0.6,3.2l1.6,2.6l2.5,1.8l1.4-0.2
	l1.4-0.5l4-2.6L271.2,46.2 M232.3,137.1l2-0.6l1.8,0.7l0.8,1.9l-0.7,0.3l-0.7-1.6l-1.3-0.5l-1.7,0.5l-2.1,1.9l-1.4,2.5l-0.6,2.8
	h-0.8l0.5,0l-0.5-0.1l0.7-3l1.5-2.7L232.3,137.1 M236.7,23.7v-0.2l-0.5-0.3V24c0,1.7,0.1,3.7,0.3,5.9l0.1,2.8h0.1l0.3,1.4l0.7,1.2
	l0.2,0.1l-0.3-0.6l-0.4-1.4h-0.1C236.9,30.4,236.7,27.2,236.7,23.7 M208,2.8l0.1-0.3L208,2.8c-0.3-0.1-0.7-0.2-1-0.2
	c-0.4,0-0.7,0-0.9,0.1l-0.4,0c-0.6,0.2-1.2,0.6-1.8,1.3c-0.6,0.6-1,1.2-1.3,1.8l-0.3-0.1l0.3,0.2l-0.4,0.9l-0.3-0.1l0.3,0.2l-1.6,2
	l-2.1,1.4l-0.5,0.1h-0.2l-1.7,0.3l-1.6-0.2l-1.4-0.5l-1.4-0.8l0.2-0.3l-0.3,0.2c-0.1-0.1-0.2-0.1-0.3,0l-0.4,0.3l-24.4,60.5
	l-4.4,6.5l-0.6-0.4l-0.6,0.9l0.6-0.8l0.6,0.5l-1,1.2l-0.5-0.4h-0.1l0.6,0.5l-1.8,2.7l-1.5,3l-2.3,9.5l-1.5,3.2l-1,1.5l-1.1,1.4
	l-0.3-0.2h0l0.3,0.3l-3,3.4c-1.8,1.8-3.3,4.3-4.5,7.3c-1.3,3.2-1.9,6.1-1.6,8.6c0.3,2.5,1.3,4.3,3.1,5.5l58.7,34
	c-1-1.5-1.6-3.4-1.8-5.9c-0.1-3.9,1.1-8,3.6-12.4c0.7-1.3,1.6-2.6,2.7-4c1.2-1.4,2.3-2.6,3.4-3.4v0l12.2-8.4l0,0.1v0l5.5-3.9
	l4.4-4.9l3.1-5.8l24.3-59l-2.5-1.8l-1.8-2.9l-0.7-3.3l0.4-2.8l0.6-1.3v0l0-0.1v-0.2l0.1,0v-0.1l0.1-0.1l0.3-1.1v-0.4
	c0.1-0.7,0.1-1.3,0-1.8c-0.1-0.5-0.3-1-0.6-1.5l-0.2-0.4l-0.5-0.5l-0.1,0l-0.3-0.2l-0.5-0.2c-0.8-0.3-1.6-0.2-2.5,0.1
	c-1.3,0.6-2.2,1.6-2.8,3.1l-0.5,1.6l-0.3-0.1l0.3,0.2l-1.3,1.9l-1.9,1.3l-2.2,0.4l-0.8,0l-0.5-0.1l-0.1,0l-1-0.4v-0.1l-0.1,0l-3-1.6
	l-1.4-1l0.3-0.4l-0.3,0.3l-1.1-1l-0.8-1.5l-0.3-1.4h-0.1l-0.2-3c-0.2-2.6-0.3-4.6-0.3-5.9v-1l-8.3-4.8l0.3,0.4l-5.8,4.6l-0.2-0.3
	c-0.6,0.5-1.2,0.8-1.8,0.9l-0.2,0c-0.6,0.1-1.2,0.1-1.6,0.1h0l-0.7-0.1l-0.4-0.2c-1.1-0.4-2.1-0.8-3-1.5h0l-1.5-0.9l0.2-0.3
	l-0.3,0.2c-2.3-2.2-3.4-4.6-3.4-7.3c0-1.4,0.4-2.9,1.1-4.5c0.7-1.5,0.8-2.9,0.3-4.1L210,5.3c0-0.2-0.2-0.6-0.5-1.1l-0.2-0.5
	l-0.7-0.5L208,2.8 M207.3,6.4v0.1l0.1,0v0.3l0.1,0.1v0.4l-0.1,0.1v0.3L207.3,8v0.1l-0.1,0.2v0.3h0l-0.2,0.3l-0.3,0.2L206,9.4v0
	l-0.1,0V9.1h0V9h-0.1l0-0.4V8.3h0V8l0.3,0l0.1-0.3l-0.2,0V7.3l0.1-0.1V7l0.3-0.4l0.5-0.2v0H207.3l0-0.1L207.3,6.4 M255.5,35.1
	l0.1-0.1l0.1,0h0.1l0.1,0v0.1l0.1,0.1l0,0.2l0.1,0.1v0.8l-0.1,0.1v0L256,37l-0.3,0.5l-0.3,0.1l-0.1,0.3l-0.2,0l0,0v-0.2h-0.2v-0.1
	h-0.1l0-0.4l0,0V37l0-0.1v-0.1L255,37l0.1-0.3l-0.5-0.2l0-0.2h0.1v-0.3l0.1-0.1v-0.2l0.2,0l0-0.2l0.3,0V35.1 M196.7,9.6l1,0l0.5,0
	l1.8-1.3l1.1-1.3c-2.4-0.2-4.7,0.2-6.7,1.3l-0.1,0.1l0.1,0l1,0.7L196.7,9.6 M200.7,6.2l0.1-0.2l-0.3,0l-0.5,0l-0.6,0l-3.2,0.5
	l-2.9,1.2l-1.3,1l0.1,0.1l1.3,0.8l1.3,0.4l0.5,0l-1.3-0.7l0.2-0.3L193.8,9v0l-0.1,0l0-0.1l-0.1-0.1V8.2l0.5-0.5
	c2.1-1.1,4.4-1.6,6.9-1.4L200.7,6.2 M210.6,4.5l-0.1-0.3l0.3,0.9c0.2,0.6,0.3,1.4,0.2,2.4c-0.1,0.9-0.3,1.6-0.6,2.3
	c-0.6,1.4-0.9,2.7-0.9,4.2c0,1.7,0.5,3.4,1.6,5c-0.8-1.5-1.2-3.1-1.2-4.7c0-1.5,0.3-2.9,1-4.4c0.1-0.2,0.2-0.7,0.3-1.3l0.2-0.8
	l-0.2-1.8l-0.1-0.1L211.1,5C211,4.8,210.8,4.7,210.6,4.5z"/>
<path id="Layer0_6_1_STROKES" class="st5" d="M221.4,22.5c0.9-0.7,1.8-1.5,2.8-2.2 M227,18l0.2-0.2 M219.7,23.8l1.7-1.3 M224.2,20.3
	L227,18"/>
<path id="Layer0_6_2_STROKES" class="st6" d="M151.6,99L151.6,99 M159.6,78.9l0.9-1.5h0.1 M160.9,77l0.6-0.9l1-1.5 M160.5,77.5
	l0.3-0.5 M151.6,99l1.4-1.2 M150,100.4l1.6-1.4"/>
</svg>
