<?xml version="1.0" encoding="utf-8"?>
<!-- Generator: Adobe Illustrator 24.3.0, SVG Export Plug-In . SVG Version: 6.00 Build 0)  -->
<svg version="1.1" id="Ebene_1" xmlns="http://www.w3.org/2000/svg" xmlns:xlink="http://www.w3.org/1999/xlink" x="0px" y="0px"
	 viewBox="0 0 349.1 161" style="enable-background:new 0 0 349.1 161;" xml:space="preserve">
<style type="text/css">
	.st0{fill:#0099FF;}
	.st1{fill:#2B2B2A;}
	.st2{font-family:'ArialMT';}
	.st3{font-size:13px;}
</style>
<path class="st0" d="M109.1,156.9v-0.1l-0.1-0.2l-0.1-0.1l0-0.1h0l-0.1,0.1l-0.1,0.2l-0.4,0.2l-0.6,0.1l-0.6-0.1l-0.4-0.2l-0.1-0.1
	l0-0.1h0l-0.1,0.1l-0.1,0.1l0,0.2v0.1v1.8l0.2,0.4l0.5,0.3l0.7,0.1l0.7-0.1l0.5-0.3l0.2-0.4V156.9 M103.6,156L103.6,156L103.6,156
	l-0.2,0.3l-0.4,0.2l-0.6,0.1l-0.6-0.1l-0.5-0.2l-0.1-0.1l0-0.1h0l-0.1,0l-0.1,0.1l0,0.2v0.2v1.8l0.2,0.4l0.5,0.3l0.7,0.1l0.7-0.1
	l0.5-0.3l0.2-0.4v-1.7v-0.1l-0.1-0.1l-0.1-0.1L103.6,156 M106.2,145.7L106.2,145.7v0.7v0.5L106,147l-0.1,0.1l-0.1,0.2l0,0.2v0.5
	l0,0.3l0,0.1v0.4v0.8v0.4v1.1l0,0.4l0.2,0.3l-0.2,0.2l-0.1,0.2l-0.1,0.3v0.6l0.3,0.6l0.1,0.4l-0.1,0.1l-0.2,0.2l-0.1,0.3v0.6
	l0.3,0.6l0.8,0.4l0.3,0.2l0.4,0.1l0.5,0.1l0.5-0.1l0.4-0.1l0.3-0.2h0.1l0,0l0.8-0.4l0.3-0.6v-0.6l-0.1-0.3l-0.1-0.2l-0.1-0.1v-0.4
	l0.3-0.6v-0.6v0l0-0.2l-0.1-0.2l-0.3-0.2l0.1-0.2l0.1-0.3V150v-0.9v-0.9l-0.1-0.3l0-0.5l-0.1-0.3l-0.2-0.2l-0.3-0.1v-0.4v-0.8h0
	l-0.1,0.3l-0.3,0.3l-0.6,0.2h-0.7l-0.6-0.2l-0.3-0.2L106.2,145.7l0.1-0.2h0l-0.1,0.1L106.2,145.7 M101,145L101,145l-0.1,0.1v0.1v0
	l0,0.1v0.7v0.7l0.1,0.2l0.1,0.1l0,0.2l0.1,0.2l0.2,0.1l0.6,0.2h0.6l0.6-0.2l0.2-0.1l0.1-0.2l0-0.2l0.1-0.2l0.1-0.2v-0.3l0.4,0.4
	l0,0.5l-0.5,0.5l-0.8,0.3h-0.9l-0.9-0.3l-0.4-0.4l-0.1-0.4l0.2-0.3l0,0l-0.1,0.1l-0.1,0.1l-0.1,0.2l0,0.8l0,0.1v0.4v0.8v0.4v1.1
	l0,0.4l0.2,0.3l-0.2,0.2l-0.1,0.2l-0.1,0.2v0v0.6l0.3,0.6v0.4l-0.1,0l-0.2,0.3l0,0.3l0,0.6l0.3,0.6l0.8,0.4l0.3,0.2l0.4,0.1l0.4,0
	l0.5,0l0.4-0.1l0.3-0.2h0.1l0.8-0.5l0.3-0.6v-0.6l-0.1-0.3l-0.1-0.2l-0.1-0.5l0.3-0.6v-0.6v-0.1l-0.1-0.2l-0.1-0.2l-0.3-0.3l0.1-0.2
	l0.1-0.3v-1.1v-0.9v-0.9l-0.1-0.3l0-0.5l-0.1-0.3l-0.2-0.2l-0.3-0.1V146v-0.4l0-0.3l0-0.1l-0.1-0.3l0,0l0.1,0.4l-0.1,0.2l-0.3,0.3
	l-0.6,0.2h-0.7l-0.6-0.2l-0.3-0.2l-0.1-0.3v-0.1L101,145 M131.1,89l-0.2,0.2v0.5l0.3,0.6l0.4,0.5l0.5,0.2l0.4,0h0.1l1.1-0.6l0.1,0
	l0.3-0.1l0.1-0.1l0.4,0.3l0.1,0l0.5,0.1l0.4-0.1h0l0.5-0.3l0.7-0.4l0.4-0.1l0.6-0.3l0.6-0.8l0.4-0.2l0.2-0.1l0.5-0.3l0.7-0.4
	l0.3-0.2l1.2-0.7l0.2-0.4l0-0.1c0.3-0.3,0.7-0.4,1.2-0.4c0.5,0,0.9,0.2,1.2,0.5c0.3,0.3,0.5,0.7,0.5,1.2c0,0.3,0,0.5-0.1,0.8
	c-0.1,0-0.1,0-0.2,0.1l-1,1.7c0,0-0.1,0.1-0.1,0.1c0,0.1,0,0.2,0.1,0.4l-0.2,0.4l-0.3,0.3l-1.3,1.7L141,94l-0.2,1l0.1,1l1.2,8.1v2.1
	l-0.2,1.2l-0.5,1.6l-7.2,14.2l-0.4,0.9l-2.7,4l-2.7,3.1l-2,1.6l-1.1,0.6l-2.6,0.9l-2.2,0.4l-5.6,0.1l-6.5-0.6l-0.1-0.2l-0.1-0.1
	h-0.1l-0.2-0.1l-0.1-0.3l-0.2-0.2l-0.3-0.1h-0.1l-0.8-0.1l-1-0.2l-0.2,0l-0.8-0.1l-0.6,0.2l-0.4,0.6l-0.1,0.1l-0.3,1l0,1l0.3,0.8
	l0.6,0.3h0.1l0.6,0.1l0.5,0.1l0.6,0.1l0.7,0.1h0.1l0.1,0.1l0.1-0.1l0.3-0.1l0.2-0.2l0.3,0.1l0.2-0.1l0.2-0.1l0.1-0.1l0.1,0l8.7,0.8
	l3.8-0.1l3.1-0.5l1.2-0.4l2.1-1l1.3-0.9l2.2-1.9l4.3-5l8.8-17.2l0.5-1.3l0.3-1.2l0.1-2.5l-0.4-3.9l-1.2-5.3l0-0.7l0.1-0.4l0.1-0.4
	l0.2-0.3l1.7-2.3l0.4-0.1h0.1c0.2,0,0.3,0,0.4-0.1L147,90l0,0c0.1-0.1,0.1-0.2,0-0.4c0.1-0.2,0.1-0.4,0.1-0.6c0-0.2,0-0.4,0-0.7
	c0-1.4-0.5-2.6-1.5-3.6c-1-1-2.1-1.5-3.5-1.5c-0.3,0-0.6,0-0.8,0.1c-0.3,0-0.5,0.1-0.8,0.2l-0.4-0.1h-0.4l-0.3,0.1l-0.9,0.5
	l-0.7,0.4l-0.7,0.4l0,0l-0.2,0.2l-0.4,0.2h-0.5l-0.7,0.1l-0.5,0.3l-1,0.5l-0.5,0.3l-0.1,0l-0.3,0.3l-0.1,0.5l0.1,0.6V88l-0.1,0
	l-0.2,0.1l-0.2,0.2l-1.1,0.6l-0.1,0L131.1,89L131.1,89 M140.2,6.6c0.1,0,0.2,0,0.3-0.1l1.2-1.2l0.1,0c0.1-0.1,0.1-0.3,0.1-0.5
	l0.5-0.5c0.2-0.1,0.1-0.4-0.1-0.8c-0.1-0.2-0.2-0.4-0.4-0.6c-0.2-0.2-0.3-0.3-0.6-0.5c-0.7-0.6-1.3-0.9-1.7-0.9
	c-0.1,0-0.2,0-0.3,0.1l-0.5,0.6h-0.1c-0.1,0-0.2,0-0.3,0.1l-1.1,1.2c-0.1,0-0.1,0-0.2,0.1c-0.1,0.1-0.1,0.2,0,0.4l-1.7,1.8
	c-0.1,0-0.2,0.1-0.2,0.1c-0.1,0.1-0.1,0.2,0,0.4L135,6.8L133.9,8c0,0-0.1,0-0.1,0.1c-0.1,0.1-0.1,0.2,0,0.3l0,0.3l-2.5,2.3l-1.8,2.1
	l-0.9,1.7l-0.5,1.6l0,2.2l-0.1,0.6l-0.4,1.2l-1.4,2.3l-1.7,2c-0.1-0.1-0.3-0.1-0.4-0.1c-0.1,0-0.2,0-0.2,0.1l-1.6,1.6l-1.4-0.9
	l-4.5,4.4v0l-0.3,1.7l0,0l0.5,1.5c-0.1,0-0.3,0-0.4-0.1c-0.1,0-0.2,0-0.3,0.1l-1.4,1.5c-0.2,0.2-0.1,0.5,0.1,0.9l-0.3,0.4
	c-0.1,0.1-0.1,0.2-0.1,0.4l0.1,0.5l-2.8,4.6l-1.4,4l-1.2,5.5l-0.2,4.5l0.1,2.7l1.5,6.7l4.5,12.3l0.6,3.3l0.1,1.6l-1,8.2l-3.1-3.1
	l-3.8-6.1l-1.4-1.4l-2.2-1.7l-2-1.1l-0.1-0.7c-0.1-0.3-0.2-0.5-0.5-0.6l0,0l-2-1.2c-0.1,0-0.2,0-0.3,0l-3.5-1h-0.5l-0.6,0.2
	l-0.7,0.3L93,74l-0.2,0.3l-0.1,0.3l-0.1,0.2v2.2l-0.4-0.1l-2.5,1.5l-1.2,0.8v7.2l1,0.6v4.5v1l0.1,1.4c0,0.2,0.2,0.4,0.5,0.6l0.3,0.1
	l0.3,2.1l-0.7,0.4l-0.6,0.1l-0.6,0.3l-0.1,0l-0.3,0.3L88,98.4l0.1,0.4l-0.1,0.4l-0.2,0.1l-0.2,0.2l-1.1,0.6l-0.1,0l0,0l-0.1,0.1
	l-0.2,0.2l0,0.5l0.2,0.6L87,102l0.5,0.2l0.3,0h0.1l1.1-0.6h0l0.1,0l0.4-0.2l0.4,0.3l0.1,0l0.5,0.1l0.4-0.1l0.3-0.2l0.3-0.2l0.2-0.2
	l0.2-0.2l1.3,2.7l3,4.1l0.3,0.9l1,4.5l0.1,1.2l-0.1,2l-0.1,0.6v0.2l-0.4,0l-0.4,0.1l-0.7,0.4l-0.3,0.3l-0.8,1.3l-0.3,0.7l-0.1,0.4
	l-0.1,1.2l0.1,0.8v1v2.1l-0.1,0.1l-0.1,0.2l-0.1,0.1l-0.2,0.4l-0.3,0.3l-0.1,0.4l0,1.2v0.8v0.4v0.3v0.9v0.1l0.1,0.2l0.1,0.1l0.1,0.1
	L94,136l0.1,0.3l0.1,0l0,0.1l0.1,0.2l0.1,0l0,0v1.4l0.1,0.1l0.1,0.1l0.1,0.1v0.6v0.7l0.2,1.1l0.2,0.6l1.5,1.3l2.1,0.5l2.1,1.1
	l0.2,0.2l0.1,0.1l0,0.3l0.1,0.2l0.1,0.1l0.2,0.1l0.5,0.1h0.5l0.5-0.1l0.2-0.1l0.1-0.2l0-0.1l-0.1-0.9l-0.3-0.5l-0.9-0.4l1.9,0.5
	l2.1,1.1l0.2,0.2l0.1,0.2l0,0.3l0.1,0.2l0.1,0.1l0.2,0.1l0.5,0.2h0.6l0.5-0.2l0.2-0.1l0.1-0.2l0-0.1l-0.1-0.8l-0.4-0.7l-0.6-0.7
	l-2-1.1l-1.9-0.5l-1.3-0.8l-0.2-0.4l-0.1-0.9v-0.7l0.1-0.1l0.1-0.2v-0.1v-1.2l0.2-0.2l0.2-0.3v-0.2l-0.1-1.2l-0.3-0.5l0.1-0.9
	l0.4-0.9V132l0.4-0.3l0.1-0.2v-0.4v-0.9V130v-1.2l0-1.2v-0.1l-0.1-0.1l-0.1-0.1l-0.4-0.4l-0.1-0.2l-0.1-0.2l0,0l-0.3-0.5l-0.1-1.7
	v-0.8l0.1-0.3l0.1-0.2l0.1-0.2l0.1-0.1l0.2-0.1l0.5-0.2h0.6l1.2,0.3l4.2,1.7l1.9,0.2l0.6,0l0.8-0.2l0.2-0.1l0.2-0.3l0.4-1.1l0.1-0.9
	l0-2c0.2-0.2,0.3-0.5,0.2-0.7l0,0l-0.2-0.6c0,0,0-0.1,0-0.1c0-0.2-0.2-0.3-0.4-0.4h0l-0.3-0.8l-0.6-1l-0.8-0.9l-1.7-1.5l-4.1-2.7
	l-1.4-1.2l-1.1-1.2l-2.9-4.3l0.5-0.6l0.2-0.1l1.6-2.3l0.1-0.2V98l-1.9-2.7l-1.4-0.5l-0.9-0.2v-0.4v-1.9l0-0.9l3.1-1.5v-7.3v-0.1
	l-0.8-1.9l-0.1-0.1l-3.8-2.2v-0.5h0.2c0.1,0.2,0.2,0.4,0.4,0.4l0.1,0l1.6,0.9c0.1,0.1,0.2,0.2,0.3,0.2l0.1,0.1c0.1,0,0.1,0,0.2,0
	c0.2,0,0.4-0.1,0.6-0.2l0.4-0.1l1.8,1.1l2.4,2l0.7,0.9l0.4,0.6l1.8,3.8l1.2,1.7l4,4l0.6,0.4l-0.6,2.2l-0.4,2v0.5l0.1,0.8l0.3,1
	l0.7,1.4l0.2,0.4l0.6,0.6l0.4,0.3l0.4,0.2l0.9,0.3l1.5,0.3l1.6-0.2l1.3-0.6l0.6-0.4l1.4-1.4l0.5-0.7l0.5-1.1l0.1-0.4l0.1-0.9v-0.4
	l-0.3-1.2l-0.4-0.7l-0.5-0.6l-0.7-0.7l-1.9-1.3l-2.1-1l-0.6-0.4l0.1-0.3l1.3-10l-0.1-1.9l-0.6-2.9l-4.7-13l-0.9-4.1l-0.5-3.8
	l0.2-5.3l0.8-4l1.9-5.5l1.6-2.6l0.5-0.2c0.1,0,0.2,0,0.2-0.1l0.3-0.3c0.3,0.1,0.6,0.2,0.7,0.2c0.2,0,0.3,0,0.3-0.1h0l1.2-1.4
	l0.3,0.1l0.5,0.3l0.1,0.1l1.1,0.1L126,33l-0.5-1.4l1.4-1.4l0.1-0.1c0.1,0,0.1-0.1,0.1-0.1c0-0.1,0-0.2-0.1-0.3l0,0l3.2-3.7l0.6-1.1
	l0.4-1.1l0.2-0.7l0.1-1l0-1.7l0.1-0.6l0.4-0.8l0.7-1.1l1.1-1.3c0.1,0.1,0.2,0.1,0.3,0.1c0.1,0,0.1,0,0.2-0.1l1.5-1.5l0.1-0.2
	c0.1-0.1,0.1-0.1,0.1-0.2c0-0.1-0.1-0.2-0.1-0.3c-0.1-0.3-0.4-0.5-0.7-0.8c-0.5-0.5-0.9-0.7-1.2-0.7c-0.1,0-0.2,0-0.2,0.1l-1.6,1.6
	c0,0-0.1,0-0.1,0.1c-0.1,0.1,0,0.2,0.1,0.4l-1.5,2.1l-0.4,0.9l0.1-1.5l0.1-0.3l0.6-1.4l0.6-0.9l3.7-4c0.2,0.1,0.3,0.1,0.4,0.1l0.1,0
	l-0.3,0.3l0,0.3l-0.1,0.1l-1.7,1.8l0,0h0.1c0.1,0,0.3,0,0.5,0.1c0.2,0.1,0.4,0.2,0.6,0.3c0.2,0.1,0.4,0.3,0.6,0.5
	c0.4,0.4,0.7,0.7,0.9,1.1c0.2,0.3,0.2,0.5,0.1,0.7h0l1.8-1.8l0.1,0l0.1-0.1l0-0.1l0.1,0c0.2,0,0.3,0,0.3-0.1l1.3-1.2
	c0.1-0.1,0.1-0.2,0-0.4l0.5-0.5c0.1-0.1,0.1-0.4-0.1-0.8c-0.1-0.2-0.2-0.4-0.4-0.5c-0.2-0.2-0.3-0.4-0.6-0.5
	c-0.2-0.2-0.5-0.4-0.7-0.6l-0.1,0l-0.1-0.1l-0.4-0.2l1.5-1.6l0.1,0H140.2 M129.5,21.9l0.1-0.2l-0.6,2.1l-1.3,1.8l-2.3,2.5
	c-0.1-0.1-0.2-0.1-0.4-0.1c-0.1,0-0.2,0-0.2,0.1l-0.6,0.5l-0.2-0.5l1.5-1.5c0.1,0,0.1,0,0.1-0.1c0.1-0.1,0.1-0.2,0-0.4l2.5-2.5
	L129.5,21.9 M98.9,97.4l0.9,0.9l0.3,1.3l-0.1,0.1l-1.1,1.7l0,0l0.1-0.1h0.5l0.6,0.3l0.5,0.5l0.3,0.6v0.4l-0.1,0.3l-0.2,0.1l0.1-0.2
	v-0.3l-0.2-0.5l-0.4-0.4l-0.5-0.3H99l-0.3,0.1l-0.1,0.2l-0.2-0.3l-0.4-1.1l-0.4-3l0.5-0.3L98.9,97.4 M92.9,92.5v-1V89l2,1.1
	l-0.1,4.2l-0.1,0.1l-1.9,1.4l0,0l0.4-0.3l0.5,0.2l-0.3,0.4l-0.1,0L93.1,96l-0.2-0.1h-0.3l-0.2-1.4c0.3-0.2,0.5-0.4,0.5-0.7V92.5
	 M103,113.4l0.8,0.7l0.6,0.8l0.2,0.3l0.9,1.9l0.1,0.6c-0.2,0.1-0.3,0.3-0.3,0.5c0,0.1,0,0.1,0.1,0.2l0.1,0.7l0,0.1l-0.2,0.2
	l-0.2,0.1l-0.4,0l-0.4,0l-1.4-0.4l-3.1-1.4l-0.5-0.1l0.2-0.7l0-2.1l-0.5-3.3v-0.6L103,113.4 M109.5,117.1l0.5,0.7l0.5,1
	c-0.1,0.1-0.1,0.3-0.1,0.5l0,0.1l0.3,0.8c0.1,0.2,0.2,0.3,0.4,0.4l0,1.1l-0.1,0.3l-0.2,0.2l-0.3,0.1l-0.7,0l-0.9-0.2l-0.9-0.4
	l-0.9-0.5l1.1-1.5l0.2-0.3c0.3-0.2,0.4-0.5,0.3-0.7l-0.1-0.7c0,0,0-0.1,0-0.1c0-0.2-0.2-0.3-0.5-0.4l-0.1-0.4l-0.5-1.3l1.2,0.8
	L109.5,117.1 M116.4,95.4l0.6,0.4l2.6,1.3l0.2,0.3l0.3,0.4v0.7l-0.2,0.7l-0.3,0.5l-0.2,0.2l-0.4,0.4l-0.5,0.3l-0.5,0.2l-0.5,0.1
	l-0.3,0l-0.3-0.1l-0.5-0.3l-0.3-0.4l-0.2-0.4l-0.1-0.2v-0.2l-0.1-0.8v-0.3l0.2-1.6L116.4,95.4 M99.2,120.2l0.2-0.4l1.9,0.7l-0.3,0.2
	l-0.2,0.3l-0.6,1l-0.3,0.7l-0.2,0.8l0,0.4l0,0.1v1.7l-0.1,0.5l-0.1,0.1l0,0.1v0.2l-0.2,0.2l-0.4,0.3l-0.1,0.4l0,1.2v0.8v0.4v0.3v0.9
	v0.1l0.1,0.2l0.3,0.2l0.1,4.7l0.1,0.2l0.1,0.1l0,0.1l0.1,0.2h0l0.1,0.1l0,1.4l0,0l0.1,0.1l0.1,0.1l0.1,0.1v0.6v0.8l0.1,0.6l0.1,0.4
	l0.1,0.4l-1.9-0.4l-1.3-0.9l-0.2-0.4l0-1v-0.6l0.1-0.1l0.1-0.1l0-0.1v-0.1v-1.2l0.2-0.2l0.2-0.2V136l0-4.5l0.3-0.2l0.1-0.2v-0.3
	v-0.9v-0.3v-1.2l0-1.3v-0.1l-0.1-0.1l-0.1-0.1l-0.4-0.3v-0.1l-0.1-0.2l-0.4-0.9v-0.3l1.8-3.4L99.2,120.2z"/>
<path class="st1" d="M110.8,122l-0.2,0.1h-0.6l-0.9-0.2l-0.9-0.4l-0.8-0.4l1-1.4l0.2-0.3v0l-0.3-0.2l-0.2,0.3l-1.1,1.4l-2.8-1
	l-1.1-0.1l-0.4,0l-0.8,0.1l-0.4,0.2l-0.2,0.2l-1.9-0.7l-0.8-0.1l-0.6,0l-0.6,0.2l-0.2,0.1l-0.1,0.1l-0.1,0.2l-0.2,0.6l0,3l0,0h0.3
	l0,0l0-2.9l0.1-0.5l0.1-0.1l0.1-0.1l0.2-0.1l0.4-0.2h0.6l0.5,0.1l-0.1,0.2l-0.4,1.3l-1.8,3.4h0l0.2,0.1h0l1.8-3.5l0.4-1.2l0.1-0.3
	l1.5,0.6l-0.1,0.1l-0.3,0.3l-0.6,1.1l-0.3,0.7l-0.2,0.8l0,0.4l0,0.1l0,0l0.3-0.1v0v-0.1v-0.4l0.2-0.8l0.3-0.7l0.6-1l0.2-0.2l0.6-0.5
	l0.4-0.1l0.7-0.1l0.4,0l1,0.1l2.8,1l0.9,0.5l0.9,0.4l0.9,0.2l0.7,0l0.4-0.2l0.2-0.2l0.1-0.3l0.1-1.2h0H111l0,1.1l-0.1,0.2L110.8,122
	 M113.7,121.9l0-2h0l-0.3,0l0,0l0,2l-0.1,0.9l-0.3,1.1l-0.1,0.2l-0.1,0.1l-0.7,0.1l-0.6,0.1l-1.9-0.2l-4.2-1.7l-1.2-0.3l-0.6,0
	l-0.6,0.2l-0.2,0.1l-0.2,0.2l-0.1,0.2l-0.1,0.3l-0.1,0.3v0.8l0,0h0.3l0,0v-0.7l0.1-0.2l0.1-0.2l0.1-0.1l0.1-0.1l0.1-0.1l0.5-0.2h0.5
	l1.2,0.3l4.2,1.7l2,0.2l0.6,0l0.8-0.2l0.2-0.1l0.2-0.3l0.4-1.2L113.7,121.9 M133.2,86.4l-0.4,0.4l-0.2,0.6l0.1,0.6l-0.1,0.1
	l-0.2,0.2l-1.1,0.6l-0.1,0l-0.4,0.5v0.6l0.3,0.7l0.4,0.5l0.6,0.3l0.4,0h0.1l1.1-0.6h0.1l0.3-0.1l0.1,0l0.4,0.2l0.6,0.1l0.4-0.1h0.1
	l1.2-0.7l0.3-0.1h0.1l0.6-0.4l0.6-0.8l0.4-0.2l0.2-0.1l1.3-0.7L142,87l0.2-0.4l0-0.1c0.1-0.1,0.3-0.2,0.5-0.2
	c0.2-0.1,0.3-0.1,0.5-0.1c0.2,0,0.4,0,0.6,0.1c0.2,0.1,0.3,0.2,0.5,0.3c0.3,0.3,0.4,0.6,0.4,1.1c0,0.2,0,0.5-0.1,0.7l-0.1,0
	l-0.1,0.1l-1,1.6c-0.1,0-0.1,0.1-0.2,0.1l0,0c0,0.1,0,0.2,0,0.2c0,0.1,0,0.1,0,0.2l-0.1,0.3l-0.3,0.3l-1.3,1.7l-0.5,1.1l-0.2,1.1
	l0.1,1l1.2,8v2.1l-0.2,1.2l-0.4,1.6l-7.2,14.2l-0.4,0.9l-2.7,3.9l-2.7,3.1l-1.9,1.5l-1.1,0.6l-2.6,0.9l-2.2,0.4l-5.6,0.1l-6.4-0.6
	l-0.1-0.2l-0.2-0.1l-0.3-0.1l-0.1-0.2l-0.3-0.2l-0.3-0.1l-2.8-0.6l-0.7,0.3l-0.3,0.5l-0.6-0.2v-0.9l0.3-0.2l0.2-0.3l-0.1-4.2
	l-0.1-0.1l-0.1-0.1l-0.4-0.4l0-0.1l-0.1-0.3l-0.3-0.6l-0.3,0.2l0.1,0.1l-0.1,0.2l-0.1,0.1l-0.1,0.1l-0.5,0.1H101l-0.5-0.1l-0.1-0.1
	l-0.1-0.1h0l-0.2,0.2v0l0.1,0.1l0.2,0.1l0.5,0.2h0.7l0.6-0.2l0.2-0.1l0.1-0.2l0.1,0.1l-0.2,0.3l-0.2,0.1l-0.6,0.2h-0.7l-0.6-0.2
	l-0.1-0.1l-0.2-0.2l0.1-0.3l0-0.1l0.2-0.1l0,0L100,126l0,0v-0.1l-0.3-0.1l-0.2,0.7v0.2l-0.1,0.2l-0.4,0.3l-0.1,0.4v3.7l0.1,0.3
	l0.2,0.2l0.1,4.7l0.2,0.4l0.2,0.3l0,1.4l0.1,0.2l0.1,0.1l0.1,0.1v1.4l0.1,0.6l0.1,0.4v0.1l-1.6-0.4l-1.3-0.8l-0.1-0.4l0-1v-0.6
	l0.1-0.1l0-0.1l0-1.3l0.4-0.4l0-4.8l0.2-0.2l0.2-0.3v-2.7l0-1.3l0-0.2l-0.1-0.1l-0.1-0.1l-0.3-0.3l-0.2-0.6l-0.2-0.6h0l-0.3,0.1l0,0
	l0.1,0.3l-0.1,0h0l0,0.2l-0.1,0.1l-0.1,0.1l-0.5,0.1h-0.6l-0.5-0.1l-0.1-0.1l-0.1-0.1l0-0.1l-0.1-0.2h0l-0.3,0.1l-0.1,0.2l-0.1,0.1
	l0,0v0.1l-0.2,0.4l-0.3,0.3l-0.2,0.4l0,1.2v2.5l0.1,0.3l0.2,0.2l0.1,0.1l0.1,4.7l0.2,0.4l0.2,0.2v1.4l0.1,0.2l0.1,0.1l0.1,0.1v1.3
	l0.2,1.1l0.2,0.6l1.5,1.4l2.2,0.5l2,1.1l0.2,0.2l0.1,0.1l0,0.1L101,145l-0.1,0.1l-0.1,0.2l0,0v1.1l-0.3,0.1l-0.1,0.2l-0.1,0.3l0,0.7
	l0,0.1v2.7l0,0.3l0.1,0.2l-0.1,0.1l-0.2,0.3l-0.1,0.2v0.7l0.3,0.6v0.2l0,0l-0.2,0.3l-0.1,1l0.4,0.7l0.7,0.4H101l0,0v0.2l-0.1,0.1
	l0,0.2v1.9l0.3,0.5l0.5,0.3l0.8,0.1l0.7-0.1l0.6-0.4l0.2-0.4l0-1.9l-0.1-0.2l-0.1-0.1l0-0.2l0.7-0.4l0.4-0.7l0-0.6l-0.1-0.3
	l-0.1-0.3l-0.1-0.4l0.3-0.6l0-0.6l0-0.2l-0.1-0.2l-0.1-0.3l-0.2-0.2l0.1-0.1l0.1-0.4v-2.8l-0.1-0.3l-0.1-0.6l-0.1-0.4l-0.3-0.3
	l-0.2-0.1l0-0.7l0-0.2l0.1-0.1l-0.2-0.4l-0.2,0.1l-0.1-0.6l-0.2-0.5l0.8,0.2l2,1.1l0.1,0.2l0.1,0.2l0,0.1l-0.2-0.1l-0.1,0.1
	l-0.1,0.2v1.2l-0.2,0.1l-0.2,0.3l0,0.3v0.4l0,0.3l0,0.1v2.7l0,0.3l0.1,0.2l-0.1,0.1l-0.1,0.2l-0.1,0.3v0.7l0.3,0.6l0.1,0.2l0,0
	l-0.3,0.3l-0.1,0.4v0.6l0.4,0.7l0.7,0.4h-0.1l0,0v0.2l-0.1,0.1l0,0.2v1.9l0.3,0.5l0.5,0.3l0.8,0.1h0l0.7-0.1l0.6-0.4l0.2-0.4l0-1.9
	l-0.1-0.3l-0.1-0.1l0-0.2l0.7-0.4l0.4-0.7v-0.6l-0.1-0.1l0-0.2L110,154l-0.1,0v-0.3l0.3-0.6v-0.6l-0.1-0.4l-0.1-0.3l-0.2-0.2
	l0.1-0.1l0.1-0.4v-2.8l-0.1-0.3l-0.1-0.6l-0.1-0.3l-0.2-0.3l-0.3-0.1v-1l-0.1-0.4l0,0l-0.2,0.1l-0.1-0.6l-0.4-0.8l-0.7-0.7l-2.1-1.1
	l-1.9-0.5l-1.3-0.8l-0.1-0.4l0-0.9V139l0,0l0.1-0.3l0-1.3l0.4-0.4l-0.1-1.2l0.2,0.1h0.1l0.3,0.7l0.6,0.4h0.1l2.4,0.4h0.1l0.2,0.1
	l0.2-0.1l0.3-0.1l0.2-0.2l0.2,0.1l0.3-0.1l0.3-0.1l0,0l8.7,0.8l3.9-0.1l3.1-0.5l1.2-0.4l2.1-1l1.3-0.9l2.2-1.9l4.3-5.1l8.8-17.2
	l0.5-1.3l0.3-1.2l0.1-2.5l-0.4-3.9l-1.2-5.3l0-0.7l0-0.4l0.1-0.4l0.1-0.3l1.6-2.2l0.3-0.1h0.1c0.1,0,0.2,0,0.3,0
	c0.1,0,0.2-0.1,0.2-0.2l1.1-1.7l0-0.1l0-0.1c0,0,0-0.1,0-0.1c0-0.1,0-0.1-0.1-0.2c0-0.2,0.1-0.4,0.1-0.6c0-0.2,0.1-0.4,0.1-0.7
	c0-1.4-0.5-2.7-1.5-3.7c-1-1-2.2-1.5-3.7-1.5c-0.3,0-0.6,0-0.8,0.1c-0.3,0-0.5,0.1-0.8,0.2l-0.3-0.1l-0.4-0.1l-0.4,0.1l-2.4,1.4
	l-0.2,0.2l-0.3,0.2h-0.4l-0.7,0.1l-0.6,0.3l-1,0.5L133.2,86.4L133.2,86.4 M133.3,87.3l0.1-0.1l0.5,0l0.7,0.4l0.6,0.7l0.4,0.9l0,0.8
	l-0.3,0.4l-0.1,0l-0.2,0l-0.3,0.1l-0.1-0.1l0.5-0.3l0.4-0.5l0-0.6l-0.3-0.7l-0.5-0.6l-0.5-0.4l-0.4,0.1l-0.6,0.3l0-0.2L133.3,87.3
	 M133.8,86.7l-0.1-0.1l0.2-0.1l0.6,0l0.6,0.4l-0.2,0.1L133.8,86.7 M131.7,89l0.9-0.5l0.2,0l0.4,0.3l0.4,0.5l0.2,0.6v0.5l-0.1,0.1
	l-0.9,0.5v-0.4l-0.3-0.6l-0.4-0.6L131.7,89 M133.8,87.8l0.3,0l0.4,0.2l0.4,0.5l0.2,0.6l0,0.5l-0.1,0.1l0-0.4l-0.3-0.7l-0.4-0.6
	L133.8,87.8 M133.8,88.3l-0.3-0.2h0.1l0.4,0.2l0.4,0.5l0.2,0.6v0.4l-0.1,0.2v-0.5l-0.3-0.7L133.8,88.3 M133.1,88.3h0.1l0.4,0.2
	L134,89l0.2,0.6v0.5v0v-0.3l-0.3-0.7l-0.5-0.6L133.1,88.3 M132,89.6l0.4,0.4l0.2,0.5V91l-0.1,0.1h-0.2l-0.4-0.2l-0.4-0.4l-0.2-0.6
	v-0.4l0.1-0.1h0.2L132,89.6 M139.7,83.8l0.3-0.1l0.3,0l0.3,0.1l0.7,0.6l0.5,0.8l0.2,0.9l-0.1,0.4l-0.1,0.3l-0.4,0.3l0.1-0.4l-0.2-1
	l-0.5-0.9l-0.1-0.1v0l0,0l-0.6-0.5l-0.4-0.2L139.7,83.8 M138.5,84.6l-0.1-0.1l0.3-0.2L138.5,84.6 M137.9,84.8L137.9,84.8l0.1-0.1
	l0.3,0.1l-0.1,0.1L137.9,84.8 M137.6,85.4l-0.4-0.2l-0.1,0l0.1-0.1l0.2,0l0.3,0l0.3,0.1l0.2,0.2l0.4,0.3l0.1,0.1l0.4,0.6l0.1,0.2
	l0.2,0.8v0l-0.1,0.4l-0.1,0.3l-0.1,0.1l-0.1,0l0.1-0.5l-0.2-0.9l-0.5-0.9L137.6,85.4 M138.4,85.2l0.1-0.2l0.3,0.1l-0.2,0.3
	L138.4,85.2 M139,84.4l0.3,0.1l-0.2,0.3l-0.3-0.1L139,84.4 M138.9,85.6l0.3-0.4l0.4,0.1l-0.4,0.5l-0.1-0.1L138.9,85.6L138.9,85.6
	 M139.8,85l-0.4-0.1l0.2-0.3l0.4,0.1L139.8,85 M136,85.6L136,85.6h0.2l0.5,0.3l-0.2,0.1l-0.5-0.1l-0.5-0.2l-0.1-0.1l0.3-0.1
	L136,85.6L136,85.6 M136.8,85.6h0.1l0.3,0l0.3,0.1l0.6,0.6l0.4,0.8l0.2,0.8l-0.1,0.4l-0.1,0.2l-0.1,0.1l0-0.5l0,0l-0.5-1.2l-0.6-0.9
	l-0.1-0.1L136.8,85.6 M136.2,86.7l0.6,0.7l0.1,0.1l0.3,0.9l0,0.8l-0.3,0.5v0l0.2,0.1l-0.2,0.1l-0.1,0.1l0.1-0.1l0-0.8l0.2-0.3l0-0.6
	l-0.3-0.7l-0.4-0.5l-0.4-0.3l-0.4-0.1l-0.5-0.3l0.5,0L136.2,86.7 M135.9,87.1l0.1,0.1l0.4,0.4l0.2,0.6v0.2l-0.3-0.8L135.9,87.1
	 M136.7,86.3l0.3-0.2l0.6,0.8l0.4,1l-0.3,0.1l-0.4-0.4l-0.2-0.3l-0.2-0.4L136.7,86.3 M134.6,86.1l0.3-0.1v0.3L134.6,86.1
	 M135.2,87.4l-0.1-0.2l0.3-0.1l0.6,0.8l0.4,0.9l-0.3,0.1l-0.4-0.4l-0.4-0.7L135.2,87.4 M136.3,89.2l0.2-0.1l0,0.7l-0.3,0.5l-0.3,0.1
	v-0.2l0.1-0.5L136.3,89.2 M140,86.1l-0.5-0.2l0.4-0.5l0.5,0.2L140,86.1 M139.3,86.3L139.3,86.3l0.5,0.1l-0.3,0.4l-0.1-0.2
	L139.3,86.3 M139.6,87.2l0.5,0.1l-0.1,0.1l-0.3-0.1L139.6,87.2 M137.6,88.9l0.2-0.5l0.3-0.1l0,0.6l-0.2,0.1l0,0h0.1l-0.3,0.4
	l-0.3,0.2v-0.2L137.6,88.9 M139.7,88l0-0.2h0.1L139.7,88 M141,83.7c0.2-0.1,0.4-0.1,0.6-0.1c0.2,0,0.4,0,0.6,0
	c1.3,0,2.5,0.5,3.4,1.4c0.9,1,1.4,2.1,1.4,3.5l0,0.5l0,0.5c-0.1-0.1-0.2-0.2-0.4-0.3c-0.1-0.1-0.3-0.2-0.5-0.3
	c-0.2-0.1-0.5-0.2-0.6-0.3c-0.2-0.1-0.4-0.1-0.5-0.1c0.1-0.2,0.1-0.5,0.1-0.7c0-0.5-0.2-0.9-0.5-1.3c-0.4-0.4-0.8-0.5-1.3-0.6
	c-0.3,0-0.7,0.1-1,0.3l-0.2-0.9l-0.5-0.9L141,83.7 M140.3,84.9L140.3,84.9l0.3,0.4l-0.5-0.2L140.3,84.9 M140.4,86.2l0.4-0.5l0.1,0
	l0.1,0.5l-0.1,0.1L140.4,86.2 M140.6,86.7l-0.3,0.4l-0.4-0.1l0.3-0.4L140.6,86.7 M140.8,87.3l-0.2-0.1l0.3-0.4h0l0,0.3L140.8,87.3
	 M140.5,87.5l-0.2,0.1L140.5,87.5L140.5,87.5 M144.7,88.7L144.7,88.7L144.7,88.7l0.1,0h0.1l0.2,0.1l0.3,0.1L146,89
	c0.3,0.2,0.5,0.3,0.6,0.4c0.2,0.1,0.3,0.3,0.4,0.4l0,0.1V90v0l-0.9,1.3c0-0.1-0.1-0.2-0.2-0.2c-0.1-0.1-0.2-0.2-0.3-0.2l-0.3-0.2
	l-0.3-0.2c-0.2-0.1-0.5-0.2-0.7-0.3c-0.2-0.1-0.3-0.1-0.5-0.1L144.7,88.7 M143.6,90.4l0.1,0l0.1,0l-0.2,0.2c0,0,0-0.1,0-0.1
	L143.6,90.4L143.6,90.4L143.6,90.4 M144,90.4c0.1,0,0.2,0.1,0.4,0.1c0.1,0.1,0.3,0.1,0.5,0.2c0.2,0.1,0.4,0.3,0.6,0.4
	c0.2,0.1,0.3,0.2,0.3,0.3c0.1,0.1,0.1,0.2,0.1,0.2c0,0,0,0.1,0,0.1l-0.1,0l-0.1,0l-0.1,0l0.2-0.2l0,0l-0.2-0.2h0l-2.1,3l-0.2,0.4
	l-0.1,0.5l-0.1,0.5l0,0.8l1.2,5.3l0.4,3.9l-0.1,2.4l-0.3,1.2l-0.5,1.3l-8.8,17.1l-4.3,5l-2.1,1.9l-1.3,0.9l-2,1l-1.2,0.4l-3,0.5
	l-3.8,0.1l-8.5-0.8h-0.1l-0.1-0.1h0l-0.1,0.1l-0.2-0.1l-0.2-0.3l-0.2-0.4v-0.5l0.1-0.5l0.2-0.3l0.1,0l6.9,0.6l5.6-0.1l2.2-0.4
	l2.6-0.9l1.1-0.6l2-1.6l2.8-3.1l2.7-4l0.4-0.9l7.2-14.2l0.5-1.6l0.2-1.3l0-2.1l-1.2-8l-0.1-1l0.2-1l0.5-1l1.3-1.7l0.3-0.3l0.5-0.4
	l0.2-0.3v0l-0.2-0.1L144,90.4 M103,127.4l0.1,0.1l0.1,0.2l0,0.4l-0.4,0.4l-0.9,0.3h-1l-0.9-0.3l-0.5-0.4l0-0.4l0.1-0.1l0,0.3
	l0.1,0.2l0.2,0.2l0.3,0.2l0.7,0.2h0.9l0.8-0.2l0.3-0.2l0.2-0.3L103,127.4 M102.3,127.4l0.2-0.1l0.1-0.1l0,0.6l-0.1,0.1l-0.2,0.1
	l-0.7,0.2h-0.7l-0.7-0.2L100,128l-0.1-0.1l-0.1-0.1v-0.3v-0.2l0.1,0.1l0.2,0.1l0.7,0.2h0.8L102.3,127.4 M102.8,128.8l0.3-0.3l0,0.3
	l-0.1,0.2l-0.2,0.2l-0.3,0.2l-0.8,0.3l-0.1,0h-1l-0.8-0.2l-0.1-0.1l-0.2-0.1l-0.4-0.5v-0.4l0.4,0.4l1,0.4h1.1L102.8,128.8
	 M99.2,129.4l0.1,0.1l0.1,0.2l-0.1,0l-0.1-0.2L99.2,129.4 M100.7,130l0.4,0l0.1,0.3l-0.7,0.4l-0.2-0.4L100.7,130 M100,129.8l0.3,0.1
	L100,130L100,129.8L100,129.8 M100,130.9l-0.2-0.4l0.1,0L100,130.9L100,130.9 M100.7,131.2l-0.1-0.2l0.7-0.4l0.2,0.3l-0.6,0.3H100.7
	L100.7,131.2 M99.5,130.1L99.5,130.1l0.2,0.1l-0.1,0.1L99.5,130.1 M99.3,131l0.4,0.2l1,0.3h1.1l1-0.3l0.4-0.3v0.2l-0.1,0.2l-0.2,0.2
	l-0.2,0.1l-1,0.3h-1l-0.9-0.3l-0.3-0.1l-0.2-0.3l-0.1-0.2v-0.4L99.3,131 M100.1,132.4l-0.3-0.2l0-0.1l0.9,0.3h1.1l0.7-0.2l0,0
	l-0.2,0.2l-0.7,0.2h-0.8L100.1,132.4 M99.9,132.7l0.8,0.3h0.9l0.8-0.2l0.3-0.2v0.6l-0.3,0.8l-0.1,1.1l0.3,0.5l0.1,1.1l-0.1,0.4
	l-0.2,0.1l-0.7,0.2h-0.8l-0.7-0.2l-0.2-0.1l-0.1-0.1l-0.1-0.1l-0.1-0.2l-0.1-4.1L99.9,132.7 M103,130.6L103,130.6l0,0.2l-0.2,0.2
	l-0.1-0.2L103,130.6 M103.2,130l-0.1,0.1l-0.3-0.4h0.1l0.4-0.3V130 M102.5,130.4l-0.2-0.3l0.2-0.1l0.2,0.3L102.5,130.4 M101.8,130.8
	l-0.2-0.3l0.4-0.2l0.2,0.3L101.8,130.8 M102.4,131l-0.4,0.1l0-0.1l0.4-0.2L102.4,131 M104.7,132.8l0.1,0L104.7,132.8l-0.4,0.8
	l-0.3,1l0,0.1l0,0.9v0.1l0.2,0.5l0.1,0.3l-0.4-0.3l-0.3-0.7l0-1l0.2-0.9l0.1,0l0.4-0.6L104.7,132.8 M105.6,133.1L105.6,133.1l0.4,0
	l-0.1,0.1l-0.1,0.2L105.6,133.1 M97.3,126.7L97.3,126.7v0.6l-0.1,0.2l-0.2,0.1l-0.7,0.2h-0.8l-0.7-0.2l-0.1-0.1l-0.2-0.3V127v-0.3
	l0.2,0.2l0.7,0.2h0.8L97,127L97.3,126.7 M96.8,126.3l0.2-0.1l0.1-0.2l0.1,0.2l-0.1,0.1l-0.1,0.1l-0.2,0.1l-0.6,0.2h-0.7l-0.6-0.2
	l-0.4-0.4v-0.1l0.1-0.1l0-0.1l0.1,0.1l0.1,0.1l0.6,0.2h0.7L96.8,126.3 M97.8,127.2v0.4l-0.5,0.4l-0.9,0.3h-1l-0.9-0.3l-0.5-0.4
	l0-0.4l0.1-0.1l0,0.4l0.3,0.4l0.2,0.1l0.8,0.3h0.9l0.8-0.2l0.3-0.2l0.2-0.3l0-0.1l0-0.4l0.1,0.1L97.8,127.2 M95.3,128.7h1.1l1-0.4
	l0.4-0.3v0.4l-0.1,0.1l-0.2,0.2l-0.3,0.2l-0.7,0.3l-0.1,0h-1l-0.9-0.3l-0.2-0.2l-0.4-0.4l0-0.4l0.4,0.4L95.3,128.7 M97.6,129.3
	l0.3-0.2v0.5l-0.1,0L97.6,129.3 M94,129.3l-0.1-0.1v-0.2L94,129l0,0l0.1,0.2L94,129.3 M94.6,129.4l0.2,0.1l-0.2,0.1L94.6,129.4
	L94.6,129.4 M95.1,130.3l-0.2-0.4l0.5-0.3l0.4,0l0.1,0.3L95.1,130.3 M94.2,129.6l0.1-0.1l0.1,0.2l-0.1,0.1L94.2,129.6 M94.3,131.2
	L94.3,131.2l-0.4-0.5v-0.4l0.1,0.1l0.4,0.2l1,0.4h1.1l1-0.3l0.4-0.3v0.3l-0.1,0.1l-0.2,0.2l-0.2,0.1l-0.1,0.1l-0.9,0.3h-1l-0.9-0.3
	L94.3,131.2 M94.8,130.4l-0.1,0.1l-0.2-0.4l0.1-0.1L94.8,130.4 M94.8,132l-0.2-0.2l0-0.1l0.9,0.3h1.1l0.7-0.2l0,0l-0.2,0.1l-0.7,0.2
	h-0.8L94.8,132 M94.3,132l0.3,0.3l0.8,0.3h0.9l0.8-0.2l0.3-0.2l0,4l-0.1,0.4l-0.2,0.2l-0.7,0.2h-0.8l-0.7-0.2l-0.1-0.1l-0.2-0.3
	l-0.1-0.2L94.3,132 M97.6,130l0.1,0.1l-0.1,0.1l-0.2,0.1l-0.1-0.2L97.6,130 M97.5,129.8l-0.3,0.2l-0.2-0.3l0.3-0.2L97.5,129.8
	 M97,130.4l0.1,0.1l-0.4,0.1l0-0.1L97,130.4 M96.3,130l0.3-0.2l0.2,0.3l-0.4,0.2L96.3,130 M95.4,130.8L95.4,130.8l-0.2-0.2l0.8-0.4
	l0.1,0.3l-0.6,0.3H95.4 M94.7,138.1V137l0.6,0.2h0.9L97,137v0.9l-0.2,0.3l-0.2,0.1l-0.5,0.1h-0.6l-0.5-0.1L94.7,138.1L94.7,138.1
	 M95,139.1v-0.4l0.4,0.1h0.7l0.6-0.2l0,0v0.3l0,0.1l-0.2,0.2l-0.4,0.1h-0.5l-0.5-0.1L95,139.1 M95,139.6L95,139.6l0.6,0.2h0.6
	l0.6-0.2l0.1-0.1v0.6l0.2,0.5l1.4,0.9l1.9,0.5l0.1,0.1l1.5,1.4l1.1,0.5l0.2,0.4l0.1,0.8v0.1l-0.1,0.1l-0.1,0.1l-0.4,0.1h-0.5
	l-0.4-0.1l-0.1-0.1l-0.1-0.1l0-0.1l-0.1-0.3l-0.1-0.2l-0.2-0.3l-2.2-1.1l-2.1-0.5l-1.4-1.3l-0.2-0.5l-0.2-1V139.6 M108.2,134
	l-0.1,0.1l-0.1,0L108.2,134 M108.3,134L108.3,134l-0.1,0L108.3,134L108.3,134 M107.4,133.8l0.4,0.1l-0.4,0.5l-0.3,0.9l0,0.8l0.2,0.6
	l-0.2-0.1l-0.1,0l-0.3-0.2l-0.2-0.5l0-0.7l0.2-0.7l0.3-0.4L107.4,133.8 M107.4,133.3l0.2,0.1l0.1,0.1l-0.4-0.1l-0.4,0.2l0.1-0.1
	L107.4,133.3 M107.9,134.2l-0.2,0.3l-0.2,0.7l0,0.6l0.2,0.4l0.1,0.2l-0.1-0.1l-0.2-0.5l0-0.7l0.2-0.7L107.9,134.2 M106.1,133.4
	l0.5-0.2l0.1,0l-0.5,0.7l-0.3,1.1l0,1.1l0.3,0.7l-0.2,0l-0.3-0.2l-0.3-0.7v-1l0.2-0.9L106.1,133.4 M105.3,133.3l0.2,0.2l-0.1,0.1
	l-0.2-0.2L105.3,133.3 M104.8,134l-0.2-0.2l0.3-0.2l0.2,0.2L104.8,134 M104.7,134.9l-0.2-0.2l0.3-0.2l0.2,0.2L104.7,134.9
	 M105.2,134.4l-0.2-0.2l0.3-0.2L105.2,134.4 M105.1,135.8L105.1,135.8l0.3,0.7l-0.5-0.5L105.1,135.8 M104.5,135.1l-0.1,0.1v-0.3
	L104.5,135.1 M104.7,135.3l0.2,0.2l-0.3,0.2l-0.2-0.2L104.7,135.3 M104.6,136.3l-0.1-0.1l0.1,0l0.3,0.4L104.6,136.3 M105.1,135.3
	l-0.1-0.2l0.1-0.1V135.3 M106.6,136.7l0-0.1l0.3,0.2l0.1,0.1h0.1l0.2,0l-0.1,0H107h-0.1L106.6,136.7 M103,133.4l0.5,0.1l-0.3,1v0.9
	l-0.2,0h0v0.1l0-0.1l-0.3-0.4l0.1-0.9L103,133.4 M100,138.6v-1.1l0.7,0.3h0.9l0.7-0.2v1l-0.1,0.1l-0.1,0.1l-0.2,0.1l-0.5,0.2h-0.6
	l-0.5-0.2L100,138.6L100,138.6 M100.3,139.6v-0.3l0.4,0.2h0.7l0.6-0.2v0.4l-0.1,0.1l-0.1,0.1l-0.4,0.1H101l-0.5-0.1L100.3,139.6
	L100.3,139.6 M100.3,140.4V140l0,0l0.5,0.2h0.6l0.6-0.1l0.1-0.1l0,0.6l0.2,0.5l1.4,0.9l1.9,0.5l1.9,1.1l0.6,0.6l0.4,0.7l0.1,0.8
	l0,0.1l-0.1,0.1l-0.1,0.1l-0.4,0.1h-0.5l-0.4-0.1l-0.1-0.1l-0.1-0.1l0-0.1l-0.1-0.3l-0.1-0.3l-0.2-0.2l-2.2-1.1l-2.1-0.5l-1.4-1.3
	l-0.2-0.5l-0.1-0.4L100.3,140.4 M101.2,145.4L101.2,145.4L101.2,145.4l0.2,0.2l-0.1-0.1L101.2,145.4 M101.2,146.2l0-0.1v-0.2
	l0.1,0.1l0.7,0.2h0.8l0.7-0.2l0.2-0.2v0.2l0,0.1l-0.1,0.1l-0.2,0.1l-0.6,0.2h-0.6l-0.6-0.2l-0.2-0.1L101.2,146.2 M101.2,146.8v-0.1
	l0.1,0.1l0.7,0.2h0.8l0.7-0.2l0.2-0.2v0.1l0,0.1l-0.1,0.1l-0.2,0.1l-0.6,0.2h-0.6l-0.6-0.2l-0.1-0.1l-0.1-0.1L101.2,146.8
	 M100.8,147.1l0.1-0.1L100.8,147.1l0.2,0.2l0,0.1l0.1,0.3l0.2,0.1l-0.2-0.1l-0.4-0.4L100.8,147.1 M103.5,145.6L103.5,145.6
	L103.5,145.6L103.5,145.6 M103.8,147.5l0-0.2l0.1-0.2l0.1-0.2l0.1,0.1l0,0.4l-0.4,0.4l-0.8,0.3h0l0.5-0.2l0.2-0.1L103.8,147.5
	 M106.5,145.8l0.1,0.1l0.1,0.2l-0.1-0.1L106.5,145.8L106.5,145.8 M106.6,146.8l-0.1-0.1l0-0.2v-0.2l0.1,0.1l0.7,0.2h0.8l0.7-0.2
	l0.1-0.1v0.2l0,0.2l-0.1,0.1l-0.2,0.1l-0.6,0.2h-0.6l-0.6-0.2L106.6,146.8 M106.5,147.3v-0.1l0.2,0.1l0.6,0.2h0.8l0.7-0.2l0.1-0.1
	v0.1l0,0.2l-0.1,0.1l-0.1,0.1l-0.6,0.2h-0.6l-0.6-0.2l-0.1-0.1l-0.1-0.1L106.5,147.3 M106.2,147.5l0.1,0.2l0,0.1l0.1,0.3l0.2,0.1
	l-0.2-0.1l-0.4-0.4l-0.1-0.3l0.1-0.1L106.2,147.5 M108.9,145.9L108.9,145.9l-0.1,0.2L108.9,145.9 M109.1,147.7l0.1-0.2l0.1-0.2
	l0.2,0.1l-0.1,0.4l-0.4,0.4l-0.8,0.3h-0.1l0.6-0.2l0.2-0.2l0.2-0.2L109.1,147.7 M109.6,148.4l-0.1,0.1l-0.1,0.2l-0.3,0.2l-0.9,0.3
	h-1l-0.8-0.3l-0.4-0.2l-0.2-0.3v-0.1l0-0.2l0.4,0.4l0.9,0.3h1l0.9-0.3l0.4-0.4L109.6,148.4 M109.4,149.4l-0.1-0.1l0.3-0.2v0.2
	L109.4,149.4 M109,149.3l0.1,0.3l-0.2,0.2l-0.1-0.4L109,149.3 M108.3,149.6l0.1,0l0.2,0.5l-0.3,0.2l-0.2-0.6l0.1-0.1H108.3
	 M107.4,150.3l0.4-0.4l0.2,0.5l-0.4,0.4L107.4,150.3 M107.4,151.1L107.4,151.1l-0.5-0.1l-0.1-0.1l0.4-0.3L107.4,151.1 M108.6,150.9
	l-0.1-0.3l0.3-0.2l0.1,0.3L108.6,150.9 M108.2,150.8l0.1,0.3h-0.1h-0.4L108.2,150.8 M109.6,149.9l-0.1-0.2l0.1-0.1V149.9 M109,150.1
	l0.2-0.2l0.1,0.3l-0.2,0.2L109,150.1 M109.6,151.1l-0.1,0.3l-0.1,0.2l-0.3,0.2l-0.9,0.3h-1l-0.8-0.3l-0.3-0.2l-0.2-0.3v-0.3v-0.3
	l0.3,0.2l0.9,0.4h1.1l1-0.3l0.4-0.3V151.1 M107.7,149.6l-0.4,0.4l-0.2-0.4l0.1,0.1L107.7,149.6 M106.2,149.5l0.2-0.2l0.2,0.1
	l-0.4,0.3L106.2,149.5 M104.3,149.1v0.3V149.1L104.3,149.1 M104.3,148.6L104.3,148.6l0,0.1l-0.2,0.2l-0.1-0.1L104.3,148.6
	 M104.3,150.4v0.2l-0.1,0.3l-0.1,0.2l-0.3,0.2l-0.9,0.3H102l-0.9-0.3l-0.3-0.2l-0.2-0.3v-0.3v-0.2l0.3,0.2l0.1,0.1l0.6,0.2l-0.1,0.1
	v0h1.3l0.2,0h0l0.1-0.1l0.8-0.3v0L104.3,150.4 M106.8,149.7l0.2,0.5l-0.4,0.3l-0.2-0.4L106.8,149.7 M106,150.4l0.2-0.1l0.2,0.5h0
	l-0.2-0.1L106,150.4 M105.9,149.8L105.9,149.8l0.1,0.1l-0.1,0.1V149.8 M106,152.2L106,152.2l-0.3,0.1l0-0.1l0.1-0.2l0.1-0.1l0.3,0.2
	l0.2,0.1l0.1,0.4l0.5,0.3l0.7,0.1l0.6-0.1l0.4-0.2l0.3-0.3v0l-0.2-0.1l0.3-0.1l0.2-0.2l0.1,0.1v0.1l-0.2,0.4l-0.6,0.4l-0.9,0.1
	l-0.9-0.1l-0.6-0.4L106,152.2 M106.9,152.5L106.9,152.5l0.3,0h1.1l0.6-0.2l-0.2,0.2l-0.3,0.1l-0.5,0.1l-0.6-0.1L106.9,152.5
	 M104.5,152.4l0.1-0.1v0.3l-0.2,0.5l-0.1,0.1l-0.1-0.1l0,0l0,0.2l-0.3,0.1l-0.1-0.1v0v-0.1l0.3-0.4L104.5,152.4 M104.3,151.7
	L104.3,151.7l-0.2,0.5l-0.6,0.4l-0.9,0.1l-0.9-0.1l-0.6-0.4l-0.2-0.5l0,0l-0.2,0.1l0.1-0.2l0.1-0.1l0.3,0.2l0.3,0.1l-0.1,0.1
	l0.2,0.4l0.5,0.2l0.7,0.1l0.6-0.1l0.5-0.2l0.3-0.3v0l-0.2-0.1l0.3-0.1l0.2-0.2L104.3,151.7 M105.7,153v-0.3l0.1,0.1l0.6,0.7
	l-0.2,0.1l-0.3-0.1L105.7,153 M104.5,154.5l0.1-0.1v0.3l-0.2,0.5l-0.6,0.3v-0.3l0.3-0.4L104.5,154.5 M106.9,153.9v-0.3l0.6-0.1h0.8
	l0.6,0.1l0,0.3l-1,0.1L106.9,153.9 M106.2,154.1l0.2,0.1l0,0.1l0,0.3l0.1,0.4l0.5,0.3l0.7,0.1l0.6-0.1l0.5-0.3l0.3-0.4l0-0.4
	l0.2-0.1l0.2,0.3v0.1l-0.2,0.4l-0.6,0.4l-0.9,0.1l-0.9-0.1l-0.6-0.4l-0.2-0.4v-0.1l0.1-0.2L106.2,154.1 M107.2,154.9l-0.1-0.1
	l0.7,0.1l0.6-0.1l0.3-0.2l0,0.1l-0.4,0.2l-0.6,0.1L107.2,154.9 M107.2,154.5l-0.3-0.2l0.9,0.1l0.8-0.1l-0.3,0.2l-0.6,0.1
	L107.2,154.5 M105.7,155l0.1,0.1l0.4,0.4l0.3,0.4v0.2l-0.5-0.3l-0.3-0.5V155 M109.9,152.7v0.3l-0.3,0.5l-0.3,0.1l-0.1-0.1l0,0
	l0.1,0.1l-0.1,0.1v-0.3l0.3-0.4l0.4-0.4L109.9,152.7 M109.8,155l0.1-0.1v0.3l-0.3,0.5l-0.5,0.3v-0.2l0.3-0.4L109.8,155 M104.1,148.3
	l-0.3,0.2l-0.7,0.2l-0.2,0.1H102l-0.9-0.3l-0.3-0.2l-0.1-0.2v-0.3l0.4,0.4l0.9,0.3h1l0.9-0.3l0.4-0.4l0.1,0.2l-0.1,0.1L104.1,148.3
	 M102.8,149.1h0.1l0.1,0l0.2,0.5l-0.3,0.2L102.8,149.1L102.8,149.1 M103.8,149.1l-0.2,0.2l-0.1-0.4l0.3-0.1L103.8,149.1 M102,149.5
	l-0.2-0.4l0.1,0.1l0.5,0L102,149.5 M102.3,150.4l-0.2-0.6l0.4-0.4l0.2,0.6L102.3,150.4 M101.5,150.3l0.4-0.3l0.2,0.6l-0.1,0
	l-0.5-0.1L101.5,150.3 M101.7,149.7l-0.4,0.3l-0.2-0.5l0.4-0.3L101.7,149.7 M103.8,150l-0.1-0.4l0.2-0.2l0.1,0.4L103.8,150
	 M103.2,150.1l0.3-0.2l0.1,0.3l-0.3,0.2L103.2,150.1 M103,150.6L103,150.6h-0.5l0.4-0.3L103,150.6 M100.9,149.1l0.2-0.2l0.2,0.1
	l-0.4,0.3L100.9,149.1 M100.7,149.9l0.2-0.1l0.2,0.5l0,0l-0.2-0.1L100.7,149.9 M100.9,152.7l0.3,0.4v0.2l-0.5-0.3l-0.3-0.5v-0.3
	l0.1,0.1L100.9,152.7 M100.8,153.7l0.1-0.1l0.1,0.1l0,0.1l0,0.4l0.2,0.4l0.5,0.2l0.7,0.1l0.6-0.1l0.5-0.3l0.3-0.4l0-0.4l0.3-0.1
	l0.1,0.4l-0.2,0.4l-0.6,0.4l-0.9,0.1l-0.9-0.1l-0.6-0.4l-0.2-0.4v-0.1L100.8,153.7 M100.4,154.7v-0.3l0.1,0.1l0.4,0.4l0.3,0.4v0.2
	l-0.5-0.3L100.4,154.7 M103.4,152.1l-0.4,0.2l-0.5,0.1l-0.6-0.1l-0.4-0.2l-0.1-0.1l0.4,0.1h1.1l0.6-0.2L103.4,152.1 M103.2,153.1
	l0.2,0.1v0.3l-0.9,0.1l-0.9-0.1v-0.3l0.2-0.1l0.3-0.1h0.8L103.2,153.1 M101.9,154l-0.3-0.2l0.9,0.1l0.8-0.1L103,154l-0.6,0.1
	L101.9,154 M101.9,154.4l-0.4-0.2l0-0.1l0.3,0.1l0.7,0.1l0.6-0.1l0.3-0.2l0,0.1l-0.4,0.2l-0.6,0.1L101.9,154.4 M103.4,155.4v0.3
	l-0.9,0.1l-0.9-0.1v-0.3l0.5-0.1h0.8L103.4,155.4 M103.4,156.7l-0.4,0.2l-0.6,0.1l-0.6-0.1l-0.4-0.2l-0.1-0.1l0.4,0.2l0.7,0.1
	l0.6-0.1l0.4-0.2L103.4,156.7 M102.9,156.4l0.4-0.2l0.1,0l0,0.1L102.9,156.4l-0.5,0.1l-0.6-0.1l-0.4-0.2l0,0l0,0l0.5,0.2l0.5,0
	L102.9,156.4 M101.7,157.4l0.8,0.1l0.7-0.1l0.5-0.3v1.1l-0.1,0.3l-0.4,0.3l-0.7,0.1l-0.6-0.1l-0.4-0.2l-0.1-0.3v-1.1L101.7,157.4
	 M108.8,155.9l0,0.3l-1,0.1l-0.9-0.1v-0.3l0.2-0.1l0.4-0.1h0.4h0.4L108.8,155.9 M107.3,156.8l0.5,0.1l0.5-0.1l0.4-0.1l0.1-0.1l0,0.1
	l-0.4,0.2l-0.6,0.1L107.3,156.8l-0.5-0.1l0,0l0,0L107.3,156.8 M107.8,158l0.8-0.1l0.5-0.3v1.1l-0.1,0.3l-0.4,0.3l-0.6,0.1l-0.7-0.1
	l-0.4-0.2l-0.1-0.3v-1.1l0.4,0.2L107.8,158 M107.8,157.3l0.6-0.1l0.4-0.2l-0.1,0.1l-0.4,0.2l-0.6,0.1l-0.6-0.1l-0.4-0.2l-0.1-0.1
	l0.3,0.2L107.8,157.3 M141.5,2.5c-0.2-0.2-0.5-0.4-0.7-0.5c-0.2-0.1-0.4-0.2-0.6-0.3c-0.2-0.1-0.3-0.1-0.5-0.1c-0.1,0-0.3,0-0.4,0.1
	l-0.5,0.6h0c-0.1,0-0.3,0-0.4,0.1l-1.1,1.2c-0.1,0-0.2,0.1-0.2,0.1c-0.1,0.1-0.1,0.3-0.1,0.5l-1.7,1.7l-0.1,0l-0.1,0.1l0,0
	c-0.1,0.1-0.1,0.2-0.1,0.2c0,0.1,0,0.2,0,0.3L135,6.8L134,8c-0.1,0-0.1,0-0.2,0.1c-0.1,0.1-0.1,0.3-0.1,0.5l0,0.1l-2.5,2.3l-1.8,2.1
	l-0.9,1.7l-0.5,1.6l0,2.2l-0.1,0.6l-0.4,1.2l-1.4,2.2l-1.7,2c-0.1,0-0.2-0.1-0.4-0.1c-0.1,0-0.2,0.1-0.3,0.1l-1.5,1.5l-1.4-0.9
	l-4.5,4.5l-0.1,0.1l-0.3,1.7v0.1l0.4,1.3l-0.1,0c-0.1,0-0.3,0-0.4,0.1l-1.4,1.5c-0.1,0.2-0.2,0.3-0.1,0.5c0,0.2,0.1,0.3,0.2,0.4
	l-0.2,0.2l0,0c0,0-0.1,0.1-0.1,0.1c0,0,0,0.1,0,0.2c0,0.1,0,0.1,0,0.2l0.1,0.4l-2.8,4.6l-1.4,4l-1.2,5.6l-0.2,4.5l0.1,2.7l1.5,6.8
	l4.5,12.2l0.6,3.2l0.1,1.6l-1,7.9l-2.8-2.9l-3.8-6.1l-1.5-1.4l-2.2-1.7l-2-1.1l-0.1-0.6c-0.1-0.4-0.3-0.6-0.5-0.8l-2-1.2h-0.1
	c-0.1,0-0.2,0-0.3-0.1l-3.5-1h-0.5l-0.6,0.1l-0.7,0.4L93,74l-0.2,0.4l-0.1,0.3l-0.1,0.3v2l-0.2-0.1l-2.6,1.6l-1.3,0.9v7.4l1,0.6v5.4
	l0.1,1.4c0,0.3,0.2,0.5,0.6,0.7l0.2,0.1l0.3,1.9l-0.3,0.1L90,96.8h0l-0.1,0.1v0L90,97l-0.1,0.1l-0.6,0.1l-0.6,0.3l-0.1,0l-0.4,0.4
	L88,98.5l0.1,0.4L88,99.1L88,99.1l-0.2,0.2l-1.1,0.6l-0.1,0l-0.4,0.5l0,0.6l0.3,0.6l0.4,0.6l0.6,0.3l0.4,0H88l1.1-0.6l0.1,0l0.4-0.2
	l0.4,0.2l0.1,0.1l0.6,0.1l0.4-0.1h0.1l0.6-0.4l0.2-0.2l0-0.1l1.2,2.6l3,4.1l0.3,0.9l1,4.5l0.1,1.2l-0.1,2l-0.1,0.6v0.1l-0.3,0.1
	l-0.4,0.1l-0.7,0.4l-0.3,0.3l-0.8,1.3l-0.3,0.7l-0.1,0.4l-0.1,1.3l0.1,0.8v1l0,0h0.3l0,0l0-1l-0.1-0.7l0.1-1.2l0.1-0.4l0.3-0.6
	l0.8-1.3l0.2-0.2l0.7-0.4l0.3-0.1l0.4-0.1l1.4,0.1l1.1,0.3l3.1,1.4l1.4,0.4l0.4,0l0.4,0l0.3-0.1l0.2-0.2v0l-0.2-0.2h0l-0.1,0.1
	l-0.2,0.1l-0.3,0l-0.4,0l-1.3-0.4l-3.1-1.4l-0.4-0.1l0.2-0.6l-0.1-2.1l-0.5-3.2l0-0.4l3.7,2.3l0.8,0.7l0.6,0.8l0.2,0.4l0.9,1.9
	l0.1,0.6h0l0.3-0.1v0l-0.1-0.6l-0.9-2l-0.3-0.4l-0.6-0.8l-0.8-0.7l-4-2.5l-1.4-1.2l-0.6-0.7l-3.8-5.2l-1.3-2.7l-0.1-0.3l-1.3-3.8
	L90.6,95C90.8,95,91,95,91.3,95c0.2,0,0.4,0,0.6-0.1c0.2,0,0.4-0.1,0.5-0.1l0.6,3.9l0.4,1l0.1,0.1l1.1,1.9l2.5,3.5l1.7,2.2l1.3,0.9
	l2.4,3.4l1.4,1.4l3.8,2.5l0.5,1.3l0.1,0.4l0,0.1v0l0.3-0.1l0,0l0-0.1l-0.1-0.5L108,116l0.8,0.5l0.7,0.8l0.5,0.7l0.5,1h0l0.3-0.1v0
	l-0.5-1l-0.5-0.8l-0.8-0.8l-5.1-3.4l-1.4-1.4l-2.4-3.4l-1.3-1.8l-1.2-2.5l-0.7-1.6l-0.8-2.7L96,98.8h0v-0.1h0l-0.1-1.2
	c0.2,0.1,0.5,0.1,0.7,0.1c0.2,0,0.4,0,0.6-0.1c0.2,0,0.3-0.1,0.5-0.1v0.2l0.4,3.1l0.4,1.1l0.4,0.7l0.3,0.6l3.8,5.6l1.1,1.3l1.4,1.2
	l4,2.7l1.7,1.5l0.7,0.9l0.6,1l0.3,0.8h0l0.3-0.1l0,0l-0.3-0.8l-0.7-1l-0.8-0.9l-1.8-1.5l-4-2.7l-1.4-1.2l-1-1.2l-2.8-4.2l0.4-0.5
	l0.2-0.1l1.8-2.5l0-3.3l-2-2.7l-1.5-0.5l-0.8-0.2v-2.2v-0.8l3.1-1.5v-7.4l-0.8-2l-3.8-2.2v-0.2c0.1,0.2,0.2,0.3,0.4,0.4l1.6,1
	c0.1,0.1,0.1,0.1,0.1,0.1c0.1,0,0.1,0.1,0.2,0.1l0.1,0.1l0,0c0.1,0,0.2,0,0.2,0l0.2,0c0.1,0,0.3-0.1,0.4-0.1l0.3-0.1l1.8,1l2.3,2
	l0.7,0.9l0.4,0.6l1.8,3.8l1.2,1.7l4,4.1l0.5,0.4l-0.6,2.1l-0.4,2.1v0.6l0.1,0.8l0.3,1l0.7,1.4l0.3,0.4l0.6,0.6l0.4,0.3l0.4,0.3
	l0.9,0.3l1.6,0.3l1.6-0.2l1.4-0.6l0.7-0.4l1.4-1.4l0.5-0.7l0.5-1.1l0.1-0.4l0.1-0.9l0-0.4l-0.3-1.2l-0.4-0.8l-0.5-0.7l-0.8-0.8
	l-1.9-1.3l-2-1l-0.5-0.3l0.1-0.2l1.3-10l-0.1-2l-0.6-2.9l-4.7-13l-0.9-4.1l-0.5-3.8l0.1-5.3l0.8-4l1.9-5.5l1.5-2.5l0.4-0.1
	c0.1,0,0.2,0,0.2-0.1c0.1,0,0.1,0,0.1-0.1l0.2-0.2c0.1,0.1,0.3,0.1,0.5,0.2h0.2c0.1,0,0.3,0,0.4-0.1h0.1l1.2-1.4l0.7,0.4l0.1,0.1
	h0.2l0.1,0.1v-0.1l0.9,0.1l4.4-4.5l-0.5-1.4l1.4-1.4l0.1-0.1l0.1,0c0.1-0.1,0.1-0.1,0.1-0.2c0-0.1,0-0.2-0.1-0.3l3.2-3.7l0.6-1.1
	l0.4-1.1l0.2-0.7l0.2-1v-1.7l0.1-0.5l0.4-0.8l0.6-1.1l1-1.2l0.1,0l0.1,0h0.1c0.1,0,0.1,0,0.1-0.1h0l1.5-1.4c0.1,0,0.2,0.1,0.4,0.1
	h0.1c0.1,0,0.2,0,0.3-0.1l1.8-1.8h0.1l0.1-0.1l0,0l0.1-0.1h0.1c0.2,0,0.3,0,0.4-0.1l0-0.1l1.3-1.2c0.1-0.1,0.1-0.2,0-0.4l0.5-0.5
	c0.2-0.2,0.2-0.5-0.1-0.9c-0.1-0.2-0.3-0.3-0.4-0.5c-0.2-0.2-0.4-0.4-0.6-0.6c-0.3-0.2-0.5-0.4-0.8-0.6l0,0l-0.1-0.1l-0.2-0.1
	l1.3-1.4l0.2,0c0.2,0,0.3,0,0.4-0.1l1.2-1.2l0.1-0.1c0.1-0.1,0.2-0.3,0.1-0.5l0.4-0.4l0-0.1c0.1,0,0.1-0.1,0.1-0.2
	c0-0.1,0-0.1,0-0.2l-0.1-0.2l-0.1-0.2l-0.1-0.1c-0.1-0.2-0.2-0.4-0.4-0.6C141.9,2.9,141.7,2.7,141.5,2.5 M140.6,2.2
	c0.2,0.1,0.4,0.3,0.7,0.5c0.4,0.4,0.7,0.7,0.9,1.1c0.1,0.1,0.1,0.3,0.1,0.4c0,0.1,0,0.1,0,0.2l-0.1,0.1L142,4.7l-0.1-0.1
	c-0.1-0.2-0.3-0.4-0.5-0.6c-0.2-0.2-0.4-0.4-0.6-0.6c-0.2-0.2-0.5-0.4-0.7-0.5c-0.2-0.1-0.4-0.3-0.6-0.4l-0.3-0.1l0.4-0.4
	c0,0,0.1,0,0.1,0c0.1,0,0.2,0,0.3,0.1C140.2,2,140.4,2.1,140.6,2.2 M140.6,3.6c0.2,0.2,0.4,0.4,0.6,0.6c0.2,0.2,0.3,0.4,0.4,0.6
	c0.1,0.1,0.1,0.2,0.1,0.3V5l0.1,0.1v0.1l0,0.1l-0.9,0.9L140.8,6l-0.1-0.1l-0.1-0.1c-0.1-0.2-0.3-0.4-0.4-0.6
	c-0.2-0.2-0.4-0.4-0.6-0.6c-0.2-0.2-0.5-0.4-0.7-0.5c-0.2-0.1-0.5-0.3-0.7-0.4c-0.1,0-0.2-0.1-0.4-0.1l0.8-0.9c0.1,0,0.1,0,0.2,0
	h0.1l0.2,0l0.3,0.1c0.2,0.1,0.4,0.2,0.6,0.4C140.2,3.2,140.4,3.4,140.6,3.6 M140.5,6.5c0,0-0.1,0-0.1,0c0-0.2-0.1-0.4-0.2-0.6
	c-0.1-0.2-0.2-0.4-0.4-0.5c-0.1-0.2-0.3-0.4-0.5-0.6c-0.2-0.2-0.4-0.3-0.6-0.4c-0.2-0.1-0.4-0.2-0.6-0.3c-0.2-0.1-0.4-0.1-0.6-0.1
	h-0.1V3.8l0,0h0l0.1,0l0.1,0h0l0.2,0l0.3,0.1c0.2,0.1,0.4,0.2,0.6,0.3c0.2,0.1,0.4,0.3,0.6,0.5c0.2,0.2,0.4,0.4,0.6,0.6
	c0.2,0.2,0.3,0.4,0.4,0.6c0.1,0.2,0.2,0.3,0.2,0.4C140.6,6.4,140.6,6.5,140.5,6.5 M137.4,4.3c0,0,0.1,0,0.1,0h0.1
	c0.1,0,0.2,0.1,0.4,0.1c0.2,0.1,0.3,0.2,0.5,0.3c0.2,0.1,0.4,0.3,0.5,0.4c0.2,0.2,0.4,0.3,0.5,0.5c0.1,0.2,0.3,0.3,0.4,0.5
	c0.1,0.1,0.1,0.2,0.1,0.3l0,0.1l-1.6,1.7l0-0.1l-0.1-0.1l-0.1-0.1c-0.1-0.2-0.2-0.3-0.4-0.5c-0.2-0.2-0.3-0.4-0.6-0.6
	c-0.2-0.2-0.4-0.3-0.6-0.5c-0.2-0.1-0.4-0.2-0.6-0.3l-0.2-0.1L137.4,4.3 M135.7,6.6c0,0,0.1,0,0.1,0c0,0,0.1,0,0.2,0
	c0.1,0,0.2,0.1,0.4,0.2c0.2,0.1,0.3,0.2,0.5,0.4c0.3,0.2,0.5,0.5,0.6,0.7c0.1,0.1,0.1,0.2,0.1,0.2c0,0.1,0,0.1,0,0.1l-0.1,0.1
	l-1.2,1.2l-0.1-0.2l0-0.1l-0.1-0.1c-0.2-0.2-0.4-0.5-0.6-0.7c-0.3-0.2-0.6-0.4-0.9-0.6l-0.1,0l-0.1,0L135.7,6.6 M135.8,6.1l0.3,0.1
	l0.1,0.1c-0.1,0-0.2-0.1-0.3-0.1c-0.1,0-0.2,0-0.4,0.1l0,0l0-0.1l0-0.1v0l0.1,0h0h0.1H135.8 M134.5,8.4c0.2,0.1,0.4,0.3,0.6,0.4
	c0.3,0.2,0.4,0.5,0.6,0.7l-0.5,0.5l-3.5,3.9l-0.6,0.9l-0.6,1.5l-0.1,0.4l-0.3,3.4l-0.1,0.6l-0.3,0.7l-0.2,0.5l-1.2,1.7l-2.4,2.3
	c-0.2-0.3-0.4-0.5-0.7-0.8c-0.2-0.2-0.4-0.3-0.6-0.5l1.7-1.9l1.4-2.3l0.4-1.2l0.1-0.6l0-2.2l0.4-1.5l0.9-1.6l1.8-2.1L134.5,8.4
	 M137.8,7.8c-0.1-0.1-0.2-0.3-0.3-0.5c0.2,0.2,0.4,0.4,0.5,0.6c0.1,0.1,0.1,0.2,0.1,0.3c0,0.1,0,0.1,0,0.2l0,0H138l-0.1,0
	c0.1-0.1,0.1-0.2,0.1-0.3C138,8.1,137.9,8,137.8,7.8 M138,8.9L138,8.9c0.2,0,0.3,0,0.3-0.1l0.3-0.3l0.3,0.1l0.1,0.1l0.1,0
	c0.2,0.1,0.5,0.3,0.7,0.6c0.2,0.2,0.4,0.3,0.5,0.5c0.2,0.2,0.3,0.3,0.4,0.5c0.1,0.1,0.1,0.3,0.1,0.4c0,0.1,0,0.2,0,0.2l-0.4,0.4
	l-0.1-0.2c-0.1-0.2-0.3-0.4-0.4-0.6c-0.2-0.2-0.4-0.4-0.6-0.6c-0.3-0.2-0.5-0.4-0.8-0.6c-0.3-0.2-0.5-0.3-0.7-0.4L138,8.9 M139.1,10
	c0.2,0.2,0.4,0.4,0.6,0.6c0.2,0.2,0.3,0.4,0.4,0.6c0.1,0.1,0.1,0.2,0.1,0.3v0.1l0.1,0.1v0.1l-0.9,0.9c0-0.1-0.1-0.3-0.2-0.5
	c-0.1-0.2-0.3-0.4-0.5-0.6c-0.2-0.2-0.4-0.4-0.6-0.6c-0.6-0.5-1.2-0.9-1.7-1l1.2-1.2l-0.1,0.3v0C138.1,9.2,138.6,9.5,139.1,10
	 M138.2,12c-0.2-0.2-0.3-0.4-0.5-0.6c-0.2-0.2-0.4-0.3-0.6-0.4c-0.2-0.1-0.4-0.2-0.6-0.3c-0.2-0.1-0.4-0.1-0.6-0.1v-0.1l0.2-0.2h0.1
	l0-0.1l0.1-0.1l-0.1,0.2v0c0.5,0.1,1,0.4,1.6,0.9c0.2,0.2,0.4,0.4,0.6,0.6c0.2,0.2,0.3,0.4,0.4,0.6c0.1,0.1,0.1,0.2,0.1,0.3
	c0,0.1,0.1,0.1,0.1,0.2V13l0,0l0,0.1l-0.1,0h-0.1h0c0-0.1-0.1-0.3-0.2-0.5C138.5,12.4,138.4,12.2,138.2,12 M137.5,11.7
	c0.2,0.2,0.4,0.4,0.5,0.5c0.2,0.2,0.3,0.3,0.4,0.5l0.1,0.2l0.1,0.1l-0.1,0.2l-1.5,1.5c0-0.1-0.1-0.2-0.1-0.4
	c-0.1-0.2-0.3-0.3-0.4-0.5c-0.2-0.2-0.3-0.4-0.5-0.6c-0.2-0.2-0.4-0.3-0.6-0.5c-0.2-0.1-0.4-0.2-0.6-0.3l-0.3-0.1l1.5-1.5l0.1,0h0.1
	l0.2,0c0.1,0,0.2,0.1,0.3,0.1c0.2,0.1,0.3,0.2,0.5,0.3C137.1,11.4,137.3,11.6,137.5,11.7 M135.6,10.6L135.6,10.6l-1.7,1.8
	c-0.1,0-0.2,0.1-0.2,0.1c-0.1,0.1-0.1,0.1-0.1,0.2l0,0l0,0c0,0.1,0,0.2,0,0.4h0l0.1,0l-1.3,1.4c-0.1,0-0.1,0-0.2,0.1
	c0,0.1-0.1,0.1-0.1,0.2c0,0.1,0,0.1,0,0.2l0.1,0.1l-1.4,2l-0.1,0.1l0-0.6l0.1-0.3l0.6-1.4l0.6-0.8l3.6-4l0.1,0l-0.1,0.1L135.6,10.6
	 M135.7,13.7c0.1,0.1,0.3,0.3,0.4,0.4c0.2,0.2,0.3,0.3,0.4,0.5c0.1,0.1,0.1,0.2,0.1,0.3c0,0.1,0,0.2,0,0.2c0,0-0.1,0-0.1,0h-0.1
	c0.1-0.1,0.1-0.1,0.1-0.2c0-0.1,0-0.1,0-0.2l-0.1-0.2l-0.1-0.1C136.1,14.2,135.9,13.9,135.7,13.7 M134.2,13.2c0,0,0.1,0,0.1,0
	c0,0,0.1,0,0.2,0c0.1,0,0.2,0.1,0.4,0.2c0.1,0.1,0.3,0.2,0.5,0.4c0.1,0.1,0.3,0.3,0.4,0.4c0.1,0.1,0.2,0.2,0.3,0.4l0.1,0.2l0,0.1
	l0,0.1l-0.1,0.1l-1.3,1.2c0-0.1-0.1-0.1-0.1-0.2c-0.1-0.3-0.4-0.6-0.7-0.9c-0.2-0.1-0.3-0.3-0.5-0.4c-0.1-0.1-0.3-0.2-0.4-0.2
	c0,0-0.1,0-0.1,0L134.2,13.2 M134.2,12.8l0.2,0.1l0.1,0.1C134.5,12.9,134.4,12.9,134.2,12.8c-0.1,0.1-0.2,0.1-0.3,0.2l0,0l0-0.1
	l0-0.1h0l0.1,0h0.1L134.2,12.8 M134.3,16.3l-0.1-0.1h0l-1.3,1.7l-0.7,1.1l-0.4,0.9l-0.1,0.6l0,1.7l-0.1,1l-0.1,0.6l-0.4,1.1l-0.6,1
	l-3.1,3.6c-0.1-0.1-0.2-0.3-0.3-0.4c-0.1-0.1-0.2-0.2-0.4-0.4c-0.2-0.2-0.5-0.4-0.7-0.5l2.2-2.4l1.3-1.8l0.7-2.4l0.3-0.7l0.2-0.7
	l0.1-1.7l0.4-1l1.5-2.1l0.3-0.3c0.3,0.1,0.5,0.3,0.8,0.5c0.1,0.1,0.3,0.2,0.4,0.4C134.1,16,134.2,16.1,134.3,16.3 M134.1,8.3
	L134.1,8.3L134.1,8.3L134.1,8.3L134.1,8.3L134.1,8.3L134.1,8.3 M116.5,29.9l4.3-4.2l1.4,0.9l1.4,0.9l-4.2,4.3L116.5,29.9 M126,26.7
	c0.1-0.1,0.1-0.2,0-0.4l2.5-2.5l0.8-1.1l-0.3,1l-1.2,1.8l-2.2,2.5c-0.1,0-0.2,0-0.3-0.1c-0.1,0-0.2,0.1-0.4,0.1l-0.4,0.4l-0.1-0.2
	l1.4-1.4c0,0,0.1,0,0.1-0.1C126,26.8,126,26.8,126,26.7 M125.7,26.6L125.7,26.6l-1.4,1.4l-0.3-0.6l-1.6-1l1.4-1.4c0,0,0.1,0,0.1,0
	c0.1,0,0.1,0,0.1,0l0.1,0.1c0.1,0.1,0.2,0.1,0.4,0.2c0.1,0.1,0.3,0.2,0.4,0.3c0.3,0.2,0.5,0.5,0.6,0.7l0.1,0.1V26.6L125.7,26.6
	L125.7,26.6 M124.6,28.9l0.5-0.5c0,0,0.1,0,0.1,0h0.1l0.1,0.1c0.2,0.1,0.5,0.3,0.8,0.6c0.3,0.2,0.5,0.5,0.6,0.7l0,0l0,0.1l0,0.1
	l0,0.1l-1.4,1.4L124.6,28.9 M123.8,27.7l0.4,1.2l1.7,4.3l-4.1,4.2l-0.9-0.1l-1.6-3.8l0.3-1.5L123.8,27.7 M109,58.1l-0.1-2.7l0.1-4.5
	l1.2-5.5l1.4-4l2.8-4.6l0.3-0.5h0.1h0.1c0.1,0,0.1,0,0.2,0.1c0.1,0,0.2,0.1,0.4,0.2c0.1,0.1,0.3,0.2,0.5,0.4
	c0.2,0.2,0.3,0.3,0.4,0.4c0.1,0.1,0.2,0.2,0.2,0.3c0.1,0.1,0.1,0.2,0.1,0.2l0,0.1v0.1l-2,3.2l-1.9,5.6l-0.8,4l-0.2,5.4l0.5,3.8
	l0.9,4.1l4.7,13l0.6,2.9l0.1,1.9l-1.3,9.9l-0.1,0.4l-0.6,2.3l-0.4,0.9l-0.4,1.4l-0.2,1.6v0.3l0.1,0.8v0.2l0.1,0.3l0.2,0.4l0.4,0.4
	l0.5,0.3l0.3,0.1l0.3,0l0.5-0.1l0.6-0.2l0.6-0.3l0.4-0.4l0.2-0.3l0.3-0.5l0.2-0.8l0-0.8l-0.3-0.6l-0.2-0.3l-2.7-1.3l-0.5-0.4
	l0.3-0.7l0.6-2.2l0.4,0.3l2.1,1L122,95l0.7,0.7l0.5,0.6l0.3,0.7l0.3,1.2v0.4l-0.1,0.8l-0.1,0.4l-0.5,1.1l-0.4,0.6l-1.4,1.3l-0.6,0.4
	l-1.3,0.6l-1.5,0.2l-1.5-0.2l-0.8-0.3l-0.4-0.2l-0.4-0.3l-0.6-0.6l-0.2-0.3l-0.7-1.4l-0.3-1l-0.1-0.8l0-0.5l0.4-2l0.7-2.2l0.6-2.1
	l0.2-1.4l1.1-8.6l-0.1-1.6l-0.6-3.3l-4.5-12.2L109,58.1 M116.5,33.3l0.3,0.1c0.2,0.1,0.5,0.3,0.7,0.4c0.3,0.2,0.5,0.4,0.8,0.6
	c0.3,0.3,0.5,0.5,0.7,0.7c0.2,0.3,0.4,0.5,0.5,0.7c0.1,0.2,0.2,0.3,0.2,0.5c0,0.2,0,0.3,0,0.4l-0.1,0.1v0l-0.9,1
	c0-0.2-0.1-0.4-0.2-0.6c-0.2-0.2-0.3-0.5-0.6-0.7c-0.2-0.3-0.5-0.5-0.8-0.8c-0.3-0.3-0.6-0.5-0.9-0.7c-0.3-0.2-0.5-0.3-0.8-0.4
	c-0.2-0.1-0.4-0.2-0.6-0.2l1-1.1c0.1,0,0.1,0,0.2,0h0C116.3,33.3,116.4,33.3,116.5,33.3 M117.7,33.6c-0.3-0.2-0.5-0.3-0.8-0.4
	l-0.2-0.1l-0.3-1l2.6,1.6l0.9,2.1c-0.2-0.2-0.3-0.5-0.6-0.7c-0.2-0.2-0.5-0.5-0.8-0.8C118.3,33.9,118,33.7,117.7,33.6 M119,32.9
	l-0.1-0.1l0,0v0.4l-2.7-1.7l0.2-1.3l2.8,1.7L119,32.9 M116.2,35.6c0.2,0.1,0.4,0.3,0.6,0.4c0.2,0.2,0.4,0.4,0.5,0.5
	c0.2,0.2,0.3,0.3,0.4,0.5c0.1,0.1,0.1,0.3,0.1,0.4c0,0.1,0,0.2,0,0.2l-0.4,0.4l-0.1,0.1c0-0.1-0.1-0.2-0.2-0.4
	c-0.1-0.2-0.2-0.4-0.4-0.6c-0.2-0.2-0.3-0.4-0.6-0.6c-0.2-0.2-0.4-0.3-0.6-0.5c-0.2-0.1-0.4-0.2-0.6-0.3c-0.1,0-0.2-0.1-0.3-0.1
	l0.4-0.4h0.1l0.2,0l0.3,0.1C115.9,35.4,116.1,35.5,116.2,35.6 M118.5,37.8c0,0.1,0,0.2,0,0.3l-0.1,0.1c0,0-0.1,0.1-0.2,0.1h0
	c-0.1,0-0.2,0-0.4-0.1l0.3-0.3c0.2-0.2,0.1-0.5-0.1-0.9c0.1,0.2,0.2,0.3,0.3,0.4C118.4,37.5,118.5,37.7,118.5,37.8 M120.4,36.9
	l-0.1-0.1l-0.2-0.1c0.1-0.1,0.1-0.3,0-0.5L120.4,36.9 M114.8,34.7h0.1c0.2,0,0.3,0.1,0.5,0.1l0.2,0.1c-0.1,0-0.2,0-0.3-0.1h-0.1
	c-0.1,0-0.2,0-0.3,0.1l-0.3,0.4c-0.1-0.1-0.1-0.2-0.1-0.3c0-0.1,0-0.1,0-0.2C114.6,34.7,114.7,34.7,114.8,34.7 M114.4,36
	c0,0,0.1,0,0.1-0.1l0.1,0l-0.1,0l0,0l-0.1,0.2l0-0.1C114.4,36.2,114.4,36.1,114.4,36C114.4,36.1,114.4,36,114.4,36 M117.1,38.1
	c0,0.1,0,0.1,0,0.2c0,0,0,0.1,0,0.1l-0.1,0l-0.1,0h-0.1l0.1-0.2C117.1,38.2,117.1,38.1,117.1,38.1L117.1,38.1 M99,74.3l0.2,0
	l1.4,0.8c-0.2,0.1-0.4,0.2-0.6,0.3c-0.4,0.3-0.8,0.8-1.1,1.4c-0.3,0.6-0.4,1.2-0.4,1.7c0,0.1,0,0.2,0.1,0.4l-1.1-0.7l0,0
	c-0.1-0.1-0.2-0.2-0.3-0.4l0-0.1c0-0.1-0.1-0.2-0.1-0.4c0-0.2,0-0.5,0-0.8c0.1-0.3,0.2-0.5,0.3-0.8c0.2-0.5,0.5-0.9,0.9-1.2
	C98.5,74.5,98.7,74.4,99,74.3 M93,74.5l0.2-0.3l0.6-0.4l0.6-0.3l0.5-0.1h0.4l3,0.9c-0.1,0.1-0.2,0.1-0.4,0.2c-0.4,0.3-0.7,0.8-1,1.3
	c-0.1,0.3-0.2,0.6-0.3,0.9c-0.1,0.3-0.1,0.6-0.1,0.9c0,0.1,0,0.2,0.1,0.3h-0.1l0,0v0.7l-0.1,0.9c0,0.1-0.1,0.2-0.2,0.2
	c-0.1,0.1-0.2,0.2-0.4,0.2c-0.2,0.1-0.4,0.2-0.6,0.2c-0.2,0.1-0.4,0.1-0.7,0.1c-0.2,0-0.5,0-0.7-0.1c-0.2,0-0.4-0.1-0.6-0.2
	c-0.2-0.1-0.3-0.2-0.4-0.3c-0.1-0.1-0.1-0.2-0.1-0.3v-2v-2.4l0.1-0.2L93,74.5 M92.4,77.2l0.2,0.1l0,2.1c0.1,0.3,0.3,0.6,0.7,0.8
	c0.2,0.1,0.4,0.2,0.7,0.2c0.2,0.1,0.5,0.1,0.7,0.1c0.3,0,0.5,0,0.7-0.1c0.2,0,0.5-0.1,0.7-0.2c0.2-0.1,0.3-0.2,0.4-0.3
	c0.1-0.1,0.2-0.2,0.3-0.4l0.1-0.7l3.3,1.9l-3.1,1.5v0l0.1,0.3h0l3.2-1.6l0.7,1.8l-3.4,1.6l-0.7-1.8l-7-4L92.4,77.2 M88.8,79.4l1-0.7
	l7.1,4l0.7,1.8v6.9l-2.5-1.4l-6.4-3.7V79.4 M89.7,87.4l3.1,1.8c0,0.2-0.2,0.3-0.4,0.4c-0.1,0.1-0.3,0.2-0.5,0.2
	c-0.2,0-0.4,0.1-0.6,0.1h-0.3l0,0v0.3l0,0h0.3c0.2,0,0.5,0,0.6-0.1c0.2-0.1,0.4-0.1,0.6-0.2c0.1,0,0.2-0.1,0.2-0.2v1.9
	c0,0.2-0.2,0.4-0.4,0.5c-0.2,0.1-0.3,0.2-0.5,0.2c-0.2,0.1-0.4,0.1-0.6,0.1c-0.2,0-0.4,0-0.6-0.1c-0.2,0-0.3-0.1-0.5-0.2
	c-0.1-0.1-0.2-0.1-0.3-0.2c-0.1-0.1-0.1-0.2-0.1-0.3v-1.4l0.1,0.1c0.1,0.1,0.2,0.2,0.3,0.2c0.1,0.1,0.2,0.1,0.3,0.1
	c0.1,0,0.1,0,0.1,0c0.1,0,0.1,0,0.2-0.1c0.1-0.1,0.1-0.2,0.1-0.3c0-0.1,0-0.2-0.1-0.3c0-0.1-0.1-0.2-0.2-0.3
	c-0.1-0.1-0.2-0.2-0.3-0.2c-0.1-0.1-0.2-0.1-0.3-0.1c0,0-0.1,0-0.1,0c0,0-0.1,0-0.1,0.1V87.4 M105.9,79.7l1.4,1.4l3.8,6.1l3,3.1
	l-0.2,1.6l-0.6,1.9l-0.4-0.3l-4-4l-1.2-1.7l-1.8-3.8l-0.4-0.6l-0.7-0.9l-2.4-2.1l-1.9-1.1c-0.1,0-0.1-0.1-0.1-0.2
	c0-0.1-0.1-0.2-0.1-0.4c0-0.1,0-0.3,0-0.4c0-0.1,0.1-0.3,0.1-0.5c0.1-0.2,0.2-0.3,0.3-0.4c0.1-0.1,0.2-0.2,0.3-0.3
	c0.1-0.1,0.2-0.1,0.3-0.1h0.1c0,0,0.1,0,0.1,0l2,1.1L105.9,79.7 M101.6,76.3c-0.1-0.1-0.2-0.2-0.3-0.2c-0.1,0-0.2-0.1-0.3-0.1
	c-0.2,0-0.4,0.1-0.7,0.2c-0.1,0.1-0.3,0.3-0.4,0.4c-0.1,0.2-0.2,0.4-0.3,0.6c-0.1,0.2-0.2,0.4-0.2,0.6c0,0.2,0,0.4,0,0.6
	c0.1,0.4,0.2,0.7,0.5,0.8c0.1,0.1,0.2,0.1,0.3,0.1c-0.1,0.1-0.2,0.1-0.3,0.1h-0.2h-0.1l-0.4-0.2C99.1,79.2,99,79.1,99,79
	c0-0.1,0-0.2-0.1-0.4c0-0.3,0-0.5,0-0.8c0.1-0.3,0.2-0.5,0.3-0.8c0.3-0.6,0.6-1,0.9-1.3c0.3-0.2,0.5-0.3,0.7-0.3
	c0.1,0,0.2,0,0.3,0.1l0.1,0c0.1,0.1,0.2,0.1,0.2,0.2c0.1,0.1,0.1,0.2,0.1,0.3L101.6,76.3 M100.9,76.4L100.9,76.4c0.2,0,0.2,0,0.3,0
	c0.1,0,0.2,0.1,0.2,0.2c-0.1,0-0.2,0.1-0.3,0.2c-0.3,0.2-0.5,0.5-0.7,0.9c-0.1,0.2-0.1,0.4-0.2,0.6c0,0.2,0,0.4,0,0.5
	c0,0.1,0,0.2,0,0.2h-0.1l-0.1,0h0l-0.1,0c0,0,0,0-0.1-0.1c0,0,0-0.1-0.1-0.1c0-0.1,0-0.2-0.1-0.3c0-0.2,0-0.3,0-0.5
	c0-0.2,0.1-0.4,0.2-0.6c0.1-0.2,0.2-0.3,0.3-0.5c0.1-0.1,0.2-0.3,0.4-0.4C100.6,76.4,100.8,76.4,100.9,76.4 M100.3,79.3L100.3,79.3
	l-0.1-0.2L100.3,79.3 M97.9,84.6l3.3-1.6V90l-3,1.4l-0.3,0.1V84.6 M98.4,96.5V95l0.7,0.2l1.4,0.4l1.9,2.5v2.6l-0.3-0.4l-0.6-0.5
	l-0.7-0.3h-0.1v0l-0.4,0h0l-0.3-1.2l-0.9-1l-0.8-0.2L98,97.4l0-0.1C98.3,97.1,98.4,96.8,98.4,96.5 M98.4,97.5l0.6,0.1l0.8,0.9
	l0.2,1.2l-1.1,1.7l-0.1,0.1v0l0.2,0.2l-0.1,0.1l-0.4-1.1L98,97.8L98.4,97.5 M100.4,99.9h0.3l0.6,0.2l0.6,0.4l0.4,0.6l0,0.2v0.1
	l-1.1,1.7l0-0.2l-0.3-0.6l-0.5-0.6l-0.7-0.4h-0.3l0.9-1.3L100.4,99.9 M100,101.9L100,101.9l-0.5-0.2l-0.4-0.1h0.4L100,101.9
	 M99.2,102l0.3,0l0.4,0.2l0.4,0.4l0.2,0.4v0.3l-0.1,0.2l-0.1,0.1l0,0l0.1,0.2v0.2l-0.2,0.2l-0.7-1.1l-0.5-0.9l0.1-0.1L99.2,102
	 M95.4,91.9L95.4,91.9c-0.2,0-0.3,0-0.3,0l0-1.4l2.6,1.5l0.3-0.1c0,0.1-0.1,0.1-0.1,0.2c-0.1,0.1-0.1,0.1-0.3,0.2
	c-0.1,0.1-0.3,0.2-0.4,0.2c-0.2,0-0.3,0.1-0.5,0.1h-0.2l0,0v0.3l0,0h0.2c0.2,0,0.4,0,0.6-0.1c0.2-0.1,0.4-0.1,0.5-0.2
	c0.1,0,0.2-0.1,0.2-0.1v2c0,0.2-0.2,0.3-0.4,0.4c-0.1,0.1-0.3,0.1-0.5,0.2C97,95,96.8,95,96.6,95c-0.2,0-0.4,0-0.5,0
	c-0.2,0-0.3-0.1-0.4-0.1c-0.2-0.1-0.4-0.3-0.5-0.4v-1.7l0.1,0.1c0.1,0.1,0.1,0.1,0.2,0.2c0.1,0.1,0.2,0.1,0.2,0.1c0.1,0,0.1,0,0.2,0
	c0.1,0,0.1,0,0.1,0c0,0,0.1,0,0.1-0.1c0.1-0.1,0.1-0.2,0.1-0.3c0-0.1,0-0.2-0.1-0.3c0-0.1-0.1-0.2-0.2-0.3
	C95.7,92,95.6,91.9,95.4,91.9 M95.3,92.2C95.3,92.2,95.3,92.2,95.3,92.2c0.1,0,0.1,0,0.2,0l0.1,0.1l0.1,0.1l0.1,0.1l0.1,0.1
	c0,0,0,0.1,0,0.1c0,0,0,0-0.1,0.1h0h-0.1c0,0-0.1,0-0.1-0.1c0,0-0.1-0.1-0.1-0.1l-0.1-0.1l-0.1-0.1V92.2L95.3,92.2 M93.2,89.4
	l1.7,0.9l-0.1,3.4v0.6l-1.9,1.4l-0.1-1c0.3-0.2,0.5-0.5,0.5-0.8V89.4 M92.5,92.4c0.1,0,0.2-0.1,0.3-0.2v0.4c0,0.2-0.2,0.4-0.5,0.5
	c-0.1,0.1-0.3,0.1-0.5,0.2c-0.2,0-0.4,0.1-0.6,0.1c-0.2,0-0.4,0-0.6-0.1c-0.2,0-0.3-0.1-0.5-0.2c-0.3-0.1-0.4-0.3-0.4-0.5v-0.4
	c0.1,0.1,0.2,0.1,0.3,0.2c0.2,0.1,0.4,0.2,0.6,0.2c0.2,0,0.4,0.1,0.6,0.1c0.2,0,0.5,0,0.7-0.1C92.2,92.6,92.4,92.5,92.5,92.4
	 M92.8,93.2v0.7c0,0.2-0.1,0.4-0.4,0.5h0c-0.1,0.1-0.3,0.1-0.5,0.2c-0.2,0.1-0.4,0.1-0.6,0.1c-0.2,0-0.3,0-0.4-0.1
	c-0.1,0-0.3,0-0.4-0.1l-0.2-0.1c-0.1-0.1-0.2-0.1-0.3-0.2c-0.1-0.1-0.1-0.1-0.1-0.2l-0.1-0.8c0.1,0.1,0.2,0.1,0.2,0.1
	c0.2,0.1,0.4,0.2,0.6,0.2c0.2,0.1,0.5,0.1,0.7,0.1c0.2,0,0.5,0,0.6-0.1c0.2,0,0.4-0.1,0.6-0.2C92.6,93.3,92.7,93.3,92.8,93.2
	 M93,96.6l-0.1-0.4H93l0.2,0l0.2,0.1L94,97l0.5,0.8l0.2,0.8l0,0.1l-0.1,0.4l-0.1,0.3l-0.1,0l-0.1,0.1h-0.1l0.1-0.5L94.2,98l-0.5-0.9
	L93,96.6 M93.2,96l-0.1,0l0.2-0.1l0.3,0.1L93.5,96L93.2,96 M95.1,95.4v-0.5c0.1,0.1,0.2,0.2,0.4,0.2c0.2,0.1,0.3,0.1,0.5,0.2
	c0.2,0,0.4,0.1,0.6,0.1c0.2,0,0.5,0,0.7-0.1c0.2,0,0.4-0.1,0.6-0.2c0.1,0,0.2-0.1,0.2-0.2v0.4c0,0.2-0.1,0.3-0.4,0.5
	C97.4,95.9,97,96,96.6,96l-0.1,0c-0.3,0-0.7-0.1-0.9-0.2C95.3,95.7,95.2,95.6,95.1,95.4 M94.7,95L94.7,95l-0.1-0.2l0.2-0.1v1.1
	l-0.2-0.1h0l-0.1,0.1l-0.4-0.1l0.4-0.6L94.7,95 M93.9,96l0.3,0.1L94,96.5l-0.2-0.2L93.9,96 M94.6,96.3l0.2-0.3v0.6
	c0,0.2,0.1,0.3,0.1,0.4l-0.6-0.2l0-0.1l-0.1-0.1L94.6,96.3 M95.4,96c0.2,0.1,0.4,0.2,0.6,0.2c0.2,0,0.3,0.1,0.5,0.1h0.1
	c0.2,0,0.5,0,0.6-0.1c0.2-0.1,0.4-0.1,0.6-0.2c0.1,0,0.2-0.1,0.3-0.2v0.7c0,0.1,0,0.2-0.1,0.3c-0.1,0.1-0.2,0.2-0.3,0.2l-0.1,0.1
	c-0.1,0.1-0.3,0.1-0.5,0.2c-0.2,0-0.4,0-0.6,0c-0.3,0-0.6,0-0.9-0.1l-0.2-0.1c-0.3-0.1-0.4-0.3-0.4-0.5v-0.7
	C95.2,96,95.3,96,95.4,96 M90.1,89.7l0.1,0.1l0.2,0.1l0.1,0.1l0.1,0.1c0,0,0,0.1,0,0.1c0,0,0,0,0,0.1l-0.1,0h0h-0.1l-0.1-0.1
	c0,0-0.1-0.1-0.1-0.1L90,90l-0.1-0.1c0,0,0-0.1,0-0.1c0,0,0-0.1,0-0.1H90.1L90.1,89.7L90.1,89.7 M90.6,97.5L90.6,97.5l-0.4-0.2
	l0.3-0.1l0.2,0.6L90.2,98l-0.5-0.1l-0.5-0.2L89,97.6l0.3-0.1l0.5-0.1l0.6,0.3h0L90.6,97.5 M89.4,98.9l0.4,0.2l0.4,0.5l0.2,0.6l0,0.5
	l-0.1,0.1v-0.4l-0.3-0.7l-0.4-0.6l-0.4-0.3L89.4,98.9 M89.4,99.4l0.4,0.5l0.2,0.6v0.5l-0.1,0.2v-0.5l-0.3-0.7l-0.5-0.6l-0.3-0.2H89
	L89.4,99.4 M90.8,100.1l-0.3-0.7l-0.4-0.6l-0.6-0.4l-0.4,0.1l-0.6,0.3v-0.2l0.1-0.3l0.1-0.1l0.5,0l0.6,0.4l0.6,0.7l0.4,1l0,0.8
	l-0.3,0.4l-0.5,0.1l-0.1-0.1l0.5-0.3l0.3-0.4L90.8,100.1 M91.4,99.9l-0.6-0.7l-0.4-0.8l-0.1-0.2l0.4-0.2L91.4,99.9 M87.9,99.7l0.2,0
	l0.4,0.3l0.4,0.5l0.2,0.6l0,0.5l-0.1,0.1l-0.9,0.5v-0.4L88,101l-0.4-0.5l-0.5-0.3L87.9,99.7 M88.4,99.4h0.1l0.4,0.2l0.4,0.5l0.2,0.6
	v0.2l-0.3-0.7l-0.5-0.6L88.4,99.4 M87.9,101.6l0,0.4l-0.1,0.1h-0.2l-0.4-0.2l-0.4-0.5l-0.2-0.6l0-0.4l0.1-0.1h0.2l0.4,0.2l0.4,0.4
	L87.9,101.6 M91.6,100.3l0.2,0.5l0.1,0.2l-0.1,0.1l-0.5,0.4v-0.2l0.1-0.5L91.6,100.3 M95.4,98.4L95.4,98.4l0.1-0.3v0L95.2,98
	l0.3-0.4l-0.2-0.2h0l-0.4,0.4l0-0.1l-0.2-0.4l0.2,0.1l0,0l0.1-0.3c0.1,0.1,0.2,0.2,0.4,0.3l0.1,0.1l0.1,1.2L95,98.5l0-0.2L95.4,98.4
	 M95.7,99l0.1,0.6l0.9,2.7l0.7,1.6l-0.4,0.8l-2.1-3.1l-0.9-1.6l0.4-0.1l0.2,0l0.2-0.1L95.7,99 M93,97.1l0.4,0.3l0.4,0.8l0.2,0.8
	L94,99.3l-0.1,0.3l-0.2,0.1l-0.4-1L93,97.1 M95,99.1l0-0.2l0.2,0.1L95,99.1 M96.8,108.8l0.2,0.3l0.6,0.7L99,111l0,0.6l0.5,3.2l0,2
	l-0.2,0.5l-0.4-0.1l-1.3-0.1l0.1-0.6l0.1-2l-0.1-1.2L96.8,108.8 M97.1,104.9l0.3-0.7l1,2.3l0.2,0.3l0,0.1L97.1,104.9 M99.2,107.4
	l-0.2-0.2l0-0.1L99.2,107.4 M116.6,95.8l0.4,0.3l2.6,1.3l0.2,0.2l0.2,0.4v0.6l-0.2,0.7l-0.2,0.4l-0.1,0.2l-0.4,0.4l-0.5,0.3
	l-0.5,0.2l-0.5,0.1l-0.2,0l-0.2-0.1l-0.5-0.2l-0.3-0.3l-0.2-0.4l0-0.2l0-0.2l-0.1-0.8v-0.3l0.2-1.5L116.6,95.8 M95.6,83.6
	c-0.1-0.1-0.2-0.1-0.3-0.2c-0.1,0-0.2-0.1-0.3-0.1c-0.1,0-0.2-0.1-0.2-0.1c-0.1,0-0.1,0-0.2,0c0,0-0.1,0.1-0.1,0.1
	c0,0.1-0.1,0.1-0.1,0.2c0,0.1-0.1,0.2-0.1,0.2c0,0.1,0,0.2,0.1,0.3c0.1,0.1,0.1,0.2,0.3,0.4c0.2,0.2,0.4,0.3,0.5,0.4
	c0.1,0,0.2,0,0.2,0c0.1,0,0.1,0,0.1,0l0.1-0.1l0.1-0.1C96.1,84.4,96,84.1,95.6,83.6 M95.6,84.5L95.6,84.5h-0.2
	c-0.1,0-0.1-0.1-0.2-0.1c-0.1,0-0.1-0.1-0.2-0.1c-0.1-0.2-0.2-0.3-0.2-0.4c0-0.1,0-0.2,0-0.2l0.1,0h0.1l0.1,0c0.1,0,0.2,0.1,0.2,0.1
	c0.1,0,0.1,0.1,0.2,0.1C95.6,84.1,95.7,84.4,95.6,84.5 M90.7,81.2c-0.1,0.1-0.2,0.2-0.2,0.4c0,0.1,0,0.2,0.1,0.4
	c0.1,0.1,0.2,0.3,0.3,0.4c0.1,0.1,0.2,0.2,0.2,0.2c0.1,0.1,0.2,0.1,0.2,0.1c0.1,0,0.2,0,0.2,0c0.1,0,0.1,0,0.2,0
	c0.1,0,0.1-0.1,0.2-0.1c0.3-0.3,0.2-0.6-0.2-1.1c-0.2-0.1-0.3-0.3-0.5-0.3c-0.1,0-0.2-0.1-0.2-0.1c-0.1,0-0.1,0-0.2,0
	C90.8,81.2,90.8,81.2,90.7,81.2 M90.9,81.5C90.9,81.5,90.9,81.5,90.9,81.5C90.9,81.5,90.9,81.5,90.9,81.5
	C90.9,81.5,90.9,81.5,90.9,81.5C90.9,81.5,90.9,81.5,90.9,81.5C90.9,81.5,90.9,81.5,90.9,81.5C90.9,81.5,90.9,81.5,90.9,81.5
	l0.1-0.1H91l0.1,0c0.2,0.1,0.3,0.1,0.4,0.2c0.1,0.2,0.2,0.3,0.3,0.4c0,0.1,0,0.2-0.1,0.2c0,0-0.1,0-0.2,0c-0.1,0-0.2-0.1-0.4-0.3
	C91,82,91,82,90.9,81.9c0-0.1-0.1-0.1-0.1-0.2V81.5L90.9,81.5C90.9,81.5,90.9,81.5,90.9,81.5z"/>
<path class="st1" d="M97.1,123.6L97.1,123.6l-0.3,0l0,0l0,1.2l0,0.7h0.3v0v-0.4L97.1,123.6 M94.7,123.4L94.7,123.4l-0.3,0l0,0v2.2h0
	h0.3l0,0V123.4 M102.1,124L102.1,124l0,1.7l-0.1,0.1l-0.1,0.1l-0.6,0.2h-0.6l-0.5-0.2l-0.2-0.2l-0.1-0.1V124v0h-0.3l0,0v1.7l0.1,0.2
	l0.3,0.3l0.6,0.2h0.7l0,0l0.6-0.2l0.2-0.2l0.2-0.2l0,0l-0.1,0h0.1v0l-0.1-1.7v0H102.1 M108.8,117.7L108.8,117.7L108.8,117.7l0-0.1
	c0-0.3-0.2-0.4-0.6-0.6l0,0l-0.1,0.2l-0.1,0l0,0v0.2c0,0.1-0.1,0.1-0.2,0.2c-0.2,0.2-0.4,0.3-0.7,0.3c-0.1,0-0.2,0-0.3,0
	c-0.2,0-0.3,0-0.5-0.1c-0.2-0.1-0.3-0.2-0.4-0.3l0-0.2l0,0l-0.2,0.1c-0.2,0.1-0.2,0.2-0.3,0.3c0,0.1-0.1,0.2-0.1,0.3
	c0,0.1,0,0.2,0.1,0.2l0.1,0.6c0,0.1,0,0.1,0.1,0.2c0.1,0.2,0.2,0.3,0.4,0.4l0.4,0.2l0.7,0.1l0.7-0.1l0.6-0.3v0h0l0.1-0.1l0.1-0.1
	c0.3-0.2,0.4-0.5,0.4-0.9L108.8,117.7 M108.3,117.4C108.3,117.4,108.3,117.4,108.3,117.4C108.3,117.4,108.4,117.4,108.3,117.4
	C108.4,117.4,108.4,117.4,108.3,117.4c0.1,0.1,0.1,0.1,0.1,0.1c0,0,0,0,0,0c0,0,0,0,0,0c0,0,0,0,0,0c0,0,0,0,0,0c0,0.1,0,0.1,0,0.1
	c0,0.1-0.1,0.3-0.3,0.4c-0.1,0.1-0.3,0.2-0.4,0.3c-0.2,0.1-0.3,0.1-0.6,0.1c-0.1,0-0.3,0-0.4,0c-0.2,0-0.4,0-0.6-0.1
	c-0.2-0.1-0.3-0.2-0.4-0.3v0l0-0.1l0-0.1V118l0-0.1l0.1-0.1c0.1,0.1,0.2,0.2,0.4,0.3c0.2,0.1,0.3,0.1,0.5,0.1h0.1c0.1,0,0.2,0,0.4,0
	c0.2,0,0.3,0,0.5-0.1c0.1-0.1,0.3-0.1,0.4-0.2c0.2-0.1,0.3-0.2,0.3-0.4l0,0L108.3,117.4 M108.4,118.4c0.1-0.1,0.1-0.1,0.2-0.2l0,0.2
	c0,0.1,0,0.2,0,0.3c0,0.1-0.1,0.2-0.2,0.3l-0.1,0c-0.3,0.2-0.6,0.3-1,0.4c-0.1,0-0.3,0-0.4,0h-0.1c-0.2,0-0.3,0-0.5-0.1
	c0,0-0.1,0-0.1,0c-0.1-0.1-0.2-0.2-0.3-0.3l-0.1-0.1l0-0.2c0.1,0,0.2,0.1,0.2,0.1c0.2,0.1,0.4,0.1,0.6,0.1l0.2,0
	c0.2,0,0.3,0,0.5-0.1c0.2,0,0.4-0.1,0.6-0.2C108.1,118.6,108.2,118.5,108.4,118.4 M112.8,117.7L112.8,117.7c0,0.1,0,0.2-0.1,0.3
	c0,0.1-0.1,0.2-0.2,0.3c-0.1,0.2-0.4,0.3-0.6,0.4c-0.1,0.1-0.3,0.1-0.4,0.1h-0.2h-0.2c-0.2,0-0.3-0.1-0.4-0.3l-0.1-0.2h0l-0.1,0.1
	l-0.1,0.1c-0.1,0.1-0.1,0.2-0.1,0.3c0,0.1,0,0.2,0,0.3l0,0.1l0,0.1l0.2,0.7c0,0.1,0.1,0.2,0.2,0.3c0.1,0.1,0.2,0.1,0.3,0.1l0.3,0.2
	l0.2,0.1h0.6l0.6-0.2l0.6-0.4l0.2-0.2l0.1-0.1c0.2-0.3,0.3-0.6,0.2-0.9l-0.2-0.6v-0.1l0,0c-0.1-0.2-0.2-0.4-0.5-0.5H113h0
	L112.8,117.7L112.8,117.7 M112.8,118.6c0.2-0.2,0.3-0.4,0.3-0.6c0.1,0.1,0.1,0.1,0.2,0.2v0.1c0,0.1,0,0.2-0.1,0.2
	c0,0.1-0.1,0.2-0.2,0.3c-0.1,0.1-0.2,0.2-0.4,0.3c-0.1,0.1-0.3,0.2-0.5,0.2c-0.2,0.1-0.4,0.1-0.6,0.1h-0.1c-0.1,0-0.2,0-0.4,0
	c-0.3-0.1-0.4-0.2-0.5-0.3l0,0c0-0.1,0-0.2,0-0.2c0.1,0.1,0.3,0.2,0.5,0.3l0.3,0l0.2,0c0.2,0,0.3,0,0.5-0.1c0.2,0,0.3-0.1,0.4-0.2
	C112.6,118.8,112.7,118.7,112.8,118.6 M113.4,119.5L113.4,119.5c-0.3,0.3-0.6,0.5-1,0.6c-0.2,0.1-0.4,0.1-0.6,0.1h-0.1
	c-0.1,0-0.2,0-0.4,0l-0.2-0.1c-0.1-0.1-0.2-0.1-0.3-0.3l-0.1-0.2l0.2,0.1c0.1,0,0.3,0.1,0.4,0.1l0.1,0c0.2,0,0.4,0,0.6-0.1
	c0.2-0.1,0.4-0.2,0.6-0.3c0.2-0.1,0.3-0.2,0.4-0.4c0.1-0.1,0.1-0.1,0.2-0.2l0,0.2l0.1,0.1C113.6,119.2,113.6,119.4,113.4,119.5z"/>
<path class="st0" d="M230.6,85.1L230.6,85.1l-0.2,0.4v0.4l0,0l0,0.1l0-0.1L230.6,85.1 M228.9,27.1L228.9,27.1l0,0.3v0.1l-0.4,0.2
	l-0.9-0.1l-2.5-0.9l-0.8-0.6l-0.2-0.4l0-0.1l0.4-0.1v0h-0.1l-0.4,0.1l-0.3,0.3l-0.1,0.4l-1,4.2l-0.6,2.7l0.2,0.5l0.4,0.3l-1.8,8.2
	l-1.2,7.1l-1,4.5l-0.4,0l-0.3,0.1l0,0.1l-0.1,0l-1.2,3.1l-2.2-1.1l-0.3-0.1l-0.3-0.5v-0.1l0-0.1l-0.1-0.1l-0.1,0l-0.2-0.1l-0.2,0
	l-0.6-0.1l-0.1-0.2l-0.1-0.2l-0.1-0.1l-0.1-0.1l-1.1-0.1l-0.8-0.1l-0.9-0.1l-0.2-0.1l-0.8-0.1l-0.4,0.2l-0.1,0.2l-3-0.5l-1.1,0.1
	l-0.5,0.1l-0.4,0.2l-0.9,0.5l-0.7,0.6l-0.6,0.8l-0.4,1l-0.2,1v1l0.1,0.5l0.3,0.8l0.4,0.9l0.5,0.7l0.7,0.6l0.9,0.5l1.2,0.4l0.6,0.1
	l1,0.6l0.1,0.1l0,0l0.5,0.3h0.1l0.9,0.1l0.2-0.1l0.2-0.1l0.2-0.2h0v0.1l0.3,0.4v0l0.1,0.1l0.9,0.1l1.1,0.2l1.7,0.2l-0.4,0.9l0,0
	l0.2,0.6l-0.9,2.7l0.3,3.4l2.5,3.7l8.6,8.3l1.2,2.4l0.3,2.3l-0.2,2.3l-0.8,2.4l-6.5,12.5l-0.5-0.3l-11.2-6.4l-0.1-0.1l-0.2-0.4
	l-0.1-0.1l-5-2.9l-0.7-0.5l-0.2-0.1l-0.6-0.9l-0.4-1.1l-0.1-1.3l0.1-0.8l0.2-0.7l0.4-0.8l0.8-2.5l0.1-2.2l0.3-0.5l0.3-0.5l0.1-0.3
	V83l-0.1-0.3v-0.1v-2.9v-1.1l0-0.1l-0.2-0.5l0,0l-0.6-2.9l-0.2-0.3l-0.2-0.3l-0.8-0.4l-0.9-0.3l-0.3-0.2l-0.7-0.2l-0.7-0.1l-0.6,0.1
	l-0.6,0.1l-0.6,0.3l-1.6,0.9l-0.2,0.1l-0.1,0.1l-0.1,0l-0.1,0.2l-0.3,0.7l-9,5.1l-2.4,2.9l-0.1,3.4l1.2,2.7l3.2,3l4.4,3.5l4.8,3.3
	l1.1,0.6l1.5,0.6l1.7,0.3l0.3,0.1h0.1l5.3,0.5l0.5,0.1l0.1,0.1l11.2,6.5l0.6,0.5l-4,9.2l-0.8,3.1l0.1,2.1l0.9,1.5l1.8,0.6l0.4,0
	l0.8-0.1l0,0l1.4,1.2l1.7,0.6l1.9-0.1l0.8-0.3l0.7-0.5l3.2-2.8l1.5-1.9l0.9-1.7l0.9-2.7l0.6-3.1l0.2-7.8l1.2-9.4l1.4-5.8l0.6-1.3
	l0.7-1l0.1-0.1l0.7-0.9l0.1-0.4l-0.1-0.7l-0.3-0.6l-0.5-0.4l-0.4-0.1l-0.2,0.1h-0.1l-0.1,0.3l-0.1,0.1l-1.7,2v-0.2l-0.5-3.8
	l-1.7-3.5l-2.9-3l-4.9-4l-0.9-1.4l-0.1-1.4l0.7-1.6l0.5,0l0.1-0.3l1.3-3.6v-0.1l-0.1-1.9l-0.1-1.5l0.1-0.2l0-0.1l11.1,6.3l2.6,2.7
	l1,1.7l-0.5-0.3l-0.4-0.4l-0.8-0.4l-0.9-0.1l-0.1,0h-0.1l-0.3,0l-0.4,0l-0.4,0.1l-0.7,0.6l-0.5,0.9l-0.2,0.9l0,0.4l0.1,0.3l0.2,0.2
	l0.5,0.4l0.1,0.2l0.1,0.2l0.1,0.1l0.6,0.4l0.3,0.1l0.4,0.2l0.8,0.4l0.2,0.1L235,77l1.2,0.6l0.1,0.1l0.1,0h0.1l0.5-0.1l0.1,1
	l-0.1,0.9l-0.3,0.7l-0.1,0.2l-0.9,1.5l-0.4,0.5l-0.6,0.4l-0.1,0l-0.3,0.2l-3.3,1.9l0,0l0.7,0.2l0.8,0.7l0.6,0.9l0.2,1l-0.2,0.7
	l-0.5,0.3l-0.1,0.1h0h0.1l0.1,0l0.1,0l0.3-0.2l3.8-2.1l2.7-1.6l0.4-0.4l0.1-0.2l0.6-1.2l0.4-1.4l-0.1-2.5l-0.9-2.2l-0.9-1.1v-0.7
	l-0.1-0.4l-0.1-0.2l-0.4-0.7l0-0.2l-1.7-3.4l-1.9-2.5l-2.2-1.8l-11.6-6.7l1.6-4.2l0,0l0-0.2l-0.2-0.2l-0.3-0.2l4-19.3h0.3l0.5-0.2
	l0.7-2.7l1-4.1l0.1-0.6l-0.1-0.2L228.9,27.1 M203.5,58l0.2-0.7l0.5-0.5l0.7-0.2h0.4l0.1,0l1.9,0.3V57l0.4,0.5l0.9,0.1l1.1,0.2
	l1.7,0.3l0.1,0l0.1,0l0.2-0.2l0.9,0.1l0.4,0l0.1,0.1l0.1-0.1l0.1-0.2h0l-0.1,0.1l0.1-0.3l2.6,1.2l-0.4,1l-0.1,0.1l-1.2,1.2l-1.4-0.3
	l-1-0.2l-0.7-0.1l-1-0.1l-0.3-0.1l-0.7-0.1l-0.5-0.1l-0.3-0.2l-0.4-0.1l-0.6-0.1l-0.2,0l-0.4,0h-0.2l-0.1,0l-0.1,0.1l-1.5-0.3
	l-0.7-0.2l-0.5-0.5L203.5,58 M214.5,68.9l0.4-1.1h0.1l0.2-0.1l0.1,0l-0.1,0.2l0.1,0.1l0.1,0.1l0.1,0.1l-0.8,2.3l0.2,1.8l-0.2-1.3
	l-0.2-1L214.5,68.9 M192,77.6l0.7,0.1l0.1,0.1h0.1h0.1l0.2-0.1l0.8-0.3h0.3h0.3l0.4,0.6l-0.1,0.1l-0.1,0.4v0.3l-0.3,0.3l-0.1,0.4v4
	v0.1l-0.1,0.5l0.1,0.9l0.1,0.1l0.4,0.5v0.5l0.1,0.3l0.2,0.2l0.3,0.2l0.5,0.2l0.5,0.1l0.5,0v0.3l-0.9,2.5l-0.4,0.8l-0.2,0.7l-0.1,0.8
	l0.1,1.3l0.1,0.6l0.4,0.9l0.7,1.1l0.7,0.7l0.2,0.3l0,0l0.1,0.1l2,1.2l0.2,0.3l0,0.2l-0.1,0.3l-0.2,0.2l-0.3,0.1H199l-1.4-0.3
	l-0.2,0.1l-0.2,0l-1.2-0.3l-2.3-0.9l-4.4-3l-6.7-5.7l-1.2-1.7l-0.4-2.5l2-2.5L192,77.6 M219.5,112.6l0.7,1.3l0.2,1.3l-0.2,1.3
	l-2.3,3.4l-1.6,1.4l-0.3,0.1l0.4-1.4L219.5,112.6 M225.6,104l-0.1,8.2l-1.1,5.1l-0.8,2l-1.4,2l-2,1.7l-1.6,0.9l-1.2,0.1l-0.1-0.1
	l0.6-0.3l1.8-1.5l2.9-3.8l0.9-3.1l-0.7-3.1l-1.8-2.6l5.1-9.8L225.6,104 M234.7,21.3l0.4-0.7l0.1-0.2l0.7-0.7l0.4-0.6l0.2-0.7
	l0.1-0.7l-0.4-1.7l-1.1-1.1l-1.5-0.4l-0.6,0.1l-0.6,0.2l-0.5,0.3l-0.7,0.8l-0.3,0.1l-0.6,0.3l-1.1,1.1l-0.5,0.9l-0.1,0.3l-0.1,0.1
	l-0.1,0.1l-0.8,0.9l-1.3,1.4l-0.1,0.2l-0.1,0.4l-0.1,0.6l-0.1,0.6L226,23l-0.4,0.4l-0.1,0.3l-0.5,1.7l-0.1,0.5l0.1,0.3l0.5,0.4
	l0.8,0.4l0.9,0.3l0.6,0.1l0.3-0.1l0.4-1.5l0.6-0.1l0.6-0.2l0.2-0.1l0.3-0.2l1.8-1.8l0.5-0.5l0.4-0.1l0.6-0.3L234.7,21.3z"/>
<path class="st1" d="M236.8,17.5l-0.4-1.7l-1.1-1.2l-1.6-0.5l-0.6,0.1l-0.6,0.2l-0.5,0.3l-0.7,0.8l-0.3,0.1l-0.6,0.4l-1.1,1.1
	l-0.5,0.9l-0.1,0.5l-2.2,2.4l-0.3,0.6l-0.1,0.6l-0.1,0.6l0.1,0.2l-0.3,0.3l-0.2,0.4l-0.4,1.6l-0.4,0l-0.5,0.1l-0.4,0.3l-1.8,7.4
	l0.3,0.5l0.3,0.2l-1.7,8.2l-1.2,7.1l-1,4.3h-0.2l-0.3,0.1l-0.2,0.1l0,0.1l0,0.1v0l-1.1,2.8l-2.1-1l-0.3-0.1l-0.2-0.4v-0.1l-0.1-0.3
	l-0.2-0.1l-0.1-0.1l-0.8-0.1l0-0.1l-0.1-0.2l-0.2-0.2l-3.8-0.6v-0.2h0l-0.6,0.4l-0.1,0.2L205,53l-1.1,0.1l-0.5,0.1l-0.5,0.2l-1,0.6
	l-0.7,0.6l-0.6,0.9l-0.5,1l-0.2,1v1L200,59l0.3,0.8l0.4,0.9l0.6,0.7L202,62l0.9,0.5l1.2,0.4l0.6,0.1l0.9,0.6l0.6,0.4l1,0.2l0.3-0.1
	l0.3-0.2l0.1-0.1l0.3,0.4l2,0.4l1.5,0.2l-0.3,0.7v0.1l0.2,0.6l-0.9,2.7l0.3,3.4l2.5,3.8l8.5,8.2l1.2,2.3l0.3,2.2l-0.2,2.3l-0.8,2.4
	l-6.4,12.3l-11.6-6.7l-0.1-0.1l-0.2-0.4l-0.1-0.1l-5-2.9l-0.6-0.5l-0.2-0.1l-0.6-0.9l-0.4-1l-0.1-1.3l0.1-0.7l0.2-0.7l0.4-0.8
	l0.8-2.6L199,85l0,0h0.2l0,0v-0.4l0.2-0.5l0.1-0.3v-0.8l0-0.3v-4l0-0.1l-0.2-0.5l-0.6-2.9l-0.2-0.4l-0.2-0.3l-0.9-0.4l-0.8-0.3
	l-0.3-0.2l-0.7-0.2l-0.8-0.1l-0.6,0.1l-0.6,0.2l-0.6,0.3l-1.6,0.9l-0.2,0.1l-0.1,0.1l-0.1,0l-0.1,0.3l-0.2,0.6l-8.9,5.1l-2.5,3
	l-0.1,3.5l1.2,2.7l3.2,3.1l4.4,3.5l4.8,3.3l1.1,0.6l1.5,0.6l1.6,0.3l0.3,0.1l5.3,0.5l0.5,0.1l11.2,6.5l0.6,0.4l-4,9.1l-0.8,3.1
	l0.1,2.2l0.9,1.7l1.8,0.7l0.5-0.1l0.7-0.1l1.4,1.2l1.8,0.6l1.9-0.2l0.9-0.3l0.7-0.5l3.2-2.8l1.5-1.9l0.9-1.7l0.9-2.8l0.6-3.1
	l0.2-7.7l1.2-9.4l1.4-5.8l0.5-1.2l0.7-1l0.1-0.1l0.4,0.1l0.1,0l0.3-0.1l0.3-0.2l3.8-2.1l2.7-1.6l0.4-0.5l0.2-0.2l0.6-1.2l0.4-1.5
	l-0.1-2.5l-0.9-2.2l-0.9-1.1l0-0.6l-0.1-0.4l-0.5-0.8l0-0.2l-1.7-3.5l-1.9-2.5l-2.3-1.8l-11.5-6.6l1.5-4l0.1,0v-0.1l0-0.3l-0.2-0.3
	l-0.2-0.1l3.9-19.1l0.2,0l0.6-0.2l1.7-6.9l0.2-0.7l-0.1-0.2L229,27l0-0.1l-0.3-0.3h0l-0.1,0.1l0.3-1l0.6-0.1l0.6-0.2l0.5-0.4l2-2
	l0,0l0.3-0.3l0.3-0.1l0.6-0.3l1.2-1.1l0.4-0.7l0.1-0.2l0.7-0.7l0.4-0.6l0.2-0.7L236.8,17.5 M236.1,16l0.4,1.5l-0.1,0.7l-0.2,0.7
	l-0.4,0.6l-0.2,0.2l0.1-0.8l-0.5-1.8l-1.2-1.3l-1.7-0.5l-0.5,0.1l0.3-0.4l0.5-0.3l0.5-0.2l0.5,0l1.4,0.4L236.1,16 M233.8,16.1
	l1.1,1.2l0.4,1.7l-0.1,0.7l-0.2,0.8l-0.4,0.5l0.3-1.5l-0.4-1.7l-1.2-1.3l-1.7-0.5l0,0l-1.2,0.3l0,0l0.5-0.3l0.6-0.2l0.6-0.1
	L233.8,16.1 M233.2,20.3l0.1,0.3v0.1l-0.1,0L233.2,20.3 M233.1,21.3l0-0.3l0.1,0L233.1,21.3L233.1,21.3 M233.6,21.2l-0.1,0.2
	l0.1-0.9l-0.4-1.5l-0.3-0.4l-0.1-0.1l-0.1-0.1l-0.3-0.4l-0.2-0.2v-0.1h-0.1l-0.1-0.1l-0.8-0.2l-0.6-0.2l-0.6,0.1l0.6-0.3l0.6-0.1
	l1.3,0.4l0.9,1l0.4,1.4l-0.1,0.6L233.6,21.2 M233.9,21.3l0.2-0.6l0.1-0.7l-0.4-1.5l-1-1.2l-1.4-0.4l-0.7,0.1l-0.7,0.3l-0.4,0.4
	l-0.2,0.2v-0.1h-0.1v0l0.1-0.4l1-0.8l1.2-0.3l1.5,0.4l1.1,1.2l0.4,1.6l-0.3,1.4l-0.6,0.9L233.9,21.3 M230,18.3v-0.2l0.4-0.1l0,0.2
	L230,18.3 M229.5,18.2h0.1v0.2l-0.3,0.1v-0.1L229.5,18.2 M228.7,18.8L228.7,18.8l0.2-0.1V19l-0.2,0V18.8 M228.7,19.3l0.5-0.1
	l1.3,0.4l0.7,0.8l0.2,0.2l0.4,1.4l0,0.3l-0.1,0.4l-0.3,0.7l-0.1,0.1l0.2-0.9l-0.4-1.5l-1-1.2l-1.4-0.4l-0.9,0.3l0.1-0.1l0.4-0.2
	L228.7,19.3 M229.2,18.9l0-0.2l0.3-0.1l0,0.3L229.2,18.9L229.2,18.9 M229.9,19l0-0.4l0.3-0.1l0,0.4L229.9,19 M227.2,21.3l0.2-0.2
	l0.9-0.2l1,0.3l0.7,0.8l0.3,1l-0.2,0.9l-0.5,0.7l-0.2,0.1l0.4-0.4l0.2-0.6L230,23l-0.3-0.9l-0.6-0.7l-0.9-0.3l-0.4,0.1l-0.5,0.2
	l-0.4,0.3l-0.3,0.3l0.1-0.3L227.2,21.3 M228.3,20.6L228.3,20.6l-0.2,0.1l0,0l0.6-0.1l1,0.3l0.7,0.7l0.2,1l-0.1,0.6l0,0.1l0.1-0.3
	l-0.3-1.2l-0.8-0.9L228.3,20.6 M227.9,20.3l-0.6,0.4l-0.3,0.4l-0.6,0.5l-0.2,0.6l0.2-0.9l0.9-1l1.3-0.4l1.3,0.4l0.9,1l0.4,1.4
	l-0.4,1.4l-0.9,1l-1.1,0.3l0-0.1l0.8-0.4l0.4-0.6l0.5-0.4l0.3-0.6l0.1-0.7l-0.3-1.2l-0.8-0.9l-1.2-0.4L227.9,20.3 M231.8,18.3
	l-0.1,0.3l-0.4,0.1l0-0.3L231.8,18.3 M232.9,19.1L232.9,19.1l0.1,0.3l-0.1,0.4l-0.1,0L232.9,19.1 M232.1,18.9l0.5-0.1l-0.2,1.2
	l-0.5,0.1L232.1,18.9 M231.1,17.9l0,0.2l-0.4,0.1l0-0.2L231.1,17.9L231.1,17.9 M231,18.5l0,0.3l-0.4,0.1l0-0.3L231,18.5 M230.5,19.3
	L230.5,19.3l0.4-0.2l-0.1,0.4l-0.1-0.1L230.5,19.3 M231.5,20.2l-0.4-0.4l0.2-0.8l0.4-0.1L231.5,20.2L231.5,20.2 M232.7,20.3l0.2,0
	l-0.1,0.5l-0.1,0L232.7,20.3 M231.8,20.6l0.1-0.1l0.5-0.1l-0.1,0.5l-0.4,0.1L231.8,20.6 M231.9,21.2l0.3-0.1l0,0.3l-0.2,0
	L231.9,21.2 M232.6,21.1l0.2,0l-0.1,0.3l-0.2,0L232.6,21.1 M232.6,22.1l-0.1,0l0.1-0.4l0.1,0L232.6,22.1 M232.1,21.8L232.1,21.8
	l0,0.1L232.1,21.8 M231.9,23.1L231.9,23.1L231.9,23.1L231.9,23.1 M232.4,22.5l0.1,0l-0.2,0.2L232.4,22.5 M229.4,22.3l0.2,0.8
	l-0.1,0.5l-0.1,0.5l-0.3,0.4l-0.4,0.3l-0.1,0.1l-0.2,0.6l-0.4,1.5l-0.2,0.1l-0.6-0.1l-0.8-0.2l-0.8-0.4l-0.5-0.4l-0.1-0.2l0.1-0.4
	l0.5-1.7l0.1-0.3l1.4-1.4l0.3-0.3l0.4-0.2l0.3,0l0.7,0.2L229.4,22.3 M228.4,27.4l-0.3,0l0.3-0.1l0.1-0.4l0.2,0.2l0.1,0.2L228.4,27.4
	 M227.5,27.6l1,0.1l0.4-0.2l-0.1,0.4l-0.4,0.1l-1-0.1l-1.3-0.4l-1.2-0.6l-0.8-0.6l-0.2-0.4l0.1-0.2l0,0l0.2,0.4l0.8,0.6L227.5,27.6
	 M227.4,28.3l1.1,0.2l0.2-0.1l-0.9,3.8l-0.4,0.1l-0.9-0.1l-1.3-0.4l-1.2-0.6l-0.8-0.6l-0.2-0.4l0.9-3.7l0.1,0.1l0.9,0.6l1.3,0.6
	L227.4,28.3 M227.4,32.6l0.2-0.1l-0.6,2.3l-0.4,0.1l-0.2,0l-0.7-0.1l-1.3-0.4l-1.2-0.6l-0.8-0.6l-0.2-0.4l0.5-2.2l0.1,0.1l0.9,0.6
	L225,32l1.4,0.5L227.4,32.6 M232.2,70.5l-0.3,0l-0.4,0.2l-0.7,0.6l-0.5,0.9l-0.2,1l0,0.4l0.2,0.4l0.3,0.3l0.5,0.3l0.1,0.2l0.2,0.2
	l0.7,0.5l0.3,0.1l2.5,1.5l1.2,0.6l0.2,0.1l0.2-0.1l0.1,0l0.4-0.1l0.1,0.8l-0.1,0.9l-0.2,0.7l-1,1.7l-0.4,0.5l-0.5,0.3l-0.1,0
	l-0.3,0.3l-3.3,1.9l-0.3,0.2l-0.4,0.2l-0.2,0.4l-0.1,0.6l0,0.1v0.2l0,0h0.1l-1,1.2l-0.5-3.7l-1.7-3.6l-2.9-3.1l-4.9-4l-0.9-1.4
	l-0.1-1.3L219,69l0.5,0l1.4-4l0-0.1l-0.2-3.5l0-0.1l10.9,6.2l2.6,2.6l0.7,1.1l-0.3-0.3l-0.9-0.4h-0.3l-0.4,0.1l-0.2-0.1l-0.2,0v0
	l0,0.3v0h0.1l0,0l-0.1,0.1l-0.9,0.8l-0.6,1l-0.3,1.2l0,0.2l-0.2-0.1l-0.2-0.2l-0.1-0.3v-0.3l0.1-0.9l0.5-0.8l0.7-0.6l0.3-0.1h0.3
	l0.3,0l0,0l0-0.3l0,0L232.2,70.5 M232,71.9l0.8-0.7l0.3-0.1l0.3,0l0.3,0l0,0v-0.1l0.2,0.1l-0.5,0.2l-0.9,0.8l-0.6,1l-0.3,1.2
	l0.1,0.6l0.1,0.1l-0.1-0.1l-0.2-0.2l-0.1-0.3l0-0.4l0.2-1L232,71.9 M234,71.3l0.4,0l0.1,0.1l-0.1,0l-0.1,0L234,71.3l-0.3,0.1
	l-0.2,0.1l0.1-0.1L234,71.3 M233.5,71.9l0.2-0.1h0.1l-0.7,0.6l-0.6,1.1l-0.2,0.7V74l0.2-0.8l0.4-0.7L233.5,71.9 M234.3,71.9l0.1-0.1
	l0.3,0l0.5,0.1l0.2,0.1l-0.2,0.1l-0.4,0.1l-0.9,0.8l-0.6,1.1l-0.3,1.2l0.1,0.4l0,0l-0.3-0.1l-0.1-0.1l-0.1-0.3l0-0.4l0.2-1l0.6-1
	l0.8-0.7L234.3,71.9 M235.7,72.3L235.7,72.3l0.1-0.1l0.1,0.1H235.7 M235.7,72.6h0.2l0,0.1h-0.2V72.6 M234.9,72.6h0.5l0,0.1h-0.5
	L234.9,72.6 M235.6,71.7l-1.1-1.7l-2.6-2.7l-11-6.3l0.5-1.5l11.4,6.6l2.2,1.8l1.8,2.5l1.3,2.7l-0.8-0.5l-0.3-0.2l-0.8-0.4
	L235.6,71.7 M236.3,72.6h0.2l0.3,0.1l-0.2,0l-0.1,0l-0.3,0L236.3,72.6 M224.3,25.5l0.2-0.1h0.3l-0.1,0.4l0.2,0.3l-0.5-0.4
	L224.3,25.5 M222.8,33.9l0.2,0.2l1.3,0.6l1.4,0.4l0.5,0.1l-4,19.3l0,0.1l0,0.1h-0.6l-1.8-0.4l-1-0.5l1.1-4.8l1.2-7.1L222.8,33.9
	 M202.1,54.3l0.9-0.5l0.4-0.2l0.4-0.1l1.1-0.1l2.7,0.4l-0.2,0.3l-0.3,1l-0.1,1.1l0,0.4l-1.7-0.3h-0.1l-0.5,0l-0.7,0.2l-0.6,0.6
	l-0.2,0.8l0.2,0.8l0.5,0.5l0.8,0.2l1.4,0.3v0l-0.3,0.6l-0.3,1l-0.1,1l0,0.7l-0.1,0l0-0.2l-1.3-0.3l-1.2-0.4l-0.8-0.5l-0.6-0.5
	l-0.5-0.6l-0.4-0.8l-0.3-0.8l-0.1-0.4v-1l0.2-0.9l0.4-0.9l0.6-0.8L202.1,54.3 M218.5,53.6l-0.1,0.3l0.9,0.4l-0.2-0.1l-0.8-0.4
	l-0.1-0.2l0.2,0H218.5 M217.9,53.9L218,54l0.9,0.5l2.6,0.8l1,0.1l0.1-0.1l-2.1,5.7l-0.4,0.1l-0.9-0.1l-1.2-0.3l-1.2-0.4l-0.8-0.4
	l-0.2-0.3l1.1-2.8L217.9,53.9 M222.6,54.8l0.1,0.1l-0.3,0.1l-0.9-0.1l0,0l0.9,0L222.6,54.8L222.6,54.8 M207.9,54.2l0.4-0.6l0.2-0.1
	l0.6,0.1l-0.1,0l-0.4,0.7l-0.4,2.2l0.1,0.8l0.1,0.1l-0.5-0.1l-0.3-0.4l-0.1-0.7l0.1-1L207.9,54.2 M203.8,57.3l0.5-0.4l0.6-0.2h0.4
	l1.9,0.3v0l0.4,0.6l0.9,0.1l2.8,0.5l0.2-0.1l0.1-0.2l1.2,0.1l-0.1,0.2l0,0l0.2-0.1l0.1,0l0.3-0.2l0.1-0.3l-0.1,0l0-0.1l2.3,1.1
	l-0.3,0.9l-1.2,1.2l-1.3-0.3l-2.7-0.4l-1.4-0.3l-0.3-0.2l-0.4-0.1l-0.7-0.1v0l-0.8,0.1l-0.1,0.1l-0.1,0.1l-1.4-0.3l-0.6-0.2
	l-0.4-0.4l-0.2-0.6L203.8,57.3 M208.7,55.1l0.1-0.3l0.1,0.2L208.7,55.1 M208.6,55.7L208.6,55.7l0.5-0.3l0.4,0.7l-0.5,0.3L208.6,55.7
	 M208.5,56.6v-0.2l0-0.3l0.2,0.4L208.5,56.6 M208.5,57l0.4-0.2L209,57l-0.4,0.3l-0.1-0.1V57 M212.3,54.1L212.3,54.1l0.1,0.2
	l-0.4,0.2l-0.3,0.6l-0.2,0.8l-0.1,0.8l0,0.7l0.1,0.2l-0.1,0.1l-0.1-0.1l-0.1-0.7l0.1-1l0.3-1l0.3-0.6L212.3,54.1 M209.5,53.6
	l0.4,0.1l-0.3,0.1L209.5,53.6 M210.2,53.9l0.1,0.3l-0.3,0.2l-0.2-0.3L210.2,53.9 M209.2,53.8l0.1,0.2l-0.4,0.2L209.2,53.8
	L209.2,53.8 M211.9,54l-0.1,0.1l-0.4,0.7l-0.3,1.1l-0.1,1.1l0.1,0.9l0,0l-0.6-0.1l0.1-0.1l0,0l-0.2-0.3l-0.1-0.7l0.1-0.7l0-0.3
	l0.3-0.9L211,54l0.2-0.1L211.9,54 M210.7,53.8l-0.1,0.2l-0.1-0.3L210.7,53.8 M211.8,56l0.2-0.7l0.3-0.5l0.3-0.2l0.1,0l0.2,0
	l-0.4,0.6l-0.2,0.8l-0.1,0.9l0.1,0.6l0.1,0.1l-0.3,0l-0.2-0.3l0-0.6L211.8,56 M210.3,54.9l-0.1-0.1l0.1-0.1L210.3,54.9 M209.9,54.9
	l0.3,0.4l-0.1,0.3l0,0.2l-0.2,0.1l-0.4-0.7L209.9,54.9 M209.7,54.6l-0.5,0.3l-0.2-0.3l0.5-0.3L209.7,54.6 M209.8,56.6l-0.5,0.3
	l-0.1-0.2l0.5-0.3L209.8,56.6 M209.2,57.3l0.1,0.2l-0.3-0.1L209.2,57.3 M209.6,57.4l-0.1-0.2l0.5-0.3l0,0.4l-0.1-0.1h0L209.6,57.4
	 M210.2,57.7l-0.3-0.1l0.2-0.1L210.2,57.7 M213.6,54.8l0.1,0.1v0.4l-0.1-0.2h0l-0.2,0.1l-0.1,0.2l0-0.1l0.3-0.5L213.6,54.8
	 M213.7,55.4L213.7,55.4l0.6,0.3l2.2,1l-0.6,1.6l-2.6-1.2l0,0l0,0l0,0l0-0.4l0.1-0.5l0.1-0.5l0.2-0.3L213.7,55.4 M213.1,54.8
	l0.1-0.1l-0.3,0.5l-0.2,0.9l-0.1,0.9l0.1,0.6l-0.1-0.2l-0.1-0.5l0.1-0.8l0.2-0.8L213.1,54.8 M212.9,57.5v-0.2V57.5l0.1-0.1l0.1-0.1
	l-0.1,0.3L212.9,57.5 M212.5,60.7l-0.2,0.2l-0.4,0.7l-0.3,0.9l-0.1,1.1l0.1,0.8l0,0l-0.5-0.1l0.1-0.1l0,0L211,64l-0.1-0.7l0.1-1
	l0.3-0.9l0.4-0.6l0.1-0.1L212.5,60.7 M212.6,61.1l0.3-0.3l1,0.2l-1,1v0l-0.9,2.4l-0.1-0.7l0.1-1.1l0.3-0.9L212.6,61.1 M214.2,61.1
	l0.4,0.4l1.1,0.6l1.3,0.5l-0.4,1.2l-0.4-0.1l-1.3-0.5l-0.9-0.5l-0.6-0.4l-0.1-0.2L214.2,61.1 M214.8,61.3l-0.3-0.4l1-1l0.1,0.2
	l0.9,0.5l1.2,0.5l1.3,0.3l1,0.1l0.2-0.1l0.1,1.4l-0.6,0.1l-1.2-0.1l-1.4-0.4l-0.1,0l-1.4-0.5L214.8,61.3 M210.2,60.3l0.4,0.1
	l-0.2,0.1L210.2,60.3 M209.9,60.5l0.1,0.2l-0.4,0.2L209.9,60.5L209.9,60.5 M209.1,60.1l0.6,0.1l-0.1,0.1l-0.4,0.7l-0.3,1v0.1l-0.1,1
	l0.1,0.8l0.1,0.1l-0.5-0.1l-0.3-0.4l-0.1-0.7l0.1-1l0.3-1l0.3-0.5l0.1-0.1L209.1,60.1 M210.3,61.3l-0.5,0.3l-0.1-0.3l0.5-0.3
	L210.3,61.3 M211.3,60.7l-0.1-0.2l0.3,0L211.3,60.7 M210.9,61.6l-0.1-0.1l0.2-0.1L210.9,61.6 M211,60.9l-0.4,0.2l-0.1-0.3l0.4-0.2
	L211,60.9 M210.8,62l-0.1,0.3l0,0.3l-0.2,0.1l-0.4-0.7l0.5-0.3L210.8,62 M209.5,61.7l-0.2,0.1l0.1-0.3L209.5,61.7 M209.2,62.2
	l0.5-0.2l0.4,0.8l-0.5,0.3l-0.4-0.7V62.2 M209.1,63.4v-0.2l0-0.3l0.2,0.4L209.1,63.4 M210.3,63.1l0.1,0.2l-0.5,0.3l-0.1-0.2
	L210.3,63.1 M210.2,64.1l-0.1-0.2l0.5-0.3l0.1,0.4l-0.1-0.1h0L210.2,64.1 M209.3,64l-0.1-0.1v-0.1l0.4-0.2l0.1,0.2L209.3,64
	 M209.6,64.2l0.2-0.2l0.1,0.2L209.6,64.2 M210.7,64.2l0.1,0.2l-0.4-0.1L210.7,64.2 M213.7,63l1,0.5L216,64l0.4,0.1l-1.3,3.3l-1-0.2
	l-1.6-0.8l-0.6-0.4l-0.1-0.2l0.3-0.7l0.3,0.1l0,0l-0.2-0.3v0l0.9-2.2L213.7,63 M206.5,59.8l0.3-0.2l0.1,0l-0.4,0.8l-0.3,1.1
	l-0.1,1.1l0.1,0.8l0,0.1l-0.1-0.1l-0.1-0.2l-0.1-0.8l0.1-1l0.3-0.9L206.5,59.8 M206.8,60.6l0.4-0.7l0.2-0.1l0.4,0.1l-0.4,0.7
	l-0.3,1.1l-0.1,1.1l0.1,0.9l0.2,0.2l-0.6-0.1l-0.1-0.4l-0.1-0.7l0.1-1L206.8,60.6 M208,60l0.1-0.1l0.1,0l0.1,0.3l-0.1,0.2l-0.1-0.2
	h0l-0.3,0.2l-0.2,0.4l0.1-0.2L208,60 M208.1,60.7l0.2-0.1L208.1,60.7l-0.2,1.1l-0.1,1.1l0,0.6l-0.3,0.2l-0.2-0.2v-0.2l0.2,0.2h0
	l0.2-0.2v0l-0.1-0.2l0-0.5l0.1-0.7l0.2-0.7L208.1,60.7 M214.6,68.8l0.3-1l0.2,0.2l0.1,0.1l-0.6,1.9l0-0.2V68.8 M212.3,66.6l1.7,0.8
	l0.6,0.1l-0.4,1.1l0,1.2l0.2,1l0,0l0.1,0l0.2,1.7l0,0h0.1l-0.1,0v0l1.7,2.4l7.3,6.4l1.4,2l0.7,2.5l0.2,1.7v3l-0.4,2.3l-0.3,0.8
	l-2.3,4l-6.3,12.7l-3.2,7.7l-0.8,3.1l0,0l0.1,0l-0.2,0.8l0.4,2l0.6,1l-0.5,0.1l-0.4,0l-1.7-0.6l-0.8-1.4l0-2.1l0.8-3l4-9.3l1.1-2.6
	l6.5-12.5l0.8-2.5l0.2-2.3l-0.3-2.3l-1.2-2.4l-8.6-8.3l-2.5-3.6l-0.3-3.3l0.9-2.7L212.3,66.6 M216.7,64.4l0.8,0.4l2.1,0.5l0.8-0.1
	l0.1,0l-1.2,3.4l-0.2,0.1h-0.7l-1.1-0.1l-1-0.3l-0.7-0.3l-0.2-0.2L216.7,64.4L216.7,64.4 M217.6,64.4l-0.6-0.3l-0.1-0.2l0.4-1.2
	l1.4,0.3l1.2,0.2l0.6-0.1l0.1,1.6l-0.2,0.1l-0.7,0L217.6,64.4 M218.4,68.9h0.3l-0.6,1.5l0.1,1.5l1,1.5l4.9,4.1l2.8,3l1.7,3.5
	l0.5,3.7l-0.1,0.8l-0.5,5.5l-0.9,2.6l-1.6,3l-6.4,12.4l-3.3,7.9l-0.6,2.2l0.2,1.4l1.5,0.8l1.3-0.1l1.7-1l2-1.8l1.4-2l0.8-2l1.1-5.1
	l0.1-8.2l0.5-4.3l1.6-3l0.9-2.7l0.5-5.9l1.7-2l0.4-0.4l0.1,0l0.3,0.1l0.4,0.4l0.3,0.6l0.1,0.6l-0.1,0.3l-0.7,0.8l-0.2,0.2l-0.7,1.1
	l-0.6,1.3l-1.4,5.8l-1.2,9.5l-0.2,7.7l-0.6,3.1l-0.9,2.7l-0.9,1.6l-1.5,1.9l-3.1,2.7l-0.7,0.4l-0.8,0.3l-1.8,0.1l-1.6-0.6l-1.4-1.2
	l-0.8-1.1l-0.4-1.9l0.7-2.8l3.3-7.6l8.2-16.5l0.7-2.1l0.4-2.3v-3l-0.2-1.8l-0.7-2.6l-1.4-2.2l-7.3-6.4l-1.7-2.4l-0.2-2.2l0.7-2.2
	l0.6,0.3l1,0.3L218.4,68.9 M203.9,99.1h0.2l0.1,0.2l-0.3,0.1l-0.5,0.5l-0.4,0.6l-0.1,0.7v0.3l0.1,0.1l-0.1,0l-0.1-0.4v-0.2l0.1-0.7
	l0.4-0.7l0.6-0.5L203.9,99.1 M203.8,98.8l-0.2,0.1l-0.6,0.6l-0.4,0.7l-0.2,0.8l0,0.3l0.1,0.2l-5-0.4l-0.2-0.2l-0.1-0.3v-0.4l0.1-0.3
	l0.3-0.5h0.1l1.4,0.3h0.1l0.4-0.1l0.3-0.3l0.2-0.4l-0.1-0.2l-0.2-0.4l-2.1-1.3l-0.1,0l0-0.1l0.1-0.4l0.2-0.4l0.3-0.2l0.1-0.1l0.2,0
	l0.6,0.5L203.8,98.8 M204.1,99.7l0.1-0.1h0.2h0.1l11.1,6.4l0.4,0.3l-1,2.4l-0.5-0.4l-11.2-6.5l-0.2-0.3v-0.2l0.1-0.6l0.3-0.6
	L204.1,99.7 M197.4,74.3l0.7,0.3l0.2,0.3l0.1,0.3l0.3,1.7l-0.2-0.3l-0.9-0.4l-1,0.1l-0.9,0.6l-0.4,0.6l-0.1-0.6l-0.1-0.6v-0.5
	l0.2-0.4l0.3-0.4l0.7-0.5L197.4,74.3 M197.7,76.5l0.7,0.3l0.4,0.6l0,0.7l-0.2,0.4l-0.1-1l-0.1-0.2l-0.1-0.2l-0.1-0.1l-0.6-0.3
	l-0.6,0l-0.6,0.4l-0.1,0.2l-0.2,0.4v0l0.3,0.1l0,0l0.1-0.4l0.1-0.1L197,77h0.5l0.4,0.2l0.1,0.2l0.1,0.1l0.2,2l0,0.3l0.2,2.1l0.1,0.7
	l-0.1,4.6l-0.8,2.5l-0.4,0.8l-0.2,0.7l-0.1,0.8l0.1,1.4l0.4,1.1l0.6,0.8l-0.1,0.1l-0.4,0.3l-0.3,0.5l-0.1,0.3l-0.6-0.6l-0.7-1.1
	l-0.4-0.9l-0.1-0.6l-0.1-1.3l0.1-0.7l0.2-0.7l0.4-0.8l0.9-2.6l0-0.5l0.1-1.9v-0.5v-0.3l0-0.3v-0.2v-1.2l-0.1-0.7l-0.1-0.9l0.1,0
	v-0.1h-0.1l-0.1-0.7l-0.3-2.1v0l-0.3,0.1l0,0l0.2,1.6l-0.2-0.1l-0.4-0.6v-0.1v-0.7l0.4-0.7l0.7-0.5L197.7,76.5 M199.2,78.6l-0.1,0.4
	l-0.4,0.3v-0.2l0.4-0.8L199.2,78.6 M198.7,79.6l0.5-0.4v0.4l-0.1,0.2l-0.2,0.2l-0.1,0.1L198.7,79.6 M196.2,73.8l0.4,0.2h-0.1
	l-0.9,0.6l-0.4,0.5l-0.2,0.5v0.6l0.1,0.5l-0.2,0.1l-0.7,0.4h-0.2l-0.5,0.2l0.1-0.4l-0.2-0.8l-0.4-0.7l-0.6-0.6l-0.2-0.1l1.1-0.6
	l0.6-0.3l0.6-0.1l0.6-0.1l0.7,0L196.2,73.8 M192.3,75.3l-0.3-0.1h-0.3l-0.6,0.4l0.1-0.3l0.1-0.1l0.1-0.1l0.2-0.1l0.4,0.1l0.5,0.5
	l0.1,0.1L192.3,75.3 M191.9,75.5l0.2,0.1l0.3,0.3l0.2,0.4l0.1,0.4l0,0.1l0,0.1l-9.6,5.6l-2.2,2.6l0.4,2.6l1.3,1.7l6.8,5.8l4.4,3
	l2.3,0.9l1.1,0.3l-0.2,0.3l-0.1,0.4l0,0.6l0.1,0.4l-1.4-0.3l-1.4-0.5l-1.1-0.6l-4.8-3.3l-4.4-3.5l-3.1-3l-1.2-2.6l0.1-3.3l2.3-2.8
	l8.9-5.1l0.9-0.5H191.9 M192.9,76.2L192.9,76.2l0.2,0.8l-0.1,0.3l-0.1,0.2l-0.1,0.1l-0.4-0.1l0.4-0.2L193,77l0.1-0.3L192.9,76.2
	 M192.8,77.9h0.1l0.2-0.1l0.7-0.3h0.5l0.3,0.4v0l-0.2,0.4v0.3l-0.2,0.3l-0.1,0.4v3.9l-0.1,0.6l0.1,1l0.4,0.5v0.4l0.1,0.4l0.3,0.3
	l0.3,0.2l0.5,0.2l0.5,0.1h0.4v0.1l-0.8,2.5l-0.4,0.8l-0.2,0.7l-0.1,0.8l0.1,1.3l0.1,0.6l0.4,0.9l0.7,1.2l0.6,0.7l0.2,0.3v0.1
	l2.2,1.3l0.1,0.2l0,0.1l-0.1,0.3l-0.2,0.2l-0.3,0.1h0l-1.4-0.3h0l-0.3,0.1l-1.2-0.3l-2.2-0.9l-4.4-3l-6.7-5.7l-1.2-1.6l-0.4-2.4
	l2-2.4l8.8-5.1l0.6,0.1l0.1,0.1H192.8 M194.9,77.1l0.2,0l0.1,0.7l-0.2-0.1l-0.1,0.1l-0.3-0.4L194.9,77.1 M195,78.9l0-0.5l0.3-0.5
	l0.1,0.7v0.1l0.5,0.8l0,0l-0.3-0.2L195,78.9 M194.5,79.4L194.5,79.4l0,2.9v0.1l0,0.1V79.4 M194.8,79.7v-0.5l0.5,0.4l0.4,0.2l0.4,0.1
	l0.2,0.1l0.1,0.6l-0.2,0l-0.4-0.1l-0.3-0.1l-0.1,0l-0.2-0.1l0,0L194.8,79.7 M195.6,80.8l0.1,0l0.2,0.1l-0.2,0.1L195.6,80.8
	L195.6,80.8 M196.2,81.7l-0.3-0.4l0.5-0.3h0.1l0.1,0.6L196.2,81.7 M195,80.4L195,80.4l0.1,0.3l-0.1,0.1l-0.2-0.2v-0.3L195,80.4
	 M195.4,81.5l0.1-0.1l0.3,0.5l-0.1,0.1L195.4,81.5 M195.3,81.2l-0.1-0.2l0.1-0.1l0.1,0.2L195.3,81.2 M195.4,82.3l0.1,0.1l0.3,0.1
	l0.4,0.1l0.1,0l0.4,0.1v0.6l-0.3,0l-0.4-0.1l-0.4-0.2l-0.2-0.1l-0.5-0.5v-0.5L195,82L195.4,82.3 M195.1,83.2l0.2,0.3l0.3,0.2
	l-0.2-0.1L195.1,83.2l-0.2-0.3l0-0.1L195,83L195.1,83.2 M196.6,81.9l0.1,0.4l-0.2,0l-0.1-0.2L196.6,81.9 M195.8,83.4l0.5,0.1
	l0.4,0.1v0.1l-0.5-0.1L195.8,83.4l-0.1-0.1L195.8,83.4 M195.7,84.2l0.6,0.2h0.2v0.4l-0.2,0l-0.5-0.1l-0.4-0.2l-0.3-0.2l-0.2-0.2
	l-0.1-0.2l0,0l-0.1,0.1v-0.3l0.5,0.4L195.7,84.2 M195.8,84.9l0.5,0.1l0.3,0l0,0.7l-0.1,0l-0.6-0.2l-0.1,0l-0.3-0.2l-0.2-0.2
	l-0.1-0.2v-0.2l0.2,0.1L195.8,84.9 M194.7,84.9l-0.3-0.2l0-0.2l0.5,0.4l0.1,0.4l-0.1-0.1L194.7,84.9 M195.1,86.3l-0.2-0.2l-0.1-0.2
	v-0.2l0.1,0.1l0.5,0.2l0.3,0l0.6,0.2l0.2,0v0.6l-0.4,0l-0.4-0.1l-0.4-0.2L195.1,86.3 M199.2,80.3v0.9l-0.4-0.5v-0.1L199.2,80.3
	L199.2,80.3 M199,82.6l-0.1-0.5l0.2-0.1v0.6l-0.1,0.4l-0.1,0.3V82.6 M199.2,83.7l-0.1,0.2l-0.1,0.2l-0.1,0.1v-0.5l0.2-0.2V83.7
	 M220.3,115.2l-0.2,1.2l-2.3,3.3l-1.5,1.4h0l0.4-1.2l2.9-7.1l0.6,1L220.3,115.2 M219.6,112.5l0.2-0.4l1.2-2.2l1.7,2.4l0.7,3l-0.9,3
	l-2.9,3.7l-1.8,1.5l-0.6,0.3l-1.1-0.6l-0.2-1.2l0.1-0.5l0.3-0.1l1.7-1.4l2.3-3.4l0.3-1.4l-0.3-1.4L219.6,112.5 M223,112.1l-1.8-2.6
	l4.7-9l-0.4,3.4l-0.1,8.2l-1.1,5.1l-0.7,1.9l-1.4,2l-2,1.7l-1.6,0.9l-0.6,0.1l0.1-0.1l1.9-1.6l2.9-3.8l1-3.2L223,112.1 M239,75
	L239,75l0.1,0.4v0L239,75 M240.1,77l0.8,2.2l0.1,2.4l-0.4,1.4l-0.5,1l-0.1-0.6l-0.3-0.6l-0.5-0.4l-0.3-0.1l-0.3,0l-0.1,0l0.5-1.4
	l-0.3-1.9l-1.1-1.6l-0.1-0.3l-0.1-0.1l0-0.1v-0.2l0.2-0.5l0.4-0.5l0.4-0.3l0.2,0L240.1,77 M239,82.6l0.4,0.4l0.3,0.5l0.1,0.5l0,0.1
	l0.1,0.2l-0.3,0.3l-2.4,1.4l0-0.2l0.1-0.3l-0.3-1l-0.6-1l-0.8-0.7l-0.3-0.1l0.2-0.1l0.4-0.6l0.9-1.5l0.4,0l0.2,0.1l0.4,0.4l0.3,0.5
	l0.1,0.5l0,0.1l-0.1,0.2l-0.1,0.1l-0.4,0.2l-0.3-0.1l-0.2,0.4v0l0.6,0l0.5-0.4l0.1-0.1l0-0.1l0.1,0.1h0l0.1,0h0.2L239,82.6
	 M237.7,73.8h-0.2l-0.2,0L237,74l-0.6,0.5l-0.4,0.7l-0.2,0.9l0,0.3l0.1,0.3l0.2,0.2l0.5,0.4l-0.2,0.1l-0.2,0l-0.3-0.2l-0.2-0.7
	l0.2-1l0.6-1l0.8-0.7l0.6-0.2l0.4,0.2l0.2,0.4l-0.4-0.2h0l-0.1,0.3v0l0.6,0.4l-0.3,0l-0.7,0.4l-0.5,0.7l-0.3,0.8l0,0.4l-0.3-0.2
	l-0.1-0.1l-0.1-0.2v-0.3l0.1-0.7l0.4-0.6l0.6-0.5l0.2-0.1h0.1h0.2l0,0L237.7,73.8L237.7,73.8 M236.3,73.3l0.3-0.1l0.6-0.1l0.4,0.2
	l-0.6,0.1l-0.9,0.8l-0.6,1l-0.3,1.2l0.1,0.5l-0.4-0.2l-0.1-0.1l-0.1-0.4v-0.3l0.1-0.3l0.1-0.7l0.6-1L236.3,73.3 M238.5,74.9l0.3,0
	L239,75l-0.3-0.1L238.5,74.9L238.5,74.9 M238.3,74.9L238.3,74.9L238.3,74.9l-0.6,0.4l0,0L238.3,74.9 M235.9,73.1L235.9,73.1
	l-0.2,0.3v-0.3H235.9 M234.8,74.4h0.1l-0.1,0.3V74.4 M235.1,74.1l-0.3,0v-0.9h0.6l0,0.6L235.1,74.1 M234.1,73.1L234.1,73.1l0.3-0.1
	l0,1H234v-0.7L234.1,73.1 M233.6,74.4h0.1l0,0.5h-0.2L233.6,74.4 M234,74.4h0.4l0,0.4H234V74.4 M234,75.2h0.5l0.1,0.4l-0.5,0V75.2
	 M233.4,75.2h0.3v0.4l-0.2,0l-0.1-0.1L233.4,75.2 M234,76.1V76h0.5l0,0.4l0,0.1L234,76.1 M237.3,77.6h0.1l1,1.4l0.3,1.8l-0.3,0.7
	l-0.1-0.2l-0.3-0.6l-0.5-0.4l-0.3-0.1l-0.3,0l0.2-0.7l0.1-0.9L237.3,77.6 M231.9,74.2l0-0.2L231.9,74.2l0.1,0.4l0.1,0.2l0.1,0.3
	l-0.2-0.3L231.9,74.2 M232,84.8l-0.4-0.1l3-1.7l0.3-0.1h0.2l0.4,0.1l0.7,0.6l0.5,0.9l0.2,0.9l0,0.3l-0.1,0.5l-3.3,1.8l0.1-0.5
	l-0.3-1.1l-0.6-1L232,84.8 M231.3,85.4h-0.2l-0.2,0.4l-0.4,0.4v-0.1V86l0.2-0.8l0.2-0.1l0.3-0.1l0.6,0.2l0.7,0.6l0.5,0.9l0.2,1
	l-0.2,0.6l-0.4,0.3h0l-0.3-0.1l0.6-0.7l0.1-0.5l-0.2-0.7l-0.3-0.6l-0.6-0.5l-0.4-0.1L231.3,85.4z"/>
<text transform="matrix(1 0 0 1 228.6965 155.258)" class="st2 st3">POST SB84-32-51</text>
</svg>
