<?xml version="1.0" encoding="utf-8"?>
<!-- Generator: Adobe Illustrator 24.1.0, SVG Export Plug-In . SVG Version: 6.00 Build 0)  -->
<svg version="1.1" id="Ebene_1" xmlns="http://www.w3.org/2000/svg" xmlns:xlink="http://www.w3.org/1999/xlink" x="0px" y="0px"
	 viewBox="0 0 349.1 161" style="enable-background:new 0 0 349.1 161;" xml:space="preserve">
<style type="text/css">
	.st0{fill:#999999;}
	.st1{fill:#0099FF;}
	.st2{fill:#CCCCCC;}
	.st3{fill:none;stroke:#1D1D1B;stroke-width:0.5;stroke-miterlimit:5;}
	.st4{fill:none;stroke:#1D1D1B;stroke-width:0.25;stroke-miterlimit:5;}
	.st5{fill:none;stroke:#1D1D1B;stroke-width:0.55;stroke-miterlimit:5;}
	.st6{font-family:'ArialMT';}
	.st7{font-size:14px;}
	.st8{fill:none;stroke:#FF9900;stroke-linecap:round;stroke-linejoin:round;}
</style>
<g>
	<path class="st0" d="M223.4,76.9l-0.2-0.2l-1.3-0.8c0,0.2-0.1,0.4-0.1,0.6c-0.1,0.9,0.2,1.5,0.8,1.8l1.6,1.1l-0.1-0.2
		C224.1,78.3,223.8,77.6,223.4,76.9 M225.4,72.9l-1.3-0.8c-0.6,0.4-1.1,1-1.5,1.7c-0.4,0.6-0.6,1.3-0.8,1.9v0.1l1.3,0.8
		c0.5-0.4,1-0.9,1.5-1.7C225.1,74.3,225.3,73.6,225.4,72.9 M216.7,68.3c-0.4,0.2-0.7,0.6-1,1.1s-0.5,1-0.5,1.4s0.1,0.8,0.3,1
		l6.4,3.9c0.1-0.7,0.4-1.3,0.8-1.9c0.4-0.7,0.9-1.2,1.5-1.7l-6.4-4l-0.2-0.1C217.3,68,217,68.1,216.7,68.3 M214,68.4
		c-0.3,0.5-0.4,1-0.4,1.5c-0.1,0.4,0,0.7,0.2,0.9l1.6,1c-0.2-0.2-0.3-0.5-0.3-1s0.2-0.9,0.5-1.4s0.6-0.8,1-1.1
		c0.3-0.2,0.6-0.3,0.9-0.2l-1.4-0.9L216,67c-0.3-0.1-0.6,0-0.9,0.2C214.7,67.5,214.3,67.9,214,68.4 M214.4,66c-0.3,0-0.6,0.1-1,0.2
		c-0.4,0.2-0.7,0.6-1,1.2c-0.3,0.4-0.4,0.9-0.5,1.3c0,0.4,0.1,0.8,0.3,1l1.6,1c-0.2-0.2-0.3-0.5-0.2-0.9c0-0.5,0.1-1,0.4-1.5
		c0.3-0.5,0.7-0.9,1.1-1.1c0.3-0.2,0.6-0.3,0.9-0.2L214.4,66 M211.8,65.3c0.3-0.2,0.6-0.3,0.9-0.2l-1.6-1c-0.3-0.1-0.7-0.1-1.1,0.2
		c-0.4,0.2-0.8,0.6-1.1,1.1s-0.5,1-0.5,1.5s0.2,0.8,0.5,1l1.6,1c-0.2-0.2-0.3-0.5-0.2-0.9c0.1-0.5,0.2-1,0.4-1.5
		C211,65.9,211.4,65.5,211.8,65.3 M214.4,66l-1.5-0.8l-0.2-0.2c-0.3-0.1-0.6,0-0.9,0.2c-0.4,0.3-0.8,0.6-1.1,1.1
		c-0.2,0.5-0.4,1-0.4,1.5c0,0.4,0.1,0.7,0.2,0.9l1.7,1c-0.2-0.2-0.3-0.5-0.3-1c0.1-0.5,0.2-0.9,0.5-1.3c0.3-0.5,0.7-0.9,1-1.2
		C213.7,66.1,214.1,66,214.4,66 M228,72.7c-0.7,0.2-1.5,0.3-2.2,0.2h-0.4c-0.1,0.7-0.3,1.3-0.7,2c-0.5,0.8-1,1.3-1.5,1.7l0.2,0.2
		c0.4,0.7,0.7,1.4,0.8,2.1l0.1,0.2l0.2,0.1c0.3,0.2,0.6,0.2,0.9,0.1c0.1,0,0.2,0,0.2-0.1c0.4-0.1,0.8-0.3,1.2-0.7
		c0.5-0.4,1-0.8,1.3-1.4s0.6-1.2,0.7-1.8c0.1-0.5,0.2-0.9,0.1-1.2c0-0.1,0-0.2,0-0.3c-0.1-0.4-0.2-0.8-0.6-1.1l-0.2-0.2L228,72.7
		 M228.2,72.6l-1.6-1c-0.5-0.3-1.2-0.3-1.9,0.2c-0.2,0.1-0.3,0.2-0.5,0.3l1.3,0.8h0.4c0.8,0.1,1.5,0,2.2-0.2L228.2,72.6 M153.3,46.2
		l0.5-0.9l0.8-0.6l9.2-5.3l-0.9-0.5l-2.8,1.6l-6.5,3.7l-0.7,0.7l-0.5,0.9l-0.2,0.9v53.6l0.2,0.8l0.9,0.5l-0.2-0.8V47.1L153.3,46.2
		 M174.3,90.2L174.3,90.2l1.1-0.1l1.9-0.4h0.2l1.5-0.6l0.8-0.8v-1.4v-0.6L179,87l-1.5,0.6l-3.2,0.4l-2.1,0.6l-1.6,1l-1.1,1.2
		l-0.8,1.8l-0.9,0.9l-1.5,0.5h-1.7l-1.6-0.5l-0.9-0.9v2.1l0.9,0.8l1.1,0.5h0.4h1.7l1.5-0.5l0.9-0.8l0.8-1.8l0.1-0.1l0.9-1.2l1.6-0.9
		L174.3,90.2 M177.3,83.8h-0.7h-0.8h-0.4l-3.8,0.6H171l-0.5-0.1l-0.3-0.3l-0.1-0.1l-1.3-0.8l-1.8,0.6l-1.7,1.4l-1.8,3.1l-0.1,0.5
		l-1.3,2.9v0.9l0.9,0.9l1.6,0.5h1.7l1.5-0.5l0.9-0.9l0.8-1.8l1.1-1.2l1.6-1l2.1-0.6l3.2-0.4l1.5-0.6l0.8-0.8V85l-0.8-0.9l-1.5-0.5
		h-0.2 M169.5,47.3l-0.8,1.8l-0.9,0.9l-1.5,0.5h-1.7L163,50l-0.9-0.9v2.1l0.9,0.9l1.6,0.5h1.7l1.5-0.5l0.9-0.9l0.8-1.8l1.1-1.2
		l1.6-0.9l3.7-0.9l-0.5-0.2l0.5,0.2l1.6-0.2l1.5-0.5l0.8-0.9v-2.1l-0.8,0.8l-1.5,0.6l-3.2,0.4l-1.1,0.3l-1.1,0.2l-1.6,0.9
		L169.5,47.3 M170.1,40.6l-0.1-0.2l-1.3-0.8l-1.8,0.5l-0.8,0.8l2.6,1.4l-2.6-1.4l-0.9,0.8l-1.8,3.1l-0.1,0.5l-1.3,2.9v1l0.9,0.9
		l1.6,0.5h1.7l1.5-0.5l0.9-0.9l0.8-1.8l1.1-1.3l1.6-0.9l1.1-0.2l-2.1-1.3l2.1,1.3l1.1-0.3l3.2-0.4l1.5-0.6l0.8-0.8v-1.1L179,41
		l-1.5-0.6h-1.8l-4.2,0.7H171L170.1,40.6 M179.4,29.5l-0.8,0.2l-15.8,9.2l0.9,0.5l15.8-9.2l0.7-0.1L179.4,29.5 M106.1,121.6l2.3-2.2
		l1.8-2.8l-10.1-5.8l-0.2,0.1l-1.4,2.9l-0.7,2.9l-0.1,2.6l-0.4,0.2l0.5,0.2l0.6,1.5l0.8,1.2l0.3,0.2l1.9,0.6l2.2-0.4L106.1,121.6
		 M111.1,116.1l-0.5-0.2l-10-5.7l-0.4,0.6l10.1,5.8l0.4,0.1L111.1,116.1 M110.6,115.9l1.3-4.1l-8.4-5l-1.7,1.6l-1.2,1.8L110.6,115.9
		 M112,111.8l0.5-0.2l-8.6-5l-0.3,0.2L112,111.8 M104,106.5L104,106.5h-0.2l8.6,5l0.1-0.6l-0.4,0.2L104,106.5 M104.1,105.8l-0.1,0.6
		v0.1l8.1,4.6l-0.1-2.6l-0.8-2l-1.3-1.3l-1.8-0.4l-2.2,0.5l-0.5-0.2L104.1,105.8z"/>
	<path class="st1" d="M158,107.7l1.3,0.8l-1.6-2.2l-1.7-1l1.4,2.1L158,107.7 M157.1,102.6l-0.4,1.1l-0.6,1.7l1.7,1l1.6-4l-1.8-1
		L157.1,102.6 M156.7,103.6l0.4-1.1l-0.3,0.6L156.7,103.6 M161.3,99.6l-1.1-0.4l-1.4,0.4l-1.4,1.1l-1.1,1.7l-0.6,1.8v1.6l0.6,1.1
		l1.1,0.4l-1.4-2.1l0.6-1.7l0.1-0.5l0.3-0.6l0.5-1.3l3.1-1.8l0.8,0.4L161.3,99.6 M164.1,102.7l-1.7-2.1l-3.1,1.8l-1.6,4l1.6,2.2
		l3.1-1.8l0.9-2L164.1,102.7 M162.4,100.5l-0.9-0.6l-0.8-0.4l-3.1,1.8l1.8,1L162.4,100.5 M108.6,131.6l-1.6,4l1.6,2.2l3.1-1.8
		l0.8-1.9l0.8-2.1l-1.6-2.2L108.6,131.6 M107,135.6l-1.7-0.9l1.4,2.1l0.1,0.1l0.4,0.2l1.4,0.8L107,135.6 M106.3,131.9l-0.4,0.6v0.6
		L106.3,131.9 M106.5,130l-1.1,1.6l-0.7,1.9v1.6l0.2,0.1v-1.6l0.6-1.8l1.1-1.7l1.4-1L106.5,130 M108.6,131.6l-1.8-0.9l-0.5,1.3
		l-0.3,1l-0.6,1.6l1.7,0.9L108.6,131.6 M110.8,129.3l-0.8-0.5l-3.1,1.8l1.8,0.9l3.1-1.8L110.8,129.3 M110.8,129.3l-0.2-0.4l-1.1-0.4
		l-1.3,0.4v0.1l-1.4,1l-1.1,1.7l-0.6,1.8v1.6l0.6,1.1l1.2,0.4l-1.4-2.1l0.6-1.6v-0.6l0.4-0.6l0.5-1.3l3.1-1.8L110.8,129.3
		 M87.8,53.5l-0.3,0.2l-0.1,0.8L87.8,53.5 M91.7,53.9l-2.3-1.2l-0.8,0.1l-0.8,0.8l-0.4,1l-0.1,0.2v0.9l0.6,0.7L91.7,53.9 M138,26.3
		l0.1-1.1l-0.1,0.1V26.3 M138.6,24.2l0.4-0.4l-0.8,0.5l-0.1,0.9L138.6,24.2 M139,23.8l-0.4,0.4l-0.5,1l-0.1,1.1l0.6,0.5l3.8-2.2
		l-2.2-1.3l-0.8,0.2L139,23.8 M185.6,76.1l-0.5,0.3l0.3,0.8L185.6,76.1 M185.9,76.9l-0.3-0.8l-0.2,1.1l0.1,1.1l-0.1,0.6l-0.3,0.6
		l0.5-0.3l0.3-0.5v-0.1l0.1-0.5L185.9,76.9 M176.6,94l-0.8-0.1v3.6v10.8l0.4,1.8l0.8,1l1.2,0.4h0.3l1.4-0.4l1.4-1l1.4-1.6l1.1-1.9
		l0.8-2.1l0.2-11.1l-0.3,0.2l-0.9-0.1v9.1l-0.3,2.2l-1,2.2l-1.4,1.9l-1.6,1.1l-1.1,0.1l-0.8-0.6l-0.4-1.6V96.7v-2.5v-0.4L176.6,94
		 M177.4,93.8L177.4,93.8v-0.2l-0.5,0.3v0.4l0.8,0.4L177.4,93.8 M178.7,94.7l0.4-0.2l-0.1-0.3v0.1L178.7,94.7 M179.4,91.1l-0.6-0.6
		l-0.8-0.2l-0.8,0.4l0.1,2.8v0.1l0.2-1l0.7-1L179.4,91.1 M179.1,91.4l-0.1,1.1l0.1,1v0.1l-0.1,0.6l0.1,0.3l0.3-0.6l0.2-0.7
		L179.1,91.4 M179.1,91.4l-0.4,0.2l0.3,0.9L179.1,91.4 M177.3,89.7l-1.9,0.4v3.3l0.2,0.6h0.1l0.8,0.1l0.3-0.1l0.5-0.3l-0.1-2.8
		L177.3,89.7 M180.4,92.2l-0.3-0.8l-0.7-0.2l-1,0.6l-0.7,1l-0.2,1v0.1l0.3,0.9l0.7,0.2l0.3-0.2l0.3-0.5v-0.1l0.1-0.6v-0.1l-0.1-1
		l-0.3-0.9l0.4-0.2l0.5,1.9l-0.2,0.7l0.7-0.6L180.4,92.2 M174.3,90.2l-2.1,0.6l-1.6,0.9l-0.9,1.2L174.3,90.2 M174.3,90.1L174.3,90.1
		l-4.7,2.8l-0.1,0.1l-0.8,1.8l-0.9,0.8l-1.5,0.5h-1.7h-0.4l-5.8,3.3l-1.2,1.3l-1.1,1.6l-0.7,1.9v1.6l0.3,0.1v-1.6l0.6-1.8l1.1-1.7
		l1.4-1.1l1.4-0.4l1.1,0.4l0.1,0.3l0.9,0.6l1.7,2.1l-0.8,2.1l12.5-7.2V94h-0.1l-0.2-0.6V90L174.3,90.1 M181,84.6l-0.2,0.9l-0.6,0.9
		l-0.4,0.4v1.4L179,89l-1.5,0.6h-0.2v1.1l0.8-0.4l0.8,0.2l0.6,0.6l0.7,0.2l0.3,0.8l-0.3,1.1l-0.7,0.6l-0.3,0.6l-0.4,0.2l-0.3,0.2
		l-0.7-0.2l-0.8-0.4v2.5l6.2-3.5l-0.1-0.2V83l-2.1-2.9V84.6 M183.3,82.8l-0.2,0.2v10.1l0.1,0.2l0.1,0.3l0.1,0.1l0.9,0.1l0.3-0.2
		l0.4-0.2v-1.2v-8.6l-0.2,0.7l-0.3-0.5L183.3,82.8 M183.1,83l0.2-0.2l1.1,0.9l-1.4-2l-1.3-1.2l-0.2-0.2l-0.4-1v0.9L183.1,83
		 M184.7,81.2l-1.4,0.5H183l1.4,2l0.3,0.5l0.2-0.7l1.2-3.4L184.7,81.2 M183.3,81.7l1.4-0.5l1.4-1.1V80l0.3-0.2l-0.1-1.5l-0.5,0.4
		v0.1l-0.3,0.5l-0.5,0.3l-0.3,0.1l-0.9,0.7l-1.3,0.4l-1.1-0.3l1.3,1.2H183.3 M175.6,83L175.6,83l-0.2,0.1v0.6h0.4h0.8L175.6,83
		 M178.6,80.2l-0.1,0.1l-1.4,1.2l-1.4,0.5h-0.4l1.3,1.7h0.7L178.6,80.2 M177.9,79.6l-0.4,0.2l-0.4,0.2l-0.8,0.8l-1.2,0.4l-1.1-0.4
		l1.2,1.3h0.4l1.4-0.5l1.4-1.2l0.1-0.1l0.2-0.2l-0.1-1.5l-0.6,0.5L177.9,79.6 M177.8,77.6l0.1,0.5v0.5l-0.1,0.6l-0.3,0.6l0.4-0.2
		l0.3-0.6l0.1-0.6l-0.1-1.1l-0.3-0.9L177.8,77.6 M175,77.3l-0.1,0.2l0,0L175,77.3 M176.2,75.7l0.4-0.2l-0.2,0.1L176.2,75.7
		 M177.2,75.4H177l0.3,0.1L177.2,75.4 M177.9,76.4l-0.4,0.2l0.3,1L177.9,76.4 M178.8,76.3l-0.7-0.1l-1,0.5l-0.7,1l-0.2,1.2l0.2,0.9
		l0.7,0.2l0.4-0.2l0.3-0.6l0.1-0.6v-0.5l-0.1-0.5l-0.3-1l0.4-0.2l0.3,0.9l0.1,1.1l-0.1,0.6l0.6-0.5l0.4-1.3l-0.1-0.3L178.8,76.3
		 M178.1,76.2l0.7,0.1l-1.3-0.7l-0.2-0.1l-0.3-0.1h-0.2l-0.2,0.1l-0.4,0.2l-0.2,0.2l-0.3,0.4h-0.1l-0.4,0.7l-0.1,0.3l-0.1,0.3
		l-0.1,0.5l0.3,0.9l1.3,0.8l-0.2-0.9l0.2-1.2l0.7-1L178.1,76.2 M183.8,78.6l0.3,0.8l0.7,0.2l0.3-0.1l0.3-0.6l0.1-0.6l-0.1-1.1
		l-0.3-0.8l0.5-0.3l0.3,0.8l0.1,1.2l-0.1,0.5l0.5-0.4l0.1-0.2l0.2-1.1l-0.1-0.3l-0.2-0.4l-0.7-0.2l-0.9,0.5l-0.7,1.1L183.8,78.6
		 M182.6,78.1v0.2l0.1,0.2L182.6,78.1 M182.7,77.1l-0.1,0.2v0.1L182.7,77.1 M183.3,76l-0.1,0.1v0.1L183.3,76 M184.2,75.3H184
		l-0.2,0.2L184.2,75.3 M184.7,75.1h-0.2l-0.3,0.2l-0.3,0.2l-0.5,0.6l-0.1,0.2l-0.4,0.5l-0.1,0.4l-0.1,0.2l-0.2,0.5l0.2,0.3l0.1,0.4
		l0.1,0.1l1.3,0.8l-0.3-0.8l0.3-1.2l0.7-1.1l0.9-0.5l-0.6-0.6l-0.2-0.1L184.7,75.1 M184.9,75.1h-0.2H184.9L184.9,75.1 M184.8,72.8
		l-1.6,0.4l-1.4,1.3l-0.8,1.4v2.2l0.4-1.3l1.1-1.9l1.4-1.3l1.4-0.4L184.8,72.8 M176.3,73.8l1.5-0.3l-0.7-0.4l-1.5,0.4l-1.5,1.3
		l-1.1,1.8l-0.3,1.3v1.2L173,80l2.4,3.2l0.2-0.1h0.1l0.9,0.8l-1.3-1.7l-1.2-1.3l-0.2-0.2l-0.4-0.9v-1.2l0.4-1.3l1.1-1.9L176.3,73.8
		 M177.8,73.5l-1.5,0.3l-1.4,1.3l-1.1,1.9l-0.4,1.3v1.2l0.4,0.9l0.2,0.2l1.1,0.4l1.2-0.4l0.8-0.8l-0.7-0.2l-1.3-0.8l-0.3-0.9
		l0.1-0.5l0,0l0.1-0.2l0.1-0.3l0.4-0.7h0.1l0.3-0.4l0.2-0.2l0.2-0.2l0.2-0.1l0.2-0.1h0.2h0.2l0.1,0.1l0.2,0.1l1.3,0.7l0.2,0.6
		l0.2-1.3l-0.4-1.5L177.8,73.5 M185.5,73.2l1.1,0.7l0.4,1.4l-0.2,1.2l0.1,0.3l-0.2,1.1l-0.1,0.2l0.1,1.5l-0.3,0.2v0.1l-1.2,3.4v8.6
		l2.7-1.6l1.4-1.1l1.2-1.6l0.7-1.8l0.2-1.8V55L181,49.3v26.6l0.8-1.4l1.4-1.3l1.6-0.4L185.5,73.2 M186.5,73.8l-1.1-0.7l-1.4,0.4
		l-1.4,1.3l-1.1,1.9l-0.4,1.3v1.2l0.4,1l0.2,0.2l1.1,0.3l1.3-0.4l0.9-0.7l-0.7-0.2l-1.3-0.8l-0.1-0.1l-0.1-0.2v-0.2l-0.2-0.3
		l0.2-0.5v-0.1l0.1-0.2l0.1-0.4l0.4-0.5V76l0.1-0.1l0.5-0.6l0.2-0.2h0.1l0.3-0.2h0.2h0.2l0.1,0.1l0.2,0.1l0.6,0.6l0.7,0.2l0.2,0.4
		l0.2-1.2L186.5,73.8 M187,14.9l1.2-0.5h0.2l0.9,0.1l-13.6-7.8l-1.1-0.2L173.2,7l-30.8,17.7l-3.8,2.2l-46.9,27l-3.9,2.3L64.4,69.7
		L63,70.8l-1.2,1.6L61,74.2L60.8,76v67l0.2,1.4l0.8,1l13.4,7.7h0.2l-0.6-0.7l-0.3-1.4V83.8l0.1-1.7l0.8-1.8l1.2-1.5l1.5-1.1
		L187,14.9 M187.6,15.2l1.4-0.5l1.1,0.3l-0.6-0.5l-0.2-0.1l-0.9-0.1h-0.2l-1.2,0.5L78.2,77.7l-1.5,1.1l-1.2,1.5l-0.8,1.8l-0.1,1.7
		V151l0.3,1.4l0.6,0.7l0.2,0.2l0.8,0.4l-0.8-0.9l-0.2-1.4V84.3l0.2-1.7l0.8-1.8l1.2-1.6l1.3-1.1L187.6,15.2 M191,15.9l-0.8-0.8
		l-1.1-0.3l-1.4,0.5L78.9,78.1l-1.3,1.1l-1.2,1.6l-0.8,1.8l-0.2,1.7v67.1l0.2,1.4l0.8,0.9l1.2,0.2l1.3-0.6l28.3-16.3l-0.4-0.2
		l-0.1-0.1l-1.2-0.4l-0.6-1.1l-0.2-0.1v-1.6l0.7-1.9l1.1-1.6l1.6-1v-0.1l1.3-0.4l1.1,0.4l0.2,0.4l0.9,0.5l1.6,2.2l-0.8,2.1
		l45.5-26.3l-0.6-0.3l-1.1-0.4l-0.6-1.1l-0.3-0.1v-1.6l0.7-1.9l1.1-1.6l1.2-1.3l-3.9,2.2l-0.8,0.1l-0.5-0.2l-0.9-0.5l-0.2-0.8V46.6
		l0.2-0.9l0.5-0.9l0.7-0.7l6.5-3.7l2.8-1.6l-2.7-1.6l2.7,1.6l15.8-9.2l0.8-0.2l0.8,0.6l0.6,0.3L181,31v18.3l10.2,5.9V17.3L191,15.9
		 M178,23.4l0.8,0.2l1.3,0.8l0.3,0.8l-0.3,1.2l-0.7,0.7l-0.3,0.5l-0.4,0.3l-0.3,0.1l-0.7-0.2l-1.3-0.8l-0.3-0.9l0.2-1.1l0.8-1.1
		L178,23.4 M142.3,44.1l0.9-0.6l0.7,0.2l1.3,0.8l0.3,0.8l-0.3,1.2l-0.6,0.6l-0.3,0.5l-0.4,0.2l-0.4,0.2l-0.7-0.2l-1.3-0.8l-0.3-0.8
		l0.2-1.2L142.3,44.1 M159.8,34.9c0.3,0.2,0.4,0.5,0.4,0.9c-0.1,0.4-0.2,0.8-0.5,1.3s-0.6,0.8-1,1s-0.7,0.2-1,0
		c-0.2-0.1-0.3-0.4-0.3-0.8c0-0.4,0.2-0.9,0.4-1.4c0.3-0.4,0.6-0.8,1.1-1C159.2,34.7,159.5,34.7,159.8,34.9 M110.5,62l0.2,0.3
		l0.9,0.6l1.6,2.2l-1.6,4l-3.1,1.8l-1.8-0.9l-0.1-0.1l-1.2-0.4l-0.6-1.1l-0.2-0.2v-1.6l0.7-1.8l1.1-1.7l1.4-0.9l0.2-0.1l1.3-0.4
		L110.5,62 M91.4,75.5l0.3,0.8l-0.3,1.2l-0.5,0.6l-0.2,0.5L90.1,79l-0.3,0.1l-0.7-0.2l-1.3-0.8l-0.3-0.8l0.3-1.2l0.7-1.1l0.9-0.6
		l0.8,0.2l0.7,0.6L91.4,75.5 M95.8,96.5l2.2-0.1l1.8,0.7l11.6,6.7l1.3,1.6l0.8,2.3v2.8l-0.8,3.2l-1.3,3.1l-1.8,2.9l-2.2,2.5L105,124
		l-2.4,1l-2.2,0.1l-1.8-0.8L87,117.7l-1.2-1.6l-0.7-2.3v-2.9l0.7-3.1l0.8-2l-0.2-0.2l-1.3-0.8l-0.2-0.8l0.1-1.2l0.9-1l0.9-0.5
		l0.8,0.2l1.2,0.6l2.5-2.8l2.4-1.8L95.8,96.5 M102,93l0.7,0.6l0.6,0.1l0.2,0.9l-0.2,1.2l-0.6,0.6l-0.2,0.5l-0.5,0.3l-0.3,0.1
		l-0.7-0.2l-1.2-0.8l-0.3-0.8l0.2-1.2l0.8-1l0.9-0.6L102,93 M87.2,118.4l1.3,0.8l0.2,0.9l-0.2,1.1l-0.7,0.7l-0.2,0.5l-0.4,0.3
		l-0.3,0.1l-0.7-0.2l-1.3-0.8l-0.2-0.8l0.1-1.2l0.9-1l0.9-0.6L87.2,118.4 M89.4,141.5l0.8,0.2l0.7,0.5l0.5,0.2l0.3,0.8l-0.3,1.2
		l-0.5,0.6l-0.2,0.6l-0.5,0.2l-0.3,0.1l-0.7-0.1l-1.3-0.8l-0.3-0.8l0.3-1.2l0.7-1.1L89.4,141.5 M127.3,119.7l0.7,0.1l1.3,0.8
		l0.3,0.8l-0.3,1.2l-0.6,0.6l-0.2,0.5l-0.5,0.2l-0.3,0.2L127,124l-1.3-0.7l-0.3-0.9l0.3-1.1l0.8-1.2L127.3,119.7 M128.2,121.7
		l0.2-1.1l-0.5,0.3L128.2,121.7 M128.2,121.7L128.2,121.7l0.2,1l-0.2,0.8l-0.2,0.6l0.5-0.2l0.2-0.5l0,0l0.1-0.6v-0.4l-0.4-1.6
		L128.2,121.7 M128.2,121.8L128.2,121.8l-0.2-0.9l0.5-0.3l0.4,1.6v0.4l-0.1,0.6l0,0l0.6-0.6l0.3-1.2l-0.3-0.8l-0.7-0.2l-0.9,0.5
		L127,122l-0.3,1.2l0.3,0.8l0.7,0.2l0.3-0.2l0.2-0.6l0.2-0.8L128.2,121.8 M128,119.8l-0.7-0.1l-0.9,0.4l-0.8,1.2l-0.3,1.1l0.3,0.9
		l1.3,0.7l-0.3-0.8l0.3-1.2l0.7-1.1l0.9-0.5l0.7,0.2L128,119.8 M90.5,144.3v0.4l-0.2,0.6l-0.2,0.6l0.5-0.2l0.2-0.6l0.1-0.6v-0.2
		l-0.4-1.8l-0.2,1.2v0.1L90.5,144.3 M90,142.7l-0.2,0.1l-0.7,1.1l-0.3,1.2l0.3,0.9l0.7,0.1l0.3-0.1l0.2-0.6l0.2-0.6v-0.4l-0.2-0.5
		v-0.1L90,142.7L90,142.7 M90.6,142.5l-0.5,0.3l0.2,0.9L90.6,142.5 M91.7,143.3l-0.3-0.8l-0.5-0.2h-0.2l-0.7,0.4l0.1,0.1l0.5-0.3
		l0.4,1.8v0.2l-0.1,0.6l0.5-0.6L91.7,143.3 M90.1,141.8l-0.8-0.2l-0.9,0.5l-0.7,1.1l-0.3,1.2l0.3,0.8L89,146l-0.3-0.9l0.3-1.2
		l0.7-1.1l0.2-0.1l0.7-0.4h0.2L90.1,141.8 M88,121.3v-0.5l-0.4-1.5l-0.2,1.1l0.2,0.9l-0.2,0.8l-0.3,0.6l0.4-0.3l0.2-0.5v-0.1
		L88,121.3 M87.8,119l-0.2,0.1l0.1,0.1l0.4,1.5v0.5l-0.2,0.5v0.1l0.7-0.7l0.2-1.1l-0.2-0.9L87.8,119 M87.5,119.2l-0.4,0.2l0.3,0.9
		v0.1L87.5,119.2L87.5,119.2 M87.1,119.4l-0.3,0.1l-0.7,1.1l-0.3,1.1l0.3,0.9l0.7,0.2l0.3-0.1l0.3-0.6l0.2-0.8l-0.2-0.9v-0.1
		L87.1,119.4 M86.8,119.5l0.3-0.1l0.4-0.2l0.2-0.1l0.8,0.1l-1.3-0.8l-0.8-0.2l-0.9,0.6l-0.9,1l-0.1,1.2l0.2,0.8l1.3,0.8l-0.3-0.9
		l0.3-1.1L86.8,119.5 M101.9,97.1l0.5-0.3l-0.2-0.3L101.9,97.1 M102.6,94.6l-0.3-0.9l-0.1,1.2l0.2,0.9v0.1l-0.2,0.6l0.2,0.3l0.2-0.5
		l0.2-0.8L102.6,94.6 M102.3,93.6L102.3,93.6l0.3,0.9l0.2,1l-0.2,0.8l0.6-0.6l0.2-1.2l-0.2-0.9l-0.6-0.1l-0.2-0.1L102.3,93.6
		 M102.3,93.7l-0.4,0.2l0.3,0.9L102.3,93.7 M101.9,93.9l0.4-0.2v-0.1l-0.8,0.3l-0.7,1.1l-0.2,1.3l0.2,0.8l0.7,0.2l0.3-0.1l0.3-0.6
		l0.2-0.6v-0.1l-0.2-0.9L101.9,93.9 M102.6,93.5L102,93l-0.8-0.2l-0.9,0.6l-0.8,1l-0.2,1.2l0.3,0.8l1.2,0.8l-0.2-0.8l0.2-1.3
		l0.7-1.1l0.8-0.3l0.2-0.1L102.6,93.5 M87.9,104.8l0.2-0.6v-0.4l-0.4-1.6l-0.2,1.1l0.2,0.9l-0.2,0.8l-0.3,0.5l0.4-0.2L87.9,104.8
		 M87.5,103.3L87.5,103.3l0.2-1.1l-0.4,0.2L87.5,103.3 M87.2,101.5l-0.8-0.2l-0.9,0.5l-0.9,1l-0.1,1.2l0.2,0.8l1.3,0.8l-0.3-0.8
		l0.3-1.2l0.7-1.1l0.9-0.5l0.8,0.2l-0.1-0.1L87.2,101.5 M99.2,123.3l0.4-0.6l-0.3-0.2l-0.3,0.6L99.2,123.3 M97.9,119.8l-0.5-0.2
		l-0.1,0.2l0.1,0.5L97.9,119.8 M105.3,105.1l0.5,0.2v-0.6L105.3,105.1 M90.4,76.7l0.2-1.2l-0.5,0.2L90.4,76.7 M90.6,75.5l-0.2,1.2
		l0.2,0.6v0.4l-0.2,0.6L90.1,79l0.5-0.4l0.2-0.5l0.1-0.5v-0.2l-0.1-1L90.6,75.5 M90.8,75.3l-0.7-0.6l-0.8-0.2l-0.9,0.6l-0.7,1.1
		l-0.3,1.2l0.3,0.8L89,79l-0.3-0.8L89,77l0.7-1.1L90.8,75.3L90.8,75.3 M91.7,76.4l-0.3-0.8l-0.6-0.2l-0.1-0.1l-0.9,0.6L89.1,77
		l-0.3,1.2l0.3,0.8l0.7,0.2l0.3-0.1l0.2-0.6l0.2-0.6v-0.4l-0.2-0.6l-0.2-1l0.5-0.2l0.2,0.8l0.1,1v0.2l-0.1,0.5l0.5-0.6L91.7,76.4
		 M106.8,69.8l1.8,0.9l-1.6-2.2l-1.7-1L106.8,69.8L106.8,69.8 M106,66l0.4-1.1l-0.4,0.6V66 M108.6,64.6l-1.8-1l-0.5,1.3L106,66
		l-0.6,1.6l1.7,1L108.6,64.6 M106.7,63.2l1.3-1.1l-1.4,0.9l-1.1,1.7l-0.7,1.8v1.6l0.2,0.2v-1.7l0.6-1.8L106.7,63.2 M110.8,62.3
		l-0.8-0.4l-3.1,1.8l1.8,1l3.1-1.8L110.8,62.3 M113.3,65l-1.6-2.2l-3.1,1.8l-1.6,4l1.6,2.2l3.1-1.8L113.3,65 M110.8,62.3l-0.2-0.3
		l-1.1-0.4l-1.3,0.4l-0.2,0.1l-1.3,1.1l-1.1,1.7l-0.6,1.8v1.7l0.6,1.1l1.2,0.4l-1.4-2.2L106,66v-0.5l0.4-0.6l0.5-1.3l3.1-1.8
		L110.8,62.3 M160.2,35.8c0-0.4-0.1-0.7-0.4-0.9c-0.3-0.2-0.6-0.2-0.9,0c-0.4,0.2-0.8,0.6-1.1,1c-0.3,0.5-0.4,0.9-0.4,1.4
		s0.1,0.7,0.3,0.8c0.3,0.2,0.6,0.2,1,0s0.7-0.5,1-1C160,36.6,160.1,36.2,160.2,35.8 M144.3,44.5l-0.2,1.1l0.2,1l-0.2,0.8l-0.3,0.5
		l0.4-0.2l0.3-0.5l0.1-0.6V46l-0.1-0.7L144.3,44.5 M144.3,44.5l-0.4,0.2l0.3,0.9L144.3,44.5 M142.8,45.8l0.7-1l1-0.5l0.7,0.2
		l-1.3-0.8l-0.7-0.2l-0.9,0.6l-0.8,1l-0.2,1.2l0.3,0.8l1.3,0.8l-0.2-0.9L142.8,45.8 M143.5,44.8l-0.7,1l-0.2,1.2l0.2,0.9l0.7,0.2
		l0.4-0.2l0.3-0.5l0.2-0.8l-0.2-1l-0.3-0.9l0.4-0.2l0.3,0.8l0.1,0.7v0.5l-0.1,0.6l0.6-0.6l0.3-1.2l-0.3-0.8l-0.7-0.2L143.5,44.8
		 M179,27.2L179,27.2l-0.3,0.6l0.4-0.3L179,27.2 M179.1,26.5L179.1,26.5l-0.1,0.7l0.1,0.3l0.3-0.5l0.1-0.6l0.1-0.1l-0.5-1.9
		l-0.1,1.2L179.1,26.5 M178.7,24.5l0.3,1l0.1-1.2L178.7,24.5 M179,25.5l-0.3-1h-0.1l-0.2,0.1l-0.7,1.1l-0.3,1.1l0.3,0.9l0.7,0.2
		l0.3-0.1l0.3-0.6l0,0l0.1-0.6v-0.1L179,25.5 M180.1,24.3l-0.7-0.2l-0.8,0.4h0.1l0.4-0.2l0.5,1.9l-0.1,0.1l-0.1,0.6l0.7-0.7l0.3-1.2
		L180.1,24.3 M178.8,23.6l-0.8-0.2l-0.9,0.6l-0.8,1.1l-0.2,1.1l0.3,0.9l1.3,0.8l-0.3-0.9l0.3-1.1l0.7-1.1l0.2-0.1l0.8-0.4l0.7,0.2
		L178.8,23.6z"/>
	<path class="st2" d="M165.3,41.6l0.9-0.8l-2.6-1.5l-9.2,5.3l-0.8,0.6l-0.5,0.9l-0.2,0.9v53.6l0.2,0.8l0.5,0.2l0.8-0.1l3.9-2.2
		l5.8-3.3l-1.1-0.5l-0.9-0.8v-2.1v-0.9l1.3-2.9l0.1-0.5l1.8-3.1l1.7-1.4l1.8-0.6l1.3,0.8l0.1,0.1l0.3,0.3l0.5,0.1h0.6l3.8-0.6v-0.6
		L173,80l-0.3-0.9v-1.2l0.3-1.3l1.1-1.8l1.5-1.3l1.5-0.4l0.7,0.4l1,0.6l0.4,1.5l-0.2,1.3l0.1,0.3l-0.4,1.3l0.1,1.5l-0.2,0.2
		l-1.3,3.6h0.2l1.5,0.5l0.8,0.9v1.1v0.6l0.4-0.4l0.6-0.9l0.2-0.9v-4.5v-0.9v-1.2v-2.2V49.3l-5.1-3l-3.7,0.9l-1.6,0.9l-1.1,1.2
		l-0.8,1.8l-0.9,0.9l-1.5,0.5h-1.7L163,52l-0.9-0.9V49v-1l1.3-2.9l0.1-0.5L165.3,41.6 M180.8,30.4l-0.6-0.3l-0.7,0.1l-15.8,9.2
		l2.6,1.5l0.8-0.8l1.8-0.5l1.3,0.8l0.1,0.2l0.8,0.3h0.6l4.2-0.7h1.8l1.5,0.6l0.8,0.8v1.1v2.1l-0.8,0.9l-1.5,0.5l-1.6,0.2l5.1,3V31
		L180.8,30.4 M86.2,103.6l-0.3,1.2l0.3,0.8l0.2,0.2l0.4,0.1l0.3-0.2l0.3-0.5l0.2-0.8l-0.2-0.9v-0.1l-0.3-0.8l0.4-0.2l0.4,1.6v0.4
		l-0.2,0.6l0.7-0.6l0.2-1.1l-0.2-0.9l-0.8-0.2l-0.9,0.5L86.2,103.6 M111.4,103.8l-1.8-0.8l-2.2,0.1l-2.5,1.1l-2.4,1.8l-2.2,2.4
		l-1.8,2.9l-1.2,3.2l-0.8,3.1v2.9l0.8,2.3l1.2,1.6l1.8,0.8l2.2-0.1l2.4-1l2.5-1.8l2.2-2.5l1.8-2.9l1.3-3.1l0.8-3.2v-2.8l-0.8-2.3
		L111.4,103.8 M104,106.4l0.1-0.6l1.2-0.7l0.5-0.4v0.6l2.2-0.5l1.8,0.4l1.3,1.3l0.8,2l0.1,2.6l0.4-0.2l-0.1,0.6l-0.5,0.2l-1.3,4.1
		l0.5,0.2l-0.4,0.6l-0.4-0.1l-1.8,2.8l-2.3,2.2l-2.4,1.4l-2.2,0.4l-1.9-0.6l-0.4,0.6l-0.3-0.3l0.3-0.6l-0.8-1.2l-0.6-1.5l-0.5,0.4
		l-0.1-0.5l0.1-0.2l0.4-0.2l0.1-2.6l0.7-2.9l1.4-2.9l0.2-0.1l0.4-0.6l1.2-1.8l1.7-1.6l0.3-0.2L104,106.4 M98,96.4l-2.2,0.1l-2.5,1
		l-2.4,1.8l-2.5,2.8l0.1,0.1l0.2,0.9l-0.2,1.1l-0.7,0.6l-0.2,0.6l-0.4,0.2l-0.3,0.2l-0.4-0.1l-0.8,2l-0.7,3.1v2.9l0.7,2.3l1.2,1.6
		l11.6,6.6l-1.2-1.6l-0.8-2.3v-2.9l0.8-3.1l1.2-3.2l1.8-2.9l2.2-2.4l2.4-1.8l2.5-1.1l2.2-0.1l1.8,0.8l-11.6-6.7L98,96.4z"/>
	<path id="Layer0_5_1_STROKES" class="st3" d="M191.2,55.3v29l-0.2,1.8l-0.7,1.8l-1.2,1.6l-1.4,1.1l-2.7,1.6v1.2l-0.4,0.2l-0.2,11.1
		l-0.8,2.1l-1.1,1.9l-1.4,1.6l-1.4,1l-1.4,0.4H178l-1.2-0.4l-0.8-1l-0.4-1.8V97.7l-12.5,7.2l-0.9,2l-3.1,1.8l-1.3-0.8l-45.5,26.3
		l-0.8,1.9l-3.1,1.8l-1.4-0.8l-28.3,16.3l-1.3,0.6l-1.2-0.2l-0.8-0.4l-0.2-0.2H75l-13.4-7.7l-0.8-1l-0.2-1.4V76l0.2-1.8l0.8-1.8
		l1.2-1.6l1.4-1.1l23.4-13.4L87,55.6v-0.9l0.1-0.2l0.1-0.8l0.3-0.2l0.8-0.8l0.8-0.1l2.3,1.2l46.8-27.1l-0.6-0.5v-1l0.1-0.1l0.1-0.9
		l0.8-0.5l0.4-0.3l0.8-0.2l2.2,1.3l30.8-17.7l1.4-0.5l1.1,0.2l13.6,7.8l0.2,0.1l0.6,0.5l0.8,0.8l0.2,1.5v38.1H191.2z M76.3,153.7
		l-0.8-0.9l-0.2-1.4V84.3l0.2-1.7l0.8-1.8l1.2-1.6l1.3-1.1l108.8-62.8l1.4-0.5l1.1,0.3 M189.3,14.5l-0.9-0.1h-0.2l-1.2,0.5
		L78.2,77.7l-1.5,1.1l-1.2,1.5l-0.8,1.8l-0.1,1.7V151l0.3,1.4l0.6,0.7 M178.8,23.6l-0.8-0.2l-0.9,0.6l-0.8,1.1l-0.2,1.1l0.3,0.9
		l1.3,0.8l-0.3-0.9l0.3-1.1l0.7-1.1l0.2-0.1l0.8-0.4l0.7,0.2L178.8,23.6z M180.2,30.1l0.6,0.3L181,31v18.3 M178.6,24.5L178.6,24.5
		l0.5-0.2l0.5,1.9l-0.1,0.1l-0.1,0.6l0.7-0.7l0.3-1.2l-0.3-0.8 M177.7,27.7l0.7,0.2l0.3-0.1l0.3-0.6l0,0l0.1-0.6v-0.1l-0.1-1l-0.3-1
		 M162.8,38.8l15.8-9.2l0.8-0.2l0.8,0.6l-0.7,0.1l-15.8,9.2 M166.3,40.8l0.8-0.8l1.8-0.5l1.3,0.8l0.1,0.2l0.8,0.3h0.6l4.2-0.7h1.8
		l1.5,0.6l0.8,0.8v1.1v2.1l-0.8,0.9l-1.5,0.5l-1.6,0.2 M181,49.3v26.6l0.8-1.4l1.4-1.3l1.6-0.4l0.6,0.4l1.1,0.7l0.4,1.4l-0.2,1.2
		l0.1,0.3l-0.2,1.1l-0.1,0.2l0.1,1.5l-0.3,0.2v0.1l-1.2,3.4v8.6 M179.4,27l-0.3,0.5l-0.4,0.3 M179,27.2l0.1,0.3 M166.3,40.8
		l-0.9,0.8l-1.8,3.1l-0.1,0.5l-1.3,2.9v1l0.9,0.9l1.6,0.5h1.7l1.5-0.5l0.9-0.9l0.8-1.8l1.1-1.3l1.6-0.9l1.1-0.2 M179.8,42.7
		l-0.8,0.8l-1.5,0.6l-3.2,0.4l-1.1,0.3 M162.2,49.1v2.1l0.9,0.9l1.6,0.5h1.7l1.5-0.5l0.9-0.9l0.8-1.8l1.1-1.2l1.6-0.9l3.7-0.9
		 M179.1,24.4l-0.1,1.2 M228.2,72.6l-1.6-1c-0.5-0.3-1.2-0.3-1.9,0.2c-0.2,0.1-0.3,0.2-0.5,0.3 M228.2,72.6l0.2,0.2
		c0.3,0.3,0.5,0.6,0.6,1.1c0,0.1,0,0.2,0,0.3c0.1,0.3,0.1,0.8-0.1,1.2c-0.1,0.6-0.4,1.2-0.7,1.8c-0.4,0.6-0.8,1.1-1.3,1.4
		c-0.4,0.4-0.8,0.6-1.2,0.7c-0.1,0.1-0.2,0.1-0.2,0.1c-0.4,0.1-0.7,0.1-0.9-0.1l-0.2-0.1l-1.6-1.1c-0.6-0.3-0.8-0.9-0.8-1.8
		c0-0.2,0-0.4,0.1-0.6v-0.1l-6.4-3.9l-1.6-1l-1.6-1l-1.7-1l-1.6-1c-0.3-0.2-0.5-0.5-0.5-1s0.2-1,0.5-1.5s0.7-0.9,1.1-1.1
		c0.4-0.2,0.8-0.2,1.1-0.2l1.6,1 M212.9,65.2l1.5,0.8l1.6,1 M217.6,68l-1.4-0.9 M217.8,68.1l6.4,4c-0.6,0.4-1.1,1-1.5,1.7
		c-0.4,0.6-0.6,1.3-0.8,1.9 M177.8,73.5l-1.5,0.3l-1.4,1.3l-1.1,1.9l-0.4,1.3v1.2l0.4,0.9l0.2,0.2l1.1,0.4l1.2-0.4l0.8-0.8l-0.7-0.2
		l-1.3-0.8l-0.3-0.9l0.1-0.5l0,0l0.1-0.2l0.1-0.3l0.4-0.7h0.1l0.3-0.4l0.2-0.2l0.2-0.2l0.2-0.1l0.2-0.1h0.2h0.2l0.1,0.1l0.2,0.1
		l1.3,0.7l0.2,0.6l0.2-1.3l-0.4-1.5L177.8,73.5l-0.7-0.4l-1.5,0.4l-1.5,1.3l-1.1,1.8l-0.3,1.3v1.2L173,80l2.4,3.2l0.2-0.1h0.1
		l0.9,0.8l-1.3-1.7l-1.2-1.3 M181,79.2l0.4,1l0.2,0.2l1.1,0.3l1.3-0.4l0.9-0.7l-0.7-0.2l-1.3-0.8l-0.1-0.1l-0.1-0.2v-0.2l-0.2-0.3
		l0.2-0.5v-0.1l0.1-0.2l0.1-0.4l0.4-0.5V76l0.1-0.1l0.5-0.6l0.2-0.2h0.1l0.3-0.2h0.2h0.2L185,75l0.2,0.1l0.6,0.6l0.7,0.2l0.2,0.4
		 M185,75.2l-0.3-0.1 M184.2,75.3l-0.3,0.2 M183.2,76.2l0.1-0.2 M181,78.1v1.2v0.9l2.1,2.9l0.2-0.2l1.1,0.9l-1.4-2l-1.3-1.2
		 M182.6,77.4l0.1-0.2 M182.7,78.5l-0.1-0.4 M184.2,79.4l-0.3-0.8l0.3-1.2l0.7-1.1l0.9-0.5 M185.5,73.2l-1.4,0.4l-1.4,1.3l-1.1,1.9
		l-0.4,1.3v-2.2 M176.5,79.7l-0.2-0.9l0.2-1.2l0.7-1l1-0.5l0.7,0.1 M177.2,79.9l0.4-0.2l0.3-0.6l0.1-0.6V78l-0.1-0.5l-0.3-1l0.4-0.2
		l0.3,0.9l0.1,1.1l-0.1,0.6l0.6-0.5l0.4-1.3l-0.1-0.3 M176.2,75.7l0.4-0.2 M177,75.4l0.3,0.1 M175,77.6l0.1-0.3 M178.2,79l-0.3,0.6
		l-0.4,0.2 M178.8,78.5l0.1,1.5l-0.2,0.2l-1.3,3.6h0.2l1.5,0.5l0.8,0.9v1.1v0.6l0.4-0.4l0.6-0.9l0.2-0.9v-4.5 M177.9,76.4l-0.1,1.2
		 M175.3,82.1h0.4l1.4-0.5l1.4-1.2l0.1-0.1 M176.6,83.8h0.7 M175.4,83.8h0.4h0.8 M175.4,83.8v-0.6 M183,81.7h0.3l1.4-0.5l1.4-1.1
		 M185,83.6l-0.2,0.7l-0.3-0.5 M164.2,96l-1.1-0.5l-0.9-0.8v-2.1v-0.9l1.3-2.9l0.1-0.5l1.8-3.1l1.7-1.4l1.8-0.6l1.3,0.8l0.1,0.1
		l0.3,0.3l0.5,0.1h0.6l3.8-0.6 M164.2,96h0.4h1.7l1.5-0.5l0.9-0.8l0.8-1.8l0.1-0.1l0.9-1.2l1.6-0.9l2.1-0.6V90l1.1-0.1l1.9-0.4h0.2
		l1.5-0.6l0.8-0.8v-1.4 M162.2,92.6l0.9,0.9l1.6,0.5h1.7l1.5-0.5l0.9-0.9l0.8-1.8l1.1-1.2l1.6-1l2.1-0.6l3.2-0.4l1.5-0.6l0.8-0.8
		 M169.7,92.9l4.7-2.7 M180.1,91.4l-0.7-0.2l-1,0.6l-0.7,1l-0.2,1v0.1l0.3,0.9l0.7,0.2l0.3-0.2l0.3-0.5v-0.1l0.1-0.6v-0.1l-0.1-1
		l-0.3-0.9l0.4-0.2l0.5,1.9l-0.2,0.7l0.7-0.6l0.3-1.1L180.1,91.4z M175.4,90v3.3l0.2,0.6h0.1l0.8,0.1l0.3-0.1l0.5-0.3l-0.1-2.8v-1.1
		 M179.1,91.4l-0.1,1.1 M179.4,91.1l-0.6-0.6l-0.8-0.2l-0.8,0.4 M179.4,93.9l-0.3,0.6l-0.4,0.2 M179,94.2l0.1,0.3 M177.4,93.6
		L177.4,93.6 M176.9,96.8v-2.5v-0.4 M177.7,94.7l-0.8-0.4 M175.8,93.9v3.6 M183.4,93.7l0.9,0.1l0.3-0.2 M183.1,93.3l0.1,0.3l0.1,0.1
		v9.1L183,105l-1,2.2l-1.4,1.9l-1.6,1.1l-1.1,0.1l-0.8-0.6l-0.4-1.6V96.9L183.1,93.3l-0.1-0.2V83 M184.9,79.7l0.3-0.1l0.3-0.6
		l0.1-0.6l-0.1-1.1l-0.3-0.8l0.5-0.3L186,77l0.1,1.2l-0.1,0.5l0.5-0.4 M185.9,78.6L185.9,78.6l-0.3,0.6l-0.5,0.3 M185.6,76.1
		l-0.2,1.1 M139,23.8l-0.4,0.4l-0.5,1l-0.1,1.1 M138.6,26.9l3.8-2.2 M143.9,44.7l0.4-0.2l0.3,0.8l0.1,0.7v0.5l-0.1,0.6l0.6-0.6
		l0.3-1.2l-0.3-0.8l-0.7-0.2l-1,0.5l-0.7,1l-0.2,1.2l0.2,0.9l0.7,0.2l0.4-0.2l0.3-0.5l0.2-0.8l-0.2-1L143.9,44.7z M145.2,44.4
		l-1.3-0.8l-0.7-0.2l-0.9,0.6l-0.8,1l-0.2,1.2l0.3,0.8l1.3,0.8 M144.3,44.5l-0.2,1.1 M143.9,47.9l0.4-0.2l0.3-0.5 M160.2,35.8
		c-0.1,0.4-0.2,0.8-0.5,1.3s-0.6,0.8-1,1s-0.7,0.2-1,0c-0.2-0.1-0.3-0.4-0.3-0.8c0-0.4,0.2-0.9,0.4-1.4c0.3-0.4,0.6-0.8,1.1-1
		c0.4-0.2,0.7-0.2,0.9,0C160.1,35,160.2,35.3,160.2,35.8z M153.3,101.5l-0.2-0.8V47.1l0.2-0.9l0.5-0.9l0.8-0.6l9.2-5.3 M160.1,40.4
		l-6.5,3.7l-0.7,0.7l-0.5,0.9l-0.2,0.9v53.6l0.2,0.8l0.9,0.5l0.5,0.2l0.8-0.1l3.9-2.2l5.8-3.3 M110.8,62.3l0.9,0.6l1.6,2.2l-1.6,4
		l-3.1,1.8l-1.8-0.9l-0.1-0.1l-1.2-0.4l-0.6-1.1l-0.2-0.2v-1.6l0.7-1.8l1.1-1.7l1.4-0.9l0.2-0.1l1.3-0.4l1.1,0.4L110.8,62.3
		l-0.8-0.4l-3.1,1.8l1.8,1l3.1-1.8 M108,62.1l-1.3,1.1l-1.1,1.7l-0.6,1.8v1.7 M106.8,69.7l-1.4-2.2L106,66v-0.5l0.4-0.6l0.5-1.3
		 M106,66l0.4-1.1 M108.6,70.8l-1.6-2.2l-1.7-1 M108.6,64.6l-1.6,4 M87.3,54.5l0.4-1 M87.8,56.3l3.9-2.3 M91.4,75.5l-0.6-0.2
		l-0.1-0.1l-0.9,0.6l-0.7,1.1l-0.3,1.2l0.3,0.8l0.7,0.2l0.3-0.1l0.2-0.6l0.2-0.6v-0.4l-0.2-0.6l-0.2-1l0.5-0.2l0.2,0.8l0.1,1v0.2
		l-0.1,0.5l0.5-0.6l0.3-1.2L91.4,75.5z M90.8,75.3l-0.7-0.6l-0.8-0.2l-0.9,0.6l-0.7,1.1l-0.3,1.2l0.3,0.8L89,79 M90.6,75.5l-0.2,1.2
		 M90.1,79l0.5-0.4l0.2-0.5 M88.4,102.1l2.5-2.8l2.4-1.8l2.5-1l2.2-0.1l1.8,0.7l11.6,6.7l1.3,1.6l0.8,2.3v2.8l-0.8,3.2l-1.3,3.1
		l-1.8,2.9l-2.2,2.5L105,124l-2.4,1l-2.2,0.1l-1.8-0.8L87,117.7l-1.2-1.6l-0.7-2.3v-2.9l0.7-3.1l0.8-2l-0.2-0.2l-1.3-0.8l-0.2-0.8
		l0.1-1.2l0.9-1l0.9-0.5l0.8,0.2L88.4,102.1L88.4,102.1l0.3,0.9l-0.2,1.1l-0.7,0.6l-0.2,0.6l-0.4,0.2l-0.3,0.2l-0.4-0.1 M102.6,93.5
		l0.6,0.1l0.2,0.9l-0.2,1.2l-0.6,0.6l-0.2,0.5l-0.5,0.3l-0.3,0.1l-0.7-0.2l-1.2-0.8l-0.3-0.8l0.2-1.2l0.8-1l0.9-0.6l0.8,0.2
		L102.6,93.5l-0.2-0.1l-0.2,0.1v0.1l0.3,0.9l0.2,1l-0.2,0.8 M101.9,97.1l0.3-0.6l0.2-0.6v-0.1l-0.2-0.9l-0.3-0.9l0.4-0.2l-0.1,1.2
		 M102.3,93.6l-0.8,0.3l-0.7,1.1l-0.2,1.3l0.2,0.8 M102.2,96.5l0.2,0.3 M111.4,103.8l-1.8-0.8l-2.2,0.1l-2.5,1.1l-2.4,1.8l-2.2,2.4
		l-1.8,2.9l-1.2,3.2l-0.8,3.1v2.9l0.8,2.3l1.2,1.6 M105.3,105.1l-1.2,0.7l-0.1,0.6v0.1l8.1,4.6l-0.1-2.6l-0.8-2l-1.3-1.3l-1.8-0.4
		l-2.2,0.5L105.3,105.1l0.5-0.4v0.6 M112.1,111.1l0.4-0.2l-0.1,0.6l-0.5,0.2l-1.3,4.1l0.5,0.2l-0.4,0.6l-0.4-0.1l-1.8,2.8l-2.3,2.2
		l-2.4,1.4l-2.2,0.4l-1.9-0.6l-0.4,0.6L99,123l0.3-0.6l-0.8-1.2l-0.6-1.5l-0.5,0.4l-0.1-0.5l0.1-0.2l0.4-0.2l0.1-2.6l0.7-2.9
		l1.4-2.9l0.2-0.1l0.4-0.6l1.2-1.8l1.7-1.6l0.3-0.2l0.2-0.1 M86.2,105.6l-0.3-0.8l0.3-1.2l0.7-1.1l0.9-0.5l0.8,0.2 M87.2,105.6
		l0.3-0.5l0.2-0.8l-0.2-0.9v-0.1l-0.3-0.8l0.4-0.2l0.4,1.6v0.4l-0.2,0.6 M87.6,102.2l-0.2,1.1 M86.5,118.2l-0.9,0.6l-0.9,1l-0.1,1.2
		l0.2,0.8l1.3,0.8l-0.3-0.9l0.3-1.1l0.7-1.1l0.3-0.1l0.4-0.2l0.2-0.1l0.8,0.1l-1.3-0.8L86.5,118.2z M87.5,119.2l0.1,0.1l0.4,1.5v0.5
		l-0.2,0.5v0.1l0.7-0.7l0.2-1.1l-0.2-0.9 M86.2,122.6l0.7,0.2l0.3-0.1l0.3-0.6l0.2-0.8l-0.2-0.9v-0.1l-0.3-0.9 M87.9,121.9l-0.2,0.5
		l-0.4,0.3 M87.6,119.3l-0.2,1.1 M97.9,119.8l-0.5-0.2 M99.6,122.7l-0.3-0.2 M89.4,141.5l-0.9,0.5l-0.7,1.1l-0.3,1.2l0.3,0.8
		l1.3,0.8l-0.3-0.9l0.3-1.2l0.7-1.1l0.2-0.1l0.7-0.4h0.2l-0.7-0.5L89.4,141.5z M90,142.7L90,142.7l0.6-0.2l0.4,1.8v0.2l-0.1,0.6
		l0.5-0.6l0.3-1.2l-0.3-0.8l-0.5-0.2 M89.1,145.9l0.7,0.1l0.3-0.1l0.2-0.6l0.2-0.6v-0.4l-0.2-0.5v-0.1l-0.2-0.9 M90.6,142.5
		l-0.2,1.2 M90.1,145.9l0.5-0.2l0.2-0.6 M110.8,129.3l-0.2-0.4l-1.1-0.4l-1.3,0.4v0.1l-1.4,1l-1.1,1.7l-0.6,1.8v1.6l0.6,1.1l1.2,0.4
		l-1.4-2.1l0.6-1.6v-0.6l0.4-0.6l0.5-1.3l3.1-1.8L110.8,129.3l0.9,0.5l1.6,2.2l-0.8,2.1 M106.8,130.6l1.8,0.9l3.1-1.8 M105,135.2
		l-0.2-0.1v-1.6l0.7-1.9l1.1-1.6l1.6-1 M108.6,137.8l-1.6-2.2l-1.7-0.9 M106,133l0.4-1.1 M108.6,131.6l-1.6,4 M107.2,137.1l-0.4-0.2
		l-0.1-0.1 M112,111.8l-8.4-5 M112.5,111.6l-8.6-5 M100.6,110.2l10,5.7 M110.3,116.6l-10.1-5.8 M160.7,99.5l-3.1,1.8l1.8,1l3.1-1.8
		l-0.9-0.6L160.7,99.5z M163.3,104.7l0.8-2.1l-1.7-2.1 M161.5,99.9l-0.1-0.3l-1.1-0.4l-1.4,0.4l-1.4,1.1l-1.1,1.7l-0.6,1.8v1.6
		l0.6,1.1l1.1,0.4l-1.4-2.1l0.6-1.7l0.1-0.5l0.3-0.6l0.5-1.3 M155.8,105.9l-0.3-0.1v-1.6l0.7-1.9l1.1-1.6l1.2-1.3 M156.7,103.6
		l0.4-1.1 M159.3,102.3l-1.6,4l1.6,2.2 M157.7,106.3l-1.7-1 M158,107.7l-0.6-0.3 M127.3,119.7l-0.9,0.4l-0.8,1.2l-0.3,1.1l0.3,0.9
		l1.3,0.7l-0.3-0.8l0.3-1.2l0.7-1.1l0.9-0.5l0.7,0.2l-1.3-0.8L127.3,119.7z M127,124l0.7,0.2l0.3-0.2l0.2-0.6l0.2-0.8l-0.2-0.9v-0.1
		l-0.2-0.8l0.5-0.3l0.4,1.6v0.4l-0.1,0.6l0,0l0.6-0.6l0.3-1.2l-0.3-0.8 M128.2,121.7l0.2-1.1 M128,124.1l0.5-0.2l0.2-0.5"/>
	<path id="Layer0_5_2_STROKES" class="st4" d="M192.9,56.2l-1.7-0.9l-10.2-6 M163.7,39.3l2.6,1.5 M175.9,46.4l5.1,3 M166.3,40.8
		l2.6,1.4 M173.3,44.8l-2.1-1.3 M175.9,46.4l-0.5-0.2 M224.1,72.1l1.3,0.8h0.4c0.8,0.1,1.5,0,2.2-0.2l0.2-0.1 M212.9,65.2l-0.2-0.2
		 M216.1,67.1L216,67 M217.8,68.1l-0.2-0.1 M212.7,65c-0.3-0.1-0.6,0-0.9,0.2c-0.4,0.3-0.8,0.6-1.1,1.1c-0.2,0.5-0.4,1-0.4,1.5
		c0,0.4,0.1,0.7,0.2,0.9 M212.2,69.7c-0.2-0.2-0.3-0.5-0.3-1c0.1-0.5,0.2-0.9,0.5-1.3c0.3-0.5,0.7-0.9,1-1.2c0.3-0.2,0.7-0.3,1-0.2
		 M216,67c-0.3-0.1-0.6,0-0.9,0.2c-0.4,0.2-0.8,0.6-1.1,1.1s-0.4,1-0.4,1.5c-0.1,0.4,0,0.7,0.2,0.9 M215.5,71.7
		c-0.2-0.2-0.3-0.5-0.3-1s0.2-0.9,0.5-1.4s0.6-0.8,1-1.1c0.3-0.2,0.6-0.3,0.9-0.2 M225.4,72.9c-0.1,0.7-0.3,1.3-0.7,2
		c-0.5,0.8-1,1.3-1.5,1.7l0.2,0.2c0.4,0.7,0.7,1.4,0.8,2.1l0.1,0.2 M221.9,75.8l1.3,0.8 M195.2,57.5l2.2,1.3 M199.5,60l8.7,5
		 M163.7,39.3l-0.9-0.5l-2.7-1.6"/>
	<path id="Layer0_5_3_STROKES" class="st5" d="M162.8,38.8l-2.8,1.6"/>
</g>
<g transform="matrix( 1, 0, 0, 1, 158.05,185.75) ">
	<g>
		<text transform="matrix(1 0 0 1 78.0784 -141.579)" class="st6 st7">3251-P1</text>
	</g>
</g>
<g transform="matrix( 1, 0, 0, 1, 0,0) ">
	<g>
		<path id="Layer0_14_MEMBER_1_1_STROKES" class="st8" d="M220.1,51.8V24.1h84v27.8L220.1,51.8L220.1,51.8z"/>
	</g>
</g>
</svg>
