<?xml version="1.0" encoding="utf-8"?>
<!-- Generator: Adobe Illustrator 24.1.0, SVG Export Plug-In . SVG Version: 6.00 Build 0)  -->
<svg version="1.1" id="Ebene_1" xmlns="http://www.w3.org/2000/svg" xmlns:xlink="http://www.w3.org/1999/xlink" x="0px" y="0px"
	 viewBox="0 0 349.1 161" style="enable-background:new 0 0 349.1 161;" xml:space="preserve">
<style type="text/css">
	.st0{fill:#CCCCCC;}
	.st1{fill:#0099FF;}
	.st2{fill:#999999;}
	.st3{fill:#1D1D1B;}
	.st4{font-family:'ArialMT';}
	.st5{font-size:14px;}
	.st6{fill:none;stroke:#FF9900;stroke-linecap:round;stroke-linejoin:round;}
</style>
<g>
	<path class="st0" d="M132.8,25.7L132.8,25.7L132.8,25.7L132.8,25.7L132.8,25.7L132.8,25.7L132.8,25.7L132.8,25.7L132.8,25.7
		l-0.2-0.1h-0.1h-0.2l0,0h-0.1l0,0l0,0c-0.1,0.1-0.2,0.2-0.2,0.3C132,26,132,26,132,26.1c0,0.1-0.1,0.3-0.1,0.3v0.1l0,0l0,0v0.1l0,0
		l0,0l0,0l0,0l0,0l0.1,0.1l0,0l0,0h0.1h0.1l0,0c0.1,0,0.1,0,0.2,0c0.1,0,0.3,0,0.3-0.1l0.2-0.1l0.2-0.2l0,0l0,0l0,0l0,0l0,0l0,0l0,0
		l0,0v-0.2v-0.1v-0.2l0,0l0,0v-0.1L132.8,25.7L132.8,25.7 M124.7,12.6c0.3-0.1,0.5-0.2,0.8-0.2s0.5-0.1,0.8-0.1c0.2,0,0.4,0,0.6,0.1
		c0.2,0,0.3,0.1,0.6,0.2l0.3,0.1l0,0l-7.4-4.3c-0.5-0.3-1-0.3-1.6-0.3c-1.1,0-2.3,0.4-3.5,1.3c-1.8,1.3-3.1,2.8-4.1,4.6
		c-0.8,1.4-1.4,2.8-1.7,4.2c-0.3,1.3-0.3,2.6-0.2,3.8c0.1,0.3,0.2,0.6,0.2,0.8c0.1,0.3,0.2,0.4,0.3,0.6c0.3,0.5,0.5,0.9,0.8,1.2
		l0.3,0.3l0.3,0.2l0,0l7,4l0,0l0,0c-0.1-0.1-0.1-0.1-0.2-0.2c-0.6-0.5-1-1.3-1.3-2.3c-0.3-1.2-0.3-2.4,0.1-3.9
		c0.3-1.3,0.8-2.8,1.7-4.4c0.8-1.3,1.6-2.4,2.6-3.4C122.4,13.7,123.6,13,124.7,12.6 M144.6,33.1l-0.8-0.3l-0.4-0.2
		c-0.2-0.1-0.3-0.2-0.5-0.2c-0.8-0.4-1.5-0.9-1.9-1.5l-0.1-0.1c-0.2-0.2-0.3-0.3-0.4-0.3s-0.3-0.2-0.3-0.3c-0.2-0.1-0.3-0.2-0.4-0.3
		c-0.2-0.1-0.3-0.2-0.5-0.2c-0.2-0.1-0.4-0.1-0.6-0.2c-0.8-0.3-1.7-0.6-2.5-1.1c-0.1,0.2-0.2,0.3-0.3,0.5c0.2,0.1,0.4,0.3,0.6,0.3
		c0.2,0.1,0.4,0.2,0.6,0.3c0.3,0.2,0.7,0.3,1,0.4c0.3,0.1,0.7,0.3,1,0.3c0.5,0.2,1,0.4,1.3,0.8l0.2,0.2c0.1,0.1,0.2,0.2,0.2,0.3
		c0.1,0.1,0.2,0.2,0.3,0.3c0,0.1,0.1,0.1,0.1,0.1c0.2,0.2,0.3,0.3,0.5,0.4c0.2,0.2,0.3,0.3,0.6,0.3c0.2,0.1,0.4,0.3,0.6,0.3h0.1
		c0.1,0.1,0.3,0.1,0.3,0.2c0.2,0.1,0.3,0.1,0.4,0.2l0.8,0.3l1.1,0.4v1.1v0.1l0,0v0.1l0.2,0.3v0.1l0.1,0.1l0,0l0,0V36l0,0l0.1,0.1
		h0.1l1.3,0.5c0,0.3,0.2,0.6,0.3,0.8c0,0.1,0.1,0.3,0.1,0.3l1.5,0.8l0.6,0.4l0,0l-0.1-0.1l1.5,0.8c0.1,0.1,0.1,0.2,0.2,0.3l0.3,0.2
		c0.1,0,0.1,0,0.2,0h0.2c0.2,0,0.3-0.1,0.3-0.1c0.5-0.2,1-0.6,1.4-1.3c0.3-0.5,0.5-1,0.6-1.6c0.1-0.7-0.1-1.2-0.4-1.4l-0.2-0.1
		c-0.1,0-0.2,0-0.3,0h-0.1l-1.5-0.8h0.2l0,0c-0.1-0.1-0.1-0.1-0.2-0.2l0,0l-0.2-0.1c-0.1,0-0.2,0-0.3,0h-0.1l-1.5-0.8h-0.7
		c-0.2,0-0.3,0.1-0.6,0.2l-2.4-1.9l0,0l0,0h-0.1H146l0,0h-0.1l0,0c0,0-0.1,0-0.2,0l-0.3,0.2l-0.2,0.4v0.8L144.6,33.1 M147.6,35.2
		l-0.1,0.2l-0.1,0.2c0,0.1-0.1,0.2-0.1,0.3l-0.4-0.4l-0.1-0.1l0,0l-0.1-0.1l0,0l0,0l0,0l0,0l0,0v-0.2l0,0l0,0l0,0v-0.3L147.6,35.2
		 M213.5,67l-0.3-0.2l-0.5-0.3l-0.4-0.3c-0.2-0.1-0.3-0.2-0.5-0.2c-0.2,0-0.3-0.1-0.5-0.1c-0.6,0-1.2,0.3-1.8,0.6
		c-0.9,0.6-1.8,1.5-2.4,2.7c-0.7,1.2-1.1,2.3-1.1,3.4c-0.1,1.3,0.3,2.1,1.1,2.7l0.5,0.3l0.5,0.3l0.4,0.3l0.2,0.1
		c0.2,0.1,0.3,0.1,0.5,0.2c0.2,0,0.3,0.1,0.6,0.1c0.1,0,0.3,0,0.3,0h0.1l0.1,0.1l0,0l0.3,0.2l0.3,0.2c0.2,0.1,0.3,0.1,0.6,0.1
		c0.2,0,0.3,0,0.5-0.1c0.2,0,0.4-0.1,0.6-0.2v-0.6l-1.2-0.7l0.5,0.1h0.1l0.3,0.1l1.3,0.8c0.6-0.4,1.2-1,1.6-1.7l0,0l-0.5-0.3
		l-1.1-0.6l0.1-0.2c0-0.1,0.1-0.3,0.2-0.3l0.1-0.1c0.1-0.2,0.3-0.3,0.4-0.4l0,0h0.1l0.9,0.5l0.5,0.3l0,0c0.4-0.8,0.6-1.6,0.7-2.3
		l-1.3-0.8c-0.2-0.1-0.3-0.3-0.3-0.4l0.9,0.5l0.7-0.3c-0.1-0.7-0.3-1.2-0.7-1.5l-0.7-0.3l-0.2-0.1c-0.3-0.5-0.5-0.9-0.8-1.1
		C213.7,67.1,213.7,67.1,213.5,67 M185.1,74.3c-0.1,0-0.3,0.1-0.3,0.1c-0.3,0.2-0.5,0.3-0.5,0.6v0.3c0,0.3,0.2,0.4,0.5,0.6
		c0.1,0.1,0.3,0.1,0.3,0.1c0.1,0,0.3,0,0.3,0h0.1h0.1c0.2,0,0.3,0,0.4,0s0.3-0.1,0.4-0.2l0,0h0.1l0,0l0,0c0.1,0,0.1-0.1,0.2-0.2l0,0
		l0,0l0,0l0,0v-0.2v-0.3v-0.1l0,0V75l0,0l0,0l0,0l0,0l0,0l0,0l0,0l-0.1-0.1l-0.1-0.1l0,0h-0.1c0,0-0.1,0-0.2-0.1l-0.3-0.1l0,0
		l-0.2-0.1h-0.3h-0.1C185.3,74.3,185.2,74.3,185.1,74.3 M184.8,75.1L184.8,75.1L184.8,75.1c0.2-0.1,0.3-0.2,0.3-0.2h0.3h0.1h0.2h0.1
		h0.1l0,0l0.1,0.1l0.2,0.1l0,0l0,0l0,0l0,0l0,0l-0.1,0.1l0,0l0,0l0,0l0,0l0,0l0,0h-0.1l0,0l0,0l0,0l0,0l-0.3,0.1h-0.3l0,0h-0.3l0,0
		l0,0H185l0,0l0,0l0,0h-0.1l0,0l0,0L184.8,75.1L184.8,75.1L184.8,75.1L184.8,75.1 M184.5,71.3L184.5,71.3v0.3v0.1h-0.1l-0.2,0.2
		l-0.2,0.3l-0.1,0.2l0,0l0,0l0,0l0,0v0.2v0.3l0,0l0,0l0,0l0,0l0,0l0,0l0,0c0.2,0.2,0.3,0.3,0.3,0.3c0.2,0.1,0.3,0.2,0.5,0.2
		c0.2,0,0.3,0.1,0.6,0.1h0.1c0.2,0,0.3,0,0.4,0s0.3-0.1,0.4-0.2c0.3-0.2,0.5-0.3,0.5-0.7v-0.3v-0.1l0,0V72l-0.2-0.1v-0.7l0,0
		l-0.2,0.1l0,0v-0.1l0,0v-0.1l0,0l0,0v-0.1l0,0l0,0l0,0l-0.2,0.1v-0.3l0,0c-0.1,0-0.2-0.1-0.2-0.1l0,0h-0.1h-0.2l0,0V71v0.3h-0.3
		v-0.1l0,0h-0.1l0,0h-0.4l0,0l0,0l0,0l0,0l0,0l-0.3-0.1l0,0v0.3L184.5,71.3L184.5,71.3L184.5,71.3 M184.8,71.8L184.8,71.8
		L184.8,71.8L184.8,71.8L184.8,71.8L184.8,71.8L184.8,71.8h0.2l0,0l0,0l0,0l0,0h0.1l0,0V72h-0.2l-0.3,0.1l-0.1-0.1l-0.1-0.1
		l-0.1-0.1l0,0v0.3v0.2l-0.2-0.2v-0.5l0.3-0.1v-0.2v0.2l0.2,0.1L184.8,71.8 M186.2,71.6L186.2,71.6L186.2,71.6L186.2,71.6
		 M186.2,71.8L186.2,71.8l-0.2,0.3l-0.3-0.1h-0.1v-0.2l0,0l0,0h0.1l0,0l0,0l0,0l0,0h0.1l0,0h0.1l0,0l-0.1-0.1l0.2-0.1L186.2,71.8
		L186.2,71.8 M186.2,72.3v-0.2l0.2,0.1L186.2,72.3 M185.2,69.2L185.2,69.2L185.2,69.2L185.2,69.2L185.2,69.2L185.2,69.2L185.2,69.2
		l-0.1,0.3l0,0l0,0l0,0l0,0l2.4,1.4l0,0l0,0l0,0l0,0l0,0l0,0l0,0l0,0l0,0l0,0l0,0l0,0l0,0c0.1,0.2,0.1,0.3,0.2,0.3l0.1,0.1h0.1l0,0
		h0.1l0,0h0.1l0,0h0.2h0.1l0,0h0.1c0.1,0,0.1-0.1,0.2-0.3v0.2c0-0.1,0-0.1-0.1-0.2l0,0l0,0l0,0l-0.1-0.1l-0.1-0.1l-0.2-0.1H188l0,0
		h-0.2l-2.3-1.3l0,0l0,0h-0.1l0,0l-0.2,0.1L185.2,69.2L185.2,69.2 M190.5,52.4L190.5,52.4h-0.3l0,0l0,0h-0.2l-2.3-1.3h-0.2l-0.2,0.1
		l-0.3-0.2l0,0l-0.1,0.1l0,0l0,0l0,0l0,0v0.1l0,0l0,0l0,0l0,0l0.1,0.1l2.4,1.4l0.3,0.4l0.2,0.2l0,0l0,0h0.1l0,0h0.1h0.1h0.1l0,0
		c0,0,0.1,0,0.1-0.1l0,0l0,0l0,0h0.1l0,0l0,0V53l0,0l0,0V53v-0.1c0-0.1,0-0.1,0-0.2l0,0l0,0l0,0l0,0l0,0l0,0l0,0l0,0l0,0v-0.1
		L190.5,52.4L190.5,52.4L190.5,52.4 M188.7,47.8l-0.5,0.2l-0.3,0.3v0.2l-0.1,0.4l0.1,0.2l0.1,0.2l0.1,0.1l-0.1,0.8l0.3,0.2l0.3-0.2
		V50l0,0v0.3l0.3,0.2l0,0l0.3-0.1V50l0.3-0.1v0.2l0.1,0.2l0.3-0.1v-0.8h0.1l0.2-0.2l0.2-0.2l0.1-0.2l-0.1-0.4v-0.2l-0.3-0.3
		l-0.3-0.2l-0.6-0.1h-0.1L188.7,47.8 M189.2,45.7c-0.1,0-0.1,0-0.2,0c-0.2,0-0.3,0-0.4,0.1c-0.2,0-0.3,0.1-0.3,0.1
		c-0.2,0.1-0.3,0.2-0.3,0.3l0,0l0,0l0,0l0,0l0,0c0,0,0,0.1,0,0.2v0.1v0.5l0,0l0,0l0,0v0.1L188,47c0.1,0.1,0.2,0.2,0.2,0.2
		c0.2,0.2,0.5,0.3,0.9,0.3c0.2,0,0.3,0,0.4,0c0.2,0,0.3-0.1,0.3-0.1c0.3-0.2,0.4-0.3,0.5-0.6v-0.3v-0.1c0-0.1,0-0.1,0-0.2
		c0-0.1,0-0.1,0-0.1l-0.3-0.3h-0.1l0,0h-0.1l-0.2-0.1L189.2,45.7 M190.4,43.7L190.4,43.7l-0.5-0.3l0,0c-0.1-0.1-0.3-0.1-0.3-0.2
		c-0.1,0-0.3-0.1-0.3-0.1h-0.1H189c-0.2,0-0.3,0-0.5,0.1c-0.2,0.1-0.3,0.1-0.4,0.2l-0.4-0.3h-0.2l-0.3,0.2l-0.2,0.1v1.1l0.2,0.1
		l0.1,0.2l0.1,0.1l0.2,0.2l0.5,0.3c0.2,0.1,0.3,0.1,0.4,0.1c0.3,0,0.5-0.1,0.8-0.3l0.1-0.1l0,0l0.1-0.1l0.7-0.4l0.4-0.1h0.2l0.4,0.3
		l0.3,0.1l0.3-0.3l-0.3-0.3l-0.8-0.4L190.4,43.7 M189.4,43.9c0.1,0,0.2,0,0.3,0c-0.1,0-0.3,0.1-0.4,0.2c-0.2,0.1-0.3,0.2-0.5,0.3
		c-0.1,0-0.2,0.1-0.3,0.1l0,0l0,0l0,0c0,0-0.1,0-0.2-0.1C188.7,44.1,189.1,43.9,189.4,43.9 M187.3,44.5L187.3,44.5L187.3,44.5
		L187.3,44.5 M231.3,63c-1.3,0.4-2.8,1.1-4,1.9c-1.3,0.8-2.6,1.8-3.9,3c-1.1,1-2.1,2.2-3,3.4s-1.8,2.6-2.7,4
		c-0.8,1.4-1.5,2.8-2.1,4.2c-0.6,1.4-1.1,2.8-1.4,4.2c-0.4,1.7-0.7,3.3-0.8,4.8c-0.1,1.5,0,2.9,0.3,4.4c0.1,0.4,0.2,0.9,0.3,1.3
		c0.1,0.4,0.3,0.8,0.3,1.2c0.1,0.3,0.3,0.6,0.3,0.8c0.2,0.3,0.3,0.5,0.3,0.8c0.7,1.2,1.7,2.1,2.8,2.8l0.2,0.1c0.5,0.3,1,0.6,1.6,0.8
		c0.8,0.3,1.7,0.4,2.5,0.4c1,0,2.1-0.2,3.2-0.5l2.3,1.3l0.7,0.3c0.8,0.3,1.5,0.4,2.3,0.5h0.3c0.8,0,1.6-0.3,2.7-0.5
		c1.2-0.3,2.3-0.9,3.4-1.6c1.2-0.7,2.3-1.6,3.4-2.6c0.8-0.8,1.5-1.5,2.2-2.4c1-1.2,1.9-2.5,2.7-3.9c0.5-0.9,1-1.9,1.4-2.8
		c0.4-0.9,0.8-1.8,1.1-2.8c0.1-0.3,0.2-0.5,0.3-0.8c0.1-0.3,0.2-0.5,0.3-0.8c0.3-1.3,0.6-2.7,0.7-4c0.1-1.3,0-2.5-0.3-3.8
		c-0.3-1.2-0.6-2.1-0.9-2.8l-0.2-0.3l-0.2-0.3c-0.5-0.8-1.1-1.5-1.8-2c0,0-0.1-0.1-0.2-0.1l-2.4-1.4c-0.5-2.2-1.4-3.9-2.8-5
		c-0.4-0.4-0.9-0.8-1.4-1l-0.2-0.1c-1.1-0.7-2.3-1-3.5-1.1h-0.3C233.9,62.4,232.7,62.7,231.3,63 M240.7,67.1L240.7,67.1L240.7,67.1
		L240.7,67.1L240.7,67.1l-0.1,0.3c-0.1,0.2-0.2,0.3-0.3,0.5l-0.2-0.1c0,0,0.1-0.2,0.2-0.3C240.5,67.4,240.6,67.2,240.7,67.1
		L240.7,67.1L240.7,67.1 M216.3,82c0,0.1-0.1,0.1-0.2,0.1c0-0.1,0-0.2,0.1-0.3c0-0.1,0.1-0.2,0.1-0.3s0.1-0.1,0.1-0.2
		c0.1-0.1,0.1-0.1,0.2-0.2l0.1-0.1l0.1,0.2l0,0l-0.2,0.3C216.4,81.7,216.3,81.8,216.3,82z"/>
	<path class="st1" d="M122.3,30l0.8,0.3l0,0l-0.7-0.3H122.3L122.3,30 M120.4,29.7L120.4,29.7L120.4,29.7L120.4,29.7L120.4,29.7
		L120.4,29.7L120.4,29.7 M110.8,24.9L111,25l0,0h0.1h0.1l0,0L110.8,24.9L110.8,24.9L110.8,24.9 M150,39.3l0.3,0.1l1.2,0.7l0,0l0,0
		c-0.1-0.1-0.2-0.2-0.2-0.3l-1.5-0.8l0,0c0,0.1,0.1,0.1,0.1,0.2C149.9,39.2,149.9,39.3,150,39.3 M147.7,37.8L147.7,37.8
		c0.1,0.2,0.2,0.3,0.3,0.3l1.4,0.8l0,0l0,0c-0.1-0.1-0.2-0.2-0.2-0.3L147.7,37.8 M146.9,35.6L146.9,35.6l0.4,0.5l0,0
		c0-0.1,0.1-0.3,0.1-0.3l0,0L146.9,35.6 M146.7,35.4L146.7,35.4L146.7,35.4L146.7,35.4L146.7,35.4L146.7,35.4L146.7,35.4L146.7,35.4
		 M152,34.9L152,34.9l1.5,0.9h0.1c0.1,0,0.2,0,0.3,0.1l0,0l-1.3-0.8c-0.1-0.1-0.2-0.1-0.3-0.1C152.1,34.9,152,34.9,152,34.9
		 M151.5,34.7L151.5,34.7c0.2,0,0.3,0,0.3,0.1l0,0l-1.3-0.8c-0.2-0.1-0.3-0.2-0.5-0.2h-0.1l0,0L151.5,34.7 M140.4,31.4l-0.2-0.2l0,0
		v0.2l0,0v0.1v0.1l0,0c0.1,0.2,0.2,0.3,0.3,0.3l0.9,0.5l0,0l0,0c-0.2-0.2-0.3-0.3-0.5-0.4l-0.1-0.1
		C140.6,31.8,140.6,31.6,140.4,31.4 M142.3,26.3c0-0.1,0-0.3,0-0.3c-0.1,0-0.2-0.1-0.3-0.1H142h-0.1l0,0h-0.1h-0.1l0,0V26
		L142.3,26.3L142.3,26.3L142.3,26.3 M141.5,24.1c0.2,0,0.3-0.1,0.5-0.1c0.5,0,0.9,0.2,1.4,0.4c0.8,0.5,1.3,1.3,1.4,2.3l0.1,0.3v0.3
		c0,0.8-0.1,1.5-0.3,2.3c-0.1,0.3-0.2,0.6-0.3,0.9c-0.1,0.3-0.3,0.6-0.3,0.9l-0.4-0.3l-1.6-0.9c-0.1,0-0.1,0-0.2,0h-0.2l0,0h-0.1
		h-0.1h-0.1l0,0l0,0l0,0c-0.1,0-0.1,0.1-0.2,0.1c-0.1,0.1-0.2,0.2-0.3,0.4c0.5,0.6,1.1,1.2,1.9,1.5c0.2,0.1,0.3,0.2,0.5,0.2l0.4,0.2
		l0.1-0.1c0.6-0.9,1-1.9,1.3-2.9l0.6-1.6V28v-0.2l-0.1-1.2c0-1-0.2-1.8-0.5-2.6l-0.3-0.8l-1-2.1l-1.1-0.7c-0.4-1.9-1.2-3.3-2.4-3.9
		l-0.2-0.1l-0.7-0.4c-0.3-0.3-0.8-0.4-1.3-0.5c-0.2,0-0.3-0.1-0.5-0.1s-0.3,0-0.5,0c-0.2,0-0.3,0-0.4,0c-0.2,0-0.3,0-0.5,0.1
		c-1,0.2-2,0.5-3,1.1l-0.3,0.2l-0.3,0.2c-1,0.7-2,1.5-2.9,2.5c-0.9,1-1.8,2.3-2.6,3.6c-0.6,1.1-1.2,2.2-1.5,3.3
		c-0.4,1.1-0.7,2.1-0.8,3.1c0,0.3-0.1,0.5-0.1,0.8c0,0.3,0,0.5-0.1,0.7c0,0.2,0,0.3,0,0.4v0.4c0,1.2,0.2,2.3,0.6,3.2
		c0.4,1.2,1.1,2,2,2.5l0.9,0.5c0.7,0.3,1.3,0.6,2.1,0.6h0.2c0.7,0,1.4-0.2,2.3-0.4l1.1,0.7h0.3l2.3-0.3l0.8-0.3
		c0.8-0.1,1.5-0.3,2.3-0.8l1.3-0.7l0.9-1l0.4-0.5c0.3-0.3,0.5-0.5,0.7-0.8c0.3-0.3,0.4-0.6,0.7-0.9c0.1-0.1,0.1-0.2,0.2-0.2
		c0,0,0-0.1,0.1-0.1l0,0c-0.2-0.1-0.3-0.1-0.4-0.2c-0.2-0.1-0.3-0.1-0.3-0.2H143l0,0l0.3,0.4c-0.5,0.8-1.1,1.4-1.8,2l-0.2-0.6l0,0
		v0.7l-2-1.2l-0.3-0.2c-0.2,0-0.3-0.1-0.5-0.1l0,0c-0.1,0-0.3,0-0.5,0.1l-0.5,0.3l0,0l0,0c0.1,0.1,0.2,0.2,0.2,0.2l0.8,0.5l1.4,0.8
		v0.7c-0.7,0.4-1.3,0.6-2,0.6c-0.5,0-0.9-0.1-1.4-0.3c-0.6-0.4-1-0.9-1.3-1.6c0-0.1-0.1-0.3-0.1-0.4c0-0.2-0.1-0.3-0.1-0.4
		s0-0.4-0.1-0.7c0-0.3,0-0.4,0-0.7c0-0.1,0-0.2,0-0.3c0.1-1.1,0.4-2.2,0.8-3.2c0.1-0.2,0.2-0.3,0.3-0.6l0,0c0.1-0.2,0.2-0.3,0.3-0.5
		l0.1-0.1c0.1-0.2,0.3-0.4,0.3-0.6c0.1-0.2,0.3-0.3,0.3-0.6c0.8-1.1,1.7-1.9,2.6-2.5c0.1-0.1,0.2-0.2,0.3-0.2
		c0.1-0.1,0.2-0.1,0.3-0.2c0.2-0.1,0.3-0.2,0.5-0.3c0.2-0.1,0.3-0.1,0.4-0.2C141.2,24.2,141.3,24.1,141.5,24.1 M132.2,25.8h0.2h0.1
		h0.1l0,0l0,0l0,0l0,0h0.1l0,0l0,0l0,0h0.1v0.1l0,0l0,0v0.2l0,0v0.2l0,0l0,0l0,0l0,0l0,0l0,0l0,0l0,0l-0.2,0.2l-0.2,0.1
		c-0.1,0.1-0.2,0.1-0.3,0.1c0,0-0.1,0-0.2,0l0,0l0,0h-0.1l0,0l0,0l0,0h-0.1l0,0l0,0l0,0l0,0l0,0v-0.1l0,0l0,0v-0.1
		c0-0.1,0-0.2,0.1-0.3C131.8,26.1,132,26,132.2,25.8L132.2,25.8L132.2,25.8L132.2,25.8L132.2,25.8 M216.5,81.2L216.5,81.2
		L216.5,81.2c-0.2,0.2-0.3,0.3-0.3,0.4c-0.1,0.3-0.2,0.4-0.2,0.6c0.1,0,0.2-0.1,0.2-0.1c0.2-0.2,0.3-0.3,0.3-0.3l0.2-0.3l0,0
		L216.5,81.2 M210,76.9L210,76.9L210,76.9L210,76.9l-0.1-0.2h-0.1l0,0L210,76.9L210,76.9 M209.5,70.4l0.3,0.1l0,0l0,0L209.5,70.4
		L209.5,70.4L209.5,70.4 M186,75.3L186,75.3L186,75.3L186,75.3L186,75.3L186,75.3L186,75.3c-0.1-0.2-0.2-0.2-0.3-0.2l0,0h-0.1h-0.1
		h-0.2h-0.1l-0.3,0.1c0,0-0.1,0.1-0.3,0.1l0,0l0,0l0,0l0,0l0,0v0.1l0,0l0,0l0,0l0,0l0,0l0,0l0,0l0,0l0,0l0,0l0,0l0,0h0.1l0,0h0.3
		l0.3-0.1h0.1l0,0l0,0l0,0l0,0l0,0l0,0l0,0l0,0H186L186,75.3 M184,72.3L184,72.3L184,72.3L184,72.3L184,72.3 M186.1,72.2v0.3
		l0.2-0.2l0,0L186.1,72.2L186.1,72.2 M185.2,72.2v-0.2l0,0l0,0h-0.2l0,0l0,0l0,0l0,0l0,0H185h-0.1l0,0L185,72l0,0l-0.2-0.1v-0.2l0,0
		l0,0l0,0l0,0v0.2l-0.3,0.1l0,0v-0.1l0,0v-0.2l0,0v-0.1l0,0l0,0l0,0l-0.2,0.3v0.3l0,0l0.2-0.2h0.1v0.5l0.2,0.2l0,0l0,0v-0.3v-0.2
		v0.1l0.1,0.1l0.1,0.1l0.3-0.1L185.2,72.2 M185.2,71.1L185.2,71.1L185.2,71.1h-0.2l0,0H185h-0.1l-0.2,0.1l0,0l0.3,0.1l0,0l0,0l0,0
		l0,0l0,0h0.1l0,0h0.1L185.2,71.1 M186.3,71.5L186.3,71.5L186.3,71.5L186.3,71.5L186.3,71.5L186.3,71.5L186.3,71.5v0.2l0,0v0.1v0.1
		l0,0l0.2-0.1l0,0L186.3,71.5 M186.1,71.7v-0.2l0,0V71.7l-0.2,0.1l0,0l0.1,0.1l0,0h-0.1l-0.1,0.1l0,0l0,0l0,0l0,0h-0.1l0,0l0,0v0.2
		h0.1l0.3,0.1l0.2-0.3V72h-0.1v-0.2l0,0L186.1,71.7 M186.1,71.2L186.1,71.2L186.1,71.2l-0.2-0.1h-0.1h-0.1h-0.1h-0.1h-0.1l0,0h0.2
		l0,0h0.1l0,0C185.9,71.2,186,71.2,186.1,71.2 M185.6,69.5L185.6,69.5L185.6,69.5L185.6,69.5L185.6,69.5L185.6,69.5L185.6,69.5
		L185.6,69.5L185.6,69.5L185.6,69.5 M190,53.5L190,53.5L190,53.5l-0.1-0.2l0,0l0,0L190,53.5L190,53.5L190,53.5 M188.3,53.5
		c-0.2,0-0.3,0-0.5,0c-0.2,0-0.3,0.1-0.6,0.2c-0.5,0.2-1,0.5-1.5,1l-1.1-0.6c-0.2-0.1-0.3-0.2-0.5-0.2c-0.3,0-0.6,0.1-0.9,0.3
		c-0.4,0.3-0.8,0.8-1,1.2c-0.3,0.5-0.5,1-0.5,1.5c0,0.5,0.1,0.9,0.3,1.2c0.1,0.1,0.1,0.1,0.2,0.2l0.8,0.4l0.5,0.3
		c0,0.2,0,0.3-0.1,0.4c-0.1,1.3,0.2,2.1,0.9,2.6l0.1,0.1l1.9,1.1c0.1,0.1,0.2,0.2,0.3,0.2c0.2,0.1,0.3,0.1,0.4,0.1
		c0.2,0,0.3,0.1,0.5,0.1l5.3,3l1.3,1c0.1,0.1,0.3,0.3,0.3,0.3l2,1.2c0.1,0.1,0.2,0.2,0.3,0.3c0.1,0.1,0.3,0.1,0.3,0.2
		c0.1,0,0.3,0.1,0.4,0.1c0.6,0,1.4-0.3,2.3-1l1.4,0.8l1.5,0.8l0,0l0.8-0.5l1.6-0.9l0.8-0.5v-0.6l-0.5-0.9l0.5-0.3v-0.6l-3.6-2
		c0.2-1.6-0.1-2.6-0.8-3c-0.1-0.1-0.3-0.1-0.4-0.2l-2-1.2l0,0l-0.3-0.1c-0.2,0-0.3-0.1-0.5-0.1c-0.1,0-0.2,0-0.3,0l-6.2-3.7
		c-0.1-0.2-0.2-0.3-0.3-0.3c-0.1-0.1-0.2-0.2-0.3-0.3c-0.1,0-0.1-0.1-0.2-0.1c-0.1,0-0.1-0.1-0.2-0.1l-2-1.2l-0.3-0.2
		C188.7,53.5,188.5,53.5,188.3,53.5 M190.1,49.9v-0.4l0,0l-0.2,0.2l-0.1,0.1v0.8l0.1-0.2v-0.3h0.1L190.1,49.9 M189.3,45.3
		L189.3,45.3L189.3,45.3L189.3,45.3L189.3,45.3L189.3,45.3 M187.3,44.7L187.3,44.7L187.3,44.7L187.3,44.7L187.3,44.7L187.3,44.7
		L187.3,44.7 M176,44.7c-0.2-0.1-0.3-0.2-0.5-0.3h-0.1l-3-0.8l-8.6-5c-0.2-0.6-0.4-1.1-0.8-1.5c-0.1-0.1-0.2-0.1-0.3-0.2
		c0,0-0.1-0.1-0.2-0.1l-1.4-0.8c-0.4-0.2-0.8-0.3-1.3-0.3c-0.8,0-1.5,0.3-2.3,0.8c-1.1,0.8-1.9,1.8-2.6,2.9
		c-0.8,1.5-1.3,2.8-1.3,4.3c0,0.2,0,0.3,0,0.4c0,0.2,0,0.3,0.1,0.5s0.1,0.3,0.2,0.5s0.1,0.3,0.2,0.3c0.1,0.2,0.1,0.3,0.2,0.3
		c0.1,0.1,0.2,0.2,0.3,0.3l0.2,0.2l0.3,0.2l0,0l0,0l0,0h0.1l1.3,0.8c0.1,0.1,0.3,0.2,0.3,0.3c0.1,0,0.2,0.1,0.3,0.1
		c0.1,0,0.3,0.1,0.3,0.1c0.2,0,0.3,0,0.3,0c0.2,0,0.3,0,0.5,0c0.2,0,0.3-0.1,0.5-0.1l8.6,5l0.3,0.3l1.8,1.9c0,0.1,0.1,0.1,0.1,0.2
		l0.2,0.1l3,1.8l0.1,0.1c0.1,0.1,0.2,0.1,0.3,0.1c0.2,0.1,0.3,0.1,0.4,0.1c0.2,0,0.3,0,0.4,0c0.1,0,0.3,0,0.3,0s0.3,0,0.3-0.1h0.1
		h0.1l1,0.6l0.2,0.1l0.3,0.1h0.1c0.6-0.2,1.3-0.5,1.9-1.1l0.5-0.5l-0.1-0.3l-0.1-0.2l-0.8-0.5c1.2-1.3,1.9-2.6,2.3-4
		c0.1-0.2,0.1-0.3,0.2-0.5c0-0.2,0.1-0.3,0.1-0.5c0.2-0.9,0.1-1.7-0.1-2.3c0-0.2-0.1-0.3-0.1-0.4c-0.1-0.1-0.1-0.3-0.2-0.3l-0.3-0.4
		l0,0l-0.1-0.1c-0.1-0.2-0.3-0.3-0.4-0.3H179h-0.1l-2.2-1.3L176,44.7 M240.6,67.7l0.1-0.3l0,0l0,0v-0.1l0,0l0,0l0,0h-0.1
		c-0.1,0.1-0.2,0.2-0.3,0.4l-0.1,0.2c0,0.1,0,0.1,0,0.2l0.2,0.1C240.4,68,240.5,67.9,240.6,67.7z"/>
	<path class="st2" d="M118.6,8.1c0.6,0,1.1,0.1,1.6,0.3l0,0l-6.1-3.5l0,0l0,0c-0.4-0.2-0.8-0.3-1.3-0.3c-1,0-1.9,0.5-2.9,1.4
		c-1.5,1.4-2.2,2.9-2,4.6v0.2c0.2,0.8,0.4,1.4,0.8,1.8l-0.2-0.1c-0.1,0-0.3-0.1-0.3-0.1c-0.2,0-0.3,0-0.4,0c-0.8,0-1.5,0.3-2.3,0.9
		c-1,0.7-1.7,1.5-2.2,2.5c-0.5,0.8-0.7,1.8-0.7,2.8c0,0.8,0.3,1.4,0.8,1.8c0.1,0,0.1,0.1,0.2,0.1l7.2,4.2l0,0l0,0l-0.3-0.3
		c-0.3-0.3-0.6-0.7-0.8-1.2c-0.1-0.2-0.2-0.3-0.3-0.6c-0.1-0.3-0.2-0.5-0.2-0.8c-0.3-1.2-0.2-2.4,0.2-3.8c0.3-1.3,0.8-2.7,1.7-4.2
		c0.9-1.8,2.3-3.4,4-4.6C116.3,8.5,117.5,8.1,118.6,8.1 M136.9,29.7c-0.2-0.1-0.3-0.2-0.6-0.3l-0.6-0.3l0,0l-0.2,0.3l-0.1,0.3
		c-0.4,1-0.8,2-0.8,3.2c0,0.1,0,0.2,0,0.3c0,0.3,0,0.5,0,0.7c0,0.3,0,0.4,0.1,0.7c0,0.2,0.1,0.3,0.1,0.4s0.1,0.3,0.1,0.4
		c0.3,0.7,0.7,1.3,1.3,1.6c0.4,0.3,0.9,0.3,1.4,0.3c0.7,0,1.3-0.2,2-0.6v-0.7l-1.4-0.8l-0.8-0.5l0,0l-0.1-0.1l-0.1-0.1l0.5-0.2
		c0.3,0,0.4-0.1,0.5-0.1l0,0h0.2l0.3,0.1l0.3,0.1l2,1.2l0,0v-0.6l0.2,0.5l0,0c0.7-0.6,1.3-1.3,1.8-2l-0.3-0.4
		c-0.2-0.1-0.4-0.2-0.6-0.3c-0.2-0.1-0.4-0.3-0.6-0.3l-0.9-0.5c-0.1,0-0.2-0.2-0.3-0.3l0,0v-0.1v-0.1l0,0v-0.2
		c-0.3-0.3-0.8-0.6-1.3-0.8c-0.3-0.1-0.7-0.2-1-0.3C137.5,30,137.2,29.8,136.9,29.7 M141.4,24c-0.2,0-0.3,0.1-0.5,0.1
		c-0.2,0.1-0.3,0.1-0.5,0.2c-0.2,0.1-0.3,0.2-0.4,0.2c-0.1,0.1-0.3,0.1-0.3,0.2c-0.1,0.1-0.2,0.1-0.3,0.2c-0.9,0.6-1.8,1.4-2.6,2.5
		c-0.1,0.2-0.3,0.3-0.3,0.6c-0.1,0.2-0.3,0.3-0.3,0.6l-0.1,0.1l0,0c0.8,0.4,1.6,0.8,2.4,1.1l0.3,0.1l0.3,0.1
		c0.2,0.1,0.3,0.1,0.5,0.2c0.2,0.1,0.3,0.2,0.4,0.2c0.1,0.1,0.3,0.2,0.3,0.3c0.2,0.1,0.3,0.3,0.4,0.3l0.1,0.1l0,0
		c0.1-0.2,0.2-0.3,0.3-0.3c0,0,0.1-0.1,0.2-0.1l0,0l0,0l0,0l0,0h0.1l0,0h0.1l0,0h0.2c0.1,0,0.1,0,0.2,0l1.6,0.9l0.4,0.3l0,0
		c0.2-0.3,0.3-0.6,0.3-0.9c0.1-0.3,0.2-0.6,0.3-0.9c0.3-0.8,0.3-1.6,0.3-2.3v-0.3v-0.3c-0.2-1.1-0.7-1.8-1.4-2.3
		c-0.4-0.3-0.9-0.3-1.4-0.3C141.7,24,141.6,24,141.4,24 M142,25.8L142,25.8c0.1,0,0.2,0,0.3,0c0,0.1,0,0.3,0,0.3l-0.4-0.3l0,0
		L142,25.8L142,25.8L142,25.8L142,25.8L142,25.8 M132.6,17.3L132.6,17.3l-0.2-0.2l-2.1-1.3l-0.7-0.8l-0.3-0.6l-0.2-0.3
		c-0.4-0.7-0.9-1.2-1.6-1.4l0,0l-0.3-0.1c-0.2-0.1-0.3-0.1-0.6-0.2c-0.2,0-0.4-0.1-0.6-0.1c-0.3,0-0.5,0-0.8,0.1s-0.5,0.1-0.8,0.2
		c-1.3,0.3-2.4,1.1-3.6,2.3c-1,0.9-1.8,2.1-2.6,3.4c-0.8,1.5-1.4,3-1.8,4.4c-0.3,1.3-0.3,2.7,0,3.9c0.3,1,0.7,1.8,1.3,2.3
		c0.1,0.1,0.2,0.1,0.2,0.2c0.2,0.2,0.4,0.3,0.6,0.3c0.4,0.2,0.9,0.3,1.4,0.3h0.2h0.1l0,0h0.3l0.9,0.1l0.8,0.3h0.1l0.7,0.3l0.9,0.5
		l0.5,0.3l0,0c0-0.3,0-0.5,0.1-0.7c0-0.3,0.1-0.5,0.1-0.8c0.2-1,0.4-2,0.8-3.1s0.9-2.2,1.6-3.3c0.8-1.3,1.7-2.6,2.6-3.6
		C130.6,18.8,131.6,17.9,132.6,17.3z"/>
	<path class="st3" d="M186.5,74.7L186.5,74.7L186.5,74.7l-0.2-0.1h-0.1l-0.1-0.1l-0.2-0.1l-0.3-0.1h-0.3h-0.1c-0.1,0-0.3,0-0.3,0
		c-0.2,0-0.3,0.1-0.4,0.1c-0.3,0.2-0.5,0.3-0.6,0.7v0.3c0.1,0.3,0.3,0.5,0.6,0.7c0.1,0.1,0.3,0.1,0.3,0.1c0.2,0,0.3,0.1,0.4,0.1h0.1
		h0.1c0.2,0,0.3,0,0.4-0.1c0.2,0,0.3-0.1,0.5-0.2h0.1l0,0l0.1-0.1l0,0c0.1,0,0.1-0.1,0.2-0.2l0.1-0.1v-0.1v-0.2v-0.5l0,0L186.5,74.7
		 M186.5,74.9L186.5,74.9L186.5,74.9v0.2l0,0l0,0l0,0l-0.1,0.2v0.1l-0.1,0.1l0,0h-0.1l-0.1,0.1l-0.2,0.1h-0.1h-0.1l0,0
		c-0.1,0-0.2,0-0.3,0c-0.1,0-0.2,0-0.3,0h-0.1h-0.1h-0.1H185h-0.2l-0.2-0.1c-0.3-0.1-0.4-0.3-0.4-0.5c0-0.2,0.2-0.3,0.4-0.5
		c0.1-0.1,0.3-0.1,0.3-0.1c0.1,0,0.3,0,0.3,0h0.1h0.3l0.2,0.1l0,0l0.2,0.1l0.1,0.1l0,0L186.5,74.9 M186,75.9L186,75.9l0.3-0.2
		l0.2-0.1v-0.1l0,0l0,0v0.1c0,0.1-0.1,0.1-0.1,0.1l0,0l0,0l0,0l-0.1,0.1c-0.2,0.1-0.3,0.1-0.4,0.2c-0.1,0-0.3,0-0.3,0h-0.1h-0.1
		c-0.1,0-0.3,0-0.3,0c-0.1,0-0.2-0.1-0.3-0.1c-0.2-0.1-0.3-0.2-0.4-0.3c0.1,0.1,0.2,0.2,0.3,0.2c0.1,0.1,0.3,0.1,0.3,0.1
		s0.2,0,0.2,0c0.1,0,0.2,0,0.3,0h0.1c0.1,0,0.2,0,0.3,0c0.1,0,0.2,0,0.3-0.1l0,0L186,75.9 M185.8,74.7L185.8,74.7L185.8,74.7
		L185.8,74.7l-0.4-0.1h-0.1c-0.3,0-0.4,0.1-0.5,0.2l-0.3,0.2l0,0V75v0.2l0,0v0.1v0.1h0.1l0,0l0,0l0,0l0,0l0.3,0.1h0.1l0.4,0.1l0,0
		l0.3-0.1h0.2h0.1l0.1-0.1l0.2-0.1l0.1-0.1l0,0v-0.3v-0.1l0,0l0,0C186.1,74.8,186,74.8,185.8,74.7 M185.6,74.8l0.2,0.1
		c0.1,0,0.1,0,0.1,0.1l0.1,0.1v0.1l0,0l0,0l-0.2-0.1l-0.1-0.1h-0.1l0,0h-0.2h-0.1l-0.3,0.1l0,0l0,0h-0.1l-0.1,0.1l0,0v-0.1l0,0
		l0.1-0.1c0.1-0.1,0.3-0.1,0.4-0.1h0.1l0,0L185.6,74.8 M185.6,75.2L185.6,75.2c0.1,0,0.2,0.1,0.3,0.2l0,0l0,0h-0.1l0,0l-0.3,0.1
		h-0.3l-0.3-0.1l0,0h0.1l0.1-0.1h0.1L185.6,75.2L185.6,75.2L185.6,75.2L185.6,75.2L185.6,75.2 M130.3,16l2.1,1.3l0.1-0.2l0,0
		l-2.1-1.3l-0.7-0.8l-0.3-0.7l-0.2-0.3c-0.4-0.7-0.9-1.2-1.6-1.4l-13.4-7.8h-0.1c-0.4-0.2-0.9-0.3-1.3-0.3c-1,0-2,0.5-3,1.5
		c-1.5,1.4-2.2,3-2,4.7V11c0.1,0.7,0.3,1.3,0.6,1.7c-0.2-0.1-0.4-0.1-0.6-0.1c-0.8,0-1.5,0.3-2.3,0.9c-0.9,0.8-1.7,1.6-2.2,2.6
		c-0.5,0.9-0.8,1.8-0.7,2.8c0.1,0.8,0.3,1.4,0.8,1.8l0.1,0.1l7.2,4.1l7.4,4.3c0.1,0.1,0.2,0.2,0.3,0.2c0.1,0.1,0.3,0.1,0.3,0.2
		c0.4,0.2,0.9,0.3,1.4,0.3h0.2l0,0h0.1h0.3l0.8,0.1l0.8,0.3l0.8,0.4l0.9,0.5l0,0l0.1-0.2l0,0l-0.9-0.5l-0.8-0.3l-0.8-0.3l-0.9-0.1
		h-0.3h-0.1h-0.2c-0.5,0-0.9-0.1-1.3-0.3c-0.1-0.1-0.2-0.1-0.3-0.2c-0.1-0.1-0.2-0.1-0.3-0.2c-0.1-0.1-0.1-0.1-0.2-0.2
		c-0.6-0.5-1-1.3-1.3-2.3c-0.3-1.2-0.3-2.4,0-3.9c0.3-1.3,0.8-2.8,1.7-4.4c0.8-1.3,1.6-2.4,2.6-3.4c1.2-1.1,2.3-1.8,3.5-2.2
		c0.3-0.1,0.5-0.2,0.8-0.2c0.3-0.1,0.5-0.1,0.8-0.1c0.2,0,0.4,0,0.6,0c0.2,0,0.3,0.1,0.6,0.2l0.2,0.1l0,0c0.7,0.3,1.2,0.8,1.5,1.3
		l0.2,0.3l0.3,0.7L130.3,16 M126.8,12.5c-0.2,0-0.4-0.1-0.6-0.1c-0.5,0-1,0.1-1.6,0.3c-1.3,0.4-2.4,1.2-3.6,2.3
		c-1,0.9-1.8,2.1-2.6,3.4c-0.8,1.6-1.4,3-1.8,4.4s-0.3,2.7-0.1,3.9c0.2,0.8,0.5,1.4,0.9,1.9l-6-3.4l0,0l-0.7-0.3l-0.3-0.3
		c-0.3-0.3-0.6-0.7-0.8-1.2l-0.1-0.3l-0.1-0.3l-0.1-0.3l-0.1-0.4c-0.3-1.2-0.2-2.4,0.2-3.7c0.3-1.3,0.8-2.7,1.7-4.1
		c0.9-1.8,2.3-3.4,4-4.5c1.3-0.8,2.4-1.3,3.5-1.3c0.5,0,1,0.1,1.5,0.3L126.8,12.5 M119.4,8.2c-0.1,0-0.3,0-0.3-0.1
		c-0.1,0-0.3,0-0.3,0c-1.1,0-2.3,0.4-3.6,1.3c-1.8,1.3-3.2,2.8-4.1,4.6c-0.8,1.5-1.4,2.8-1.7,4.2c-0.3,1.3-0.3,2.6-0.2,3.8l0.1,0.4
		l0.1,0.3l0.1,0.3l0.1,0.3c0.1,0.2,0.2,0.3,0.3,0.4c0.1,0.2,0.2,0.3,0.3,0.3l-5.7-3.3h0.1c1,0,2-0.4,2.9-1.3
		c0.9-0.8,1.5-1.8,1.9-2.9c0.3-0.8,0.4-1.5,0.3-2.2c-0.1-0.8-0.3-1.3-0.8-1.6l-0.2-0.1c-0.4-0.4-0.8-1-0.8-1.8v-0.2
		c-0.2-1.6,0.5-3.1,2-4.5c1-0.9,1.9-1.4,2.8-1.4c0.4,0,0.8,0.1,1.3,0.3c0,0,0,0,0.1,0L119.4,8.2 M107.8,12.7c0.1,0,0.3,0,0.3,0
		c0.2,0,0.3,0.1,0.3,0.1s0.2,0.1,0.3,0.1l0.2,0.1c0.4,0.3,0.6,0.8,0.7,1.4c0.1,0.7,0,1.4-0.3,2.1c-0.4,1.1-1.1,2-1.9,2.8
		c-0.9,0.8-1.8,1.3-2.8,1.3h-0.3c-0.1,0-0.2,0-0.3-0.1c-0.1,0-0.2-0.1-0.3-0.1l-0.1-0.1h-0.1c-0.4-0.3-0.7-0.8-0.8-1.7
		c0-0.9,0.2-1.8,0.7-2.7c0.5-1,1.2-1.8,2.1-2.5C106.3,13.1,107,12.7,107.8,12.7 M136.9,15.7c-0.2,0-0.3,0-0.5,0.1
		c-1,0.2-2,0.5-3.1,1.1l-0.3,0.2l-0.3,0.2c-1,0.7-2,1.5-2.9,2.5c-0.9,1-1.8,2.3-2.6,3.6c-0.7,1.1-1.2,2.3-1.6,3.3
		c-0.4,1.1-0.7,2.1-0.8,3.1l-0.1,0.3l-0.1,0.3v0.3V31v0.4v0.4c0,1.2,0.3,2.3,0.6,3.3c0.4,1.2,1.1,2,2,2.5l0.9,0.5
		c0.7,0.4,1.3,0.6,2.2,0.6h0.2c0.7,0,1.4-0.2,2.3-0.4l0.9,0.5v0.1l0,0h0.1V39h0.2l0,0v-0.2h0.2l2.3-0.3l0.8-0.3
		c0.8-0.1,1.5-0.3,2.3-0.8l1.3-0.6l0.9-1.1l0.4-0.5c0.1-0.1,0.3-0.3,0.3-0.4l0.3-0.4l0.3-0.5l0.3-0.5c0.1-0.1,0.1-0.2,0.2-0.2l0,0
		l0.8,0.3l0.9,0.3v1l0.3,0.6l0.1,0.1l0,0l0.1,0.2h0.1l0.1,0.1h0.1l0,0l1.3,0.5c0,0.3,0.2,0.6,0.3,0.8c0,0.1,0.1,0.2,0.1,0.3
		c0.1,0.2,0.2,0.3,0.3,0.3l1.4,0.8l0.2,0.1l0,0v-0.1l0.2,0.1l0.1,0.5l0.1,0.1l1.4,0.8l0.3,0.2h0.1h0.2c0.1,0,0.1,0,0.2,0
		c0.2,0,0.3-0.1,0.3-0.1c0.6-0.3,1-0.7,1.5-1.3c0.3-0.5,0.5-1,0.6-1.6c0.1-0.7-0.1-1.2-0.5-1.5l-1.5-0.9c-0.1-0.1-0.2-0.1-0.3-0.1
		l-0.1-0.1l-0.1-0.1c0,0-0.1,0-0.1-0.1l-0.2-0.1l-1.3-0.8c-0.1-0.1-0.2-0.1-0.3-0.1c-0.1,0-0.2,0-0.3,0H150h-0.7
		c-0.2,0-0.3,0.1-0.5,0.2l-2.3-1.9l-0.2-0.1h-0.1l0,0h-0.1c0,0-0.1,0-0.2,0.1l-0.3,0.3l-0.3,0.5v0.9l-0.8-0.3l-0.6-0.3
		c0.6-0.9,1-1.9,1.3-2.9l0.6-1.7v-0.3l-0.1-1.2c0-1-0.2-1.9-0.6-2.6l-0.3-0.8l-1-2v-0.1l-1.1-0.7c-0.4-1.9-1.2-3.3-2.4-3.9l-0.8-0.5
		c-0.4-0.3-0.8-0.4-1.3-0.5c-0.2,0-0.3-0.1-0.5-0.1s-0.3,0-0.5,0C137.1,15.7,137,15.7,136.9,15.7 M136.4,15.9c0.2,0,0.3,0,0.5-0.1
		c0.2,0,0.3,0,0.4,0c0.2,0,0.3,0,0.5,0c0.2,0,0.3,0,0.4,0.1c0.2,0,0.3,0.1,0.5,0.1c0.2,0.1,0.3,0.1,0.4,0.2c-0.2,0-0.3-0.1-0.4-0.1
		s-0.3,0-0.5,0h-0.1h-0.3c-0.2,0-0.3,0-0.5,0.1c-1,0.2-2,0.5-3.1,1.1c-1.2,0.7-2.3,1.7-3.5,2.8c-1,1.1-1.9,2.3-2.7,3.7
		c-0.6,0.9-1,1.8-1.4,2.8c-0.4,1-0.7,2-0.9,3.1l-0.1,0.4l-0.1,0.3l-0.1,0.4l-0.1,0.4c-0.1,1.4-0.1,2.6,0.3,3.6
		c0.3,1,0.8,1.8,1.4,2.5c-0.8-0.5-1.3-1.3-1.8-2.3c-0.3-0.9-0.5-2-0.6-3.2v-0.4v-0.4v-0.3v-0.3v-0.3l0.1-0.3c0.2-1,0.4-2,0.8-3.1
		c0.4-1.1,0.9-2.2,1.5-3.3c0.8-1.3,1.7-2.5,2.6-3.6c0.9-1,1.9-1.8,2.9-2.5l0.3-0.2l0.3-0.2C134.4,16.4,135.4,16.1,136.4,15.9
		 M131.8,20.6L131.8,20.6l-0.9,3.3l-1.7,2.9l-2.3,2.6h-0.3l0,0v0.2l0,0h0.1l0,0h0.3l0.4,0.2l4,2.3l-0.1,0.1l0,0l0.2,0.1l0,0l0.1-0.1
		l0.9,2.1l0.7,2.4l0.2,2l-0.9-0.5l-2.7-1.5l-0.3-0.1h-0.4l-0.6,0.2l0,0l0.1,0.2l0,0l0.5-0.2h0.4h0.3l2.4,1.4
		c-0.8,0.3-1.5,0.3-2.1,0.3h-0.1c-0.2,0-0.3,0-0.6,0c-0.2,0-0.3-0.1-0.5-0.1c-0.2-0.1-0.3-0.1-0.5-0.2c-0.2-0.1-0.3-0.2-0.5-0.3
		c-1-0.6-1.7-1.5-2.1-2.6c-0.4-1.1-0.5-2.5-0.4-4.1v-0.4l0.1-0.4l0.1-0.3l0.1-0.4c0.2-1,0.5-2,0.8-3c0.4-1,0.8-1.9,1.4-2.8
		c0.8-1.3,1.7-2.6,2.7-3.7c1.1-1.2,2.3-2.2,3.4-2.8c1-0.6,2-0.9,3-1.1c0.2,0,0.3,0,0.5-0.1h0.3h0.2c0.8,0,1.3,0.2,1.9,0.4l0.2,0.1
		c1.1,0.7,1.9,1.8,2.3,3.6l-2.4-1.4l-0.3-0.3l-0.1-0.3l-0.1-0.3l0,0h-0.2l0,0l0.1,0.4l0.2,0.3l0.3,0.3l2.7,1.6l0.9,0.5l-2.1,0.9
		l-2.4,0.6l-2.3,0.2l-3.7-2.1l-0.4-0.3l-0.3-0.3l-0.3-0.4l0,0l-0.2,0.1l0,0l0.3,0.4l0.3,0.3l0.4,0.3l3.6,2V23l0,0h0.1l-1.2,3.2
		l-1.8,2.9l-2,2.3l-4.1-2.3l-0.5-0.1l2.2-2.5l1.7-3l0.9-3.3l0,0L131.8,20.6 M142.2,22.3h-0.3l1.8-0.8l0.9,1.9v0.1
		c-0.3-0.3-0.6-0.6-0.9-0.8C143.3,22.5,142.8,22.3,142.2,22.3 M142,24.6c-0.2,0-0.3,0-0.4,0c-0.2,0-0.3,0.1-0.5,0.1v-0.4
		c0.2-0.1,0.3-0.1,0.5-0.1c0.2,0,0.3,0,0.4,0c0.5,0,0.9,0.2,1.3,0.3c0.8,0.4,1.2,1.2,1.3,2.1l-0.3,0.2c-0.2-0.9-0.6-1.5-1.1-1.9
		C142.9,24.7,142.5,24.6,142,24.6 M142,24c-0.2,0-0.3,0-0.5,0c-0.2,0-0.3,0.1-0.5,0.1c-0.2,0.1-0.3,0.1-0.5,0.2
		c-0.2,0.1-0.3,0.2-0.5,0.3c-0.1,0.1-0.3,0.1-0.3,0.2c-0.1,0.1-0.2,0.1-0.3,0.2c-0.9,0.6-1.8,1.5-2.6,2.6c-0.1,0.2-0.3,0.3-0.3,0.5
		l-0.2,0.3l-0.2,0.3l-0.1,0.1c-0.1,0.2-0.2,0.3-0.3,0.4V29c0,0,0,0,0,0.1l-0.2,0.3l-0.2,0.3c-0.4,1-0.8,2.1-0.8,3.2
		c0,0.1,0,0.2,0,0.3v0.3v0.3V34v0.3c0,0.2,0.1,0.3,0.1,0.4c0,0.2,0.1,0.3,0.1,0.4c0.3,0.8,0.7,1.3,1.3,1.7c0.4,0.3,0.9,0.3,1.4,0.3
		c0.7,0,1.3-0.2,2.1-0.6c0.1-0.1,0.2-0.1,0.3-0.2c0.1-0.1,0.2-0.1,0.3-0.2c0.2-0.1,0.3-0.2,0.4-0.3c0.2-0.1,0.3-0.3,0.4-0.3l0,0l0,0
		v-0.1l0.2-0.1c0.7-0.6,1.2-1.2,1.7-1.9l0.2-0.2l0.2,0.1l-0.1,0.1l-0.3,0.5l-0.3,0.4l-0.3,0.4l-0.3,0.4c-0.2,0.2-0.3,0.3-0.4,0.5
		c-0.2,0.2-0.3,0.3-0.4,0.4c-0.2,0.1-0.3,0.3-0.4,0.3l-0.3,0.3l-0.3,0.3l-0.3,0.2l-0.3,0.2l-0.8,0.3l-1.4,0.4h-0.3h-0.3
		c-1,0-1.8-0.4-2.4-1.3c-0.6-0.8-0.8-1.8-0.8-3.1c0-1.3,0.3-2.8,0.9-4.3l0.1-0.3L134,29c0.8-1.6,1.7-3,2.8-4.2
		c0.9-0.9,1.9-1.7,3-2.2c0.7-0.3,1.3-0.4,1.9-0.5c0.6,0,1.1,0.2,1.6,0.4c0.6,0.3,0.9,0.8,1.3,1.4l0.4,1.4l0.1,1.1v0.4v0.5v0.3l0,0
		l-0.1,0.4l-0.1,0.4l-0.1,0.4l-0.1,0.4l-0.1,0.2l-0.6,1.5l-0.8,1.4l0,0l-0.3-0.1l0.3-0.5l0.3-0.5v-0.1l0.2-0.5l0.2-0.5l0.2-0.5
		l0.2-0.5c0.1-0.3,0.1-0.5,0.2-0.8c0.1-0.3,0.1-0.5,0.1-0.7l0.1-0.1l0,0l-0.1-0.1v-0.4v-0.4v-0.3v-0.3c-0.2-1.1-0.7-1.9-1.5-2.3
		C143,24.1,142.6,24,142,24 M140.9,25L140.9,25h0.2c0.2-0.1,0.3-0.1,0.5-0.1c0.2,0,0.3,0,0.5,0c0.4,0,0.8,0.1,1.2,0.3
		c0.5,0.3,0.8,0.8,1,1.7l-1.6-0.9c-0.1,0-0.1,0-0.2-0.1c-0.1,0-0.1,0-0.2-0.1h-0.1h-0.1h-0.1l0,0l0,0l-0.1,0.1l0,0h-0.1l-0.1,0.1
		c-0.2,0.3-0.1,0.7,0.2,1.1l0.2,0.3l0,0l0.2-0.1l0,0l-0.2-0.3c-0.2-0.3-0.3-0.7-0.2-0.8v-0.1h0.1l0.1-0.1l0,0l0,0h0.1
		c0,0.1,0,0.2,0,0.3c0.1,0.2,0.1,0.3,0.2,0.5c0.2,0.3,0.4,0.5,0.5,0.6l1.7,1l-0.3,0.2l-1.8-1.1l0,0l-0.1,0.2l0,0l1.9,1.1
		c0,0.2-0.1,0.3-0.1,0.5s-0.1,0.3-0.2,0.6l-0.1,0.3l-0.1,0.3l-0.2,0.3l-0.2,0.4l-1.4-0.8l-0.5-0.3c-0.1-0.1-0.2-0.1-0.3-0.1
		c-0.1,0-0.3,0-0.3,0.1l0,0l0.1,0.2l0,0c0.1,0,0.3-0.1,0.3-0.1s0.2,0,0.2,0.1l0.2,0.1l-0.3,0.2c-0.1,0-0.2,0.1-0.2,0.1
		c-0.1,0.1-0.2,0.2-0.3,0.3c-0.2-0.2-0.3-0.3-0.4-0.3c-0.2-0.1-0.3-0.2-0.3-0.3c-0.2-0.1-0.3-0.2-0.4-0.3c-0.2-0.1-0.3-0.2-0.5-0.2
		l-0.3-0.1l-0.3-0.1c-0.2-0.1-0.4-0.2-0.6-0.2c-0.2-0.1-0.4-0.2-0.6-0.3c-0.2-0.1-0.4-0.2-0.6-0.3c-0.2-0.1-0.3-0.2-0.6-0.3l0,0
		c0.1-0.2,0.3-0.3,0.3-0.5s0.3-0.3,0.3-0.5l0.4,0.3l0.1-0.1c0.6-0.9,1.3-1.6,2.1-2.2h0.1v-0.8c0.2-0.1,0.3-0.3,0.6-0.3
		c0.2-0.1,0.3-0.2,0.3-0.2c0.2-0.1,0.3-0.1,0.3-0.1V25 M139.2,23.1l0.6-0.2c-1,0.5-1.9,1.2-2.8,2c-0.2,0.2-0.4,0.4-0.6,0.6
		c-0.2,0.3-0.3,0.4-0.5,0.7l1.1-2.8l0,0l-0.2-0.1L139.2,23.1 M139.4,25.1v0.4c-0.8,0.5-1.5,1.3-2.1,2.1l-0.3-0.2
		C137.8,26.5,138.6,25.7,139.4,25.1 M137.3,29.4c0.4,0.2,0.8,0.3,1.3,0.5l0.3,0.1l0.3,0.1c0.2,0.1,0.3,0.1,0.5,0.2
		c0.2,0.1,0.3,0.2,0.4,0.2c0.1,0.1,0.3,0.2,0.3,0.3l0.2,0.2l0.2,0.2l0.1,0.1l0,0l0.1,0.1c0.5,0.6,1.1,1,1.9,1.4l0.3,0.1l0.3,0.1
		l0.3,0.1l0,0l0,0h0.2l0.3,0.2l0.3,0.2l0.8,0.3v0.4l-0.9-0.3l-0.8-0.3l-0.3-0.1l-0.1-0.1l-0.2-0.1l-0.2-0.1l-0.4-0.2
		c-0.2-0.1-0.3-0.2-0.4-0.3c-0.2-0.1-0.3-0.2-0.4-0.3l-0.3-0.2l-0.3-0.3h-0.1l-0.1-0.1c-0.1-0.1-0.2-0.2-0.3-0.3
		c-0.1-0.1-0.2-0.2-0.2-0.3l-0.3-0.3l0,0c-0.3-0.3-0.8-0.5-1.2-0.7l-0.5-0.2l-0.5-0.2l-0.5-0.2l-0.5-0.2c-0.2-0.1-0.3-0.2-0.5-0.3
		l-0.5-0.3c0.1-0.1,0.1-0.2,0.2-0.3C136.5,29.1,136.9,29.2,137.3,29.4 M142.7,26.6c-0.1-0.2-0.1-0.3-0.2-0.4c0-0.1,0-0.1,0-0.2
		l2,1.1l0,0v-0.1l0.3-0.2v0.3v0.3v0.3v0.3l-1.7-1c-0.1,0-0.2-0.1-0.2-0.2C142.8,26.9,142.7,26.8,142.7,26.6 M133.9,29.7L133.9,29.7
		c-0.8,1.7-1,3.1-1,4.4v0.4l-0.1-0.3l-1-2.2L133.9,29.7 M135.6,29.8c0.1-0.2,0.2-0.3,0.2-0.4l0.3,0.2l-0.1,0.2
		c-0.5,1.1-0.8,2.1-0.8,3l-0.4,0.3v-0.1C134.9,31.8,135.2,30.8,135.6,29.8 M136.4,29.7c0.2,0.1,0.3,0.2,0.6,0.3l0.5,0.2l0.5,0.2
		l0.5,0.2l0.5,0.2c0.5,0.2,0.9,0.4,1.3,0.7v0.2l0,0l0,0v0.2c0.1,0.3,0.2,0.3,0.3,0.4l0.9,0.5l0.3,0.2l0.3,0.2
		c0.2,0.1,0.3,0.3,0.6,0.3c-0.5,0.7-1,1.3-1.5,1.7l-1.9-1.1c-0.1-0.1-0.3-0.1-0.4-0.2c-0.2,0-0.3-0.1-0.5-0.1
		c-0.6,0.1-0.9,0.3-1.1,0.5l-0.1,0.1v0.1l0,0v0.1c0,0.1,0,0.2,0,0.3v0.1l0,0l0,0l0,0v0.1l0,0h0.1v0.1l0.1,0.1l0.1,0.1l0,0l2.1,1.2
		c-0.6,0.3-1.2,0.4-1.7,0.4c-0.2,0-0.3,0-0.5,0c-0.8-0.2-1.3-0.7-1.6-1.5l0,0l-0.8-0.4c0-0.2,0-0.3,0-0.6v-0.3v-0.3l0.6-0.3v-0.1
		c0.1-1,0.3-2,0.8-3L136.4,29.7 M137.1,34.4L137.1,34.4L137.1,34.4L137.1,34.4v-0.2l0.1-0.1c0.1-0.2,0.4-0.3,0.9-0.4
		c0.2,0,0.3,0,0.5,0.1c0.2,0.1,0.3,0.1,0.3,0.2l1.9,1.1v0.4l-1.8-1.1l-0.3-0.2h-0.3h-0.3l0,0H138l-0.3,0.1L137.1,34.4L137.1,34.4
		L137.1,34.4 M134.9,35.2c-0.1-0.2-0.1-0.3-0.1-0.5l0.5,0.3L134.9,35.2 M136.2,36.9c-0.6-0.3-0.9-0.8-1.2-1.5l0.5-0.3
		c0.3,0.8,0.9,1.3,1.7,1.5c0.2,0,0.3,0.1,0.5,0.1c0.6,0,1.2-0.2,1.8-0.4v0.4c-0.7,0.3-1.3,0.5-1.9,0.5
		C137,37.2,136.6,37.1,136.2,36.9 M133.6,36.8c0.1,0.2,0.2,0.3,0.3,0.5c0.6,0.8,1.3,1.3,2.2,1.3l-2.2,0.3h-0.2L133.6,36.8
		 M143.9,31.5l-0.3-0.2l0.2-0.4l0.2-0.4l0.2-0.3l0.1-0.3c0.1-0.2,0.1-0.4,0.2-0.6c0.1-0.2,0.1-0.4,0.1-0.6l0.3-0.2
		c0,0.2-0.1,0.4-0.1,0.6c0,0.3-0.1,0.4-0.2,0.7l-0.1,0.4l-0.2,0.4l-0.2,0.4L143.9,31.5 M143.4,31.5l0.4,0.3l-0.3,0.5l-0.3,0.5
		c-0.2-0.1-0.3-0.1-0.3-0.2c-0.8-0.4-1.4-0.8-1.9-1.4c0-0.1,0.1-0.1,0.1-0.2l0.1-0.1l0,0l0,0l0,0l0.1-0.1l0,0l0.1-0.1l0.2-0.1h0.2
		h0.2L143.4,31.5 M142.7,33.3l0.2,0.3c-0.4,0.7-1,1.3-1.6,1.8l-0.1-0.3C141.7,34.7,142.2,34.1,142.7,33.3 M140.4,31.6L140.4,31.6
		l0.2,0.2l0.2,0.2l-0.1-0.1l-0.1-0.1C140.6,31.8,140.6,31.8,140.4,31.6C140.5,31.7,140.4,31.7,140.4,31.6 M139.6,36.2L139.6,36.2
		L139.6,36.2l-1.3-0.8h0.1l0,0h0.1l0,0l0,0h0.1v-0.3l0,0l0,0l0,0l0,0l0,0v-0.2l-0.1-0.2l0,0l0,0v-0.1l0,0l-0.1-0.1l-0.2-0.1
		c0,0-0.1,0-0.2,0l0,0v0.2l0,0h0.1l0,0l0.2,0.1l0,0l0,0l0,0l0,0l0,0l0,0v0.1h-0.1l0,0h-0.1l0,0l0,0h-0.2l-0.8-0.5v-0.1l0.3-0.2
		c0.3,0,0.3-0.1,0.5-0.1l0,0h0.2h0.3l0.3,0.2l1.9,1.2c-0.1,0.1-0.3,0.2-0.4,0.3c-0.2,0.1-0.3,0.2-0.4,0.3
		C139.8,35.9,139.6,36,139.6,36.2L139.6,36.2 M140.6,37L140.6,37L140.6,37L140.6,37 M145.6,28.5v-0.3V28.5L145.6,28.5 M148.6,34
		l-0.2,0.1l-2.3-1.9l0,0l0,0H146l0,0h0.1l0,0l0,0h0.1h0.1L148.6,34 M149,34.1L149,34.1l-0.2,0.2c-0.2,0.1-0.3,0.3-0.3,0.3
		c-0.1,0.1-0.2,0.3-0.3,0.3c-0.1,0.1-0.2,0.3-0.3,0.3c-0.1,0.2-0.2,0.3-0.2,0.4c-0.1,0.2-0.1,0.3-0.2,0.4v0.1l-0.2-0.2
		c0-0.1,0-0.2,0.1-0.3l0,0c0-0.1,0.1-0.2,0.1-0.3v-0.1c0-0.1,0.1-0.2,0.1-0.2c0.1-0.2,0.3-0.3,0.3-0.5l0,0c0.1-0.2,0.3-0.3,0.3-0.3
		l0.1-0.1l0.2-0.1l0,0h0.1C148.9,34.2,148.9,34.1,149,34.1L149,34.1l0.2,0L149,34.1C149.2,34,149.1,34.1,149,34.1 M149.8,34
		c0.1,0,0.2,0,0.3-0.1l1.2,0.8l-0.2,0.1L149.8,34 M145.7,32.4L145.7,32.4v0.3l0,0v0.1l0,0v0.1l0,0V33l0,0l0,0h0.1v0.1h0.2l0,0h0.1
		l0,0h0.1l0,0l0,0v-0.3l0,0l0,0l0,0v-0.1v-0.1l0,0l-0.1-0.1l-0.1-0.1h-0.1C145.8,32.4,145.8,32.4,145.7,32.4L145.7,32.4L145.7,32.4
		L145.7,32.4L145.7,32.4L145.7,32.4L145.7,32.4l0.2-0.1c0.1,0,0.1,0,0.1,0l0,0l0,0l2.3,1.9c-0.1,0.1-0.2,0.2-0.3,0.3l-1.7-1.3l0,0
		v1.1l1.2,0.8l0,0l0.1-0.2l0,0l-1.1-0.7v-0.6l1.3,1.1l-0.2,0.3l-0.2,0.3l-0.1,0.2l-0.9-0.5l-0.3-0.2v-1.3l0,0l0,0v-0.1h0.1l0,0v-0.2
		l0,0H146l0,0l0,0l0,0h-0.1l0,0l0,0l0,0v0.1l0,0v2l0,0l0,0l0,0l0,0l0,0h-0.2l-0.2-0.2l0,0v0.1l0,0h-0.1v0.1v0.3l-0.1-0.2l0,0v-0.1
		v-2.7L145.7,32.4 M145.8,32.7L145.8,32.7L145.8,32.7L145.8,32.7L145.8,32.7L145.8,32.7L145.8,32.7L145.8,32.7h0.2v0.1l0,0l0,0l0,0
		v0.1l0,0l0,0h-0.1L145.8,32.7L145.8,32.7L145.8,32.7L145.8,32.7L145.8,32.7L145.8,32.7L145.8,32.7 M146.7,35.3L146.7,35.3
		L146.7,35.3V35l0.8,0.4c0,0.1-0.1,0.2-0.1,0.3l-0.4-0.1l-0.1-0.1v-0.1l0,0l0,0l0,0L146.7,35.3L146.7,35.3L146.7,35.3 M146.3,34.8
		l0.2,0.1v0.3v0.1l0,0v0.1l0,0l0,0l0.2,0.2l0,0l0,0l0.1,0.1l0.2,0.1l-0.3-0.1l0,0v0.3l0,0l0.7,0.3v0.3v0.2l-1.2-0.4v-0.1h0.2h0.1
		l0,0l0,0V36l0,0v-0.3l0,0v-0.1l0,0l0,0l0.1-0.1l0,0c0-0.1,0-0.1,0-0.2L146.3,34.8 M145.8,35.6L145.8,35.6L145.8,35.6L145.8,35.6
		l0.2,0.1v0.1v0.1l0,0l0,0h-0.1l0,0l0,0l0,0v-0.1l0,0l0,0l0,0L145.8,35.6L145.8,35.6 M147.4,36.8c0,0.1,0,0.2,0,0.3l0,0
		C147.4,37,147.4,36.9,147.4,36.8c-0.1-0.2-0.1-0.3-0.1-0.3v-0.2l0.2,0.1C147.5,36.5,147.4,36.6,147.4,36.8 M150.5,35.3
		C150.6,35.2,150.6,35.2,150.5,35.3c0.2-0.2,0.3-0.3,0.5-0.3c0.2-0.1,0.3-0.1,0.5-0.1h0.1l0,0h0.1h0.2h0.1h-0.3l0,0l0,0
		c-0.1,0-0.1,0-0.2,0.1l0,0c-0.1,0-0.2,0-0.3,0s-0.3,0.1-0.3,0.2c-0.4,0.3-0.8,0.7-1.1,1.2c-0.3,0.4-0.3,0.8-0.4,1.3
		c0,0.2,0,0.3,0,0.6l0.2,0.3v-0.1c0,0.1,0,0.3,0.1,0.3l-0.2-0.2c-0.1-0.2-0.1-0.3-0.1-0.5c0-0.2,0-0.3,0-0.6l0,0
		c0-0.1,0-0.2,0.1-0.3c0-0.1,0.1-0.2,0.1-0.3c0.1-0.1,0.1-0.3,0.2-0.3c0.1-0.1,0.1-0.3,0.2-0.3c0.2-0.3,0.3-0.4,0.4-0.6l0.1-0.1
		C150.3,35.4,150.5,35.4,150.5,35.3 M150.8,34.9c-0.1,0.1-0.2,0.1-0.3,0.2l-1.3-0.8c0.1-0.1,0.2-0.1,0.3-0.2L150.8,34.9 M149.9,35.6
		c-0.2,0.2-0.3,0.3-0.3,0.5l-1.3-0.8c0.1-0.2,0.3-0.3,0.3-0.5L149.9,35.6 M150.5,35.8c-0.1,0.1-0.2,0.3-0.3,0.3
		c-0.1,0.1-0.2,0.3-0.3,0.3c-0.1,0.1-0.2,0.3-0.2,0.4c-0.1,0.2-0.1,0.3-0.2,0.4c0,0.1-0.1,0.3-0.1,0.3c0-0.1,0-0.2,0.1-0.3
		c0-0.1,0.1-0.2,0.1-0.3c0.1-0.2,0.2-0.4,0.3-0.6c0.2-0.3,0.4-0.7,0.8-0.9C150.6,35.6,150.5,35.7,150.5,35.8 M150.4,35.1
		c-0.1,0.1-0.2,0.2-0.3,0.3l-1.3-0.8c0.1-0.1,0.2-0.2,0.3-0.3L150.4,35.1 M147.9,36.1c0.1-0.2,0.2-0.4,0.3-0.6l1.3,0.8
		c-0.1,0.1-0.1,0.2-0.2,0.3c-0.1,0.1-0.1,0.2-0.1,0.3L147.9,36.1 M147.7,37.1V37l1.3,0.8c0,0.1,0,0.3,0,0.3l-1.3-0.8L147.7,37.1
		 M147.8,37.8c0-0.1-0.1-0.2-0.1-0.3l1.3,0.8c0,0.1,0,0.2,0,0.2L147.8,37.8 M149.1,37c0,0.2-0.1,0.3-0.1,0.4l-1.3-0.8
		c0-0.2,0.1-0.3,0.1-0.4L149.1,37 M149.8,37.3c0.1-0.2,0.2-0.4,0.3-0.6l1.3,0.8c-0.1,0.1-0.1,0.2-0.2,0.3c-0.1,0.1-0.1,0.2-0.1,0.3
		L149.8,37.3 M149.6,38.4c0-0.1,0-0.2,0-0.3l1.3,0.8c0,0.1,0,0.2,0,0.3L149.6,38.4L149.6,38.4 M149.7,37.9c0-0.2,0-0.3,0.1-0.4
		l1.3,0.8c0,0.2-0.1,0.3-0.1,0.4L149.7,37.9 M150.2,36.5c0.1-0.2,0.3-0.3,0.3-0.5l1.3,0.8c-0.1,0.1-0.2,0.2-0.2,0.3
		c-0.1,0.1-0.1,0.2-0.2,0.3L150.2,36.5 M153.5,35.9L153.5,35.9L153.5,35.9c0.2,0,0.3,0,0.3,0l0.2,0.1c0.1,0,0.1,0.1,0.1,0.1
		C153.9,36,153.7,35.9,153.5,35.9c-0.1,0-0.3,0-0.4,0.1c-1,0.3-1.6,1.1-1.8,2.1c-0.2,0.4-0.2,0.8,0,1.2c0.2,0.5,0.4,0.7,0.8,0.7h0.1
		H152h-0.2h-0.1h-0.1l-0.3-0.2l-0.1-0.1c0,0-0.1-0.1-0.1-0.2c-0.1-0.2-0.2-0.3-0.2-0.5c0-0.1,0-0.2,0-0.3c0-0.1,0-0.2,0-0.3
		c0-0.1,0-0.3,0-0.3c0-0.1,0.1-0.2,0.1-0.3c0.1-0.2,0.1-0.3,0.2-0.4c0.1-0.1,0.2-0.3,0.2-0.3c0.1-0.1,0.2-0.3,0.3-0.3
		c0.1-0.1,0.2-0.3,0.3-0.3c0.1-0.1,0.2-0.2,0.2-0.2c0.1-0.1,0.2-0.2,0.3-0.2l0,0c0.2-0.1,0.3-0.2,0.5-0.3
		C153.2,36,153.3,35.9,153.5,35.9 M153.2,35.8c-0.1,0-0.2,0-0.2,0.1l-1.3-0.8c0.1,0,0.2,0,0.3,0L153.2,35.8 M151.2,35.4
		c0.1-0.1,0.2-0.1,0.3-0.2l1.3,0.8c-0.1,0.1-0.2,0.1-0.3,0.2L151.2,35.4 M151,35.5l1.3,0.8c-0.1,0.1-0.2,0.2-0.3,0.3l-1.3-0.8
		C150.8,35.7,150.9,35.6,151,35.5 M154,36.5c0.3,0.3,0.3,0.8,0.2,1.5c-0.2,0.5-0.4,0.9-0.7,1.3c-0.4,0.4-0.8,0.7-1.3,0.8h-0.1
		c-0.3,0-0.5-0.2-0.7-0.6c-0.1-0.3-0.1-0.7,0.1-1.1c0.2-1,0.8-1.7,1.7-1.9c0.2-0.1,0.3-0.1,0.4-0.1C153.8,36.3,153.9,36.4,154,36.5
		 M149.8,39c0-0.1-0.1-0.2-0.1-0.3l1.3,0.8c0,0.1,0,0.2,0.1,0.3L149.8,39 M138.1,34.7L138.1,34.7L138.1,34.7L138.1,34.7l0.1-0.3
		h-0.1l0,0l0,0l0,0H138l0,0L138.1,34.7L138.1,34.7L138.1,34.7L138.1,34.7L138.1,34.7 M127,30L127,30l1,2.1l0.7,2.3l0.3,2.3l0,0h0.2
		l0,0l-0.2-2.4l-0.7-2.3l-1.1-2.1l0,0L127,30 M130.4,33.6L130.4,33.6h-0.2l0,0l0,0l0,0h-0.1l0,0l0,0l0,0l-0.1,0.1l0,0v0.1v0.1
		l-0.1,0.1l0,0l0.1,0.1v0.1v0.1l0,0l0,0c0,0.1,0,0.1,0.1,0.2c0.1,0.1,0.1,0.2,0.2,0.2l0.1,0.1h0.1l0.1,0.1l0.1,0.1h0.1h0.1l0,0h0.2
		h0.1l0.1-0.1v-0.1l0,0v-0.1v-0.1v-0.3l0,0v-0.1l0,0l0,0V34v-0.1l0,0v-0.1l0,0l-0.1-0.1l-0.1-0.2h-0.1l-0.1-0.1l0,0l-0.2-0.1
		C130.6,33.6,130.5,33.6,130.4,33.6 M130.5,33.8L130.5,33.8l0.2,0.1l0.1,0.1l0,0l0,0V34h0.1l0.1,0.1l0,0l0,0l0.1,0.1l0,0l0,0l0,0
		v0.1v0.1l0,0v0.1l0,0l0,0v0.1l-0.1,0.1l0,0l0,0h-0.1h-0.1l-0.1-0.1v-0.1h-0.1l0,0l-0.1-0.1l-0.1-0.1l-0.1-0.1v-0.1V34l0,0l0,0l0,0
		v-0.1v-0.2l0,0H130.5L130.5,33.8L130.5,33.8L130.5,33.8L130.5,33.8 M132.8,25.7L132.8,25.7L132.8,25.7L132.8,25.7h-0.2h-0.1h-0.2
		h-0.2l-0.1,0.1l0,0l0,0c-0.1,0.1-0.2,0.2-0.3,0.3c-0.1,0.1-0.1,0.2-0.1,0.2c0,0.1-0.1,0.3-0.1,0.3v0.1l0,0v0.1l0,0l0.1,0.1l0,0
		l0.1,0.1l0,0V27h0.1h0.1h0.1h0.1l0,0l0,0l0,0l0,0c0.1,0,0.1,0,0.2,0c0.1,0,0.2,0,0.2-0.1l0.2-0.1l0.2-0.2h0.1v-0.1v-0.1l0,0l0,0
		v-0.3v-0.1V26v-0.1l0,0v-0.1l0,0v-0.1l0,0L132.8,25.7L132.8,25.7 M132.5,25.9L132.5,25.9L132.5,25.9L132.5,25.9L132.5,25.9l0.2,0.2
		v0.1l0,0v0.2v0.2l-0.1,0.1h-0.1l0,0v0.1l-0.1,0.1l-0.1,0.1c-0.1,0-0.2,0.1-0.3,0.1H132l0,0l0,0h-0.1l-0.1-0.1l-0.1-0.1v-0.1l0,0
		v-0.1v-0.1v-0.1l0.1-0.1l0.2-0.2h0.1l0,0l0,0l0,0h0.1L132.5,25.9 M137.8,20.7L137.8,20.7L137.8,20.7L137.8,20.7L137.8,20.7
		L137.8,20.7l-0.2,0.1v0.1v0.1v0.2l0,0v0.1v0.1l0,0l0,0l0,0h0.1l0,0l0,0l0,0h0.1l0,0l0,0l0,0h0.1l0,0h0.1l0,0h0.5l0,0h0.1h0.1h0.1
		h0.1h0.1l0,0l0.1-0.1l0,0l0,0l0,0l0.1-0.1h0.1l0,0l0,0V21l0,0v-0.2v-0.1l0,0v-0.1l0,0v-0.1l0,0l0,0l0,0l0,0l0,0v-0.1h-0.1l-0.1-0.1
		h-0.1h-0.8L137.8,20.7L137.8,20.7 M137.8,21L137.8,21L137.8,21L137.8,21L137.8,21l0.4-0.2h0.1h0.2l0.1,0.1l0,0l0,0h0.1V21h0.1v0.1
		l0,0l0,0v0.1l0,0l0,0h-0.1l0,0h-0.1h-0.1h-0.1h-0.1l0,0l0,0h-0.3H138l0,0h-0.1l0,0h-0.1l0,0l0,0l0,0L137.8,21L137.8,21L137.8,21
		L137.8,21L137.8,21L137.8,21L137.8,21L137.8,21L137.8,21L137.8,21 M132.5,20.2L132.5,20.2l2.8-0.2l2.1-0.5l1.9-0.8l0,0l-0.1-0.2
		l0,0l-1.9,0.8l-2.1,0.5l-2.8,0.2l0,0L132.5,20.2 M187.8,51.1h-0.2l-0.2,0.1l-0.3-0.2l-0.1,0.1h-0.1v0.1v0.3l0,0l0,0l0,0l0.1,0.1
		l2.4,1.4l0.3,0.3c0,0,0,0.1,0.1,0.1l0.1,0.1l0.1,0.1l0,0h0.1h0.3h0.1l0,0h0.1h0.1h0.1l0,0l0.2-0.1l0,0h0.1v-0.1v-0.1v-0.1
		c0,0,0-0.1,0-0.2V53l0,0v-0.1l-0.1-0.1l-0.1-0.1l0,0l-0.1-0.1l0,0l-0.1-0.1h-0.1h-0.3h-0.1H190L187.8,51.1 M187.2,51.4L187.2,51.4
		l0.8,0.3l1.3,0.8c0.1,0,0.2,0.1,0.3,0.2c0.2,0.1,0.3,0.2,0.4,0.3V53l0,0l0,0V53l0.2,0.1l0,0h0.2l0,0V53h-0.1l0,0l0,0l0,0l0,0l0,0
		v-0.1h-0.1l0,0l-0.1-0.1h0.2h0.1h0.1h0.2l0.1,0.1l0.1,0.1l0,0h0.1V53l0,0l0,0l0,0v0.1v0.1v0.1l0,0l0,0l0,0l-0.1,0.1l0,0l0,0l0,0
		l0,0h-0.1h-0.1l-0.2-0.1l-0.3-0.3l-0.3-0.3L187.2,51.4L187.2,51.4L187.2,51.4 M190.4,48.9v-0.2l-0.3-0.3l-0.4-0.2l-0.7-0.1h-0.1
		h-0.3l-0.5,0.2l-0.4,0.3v0.3l-0.1,0.4l0.1,0.2l0.2,0.2l0,0l-0.1,0.8l0.3,0.2l0.2-0.1v0.3l0.3,0.2l0.5-0.1v-0.4h0.1v0.1l0.2,0.3
		l0.3-0.1V51l0.3-0.5v-0.2h0.1L190,50v-0.4l0.1-0.2l0.1-0.2L190.4,48.9 M189.6,48.3l0.3,0.2l0.3,0.3v0.1V49l-0.3,0.3l-0.5,0.2
		l-0.6-0.1l-0.6-0.2l-0.3-0.3v-0.1v-0.2l0.3-0.3l0.4-0.2h0.3L189.6,48.3 M189.9,49.4l0.3-0.3l-0.1,0.1L189.9,49.4l-0.2,0.1l-0.6,0.2
		h-0.5h-0.2l-0.5-0.2l-0.1-0.1l-0.2-0.2v-0.1l0.2,0.2l0.6,0.2l0.7,0.1L189.9,49.4 M189.3,49.9l0.3-0.1v0.6h-0.2v-0.1v-0.3l0,0
		l-0.5,0.1v0.3h-0.1v-0.7L189.3,49.9 M188.3,50L188.3,50L188.3,50l-0.2,0.1l0,0l0.2,0.1l-0.1,0.1l-0.2-0.1v-0.5l0.6,0.3v0.7l0,0
		v-0.3L188.3,50 M189.6,48.5L189.6,48.5l-0.2,0.2l0,0l0.2,0.2v0.1l-0.2,0.2l-0.3,0.1h-0.3l-0.3-0.1l-0.1-0.1v-0.2l0.2-0.1l-0.1-0.2
		l0,0l-0.3,0.2v0.3l0.2,0.2l0.3,0.2h0.3l0.3-0.1l0.3-0.3v-0.3L189.6,48.5 M189,45.8c-0.2,0-0.3,0-0.4,0.1c-0.2,0-0.3,0.1-0.4,0.2
		c-0.1,0.1-0.2,0.1-0.2,0.2c-0.1,0.1-0.1,0.1-0.2,0.2l-0.1,0.2l0,0v0.1v0.1v0.5l0.1,0.2l0.1,0.1l0.1,0.1h0.1l0,0
		c0.1,0.1,0.3,0.2,0.4,0.2c0.1,0,0.2,0,0.3,0.1c0.1,0,0.2,0,0.3,0c0.2,0,0.3,0,0.4,0c0.2,0,0.3-0.1,0.4-0.1c0.3-0.2,0.5-0.4,0.5-0.7
		v-0.3v-0.1v-0.1l0,0v-0.1v-0.1l-0.3-0.3H190l-0.3-0.1l-0.5-0.1L189,45.8L189,45.8 M188,46.8L188,46.8L188,46.8l-0.1-0.2v-0.1l0,0
		l0,0l0.1-0.1l0.1-0.1l0.2-0.1c0.1-0.1,0.3-0.1,0.3-0.1c0.2,0,0.3,0,0.4-0.1h0.1l0.5,0.1l0.3,0.1l0.3,0.3v0.1v0.1l0,0v0.1v0.1
		l-0.1,0.1c-0.1,0.1-0.2,0.2-0.3,0.3c-0.1,0.1-0.2,0.1-0.3,0.1s-0.2,0.1-0.3,0.1s-0.3,0-0.3,0s-0.2,0-0.3,0h-0.1h-0.1l-0.1,0.2l0,0
		l0.1,0.1h0.2c0.1,0,0.2,0,0.3,0c0.1,0,0.3,0,0.3,0c0.2,0,0.3,0,0.3-0.1c0.1,0,0.2-0.1,0.3-0.1l0.1-0.1l-0.3,0.3
		c-0.1,0.1-0.3,0.1-0.3,0.1s-0.3,0-0.3,0h-0.3c-0.1,0-0.2,0-0.3-0.1c-0.2,0-0.3-0.1-0.3-0.2l0,0h-0.1l-0.1-0.1l-0.1-0.1l0,0v-0.1
		c0.1,0.1,0.2,0.2,0.3,0.2l0,0l0.1-0.2c-0.1,0-0.1,0-0.2-0.1C188.1,46.9,188.1,46.8,188,46.8 M189.3,46.8L189.3,46.8l-0.1,0.2h0.2
		l0,0l0.2-0.1h0.1l0.1-0.1l0,0l-0.2-0.2l0,0l-0.1,0.1l0,0l0,0L189.3,46.8 M188.3,46.8L188.3,46.8l0.1,0.2h0.1l0.2,0.1h0.1h0.1h0.3
		l0,0v-0.2l0,0h-0.2h-0.1l0,0l0,0h-0.1l-0.1-0.1h-0.1l0.2-0.1h0.1h0.1h0.1l0,0l0,0h0.2l0.2,0.1l0,0l0.1-0.2l0,0l-0.2-0.1H189h-0.1
		h-0.1l0,0l0,0h-0.1h-0.1l0,0L188.3,46.8L188.3,46.8h0.2H188.3L188.3,46.8 M188.7,46.3L188.7,46.3c0.2,0,0.3,0,0.3-0.1h0.1
		c0.1,0,0.2,0,0.3,0.1l0,0l0,0h0.1l0.1-0.2l0,0h-0.1h-0.1c-0.1,0-0.3-0.1-0.3-0.1h-0.1l0,0c-0.1,0-0.2,0-0.2,0.1l0,0h-0.1l-0.1,0.1
		h-0.1l0,0l0,0l-0.1,0.2l0,0l0.2,0.1l0,0L188.7,46.3L188.7,46.3 M189,43.2L189,43.2c-0.3,0-0.4,0.1-0.6,0.1
		c-0.2,0.1-0.3,0.1-0.4,0.2l-0.3-0.2h-0.2l-0.3,0.2l-0.2,0.1v1.2l0.2,0.1l0.1,0.2l0.3,0.3l0.6,0.3c0.2,0.1,0.3,0.1,0.5,0.1
		c0.1,0,0.3,0,0.3-0.1c0.2,0,0.3-0.1,0.4-0.2l0.8-0.5h0.2l0.2-0.1h0.2l0.4,0.3l0.4,0.1l0.4-0.5l-0.3-0.3l-0.8-0.4l-0.4-0.3l-0.1-0.1
		l-0.4-0.3l0,0c-0.1-0.1-0.3-0.1-0.4-0.2C189.3,43.2,189.2,43.2,189,43.2L189,43.2 M188.4,43.5l0.3-0.1h0.2h0.1h0.1
		c0.2,0,0.3,0,0.5,0.1h-0.2h-0.2c-0.1,0-0.2,0-0.3,0.1c-0.2,0.1-0.3,0.1-0.5,0.2c-0.2,0.1-0.3,0.2-0.4,0.3l0,0l-0.1,0.1l-0.1,0.1
		v0.1v0.2l0,0v0.1l0.2,0.1l0.1,0.1h0.1h0.2l0,0c0.2,0,0.3-0.1,0.3-0.1c0.2-0.1,0.3-0.2,0.5-0.3c0.2-0.1,0.3-0.1,0.4-0.2l0.3-0.1h0.2
		c0.2,0,0.3,0,0.4,0.1l0.1,0.1h-0.1c-0.1,0-0.3,0-0.4,0.1c-0.2,0-0.3,0.1-0.6,0.2l-0.5,0.3l0,0l0.1,0.2l0,0l0.5-0.3
		c0.2-0.1,0.3-0.1,0.5-0.2c0.2,0,0.3-0.1,0.4-0.1l0,0c0.1,0,0.2,0,0.3,0s0.3,0.1,0.3,0.1l0.2,0.2l-0.3,0.3v-0.1l0,0l-0.2-0.1
		l-0.2-0.1l-0.1-0.1h-0.1c-0.1,0-0.2,0-0.3,0H190l-0.4,0.1l-0.3,0.5h-0.1l0,0l-0.1,0.1c-0.1,0.1-0.3,0.1-0.3,0.2
		c-0.1,0-0.2,0.1-0.3,0.1s-0.3,0-0.3-0.1l-0.5-0.3l-0.1-0.1l0.3,0.2c0.2,0.1,0.3,0.1,0.4,0.1c0.1,0,0.2,0,0.3,0
		c0.1,0,0.3-0.1,0.3-0.1s0.3-0.1,0.3-0.2l0,0l-0.1-0.2l0,0c-0.1,0.1-0.2,0.1-0.3,0.2c-0.1,0-0.2,0.1-0.3,0.1c-0.1,0-0.2,0-0.3,0
		c-0.1,0-0.3,0-0.3-0.1l-0.5-0.3l-0.1-0.1v-0.1l0,0v-0.1v-0.1l0,0v-0.1l0,0l0,0l0,0v-0.1c0,0,0-0.1,0.1-0.1c0,0,0.1-0.1,0.2-0.2
		l0.3-0.2l0,0l-0.3-0.3l0.1-0.1h0.1l0.4,0.3h0.1C188.2,43.7,188.3,43.6,188.4,43.5 M187.4,43.8L187.4,43.8c-0.2,0.2-0.2,0.2-0.3,0.3
		v-0.3l0,0L187.4,43.8 M188.1,44.4L188.1,44.4L188.1,44.4v-0.2l0,0l0,0c0.2-0.1,0.3-0.2,0.4-0.3c0.2-0.1,0.3-0.1,0.4-0.2
		c0.1,0,0.2,0,0.3-0.1c0.2,0,0.3,0,0.3,0s0.3,0,0.3,0c0.1,0,0.2,0.1,0.3,0.1h0.1c-0.2,0-0.3,0-0.6,0.1l0,0c-0.1,0-0.2,0-0.3,0
		C189,44,188.6,44.1,188.1,44.4 M188.3,44.5L188.3,44.5c0.1-0.1,0.3-0.2,0.3-0.2c0.2-0.1,0.3-0.1,0.4-0.1c-0.1,0.1-0.3,0.2-0.4,0.2
		C188.6,44.4,188.5,44.5,188.3,44.5L188.3,44.5 M184.9,71.1L184.9,71.1l-0.3,0.1l0,0v0.1h-0.1l0,0v0.1l-0.1-0.1l-0.1,0.1l0,0l0,0
		l0,0l-0.2,0.3l0,0l0,0v0.2l-0.2,0.3l-0.1,0.1l-0.1,0.2V73l0.1,0.1l0.2,0.2c0.1,0.1,0.1,0.1,0.2,0.2c0.3,0.2,0.7,0.3,1,0.3h0.1
		c0.2,0,0.3,0,0.4-0.1c0.2,0,0.3-0.1,0.4-0.2c0.3-0.2,0.6-0.4,0.6-0.8v-0.3h0.1l0,0l-0.1-0.3v-0.1l-0.1-0.1l0,0l-0.1,0.1l0,0v-0.6
		l0,0l0,0l-0.3-0.3l0,0v-0.1v-0.1l0,0l-0.2,0.1v0l0,0h-0.1l-0.1-0.1H186h-0.1h-0.1h-0.1h-0.1h-0.1l0,0v0.3v0.2h-0.1v-0.2v-0.2l0,0
		h-0.1v-0.1h-0.1h-0.1l0,0L184.9,71.1 M184.6,71.7L184.6,71.7L184.6,71.7L184.6,71.7L184.6,71.7L184.6,71.7L184.6,71.7L184.6,71.7
		 M185.5,71.7L185.5,71.7L185.5,71.7L185.5,71.7L185.5,71.7 M185.1,71.5L185.1,71.5l0.1,0.5h-0.1l0,0V71.5L185.1,71.5 M185.2,72
		L185.2,72h0.5l0,0v-0.5l0,0h0.1v0.4l0,0l0,0l0,0h-0.1l0,0h-0.1l0,0v0.3h-0.1V72v-0.1h-0.1l0,0L185.2,72 M186.2,71.7L186.2,71.7
		L186.2,71.7L186.2,71.7L186.2,71.7L186.2,71.7 M186.6,72.7L186.6,72.7L186.6,72.7l-0.1,0.2c0,0,0,0.1-0.1,0.1c0,0,0,0-0.1,0.1
		c-0.1,0.1-0.2,0.2-0.3,0.2l0.3-0.3L186.6,72.7 M186.7,72.7L186.7,72.7L186.7,72.7L186.7,72.7 M186.4,72.5L186.4,72.5l-0.2,0.3
		l-0.2,0.2v-0.2L186.4,72.5L186.4,72.5 M185.7,72.4l0.2,0.1v0.8h-0.9v-0.8l0.2-0.1v0.4l0,0h0.5l0,0L185.7,72.4 M185.9,73.5
		c0.2-0.1,0.3-0.1,0.4-0.2l-0.2,0.2c-0.2,0.1-0.3,0.1-0.4,0.1c-0.1,0-0.3,0-0.3,0h-0.1c-0.2,0-0.3,0-0.5-0.1c-0.1,0-0.2,0-0.3-0.1
		c-0.1,0-0.2-0.1-0.2-0.1c-0.1,0-0.1-0.1-0.2-0.2c0.3,0.2,0.7,0.3,1.2,0.3C185.6,73.6,185.7,73.6,185.9,73.5 M185.3,72.6L185.3,72.6
		L185.3,72.6L185.3,72.6L185.3,72.6 M184.7,72.7v0.2l-0.3-0.3v-0.3L184.7,72.7 M184.1,72.6l0.1-0.2v0.3l0.4,0.3l0.2,0.2
		c-0.1,0-0.2-0.1-0.3-0.1c-0.1,0-0.2-0.1-0.2-0.1l-0.1-0.1v-0.1h-0.1v-0.1l0,0l0,0v-0.1L184.1,72.6 M185.4,73.4
		c-0.2,0-0.3,0-0.3-0.1h0.7C185.6,73.3,185.5,73.4,185.4,73.4 M185.5,69.5l-0.3-0.2l-0.1,0.1l-0.1,0.1v0.1v0.1v0.2v0.1l0,0V70
		l2.4,1.4v0.1h0.1l0,0l0,0l0,0v0.1l0,0v0.1c0,0.1,0.1,0.2,0.1,0.2c0.1,0.1,0.1,0.1,0.2,0.1l0.1,0.1h0.1l0,0h0.1h0.1h0.3l0.2-0.1
		l0.1-0.1c0.1-0.1,0.1-0.1,0.1-0.2v-0.3c0-0.1,0-0.1-0.1-0.2v-0.1h-0.1l-0.1-0.1l-0.2-0.1l-0.2-0.1h-0.3h-0.2l-2.3-1.3l0,0l0,0l0,0
		L185.5,69.5 M185.2,69.7L185.2,69.7v-0.2l2.6,1.5l0.1,0.1L188,71l0,0h-0.1l0.3,0.1l0,0h0.1l0.2,0.1h0.1l0.1,0.1l0.1,0.1v0.1v0.2
		l-0.1,0.1v0.1l0,0h-0.1h-0.1h-0.1h-0.2h-0.1l-0.2-0.1c-0.1,0-0.1-0.1-0.2-0.2l-0.1-0.2l0,0v-0.1l0,0l0,0l0,0l0,0l0,0h-0.1
		L185.2,69.7 M184.2,53.9c-0.3,0-0.7,0.2-1,0.3c-0.5,0.3-0.8,0.8-1.1,1.3c-0.3,0.5-0.5,1-0.5,1.6c0,0.5,0.1,0.9,0.3,1.3l0.1,0.1
		l0.1,0.1l1.2,0.7l-0.1,0.3c-0.1,1.3,0.2,2.2,0.9,2.7l2.1,1.2c0.1,0.1,0.2,0.2,0.3,0.2c0.2,0.1,0.3,0.1,0.4,0.2c0.2,0,0.3,0,0.5,0
		l5.3,3l1.3,1c0.1,0.1,0.3,0.3,0.4,0.3l2,1.2c0.1,0.1,0.3,0.2,0.3,0.3c0.1,0.1,0.3,0.1,0.3,0.2c0.2,0,0.3,0.1,0.4,0.1
		c0.7,0,1.4-0.3,2.3-1l2.9,1.7l0,0l3.4-1.9v-0.7l-0.5-0.8l0.5-0.3V66l-3.6-2c0.2-1.6-0.1-2.7-0.8-3.1c-0.1-0.1-0.3-0.2-0.4-0.2
		l-2-1.2l-0.3-0.2c-0.1,0-0.2-0.1-0.3-0.1h-0.2h-0.3l-6.2-3.6c-0.1-0.2-0.2-0.3-0.3-0.4c-0.1-0.1-0.2-0.2-0.3-0.3
		c-0.1,0-0.1-0.1-0.2-0.1c-0.1,0-0.1-0.1-0.2-0.1l-2-1.2l-0.3-0.2c-0.2,0-0.3-0.1-0.5-0.1c-0.2,0-0.3,0-0.5,0.1
		c-0.2,0-0.3,0.1-0.6,0.2c-0.5,0.2-1,0.5-1.5,0.9l-1-0.6c-0.1-0.1-0.2-0.1-0.3-0.1C184.4,53.9,184.3,53.9,184.2,53.9 M184.2,54.1
		c0.2,0,0.3,0.1,0.5,0.2l0.9,0.5c-0.3,0.1-0.8,0.3-1.1,0.6c-0.3,0.3-0.6,0.6-0.8,1c-0.3,0.5-0.5,1.1-0.5,1.7c0,0.1,0,0.1,0,0.2
		c0,0.1,0,0.2,0,0.2v0.2l0.1,0.3v0.1l-1-0.6c-0.1,0-0.1-0.1-0.2-0.1c-0.3-0.3-0.3-0.6-0.3-1.1c0.1-0.5,0.3-1,0.5-1.5
		c0.3-0.4,0.6-0.8,1-1.2C183.6,54.2,184,54.1,184.2,54.1 M185,55.2c0.2-0.1,0.3-0.1,0.3-0.2c-0.4,0.4-0.8,0.9-1.1,1.5
		c-0.4,0.7-0.7,1.3-0.8,2.2l-0.1-0.3c0-0.1,0-0.3,0-0.3c0-0.6,0.2-1.1,0.5-1.6c0.3-0.3,0.5-0.7,0.8-0.9
		C184.7,55.4,184.9,55.3,185,55.2 M183.6,59.5v-0.3v-0.2V59c0.2-0.8,0.4-1.7,0.9-2.3c0.3-0.6,0.8-1.1,1.3-1.6l0.1-0.1
		c0.1,0,0.1-0.1,0.1-0.2c0.5-0.4,1-0.8,1.5-0.9c0.2-0.1,0.4-0.1,0.6-0.2c0.2,0,0.3,0,0.5,0c0.1,0,0.2,0,0.2,0c0.1,0,0.2,0,0.2,0.1
		l0.3,0.2l1.4,0.8c-0.4,0-0.9,0.2-1.5,0.5c-1.2,0.7-2,1.5-2.5,2.6c-0.7,1-1,2.2-1,3.5c0,0.7,0.2,1.2,0.3,1.5l-1.4-0.8l-0.1-0.1
		C183.7,61.5,183.4,60.7,183.6,59.5 M191.1,55.1c0.1,0.1,0.3,0.1,0.3,0.2c0.1,0.1,0.2,0.2,0.3,0.3l-0.2-0.1
		c-0.2-0.1-0.3-0.2-0.4-0.2c-0.2,0-0.3-0.1-0.5-0.1c-0.6,0-1.2,0.3-1.8,0.7c-0.8,0.6-1.5,1.3-1.9,2.2c-0.5,0.8-0.8,1.8-0.9,2.8
		c-0.1,1.3,0.3,2.1,1,2.6l0.2,0.1c-0.2,0-0.3-0.1-0.3-0.1c-0.1-0.1-0.2-0.1-0.3-0.2c-0.4-0.3-0.7-0.9-0.7-1.8c0-1.3,0.3-2.4,0.9-3.4
		c0.5-1,1.3-1.8,2.4-2.5c0.5-0.3,1-0.4,1.4-0.4C190.8,55,190.9,55,191.1,55.1 M198,59.4c-0.2,0-0.3,0.1-0.5,0.1
		c-1.2,0.5-2.2,1.4-3,2.8c-0.6,0.8-0.9,1.8-1,2.9c-0.1,0.7,0,1.2,0.2,1.6l-0.8-0.4l-5.9-3.4c-0.7-0.4-1-1.3-0.9-2.4
		c0.1-0.9,0.3-1.8,0.8-2.7c0.4-0.8,1-1.5,1.8-2.1c0.6-0.4,1.2-0.7,1.7-0.7c0.2,0,0.3,0,0.4,0.1c0.2,0.1,0.3,0.1,0.4,0.2L198,59.4
		 M198.6,59.6L198.6,59.6c0.2,0,0.3,0,0.3,0.1l0.2,0.1l1.7,0.9h-0.2h-0.3c-0.7,0.1-1.3,0.4-2,1c-0.8,0.6-1.3,1.3-1.7,2
		c-0.5,0.8-0.8,1.5-0.9,2.4s-0.1,1.7,0.2,2.3c0.1,0.1,0.1,0.3,0.2,0.3l-1.6-0.9c-0.1,0-0.1-0.1-0.2-0.2c-0.1,0-0.1-0.1-0.2-0.2
		c-0.4-0.5-0.6-1.3-0.5-2.2c0.1-1.1,0.4-2,0.9-2.8c0.8-1.3,1.8-2.3,2.8-2.8c0.2,0,0.3-0.1,0.3-0.1c0.2,0,0.3,0,0.3-0.1l0,0
		C198.4,59.6,198.5,59.6,198.6,59.6 M197,63.8c0.3-0.8,0.9-1.4,1.6-1.9c0.7-0.5,1.3-0.8,1.9-0.9c0.2,0,0.3,0,0.4,0l0,0
		c0.2,0,0.3,0,0.4,0c0.1,0,0.2,0.1,0.3,0.1c0.1,0,0.1,0.1,0.2,0.1c0.7,0.4,0.9,1.3,0.8,2.8l-1-0.6l-0.1-0.1l0,0l0,0l0,0l0,0h-0.1
		h-0.2h-0.3l0,0h-0.2l0,0h-0.1l0,0l-0.2,0.1l0,0h-0.1v0.1v0.1l-0.7,0.4h-0.1h-0.2h-0.1h-0.1l0,0l0,0l0,0l0,0l0,0h-0.1l0,0h-0.1v0.1
		L199,64l0,0h-0.1v0.1v0.1l-0.8,0.4l-0.1-0.1l0,0v2.6l2.1,1.2c-0.8,0.6-1.6,0.8-2.1,0.8c-0.2,0-0.3,0-0.3,0s-0.3-0.1-0.3-0.2
		c-0.1-0.1-0.3-0.2-0.3-0.3s-0.2-0.2-0.3-0.3c-0.1-0.1-0.2-0.3-0.2-0.3c-0.3-0.6-0.3-1.3-0.2-2.2C196.2,65.3,196.5,64.5,197,63.8
		 M199.1,64.2L199.1,64.2h0.2h0.1h0.3l0,0h0.1l0.1,0.1l0.1,0.1l0,0l0,0l-0.1,0.1l-0.2,0.1h-0.2h-0.1h-0.1h-0.1l0,0l0,0l0,0l-0.1-0.1
		l0,0L199.1,64.2L199.1,64.2L199.1,64.2L199.1,64.2l0.2,0.1L199.1,64.2L199.1,64.2 M198.7,64.7L198.7,64.7l0.2,0.1h0.1
		c0.1,0,0.2,0.1,0.3,0.1h0.3l0.3-0.1l0,0V65l0,0h0.2l0,0v-0.6v-0.1l0.1,0.1l0,0l0,0l0.1,0.1l0,0l0.2,0.1h0.2l0,0h0.1
		c0.1,0,0.2,0,0.2,0h0.1c0.1,0,0.2,0,0.2-0.1h0.1h0.1h0.1l0,0h0.1l0.1-0.1h0.1v-0.1l0,0h0.1l0,0l-0.1-0.6l4.4,2.5l-2.1,1.3l-0.9,0.5
		l-1.4-0.8l-3.5-2l0.6-0.3v0.3l0,0h0.2l0,0L198.7,64.7 M199.3,66.2v0.6l-1.4-0.8v-0.7L199.3,66.2 M197.9,66.4v-0.2l1.4,0.8v0.2
		L197.9,66.4 M199.3,67.5v0.4l-1.4-0.8v-0.4L199.3,67.5 M200.6,63.4L200.6,63.4L200.6,63.4h0.2h0.2l0,0l0,0h0.1l0,0h0.1l0.1,0.1l0,0
		l0,0v0.1v0.1l-0.1,0.1l0,0l0,0l0,0l0,0l0,0l0,0h-0.2h-0.1l0,0h-0.3l0,0l0,0l-0.2-0.1l-0.1-0.1v-0.1l0,0l0,0v-0.1l0.1-0.1
		L200.6,63.4L200.6,63.4L200.6,63.4 M203,68l0.6-0.3V68l-0.6,0.3V68 M204.3,67.8L204.3,67.8L204.3,67.8l0.7,0.5l-1.3,0.8l-0.5-0.8
		L204.3,67.8 M203.8,67.9v-0.3l1.4-0.8v0.3l-0.4,0.3L203.8,67.9 M206,66.3v0.3l-0.5,0.3l-0.1,0.1v-0.3L206,66.3 M204.9,67.5l0.4-0.3
		l0.2-0.1l0.4,0.8l-0.6,0.3L204.9,67.5 M204.8,67.5L205,68l-0.6-0.3L204.8,67.5 M201.3,63.9V64v0.1v0.1h-0.1v0.1l0,0l0,0h-0.1h-0.1
		l0,0c0,0-0.1,0-0.2,0l0,0c-0.1,0-0.1,0-0.2,0l0,0l-0.3-0.1l-0.1-0.1l0,0l0,0h-0.1l0,0l-0.1-0.1v-0.3h0.1v0.1h0.2l0,0l0,0h0.3h0.1
		h0.1h0.2h0.1L201.3,63.9L201.3,63.9L201.3,63.9L201.3,63.9L201.3,63.9 M200,64L200,64v0.2C200,64.2,200,64.1,200,64h-0.2l0,0l0,0
		l-0.2-0.1l0.3-0.3V64 M199.5,67.5v-1.3l1.4,0.8l-1.4,0.8V67.5 M201.1,67.2L201.1,67.2L201.1,67.2l0.3,0.1v0.3l0.5,0.8l-0.5,0.3V69
		l-1.7-1L201.1,67.2 M201.5,67.3l1.3,0.8v0.4l-0.5,0.3l-0.3-0.2l-0.5-0.9L201.5,67.3 M201.5,68.9l0.4-0.2l0.3,0.2l0.5,0.8v0.3
		l-1.3-0.8V68.9 M206,68v0.3l-0.4,0.3l-0.2-0.3L206,68 M205.4,68.7v-0.2l0.2,0.1L205.4,68.7 M205.2,68.6v0.3l-1.4,0.8v-0.3l0,0
		L205.2,68.6 M203.6,69.8l-0.6,0.3v-0.3l0.6-0.3V69.8 M203.6,69.2l-0.6,0.3l-0.5-0.8l0.6-0.3L203.6,69.2 M204.3,66.2L204.3,66.2
		l-0.2-0.1H204l0,0h-0.4h-0.1h-0.1c0,0,0,0-0.1,0h-0.1l-0.1,0.1l-0.1,0.1H203l0,0l0,0v0.1l0,0v0.2v0.1l0,0v0.1l0,0l0.1,0.1v0.1l0,0
		h0.1l0,0h0.2l0,0h0.3l0,0l0,0h0.1h0.1h0.1l0,0h0.1l0,0l0,0h0.1l0,0l0,0l0,0v-0.1h0.1v-0.2v-0.1l0,0l0,0L204.3,66.2L204.3,66.2
		 M203.8,66.3L203.8,66.3L203.8,66.3l0.2,0.1v0.1l0,0v0.1l0,0l0,0l0,0l0,0h-0.1l0,0h-0.1l0,0h-0.1h-0.1l0,0h-0.2l0,0h-0.2l0,0l0,0
		l0,0v-0.1h-0.1v-0.1l0,0v-0.1h0.1v-0.1h0.1h0.1h0.2L203.8,66.3 M199.2,65.2L199.2,65.2L199.2,65.2l-0.1,0.2l0,0h0.1h0.1h0.2l0,0
		h0.1h0.1c0,0,0,0,0.1,0l0,0l-0.1-0.1v-0.1l0,0h-0.3H199.2L199.2,65.2 M199.4,61.7L199.4,61.7L199.4,61.7L199.4,61.7L199.4,61.7
		L199.4,61.7h-0.2v0.1l0,0l0,0l0,0l0,0l-0.1,0.2l0,0l0,0V62l0,0l0,0l0,0l0,0v0.1v0.2v0.1v0.1l0,0v0.1h0.1l0.1,0.1h0.1l0,0
		c0.1,0,0.1,0,0.2,0c0,0,0.1,0,0.1-0.1l0,0l0.1-0.1h0.1l0,0l0,0l0,0l0,0v-0.1l0.1-0.1v-0.1h0.1v-0.1V62l0.1-0.2v-0.1l0,0v-0.1l0,0
		v-0.1l0,0v-0.1H200v-0.1h-0.6 M199.3,61.9L199.3,61.9L199.3,61.9L199.3,61.9L199.3,61.9L199.3,61.9L199.3,61.9L199.3,61.9h0.2V62
		v0.2v0.1l-0.1,0.1l0,0l0,0v0.1v0.1h-0.1h-0.1v0.1h-0.1l0,0h-0.1l0,0H199l0,0h-0.1v-0.1l0,0v-0.2l0,0v-0.1l0,0l0,0l0.1-0.2l0,0
		l0.1-0.1L199.3,61.9L199.3,61.9 M196,62.7C196,62.7,195.9,62.7,196,62.7l-0.2,0.1v0.1h-0.1l0,0h-0.1l0,0l-0.1,0.1l0,0V63v0.1
		c0,0.1,0,0.1-0.1,0.1v0.1v0.3l0.1,0.1v0.1l0,0l0,0l0.1,0.1l0.1,0.1l0,0h0.1h0.2l0,0h0.1h0.1l0.1-0.1l0.1-0.1l0,0h0.1v-0.1h0.1v-0.1
		l0.1-0.1v-0.1l0,0l0,0l0,0v-0.3c0-0.1,0-0.1-0.1-0.2v-0.1l0,0l0,0l-0.1-0.1l-0.1-0.1l0,0H196C196,62.7,196,62.7,196,62.7 M195.9,63
		L195.9,63L195.9,63L195.9,63L195.9,63l0.2-0.1v-0.1h0.2h0.1v0.1l0,0l0,0l0,0c0,0.1,0,0.1,0,0.1v0.1v0.1v0.2l-0.2,0.2l0,0l0,0l0,0
		l0,0H196l0,0l0,0h-0.1l0,0l-0.1-0.1v-0.1l0,0v-0.2l0,0L195.9,63L195.9,63L195.9,63L195.9,63L195.9,63L195.9,63L195.9,63 M161.2,36
		c-0.4-0.2-0.8-0.3-1.3-0.3c-0.8,0-1.5,0.3-2.4,0.9c-1.1,0.8-1.9,1.8-2.6,2.9c-0.8,1.5-1.3,2.9-1.3,4.3c0,0.2,0,0.3,0,0.5
		s0,0.3,0.1,0.5l0.1,0.3l0.1,0.3l0.1,0.2l0.1,0.2c0.1,0.3,0.3,0.5,0.4,0.7l0.3,0.2l0.3,0.2l0,0h0.1l0,0h0.1l1.2,0.7
		c0.1,0.1,0.3,0.2,0.3,0.3l0.1,0.1h0.2c0.1,0.1,0.3,0.1,0.3,0.1c0.2,0,0.3,0,0.4,0s0.3,0,0.4,0c0.2,0,0.3-0.1,0.5-0.1l8.6,4.9
		l0.2,0.3l1.8,1.9c0,0.1,0.1,0.1,0.1,0.2l0.2,0.2l3,1.8l0.1,0.1c0.1,0.1,0.2,0.1,0.3,0.1c0.2,0.1,0.3,0.1,0.4,0.1s0.3,0.1,0.5,0.1
		c0.1,0,0.3,0,0.3,0c0.2,0,0.3-0.1,0.3-0.1h0.1h0.1l1,0.6l0.2,0.1l0.3,0.1h0.1c0.6-0.2,1.3-0.5,1.9-1.1l0.5-0.6l-0.2-0.4v-0.1
		l-0.9-0.6c1.1-1.3,1.8-2.6,2.3-4c0.1-0.2,0.1-0.3,0.2-0.5c0-0.2,0.1-0.3,0.1-0.5c0.2-0.9,0.1-1.7-0.1-2.3c0-0.2-0.1-0.3-0.1-0.4
		c-0.1-0.1-0.1-0.3-0.2-0.3l-0.3-0.5l0,0c-0.1-0.2-0.3-0.3-0.4-0.3h-0.1l-2.3-1.3l-0.5-0.3c-0.1-0.1-0.2-0.1-0.3-0.2
		c-0.1,0-0.2-0.1-0.3-0.1l-3-0.8l-8.6-5c-0.2-0.6-0.4-1.1-0.8-1.4c-0.1-0.1-0.2-0.2-0.3-0.2l-0.1-0.1h-0.1L161.2,36 M159.9,35.9
		c0.4,0,0.8,0.1,1.2,0.3l0.8,0.4h-0.3h-0.2c-0.9,0.1-1.8,0.5-2.6,1.1c-0.8,0.7-1.6,1.5-2.3,2.7c-0.6,1-0.9,2-1.2,3
		c-0.3,1.3-0.1,2.3,0.3,3.2c0.1,0.1,0.1,0.3,0.2,0.3l-0.7-0.3l0,0v-0.1h-0.1l-0.2-0.1l-0.3-0.2c-0.1-0.1-0.2-0.2-0.2-0.3
		c-0.1-0.1-0.1-0.2-0.2-0.3c-0.1-0.1-0.1-0.3-0.2-0.3c-0.1-0.2-0.1-0.3-0.1-0.5s-0.1-0.3-0.1-0.5c0-0.2,0-0.3,0-0.4
		c0-1.3,0.4-2.8,1.3-4.2c0.7-1.2,1.5-2.1,2.5-2.8C158.5,36.2,159.3,35.9,159.9,35.9 M162.5,37L162.5,37c0.1,0,0.1,0.1,0.2,0.1
		c0.1,0.1,0.2,0.1,0.3,0.2c0.3,0.3,0.6,0.7,0.8,1.2l-0.3-0.2l-0.3-0.2l-0.2-0.3v-0.3l0,0h-0.2l0,0l0.1,0.3l0.2,0.3l0.3,0.3l8.9,5.1
		c-0.7,0.1-1.4,0.3-2.2,0.9c-0.8,0.7-1.6,1.5-2.1,2.4c-0.6,1-0.9,1.9-1.1,3c-0.1,0.9,0,1.8,0.3,2.4l-8.2-4.7l-0.8-0.5l-0.2-0.1h-0.2
		l-0.3,0.1l-0.2,0.1l0,0l0.1,0.2l0,0l0.2-0.1l0.3-0.1h0.1l0.2,0.1l0.4,0.3c-0.1,0-0.3,0.1-0.3,0.1c-0.1,0-0.2,0-0.3,0
		c-0.1,0-0.3,0-0.3,0s-0.3,0-0.3-0.1h-0.1h-0.1c-0.1-0.1-0.3-0.2-0.3-0.3c-0.3-0.2-0.4-0.4-0.6-0.8c-0.4-0.8-0.5-1.8-0.3-3
		c0.2-0.9,0.6-1.9,1.1-2.9c1.4-2.3,2.9-3.5,4.7-3.7h0.2c0.2,0,0.3,0,0.5,0.1C162.3,37,162.4,37,162.5,37 M179.3,46.8L179.3,46.8
		c-0.8,0-1.5,0.3-2.3,0.7c-0.7,0.4-1.3,1-1.8,1.6l-0.1,0.1H175h-0.1h-0.2l-0.8-0.5l0,0l-0.1,0.2l0,0l0.8,0.5l0.3,0.1h0.1h0.1
		l0.1-0.1l0,0c0.5-0.7,1.1-1.2,1.8-1.6c0.7-0.4,1.4-0.7,2.1-0.7l-0.3,0.5h-0.3l-0.3,0.1l-0.3,0.1c-0.1,0-0.2,0.1-0.3,0.1
		c-0.1,0.1-0.2,0.1-0.3,0.2c-0.1,0.1-0.2,0.1-0.3,0.2l-0.2,0.1l-0.2,0.1c-0.1,0.1-0.3,0.2-0.3,0.3c-0.2,0.1-0.3,0.3-0.4,0.4
		c-0.1,0.1-0.2,0.2-0.3,0.3c-0.1,0.1-0.2,0.2-0.3,0.3l-0.1,0.1l-0.2,0.1h-0.1l0,0v0.2l0,0h0.2h0.1c-0.3,0.8-0.7,1.5-1.2,2.2
		c-0.6,0.8-1.3,1.3-2,1.7c0-1.1,0.4-2.2,1.1-3.5l0.5-0.8h0.1h0.1h0.1l0,0v-0.2l0,0h-0.1l-0.1,0.1l-0.1,0.1l0,0l-0.5,0.8
		c-0.8,1.4-1.2,2.7-1.2,3.8v0.3v0.3v0.1c0,0.1,0,0.2,0.1,0.3c0,0.1,0,0.2,0.1,0.2c0,0.1,0.1,0.2,0.1,0.3c0,0.1,0.1,0.2,0.1,0.3v0.1
		v0.1c0.1,0.1,0.1,0.3,0.2,0.3c0.1,0.1,0.2,0.2,0.3,0.3c0.2,0.1,0.3,0.2,0.4,0.3c0.2,0.1,0.3,0.1,0.4,0.2c0.2,0,0.3,0.1,0.4,0.1h0.1
		c0.1,0,0.2,0,0.3,0h0.1l0,0h0.1l0,0v-0.2l0,0h-0.2h-0.1c-0.1,0-0.1,0-0.2,0s-0.3,0-0.4-0.1c-0.2,0-0.3-0.1-0.3-0.1
		c-0.1-0.1-0.3-0.2-0.3-0.3c-0.2-0.1-0.3-0.3-0.3-0.4c1.5-0.2,2.8-1.2,3.9-2.9c0.6-0.9,1-1.8,1.3-2.7c0.2-0.8,0.2-1.5,0.1-2.2
		c0.2-0.1,0.3-0.1,0.5-0.2c0.2,0,0.3-0.1,0.5-0.1l0,0v-0.2l0.2,0.1l0,0l0.3-0.6l0.2,0.3c0.1,0.1,0.1,0.2,0.2,0.3
		c0.1,0.1,0.1,0.3,0.2,0.3c-0.2,0.5-0.2,1.3-0.3,2.2c0,0.2-0.1,0.3-0.1,0.5s-0.1,0.3-0.2,0.5c-0.4,1.4-1.2,2.8-2.3,3.9h-0.1
		l-0.1-0.1V55v-0.1c0.6-0.6,1-1.3,1.4-2c0.7-1.3,0.9-2.4,0.9-3.5v-0.1v-0.1c0-0.3-0.1-0.8-0.2-1.1l-0.3-0.6l0,0l-0.2,0.1l0,0
		l0.3,0.6c0.1,0.2,0.1,0.3,0.2,0.5c0,0.2,0,0.3,0,0.5v0.2c0,1.1-0.3,2.2-0.9,3.4c-0.3,0.8-0.8,1.4-1.4,1.9l-0.1,0.2v0.2l0.1,0.1
		l1.2,0.7v0.1l0.1,0.2c-0.6,0.5-1.2,0.9-1.8,1.1l0,0l0.1,0.2l0,0c0.8-0.3,1.3-0.6,2-1.2l0,0l-0.4,0.4c-0.7,0.6-1.3,0.9-1.8,1.1l0,0
		h-0.3l-0.1-0.1l-1-0.6l-0.2-0.1h-0.1c-0.1,0-0.3,0.1-0.3,0.1s-0.3,0-0.3,0c-0.2,0-0.3,0-0.4,0s-0.3-0.1-0.4-0.1
		c-0.1,0-0.2-0.1-0.3-0.1h-0.1c-0.3-0.2-0.6-0.5-0.8-0.9c-0.4-0.8-0.5-1.8-0.3-3c0.2-1,0.6-2,1.2-2.9c0.1-0.1,0.2-0.3,0.3-0.4
		c0.1-0.2,0.3-0.3,0.4-0.6v-0.1h0.1h0.1l0,0v-0.2l0,0h-0.2l-0.2,0.1l-0.1,0.1c-0.2,0.2-0.3,0.4-0.4,0.6c-0.1,0.2-0.2,0.3-0.3,0.4
		c-0.6,1-1,2-1.2,3c-0.3,1.3-0.1,2.3,0.3,3.2c0.1,0.2,0.1,0.3,0.2,0.3l-2.3-1.3l-0.2-0.1c0,0-0.1-0.1-0.1-0.2
		c-0.1-0.1-0.2-0.2-0.2-0.3c-0.1-0.1-0.1-0.3-0.2-0.3c0-0.1-0.1-0.3-0.1-0.3c0-0.1-0.1-0.3-0.1-0.3c0-0.1-0.1-0.3-0.1-0.4
		s0-0.3,0-0.4c0-1.1,0.3-2.2,0.8-3.4c0.5-1.1,1.2-2,1.9-2.8c0.6-0.7,1.3-1.2,2.1-1.5c0.5-0.2,0.9-0.3,1.3-0.3c0.2,0,0.3,0,0.4,0h0.1
		c0.2,0.1,0.3,0.1,0.5,0.3l2.2,1.3v0.1L179.3,46.8 M172.2,43.8h0.2l2.1,0.5c-0.2,0-0.3,0.1-0.5,0.1c-0.2,0.1-0.3,0.1-0.5,0.2
		c-0.8,0.3-1.6,0.8-2.2,1.5c-0.8,0.8-1.5,1.8-2,2.9c-0.5,1.2-0.8,2.3-0.8,3.4c0,0.6,0.2,1.1,0.3,1.6l-1.3-1.3
		c-0.6-0.7-0.8-1.6-0.6-2.8c0.2-1,0.5-1.9,1-2.9c0.5-0.9,1.2-1.7,2-2.3C170.8,44.2,171.6,43.8,172.2,43.8 M177.4,48.2
		c0.2-0.1,0.3-0.2,0.4-0.2c0.1,0.7,0.1,1.3-0.1,2c-0.2,0.8-0.6,1.8-1.2,2.7c-1.1,1.8-2.4,2.7-3.9,2.8l0,0c-0.1-0.2-0.1-0.3-0.2-0.5
		l0,0c1.3,0,2.5-0.8,3.7-2.4c0.7-1,1.1-1.9,1.3-2.8c0-0.2,0-0.3,0-0.4s0-0.3,0-0.4c0-0.2,0-0.3,0-0.4
		C177.4,48.4,177.4,48.4,177.4,48.2 M177,48.4l0.2-0.1v0.3v0.3v0.4l-0.1,0.3c-0.2,0.9-0.6,1.8-1.2,2.8c-1.1,1.5-2.2,2.3-3.4,2.3
		h-0.1c1.3-0.2,2.5-1.1,3.6-2.8c0.5-0.8,0.8-1.7,0.9-2.5v-0.1v-0.1c0-0.1,0-0.3,0.1-0.4C177,48.7,177,48.5,177,48.4L177,48.4
		 M176.9,48.5c0,0.2,0,0.3,0,0.4c0,0.2,0,0.3-0.1,0.4l0,0v0.1c-0.2,0.8-0.4,1.6-0.9,2.4c-1,1.7-2.2,2.5-3.5,2.7l0,0
		c1.1-0.3,2.2-1,3-2.3c0.8-1,1.2-2,1.3-3l0,0h-0.2l0,0c-0.2,1-0.6,1.9-1.3,2.9c-0.8,1.3-1.8,1.9-2.9,2.2v-0.1c1-0.3,1.8-1,2.7-2.1
		c0.8-1,1.2-2.1,1.3-3.2c0.1-0.1,0.2-0.2,0.3-0.2l0,0h0.2v-0.2L176.9,48.5 M175.8,49.6c0.1-0.1,0.2-0.3,0.3-0.3
		c-0.2,0.9-0.6,1.8-1.3,2.8c-0.8,1-1.6,1.7-2.5,2v-0.2c0.8-0.3,1.5-0.9,2.2-1.8C175,51.4,175.5,50.5,175.8,49.6 M176.4,57.4
		L176.4,57.4v-0.2l0,0h-0.3l-1.1-0.7l-0.2-0.1l0,0l-0.1,0.2l0,0l0.1,0.1l1.2,0.7H176.4 M177.2,56.1L177.2,56.1L177.2,56.1L177,56
		l-0.2-0.1h-0.1c-0.1,0-0.2,0-0.3,0h-0.1l0,0h-0.2l0,0l0,0l0,0h-0.1l0,0l0,0V56h-0.1l0,0v0.2v0.1l0,0v0.1l0,0l0.1,0.1l0,0l0,0l0,0
		h0.1l0,0l0,0h0.1h0.3l0,0h0.1h0.1l0,0h0.1h0.1h0.1l0.1-0.1l0.1-0.1l0,0L177.2,56.1L177.2,56.1 M176.9,56.2L176.9,56.2L176.9,56.2
		L176.9,56.2L176.9,56.2v0.2l0,0h-0.1l0,0h-0.3h-0.2l0,0h-0.1l0,0l0,0v-0.1v-0.1v-0.1l0.1-0.1h0.1l0,0h0.2l0,0l0,0h0.1l0,0h0.1l0,0
		l0,0h0.1L176.9,56.2L176.9,56.2 M175,49.9L175,49.9l0.1-0.2l0,0l-0.9-0.5l0,0v0.2l0,0L175,49.9 M175.9,46.8L175.9,46.8L175.9,46.8
		v0.2l0,0V47l0,0h0.1l0,0h0.1v0.1h0.3h0.1h0.1h0.1l0.2-0.1l0,0l0,0l0,0l0,0v-0.1l0,0v-0.2v-0.1v-0.1l-0.3-0.2l0,0h-0.1h-0.3H176
		h-0.1l-0.1,0.1h-0.1l-0.1,0.1h-0.1l0,0l0,0l0,0v0.1l0,0v0.1 M176.3,46.7L176.3,46.7l0.3-0.1h0.1l0,0l0,0h0.2h0.1v0.1l0,0h0.1l0,0
		v0.1v0.1l0,0l0,0h-0.1l0,0h-0.1l0,0l0,0h-0.2c-0.1,0-0.2,0-0.3,0.1l0,0v-0.1h-0.1V46.7L176.3,46.7L176.3,46.7L176.3,46.7
		L176.3,46.7L176.3,46.7 M160.2,38.4c0.2-0.1,0.3-0.2,0.4-0.3c0.2-0.1,0.3-0.1,0.6-0.2c0.2,0,0.3-0.1,0.3-0.1c0.1,0,0.3,0,0.3,0
		c0.2,0,0.3,0,0.3,0l0,0l0.1-0.2l0,0c-0.1,0-0.3-0.1-0.4-0.1c-0.1,0-0.3,0-0.3,0s-0.3,0-0.4,0.1l-0.3,0.1c-0.1,0-0.2,0.1-0.3,0.1
		c-0.1,0.1-0.2,0.1-0.3,0.1c-0.1,0.1-0.2,0.1-0.2,0.2c-0.5,0.3-1,0.7-1.5,1.2c-0.4,0.5-0.8,1-1.2,1.6c-0.6,0.9-0.9,1.9-1.1,2.9
		c-0.2,1.3,0.1,2.3,0.7,2.9l0.2-0.1l0,0c-0.6-0.7-0.8-1.6-0.6-2.8c0.2-1,0.5-1.9,1-2.8c0.1-0.2,0.2-0.3,0.3-0.4s0.2-0.3,0.3-0.4
		s0.2-0.3,0.3-0.3c0.1-0.1,0.2-0.3,0.3-0.3C159.3,39,159.7,38.6,160.2,38.4 M223.3,68.1c-1.1,1-2.1,2.2-3,3.4s-1.8,2.6-2.8,4
		c-0.8,1.4-1.5,2.8-2.1,4.2c-0.6,1.4-1.1,2.8-1.4,4.3c-0.4,1.7-0.7,3.3-0.8,4.8c-0.1,1.5,0,3,0.3,4.4l0.2,0.7l0.2,0.7l0.2,0.6
		l0.2,0.6l0.2,0.4l0.2,0.4l0.2,0.3l0.2,0.3c0.7,1.2,1.7,2.2,2.8,2.8l0.2,0.1c0.5,0.3,1,0.6,1.6,0.8c0.8,0.3,1.7,0.4,2.6,0.4h0.2
		c1,0,2-0.2,3-0.5l2.3,1.3l0.7,0.3c0.8,0.3,1.5,0.4,2.4,0.5h0.3c0.8,0,1.7-0.3,2.7-0.5c1.2-0.3,2.3-0.9,3.5-1.6
		c1.2-0.7,2.3-1.6,3.4-2.6c0.8-0.8,1.5-1.5,2.2-2.4c1-1.2,1.9-2.5,2.8-4c0.3-0.5,0.5-0.9,0.8-1.4c0.3-0.5,0.5-0.9,0.7-1.4
		c0.3-0.5,0.4-0.9,0.6-1.4c0.2-0.5,0.3-0.9,0.5-1.4l0.2-0.4l0.1-0.4l0.1-0.4l0.1-0.4c0.3-1.4,0.6-2.8,0.7-4c0.1-1.3,0-2.5-0.2-3.8
		c-0.3-1.2-0.6-2.1-0.9-2.8l-0.2-0.3l-0.2-0.3c-0.5-0.8-1.2-1.5-1.9-2l-0.1-0.1h-0.1l-2.3-1.4c-0.5-2.2-1.5-3.9-2.8-5
		c-0.4-0.4-0.9-0.8-1.5-1l-0.2-0.1c-1.1-0.7-2.3-1-3.5-1.1h-0.3c-1.1,0-2.3,0.2-3.7,0.6c-1.4,0.4-2.8,1.1-4.1,1.9
		C225.8,65.9,224.5,67,223.3,68.1 M225.1,67.5c-1.3,1.1-2.5,2.4-3.7,3.8c-1.2,1.4-2.2,3-3.2,4.7c-1,1.7-1.8,3.4-2.4,5.1
		c-0.7,1.7-1.2,3.4-1.5,5.1c-0.3,1.8-0.5,3.4-0.4,5c0.1,1.6,0.3,3,0.8,4.4l0.1,0.3l0.2,0.3l0.2,0.3l0.2,0.3c0.3,0.8,0.8,1.3,1.3,1.9
		c-0.6-0.5-1.1-1.1-1.5-1.8l-0.2-0.3l-0.2-0.3l-0.2-0.4l-0.2-0.4l-0.2-0.6l-0.2-0.6l-0.2-0.6l-0.2-0.7c-0.3-1.3-0.3-2.8-0.3-4.3
		c0.1-1.5,0.3-3.1,0.8-4.7c0.3-1.4,0.8-2.8,1.4-4.2c0.6-1.4,1.3-2.8,2.1-4.2s1.8-2.8,2.7-4c0.9-1.3,2-2.3,3-3.4
		c1.3-1.2,2.5-2.2,3.9-3c1.3-0.8,2.7-1.4,4-1.9c1.4-0.4,2.6-0.6,3.6-0.6h0.3c0.8,0,1.4,0.2,2.1,0.4l-0.4-0.1l-0.4-0.1h-0.3h-0.3
		h-0.1c-0.2,0-0.4,0-0.7,0c-1.7,0.2-3.4,0.6-4.9,1.3C228.3,65.1,226.6,66.2,225.1,67.5 M221.6,71.5c1.2-1.4,2.3-2.7,3.7-3.8
		c1.6-1.3,3.1-2.4,4.8-3.2c1.6-0.8,3.3-1.2,4.9-1.3h0.3h0.3h0.1h0.3h0.3c0.8,0.1,1.6,0.3,2.3,0.6l0.2,0.1c0.5,0.3,1,0.6,1.4,0.9
		c1.3,1.1,2.2,2.7,2.7,4.7l-1.7-1v-0.1h0.1v-0.1l0.1-0.2l0.1-0.3l0.1-0.1v-0.2c0,0,0-0.1,0-0.2l0,0l0,0v-0.1l-0.1-0.1v-0.1l0,0
		l-0.2-0.2l0,0l0,0h-0.1l0,0L241,67l-0.2,0.1h-0.1v0.1l-0.1,0.1c0,0-0.1,0.1-0.2,0.2c-0.1,0.1-0.1,0.2-0.2,0.3l-0.1,0.2V68l-1.4-0.8
		l-0.3-0.2l-0.2-0.3v-0.3v-0.1v-0.2V66l0,0l-0.2-0.1l0,0V66v0.2v0.2l0.1,0.3l0.2,0.3l0.3,0.3l4.5,2.6l2.4,1.4c0,0,0.1,0,0.1,0.1
		c0.8,0.5,1.3,1.2,1.8,1.9l0.2,0.3l0.2,0.3c0.3,0.8,0.7,1.7,0.9,2.8c0.3,1.2,0.3,2.4,0.3,3.7c-0.1,1.3-0.3,2.6-0.7,4l-0.1,0.4
		l-0.1,0.4l-0.1,0.4l-0.1,0.4c-0.2,0.4-0.3,0.9-0.5,1.3c-0.2,0.5-0.3,0.9-0.6,1.4c-0.3,0.5-0.4,0.9-0.7,1.4
		c-0.3,0.5-0.5,0.9-0.8,1.4c-0.8,1.4-1.8,2.8-2.7,3.9c-0.7,0.8-1.4,1.7-2.2,2.4c-1.1,1-2.2,1.9-3.3,2.6s-2.3,1.3-3.4,1.6
		c-1.1,0.3-1.9,0.5-2.7,0.5h-0.3c-0.8,0-1.6-0.2-2.3-0.4l-0.7-0.3l-2.3-1.3l-4.6-2.6l-0.3-0.2h-0.3h-0.3l-0.3,0.2l-0.3,0.3l0,0
		l0.2,0.2l0,0l0.2-0.2l0.3-0.1h0.3h0.2l0.3,0.2l4.4,2.5c-1,0.3-2,0.4-2.9,0.4s-1.8-0.2-2.5-0.4c-0.3-0.1-0.5-0.2-0.8-0.3
		c-0.3-0.1-0.5-0.3-0.8-0.4l-0.2-0.1c-1-0.7-1.8-1.7-2.4-2.9l-0.2-0.3l-0.2-0.3l-0.2-0.3l-0.1-0.3c-0.5-1.3-0.8-2.8-0.8-4.4
		s0.1-3.2,0.4-4.9c0.3-1.7,0.8-3.4,1.4-5c0.7-1.7,1.5-3.4,2.4-5.1C219.4,74.5,220.4,72.9,221.6,71.5 M240.8,67.5L240.8,67.5
		L240.8,67.5v-0.2l0,0l0,0h0.3h0.1h0.1l0.1,0.1l0,0v0.1l0.1,0.2v0.1v0.1v0.1l-0.1,0.3l-0.1,0.3l-0.1,0.1l0,0l-0.1,0.1l-0.6-0.3
		c0.1-0.1,0.2-0.3,0.2-0.4L240.8,67.5L240.8,67.5 M240.3,68l0.1-0.2c0.1-0.1,0.1-0.2,0.2-0.3v0.1C240.5,67.8,240.4,67.9,240.3,68
		L240.3,68L240.3,68 M216.1,96c-0.1,0.2-0.1,0.3-0.2,0.3c0,0.1-0.1,0.3-0.1,0.3v0.2c0,0.1,0,0.1,0,0.1V97l0.1,0.2l0.1,0.1
		c0,0,0.1,0,0.1,0.1h0.1c0.1,0,0.1,0,0.2,0s0.1,0,0.2,0h0.1h0.1l0,0l0.2-0.1v-0.1c0.2-0.1,0.3-0.3,0.4-0.5c0.1-0.1,0.1-0.3,0.1-0.3
		c0-0.1,0.1-0.2,0.1-0.3c0-0.1,0-0.2,0-0.3c0-0.1,0-0.2-0.1-0.2l0,0l0,0l0,0l-0.1-0.1l-0.1-0.1c-0.1,0-0.1,0-0.2,0h-0.1l0,0h-0.2
		l0,0c-0.1,0-0.1,0.1-0.2,0.1l-0.1,0.1C216.3,95.7,216.2,95.9,216.1,96 M216.2,96.5c0-0.1,0.1-0.3,0.2-0.3c0.1-0.1,0.2-0.2,0.2-0.3
		l-0.2,0.3L216.2,96.5L216.2,96.5h0.2l0,0l0.2-0.2l0.2-0.3l0.1-0.3c0.1-0.1,0.2-0.1,0.3-0.1l0,0h0.1l0.1,0.1
		c0.1,0.1,0.1,0.3,0.1,0.3c0,0.1,0,0.2,0,0.3s-0.1,0.2-0.1,0.3c-0.1,0.2-0.2,0.3-0.3,0.4l0,0l0,0l0,0l0,0l-0.1,0.1l0,0h-0.1h-0.1
		l0,0l0,0h-0.1h-0.1l0,0h-0.1V97v-0.1l0,0l0,0v-0.1v-0.2C216.1,96.6,216.1,96.5,216.2,96.5 M217.3,81L217.3,81L217.3,81h-0.2H217
		l0,0h-0.1h-0.1c-0.1,0-0.3,0.1-0.3,0.2l0,0l-0.1,0.1c-0.1,0.1-0.1,0.2-0.2,0.2c-0.1,0.1-0.1,0.2-0.2,0.2c-0.1,0.1-0.1,0.3-0.1,0.3
		c0,0.1-0.1,0.2-0.1,0.3l0,0l0,0v0.3v0.1v0.1l0,0l0.1,0.1h0.1l0.1,0.1h0.1c0.1,0,0.1,0,0.2,0h0.2l0.1-0.1h0.1l0,0h0.1h0.1v-0.1h0.1
		l0,0h0.1v-0.1l0.1-0.1v-0.1c0.1-0.1,0.3-0.3,0.3-0.4c0.2-0.4,0.2-0.7,0.1-0.9c0,0,0-0.1-0.1-0.1C217.3,81.1,217.3,81,217.3,81
		L217.3,81 M216.8,81.2h0.2h0.1l0.1,0.1v0.1v0.1c0.1,0.2,0.1,0.4-0.1,0.8c-0.1,0.2-0.2,0.3-0.3,0.3l0,0h-0.1l0,0l0,0v0.1h-0.1
		l-0.1,0.1h-0.1l0,0l-0.1,0.1h-0.1h-0.1l0,0l0,0l-0.1-0.1l0,0v-0.1l0,0v-0.2c0.1,0,0.1-0.1,0.2-0.1l0.2-0.2c0.1-0.1,0.1-0.1,0.1-0.2
		l0,0l0,0V82l0.1-0.1l0.1-0.2v-0.1v-0.1l0.1-0.1C216.8,81.2,216.8,81.2,216.8,81.2 M216.3,81.6L216.3,81.6L216.3,81.6L216.3,81.6
		v0.2c0,0.1-0.1,0.2-0.2,0.3c0-0.1,0.1-0.2,0.1-0.3C216.3,81.7,216.3,81.6,216.3,81.6 M240.9,71.3L240.9,71.3
		c-1.3,0.2-2.5,0.6-3.8,1.3c-1.3,0.7-2.4,1.5-3.7,2.6c-1,0.9-1.9,1.9-2.8,3c-0.8,1.1-1.7,2.3-2.4,3.6c-0.8,1.4-1.4,2.8-2,4.2
		c-0.5,1.4-0.9,2.8-1.2,4.1c-0.1,0.5-0.2,1-0.3,1.5c-0.1,0.5-0.1,1-0.1,1.4c0,0.5,0,0.9,0,1.3s0.1,0.9,0.2,1.3
		c0.2,1.1,0.5,2.2,1,3.1l0.2-0.1c-0.4-0.9-0.8-2-0.9-3.1c-0.1-0.4-0.1-0.8-0.2-1.3c0-0.4,0-0.9,0-1.3s0.1-0.9,0.1-1.4
		c0.1-0.5,0.2-1,0.3-1.5c0.3-1.3,0.7-2.7,1.2-4.1c0.5-1.3,1.2-2.8,2-4.1c0.8-1.3,1.5-2.4,2.4-3.6c0.8-1.1,1.8-2.1,2.8-3
		c1.2-1.1,2.3-1.9,3.6-2.6C238.5,71.9,239.7,71.6,240.9,71.3L240.9,71.3L240.9,71.3 M231.9,66.4c-0.9,0.3-1.8,0.7-2.7,1.1
		c-0.9,0.5-1.8,1.1-2.7,1.8c-1.3,1-2.5,2.3-3.6,3.5c-1.1,1.3-2.1,2.8-2.9,4.3c-0.9,1.6-1.6,3.1-2.2,4.7c-0.6,1.6-1,3.2-1.3,4.7
		c-0.3,1.8-0.3,3.5-0.1,5c0.3,1.5,0.7,2.9,1.4,4.1c0.1,0.2,0.2,0.3,0.3,0.5l0,0l0.2-0.1l0,0c-0.1-0.2-0.2-0.3-0.3-0.5
		c-0.8-1.2-1.2-2.5-1.4-4c-0.3-1.5-0.2-3.2,0.1-4.9c0.3-1.6,0.7-3.1,1.3-4.7c0.6-1.6,1.3-3.1,2.2-4.7c0.8-1.5,1.8-2.9,2.9-4.3
		c1.1-1.3,2.3-2.4,3.6-3.5C228.5,67.9,230.2,67,231.9,66.4c1-0.2,1.9-0.3,2.8-0.3c0.2,0,0.4,0,0.6,0c0.2,0,0.4,0,0.6,0.1l0,0V66l0,0
		c-0.2,0-0.4,0-0.6-0.1c-0.2,0-0.4,0-0.6,0C233.9,66,232.9,66.1,231.9,66.4 M231.3,64.7L231.3,64.7c-0.1-0.1-0.2-0.1-0.3-0.1h-0.3
		h-0.1l-0.2,0.1l-0.2,0.1l-0.3,0.4c-0.1,0.1-0.1,0.2-0.1,0.3c0,0.1-0.1,0.2-0.1,0.3v0.1V66l0,0V66v0.2v0.1l0.1,0.1l0.1,0.1l0,0h0.1
		h0.1l0,0l0,0l0,0l0.3-0.1l0,0l0.2-0.1l0.1-0.1l0.1-0.1c0.1-0.1,0.2-0.2,0.3-0.3l0.1-0.2c0-0.1,0.1-0.2,0.1-0.3
		c0-0.1,0.1-0.2,0.1-0.3l0,0l0,0c0-0.1,0-0.1,0-0.2L231.3,64.7L231.3,64.7 M230.9,64.9L230.9,64.9L230.9,64.9L230.9,64.9L230.9,64.9
		L230.9,64.9L230.9,64.9L230.9,64.9L230.9,64.9L230.9,64.9c0.1,0.2,0.1,0.3,0.1,0.3l-0.1,0.3l-0.1,0.2l-0.1,0.2
		c-0.1,0.2-0.2,0.3-0.3,0.3l-0.2,0.2l-0.2,0.1H230c0,0-0.1,0-0.2,0h-0.1l-0.1-0.1v-0.1V66V66l0.1,0.1l0,0l0.1-0.1l0.2-0.2l0.1-0.1
		v-0.1c0.1-0.1,0.1-0.3,0.2-0.3c0-0.1,0.1-0.2,0.1-0.3l0.1-0.1L230.9,64.9 M230.1,65.7L230.1,65.7l0.2-0.3l0.2-0.3
		c0,0.1-0.1,0.2-0.1,0.3l0,0l-0.1,0.1L230.1,65.7 M213.8,67.4c-0.2-0.1-0.3-0.2-0.4-0.2l-1.2-0.7c-0.2-0.1-0.3-0.2-0.5-0.2
		s-0.3-0.1-0.6-0.1c-0.6,0-1.3,0.3-1.8,0.7c-0.9,0.6-1.8,1.5-2.4,2.8c-0.7,1.2-1.1,2.3-1.2,3.5c-0.1,1.3,0.3,2.2,1.2,2.8l1,0.6
		l0.6,0.3c0.2,0.1,0.3,0.1,0.5,0.2c0.2,0,0.3,0.1,0.6,0.1h0.3l0.1,0.1h0.1l0,0h0.1l0.3,0.2l0.3,0.2c0.2,0.1,0.3,0.1,0.6,0.1
		c0.2,0,0.3,0,0.5-0.1c0.2,0,0.4-0.1,0.6-0.2h0.1v-0.9l-0.8-0.4l0.2,0.1l1.4,0.8h0.1c0.7-0.4,1.2-1,1.7-1.7l0.1-0.1l0,0l-1.5-0.9
		l0.2-0.4l0.1-0.1c0.1-0.1,0.1-0.2,0.2-0.3c0.1-0.1,0.2-0.1,0.2-0.1h0.1l0.8,0.5l0.6,0.3l0,0v-0.1c0.4-0.8,0.6-1.6,0.7-2.3v-0.1
		l-1.3-0.8c-0.1-0.1-0.1-0.1-0.2-0.2l0.8,0.4l0.8-0.4v-0.1c-0.1-0.7-0.3-1.2-0.8-1.6l-0.6-0.3l0,0H215l-0.2-0.1
		C214.5,68,214.2,67.5,213.8,67.4 M213.7,67.9c-0.1,0-0.2,0-0.3-0.1c-0.1,0-0.2,0-0.3,0c-0.2,0-0.3,0-0.5,0.1
		c-0.2,0-0.3,0.1-0.5,0.2c0-0.1-0.1-0.2-0.1-0.3c-0.1-0.1-0.1-0.1-0.2-0.2l-0.1-0.1c0.4-0.2,0.8-0.3,1.2-0.3c0.1,0,0.2,0,0.3,0
		c0.1,0,0.2,0,0.3,0.1c0.1,0,0.3,0.1,0.3,0.2c0.3,0.2,0.5,0.4,0.7,0.8L213.7,67.9 M215.3,69.1l-0.3,0.7l-0.5-0.3l0.3-0.6L215.3,69.1
		 M215.2,69.8l0.3-0.7c0.3,0.3,0.4,0.8,0.5,1.3l-0.5,0.3l-0.2-0.5L215.2,69.8 M214.3,68.7c0.1,0,0.3,0,0.3,0l-0.3,0.7h-0.3h-0.3
		l-0.5,0.1V69c0.2-0.1,0.3-0.1,0.5-0.2C214.1,68.7,214.2,68.7,214.3,68.7 M213.8,68.6l-0.3,0.1l-0.3,0.1l-1-0.6
		c0.2-0.1,0.3-0.1,0.4-0.1s0.3,0,0.4,0c0.1,0,0.2,0,0.3,0c0.1,0,0.2,0,0.3,0.1l0.8,0.4C214.2,68.5,214,68.5,213.8,68.6 M213.8,69.6
		h0.3h0.3l0.7,0.3l0.3,0.4l0.1,0.3l-0.8-0.5l-0.3-0.2l0,0l-0.1,0.2l0,0l0.3,0.2c0,0.2,0.1,0.3,0.3,0.5l1.2,0.7l-0.4,0.3l-1.3-0.8
		c0,0-0.1,0-0.1-0.1l-0.1-0.1c0-0.1,0-0.1,0-0.2v-0.1v-0.3v-0.2l0,0h-0.2l0,0v0.2v0.2c0,0.1,0,0.3,0.1,0.3c0.1,0.2,0.2,0.3,0.3,0.3
		l1.3,0.7l-0.2,0.8l-0.3,0.7l-0.8-0.5l-0.5-0.3h-0.3h-0.1l-0.1,0.1c-0.1,0-0.1,0.1-0.2,0.1c-0.1,0.1-0.1,0.2-0.2,0.3l-0.1,0.1
		c-0.1,0.2-0.2,0.3-0.2,0.5v0.2h0.2l0,0v0.1c0-0.1,0-0.1,0-0.2s0.1-0.1,0.1-0.2l0.1-0.1l0.1-0.2l0.1-0.1l0,0l0,0l0.1-0.1h0.1h0.1
		l0.2,0.1c-0.2,0.1-0.3,0.3-0.3,0.4l-0.1,0.1c-0.1,0.1-0.1,0.2-0.2,0.3v0.1l-0.2-0.1l0,0l-0.1,0.2l0,0l1.2,0.7l-0.5,0.6l-0.5,0.5
		l-1.3-0.8l0,0l-0.1,0.2l0,0l1.3,0.8v0.5l-1.2-0.7l-0.3-0.1h-0.1l-0.6-0.2l-0.1,0.2l1.1,0.6l-0.3,0.1h-0.3h-0.3l-0.7-0.3l-0.2-0.2
		v-0.5v-0.2l0.1-0.1l0,0l-0.3-0.2c0.9-0.4,1.7-1.2,2.3-2.3c0.6-1.1,0.9-2.1,0.8-3.1l0.3,0.1l0,0v-0.1L213.8,69.6 M215.6,72l0.4-0.3
		c-0.1,0.6-0.3,1.2-0.6,1.9l-0.3-0.2l0.3-0.8L215.6,72 M213.9,75.4l0.5-0.6l0.3,0.2c-0.4,0.6-0.8,1.1-1.3,1.4v-0.5L213.9,75.4
		 M211,68L211,68l0.3-0.3h0.1l0,0c0,0,0.1,0,0.1,0.1c0.1,0,0.1,0.1,0.2,0.1c0.1,0.1,0.1,0.2,0.1,0.3l0,0L213,69v0.5l-1.2-0.7
		l-0.2-0.1h-0.1h-0.1h-0.1h-0.2l-0.3-0.1l-0.1-0.2v-0.1v-0.1v-0.1L211,68L211,68 M211.7,66.7c0.3,0,0.4,0,0.7,0.1h-0.2
		c-0.6,0-1.2,0.3-1.8,0.7c-0.9,0.6-1.8,1.5-2.4,2.8c-0.7,1.2-1.1,2.3-1.1,3.5c0,0.8,0.1,1.5,0.5,2c-0.6-0.5-0.8-1.3-0.8-2.3
		c0.1-1.1,0.4-2.3,1.1-3.4c0.7-1.2,1.5-2,2.4-2.7C210.6,66.9,211.1,66.7,211.7,66.7 M211.7,66.5L211.7,66.5c-0.6,0-1.3,0.2-1.9,0.6
		c-0.9,0.6-1.8,1.5-2.4,2.8c-0.7,1.3-1.1,2.4-1.2,3.5c0,0.8,0.1,1.4,0.4,2c-0.5-0.5-0.8-1.3-0.7-2.3c0.1-1.1,0.4-2.3,1.1-3.4
		c0.7-1.2,1.5-2.1,2.4-2.7c0.6-0.4,1.2-0.6,1.8-0.6C211.4,66.5,211.6,66.5,211.7,66.5 M212.1,67c0.2,0,0.4,0,0.6,0.1
		c-0.4,0-0.9,0.2-1.4,0.4c-1.3,0.7-2.3,1.7-2.9,2.9c-0.8,1.2-1.2,2.5-1.1,4c0,0.6,0.2,1,0.3,1.4c-0.5-0.5-0.8-1.3-0.8-2.3
		c0.1-1.1,0.4-2.3,1.1-3.4c0.7-1.2,1.5-2.1,2.4-2.7C211.1,67.2,211.6,67,212.1,67 M209,70.1L209,70.1L209,70.1c0.4-0.8,1-1.4,1.8-2
		v0.1v0.1v0.1l0.1,0.2l0.1,0.2c-0.4,0.3-0.9,0.9-1.4,1.6l-0.3-0.2l0,0l-0.1,0.2l0,0l0.3,0.2l0,0l0.1,0.1l-0.1,0.1l-0.2,0.2l0,0
		l0.2,0.2l0,0l0.2-0.2l0.1-0.1h0.1h0.1l0.8,0.5l0.7,0.3c-0.1,0.2-0.2,0.3-0.3,0.5c-0.1,0.2-0.2,0.3-0.3,0.5v-0.1l-0.5-0.3l-0.9-0.6
		v-0.2c0-0.1,0-0.1,0-0.2s0-0.1,0.1-0.2l0.1-0.1l0,0l-0.2-0.1l0,0l-0.1,0.1c-0.1,0.1-0.1,0.2-0.1,0.3c0,0.1,0,0.2,0,0.2v0.1
		l-0.4-0.3l0,0l-0.1,0.2l0,0l0.3,0.2c-0.1,0.2-0.1,0.3-0.2,0.5l-0.1,0.3l-0.1,0.3l-0.1,0.3l-0.1,0.3c0,0.2-0.1,0.3-0.1,0.5l0,0
		c-0.1,0-0.2,0-0.2,0c-0.1,0-0.1,0-0.2,0.1c-0.1,0-0.1,0.1-0.2,0.1c0.1-1,0.3-1.8,0.8-2.7h0.2l0,0c0-0.1,0-0.2,0-0.2
		c0-0.1,0.1-0.2,0.1-0.2l0.1-0.2l0.1-0.1l0,0l0,0l0.1-0.1l0,0L209,70.1 M208.7,72.1c0.1-0.2,0.2-0.3,0.2-0.4l1,0.6l-0.2,0.3
		l-0.1,0.3c-0.1,0.2-0.1,0.3-0.2,0.5c0,0.1-0.1,0.3-0.1,0.4l-0.1,0.3l-0.1,0.3l-1-0.6c0-0.2,0.1-0.3,0.1-0.5l0.1-0.3l0.1-0.3
		C208.5,72.4,208.6,72.2,208.7,72.1 M211.6,68.8L211.6,68.8l0.2,0.1l0.6,0.3c0.3,0.9,0.2,2-0.6,3.3c-0.8,1.3-1.6,1.9-2.5,2.1
		l-0.6-0.3c-0.1-0.1-0.2-0.1-0.2-0.2l0.8,0.5l0.8-0.4l0.1-0.4l0.3-0.7c0.5-0.6,0.9-1.3,1.3-2.1l0.8-0.8v-0.9L211.6,68.8 M212.2,69.6
		v0.5l-0.8,0.7l-0.2,0.2l-0.2,0.3l-0.3-0.2C211.2,70.5,211.7,70,212.2,69.6 M212.7,69.4l0.2,0.1c0.1,1-0.2,2-0.8,3.1
		c-0.7,1.1-1.4,1.8-2.3,2.3l-0.2-0.1c0.9-0.3,1.8-0.9,2.4-2.2C212.7,71.4,213,70.3,212.7,69.4 M211.1,68.8l0.3,0.2l0.8,0.4
		c-0.6,0.4-1,1-1.4,1.6l-0.7-0.4l-0.3-0.2C210.1,69.6,210.6,69.1,211.1,68.8 M210,72.7l0.1-0.3l0.3,0.2l-0.4,1.1V74l-0.4,0.3
		l0.1-0.5c0-0.2,0.1-0.3,0.1-0.4c0.1-0.1,0.1-0.3,0.2-0.4L210,72.7 M210,75.3v0.2l0.3,0.6l0.2,0.2l-0.3,0.6l0,0
		c-0.2-0.2-0.3-0.3-0.3-0.5c0-0.1-0.1-0.2-0.1-0.3l-0.1-0.4L210,75.3 M208.4,74.2c0,0.1,0.1,0.1,0.1,0.2s0.1,0.1,0.2,0.2l0.7,0.3
		l0.5,0.3l0.1,0.1l-0.5,0.2l-1.1-0.7l-0.1-0.1l0,0l0,0c-0.1,0-0.1,0-0.2,0l0,0c-0.1,0-0.1,0-0.2-0.1c-0.1,0-0.1,0-0.2-0.1l-0.1-0.1
		V74c0-0.1,0.1-0.2,0.2-0.2s0.2-0.1,0.3-0.1h0.1l0.4,0.3L208.4,74.2L208.4,74.2 M207.7,74.8c0.1,0.1,0.3,0.1,0.3,0.1h0.1
		c0.1,0.7,0.3,1.2,0.7,1.5l0.7,0.4c-0.2,0-0.3,0-0.5-0.1c-0.2,0-0.3-0.1-0.4-0.2l-0.2-0.1c-0.5-0.3-0.8-0.8-0.8-1.7
		C207.6,74.8,207.6,74.8,207.7,74.8 M209.4,76c0,0.2,0.1,0.3,0.1,0.3s0.1,0.2,0.2,0.3l-0.8-0.4c-0.3-0.3-0.5-0.7-0.6-1.2l0.9,0.6
		L209.4,76 M211.7,76.7l0.5-0.1v0.6c-0.2,0.1-0.3,0.1-0.5,0.2c-0.2,0-0.3,0.1-0.5,0.1s-0.3,0-0.3,0l0.3-0.6h0.2h0.3 M211.1,76.6
		l-0.3,0.6l-0.3-0.2l-0.2-0.1l0.3-0.6L211.1,76.6 M211.7,75.2L211.7,75.2l0.2-0.2l0,0l0,0h-0.1h-0.1l0,0L211.7,75.2L211.7,75.2
		L211.7,75.2 M211.1,75.4L211.1,75.4L211.1,75.4l0.3-0.2l0,0l-0.1-0.2l0,0l-0.3,0.2l0,0L211.1,75.4h-0.2l0,0v0.2l0,0h0.2l0,0V75.4
		 M213.9,70.1L213.9,70.1l0.1,0.2l0,0l0.1-0.1l0,0L213.9,70.1L213.9,70.1L213.9,70.1z"/>
	<path class="st3" d="M155.7,52.6L155.7,52.6L155.7,52.6L155.7,52.6l-1.2-0.8l0,0l-0.1,0.1l0,0L155.7,52.6 M176.6,61.1L176.6,61.1
		v0.6l0,0h0.1l0,0L176.6,61.1L176.6,61.1L176.6,61.1 M167.5,59.4L167.5,59.4L167.5,59.4L167.5,59.4l-10.4-6.1l0,0l-0.1,0.1l0,0
		L167.5,59.4 M171.5,61.5L171.5,61.5L171.5,61.5L171.5,61.5l5.2,3.1l0,0v-2.4l0,0h-0.1l0,0v2.3L171.5,61.5 M170.2,60.9L170.2,60.9
		L170.2,60.9L170.2,60.9l-1.2-0.8l0,0l-0.1,0.1l0,0L170.2,60.9 M176.7,58.2L176.7,58.2L176.7,58.2L176.7,58.2l-0.1,2.3l0,0h0.1l0,0
		V58.2 M176.6,55.5L176.6,55.5L176.6,55.5L176.6,55.5l-0.1,0.5l0,0h0.1l0,0V55.5 M178.7,56.1L178.7,56.1l-0.4-0.3l0,0v0.1l0,0
		L178.7,56.1L178.7,56.1L178.7,56.1 M176.5,54.8L176.5,54.8v0.6l0,0h0.1l0,0V55l1.3,0.8l0,0l0.1-0.1l0,0L176.5,54.8 M147.9,45
		L147.9,45v3.1l5.3,3l0,0V51l0,0l-5.2-3L147.9,45L147.9,45L147.9,45 M148,44.2v-0.8l0,0h-0.1l0,0L148,44.2L148,44.2L148,44.2
		L148,44.2 M141.5,35.9L141.5,35.9l2.2,1.3l0,0l0.1-0.1l0,0L141.5,35.9L141.5,35.9l-0.3-0.3l0,0v0.1l0,0L141.5,35.9 M148,39.6
		l-2.5-1.4l0,0l-0.1,0.1l0,0l2.4,1.4v2.9l0,0h0.1l0,0L148,39.6 M144.8,37.9L144.8,37.9L144.8,37.9L144.8,37.9l-0.5-0.4l0,0l-0.1,0.1
		l0,0L144.8,37.9 M124.1,30.8L124.1,30.8L124.1,30.8L124.1,30.8l0.4,0.3l0,0l0.1-0.1l0,0L124.1,30.8 M148.4,29.6L148.4,29.6v-3.9
		l0,0h-0.2l0,0v3.8l-2.5-1.4l-0.2-0.1h-0.1l0,0l0,0l0,0l0,0l0,0l0,0l0.2,0.1L148.4,29.6 M144,27.1L144,27.1l0.8,0.4l0,0l0.1-0.1l0,0
		L144,27.1L144,27.1L144,27.1 M140.5,25L140.5,25L140.5,25L140.5,25l1.3,0.9l1.4,0.8l0,0l0.1-0.1l0,0L140.5,25 M148.2,24.6
		L148.2,24.6L148.2,24.6L148.2,24.6l0.1-1l0,0h-0.1l0,0V24.6 M176.9,49.3L176.9,49.3l0.4,0.3l0.5,0.3l1.3,0.8l0,0l0.1-0.1l0,0
		l-1.3-0.8l-0.6-0.3L176.9,49.3L176.9,49.3 M176.6,48.6L176.6,48.6L176.6,48.6L176.6,48.6l-0.1,0.3c0,0.1,0,0.2,0,0.3l0,0h0.1l0,0
		c0-0.1,0-0.2,0-0.2V48.6 M176.6,42.5L176.6,42.5L176.6,42.5L176.6,42.5l-0.1,4.2l0,0h0.1l0,0V42.5 M176.4,41.5L176.4,41.5
		L176.4,41.5l0.1-1l0,0h-0.1l0,0V41.5L176.4,41.5 M154.7,22.5L154.7,22.5L154.7,22.5L154.7,22.5l1.2,0.8l0,0l0.1-0.1l0,0L154.7,22.5
		 M153.4,21.9L153.4,21.9L153.4,21.9L153.4,21.9l-5.1-3.1l0,0v3.9l0,0h0.1l0,0v-3.8L153.4,21.9 M171.4,32.2L171.4,32.2L171.4,32.2
		L171.4,32.2l5,3v4.1l0,0h0.1l0,0v-4.2L171.4,32.2 M168.8,30.7L168.8,30.7L168.8,30.7L168.8,30.7l1.2,0.8l0,0l0.1-0.1l0,0
		L168.8,30.7 M167.5,30.1L167.5,30.1L167.5,30.1L167.5,30.1l-10.1-6l0,0l-0.1,0.1l0,0L167.5,30.1 M183.6,78.8L183.6,78.8l1.9,1.1
		l0,0v-1.3l0,0h-0.1l0,0v1.1L183.6,78.8L183.6,78.8L183.6,78.8 M183.1,78.5L183.1,78.5L183.1,78.5L183.1,78.5l-0.4-0.3l0,0v0.1l0,0
		L183.1,78.5 M185.3,78.3L185.3,78.3L185.3,78.3L185.3,78.3l0.1-0.3l0,0h-0.1l0,0V78.3 M185.5,76.4L185.5,76.4L185.5,76.4
		L185.5,76.4l-0.1,1.3l0,0h0.1l0,0V76.4 M185.5,74.6L185.5,74.6L185.5,74.6L185.5,74.6l-0.1,0.5l0,0h0.1l0,0V74.6 M185.5,73.7
		L185.5,73.7L185.5,73.7L185.5,73.7l-0.1,0.5l0,0h0.1l0,0V73.7 M180.4,69.7L180.4,69.7l-0.1,7.3l1.8,1l0,0l0.1-0.1l0,0l-1.8-1
		L180.4,69.7L180.4,69.7 M180.4,64.4L180.4,64.4v-7.3l-1.4-0.8l0,0l-0.1,0.1l0,0l1.4,0.8L180.4,64.4L180.4,64.4 M180.4,66.1
		L180.4,66.1l-0.1,1.8l0,0h0.1l0,0V66.1L180.4,66.1 M182.1,57.9L182.1,57.9L182.1,57.9L182.1,57.9l0.8,0.7l0.1-0.1l0,0L182.1,57.9
		 M180.3,51.2L180.3,51.2l-0.4-0.3l-0.2-0.1l0,0l-0.1,0.1l0.2,0.1L180.3,51.2L180.3,51.2L180.3,51.2 M188.9,51.4L188.9,51.4
		L188.9,51.4l0.1-0.6h-0.1l0,0V51.4L188.9,51.4 M189,48.3L189,48.3L189,48.3L189,48.3l-0.1,0.3l0,0h0.1l0,0V48.3 M189,47.8L189,47.8
		L189,47.8L189,47.8l-0.1,0.3l0,0h0.1V47.8 M189,46.1L189,46.1L189,46.1l-0.1,0.3v0.3l0,0h0.1l0,0V46.1 M189,45.5L189,45.5L189,45.5
		L189,45.5l-0.1,0.3V46l0,0h0.1l0,0V45.5 M188.9,43.2L188.9,43.2v0.3v0.3l0,0h0.1l0,0L188.9,43.2L188.9,43.2L188.9,43.2 M183.2,47.8
		L183.2,47.8L183.2,47.8L183.2,47.8l-0.1,5l-2.3-1.3l0,0l-0.1,0.1l0,0l2.4,1.3l0,0L183.2,47.8 M183.1,45.3v1.3l0,0h0.1l0,0
		L183.1,45.3L183.1,45.3L183.1,45.3L183.1,45.3 M185.2,40.1L185.2,40.1L185.2,40.1L185.2,40.1l-2.1-1.3l0,0V44l0,0h0.1l0,0v-5
		L185.2,40.1 M189,42.2l-2.1-1.3l0,0l-0.1,0.1l0,0L189,42.2l-0.1,0.5l0,0h0.1l0,0V42.2 M186.3,40.7L186.3,40.7l-0.5-0.3l0,0
		l-0.1,0.1l0,0L186.3,40.7L186.3,40.7L186.3,40.7 M132.5,16.9L132.5,16.9L132.5,16.9L132.5,16.9l0.1,0.2l0.5,0.3l0,0l0.1-0.1l0,0
		l-0.5-0.3L132.5,16.9z"/>
</g>
<g>
	<text transform="matrix(1 0 0 1 94.3091 123.4662)" class="st4 st5">L/H I/B</text>
	<text transform="matrix(1 0 0 1 89.2091 146.4662)" class="st4 st5">3241-P2</text>
	<text transform="matrix(1 0 0 1 17.415 123.4665)" class="st4 st5">L/H O/B</text>
	<text transform="matrix(1 0 0 1 15.815 146.4665)" class="st4 st5">3241-P2</text>
	<text transform="matrix(1 0 0 1 206.4518 122.9659)" class="st4 st5">R/H I/B</text>
	<text transform="matrix(1 0 0 1 202.5518 146.9659)" class="st4 st5">3241-P1</text>
	<text transform="matrix(1 0 0 1 274.0484 122.9664)" class="st4 st5">R/H O/B</text>
	<text transform="matrix(1 0 0 1 273.6484 146.9664)" class="st4 st5">3241-P1</text>
	<g transform="matrix( 1, 0, 0, 1, 0,0) ">
		<g>
			<path id="Layer0_11_MEMBER_1_1_STROKES_2_" class="st6" d="M149.4,157.1H82v-27.8h67.4V157.1z"/>
		</g>
	</g>
	<g transform="matrix( 1, 0, 0, 1, 0,0) ">
		<g>
			<path id="Layer0_11_MEMBER_1_1_STROKES_4_" class="st6" d="M76,157.1H8.6v-27.8H76V157.1z"/>
		</g>
	</g>
	<g transform="matrix( 1, 0, 0, 1, 0,0) ">
		<g>
			<path id="Layer0_11_MEMBER_1_1_STROKES_6_" class="st6" d="M262.7,157.1h-67.4v-27.8h67.4V157.1z"/>
		</g>
	</g>
	<g transform="matrix( 1, 0, 0, 1, 0,0) ">
		<g>
			<path id="Layer0_11_MEMBER_1_1_STROKES_5_" class="st6" d="M333.8,157.1h-67.4v-27.8h67.4V157.1z"/>
		</g>
	</g>
</g>
</svg>
