<?xml version="1.0" encoding="utf-8"?>
<!-- Generator: Adobe Illustrator 24.1.2, SVG Export Plug-In . SVG Version: 6.00 Build 0)  -->
<svg version="1.1" id="Ebene_1" xmlns="http://www.w3.org/2000/svg" xmlns:xlink="http://www.w3.org/1999/xlink" x="0px" y="0px"
	 viewBox="0 0 349.1 161" style="enable-background:new 0 0 349.1 161;" xml:space="preserve">
<style type="text/css">
	.st0{fill:#0099FF;}
	.st1{fill:#CCCCCC;}
	.st2{fill:#FFFF00;}
	.st3{fill:none;stroke:#2D2C2E;stroke-width:0.5;stroke-miterlimit:5;}
	.st4{fill:none;stroke:#000000;stroke-width:0.2;stroke-linecap:round;stroke-linejoin:round;}
	.st5{fill:none;stroke:#2D2C2E;stroke-width:0.25;stroke-miterlimit:5;}
	.st6{fill:none;stroke:#FF9900;stroke-linecap:round;stroke-linejoin:round;}
	.st7{font-family:'ArialMT';}
	.st8{font-size:14px;}
</style>
<path class="st0" d="M68.4,146.4L68.4,146.4l-0.1,0.1L68.4,146.4 M68.2,144.7l-0.5-0.5l-0.5,0l0.1,0l0.8,1l0.2,1.2l0.2-0.4v-0.6
	L68.2,144.7 M58.6,152.1L58.6,152.1L58.6,152.1L58.6,152.1 M57.6,150.2l-0.3-0.4v0.1l0.1,0.6l0.7,1.1l0.5,0.4l-0.2-0.4l-0.1-0.5
	l-0.2-0.3l-0.1-0.4L57.6,150.2 M48.9,146.5l0.1,0.1L48.9,146.5L48.9,146.5 M58.6,141.1l0.1-0.1v-0.1L58.6,141.1 M58.8,139.9
	l-0.3-0.7l-0.5-0.4l-0.5,0l0.2,0l0.8,1l0.2,1.1l0.1-0.3V139.9 M187.8,32.6L187.8,32.6l0.5-0.3L187.8,32.6 M187.5,32.9l0.2-0.2l0-0.1
	l-0.8,0.2l-0.9-0.1l-0.5-0.2l0.3,0.4l0.7,0.2h0.4l0.4-0.1L187.5,32.9 M187.9,22.4l-0.4-0.2l0.9,0.7L187.9,22.4 M187.5,22.7l-0.3-0.3
	l-0.2-0.1L187.5,22.7 M187.5,22v0.1l0.4,0.2L187.5,22 M187.4,22.1l-0.3,0.3l0.3,0.3L187.4,22.1L187.4,22.1 M187.9,21.1L187.9,21.1
	L187.9,21.1L187.9,21.1 M186,20.9l-0.6,0.2l0.4,0l0.5,0.1l0.4-0.1l0.3,0.1l0.5-0.2l0.4,0l-0.6-0.2L186,20.9 M177.7,26.9L177.7,26.9
	l-0.8,0.1l-0.9-0.1l-0.5-0.2l0.3,0.4l0.7,0.2h0.3l0.4-0.1l0.3-0.1L177.7,26.9 M177.4,16.3v0.1l0.9,0.7L177.4,16.3 M177.1,16.7
	l0.3,0.3v-0.6l-0.1-0.1L177.1,16.7 M177.4,16.9l-0.3-0.3l-0.2-0.1L177.4,16.9 M177.8,15.3L177.8,15.3L177.8,15.3L177.8,15.3
	 M177.4,15.4l0.4,0l-0.6-0.2l-1.3,0l-0.6,0.2l0.4,0l0.5,0.1l0.4-0.1l0.3,0.1L177.4,15.4 M125.3,139.5h0.3l0.2-0.3l-0.8,1.4v0
	l0.1,0.2l0,0l1-1.5c-0.2-0.1-0.4-0.2-0.6-0.3L125.3,139.5 M124.3,140.2l0.2,0.1L124.3,140.2L124.3,140.2 M124.3,140.2L124.3,140.2
	l0.1,0l0.1,0.1l0.1-0.3l0.7-1.2c-0.2-0.1-0.4-0.2-0.6-0.3l-0.8,1.2l0,0.1l0.3,0.1L124.3,140.2 M125.6,139c-0.1,0-0.2-0.1-0.3-0.2
	l-0.7,1.2l0.7-0.6L125.6,139 M126.7,139.6c-0.1-0.1-0.3-0.2-0.4-0.2l-1,1.5l0.4,0.1L126.7,139.6 M121.5,138.3l0,0.1l0.3,0.1
	L121.5,138.3 M123.1,139.4l0.2,0l0.6,0.3l0.8-1.2c-0.4-0.2-0.7-0.4-1.1-0.6l-0.7,1.2L123.1,139.4 M123.4,139.5l-0.2,0l0.7,0.5l0-0.1
	L123.4,139.5 M122,138.9l0,0.3l0.4,0.4l0.5,0.1l1.6,0.9h0.4v0l0.8-1.4l-0.2,0.3h-0.3l-0.7,0.6l-0.1,0.3l-0.2-0.1l-0.1,0l-0.1-0.1
	l-0.3-0.1l-0.7-0.5l-0.3-0.2l-0.5-0.2L122,138.9 M122.7,138.2c-0.2,0-0.3,0.1-0.5,0.2v0.2l0.3-0.1L122.7,138.2 M123.6,138
	c-0.1-0.1-0.2-0.1-0.3-0.2L123,138c-0.1,0.1-0.2,0.1-0.3,0.2l-0.2,0.3l-0.3,0.1v-0.2c-0.2,0-0.5,0-0.7,0l0.4,0.2l0.6,0.4l0.5,0.2
	L123.6,138 M122.4,137.3c0,0-0.1,0-0.1-0.1l-0.1,0.2L122.4,137.3 M121.6,137.5h0.2l0.3-0.4c-0.4-0.2-0.8-0.5-1.2-0.7l0.4,0.9
	L121.6,137.5L121.6,137.5 M121.8,137.5L121.8,137.5l0.3,0h0l0.1,0l0.1-0.2c-0.1,0-0.2-0.1-0.3-0.1L121.8,137.5 M142,141.7l0.1-0.1
	l0-0.1l-0.6,0.3l0.3,0.1L142,141.7 M141.1,139.5l0.4,0.2l0.3,0.3l0.3,0.4l0.2,0.8V141l-0.1-0.4l-0.3-0.6l-0.4-0.4l-0.4-0.2l-0.4,0.1
	l-0.1,0.3l0.4-0.3H141.1 M136.6,142.5c-0.5,0-1-0.1-1.5-0.1l2.4,1.9l12.9,7.4l-5.9-4.6L136.6,142.5 M135.8,138.5l0.2,0h0.2l0.3-0.2
	l0.1-0.1L135.8,138.5 M135.4,136.1l-0.1,0l-0.4,0.1l-0.2,0.4L135.4,136.1 M119.8,135.7L119.8,135.7l0.1,0.8l0.4,0.9l0.4,0.6l0.2,0.2
	c0.2,0.1,0.4,0.2,0.6,0.3c0.2,0,0.5,0,0.7,0c0.1-0.1,0.3-0.1,0.5-0.2c0.1,0,0.2-0.1,0.3-0.2l0.3-0.2c-0.2-0.1-0.5-0.3-0.8-0.5
	l-0.2,0.1l-0.1,0h0l-0.2,0h0h-0.2l-0.1-0.1l-0.2-0.1l-0.4-0.9c-0.2-0.1-0.4-0.3-0.6-0.4L119.8,135.7 M118.2,134.7l0.2,0.2l-0.2-0.4
	l-0.1-0.1L118.2,134.7 M118.5,134.9l0.1,0.1h0.1L118.5,134.9 M112.7,129.9L112.7,129.9l0.1,0.1l0,0c0.1,0.1,0.2,0.1,0.3,0.1
	c0.1,0,0.1,0,0.2,0l0.4-0.1l-0.4-0.2H113L112.7,129.9 M112.7,129.9h-0.1l0.2,0.3l0.3,0.1h0.3c-0.1,0-0.1,0-0.2,0
	c-0.1,0-0.2-0.1-0.3-0.1l0,0L112.7,129.9 M114,129.9L114,129.9l-0.3,0.3l-0.4,0.1C113.7,130.3,113.9,130.2,114,129.9 M114.2,129.7
	l0.1-0.3h-0.1c0,0.2-0.1,0.4-0.2,0.5L114.2,129.7 M114.9,129.2v0.1l2.3,1.8l0.2,0.1h0l0.3,0l0.3,0l0.3-0.1l0.3-0.2l0.3-0.5l0.1-0.3
	v-0.3l-0.1-0.3l-0.1-0.1l-0.1-0.2l-2.5-1.9l-0.3,0c0.1,0,0.2,0.1,0.3,0.2c0.3,0.3,0.1,0.8-0.5,1.3
	C115.4,129,115.1,129.2,114.9,129.2 M114.9,129.2l0-0.1l-0.3,0C114.7,129.1,114.8,129.2,114.9,129.2 M116.1,127.5L116.1,127.5l0,0.3
	v0.1l0,0.3l-0.1,0.3l-0.3,0.3l0,0l-0.5,0.1l-0.4,0l-0.3-0.3l0-0.4l0.1-0.5l-0.2,0.5c0,0.4,0.1,0.7,0.3,0.9l0.3,0l0,0.1
	c0.2,0,0.5-0.1,0.8-0.4c0.6-0.5,0.8-1,0.5-1.3c-0.1-0.1-0.2-0.2-0.3-0.2c-0.1,0-0.1,0-0.1-0.1l-0.1,0l0.1,0l0.1,0L116.1,127.5
	 M115.7,127C115.7,127,115.7,127,115.7,127l-0.7-0.6l0.5,0.7L115.7,127 M115.7,127C115.7,127,115.7,127,115.7,127l-0.2,0.1h0.1
	l0.1,0l0.1,0L115.7,127 M114,128.5L114,128.5l-0.3-0.1L114,128.5 M114,128.5l0.2,0.2C114.2,128.6,114.2,128.5,114,128.5
	c-0.1-0.1-0.2-0.1-0.3-0.1L114,128.5L114,128.5 M114.3,128.8L114.3,128.8L114.3,128.8C114.3,128.7,114.3,128.8,114.3,128.8
	c0,0.1,0,0.3-0.1,0.5c0,0,0,0,0,0.1h0.1l0-0.2L114.3,128.8 M113.5,128.4c0.1,0,0.2,0,0.2,0l-0.1,0L113.5,128.4L113.5,128.4
	 M113.1,128.5l-0.1,0.2l-0.2,0.3h0.1l1.1,0.2l0.3,0.2c0,0,0,0,0-0.1c0-0.2,0.1-0.4,0-0.5c0,0,0,0,0-0.1l-0.2-0.2l-0.3-0.1h0
	c0,0-0.1,0-0.2,0S113.2,128.5,113.1,128.5 M112.9,128.7l0.1-0.2c0.1,0,0.3-0.1,0.4-0.1l0,0l-0.4,0.1L112.9,128.7 M112.1,127.6
	l0.1,0.5l0.3,0.9h0.2l0.2-0.3l0.1-0.2l0.4-0.1l-1.2-0.9L112.1,127.6 M109.6,127.9L109,127l-0.9-2.4l-1-0.4l0.1,0.4
	c0.8,3.3,2.2,5,4.1,5.3l0.6,0l0.6,0h0.1h0l0.3,0h0.3l0.4,0.2l0.2-0.2l0.1-0.1c0.1-0.1,0.1-0.3,0.2-0.5l-0.3-0.2l-1.1-0.2h-0.1h-0.2
	h-0.3l-0.6,0.1l-0.7-0.1l-0.7-0.4L109.6,127.9 M109.3,125.5l0.1,0.1l0.3,0.2h0.6l3-1l-3,0.7h-0.5h-0.1l-0.5-0.3L109.3,125.5
	 M109.1,125.1l0.1,0.1l0.5,0.3h0.1l-0.3-0.2l-0.2-0.2L109.1,125.1 M109.2,125.3l-0.1-0.1l-1-0.5l0.9,2.4l0.6,0.9l0.6,0.6l0.7,0.4
	l0.7,0.1l0.6-0.1h0.3l-0.3-0.9l-0.1-0.5l0-0.2l-1.5-1.2h-0.2l-0.5-0.2l-0.6-0.6l-0.1-0.1L109.2,125.3 M112,124.3l-0.1,0l0.8,0.5
	L112,124.3 M108.3,120.8l-0.2-0.1l1.1,0.7l-0.2-0.2L108.3,120.8 M108.3,121.3l0.4,0.2l-1.5-1H107l1,0.5L108.3,121.3 M101.8,114.7
	l-0.5-0.3c-0.1,0.2-0.1,0.5-0.2,0.7L101.8,114.7 M108,112.4l-0.3-0.1l-6.9,4.1c-0.6,2.1-1.2,4.2-1.6,6.3l8.2-4.8l-0.4-0.3l-0.4-0.5
	l-0.2-0.7l0.1-0.8l-0.1,0.8l0.2,0.7l0.4,0.5l0.4,0.3l1.8,1.4l0.3,0.2l0.4,0.1l0.4,0l0.9-0.2l0.5-0.3l1.9-4.7l0.3-2.5l0.3-0.9
	l0.5-0.9l0.6-0.7l-1.1,0.3l-0.9,0.4l-3.3,1.9l-0.9,0.4l-0.4,0.1H108 M107.7,112.2l-0.8-0.4l-5.1,2.9l-0.7,0.4
	c-0.1,0.4-0.3,0.8-0.4,1.2L107.7,112.2 M107.6,111.9l-0.4,0l-0.3-0.1l0.8,0.4l0.3,0.1l0-0.5L107.6,111.9 M108.1,111.4l-0.1,0.1
	l0.1,0.1c0,0,0.1,0.1,0.1,0.3l0.4-0.1l-0.2-0.2L108.1,111.4L108.1,111.4 M108,111l0.2-0.1l-0.5-1.1l0.3,2.1h0l0.2,0
	c0-0.1-0.1-0.2-0.1-0.3l-0.1-0.1V111 M107.7,109.8l0-0.4v0.3L107.7,109.8 M107.7,109.3l0,0.4l0.5,1.1L107.7,109.3 M109.8,107.8
	l-0.4-0.3l-1.7,1.8l2.6,1.5l1.8-1.7L109.8,107.8 M112.1,109.3l-0.3,0.6l0.8-0.4l0.7-0.6l0.6-0.7l0.3-0.3l0.6-0.3l0.3,0l-0.6-0.3
	l-0.5,0.1h-0.1l-0.1,0.1l-0.4,0.3l-0.6,0.5l-0.5,0.7L112.1,109.3 M112.1,109.3L112,109l-1.8,1.7l-2.6-1.5l0.5,1.6l0.5-0.5l-0.5,0.5
	L108,111v0.4l0.1-0.1h0.1l0.3,0.2l0.2,0.2l0.3-0.2l-0.4-0.4l-0.2-0.1l0.2,0.1l0.4,0.4l0.8-0.5l-0.4-0.4l-0.4-0.3l0.4,0.3l0.4,0.4
	l2-1.2L112.1,109.3 M111.9,105.6l-0.1,0l1.4,0.9l0.4,0.7l0.1,0.3l0.1-0.1h0.1l-0.6-1l0,0L111.9,105.6 M111.1,105.6l-0.2,0.1
	l-3.3,3.5v0.1l1.7-1.8l0.4,0.3l1.5-1.4l-1.5,1.4l2.2,1.2l0.1,0.3l0.1-0.3l0.5-0.7l0.6-0.5l0.4-0.3l-0.1-0.3l-2-0.9l2,0.9l-0.4-0.7
	l-1.4-0.9l-0.3,0.1l0.3-0.1l0.1,0l-0.1-0.1h-0.3L111.1,105.6L111.1,105.6 M116.7,103.3l2,1.1l0.2-0.4l0.5-1.7l-2.1-1.2L116.7,103.3
	 M116.9,103.7l-0.2,0.7l0,2.7l0.3-0.1l1.2-1.3l0.7-1.2l-2-1.1L116.9,103.7 M117.9,99.8l0.1-0.9l0-0.7l-2.6-2.3l-1,2.2l-1,3.6
	l-0.2,1.8l0,1.6l0.3,1.5l0.6,1l0.5-0.1l0.6,0.3l1.2-0.4l0.3-0.2l0-2.7l0.2-0.7l-0.1-0.4l0.6-2.2l0.3-0.6L117.9,99.8 M117.9,98.1
	L117.9,98.1l0.6,0.5L117.9,98.1 M118.7,98.8c-0.1-0.1-0.2-0.1-0.2-0.2l-0.6-0.4l0,0.7l-0.1,0.9l-0.2,0.6l-0.3,0.6l2.1,1.2l0.1-0.6
	V101l-0.1-0.6l-0.6-1.5C118.8,98.9,118.8,98.8,118.7,98.8 M139.2,132.1l0.2,0.5v0.4l-0.2,0.3l-0.5,0.2l0.4,0l0.2-0.1l0.1-0.1
	l0.1-0.2v-0.2l-0.1-0.6l-0.3-0.6l-0.2-0.2L139.2,132.1 M138.1,131.2l0.3,0L138.1,131.2l-0.4,0l0,0.1L138.1,131.2 M138.5,131.3
	L138.5,131.3l-0.1-0.1L138.5,131.3 M138.5,131.3l0.1,0L138.5,131.3L138.5,131.3 M138.6,131.3l-0.1,0l-0.1-0.1l-0.3,0l-0.4,0.1
	l-0.1,0.1l0.5-0.2l0.3,0l0.4,0.3L138.6,131.3 M123.3,133l-0.3-0.3l-0.1,0.9l-0.6,0.6l-1.9,1.2l-0.6,0.2l0.5,0.3
	c0.2,0.1,0.4,0.3,0.6,0.4c0.4,0.2,0.8,0.5,1.2,0.7c0.1,0,0.2,0.1,0.3,0.1c0,0,0.1,0,0.1,0.1c0.3,0.2,0.6,0.3,0.8,0.5
	c0.1,0,0.2,0.1,0.3,0.2c0.4,0.2,0.7,0.4,1.1,0.6c0.2,0.1,0.4,0.2,0.6,0.3c0.1,0.1,0.2,0.1,0.3,0.2c0.2,0.1,0.4,0.2,0.6,0.3
	c0.1,0,0.3,0.1,0.4,0.2c1.2,0.5,2.4,1.1,3.7,1.5c1.8,0.6,3.4,1,4.8,1.3c0.5,0.1,1,0.1,1.5,0.1c1.4,0.1,2.7,0,3.8-0.4
	c0.2-0.1,0.5-0.2,0.7-0.3l0.4-0.1l0.6-0.3l0.1-0.2l-0.2-0.8l-0.3-0.4l-0.3-0.3l-0.4-0.2h-0.3l-0.4,0.3l-0.1,0
	c-0.3,0.1-0.6,0.2-0.9,0.3c-1.8,0.4-4.1,0.1-7-0.8c-0.1,0-0.2-0.1-0.3-0.1c-2.7-0.8-5.3-2-7.8-3.5l-0.6-0.3l0.6,0.3
	c2.6,1.5,5.2,2.7,7.8,3.5c0.1,0,0.2,0.1,0.3,0.1l0.7,0c0.5,0,1.1-0.1,1.8-0.3c0.3-0.1,0.6-0.3,0.9-0.4l0.1,0l0.8-0.3v-0.1l0-0.2
	l-0.1-0.6l-0.3-0.6l-0.4-0.4l-0.3-0.2l-0.7,0.4h-0.1c-0.3,0.1-0.6,0.2-0.9,0.3c-1.3,0.3-3,0-5-0.7C126.8,135.4,125,134.3,123.3,133
	 M122.1,133l0.1-0.7V132l-3.2-2.5l0.1,0.3v0.3l-0.1,0.3l-0.3,0.5l-0.3,0.2l-0.3,0.1l-0.3,0l-0.3,0h0l3.3,2.6l-3.3-2.6l-0.2-0.1
	l-2.3-1.8v-0.1c-0.1,0-0.2,0-0.3-0.1c-0.1-0.2-0.2-0.5-0.3-0.9l0.2-0.5l-0.1,0.5l0,0.4l0.3,0.3l0.4,0l0.5-0.1l0,0L115,128l-1.2-1.8
	l-0.4-0.7l-2.5,0.8l-0.3,0l1.5,1.2l1.2,0.9l0.1,0l0.1,0h0c0.1,0,0.3,0,0.3,0c0.1,0,0.2,0.1,0.2,0.3l0,0v0l0,0.4l0,0.2l-0.1,0.3
	l-0.1,0.2c-0.1,0.3-0.4,0.4-0.7,0.4H113l-0.3-0.1l2.6,2.2l0.2,0.1l0.1,0h0.3l0.3,0l0.2-0.1l0.3-0.2l0.3-0.4l-0.3,0.4l-0.3,0.2
	l-0.2,0.1l-0.3,0h-0.3l2.4,1.8l0.1,0.1l0.2,0.4l0.1,0.1l0.1,0.1l0.5,0.1l0.6-0.3l1.9-1.2l0,0L122.1,133 M122.4,131.9v0.4l-0.2,0.7
	l-0.4,0.6l0,0l-1.9,1.2l-0.6,0.3l-0.5-0.1l0.4,0.4l0.6,0.2h0.1l0.6-0.2l1.9-1.2l0.6-0.6l0.1-0.9l0-0.4L122.4,131.9 M122.2,132v-0.3
	l-7.5-6l0.4,0.7l0.7,0.6l0.1,0.1c0,0,0.1,0,0.1,0.1l0.3,0l2.5,1.9l0.1,0.2l0.1,0.1L122.2,132 M122.4,131.9l-0.2-0.1v0.3v0.3
	l-0.1,0.7l-0.3,0.6l0.4-0.6l0.2-0.7V131.9 M127.3,111.2l-0.7,0.1l-17.4,10.1l-1.1-0.7l-0.6-0.1h-0.3l1.5,1l1.3,0.6l0.2,0l0.2,0.1
	l0.2,0h0.3l1.1-0.9h0.1l0.1-0.1l0.1-0.1c0.5-0.5,1-0.5,1.6-0.1c0.5,0.3,0.6,0.7,0.5,1.2c0.1-0.5,0-0.9-0.5-1.2
	c-0.5-0.4-1.1-0.3-1.6,0.1l-0.1,0.1l-0.1,0.1h-0.1l-1.1,0.9h-0.3l-0.2,0l-0.2-0.1l-0.2,0l-1.3-0.6l-0.4-0.2l-0.3-0.2l-1-0.5l-0.3,0
	l-0.9,0.1l-0.9,0.3l-1.2,0.7l0.1,0.2l0.8,0.9l1,0.7l1.6,0.7l1,0.4l1,0.5l0.2,0.1l0.2,0.2l0.4,0l-0.4,0l0.3,0.2h0.5l3-0.7l-3,1h-0.6
	l-0.3-0.2l0.6,0.6l0.5,0.2h0.2l0.3,0l2.5-0.8l0.6-0.2l-1.3-1l-0.3-0.3c-0.2,0.1-0.3,0.2-0.4,0.3l0,0l0.7,0.6l-0.8-0.5l0.1,0l0,0
	c0.1,0,0.2-0.1,0.4-0.3c0.4-0.2,0.8-0.6,1.3-1c-0.5,0.4-0.9,0.8-1.3,1l0.3,0.3l1.3,1l0.3,0.2l-0.3-0.2l-0.6,0.2l0.4,0.7l1.2,1.8
	l0.7,0.8l0.3-0.3l0.1-0.3l0-0.3l-0.4-0.3l0.4,0.3v-0.1l0-0.3v0l-0.1-0.2l-0.1,0l-0.1,0l-0.1,0h-0.1l-0.5-0.7l-0.4-0.7l7.5,6l0.2,0.1
	l0.6,0.5l0.2,0.1l-0.2-0.1l0,0.4l0.3,0.3c1.7,1.4,3.5,2.4,5.4,3.2c2,0.8,3.7,1,5,0.7l0-0.3c-0.1-0.7,0-1.3,0.3-1.8
	c-0.3,0.4-0.4,1-0.3,1.8l0,0.3c0.3-0.1,0.6-0.2,0.9-0.3h0.1l0.2-0.4l0.4-0.1l0.1,0l0.3,0.2l0.4,0.4l0.3,0.6l0.1,0.6l0,0.2v0.1
	l-0.1,0.1l-0.3,0.2H136l-0.2,0l-0.1,0c-0.3,0.1-0.6,0.3-0.9,0.4l0.3,0.3c0.6,0.5,1.2,0.7,1.7,0.7l0.4-0.1l0.5-0.4l0.1-0.1l0.1-0.2
	l0.1-0.2l0-0.3v-0.3l-0.1-0.8l-0.3-0.8l-0.4-0.8l-0.6-0.7l-0.6-0.5l-0.6-0.3c-1.5,0.2-3.2,0.3-5.2,0.1c-2.7-0.2-4.9-0.8-6.5-1.8
	l-0.4-0.2l0.1,0h0.1l0.1,0l0.2,0l-0.2,0l-0.1,0h-0.1l-0.1,0l0.4,0.2c1.6,0.9,3.8,1.5,6.5,1.8c2,0.2,3.7,0.1,5.2-0.1
	c0.6-0.1,1.1-0.3,1.6-0.4l0.6-0.1l0.9-0.4l0.5-0.2l0.2-0.3v-0.4l-0.2-0.5l-0.3-0.5l-0.4-0.3l-0.3,0l-0.5,0.2l-1,0.4l-0.2,0
	c-0.6,0.2-1.2,0.3-1.9,0.4c-1.2,0.1-2.5,0.1-3.9,0c-2.4-0.2-4.2-0.6-5.6-1.4H125l-0.3-0.1l-8.2-6.5c-0.5-0.3-0.9-0.7-1.3-1l-0.7-0.6
	l0.7,0.6c0.4,0.3,0.9,0.7,1.3,1l8.2,6.5l0.3,0.1h0.1c1.3,0.8,3.2,1.2,5.6,1.4c1.4,0.1,2.7,0.1,3.9,0l-0.7-1.1l-0.8-0.7l0.8,0.7
	l0.7,1.1c0.7-0.1,1.3-0.2,1.9-0.4l0.2,0l-0.1-0.3c-0.1-0.8,0-1.3,0.3-1.7c-0.3,0.4-0.4,0.9-0.3,1.7l0.1,0.3l1-0.4l0.1-0.1l0-0.1
	l0.4-0.1l0.3,0.1h0.1l0.1,0.1h0.1l0,0l0.2,0.2l0.2,0.2l0.3,0.6l0.1,0.6v0.2l-0.1,0.2l-0.1,0.1l-0.2,0.1l-0.4,0l-0.9,0.4l0.3,0.3
	c0.5,0.5,1.1,0.8,1.7,0.7l0.4-0.1l0.3-0.1l0.1-0.2l0.2-0.2l0.1-0.2l0.1-0.3l0-0.3v-0.3l-0.1-1l-0.4-1l-0.7-0.9l-0.8-0.6l-0.8-0.3
	l-0.7,0.1l0.7-0.1l0.8,0.3l0.8,0.6l0.7,0.9l0.4,1l0.1,1v0.3l0,0.3l-0.1,0.3l-0.1,0.2l-0.2,0.2l-0.1,0.2l-0.3,0.1l-0.4,0.1
	c-0.6,0.1-1.2-0.1-1.7-0.7l-0.3-0.3l-0.6,0.1c-0.5,0.1-1,0.3-1.6,0.4l0.6,0.3l0.6,0.5l0.6,0.7l0.4,0.8l0.3,0.8l0.1,0.8v0.3l0,0.3
	l-0.1,0.2l-0.1,0.2l-0.1,0.1l-0.5,0.4l-0.4,0.1c-0.5,0-1.1-0.2-1.7-0.7l-0.3-0.3c-0.6,0.2-1.2,0.3-1.8,0.3l-0.7,0
	c2.9,0.9,5.3,1.2,7,0.8v-0.2l-0.1-0.4v-0.3l0.1-0.3v-0.1l0-0.2l0.1-0.3l0.1-0.1l-0.1,0.1l-0.1,0.3l0,0.2v0.1l-0.1,0.3v0.3l0.1,0.4
	v0.2c0.3-0.1,0.7-0.2,0.9-0.3l0.1,0l0.1-0.3l0.4-0.1l0.4,0.2l0.4,0.4l0.3,0.6l0.1,0.4v0.2l-0.1,0.2l0,0.1l-0.1,0.1l-0.2,0.1
	l-0.3-0.1l-0.4,0.1c-0.2,0.1-0.5,0.2-0.7,0.3l0.4,0.4c0.5,0.5,1.1,0.7,1.8,0.7l0.7-0.3l0.4-0.6l0.1-0.2l0-0.3v-0.3l-0.2-1l-0.4-1.1
	l-0.7-0.9l-0.8-0.7l-0.8-0.3l-0.7,0l-0.2,0.1l0.2-0.1l0.7,0l0.8,0.3l0.8,0.7l0.7,0.9l0.4,1.1l0.2,1v0.3l0,0.3l-0.1,0.2l-0.4,0.6
	l-0.7,0.3c-0.6,0-1.2-0.2-1.8-0.7l-0.4-0.4c-1.1,0.3-2.4,0.5-3.8,0.4l8,4.5l0-6.8l-0.1-0.4l0-0.5l-0.3-1.5l-8.6-20.5l-1.3-2.4
	l-0.7-0.4l-0.5-0.1l-1.1,0l-0.6-0.1l-0.6-0.3l-1.6-0.9l1.6,0.9l-0.5-0.4l-0.8-1.2l-0.3-0.6l-0.5-0.4l-0.5-0.2H127.3 M123,121.9
	l-0.3-0.4l-0.3-0.5l-0.1-0.5l-0.5-0.8h-0.1l-0.7-0.2l-1,0.5l-0.9,1l-0.6,1.3l-0.2,1.3l0.4,1l0.8,0.3l0.5,0l0.4,0.1l0.4,0.3l0.3,0.4
	l0.4,1l0.5,0.8l0.1,0.1l0.7,0.2l1-0.5l0.9-1l0.6-1.3l0.1-1.3l-0.3-0.9l-0.7-0.3l0.7,0.3l0.3,0.9l-0.1,1.3l-0.6,1.3l-0.9,1l-1,0.5
	l-0.7-0.2l-0.1-0.1l-0.5-0.3l0.5,0.3l-0.5-0.8l-0.4-1l-0.3-0.4l-0.4-0.3l-0.4-0.1l-0.5,0l-0.8-0.3l-0.4-0.2l0.4,0.2l-0.4-1l0.2-1.3
	l0.6-1.3l0.9-1l1-0.5l0.7,0.2l-0.6-0.4l0.6,0.4h0.1l0.5,0.8l0.1,0.5l0.3,0.5L123,121.9l0.4,0.3l0.4,0.1l0.3,0l-0.3,0l-0.4-0.1
	L123,121.9 M120,121.6l0.3-0.3l0.3-0.1l0.3,0.1l0.1,0.4l-0.1,0.4l-0.3,0.4l-0.4,0.3L120,123l-0.3-0.1l-0.1-0.4l0.1-0.4L120,121.6
	 M123.9,124.1l0.3,0.1l0.1,0.4l0,0.5l-0.6,0.7l-0.4,0.1l-0.2-0.1l-0.1-0.4l0.1-0.5l0.2-0.4l0.3-0.3L123.9,124.1 M132.7,125.6
	l-0.3,0.4l-0.1,0.1l-0.6,1l-0.3,0.8l-0.1,0.9l0.1,0.7l0.1,0.1l0.3,0.3l0.5,0.2l-0.5-0.2l0,0l-0.2-0.3l-0.1-0.1l-0.1-0.7l0.1-0.9
	l0.3-0.8l0.6-1l0.1-0.1L132.7,125.6 M133,127.2l0.2-0.2l0.3-0.1l0.8,0.1l1.3,0.7v0.9l-0.6-0.3l-0.4-0.1l-1.2,0.3H133l-0.3-0.2v-0.6
	l0.1-0.3L133,127.2 M132.9,125.3l2-2.9L132.9,125.3 M107.3,123.4l-0.5-0.3c-1.4-0.8-2.1-1.3-2.2-1.3c0.1,0,0.8,0.5,2.2,1.3
	L107.3,123.4l2.3,1l1.3,0.1l0.4-0.1l-0.4,0.1l-1.3-0.1L107.3,123.4 M133.2,127l-0.2,0.2l-0.2,0.3l-0.1,0.3v0.6l0.3,0.2h0.5l1.2-0.3
	l0.4,0.1l0.6,0.3v-0.9l-1.3-0.7l-0.8-0.1L133.2,127 M131.8,130.1l-0.3-0.3L131.8,130.1L131.8,130.1 M124.1,124.2l-0.3-0.1l-0.4,0.1
	l-0.3,0.3l-0.2,0.4l-0.1,0.5l0.1,0.4l0.2,0.1l0.4-0.1l0.6-0.7l0-0.5L124.1,124.2 M120.3,121.3l-0.3,0.3l-0.3,0.4l-0.1,0.4l0.1,0.4
	l0.3,0.1l0.3-0.1l0.4-0.3l0.3-0.4l0.1-0.4l-0.1-0.4l-0.3-0.1L120.3,121.3 M121.6,112.7l-0.8-0.1c-0.8-0.3-1.3-0.5-1.5-0.6
	c-0.4-0.3-0.7-0.7-0.9-1.4l-0.1-1.1v0l0-0.1l-0.3-0.5l-0.3-0.3l-0.4-0.1l-0.5,0l-1.3,0.7l-0.6,0.7l-0.5,0.9l-0.3,0.9l-0.3,2.5
	l-1.9,4.7l11-6.4L121.6,112.7 M115.4,112.1l-0.1-0.4l0.1-0.5l0.3-0.4l0.4-0.3l0.3-0.1l0.3,0.1l0.1,0.3l-0.1,0.5l-0.3,0.4l-0.3,0.3
	l-0.4,0.1L115.4,112.1 M115.4,111.8l0.1,0.4l0.3,0.1l0.4-0.1l0.3-0.3l0.3-0.4l0.1-0.5l-0.1-0.3l-0.3-0.1l-0.3,0.1l-0.4,0.3l-0.3,0.4
	L115.4,111.8 M120.3,101.7l-0.2-1.2l-0.6-0.9l-0.7-0.6l0.6,1.5l0.1,0.6v0.6l-0.1,0.6l-0.5,1.7l-0.2,0.4l-0.7,1.2l-1.2,1.3l-0.3,0.1
	l-0.3,0.2l-1.2,0.4l-0.3,0l-0.6,0.3l-0.3,0.3l-0.6,0.7l-0.7,0.6l-0.8,0.4l-2,1.2l-0.8,0.5l-0.3,0.2l-0.4,0.1l-0.2,0h0l0,0.5h0.8
	l0.4-0.1l0.9-0.4l3.3-1.9l0.9-0.4l1.1-0.3l1.3-0.7l2.1-2.4l0.9-1.5l0.6-1.5L120.3,101.7 M156.4,146.7l0.3-0.1l-0.3-0.3l-0.4,0.6
	L156.4,146.7 M163.4,140.8l0.2,0.9l0,1.2l-0.4,1.3l-1.5,2.1l-1,0.7l-1.1,0.6l-1.1,0.3l-1.2,0.1l-1.8-0.3l0.3,0.1
	c1.9,1,3.9,0.6,5.9-1.1c2-1.7,2.6-3.5,2-5.6L163.4,140.8 M164.2,141.8l-0.3-0.4l0.2,1l-0.1,1.2l-0.7,1.8L163,146l-0.8,0.9
	c-0.9,0.8-1.8,1.3-2.9,1.6c-1.2,0.3-2.3,0.3-3.2-0.3l-0.1-0.1c0.5,0.4,1.1,0.7,1.8,0.7c0.9,0.1,1.7,0,2.5-0.3l0.9-0.4l1.2-0.8l1-1
	l0.6-1.1l0.4-1.1l0.1-1.2L164.2,141.8 M163.9,141.2l-0.3-0.3l0.3,0.5L163.9,141.2 M163.3,140.5l0,0.3l0.3,0.3c0.7,2,0,3.9-2,5.6
	c-2,1.7-4,2.1-5.9,1.1l-0.3-0.1c0.1,0.1,0.3,0.3,0.4,0.4l0.1,0.1c0.9,0.5,2,0.6,3.2,0.3c1.1-0.3,2-0.8,2.9-1.6l0.8-0.9l0.3-0.5
	l0.7-1.8l0.1-1.2l-0.2-1l-0.3-0.5l-0.4-0.6L163.3,140.5 M162.7,141.7l0.1-1.2l-0.2-1.1l-0.1,2.3l-0.4,1.1l-0.6,1.1l-1,1l-1.1,0.8
	l-1.3,0.5l-1.2,0.3l-0.2,0.2l-0.3,0.1l1.1-0.1l1.2-0.3l1.1-0.6l1-0.7l0.9-1l0.7-1.2L162.7,141.7 M161.8,142.1l0.4-1.2l0-1l-0.6,1.6
	l-0.9,1.5l0,0l-0.9,1l-1.1,0.8l-1.3,0.5l-0.4,0.6l1.8-0.7l1.2-0.8l0.9-1L161.8,142.1 M162.9,140.2l-0.4-0.9v0l0.2,1.1l-0.1,1.2
	l-0.4,1.2l-0.7,1.2l-0.9,1l-1,0.7l-1.1,0.6l-1.2,0.3l-1.1,0.1l-0.4,0.1l-0.1,0.1c1.9,0.4,3.6-0.1,5.3-1.6l0.8-0.9l0.6-1l0.4-1.1
	l0.1-1.1L162.9,140.2 M162.8,139.6l0.2,0.4l0,0.1l0.3,0.6l0-0.3l-0.1-0.2L162.8,139.6 M163,140.1l-0.2-0.4l-0.1-0.2l-0.1-0.1v0
	l0.4,0.9l0.1,1l-0.1,1.1l-0.4,1.1l-0.6,1l-0.8,0.9c-1.6,1.5-3.4,2-5.3,1.6l-0.2,0.3l0.7,0.2l1.2,0l1.3-0.3l1.2-0.6l1.1-0.8l0.9-1
	l1-1.9l0.1-1l0-1l-0.2-0.7L163,140.1 M160.3,142.4L160.3,142.4l0.7-1l0.2-0.5l-2.2,2.8L160.3,142.4 M160.5,142.4l0.2-0.4l0.1-0.1
	l0.2-0.4l-0.7,1l-0.1,0.1L160.5,142.4 M160.7,142l-0.2,0.4l-0.2,0.1l-1.2,1.2l-1.4,1.8l1.3-0.5l1.1-0.8l0.9-1l0,0l-0.4-0.3l0.4,0.3
	l0.9-1.5l0.6-1.6v-0.3l-1,1.2l-0.2,0.5l-0.2,0.4L160.7,142 M164.7,136.6l-0.3-0.4l-8.1,10.2l0.3,0.3l0.2-0.2l0.4-0.5l0.4-0.6
	l1.4-1.8l2.2-2.8l1-1.2L164.7,136.6 M164.7,136.6v-0.7l-0.3,0.3L164.7,136.6 M86.9,133l-0.1,0l-0.4-0.1L86,133l-0.1,0.6l0.1,0.7
	l0.4,0.7l0.6,0.4l0.5,0.1l0.4-0.2l0.1-0.3l0-0.3l-0.1-0.7l-0.4-0.7L86.9,133 M84.4,132.3l-0.3,0.5l-0.1,0.7l0.1,0.7l0.3,0.8l0.4,0.6
	l0.1,0.2l0.6,0.7l0.7,0.5l0.7,0.3l0.7-0.2l0.4-0.4l0.1-0.8l-0.1-0.7v0l-0.1,0.3l-0.4,0.2l-0.5-0.1l-0.6-0.4l-0.4-0.7l-0.1-0.7
	L86,133l0.4-0.2l0.4,0.1l-0.1-0.1l-0.6-0.5l-0.6-0.2h-0.6L84.4,132.3 M76.3,127.5l-0.2,0.5l0.2,0.7l0.4,0.7l0.5,0.4l0.5,0.1l0.4-0.2
	l0.1-0.4l0-0.2l-0.1-0.7l-0.4-0.7l-0.5-0.5l-0.1,0l-0.4-0.1L76.3,127.5 M75.7,126.5h-0.6c-0.7,0.3-1,0.9-0.8,1.8
	c0.1,0.7,0.4,1.3,0.7,1.8c0,0.1,0.1,0.1,0.1,0.2l0.6,0.7l0.6,0.5l0.7,0.3l0.7-0.2l0.4-0.5l0.1-0.8l-0.1-0.8l0-0.1l-0.1,0.4l-0.4,0.2
	l-0.5-0.1l-0.5-0.4l-0.4-0.7l-0.2-0.7l0.2-0.5l0.4-0.2l0.4,0.1l-0.1-0.1l-0.6-0.5L75.7,126.5 M187.1,77.7l0.3-0.1l0.6-0.4l-1.6-1
	l-0.1,0.6l0.2,0.7l0.1,0.1l0.2,0.1L187.1,77.7 M172.3,85.7l0.4,0.2l-0.3-0.2H172.3 M172.8,85.9L172.8,85.9L173,86L172.8,85.9
	 M179.9,53.5l-4.1-2l-4.4-1.1l1.9,1.6c1.5,1.3,3,3.5,4.7,6.4c1.9,3.4,2.7,5.9,2.3,7.4l-0.2,1.2v0.7l0.2,0.7l0.2,0.1l2,1.2l2.4-1.9
	l-2.4,1.9l0.8,4.1l0.4,0.4l0.3,0.6l0.1,0.7v0.9l-0.1,0.9l-0.3,0.9l0.1,0.6l0.1,2.6l5.7-3.2l-1.6-0.9l-0.6,0.4l-0.3,0.1l-0.3,0
	l-0.2-0.1l-0.1-0.1l-0.2-0.7l0.1-0.6l1.6,1l1.6,0.9l3.8,2.2l-0.8-6l-1.3-5.4l-2-4.9l-2.6-4.2l-3.2-3.5L179.9,53.5 M181.6,64.6
	l-0.1-0.2l-0.1-0.4l-0.1-0.2l0-0.3l-0.1-0.2l0.1,0.2l0,0.3l0.1,0.2l0.1,0.4L181.6,64.6 M185.6,71l-0.4-2L185.6,71 M178.4,51.6
	l-0.3-0.1l1.5,1L178.4,51.6 M169,46.2l0,0.3l8.1,4.4L169,46.2 M169,46.2l0-0.2L169,46.2L169,46.2 M166.5,49.9l-0.9,0.1l0.3,0.1h0.1
	l2.7,1.1l0.6-1L166.5,49.9 M152.5,56.7l-0.1,0.1l-0.7,1.3h0.3l0.9-0.1l0.4-0.2l0.2-0.4l-0.2-0.2l-0.3-0.1l-0.4-0.3L152.5,56.7
	 M155.5,54.6l-0.1-0.9l-1.8,3.7l-0.2,0.4l0.4-0.2l0.4-0.3l0.5-0.6l0.3-0.7L155.5,54.6 M156.8,39.2l-0.1,0.1l8.7,5.1l0.1-0.2
	L156.8,39.2 M154.7,37L154,37l-0.1,0.1H154.7 M153.2,39.8l-1.1-0.4l0,0.3l0.4,0.1h0.5L153.2,39.8 M152.1,39.6l-0.2,0.8l1.1,0l2,0.3
	l-1.6-0.9l-0.2-0.1l-0.2-0.1h-0.5L152.1,39.6 M151.8,40.4l-0.1,0.6l3,0.3l0.2-0.5l-2-0.3L151.8,40.4 M153.3,37.2l-0.2-0.1L153,37
	l-0.6-0.1l0,0.1l1,0.6l0.1-0.1L153.3,37.2 M153.1,37.1l0.2,0.1l0.2,0.1l-0.1,0.1l-0.1,0.2c0.1,0.1,0.7,0.5,1.9,1.1l0.3,0.1l-0.3-0.1
	c-1.1-0.6-1.8-1-1.9-1.1l0.1-0.2l-1-0.6l0.1,0.6l-0.5,1.9l1.1,0.4l0.2,0.1l1.6,0.9l-0.2,0.5l0.6,0.3l2.6,0.2l13.5,7.7l-0.3,0.9
	l-1.8-0.1l-0.6,1l-2.7-1.1h-0.1l-0.2,0.4l-0.2,0l0.2,0l0.2-0.4l-0.3-0.1l-1.1,0.1l0.8,0.4l-0.8-0.4l-0.4,0l-1.1,0.1l-0.4,0.3
	l-1.3,1.5l-0.7,1.2l-20.1,42.6l-0.3,0.9l-0.1,0.9l0,0.9l0.1,0.7l0.7,1.2l0.4,0.3l0.6,0.1h0.6l0.6-0.1l0.7-0.3l34-19.8l1.2-1.1
	l0.9-1.3l0.3-0.3l0.7-0.6l0.3-0.1l0.4,0.1l2,1.1l0.3-0.9l0.1-0.9v-0.9l-0.1-0.7l-0.3-0.6l-0.4-0.4l-3.4-2l-0.6-0.1l-0.7,0.1
	l-0.6,0.5l0.6-0.5l0.7-0.1L180,72l3.4,2l-0.8-4.1l-2-1.2l-1.4-0.8l-1.1-0.3h-1h1l1.1,0.3l1.4,0.8l-0.2-0.1l-0.2-0.7V67l0.2-1.2
	c0.3-1.5-0.4-4-2.3-7.4c-1.7-3-3.3-5.1-4.7-6.4l-1.9-1.6l-0.1-0.1l0.3-0.8l2.8,0.6l3.7,1.4l-1-0.6l-8.1-4.4l-0.4-0.1l0.4,0.1l0-0.3
	l-0.1-0.1l0-0.1l-0.2-1l-0.6-0.5l-1.4-0.5l-0.7-0.1l-0.5,0.1l-0.1,0.1l-0.1,0.2l-0.1,0.2c0.6,0.4,1.2,0.8,1.9,1.1l0.2,0.1l-0.2-0.1
	c-0.7-0.3-1.3-0.7-1.9-1.1l0.1-0.2l-8.7-5.1l0.1-0.1l0.1-0.3l-0.1-0.6c-0.1-0.2-0.3-0.4-0.7-0.7l-1.3-0.6h-0.9L153,37L153.1,37.1
	 M146.6,85.3l1.1-2.2l6.9-14.7l3.1-6.5l3.2-6.8l1-1.3l0.5-0.6l1.2-0.8l1.1-0.3L165,52l0.7,0.1h0.1l0.4,0.2l2.6,2.1l2.3,2.5l2,2.9
	l3,6.9l1,4v0.5l0,0.3v0.3l0,0.3v0.3l-0.7,2.1l-0.6,1l-1.5,1.6l-0.9,0.6l-24.7,14.4l-0.9,0.4l-0.9,0.1l-0.7-0.1l-0.5-0.4l-0.1,0
	l-0.4-0.7l-0.2-0.9l0-0.5l0-0.6l0.4-1.7L146.6,85.3 M157.5,41.2l-0.6-0.2L157.5,41.2 M179.8,70.8l0-0.3l0.1-0.1l0.4-0.5l-0.4,0.5
	l0.4,0.1L181,71l0.3,0.7l-0.1,0.2l0,0l0.5-0.4l-0.5,0.4l0,0l0.1-0.2L181,71l-0.7-0.5l0.3,0.3l0.4,0.7l0,0.3l-0.2,0.1l-0.3-0.1
	l-0.3-0.3l-0.3-0.3L179.8,70.8 M179.8,70.5l0,0.3l0.2,0.4l0.3,0.3l0.3,0.3l0.3,0.1l0.2-0.1l0-0.3l-0.4-0.7l-0.3-0.3l-0.4-0.1
	L179.8,70.5 M157.8,85.9l0-5.6l-0.2-0.8l-0.4-0.6l-0.6-0.3l-0.7-0.1l-0.8,0.2l-1.2,0.9l-0.4,7.4l-0.3,1.5L157.8,85.9 M163.6,80.8
	l-1-0.6l-0.1,3.1L163.6,80.8 M163.6,78.5l0.1,1.9l0.1-0.5v-0.7L163.6,78.5 M159.6,73.9l-0.4,0.3l-0.4,0.6l-0.3,0.6l-0.2,1.3l0.2,0.4
	l-0.1-0.9l0.4-1.3L159.6,73.9 M159.6,73.9L159.6,73.9l0.4-0.2L159.6,73.9 M160.6,73.2l0.2,0l0.7-0.2l-1.6-0.1l-1.9,2.4v2.5l0.7,0
	l-0.2-0.3v-0.2l-0.2-0.4l-0.1-0.1l0-0.7l0.2-0.7l0.4-0.8l0.6-0.6l0.6-0.5l-0.6,0.5l-0.6,0.6l-0.4,0.8l-0.2,0.7l0,0.7l0.1,0.1
	l0.2-1.3l0.3-0.6l0.4-0.6l0.4-0.3l0-0.1l0.4-0.2L160.6,73.2 M161.5,72.9h0.3l-0.9-0.5l-0.6-0.1h-0.1l-0.2,0h-1l0.9,0.5L161.5,72.9
	 M157.1,75l-0.1,0.2v0.4l0.1,0.2l0,0.9l0,0.1v0.3l0.9,0.5v-2.5l-0.9-0.6l0,0.3V75 M156.5,73.2c-0.1-0.8-0.6-2.1-1.6-4.1l-0.3-0.6
	l-6.9,14.7l6.5-5.1l0.7-0.7C156.1,75.8,156.6,74.4,156.5,73.2 M171.5,73.3l0.3-0.8l0.1-0.9l-0.1-0.5l-0.1-0.4l-0.2-0.3l-3.4-1.9
	l0,3.6l3,1.7L171.5,73.3 M167.7,65.1L167.7,65.1l0,0.4l0.4,0.2l0-0.1L167.7,65.1 M166.5,60.6l0.7,3.5l0.1,0.7l8.9,5.1v0l-1.2-4.3
	L166.5,60.6 M167.8,63.5L167.8,63.5l0.4,0l0.3,0.3l0.5,0.7l0,0.3l-0.2,0.1l-0.3-0.1l-0.3-0.2l-0.4-0.8v-0.3L167.8,63.5l0.1-0.3
	l0.3-0.3l-0.3,0.3l0.3,0.2l0.3,0.3l0.3,0.3l0.3,0.7l-0.1,0.2l0.4-0.4l-0.4,0.4l0,0h0l0.1,0l0.1-0.2l-0.3-0.7l-0.3-0.3l-0.3-0.3
	l-0.3-0.2L167.8,63.5 M169,65L169,65L169,65L169,65 M167.9,63.5L167.9,63.5l-0.1,0.1v0.3l0.4,0.8l0.3,0.2l0.3,0.1l0.2-0.1l0-0.3
	l-0.5-0.7l-0.3-0.3L167.9,63.5 M165,52l-0.3,0.1l2.2,8.1l1.9-1.5l-1.9,1.5l-0.5,0.4l8.5,4.9l-0.3-1l-2.9-5.9l-3.8-4.7l-2.3-1.8
	L165,52 M145.9,92l0.5,0.4l0.7,0.1l0.9-0.1l0.9-0.4l24.7-14.4l0.9-0.6l1.5-1.6l0.6-1l0.7-2.1V72l0-0.3v-0.3l0-0.3v-0.5l-1-4l-3-6.9
	l-2-2.9l-2.3-2.5l-2.6-2.1l-0.4-0.2h-0.1l2.3,1.8l3.8,4.7l2.9,5.9l0.3,1l1.2,4.3v0l0.1,0.9l0,1l-0.3,1.4l-0.4,1l-1.3,1.9l-1.6,1.3
	l-10.2,5.9l-4.7,2.7l-4.4,2.6l-6.1,3.5l-0.7,0.1h-0.3L145.9,92 M145.6,87.6l-0.4,1.7l0,0.6l0,0.5l0.2,0.9l0.4,0.7l0.1,0l0.3,0.1h0.3
	l0.7-0.1l6.1-3.5l0.3-1.5l0.4-7.4l-7.4,5.8L145.6,87.6 M147.7,83.1l-1.1,2.2l7.4-5.8l1.2-0.9l0.8-0.2l0.7,0.1l0.6,0.3l0.4,0.6
	l0.2,0.8l0,5.6l4.7-2.7l0.1-3.1L159,78l-0.3-0.3l-0.7,0l-0.9-0.5v-0.3l0-0.1l0-0.9l-0.1-0.2v-0.4l0.1-0.2v-0.2l0-0.3l0.4-0.5
	l-0.4,0.5l0.9,0.6l1.9-2.4l-0.9-0.5l-0.6,0.6l-0.1,0.2l-0.2,0.2l-0.4,0.5l0.4-0.5l0.2-0.2l0.1-0.2l0.6-0.6h1l0.2,0h0.1l0.6,0.1
	l0.9,0.5h-0.3l-0.7,0.2l-0.2,0l-0.5,0.5l-0.5,0.3l-0.7,1l-0.4,1.3l0.1,0.9v0.2l0.2,0.3L159,78l3.5,2.1l1,0.6l-1.2,2.4l10.2-5.9
	l1.6-1.3l1.3-1.9l0.4-1l0.3-1.4l0-1l-0.1-0.9l-8.9-5.1l0.4,0.3l0,0l0.3,0.5l0,0.1l0.1,0.5l0.1,0.7l-0.1,1.6l3.4,1.9l0.2,0.3l0.1,0.4
	l0.1,0.5l-0.1,0.9l-0.3,0.8l-0.4,0.6l-1,1.2l-0.8,0.6l-0.8,0.4l-0.8,0.2l-2,0.1l-0.9,0.8l-0.4,0.5l-0.2,0.1l-0.2,0.4l-0.2,0.2
	l-0.1,0.1l-0.2,0.2l0.2,0.7v0.7l-0.1,0.5l-0.1-1.9l0.2-0.2l0.1-0.1l0.2-0.2l0.2-0.4l0.2-0.1l0.4-0.5l0.9-0.8l0.9-0.3l-4.6-2.8
	l-0.4-2.2l-1.9-5.8l-1.9-3.3l-3.1,6.5l0.3,0.6c1,2,1.5,3.4,1.6,4.1c0.1,1.3-0.4,2.6-1.6,4.1l-0.7,0.7L147.7,83.1 M186.9,58.7
	l-3.4-3.6l-4-2.6l-1.5-1l-3.7-1.4l-2.8-0.6l-0.3,0.8l0.1,0.1l4.4,1.1l4.1,2l3.7,2.8l3.2,3.5l2.6,4.2l2,4.9l1.3,5.4l0.8,6l0.7-0.4
	l-0.8-6.2l-1.5-5.6l-2.1-5.1L186.9,58.7 M122.6,81.2l1.6-1.2l1.9-2.4L122.6,81.2 M120.3,82.4l0.3,0.2l0.3,0.2l-0.3-0.3L120.3,82.4
	 M132.6,69.1l-0.8,1l-0.4,1.2l-0.1,0.6V72l0.9-1.2l0.6-1.2l0.2-0.9L132.6,69.1 M132.1,66c0,0,0.1-0.1,0.1-0.1L132.1,66L132.1,66
	 M113.9,87.8l-1.1,1.6c-0.5,0.8-1,1.7-1.5,2.6l6.7,6l0.6,0.5c0,0,0.1,0.1,0.2,0.2c0,0,0.1,0.1,0.2,0.2l0.7,0.6l0.6,0.9l0.2,1.2
	l-0.1,1.5l-0.6,1.5l-0.9,1.5l-2.1,2.4l0.5,0l0.4,0.1l0.3,0.3l0.3,0.5l0,0.1v0l0.1,1.1c0.2,0.7,0.5,1.1,0.9,1.4
	c0.2,0.1,0.8,0.3,1.5,0.6l0.8,0.1l1.1-0.1l4.3-2.6l0.6-0.6l1.2-1.5l0.9-1.9l0.3-1.8l-0.1-1.6l-0.3-0.6l-0.4-0.4L113.9,87.8
	 M111.3,92c0,0.1-0.1,0.1-0.1,0.2l4.1,3.6l2.6,2.3v-0.1L111.3,92 M119.3,85.6l-0.6,1.6l-0.3,1.6l0.1,1.3l0.6,1l10.7,9.7l0.4,0.3
	l0.6,0.2l0.7,0l0.7-0.2l1.3-0.9l0.5-0.4l1-0.6l2.2-0.9l1.4-1l1.2-1.5l14.6-31l0.1-1.3c0.1-1.9-0.6-2.9-2.2-3.1
	c-2.2,0.1-3.7,0.2-4.7,0.3l-5.4,1.3c-1.5,0.5-2.6,0.9-3.4,1.3c-1.3,0.5-2.4,1.1-3.1,1.8l-0.9,0.7l-0.3,0.4l-1.1,2l0.2,0l-0.6,0.7
	l-0.2,0.9l-0.6,1.2l-0.9,1.2v0.4l-1.5,1.5l-4.2,5.7l-0.9,1l-3.1,2.3l-1.2,1.1L119.3,85.6 M146.7,63.8
	C146.7,63.8,146.7,63.8,146.7,63.8c1.4,0.4,1.8,1.7,1.4,4.1l-11.5,24.7l-0.8,1.4l-1,1.2l-1.1,0.8l-1.1,0.4h-1l-0.7-0.4h-0.1
	l-3.1-2.8l-1.2-1l-2.9-2.6l-0.5-0.7l-0.3-1l0-1.2l0.3-1.3l0.6-1.3l0.8-1.2l8.7-11.4l3.1-4.2l1-0.9l0.9-0.6l-0.9,0.6v0.3l0,0.3
	l-0.1,0.4l-0.2,0.3l-0.5,0.4l0.5-0.4l0.2-0.3l0.1-0.4l0-0.3v-0.3l-1,0.9l-3.1,4.2l-6.7,20.8l1.2,1l4.5,2.6l0.5-0.2l1.3-1l0.7-0.9
	l-1.3,0.1l-1.5,0.3l-0.6,0.3l-0.6,0.3l0.6-0.3l0.8-0.4l2.1-0.4l0.5,0.1h0.1l0.6-0.9l0.1-0.3l0.1,0l-0.7-0.1l-0.7,0l-1.5,0.3l-2.5,1
	l-0.8-0.1l-0.6-0.4l-0.3-0.8l0-1l0.2-1.2l0.5-1.6l0-0.1l2.9-8.9l0.1-0.4l0.4-1.1l0.4-1.4l0.4-1.3l0.8-2.2l0,0l0.2-0.4l0.2-0.4
	l0.6-0.7v0l0.6-0.4l0.7-0.6l0.1-0.1l0.2,0l0.2-0.1l0.3-0.1l0.2,0l0-0.1l0.3-0.9l0.1-0.5l0.3-1.1l0.1-0.4l0.2-0.9l0.2-0.6l1.2-0.4
	l0.4-0.1l0.2-0.1l1.5-0.4c0.2,0,0.5-0.1,0.7-0.1C144.7,63.9,146,63.7,146.7,63.8 M136.8,78.4l-0.7,0.1h0h-0.1l0.7,0.1l0.3-0.2
	L136.8,78.4L136.8,78.4 M137.2,78.3L137.2,78.3l0.1-0.1L137.2,78.3 M133.4,93.7l1.3-0.1l-0.5-0.1l-2.1,0.4l-0.8,0.4l0.6-0.3
	L133.4,93.7 M127.6,93.2l3.1,2.8h0.1l0.4,0.1l0.9-0.2L127.6,93.2 M129.4,88.6l-0.3-0.2l0,0.1L129.4,88.6 M123.7,84l-0.6,1.3
	l-0.3,1.3l0,1.2l0.3,1l0.5,0.7l2.9,2.6l6.7-20.8l-8.7,11.4L123.7,84 M134.2,81.1l0.3,0.1c0.6,0.1,1.2,0.2,1.6,0.1
	c0.1,0,0.2,0,0.3-0.1l-0.3,0h-0.6l-2.5-0.7l0.2,0.1L134.2,81.1 M133,80.5l0.1,0.1l2.5,0.7h0.6l0.3,0c0,0,0.1-0.1,0.1-0.1h-0.6
	l-1.1-0.1l-2-0.7L133,80.5 M132.8,80.3l0-0.1l-0.5,1.9l0.5-1.9l-0.5-0.3l-0.3-0.4l-2.9,8.9l0.3,0.2l0.9,0.2l0.9,0l0.8-0.3l0.4-0.3
	l0.6-0.6l0.1-0.2l0.4-0.4l1.1-1.7l0.8-2.1h0.1l0.6-1.9c-0.4,0-1,0-1.6-0.1l-0.3-0.1l-0.5,1.9l0.5-1.9l-0.9-0.4l-0.2-0.1l-0.1-0.1
	L132.8,80.3 M132.9,81.6l-0.2,0.9l0.3-0.1l0.3-0.9l0.2,0.2v0.2l-0.3,0.9l0.3-0.9v-0.2l-0.2-0.2l-0.3,0.9l-0.3,0.1L132.9,81.6
	 M134.8,81.9h0.1l0.2,0l-0.1,0.3v0.1V83l0-0.5h-0.6l-0.2,0.6l0.2-0.6l0-0.2v0l0.1-0.2L134.8,81.9 M135.1,82.4l0,0.1l0,0.5V82.4
	 M134.5,82.3l0,0.2h0.6l0-0.1L134.5,82.3 M134.9,81.9h-0.1l-0.2,0.1l-0.1,0.2v0l0.6,0.1v-0.1l0.1-0.3L134.9,81.9 M133.5,77.4l0-0.3
	l-0.2,0.8l0.4,0.3l0.8,0.2l1.5,0.1h0.1l-1.6-0.4l-0.6-0.3L133.5,77.4 M133.7,77.2l0.1,0.3l0.1,0.2l0.1-0.3
	C134,77.3,133.9,77.3,133.7,77.2 M134.1,76.4L134.1,76.4l0.1,0L134.1,76.4 M133.1,77.8L133.1,77.8l0.1,0.1L133.1,77.8L133.1,77.8
	 M134.2,72.9h0.6l-0.1-0.1l-0.3-0.2L134.2,72.9 M134.3,73.5L134.3,73.5L134.3,73.5L134.3,73.5 M137.3,77.9l-0.1-0.2
	c-0.1,0-0.3,0-0.4,0l-0.1,0.4v0.2l0.2,0.1l0.1,0l0.2-0.1l0.1-0.1L137.3,77.9L137.3,77.9 M137.2,77.7L137.2,77.7l0.1,0.2L137.2,77.7
	 M137,77.1l0.3,0l-0.3-0.3l-0.1,0.3H137 M137.2,76.3l-0.1,0.6l0.3,0.3l0.2-0.1l0.2-0.5l-0.1-0.2L137.2,76.3 M137.8,74l-0.1,0.3
	c0.1,0,0.2-0.1,0.3-0.1L137.8,74 M138.3,71.4l0.4-0.1l0.2-0.8c-0.1,0-0.3,0-0.5,0L138.3,71.4 M135.4,72.4l-0.1-0.3l-0.3-0.1
	l-0.2,0.1l0.1,0.1L135.4,72.4 M135.4,72l0-0.1v0.3L135.4,72 M136.6,70.3l-0.1,0.1l-0.3,0.8l0.3,0l0.3-1L136.6,70.3 M136.5,70.4
	l-0.7,0.6l0.4,0.3h0L136.5,70.4 M137.9,70.5L137.9,70.5l-0.3,0.9h0.7l0.1-0.9C138.3,70.5,138.1,70.5,137.9,70.5 M137.8,70.5l-0.2,0
	l-0.2,0.9l0.3,0L137.8,70.5L137.8,70.5 M137.5,70.4l-0.5-0.2l-0.2,0.1l-0.3,1l0.7,0.1L137.5,70.4 M138,69.9l0.2-0.8
	c-0.1,0-0.2-0.1-0.4-0.1l-0.3,0.9H138 M138.9,69c-0.2,0-0.4,0-0.7,0.1l-0.2,0.8h0.7L138.9,69 M139.8,70.6l0-0.5
	c-0.1,0-0.1,0.1-0.2,0.1L139.8,70.6 M139.2,69.8l0.2-0.9c-0.1,0-0.3,0-0.5,0l-0.2,0.9h0.3L139.2,69.8 M142.3,69.4l-0.6,0l-0.2,0.1
	l-1.2-0.7l0,0.3l-0.2-0.3c-0.2,0.1-0.4,0.1-0.6,0.2l0.2,0.2l-0.2-0.2c0,0,0,0-0.1,0l-0.2,0.9l0.4-0.1l0.1-0.2l-0.1,0.2l-0.4,0.1
	l-0.2,0.1h-0.3H138h-0.4l0,0.1l-0.2,0l-0.3,0.1l0.5,0.2l0.2,0h0.1h0c0.2,0,0.4,0,0.6,0c0.2,0,0.3,0,0.5,0c0,0,0,0,0.1,0
	c0.1,0,0.2,0,0.3,0c0.1,0,0.2-0.1,0.3-0.1c0.1,0,0.1-0.1,0.2-0.1c0.2-0.2,0.3-0.4,0.4-0.7c0,0.3-0.1,0.5-0.4,0.7l0,0.5l-0.2-0.3
	c-0.1,0-0.2,0.1-0.3,0.1c-0.1,0-0.2,0-0.3,0l0.2,0.2l-0.2-0.2c0,0,0,0-0.1,0l-0.2,0.8l0.1,0l0.3-0.1l-0.3,0.1l-0.1,0l-0.4,0.1h-0.7
	l-0.3,0l-0.7-0.1l-0.3,0h0l-0.4-0.3l-0.6,0.4v0l0.6,0.3l0.3,0.1h0.1l0,0.4l0.2,0.6l0.2,0l0.3-0.4l0.1-0.4l-0.1,0.4l-0.3,0.4l0.8,0.1
	h0.3l0.8-0.1l0.3-0.1l-0.3,0.1l-0.8,0.1h-0.3l-0.8-0.1l-0.2,0l-1.2-0.3l-0.6-0.2l-0.1-0.1l0.2-0.1l0.3,0.1l0.1,0.3l1.2,0.3l-0.2-0.6
	l0-0.4h-0.1l0,0.3l-0.3,0.4v-0.1l-0.2-0.6l-0.1-0.1l0,0.3l0,0.1l0,0.1v-0.3l0-0.3l0.1,0.1l0.2,0.6v0.1l0.3-0.4l0-0.3l-0.3-0.1
	l-0.6-0.3l-0.6,0.7l-0.2,0.4l0.3,0.2l0.1,0.1h0.3l1.4,0.4l-1.4-0.4l-0.2,0.9l0.6,0.2l1.5,0.3l0.4,0c0.1,0,0.2,0,0.3,0l0.1-0.3
	l0.1-0.6l-0.9,0l-0.1-0.2l0.1,0.2l0.9,0l0.4-0.1l0.3-0.1l0.2-0.1l-0.2,0.1l-0.3,0.1l0.1,0.2l-0.1-0.2l-0.4,0.1l-0.1,0.6l0.2,0.2
	c0.3-0.1,0.5-0.2,0.6-0.3c0,0.1-0.2,0.3-0.6,0.3c-0.1,0-0.2,0-0.3,0.1c-0.1,0-0.2,0-0.3,0l-0.4,0l-1.5-0.3l-0.6-0.2l-0.1,0l-0.3-0.1
	l-0.2-0.2l0,0h0v0h0.5h-0.5l0.2,0.2l0.3,0.1l0.1,0l0.2-0.9h-0.3h-0.6l0,0l-0.8,2.2c0.1,0.2,0.4,0.4,0.9,0.6c0,0,0.1,0,0.2,0.1
	c0.1,0,0.2,0,0.3,0.1l1.1,0.2l-1.1-0.2c-0.1,0-0.2,0-0.3-0.1l-0.2,0.9l0.5,0.1l1.6,0.2l0.6,0l0.1-0.3l0.1-0.6h-0.8h0.8l0.4,0h0
	l0.3-0.1l-0.3,0.1h0l0.1,0.2l-0.2,0.5l-0.2,0.1l-0.3,0h-0.1l-0.6,0l-1.6-0.2l-0.5-0.1l-0.2-0.1l-0.3-0.2l0,0l0.3-0.1h0.1l0.1,0
	l-0.2,0l-0.3,0.1l0,0l0.3,0.2l0.2,0.1l0.2-0.9c-0.1,0-0.1,0-0.2-0.1h-0.9h0.9c-0.4-0.2-0.7-0.4-0.9-0.6l-0.4,1.3
	c0,0.2,0.3,0.4,0.7,0.6c0,0,0,0,0.1,0c0.1,0.1,0.2,0.1,0.3,0.1c0.3,0.1,0.5,0.1,0.6,0.1c-0.1,0-0.3,0-0.6-0.1l-0.1,0.3l0.7,0.3
	l0.7,0.2l1.2,0.1l0.1,0v-0.2l0.1-0.4c-0.2,0-0.5,0-0.7,0c0.3,0,0.5,0,0.7,0c0.1,0,0.3,0,0.4,0h0c0.6-0.1,1-0.3,1.2-0.7l0-0.4l0,0.4
	c-0.2,0.4-0.6,0.6-1.2,0.7l0.1,0.2l0,0.1v0.2l-0.1,0.1h0l-0.2,0.1l-0.3,0.2l-0.7-0.1l-1.5-0.1l-0.8-0.2l-0.4-0.3v0l-0.1,0l-0.1-0.1
	h0.1l0.1,0.1v0l0.2-0.8l0,0.3l0.3,0.3l0.6,0.3l1.6,0.4h0l0.7-0.1h0l-0.2-0.1l-0.1,0l-1.2-0.1l-0.7-0.2l-0.7-0.3l-0.1-0.2l-0.1-0.3
	c0,0,0,0-0.1,0c-0.4-0.2-0.7-0.4-0.7-0.6l-0.4,1.4c0.1,0.2,0.3,0.4,0.6,0.6c0.1,0,0.2,0.1,0.3,0.1l0.6,0.2l0.3,0l0.4,0.1l0.4,0.1
	l-0.4-0.1l-0.4-0.1l-0.3,0l-0.6-0.2c-0.1,0-0.2-0.1-0.3-0.1l-0.2,0.6l0.3,0.3l0.2,0.1l1.5,0.4l0.9,0.1l0.6,0l0.3-0.1l0.2-0.1
	l0.2-0.7c-0.4,0.1-0.9,0.1-1.4,0.1c0.5,0,1,0,1.4-0.1c0.2-0.1,0.4-0.2,0.6-0.3c-0.2,0.1-0.4,0.2-0.6,0.3l-0.2,0.7l-0.2,0.1l-0.3,0.1
	l-0.6,0l-0.9-0.1l-1.5-0.4l-0.2-0.1l-0.3-0.3l0.2-0.6c-0.3-0.2-0.5-0.4-0.6-0.6l-0.4,1.1l0.3,0.4l0.6,0.4l0.9,0.4l1,0.3l1,0.1h0.3
	l0.5-0.3c0.3,0,0.6-0.2,0.7-0.6l0.1-0.4l-0.1,0.4c-0.1,0.4-0.4,0.6-0.7,0.6l-0.5,0.3l1.3-0.1l0.1-0.3l-0.1,0.3l-1.3,0.1H136l-1-0.1
	l-1-0.3l-0.9-0.4l-0.6-0.4l-0.3-0.4l-0.1,0.4l0.3,0.4l0.5,0.3l0,0.1l2,0.7l1.1,0.1h0.6l0.5-0.1l-0.5,0.1c-0.1,0-0.1,0-0.1,0.1
	l-0.5,1.6l0.5-1.6c-0.1,0-0.2,0-0.3,0.1l-0.6,1.9h-0.1l-0.8,2.1l-1.1,1.7l-0.4,0.4l-0.1,0.2l-0.6,0.6l-0.4,0.3l-0.8,0.3l-0.9,0
	l-0.9-0.2l-0.4-0.1l-0.5,1.6l-0.2,1.2l0,1l0.3,0.8l0.6,0.4l0.8,0.1l2.5-1l1.5-0.3l0.7,0l0.7,0.1l0.1-0.2l6.6-14.2l1.1-5.7l0.1-0.9
	l-0.1-0.7l-0.3-0.6l-0.4-0.4L142.3,69.4 M139.1,73.1l0.2-0.1l0.1-0.1l0.1-0.4v-0.3v0.3l-0.1,0.4l-0.1,0.1L139.1,73.1 M139,71.8
	l0.3-0.2l0.2,0l-0.1,0.3l0.1-0.3l-0.2,0L139,71.8l-0.3,0l0.1,0.3l-0.1-0.3l-0.1,0v0.2l-0.1,0l-0.4,0.4v-0.1l0.1-0.1l0.1-0.4
	l-0.3,0.4l-0.7,0.4l0.2-0.9l0.3,0l0.8,0l0.1,0L139,71.8 M136.6,71.8l0.3,0L136.6,71.8 M138.5,74.6l0.2-0.1L138.5,74.6 M137.7,75.7
	l-0.4,0l-0.3,0.1h-0.3l-1.9-0.3l-0.4-0.1l-0.4-0.2l-0.1-0.1l0.1,0.1l0.4-0.1l-0.4,0.1l0.4,0.2l0.4,0.1l-0.2-0.1l0.2-0.9l-0.1,0H134
	h0.7l-0.1,0l-0.3-0.1l-0.1-0.1l0.1,0.1l0.3,0.1l0.1,0l0.1,0l0.6,0.2l1.4,0.3h0.7l0.4-0.1l0.4,0l-0.4,0l0.2,0.3l-0.2-0.3l-0.4,0.1
	l-0.1,0.6L137.7,75.7L137.7,75.7l0.4-0.3L137.7,75.7L137.7,75.7 M138.8,75.4v-0.3V75.4 M135.2,77.7l0.3,0L135.2,77.7 M138.2,76.1
	l0.1,0.2L138.2,76.1 M137.9,78.4l0.1-0.1V78v0.3L137.9,78.4l-0.1,0.3L137.9,78.4 M137.3,75.7l0.1-0.3l0.1-0.6h-0.7l-1.4-0.3
	l-0.6-0.2l-0.2,0.9l0.2,0.1l1.9,0.3h0.3L137.3,75.7 M137.4,75.4l-0.1,0.3l0.4,0L137.4,75.4 M138.6,71.9l-0.1,0.2l0.1,0V71.9
	 M138.5,72.1l0.1-0.2l-0.8,0l-0.3,0l-0.2,0.9l0.7-0.4l0.3-0.4l-0.1,0.4l-0.1,0.1v0.1L138.5,72.1 M141.7,69.4h-0.2l0,0.1L141.7,69.4
	 M140.2,68.7c-0.1,0-0.1,0-0.1,0.1l0.2,0.3l0-0.3L140.2,68.7 M139.7,67.6c-0.1,0-0.3,0-0.4,0l-0.2,0.9h0.2l0.3-0.1L139.7,67.6
	 M139.8,66.1c-0.3,0-0.6,0-0.9,0l-0.3,0.9h0.5c0,0,0.1,0,0.2,0L139.8,66.1 M140.1,66.1c-0.1,0-0.2,0-0.3,0l-0.4,0.9
	c0.1,0,0.2,0,0.4,0L140.1,66.1 M139.4,65.6h0.3c0,0,0.1,0,0.2,0l0.1-0.4l-1.2,0.4L139.4,65.6 M140.4,65l-0.4,0.1l-0.1,0.4
	c0.1,0,0.2,0,0.4,0L140.4,65 M138.6,67.6l-0.3,0.9h0.7l0.2-0.9c-0.1,0-0.2,0-0.3,0H138.6 M138.5,67.6l-0.2-0.2l-0.3,1.1h0.4l0.3-0.9
	H138.5 M138.3,67l0.4,0l0.3-0.9l-0.4,0L138.3,67 M138.7,65.5l-0.2,0.6l0.4,0c0.2,0,0.5,0.1,0.9,0c0.1,0,0.2,0,0.3,0c0,0,0,0,0.1,0
	c0,0,0.1,0,0.2-0.1c0.7-0.1,1-0.5,0.9-0.9c0,0.5-0.3,0.8-0.9,0.9c-0.1,0-0.2,0.1-0.2,0.1l0.1,0.2l-0.1-0.2c0,0,0,0-0.1,0l-0.2,0.9
	c0.3-0.1,0.4-0.2,0.5-0.4c-0.1,0.2-0.2,0.3-0.5,0.4c-0.2,0-0.3,0-0.4,0c-0.1,0-0.2,0-0.2,0h-0.5l-0.4,0l-0.1,0.4l0.2,0.2h0.1h0.3
	c0.1,0,0.2,0,0.3,0c0.2,0,0.3,0,0.4,0c0,0,0.1,0,0.1,0c0.2-0.1,0.4-0.1,0.5-0.2h0l0.2-0.1c0.2-0.1,0.3-0.3,0.4-0.6
	c0,0.2-0.1,0.4-0.4,0.6l-0.2,0.1h0c-0.1,0-0.3,0.1-0.5,0.2l0.1,0.2l-0.1-0.2c0,0-0.1,0-0.1,0l-0.2,0.8l0.4-0.1l-0.4,0.1l-0.3,0.1
	h-0.2h-0.7h-0.4l-0.1,0.5c0.2,0,0.3,0,0.4,0.1c0.3,0,0.5-0.1,0.7-0.1c0.2,0,0.3,0,0.5,0c0,0,0,0,0.1,0c0.2,0,0.4-0.1,0.6-0.2
	c0,0,0.1-0.1,0.1-0.1c0.3-0.2,0.4-0.4,0.4-0.7c0,0.3-0.2,0.5-0.4,0.7l0.1,0.1l1.2,0.7l0-0.1l1.3-5.1c-0.2,0-0.5,0.1-0.7,0.1
	l-1.5,0.4l-0.2,0.1l-0.1,0.6h0c0.3-0.1,0.5-0.2,0.5-0.4c0,0.2-0.2,0.3-0.5,0.4h0c-0.2,0-0.3,0-0.4,0c-0.1,0-0.2,0-0.2,0h-0.3
	L138.7,65.5 M146.1,67.5l-0.2,0.1l-0.9,4.9l2-4.2l0.1-0.3l0.1-0.3l0.1-0.3v-0.2H147l-0.2,0L146.1,67.5 M146.7,63.9l0.3,0.3l0.3,0.5
	l0.2,1.1v0.6l-0.2,0.9v0.2l-0.1,0.3l-0.1,0.3l-0.1,0.3l-2,4.2l-2.6,5.5l-6.6,14.2l-0.1,0.2l-0.1,0l-0.1,0.3l-0.6,0.9h-0.1l-0.7,0.9
	l-1.3,1l-0.5,0.2l-0.9,0.2l-0.4-0.1l0.7,0.4h1l1.1-0.4l1.1-0.8l1-1.2l0.8-1.4L148,67.9C148.5,65.6,148,64.2,146.7,63.9 M146.7,63.9
	C146.7,63.8,146.7,63.8,146.7,63.9c-0.7-0.2-2,0-4,0.4l-1.3,5.1h0.2l0.6,0l0.6,0.2l0.4,0.4l0.3,0.6l0.1,0.7l-0.1,0.9l-1.1,5.7
	l2.6-5.5l0.9-4.9l0.7-3.5l-0.7,3.5l0.2-0.1l0.7-0.3l0.2,0h0.2l0.2-0.9v-0.6l-0.2-1.1l-0.3-0.5L146.7,63.9 M144.7,64.7l0.3,0.2
	l0.1,0.4l-0.1,0.6l-0.3,0.6l-0.4,0.3l-0.4,0.1l-0.3-0.2l-0.1-0.4l0.1-0.6l0.3-0.5l0.4-0.4L144.7,64.7 M145,64.8l-0.3-0.2l-0.4,0.1
	l-0.4,0.4l-0.3,0.5l-0.1,0.6l0.1,0.4l0.3,0.2l0.4-0.1l0.4-0.3l0.3-0.6l0.1-0.6L145,64.8 M119.5,82.5l0.4-0.1h0.4l0.4,0.1l0.3,0.3
	l1.6-1.6l3.5-3.6l3.6-3.7l1.5-1.5V72v-0.1l0.1-0.6l0.4-1.2l0.8-1l0.4-0.4l0.6-0.7l-0.2,0l-0.3-0.1l0.3,0.1l1.1-2l0.3-0.4l0.9-0.7
	c0.8-0.6,1.8-1.2,3.1-1.8c0.8-0.3,1.9-0.7,3.4-1.3l5.4-1.3c1,0,2.5-0.1,4.7-0.3c1.6,0.2,2.4,1.2,2.2,3.1l-0.1,1.3l-14.6,31l-1.2,1.5
	l-1.4,1l-2.2,0.9l-1,0.6l-0.5,0.4l-1.3,0.9l-0.7,0.2l-0.7,0l-0.6-0.2l-0.4-0.3l-10.7-9.7l-0.6-1l-0.1-1.3l0.3-1.6l0.6-1.6l1-1.5
	l1.2-1.1l3.1-2.3l0.9-1l4.2-5.7l-3.6,3.7l-1.9,2.4l-1.6,1.2l-1.6,1.6l-0.3-0.2l-4.6,3.4l-0.6,0.3l-0.3,0.1h-0.4l-1,1.6l15.4,13.9
	l0.4,0.4l0.3,0.6l0.1,1.6l-0.3,1.8l-0.9,1.9l-1.2,1.5l-0.6,0.6l-4.3,2.6l-11,6.4l-0.5,0.3l-0.9,0.2l-0.4,0l-0.4-0.1l-0.3-0.2
	l-1.8-1.4l-8.2,4.8c-0.1,0.6-0.3,1.2-0.4,1.9l5-2.9l1.2-0.7l0.9-0.3l0.9-0.1l0.3,0h0.2h0.3l0.6,0.1l0.2,0.1l0.7,0.4l0.2,0.2
	l17.4-10.1l0.7-0.1h0.7l0.5,0.2l0.5,0.4l0.3,0.6l0.8,1.2l0.5,0.4l0.6,0.3l0.6,0.1l1.1,0l0.5,0.1l0.7,0.4l1.3,2.4l8.6,20.5l0.3,1.5
	l0,0.5l0.1,0.4l0,6.8l5.9,4.6l3.1-1.7l2.1-2.7l0.2-0.3l0.1-0.1l0.4-0.6l8.1-10.2l0.3-0.3l4.6-5.9l0-4.1l-0.2-1.3l-0.4-1.5l-8.7-20.5
	l-0.4-1.4l0-1.5l0.2-2.1l0.6-2.2l1-2.2l1.3-2l1.5-1.6l1.7-1.3l4.6-2.6l0.5-0.2l0.5-0.1l0.7,0.1h0.1l0.3,0.2L173,86h0l0.2,0.1h0.6
	l0.6-0.2l0.6-0.4l0.5-0.6l1.2-2l1.5-1.5l1.8-1h0.4l0.4-0.3h0.2h-0.2l-0.4,0.3h1.6l2,1.1l-0.1-2.6l-0.1-0.6l-2-1.1l-0.4-0.1l-0.3,0.1
	l-0.7,0.6l-0.3,0.3l-0.9,1.3l-1.2,1.1l-34,19.8l-0.7,0.3l-0.6,0.1h-0.6l-0.6-0.1l-0.4-0.3l-0.7-1.2l-0.1-0.7l0-0.9l0.1-0.9l0.3-0.9
	l20.1-42.6l0.7-1.2l1.3-1.5l0.4-0.3l-1.3,0.1c-0.2,0-0.4,0.1-0.6,0.1l-0.2,0.4l0,0.2l-2.7,5.7l-1.6,1.8l-0.9,0.5l-0.9,0.4l-0.8,0
	l-3.4-0.2l-3.5,0.3l-3.7,0.9l-3.7,1.4l-7.5,4c-0.1,0-0.1,0.1-0.1,0.1l0.3,0.8l-0.3-0.8c-3.8,3.4-7.4,7.2-10.7,11.3l-4.8,6.4l0.8,0.4
	l0.3,0.1l0.1-0.9l0.2-0.1l0-0.4l0,0.4l-0.2,0.1l-0.1,0.9l1.5-1.5L119.5,82.5 M118.6,82.5l0-0.3L118.6,82.5 M119,82.1l0-0.3L119,82.1
	 M119.3,81.7l0-0.3L119.3,81.7 M119.7,81.3v-0.3V81.3 M118.2,82.8l0-0.3L118.2,82.8 M132.6,68.3l0.1-0.3L132.6,68.3 M132.2,68.7
	l0.1-0.2L132.2,68.7 M123.4,77.5l0.1-0.2L123.4,77.5 M123.1,77.9v-0.3V77.9 M125.9,74.9h0.3l0.1-0.4h0.3l0.1-0.4l0.3,0l0.1-0.4
	l0.3,0l0-0.3l0,0.3l-0.3,0l-0.1,0.4l-0.3,0l-0.1,0.4h-0.3l-0.1,0.4H125.9l-0.1,0.4h-0.3l-0.1,0.4h-0.3L125,76h-0.3l-0.1,0.4l0.1-0.4
	h0.3l0.1-0.4h0.3l0.1-0.4h0.3L125.9,74.9 M123.9,77.1l0-0.3L123.9,77.1 M124.2,76.7l0-0.3L124.2,76.7 M131.5,69.5l0-0.3L131.5,69.5
	l-0.3,0l-0.1,0.4l0.1-0.4L131.5,69.5 M130.7,70.3l0.1-0.3L130.7,70.3h-0.2l-0.1,0.3H130l-0.1,0.4h-0.3l-0.1,0.4h-0.3l-0.1,0.4
	l0.1-0.4h0.3l0.1-0.4h0.3l0.1-0.4h0.3l0.1-0.3H130.7 M127.7,73.3l0.1-0.3h0.3l0.1-0.4h0.3l0-0.3l0,0.3h-0.3l-0.1,0.4h-0.3
	L127.7,73.3 M128.8,72.2l0-0.3L128.8,72.2 M131.8,69.1l0-0.3L131.8,69.1 M122,79.1v-0.4V79.1 M122.5,78.3l0.3,0l0-0.3l0,0.3
	L122.5,78.3l-0.1,0.4L122.5,78.3 M121.6,79.5l0-0.3L121.6,79.5 M120.8,80.2l0-0.3L120.8,80.2h-0.3l-0.1,0.4l0.1-0.4H120.8
	 M121.2,79.8l0-0.3L121.2,79.8 M120,80.9l0-0.3L120,80.9 M157.4,95.5l-0.6-0.5l-0.8-0.3l-0.9,0.1l-0.9,0.4l-10.6,6.2l-0.7,0.6
	l-0.6,0.7l-1,1.8l-1,2.9l-1,1.9l-1.6,2.1l-1.1,2l0,0.1l-0.1,0.4l-0.1,1.2l0.2,1.1l-0.2-1.1l0.1-1.2l0.1-0.4l0-0.1l1.1-2l1.6-2.1
	l1-1.9l1-2.9l1-1.8l0.6-0.7l0.7-0.6l10.6-6.2l0.9-0.4l0.9-0.1l0.8,0.3L157.4,95.5l0.3,0.8l0.1,1l0.1,4.2l0.2,1.4l8.8,21l0.4,1.5
	l0.2,3.1l-0.2,1.5l-0.6,1.7l-0.9,1.5l-12.4,15.4l-0.9,0.6l-0.9,0.4l-0.8,0.2l-0.7,0l-0.6-0.3l-3.1-2.5l-0.2-0.3L146,146l-0.1-5.4
	l-0.1-0.7l0-1.3l-0.4-1.3l-0.2-0.6l-2.7-6.5l-1.7-4.1l-4-9.5l4,9.5l0.5-1.3l2-2.6c-0.3-1.1-0.5-2.1-0.7-3.2c-0.9-5.1-0.1-8.8,2.2-11
	l0.3-1l0.2,0l5.4-3.2h0.9l0.1,0.1l0.4-0.2c0.7-0.2,1.3-0.1,1.9,0.3c0.6,0.3,1,0.8,1.2,1.5l0.1,0.2c1.1,0.9,1,3.1-0.5,6.6
	c-1.4,3.3-2.9,6-4.6,8.2l-2.2,2.8c0.3,0.8,0.6,1.6,1,2.3l5.3,3l0,0.5l-0.4,1.1l-0.9,1.5l-1.2,1.2l-2.2-1.3l-0.1,0l-1,1.3l1.3,1.7
	l1.1,0.9l0.1,0.2l-0.1-0.2l-1.1-0.9l-1.3-1.7l-4.3-2.5l0.1,0.7l0.4,0.3l0.3,0.3l-0.3-0.3l-0.4-0.3l0.7,2.8c0.1,0.3,0.2,0.6,0.3,1
	l0.1,0.9l0.4,0.4l2.4,3.4l-2.4-3.4l-0.3,0.3l0,0.7l0.4,1.3l0,1.3l7.6,4.3h0.3l0.5-0.2l0.3,0l0.2-0.1l0.2,0l7.7-9.6v-0.5l0-0.1V133
	l0-0.3l-5.3-3l1.4,2l-1.4-2l-1.8-2.3l0.4,0.7l0.3,0.8l0.1,0.9l0,1l-1.3-1.7l-0.1,0.5l-0.4,1l-0.6,1l-0.7,1l-0.8,0.7l1.2,1.8
	l-0.8,0.6l-1.7,0.9l-0.6,0.1l-1.7,0.2l-0.7,0l-1.2-0.3l-0.6-0.3l0.6,0.3l1.2,0.3l0.7,0l1.7-0.2l0.6-0.1l1.7-0.9l0.8-0.6l-1.2-1.8
	l0.8-0.7l0.7-1l0.6-1l0.4-1l0.1-0.5l1.3,1.7l0-1l-0.1-0.9l-0.3-0.8l-0.4-0.7l-0.1-0.1l-0.5-0.6l-0.7-0.5l-1.2-0.4l-1.4-0.2l-1.4,0.1
	l1.4-0.1l1.4,0.2l1.2,0.4l0.7,0.5l0.5,0.6l0,0l0,0.1l1.8,2.3l5.3,3l0.9,1.3v0.2l0,0.3v0.2l0,0.3v0.4l-3.3,4.2l-0.3-0.2l-0.9,1.1
	l0.1,0.3l-3.3,4.2l-0.6,0.1l-0.7,0.3l-0.3,0l-3.8-2.2l-0.3-0.3l-0.9-0.5l0.9,0.5l0.3,0.3l3.8,2.2l-1-1.3l-7.6-4.3l0.1,0.7l3.1,1.7
	l-3.1-1.7l0.1,5.4l0.3,0.8l0.2,0.3l3.1,2.5l0.6,0.3l0.7,0l0.8-0.2l0.9-0.4l0.9-0.6l12.4-15.4l0.9-1.5l0.6-1.7l0.2-1.5l-0.2-3.1
	L167,124l-8.8-21l-0.2-1.4l-0.1-4.2l-0.1-1L157.4,95.5 M151.6,133.1c-0.6-0.4-1-0.7-1.4-0.6l-0.3,0.5l0.1,0.4
	c0.2,0.3,0.3,0.5,0.4,0.6l0.2,0l-0.2,0c-0.1,0-0.2-0.2-0.4-0.6l-0.1-0.4l0.3-0.5C150.6,132.5,151,132.7,151.6,133.1
	c0.5,0.5,0.9,0.9,1,1.3l-0.5,0.4h-0.3l-0.1-0.1h-0.2l-0.4-0.2l0.4,0.2h0.2l0.1,0.1h0.3l0.5-0.4C152.5,134,152.2,133.6,151.6,133.1
	 M159.3,133.4l-0.6-1.4L159.3,133.4l0.1,1.6l-0.4,1.7l-0.9,1.6l-1.3,1.4l-1.8,1.1l-1.2,0.5l-0.6,0.1l-1.5,0.1l-0.7,0l-0.7-0.1
	l-1.2-0.4l1.2,0.4l0.7,0.1l0.7,0l1.5-0.1l0.6-0.1l1.2-0.5l1.8-1.1l1.3-1.4l0.9-1.6l0.4-1.7L159.3,133.4 M150.7,134.3l0.1-0.1
	L150.7,134.3 M136.9,99.5l1.6,0.2l1.2,0.9l0.6,1.6l0,2.1l-0.6,2.3l-1.1,2.3L137,111l-1.8,1.5l-1.8,0.6l-1.6-0.1l-1.2-0.9l-0.7-1.6
	l0-2.1l0.6-2.3l1.2-2.3l1.5-2l1.8-1.4L136.9,99.5 M148.5,140.2l0.6,0.4L148.5,140.2 M138.5,99.7l-1.6-0.2l-1.8,0.7l-1.8,1.4l-1.5,2
	l-1.2,2.3l-0.6,2.3l0,2.1l0.7,1.6l1.2,0.9l1.6,0.1l1.8-0.6l1.8-1.5l1.6-1.9l1.1-2.3l0.6-2.3l0-2.1l-0.6-1.6L138.5,99.7 M136.3,104.5
	L136.3,104.5l0.6,0.4l-0.3,0.4l-0.3-0.1l0.3,0.1l0.3-0.4L136.3,104.5l-0.3,0.4L136.3,104.5L136.3,104.5H136H136.3L136.3,104.5
	 M135.5,105.5l0.5-0.1l0.3,0.2l0,0.2l0.3,0.1l0.4-0.2v-0.3v0.3l-0.4,0.2l-0.3-0.1l0.1,0.3l-0.1,0.6l0.3,0.2l-0.4,0.1l-0.3,0.4
	l-0.1,0.1l0.2,0.4l-0.4-0.2l-0.1,0.1l-0.3,0.2l-0.3,0.1H135l0.1,0.2v0l0.2,0.2l-0.2-0.2v0h-0.3l-0.3,0.5l-0.1-0.1l-0.6-0.3l-0.5-0.3
	l-0.3-0.2l-0.4-0.3l0.1-0.1h0l0.1,0l0.1,0l0,0l0.7,0.5l0.3,0.1l0.6,0.3l0.1,0.1l0.3-0.5l-0.3-0.2l-0.3-0.1L134,108l-0.1-0.2v-0.4
	l-1.3-0.7l1.3,0.7l0.3,0l-0.1,0l-1.1-0.6l-0.2-0.3v-0.6l0.1-0.3h-0.2h0.2l1.3,0.7l0-0.7l-2.2-1.2l-0.6,2.1l0.6-2.1l1.8-1.5l2.2,1.3
	l-2.2-1.3l-1.8,1.5l2.2,1.2l0,0.7h0l0.3,0l-0.3,0l-0.1,1l0.1,0l-0.3,0v0.4l0.1,0.2l0.2-0.1l0.3,0.1h0.2l0.1,0h0.1h0.1l0.3-0.1
	l0.3-0.2l-0.5,0.2l-0.4-0.2l-0.1-0.5l0.1-0.6l0.3-0.6L135.5,105.5 M135.6,104.6l0.1,0.3l-1.2-0.7h-0.2l-0.1,0.1l-0.6,0.2l1.2,0.7
	l0.1,0.3l-0.1-0.3l-0.2,0.3l0.2-0.3l-1.2-0.7l0.6-0.2l0.1-0.1h-0.6h0.6h0.2l1.2,0.7L135.6,104.6l-1.3-0.8L135.6,104.6 M136.4,107.5
	l0.1-0.2L136.4,107.5 M132.6,107.4L132.6,107.4L132.6,107.4L132.6,107.4 M131.3,106.7l1,0.6L131.3,106.7 M132.3,105.9l0-0.2
	L132.3,105.9 M132.6,107.4L132.6,107.4L132.6,107.4L132.6,107.4 M133.6,108.2l-0.7-0.5l0.3,0.3L133.6,108.2 M132.8,107.6
	L132.8,107.6l-0.1,0L132.8,107.6 M132.9,107.6L132.9,107.6L132.9,107.6L132.9,107.6 M132.7,107.5L132.7,107.5l0.3,0.3l-0.1-0.2
	l-0.1-0.1L132.7,107.5 M134.7,108h-0.2l0.3,0.2h0.3L135,108h-0.1L134.7,108 M133.4,108l-0.1-0.1l-0.3-0.3l0.1,0.2L133.4,108
	 M133.3,107.9l0.1,0.1l0.5,0.3l-0.3-0.1L133.3,107.9 M132.8,105.5l-0.1,0.3v0.6l0.2,0.3l1.1,0.6l0.1-1h0L132.8,105.5 M136,107.3
	l-0.3,0.2l0.4,0.2L136,107.3 M136.7,106.8l-0.3-0.2v0l-0.1,0.2L136.7,106.8 M136,105.3l-0.5,0.1l-0.4,0.4l-0.3,0.6l-0.1,0.6l0.1,0.5
	l0.4,0.2l0.5-0.2l0.1-0.1l0.3-0.2l0.1-0.1l0.3-0.4l0.1-0.2v0l0.1-0.6l-0.1-0.3l0-0.2L136,105.3 M136.3,104.5L136.3,104.5
	L136.3,104.5L136.3,104.5 M145.4,136.6l0.3-0.3l-0.4-0.4L145.4,136.6 M146.5,130.5l0.1,0.3l0.4,0.5l0.3,0.2l0.4,0.2l-0.7-1.1
	c-0.1-0.2-0.3-0.5-0.4-0.7L146.5,130.5 M145.1,127l-0.9,1l-0.3,0.9l0,0.3v0.4l0.2,0.8l4.3,2.5l1-1.3l-1,0.4l-1-0.1l-0.9-0.4
	l-0.5-0.7l-0.2-0.9l0.3-0.9C145.6,128.3,145.3,127.6,145.1,127 M141.3,124.8l-0.5,1.3l1.7,4.1c0.1-0.5,0.2-1,0.2-1.4l-0.1-0.3
	c-0.1-0.5-0.2-0.8-0.3-1c0.1,0.2,0.2,0.5,0.3,1l0.1,0.3c0,0.4,0,0.9-0.2,1.4l2.7,6.5l0.2,0.6l0-0.7l-0.1-0.7l-0.1-0.9
	c0-0.4-0.1-0.7-0.3-1l-0.7-2.8l-0.1-0.7l-0.2-0.8v-0.4l0-0.3l0.3-0.9l0.9-1c-0.7-1.5-1.2-3.1-1.7-4.8L141.3,124.8 M147.3,117.1h-0.4
	l-0.5-0.1l0.1,1.2L147.3,117.1 M147,115.1l0.9,1.3l0.4,0.3l0.6,0.3l-1-1.3L147,115.1 M149.7,111.7l-1.9,1.1l1,0.6l1.9-1L149.7,111.7
	 M147.3,113.9v0.1l0.1-0.2L147.3,113.9 M147.3,114.1l-0.1,0.3l-0.3,0.8l1,0.6l0.9-2.4l-1-0.6l-0.4,1.1L147.3,114.1 M147.9,112.7
	l-0.3,0.3l-0.2,0.4l-0.1,0.9l0.1-0.3v-0.1l0.1-0.1L147.9,112.7 M147.5,111.3l0.3-0.1l0.3-0.2l0.1-0.2l0-0.1l-0.6,0.1l-0.3,0.3
	l-0.1,0.1L147.5,111.3 M154.9,143.8l-0.2,0l-0.2,0.1l-0.3,0l-0.5,0.2h-0.3l1,1.3l0.3,0l0.7-0.3l0.6-0.1L154.9,143.8 M159.9,139.5
	l0.3,0.2L159.9,139.5L159.9,139.5 M163.5,135.5l-0.9-1.3l-7.7,9.6l1,1.3l3.3-4.2l-0.1-0.3l0.9-1.1l0,0l0.3,0.2L163.5,135.5
	 M162.5,132.8l0,0.3v0.5l0,0.1v0.5l0.9,1.3V135l0-0.3v-0.2l0-0.3v-0.2L162.5,132.8 M150.5,131l0.3-0.3l-1.1,0.7l-0.6,0.2l-0.6,0.1
	h-0.6l-0.1,0l-0.4-0.2l-0.3-0.2l-0.4-0.5l-0.1-0.3l0-0.6c-0.2-0.3-0.3-0.7-0.5-1l-0.3,0.9l0.2,0.9l0.5,0.7l0.9,0.4l1,0.1l1-0.4
	l0.1,0l0.2-0.1L150.5,131 M150.9,127.2l-0.7-0.5l-0.9-0.2c0.3,0.5,0.6,1,0.9,1.5l0.9,1.4l0-0.5l-0.1-0.5l-0.3-0.4l-0.4-0.3l0.4,0.3
	l0.3,0.4l0.1,0.5l0,0.5v0l-0.2,0.6l-0.3,0.6l0.2-0.1l0.5-0.9l0.1-0.9l-0.1-0.9L150.9,127.2 M150.3,126.7l0.7,0.5l0.5,0.7l0.1,0.9
	l-0.1,0.9l-0.5,0.9l-0.2,0.1l0.3-0.6l0.2-0.6v0l-0.9-1.4c-0.3-0.5-0.6-1-0.9-1.5c-0.1-0.3-0.3-0.5-0.4-0.8c-0.4-0.8-0.7-1.6-1-2.3
	c-0.3-0.7-0.6-1.5-0.8-2.3c-0.2-0.9-0.5-1.9-0.7-2.9l-0.1-1.2l-0.1-0.6c-0.2-1.2-0.2-2.4,0.1-3.5l0.3-0.7l0.3-0.5l0.3-0.3l0.1-0.1
	l0.3-0.3l0.6-0.1l0.1-0.2v-0.4l-0.1-0.7l-0.7-1.3l-0.5-0.5l-0.5-0.3l-0.5-0.1l0.5,0.1l0.5,0.3l0.5,0.5l0.7,1.3l0.1,0.7v0.4l-0.1,0.2
	l0,0.1l-0.1,0.2l-0.3,0.2l-0.3,0.1l-0.3,0l-0.3,0.3l1,0l0.1-0.1l0.5-0.6l0.1-1.2l-0.6-1.3l-1-1.2l-1-0.5l-0.7,0.3l-0.2,0l-0.3,1
	c0.1-0.1,0.2-0.2,0.3-0.3l0.5-0.4l-0.5,0.4c-0.1,0.1-0.2,0.2-0.3,0.3c-2.3,2.2-3,5.9-2.2,11c0.2,1.1,0.4,2.2,0.7,3.2
	c0.4,1.7,1,3.3,1.7,4.8c0.3,0.6,0.6,1.2,0.9,1.9c0.2,0.3,0.3,0.7,0.5,1c0.1,0.2,0.3,0.5,0.4,0.7l0.7,1.1l0.1,0h0.6l0.6-0.1l0.6-0.2
	l1.1-0.7l-0.3,0.3l-0.7,0.5l-0.2,0.1l2.2,1.3l1.2-1.2l0.9-1.5l0.4-1.1l0-0.5l-5.3-3c0.1,0.3,0.3,0.5,0.4,0.8L150.3,126.7
	 M149.2,130.1l-0.2-0.3c-1.9-2.6-3.4-6-4.3-10.4c-1.1-5.2-0.5-8.6,1.8-10.1c-2.3,1.5-2.9,4.9-1.8,10.1c1,4.4,2.4,7.9,4.3,10.4
	L149.2,130.1 M155.3,127.3l0.1,0.1L155.3,127.3L155.3,127.3 M150.9,112.2l-0.1,0.1l-1.9,1l-0.9,2.4l1,1.3l1.9-1.1l0.9-2.3
	L150.9,112.2 M150.9,113.1l0.2,0.7l-0.1,0.9l-0.5,0.9l-0.7,0.6l-0.7,0.2l-0.2-0.1l-0.3-0.1l0,0l-0.2-0.7l0.2-0.9l0.5-0.9l0.7-0.6
	l0.7-0.2l0.3,0.2L150.9,113.1 M150.8,113l-0.3-0.2l-0.7,0.2l-0.7,0.6l-0.5,0.9l-0.2,0.9l0.2,0.7l0,0l0.3,0.1h0.4l0.1-0.1l0.2-0.1
	l0.5-0.4l0.7-1.2l0.1-0.7l0-0.5L150.8,113 M150.3,113.9v0.4l-0.4,0.2l-0.5-0.3v-0.3l0.3-0.3l-0.1,0.6l0.1,0.1h0.2L150.3,113.9
	 M149,114.7l0.2-0.1l0.1,0l0.4,0.2v0.4l-0.2,0.2l-0.1-0.5L149,114.7l0.3,0.2l-0.4,0.2L149,114.7 M149.7,114.7l-0.4-0.2l-0.1,0
	l0.5,0.6V114.7 M149.1,114.7L149.1,114.7l-0.1,0.3l0.4-0.2L149.1,114.7 M149,114.7L149,114.7l0.4,0.2l0.1,0.5l0.2-0.2l-0.5-0.6
	L149,114.7 M149.4,113.9l0.2,0.3l0.1-0.6L149.4,113.9 M149.7,114.3l-0.3,0l0.5,0.3l0.4-0.2h-0.4H149.7 M149.4,114.3l0.3,0l-0.1-0.1
	l-0.2-0.3V114.3 M150.3,114.3v-0.4l-0.4,0.4H150.3 M151.2,113.8l-0.2-0.7l-0.2-0.1l0.1,0.3l0,0.5l-0.1,0.7l-0.7,1.2l-0.5,0.4
	l-0.2,0.1l-0.1,0.1h-0.4l0.2,0.1l0.7-0.2l0.7-0.6l0.5-0.9L151.2,113.8 M150.9,112.2l0-1.2l0-1l-2.8,1.6l-0.1,0.1l-1,0l-0.3,0.5
	l-0.3,0.7c-0.3,1.1-0.3,2.3-0.1,3.5l0.1,0.6l0.5,0.1h0.4l0.6-0.1l0.4-0.3l-0.4-0.3l-0.9-1.3l0.3-0.8l0.1-0.9l0.2-0.4l0.3-0.3
	l1.9-1.1l1,0.7L150.9,112.2 M151.5,109.6l-0.7,0.4l0,1L151.5,109.6 M153.4,105.6l-0.9-1.1l-0.9-0.6l-0.1-0.1h-0.9l-5.4,3.2l0.7-0.3
	l1,0.5l1,1.2l0.6,1.3l-0.1,1.2l-0.5,0.6l2.8-1.6l0.7-0.4l1.8-1l0.6-0.6l0-0.6v-0.5L153.4,105.6 M152.1,103.7l-0.4,0.2l0.9,0.6
	l0.9,1.1l0.4,1.3v0.5l0.3-0.1h0.3h-0.3l-0.3,0.1l0,0.6l-0.6,0.6l-1.8,1l-0.6,1.4l0,1.2l0.8,1.3l-0.9,2.3l-1.9,1.1l-0.6-0.3l-0.4,0.3
	l-0.6,0.1l-0.7,1.1c0.2,1,0.5,2,0.7,2.9l3.1-3.8l-3.1,3.8c0.2,0.8,0.5,1.5,0.8,2.3l2.2-2.8c1.7-2.2,3.2-4.9,4.6-8.2
	c1.5-3.5,1.6-5.7,0.5-6.6c-0.4-0.3-0.9-0.5-1.5-0.5h-0.3h0.3c0.6,0,1.1,0.2,1.5,0.5l-0.1-0.2c-0.2-0.6-0.7-1.1-1.2-1.5
	C153.4,103.6,152.8,103.5,152.1,103.7 M152.6,111.9l0.6-1.2L152.6,111.9 M149.9,117.3l0.3-0.4L149.9,117.3 M119.9,82.4l-0.4,0.1
	l-0.4,0.3l-1.5,1.5l-0.3-0.1l-1.3,1l1.3-1l-0.8-0.4l-1.6,2.5h0.4l0.3-0.1l0.6-0.3l4.6-3.4l-0.3-0.2H119.9 M150.2,55.3l-0.4-0.1
	l-1.2-0.6c-0.6,0.3-1.1,0.5-1.6,0.8l-0.7,2.8L148,58l3.7,0.1l0.7-1.3l-2.6-0.8l-2.8-0.4l2.8,0.4l2.6,0.8l0.1-0.1l-0.4-0.2l0.4,0.2
	l0.1,0.1l0.4,0.3l0.3,0.1l0.2,0.2l1.8-3.7l1-2.1c-2.6,0.7-5.2,1.7-7.8,3.1l1.2,0.6L150.2,55.3l1.8,1L150.2,55.3 M144.1,58l0.1,0.4
	l2-0.2l0.7-2.8c-0.8,0.4-1.6,0.9-2.5,1.4L144.1,58 M144.4,56.8c-0.4,0.2-0.8,0.4-1.2,0.7l0.9,0.5L144.4,56.8 M142,59L142,59l2.2-0.5
	l-0.1-0.4l-0.9-0.5c-0.4,0.2-0.7,0.5-1.1,0.7L142,59 M141.7,59.1l-0.2,0l-1.1,0.3c-0.4,0.2-0.7,0.5-1,0.7c-2.4,1.8-4.8,3.7-7.1,5.7
	l7.5-4l3.7-1.4l3.7-0.9l3.5-0.3l3.4,0.2l0.8,0l0.9-0.4l0.9-0.5l1.6-1.8l2.7-5.7l0-0.2l0.2-0.4c-1.6,0.2-3.2,0.6-4.8,1.1l-1,2.1
	l0.1,0.9l-0.4,1.5l-0.3,0.7l-0.5,0.6l-0.4,0.3l-0.4,0.2l-0.4,0.2l-0.9,0.1h-0.3L148,58l-1.9,0.3l-2,0.2L142,59L141.7,59.1
	 M141.4,59.1l0.1-0.5c-0.4,0.2-0.8,0.5-1.2,0.8L141.4,59.1 M141.5,58.6l-0.1,0.5l0.2,0l0.2-0.7C141.8,58.5,141.6,58.5,141.5,58.6
	 M142.2,58.2L142.2,58.2L142,59L142.2,58.2 M142.1,58.2c-0.1,0-0.2,0.1-0.3,0.1l-0.2,0.7L142,59v0L142.1,58.2 M141.9,58.4
	c0.1-0.1,0.2-0.1,0.3-0.1l0,0c0.3-0.2,0.7-0.5,1.1-0.7c0.4-0.2,0.8-0.4,1.2-0.7c0.8-0.5,1.6-1,2.5-1.4c0.5-0.3,1.1-0.5,1.6-0.8
	c2.6-1.3,5.2-2.3,7.8-3.1c1.6-0.5,3.2-0.9,4.8-1.1c0.2,0,0.4-0.1,0.6-0.1l1.3-0.1l1.1-0.1l0.1-0.3l-0.1,0.3l0.4,0l1.1-0.1l0.9-0.1
	l2.8,0.2l1.8,0.1l0.3-0.9l-4.5-0.3l-4.7,0.3l-4.9,1.1c-8,2.3-15.8,6.7-23.4,13.1c-7.1,6-13.5,13.3-19.2,21.9
	c-5.5,8.3-9.9,17.1-13.1,26.4c-3.2,9.3-4.9,18.2-5.1,26.4l0.1,5.9l0.6-0.4l-0.1-6.2c0.1-4.3,0.7-8.6,1.6-13c0.1-0.6,0.2-1.2,0.4-1.9
	c0.5-2.1,1-4.2,1.6-6.3c0.1-0.4,0.3-0.8,0.4-1.2c0-0.3,0.1-0.5,0.2-0.7c0.2-0.6,0.4-1.2,0.6-1.8c2.3-6.9,5.4-13.7,9.2-20.3
	c0,0,0.1-0.1,0.1-0.2c0.5-0.9,1-1.7,1.5-2.6l1.1-1.6l1-1.6l1.6-2.5l4.8-6.4c3.4-4.2,6.9-8,10.7-11.3l0,0l0.1-0.1
	c2.3-2,4.7-3.9,7.1-5.7c0.3-0.2,0.7-0.5,1-0.7c0.4-0.3,0.8-0.6,1.2-0.8C141.6,58.5,141.8,58.5,141.9,58.4 M138.2,43l0.2-0.4
	l-5.4,2.1c-9.1,4.4-17.8,11.3-26.1,20.7l-4.7,5.9l0.3,0.1l4.6-5.7c8.4-9.5,17-16.3,25.9-20.5L138.2,43 M138.8,39.4l0,0.3l-0.1,0.5
	l-0.3,0.9l-0.3,1.3l0.3-1.3l-5.6,2l-5.6,2.8l-5.7,3.6l-5.5,4.3l-5.4,4.9l-5.1,5.6l-4.9,6l1.6,0.9l4.7-5.9
	c8.2-9.4,16.9-16.3,26.1-20.7l5.4-2.1l0.8-2.9L138.8,39.4 M138.7,39.6l-3,0.9l-2.2,0.8c-1.8,0.7-3.6,1.5-5.4,2.4
	c-0.4,0.2-0.7,0.4-1.1,0.6c-0.3,0.2-0.7,0.4-1,0.6c-0.3,0.1-0.5,0.3-0.8,0.4c-7.8,4.6-15.3,11.2-22.4,19.8l-3.1,4l-0.1,0.6l4.4-5.6
	c4.2-4.9,8.8-9.3,13.5-13c5.4-4.2,10.7-7.3,16.1-9.4l5-1.6L138.7,39.6 M135.7,40.5l-0.6,0.2c-0.5,0.2-1.1,0.4-1.6,0.6L135.7,40.5
	 M135.1,40.7l0.6-0.2l3-0.9l0-0.3l0,0l-5,1.6c-10.6,4.2-20.6,11.7-29.9,22.5L99.4,69l-0.1,0.4l0.2,0.3l0.1-0.6l3.1-4
	c7.2-8.6,14.7-15.2,22.4-19.8c0.3-0.1,0.5-0.3,0.8-0.4c0.3-0.2,0.7-0.4,1-0.6c0.3-0.2,0.7-0.4,1.1-0.6c1.8-0.9,3.6-1.7,5.4-2.4
	C134,41.1,134.6,40.9,135.1,40.7 M140.3,36.6l0.9-2.3l-4.5,0.3l-4.9,1c-8,2.3-15.9,6.6-23.5,13c-7.1,5.9-13.6,13.2-19.3,21.9
	c-5.6,8.4-10,17.2-13.2,26.4c-3.3,9.4-5,18.2-5.1,26.5l0.1,5.9l2.9,1.6l1.5-0.8c-0.4-0.5-0.6-1.1-0.7-1.8c-0.1-0.9,0.1-1.5,0.8-1.8
	h0.6l0.6,0.3l0.6,0.5l0.1,0.1l0.1,0l0.5,0.5l0.4,0.7l0.1,0.7l0,0.2l0,0.1l0.1,0.8l-0.1,0.8l-0.4,0.5l-0.7,0.2l-0.7-0.3l-0.6-0.5
	l-0.6-0.7c0,0-0.1-0.1-0.1-0.2l-1.5,0.8l9.7,5.6l1.5-0.9l-0.4-0.6l-0.3-0.8l-0.1-0.7l0.1-0.7l0.3-0.5l0.5-0.3h0.6l0.6,0.2l0.6,0.5
	l0.1,0.1l0.1,0l0.5,0.4l0.4,0.7l0.1,0.7l0,0.3v0l0.1,0.7l-0.1,0.8l-0.4,0.4l-0.7,0.2l-0.7-0.3l-0.7-0.5l-0.6-0.7l-0.1-0.2l-1.5,0.9
	l13.3,7.6l-0.1-5.9c0.2-8.3,1.9-17.1,5.1-26.4c3.2-9.2,7.6-18,13.1-26.4c5.7-8.6,12.1-16,19.2-21.9c7.6-6.4,15.4-10.7,23.4-13.1
	l4.9-1.1l4.7-0.3l4.5,0.3l-13.5-7.7l-2.6-0.2l-1.8-0.1l-0.6,0l-3.4,0.3l-0.8,0c-3.6,0.5-7.2,1.5-10.8,3.1c-3.6,1.5-7.2,3.5-10.9,6
	c-6.3,4.3-12.2,9.6-17.6,16l-4.4,5.4l-0.3,0.3l-0.4,0l-0.8-0.5l-1.1-0.6l-0.3-0.1l-1.6-0.9l-1.1-0.6l-0.2-0.3l0.1-0.4l4.5-5.5
	c9.3-10.9,19.3-18.4,29.9-22.5l5-1.6L140.3,36.6 M131.3,39.9l-0.2,0.2l0.1,0.3l-0.1-0.3L131.3,39.9l0.4-0.1h0.5l0.5,0.1l0.3,0.3
	l0.1,0.2l-0.1,0.2l0.1-0.2l-0.1-0.2l-0.3-0.3l-0.5-0.1h-0.5L131.3,39.9 M132,40.8h0.3H132 M130.4,49.1l-0.2,0.3l0.1,0.4l0.3,0.2
	L131,50l-0.3-0.1l-0.3-0.2l-0.1-0.4L130.4,49.1l0.4-0.2h0.5l0.5,0.1l0.3,0.2l0.1,0.3l-0.2,0.3l-0.6,0.3l0.6-0.3l0.2-0.3l-0.1-0.3
	l-0.3-0.2l-0.5-0.1h-0.5L130.4,49.1 M124,45.1l0.2-0.2l-0.1-0.4l-0.4-0.2l-0.5-0.1l-0.5,0.1l-0.4,0.2l-0.2,0.3l0.1,0.3l0.3,0.3
	l-0.3-0.3l-0.1-0.3l0.2-0.3l0.4-0.2l0.5-0.1l0.5,0.1l0.4,0.2l0.1,0.4L124,45.1l-0.4,0.2l-0.5,0.1l0.5-0.1L124,45.1 M121.9,55.3
	l0.5-0.2l0.5,0.1l0.3,0.3l0.1,0.3l-0.2,0.3l-0.3,0.3l-0.5,0.1l-0.5-0.1l-0.3-0.3l-0.1-0.4l0.2-0.3L121.9,55.3 M148.6,42.7l0.2,0.1
	L148.6,42.7 M149.7,42.8l0.2-0.1l-0.1-0.2l-0.3-0.2L149,42l-0.9,0l-0.2,0.2l0.3,0.3l-0.3-0.3l0.2-0.2l0.9,0l0.5,0.2l0.3,0.2l0.1,0.2
	L149.7,42.8 M139.2,44.8l0.1,0.3L139.2,44.8l0.2-0.2l0.4-0.1h0.5l0.5,0.1l0.3,0.3l0.1,0.3l-0.1,0.2l0.1-0.2l-0.1-0.3l-0.3-0.3
	l-0.5-0.1h-0.5l-0.4,0.1L139.2,44.8 M105.3,58.6l0.5-0.2l0.5,0.1l0.4,0.2l0.1,0.4l-0.1,0.4l-0.4,0.3l-0.4,0.2l-0.5,0l-0.3-0.2
	l-0.1-0.4l0.1-0.4L105.3,58.6 M114.9,50.6l0.3,0.3l0.1,0.3l-0.1,0.4l-0.4,0.2l-0.5,0.1l-0.5,0l-0.3-0.3l-0.1-0.3l0.1-0.3l0.4-0.3
	l0.5-0.1L114.9,50.6 M114.3,63.1l0.4,0.3l0.1,0.4l-0.2,0.4l-0.4,0.4l-0.5,0.1l-0.4,0l-0.3-0.3l-0.1-0.4l0.2-0.4l0.4-0.4l0.5-0.1
	L114.3,63.1 M105.2,72.9l0.4-0.4l0.5-0.1l0.4,0.1l0.3,0.3l0.1,0.4l-0.2,0.4l-0.4,0.3l-0.5,0.2l-0.4-0.1l-0.4-0.3l0-0.4L105.2,72.9
	 M98.5,67.9l0.3,0.3l0,0.4l-0.2,0.5l-0.4,0.3l-0.5,0.1l-0.4-0.1L97,69.2l0-0.4l0.1-0.4l0.4-0.3l0.4-0.1L98.5,67.9 M92.6,73.2
	l0.3,0.1L92.6,73.2c-0.7-0.2-1.4,0-1.9,0.7c-0.6,0.7-0.7,1.5-0.3,2.1l0.1,0.2L90.4,76c-0.4-0.7-0.3-1.4,0.3-2.1
	C91.2,73.2,91.9,72.9,92.6,73.2 M91.8,74.5l0.1-0.6L91.8,74.5l-0.2-0.1L91,74.2l0.6,0.2L91.8,74.5 M91.5,74.9L91,75.2L91.5,74.9
	l-0.3-0.2L91.5,74.9 M91.3,76.8l0.3,0.1l0.3,0l0.3,0l0.5-0.1l0.6-0.4l0.4-0.5l0.2-0.6v-0.6L93.7,74l-0.3-0.4l-0.3-0.2l0.3,0.2
	l0.3,0.4l0.1,0.5v0.6l-0.2,0.6l-0.4,0.5l-0.6,0.4l-0.5,0.1l-0.3,0l-0.3,0L91.3,76.8 M90.7,76.4l0.3,0.2L90.7,76.4 M103.4,81.6
	l0.4,0.3h0h0.4h-0.4l-0.7,0.1l0.7-0.1h0L103.4,81.6 M103.1,81.1c0,0.3,0.2,0.3,0.4,0.1l0.5,0.2l0-0.6l0,0.6l-0.5-0.2
	C103.3,81.4,103.1,81.4,103.1,81.1 M104.7,80.1c-0.7-0.2-1.4,0.1-1.9,0.8c-0.6,0.7-0.7,1.4-0.3,2l0.2,0.2l-0.2-0.2
	c-0.4-0.7-0.3-1.4,0.3-2C103.3,80.1,104,79.9,104.7,80.1l0.3,0.1L104.7,80.1 M103.2,83.6l0.2,0.1l0.2,0h0.6l0.6-0.3l0.5-0.4l0.3-0.5
	l0.2-0.6v-0.6l-0.1-0.5l-0.3-0.4l-0.3-0.1l0.3,0.1l0.3,0.4l0.1,0.5V82l-0.2,0.6l-0.3,0.5l-0.5,0.4l-0.6,0.3h-0.6l-0.2,0L103.2,83.6
	 M102.8,83.3l0.2,0.2L102.8,83.3 M158.1,42.4l-0.1-0.1l-0.4-0.2l-1-0.4l-0.3,0l-0.1,0l0.1,0.2l0.2,0.1l-0.2-0.1l-0.1-0.2l0.1,0
	l0.3,0l1,0.4l0.4,0.2L158.1,42.4h-0.3H158.1 M156.8,42.1l0.4,0.2L156.8,42.1 M74.7,120.9l-0.3,0.2v-0.3l0.4-0.1l-0.4-0.1l-0.3-0.1
	l0.3,0.1l0.5-0.4l-0.5,0.4l0.4,0.1l0.1,0L74.7,120.9L74.7,120.9l0.5-0.1L74.7,120.9l0,0.5L74.7,120.9L74.7,120.9 M73.7,120.2v-0.5
	c0-0.4,0.2-0.7,0.4-0.9l0.7-0.3l-0.7,0.3c-0.2,0.2-0.4,0.5-0.4,0.9V120.2l0.1,0.4l0.3,0.7l0.2,0.3l0.3,0.3c0.3,0.3,0.6,0.4,1,0.4
	c-0.3,0-0.7-0.1-1-0.4l-0.3-0.3l-0.2-0.3l-0.3-0.7L73.7,120.2 M76.1,119l-0.5-0.4L76.1,119l0.4,0.5l0.3,0.7l0.1,0.6l-0.1,0.6
	l-0.3,0.5l0.3-0.5l0.1-0.6l-0.1-0.6l-0.3-0.7L76.1,119 M75.9,122.2l0.4-0.1L75.9,122.2 M88.6,126.4l-0.3-0.4l-0.4-0.4l0.4,0.4
	L88.6,126.4l0.3,0.6l0.1,0.6v0.6l-0.1,0.4l0.1-0.4v-0.6l-0.1-0.6L88.6,126.4 M86.5,125.6l0.4-0.2L86.5,125.6l-0.2,0.1
	c-0.2,0.2-0.4,0.5-0.4,1l0,0.7l0.3,0.7l0.6,0.6c0.3,0.3,0.6,0.4,0.9,0.3c-0.3,0-0.6-0.1-0.9-0.3l-0.6-0.6l-0.3-0.7l0-0.7
	c0-0.5,0.2-0.8,0.4-1L86.5,125.6 M86.2,127.5h0.3l0.4-0.3l-0.4,0.3h0.4l-0.4,0.3v0.3l0.3-0.1v-0.1l0.3-0.1l0.2-0.1v0.3v-0.3
	l-0.2,0.1l-0.3,0.2v0.4V128l-0.3,0.1v-0.3l0.4-0.3h-0.4H86.2 M88,129.1l0.4-0.1L88,129.1 M86.8,127.9L86.8,127.9l0.3-0.1L86.8,127.9
	 M74.4,121.2l0.3-0.2l0.3-0.3l-0.1,0l-0.4,0.1V121.2 M98.7,68.2l-0.3-0.3L98,67.8l-0.4,0.1l-0.4,0.3l-0.1,0.4l0,0.4l0.3,0.3l0.4,0.1
	l0.5-0.1l0.4-0.3l0.2-0.5L98.7,68.2 M105.6,72.6l-0.4,0.4l-0.2,0.4l0,0.4l0.4,0.3l0.4,0.1l0.5-0.2l0.4-0.3l0.2-0.4l-0.1-0.4
	l-0.3-0.3l-0.4-0.1L105.6,72.6 M114.7,63.4l-0.4-0.3l-0.4,0l-0.5,0.1l-0.4,0.4l-0.2,0.4l0.1,0.4l0.3,0.3l0.4,0l0.5-0.1l0.4-0.4
	l0.2-0.4L114.7,63.4 M115.2,50.8l-0.3-0.3l-0.5-0.1l-0.5,0.1l-0.4,0.3l-0.1,0.3l0.1,0.3l0.3,0.3l0.5,0l0.5-0.1l0.4-0.2l0.1-0.4
	L115.2,50.8 M105.8,58.4l-0.5,0.2l-0.4,0.3l-0.1,0.4l0.1,0.4l0.3,0.2l0.5,0l0.4-0.2l0.4-0.3l0.1-0.4l-0.1-0.4l-0.4-0.2L105.8,58.4
	 M122.4,55.1l-0.5,0.2l-0.4,0.3l-0.2,0.3l0.1,0.4l0.3,0.3l0.5,0.1l0.5-0.1l0.3-0.3l0.2-0.3l-0.1-0.3l-0.3-0.3L122.4,55.1
	 M143.9,24.8L144,25v-0.1L143.9,24.8 M143.6,24.4L143.6,24.4l0.3,0.1L143.6,24.4 M143.5,24.3l0.1,0.1l0.1,0l0-0.1L143.5,24.3
	 M143.3,24.1L143.3,24.1l0.1,0.1L143.3,24.1 M143.2,23.6l-0.2,0l0.2,0.5l0.1,0.1h0l0,0l0.1,0.1L143.2,23.6 M131,10.8
	c0.3-0.8,0.6-1.6,1.1-2.3c0.4-0.7,0.9-1.4,1.3-1.9l-0.6-0.3c-0.9-0.2-1.6,0.3-2.2,1.3c-0.6,1.1-0.6,2,0,2.6L131,10.8z"/>
<path class="st1" d="M63.2,146.3l-0.5-0.1l-2.5,1.4l1,0.9l0.7,1.7v0.3l2.2-1.2l0.4-0.4l0.1-0.7l-0.3-0.8l-0.5-0.7L63.2,146.3
	 M66.4,145.2l0.5,0.8l0.2,0.8l-0.1,0.6l-0.4,0.4l1.3-0.7l0.4-0.5l0.1-0.2l-0.2-1.2l-0.8-1l-0.1,0l-0.7-0.2l-1.3,0.8l0.6,0.1
	L66.4,145.2 M64.6,145.5l-0.6,0l-1.2,0.7l0.5,0.1l0.6,0.5l0.5,0.7l0.3,0.8l-0.1,0.7l-0.4,0.4l1.3-0.8l0.4-0.3l0.1-0.7l-0.3-0.7
	l-0.5-0.8L64.6,145.5 M64,145.5l0.6,0l0.6,0.5l0.5,0.8l0.3,0.7l-0.1,0.7l-0.4,0.3l1.3-0.7l0.4-0.4l0.1-0.6l-0.2-0.8l-0.5-0.8
	l-0.6-0.4l-0.6-0.1L64,145.5 M59.5,147.2H59l-0.6,0.3l-0.4,0.1l-0.5,0.5l-0.2,1v0.2l0.1,0.5v-0.5l0.6,0.7l0.2-0.2l0.2,0l0.1,0l0.4,0
	l-0.4,0l-0.1,0l-0.2,0l-0.2,0.2l-0.6-0.7v0.5l0.3,0.4l0.3,0.3l0.1,0.4l0.2,0.3l0.1,0.5l0.2,0.4l0.1,0.1l0.4,0.2l-0.4-0.9l0.4-0.2
	l-0.4,0.2l0.4,0.9l-0.4-0.2l0.4,0.3l1,0.3l0.3,0l1.5-1l0-1.1v-0.3l-0.7-1.7l-1-0.9l-0.2-0.3L59.5,147.2 M47.9,142.4l-0.2,0.2l-0.3,1
	v0.2l0.3,1.1l0.7,1.1l0.5,0.4l-0.4-0.9l-0.2-0.3l-0.1-0.3l-0.3-0.4l-0.3-0.4v-0.6l0.6,0.7l0.1-0.2l0.8,0l-0.8,0l-0.1,0.2l-0.6-0.7
	v0.6l0.3,0.4l0.3,0.4l0.1,0.3l0.2,0.3l0.4,0.9l0.1,0.1l0.4,0.2l-0.4-0.9l0.4-0.3l-0.4,0.3l0.4,0.9l-0.4-0.2l0.3,0.2l0,0.1l1.1,0.3
	l0.3,0l1.5-1l0.1-1.1v-0.3l-0.7-1.7l-1-0.9l-0.2-0.2l-0.5-0.2h-0.5l-0.6,0.3l-0.4,0.1L47.9,142.4 M57.7,138.7l-0.2,0l-0.7-0.2
	l-1.3,0.7l0.6,0.1l0.6,0.4l0.5,0.7l0.2,0.8l-0.1,0.6l-0.3,0.4l1.2-0.7l0.4-0.5l0.1-0.2l-0.2-1.1L57.7,138.7 M54.9,140l0.6,0.5
	l0.5,0.7l0.2,0.8l-0.1,0.7l-0.3,0.3l1.3-0.7l0.3-0.4l0.1-0.6l-0.2-0.8l-0.5-0.7l-0.6-0.4l-0.6-0.1l-1.2,0.7L54.9,140 M53,140.7
	l0.5,0.1l0.6,0.4l0.5,0.7l0.2,0.8l-0.1,0.7l-0.4,0.4l1.3-0.7l0.3-0.3l0.1-0.7l-0.2-0.8l-0.5-0.7l-0.6-0.5l-0.6-0.1L53,140.7
	 M53.6,140.8l-0.5-0.1l-2.5,1.5l1,0.9l0.7,1.7v0.3l2.2-1.3l0.4-0.4l0.1-0.7l-0.2-0.8l-0.5-0.7L53.6,140.8 M188.4,29.9l0-1.7
	l-0.1,0.3l-0.6,0.4l-0.8,0.2l-0.9-0.1l-0.7-0.3l-0.3-0.4l0,1.8l0.3,0.4l0.7,0.3l0.9,0l0.8-0.2l0.5-0.4L188.4,29.9 M188.4,31.6v-1.8
	l-0.1,0.5l-0.5,0.4l-0.8,0.2l-0.9,0l-0.7-0.3l-0.3-0.4v1.8l0.3,0.4l0.2,0.1l0.5,0.2l0.9,0.1l0.8-0.2l0.5-0.3l0.1-0.1L188.4,31.6
	 M188.4,26.2l-0.1,0.6l-0.5,0.4l-0.8,0.2l-0.9-0.1l-0.7-0.2l-0.3-0.4v1.8l0.3,0.4l0.7,0.3l0.9,0.1l0.8-0.2l0.6-0.4l0.1-0.3V26.2
	 M188.4,26.2l0-1.5l-0.3,0.2l-1.8,0.2l-1.3-0.3l0,1.8l0.3,0.4l0.7,0.2l0.9,0.1l0.8-0.2l0.5-0.4L188.4,26.2 M187.5,22.1v0.6l0.4,0.5
	l0.5-0.3L187.5,22.1 M186.6,21.2l-0.4,0.1v1l0.4,0l0.3,0v-1L186.6,21.2 M185.7,22.7V22l-0.4,0.4l-0.4,0.5l0.5,0.3L185.7,22.7
	 M184.8,21.3l-0.1,0.1l-0.7,0.7l-0.1,0.7l0.1,0.4v0.7l0.3,0.4l0.5,0.4l0.3,0.1l1.3,0.3l1.8-0.2l0.3-0.2l0.9-0.6l0.1-1.8l-0.1-0.2
	l-0.7-0.8h-0.1l-0.5-0.2l-0.1,0.2l-0.1,0.1l0.1-0.1l0.1-0.2l-0.1,0l-0.4,0l-0.5,0.2v1l0.2,0.1l0.3-0.3l0.1,0.1V22v-0.4V22l0.4,0.4
	l0.5,0.5l-0.5,0.3l-0.4-0.5l-0.5-0.4l-0.3,0l-0.4,0l-0.5,0.4l-0.4,0.5l-0.5-0.3l0.4-0.5l0.4-0.4v-0.4l-0.9-0.1l0.4-0.3L184.8,21.3
	 M178.3,24.6l-0.5,0.4l-0.9,0.2h-0.9l-0.7-0.3l-0.3-0.5v1.8l0.3,0.4l0.2,0.1l0.5,0.2l0.9,0.1l0.9-0.2l0.4-0.3l0.1-0.1l0.1-0.5v-1.8
	L178.3,24.6 M177.7,23.2l-0.8,0.2l-0.9-0.1l-0.7-0.3l-0.3-0.4l0,1.8l0.3,0.5l0.7,0.3h0.9l0.9-0.2l0.5-0.4l0.1-0.5l0-1.8l-0.1,0.5
	L177.7,23.2 M174.9,19.1l0,1.8l0.3,0.4l0.7,0.2l0.9,0.1l0.8-0.2l0.5-0.4l0.1-0.6V19l-0.3,0.2l-1.8,0.2L174.9,19.1 M175,20.9v1.8
	l0.3,0.4l0.7,0.3l0.9,0.1l0.8-0.2l0.5-0.4l0.1-0.5l0-1.8l-0.1,0.6l-0.5,0.4l-0.8,0.2l-0.9-0.1l-0.7-0.2L175,20.9 M175.7,16.9
	c0-0.1,0-0.2,0-0.3v0l0-0.3l-0.9,0.9l0.3,0.1l0.2,0.2L175.7,16.9 M176.2,15.6l-0.5-0.1l-0.4,0l-0.5,0.3l0.9,0.1c0,0.1,0,0.2,0,0.4
	c0,0,0,0,0,0.1v0l0,0.3v0c0,0.1,0,0.2,0,0.3l0.5-0.4V15.6 M176.9,16.5v-1l-0.3-0.1l-0.4,0.1v1l0.4,0L176.9,16.5 M177.4,16.4v0.6
	l0.4,0.5l0.5-0.3L177.4,16.4 M177.8,15.3l-0.4,0l-0.5,0.2v1l0.2,0.1l0.2-0.4l0.1,0.1v-0.1v-0.5v0.5l0.9,0.9l-0.5,0.3l-0.4-0.5
	l-0.5-0.4l-0.3,0l-0.4,0l-0.5,0.4l-0.4,0.5l-0.2-0.2l-0.3-0.1l0.9-0.9v0c0,0,0,0,0-0.1c0-0.1,0-0.2,0-0.4l-0.9-0.1l0.5-0.3l-0.5,0.2
	l-0.1,0.1l-0.7,0.7l-0.2,0.7l0.1,0.4l0,0.7l0.3,0.4l0.5,0.4l0.3,0.1l1.3,0.3l1.8-0.2l0.3-0.2l0.9-0.6l0.1-1.1l0-0.7l0-0.2l-0.7-0.7
	L177.8,15.3v0.3V15.3L177.8,15.3 M138.1,44l-0.5,0.1c-5.4,2.1-10.8,5.3-16.1,9.4c-4.7,3.7-9.2,8-13.5,13l-4.4,5.4l0.8,0.5l0.4,0
	l0.3-0.3l4.4-5.4c5.4-6.4,11.3-11.7,17.6-16c3.7-2.5,7.3-4.5,10.9-6L138.1,44 M138.1,44l0.3-1.5l-0.2,0.4l-5.3,2.1
	c-8.9,4.2-17.5,11.1-25.9,20.5l-4.6,5.7l1.1,0.6l4.4-5.4c4.2-5,8.7-9.3,13.5-13c5.3-4.1,10.7-7.3,16.1-9.4L138.1,44 M138.3,41.1
	l0.3-0.9l-5,1.6c-5.4,2.1-10.8,5.2-16.1,9.4c-4.8,3.7-9.3,8.1-13.5,13l-4.4,5.6l1.1,0.6l4.9-6l5.1-5.6l5.4-4.9l5.5-4.3l5.7-3.6
	l5.6-2.8L138.3,41.1z"/>
<path class="st2" d="M153.1,29.8l-0.4-0.2l-3.1,12.1l3.4-0.3l-0.4,0h-2.5h2.5l0.4,0l0.6,0l1.8,0.1l-0.6-0.3l-3-0.3l0.1-0.6l0.2-0.8
	l0-0.3l0.5-1.9l-0.1-0.6l0-0.1l0-0.1l-0.1-0.9l0.1-2.4L153.1,29.8 M144,24.9V25l-1.3,5.1l-1.5,4.1l-0.9,2.3l-1.5,2.8l0,0l0.4,0.2
	l1.5-1l2.4-2.5l1.7-2.9l1.6-6.1l-0.4-0.8l0-0.3v-0.2l0.1-0.6l-2.8-1.7l0.4,0.7l0.3,0.1l-0.2,0l0.2,0.4L144,24.9 M169.5,20.5l-1-0.1
	l-0.6,0.1l-1.7,0.6c-1.9,1-3.5,2.7-4.7,5.1c-1.2,2.5-1.6,4.7-1.1,6.7l0.7,1.4l0.9,0.6l0.7,0.4l0.5,0.1h0.6l2-0.6l1.9-1.3l1.8-2
	l1.3-2.4l0.8-2.5l0.2-2.3l-0.6-1.9l-0.6-0.9l-0.8-0.7L169.5,20.5 M168.5,20.3l1,0.1L140.1,3.6l-1.3-0.1c-2,0-3.8,1-5.4,3
	c-0.4,0.5-0.9,1.2-1.3,1.9c-0.4,0.8-0.8,1.6-1.1,2.3c-0.8,2.3-0.7,4.3,0.3,6l0.5,0.7l0.4,0.3l0.6,0.4l0.2,0.1l10.2,5.9l-0.2-0.5
	l0.2,0l2.8,1.7l0.4,0.2l1,1l-1-1l-0.4-0.2l-0.1,0.6v0.2l0,0.3l0.4,0.8h0.3l0.7-0.3l-0.7,0.3h-0.3l-1.6,6.1l-1.7,2.9l-2.4,2.5l-1.5,1
	l-0.8,2.9l-0.3,1.5l4.5-1.5l-4.5,1.5l-0.1,0.7c3.7-1.5,7.3-2.6,10.8-3.1l0.8,0l3.1-12.1l-4-2.3l-0.2,0l-0.6-0.3l-0.1-0.1l-0.2,0.1
	l-4,15.6l4-15.6l0.2-0.1l0.1,0.1l0.6,0.3l0.2,0l4,2.3l0.4,0.2l8.9,5.1l-0.9-0.6l-0.7-1.4c-0.5-2-0.2-4.3,1.1-6.7
	c1.2-2.4,2.7-4.1,4.7-5.1l1.7-0.6L168.5,20.3z"/>
<path id="Layer0_5_1_STROKES" class="st3" d="M162,34.8l-0.9-0.6l-0.7-1.4c-0.5-2-0.2-4.3,1.1-6.7c1.2-2.4,2.7-4.1,4.7-5.1l1.7-0.6
	l0.6-0.1l1,0.1L140.1,3.6l-1.3-0.1c-2,0-3.8,1-5.4,3c-0.4,0.5-0.9,1.2-1.3,1.9c-0.4,0.8-0.8,1.6-1.1,2.3c-0.8,2.3-0.7,4.3,0.3,6
	l0.5,0.7l0.4,0.3l0.6,0.4l0.2,0.1l10.2,5.9l-0.2-0.5l0.2,0l2.8,1.7l0.4,0.2l1,1 M169.5,20.5l0.4,0.2l0.8,0.7l0.6,0.9l0.6,1.9
	l-0.2,2.3l-0.8,2.5l-1.3,2.4l-1.8,2l-1.9,1.3l-2,0.6h-0.6l-0.5-0.1l-0.7-0.4l-8.9-5.1l-0.8,3.7l-0.1,2.4l0.1,0.9l0,0.1L153,37
	l0.9,0.1L154,37l0.7,0.1l1.3,0.6c0.4,0.2,0.6,0.4,0.7,0.7l0.1,0.6l-0.1,0.3l8.8,5l0.1-0.1l0.5-0.1l0.7,0.1l1.4,0.5l0.6,0.5l0.2,1
	l0,0.2l8.1,4.6l1,0.6l0.3,0.1l1.2,0.9l4,2.6l3.4,3.6l2.8,4.3l2.1,5.1l1.5,5.6l0.8,6.2l-0.7,0.4l-3.8-2.2l-5.7,3.2l-2-1.1h-1.6H180
	l-1.8,1l-1.5,1.5l-1.2,2l-0.5,0.6l-0.6,0.4l-0.6,0.2h-0.6L173,86h0l-0.1-0.1l0,0l-0.4-0.2l-0.7-0.1l-0.5,0.1l-0.5,0.2l-4.6,2.6
	l-1.7,1.3l-1.5,1.6l-1.3,2l-1,2.2l-0.6,2.2l-0.2,2.1l0,1.5l0.4,1.4l8.7,20.5l0.4,1.5l0.2,1.3l0,4.1l-4.6,5.9v0.7l-2.5,3.1v0.3l0,1
	l-0.4,1.2l-0.7,1.2l-0.9,1l-1.2,0.8l-1.8,0.7l-0.4,0.5l1.2-0.3l1.3-0.5l1.1-0.8l1-1l0.6-1.1l0.4-1.1l0.1-2.3v0v0l0.1,0.1l0.1,0.2
	l0.4,0.7l0.4,0.6l0.3,0.3l0,0.1l0.3,0.4l0.2,1.1l-0.1,1.2l-0.4,1.1l-0.6,1.1l-1,1l-1.2,0.8l-0.9,0.4c-0.8,0.3-1.7,0.4-2.5,0.3
	c-0.7-0.1-1.3-0.3-1.8-0.7c-0.1-0.1-0.3-0.3-0.4-0.4l1.8,0.3l1.2-0.1l1.1-0.3l1.1-0.6l1-0.7l1.5-2.1l0.4-1.3l0-1.2l-0.2-0.9
	l-0.3-0.6l0.2,0.7l0,1l-0.1,1l-1,1.9l-0.9,1l-1.1,0.8l-1.2,0.6l-1.3,0.3l-1.2,0l-0.7-0.2l-2.1,2.7l-3.1,1.7l-12.9-7.4l-2.4-1.9
	c-1.5-0.2-3.1-0.6-4.8-1.3c-1.2-0.5-2.4-1-3.7-1.5l-1.1,1.4l-0.4-0.1l0,0l-0.1-0.2h-0.4l-1.6-0.9l-0.5-0.1l1.5,0.9 M177.9,15.4
	L177.9,15.4h-0.4l-0.5,0.2v1l0.2,0.1l0.2-0.4l0.1,0.1v-0.1v-0.5 M175.3,15.4l0.6-0.2l1.3,0l0.6,0.2h0v0l0.7,0.3l0.7,0.7l0,0.2l0,0.7
	l-0.1,1.1l-0.9,0.6v1.5l0,1.8l0,1.8v1.8l-0.1,0.5l-0.1,0.1l-0.4,0.3l-0.1,0.1l-0.2,0.2l-0.3,0.1l-0.4,0.1h-0.3l-0.7-0.2l-0.3-0.4
	l-0.2-0.1l-0.3-0.4v-1.8l0-1.8v-1.8l0-1.8l-0.3-0.1l-0.5-0.4l-0.3-0.4l0-0.7l-0.1-0.4l0.2-0.7l0.7-0.7l0.1-0.1L175.3,15.4l0.4,0
	l0.5,0.1l0.4-0.1l0.3,0.1 M177.9,15.4l0,0.2 M177.1,16.7l0.3,0.3l-0.5-0.4l-0.3,0l-0.4,0l-0.5,0.4l-0.4,0.5l-0.2-0.2l-0.3-0.1
	l0.9-0.9v0c0,0,0,0,0-0.1c0-0.1,0-0.2,0-0.4l-0.9-0.1l0.5-0.3 M178.4,17.1l-0.9-0.7v0.6l0.4,0.5L178.4,17.1l-0.9-0.9 M175.7,16.3
	l0,0.3v0c0,0.1,0,0.2,0,0.3 M176.2,15.6v1 M175,20.9l0.3,0.4l0.7,0.2l0.9,0.1l0.8-0.2l0.5-0.4l0.1-0.6 M174.9,19.1l1.3,0.3l1.8-0.2
	l0.3-0.2 M186.2,21.3l-0.5-0.1l-0.4,0l0.6-0.2l1.3,0l0.6,0.2h0.1v0l0.5,0.2h0.1l0.7,0.8l0.1,0.2l-0.1,1.8l-0.9,0.6l0,1.5v2l0,1.7
	v1.8l-0.1,0.5l-0.1,0.1l-0.5,0.4l-0.2,0.2l-0.2,0.1l-0.4,0.1h-0.4l-0.7-0.2l-0.3-0.4l-0.2-0.1l-0.3-0.4v-1.8l0-1.8v-1.8l0-1.8
	l-0.3-0.1l-0.5-0.4l-0.3-0.4v-0.7l-0.1-0.4l0.1-0.7l0.7-0.7l0.1-0.1l0.4-0.1l-0.4,0.3l0.9,0.1V22v0.7l0.5-0.4V21.3l0.4-0.1l0.3,0.1
	l0.5-0.2l0.4,0l0.1,0l-0.1,0.2l-0.1,0.1 M185.7,22.7l-0.4,0.5l-0.5-0.3l0.4-0.5l0.4-0.4 M187,22.3l-0.3,0l-0.4,0 M187,22.3l0.2,0.1
	l0.3-0.3l0.1,0.1V22v-0.4 M187.5,22.7l-0.3-0.3 M188.4,22.9l-0.9-0.7v0.6l0.4,0.5L188.4,22.9l-0.5-0.5l-0.4-0.2 M187.5,22l0.4,0.4
	 M187,21.3v1l0.5,0.4 M131,10.8l-0.4-0.6c-0.6-0.6-0.6-1.5,0-2.6c0.6-1.1,1.3-1.5,2.2-1.3l0.6,0.3 M149.6,41.7l3.1-12.1l-4-2.3
	l-0.2,0l-0.6-0.3l-0.1-0.1l-0.2,0.1l-4,15.6 M146.1,25.3l-0.1,0.6v0.2l0,0.3l0.4,0.8h0.3l0.7-0.3 M143.4,24.3L143.4,24.3L143.4,24.3
	l0.2,0.1l-0.4-0.7 M143.4,24.3l-0.1-0.1l0,0L143.4,24.3L143.4,24.3l0.1,0.1l0.1,0l0-0.1l0.3,0.1l-0.2,0l0.2,0.4l0.1,0.1V25l-1.3,5.1
	l-1.5,4.1l-0.9,2.3l-1.5,2.8l0,0l0.4,0.2l1.5-1l2.4-2.5l1.7-2.9l1.6-6.1 M143.9,24.8L144,25 M138.8,39.3l-5,1.6
	c-10.6,4.2-20.6,11.7-29.9,22.5L99.4,69l-0.1,0.4l0.2,0.3l0.1-0.6l3.1-4c7.2-8.6,14.7-15.2,22.4-19.8c0.3-0.1,0.5-0.3,0.8-0.4
	c0.3-0.2,0.7-0.4,1-0.6c0.3-0.2,0.7-0.4,1.1-0.6c1.8-0.9,3.6-1.7,5.4-2.4c0.5-0.2,1.1-0.4,1.6-0.6l0.6-0.2l3-0.9L138.8,39.3
	 M138.7,39.6l-0.1,0.5l-5,1.6c-5.4,2.1-10.8,5.2-16.1,9.4c-4.8,3.7-9.3,8.1-13.5,13l-4.4,5.6l1.1,0.6l4.9-6l5.1-5.6l5.4-4.9l5.5-4.3
	l5.7-3.6l5.6-2.8l5.6-2l0.3-0.9 M141.2,34.2l-4.5,0.3l-4.9,1c-8,2.3-15.9,6.6-23.5,13c-7.1,5.9-13.6,13.2-19.3,21.9
	c-5.6,8.4-10,17.2-13.2,26.4c-3.3,9.4-5,18.2-5.1,26.5l0.1,5.9l2.9,1.6 M75.1,130.1c-0.4-0.5-0.6-1.1-0.7-1.8
	c-0.1-0.9,0.1-1.5,0.8-1.8h0.6l0.6,0.3l0.6,0.5l0.1,0.1l0.1,0l0.5,0.5l0.4,0.7l0.1,0.7l0,0.2l0,0.1l0.1,0.8l-0.1,0.8l-0.4,0.5
	l-0.7,0.2l-0.7-0.3l-0.6-0.5l-0.6-0.7C75.2,130.2,75.1,130.2,75.1,130.1z M132.9,40.7l0.1-0.2l-0.1-0.2l-0.3-0.3l-0.5-0.1h-0.5
	l-0.4,0.1l-0.2,0.2l0.1,0.3 M132,40.8h0.3 M131.4,50l0.6-0.3l0.2-0.3l-0.1-0.3l-0.3-0.2l-0.5-0.1h-0.5l-0.4,0.2l-0.2,0.3l0.1,0.4
	l0.3,0.2L131,50 M123.1,45.4l0.5-0.1l0.4-0.2l0.2-0.2l-0.1-0.4l-0.4-0.2l-0.5-0.1l-0.5,0.1l-0.4,0.2l-0.2,0.3l0.1,0.3l0.3,0.3
	 M122.4,55.1l-0.5,0.2l-0.4,0.3l-0.2,0.3l0.1,0.4l0.3,0.3l0.5,0.1l0.5-0.1l0.3-0.3l0.2-0.3l-0.1-0.3l-0.3-0.3L122.4,55.1z M138,44.8
	c3.7-1.5,7.3-2.6,10.8-3.1l0.8,0l3.4-0.3l-0.4,0h-2.5 M148.6,42.7l0.2,0.1 M149.7,42.8l0.2-0.1l-0.1-0.2l-0.3-0.2L149,42l-0.9,0
	l-0.2,0.2l0.3,0.3 M141,45.3l0.1-0.2l-0.1-0.3l-0.3-0.3l-0.5-0.1h-0.5l-0.4,0.1l-0.2,0.2l0.1,0.3 M138.1,44l4.5-1.5 M138.4,42.6
	l-0.2,0.4l-5.3,2.1c-8.9,4.2-17.5,11.1-25.9,20.5l-4.6,5.7l1.1,0.6l4.4-5.4c4.2-5,8.7-9.3,13.5-13c5.3-4.1,10.7-7.3,16.1-9.4
	l0.5-0.1 M138,44.8c-3.6,1.5-7.2,3.5-10.9,6c-6.3,4.3-12.2,9.6-17.6,16l-4.4,5.4l-0.3,0.3l-0.4,0l-0.8-0.5 M111.1,92.2
	c0,0,0.1-0.1,0.1-0.2c0.5-0.9,1-1.7,1.5-2.6l1.1-1.6l1-1.6l1.6-2.5l4.8-6.4c3.4-4.2,6.9-8,10.7-11.3l0,0l0.1-0.1
	c2.3-2,4.7-3.9,7.1-5.7c0.3-0.2,0.7-0.5,1-0.7c0.4-0.3,0.8-0.6,1.2-0.8c0.1-0.1,0.2-0.1,0.3-0.2c0.1-0.1,0.2-0.1,0.3-0.1l0,0
	c0.3-0.2,0.7-0.5,1.1-0.7c0.4-0.2,0.8-0.4,1.2-0.7c0.8-0.5,1.6-1,2.5-1.4c0.5-0.3,1.1-0.5,1.6-0.8c2.6-1.3,5.2-2.3,7.8-3.1
	c1.6-0.5,3.2-0.9,4.8-1.1c0.2,0,0.4-0.1,0.6-0.1l1.3-0.1l1.1-0.1l0.1-0.3 M141.5,58.6l-0.1,0.5l0.2,0l0.2-0.7 M142.2,58.2L142,59v0
	l2.2-0.6l-0.1-0.4l-0.9-0.5 M142,59l-0.3,0.1 M142.1,58.2L142,59 M141.4,59.1l-1.1,0.3 M156.3,51.5l-1,2.1l0.1,0.9l-0.4,1.5
	l-0.3,0.7l-0.5,0.6l-0.4,0.3l-0.4,0.2l-0.4,0.2l-0.9,0.1h-0.3L148,58l-1.9,0.3l-2,0.2 M144.1,58l0.3-1.2 M152,56.3l-1.8-1l-0.4-0.1
	l-1.2-0.6 M147,55.6l2.8,0.4l2.6,0.8l0.1-0.1l-0.4-0.2 M146.8,55.4l-0.7,2.8 M139.2,39.6l-0.8,2.9l-5.4,2.1
	c-9.1,4.4-17.8,11.3-26.1,20.7l-4.7,5.9l0.3,0.1 M135.7,40.5l-2.2,0.8 M138,42.4l0.3-1.3 M105.3,58.6l-0.4,0.3l-0.1,0.4l0.1,0.4
	l0.3,0.2l0.5,0l0.4-0.2l0.4-0.3l0.1-0.4l-0.1-0.4l-0.4-0.2l-0.5-0.1L105.3,58.6z M115.2,50.8l-0.3-0.3l-0.5-0.1l-0.5,0.1l-0.4,0.3
	l-0.1,0.3l0.1,0.3l0.3,0.3l0.5,0l0.5-0.1l0.4-0.2l0.1-0.4L115.2,50.8z M114.3,63.1l-0.4,0l-0.5,0.1l-0.4,0.4l-0.2,0.4l0.1,0.4
	l0.3,0.3l0.4,0l0.5-0.1l0.4-0.4l0.2-0.4l-0.1-0.4L114.3,63.1z M105.2,72.9l-0.2,0.4l0,0.4l0.4,0.3l0.4,0.1l0.5-0.2l0.4-0.3l0.2-0.4
	l-0.1-0.4l-0.3-0.3l-0.4-0.1l-0.5,0.1L105.2,72.9z M98.5,67.9L98,67.8l-0.4,0.1l-0.4,0.3l-0.1,0.4l0,0.4l0.3,0.3l0.4,0.1l0.5-0.1
	l0.4-0.3l0.2-0.5l0-0.4L98.5,67.9z M90.5,76.2L90.4,76c-0.4-0.7-0.3-1.4,0.3-2.1c0.6-0.7,1.2-0.9,1.9-0.7l0.3,0.1 M91,74.2l0.6,0.2
	l0.2,0.1l0.1-0.6 M91.2,74.7l0.3,0.2L91,75.2 M91.3,76.8l0.3,0.1l0.3,0l0.3,0l0.5-0.1l0.6-0.4l0.4-0.5l0.2-0.6v-0.6L93.7,74
	l-0.3-0.4l-0.3-0.2 M90.7,76.4l0.3,0.2 M100.6,70.4l1.6,0.9 M103.4,81.6l0.4,0.3h0h0.4 M103.1,81.1c0,0.3,0.2,0.3,0.4,0.1l0.5,0.2
	l0-0.6 M105,80.2l-0.3-0.1c-0.7-0.2-1.4,0.1-1.9,0.8c-0.6,0.7-0.7,1.4-0.3,2l0.2,0.2 M103.1,82.1l0.7-0.1 M103.2,83.6l0.2,0.1l0.2,0
	h0.6l0.6-0.3l0.5-0.4l0.3-0.5l0.2-0.6v-0.6l-0.1-0.5l-0.3-0.4l-0.3-0.1 M102.8,83.3l0.2,0.2 M114.8,86.3h0.4l0.3-0.1l0.6-0.3
	l4.6-3.4l-0.3-0.2h-0.4l-0.4,0.1l-0.4,0.3l-1.5,1.5l-0.3-0.1l-1.3,1 M118.6,82.5l0-0.3 M119,82.1l0-0.3 M119.3,81.7l0-0.3
	 M119.7,81.3v-0.3 M117.5,84.3l0.1-0.9l0.2-0.1l0-0.4 M116.5,83.7l0.8,0.4 M118.7,87.2l-0.3,1.6l0.1,1.3l0.6,1l10.7,9.7l0.4,0.3
	l0.6,0.2l0.7,0l0.7-0.2l1.3-0.9l0.5-0.4l1-0.6l2.2-0.9l1.4-1l1.2-1.5l14.6-31l0.1-1.3c0.1-1.9-0.6-2.9-2.2-3.1
	c-2.2,0.1-3.7,0.2-4.7,0.3l-5.4,1.3c-1.5,0.5-2.6,0.9-3.4,1.3c-1.3,0.5-2.4,1.1-3.1,1.8l-0.9,0.7l-0.3,0.4l-1.1,2l0.2,0l-0.6,0.7
	l-0.2,0.9l-0.6,1.2l-0.9,1.2v0.4l-1.5,1.5l-4.2,5.7l-0.9,1l-3.1,2.3l-1.2,1.1l-1,1.5L118.7,87.2z M118.2,82.8l0-0.3 M111.1,92.2
	l4.1,3.6l2.6,2.3v-0.1l-6.7-6 M146.5,64.2l-0.7,3.5l0.2-0.1l0.7-0.3l0.2,0h0.2l0.2-0.9v-0.6l-0.2-1.1l-0.3-0.5l-0.3-0.3c0,0,0,0,0,0
	c-0.6-0.1-1.9,0-3.9,0.4l-1.3,5.1h0.2l0.6,0l0.6,0.2l0.4,0.4l0.3,0.6l0.1,0.7l-0.1,0.9l-1.1,5.7l2.6-5.5l0.9-4.9 M145,65.8l0.1-0.6
	l-0.1-0.4l-0.3-0.2l-0.4,0.1l-0.4,0.4l-0.3,0.5l-0.1,0.6l0.1,0.4l0.3,0.2l0.4-0.1l0.4-0.3L145,65.8z M145,72.5l2-4.2l0.1-0.3
	l0.1-0.3l0.1-0.3v-0.2 M146.7,63.9c1.3,0.3,1.8,1.7,1.3,4l-11.5,24.7l-0.8,1.4l-1,1.2l-1.1,0.8l-1.1,0.4h-1l-0.7-0.4h-0.1l-3.1-2.8
	l-1.2-1l-2.9-2.6l-0.5-0.7l-0.3-1l0-1.2l0.3-1.3l0.6-1.3l0.8-1.2l8.7-11.4l3.1-4.2l1-0.9l0.9-0.6 M140.8,65.1c0,0.2-0.2,0.3-0.5,0.4
	h0c-0.2,0-0.3,0-0.4,0c-0.1,0-0.2,0-0.2,0h-0.3l-0.6-0.1l-0.2,0.6l0.4,0c0.2,0,0.5,0.1,0.9,0c0.1,0,0.2,0,0.3,0c0,0,0,0,0.1,0
	c0,0,0.1,0,0.2-0.1c0.7-0.1,1-0.5,0.9-0.9 M137.3,66.3v0.3l0,0.3l-0.1,0.4l-0.2,0.3l-0.5,0.4 M140.4,66.6c-0.1,0.2-0.2,0.3-0.5,0.4
	c-0.2,0-0.3,0-0.4,0c-0.1,0-0.2,0-0.2,0h-0.5l-0.4,0l-0.1,0.4l0.2,0.2h0.1h0.3c0.1,0,0.2,0,0.3,0c0.2,0,0.3,0,0.4,0c0,0,0.1,0,0.1,0
	c0.2-0.1,0.4-0.1,0.5-0.2h0l0.2-0.1c0.2-0.1,0.3-0.3,0.4-0.6 M139.9,68.2l-0.4,0.1l-0.3,0.1h-0.2h-0.7h-0.4l-0.1,0.5
	c0.2,0,0.3,0,0.4,0.1c0.3,0,0.5-0.1,0.7-0.1c0.2,0,0.3,0,0.5,0c0,0,0,0,0.1,0c0.2,0,0.4-0.1,0.6-0.2c0,0,0.1-0.1,0.1-0.1
	c0.3-0.2,0.4-0.4,0.4-0.7 M138.6,67.6l-0.3,0.9 M137.9,68.5l0.3-1.1 M138.3,67l0.2-0.9 M138.7,65.5l1.2-0.4l0.4-0.1l0.2-0.1l1.5-0.4
	c0.2,0,0.5-0.1,0.7-0.1 M140.2,66.1l0.1,0.2 M140.3,65.5l0.1-0.6 M139.8,65.5l0.1-0.4 M140,68.8l0.2,0.3l0-0.3l-0.1-0.1 M139.7,67.6
	l-0.2,0.8 M139.8,67.6l0.1,0.2 M139.1,68.5l0.2-0.9 M139.5,67l0.4-0.9 M139.9,67l0.2-0.9 M138.7,67l0.3-0.9 M141.7,69.4l-0.2,0.1
	l-1.2-0.7 M141.5,69.4L141.5,69.4 M139.4,69l0.2,0.2 M139.4,69l-0.2,0.9l0.4-0.1l0.1-0.2 M138.9,69l-0.2,0.9h0.3l0.2-0.1
	 M138.7,69.9H138h-0.4l0,0.1l-0.2,0l-0.3,0.1l0.5,0.2l0.2,0h0.1h0c0.2,0,0.4,0,0.6,0c0.2,0,0.3,0,0.5,0c0,0,0,0,0.1,0
	c0.1,0,0.2,0,0.3,0c0.1,0,0.2-0.1,0.3-0.1c0.1,0,0.1-0.1,0.2-0.1c0.2-0.2,0.3-0.4,0.4-0.7 M139.1,70.4l0.2,0.2 M139.7,70.3l0.2,0.3
	l0-0.5 M139.1,73.1l0.2-0.1l0.1-0.1l0.1-0.4v-0.3 M138.6,71.9v0.2l-0.1,0l-0.4,0.4v-0.1l0.1-0.1l0.1-0.4l-0.3,0.4l-0.7,0.4l0.2-0.9
	l0.3,0L138.6,71.9l0.1,0l0.3,0l0.3-0.2l0.2,0l-0.1,0.3 M138.2,69.1l-0.2,0.8 M137.6,69.9l0.3-0.9 M130.6,94.7l0.6-0.3l0.8-0.4
	l2.1-0.4l0.5,0.1h0.1l0.6-0.9l0.1-0.3l0.1,0l-0.7-0.1l-0.7,0l-1.5,0.3l-2.5,1l-0.8-0.1l-0.6-0.4l-0.3-0.8l0-1l0.2-1.2l0.5-1.6l0-0.1
	l2.9-8.9l0.1-0.4l0.4-1.1l0.4-1.4l0.4-1.3l0.8-2.2l0,0l0.2-0.4l0.2-0.4l0.6-0.7v0l0.6-0.4l0.7-0.6l0.1-0.1l0.2,0l0.2-0.1
	 M135.4,72.4l-0.6-0.2l-0.1-0.1l0.2-0.1l0.3,0.1L135.4,72.4l1.2,0.3l-0.2-0.6l0-0.4h-0.1l0,0.3l-0.3,0.4v-0.1l-0.2-0.6l-0.1-0.1
	l0,0.3l0,0.1l0,0.1v-0.3 M136.6,71.8l0.3,0 M139.2,71.1l-0.3,0.1l-0.1,0l-0.4,0.1h-0.7l-0.3,0l-0.7-0.1l-0.3,0h0l-0.4-0.3
	 M135.2,71.4l0.6,0.3l0.3,0.1 M136.5,72.7l0.2,0l0.3-0.4l0.1-0.4 M136.8,73.2l0.1,0.2l0.9,0l0.4-0.1l0.3-0.1l0.2-0.1 M134.4,72.6
	l0.3,0.2l0.1,0.1h0.3l1.4,0.4 M138.5,72.1l0.1-0.2 M138.8,72.1l-0.1-0.3 M136.7,72.7l0.8,0.1h0.3l0.8-0.1l0.3-0.1 M138.3,71.4
	l0.1-0.9 M136.3,71.2l0.3-0.8 M137.6,71.4l0.2-0.9 M137.3,71.3l0.2-0.9 M136.6,71.3l0.3-1 M138.5,74.6l0.2-0.1 M137.9,73.4l-0.1,0.6
	l0.2,0.2c0.3-0.1,0.5-0.2,0.6-0.3 M135.1,72.9l-0.2,0.9l0.6,0.2l1.5,0.3l0.4,0c0.1,0,0.2,0,0.3,0l0.1-0.3 M137.3,75.7l0.4,0
	l-0.3-0.2L137.3,75.7l-0.3,0.1h-0.3l-1.9-0.3l-0.4-0.1l-0.4-0.2l-0.1-0.1 M137.7,75.7L137.7,75.7l0.4-0.3 M138.1,75l-0.2-0.3
	l-0.4,0.1l-0.1,0.6 M138.8,75.4v-0.3 M137.9,74.8l0.4,0 M137.7,74.2c0.1,0,0.2-0.1,0.3-0.1 M137.5,74.9h-0.7l-1.4-0.3l-0.6-0.2
	l-0.2,0.9l0.2,0.1 M136,77.7c0.3,0,0.5,0,0.7,0c0.1,0,0.3,0,0.4,0h0c0.6-0.1,1-0.3,1.2-0.7l0-0.4 M135.2,77.7l0.3,0 M137.9,76.2
	l-0.3,0.1h0l0.1,0.2l-0.2,0.5l-0.2,0.1l-0.3,0h-0.1l-0.6,0l-1.6-0.2l-0.5-0.1l-0.2-0.1l-0.3-0.2l0,0l0.3-0.1h0.1l0.1,0l-0.2,0
	 M138.2,76.1l0.1,0.2 M137.6,76.2l-0.4,0l-0.1,0.6l0.3,0.3 M137.2,77.7l0.1,0.2l0,0.1v0.2l-0.1,0.1h0l-0.2,0.1l-0.3,0.2l-0.7-0.1
	l-1.5-0.1l-0.8-0.2l-0.4-0.3v0l-0.1,0l-0.1-0.1h0.1l0.1,0.1 M137.3,77.9l-0.1-0.2 M136.4,76.3h0.8 M136.9,77.1l0.1-0.3 M138.5,73.6
	l-0.1-0.2 M138.8,71.3l0.2-0.8 M161.1,50.4l-0.2,0.4l0,0.2l-2.7,5.7l-1.6,1.8l-0.9,0.5l-0.9,0.4l-0.8,0l-3.4-0.2l-3.5,0.3l-3.7,0.9
	l-3.7,1.4l-7.5,4c-0.1,0-0.1,0.1-0.1,0.1l0.3,0.8 M132.6,68.3l0.1-0.3 M132.2,68.7l0.1-0.2 M133.1,67.9l0.3,0.1 M123.4,77.5l0.1-0.2
	 M123.1,77.9v-0.3 M124.6,76.4l0.1-0.4h0.3l0.1-0.4h0.3l0.1-0.4h0.3l0.1-0.4h0.3l0.1-0.4h0.3l0.1-0.4l0.3,0l0.1-0.4l0.3,0l0-0.3
	 M123.9,77.1l0-0.3 M124.2,76.7l0-0.3 M133,68.7l-0.4,0.4l-0.8,1l-0.4,1.2l-0.1,0.6V72 M131.1,69.9l0.1-0.4l0.3,0l0-0.3 M134.3,73.5
	L134.3,73.5L134.3,73.5L134.3,73.5z M134.8,72.9h-0.6 M134.8,73.5h-0.5l0.2,0.2l0.3,0.1l0.1,0 M129.2,71.8l0.1-0.4h0.3l0.1-0.4h0.3
	l0.1-0.4h0.3l0.1-0.3h0.2l0.1-0.3 M127.7,73.3l0.1-0.3h0.3l0.1-0.4h0.3l0-0.3 M128.8,72.2l0-0.3 M134.1,74.1l0.1,0.1l0.3,0.1l0.1,0
	l0.1,0 M134,75.1l0.4-0.1 M134,74.4h0.7 M135.8,76.2l-1.1-0.2c-0.1,0-0.2,0-0.3-0.1l-0.2,0.9 M133.4,75.2c0.1,0.2,0.4,0.4,0.9,0.6
	c0,0,0.1,0,0.2,0.1 M133.7,77.2l0.1,0.3l0.1,0.2l0.1-0.3C134,77.3,133.9,77.3,133.7,77.2C133.7,77.2,133.7,77.2,133.7,77.2
	c-0.5-0.3-0.8-0.5-0.8-0.6 M133.2,77.9l0.2-0.8l0,0.3l0.3,0.3l0.6,0.3l1.6,0.4h0l0.7-0.1h0l-0.2-0.1l-0.1,0l-1.2-0.1l-0.7-0.2
	l-0.7-0.3 M134,77.3c0.3,0.1,0.5,0.1,0.6,0.1 M133.4,75.8h0.9 M120.3,82.4l0.4,0.1l0.3,0.3l1.6-1.6l3.5-3.6l3.6-3.7 M131.8,69.1
	l0-0.3 M135.1,79.2l-0.4-0.1l-0.4-0.1l-0.3,0l-0.6-0.2c-0.1,0-0.2-0.1-0.3-0.1l-0.2,0.6l0.3,0.3l0.2,0.1l1.5,0.4l0.9,0.1l0.6,0
	l0.3-0.1l0.2-0.1l0.2-0.7c-0.4,0.1-0.9,0.1-1.4,0.1 M137.6,80.3l-0.1,0.3l-1.3,0.1H136l-1-0.1l-1-0.3l-0.9-0.4l-0.6-0.4l-0.3-0.4
	 M132,79.4l0.3,0.4l0.5,0.3l0,0.1l2,0.7l1.1,0.1h0.6l0.5-0.1 M132.9,81.6l-0.2,0.9l0.3-0.1l0.3-0.9l0.2,0.2v0.2l-0.3,0.9
	 M132.8,80.3l0.2,0.2l0.1,0.1l2.5,0.7h0.6l0.3,0c0,0,0.1-0.1,0.1-0.1 M133.1,80.6l0.2,0.1l0.9,0.4l0.3,0.1c0.6,0.1,1.2,0.2,1.6,0.1
	c0.1,0,0.2,0,0.3-0.1l-0.5,1.6 M134.2,83.1l0.2-0.6l0-0.2v0l0.1-0.2l0.2-0.1h0.1l0.2,0l-0.1,0.3v0.1V83l0-0.5h-0.6 M135,82.5l0-0.1
	l-0.6-0.1 M132.3,82.1l0.5-1.9 M136.1,81.3l-0.6,1.9h-0.1l-0.8,2.1l-1.1,1.7l-0.4,0.4l-0.1,0.2l-0.6,0.6l-0.4,0.3l-0.8,0.3l-0.9,0
	l-0.9-0.2l-0.4-0.1 M133.7,83l0.5-1.9 M122,79.1v-0.4 M122.4,78.7l0.1-0.4l0.3,0l0-0.3 M121.6,79.5l0-0.3 M120.5,80.6l0.1-0.4h0.3
	l0-0.3 M121.2,79.8l0-0.3 M120,80.9l0-0.3 M120.7,82.6l0.3,0.2 M122.6,81.2l1.6-1.2l1.9-2.4 M129.1,88.4l0.3,0.2 M134.7,93.7
	l-0.7,0.9l-1.3,1l-0.5,0.2l-0.9,0.2l-0.4-0.1 M134.7,93.7l-1.3,0.1l-1.5,0.3l-0.6,0.3 M127.6,93.2l4.5,2.6 M157.7,61.9l-3.1,6.5
	l0.3,0.6c1,2,1.5,3.4,1.6,4.1c0.1,1.3-0.4,2.6-1.6,4.1l-0.7,0.7l-6.5,5.1l-1.1,2.2l7.4-5.8l1.2-0.9l0.8-0.2l0.7,0.1l0.6,0.3l0.4,0.6
	l0.2,0.8l0,5.6l4.7-2.7l0.1-3.1L159,78l-0.3-0.3l-0.7,0l-0.9-0.5v-0.3l0-0.1l0-0.9l-0.1-0.2v-0.4l0.1-0.2v-0.2l0-0.3l0.4-0.5
	 M137.8,78.7l0.1-0.3l0.1-0.1V78 M137,79.1c0.2-0.1,0.4-0.2,0.6-0.3 M137.6,79.5l-0.1,0.4c-0.1,0.4-0.4,0.6-0.7,0.6l-0.5,0.3
	 M137.2,78.3l0.1-0.1 M136.7,77.7l-0.1,0.4v0.2 M135.9,78.5h0.1 M136.9,78.4l0.1,0 M135.6,92.4l0.1-0.2l6.6-14.2 M146.6,85.3l-1,2.2
	l-0.4,1.7l0,0.6l0,0.5l0.2,0.9l0.4,0.7l0.1,0l0.3,0.1h0.3l0.7-0.1l6.1-3.5l0.3-1.5l0.4-7.4 M145.9,92l0.5,0.4l0.7,0.1l0.9-0.1
	l0.9-0.4l24.7-14.4l0.9-0.6l1.5-1.6l0.6-1l0.7-2.1V72l0-0.3v-0.3l0-0.3v-0.5l-1-4l-3-6.9l-2-2.9l-2.3-2.5l-2.6-2.1l-0.4-0.2h-0.1
	l2.3,1.8l3.8,4.7l2.9,5.9l0.3,1l1.2,4.3v0l0.1,0.9l0,1l-0.3,1.4l-0.4,1l-1.3,1.9l-1.6,1.3l-10.2,5.9l1.2-2.4l-1-0.6 M132.5,77.9
	c0.1,0.2,0.3,0.4,0.6,0.6 M126.5,92.1l6.7-20.8 M164.1,50.1l0.4,0l1.1-0.1l0.9-0.1l2.8,0.2l1.8,0.1l0.3-0.9l-4.5-0.3l-4.7,0.3
	l-4.9,1.1c-8,2.3-15.8,6.7-23.4,13.1c-7.1,6-13.5,13.3-19.2,21.9c-5.5,8.3-9.9,17.1-13.1,26.4c-3.2,9.3-4.9,18.2-5.1,26.4l0.1,5.9
	l0.6-0.4l-0.1-6.2c0.1-4.3,0.7-8.6,1.6-13c0.1-0.6,0.2-1.2,0.4-1.9c0.5-2.1,1-4.2,1.6-6.3c0.1-0.4,0.3-0.8,0.4-1.2
	c0-0.3,0.1-0.5,0.2-0.7c0.2-0.6,0.4-1.2,0.6-1.8c2.3-6.9,5.4-13.7,9.2-20.3 M185,26.6l0.3,0.4l0.7,0.2l0.9,0.1l0.8-0.2l0.5-0.4
	l0.1-0.6 M184.9,24.8l1.3,0.3l1.8-0.2l0.3-0.2 M185,30.2l0.3,0.4l0.7,0.3l0.9,0l0.8-0.2l0.5-0.4l0.1-0.5 M185,28.4l0.3,0.4l0.7,0.3
	l0.9,0.1l0.8-0.2l0.6-0.4l0.1-0.3 M187.8,32.6l-0.8,0.2l-0.9-0.1l-0.5-0.2 M187.7,32.6L187.7,32.6l0.5-0.4 M175,22.6l0.3,0.4
	l0.7,0.3l0.9,0.1l0.8-0.2l0.5-0.4l0.1-0.5 M175,24.4l0.3,0.5l0.7,0.3h0.9l0.9-0.2l0.5-0.4l0.1-0.5 M177.8,26.8l-0.9,0.2l-0.9-0.1
	l-0.5-0.2 M152.8,29.6l0.4,0.2 M153,37l0.2,0.1l0.2,0.1l0.2,0.1l-0.1,0.1l-0.1,0.2c0.1,0.1,0.7,0.5,1.9,1.1l0.3,0.1 M152.4,36.9
	l0.1,0.6l-0.5,1.9l1.1,0.4l0.2,0.1l1.6,0.9l-0.2,0.5l0.6,0.3l2.6,0.2l13.5,7.7 M152.4,36.9L152.4,36.9l1,0.6 M154.7,41.2l-3-0.3
	l0.1-0.6l0.2-0.8l0-0.3 M153.2,39.8l-0.2-0.1h-0.5l-0.4-0.1 M151.8,40.4l1.1,0l2,0.3 M167.6,45.8l-0.2-0.1c-0.7-0.3-1.3-0.7-1.9-1.1
	l0.1-0.2l-8.7-5.1l0.1-0.1 M154.7,37h-0.9 M157.7,42.4h0.3l-0.1-0.1l-0.4-0.2l-1-0.4l-0.3,0l-0.1,0l0.1,0.2l0.2,0.1 M156.8,42.1
	l0.4,0.2 M155.3,41.5l-1.8-0.1l-0.6,0 M153.3,57.8l0.2-0.4l-0.2-0.2l-0.3-0.1l-0.4-0.3l-0.1-0.1 M152.4,56.8l-0.7,1.3 M153.6,57.4
	l1.8-3.7 M163.6,52.4l-1.2,0.8l-0.5,0.6l-1,1.3l-3.2,6.8l1.9,3.3l1.9,5.8l0.4,2.2l4.6,2.8l-0.9,0.3l2-0.1l0.8-0.2l0.8-0.4l0.8-0.6
	l1-1.2l-3-1.7l0-3.6l0.1-1.6l-0.1-0.7l-0.1-0.5l-0.4-0.2V65l-0.4-0.3l-0.1-0.7l-0.7-3.5l0.5-0.4l-2.2-8.1L163.6,52.4z M165.7,52.1
	L165,52l-0.3,0.1 M163,50.2l-0.4,0.3l-1.3,1.5l-0.7,1.2l-20.1,42.6l-0.3,0.9l-0.1,0.9l0,0.9l0.1,0.7l0.7,1.2l0.4,0.3l0.6,0.1h0.6
	l0.6-0.1l0.7-0.3l34-19.8l1.2-1.1l0.9-1.3l0.3-0.3l0.7-0.6l0.3-0.1l0.4,0.1l2,1.1l0.3-0.9l0.1-0.9v-0.9l-0.1-0.7l-0.3-0.6l-0.4-0.4
	l-3.4-2l-0.6-0.1l-0.7,0.1l-0.6,0.5 M165.5,44.4l0.1-0.2 M169.3,50.1l-0.6,1l-2.7-1.1h-0.1l-0.2,0.4l-0.2,0 M165.6,50l0.3,0.1
	 M169,46l0,0.1l0.1,0.1l0,0.3l8.1,4.4 M169.1,46.5l-0.4-0.1 M179.6,52.5l-1.5-1l-3.7-1.4l-2.8-0.6l-0.3,0.8l0.1,0.1l4.4,1.1l4.1,2
	l3.7,2.8l3.2,3.5l2.6,4.2l2,4.9l1.3,5.4l0.8,6 M177,67.6h1l1.1,0.3l1.4,0.8l-0.2-0.1l-0.2-0.7V67l0.2-1.2c0.3-1.5-0.4-4-2.3-7.4
	c-1.7-3-3.3-5.1-4.7-6.4l-1.9-1.6 M165.3,50.5l-0.8-0.4 M157.5,41.2l-0.6-0.2 M169.5,64.6l-0.4,0.4l0,0h0l0.1,0l0.1-0.2l-0.3-0.7
	l-0.3-0.3l-0.3-0.3l-0.3-0.2l-0.1,0.3l0,0l0.3,0.1l0.3,0.3l0.5,0.7l0,0.3l-0.2,0.1l-0.3-0.1l-0.3-0.2l-0.4-0.8v-0.3l0.1,0 M168,63.3
	l0.3-0.3 M167.6,65L167.6,65l0.3,0.6l0,0.1 M168.1,68.5l3.4,1.9l0.2,0.3l0.1,0.4l0.1,0.5l-0.1,0.9l-0.3,0.8l-0.4,0.6 M179.8,70.5
	l0,0.3l0.2,0.4l0.3,0.3l0.3,0.3l0.3,0.1l0.2-0.1l0-0.3l-0.4-0.7l-0.3-0.3l-0.4-0.1L179.8,70.5z M174.9,65.5l-8.5-4.9 M167.3,64.7
	l8.9,5.1 M157.7,73.7l0.4-0.5l0.2-0.2l0.1-0.2l0.6-0.6h1l0.2,0h0.1l0.6,0.1l0.9,0.5h-0.3l-0.7,0.2l-0.2,0l-0.5,0.5l-0.5,0.3l-0.7,1
	l-0.4,1.3l0.1,0.9v0.2l0.2,0.3 M159,72.2l0.9,0.5l1.6,0.1 M159.9,73.3l-0.6,0.5l-0.6,0.6l-0.4,0.8l-0.2,0.7l0,0.7l0.1,0.1l0.2-1.3
	l0.3-0.6l0.4-0.6l0.4-0.3l0-0.1l0.4-0.2 M158.3,76.8l0.2,0.4 M159.9,72.7l-1.9,2.4v2.5 M165.7,76.2l-0.9,0.8l-0.4,0.5l-0.2,0.1
	l-0.2,0.4l-0.2,0.2l-0.1,0.1l-0.2,0.2l0.2,0.7v0.7l-0.1,0.5l-0.1-1.9 M157.1,74.6l0.9,0.6 M148.9,142.3l-3.1-1.7l0.1,5.4l0.3,0.8
	l0.2,0.3l3.1,2.5l0.6,0.3l0.7,0l0.8-0.2l0.9-0.4l0.9-0.6l12.4-15.4l0.9-1.5l0.6-1.7l0.2-1.5l-0.2-3.1L167,124l-8.8-21l-0.2-1.4
	l-0.1-4.2l-0.1-1l-0.3-0.8l-0.6-0.5l-0.8-0.3l-0.9,0.1l-0.9,0.4l-10.6,6.2l-0.7,0.6l-0.6,0.7l-1,1.8l-1,2.9l-1,1.9l-1.6,2.1l-1.1,2
	l0,0.1l-0.1,0.4l-0.1,1.2l0.2,1.1 M157.8,85.9l-4.4,2.6 M172.3,85.7h0.1l0.3,0.2L173,86 M181.6,64.6l-0.1-0.2l-0.1-0.4l-0.1-0.2
	l0-0.3l-0.1-0.2 M185.6,71l-0.4-2 M181.6,71.5l-0.5,0.4l0,0l0.1-0.2L181,71l-0.7-0.5 M189.7,78.2l-1.6-0.9l-0.6,0.4l-0.3,0.1l-0.3,0
	l-0.2-0.1l-0.1-0.1l-0.2-0.7l0.1-0.6l1.6,1 M183.4,74l-0.8-4.1l-2-1.2 M182.6,69.8l2.4-1.9 M184,81.4l-0.1-2.6l-0.1-0.6 M181,80
	h-0.2l-0.4,0.3 M166.9,60.2l1.9-1.5 M180,70.4l0.4-0.5 M154.6,68.4l-6.9,14.7 M75,120.7l-0.1,0l-0.4,0.1v0.3l0.3-0.2L75,120.7z
	 M75.6,122.3c-0.3,0-0.7-0.1-1-0.4l-0.3-0.3l-0.2-0.3l-0.3-0.7l-0.1-0.4v-0.5c0-0.4,0.2-0.7,0.4-0.9l0.7-0.3 M74.7,120.9L74.7,120.9
	l0.5-0.1 M74.1,120.6l0.3,0.1l0.5-0.4 M76.5,121.9l0.3-0.5l0.1-0.6l-0.1-0.6l-0.3-0.7l-0.4-0.5l-0.5-0.4 M75.9,122.2l0.4-0.1
	 M77.1,127.3l-0.4-0.1l-0.4,0.2l-0.2,0.5l0.2,0.7l0.4,0.7l0.5,0.4l0.5,0.1l0.4-0.2l0.1-0.4 M88.8,128.5l0.1-0.4v-0.6l-0.1-0.6
	l-0.3-0.6l-0.3-0.4l-0.4-0.4 M87.7,129.2c-0.3,0-0.6-0.1-0.9-0.3l-0.6-0.6l-0.3-0.7l0-0.7c0-0.5,0.2-0.8,0.4-1l0.2-0.1l0.4-0.2
	 M86.2,127.5h0.3l0.4-0.3 M86.5,127.5h0.4l-0.4,0.3v0.3l0.3-0.1v-0.1l0.3-0.1l0.2-0.1v0.3 M87.1,127.8l-0.3,0.2v0.4 M84.8,135.7
	l-0.4-0.6l-0.3-0.8l-0.1-0.7l0.1-0.7l0.3-0.5l0.5-0.3h0.6l0.6,0.2l0.6,0.5l0.1,0.1l0.1,0l0.5,0.4l0.4,0.7l0.1,0.7l0,0.3v0l0.1,0.7
	l-0.1,0.8l-0.4,0.4l-0.7,0.2l-0.7-0.3l-0.7-0.5l-0.6-0.7L84.8,135.7z M83.3,136.5l13.3,7.6 M86.8,132.9l-0.4-0.1L86,133l-0.1,0.6
	l0.1,0.7l0.4,0.7l0.6,0.4l0.5,0.1l0.4-0.2l0.1-0.3 M88,129.1l0.4-0.1 M74.4,120.6l0.4,0.1 M74.7,121l0,0.4 M54.4,143.8l0.4-0.4
	l0.1-0.7l-0.2-0.8l-0.5-0.7l-0.6-0.4l-0.5-0.1l-2.5,1.5l1,0.9l0.7,1.7v0.3L54.4,143.8l1.3-0.7l0.3-0.3l0.1-0.7l-0.2-0.8l-0.5-0.7
	l-0.6-0.5l-0.6-0.1l-1.3,0.7 M54.3,139.9l1.2-0.7l1.3-0.7l0.7,0.2l0.5,0l0.5,0.4l0.3,0.7v0.6l-0.1,0.3v0.1l-0.1,0.1l-0.4,0.5
	l-1.2,0.7l-1.3,0.7 M58.6,141.1l0.1-0.2l-0.2-1.1l-0.8-1l-0.2,0 M57.1,142.3l0.3-0.4l0.1-0.6l-0.2-0.8l-0.5-0.7l-0.6-0.4l-0.6-0.1
	 M48.9,146.5l-0.5-0.4l-0.7-1.1l-0.3-1.1v-0.2l0.3-1l0.2-0.2l0.3-0.3l0.4-0.1l0.6-0.3h0.5l0.5,0.2l0.2,0.2 M48.9,146.5l-0.4-0.9
	l-0.2-0.3l-0.1-0.3l-0.3-0.4l-0.3-0.4v-0.6l0.6,0.7l0.1-0.2l0.8,0 M48.9,146.5L48.9,146.5l0.1,0.1L48.9,146.5z M52.3,145l-0.1,1.1
	l-1.5,1l-0.3,0l-1.1-0.3l0-0.1l-0.3-0.2l0.4,0.2l-0.4-0.9l0.4-0.3 M57.3,149.8l-0.1-0.5v-0.2l0.2-1l0.5-0.5l0.4-0.1l0.6-0.3h0.5
	l0.5,0.2l0.2,0.3l2.5-1.4l1.2-0.7l1.3-0.7l1.3-0.8l0.7,0.2l0.5,0l0.5,0.5l0.3,0.7v0.6l-0.2,0.4v0l-0.1,0.1l-0.4,0.5l-1.3,0.7
	l-1.3,0.7l-1.3,0.8l-2.2,1.2l0,1.1l-1.5,1l-0.3,0l-1-0.3l-0.4-0.3l-0.1,0v0l-0.5-0.4l-0.7-1.1L57.3,149.8L57.3,149.8v-0.5l0.6,0.7
	l0.2-0.2l0.2,0l0.1,0l0.4,0 M58.6,152l-0.2-0.4l-0.1-0.5l-0.2-0.3l-0.1-0.4l-0.3-0.3l-0.3-0.4 M59.1,151.2l-0.4,0.2l0.4,0.9
	l-0.4-0.2l-0.1-0.1 M64,145.5l0.6,0l0.6,0.5l0.5,0.8l0.3,0.7l-0.1,0.7l-0.4,0.3 M65.2,144.8l0.6,0.1l0.6,0.4l0.5,0.8l0.2,0.8
	l-0.1,0.6l-0.4,0.4 M64.1,149.3l0.4-0.4l0.1-0.7l-0.3-0.8l-0.5-0.7l-0.6-0.5l-0.5-0.1 M60.2,147.6l1,0.9l0.7,1.7v0.3 M68.3,146.6
	l0.1-0.2l-0.2-1.2l-0.8-1l-0.1,0 M73.6,130.9l9.7,5.6 M153.6,105.2h0.3c0.6,0,1.1,0.2,1.5,0.5l-0.1-0.2c-0.2-0.6-0.7-1.1-1.2-1.5
	c-0.6-0.4-1.2-0.5-1.9-0.3l-0.4,0.2l0.9,0.6l0.9,1.1l0.4,1.3v0.5l0.3-0.1h0.3 M151.7,103.9l-0.1-0.1h-0.9l-5.4,3.2l0.7-0.3l1,0.5
	l1,1.2l0.6,1.3l-0.1,1.2l-0.5,0.6l2.8-1.6l0.7-0.4l1.8-1l0.6-0.6l0-0.6 M152.6,111.9l0.6-1.2 M148,111.6l-0.1,0.1l-1,0l-0.3,0.5
	l-0.3,0.7c-0.3,1.1-0.3,2.3-0.1,3.5l0.1,0.6l0.5,0.1h0.4l0.6-0.1l0.4-0.3l-0.4-0.3l-0.9-1.3l0.3-0.8l0.1-0.9l0.2-0.4l0.3-0.3
	l1.9-1.1l1,0.7l0.1-0.1l0-1.2l0-1 M150.9,113.1l-0.2-0.1l0.1,0.3l0,0.5l-0.1,0.7l-0.7,1.2l-0.5,0.4l-0.2,0.1l-0.1,0.1h-0.4l0.2,0.1
	l0.7-0.2l0.7-0.6l0.5-0.9l0.1-0.9L150.9,113.1z M150.8,113l-0.3-0.2l-0.7,0.2l-0.7,0.6l-0.5,0.9l-0.2,0.9l0.2,0.7l0,0l0.3,0.1
	 M150.3,114.3l-0.4,0.2l-0.5-0.3v-0.3l0.3-0.3l-0.1,0.6l0.1,0.1h0.2l0.4-0.4V114.3h-0.4 M150.9,112.2l0.8,1.3l-0.9,2.3l-1.9,1.1
	l-0.6-0.3 M150.8,111l0.6-1.4 M155.3,105.7c1.1,0.9,1,3.1-0.5,6.6c-1.4,3.3-2.9,6-4.6,8.2l-2.2,2.8c0.3,0.8,0.6,1.6,1,2.3l5.3,3
	l0,0.5l-0.4,1.1l-0.9,1.5l-1.2,1.2l-2.2-1.3l-0.1,0l-1,1.3l1.3,1.7l1.1,0.9l0.1,0.2 M146.1,136.3l0.6,0.3l1.2,0.3l0.7,0l1.7-0.2
	l0.6-0.1l1.7-0.9l0.8-0.6l-1.2-1.8l0.8-0.7l0.7-1l0.6-1l0.4-1l0.1-0.5l1.3,1.7l0-1l-0.1-0.9l-0.3-0.8l-0.4-0.7l-0.1-0.1l-0.5-0.6
	l-0.7-0.5l-1.2-0.4l-1.4-0.2l-1.4,0.1 M155.4,127.5l0-0.1l0,0 M149,125.7c0.1,0.3,0.3,0.5,0.4,0.8l0.9,0.2l0.7,0.5l0.5,0.7l0.1,0.9
	l-0.1,0.9l-0.5,0.9l-0.2,0.1l0.3-0.6l0.2-0.6v0l-0.9-1.4c-0.3-0.5-0.6-1-0.9-1.5 M151.2,129.4l0-0.5l-0.1-0.5l-0.3-0.4l-0.4-0.3
	 M145.6,107.3l-0.5,0.4c-0.1,0.1-0.2,0.2-0.3,0.3c-2.3,2.2-3,5.9-2.2,11c0.2,1.1,0.4,2.2,0.7,3.2c0.4,1.7,1,3.3,1.7,4.8
	c0.3,0.6,0.6,1.2,0.9,1.9c0.2,0.3,0.3,0.7,0.5,1c0.1,0.2,0.3,0.5,0.4,0.7l0.7,1.1l0.1,0h0.6l0.6-0.1l0.6-0.2l1.1-0.7l-0.3,0.3
	l-0.7,0.5l-0.2,0.1 M151.1,134.5l0.4,0.2h0.2l0.1,0.1h0.3l0.5-0.4c-0.1-0.4-0.5-0.8-1-1.3c-0.6-0.4-1-0.7-1.4-0.6l-0.3,0.5l0.1,0.4
	c0.2,0.3,0.3,0.5,0.4,0.6l0.2,0 M155.4,127.5l1.8,2.3l5.3,3l0.9,1.3v0.2l0,0.3v0.2l0,0.3v0.4l-3.3,4.2l-0.3-0.2l-0.9,1.1l0.1,0.3
	l-3.3,4.2l-0.6,0.1l-0.7,0.3l-0.3,0l-3.8-2.2l-0.3-0.3l-0.9-0.5 M149.3,140.8l1.2,0.4l0.7,0.1l0.7,0l1.5-0.1l0.6-0.1l1.2-0.5
	l1.8-1.1l1.3-1.4l0.9-1.6l0.4-1.7l-0.1-1.6l-0.6-1.4 M162.5,132.8l0,0.3v0.5l0,0.1v0.5l0.9,1.3 M157.2,129.8l1.4,2 M164.7,136.6
	l-0.3-0.4l-8.1,10.2l0.3,0.3l0.2-0.2 M164.4,136.1l0.3-0.3 M160.2,139.6l-0.3-0.2l0,0 M162.2,139.6l-1,1.2l-0.2,0.5l-0.2,0.4
	l-0.1,0.1l-0.2,0.4l-0.2,0.1l-1.2,1.2l-1.4,1.8l1.3-0.5l1.1-0.8l0.9-1l0,0l-0.4-0.3 M161,141.4l-0.7,1l-0.1,0.1 M163,140.2l0-0.1
	l-0.2-0.4 M162.6,139.3l0.4,0.9l0.1,1l-0.1,1.1l-0.4,1.1l-0.6,1l-0.8,0.9c-1.6,1.5-3.4,2-5.3,1.6l-0.2,0.3 M156.6,146.7l-0.3,0.1
	l1.1-0.1l1.2-0.3l1.1-0.6l1-0.7l0.9-1l0.7-1.2l0.4-1.2l0.1-1.2l-0.2-1.1 M163.4,140.8l0-0.3l-0.1-0.2 M155.9,148.1l0.1,0.1
	c0.9,0.5,2,0.6,3.2,0.3c1.1-0.3,2-0.8,2.9-1.6l0.8-0.9l0.3-0.5l0.7-1.8l0.1-1.2l-0.2-1l-0.3-0.5 M155.5,147.6l0.3,0.1
	c1.9,1,3.9,0.6,5.9-1.1c2-1.7,2.6-3.5,2-5.6l-0.3-0.3 M160.8,143l0.9-1.5l0.6-1.6 M150.7,134.3l0.1-0.1 M155.9,145.1l-1-1.3l-0.2,0
	l-0.2,0.1l-0.3,0l-0.5,0.2h-0.3l1,1.3 M157.2,145.9l0.4-0.6 M155.9,147l0.1-0.1l0.4-0.6 M155.9,146.9l0.4-0.1 M162.6,134.2l-7.7,9.6
	 M159,143.6l2.2-2.8 M136.9,99.5l-1.8,0.7l-1.8,1.4l-1.5,2l-1.2,2.3l-0.6,2.3l0,2.1l0.7,1.6l1.2,0.9l1.6,0.1l1.8-0.6l1.8-1.5
	l1.6-1.9l1.1-2.3l0.6-2.3l0-2.1l-0.6-1.6l-1.2-0.9L136.9,99.5z M136.3,104.5L136.3,104.5L136.3,104.5L136.3,104.5l0.6,0.4l-0.3,0.4
	l-0.3-0.1 M135.5,105.5l-0.4,0.4l-0.3,0.6l-0.1,0.6l0.1,0.5l0.4,0.2l0.5-0.2l0.1-0.1l0.3-0.2l0.1-0.1l0.3-0.4l0.1-0.2v0l0.1-0.6
	l-0.1-0.3l0-0.2l-0.3-0.2L135.5,105.5z M136.4,105.7l0.3,0.1l0.4-0.2v-0.3 M136.3,104.5l-0.3,0.3 M134.3,103.8l1.3,0.8l0.1,0.3
	l-1.2-0.7h-0.2l-0.1,0.1l-0.6,0.2l1.2,0.7l0.1,0.3 M136.3,104.5H136 M136.3,106.9l0.4-0.1l-0.3-0.2 M135.6,107.7l-0.3,0.2l-0.3,0.1
	H135l0.1,0.2v0l0.2,0.2 M136.4,107.5l0.1-0.2 M136,107.3l0.2,0.4l-0.4-0.2 M146,107.2l0.5,0.1l0.5,0.3l0.5,0.5l0.7,1.3l0.1,0.7v0.4
	l-0.1,0.2l0,0.1l-0.1,0.2l-0.3,0.2l-0.3,0.1l-0.3,0l-0.3,0.3 M145.3,107l-0.2,0l-0.3,1 M147.3,111.3l0.1-0.1l0.3-0.3l0.6-0.1
	 M147.3,114.3l0.1-0.3v-0.1l0.1-0.1l0.4-1.1l1,0.6l1.9-1 M147.3,114.1l0.1-0.2 M149.1,114.7l0.3,0.1l0.1,0.5l0.2-0.2l-0.5-0.6
	L149.1,114.7L149.1,114.7l0.2,0.1l-0.4,0.2L149.1,114.7 M149.2,114.6L149.2,114.6l0.5,0.2v0.4 M149.4,114.3l0.3,0 M149.4,113.9
	l0.2,0.3 M117.9,98.1l0.6,0.5c0,0,0.1,0.1,0.2,0.2c0,0,0.1,0.1,0.2,0.2l0.7,0.6l0.6,0.9l0.2,1.2l-0.1,1.5l-0.6,1.5l-0.9,1.5
	l-2.1,2.4l0.5,0l0.4,0.1l0.3,0.3l0.3,0.5l0,0.1v0l0.1,1.1c0.2,0.7,0.5,1.1,0.9,1.4c0.2,0.1,0.8,0.3,1.5,0.6l0.8,0.1l1.1-0.1l4.3-2.6
	l0.6-0.6l1.2-1.5l0.9-1.9l0.3-1.8l-0.1-1.6l-0.3-0.6l-0.4-0.4l-15.4-13.9 M132.6,106.6l1.3,0.7l0.3,0l-0.1,0l-1.1-0.6l-0.2-0.3v-0.6
	l0.1-0.3h-0.2 M134.2,104.2h-0.6 M134.7,105.2l-0.2,0.3 M131.3,106.4l0.6-2.1l1.8-1.5l2.2,1.3 M131.9,104.3l2.2,1.2l0,0.7h0l0.3,0
	 M129.1,113l1.6,0.9l-0.5-0.4l-0.8-1.2l-0.3-0.6l-0.5-0.4l-0.5-0.2h-0.7l-0.7,0.1l-17.4,10.1l-1.1-0.7l-0.6-0.1h-0.3l1.5,1l1.3,0.6
	l0.2,0l0.2,0.1l0.2,0h0.3l1.1-0.9h0.1l0.1-0.1l0.1-0.1c0.5-0.5,1-0.5,1.6-0.1c0.5,0.3,0.6,0.7,0.5,1.2 M133.4,108l0.5,0.3l-0.3-0.1
	l-0.3-0.2L133.4,108l-0.3-0.2l-0.4-0.3l0.1-0.1h0l0.1,0l0.1,0l0,0l0.7,0.5 M133.9,108.3l0.6,0.3l0.1,0.1l0.3-0.5l-0.3-0.2l-0.3-0.1
	L134,108l-0.1-0.2v-0.4 M134.5,108h0.2l0.1,0h0.1 M134,107.2l0.1-1 M132.6,107.4L132.6,107.4L132.6,107.4L132.6,107.4z M133.3,107.9
	l-0.3-0.3l0.1,0.2 M132.9,107.6l-0.1-0.1l-0.1,0 M140,137.8l0.2-0.1l0.7,0l0.8,0.3l0.8,0.7l0.7,0.9l0.4,1.1l0.2,1v0.3l0,0.3
	l-0.1,0.2l-0.4,0.6l-0.7,0.3c-0.6,0-1.2-0.2-1.8-0.7l-0.4-0.4c-1.1,0.3-2.4,0.5-3.8,0.4l8,4.5l0-6.8l-0.1-0.4l0-0.5l-0.3-1.5
	l-8.6-20.5l-1.3-2.4l-0.7-0.4l-0.5-0.1l-1.1,0l-0.6-0.1l-0.6-0.3 M131.3,106.7l1,0.6 M134.1,106.2l-1.3-0.7 M132.3,105.9l0-0.2
	 M124.2,122.4l-0.3,0l-0.4-0.1l-0.4-0.3l-0.3-0.4l-0.3-0.5l-0.1-0.5l-0.5-0.8h-0.1l-0.7-0.2l-1,0.5l-0.9,1l-0.6,1.3l-0.2,1.3l0.4,1
	l0.8,0.3l0.5,0l0.4,0.1l0.4,0.3l0.3,0.4l0.4,1l0.5,0.8l0.1,0.1l0.7,0.2l1-0.5l0.9-1l0.6-1.3l0.1-1.3l-0.3-0.9l-0.7-0.3 M120,121.6
	l-0.3,0.4l-0.1,0.4l0.1,0.4l0.3,0.1l0.3-0.1l0.4-0.3l0.3-0.4l0.1-0.4l-0.1-0.4l-0.3-0.1l-0.3,0.1L120,121.6z M123.9,124.1l-0.4,0.1
	l-0.3,0.3l-0.2,0.4l-0.1,0.5l0.1,0.4l0.2,0.1l0.4-0.1l0.6-0.7l0-0.5l-0.1-0.4L123.9,124.1z M121.2,119.3l0.6,0.4 M121.5,127.1
	l0.5,0.3 M115.7,127.5l0.4,0.3v-0.1l0-0.3v0l-0.1-0.2l-0.1,0l-0.1,0l-0.1,0h-0.1l-0.5-0.7l-0.4-0.7l7.5,6l0.2,0.1l0.6,0.5l0.2,0.1
	 M122.2,131.7v0.3v0.3l-0.1,0.7l-0.3,0.6l0.4-0.6l0.2-0.7v-0.4 M134,134.9c-0.3,0.4-0.4,1-0.3,1.8l0,0.3c0.3-0.1,0.6-0.2,0.9-0.3
	h0.1l0.2-0.4l0.4-0.1l0.1,0l0.3,0.2l0.4,0.4l0.3,0.6l0.1,0.6l0,0.2v0.1l-0.1,0.1l-0.3,0.2H136l-0.2,0l-0.1,0
	c-0.3,0.1-0.6,0.3-0.9,0.4l0.3,0.3c0.6,0.5,1.2,0.7,1.7,0.7l0.4-0.1l0.5-0.4l0.1-0.1l0.1-0.2l0.1-0.2l0-0.3v-0.3l-0.1-0.8l-0.3-0.8
	l-0.4-0.8l-0.6-0.7l-0.6-0.5l-0.6-0.3c-1.5,0.2-3.2,0.3-5.2,0.1c-2.7-0.2-4.9-0.8-6.5-1.8l-0.4-0.2l0.1,0h0.1l0.1,0l0.2,0
	 M133.7,136.9c-1.3,0.3-3,0-5-0.7c-1.9-0.7-3.7-1.8-5.4-3.2l-0.3-0.3l-0.1,0.9l-0.6,0.6l-1.9,1.2l-0.6,0.2l0.5,0.3
	c0.2,0.1,0.4,0.3,0.6,0.4c0.4,0.2,0.8,0.5,1.2,0.7c0.1,0,0.2,0.1,0.3,0.1c0,0,0.1,0,0.1,0.1c0.3,0.2,0.6,0.3,0.8,0.5
	c0.1,0,0.2,0.1,0.3,0.2c0.4,0.2,0.7,0.4,1.1,0.6c0.2,0.1,0.4,0.2,0.6,0.3c0.1,0.1,0.2,0.1,0.3,0.2c0.2,0.1,0.4,0.2,0.6,0.3
	c0.1,0,0.3,0.1,0.4,0.2 M123,132.3l0,0.4 M114.5,122.7l0.7,0.6c0.4,0.3,0.9,0.7,1.3,1l8.2,6.5l0.3,0.1h0.1c1.3,0.8,3.2,1.2,5.6,1.4
	c1.4,0.1,2.7,0.1,3.9,0l-0.7-1.1l-0.8-0.7 M132.7,125.6l-0.3,0.4l-0.1,0.1l-0.6,1l-0.3,0.8l-0.1,0.9l0.1,0.7l0.1,0.1l0.3,0.3
	l0.5,0.2 M133,128.5h0.5l1.2-0.3l0.4,0.1l0.6,0.3v-0.9l-1.3-0.7l-0.8-0.1l-0.3,0.1l-0.2,0.2l-0.2,0.3l-0.1,0.3v0.6L133,128.5z
	 M131.6,129.7l0.2,0.3l0,0 M132.9,125.3l2-2.9 M147,115.1l1,0.6l0.9-2.4 M147.9,115.7l1,1.3 M147.3,117.1l-0.7,1.1
	c0.2,1,0.5,2,0.7,2.9l3.1-3.8 M149.9,117.3l0.3-0.4 M148,123.3c-0.3-0.7-0.6-1.5-0.8-2.3 M146.5,118.2l-0.1-1.2 M143.4,122.2l-2,2.6
	l-0.5,1.3l1.7,4.1c0.1-0.5,0.2-1,0.2-1.4l-0.1-0.3c-0.1-0.5-0.2-0.8-0.3-1 M136.9,129.9c-0.3,0.4-0.4,0.9-0.3,1.7l0.1,0.3l1-0.4
	l0.1-0.1l0-0.1l0.4-0.1l0.3,0.1h0.1l0.1,0.1h0.1l0,0l0.2,0.2l0.2,0.2l0.3,0.6l0.1,0.6v0.2l-0.1,0.2l-0.1,0.1l-0.2,0.1l-0.4,0
	l-0.9,0.4l0.3,0.3c0.5,0.5,1.1,0.8,1.7,0.7l0.4-0.1l0.3-0.1l0.1-0.2l0.2-0.2l0.1-0.2l0.1-0.3l0-0.3v-0.3l-0.1-1l-0.4-1l-0.7-0.9
	l-0.8-0.6l-0.8-0.3l-0.7,0.1 M134.5,132.3c0.7-0.1,1.3-0.2,1.9-0.4l0.2,0 M138.6,131.3l-0.1,0l-0.1-0.1l-0.3,0l-0.4,0.1
	 M138.6,133.5l0.5-0.2l0.2-0.3v-0.4l-0.2-0.5l-0.3-0.5l-0.4-0.3l-0.3,0l-0.5,0.2 M142.5,130.2l2.7,6.5l0.2,0.6l0-0.7l-0.1-0.7
	l-0.1-0.9c0-0.4-0.1-0.7-0.3-1l-0.7-2.8l-0.1-0.7l-0.2-0.8v-0.4l0-0.3l0.3-0.9l0.9-1 M146,128.9l-0.3,0.9l0.2,0.9l0.5,0.7l0.9,0.4
	l1,0.1l1-0.4 M144.9,131.8l-0.3-0.3l-0.4-0.3 M149.2,130.1l-0.2-0.3c-1.9-2.6-3.4-6-4.3-10.4c-1.1-5.2-0.5-8.6,1.8-10.1
	 M146.5,129.9l0,0.6l0.1,0.3l0.4,0.5l0.3,0.2l0.4,0.2 M144.1,130.5l4.3,2.5 M136.8,116.6l4,9.5 M135.1,108.2h-0.3 M118.5,98.6
	l-0.6-0.4l0,0.7l-0.1,0.9l-0.2,0.6l-0.3,0.6l2.1,1.2l0.1-0.6V101l-0.1-0.6l-0.6-1.5 M115.3,95.8l-1,2.2l-1,3.6l-0.2,1.8l0,1.6
	l0.3,1.5l0.6,1l0.5-0.1l0.6,0.3l1.2-0.4l0.3-0.2l0-2.7l0.2-0.7l-0.1-0.4l0.6-2.2 M116.6,107l0.3-0.1l1.2-1.3l0.7-1.2l-2-1.1
	 M118.7,104.3l0.2-0.4l0.5-1.7 M101.3,114.3l0.5,0.3l5.1-2.9l0.3,0.1l0.4,0l0.4,0l-0.3-2.1l0-0.1v-0.3v-0.1l3.3-3.5l0.2-0.1l0.1-0.1
	l0.2,0h0.3l0.1,0.1l1.4,0.8l0,0 M111.9,105.6l-0.1,0l1.4,0.9l0.4,0.7l0.1,0.3l0.1-0.1h0.1 M111.8,105.6l-0.3,0.1 M111.3,106.4
	l-1.5,1.4l2.2,1.2l0.1,0.3l0.1-0.3l0.5-0.7l0.6-0.5l0.4-0.3 M112.1,109.3l-0.3,0.6l0.8-0.4l0.7-0.6l0.6-0.7l0.3-0.3l0.6-0.3l0.3,0
	 M109.8,107.8l-0.4-0.3l-1.7,1.8l2.6,1.5l1.8-1.7 M107.7,109.8l0.5,1.1l-0.5-1.6L107.7,109.8z M108.7,110.3l-0.5,0.5L108,111v0.4
	l0.1-0.1h0.1l0.3,0.2l0.2,0.2l0.3-0.2l-0.4-0.4l-0.2-0.1 M106.9,111.8l0.8,0.4l0.3,0.1l0-0.5h0l0.2,0c0-0.1-0.1-0.2-0.1-0.3
	l-0.1-0.1 M108.7,111.7l-0.4,0.1 M111.9,109.9l-2,1.2l-0.8,0.5 M108,112.4h0.8l0.4-0.1l0.9-0.4l3.3-1.9l0.9-0.4l1.1-0.3l1.3-0.7
	 M109.8,111.1l-0.4-0.4l-0.4-0.3 M106.4,115.6l-0.1,0.8l0.2,0.7l0.4,0.5l0.4,0.3l1.8,1.4l0.3,0.2l0.4,0.1l0.4,0l0.9-0.2l0.5-0.3
	l1.9-4.7l0.3-2.5l0.3-0.9l0.5-0.9l0.6-0.7 M115.4,111.8l0.1,0.4l0.3,0.1l0.4-0.1l0.3-0.3l0.3-0.4l0.1-0.5l-0.1-0.3l-0.3-0.1
	l-0.3,0.1l-0.4,0.3l-0.3,0.4L115.4,111.8z M111.6,106.3l2,0.9 M98.7,124.5l5-2.9l1.2-0.7l0.9-0.3l0.9-0.1l0.3,0h0.2 M103.7,121.6
	l0.1,0.2l0.8,0.9l1,0.7l1.6,0.7l1,0.4l1,0.5l0.2,0.1l0.2,0.2l0.4,0 M107,120.6l1,0.5l0.3,0.2l0.4,0.2 M109.2,121.4l-0.2-0.2
	l-0.7-0.4l-0.2-0.1 M111.4,124.4l-0.4,0.1l-1.3-0.1l-2.3-1l-0.5-0.3c-1.4-0.8-2.1-1.3-2.2-1.3 M109.5,125.4l0.3,0.2h0.5l3-0.7l-3,1
	h-0.6l-0.3-0.2l0.6,0.6l0.5,0.2h0.2l0.3,0l2.5-0.8l0.6-0.2l-1.3-1l-0.3-0.3c-0.2,0.1-0.3,0.2-0.4,0.3l0,0l0.7,0.6l-0.8-0.5l0.1,0
	 M109.5,125.6l-0.1-0.1l-0.1-0.2l-0.1-0.1 M109.8,125.6L109.8,125.6l-0.6-0.3 M108.2,124.6l0.9,2.4l0.6,0.9l0.6,0.6l0.7,0.4l0.7,0.1
	l0.6-0.1h0.3l-0.3-0.9l-0.1-0.5l0-0.2l-1.5-1.2 M107.2,124.2l0.1,0.4c0.8,3.3,2.2,5,4.1,5.3l0.6,0l0.6,0h0.1h0l0.3,0h0.3l0.4,0.2
	l0.2-0.2l0.1-0.1c0.1-0.1,0.1-0.3,0.2-0.5l-0.3-0.2l-1.1-0.2h-0.1h-0.2 M120.8,133.9l-3.3-2.6l-0.2-0.1l-2.3-1.8v-0.1
	c-0.1,0-0.2,0-0.3-0.1c-0.1-0.2-0.2-0.5-0.3-0.9l0.2-0.5l-0.1,0.5l0,0.4l0.3,0.3l0.4,0l0.5-0.1l0,0L115,128l-1.2-1.8l-0.4-0.7
	 M114,125.3l0.3,0.2 M112.9,128.7l0.1-0.2c0.1,0,0.3-0.1,0.4-0.1l0,0l-0.4,0.1L112.9,128.7l-0.2,0.3 M114.2,129.4
	C114.2,129.4,114.2,129.3,114.2,129.4c0-0.3,0.1-0.4,0-0.6c0,0,0,0,0-0.1l-0.2-0.2l-0.3-0.1h0c0,0-0.1,0-0.2,0 M112.2,127.5l1.2,0.9
	l0.1,0l0.1,0 M113.7,128.4c0.1,0,0.3,0,0.3,0c0.1,0,0.2,0.1,0.2,0.3l0,0v0l0,0.4l0,0.2l-0.1,0.3l-0.1,0.2c-0.1,0.3-0.4,0.4-0.7,0.4
	H113l-0.3-0.1l2.6,2.2l0.2,0.1l0.1,0h0.3l0.3,0l0.2-0.1l0.3-0.2l0.3-0.4 M113.7,128.4l0.3,0l0.1,0.1 M115.8,127.2L115.8,127.2l0-0.1
	c0,0,0,0-0.1,0l-0.1,0.1 M114.6,129l0.3,0l0,0.1c0.2,0,0.5-0.1,0.8-0.4c0.6-0.5,0.8-1,0.5-1.3c-0.1-0.1-0.2-0.2-0.3-0.2
	c-0.1,0-0.1,0-0.1-0.1 M116.1,127.9l0,0.3l-0.1,0.3l-0.3,0.3 M115,126.5l0.7,0.6 M114.2,129.4L114.2,129.4 M112.7,129.9l0.1,0.1l0,0
	c0.1,0.1,0.2,0.1,0.3,0.1c0.1,0,0.1,0,0.2,0l0.4-0.1 M112.6,129.9l0.2,0.3 M117.5,131.2L117.5,131.2l0.3,0l0.3,0l0.3-0.1l0.3-0.2
	l0.3-0.5l0.1-0.3v-0.3l-0.1-0.3l-0.1-0.1l-0.1-0.2l-2.5-1.9l-0.3,0 M118.3,124.2l0.4,0.2 M112.4,124c0.4-0.2,0.8-0.6,1.3-1
	 M99.1,122.6l8.2-4.8 M100.7,116.3l6.9-4.1 M101.2,115.1l0.7-0.4 M122.5,139.6l-0.4-0.4l0-0.3l0.4,0l-0.6-0.4l-0.3-0.1l0-0.1
	c-0.2-0.1-0.4-0.2-0.6-0.3l-0.2-0.2l-0.4-0.6l-0.4-0.9l-0.2-0.8l-0.6-0.2l-0.4-0.4h-0.1l-0.1-0.1l-0.1-0.1l-0.2-0.2l-0.1-0.3
	l-2.4-1.8 M118.5,134.9l0.1,0.1l0.5,0.1l0.6-0.3l1.9-1.2l0,0 M119.7,135.7L119.7,135.7 M118.1,134.4l0.1,0.1l0.2,0.4 M148,139.6
	l-2.4-3.4l-0.3,0.3 M145.3,135.9l0.4,0.4 M145.4,137.3l0.4,1.3l0,1.3l7.6,4.3 M145.8,139.9l0.1,0.7 M148.5,140.2l0.6,0.4
	 M135.5,134.5c0.6-0.1,1.1-0.3,1.6-0.4l0.6-0.1 M135.8,138.5l0.8-0.3 M135.2,142.4c0.5,0.1,1,0.1,1.5,0.1 M141.5,139.6l0.3,0.3
	l0.3,0.4l0.2,0.8V141l-0.1-0.4l-0.3-0.6l-0.4-0.4l-0.4-0.2l-0.4,0.1l-0.1,0.3l0.4-0.3h0.3L141.5,139.6z M139.7,138.1l-0.1,0.1
	l-0.1,0.3l0,0.2v0.1l-0.1,0.3v0.3l0.1,0.4v0.2c0.3-0.1,0.7-0.2,0.9-0.3l0.1,0 M142.3,141.2l-0.1,0.2l0,0.1l-0.1,0.1l-0.2,0.1
	l-0.3-0.1l-0.4,0.1c-0.2,0.1-0.5,0.2-0.7,0.3 M141.6,141.7l0.6-0.3 M123.6,135.4l0.6,0.3c2.6,1.5,5.2,2.7,7.8,3.5
	c0.1,0,0.2,0.1,0.3,0.1l0.7,0c0.5,0,1.1-0.1,1.8-0.3 M122.4,137.3l-0.2,0.1l-0.1,0h0l-0.2,0h0h-0.2l-0.1-0.1l-0.2-0.1l-0.4-0.9
	 M122.2,137.4l0.1-0.2 M123.3,137.8L123,138c-0.1,0.1-0.2,0.1-0.3,0.2l-0.2,0.3l-0.3,0.1v-0.2c-0.2,0-0.5,0-0.7,0l0.4,0.2
	 M121.8,137.5l0.3-0.4 M122.2,138.3c0.1-0.1,0.3-0.1,0.5-0.2 M123.1,139.4l0.7,0.5l0-0.1l-0.6-0.3L123.1,139.4l-0.3-0.2l-0.5-0.2
	 M125,140.6L125,140.6l0.8-1.4l-0.2,0.3h-0.3l-0.7,0.6l-0.1,0.3l-0.2-0.1l-0.1,0l-0.1-0.1l-0.3-0.1 M124.5,140.4l-0.1-0.1h-0.1
	 M123.9,139.8l0.8-1.2 M124.6,140.1l0.7-1.2 M125.3,139.5l0.3-0.4 M125.2,140.9l1-1.5 M122.9,139.2l0.7-1.2 M132.3,139.3
	c2.9,0.9,5.3,1.2,7,0.8 M135.4,136.1l-0.7,0.4 M122.2,132l-3.2-2.5 M111.7,119l11-6.4 M144.6,147l5.9,4.6"/>
<path id="Layer0_5_2_STROKES" class="st4" d="M138.4,42.6l-0.3,1.5l-0.1,0.7"/>
<path id="Layer0_5_3_STROKES" class="st5" d="M73.6,130.9l1.5-0.8 M186.8,44.4v2 M186.8,34.2v8.1 M176.8,38v1.9 M176.8,28.5V36
	 M176.8,41.7v7.5 M73.6,130.9l-2.8,1.6 M84.8,135.7l-1.5,0.9 M78.9,139l-1.6,0.9 M83.3,136.5l-2.8,1.6 M69.2,133.5l-1.6,0.9
	 M66,135.3l-6.3,3.7 M75.8,140.8l-6.4,3.7"/>
<path id="Layer0_6_MEMBER_1_1_STROKES" class="st6" d="M278.9,118.3V139h-79.7v-20.7H278.9z"/>
<text transform="matrix(1 0 0 1 209.1085 133.5696)" class="st7 st8">3241-P12</text>
</svg>
