<?xml version="1.0" encoding="utf-8"?>
<!-- Generator: Adobe Illustrator 24.2.1, SVG Export Plug-In . SVG Version: 6.00 Build 0)  -->
<svg version="1.1" id="Ebene_1" xmlns="http://www.w3.org/2000/svg" xmlns:xlink="http://www.w3.org/1999/xlink" x="0px" y="0px"
	 viewBox="0 0 349.1 161" style="enable-background:new 0 0 349.1 161;" xml:space="preserve">
<style type="text/css">
	.st0{fill:#666666;}
	.st1{fill:#999999;}
	.st2{fill:#0099FF;}
	.st3{fill:#B1B1B1;}
	.st4{fill:none;stroke:#000000;stroke-width:0.5;stroke-miterlimit:5;}
	.st5{clip-path:url(#SVGID_2_);enable-background:new    ;}
	.st6{fill:#FFFFFF;}
	.st7{font-family:'ArialMT';}
	.st8{font-size:10.303px;}
	.st9{clip-path:url(#SVGID_4_);enable-background:new    ;}
	.st10{clip-path:url(#SVGID_6_);enable-background:new    ;}
	.st11{clip-path:url(#SVGID_8_);enable-background:new    ;}
	.st12{clip-path:url(#SVGID_10_);enable-background:new    ;}
	.st13{clip-path:url(#SVGID_12_);enable-background:new    ;}
	.st14{clip-path:url(#SVGID_14_);enable-background:new    ;}
	.st15{clip-path:url(#SVGID_16_);enable-background:new    ;}
	.st16{font-size:14px;}
	.st17{fill:none;stroke:#FF9900;stroke-linecap:round;stroke-linejoin:round;}
</style>
<path class="st0" d="M63.9,150.3v-38L30.6,93.2v38L63.9,150.3 M60.9,113.2l1,1c0.2,0.4,0.3,0.9,0.3,1.3v30.2c0,0.3-0.1,0.5-0.4,0.9
	c-0.3,0.2-0.6,0.1-0.9-0.1l-27.3-15.8c-0.4-0.2-0.7-0.5-0.9-1c-0.3-0.6-0.5-1-0.5-1.2V98.2c0-0.4,0.2-0.6,0.5-0.8
	c0.1-0.1,0.4-0.1,0.9,0L60.9,113.2 M61.9,114.2l-1-1L33.5,97.4c-0.5-0.1-0.8-0.1-0.9,0c-0.3,0.2-0.5,0.4-0.5,0.8v30.4
	c0,0.2,0.2,0.6,0.5,1.2c0.2,0.5,0.5,0.8,0.9,1l27.3,15.8c0.3,0.2,0.6,0.3,0.9,0.1c0.3-0.3,0.4-0.6,0.4-0.9v-30.2
	C62.2,115.1,62.1,114.6,61.9,114.2 M75.6,105.6l-11.8,6.8v38l4.3-2.5l7.4-4.2L75.6,105.6 M63.9,112.3l11.8-6.8L42.4,86.4l-5.2,3.1
	l-6.5,3.7L63.9,112.3z"/>
<path class="st1" d="M68.2,147.8l13.2,7.8v-53.1L37.1,76.8l0.1,12.7l5.2-3.1l33.2,19.1v38L68.2,147.8z"/>
<path class="st2" d="M87.5,99l-6,3.5v53.1l5.3-3.1l0.8-0.4L87.5,99L87.5,99 M88.8,97.2l-11.6-6.8V93l10.3,6l0.1,0.1v53l-0.8,0.4
	l2,1.1L88.8,97.2 M55.3,75.2l-4.4,2.6L77.2,93v-2.6l2.2-1.2L55.3,75.2 M81.7,87.9L55.3,72.6v2.7l24.1,13.9L81.7,87.9 M55.3,72.6
	l-4.5,2.7v2.6h0.1l4.4-2.6V72.6 M41.7,70v4l1.3-0.8l7.8,4.5v-2.6L41.7,70 M41.7,74.1L37,76.8l44.4,25.7l6-3.5l-10.2-6L50.9,77.8
	h-0.1L43,73.3L41.7,74.1 M216.4,76.6V24.4L180,45.3v52.2L216.4,76.6 M168.6,81.5c1-0.6,1.9-1.4,2.6-2.7c0.7-1.2,1.1-2.4,1.1-3.6
	s-0.4-1.9-1.1-2.3c-0.7-0.4-1.5-0.3-2.6,0.3c-1,0.6-1.8,1.5-2.6,2.7c-0.7,1.2-1.1,2.4-1.1,3.5c0,1.2,0.4,1.9,1.1,2.3
	C166.8,82.2,167.6,82.1,168.6,81.5 M136.9,19.5l4.2,2.4v2.6l-6.3,3.8l26.1,15l8.6-5.1l10.6,6.2v0.9l36.4-20.9L172.4-1L136.9,19.5
	 M132.4,26.9l2.3,1.4l6.3-3.8v-2.6L132.4,26.9z"/>
<path class="st3" d="M180.1,45.3v-0.9L88.8,97.2v56.4l91.3-52.8v-3.3V45.3 M171.1,78.9c-0.7,1.2-1.5,2.1-2.6,2.7
	c-1,0.6-1.8,0.7-2.6,0.3c-0.7-0.4-1.1-1.1-1.1-2.3c0-1.1,0.4-2.3,1.1-3.5c0.7-1.2,1.6-2.1,2.6-2.7s1.9-0.7,2.6-0.3
	c0.7,0.4,1.1,1.1,1.1,2.3C172.2,76.5,171.9,77.7,171.1,78.9 M134.8,28.3l-2.3-1.4l8.6-5l-4.2-2.4l-3.9-2.3L41.7,70l9.1,5.2l4.5-2.7
	l26.4,15.3l-2.3,1.3l-2.2,1.2l11.6,6.8l91.3-52.7l-10.6-6.2l-8.6,5.1L134.8,28.3z"/>
<path id="Layer1_2_1_STROKES" class="st4" d="M180.1,44.4l-10.6-6.2l-8.6,5.1l-26.1-15l-2.3-1.4l8.6-5l-4.2-2.4l-3.9-2.3L41.7,70
	l9.1,5.2l4.5-2.7l26.4,15.3l-2.3,1.3l-2.2,1.2l11.6,6.8L180.1,44.4v0.9l36.4-20.9L172.4-1l-35.6,20.5 M134.8,28.3l6.3-3.8v-2.6
	 M168.6,81.5c1-0.6,1.9-1.4,2.6-2.7c0.7-1.2,1.1-2.4,1.1-3.6s-0.4-1.9-1.1-2.3c-0.7-0.4-1.5-0.3-2.6,0.3c-1,0.6-1.8,1.5-2.6,2.7
	c-0.7,1.2-1.1,2.4-1.1,3.5c0,1.2,0.4,1.9,1.1,2.3C166.8,82.2,167.6,82.1,168.6,81.5z M216.4,24.4v52.2L180,97.5v3.3l-91.3,52.8
	l-2-1.1l-5.3,3.1l-13.2-7.8l-4.3,2.5l-33.2-19.1v-38l6.5-3.7l-0.1-12.7l4.7-2.7v-4 M81.5,102.5l6-3.5l-10.3-6L50.9,77.8h-0.1
	L43,73.3l-1.3,0.8 M50.9,77.8l4.4-2.6v-2.7 M50.8,75.2v2.6 M77.2,90.4V93 M87.5,99L87.5,99l0.1,53.1l-0.8,0.4 M61.9,114.2l-1-1
	L33.5,97.4c-0.5-0.1-0.8-0.1-0.9,0c-0.3,0.2-0.5,0.4-0.5,0.8v30.4c0,0.2,0.2,0.6,0.5,1.2c0.2,0.5,0.5,0.8,0.9,1l27.3,15.8
	c0.3,0.2,0.6,0.3,0.9,0.1c0.3-0.3,0.4-0.6,0.4-0.9v-30.2C62.2,115.1,62.1,114.6,61.9,114.2z M30.6,93.2l33.2,19.1l11.8-6.8
	L42.4,86.4l-5.2,3.1 M75.6,105.6v38l-7.4,4.2 M88.8,153.6V97.2 M81.5,155.6v-53.1L37.1,76.8 M63.9,150.3v-38 M180.1,97.5V45.3
	 M55.3,75.2l24.1,13.9"/>
<g>
	<g>
		<defs>
			<polygon id="SVGID_1_" points="32.9,97 49.6,106.7 49.6,128 32.9,118.3 			"/>
		</defs>
		<clipPath id="SVGID_2_">
			<use xlink:href="#SVGID_1_"  style="overflow:visible;"/>
		</clipPath>
		<g class="st5">
			<text transform="matrix(0.7408 0.4278 0 1 36.1741 113.661)" class="st6 st7 st8">P</text>
		</g>
	</g>
</g>
<g>
	<g>
		<defs>
			<polygon id="SVGID_3_" points="38,100 54.7,109.7 54.7,131 38,121.3 			"/>
		</defs>
		<clipPath id="SVGID_4_">
			<use xlink:href="#SVGID_3_"  style="overflow:visible;"/>
		</clipPath>
		<g class="st9">
			<text transform="matrix(0.7408 0.4278 0 1 41.2735 116.6605)" class="st6 st7 st8">U</text>
		</g>
	</g>
</g>
<g>
	<g>
		<defs>
			<polygon id="SVGID_5_" points="43.5,103.2 60.3,112.9 60.3,134.2 43.5,124.5 			"/>
		</defs>
		<clipPath id="SVGID_6_">
			<use xlink:href="#SVGID_5_"  style="overflow:visible;"/>
		</clipPath>
		<g class="st10">
			<text transform="matrix(0.7408 0.4278 0 1 46.8246 119.8623)" class="st6 st7 st8">S</text>
		</g>
	</g>
</g>
<g>
	<g>
		<defs>
			<polygon id="SVGID_7_" points="48.6,106.1 65.4,115.8 65.4,137.1 48.6,127.4 			"/>
		</defs>
		<clipPath id="SVGID_8_">
			<use xlink:href="#SVGID_7_"  style="overflow:visible;"/>
		</clipPath>
		<g class="st11">
			<text transform="matrix(0.7408 0.4278 0 1 51.924 122.7632)" class="st6 st7 st8">H</text>
		</g>
	</g>
</g>
<g>
	<g>
		<defs>
			<polygon id="SVGID_9_" points="34.9,108 51.6,117.7 51.6,138.9 34.9,129.3 			"/>
		</defs>
		<clipPath id="SVGID_10_">
			<use xlink:href="#SVGID_9_"  style="overflow:visible;"/>
		</clipPath>
		<g class="st12">
			<text transform="matrix(0.7408 0.4278 0 1 38.1741 124.6129)" class="st6 st7 st8">O</text>
		</g>
	</g>
</g>
<g>
	<g>
		<defs>
			<polygon id="SVGID_11_" points="40.8,111.4 57.5,121.1 57.5,142.4 40.8,132.7 			"/>
		</defs>
		<clipPath id="SVGID_12_">
			<use xlink:href="#SVGID_11_"  style="overflow:visible;"/>
		</clipPath>
		<g class="st13">
			<text transform="matrix(0.7408 0.4278 0 1 44.0744 128.0612)" class="st6 st7 st8">F</text>
		</g>
	</g>
</g>
<g>
	<g>
		<defs>
			<polygon id="SVGID_13_" points="45.4,114.1 62.2,123.8 62.2,145 45.4,135.4 			"/>
		</defs>
		<clipPath id="SVGID_14_">
			<use xlink:href="#SVGID_13_"  style="overflow:visible;"/>
		</clipPath>
		<g class="st14">
			<text transform="matrix(0.7408 0.4278 0 1 48.7239 130.7125)" class="st6 st7 st8">F</text>
		</g>
	</g>
</g>
<g>
	<g>
		<defs>
			<polygon id="SVGID_15_" points="50.1,116.8 66.8,126.5 66.8,147.8 50.1,138.1 			"/>
		</defs>
		<clipPath id="SVGID_16_">
			<use xlink:href="#SVGID_15_"  style="overflow:visible;"/>
		</clipPath>
		<g class="st15">
			<text transform="matrix(0.7408 0.4278 0 1 53.3743 133.4625)" class="st7 st8"> </text>
		</g>
	</g>
</g>
<g>
	<text transform="matrix(1 0 0 1 216.5916 111.5113)" class="st7 st16">#1 - 9811-176</text>
</g>
<path id="Layer1_3_MEMBER_1_1_STROKES" class="st17" d="M325.5,119.2H208.2V91.4h117.3V119.2z"/>
<g>
	<text transform="matrix(1 0 0 1 216.5916 144.5114)" class="st7 st16">#2 - 9811-177</text>
</g>
<path id="Layer1_4_MEMBER_1_1_STROKES" class="st17" d="M325.5,152.2H208.2v-27.8h117.3V152.2z"/>
</svg>
