<?xml version="1.0" encoding="utf-8"?>
<!-- Generator: Adobe Illustrator 24.2.3, SVG Export Plug-In . SVG Version: 6.00 Build 0)  -->
<svg version="1.1" id="Ebene_1" xmlns="http://www.w3.org/2000/svg" xmlns:xlink="http://www.w3.org/1999/xlink" x="0px" y="0px"
	 viewBox="0 0 349.1 161" style="enable-background:new 0 0 349.1 161;" xml:space="preserve">
<g id="sp-svcp">
	<path style="fill:#676767;" d="M309,46.4V6.1H39.8v40.3C39.8,46.4,309,46.4,309,46.4z"/>
	<path d="M43.9,18c-1.7,1.7-2.4,3.8-2.4,6.1s0.7,4.4,2,5.8l11.6-12c-1.7-1.7-3.4-2.4-5.5-2.4C47.3,15.6,45.6,16.7,43.9,18z"/>
	<path style="fill:#989898;" d="M55.5,18.4C55.5,18.4,55.5,18,55.5,18.4l-12,12c0,0,0,0,0.3,0.3c1.7,1.7,3.4,2.4,5.8,2.4
		c2.4,0,4.1-0.7,5.8-2.4c1.7-1.7,2.4-3.8,2.4-6.1C57.9,21.8,57.2,20.1,55.5,18.4z"/>
	<path style="fill:#676767;" d="M42.5,24.2c0,2,0.7,3.8,2,5.1c1.4,1.7,3.1,2.4,5.1,2.4c2,0,3.8-0.7,5.1-2.4c1.4-1.4,2-3.1,2-5.1
		s-0.7-3.8-2-5.1c-1.4-1.4-3.1-2-5.1-2c-2,0-3.8,0.7-5.1,2C43.2,20.4,42.5,22.1,42.5,24.2z"/>
	<path style="fill:#333333;" d="M56.2,25.5v-2h-13v2H56.2z"/>
	<path d="M295.3,19.4c-1.7,1.7-2.4,3.8-2.4,6.1s0.7,4.4,2,5.8l11.6-12c-1.7-1.7-3.4-2.4-5.5-2.4C298.7,17,296.7,18,295.3,19.4z"/>
	<path style="fill:#989898;" d="M306.9,19.7C306.9,19.7,306.6,19.4,306.9,19.7l-12,12c0,0,0,0,0.3,0.3c1.7,1.7,3.4,2.4,5.8,2.4
		s4.1-0.7,5.8-2.4s2.4-3.8,2.4-6.1C309.3,23.1,308.3,21.4,306.9,19.7z"/>
	<path style="fill:#676767;" d="M294,25.5c0,2,0.7,3.8,2,5.1c1.4,1.7,3.1,2.4,5.1,2.4c2,0,3.8-0.7,5.1-2.4c1.4-1.4,2-3.1,2-5.1
		s-0.7-3.8-2-5.1s-3.1-2-5.1-2c-2,0-3.8,0.7-5.1,2C294.6,21.8,294,23.5,294,25.5z"/>
	<path style="fill:#333333;" d="M307.6,26.9v-2h-13v2H307.6z"/>
	<path d="M157.6,35.1l1.4-15l-55.3-1.7L103,36.8l54,1.7L157.6,35.1z"/>
	<g>
		
			<text transform="matrix(0.9995 3.043112e-02 -3.043112e-02 0.9995 106.139 33.1338)" style="fill:#FFFFFF; font-family:'ArialMT'; font-size:10.841px;">DE-ACT</text>
	</g>
	<path d="M65.7,39.2h28V12.6h-28V39.2z"/>
	<path style="fill:#707173;" d="M89.7,13.2H69.5c-1,0-1.7,0.3-2.4,1.4c-0.7,0.7-1,1.7-1,3.1v17.4l27-17.4c0-1-0.3-2-1-3.1
		C91.4,13.6,90.7,13.2,89.7,13.2z"/>
	<path style="fill:#333333;" d="M66.1,34.4c0,1.4,0.3,2,1,3.1c0.7,1,1.4,1.4,2.4,1.4h20.2c1,0,1.7-0.3,2.4-1.4c0.7-0.7,1-1.7,1-3.1
		V17L66.1,34.4z"/>
	<path style="fill:#3E3E40;" d="M91.7,17.7c0-1-0.3-2-1-2.7c-0.7-0.7-1.4-1-2.4-1H70.5c-1,0-1.7,0.3-2,1c-0.7,0.7-1,1.7-1,2.7v15.7
		c0,1,0.3,2,1,2.7c0.7,0.7,1.4,1,2,1h18.1c1,0,1.7-0.3,2.4-1c0.7-0.7,1-1.7,1-2.7V17.7H91.7z"/>
	<g>
		<text transform="matrix(1 0 0 1 72.5924 21.3846)" style="fill:#FFFFFF; font-family:'ArialMT'; font-size:4.701px;">CABIN</text>
	</g>
	<g>
		<text transform="matrix(1 0 0 1 68.6276 27.0213)" style="fill:#FFFFFF; font-family:'ArialMT'; font-size:4.701px;">VENT VLV</text>
	</g>
</g>
<path style="fill:#0099FF;fill-opacity:0.298;" d="M65.7,12.6l-3.9,57.6h94L93.8,12.6H65.7z"/>
<g>
	<path style="fill:#333333;" d="M155.9,70.2h-94v85.4h94V70.2z"/>
	<path d="M152.1,74.2H66.3V152h85.8V74.2z"/>
	<path style="fill:#707173;" d="M140.1,76.7H77.9c-2.9,0-5.4,1.2-7.5,3.7c-2.1,2.5-3.2,5.5-3.2,9v50.8l83.7-50.8
		c0-3.5-1.1-6.5-3.2-9C145.6,78,143,76.7,140.1,76.7z"/>
	<path style="fill:#333333;" d="M66.9,137.5c0,3.6,1,6.4,3.1,8.6c2.1,2.5,4.6,3.8,7.7,3.8h62c3,0,5.6-1.3,7.7-3.8
		c2.1-2.1,3.1-5,3.1-8.6V86.3L66.9,137.5z"/>
	<path style="fill:#3E3E40;" d="M146.6,88.5c0-3.2-0.9-5.8-2.8-7.8c-1.7-2.1-4.1-3.2-7.1-3.2H80.3c-2.7,0-4.8,1.1-6.5,3.2
		c-1.9,2-2.8,4.6-2.8,7.8v46.3c0,3.2,0.9,5.9,2.8,8c1.7,2.1,3.9,3.2,6.5,3.2h56.3c3,0,5.4-1.1,7.1-3.2c1.9-2.1,2.8-4.8,2.8-8V88.5z"
		/>
	<g>
		<text transform="matrix(1.0618 0 0 1 85.5363 93.0513)" style="fill:#FFFFFF; font-family:'ArialMT'; font-size:15.1362px;">CABIN</text>
	</g>
	<g>
		<text transform="matrix(1.0618 0 0 1 73.1823 108.4747)" style="fill:#FFFFFF; font-family:'ArialMT'; font-size:14.4967px;">VENT VLV</text>
	</g>
	<g>
		<text transform="matrix(1.0618 0 0 1 73.0363 135.4771)" style="fill:#00FF00; font-family:'ArialMT'; font-size:13.4125px;">OPEN</text>
	</g>
	<g>
		<text transform="matrix(1.0618 0 0 1 115.2868 135.939)" style="fill:#00CCFF; font-family:'ArialMT'; font-size:14.3245px;">CLS</text>
	</g>
</g>
</svg>
